<?xml version="1.0" encoding="UTF-8" standalone="no"?>
<!DOCTYPE svg PUBLIC "-//W3C//DTD SVG 1.1//EN"
 "http://www.w3.org/Graphics/SVG/1.1/DTD/svg11.dtd">
<!-- Generated by graphviz version 7.0.5 (20221223.1930)
 -->
<!-- Title: include/SSystem/SComponent/c_API_controller_pad.h Pages: 1 -->
<svg width="3538pt" height="170pt"
 viewBox="0.00 0.00 3538.00 170.00" xmlns="http://www.w3.org/2000/svg" xmlns:xlink="http://www.w3.org/1999/xlink">
<g id="graph0" class="graph" transform="scale(1 1) rotate(0) translate(4 166)">
<title>include/SSystem/SComponent/c_API_controller_pad.h</title>
<!-- Node1 -->
<g id="node1" class="node">
<title>Node1</title>
<g id="a_node1"><a xlink:title=" ">
<polygon fill="#999999" stroke="#666666" points="1685.5,-162 1536.5,-162 1536.5,-132 1685.5,-132 1685.5,-162"/>
<text text-anchor="start" x="1544.5" y="-150" font-family="Helvetica,sans-Serif" font-size="10.00">include/SSystem/SComponent</text>
<text text-anchor="middle" x="1611" y="-139" font-family="Helvetica,sans-Serif" font-size="10.00">/c_API_controller_pad.h</text>
</a>
</g>
</g>
<!-- Node2 -->
<g id="node2" class="node">
<title>Node2</title>
<g id="a_node2"><a xlink:href="m__Do__controller__pad_8h.html" target="_top" xlink:title=" ">
<polygon fill="white" stroke="#666666" points="1605.5,-96 1456.5,-96 1456.5,-66 1605.5,-66 1605.5,-96"/>
<text text-anchor="start" x="1464.5" y="-84" font-family="Helvetica,sans-Serif" font-size="10.00">include/m_Do/m_Do_controller</text>
<text text-anchor="middle" x="1531" y="-73" font-family="Helvetica,sans-Serif" font-size="10.00">_pad.h</text>
</a>
</g>
</g>
<!-- Node1&#45;&gt;Node2 -->
<g id="edge1" class="edge">
<title>Node1&#45;&gt;Node2</title>
<path fill="none" stroke="#63b8ff" d="M1584.37,-124.7C1572.74,-115.4 1559.41,-104.73 1548.98,-96.39"/>
<polygon fill="#63b8ff" stroke="#63b8ff" points="1582.07,-127.34 1592.06,-130.85 1586.44,-121.87 1582.07,-127.34"/>
</g>
<!-- Node4 -->
<g id="node4" class="node">
<title>Node4</title>
<g id="a_node4"><a xlink:href="c__API__controller__pad_8cpp.html" target="_top" xlink:title=" ">
<polygon fill="white" stroke="#666666" points="134,-30 0,-30 0,0 134,0 134,-30"/>
<text text-anchor="start" x="8" y="-18" font-family="Helvetica,sans-Serif" font-size="10.00">libs/SSystem/SComponent</text>
<text text-anchor="middle" x="67" y="-7" font-family="Helvetica,sans-Serif" font-size="10.00">/c_API_controller_pad.cpp</text>
</a>
</g>
</g>
<!-- Node1&#45;&gt;Node4 -->
<g id="edge27" class="edge">
<title>Node1&#45;&gt;Node4</title>
<path fill="none" stroke="#63b8ff" d="M1524.77,-142.3C1297.8,-131.9 665.28,-98.55 143,-30 140.21,-29.63 137.36,-29.23 134.49,-28.81"/>
<polygon fill="#63b8ff" stroke="#63b8ff" points="1524.58,-145.8 1534.73,-142.76 1524.9,-138.81 1524.58,-145.8"/>
</g>
<!-- Node28 -->
<g id="node28" class="node">
<title>Node28</title>
<g id="a_node28"><a xlink:href="m__Do__Reset_8cpp.html" target="_top" xlink:title=" ">
<polygon fill="white" stroke="#666666" points="1760,-90.5 1624,-90.5 1624,-71.5 1760,-71.5 1760,-90.5"/>
<text text-anchor="middle" x="1692" y="-78.5" font-family="Helvetica,sans-Serif" font-size="10.00">src/m_Do/m_Do_Reset.cpp</text>
</a>
</g>
</g>
<!-- Node1&#45;&gt;Node28 -->
<g id="edge28" class="edge">
<title>Node1&#45;&gt;Node28</title>
<path fill="none" stroke="#63b8ff" d="M1637.66,-124.93C1652.32,-113.35 1669.72,-99.61 1680.81,-90.84"/>
<polygon fill="#63b8ff" stroke="#63b8ff" points="1635.84,-121.91 1630.16,-130.86 1640.18,-127.4 1635.84,-121.91"/>
</g>
<!-- Node29 -->
<g id="node29" class="node">
<title>Node29</title>
<g id="a_node29"><a xlink:href="m__Do__machine_8cpp.html" target="_top" xlink:title=" ">
<polygon fill="white" stroke="#666666" points="1925.5,-90.5 1778.5,-90.5 1778.5,-71.5 1925.5,-71.5 1925.5,-90.5"/>
<text text-anchor="middle" x="1852" y="-78.5" font-family="Helvetica,sans-Serif" font-size="10.00">src/m_Do/m_Do_machine.cpp</text>
</a>
</g>
</g>
<!-- Node1&#45;&gt;Node29 -->
<g id="edge29" class="edge">
<title>Node1&#45;&gt;Node29</title>
<path fill="none" stroke="#63b8ff" d="M1676.43,-128.63C1722.26,-116.46 1781.63,-100.69 1818.25,-90.96"/>
<polygon fill="#63b8ff" stroke="#63b8ff" points="1675.62,-125.22 1666.85,-131.17 1677.41,-131.98 1675.62,-125.22"/>
</g>
<!-- Node3 -->
<g id="node3" class="node">
<title>Node3</title>
<g id="a_node3"><a xlink:href="d__a__do_8h.html" target="_top" xlink:title=" ">
<polygon fill="white" stroke="#666666" points="248,-30 152,-30 152,0 248,0 248,-30"/>
<text text-anchor="start" x="160" y="-18" font-family="Helvetica,sans-Serif" font-size="10.00">include/rel/d/a/d_a</text>
<text text-anchor="middle" x="200" y="-7" font-family="Helvetica,sans-Serif" font-size="10.00">_do/d_a_do.h</text>
</a>
</g>
</g>
<!-- Node2&#45;&gt;Node3 -->
<g id="edge2" class="edge">
<title>Node2&#45;&gt;Node3</title>
<path fill="none" stroke="#63b8ff" d="M1444.89,-78.83C1197.56,-75.14 488.07,-61.97 258,-30 254.82,-29.56 251.56,-29.02 248.28,-28.41"/>
<polygon fill="#63b8ff" stroke="#63b8ff" points="1444.75,-82.33 1454.8,-78.98 1444.85,-75.33 1444.75,-82.33"/>
</g>
<!-- Node2&#45;&gt;Node4 -->
<g id="edge3" class="edge">
<title>Node2&#45;&gt;Node4</title>
<path fill="none" stroke="#63b8ff" d="M1444.96,-78.55C1182.93,-73.87 397.19,-57.84 143,-30 140.2,-29.69 137.35,-29.34 134.47,-28.96"/>
<polygon fill="#63b8ff" stroke="#63b8ff" points="1444.72,-82.05 1454.78,-78.72 1444.85,-75.05 1444.72,-82.05"/>
</g>
<!-- Node5 -->
<g id="node5" class="node">
<title>Node5</title>
<g id="a_node5"><a xlink:href="d__a__alink_8cpp.html" target="_top" xlink:title=" ">
<polygon fill="white" stroke="#666666" points="375.5,-24.5 266.5,-24.5 266.5,-5.5 375.5,-5.5 375.5,-24.5"/>
<text text-anchor="middle" x="321" y="-12.5" font-family="Helvetica,sans-Serif" font-size="10.00">src/d/a/d_a_alink.cpp</text>
</a>
</g>
</g>
<!-- Node2&#45;&gt;Node5 -->
<g id="edge4" class="edge">
<title>Node2&#45;&gt;Node5</title>
<path fill="none" stroke="#63b8ff" d="M1444.83,-78.16C1214.78,-72.94 589.76,-56.66 385,-30 375.75,-28.8 365.86,-26.93 356.69,-24.94"/>
<polygon fill="#63b8ff" stroke="#63b8ff" points="1444.55,-81.65 1454.63,-78.38 1444.71,-74.66 1444.55,-81.65"/>
</g>
<!-- Node6 -->
<g id="node6" class="node">
<title>Node6</title>
<g id="a_node6"><a xlink:href="d__com__inf__game_8cpp.html" target="_top" xlink:title=" ">
<polygon fill="white" stroke="#666666" points="502,-30 394,-30 394,0 502,0 502,-30"/>
<text text-anchor="start" x="402" y="-18" font-family="Helvetica,sans-Serif" font-size="10.00">src/d/com/d_com_inf</text>
<text text-anchor="middle" x="448" y="-7" font-family="Helvetica,sans-Serif" font-size="10.00">_game.cpp</text>
</a>
</g>
</g>
<!-- Node2&#45;&gt;Node6 -->
<g id="edge5" class="edge">
<title>Node2&#45;&gt;Node6</title>
<path fill="none" stroke="#63b8ff" d="M1444.63,-80.59C1268.45,-80.73 855.22,-75.64 512,-30 508.84,-29.58 505.61,-29.08 502.36,-28.54"/>
<polygon fill="#63b8ff" stroke="#63b8ff" points="1444.64,-84.09 1454.63,-80.57 1444.62,-77.09 1444.64,-84.09"/>
</g>
<!-- Node7 -->
<g id="node7" class="node">
<title>Node7</title>
<g id="a_node7"><a xlink:href="d__attention_8cpp.html" target="_top" xlink:title=" ">
<polygon fill="white" stroke="#666666" points="627.5,-24.5 520.5,-24.5 520.5,-5.5 627.5,-5.5 627.5,-24.5"/>
<text text-anchor="middle" x="574" y="-12.5" font-family="Helvetica,sans-Serif" font-size="10.00">src/d/d_attention.cpp</text>
</a>
</g>
</g>
<!-- Node2&#45;&gt;Node7 -->
<g id="edge6" class="edge">
<title>Node2&#45;&gt;Node7</title>
<path fill="none" stroke="#63b8ff" d="M1444.96,-79.83C1285.06,-78.49 931.56,-70.69 637,-30 628.01,-28.76 618.4,-26.9 609.47,-24.94"/>
<polygon fill="#63b8ff" stroke="#63b8ff" points="1444.6,-83.33 1454.62,-79.9 1444.65,-76.33 1444.6,-83.33"/>
</g>
<!-- Node8 -->
<g id="node8" class="node">
<title>Node8</title>
<g id="a_node8"><a xlink:href="d__bright__check_8cpp.html" target="_top" xlink:title=" ">
<polygon fill="white" stroke="#666666" points="770.5,-24.5 645.5,-24.5 645.5,-5.5 770.5,-5.5 770.5,-24.5"/>
<text text-anchor="middle" x="708" y="-12.5" font-family="Helvetica,sans-Serif" font-size="10.00">src/d/d_bright_check.cpp</text>
</a>
</g>
</g>
<!-- Node2&#45;&gt;Node8 -->
<g id="edge7" class="edge">
<title>Node2&#45;&gt;Node8</title>
<path fill="none" stroke="#63b8ff" d="M1444.62,-77.77C1304.57,-73.37 1019.47,-61.13 780,-30 770.02,-28.7 759.35,-26.87 749.36,-24.96"/>
<polygon fill="#63b8ff" stroke="#63b8ff" points="1444.47,-81.27 1454.57,-78.08 1444.68,-74.27 1444.47,-81.27"/>
</g>
<!-- Node9 -->
<g id="node9" class="node">
<title>Node9</title>
<g id="a_node9"><a xlink:href="d__camera_8cpp.html" target="_top" xlink:title=" ">
<polygon fill="white" stroke="#666666" points="891,-24.5 789,-24.5 789,-5.5 891,-5.5 891,-24.5"/>
<text text-anchor="middle" x="840" y="-12.5" font-family="Helvetica,sans-Serif" font-size="10.00">src/d/d_camera.cpp</text>
</a>
</g>
</g>
<!-- Node2&#45;&gt;Node9 -->
<g id="edge8" class="edge">
<title>Node2&#45;&gt;Node9</title>
<path fill="none" stroke="#63b8ff" d="M1444.81,-77.27C1322.87,-72.48 1093.3,-60.04 900,-30 891.65,-28.7 882.74,-26.87 874.41,-24.96"/>
<polygon fill="#63b8ff" stroke="#63b8ff" points="1444.63,-80.76 1454.76,-77.65 1444.9,-73.77 1444.63,-80.76"/>
</g>
<!-- Node10 -->
<g id="node10" class="node">
<title>Node10</title>
<g id="a_node10"><a xlink:href="d__lib_8cpp.html" target="_top" xlink:title=" ">
<polygon fill="white" stroke="#666666" points="989,-24.5 909,-24.5 909,-5.5 989,-5.5 989,-24.5"/>
<text text-anchor="middle" x="949" y="-12.5" font-family="Helvetica,sans-Serif" font-size="10.00">src/d/d_lib.cpp</text>
</a>
</g>
</g>
<!-- Node2&#45;&gt;Node10 -->
<g id="edge9" class="edge">
<title>Node2&#45;&gt;Node10</title>
<path fill="none" stroke="#63b8ff" d="M1444.98,-76.82C1339.05,-71.79 1153.99,-59.34 998,-30 991.13,-28.71 983.84,-26.88 977.03,-24.97"/>
<polygon fill="#63b8ff" stroke="#63b8ff" points="1444.58,-80.31 1454.73,-77.27 1444.9,-73.31 1444.58,-80.31"/>
</g>
<!-- Node11 -->
<g id="node11" class="node">
<title>Node11</title>
<g id="a_node11"><a xlink:href="d__name_8cpp.html" target="_top" xlink:title=" ">
<polygon fill="white" stroke="#666666" points="1101,-24.5 1007,-24.5 1007,-5.5 1101,-5.5 1101,-24.5"/>
<text text-anchor="middle" x="1054" y="-12.5" font-family="Helvetica,sans-Serif" font-size="10.00">src/d/d_name.cpp</text>
</a>
</g>
</g>
<!-- Node2&#45;&gt;Node11 -->
<g id="edge10" class="edge">
<title>Node2&#45;&gt;Node11</title>
<path fill="none" stroke="#63b8ff" d="M1444.8,-72.85C1359.58,-65.05 1225.66,-50.83 1111,-30 1103.38,-28.62 1095.26,-26.82 1087.61,-24.98"/>
<polygon fill="#63b8ff" stroke="#63b8ff" points="1444.46,-76.33 1454.73,-73.75 1445.09,-69.36 1444.46,-76.33"/>
</g>
<!-- Node12 -->
<g id="node12" class="node">
<title>Node12</title>
<g id="a_node12"><a xlink:href="d__vibration_8cpp.html" target="_top" xlink:title=" ">
<polygon fill="white" stroke="#666666" points="1226.5,-24.5 1119.5,-24.5 1119.5,-5.5 1226.5,-5.5 1226.5,-24.5"/>
<text text-anchor="middle" x="1173" y="-12.5" font-family="Helvetica,sans-Serif" font-size="10.00">src/d/d_vibration.cpp</text>
</a>
</g>
</g>
<!-- Node2&#45;&gt;Node12 -->
<g id="edge11" class="edge">
<title>Node2&#45;&gt;Node12</title>
<path fill="none" stroke="#63b8ff" d="M1445.12,-66.62C1386.15,-57.15 1306.16,-43.73 1236,-30 1228.19,-28.47 1219.87,-26.71 1211.92,-24.97"/>
<polygon fill="#63b8ff" stroke="#63b8ff" points="1444.32,-70.04 1454.75,-68.17 1445.43,-63.13 1444.32,-70.04"/>
</g>
<!-- Node13 -->
<g id="node13" class="node">
<title>Node13</title>
<g id="a_node13"><a xlink:href="d__event_8cpp.html" target="_top" xlink:title=" ">
<polygon fill="white" stroke="#666666" points="1365.5,-24.5 1244.5,-24.5 1244.5,-5.5 1365.5,-5.5 1365.5,-24.5"/>
<text text-anchor="middle" x="1305" y="-12.5" font-family="Helvetica,sans-Serif" font-size="10.00">src/d/event/d_event.cpp</text>
</a>
</g>
</g>
<!-- Node2&#45;&gt;Node13 -->
<g id="edge12" class="edge">
<title>Node2&#45;&gt;Node13</title>
<path fill="none" stroke="#63b8ff" d="M1469.1,-62.47C1426.2,-50.32 1370.85,-34.65 1336.65,-24.96"/>
<polygon fill="#63b8ff" stroke="#63b8ff" points="1467.97,-65.79 1478.54,-65.14 1469.88,-59.05 1467.97,-65.79"/>
</g>
<!-- Node14 -->
<g id="node14" class="node">
<title>Node14</title>
<g id="a_node14"><a xlink:href="d__file__select_8cpp.html" target="_top" xlink:title=" ">
<polygon fill="white" stroke="#666666" points="1512,-24.5 1384,-24.5 1384,-5.5 1512,-5.5 1512,-24.5"/>
<text text-anchor="middle" x="1448" y="-12.5" font-family="Helvetica,sans-Serif" font-size="10.00">src/d/file/d_file_select.cpp</text>
</a>
</g>
</g>
<!-- Node2&#45;&gt;Node14 -->
<g id="edge13" class="edge">
<title>Node2&#45;&gt;Node14</title>
<path fill="none" stroke="#63b8ff" d="M1503.68,-58.93C1488.66,-47.35 1470.83,-33.61 1459.47,-24.84"/>
<polygon fill="#63b8ff" stroke="#63b8ff" points="1501.32,-61.54 1511.38,-64.87 1505.6,-55.99 1501.32,-61.54"/>
</g>
<!-- Node15 -->
<g id="node15" class="node">
<title>Node15</title>
<g id="a_node15"><a xlink:href="d__menu__calibration_8cpp.html" target="_top" xlink:title=" ">
<polygon fill="white" stroke="#666666" points="1700,-24.5 1530,-24.5 1530,-5.5 1700,-5.5 1700,-24.5"/>
<text text-anchor="middle" x="1615" y="-12.5" font-family="Helvetica,sans-Serif" font-size="10.00">src/d/menu/d_menu_calibration.cpp</text>
</a>
</g>
</g>
<!-- Node2&#45;&gt;Node15 -->
<g id="edge14" class="edge">
<title>Node2&#45;&gt;Node15</title>
<path fill="none" stroke="#63b8ff" d="M1558.65,-58.93C1573.85,-47.35 1591.89,-33.61 1603.39,-24.84"/>
<polygon fill="#63b8ff" stroke="#63b8ff" points="1556.68,-56.03 1550.85,-64.88 1560.92,-61.6 1556.68,-56.03"/>
</g>
<!-- Node16 -->
<g id="node16" class="node">
<title>Node16</title>
<g id="a_node16"><a xlink:href="d__menu__fishing_8cpp.html" target="_top" xlink:title=" ">
<polygon fill="white" stroke="#666666" points="1872,-24.5 1718,-24.5 1718,-5.5 1872,-5.5 1872,-24.5"/>
<text text-anchor="middle" x="1795" y="-12.5" font-family="Helvetica,sans-Serif" font-size="10.00">src/d/menu/d_menu_fishing.cpp</text>
</a>
</g>
</g>
<!-- Node2&#45;&gt;Node16 -->
<g id="edge15" class="edge">
<title>Node2&#45;&gt;Node16</title>
<path fill="none" stroke="#63b8ff" d="M1601.72,-62.86C1652.05,-50.66 1717.66,-34.75 1758.03,-24.96"/>
<polygon fill="#63b8ff" stroke="#63b8ff" points="1600.94,-59.44 1592.05,-65.2 1602.59,-66.25 1600.94,-59.44"/>
</g>
<!-- Node17 -->
<g id="node17" class="node">
<title>Node17</title>
<g id="a_node17"><a xlink:href="d__menu__save_8cpp.html" target="_top" xlink:title=" ">
<polygon fill="white" stroke="#666666" points="2037.5,-24.5 1890.5,-24.5 1890.5,-5.5 2037.5,-5.5 2037.5,-24.5"/>
<text text-anchor="middle" x="1964" y="-12.5" font-family="Helvetica,sans-Serif" font-size="10.00">src/d/menu/d_menu_save.cpp</text>
</a>
</g>
</g>
<!-- Node2&#45;&gt;Node17 -->
<g id="edge16" class="edge">
<title>Node2&#45;&gt;Node17</title>
<path fill="none" stroke="#63b8ff" d="M1616.94,-65.74C1734.87,-48.16 1766.62,-47.38 1881,-30 1891.11,-28.46 1901.9,-26.72 1912.24,-25"/>
<polygon fill="#63b8ff" stroke="#63b8ff" points="1616.5,-62.27 1607.13,-67.21 1617.54,-69.19 1616.5,-62.27"/>
</g>
<!-- Node18 -->
<g id="node18" class="node">
<title>Node18</title>
<g id="a_node18"><a xlink:href="d__menu__skill_8cpp.html" target="_top" xlink:title=" ">
<polygon fill="white" stroke="#666666" points="2198.5,-24.5 2055.5,-24.5 2055.5,-5.5 2198.5,-5.5 2198.5,-24.5"/>
<text text-anchor="middle" x="2127" y="-12.5" font-family="Helvetica,sans-Serif" font-size="10.00">src/d/menu/d_menu_skill.cpp</text>
</a>
</g>
</g>
<!-- Node2&#45;&gt;Node18 -->
<g id="edge17" class="edge">
<title>Node2&#45;&gt;Node18</title>
<path fill="none" stroke="#63b8ff" d="M1616.91,-65.85C1808.13,-42.61 1859.55,-54.16 2047,-30 2057.63,-28.63 2069,-26.84 2079.73,-25"/>
<polygon fill="#63b8ff" stroke="#63b8ff" points="1616.61,-62.36 1607.11,-67.05 1617.46,-69.3 1616.61,-62.36"/>
</g>
<!-- Node19 -->
<g id="node19" class="node">
<title>Node19</title>
<g id="a_node19"><a xlink:href="d__menu__window_8cpp.html" target="_top" xlink:title=" ">
<polygon fill="white" stroke="#666666" points="2375.5,-24.5 2216.5,-24.5 2216.5,-5.5 2375.5,-5.5 2375.5,-24.5"/>
<text text-anchor="middle" x="2296" y="-12.5" font-family="Helvetica,sans-Serif" font-size="10.00">src/d/menu/d_menu_window.cpp</text>
</a>
</g>
</g>
<!-- Node2&#45;&gt;Node19 -->
<g id="edge18" class="edge">
<title>Node2&#45;&gt;Node19</title>
<path fill="none" stroke="#63b8ff" d="M1617.02,-65.87C1879.33,-36.88 1949.25,-58.37 2208,-30 2219.99,-28.68 2232.85,-26.87 2244.93,-24.99"/>
<polygon fill="#63b8ff" stroke="#63b8ff" points="1616.65,-62.39 1607.1,-66.98 1617.43,-69.35 1616.65,-62.39"/>
</g>
<!-- Node20 -->
<g id="node20" class="node">
<title>Node20</title>
<g id="a_node20"><a xlink:href="d__meter__map_8cpp.html" target="_top" xlink:title=" ">
<polygon fill="white" stroke="#666666" points="2498,-30 2394,-30 2394,0 2498,0 2498,-30"/>
<text text-anchor="start" x="2402" y="-18" font-family="Helvetica,sans-Serif" font-size="10.00">src/d/meter/d_meter</text>
<text text-anchor="middle" x="2446" y="-7" font-family="Helvetica,sans-Serif" font-size="10.00">_map.cpp</text>
</a>
</g>
</g>
<!-- Node2&#45;&gt;Node20 -->
<g id="edge19" class="edge">
<title>Node2&#45;&gt;Node20</title>
<path fill="none" stroke="#63b8ff" d="M1617.04,-65.9C1957.68,-30.79 2049.3,-75.99 2385,-30 2387.8,-29.62 2390.66,-29.17 2393.54,-28.67"/>
<polygon fill="#63b8ff" stroke="#63b8ff" points="1616.68,-62.42 1607.1,-66.94 1617.41,-69.38 1616.68,-62.42"/>
</g>
<!-- Node21 -->
<g id="node21" class="node">
<title>Node21</title>
<g id="a_node21"><a xlink:href="d__s__logo_8cpp.html" target="_top" xlink:title=" ">
<polygon fill="white" stroke="#666666" points="2623.5,-24.5 2516.5,-24.5 2516.5,-5.5 2623.5,-5.5 2623.5,-24.5"/>
<text text-anchor="middle" x="2570" y="-12.5" font-family="Helvetica,sans-Serif" font-size="10.00">src/d/s/d_s_logo.cpp</text>
</a>
</g>
</g>
<!-- Node2&#45;&gt;Node21 -->
<g id="edge20" class="edge">
<title>Node2&#45;&gt;Node21</title>
<path fill="none" stroke="#63b8ff" d="M1616.76,-65.93C2011.63,-26.34 2117.21,-80.76 2507,-30 2516.11,-28.81 2525.85,-26.95 2534.88,-24.97"/>
<polygon fill="#63b8ff" stroke="#63b8ff" points="1616.69,-62.42 1607.1,-66.92 1617.4,-69.39 1616.69,-62.42"/>
</g>
<!-- Node22 -->
<g id="node22" class="node">
<title>Node22</title>
<g id="a_node22"><a xlink:href="d__shop__system_8cpp.html" target="_top" xlink:title=" ">
<polygon fill="white" stroke="#666666" points="2794,-24.5 2642,-24.5 2642,-5.5 2794,-5.5 2794,-24.5"/>
<text text-anchor="middle" x="2718" y="-12.5" font-family="Helvetica,sans-Serif" font-size="10.00">src/d/shop/d_shop_system.cpp</text>
</a>
</g>
</g>
<!-- Node2&#45;&gt;Node22 -->
<g id="edge21" class="edge">
<title>Node2&#45;&gt;Node22</title>
<path fill="none" stroke="#63b8ff" d="M1616.97,-65.92C2067.42,-21.58 2186.24,-74.51 2633,-30 2645.05,-28.8 2657.99,-26.96 2670.04,-25"/>
<polygon fill="#63b8ff" stroke="#63b8ff" points="1616.7,-62.43 1607.09,-66.9 1617.39,-69.39 1616.7,-62.43"/>
</g>
<!-- Node23 -->
<g id="node23" class="node">
<title>Node23</title>
<g id="a_node23"><a xlink:href="f__pc__manager_8cpp.html" target="_top" xlink:title=" ">
<polygon fill="white" stroke="#666666" points="2946,-24.5 2812,-24.5 2812,-5.5 2946,-5.5 2946,-24.5"/>
<text text-anchor="middle" x="2879" y="-12.5" font-family="Helvetica,sans-Serif" font-size="10.00">src/f_pc/f_pc_manager.cpp</text>
</a>
</g>
</g>
<!-- Node2&#45;&gt;Node23 -->
<g id="edge22" class="edge">
<title>Node2&#45;&gt;Node23</title>
<path fill="none" stroke="#63b8ff" d="M1616.89,-65.93C2142.68,-15.47 2281.45,-85.61 2803,-30 2813.94,-28.83 2825.67,-26.98 2836.56,-24.99"/>
<polygon fill="#63b8ff" stroke="#63b8ff" points="1616.71,-62.44 1607.09,-66.89 1617.38,-69.4 1616.71,-62.44"/>
</g>
<!-- Node24 -->
<g id="node24" class="node">
<title>Node24</title>
<g id="a_node24"><a xlink:href="m__Do__controller__pad_8cpp.html" target="_top" xlink:title=" ">
<polygon fill="white" stroke="#666666" points="3096,-30 2964,-30 2964,0 3096,0 3096,-30"/>
<text text-anchor="start" x="2972" y="-18" font-family="Helvetica,sans-Serif" font-size="10.00">src/m_Do/m_Do_controller</text>
<text text-anchor="middle" x="3030" y="-7" font-family="Helvetica,sans-Serif" font-size="10.00">_pad.cpp</text>
</a>
</g>
</g>
<!-- Node2&#45;&gt;Node24 -->
<g id="edge23" class="edge">
<title>Node2&#45;&gt;Node24</title>
<path fill="none" stroke="#63b8ff" d="M1617,-65.93C2210.01,-9.95 2366.32,-92.46 2955,-30 2957.9,-29.69 2960.85,-29.33 2963.83,-28.94"/>
<polygon fill="#63b8ff" stroke="#63b8ff" points="1616.71,-62.44 1607.09,-66.88 1617.38,-69.41 1616.71,-62.44"/>
</g>
<!-- Node25 -->
<g id="node25" class="node">
<title>Node25</title>
<g id="a_node25"><a xlink:href="m__Do__graphic_8cpp.html" target="_top" xlink:title=" ">
<polygon fill="white" stroke="#666666" points="3256,-24.5 3114,-24.5 3114,-5.5 3256,-5.5 3256,-24.5"/>
<text text-anchor="middle" x="3185" y="-12.5" font-family="Helvetica,sans-Serif" font-size="10.00">src/m_Do/m_Do_graphic.cpp</text>
</a>
</g>
</g>
<!-- Node2&#45;&gt;Node25 -->
<g id="edge24" class="edge">
<title>Node2&#45;&gt;Node25</title>
<path fill="none" stroke="#63b8ff" d="M1616.8,-65.95C2276.39,-4.42 2449.51,-94.91 3105,-30 3116.65,-28.85 3129.15,-26.97 3140.73,-24.96"/>
<polygon fill="#63b8ff" stroke="#63b8ff" points="1616.72,-62.44 1607.09,-66.87 1617.37,-69.41 1616.72,-62.44"/>
</g>
<!-- Node26 -->
<g id="node26" class="node">
<title>Node26</title>
<g id="a_node26"><a xlink:href="m__Do__main_8cpp.html" target="_top" xlink:title=" ">
<polygon fill="white" stroke="#666666" points="3405.5,-24.5 3274.5,-24.5 3274.5,-5.5 3405.5,-5.5 3405.5,-24.5"/>
<text text-anchor="middle" x="3340" y="-12.5" font-family="Helvetica,sans-Serif" font-size="10.00">src/m_Do/m_Do_main.cpp</text>
</a>
</g>
</g>
<!-- Node2&#45;&gt;Node26 -->
<g id="edge25" class="edge">
<title>Node2&#45;&gt;Node26</title>
<path fill="none" stroke="#63b8ff" d="M1616.92,-65.95C2347.27,1.37 2539.13,-105.16 3265,-30 3275.94,-28.87 3287.66,-27 3298.52,-24.99"/>
<polygon fill="#63b8ff" stroke="#63b8ff" points="1616.72,-62.45 1607.09,-66.86 1617.37,-69.42 1616.72,-62.45"/>
</g>
<!-- Node27 -->
<g id="node27" class="node">
<title>Node27</title>
<g id="a_node27"><a xlink:href="d__msg__scrn__explain_8cpp.html" target="_top" xlink:title=" ">
<polygon fill="white" stroke="#666666" points="3530,-30 3424,-30 3424,0 3530,0 3530,-30"/>
<text text-anchor="start" x="3432" y="-18" font-family="Helvetica,sans-Serif" font-size="10.00">src/msg/scrn/d_msg</text>
<text text-anchor="middle" x="3477" y="-7" font-family="Helvetica,sans-Serif" font-size="10.00">_scrn_explain.cpp</text>
</a>
</g>
</g>
<!-- Node2&#45;&gt;Node27 -->
<g id="edge26" class="edge">
<title>Node2&#45;&gt;Node27</title>
<path fill="none" stroke="#63b8ff" d="M1616.78,-65.98C2031.46,-29.9 3021.43,-77.87 3415,-30 3417.85,-29.65 3420.76,-29.23 3423.69,-28.76"/>
<polygon fill="#63b8ff" stroke="#63b8ff" points="1616.74,-62.47 1607.09,-66.86 1617.36,-69.45 1616.74,-62.47"/>
</g>
</g>
</svg>
