<?xml version="1.0" encoding="UTF-8" standalone="no"?>
<!DOCTYPE svg PUBLIC "-//W3C//DTD SVG 1.1//EN"
 "http://www.w3.org/Graphics/SVG/1.1/DTD/svg11.dtd">
<!-- Generated by graphviz version 7.0.5 (20221223.1930)
 -->
<!-- Title: include/SSystem/SComponent/c_bg_s_lin_chk.h Pages: 1 -->
<svg width="3662pt" height="500pt"
 viewBox="0.00 0.00 3661.60 500.00" xmlns="http://www.w3.org/2000/svg" xmlns:xlink="http://www.w3.org/1999/xlink">
<g id="graph0" class="graph" transform="scale(1 1) rotate(0) translate(4 496)">
<title>include/SSystem/SComponent/c_bg_s_lin_chk.h</title>
<!-- Node1 -->
<g id="node1" class="node">
<title>Node1</title>
<g id="a_node1"><a xlink:title=" ">
<polygon fill="#999999" stroke="#666666" points="1813.22,-492 1664.22,-492 1664.22,-462 1813.22,-462 1813.22,-492"/>
<text text-anchor="start" x="1672.22" y="-480" font-family="Helvetica,sans-Serif" font-size="10.00">include/SSystem/SComponent</text>
<text text-anchor="middle" x="1738.72" y="-469" font-family="Helvetica,sans-Serif" font-size="10.00">/c_bg_s_lin_chk.h</text>
</a>
</g>
</g>
<!-- Node2 -->
<g id="node2" class="node">
<title>Node2</title>
<g id="a_node2"><a xlink:href="d__bg__s__lin__chk_8h.html" target="_top" xlink:title=" ">
<polygon fill="white" stroke="#666666" points="1722.72,-426 1618.72,-426 1618.72,-396 1722.72,-396 1722.72,-426"/>
<text text-anchor="start" x="1626.72" y="-414" font-family="Helvetica,sans-Serif" font-size="10.00">include/d/bg/d_bg_s</text>
<text text-anchor="middle" x="1670.72" y="-403" font-family="Helvetica,sans-Serif" font-size="10.00">_lin_chk.h</text>
</a>
</g>
</g>
<!-- Node1&#45;&gt;Node2 -->
<g id="edge1" class="edge">
<title>Node1&#45;&gt;Node2</title>
<path fill="none" stroke="#63b8ff" d="M1715.44,-454.09C1705.62,-444.85 1694.48,-434.36 1685.77,-426.16"/>
<polygon fill="#63b8ff" stroke="#63b8ff" points="1712.85,-456.45 1722.53,-460.76 1717.64,-451.36 1712.85,-456.45"/>
</g>
<!-- Node194 -->
<g id="node50" class="node">
<title>Node194</title>
<g id="a_node50"><a xlink:href="c__bg__s__lin__chk_8cpp.html" target="_top" xlink:title=" ">
<polygon fill="white" stroke="#666666" points="1874.72,-426 1740.72,-426 1740.72,-396 1874.72,-396 1874.72,-426"/>
<text text-anchor="start" x="1748.72" y="-414" font-family="Helvetica,sans-Serif" font-size="10.00">libs/SSystem/SComponent</text>
<text text-anchor="middle" x="1807.72" y="-403" font-family="Helvetica,sans-Serif" font-size="10.00">/c_bg_s_lin_chk.cpp</text>
</a>
</g>
</g>
<!-- Node1&#45;&gt;Node194 -->
<g id="edge66" class="edge">
<title>Node1&#45;&gt;Node194</title>
<path fill="none" stroke="#63b8ff" d="M1762.34,-454.09C1772.31,-444.85 1783.61,-434.36 1792.45,-426.16"/>
<polygon fill="#63b8ff" stroke="#63b8ff" points="1760.1,-451.4 1755.14,-460.77 1764.86,-456.53 1760.1,-451.4"/>
</g>
<!-- Node3 -->
<g id="node3" class="node">
<title>Node3</title>
<g id="a_node3"><a xlink:href="d__a__alink_8h.html" target="_top" xlink:title=" ">
<polygon fill="white" stroke="#666666" points="205.72,-222.5 89.72,-222.5 89.72,-203.5 205.72,-203.5 205.72,-222.5"/>
<text text-anchor="middle" x="147.72" y="-210.5" font-family="Helvetica,sans-Serif" font-size="10.00">include/d/a/d_a_alink.h</text>
</a>
</g>
</g>
<!-- Node2&#45;&gt;Node3 -->
<g id="edge2" class="edge">
<title>Node2&#45;&gt;Node3</title>
<path fill="none" stroke="#63b8ff" d="M1606.89,-401.79C1356.84,-369.61 445.85,-252.37 205.95,-221.49"/>
<polygon fill="#63b8ff" stroke="#63b8ff" points="1606.43,-405.25 1616.79,-403.06 1607.32,-398.31 1606.43,-405.25"/>
</g>
<!-- Node12 -->
<g id="node12" class="node">
<title>Node12</title>
<g id="a_node12"><a xlink:href="d__bomb_8h.html" target="_top" xlink:title=" ">
<polygon fill="white" stroke="#666666" points="1781.22,-354.5 1680.22,-354.5 1680.22,-335.5 1781.22,-335.5 1781.22,-354.5"/>
<text text-anchor="middle" x="1730.72" y="-342.5" font-family="Helvetica,sans-Serif" font-size="10.00">include/d/d_bomb.h</text>
</a>
</g>
</g>
<!-- Node2&#45;&gt;Node12 -->
<g id="edge11" class="edge">
<title>Node2&#45;&gt;Node12</title>
<path fill="none" stroke="#63b8ff" d="M1691.71,-387.61C1702.29,-376.32 1714.52,-363.28 1722.43,-354.84"/>
<polygon fill="#63b8ff" stroke="#63b8ff" points="1689.36,-385 1685.07,-394.69 1694.46,-389.79 1689.36,-385"/>
</g>
<!-- Node15 -->
<g id="node15" class="node">
<title>Node15</title>
<g id="a_node15"><a xlink:href="d__camera_8h.html" target="_top" xlink:title=" ">
<polygon fill="white" stroke="#666666" points="1543.22,-354.5 1434.22,-354.5 1434.22,-335.5 1543.22,-335.5 1543.22,-354.5"/>
<text text-anchor="middle" x="1488.72" y="-342.5" font-family="Helvetica,sans-Serif" font-size="10.00">include/d/d_camera.h</text>
</a>
</g>
</g>
<!-- Node2&#45;&gt;Node15 -->
<g id="edge14" class="edge">
<title>Node2&#45;&gt;Node15</title>
<path fill="none" stroke="#63b8ff" d="M1619.11,-391.85C1584.85,-379.8 1541.35,-364.51 1514.27,-354.99"/>
<polygon fill="#63b8ff" stroke="#63b8ff" points="1617.85,-395.12 1628.45,-395.14 1620.18,-388.52 1617.85,-395.12"/>
</g>
<!-- Node189 -->
<g id="node44" class="node">
<title>Node189</title>
<g id="a_node44"><a xlink:href="d__a__arrow_8h.html" target="_top" xlink:title=" ">
<polygon fill="white" stroke="#666666" points="1662.22,-360 1561.22,-360 1561.22,-330 1662.22,-330 1662.22,-360"/>
<text text-anchor="start" x="1569.22" y="-348" font-family="Helvetica,sans-Serif" font-size="10.00">include/rel/d/a/d_a</text>
<text text-anchor="middle" x="1611.72" y="-337" font-family="Helvetica,sans-Serif" font-size="10.00">_arrow/d_a_arrow.h</text>
</a>
</g>
</g>
<!-- Node2&#45;&gt;Node189 -->
<g id="edge55" class="edge">
<title>Node2&#45;&gt;Node189</title>
<path fill="none" stroke="#63b8ff" d="M1650,-387.53C1641.61,-378.43 1632.18,-368.19 1624.78,-360.16"/>
<polygon fill="#63b8ff" stroke="#63b8ff" points="1647.25,-389.7 1656.6,-394.68 1652.4,-384.96 1647.25,-389.7"/>
</g>
<!-- Node190 -->
<g id="node45" class="node">
<title>Node190</title>
<g id="a_node45"><a xlink:href="d__a__boomerang_8h.html" target="_top" xlink:title=" ">
<polygon fill="white" stroke="#666666" points="393.22,-294 244.22,-294 244.22,-264 393.22,-264 393.22,-294"/>
<text text-anchor="start" x="252.22" y="-282" font-family="Helvetica,sans-Serif" font-size="10.00">include/rel/d/a/d_a</text>
<text text-anchor="middle" x="318.72" y="-271" font-family="Helvetica,sans-Serif" font-size="10.00">_boomerang/d_a_boomerang.h</text>
</a>
</g>
</g>
<!-- Node2&#45;&gt;Node190 -->
<g id="edge56" class="edge">
<title>Node2&#45;&gt;Node190</title>
<path fill="none" stroke="#63b8ff" d="M1607.07,-405.8C1491.41,-398 1239.07,-380.23 1026.72,-360 795.52,-337.97 522.63,-305.22 393.56,-289.33"/>
<polygon fill="#63b8ff" stroke="#63b8ff" points="1606.77,-409.29 1616.98,-406.47 1607.24,-402.3 1606.77,-409.29"/>
</g>
<!-- Node191 -->
<g id="node46" class="node">
<title>Node191</title>
<g id="a_node46"><a xlink:href="d__a__canoe_8h.html" target="_top" xlink:title=" ">
<polygon fill="white" stroke="#666666" points="1905.72,-360 1799.72,-360 1799.72,-330 1905.72,-330 1905.72,-360"/>
<text text-anchor="start" x="1807.72" y="-348" font-family="Helvetica,sans-Serif" font-size="10.00">include/rel/d/a/d_a</text>
<text text-anchor="middle" x="1852.72" y="-337" font-family="Helvetica,sans-Serif" font-size="10.00">_canoe/d_a_canoe.h</text>
</a>
</g>
</g>
<!-- Node2&#45;&gt;Node191 -->
<g id="edge58" class="edge">
<title>Node2&#45;&gt;Node191</title>
<path fill="none" stroke="#63b8ff" d="M1722.09,-391.94C1750.44,-381.97 1785.18,-369.75 1811.7,-360.43"/>
<polygon fill="#63b8ff" stroke="#63b8ff" points="1721.27,-388.52 1712.99,-395.14 1723.59,-395.12 1721.27,-388.52"/>
</g>
<!-- Node192 -->
<g id="node47" class="node">
<title>Node192</title>
<g id="a_node47"><a xlink:href="d__a__horse_8h.html" target="_top" xlink:title=" ">
<polygon fill="white" stroke="#666666" points="3534.22,-228 3433.22,-228 3433.22,-198 3534.22,-198 3534.22,-228"/>
<text text-anchor="start" x="3441.22" y="-216" font-family="Helvetica,sans-Serif" font-size="10.00">include/rel/d/a/d_a</text>
<text text-anchor="middle" x="3483.72" y="-205" font-family="Helvetica,sans-Serif" font-size="10.00">_horse/d_a_horse.h</text>
</a>
</g>
</g>
<!-- Node2&#45;&gt;Node192 -->
<g id="edge59" class="edge">
<title>Node2&#45;&gt;Node192</title>
<path fill="none" stroke="#63b8ff" d="M1734.18,-395.62C1815.15,-379.96 1842.45,-392.71 1914.72,-360 1934.64,-350.98 1933.3,-337.82 1953.72,-330 2233.12,-223.01 3200.16,-214.47 3433,-213.98"/>
<polygon fill="#63b8ff" stroke="#63b8ff" points="1733.52,-392.18 1724.42,-397.6 1734.92,-399.04 1733.52,-392.18"/>
</g>
<!-- Node193 -->
<g id="node49" class="node">
<title>Node193</title>
<g id="a_node49"><a xlink:href="d__bg__s__lin__chk_8cpp.html" target="_top" xlink:title=" ">
<polygon fill="white" stroke="#666666" points="2063.22,-360 1962.22,-360 1962.22,-330 2063.22,-330 2063.22,-360"/>
<text text-anchor="start" x="1970.22" y="-348" font-family="Helvetica,sans-Serif" font-size="10.00">src/d/bg/d_bg_s_lin</text>
<text text-anchor="middle" x="2012.72" y="-337" font-family="Helvetica,sans-Serif" font-size="10.00">_chk.cpp</text>
</a>
</g>
</g>
<!-- Node2&#45;&gt;Node193 -->
<g id="edge65" class="edge">
<title>Node2&#45;&gt;Node193</title>
<path fill="none" stroke="#63b8ff" d="M1734.21,-395.59C1829.14,-377.16 1855.67,-377.57 1947.72,-360 1952.37,-359.11 1957.2,-358.15 1962.03,-357.16"/>
<polygon fill="#63b8ff" stroke="#63b8ff" points="1733.54,-392.15 1724.4,-397.51 1734.89,-399.02 1733.54,-392.15"/>
</g>
<!-- Node4 -->
<g id="node4" class="node">
<title>Node4</title>
<g id="a_node4"><a xlink:href="d__a__alink_8cpp.html" target="_top" xlink:title=" ">
<polygon fill="white" stroke="#666666" points="1430.22,-19 1321.22,-19 1321.22,0 1430.22,0 1430.22,-19"/>
<text text-anchor="middle" x="1375.72" y="-7" font-family="Helvetica,sans-Serif" font-size="10.00">src/d/a/d_a_alink.cpp</text>
</a>
</g>
</g>
<!-- Node3&#45;&gt;Node4 -->
<g id="edge3" class="edge">
<title>Node3&#45;&gt;Node4</title>
<path fill="none" stroke="#63b8ff" d="M107.38,-198.98C87.63,-190.92 64.72,-178.85 48.72,-162 14.36,-125.81 -19.98,-90.86 14.72,-55 60.86,-7.33 1072.75,-9.05 1321.07,-10.19"/>
<polygon fill="#63b8ff" stroke="#63b8ff" points="105.96,-202.18 116.55,-202.5 108.47,-195.65 105.96,-202.18"/>
</g>
<!-- Node5 -->
<g id="node5" class="node">
<title>Node5</title>
<g id="a_node5"><a xlink:href="d__a__player_8cpp.html" target="_top" xlink:title=" ">
<polygon fill="white" stroke="#666666" points="137.72,-79.5 23.72,-79.5 23.72,-60.5 137.72,-60.5 137.72,-79.5"/>
<text text-anchor="middle" x="80.72" y="-67.5" font-family="Helvetica,sans-Serif" font-size="10.00">src/d/a/d_a_player.cpp</text>
</a>
</g>
</g>
<!-- Node3&#45;&gt;Node5 -->
<g id="edge4" class="edge">
<title>Node3&#45;&gt;Node5</title>
<path fill="none" stroke="#63b8ff" d="M104.51,-198.95C86.75,-191.22 67.98,-179.43 57.72,-162 41.77,-134.89 62.94,-96.94 74.33,-79.9"/>
<polygon fill="#63b8ff" stroke="#63b8ff" points="103.07,-202.15 113.65,-202.59 105.66,-195.64 103.07,-202.15"/>
</g>
<!-- Node6 -->
<g id="node6" class="node">
<title>Node6</title>
<g id="a_node6"><a xlink:href="d__com__inf__game_8cpp.html" target="_top" xlink:title=" ">
<polygon fill="white" stroke="#666666" points="283.72,-156.5 175.72,-156.5 175.72,-126.5 283.72,-126.5 283.72,-156.5"/>
<text text-anchor="start" x="183.72" y="-144.5" font-family="Helvetica,sans-Serif" font-size="10.00">src/d/com/d_com_inf</text>
<text text-anchor="middle" x="229.72" y="-133.5" font-family="Helvetica,sans-Serif" font-size="10.00">_game.cpp</text>
</a>
</g>
</g>
<!-- Node3&#45;&gt;Node6 -->
<g id="edge5" class="edge">
<title>Node3&#45;&gt;Node6</title>
<path fill="none" stroke="#63b8ff" d="M166.87,-195.77C180.81,-183.95 199.51,-168.11 212.88,-156.77"/>
<polygon fill="#63b8ff" stroke="#63b8ff" points="164.63,-193.08 159.26,-202.22 169.15,-198.42 164.63,-193.08"/>
</g>
<!-- Node7 -->
<g id="node7" class="node">
<title>Node7</title>
<g id="a_node7"><a xlink:href="d__camera_8cpp.html" target="_top" xlink:title=" ">
<polygon fill="white" stroke="#666666" points="541.72,-151 439.72,-151 439.72,-132 541.72,-132 541.72,-151"/>
<text text-anchor="middle" x="490.72" y="-139" font-family="Helvetica,sans-Serif" font-size="10.00">src/d/d_camera.cpp</text>
</a>
</g>
</g>
<!-- Node3&#45;&gt;Node7 -->
<g id="edge6" class="edge">
<title>Node3&#45;&gt;Node7</title>
<path fill="none" stroke="#63b8ff" d="M217.11,-202.35C274.53,-193.73 358,-179.74 429.72,-162 441.59,-159.06 454.53,-155.05 465.41,-151.43"/>
<polygon fill="#63b8ff" stroke="#63b8ff" points="216.86,-198.85 207.48,-203.78 217.89,-205.77 216.86,-198.85"/>
</g>
<!-- Node8 -->
<g id="node8" class="node">
<title>Node8</title>
<g id="a_node8"><a xlink:href="d__event_8cpp.html" target="_top" xlink:title=" ">
<polygon fill="white" stroke="#666666" points="1184.22,-79.5 1063.22,-79.5 1063.22,-60.5 1184.22,-60.5 1184.22,-79.5"/>
<text text-anchor="middle" x="1123.72" y="-67.5" font-family="Helvetica,sans-Serif" font-size="10.00">src/d/event/d_event.cpp</text>
</a>
</g>
</g>
<!-- Node3&#45;&gt;Node8 -->
<g id="edge7" class="edge">
<title>Node3&#45;&gt;Node8</title>
<path fill="none" stroke="#63b8ff" d="M145.52,-191.82C144.47,-170.67 146.62,-138.19 166.72,-121 197.16,-94.97 846.73,-87.18 886.72,-85 946.6,-81.73 1014.97,-77.66 1062.84,-74.75"/>
<polygon fill="#63b8ff" stroke="#63b8ff" points="142.01,-191.83 146.31,-201.51 148.99,-191.26 142.01,-191.83"/>
</g>
<!-- Node9 -->
<g id="node9" class="node">
<title>Node9</title>
<g id="a_node9"><a xlink:href="d__meter2__draw_8cpp.html" target="_top" xlink:title=" ">
<polygon fill="white" stroke="#666666" points="393.72,-85 283.72,-85 283.72,-55 393.72,-55 393.72,-85"/>
<text text-anchor="start" x="291.72" y="-73" font-family="Helvetica,sans-Serif" font-size="10.00">src/d/meter/d_meter2</text>
<text text-anchor="middle" x="338.72" y="-62" font-family="Helvetica,sans-Serif" font-size="10.00">_draw.cpp</text>
</a>
</g>
</g>
<!-- Node3&#45;&gt;Node9 -->
<g id="edge8" class="edge">
<title>Node3&#45;&gt;Node9</title>
<path fill="none" stroke="#63b8ff" d="M124.45,-196.51C113.53,-187.81 101.64,-175.9 95.72,-162 88.58,-145.23 84.21,-135.12 95.72,-121 118.92,-92.54 219.01,-79.81 283.27,-74.48"/>
<polygon fill="#63b8ff" stroke="#63b8ff" points="122.28,-199.26 132.4,-202.4 126.45,-193.64 122.28,-199.26"/>
</g>
<!-- Node10 -->
<g id="node10" class="node">
<title>Node10</title>
<g id="a_node10"><a xlink:href="d__msg__flow_8cpp.html" target="_top" xlink:title=" ">
<polygon fill="white" stroke="#666666" points="878.22,-79.5 745.22,-79.5 745.22,-60.5 878.22,-60.5 878.22,-79.5"/>
<text text-anchor="middle" x="811.72" y="-67.5" font-family="Helvetica,sans-Serif" font-size="10.00">src/d/msg/d_msg_flow.cpp</text>
</a>
</g>
</g>
<!-- Node3&#45;&gt;Node10 -->
<g id="edge9" class="edge">
<title>Node3&#45;&gt;Node10</title>
<path fill="none" stroke="#63b8ff" d="M136.94,-193.14C126.82,-172.69 115.73,-140.37 133.72,-121 154.33,-98.81 577.72,-80.06 744.78,-73.5"/>
<polygon fill="#63b8ff" stroke="#63b8ff" points="133.75,-194.62 141.55,-201.79 139.93,-191.32 133.75,-194.62"/>
</g>
<!-- Node11 -->
<g id="node11" class="node">
<title>Node11</title>
<g id="a_node11"><a xlink:href="f__op__actor_8cpp.html" target="_top" xlink:title=" ">
<polygon fill="white" stroke="#666666" points="421.22,-151 302.22,-151 302.22,-132 421.22,-132 421.22,-151"/>
<text text-anchor="middle" x="361.72" y="-139" font-family="Helvetica,sans-Serif" font-size="10.00">src/f_op/f_op_actor.cpp</text>
</a>
</g>
</g>
<!-- Node3&#45;&gt;Node11 -->
<g id="edge10" class="edge">
<title>Node3&#45;&gt;Node11</title>
<path fill="none" stroke="#63b8ff" d="M186.05,-199.55C228.73,-185.69 296.62,-163.64 334.29,-151.41"/>
<polygon fill="#63b8ff" stroke="#63b8ff" points="185.13,-196.17 176.7,-202.59 187.29,-202.83 185.13,-196.17"/>
</g>
<!-- Node13 -->
<g id="node13" class="node">
<title>Node13</title>
<g id="a_node13"><a xlink:href="d__a__obj__bombf_8h.html" target="_top" xlink:title=" ">
<polygon fill="white" stroke="#666666" points="3212.72,-162 3090.72,-162 3090.72,-121 3212.72,-121 3212.72,-162"/>
<text text-anchor="start" x="3098.72" y="-150" font-family="Helvetica,sans-Serif" font-size="10.00">include/rel/d/a/obj</text>
<text text-anchor="start" x="3098.72" y="-139" font-family="Helvetica,sans-Serif" font-size="10.00">/d_a_obj_bombf/d_a_obj</text>
<text text-anchor="middle" x="3151.72" y="-128" font-family="Helvetica,sans-Serif" font-size="10.00">_bombf.h</text>
</a>
</g>
</g>
<!-- Node12&#45;&gt;Node13 -->
<g id="edge12" class="edge">
<title>Node12&#45;&gt;Node13</title>
<path fill="none" stroke="#63b8ff" d="M1756.84,-329.82C1792.5,-311.21 1858.93,-279.13 1919.72,-264 2422.8,-138.76 2571.63,-254.62 3081.72,-162 3084.58,-161.48 3087.48,-160.9 3090.41,-160.27"/>
<polygon fill="#63b8ff" stroke="#63b8ff" points="1755.35,-326.66 1748.14,-334.43 1758.62,-332.84 1755.35,-326.66"/>
</g>
<!-- Node14 -->
<g id="node14" class="node">
<title>Node14</title>
<g id="a_node14"><a xlink:href="d__bomb_8cpp.html" target="_top" xlink:title=" ">
<polygon fill="white" stroke="#666666" points="1777.72,-288.5 1683.72,-288.5 1683.72,-269.5 1777.72,-269.5 1777.72,-288.5"/>
<text text-anchor="middle" x="1730.72" y="-276.5" font-family="Helvetica,sans-Serif" font-size="10.00">src/d/d_bomb.cpp</text>
</a>
</g>
</g>
<!-- Node12&#45;&gt;Node14 -->
<g id="edge13" class="edge">
<title>Node12&#45;&gt;Node14</title>
<path fill="none" stroke="#63b8ff" d="M1730.72,-323.68C1730.72,-311.94 1730.72,-297.77 1730.72,-288.82"/>
<polygon fill="#63b8ff" stroke="#63b8ff" points="1727.22,-323.59 1730.72,-333.59 1734.22,-323.59 1727.22,-323.59"/>
</g>
<!-- Node15&#45;&gt;Node7 -->
<g id="edge54" class="edge">
<title>Node15&#45;&gt;Node7</title>
<path fill="none" stroke="#63b8ff" d="M1500.46,-325.82C1518.73,-295.02 1548.54,-232.58 1514.72,-198 1477.25,-159.69 603.49,-171.37 550.72,-162 538,-159.74 524.25,-155.42 513.14,-151.42"/>
<polygon fill="#63b8ff" stroke="#63b8ff" points="1497.68,-323.66 1495.4,-334.01 1503.63,-327.34 1497.68,-323.66"/>
</g>
<!-- Node16 -->
<g id="node16" class="node">
<title>Node16</title>
<g id="a_node16"><a xlink:href="f__op__camera__mng_8h.html" target="_top" xlink:title=" ">
<polygon fill="white" stroke="#666666" points="1506.72,-294 1378.72,-294 1378.72,-264 1506.72,-264 1506.72,-294"/>
<text text-anchor="start" x="1386.72" y="-282" font-family="Helvetica,sans-Serif" font-size="10.00">include/f_op/f_op_camera</text>
<text text-anchor="middle" x="1442.72" y="-271" font-family="Helvetica,sans-Serif" font-size="10.00">_mng.h</text>
</a>
</g>
</g>
<!-- Node15&#45;&gt;Node16 -->
<g id="edge15" class="edge">
<title>Node15&#45;&gt;Node16</title>
<path fill="none" stroke="#63b8ff" d="M1475.79,-326.01C1468.57,-315.96 1459.69,-303.61 1452.95,-294.23"/>
<polygon fill="#63b8ff" stroke="#63b8ff" points="1472.76,-327.79 1481.44,-333.87 1478.45,-323.71 1472.76,-327.79"/>
</g>
<!-- Node17 -->
<g id="node17" class="node">
<title>Node17</title>
<g id="a_node17"><a xlink:href="d__com__inf__game_8h.html" target="_top" xlink:title=" ">
<polygon fill="#fff0f0" stroke="red" points="1756.72,-228 1646.72,-228 1646.72,-198 1756.72,-198 1756.72,-228"/>
<text text-anchor="start" x="1654.72" y="-216" font-family="Helvetica,sans-Serif" font-size="10.00">include/d/com/d_com</text>
<text text-anchor="middle" x="1701.72" y="-205" font-family="Helvetica,sans-Serif" font-size="10.00">_inf_game.h</text>
</a>
</g>
</g>
<!-- Node16&#45;&gt;Node17 -->
<g id="edge16" class="edge">
<title>Node16&#45;&gt;Node17</title>
<path fill="none" stroke="#63b8ff" d="M1512.19,-260.83C1554.32,-250.42 1607.35,-237.32 1646.59,-227.62"/>
<polygon fill="#63b8ff" stroke="#63b8ff" points="1511.51,-257.4 1502.64,-263.19 1513.19,-264.19 1511.51,-257.4"/>
</g>
<!-- Node186 -->
<g id="node41" class="node">
<title>Node186</title>
<g id="a_node41"><a xlink:href="d__s__name_8h.html" target="_top" xlink:title=" ">
<polygon fill="#fff0f0" stroke="red" points="1506.22,-222.5 1387.22,-222.5 1387.22,-203.5 1506.22,-203.5 1506.22,-222.5"/>
<text text-anchor="middle" x="1446.72" y="-210.5" font-family="Helvetica,sans-Serif" font-size="10.00">include/d/s/d_s_name.h</text>
</a>
</g>
</g>
<!-- Node16&#45;&gt;Node186 -->
<g id="edge51" class="edge">
<title>Node16&#45;&gt;Node186</title>
<path fill="none" stroke="#63b8ff" d="M1444.31,-252.59C1444.97,-242.06 1445.69,-230.53 1446.17,-222.84"/>
<polygon fill="#63b8ff" stroke="#63b8ff" points="1440.83,-252.09 1443.7,-262.29 1447.82,-252.52 1440.83,-252.09"/>
</g>
<!-- Node187 -->
<g id="node42" class="node">
<title>Node187</title>
<g id="a_node42"><a xlink:href="f__ap__game_8cpp.html" target="_top" xlink:title=" ">
<polygon fill="white" stroke="#666666" points="1240.22,-222.5 1119.22,-222.5 1119.22,-203.5 1240.22,-203.5 1240.22,-222.5"/>
<text text-anchor="middle" x="1179.72" y="-210.5" font-family="Helvetica,sans-Serif" font-size="10.00">src/f_ap/f_ap_game.cpp</text>
</a>
</g>
</g>
<!-- Node16&#45;&gt;Node187 -->
<g id="edge52" class="edge">
<title>Node16&#45;&gt;Node187</title>
<path fill="none" stroke="#63b8ff" d="M1372.27,-260.86C1322.13,-248.66 1256.77,-232.75 1216.55,-222.96"/>
<polygon fill="#63b8ff" stroke="#63b8ff" points="1371.36,-264.24 1381.9,-263.2 1373.01,-257.43 1371.36,-264.24"/>
</g>
<!-- Node188 -->
<g id="node43" class="node">
<title>Node188</title>
<g id="a_node43"><a xlink:href="f__op__camera__mng_8cpp.html" target="_top" xlink:title=" ">
<polygon fill="white" stroke="#666666" points="1369.22,-228 1258.22,-228 1258.22,-198 1369.22,-198 1369.22,-228"/>
<text text-anchor="start" x="1266.22" y="-216" font-family="Helvetica,sans-Serif" font-size="10.00">src/f_op/f_op_camera</text>
<text text-anchor="middle" x="1313.72" y="-205" font-family="Helvetica,sans-Serif" font-size="10.00">_mng.cpp</text>
</a>
</g>
</g>
<!-- Node16&#45;&gt;Node188 -->
<g id="edge53" class="edge">
<title>Node16&#45;&gt;Node188</title>
<path fill="none" stroke="#63b8ff" d="M1403.59,-258.59C1383.95,-248.84 1360.56,-237.24 1342.57,-228.31"/>
<polygon fill="#63b8ff" stroke="#63b8ff" points="1401.9,-261.66 1412.41,-262.96 1405.01,-255.38 1401.9,-261.66"/>
</g>
<!-- Node17&#45;&gt;Node6 -->
<g id="edge48" class="edge">
<title>Node17&#45;&gt;Node6</title>
<path fill="none" stroke="#63b8ff" d="M1635.27,-206.29C1599.57,-203.41 1554.77,-200.09 1514.72,-198 1243.42,-183.86 560.71,-206.57 292.72,-162 285.49,-160.8 277.94,-158.98 270.68,-156.92"/>
<polygon fill="#63b8ff" stroke="#63b8ff" points="1634.77,-209.76 1645.02,-207.09 1635.34,-202.78 1634.77,-209.76"/>
</g>
<!-- Node17&#45;&gt;Node7 -->
<g id="edge49" class="edge">
<title>Node17&#45;&gt;Node7</title>
<path fill="none" stroke="#63b8ff" d="M1635.32,-205.12C1608.46,-202.55 1577.14,-199.81 1548.72,-198 1327.25,-183.88 769.25,-200.67 550.72,-162 537.99,-159.75 524.25,-155.43 513.13,-151.43"/>
<polygon fill="#63b8ff" stroke="#63b8ff" points="1634.74,-208.58 1645.03,-206.06 1635.42,-201.61 1634.74,-208.58"/>
</g>
<!-- Node17&#45;&gt;Node11 -->
<g id="edge50" class="edge">
<title>Node17&#45;&gt;Node11</title>
<path fill="none" stroke="#63b8ff" d="M1635.27,-206.35C1599.56,-203.49 1554.76,-200.16 1514.72,-198 1274.05,-185 668.88,-199.05 430.72,-162 416.21,-159.74 400.41,-155.42 387.6,-151.42"/>
<polygon fill="#63b8ff" stroke="#63b8ff" points="1634.77,-209.82 1645.02,-207.14 1635.33,-202.84 1634.77,-209.82"/>
</g>
<!-- Node17&#45;&gt;Node13 -->
<g id="edge45" class="edge">
<title>Node17&#45;&gt;Node13</title>
<path fill="none" stroke="#63b8ff" d="M1768.16,-204.54C1792.25,-202.09 1819.68,-199.59 1844.72,-198 2119.17,-180.59 2809.82,-203.2 3081.72,-162 3084.59,-161.57 3087.51,-161.05 3090.44,-160.48"/>
<polygon fill="#63b8ff" stroke="#63b8ff" points="1768.09,-201.03 1758.5,-205.54 1768.81,-207.99 1768.09,-201.03"/>
</g>
<!-- Node18 -->
<g id="node18" class="node">
<title>Node18</title>
<g id="a_node18"><a xlink:href="d__a__npc_8h.html" target="_top" xlink:title=" ">
<polygon fill="#fff0f0" stroke="red" points="926.22,-151 815.22,-151 815.22,-132 926.22,-132 926.22,-151"/>
<text text-anchor="middle" x="870.72" y="-139" font-family="Helvetica,sans-Serif" font-size="10.00">include/d/a/d_a_npc.h</text>
</a>
</g>
</g>
<!-- Node17&#45;&gt;Node18 -->
<g id="edge17" class="edge">
<title>Node17&#45;&gt;Node18</title>
<path fill="none" stroke="#63b8ff" d="M1635.3,-205.45C1608.43,-202.92 1577.11,-200.13 1548.72,-198 1276.13,-177.54 1203.8,-210.17 934.72,-162 921.46,-159.63 907.07,-155.4 895.31,-151.49"/>
<polygon fill="#63b8ff" stroke="#63b8ff" points="1634.73,-208.91 1645.01,-206.37 1635.39,-201.94 1634.73,-208.91"/>
</g>
<!-- Node24 -->
<g id="node19" class="node">
<title>Node24</title>
<g id="a_node19"><a xlink:href="d__cc__uty_8h.html" target="_top" xlink:title=" ">
<polygon fill="#fff0f0" stroke="red" points="1575.22,-151 1456.22,-151 1456.22,-132 1575.22,-132 1575.22,-151"/>
<text text-anchor="middle" x="1515.72" y="-139" font-family="Helvetica,sans-Serif" font-size="10.00">include/d/cc/d_cc_uty.h</text>
</a>
</g>
</g>
<!-- Node17&#45;&gt;Node24 -->
<g id="edge18" class="edge">
<title>Node17&#45;&gt;Node24</title>
<path fill="none" stroke="#63b8ff" d="M1652.77,-193.71C1616.35,-180.1 1568.21,-162.11 1539.75,-151.48"/>
<polygon fill="#63b8ff" stroke="#63b8ff" points="1651.17,-196.85 1661.76,-197.07 1653.62,-190.29 1651.17,-196.85"/>
</g>
<!-- Node34 -->
<g id="node22" class="node">
<title>Node34</title>
<g id="a_node22"><a xlink:href="d__bright__check_8h.html" target="_top" xlink:title=" ">
<polygon fill="#fff0f0" stroke="red" points="1037.22,-156.5 944.22,-156.5 944.22,-126.5 1037.22,-126.5 1037.22,-156.5"/>
<text text-anchor="start" x="952.22" y="-144.5" font-family="Helvetica,sans-Serif" font-size="10.00">include/d/d_bright</text>
<text text-anchor="middle" x="990.72" y="-133.5" font-family="Helvetica,sans-Serif" font-size="10.00">_check.h</text>
</a>
</g>
</g>
<!-- Node17&#45;&gt;Node34 -->
<g id="edge22" class="edge">
<title>Node17&#45;&gt;Node34</title>
<path fill="none" stroke="#63b8ff" d="M1635.28,-205.63C1608.42,-203.13 1577.1,-200.32 1548.72,-198 1325.78,-179.81 1265.8,-207.17 1046.72,-162 1040.57,-160.73 1034.17,-158.96 1027.99,-157"/>
<polygon fill="#63b8ff" stroke="#63b8ff" points="1634.72,-209.1 1645,-206.54 1635.37,-202.13 1634.72,-209.1"/>
</g>
<!-- Node36 -->
<g id="node23" class="node">
<title>Node36</title>
<g id="a_node23"><a xlink:href="d__error__msg_8h.html" target="_top" xlink:title=" ">
<polygon fill="#fff0f0" stroke="red" points="1175.72,-151 1055.72,-151 1055.72,-132 1175.72,-132 1175.72,-151"/>
<text text-anchor="middle" x="1115.72" y="-139" font-family="Helvetica,sans-Serif" font-size="10.00">include/d/d_error_msg.h</text>
</a>
</g>
</g>
<!-- Node17&#45;&gt;Node36 -->
<g id="edge23" class="edge">
<title>Node17&#45;&gt;Node36</title>
<path fill="none" stroke="#63b8ff" d="M1634.99,-205.87C1500.23,-193.44 1206.52,-166.1 1184.72,-162 1170.77,-159.38 1155.57,-155.22 1142.99,-151.42"/>
<polygon fill="#63b8ff" stroke="#63b8ff" points="1634.57,-209.34 1644.85,-206.78 1635.21,-202.37 1634.57,-209.34"/>
</g>
<!-- Node39 -->
<g id="node24" class="node">
<title>Node39</title>
<g id="a_node24"><a xlink:href="d__file__select_8h.html" target="_top" xlink:title=" ">
<polygon fill="#fff0f0" stroke="red" points="1689.72,-156.5 1593.72,-156.5 1593.72,-126.5 1689.72,-126.5 1689.72,-156.5"/>
<text text-anchor="start" x="1601.72" y="-144.5" font-family="Helvetica,sans-Serif" font-size="10.00">include/d/file/d_file</text>
<text text-anchor="middle" x="1641.72" y="-133.5" font-family="Helvetica,sans-Serif" font-size="10.00">_select.h</text>
</a>
</g>
</g>
<!-- Node17&#45;&gt;Node39 -->
<g id="edge24" class="edge">
<title>Node17&#45;&gt;Node39</title>
<path fill="none" stroke="#63b8ff" d="M1682.01,-189.17C1672.82,-178.53 1662.18,-166.2 1654.14,-156.88"/>
<polygon fill="#63b8ff" stroke="#63b8ff" points="1679.12,-191.17 1688.3,-196.45 1684.41,-186.6 1679.12,-191.17"/>
</g>
<!-- Node41 -->
<g id="node25" class="node">
<title>Node41</title>
<g id="a_node25"><a xlink:href="d__msg__object_8h.html" target="_top" xlink:title=" ">
<polygon fill="#fff0f0" stroke="red" points="1437.72,-156.5 1327.72,-156.5 1327.72,-126.5 1437.72,-126.5 1437.72,-156.5"/>
<text text-anchor="start" x="1335.72" y="-144.5" font-family="Helvetica,sans-Serif" font-size="10.00">include/d/msg/d_msg</text>
<text text-anchor="middle" x="1382.72" y="-133.5" font-family="Helvetica,sans-Serif" font-size="10.00">_object.h</text>
</a>
</g>
</g>
<!-- Node17&#45;&gt;Node41 -->
<g id="edge25" class="edge">
<title>Node17&#45;&gt;Node41</title>
<path fill="none" stroke="#63b8ff" d="M1635.38,-200.91C1583.67,-191.8 1510.23,-177.86 1446.72,-162 1440.64,-160.48 1434.27,-158.73 1428.01,-156.92"/>
<polygon fill="#63b8ff" stroke="#63b8ff" points="1634.45,-204.3 1644.91,-202.57 1635.66,-197.4 1634.45,-204.3"/>
</g>
<!-- Node61 -->
<g id="node26" class="node">
<title>Node61</title>
<g id="a_node26"><a xlink:href="d__a__andsw_8h.html" target="_top" xlink:title=" ">
<polygon fill="white" stroke="#666666" points="1817.72,-156.5 1707.72,-156.5 1707.72,-126.5 1817.72,-126.5 1817.72,-156.5"/>
<text text-anchor="start" x="1715.72" y="-144.5" font-family="Helvetica,sans-Serif" font-size="10.00">include/rel/d/a/d_a</text>
<text text-anchor="middle" x="1762.72" y="-133.5" font-family="Helvetica,sans-Serif" font-size="10.00">_andsw/d_a_andsw.h</text>
</a>
</g>
</g>
<!-- Node17&#45;&gt;Node61 -->
<g id="edge30" class="edge">
<title>Node17&#45;&gt;Node61</title>
<path fill="none" stroke="#63b8ff" d="M1721.76,-189.17C1731.1,-178.53 1741.92,-166.2 1750.1,-156.88"/>
<polygon fill="#63b8ff" stroke="#63b8ff" points="1719.32,-186.64 1715.36,-196.46 1724.59,-191.26 1719.32,-186.64"/>
</g>
<!-- Node62 -->
<g id="node27" class="node">
<title>Node62</title>
<g id="a_node27"><a xlink:href="d__a__cstaF_8h.html" target="_top" xlink:title=" ">
<polygon fill="white" stroke="#666666" points="1939.22,-156.5 1836.22,-156.5 1836.22,-126.5 1939.22,-126.5 1939.22,-156.5"/>
<text text-anchor="start" x="1844.22" y="-144.5" font-family="Helvetica,sans-Serif" font-size="10.00">include/rel/d/a/d_a</text>
<text text-anchor="middle" x="1887.72" y="-133.5" font-family="Helvetica,sans-Serif" font-size="10.00">_cstaF/d_a_cstaF.h</text>
</a>
</g>
</g>
<!-- Node17&#45;&gt;Node62 -->
<g id="edge31" class="edge">
<title>Node17&#45;&gt;Node62</title>
<path fill="none" stroke="#63b8ff" d="M1750.77,-193.67C1781.56,-182.17 1820.69,-167.55 1849.23,-156.88"/>
<polygon fill="#63b8ff" stroke="#63b8ff" points="1749.82,-190.29 1741.68,-197.07 1752.27,-196.85 1749.82,-190.29"/>
</g>
<!-- Node63 -->
<g id="node28" class="node">
<title>Node63</title>
<g id="a_node28"><a xlink:href="d__a__dmidna_8h.html" target="_top" xlink:title=" ">
<polygon fill="white" stroke="#666666" points="2073.72,-156.5 1957.72,-156.5 1957.72,-126.5 2073.72,-126.5 2073.72,-156.5"/>
<text text-anchor="start" x="1965.72" y="-144.5" font-family="Helvetica,sans-Serif" font-size="10.00">include/rel/d/a/d_a</text>
<text text-anchor="middle" x="2015.72" y="-133.5" font-family="Helvetica,sans-Serif" font-size="10.00">_dmidna/d_a_dmidna.h</text>
</a>
</g>
</g>
<!-- Node17&#45;&gt;Node63 -->
<g id="edge32" class="edge">
<title>Node17&#45;&gt;Node63</title>
<path fill="none" stroke="#63b8ff" d="M1768.24,-200.09C1818.15,-190.78 1888.03,-176.95 1948.72,-162 1954.96,-160.46 1961.48,-158.73 1967.91,-156.94"/>
<polygon fill="#63b8ff" stroke="#63b8ff" points="1767.63,-196.65 1758.44,-201.91 1768.91,-203.53 1767.63,-196.65"/>
</g>
<!-- Node64 -->
<g id="node29" class="node">
<title>Node64</title>
<g id="a_node29"><a xlink:href="d__a__dshutter_8h.html" target="_top" xlink:title=" ">
<polygon fill="white" stroke="#666666" points="2215.72,-156.5 2091.72,-156.5 2091.72,-126.5 2215.72,-126.5 2215.72,-156.5"/>
<text text-anchor="start" x="2099.72" y="-144.5" font-family="Helvetica,sans-Serif" font-size="10.00">include/rel/d/a/d_a</text>
<text text-anchor="middle" x="2153.72" y="-133.5" font-family="Helvetica,sans-Serif" font-size="10.00">_dshutter/d_a_dshutter.h</text>
</a>
</g>
</g>
<!-- Node17&#45;&gt;Node64 -->
<g id="edge33" class="edge">
<title>Node17&#45;&gt;Node64</title>
<path fill="none" stroke="#63b8ff" d="M1768.35,-206.06C1844.76,-198.6 1973.56,-184.04 2082.72,-162 2089.86,-160.56 2097.34,-158.79 2104.66,-156.92"/>
<polygon fill="#63b8ff" stroke="#63b8ff" points="1768.13,-202.56 1758.51,-207.01 1768.8,-209.53 1768.13,-202.56"/>
</g>
<!-- Node65 -->
<g id="node30" class="node">
<title>Node65</title>
<g id="a_node30"><a xlink:href="d__a__guard__mng_8h.html" target="_top" xlink:title=" ">
<polygon fill="white" stroke="#666666" points="2383.22,-156.5 2234.22,-156.5 2234.22,-126.5 2383.22,-126.5 2383.22,-156.5"/>
<text text-anchor="start" x="2242.22" y="-144.5" font-family="Helvetica,sans-Serif" font-size="10.00">include/rel/d/a/d_a</text>
<text text-anchor="middle" x="2308.72" y="-133.5" font-family="Helvetica,sans-Serif" font-size="10.00">_guard_mng/d_a_guard_mng.h</text>
</a>
</g>
</g>
<!-- Node17&#45;&gt;Node65 -->
<g id="edge34" class="edge">
<title>Node17&#45;&gt;Node65</title>
<path fill="none" stroke="#63b8ff" d="M1768.23,-205.44C1792.33,-203.08 1819.75,-200.41 1844.72,-198 2013.58,-181.74 2057.28,-189.24 2224.72,-162 2233.29,-160.61 2242.29,-158.84 2251.08,-156.95"/>
<polygon fill="#63b8ff" stroke="#63b8ff" points="1768.18,-201.93 1758.57,-206.39 1768.86,-208.9 1768.18,-201.93"/>
</g>
<!-- Node66 -->
<g id="node31" class="node">
<title>Node66</title>
<g id="a_node31"><a xlink:href="d__a__hitobj_8h.html" target="_top" xlink:title=" ">
<polygon fill="white" stroke="#666666" points="2501.72,-156.5 2401.72,-156.5 2401.72,-126.5 2501.72,-126.5 2501.72,-156.5"/>
<text text-anchor="start" x="2409.72" y="-144.5" font-family="Helvetica,sans-Serif" font-size="10.00">include/rel/d/a/d_a</text>
<text text-anchor="middle" x="2451.72" y="-133.5" font-family="Helvetica,sans-Serif" font-size="10.00">_hitobj/d_a_hitobj.h</text>
</a>
</g>
</g>
<!-- Node17&#45;&gt;Node66 -->
<g id="edge35" class="edge">
<title>Node17&#45;&gt;Node66</title>
<path fill="none" stroke="#63b8ff" d="M1768.2,-205.05C1792.29,-202.64 1819.72,-200.04 1844.72,-198 2087.99,-178.11 2153.14,-208.67 2392.72,-162 2399.29,-160.72 2406.13,-158.92 2412.74,-156.92"/>
<polygon fill="#63b8ff" stroke="#63b8ff" points="1768.13,-201.53 1758.53,-206.02 1768.83,-208.5 1768.13,-201.53"/>
</g>
<!-- Node67 -->
<g id="node32" class="node">
<title>Node67</title>
<g id="a_node32"><a xlink:href="d__a__izumi__gate_8h.html" target="_top" xlink:title=" ">
<polygon fill="white" stroke="#666666" points="2635.22,-162 2520.22,-162 2520.22,-121 2635.22,-121 2635.22,-162"/>
<text text-anchor="start" x="2528.22" y="-150" font-family="Helvetica,sans-Serif" font-size="10.00">include/rel/d/a/d_a</text>
<text text-anchor="start" x="2528.22" y="-139" font-family="Helvetica,sans-Serif" font-size="10.00">_izumi_gate/d_a_izumi</text>
<text text-anchor="middle" x="2577.72" y="-128" font-family="Helvetica,sans-Serif" font-size="10.00">_gate.h</text>
</a>
</g>
</g>
<!-- Node17&#45;&gt;Node67 -->
<g id="edge36" class="edge">
<title>Node17&#45;&gt;Node67</title>
<path fill="none" stroke="#63b8ff" d="M1768.19,-204.89C1792.27,-202.47 1819.7,-199.9 1844.72,-198 2140.3,-175.55 2218.49,-211.75 2510.72,-162 2513.71,-161.49 2516.75,-160.9 2519.81,-160.24"/>
<polygon fill="#63b8ff" stroke="#63b8ff" points="1768.12,-201.37 1758.52,-205.87 1768.82,-208.34 1768.12,-201.37"/>
</g>
<!-- Node68 -->
<g id="node33" class="node">
<title>Node68</title>
<g id="a_node33"><a xlink:href="d__a__set__bgobj_8h.html" target="_top" xlink:title=" ">
<polygon fill="white" stroke="#666666" points="2790.22,-156.5 2653.22,-156.5 2653.22,-126.5 2790.22,-126.5 2790.22,-156.5"/>
<text text-anchor="start" x="2661.22" y="-144.5" font-family="Helvetica,sans-Serif" font-size="10.00">include/rel/d/a/d_a</text>
<text text-anchor="middle" x="2721.72" y="-133.5" font-family="Helvetica,sans-Serif" font-size="10.00">_set_bgobj/d_a_set_bgobj.h</text>
</a>
</g>
</g>
<!-- Node17&#45;&gt;Node68 -->
<g id="edge37" class="edge">
<title>Node17&#45;&gt;Node68</title>
<path fill="none" stroke="#63b8ff" d="M1768.18,-204.76C1792.26,-202.33 1819.7,-199.79 1844.72,-198 2199.73,-172.65 2292.62,-213.96 2644.72,-162 2653.18,-160.75 2662.06,-158.96 2670.65,-156.97"/>
<polygon fill="#63b8ff" stroke="#63b8ff" points="1768.11,-201.25 1758.51,-205.75 1768.82,-208.21 1768.11,-201.25"/>
</g>
<!-- Node69 -->
<g id="node34" class="node">
<title>Node69</title>
<g id="a_node34"><a xlink:href="d__a__skip__2D_8h.html" target="_top" xlink:title=" ">
<polygon fill="white" stroke="#666666" points="2932.72,-156.5 2808.72,-156.5 2808.72,-126.5 2932.72,-126.5 2932.72,-156.5"/>
<text text-anchor="start" x="2816.72" y="-144.5" font-family="Helvetica,sans-Serif" font-size="10.00">include/rel/d/a/d_a</text>
<text text-anchor="middle" x="2870.72" y="-133.5" font-family="Helvetica,sans-Serif" font-size="10.00">_skip_2D/d_a_skip_2D.h</text>
</a>
</g>
</g>
<!-- Node17&#45;&gt;Node69 -->
<g id="edge38" class="edge">
<title>Node17&#45;&gt;Node69</title>
<path fill="none" stroke="#63b8ff" d="M1768.17,-204.66C1792.26,-202.22 1819.69,-199.7 1844.72,-198 2268.5,-169.29 2379.93,-226.67 2799.72,-162 2807.68,-160.77 2816.02,-158.97 2824.08,-156.95"/>
<polygon fill="#63b8ff" stroke="#63b8ff" points="1768.1,-201.15 1758.51,-205.65 1768.81,-208.11 1768.1,-201.15"/>
</g>
<!-- Node70 -->
<g id="node35" class="node">
<title>Node70</title>
<g id="a_node35"><a xlink:href="d__a__spinner_8h.html" target="_top" xlink:title=" ">
<polygon fill="#fff0f0" stroke="red" points="1309.72,-156.5 1193.72,-156.5 1193.72,-126.5 1309.72,-126.5 1309.72,-156.5"/>
<text text-anchor="start" x="1201.72" y="-144.5" font-family="Helvetica,sans-Serif" font-size="10.00">include/rel/d/a/d_a</text>
<text text-anchor="middle" x="1251.72" y="-133.5" font-family="Helvetica,sans-Serif" font-size="10.00">_spinner/d_a_spinner.h</text>
</a>
</g>
</g>
<!-- Node17&#45;&gt;Node70 -->
<g id="edge39" class="edge">
<title>Node17&#45;&gt;Node70</title>
<path fill="none" stroke="#63b8ff" d="M1635.01,-206.42C1558.18,-199.27 1428.44,-184.99 1318.72,-162 1311.96,-160.58 1304.89,-158.83 1297.98,-156.96"/>
<polygon fill="#63b8ff" stroke="#63b8ff" points="1634.63,-209.9 1644.91,-207.33 1635.27,-202.93 1634.63,-209.9"/>
</g>
<!-- Node72 -->
<g id="node36" class="node">
<title>Node72</title>
<g id="a_node36"><a xlink:href="d__a__swTime_8h.html" target="_top" xlink:title=" ">
<polygon fill="white" stroke="#666666" points="3072.72,-156.5 2950.72,-156.5 2950.72,-126.5 3072.72,-126.5 3072.72,-156.5"/>
<text text-anchor="start" x="2958.72" y="-144.5" font-family="Helvetica,sans-Serif" font-size="10.00">include/rel/d/a/d_a</text>
<text text-anchor="middle" x="3011.72" y="-133.5" font-family="Helvetica,sans-Serif" font-size="10.00">_swTime/d_a_swTime.h</text>
</a>
</g>
</g>
<!-- Node17&#45;&gt;Node72 -->
<g id="edge42" class="edge">
<title>Node17&#45;&gt;Node72</title>
<path fill="none" stroke="#63b8ff" d="M1768.17,-204.59C1792.25,-202.15 1819.69,-199.63 1844.72,-198 2331.5,-166.22 2459.55,-235.98 2941.72,-162 2949.58,-160.79 2957.81,-159 2965.75,-156.98"/>
<polygon fill="#63b8ff" stroke="#63b8ff" points="1768.09,-201.08 1758.5,-205.59 1768.81,-208.04 1768.09,-201.08"/>
</g>
<!-- Node73 -->
<g id="node37" class="node">
<title>Node73</title>
<g id="a_node37"><a xlink:href="d__a__vrbox_8h.html" target="_top" xlink:title=" ">
<polygon fill="white" stroke="#666666" points="659.72,-156.5 559.72,-156.5 559.72,-126.5 659.72,-126.5 659.72,-156.5"/>
<text text-anchor="start" x="567.72" y="-144.5" font-family="Helvetica,sans-Serif" font-size="10.00">include/rel/d/a/d_a</text>
<text text-anchor="middle" x="609.72" y="-133.5" font-family="Helvetica,sans-Serif" font-size="10.00">_vrbox/d_a_vrbox.h</text>
</a>
</g>
</g>
<!-- Node17&#45;&gt;Node73 -->
<g id="edge43" class="edge">
<title>Node17&#45;&gt;Node73</title>
<path fill="none" stroke="#63b8ff" d="M1635.32,-205.19C1608.45,-202.63 1577.13,-199.88 1548.72,-198 1158.14,-172.16 1053.83,-232.1 668.72,-162 662.03,-160.78 655.07,-158.98 648.36,-156.96"/>
<polygon fill="#63b8ff" stroke="#63b8ff" points="1634.74,-208.65 1645.03,-206.13 1635.41,-201.68 1634.74,-208.65"/>
</g>
<!-- Node74 -->
<g id="node38" class="node">
<title>Node74</title>
<g id="a_node38"><a xlink:href="d__a__e__db__leaf_8h.html" target="_top" xlink:title=" ">
<polygon fill="white" stroke="#666666" points="797.22,-162 678.22,-162 678.22,-121 797.22,-121 797.22,-162"/>
<text text-anchor="start" x="686.22" y="-150" font-family="Helvetica,sans-Serif" font-size="10.00">include/rel/d/a/e/d</text>
<text text-anchor="start" x="686.22" y="-139" font-family="Helvetica,sans-Serif" font-size="10.00">_a_e_db_leaf/d_a_e_db</text>
<text text-anchor="middle" x="737.72" y="-128" font-family="Helvetica,sans-Serif" font-size="10.00">_leaf.h</text>
</a>
</g>
</g>
<!-- Node17&#45;&gt;Node74 -->
<g id="edge44" class="edge">
<title>Node17&#45;&gt;Node74</title>
<path fill="none" stroke="#63b8ff" d="M1635.31,-205.3C1608.44,-202.75 1577.13,-199.99 1548.72,-198 1218.92,-174.93 1131.9,-215.93 805.72,-162 803.05,-161.56 800.35,-161.05 797.62,-160.49"/>
<polygon fill="#63b8ff" stroke="#63b8ff" points="1634.73,-208.76 1645.02,-206.23 1635.4,-201.79 1634.73,-208.76"/>
</g>
<!-- Node105 -->
<g id="node39" class="node">
<title>Node105</title>
<g id="a_node39"><a xlink:href="d__a__tag__hinit_8h.html" target="_top" xlink:title=" ">
<polygon fill="white" stroke="#666666" points="3471.22,-162 3356.22,-162 3356.22,-121 3471.22,-121 3471.22,-162"/>
<text text-anchor="start" x="3364.22" y="-150" font-family="Helvetica,sans-Serif" font-size="10.00">include/rel/d/a/tag</text>
<text text-anchor="start" x="3364.22" y="-139" font-family="Helvetica,sans-Serif" font-size="10.00">/d_a_tag_hinit/d_a_tag</text>
<text text-anchor="middle" x="3413.72" y="-128" font-family="Helvetica,sans-Serif" font-size="10.00">_hinit.h</text>
</a>
</g>
</g>
<!-- Node17&#45;&gt;Node105 -->
<g id="edge46" class="edge">
<title>Node17&#45;&gt;Node105</title>
<path fill="none" stroke="#63b8ff" d="M1768.69,-212.25C2037.17,-212.92 3036.01,-211.93 3347.72,-162 3350.43,-161.57 3353.19,-161.05 3355.97,-160.48"/>
<polygon fill="#63b8ff" stroke="#63b8ff" points="1768.73,-208.76 1758.72,-212.23 1768.71,-215.76 1768.73,-208.76"/>
</g>
<!-- Node130 -->
<g id="node40" class="node">
<title>Node130</title>
<g id="a_node40"><a xlink:href="d__bg__w_8cpp.html" target="_top" xlink:title=" ">
<polygon fill="white" stroke="#666666" points="3338.22,-151 3231.22,-151 3231.22,-132 3338.22,-132 3338.22,-151"/>
<text text-anchor="middle" x="3284.72" y="-139" font-family="Helvetica,sans-Serif" font-size="10.00">src/d/bg/d_bg_w.cpp</text>
</a>
</g>
</g>
<!-- Node17&#45;&gt;Node130 -->
<g id="edge47" class="edge">
<title>Node17&#45;&gt;Node130</title>
<path fill="none" stroke="#63b8ff" d="M1768.18,-212.17C2022.76,-212.46 2935.95,-210.03 3221.72,-162 3235.04,-159.76 3249.47,-155.44 3261.15,-151.44"/>
<polygon fill="#63b8ff" stroke="#63b8ff" points="1768.43,-208.67 1758.42,-212.16 1768.42,-215.67 1768.43,-208.67"/>
</g>
<!-- Node28 -->
<g id="node20" class="node">
<title>Node28</title>
<g id="a_node20"><a xlink:href="d__a__e__wb_8h.html" target="_top" xlink:title=" ">
<polygon fill="white" stroke="#666666" points="1571.72,-85 1461.72,-85 1461.72,-55 1571.72,-55 1571.72,-85"/>
<text text-anchor="start" x="1469.72" y="-73" font-family="Helvetica,sans-Serif" font-size="10.00">include/rel/d/a/e/d</text>
<text text-anchor="middle" x="1516.72" y="-62" font-family="Helvetica,sans-Serif" font-size="10.00">_a_e_wb/d_a_e_wb.h</text>
</a>
</g>
</g>
<!-- Node24&#45;&gt;Node28 -->
<g id="edge19" class="edge">
<title>Node24&#45;&gt;Node28</title>
<path fill="none" stroke="#63b8ff" d="M1516.01,-120.39C1516.17,-109.15 1516.37,-95.41 1516.52,-85.27"/>
<polygon fill="#63b8ff" stroke="#63b8ff" points="1512.51,-120.14 1515.87,-130.18 1519.51,-120.24 1512.51,-120.14"/>
</g>
<!-- Node28&#45;&gt;Node4 -->
<g id="edge20" class="edge">
<title>Node28&#45;&gt;Node4</title>
<path fill="none" stroke="#63b8ff" d="M1471.51,-50.24C1446.55,-39.89 1416.71,-27.51 1397.04,-19.35"/>
<polygon fill="#63b8ff" stroke="#63b8ff" points="1469.89,-53.36 1480.47,-53.96 1472.57,-46.89 1469.89,-53.36"/>
</g>
<!-- Node29 -->
<g id="node21" class="node">
<title>Node29</title>
<g id="a_node21"><a xlink:href="d__a__horse__static_8cpp.html" target="_top" xlink:title=" ">
<polygon fill="white" stroke="#666666" points="1590.72,-19 1448.72,-19 1448.72,0 1590.72,0 1590.72,-19"/>
<text text-anchor="middle" x="1519.72" y="-7" font-family="Helvetica,sans-Serif" font-size="10.00">src/d/a/d_a_horse_static.cpp</text>
</a>
</g>
</g>
<!-- Node28&#45;&gt;Node29 -->
<g id="edge21" class="edge">
<title>Node28&#45;&gt;Node29</title>
<path fill="none" stroke="#63b8ff" d="M1518.04,-43.3C1518.48,-34.65 1518.95,-25.58 1519.28,-19.18"/>
<polygon fill="#63b8ff" stroke="#63b8ff" points="1514.56,-42.86 1517.54,-53.03 1521.55,-43.22 1514.56,-42.86"/>
</g>
<!-- Node41&#45;&gt;Node4 -->
<g id="edge26" class="edge">
<title>Node41&#45;&gt;Node4</title>
<path fill="none" stroke="#63b8ff" d="M1381.33,-114.62C1379.74,-85.09 1377.22,-38.42 1376.19,-19.21"/>
<polygon fill="#63b8ff" stroke="#63b8ff" points="1377.83,-114.78 1381.86,-124.58 1384.82,-114.41 1377.83,-114.78"/>
</g>
<!-- Node41&#45;&gt;Node8 -->
<g id="edge27" class="edge">
<title>Node41&#45;&gt;Node8</title>
<path fill="none" stroke="#63b8ff" d="M1325.51,-122.93C1323.22,-122.27 1320.95,-121.62 1318.72,-121 1263.87,-105.62 1199.81,-89.55 1160.51,-79.91"/>
<polygon fill="#63b8ff" stroke="#63b8ff" points="1324.27,-126.21 1334.85,-125.66 1326.24,-119.5 1324.27,-126.21"/>
</g>
<!-- Node41&#45;&gt;Node9 -->
<g id="edge28" class="edge">
<title>Node41&#45;&gt;Node9</title>
<path fill="none" stroke="#63b8ff" d="M1329.53,-123.23C1325.89,-122.38 1322.27,-121.62 1318.72,-121 1227.74,-105.07 587.57,-80.25 394.02,-73.03"/>
<polygon fill="#63b8ff" stroke="#63b8ff" points="1328.36,-126.54 1338.92,-125.64 1330.1,-119.76 1328.36,-126.54"/>
</g>
<!-- Node41&#45;&gt;Node10 -->
<g id="edge29" class="edge">
<title>Node41&#45;&gt;Node10</title>
<path fill="none" stroke="#63b8ff" d="M1328.32,-123.13C1325.09,-122.35 1321.87,-121.63 1318.72,-121 1162.81,-89.88 975.89,-77.81 878.37,-73.38"/>
<polygon fill="#63b8ff" stroke="#63b8ff" points="1327.27,-126.48 1337.83,-125.63 1329.04,-119.71 1327.27,-126.48"/>
</g>
<!-- Node70&#45;&gt;Node4 -->
<g id="edge40" class="edge">
<title>Node70&#45;&gt;Node4</title>
<path fill="none" stroke="#63b8ff" d="M1273.1,-118.09C1300.95,-88.89 1348.35,-39.2 1367.41,-19.21"/>
<polygon fill="#63b8ff" stroke="#63b8ff" points="1270.88,-115.34 1266.51,-125 1275.94,-120.18 1270.88,-115.34"/>
</g>
<!-- Node70&#45;&gt;Node5 -->
<g id="edge41" class="edge">
<title>Node70&#45;&gt;Node5</title>
<path fill="none" stroke="#63b8ff" d="M1196.57,-123.31C1192.58,-122.42 1188.6,-121.63 1184.72,-121 785.22,-55.96 678.85,-107.57 274.72,-85 228.7,-82.43 176.6,-78.62 137.99,-75.62"/>
<polygon fill="#63b8ff" stroke="#63b8ff" points="1195.73,-126.71 1206.27,-125.69 1197.39,-119.91 1195.73,-126.71"/>
</g>
<!-- Node190&#45;&gt;Node5 -->
<g id="edge57" class="edge">
<title>Node190&#45;&gt;Node5</title>
<path fill="none" stroke="#63b8ff" d="M232.75,-268C174.61,-259.75 104.28,-246.41 80.72,-228 41.61,-197.44 34.78,-168.64 48.72,-121 53.41,-104.98 64.98,-89.21 72.84,-79.79"/>
<polygon fill="#63b8ff" stroke="#63b8ff" points="231.94,-271.42 242.33,-269.32 232.9,-264.49 231.94,-271.42"/>
</g>
<!-- Node192&#45;&gt;Node4 -->
<g id="edge62" class="edge">
<title>Node192&#45;&gt;Node4</title>
<path fill="none" stroke="#63b8ff" d="M3545.62,-209.89C3580.74,-205.12 3622.09,-192.73 3644.72,-162 3655.53,-147.33 3657.3,-134.18 3644.72,-121 3560.03,-32.31 1561.86,-29.92 1439.72,-19 1436.71,-18.73 1433.62,-18.42 1430.5,-18.09"/>
<polygon fill="#63b8ff" stroke="#63b8ff" points="3545.5,-206.38 3535.97,-211.01 3546.31,-213.34 3545.5,-206.38"/>
</g>
<!-- Node192&#45;&gt;Node28 -->
<g id="edge60" class="edge">
<title>Node192&#45;&gt;Node28</title>
<path fill="none" stroke="#63b8ff" d="M3545.69,-206.61C3575.33,-200.55 3608.3,-187.96 3626.72,-162 3637.27,-147.14 3639.45,-134.04 3626.72,-121 3589.76,-83.15 1901.49,-72.9 1572.1,-71.25"/>
<polygon fill="#63b8ff" stroke="#63b8ff" points="3545.23,-203.13 3536.02,-208.36 3546.48,-210.02 3545.23,-203.13"/>
</g>
<!-- Node192&#45;&gt;Node105 -->
<g id="edge61" class="edge">
<title>Node192&#45;&gt;Node105</title>
<path fill="none" stroke="#63b8ff" d="M3461.22,-189.66C3452.4,-180.9 3442.35,-170.93 3433.78,-162.42"/>
<polygon fill="#63b8ff" stroke="#63b8ff" points="3458.58,-191.97 3468.14,-196.53 3463.51,-187 3458.58,-191.97"/>
</g>
<!-- Node192&#45;&gt;Node130 -->
<g id="edge63" class="edge">
<title>Node192&#45;&gt;Node130</title>
<path fill="none" stroke="#63b8ff" d="M3431.85,-193.88C3392.83,-180.26 3341.01,-162.16 3310.43,-151.48"/>
<polygon fill="#63b8ff" stroke="#63b8ff" points="3430.46,-197.11 3441.06,-197.1 3432.77,-190.5 3430.46,-197.11"/>
</g>
<!-- Node44 -->
<g id="node48" class="node">
<title>Node44</title>
<g id="a_node48"><a xlink:href="d__meter2_8cpp.html" target="_top" xlink:title=" ">
<polygon fill="white" stroke="#666666" points="3617.72,-151 3489.72,-151 3489.72,-132 3617.72,-132 3617.72,-151"/>
<text text-anchor="middle" x="3553.72" y="-139" font-family="Helvetica,sans-Serif" font-size="10.00">src/d/meter/d_meter2.cpp</text>
</a>
</g>
</g>
<!-- Node192&#45;&gt;Node44 -->
<g id="edge64" class="edge">
<title>Node192&#45;&gt;Node44</title>
<path fill="none" stroke="#63b8ff" d="M3506.39,-189.49C3519.55,-176.43 3535.37,-160.72 3544.98,-151.18"/>
<polygon fill="#63b8ff" stroke="#63b8ff" points="3503.93,-187 3499.3,-196.53 3508.86,-191.97 3503.93,-187"/>
</g>
</g>
</svg>
