<?xml version="1.0" encoding="UTF-8" standalone="no"?>
<!DOCTYPE svg PUBLIC "-//W3C//DTD SVG 1.1//EN"
 "http://www.w3.org/Graphics/SVG/1.1/DTD/svg11.dtd">
<!-- Generated by graphviz version 7.0.5 (20221223.1930)
 -->
<!-- Title: libs/SSystem/SComponent/c_bg_s_lin_chk.cpp Pages: 1 -->
<svg width="496pt" height="423pt"
 viewBox="0.00 0.00 496.00 423.00" xmlns="http://www.w3.org/2000/svg" xmlns:xlink="http://www.w3.org/1999/xlink">
<g id="graph0" class="graph" transform="scale(1 1) rotate(0) translate(4 419)">
<title>libs/SSystem/SComponent/c_bg_s_lin_chk.cpp</title>
<!-- Node1 -->
<g id="node1" class="node">
<title>Node1</title>
<g id="a_node1"><a xlink:title=" ">
<polygon fill="#999999" stroke="#666666" points="282,-415 148,-415 148,-385 282,-385 282,-415"/>
<text text-anchor="start" x="156" y="-403" font-family="Helvetica,sans-Serif" font-size="10.00">libs/SSystem/SComponent</text>
<text text-anchor="middle" x="215" y="-392" font-family="Helvetica,sans-Serif" font-size="10.00">/c_bg_s_lin_chk.cpp</text>
</a>
</g>
</g>
<!-- Node2 -->
<g id="node2" class="node">
<title>Node2</title>
<g id="a_node2"><a xlink:href="c__bg__s__lin__chk_8h.html" target="_top" xlink:title=" ">
<polygon fill="white" stroke="#666666" points="273,-349 157,-349 157,-319 273,-319 273,-349"/>
<text text-anchor="start" x="165" y="-337" font-family="Helvetica,sans-Serif" font-size="10.00">SSystem/SComponent</text>
<text text-anchor="middle" x="215" y="-326" font-family="Helvetica,sans-Serif" font-size="10.00">/c_bg_s_lin_chk.h</text>
</a>
</g>
</g>
<!-- Node1&#45;&gt;Node2 -->
<g id="edge1" class="edge">
<title>Node1&#45;&gt;Node2</title>
<path fill="none" stroke="#63b8ff" d="M215,-384.8C215,-377.67 215,-368.82 215,-360.56"/>
<polygon fill="#63b8ff" stroke="#63b8ff" points="218.5,-360.68 215,-350.68 211.5,-360.68 218.5,-360.68"/>
</g>
<!-- Node3 -->
<g id="node3" class="node">
<title>Node3</title>
<g id="a_node3"><a xlink:href="c__bg__s__chk_8h.html" target="_top" xlink:title=" ">
<polygon fill="white" stroke="#666666" points="144,-217 28,-217 28,-187 144,-187 144,-217"/>
<text text-anchor="start" x="36" y="-205" font-family="Helvetica,sans-Serif" font-size="10.00">SSystem/SComponent</text>
<text text-anchor="middle" x="86" y="-194" font-family="Helvetica,sans-Serif" font-size="10.00">/c_bg_s_chk.h</text>
</a>
</g>
</g>
<!-- Node1&#45;&gt;Node3 -->
<g id="edge21" class="edge">
<title>Node1&#45;&gt;Node3</title>
<path fill="none" stroke="#63b8ff" d="M189.45,-384.54C175.7,-375.72 159.29,-363.38 148,-349 118.87,-311.9 100.97,-259.1 92.31,-228.21"/>
<polygon fill="#63b8ff" stroke="#63b8ff" points="95.71,-227.36 89.73,-218.61 88.94,-229.18 95.71,-227.36"/>
</g>
<!-- Node4 -->
<g id="node4" class="node">
<title>Node4</title>
<g id="a_node4"><a xlink:href="types_8h.html" target="_top" xlink:title=" ">
<polygon fill="white" stroke="#666666" points="223.5,-90.5 142.5,-90.5 142.5,-71.5 223.5,-71.5 223.5,-90.5"/>
<text text-anchor="middle" x="183" y="-78.5" font-family="Helvetica,sans-Serif" font-size="10.00">dolphin/types.h</text>
</a>
</g>
</g>
<!-- Node1&#45;&gt;Node4 -->
<g id="edge24" class="edge">
<title>Node1&#45;&gt;Node4</title>
<path fill="none" stroke="#63b8ff" d="M147.56,-387.45C84.51,-372.33 0,-339.01 0,-269 0,-269 0,-269 0,-201 0,-138.02 77.11,-106.66 131.22,-92.41"/>
<polygon fill="#63b8ff" stroke="#63b8ff" points="132.06,-95.81 140.92,-89.99 130.37,-89.02 132.06,-95.81"/>
</g>
<!-- Node7 -->
<g id="node7" class="node">
<title>Node7</title>
<g id="a_node7"><a xlink:href="c__bg__s__poly__info_8h.html" target="_top" xlink:title=" ">
<polygon fill="white" stroke="#666666" points="488,-283 372,-283 372,-253 488,-253 488,-283"/>
<text text-anchor="start" x="380" y="-271" font-family="Helvetica,sans-Serif" font-size="10.00">SSystem/SComponent</text>
<text text-anchor="middle" x="430" y="-260" font-family="Helvetica,sans-Serif" font-size="10.00">/c_bg_s_poly_info.h</text>
</a>
</g>
</g>
<!-- Node1&#45;&gt;Node7 -->
<g id="edge22" class="edge">
<title>Node1&#45;&gt;Node7</title>
<path fill="none" stroke="#63b8ff" d="M234.41,-384.63C247.81,-374.68 266.04,-361.1 282,-349 299.43,-335.79 302.28,-330.3 321,-319 340.4,-307.29 363.01,-296.5 382.59,-287.97"/>
<polygon fill="#63b8ff" stroke="#63b8ff" points="383.91,-291.21 391.73,-284.06 381.15,-284.77 383.91,-291.21"/>
</g>
<!-- Node14 -->
<g id="node14" class="node">
<title>Node14</title>
<g id="a_node14"><a xlink:href="dol2asm_8h.html" target="_top" xlink:title=" ">
<polygon fill="white" stroke="#666666" points="390.5,-343.5 329.5,-343.5 329.5,-324.5 390.5,-324.5 390.5,-343.5"/>
<text text-anchor="middle" x="360" y="-331.5" font-family="Helvetica,sans-Serif" font-size="10.00">dol2asm.h</text>
</a>
</g>
</g>
<!-- Node1&#45;&gt;Node14 -->
<g id="edge23" class="edge">
<title>Node1&#45;&gt;Node14</title>
<path fill="none" stroke="#63b8ff" d="M247.54,-384.64C272.01,-373.83 305.32,-359.13 329.33,-348.54"/>
<polygon fill="#63b8ff" stroke="#63b8ff" points="330.52,-351.84 338.26,-344.6 327.7,-345.43 330.52,-351.84"/>
</g>
<!-- Node2&#45;&gt;Node3 -->
<g id="edge2" class="edge">
<title>Node2&#45;&gt;Node3</title>
<path fill="none" stroke="#63b8ff" d="M197.57,-318.63C186.03,-308.9 170.74,-295.58 158,-283 139.26,-264.5 119.34,-242.13 105.21,-225.75"/>
<polygon fill="#63b8ff" stroke="#63b8ff" points="108.15,-223.8 98.99,-218.48 102.83,-228.36 108.15,-223.8"/>
</g>
<!-- Node2&#45;&gt;Node4 -->
<g id="edge20" class="edge">
<title>Node2&#45;&gt;Node4</title>
<path fill="none" stroke="#63b8ff" d="M206.85,-318.53C201.65,-308.76 195.13,-295.43 191,-283 172.13,-226.26 170.81,-210.51 165,-151 164.18,-142.6 163.55,-140.32 165,-132 166.81,-121.64 170.58,-110.58 174.2,-101.51"/>
<polygon fill="#63b8ff" stroke="#63b8ff" points="177.41,-102.92 178.11,-92.35 170.97,-100.17 177.41,-102.92"/>
</g>
<!-- Node2&#45;&gt;Node7 -->
<g id="edge7" class="edge">
<title>Node2&#45;&gt;Node7</title>
<path fill="none" stroke="#63b8ff" d="M263.52,-318.56C295.37,-309.08 337.22,-296.62 371,-286.56"/>
<polygon fill="#63b8ff" stroke="#63b8ff" points="371.62,-290.03 380.21,-283.82 369.62,-283.32 371.62,-290.03"/>
</g>
<!-- Node8 -->
<g id="node8" class="node">
<title>Node8</title>
<g id="a_node8"><a xlink:href="c__m3d__g__lin_8h.html" target="_top" xlink:title=" ">
<polygon fill="white" stroke="#666666" points="316,-283 200,-283 200,-253 316,-253 316,-283"/>
<text text-anchor="start" x="208" y="-271" font-family="Helvetica,sans-Serif" font-size="10.00">SSystem/SComponent</text>
<text text-anchor="middle" x="258" y="-260" font-family="Helvetica,sans-Serif" font-size="10.00">/c_m3d_g_lin.h</text>
</a>
</g>
</g>
<!-- Node2&#45;&gt;Node8 -->
<g id="edge9" class="edge">
<title>Node2&#45;&gt;Node8</title>
<path fill="none" stroke="#63b8ff" d="M224.54,-318.8C229.72,-311.09 236.25,-301.37 242.17,-292.56"/>
<polygon fill="#63b8ff" stroke="#63b8ff" points="244.97,-294.67 247.64,-284.42 239.16,-290.77 244.97,-294.67"/>
</g>
<!-- Node9 -->
<g id="node9" class="node">
<title>Node9</title>
<g id="a_node9"><a xlink:href="c__xyz_8h.html" target="_top" xlink:title=" ">
<polygon fill="white" stroke="#666666" points="402,-217 286,-217 286,-187 402,-187 402,-217"/>
<text text-anchor="start" x="294" y="-205" font-family="Helvetica,sans-Serif" font-size="10.00">SSystem/SComponent</text>
<text text-anchor="middle" x="344" y="-194" font-family="Helvetica,sans-Serif" font-size="10.00">/c_xyz.h</text>
</a>
</g>
</g>
<!-- Node2&#45;&gt;Node9 -->
<g id="edge19" class="edge">
<title>Node2&#45;&gt;Node9</title>
<path fill="none" stroke="#63b8ff" d="M271.48,-318.53C290.98,-310.92 311.34,-299.6 325,-283 337.48,-267.83 342.04,-245.86 343.58,-228.78"/>
<polygon fill="#63b8ff" stroke="#63b8ff" points="347.07,-229.07 344.15,-218.88 340.08,-228.66 347.07,-229.07"/>
</g>
<!-- Node3&#45;&gt;Node4 -->
<g id="edge3" class="edge">
<title>Node3&#45;&gt;Node4</title>
<path fill="none" stroke="#63b8ff" d="M94.36,-186.65C103.01,-172.26 117.31,-149.74 132,-132 141.93,-120.01 154.39,-107.75 164.51,-98.37"/>
<polygon fill="#63b8ff" stroke="#63b8ff" points="166.83,-100.99 171.88,-91.68 162.12,-95.81 166.83,-100.99"/>
</g>
<!-- Node6 -->
<g id="node6" class="node">
<title>Node6</title>
<g id="a_node6"><a xlink:href="vec_8h.html" target="_top" xlink:title=" ">
<polygon fill="white" stroke="#666666" points="266,-151 174,-151 174,-132 266,-132 266,-151"/>
<text text-anchor="middle" x="220" y="-139" font-family="Helvetica,sans-Serif" font-size="10.00">dolphin/mtx/vec.h</text>
</a>
</g>
</g>
<!-- Node3&#45;&gt;Node6 -->
<g id="edge5" class="edge">
<title>Node3&#45;&gt;Node6</title>
<path fill="none" stroke="#63b8ff" d="M119.12,-186.54C140.64,-177.15 168.48,-164.99 189.46,-155.83"/>
<polygon fill="#63b8ff" stroke="#63b8ff" points="190.59,-159.16 198.35,-151.95 187.78,-152.75 190.59,-159.16"/>
</g>
<!-- Node5 -->
<g id="node5" class="node">
<title>Node5</title>
<g id="a_node5"><a xlink:href="stddef_8h.html" target="_top" xlink:title=" ">
<polygon fill="white" stroke="#666666" points="251,-30 115,-30 115,0 251,0 251,-30"/>
<text text-anchor="start" x="123" y="-18" font-family="Helvetica,sans-Serif" font-size="10.00">MSL_C/MSL_Common/Src</text>
<text text-anchor="middle" x="183" y="-7" font-family="Helvetica,sans-Serif" font-size="10.00">/stddef.h</text>
</a>
</g>
</g>
<!-- Node4&#45;&gt;Node5 -->
<g id="edge4" class="edge">
<title>Node4&#45;&gt;Node5</title>
<path fill="none" stroke="#63b8ff" d="M183,-71.1C183,-63.41 183,-51.92 183,-41.42"/>
<polygon fill="#63b8ff" stroke="#63b8ff" points="186.5,-41.75 183,-31.75 179.5,-41.75 186.5,-41.75"/>
</g>
<!-- Node6&#45;&gt;Node4 -->
<g id="edge6" class="edge">
<title>Node6&#45;&gt;Node4</title>
<path fill="none" stroke="#63b8ff" d="M214.54,-131.87C209.29,-123.57 201.2,-110.78 194.53,-100.22"/>
<polygon fill="#63b8ff" stroke="#63b8ff" points="197.59,-98.53 189.29,-91.95 191.68,-102.27 197.59,-98.53"/>
</g>
<!-- Node7&#45;&gt;Node4 -->
<g id="edge8" class="edge">
<title>Node7&#45;&gt;Node4</title>
<path fill="none" stroke="#63b8ff" d="M437.23,-252.86C449.86,-225.98 471.94,-167.04 443,-132 429.85,-116.08 307.13,-97.88 235.09,-88.44"/>
<polygon fill="#63b8ff" stroke="#63b8ff" points="235.85,-85.01 225.49,-87.2 234.96,-91.96 235.85,-85.01"/>
</g>
<!-- Node8&#45;&gt;Node6 -->
<g id="edge17" class="edge">
<title>Node8&#45;&gt;Node6</title>
<path fill="none" stroke="#63b8ff" d="M253.64,-252.72C246.84,-230.43 233.69,-187.34 226,-162.14"/>
<polygon fill="#63b8ff" stroke="#63b8ff" points="229.42,-161.37 223.15,-152.83 222.72,-163.42 229.42,-161.37"/>
</g>
<!-- Node8&#45;&gt;Node9 -->
<g id="edge10" class="edge">
<title>Node8&#45;&gt;Node9</title>
<path fill="none" stroke="#63b8ff" d="M277.09,-252.8C288.36,-244.4 302.86,-233.62 315.47,-224.23"/>
<polygon fill="#63b8ff" stroke="#63b8ff" points="317.52,-227.07 323.46,-218.29 313.34,-221.45 317.52,-227.07"/>
</g>
<!-- Node13 -->
<g id="node13" class="node">
<title>Node13</title>
<g id="a_node13"><a xlink:href="global_8h.html" target="_top" xlink:title=" ">
<polygon fill="white" stroke="#666666" points="334,-151 284,-151 284,-132 334,-132 334,-151"/>
<text text-anchor="middle" x="309" y="-139" font-family="Helvetica,sans-Serif" font-size="10.00">global.h</text>
</a>
</g>
</g>
<!-- Node8&#45;&gt;Node13 -->
<g id="edge18" class="edge">
<title>Node8&#45;&gt;Node13</title>
<path fill="none" stroke="#63b8ff" d="M259.7,-252.58C262.03,-236.12 267.1,-208.69 277,-187 281.34,-177.51 287.83,-167.98 293.84,-160.19"/>
<polygon fill="#63b8ff" stroke="#63b8ff" points="296.45,-162.53 300.03,-152.56 291.01,-158.11 296.45,-162.53"/>
</g>
<!-- Node9&#45;&gt;Node6 -->
<g id="edge14" class="edge">
<title>Node9&#45;&gt;Node6</title>
<path fill="none" stroke="#63b8ff" d="M313.35,-186.54C293.71,-177.28 268.38,-165.33 249.07,-156.21"/>
<polygon fill="#63b8ff" stroke="#63b8ff" points="250.66,-153.09 240.12,-151.99 247.67,-159.42 250.66,-153.09"/>
</g>
<!-- Node10 -->
<g id="node10" class="node">
<title>Node10</title>
<g id="a_node10"><a xlink:href="math_8h.html" target="_top" xlink:title=" ">
<polygon fill="white" stroke="#666666" points="434,-151 352,-151 352,-132 434,-132 434,-151"/>
<text text-anchor="middle" x="393" y="-139" font-family="Helvetica,sans-Serif" font-size="10.00">MSL_C/math.h</text>
</a>
</g>
</g>
<!-- Node9&#45;&gt;Node10 -->
<g id="edge11" class="edge">
<title>Node9&#45;&gt;Node10</title>
<path fill="none" stroke="#63b8ff" d="M356.11,-186.54C362.87,-178.48 371.32,-168.38 378.44,-159.89"/>
<polygon fill="#63b8ff" stroke="#63b8ff" points="381.02,-162.25 384.76,-152.34 375.66,-157.75 381.02,-162.25"/>
</g>
<!-- Node9&#45;&gt;Node13 -->
<g id="edge15" class="edge">
<title>Node9&#45;&gt;Node13</title>
<path fill="none" stroke="#63b8ff" d="M335.35,-186.54C330.73,-178.82 325,-169.24 320.06,-160.99"/>
<polygon fill="#63b8ff" stroke="#63b8ff" points="323.11,-159.26 314.97,-152.47 317.1,-162.85 323.11,-159.26"/>
</g>
<!-- Node11 -->
<g id="node11" class="node">
<title>Node11</title>
<g id="a_node11"><a xlink:href="float_8h.html" target="_top" xlink:title=" ">
<polygon fill="white" stroke="#666666" points="461,-96 325,-96 325,-66 461,-66 461,-96"/>
<text text-anchor="start" x="333" y="-84" font-family="Helvetica,sans-Serif" font-size="10.00">MSL_C/MSL_Common/Src</text>
<text text-anchor="middle" x="393" y="-73" font-family="Helvetica,sans-Serif" font-size="10.00">/float.h</text>
</a>
</g>
</g>
<!-- Node10&#45;&gt;Node11 -->
<g id="edge12" class="edge">
<title>Node10&#45;&gt;Node11</title>
<path fill="none" stroke="#63b8ff" d="M393,-131.87C393,-125.4 393,-116.2 393,-107.45"/>
<polygon fill="#63b8ff" stroke="#63b8ff" points="396.5,-107.63 393,-97.63 389.5,-107.63 396.5,-107.63"/>
</g>
<!-- Node12 -->
<g id="node12" class="node">
<title>Node12</title>
<g id="a_node12"><a xlink:href="fdlibm_8h.html" target="_top" xlink:title=" ">
<polygon fill="white" stroke="#666666" points="418,-24.5 368,-24.5 368,-5.5 418,-5.5 418,-24.5"/>
<text text-anchor="middle" x="393" y="-12.5" font-family="Helvetica,sans-Serif" font-size="10.00">fdlibm.h</text>
</a>
</g>
</g>
<!-- Node11&#45;&gt;Node12 -->
<g id="edge13" class="edge">
<title>Node11&#45;&gt;Node12</title>
<path fill="none" stroke="#63b8ff" d="M393,-65.8C393,-57.09 393,-45.81 393,-36.18"/>
<polygon fill="#63b8ff" stroke="#63b8ff" points="396.5,-36.36 393,-26.36 389.5,-36.36 396.5,-36.36"/>
</g>
<!-- Node13&#45;&gt;Node4 -->
<g id="edge16" class="edge">
<title>Node13&#45;&gt;Node4</title>
<path fill="none" stroke="#63b8ff" d="M289.86,-131.62C269.33,-122.08 236.44,-106.81 212.57,-95.73"/>
<polygon fill="#63b8ff" stroke="#63b8ff" points="214.23,-92.64 203.69,-91.61 211.29,-98.99 214.23,-92.64"/>
</g>
</g>
</svg>
