<?xml version="1.0" encoding="UTF-8" standalone="no"?>
<!DOCTYPE svg PUBLIC "-//W3C//DTD SVG 1.1//EN"
 "http://www.w3.org/Graphics/SVG/1.1/DTD/svg11.dtd">
<!-- Generated by graphviz version 7.0.5 (20221223.1930)
 -->
<!-- Title: include/SSystem/SComponent/c_math.h Pages: 1 -->
<svg width="3899pt" height="104pt"
 viewBox="0.00 0.00 3899.00 104.00" xmlns="http://www.w3.org/2000/svg" xmlns:xlink="http://www.w3.org/1999/xlink">
<g id="graph0" class="graph" transform="scale(1 1) rotate(0) translate(4 100)">
<title>include/SSystem/SComponent/c_math.h</title>
<!-- Node1 -->
<g id="node1" class="node">
<title>Node1</title>
<g id="a_node1"><a xlink:title=" ">
<polygon fill="#999999" stroke="#666666" points="1973,-96 1824,-96 1824,-66 1973,-66 1973,-96"/>
<text text-anchor="start" x="1832" y="-84" font-family="Helvetica,sans-Serif" font-size="10.00">include/SSystem/SComponent</text>
<text text-anchor="middle" x="1898.5" y="-73" font-family="Helvetica,sans-Serif" font-size="10.00">/c_math.h</text>
</a>
</g>
</g>
<!-- Node2 -->
<g id="node2" class="node">
<title>Node2</title>
<g id="a_node2"><a xlink:href="JASLfo_8cpp.html" target="_top" xlink:title=" ">
<polygon fill="white" stroke="#666666" points="111,-30 0,-30 0,0 111,0 111,-30"/>
<text text-anchor="start" x="8" y="-18" font-family="Helvetica,sans-Serif" font-size="10.00">libs/JSystem/JAudio2</text>
<text text-anchor="middle" x="55.5" y="-7" font-family="Helvetica,sans-Serif" font-size="10.00">/JASLfo.cpp</text>
</a>
</g>
</g>
<!-- Node1&#45;&gt;Node2 -->
<g id="edge1" class="edge">
<title>Node1&#45;&gt;Node2</title>
<path fill="none" stroke="#63b8ff" d="M1812.84,-79.68C1504.8,-78.2 454,-70.26 120.5,-30 117.52,-29.64 114.48,-29.21 111.41,-28.73"/>
<polygon fill="#63b8ff" stroke="#63b8ff" points="1812.38,-83.18 1822.4,-79.72 1812.42,-76.18 1812.38,-83.18"/>
</g>
<!-- Node3 -->
<g id="node3" class="node">
<title>Node3</title>
<g id="a_node3"><a xlink:href="c__lib_8cpp.html" target="_top" xlink:title=" ">
<polygon fill="white" stroke="#666666" points="263.5,-30 129.5,-30 129.5,0 263.5,0 263.5,-30"/>
<text text-anchor="start" x="137.5" y="-18" font-family="Helvetica,sans-Serif" font-size="10.00">libs/SSystem/SComponent</text>
<text text-anchor="middle" x="196.5" y="-7" font-family="Helvetica,sans-Serif" font-size="10.00">/c_lib.cpp</text>
</a>
</g>
</g>
<!-- Node1&#45;&gt;Node3 -->
<g id="edge2" class="edge">
<title>Node1&#45;&gt;Node3</title>
<path fill="none" stroke="#63b8ff" d="M1812.49,-79.08C1521.51,-75.68 575.26,-62.35 272.5,-30 269.7,-29.7 266.85,-29.36 263.97,-28.98"/>
<polygon fill="#63b8ff" stroke="#63b8ff" points="1812.25,-82.57 1822.29,-79.19 1812.33,-75.57 1812.25,-82.57"/>
</g>
<!-- Node4 -->
<g id="node4" class="node">
<title>Node4</title>
<g id="a_node4"><a xlink:href="c__m3d_8cpp.html" target="_top" xlink:title=" ">
<polygon fill="white" stroke="#666666" points="415.5,-30 281.5,-30 281.5,0 415.5,0 415.5,-30"/>
<text text-anchor="start" x="289.5" y="-18" font-family="Helvetica,sans-Serif" font-size="10.00">libs/SSystem/SComponent</text>
<text text-anchor="middle" x="348.5" y="-7" font-family="Helvetica,sans-Serif" font-size="10.00">/c_m3d.cpp</text>
</a>
</g>
</g>
<!-- Node1&#45;&gt;Node4 -->
<g id="edge3" class="edge">
<title>Node1&#45;&gt;Node4</title>
<path fill="none" stroke="#63b8ff" d="M1812.33,-78.76C1539.42,-74.55 696.16,-59.46 424.5,-30 421.7,-29.7 418.85,-29.35 415.97,-28.96"/>
<polygon fill="#63b8ff" stroke="#63b8ff" points="1812.17,-82.25 1822.22,-78.91 1812.27,-75.26 1812.17,-82.25"/>
</g>
<!-- Node5 -->
<g id="node5" class="node">
<title>Node5</title>
<g id="a_node5"><a xlink:href="c__math_8cpp.html" target="_top" xlink:title=" ">
<polygon fill="white" stroke="#666666" points="567.5,-30 433.5,-30 433.5,0 567.5,0 567.5,-30"/>
<text text-anchor="start" x="441.5" y="-18" font-family="Helvetica,sans-Serif" font-size="10.00">libs/SSystem/SComponent</text>
<text text-anchor="middle" x="500.5" y="-7" font-family="Helvetica,sans-Serif" font-size="10.00">/c_math.cpp</text>
</a>
</g>
</g>
<!-- Node1&#45;&gt;Node5 -->
<g id="edge4" class="edge">
<title>Node1&#45;&gt;Node5</title>
<path fill="none" stroke="#63b8ff" d="M1812.22,-78.37C1558.44,-73.3 817.21,-56.58 576.5,-30 573.7,-29.69 570.85,-29.34 567.97,-28.95"/>
<polygon fill="#63b8ff" stroke="#63b8ff" points="1811.99,-81.86 1822.06,-78.56 1812.13,-74.86 1811.99,-81.86"/>
</g>
<!-- Node6 -->
<g id="node6" class="node">
<title>Node6</title>
<g id="a_node6"><a xlink:href="c__xyz_8cpp.html" target="_top" xlink:title=" ">
<polygon fill="white" stroke="#666666" points="719.5,-30 585.5,-30 585.5,0 719.5,0 719.5,-30"/>
<text text-anchor="start" x="593.5" y="-18" font-family="Helvetica,sans-Serif" font-size="10.00">libs/SSystem/SComponent</text>
<text text-anchor="middle" x="652.5" y="-7" font-family="Helvetica,sans-Serif" font-size="10.00">/c_xyz.cpp</text>
</a>
</g>
</g>
<!-- Node1&#45;&gt;Node6 -->
<g id="edge5" class="edge">
<title>Node1&#45;&gt;Node6</title>
<path fill="none" stroke="#63b8ff" d="M1812.37,-80.42C1618.27,-80.47 1132.09,-75.57 728.5,-30 725.7,-29.68 722.85,-29.33 719.97,-28.93"/>
<polygon fill="#63b8ff" stroke="#63b8ff" points="1812.11,-83.92 1822.11,-80.41 1812.1,-76.92 1812.11,-83.92"/>
</g>
<!-- Node7 -->
<g id="node7" class="node">
<title>Node7</title>
<g id="a_node7"><a xlink:href="d__a__alink_8cpp.html" target="_top" xlink:title=" ">
<polygon fill="white" stroke="#666666" points="847,-24.5 738,-24.5 738,-5.5 847,-5.5 847,-24.5"/>
<text text-anchor="middle" x="792.5" y="-12.5" font-family="Helvetica,sans-Serif" font-size="10.00">src/d/a/d_a_alink.cpp</text>
</a>
</g>
</g>
<!-- Node1&#45;&gt;Node7 -->
<g id="edge6" class="edge">
<title>Node1&#45;&gt;Node7</title>
<path fill="none" stroke="#63b8ff" d="M1812.13,-80.73C1633.09,-81.16 1208.75,-76.64 856.5,-30 847.37,-28.79 837.61,-26.94 828.53,-24.99"/>
<polygon fill="#63b8ff" stroke="#63b8ff" points="1812.07,-84.23 1822.06,-80.69 1812.04,-77.23 1812.07,-84.23"/>
</g>
<!-- Node8 -->
<g id="node8" class="node">
<title>Node8</title>
<g id="a_node8"><a xlink:href="d__a__npc_8cpp.html" target="_top" xlink:title=" ">
<polygon fill="white" stroke="#666666" points="969.5,-24.5 865.5,-24.5 865.5,-5.5 969.5,-5.5 969.5,-24.5"/>
<text text-anchor="middle" x="917.5" y="-12.5" font-family="Helvetica,sans-Serif" font-size="10.00">src/d/a/d_a_npc.cpp</text>
</a>
</g>
</g>
<!-- Node1&#45;&gt;Node8 -->
<g id="edge7" class="edge">
<title>Node1&#45;&gt;Node8</title>
<path fill="none" stroke="#63b8ff" d="M1812.13,-80.22C1648.59,-79.55 1282.84,-72.87 978.5,-30 969.78,-28.77 960.48,-26.92 951.83,-24.96"/>
<polygon fill="#63b8ff" stroke="#63b8ff" points="1812.02,-83.72 1822.03,-80.25 1812.05,-76.72 1812.02,-83.72"/>
</g>
<!-- Node9 -->
<g id="node9" class="node">
<title>Node9</title>
<g id="a_node9"><a xlink:href="d__a__obj__item_8cpp.html" target="_top" xlink:title=" ">
<polygon fill="white" stroke="#666666" points="1113,-24.5 988,-24.5 988,-5.5 1113,-5.5 1113,-24.5"/>
<text text-anchor="middle" x="1050.5" y="-12.5" font-family="Helvetica,sans-Serif" font-size="10.00">src/d/a/d_a_obj_item.cpp</text>
</a>
</g>
</g>
<!-- Node1&#45;&gt;Node9 -->
<g id="edge8" class="edge">
<title>Node1&#45;&gt;Node9</title>
<path fill="none" stroke="#63b8ff" d="M1812.23,-78.04C1668.61,-73.96 1371.66,-62.12 1122.5,-30 1112.52,-28.71 1101.85,-26.89 1091.85,-24.98"/>
<polygon fill="#63b8ff" stroke="#63b8ff" points="1811.95,-81.53 1822.04,-78.31 1812.14,-74.53 1811.95,-81.53"/>
</g>
<!-- Node10 -->
<g id="node10" class="node">
<title>Node10</title>
<g id="a_node10"><a xlink:href="d__a__player_8cpp.html" target="_top" xlink:title=" ">
<polygon fill="white" stroke="#666666" points="1245.5,-24.5 1131.5,-24.5 1131.5,-5.5 1245.5,-5.5 1245.5,-24.5"/>
<text text-anchor="middle" x="1188.5" y="-12.5" font-family="Helvetica,sans-Serif" font-size="10.00">src/d/a/d_a_player.cpp</text>
</a>
</g>
</g>
<!-- Node1&#45;&gt;Node10 -->
<g id="edge9" class="edge">
<title>Node1&#45;&gt;Node10</title>
<path fill="none" stroke="#63b8ff" d="M1812.51,-76.92C1688.65,-71.67 1453.08,-58.64 1254.5,-30 1245.34,-28.68 1235.55,-26.84 1226.39,-24.93"/>
<polygon fill="#63b8ff" stroke="#63b8ff" points="1812.13,-80.41 1822.26,-77.33 1812.42,-73.41 1812.13,-80.41"/>
</g>
<!-- Node11 -->
<g id="node11" class="node">
<title>Node11</title>
<g id="a_node11"><a xlink:href="d__bg__w_8cpp.html" target="_top" xlink:title=" ">
<polygon fill="white" stroke="#666666" points="1371,-24.5 1264,-24.5 1264,-5.5 1371,-5.5 1371,-24.5"/>
<text text-anchor="middle" x="1317.5" y="-12.5" font-family="Helvetica,sans-Serif" font-size="10.00">src/d/bg/d_bg_w.cpp</text>
</a>
</g>
</g>
<!-- Node1&#45;&gt;Node11 -->
<g id="edge10" class="edge">
<title>Node1&#45;&gt;Node11</title>
<path fill="none" stroke="#63b8ff" d="M1812.49,-75.04C1709.19,-68.33 1530.91,-54.29 1379.5,-30 1371.11,-28.65 1362.16,-26.85 1353.74,-24.99"/>
<polygon fill="#63b8ff" stroke="#63b8ff" points="1812.07,-78.52 1822.27,-75.67 1812.52,-71.54 1812.07,-78.52"/>
</g>
<!-- Node12 -->
<g id="node12" class="node">
<title>Node12</title>
<g id="a_node12"><a xlink:href="d__cc__mass__s_8cpp.html" target="_top" xlink:title=" ">
<polygon fill="white" stroke="#666666" points="1494,-30 1389,-30 1389,0 1494,0 1494,-30"/>
<text text-anchor="start" x="1397" y="-18" font-family="Helvetica,sans-Serif" font-size="10.00">src/d/cc/d_cc_mass</text>
<text text-anchor="middle" x="1441.5" y="-7" font-family="Helvetica,sans-Serif" font-size="10.00">_s.cpp</text>
</a>
</g>
</g>
<!-- Node1&#45;&gt;Node12 -->
<g id="edge11" class="edge">
<title>Node1&#45;&gt;Node12</title>
<path fill="none" stroke="#63b8ff" d="M1812.52,-71.53C1732.26,-63.05 1609.32,-48.6 1503.5,-30 1500.46,-29.47 1497.34,-28.88 1494.2,-28.26"/>
<polygon fill="#63b8ff" stroke="#63b8ff" points="1811.74,-74.96 1822.05,-72.53 1812.47,-68 1811.74,-74.96"/>
</g>
<!-- Node13 -->
<g id="node13" class="node">
<title>Node13</title>
<g id="a_node13"><a xlink:href="d__cc__uty_8cpp.html" target="_top" xlink:title=" ">
<polygon fill="white" stroke="#666666" points="1624.5,-24.5 1512.5,-24.5 1512.5,-5.5 1624.5,-5.5 1624.5,-24.5"/>
<text text-anchor="middle" x="1568.5" y="-12.5" font-family="Helvetica,sans-Serif" font-size="10.00">src/d/cc/d_cc_uty.cpp</text>
</a>
</g>
</g>
<!-- Node1&#45;&gt;Node13 -->
<g id="edge12" class="edge">
<title>Node1&#45;&gt;Node13</title>
<path fill="none" stroke="#63b8ff" d="M1812.42,-64.34C1760.53,-54.75 1693.14,-42.05 1633.5,-30 1625.69,-28.42 1617.37,-26.68 1609.38,-24.97"/>
<polygon fill="#63b8ff" stroke="#63b8ff" points="1811.63,-67.75 1822.09,-66.12 1812.89,-60.86 1811.63,-67.75"/>
</g>
<!-- Node14 -->
<g id="node14" class="node">
<title>Node14</title>
<g id="a_node14"><a xlink:href="d__cam__param_8cpp.html" target="_top" xlink:title=" ">
<polygon fill="white" stroke="#666666" points="1764,-24.5 1643,-24.5 1643,-5.5 1764,-5.5 1764,-24.5"/>
<text text-anchor="middle" x="1703.5" y="-12.5" font-family="Helvetica,sans-Serif" font-size="10.00">src/d/d_cam_param.cpp</text>
</a>
</g>
</g>
<!-- Node1&#45;&gt;Node14 -->
<g id="edge13" class="edge">
<title>Node1&#45;&gt;Node14</title>
<path fill="none" stroke="#63b8ff" d="M1844.15,-62.16C1807.3,-50.07 1760.14,-34.59 1730.88,-24.99"/>
<polygon fill="#63b8ff" stroke="#63b8ff" points="1842.71,-65.37 1853.3,-65.17 1844.89,-58.72 1842.71,-65.37"/>
</g>
<!-- Node15 -->
<g id="node15" class="node">
<title>Node15</title>
<g id="a_node15"><a xlink:href="d__drawlist_8cpp.html" target="_top" xlink:title=" ">
<polygon fill="white" stroke="#666666" points="1886.5,-24.5 1782.5,-24.5 1782.5,-5.5 1886.5,-5.5 1886.5,-24.5"/>
<text text-anchor="middle" x="1834.5" y="-12.5" font-family="Helvetica,sans-Serif" font-size="10.00">src/d/d_drawlist.cpp</text>
</a>
</g>
</g>
<!-- Node1&#45;&gt;Node15 -->
<g id="edge14" class="edge">
<title>Node1&#45;&gt;Node15</title>
<path fill="none" stroke="#63b8ff" d="M1876.44,-57.94C1865.08,-46.58 1851.86,-33.36 1843.34,-24.84"/>
<polygon fill="#63b8ff" stroke="#63b8ff" points="1873.68,-60.13 1883.23,-64.73 1878.63,-55.18 1873.68,-60.13"/>
</g>
<!-- Node16 -->
<g id="node16" class="node">
<title>Node16</title>
<g id="a_node16"><a xlink:href="d__ky__thunder_8cpp.html" target="_top" xlink:title=" ">
<polygon fill="white" stroke="#666666" points="2022,-24.5 1905,-24.5 1905,-5.5 2022,-5.5 2022,-24.5"/>
<text text-anchor="middle" x="1963.5" y="-12.5" font-family="Helvetica,sans-Serif" font-size="10.00">src/d/d_ky_thunder.cpp</text>
</a>
</g>
</g>
<!-- Node1&#45;&gt;Node16 -->
<g id="edge15" class="edge">
<title>Node1&#45;&gt;Node16</title>
<path fill="none" stroke="#63b8ff" d="M1920.9,-57.94C1932.44,-46.58 1945.87,-33.36 1954.52,-24.84"/>
<polygon fill="#63b8ff" stroke="#63b8ff" points="1918.67,-55.22 1914,-64.73 1923.59,-60.21 1918.67,-55.22"/>
</g>
<!-- Node17 -->
<g id="node17" class="node">
<title>Node17</title>
<g id="a_node17"><a xlink:href="d__tresure_8cpp.html" target="_top" xlink:title=" ">
<polygon fill="white" stroke="#666666" points="2140.5,-24.5 2040.5,-24.5 2040.5,-5.5 2140.5,-5.5 2140.5,-24.5"/>
<text text-anchor="middle" x="2090.5" y="-12.5" font-family="Helvetica,sans-Serif" font-size="10.00">src/d/d_tresure.cpp</text>
</a>
</g>
</g>
<!-- Node1&#45;&gt;Node17 -->
<g id="edge16" class="edge">
<title>Node1&#45;&gt;Node17</title>
<path fill="none" stroke="#63b8ff" d="M1952.48,-62.01C1988.7,-49.93 2034.85,-34.55 2063.54,-24.99"/>
<polygon fill="#63b8ff" stroke="#63b8ff" points="1951.4,-58.68 1943.02,-65.16 1953.62,-65.32 1951.4,-58.68"/>
</g>
<!-- Node18 -->
<g id="node18" class="node">
<title>Node18</title>
<g id="a_node18"><a xlink:href="d__vibration_8cpp.html" target="_top" xlink:title=" ">
<polygon fill="white" stroke="#666666" points="2266,-24.5 2159,-24.5 2159,-5.5 2266,-5.5 2266,-24.5"/>
<text text-anchor="middle" x="2212.5" y="-12.5" font-family="Helvetica,sans-Serif" font-size="10.00">src/d/d_vibration.cpp</text>
</a>
</g>
</g>
<!-- Node1&#45;&gt;Node18 -->
<g id="edge17" class="edge">
<title>Node1&#45;&gt;Node18</title>
<path fill="none" stroke="#63b8ff" d="M1984.36,-63.38C2032.89,-53.87 2094.64,-41.56 2149.5,-30 2157.06,-28.41 2165.13,-26.65 2172.87,-24.95"/>
<polygon fill="#63b8ff" stroke="#63b8ff" points="1983.9,-59.91 1974.76,-65.26 1985.24,-66.78 1983.9,-59.91"/>
</g>
<!-- Node19 -->
<g id="node19" class="node">
<title>Node19</title>
<g id="a_node19"><a xlink:href="d__event__manager_8cpp.html" target="_top" xlink:title=" ">
<polygon fill="white" stroke="#666666" points="2387,-30 2284,-30 2284,0 2387,0 2387,-30"/>
<text text-anchor="start" x="2292" y="-18" font-family="Helvetica,sans-Serif" font-size="10.00">src/d/event/d_event</text>
<text text-anchor="middle" x="2335.5" y="-7" font-family="Helvetica,sans-Serif" font-size="10.00">_manager.cpp</text>
</a>
</g>
</g>
<!-- Node1&#45;&gt;Node19 -->
<g id="edge18" class="edge">
<title>Node1&#45;&gt;Node19</title>
<path fill="none" stroke="#63b8ff" d="M1984.25,-71.04C2060.91,-62.45 2176.14,-48.14 2275.5,-30 2278.13,-29.52 2280.82,-29 2283.53,-28.45"/>
<polygon fill="#63b8ff" stroke="#63b8ff" points="1984.29,-67.51 1974.73,-72.09 1985.06,-74.47 1984.29,-67.51"/>
</g>
<!-- Node20 -->
<g id="node20" class="node">
<title>Node20</title>
<g id="a_node20"><a xlink:href="d__kankyo_8cpp.html" target="_top" xlink:title=" ">
<polygon fill="white" stroke="#666666" points="2539.5,-24.5 2405.5,-24.5 2405.5,-5.5 2539.5,-5.5 2539.5,-24.5"/>
<text text-anchor="middle" x="2472.5" y="-12.5" font-family="Helvetica,sans-Serif" font-size="10.00">src/d/kankyo/d_kankyo.cpp</text>
</a>
</g>
</g>
<!-- Node1&#45;&gt;Node20 -->
<g id="edge19" class="edge">
<title>Node1&#45;&gt;Node20</title>
<path fill="none" stroke="#63b8ff" d="M1984.59,-73.52C2084.07,-65.52 2252.57,-50.45 2396.5,-30 2406.46,-28.58 2417.11,-26.8 2427.19,-24.98"/>
<polygon fill="#63b8ff" stroke="#63b8ff" points="1984.6,-70 1974.91,-74.29 1985.15,-76.98 1984.6,-70"/>
</g>
<!-- Node21 -->
<g id="node21" class="node">
<title>Node21</title>
<g id="a_node21"><a xlink:href="d__kankyo__rain_8cpp.html" target="_top" xlink:title=" ">
<polygon fill="white" stroke="#666666" points="2673.5,-30 2557.5,-30 2557.5,0 2673.5,0 2673.5,-30"/>
<text text-anchor="start" x="2565.5" y="-18" font-family="Helvetica,sans-Serif" font-size="10.00">src/d/kankyo/d_kankyo</text>
<text text-anchor="middle" x="2615.5" y="-7" font-family="Helvetica,sans-Serif" font-size="10.00">_rain.cpp</text>
</a>
</g>
</g>
<!-- Node1&#45;&gt;Node21 -->
<g id="edge20" class="edge">
<title>Node1&#45;&gt;Node21</title>
<path fill="none" stroke="#63b8ff" d="M1984.78,-76.91C2109.64,-71.64 2347.75,-58.57 2548.5,-30 2551.32,-29.6 2554.21,-29.15 2557.11,-28.66"/>
<polygon fill="#63b8ff" stroke="#63b8ff" points="1984.78,-73.41 1974.93,-77.32 1985.07,-80.4 1984.78,-73.41"/>
</g>
<!-- Node22 -->
<g id="node22" class="node">
<title>Node22</title>
<g id="a_node22"><a xlink:href="d__msg__flow_8cpp.html" target="_top" xlink:title=" ">
<polygon fill="white" stroke="#666666" points="2825,-24.5 2692,-24.5 2692,-5.5 2825,-5.5 2825,-24.5"/>
<text text-anchor="middle" x="2758.5" y="-12.5" font-family="Helvetica,sans-Serif" font-size="10.00">src/d/msg/d_msg_flow.cpp</text>
</a>
</g>
</g>
<!-- Node1&#45;&gt;Node22 -->
<g id="edge21" class="edge">
<title>Node1&#45;&gt;Node22</title>
<path fill="none" stroke="#63b8ff" d="M1984.77,-77.84C2129.49,-73.47 2430.12,-61.18 2682.5,-30 2693.02,-28.7 2704.28,-26.87 2714.83,-24.96"/>
<polygon fill="#63b8ff" stroke="#63b8ff" points="1984.77,-74.34 1974.88,-78.13 1984.97,-81.33 1984.77,-74.34"/>
</g>
<!-- Node23 -->
<g id="node23" class="node">
<title>Node23</title>
<g id="a_node23"><a xlink:href="d__particle_8cpp.html" target="_top" xlink:title=" ">
<polygon fill="white" stroke="#666666" points="2979.5,-24.5 2843.5,-24.5 2843.5,-5.5 2979.5,-5.5 2979.5,-24.5"/>
<text text-anchor="middle" x="2911.5" y="-12.5" font-family="Helvetica,sans-Serif" font-size="10.00">src/d/particle/d_particle.cpp</text>
</a>
</g>
</g>
<!-- Node1&#45;&gt;Node23 -->
<g id="edge22" class="edge">
<title>Node1&#45;&gt;Node23</title>
<path fill="none" stroke="#63b8ff" d="M1984.45,-79.04C2149.67,-76.39 2522.85,-66.51 2834.5,-30 2845.3,-28.74 2856.86,-26.89 2867.67,-24.96"/>
<polygon fill="#63b8ff" stroke="#63b8ff" points="1984.85,-75.53 1974.9,-79.19 1984.96,-82.53 1984.85,-75.53"/>
</g>
<!-- Node24 -->
<g id="node24" class="node">
<title>Node24</title>
<g id="a_node24"><a xlink:href="d__shop__system_8cpp.html" target="_top" xlink:title=" ">
<polygon fill="white" stroke="#666666" points="3149.5,-24.5 2997.5,-24.5 2997.5,-5.5 3149.5,-5.5 3149.5,-24.5"/>
<text text-anchor="middle" x="3073.5" y="-12.5" font-family="Helvetica,sans-Serif" font-size="10.00">src/d/shop/d_shop_system.cpp</text>
</a>
</g>
</g>
<!-- Node1&#45;&gt;Node24 -->
<g id="edge23" class="edge">
<title>Node1&#45;&gt;Node24</title>
<path fill="none" stroke="#63b8ff" d="M1984.64,-79.48C2169.18,-77.61 2616.2,-69.06 2988.5,-30 3000.4,-28.75 3013.16,-26.92 3025.09,-24.98"/>
<polygon fill="#63b8ff" stroke="#63b8ff" points="1984.87,-75.98 1974.91,-79.57 1984.94,-82.98 1984.87,-75.98"/>
</g>
<!-- Node25 -->
<g id="node25" class="node">
<title>Node25</title>
<g id="a_node25"><a xlink:href="f__op__actor__mng_8cpp.html" target="_top" xlink:title=" ">
<polygon fill="white" stroke="#666666" points="3269,-30 3168,-30 3168,0 3269,0 3269,-30"/>
<text text-anchor="start" x="3176" y="-18" font-family="Helvetica,sans-Serif" font-size="10.00">src/f_op/f_op_actor</text>
<text text-anchor="middle" x="3218.5" y="-7" font-family="Helvetica,sans-Serif" font-size="10.00">_mng.cpp</text>
</a>
</g>
</g>
<!-- Node1&#45;&gt;Node25 -->
<g id="edge24" class="edge">
<title>Node1&#45;&gt;Node25</title>
<path fill="none" stroke="#63b8ff" d="M1984.58,-78.71C2230.14,-74.69 2930.93,-60.78 3158.5,-30 3161.47,-29.6 3164.5,-29.12 3167.56,-28.58"/>
<polygon fill="#63b8ff" stroke="#63b8ff" points="1984.69,-75.21 1974.75,-78.87 1984.8,-82.21 1984.69,-75.21"/>
</g>
<!-- Node26 -->
<g id="node26" class="node">
<title>Node26</title>
<g id="a_node26"><a xlink:href="f__op__msg__mng_8cpp.html" target="_top" xlink:title=" ">
<polygon fill="white" stroke="#666666" points="3427.5,-24.5 3287.5,-24.5 3287.5,-5.5 3427.5,-5.5 3427.5,-24.5"/>
<text text-anchor="middle" x="3357.5" y="-12.5" font-family="Helvetica,sans-Serif" font-size="10.00">src/f_op/f_op_msg_mng.cpp</text>
</a>
</g>
</g>
<!-- Node1&#45;&gt;Node26 -->
<g id="edge25" class="edge">
<title>Node1&#45;&gt;Node26</title>
<path fill="none" stroke="#63b8ff" d="M1984.49,-78.45C2245.43,-73.51 3025.83,-56.83 3278.5,-30 3289.86,-28.79 3302.05,-26.92 3313.36,-24.94"/>
<polygon fill="#63b8ff" stroke="#63b8ff" points="1984.64,-74.95 1974.71,-78.64 1984.78,-81.95 1984.64,-74.95"/>
</g>
<!-- Node27 -->
<g id="node27" class="node">
<title>Node27</title>
<g id="a_node27"><a xlink:href="m__Do__graphic_8cpp.html" target="_top" xlink:title=" ">
<polygon fill="white" stroke="#666666" points="3587.5,-24.5 3445.5,-24.5 3445.5,-5.5 3587.5,-5.5 3587.5,-24.5"/>
<text text-anchor="middle" x="3516.5" y="-12.5" font-family="Helvetica,sans-Serif" font-size="10.00">src/m_Do/m_Do_graphic.cpp</text>
</a>
</g>
</g>
<!-- Node1&#45;&gt;Node27 -->
<g id="edge26" class="edge">
<title>Node1&#45;&gt;Node27</title>
<path fill="none" stroke="#63b8ff" d="M1984.56,-78.8C2265.13,-74.63 3151.62,-59.41 3436.5,-30 3448,-28.81 3460.34,-26.95 3471.81,-24.97"/>
<polygon fill="#63b8ff" stroke="#63b8ff" points="1984.71,-75.3 1974.76,-78.94 1984.81,-82.29 1984.71,-75.3"/>
</g>
<!-- Node28 -->
<g id="node28" class="node">
<title>Node28</title>
<g id="a_node28"><a xlink:href="m__Do__lib_8cpp.html" target="_top" xlink:title=" ">
<polygon fill="white" stroke="#666666" points="3725.5,-24.5 3605.5,-24.5 3605.5,-5.5 3725.5,-5.5 3725.5,-24.5"/>
<text text-anchor="middle" x="3665.5" y="-12.5" font-family="Helvetica,sans-Serif" font-size="10.00">src/m_Do/m_Do_lib.cpp</text>
</a>
</g>
</g>
<!-- Node1&#45;&gt;Node28 -->
<g id="edge27" class="edge">
<title>Node1&#45;&gt;Node28</title>
<path fill="none" stroke="#63b8ff" d="M1984.28,-79.41C2283.37,-77.06 3279.22,-66.59 3596.5,-30 3606.58,-28.84 3617.37,-26.96 3627.36,-24.95"/>
<polygon fill="#63b8ff" stroke="#63b8ff" points="1984.57,-75.91 1974.6,-79.49 1984.63,-82.91 1984.57,-75.91"/>
</g>
<!-- Node29 -->
<g id="node29" class="node">
<title>Node29</title>
<g id="a_node29"><a xlink:href="m__Do__machine_8cpp.html" target="_top" xlink:title=" ">
<polygon fill="white" stroke="#666666" points="3891,-24.5 3744,-24.5 3744,-5.5 3891,-5.5 3891,-24.5"/>
<text text-anchor="middle" x="3817.5" y="-12.5" font-family="Helvetica,sans-Serif" font-size="10.00">src/m_Do/m_Do_machine.cpp</text>
</a>
</g>
</g>
<!-- Node1&#45;&gt;Node29 -->
<g id="edge28" class="edge">
<title>Node1&#45;&gt;Node29</title>
<path fill="none" stroke="#63b8ff" d="M1984.75,-79.25C2299.86,-76.27 3388.49,-63.73 3734.5,-30 3746.43,-28.84 3759.23,-26.98 3771.12,-25"/>
<polygon fill="#63b8ff" stroke="#63b8ff" points="1984.9,-75.75 1974.93,-79.34 1984.97,-82.75 1984.9,-75.75"/>
</g>
</g>
</svg>
