<?xml version="1.0" encoding="UTF-8" standalone="no"?>
<!DOCTYPE svg PUBLIC "-//W3C//DTD SVG 1.1//EN"
 "http://www.w3.org/Graphics/SVG/1.1/DTD/svg11.dtd">
<!-- Generated by graphviz version 7.0.5 (20221223.1930)
 -->
<!-- Title: include/SSystem/SComponent/c_m3d_g_cir.h Pages: 1 -->
<svg width="2804pt" height="500pt"
 viewBox="0.00 0.00 2803.72 500.00" xmlns="http://www.w3.org/2000/svg" xmlns:xlink="http://www.w3.org/1999/xlink">
<g id="graph0" class="graph" transform="scale(1 1) rotate(0) translate(4 496)">
<title>include/SSystem/SComponent/c_m3d_g_cir.h</title>
<!-- Node1 -->
<g id="node1" class="node">
<title>Node1</title>
<g id="a_node1"><a xlink:title=" ">
<polygon fill="#999999" stroke="#666666" points="2103.5,-492 1954.5,-492 1954.5,-462 2103.5,-462 2103.5,-492"/>
<text text-anchor="start" x="1962.5" y="-480" font-family="Helvetica,sans-Serif" font-size="10.00">include/SSystem/SComponent</text>
<text text-anchor="middle" x="2029" y="-469" font-family="Helvetica,sans-Serif" font-size="10.00">/c_m3d_g_cir.h</text>
</a>
</g>
</g>
<!-- Node2 -->
<g id="node2" class="node">
<title>Node2</title>
<g id="a_node2"><a xlink:href="d__bg__s__acch_8h.html" target="_top" xlink:title=" ">
<polygon fill="white" stroke="#666666" points="2013,-426 1909,-426 1909,-396 2013,-396 2013,-426"/>
<text text-anchor="start" x="1917" y="-414" font-family="Helvetica,sans-Serif" font-size="10.00">include/d/bg/d_bg_s</text>
<text text-anchor="middle" x="1961" y="-403" font-family="Helvetica,sans-Serif" font-size="10.00">_acch.h</text>
</a>
</g>
</g>
<!-- Node1&#45;&gt;Node2 -->
<g id="edge1" class="edge">
<title>Node1&#45;&gt;Node2</title>
<path fill="none" stroke="#63b8ff" d="M2005.72,-454.09C1995.9,-444.85 1984.76,-434.36 1976.05,-426.16"/>
<polygon fill="#63b8ff" stroke="#63b8ff" points="2003.13,-456.45 2012.81,-460.76 2007.92,-451.36 2003.13,-456.45"/>
</g>
<!-- Node199 -->
<g id="node50" class="node">
<title>Node199</title>
<g id="a_node50"><a xlink:href="c__m3d__g__cir_8cpp.html" target="_top" xlink:title=" ">
<polygon fill="white" stroke="#666666" points="2165,-426 2031,-426 2031,-396 2165,-396 2165,-426"/>
<text text-anchor="start" x="2039" y="-414" font-family="Helvetica,sans-Serif" font-size="10.00">libs/SSystem/SComponent</text>
<text text-anchor="middle" x="2098" y="-403" font-family="Helvetica,sans-Serif" font-size="10.00">/c_m3d_g_cir.cpp</text>
</a>
</g>
</g>
<!-- Node1&#45;&gt;Node199 -->
<g id="edge70" class="edge">
<title>Node1&#45;&gt;Node199</title>
<path fill="none" stroke="#63b8ff" d="M2052.62,-454.09C2062.59,-444.85 2073.89,-434.36 2082.73,-426.16"/>
<polygon fill="#63b8ff" stroke="#63b8ff" points="2050.37,-451.4 2045.42,-460.77 2055.13,-456.53 2050.37,-451.4"/>
</g>
<!-- Node3 -->
<g id="node3" class="node">
<title>Node3</title>
<g id="a_node3"><a xlink:href="d__a__alink_8h.html" target="_top" xlink:title=" ">
<polygon fill="white" stroke="#666666" points="295,-222.5 179,-222.5 179,-203.5 295,-203.5 295,-222.5"/>
<text text-anchor="middle" x="237" y="-210.5" font-family="Helvetica,sans-Serif" font-size="10.00">include/d/a/d_a_alink.h</text>
</a>
</g>
</g>
<!-- Node2&#45;&gt;Node3 -->
<g id="edge2" class="edge">
<title>Node2&#45;&gt;Node3</title>
<path fill="none" stroke="#63b8ff" d="M1897.09,-408.5C1697.24,-403.01 1066.86,-379.61 553,-294 445.26,-276.05 320.37,-239.7 265.42,-222.89"/>
<polygon fill="#63b8ff" stroke="#63b8ff" points="1896.91,-412 1907,-408.77 1897.1,-405 1896.91,-412"/>
</g>
<!-- Node12 -->
<g id="node12" class="node">
<title>Node12</title>
<g id="a_node12"><a xlink:href="d__a__itembase_8h.html" target="_top" xlink:title=" ">
<polygon fill="white" stroke="#666666" points="1613.5,-354.5 1478.5,-354.5 1478.5,-335.5 1613.5,-335.5 1613.5,-354.5"/>
<text text-anchor="middle" x="1546" y="-342.5" font-family="Helvetica,sans-Serif" font-size="10.00">include/d/a/d_a_itembase.h</text>
</a>
</g>
</g>
<!-- Node2&#45;&gt;Node12 -->
<g id="edge11" class="edge">
<title>Node2&#45;&gt;Node12</title>
<path fill="none" stroke="#63b8ff" d="M1897.5,-400.21C1817.62,-387.89 1681.59,-366.91 1604.26,-354.99"/>
<polygon fill="#63b8ff" stroke="#63b8ff" points="1896.95,-403.66 1907.36,-401.73 1898.01,-396.75 1896.95,-403.66"/>
</g>
<!-- Node82 -->
<g id="node35" class="node">
<title>Node82</title>
<g id="a_node35"><a xlink:href="d__a__obj__carry_8h.html" target="_top" xlink:title=" ">
<polygon fill="white" stroke="#666666" points="2058,-162 1942,-162 1942,-121 2058,-121 2058,-162"/>
<text text-anchor="start" x="1950" y="-150" font-family="Helvetica,sans-Serif" font-size="10.00">include/rel/d/a/obj</text>
<text text-anchor="start" x="1950" y="-139" font-family="Helvetica,sans-Serif" font-size="10.00">/d_a_obj_carry/d_a_obj</text>
<text text-anchor="middle" x="2000" y="-128" font-family="Helvetica,sans-Serif" font-size="10.00">_carry.h</text>
</a>
</g>
</g>
<!-- Node2&#45;&gt;Node82 -->
<g id="edge68" class="edge">
<title>Node2&#45;&gt;Node82</title>
<path fill="none" stroke="#63b8ff" d="M1926.15,-388.83C1916.51,-381.07 1907.26,-371.36 1902,-360 1896.03,-347.12 1896.46,-287.07 1905,-264 1920.24,-222.82 1954.94,-184.54 1977.92,-162.34"/>
<polygon fill="#63b8ff" stroke="#63b8ff" points="1924.06,-391.64 1934.18,-394.77 1928.22,-386.01 1924.06,-391.64"/>
</g>
<!-- Node192 -->
<g id="node42" class="node">
<title>Node192</title>
<g id="a_node42"><a xlink:href="d__bomb_8h.html" target="_top" xlink:title=" ">
<polygon fill="white" stroke="#666666" points="2011.5,-354.5 1910.5,-354.5 1910.5,-335.5 2011.5,-335.5 2011.5,-354.5"/>
<text text-anchor="middle" x="1961" y="-342.5" font-family="Helvetica,sans-Serif" font-size="10.00">include/d/d_bomb.h</text>
</a>
</g>
</g>
<!-- Node2&#45;&gt;Node192 -->
<g id="edge55" class="edge">
<title>Node2&#45;&gt;Node192</title>
<path fill="none" stroke="#63b8ff" d="M1961,-384.59C1961,-374.06 1961,-362.53 1961,-354.84"/>
<polygon fill="#63b8ff" stroke="#63b8ff" points="1957.5,-384.28 1961,-394.28 1964.5,-384.28 1957.5,-384.28"/>
</g>
<!-- Node194 -->
<g id="node44" class="node">
<title>Node194</title>
<g id="a_node44"><a xlink:href="d__a__boomerang_8h.html" target="_top" xlink:title=" ">
<polygon fill="white" stroke="#666666" points="225.5,-360 76.5,-360 76.5,-330 225.5,-330 225.5,-360"/>
<text text-anchor="start" x="84.5" y="-348" font-family="Helvetica,sans-Serif" font-size="10.00">include/rel/d/a/d_a</text>
<text text-anchor="middle" x="151" y="-337" font-family="Helvetica,sans-Serif" font-size="10.00">_boomerang/d_a_boomerang.h</text>
</a>
</g>
</g>
<!-- Node2&#45;&gt;Node194 -->
<g id="edge58" class="edge">
<title>Node2&#45;&gt;Node194</title>
<path fill="none" stroke="#63b8ff" d="M1897.39,-408.22C1689.2,-402.34 1009.23,-382.58 447,-360 371.69,-356.98 285.64,-352.83 225.8,-349.83"/>
<polygon fill="#63b8ff" stroke="#63b8ff" points="1897.09,-411.72 1907.18,-408.5 1897.28,-404.72 1897.09,-411.72"/>
</g>
<!-- Node195 -->
<g id="node45" class="node">
<title>Node195</title>
<g id="a_node45"><a xlink:href="d__a__canoe_8h.html" target="_top" xlink:title=" ">
<polygon fill="white" stroke="#666666" points="2136,-360 2030,-360 2030,-330 2136,-330 2136,-360"/>
<text text-anchor="start" x="2038" y="-348" font-family="Helvetica,sans-Serif" font-size="10.00">include/rel/d/a/d_a</text>
<text text-anchor="middle" x="2083" y="-337" font-family="Helvetica,sans-Serif" font-size="10.00">_canoe/d_a_canoe.h</text>
</a>
</g>
</g>
<!-- Node2&#45;&gt;Node195 -->
<g id="edge60" class="edge">
<title>Node2&#45;&gt;Node195</title>
<path fill="none" stroke="#63b8ff" d="M1998.52,-390.32C2016.99,-380.63 2038.86,-369.16 2055.71,-360.31"/>
<polygon fill="#63b8ff" stroke="#63b8ff" points="1996.95,-387.19 1989.72,-394.93 2000.2,-393.39 1996.95,-387.19"/>
</g>
<!-- Node196 -->
<g id="node46" class="node">
<title>Node196</title>
<g id="a_node46"><a xlink:href="d__a__cstatue_8h.html" target="_top" xlink:title=" ">
<polygon fill="white" stroke="#666666" points="2272,-360 2154,-360 2154,-330 2272,-330 2272,-360"/>
<text text-anchor="start" x="2162" y="-348" font-family="Helvetica,sans-Serif" font-size="10.00">include/rel/d/a/d_a</text>
<text text-anchor="middle" x="2213" y="-337" font-family="Helvetica,sans-Serif" font-size="10.00">_cstatue/d_a_cstatue.h</text>
</a>
</g>
</g>
<!-- Node2&#45;&gt;Node196 -->
<g id="edge61" class="edge">
<title>Node2&#45;&gt;Node196</title>
<path fill="none" stroke="#63b8ff" d="M2024.3,-393.92C2064.78,-383.64 2116.84,-370.42 2156.03,-360.47"/>
<polygon fill="#63b8ff" stroke="#63b8ff" points="2023.51,-390.51 2014.68,-396.37 2025.24,-397.3 2023.51,-390.51"/>
</g>
<!-- Node197 -->
<g id="node47" class="node">
<title>Node197</title>
<g id="a_node47"><a xlink:href="d__a__horse_8h.html" target="_top" xlink:title=" ">
<polygon fill="white" stroke="#666666" points="2630.5,-228 2529.5,-228 2529.5,-198 2630.5,-198 2630.5,-228"/>
<text text-anchor="start" x="2537.5" y="-216" font-family="Helvetica,sans-Serif" font-size="10.00">include/rel/d/a/d_a</text>
<text text-anchor="middle" x="2580" y="-205" font-family="Helvetica,sans-Serif" font-size="10.00">_horse/d_a_horse.h</text>
</a>
</g>
</g>
<!-- Node2&#45;&gt;Node197 -->
<g id="edge62" class="edge">
<title>Node2&#45;&gt;Node197</title>
<path fill="none" stroke="#63b8ff" d="M2024.48,-395.73C2138.71,-376.78 2177.17,-403.52 2281,-360 2301.17,-351.55 2301.22,-341.2 2320,-330 2394.08,-285.83 2487.97,-247.98 2540.25,-228.35"/>
<polygon fill="#63b8ff" stroke="#63b8ff" points="2023.92,-392.27 2014.67,-397.45 2025.13,-399.17 2023.92,-392.27"/>
</g>
<!-- Node198 -->
<g id="node49" class="node">
<title>Node198</title>
<g id="a_node49"><a xlink:href="d__bg__s__acch_8cpp.html" target="_top" xlink:title=" ">
<polygon fill="white" stroke="#666666" points="2459.5,-354.5 2328.5,-354.5 2328.5,-335.5 2459.5,-335.5 2459.5,-354.5"/>
<text text-anchor="middle" x="2394" y="-342.5" font-family="Helvetica,sans-Serif" font-size="10.00">src/d/bg/d_bg_s_acch.cpp</text>
</a>
</g>
</g>
<!-- Node2&#45;&gt;Node198 -->
<g id="edge69" class="edge">
<title>Node2&#45;&gt;Node198</title>
<path fill="none" stroke="#63b8ff" d="M2024.23,-395.73C2152.71,-373.65 2188.2,-378.75 2314,-360 2324.04,-358.5 2334.76,-356.74 2344.99,-354.98"/>
<polygon fill="#63b8ff" stroke="#63b8ff" points="2023.91,-392.23 2014.66,-397.39 2025.11,-399.13 2023.91,-392.23"/>
</g>
<!-- Node4 -->
<g id="node4" class="node">
<title>Node4</title>
<g id="a_node4"><a xlink:href="d__a__alink_8cpp.html" target="_top" xlink:title=" ">
<polygon fill="white" stroke="#666666" points="2103.5,-19 1994.5,-19 1994.5,0 2103.5,0 2103.5,-19"/>
<text text-anchor="middle" x="2049" y="-7" font-family="Helvetica,sans-Serif" font-size="10.00">src/d/a/d_a_alink.cpp</text>
</a>
</g>
</g>
<!-- Node3&#45;&gt;Node4 -->
<g id="edge3" class="edge">
<title>Node3&#45;&gt;Node4</title>
<path fill="none" stroke="#63b8ff" d="M217.92,-195.64C183.95,-164.65 120.21,-96.76 161,-55 193.88,-21.34 1686.78,-12.26 1994.06,-10.75"/>
<polygon fill="#63b8ff" stroke="#63b8ff" points="215.29,-197.99 225.09,-202.02 219.94,-192.75 215.29,-197.99"/>
</g>
<!-- Node5 -->
<g id="node5" class="node">
<title>Node5</title>
<g id="a_node5"><a xlink:href="d__a__player_8cpp.html" target="_top" xlink:title=" ">
<polygon fill="white" stroke="#666666" points="114,-151 0,-151 0,-132 114,-132 114,-151"/>
<text text-anchor="middle" x="57" y="-139" font-family="Helvetica,sans-Serif" font-size="10.00">src/d/a/d_a_player.cpp</text>
</a>
</g>
</g>
<!-- Node3&#45;&gt;Node5 -->
<g id="edge4" class="edge">
<title>Node3&#45;&gt;Node5</title>
<path fill="none" stroke="#63b8ff" d="M203.37,-199.02C167.41,-185.13 111.35,-163.49 80.07,-151.41"/>
<polygon fill="#63b8ff" stroke="#63b8ff" points="201.84,-202.17 212.42,-202.51 204.36,-195.64 201.84,-202.17"/>
</g>
<!-- Node6 -->
<g id="node6" class="node">
<title>Node6</title>
<g id="a_node6"><a xlink:href="d__com__inf__game_8cpp.html" target="_top" xlink:title=" ">
<polygon fill="white" stroke="#666666" points="688,-156.5 580,-156.5 580,-126.5 688,-126.5 688,-156.5"/>
<text text-anchor="start" x="588" y="-144.5" font-family="Helvetica,sans-Serif" font-size="10.00">src/d/com/d_com_inf</text>
<text text-anchor="middle" x="634" y="-133.5" font-family="Helvetica,sans-Serif" font-size="10.00">_game.cpp</text>
</a>
</g>
</g>
<!-- Node3&#45;&gt;Node6 -->
<g id="edge5" class="edge">
<title>Node3&#45;&gt;Node6</title>
<path fill="none" stroke="#63b8ff" d="M288.8,-200.79C293.92,-199.8 299.06,-198.85 304,-198 421.58,-177.79 453.45,-187.47 570,-162 576.47,-160.59 583.23,-158.84 589.83,-156.97"/>
<polygon fill="#63b8ff" stroke="#63b8ff" points="288.26,-197.33 279.14,-202.72 289.63,-204.2 288.26,-197.33"/>
</g>
<!-- Node7 -->
<g id="node7" class="node">
<title>Node7</title>
<g id="a_node7"><a xlink:href="d__camera_8cpp.html" target="_top" xlink:title=" ">
<polygon fill="white" stroke="#666666" points="424,-151 322,-151 322,-132 424,-132 424,-151"/>
<text text-anchor="middle" x="373" y="-139" font-family="Helvetica,sans-Serif" font-size="10.00">src/d/d_camera.cpp</text>
</a>
</g>
</g>
<!-- Node3&#45;&gt;Node7 -->
<g id="edge6" class="edge">
<title>Node3&#45;&gt;Node7</title>
<path fill="none" stroke="#63b8ff" d="M264.55,-197.92C291.76,-184.02 332.55,-163.17 355.57,-151.41"/>
<polygon fill="#63b8ff" stroke="#63b8ff" points="263.16,-194.7 255.85,-202.37 266.35,-200.93 263.16,-194.7"/>
</g>
<!-- Node8 -->
<g id="node8" class="node">
<title>Node8</title>
<g id="a_node8"><a xlink:href="d__event_8cpp.html" target="_top" xlink:title=" ">
<polygon fill="white" stroke="#666666" points="570.5,-79.5 449.5,-79.5 449.5,-60.5 570.5,-60.5 570.5,-79.5"/>
<text text-anchor="middle" x="510" y="-67.5" font-family="Helvetica,sans-Serif" font-size="10.00">src/d/event/d_event.cpp</text>
</a>
</g>
</g>
<!-- Node3&#45;&gt;Node8 -->
<g id="edge7" class="edge">
<title>Node3&#45;&gt;Node8</title>
<path fill="none" stroke="#63b8ff" d="M240.99,-192.06C246.24,-171.13 257.58,-138.82 280,-121 283.68,-118.08 400.89,-93.52 466.53,-79.95"/>
<polygon fill="#63b8ff" stroke="#63b8ff" points="237.61,-191.14 238.84,-201.66 244.44,-192.67 237.61,-191.14"/>
</g>
<!-- Node9 -->
<g id="node9" class="node">
<title>Node9</title>
<g id="a_node9"><a xlink:href="d__meter2__draw_8cpp.html" target="_top" xlink:title=" ">
<polygon fill="white" stroke="#666666" points="280,-85 170,-85 170,-55 280,-55 280,-85"/>
<text text-anchor="start" x="178" y="-73" font-family="Helvetica,sans-Serif" font-size="10.00">src/d/meter/d_meter2</text>
<text text-anchor="middle" x="225" y="-62" font-family="Helvetica,sans-Serif" font-size="10.00">_draw.cpp</text>
</a>
</g>
</g>
<!-- Node3&#45;&gt;Node9 -->
<g id="edge8" class="edge">
<title>Node3&#45;&gt;Node9</title>
<path fill="none" stroke="#63b8ff" d="M221.82,-194.55C214.94,-185.49 207.56,-173.85 204,-162 198.76,-144.55 200.4,-138.86 204,-121 206.53,-108.45 212.3,-95.12 217.15,-85.39"/>
<polygon fill="#63b8ff" stroke="#63b8ff" points="218.91,-196.52 227.93,-202.08 224.34,-192.11 218.91,-196.52"/>
</g>
<!-- Node10 -->
<g id="node10" class="node">
<title>Node10</title>
<g id="a_node10"><a xlink:href="d__msg__flow_8cpp.html" target="_top" xlink:title=" ">
<polygon fill="white" stroke="#666666" points="431.5,-79.5 298.5,-79.5 298.5,-60.5 431.5,-60.5 431.5,-79.5"/>
<text text-anchor="middle" x="365" y="-67.5" font-family="Helvetica,sans-Serif" font-size="10.00">src/d/msg/d_msg_flow.cpp</text>
</a>
</g>
</g>
<!-- Node3&#45;&gt;Node10 -->
<g id="edge9" class="edge">
<title>Node3&#45;&gt;Node10</title>
<path fill="none" stroke="#63b8ff" d="M232.42,-192.17C229.03,-172.28 227.23,-141.7 242,-121 257.53,-99.23 284.24,-86.93 308.81,-79.98"/>
<polygon fill="#63b8ff" stroke="#63b8ff" points="228.95,-192.65 234.36,-201.76 235.81,-191.26 228.95,-192.65"/>
</g>
<!-- Node11 -->
<g id="node11" class="node">
<title>Node11</title>
<g id="a_node11"><a xlink:href="f__op__actor_8cpp.html" target="_top" xlink:title=" ">
<polygon fill="white" stroke="#666666" points="561.5,-151 442.5,-151 442.5,-132 561.5,-132 561.5,-151"/>
<text text-anchor="middle" x="502" y="-139" font-family="Helvetica,sans-Serif" font-size="10.00">src/f_op/f_op_actor.cpp</text>
</a>
</g>
</g>
<!-- Node3&#45;&gt;Node11 -->
<g id="edge10" class="edge">
<title>Node3&#45;&gt;Node11</title>
<path fill="none" stroke="#63b8ff" d="M284.15,-200.33C323.9,-190.41 382.27,-175.64 433,-162 445.5,-158.64 459.23,-154.79 471.13,-151.41"/>
<polygon fill="#63b8ff" stroke="#63b8ff" points="283.52,-196.88 274.67,-202.7 285.22,-203.67 283.52,-196.88"/>
</g>
<!-- Node13 -->
<g id="node13" class="node">
<title>Node13</title>
<g id="a_node13"><a xlink:href="d__a__item__static_8h.html" target="_top" xlink:title=" ">
<polygon fill="white" stroke="#666666" points="669.5,-294 562.5,-294 562.5,-264 669.5,-264 669.5,-294"/>
<text text-anchor="start" x="570.5" y="-282" font-family="Helvetica,sans-Serif" font-size="10.00">include/d/a/d_a_item</text>
<text text-anchor="middle" x="616" y="-271" font-family="Helvetica,sans-Serif" font-size="10.00">_static.h</text>
</a>
</g>
</g>
<!-- Node12&#45;&gt;Node13 -->
<g id="edge12" class="edge">
<title>Node12&#45;&gt;Node13</title>
<path fill="none" stroke="#63b8ff" d="M1467.14,-338.57C1282.65,-325.88 826.68,-294.5 669.94,-283.71"/>
<polygon fill="#63b8ff" stroke="#63b8ff" points="1466.64,-342.05 1476.86,-339.24 1467.12,-335.06 1466.64,-342.05"/>
</g>
<!-- Node18 -->
<g id="node18" class="node">
<title>Node18</title>
<g id="a_node18"><a xlink:href="d__a__shop__item__static_8h.html" target="_top" xlink:title=" ">
<polygon fill="white" stroke="#666666" points="1669.5,-294 1560.5,-294 1560.5,-264 1669.5,-264 1669.5,-294"/>
<text text-anchor="start" x="1568.5" y="-282" font-family="Helvetica,sans-Serif" font-size="10.00">include/d/a/d_a_shop</text>
<text text-anchor="middle" x="1615" y="-271" font-family="Helvetica,sans-Serif" font-size="10.00">_item_static.h</text>
</a>
</g>
</g>
<!-- Node12&#45;&gt;Node18 -->
<g id="edge17" class="edge">
<title>Node12&#45;&gt;Node18</title>
<path fill="none" stroke="#63b8ff" d="M1563.99,-327.31C1574.98,-317.12 1588.88,-304.23 1599.39,-294.48"/>
<polygon fill="#63b8ff" stroke="#63b8ff" points="1561.66,-324.71 1556.7,-334.07 1566.42,-329.84 1561.66,-324.71"/>
</g>
<!-- Node22 -->
<g id="node22" class="node">
<title>Node22</title>
<g id="a_node22"><a xlink:href="d__event_8h.html" target="_top" xlink:title=" ">
<polygon fill="white" stroke="#666666" points="1508,-288.5 1380,-288.5 1380,-269.5 1508,-269.5 1508,-288.5"/>
<text text-anchor="middle" x="1444" y="-276.5" font-family="Helvetica,sans-Serif" font-size="10.00">include/d/event/d_event.h</text>
</a>
</g>
</g>
<!-- Node12&#45;&gt;Node22 -->
<g id="edge21" class="edge">
<title>Node12&#45;&gt;Node22</title>
<path fill="none" stroke="#63b8ff" d="M1522.22,-329.08C1502.33,-316.6 1474.6,-299.2 1458.06,-288.82"/>
<polygon fill="#63b8ff" stroke="#63b8ff" points="1520.2,-331.95 1530.54,-334.3 1523.92,-326.02 1520.2,-331.95"/>
</g>
<!-- Node131 -->
<g id="node39" class="node">
<title>Node131</title>
<g id="a_node39"><a xlink:href="d__a__itembase_8cpp.html" target="_top" xlink:title=" ">
<polygon fill="white" stroke="#666666" points="1924,-151 1796,-151 1796,-132 1924,-132 1924,-151"/>
<text text-anchor="middle" x="1860" y="-139" font-family="Helvetica,sans-Serif" font-size="10.00">src/d/a/d_a_itembase.cpp</text>
</a>
</g>
</g>
<!-- Node12&#45;&gt;Node131 -->
<g id="edge53" class="edge">
<title>Node12&#45;&gt;Node131</title>
<path fill="none" stroke="#63b8ff" d="M1588.45,-331.53C1615.27,-322.81 1650.18,-309.9 1679,-294 1754.34,-252.42 1827.87,-177.11 1851.87,-151.39"/>
<polygon fill="#63b8ff" stroke="#63b8ff" points="1587.41,-328.19 1578.93,-334.55 1589.52,-334.86 1587.41,-328.19"/>
</g>
<!-- Node191 -->
<g id="node41" class="node">
<title>Node191</title>
<g id="a_node41"><a xlink:href="d__a__itembase__static_8cpp.html" target="_top" xlink:title=" ">
<polygon fill="white" stroke="#666666" points="1362,-294 1252,-294 1252,-264 1362,-264 1362,-294"/>
<text text-anchor="start" x="1260" y="-282" font-family="Helvetica,sans-Serif" font-size="10.00">src/d/a/d_a_itembase</text>
<text text-anchor="middle" x="1307" y="-271" font-family="Helvetica,sans-Serif" font-size="10.00">_static.cpp</text>
</a>
</g>
</g>
<!-- Node12&#45;&gt;Node191 -->
<g id="edge54" class="edge">
<title>Node12&#45;&gt;Node191</title>
<path fill="none" stroke="#63b8ff" d="M1501.57,-332.1C1461.8,-321.45 1403.38,-305.81 1360.94,-294.45"/>
<polygon fill="#63b8ff" stroke="#63b8ff" points="1500.49,-335.44 1511.05,-334.64 1502.3,-328.67 1500.49,-335.44"/>
</g>
<!-- Node14 -->
<g id="node14" class="node">
<title>Node14</title>
<g id="a_node14"><a xlink:href="d__a__obj__item_8h.html" target="_top" xlink:title=" ">
<polygon fill="white" stroke="#666666" points="782.5,-228 681.5,-228 681.5,-198 782.5,-198 782.5,-228"/>
<text text-anchor="start" x="689.5" y="-216" font-family="Helvetica,sans-Serif" font-size="10.00">include/d/a/d_a_obj</text>
<text text-anchor="middle" x="732" y="-205" font-family="Helvetica,sans-Serif" font-size="10.00">_item.h</text>
</a>
</g>
</g>
<!-- Node13&#45;&gt;Node14 -->
<g id="edge13" class="edge">
<title>Node13&#45;&gt;Node14</title>
<path fill="none" stroke="#63b8ff" d="M651.92,-258.18C669.43,-248.52 690.1,-237.12 706.05,-228.31"/>
<polygon fill="#63b8ff" stroke="#63b8ff" points="650.42,-255.01 643.36,-262.91 653.8,-261.14 650.42,-255.01"/>
</g>
<!-- Node16 -->
<g id="node16" class="node">
<title>Node16</title>
<g id="a_node16"><a xlink:href="d__a__do_8h.html" target="_top" xlink:title=" ">
<polygon fill="white" stroke="#666666" points="565,-228 469,-228 469,-198 565,-198 565,-228"/>
<text text-anchor="start" x="477" y="-216" font-family="Helvetica,sans-Serif" font-size="10.00">include/rel/d/a/d_a</text>
<text text-anchor="middle" x="517" y="-205" font-family="Helvetica,sans-Serif" font-size="10.00">_do/d_a_do.h</text>
</a>
</g>
</g>
<!-- Node13&#45;&gt;Node16 -->
<g id="edge15" class="edge">
<title>Node13&#45;&gt;Node16</title>
<path fill="none" stroke="#63b8ff" d="M584.75,-257.8C569.97,-248.24 552.67,-237.06 539.25,-228.39"/>
<polygon fill="#63b8ff" stroke="#63b8ff" points="582.46,-260.48 592.76,-262.97 586.26,-254.61 582.46,-260.48"/>
</g>
<!-- Node17 -->
<g id="node17" class="node">
<title>Node17</title>
<g id="a_node17"><a xlink:href="d__a__item__static_8cpp.html" target="_top" xlink:title=" ">
<polygon fill="white" stroke="#666666" points="450.5,-222.5 313.5,-222.5 313.5,-203.5 450.5,-203.5 450.5,-222.5"/>
<text text-anchor="middle" x="382" y="-210.5" font-family="Helvetica,sans-Serif" font-size="10.00">src/d/a/d_a_item_static.cpp</text>
</a>
</g>
</g>
<!-- Node13&#45;&gt;Node17 -->
<g id="edge16" class="edge">
<title>Node13&#45;&gt;Node17</title>
<path fill="none" stroke="#63b8ff" d="M552.19,-260.55C507.73,-248.39 450.25,-232.67 414.77,-222.96"/>
<polygon fill="#63b8ff" stroke="#63b8ff" points="551.17,-263.9 561.73,-263.16 553.01,-257.14 551.17,-263.9"/>
</g>
<!-- Node15 -->
<g id="node15" class="node">
<title>Node15</title>
<g id="a_node15"><a xlink:href="d__a__obj__item_8cpp.html" target="_top" xlink:title=" ">
<polygon fill="white" stroke="#666666" points="831.5,-151 706.5,-151 706.5,-132 831.5,-132 831.5,-151"/>
<text text-anchor="middle" x="769" y="-139" font-family="Helvetica,sans-Serif" font-size="10.00">src/d/a/d_a_obj_item.cpp</text>
</a>
</g>
</g>
<!-- Node14&#45;&gt;Node15 -->
<g id="edge14" class="edge">
<title>Node14&#45;&gt;Node15</title>
<path fill="none" stroke="#63b8ff" d="M744.99,-187.61C751.73,-174.94 759.54,-160.27 764.38,-151.18"/>
<polygon fill="#63b8ff" stroke="#63b8ff" points="741.99,-185.79 740.38,-196.26 748.17,-189.08 741.99,-185.79"/>
</g>
<!-- Node19 -->
<g id="node19" class="node">
<title>Node19</title>
<g id="a_node19"><a xlink:href="d__a__shop__item__static_8cpp.html" target="_top" xlink:title=" ">
<polygon fill="white" stroke="#666666" points="1740,-228 1624,-228 1624,-198 1740,-198 1740,-228"/>
<text text-anchor="start" x="1632" y="-216" font-family="Helvetica,sans-Serif" font-size="10.00">src/d/a/d_a_shop_item</text>
<text text-anchor="middle" x="1682" y="-205" font-family="Helvetica,sans-Serif" font-size="10.00">_static.cpp</text>
</a>
</g>
</g>
<!-- Node18&#45;&gt;Node19 -->
<g id="edge18" class="edge">
<title>Node18&#45;&gt;Node19</title>
<path fill="none" stroke="#63b8ff" d="M1637.94,-256.09C1647.61,-246.85 1658.59,-236.36 1667.17,-228.16"/>
<polygon fill="#63b8ff" stroke="#63b8ff" points="1635.78,-253.31 1630.96,-262.75 1640.61,-258.37 1635.78,-253.31"/>
</g>
<!-- Node20 -->
<g id="node20" class="node">
<title>Node20</title>
<g id="a_node20"><a xlink:href="d__shop__item__ctrl_8cpp.html" target="_top" xlink:title=" ">
<polygon fill="white" stroke="#666666" points="1605.5,-228 1484.5,-228 1484.5,-198 1605.5,-198 1605.5,-228"/>
<text text-anchor="start" x="1492.5" y="-216" font-family="Helvetica,sans-Serif" font-size="10.00">src/d/shop/d_shop_item</text>
<text text-anchor="middle" x="1545" y="-205" font-family="Helvetica,sans-Serif" font-size="10.00">_ctrl.cpp</text>
</a>
</g>
</g>
<!-- Node18&#45;&gt;Node20 -->
<g id="edge19" class="edge">
<title>Node18&#45;&gt;Node20</title>
<path fill="none" stroke="#63b8ff" d="M1591.03,-256.09C1580.93,-246.85 1569.46,-236.36 1560.49,-228.16"/>
<polygon fill="#63b8ff" stroke="#63b8ff" points="1588.61,-258.61 1598.35,-262.78 1593.33,-253.44 1588.61,-258.61"/>
</g>
<!-- Node21 -->
<g id="node21" class="node">
<title>Node21</title>
<g id="a_node21"><a xlink:href="d__shop__system_8cpp.html" target="_top" xlink:title=" ">
<polygon fill="white" stroke="#666666" points="1511,-79.5 1359,-79.5 1359,-60.5 1511,-60.5 1511,-79.5"/>
<text text-anchor="middle" x="1435" y="-67.5" font-family="Helvetica,sans-Serif" font-size="10.00">src/d/shop/d_shop_system.cpp</text>
</a>
</g>
</g>
<!-- Node18&#45;&gt;Node21 -->
<g id="edge20" class="edge">
<title>Node18&#45;&gt;Node21</title>
<path fill="none" stroke="#63b8ff" d="M1680.67,-269.7C1706.37,-262.88 1733.39,-250.49 1749,-228 1773.16,-193.2 1723.58,-130.48 1711,-121 1680.18,-97.77 1581.72,-84.14 1511.2,-77.13"/>
<polygon fill="#63b8ff" stroke="#63b8ff" points="1680.16,-266.22 1671.24,-271.95 1681.78,-273.03 1680.16,-266.22"/>
</g>
<!-- Node22&#45;&gt;Node8 -->
<g id="edge52" class="edge">
<title>Node22&#45;&gt;Node8</title>
<path fill="none" stroke="#63b8ff" d="M1391.21,-266.98C1384.43,-265.83 1377.57,-264.79 1371,-264 1062.18,-226.62 978.37,-281.93 672,-228 627.14,-220.1 618.48,-207.81 574,-198 516.82,-185.39 351.47,-206.14 313,-162 301.03,-148.26 301.81,-135.38 313,-121 317.87,-114.73 413.29,-92.56 469.51,-79.95"/>
<polygon fill="#63b8ff" stroke="#63b8ff" points="1390.51,-270.42 1400.97,-268.74 1391.75,-263.53 1390.51,-270.42"/>
</g>
<!-- Node23 -->
<g id="node23" class="node">
<title>Node23</title>
<g id="a_node23"><a xlink:href="d__com__inf__game_8h.html" target="_top" xlink:title=" ">
<polygon fill="#fff0f0" stroke="red" points="1466,-228 1356,-228 1356,-198 1466,-198 1466,-228"/>
<text text-anchor="start" x="1364" y="-216" font-family="Helvetica,sans-Serif" font-size="10.00">include/d/com/d_com</text>
<text text-anchor="middle" x="1411" y="-205" font-family="Helvetica,sans-Serif" font-size="10.00">_inf_game.h</text>
</a>
</g>
</g>
<!-- Node22&#45;&gt;Node23 -->
<g id="edge22" class="edge">
<title>Node22&#45;&gt;Node23</title>
<path fill="none" stroke="#63b8ff" d="M1434.23,-259.06C1429.14,-249.19 1423.02,-237.31 1418.34,-228.23"/>
<polygon fill="#63b8ff" stroke="#63b8ff" points="1431.02,-260.47 1438.72,-267.76 1437.25,-257.26 1431.02,-260.47"/>
</g>
<!-- Node23&#45;&gt;Node6 -->
<g id="edge48" class="edge">
<title>Node23&#45;&gt;Node6</title>
<path fill="none" stroke="#63b8ff" d="M1344.38,-212.42C1217.33,-212.1 932.11,-206.01 697,-162 690.14,-160.71 682.96,-158.94 676.02,-156.97"/>
<polygon fill="#63b8ff" stroke="#63b8ff" points="1344.3,-215.92 1354.3,-212.43 1344.3,-208.92 1344.3,-215.92"/>
</g>
<!-- Node23&#45;&gt;Node7 -->
<g id="edge49" class="edge">
<title>Node23&#45;&gt;Node7</title>
<path fill="none" stroke="#63b8ff" d="M1344.23,-210.87C1153.45,-207.28 608.42,-194.4 433,-162 420.4,-159.67 406.78,-155.4 395.71,-151.44"/>
<polygon fill="#63b8ff" stroke="#63b8ff" points="1344.16,-214.37 1354.23,-211.06 1344.29,-207.37 1344.16,-214.37"/>
</g>
<!-- Node23&#45;&gt;Node11 -->
<g id="edge51" class="edge">
<title>Node23&#45;&gt;Node11</title>
<path fill="none" stroke="#63b8ff" d="M1344.87,-212.89C1202.35,-213.75 856.06,-210.18 571,-162 556.76,-159.59 541.26,-155.36 528.56,-151.46"/>
<polygon fill="#63b8ff" stroke="#63b8ff" points="1344.51,-216.39 1354.48,-212.82 1344.46,-209.39 1344.51,-216.39"/>
</g>
<!-- Node23&#45;&gt;Node15 -->
<g id="edge46" class="edge">
<title>Node23&#45;&gt;Node15</title>
<path fill="none" stroke="#63b8ff" d="M1344.3,-209.97C1237.36,-205.87 1021.24,-194.05 841,-162 826.46,-159.42 810.6,-155.27 797.47,-151.46"/>
<polygon fill="#63b8ff" stroke="#63b8ff" points="1343.91,-213.46 1354.04,-210.34 1344.17,-206.47 1343.91,-213.46"/>
</g>
<!-- Node24 -->
<g id="node24" class="node">
<title>Node24</title>
<g id="a_node24"><a xlink:href="d__a__npc_8h.html" target="_top" xlink:title=" ">
<polygon fill="#fff0f0" stroke="red" points="1210.5,-151 1099.5,-151 1099.5,-132 1210.5,-132 1210.5,-151"/>
<text text-anchor="middle" x="1155" y="-139" font-family="Helvetica,sans-Serif" font-size="10.00">include/d/a/d_a_npc.h</text>
</a>
</g>
</g>
<!-- Node23&#45;&gt;Node24 -->
<g id="edge23" class="edge">
<title>Node23&#45;&gt;Node24</title>
<path fill="none" stroke="#63b8ff" d="M1344.6,-195.23C1307.8,-185.79 1261.27,-173.59 1220,-162 1208.2,-158.69 1195.26,-154.85 1184.06,-151.46"/>
<polygon fill="#63b8ff" stroke="#63b8ff" points="1343.67,-198.61 1354.23,-197.7 1345.41,-191.83 1343.67,-198.61"/>
</g>
<!-- Node29 -->
<g id="node25" class="node">
<title>Node29</title>
<g id="a_node25"><a xlink:href="d__cc__uty_8h.html" target="_top" xlink:title=" ">
<polygon fill="#fff0f0" stroke="red" points="2195.5,-151 2076.5,-151 2076.5,-132 2195.5,-132 2195.5,-151"/>
<text text-anchor="middle" x="2136" y="-139" font-family="Helvetica,sans-Serif" font-size="10.00">include/d/cc/d_cc_uty.h</text>
</a>
</g>
</g>
<!-- Node23&#45;&gt;Node29 -->
<g id="edge24" class="edge">
<title>Node23&#45;&gt;Node29</title>
<path fill="none" stroke="#63b8ff" d="M1477.59,-197.98C1738.75,-163.42 1811.23,-205.41 2067,-162 2081.24,-159.58 2096.74,-155.35 2109.44,-151.45"/>
<polygon fill="#63b8ff" stroke="#63b8ff" points="1477.16,-194.5 1467.72,-199.31 1478.1,-201.44 1477.16,-194.5"/>
</g>
<!-- Node39 -->
<g id="node28" class="node">
<title>Node39</title>
<g id="a_node28"><a xlink:href="d__bright__check_8h.html" target="_top" xlink:title=" ">
<polygon fill="#fff0f0" stroke="red" points="1321.5,-156.5 1228.5,-156.5 1228.5,-126.5 1321.5,-126.5 1321.5,-156.5"/>
<text text-anchor="start" x="1236.5" y="-144.5" font-family="Helvetica,sans-Serif" font-size="10.00">include/d/d_bright</text>
<text text-anchor="middle" x="1275" y="-133.5" font-family="Helvetica,sans-Serif" font-size="10.00">_check.h</text>
</a>
</g>
</g>
<!-- Node23&#45;&gt;Node39 -->
<g id="edge28" class="edge">
<title>Node23&#45;&gt;Node39</title>
<path fill="none" stroke="#63b8ff" d="M1372.75,-192.46C1350.64,-181.15 1323.28,-167.17 1303.14,-156.88"/>
<polygon fill="#63b8ff" stroke="#63b8ff" points="1370.98,-195.48 1381.47,-196.91 1374.16,-189.24 1370.98,-195.48"/>
</g>
<!-- Node41 -->
<g id="node29" class="node">
<title>Node41</title>
<g id="a_node29"><a xlink:href="d__error__msg_8h.html" target="_top" xlink:title=" ">
<polygon fill="#fff0f0" stroke="red" points="1460,-151 1340,-151 1340,-132 1460,-132 1460,-151"/>
<text text-anchor="middle" x="1400" y="-139" font-family="Helvetica,sans-Serif" font-size="10.00">include/d/d_error_msg.h</text>
</a>
</g>
</g>
<!-- Node23&#45;&gt;Node41 -->
<g id="edge29" class="edge">
<title>Node23&#45;&gt;Node41</title>
<path fill="none" stroke="#63b8ff" d="M1406.96,-186.46C1405,-174.07 1402.77,-159.99 1401.37,-151.18"/>
<polygon fill="#63b8ff" stroke="#63b8ff" points="1403.46,-186.77 1408.48,-196.1 1410.38,-185.68 1403.46,-186.77"/>
</g>
<!-- Node44 -->
<g id="node30" class="node">
<title>Node44</title>
<g id="a_node30"><a xlink:href="d__file__select_8h.html" target="_top" xlink:title=" ">
<polygon fill="#fff0f0" stroke="red" points="1574,-156.5 1478,-156.5 1478,-126.5 1574,-126.5 1574,-156.5"/>
<text text-anchor="start" x="1486" y="-144.5" font-family="Helvetica,sans-Serif" font-size="10.00">include/d/file/d_file</text>
<text text-anchor="middle" x="1526" y="-133.5" font-family="Helvetica,sans-Serif" font-size="10.00">_select.h</text>
</a>
</g>
</g>
<!-- Node23&#45;&gt;Node44 -->
<g id="edge30" class="edge">
<title>Node23&#45;&gt;Node44</title>
<path fill="none" stroke="#63b8ff" d="M1444.62,-191.68C1463.09,-180.52 1485.56,-166.94 1502.2,-156.88"/>
<polygon fill="#63b8ff" stroke="#63b8ff" points="1442.87,-188.65 1436.12,-196.82 1446.49,-194.64 1442.87,-188.65"/>
</g>
<!-- Node46 -->
<g id="node31" class="node">
<title>Node46</title>
<g id="a_node31"><a xlink:href="d__msg__object_8h.html" target="_top" xlink:title=" ">
<polygon fill="#fff0f0" stroke="red" points="960,-156.5 850,-156.5 850,-126.5 960,-126.5 960,-156.5"/>
<text text-anchor="start" x="858" y="-144.5" font-family="Helvetica,sans-Serif" font-size="10.00">include/d/msg/d_msg</text>
<text text-anchor="middle" x="905" y="-133.5" font-family="Helvetica,sans-Serif" font-size="10.00">_object.h</text>
</a>
</g>
</g>
<!-- Node23&#45;&gt;Node46 -->
<g id="edge31" class="edge">
<title>Node23&#45;&gt;Node46</title>
<path fill="none" stroke="#63b8ff" d="M1344.23,-208.15C1257.33,-202.3 1101.12,-188.88 970,-162 963.31,-160.63 956.31,-158.88 949.49,-156.99"/>
<polygon fill="#63b8ff" stroke="#63b8ff" points="1343.78,-211.63 1353.99,-208.8 1344.24,-204.65 1343.78,-211.63"/>
</g>
<!-- Node66 -->
<g id="node32" class="node">
<title>Node66</title>
<g id="a_node32"><a xlink:href="d__a__andsw_8h.html" target="_top" xlink:title=" ">
<polygon fill="white" stroke="#666666" points="1702,-156.5 1592,-156.5 1592,-126.5 1702,-126.5 1702,-156.5"/>
<text text-anchor="start" x="1600" y="-144.5" font-family="Helvetica,sans-Serif" font-size="10.00">include/rel/d/a/d_a</text>
<text text-anchor="middle" x="1647" y="-133.5" font-family="Helvetica,sans-Serif" font-size="10.00">_andsw/d_a_andsw.h</text>
</a>
</g>
</g>
<!-- Node23&#45;&gt;Node66 -->
<g id="edge37" class="edge">
<title>Node23&#45;&gt;Node66</title>
<path fill="none" stroke="#63b8ff" d="M1472.28,-194.39C1505.14,-184.9 1546.31,-172.92 1583,-162 1588.45,-160.38 1594.17,-158.66 1599.84,-156.95"/>
<polygon fill="#63b8ff" stroke="#63b8ff" points="1471.57,-190.96 1462.93,-197.09 1473.51,-197.68 1471.57,-190.96"/>
</g>
<!-- Node67 -->
<g id="node33" class="node">
<title>Node67</title>
<g id="a_node33"><a xlink:href="d__a__cstaF_8h.html" target="_top" xlink:title=" ">
<polygon fill="white" stroke="#666666" points="1081.5,-156.5 978.5,-156.5 978.5,-126.5 1081.5,-126.5 1081.5,-156.5"/>
<text text-anchor="start" x="986.5" y="-144.5" font-family="Helvetica,sans-Serif" font-size="10.00">include/rel/d/a/d_a</text>
<text text-anchor="middle" x="1030" y="-133.5" font-family="Helvetica,sans-Serif" font-size="10.00">_cstaF/d_a_cstaF.h</text>
</a>
</g>
</g>
<!-- Node23&#45;&gt;Node67 -->
<g id="edge38" class="edge">
<title>Node23&#45;&gt;Node67</title>
<path fill="none" stroke="#63b8ff" d="M1344.25,-204.62C1279.11,-196.7 1177.47,-182.45 1091,-162 1084.94,-160.57 1078.61,-158.83 1072.43,-156.99"/>
<polygon fill="#63b8ff" stroke="#63b8ff" points="1343.73,-208.08 1354.07,-205.8 1344.56,-201.13 1343.73,-208.08"/>
</g>
<!-- Node81 -->
<g id="node34" class="node">
<title>Node81</title>
<g id="a_node34"><a xlink:href="d__a__obj__bombf_8h.html" target="_top" xlink:title=" ">
<polygon fill="white" stroke="#666666" points="2336,-162 2214,-162 2214,-121 2336,-121 2336,-162"/>
<text text-anchor="start" x="2222" y="-150" font-family="Helvetica,sans-Serif" font-size="10.00">include/rel/d/a/obj</text>
<text text-anchor="start" x="2222" y="-139" font-family="Helvetica,sans-Serif" font-size="10.00">/d_a_obj_bombf/d_a_obj</text>
<text text-anchor="middle" x="2275" y="-128" font-family="Helvetica,sans-Serif" font-size="10.00">_bombf.h</text>
</a>
</g>
</g>
<!-- Node23&#45;&gt;Node81 -->
<g id="edge39" class="edge">
<title>Node23&#45;&gt;Node81</title>
<path fill="none" stroke="#63b8ff" d="M1477.29,-198.03C1799.61,-157 1888.37,-213.26 2205,-162 2207.86,-161.54 2210.78,-161 2213.71,-160.4"/>
<polygon fill="#63b8ff" stroke="#63b8ff" points="1477.18,-194.52 1467.71,-199.27 1478.08,-201.46 1477.18,-194.52"/>
</g>
<!-- Node23&#45;&gt;Node82 -->
<g id="edge40" class="edge">
<title>Node23&#45;&gt;Node82</title>
<path fill="none" stroke="#63b8ff" d="M1477.53,-197.95C1679.63,-169.55 1736.21,-198 1933,-162 1935.86,-161.48 1938.77,-160.88 1941.7,-160.23"/>
<polygon fill="#63b8ff" stroke="#63b8ff" points="1477.12,-194.48 1467.73,-199.36 1478.12,-201.4 1477.12,-194.48"/>
</g>
<!-- Node84 -->
<g id="node37" class="node">
<title>Node84</title>
<g id="a_node37"><a xlink:href="d__save_8cpp.html" target="_top" xlink:title=" ">
<polygon fill="white" stroke="#666666" points="1824.5,-79.5 1709.5,-79.5 1709.5,-60.5 1824.5,-60.5 1824.5,-79.5"/>
<text text-anchor="middle" x="1767" y="-67.5" font-family="Helvetica,sans-Serif" font-size="10.00">src/d/save/d_save.cpp</text>
</a>
</g>
</g>
<!-- Node23&#45;&gt;Node84 -->
<g id="edge50" class="edge">
<title>Node23&#45;&gt;Node84</title>
<path fill="none" stroke="#63b8ff" d="M1477.36,-197.97C1582.82,-181.52 1625.87,-218.46 1711,-162 1741.61,-141.7 1758.37,-98.36 1764.39,-79.77"/>
<polygon fill="#63b8ff" stroke="#63b8ff" points="1477.03,-194.47 1467.77,-199.6 1478.21,-201.37 1477.03,-194.47"/>
</g>
<!-- Node111 -->
<g id="node38" class="node">
<title>Node111</title>
<g id="a_node38"><a xlink:href="d__a__tag__hinit_8h.html" target="_top" xlink:title=" ">
<polygon fill="white" stroke="#666666" points="2594.5,-162 2479.5,-162 2479.5,-121 2594.5,-121 2594.5,-162"/>
<text text-anchor="start" x="2487.5" y="-150" font-family="Helvetica,sans-Serif" font-size="10.00">include/rel/d/a/tag</text>
<text text-anchor="start" x="2487.5" y="-139" font-family="Helvetica,sans-Serif" font-size="10.00">/d_a_tag_hinit/d_a_tag</text>
<text text-anchor="middle" x="2537" y="-128" font-family="Helvetica,sans-Serif" font-size="10.00">_hinit.h</text>
</a>
</g>
</g>
<!-- Node23&#45;&gt;Node111 -->
<g id="edge44" class="edge">
<title>Node23&#45;&gt;Node111</title>
<path fill="none" stroke="#63b8ff" d="M1477.32,-198.05C1917.11,-144.69 2037.89,-232.66 2471,-162 2473.71,-161.56 2476.47,-161.04 2479.24,-160.46"/>
<polygon fill="#63b8ff" stroke="#63b8ff" points="1477.2,-194.54 1467.71,-199.23 1478.06,-201.48 1477.2,-194.54"/>
</g>
<!-- Node23&#45;&gt;Node131 -->
<g id="edge45" class="edge">
<title>Node23&#45;&gt;Node131</title>
<path fill="none" stroke="#63b8ff" d="M1477.28,-197.88C1596.27,-177.47 1628.65,-179.44 1744,-162 1765.3,-158.78 1788.75,-154.9 1808.95,-151.46"/>
<polygon fill="#63b8ff" stroke="#63b8ff" points="1477.01,-194.37 1467.75,-199.53 1478.2,-201.27 1477.01,-194.37"/>
</g>
<!-- Node135 -->
<g id="node40" class="node">
<title>Node135</title>
<g id="a_node40"><a xlink:href="d__bg__w_8cpp.html" target="_top" xlink:title=" ">
<polygon fill="white" stroke="#666666" points="2461.5,-151 2354.5,-151 2354.5,-132 2461.5,-132 2461.5,-151"/>
<text text-anchor="middle" x="2408" y="-139" font-family="Helvetica,sans-Serif" font-size="10.00">src/d/bg/d_bg_w.cpp</text>
</a>
</g>
</g>
<!-- Node23&#45;&gt;Node135 -->
<g id="edge47" class="edge">
<title>Node23&#45;&gt;Node135</title>
<path fill="none" stroke="#63b8ff" d="M1477.36,-198.04C1861.47,-150.61 1967.7,-227.07 2345,-162 2358.2,-159.72 2372.49,-155.45 2384.12,-151.49"/>
<polygon fill="#63b8ff" stroke="#63b8ff" points="1477.19,-194.53 1467.71,-199.25 1478.07,-201.47 1477.19,-194.53"/>
</g>
<!-- Node33 -->
<g id="node26" class="node">
<title>Node33</title>
<g id="a_node26"><a xlink:href="d__a__e__wb_8h.html" target="_top" xlink:title=" ">
<polygon fill="white" stroke="#666666" points="2761,-85 2651,-85 2651,-55 2761,-55 2761,-85"/>
<text text-anchor="start" x="2659" y="-73" font-family="Helvetica,sans-Serif" font-size="10.00">include/rel/d/a/e/d</text>
<text text-anchor="middle" x="2706" y="-62" font-family="Helvetica,sans-Serif" font-size="10.00">_a_e_wb/d_a_e_wb.h</text>
</a>
</g>
</g>
<!-- Node29&#45;&gt;Node33 -->
<g id="edge25" class="edge">
<title>Node29&#45;&gt;Node33</title>
<path fill="none" stroke="#63b8ff" d="M2174.1,-128.44C2184.07,-125.64 2194.87,-122.92 2205,-121 2365.17,-90.62 2557.86,-77.97 2650.69,-73.34"/>
<polygon fill="#63b8ff" stroke="#63b8ff" points="2173.34,-125.02 2164.72,-131.17 2175.3,-131.74 2173.34,-125.02"/>
</g>
<!-- Node33&#45;&gt;Node4 -->
<g id="edge26" class="edge">
<title>Node33&#45;&gt;Node4</title>
<path fill="none" stroke="#63b8ff" d="M2639.53,-55.36C2638.69,-55.24 2637.84,-55.12 2637,-55 2442.05,-27.95 2208.29,-16.43 2103.96,-12.37"/>
<polygon fill="#63b8ff" stroke="#63b8ff" points="2638.82,-58.79 2649.25,-56.92 2639.93,-51.88 2638.82,-58.79"/>
</g>
<!-- Node34 -->
<g id="node27" class="node">
<title>Node34</title>
<g id="a_node27"><a xlink:href="d__a__horse__static_8cpp.html" target="_top" xlink:title=" ">
<polygon fill="white" stroke="#666666" points="2777,-19 2635,-19 2635,0 2777,0 2777,-19"/>
<text text-anchor="middle" x="2706" y="-7" font-family="Helvetica,sans-Serif" font-size="10.00">src/d/a/d_a_horse_static.cpp</text>
</a>
</g>
</g>
<!-- Node33&#45;&gt;Node34 -->
<g id="edge27" class="edge">
<title>Node33&#45;&gt;Node34</title>
<path fill="none" stroke="#63b8ff" d="M2706,-43.3C2706,-34.65 2706,-25.58 2706,-19.18"/>
<polygon fill="#63b8ff" stroke="#63b8ff" points="2702.5,-43.03 2706,-53.03 2709.5,-43.03 2702.5,-43.03"/>
</g>
<!-- Node46&#45;&gt;Node4 -->
<g id="edge32" class="edge">
<title>Node46&#45;&gt;Node4</title>
<path fill="none" stroke="#63b8ff" d="M961.59,-123.09C964.43,-122.35 967.24,-121.65 970,-121 1136.84,-81.63 1179.77,-75.14 1350,-55 1589.1,-26.71 1876.49,-15.56 1994.44,-11.96"/>
<polygon fill="#63b8ff" stroke="#63b8ff" points="960.82,-119.67 952.09,-125.67 962.65,-126.43 960.82,-119.67"/>
</g>
<!-- Node46&#45;&gt;Node8 -->
<g id="edge33" class="edge">
<title>Node46&#45;&gt;Node8</title>
<path fill="none" stroke="#63b8ff" d="M849.46,-123.04C846.61,-122.32 843.78,-121.63 841,-121 747.76,-99.87 637.68,-85.25 570.89,-77.5"/>
<polygon fill="#63b8ff" stroke="#63b8ff" points="848.44,-126.39 859,-125.63 850.26,-119.64 848.44,-126.39"/>
</g>
<!-- Node46&#45;&gt;Node9 -->
<g id="edge34" class="edge">
<title>Node46&#45;&gt;Node9</title>
<path fill="none" stroke="#63b8ff" d="M851.29,-123.17C847.83,-122.35 844.38,-121.62 841,-121 599.14,-76.88 532.44,-119.37 289,-85 286.18,-84.6 283.31,-84.15 280.41,-83.65"/>
<polygon fill="#63b8ff" stroke="#63b8ff" points="850.28,-126.52 860.84,-125.63 852.03,-119.74 850.28,-126.52"/>
</g>
<!-- Node46&#45;&gt;Node10 -->
<g id="edge35" class="edge">
<title>Node46&#45;&gt;Node10</title>
<path fill="none" stroke="#63b8ff" d="M851.1,-123.22C847.7,-122.4 844.31,-121.65 841,-121 665.37,-86.74 617.26,-109.44 440,-85 430.03,-83.62 419.37,-81.83 409.3,-79.99"/>
<polygon fill="#63b8ff" stroke="#63b8ff" points="849.9,-126.53 860.46,-125.67 851.68,-119.75 849.9,-126.53"/>
</g>
<!-- Node46&#45;&gt;Node21 -->
<g id="edge36" class="edge">
<title>Node46&#45;&gt;Node21</title>
<path fill="none" stroke="#63b8ff" d="M960.26,-123.17C963.54,-122.38 966.81,-121.65 970,-121 1105.3,-93.67 1265.96,-80.59 1358.63,-74.89"/>
<polygon fill="#63b8ff" stroke="#63b8ff" points="959.39,-119.78 950.59,-125.69 961.15,-126.56 959.39,-119.78"/>
</g>
<!-- Node82&#45;&gt;Node4 -->
<g id="edge41" class="edge">
<title>Node82&#45;&gt;Node4</title>
<path fill="none" stroke="#63b8ff" d="M2017.83,-110.72C2022.23,-102.57 2026.64,-93.61 2030,-85 2038.94,-62.13 2044.85,-33.65 2047.46,-19.44"/>
<polygon fill="#63b8ff" stroke="#63b8ff" points="2014.92,-108.76 2013.09,-119.2 2021.03,-112.18 2014.92,-108.76"/>
</g>
<!-- Node83 -->
<g id="node36" class="node">
<title>Node83</title>
<g id="a_node36"><a xlink:href="d__com__static_8cpp.html" target="_top" xlink:title=" ">
<polygon fill="white" stroke="#666666" points="2021,-79.5 1881,-79.5 1881,-60.5 2021,-60.5 2021,-79.5"/>
<text text-anchor="middle" x="1951" y="-67.5" font-family="Helvetica,sans-Serif" font-size="10.00">src/d/com/d_com_static.cpp</text>
</a>
</g>
</g>
<!-- Node82&#45;&gt;Node83 -->
<g id="edge42" class="edge">
<title>Node82&#45;&gt;Node83</title>
<path fill="none" stroke="#63b8ff" d="M1979.55,-111.5C1971.51,-100.09 1962.86,-87.82 1957.22,-79.82"/>
<polygon fill="#63b8ff" stroke="#63b8ff" points="1976.59,-113.38 1985.22,-119.53 1982.32,-109.34 1976.59,-113.38"/>
</g>
<!-- Node82&#45;&gt;Node84 -->
<g id="edge43" class="edge">
<title>Node82&#45;&gt;Node84</title>
<path fill="none" stroke="#63b8ff" d="M1930.74,-119.84C1886.22,-106.56 1830.62,-89.98 1797.01,-79.95"/>
<polygon fill="#63b8ff" stroke="#63b8ff" points="1929.47,-123.11 1940.05,-122.62 1931.47,-116.41 1929.47,-123.11"/>
</g>
<!-- Node192&#45;&gt;Node81 -->
<g id="edge56" class="edge">
<title>Node192&#45;&gt;Node81</title>
<path fill="none" stroke="#63b8ff" d="M1984.27,-329.07C2040.01,-293.3 2181.18,-202.7 2244.02,-162.38"/>
<polygon fill="#63b8ff" stroke="#63b8ff" points="1982.7,-325.92 1976.17,-334.26 1986.48,-331.81 1982.7,-325.92"/>
</g>
<!-- Node193 -->
<g id="node43" class="node">
<title>Node193</title>
<g id="a_node43"><a xlink:href="d__bomb_8cpp.html" target="_top" xlink:title=" ">
<polygon fill="white" stroke="#666666" points="2008,-288.5 1914,-288.5 1914,-269.5 2008,-269.5 2008,-288.5"/>
<text text-anchor="middle" x="1961" y="-276.5" font-family="Helvetica,sans-Serif" font-size="10.00">src/d/d_bomb.cpp</text>
</a>
</g>
</g>
<!-- Node192&#45;&gt;Node193 -->
<g id="edge57" class="edge">
<title>Node192&#45;&gt;Node193</title>
<path fill="none" stroke="#63b8ff" d="M1961,-323.68C1961,-311.94 1961,-297.77 1961,-288.82"/>
<polygon fill="#63b8ff" stroke="#63b8ff" points="1957.5,-323.59 1961,-333.59 1964.5,-323.59 1957.5,-323.59"/>
</g>
<!-- Node194&#45;&gt;Node5 -->
<g id="edge59" class="edge">
<title>Node194&#45;&gt;Node5</title>
<path fill="none" stroke="#63b8ff" d="M139.41,-319.15C118.38,-274.06 74.83,-180.73 61.19,-151.47"/>
<polygon fill="#63b8ff" stroke="#63b8ff" points="136.2,-320.55 143.6,-328.14 142.54,-317.59 136.2,-320.55"/>
</g>
<!-- Node197&#45;&gt;Node4 -->
<g id="edge65" class="edge">
<title>Node197&#45;&gt;Node4</title>
<path fill="none" stroke="#63b8ff" d="M2596.76,-188.15C2608.53,-168.2 2619.62,-140.04 2604,-121 2540.98,-44.2 2231.13,-19.78 2103.79,-12.91"/>
<polygon fill="#63b8ff" stroke="#63b8ff" points="2593.89,-186.14 2591.5,-196.46 2599.81,-189.89 2593.89,-186.14"/>
</g>
<!-- Node197&#45;&gt;Node33 -->
<g id="edge63" class="edge">
<title>Node197&#45;&gt;Node33</title>
<path fill="none" stroke="#63b8ff" d="M2642.31,-205.48C2696.84,-198.33 2770.08,-184.74 2788,-162 2799.28,-147.69 2796.92,-136.89 2788,-121 2778.94,-104.86 2762.32,-93.32 2746.4,-85.42"/>
<polygon fill="#63b8ff" stroke="#63b8ff" points="2641.96,-201.99 2632.48,-206.71 2642.84,-208.94 2641.96,-201.99"/>
</g>
<!-- Node197&#45;&gt;Node111 -->
<g id="edge64" class="edge">
<title>Node197&#45;&gt;Node111</title>
<path fill="none" stroke="#63b8ff" d="M2565.16,-188.02C2560,-179.67 2554.26,-170.4 2549.32,-162.42"/>
<polygon fill="#63b8ff" stroke="#63b8ff" points="2562.06,-189.65 2570.29,-196.31 2568.01,-185.97 2562.06,-189.65"/>
</g>
<!-- Node197&#45;&gt;Node135 -->
<g id="edge66" class="edge">
<title>Node197&#45;&gt;Node135</title>
<path fill="none" stroke="#63b8ff" d="M2533.83,-193.34C2500.16,-179.74 2456.03,-161.91 2429.97,-151.38"/>
<polygon fill="#63b8ff" stroke="#63b8ff" points="2532.38,-196.53 2542.96,-197.03 2535,-190.04 2532.38,-196.53"/>
</g>
<!-- Node49 -->
<g id="node48" class="node">
<title>Node49</title>
<g id="a_node48"><a xlink:href="d__meter2_8cpp.html" target="_top" xlink:title=" ">
<polygon fill="white" stroke="#666666" points="2779,-151 2651,-151 2651,-132 2779,-132 2779,-151"/>
<text text-anchor="middle" x="2715" y="-139" font-family="Helvetica,sans-Serif" font-size="10.00">src/d/meter/d_meter2.cpp</text>
</a>
</g>
</g>
<!-- Node197&#45;&gt;Node49 -->
<g id="edge67" class="edge">
<title>Node197&#45;&gt;Node49</title>
<path fill="none" stroke="#63b8ff" d="M2617.96,-192.46C2644.16,-178.97 2677.75,-161.68 2697.75,-151.38"/>
<polygon fill="#63b8ff" stroke="#63b8ff" points="2616.61,-189.22 2609.32,-196.91 2619.81,-195.44 2616.61,-189.22"/>
</g>
</g>
</svg>
