<?xml version="1.0" encoding="UTF-8" standalone="no"?>
<!DOCTYPE svg PUBLIC "-//W3C//DTD SVG 1.1//EN"
 "http://www.w3.org/Graphics/SVG/1.1/DTD/svg11.dtd">
<!-- Generated by graphviz version 7.0.5 (20221223.1930)
 -->
<!-- Title: libs/SSystem/SComponent/c_m2d.cpp Pages: 1 -->
<svg width="369pt" height="236pt"
 viewBox="0.00 0.00 368.50 236.00" xmlns="http://www.w3.org/2000/svg" xmlns:xlink="http://www.w3.org/1999/xlink">
<g id="graph0" class="graph" transform="scale(1 1) rotate(0) translate(4 232)">
<title>libs/SSystem/SComponent/c_m2d.cpp</title>
<!-- Node1 -->
<g id="node1" class="node">
<title>Node1</title>
<g id="a_node1"><a xlink:title=" ">
<polygon fill="#999999" stroke="#666666" points="242,-228 108,-228 108,-198 242,-198 242,-228"/>
<text text-anchor="start" x="116" y="-216" font-family="Helvetica,sans-Serif" font-size="10.00">libs/SSystem/SComponent</text>
<text text-anchor="middle" x="175" y="-205" font-family="Helvetica,sans-Serif" font-size="10.00">/c_m2d.cpp</text>
</a>
</g>
</g>
<!-- Node2 -->
<g id="node2" class="node">
<title>Node2</title>
<g id="a_node2"><a xlink:href="c__m2d_8h.html" target="_top" xlink:title=" ">
<polygon fill="white" stroke="#666666" points="126,-156.5 10,-156.5 10,-126.5 126,-126.5 126,-156.5"/>
<text text-anchor="start" x="18" y="-144.5" font-family="Helvetica,sans-Serif" font-size="10.00">SSystem/SComponent</text>
<text text-anchor="middle" x="68" y="-133.5" font-family="Helvetica,sans-Serif" font-size="10.00">/c_m2d.h</text>
</a>
</g>
</g>
<!-- Node1&#45;&gt;Node2 -->
<g id="edge1" class="edge">
<title>Node1&#45;&gt;Node2</title>
<path fill="none" stroke="#63b8ff" d="M152.83,-197.6C137.48,-187.63 116.81,-174.21 99.72,-163.11"/>
<polygon fill="#63b8ff" stroke="#63b8ff" points="101.7,-160.22 91.41,-157.71 97.89,-166.09 101.7,-160.22"/>
</g>
<!-- Node5 -->
<g id="node5" class="node">
<title>Node5</title>
<g id="a_node5"><a xlink:href="dol2asm_8h.html" target="_top" xlink:title=" ">
<polygon fill="white" stroke="#666666" points="205.5,-151 144.5,-151 144.5,-132 205.5,-132 205.5,-151"/>
<text text-anchor="middle" x="175" y="-139" font-family="Helvetica,sans-Serif" font-size="10.00">dol2asm.h</text>
</a>
</g>
</g>
<!-- Node1&#45;&gt;Node5 -->
<g id="edge4" class="edge">
<title>Node1&#45;&gt;Node5</title>
<path fill="none" stroke="#63b8ff" d="M175,-197.6C175,-187.43 175,-173.67 175,-162.45"/>
<polygon fill="#63b8ff" stroke="#63b8ff" points="178.5,-162.69 175,-152.69 171.5,-162.69 178.5,-162.69"/>
</g>
<!-- Node6 -->
<g id="node6" class="node">
<title>Node6</title>
<g id="a_node6"><a xlink:title=" ">
<polygon fill="#e0e0e0" stroke="#999999" points="360.5,-162 223.5,-162 223.5,-121 360.5,-121 360.5,-162"/>
<text text-anchor="start" x="231.5" y="-150" font-family="Helvetica,sans-Serif" font-size="10.00">asm/SSystem/SComponent</text>
<text text-anchor="start" x="231.5" y="-139" font-family="Helvetica,sans-Serif" font-size="10.00">/c_m2d/cM2d_CrossCirLin</text>
<text text-anchor="middle" x="292" y="-128" font-family="Helvetica,sans-Serif" font-size="10.00">__FR8cM2dGCirffffPfPf.s</text>
</a>
</g>
</g>
<!-- Node1&#45;&gt;Node6 -->
<g id="edge5" class="edge">
<title>Node1&#45;&gt;Node6</title>
<path fill="none" stroke="#63b8ff" d="M199.24,-197.6C213.57,-189.09 232.12,-178.07 248.87,-168.12"/>
<polygon fill="#63b8ff" stroke="#63b8ff" points="250.36,-171.31 257.17,-163.19 246.79,-165.29 250.36,-171.31"/>
</g>
<!-- Node3 -->
<g id="node3" class="node">
<title>Node3</title>
<g id="a_node3"><a xlink:href="types_8h.html" target="_top" xlink:title=" ">
<polygon fill="white" stroke="#666666" points="108.5,-85 27.5,-85 27.5,-66 108.5,-66 108.5,-85"/>
<text text-anchor="middle" x="68" y="-73" font-family="Helvetica,sans-Serif" font-size="10.00">dolphin/types.h</text>
</a>
</g>
</g>
<!-- Node2&#45;&gt;Node3 -->
<g id="edge2" class="edge">
<title>Node2&#45;&gt;Node3</title>
<path fill="none" stroke="#63b8ff" d="M68,-126.3C68,-117.59 68,-106.31 68,-96.68"/>
<polygon fill="#63b8ff" stroke="#63b8ff" points="71.5,-96.86 68,-86.86 64.5,-96.86 71.5,-96.86"/>
</g>
<!-- Node4 -->
<g id="node4" class="node">
<title>Node4</title>
<g id="a_node4"><a xlink:href="stddef_8h.html" target="_top" xlink:title=" ">
<polygon fill="white" stroke="#666666" points="136,-30 0,-30 0,0 136,0 136,-30"/>
<text text-anchor="start" x="8" y="-18" font-family="Helvetica,sans-Serif" font-size="10.00">MSL_C/MSL_Common/Src</text>
<text text-anchor="middle" x="68" y="-7" font-family="Helvetica,sans-Serif" font-size="10.00">/stddef.h</text>
</a>
</g>
</g>
<!-- Node3&#45;&gt;Node4 -->
<g id="edge3" class="edge">
<title>Node3&#45;&gt;Node4</title>
<path fill="none" stroke="#63b8ff" d="M68,-65.87C68,-59.4 68,-50.2 68,-41.45"/>
<polygon fill="#63b8ff" stroke="#63b8ff" points="71.5,-41.63 68,-31.63 64.5,-41.63 71.5,-41.63"/>
</g>
</g>
</svg>
