<?xml version="1.0" encoding="UTF-8" standalone="no"?>
<!DOCTYPE svg PUBLIC "-//W3C//DTD SVG 1.1//EN"
 "http://www.w3.org/Graphics/SVG/1.1/DTD/svg11.dtd">
<!-- Generated by graphviz version 7.0.5 (20221223.1930)
 -->
<!-- Title: include/SSystem/SComponent/c_sxyz.h Pages: 1 -->
<!--zoomable 313 -->
<svg id="main" version="1.1" xmlns="http://www.w3.org/2000/svg" xmlns:xlink="http://www.w3.org/1999/xlink" xml:space="preserve" onload="init(evt)">
<style type="text/css"><![CDATA[
.edge:hover path { stroke: red; }
.edge:hover polygon { stroke: red; fill: red; }
]]></style>
<script type="text/javascript"><![CDATA[
var edges = document.getElementsByTagName('g');
if (edges && edges.length) {
  for (var i=0;i<edges.length;i++) {
    if (edges[i].id.substr(0,4)=='edge') {
      edges[i].setAttribute('class','edge');
    }
  }
}
]]></script>
        <defs>
                <circle id="rim" cx="0" cy="0" r="7"/>
                <circle id="rim2" cx="0" cy="0" r="3.5"/>
                <g id="zoomPlus">
                        <use xlink:href="#rim" fill="#404040">
                                <set attributeName="fill" to="#808080" begin="zoomplus.mouseover" end="zoomplus.mouseout"/>
                        </use>
                        <path d="M-4,0h8M0,-4v8" fill="none" stroke="white" stroke-width="1.5" pointer-events="none"/>
                </g>
                <g id="zoomMin">
                        <use xlink:href="#rim" fill="#404040">
                                <set attributeName="fill" to="#808080" begin="zoomminus.mouseover" end="zoomminus.mouseout"/>
                        </use>
                        <path d="M-4,0h8" fill="none" stroke="white" stroke-width="1.5" pointer-events="none"/>
                </g>
                <g id="dirArrow">
                        <path fill="none" stroke="white" stroke-width="1.5" d="M0,-3.0v7 M-2.5,-0.5L0,-3.0L2.5,-0.5"/>
                </g>
               <g id="resetDef">
                       <use xlink:href="#rim2" fill="#404040">
                               <set attributeName="fill" to="#808080" begin="reset.mouseover" end="reset.mouseout"/>
                       </use>
               </g>
        </defs>

<script type="text/javascript">
var viewWidth = 4827;
var viewHeight = 313;
var sectionId = 'dynsection-1';
</script>
<script xlink:href="svgpan.js"/>
<svg id="graph" class="graph">
<g id="viewport">
<title>include/SSystem/SComponent/c_sxyz.h</title>
<!-- Node1 -->
<g id="node1" class="node">
<title>Node1</title>
<g id="a_node1"><a xlink:title=" ">
<polygon fill="#999999" stroke="#666666" points="2419.5,-305 2270.5,-305 2270.5,-275 2419.5,-275 2419.5,-305"/>
<text text-anchor="start" x="2278.5" y="-293" font-family="Helvetica,sans-Serif" font-size="10.00">include/SSystem/SComponent</text>
<text text-anchor="middle" x="2345" y="-282" font-family="Helvetica,sans-Serif" font-size="10.00">/c_sxyz.h</text>
</a>
</g>
</g>
<!-- Node2 -->
<g id="node2" class="node">
<title>Node2</title>
<g id="a_node2"><a xlink:href="d__demo_8h.html" target="_top" xlink:title=" ">
<polygon fill="white" stroke="#666666" points="373.5,-162 272.5,-162 272.5,-143 373.5,-143 373.5,-162"/>
<text text-anchor="middle" x="323" y="-150" font-family="Helvetica,sans-Serif" font-size="10.00">include/d/d_demo.h</text>
</a>
</g>
</g>
<!-- Node1&#45;&gt;Node2 -->
<g id="edge1" class="edge">
<title>Node1&#45;&gt;Node2</title>
<path fill="none" stroke="#63b8ff" d="M2259.05,-289.06C1958.2,-288.88 953.55,-284.77 635,-239 525.2,-223.23 399.12,-180.9 347.23,-162.38"/>
<polygon fill="#63b8ff" stroke="#63b8ff" points="2258.79,-292.56 2268.79,-289.07 2258.79,-285.56 2258.79,-292.56"/>
</g>
<!-- Node10 -->
<g id="node10" class="node">
<title>Node10</title>
<g id="a_node10"><a xlink:href="d__jnt__col_8h.html" target="_top" xlink:title=" ">
<polygon fill="white" stroke="#666666" points="749.5,-233.5 644.5,-233.5 644.5,-214.5 749.5,-214.5 749.5,-233.5"/>
<text text-anchor="middle" x="697" y="-221.5" font-family="Helvetica,sans-Serif" font-size="10.00">include/d/d_jnt_col.h</text>
</a>
</g>
</g>
<!-- Node1&#45;&gt;Node10 -->
<g id="edge9" class="edge">
<title>Node1&#45;&gt;Node10</title>
<path fill="none" stroke="#63b8ff" d="M2259.08,-285.66C1962.64,-274.15 987.79,-236.29 749.77,-227.05"/>
<polygon fill="#63b8ff" stroke="#63b8ff" points="2258.54,-289.14 2268.66,-286.04 2258.81,-282.15 2258.54,-289.14"/>
</g>
<!-- Node22 -->
<g id="node16" class="node">
<title>Node22</title>
<g id="a_node16"><a xlink:href="d__kankyo__wether_8h.html" target="_top" xlink:title=" ">
<polygon fill="white" stroke="#666666" points="2394,-167.5 2296,-167.5 2296,-137.5 2394,-137.5 2394,-167.5"/>
<text text-anchor="start" x="2304" y="-155.5" font-family="Helvetica,sans-Serif" font-size="10.00">include/d/kankyo/d</text>
<text text-anchor="middle" x="2345" y="-144.5" font-family="Helvetica,sans-Serif" font-size="10.00">_kankyo_wether.h</text>
</a>
</g>
</g>
<!-- Node1&#45;&gt;Node22 -->
<g id="edge18" class="edge">
<title>Node1&#45;&gt;Node22</title>
<path fill="none" stroke="#63b8ff" d="M2345,-263.41C2345,-235.17 2345,-190.71 2345,-167.96"/>
<polygon fill="#63b8ff" stroke="#63b8ff" points="2341.5,-263.24 2345,-273.24 2348.5,-263.24 2341.5,-263.24"/>
</g>
<!-- Node300 -->
<g id="node21" class="node">
<title>Node300</title>
<g id="a_node21"><a xlink:href="d__meter__HIO_8h.html" target="_top" xlink:title=" ">
<polygon fill="white" stroke="#666666" points="3067,-239 2945,-239 2945,-209 3067,-209 3067,-239"/>
<text text-anchor="start" x="2953" y="-227" font-family="Helvetica,sans-Serif" font-size="10.00">include/d/meter/d_meter</text>
<text text-anchor="middle" x="3006" y="-216" font-family="Helvetica,sans-Serif" font-size="10.00">_HIO.h</text>
</a>
</g>
</g>
<!-- Node1&#45;&gt;Node300 -->
<g id="edge24" class="edge">
<title>Node1&#45;&gt;Node300</title>
<path fill="none" stroke="#63b8ff" d="M2431,-280.67C2566.59,-267.54 2826.79,-242.35 2944.94,-230.91"/>
<polygon fill="#63b8ff" stroke="#63b8ff" points="2430.98,-277.16 2421.37,-281.61 2431.66,-284.13 2430.98,-277.16"/>
</g>
<!-- Node302 -->
<g id="node34" class="node">
<title>Node302</title>
<g id="a_node34"><a xlink:href="d__particle__copoly_8h.html" target="_top" xlink:title=" ">
<polygon fill="white" stroke="#666666" points="4257,-239 4155,-239 4155,-209 4257,-209 4257,-239"/>
<text text-anchor="start" x="4163" y="-227" font-family="Helvetica,sans-Serif" font-size="10.00">include/d/particle</text>
<text text-anchor="middle" x="4206" y="-216" font-family="Helvetica,sans-Serif" font-size="10.00">/d_particle_copoly.h</text>
</a>
</g>
</g>
<!-- Node1&#45;&gt;Node302 -->
<g id="edge39" class="edge">
<title>Node1&#45;&gt;Node302</title>
<path fill="none" stroke="#63b8ff" d="M2431.16,-286.04C2755.64,-274.88 3898.44,-235.58 4154.73,-226.76"/>
<polygon fill="#63b8ff" stroke="#63b8ff" points="2431.35,-282.53 2421.48,-286.37 2431.6,-289.52 2431.35,-282.53"/>
</g>
<!-- Node304 -->
<g id="node41" class="node">
<title>Node304</title>
<g id="a_node41"><a xlink:href="m__Do__mtx_8h.html" target="_top" xlink:title=" ">
<polygon fill="#fff0f0" stroke="red" points="1624.5,-233.5 1491.5,-233.5 1491.5,-214.5 1624.5,-214.5 1624.5,-233.5"/>
<text text-anchor="middle" x="1558" y="-221.5" font-family="Helvetica,sans-Serif" font-size="10.00">include/m_Do/m_Do_mtx.h</text>
</a>
</g>
</g>
<!-- Node1&#45;&gt;Node304 -->
<g id="edge47" class="edge">
<title>Node1&#45;&gt;Node304</title>
<path fill="none" stroke="#63b8ff" d="M2259.19,-282.02C2101.23,-269.18 1767.57,-242.04 1624.94,-230.44"/>
<polygon fill="#63b8ff" stroke="#63b8ff" points="2258.49,-285.48 2268.74,-282.8 2259.06,-278.5 2258.49,-285.48"/>
</g>
<!-- Node351 -->
<g id="node50" class="node">
<title>Node351</title>
<g id="a_node50"><a xlink:href="c__sxyz_8cpp.html" target="_top" xlink:title=" ">
<polygon fill="white" stroke="#666666" points="4409,-239 4275,-239 4275,-209 4409,-209 4409,-239"/>
<text text-anchor="start" x="4283" y="-227" font-family="Helvetica,sans-Serif" font-size="10.00">libs/SSystem/SComponent</text>
<text text-anchor="middle" x="4342" y="-216" font-family="Helvetica,sans-Serif" font-size="10.00">/c_sxyz.cpp</text>
</a>
</g>
</g>
<!-- Node1&#45;&gt;Node351 -->
<g id="edge61" class="edge">
<title>Node1&#45;&gt;Node351</title>
<path fill="none" stroke="#63b8ff" d="M2431.17,-288.55C2755.49,-286.56 3902.72,-276.95 4266,-239 4268.8,-238.71 4271.66,-238.37 4274.53,-237.99"/>
<polygon fill="#63b8ff" stroke="#63b8ff" points="2431.47,-285.04 2421.49,-288.6 2431.51,-292.04 2431.47,-285.04"/>
</g>
<!-- Node3 -->
<g id="node3" class="node">
<title>Node3</title>
<g id="a_node3"><a xlink:href="Z2WolfHowlMgr_8cpp.html" target="_top" xlink:title=" ">
<polygon fill="white" stroke="#666666" points="140,-96 0,-96 0,-66 140,-66 140,-96"/>
<text text-anchor="start" x="8" y="-84" font-family="Helvetica,sans-Serif" font-size="10.00">libs/Z2AudioLib/Z2WolfHowl</text>
<text text-anchor="middle" x="70" y="-73" font-family="Helvetica,sans-Serif" font-size="10.00">Mgr.cpp</text>
</a>
</g>
</g>
<!-- Node2&#45;&gt;Node3 -->
<g id="edge2" class="edge">
<title>Node2&#45;&gt;Node3</title>
<path fill="none" stroke="#63b8ff" d="M279.38,-139.52C235.9,-127.57 169.1,-109.22 122.68,-96.47"/>
<polygon fill="#63b8ff" stroke="#63b8ff" points="278.41,-142.88 288.98,-142.16 280.27,-136.13 278.41,-142.88"/>
</g>
<!-- Node4 -->
<g id="node4" class="node">
<title>Node4</title>
<g id="a_node4"><a xlink:href="d__com__static_8cpp.html" target="_top" xlink:title=" ">
<polygon fill="white" stroke="#666666" points="534,-90.5 394,-90.5 394,-71.5 534,-71.5 534,-90.5"/>
<text text-anchor="middle" x="464" y="-78.5" font-family="Helvetica,sans-Serif" font-size="10.00">src/d/com/d_com_static.cpp</text>
</a>
</g>
</g>
<!-- Node2&#45;&gt;Node4 -->
<g id="edge3" class="edge">
<title>Node2&#45;&gt;Node4</title>
<path fill="none" stroke="#63b8ff" d="M351.19,-137.61C379.4,-123.7 421.95,-102.72 445.93,-90.91"/>
<polygon fill="#63b8ff" stroke="#63b8ff" points="349.92,-134.33 342.5,-141.89 353.02,-140.61 349.92,-134.33"/>
</g>
<!-- Node5 -->
<g id="node5" class="node">
<title>Node5</title>
<g id="a_node5"><a xlink:href="d__demo_8cpp.html" target="_top" xlink:title=" ">
<polygon fill="white" stroke="#666666" points="252,-90.5 158,-90.5 158,-71.5 252,-71.5 252,-90.5"/>
<text text-anchor="middle" x="205" y="-78.5" font-family="Helvetica,sans-Serif" font-size="10.00">src/d/d_demo.cpp</text>
</a>
</g>
</g>
<!-- Node2&#45;&gt;Node5 -->
<g id="edge4" class="edge">
<title>Node2&#45;&gt;Node5</title>
<path fill="none" stroke="#63b8ff" d="M298.41,-137.02C274.84,-123.13 239.99,-102.61 220.2,-90.95"/>
<polygon fill="#63b8ff" stroke="#63b8ff" points="296.36,-139.87 306.75,-141.93 299.91,-133.84 296.36,-139.87"/>
</g>
<!-- Node6 -->
<g id="node6" class="node">
<title>Node6</title>
<g id="a_node6"><a xlink:href="d__event_8cpp.html" target="_top" xlink:title=" ">
<polygon fill="white" stroke="#666666" points="818.5,-90.5 697.5,-90.5 697.5,-71.5 818.5,-71.5 818.5,-90.5"/>
<text text-anchor="middle" x="758" y="-78.5" font-family="Helvetica,sans-Serif" font-size="10.00">src/d/event/d_event.cpp</text>
</a>
</g>
</g>
<!-- Node2&#45;&gt;Node6 -->
<g id="edge5" class="edge">
<title>Node2&#45;&gt;Node6</title>
<path fill="none" stroke="#63b8ff" d="M357.92,-138.97C366.07,-136.38 374.78,-133.87 383,-132 492.36,-107.15 622.67,-93.21 697.32,-86.68"/>
<polygon fill="#63b8ff" stroke="#63b8ff" points="357.07,-135.57 348.68,-142.03 359.27,-142.21 357.07,-135.57"/>
</g>
<!-- Node7 -->
<g id="node7" class="node">
<title>Node7</title>
<g id="a_node7"><a xlink:href="d__meter2_8cpp.html" target="_top" xlink:title=" ">
<polygon fill="white" stroke="#666666" points="1693,-90.5 1565,-90.5 1565,-71.5 1693,-71.5 1693,-90.5"/>
<text text-anchor="middle" x="1629" y="-78.5" font-family="Helvetica,sans-Serif" font-size="10.00">src/d/meter/d_meter2.cpp</text>
</a>
</g>
</g>
<!-- Node2&#45;&gt;Node7 -->
<g id="edge6" class="edge">
<title>Node2&#45;&gt;Node7</title>
<path fill="none" stroke="#63b8ff" d="M356.2,-138.9C364.81,-136.14 374.15,-133.57 383,-132 596.48,-94.13 1141.4,-105.59 1358,-96 1428.72,-92.87 1509.77,-88.59 1564.68,-85.59"/>
<polygon fill="#63b8ff" stroke="#63b8ff" points="355.18,-135.55 346.85,-142.09 357.44,-142.18 355.18,-135.55"/>
</g>
<!-- Node8 -->
<g id="node8" class="node">
<title>Node8</title>
<g id="a_node8"><a xlink:href="d__s__play_8cpp.html" target="_top" xlink:title=" ">
<polygon fill="white" stroke="#666666" points="376,-90.5 270,-90.5 270,-71.5 376,-71.5 376,-90.5"/>
<text text-anchor="middle" x="323" y="-78.5" font-family="Helvetica,sans-Serif" font-size="10.00">src/d/s/d_s_play.cpp</text>
</a>
</g>
</g>
<!-- Node2&#45;&gt;Node8 -->
<g id="edge7" class="edge">
<title>Node2&#45;&gt;Node8</title>
<path fill="none" stroke="#63b8ff" d="M323,-131.3C323,-117.94 323,-101.09 323,-90.95"/>
<polygon fill="#63b8ff" stroke="#63b8ff" points="319.5,-131.18 323,-141.18 326.5,-131.18 319.5,-131.18"/>
</g>
<!-- Node9 -->
<g id="node9" class="node">
<title>Node9</title>
<g id="a_node9"><a xlink:href="f__op__actor_8cpp.html" target="_top" xlink:title=" ">
<polygon fill="white" stroke="#666666" points="1349.5,-90.5 1230.5,-90.5 1230.5,-71.5 1349.5,-71.5 1349.5,-90.5"/>
<text text-anchor="middle" x="1290" y="-78.5" font-family="Helvetica,sans-Serif" font-size="10.00">src/f_op/f_op_actor.cpp</text>
</a>
</g>
</g>
<!-- Node2&#45;&gt;Node9 -->
<g id="edge8" class="edge">
<title>Node2&#45;&gt;Node9</title>
<path fill="none" stroke="#63b8ff" d="M356.44,-138.94C364.99,-136.2 374.24,-133.64 383,-132 546.26,-101.51 1054.84,-87.34 1230,-83.28"/>
<polygon fill="#63b8ff" stroke="#63b8ff" points="355.5,-135.57 347.15,-142.09 357.74,-142.2 355.5,-135.57"/>
</g>
<!-- Node11 -->
<g id="node11" class="node">
<title>Node11</title>
<g id="a_node11"><a xlink:href="d__a__alink_8h.html" target="_top" xlink:title=" ">
<polygon fill="#fff0f0" stroke="red" points="1614,-162 1498,-162 1498,-143 1614,-143 1614,-162"/>
<text text-anchor="middle" x="1556" y="-150" font-family="Helvetica,sans-Serif" font-size="10.00">include/d/a/d_a_alink.h</text>
</a>
</g>
</g>
<!-- Node10&#45;&gt;Node11 -->
<g id="edge10" class="edge">
<title>Node10&#45;&gt;Node11</title>
<path fill="none" stroke="#63b8ff" d="M761.19,-223.71C896.73,-224.16 1221.63,-219.76 1489,-173 1502.84,-170.58 1517.9,-166.35 1530.22,-162.45"/>
<polygon fill="#63b8ff" stroke="#63b8ff" points="761.36,-220.21 751.34,-223.66 761.33,-227.21 761.36,-220.21"/>
</g>
<!-- Node18 -->
<g id="node13" class="node">
<title>Node18</title>
<g id="a_node13"><a xlink:href="d__a__obj__carry_8h.html" target="_top" xlink:title=" ">
<polygon fill="#fff0f0" stroke="red" points="508,-173 392,-173 392,-132 508,-132 508,-173"/>
<text text-anchor="start" x="400" y="-161" font-family="Helvetica,sans-Serif" font-size="10.00">include/rel/d/a/obj</text>
<text text-anchor="start" x="400" y="-150" font-family="Helvetica,sans-Serif" font-size="10.00">/d_a_obj_carry/d_a_obj</text>
<text text-anchor="middle" x="450" y="-139" font-family="Helvetica,sans-Serif" font-size="10.00">_carry.h</text>
</a>
</g>
</g>
<!-- Node10&#45;&gt;Node18 -->
<g id="edge14" class="edge">
<title>Node10&#45;&gt;Node18</title>
<path fill="none" stroke="#63b8ff" d="M653.7,-211.13C617.21,-201.09 563.65,-186.27 517,-173 514.2,-172.2 511.34,-171.39 508.45,-170.56"/>
<polygon fill="#63b8ff" stroke="#63b8ff" points="652.42,-214.41 662.99,-213.69 654.27,-207.66 652.42,-214.41"/>
</g>
<!-- Node20 -->
<g id="node14" class="node">
<title>Node20</title>
<g id="a_node14"><a xlink:href="d__cc__s_8cpp.html" target="_top" xlink:title=" ">
<polygon fill="white" stroke="#666666" points="630,-162 526,-162 526,-143 630,-143 630,-162"/>
<text text-anchor="middle" x="578" y="-150" font-family="Helvetica,sans-Serif" font-size="10.00">src/d/cc/d_cc_s.cpp</text>
</a>
</g>
</g>
<!-- Node10&#45;&gt;Node20 -->
<g id="edge16" class="edge">
<title>Node10&#45;&gt;Node20</title>
<path fill="none" stroke="#63b8ff" d="M672.21,-208.52C648.43,-194.63 613.28,-174.11 593.32,-162.45"/>
<polygon fill="#63b8ff" stroke="#63b8ff" points="670.22,-211.41 680.62,-213.43 673.75,-205.37 670.22,-211.41"/>
</g>
<!-- Node21 -->
<g id="node15" class="node">
<title>Node21</title>
<g id="a_node15"><a xlink:href="d__jnt__col_8cpp.html" target="_top" xlink:title=" ">
<polygon fill="white" stroke="#666666" points="746,-162 648,-162 648,-143 746,-143 746,-162"/>
<text text-anchor="middle" x="697" y="-150" font-family="Helvetica,sans-Serif" font-size="10.00">src/d/d_jnt_col.cpp</text>
</a>
</g>
</g>
<!-- Node10&#45;&gt;Node21 -->
<g id="edge17" class="edge">
<title>Node10&#45;&gt;Node21</title>
<path fill="none" stroke="#63b8ff" d="M697,-202.8C697,-189.44 697,-172.59 697,-162.45"/>
<polygon fill="#63b8ff" stroke="#63b8ff" points="693.5,-202.68 697,-212.68 700.5,-202.68 693.5,-202.68"/>
</g>
<!-- Node11&#45;&gt;Node6 -->
<g id="edge11" class="edge">
<title>Node11&#45;&gt;Node6</title>
<path fill="none" stroke="#63b8ff" d="M1519.26,-139.27C1509.52,-136.45 1498.94,-133.77 1489,-132 1243.2,-88.35 944.67,-82.24 818.71,-81.77"/>
<polygon fill="#63b8ff" stroke="#63b8ff" points="1518.18,-142.6 1528.77,-142.15 1520.21,-135.9 1518.18,-142.6"/>
</g>
<!-- Node11&#45;&gt;Node9 -->
<g id="edge13" class="edge">
<title>Node11&#45;&gt;Node9</title>
<path fill="none" stroke="#63b8ff" d="M1515.08,-139.33C1506.48,-136.84 1497.46,-134.29 1489,-132 1432.96,-116.81 1367.6,-100.69 1327.52,-90.99"/>
<polygon fill="#63b8ff" stroke="#63b8ff" points="1514.02,-142.66 1524.6,-142.1 1515.98,-135.94 1514.02,-142.66"/>
</g>
<!-- Node16 -->
<g id="node12" class="node">
<title>Node16</title>
<g id="a_node12"><a xlink:href="d__meter2__draw_8cpp.html" target="_top" xlink:title=" ">
<polygon fill="white" stroke="#666666" points="3206,-96 3096,-96 3096,-66 3206,-66 3206,-96"/>
<text text-anchor="start" x="3104" y="-84" font-family="Helvetica,sans-Serif" font-size="10.00">src/d/meter/d_meter2</text>
<text text-anchor="middle" x="3151" y="-73" font-family="Helvetica,sans-Serif" font-size="10.00">_draw.cpp</text>
</a>
</g>
</g>
<!-- Node11&#45;&gt;Node16 -->
<g id="edge12" class="edge">
<title>Node11&#45;&gt;Node16</title>
<path fill="none" stroke="#63b8ff" d="M1591.88,-139.26C1601.84,-136.36 1612.74,-133.63 1623,-132 1697.01,-120.21 2829.96,-90.3 3095.58,-83.42"/>
<polygon fill="#63b8ff" stroke="#63b8ff" points="1591.09,-135.85 1582.56,-142.13 1593.14,-142.54 1591.09,-135.85"/>
</g>
<!-- Node18&#45;&gt;Node4 -->
<g id="edge15" class="edge">
<title>Node18&#45;&gt;Node4</title>
<path fill="none" stroke="#63b8ff" d="M456.19,-120.78C458.39,-109.87 460.69,-98.42 462.22,-90.82"/>
<polygon fill="#63b8ff" stroke="#63b8ff" points="452.82,-119.79 454.27,-130.29 459.68,-121.17 452.82,-119.79"/>
</g>
<!-- Node23 -->
<g id="node17" class="node">
<title>Node23</title>
<g id="a_node17"><a xlink:href="d__kankyo_8h.html" target="_top" xlink:title=" ">
<polygon fill="#fff0f0" stroke="red" points="2241,-96 2143,-96 2143,-66 2241,-66 2241,-96"/>
<text text-anchor="start" x="2151" y="-84" font-family="Helvetica,sans-Serif" font-size="10.00">include/d/kankyo/d</text>
<text text-anchor="middle" x="2192" y="-73" font-family="Helvetica,sans-Serif" font-size="10.00">_kankyo.h</text>
</a>
</g>
</g>
<!-- Node22&#45;&gt;Node23 -->
<g id="edge19" class="edge">
<title>Node22&#45;&gt;Node23</title>
<path fill="none" stroke="#63b8ff" d="M2302.98,-132.41C2277.93,-121.03 2246.63,-106.81 2223.66,-96.38"/>
<polygon fill="#63b8ff" stroke="#63b8ff" points="2301.37,-135.52 2311.92,-136.47 2304.26,-129.15 2301.37,-135.52"/>
</g>
<!-- Node161 -->
<g id="node18" class="node">
<title>Node161</title>
<g id="a_node18"><a xlink:href="d__kankyo__wether_8cpp.html" target="_top" xlink:title=" ">
<polygon fill="white" stroke="#666666" points="2288,-30 2172,-30 2172,0 2288,0 2288,-30"/>
<text text-anchor="start" x="2180" y="-18" font-family="Helvetica,sans-Serif" font-size="10.00">src/d/kankyo/d_kankyo</text>
<text text-anchor="middle" x="2230" y="-7" font-family="Helvetica,sans-Serif" font-size="10.00">_wether.cpp</text>
</a>
</g>
</g>
<!-- Node22&#45;&gt;Node161 -->
<g id="edge23" class="edge">
<title>Node22&#45;&gt;Node161</title>
<path fill="none" stroke="#63b8ff" d="M2320.49,-129.4C2310.06,-119.56 2298.02,-107.59 2288,-96 2269.26,-74.33 2250.29,-46.89 2239.36,-30.43"/>
<polygon fill="#63b8ff" stroke="#63b8ff" points="2317.97,-131.84 2327.68,-136.08 2322.74,-126.71 2317.97,-131.84"/>
</g>
<!-- Node145 -->
<g id="node19" class="node">
<title>Node145</title>
<g id="a_node19"><a xlink:href="d__kyeff_8cpp.html" target="_top" xlink:title=" ">
<polygon fill="white" stroke="#666666" points="2501,-90.5 2411,-90.5 2411,-71.5 2501,-71.5 2501,-90.5"/>
<text text-anchor="middle" x="2456" y="-78.5" font-family="Helvetica,sans-Serif" font-size="10.00">src/d/d_kyeff.cpp</text>
</a>
</g>
</g>
<!-- Node22&#45;&gt;Node145 -->
<g id="edge21" class="edge">
<title>Node22&#45;&gt;Node145</title>
<path fill="none" stroke="#63b8ff" d="M2377.65,-131.06C2398.97,-117.71 2425.73,-100.95 2441.82,-90.88"/>
<polygon fill="#63b8ff" stroke="#63b8ff" points="2375.9,-128.02 2369.28,-136.3 2379.62,-133.96 2375.9,-128.02"/>
</g>
<!-- Node299 -->
<g id="node20" class="node">
<title>Node299</title>
<g id="a_node20"><a xlink:href="d__kyeff2_8cpp.html" target="_top" xlink:title=" ">
<polygon fill="white" stroke="#666666" points="2392.5,-90.5 2297.5,-90.5 2297.5,-71.5 2392.5,-71.5 2392.5,-90.5"/>
<text text-anchor="middle" x="2345" y="-78.5" font-family="Helvetica,sans-Serif" font-size="10.00">src/d/d_kyeff2.cpp</text>
</a>
</g>
</g>
<!-- Node22&#45;&gt;Node299 -->
<g id="edge22" class="edge">
<title>Node22&#45;&gt;Node299</title>
<path fill="none" stroke="#63b8ff" d="M2345,-125.96C2345,-113.57 2345,-99.49 2345,-90.68"/>
<polygon fill="#63b8ff" stroke="#63b8ff" points="2341.5,-125.59 2345,-135.59 2348.5,-125.59 2341.5,-125.59"/>
</g>
<!-- Node23&#45;&gt;Node161 -->
<g id="edge20" class="edge">
<title>Node23&#45;&gt;Node161</title>
<path fill="none" stroke="#63b8ff" d="M2206.18,-56.11C2211.37,-47.38 2217.07,-37.78 2221.59,-30.16"/>
<polygon fill="#63b8ff" stroke="#63b8ff" points="2203.3,-54.11 2201.21,-64.49 2209.32,-57.68 2203.3,-54.11"/>
</g>
<!-- Node300&#45;&gt;Node7 -->
<g id="edge35" class="edge">
<title>Node300&#45;&gt;Node7</title>
<path fill="none" stroke="#63b8ff" d="M2933.32,-221.78C2693.54,-217.5 1936.88,-201.84 1831,-173 1793.59,-162.81 1789.16,-148.33 1754,-132 1719.87,-116.15 1679.23,-100.46 1653.77,-91"/>
<polygon fill="#63b8ff" stroke="#63b8ff" points="2933.1,-225.28 2943.16,-221.96 2933.23,-218.28 2933.1,-225.28"/>
</g>
<!-- Node300&#45;&gt;Node16 -->
<g id="edge36" class="edge">
<title>Node300&#45;&gt;Node16</title>
<path fill="none" stroke="#63b8ff" d="M3078.88,-223.3C3250.09,-223.25 3666.71,-218.4 3709,-173 3721.42,-159.67 3721.3,-145.45 3709,-132 3675.49,-95.35 3340.25,-85.35 3206.08,-82.81"/>
<polygon fill="#63b8ff" stroke="#63b8ff" points="3078.99,-219.8 3068.99,-223.3 3078.99,-226.8 3078.99,-219.8"/>
</g>
<!-- Node140 -->
<g id="node22" class="node">
<title>Node140</title>
<g id="a_node22"><a xlink:href="d__gameover_8cpp.html" target="_top" xlink:title=" ">
<polygon fill="white" stroke="#666666" points="3869.5,-162 3756.5,-162 3756.5,-143 3869.5,-143 3869.5,-162"/>
<text text-anchor="middle" x="3813" y="-150" font-family="Helvetica,sans-Serif" font-size="10.00">src/d/d_gameover.cpp</text>
</a>
</g>
</g>
<!-- Node300&#45;&gt;Node140 -->
<g id="edge25" class="edge">
<title>Node300&#45;&gt;Node140</title>
<path fill="none" stroke="#63b8ff" d="M3078.25,-222.87C3210.77,-221.57 3501.21,-213.82 3742,-173 3756.49,-170.54 3772.29,-166.36 3785.3,-162.49"/>
<polygon fill="#63b8ff" stroke="#63b8ff" points="3078.55,-219.37 3068.58,-222.95 3078.61,-226.37 3078.55,-219.37"/>
</g>
<!-- Node143 -->
<g id="node23" class="node">
<title>Node143</title>
<g id="a_node23"><a xlink:href="d__kantera__icon__meter_8cpp.html" target="_top" xlink:title=" ">
<polygon fill="white" stroke="#666666" points="3994.5,-167.5 3887.5,-167.5 3887.5,-137.5 3994.5,-137.5 3994.5,-167.5"/>
<text text-anchor="start" x="3895.5" y="-155.5" font-family="Helvetica,sans-Serif" font-size="10.00">src/d/d_kantera_icon</text>
<text text-anchor="middle" x="3941" y="-144.5" font-family="Helvetica,sans-Serif" font-size="10.00">_meter.cpp</text>
</a>
</g>
</g>
<!-- Node300&#45;&gt;Node143 -->
<g id="edge26" class="edge">
<title>Node300&#45;&gt;Node143</title>
<path fill="none" stroke="#63b8ff" d="M3078.8,-221.1C3259.56,-216.02 3725.32,-200.58 3878,-173 3884.99,-171.74 3892.28,-169.94 3899.33,-167.95"/>
<polygon fill="#63b8ff" stroke="#63b8ff" points="3078.72,-217.6 3068.82,-221.38 3078.91,-224.6 3078.72,-217.6"/>
</g>
<!-- Node163 -->
<g id="node24" class="node">
<title>Node163</title>
<g id="a_node24"><a xlink:href="d__map__path__dmap_8cpp.html" target="_top" xlink:title=" ">
<polygon fill="white" stroke="#666666" points="2278,-167.5 2162,-167.5 2162,-137.5 2278,-137.5 2278,-167.5"/>
<text text-anchor="start" x="2170" y="-155.5" font-family="Helvetica,sans-Serif" font-size="10.00">src/d/map/d_map_path</text>
<text text-anchor="middle" x="2220" y="-144.5" font-family="Helvetica,sans-Serif" font-size="10.00">_dmap.cpp</text>
</a>
</g>
</g>
<!-- Node300&#45;&gt;Node163 -->
<g id="edge27" class="edge">
<title>Node300&#45;&gt;Node163</title>
<path fill="none" stroke="#63b8ff" d="M2933.47,-223.06C2803.06,-222.03 2520.78,-214.65 2287,-173 2279.72,-171.7 2272.11,-169.92 2264.74,-167.95"/>
<polygon fill="#63b8ff" stroke="#63b8ff" points="2933.33,-226.55 2943.35,-223.12 2933.37,-219.55 2933.33,-226.55"/>
</g>
<!-- Node165 -->
<g id="node25" class="node">
<title>Node165</title>
<g id="a_node25"><a xlink:href="d__menu__calibration_8cpp.html" target="_top" xlink:title=" ">
<polygon fill="white" stroke="#666666" points="2582,-162 2412,-162 2412,-143 2582,-143 2582,-162"/>
<text text-anchor="middle" x="2497" y="-150" font-family="Helvetica,sans-Serif" font-size="10.00">src/d/menu/d_menu_calibration.cpp</text>
</a>
</g>
</g>
<!-- Node300&#45;&gt;Node165 -->
<g id="edge28" class="edge">
<title>Node300&#45;&gt;Node165</title>
<path fill="none" stroke="#63b8ff" d="M2933.26,-216.12C2850.19,-207.83 2710.36,-192.53 2591,-173 2572.91,-170.04 2553.01,-166.02 2536.19,-162.4"/>
<polygon fill="#63b8ff" stroke="#63b8ff" points="2932.79,-219.59 2943.09,-217.09 2933.48,-212.62 2932.79,-219.59"/>
</g>
<!-- Node166 -->
<g id="node26" class="node">
<title>Node166</title>
<g id="a_node26"><a xlink:href="d__menu__collect_8cpp.html" target="_top" xlink:title=" ">
<polygon fill="white" stroke="#666666" points="2143.5,-162 1988.5,-162 1988.5,-143 2143.5,-143 2143.5,-162"/>
<text text-anchor="middle" x="2066" y="-150" font-family="Helvetica,sans-Serif" font-size="10.00">src/d/menu/d_menu_collect.cpp</text>
</a>
</g>
</g>
<!-- Node300&#45;&gt;Node166 -->
<g id="edge29" class="edge">
<title>Node300&#45;&gt;Node166</title>
<path fill="none" stroke="#63b8ff" d="M2933.51,-222.7C2785.89,-221.22 2440.06,-213.31 2153,-173 2135.37,-170.52 2116.03,-166.34 2100.06,-162.48"/>
<polygon fill="#63b8ff" stroke="#63b8ff" points="2933.09,-226.19 2943.13,-222.79 2933.16,-219.19 2933.09,-226.19"/>
</g>
<!-- Node167 -->
<g id="node27" class="node">
<title>Node167</title>
<g id="a_node27"><a xlink:href="d__menu__fishing_8cpp.html" target="_top" xlink:title=" ">
<polygon fill="white" stroke="#666666" points="2754,-162 2600,-162 2600,-143 2754,-143 2754,-162"/>
<text text-anchor="middle" x="2677" y="-150" font-family="Helvetica,sans-Serif" font-size="10.00">src/d/menu/d_menu_fishing.cpp</text>
</a>
</g>
</g>
<!-- Node300&#45;&gt;Node167 -->
<g id="edge30" class="edge">
<title>Node300&#45;&gt;Node167</title>
<path fill="none" stroke="#63b8ff" d="M2933.52,-208.48C2885.17,-198.7 2820.22,-185.37 2763,-173 2747.59,-169.67 2730.66,-165.86 2715.92,-162.5"/>
<polygon fill="#63b8ff" stroke="#63b8ff" points="2932.53,-211.85 2943.02,-210.4 2933.92,-204.99 2932.53,-211.85"/>
</g>
<!-- Node168 -->
<g id="node28" class="node">
<title>Node168</title>
<g id="a_node28"><a xlink:href="d__menu__insect_8cpp.html" target="_top" xlink:title=" ">
<polygon fill="white" stroke="#666666" points="2924,-162 2772,-162 2772,-143 2924,-143 2924,-162"/>
<text text-anchor="middle" x="2848" y="-150" font-family="Helvetica,sans-Serif" font-size="10.00">src/d/menu/d_menu_insect.cpp</text>
</a>
</g>
</g>
<!-- Node300&#45;&gt;Node168 -->
<g id="edge31" class="edge">
<title>Node300&#45;&gt;Node168</title>
<path fill="none" stroke="#63b8ff" d="M2962.78,-203.99C2931.96,-190.43 2891.91,-172.81 2868.18,-162.38"/>
<polygon fill="#63b8ff" stroke="#63b8ff" points="2961.31,-207.17 2971.88,-207.99 2964.13,-200.76 2961.31,-207.17"/>
</g>
<!-- Node169 -->
<g id="node29" class="node">
<title>Node169</title>
<g id="a_node29"><a xlink:href="d__menu__map__common_8cpp.html" target="_top" xlink:title=" ">
<polygon fill="white" stroke="#666666" points="3069.5,-167.5 2942.5,-167.5 2942.5,-137.5 3069.5,-137.5 3069.5,-167.5"/>
<text text-anchor="start" x="2950.5" y="-155.5" font-family="Helvetica,sans-Serif" font-size="10.00">src/d/menu/d_menu_map</text>
<text text-anchor="middle" x="3006" y="-144.5" font-family="Helvetica,sans-Serif" font-size="10.00">_common.cpp</text>
</a>
</g>
</g>
<!-- Node300&#45;&gt;Node169 -->
<g id="edge32" class="edge">
<title>Node300&#45;&gt;Node169</title>
<path fill="none" stroke="#63b8ff" d="M3006,-197.26C3006,-187.33 3006,-176.36 3006,-167.88"/>
<polygon fill="#63b8ff" stroke="#63b8ff" points="3002.5,-197.09 3006,-207.09 3009.5,-197.09 3002.5,-197.09"/>
</g>
<!-- Node171 -->
<g id="node30" class="node">
<title>Node171</title>
<g id="a_node30"><a xlink:href="d__menu__skill_8cpp.html" target="_top" xlink:title=" ">
<polygon fill="white" stroke="#666666" points="3230.5,-162 3087.5,-162 3087.5,-143 3230.5,-143 3230.5,-162"/>
<text text-anchor="middle" x="3159" y="-150" font-family="Helvetica,sans-Serif" font-size="10.00">src/d/menu/d_menu_skill.cpp</text>
</a>
</g>
</g>
<!-- Node300&#45;&gt;Node171 -->
<g id="edge33" class="edge">
<title>Node300&#45;&gt;Node171</title>
<path fill="none" stroke="#63b8ff" d="M3047.85,-203.99C3077.7,-190.43 3116.48,-172.81 3139.45,-162.38"/>
<polygon fill="#63b8ff" stroke="#63b8ff" points="3046.74,-200.65 3039.08,-207.97 3049.63,-207.02 3046.74,-200.65"/>
</g>
<!-- Node56 -->
<g id="node31" class="node">
<title>Node56</title>
<g id="a_node31"><a xlink:href="d__menu__window_8cpp.html" target="_top" xlink:title=" ">
<polygon fill="white" stroke="#666666" points="3407.5,-162 3248.5,-162 3248.5,-143 3407.5,-143 3407.5,-162"/>
<text text-anchor="middle" x="3328" y="-150" font-family="Helvetica,sans-Serif" font-size="10.00">src/d/menu/d_menu_window.cpp</text>
</a>
</g>
</g>
<!-- Node300&#45;&gt;Node56 -->
<g id="edge34" class="edge">
<title>Node300&#45;&gt;Node56</title>
<path fill="none" stroke="#63b8ff" d="M3078.4,-207.55C3124.41,-197.71 3185.21,-184.66 3239,-173 3254.77,-169.58 3272.1,-165.79 3287.25,-162.47"/>
<polygon fill="#63b8ff" stroke="#63b8ff" points="3077.86,-204.08 3068.82,-209.6 3079.33,-210.93 3077.86,-204.08"/>
</g>
<!-- Node301 -->
<g id="node32" class="node">
<title>Node301</title>
<g id="a_node32"><a xlink:href="d__meter__HIO_8cpp.html" target="_top" xlink:title=" ">
<polygon fill="white" stroke="#666666" points="3530,-167.5 3426,-167.5 3426,-137.5 3530,-137.5 3530,-167.5"/>
<text text-anchor="start" x="3434" y="-155.5" font-family="Helvetica,sans-Serif" font-size="10.00">src/d/meter/d_meter</text>
<text text-anchor="middle" x="3478" y="-144.5" font-family="Helvetica,sans-Serif" font-size="10.00">_HIO.cpp</text>
</a>
</g>
</g>
<!-- Node300&#45;&gt;Node301 -->
<g id="edge37" class="edge">
<title>Node300&#45;&gt;Node301</title>
<path fill="none" stroke="#63b8ff" d="M3078.62,-218.19C3161.1,-211.79 3299.36,-198.23 3416,-173 3422.4,-171.62 3429.08,-169.86 3435.58,-167.97"/>
<polygon fill="#63b8ff" stroke="#63b8ff" points="3078.58,-214.68 3068.87,-218.93 3079.11,-221.66 3078.58,-214.68"/>
</g>
<!-- Node30 -->
<g id="node33" class="node">
<title>Node30</title>
<g id="a_node33"><a xlink:href="d__shop__system_8cpp.html" target="_top" xlink:title=" ">
<polygon fill="white" stroke="#666666" points="3700,-162 3548,-162 3548,-143 3700,-143 3700,-162"/>
<text text-anchor="middle" x="3624" y="-150" font-family="Helvetica,sans-Serif" font-size="10.00">src/d/shop/d_shop_system.cpp</text>
</a>
</g>
</g>
<!-- Node300&#45;&gt;Node30 -->
<g id="edge38" class="edge">
<title>Node300&#45;&gt;Node30</title>
<path fill="none" stroke="#63b8ff" d="M3078.67,-219.23C3181.62,-213.2 3375.6,-199.29 3539,-173 3555.89,-170.28 3574.43,-166.16 3589.88,-162.41"/>
<polygon fill="#63b8ff" stroke="#63b8ff" points="3078.78,-215.72 3068.99,-219.79 3079.18,-222.71 3078.78,-215.72"/>
</g>
<!-- Node302&#45;&gt;Node11 -->
<g id="edge40" class="edge">
<title>Node302&#45;&gt;Node11</title>
<path fill="none" stroke="#63b8ff" d="M4143.27,-222.25C3760.49,-217.64 1751.33,-192.56 1623,-173 1608.75,-170.83 1593.27,-166.46 1580.78,-162.41"/>
<polygon fill="#63b8ff" stroke="#63b8ff" points="4143.09,-225.75 4153.13,-222.37 4143.17,-218.75 4143.09,-225.75"/>
</g>
<!-- Node28 -->
<g id="node35" class="node">
<title>Node28</title>
<g id="a_node35"><a xlink:href="d__a__npc_8h.html" target="_top" xlink:title=" ">
<polygon fill="#fff0f0" stroke="red" points="4394.5,-162 4283.5,-162 4283.5,-143 4394.5,-143 4394.5,-162"/>
<text text-anchor="middle" x="4339" y="-150" font-family="Helvetica,sans-Serif" font-size="10.00">include/d/a/d_a_npc.h</text>
</a>
</g>
</g>
<!-- Node302&#45;&gt;Node28 -->
<g id="edge41" class="edge">
<title>Node302&#45;&gt;Node28</title>
<path fill="none" stroke="#63b8ff" d="M4243.74,-203.28C4269.5,-189.82 4302.39,-172.63 4322.01,-162.38"/>
<polygon fill="#63b8ff" stroke="#63b8ff" points="4242.14,-200.17 4234.9,-207.9 4245.38,-206.37 4242.14,-200.17"/>
</g>
<!-- Node229 -->
<g id="node36" class="node">
<title>Node229</title>
<g id="a_node36"><a xlink:href="d__a__boomerang_8h.html" target="_top" xlink:title=" ">
<polygon fill="#fff0f0" stroke="red" points="4561.5,-167.5 4412.5,-167.5 4412.5,-137.5 4561.5,-137.5 4561.5,-167.5"/>
<text text-anchor="start" x="4420.5" y="-155.5" font-family="Helvetica,sans-Serif" font-size="10.00">include/rel/d/a/d_a</text>
<text text-anchor="middle" x="4487" y="-144.5" font-family="Helvetica,sans-Serif" font-size="10.00">_boomerang/d_a_boomerang.h</text>
</a>
</g>
</g>
<!-- Node302&#45;&gt;Node229 -->
<g id="edge42" class="edge">
<title>Node302&#45;&gt;Node229</title>
<path fill="none" stroke="#63b8ff" d="M4268.38,-207.57C4316.31,-195.72 4382.03,-179.46 4428.86,-167.88"/>
<polygon fill="#63b8ff" stroke="#63b8ff" points="4267.55,-204.17 4258.68,-209.97 4269.23,-210.97 4267.55,-204.17"/>
</g>
<!-- Node69 -->
<g id="node37" class="node">
<title>Node69</title>
<g id="a_node37"><a xlink:href="d__a__cstaF_8h.html" target="_top" xlink:title=" ">
<polygon fill="white" stroke="#666666" points="4682.5,-167.5 4579.5,-167.5 4579.5,-137.5 4682.5,-137.5 4682.5,-167.5"/>
<text text-anchor="start" x="4587.5" y="-155.5" font-family="Helvetica,sans-Serif" font-size="10.00">include/rel/d/a/d_a</text>
<text text-anchor="middle" x="4631" y="-144.5" font-family="Helvetica,sans-Serif" font-size="10.00">_cstaF/d_a_cstaF.h</text>
</a>
</g>
</g>
<!-- Node302&#45;&gt;Node69 -->
<g id="edge43" class="edge">
<title>Node302&#45;&gt;Node69</title>
<path fill="none" stroke="#63b8ff" d="M4268.41,-208.72C4402.48,-186.31 4441.19,-201.47 4571,-173 4577.31,-171.62 4583.9,-169.83 4590.31,-167.91"/>
<polygon fill="#63b8ff" stroke="#63b8ff" points="4268.07,-205.23 4258.8,-210.37 4269.25,-212.13 4268.07,-205.23"/>
</g>
<!-- Node286 -->
<g id="node38" class="node">
<title>Node286</title>
<g id="a_node38"><a xlink:href="d__a__cstatue_8h.html" target="_top" xlink:title=" ">
<polygon fill="white" stroke="#666666" points="4819,-167.5 4701,-167.5 4701,-137.5 4819,-137.5 4819,-167.5"/>
<text text-anchor="start" x="4709" y="-155.5" font-family="Helvetica,sans-Serif" font-size="10.00">include/rel/d/a/d_a</text>
<text text-anchor="middle" x="4760" y="-144.5" font-family="Helvetica,sans-Serif" font-size="10.00">_cstatue/d_a_cstatue.h</text>
</a>
</g>
</g>
<!-- Node302&#45;&gt;Node286 -->
<g id="edge44" class="edge">
<title>Node302&#45;&gt;Node286</title>
<path fill="none" stroke="#63b8ff" d="M4268.63,-208.76C4455.74,-180.41 4508.77,-206.68 4692,-173 4699.25,-171.67 4706.83,-169.89 4714.2,-167.95"/>
<polygon fill="#63b8ff" stroke="#63b8ff" points="4268.13,-205.29 4258.79,-210.28 4269.2,-212.21 4268.13,-205.29"/>
</g>
<!-- Node77 -->
<g id="node39" class="node">
<title>Node77</title>
<g id="a_node39"><a xlink:href="d__a__spinner_8h.html" target="_top" xlink:title=" ">
<polygon fill="#fff0f0" stroke="red" points="4129,-167.5 4013,-167.5 4013,-137.5 4129,-137.5 4129,-167.5"/>
<text text-anchor="start" x="4021" y="-155.5" font-family="Helvetica,sans-Serif" font-size="10.00">include/rel/d/a/d_a</text>
<text text-anchor="middle" x="4071" y="-144.5" font-family="Helvetica,sans-Serif" font-size="10.00">_spinner/d_a_spinner.h</text>
</a>
</g>
</g>
<!-- Node302&#45;&gt;Node77 -->
<g id="edge45" class="edge">
<title>Node302&#45;&gt;Node77</title>
<path fill="none" stroke="#63b8ff" d="M4168.04,-203.46C4146.08,-192.15 4118.93,-178.17 4098.94,-167.88"/>
<polygon fill="#63b8ff" stroke="#63b8ff" points="4166.19,-206.44 4176.68,-207.91 4169.39,-200.22 4166.19,-206.44"/>
</g>
<!-- Node303 -->
<g id="node40" class="node">
<title>Node303</title>
<g id="a_node40"><a xlink:href="d__particle__copoly_8cpp.html" target="_top" xlink:title=" ">
<polygon fill="white" stroke="#666666" points="4265,-167.5 4147,-167.5 4147,-137.5 4265,-137.5 4265,-167.5"/>
<text text-anchor="start" x="4155" y="-155.5" font-family="Helvetica,sans-Serif" font-size="10.00">src/d/particle/d_particle</text>
<text text-anchor="middle" x="4206" y="-144.5" font-family="Helvetica,sans-Serif" font-size="10.00">_copoly.cpp</text>
</a>
</g>
</g>
<!-- Node302&#45;&gt;Node303 -->
<g id="edge46" class="edge">
<title>Node302&#45;&gt;Node303</title>
<path fill="none" stroke="#63b8ff" d="M4206,-197.26C4206,-187.33 4206,-176.36 4206,-167.88"/>
<polygon fill="#63b8ff" stroke="#63b8ff" points="4202.5,-197.09 4206,-207.09 4209.5,-197.09 4202.5,-197.09"/>
</g>
<!-- Node304&#45;&gt;Node21 -->
<g id="edge56" class="edge">
<title>Node304&#45;&gt;Node21</title>
<path fill="none" stroke="#63b8ff" d="M1479.87,-220.74C1306.12,-215.29 892.25,-199.86 755,-173 742.91,-170.63 729.86,-166.41 719.22,-162.49"/>
<polygon fill="#63b8ff" stroke="#63b8ff" points="1479.59,-224.23 1489.7,-221.05 1479.81,-217.24 1479.59,-224.23"/>
</g>
<!-- Node304&#45;&gt;Node163 -->
<g id="edge58" class="edge">
<title>Node304&#45;&gt;Node163</title>
<path fill="none" stroke="#63b8ff" d="M1636.32,-221.27C1750.57,-217.65 1969.21,-206.57 2152,-173 2159.25,-171.67 2166.83,-169.89 2174.2,-167.95"/>
<polygon fill="#63b8ff" stroke="#63b8ff" points="1636.33,-217.77 1626.44,-221.57 1636.54,-224.76 1636.33,-217.77"/>
</g>
<!-- Node304&#45;&gt;Node166 -->
<g id="edge59" class="edge">
<title>Node304&#45;&gt;Node166</title>
<path fill="none" stroke="#63b8ff" d="M1635.99,-216.15C1720.76,-208.14 1860.04,-193.34 1979,-173 1995.78,-170.13 2014.21,-166.13 2029.76,-162.49"/>
<polygon fill="#63b8ff" stroke="#63b8ff" points="1635.79,-212.65 1626.16,-217.07 1636.45,-219.62 1635.79,-212.65"/>
</g>
<!-- Node305 -->
<g id="node42" class="node">
<title>Node305</title>
<g id="a_node42"><a xlink:href="m__Do__ext_8h.html" target="_top" xlink:title=" ">
<polygon fill="#fff0f0" stroke="red" points="1970,-162 1840,-162 1840,-143 1970,-143 1970,-162"/>
<text text-anchor="middle" x="1905" y="-150" font-family="Helvetica,sans-Serif" font-size="10.00">include/m_Do/m_Do_ext.h</text>
</a>
</g>
</g>
<!-- Node304&#45;&gt;Node305 -->
<g id="edge48" class="edge">
<title>Node304&#45;&gt;Node305</title>
<path fill="none" stroke="#63b8ff" d="M1622.28,-212.08C1676.7,-202.58 1756.69,-188.01 1826,-173 1840.64,-169.83 1856.7,-165.94 1870.49,-162.48"/>
<polygon fill="#63b8ff" stroke="#63b8ff" points="1621.81,-208.61 1612.56,-213.77 1623.01,-215.5 1621.81,-208.61"/>
</g>
<!-- Node199 -->
<g id="node43" class="node">
<title>Node199</title>
<g id="a_node43"><a xlink:href="d__a__do_8h.html" target="_top" xlink:title=" ">
<polygon fill="white" stroke="#666666" points="1906,-96 1810,-96 1810,-66 1906,-66 1906,-96"/>
<text text-anchor="start" x="1818" y="-84" font-family="Helvetica,sans-Serif" font-size="10.00">include/rel/d/a/d_a</text>
<text text-anchor="middle" x="1858" y="-73" font-family="Helvetica,sans-Serif" font-size="10.00">_do/d_a_do.h</text>
</a>
</g>
</g>
<!-- Node304&#45;&gt;Node199 -->
<g id="edge51" class="edge">
<title>Node304&#45;&gt;Node199</title>
<path fill="none" stroke="#63b8ff" d="M1635.19,-211.96C1672.58,-204.49 1717.23,-192.35 1754,-173 1792.01,-153.01 1827.71,-116.48 1845.75,-96.32"/>
<polygon fill="#63b8ff" stroke="#63b8ff" points="1634.99,-208.43 1625.83,-213.75 1636.31,-215.31 1634.99,-208.43"/>
</g>
<!-- Node349 -->
<g id="node44" class="node">
<title>Node349</title>
<g id="a_node44"><a xlink:href="J3DJoint_8cpp.html" target="_top" xlink:title=" ">
<polygon fill="white" stroke="#666666" points="1214,-167.5 1056,-167.5 1056,-137.5 1214,-137.5 1214,-167.5"/>
<text text-anchor="start" x="1064" y="-155.5" font-family="Helvetica,sans-Serif" font-size="10.00">libs/JSystem/J3DGraphAnimator</text>
<text text-anchor="middle" x="1135" y="-144.5" font-family="Helvetica,sans-Serif" font-size="10.00">/J3DJoint.cpp</text>
</a>
</g>
</g>
<!-- Node304&#45;&gt;Node349 -->
<g id="edge52" class="edge">
<title>Node304&#45;&gt;Node349</title>
<path fill="none" stroke="#63b8ff" d="M1479.98,-212.93C1411.92,-203.77 1310.63,-189.23 1223,-173 1214.85,-171.49 1206.29,-169.77 1197.86,-167.99"/>
<polygon fill="#63b8ff" stroke="#63b8ff" points="1479.16,-216.35 1489.53,-214.21 1480.09,-209.41 1479.16,-216.35"/>
</g>
<!-- Node132 -->
<g id="node45" class="node">
<title>Node132</title>
<g id="a_node45"><a xlink:href="d__a__obj__item_8cpp.html" target="_top" xlink:title=" ">
<polygon fill="white" stroke="#666666" points="889.5,-162 764.5,-162 764.5,-143 889.5,-143 889.5,-162"/>
<text text-anchor="middle" x="827" y="-150" font-family="Helvetica,sans-Serif" font-size="10.00">src/d/a/d_a_obj_item.cpp</text>
</a>
</g>
</g>
<!-- Node304&#45;&gt;Node132 -->
<g id="edge53" class="edge">
<title>Node304&#45;&gt;Node132</title>
<path fill="none" stroke="#63b8ff" d="M1479.84,-221.83C1355.84,-218.91 1106.8,-208.69 899,-173 884.32,-170.48 868.3,-166.29 855.11,-162.44"/>
<polygon fill="#63b8ff" stroke="#63b8ff" points="1479.49,-225.32 1489.57,-222.05 1479.65,-218.32 1479.49,-225.32"/>
</g>
<!-- Node134 -->
<g id="node46" class="node">
<title>Node134</title>
<g id="a_node46"><a xlink:href="d__bg__s__movebg__actor_8cpp.html" target="_top" xlink:title=" ">
<polygon fill="white" stroke="#666666" points="1358,-167.5 1232,-167.5 1232,-137.5 1358,-137.5 1358,-167.5"/>
<text text-anchor="start" x="1240" y="-155.5" font-family="Helvetica,sans-Serif" font-size="10.00">src/d/bg/d_bg_s_movebg</text>
<text text-anchor="middle" x="1295" y="-144.5" font-family="Helvetica,sans-Serif" font-size="10.00">_actor.cpp</text>
</a>
</g>
</g>
<!-- Node304&#45;&gt;Node134 -->
<g id="edge54" class="edge">
<title>Node304&#45;&gt;Node134</title>
<path fill="none" stroke="#63b8ff" d="M1512.57,-211.22C1473.85,-201.16 1416.74,-186.25 1367,-173 1360.87,-171.37 1354.45,-169.64 1348.07,-167.93"/>
<polygon fill="#63b8ff" stroke="#63b8ff" points="1511.45,-214.55 1522.01,-213.67 1513.21,-207.77 1511.45,-214.55"/>
</g>
<!-- Node138 -->
<g id="node47" class="node">
<title>Node138</title>
<g id="a_node47"><a xlink:href="d__drawlist_8cpp.html" target="_top" xlink:title=" ">
<polygon fill="white" stroke="#666666" points="1480,-162 1376,-162 1376,-143 1480,-143 1480,-162"/>
<text text-anchor="middle" x="1428" y="-150" font-family="Helvetica,sans-Serif" font-size="10.00">src/d/d_drawlist.cpp</text>
</a>
</g>
</g>
<!-- Node304&#45;&gt;Node138 -->
<g id="edge55" class="edge">
<title>Node304&#45;&gt;Node138</title>
<path fill="none" stroke="#63b8ff" d="M1531.32,-208.74C1505.31,-194.83 1466.57,-174.12 1444.66,-162.41"/>
<polygon fill="#63b8ff" stroke="#63b8ff" points="1529.47,-211.71 1539.94,-213.34 1532.77,-205.54 1529.47,-211.71"/>
</g>
<!-- Node152 -->
<g id="node48" class="node">
<title>Node152</title>
<g id="a_node48"><a xlink:href="d__simple__model_8cpp.html" target="_top" xlink:title=" ">
<polygon fill="white" stroke="#666666" points="1038,-162 908,-162 908,-143 1038,-143 1038,-162"/>
<text text-anchor="middle" x="973" y="-150" font-family="Helvetica,sans-Serif" font-size="10.00">src/d/d_simple_model.cpp</text>
</a>
</g>
</g>
<!-- Node304&#45;&gt;Node152 -->
<g id="edge57" class="edge">
<title>Node304&#45;&gt;Node152</title>
<path fill="none" stroke="#63b8ff" d="M1480.11,-219.26C1379.45,-213.55 1199.07,-200.29 1047,-173 1032.22,-170.35 1016.07,-166.24 1002.64,-162.47"/>
<polygon fill="#63b8ff" stroke="#63b8ff" points="1479.7,-222.75 1489.88,-219.81 1480.09,-215.76 1479.7,-222.75"/>
</g>
<!-- Node176 -->
<g id="node49" class="node">
<title>Node176</title>
<g id="a_node49"><a xlink:href="d__s__name_8cpp.html" target="_top" xlink:title=" ">
<polygon fill="white" stroke="#666666" points="1745.5,-162 1632.5,-162 1632.5,-143 1745.5,-143 1745.5,-162"/>
<text text-anchor="middle" x="1689" y="-150" font-family="Helvetica,sans-Serif" font-size="10.00">src/d/s/d_s_name.cpp</text>
</a>
</g>
</g>
<!-- Node304&#45;&gt;Node176 -->
<g id="edge60" class="edge">
<title>Node304&#45;&gt;Node176</title>
<path fill="none" stroke="#63b8ff" d="M1584.88,-208.74C1611.09,-194.83 1650.13,-174.12 1672.21,-162.41"/>
<polygon fill="#63b8ff" stroke="#63b8ff" points="1583.39,-205.57 1576.19,-213.35 1586.67,-211.75 1583.39,-205.57"/>
</g>
<!-- Node305&#45;&gt;Node23 -->
<g id="edge49" class="edge">
<title>Node305&#45;&gt;Node23</title>
<path fill="none" stroke="#63b8ff" d="M1948.95,-139.71C1958.82,-137.12 1969.26,-134.43 1979,-132 2035.02,-118.05 2099.61,-103.03 2142.84,-93.14"/>
<polygon fill="#63b8ff" stroke="#63b8ff" points="1948.34,-136.25 1939.57,-142.19 1950.13,-143.02 1948.34,-136.25"/>
</g>
<!-- Node305&#45;&gt;Node199 -->
<g id="edge50" class="edge">
<title>Node305&#45;&gt;Node199</title>
<path fill="none" stroke="#63b8ff" d="M1892.61,-133.19C1884.81,-121.64 1874.87,-106.95 1867.65,-96.27"/>
<polygon fill="#63b8ff" stroke="#63b8ff" points="1889.7,-135.12 1898.2,-141.44 1895.5,-131.2 1889.7,-135.12"/>
</g>
</g>
</svg>
        <g id="navigator" transform="translate(0 0)" fill="#404254">
                <rect fill="#f2f5e9" fill-opacity="0.5" stroke="#606060" stroke-width=".5" x="0" y="0" width="60" height="60"/>
                <use id="zoomplus" xlink:href="#zoomPlus" x="17" y="9" onmousedown="handleZoom(evt,'in')"/>
                <use id="zoomminus" xlink:href="#zoomMin" x="42" y="9" onmousedown="handleZoom(evt,'out')"/>
                <use id="reset" xlink:href="#resetDef" x="30" y="36" onmousedown="handleReset()"/>
                <g id="arrowUp" xlink:href="#dirArrow" transform="translate(30 24)" onmousedown="handlePan(0,-1)">
                  <use xlink:href="#rim" fill="#404040">
                        <set attributeName="fill" to="#808080" begin="arrowUp.mouseover" end="arrowUp.mouseout"/>
                  </use>
                  <path fill="none" stroke="white" stroke-width="1.5" d="M0,-3.0v7 M-2.5,-0.5L0,-3.0L2.5,-0.5"/>
                </g>
                <g id="arrowRight" xlink:href="#dirArrow" transform="rotate(90) translate(36 -43)" onmousedown="handlePan(1,0)">
                  <use xlink:href="#rim" fill="#404040">
                        <set attributeName="fill" to="#808080" begin="arrowRight.mouseover" end="arrowRight.mouseout"/>
                  </use>
                  <path fill="none" stroke="white" stroke-width="1.5" d="M0,-3.0v7 M-2.5,-0.5L0,-3.0L2.5,-0.5"/>
                </g>
                <g id="arrowDown" xlink:href="#dirArrow" transform="rotate(180) translate(-30 -48)" onmousedown="handlePan(0,1)">
                  <use xlink:href="#rim" fill="#404040">
                        <set attributeName="fill" to="#808080" begin="arrowDown.mouseover" end="arrowDown.mouseout"/>
                  </use>
                  <path fill="none" stroke="white" stroke-width="1.5" d="M0,-3.0v7 M-2.5,-0.5L0,-3.0L2.5,-0.5"/>
                </g>
                <g id="arrowLeft" xlink:href="#dirArrow" transform="rotate(270) translate(-36 17)" onmousedown="handlePan(-1,0)">
                  <use xlink:href="#rim" fill="#404040">
                        <set attributeName="fill" to="#808080" begin="arrowLeft.mouseover" end="arrowLeft.mouseout"/>
                  </use>
                  <path fill="none" stroke="white" stroke-width="1.5" d="M0,-3.0v7 M-2.5,-0.5L0,-3.0L2.5,-0.5"/>
                </g>
        </g>
        <svg viewBox="0 0 15 15" width="100%" height="30px" preserveAspectRatio="xMaxYMin meet">
         <g id="arrow_out" transform="scale(0.3 0.3)">
          <a xlink:href="c__sxyz_8h__dep__incl_org.svg" target="_base">
           <rect id="button" ry="5" rx="5" y="6" x="6" height="38" width="38"
                fill="#f2f5e9" fill-opacity="0.5" stroke="#606060" stroke-width="1.0"/>
           <path id="arrow"
             d="M 11.500037,31.436501 C 11.940474,20.09759 22.043105,11.32322 32.158766,21.979434 L 37.068811,17.246167 C 37.068811,17.246167 37.088388,32 37.088388,32 L 22.160133,31.978069 C 22.160133,31.978069 26.997745,27.140456 26.997745,27.140456 C 18.528582,18.264221 13.291696,25.230495 11.500037,31.436501 z"
             style="fill:#404040;"/>
          </a>
         </g>
        </svg>
</svg>
