<?xml version="1.0" encoding="UTF-8" standalone="no"?>
<!DOCTYPE svg PUBLIC "-//W3C//DTD SVG 1.1//EN"
 "http://www.w3.org/Graphics/SVG/1.1/DTD/svg11.dtd">
<!-- Generated by graphviz version 7.0.5 (20221223.1930)
 -->
<!-- Title: include/SSystem/SComponent/c_xyz.h Pages: 1 -->
<!--zoomable 236 -->
<svg id="main" version="1.1" xmlns="http://www.w3.org/2000/svg" xmlns:xlink="http://www.w3.org/1999/xlink" xml:space="preserve" onload="init(evt)">
<style type="text/css"><![CDATA[
.edge:hover path { stroke: red; }
.edge:hover polygon { stroke: red; fill: red; }
]]></style>
<script type="text/javascript"><![CDATA[
var edges = document.getElementsByTagName('g');
if (edges && edges.length) {
  for (var i=0;i<edges.length;i++) {
    if (edges[i].id.substr(0,4)=='edge') {
      edges[i].setAttribute('class','edge');
    }
  }
}
]]></script>
        <defs>
                <circle id="rim" cx="0" cy="0" r="7"/>
                <circle id="rim2" cx="0" cy="0" r="3.5"/>
                <g id="zoomPlus">
                        <use xlink:href="#rim" fill="#404040">
                                <set attributeName="fill" to="#808080" begin="zoomplus.mouseover" end="zoomplus.mouseout"/>
                        </use>
                        <path d="M-4,0h8M0,-4v8" fill="none" stroke="white" stroke-width="1.5" pointer-events="none"/>
                </g>
                <g id="zoomMin">
                        <use xlink:href="#rim" fill="#404040">
                                <set attributeName="fill" to="#808080" begin="zoomminus.mouseover" end="zoomminus.mouseout"/>
                        </use>
                        <path d="M-4,0h8" fill="none" stroke="white" stroke-width="1.5" pointer-events="none"/>
                </g>
                <g id="dirArrow">
                        <path fill="none" stroke="white" stroke-width="1.5" d="M0,-3.0v7 M-2.5,-0.5L0,-3.0L2.5,-0.5"/>
                </g>
               <g id="resetDef">
                       <use xlink:href="#rim2" fill="#404040">
                               <set attributeName="fill" to="#808080" begin="reset.mouseover" end="reset.mouseout"/>
                       </use>
               </g>
        </defs>

<script type="text/javascript">
var viewWidth = 5451;
var viewHeight = 236;
var sectionId = 'dynsection-1';
</script>
<script xlink:href="svgpan.js"/>
<svg id="graph" class="graph">
<g id="viewport">
<title>include/SSystem/SComponent/c_xyz.h</title>
<!-- Node1 -->
<g id="node1" class="node">
<title>Node1</title>
<g id="a_node1"><a xlink:title=" ">
<polygon fill="#999999" stroke="#666666" points="3213,-228 3064,-228 3064,-198 3213,-198 3213,-228"/>
<text text-anchor="start" x="3072" y="-216" font-family="Helvetica,sans-Serif" font-size="10.00">include/SSystem/SComponent</text>
<text text-anchor="middle" x="3138.5" y="-205" font-family="Helvetica,sans-Serif" font-size="10.00">/c_xyz.h</text>
</a>
</g>
</g>
<!-- Node2 -->
<g id="node2" class="node">
<title>Node2</title>
<g id="a_node2"><a xlink:href="J3DStruct_8h.html" target="_top" xlink:title=" ">
<polygon fill="white" stroke="#666666" points="319,-162 184,-162 184,-132 319,-132 319,-162"/>
<text text-anchor="start" x="192" y="-150" font-family="Helvetica,sans-Serif" font-size="10.00">include/JSystem/J3DGraph</text>
<text text-anchor="middle" x="251.5" y="-139" font-family="Helvetica,sans-Serif" font-size="10.00">Base/J3DStruct.h</text>
</a>
</g>
</g>
<!-- Node1&#45;&gt;Node2 -->
<g id="edge1" class="edge">
<title>Node1&#45;&gt;Node2</title>
<path fill="none" stroke="#63b8ff" d="M3052.14,-212.32C2640.73,-213.58 877.01,-215.66 329.5,-162 326.21,-161.68 322.86,-161.29 319.48,-160.86"/>
<polygon fill="#63b8ff" stroke="#63b8ff" points="3052.12,-215.82 3062.11,-212.29 3052.1,-208.82 3052.12,-215.82"/>
</g>
<!-- Node321 -->
<g id="node7" class="node">
<title>Node321</title>
<g id="a_node7"><a xlink:href="c__angle_8h.html" target="_top" xlink:title=" ">
<polygon fill="white" stroke="#666666" points="1633,-162 1484,-162 1484,-132 1633,-132 1633,-162"/>
<text text-anchor="start" x="1492" y="-150" font-family="Helvetica,sans-Serif" font-size="10.00">include/SSystem/SComponent</text>
<text text-anchor="middle" x="1558.5" y="-139" font-family="Helvetica,sans-Serif" font-size="10.00">/c_angle.h</text>
</a>
</g>
</g>
<!-- Node1&#45;&gt;Node321 -->
<g id="edge6" class="edge">
<title>Node1&#45;&gt;Node321</title>
<path fill="none" stroke="#63b8ff" d="M3052.4,-210.06C2833.96,-204.88 2240.49,-189.26 1746.5,-162 1709.25,-159.94 1667.89,-156.94 1633.47,-154.25"/>
<polygon fill="#63b8ff" stroke="#63b8ff" points="3052.17,-213.55 3062.25,-210.29 3052.33,-206.56 3052.17,-213.55"/>
</g>
<!-- Node326 -->
<g id="node11" class="node">
<title>Node326</title>
<g id="a_node11"><a xlink:href="c__bg__s__gnd__chk_8h.html" target="_top" xlink:title=" ">
<polygon fill="white" stroke="#666666" points="1905,-162 1756,-162 1756,-132 1905,-132 1905,-162"/>
<text text-anchor="start" x="1764" y="-150" font-family="Helvetica,sans-Serif" font-size="10.00">include/SSystem/SComponent</text>
<text text-anchor="middle" x="1830.5" y="-139" font-family="Helvetica,sans-Serif" font-size="10.00">/c_bg_s_gnd_chk.h</text>
</a>
</g>
</g>
<!-- Node1&#45;&gt;Node326 -->
<g id="edge10" class="edge">
<title>Node1&#45;&gt;Node326</title>
<path fill="none" stroke="#63b8ff" d="M3052.47,-211.87C2852.89,-210.81 2343.12,-203.87 1919.5,-162 1914.83,-161.54 1910.03,-160.99 1905.2,-160.39"/>
<polygon fill="#63b8ff" stroke="#63b8ff" points="3052.21,-215.36 3062.22,-211.91 3052.24,-208.36 3052.21,-215.36"/>
</g>
<!-- Node331 -->
<g id="node14" class="node">
<title>Node331</title>
<g id="a_node14"><a xlink:href="c__lib_8h.html" target="_top" xlink:title=" ">
<polygon fill="white" stroke="#666666" points="1015,-162 866,-162 866,-132 1015,-132 1015,-162"/>
<text text-anchor="start" x="874" y="-150" font-family="Helvetica,sans-Serif" font-size="10.00">include/SSystem/SComponent</text>
<text text-anchor="middle" x="940.5" y="-139" font-family="Helvetica,sans-Serif" font-size="10.00">/c_lib.h</text>
</a>
</g>
</g>
<!-- Node1&#45;&gt;Node331 -->
<g id="edge13" class="edge">
<title>Node1&#45;&gt;Node331</title>
<path fill="none" stroke="#63b8ff" d="M3052.25,-210.49C2782.02,-205.58 1927.65,-188.89 1220.5,-162 1150.95,-159.36 1071.73,-155.3 1015.35,-152.23"/>
<polygon fill="#63b8ff" stroke="#63b8ff" points="3051.96,-213.98 3062.02,-210.66 3052.09,-206.98 3051.96,-213.98"/>
</g>
<!-- Node334 -->
<g id="node20" class="node">
<title>Node334</title>
<g id="a_node20"><a xlink:href="c__m3d__g__aab_8h.html" target="_top" xlink:title=" ">
<polygon fill="#fff0f0" stroke="red" points="2157,-96 2008,-96 2008,-66 2157,-66 2157,-96"/>
<text text-anchor="start" x="2016" y="-84" font-family="Helvetica,sans-Serif" font-size="10.00">include/SSystem/SComponent</text>
<text text-anchor="middle" x="2082.5" y="-73" font-family="Helvetica,sans-Serif" font-size="10.00">/c_m3d_g_aab.h</text>
</a>
</g>
</g>
<!-- Node1&#45;&gt;Node334 -->
<g id="edge20" class="edge">
<title>Node1&#45;&gt;Node334</title>
<path fill="none" stroke="#63b8ff" d="M3052.35,-211.59C2785.86,-209.91 1990.46,-201.6 1952.5,-162 1924.62,-132.92 1975.68,-110.17 2021.76,-96.49"/>
<polygon fill="#63b8ff" stroke="#63b8ff" points="3051.97,-215.09 3061.99,-211.65 3052.01,-208.09 3051.97,-215.09"/>
</g>
<!-- Node345 -->
<g id="node22" class="node">
<title>Node345</title>
<g id="a_node22"><a xlink:href="d__bg__w_8h.html" target="_top" xlink:title=" ">
<polygon fill="#fff0f0" stroke="red" points="2242,-24.5 2129,-24.5 2129,-5.5 2242,-5.5 2242,-24.5"/>
<text text-anchor="middle" x="2185.5" y="-12.5" font-family="Helvetica,sans-Serif" font-size="10.00">include/d/bg/d_bg_w.h</text>
</a>
</g>
</g>
<!-- Node1&#45;&gt;Node345 -->
<g id="edge31" class="edge">
<title>Node1&#45;&gt;Node345</title>
<path fill="none" stroke="#63b8ff" d="M3052.16,-210.78C2818.64,-207.07 2190.01,-194.11 2159.5,-162 2150.32,-152.33 2158.03,-145.25 2159.5,-132 2160.69,-121.23 2177.42,-50.07 2183.4,-24.85"/>
<polygon fill="#63b8ff" stroke="#63b8ff" points="3052.08,-214.28 3062.13,-210.94 3052.19,-207.28 3052.08,-214.28"/>
</g>
<!-- Node352 -->
<g id="node23" class="node">
<title>Node352</title>
<g id="a_node23"><a xlink:href="c__m3d__g__cyl_8h.html" target="_top" xlink:title=" ">
<polygon fill="#fff0f0" stroke="red" points="2317,-162 2168,-162 2168,-132 2317,-132 2317,-162"/>
<text text-anchor="start" x="2176" y="-150" font-family="Helvetica,sans-Serif" font-size="10.00">include/SSystem/SComponent</text>
<text text-anchor="middle" x="2242.5" y="-139" font-family="Helvetica,sans-Serif" font-size="10.00">/c_m3d_g_cyl.h</text>
</a>
</g>
</g>
<!-- Node1&#45;&gt;Node352 -->
<g id="edge23" class="edge">
<title>Node1&#45;&gt;Node352</title>
<path fill="none" stroke="#63b8ff" d="M3052.27,-209.63C2903.69,-204.88 2589.95,-191.98 2326.5,-162 2323.42,-161.65 2320.27,-161.26 2317.1,-160.85"/>
<polygon fill="#63b8ff" stroke="#63b8ff" points="3051.93,-213.12 3062.03,-209.93 3052.15,-206.12 3051.93,-213.12"/>
</g>
<!-- Node354 -->
<g id="node24" class="node">
<title>Node354</title>
<g id="a_node24"><a xlink:href="c__m3d__g__lin_8h.html" target="_top" xlink:title=" ">
<polygon fill="#fff0f0" stroke="red" points="2111,-162 1962,-162 1962,-132 2111,-132 2111,-162"/>
<text text-anchor="start" x="1970" y="-150" font-family="Helvetica,sans-Serif" font-size="10.00">include/SSystem/SComponent</text>
<text text-anchor="middle" x="2036.5" y="-139" font-family="Helvetica,sans-Serif" font-size="10.00">/c_m3d_g_lin.h</text>
</a>
</g>
</g>
<!-- Node1&#45;&gt;Node354 -->
<g id="edge24" class="edge">
<title>Node1&#45;&gt;Node354</title>
<path fill="none" stroke="#63b8ff" d="M3052.18,-210.84C2877.03,-207.81 2467.47,-197.23 2125.5,-162 2120.83,-161.52 2116.04,-160.96 2111.21,-160.34"/>
<polygon fill="#63b8ff" stroke="#63b8ff" points="3052.06,-214.34 3062.12,-211.01 3052.18,-207.34 3052.06,-214.34"/>
</g>
<!-- Node362 -->
<g id="node25" class="node">
<title>Node362</title>
<g id="a_node25"><a xlink:href="c__m3d__g__pla_8h.html" target="_top" xlink:title=" ">
<polygon fill="#fff0f0" stroke="red" points="2484,-162 2335,-162 2335,-132 2484,-132 2484,-162"/>
<text text-anchor="start" x="2343" y="-150" font-family="Helvetica,sans-Serif" font-size="10.00">include/SSystem/SComponent</text>
<text text-anchor="middle" x="2409.5" y="-139" font-family="Helvetica,sans-Serif" font-size="10.00">/c_m3d_g_pla.h</text>
</a>
</g>
</g>
<!-- Node1&#45;&gt;Node362 -->
<g id="edge26" class="edge">
<title>Node1&#45;&gt;Node362</title>
<path fill="none" stroke="#63b8ff" d="M3052.53,-207.74C2928.67,-201.06 2692.97,-186.31 2493.5,-162 2490.42,-161.62 2487.28,-161.22 2484.11,-160.78"/>
<polygon fill="#63b8ff" stroke="#63b8ff" points="3052.12,-211.22 3062.29,-208.26 3052.49,-204.23 3052.12,-211.22"/>
</g>
<!-- Node400 -->
<g id="node26" class="node">
<title>Node400</title>
<g id="a_node26"><a xlink:href="c__m3d__g__sph_8h.html" target="_top" xlink:title=" ">
<polygon fill="#fff0f0" stroke="red" points="2651,-162 2502,-162 2502,-132 2651,-132 2651,-162"/>
<text text-anchor="start" x="2510" y="-150" font-family="Helvetica,sans-Serif" font-size="10.00">include/SSystem/SComponent</text>
<text text-anchor="middle" x="2576.5" y="-139" font-family="Helvetica,sans-Serif" font-size="10.00">/c_m3d_g_sph.h</text>
</a>
</g>
</g>
<!-- Node1&#45;&gt;Node400 -->
<g id="edge27" class="edge">
<title>Node1&#45;&gt;Node400</title>
<path fill="none" stroke="#63b8ff" d="M3052.45,-204.59C2956.6,-195.97 2797.16,-180.52 2660.5,-162 2657.42,-161.58 2654.29,-161.14 2651.12,-160.68"/>
<polygon fill="#63b8ff" stroke="#63b8ff" points="3052.04,-208.07 3062.31,-205.47 3052.66,-201.09 3052.04,-208.07"/>
</g>
<!-- Node404 -->
<g id="node27" class="node">
<title>Node404</title>
<g id="a_node27"><a xlink:href="Z2Creature_8h.html" target="_top" xlink:title=" ">
<polygon fill="#fff0f0" stroke="red" points="2769.5,-162 2669.5,-162 2669.5,-132 2769.5,-132 2769.5,-162"/>
<text text-anchor="start" x="2677.5" y="-150" font-family="Helvetica,sans-Serif" font-size="10.00">include/Z2AudioLib</text>
<text text-anchor="middle" x="2719.5" y="-139" font-family="Helvetica,sans-Serif" font-size="10.00">/Z2Creature.h</text>
</a>
</g>
</g>
<!-- Node1&#45;&gt;Node404 -->
<g id="edge28" class="edge">
<title>Node1&#45;&gt;Node404</title>
<path fill="none" stroke="#63b8ff" d="M3052.71,-202.41C2979.54,-193.68 2871.7,-179.49 2778.5,-162 2775.71,-161.48 2772.85,-160.91 2769.96,-160.31"/>
<polygon fill="#63b8ff" stroke="#63b8ff" points="3051.86,-205.83 3062.2,-203.53 3052.68,-198.88 3051.86,-205.83"/>
</g>
<!-- Node408 -->
<g id="node28" class="node">
<title>Node408</title>
<g id="a_node28"><a xlink:href="d__bg__s__roof__chk_8h.html" target="_top" xlink:title=" ">
<polygon fill="#fff0f0" stroke="red" points="2891.5,-162 2787.5,-162 2787.5,-132 2891.5,-132 2891.5,-162"/>
<text text-anchor="start" x="2795.5" y="-150" font-family="Helvetica,sans-Serif" font-size="10.00">include/d/bg/d_bg_s</text>
<text text-anchor="middle" x="2839.5" y="-139" font-family="Helvetica,sans-Serif" font-size="10.00">_roof_chk.h</text>
</a>
</g>
</g>
<!-- Node1&#45;&gt;Node408 -->
<g id="edge29" class="edge">
<title>Node1&#45;&gt;Node408</title>
<path fill="none" stroke="#63b8ff" d="M3056.77,-195.22C3010.81,-185.69 2952.41,-173.41 2900.5,-162 2897.63,-161.37 2894.7,-160.72 2891.73,-160.05"/>
<polygon fill="#63b8ff" stroke="#63b8ff" points="3055.89,-198.61 3066.39,-197.21 3057.31,-191.76 3055.89,-198.61"/>
</g>
<!-- Node410 -->
<g id="node29" class="node">
<title>Node410</title>
<g id="a_node29"><a xlink:href="d__bg__s__spl__grp__chk_8h.html" target="_top" xlink:title=" ">
<polygon fill="#fff0f0" stroke="red" points="3013.5,-162 2909.5,-162 2909.5,-132 3013.5,-132 3013.5,-162"/>
<text text-anchor="start" x="2917.5" y="-150" font-family="Helvetica,sans-Serif" font-size="10.00">include/d/bg/d_bg_s</text>
<text text-anchor="middle" x="2961.5" y="-139" font-family="Helvetica,sans-Serif" font-size="10.00">_spl_grp_chk.h</text>
</a>
</g>
</g>
<!-- Node1&#45;&gt;Node410 -->
<g id="edge30" class="edge">
<title>Node1&#45;&gt;Node410</title>
<path fill="none" stroke="#63b8ff" d="M3088.18,-193.8C3060.67,-183.86 3027.08,-171.71 3001.4,-162.43"/>
<polygon fill="#63b8ff" stroke="#63b8ff" points="3086.76,-197.01 3097.35,-197.12 3089.14,-190.43 3086.76,-197.01"/>
</g>
<!-- Node414 -->
<g id="node30" class="node">
<title>Node414</title>
<g id="a_node30"><a xlink:href="d__demo_8h.html" target="_top" xlink:title=" ">
<polygon fill="#fff0f0" stroke="red" points="3133,-156.5 3032,-156.5 3032,-137.5 3133,-137.5 3133,-156.5"/>
<text text-anchor="middle" x="3082.5" y="-144.5" font-family="Helvetica,sans-Serif" font-size="10.00">include/d/d_demo.h</text>
</a>
</g>
</g>
<!-- Node1&#45;&gt;Node414 -->
<g id="edge32" class="edge">
<title>Node1&#45;&gt;Node414</title>
<path fill="none" stroke="#63b8ff" d="M3118.62,-189.28C3108.81,-178.07 3097.54,-165.19 3090.24,-156.84"/>
<polygon fill="#63b8ff" stroke="#63b8ff" points="3115.86,-191.44 3125.08,-196.66 3121.12,-186.83 3115.86,-191.44"/>
</g>
<!-- Node415 -->
<g id="node31" class="node">
<title>Node415</title>
<g id="a_node31"><a xlink:href="d__lib_8h.html" target="_top" xlink:title=" ">
<polygon fill="#fff0f0" stroke="red" points="3237.5,-156.5 3151.5,-156.5 3151.5,-137.5 3237.5,-137.5 3237.5,-156.5"/>
<text text-anchor="middle" x="3194.5" y="-144.5" font-family="Helvetica,sans-Serif" font-size="10.00">include/d/d_lib.h</text>
</a>
</g>
</g>
<!-- Node1&#45;&gt;Node415 -->
<g id="edge33" class="edge">
<title>Node1&#45;&gt;Node415</title>
<path fill="none" stroke="#63b8ff" d="M3158.38,-189.28C3168.19,-178.07 3179.46,-165.19 3186.76,-156.84"/>
<polygon fill="#63b8ff" stroke="#63b8ff" points="3155.88,-186.83 3151.92,-196.66 3161.14,-191.44 3155.88,-186.83"/>
</g>
<!-- Node417 -->
<g id="node32" class="node">
<title>Node417</title>
<g id="a_node32"><a xlink:href="d__spline__path_8h.html" target="_top" xlink:title=" ">
<polygon fill="#fff0f0" stroke="red" points="3351,-162 3256,-162 3256,-132 3351,-132 3351,-162"/>
<text text-anchor="start" x="3264" y="-150" font-family="Helvetica,sans-Serif" font-size="10.00">include/d/d_spline</text>
<text text-anchor="middle" x="3303.5" y="-139" font-family="Helvetica,sans-Serif" font-size="10.00">_path.h</text>
</a>
</g>
</g>
<!-- Node1&#45;&gt;Node417 -->
<g id="edge34" class="edge">
<title>Node1&#45;&gt;Node417</title>
<path fill="none" stroke="#63b8ff" d="M3186.09,-193.54C3211.61,-183.64 3242.58,-171.63 3266.31,-162.43"/>
<polygon fill="#63b8ff" stroke="#63b8ff" points="3185,-190.21 3176.94,-197.09 3187.53,-196.74 3185,-190.21"/>
</g>
<!-- Node419 -->
<g id="node33" class="node">
<title>Node419</title>
<g id="a_node33"><a xlink:href="d__vibration_8h.html" target="_top" xlink:title=" ">
<polygon fill="#fff0f0" stroke="red" points="3482,-156.5 3369,-156.5 3369,-137.5 3482,-137.5 3482,-156.5"/>
<text text-anchor="middle" x="3425.5" y="-144.5" font-family="Helvetica,sans-Serif" font-size="10.00">include/d/d_vibration.h</text>
</a>
</g>
</g>
<!-- Node1&#45;&gt;Node419 -->
<g id="edge35" class="edge">
<title>Node1&#45;&gt;Node419</title>
<path fill="none" stroke="#63b8ff" d="M3214.34,-195.09C3269.19,-182.86 3341.14,-166.81 3385.31,-156.96"/>
<polygon fill="#63b8ff" stroke="#63b8ff" points="3213.74,-191.64 3204.74,-197.23 3215.27,-198.47 3213.74,-191.64"/>
</g>
<!-- Node421 -->
<g id="node34" class="node">
<title>Node421</title>
<g id="a_node34"><a xlink:href="d__event__manager_8h.html" target="_top" xlink:title=" ">
<polygon fill="#fff0f0" stroke="red" points="3620.5,-162 3500.5,-162 3500.5,-132 3620.5,-132 3620.5,-162"/>
<text text-anchor="start" x="3508.5" y="-150" font-family="Helvetica,sans-Serif" font-size="10.00">include/d/event/d_event</text>
<text text-anchor="middle" x="3560.5" y="-139" font-family="Helvetica,sans-Serif" font-size="10.00">_manager.h</text>
</a>
</g>
</g>
<!-- Node1&#45;&gt;Node421 -->
<g id="edge36" class="edge">
<title>Node1&#45;&gt;Node421</title>
<path fill="none" stroke="#63b8ff" d="M3224.62,-201.26C3296.23,-191.97 3400.74,-177.62 3491.5,-162 3494.39,-161.5 3497.35,-160.98 3500.33,-160.43"/>
<polygon fill="#63b8ff" stroke="#63b8ff" points="3224.39,-197.76 3214.92,-202.51 3225.29,-204.7 3224.39,-197.76"/>
</g>
<!-- Node422 -->
<g id="node35" class="node">
<title>Node422</title>
<g id="a_node35"><a xlink:href="d__kankyo__wether_8h.html" target="_top" xlink:title=" ">
<polygon fill="#fff0f0" stroke="red" points="436.5,-162 338.5,-162 338.5,-132 436.5,-132 436.5,-162"/>
<text text-anchor="start" x="346.5" y="-150" font-family="Helvetica,sans-Serif" font-size="10.00">include/d/kankyo/d</text>
<text text-anchor="middle" x="387.5" y="-139" font-family="Helvetica,sans-Serif" font-size="10.00">_kankyo_wether.h</text>
</a>
</g>
</g>
<!-- Node1&#45;&gt;Node422 -->
<g id="edge37" class="edge">
<title>Node1&#45;&gt;Node422</title>
<path fill="none" stroke="#63b8ff" d="M3052.2,-211.31C2733.23,-208.52 1590.78,-196.59 649.5,-162 575.3,-159.27 489.37,-154.34 436.73,-151.12"/>
<polygon fill="#63b8ff" stroke="#63b8ff" points="3052.1,-214.81 3062.13,-211.39 3052.16,-207.81 3052.1,-214.81"/>
</g>
<!-- Node424 -->
<g id="node36" class="node">
<title>Node424</title>
<g id="a_node36"><a xlink:href="d__menu__fmap_8h.html" target="_top" xlink:title=" ">
<polygon fill="#fff0f0" stroke="red" points="3758.5,-162 3638.5,-162 3638.5,-132 3758.5,-132 3758.5,-162"/>
<text text-anchor="start" x="3646.5" y="-150" font-family="Helvetica,sans-Serif" font-size="10.00">include/d/menu/d_menu</text>
<text text-anchor="middle" x="3698.5" y="-139" font-family="Helvetica,sans-Serif" font-size="10.00">_fmap.h</text>
</a>
</g>
</g>
<!-- Node1&#45;&gt;Node424 -->
<g id="edge39" class="edge">
<title>Node1&#45;&gt;Node424</title>
<path fill="none" stroke="#63b8ff" d="M3224.59,-205.82C3322.88,-198.17 3488.33,-183.46 3629.5,-162 3632.4,-161.56 3635.36,-161.08 3638.35,-160.57"/>
<polygon fill="#63b8ff" stroke="#63b8ff" points="3224.45,-202.32 3214.75,-206.58 3224.99,-209.3 3224.45,-202.32"/>
</g>
<!-- Node426 -->
<g id="node37" class="node">
<title>Node426</title>
<g id="a_node37"><a xlink:href="d__meter2__info_8h.html" target="_top" xlink:title=" ">
<polygon fill="#fff0f0" stroke="red" points="3904,-162 3777,-162 3777,-132 3904,-132 3904,-162"/>
<text text-anchor="start" x="3785" y="-150" font-family="Helvetica,sans-Serif" font-size="10.00">include/d/meter/d_meter2</text>
<text text-anchor="middle" x="3840.5" y="-139" font-family="Helvetica,sans-Serif" font-size="10.00">_info.h</text>
</a>
</g>
</g>
<!-- Node1&#45;&gt;Node426 -->
<g id="edge40" class="edge">
<title>Node1&#45;&gt;Node426</title>
<path fill="none" stroke="#63b8ff" d="M3224.76,-208.16C3346.25,-202.06 3574.52,-188.09 3767.5,-162 3770.57,-161.58 3773.7,-161.12 3776.87,-160.63"/>
<polygon fill="#63b8ff" stroke="#63b8ff" points="3224.67,-204.66 3214.85,-208.65 3225.01,-211.65 3224.67,-204.66"/>
</g>
<!-- Node427 -->
<g id="node38" class="node">
<title>Node427</title>
<g id="a_node38"><a xlink:href="d__meter__HIO_8h.html" target="_top" xlink:title=" ">
<polygon fill="#fff0f0" stroke="red" points="4044.5,-162 3922.5,-162 3922.5,-132 4044.5,-132 4044.5,-162"/>
<text text-anchor="start" x="3930.5" y="-150" font-family="Helvetica,sans-Serif" font-size="10.00">include/d/meter/d_meter</text>
<text text-anchor="middle" x="3983.5" y="-139" font-family="Helvetica,sans-Serif" font-size="10.00">_HIO.h</text>
</a>
</g>
</g>
<!-- Node1&#45;&gt;Node427 -->
<g id="edge41" class="edge">
<title>Node1&#45;&gt;Node427</title>
<path fill="none" stroke="#63b8ff" d="M3224.68,-210.18C3368.14,-206.31 3664.75,-194.75 3913.5,-162 3916.33,-161.63 3919.21,-161.21 3922.12,-160.76"/>
<polygon fill="#63b8ff" stroke="#63b8ff" points="3224.78,-206.67 3214.88,-210.44 3224.97,-213.67 3224.78,-206.67"/>
</g>
<!-- Node429 -->
<g id="node39" class="node">
<title>Node429</title>
<g id="a_node39"><a xlink:href="d__msg__class_8h.html" target="_top" xlink:title=" ">
<polygon fill="#fff0f0" stroke="red" points="4172.5,-162 4062.5,-162 4062.5,-132 4172.5,-132 4172.5,-162"/>
<text text-anchor="start" x="4070.5" y="-150" font-family="Helvetica,sans-Serif" font-size="10.00">include/d/msg/d_msg</text>
<text text-anchor="middle" x="4117.5" y="-139" font-family="Helvetica,sans-Serif" font-size="10.00">_class.h</text>
</a>
</g>
</g>
<!-- Node1&#45;&gt;Node429 -->
<g id="edge42" class="edge">
<title>Node1&#45;&gt;Node429</title>
<path fill="none" stroke="#63b8ff" d="M3224.67,-211.89C3387.41,-210.68 3750.8,-203.11 4053.5,-162 4056.32,-161.62 4059.2,-161.18 4062.09,-160.69"/>
<polygon fill="#63b8ff" stroke="#63b8ff" points="3224.8,-208.39 3214.82,-211.96 3224.84,-215.39 3224.8,-208.39"/>
</g>
<!-- Node430 -->
<g id="node40" class="node">
<title>Node430</title>
<g id="a_node40"><a xlink:href="d__particle__copoly_8h.html" target="_top" xlink:title=" ">
<polygon fill="#fff0f0" stroke="red" points="4292.5,-162 4190.5,-162 4190.5,-132 4292.5,-132 4292.5,-162"/>
<text text-anchor="start" x="4198.5" y="-150" font-family="Helvetica,sans-Serif" font-size="10.00">include/d/particle</text>
<text text-anchor="middle" x="4241.5" y="-139" font-family="Helvetica,sans-Serif" font-size="10.00">/d_particle_copoly.h</text>
</a>
</g>
</g>
<!-- Node1&#45;&gt;Node430 -->
<g id="edge43" class="edge">
<title>Node1&#45;&gt;Node430</title>
<path fill="none" stroke="#63b8ff" d="M3224.41,-209.89C3439.58,-204.28 3997.5,-187.66 4181.5,-162 4184.36,-161.6 4187.28,-161.13 4190.23,-160.61"/>
<polygon fill="#63b8ff" stroke="#63b8ff" points="3224.61,-206.38 3214.71,-210.14 3224.8,-213.38 3224.61,-206.38"/>
</g>
<!-- Node432 -->
<g id="node41" class="node">
<title>Node432</title>
<g id="a_node41"><a xlink:href="d__s__play_8h.html" target="_top" xlink:title=" ">
<polygon fill="#fff0f0" stroke="red" points="4424,-156.5 4311,-156.5 4311,-137.5 4424,-137.5 4424,-156.5"/>
<text text-anchor="middle" x="4367.5" y="-144.5" font-family="Helvetica,sans-Serif" font-size="10.00">include/d/s/d_s_play.h</text>
</a>
</g>
</g>
<!-- Node1&#45;&gt;Node432 -->
<g id="edge44" class="edge">
<title>Node1&#45;&gt;Node432</title>
<path fill="none" stroke="#63b8ff" d="M3224.7,-210.15C3457.12,-204.87 4093.24,-188.38 4301.5,-162 4311.03,-160.79 4321.22,-158.92 4330.68,-156.94"/>
<polygon fill="#63b8ff" stroke="#63b8ff" points="3224.71,-206.65 3214.79,-210.38 3224.86,-213.65 3224.71,-206.65"/>
</g>
<!-- Node434 -->
<g id="node42" class="node">
<title>Node434</title>
<g id="a_node42"><a xlink:href="d__save_8h.html" target="_top" xlink:title=" ">
<polygon fill="#fff0f0" stroke="red" points="551.5,-90.5 429.5,-90.5 429.5,-71.5 551.5,-71.5 551.5,-90.5"/>
<text text-anchor="middle" x="490.5" y="-78.5" font-family="Helvetica,sans-Serif" font-size="10.00">include/d/save/d_save.h</text>
</a>
</g>
</g>
<!-- Node1&#45;&gt;Node434 -->
<g id="edge45" class="edge">
<title>Node1&#45;&gt;Node434</title>
<path fill="none" stroke="#63b8ff" d="M3052.28,-212.34C2690.5,-213.42 1293.57,-214.06 856.5,-162 730.56,-147 584.12,-108.43 521.49,-90.91"/>
<polygon fill="#63b8ff" stroke="#63b8ff" points="3052.2,-215.84 3062.19,-212.31 3052.18,-208.84 3052.2,-215.84"/>
</g>
<!-- Node435 -->
<g id="node43" class="node">
<title>Node435</title>
<g id="a_node43"><a xlink:href="d__shop__item__ctrl_8h.html" target="_top" xlink:title=" ">
<polygon fill="#fff0f0" stroke="red" points="1343.5,-162 1229.5,-162 1229.5,-132 1343.5,-132 1343.5,-162"/>
<text text-anchor="start" x="1237.5" y="-150" font-family="Helvetica,sans-Serif" font-size="10.00">include/d/shop/d_shop</text>
<text text-anchor="middle" x="1286.5" y="-139" font-family="Helvetica,sans-Serif" font-size="10.00">_item_ctrl.h</text>
</a>
</g>
</g>
<!-- Node1&#45;&gt;Node435 -->
<g id="edge47" class="edge">
<title>Node1&#45;&gt;Node435</title>
<path fill="none" stroke="#63b8ff" d="M3052.46,-210.76C2806.34,-206.92 2078.25,-193.54 1474.5,-162 1430.54,-159.7 1380.88,-155.96 1343.64,-152.92"/>
<polygon fill="#63b8ff" stroke="#63b8ff" points="3052.25,-214.26 3062.31,-210.91 3052.36,-207.26 3052.25,-214.26"/>
</g>
<!-- Node436 -->
<g id="node44" class="node">
<title>Node436</title>
<g id="a_node44"><a xlink:href="f__op__kankyo_8h.html" target="_top" xlink:title=" ">
<polygon fill="#fff0f0" stroke="red" points="4576.5,-156.5 4442.5,-156.5 4442.5,-137.5 4576.5,-137.5 4576.5,-156.5"/>
<text text-anchor="middle" x="4509.5" y="-144.5" font-family="Helvetica,sans-Serif" font-size="10.00">include/f_op/f_op_kankyo.h</text>
</a>
</g>
</g>
<!-- Node1&#45;&gt;Node436 -->
<g id="edge49" class="edge">
<title>Node1&#45;&gt;Node436</title>
<path fill="none" stroke="#63b8ff" d="M3224.33,-210.3C3474.16,-205.08 4198.12,-188.09 4433.5,-162 4444.43,-160.79 4456.16,-158.92 4467.05,-156.93"/>
<polygon fill="#63b8ff" stroke="#63b8ff" points="3224.59,-206.79 3214.66,-210.5 3224.73,-213.79 3224.59,-206.79"/>
</g>
<!-- Node440 -->
<g id="node45" class="node">
<title>Node440</title>
<g id="a_node45"><a xlink:href="f__op__kankyo__mng_8h.html" target="_top" xlink:title=" ">
<polygon fill="#fff0f0" stroke="red" points="4722,-162 4595,-162 4595,-132 4722,-132 4722,-162"/>
<text text-anchor="start" x="4603" y="-150" font-family="Helvetica,sans-Serif" font-size="10.00">include/f_op/f_op_kankyo</text>
<text text-anchor="middle" x="4658.5" y="-139" font-family="Helvetica,sans-Serif" font-size="10.00">_mng.h</text>
</a>
</g>
</g>
<!-- Node1&#45;&gt;Node440 -->
<g id="edge50" class="edge">
<title>Node1&#45;&gt;Node440</title>
<path fill="none" stroke="#63b8ff" d="M3224.5,-210.78C3493.91,-206.67 4319.39,-191.93 4585.5,-162 4588.58,-161.65 4591.72,-161.25 4594.89,-160.8"/>
<polygon fill="#63b8ff" stroke="#63b8ff" points="3224.7,-207.27 3214.75,-210.93 3224.8,-214.27 3224.7,-207.27"/>
</g>
<!-- Node441 -->
<g id="node46" class="node">
<title>Node441</title>
<g id="a_node46"><a xlink:href="f__op__msg_8h.html" target="_top" xlink:title=" ">
<polygon fill="#fff0f0" stroke="red" points="4862.5,-156.5 4740.5,-156.5 4740.5,-137.5 4862.5,-137.5 4862.5,-156.5"/>
<text text-anchor="middle" x="4801.5" y="-144.5" font-family="Helvetica,sans-Serif" font-size="10.00">include/f_op/f_op_msg.h</text>
</a>
</g>
</g>
<!-- Node1&#45;&gt;Node441 -->
<g id="edge51" class="edge">
<title>Node1&#45;&gt;Node441</title>
<path fill="none" stroke="#63b8ff" d="M3224.25,-211.19C3511.1,-208.17 4435.65,-195.99 4731.5,-162 4741.72,-160.83 4752.67,-158.94 4762.8,-156.93"/>
<polygon fill="#63b8ff" stroke="#63b8ff" points="3224.58,-207.68 3214.62,-211.29 3224.65,-214.68 3224.58,-207.68"/>
</g>
<!-- Node442 -->
<g id="node47" class="node">
<title>Node442</title>
<g id="a_node47"><a xlink:href="f__op__msg__mng_8h.html" target="_top" xlink:title=" ">
<polygon fill="#fff0f0" stroke="red" points="4996,-162 4881,-162 4881,-132 4996,-132 4996,-162"/>
<text text-anchor="start" x="4889" y="-150" font-family="Helvetica,sans-Serif" font-size="10.00">include/f_op/f_op_msg</text>
<text text-anchor="middle" x="4938.5" y="-139" font-family="Helvetica,sans-Serif" font-size="10.00">_mng.h</text>
</a>
</g>
</g>
<!-- Node1&#45;&gt;Node442 -->
<g id="edge52" class="edge">
<title>Node1&#45;&gt;Node442</title>
<path fill="none" stroke="#63b8ff" d="M3224.49,-211.53C3527.86,-209.58 4547.23,-200.25 4871.5,-162 4874.57,-161.64 4877.7,-161.21 4880.86,-160.72"/>
<polygon fill="#63b8ff" stroke="#63b8ff" points="3224.64,-208.03 3214.66,-211.6 3224.68,-215.03 3224.64,-208.03"/>
</g>
<!-- Node443 -->
<g id="node48" class="node">
<title>Node443</title>
<g id="a_node48"><a xlink:href="f__op__view_8h.html" target="_top" xlink:title=" ">
<polygon fill="#fff0f0" stroke="red" points="5138.5,-156.5 5014.5,-156.5 5014.5,-137.5 5138.5,-137.5 5138.5,-156.5"/>
<text text-anchor="middle" x="5076.5" y="-144.5" font-family="Helvetica,sans-Serif" font-size="10.00">include/f_op/f_op_view.h</text>
</a>
</g>
</g>
<!-- Node1&#45;&gt;Node443 -->
<g id="edge53" class="edge">
<title>Node1&#45;&gt;Node443</title>
<path fill="none" stroke="#63b8ff" d="M3224.88,-211.61C3543.65,-209.88 4653.65,-201.12 5005.5,-162 5015.86,-160.85 5026.97,-158.97 5037.25,-156.96"/>
<polygon fill="#63b8ff" stroke="#63b8ff" points="3224.92,-208.11 3214.94,-211.67 3224.96,-215.11 3224.92,-208.11"/>
</g>
<!-- Node446 -->
<g id="node49" class="node">
<title>Node446</title>
<g id="a_node49"><a xlink:href="m__Do__mtx_8h.html" target="_top" xlink:title=" ">
<polygon fill="#fff0f0" stroke="red" points="5290,-156.5 5157,-156.5 5157,-137.5 5290,-137.5 5290,-156.5"/>
<text text-anchor="middle" x="5223.5" y="-144.5" font-family="Helvetica,sans-Serif" font-size="10.00">include/m_Do/m_Do_mtx.h</text>
</a>
</g>
</g>
<!-- Node1&#45;&gt;Node446 -->
<g id="edge54" class="edge">
<title>Node1&#45;&gt;Node446</title>
<path fill="none" stroke="#63b8ff" d="M3224.92,-211.66C3558.98,-210.06 4766.17,-201.62 5147.5,-162 5158.58,-160.85 5170.46,-158.97 5181.46,-156.96"/>
<polygon fill="#63b8ff" stroke="#63b8ff" points="3224.9,-208.16 3214.92,-211.71 3224.93,-215.16 3224.9,-208.16"/>
</g>
<!-- Node457 -->
<g id="node50" class="node">
<title>Node457</title>
<g id="a_node50"><a xlink:href="c__xyz_8cpp.html" target="_top" xlink:title=" ">
<polygon fill="white" stroke="#666666" points="5442.5,-162 5308.5,-162 5308.5,-132 5442.5,-132 5442.5,-162"/>
<text text-anchor="start" x="5316.5" y="-150" font-family="Helvetica,sans-Serif" font-size="10.00">libs/SSystem/SComponent</text>
<text text-anchor="middle" x="5375.5" y="-139" font-family="Helvetica,sans-Serif" font-size="10.00">/c_xyz.cpp</text>
</a>
</g>
</g>
<!-- Node1&#45;&gt;Node457 -->
<g id="edge55" class="edge">
<title>Node1&#45;&gt;Node457</title>
<path fill="none" stroke="#63b8ff" d="M3224.71,-211.84C3574.22,-210.89 4886.69,-204.52 5299.5,-162 5302.3,-161.71 5305.16,-161.38 5308.04,-161"/>
<polygon fill="#63b8ff" stroke="#63b8ff" points="3224.92,-208.34 3214.93,-211.86 3224.94,-215.34 3224.92,-208.34"/>
</g>
<!-- Node3 -->
<g id="node3" class="node">
<title>Node3</title>
<g id="a_node3"><a xlink:href="J3DMatBlock_8h.html" target="_top" xlink:title=" ">
<polygon fill="#fff0f0" stroke="red" points="135,-96 0,-96 0,-66 135,-66 135,-96"/>
<text text-anchor="start" x="8" y="-84" font-family="Helvetica,sans-Serif" font-size="10.00">include/JSystem/J3DGraph</text>
<text text-anchor="middle" x="67.5" y="-73" font-family="Helvetica,sans-Serif" font-size="10.00">Base/J3DMatBlock.h</text>
</a>
</g>
</g>
<!-- Node2&#45;&gt;Node3 -->
<g id="edge2" class="edge">
<title>Node2&#45;&gt;Node3</title>
<path fill="none" stroke="#63b8ff" d="M199.57,-127.94C170.9,-117.97 135.79,-105.75 108.97,-96.43"/>
<polygon fill="#63b8ff" stroke="#63b8ff" points="198.18,-131.16 208.78,-131.14 200.48,-124.55 198.18,-131.16"/>
</g>
<!-- Node32 -->
<g id="node4" class="node">
<title>Node32</title>
<g id="a_node4"><a xlink:href="d__kankyo_8h.html" target="_top" xlink:title=" ">
<polygon fill="#fff0f0" stroke="red" points="411.5,-96 313.5,-96 313.5,-66 411.5,-66 411.5,-96"/>
<text text-anchor="start" x="321.5" y="-84" font-family="Helvetica,sans-Serif" font-size="10.00">include/d/kankyo/d</text>
<text text-anchor="middle" x="362.5" y="-73" font-family="Helvetica,sans-Serif" font-size="10.00">_kankyo.h</text>
</a>
</g>
</g>
<!-- Node2&#45;&gt;Node32 -->
<g id="edge3" class="edge">
<title>Node2&#45;&gt;Node32</title>
<path fill="none" stroke="#63b8ff" d="M286.34,-125.91C303,-116.31 322.55,-105.03 337.67,-96.31"/>
<polygon fill="#63b8ff" stroke="#63b8ff" points="284.64,-122.85 277.72,-130.88 288.13,-128.92 284.64,-122.85"/>
</g>
<!-- Node320 -->
<g id="node6" class="node">
<title>Node320</title>
<g id="a_node6"><a xlink:href="J3DStruct_8cpp.html" target="_top" xlink:title=" ">
<polygon fill="white" stroke="#666666" points="295.5,-96 153.5,-96 153.5,-66 295.5,-66 295.5,-96"/>
<text text-anchor="start" x="161.5" y="-84" font-family="Helvetica,sans-Serif" font-size="10.00">libs/JSystem/J3DGraphBase</text>
<text text-anchor="middle" x="224.5" y="-73" font-family="Helvetica,sans-Serif" font-size="10.00">/J3DStruct.cpp</text>
</a>
</g>
</g>
<!-- Node2&#45;&gt;Node320 -->
<g id="edge5" class="edge">
<title>Node2&#45;&gt;Node320</title>
<path fill="none" stroke="#63b8ff" d="M241.06,-121.25C237.47,-112.75 233.58,-103.53 230.48,-96.16"/>
<polygon fill="#63b8ff" stroke="#63b8ff" points="237.81,-122.55 244.92,-130.4 244.26,-119.83 237.81,-122.55"/>
</g>
<!-- Node33 -->
<g id="node5" class="node">
<title>Node33</title>
<g id="a_node5"><a xlink:href="d__stage_8h.html" target="_top" xlink:title=" ">
<polygon fill="#fff0f0" stroke="red" points="541,-24.5 440,-24.5 440,-5.5 541,-5.5 541,-24.5"/>
<text text-anchor="middle" x="490.5" y="-12.5" font-family="Helvetica,sans-Serif" font-size="10.00">include/d/d_stage.h</text>
</a>
</g>
</g>
<!-- Node32&#45;&gt;Node33 -->
<g id="edge4" class="edge">
<title>Node32&#45;&gt;Node33</title>
<path fill="none" stroke="#63b8ff" d="M401.32,-60.59C425,-48.75 454.14,-34.18 472.53,-24.99"/>
<polygon fill="#63b8ff" stroke="#63b8ff" points="399.96,-57.36 392.58,-64.96 403.09,-63.62 399.96,-57.36"/>
</g>
<!-- Node322 -->
<g id="node8" class="node">
<title>Node322</title>
<g id="a_node8"><a xlink:href="d__attention_8h.html" target="_top" xlink:title=" ">
<polygon fill="#fff0f0" stroke="red" points="1417.5,-90.5 1303.5,-90.5 1303.5,-71.5 1417.5,-71.5 1417.5,-90.5"/>
<text text-anchor="middle" x="1360.5" y="-78.5" font-family="Helvetica,sans-Serif" font-size="10.00">include/d/d_attention.h</text>
</a>
</g>
</g>
<!-- Node321&#45;&gt;Node322 -->
<g id="edge7" class="edge">
<title>Node321&#45;&gt;Node322</title>
<path fill="none" stroke="#63b8ff" d="M1503.32,-128.16C1465.9,-116.07 1418.01,-100.59 1388.3,-90.99"/>
<polygon fill="#63b8ff" stroke="#63b8ff" points="1502.03,-131.43 1512.62,-131.17 1504.19,-124.77 1502.03,-131.43"/>
</g>
<!-- Node324 -->
<g id="node9" class="node">
<title>Node324</title>
<g id="a_node9"><a xlink:href="d__cam__param_8h.html" target="_top" xlink:title=" ">
<polygon fill="#fff0f0" stroke="red" points="1563.5,-90.5 1435.5,-90.5 1435.5,-71.5 1563.5,-71.5 1563.5,-90.5"/>
<text text-anchor="middle" x="1499.5" y="-78.5" font-family="Helvetica,sans-Serif" font-size="10.00">include/d/d_cam_param.h</text>
</a>
</g>
</g>
<!-- Node321&#45;&gt;Node324 -->
<g id="edge8" class="edge">
<title>Node321&#45;&gt;Node324</title>
<path fill="none" stroke="#63b8ff" d="M1537.86,-123.61C1527.45,-112.32 1515.43,-99.28 1507.65,-90.84"/>
<polygon fill="#63b8ff" stroke="#63b8ff" points="1535.03,-125.7 1544.38,-130.68 1540.18,-120.96 1535.03,-125.7"/>
</g>
<!-- Node325 -->
<g id="node10" class="node">
<title>Node325</title>
<g id="a_node10"><a xlink:href="c__angle_8cpp.html" target="_top" xlink:title=" ">
<polygon fill="white" stroke="#666666" points="1715.5,-96 1581.5,-96 1581.5,-66 1715.5,-66 1715.5,-96"/>
<text text-anchor="start" x="1589.5" y="-84" font-family="Helvetica,sans-Serif" font-size="10.00">libs/SSystem/SComponent</text>
<text text-anchor="middle" x="1648.5" y="-73" font-family="Helvetica,sans-Serif" font-size="10.00">/c_angle.cpp</text>
</a>
</g>
</g>
<!-- Node321&#45;&gt;Node325 -->
<g id="edge9" class="edge">
<title>Node321&#45;&gt;Node325</title>
<path fill="none" stroke="#63b8ff" d="M1587.68,-125.25C1600.94,-115.82 1616.3,-104.9 1628.27,-96.39"/>
<polygon fill="#63b8ff" stroke="#63b8ff" points="1585.83,-122.27 1579.71,-130.92 1589.89,-127.98 1585.83,-122.27"/>
</g>
<!-- Node327 -->
<g id="node12" class="node">
<title>Node327</title>
<g id="a_node12"><a xlink:href="d__bg__s__gnd__chk_8h.html" target="_top" xlink:title=" ">
<polygon fill="#fff0f0" stroke="red" points="1837.5,-96 1733.5,-96 1733.5,-66 1837.5,-66 1837.5,-96"/>
<text text-anchor="start" x="1741.5" y="-84" font-family="Helvetica,sans-Serif" font-size="10.00">include/d/bg/d_bg_s</text>
<text text-anchor="middle" x="1785.5" y="-73" font-family="Helvetica,sans-Serif" font-size="10.00">_gnd_chk.h</text>
</a>
</g>
</g>
<!-- Node326&#45;&gt;Node327 -->
<g id="edge11" class="edge">
<title>Node326&#45;&gt;Node327</title>
<path fill="none" stroke="#63b8ff" d="M1813.9,-122.39C1807.71,-113.59 1800.87,-103.86 1795.46,-96.16"/>
<polygon fill="#63b8ff" stroke="#63b8ff" points="1811.03,-124.39 1819.64,-130.56 1816.75,-120.36 1811.03,-124.39"/>
</g>
<!-- Node330 -->
<g id="node13" class="node">
<title>Node330</title>
<g id="a_node13"><a xlink:href="c__bg__s__gnd__chk_8cpp.html" target="_top" xlink:title=" ">
<polygon fill="white" stroke="#666666" points="1989.5,-96 1855.5,-96 1855.5,-66 1989.5,-66 1989.5,-96"/>
<text text-anchor="start" x="1863.5" y="-84" font-family="Helvetica,sans-Serif" font-size="10.00">libs/SSystem/SComponent</text>
<text text-anchor="middle" x="1922.5" y="-73" font-family="Helvetica,sans-Serif" font-size="10.00">/c_bg_s_gnd_chk.cpp</text>
</a>
</g>
</g>
<!-- Node326&#45;&gt;Node330 -->
<g id="edge12" class="edge">
<title>Node326&#45;&gt;Node330</title>
<path fill="none" stroke="#63b8ff" d="M1860.33,-125.25C1873.89,-115.82 1889.59,-104.9 1901.82,-96.39"/>
<polygon fill="#63b8ff" stroke="#63b8ff" points="1858.37,-122.35 1852.16,-130.93 1862.37,-128.09 1858.37,-122.35"/>
</g>
<!-- Node331&#45;&gt;Node33 -->
<g id="edge15" class="edge">
<title>Node331&#45;&gt;Node33</title>
<path fill="none" stroke="#63b8ff" d="M854.62,-145.65C783.36,-142.55 680.76,-131.43 598.5,-96 578.74,-87.49 577.7,-78.92 560.5,-66 540.8,-51.2 517.41,-34.71 503.28,-24.85"/>
<polygon fill="#63b8ff" stroke="#63b8ff" points="854.14,-149.14 864.27,-146.03 854.41,-142.14 854.14,-149.14"/>
</g>
<!-- Node211 -->
<g id="node15" class="node">
<title>Node211</title>
<g id="a_node15"><a xlink:href="d__a__item__static_8h.html" target="_top" xlink:title=" ">
<polygon fill="#fff0f0" stroke="red" points="715,-96 608,-96 608,-66 715,-66 715,-96"/>
<text text-anchor="start" x="616" y="-84" font-family="Helvetica,sans-Serif" font-size="10.00">include/d/a/d_a_item</text>
<text text-anchor="middle" x="661.5" y="-73" font-family="Helvetica,sans-Serif" font-size="10.00">_static.h</text>
</a>
</g>
</g>
<!-- Node331&#45;&gt;Node211 -->
<g id="edge14" class="edge">
<title>Node331&#45;&gt;Node211</title>
<path fill="none" stroke="#63b8ff" d="M866.38,-129C818.85,-118.09 758.24,-104.19 715.3,-94.34"/>
<polygon fill="#63b8ff" stroke="#63b8ff" points="865.53,-132.39 876.06,-131.22 867.1,-125.57 865.53,-132.39"/>
</g>
<!-- Node332 -->
<g id="node16" class="node">
<title>Node332</title>
<g id="a_node16"><a xlink:href="c__lib_8cpp.html" target="_top" xlink:title=" ">
<polygon fill="white" stroke="#666666" points="867.5,-96 733.5,-96 733.5,-66 867.5,-66 867.5,-96"/>
<text text-anchor="start" x="741.5" y="-84" font-family="Helvetica,sans-Serif" font-size="10.00">libs/SSystem/SComponent</text>
<text text-anchor="middle" x="800.5" y="-73" font-family="Helvetica,sans-Serif" font-size="10.00">/c_lib.cpp</text>
</a>
</g>
</g>
<!-- Node331&#45;&gt;Node332 -->
<g id="edge16" class="edge">
<title>Node331&#45;&gt;Node332</title>
<path fill="none" stroke="#63b8ff" d="M898.62,-126.86C877.18,-117.05 851.52,-105.32 831.81,-96.31"/>
<polygon fill="#63b8ff" stroke="#63b8ff" points="897.15,-130.03 907.7,-131.01 900.07,-123.67 897.15,-130.03"/>
</g>
<!-- Node223 -->
<g id="node17" class="node">
<title>Node223</title>
<g id="a_node17"><a xlink:href="d__a__itembase__static_8cpp.html" target="_top" xlink:title=" ">
<polygon fill="white" stroke="#666666" points="995.5,-96 885.5,-96 885.5,-66 995.5,-66 995.5,-96"/>
<text text-anchor="start" x="893.5" y="-84" font-family="Helvetica,sans-Serif" font-size="10.00">src/d/a/d_a_itembase</text>
<text text-anchor="middle" x="940.5" y="-73" font-family="Helvetica,sans-Serif" font-size="10.00">_static.cpp</text>
</a>
</g>
</g>
<!-- Node331&#45;&gt;Node223 -->
<g id="edge17" class="edge">
<title>Node331&#45;&gt;Node223</title>
<path fill="none" stroke="#63b8ff" d="M940.5,-120.39C940.5,-112.13 940.5,-103.28 940.5,-96.16"/>
<polygon fill="#63b8ff" stroke="#63b8ff" points="937,-120.28 940.5,-130.28 944,-120.28 937,-120.28"/>
</g>
<!-- Node221 -->
<g id="node18" class="node">
<title>Node221</title>
<g id="a_node18"><a xlink:href="d__shop__item__ctrl_8cpp.html" target="_top" xlink:title=" ">
<polygon fill="white" stroke="#666666" points="1285,-96 1164,-96 1164,-66 1285,-66 1285,-96"/>
<text text-anchor="start" x="1172" y="-84" font-family="Helvetica,sans-Serif" font-size="10.00">src/d/shop/d_shop_item</text>
<text text-anchor="middle" x="1224.5" y="-73" font-family="Helvetica,sans-Serif" font-size="10.00">_ctrl.cpp</text>
</a>
</g>
</g>
<!-- Node331&#45;&gt;Node221 -->
<g id="edge18" class="edge">
<title>Node331&#45;&gt;Node221</title>
<path fill="none" stroke="#63b8ff" d="M1015.75,-129.04C1061.92,-118.64 1120.29,-105.48 1163.56,-95.73"/>
<polygon fill="#63b8ff" stroke="#63b8ff" points="1015.05,-125.61 1006.07,-131.22 1016.59,-132.44 1015.05,-125.61"/>
</g>
<!-- Node333 -->
<g id="node19" class="node">
<title>Node333</title>
<g id="a_node19"><a xlink:href="m__Do__controller__pad_8cpp.html" target="_top" xlink:title=" ">
<polygon fill="white" stroke="#666666" points="1145.5,-96 1013.5,-96 1013.5,-66 1145.5,-66 1145.5,-96"/>
<text text-anchor="start" x="1021.5" y="-84" font-family="Helvetica,sans-Serif" font-size="10.00">src/m_Do/m_Do_controller</text>
<text text-anchor="middle" x="1079.5" y="-73" font-family="Helvetica,sans-Serif" font-size="10.00">_pad.cpp</text>
</a>
</g>
</g>
<!-- Node331&#45;&gt;Node333 -->
<g id="edge19" class="edge">
<title>Node331&#45;&gt;Node333</title>
<path fill="none" stroke="#63b8ff" d="M982.08,-126.86C1003.37,-117.05 1028.85,-105.32 1048.41,-96.31"/>
<polygon fill="#63b8ff" stroke="#63b8ff" points="980.69,-123.64 973.07,-131 983.62,-130 980.69,-123.64"/>
</g>
<!-- Node335 -->
<g id="node21" class="node">
<title>Node335</title>
<g id="a_node21"><a xlink:href="c__bg__s__shdw__draw_8h.html" target="_top" xlink:title=" ">
<polygon fill="#fff0f0" stroke="red" points="2111,-30 1962,-30 1962,0 2111,0 2111,-30"/>
<text text-anchor="start" x="1970" y="-18" font-family="Helvetica,sans-Serif" font-size="10.00">include/SSystem/SComponent</text>
<text text-anchor="middle" x="2036.5" y="-7" font-family="Helvetica,sans-Serif" font-size="10.00">/c_bg_s_shdw_draw.h</text>
</a>
</g>
</g>
<!-- Node334&#45;&gt;Node335 -->
<g id="edge21" class="edge">
<title>Node334&#45;&gt;Node335</title>
<path fill="none" stroke="#63b8ff" d="M2065.74,-56.68C2059.35,-47.79 2052.27,-37.95 2046.68,-30.16"/>
<polygon fill="#63b8ff" stroke="#63b8ff" points="2062.73,-58.49 2071.41,-64.57 2068.41,-54.4 2062.73,-58.49"/>
</g>
<!-- Node334&#45;&gt;Node345 -->
<g id="edge22" class="edge">
<title>Node334&#45;&gt;Node345</title>
<path fill="none" stroke="#63b8ff" d="M2115.29,-59.63C2134.05,-47.97 2156.64,-33.93 2171.04,-24.99"/>
<polygon fill="#63b8ff" stroke="#63b8ff" points="2113.55,-56.59 2106.9,-64.84 2117.24,-62.53 2113.55,-56.59"/>
</g>
<!-- Node354&#45;&gt;Node334 -->
<g id="edge25" class="edge">
<title>Node354&#45;&gt;Node334</title>
<path fill="none" stroke="#63b8ff" d="M2053.26,-122.68C2059.65,-113.79 2066.73,-103.95 2072.32,-96.16"/>
<polygon fill="#63b8ff" stroke="#63b8ff" points="2050.59,-120.4 2047.59,-130.57 2056.27,-124.49 2050.59,-120.4"/>
</g>
<!-- Node422&#45;&gt;Node32 -->
<g id="edge38" class="edge">
<title>Node422&#45;&gt;Node32</title>
<path fill="none" stroke="#63b8ff" d="M377.83,-121.25C374.51,-112.75 370.91,-103.53 368.03,-96.16"/>
<polygon fill="#63b8ff" stroke="#63b8ff" points="374.5,-122.35 381.4,-130.39 381.02,-119.8 374.5,-122.35"/>
</g>
<!-- Node434&#45;&gt;Node33 -->
<g id="edge46" class="edge">
<title>Node434&#45;&gt;Node33</title>
<path fill="none" stroke="#63b8ff" d="M490.5,-59.68C490.5,-47.94 490.5,-33.77 490.5,-24.82"/>
<polygon fill="#63b8ff" stroke="#63b8ff" points="487,-59.59 490.5,-69.59 494,-59.59 487,-59.59"/>
</g>
<!-- Node435&#45;&gt;Node221 -->
<g id="edge48" class="edge">
<title>Node435&#45;&gt;Node221</title>
<path fill="none" stroke="#63b8ff" d="M1265,-123.81C1256.12,-114.64 1246.08,-104.28 1238.22,-96.16"/>
<polygon fill="#63b8ff" stroke="#63b8ff" points="1262.22,-125.96 1271.69,-130.71 1267.24,-121.09 1262.22,-125.96"/>
</g>
</g>
</svg>
        <g id="navigator" transform="translate(0 0)" fill="#404254">
                <rect fill="#f2f5e9" fill-opacity="0.5" stroke="#606060" stroke-width=".5" x="0" y="0" width="60" height="60"/>
                <use id="zoomplus" xlink:href="#zoomPlus" x="17" y="9" onmousedown="handleZoom(evt,'in')"/>
                <use id="zoomminus" xlink:href="#zoomMin" x="42" y="9" onmousedown="handleZoom(evt,'out')"/>
                <use id="reset" xlink:href="#resetDef" x="30" y="36" onmousedown="handleReset()"/>
                <g id="arrowUp" xlink:href="#dirArrow" transform="translate(30 24)" onmousedown="handlePan(0,-1)">
                  <use xlink:href="#rim" fill="#404040">
                        <set attributeName="fill" to="#808080" begin="arrowUp.mouseover" end="arrowUp.mouseout"/>
                  </use>
                  <path fill="none" stroke="white" stroke-width="1.5" d="M0,-3.0v7 M-2.5,-0.5L0,-3.0L2.5,-0.5"/>
                </g>
                <g id="arrowRight" xlink:href="#dirArrow" transform="rotate(90) translate(36 -43)" onmousedown="handlePan(1,0)">
                  <use xlink:href="#rim" fill="#404040">
                        <set attributeName="fill" to="#808080" begin="arrowRight.mouseover" end="arrowRight.mouseout"/>
                  </use>
                  <path fill="none" stroke="white" stroke-width="1.5" d="M0,-3.0v7 M-2.5,-0.5L0,-3.0L2.5,-0.5"/>
                </g>
                <g id="arrowDown" xlink:href="#dirArrow" transform="rotate(180) translate(-30 -48)" onmousedown="handlePan(0,1)">
                  <use xlink:href="#rim" fill="#404040">
                        <set attributeName="fill" to="#808080" begin="arrowDown.mouseover" end="arrowDown.mouseout"/>
                  </use>
                  <path fill="none" stroke="white" stroke-width="1.5" d="M0,-3.0v7 M-2.5,-0.5L0,-3.0L2.5,-0.5"/>
                </g>
                <g id="arrowLeft" xlink:href="#dirArrow" transform="rotate(270) translate(-36 17)" onmousedown="handlePan(-1,0)">
                  <use xlink:href="#rim" fill="#404040">
                        <set attributeName="fill" to="#808080" begin="arrowLeft.mouseover" end="arrowLeft.mouseout"/>
                  </use>
                  <path fill="none" stroke="white" stroke-width="1.5" d="M0,-3.0v7 M-2.5,-0.5L0,-3.0L2.5,-0.5"/>
                </g>
        </g>
        <svg viewBox="0 0 15 15" width="100%" height="30px" preserveAspectRatio="xMaxYMin meet">
         <g id="arrow_out" transform="scale(0.3 0.3)">
          <a xlink:href="c__xyz_8h__dep__incl_org.svg" target="_base">
           <rect id="button" ry="5" rx="5" y="6" x="6" height="38" width="38"
                fill="#f2f5e9" fill-opacity="0.5" stroke="#606060" stroke-width="1.0"/>
           <path id="arrow"
             d="M 11.500037,31.436501 C 11.940474,20.09759 22.043105,11.32322 32.158766,21.979434 L 37.068811,17.246167 C 37.068811,17.246167 37.088388,32 37.088388,32 L 22.160133,31.978069 C 22.160133,31.978069 26.997745,27.140456 26.997745,27.140456 C 18.528582,18.264221 13.291696,25.230495 11.500037,31.436501 z"
             style="fill:#404040;"/>
          </a>
         </g>
        </svg>
</svg>
