<?xml version="1.0" encoding="UTF-8" standalone="no"?>
<!DOCTYPE svg PUBLIC "-//W3C//DTD SVG 1.1//EN"
 "http://www.w3.org/Graphics/SVG/1.1/DTD/svg11.dtd">
<!-- Generated by graphviz version 7.0.5 (20221223.1930)
 -->
<!-- Title: include/rel/d/a/tag/d_a_tag_shop_item/d_a_tag_shop_item.h Pages: 1 -->
<svg width="310pt" height="126pt"
 viewBox="0.00 0.00 309.50 126.00" xmlns="http://www.w3.org/2000/svg" xmlns:xlink="http://www.w3.org/1999/xlink">
<g id="graph0" class="graph" transform="scale(1 1) rotate(0) translate(4 122)">
<title>include/rel/d/a/tag/d_a_tag_shop_item/d_a_tag_shop_item.h</title>
<!-- Node1 -->
<g id="node1" class="node">
<title>Node1</title>
<g id="a_node1"><a xlink:title=" ">
<polygon fill="#999999" stroke="#666666" points="202,-118 89,-118 89,-77 202,-77 202,-118"/>
<text text-anchor="start" x="97" y="-106" font-family="Helvetica,sans-Serif" font-size="10.00">include/rel/d/a/tag</text>
<text text-anchor="start" x="97" y="-95" font-family="Helvetica,sans-Serif" font-size="10.00">/d_a_tag_shop_item/d</text>
<text text-anchor="middle" x="145.5" y="-84" font-family="Helvetica,sans-Serif" font-size="10.00">_a_tag_shop_item.h</text>
</a>
</g>
</g>
<!-- Node2 -->
<g id="node2" class="node">
<title>Node2</title>
<g id="a_node2"><a xlink:href="d__a__tag__shop__item_8cpp.html" target="_top" xlink:title=" ">
<polygon fill="white" stroke="#666666" points="131,-41 0,-41 0,0 131,0 131,-41"/>
<text text-anchor="start" x="8" y="-29" font-family="Helvetica,sans-Serif" font-size="10.00">rel/d/a/tag/d_a_tag</text>
<text text-anchor="start" x="8" y="-18" font-family="Helvetica,sans-Serif" font-size="10.00">_shop_item/d_a_tag_shop</text>
<text text-anchor="middle" x="65.5" y="-7" font-family="Helvetica,sans-Serif" font-size="10.00">_item.cpp</text>
</a>
</g>
</g>
<!-- Node1&#45;&gt;Node2 -->
<g id="edge1" class="edge">
<title>Node1&#45;&gt;Node2</title>
<path fill="none" stroke="#63b8ff" d="M116.18,-69.02C106.4,-59.84 95.7,-49.81 86.66,-41.33"/>
<polygon fill="#63b8ff" stroke="#63b8ff" points="113.69,-71.47 123.38,-75.76 118.48,-66.37 113.69,-71.47"/>
</g>
<!-- Node3 -->
<g id="node3" class="node">
<title>Node3</title>
<g id="a_node3"><a xlink:href="d__shop__system_8cpp.html" target="_top" xlink:title=" ">
<polygon fill="white" stroke="#666666" points="301.5,-30 149.5,-30 149.5,-11 301.5,-11 301.5,-30"/>
<text text-anchor="middle" x="225.5" y="-18" font-family="Helvetica,sans-Serif" font-size="10.00">src/d/shop/d_shop_system.cpp</text>
</a>
</g>
</g>
<!-- Node1&#45;&gt;Node3 -->
<g id="edge2" class="edge">
<title>Node1&#45;&gt;Node3</title>
<path fill="none" stroke="#63b8ff" d="M174.82,-69.02C189.42,-55.33 206.07,-39.71 216.18,-30.24"/>
<polygon fill="#63b8ff" stroke="#63b8ff" points="172.52,-66.37 167.62,-75.76 177.31,-71.47 172.52,-66.37"/>
</g>
</g>
</svg>
