<?xml version="1.0" encoding="UTF-8" standalone="no"?>
<!DOCTYPE svg PUBLIC "-//W3C//DTD SVG 1.1//EN"
 "http://www.w3.org/Graphics/SVG/1.1/DTD/svg11.dtd">
<!-- Generated by graphviz version 7.0.5 (20221223.1930)
 -->
<!-- Title: rel/d/a/obj/d_a_obj_picture/d_a_obj_picture.cpp Pages: 1 -->
<svg width="5014pt" height="258pt"
 viewBox="0.00 0.00 5014.00 258.00" xmlns="http://www.w3.org/2000/svg" xmlns:xlink="http://www.w3.org/1999/xlink">
<g id="graph0" class="graph" transform="scale(1 1) rotate(0) translate(4 254)">
<title>rel/d/a/obj/d_a_obj_picture/d_a_obj_picture.cpp</title>
<!-- Node1 -->
<g id="node1" class="node">
<title>Node1</title>
<g id="a_node1"><a xlink:title=" ">
<polygon fill="#999999" stroke="#666666" points="2581,-250 2441,-250 2441,-220 2581,-220 2581,-250"/>
<text text-anchor="start" x="2449" y="-238" font-family="Helvetica,sans-Serif" font-size="10.00">rel/d/a/obj/d_a_obj</text>
<text text-anchor="middle" x="2511" y="-227" font-family="Helvetica,sans-Serif" font-size="10.00">_picture/d_a_obj_picture.cpp</text>
</a>
</g>
</g>
<!-- Node2 -->
<g id="node2" class="node">
<title>Node2</title>
<g id="a_node2"><a xlink:href="d__a__obj__picture_8h.html" target="_top" xlink:title=" ">
<polygon fill="white" stroke="#666666" points="130,-167.5 0,-167.5 0,-137.5 130,-137.5 130,-167.5"/>
<text text-anchor="start" x="8" y="-155.5" font-family="Helvetica,sans-Serif" font-size="10.00">rel/d/a/obj/d_a_obj</text>
<text text-anchor="middle" x="65" y="-144.5" font-family="Helvetica,sans-Serif" font-size="10.00">_picture/d_a_obj_picture.h</text>
</a>
</g>
</g>
<!-- Node1&#45;&gt;Node2 -->
<g id="edge1" class="edge">
<title>Node1&#45;&gt;Node2</title>
<path fill="none" stroke="#63b8ff" d="M2440.8,-233.96C2072.75,-233.58 373.92,-229.36 144,-184 131.06,-181.45 117.49,-176.94 105.31,-172.16"/>
<polygon fill="#63b8ff" stroke="#63b8ff" points="107.01,-169.07 96.43,-168.5 104.34,-175.54 107.01,-169.07"/>
</g>
<!-- Node3 -->
<g id="node3" class="node">
<title>Node3</title>
<g id="a_node3"><a xlink:href="types_8h.html" target="_top" xlink:title=" ">
<polygon fill="white" stroke="#666666" points="151.5,-85 70.5,-85 70.5,-66 151.5,-66 151.5,-85"/>
<text text-anchor="middle" x="111" y="-73" font-family="Helvetica,sans-Serif" font-size="10.00">dolphin/types.h</text>
</a>
</g>
</g>
<!-- Node1&#45;&gt;Node3 -->
<g id="edge5" class="edge">
<title>Node1&#45;&gt;Node3</title>
<path fill="none" stroke="#63b8ff" d="M2440.61,-233.41C2056.45,-230.09 228.36,-212.77 178,-184 149.4,-167.67 156.44,-148.94 139,-121 133.62,-112.39 127.63,-102.85 122.58,-94.83"/>
<polygon fill="#63b8ff" stroke="#63b8ff" points="125.7,-93.22 117.4,-86.63 119.78,-96.96 125.7,-93.22"/>
</g>
<!-- Node5 -->
<g id="node5" class="node">
<title>Node5</title>
<g id="a_node5"><a xlink:href="dol2asm_8h.html" target="_top" xlink:title=" ">
<polygon fill="white" stroke="#666666" points="247.5,-162 186.5,-162 186.5,-143 247.5,-143 247.5,-162"/>
<text text-anchor="middle" x="217" y="-150" font-family="Helvetica,sans-Serif" font-size="10.00">dol2asm.h</text>
</a>
</g>
</g>
<!-- Node1&#45;&gt;Node5 -->
<g id="edge4" class="edge">
<title>Node1&#45;&gt;Node5</title>
<path fill="none" stroke="#63b8ff" d="M2440.7,-233.66C2070.74,-231.74 362.37,-220.9 257,-184 248.39,-180.98 240.14,-175.35 233.4,-169.73"/>
<polygon fill="#63b8ff" stroke="#63b8ff" points="236.12,-167.48 226.36,-163.36 231.42,-172.66 236.12,-167.48"/>
</g>
<!-- Node6 -->
<g id="node6" class="node">
<title>Node6</title>
<g id="a_node6"><a xlink:title=" ">
<polygon fill="#e0e0e0" stroke="#999999" points="408,-184 266,-184 266,-121 408,-121 408,-184"/>
<text text-anchor="start" x="274" y="-172" font-family="Helvetica,sans-Serif" font-size="10.00">asm/rel/d/a/obj/d_a</text>
<text text-anchor="start" x="274" y="-161" font-family="Helvetica,sans-Serif" font-size="10.00">_obj_picture/d_a_obj</text>
<text text-anchor="start" x="274" y="-150" font-family="Helvetica,sans-Serif" font-size="10.00">_picture/daObjPicture</text>
<text text-anchor="start" x="274" y="-139" font-family="Helvetica,sans-Serif" font-size="10.00">_c_createHeap__FP10fopAc</text>
<text text-anchor="middle" x="337" y="-128" font-family="Helvetica,sans-Serif" font-size="10.00">_ac_c.s</text>
</a>
</g>
</g>
<!-- Node1&#45;&gt;Node6 -->
<g id="edge6" class="edge">
<title>Node1&#45;&gt;Node6</title>
<path fill="none" stroke="#63b8ff" d="M2440.67,-233.72C2104.4,-232.19 667.13,-223.51 419.38,-183.76"/>
<polygon fill="#63b8ff" stroke="#63b8ff" points="420.12,-180.34 409.66,-182.04 418.9,-187.23 420.12,-180.34"/>
</g>
<!-- Node7 -->
<g id="node7" class="node">
<title>Node7</title>
<g id="a_node7"><a xlink:title=" ">
<polygon fill="#e0e0e0" stroke="#999999" points="605.5,-173 426.5,-173 426.5,-132 605.5,-132 605.5,-173"/>
<text text-anchor="start" x="434.5" y="-161" font-family="Helvetica,sans-Serif" font-size="10.00">asm/rel/d/a/obj/d_a</text>
<text text-anchor="start" x="434.5" y="-150" font-family="Helvetica,sans-Serif" font-size="10.00">_obj_picture/d_a_obj</text>
<text text-anchor="middle" x="516" y="-139" font-family="Helvetica,sans-Serif" font-size="10.00">_picture/__ct__14daObjPicture_cFv.s</text>
</a>
</g>
</g>
<!-- Node1&#45;&gt;Node7 -->
<g id="edge7" class="edge">
<title>Node1&#45;&gt;Node7</title>
<path fill="none" stroke="#63b8ff" d="M2440.77,-233.28C2119.46,-229.83 797.47,-213.94 615,-184 604.22,-182.23 592.98,-179.58 582.11,-176.58"/>
<polygon fill="#63b8ff" stroke="#63b8ff" points="583.42,-173.31 572.84,-173.89 581.47,-180.04 583.42,-173.31"/>
</g>
<!-- Node8 -->
<g id="node8" class="node">
<title>Node8</title>
<g id="a_node8"><a xlink:title=" ">
<polygon fill="#e0e0e0" stroke="#999999" points="776,-173 624,-173 624,-132 776,-132 776,-173"/>
<text text-anchor="start" x="632" y="-161" font-family="Helvetica,sans-Serif" font-size="10.00">asm/rel/d/a/obj/d_a</text>
<text text-anchor="start" x="632" y="-150" font-family="Helvetica,sans-Serif" font-size="10.00">_obj_picture/d_a_obj</text>
<text text-anchor="middle" x="700" y="-139" font-family="Helvetica,sans-Serif" font-size="10.00">_picture/__dt__8cM3dGCylFv.s</text>
</a>
</g>
</g>
<!-- Node1&#45;&gt;Node8 -->
<g id="edge8" class="edge">
<title>Node1&#45;&gt;Node8</title>
<path fill="none" stroke="#63b8ff" d="M2440.54,-233.27C2137.03,-229.94 949.22,-215.03 785,-184 776.13,-182.32 766.95,-179.86 758.04,-177.04"/>
<polygon fill="#63b8ff" stroke="#63b8ff" points="759.39,-173.8 748.8,-173.95 757.17,-180.44 759.39,-173.8"/>
</g>
<!-- Node9 -->
<g id="node9" class="node">
<title>Node9</title>
<g id="a_node9"><a xlink:title=" ">
<polygon fill="#e0e0e0" stroke="#999999" points="950,-173 794,-173 794,-132 950,-132 950,-173"/>
<text text-anchor="start" x="802" y="-161" font-family="Helvetica,sans-Serif" font-size="10.00">asm/rel/d/a/obj/d_a</text>
<text text-anchor="start" x="802" y="-150" font-family="Helvetica,sans-Serif" font-size="10.00">_obj_picture/d_a_obj</text>
<text text-anchor="middle" x="872" y="-139" font-family="Helvetica,sans-Serif" font-size="10.00">_picture/__dt__8cM3dGAabFv.s</text>
</a>
</g>
</g>
<!-- Node1&#45;&gt;Node9 -->
<g id="edge9" class="edge">
<title>Node1&#45;&gt;Node9</title>
<path fill="none" stroke="#63b8ff" d="M2440.64,-232.98C2157.1,-228.69 1106.45,-211.09 960,-184 950.74,-182.29 941.15,-179.78 931.84,-176.92"/>
<polygon fill="#63b8ff" stroke="#63b8ff" points="933.12,-173.65 922.53,-173.9 930.96,-180.31 933.12,-173.65"/>
</g>
<!-- Node10 -->
<g id="node10" class="node">
<title>Node10</title>
<g id="a_node10"><a xlink:title=" ">
<polygon fill="#e0e0e0" stroke="#999999" points="1081.5,-178.5 968.5,-178.5 968.5,-126.5 1081.5,-126.5 1081.5,-178.5"/>
<text text-anchor="start" x="976.5" y="-166.5" font-family="Helvetica,sans-Serif" font-size="10.00">asm/rel/d/a/obj/d_a</text>
<text text-anchor="start" x="976.5" y="-155.5" font-family="Helvetica,sans-Serif" font-size="10.00">_obj_picture/d_a_obj</text>
<text text-anchor="start" x="976.5" y="-144.5" font-family="Helvetica,sans-Serif" font-size="10.00">_picture/__dt__8dCcD</text>
<text text-anchor="middle" x="1025" y="-133.5" font-family="Helvetica,sans-Serif" font-size="10.00">_CpsFv.s</text>
</a>
</g>
</g>
<!-- Node1&#45;&gt;Node10 -->
<g id="edge10" class="edge">
<title>Node1&#45;&gt;Node10</title>
<path fill="none" stroke="#63b8ff" d="M2440.66,-233.16C2172.49,-229.71 1222.68,-215.39 1091,-184 1089.14,-183.56 1087.27,-183.06 1085.4,-182.52"/>
<polygon fill="#63b8ff" stroke="#63b8ff" points="1086.74,-179.27 1076.14,-179.43 1084.53,-185.91 1086.74,-179.27"/>
</g>
<!-- Node11 -->
<g id="node11" class="node">
<title>Node11</title>
<g id="a_node11"><a xlink:title=" ">
<polygon fill="#e0e0e0" stroke="#999999" points="1212.5,-178.5 1099.5,-178.5 1099.5,-126.5 1212.5,-126.5 1212.5,-178.5"/>
<text text-anchor="start" x="1107.5" y="-166.5" font-family="Helvetica,sans-Serif" font-size="10.00">asm/rel/d/a/obj/d_a</text>
<text text-anchor="start" x="1107.5" y="-155.5" font-family="Helvetica,sans-Serif" font-size="10.00">_obj_picture/d_a_obj</text>
<text text-anchor="start" x="1107.5" y="-144.5" font-family="Helvetica,sans-Serif" font-size="10.00">_picture/__ct__8dCcD</text>
<text text-anchor="middle" x="1156" y="-133.5" font-family="Helvetica,sans-Serif" font-size="10.00">_CpsFv.s</text>
</a>
</g>
</g>
<!-- Node1&#45;&gt;Node11 -->
<g id="edge11" class="edge">
<title>Node1&#45;&gt;Node11</title>
<path fill="none" stroke="#63b8ff" d="M2440.78,-232.89C2189.03,-228.67 1340.47,-212.47 1222,-184 1220.14,-183.55 1218.28,-183.05 1216.41,-182.51"/>
<polygon fill="#63b8ff" stroke="#63b8ff" points="1217.74,-179.26 1207.15,-179.42 1215.52,-185.9 1217.74,-179.26"/>
</g>
<!-- Node12 -->
<g id="node12" class="node">
<title>Node12</title>
<g id="a_node12"><a xlink:title=" ">
<polygon fill="#e0e0e0" stroke="#999999" points="1349,-178.5 1231,-178.5 1231,-126.5 1349,-126.5 1349,-178.5"/>
<text text-anchor="start" x="1239" y="-166.5" font-family="Helvetica,sans-Serif" font-size="10.00">asm/rel/d/a/obj/d_a</text>
<text text-anchor="start" x="1239" y="-155.5" font-family="Helvetica,sans-Serif" font-size="10.00">_obj_picture/d_a_obj</text>
<text text-anchor="start" x="1239" y="-144.5" font-family="Helvetica,sans-Serif" font-size="10.00">_picture/__dt__10dCcD</text>
<text text-anchor="middle" x="1290" y="-133.5" font-family="Helvetica,sans-Serif" font-size="10.00">_GSttsFv.s</text>
</a>
</g>
</g>
<!-- Node1&#45;&gt;Node12 -->
<g id="edge12" class="edge">
<title>Node1&#45;&gt;Node12</title>
<path fill="none" stroke="#63b8ff" d="M2440.84,-234.36C2223.92,-234.92 1566.23,-232.48 1359,-184 1356.98,-183.53 1354.95,-183 1352.92,-182.42"/>
<polygon fill="#63b8ff" stroke="#63b8ff" points="1354.07,-179.11 1343.48,-179.37 1351.92,-185.78 1354.07,-179.11"/>
</g>
<!-- Node13 -->
<g id="node13" class="node">
<title>Node13</title>
<g id="a_node13"><a xlink:title=" ">
<polygon fill="#e0e0e0" stroke="#999999" points="1546.5,-173 1367.5,-173 1367.5,-132 1546.5,-132 1546.5,-173"/>
<text text-anchor="start" x="1375.5" y="-161" font-family="Helvetica,sans-Serif" font-size="10.00">asm/rel/d/a/obj/d_a</text>
<text text-anchor="start" x="1375.5" y="-150" font-family="Helvetica,sans-Serif" font-size="10.00">_obj_picture/d_a_obj</text>
<text text-anchor="middle" x="1457" y="-139" font-family="Helvetica,sans-Serif" font-size="10.00">_picture/__dt__14daObjPicture_cFv.s</text>
</a>
</g>
</g>
<!-- Node1&#45;&gt;Node13 -->
<g id="edge13" class="edge">
<title>Node1&#45;&gt;Node13</title>
<path fill="none" stroke="#63b8ff" d="M2440.8,-232.57C2250.2,-228.32 1726.01,-214.16 1556,-184 1545.55,-182.15 1534.66,-179.53 1524.09,-176.59"/>
<polygon fill="#63b8ff" stroke="#63b8ff" points="1525.24,-173.29 1514.67,-173.86 1523.3,-180.01 1525.24,-173.29"/>
</g>
<!-- Node14 -->
<g id="node14" class="node">
<title>Node14</title>
<g id="a_node14"><a xlink:title=" ">
<polygon fill="#e0e0e0" stroke="#999999" points="1683,-178.5 1565,-178.5 1565,-126.5 1683,-126.5 1683,-178.5"/>
<text text-anchor="start" x="1573" y="-166.5" font-family="Helvetica,sans-Serif" font-size="10.00">asm/rel/d/a/obj/d_a</text>
<text text-anchor="start" x="1573" y="-155.5" font-family="Helvetica,sans-Serif" font-size="10.00">_obj_picture/d_a_obj</text>
<text text-anchor="start" x="1573" y="-144.5" font-family="Helvetica,sans-Serif" font-size="10.00">_picture/createHeap_</text>
<text text-anchor="middle" x="1624" y="-133.5" font-family="Helvetica,sans-Serif" font-size="10.00">_14daObjPicture_cFv.s</text>
</a>
</g>
</g>
<!-- Node1&#45;&gt;Node14 -->
<g id="edge14" class="edge">
<title>Node1&#45;&gt;Node14</title>
<path fill="none" stroke="#63b8ff" d="M2440.5,-232.94C2268.86,-229.84 1833.01,-218.7 1692,-184 1690.14,-183.54 1688.27,-183.04 1686.4,-182.49"/>
<polygon fill="#63b8ff" stroke="#63b8ff" points="1687.7,-179.23 1677.11,-179.42 1685.5,-185.88 1687.7,-179.23"/>
</g>
<!-- Node15 -->
<g id="node15" class="node">
<title>Node15</title>
<g id="a_node15"><a xlink:title=" ">
<polygon fill="#e0e0e0" stroke="#999999" points="1889,-173 1701,-173 1701,-132 1889,-132 1889,-173"/>
<text text-anchor="start" x="1709" y="-161" font-family="Helvetica,sans-Serif" font-size="10.00">asm/rel/d/a/obj/d_a</text>
<text text-anchor="start" x="1709" y="-150" font-family="Helvetica,sans-Serif" font-size="10.00">_obj_picture/d_a_obj</text>
<text text-anchor="middle" x="1795" y="-139" font-family="Helvetica,sans-Serif" font-size="10.00">_picture/create__14daObjPicture_cFv.s</text>
</a>
</g>
</g>
<!-- Node1&#45;&gt;Node15 -->
<g id="edge15" class="edge">
<title>Node1&#45;&gt;Node15</title>
<path fill="none" stroke="#63b8ff" d="M2440.51,-232.96C2325.84,-230.23 2092.18,-220.27 1898,-184 1887.46,-182.03 1876.45,-179.41 1865.72,-176.52"/>
<polygon fill="#63b8ff" stroke="#63b8ff" points="1866.7,-173.16 1856.13,-173.84 1864.82,-179.9 1866.7,-173.16"/>
</g>
<!-- Node16 -->
<g id="node16" class="node">
<title>Node16</title>
<g id="a_node16"><a xlink:title=" ">
<polygon fill="#e0e0e0" stroke="#999999" points="2095,-173 1907,-173 1907,-132 2095,-132 2095,-173"/>
<text text-anchor="start" x="1915" y="-161" font-family="Helvetica,sans-Serif" font-size="10.00">asm/rel/d/a/obj/d_a</text>
<text text-anchor="start" x="1915" y="-150" font-family="Helvetica,sans-Serif" font-size="10.00">_obj_picture/d_a_obj</text>
<text text-anchor="middle" x="2001" y="-139" font-family="Helvetica,sans-Serif" font-size="10.00">_picture/Delete__14daObjPicture_cFv.s</text>
</a>
</g>
</g>
<!-- Node1&#45;&gt;Node16 -->
<g id="edge16" class="edge">
<title>Node1&#45;&gt;Node16</title>
<path fill="none" stroke="#63b8ff" d="M2440.57,-228.91C2358.96,-222.19 2220.75,-208.28 2104,-184 2094.01,-181.92 2083.59,-179.34 2073.37,-176.56"/>
<polygon fill="#63b8ff" stroke="#63b8ff" points="2074.43,-173.22 2063.85,-173.9 2072.54,-179.96 2074.43,-173.22"/>
</g>
<!-- Node17 -->
<g id="node17" class="node">
<title>Node17</title>
<g id="a_node17"><a xlink:title=" ">
<polygon fill="#e0e0e0" stroke="#999999" points="2295,-173 2113,-173 2113,-132 2295,-132 2295,-173"/>
<text text-anchor="start" x="2121" y="-161" font-family="Helvetica,sans-Serif" font-size="10.00">asm/rel/d/a/obj/d_a</text>
<text text-anchor="start" x="2121" y="-150" font-family="Helvetica,sans-Serif" font-size="10.00">_obj_picture/d_a_obj</text>
<text text-anchor="middle" x="2204" y="-139" font-family="Helvetica,sans-Serif" font-size="10.00">_picture/draw__14daObjPicture_cFv.s</text>
</a>
</g>
</g>
<!-- Node1&#45;&gt;Node17 -->
<g id="edge17" class="edge">
<title>Node1&#45;&gt;Node17</title>
<path fill="none" stroke="#63b8ff" d="M2446.87,-219.54C2405.86,-210.04 2351.61,-197 2304,-184 2295.63,-181.71 2286.9,-179.22 2278.23,-176.67"/>
<polygon fill="#63b8ff" stroke="#63b8ff" points="2279.35,-173.35 2268.77,-173.86 2277.36,-180.06 2279.35,-173.35"/>
</g>
<!-- Node18 -->
<g id="node18" class="node">
<title>Node18</title>
<g id="a_node18"><a xlink:title=" ">
<polygon fill="#e0e0e0" stroke="#999999" points="2507,-173 2313,-173 2313,-132 2507,-132 2507,-173"/>
<text text-anchor="start" x="2321" y="-161" font-family="Helvetica,sans-Serif" font-size="10.00">asm/rel/d/a/obj/d_a</text>
<text text-anchor="start" x="2321" y="-150" font-family="Helvetica,sans-Serif" font-size="10.00">_obj_picture/d_a_obj</text>
<text text-anchor="middle" x="2410" y="-139" font-family="Helvetica,sans-Serif" font-size="10.00">_picture/execute__14daObjPicture_cFv.s</text>
</a>
</g>
</g>
<!-- Node1&#45;&gt;Node18 -->
<g id="edge18" class="edge">
<title>Node1&#45;&gt;Node18</title>
<path fill="none" stroke="#63b8ff" d="M2492.94,-219.61C2479.25,-208.7 2460.04,-193.38 2443.56,-180.24"/>
<polygon fill="#63b8ff" stroke="#63b8ff" points="2445.91,-177.65 2435.91,-174.15 2441.55,-183.12 2445.91,-177.65"/>
</g>
<!-- Node19 -->
<g id="node19" class="node">
<title>Node19</title>
<g id="a_node19"><a xlink:title=" ">
<polygon fill="#e0e0e0" stroke="#999999" points="2698.5,-173 2525.5,-173 2525.5,-132 2698.5,-132 2698.5,-173"/>
<text text-anchor="start" x="2533.5" y="-161" font-family="Helvetica,sans-Serif" font-size="10.00">asm/rel/d/a/obj/d_a</text>
<text text-anchor="start" x="2533.5" y="-150" font-family="Helvetica,sans-Serif" font-size="10.00">_obj_picture/d_a_obj</text>
<text text-anchor="middle" x="2612" y="-139" font-family="Helvetica,sans-Serif" font-size="10.00">_picture/init__14daObjPicture_cFv.s</text>
</a>
</g>
</g>
<!-- Node1&#45;&gt;Node19 -->
<g id="edge19" class="edge">
<title>Node1&#45;&gt;Node19</title>
<path fill="none" stroke="#63b8ff" d="M2529.06,-219.61C2542.75,-208.7 2561.96,-193.38 2578.44,-180.24"/>
<polygon fill="#63b8ff" stroke="#63b8ff" points="2580.45,-183.12 2586.09,-174.15 2576.09,-177.65 2580.45,-183.12"/>
</g>
<!-- Node20 -->
<g id="node20" class="node">
<title>Node20</title>
<g id="a_node20"><a xlink:title=" ">
<polygon fill="#e0e0e0" stroke="#999999" points="2841,-178.5 2717,-178.5 2717,-126.5 2841,-126.5 2841,-178.5"/>
<text text-anchor="start" x="2725" y="-166.5" font-family="Helvetica,sans-Serif" font-size="10.00">asm/rel/d/a/obj/d_a</text>
<text text-anchor="start" x="2725" y="-155.5" font-family="Helvetica,sans-Serif" font-size="10.00">_obj_picture/d_a_obj</text>
<text text-anchor="start" x="2725" y="-144.5" font-family="Helvetica,sans-Serif" font-size="10.00">_picture/setPicModelMtx</text>
<text text-anchor="middle" x="2779" y="-133.5" font-family="Helvetica,sans-Serif" font-size="10.00">__14daObjPicture_cFv.s</text>
</a>
</g>
</g>
<!-- Node1&#45;&gt;Node20 -->
<g id="edge20" class="edge">
<title>Node1&#45;&gt;Node20</title>
<path fill="none" stroke="#63b8ff" d="M2578.78,-219.57C2617.13,-210.72 2665.73,-198.34 2708,-184 2709.14,-183.61 2710.29,-183.21 2711.45,-182.81"/>
<polygon fill="#63b8ff" stroke="#63b8ff" points="2712.37,-186.2 2720.53,-179.45 2709.94,-179.63 2712.37,-186.2"/>
</g>
<!-- Node21 -->
<g id="node21" class="node">
<title>Node21</title>
<g id="a_node21"><a xlink:title=" ">
<polygon fill="#e0e0e0" stroke="#999999" points="2988.5,-178.5 2859.5,-178.5 2859.5,-126.5 2988.5,-126.5 2988.5,-178.5"/>
<text text-anchor="start" x="2867.5" y="-166.5" font-family="Helvetica,sans-Serif" font-size="10.00">asm/rel/d/a/obj/d_a</text>
<text text-anchor="start" x="2867.5" y="-155.5" font-family="Helvetica,sans-Serif" font-size="10.00">_obj_picture/d_a_obj</text>
<text text-anchor="start" x="2867.5" y="-144.5" font-family="Helvetica,sans-Serif" font-size="10.00">_picture/setTmgModelMtx</text>
<text text-anchor="middle" x="2924" y="-133.5" font-family="Helvetica,sans-Serif" font-size="10.00">__14daObjPicture_cFv.s</text>
</a>
</g>
</g>
<!-- Node1&#45;&gt;Node21 -->
<g id="edge21" class="edge">
<title>Node1&#45;&gt;Node21</title>
<path fill="none" stroke="#63b8ff" d="M2581.18,-228.69C2650.46,-222.28 2758.95,-209.07 2850,-184 2851.8,-183.51 2853.61,-182.98 2855.43,-182.43"/>
<polygon fill="#63b8ff" stroke="#63b8ff" points="2856.04,-185.91 2864.45,-179.46 2853.86,-179.26 2856.04,-185.91"/>
</g>
<!-- Node22 -->
<g id="node22" class="node">
<title>Node22</title>
<g id="a_node22"><a xlink:title=" ">
<polygon fill="#e0e0e0" stroke="#999999" points="3159.5,-178.5 3006.5,-178.5 3006.5,-126.5 3159.5,-126.5 3159.5,-178.5"/>
<text text-anchor="start" x="3014.5" y="-166.5" font-family="Helvetica,sans-Serif" font-size="10.00">asm/rel/d/a/obj/d_a</text>
<text text-anchor="start" x="3014.5" y="-155.5" font-family="Helvetica,sans-Serif" font-size="10.00">_obj_picture/d_a_obj</text>
<text text-anchor="start" x="3014.5" y="-144.5" font-family="Helvetica,sans-Serif" font-size="10.00">_picture/getLinePosPic</text>
<text text-anchor="middle" x="3083" y="-133.5" font-family="Helvetica,sans-Serif" font-size="10.00">__14daObjPicture_cFiP4cXyz.s</text>
</a>
</g>
</g>
<!-- Node1&#45;&gt;Node22 -->
<g id="edge22" class="edge">
<title>Node1&#45;&gt;Node22</title>
<path fill="none" stroke="#63b8ff" d="M2581.22,-232.11C2676.65,-228.35 2852.13,-217.14 2998,-184 3000.74,-183.38 3003.52,-182.69 3006.31,-181.96"/>
<polygon fill="#63b8ff" stroke="#63b8ff" points="3006.99,-185.4 3015.65,-179.3 3005.07,-178.67 3006.99,-185.4"/>
</g>
<!-- Node23 -->
<g id="node23" class="node">
<title>Node23</title>
<g id="a_node23"><a xlink:title=" ">
<polygon fill="#e0e0e0" stroke="#999999" points="3328.5,-178.5 3177.5,-178.5 3177.5,-126.5 3328.5,-126.5 3328.5,-178.5"/>
<text text-anchor="start" x="3185.5" y="-166.5" font-family="Helvetica,sans-Serif" font-size="10.00">asm/rel/d/a/obj/d_a</text>
<text text-anchor="start" x="3185.5" y="-155.5" font-family="Helvetica,sans-Serif" font-size="10.00">_obj_picture/d_a_obj</text>
<text text-anchor="start" x="3185.5" y="-144.5" font-family="Helvetica,sans-Serif" font-size="10.00">_picture/getPosTmg__14daObj</text>
<text text-anchor="middle" x="3253" y="-133.5" font-family="Helvetica,sans-Serif" font-size="10.00">Picture_cFP4cXyz.s</text>
</a>
</g>
</g>
<!-- Node1&#45;&gt;Node23 -->
<g id="edge23" class="edge">
<title>Node1&#45;&gt;Node23</title>
<path fill="none" stroke="#63b8ff" d="M2581.05,-234.89C2702.28,-235.05 2958.44,-229.33 3169,-184 3171.79,-183.4 3174.61,-182.73 3177.44,-182"/>
<polygon fill="#63b8ff" stroke="#63b8ff" points="3178.25,-185.41 3186.94,-179.34 3176.36,-178.67 3178.25,-185.41"/>
</g>
<!-- Node24 -->
<g id="node24" class="node">
<title>Node24</title>
<g id="a_node24"><a xlink:title=" ">
<polygon fill="#e0e0e0" stroke="#999999" points="3465,-178.5 3347,-178.5 3347,-126.5 3465,-126.5 3465,-178.5"/>
<text text-anchor="start" x="3355" y="-166.5" font-family="Helvetica,sans-Serif" font-size="10.00">asm/rel/d/a/obj/d_a</text>
<text text-anchor="start" x="3355" y="-155.5" font-family="Helvetica,sans-Serif" font-size="10.00">_obj_picture/d_a_obj</text>
<text text-anchor="start" x="3355" y="-144.5" font-family="Helvetica,sans-Serif" font-size="10.00">_picture/setLinePos_</text>
<text text-anchor="middle" x="3406" y="-133.5" font-family="Helvetica,sans-Serif" font-size="10.00">_14daObjPicture_cFv.s</text>
</a>
</g>
</g>
<!-- Node1&#45;&gt;Node24 -->
<g id="edge24" class="edge">
<title>Node1&#45;&gt;Node24</title>
<path fill="none" stroke="#63b8ff" d="M2581.23,-232.99C2753.89,-230 3195.35,-219.06 3338,-184 3339.86,-183.54 3341.73,-183.04 3343.6,-182.49"/>
<polygon fill="#63b8ff" stroke="#63b8ff" points="3344.5,-185.88 3352.89,-179.42 3342.3,-179.23 3344.5,-185.88"/>
</g>
<!-- Node25 -->
<g id="node25" class="node">
<title>Node25</title>
<g id="a_node25"><a xlink:title=" ">
<polygon fill="#e0e0e0" stroke="#999999" points="3606.5,-178.5 3483.5,-178.5 3483.5,-126.5 3606.5,-126.5 3606.5,-178.5"/>
<text text-anchor="start" x="3491.5" y="-166.5" font-family="Helvetica,sans-Serif" font-size="10.00">asm/rel/d/a/obj/d_a</text>
<text text-anchor="start" x="3491.5" y="-155.5" font-family="Helvetica,sans-Serif" font-size="10.00">_obj_picture/d_a_obj</text>
<text text-anchor="start" x="3491.5" y="-144.5" font-family="Helvetica,sans-Serif" font-size="10.00">_picture/moveLineFall1</text>
<text text-anchor="middle" x="3545" y="-133.5" font-family="Helvetica,sans-Serif" font-size="10.00">__14daObjPicture_cFv.s</text>
</a>
</g>
</g>
<!-- Node1&#45;&gt;Node25 -->
<g id="edge25" class="edge">
<title>Node1&#45;&gt;Node25</title>
<path fill="none" stroke="#63b8ff" d="M2581.29,-233.56C2773.41,-231.84 3304.22,-223.54 3474,-184 3476.02,-183.53 3478.05,-183.01 3480.09,-182.43"/>
<polygon fill="#63b8ff" stroke="#63b8ff" points="3481.08,-185.79 3489.56,-179.45 3478.97,-179.12 3481.08,-185.79"/>
</g>
<!-- Node26 -->
<g id="node26" class="node">
<title>Node26</title>
<g id="a_node26"><a xlink:title=" ">
<polygon fill="#e0e0e0" stroke="#999999" points="3747.5,-178.5 3624.5,-178.5 3624.5,-126.5 3747.5,-126.5 3747.5,-178.5"/>
<text text-anchor="start" x="3632.5" y="-166.5" font-family="Helvetica,sans-Serif" font-size="10.00">asm/rel/d/a/obj/d_a</text>
<text text-anchor="start" x="3632.5" y="-155.5" font-family="Helvetica,sans-Serif" font-size="10.00">_obj_picture/d_a_obj</text>
<text text-anchor="start" x="3632.5" y="-144.5" font-family="Helvetica,sans-Serif" font-size="10.00">_picture/moveLineFall2</text>
<text text-anchor="middle" x="3686" y="-133.5" font-family="Helvetica,sans-Serif" font-size="10.00">__14daObjPicture_cFv.s</text>
</a>
</g>
</g>
<!-- Node1&#45;&gt;Node26 -->
<g id="edge26" class="edge">
<title>Node1&#45;&gt;Node26</title>
<path fill="none" stroke="#63b8ff" d="M2581.25,-234.16C2792.26,-234.1 3418.06,-229.94 3616,-184 3618.13,-183.51 3620.28,-182.95 3622.43,-182.34"/>
<polygon fill="#63b8ff" stroke="#63b8ff" points="3623.29,-185.74 3631.74,-179.36 3621.15,-179.07 3623.29,-185.74"/>
</g>
<!-- Node27 -->
<g id="node27" class="node">
<title>Node27</title>
<g id="a_node27"><a xlink:title=" ">
<polygon fill="#e0e0e0" stroke="#999999" points="3884,-178.5 3766,-178.5 3766,-126.5 3884,-126.5 3884,-178.5"/>
<text text-anchor="start" x="3774" y="-166.5" font-family="Helvetica,sans-Serif" font-size="10.00">asm/rel/d/a/obj/d_a</text>
<text text-anchor="start" x="3774" y="-155.5" font-family="Helvetica,sans-Serif" font-size="10.00">_obj_picture/d_a_obj</text>
<text text-anchor="start" x="3774" y="-144.5" font-family="Helvetica,sans-Serif" font-size="10.00">_picture/chkHitRope_</text>
<text text-anchor="middle" x="3825" y="-133.5" font-family="Helvetica,sans-Serif" font-size="10.00">_14daObjPicture_cFv.s</text>
</a>
</g>
</g>
<!-- Node1&#45;&gt;Node27 -->
<g id="edge27" class="edge">
<title>Node1&#45;&gt;Node27</title>
<path fill="none" stroke="#63b8ff" d="M2581.41,-232.74C2827.83,-228.09 3642.73,-210.86 3757,-184 3758.99,-183.53 3761,-183.01 3763.01,-182.43"/>
<polygon fill="#63b8ff" stroke="#63b8ff" points="3763.88,-185.83 3772.3,-179.4 3761.71,-179.17 3763.88,-185.83"/>
</g>
<!-- Node28 -->
<g id="node28" class="node">
<title>Node28</title>
<g id="a_node28"><a xlink:title=" ">
<polygon fill="#e0e0e0" stroke="#999999" points="4025.5,-178.5 3902.5,-178.5 3902.5,-126.5 4025.5,-126.5 4025.5,-178.5"/>
<text text-anchor="start" x="3910.5" y="-166.5" font-family="Helvetica,sans-Serif" font-size="10.00">asm/rel/d/a/obj/d_a</text>
<text text-anchor="start" x="3910.5" y="-155.5" font-family="Helvetica,sans-Serif" font-size="10.00">_obj_picture/d_a_obj</text>
<text text-anchor="start" x="3910.5" y="-144.5" font-family="Helvetica,sans-Serif" font-size="10.00">_picture/chkHitBombTg</text>
<text text-anchor="middle" x="3964" y="-133.5" font-family="Helvetica,sans-Serif" font-size="10.00">__14daObjPicture_cFv.s</text>
</a>
</g>
</g>
<!-- Node1&#45;&gt;Node28 -->
<g id="edge28" class="edge">
<title>Node1&#45;&gt;Node28</title>
<path fill="none" stroke="#63b8ff" d="M2581.22,-232.97C2844.54,-228.92 3764.75,-212.81 3893,-184 3895.16,-183.51 3897.34,-182.97 3899.52,-182.36"/>
<polygon fill="#63b8ff" stroke="#63b8ff" points="3900.48,-185.73 3908.98,-179.4 3898.39,-179.05 3900.48,-185.73"/>
</g>
<!-- Node29 -->
<g id="node29" class="node">
<title>Node29</title>
<g id="a_node29"><a xlink:title=" ">
<polygon fill="#e0e0e0" stroke="#999999" points="4166.5,-178.5 4043.5,-178.5 4043.5,-126.5 4166.5,-126.5 4166.5,-178.5"/>
<text text-anchor="start" x="4051.5" y="-166.5" font-family="Helvetica,sans-Serif" font-size="10.00">asm/rel/d/a/obj/d_a</text>
<text text-anchor="start" x="4051.5" y="-155.5" font-family="Helvetica,sans-Serif" font-size="10.00">_obj_picture/d_a_obj</text>
<text text-anchor="start" x="4051.5" y="-144.5" font-family="Helvetica,sans-Serif" font-size="10.00">_picture/setPicAtCol</text>
<text text-anchor="middle" x="4105" y="-133.5" font-family="Helvetica,sans-Serif" font-size="10.00">__14daObjPicture_cFv.s</text>
</a>
</g>
</g>
<!-- Node1&#45;&gt;Node29 -->
<g id="edge29" class="edge">
<title>Node1&#45;&gt;Node29</title>
<path fill="none" stroke="#63b8ff" d="M2581.14,-233.25C2861.39,-230.05 3892.4,-216.16 4035,-184 4037.13,-183.52 4039.28,-182.97 4041.44,-182.37"/>
<polygon fill="#63b8ff" stroke="#63b8ff" points="4042.28,-185.78 4050.76,-179.42 4040.17,-179.1 4042.28,-185.78"/>
</g>
<!-- Node30 -->
<g id="node30" class="node">
<title>Node30</title>
<g id="a_node30"><a xlink:title=" ">
<polygon fill="#e0e0e0" stroke="#999999" points="4341.5,-178.5 4184.5,-178.5 4184.5,-126.5 4341.5,-126.5 4341.5,-178.5"/>
<text text-anchor="start" x="4192.5" y="-166.5" font-family="Helvetica,sans-Serif" font-size="10.00">asm/rel/d/a/obj/d_a</text>
<text text-anchor="start" x="4192.5" y="-155.5" font-family="Helvetica,sans-Serif" font-size="10.00">_obj_picture/d_a_obj</text>
<text text-anchor="start" x="4192.5" y="-144.5" font-family="Helvetica,sans-Serif" font-size="10.00">_picture/daObjPicture</text>
<text text-anchor="middle" x="4263" y="-133.5" font-family="Helvetica,sans-Serif" font-size="10.00">_create__FP14daObjPicture_c.s</text>
</a>
</g>
</g>
<!-- Node1&#45;&gt;Node30 -->
<g id="edge30" class="edge">
<title>Node1&#45;&gt;Node30</title>
<path fill="none" stroke="#63b8ff" d="M2581.45,-233.16C2878.14,-229.44 4017.93,-213.35 4176,-184 4179.35,-183.38 4182.75,-182.65 4186.16,-181.83"/>
<polygon fill="#63b8ff" stroke="#63b8ff" points="4186.83,-185.28 4195.61,-179.35 4185.05,-178.51 4186.83,-185.28"/>
</g>
<!-- Node31 -->
<g id="node31" class="node">
<title>Node31</title>
<g id="a_node31"><a xlink:title=" ">
<polygon fill="#e0e0e0" stroke="#999999" points="4518,-178.5 4360,-178.5 4360,-126.5 4518,-126.5 4518,-178.5"/>
<text text-anchor="start" x="4368" y="-166.5" font-family="Helvetica,sans-Serif" font-size="10.00">asm/rel/d/a/obj/d_a</text>
<text text-anchor="start" x="4368" y="-155.5" font-family="Helvetica,sans-Serif" font-size="10.00">_obj_picture/d_a_obj</text>
<text text-anchor="start" x="4368" y="-144.5" font-family="Helvetica,sans-Serif" font-size="10.00">_picture/daObjPicture</text>
<text text-anchor="middle" x="4439" y="-133.5" font-family="Helvetica,sans-Serif" font-size="10.00">_Delete__FP14daObjPicture_c.s</text>
</a>
</g>
</g>
<!-- Node1&#45;&gt;Node31 -->
<g id="edge31" class="edge">
<title>Node1&#45;&gt;Node31</title>
<path fill="none" stroke="#63b8ff" d="M2581.28,-233.36C2896.81,-230.32 4174.85,-216.13 4351,-184 4354.39,-183.38 4357.83,-182.65 4361.28,-181.84"/>
<polygon fill="#63b8ff" stroke="#63b8ff" points="4362.04,-185.26 4370.84,-179.36 4360.28,-178.48 4362.04,-185.26"/>
</g>
<!-- Node32 -->
<g id="node32" class="node">
<title>Node32</title>
<g id="a_node32"><a xlink:title=" ">
<polygon fill="#e0e0e0" stroke="#999999" points="4700,-178.5 4536,-178.5 4536,-126.5 4700,-126.5 4700,-178.5"/>
<text text-anchor="start" x="4544" y="-166.5" font-family="Helvetica,sans-Serif" font-size="10.00">asm/rel/d/a/obj/d_a</text>
<text text-anchor="start" x="4544" y="-155.5" font-family="Helvetica,sans-Serif" font-size="10.00">_obj_picture/d_a_obj</text>
<text text-anchor="start" x="4544" y="-144.5" font-family="Helvetica,sans-Serif" font-size="10.00">_picture/daObjPicture</text>
<text text-anchor="middle" x="4618" y="-133.5" font-family="Helvetica,sans-Serif" font-size="10.00">_execute__FP14daObjPicture_c.s</text>
</a>
</g>
</g>
<!-- Node1&#45;&gt;Node32 -->
<g id="edge32" class="edge">
<title>Node1&#45;&gt;Node32</title>
<path fill="none" stroke="#63b8ff" d="M2581.47,-233.5C2915.65,-230.95 4332.56,-218.2 4527,-184 4530.61,-183.37 4534.27,-182.61 4537.95,-181.77"/>
<polygon fill="#63b8ff" stroke="#63b8ff" points="4538.68,-185.2 4547.53,-179.36 4536.98,-178.41 4538.68,-185.2"/>
</g>
<!-- Node33 -->
<g id="node33" class="node">
<title>Node33</title>
<g id="a_node33"><a xlink:title=" ">
<polygon fill="#e0e0e0" stroke="#999999" points="4869.5,-178.5 4718.5,-178.5 4718.5,-126.5 4869.5,-126.5 4869.5,-178.5"/>
<text text-anchor="start" x="4726.5" y="-166.5" font-family="Helvetica,sans-Serif" font-size="10.00">asm/rel/d/a/obj/d_a</text>
<text text-anchor="start" x="4726.5" y="-155.5" font-family="Helvetica,sans-Serif" font-size="10.00">_obj_picture/d_a_obj</text>
<text text-anchor="start" x="4726.5" y="-144.5" font-family="Helvetica,sans-Serif" font-size="10.00">_picture/daObjPicture</text>
<text text-anchor="middle" x="4794" y="-133.5" font-family="Helvetica,sans-Serif" font-size="10.00">_draw__FP14daObjPicture_c.s</text>
</a>
</g>
</g>
<!-- Node1&#45;&gt;Node33 -->
<g id="edge33" class="edge">
<title>Node1&#45;&gt;Node33</title>
<path fill="none" stroke="#63b8ff" d="M2581.32,-233.74C2933.39,-232.27 4496.09,-223.54 4709,-184 4712.36,-183.38 4715.76,-182.64 4719.18,-181.81"/>
<polygon fill="#63b8ff" stroke="#63b8ff" points="4719.88,-185.24 4728.63,-179.27 4718.07,-178.48 4719.88,-185.24"/>
</g>
<!-- Node34 -->
<g id="node34" class="node">
<title>Node34</title>
<g id="a_node34"><a xlink:title=" ">
<polygon fill="#e0e0e0" stroke="#999999" points="5006,-178.5 4888,-178.5 4888,-126.5 5006,-126.5 5006,-178.5"/>
<text text-anchor="start" x="4896" y="-166.5" font-family="Helvetica,sans-Serif" font-size="10.00">asm/rel/d/a/obj/d_a</text>
<text text-anchor="start" x="4896" y="-155.5" font-family="Helvetica,sans-Serif" font-size="10.00">_obj_picture/d_a_obj</text>
<text text-anchor="start" x="4896" y="-144.5" font-family="Helvetica,sans-Serif" font-size="10.00">_picture/__dt__10cCcD</text>
<text text-anchor="middle" x="4947" y="-133.5" font-family="Helvetica,sans-Serif" font-size="10.00">_GSttsFv.s</text>
</a>
</g>
</g>
<!-- Node1&#45;&gt;Node34 -->
<g id="edge34" class="edge">
<title>Node1&#45;&gt;Node34</title>
<path fill="none" stroke="#63b8ff" d="M2581.28,-234.18C2949.72,-234.92 4650.27,-235.48 4879,-184 4881.13,-183.52 4883.27,-182.97 4885.42,-182.37"/>
<polygon fill="#63b8ff" stroke="#63b8ff" points="4886.26,-185.77 4894.7,-179.36 4884.11,-179.11 4886.26,-185.77"/>
</g>
<!-- Node2&#45;&gt;Node3 -->
<g id="edge2" class="edge">
<title>Node2&#45;&gt;Node3</title>
<path fill="none" stroke="#63b8ff" d="M73.87,-137.04C81.21,-125.07 91.69,-107.98 99.65,-95.01"/>
<polygon fill="#63b8ff" stroke="#63b8ff" points="102.57,-96.93 104.82,-86.58 96.61,-93.27 102.57,-96.93"/>
</g>
<!-- Node4 -->
<g id="node4" class="node">
<title>Node4</title>
<g id="a_node4"><a xlink:href="stddef_8h.html" target="_top" xlink:title=" ">
<polygon fill="white" stroke="#666666" points="179,-30 43,-30 43,0 179,0 179,-30"/>
<text text-anchor="start" x="51" y="-18" font-family="Helvetica,sans-Serif" font-size="10.00">MSL_C/MSL_Common/Src</text>
<text text-anchor="middle" x="111" y="-7" font-family="Helvetica,sans-Serif" font-size="10.00">/stddef.h</text>
</a>
</g>
</g>
<!-- Node3&#45;&gt;Node4 -->
<g id="edge3" class="edge">
<title>Node3&#45;&gt;Node4</title>
<path fill="none" stroke="#63b8ff" d="M111,-65.87C111,-59.4 111,-50.2 111,-41.45"/>
<polygon fill="#63b8ff" stroke="#63b8ff" points="114.5,-41.63 111,-31.63 107.5,-41.63 114.5,-41.63"/>
</g>
</g>
</svg>
