<?xml version="1.0" encoding="UTF-8" standalone="no"?>
<!DOCTYPE svg PUBLIC "-//W3C//DTD SVG 1.1//EN"
 "http://www.w3.org/Graphics/SVG/1.1/DTD/svg11.dtd">
<!-- Generated by graphviz version 7.0.5 (20221223.1930)
 -->
<!-- Title: rel/d/a/obj/d_a_obj_lv8UdFloor/d_a_obj_lv8UdFloor.cpp Pages: 1 -->
<svg width="4423pt" height="258pt"
 viewBox="0.00 0.00 4422.50 258.00" xmlns="http://www.w3.org/2000/svg" xmlns:xlink="http://www.w3.org/1999/xlink">
<g id="graph0" class="graph" transform="scale(1 1) rotate(0) translate(4 254)">
<title>rel/d/a/obj/d_a_obj_lv8UdFloor/d_a_obj_lv8UdFloor.cpp</title>
<!-- Node1 -->
<g id="node1" class="node">
<title>Node1</title>
<g id="a_node1"><a xlink:title=" ">
<polygon fill="#999999" stroke="#666666" points="2098,-250 1992,-250 1992,-209 2098,-209 2098,-250"/>
<text text-anchor="start" x="2000" y="-238" font-family="Helvetica,sans-Serif" font-size="10.00">rel/d/a/obj/d_a_obj</text>
<text text-anchor="start" x="2000" y="-227" font-family="Helvetica,sans-Serif" font-size="10.00">_lv8UdFloor/d_a_obj</text>
<text text-anchor="middle" x="2045" y="-216" font-family="Helvetica,sans-Serif" font-size="10.00">_lv8UdFloor.cpp</text>
</a>
</g>
</g>
<!-- Node2 -->
<g id="node2" class="node">
<title>Node2</title>
<g id="a_node2"><a xlink:href="d__a__obj__lv8UdFloor_8h.html" target="_top" xlink:title=" ">
<polygon fill="white" stroke="#666666" points="106,-167.5 0,-167.5 0,-126.5 106,-126.5 106,-167.5"/>
<text text-anchor="start" x="8" y="-155.5" font-family="Helvetica,sans-Serif" font-size="10.00">rel/d/a/obj/d_a_obj</text>
<text text-anchor="start" x="8" y="-144.5" font-family="Helvetica,sans-Serif" font-size="10.00">_lv8UdFloor/d_a_obj</text>
<text text-anchor="middle" x="53" y="-133.5" font-family="Helvetica,sans-Serif" font-size="10.00">_lv8UdFloor.h</text>
</a>
</g>
</g>
<!-- Node1&#45;&gt;Node2 -->
<g id="edge1" class="edge">
<title>Node1&#45;&gt;Node2</title>
<path fill="none" stroke="#63b8ff" d="M1991.55,-228C1699.98,-225.15 307.86,-209.71 120,-173 117.23,-172.46 114.42,-171.82 111.6,-171.09"/>
<polygon fill="#63b8ff" stroke="#63b8ff" points="112.79,-167.79 102.21,-168.39 110.85,-174.52 112.79,-167.79"/>
</g>
<!-- Node3 -->
<g id="node3" class="node">
<title>Node3</title>
<g id="a_node3"><a xlink:href="types_8h.html" target="_top" xlink:title=" ">
<polygon fill="white" stroke="#666666" points="133.5,-85 52.5,-85 52.5,-66 133.5,-66 133.5,-85"/>
<text text-anchor="middle" x="93" y="-73" font-family="Helvetica,sans-Serif" font-size="10.00">dolphin/types.h</text>
</a>
</g>
</g>
<!-- Node1&#45;&gt;Node3 -->
<g id="edge5" class="edge">
<title>Node1&#45;&gt;Node3</title>
<path fill="none" stroke="#63b8ff" d="M1991.53,-228.34C1692.3,-227.28 235.89,-219.7 154,-173 138.63,-164.23 115.02,-120.74 102.15,-95.24"/>
<polygon fill="#63b8ff" stroke="#63b8ff" points="105.45,-94.02 97.87,-86.62 99.18,-97.13 105.45,-94.02"/>
</g>
<!-- Node5 -->
<g id="node5" class="node">
<title>Node5</title>
<g id="a_node5"><a xlink:href="dol2asm_8h.html" target="_top" xlink:title=" ">
<polygon fill="white" stroke="#666666" points="223.5,-156.5 162.5,-156.5 162.5,-137.5 223.5,-137.5 223.5,-156.5"/>
<text text-anchor="middle" x="193" y="-144.5" font-family="Helvetica,sans-Serif" font-size="10.00">dol2asm.h</text>
</a>
</g>
</g>
<!-- Node1&#45;&gt;Node5 -->
<g id="edge4" class="edge">
<title>Node1&#45;&gt;Node5</title>
<path fill="none" stroke="#63b8ff" d="M1991.8,-228.52C1710.71,-228.43 404.86,-225.15 233,-173 226.07,-170.9 219.16,-167.27 213.08,-163.41"/>
<polygon fill="#63b8ff" stroke="#63b8ff" points="215.22,-160.64 205.01,-157.81 211.23,-166.39 215.22,-160.64"/>
</g>
<!-- Node6 -->
<g id="node6" class="node">
<title>Node6</title>
<g id="a_node6"><a xlink:title=" ">
<polygon fill="#e0e0e0" stroke="#999999" points="376.5,-173 241.5,-173 241.5,-121 376.5,-121 376.5,-173"/>
<text text-anchor="start" x="249.5" y="-161" font-family="Helvetica,sans-Serif" font-size="10.00">asm/rel/d/a/obj/d_a</text>
<text text-anchor="start" x="249.5" y="-150" font-family="Helvetica,sans-Serif" font-size="10.00">_obj_lv8UdFloor/d_a</text>
<text text-anchor="start" x="249.5" y="-139" font-family="Helvetica,sans-Serif" font-size="10.00">_obj_lv8UdFloor/__ct</text>
<text text-anchor="middle" x="309" y="-128" font-family="Helvetica,sans-Serif" font-size="10.00">__15daUdFloor_HIO_cFv.s</text>
</a>
</g>
</g>
<!-- Node1&#45;&gt;Node6 -->
<g id="edge6" class="edge">
<title>Node1&#45;&gt;Node6</title>
<path fill="none" stroke="#63b8ff" d="M1991.55,-228.72C1746.5,-229.43 728.38,-229.01 388.09,-173.07"/>
<polygon fill="#63b8ff" stroke="#63b8ff" points="388.7,-169.62 378.25,-171.39 387.52,-176.52 388.7,-169.62"/>
</g>
<!-- Node7 -->
<g id="node7" class="node">
<title>Node7</title>
<g id="a_node7"><a xlink:title=" ">
<polygon fill="#e0e0e0" stroke="#999999" points="525.5,-173 394.5,-173 394.5,-121 525.5,-121 525.5,-173"/>
<text text-anchor="start" x="402.5" y="-161" font-family="Helvetica,sans-Serif" font-size="10.00">asm/rel/d/a/obj/d_a</text>
<text text-anchor="start" x="402.5" y="-150" font-family="Helvetica,sans-Serif" font-size="10.00">_obj_lv8UdFloor/d_a</text>
<text text-anchor="start" x="402.5" y="-139" font-family="Helvetica,sans-Serif" font-size="10.00">_obj_lv8UdFloor/__dt</text>
<text text-anchor="middle" x="460" y="-128" font-family="Helvetica,sans-Serif" font-size="10.00">__14mDoHIO_entry_cFv.s</text>
</a>
</g>
</g>
<!-- Node1&#45;&gt;Node7 -->
<g id="edge7" class="edge">
<title>Node1&#45;&gt;Node7</title>
<path fill="none" stroke="#63b8ff" d="M1991.72,-228.57C1760.98,-228.57 846.01,-225.32 537.16,-173.09"/>
<polygon fill="#63b8ff" stroke="#63b8ff" points="537.93,-169.67 527.48,-171.39 536.72,-176.56 537.93,-169.67"/>
</g>
<!-- Node8 -->
<g id="node8" class="node">
<title>Node8</title>
<g id="a_node8"><a xlink:title=" ">
<polygon fill="#e0e0e0" stroke="#999999" points="686,-173 544,-173 544,-121 686,-121 686,-173"/>
<text text-anchor="start" x="552" y="-161" font-family="Helvetica,sans-Serif" font-size="10.00">asm/rel/d/a/obj/d_a</text>
<text text-anchor="start" x="552" y="-150" font-family="Helvetica,sans-Serif" font-size="10.00">_obj_lv8UdFloor/d_a</text>
<text text-anchor="start" x="552" y="-139" font-family="Helvetica,sans-Serif" font-size="10.00">_obj_lv8UdFloor/setBaseMtx</text>
<text text-anchor="middle" x="615" y="-128" font-family="Helvetica,sans-Serif" font-size="10.00">__11daUdFloor_cFv.s</text>
</a>
</g>
</g>
<!-- Node1&#45;&gt;Node8 -->
<g id="edge8" class="edge">
<title>Node1&#45;&gt;Node8</title>
<path fill="none" stroke="#63b8ff" d="M1991.63,-228.17C1776.69,-226.54 973.2,-217.68 697.46,-173.17"/>
<polygon fill="#63b8ff" stroke="#63b8ff" points="698.23,-169.75 687.79,-171.55 697.08,-176.65 698.23,-169.75"/>
</g>
<!-- Node9 -->
<g id="node9" class="node">
<title>Node9</title>
<g id="a_node9"><a xlink:title=" ">
<polygon fill="#e0e0e0" stroke="#999999" points="846,-173 704,-173 704,-121 846,-121 846,-173"/>
<text text-anchor="start" x="712" y="-161" font-family="Helvetica,sans-Serif" font-size="10.00">asm/rel/d/a/obj/d_a</text>
<text text-anchor="start" x="712" y="-150" font-family="Helvetica,sans-Serif" font-size="10.00">_obj_lv8UdFloor/d_a</text>
<text text-anchor="start" x="712" y="-139" font-family="Helvetica,sans-Serif" font-size="10.00">_obj_lv8UdFloor/CreateHeap</text>
<text text-anchor="middle" x="775" y="-128" font-family="Helvetica,sans-Serif" font-size="10.00">__11daUdFloor_cFv.s</text>
</a>
</g>
</g>
<!-- Node1&#45;&gt;Node9 -->
<g id="edge9" class="edge">
<title>Node1&#45;&gt;Node9</title>
<path fill="none" stroke="#63b8ff" d="M1991.64,-227.8C1793.72,-224.92 1101.02,-212.35 857.56,-172.98"/>
<polygon fill="#63b8ff" stroke="#63b8ff" points="858.25,-169.54 847.81,-171.33 857.09,-176.45 858.25,-169.54"/>
</g>
<!-- Node10 -->
<g id="node10" class="node">
<title>Node10</title>
<g id="a_node10"><a xlink:title=" ">
<polygon fill="#e0e0e0" stroke="#999999" points="981.5,-173 864.5,-173 864.5,-121 981.5,-121 981.5,-173"/>
<text text-anchor="start" x="872.5" y="-161" font-family="Helvetica,sans-Serif" font-size="10.00">asm/rel/d/a/obj/d_a</text>
<text text-anchor="start" x="872.5" y="-150" font-family="Helvetica,sans-Serif" font-size="10.00">_obj_lv8UdFloor/d_a</text>
<text text-anchor="start" x="872.5" y="-139" font-family="Helvetica,sans-Serif" font-size="10.00">_obj_lv8UdFloor/create</text>
<text text-anchor="middle" x="923" y="-128" font-family="Helvetica,sans-Serif" font-size="10.00">__11daUdFloor_cFv.s</text>
</a>
</g>
</g>
<!-- Node1&#45;&gt;Node10 -->
<g id="edge10" class="edge">
<title>Node1&#45;&gt;Node10</title>
<path fill="none" stroke="#63b8ff" d="M1991.66,-227.8C1808.78,-225.07 1207.08,-213.33 992.78,-172.98"/>
<polygon fill="#63b8ff" stroke="#63b8ff" points="993.63,-169.58 983.14,-171.08 992.28,-176.45 993.63,-169.58"/>
</g>
<!-- Node11 -->
<g id="node11" class="node">
<title>Node11</title>
<g id="a_node11"><a xlink:title=" ">
<polygon fill="#e0e0e0" stroke="#999999" points="1158,-173 1000,-173 1000,-121 1158,-121 1158,-173"/>
<text text-anchor="start" x="1008" y="-161" font-family="Helvetica,sans-Serif" font-size="10.00">asm/rel/d/a/obj/d_a</text>
<text text-anchor="start" x="1008" y="-150" font-family="Helvetica,sans-Serif" font-size="10.00">_obj_lv8UdFloor/d_a</text>
<text text-anchor="start" x="1008" y="-139" font-family="Helvetica,sans-Serif" font-size="10.00">_obj_lv8UdFloor/Execute</text>
<text text-anchor="middle" x="1079" y="-128" font-family="Helvetica,sans-Serif" font-size="10.00">__11daUdFloor_cFPPA3_A4_f.s</text>
</a>
</g>
</g>
<!-- Node1&#45;&gt;Node11 -->
<g id="edge11" class="edge">
<title>Node1&#45;&gt;Node11</title>
<path fill="none" stroke="#63b8ff" d="M1991.59,-229.07C1855.51,-229.69 1484.8,-226.11 1169.64,-173.29"/>
<polygon fill="#63b8ff" stroke="#63b8ff" points="1170.39,-169.87 1159.94,-171.65 1169.22,-176.77 1170.39,-169.87"/>
</g>
<!-- Node12 -->
<g id="node12" class="node">
<title>Node12</title>
<g id="a_node12"><a xlink:title=" ">
<polygon fill="#e0e0e0" stroke="#999999" points="1304,-173 1176,-173 1176,-121 1304,-121 1304,-173"/>
<text text-anchor="start" x="1184" y="-161" font-family="Helvetica,sans-Serif" font-size="10.00">asm/rel/d/a/obj/d_a</text>
<text text-anchor="start" x="1184" y="-150" font-family="Helvetica,sans-Serif" font-size="10.00">_obj_lv8UdFloor/d_a</text>
<text text-anchor="start" x="1184" y="-139" font-family="Helvetica,sans-Serif" font-size="10.00">_obj_lv8UdFloor/moveLift</text>
<text text-anchor="middle" x="1240" y="-128" font-family="Helvetica,sans-Serif" font-size="10.00">__11daUdFloor_cFv.s</text>
</a>
</g>
</g>
<!-- Node1&#45;&gt;Node12 -->
<g id="edge12" class="edge">
<title>Node1&#45;&gt;Node12</title>
<path fill="none" stroke="#63b8ff" d="M1991.63,-228.98C1871.78,-229.1 1572.39,-223.98 1315.36,-173.01"/>
<polygon fill="#63b8ff" stroke="#63b8ff" points="1316.29,-169.62 1305.8,-171.08 1314.91,-176.49 1316.29,-169.62"/>
</g>
<!-- Node13 -->
<g id="node13" class="node">
<title>Node13</title>
<g id="a_node13"><a xlink:title=" ">
<polygon fill="#e0e0e0" stroke="#999999" points="1483.5,-173 1322.5,-173 1322.5,-121 1483.5,-121 1483.5,-173"/>
<text text-anchor="start" x="1330.5" y="-161" font-family="Helvetica,sans-Serif" font-size="10.00">asm/rel/d/a/obj/d_a</text>
<text text-anchor="start" x="1330.5" y="-150" font-family="Helvetica,sans-Serif" font-size="10.00">_obj_lv8UdFloor/d_a</text>
<text text-anchor="start" x="1330.5" y="-139" font-family="Helvetica,sans-Serif" font-size="10.00">_obj_lv8UdFloor/init</text>
<text text-anchor="middle" x="1403" y="-128" font-family="Helvetica,sans-Serif" font-size="10.00">_modeWait__11daUdFloor_cFv.s</text>
</a>
</g>
</g>
<!-- Node1&#45;&gt;Node13 -->
<g id="edge13" class="edge">
<title>Node1&#45;&gt;Node13</title>
<path fill="none" stroke="#63b8ff" d="M1991.67,-226.17C1894.59,-221.27 1682.54,-207.54 1494.98,-173.22"/>
<polygon fill="#63b8ff" stroke="#63b8ff" points="1495.76,-169.81 1485.29,-171.42 1494.48,-176.69 1495.76,-169.81"/>
</g>
<!-- Node14 -->
<g id="node14" class="node">
<title>Node14</title>
<g id="a_node14"><a xlink:title=" ">
<polygon fill="#e0e0e0" stroke="#999999" points="1692.5,-173 1501.5,-173 1501.5,-121 1692.5,-121 1692.5,-173"/>
<text text-anchor="start" x="1509.5" y="-161" font-family="Helvetica,sans-Serif" font-size="10.00">asm/rel/d/a/obj/d_a</text>
<text text-anchor="start" x="1509.5" y="-150" font-family="Helvetica,sans-Serif" font-size="10.00">_obj_lv8UdFloor/d_a</text>
<text text-anchor="start" x="1509.5" y="-139" font-family="Helvetica,sans-Serif" font-size="10.00">_obj_lv8UdFloor/init</text>
<text text-anchor="middle" x="1597" y="-128" font-family="Helvetica,sans-Serif" font-size="10.00">_modeUpMoveInit__11daUdFloor_cFv.s</text>
</a>
</g>
</g>
<!-- Node1&#45;&gt;Node14 -->
<g id="edge14" class="edge">
<title>Node1&#45;&gt;Node14</title>
<path fill="none" stroke="#63b8ff" d="M1991.61,-221.1C1926.2,-211.76 1811.81,-194.54 1703.88,-173.31"/>
<polygon fill="#63b8ff" stroke="#63b8ff" points="1704.76,-169.92 1694.27,-171.41 1703.4,-176.79 1704.76,-169.92"/>
</g>
<!-- Node15 -->
<g id="node15" class="node">
<title>Node15</title>
<g id="a_node15"><a xlink:title=" ">
<polygon fill="#e0e0e0" stroke="#999999" points="1875,-173 1711,-173 1711,-121 1875,-121 1875,-173"/>
<text text-anchor="start" x="1719" y="-161" font-family="Helvetica,sans-Serif" font-size="10.00">asm/rel/d/a/obj/d_a</text>
<text text-anchor="start" x="1719" y="-150" font-family="Helvetica,sans-Serif" font-size="10.00">_obj_lv8UdFloor/d_a</text>
<text text-anchor="start" x="1719" y="-139" font-family="Helvetica,sans-Serif" font-size="10.00">_obj_lv8UdFloor/modeUpMoveInit</text>
<text text-anchor="middle" x="1793" y="-128" font-family="Helvetica,sans-Serif" font-size="10.00">__11daUdFloor_cFv.s</text>
</a>
</g>
</g>
<!-- Node1&#45;&gt;Node15 -->
<g id="edge15" class="edge">
<title>Node1&#45;&gt;Node15</title>
<path fill="none" stroke="#63b8ff" d="M1991.56,-211.43C1960.13,-201.39 1919.57,-188.43 1883.3,-176.85"/>
<polygon fill="#63b8ff" stroke="#63b8ff" points="1884.73,-173.63 1874.14,-173.92 1882.6,-180.3 1884.73,-173.63"/>
</g>
<!-- Node16 -->
<g id="node16" class="node">
<title>Node16</title>
<g id="a_node16"><a xlink:title=" ">
<polygon fill="#e0e0e0" stroke="#999999" points="2024.5,-173 1893.5,-173 1893.5,-121 2024.5,-121 2024.5,-173"/>
<text text-anchor="start" x="1901.5" y="-161" font-family="Helvetica,sans-Serif" font-size="10.00">asm/rel/d/a/obj/d_a</text>
<text text-anchor="start" x="1901.5" y="-150" font-family="Helvetica,sans-Serif" font-size="10.00">_obj_lv8UdFloor/d_a</text>
<text text-anchor="start" x="1901.5" y="-139" font-family="Helvetica,sans-Serif" font-size="10.00">_obj_lv8UdFloor/colorAnm</text>
<text text-anchor="middle" x="1959" y="-128" font-family="Helvetica,sans-Serif" font-size="10.00">__11daUdFloor_cFi.s</text>
</a>
</g>
</g>
<!-- Node1&#45;&gt;Node16 -->
<g id="edge16" class="edge">
<title>Node1&#45;&gt;Node16</title>
<path fill="none" stroke="#63b8ff" d="M2023.74,-208.6C2014.88,-200.31 2004.35,-190.45 1994.38,-181.12"/>
<polygon fill="#63b8ff" stroke="#63b8ff" points="1996.99,-178.77 1987.3,-174.49 1992.21,-183.88 1996.99,-178.77"/>
</g>
<!-- Node17 -->
<g id="node17" class="node">
<title>Node17</title>
<g id="a_node17"><a xlink:title=" ">
<polygon fill="#e0e0e0" stroke="#999999" points="2221,-173 2043,-173 2043,-121 2221,-121 2221,-173"/>
<text text-anchor="start" x="2051" y="-161" font-family="Helvetica,sans-Serif" font-size="10.00">asm/rel/d/a/obj/d_a</text>
<text text-anchor="start" x="2051" y="-150" font-family="Helvetica,sans-Serif" font-size="10.00">_obj_lv8UdFloor/d_a</text>
<text text-anchor="start" x="2051" y="-139" font-family="Helvetica,sans-Serif" font-size="10.00">_obj_lv8UdFloor/init</text>
<text text-anchor="middle" x="2132" y="-128" font-family="Helvetica,sans-Serif" font-size="10.00">_modeUpMove__11daUdFloor_cFv.s</text>
</a>
</g>
</g>
<!-- Node1&#45;&gt;Node17 -->
<g id="edge17" class="edge">
<title>Node1&#45;&gt;Node17</title>
<path fill="none" stroke="#63b8ff" d="M2066.51,-208.6C2075.47,-200.31 2086.12,-190.45 2096.21,-181.12"/>
<polygon fill="#63b8ff" stroke="#63b8ff" points="2098.42,-183.84 2103.38,-174.48 2093.66,-178.7 2098.42,-183.84"/>
</g>
<!-- Node18 -->
<g id="node18" class="node">
<title>Node18</title>
<g id="a_node18"><a xlink:title=" ">
<polygon fill="#e0e0e0" stroke="#999999" points="2390.5,-173 2239.5,-173 2239.5,-121 2390.5,-121 2390.5,-173"/>
<text text-anchor="start" x="2247.5" y="-161" font-family="Helvetica,sans-Serif" font-size="10.00">asm/rel/d/a/obj/d_a</text>
<text text-anchor="start" x="2247.5" y="-150" font-family="Helvetica,sans-Serif" font-size="10.00">_obj_lv8UdFloor/d_a</text>
<text text-anchor="start" x="2247.5" y="-139" font-family="Helvetica,sans-Serif" font-size="10.00">_obj_lv8UdFloor/modeUpMove</text>
<text text-anchor="middle" x="2315" y="-128" font-family="Helvetica,sans-Serif" font-size="10.00">__11daUdFloor_cFv.s</text>
</a>
</g>
</g>
<!-- Node1&#45;&gt;Node18 -->
<g id="edge18" class="edge">
<title>Node1&#45;&gt;Node18</title>
<path fill="none" stroke="#63b8ff" d="M2098.34,-212.6C2135.31,-201.57 2185.37,-186.65 2228.06,-173.92"/>
<polygon fill="#63b8ff" stroke="#63b8ff" points="2228.99,-177.3 2237.57,-171.09 2226.99,-170.59 2228.99,-177.3"/>
</g>
<!-- Node19 -->
<g id="node19" class="node">
<title>Node19</title>
<g id="a_node19"><a xlink:title=" ">
<polygon fill="#e0e0e0" stroke="#999999" points="2611.5,-173 2408.5,-173 2408.5,-121 2611.5,-121 2611.5,-173"/>
<text text-anchor="start" x="2416.5" y="-161" font-family="Helvetica,sans-Serif" font-size="10.00">asm/rel/d/a/obj/d_a</text>
<text text-anchor="start" x="2416.5" y="-150" font-family="Helvetica,sans-Serif" font-size="10.00">_obj_lv8UdFloor/d_a</text>
<text text-anchor="start" x="2416.5" y="-139" font-family="Helvetica,sans-Serif" font-size="10.00">_obj_lv8UdFloor/init</text>
<text text-anchor="middle" x="2510" y="-128" font-family="Helvetica,sans-Serif" font-size="10.00">_modeDownMoveInit__11daUdFloor_cFv.s</text>
</a>
</g>
</g>
<!-- Node1&#45;&gt;Node19 -->
<g id="edge19" class="edge">
<title>Node1&#45;&gt;Node19</title>
<path fill="none" stroke="#63b8ff" d="M2098.42,-221.31C2165.82,-211.98 2285.52,-194.56 2397.06,-173.52"/>
<polygon fill="#63b8ff" stroke="#63b8ff" points="2397.51,-176.99 2406.68,-171.68 2396.21,-170.11 2397.51,-176.99"/>
</g>
<!-- Node20 -->
<g id="node20" class="node">
<title>Node20</title>
<g id="a_node20"><a xlink:title=" ">
<polygon fill="#e0e0e0" stroke="#999999" points="2792.5,-173 2629.5,-173 2629.5,-121 2792.5,-121 2792.5,-173"/>
<text text-anchor="start" x="2637.5" y="-161" font-family="Helvetica,sans-Serif" font-size="10.00">asm/rel/d/a/obj/d_a</text>
<text text-anchor="start" x="2637.5" y="-150" font-family="Helvetica,sans-Serif" font-size="10.00">_obj_lv8UdFloor/d_a</text>
<text text-anchor="start" x="2637.5" y="-139" font-family="Helvetica,sans-Serif" font-size="10.00">_obj_lv8UdFloor/modeDownMove</text>
<text text-anchor="middle" x="2711" y="-128" font-family="Helvetica,sans-Serif" font-size="10.00">Init__11daUdFloor_cFv.s</text>
</a>
</g>
</g>
<!-- Node1&#45;&gt;Node20 -->
<g id="edge20" class="edge">
<title>Node1&#45;&gt;Node20</title>
<path fill="none" stroke="#63b8ff" d="M2098.24,-226.48C2198.49,-222.01 2422.11,-208.84 2618.14,-173.4"/>
<polygon fill="#63b8ff" stroke="#63b8ff" points="2618.53,-176.89 2627.74,-171.64 2617.27,-170 2618.53,-176.89"/>
</g>
<!-- Node21 -->
<g id="node21" class="node">
<title>Node21</title>
<g id="a_node21"><a xlink:title=" ">
<polygon fill="#e0e0e0" stroke="#999999" points="3001,-173 2811,-173 2811,-121 3001,-121 3001,-173"/>
<text text-anchor="start" x="2819" y="-161" font-family="Helvetica,sans-Serif" font-size="10.00">asm/rel/d/a/obj/d_a</text>
<text text-anchor="start" x="2819" y="-150" font-family="Helvetica,sans-Serif" font-size="10.00">_obj_lv8UdFloor/d_a</text>
<text text-anchor="start" x="2819" y="-139" font-family="Helvetica,sans-Serif" font-size="10.00">_obj_lv8UdFloor/init</text>
<text text-anchor="middle" x="2906" y="-128" font-family="Helvetica,sans-Serif" font-size="10.00">_modeDownMove__11daUdFloor_cFv.s</text>
</a>
</g>
</g>
<!-- Node1&#45;&gt;Node21 -->
<g id="edge21" class="edge">
<title>Node1&#45;&gt;Node21</title>
<path fill="none" stroke="#63b8ff" d="M2098.11,-227.57C2220.39,-224.8 2531.31,-214.12 2799.5,-173.28"/>
<polygon fill="#63b8ff" stroke="#63b8ff" points="2799.78,-176.78 2809.13,-171.79 2798.72,-169.86 2799.78,-176.78"/>
</g>
<!-- Node22 -->
<g id="node22" class="node">
<title>Node22</title>
<g id="a_node22"><a xlink:title=" ">
<polygon fill="#e0e0e0" stroke="#999999" points="3182.5,-173 3019.5,-173 3019.5,-121 3182.5,-121 3182.5,-173"/>
<text text-anchor="start" x="3027.5" y="-161" font-family="Helvetica,sans-Serif" font-size="10.00">asm/rel/d/a/obj/d_a</text>
<text text-anchor="start" x="3027.5" y="-150" font-family="Helvetica,sans-Serif" font-size="10.00">_obj_lv8UdFloor/d_a</text>
<text text-anchor="start" x="3027.5" y="-139" font-family="Helvetica,sans-Serif" font-size="10.00">_obj_lv8UdFloor/modeDownMove</text>
<text text-anchor="middle" x="3101" y="-128" font-family="Helvetica,sans-Serif" font-size="10.00">__11daUdFloor_cFv.s</text>
</a>
</g>
</g>
<!-- Node1&#45;&gt;Node22 -->
<g id="edge22" class="edge">
<title>Node1&#45;&gt;Node22</title>
<path fill="none" stroke="#63b8ff" d="M2098.24,-226.92C2270.29,-221.57 2811.06,-202.93 3008.24,-173.06"/>
<polygon fill="#63b8ff" stroke="#63b8ff" points="3008.5,-176.56 3017.83,-171.55 3007.41,-169.65 3008.5,-176.56"/>
</g>
<!-- Node23 -->
<g id="node23" class="node">
<title>Node23</title>
<g id="a_node23"><a xlink:title=" ">
<polygon fill="#e0e0e0" stroke="#999999" points="3313.5,-173 3200.5,-173 3200.5,-121 3313.5,-121 3313.5,-173"/>
<text text-anchor="start" x="3208.5" y="-161" font-family="Helvetica,sans-Serif" font-size="10.00">asm/rel/d/a/obj/d_a</text>
<text text-anchor="start" x="3208.5" y="-150" font-family="Helvetica,sans-Serif" font-size="10.00">_obj_lv8UdFloor/d_a</text>
<text text-anchor="start" x="3208.5" y="-139" font-family="Helvetica,sans-Serif" font-size="10.00">_obj_lv8UdFloor/Draw</text>
<text text-anchor="middle" x="3257" y="-128" font-family="Helvetica,sans-Serif" font-size="10.00">__11daUdFloor_cFv.s</text>
</a>
</g>
</g>
<!-- Node1&#45;&gt;Node23 -->
<g id="edge23" class="edge">
<title>Node1&#45;&gt;Node23</title>
<path fill="none" stroke="#63b8ff" d="M2098.24,-228.17C2291.6,-226.61 2957.08,-218.18 3189.19,-173.24"/>
<polygon fill="#63b8ff" stroke="#63b8ff" points="3189.65,-176.72 3198.76,-171.31 3188.26,-169.86 3189.65,-176.72"/>
</g>
<!-- Node24 -->
<g id="node24" class="node">
<title>Node24</title>
<g id="a_node24"><a xlink:title=" ">
<polygon fill="#e0e0e0" stroke="#999999" points="3450,-173 3332,-173 3332,-121 3450,-121 3450,-173"/>
<text text-anchor="start" x="3340" y="-161" font-family="Helvetica,sans-Serif" font-size="10.00">asm/rel/d/a/obj/d_a</text>
<text text-anchor="start" x="3340" y="-150" font-family="Helvetica,sans-Serif" font-size="10.00">_obj_lv8UdFloor/d_a</text>
<text text-anchor="start" x="3340" y="-139" font-family="Helvetica,sans-Serif" font-size="10.00">_obj_lv8UdFloor/Delete</text>
<text text-anchor="middle" x="3391" y="-128" font-family="Helvetica,sans-Serif" font-size="10.00">__11daUdFloor_cFv.s</text>
</a>
</g>
</g>
<!-- Node1&#45;&gt;Node24 -->
<g id="edge24" class="edge">
<title>Node1&#45;&gt;Node24</title>
<path fill="none" stroke="#63b8ff" d="M2098.42,-228.37C2306.08,-227.53 3060.51,-221.29 3320.34,-173.19"/>
<polygon fill="#63b8ff" stroke="#63b8ff" points="3320.96,-176.64 3330.11,-171.3 3319.63,-169.76 3320.96,-176.64"/>
</g>
<!-- Node25 -->
<g id="node25" class="node">
<title>Node25</title>
<g id="a_node25"><a xlink:title=" ">
<polygon fill="#e0e0e0" stroke="#999999" points="3609.5,-173 3468.5,-173 3468.5,-121 3609.5,-121 3609.5,-173"/>
<text text-anchor="start" x="3476.5" y="-161" font-family="Helvetica,sans-Serif" font-size="10.00">asm/rel/d/a/obj/d_a</text>
<text text-anchor="start" x="3476.5" y="-150" font-family="Helvetica,sans-Serif" font-size="10.00">_obj_lv8UdFloor/d_a</text>
<text text-anchor="start" x="3476.5" y="-139" font-family="Helvetica,sans-Serif" font-size="10.00">_obj_lv8UdFloor/daUdFloor</text>
<text text-anchor="middle" x="3539" y="-128" font-family="Helvetica,sans-Serif" font-size="10.00">_Draw__FP11daUdFloor_c.s</text>
</a>
</g>
</g>
<!-- Node1&#45;&gt;Node25 -->
<g id="edge25" class="edge">
<title>Node1&#45;&gt;Node25</title>
<path fill="none" stroke="#63b8ff" d="M2098.22,-228.28C2319.37,-227.1 3167.21,-219.67 3456.83,-173.1"/>
<polygon fill="#63b8ff" stroke="#63b8ff" points="3457.36,-176.56 3466.65,-171.46 3456.21,-169.65 3457.36,-176.56"/>
</g>
<!-- Node26 -->
<g id="node26" class="node">
<title>Node26</title>
<g id="a_node26"><a xlink:title=" ">
<polygon fill="#e0e0e0" stroke="#999999" points="3780.5,-173 3627.5,-173 3627.5,-121 3780.5,-121 3780.5,-173"/>
<text text-anchor="start" x="3635.5" y="-161" font-family="Helvetica,sans-Serif" font-size="10.00">asm/rel/d/a/obj/d_a</text>
<text text-anchor="start" x="3635.5" y="-150" font-family="Helvetica,sans-Serif" font-size="10.00">_obj_lv8UdFloor/d_a</text>
<text text-anchor="start" x="3635.5" y="-139" font-family="Helvetica,sans-Serif" font-size="10.00">_obj_lv8UdFloor/daUdFloor</text>
<text text-anchor="middle" x="3704" y="-128" font-family="Helvetica,sans-Serif" font-size="10.00">_Execute__FP11daUdFloor_c.s</text>
</a>
</g>
</g>
<!-- Node1&#45;&gt;Node26 -->
<g id="edge26" class="edge">
<title>Node1&#45;&gt;Node26</title>
<path fill="none" stroke="#63b8ff" d="M2098.46,-228.41C2335.52,-227.75 3293.87,-222.12 3616.1,-173.25"/>
<polygon fill="#63b8ff" stroke="#63b8ff" points="3616.46,-176.74 3625.79,-171.73 3615.37,-169.83 3616.46,-176.74"/>
</g>
<!-- Node27 -->
<g id="node27" class="node">
<title>Node27</title>
<g id="a_node27"><a xlink:title=" ">
<polygon fill="#e0e0e0" stroke="#999999" points="3945,-173 3799,-173 3799,-121 3945,-121 3945,-173"/>
<text text-anchor="start" x="3807" y="-161" font-family="Helvetica,sans-Serif" font-size="10.00">asm/rel/d/a/obj/d_a</text>
<text text-anchor="start" x="3807" y="-150" font-family="Helvetica,sans-Serif" font-size="10.00">_obj_lv8UdFloor/d_a</text>
<text text-anchor="start" x="3807" y="-139" font-family="Helvetica,sans-Serif" font-size="10.00">_obj_lv8UdFloor/daUdFloor</text>
<text text-anchor="middle" x="3872" y="-128" font-family="Helvetica,sans-Serif" font-size="10.00">_Delete__FP11daUdFloor_c.s</text>
</a>
</g>
</g>
<!-- Node1&#45;&gt;Node27 -->
<g id="edge27" class="edge">
<title>Node1&#45;&gt;Node27</title>
<path fill="none" stroke="#63b8ff" d="M2098.2,-228.7C2350.58,-229.34 3429.47,-228.82 3787.75,-173.12"/>
<polygon fill="#63b8ff" stroke="#63b8ff" points="3788.1,-176.61 3797.42,-171.57 3786.99,-169.7 3788.1,-176.61"/>
</g>
<!-- Node28 -->
<g id="node28" class="node">
<title>Node28</title>
<g id="a_node28"><a xlink:title=" ">
<polygon fill="#e0e0e0" stroke="#999999" points="4106.5,-173 3963.5,-173 3963.5,-121 4106.5,-121 4106.5,-173"/>
<text text-anchor="start" x="3971.5" y="-161" font-family="Helvetica,sans-Serif" font-size="10.00">asm/rel/d/a/obj/d_a</text>
<text text-anchor="start" x="3971.5" y="-150" font-family="Helvetica,sans-Serif" font-size="10.00">_obj_lv8UdFloor/d_a</text>
<text text-anchor="start" x="3971.5" y="-139" font-family="Helvetica,sans-Serif" font-size="10.00">_obj_lv8UdFloor/daUdFloor</text>
<text text-anchor="middle" x="4035" y="-128" font-family="Helvetica,sans-Serif" font-size="10.00">_Create__FP10fopAc_ac_c.s</text>
</a>
</g>
</g>
<!-- Node1&#45;&gt;Node28 -->
<g id="edge28" class="edge">
<title>Node1&#45;&gt;Node28</title>
<path fill="none" stroke="#63b8ff" d="M2098.45,-227.81C2383.49,-224 3720.04,-204.69 3952.16,-172.91"/>
<polygon fill="#63b8ff" stroke="#63b8ff" points="3952.39,-176.42 3961.76,-171.47 3951.35,-169.5 3952.39,-176.42"/>
</g>
<!-- Node29 -->
<g id="node29" class="node">
<title>Node29</title>
<g id="a_node29"><a xlink:title=" ">
<polygon fill="#e0e0e0" stroke="#999999" points="4259.5,-173 4124.5,-173 4124.5,-121 4259.5,-121 4259.5,-173"/>
<text text-anchor="start" x="4132.5" y="-161" font-family="Helvetica,sans-Serif" font-size="10.00">asm/rel/d/a/obj/d_a</text>
<text text-anchor="start" x="4132.5" y="-150" font-family="Helvetica,sans-Serif" font-size="10.00">_obj_lv8UdFloor/d_a</text>
<text text-anchor="start" x="4132.5" y="-139" font-family="Helvetica,sans-Serif" font-size="10.00">_obj_lv8UdFloor/__dt</text>
<text text-anchor="middle" x="4192" y="-128" font-family="Helvetica,sans-Serif" font-size="10.00">__15daUdFloor_HIO_cFv.s</text>
</a>
</g>
</g>
<!-- Node1&#45;&gt;Node29 -->
<g id="edge29" class="edge">
<title>Node1&#45;&gt;Node29</title>
<path fill="none" stroke="#63b8ff" d="M2098.44,-228C2398.02,-225.05 3863.92,-208.99 4113.05,-173.13"/>
<polygon fill="#63b8ff" stroke="#63b8ff" points="4113.47,-176.61 4122.8,-171.59 4112.38,-169.69 4113.47,-176.61"/>
</g>
<!-- Node30 -->
<g id="node30" class="node">
<title>Node30</title>
<g id="a_node30"><a xlink:title=" ">
<polygon fill="#e0e0e0" stroke="#999999" points="4414.5,-173 4277.5,-173 4277.5,-121 4414.5,-121 4414.5,-173"/>
<text text-anchor="start" x="4285.5" y="-161" font-family="Helvetica,sans-Serif" font-size="10.00">asm/rel/d/a/obj/d_a</text>
<text text-anchor="start" x="4285.5" y="-150" font-family="Helvetica,sans-Serif" font-size="10.00">_obj_lv8UdFloor/d_a</text>
<text text-anchor="start" x="4285.5" y="-139" font-family="Helvetica,sans-Serif" font-size="10.00">_obj_lv8UdFloor/__sinit</text>
<text text-anchor="middle" x="4346" y="-128" font-family="Helvetica,sans-Serif" font-size="10.00">_d_a_obj_lv8UdFloor_cpp.s</text>
</a>
</g>
</g>
<!-- Node1&#45;&gt;Node30 -->
<g id="edge30" class="edge">
<title>Node1&#45;&gt;Node30</title>
<path fill="none" stroke="#63b8ff" d="M2098.45,-228.09C2411.3,-225.57 4000.07,-211.05 4266.08,-173.12"/>
<polygon fill="#63b8ff" stroke="#63b8ff" points="4266.56,-176.59 4275.91,-171.59 4265.49,-169.67 4266.56,-176.59"/>
</g>
<!-- Node2&#45;&gt;Node3 -->
<g id="edge2" class="edge">
<title>Node2&#45;&gt;Node3</title>
<path fill="none" stroke="#63b8ff" d="M64.36,-126.27C69.99,-116.47 76.77,-104.7 82.31,-95.07"/>
<polygon fill="#63b8ff" stroke="#63b8ff" points="85.21,-97.04 87.17,-86.63 79.15,-93.55 85.21,-97.04"/>
</g>
<!-- Node4 -->
<g id="node4" class="node">
<title>Node4</title>
<g id="a_node4"><a xlink:href="stddef_8h.html" target="_top" xlink:title=" ">
<polygon fill="white" stroke="#666666" points="161,-30 25,-30 25,0 161,0 161,-30"/>
<text text-anchor="start" x="33" y="-18" font-family="Helvetica,sans-Serif" font-size="10.00">MSL_C/MSL_Common/Src</text>
<text text-anchor="middle" x="93" y="-7" font-family="Helvetica,sans-Serif" font-size="10.00">/stddef.h</text>
</a>
</g>
</g>
<!-- Node3&#45;&gt;Node4 -->
<g id="edge3" class="edge">
<title>Node3&#45;&gt;Node4</title>
<path fill="none" stroke="#63b8ff" d="M93,-65.87C93,-59.4 93,-50.2 93,-41.45"/>
<polygon fill="#63b8ff" stroke="#63b8ff" points="96.5,-41.63 93,-31.63 89.5,-41.63 96.5,-41.63"/>
</g>
</g>
</svg>
