<?xml version="1.0" encoding="UTF-8" standalone="no"?>
<!DOCTYPE svg PUBLIC "-//W3C//DTD SVG 1.1//EN"
 "http://www.w3.org/Graphics/SVG/1.1/DTD/svg11.dtd">
<!-- Generated by graphviz version 7.0.5 (20221223.1930)
 -->
<!-- Title: rel/d/a/obj/d_a_obj_timeFire/d_a_obj_timeFire.cpp Pages: 1 -->
<svg width="2960pt" height="247pt"
 viewBox="0.00 0.00 2960.00 247.00" xmlns="http://www.w3.org/2000/svg" xmlns:xlink="http://www.w3.org/1999/xlink">
<g id="graph0" class="graph" transform="scale(1 1) rotate(0) translate(4 243)">
<title>rel/d/a/obj/d_a_obj_timeFire/d_a_obj_timeFire.cpp</title>
<!-- Node1 -->
<g id="node1" class="node">
<title>Node1</title>
<g id="a_node1"><a xlink:title=" ">
<polygon fill="#999999" stroke="#666666" points="1422,-239 1270,-239 1270,-209 1422,-209 1422,-239"/>
<text text-anchor="start" x="1278" y="-227" font-family="Helvetica,sans-Serif" font-size="10.00">rel/d/a/obj/d_a_obj</text>
<text text-anchor="middle" x="1346" y="-216" font-family="Helvetica,sans-Serif" font-size="10.00">_timeFire/d_a_obj_timeFire.cpp</text>
</a>
</g>
</g>
<!-- Node2 -->
<g id="node2" class="node">
<title>Node2</title>
<g id="a_node2"><a xlink:href="d__a__obj__timeFire_8h.html" target="_top" xlink:title=" ">
<polygon fill="white" stroke="#666666" points="142,-162 0,-162 0,-132 142,-132 142,-162"/>
<text text-anchor="start" x="8" y="-150" font-family="Helvetica,sans-Serif" font-size="10.00">rel/d/a/obj/d_a_obj</text>
<text text-anchor="middle" x="71" y="-139" font-family="Helvetica,sans-Serif" font-size="10.00">_timeFire/d_a_obj_timeFire.h</text>
</a>
</g>
</g>
<!-- Node1&#45;&gt;Node2 -->
<g id="edge1" class="edge">
<title>Node1&#45;&gt;Node2</title>
<path fill="none" stroke="#63b8ff" d="M1269.78,-222.22C1042.45,-219.53 371.61,-208.68 156,-173 145.3,-171.23 134.05,-168.54 123.36,-165.57"/>
<polygon fill="#63b8ff" stroke="#63b8ff" points="124.5,-162.25 113.92,-162.82 122.54,-168.97 124.5,-162.25"/>
</g>
<!-- Node3 -->
<g id="node3" class="node">
<title>Node3</title>
<g id="a_node3"><a xlink:href="types_8h.html" target="_top" xlink:title=" ">
<polygon fill="white" stroke="#666666" points="160.5,-85 79.5,-85 79.5,-66 160.5,-66 160.5,-85"/>
<text text-anchor="middle" x="120" y="-73" font-family="Helvetica,sans-Serif" font-size="10.00">dolphin/types.h</text>
</a>
</g>
</g>
<!-- Node1&#45;&gt;Node3 -->
<g id="edge5" class="edge">
<title>Node1&#45;&gt;Node3</title>
<path fill="none" stroke="#63b8ff" d="M1269.66,-223.52C1027.13,-224.63 284.55,-223.83 190,-173 185.82,-170.75 151.65,-122.12 132.64,-94.77"/>
<polygon fill="#63b8ff" stroke="#63b8ff" points="135.63,-92.94 127.06,-86.72 129.88,-96.93 135.63,-92.94"/>
</g>
<!-- Node5 -->
<g id="node5" class="node">
<title>Node5</title>
<g id="a_node5"><a xlink:href="dol2asm_8h.html" target="_top" xlink:title=" ">
<polygon fill="white" stroke="#666666" points="259.5,-156.5 198.5,-156.5 198.5,-137.5 259.5,-137.5 259.5,-156.5"/>
<text text-anchor="middle" x="229" y="-144.5" font-family="Helvetica,sans-Serif" font-size="10.00">dol2asm.h</text>
</a>
</g>
</g>
<!-- Node1&#45;&gt;Node5 -->
<g id="edge4" class="edge">
<title>Node1&#45;&gt;Node5</title>
<path fill="none" stroke="#63b8ff" d="M1269.88,-221.7C1040.15,-217.45 363.7,-202.55 269,-173 262.09,-170.84 255.18,-167.19 249.1,-163.34"/>
<polygon fill="#63b8ff" stroke="#63b8ff" points="251.24,-160.57 241.03,-157.75 247.26,-166.32 251.24,-160.57"/>
</g>
<!-- Node6 -->
<g id="node6" class="node">
<title>Node6</title>
<g id="a_node6"><a xlink:title=" ">
<polygon fill="#e0e0e0" stroke="#999999" points="426.5,-173 277.5,-173 277.5,-121 426.5,-121 426.5,-173"/>
<text text-anchor="start" x="285.5" y="-161" font-family="Helvetica,sans-Serif" font-size="10.00">asm/rel/d/a/obj/d_a</text>
<text text-anchor="start" x="285.5" y="-150" font-family="Helvetica,sans-Serif" font-size="10.00">_obj_timeFire/d_a_obj</text>
<text text-anchor="start" x="285.5" y="-139" font-family="Helvetica,sans-Serif" font-size="10.00">_timeFire/__ct__16daTimeFire</text>
<text text-anchor="middle" x="352" y="-128" font-family="Helvetica,sans-Serif" font-size="10.00">_HIO_cFv.s</text>
</a>
</g>
</g>
<!-- Node1&#45;&gt;Node6 -->
<g id="edge6" class="edge">
<title>Node1&#45;&gt;Node6</title>
<path fill="none" stroke="#63b8ff" d="M1269.69,-221.11C1084.88,-216.16 616.12,-201.36 438.19,-173.12"/>
<polygon fill="#63b8ff" stroke="#63b8ff" points="438.83,-169.68 428.39,-171.49 437.68,-176.58 438.83,-169.68"/>
</g>
<!-- Node7 -->
<g id="node7" class="node">
<title>Node7</title>
<g id="a_node7"><a xlink:title=" ">
<polygon fill="#e0e0e0" stroke="#999999" points="583,-173 445,-173 445,-121 583,-121 583,-173"/>
<text text-anchor="start" x="453" y="-161" font-family="Helvetica,sans-Serif" font-size="10.00">asm/rel/d/a/obj/d_a</text>
<text text-anchor="start" x="453" y="-150" font-family="Helvetica,sans-Serif" font-size="10.00">_obj_timeFire/d_a_obj</text>
<text text-anchor="start" x="453" y="-139" font-family="Helvetica,sans-Serif" font-size="10.00">_timeFire/__dt__14mDoHIO</text>
<text text-anchor="middle" x="514" y="-128" font-family="Helvetica,sans-Serif" font-size="10.00">_entry_cFv.s</text>
</a>
</g>
</g>
<!-- Node1&#45;&gt;Node7 -->
<g id="edge7" class="edge">
<title>Node1&#45;&gt;Node7</title>
<path fill="none" stroke="#63b8ff" d="M1269.62,-223.94C1134.75,-224.3 845.76,-219.19 594.31,-172.99"/>
<polygon fill="#63b8ff" stroke="#63b8ff" points="595.08,-169.58 584.61,-171.18 593.8,-176.46 595.08,-169.58"/>
</g>
<!-- Node8 -->
<g id="node8" class="node">
<title>Node8</title>
<g id="a_node8"><a xlink:title=" ">
<polygon fill="#e0e0e0" stroke="#999999" points="718.5,-173 601.5,-173 601.5,-121 718.5,-121 718.5,-173"/>
<text text-anchor="start" x="609.5" y="-161" font-family="Helvetica,sans-Serif" font-size="10.00">asm/rel/d/a/obj/d_a</text>
<text text-anchor="start" x="609.5" y="-150" font-family="Helvetica,sans-Serif" font-size="10.00">_obj_timeFire/d_a_obj</text>
<text text-anchor="start" x="609.5" y="-139" font-family="Helvetica,sans-Serif" font-size="10.00">_timeFire/setBaseMtx_</text>
<text text-anchor="middle" x="660" y="-128" font-family="Helvetica,sans-Serif" font-size="10.00">_12daTimeFire_cFv.s</text>
</a>
</g>
</g>
<!-- Node1&#45;&gt;Node8 -->
<g id="edge8" class="edge">
<title>Node1&#45;&gt;Node8</title>
<path fill="none" stroke="#63b8ff" d="M1269.87,-223.44C1154.43,-222.66 928.44,-215.48 729.91,-173.12"/>
<polygon fill="#63b8ff" stroke="#63b8ff" points="730.67,-169.71 720.16,-171 729.19,-176.55 730.67,-169.71"/>
</g>
<!-- Node9 -->
<g id="node9" class="node">
<title>Node9</title>
<g id="a_node9"><a xlink:title=" ">
<polygon fill="#e0e0e0" stroke="#999999" points="923,-167.5 737,-167.5 737,-126.5 923,-126.5 923,-167.5"/>
<text text-anchor="start" x="745" y="-155.5" font-family="Helvetica,sans-Serif" font-size="10.00">asm/rel/d/a/obj/d_a</text>
<text text-anchor="start" x="745" y="-144.5" font-family="Helvetica,sans-Serif" font-size="10.00">_obj_timeFire/d_a_obj</text>
<text text-anchor="middle" x="830" y="-133.5" font-family="Helvetica,sans-Serif" font-size="10.00">_timeFire/create__12daTimeFire_cFv.s</text>
</a>
</g>
</g>
<!-- Node1&#45;&gt;Node9 -->
<g id="edge9" class="edge">
<title>Node1&#45;&gt;Node9</title>
<path fill="none" stroke="#63b8ff" d="M1269.86,-216.49C1186.68,-208.75 1049.73,-194.16 933,-173 928.42,-172.17 923.73,-171.26 919.01,-170.29"/>
<polygon fill="#63b8ff" stroke="#63b8ff" points="919.96,-166.91 909.45,-168.26 918.5,-173.76 919.96,-166.91"/>
</g>
<!-- Node10 -->
<g id="node10" class="node">
<title>Node10</title>
<g id="a_node10"><a xlink:title=" ">
<polygon fill="#e0e0e0" stroke="#999999" points="1086.5,-173 941.5,-173 941.5,-121 1086.5,-121 1086.5,-173"/>
<text text-anchor="start" x="949.5" y="-161" font-family="Helvetica,sans-Serif" font-size="10.00">asm/rel/d/a/obj/d_a</text>
<text text-anchor="start" x="949.5" y="-150" font-family="Helvetica,sans-Serif" font-size="10.00">_obj_timeFire/d_a_obj</text>
<text text-anchor="start" x="949.5" y="-139" font-family="Helvetica,sans-Serif" font-size="10.00">_timeFire/lightInit__12daTime</text>
<text text-anchor="middle" x="1014" y="-128" font-family="Helvetica,sans-Serif" font-size="10.00">Fire_cFv.s</text>
</a>
</g>
</g>
<!-- Node1&#45;&gt;Node10 -->
<g id="edge10" class="edge">
<title>Node1&#45;&gt;Node10</title>
<path fill="none" stroke="#63b8ff" d="M1269.53,-209.73C1222.53,-201.1 1160.91,-188.95 1097.75,-173.34"/>
<polygon fill="#63b8ff" stroke="#63b8ff" points="1098.79,-169.99 1088.24,-170.96 1097.09,-176.78 1098.79,-169.99"/>
</g>
<!-- Node11 -->
<g id="node11" class="node">
<title>Node11</title>
<g id="a_node11"><a xlink:title=" ">
<polygon fill="#e0e0e0" stroke="#999999" points="1253.5,-173 1104.5,-173 1104.5,-121 1253.5,-121 1253.5,-173"/>
<text text-anchor="start" x="1112.5" y="-161" font-family="Helvetica,sans-Serif" font-size="10.00">asm/rel/d/a/obj/d_a</text>
<text text-anchor="start" x="1112.5" y="-150" font-family="Helvetica,sans-Serif" font-size="10.00">_obj_timeFire/d_a_obj</text>
<text text-anchor="start" x="1112.5" y="-139" font-family="Helvetica,sans-Serif" font-size="10.00">_timeFire/setLight__12daTime</text>
<text text-anchor="middle" x="1179" y="-128" font-family="Helvetica,sans-Serif" font-size="10.00">Fire_cFv.s</text>
</a>
</g>
</g>
<!-- Node1&#45;&gt;Node11 -->
<g id="edge11" class="edge">
<title>Node1&#45;&gt;Node11</title>
<path fill="none" stroke="#63b8ff" d="M1313.8,-208.54C1294.48,-199.86 1269.18,-188.5 1245.72,-177.96"/>
<polygon fill="#63b8ff" stroke="#63b8ff" points="1247.39,-174.88 1236.83,-173.97 1244.52,-181.26 1247.39,-174.88"/>
</g>
<!-- Node12 -->
<g id="node12" class="node">
<title>Node12</title>
<g id="a_node12"><a xlink:title=" ">
<polygon fill="#e0e0e0" stroke="#999999" points="1420.5,-173 1271.5,-173 1271.5,-121 1420.5,-121 1420.5,-173"/>
<text text-anchor="start" x="1279.5" y="-161" font-family="Helvetica,sans-Serif" font-size="10.00">asm/rel/d/a/obj/d_a</text>
<text text-anchor="start" x="1279.5" y="-150" font-family="Helvetica,sans-Serif" font-size="10.00">_obj_timeFire/d_a_obj</text>
<text text-anchor="start" x="1279.5" y="-139" font-family="Helvetica,sans-Serif" font-size="10.00">_timeFire/cutLight__12daTime</text>
<text text-anchor="middle" x="1346" y="-128" font-family="Helvetica,sans-Serif" font-size="10.00">Fire_cFv.s</text>
</a>
</g>
</g>
<!-- Node1&#45;&gt;Node12 -->
<g id="edge12" class="edge">
<title>Node1&#45;&gt;Node12</title>
<path fill="none" stroke="#63b8ff" d="M1346,-208.54C1346,-201.69 1346,-193.17 1346,-184.7"/>
<polygon fill="#63b8ff" stroke="#63b8ff" points="1349.5,-184.87 1346,-174.87 1342.5,-184.87 1349.5,-184.87"/>
</g>
<!-- Node13 -->
<g id="node13" class="node">
<title>Node13</title>
<g id="a_node13"><a xlink:title=" ">
<polygon fill="#e0e0e0" stroke="#999999" points="1633,-167.5 1439,-167.5 1439,-126.5 1633,-126.5 1633,-167.5"/>
<text text-anchor="start" x="1447" y="-155.5" font-family="Helvetica,sans-Serif" font-size="10.00">asm/rel/d/a/obj/d_a</text>
<text text-anchor="start" x="1447" y="-144.5" font-family="Helvetica,sans-Serif" font-size="10.00">_obj_timeFire/d_a_obj</text>
<text text-anchor="middle" x="1536" y="-133.5" font-family="Helvetica,sans-Serif" font-size="10.00">_timeFire/Execute__12daTimeFire_cFv.s</text>
</a>
</g>
</g>
<!-- Node1&#45;&gt;Node13 -->
<g id="edge13" class="edge">
<title>Node1&#45;&gt;Node13</title>
<path fill="none" stroke="#63b8ff" d="M1382.63,-208.54C1408.78,-198.22 1444.54,-184.1 1474.96,-172.09"/>
<polygon fill="#63b8ff" stroke="#63b8ff" points="1476.05,-175.43 1484.07,-168.5 1473.48,-168.92 1476.05,-175.43"/>
</g>
<!-- Node14 -->
<g id="node14" class="node">
<title>Node14</title>
<g id="a_node14"><a xlink:title=" ">
<polygon fill="#e0e0e0" stroke="#999999" points="1805,-173 1651,-173 1651,-121 1805,-121 1805,-173"/>
<text text-anchor="start" x="1659" y="-161" font-family="Helvetica,sans-Serif" font-size="10.00">asm/rel/d/a/obj/d_a</text>
<text text-anchor="start" x="1659" y="-150" font-family="Helvetica,sans-Serif" font-size="10.00">_obj_timeFire/d_a_obj</text>
<text text-anchor="start" x="1659" y="-139" font-family="Helvetica,sans-Serif" font-size="10.00">_timeFire/fireCheck__12daTime</text>
<text text-anchor="middle" x="1728" y="-128" font-family="Helvetica,sans-Serif" font-size="10.00">Fire_cFUc.s</text>
</a>
</g>
</g>
<!-- Node1&#45;&gt;Node14 -->
<g id="edge14" class="edge">
<title>Node1&#45;&gt;Node14</title>
<path fill="none" stroke="#63b8ff" d="M1422.21,-212.6C1479.58,-204.21 1560.31,-191.19 1639.58,-173.45"/>
<polygon fill="#63b8ff" stroke="#63b8ff" points="1640.3,-176.87 1649.28,-171.25 1638.75,-170.05 1640.3,-176.87"/>
</g>
<!-- Node15 -->
<g id="node15" class="node">
<title>Node15</title>
<g id="a_node15"><a xlink:title=" ">
<polygon fill="#e0e0e0" stroke="#999999" points="2010.5,-167.5 1823.5,-167.5 1823.5,-126.5 2010.5,-126.5 2010.5,-167.5"/>
<text text-anchor="start" x="1831.5" y="-155.5" font-family="Helvetica,sans-Serif" font-size="10.00">asm/rel/d/a/obj/d_a</text>
<text text-anchor="start" x="1831.5" y="-144.5" font-family="Helvetica,sans-Serif" font-size="10.00">_obj_timeFire/d_a_obj</text>
<text text-anchor="middle" x="1917" y="-133.5" font-family="Helvetica,sans-Serif" font-size="10.00">_timeFire/Delete__12daTimeFire_cFv.s</text>
</a>
</g>
</g>
<!-- Node1&#45;&gt;Node15 -->
<g id="edge15" class="edge">
<title>Node1&#45;&gt;Node15</title>
<path fill="none" stroke="#63b8ff" d="M1422.22,-217.96C1515.2,-211.09 1676.94,-196.85 1814,-173 1818.82,-172.16 1823.75,-171.23 1828.72,-170.23"/>
<polygon fill="#63b8ff" stroke="#63b8ff" points="1829.07,-173.73 1838.14,-168.25 1827.63,-166.88 1829.07,-173.73"/>
</g>
<!-- Node16 -->
<g id="node16" class="node">
<title>Node16</title>
<g id="a_node16"><a xlink:title=" ">
<polygon fill="#e0e0e0" stroke="#999999" points="2165.5,-173 2028.5,-173 2028.5,-121 2165.5,-121 2165.5,-173"/>
<text text-anchor="start" x="2036.5" y="-161" font-family="Helvetica,sans-Serif" font-size="10.00">asm/rel/d/a/obj/d_a</text>
<text text-anchor="start" x="2036.5" y="-150" font-family="Helvetica,sans-Serif" font-size="10.00">_obj_timeFire/d_a_obj</text>
<text text-anchor="start" x="2036.5" y="-139" font-family="Helvetica,sans-Serif" font-size="10.00">_timeFire/daTimeFire_Draw</text>
<text text-anchor="middle" x="2097" y="-128" font-family="Helvetica,sans-Serif" font-size="10.00">__FP12daTimeFire_c.s</text>
</a>
</g>
</g>
<!-- Node1&#45;&gt;Node16 -->
<g id="edge16" class="edge">
<title>Node1&#45;&gt;Node16</title>
<path fill="none" stroke="#63b8ff" d="M1422.35,-223.26C1546.04,-222.39 1797.75,-215.23 2017.28,-173.34"/>
<polygon fill="#63b8ff" stroke="#63b8ff" points="2017.73,-176.81 2026.88,-171.47 2016.4,-169.94 2017.73,-176.81"/>
</g>
<!-- Node17 -->
<g id="node17" class="node">
<title>Node17</title>
<g id="a_node17"><a xlink:title=" ">
<polygon fill="#e0e0e0" stroke="#999999" points="2332.5,-173 2183.5,-173 2183.5,-121 2332.5,-121 2332.5,-173"/>
<text text-anchor="start" x="2191.5" y="-161" font-family="Helvetica,sans-Serif" font-size="10.00">asm/rel/d/a/obj/d_a</text>
<text text-anchor="start" x="2191.5" y="-150" font-family="Helvetica,sans-Serif" font-size="10.00">_obj_timeFire/d_a_obj</text>
<text text-anchor="start" x="2191.5" y="-139" font-family="Helvetica,sans-Serif" font-size="10.00">_timeFire/daTimeFire_Execute</text>
<text text-anchor="middle" x="2258" y="-128" font-family="Helvetica,sans-Serif" font-size="10.00">__FP12daTimeFire_c.s</text>
</a>
</g>
</g>
<!-- Node1&#45;&gt;Node17 -->
<g id="edge17" class="edge">
<title>Node1&#45;&gt;Node17</title>
<path fill="none" stroke="#63b8ff" d="M1422.29,-220.66C1594.76,-215.03 2011.57,-199.3 2171.99,-173.3"/>
<polygon fill="#63b8ff" stroke="#63b8ff" points="2172.33,-176.8 2181.6,-171.67 2171.15,-169.9 2172.33,-176.8"/>
</g>
<!-- Node18 -->
<g id="node18" class="node">
<title>Node18</title>
<g id="a_node18"><a xlink:title=" ">
<polygon fill="#e0e0e0" stroke="#999999" points="2493,-173 2351,-173 2351,-121 2493,-121 2493,-173"/>
<text text-anchor="start" x="2359" y="-161" font-family="Helvetica,sans-Serif" font-size="10.00">asm/rel/d/a/obj/d_a</text>
<text text-anchor="start" x="2359" y="-150" font-family="Helvetica,sans-Serif" font-size="10.00">_obj_timeFire/d_a_obj</text>
<text text-anchor="start" x="2359" y="-139" font-family="Helvetica,sans-Serif" font-size="10.00">_timeFire/daTimeFire_Delete</text>
<text text-anchor="middle" x="2422" y="-128" font-family="Helvetica,sans-Serif" font-size="10.00">__FP12daTimeFire_c.s</text>
</a>
</g>
</g>
<!-- Node1&#45;&gt;Node18 -->
<g id="edge18" class="edge">
<title>Node1&#45;&gt;Node18</title>
<path fill="none" stroke="#63b8ff" d="M1422.48,-221.66C1619.98,-217.8 2144.66,-204.96 2339.45,-173.18"/>
<polygon fill="#63b8ff" stroke="#63b8ff" points="2339.93,-176.65 2349.2,-171.52 2338.75,-169.75 2339.93,-176.65"/>
</g>
<!-- Node19 -->
<g id="node19" class="node">
<title>Node19</title>
<g id="a_node19"><a xlink:title=" ">
<polygon fill="#e0e0e0" stroke="#999999" points="2654.5,-173 2511.5,-173 2511.5,-121 2654.5,-121 2654.5,-173"/>
<text text-anchor="start" x="2519.5" y="-161" font-family="Helvetica,sans-Serif" font-size="10.00">asm/rel/d/a/obj/d_a</text>
<text text-anchor="start" x="2519.5" y="-150" font-family="Helvetica,sans-Serif" font-size="10.00">_obj_timeFire/d_a_obj</text>
<text text-anchor="start" x="2519.5" y="-139" font-family="Helvetica,sans-Serif" font-size="10.00">_timeFire/daTimeFire_Create</text>
<text text-anchor="middle" x="2583" y="-128" font-family="Helvetica,sans-Serif" font-size="10.00">__FP10fopAc_ac_c.s</text>
</a>
</g>
</g>
<!-- Node1&#45;&gt;Node19 -->
<g id="edge19" class="edge">
<title>Node1&#45;&gt;Node19</title>
<path fill="none" stroke="#63b8ff" d="M1422.43,-222.24C1641.87,-219.67 2272.14,-209.41 2500.05,-173.05"/>
<polygon fill="#63b8ff" stroke="#63b8ff" points="2500.46,-176.53 2509.75,-171.44 2499.31,-169.63 2500.46,-176.53"/>
</g>
<!-- Node20 -->
<g id="node20" class="node">
<title>Node20</title>
<g id="a_node20"><a xlink:title=" ">
<polygon fill="#e0e0e0" stroke="#999999" points="2821.5,-173 2672.5,-173 2672.5,-121 2821.5,-121 2821.5,-173"/>
<text text-anchor="start" x="2680.5" y="-161" font-family="Helvetica,sans-Serif" font-size="10.00">asm/rel/d/a/obj/d_a</text>
<text text-anchor="start" x="2680.5" y="-150" font-family="Helvetica,sans-Serif" font-size="10.00">_obj_timeFire/d_a_obj</text>
<text text-anchor="start" x="2680.5" y="-139" font-family="Helvetica,sans-Serif" font-size="10.00">_timeFire/__dt__16daTimeFire</text>
<text text-anchor="middle" x="2747" y="-128" font-family="Helvetica,sans-Serif" font-size="10.00">_HIO_cFv.s</text>
</a>
</g>
</g>
<!-- Node1&#45;&gt;Node20 -->
<g id="edge20" class="edge">
<title>Node1&#45;&gt;Node20</title>
<path fill="none" stroke="#63b8ff" d="M1422.12,-222.65C1661.9,-221.17 2400.54,-213.48 2660.81,-173.3"/>
<polygon fill="#63b8ff" stroke="#63b8ff" points="2661.29,-176.77 2670.61,-171.73 2660.18,-169.86 2661.29,-176.77"/>
</g>
<!-- Node21 -->
<g id="node21" class="node">
<title>Node21</title>
<g id="a_node21"><a xlink:title=" ">
<polygon fill="#e0e0e0" stroke="#999999" points="2952,-173 2840,-173 2840,-121 2952,-121 2952,-173"/>
<text text-anchor="start" x="2848" y="-161" font-family="Helvetica,sans-Serif" font-size="10.00">asm/rel/d/a/obj/d_a</text>
<text text-anchor="start" x="2848" y="-150" font-family="Helvetica,sans-Serif" font-size="10.00">_obj_timeFire/d_a_obj</text>
<text text-anchor="start" x="2848" y="-139" font-family="Helvetica,sans-Serif" font-size="10.00">_timeFire/__sinit_d_a</text>
<text text-anchor="middle" x="2896" y="-128" font-family="Helvetica,sans-Serif" font-size="10.00">_obj_timeFire_cpp.s</text>
</a>
</g>
</g>
<!-- Node1&#45;&gt;Node21 -->
<g id="edge21" class="edge">
<title>Node1&#45;&gt;Node21</title>
<path fill="none" stroke="#63b8ff" d="M1422.39,-221.92C1700.1,-217.78 2648.8,-201.82 2828.46,-172.97"/>
<polygon fill="#63b8ff" stroke="#63b8ff" points="2828.9,-176.45 2838.12,-171.23 2827.66,-169.56 2828.9,-176.45"/>
</g>
<!-- Node2&#45;&gt;Node3 -->
<g id="edge2" class="edge">
<title>Node2&#45;&gt;Node3</title>
<path fill="none" stroke="#63b8ff" d="M81.15,-131.6C88.78,-120.77 99.28,-105.88 107.44,-94.31"/>
<polygon fill="#63b8ff" stroke="#63b8ff" points="110.11,-96.61 113.01,-86.42 104.39,-92.57 110.11,-96.61"/>
</g>
<!-- Node4 -->
<g id="node4" class="node">
<title>Node4</title>
<g id="a_node4"><a xlink:href="stddef_8h.html" target="_top" xlink:title=" ">
<polygon fill="white" stroke="#666666" points="188,-30 52,-30 52,0 188,0 188,-30"/>
<text text-anchor="start" x="60" y="-18" font-family="Helvetica,sans-Serif" font-size="10.00">MSL_C/MSL_Common/Src</text>
<text text-anchor="middle" x="120" y="-7" font-family="Helvetica,sans-Serif" font-size="10.00">/stddef.h</text>
</a>
</g>
</g>
<!-- Node3&#45;&gt;Node4 -->
<g id="edge3" class="edge">
<title>Node3&#45;&gt;Node4</title>
<path fill="none" stroke="#63b8ff" d="M120,-65.87C120,-59.4 120,-50.2 120,-41.45"/>
<polygon fill="#63b8ff" stroke="#63b8ff" points="123.5,-41.63 120,-31.63 116.5,-41.63 123.5,-41.63"/>
</g>
</g>
</svg>
