<?xml version="1.0" encoding="UTF-8" standalone="no"?>
<!DOCTYPE svg PUBLIC "-//W3C//DTD SVG 1.1//EN"
 "http://www.w3.org/Graphics/SVG/1.1/DTD/svg11.dtd">
<!-- Generated by graphviz version 7.0.5 (20221223.1930)
 -->
<!-- Title: rel/d/a/obj/d_a_obj_hfuta/d_a_obj_hfuta.cpp Pages: 1 -->
<!--zoomable 247 -->
<svg id="main" version="1.1" xmlns="http://www.w3.org/2000/svg" xmlns:xlink="http://www.w3.org/1999/xlink" xml:space="preserve" onload="init(evt)">
<style type="text/css"><![CDATA[
.edge:hover path { stroke: red; }
.edge:hover polygon { stroke: red; fill: red; }
]]></style>
<script type="text/javascript"><![CDATA[
var edges = document.getElementsByTagName('g');
if (edges && edges.length) {
  for (var i=0;i<edges.length;i++) {
    if (edges[i].id.substr(0,4)=='edge') {
      edges[i].setAttribute('class','edge');
    }
  }
}
]]></script>
        <defs>
                <circle id="rim" cx="0" cy="0" r="7"/>
                <circle id="rim2" cx="0" cy="0" r="3.5"/>
                <g id="zoomPlus">
                        <use xlink:href="#rim" fill="#404040">
                                <set attributeName="fill" to="#808080" begin="zoomplus.mouseover" end="zoomplus.mouseout"/>
                        </use>
                        <path d="M-4,0h8M0,-4v8" fill="none" stroke="white" stroke-width="1.5" pointer-events="none"/>
                </g>
                <g id="zoomMin">
                        <use xlink:href="#rim" fill="#404040">
                                <set attributeName="fill" to="#808080" begin="zoomminus.mouseover" end="zoomminus.mouseout"/>
                        </use>
                        <path d="M-4,0h8" fill="none" stroke="white" stroke-width="1.5" pointer-events="none"/>
                </g>
                <g id="dirArrow">
                        <path fill="none" stroke="white" stroke-width="1.5" d="M0,-3.0v7 M-2.5,-0.5L0,-3.0L2.5,-0.5"/>
                </g>
               <g id="resetDef">
                       <use xlink:href="#rim2" fill="#404040">
                               <set attributeName="fill" to="#808080" begin="reset.mouseover" end="reset.mouseout"/>
                       </use>
               </g>
        </defs>

<script type="text/javascript">
var viewWidth = 3207;
var viewHeight = 247;
var sectionId = 'dynsection-0';
</script>
<script xlink:href="svgpan.js"/>
<svg id="graph" class="graph">
<g id="viewport">
<title>rel/d/a/obj/d_a_obj_hfuta/d_a_obj_hfuta.cpp</title>
<!-- Node1 -->
<g id="node1" class="node">
<title>Node1</title>
<g id="a_node1"><a xlink:title=" ">
<polygon fill="#999999" stroke="#666666" points="1564,-239 1439,-239 1439,-209 1564,-209 1564,-239"/>
<text text-anchor="start" x="1447" y="-227" font-family="Helvetica,sans-Serif" font-size="10.00">rel/d/a/obj/d_a_obj</text>
<text text-anchor="middle" x="1501.5" y="-216" font-family="Helvetica,sans-Serif" font-size="10.00">_hfuta/d_a_obj_hfuta.cpp</text>
</a>
</g>
</g>
<!-- Node2 -->
<g id="node2" class="node">
<title>Node2</title>
<g id="a_node2"><a xlink:href="d__a__obj__hfuta_8h.html" target="_top" xlink:title=" ">
<polygon fill="white" stroke="#666666" points="115,-162 0,-162 0,-132 115,-132 115,-162"/>
<text text-anchor="start" x="8" y="-150" font-family="Helvetica,sans-Serif" font-size="10.00">rel/d/a/obj/d_a_obj</text>
<text text-anchor="middle" x="57.5" y="-139" font-family="Helvetica,sans-Serif" font-size="10.00">_hfuta/d_a_obj_hfuta.h</text>
</a>
</g>
</g>
<!-- Node1&#45;&gt;Node2 -->
<g id="edge1" class="edge">
<title>Node1&#45;&gt;Node2</title>
<path fill="none" stroke="#63b8ff" d="M1438.68,-223.18C1204.91,-223.48 385.59,-221.01 129.5,-173 120.81,-171.37 111.76,-168.89 103.12,-166.11"/>
<polygon fill="#63b8ff" stroke="#63b8ff" points="104.48,-162.88 93.89,-162.97 102.22,-169.51 104.48,-162.88"/>
</g>
<!-- Node3 -->
<g id="node3" class="node">
<title>Node3</title>
<g id="a_node3"><a xlink:href="types_8h.html" target="_top" xlink:title=" ">
<polygon fill="white" stroke="#666666" points="141,-85 60,-85 60,-66 141,-66 141,-85"/>
<text text-anchor="middle" x="100.5" y="-73" font-family="Helvetica,sans-Serif" font-size="10.00">dolphin/types.h</text>
</a>
</g>
</g>
<!-- Node1&#45;&gt;Node3 -->
<g id="edge5" class="edge">
<title>Node1&#45;&gt;Node3</title>
<path fill="none" stroke="#63b8ff" d="M1438.64,-222.25C1181.35,-218.99 219.55,-204.71 163.5,-173 155.58,-168.52 127.1,-121.67 111.28,-94.93"/>
<polygon fill="#63b8ff" stroke="#63b8ff" points="114.4,-93.34 106.32,-86.5 108.37,-96.89 114.4,-93.34"/>
</g>
<!-- Node5 -->
<g id="node5" class="node">
<title>Node5</title>
<g id="a_node5"><a xlink:href="dol2asm_8h.html" target="_top" xlink:title=" ">
<polygon fill="white" stroke="#666666" points="233,-156.5 172,-156.5 172,-137.5 233,-137.5 233,-156.5"/>
<text text-anchor="middle" x="202.5" y="-144.5" font-family="Helvetica,sans-Serif" font-size="10.00">dol2asm.h</text>
</a>
</g>
</g>
<!-- Node1&#45;&gt;Node5 -->
<g id="edge4" class="edge">
<title>Node1&#45;&gt;Node5</title>
<path fill="none" stroke="#63b8ff" d="M1438.61,-222.39C1199.83,-219.83 357.14,-208.36 242.5,-173 235.58,-170.87 228.67,-167.22 222.59,-163.37"/>
<polygon fill="#63b8ff" stroke="#63b8ff" points="224.73,-160.6 214.52,-157.78 220.74,-166.35 224.73,-160.6"/>
</g>
<!-- Node6 -->
<g id="node6" class="node">
<title>Node6</title>
<g id="a_node6"><a xlink:title=" ">
<polygon fill="#e0e0e0" stroke="#999999" points="417.5,-167.5 251.5,-167.5 251.5,-126.5 417.5,-126.5 417.5,-167.5"/>
<text text-anchor="start" x="259.5" y="-155.5" font-family="Helvetica,sans-Serif" font-size="10.00">asm/rel/d/a/obj/d_a</text>
<text text-anchor="start" x="259.5" y="-144.5" font-family="Helvetica,sans-Serif" font-size="10.00">_obj_hfuta/d_a_obj_hfuta</text>
<text text-anchor="middle" x="334.5" y="-133.5" font-family="Helvetica,sans-Serif" font-size="10.00">/initBaseMtx__11daObjFuta_cFv.s</text>
</a>
</g>
</g>
<!-- Node1&#45;&gt;Node6 -->
<g id="edge6" class="edge">
<title>Node1&#45;&gt;Node6</title>
<path fill="none" stroke="#63b8ff" d="M1438.81,-221.86C1239.87,-217.96 624.38,-203.68 427.5,-173 422.68,-172.25 417.74,-171.34 412.79,-170.33"/>
<polygon fill="#63b8ff" stroke="#63b8ff" points="413.94,-167 403.42,-168.28 412.44,-173.84 413.94,-167"/>
</g>
<!-- Node7 -->
<g id="node7" class="node">
<title>Node7</title>
<g id="a_node7"><a xlink:title=" ">
<polygon fill="#e0e0e0" stroke="#999999" points="603,-167.5 436,-167.5 436,-126.5 603,-126.5 603,-167.5"/>
<text text-anchor="start" x="444" y="-155.5" font-family="Helvetica,sans-Serif" font-size="10.00">asm/rel/d/a/obj/d_a</text>
<text text-anchor="start" x="444" y="-144.5" font-family="Helvetica,sans-Serif" font-size="10.00">_obj_hfuta/d_a_obj_hfuta</text>
<text text-anchor="middle" x="519.5" y="-133.5" font-family="Helvetica,sans-Serif" font-size="10.00">/setBaseMtx__11daObjFuta_cFv.s</text>
</a>
</g>
</g>
<!-- Node1&#45;&gt;Node7 -->
<g id="edge7" class="edge">
<title>Node1&#45;&gt;Node7</title>
<path fill="none" stroke="#63b8ff" d="M1438.74,-221.16C1263.6,-215.74 771.99,-198.64 612.5,-173 607.9,-172.26 603.21,-171.39 598.49,-170.42"/>
<polygon fill="#63b8ff" stroke="#63b8ff" points="599.46,-167.05 588.94,-168.32 597.96,-173.88 599.46,-167.05"/>
</g>
<!-- Node8 -->
<g id="node8" class="node">
<title>Node8</title>
<g id="a_node8"><a xlink:title=" ">
<polygon fill="#e0e0e0" stroke="#999999" points="764,-167.5 621,-167.5 621,-126.5 764,-126.5 764,-167.5"/>
<text text-anchor="start" x="629" y="-155.5" font-family="Helvetica,sans-Serif" font-size="10.00">asm/rel/d/a/obj/d_a</text>
<text text-anchor="start" x="629" y="-144.5" font-family="Helvetica,sans-Serif" font-size="10.00">_obj_hfuta/d_a_obj_hfuta</text>
<text text-anchor="middle" x="692.5" y="-133.5" font-family="Helvetica,sans-Serif" font-size="10.00">/Create__11daObjFuta_cFv.s</text>
</a>
</g>
</g>
<!-- Node1&#45;&gt;Node8 -->
<g id="edge8" class="edge">
<title>Node1&#45;&gt;Node8</title>
<path fill="none" stroke="#63b8ff" d="M1438.56,-223.53C1311.64,-223.55 1016.37,-218.19 773.5,-173 769.88,-172.33 766.2,-171.55 762.5,-170.69"/>
<polygon fill="#63b8ff" stroke="#63b8ff" points="763.4,-167.31 752.85,-168.27 761.7,-174.1 763.4,-167.31"/>
</g>
<!-- Node9 -->
<g id="node9" class="node">
<title>Node9</title>
<g id="a_node9"><a xlink:title=" ">
<polygon fill="#e0e0e0" stroke="#999999" points="949,-167.5 782,-167.5 782,-126.5 949,-126.5 949,-167.5"/>
<text text-anchor="start" x="790" y="-155.5" font-family="Helvetica,sans-Serif" font-size="10.00">asm/rel/d/a/obj/d_a</text>
<text text-anchor="start" x="790" y="-144.5" font-family="Helvetica,sans-Serif" font-size="10.00">_obj_hfuta/d_a_obj_hfuta</text>
<text text-anchor="middle" x="865.5" y="-133.5" font-family="Helvetica,sans-Serif" font-size="10.00">/CreateHeap__11daObjFuta_cFv.s</text>
</a>
</g>
</g>
<!-- Node1&#45;&gt;Node9 -->
<g id="edge9" class="edge">
<title>Node1&#45;&gt;Node9</title>
<path fill="none" stroke="#63b8ff" d="M1438.74,-220.7C1337.14,-216.2 1130.66,-203.83 958.5,-173 954.22,-172.23 949.86,-171.37 945.47,-170.43"/>
<polygon fill="#63b8ff" stroke="#63b8ff" points="946.53,-167.08 936,-168.29 944.98,-173.9 946.53,-167.08"/>
</g>
<!-- Node10 -->
<g id="node10" class="node">
<title>Node10</title>
<g id="a_node10"><a xlink:title=" ">
<polygon fill="#e0e0e0" stroke="#999999" points="1122,-167.5 967,-167.5 967,-126.5 1122,-126.5 1122,-167.5"/>
<text text-anchor="start" x="975" y="-155.5" font-family="Helvetica,sans-Serif" font-size="10.00">asm/rel/d/a/obj/d_a</text>
<text text-anchor="start" x="975" y="-144.5" font-family="Helvetica,sans-Serif" font-size="10.00">_obj_hfuta/d_a_obj_hfuta</text>
<text text-anchor="middle" x="1044.5" y="-133.5" font-family="Helvetica,sans-Serif" font-size="10.00">/create1st__11daObjFuta_cFv.s</text>
</a>
</g>
</g>
<!-- Node1&#45;&gt;Node10 -->
<g id="edge10" class="edge">
<title>Node1&#45;&gt;Node10</title>
<path fill="none" stroke="#63b8ff" d="M1438.5,-217.31C1364.49,-209.97 1238.23,-195.42 1131.5,-173 1128.15,-172.3 1124.74,-171.53 1121.3,-170.72"/>
<polygon fill="#63b8ff" stroke="#63b8ff" points="1122.29,-167.36 1111.74,-168.35 1120.61,-174.15 1122.29,-167.36"/>
</g>
<!-- Node11 -->
<g id="node11" class="node">
<title>Node11</title>
<g id="a_node11"><a xlink:title=" ">
<polygon fill="#e0e0e0" stroke="#999999" points="1335,-167.5 1140,-167.5 1140,-126.5 1335,-126.5 1335,-167.5"/>
<text text-anchor="start" x="1148" y="-155.5" font-family="Helvetica,sans-Serif" font-size="10.00">asm/rel/d/a/obj/d_a</text>
<text text-anchor="start" x="1148" y="-144.5" font-family="Helvetica,sans-Serif" font-size="10.00">_obj_hfuta/d_a_obj_hfuta</text>
<text text-anchor="middle" x="1237.5" y="-133.5" font-family="Helvetica,sans-Serif" font-size="10.00">/Execute__11daObjFuta_cFPPA3_A4_f.s</text>
</a>
</g>
</g>
<!-- Node1&#45;&gt;Node11 -->
<g id="edge11" class="edge">
<title>Node1&#45;&gt;Node11</title>
<path fill="none" stroke="#63b8ff" d="M1450.6,-208.54C1413.24,-197.93 1361.74,-183.3 1318.73,-171.08"/>
<polygon fill="#63b8ff" stroke="#63b8ff" points="1319.74,-167.72 1309.16,-168.36 1317.82,-174.46 1319.74,-167.72"/>
</g>
<!-- Node12 -->
<g id="node12" class="node">
<title>Node12</title>
<g id="a_node12"><a xlink:title=" ">
<polygon fill="#e0e0e0" stroke="#999999" points="1478,-167.5 1353,-167.5 1353,-126.5 1478,-126.5 1478,-167.5"/>
<text text-anchor="start" x="1361" y="-155.5" font-family="Helvetica,sans-Serif" font-size="10.00">asm/rel/d/a/obj/d_a</text>
<text text-anchor="start" x="1361" y="-144.5" font-family="Helvetica,sans-Serif" font-size="10.00">_obj_hfuta/d_a_obj_hfuta</text>
<text text-anchor="middle" x="1415.5" y="-133.5" font-family="Helvetica,sans-Serif" font-size="10.00">/__dt__5csXyzFv.s</text>
</a>
</g>
</g>
<!-- Node1&#45;&gt;Node12 -->
<g id="edge12" class="edge">
<title>Node1&#45;&gt;Node12</title>
<path fill="none" stroke="#63b8ff" d="M1484.92,-208.54C1474.13,-199.13 1459.72,-186.57 1446.83,-175.32"/>
<polygon fill="#63b8ff" stroke="#63b8ff" points="1449.19,-172.73 1439.35,-168.8 1444.58,-178.01 1449.19,-172.73"/>
</g>
<!-- Node13 -->
<g id="node13" class="node">
<title>Node13</title>
<g id="a_node13"><a xlink:title=" ">
<polygon fill="#e0e0e0" stroke="#999999" points="1679,-167.5 1496,-167.5 1496,-126.5 1679,-126.5 1679,-167.5"/>
<text text-anchor="start" x="1504" y="-155.5" font-family="Helvetica,sans-Serif" font-size="10.00">asm/rel/d/a/obj/d_a</text>
<text text-anchor="start" x="1504" y="-144.5" font-family="Helvetica,sans-Serif" font-size="10.00">_obj_hfuta/d_a_obj_hfuta</text>
<text text-anchor="middle" x="1587.5" y="-133.5" font-family="Helvetica,sans-Serif" font-size="10.00">/mode_proc_call__11daObjFuta_cFv.s</text>
</a>
</g>
</g>
<!-- Node1&#45;&gt;Node13 -->
<g id="edge13" class="edge">
<title>Node1&#45;&gt;Node13</title>
<path fill="none" stroke="#63b8ff" d="M1518.08,-208.54C1528.87,-199.13 1543.28,-186.57 1556.17,-175.32"/>
<polygon fill="#63b8ff" stroke="#63b8ff" points="1558.42,-178.01 1563.65,-168.8 1553.81,-172.73 1558.42,-178.01"/>
</g>
<!-- Node14 -->
<g id="node14" class="node">
<title>Node14</title>
<g id="a_node14"><a xlink:title=" ">
<polygon fill="#e0e0e0" stroke="#999999" points="1859.5,-167.5 1697.5,-167.5 1697.5,-126.5 1859.5,-126.5 1859.5,-167.5"/>
<text text-anchor="start" x="1705.5" y="-155.5" font-family="Helvetica,sans-Serif" font-size="10.00">asm/rel/d/a/obj/d_a</text>
<text text-anchor="start" x="1705.5" y="-144.5" font-family="Helvetica,sans-Serif" font-size="10.00">_obj_hfuta/d_a_obj_hfuta</text>
<text text-anchor="middle" x="1778.5" y="-133.5" font-family="Helvetica,sans-Serif" font-size="10.00">/mode_wait__11daObjFuta_cFv.s</text>
</a>
</g>
</g>
<!-- Node1&#45;&gt;Node14 -->
<g id="edge14" class="edge">
<title>Node1&#45;&gt;Node14</title>
<path fill="none" stroke="#63b8ff" d="M1555.95,-208.59C1593.28,-198.67 1643.92,-185.15 1688.5,-173 1690.92,-172.34 1693.37,-171.67 1695.84,-170.99"/>
<polygon fill="#63b8ff" stroke="#63b8ff" points="1696.62,-174.41 1705.33,-168.39 1694.77,-167.66 1696.62,-174.41"/>
</g>
<!-- Node15 -->
<g id="node15" class="node">
<title>Node15</title>
<g id="a_node15"><a xlink:title=" ">
<polygon fill="#e0e0e0" stroke="#999999" points="2045.5,-167.5 1877.5,-167.5 1877.5,-126.5 2045.5,-126.5 2045.5,-167.5"/>
<text text-anchor="start" x="1885.5" y="-155.5" font-family="Helvetica,sans-Serif" font-size="10.00">asm/rel/d/a/obj/d_a</text>
<text text-anchor="start" x="1885.5" y="-144.5" font-family="Helvetica,sans-Serif" font-size="10.00">_obj_hfuta/d_a_obj_hfuta</text>
<text text-anchor="middle" x="1961.5" y="-133.5" font-family="Helvetica,sans-Serif" font-size="10.00">/mode_move__11daObjFuta_cFv.s</text>
</a>
</g>
</g>
<!-- Node1&#45;&gt;Node15 -->
<g id="edge15" class="edge">
<title>Node1&#45;&gt;Node15</title>
<path fill="none" stroke="#63b8ff" d="M1564.24,-216.91C1637.64,-209.22 1762.6,-194.36 1868.5,-173 1872.26,-172.24 1876.09,-171.42 1879.96,-170.55"/>
<polygon fill="#63b8ff" stroke="#63b8ff" points="1880.48,-174.02 1889.41,-168.33 1878.88,-167.21 1880.48,-174.02"/>
</g>
<!-- Node16 -->
<g id="node16" class="node">
<title>Node16</title>
<g id="a_node16"><a xlink:title=" ">
<polygon fill="#e0e0e0" stroke="#999999" points="2223.5,-167.5 2063.5,-167.5 2063.5,-126.5 2223.5,-126.5 2223.5,-167.5"/>
<text text-anchor="start" x="2071.5" y="-155.5" font-family="Helvetica,sans-Serif" font-size="10.00">asm/rel/d/a/obj/d_a</text>
<text text-anchor="start" x="2071.5" y="-144.5" font-family="Helvetica,sans-Serif" font-size="10.00">_obj_hfuta/d_a_obj_hfuta</text>
<text text-anchor="middle" x="2143.5" y="-133.5" font-family="Helvetica,sans-Serif" font-size="10.00">/mode_end__11daObjFuta_cFv.s</text>
</a>
</g>
</g>
<!-- Node1&#45;&gt;Node16 -->
<g id="edge16" class="edge">
<title>Node1&#45;&gt;Node16</title>
<path fill="none" stroke="#63b8ff" d="M1564.21,-221.08C1667.28,-217.08 1878.63,-205.37 2054.5,-173 2058.52,-172.26 2062.63,-171.42 2066.76,-170.5"/>
<polygon fill="#63b8ff" stroke="#63b8ff" points="2067.31,-173.97 2076.24,-168.28 2065.71,-167.16 2067.31,-173.97"/>
</g>
<!-- Node17 -->
<g id="node17" class="node">
<title>Node17</title>
<g id="a_node17"><a xlink:title=" ">
<polygon fill="#e0e0e0" stroke="#999999" points="2379,-167.5 2242,-167.5 2242,-126.5 2379,-126.5 2379,-167.5"/>
<text text-anchor="start" x="2250" y="-155.5" font-family="Helvetica,sans-Serif" font-size="10.00">asm/rel/d/a/obj/d_a</text>
<text text-anchor="start" x="2250" y="-144.5" font-family="Helvetica,sans-Serif" font-size="10.00">_obj_hfuta/d_a_obj_hfuta</text>
<text text-anchor="middle" x="2310.5" y="-133.5" font-family="Helvetica,sans-Serif" font-size="10.00">/Draw__11daObjFuta_cFv.s</text>
</a>
</g>
</g>
<!-- Node1&#45;&gt;Node17 -->
<g id="edge17" class="edge">
<title>Node1&#45;&gt;Node17</title>
<path fill="none" stroke="#63b8ff" d="M1564.25,-223.78C1691.5,-224.26 1988.56,-219.72 2232.5,-173 2235.88,-172.35 2239.32,-171.6 2242.78,-170.78"/>
<polygon fill="#63b8ff" stroke="#63b8ff" points="2243.56,-174.19 2252.36,-168.29 2241.81,-167.41 2243.56,-174.19"/>
</g>
<!-- Node18 -->
<g id="node18" class="node">
<title>Node18</title>
<g id="a_node18"><a xlink:title=" ">
<polygon fill="#e0e0e0" stroke="#999999" points="2540,-167.5 2397,-167.5 2397,-126.5 2540,-126.5 2540,-167.5"/>
<text text-anchor="start" x="2405" y="-155.5" font-family="Helvetica,sans-Serif" font-size="10.00">asm/rel/d/a/obj/d_a</text>
<text text-anchor="start" x="2405" y="-144.5" font-family="Helvetica,sans-Serif" font-size="10.00">_obj_hfuta/d_a_obj_hfuta</text>
<text text-anchor="middle" x="2468.5" y="-133.5" font-family="Helvetica,sans-Serif" font-size="10.00">/Delete__11daObjFuta_cFv.s</text>
</a>
</g>
</g>
<!-- Node1&#45;&gt;Node18 -->
<g id="edge18" class="edge">
<title>Node1&#45;&gt;Node18</title>
<path fill="none" stroke="#63b8ff" d="M1564.49,-221.47C1739.65,-216.88 2230.01,-201.77 2388.5,-173 2392.08,-172.35 2395.72,-171.59 2399.38,-170.74"/>
<polygon fill="#63b8ff" stroke="#63b8ff" points="2400.05,-174.18 2408.9,-168.36 2398.35,-167.39 2400.05,-174.18"/>
</g>
<!-- Node19 -->
<g id="node19" class="node">
<title>Node19</title>
<g id="a_node19"><a xlink:title=" ">
<polygon fill="#e0e0e0" stroke="#999999" points="2728.5,-173 2558.5,-173 2558.5,-121 2728.5,-121 2728.5,-173"/>
<text text-anchor="start" x="2566.5" y="-161" font-family="Helvetica,sans-Serif" font-size="10.00">asm/rel/d/a/obj/d_a</text>
<text text-anchor="start" x="2566.5" y="-150" font-family="Helvetica,sans-Serif" font-size="10.00">_obj_hfuta/d_a_obj_hfuta</text>
<text text-anchor="start" x="2566.5" y="-139" font-family="Helvetica,sans-Serif" font-size="10.00">/daObjFuta_create1st__FP11daObj</text>
<text text-anchor="middle" x="2643.5" y="-128" font-family="Helvetica,sans-Serif" font-size="10.00">Futa_c.s</text>
</a>
</g>
</g>
<!-- Node1&#45;&gt;Node19 -->
<g id="edge19" class="edge">
<title>Node1&#45;&gt;Node19</title>
<path fill="none" stroke="#63b8ff" d="M1564.39,-221.75C1756.76,-217.66 2336.45,-203.24 2546.87,-173.21"/>
<polygon fill="#63b8ff" stroke="#63b8ff" points="2547.23,-176.69 2556.61,-171.76 2546.2,-169.77 2547.23,-176.69"/>
</g>
<!-- Node20 -->
<g id="node20" class="node">
<title>Node20</title>
<g id="a_node20"><a xlink:title=" ">
<polygon fill="#e0e0e0" stroke="#999999" points="2882.5,-173 2746.5,-173 2746.5,-121 2882.5,-121 2882.5,-173"/>
<text text-anchor="start" x="2754.5" y="-161" font-family="Helvetica,sans-Serif" font-size="10.00">asm/rel/d/a/obj/d_a</text>
<text text-anchor="start" x="2754.5" y="-150" font-family="Helvetica,sans-Serif" font-size="10.00">_obj_hfuta/d_a_obj_hfuta</text>
<text text-anchor="start" x="2754.5" y="-139" font-family="Helvetica,sans-Serif" font-size="10.00">/daObjFuta_MoveBGDelete</text>
<text text-anchor="middle" x="2814.5" y="-128" font-family="Helvetica,sans-Serif" font-size="10.00">__FP11daObjFuta_c.s</text>
</a>
</g>
</g>
<!-- Node1&#45;&gt;Node20 -->
<g id="edge20" class="edge">
<title>Node1&#45;&gt;Node20</title>
<path fill="none" stroke="#63b8ff" d="M1564.35,-222.72C1779.57,-221.43 2486.81,-214.2 2735.19,-173.13"/>
<polygon fill="#63b8ff" stroke="#63b8ff" points="2735.56,-176.61 2744.82,-171.46 2734.37,-169.71 2735.56,-176.61"/>
</g>
<!-- Node21 -->
<g id="node21" class="node">
<title>Node21</title>
<g id="a_node21"><a xlink:title=" ">
<polygon fill="#e0e0e0" stroke="#999999" points="3044,-173 2901,-173 2901,-121 3044,-121 3044,-173"/>
<text text-anchor="start" x="2909" y="-161" font-family="Helvetica,sans-Serif" font-size="10.00">asm/rel/d/a/obj/d_a</text>
<text text-anchor="start" x="2909" y="-150" font-family="Helvetica,sans-Serif" font-size="10.00">_obj_hfuta/d_a_obj_hfuta</text>
<text text-anchor="start" x="2909" y="-139" font-family="Helvetica,sans-Serif" font-size="10.00">/daObjFuta_MoveBGExecute</text>
<text text-anchor="middle" x="2972.5" y="-128" font-family="Helvetica,sans-Serif" font-size="10.00">__FP11daObjFuta_c.s</text>
</a>
</g>
</g>
<!-- Node1&#45;&gt;Node21 -->
<g id="edge21" class="edge">
<title>Node1&#45;&gt;Node21</title>
<path fill="none" stroke="#63b8ff" d="M1564.28,-222.93C1796.74,-222.35 2609.13,-217.24 2889.79,-173.01"/>
<polygon fill="#63b8ff" stroke="#63b8ff" points="2889.95,-176.53 2899.26,-171.46 2888.82,-169.62 2889.95,-176.53"/>
</g>
<!-- Node22 -->
<g id="node22" class="node">
<title>Node22</title>
<g id="a_node22"><a xlink:title=" ">
<polygon fill="#e0e0e0" stroke="#999999" points="3198.5,-173 3062.5,-173 3062.5,-121 3198.5,-121 3198.5,-173"/>
<text text-anchor="start" x="3070.5" y="-161" font-family="Helvetica,sans-Serif" font-size="10.00">asm/rel/d/a/obj/d_a</text>
<text text-anchor="start" x="3070.5" y="-150" font-family="Helvetica,sans-Serif" font-size="10.00">_obj_hfuta/d_a_obj_hfuta</text>
<text text-anchor="start" x="3070.5" y="-139" font-family="Helvetica,sans-Serif" font-size="10.00">/daObjFuta_MoveBGDraw_</text>
<text text-anchor="middle" x="3130.5" y="-128" font-family="Helvetica,sans-Serif" font-size="10.00">_FP11daObjFuta_c.s</text>
</a>
</g>
</g>
<!-- Node1&#45;&gt;Node22 -->
<g id="edge22" class="edge">
<title>Node1&#45;&gt;Node22</title>
<path fill="none" stroke="#63b8ff" d="M1564.14,-223.33C1813.67,-224.28 2738.04,-224.3 3051.43,-173.08"/>
<polygon fill="#63b8ff" stroke="#63b8ff" points="3051.55,-176.61 3060.83,-171.49 3050.38,-169.71 3051.55,-176.61"/>
</g>
<!-- Node2&#45;&gt;Node3 -->
<g id="edge2" class="edge">
<title>Node2&#45;&gt;Node3</title>
<path fill="none" stroke="#63b8ff" d="M66.41,-131.6C73.04,-120.88 82.13,-106.18 89.26,-94.66"/>
<polygon fill="#63b8ff" stroke="#63b8ff" points="92.05,-96.81 94.33,-86.47 86.1,-93.13 92.05,-96.81"/>
</g>
<!-- Node4 -->
<g id="node4" class="node">
<title>Node4</title>
<g id="a_node4"><a xlink:href="stddef_8h.html" target="_top" xlink:title=" ">
<polygon fill="white" stroke="#666666" points="168.5,-30 32.5,-30 32.5,0 168.5,0 168.5,-30"/>
<text text-anchor="start" x="40.5" y="-18" font-family="Helvetica,sans-Serif" font-size="10.00">MSL_C/MSL_Common/Src</text>
<text text-anchor="middle" x="100.5" y="-7" font-family="Helvetica,sans-Serif" font-size="10.00">/stddef.h</text>
</a>
</g>
</g>
<!-- Node3&#45;&gt;Node4 -->
<g id="edge3" class="edge">
<title>Node3&#45;&gt;Node4</title>
<path fill="none" stroke="#63b8ff" d="M100.5,-65.87C100.5,-59.4 100.5,-50.2 100.5,-41.45"/>
<polygon fill="#63b8ff" stroke="#63b8ff" points="104,-41.63 100.5,-31.63 97,-41.63 104,-41.63"/>
</g>
</g>
</svg>
        <g id="navigator" transform="translate(0 0)" fill="#404254">
                <rect fill="#f2f5e9" fill-opacity="0.5" stroke="#606060" stroke-width=".5" x="0" y="0" width="60" height="60"/>
                <use id="zoomplus" xlink:href="#zoomPlus" x="17" y="9" onmousedown="handleZoom(evt,'in')"/>
                <use id="zoomminus" xlink:href="#zoomMin" x="42" y="9" onmousedown="handleZoom(evt,'out')"/>
                <use id="reset" xlink:href="#resetDef" x="30" y="36" onmousedown="handleReset()"/>
                <g id="arrowUp" xlink:href="#dirArrow" transform="translate(30 24)" onmousedown="handlePan(0,-1)">
                  <use xlink:href="#rim" fill="#404040">
                        <set attributeName="fill" to="#808080" begin="arrowUp.mouseover" end="arrowUp.mouseout"/>
                  </use>
                  <path fill="none" stroke="white" stroke-width="1.5" d="M0,-3.0v7 M-2.5,-0.5L0,-3.0L2.5,-0.5"/>
                </g>
                <g id="arrowRight" xlink:href="#dirArrow" transform="rotate(90) translate(36 -43)" onmousedown="handlePan(1,0)">
                  <use xlink:href="#rim" fill="#404040">
                        <set attributeName="fill" to="#808080" begin="arrowRight.mouseover" end="arrowRight.mouseout"/>
                  </use>
                  <path fill="none" stroke="white" stroke-width="1.5" d="M0,-3.0v7 M-2.5,-0.5L0,-3.0L2.5,-0.5"/>
                </g>
                <g id="arrowDown" xlink:href="#dirArrow" transform="rotate(180) translate(-30 -48)" onmousedown="handlePan(0,1)">
                  <use xlink:href="#rim" fill="#404040">
                        <set attributeName="fill" to="#808080" begin="arrowDown.mouseover" end="arrowDown.mouseout"/>
                  </use>
                  <path fill="none" stroke="white" stroke-width="1.5" d="M0,-3.0v7 M-2.5,-0.5L0,-3.0L2.5,-0.5"/>
                </g>
                <g id="arrowLeft" xlink:href="#dirArrow" transform="rotate(270) translate(-36 17)" onmousedown="handlePan(-1,0)">
                  <use xlink:href="#rim" fill="#404040">
                        <set attributeName="fill" to="#808080" begin="arrowLeft.mouseover" end="arrowLeft.mouseout"/>
                  </use>
                  <path fill="none" stroke="white" stroke-width="1.5" d="M0,-3.0v7 M-2.5,-0.5L0,-3.0L2.5,-0.5"/>
                </g>
        </g>
        <svg viewBox="0 0 15 15" width="100%" height="30px" preserveAspectRatio="xMaxYMin meet">
         <g id="arrow_out" transform="scale(0.3 0.3)">
          <a xlink:href="d__a__obj__hfuta_8cpp__incl_org.svg" target="_base">
           <rect id="button" ry="5" rx="5" y="6" x="6" height="38" width="38"
                fill="#f2f5e9" fill-opacity="0.5" stroke="#606060" stroke-width="1.0"/>
           <path id="arrow"
             d="M 11.500037,31.436501 C 11.940474,20.09759 22.043105,11.32322 32.158766,21.979434 L 37.068811,17.246167 C 37.068811,17.246167 37.088388,32 37.088388,32 L 22.160133,31.978069 C 22.160133,31.978069 26.997745,27.140456 26.997745,27.140456 C 18.528582,18.264221 13.291696,25.230495 11.500037,31.436501 z"
             style="fill:#404040;"/>
          </a>
         </g>
        </svg>
</svg>
