<?xml version="1.0" encoding="UTF-8" standalone="no"?>
<!DOCTYPE svg PUBLIC "-//W3C//DTD SVG 1.1//EN"
 "http://www.w3.org/Graphics/SVG/1.1/DTD/svg11.dtd">
<!-- Generated by graphviz version 7.0.5 (20221223.1930)
 -->
<!-- Title: rel/d/a/tag/d_a_tag_ss_drink/d_a_tag_ss_drink.cpp Pages: 1 -->
<svg width="3383pt" height="269pt"
 viewBox="0.00 0.00 3383.00 269.00" xmlns="http://www.w3.org/2000/svg" xmlns:xlink="http://www.w3.org/1999/xlink">
<g id="graph0" class="graph" transform="scale(1 1) rotate(0) translate(4 265)">
<title>rel/d/a/tag/d_a_tag_ss_drink/d_a_tag_ss_drink.cpp</title>
<!-- Node1 -->
<g id="node1" class="node">
<title>Node1</title>
<g id="a_node1"><a xlink:title=" ">
<polygon fill="#999999" stroke="#666666" points="1673,-261 1561,-261 1561,-220 1673,-220 1673,-261"/>
<text text-anchor="start" x="1569" y="-249" font-family="Helvetica,sans-Serif" font-size="10.00">rel/d/a/tag/d_a_tag</text>
<text text-anchor="start" x="1569" y="-238" font-family="Helvetica,sans-Serif" font-size="10.00">_ss_drink/d_a_tag_ss</text>
<text text-anchor="middle" x="1617" y="-227" font-family="Helvetica,sans-Serif" font-size="10.00">_drink.cpp</text>
</a>
</g>
</g>
<!-- Node2 -->
<g id="node2" class="node">
<title>Node2</title>
<g id="a_node2"><a xlink:href="d__a__tag__ss__drink_8h.html" target="_top" xlink:title=" ">
<polygon fill="white" stroke="#666666" points="112,-173 0,-173 0,-132 112,-132 112,-173"/>
<text text-anchor="start" x="8" y="-161" font-family="Helvetica,sans-Serif" font-size="10.00">rel/d/a/tag/d_a_tag</text>
<text text-anchor="start" x="8" y="-150" font-family="Helvetica,sans-Serif" font-size="10.00">_ss_drink/d_a_tag_ss</text>
<text text-anchor="middle" x="56" y="-139" font-family="Helvetica,sans-Serif" font-size="10.00">_drink.h</text>
</a>
</g>
</g>
<!-- Node1&#45;&gt;Node2 -->
<g id="edge1" class="edge">
<title>Node1&#45;&gt;Node2</title>
<path fill="none" stroke="#63b8ff" d="M1560.85,-238.65C1306.37,-234.61 267.67,-216.28 126,-184 119.13,-182.43 112.09,-180.2 105.26,-177.65"/>
<polygon fill="#63b8ff" stroke="#63b8ff" points="106.72,-174.47 96.14,-173.99 104.12,-180.96 106.72,-174.47"/>
</g>
<!-- Node3 -->
<g id="node3" class="node">
<title>Node3</title>
<g id="a_node3"><a xlink:href="types_8h.html" target="_top" xlink:title=" ">
<polygon fill="white" stroke="#666666" points="138.5,-85 57.5,-85 57.5,-66 138.5,-66 138.5,-85"/>
<text text-anchor="middle" x="98" y="-73" font-family="Helvetica,sans-Serif" font-size="10.00">dolphin/types.h</text>
</a>
</g>
</g>
<!-- Node1&#45;&gt;Node3 -->
<g id="edge5" class="edge">
<title>Node1&#45;&gt;Node3</title>
<path fill="none" stroke="#63b8ff" d="M1560.76,-238.87C1300.26,-235.78 220.96,-220.78 160,-184 151.45,-178.84 122.79,-124.82 107.61,-95.38"/>
<polygon fill="#63b8ff" stroke="#63b8ff" points="110.89,-94.1 103.22,-86.8 104.66,-97.29 110.89,-94.1"/>
</g>
<!-- Node5 -->
<g id="node5" class="node">
<title>Node5</title>
<g id="a_node5"><a xlink:href="dol2asm_8h.html" target="_top" xlink:title=" ">
<polygon fill="white" stroke="#666666" points="229.5,-162 168.5,-162 168.5,-143 229.5,-143 229.5,-162"/>
<text text-anchor="middle" x="199" y="-150" font-family="Helvetica,sans-Serif" font-size="10.00">dol2asm.h</text>
</a>
</g>
</g>
<!-- Node1&#45;&gt;Node5 -->
<g id="edge4" class="edge">
<title>Node1&#45;&gt;Node5</title>
<path fill="none" stroke="#63b8ff" d="M1560.88,-239.23C1318.08,-237.79 364.65,-229.28 239,-184 230.41,-180.91 222.17,-175.26 215.43,-169.65"/>
<polygon fill="#63b8ff" stroke="#63b8ff" points="218.15,-167.4 208.38,-163.3 213.46,-172.59 218.15,-167.4"/>
</g>
<!-- Node6 -->
<g id="node6" class="node">
<title>Node6</title>
<g id="a_node6"><a xlink:title=" ">
<polygon fill="#e0e0e0" stroke="#999999" points="384.5,-178.5 247.5,-178.5 247.5,-126.5 384.5,-126.5 384.5,-178.5"/>
<text text-anchor="start" x="255.5" y="-166.5" font-family="Helvetica,sans-Serif" font-size="10.00">asm/rel/d/a/tag/d_a</text>
<text text-anchor="start" x="255.5" y="-155.5" font-family="Helvetica,sans-Serif" font-size="10.00">_tag_ss_drink/d_a_tag</text>
<text text-anchor="start" x="255.5" y="-144.5" font-family="Helvetica,sans-Serif" font-size="10.00">_ss_drink/create__15daTag</text>
<text text-anchor="middle" x="316" y="-133.5" font-family="Helvetica,sans-Serif" font-size="10.00">_SSDrink_cFv.s</text>
</a>
</g>
</g>
<!-- Node1&#45;&gt;Node6 -->
<g id="edge6" class="edge">
<title>Node1&#45;&gt;Node6</title>
<path fill="none" stroke="#63b8ff" d="M1560.58,-239.38C1351.49,-238.55 621.15,-232.19 394,-184 391.36,-183.44 388.69,-182.8 386.02,-182.1"/>
<polygon fill="#63b8ff" stroke="#63b8ff" points="387.04,-178.75 376.46,-179.3 385.07,-185.47 387.04,-178.75"/>
</g>
<!-- Node7 -->
<g id="node7" class="node">
<title>Node7</title>
<g id="a_node7"><a xlink:title=" ">
<polygon fill="#e0e0e0" stroke="#999999" points="547,-178.5 403,-178.5 403,-126.5 547,-126.5 547,-178.5"/>
<text text-anchor="start" x="411" y="-166.5" font-family="Helvetica,sans-Serif" font-size="10.00">asm/rel/d/a/tag/d_a</text>
<text text-anchor="start" x="411" y="-155.5" font-family="Helvetica,sans-Serif" font-size="10.00">_tag_ss_drink/d_a_tag</text>
<text text-anchor="start" x="411" y="-144.5" font-family="Helvetica,sans-Serif" font-size="10.00">_ss_drink/Execute__15daTag</text>
<text text-anchor="middle" x="475" y="-133.5" font-family="Helvetica,sans-Serif" font-size="10.00">_SSDrink_cFv.s</text>
</a>
</g>
</g>
<!-- Node1&#45;&gt;Node7 -->
<g id="edge7" class="edge">
<title>Node1&#45;&gt;Node7</title>
<path fill="none" stroke="#63b8ff" d="M1560.74,-238.8C1370.38,-236.08 751.55,-224.29 557,-184 554.2,-183.42 551.37,-182.76 548.53,-182.04"/>
<polygon fill="#63b8ff" stroke="#63b8ff" points="549.59,-178.7 539.01,-179.37 547.69,-185.44 549.59,-178.7"/>
</g>
<!-- Node8 -->
<g id="node8" class="node">
<title>Node8</title>
<g id="a_node8"><a xlink:title=" ">
<polygon fill="#e0e0e0" stroke="#999999" points="712.5,-178.5 565.5,-178.5 565.5,-126.5 712.5,-126.5 712.5,-178.5"/>
<text text-anchor="start" x="573.5" y="-166.5" font-family="Helvetica,sans-Serif" font-size="10.00">asm/rel/d/a/tag/d_a</text>
<text text-anchor="start" x="573.5" y="-155.5" font-family="Helvetica,sans-Serif" font-size="10.00">_tag_ss_drink/d_a_tag</text>
<text text-anchor="start" x="573.5" y="-144.5" font-family="Helvetica,sans-Serif" font-size="10.00">_ss_drink/getTypeFromParam</text>
<text text-anchor="middle" x="639" y="-133.5" font-family="Helvetica,sans-Serif" font-size="10.00">__15daTag_SSDrink_cFv.s</text>
</a>
</g>
</g>
<!-- Node1&#45;&gt;Node8 -->
<g id="edge8" class="edge">
<title>Node1&#45;&gt;Node8</title>
<path fill="none" stroke="#63b8ff" d="M1560.78,-238.14C1390.7,-233.7 883.4,-217.9 722,-184 719.07,-183.39 716.11,-182.69 713.13,-181.92"/>
<polygon fill="#63b8ff" stroke="#63b8ff" points="714.38,-178.64 703.8,-179.3 712.48,-185.37 714.38,-178.64"/>
</g>
<!-- Node9 -->
<g id="node9" class="node">
<title>Node9</title>
<g id="a_node9"><a xlink:title=" ">
<polygon fill="#e0e0e0" stroke="#999999" points="887,-178.5 731,-178.5 731,-126.5 887,-126.5 887,-178.5"/>
<text text-anchor="start" x="739" y="-166.5" font-family="Helvetica,sans-Serif" font-size="10.00">asm/rel/d/a/tag/d_a</text>
<text text-anchor="start" x="739" y="-155.5" font-family="Helvetica,sans-Serif" font-size="10.00">_tag_ss_drink/d_a_tag</text>
<text text-anchor="start" x="739" y="-144.5" font-family="Helvetica,sans-Serif" font-size="10.00">_ss_drink/getSwitchFromParam</text>
<text text-anchor="middle" x="809" y="-133.5" font-family="Helvetica,sans-Serif" font-size="10.00">__15daTag_SSDrink_cFv.s</text>
</a>
</g>
</g>
<!-- Node1&#45;&gt;Node9 -->
<g id="edge9" class="edge">
<title>Node1&#45;&gt;Node9</title>
<path fill="none" stroke="#63b8ff" d="M1560.67,-240.11C1438.29,-240.36 1139.58,-235.15 896,-184 893.02,-183.37 890,-182.67 886.97,-181.91"/>
<polygon fill="#63b8ff" stroke="#63b8ff" points="887.98,-178.56 877.41,-179.31 886.14,-185.31 887.98,-178.56"/>
</g>
<!-- Node10 -->
<g id="node10" class="node">
<title>Node10</title>
<g id="a_node10"><a xlink:title=" ">
<polygon fill="#e0e0e0" stroke="#999999" points="1045,-178.5 905,-178.5 905,-126.5 1045,-126.5 1045,-178.5"/>
<text text-anchor="start" x="913" y="-166.5" font-family="Helvetica,sans-Serif" font-size="10.00">asm/rel/d/a/tag/d_a</text>
<text text-anchor="start" x="913" y="-155.5" font-family="Helvetica,sans-Serif" font-size="10.00">_tag_ss_drink/d_a_tag</text>
<text text-anchor="start" x="913" y="-144.5" font-family="Helvetica,sans-Serif" font-size="10.00">_ss_drink/getFlowNodeNum</text>
<text text-anchor="middle" x="975" y="-133.5" font-family="Helvetica,sans-Serif" font-size="10.00">__15daTag_SSDrink_cFv.s</text>
</a>
</g>
</g>
<!-- Node1&#45;&gt;Node10 -->
<g id="edge10" class="edge">
<title>Node1&#45;&gt;Node10</title>
<path fill="none" stroke="#63b8ff" d="M1560.64,-238.95C1458.32,-236.85 1235.79,-227.21 1054,-184 1051.71,-183.46 1049.4,-182.86 1047.07,-182.22"/>
<polygon fill="#63b8ff" stroke="#63b8ff" points="1048.19,-178.9 1037.61,-179.39 1046.19,-185.61 1048.19,-178.9"/>
</g>
<!-- Node11 -->
<g id="node11" class="node">
<title>Node11</title>
<g id="a_node11"><a xlink:title=" ">
<polygon fill="#e0e0e0" stroke="#999999" points="1211,-178.5 1063,-178.5 1063,-126.5 1211,-126.5 1211,-178.5"/>
<text text-anchor="start" x="1071" y="-166.5" font-family="Helvetica,sans-Serif" font-size="10.00">asm/rel/d/a/tag/d_a</text>
<text text-anchor="start" x="1071" y="-155.5" font-family="Helvetica,sans-Serif" font-size="10.00">_tag_ss_drink/d_a_tag</text>
<text text-anchor="start" x="1071" y="-144.5" font-family="Helvetica,sans-Serif" font-size="10.00">_ss_drink/getValue__15daTag</text>
<text text-anchor="middle" x="1137" y="-133.5" font-family="Helvetica,sans-Serif" font-size="10.00">_SSDrink_cFv.s</text>
</a>
</g>
</g>
<!-- Node1&#45;&gt;Node11 -->
<g id="edge11" class="edge">
<title>Node1&#45;&gt;Node11</title>
<path fill="none" stroke="#63b8ff" d="M1560.55,-235.32C1483.09,-228.75 1339.91,-213.57 1221,-184 1218.71,-183.43 1216.39,-182.82 1214.06,-182.18"/>
<polygon fill="#63b8ff" stroke="#63b8ff" points="1215.12,-178.84 1204.54,-179.37 1213.14,-185.55 1215.12,-178.84"/>
</g>
<!-- Node12 -->
<g id="node12" class="node">
<title>Node12</title>
<g id="a_node12"><a xlink:title=" ">
<polygon fill="#e0e0e0" stroke="#999999" points="1366.5,-178.5 1229.5,-178.5 1229.5,-126.5 1366.5,-126.5 1366.5,-178.5"/>
<text text-anchor="start" x="1237.5" y="-166.5" font-family="Helvetica,sans-Serif" font-size="10.00">asm/rel/d/a/tag/d_a</text>
<text text-anchor="start" x="1237.5" y="-155.5" font-family="Helvetica,sans-Serif" font-size="10.00">_tag_ss_drink/d_a_tag</text>
<text text-anchor="start" x="1237.5" y="-144.5" font-family="Helvetica,sans-Serif" font-size="10.00">_ss_drink/restart__15daTag</text>
<text text-anchor="middle" x="1298" y="-133.5" font-family="Helvetica,sans-Serif" font-size="10.00">_SSDrink_cFv.s</text>
</a>
</g>
</g>
<!-- Node1&#45;&gt;Node12 -->
<g id="edge12" class="edge">
<title>Node1&#45;&gt;Node12</title>
<path fill="none" stroke="#63b8ff" d="M1560.87,-229C1511.63,-219.21 1438.36,-203.26 1376,-184 1374.44,-183.52 1372.86,-183.02 1371.28,-182.5"/>
<polygon fill="#63b8ff" stroke="#63b8ff" points="1372.75,-179.31 1362.16,-179.42 1370.51,-185.94 1372.75,-179.31"/>
</g>
<!-- Node13 -->
<g id="node13" class="node">
<title>Node13</title>
<g id="a_node13"><a xlink:title=" ">
<polygon fill="#e0e0e0" stroke="#999999" points="1515,-178.5 1385,-178.5 1385,-126.5 1515,-126.5 1515,-178.5"/>
<text text-anchor="start" x="1393" y="-166.5" font-family="Helvetica,sans-Serif" font-size="10.00">asm/rel/d/a/tag/d_a</text>
<text text-anchor="start" x="1393" y="-155.5" font-family="Helvetica,sans-Serif" font-size="10.00">_tag_ss_drink/d_a_tag</text>
<text text-anchor="start" x="1393" y="-144.5" font-family="Helvetica,sans-Serif" font-size="10.00">_ss_drink/initialize_</text>
<text text-anchor="middle" x="1450" y="-133.5" font-family="Helvetica,sans-Serif" font-size="10.00">_15daTag_SSDrink_cFv.s</text>
</a>
</g>
</g>
<!-- Node1&#45;&gt;Node13 -->
<g id="edge13" class="edge">
<title>Node1&#45;&gt;Node13</title>
<path fill="none" stroke="#63b8ff" d="M1578.27,-219.55C1557.79,-209.01 1532.21,-195.83 1509.29,-184.03"/>
<polygon fill="#63b8ff" stroke="#63b8ff" points="1511.15,-181.06 1500.66,-179.59 1507.95,-187.28 1511.15,-181.06"/>
</g>
<!-- Node14 -->
<g id="node14" class="node">
<title>Node14</title>
<g id="a_node14"><a xlink:title=" ">
<polygon fill="#e0e0e0" stroke="#999999" points="1701,-184 1533,-184 1533,-121 1701,-121 1701,-184"/>
<text text-anchor="start" x="1541" y="-172" font-family="Helvetica,sans-Serif" font-size="10.00">asm/rel/d/a/tag/d_a</text>
<text text-anchor="start" x="1541" y="-161" font-family="Helvetica,sans-Serif" font-size="10.00">_tag_ss_drink/d_a_tag</text>
<text text-anchor="start" x="1541" y="-150" font-family="Helvetica,sans-Serif" font-size="10.00">_ss_drink/checkProcess</text>
<text text-anchor="start" x="1541" y="-139" font-family="Helvetica,sans-Serif" font-size="10.00">__15daTag_SSDrink_cFM15daTag</text>
<text text-anchor="middle" x="1617" y="-128" font-family="Helvetica,sans-Serif" font-size="10.00">_SSDrink_cFPCvPvPv_i.s</text>
</a>
</g>
</g>
<!-- Node1&#45;&gt;Node14 -->
<g id="edge14" class="edge">
<title>Node1&#45;&gt;Node14</title>
<path fill="none" stroke="#63b8ff" d="M1617,-219.55C1617,-212.47 1617,-204.2 1617,-195.96"/>
<polygon fill="#63b8ff" stroke="#63b8ff" points="1620.5,-195.97 1617,-185.97 1613.5,-195.97 1620.5,-195.97"/>
</g>
<!-- Node15 -->
<g id="node15" class="node">
<title>Node15</title>
<g id="a_node15"><a xlink:title=" ">
<polygon fill="#e0e0e0" stroke="#999999" points="1882.5,-184 1719.5,-184 1719.5,-121 1882.5,-121 1882.5,-184"/>
<text text-anchor="start" x="1727.5" y="-172" font-family="Helvetica,sans-Serif" font-size="10.00">asm/rel/d/a/tag/d_a</text>
<text text-anchor="start" x="1727.5" y="-161" font-family="Helvetica,sans-Serif" font-size="10.00">_tag_ss_drink/d_a_tag</text>
<text text-anchor="start" x="1727.5" y="-150" font-family="Helvetica,sans-Serif" font-size="10.00">_ss_drink/setProcess_</text>
<text text-anchor="start" x="1727.5" y="-139" font-family="Helvetica,sans-Serif" font-size="10.00">_15daTag_SSDrink_cFM15daTag</text>
<text text-anchor="middle" x="1801" y="-128" font-family="Helvetica,sans-Serif" font-size="10.00">_SSDrink_cFPCvPvPv_i.s</text>
</a>
</g>
</g>
<!-- Node1&#45;&gt;Node15 -->
<g id="edge15" class="edge">
<title>Node1&#45;&gt;Node15</title>
<path fill="none" stroke="#63b8ff" d="M1659.68,-219.55C1678.92,-210.56 1702.26,-199.65 1724.37,-189.32"/>
<polygon fill="#63b8ff" stroke="#63b8ff" points="1725.82,-192.5 1733.4,-185.1 1722.85,-186.16 1725.82,-192.5"/>
</g>
<!-- Node16 -->
<g id="node16" class="node">
<title>Node16</title>
<g id="a_node16"><a xlink:title=" ">
<polygon fill="#e0e0e0" stroke="#999999" points="2031,-178.5 1901,-178.5 1901,-126.5 2031,-126.5 2031,-178.5"/>
<text text-anchor="start" x="1909" y="-166.5" font-family="Helvetica,sans-Serif" font-size="10.00">asm/rel/d/a/tag/d_a</text>
<text text-anchor="start" x="1909" y="-155.5" font-family="Helvetica,sans-Serif" font-size="10.00">_tag_ss_drink/d_a_tag</text>
<text text-anchor="start" x="1909" y="-144.5" font-family="Helvetica,sans-Serif" font-size="10.00">_ss_drink/setAttnPos_</text>
<text text-anchor="middle" x="1966" y="-133.5" font-family="Helvetica,sans-Serif" font-size="10.00">_15daTag_SSDrink_cFv.s</text>
</a>
</g>
</g>
<!-- Node1&#45;&gt;Node16 -->
<g id="edge16" class="edge">
<title>Node1&#45;&gt;Node16</title>
<path fill="none" stroke="#63b8ff" d="M1673.35,-231.37C1729.49,-222.52 1817.79,-206.55 1892,-184 1893.38,-183.58 1894.78,-183.14 1896.18,-182.69"/>
<polygon fill="#63b8ff" stroke="#63b8ff" points="1897.23,-186.03 1905.56,-179.48 1894.96,-179.41 1897.23,-186.03"/>
</g>
<!-- Node17 -->
<g id="node17" class="node">
<title>Node17</title>
<g id="a_node17"><a xlink:title=" ">
<polygon fill="#e0e0e0" stroke="#999999" points="2199,-178.5 2049,-178.5 2049,-126.5 2199,-126.5 2199,-178.5"/>
<text text-anchor="start" x="2057" y="-166.5" font-family="Helvetica,sans-Serif" font-size="10.00">asm/rel/d/a/tag/d_a</text>
<text text-anchor="start" x="2057" y="-155.5" font-family="Helvetica,sans-Serif" font-size="10.00">_tag_ss_drink/d_a_tag</text>
<text text-anchor="start" x="2057" y="-144.5" font-family="Helvetica,sans-Serif" font-size="10.00">_ss_drink/chkEvent__15daTag</text>
<text text-anchor="middle" x="2124" y="-133.5" font-family="Helvetica,sans-Serif" font-size="10.00">_SSDrink_cFv.s</text>
</a>
</g>
</g>
<!-- Node1&#45;&gt;Node17 -->
<g id="edge17" class="edge">
<title>Node1&#45;&gt;Node17</title>
<path fill="none" stroke="#63b8ff" d="M1673.48,-236.01C1755.28,-230.08 1911.02,-215.48 2040,-184 2042.3,-183.44 2044.62,-182.84 2046.95,-182.2"/>
<polygon fill="#63b8ff" stroke="#63b8ff" points="2047.85,-185.58 2056.47,-179.42 2045.89,-178.86 2047.85,-185.58"/>
</g>
<!-- Node18 -->
<g id="node18" class="node">
<title>Node18</title>
<g id="a_node18"><a xlink:title=" ">
<polygon fill="#e0e0e0" stroke="#999999" points="2347,-178.5 2217,-178.5 2217,-126.5 2347,-126.5 2347,-178.5"/>
<text text-anchor="start" x="2225" y="-166.5" font-family="Helvetica,sans-Serif" font-size="10.00">asm/rel/d/a/tag/d_a</text>
<text text-anchor="start" x="2225" y="-155.5" font-family="Helvetica,sans-Serif" font-size="10.00">_tag_ss_drink/d_a_tag</text>
<text text-anchor="start" x="2225" y="-144.5" font-family="Helvetica,sans-Serif" font-size="10.00">_ss_drink/orderEvent_</text>
<text text-anchor="middle" x="2282" y="-133.5" font-family="Helvetica,sans-Serif" font-size="10.00">_15daTag_SSDrink_cFv.s</text>
</a>
</g>
</g>
<!-- Node1&#45;&gt;Node18 -->
<g id="edge18" class="edge">
<title>Node1&#45;&gt;Node18</title>
<path fill="none" stroke="#63b8ff" d="M1673.33,-239.73C1779.52,-238.96 2015.91,-231.47 2208,-184 2210.12,-183.47 2212.27,-182.9 2214.42,-182.28"/>
<polygon fill="#63b8ff" stroke="#63b8ff" points="2215.28,-185.68 2223.76,-179.33 2213.17,-179.01 2215.28,-185.68"/>
</g>
<!-- Node19 -->
<g id="node19" class="node">
<title>Node19</title>
<g id="a_node19"><a xlink:title=" ">
<polygon fill="#e0e0e0" stroke="#999999" points="2493,-178.5 2365,-178.5 2365,-126.5 2493,-126.5 2493,-178.5"/>
<text text-anchor="start" x="2373" y="-166.5" font-family="Helvetica,sans-Serif" font-size="10.00">asm/rel/d/a/tag/d_a</text>
<text text-anchor="start" x="2373" y="-155.5" font-family="Helvetica,sans-Serif" font-size="10.00">_tag_ss_drink/d_a_tag</text>
<text text-anchor="start" x="2373" y="-144.5" font-family="Helvetica,sans-Serif" font-size="10.00">_ss_drink/wait__15daTag</text>
<text text-anchor="middle" x="2429" y="-133.5" font-family="Helvetica,sans-Serif" font-size="10.00">_SSDrink_cFPv.s</text>
</a>
</g>
</g>
<!-- Node1&#45;&gt;Node19 -->
<g id="edge19" class="edge">
<title>Node1&#45;&gt;Node19</title>
<path fill="none" stroke="#63b8ff" d="M1673.36,-237.6C1822.77,-232.2 2226.43,-215.07 2356,-184 2358.02,-183.52 2360.05,-182.98 2362.09,-182.41"/>
<polygon fill="#63b8ff" stroke="#63b8ff" points="2363.07,-185.77 2371.57,-179.44 2360.98,-179.09 2363.07,-185.77"/>
</g>
<!-- Node20 -->
<g id="node20" class="node">
<title>Node20</title>
<g id="a_node20"><a xlink:title=" ">
<polygon fill="#e0e0e0" stroke="#999999" points="2636.5,-178.5 2511.5,-178.5 2511.5,-126.5 2636.5,-126.5 2636.5,-178.5"/>
<text text-anchor="start" x="2519.5" y="-166.5" font-family="Helvetica,sans-Serif" font-size="10.00">asm/rel/d/a/tag/d_a</text>
<text text-anchor="start" x="2519.5" y="-155.5" font-family="Helvetica,sans-Serif" font-size="10.00">_tag_ss_drink/d_a_tag</text>
<text text-anchor="start" x="2519.5" y="-144.5" font-family="Helvetica,sans-Serif" font-size="10.00">_ss_drink/talk__15daTag</text>
<text text-anchor="middle" x="2574" y="-133.5" font-family="Helvetica,sans-Serif" font-size="10.00">_SSDrink_cFPv.s</text>
</a>
</g>
</g>
<!-- Node1&#45;&gt;Node20 -->
<g id="edge20" class="edge">
<title>Node1&#45;&gt;Node20</title>
<path fill="none" stroke="#63b8ff" d="M1673.26,-238.45C1842.26,-234.89 2343.46,-221.4 2502,-184 2504.13,-183.5 2506.28,-182.94 2508.43,-182.33"/>
<polygon fill="#63b8ff" stroke="#63b8ff" points="2509.29,-185.73 2517.77,-179.38 2507.18,-179.05 2509.29,-185.73"/>
</g>
<!-- Node21 -->
<g id="node21" class="node">
<title>Node21</title>
<g id="a_node21"><a xlink:title=" ">
<polygon fill="#e0e0e0" stroke="#999999" points="2785,-178.5 2655,-178.5 2655,-126.5 2785,-126.5 2785,-178.5"/>
<text text-anchor="start" x="2663" y="-166.5" font-family="Helvetica,sans-Serif" font-size="10.00">asm/rel/d/a/tag/d_a</text>
<text text-anchor="start" x="2663" y="-155.5" font-family="Helvetica,sans-Serif" font-size="10.00">_tag_ss_drink/d_a_tag</text>
<text text-anchor="start" x="2663" y="-144.5" font-family="Helvetica,sans-Serif" font-size="10.00">_ss_drink/daTag_SSDrink</text>
<text text-anchor="middle" x="2720" y="-133.5" font-family="Helvetica,sans-Serif" font-size="10.00">_Create__FPv.s</text>
</a>
</g>
</g>
<!-- Node1&#45;&gt;Node21 -->
<g id="edge21" class="edge">
<title>Node1&#45;&gt;Node21</title>
<path fill="none" stroke="#63b8ff" d="M1673.29,-238.95C1860.12,-236.74 2458.41,-226.42 2646,-184 2648.28,-183.49 2650.57,-182.91 2652.88,-182.27"/>
<polygon fill="#63b8ff" stroke="#63b8ff" points="2653.68,-185.69 2662.22,-179.41 2651.63,-179 2653.68,-185.69"/>
</g>
<!-- Node22 -->
<g id="node22" class="node">
<title>Node22</title>
<g id="a_node22"><a xlink:title=" ">
<polygon fill="#e0e0e0" stroke="#999999" points="2933,-178.5 2803,-178.5 2803,-126.5 2933,-126.5 2933,-178.5"/>
<text text-anchor="start" x="2811" y="-166.5" font-family="Helvetica,sans-Serif" font-size="10.00">asm/rel/d/a/tag/d_a</text>
<text text-anchor="start" x="2811" y="-155.5" font-family="Helvetica,sans-Serif" font-size="10.00">_tag_ss_drink/d_a_tag</text>
<text text-anchor="start" x="2811" y="-144.5" font-family="Helvetica,sans-Serif" font-size="10.00">_ss_drink/daTag_SSDrink</text>
<text text-anchor="middle" x="2868" y="-133.5" font-family="Helvetica,sans-Serif" font-size="10.00">_Delete__FPv.s</text>
</a>
</g>
</g>
<!-- Node1&#45;&gt;Node22 -->
<g id="edge22" class="edge">
<title>Node1&#45;&gt;Node22</title>
<path fill="none" stroke="#63b8ff" d="M1673.42,-239.39C1877.48,-238.62 2576.6,-232.39 2794,-184 2796.42,-183.46 2798.87,-182.85 2801.33,-182.17"/>
<polygon fill="#63b8ff" stroke="#63b8ff" points="2802.1,-185.6 2810.64,-179.32 2800.05,-178.9 2802.1,-185.6"/>
</g>
<!-- Node23 -->
<g id="node23" class="node">
<title>Node23</title>
<g id="a_node23"><a xlink:title=" ">
<polygon fill="#e0e0e0" stroke="#999999" points="3081,-178.5 2951,-178.5 2951,-126.5 3081,-126.5 3081,-178.5"/>
<text text-anchor="start" x="2959" y="-166.5" font-family="Helvetica,sans-Serif" font-size="10.00">asm/rel/d/a/tag/d_a</text>
<text text-anchor="start" x="2959" y="-155.5" font-family="Helvetica,sans-Serif" font-size="10.00">_tag_ss_drink/d_a_tag</text>
<text text-anchor="start" x="2959" y="-144.5" font-family="Helvetica,sans-Serif" font-size="10.00">_ss_drink/daTag_SSDrink</text>
<text text-anchor="middle" x="3016" y="-133.5" font-family="Helvetica,sans-Serif" font-size="10.00">_Execute__FPv.s</text>
</a>
</g>
</g>
<!-- Node1&#45;&gt;Node23 -->
<g id="edge23" class="edge">
<title>Node1&#45;&gt;Node23</title>
<path fill="none" stroke="#63b8ff" d="M1673.19,-239.74C1892.98,-240.28 2694.51,-238.41 2942,-184 2944.43,-183.47 2946.87,-182.86 2949.33,-182.19"/>
<polygon fill="#63b8ff" stroke="#63b8ff" points="2950.1,-185.61 2958.64,-179.35 2948.06,-178.92 2950.1,-185.61"/>
</g>
<!-- Node24 -->
<g id="node24" class="node">
<title>Node24</title>
<g id="a_node24"><a xlink:title=" ">
<polygon fill="#e0e0e0" stroke="#999999" points="3229,-178.5 3099,-178.5 3099,-126.5 3229,-126.5 3229,-178.5"/>
<text text-anchor="start" x="3107" y="-166.5" font-family="Helvetica,sans-Serif" font-size="10.00">asm/rel/d/a/tag/d_a</text>
<text text-anchor="start" x="3107" y="-155.5" font-family="Helvetica,sans-Serif" font-size="10.00">_tag_ss_drink/d_a_tag</text>
<text text-anchor="start" x="3107" y="-144.5" font-family="Helvetica,sans-Serif" font-size="10.00">_ss_drink/daTag_SSDrink</text>
<text text-anchor="middle" x="3164" y="-133.5" font-family="Helvetica,sans-Serif" font-size="10.00">_Draw__FPv.s</text>
</a>
</g>
</g>
<!-- Node1&#45;&gt;Node24 -->
<g id="edge24" class="edge">
<title>Node1&#45;&gt;Node24</title>
<path fill="none" stroke="#63b8ff" d="M1673.31,-238.55C1926.08,-234.13 2949.89,-214.49 3090,-184 3092.43,-183.47 3094.88,-182.87 3097.33,-182.2"/>
<polygon fill="#63b8ff" stroke="#63b8ff" points="3098.1,-185.63 3106.65,-179.37 3096.06,-178.93 3098.1,-185.63"/>
</g>
<!-- Node25 -->
<g id="node25" class="node">
<title>Node25</title>
<g id="a_node25"><a xlink:title=" ">
<polygon fill="#e0e0e0" stroke="#999999" points="3375,-178.5 3247,-178.5 3247,-126.5 3375,-126.5 3375,-178.5"/>
<text text-anchor="start" x="3255" y="-166.5" font-family="Helvetica,sans-Serif" font-size="10.00">asm/rel/d/a/tag/d_a</text>
<text text-anchor="start" x="3255" y="-155.5" font-family="Helvetica,sans-Serif" font-size="10.00">_tag_ss_drink/d_a_tag</text>
<text text-anchor="start" x="3255" y="-144.5" font-family="Helvetica,sans-Serif" font-size="10.00">_ss_drink/__dt__15daTag</text>
<text text-anchor="middle" x="3311" y="-133.5" font-family="Helvetica,sans-Serif" font-size="10.00">_SSDrink_cFv.s</text>
</a>
</g>
</g>
<!-- Node1&#45;&gt;Node25 -->
<g id="edge25" class="edge">
<title>Node1&#45;&gt;Node25</title>
<path fill="none" stroke="#63b8ff" d="M1673.49,-238.77C1942.03,-235.15 3082.82,-217.89 3238,-184 3240.31,-183.5 3242.63,-182.92 3244.96,-182.29"/>
<polygon fill="#63b8ff" stroke="#63b8ff" points="3245.89,-185.67 3254.43,-179.4 3243.84,-178.97 3245.89,-185.67"/>
</g>
<!-- Node2&#45;&gt;Node3 -->
<g id="edge2" class="edge">
<title>Node2&#45;&gt;Node3</title>
<path fill="none" stroke="#63b8ff" d="M67.04,-131.79C73.38,-120.47 81.3,-106.32 87.54,-95.17"/>
<polygon fill="#63b8ff" stroke="#63b8ff" points="90.54,-96.99 92.37,-86.56 84.43,-93.57 90.54,-96.99"/>
</g>
<!-- Node4 -->
<g id="node4" class="node">
<title>Node4</title>
<g id="a_node4"><a xlink:href="stddef_8h.html" target="_top" xlink:title=" ">
<polygon fill="white" stroke="#666666" points="166,-30 30,-30 30,0 166,0 166,-30"/>
<text text-anchor="start" x="38" y="-18" font-family="Helvetica,sans-Serif" font-size="10.00">MSL_C/MSL_Common/Src</text>
<text text-anchor="middle" x="98" y="-7" font-family="Helvetica,sans-Serif" font-size="10.00">/stddef.h</text>
</a>
</g>
</g>
<!-- Node3&#45;&gt;Node4 -->
<g id="edge3" class="edge">
<title>Node3&#45;&gt;Node4</title>
<path fill="none" stroke="#63b8ff" d="M98,-65.87C98,-59.4 98,-50.2 98,-41.45"/>
<polygon fill="#63b8ff" stroke="#63b8ff" points="101.5,-41.63 98,-31.63 94.5,-41.63 101.5,-41.63"/>
</g>
</g>
</svg>
