<?xml version="1.0" encoding="UTF-8" standalone="no"?>
<!DOCTYPE svg PUBLIC "-//W3C//DTD SVG 1.1//EN"
 "http://www.w3.org/Graphics/SVG/1.1/DTD/svg11.dtd">
<!-- Generated by graphviz version 7.0.5 (20221223.1930)
 -->
<!-- Title: rel/d/a/e/d_a_e_th_ball/d_a_e_th_ball.cpp Pages: 1 -->
<!--zoomable 247 -->
<svg id="main" version="1.1" xmlns="http://www.w3.org/2000/svg" xmlns:xlink="http://www.w3.org/1999/xlink" xml:space="preserve" onload="init(evt)">
<style type="text/css"><![CDATA[
.edge:hover path { stroke: red; }
.edge:hover polygon { stroke: red; fill: red; }
]]></style>
<script type="text/javascript"><![CDATA[
var edges = document.getElementsByTagName('g');
if (edges && edges.length) {
  for (var i=0;i<edges.length;i++) {
    if (edges[i].id.substr(0,4)=='edge') {
      edges[i].setAttribute('class','edge');
    }
  }
}
]]></script>
        <defs>
                <circle id="rim" cx="0" cy="0" r="7"/>
                <circle id="rim2" cx="0" cy="0" r="3.5"/>
                <g id="zoomPlus">
                        <use xlink:href="#rim" fill="#404040">
                                <set attributeName="fill" to="#808080" begin="zoomplus.mouseover" end="zoomplus.mouseout"/>
                        </use>
                        <path d="M-4,0h8M0,-4v8" fill="none" stroke="white" stroke-width="1.5" pointer-events="none"/>
                </g>
                <g id="zoomMin">
                        <use xlink:href="#rim" fill="#404040">
                                <set attributeName="fill" to="#808080" begin="zoomminus.mouseover" end="zoomminus.mouseout"/>
                        </use>
                        <path d="M-4,0h8" fill="none" stroke="white" stroke-width="1.5" pointer-events="none"/>
                </g>
                <g id="dirArrow">
                        <path fill="none" stroke="white" stroke-width="1.5" d="M0,-3.0v7 M-2.5,-0.5L0,-3.0L2.5,-0.5"/>
                </g>
               <g id="resetDef">
                       <use xlink:href="#rim2" fill="#404040">
                               <set attributeName="fill" to="#808080" begin="reset.mouseover" end="reset.mouseout"/>
                       </use>
               </g>
        </defs>

<script type="text/javascript">
var viewWidth = 4671;
var viewHeight = 247;
var sectionId = 'dynsection-0';
</script>
<script xlink:href="svgpan.js"/>
<svg id="graph" class="graph">
<g id="viewport">
<title>rel/d/a/e/d_a_e_th_ball/d_a_e_th_ball.cpp</title>
<!-- Node1 -->
<g id="node1" class="node">
<title>Node1</title>
<g id="a_node1"><a xlink:title=" ">
<polygon fill="#999999" stroke="#666666" points="2285.5,-239 2167.5,-239 2167.5,-209 2285.5,-209 2285.5,-239"/>
<text text-anchor="start" x="2175.5" y="-227" font-family="Helvetica,sans-Serif" font-size="10.00">rel/d/a/e/d_a_e_th</text>
<text text-anchor="middle" x="2226.5" y="-216" font-family="Helvetica,sans-Serif" font-size="10.00">_ball/d_a_e_th_ball.cpp</text>
</a>
</g>
</g>
<!-- Node2 -->
<g id="node2" class="node">
<title>Node2</title>
<g id="a_node2"><a xlink:href="d__a__e__th__ball_8h.html" target="_top" xlink:title=" ">
<polygon fill="white" stroke="#666666" points="107,-162 0,-162 0,-132 107,-132 107,-162"/>
<text text-anchor="start" x="8" y="-150" font-family="Helvetica,sans-Serif" font-size="10.00">rel/d/a/e/d_a_e_th</text>
<text text-anchor="middle" x="53.5" y="-139" font-family="Helvetica,sans-Serif" font-size="10.00">_ball/d_a_e_th_ball.h</text>
</a>
</g>
</g>
<!-- Node1&#45;&gt;Node2 -->
<g id="edge1" class="edge">
<title>Node1&#45;&gt;Node2</title>
<path fill="none" stroke="#63b8ff" d="M2167.01,-222.75C1845.94,-221.24 326.87,-212.08 121.5,-173 113.34,-171.45 104.87,-169.03 96.79,-166.31"/>
<polygon fill="#63b8ff" stroke="#63b8ff" points="98.1,-163.06 87.51,-162.96 95.73,-169.64 98.1,-163.06"/>
</g>
<!-- Node3 -->
<g id="node3" class="node">
<title>Node3</title>
<g id="a_node3"><a xlink:href="types_8h.html" target="_top" xlink:title=" ">
<polygon fill="white" stroke="#666666" points="135,-85 54,-85 54,-66 135,-66 135,-85"/>
<text text-anchor="middle" x="94.5" y="-73" font-family="Helvetica,sans-Serif" font-size="10.00">dolphin/types.h</text>
</a>
</g>
</g>
<!-- Node1&#45;&gt;Node3 -->
<g id="edge5" class="edge">
<title>Node1&#45;&gt;Node3</title>
<path fill="none" stroke="#63b8ff" d="M2167.14,-223.14C1837.65,-223.72 245.24,-223.86 155.5,-173 140.1,-164.27 116.51,-120.77 103.64,-95.25"/>
<polygon fill="#63b8ff" stroke="#63b8ff" points="106.94,-94.03 99.37,-86.63 100.67,-97.14 106.94,-94.03"/>
</g>
<!-- Node5 -->
<g id="node5" class="node">
<title>Node5</title>
<g id="a_node5"><a xlink:href="dol2asm_8h.html" target="_top" xlink:title=" ">
<polygon fill="white" stroke="#666666" points="225,-156.5 164,-156.5 164,-137.5 225,-137.5 225,-156.5"/>
<text text-anchor="middle" x="194.5" y="-144.5" font-family="Helvetica,sans-Serif" font-size="10.00">dol2asm.h</text>
</a>
</g>
</g>
<!-- Node1&#45;&gt;Node5 -->
<g id="edge4" class="edge">
<title>Node1&#45;&gt;Node5</title>
<path fill="none" stroke="#63b8ff" d="M2167.08,-222.39C1845.99,-218.99 329.26,-201.47 234.5,-173 227.57,-170.92 220.65,-167.29 214.57,-163.44"/>
<polygon fill="#63b8ff" stroke="#63b8ff" points="216.71,-160.66 206.51,-157.83 212.72,-166.41 216.71,-160.66"/>
</g>
<!-- Node6 -->
<g id="node6" class="node">
<title>Node6</title>
<g id="a_node6"><a xlink:title=" ">
<polygon fill="#e0e0e0" stroke="#999999" points="365.5,-173 243.5,-173 243.5,-121 365.5,-121 365.5,-173"/>
<text text-anchor="start" x="251.5" y="-161" font-family="Helvetica,sans-Serif" font-size="10.00">asm/rel/d/a/e/d_a_e</text>
<text text-anchor="start" x="251.5" y="-150" font-family="Helvetica,sans-Serif" font-size="10.00">_th_ball/d_a_e_th_ball</text>
<text text-anchor="start" x="251.5" y="-139" font-family="Helvetica,sans-Serif" font-size="10.00">/chain_draw__FP15e_th</text>
<text text-anchor="middle" x="304.5" y="-128" font-family="Helvetica,sans-Serif" font-size="10.00">_ball_class.s</text>
</a>
</g>
</g>
<!-- Node1&#45;&gt;Node6 -->
<g id="edge6" class="edge">
<title>Node1&#45;&gt;Node6</title>
<path fill="none" stroke="#63b8ff" d="M2167,-222.51C1875.24,-219.95 601.04,-207.04 376.95,-172.98"/>
<polygon fill="#63b8ff" stroke="#63b8ff" points="377.59,-169.54 367.15,-171.33 376.43,-176.44 377.59,-169.54"/>
</g>
<!-- Node7 -->
<g id="node7" class="node">
<title>Node7</title>
<g id="a_node7"><a xlink:title=" ">
<polygon fill="#e0e0e0" stroke="#999999" points="535.5,-173 383.5,-173 383.5,-121 535.5,-121 535.5,-173"/>
<text text-anchor="start" x="391.5" y="-161" font-family="Helvetica,sans-Serif" font-size="10.00">asm/rel/d/a/e/d_a_e</text>
<text text-anchor="start" x="391.5" y="-150" font-family="Helvetica,sans-Serif" font-size="10.00">_th_ball/d_a_e_th_ball</text>
<text text-anchor="start" x="391.5" y="-139" font-family="Helvetica,sans-Serif" font-size="10.00">/daE_TH_BALL_Draw__FP15e</text>
<text text-anchor="middle" x="459.5" y="-128" font-family="Helvetica,sans-Serif" font-size="10.00">_th_ball_class.s</text>
</a>
</g>
</g>
<!-- Node1&#45;&gt;Node7 -->
<g id="edge7" class="edge">
<title>Node1&#45;&gt;Node7</title>
<path fill="none" stroke="#63b8ff" d="M2167.21,-223.27C1910.09,-224.13 889.5,-224.3 546.91,-173.15"/>
<polygon fill="#63b8ff" stroke="#63b8ff" points="547.66,-169.72 537.24,-171.66 546.59,-176.64 547.66,-169.72"/>
</g>
<!-- Node8 -->
<g id="node8" class="node">
<title>Node8</title>
<g id="a_node8"><a xlink:title=" ">
<polygon fill="#e0e0e0" stroke="#999999" points="685.5,-173 553.5,-173 553.5,-121 685.5,-121 685.5,-173"/>
<text text-anchor="start" x="561.5" y="-161" font-family="Helvetica,sans-Serif" font-size="10.00">asm/rel/d/a/e/d_a_e</text>
<text text-anchor="start" x="561.5" y="-150" font-family="Helvetica,sans-Serif" font-size="10.00">_th_ball/d_a_e_th_ball</text>
<text text-anchor="start" x="561.5" y="-139" font-family="Helvetica,sans-Serif" font-size="10.00">/chain_control_01__FP15e</text>
<text text-anchor="middle" x="619.5" y="-128" font-family="Helvetica,sans-Serif" font-size="10.00">_th_ball_class.s</text>
</a>
</g>
</g>
<!-- Node1&#45;&gt;Node8 -->
<g id="edge8" class="edge">
<title>Node1&#45;&gt;Node8</title>
<path fill="none" stroke="#63b8ff" d="M2167.21,-223.31C1924.93,-224.26 1008.6,-224.4 697.22,-172.98"/>
<polygon fill="#63b8ff" stroke="#63b8ff" points="697.89,-169.54 687.44,-171.3 696.71,-176.44 697.89,-169.54"/>
</g>
<!-- Node9 -->
<g id="node9" class="node">
<title>Node9</title>
<g id="a_node9"><a xlink:title=" ">
<polygon fill="#e0e0e0" stroke="#999999" points="817,-167.5 704,-167.5 704,-126.5 817,-126.5 817,-167.5"/>
<text text-anchor="start" x="712" y="-155.5" font-family="Helvetica,sans-Serif" font-size="10.00">asm/rel/d/a/e/d_a_e</text>
<text text-anchor="start" x="712" y="-144.5" font-family="Helvetica,sans-Serif" font-size="10.00">_th_ball/d_a_e_th_ball</text>
<text text-anchor="middle" x="760.5" y="-133.5" font-family="Helvetica,sans-Serif" font-size="10.00">/__dt__4cXyzFv.s</text>
</a>
</g>
</g>
<!-- Node1&#45;&gt;Node9 -->
<g id="edge9" class="edge">
<title>Node1&#45;&gt;Node9</title>
<path fill="none" stroke="#63b8ff" d="M2167.18,-223.45C1935.16,-224.79 1088.91,-225.89 826.5,-173 823.87,-172.47 821.2,-171.85 818.52,-171.15"/>
<polygon fill="#63b8ff" stroke="#63b8ff" points="819.57,-167.81 808.99,-168.35 817.6,-174.53 819.57,-167.81"/>
</g>
<!-- Node10 -->
<g id="node10" class="node">
<title>Node10</title>
<g id="a_node10"><a xlink:title=" ">
<polygon fill="#e0e0e0" stroke="#999999" points="967.5,-173 835.5,-173 835.5,-121 967.5,-121 967.5,-173"/>
<text text-anchor="start" x="843.5" y="-161" font-family="Helvetica,sans-Serif" font-size="10.00">asm/rel/d/a/e/d_a_e</text>
<text text-anchor="start" x="843.5" y="-150" font-family="Helvetica,sans-Serif" font-size="10.00">_th_ball/d_a_e_th_ball</text>
<text text-anchor="start" x="843.5" y="-139" font-family="Helvetica,sans-Serif" font-size="10.00">/chain_control_02__FP15e</text>
<text text-anchor="middle" x="901.5" y="-128" font-family="Helvetica,sans-Serif" font-size="10.00">_th_ball_class.s</text>
</a>
</g>
</g>
<!-- Node1&#45;&gt;Node10 -->
<g id="edge10" class="edge">
<title>Node1&#45;&gt;Node10</title>
<path fill="none" stroke="#63b8ff" d="M2167.07,-222.84C1954.5,-221.91 1231.58,-215.75 979.2,-173.2"/>
<polygon fill="#63b8ff" stroke="#63b8ff" points="979.85,-169.76 969.39,-171.47 978.63,-176.65 979.85,-169.76"/>
</g>
<!-- Node11 -->
<g id="node11" class="node">
<title>Node11</title>
<g id="a_node11"><a xlink:title=" ">
<polygon fill="#e0e0e0" stroke="#999999" points="1117.5,-173 985.5,-173 985.5,-121 1117.5,-121 1117.5,-173"/>
<text text-anchor="start" x="993.5" y="-161" font-family="Helvetica,sans-Serif" font-size="10.00">asm/rel/d/a/e/d_a_e</text>
<text text-anchor="start" x="993.5" y="-150" font-family="Helvetica,sans-Serif" font-size="10.00">_th_ball/d_a_e_th_ball</text>
<text text-anchor="start" x="993.5" y="-139" font-family="Helvetica,sans-Serif" font-size="10.00">/chain_control_03__FP15e</text>
<text text-anchor="middle" x="1051.5" y="-128" font-family="Helvetica,sans-Serif" font-size="10.00">_th_ball_class.s</text>
</a>
</g>
</g>
<!-- Node1&#45;&gt;Node11 -->
<g id="edge11" class="edge">
<title>Node1&#45;&gt;Node11</title>
<path fill="none" stroke="#63b8ff" d="M2167.13,-222.46C1971.97,-220.34 1350.53,-210.89 1129.09,-173.19"/>
<polygon fill="#63b8ff" stroke="#63b8ff" points="1129.85,-169.77 1119.39,-171.46 1128.63,-176.66 1129.85,-169.77"/>
</g>
<!-- Node12 -->
<g id="node12" class="node">
<title>Node12</title>
<g id="a_node12"><a xlink:title=" ">
<polygon fill="#e0e0e0" stroke="#999999" points="1267.5,-173 1135.5,-173 1135.5,-121 1267.5,-121 1267.5,-173"/>
<text text-anchor="start" x="1143.5" y="-161" font-family="Helvetica,sans-Serif" font-size="10.00">asm/rel/d/a/e/d_a_e</text>
<text text-anchor="start" x="1143.5" y="-150" font-family="Helvetica,sans-Serif" font-size="10.00">_th_ball/d_a_e_th_ball</text>
<text text-anchor="start" x="1143.5" y="-139" font-family="Helvetica,sans-Serif" font-size="10.00">/chain_control_11__FP15e</text>
<text text-anchor="middle" x="1201.5" y="-128" font-family="Helvetica,sans-Serif" font-size="10.00">_th_ball_class.s</text>
</a>
</g>
</g>
<!-- Node1&#45;&gt;Node12 -->
<g id="edge12" class="edge">
<title>Node1&#45;&gt;Node12</title>
<path fill="none" stroke="#63b8ff" d="M2167.2,-221.96C1990.74,-218.56 1469.93,-206.09 1279.18,-173.21"/>
<polygon fill="#63b8ff" stroke="#63b8ff" points="1279.86,-169.77 1269.4,-171.44 1278.62,-176.66 1279.86,-169.77"/>
</g>
<!-- Node13 -->
<g id="node13" class="node">
<title>Node13</title>
<g id="a_node13"><a xlink:title=" ">
<polygon fill="#e0e0e0" stroke="#999999" points="1417.5,-173 1285.5,-173 1285.5,-121 1417.5,-121 1417.5,-173"/>
<text text-anchor="start" x="1293.5" y="-161" font-family="Helvetica,sans-Serif" font-size="10.00">asm/rel/d/a/e/d_a_e</text>
<text text-anchor="start" x="1293.5" y="-150" font-family="Helvetica,sans-Serif" font-size="10.00">_th_ball/d_a_e_th_ball</text>
<text text-anchor="start" x="1293.5" y="-139" font-family="Helvetica,sans-Serif" font-size="10.00">/chain_control_12__FP15e</text>
<text text-anchor="middle" x="1351.5" y="-128" font-family="Helvetica,sans-Serif" font-size="10.00">_th_ball_class.s</text>
</a>
</g>
</g>
<!-- Node1&#45;&gt;Node13 -->
<g id="edge13" class="edge">
<title>Node1&#45;&gt;Node13</title>
<path fill="none" stroke="#63b8ff" d="M2167.08,-221.28C2010.6,-216.45 1588.79,-201.33 1428.96,-173.18"/>
<polygon fill="#63b8ff" stroke="#63b8ff" points="1429.88,-169.79 1419.4,-171.41 1428.6,-176.67 1429.88,-169.79"/>
</g>
<!-- Node14 -->
<g id="node14" class="node">
<title>Node14</title>
<g id="a_node14"><a xlink:title=" ">
<polygon fill="#e0e0e0" stroke="#999999" points="1567.5,-173 1435.5,-173 1435.5,-121 1567.5,-121 1567.5,-173"/>
<text text-anchor="start" x="1443.5" y="-161" font-family="Helvetica,sans-Serif" font-size="10.00">asm/rel/d/a/e/d_a_e</text>
<text text-anchor="start" x="1443.5" y="-150" font-family="Helvetica,sans-Serif" font-size="10.00">_th_ball/d_a_e_th_ball</text>
<text text-anchor="start" x="1443.5" y="-139" font-family="Helvetica,sans-Serif" font-size="10.00">/chain_control_13__FP15e</text>
<text text-anchor="middle" x="1501.5" y="-128" font-family="Helvetica,sans-Serif" font-size="10.00">_th_ball_class.s</text>
</a>
</g>
</g>
<!-- Node1&#45;&gt;Node14 -->
<g id="edge14" class="edge">
<title>Node1&#45;&gt;Node14</title>
<path fill="none" stroke="#63b8ff" d="M2167.13,-223.26C2053.92,-222.73 1799.52,-216.51 1579.06,-173.3"/>
<polygon fill="#63b8ff" stroke="#63b8ff" points="1579.9,-169.9 1569.41,-171.38 1578.53,-176.76 1579.9,-169.9"/>
</g>
<!-- Node15 -->
<g id="node15" class="node">
<title>Node15</title>
<g id="a_node15"><a xlink:title=" ">
<polygon fill="#e0e0e0" stroke="#999999" points="1717.5,-173 1585.5,-173 1585.5,-121 1717.5,-121 1717.5,-173"/>
<text text-anchor="start" x="1593.5" y="-161" font-family="Helvetica,sans-Serif" font-size="10.00">asm/rel/d/a/e/d_a_e</text>
<text text-anchor="start" x="1593.5" y="-150" font-family="Helvetica,sans-Serif" font-size="10.00">_th_ball/d_a_e_th_ball</text>
<text text-anchor="start" x="1593.5" y="-139" font-family="Helvetica,sans-Serif" font-size="10.00">/chain_control_21__FP15e</text>
<text text-anchor="middle" x="1651.5" y="-128" font-family="Helvetica,sans-Serif" font-size="10.00">_th_ball_class.s</text>
</a>
</g>
</g>
<!-- Node1&#45;&gt;Node15 -->
<g id="edge15" class="edge">
<title>Node1&#45;&gt;Node15</title>
<path fill="none" stroke="#63b8ff" d="M2167.09,-221.23C2075.04,-217.57 1892.45,-206.67 1728.83,-173.03"/>
<polygon fill="#63b8ff" stroke="#63b8ff" points="1729.57,-169.61 1719.07,-170.99 1728.14,-176.46 1729.57,-169.61"/>
</g>
<!-- Node16 -->
<g id="node16" class="node">
<title>Node16</title>
<g id="a_node16"><a xlink:title=" ">
<polygon fill="#e0e0e0" stroke="#999999" points="1867,-173 1736,-173 1736,-121 1867,-121 1867,-173"/>
<text text-anchor="start" x="1744" y="-161" font-family="Helvetica,sans-Serif" font-size="10.00">asm/rel/d/a/e/d_a_e</text>
<text text-anchor="start" x="1744" y="-150" font-family="Helvetica,sans-Serif" font-size="10.00">_th_ball/d_a_e_th_ball</text>
<text text-anchor="start" x="1744" y="-139" font-family="Helvetica,sans-Serif" font-size="10.00">/normal_move__FP15e_th</text>
<text text-anchor="middle" x="1801.5" y="-128" font-family="Helvetica,sans-Serif" font-size="10.00">_ball_classSc.s</text>
</a>
</g>
</g>
<!-- Node1&#45;&gt;Node16 -->
<g id="edge16" class="edge">
<title>Node1&#45;&gt;Node16</title>
<path fill="none" stroke="#63b8ff" d="M2167.06,-217.8C2099.27,-211.13 1985.06,-197.69 1878.14,-173.19"/>
<polygon fill="#63b8ff" stroke="#63b8ff" points="1879.17,-169.84 1868.63,-170.97 1877.57,-176.65 1879.17,-169.84"/>
</g>
<!-- Node17 -->
<g id="node17" class="node">
<title>Node17</title>
<g id="a_node17"><a xlink:title=" ">
<polygon fill="#e0e0e0" stroke="#999999" points="2007.5,-173 1885.5,-173 1885.5,-121 2007.5,-121 2007.5,-173"/>
<text text-anchor="start" x="1893.5" y="-161" font-family="Helvetica,sans-Serif" font-size="10.00">asm/rel/d/a/e/d_a_e</text>
<text text-anchor="start" x="1893.5" y="-150" font-family="Helvetica,sans-Serif" font-size="10.00">_th_ball/d_a_e_th_ball</text>
<text text-anchor="start" x="1893.5" y="-139" font-family="Helvetica,sans-Serif" font-size="10.00">/e_th_ball_stop__FP15e</text>
<text text-anchor="middle" x="1946.5" y="-128" font-family="Helvetica,sans-Serif" font-size="10.00">_th_ball_class.s</text>
</a>
</g>
</g>
<!-- Node1&#45;&gt;Node17 -->
<g id="edge17" class="edge">
<title>Node1&#45;&gt;Node17</title>
<path fill="none" stroke="#63b8ff" d="M2167.06,-210.5C2127.54,-201.8 2074.34,-189.34 2018.73,-173.23"/>
<polygon fill="#63b8ff" stroke="#63b8ff" points="2019.98,-169.95 2009.4,-170.5 2018.01,-176.67 2019.98,-169.95"/>
</g>
<!-- Node18 -->
<g id="node18" class="node">
<title>Node18</title>
<g id="a_node18"><a xlink:title=" ">
<polygon fill="#e0e0e0" stroke="#999999" points="2147,-173 2026,-173 2026,-121 2147,-121 2147,-173"/>
<text text-anchor="start" x="2034" y="-161" font-family="Helvetica,sans-Serif" font-size="10.00">asm/rel/d/a/e/d_a_e</text>
<text text-anchor="start" x="2034" y="-150" font-family="Helvetica,sans-Serif" font-size="10.00">_th_ball/d_a_e_th_ball</text>
<text text-anchor="start" x="2034" y="-139" font-family="Helvetica,sans-Serif" font-size="10.00">/e_th_ball_spin__FP15e</text>
<text text-anchor="middle" x="2086.5" y="-128" font-family="Helvetica,sans-Serif" font-size="10.00">_th_ball_class.s</text>
</a>
</g>
</g>
<!-- Node1&#45;&gt;Node18 -->
<g id="edge18" class="edge">
<title>Node1&#45;&gt;Node18</title>
<path fill="none" stroke="#63b8ff" d="M2199.51,-208.54C2183.67,-200.06 2163.05,-189.01 2143.76,-178.67"/>
<polygon fill="#63b8ff" stroke="#63b8ff" points="2145.63,-175.7 2135.16,-174.07 2142.32,-181.87 2145.63,-175.7"/>
</g>
<!-- Node19 -->
<g id="node19" class="node">
<title>Node19</title>
<g id="a_node19"><a xlink:title=" ">
<polygon fill="#e0e0e0" stroke="#999999" points="2288,-173 2165,-173 2165,-121 2288,-121 2288,-173"/>
<text text-anchor="start" x="2173" y="-161" font-family="Helvetica,sans-Serif" font-size="10.00">asm/rel/d/a/e/d_a_e</text>
<text text-anchor="start" x="2173" y="-150" font-family="Helvetica,sans-Serif" font-size="10.00">_th_ball/d_a_e_th_ball</text>
<text text-anchor="start" x="2173" y="-139" font-family="Helvetica,sans-Serif" font-size="10.00">/wall_angle_get__FP15e</text>
<text text-anchor="middle" x="2226.5" y="-128" font-family="Helvetica,sans-Serif" font-size="10.00">_th_ball_class.s</text>
</a>
</g>
</g>
<!-- Node1&#45;&gt;Node19 -->
<g id="edge19" class="edge">
<title>Node1&#45;&gt;Node19</title>
<path fill="none" stroke="#63b8ff" d="M2226.5,-208.54C2226.5,-201.69 2226.5,-193.17 2226.5,-184.7"/>
<polygon fill="#63b8ff" stroke="#63b8ff" points="2230,-184.87 2226.5,-174.87 2223,-184.87 2230,-184.87"/>
</g>
<!-- Node20 -->
<g id="node20" class="node">
<title>Node20</title>
<g id="a_node20"><a xlink:title=" ">
<polygon fill="#e0e0e0" stroke="#999999" points="2428.5,-173 2306.5,-173 2306.5,-121 2428.5,-121 2428.5,-173"/>
<text text-anchor="start" x="2314.5" y="-161" font-family="Helvetica,sans-Serif" font-size="10.00">asm/rel/d/a/e/d_a_e</text>
<text text-anchor="start" x="2314.5" y="-150" font-family="Helvetica,sans-Serif" font-size="10.00">_th_ball/d_a_e_th_ball</text>
<text text-anchor="start" x="2314.5" y="-139" font-family="Helvetica,sans-Serif" font-size="10.00">/e_th_ball_shot__FP15e</text>
<text text-anchor="middle" x="2367.5" y="-128" font-family="Helvetica,sans-Serif" font-size="10.00">_th_ball_class.s</text>
</a>
</g>
</g>
<!-- Node1&#45;&gt;Node20 -->
<g id="edge20" class="edge">
<title>Node1&#45;&gt;Node20</title>
<path fill="none" stroke="#63b8ff" d="M2253.69,-208.54C2269.63,-200.06 2290.41,-189.01 2309.83,-178.67"/>
<polygon fill="#63b8ff" stroke="#63b8ff" points="2311.32,-181.85 2318.5,-174.06 2308.03,-175.67 2311.32,-181.85"/>
</g>
<!-- Node21 -->
<g id="node21" class="node">
<title>Node21</title>
<g id="a_node21"><a xlink:title=" ">
<polygon fill="#e0e0e0" stroke="#999999" points="2574.5,-173 2446.5,-173 2446.5,-121 2574.5,-121 2574.5,-173"/>
<text text-anchor="start" x="2454.5" y="-161" font-family="Helvetica,sans-Serif" font-size="10.00">asm/rel/d/a/e/d_a_e</text>
<text text-anchor="start" x="2454.5" y="-150" font-family="Helvetica,sans-Serif" font-size="10.00">_th_ball/d_a_e_th_ball</text>
<text text-anchor="start" x="2454.5" y="-139" font-family="Helvetica,sans-Serif" font-size="10.00">/e_th_ball_return__FP15e</text>
<text text-anchor="middle" x="2510.5" y="-128" font-family="Helvetica,sans-Serif" font-size="10.00">_th_ball_class.s</text>
</a>
</g>
</g>
<!-- Node1&#45;&gt;Node21 -->
<g id="edge21" class="edge">
<title>Node1&#45;&gt;Node21</title>
<path fill="none" stroke="#63b8ff" d="M2285.56,-210.62C2325.52,-201.87 2379.65,-189.32 2435.34,-173.52"/>
<polygon fill="#63b8ff" stroke="#63b8ff" points="2436.02,-176.97 2444.67,-170.84 2434.09,-170.24 2436.02,-176.97"/>
</g>
<!-- Node22 -->
<g id="node22" class="node">
<title>Node22</title>
<g id="a_node22"><a xlink:title=" ">
<polygon fill="#e0e0e0" stroke="#999999" points="2712,-173 2593,-173 2593,-121 2712,-121 2712,-173"/>
<text text-anchor="start" x="2601" y="-161" font-family="Helvetica,sans-Serif" font-size="10.00">asm/rel/d/a/e/d_a_e</text>
<text text-anchor="start" x="2601" y="-150" font-family="Helvetica,sans-Serif" font-size="10.00">_th_ball/d_a_e_th_ball</text>
<text text-anchor="start" x="2601" y="-139" font-family="Helvetica,sans-Serif" font-size="10.00">/e_th_ball_end__FP15e</text>
<text text-anchor="middle" x="2652.5" y="-128" font-family="Helvetica,sans-Serif" font-size="10.00">_th_ball_class.s</text>
</a>
</g>
</g>
<!-- Node1&#45;&gt;Node22 -->
<g id="edge22" class="edge">
<title>Node1&#45;&gt;Node22</title>
<path fill="none" stroke="#63b8ff" d="M2285.97,-218.49C2355.12,-212.4 2472.66,-199.43 2581.66,-173.23"/>
<polygon fill="#63b8ff" stroke="#63b8ff" points="2582.17,-176.71 2591.05,-170.93 2580.5,-169.91 2582.17,-176.71"/>
</g>
<!-- Node23 -->
<g id="node23" class="node">
<title>Node23</title>
<g id="a_node23"><a xlink:title=" ">
<polygon fill="#e0e0e0" stroke="#999999" points="2849,-173 2730,-173 2730,-121 2849,-121 2849,-173"/>
<text text-anchor="start" x="2738" y="-161" font-family="Helvetica,sans-Serif" font-size="10.00">asm/rel/d/a/e/d_a_e</text>
<text text-anchor="start" x="2738" y="-150" font-family="Helvetica,sans-Serif" font-size="10.00">_th_ball/d_a_e_th_ball</text>
<text text-anchor="start" x="2738" y="-139" font-family="Helvetica,sans-Serif" font-size="10.00">/action__FP15e_th_ball</text>
<text text-anchor="middle" x="2789.5" y="-128" font-family="Helvetica,sans-Serif" font-size="10.00">_class.s</text>
</a>
</g>
</g>
<!-- Node1&#45;&gt;Node23 -->
<g id="edge23" class="edge">
<title>Node1&#45;&gt;Node23</title>
<path fill="none" stroke="#63b8ff" d="M2285.95,-221.8C2377.58,-218.92 2558.68,-209.05 2718.68,-173.42"/>
<polygon fill="#63b8ff" stroke="#63b8ff" points="2719.23,-176.88 2728.2,-171.26 2717.68,-170.06 2719.23,-176.88"/>
</g>
<!-- Node24 -->
<g id="node24" class="node">
<title>Node24</title>
<g id="a_node24"><a xlink:title=" ">
<polygon fill="#e0e0e0" stroke="#999999" points="3002,-173 2867,-173 2867,-121 3002,-121 3002,-173"/>
<text text-anchor="start" x="2875" y="-161" font-family="Helvetica,sans-Serif" font-size="10.00">asm/rel/d/a/e/d_a_e</text>
<text text-anchor="start" x="2875" y="-150" font-family="Helvetica,sans-Serif" font-size="10.00">_th_ball/d_a_e_th_ball</text>
<text text-anchor="start" x="2875" y="-139" font-family="Helvetica,sans-Serif" font-size="10.00">/get_demo__FP15e_th_ball</text>
<text text-anchor="middle" x="2934.5" y="-128" font-family="Helvetica,sans-Serif" font-size="10.00">_class.s</text>
</a>
</g>
</g>
<!-- Node1&#45;&gt;Node24 -->
<g id="edge24" class="edge">
<title>Node1&#45;&gt;Node24</title>
<path fill="none" stroke="#63b8ff" d="M2285.96,-223C2396.83,-221.99 2642.47,-214.95 2855.67,-173.37"/>
<polygon fill="#63b8ff" stroke="#63b8ff" points="2856.15,-176.84 2865.28,-171.46 2854.79,-169.98 2856.15,-176.84"/>
</g>
<!-- Node25 -->
<g id="node25" class="node">
<title>Node25</title>
<g id="a_node25"><a xlink:title=" ">
<polygon fill="#e0e0e0" stroke="#999999" points="3151,-173 3020,-173 3020,-121 3151,-121 3151,-173"/>
<text text-anchor="start" x="3028" y="-161" font-family="Helvetica,sans-Serif" font-size="10.00">asm/rel/d/a/e/d_a_e</text>
<text text-anchor="start" x="3028" y="-150" font-family="Helvetica,sans-Serif" font-size="10.00">_th_ball/d_a_e_th_ball</text>
<text text-anchor="start" x="3028" y="-139" font-family="Helvetica,sans-Serif" font-size="10.00">/daE_TH_BALL_Execute_</text>
<text text-anchor="middle" x="3085.5" y="-128" font-family="Helvetica,sans-Serif" font-size="10.00">_FP15e_th_ball_class.s</text>
</a>
</g>
</g>
<!-- Node1&#45;&gt;Node25 -->
<g id="edge25" class="edge">
<title>Node1&#45;&gt;Node25</title>
<path fill="none" stroke="#63b8ff" d="M2285.95,-221.23C2440.27,-216.32 2851.9,-201.14 3008.31,-173.34"/>
<polygon fill="#63b8ff" stroke="#63b8ff" points="3008.9,-176.79 3018.08,-171.51 3007.61,-169.91 3008.9,-176.79"/>
</g>
<!-- Node26 -->
<g id="node26" class="node">
<title>Node26</title>
<g id="a_node26"><a xlink:title=" ">
<polygon fill="#e0e0e0" stroke="#999999" points="3327.5,-173 3169.5,-173 3169.5,-121 3327.5,-121 3327.5,-173"/>
<text text-anchor="start" x="3177.5" y="-161" font-family="Helvetica,sans-Serif" font-size="10.00">asm/rel/d/a/e/d_a_e</text>
<text text-anchor="start" x="3177.5" y="-150" font-family="Helvetica,sans-Serif" font-size="10.00">_th_ball/d_a_e_th_ball</text>
<text text-anchor="start" x="3177.5" y="-139" font-family="Helvetica,sans-Serif" font-size="10.00">/daE_TH_BALL_Delete__FP15e</text>
<text text-anchor="middle" x="3248.5" y="-128" font-family="Helvetica,sans-Serif" font-size="10.00">_th_ball_class.s</text>
</a>
</g>
</g>
<!-- Node1&#45;&gt;Node26 -->
<g id="edge26" class="edge">
<title>Node1&#45;&gt;Node26</title>
<path fill="none" stroke="#63b8ff" d="M2286,-221.55C2460.54,-217.03 2970.15,-201.85 3157.95,-173.2"/>
<polygon fill="#63b8ff" stroke="#63b8ff" points="3158.24,-176.7 3167.56,-171.67 3157.13,-169.79 3158.24,-176.7"/>
</g>
<!-- Node27 -->
<g id="node27" class="node">
<title>Node27</title>
<g id="a_node27"><a xlink:title=" ">
<polygon fill="#e0e0e0" stroke="#999999" points="3477,-173 3346,-173 3346,-121 3477,-121 3477,-173"/>
<text text-anchor="start" x="3354" y="-161" font-family="Helvetica,sans-Serif" font-size="10.00">asm/rel/d/a/e/d_a_e</text>
<text text-anchor="start" x="3354" y="-150" font-family="Helvetica,sans-Serif" font-size="10.00">_th_ball/d_a_e_th_ball</text>
<text text-anchor="start" x="3354" y="-139" font-family="Helvetica,sans-Serif" font-size="10.00">/useHeapInit__FP10fopAc</text>
<text text-anchor="middle" x="3411.5" y="-128" font-family="Helvetica,sans-Serif" font-size="10.00">_ac_c.s</text>
</a>
</g>
</g>
<!-- Node1&#45;&gt;Node27 -->
<g id="edge27" class="edge">
<title>Node1&#45;&gt;Node27</title>
<path fill="none" stroke="#63b8ff" d="M2285.71,-222.49C2481.86,-220.46 3110.15,-211.23 3334.19,-173.11"/>
<polygon fill="#63b8ff" stroke="#63b8ff" points="3334.79,-176.56 3344.02,-171.36 3333.56,-169.67 3334.79,-176.56"/>
</g>
<!-- Node28 -->
<g id="node28" class="node">
<title>Node28</title>
<g id="a_node28"><a xlink:title=" ">
<polygon fill="#e0e0e0" stroke="#999999" points="3662,-173 3495,-173 3495,-121 3662,-121 3662,-173"/>
<text text-anchor="start" x="3503" y="-161" font-family="Helvetica,sans-Serif" font-size="10.00">asm/rel/d/a/e/d_a_e</text>
<text text-anchor="start" x="3503" y="-150" font-family="Helvetica,sans-Serif" font-size="10.00">_th_ball/d_a_e_th_ball</text>
<text text-anchor="start" x="3503" y="-139" font-family="Helvetica,sans-Serif" font-size="10.00">/daE_TH_BALL_Create__FP10fop</text>
<text text-anchor="middle" x="3578.5" y="-128" font-family="Helvetica,sans-Serif" font-size="10.00">Ac_ac_c.s</text>
</a>
</g>
</g>
<!-- Node1&#45;&gt;Node28 -->
<g id="edge28" class="edge">
<title>Node1&#45;&gt;Node28</title>
<path fill="none" stroke="#63b8ff" d="M2285.96,-222.42C2499.6,-220.05 3228.85,-209.56 3483.64,-173.25"/>
<polygon fill="#63b8ff" stroke="#63b8ff" points="3483.81,-176.76 3493.19,-171.83 3482.78,-169.84 3483.81,-176.76"/>
</g>
<!-- Node29 -->
<g id="node29" class="node">
<title>Node29</title>
<g id="a_node29"><a xlink:title=" ">
<polygon fill="#e0e0e0" stroke="#999999" points="3826.5,-167.5 3680.5,-167.5 3680.5,-126.5 3826.5,-126.5 3826.5,-167.5"/>
<text text-anchor="start" x="3688.5" y="-155.5" font-family="Helvetica,sans-Serif" font-size="10.00">asm/rel/d/a/e/d_a_e</text>
<text text-anchor="start" x="3688.5" y="-144.5" font-family="Helvetica,sans-Serif" font-size="10.00">_th_ball/d_a_e_th_ball</text>
<text text-anchor="middle" x="3753.5" y="-133.5" font-family="Helvetica,sans-Serif" font-size="10.00">/__ct__15e_th_ball_classFv.s</text>
</a>
</g>
</g>
<!-- Node1&#45;&gt;Node29 -->
<g id="edge29" class="edge">
<title>Node1&#45;&gt;Node29</title>
<path fill="none" stroke="#63b8ff" d="M2285.6,-223.01C2521.78,-222.73 3398.21,-218.58 3671.5,-173 3675.56,-172.32 3679.69,-171.5 3683.84,-170.57"/>
<polygon fill="#63b8ff" stroke="#63b8ff" points="3684.46,-174.03 3693.35,-168.26 3682.8,-167.23 3684.46,-174.03"/>
</g>
<!-- Node30 -->
<g id="node30" class="node">
<title>Node30</title>
<g id="a_node30"><a xlink:title=" ">
<polygon fill="#e0e0e0" stroke="#999999" points="3966.5,-167.5 3844.5,-167.5 3844.5,-126.5 3966.5,-126.5 3966.5,-167.5"/>
<text text-anchor="start" x="3852.5" y="-155.5" font-family="Helvetica,sans-Serif" font-size="10.00">asm/rel/d/a/e/d_a_e</text>
<text text-anchor="start" x="3852.5" y="-144.5" font-family="Helvetica,sans-Serif" font-size="10.00">_th_ball/d_a_e_th_ball</text>
<text text-anchor="middle" x="3905.5" y="-133.5" font-family="Helvetica,sans-Serif" font-size="10.00">/__dt__8cM3dGSphFv.s</text>
</a>
</g>
</g>
<!-- Node1&#45;&gt;Node30 -->
<g id="edge30" class="edge">
<title>Node1&#45;&gt;Node30</title>
<path fill="none" stroke="#63b8ff" d="M2285.68,-222.25C2557.68,-218.67 3681.21,-202.2 3835.5,-173 3838.49,-172.43 3841.52,-171.76 3844.56,-171.01"/>
<polygon fill="#63b8ff" stroke="#63b8ff" points="3845.4,-174.4 3854.09,-168.35 3843.52,-167.66 3845.4,-174.4"/>
</g>
<!-- Node31 -->
<g id="node31" class="node">
<title>Node31</title>
<g id="a_node31"><a xlink:title=" ">
<polygon fill="#e0e0e0" stroke="#999999" points="4106.5,-167.5 3984.5,-167.5 3984.5,-126.5 4106.5,-126.5 4106.5,-167.5"/>
<text text-anchor="start" x="3992.5" y="-155.5" font-family="Helvetica,sans-Serif" font-size="10.00">asm/rel/d/a/e/d_a_e</text>
<text text-anchor="start" x="3992.5" y="-144.5" font-family="Helvetica,sans-Serif" font-size="10.00">_th_ball/d_a_e_th_ball</text>
<text text-anchor="middle" x="4045.5" y="-133.5" font-family="Helvetica,sans-Serif" font-size="10.00">/__dt__8cM3dGAabFv.s</text>
</a>
</g>
</g>
<!-- Node1&#45;&gt;Node31 -->
<g id="edge31" class="edge">
<title>Node1&#45;&gt;Node31</title>
<path fill="none" stroke="#63b8ff" d="M2285.98,-222.41C2572.87,-219.4 3806.82,-204.71 3975.5,-173 3978.49,-172.44 3981.52,-171.77 3984.56,-171.01"/>
<polygon fill="#63b8ff" stroke="#63b8ff" points="3985.4,-174.41 3994.1,-168.37 3983.52,-167.67 3985.4,-174.41"/>
</g>
<!-- Node32 -->
<g id="node32" class="node">
<title>Node32</title>
<g id="a_node32"><a xlink:title=" ">
<polygon fill="#e0e0e0" stroke="#999999" points="4270,-167.5 4125,-167.5 4125,-126.5 4270,-126.5 4270,-167.5"/>
<text text-anchor="start" x="4133" y="-155.5" font-family="Helvetica,sans-Serif" font-size="10.00">asm/rel/d/a/e/d_a_e</text>
<text text-anchor="start" x="4133" y="-144.5" font-family="Helvetica,sans-Serif" font-size="10.00">_th_ball/d_a_e_th_ball</text>
<text text-anchor="middle" x="4197.5" y="-133.5" font-family="Helvetica,sans-Serif" font-size="10.00">/__dt__12dBgS_ObjAcchFv.s</text>
</a>
</g>
</g>
<!-- Node1&#45;&gt;Node32 -->
<g id="edge32" class="edge">
<title>Node1&#45;&gt;Node32</title>
<path fill="none" stroke="#63b8ff" d="M2285.66,-222.38C2585.64,-219.12 3931.53,-202.91 4115.5,-173 4119.56,-172.34 4123.7,-171.53 4127.85,-170.61"/>
<polygon fill="#63b8ff" stroke="#63b8ff" points="4128.46,-174.07 4137.36,-168.31 4126.81,-167.26 4128.46,-174.07"/>
</g>
<!-- Node33 -->
<g id="node33" class="node">
<title>Node33</title>
<g id="a_node33"><a xlink:title=" ">
<polygon fill="#e0e0e0" stroke="#999999" points="4401,-167.5 4288,-167.5 4288,-126.5 4401,-126.5 4401,-167.5"/>
<text text-anchor="start" x="4296" y="-155.5" font-family="Helvetica,sans-Serif" font-size="10.00">asm/rel/d/a/e/d_a_e</text>
<text text-anchor="start" x="4296" y="-144.5" font-family="Helvetica,sans-Serif" font-size="10.00">_th_ball/d_a_e_th_ball</text>
<text text-anchor="middle" x="4344.5" y="-133.5" font-family="Helvetica,sans-Serif" font-size="10.00">/__dt__5csXyzFv.s</text>
</a>
</g>
</g>
<!-- Node1&#45;&gt;Node33 -->
<g id="edge33" class="edge">
<title>Node1&#45;&gt;Node33</title>
<path fill="none" stroke="#63b8ff" d="M2285.82,-222.76C2601.77,-221.34 4079.78,-212.61 4279.5,-173 4282.1,-172.48 4284.73,-171.87 4287.37,-171.19"/>
<polygon fill="#63b8ff" stroke="#63b8ff" points="4288.15,-174.61 4296.75,-168.42 4286.17,-167.89 4288.15,-174.61"/>
</g>
<!-- Node34 -->
<g id="node34" class="node">
<title>Node34</title>
<g id="a_node34"><a xlink:title=" ">
<polygon fill="#e0e0e0" stroke="#999999" points="4532,-167.5 4419,-167.5 4419,-126.5 4532,-126.5 4532,-167.5"/>
<text text-anchor="start" x="4427" y="-155.5" font-family="Helvetica,sans-Serif" font-size="10.00">asm/rel/d/a/e/d_a_e</text>
<text text-anchor="start" x="4427" y="-144.5" font-family="Helvetica,sans-Serif" font-size="10.00">_th_ball/d_a_e_th_ball</text>
<text text-anchor="middle" x="4475.5" y="-133.5" font-family="Helvetica,sans-Serif" font-size="10.00">/func_807B7EA0.s</text>
</a>
</g>
</g>
<!-- Node1&#45;&gt;Node34 -->
<g id="edge34" class="edge">
<title>Node1&#45;&gt;Node34</title>
<path fill="none" stroke="#63b8ff" d="M2285.8,-222.86C2613.65,-221.9 4197.2,-215.14 4410.5,-173 4413.15,-172.48 4415.84,-171.85 4418.53,-171.15"/>
<polygon fill="#63b8ff" stroke="#63b8ff" points="4419.52,-174.51 4428.11,-168.32 4417.53,-167.8 4419.52,-174.51"/>
</g>
<!-- Node35 -->
<g id="node35" class="node">
<title>Node35</title>
<g id="a_node35"><a xlink:title=" ">
<polygon fill="#e0e0e0" stroke="#999999" points="4663,-167.5 4550,-167.5 4550,-126.5 4663,-126.5 4663,-167.5"/>
<text text-anchor="start" x="4558" y="-155.5" font-family="Helvetica,sans-Serif" font-size="10.00">asm/rel/d/a/e/d_a_e</text>
<text text-anchor="start" x="4558" y="-144.5" font-family="Helvetica,sans-Serif" font-size="10.00">_th_ball/d_a_e_th_ball</text>
<text text-anchor="middle" x="4606.5" y="-133.5" font-family="Helvetica,sans-Serif" font-size="10.00">/func_807B7EA8.s</text>
</a>
</g>
</g>
<!-- Node1&#45;&gt;Node35 -->
<g id="edge35" class="edge">
<title>Node1&#45;&gt;Node35</title>
<path fill="none" stroke="#63b8ff" d="M2285.99,-222.94C2625.87,-222.43 4314.64,-217.66 4541.5,-173 4544.15,-172.48 4546.84,-171.86 4549.53,-171.16"/>
<polygon fill="#63b8ff" stroke="#63b8ff" points="4550.52,-174.51 4559.11,-168.32 4548.53,-167.8 4550.52,-174.51"/>
</g>
<!-- Node2&#45;&gt;Node3 -->
<g id="edge2" class="edge">
<title>Node2&#45;&gt;Node3</title>
<path fill="none" stroke="#63b8ff" d="M62,-131.6C68.25,-120.99 76.81,-106.48 83.58,-95.02"/>
<polygon fill="#63b8ff" stroke="#63b8ff" points="86.54,-96.87 88.61,-86.48 80.52,-93.32 86.54,-96.87"/>
</g>
<!-- Node4 -->
<g id="node4" class="node">
<title>Node4</title>
<g id="a_node4"><a xlink:href="stddef_8h.html" target="_top" xlink:title=" ">
<polygon fill="white" stroke="#666666" points="162.5,-30 26.5,-30 26.5,0 162.5,0 162.5,-30"/>
<text text-anchor="start" x="34.5" y="-18" font-family="Helvetica,sans-Serif" font-size="10.00">MSL_C/MSL_Common/Src</text>
<text text-anchor="middle" x="94.5" y="-7" font-family="Helvetica,sans-Serif" font-size="10.00">/stddef.h</text>
</a>
</g>
</g>
<!-- Node3&#45;&gt;Node4 -->
<g id="edge3" class="edge">
<title>Node3&#45;&gt;Node4</title>
<path fill="none" stroke="#63b8ff" d="M94.5,-65.87C94.5,-59.4 94.5,-50.2 94.5,-41.45"/>
<polygon fill="#63b8ff" stroke="#63b8ff" points="98,-41.63 94.5,-31.63 91,-41.63 98,-41.63"/>
</g>
</g>
</svg>
        <g id="navigator" transform="translate(0 0)" fill="#404254">
                <rect fill="#f2f5e9" fill-opacity="0.5" stroke="#606060" stroke-width=".5" x="0" y="0" width="60" height="60"/>
                <use id="zoomplus" xlink:href="#zoomPlus" x="17" y="9" onmousedown="handleZoom(evt,'in')"/>
                <use id="zoomminus" xlink:href="#zoomMin" x="42" y="9" onmousedown="handleZoom(evt,'out')"/>
                <use id="reset" xlink:href="#resetDef" x="30" y="36" onmousedown="handleReset()"/>
                <g id="arrowUp" xlink:href="#dirArrow" transform="translate(30 24)" onmousedown="handlePan(0,-1)">
                  <use xlink:href="#rim" fill="#404040">
                        <set attributeName="fill" to="#808080" begin="arrowUp.mouseover" end="arrowUp.mouseout"/>
                  </use>
                  <path fill="none" stroke="white" stroke-width="1.5" d="M0,-3.0v7 M-2.5,-0.5L0,-3.0L2.5,-0.5"/>
                </g>
                <g id="arrowRight" xlink:href="#dirArrow" transform="rotate(90) translate(36 -43)" onmousedown="handlePan(1,0)">
                  <use xlink:href="#rim" fill="#404040">
                        <set attributeName="fill" to="#808080" begin="arrowRight.mouseover" end="arrowRight.mouseout"/>
                  </use>
                  <path fill="none" stroke="white" stroke-width="1.5" d="M0,-3.0v7 M-2.5,-0.5L0,-3.0L2.5,-0.5"/>
                </g>
                <g id="arrowDown" xlink:href="#dirArrow" transform="rotate(180) translate(-30 -48)" onmousedown="handlePan(0,1)">
                  <use xlink:href="#rim" fill="#404040">
                        <set attributeName="fill" to="#808080" begin="arrowDown.mouseover" end="arrowDown.mouseout"/>
                  </use>
                  <path fill="none" stroke="white" stroke-width="1.5" d="M0,-3.0v7 M-2.5,-0.5L0,-3.0L2.5,-0.5"/>
                </g>
                <g id="arrowLeft" xlink:href="#dirArrow" transform="rotate(270) translate(-36 17)" onmousedown="handlePan(-1,0)">
                  <use xlink:href="#rim" fill="#404040">
                        <set attributeName="fill" to="#808080" begin="arrowLeft.mouseover" end="arrowLeft.mouseout"/>
                  </use>
                  <path fill="none" stroke="white" stroke-width="1.5" d="M0,-3.0v7 M-2.5,-0.5L0,-3.0L2.5,-0.5"/>
                </g>
        </g>
        <svg viewBox="0 0 15 15" width="100%" height="30px" preserveAspectRatio="xMaxYMin meet">
         <g id="arrow_out" transform="scale(0.3 0.3)">
          <a xlink:href="d__a__e__th__ball_8cpp__incl_org.svg" target="_base">
           <rect id="button" ry="5" rx="5" y="6" x="6" height="38" width="38"
                fill="#f2f5e9" fill-opacity="0.5" stroke="#606060" stroke-width="1.0"/>
           <path id="arrow"
             d="M 11.500037,31.436501 C 11.940474,20.09759 22.043105,11.32322 32.158766,21.979434 L 37.068811,17.246167 C 37.068811,17.246167 37.088388,32 37.088388,32 L 22.160133,31.978069 C 22.160133,31.978069 26.997745,27.140456 26.997745,27.140456 C 18.528582,18.264221 13.291696,25.230495 11.500037,31.436501 z"
             style="fill:#404040;"/>
          </a>
         </g>
        </svg>
</svg>
