<?xml version="1.0" encoding="UTF-8" standalone="no"?>
<!DOCTYPE svg PUBLIC "-//W3C//DTD SVG 1.1//EN"
 "http://www.w3.org/Graphics/SVG/1.1/DTD/svg11.dtd">
<!-- Generated by graphviz version 7.0.5 (20221223.1930)
 -->
<!-- Title: rel/d/a/obj/d_a_obj_pdoor/d_a_obj_pdoor.cpp Pages: 1 -->
<svg width="3466pt" height="258pt"
 viewBox="0.00 0.00 3465.50 258.00" xmlns="http://www.w3.org/2000/svg" xmlns:xlink="http://www.w3.org/1999/xlink">
<g id="graph0" class="graph" transform="scale(1 1) rotate(0) translate(4 254)">
<title>rel/d/a/obj/d_a_obj_pdoor/d_a_obj_pdoor.cpp</title>
<!-- Node1 -->
<g id="node1" class="node">
<title>Node1</title>
<g id="a_node1"><a xlink:title=" ">
<polygon fill="#999999" stroke="#666666" points="1670.5,-250 1540.5,-250 1540.5,-220 1670.5,-220 1670.5,-250"/>
<text text-anchor="start" x="1548.5" y="-238" font-family="Helvetica,sans-Serif" font-size="10.00">rel/d/a/obj/d_a_obj</text>
<text text-anchor="middle" x="1605.5" y="-227" font-family="Helvetica,sans-Serif" font-size="10.00">_pdoor/d_a_obj_pdoor.cpp</text>
</a>
</g>
</g>
<!-- Node2 -->
<g id="node2" class="node">
<title>Node2</title>
<g id="a_node2"><a xlink:href="d__a__obj__pdoor_8h.html" target="_top" xlink:title=" ">
<polygon fill="white" stroke="#666666" points="119,-167.5 0,-167.5 0,-137.5 119,-137.5 119,-167.5"/>
<text text-anchor="start" x="8" y="-155.5" font-family="Helvetica,sans-Serif" font-size="10.00">rel/d/a/obj/d_a_obj</text>
<text text-anchor="middle" x="59.5" y="-144.5" font-family="Helvetica,sans-Serif" font-size="10.00">_pdoor/d_a_obj_pdoor.h</text>
</a>
</g>
</g>
<!-- Node1&#45;&gt;Node2 -->
<g id="edge1" class="edge">
<title>Node1&#45;&gt;Node2</title>
<path fill="none" stroke="#63b8ff" d="M1540.04,-233.15C1272.79,-229.48 271.91,-213.86 133.5,-184 121.66,-181.45 109.31,-177.1 98.16,-172.47"/>
<polygon fill="#63b8ff" stroke="#63b8ff" points="99.85,-169.39 89.29,-168.6 97.06,-175.81 99.85,-169.39"/>
</g>
<!-- Node3 -->
<g id="node3" class="node">
<title>Node3</title>
<g id="a_node3"><a xlink:href="types_8h.html" target="_top" xlink:title=" ">
<polygon fill="white" stroke="#666666" points="144,-85 63,-85 63,-66 144,-66 144,-85"/>
<text text-anchor="middle" x="103.5" y="-73" font-family="Helvetica,sans-Serif" font-size="10.00">dolphin/types.h</text>
</a>
</g>
</g>
<!-- Node1&#45;&gt;Node3 -->
<g id="edge5" class="edge">
<title>Node1&#45;&gt;Node3</title>
<path fill="none" stroke="#63b8ff" d="M1540.22,-233.46C1267.08,-231 227.23,-219.34 167.5,-184 163.13,-181.41 130.98,-125.23 113.98,-95.14"/>
<polygon fill="#63b8ff" stroke="#63b8ff" points="117.18,-93.7 109.22,-86.7 111.09,-97.13 117.18,-93.7"/>
</g>
<!-- Node5 -->
<g id="node5" class="node">
<title>Node5</title>
<g id="a_node5"><a xlink:href="dol2asm_8h.html" target="_top" xlink:title=" ">
<polygon fill="white" stroke="#666666" points="237,-162 176,-162 176,-143 237,-143 237,-162"/>
<text text-anchor="middle" x="206.5" y="-150" font-family="Helvetica,sans-Serif" font-size="10.00">dol2asm.h</text>
</a>
</g>
</g>
<!-- Node1&#45;&gt;Node5 -->
<g id="edge4" class="edge">
<title>Node1&#45;&gt;Node5</title>
<path fill="none" stroke="#63b8ff" d="M1540.12,-233.91C1285.58,-233.25 368.81,-227.83 246.5,-184 237.91,-180.92 229.67,-175.27 222.92,-169.67"/>
<polygon fill="#63b8ff" stroke="#63b8ff" points="225.64,-167.41 215.88,-163.31 220.95,-172.61 225.64,-167.41"/>
</g>
<!-- Node6 -->
<g id="node6" class="node">
<title>Node6</title>
<g id="a_node6"><a xlink:title=" ">
<polygon fill="#e0e0e0" stroke="#999999" points="416,-184 255,-184 255,-121 416,-121 416,-184"/>
<text text-anchor="start" x="263" y="-172" font-family="Helvetica,sans-Serif" font-size="10.00">asm/rel/d/a/obj/d_a</text>
<text text-anchor="start" x="263" y="-161" font-family="Helvetica,sans-Serif" font-size="10.00">_obj_pdoor/d_a_obj_pdoor</text>
<text text-anchor="start" x="263" y="-150" font-family="Helvetica,sans-Serif" font-size="10.00">/PPCallBack__FP10fopAc</text>
<text text-anchor="start" x="263" y="-139" font-family="Helvetica,sans-Serif" font-size="10.00">_ac_cP10fopAc_ac_csQ29dBgW</text>
<text text-anchor="middle" x="335.5" y="-128" font-family="Helvetica,sans-Serif" font-size="10.00">_Base13PushPullLabel.s</text>
</a>
</g>
</g>
<!-- Node1&#45;&gt;Node6 -->
<g id="edge6" class="edge">
<title>Node1&#45;&gt;Node6</title>
<path fill="none" stroke="#63b8ff" d="M1540.32,-233.67C1329.07,-232.23 663.84,-224.65 427.43,-184.06"/>
<polygon fill="#63b8ff" stroke="#63b8ff" points="428.11,-180.63 417.65,-182.31 426.88,-187.52 428.11,-180.63"/>
</g>
<!-- Node7 -->
<g id="node7" class="node">
<title>Node7</title>
<g id="a_node7"><a xlink:title=" ">
<polygon fill="#e0e0e0" stroke="#999999" points="607,-173 434,-173 434,-132 607,-132 607,-173"/>
<text text-anchor="start" x="442" y="-161" font-family="Helvetica,sans-Serif" font-size="10.00">asm/rel/d/a/obj/d_a</text>
<text text-anchor="start" x="442" y="-150" font-family="Helvetica,sans-Serif" font-size="10.00">_obj_pdoor/d_a_obj_pdoor</text>
<text text-anchor="middle" x="520.5" y="-139" font-family="Helvetica,sans-Serif" font-size="10.00">/initBaseMtx__12daObjPDoor_cFv.s</text>
</a>
</g>
</g>
<!-- Node1&#45;&gt;Node7 -->
<g id="edge7" class="edge">
<title>Node1&#45;&gt;Node7</title>
<path fill="none" stroke="#63b8ff" d="M1540.09,-232.88C1349.13,-229.28 794.66,-216.25 616.5,-184 606.45,-182.18 596,-179.61 585.84,-176.71"/>
<polygon fill="#63b8ff" stroke="#63b8ff" points="587,-173.41 576.42,-173.9 585,-180.12 587,-173.41"/>
</g>
<!-- Node8 -->
<g id="node8" class="node">
<title>Node8</title>
<g id="a_node8"><a xlink:title=" ">
<polygon fill="#e0e0e0" stroke="#999999" points="799.5,-173 625.5,-173 625.5,-132 799.5,-132 799.5,-173"/>
<text text-anchor="start" x="633.5" y="-161" font-family="Helvetica,sans-Serif" font-size="10.00">asm/rel/d/a/obj/d_a</text>
<text text-anchor="start" x="633.5" y="-150" font-family="Helvetica,sans-Serif" font-size="10.00">_obj_pdoor/d_a_obj_pdoor</text>
<text text-anchor="middle" x="712.5" y="-139" font-family="Helvetica,sans-Serif" font-size="10.00">/setBaseMtx__12daObjPDoor_cFv.s</text>
</a>
</g>
</g>
<!-- Node1&#45;&gt;Node8 -->
<g id="edge8" class="edge">
<title>Node1&#45;&gt;Node8</title>
<path fill="none" stroke="#63b8ff" d="M1540.23,-231.93C1376.05,-226.41 949.13,-209.94 809.5,-184 799.43,-182.13 788.94,-179.54 778.75,-176.65"/>
<polygon fill="#63b8ff" stroke="#63b8ff" points="779.86,-173.33 769.28,-173.85 777.87,-180.05 779.86,-173.33"/>
</g>
<!-- Node9 -->
<g id="node9" class="node">
<title>Node9</title>
<g id="a_node9"><a xlink:title=" ">
<polygon fill="#e0e0e0" stroke="#999999" points="969,-173 818,-173 818,-132 969,-132 969,-173"/>
<text text-anchor="start" x="826" y="-161" font-family="Helvetica,sans-Serif" font-size="10.00">asm/rel/d/a/obj/d_a</text>
<text text-anchor="start" x="826" y="-150" font-family="Helvetica,sans-Serif" font-size="10.00">_obj_pdoor/d_a_obj_pdoor</text>
<text text-anchor="middle" x="893.5" y="-139" font-family="Helvetica,sans-Serif" font-size="10.00">/Create__12daObjPDoor_cFv.s</text>
</a>
</g>
</g>
<!-- Node1&#45;&gt;Node9 -->
<g id="edge9" class="edge">
<title>Node1&#45;&gt;Node9</title>
<path fill="none" stroke="#63b8ff" d="M1540.14,-234.44C1425.21,-233.97 1180,-227.38 978.5,-184 970.19,-182.21 961.58,-179.81 953.18,-177.14"/>
<polygon fill="#63b8ff" stroke="#63b8ff" points="954.33,-173.83 943.73,-173.98 952.11,-180.47 954.33,-173.83"/>
</g>
<!-- Node10 -->
<g id="node10" class="node">
<title>Node10</title>
<g id="a_node10"><a xlink:title=" ">
<polygon fill="#e0e0e0" stroke="#999999" points="1161.5,-173 987.5,-173 987.5,-132 1161.5,-132 1161.5,-173"/>
<text text-anchor="start" x="995.5" y="-161" font-family="Helvetica,sans-Serif" font-size="10.00">asm/rel/d/a/obj/d_a</text>
<text text-anchor="start" x="995.5" y="-150" font-family="Helvetica,sans-Serif" font-size="10.00">_obj_pdoor/d_a_obj_pdoor</text>
<text text-anchor="middle" x="1074.5" y="-139" font-family="Helvetica,sans-Serif" font-size="10.00">/CreateHeap__12daObjPDoor_cFv.s</text>
</a>
</g>
</g>
<!-- Node1&#45;&gt;Node10 -->
<g id="edge10" class="edge">
<title>Node1&#45;&gt;Node10</title>
<path fill="none" stroke="#63b8ff" d="M1540.17,-230.35C1454.69,-224.7 1300.58,-211.47 1171.5,-184 1162.03,-181.98 1152.16,-179.43 1142.51,-176.67"/>
<polygon fill="#63b8ff" stroke="#63b8ff" points="1143.76,-173.39 1133.17,-173.9 1141.77,-180.1 1143.76,-173.39"/>
</g>
<!-- Node11 -->
<g id="node11" class="node">
<title>Node11</title>
<g id="a_node11"><a xlink:title=" ">
<polygon fill="#e0e0e0" stroke="#999999" points="1343,-173 1180,-173 1180,-132 1343,-132 1343,-173"/>
<text text-anchor="start" x="1188" y="-161" font-family="Helvetica,sans-Serif" font-size="10.00">asm/rel/d/a/obj/d_a</text>
<text text-anchor="start" x="1188" y="-150" font-family="Helvetica,sans-Serif" font-size="10.00">_obj_pdoor/d_a_obj_pdoor</text>
<text text-anchor="middle" x="1261.5" y="-139" font-family="Helvetica,sans-Serif" font-size="10.00">/create1st__12daObjPDoor_cFv.s</text>
</a>
</g>
</g>
<!-- Node1&#45;&gt;Node11 -->
<g id="edge11" class="edge">
<title>Node1&#45;&gt;Node11</title>
<path fill="none" stroke="#63b8ff" d="M1540.24,-223.48C1488.84,-214.62 1415.58,-200.73 1352.5,-184 1344.44,-181.86 1336.05,-179.39 1327.77,-176.81"/>
<polygon fill="#63b8ff" stroke="#63b8ff" points="1329.02,-173.53 1318.42,-173.81 1326.88,-180.2 1329.02,-173.53"/>
</g>
<!-- Node12 -->
<g id="node12" class="node">
<title>Node12</title>
<g id="a_node12"><a xlink:title=" ">
<polygon fill="#e0e0e0" stroke="#999999" points="1491.5,-178.5 1361.5,-178.5 1361.5,-126.5 1491.5,-126.5 1491.5,-178.5"/>
<text text-anchor="start" x="1369.5" y="-166.5" font-family="Helvetica,sans-Serif" font-size="10.00">asm/rel/d/a/obj/d_a</text>
<text text-anchor="start" x="1369.5" y="-155.5" font-family="Helvetica,sans-Serif" font-size="10.00">_obj_pdoor/d_a_obj_pdoor</text>
<text text-anchor="start" x="1369.5" y="-144.5" font-family="Helvetica,sans-Serif" font-size="10.00">/Execute__12daObjPDoor</text>
<text text-anchor="middle" x="1426.5" y="-133.5" font-family="Helvetica,sans-Serif" font-size="10.00">_cFPPA3_A4_f.s</text>
</a>
</g>
</g>
<!-- Node1&#45;&gt;Node12 -->
<g id="edge12" class="edge">
<title>Node1&#45;&gt;Node12</title>
<path fill="none" stroke="#63b8ff" d="M1573.5,-219.61C1551.3,-209.62 1520.91,-195.96 1493.52,-183.64"/>
<polygon fill="#63b8ff" stroke="#63b8ff" points="1495.13,-180.53 1484.57,-179.62 1492.26,-186.91 1495.13,-180.53"/>
</g>
<!-- Node13 -->
<g id="node13" class="node">
<title>Node13</title>
<g id="a_node13"><a xlink:title=" ">
<polygon fill="#e0e0e0" stroke="#999999" points="1701,-173 1510,-173 1510,-132 1701,-132 1701,-173"/>
<text text-anchor="start" x="1518" y="-161" font-family="Helvetica,sans-Serif" font-size="10.00">asm/rel/d/a/obj/d_a</text>
<text text-anchor="start" x="1518" y="-150" font-family="Helvetica,sans-Serif" font-size="10.00">_obj_pdoor/d_a_obj_pdoor</text>
<text text-anchor="middle" x="1605.5" y="-139" font-family="Helvetica,sans-Serif" font-size="10.00">/mode_proc_call__12daObjPDoor_cFv.s</text>
</a>
</g>
</g>
<!-- Node1&#45;&gt;Node13 -->
<g id="edge13" class="edge">
<title>Node1&#45;&gt;Node13</title>
<path fill="none" stroke="#63b8ff" d="M1605.5,-219.61C1605.5,-209.91 1605.5,-196.73 1605.5,-184.7"/>
<polygon fill="#63b8ff" stroke="#63b8ff" points="1609,-184.72 1605.5,-174.72 1602,-184.72 1609,-184.72"/>
</g>
<!-- Node14 -->
<g id="node14" class="node">
<title>Node14</title>
<g id="a_node14"><a xlink:title=" ">
<polygon fill="#e0e0e0" stroke="#999999" points="1903.5,-173 1719.5,-173 1719.5,-132 1903.5,-132 1903.5,-173"/>
<text text-anchor="start" x="1727.5" y="-161" font-family="Helvetica,sans-Serif" font-size="10.00">asm/rel/d/a/obj/d_a</text>
<text text-anchor="start" x="1727.5" y="-150" font-family="Helvetica,sans-Serif" font-size="10.00">_obj_pdoor/d_a_obj_pdoor</text>
<text text-anchor="middle" x="1811.5" y="-139" font-family="Helvetica,sans-Serif" font-size="10.00">/init_modeWait__12daObjPDoor_cFv.s</text>
</a>
</g>
</g>
<!-- Node1&#45;&gt;Node14 -->
<g id="edge14" class="edge">
<title>Node1&#45;&gt;Node14</title>
<path fill="none" stroke="#63b8ff" d="M1642.33,-219.61C1672.22,-207.93 1715,-191.21 1750.07,-177.51"/>
<polygon fill="#63b8ff" stroke="#63b8ff" points="1751.23,-180.81 1759.27,-173.91 1748.68,-174.29 1751.23,-180.81"/>
</g>
<!-- Node15 -->
<g id="node15" class="node">
<title>Node15</title>
<g id="a_node15"><a xlink:title=" ">
<polygon fill="#e0e0e0" stroke="#999999" points="2087.5,-173 1921.5,-173 1921.5,-132 2087.5,-132 2087.5,-173"/>
<text text-anchor="start" x="1929.5" y="-161" font-family="Helvetica,sans-Serif" font-size="10.00">asm/rel/d/a/obj/d_a</text>
<text text-anchor="start" x="1929.5" y="-150" font-family="Helvetica,sans-Serif" font-size="10.00">_obj_pdoor/d_a_obj_pdoor</text>
<text text-anchor="middle" x="2004.5" y="-139" font-family="Helvetica,sans-Serif" font-size="10.00">/modeWait__12daObjPDoor_cFv.s</text>
</a>
</g>
</g>
<!-- Node1&#45;&gt;Node15 -->
<g id="edge15" class="edge">
<title>Node1&#45;&gt;Node15</title>
<path fill="none" stroke="#63b8ff" d="M1670.79,-226.42C1733.35,-218.44 1830.16,-204.22 1912.5,-184 1920.89,-181.94 1929.61,-179.48 1938.2,-176.86"/>
<polygon fill="#63b8ff" stroke="#63b8ff" points="1939.03,-180.27 1947.52,-173.94 1936.93,-173.59 1939.03,-180.27"/>
</g>
<!-- Node16 -->
<g id="node16" class="node">
<title>Node16</title>
<g id="a_node16"><a xlink:title=" ">
<polygon fill="#e0e0e0" stroke="#999999" points="2299,-173 2106,-173 2106,-132 2299,-132 2299,-173"/>
<text text-anchor="start" x="2114" y="-161" font-family="Helvetica,sans-Serif" font-size="10.00">asm/rel/d/a/obj/d_a</text>
<text text-anchor="start" x="2114" y="-150" font-family="Helvetica,sans-Serif" font-size="10.00">_obj_pdoor/d_a_obj_pdoor</text>
<text text-anchor="middle" x="2202.5" y="-139" font-family="Helvetica,sans-Serif" font-size="10.00">/init_modeRotate__12daObjPDoor_cFv.s</text>
</a>
</g>
</g>
<!-- Node1&#45;&gt;Node16 -->
<g id="edge16" class="edge">
<title>Node1&#45;&gt;Node16</title>
<path fill="none" stroke="#63b8ff" d="M1670.77,-231.07C1765.35,-225.98 1945.7,-213.13 2096.5,-184 2107.22,-181.93 2118.42,-179.27 2129.35,-176.38"/>
<polygon fill="#63b8ff" stroke="#63b8ff" points="2129.98,-179.84 2138.71,-173.84 2128.14,-173.09 2129.98,-179.84"/>
</g>
<!-- Node17 -->
<g id="node17" class="node">
<title>Node17</title>
<g id="a_node17"><a xlink:title=" ">
<polygon fill="#e0e0e0" stroke="#999999" points="2492,-173 2317,-173 2317,-132 2492,-132 2492,-173"/>
<text text-anchor="start" x="2325" y="-161" font-family="Helvetica,sans-Serif" font-size="10.00">asm/rel/d/a/obj/d_a</text>
<text text-anchor="start" x="2325" y="-150" font-family="Helvetica,sans-Serif" font-size="10.00">_obj_pdoor/d_a_obj_pdoor</text>
<text text-anchor="middle" x="2404.5" y="-139" font-family="Helvetica,sans-Serif" font-size="10.00">/modeRotate__12daObjPDoor_cFv.s</text>
</a>
</g>
</g>
<!-- Node1&#45;&gt;Node17 -->
<g id="edge17" class="edge">
<title>Node1&#45;&gt;Node17</title>
<path fill="none" stroke="#63b8ff" d="M1670.62,-234.48C1795.51,-234.28 2076.87,-228.38 2308.5,-184 2318.4,-182.1 2328.71,-179.51 2338.74,-176.64"/>
<polygon fill="#63b8ff" stroke="#63b8ff" points="2339.46,-180.08 2348.04,-173.86 2337.46,-173.37 2339.46,-180.08"/>
</g>
<!-- Node18 -->
<g id="node18" class="node">
<title>Node18</title>
<g id="a_node18"><a xlink:title=" ">
<polygon fill="#e0e0e0" stroke="#999999" points="2655,-173 2510,-173 2510,-132 2655,-132 2655,-173"/>
<text text-anchor="start" x="2518" y="-161" font-family="Helvetica,sans-Serif" font-size="10.00">asm/rel/d/a/obj/d_a</text>
<text text-anchor="start" x="2518" y="-150" font-family="Helvetica,sans-Serif" font-size="10.00">_obj_pdoor/d_a_obj_pdoor</text>
<text text-anchor="middle" x="2582.5" y="-139" font-family="Helvetica,sans-Serif" font-size="10.00">/Draw__12daObjPDoor_cFv.s</text>
</a>
</g>
</g>
<!-- Node1&#45;&gt;Node18 -->
<g id="edge18" class="edge">
<title>Node1&#45;&gt;Node18</title>
<path fill="none" stroke="#63b8ff" d="M1670.82,-232.93C1849.36,-229.58 2342.77,-217.49 2501.5,-184 2509.68,-182.27 2518.13,-179.86 2526.34,-177.13"/>
<polygon fill="#63b8ff" stroke="#63b8ff" points="2527.26,-180.52 2535.54,-173.91 2524.94,-173.92 2527.26,-180.52"/>
</g>
<!-- Node19 -->
<g id="node19" class="node">
<title>Node19</title>
<g id="a_node19"><a xlink:title=" ">
<polygon fill="#e0e0e0" stroke="#999999" points="2823.5,-173 2673.5,-173 2673.5,-132 2823.5,-132 2823.5,-173"/>
<text text-anchor="start" x="2681.5" y="-161" font-family="Helvetica,sans-Serif" font-size="10.00">asm/rel/d/a/obj/d_a</text>
<text text-anchor="start" x="2681.5" y="-150" font-family="Helvetica,sans-Serif" font-size="10.00">_obj_pdoor/d_a_obj_pdoor</text>
<text text-anchor="middle" x="2748.5" y="-139" font-family="Helvetica,sans-Serif" font-size="10.00">/Delete__12daObjPDoor_cFv.s</text>
</a>
</g>
</g>
<!-- Node1&#45;&gt;Node19 -->
<g id="edge19" class="edge">
<title>Node1&#45;&gt;Node19</title>
<path fill="none" stroke="#63b8ff" d="M1670.94,-233.48C1871.07,-231.49 2472.97,-222.37 2664.5,-184 2673.06,-182.29 2681.91,-179.85 2690.51,-177.1"/>
<polygon fill="#63b8ff" stroke="#63b8ff" points="2691.46,-180.47 2699.81,-173.95 2689.21,-173.84 2691.46,-180.47"/>
</g>
<!-- Node20 -->
<g id="node20" class="node">
<title>Node20</title>
<g id="a_node20"><a xlink:title=" ">
<polygon fill="#e0e0e0" stroke="#999999" points="2971.5,-178.5 2841.5,-178.5 2841.5,-126.5 2971.5,-126.5 2971.5,-178.5"/>
<text text-anchor="start" x="2849.5" y="-166.5" font-family="Helvetica,sans-Serif" font-size="10.00">asm/rel/d/a/obj/d_a</text>
<text text-anchor="start" x="2849.5" y="-155.5" font-family="Helvetica,sans-Serif" font-size="10.00">_obj_pdoor/d_a_obj_pdoor</text>
<text text-anchor="start" x="2849.5" y="-144.5" font-family="Helvetica,sans-Serif" font-size="10.00">/daObjPDoor_create1st_</text>
<text text-anchor="middle" x="2906.5" y="-133.5" font-family="Helvetica,sans-Serif" font-size="10.00">_FP12daObjPDoor_c.s</text>
</a>
</g>
</g>
<!-- Node1&#45;&gt;Node20 -->
<g id="edge20" class="edge">
<title>Node1&#45;&gt;Node20</title>
<path fill="none" stroke="#63b8ff" d="M1670.68,-234.33C1891.19,-235 2607.98,-233.23 2832.5,-184 2834.93,-183.47 2837.37,-182.86 2839.83,-182.19"/>
<polygon fill="#63b8ff" stroke="#63b8ff" points="2840.6,-185.62 2849.15,-179.35 2838.56,-178.92 2840.6,-185.62"/>
</g>
<!-- Node21 -->
<g id="node21" class="node">
<title>Node21</title>
<g id="a_node21"><a xlink:title=" ">
<polygon fill="#e0e0e0" stroke="#999999" points="3133,-178.5 2990,-178.5 2990,-126.5 3133,-126.5 3133,-178.5"/>
<text text-anchor="start" x="2998" y="-166.5" font-family="Helvetica,sans-Serif" font-size="10.00">asm/rel/d/a/obj/d_a</text>
<text text-anchor="start" x="2998" y="-155.5" font-family="Helvetica,sans-Serif" font-size="10.00">_obj_pdoor/d_a_obj_pdoor</text>
<text text-anchor="start" x="2998" y="-144.5" font-family="Helvetica,sans-Serif" font-size="10.00">/daObjPDoor_MoveBGDelete</text>
<text text-anchor="middle" x="3061.5" y="-133.5" font-family="Helvetica,sans-Serif" font-size="10.00">__FP12daObjPDoor_c.s</text>
</a>
</g>
</g>
<!-- Node1&#45;&gt;Node21 -->
<g id="edge21" class="edge">
<title>Node1&#45;&gt;Node21</title>
<path fill="none" stroke="#63b8ff" d="M1670.93,-234.41C1908.56,-235.48 2725.37,-235.25 2980.5,-184 2983.44,-183.41 2986.41,-182.73 2989.39,-181.97"/>
<polygon fill="#63b8ff" stroke="#63b8ff" points="2990.06,-185.42 2998.74,-179.34 2988.16,-178.68 2990.06,-185.42"/>
</g>
<!-- Node22 -->
<g id="node22" class="node">
<title>Node22</title>
<g id="a_node22"><a xlink:title=" ">
<polygon fill="#e0e0e0" stroke="#999999" points="3301.5,-178.5 3151.5,-178.5 3151.5,-126.5 3301.5,-126.5 3301.5,-178.5"/>
<text text-anchor="start" x="3159.5" y="-166.5" font-family="Helvetica,sans-Serif" font-size="10.00">asm/rel/d/a/obj/d_a</text>
<text text-anchor="start" x="3159.5" y="-155.5" font-family="Helvetica,sans-Serif" font-size="10.00">_obj_pdoor/d_a_obj_pdoor</text>
<text text-anchor="start" x="3159.5" y="-144.5" font-family="Helvetica,sans-Serif" font-size="10.00">/daObjPDoor_MoveBGExecute</text>
<text text-anchor="middle" x="3226.5" y="-133.5" font-family="Helvetica,sans-Serif" font-size="10.00">__FP12daObjPDoor_c.s</text>
</a>
</g>
</g>
<!-- Node1&#45;&gt;Node22 -->
<g id="edge22" class="edge">
<title>Node1&#45;&gt;Node22</title>
<path fill="none" stroke="#63b8ff" d="M1670.54,-233.09C1944.46,-229.11 2996.76,-212.09 3142.5,-184 3145.64,-183.39 3148.82,-182.69 3152.02,-181.9"/>
<polygon fill="#63b8ff" stroke="#63b8ff" points="3152.69,-185.35 3161.42,-179.35 3150.85,-178.59 3152.69,-185.35"/>
</g>
<!-- Node23 -->
<g id="node23" class="node">
<title>Node23</title>
<g id="a_node23"><a xlink:title=" ">
<polygon fill="#e0e0e0" stroke="#999999" points="3457.5,-178.5 3319.5,-178.5 3319.5,-126.5 3457.5,-126.5 3457.5,-178.5"/>
<text text-anchor="start" x="3327.5" y="-166.5" font-family="Helvetica,sans-Serif" font-size="10.00">asm/rel/d/a/obj/d_a</text>
<text text-anchor="start" x="3327.5" y="-155.5" font-family="Helvetica,sans-Serif" font-size="10.00">_obj_pdoor/d_a_obj_pdoor</text>
<text text-anchor="start" x="3327.5" y="-144.5" font-family="Helvetica,sans-Serif" font-size="10.00">/daObjPDoor_MoveBGDraw</text>
<text text-anchor="middle" x="3388.5" y="-133.5" font-family="Helvetica,sans-Serif" font-size="10.00">__FP12daObjPDoor_c.s</text>
</a>
</g>
</g>
<!-- Node1&#45;&gt;Node23 -->
<g id="edge23" class="edge">
<title>Node1&#45;&gt;Node23</title>
<path fill="none" stroke="#63b8ff" d="M1670.65,-233.41C1963.16,-230.57 3147.91,-217.13 3310.5,-184 3313.14,-183.46 3315.82,-182.84 3318.5,-182.15"/>
<polygon fill="#63b8ff" stroke="#63b8ff" points="3319.42,-185.53 3328.06,-179.4 3317.49,-178.8 3319.42,-185.53"/>
</g>
<!-- Node2&#45;&gt;Node3 -->
<g id="edge2" class="edge">
<title>Node2&#45;&gt;Node3</title>
<path fill="none" stroke="#63b8ff" d="M67.98,-137.04C75.01,-125.07 85.03,-107.98 92.64,-95.01"/>
<polygon fill="#63b8ff" stroke="#63b8ff" points="95.54,-96.99 97.58,-86.59 89.5,-93.45 95.54,-96.99"/>
</g>
<!-- Node4 -->
<g id="node4" class="node">
<title>Node4</title>
<g id="a_node4"><a xlink:href="stddef_8h.html" target="_top" xlink:title=" ">
<polygon fill="white" stroke="#666666" points="171.5,-30 35.5,-30 35.5,0 171.5,0 171.5,-30"/>
<text text-anchor="start" x="43.5" y="-18" font-family="Helvetica,sans-Serif" font-size="10.00">MSL_C/MSL_Common/Src</text>
<text text-anchor="middle" x="103.5" y="-7" font-family="Helvetica,sans-Serif" font-size="10.00">/stddef.h</text>
</a>
</g>
</g>
<!-- Node3&#45;&gt;Node4 -->
<g id="edge3" class="edge">
<title>Node3&#45;&gt;Node4</title>
<path fill="none" stroke="#63b8ff" d="M103.5,-65.87C103.5,-59.4 103.5,-50.2 103.5,-41.45"/>
<polygon fill="#63b8ff" stroke="#63b8ff" points="107,-41.63 103.5,-31.63 100,-41.63 107,-41.63"/>
</g>
</g>
</svg>
