<?xml version="1.0" encoding="UTF-8" standalone="no"?>
<!DOCTYPE svg PUBLIC "-//W3C//DTD SVG 1.1//EN"
 "http://www.w3.org/Graphics/SVG/1.1/DTD/svg11.dtd">
<!-- Generated by graphviz version 7.0.5 (20221223.1930)
 -->
<!-- Title: rel/d/a/obj/d_a_obj_barDesk/d_a_obj_barDesk.cpp Pages: 1 -->
<svg width="4209pt" height="247pt"
 viewBox="0.00 0.00 4209.00 247.00" xmlns="http://www.w3.org/2000/svg" xmlns:xlink="http://www.w3.org/1999/xlink">
<g id="graph0" class="graph" transform="scale(1 1) rotate(0) translate(4 243)">
<title>rel/d/a/obj/d_a_obj_barDesk/d_a_obj_barDesk.cpp</title>
<!-- Node1 -->
<g id="node1" class="node">
<title>Node1</title>
<g id="a_node1"><a xlink:title=" ">
<polygon fill="#999999" stroke="#666666" points="2039.5,-239 1885.5,-239 1885.5,-209 2039.5,-209 2039.5,-239"/>
<text text-anchor="start" x="1893.5" y="-227" font-family="Helvetica,sans-Serif" font-size="10.00">rel/d/a/obj/d_a_obj</text>
<text text-anchor="middle" x="1962.5" y="-216" font-family="Helvetica,sans-Serif" font-size="10.00">_barDesk/d_a_obj_barDesk.cpp</text>
</a>
</g>
</g>
<!-- Node2 -->
<g id="node2" class="node">
<title>Node2</title>
<g id="a_node2"><a xlink:href="d__a__obj__barDesk_8h.html" target="_top" xlink:title=" ">
<polygon fill="white" stroke="#666666" points="143,-162 0,-162 0,-132 143,-132 143,-162"/>
<text text-anchor="start" x="8" y="-150" font-family="Helvetica,sans-Serif" font-size="10.00">rel/d/a/obj/d_a_obj</text>
<text text-anchor="middle" x="71.5" y="-139" font-family="Helvetica,sans-Serif" font-size="10.00">_barDesk/d_a_obj_barDesk.h</text>
</a>
</g>
</g>
<!-- Node1&#45;&gt;Node2 -->
<g id="edge1" class="edge">
<title>Node1&#45;&gt;Node2</title>
<path fill="none" stroke="#63b8ff" d="M1885.16,-223.48C1585.12,-224.93 497.99,-226.31 157.5,-173 146.44,-171.27 134.8,-168.53 123.78,-165.5"/>
<polygon fill="#63b8ff" stroke="#63b8ff" points="125.04,-162.22 114.46,-162.8 123.1,-168.94 125.04,-162.22"/>
</g>
<!-- Node3 -->
<g id="node3" class="node">
<title>Node3</title>
<g id="a_node3"><a xlink:href="types_8h.html" target="_top" xlink:title=" ">
<polygon fill="white" stroke="#666666" points="162,-85 81,-85 81,-66 162,-66 162,-85"/>
<text text-anchor="middle" x="121.5" y="-73" font-family="Helvetica,sans-Serif" font-size="10.00">dolphin/types.h</text>
</a>
</g>
</g>
<!-- Node1&#45;&gt;Node3 -->
<g id="edge5" class="edge">
<title>Node1&#45;&gt;Node3</title>
<path fill="none" stroke="#63b8ff" d="M1885.02,-222.71C1553.45,-221.25 267.28,-213.01 191.5,-173 189.39,-171.89 153.99,-122.29 134.36,-94.65"/>
<polygon fill="#63b8ff" stroke="#63b8ff" points="137.23,-92.64 128.58,-86.51 131.52,-96.69 137.23,-92.64"/>
</g>
<!-- Node5 -->
<g id="node5" class="node">
<title>Node5</title>
<g id="a_node5"><a xlink:href="dol2asm_8h.html" target="_top" xlink:title=" ">
<polygon fill="white" stroke="#666666" points="261,-156.5 200,-156.5 200,-137.5 261,-137.5 261,-156.5"/>
<text text-anchor="middle" x="230.5" y="-144.5" font-family="Helvetica,sans-Serif" font-size="10.00">dol2asm.h</text>
</a>
</g>
</g>
<!-- Node1&#45;&gt;Node5 -->
<g id="edge4" class="edge">
<title>Node1&#45;&gt;Node5</title>
<path fill="none" stroke="#63b8ff" d="M1885.25,-223.09C1574.61,-223.13 425.94,-220.08 270.5,-173 263.57,-170.9 256.66,-167.27 250.57,-163.42"/>
<polygon fill="#63b8ff" stroke="#63b8ff" points="252.72,-160.65 242.51,-157.81 248.73,-166.39 252.72,-160.65"/>
</g>
<!-- Node6 -->
<g id="node6" class="node">
<title>Node6</title>
<g id="a_node6"><a xlink:title=" ">
<polygon fill="#e0e0e0" stroke="#999999" points="428,-173 279,-173 279,-121 428,-121 428,-173"/>
<text text-anchor="start" x="287" y="-161" font-family="Helvetica,sans-Serif" font-size="10.00">asm/rel/d/a/obj/d_a</text>
<text text-anchor="start" x="287" y="-150" font-family="Helvetica,sans-Serif" font-size="10.00">_obj_barDesk/d_a_obj</text>
<text text-anchor="start" x="287" y="-139" font-family="Helvetica,sans-Serif" font-size="10.00">_barDesk/__ct__15daBarDesk</text>
<text text-anchor="middle" x="353.5" y="-128" font-family="Helvetica,sans-Serif" font-size="10.00">_HIO_cFv.s</text>
</a>
</g>
</g>
<!-- Node1&#45;&gt;Node6 -->
<g id="edge6" class="edge">
<title>Node1&#45;&gt;Node6</title>
<path fill="none" stroke="#63b8ff" d="M1885,-223.08C1618.84,-222.95 742.3,-219.07 439.35,-173.05"/>
<polygon fill="#63b8ff" stroke="#63b8ff" points="440.3,-169.65 429.88,-171.56 439.21,-176.57 440.3,-169.65"/>
</g>
<!-- Node7 -->
<g id="node7" class="node">
<title>Node7</title>
<g id="a_node7"><a xlink:title=" ">
<polygon fill="#e0e0e0" stroke="#999999" points="585,-173 446,-173 446,-121 585,-121 585,-173"/>
<text text-anchor="start" x="454" y="-161" font-family="Helvetica,sans-Serif" font-size="10.00">asm/rel/d/a/obj/d_a</text>
<text text-anchor="start" x="454" y="-150" font-family="Helvetica,sans-Serif" font-size="10.00">_obj_barDesk/d_a_obj</text>
<text text-anchor="start" x="454" y="-139" font-family="Helvetica,sans-Serif" font-size="10.00">_barDesk/__dt__14mDoHIO</text>
<text text-anchor="middle" x="515.5" y="-128" font-family="Helvetica,sans-Serif" font-size="10.00">_entry_cFv.s</text>
</a>
</g>
</g>
<!-- Node1&#45;&gt;Node7 -->
<g id="edge7" class="edge">
<title>Node1&#45;&gt;Node7</title>
<path fill="none" stroke="#63b8ff" d="M1885.23,-222.91C1638.05,-222.2 867.6,-216.61 596.82,-173.12"/>
<polygon fill="#63b8ff" stroke="#63b8ff" points="597.4,-169.67 586.96,-171.47 596.25,-176.57 597.4,-169.67"/>
</g>
<!-- Node8 -->
<g id="node8" class="node">
<title>Node8</title>
<g id="a_node8"><a xlink:title=" ">
<polygon fill="#e0e0e0" stroke="#999999" points="721.5,-173 603.5,-173 603.5,-121 721.5,-121 721.5,-173"/>
<text text-anchor="start" x="611.5" y="-161" font-family="Helvetica,sans-Serif" font-size="10.00">asm/rel/d/a/obj/d_a</text>
<text text-anchor="start" x="611.5" y="-150" font-family="Helvetica,sans-Serif" font-size="10.00">_obj_barDesk/d_a_obj</text>
<text text-anchor="start" x="611.5" y="-139" font-family="Helvetica,sans-Serif" font-size="10.00">_barDesk/setBaseMtx_</text>
<text text-anchor="middle" x="662.5" y="-128" font-family="Helvetica,sans-Serif" font-size="10.00">_11daBarDesk_cFv.s</text>
</a>
</g>
</g>
<!-- Node1&#45;&gt;Node8 -->
<g id="edge8" class="edge">
<title>Node1&#45;&gt;Node8</title>
<path fill="none" stroke="#63b8ff" d="M1885.14,-223C1654.73,-222.51 974.62,-217.42 733.07,-173.16"/>
<polygon fill="#63b8ff" stroke="#63b8ff" points="733.87,-169.75 723.39,-171.31 732.55,-176.63 733.87,-169.75"/>
</g>
<!-- Node9 -->
<g id="node9" class="node">
<title>Node9</title>
<g id="a_node9"><a xlink:title=" ">
<polygon fill="#e0e0e0" stroke="#999999" points="857.5,-173 739.5,-173 739.5,-121 857.5,-121 857.5,-173"/>
<text text-anchor="start" x="747.5" y="-161" font-family="Helvetica,sans-Serif" font-size="10.00">asm/rel/d/a/obj/d_a</text>
<text text-anchor="start" x="747.5" y="-150" font-family="Helvetica,sans-Serif" font-size="10.00">_obj_barDesk/d_a_obj</text>
<text text-anchor="start" x="747.5" y="-139" font-family="Helvetica,sans-Serif" font-size="10.00">_barDesk/CreateHeap_</text>
<text text-anchor="middle" x="798.5" y="-128" font-family="Helvetica,sans-Serif" font-size="10.00">_11daBarDesk_cFv.s</text>
</a>
</g>
</g>
<!-- Node1&#45;&gt;Node9 -->
<g id="edge9" class="edge">
<title>Node1&#45;&gt;Node9</title>
<path fill="none" stroke="#63b8ff" d="M1885.36,-222.54C1673.17,-220.81 1082.98,-212.66 869.02,-173.16"/>
<polygon fill="#63b8ff" stroke="#63b8ff" points="869.87,-169.76 859.39,-171.3 868.54,-176.63 869.87,-169.76"/>
</g>
<!-- Node10 -->
<g id="node10" class="node">
<title>Node10</title>
<g id="a_node10"><a xlink:title=" ">
<polygon fill="#e0e0e0" stroke="#999999" points="1061.5,-167.5 875.5,-167.5 875.5,-126.5 1061.5,-126.5 1061.5,-167.5"/>
<text text-anchor="start" x="883.5" y="-155.5" font-family="Helvetica,sans-Serif" font-size="10.00">asm/rel/d/a/obj/d_a</text>
<text text-anchor="start" x="883.5" y="-144.5" font-family="Helvetica,sans-Serif" font-size="10.00">_obj_barDesk/d_a_obj</text>
<text text-anchor="middle" x="968.5" y="-133.5" font-family="Helvetica,sans-Serif" font-size="10.00">_barDesk/create__11daBarDesk_cFv.s</text>
</a>
</g>
</g>
<!-- Node1&#45;&gt;Node10 -->
<g id="edge10" class="edge">
<title>Node1&#45;&gt;Node10</title>
<path fill="none" stroke="#63b8ff" d="M1885.15,-223.38C1729.97,-223.1 1369.97,-217.22 1071.5,-173 1066.01,-172.19 1060.38,-171.22 1054.73,-170.14"/>
<polygon fill="#63b8ff" stroke="#63b8ff" points="1055.83,-166.79 1045.33,-168.25 1054.44,-173.65 1055.83,-166.79"/>
</g>
<!-- Node11 -->
<g id="node11" class="node">
<title>Node11</title>
<g id="a_node11"><a xlink:title=" ">
<polygon fill="#e0e0e0" stroke="#999999" points="1239,-167.5 1080,-167.5 1080,-126.5 1239,-126.5 1239,-167.5"/>
<text text-anchor="start" x="1088" y="-155.5" font-family="Helvetica,sans-Serif" font-size="10.00">asm/rel/d/a/obj/d_a</text>
<text text-anchor="start" x="1088" y="-144.5" font-family="Helvetica,sans-Serif" font-size="10.00">_obj_barDesk/d_a_obj</text>
<text text-anchor="middle" x="1159.5" y="-133.5" font-family="Helvetica,sans-Serif" font-size="10.00">_barDesk/__dt__8cM3dGCylFv.s</text>
</a>
</g>
</g>
<!-- Node1&#45;&gt;Node11 -->
<g id="edge11" class="edge">
<title>Node1&#45;&gt;Node11</title>
<path fill="none" stroke="#63b8ff" d="M1885.01,-222.73C1753.26,-221.11 1477.6,-212.77 1248.5,-173 1244.38,-172.29 1240.18,-171.46 1235.96,-170.55"/>
<polygon fill="#63b8ff" stroke="#63b8ff" points="1236.77,-167.14 1226.24,-168.3 1235.2,-173.96 1236.77,-167.14"/>
</g>
<!-- Node12 -->
<g id="node12" class="node">
<title>Node12</title>
<g id="a_node12"><a xlink:title=" ">
<polygon fill="#e0e0e0" stroke="#999999" points="1420,-167.5 1257,-167.5 1257,-126.5 1420,-126.5 1420,-167.5"/>
<text text-anchor="start" x="1265" y="-155.5" font-family="Helvetica,sans-Serif" font-size="10.00">asm/rel/d/a/obj/d_a</text>
<text text-anchor="start" x="1265" y="-144.5" font-family="Helvetica,sans-Serif" font-size="10.00">_obj_barDesk/d_a_obj</text>
<text text-anchor="middle" x="1338.5" y="-133.5" font-family="Helvetica,sans-Serif" font-size="10.00">_barDesk/__dt__8cM3dGAabFv.s</text>
</a>
</g>
</g>
<!-- Node1&#45;&gt;Node12 -->
<g id="edge12" class="edge">
<title>Node1&#45;&gt;Node12</title>
<path fill="none" stroke="#63b8ff" d="M1885.13,-219.98C1780.91,-214.95 1589.95,-202.33 1429.5,-173 1425.39,-172.25 1421.2,-171.4 1416.98,-170.48"/>
<polygon fill="#63b8ff" stroke="#63b8ff" points="1417.79,-167.07 1407.26,-168.23 1416.21,-173.89 1417.79,-167.07"/>
</g>
<!-- Node13 -->
<g id="node13" class="node">
<title>Node13</title>
<g id="a_node13"><a xlink:title=" ">
<polygon fill="#e0e0e0" stroke="#999999" points="1563,-173 1438,-173 1438,-121 1563,-121 1563,-173"/>
<text text-anchor="start" x="1446" y="-161" font-family="Helvetica,sans-Serif" font-size="10.00">asm/rel/d/a/obj/d_a</text>
<text text-anchor="start" x="1446" y="-150" font-family="Helvetica,sans-Serif" font-size="10.00">_obj_barDesk/d_a_obj</text>
<text text-anchor="start" x="1446" y="-139" font-family="Helvetica,sans-Serif" font-size="10.00">_barDesk/__dt__10dCcD</text>
<text text-anchor="middle" x="1500.5" y="-128" font-family="Helvetica,sans-Serif" font-size="10.00">_GSttsFv.s</text>
</a>
</g>
</g>
<!-- Node1&#45;&gt;Node13 -->
<g id="edge13" class="edge">
<title>Node1&#45;&gt;Node13</title>
<path fill="none" stroke="#63b8ff" d="M1885.07,-217.81C1808.24,-211.6 1687.18,-198.93 1574.39,-173.23"/>
<polygon fill="#63b8ff" stroke="#63b8ff" points="1575.51,-169.9 1564.97,-171.04 1573.92,-176.71 1575.51,-169.9"/>
</g>
<!-- Node14 -->
<g id="node14" class="node">
<title>Node14</title>
<g id="a_node14"><a xlink:title=" ">
<polygon fill="#e0e0e0" stroke="#999999" points="1745.5,-173 1581.5,-173 1581.5,-121 1745.5,-121 1745.5,-173"/>
<text text-anchor="start" x="1589.5" y="-161" font-family="Helvetica,sans-Serif" font-size="10.00">asm/rel/d/a/obj/d_a</text>
<text text-anchor="start" x="1589.5" y="-150" font-family="Helvetica,sans-Serif" font-size="10.00">_obj_barDesk/d_a_obj</text>
<text text-anchor="start" x="1589.5" y="-139" font-family="Helvetica,sans-Serif" font-size="10.00">_barDesk/Execute__11daBarDesk</text>
<text text-anchor="middle" x="1663.5" y="-128" font-family="Helvetica,sans-Serif" font-size="10.00">_cFPPA3_A4_f.s</text>
</a>
</g>
</g>
<!-- Node1&#45;&gt;Node14 -->
<g id="edge14" class="edge">
<title>Node1&#45;&gt;Node14</title>
<path fill="none" stroke="#63b8ff" d="M1900.79,-208.58C1862.16,-199.44 1811.07,-187.15 1756.65,-173.27"/>
<polygon fill="#63b8ff" stroke="#63b8ff" points="1757.75,-169.93 1747.19,-170.84 1756.01,-176.72 1757.75,-169.93"/>
</g>
<!-- Node15 -->
<g id="node15" class="node">
<title>Node15</title>
<g id="a_node15"><a xlink:title=" ">
<polygon fill="#e0e0e0" stroke="#999999" points="1883,-173 1764,-173 1764,-121 1883,-121 1883,-173"/>
<text text-anchor="start" x="1772" y="-161" font-family="Helvetica,sans-Serif" font-size="10.00">asm/rel/d/a/obj/d_a</text>
<text text-anchor="start" x="1772" y="-150" font-family="Helvetica,sans-Serif" font-size="10.00">_obj_barDesk/d_a_obj</text>
<text text-anchor="start" x="1772" y="-139" font-family="Helvetica,sans-Serif" font-size="10.00">_barDesk/windowProc_</text>
<text text-anchor="middle" x="1823.5" y="-128" font-family="Helvetica,sans-Serif" font-size="10.00">_11daBarDesk_cFv.s</text>
</a>
</g>
</g>
<!-- Node1&#45;&gt;Node15 -->
<g id="edge15" class="edge">
<title>Node1&#45;&gt;Node15</title>
<path fill="none" stroke="#63b8ff" d="M1935.7,-208.54C1920.05,-200.1 1899.69,-189.11 1880.61,-178.82"/>
<polygon fill="#63b8ff" stroke="#63b8ff" points="1882.28,-175.74 1871.82,-174.07 1878.96,-181.9 1882.28,-175.74"/>
</g>
<!-- Node16 -->
<g id="node16" class="node">
<title>Node16</title>
<g id="a_node16"><a xlink:title=" ">
<polygon fill="#e0e0e0" stroke="#999999" points="2023.5,-173 1901.5,-173 1901.5,-121 2023.5,-121 2023.5,-173"/>
<text text-anchor="start" x="1909.5" y="-161" font-family="Helvetica,sans-Serif" font-size="10.00">asm/rel/d/a/obj/d_a</text>
<text text-anchor="start" x="1909.5" y="-150" font-family="Helvetica,sans-Serif" font-size="10.00">_obj_barDesk/d_a_obj</text>
<text text-anchor="start" x="1909.5" y="-139" font-family="Helvetica,sans-Serif" font-size="10.00">_barDesk/init_modeWait</text>
<text text-anchor="middle" x="1962.5" y="-128" font-family="Helvetica,sans-Serif" font-size="10.00">__11daBarDesk_cFv.s</text>
</a>
</g>
</g>
<!-- Node1&#45;&gt;Node16 -->
<g id="edge16" class="edge">
<title>Node1&#45;&gt;Node16</title>
<path fill="none" stroke="#63b8ff" d="M1962.5,-208.54C1962.5,-201.69 1962.5,-193.17 1962.5,-184.7"/>
<polygon fill="#63b8ff" stroke="#63b8ff" points="1966,-184.87 1962.5,-174.87 1959,-184.87 1966,-184.87"/>
</g>
<!-- Node17 -->
<g id="node17" class="node">
<title>Node17</title>
<g id="a_node17"><a xlink:title=" ">
<polygon fill="#e0e0e0" stroke="#999999" points="2245,-167.5 2042,-167.5 2042,-126.5 2245,-126.5 2245,-167.5"/>
<text text-anchor="start" x="2050" y="-155.5" font-family="Helvetica,sans-Serif" font-size="10.00">asm/rel/d/a/obj/d_a</text>
<text text-anchor="start" x="2050" y="-144.5" font-family="Helvetica,sans-Serif" font-size="10.00">_obj_barDesk/d_a_obj</text>
<text text-anchor="middle" x="2143.5" y="-133.5" font-family="Helvetica,sans-Serif" font-size="10.00">_barDesk/modeWait__11daBarDesk_cFv.s</text>
</a>
</g>
</g>
<!-- Node1&#45;&gt;Node17 -->
<g id="edge17" class="edge">
<title>Node1&#45;&gt;Node17</title>
<path fill="none" stroke="#63b8ff" d="M1997.4,-208.54C2022.19,-198.27 2056.08,-184.22 2084.97,-172.25"/>
<polygon fill="#63b8ff" stroke="#63b8ff" points="2086.07,-175.59 2093.97,-168.52 2083.39,-169.12 2086.07,-175.59"/>
</g>
<!-- Node18 -->
<g id="node18" class="node">
<title>Node18</title>
<g id="a_node18"><a xlink:title=" ">
<polygon fill="#e0e0e0" stroke="#999999" points="2391.5,-173 2263.5,-173 2263.5,-121 2391.5,-121 2391.5,-173"/>
<text text-anchor="start" x="2271.5" y="-161" font-family="Helvetica,sans-Serif" font-size="10.00">asm/rel/d/a/obj/d_a</text>
<text text-anchor="start" x="2271.5" y="-150" font-family="Helvetica,sans-Serif" font-size="10.00">_obj_barDesk/d_a_obj</text>
<text text-anchor="start" x="2271.5" y="-139" font-family="Helvetica,sans-Serif" font-size="10.00">_barDesk/init_modeBreak</text>
<text text-anchor="middle" x="2327.5" y="-128" font-family="Helvetica,sans-Serif" font-size="10.00">__11daBarDesk_cFv.s</text>
</a>
</g>
</g>
<!-- Node1&#45;&gt;Node18 -->
<g id="edge18" class="edge">
<title>Node1&#45;&gt;Node18</title>
<path fill="none" stroke="#63b8ff" d="M2039.75,-213.22C2096.36,-205.26 2175.15,-192.55 2252.31,-173.4"/>
<polygon fill="#63b8ff" stroke="#63b8ff" points="2252.88,-176.86 2261.72,-171.02 2251.16,-170.08 2252.88,-176.86"/>
</g>
<!-- Node19 -->
<g id="node19" class="node">
<title>Node19</title>
<g id="a_node19"><a xlink:title=" ">
<polygon fill="#e0e0e0" stroke="#999999" points="2567,-173 2410,-173 2410,-121 2567,-121 2567,-173"/>
<text text-anchor="start" x="2418" y="-161" font-family="Helvetica,sans-Serif" font-size="10.00">asm/rel/d/a/obj/d_a</text>
<text text-anchor="start" x="2418" y="-150" font-family="Helvetica,sans-Serif" font-size="10.00">_obj_barDesk/d_a_obj</text>
<text text-anchor="start" x="2418" y="-139" font-family="Helvetica,sans-Serif" font-size="10.00">_barDesk/modeBreak__11daBar</text>
<text text-anchor="middle" x="2488.5" y="-128" font-family="Helvetica,sans-Serif" font-size="10.00">Desk_cFv.s</text>
</a>
</g>
</g>
<!-- Node1&#45;&gt;Node19 -->
<g id="edge19" class="edge">
<title>Node1&#45;&gt;Node19</title>
<path fill="none" stroke="#63b8ff" d="M2039.83,-218C2125.41,-211.62 2267.46,-198.47 2398.91,-173.16"/>
<polygon fill="#63b8ff" stroke="#63b8ff" points="2399.34,-176.64 2408.49,-171.29 2398,-169.77 2399.34,-176.64"/>
</g>
<!-- Node20 -->
<g id="node20" class="node">
<title>Node20</title>
<g id="a_node20"><a xlink:title=" ">
<polygon fill="#e0e0e0" stroke="#999999" points="2710,-173 2585,-173 2585,-121 2710,-121 2710,-173"/>
<text text-anchor="start" x="2593" y="-161" font-family="Helvetica,sans-Serif" font-size="10.00">asm/rel/d/a/obj/d_a</text>
<text text-anchor="start" x="2593" y="-150" font-family="Helvetica,sans-Serif" font-size="10.00">_obj_barDesk/d_a_obj</text>
<text text-anchor="start" x="2593" y="-139" font-family="Helvetica,sans-Serif" font-size="10.00">_barDesk/setBreakEffect</text>
<text text-anchor="middle" x="2647.5" y="-128" font-family="Helvetica,sans-Serif" font-size="10.00">__11daBarDesk_cFv.s</text>
</a>
</g>
</g>
<!-- Node1&#45;&gt;Node20 -->
<g id="edge20" class="edge">
<title>Node1&#45;&gt;Node20</title>
<path fill="none" stroke="#63b8ff" d="M2040,-223.04C2155.19,-221.7 2378.18,-213.75 2573.59,-173.4"/>
<polygon fill="#63b8ff" stroke="#63b8ff" points="2574.09,-176.87 2583.16,-171.39 2572.65,-170.02 2574.09,-176.87"/>
</g>
<!-- Node21 -->
<g id="node21" class="node">
<title>Node21</title>
<g id="a_node21"><a xlink:title=" ">
<polygon fill="#e0e0e0" stroke="#999999" points="2910.5,-167.5 2728.5,-167.5 2728.5,-126.5 2910.5,-126.5 2910.5,-167.5"/>
<text text-anchor="start" x="2736.5" y="-155.5" font-family="Helvetica,sans-Serif" font-size="10.00">asm/rel/d/a/obj/d_a</text>
<text text-anchor="start" x="2736.5" y="-144.5" font-family="Helvetica,sans-Serif" font-size="10.00">_obj_barDesk/d_a_obj</text>
<text text-anchor="middle" x="2819.5" y="-133.5" font-family="Helvetica,sans-Serif" font-size="10.00">_barDesk/Draw__11daBarDesk_cFv.s</text>
</a>
</g>
</g>
<!-- Node1&#45;&gt;Node21 -->
<g id="edge21" class="edge">
<title>Node1&#45;&gt;Node21</title>
<path fill="none" stroke="#63b8ff" d="M2039.83,-222.45C2177.38,-220.45 2473.25,-211.6 2719.5,-173 2724.46,-172.22 2729.53,-171.32 2734.63,-170.32"/>
<polygon fill="#63b8ff" stroke="#63b8ff" points="2735.25,-173.76 2744.33,-168.31 2733.82,-166.91 2735.25,-173.76"/>
</g>
<!-- Node22 -->
<g id="node22" class="node">
<title>Node22</title>
<g id="a_node22"><a xlink:title=" ">
<polygon fill="#e0e0e0" stroke="#999999" points="3116,-167.5 2929,-167.5 2929,-126.5 3116,-126.5 3116,-167.5"/>
<text text-anchor="start" x="2937" y="-155.5" font-family="Helvetica,sans-Serif" font-size="10.00">asm/rel/d/a/obj/d_a</text>
<text text-anchor="start" x="2937" y="-144.5" font-family="Helvetica,sans-Serif" font-size="10.00">_obj_barDesk/d_a_obj</text>
<text text-anchor="middle" x="3022.5" y="-133.5" font-family="Helvetica,sans-Serif" font-size="10.00">_barDesk/Delete__11daBarDesk_cFv.s</text>
</a>
</g>
</g>
<!-- Node1&#45;&gt;Node22 -->
<g id="edge22" class="edge">
<title>Node1&#45;&gt;Node22</title>
<path fill="none" stroke="#63b8ff" d="M2039.89,-223.81C2203.3,-224.46 2595.19,-220.41 2919.5,-173 2924.99,-172.2 2930.62,-171.24 2936.28,-170.17"/>
<polygon fill="#63b8ff" stroke="#63b8ff" points="2936.56,-173.68 2945.67,-168.28 2935.18,-166.82 2936.56,-173.68"/>
</g>
<!-- Node23 -->
<g id="node23" class="node">
<title>Node23</title>
<g id="a_node23"><a xlink:title=" ">
<polygon fill="#e0e0e0" stroke="#999999" points="3271,-173 3134,-173 3134,-121 3271,-121 3271,-173"/>
<text text-anchor="start" x="3142" y="-161" font-family="Helvetica,sans-Serif" font-size="10.00">asm/rel/d/a/obj/d_a</text>
<text text-anchor="start" x="3142" y="-150" font-family="Helvetica,sans-Serif" font-size="10.00">_obj_barDesk/d_a_obj</text>
<text text-anchor="start" x="3142" y="-139" font-family="Helvetica,sans-Serif" font-size="10.00">_barDesk/daBarDesk_Draw</text>
<text text-anchor="middle" x="3202.5" y="-128" font-family="Helvetica,sans-Serif" font-size="10.00">__FP11daBarDesk_c.s</text>
</a>
</g>
</g>
<!-- Node1&#45;&gt;Node23 -->
<g id="edge23" class="edge">
<title>Node1&#45;&gt;Node23</title>
<path fill="none" stroke="#63b8ff" d="M2039.82,-222.4C2261.03,-220.26 2894.66,-211.07 3122.69,-173.23"/>
<polygon fill="#63b8ff" stroke="#63b8ff" points="3123.14,-176.71 3132.4,-171.55 3121.95,-169.81 3123.14,-176.71"/>
</g>
<!-- Node24 -->
<g id="node24" class="node">
<title>Node24</title>
<g id="a_node24"><a xlink:title=" ">
<polygon fill="#e0e0e0" stroke="#999999" points="3438,-173 3289,-173 3289,-121 3438,-121 3438,-173"/>
<text text-anchor="start" x="3297" y="-161" font-family="Helvetica,sans-Serif" font-size="10.00">asm/rel/d/a/obj/d_a</text>
<text text-anchor="start" x="3297" y="-150" font-family="Helvetica,sans-Serif" font-size="10.00">_obj_barDesk/d_a_obj</text>
<text text-anchor="start" x="3297" y="-139" font-family="Helvetica,sans-Serif" font-size="10.00">_barDesk/daBarDesk_Execute</text>
<text text-anchor="middle" x="3363.5" y="-128" font-family="Helvetica,sans-Serif" font-size="10.00">__FP11daBarDesk_c.s</text>
</a>
</g>
</g>
<!-- Node1&#45;&gt;Node24 -->
<g id="edge24" class="edge">
<title>Node1&#45;&gt;Node24</title>
<path fill="none" stroke="#63b8ff" d="M2039.91,-222.65C2281.04,-221.14 3017.52,-213.42 3277.33,-173.3"/>
<polygon fill="#63b8ff" stroke="#63b8ff" points="3277.79,-176.77 3287.11,-171.73 3276.68,-169.86 3277.79,-176.77"/>
</g>
<!-- Node25 -->
<g id="node25" class="node">
<title>Node25</title>
<g id="a_node25"><a xlink:title=" ">
<polygon fill="#e0e0e0" stroke="#999999" points="3598.5,-173 3456.5,-173 3456.5,-121 3598.5,-121 3598.5,-173"/>
<text text-anchor="start" x="3464.5" y="-161" font-family="Helvetica,sans-Serif" font-size="10.00">asm/rel/d/a/obj/d_a</text>
<text text-anchor="start" x="3464.5" y="-150" font-family="Helvetica,sans-Serif" font-size="10.00">_obj_barDesk/d_a_obj</text>
<text text-anchor="start" x="3464.5" y="-139" font-family="Helvetica,sans-Serif" font-size="10.00">_barDesk/daBarDesk_Delete</text>
<text text-anchor="middle" x="3527.5" y="-128" font-family="Helvetica,sans-Serif" font-size="10.00">__FP11daBarDesk_c.s</text>
</a>
</g>
</g>
<!-- Node1&#45;&gt;Node25 -->
<g id="edge25" class="edge">
<title>Node1&#45;&gt;Node25</title>
<path fill="none" stroke="#63b8ff" d="M2039.82,-223.14C2301.12,-223.18 3150.89,-219.75 3445.13,-173.14"/>
<polygon fill="#63b8ff" stroke="#63b8ff" points="3445.41,-176.64 3454.71,-171.57 3444.27,-169.74 3445.41,-176.64"/>
</g>
<!-- Node26 -->
<g id="node26" class="node">
<title>Node26</title>
<g id="a_node26"><a xlink:title=" ">
<polygon fill="#e0e0e0" stroke="#999999" points="3760,-173 3617,-173 3617,-121 3760,-121 3760,-173"/>
<text text-anchor="start" x="3625" y="-161" font-family="Helvetica,sans-Serif" font-size="10.00">asm/rel/d/a/obj/d_a</text>
<text text-anchor="start" x="3625" y="-150" font-family="Helvetica,sans-Serif" font-size="10.00">_obj_barDesk/d_a_obj</text>
<text text-anchor="start" x="3625" y="-139" font-family="Helvetica,sans-Serif" font-size="10.00">_barDesk/daBarDesk_Create</text>
<text text-anchor="middle" x="3688.5" y="-128" font-family="Helvetica,sans-Serif" font-size="10.00">__FP10fopAc_ac_c.s</text>
</a>
</g>
</g>
<!-- Node1&#45;&gt;Node26 -->
<g id="edge26" class="edge">
<title>Node1&#45;&gt;Node26</title>
<path fill="none" stroke="#63b8ff" d="M2039.68,-223.4C2319.12,-224.42 3278.24,-224.15 3605.84,-173"/>
<polygon fill="#63b8ff" stroke="#63b8ff" points="3605.94,-176.53 3615.26,-171.48 3604.83,-169.62 3605.94,-176.53"/>
</g>
<!-- Node27 -->
<g id="node27" class="node">
<title>Node27</title>
<g id="a_node27"><a xlink:title=" ">
<polygon fill="#e0e0e0" stroke="#999999" points="3903,-173 3778,-173 3778,-121 3903,-121 3903,-173"/>
<text text-anchor="start" x="3786" y="-161" font-family="Helvetica,sans-Serif" font-size="10.00">asm/rel/d/a/obj/d_a</text>
<text text-anchor="start" x="3786" y="-150" font-family="Helvetica,sans-Serif" font-size="10.00">_obj_barDesk/d_a_obj</text>
<text text-anchor="start" x="3786" y="-139" font-family="Helvetica,sans-Serif" font-size="10.00">_barDesk/__dt__10cCcD</text>
<text text-anchor="middle" x="3840.5" y="-128" font-family="Helvetica,sans-Serif" font-size="10.00">_GSttsFv.s</text>
</a>
</g>
</g>
<!-- Node1&#45;&gt;Node27 -->
<g id="edge27" class="edge">
<title>Node1&#45;&gt;Node27</title>
<path fill="none" stroke="#63b8ff" d="M2039.77,-222.27C2357.04,-219.11 3552.57,-205.27 3766.6,-173.1"/>
<polygon fill="#63b8ff" stroke="#63b8ff" points="3766.89,-176.6 3776.18,-171.51 3765.74,-169.7 3766.89,-176.6"/>
</g>
<!-- Node28 -->
<g id="node28" class="node">
<title>Node28</title>
<g id="a_node28"><a xlink:title=" ">
<polygon fill="#e0e0e0" stroke="#999999" points="4070,-173 3921,-173 3921,-121 4070,-121 4070,-173"/>
<text text-anchor="start" x="3929" y="-161" font-family="Helvetica,sans-Serif" font-size="10.00">asm/rel/d/a/obj/d_a</text>
<text text-anchor="start" x="3929" y="-150" font-family="Helvetica,sans-Serif" font-size="10.00">_obj_barDesk/d_a_obj</text>
<text text-anchor="start" x="3929" y="-139" font-family="Helvetica,sans-Serif" font-size="10.00">_barDesk/__dt__15daBarDesk</text>
<text text-anchor="middle" x="3995.5" y="-128" font-family="Helvetica,sans-Serif" font-size="10.00">_HIO_cFv.s</text>
</a>
</g>
</g>
<!-- Node1&#45;&gt;Node28 -->
<g id="edge28" class="edge">
<title>Node1&#45;&gt;Node28</title>
<path fill="none" stroke="#63b8ff" d="M2039.77,-222.24C2372.79,-218.78 3678.63,-203.53 3909.27,-173.18"/>
<polygon fill="#63b8ff" stroke="#63b8ff" points="3909.72,-176.65 3919.11,-171.75 3908.71,-169.72 3909.72,-176.65"/>
</g>
<!-- Node29 -->
<g id="node29" class="node">
<title>Node29</title>
<g id="a_node29"><a xlink:title=" ">
<polygon fill="#e0e0e0" stroke="#999999" points="4201,-173 4088,-173 4088,-121 4201,-121 4201,-173"/>
<text text-anchor="start" x="4096" y="-161" font-family="Helvetica,sans-Serif" font-size="10.00">asm/rel/d/a/obj/d_a</text>
<text text-anchor="start" x="4096" y="-150" font-family="Helvetica,sans-Serif" font-size="10.00">_obj_barDesk/d_a_obj</text>
<text text-anchor="start" x="4096" y="-139" font-family="Helvetica,sans-Serif" font-size="10.00">_barDesk/__sinit_d_a</text>
<text text-anchor="middle" x="4144.5" y="-128" font-family="Helvetica,sans-Serif" font-size="10.00">_obj_barDesk_cpp.s</text>
</a>
</g>
</g>
<!-- Node1&#45;&gt;Node29 -->
<g id="edge29" class="edge">
<title>Node1&#45;&gt;Node29</title>
<path fill="none" stroke="#63b8ff" d="M2039.78,-222.74C2390.93,-221.36 3829.35,-213.39 4076.58,-173.1"/>
<polygon fill="#63b8ff" stroke="#63b8ff" points="4077.04,-176.57 4086.27,-171.36 4075.81,-169.68 4077.04,-176.57"/>
</g>
<!-- Node2&#45;&gt;Node3 -->
<g id="edge2" class="edge">
<title>Node2&#45;&gt;Node3</title>
<path fill="none" stroke="#63b8ff" d="M81.86,-131.6C89.65,-120.77 100.36,-105.88 108.69,-94.31"/>
<polygon fill="#63b8ff" stroke="#63b8ff" points="111.37,-96.57 114.37,-86.41 105.69,-92.48 111.37,-96.57"/>
</g>
<!-- Node4 -->
<g id="node4" class="node">
<title>Node4</title>
<g id="a_node4"><a xlink:href="stddef_8h.html" target="_top" xlink:title=" ">
<polygon fill="white" stroke="#666666" points="189.5,-30 53.5,-30 53.5,0 189.5,0 189.5,-30"/>
<text text-anchor="start" x="61.5" y="-18" font-family="Helvetica,sans-Serif" font-size="10.00">MSL_C/MSL_Common/Src</text>
<text text-anchor="middle" x="121.5" y="-7" font-family="Helvetica,sans-Serif" font-size="10.00">/stddef.h</text>
</a>
</g>
</g>
<!-- Node3&#45;&gt;Node4 -->
<g id="edge3" class="edge">
<title>Node3&#45;&gt;Node4</title>
<path fill="none" stroke="#63b8ff" d="M121.5,-65.87C121.5,-59.4 121.5,-50.2 121.5,-41.45"/>
<polygon fill="#63b8ff" stroke="#63b8ff" points="125,-41.63 121.5,-31.63 118,-41.63 125,-41.63"/>
</g>
</g>
</svg>
