<?xml version="1.0" encoding="UTF-8" standalone="no"?>
<!DOCTYPE svg PUBLIC "-//W3C//DTD SVG 1.1//EN"
 "http://www.w3.org/Graphics/SVG/1.1/DTD/svg11.dtd">
<!-- Generated by graphviz version 7.0.5 (20221223.1930)
 -->
<!-- Title: rel/d/a/d_a_L7demo_dr/d_a_L7demo_dr.cpp Pages: 1 -->
<!--zoomable 236 -->
<svg id="main" version="1.1" xmlns="http://www.w3.org/2000/svg" xmlns:xlink="http://www.w3.org/1999/xlink" xml:space="preserve" onload="init(evt)">
<style type="text/css"><![CDATA[
.edge:hover path { stroke: red; }
.edge:hover polygon { stroke: red; fill: red; }
]]></style>
<script type="text/javascript"><![CDATA[
var edges = document.getElementsByTagName('g');
if (edges && edges.length) {
  for (var i=0;i<edges.length;i++) {
    if (edges[i].id.substr(0,4)=='edge') {
      edges[i].setAttribute('class','edge');
    }
  }
}
]]></script>
        <defs>
                <circle id="rim" cx="0" cy="0" r="7"/>
                <circle id="rim2" cx="0" cy="0" r="3.5"/>
                <g id="zoomPlus">
                        <use xlink:href="#rim" fill="#404040">
                                <set attributeName="fill" to="#808080" begin="zoomplus.mouseover" end="zoomplus.mouseout"/>
                        </use>
                        <path d="M-4,0h8M0,-4v8" fill="none" stroke="white" stroke-width="1.5" pointer-events="none"/>
                </g>
                <g id="zoomMin">
                        <use xlink:href="#rim" fill="#404040">
                                <set attributeName="fill" to="#808080" begin="zoomminus.mouseover" end="zoomminus.mouseout"/>
                        </use>
                        <path d="M-4,0h8" fill="none" stroke="white" stroke-width="1.5" pointer-events="none"/>
                </g>
                <g id="dirArrow">
                        <path fill="none" stroke="white" stroke-width="1.5" d="M0,-3.0v7 M-2.5,-0.5L0,-3.0L2.5,-0.5"/>
                </g>
               <g id="resetDef">
                       <use xlink:href="#rim2" fill="#404040">
                               <set attributeName="fill" to="#808080" begin="reset.mouseover" end="reset.mouseout"/>
                       </use>
               </g>
        </defs>

<script type="text/javascript">
var viewWidth = 3159;
var viewHeight = 236;
var sectionId = 'dynsection-0';
</script>
<script xlink:href="svgpan.js"/>
<svg id="graph" class="graph">
<g id="viewport">
<title>rel/d/a/d_a_L7demo_dr/d_a_L7demo_dr.cpp</title>
<!-- Node1 -->
<g id="node1" class="node">
<title>Node1</title>
<g id="a_node1"><a xlink:title=" ">
<polygon fill="#999999" stroke="#666666" points="1519.5,-228 1398.5,-228 1398.5,-198 1519.5,-198 1519.5,-228"/>
<text text-anchor="start" x="1406.5" y="-216" font-family="Helvetica,sans-Serif" font-size="10.00">rel/d/a/d_a_L7demo</text>
<text text-anchor="middle" x="1459" y="-205" font-family="Helvetica,sans-Serif" font-size="10.00">_dr/d_a_L7demo_dr.cpp</text>
</a>
</g>
</g>
<!-- Node2 -->
<g id="node2" class="node">
<title>Node2</title>
<g id="a_node2"><a xlink:href="d__a__L7demo__dr_8h.html" target="_top" xlink:title=" ">
<polygon fill="white" stroke="#666666" points="110,-156.5 0,-156.5 0,-126.5 110,-126.5 110,-156.5"/>
<text text-anchor="start" x="8" y="-144.5" font-family="Helvetica,sans-Serif" font-size="10.00">rel/d/a/d_a_L7demo</text>
<text text-anchor="middle" x="55" y="-133.5" font-family="Helvetica,sans-Serif" font-size="10.00">_dr/d_a_L7demo_dr.h</text>
</a>
</g>
</g>
<!-- Node1&#45;&gt;Node2 -->
<g id="edge1" class="edge">
<title>Node1&#45;&gt;Node2</title>
<path fill="none" stroke="#63b8ff" d="M1398.35,-211.64C1171.68,-210.01 374.58,-201.52 124,-162 119.88,-161.35 115.67,-160.54 111.44,-159.62"/>
<polygon fill="#63b8ff" stroke="#63b8ff" points="112.32,-156.23 101.78,-157.31 110.7,-163.04 112.32,-156.23"/>
</g>
<!-- Node3 -->
<g id="node3" class="node">
<title>Node3</title>
<g id="a_node3"><a xlink:href="types_8h.html" target="_top" xlink:title=" ">
<polygon fill="white" stroke="#666666" points="136.5,-85 55.5,-85 55.5,-66 136.5,-66 136.5,-85"/>
<text text-anchor="middle" x="96" y="-73" font-family="Helvetica,sans-Serif" font-size="10.00">dolphin/types.h</text>
</a>
</g>
</g>
<!-- Node1&#45;&gt;Node3 -->
<g id="edge5" class="edge">
<title>Node1&#45;&gt;Node3</title>
<path fill="none" stroke="#63b8ff" d="M1398.34,-211.14C1148.95,-207.42 213.26,-191.54 158,-162 143.97,-154.5 120.48,-117.89 106.79,-95.07"/>
<polygon fill="#63b8ff" stroke="#63b8ff" points="109.97,-93.58 101.87,-86.74 103.95,-97.13 109.97,-93.58"/>
</g>
<!-- Node5 -->
<g id="node5" class="node">
<title>Node5</title>
<g id="a_node5"><a xlink:href="dol2asm_8h.html" target="_top" xlink:title=" ">
<polygon fill="white" stroke="#666666" points="227.5,-151 166.5,-151 166.5,-132 227.5,-132 227.5,-151"/>
<text text-anchor="middle" x="197" y="-139" font-family="Helvetica,sans-Serif" font-size="10.00">dol2asm.h</text>
</a>
</g>
</g>
<!-- Node1&#45;&gt;Node5 -->
<g id="edge4" class="edge">
<title>Node1&#45;&gt;Node5</title>
<path fill="none" stroke="#63b8ff" d="M1398.05,-210.97C1166.66,-206.87 349.91,-190.5 237,-162 231.89,-160.71 226.66,-158.72 221.74,-156.5"/>
<polygon fill="#63b8ff" stroke="#63b8ff" points="223.5,-153.47 212.99,-152.12 220.37,-159.73 223.5,-153.47"/>
</g>
<!-- Node6 -->
<g id="node6" class="node">
<title>Node6</title>
<g id="a_node6"><a xlink:title=" ">
<polygon fill="#e0e0e0" stroke="#999999" points="414,-162 246,-162 246,-121 414,-121 414,-162"/>
<text text-anchor="start" x="254" y="-150" font-family="Helvetica,sans-Serif" font-size="10.00">asm/rel/d/a/d_a_L7demo</text>
<text text-anchor="start" x="254" y="-139" font-family="Helvetica,sans-Serif" font-size="10.00">_dr/d_a_L7demo_dr/setAction</text>
<text text-anchor="middle" x="330" y="-128" font-family="Helvetica,sans-Serif" font-size="10.00">__6daDr_cFM6daDr_cFPCvPv_v.s</text>
</a>
</g>
</g>
<!-- Node1&#45;&gt;Node6 -->
<g id="edge6" class="edge">
<title>Node1&#45;&gt;Node6</title>
<path fill="none" stroke="#63b8ff" d="M1398.28,-212.42C1239.7,-212.79 800.08,-209.25 425.64,-162.22"/>
<polygon fill="#63b8ff" stroke="#63b8ff" points="426.16,-158.76 415.8,-160.97 425.28,-165.71 426.16,-158.76"/>
</g>
<!-- Node7 -->
<g id="node7" class="node">
<title>Node7</title>
<g id="a_node7"><a xlink:title=" ">
<polygon fill="#e0e0e0" stroke="#999999" points="564,-162 432,-162 432,-121 564,-121 564,-162"/>
<text text-anchor="start" x="440" y="-150" font-family="Helvetica,sans-Serif" font-size="10.00">asm/rel/d/a/d_a_L7demo</text>
<text text-anchor="start" x="440" y="-139" font-family="Helvetica,sans-Serif" font-size="10.00">_dr/d_a_L7demo_dr/action</text>
<text text-anchor="middle" x="498" y="-128" font-family="Helvetica,sans-Serif" font-size="10.00">__6daDr_cFv.s</text>
</a>
</g>
</g>
<!-- Node1&#45;&gt;Node7 -->
<g id="edge7" class="edge">
<title>Node1&#45;&gt;Node7</title>
<path fill="none" stroke="#63b8ff" d="M1398.22,-212.62C1255.84,-213.21 889.71,-209.68 575.32,-162"/>
<polygon fill="#63b8ff" stroke="#63b8ff" points="576.07,-158.57 565.66,-160.51 575.01,-165.49 576.07,-158.57"/>
</g>
<!-- Node8 -->
<g id="node8" class="node">
<title>Node8</title>
<g id="a_node8"><a xlink:title=" ">
<polygon fill="#e0e0e0" stroke="#999999" points="707.5,-162 582.5,-162 582.5,-121 707.5,-121 707.5,-162"/>
<text text-anchor="start" x="590.5" y="-150" font-family="Helvetica,sans-Serif" font-size="10.00">asm/rel/d/a/d_a_L7demo</text>
<text text-anchor="start" x="590.5" y="-139" font-family="Helvetica,sans-Serif" font-size="10.00">_dr/d_a_L7demo_dr/mtx</text>
<text text-anchor="middle" x="645" y="-128" font-family="Helvetica,sans-Serif" font-size="10.00">_set__6daDr_cFv.s</text>
</a>
</g>
</g>
<!-- Node1&#45;&gt;Node8 -->
<g id="edge8" class="edge">
<title>Node1&#45;&gt;Node8</title>
<path fill="none" stroke="#63b8ff" d="M1398.42,-211.95C1273.06,-210.96 976.11,-204.14 718.73,-162.09"/>
<polygon fill="#63b8ff" stroke="#63b8ff" points="719.6,-158.68 709.16,-160.5 718.45,-165.59 719.6,-158.68"/>
</g>
<!-- Node9 -->
<g id="node9" class="node">
<title>Node9</title>
<g id="a_node9"><a xlink:title=" ">
<polygon fill="#e0e0e0" stroke="#999999" points="852.5,-162 725.5,-162 725.5,-121 852.5,-121 852.5,-162"/>
<text text-anchor="start" x="733.5" y="-150" font-family="Helvetica,sans-Serif" font-size="10.00">asm/rel/d/a/d_a_L7demo</text>
<text text-anchor="start" x="733.5" y="-139" font-family="Helvetica,sans-Serif" font-size="10.00">_dr/d_a_L7demo_dr/draw</text>
<text text-anchor="middle" x="789" y="-128" font-family="Helvetica,sans-Serif" font-size="10.00">__6daDr_cFv.s</text>
</a>
</g>
</g>
<!-- Node1&#45;&gt;Node9 -->
<g id="edge9" class="edge">
<title>Node1&#45;&gt;Node9</title>
<path fill="none" stroke="#63b8ff" d="M1398.38,-210.47C1292.02,-207.02 1064.81,-196.2 864.29,-162.22"/>
<polygon fill="#63b8ff" stroke="#63b8ff" points="864.89,-158.77 854.44,-160.53 863.7,-165.67 864.89,-158.77"/>
</g>
<!-- Node10 -->
<g id="node10" class="node">
<title>Node10</title>
<g id="a_node10"><a xlink:title=" ">
<polygon fill="#e0e0e0" stroke="#999999" points="997,-162 871,-162 871,-121 997,-121 997,-162"/>
<text text-anchor="start" x="879" y="-150" font-family="Helvetica,sans-Serif" font-size="10.00">asm/rel/d/a/d_a_L7demo</text>
<text text-anchor="start" x="879" y="-139" font-family="Helvetica,sans-Serif" font-size="10.00">_dr/d_a_L7demo_dr/daDr</text>
<text text-anchor="middle" x="934" y="-128" font-family="Helvetica,sans-Serif" font-size="10.00">_Draw__FP6daDr_c.s</text>
</a>
</g>
</g>
<!-- Node1&#45;&gt;Node10 -->
<g id="edge10" class="edge">
<title>Node1&#45;&gt;Node10</title>
<path fill="none" stroke="#63b8ff" d="M1398.25,-208.2C1313.21,-202.24 1153.73,-188.72 1008.08,-162.03"/>
<polygon fill="#63b8ff" stroke="#63b8ff" points="1009.13,-158.66 998.66,-160.28 1007.85,-165.55 1009.13,-158.66"/>
</g>
<!-- Node11 -->
<g id="node11" class="node">
<title>Node11</title>
<g id="a_node11"><a xlink:title=" ">
<polygon fill="#e0e0e0" stroke="#999999" points="1140.5,-162 1015.5,-162 1015.5,-121 1140.5,-121 1140.5,-162"/>
<text text-anchor="start" x="1023.5" y="-150" font-family="Helvetica,sans-Serif" font-size="10.00">asm/rel/d/a/d_a_L7demo</text>
<text text-anchor="start" x="1023.5" y="-139" font-family="Helvetica,sans-Serif" font-size="10.00">_dr/d_a_L7demo_dr/wait</text>
<text text-anchor="middle" x="1078" y="-128" font-family="Helvetica,sans-Serif" font-size="10.00">__6daDr_cFv.s</text>
</a>
</g>
</g>
<!-- Node1&#45;&gt;Node11 -->
<g id="edge11" class="edge">
<title>Node1&#45;&gt;Node11</title>
<path fill="none" stroke="#63b8ff" d="M1398.26,-204.08C1338.14,-195.8 1243.29,-181.61 1151.86,-162.29"/>
<polygon fill="#63b8ff" stroke="#63b8ff" points="1152.73,-158.89 1142.21,-160.22 1151.26,-165.74 1152.73,-158.89"/>
</g>
<!-- Node12 -->
<g id="node12" class="node">
<title>Node12</title>
<g id="a_node12"><a xlink:title=" ">
<polygon fill="#e0e0e0" stroke="#999999" points="1297.5,-162 1158.5,-162 1158.5,-121 1297.5,-121 1297.5,-162"/>
<text text-anchor="start" x="1166.5" y="-150" font-family="Helvetica,sans-Serif" font-size="10.00">asm/rel/d/a/d_a_L7demo</text>
<text text-anchor="start" x="1166.5" y="-139" font-family="Helvetica,sans-Serif" font-size="10.00">_dr/d_a_L7demo_dr/pl_walk</text>
<text text-anchor="middle" x="1228" y="-128" font-family="Helvetica,sans-Serif" font-size="10.00">__6daDr_cFv.s</text>
</a>
</g>
</g>
<!-- Node1&#45;&gt;Node12 -->
<g id="edge12" class="edge">
<title>Node1&#45;&gt;Node12</title>
<path fill="none" stroke="#63b8ff" d="M1410.86,-197.52C1380.18,-188.29 1339.76,-176.12 1304.72,-165.58"/>
<polygon fill="#63b8ff" stroke="#63b8ff" points="1306.07,-162.34 1295.49,-162.81 1304.06,-169.04 1306.07,-162.34"/>
</g>
<!-- Node13 -->
<g id="node13" class="node">
<title>Node13</title>
<g id="a_node13"><a xlink:title=" ">
<polygon fill="#e0e0e0" stroke="#999999" points="1450.5,-162 1315.5,-162 1315.5,-121 1450.5,-121 1450.5,-162"/>
<text text-anchor="start" x="1323.5" y="-150" font-family="Helvetica,sans-Serif" font-size="10.00">asm/rel/d/a/d_a_L7demo</text>
<text text-anchor="start" x="1323.5" y="-139" font-family="Helvetica,sans-Serif" font-size="10.00">_dr/d_a_L7demo_dr/pl_turn</text>
<text text-anchor="middle" x="1383" y="-128" font-family="Helvetica,sans-Serif" font-size="10.00">__6daDr_cFv.s</text>
</a>
</g>
</g>
<!-- Node1&#45;&gt;Node13 -->
<g id="edge13" class="edge">
<title>Node1&#45;&gt;Node13</title>
<path fill="none" stroke="#63b8ff" d="M1443.25,-197.6C1434.56,-189.65 1423.46,-179.5 1413.17,-170.09"/>
<polygon fill="#63b8ff" stroke="#63b8ff" points="1415.64,-167.6 1405.9,-163.44 1410.91,-172.77 1415.64,-167.6"/>
</g>
<!-- Node14 -->
<g id="node14" class="node">
<title>Node14</title>
<g id="a_node14"><a xlink:title=" ">
<polygon fill="#e0e0e0" stroke="#999999" points="1601,-162 1469,-162 1469,-121 1601,-121 1601,-162"/>
<text text-anchor="start" x="1477" y="-150" font-family="Helvetica,sans-Serif" font-size="10.00">asm/rel/d/a/d_a_L7demo</text>
<text text-anchor="start" x="1477" y="-139" font-family="Helvetica,sans-Serif" font-size="10.00">_dr/d_a_L7demo_dr/bridge</text>
<text text-anchor="middle" x="1535" y="-128" font-family="Helvetica,sans-Serif" font-size="10.00">_destroy__6daDr_cFv.s</text>
</a>
</g>
</g>
<!-- Node1&#45;&gt;Node14 -->
<g id="edge14" class="edge">
<title>Node1&#45;&gt;Node14</title>
<path fill="none" stroke="#63b8ff" d="M1474.75,-197.6C1483.44,-189.65 1494.54,-179.5 1504.83,-170.09"/>
<polygon fill="#63b8ff" stroke="#63b8ff" points="1507.09,-172.77 1512.1,-163.44 1502.36,-167.6 1507.09,-172.77"/>
</g>
<!-- Node15 -->
<g id="node15" class="node">
<title>Node15</title>
<g id="a_node15"><a xlink:title=" ">
<polygon fill="#e0e0e0" stroke="#999999" points="1751,-162 1619,-162 1619,-121 1751,-121 1751,-162"/>
<text text-anchor="start" x="1627" y="-150" font-family="Helvetica,sans-Serif" font-size="10.00">asm/rel/d/a/d_a_L7demo</text>
<text text-anchor="start" x="1627" y="-139" font-family="Helvetica,sans-Serif" font-size="10.00">_dr/d_a_L7demo_dr/bridge</text>
<text text-anchor="middle" x="1685" y="-128" font-family="Helvetica,sans-Serif" font-size="10.00">_destroy2__6daDr_cFv.s</text>
</a>
</g>
</g>
<!-- Node1&#45;&gt;Node15 -->
<g id="edge15" class="edge">
<title>Node1&#45;&gt;Node15</title>
<path fill="none" stroke="#63b8ff" d="M1506.1,-197.52C1535.98,-188.33 1575.32,-176.23 1609.49,-165.72"/>
<polygon fill="#63b8ff" stroke="#63b8ff" points="1610.41,-169.1 1618.94,-162.81 1608.36,-162.41 1610.41,-169.1"/>
</g>
<!-- Node16 -->
<g id="node16" class="node">
<title>Node16</title>
<g id="a_node16"><a xlink:title=" ">
<polygon fill="#e0e0e0" stroke="#999999" points="1909,-162 1769,-162 1769,-121 1909,-121 1909,-162"/>
<text text-anchor="start" x="1777" y="-150" font-family="Helvetica,sans-Serif" font-size="10.00">asm/rel/d/a/d_a_L7demo</text>
<text text-anchor="start" x="1777" y="-139" font-family="Helvetica,sans-Serif" font-size="10.00">_dr/d_a_L7demo_dr/execute</text>
<text text-anchor="middle" x="1839" y="-128" font-family="Helvetica,sans-Serif" font-size="10.00">__6daDr_cFv.s</text>
</a>
</g>
</g>
<!-- Node1&#45;&gt;Node16 -->
<g id="edge16" class="edge">
<title>Node1&#45;&gt;Node16</title>
<path fill="none" stroke="#63b8ff" d="M1519.79,-203.31C1578.33,-194.63 1669.58,-180.27 1757.83,-162.37"/>
<polygon fill="#63b8ff" stroke="#63b8ff" points="1758.28,-165.85 1767.37,-160.42 1756.87,-158.99 1758.28,-165.85"/>
</g>
<!-- Node17 -->
<g id="node17" class="node">
<title>Node17</title>
<g id="a_node17"><a xlink:title=" ">
<polygon fill="#e0e0e0" stroke="#999999" points="2053,-162 1927,-162 1927,-121 2053,-121 2053,-162"/>
<text text-anchor="start" x="1935" y="-150" font-family="Helvetica,sans-Serif" font-size="10.00">asm/rel/d/a/d_a_L7demo</text>
<text text-anchor="start" x="1935" y="-139" font-family="Helvetica,sans-Serif" font-size="10.00">_dr/d_a_L7demo_dr/daDr</text>
<text text-anchor="middle" x="1990" y="-128" font-family="Helvetica,sans-Serif" font-size="10.00">_Execute__FP6daDr_c.s</text>
</a>
</g>
</g>
<!-- Node1&#45;&gt;Node17 -->
<g id="edge17" class="edge">
<title>Node1&#45;&gt;Node17</title>
<path fill="none" stroke="#63b8ff" d="M1519.96,-208.4C1606.15,-202.63 1768.63,-189.31 1915.52,-162.32"/>
<polygon fill="#63b8ff" stroke="#63b8ff" points="1915.85,-165.82 1925.03,-160.55 1914.56,-158.94 1915.85,-165.82"/>
</g>
<!-- Node18 -->
<g id="node18" class="node">
<title>Node18</title>
<g id="a_node18"><a xlink:title=" ">
<polygon fill="#e0e0e0" stroke="#999999" points="2208.5,-162 2071.5,-162 2071.5,-121 2208.5,-121 2208.5,-162"/>
<text text-anchor="start" x="2079.5" y="-150" font-family="Helvetica,sans-Serif" font-size="10.00">asm/rel/d/a/d_a_L7demo</text>
<text text-anchor="start" x="2079.5" y="-139" font-family="Helvetica,sans-Serif" font-size="10.00">_dr/d_a_L7demo_dr/_delete</text>
<text text-anchor="middle" x="2140" y="-128" font-family="Helvetica,sans-Serif" font-size="10.00">__6daDr_cFv.s</text>
</a>
</g>
</g>
<!-- Node1&#45;&gt;Node18 -->
<g id="edge18" class="edge">
<title>Node1&#45;&gt;Node18</title>
<path fill="none" stroke="#63b8ff" d="M1519.74,-210.22C1626.96,-206.37 1856.84,-194.94 2060.04,-162.17"/>
<polygon fill="#63b8ff" stroke="#63b8ff" points="2060.43,-165.65 2069.73,-160.58 2059.3,-158.74 2060.43,-165.65"/>
</g>
<!-- Node19 -->
<g id="node19" class="node">
<title>Node19</title>
<g id="a_node19"><a xlink:title=" ">
<polygon fill="#e0e0e0" stroke="#999999" points="2353,-162 2227,-162 2227,-121 2353,-121 2353,-162"/>
<text text-anchor="start" x="2235" y="-150" font-family="Helvetica,sans-Serif" font-size="10.00">asm/rel/d/a/d_a_L7demo</text>
<text text-anchor="start" x="2235" y="-139" font-family="Helvetica,sans-Serif" font-size="10.00">_dr/d_a_L7demo_dr/daDr</text>
<text text-anchor="middle" x="2290" y="-128" font-family="Helvetica,sans-Serif" font-size="10.00">_Delete__FP6daDr_c.s</text>
</a>
</g>
</g>
<!-- Node1&#45;&gt;Node19 -->
<g id="edge19" class="edge">
<title>Node1&#45;&gt;Node19</title>
<path fill="none" stroke="#63b8ff" d="M1519.98,-212.07C1647.63,-211.35 1952.27,-205 2215.24,-162.28"/>
<polygon fill="#63b8ff" stroke="#63b8ff" points="2215.76,-165.74 2225.05,-160.66 2214.62,-158.84 2215.76,-165.74"/>
</g>
<!-- Node20 -->
<g id="node20" class="node">
<title>Node20</title>
<g id="a_node20"><a xlink:title=" ">
<polygon fill="#e0e0e0" stroke="#999999" points="2529,-162 2371,-162 2371,-121 2529,-121 2529,-162"/>
<text text-anchor="start" x="2379" y="-150" font-family="Helvetica,sans-Serif" font-size="10.00">asm/rel/d/a/d_a_L7demo</text>
<text text-anchor="start" x="2379" y="-139" font-family="Helvetica,sans-Serif" font-size="10.00">_dr/d_a_L7demo_dr/CreateHeap</text>
<text text-anchor="middle" x="2450" y="-128" font-family="Helvetica,sans-Serif" font-size="10.00">__6daDr_cFv.s</text>
</a>
</g>
</g>
<!-- Node1&#45;&gt;Node20 -->
<g id="edge20" class="edge">
<title>Node1&#45;&gt;Node20</title>
<path fill="none" stroke="#63b8ff" d="M1519.83,-212.04C1664.1,-211.39 2038.31,-205.44 2359.55,-162.21"/>
<polygon fill="#63b8ff" stroke="#63b8ff" points="2360.02,-165.67 2369.46,-160.86 2359.08,-158.74 2360.02,-165.67"/>
</g>
<!-- Node21 -->
<g id="node21" class="node">
<title>Node21</title>
<g id="a_node21"><a xlink:title=" ">
<polygon fill="#e0e0e0" stroke="#999999" points="2705,-162 2547,-162 2547,-121 2705,-121 2705,-162"/>
<text text-anchor="start" x="2555" y="-150" font-family="Helvetica,sans-Serif" font-size="10.00">asm/rel/d/a/d_a_L7demo</text>
<text text-anchor="start" x="2555" y="-139" font-family="Helvetica,sans-Serif" font-size="10.00">_dr/d_a_L7demo_dr/useHeapInit</text>
<text text-anchor="middle" x="2626" y="-128" font-family="Helvetica,sans-Serif" font-size="10.00">__FP10fopAc_ac_c.s</text>
</a>
</g>
</g>
<!-- Node1&#45;&gt;Node21 -->
<g id="edge21" class="edge">
<title>Node1&#45;&gt;Node21</title>
<path fill="none" stroke="#63b8ff" d="M1519.84,-210.56C1713.82,-205.74 2317.14,-189.08 2535.61,-162.14"/>
<polygon fill="#63b8ff" stroke="#63b8ff" points="2535.99,-165.62 2545.46,-160.88 2535.1,-158.68 2535.99,-165.62"/>
</g>
<!-- Node22 -->
<g id="node22" class="node">
<title>Node22</title>
<g id="a_node22"><a xlink:title=" ">
<polygon fill="#e0e0e0" stroke="#999999" points="2855,-162 2723,-162 2723,-121 2855,-121 2855,-162"/>
<text text-anchor="start" x="2731" y="-150" font-family="Helvetica,sans-Serif" font-size="10.00">asm/rel/d/a/d_a_L7demo</text>
<text text-anchor="start" x="2731" y="-139" font-family="Helvetica,sans-Serif" font-size="10.00">_dr/d_a_L7demo_dr/check</text>
<text text-anchor="middle" x="2789" y="-128" font-family="Helvetica,sans-Serif" font-size="10.00">_start__6daDr_cFv.s</text>
</a>
</g>
</g>
<!-- Node1&#45;&gt;Node22 -->
<g id="edge22" class="edge">
<title>Node1&#45;&gt;Node22</title>
<path fill="none" stroke="#63b8ff" d="M1519.7,-211.31C1734.24,-208.59 2457.09,-197.11 2711.51,-162.13"/>
<polygon fill="#63b8ff" stroke="#63b8ff" points="2712,-165.6 2721.41,-160.72 2711.01,-158.67 2712,-165.6"/>
</g>
<!-- Node23 -->
<g id="node23" class="node">
<title>Node23</title>
<g id="a_node23"><a xlink:title=" ">
<polygon fill="#e0e0e0" stroke="#999999" points="3006.5,-162 2873.5,-162 2873.5,-121 3006.5,-121 3006.5,-162"/>
<text text-anchor="start" x="2881.5" y="-150" font-family="Helvetica,sans-Serif" font-size="10.00">asm/rel/d/a/d_a_L7demo</text>
<text text-anchor="start" x="2881.5" y="-139" font-family="Helvetica,sans-Serif" font-size="10.00">_dr/d_a_L7demo_dr/create</text>
<text text-anchor="middle" x="2940" y="-128" font-family="Helvetica,sans-Serif" font-size="10.00">__6daDr_cFv.s</text>
</a>
</g>
</g>
<!-- Node1&#45;&gt;Node23 -->
<g id="edge23" class="edge">
<title>Node1&#45;&gt;Node23</title>
<path fill="none" stroke="#63b8ff" d="M1519.97,-211.58C1751.43,-209.71 2576.57,-200.54 2861.88,-162.08"/>
<polygon fill="#63b8ff" stroke="#63b8ff" points="2862.1,-165.58 2871.52,-160.73 2861.13,-158.65 2862.1,-165.58"/>
</g>
<!-- Node24 -->
<g id="node24" class="node">
<title>Node24</title>
<g id="a_node24"><a xlink:title=" ">
<polygon fill="#e0e0e0" stroke="#999999" points="3151,-162 3025,-162 3025,-121 3151,-121 3151,-162"/>
<text text-anchor="start" x="3033" y="-150" font-family="Helvetica,sans-Serif" font-size="10.00">asm/rel/d/a/d_a_L7demo</text>
<text text-anchor="start" x="3033" y="-139" font-family="Helvetica,sans-Serif" font-size="10.00">_dr/d_a_L7demo_dr/daDr</text>
<text text-anchor="middle" x="3088" y="-128" font-family="Helvetica,sans-Serif" font-size="10.00">_Create__FP6daDr_c.s</text>
</a>
</g>
</g>
<!-- Node1&#45;&gt;Node24 -->
<g id="edge24" class="edge">
<title>Node1&#45;&gt;Node24</title>
<path fill="none" stroke="#63b8ff" d="M1519.65,-211.93C1766.54,-211.37 2697.42,-206.4 3013.58,-162.13"/>
<polygon fill="#63b8ff" stroke="#63b8ff" points="3013.67,-165.65 3023.07,-160.75 3012.67,-158.72 3013.67,-165.65"/>
</g>
<!-- Node2&#45;&gt;Node3 -->
<g id="edge2" class="edge">
<title>Node2&#45;&gt;Node3</title>
<path fill="none" stroke="#63b8ff" d="M64.1,-126.3C70.05,-117 77.89,-104.77 84.3,-94.76"/>
<polygon fill="#63b8ff" stroke="#63b8ff" points="87.07,-96.93 89.52,-86.62 81.18,-93.15 87.07,-96.93"/>
</g>
<!-- Node4 -->
<g id="node4" class="node">
<title>Node4</title>
<g id="a_node4"><a xlink:href="stddef_8h.html" target="_top" xlink:title=" ">
<polygon fill="white" stroke="#666666" points="164,-30 28,-30 28,0 164,0 164,-30"/>
<text text-anchor="start" x="36" y="-18" font-family="Helvetica,sans-Serif" font-size="10.00">MSL_C/MSL_Common/Src</text>
<text text-anchor="middle" x="96" y="-7" font-family="Helvetica,sans-Serif" font-size="10.00">/stddef.h</text>
</a>
</g>
</g>
<!-- Node3&#45;&gt;Node4 -->
<g id="edge3" class="edge">
<title>Node3&#45;&gt;Node4</title>
<path fill="none" stroke="#63b8ff" d="M96,-65.87C96,-59.4 96,-50.2 96,-41.45"/>
<polygon fill="#63b8ff" stroke="#63b8ff" points="99.5,-41.63 96,-31.63 92.5,-41.63 99.5,-41.63"/>
</g>
</g>
</svg>
        <g id="navigator" transform="translate(0 0)" fill="#404254">
                <rect fill="#f2f5e9" fill-opacity="0.5" stroke="#606060" stroke-width=".5" x="0" y="0" width="60" height="60"/>
                <use id="zoomplus" xlink:href="#zoomPlus" x="17" y="9" onmousedown="handleZoom(evt,'in')"/>
                <use id="zoomminus" xlink:href="#zoomMin" x="42" y="9" onmousedown="handleZoom(evt,'out')"/>
                <use id="reset" xlink:href="#resetDef" x="30" y="36" onmousedown="handleReset()"/>
                <g id="arrowUp" xlink:href="#dirArrow" transform="translate(30 24)" onmousedown="handlePan(0,-1)">
                  <use xlink:href="#rim" fill="#404040">
                        <set attributeName="fill" to="#808080" begin="arrowUp.mouseover" end="arrowUp.mouseout"/>
                  </use>
                  <path fill="none" stroke="white" stroke-width="1.5" d="M0,-3.0v7 M-2.5,-0.5L0,-3.0L2.5,-0.5"/>
                </g>
                <g id="arrowRight" xlink:href="#dirArrow" transform="rotate(90) translate(36 -43)" onmousedown="handlePan(1,0)">
                  <use xlink:href="#rim" fill="#404040">
                        <set attributeName="fill" to="#808080" begin="arrowRight.mouseover" end="arrowRight.mouseout"/>
                  </use>
                  <path fill="none" stroke="white" stroke-width="1.5" d="M0,-3.0v7 M-2.5,-0.5L0,-3.0L2.5,-0.5"/>
                </g>
                <g id="arrowDown" xlink:href="#dirArrow" transform="rotate(180) translate(-30 -48)" onmousedown="handlePan(0,1)">
                  <use xlink:href="#rim" fill="#404040">
                        <set attributeName="fill" to="#808080" begin="arrowDown.mouseover" end="arrowDown.mouseout"/>
                  </use>
                  <path fill="none" stroke="white" stroke-width="1.5" d="M0,-3.0v7 M-2.5,-0.5L0,-3.0L2.5,-0.5"/>
                </g>
                <g id="arrowLeft" xlink:href="#dirArrow" transform="rotate(270) translate(-36 17)" onmousedown="handlePan(-1,0)">
                  <use xlink:href="#rim" fill="#404040">
                        <set attributeName="fill" to="#808080" begin="arrowLeft.mouseover" end="arrowLeft.mouseout"/>
                  </use>
                  <path fill="none" stroke="white" stroke-width="1.5" d="M0,-3.0v7 M-2.5,-0.5L0,-3.0L2.5,-0.5"/>
                </g>
        </g>
        <svg viewBox="0 0 15 15" width="100%" height="30px" preserveAspectRatio="xMaxYMin meet">
         <g id="arrow_out" transform="scale(0.3 0.3)">
          <a xlink:href="d__a__L7demo__dr_8cpp__incl_org.svg" target="_base">
           <rect id="button" ry="5" rx="5" y="6" x="6" height="38" width="38"
                fill="#f2f5e9" fill-opacity="0.5" stroke="#606060" stroke-width="1.0"/>
           <path id="arrow"
             d="M 11.500037,31.436501 C 11.940474,20.09759 22.043105,11.32322 32.158766,21.979434 L 37.068811,17.246167 C 37.068811,17.246167 37.088388,32 37.088388,32 L 22.160133,31.978069 C 22.160133,31.978069 26.997745,27.140456 26.997745,27.140456 C 18.528582,18.264221 13.291696,25.230495 11.500037,31.436501 z"
             style="fill:#404040;"/>
          </a>
         </g>
        </svg>
</svg>
