<?xml version="1.0" encoding="UTF-8" standalone="no"?>
<!DOCTYPE svg PUBLIC "-//W3C//DTD SVG 1.1//EN"
 "http://www.w3.org/Graphics/SVG/1.1/DTD/svg11.dtd">
<!-- Generated by graphviz version 7.0.5 (20221223.1930)
 -->
<!-- Title: rel/d/a/obj/d_a_obj_lv4prelvtr/d_a_obj_lv4prelvtr.cpp Pages: 1 -->
<!--zoomable 258 -->
<svg id="main" version="1.1" xmlns="http://www.w3.org/2000/svg" xmlns:xlink="http://www.w3.org/1999/xlink" xml:space="preserve" onload="init(evt)">
<style type="text/css"><![CDATA[
.edge:hover path { stroke: red; }
.edge:hover polygon { stroke: red; fill: red; }
]]></style>
<script type="text/javascript"><![CDATA[
var edges = document.getElementsByTagName('g');
if (edges && edges.length) {
  for (var i=0;i<edges.length;i++) {
    if (edges[i].id.substr(0,4)=='edge') {
      edges[i].setAttribute('class','edge');
    }
  }
}
]]></script>
        <defs>
                <circle id="rim" cx="0" cy="0" r="7"/>
                <circle id="rim2" cx="0" cy="0" r="3.5"/>
                <g id="zoomPlus">
                        <use xlink:href="#rim" fill="#404040">
                                <set attributeName="fill" to="#808080" begin="zoomplus.mouseover" end="zoomplus.mouseout"/>
                        </use>
                        <path d="M-4,0h8M0,-4v8" fill="none" stroke="white" stroke-width="1.5" pointer-events="none"/>
                </g>
                <g id="zoomMin">
                        <use xlink:href="#rim" fill="#404040">
                                <set attributeName="fill" to="#808080" begin="zoomminus.mouseover" end="zoomminus.mouseout"/>
                        </use>
                        <path d="M-4,0h8" fill="none" stroke="white" stroke-width="1.5" pointer-events="none"/>
                </g>
                <g id="dirArrow">
                        <path fill="none" stroke="white" stroke-width="1.5" d="M0,-3.0v7 M-2.5,-0.5L0,-3.0L2.5,-0.5"/>
                </g>
               <g id="resetDef">
                       <use xlink:href="#rim2" fill="#404040">
                               <set attributeName="fill" to="#808080" begin="reset.mouseover" end="reset.mouseout"/>
                       </use>
               </g>
        </defs>

<script type="text/javascript">
var viewWidth = 2425;
var viewHeight = 258;
var sectionId = 'dynsection-0';
</script>
<script xlink:href="svgpan.js"/>
<svg id="graph" class="graph">
<g id="viewport">
<title>rel/d/a/obj/d_a_obj_lv4prelvtr/d_a_obj_lv4prelvtr.cpp</title>
<!-- Node1 -->
<g id="node1" class="node">
<title>Node1</title>
<g id="a_node1"><a xlink:title=" ">
<polygon fill="#999999" stroke="#666666" points="1022,-250 924,-250 924,-209 1022,-209 1022,-250"/>
<text text-anchor="start" x="932" y="-238" font-family="Helvetica,sans-Serif" font-size="10.00">rel/d/a/obj/d_a_obj</text>
<text text-anchor="start" x="932" y="-227" font-family="Helvetica,sans-Serif" font-size="10.00">_lv4prelvtr/d_a_obj</text>
<text text-anchor="middle" x="973" y="-216" font-family="Helvetica,sans-Serif" font-size="10.00">_lv4prelvtr.cpp</text>
</a>
</g>
</g>
<!-- Node2 -->
<g id="node2" class="node">
<title>Node2</title>
<g id="a_node2"><a xlink:href="d__a__obj__lv4prelvtr_8h.html" target="_top" xlink:title=" ">
<polygon fill="white" stroke="#666666" points="98,-167.5 0,-167.5 0,-126.5 98,-126.5 98,-167.5"/>
<text text-anchor="start" x="8" y="-155.5" font-family="Helvetica,sans-Serif" font-size="10.00">rel/d/a/obj/d_a_obj</text>
<text text-anchor="start" x="8" y="-144.5" font-family="Helvetica,sans-Serif" font-size="10.00">_lv4prelvtr/d_a_obj</text>
<text text-anchor="middle" x="49" y="-133.5" font-family="Helvetica,sans-Serif" font-size="10.00">_lv4prelvtr.h</text>
</a>
</g>
</g>
<!-- Node1&#45;&gt;Node2 -->
<g id="edge1" class="edge">
<title>Node1&#45;&gt;Node2</title>
<path fill="none" stroke="#63b8ff" d="M923.71,-227.35C764.97,-223.31 268.37,-208.14 112,-173 109.71,-172.49 107.4,-171.9 105.08,-171.26"/>
<polygon fill="#63b8ff" stroke="#63b8ff" points="106.26,-167.96 95.68,-168.34 104.19,-174.65 106.26,-167.96"/>
</g>
<!-- Node3 -->
<g id="node3" class="node">
<title>Node3</title>
<g id="a_node3"><a xlink:href="types_8h.html" target="_top" xlink:title=" ">
<polygon fill="white" stroke="#666666" points="127.5,-85 46.5,-85 46.5,-66 127.5,-66 127.5,-85"/>
<text text-anchor="middle" x="87" y="-73" font-family="Helvetica,sans-Serif" font-size="10.00">dolphin/types.h</text>
</a>
</g>
</g>
<!-- Node1&#45;&gt;Node3 -->
<g id="edge5" class="edge">
<title>Node1&#45;&gt;Node3</title>
<path fill="none" stroke="#63b8ff" d="M923.61,-227.81C755.52,-225.09 212.47,-213.25 146,-173 131.07,-163.96 108.42,-120.94 95.98,-95.49"/>
<polygon fill="#63b8ff" stroke="#63b8ff" points="99.18,-94.08 91.7,-86.59 92.88,-97.12 99.18,-94.08"/>
</g>
<!-- Node5 -->
<g id="node5" class="node">
<title>Node5</title>
<g id="a_node5"><a xlink:href="dol2asm_8h.html" target="_top" xlink:title=" ">
<polygon fill="white" stroke="#666666" points="215.5,-156.5 154.5,-156.5 154.5,-137.5 215.5,-137.5 215.5,-156.5"/>
<text text-anchor="middle" x="185" y="-144.5" font-family="Helvetica,sans-Serif" font-size="10.00">dol2asm.h</text>
</a>
</g>
</g>
<!-- Node1&#45;&gt;Node5 -->
<g id="edge4" class="edge">
<title>Node1&#45;&gt;Node5</title>
<path fill="none" stroke="#63b8ff" d="M923.63,-227.92C778.54,-225.72 355.49,-215.71 225,-173 218.12,-170.75 211.22,-167.07 205.14,-163.22"/>
<polygon fill="#63b8ff" stroke="#63b8ff" points="207.28,-160.45 197.06,-157.66 203.31,-166.21 207.28,-160.45"/>
</g>
<!-- Node6 -->
<g id="node6" class="node">
<title>Node6</title>
<g id="a_node6"><a xlink:title=" ">
<polygon fill="#e0e0e0" stroke="#999999" points="358.5,-173 233.5,-173 233.5,-121 358.5,-121 358.5,-173"/>
<text text-anchor="start" x="241.5" y="-161" font-family="Helvetica,sans-Serif" font-size="10.00">asm/rel/d/a/obj/d_a</text>
<text text-anchor="start" x="241.5" y="-150" font-family="Helvetica,sans-Serif" font-size="10.00">_obj_lv4prelvtr/d_a</text>
<text text-anchor="start" x="241.5" y="-139" font-family="Helvetica,sans-Serif" font-size="10.00">_obj_lv4prelvtr/create1st</text>
<text text-anchor="middle" x="296" y="-128" font-family="Helvetica,sans-Serif" font-size="10.00">__14daObjPRElvtr_cFv.s</text>
</a>
</g>
</g>
<!-- Node1&#45;&gt;Node6 -->
<g id="edge6" class="edge">
<title>Node1&#45;&gt;Node6</title>
<path fill="none" stroke="#63b8ff" d="M923.77,-228.01C821.71,-226.13 579.8,-217.21 370.19,-173.23"/>
<polygon fill="#63b8ff" stroke="#63b8ff" points="370.96,-169.81 360.45,-171.15 369.5,-176.66 370.96,-169.81"/>
</g>
<!-- Node7 -->
<g id="node7" class="node">
<title>Node7</title>
<g id="a_node7"><a xlink:title=" ">
<polygon fill="#e0e0e0" stroke="#999999" points="501.5,-173 376.5,-173 376.5,-121 501.5,-121 501.5,-173"/>
<text text-anchor="start" x="384.5" y="-161" font-family="Helvetica,sans-Serif" font-size="10.00">asm/rel/d/a/obj/d_a</text>
<text text-anchor="start" x="384.5" y="-150" font-family="Helvetica,sans-Serif" font-size="10.00">_obj_lv4prelvtr/d_a</text>
<text text-anchor="start" x="384.5" y="-139" font-family="Helvetica,sans-Serif" font-size="10.00">_obj_lv4prelvtr/setMtx</text>
<text text-anchor="middle" x="439" y="-128" font-family="Helvetica,sans-Serif" font-size="10.00">__14daObjPRElvtr_cFv.s</text>
</a>
</g>
</g>
<!-- Node1&#45;&gt;Node7 -->
<g id="edge7" class="edge">
<title>Node1&#45;&gt;Node7</title>
<path fill="none" stroke="#63b8ff" d="M923.51,-226.04C840.3,-221.16 667.15,-207.76 513.05,-173.25"/>
<polygon fill="#63b8ff" stroke="#63b8ff" points="513.99,-169.88 503.47,-171.07 512.44,-176.7 513.99,-169.88"/>
</g>
<!-- Node8 -->
<g id="node8" class="node">
<title>Node8</title>
<g id="a_node8"><a xlink:title=" ">
<polygon fill="#e0e0e0" stroke="#999999" points="654,-173 520,-173 520,-121 654,-121 654,-173"/>
<text text-anchor="start" x="528" y="-161" font-family="Helvetica,sans-Serif" font-size="10.00">asm/rel/d/a/obj/d_a</text>
<text text-anchor="start" x="528" y="-150" font-family="Helvetica,sans-Serif" font-size="10.00">_obj_lv4prelvtr/d_a</text>
<text text-anchor="start" x="528" y="-139" font-family="Helvetica,sans-Serif" font-size="10.00">_obj_lv4prelvtr/CreateHeap</text>
<text text-anchor="middle" x="587" y="-128" font-family="Helvetica,sans-Serif" font-size="10.00">__14daObjPRElvtr_cFv.s</text>
</a>
</g>
</g>
<!-- Node1&#45;&gt;Node8 -->
<g id="edge8" class="edge">
<title>Node1&#45;&gt;Node8</title>
<path fill="none" stroke="#63b8ff" d="M923.59,-221.75C864.49,-213.2 762.46,-196.98 665.63,-173.25"/>
<polygon fill="#63b8ff" stroke="#63b8ff" points="666.47,-169.86 655.92,-170.84 664.78,-176.65 666.47,-169.86"/>
</g>
<!-- Node9 -->
<g id="node9" class="node">
<title>Node9</title>
<g id="a_node9"><a xlink:title=" ">
<polygon fill="#e0e0e0" stroke="#999999" points="797.5,-173 672.5,-173 672.5,-121 797.5,-121 797.5,-173"/>
<text text-anchor="start" x="680.5" y="-161" font-family="Helvetica,sans-Serif" font-size="10.00">asm/rel/d/a/obj/d_a</text>
<text text-anchor="start" x="680.5" y="-150" font-family="Helvetica,sans-Serif" font-size="10.00">_obj_lv4prelvtr/d_a</text>
<text text-anchor="start" x="680.5" y="-139" font-family="Helvetica,sans-Serif" font-size="10.00">_obj_lv4prelvtr/Create</text>
<text text-anchor="middle" x="735" y="-128" font-family="Helvetica,sans-Serif" font-size="10.00">__14daObjPRElvtr_cFv.s</text>
</a>
</g>
</g>
<!-- Node1&#45;&gt;Node9 -->
<g id="edge9" class="edge">
<title>Node1&#45;&gt;Node9</title>
<path fill="none" stroke="#63b8ff" d="M923.56,-212.14C892.97,-201.98 852.65,-188.51 808.5,-173.5"/>
<polygon fill="#63b8ff" stroke="#63b8ff" points="809.84,-170.26 799.25,-170.35 807.58,-176.88 809.84,-170.26"/>
</g>
<!-- Node10 -->
<g id="node10" class="node">
<title>Node10</title>
<g id="a_node10"><a xlink:title=" ">
<polygon fill="#e0e0e0" stroke="#999999" points="956.5,-173 815.5,-173 815.5,-121 956.5,-121 956.5,-173"/>
<text text-anchor="start" x="823.5" y="-161" font-family="Helvetica,sans-Serif" font-size="10.00">asm/rel/d/a/obj/d_a</text>
<text text-anchor="start" x="823.5" y="-150" font-family="Helvetica,sans-Serif" font-size="10.00">_obj_lv4prelvtr/d_a</text>
<text text-anchor="start" x="823.5" y="-139" font-family="Helvetica,sans-Serif" font-size="10.00">_obj_lv4prelvtr/searchObjSw</text>
<text text-anchor="middle" x="886" y="-128" font-family="Helvetica,sans-Serif" font-size="10.00">Turn__FPvPv.s</text>
</a>
</g>
</g>
<!-- Node1&#45;&gt;Node10 -->
<g id="edge10" class="edge">
<title>Node1&#45;&gt;Node10</title>
<path fill="none" stroke="#63b8ff" d="M951.49,-208.6C942.53,-200.31 931.88,-190.45 921.79,-181.12"/>
<polygon fill="#63b8ff" stroke="#63b8ff" points="924.34,-178.7 914.62,-174.48 919.58,-183.84 924.34,-178.7"/>
</g>
<!-- Node11 -->
<g id="node11" class="node">
<title>Node11</title>
<g id="a_node11"><a xlink:title=" ">
<polygon fill="#e0e0e0" stroke="#999999" points="1145.5,-173 974.5,-173 974.5,-121 1145.5,-121 1145.5,-173"/>
<text text-anchor="start" x="982.5" y="-161" font-family="Helvetica,sans-Serif" font-size="10.00">asm/rel/d/a/obj/d_a</text>
<text text-anchor="start" x="982.5" y="-150" font-family="Helvetica,sans-Serif" font-size="10.00">_obj_lv4prelvtr/d_a</text>
<text text-anchor="start" x="982.5" y="-139" font-family="Helvetica,sans-Serif" font-size="10.00">_obj_lv4prelvtr/Execute</text>
<text text-anchor="middle" x="1060" y="-128" font-family="Helvetica,sans-Serif" font-size="10.00">__14daObjPRElvtr_cFPPA3_A4_f.s</text>
</a>
</g>
</g>
<!-- Node1&#45;&gt;Node11 -->
<g id="edge11" class="edge">
<title>Node1&#45;&gt;Node11</title>
<path fill="none" stroke="#63b8ff" d="M994.51,-208.6C1003.47,-200.31 1014.12,-190.45 1024.21,-181.12"/>
<polygon fill="#63b8ff" stroke="#63b8ff" points="1026.42,-183.84 1031.38,-174.48 1021.66,-178.7 1026.42,-183.84"/>
</g>
<!-- Node12 -->
<g id="node12" class="node">
<title>Node12</title>
<g id="a_node12"><a xlink:title=" ">
<polygon fill="#e0e0e0" stroke="#999999" points="1288.5,-173 1163.5,-173 1163.5,-121 1288.5,-121 1288.5,-173"/>
<text text-anchor="start" x="1171.5" y="-161" font-family="Helvetica,sans-Serif" font-size="10.00">asm/rel/d/a/obj/d_a</text>
<text text-anchor="start" x="1171.5" y="-150" font-family="Helvetica,sans-Serif" font-size="10.00">_obj_lv4prelvtr/d_a</text>
<text text-anchor="start" x="1171.5" y="-139" font-family="Helvetica,sans-Serif" font-size="10.00">_obj_lv4prelvtr/Draw</text>
<text text-anchor="middle" x="1226" y="-128" font-family="Helvetica,sans-Serif" font-size="10.00">__14daObjPRElvtr_cFv.s</text>
</a>
</g>
</g>
<!-- Node1&#45;&gt;Node12 -->
<g id="edge12" class="edge">
<title>Node1&#45;&gt;Node12</title>
<path fill="none" stroke="#63b8ff" d="M1022.23,-214.11C1056.44,-203.96 1103.33,-189.79 1152.48,-173.78"/>
<polygon fill="#63b8ff" stroke="#63b8ff" points="1153.48,-177.14 1161.89,-170.7 1151.3,-170.49 1153.48,-177.14"/>
</g>
<!-- Node13 -->
<g id="node13" class="node">
<title>Node13</title>
<g id="a_node13"><a xlink:title=" ">
<polygon fill="#e0e0e0" stroke="#999999" points="1431.5,-173 1306.5,-173 1306.5,-121 1431.5,-121 1431.5,-173"/>
<text text-anchor="start" x="1314.5" y="-161" font-family="Helvetica,sans-Serif" font-size="10.00">asm/rel/d/a/obj/d_a</text>
<text text-anchor="start" x="1314.5" y="-150" font-family="Helvetica,sans-Serif" font-size="10.00">_obj_lv4prelvtr/d_a</text>
<text text-anchor="start" x="1314.5" y="-139" font-family="Helvetica,sans-Serif" font-size="10.00">_obj_lv4prelvtr/Delete</text>
<text text-anchor="middle" x="1369" y="-128" font-family="Helvetica,sans-Serif" font-size="10.00">__14daObjPRElvtr_cFv.s</text>
</a>
</g>
</g>
<!-- Node1&#45;&gt;Node13 -->
<g id="edge13" class="edge">
<title>Node1&#45;&gt;Node13</title>
<path fill="none" stroke="#63b8ff" d="M1022.28,-222.73C1084.17,-214.9 1193.69,-199.14 1295.03,-173.61"/>
<polygon fill="#63b8ff" stroke="#63b8ff" points="1295.79,-177.03 1304.6,-171.16 1294.05,-170.25 1295.79,-177.03"/>
</g>
<!-- Node14 -->
<g id="node14" class="node">
<title>Node14</title>
<g id="a_node14"><a xlink:title=" ">
<polygon fill="#e0e0e0" stroke="#999999" points="1622.5,-173 1449.5,-173 1449.5,-121 1622.5,-121 1622.5,-173"/>
<text text-anchor="start" x="1457.5" y="-161" font-family="Helvetica,sans-Serif" font-size="10.00">asm/rel/d/a/obj/d_a</text>
<text text-anchor="start" x="1457.5" y="-150" font-family="Helvetica,sans-Serif" font-size="10.00">_obj_lv4prelvtr/d_a</text>
<text text-anchor="start" x="1457.5" y="-139" font-family="Helvetica,sans-Serif" font-size="10.00">_obj_lv4prelvtr/daObjPRElvtr</text>
<text text-anchor="middle" x="1536" y="-128" font-family="Helvetica,sans-Serif" font-size="10.00">_create1st__FP14daObjPRElvtr_c.s</text>
</a>
</g>
</g>
<!-- Node1&#45;&gt;Node14 -->
<g id="edge14" class="edge">
<title>Node1&#45;&gt;Node14</title>
<path fill="none" stroke="#63b8ff" d="M1022.19,-224.93C1105.83,-218.38 1281.21,-202.51 1437.89,-173.49"/>
<polygon fill="#63b8ff" stroke="#63b8ff" points="1438.47,-176.94 1447.65,-171.66 1437.17,-170.06 1438.47,-176.94"/>
</g>
<!-- Node15 -->
<g id="node15" class="node">
<title>Node15</title>
<g id="a_node15"><a xlink:title=" ">
<polygon fill="#e0e0e0" stroke="#999999" points="1839,-173 1641,-173 1641,-121 1839,-121 1839,-173"/>
<text text-anchor="start" x="1649" y="-161" font-family="Helvetica,sans-Serif" font-size="10.00">asm/rel/d/a/obj/d_a</text>
<text text-anchor="start" x="1649" y="-150" font-family="Helvetica,sans-Serif" font-size="10.00">_obj_lv4prelvtr/d_a</text>
<text text-anchor="start" x="1649" y="-139" font-family="Helvetica,sans-Serif" font-size="10.00">_obj_lv4prelvtr/daObjPRElvtr</text>
<text text-anchor="middle" x="1740" y="-128" font-family="Helvetica,sans-Serif" font-size="10.00">_MoveBGDelete__FP14daObjPRElvtr_c.s</text>
</a>
</g>
</g>
<!-- Node1&#45;&gt;Node15 -->
<g id="edge15" class="edge">
<title>Node1&#45;&gt;Node15</title>
<path fill="none" stroke="#63b8ff" d="M1022.48,-226.76C1130.82,-222.43 1397.23,-208.93 1629.28,-173.33"/>
<polygon fill="#63b8ff" stroke="#63b8ff" points="1629.81,-176.79 1639.16,-171.79 1628.74,-169.87 1629.81,-176.79"/>
</g>
<!-- Node16 -->
<g id="node16" class="node">
<title>Node16</title>
<g id="a_node16"><a xlink:title=" ">
<polygon fill="#e0e0e0" stroke="#999999" points="2062.5,-173 1857.5,-173 1857.5,-121 2062.5,-121 2062.5,-173"/>
<text text-anchor="start" x="1865.5" y="-161" font-family="Helvetica,sans-Serif" font-size="10.00">asm/rel/d/a/obj/d_a</text>
<text text-anchor="start" x="1865.5" y="-150" font-family="Helvetica,sans-Serif" font-size="10.00">_obj_lv4prelvtr/d_a</text>
<text text-anchor="start" x="1865.5" y="-139" font-family="Helvetica,sans-Serif" font-size="10.00">_obj_lv4prelvtr/daObjPRElvtr</text>
<text text-anchor="middle" x="1960" y="-128" font-family="Helvetica,sans-Serif" font-size="10.00">_MoveBGExecute__FP14daObjPRElvtr_c.s</text>
</a>
</g>
</g>
<!-- Node1&#45;&gt;Node16 -->
<g id="edge16" class="edge">
<title>Node1&#45;&gt;Node16</title>
<path fill="none" stroke="#63b8ff" d="M1022.13,-228.07C1154.01,-226.34 1526.81,-217.69 1845.95,-173.18"/>
<polygon fill="#63b8ff" stroke="#63b8ff" points="1846.36,-176.66 1855.78,-171.79 1845.39,-169.73 1846.36,-176.66"/>
</g>
<!-- Node17 -->
<g id="node17" class="node">
<title>Node17</title>
<g id="a_node17"><a xlink:title=" ">
<polygon fill="#e0e0e0" stroke="#999999" points="2273.5,-173 2080.5,-173 2080.5,-121 2273.5,-121 2273.5,-173"/>
<text text-anchor="start" x="2088.5" y="-161" font-family="Helvetica,sans-Serif" font-size="10.00">asm/rel/d/a/obj/d_a</text>
<text text-anchor="start" x="2088.5" y="-150" font-family="Helvetica,sans-Serif" font-size="10.00">_obj_lv4prelvtr/d_a</text>
<text text-anchor="start" x="2088.5" y="-139" font-family="Helvetica,sans-Serif" font-size="10.00">_obj_lv4prelvtr/daObjPRElvtr</text>
<text text-anchor="middle" x="2177" y="-128" font-family="Helvetica,sans-Serif" font-size="10.00">_MoveBGDraw__FP14daObjPRElvtr_c.s</text>
</a>
</g>
</g>
<!-- Node1&#45;&gt;Node17 -->
<g id="edge17" class="edge">
<title>Node1&#45;&gt;Node17</title>
<path fill="none" stroke="#63b8ff" d="M1022.26,-227.21C1204.78,-222.26 1843.23,-203.27 2069.07,-173.27"/>
<polygon fill="#63b8ff" stroke="#63b8ff" points="2069.23,-176.78 2078.65,-171.95 2068.27,-169.85 2069.23,-176.78"/>
</g>
<!-- Node18 -->
<g id="node18" class="node">
<title>Node18</title>
<g id="a_node18"><a xlink:title=" ">
<polygon fill="#e0e0e0" stroke="#999999" points="2416.5,-173 2291.5,-173 2291.5,-121 2416.5,-121 2416.5,-173"/>
<text text-anchor="start" x="2299.5" y="-161" font-family="Helvetica,sans-Serif" font-size="10.00">asm/rel/d/a/obj/d_a</text>
<text text-anchor="start" x="2299.5" y="-150" font-family="Helvetica,sans-Serif" font-size="10.00">_obj_lv4prelvtr/d_a</text>
<text text-anchor="start" x="2299.5" y="-139" font-family="Helvetica,sans-Serif" font-size="10.00">_obj_lv4prelvtr/__dt</text>
<text text-anchor="middle" x="2354" y="-128" font-family="Helvetica,sans-Serif" font-size="10.00">__14daObjPRElvtr_cFv.s</text>
</a>
</g>
</g>
<!-- Node1&#45;&gt;Node18 -->
<g id="edge18" class="edge">
<title>Node1&#45;&gt;Node18</title>
<path fill="none" stroke="#63b8ff" d="M1022.35,-228.36C1227.21,-227.47 2011.95,-221.07 2279.94,-173.29"/>
<polygon fill="#63b8ff" stroke="#63b8ff" points="2280.49,-176.75 2289.68,-171.49 2279.21,-169.87 2280.49,-176.75"/>
</g>
<!-- Node2&#45;&gt;Node3 -->
<g id="edge2" class="edge">
<title>Node2&#45;&gt;Node3</title>
<path fill="none" stroke="#63b8ff" d="M59.79,-126.27C65.09,-116.58 71.44,-104.96 76.68,-95.38"/>
<polygon fill="#63b8ff" stroke="#63b8ff" points="79.73,-97.1 81.45,-86.65 73.58,-93.74 79.73,-97.1"/>
</g>
<!-- Node4 -->
<g id="node4" class="node">
<title>Node4</title>
<g id="a_node4"><a xlink:href="stddef_8h.html" target="_top" xlink:title=" ">
<polygon fill="white" stroke="#666666" points="155,-30 19,-30 19,0 155,0 155,-30"/>
<text text-anchor="start" x="27" y="-18" font-family="Helvetica,sans-Serif" font-size="10.00">MSL_C/MSL_Common/Src</text>
<text text-anchor="middle" x="87" y="-7" font-family="Helvetica,sans-Serif" font-size="10.00">/stddef.h</text>
</a>
</g>
</g>
<!-- Node3&#45;&gt;Node4 -->
<g id="edge3" class="edge">
<title>Node3&#45;&gt;Node4</title>
<path fill="none" stroke="#63b8ff" d="M87,-65.87C87,-59.4 87,-50.2 87,-41.45"/>
<polygon fill="#63b8ff" stroke="#63b8ff" points="90.5,-41.63 87,-31.63 83.5,-41.63 90.5,-41.63"/>
</g>
</g>
</svg>
        <g id="navigator" transform="translate(0 0)" fill="#404254">
                <rect fill="#f2f5e9" fill-opacity="0.5" stroke="#606060" stroke-width=".5" x="0" y="0" width="60" height="60"/>
                <use id="zoomplus" xlink:href="#zoomPlus" x="17" y="9" onmousedown="handleZoom(evt,'in')"/>
                <use id="zoomminus" xlink:href="#zoomMin" x="42" y="9" onmousedown="handleZoom(evt,'out')"/>
                <use id="reset" xlink:href="#resetDef" x="30" y="36" onmousedown="handleReset()"/>
                <g id="arrowUp" xlink:href="#dirArrow" transform="translate(30 24)" onmousedown="handlePan(0,-1)">
                  <use xlink:href="#rim" fill="#404040">
                        <set attributeName="fill" to="#808080" begin="arrowUp.mouseover" end="arrowUp.mouseout"/>
                  </use>
                  <path fill="none" stroke="white" stroke-width="1.5" d="M0,-3.0v7 M-2.5,-0.5L0,-3.0L2.5,-0.5"/>
                </g>
                <g id="arrowRight" xlink:href="#dirArrow" transform="rotate(90) translate(36 -43)" onmousedown="handlePan(1,0)">
                  <use xlink:href="#rim" fill="#404040">
                        <set attributeName="fill" to="#808080" begin="arrowRight.mouseover" end="arrowRight.mouseout"/>
                  </use>
                  <path fill="none" stroke="white" stroke-width="1.5" d="M0,-3.0v7 M-2.5,-0.5L0,-3.0L2.5,-0.5"/>
                </g>
                <g id="arrowDown" xlink:href="#dirArrow" transform="rotate(180) translate(-30 -48)" onmousedown="handlePan(0,1)">
                  <use xlink:href="#rim" fill="#404040">
                        <set attributeName="fill" to="#808080" begin="arrowDown.mouseover" end="arrowDown.mouseout"/>
                  </use>
                  <path fill="none" stroke="white" stroke-width="1.5" d="M0,-3.0v7 M-2.5,-0.5L0,-3.0L2.5,-0.5"/>
                </g>
                <g id="arrowLeft" xlink:href="#dirArrow" transform="rotate(270) translate(-36 17)" onmousedown="handlePan(-1,0)">
                  <use xlink:href="#rim" fill="#404040">
                        <set attributeName="fill" to="#808080" begin="arrowLeft.mouseover" end="arrowLeft.mouseout"/>
                  </use>
                  <path fill="none" stroke="white" stroke-width="1.5" d="M0,-3.0v7 M-2.5,-0.5L0,-3.0L2.5,-0.5"/>
                </g>
        </g>
        <svg viewBox="0 0 15 15" width="100%" height="30px" preserveAspectRatio="xMaxYMin meet">
         <g id="arrow_out" transform="scale(0.3 0.3)">
          <a xlink:href="d__a__obj__lv4prelvtr_8cpp__incl_org.svg" target="_base">
           <rect id="button" ry="5" rx="5" y="6" x="6" height="38" width="38"
                fill="#f2f5e9" fill-opacity="0.5" stroke="#606060" stroke-width="1.0"/>
           <path id="arrow"
             d="M 11.500037,31.436501 C 11.940474,20.09759 22.043105,11.32322 32.158766,21.979434 L 37.068811,17.246167 C 37.068811,17.246167 37.088388,32 37.088388,32 L 22.160133,31.978069 C 22.160133,31.978069 26.997745,27.140456 26.997745,27.140456 C 18.528582,18.264221 13.291696,25.230495 11.500037,31.436501 z"
             style="fill:#404040;"/>
          </a>
         </g>
        </svg>
</svg>
