<?xml version="1.0" encoding="UTF-8" standalone="no"?>
<!DOCTYPE svg PUBLIC "-//W3C//DTD SVG 1.1//EN"
 "http://www.w3.org/Graphics/SVG/1.1/DTD/svg11.dtd">
<!-- Generated by graphviz version 7.0.5 (20221223.1930)
 -->
<!-- Title: rel/d/a/d_a_canoe/d_a_canoe.cpp Pages: 1 -->
<!--zoomable 181 -->
<svg id="main" version="1.1" xmlns="http://www.w3.org/2000/svg" xmlns:xlink="http://www.w3.org/1999/xlink" xml:space="preserve" onload="init(evt)">
<style type="text/css"><![CDATA[
.edge:hover path { stroke: red; }
.edge:hover polygon { stroke: red; fill: red; }
]]></style>
<script type="text/javascript"><![CDATA[
var edges = document.getElementsByTagName('g');
if (edges && edges.length) {
  for (var i=0;i<edges.length;i++) {
    if (edges[i].id.substr(0,4)=='edge') {
      edges[i].setAttribute('class','edge');
    }
  }
}
]]></script>
        <defs>
                <circle id="rim" cx="0" cy="0" r="7"/>
                <circle id="rim2" cx="0" cy="0" r="3.5"/>
                <g id="zoomPlus">
                        <use xlink:href="#rim" fill="#404040">
                                <set attributeName="fill" to="#808080" begin="zoomplus.mouseover" end="zoomplus.mouseout"/>
                        </use>
                        <path d="M-4,0h8M0,-4v8" fill="none" stroke="white" stroke-width="1.5" pointer-events="none"/>
                </g>
                <g id="zoomMin">
                        <use xlink:href="#rim" fill="#404040">
                                <set attributeName="fill" to="#808080" begin="zoomminus.mouseover" end="zoomminus.mouseout"/>
                        </use>
                        <path d="M-4,0h8" fill="none" stroke="white" stroke-width="1.5" pointer-events="none"/>
                </g>
                <g id="dirArrow">
                        <path fill="none" stroke="white" stroke-width="1.5" d="M0,-3.0v7 M-2.5,-0.5L0,-3.0L2.5,-0.5"/>
                </g>
               <g id="resetDef">
                       <use xlink:href="#rim2" fill="#404040">
                               <set attributeName="fill" to="#808080" begin="reset.mouseover" end="reset.mouseout"/>
                       </use>
               </g>
        </defs>

<script type="text/javascript">
var viewWidth = 6704;
var viewHeight = 181;
var sectionId = 'dynsection-0';
</script>
<script xlink:href="svgpan.js"/>
<svg id="graph" class="graph">
<g id="viewport">
<title>rel/d/a/d_a_canoe/d_a_canoe.cpp</title>
<!-- Node1 -->
<g id="node1" class="node">
<title>Node1</title>
<g id="a_node1"><a xlink:title=" ">
<polygon fill="#999999" stroke="#666666" points="3531,-173 3429,-173 3429,-143 3531,-143 3531,-173"/>
<text text-anchor="start" x="3437" y="-161" font-family="Helvetica,sans-Serif" font-size="10.00">rel/d/a/d_a_canoe/d</text>
<text text-anchor="middle" x="3480" y="-150" font-family="Helvetica,sans-Serif" font-size="10.00">_a_canoe.cpp</text>
</a>
</g>
</g>
<!-- Node2 -->
<g id="node2" class="node">
<title>Node2</title>
<g id="a_node2"><a xlink:href="d__a__canoe_8h.html" target="_top" xlink:title=" ">
<polygon fill="white" stroke="#666666" points="460,-101.5 358,-101.5 358,-71.5 460,-71.5 460,-101.5"/>
<text text-anchor="start" x="366" y="-89.5" font-family="Helvetica,sans-Serif" font-size="10.00">rel/d/a/d_a_canoe/d</text>
<text text-anchor="middle" x="409" y="-78.5" font-family="Helvetica,sans-Serif" font-size="10.00">_a_canoe.h</text>
</a>
</g>
</g>
<!-- Node1&#45;&gt;Node2 -->
<g id="edge1" class="edge">
<title>Node1&#45;&gt;Node2</title>
<path fill="none" stroke="#63b8ff" d="M3428.61,-156.61C3157.44,-154.44 1865.28,-142.63 809,-107 689.62,-102.97 550.32,-95.57 471.61,-91.13"/>
<polygon fill="#63b8ff" stroke="#63b8ff" points="472.13,-87.66 461.95,-90.59 471.74,-94.65 472.13,-87.66"/>
</g>
<!-- Node3 -->
<g id="node3" class="node">
<title>Node3</title>
<g id="a_node3"><a xlink:href="f__op__actor__mng_8h.html" target="_top" xlink:title=" ">
<polygon fill="#fff0f0" stroke="red" points="116,-24.5 0,-24.5 0,-5.5 116,-5.5 116,-24.5"/>
<text text-anchor="middle" x="58" y="-12.5" font-family="Helvetica,sans-Serif" font-size="10.00">f_op/f_op_actor_mng.h</text>
</a>
</g>
</g>
<!-- Node1&#45;&gt;Node3 -->
<g id="edge17" class="edge">
<title>Node1&#45;&gt;Node3</title>
<path fill="none" stroke="#63b8ff" d="M3428.76,-157.07C3047.97,-157.46 664.92,-157.83 349,-107 251.87,-91.37 142.39,-50.47 89.69,-29.23"/>
<polygon fill="#63b8ff" stroke="#63b8ff" points="91.01,-25.99 80.43,-25.46 88.37,-32.47 91.01,-25.99"/>
</g>
<!-- Node152 -->
<g id="node9" class="node">
<title>Node152</title>
<g id="a_node9"><a xlink:href="dol2asm_8h.html" target="_top" xlink:title=" ">
<polygon fill="white" stroke="#666666" points="879.5,-96 818.5,-96 818.5,-77 879.5,-77 879.5,-96"/>
<text text-anchor="middle" x="849" y="-84" font-family="Helvetica,sans-Serif" font-size="10.00">dol2asm.h</text>
</a>
</g>
</g>
<!-- Node1&#45;&gt;Node152 -->
<g id="edge8" class="edge">
<title>Node1&#45;&gt;Node152</title>
<path fill="none" stroke="#63b8ff" d="M3428.72,-156.64C3075.8,-154.07 1016.94,-137.83 889,-107 883.79,-105.74 878.47,-103.74 873.47,-101.48"/>
<polygon fill="#63b8ff" stroke="#63b8ff" points="875.1,-98.38 864.59,-97.01 871.95,-104.63 875.1,-98.38"/>
</g>
<!-- Node153 -->
<g id="node10" class="node">
<title>Node153</title>
<g id="a_node10"><a xlink:href="d__com__inf__game_8h.html" target="_top" xlink:title=" ">
<polygon fill="#fff0f0" stroke="red" points="1026,-96 898,-96 898,-77 1026,-77 1026,-96"/>
<text text-anchor="middle" x="962" y="-84" font-family="Helvetica,sans-Serif" font-size="10.00">d/com/d_com_inf_game.h</text>
</a>
</g>
</g>
<!-- Node1&#45;&gt;Node153 -->
<g id="edge9" class="edge">
<title>Node1&#45;&gt;Node153</title>
<path fill="none" stroke="#63b8ff" d="M3428.68,-156.69C3098.53,-154.61 1279.47,-141.64 1035,-107 1023.63,-105.39 1011.49,-102.6 1000.44,-99.62"/>
<polygon fill="#63b8ff" stroke="#63b8ff" points="1001.44,-96.27 990.86,-96.91 999.53,-103 1001.44,-96.27"/>
</g>
<!-- Node199 -->
<g id="node17" class="node">
<title>Node199</title>
<g id="a_node17"><a xlink:href="d__meter2__info_8h.html" target="_top" xlink:title=" ">
<polygon fill="#fff0f0" stroke="red" points="1166,-96 1044,-96 1044,-77 1166,-77 1166,-96"/>
<text text-anchor="middle" x="1105" y="-84" font-family="Helvetica,sans-Serif" font-size="10.00">d/meter/d_meter2_info.h</text>
</a>
</g>
</g>
<!-- Node1&#45;&gt;Node199 -->
<g id="edge16" class="edge">
<title>Node1&#45;&gt;Node199</title>
<path fill="none" stroke="#63b8ff" d="M3428.59,-156.64C3109.47,-154.33 1405.5,-140.48 1176,-107 1164.92,-105.38 1153.11,-102.59 1142.37,-99.62"/>
<polygon fill="#63b8ff" stroke="#63b8ff" points="1143.67,-96.35 1133.09,-96.92 1141.72,-103.07 1143.67,-96.35"/>
</g>
<!-- Node200 -->
<g id="node18" class="node">
<title>Node200</title>
<g id="a_node18"><a xlink:title=" ">
<polygon fill="#e0e0e0" stroke="#999999" points="1347.5,-107 1184.5,-107 1184.5,-66 1347.5,-66 1347.5,-107"/>
<text text-anchor="start" x="1192.5" y="-95" font-family="Helvetica,sans-Serif" font-size="10.00">asm/rel/d/a/d_a_canoe</text>
<text text-anchor="start" x="1192.5" y="-84" font-family="Helvetica,sans-Serif" font-size="10.00">/d_a_canoe/daCanoe_searchTag</text>
<text text-anchor="middle" x="1266" y="-73" font-family="Helvetica,sans-Serif" font-size="10.00">WaterFall__FP10fopAc_ac_cPv.s</text>
</a>
</g>
</g>
<!-- Node1&#45;&gt;Node200 -->
<g id="edge18" class="edge">
<title>Node1&#45;&gt;Node200</title>
<path fill="none" stroke="#63b8ff" d="M3428.59,-157.1C3148.14,-157.43 1799.79,-156.46 1358.93,-107.06"/>
<polygon fill="#63b8ff" stroke="#63b8ff" points="1359.57,-103.61 1349.24,-105.94 1358.77,-110.56 1359.57,-103.61"/>
</g>
<!-- Node201 -->
<g id="node19" class="node">
<title>Node201</title>
<g id="a_node19"><a xlink:title=" ">
<polygon fill="#e0e0e0" stroke="#999999" points="1510,-101.5 1366,-101.5 1366,-71.5 1510,-71.5 1510,-101.5"/>
<text text-anchor="start" x="1374" y="-89.5" font-family="Helvetica,sans-Serif" font-size="10.00">asm/rel/d/a/d_a_canoe</text>
<text text-anchor="middle" x="1438" y="-78.5" font-family="Helvetica,sans-Serif" font-size="10.00">/d_a_canoe/__dt__4cXyzFv.s</text>
</a>
</g>
</g>
<!-- Node1&#45;&gt;Node201 -->
<g id="edge19" class="edge">
<title>Node1&#45;&gt;Node201</title>
<path fill="none" stroke="#63b8ff" d="M3428.57,-157.15C3158.69,-157.74 1903.92,-157.66 1519,-107 1513.41,-106.26 1507.64,-105.3 1501.88,-104.19"/>
<polygon fill="#63b8ff" stroke="#63b8ff" points="1502.84,-100.82 1492.34,-102.22 1501.42,-107.67 1502.84,-100.82"/>
</g>
<!-- Node202 -->
<g id="node20" class="node">
<title>Node202</title>
<g id="a_node20"><a xlink:title=" ">
<polygon fill="#e0e0e0" stroke="#999999" points="1648,-107 1528,-107 1528,-66 1648,-66 1648,-107"/>
<text text-anchor="start" x="1536" y="-95" font-family="Helvetica,sans-Serif" font-size="10.00">asm/rel/d/a/d_a_canoe</text>
<text text-anchor="start" x="1536" y="-84" font-family="Helvetica,sans-Serif" font-size="10.00">/d_a_canoe/createHeap</text>
<text text-anchor="middle" x="1588" y="-73" font-family="Helvetica,sans-Serif" font-size="10.00">__9daCanoe_cFv.s</text>
</a>
</g>
</g>
<!-- Node1&#45;&gt;Node202 -->
<g id="edge20" class="edge">
<title>Node1&#45;&gt;Node202</title>
<path fill="none" stroke="#63b8ff" d="M3428.79,-157.31C3173.44,-158.58 2035.35,-161.15 1659.56,-107.14"/>
<polygon fill="#63b8ff" stroke="#63b8ff" points="1660.3,-103.71 1649.89,-105.7 1659.27,-110.63 1660.3,-103.71"/>
</g>
<!-- Node203 -->
<g id="node21" class="node">
<title>Node203</title>
<g id="a_node21"><a xlink:title=" ">
<polygon fill="#e0e0e0" stroke="#999999" points="1830,-107 1666,-107 1666,-66 1830,-66 1830,-107"/>
<text text-anchor="start" x="1674" y="-95" font-family="Helvetica,sans-Serif" font-size="10.00">asm/rel/d/a/d_a_canoe</text>
<text text-anchor="start" x="1674" y="-84" font-family="Helvetica,sans-Serif" font-size="10.00">/d_a_canoe/daCanoe_createHeap</text>
<text text-anchor="middle" x="1748" y="-73" font-family="Helvetica,sans-Serif" font-size="10.00">__FP10fopAc_ac_c.s</text>
</a>
</g>
</g>
<!-- Node1&#45;&gt;Node203 -->
<g id="edge21" class="edge">
<title>Node1&#45;&gt;Node203</title>
<path fill="none" stroke="#63b8ff" d="M3428.85,-156.69C3189.86,-155.03 2180.87,-145.91 1841.53,-107.15"/>
<polygon fill="#63b8ff" stroke="#63b8ff" points="1842.07,-103.69 1831.73,-105.99 1841.25,-110.64 1842.07,-103.69"/>
</g>
<!-- Node204 -->
<g id="node22" class="node">
<title>Node204</title>
<g id="a_node22"><a xlink:title=" ">
<polygon fill="#e0e0e0" stroke="#999999" points="2028,-101.5 1848,-101.5 1848,-71.5 2028,-71.5 2028,-101.5"/>
<text text-anchor="start" x="1856" y="-89.5" font-family="Helvetica,sans-Serif" font-size="10.00">asm/rel/d/a/d_a_canoe</text>
<text text-anchor="middle" x="1938" y="-78.5" font-family="Helvetica,sans-Serif" font-size="10.00">/d_a_canoe/create__9daCanoe_cFv.s</text>
</a>
</g>
</g>
<!-- Node1&#45;&gt;Node204 -->
<g id="edge22" class="edge">
<title>Node1&#45;&gt;Node204</title>
<path fill="none" stroke="#63b8ff" d="M3428.84,-156.32C3205.53,-153.21 2314.98,-138.98 2037,-107 2029.83,-106.18 2022.41,-105.11 2015,-103.91"/>
<polygon fill="#63b8ff" stroke="#63b8ff" points="2015.74,-100.48 2005.29,-102.24 2014.56,-107.38 2015.74,-100.48"/>
</g>
<!-- Node205 -->
<g id="node23" class="node">
<title>Node205</title>
<g id="a_node23"><a xlink:title=" ">
<polygon fill="#e0e0e0" stroke="#999999" points="2174,-107 2046,-107 2046,-66 2174,-66 2174,-107"/>
<text text-anchor="start" x="2054" y="-95" font-family="Helvetica,sans-Serif" font-size="10.00">asm/rel/d/a/d_a_canoe</text>
<text text-anchor="start" x="2054" y="-84" font-family="Helvetica,sans-Serif" font-size="10.00">/d_a_canoe/__dt__8dCcD</text>
<text text-anchor="middle" x="2110" y="-73" font-family="Helvetica,sans-Serif" font-size="10.00">_CylFv.s</text>
</a>
</g>
</g>
<!-- Node1&#45;&gt;Node205 -->
<g id="edge23" class="edge">
<title>Node1&#45;&gt;Node205</title>
<path fill="none" stroke="#63b8ff" d="M3428.77,-156.55C3222.56,-154.49 2451.89,-144.51 2185.49,-107.14"/>
<polygon fill="#63b8ff" stroke="#63b8ff" points="2186.22,-103.71 2175.82,-105.73 2185.21,-110.64 2186.22,-103.71"/>
</g>
<!-- Node206 -->
<g id="node24" class="node">
<title>Node206</title>
<g id="a_node24"><a xlink:title=" ">
<polygon fill="#e0e0e0" stroke="#999999" points="2320,-107 2192,-107 2192,-66 2320,-66 2320,-107"/>
<text text-anchor="start" x="2200" y="-95" font-family="Helvetica,sans-Serif" font-size="10.00">asm/rel/d/a/d_a_canoe</text>
<text text-anchor="start" x="2200" y="-84" font-family="Helvetica,sans-Serif" font-size="10.00">/d_a_canoe/__ct__8dCcD</text>
<text text-anchor="middle" x="2256" y="-73" font-family="Helvetica,sans-Serif" font-size="10.00">_CylFv.s</text>
</a>
</g>
</g>
<!-- Node1&#45;&gt;Node206 -->
<g id="edge24" class="edge">
<title>Node1&#45;&gt;Node206</title>
<path fill="none" stroke="#63b8ff" d="M3428.72,-156.25C3237.82,-153.26 2567.69,-140.64 2331.57,-107.16"/>
<polygon fill="#63b8ff" stroke="#63b8ff" points="2332.23,-103.72 2321.82,-105.72 2331.2,-110.64 2332.23,-103.72"/>
</g>
<!-- Node207 -->
<g id="node25" class="node">
<title>Node207</title>
<g id="a_node25"><a xlink:title=" ">
<polygon fill="#e0e0e0" stroke="#999999" points="2506,-101.5 2338,-101.5 2338,-71.5 2506,-71.5 2506,-101.5"/>
<text text-anchor="start" x="2346" y="-89.5" font-family="Helvetica,sans-Serif" font-size="10.00">asm/rel/d/a/d_a_canoe</text>
<text text-anchor="middle" x="2422" y="-78.5" font-family="Helvetica,sans-Serif" font-size="10.00">/d_a_canoe/__dt__8cM3dGCylFv.s</text>
</a>
</g>
</g>
<!-- Node1&#45;&gt;Node207 -->
<g id="edge25" class="edge">
<title>Node1&#45;&gt;Node207</title>
<path fill="none" stroke="#63b8ff" d="M3428.75,-157.13C3284.34,-156.9 2862.07,-152.1 2515,-107 2508.66,-106.18 2502.11,-105.15 2495.55,-104.01"/>
<polygon fill="#63b8ff" stroke="#63b8ff" points="2496.51,-100.63 2486.04,-102.27 2495.25,-107.52 2496.51,-100.63"/>
</g>
<!-- Node208 -->
<g id="node26" class="node">
<title>Node208</title>
<g id="a_node26"><a xlink:title=" ">
<polygon fill="#e0e0e0" stroke="#999999" points="2696,-101.5 2524,-101.5 2524,-71.5 2696,-71.5 2696,-101.5"/>
<text text-anchor="start" x="2532" y="-89.5" font-family="Helvetica,sans-Serif" font-size="10.00">asm/rel/d/a/d_a_canoe</text>
<text text-anchor="middle" x="2610" y="-78.5" font-family="Helvetica,sans-Serif" font-size="10.00">/d_a_canoe/__dt__8cM3dGAabFv.s</text>
</a>
</g>
</g>
<!-- Node1&#45;&gt;Node208 -->
<g id="edge26" class="edge">
<title>Node1&#45;&gt;Node208</title>
<path fill="none" stroke="#63b8ff" d="M3428.52,-156.13C3303.83,-153.49 2975.93,-143.37 2705,-107 2698.64,-106.15 2692.07,-105.11 2685.49,-103.98"/>
<polygon fill="#63b8ff" stroke="#63b8ff" points="2686.39,-100.58 2675.93,-102.24 2685.14,-107.47 2686.39,-100.58"/>
</g>
<!-- Node209 -->
<g id="node27" class="node">
<title>Node209</title>
<g id="a_node27"><a xlink:title=" ">
<polygon fill="#e0e0e0" stroke="#999999" points="2848,-107 2714,-107 2714,-66 2848,-66 2848,-107"/>
<text text-anchor="start" x="2722" y="-95" font-family="Helvetica,sans-Serif" font-size="10.00">asm/rel/d/a/d_a_canoe</text>
<text text-anchor="start" x="2722" y="-84" font-family="Helvetica,sans-Serif" font-size="10.00">/d_a_canoe/__dt__13dBgS</text>
<text text-anchor="middle" x="2781" y="-73" font-family="Helvetica,sans-Serif" font-size="10.00">_LinkAcchFv.s</text>
</a>
</g>
</g>
<!-- Node1&#45;&gt;Node209 -->
<g id="edge27" class="edge">
<title>Node1&#45;&gt;Node209</title>
<path fill="none" stroke="#63b8ff" d="M3428.76,-155.85C3323.64,-152.85 3075.96,-142.51 2859.67,-107.3"/>
<polygon fill="#63b8ff" stroke="#63b8ff" points="2860.35,-103.86 2849.91,-105.68 2859.21,-110.77 2860.35,-103.86"/>
</g>
<!-- Node210 -->
<g id="node28" class="node">
<title>Node210</title>
<g id="a_node28"><a xlink:title=" ">
<polygon fill="#e0e0e0" stroke="#999999" points="3000,-107 2866,-107 2866,-66 3000,-66 3000,-107"/>
<text text-anchor="start" x="2874" y="-95" font-family="Helvetica,sans-Serif" font-size="10.00">asm/rel/d/a/d_a_canoe</text>
<text text-anchor="start" x="2874" y="-84" font-family="Helvetica,sans-Serif" font-size="10.00">/d_a_canoe/__ct__13dBgS</text>
<text text-anchor="middle" x="2933" y="-73" font-family="Helvetica,sans-Serif" font-size="10.00">_LinkAcchFv.s</text>
</a>
</g>
</g>
<!-- Node1&#45;&gt;Node210 -->
<g id="edge28" class="edge">
<title>Node1&#45;&gt;Node210</title>
<path fill="none" stroke="#63b8ff" d="M3428.78,-154.01C3343.93,-148.53 3168.79,-134.95 3011.71,-107.36"/>
<polygon fill="#63b8ff" stroke="#63b8ff" points="3012.38,-103.92 3001.92,-105.61 3011.15,-110.81 3012.38,-103.92"/>
</g>
<!-- Node211 -->
<g id="node29" class="node">
<title>Node211</title>
<g id="a_node29"><a xlink:title=" ">
<polygon fill="#e0e0e0" stroke="#999999" points="3152,-107 3018,-107 3018,-66 3152,-66 3152,-107"/>
<text text-anchor="start" x="3026" y="-95" font-family="Helvetica,sans-Serif" font-size="10.00">asm/rel/d/a/d_a_canoe</text>
<text text-anchor="start" x="3026" y="-84" font-family="Helvetica,sans-Serif" font-size="10.00">/d_a_canoe/__dt__12dBgS</text>
<text text-anchor="middle" x="3085" y="-73" font-family="Helvetica,sans-Serif" font-size="10.00">_AcchCirFv.s</text>
</a>
</g>
</g>
<!-- Node1&#45;&gt;Node211 -->
<g id="edge29" class="edge">
<title>Node1&#45;&gt;Node211</title>
<path fill="none" stroke="#63b8ff" d="M3428.62,-150.49C3367.64,-142.42 3262.68,-127.46 3163.58,-107.44"/>
<polygon fill="#63b8ff" stroke="#63b8ff" points="3164.45,-104.04 3153.95,-105.47 3163.05,-110.9 3164.45,-104.04"/>
</g>
<!-- Node212 -->
<g id="node30" class="node">
<title>Node212</title>
<g id="a_node30"><a xlink:title=" ">
<polygon fill="#e0e0e0" stroke="#999999" points="3304,-107 3170,-107 3170,-66 3304,-66 3304,-107"/>
<text text-anchor="start" x="3178" y="-95" font-family="Helvetica,sans-Serif" font-size="10.00">asm/rel/d/a/d_a_canoe</text>
<text text-anchor="start" x="3178" y="-84" font-family="Helvetica,sans-Serif" font-size="10.00">/d_a_canoe/__dt__10dCcD</text>
<text text-anchor="middle" x="3237" y="-73" font-family="Helvetica,sans-Serif" font-size="10.00">_GSttsFv.s</text>
</a>
</g>
</g>
<!-- Node1&#45;&gt;Node212 -->
<g id="edge30" class="edge">
<title>Node1&#45;&gt;Node212</title>
<path fill="none" stroke="#63b8ff" d="M3429.36,-142.52C3396.31,-133.06 3352.52,-120.54 3315.07,-109.83"/>
<polygon fill="#63b8ff" stroke="#63b8ff" points="3316.22,-106.52 3305.64,-107.13 3314.29,-113.25 3316.22,-106.52"/>
</g>
<!-- Node213 -->
<g id="node31" class="node">
<title>Node213</title>
<g id="a_node31"><a xlink:title=" ">
<polygon fill="#e0e0e0" stroke="#999999" points="3464,-107 3322,-107 3322,-66 3464,-66 3464,-107"/>
<text text-anchor="start" x="3330" y="-95" font-family="Helvetica,sans-Serif" font-size="10.00">asm/rel/d/a/d_a_canoe</text>
<text text-anchor="start" x="3330" y="-84" font-family="Helvetica,sans-Serif" font-size="10.00">/d_a_canoe/daCanoe_Create</text>
<text text-anchor="middle" x="3393" y="-73" font-family="Helvetica,sans-Serif" font-size="10.00">__FP10fopAc_ac_c.s</text>
</a>
</g>
</g>
<!-- Node1&#45;&gt;Node213 -->
<g id="edge31" class="edge">
<title>Node1&#45;&gt;Node213</title>
<path fill="none" stroke="#63b8ff" d="M3461.97,-142.6C3451.82,-134.49 3438.81,-124.09 3426.83,-114.52"/>
<polygon fill="#63b8ff" stroke="#63b8ff" points="3429.11,-111.87 3419.11,-108.36 3424.74,-117.34 3429.11,-111.87"/>
</g>
<!-- Node214 -->
<g id="node32" class="node">
<title>Node214</title>
<g id="a_node32"><a xlink:title=" ">
<polygon fill="#e0e0e0" stroke="#999999" points="3654,-101.5 3482,-101.5 3482,-71.5 3654,-71.5 3654,-101.5"/>
<text text-anchor="start" x="3490" y="-89.5" font-family="Helvetica,sans-Serif" font-size="10.00">asm/rel/d/a/d_a_canoe</text>
<text text-anchor="middle" x="3568" y="-78.5" font-family="Helvetica,sans-Serif" font-size="10.00">/d_a_canoe/__dt__9daCanoe_cFv.s</text>
</a>
</g>
</g>
<!-- Node1&#45;&gt;Node214 -->
<g id="edge32" class="edge">
<title>Node1&#45;&gt;Node214</title>
<path fill="none" stroke="#63b8ff" d="M3498.23,-142.6C3510.62,-132.81 3527.22,-119.71 3541.12,-108.73"/>
<polygon fill="#63b8ff" stroke="#63b8ff" points="3542.92,-111.76 3548.6,-102.82 3538.58,-106.27 3542.92,-111.76"/>
</g>
<!-- Node215 -->
<g id="node33" class="node">
<title>Node215</title>
<g id="a_node33"><a xlink:title=" ">
<polygon fill="#e0e0e0" stroke="#999999" points="3813.5,-107 3672.5,-107 3672.5,-66 3813.5,-66 3813.5,-107"/>
<text text-anchor="start" x="3680.5" y="-95" font-family="Helvetica,sans-Serif" font-size="10.00">asm/rel/d/a/d_a_canoe</text>
<text text-anchor="start" x="3680.5" y="-84" font-family="Helvetica,sans-Serif" font-size="10.00">/d_a_canoe/daCanoe_Delete</text>
<text text-anchor="middle" x="3743" y="-73" font-family="Helvetica,sans-Serif" font-size="10.00">__FP9daCanoe_c.s</text>
</a>
</g>
</g>
<!-- Node1&#45;&gt;Node215 -->
<g id="edge33" class="edge">
<title>Node1&#45;&gt;Node215</title>
<path fill="none" stroke="#63b8ff" d="M3531.33,-143.43C3568.33,-133.66 3619,-120.27 3661.5,-109.04"/>
<polygon fill="#63b8ff" stroke="#63b8ff" points="3662.16,-112.48 3670.93,-106.54 3660.37,-105.72 3662.16,-112.48"/>
</g>
<!-- Node216 -->
<g id="node34" class="node">
<title>Node216</title>
<g id="a_node34"><a xlink:title=" ">
<polygon fill="#e0e0e0" stroke="#999999" points="3956.5,-107 3831.5,-107 3831.5,-66 3956.5,-66 3956.5,-107"/>
<text text-anchor="start" x="3839.5" y="-95" font-family="Helvetica,sans-Serif" font-size="10.00">asm/rel/d/a/d_a_canoe</text>
<text text-anchor="start" x="3839.5" y="-84" font-family="Helvetica,sans-Serif" font-size="10.00">/d_a_canoe/setRoomInfo</text>
<text text-anchor="middle" x="3894" y="-73" font-family="Helvetica,sans-Serif" font-size="10.00">__9daCanoe_cFv.s</text>
</a>
</g>
</g>
<!-- Node1&#45;&gt;Node216 -->
<g id="edge34" class="edge">
<title>Node1&#45;&gt;Node216</title>
<path fill="none" stroke="#63b8ff" d="M3531.49,-151.5C3596.65,-144.1 3712.5,-129.47 3820.31,-107.44"/>
<polygon fill="#63b8ff" stroke="#63b8ff" points="3820.82,-110.91 3829.9,-105.46 3819.4,-104.06 3820.82,-110.91"/>
</g>
<!-- Node217 -->
<g id="node35" class="node">
<title>Node217</title>
<g id="a_node35"><a xlink:title=" ">
<polygon fill="#e0e0e0" stroke="#999999" points="4091,-107 3975,-107 3975,-66 4091,-66 4091,-107"/>
<text text-anchor="start" x="3983" y="-95" font-family="Helvetica,sans-Serif" font-size="10.00">asm/rel/d/a/d_a_canoe</text>
<text text-anchor="start" x="3983" y="-84" font-family="Helvetica,sans-Serif" font-size="10.00">/d_a_canoe/setMatrix</text>
<text text-anchor="middle" x="4033" y="-73" font-family="Helvetica,sans-Serif" font-size="10.00">__9daCanoe_cFv.s</text>
</a>
</g>
</g>
<!-- Node1&#45;&gt;Node217 -->
<g id="edge35" class="edge">
<title>Node1&#45;&gt;Node217</title>
<path fill="none" stroke="#63b8ff" d="M3531.17,-154.78C3618.25,-150.34 3800.84,-138.17 3963.51,-107.3"/>
<polygon fill="#63b8ff" stroke="#63b8ff" points="3964.05,-110.76 3973.2,-105.43 3962.72,-103.89 3964.05,-110.76"/>
</g>
<!-- Node218 -->
<g id="node36" class="node">
<title>Node218</title>
<g id="a_node36"><a xlink:title=" ">
<polygon fill="#e0e0e0" stroke="#999999" points="4229,-107 4109,-107 4109,-66 4229,-66 4229,-107"/>
<text text-anchor="start" x="4117" y="-95" font-family="Helvetica,sans-Serif" font-size="10.00">asm/rel/d/a/d_a_canoe</text>
<text text-anchor="start" x="4117" y="-84" font-family="Helvetica,sans-Serif" font-size="10.00">/d_a_canoe/setCollision</text>
<text text-anchor="middle" x="4169" y="-73" font-family="Helvetica,sans-Serif" font-size="10.00">__9daCanoe_cFv.s</text>
</a>
</g>
</g>
<!-- Node1&#45;&gt;Node218 -->
<g id="edge36" class="edge">
<title>Node1&#45;&gt;Node218</title>
<path fill="none" stroke="#63b8ff" d="M3531.47,-156.23C3636.45,-153.93 3882.81,-144.83 4097.41,-107.28"/>
<polygon fill="#63b8ff" stroke="#63b8ff" points="4097.85,-110.76 4107.08,-105.56 4096.63,-103.87 4097.85,-110.76"/>
</g>
<!-- Node219 -->
<g id="node37" class="node">
<title>Node219</title>
<g id="a_node37"><a xlink:title=" ">
<polygon fill="#e0e0e0" stroke="#999999" points="4440.5,-101.5 4247.5,-101.5 4247.5,-71.5 4440.5,-71.5 4440.5,-101.5"/>
<text text-anchor="start" x="4255.5" y="-89.5" font-family="Helvetica,sans-Serif" font-size="10.00">asm/rel/d/a/d_a_canoe</text>
<text text-anchor="middle" x="4344" y="-78.5" font-family="Helvetica,sans-Serif" font-size="10.00">/d_a_canoe/posMove__9daCanoe_cFv.s</text>
</a>
</g>
</g>
<!-- Node1&#45;&gt;Node219 -->
<g id="edge37" class="edge">
<title>Node1&#45;&gt;Node219</title>
<path fill="none" stroke="#63b8ff" d="M3531.21,-155.67C3653.74,-152.05 3973.31,-139.96 4238,-107 4245.21,-106.1 4252.68,-105.03 4260.15,-103.85"/>
<polygon fill="#63b8ff" stroke="#63b8ff" points="4260.68,-107.31 4269.98,-102.24 4259.54,-100.4 4260.68,-107.31"/>
</g>
<!-- Node220 -->
<g id="node38" class="node">
<title>Node220</title>
<g id="a_node38"><a xlink:title=" ">
<polygon fill="#e0e0e0" stroke="#999999" points="4635,-107 4459,-107 4459,-66 4635,-66 4635,-107"/>
<text text-anchor="start" x="4467" y="-95" font-family="Helvetica,sans-Serif" font-size="10.00">asm/rel/d/a/d_a_canoe</text>
<text text-anchor="start" x="4467" y="-84" font-family="Helvetica,sans-Serif" font-size="10.00">/d_a_canoe/checkGomikabe</text>
<text text-anchor="middle" x="4547" y="-73" font-family="Helvetica,sans-Serif" font-size="10.00">__9daCanoe_cFR13cBgS_PolyInfo.s</text>
</a>
</g>
</g>
<!-- Node1&#45;&gt;Node220 -->
<g id="edge38" class="edge">
<title>Node1&#45;&gt;Node220</title>
<path fill="none" stroke="#63b8ff" d="M3531.24,-157C3674.57,-156.45 4091.85,-150.98 4447.25,-107.25"/>
<polygon fill="#63b8ff" stroke="#63b8ff" points="4447.55,-110.74 4457.04,-106.03 4446.68,-103.79 4447.55,-110.74"/>
</g>
<!-- Node221 -->
<g id="node39" class="node">
<title>Node221</title>
<g id="a_node39"><a xlink:title=" ">
<polygon fill="#e0e0e0" stroke="#999999" points="4799,-107 4653,-107 4653,-66 4799,-66 4799,-107"/>
<text text-anchor="start" x="4661" y="-95" font-family="Helvetica,sans-Serif" font-size="10.00">asm/rel/d/a/d_a_canoe</text>
<text text-anchor="start" x="4661" y="-84" font-family="Helvetica,sans-Serif" font-size="10.00">/d_a_canoe/setFrontBackPos</text>
<text text-anchor="middle" x="4726" y="-73" font-family="Helvetica,sans-Serif" font-size="10.00">__9daCanoe_cFv.s</text>
</a>
</g>
</g>
<!-- Node1&#45;&gt;Node221 -->
<g id="edge39" class="edge">
<title>Node1&#45;&gt;Node221</title>
<path fill="none" stroke="#63b8ff" d="M3531.5,-156.09C3724,-152.5 4402.04,-138.02 4641.41,-107.16"/>
<polygon fill="#63b8ff" stroke="#63b8ff" points="4641.87,-110.63 4651.31,-105.83 4640.94,-103.7 4641.87,-110.63"/>
</g>
<!-- Node222 -->
<g id="node40" class="node">
<title>Node222</title>
<g id="a_node40"><a xlink:title=" ">
<polygon fill="#e0e0e0" stroke="#999999" points="4969,-107 4817,-107 4817,-66 4969,-66 4969,-107"/>
<text text-anchor="start" x="4825" y="-95" font-family="Helvetica,sans-Serif" font-size="10.00">asm/rel/d/a/d_a_canoe</text>
<text text-anchor="start" x="4825" y="-84" font-family="Helvetica,sans-Serif" font-size="10.00">/d_a_canoe/frontBackBgCheck</text>
<text text-anchor="middle" x="4893" y="-73" font-family="Helvetica,sans-Serif" font-size="10.00">__9daCanoe_cFv.s</text>
</a>
</g>
</g>
<!-- Node1&#45;&gt;Node222 -->
<g id="edge40" class="edge">
<title>Node1&#45;&gt;Node222</title>
<path fill="none" stroke="#63b8ff" d="M3531.33,-156.36C3740.81,-153.54 4532.35,-140.91 4805.61,-107.14"/>
<polygon fill="#63b8ff" stroke="#63b8ff" points="4805.69,-110.66 4815.17,-105.92 4804.8,-103.71 4805.69,-110.66"/>
</g>
<!-- Node223 -->
<g id="node41" class="node">
<title>Node223</title>
<g id="a_node41"><a xlink:title=" ">
<polygon fill="#e0e0e0" stroke="#999999" points="5156.5,-101.5 4987.5,-101.5 4987.5,-71.5 5156.5,-71.5 5156.5,-101.5"/>
<text text-anchor="start" x="4995.5" y="-89.5" font-family="Helvetica,sans-Serif" font-size="10.00">asm/rel/d/a/d_a_canoe</text>
<text text-anchor="middle" x="5072" y="-78.5" font-family="Helvetica,sans-Serif" font-size="10.00">/d_a_canoe/__dt__8cM3dGPlaFv.s</text>
</a>
</g>
</g>
<!-- Node1&#45;&gt;Node223 -->
<g id="edge41" class="edge">
<title>Node1&#45;&gt;Node223</title>
<path fill="none" stroke="#63b8ff" d="M3531.18,-156.47C3759.79,-153.91 4688.78,-141.57 4978,-107 4984.71,-106.2 4991.65,-105.16 4998.58,-103.98"/>
<polygon fill="#63b8ff" stroke="#63b8ff" points="4999.09,-107.45 5008.31,-102.23 4997.85,-100.56 4999.09,-107.45"/>
</g>
<!-- Node224 -->
<g id="node42" class="node">
<title>Node224</title>
<g id="a_node42"><a xlink:title=" ">
<polygon fill="#e0e0e0" stroke="#999999" points="5313,-107 5175,-107 5175,-66 5313,-66 5313,-107"/>
<text text-anchor="start" x="5183" y="-95" font-family="Helvetica,sans-Serif" font-size="10.00">asm/rel/d/a/d_a_canoe</text>
<text text-anchor="start" x="5183" y="-84" font-family="Helvetica,sans-Serif" font-size="10.00">/d_a_canoe/setPaddleEffect</text>
<text text-anchor="middle" x="5244" y="-73" font-family="Helvetica,sans-Serif" font-size="10.00">__9daCanoe_cFv.s</text>
</a>
</g>
</g>
<!-- Node1&#45;&gt;Node224 -->
<g id="edge42" class="edge">
<title>Node1&#45;&gt;Node224</title>
<path fill="none" stroke="#63b8ff" d="M3531.34,-156.97C3774.82,-156.58 4815.36,-152.34 5163.49,-107.14"/>
<polygon fill="#63b8ff" stroke="#63b8ff" points="5163.88,-110.61 5173.33,-105.81 5162.95,-103.68 5163.88,-110.61"/>
</g>
<!-- Node225 -->
<g id="node43" class="node">
<title>Node225</title>
<g id="a_node43"><a xlink:title=" ">
<polygon fill="#e0e0e0" stroke="#999999" points="5492.5,-107 5331.5,-107 5331.5,-66 5492.5,-66 5492.5,-107"/>
<text text-anchor="start" x="5339.5" y="-95" font-family="Helvetica,sans-Serif" font-size="10.00">asm/rel/d/a/d_a_canoe</text>
<text text-anchor="start" x="5339.5" y="-84" font-family="Helvetica,sans-Serif" font-size="10.00">/d_a_canoe/setCanoeSliderEffect</text>
<text text-anchor="middle" x="5412" y="-73" font-family="Helvetica,sans-Serif" font-size="10.00">__9daCanoe_cFv.s</text>
</a>
</g>
</g>
<!-- Node1&#45;&gt;Node225 -->
<g id="edge43" class="edge">
<title>Node1&#45;&gt;Node225</title>
<path fill="none" stroke="#63b8ff" d="M3531.25,-156.9C3788.13,-156.2 4937.98,-150.69 5319.82,-107.09"/>
<polygon fill="#63b8ff" stroke="#63b8ff" points="5320.14,-110.58 5329.66,-105.93 5319.32,-103.63 5320.14,-110.58"/>
</g>
<!-- Node226 -->
<g id="node44" class="node">
<title>Node226</title>
<g id="a_node44"><a xlink:title=" ">
<polygon fill="#e0e0e0" stroke="#999999" points="5697.5,-101.5 5510.5,-101.5 5510.5,-71.5 5697.5,-71.5 5697.5,-101.5"/>
<text text-anchor="start" x="5518.5" y="-89.5" font-family="Helvetica,sans-Serif" font-size="10.00">asm/rel/d/a/d_a_canoe</text>
<text text-anchor="middle" x="5604" y="-78.5" font-family="Helvetica,sans-Serif" font-size="10.00">/d_a_canoe/execute__9daCanoe_cFv.s</text>
</a>
</g>
</g>
<!-- Node1&#45;&gt;Node226 -->
<g id="edge44" class="edge">
<title>Node1&#45;&gt;Node226</title>
<path fill="none" stroke="#63b8ff" d="M3531.18,-156.87C3805.38,-156.02 5103.1,-149.77 5502,-107 5509.68,-106.18 5517.64,-105.08 5525.58,-103.83"/>
<polygon fill="#63b8ff" stroke="#63b8ff" points="5525.97,-107.32 5535.26,-102.22 5524.82,-100.41 5525.97,-107.32"/>
</g>
<!-- Node227 -->
<g id="node45" class="node">
<title>Node227</title>
<g id="a_node45"><a xlink:title=" ">
<polygon fill="#e0e0e0" stroke="#999999" points="5864,-107 5716,-107 5716,-66 5864,-66 5864,-107"/>
<text text-anchor="start" x="5724" y="-95" font-family="Helvetica,sans-Serif" font-size="10.00">asm/rel/d/a/d_a_canoe</text>
<text text-anchor="start" x="5724" y="-84" font-family="Helvetica,sans-Serif" font-size="10.00">/d_a_canoe/daCanoe_Execute</text>
<text text-anchor="middle" x="5790" y="-73" font-family="Helvetica,sans-Serif" font-size="10.00">__FP9daCanoe_c.s</text>
</a>
</g>
</g>
<!-- Node1&#45;&gt;Node227 -->
<g id="edge45" class="edge">
<title>Node1&#45;&gt;Node227</title>
<path fill="none" stroke="#63b8ff" d="M3531.44,-156.49C3839.67,-153.33 5437.25,-135.78 5704.88,-107"/>
<polygon fill="#63b8ff" stroke="#63b8ff" points="5704.9,-110.52 5714.42,-105.88 5704.09,-103.57 5704.9,-110.52"/>
</g>
<!-- Node228 -->
<g id="node46" class="node">
<title>Node228</title>
<g id="a_node46"><a xlink:title=" ">
<polygon fill="#e0e0e0" stroke="#999999" points="6056,-101.5 5882,-101.5 5882,-71.5 6056,-71.5 6056,-101.5"/>
<text text-anchor="start" x="5890" y="-89.5" font-family="Helvetica,sans-Serif" font-size="10.00">asm/rel/d/a/d_a_canoe</text>
<text text-anchor="middle" x="5969" y="-78.5" font-family="Helvetica,sans-Serif" font-size="10.00">/d_a_canoe/draw__9daCanoe_cFv.s</text>
</a>
</g>
</g>
<!-- Node1&#45;&gt;Node228 -->
<g id="edge46" class="edge">
<title>Node1&#45;&gt;Node228</title>
<path fill="none" stroke="#63b8ff" d="M3531.34,-157.18C3834.78,-158.07 5396.5,-159.94 5873,-107 5880.13,-106.21 5887.51,-105.15 5894.87,-103.93"/>
<polygon fill="#63b8ff" stroke="#63b8ff" points="5895.26,-107.42 5904.51,-102.24 5894.05,-100.52 5895.26,-107.42"/>
</g>
<!-- Node229 -->
<g id="node47" class="node">
<title>Node229</title>
<g id="a_node47"><a xlink:title=" ">
<polygon fill="#e0e0e0" stroke="#999999" points="6210,-107 6074,-107 6074,-66 6210,-66 6210,-107"/>
<text text-anchor="start" x="6082" y="-95" font-family="Helvetica,sans-Serif" font-size="10.00">asm/rel/d/a/d_a_canoe</text>
<text text-anchor="start" x="6082" y="-84" font-family="Helvetica,sans-Serif" font-size="10.00">/d_a_canoe/daCanoe_Draw</text>
<text text-anchor="middle" x="6142" y="-73" font-family="Helvetica,sans-Serif" font-size="10.00">__FP9daCanoe_c.s</text>
</a>
</g>
</g>
<!-- Node1&#45;&gt;Node229 -->
<g id="edge47" class="edge">
<title>Node1&#45;&gt;Node229</title>
<path fill="none" stroke="#63b8ff" d="M3531.47,-156.71C3868.59,-154.73 5756.77,-142.21 6062.71,-107.02"/>
<polygon fill="#63b8ff" stroke="#63b8ff" points="6062.73,-110.55 6072.22,-105.84 6061.87,-103.6 6062.73,-110.55"/>
</g>
<!-- Node230 -->
<g id="node48" class="node">
<title>Node230</title>
<g id="a_node48"><a xlink:title=" ">
<polygon fill="#e0e0e0" stroke="#999999" points="6362,-107 6228,-107 6228,-66 6362,-66 6362,-107"/>
<text text-anchor="start" x="6236" y="-95" font-family="Helvetica,sans-Serif" font-size="10.00">asm/rel/d/a/d_a_canoe</text>
<text text-anchor="start" x="6236" y="-84" font-family="Helvetica,sans-Serif" font-size="10.00">/d_a_canoe/__dt__10cCcD</text>
<text text-anchor="middle" x="6295" y="-73" font-family="Helvetica,sans-Serif" font-size="10.00">_GSttsFv.s</text>
</a>
</g>
</g>
<!-- Node1&#45;&gt;Node230 -->
<g id="edge48" class="edge">
<title>Node1&#45;&gt;Node230</title>
<path fill="none" stroke="#63b8ff" d="M3531.38,-156.78C3879.94,-155.21 5893.35,-144.62 6216.42,-107.06"/>
<polygon fill="#63b8ff" stroke="#63b8ff" points="6216.63,-110.56 6226.11,-105.85 6215.76,-103.62 6216.63,-110.56"/>
</g>
<!-- Node231 -->
<g id="node49" class="node">
<title>Node231</title>
<g id="a_node49"><a xlink:title=" ">
<polygon fill="#e0e0e0" stroke="#999999" points="6529.5,-101.5 6380.5,-101.5 6380.5,-71.5 6529.5,-71.5 6529.5,-101.5"/>
<text text-anchor="start" x="6388.5" y="-89.5" font-family="Helvetica,sans-Serif" font-size="10.00">asm/rel/d/a/d_a_canoe</text>
<text text-anchor="middle" x="6455" y="-78.5" font-family="Helvetica,sans-Serif" font-size="10.00">/d_a_canoe/func_804DD5BC.s</text>
</a>
</g>
</g>
<!-- Node1&#45;&gt;Node231 -->
<g id="edge49" class="edge">
<title>Node1&#45;&gt;Node231</title>
<path fill="none" stroke="#63b8ff" d="M3531.28,-156.76C3894.98,-155.01 6078.85,-143.03 6371,-107 6376.94,-106.27 6383.08,-105.29 6389.21,-104.16"/>
<polygon fill="#63b8ff" stroke="#63b8ff" points="6389.56,-107.65 6398.69,-102.27 6388.2,-100.79 6389.56,-107.65"/>
</g>
<!-- Node232 -->
<g id="node50" class="node">
<title>Node232</title>
<g id="a_node50"><a xlink:title=" ">
<polygon fill="#e0e0e0" stroke="#999999" points="6696,-101.5 6548,-101.5 6548,-71.5 6696,-71.5 6696,-101.5"/>
<text text-anchor="start" x="6556" y="-89.5" font-family="Helvetica,sans-Serif" font-size="10.00">asm/rel/d/a/d_a_canoe</text>
<text text-anchor="middle" x="6622" y="-78.5" font-family="Helvetica,sans-Serif" font-size="10.00">/d_a_canoe/func_804DD5C4.s</text>
</a>
</g>
</g>
<!-- Node1&#45;&gt;Node232 -->
<g id="edge50" class="edge">
<title>Node1&#45;&gt;Node232</title>
<path fill="none" stroke="#63b8ff" d="M3531.22,-156.83C3906.78,-155.46 6229.08,-145.49 6539,-107 6544.88,-106.27 6550.94,-105.29 6556.99,-104.16"/>
<polygon fill="#63b8ff" stroke="#63b8ff" points="6557.24,-107.68 6566.35,-102.28 6555.86,-100.82 6557.24,-107.68"/>
</g>
<!-- Node2&#45;&gt;Node3 -->
<g id="edge2" class="edge">
<title>Node2&#45;&gt;Node3</title>
<path fill="none" stroke="#63b8ff" d="M357.65,-75.67C300.74,-64.73 206.25,-46.43 125,-30 120.67,-29.12 116.18,-28.21 111.68,-27.28"/>
<polygon fill="#63b8ff" stroke="#63b8ff" points="112.5,-23.88 102,-25.28 111.08,-30.73 112.5,-23.88"/>
</g>
<!-- Node128 -->
<g id="node4" class="node">
<title>Node128</title>
<g id="a_node4"><a xlink:href="d__cc__d_8h.html" target="_top" xlink:title=" ">
<polygon fill="#fff0f0" stroke="red" points="211.5,-24.5 134.5,-24.5 134.5,-5.5 211.5,-5.5 211.5,-24.5"/>
<text text-anchor="middle" x="173" y="-12.5" font-family="Helvetica,sans-Serif" font-size="10.00">d/cc/d_cc_d.h</text>
</a>
</g>
</g>
<!-- Node2&#45;&gt;Node128 -->
<g id="edge3" class="edge">
<title>Node2&#45;&gt;Node128</title>
<path fill="none" stroke="#63b8ff" d="M359.81,-71.02C316.72,-58.32 254.8,-40.09 214.25,-28.15"/>
<polygon fill="#63b8ff" stroke="#63b8ff" points="215.44,-24.85 204.86,-25.38 213.47,-31.57 215.44,-24.85"/>
</g>
<!-- Node138 -->
<g id="node5" class="node">
<title>Node138</title>
<g id="a_node5"><a xlink:href="d__bg__s__acch_8h.html" target="_top" xlink:title=" ">
<polygon fill="#fff0f0" stroke="red" points="334,-24.5 230,-24.5 230,-5.5 334,-5.5 334,-24.5"/>
<text text-anchor="middle" x="282" y="-12.5" font-family="Helvetica,sans-Serif" font-size="10.00">d/bg/d_bg_s_acch.h</text>
</a>
</g>
</g>
<!-- Node2&#45;&gt;Node138 -->
<g id="edge4" class="edge">
<title>Node2&#45;&gt;Node138</title>
<path fill="none" stroke="#63b8ff" d="M382.69,-71.1C360.83,-59.14 329.91,-42.22 308.11,-30.29"/>
<polygon fill="#63b8ff" stroke="#63b8ff" points="310,-27.34 299.55,-25.6 306.64,-33.48 310,-27.34"/>
</g>
<!-- Node150 -->
<g id="node6" class="node">
<title>Node150</title>
<g id="a_node6"><a xlink:href="d__bg__s__lin__chk_8h.html" target="_top" xlink:title=" ">
<polygon fill="#fff0f0" stroke="red" points="465.5,-24.5 352.5,-24.5 352.5,-5.5 465.5,-5.5 465.5,-24.5"/>
<text text-anchor="middle" x="409" y="-12.5" font-family="Helvetica,sans-Serif" font-size="10.00">d/bg/d_bg_s_lin_chk.h</text>
</a>
</g>
</g>
<!-- Node2&#45;&gt;Node150 -->
<g id="edge5" class="edge">
<title>Node2&#45;&gt;Node150</title>
<path fill="none" stroke="#63b8ff" d="M409,-71.1C409,-60.93 409,-47.17 409,-35.95"/>
<polygon fill="#63b8ff" stroke="#63b8ff" points="412.5,-36.19 409,-26.19 405.5,-36.19 412.5,-36.19"/>
</g>
<!-- Node62 -->
<g id="node7" class="node">
<title>Node62</title>
<g id="a_node7"><a xlink:href="Z2SoundObject_8h.html" target="_top" xlink:title=" ">
<polygon fill="#fff0f0" stroke="red" points="628,-24.5 484,-24.5 484,-5.5 628,-5.5 628,-24.5"/>
<text text-anchor="middle" x="556" y="-12.5" font-family="Helvetica,sans-Serif" font-size="10.00">Z2AudioLib/Z2SoundObject.h</text>
</a>
</g>
</g>
<!-- Node2&#45;&gt;Node62 -->
<g id="edge6" class="edge">
<title>Node2&#45;&gt;Node62</title>
<path fill="none" stroke="#63b8ff" d="M439.46,-71.1C465.21,-58.92 501.85,-41.6 527.14,-29.64"/>
<polygon fill="#63b8ff" stroke="#63b8ff" points="528.31,-32.96 535.85,-25.53 525.32,-26.64 528.31,-32.96"/>
</g>
<!-- Node125 -->
<g id="node8" class="node">
<title>Node125</title>
<g id="a_node8"><a xlink:href="c__phase_8h.html" target="_top" xlink:title=" ">
<polygon fill="#fff0f0" stroke="red" points="762,-30 646,-30 646,0 762,0 762,-30"/>
<text text-anchor="start" x="654" y="-18" font-family="Helvetica,sans-Serif" font-size="10.00">SSystem/SComponent</text>
<text text-anchor="middle" x="704" y="-7" font-family="Helvetica,sans-Serif" font-size="10.00">/c_phase.h</text>
</a>
</g>
</g>
<!-- Node2&#45;&gt;Node125 -->
<g id="edge7" class="edge">
<title>Node2&#45;&gt;Node125</title>
<path fill="none" stroke="#63b8ff" d="M460.39,-73.39C508.62,-62.03 581.15,-44.94 634.53,-32.37"/>
<polygon fill="#63b8ff" stroke="#63b8ff" points="635.21,-35.8 644.15,-30.1 633.61,-28.99 635.21,-35.8"/>
</g>
<!-- Node154 -->
<g id="node11" class="node">
<title>Node154</title>
<g id="a_node11"><a xlink:href="d__bg__s_8h.html" target="_top" xlink:title=" ">
<polygon fill="#fff0f0" stroke="red" points="857.5,-24.5 780.5,-24.5 780.5,-5.5 857.5,-5.5 857.5,-24.5"/>
<text text-anchor="middle" x="819" y="-12.5" font-family="Helvetica,sans-Serif" font-size="10.00">d/bg/d_bg_s.h</text>
</a>
</g>
</g>
<!-- Node153&#45;&gt;Node154 -->
<g id="edge10" class="edge">
<title>Node153&#45;&gt;Node154</title>
<path fill="none" stroke="#63b8ff" d="M943.6,-76.56C919.25,-64.72 876.08,-43.74 847.5,-29.85"/>
<polygon fill="#63b8ff" stroke="#63b8ff" points="849.22,-26.79 838.69,-25.57 846.16,-33.09 849.22,-26.79"/>
</g>
<!-- Node157 -->
<g id="node12" class="node">
<title>Node157</title>
<g id="a_node12"><a xlink:href="d__cc__s_8h.html" target="_top" xlink:title=" ">
<polygon fill="#fff0f0" stroke="red" points="952.5,-24.5 875.5,-24.5 875.5,-5.5 952.5,-5.5 952.5,-24.5"/>
<text text-anchor="middle" x="914" y="-12.5" font-family="Helvetica,sans-Serif" font-size="10.00">d/cc/d_cc_s.h</text>
</a>
</g>
</g>
<!-- Node153&#45;&gt;Node157 -->
<g id="edge11" class="edge">
<title>Node153&#45;&gt;Node157</title>
<path fill="none" stroke="#63b8ff" d="M955.92,-76.7C948.6,-66.1 936.12,-48.03 926.68,-34.36"/>
<polygon fill="#63b8ff" stroke="#63b8ff" points="929.6,-32.43 921.04,-26.2 923.84,-36.41 929.6,-32.43"/>
</g>
<!-- Node160 -->
<g id="node13" class="node">
<title>Node160</title>
<g id="a_node13"><a xlink:href="d__attention_8h.html" target="_top" xlink:title=" ">
<polygon fill="#fff0f0" stroke="red" points="1051,-24.5 971,-24.5 971,-5.5 1051,-5.5 1051,-24.5"/>
<text text-anchor="middle" x="1011" y="-12.5" font-family="Helvetica,sans-Serif" font-size="10.00">d/d_attention.h</text>
</a>
</g>
</g>
<!-- Node153&#45;&gt;Node160 -->
<g id="edge12" class="edge">
<title>Node153&#45;&gt;Node160</title>
<path fill="none" stroke="#63b8ff" d="M968.21,-76.7C975.68,-66.1 988.42,-48.03 998.06,-34.36"/>
<polygon fill="#63b8ff" stroke="#63b8ff" points="1000.92,-36.38 1003.82,-26.19 995.19,-32.34 1000.92,-36.38"/>
</g>
<!-- Node162 -->
<g id="node14" class="node">
<title>Node162</title>
<g id="a_node14"><a xlink:href="d__drawlist_8h.html" target="_top" xlink:title=" ">
<polygon fill="#fff0f0" stroke="red" points="1146.5,-24.5 1069.5,-24.5 1069.5,-5.5 1146.5,-5.5 1146.5,-24.5"/>
<text text-anchor="middle" x="1108" y="-12.5" font-family="Helvetica,sans-Serif" font-size="10.00">d/d_drawlist.h</text>
</a>
</g>
</g>
<!-- Node153&#45;&gt;Node162 -->
<g id="edge13" class="edge">
<title>Node153&#45;&gt;Node162</title>
<path fill="none" stroke="#63b8ff" d="M980.79,-76.56C1005.65,-64.72 1049.72,-43.74 1078.9,-29.85"/>
<polygon fill="#63b8ff" stroke="#63b8ff" points="1080.39,-33.02 1087.92,-25.56 1077.38,-26.7 1080.39,-33.02"/>
</g>
<!-- Node167 -->
<g id="node15" class="node">
<title>Node167</title>
<g id="a_node15"><a xlink:href="d__resorce_8h.html" target="_top" xlink:title=" ">
<polygon fill="#fff0f0" stroke="red" points="1239.5,-24.5 1164.5,-24.5 1164.5,-5.5 1239.5,-5.5 1239.5,-24.5"/>
<text text-anchor="middle" x="1202" y="-12.5" font-family="Helvetica,sans-Serif" font-size="10.00">d/d_resorce.h</text>
</a>
</g>
</g>
<!-- Node153&#45;&gt;Node167 -->
<g id="edge14" class="edge">
<title>Node153&#45;&gt;Node167</title>
<path fill="none" stroke="#63b8ff" d="M993.97,-76.53C1032.47,-65.69 1099.05,-46.81 1156,-30 1157.96,-29.42 1159.96,-28.83 1161.98,-28.22"/>
<polygon fill="#63b8ff" stroke="#63b8ff" points="1162.8,-31.63 1171.37,-25.4 1160.79,-24.93 1162.8,-31.63"/>
</g>
<!-- Node174 -->
<g id="node16" class="node">
<title>Node174</title>
<g id="a_node16"><a xlink:href="d__stage_8h.html" target="_top" xlink:title=" ">
<polygon fill="#fff0f0" stroke="red" points="1324.5,-24.5 1257.5,-24.5 1257.5,-5.5 1324.5,-5.5 1324.5,-24.5"/>
<text text-anchor="middle" x="1291" y="-12.5" font-family="Helvetica,sans-Serif" font-size="10.00">d/d_stage.h</text>
</a>
</g>
</g>
<!-- Node153&#45;&gt;Node174 -->
<g id="edge15" class="edge">
<title>Node153&#45;&gt;Node174</title>
<path fill="none" stroke="#63b8ff" d="M992.75,-76.6C1005.72,-73.02 1021.03,-69.03 1035,-66 1129.25,-45.53 1155.41,-53.32 1249,-30 1251.13,-29.47 1253.3,-28.89 1255.48,-28.26"/>
<polygon fill="#63b8ff" stroke="#63b8ff" points="1256.34,-31.66 1264.87,-25.38 1254.28,-24.97 1256.34,-31.66"/>
</g>
</g>
</svg>
        <g id="navigator" transform="translate(0 0)" fill="#404254">
                <rect fill="#f2f5e9" fill-opacity="0.5" stroke="#606060" stroke-width=".5" x="0" y="0" width="60" height="60"/>
                <use id="zoomplus" xlink:href="#zoomPlus" x="17" y="9" onmousedown="handleZoom(evt,'in')"/>
                <use id="zoomminus" xlink:href="#zoomMin" x="42" y="9" onmousedown="handleZoom(evt,'out')"/>
                <use id="reset" xlink:href="#resetDef" x="30" y="36" onmousedown="handleReset()"/>
                <g id="arrowUp" xlink:href="#dirArrow" transform="translate(30 24)" onmousedown="handlePan(0,-1)">
                  <use xlink:href="#rim" fill="#404040">
                        <set attributeName="fill" to="#808080" begin="arrowUp.mouseover" end="arrowUp.mouseout"/>
                  </use>
                  <path fill="none" stroke="white" stroke-width="1.5" d="M0,-3.0v7 M-2.5,-0.5L0,-3.0L2.5,-0.5"/>
                </g>
                <g id="arrowRight" xlink:href="#dirArrow" transform="rotate(90) translate(36 -43)" onmousedown="handlePan(1,0)">
                  <use xlink:href="#rim" fill="#404040">
                        <set attributeName="fill" to="#808080" begin="arrowRight.mouseover" end="arrowRight.mouseout"/>
                  </use>
                  <path fill="none" stroke="white" stroke-width="1.5" d="M0,-3.0v7 M-2.5,-0.5L0,-3.0L2.5,-0.5"/>
                </g>
                <g id="arrowDown" xlink:href="#dirArrow" transform="rotate(180) translate(-30 -48)" onmousedown="handlePan(0,1)">
                  <use xlink:href="#rim" fill="#404040">
                        <set attributeName="fill" to="#808080" begin="arrowDown.mouseover" end="arrowDown.mouseout"/>
                  </use>
                  <path fill="none" stroke="white" stroke-width="1.5" d="M0,-3.0v7 M-2.5,-0.5L0,-3.0L2.5,-0.5"/>
                </g>
                <g id="arrowLeft" xlink:href="#dirArrow" transform="rotate(270) translate(-36 17)" onmousedown="handlePan(-1,0)">
                  <use xlink:href="#rim" fill="#404040">
                        <set attributeName="fill" to="#808080" begin="arrowLeft.mouseover" end="arrowLeft.mouseout"/>
                  </use>
                  <path fill="none" stroke="white" stroke-width="1.5" d="M0,-3.0v7 M-2.5,-0.5L0,-3.0L2.5,-0.5"/>
                </g>
        </g>
        <svg viewBox="0 0 15 15" width="100%" height="30px" preserveAspectRatio="xMaxYMin meet">
         <g id="arrow_out" transform="scale(0.3 0.3)">
          <a xlink:href="d__a__canoe_8cpp__incl_org.svg" target="_base">
           <rect id="button" ry="5" rx="5" y="6" x="6" height="38" width="38"
                fill="#f2f5e9" fill-opacity="0.5" stroke="#606060" stroke-width="1.0"/>
           <path id="arrow"
             d="M 11.500037,31.436501 C 11.940474,20.09759 22.043105,11.32322 32.158766,21.979434 L 37.068811,17.246167 C 37.068811,17.246167 37.088388,32 37.088388,32 L 22.160133,31.978069 C 22.160133,31.978069 26.997745,27.140456 26.997745,27.140456 C 18.528582,18.264221 13.291696,25.230495 11.500037,31.436501 z"
             style="fill:#404040;"/>
          </a>
         </g>
        </svg>
</svg>
