<?xml version="1.0" encoding="UTF-8" standalone="no"?>
<!DOCTYPE svg PUBLIC "-//W3C//DTD SVG 1.1//EN"
 "http://www.w3.org/Graphics/SVG/1.1/DTD/svg11.dtd">
<!-- Generated by graphviz version 7.0.5 (20221223.1930)
 -->
<!-- Title: rel/d/a/obj/d_a_obj_kgate/d_a_obj_kgate.cpp Pages: 1 -->
<!--zoomable 247 -->
<svg id="main" version="1.1" xmlns="http://www.w3.org/2000/svg" xmlns:xlink="http://www.w3.org/1999/xlink" xml:space="preserve" onload="init(evt)">
<style type="text/css"><![CDATA[
.edge:hover path { stroke: red; }
.edge:hover polygon { stroke: red; fill: red; }
]]></style>
<script type="text/javascript"><![CDATA[
var edges = document.getElementsByTagName('g');
if (edges && edges.length) {
  for (var i=0;i<edges.length;i++) {
    if (edges[i].id.substr(0,4)=='edge') {
      edges[i].setAttribute('class','edge');
    }
  }
}
]]></script>
        <defs>
                <circle id="rim" cx="0" cy="0" r="7"/>
                <circle id="rim2" cx="0" cy="0" r="3.5"/>
                <g id="zoomPlus">
                        <use xlink:href="#rim" fill="#404040">
                                <set attributeName="fill" to="#808080" begin="zoomplus.mouseover" end="zoomplus.mouseout"/>
                        </use>
                        <path d="M-4,0h8M0,-4v8" fill="none" stroke="white" stroke-width="1.5" pointer-events="none"/>
                </g>
                <g id="zoomMin">
                        <use xlink:href="#rim" fill="#404040">
                                <set attributeName="fill" to="#808080" begin="zoomminus.mouseover" end="zoomminus.mouseout"/>
                        </use>
                        <path d="M-4,0h8" fill="none" stroke="white" stroke-width="1.5" pointer-events="none"/>
                </g>
                <g id="dirArrow">
                        <path fill="none" stroke="white" stroke-width="1.5" d="M0,-3.0v7 M-2.5,-0.5L0,-3.0L2.5,-0.5"/>
                </g>
               <g id="resetDef">
                       <use xlink:href="#rim2" fill="#404040">
                               <set attributeName="fill" to="#808080" begin="reset.mouseover" end="reset.mouseout"/>
                       </use>
               </g>
        </defs>

<script type="text/javascript">
var viewWidth = 6256;
var viewHeight = 247;
var sectionId = 'dynsection-0';
</script>
<script xlink:href="svgpan.js"/>
<svg id="graph" class="graph">
<g id="viewport">
<title>rel/d/a/obj/d_a_obj_kgate/d_a_obj_kgate.cpp</title>
<!-- Node1 -->
<g id="node1" class="node">
<title>Node1</title>
<g id="a_node1"><a xlink:title=" ">
<polygon fill="#999999" stroke="#666666" points="3155.5,-239 3025.5,-239 3025.5,-209 3155.5,-209 3155.5,-239"/>
<text text-anchor="start" x="3033.5" y="-227" font-family="Helvetica,sans-Serif" font-size="10.00">rel/d/a/obj/d_a_obj</text>
<text text-anchor="middle" x="3090.5" y="-216" font-family="Helvetica,sans-Serif" font-size="10.00">_kgate/d_a_obj_kgate.cpp</text>
</a>
</g>
</g>
<!-- Node2 -->
<g id="node2" class="node">
<title>Node2</title>
<g id="a_node2"><a xlink:href="d__a__obj__kgate_8h.html" target="_top" xlink:title=" ">
<polygon fill="white" stroke="#666666" points="119,-162 0,-162 0,-132 119,-132 119,-162"/>
<text text-anchor="start" x="8" y="-150" font-family="Helvetica,sans-Serif" font-size="10.00">rel/d/a/obj/d_a_obj</text>
<text text-anchor="middle" x="59.5" y="-139" font-family="Helvetica,sans-Serif" font-size="10.00">_kgate/d_a_obj_kgate.h</text>
</a>
</g>
</g>
<!-- Node1&#45;&gt;Node2 -->
<g id="edge1" class="edge">
<title>Node1&#45;&gt;Node2</title>
<path fill="none" stroke="#63b8ff" d="M3025.14,-223.1C2617.07,-223.59 426.93,-223.78 133.5,-173 124.38,-171.42 114.86,-168.91 105.81,-166.07"/>
<polygon fill="#63b8ff" stroke="#63b8ff" points="107.08,-162.81 96.49,-162.97 104.87,-169.45 107.08,-162.81"/>
</g>
<!-- Node3 -->
<g id="node3" class="node">
<title>Node3</title>
<g id="a_node3"><a xlink:href="types_8h.html" target="_top" xlink:title=" ">
<polygon fill="white" stroke="#666666" points="144,-85 63,-85 63,-66 144,-66 144,-85"/>
<text text-anchor="middle" x="103.5" y="-73" font-family="Helvetica,sans-Serif" font-size="10.00">dolphin/types.h</text>
</a>
</g>
</g>
<!-- Node1&#45;&gt;Node3 -->
<g id="edge5" class="edge">
<title>Node1&#45;&gt;Node3</title>
<path fill="none" stroke="#63b8ff" d="M3025.18,-222.72C2599.24,-220.79 232.3,-208.5 167.5,-173 159.48,-168.61 130.54,-121.72 114.46,-94.96"/>
<polygon fill="#63b8ff" stroke="#63b8ff" points="117.54,-93.29 109.41,-86.5 111.53,-96.88 117.54,-93.29"/>
</g>
<!-- Node5 -->
<g id="node5" class="node">
<title>Node5</title>
<g id="a_node5"><a xlink:href="dol2asm_8h.html" target="_top" xlink:title=" ">
<polygon fill="white" stroke="#666666" points="237,-156.5 176,-156.5 176,-137.5 237,-137.5 237,-156.5"/>
<text text-anchor="middle" x="206.5" y="-144.5" font-family="Helvetica,sans-Serif" font-size="10.00">dol2asm.h</text>
</a>
</g>
</g>
<!-- Node1&#45;&gt;Node5 -->
<g id="edge4" class="edge">
<title>Node1&#45;&gt;Node5</title>
<path fill="none" stroke="#63b8ff" d="M3025.16,-222.84C2612.79,-221.71 383.96,-213.73 246.5,-173 239.56,-170.94 232.64,-167.33 226.56,-163.47"/>
<polygon fill="#63b8ff" stroke="#63b8ff" points="228.7,-160.7 218.5,-157.86 224.7,-166.44 228.7,-160.7"/>
</g>
<!-- Node6 -->
<g id="node6" class="node">
<title>Node6</title>
<g id="a_node6"><a xlink:title=" ">
<polygon fill="#e0e0e0" stroke="#999999" points="385.5,-167.5 255.5,-167.5 255.5,-126.5 385.5,-126.5 385.5,-167.5"/>
<text text-anchor="start" x="263.5" y="-155.5" font-family="Helvetica,sans-Serif" font-size="10.00">asm/rel/d/a/obj/d_a</text>
<text text-anchor="start" x="263.5" y="-144.5" font-family="Helvetica,sans-Serif" font-size="10.00">_obj_kgate/d_a_obj_kgate</text>
<text text-anchor="middle" x="320.5" y="-133.5" font-family="Helvetica,sans-Serif" font-size="10.00">/search_coach__FPvPv.s</text>
</a>
</g>
</g>
<!-- Node1&#45;&gt;Node6 -->
<g id="edge6" class="edge">
<title>Node1&#45;&gt;Node6</title>
<path fill="none" stroke="#63b8ff" d="M3025.07,-222.99C2638.46,-222.75 660.64,-219.28 394.5,-173 390.96,-172.38 387.36,-171.63 383.75,-170.77"/>
<polygon fill="#63b8ff" stroke="#63b8ff" points="384.97,-167.47 374.4,-168.29 383.18,-174.24 384.97,-167.47"/>
</g>
<!-- Node7 -->
<g id="node7" class="node">
<title>Node7</title>
<g id="a_node7"><a xlink:title=" ">
<polygon fill="#e0e0e0" stroke="#999999" points="577.5,-167.5 403.5,-167.5 403.5,-126.5 577.5,-126.5 577.5,-167.5"/>
<text text-anchor="start" x="411.5" y="-155.5" font-family="Helvetica,sans-Serif" font-size="10.00">asm/rel/d/a/obj/d_a</text>
<text text-anchor="start" x="411.5" y="-144.5" font-family="Helvetica,sans-Serif" font-size="10.00">_obj_kgate/d_a_obj_kgate</text>
<text text-anchor="middle" x="490.5" y="-133.5" font-family="Helvetica,sans-Serif" font-size="10.00">/initBaseMtx__12daObjKGate_cFv.s</text>
</a>
</g>
</g>
<!-- Node1&#45;&gt;Node7 -->
<g id="edge7" class="edge">
<title>Node1&#45;&gt;Node7</title>
<path fill="none" stroke="#63b8ff" d="M3025.05,-222.6C2655.22,-220.23 834.9,-206.88 587.5,-173 582.18,-172.27 576.73,-171.35 571.27,-170.31"/>
<polygon fill="#63b8ff" stroke="#63b8ff" points="572.04,-166.89 561.53,-168.29 570.62,-173.75 572.04,-166.89"/>
</g>
<!-- Node8 -->
<g id="node8" class="node">
<title>Node8</title>
<g id="a_node8"><a xlink:title=" ">
<polygon fill="#e0e0e0" stroke="#999999" points="771,-167.5 596,-167.5 596,-126.5 771,-126.5 771,-167.5"/>
<text text-anchor="start" x="604" y="-155.5" font-family="Helvetica,sans-Serif" font-size="10.00">asm/rel/d/a/obj/d_a</text>
<text text-anchor="start" x="604" y="-144.5" font-family="Helvetica,sans-Serif" font-size="10.00">_obj_kgate/d_a_obj_kgate</text>
<text text-anchor="middle" x="683.5" y="-133.5" font-family="Helvetica,sans-Serif" font-size="10.00">/setBaseMtx__12daObjKGate_cFv.s</text>
</a>
</g>
</g>
<!-- Node1&#45;&gt;Node8 -->
<g id="edge8" class="edge">
<title>Node1&#45;&gt;Node8</title>
<path fill="none" stroke="#63b8ff" d="M3025.28,-222.49C2673.28,-219.59 1007.75,-204.32 780.5,-173 775.18,-172.27 769.73,-171.35 764.27,-170.3"/>
<polygon fill="#63b8ff" stroke="#63b8ff" points="765.04,-166.88 754.54,-168.28 763.62,-173.74 765.04,-166.88"/>
</g>
<!-- Node9 -->
<g id="node9" class="node">
<title>Node9</title>
<g id="a_node9"><a xlink:title=" ">
<polygon fill="#e0e0e0" stroke="#999999" points="941.5,-167.5 789.5,-167.5 789.5,-126.5 941.5,-126.5 941.5,-167.5"/>
<text text-anchor="start" x="797.5" y="-155.5" font-family="Helvetica,sans-Serif" font-size="10.00">asm/rel/d/a/obj/d_a</text>
<text text-anchor="start" x="797.5" y="-144.5" font-family="Helvetica,sans-Serif" font-size="10.00">_obj_kgate/d_a_obj_kgate</text>
<text text-anchor="middle" x="865.5" y="-133.5" font-family="Helvetica,sans-Serif" font-size="10.00">/Create__12daObjKGate_cFv.s</text>
</a>
</g>
</g>
<!-- Node1&#45;&gt;Node9 -->
<g id="edge9" class="edge">
<title>Node1&#45;&gt;Node9</title>
<path fill="none" stroke="#63b8ff" d="M3025.19,-222.48C2688.92,-219.68 1160.41,-205.24 951.5,-173 947.13,-172.33 942.67,-171.49 938.19,-170.54"/>
<polygon fill="#63b8ff" stroke="#63b8ff" points="939.08,-167.16 928.55,-168.32 937.5,-173.98 939.08,-167.16"/>
</g>
<!-- Node10 -->
<g id="node10" class="node">
<title>Node10</title>
<g id="a_node10"><a xlink:title=" ">
<polygon fill="#e0e0e0" stroke="#999999" points="1135,-167.5 960,-167.5 960,-126.5 1135,-126.5 1135,-167.5"/>
<text text-anchor="start" x="968" y="-155.5" font-family="Helvetica,sans-Serif" font-size="10.00">asm/rel/d/a/obj/d_a</text>
<text text-anchor="start" x="968" y="-144.5" font-family="Helvetica,sans-Serif" font-size="10.00">_obj_kgate/d_a_obj_kgate</text>
<text text-anchor="middle" x="1047.5" y="-133.5" font-family="Helvetica,sans-Serif" font-size="10.00">/CreateHeap__12daObjKGate_cFv.s</text>
</a>
</g>
</g>
<!-- Node1&#45;&gt;Node10 -->
<g id="edge10" class="edge">
<title>Node1&#45;&gt;Node10</title>
<path fill="none" stroke="#63b8ff" d="M3025.44,-223.31C2730.82,-224.39 1519.78,-225.49 1144.5,-173 1139.23,-172.26 1133.84,-171.35 1128.43,-170.3"/>
<polygon fill="#63b8ff" stroke="#63b8ff" points="1129.31,-166.91 1118.8,-168.3 1127.88,-173.76 1129.31,-166.91"/>
</g>
<!-- Node11 -->
<g id="node11" class="node">
<title>Node11</title>
<g id="a_node11"><a xlink:title=" ">
<polygon fill="#e0e0e0" stroke="#999999" points="1317.5,-167.5 1153.5,-167.5 1153.5,-126.5 1317.5,-126.5 1317.5,-167.5"/>
<text text-anchor="start" x="1161.5" y="-155.5" font-family="Helvetica,sans-Serif" font-size="10.00">asm/rel/d/a/obj/d_a</text>
<text text-anchor="start" x="1161.5" y="-144.5" font-family="Helvetica,sans-Serif" font-size="10.00">_obj_kgate/d_a_obj_kgate</text>
<text text-anchor="middle" x="1235.5" y="-133.5" font-family="Helvetica,sans-Serif" font-size="10.00">/create1st__12daObjKGate_cFv.s</text>
</a>
</g>
</g>
<!-- Node1&#45;&gt;Node11 -->
<g id="edge11" class="edge">
<title>Node1&#45;&gt;Node11</title>
<path fill="none" stroke="#63b8ff" d="M3025.1,-223.24C2747.26,-223.94 1663.6,-223.34 1326.5,-173 1321.63,-172.27 1316.65,-171.37 1311.65,-170.35"/>
<polygon fill="#63b8ff" stroke="#63b8ff" points="1312.71,-167 1302.19,-168.25 1311.2,-173.83 1312.71,-167"/>
</g>
<!-- Node12 -->
<g id="node12" class="node">
<title>Node12</title>
<g id="a_node12"><a xlink:title=" ">
<polygon fill="#e0e0e0" stroke="#999999" points="1481.5,-173 1335.5,-173 1335.5,-121 1481.5,-121 1481.5,-173"/>
<text text-anchor="start" x="1343.5" y="-161" font-family="Helvetica,sans-Serif" font-size="10.00">asm/rel/d/a/obj/d_a</text>
<text text-anchor="start" x="1343.5" y="-150" font-family="Helvetica,sans-Serif" font-size="10.00">_obj_kgate/d_a_obj_kgate</text>
<text text-anchor="start" x="1343.5" y="-139" font-family="Helvetica,sans-Serif" font-size="10.00">/checkAreaL__12daObjKGate</text>
<text text-anchor="middle" x="1408.5" y="-128" font-family="Helvetica,sans-Serif" font-size="10.00">_cFPC4cXyzPC4cXyz.s</text>
</a>
</g>
</g>
<!-- Node1&#45;&gt;Node12 -->
<g id="edge12" class="edge">
<title>Node1&#45;&gt;Node12</title>
<path fill="none" stroke="#63b8ff" d="M3025.11,-223.23C2766.85,-223.78 1816.68,-222.45 1492.83,-172.92"/>
<polygon fill="#63b8ff" stroke="#63b8ff" points="1493.5,-169.48 1483.07,-171.38 1492.4,-176.4 1493.5,-169.48"/>
</g>
<!-- Node13 -->
<g id="node13" class="node">
<title>Node13</title>
<g id="a_node13"><a xlink:title=" ">
<polygon fill="#e0e0e0" stroke="#999999" points="1647,-173 1500,-173 1500,-121 1647,-121 1647,-173"/>
<text text-anchor="start" x="1508" y="-161" font-family="Helvetica,sans-Serif" font-size="10.00">asm/rel/d/a/obj/d_a</text>
<text text-anchor="start" x="1508" y="-150" font-family="Helvetica,sans-Serif" font-size="10.00">_obj_kgate/d_a_obj_kgate</text>
<text text-anchor="start" x="1508" y="-139" font-family="Helvetica,sans-Serif" font-size="10.00">/checkAreaR__12daObjKGate</text>
<text text-anchor="middle" x="1573.5" y="-128" font-family="Helvetica,sans-Serif" font-size="10.00">_cFPC4cXyzPC4cXyz.s</text>
</a>
</g>
</g>
<!-- Node1&#45;&gt;Node13 -->
<g id="edge13" class="edge">
<title>Node1&#45;&gt;Node13</title>
<path fill="none" stroke="#63b8ff" d="M3025.33,-222.95C2784.99,-222.44 1947.8,-217.54 1658.78,-173.12"/>
<polygon fill="#63b8ff" stroke="#63b8ff" points="1659.41,-169.67 1648.98,-171.55 1658.31,-176.59 1659.41,-169.67"/>
</g>
<!-- Node14 -->
<g id="node14" class="node">
<title>Node14</title>
<g id="a_node14"><a xlink:title=" ">
<polygon fill="#e0e0e0" stroke="#999999" points="1838,-167.5 1665,-167.5 1665,-126.5 1838,-126.5 1838,-167.5"/>
<text text-anchor="start" x="1673" y="-155.5" font-family="Helvetica,sans-Serif" font-size="10.00">asm/rel/d/a/obj/d_a</text>
<text text-anchor="start" x="1673" y="-144.5" font-family="Helvetica,sans-Serif" font-size="10.00">_obj_kgate/d_a_obj_kgate</text>
<text text-anchor="middle" x="1751.5" y="-133.5" font-family="Helvetica,sans-Serif" font-size="10.00">/checkOpen__12daObjKGate_cFv.s</text>
</a>
</g>
</g>
<!-- Node1&#45;&gt;Node14 -->
<g id="edge14" class="edge">
<title>Node1&#45;&gt;Node14</title>
<path fill="none" stroke="#63b8ff" d="M3025.07,-222.22C2802.83,-219.28 2077.95,-207.24 1847.5,-173 1842.53,-172.26 1837.44,-171.37 1832.33,-170.36"/>
<polygon fill="#63b8ff" stroke="#63b8ff" points="1833.12,-166.95 1822.62,-168.31 1831.68,-173.8 1833.12,-166.95"/>
</g>
<!-- Node15 -->
<g id="node15" class="node">
<title>Node15</title>
<g id="a_node15"><a xlink:title=" ">
<polygon fill="#e0e0e0" stroke="#999999" points="1994.5,-173 1856.5,-173 1856.5,-121 1994.5,-121 1994.5,-173"/>
<text text-anchor="start" x="1864.5" y="-161" font-family="Helvetica,sans-Serif" font-size="10.00">asm/rel/d/a/obj/d_a</text>
<text text-anchor="start" x="1864.5" y="-150" font-family="Helvetica,sans-Serif" font-size="10.00">_obj_kgate/d_a_obj_kgate</text>
<text text-anchor="start" x="1864.5" y="-139" font-family="Helvetica,sans-Serif" font-size="10.00">/checkDirL__12daObjKGate</text>
<text text-anchor="middle" x="1925.5" y="-128" font-family="Helvetica,sans-Serif" font-size="10.00">_cFP10fopAc_ac_c.s</text>
</a>
</g>
</g>
<!-- Node1&#45;&gt;Node15 -->
<g id="edge15" class="edge">
<title>Node1&#45;&gt;Node15</title>
<path fill="none" stroke="#63b8ff" d="M3025.27,-222.22C2825.64,-219.49 2223.94,-208.62 2005.94,-172.93"/>
<polygon fill="#63b8ff" stroke="#63b8ff" points="2006.55,-169.48 1996.1,-171.24 2005.36,-176.38 2006.55,-169.48"/>
</g>
<!-- Node16 -->
<g id="node16" class="node">
<title>Node16</title>
<g id="a_node16"><a xlink:title=" ">
<polygon fill="#e0e0e0" stroke="#999999" points="2152,-173 2013,-173 2013,-121 2152,-121 2152,-173"/>
<text text-anchor="start" x="2021" y="-161" font-family="Helvetica,sans-Serif" font-size="10.00">asm/rel/d/a/obj/d_a</text>
<text text-anchor="start" x="2021" y="-150" font-family="Helvetica,sans-Serif" font-size="10.00">_obj_kgate/d_a_obj_kgate</text>
<text text-anchor="start" x="2021" y="-139" font-family="Helvetica,sans-Serif" font-size="10.00">/checkDirR__12daObjKGate</text>
<text text-anchor="middle" x="2082.5" y="-128" font-family="Helvetica,sans-Serif" font-size="10.00">_cFP10fopAc_ac_c.s</text>
</a>
</g>
</g>
<!-- Node1&#45;&gt;Node16 -->
<g id="edge16" class="edge">
<title>Node1&#45;&gt;Node16</title>
<path fill="none" stroke="#63b8ff" d="M3025.18,-221.63C2846.04,-217.53 2348.62,-203.83 2163.68,-173.11"/>
<polygon fill="#63b8ff" stroke="#63b8ff" points="2164.42,-169.68 2153.97,-171.41 2163.22,-176.58 2164.42,-169.68"/>
</g>
<!-- Node17 -->
<g id="node17" class="node">
<title>Node17</title>
<g id="a_node17"><a xlink:title=" ">
<polygon fill="#e0e0e0" stroke="#999999" points="2334.5,-167.5 2170.5,-167.5 2170.5,-126.5 2334.5,-126.5 2334.5,-167.5"/>
<text text-anchor="start" x="2178.5" y="-155.5" font-family="Helvetica,sans-Serif" font-size="10.00">asm/rel/d/a/obj/d_a</text>
<text text-anchor="start" x="2178.5" y="-144.5" font-family="Helvetica,sans-Serif" font-size="10.00">_obj_kgate/d_a_obj_kgate</text>
<text text-anchor="middle" x="2252.5" y="-133.5" font-family="Helvetica,sans-Serif" font-size="10.00">/setAtkSE__12daObjKGate_cFv.s</text>
</a>
</g>
</g>
<!-- Node1&#45;&gt;Node17 -->
<g id="edge17" class="edge">
<title>Node1&#45;&gt;Node17</title>
<path fill="none" stroke="#63b8ff" d="M3025.04,-223.03C2894.47,-222.11 2592.77,-215.14 2343.5,-173 2339.17,-172.27 2334.75,-171.42 2330.31,-170.48"/>
<polygon fill="#63b8ff" stroke="#63b8ff" points="2331.25,-167.1 2320.72,-168.31 2329.71,-173.93 2331.25,-167.1"/>
</g>
<!-- Node18 -->
<g id="node18" class="node">
<title>Node18</title>
<g id="a_node18"><a xlink:title=" ">
<polygon fill="#e0e0e0" stroke="#999999" points="2516.5,-167.5 2352.5,-167.5 2352.5,-126.5 2516.5,-126.5 2516.5,-167.5"/>
<text text-anchor="start" x="2360.5" y="-155.5" font-family="Helvetica,sans-Serif" font-size="10.00">asm/rel/d/a/obj/d_a</text>
<text text-anchor="start" x="2360.5" y="-144.5" font-family="Helvetica,sans-Serif" font-size="10.00">_obj_kgate/d_a_obj_kgate</text>
<text text-anchor="middle" x="2434.5" y="-133.5" font-family="Helvetica,sans-Serif" font-size="10.00">/setCrkSE__12daObjKGate_cFv.s</text>
</a>
</g>
</g>
<!-- Node1&#45;&gt;Node18 -->
<g id="edge18" class="edge">
<title>Node1&#45;&gt;Node18</title>
<path fill="none" stroke="#63b8ff" d="M3025.3,-220.96C2919.76,-216.83 2705.28,-204.96 2526.5,-173 2522.39,-172.27 2518.19,-171.43 2513.97,-170.53"/>
<polygon fill="#63b8ff" stroke="#63b8ff" points="2514.77,-167.12 2504.25,-168.32 2513.22,-173.95 2514.77,-167.12"/>
</g>
<!-- Node19 -->
<g id="node19" class="node">
<title>Node19</title>
<g id="a_node19"><a xlink:title=" ">
<polygon fill="#e0e0e0" stroke="#999999" points="2684,-167.5 2535,-167.5 2535,-126.5 2684,-126.5 2684,-167.5"/>
<text text-anchor="start" x="2543" y="-155.5" font-family="Helvetica,sans-Serif" font-size="10.00">asm/rel/d/a/obj/d_a</text>
<text text-anchor="start" x="2543" y="-144.5" font-family="Helvetica,sans-Serif" font-size="10.00">_obj_kgate/d_a_obj_kgate</text>
<text text-anchor="middle" x="2609.5" y="-133.5" font-family="Helvetica,sans-Serif" font-size="10.00">/action__12daObjKGate_cFv.s</text>
</a>
</g>
</g>
<!-- Node1&#45;&gt;Node19 -->
<g id="edge19" class="edge">
<title>Node1&#45;&gt;Node19</title>
<path fill="none" stroke="#63b8ff" d="M3025.32,-218.09C2946.22,-211.38 2809.07,-197.3 2693.5,-173 2690.18,-172.3 2686.81,-171.54 2683.41,-170.72"/>
<polygon fill="#63b8ff" stroke="#63b8ff" points="2684.53,-167.39 2673.98,-168.33 2682.81,-174.18 2684.53,-167.39"/>
</g>
<!-- Node20 -->
<g id="node20" class="node">
<title>Node20</title>
<g id="a_node20"><a xlink:title=" ">
<polygon fill="#e0e0e0" stroke="#999999" points="2881,-167.5 2702,-167.5 2702,-126.5 2881,-126.5 2881,-167.5"/>
<text text-anchor="start" x="2710" y="-155.5" font-family="Helvetica,sans-Serif" font-size="10.00">asm/rel/d/a/obj/d_a</text>
<text text-anchor="start" x="2710" y="-144.5" font-family="Helvetica,sans-Serif" font-size="10.00">_obj_kgate/d_a_obj_kgate</text>
<text text-anchor="middle" x="2791.5" y="-133.5" font-family="Helvetica,sans-Serif" font-size="10.00">/action_typeA__12daObjKGate_cFv.s</text>
</a>
</g>
</g>
<!-- Node1&#45;&gt;Node20 -->
<g id="edge20" class="edge">
<title>Node1&#45;&gt;Node20</title>
<path fill="none" stroke="#63b8ff" d="M3032.73,-208.6C2992.78,-198.63 2938.4,-185.04 2890.5,-173 2887.54,-172.26 2884.53,-171.5 2881.49,-170.73"/>
<polygon fill="#63b8ff" stroke="#63b8ff" points="2882.41,-167.36 2871.86,-168.31 2880.7,-174.15 2882.41,-167.36"/>
</g>
<!-- Node21 -->
<g id="node21" class="node">
<title>Node21</title>
<g id="a_node21"><a xlink:title=" ">
<polygon fill="#e0e0e0" stroke="#999999" points="3078,-167.5 2899,-167.5 2899,-126.5 3078,-126.5 3078,-167.5"/>
<text text-anchor="start" x="2907" y="-155.5" font-family="Helvetica,sans-Serif" font-size="10.00">asm/rel/d/a/obj/d_a</text>
<text text-anchor="start" x="2907" y="-144.5" font-family="Helvetica,sans-Serif" font-size="10.00">_obj_kgate/d_a_obj_kgate</text>
<text text-anchor="middle" x="2988.5" y="-133.5" font-family="Helvetica,sans-Serif" font-size="10.00">/action_typeB__12daObjKGate_cFv.s</text>
</a>
</g>
</g>
<!-- Node1&#45;&gt;Node21 -->
<g id="edge21" class="edge">
<title>Node1&#45;&gt;Node21</title>
<path fill="none" stroke="#63b8ff" d="M3070.83,-208.54C3057.67,-198.86 3039.96,-185.84 3024.34,-174.35"/>
<polygon fill="#63b8ff" stroke="#63b8ff" points="3026.78,-171.8 3016.65,-168.7 3022.64,-177.44 3026.78,-171.8"/>
</g>
<!-- Node22 -->
<g id="node22" class="node">
<title>Node22</title>
<g id="a_node22"><a xlink:title=" ">
<polygon fill="#e0e0e0" stroke="#999999" points="3290.5,-167.5 3096.5,-167.5 3096.5,-126.5 3290.5,-126.5 3290.5,-167.5"/>
<text text-anchor="start" x="3104.5" y="-155.5" font-family="Helvetica,sans-Serif" font-size="10.00">asm/rel/d/a/obj/d_a</text>
<text text-anchor="start" x="3104.5" y="-144.5" font-family="Helvetica,sans-Serif" font-size="10.00">_obj_kgate/d_a_obj_kgate</text>
<text text-anchor="middle" x="3193.5" y="-133.5" font-family="Helvetica,sans-Serif" font-size="10.00">/actionWaitEvent__12daObjKGate_cFv.s</text>
</a>
</g>
</g>
<!-- Node1&#45;&gt;Node22 -->
<g id="edge22" class="edge">
<title>Node1&#45;&gt;Node22</title>
<path fill="none" stroke="#63b8ff" d="M3110.36,-208.54C3123.65,-198.86 3141.53,-185.84 3157.31,-174.35"/>
<polygon fill="#63b8ff" stroke="#63b8ff" points="3159.06,-177.41 3165.08,-168.69 3154.94,-171.75 3159.06,-177.41"/>
</g>
<!-- Node23 -->
<g id="node23" class="node">
<title>Node23</title>
<g id="a_node23"><a xlink:title=" ">
<polygon fill="#e0e0e0" stroke="#999999" points="3482.5,-167.5 3308.5,-167.5 3308.5,-126.5 3482.5,-126.5 3482.5,-167.5"/>
<text text-anchor="start" x="3316.5" y="-155.5" font-family="Helvetica,sans-Serif" font-size="10.00">asm/rel/d/a/obj/d_a</text>
<text text-anchor="start" x="3316.5" y="-144.5" font-family="Helvetica,sans-Serif" font-size="10.00">_obj_kgate/d_a_obj_kgate</text>
<text text-anchor="middle" x="3395.5" y="-133.5" font-family="Helvetica,sans-Serif" font-size="10.00">/actionEvent__12daObjKGate_cFv.s</text>
</a>
</g>
</g>
<!-- Node1&#45;&gt;Node23 -->
<g id="edge23" class="edge">
<title>Node1&#45;&gt;Node23</title>
<path fill="none" stroke="#63b8ff" d="M3152.31,-208.55C3193.95,-198.74 3250.09,-185.34 3299.5,-173 3302.41,-172.27 3305.38,-171.53 3308.37,-170.77"/>
<polygon fill="#63b8ff" stroke="#63b8ff" points="3309,-174.22 3317.82,-168.37 3307.27,-167.44 3309,-174.22"/>
</g>
<!-- Node24 -->
<g id="node24" class="node">
<title>Node24</title>
<g id="a_node24"><a xlink:title=" ">
<polygon fill="#e0e0e0" stroke="#999999" points="3692,-167.5 3501,-167.5 3501,-126.5 3692,-126.5 3692,-167.5"/>
<text text-anchor="start" x="3509" y="-155.5" font-family="Helvetica,sans-Serif" font-size="10.00">asm/rel/d/a/obj/d_a</text>
<text text-anchor="start" x="3509" y="-144.5" font-family="Helvetica,sans-Serif" font-size="10.00">_obj_kgate/d_a_obj_kgate</text>
<text text-anchor="middle" x="3596.5" y="-133.5" font-family="Helvetica,sans-Serif" font-size="10.00">/event_proc_call__12daObjKGate_cFv.s</text>
</a>
</g>
</g>
<!-- Node1&#45;&gt;Node24 -->
<g id="edge24" class="edge">
<title>Node1&#45;&gt;Node24</title>
<path fill="none" stroke="#63b8ff" d="M3155.77,-217.08C3235.41,-209.35 3373.96,-194.25 3491.5,-173 3496.12,-172.17 3500.83,-171.25 3505.59,-170.29"/>
<polygon fill="#63b8ff" stroke="#63b8ff" points="3506.17,-173.75 3515.24,-168.27 3504.73,-166.89 3506.17,-173.75"/>
</g>
<!-- Node25 -->
<g id="node25" class="node">
<title>Node25</title>
<g id="a_node25"><a xlink:title=" ">
<polygon fill="#e0e0e0" stroke="#999999" points="3877,-167.5 3710,-167.5 3710,-126.5 3877,-126.5 3877,-167.5"/>
<text text-anchor="start" x="3718" y="-155.5" font-family="Helvetica,sans-Serif" font-size="10.00">asm/rel/d/a/obj/d_a</text>
<text text-anchor="start" x="3718" y="-144.5" font-family="Helvetica,sans-Serif" font-size="10.00">_obj_kgate/d_a_obj_kgate</text>
<text text-anchor="middle" x="3793.5" y="-133.5" font-family="Helvetica,sans-Serif" font-size="10.00">/demoProc__12daObjKGate_cFv.s</text>
</a>
</g>
</g>
<!-- Node1&#45;&gt;Node25 -->
<g id="edge25" class="edge">
<title>Node1&#45;&gt;Node25</title>
<path fill="none" stroke="#63b8ff" d="M3155.66,-221.59C3267.91,-218.29 3504.68,-207.49 3701.5,-173 3705.78,-172.25 3710.15,-171.39 3714.54,-170.45"/>
<polygon fill="#63b8ff" stroke="#63b8ff" points="3715.03,-173.93 3724.01,-168.31 3713.49,-167.1 3715.03,-173.93"/>
</g>
<!-- Node26 -->
<g id="node26" class="node">
<title>Node26</title>
<g id="a_node26"><a xlink:title=" ">
<polygon fill="#e0e0e0" stroke="#999999" points="4085.5,-167.5 3895.5,-167.5 3895.5,-126.5 4085.5,-126.5 4085.5,-167.5"/>
<text text-anchor="start" x="3903.5" y="-155.5" font-family="Helvetica,sans-Serif" font-size="10.00">asm/rel/d/a/obj/d_a</text>
<text text-anchor="start" x="3903.5" y="-144.5" font-family="Helvetica,sans-Serif" font-size="10.00">_obj_kgate/d_a_obj_kgate</text>
<text text-anchor="middle" x="3990.5" y="-133.5" font-family="Helvetica,sans-Serif" font-size="10.00">/getDemoAction__12daObjKGate_cFv.s</text>
</a>
</g>
</g>
<!-- Node1&#45;&gt;Node26 -->
<g id="edge26" class="edge">
<title>Node1&#45;&gt;Node26</title>
<path fill="none" stroke="#63b8ff" d="M3155.91,-222.71C3292.45,-221.27 3617.44,-213.48 3886.5,-173 3891.98,-172.18 3897.6,-171.2 3903.25,-170.13"/>
<polygon fill="#63b8ff" stroke="#63b8ff" points="3903.52,-173.64 3912.64,-168.25 3902.14,-166.78 3903.52,-173.64"/>
</g>
<!-- Node27 -->
<g id="node27" class="node">
<title>Node27</title>
<g id="a_node27"><a xlink:title=" ">
<polygon fill="#e0e0e0" stroke="#999999" points="4233.5,-173 4103.5,-173 4103.5,-121 4233.5,-121 4233.5,-173"/>
<text text-anchor="start" x="4111.5" y="-161" font-family="Helvetica,sans-Serif" font-size="10.00">asm/rel/d/a/obj/d_a</text>
<text text-anchor="start" x="4111.5" y="-150" font-family="Helvetica,sans-Serif" font-size="10.00">_obj_kgate/d_a_obj_kgate</text>
<text text-anchor="start" x="4111.5" y="-139" font-family="Helvetica,sans-Serif" font-size="10.00">/Execute__12daObjKGate</text>
<text text-anchor="middle" x="4168.5" y="-128" font-family="Helvetica,sans-Serif" font-size="10.00">_cFPPA3_A4_f.s</text>
</a>
</g>
</g>
<!-- Node1&#45;&gt;Node27 -->
<g id="edge27" class="edge">
<title>Node1&#45;&gt;Node27</title>
<path fill="none" stroke="#63b8ff" d="M3155.89,-222.09C3345.18,-219.11 3892.24,-207.81 4092.15,-173.13"/>
<polygon fill="#63b8ff" stroke="#63b8ff" points="4092.69,-176.59 4101.9,-171.35 4091.44,-169.7 4092.69,-176.59"/>
</g>
<!-- Node28 -->
<g id="node28" class="node">
<title>Node28</title>
<g id="a_node28"><a xlink:title=" ">
<polygon fill="#e0e0e0" stroke="#999999" points="4397.5,-167.5 4251.5,-167.5 4251.5,-126.5 4397.5,-126.5 4397.5,-167.5"/>
<text text-anchor="start" x="4259.5" y="-155.5" font-family="Helvetica,sans-Serif" font-size="10.00">asm/rel/d/a/obj/d_a</text>
<text text-anchor="start" x="4259.5" y="-144.5" font-family="Helvetica,sans-Serif" font-size="10.00">_obj_kgate/d_a_obj_kgate</text>
<text text-anchor="middle" x="4324.5" y="-133.5" font-family="Helvetica,sans-Serif" font-size="10.00">/Draw__12daObjKGate_cFv.s</text>
</a>
</g>
</g>
<!-- Node1&#45;&gt;Node28 -->
<g id="edge28" class="edge">
<title>Node1&#45;&gt;Node28</title>
<path fill="none" stroke="#63b8ff" d="M3155.93,-222.33C3367.44,-219.82 4031.25,-209.19 4242.5,-173 4246.36,-172.34 4250.29,-171.55 4254.24,-170.67"/>
<polygon fill="#63b8ff" stroke="#63b8ff" points="4255,-174.08 4263.89,-168.31 4253.34,-167.28 4255,-174.08"/>
</g>
<!-- Node29 -->
<g id="node29" class="node">
<title>Node29</title>
<g id="a_node29"><a xlink:title=" ">
<polygon fill="#e0e0e0" stroke="#999999" points="4567,-167.5 4416,-167.5 4416,-126.5 4567,-126.5 4567,-167.5"/>
<text text-anchor="start" x="4424" y="-155.5" font-family="Helvetica,sans-Serif" font-size="10.00">asm/rel/d/a/obj/d_a</text>
<text text-anchor="start" x="4424" y="-144.5" font-family="Helvetica,sans-Serif" font-size="10.00">_obj_kgate/d_a_obj_kgate</text>
<text text-anchor="middle" x="4491.5" y="-133.5" font-family="Helvetica,sans-Serif" font-size="10.00">/Delete__12daObjKGate_cFv.s</text>
</a>
</g>
</g>
<!-- Node1&#45;&gt;Node29 -->
<g id="edge29" class="edge">
<title>Node1&#45;&gt;Node29</title>
<path fill="none" stroke="#63b8ff" d="M3155.78,-222.66C3386.33,-221.12 4161.68,-213.02 4406.5,-173 4410.61,-172.33 4414.81,-171.52 4419.02,-170.61"/>
<polygon fill="#63b8ff" stroke="#63b8ff" points="4419.76,-174.03 4428.7,-168.33 4418.16,-167.21 4419.76,-174.03"/>
</g>
<!-- Node30 -->
<g id="node30" class="node">
<title>Node30</title>
<g id="a_node30"><a xlink:title=" ">
<polygon fill="#e0e0e0" stroke="#999999" points="4715.5,-173 4585.5,-173 4585.5,-121 4715.5,-121 4715.5,-173"/>
<text text-anchor="start" x="4593.5" y="-161" font-family="Helvetica,sans-Serif" font-size="10.00">asm/rel/d/a/obj/d_a</text>
<text text-anchor="start" x="4593.5" y="-150" font-family="Helvetica,sans-Serif" font-size="10.00">_obj_kgate/d_a_obj_kgate</text>
<text text-anchor="start" x="4593.5" y="-139" font-family="Helvetica,sans-Serif" font-size="10.00">/daObjKGate_create1st_</text>
<text text-anchor="middle" x="4650.5" y="-128" font-family="Helvetica,sans-Serif" font-size="10.00">_FP12daObjKGate_c.s</text>
</a>
</g>
</g>
<!-- Node1&#45;&gt;Node30 -->
<g id="edge30" class="edge">
<title>Node1&#45;&gt;Node30</title>
<path fill="none" stroke="#63b8ff" d="M3155.94,-223.33C3402.4,-224.19 4275.37,-223.63 4574.16,-173.11"/>
<polygon fill="#63b8ff" stroke="#63b8ff" points="4574.67,-176.58 4583.91,-171.4 4573.46,-169.69 4574.67,-176.58"/>
</g>
<!-- Node31 -->
<g id="node31" class="node">
<title>Node31</title>
<g id="a_node31"><a xlink:title=" ">
<polygon fill="#e0e0e0" stroke="#999999" points="4863.5,-167.5 4733.5,-167.5 4733.5,-126.5 4863.5,-126.5 4863.5,-167.5"/>
<text text-anchor="start" x="4741.5" y="-155.5" font-family="Helvetica,sans-Serif" font-size="10.00">asm/rel/d/a/obj/d_a</text>
<text text-anchor="start" x="4741.5" y="-144.5" font-family="Helvetica,sans-Serif" font-size="10.00">_obj_kgate/d_a_obj_kgate</text>
<text text-anchor="middle" x="4798.5" y="-133.5" font-family="Helvetica,sans-Serif" font-size="10.00">/__dt__8dCcD_CylFv.s</text>
</a>
</g>
</g>
<!-- Node1&#45;&gt;Node31 -->
<g id="edge31" class="edge">
<title>Node1&#45;&gt;Node31</title>
<path fill="none" stroke="#63b8ff" d="M3155.75,-222.14C3440.68,-218.23 4568.52,-201.09 4724.5,-173 4727.86,-172.39 4731.28,-171.67 4734.71,-170.85"/>
<polygon fill="#63b8ff" stroke="#63b8ff" points="4735.41,-174.28 4744.18,-168.33 4733.61,-167.51 4735.41,-174.28"/>
</g>
<!-- Node32 -->
<g id="node32" class="node">
<title>Node32</title>
<g id="a_node32"><a xlink:title=" ">
<polygon fill="#e0e0e0" stroke="#999999" points="5011.5,-167.5 4881.5,-167.5 4881.5,-126.5 5011.5,-126.5 5011.5,-167.5"/>
<text text-anchor="start" x="4889.5" y="-155.5" font-family="Helvetica,sans-Serif" font-size="10.00">asm/rel/d/a/obj/d_a</text>
<text text-anchor="start" x="4889.5" y="-144.5" font-family="Helvetica,sans-Serif" font-size="10.00">_obj_kgate/d_a_obj_kgate</text>
<text text-anchor="middle" x="4946.5" y="-133.5" font-family="Helvetica,sans-Serif" font-size="10.00">/__ct__8dCcD_CylFv.s</text>
</a>
</g>
</g>
<!-- Node1&#45;&gt;Node32 -->
<g id="edge32" class="edge">
<title>Node1&#45;&gt;Node32</title>
<path fill="none" stroke="#63b8ff" d="M3155.78,-222.32C3456.52,-219.02 4701.27,-203.62 4872.5,-173 4875.86,-172.4 4879.28,-171.67 4882.71,-170.86"/>
<polygon fill="#63b8ff" stroke="#63b8ff" points="4883.41,-174.29 4892.18,-168.35 4881.62,-167.52 4883.41,-174.29"/>
</g>
<!-- Node33 -->
<g id="node33" class="node">
<title>Node33</title>
<g id="a_node33"><a xlink:title=" ">
<polygon fill="#e0e0e0" stroke="#999999" points="5159.5,-167.5 5029.5,-167.5 5029.5,-126.5 5159.5,-126.5 5159.5,-167.5"/>
<text text-anchor="start" x="5037.5" y="-155.5" font-family="Helvetica,sans-Serif" font-size="10.00">asm/rel/d/a/obj/d_a</text>
<text text-anchor="start" x="5037.5" y="-144.5" font-family="Helvetica,sans-Serif" font-size="10.00">_obj_kgate/d_a_obj_kgate</text>
<text text-anchor="middle" x="5094.5" y="-133.5" font-family="Helvetica,sans-Serif" font-size="10.00">/__dt__8cM3dGCylFv.s</text>
</a>
</g>
</g>
<!-- Node1&#45;&gt;Node33 -->
<g id="edge33" class="edge">
<title>Node1&#45;&gt;Node33</title>
<path fill="none" stroke="#63b8ff" d="M3155.86,-222.47C3471.89,-219.74 4833.99,-206.14 5020.5,-173 5023.86,-172.4 5027.28,-171.68 5030.71,-170.86"/>
<polygon fill="#63b8ff" stroke="#63b8ff" points="5031.41,-174.3 5040.18,-168.36 5029.62,-167.53 5031.41,-174.3"/>
</g>
<!-- Node34 -->
<g id="node34" class="node">
<title>Node34</title>
<g id="a_node34"><a xlink:title=" ">
<polygon fill="#e0e0e0" stroke="#999999" points="5307.5,-167.5 5177.5,-167.5 5177.5,-126.5 5307.5,-126.5 5307.5,-167.5"/>
<text text-anchor="start" x="5185.5" y="-155.5" font-family="Helvetica,sans-Serif" font-size="10.00">asm/rel/d/a/obj/d_a</text>
<text text-anchor="start" x="5185.5" y="-144.5" font-family="Helvetica,sans-Serif" font-size="10.00">_obj_kgate/d_a_obj_kgate</text>
<text text-anchor="middle" x="5242.5" y="-133.5" font-family="Helvetica,sans-Serif" font-size="10.00">/__dt__8cM3dGAabFv.s</text>
</a>
</g>
</g>
<!-- Node1&#45;&gt;Node34 -->
<g id="edge34" class="edge">
<title>Node1&#45;&gt;Node34</title>
<path fill="none" stroke="#63b8ff" d="M3155.87,-222.6C3486.5,-220.41 4966.67,-208.67 5168.5,-173 5171.86,-172.41 5175.28,-171.69 5178.71,-170.87"/>
<polygon fill="#63b8ff" stroke="#63b8ff" points="5179.41,-174.31 5188.18,-168.37 5177.62,-167.54 5179.41,-174.31"/>
</g>
<!-- Node35 -->
<g id="node35" class="node">
<title>Node35</title>
<g id="a_node35"><a xlink:title=" ">
<polygon fill="#e0e0e0" stroke="#999999" points="5459,-167.5 5326,-167.5 5326,-126.5 5459,-126.5 5459,-167.5"/>
<text text-anchor="start" x="5334" y="-155.5" font-family="Helvetica,sans-Serif" font-size="10.00">asm/rel/d/a/obj/d_a</text>
<text text-anchor="start" x="5334" y="-144.5" font-family="Helvetica,sans-Serif" font-size="10.00">_obj_kgate/d_a_obj_kgate</text>
<text text-anchor="middle" x="5392.5" y="-133.5" font-family="Helvetica,sans-Serif" font-size="10.00">/__dt__10dCcD_GSttsFv.s</text>
</a>
</g>
</g>
<!-- Node1&#45;&gt;Node35 -->
<g id="edge35" class="edge">
<title>Node1&#45;&gt;Node35</title>
<path fill="none" stroke="#63b8ff" d="M3155.92,-222.68C3500.68,-220.84 5099.17,-210.34 5316.5,-173 5320.06,-172.39 5323.68,-171.64 5327.31,-170.8"/>
<polygon fill="#63b8ff" stroke="#63b8ff" points="5327.92,-174.26 5336.73,-168.37 5326.17,-167.48 5327.92,-174.26"/>
</g>
<!-- Node36 -->
<g id="node36" class="node">
<title>Node36</title>
<g id="a_node36"><a xlink:title=" ">
<polygon fill="#e0e0e0" stroke="#999999" points="5621.5,-173 5477.5,-173 5477.5,-121 5621.5,-121 5621.5,-173"/>
<text text-anchor="start" x="5485.5" y="-161" font-family="Helvetica,sans-Serif" font-size="10.00">asm/rel/d/a/obj/d_a</text>
<text text-anchor="start" x="5485.5" y="-150" font-family="Helvetica,sans-Serif" font-size="10.00">_obj_kgate/d_a_obj_kgate</text>
<text text-anchor="start" x="5485.5" y="-139" font-family="Helvetica,sans-Serif" font-size="10.00">/daObjKGate_MoveBGDelete</text>
<text text-anchor="middle" x="5549.5" y="-128" font-family="Helvetica,sans-Serif" font-size="10.00">__FP12daObjKGate_c.s</text>
</a>
</g>
</g>
<!-- Node1&#45;&gt;Node36 -->
<g id="edge36" class="edge">
<title>Node1&#45;&gt;Node36</title>
<path fill="none" stroke="#63b8ff" d="M3155.9,-222.71C3509.47,-221 5186.54,-211.02 5466.14,-173.02"/>
<polygon fill="#63b8ff" stroke="#63b8ff" points="5466.44,-176.52 5475.82,-171.59 5465.41,-169.59 5466.44,-176.52"/>
</g>
<!-- Node37 -->
<g id="node37" class="node">
<title>Node37</title>
<g id="a_node37"><a xlink:title=" ">
<polygon fill="#e0e0e0" stroke="#999999" points="5791,-173 5640,-173 5640,-121 5791,-121 5791,-173"/>
<text text-anchor="start" x="5648" y="-161" font-family="Helvetica,sans-Serif" font-size="10.00">asm/rel/d/a/obj/d_a</text>
<text text-anchor="start" x="5648" y="-150" font-family="Helvetica,sans-Serif" font-size="10.00">_obj_kgate/d_a_obj_kgate</text>
<text text-anchor="start" x="5648" y="-139" font-family="Helvetica,sans-Serif" font-size="10.00">/daObjKGate_MoveBGExecute</text>
<text text-anchor="middle" x="5715.5" y="-128" font-family="Helvetica,sans-Serif" font-size="10.00">__FP12daObjKGate_c.s</text>
</a>
</g>
</g>
<!-- Node1&#45;&gt;Node37 -->
<g id="edge37" class="edge">
<title>Node1&#45;&gt;Node37</title>
<path fill="none" stroke="#63b8ff" d="M3155.72,-222.75C3523.41,-221.23 5331.22,-211.88 5628.62,-172.95"/>
<polygon fill="#63b8ff" stroke="#63b8ff" points="5628.82,-176.46 5638.23,-171.58 5627.84,-169.52 5628.82,-176.46"/>
</g>
<!-- Node38 -->
<g id="node38" class="node">
<title>Node38</title>
<g id="a_node38"><a xlink:title=" ">
<polygon fill="#e0e0e0" stroke="#999999" points="5948,-173 5809,-173 5809,-121 5948,-121 5948,-173"/>
<text text-anchor="start" x="5817" y="-161" font-family="Helvetica,sans-Serif" font-size="10.00">asm/rel/d/a/obj/d_a</text>
<text text-anchor="start" x="5817" y="-150" font-family="Helvetica,sans-Serif" font-size="10.00">_obj_kgate/d_a_obj_kgate</text>
<text text-anchor="start" x="5817" y="-139" font-family="Helvetica,sans-Serif" font-size="10.00">/daObjKGate_MoveBGDraw</text>
<text text-anchor="middle" x="5878.5" y="-128" font-family="Helvetica,sans-Serif" font-size="10.00">__FP12daObjKGate_c.s</text>
</a>
</g>
</g>
<!-- Node1&#45;&gt;Node38 -->
<g id="edge38" class="edge">
<title>Node1&#45;&gt;Node38</title>
<path fill="none" stroke="#63b8ff" d="M3155.94,-222.93C3538.82,-222.39 5482.31,-217.55 5797.24,-173.2"/>
<polygon fill="#63b8ff" stroke="#63b8ff" points="5797.73,-176.67 5807.08,-171.7 5796.67,-169.75 5797.73,-176.67"/>
</g>
<!-- Node39 -->
<g id="node39" class="node">
<title>Node39</title>
<g id="a_node39"><a xlink:title=" ">
<polygon fill="#e0e0e0" stroke="#999999" points="6099,-167.5 5966,-167.5 5966,-126.5 6099,-126.5 6099,-167.5"/>
<text text-anchor="start" x="5974" y="-155.5" font-family="Helvetica,sans-Serif" font-size="10.00">asm/rel/d/a/obj/d_a</text>
<text text-anchor="start" x="5974" y="-144.5" font-family="Helvetica,sans-Serif" font-size="10.00">_obj_kgate/d_a_obj_kgate</text>
<text text-anchor="middle" x="6032.5" y="-133.5" font-family="Helvetica,sans-Serif" font-size="10.00">/__dt__10cCcD_GSttsFv.s</text>
</a>
</g>
</g>
<!-- Node1&#45;&gt;Node39 -->
<g id="edge39" class="edge">
<title>Node1&#45;&gt;Node39</title>
<path fill="none" stroke="#63b8ff" d="M3155.8,-223.05C3556.36,-223.2 5673.37,-221.65 5957.5,-173 5961.08,-172.39 5964.73,-171.63 5968.39,-170.77"/>
<polygon fill="#63b8ff" stroke="#63b8ff" points="5969.08,-174.21 5977.87,-168.3 5967.31,-167.43 5969.08,-174.21"/>
</g>
<!-- Node40 -->
<g id="node40" class="node">
<title>Node40</title>
<g id="a_node40"><a xlink:title=" ">
<polygon fill="#e0e0e0" stroke="#999999" points="6247.5,-167.5 6117.5,-167.5 6117.5,-126.5 6247.5,-126.5 6247.5,-167.5"/>
<text text-anchor="start" x="6125.5" y="-155.5" font-family="Helvetica,sans-Serif" font-size="10.00">asm/rel/d/a/obj/d_a</text>
<text text-anchor="start" x="6125.5" y="-144.5" font-family="Helvetica,sans-Serif" font-size="10.00">_obj_kgate/d_a_obj_kgate</text>
<text text-anchor="middle" x="6182.5" y="-133.5" font-family="Helvetica,sans-Serif" font-size="10.00">/func_8058AB0C.s</text>
</a>
</g>
</g>
<!-- Node1&#45;&gt;Node40 -->
<g id="edge40" class="edge">
<title>Node1&#45;&gt;Node40</title>
<path fill="none" stroke="#63b8ff" d="M3155.87,-223.13C3568.87,-223.77 5808.68,-224.83 6108.5,-173 6112.04,-172.39 6115.64,-171.63 6119.25,-170.78"/>
<polygon fill="#63b8ff" stroke="#63b8ff" points="6119.82,-174.24 6128.6,-168.31 6118.04,-167.48 6119.82,-174.24"/>
</g>
<!-- Node2&#45;&gt;Node3 -->
<g id="edge2" class="edge">
<title>Node2&#45;&gt;Node3</title>
<path fill="none" stroke="#63b8ff" d="M68.62,-131.6C75.4,-120.88 84.71,-106.18 92,-94.66"/>
<polygon fill="#63b8ff" stroke="#63b8ff" points="94.8,-96.78 97.2,-86.46 88.89,-93.03 94.8,-96.78"/>
</g>
<!-- Node4 -->
<g id="node4" class="node">
<title>Node4</title>
<g id="a_node4"><a xlink:href="stddef_8h.html" target="_top" xlink:title=" ">
<polygon fill="white" stroke="#666666" points="171.5,-30 35.5,-30 35.5,0 171.5,0 171.5,-30"/>
<text text-anchor="start" x="43.5" y="-18" font-family="Helvetica,sans-Serif" font-size="10.00">MSL_C/MSL_Common/Src</text>
<text text-anchor="middle" x="103.5" y="-7" font-family="Helvetica,sans-Serif" font-size="10.00">/stddef.h</text>
</a>
</g>
</g>
<!-- Node3&#45;&gt;Node4 -->
<g id="edge3" class="edge">
<title>Node3&#45;&gt;Node4</title>
<path fill="none" stroke="#63b8ff" d="M103.5,-65.87C103.5,-59.4 103.5,-50.2 103.5,-41.45"/>
<polygon fill="#63b8ff" stroke="#63b8ff" points="107,-41.63 103.5,-31.63 100,-41.63 107,-41.63"/>
</g>
</g>
</svg>
        <g id="navigator" transform="translate(0 0)" fill="#404254">
                <rect fill="#f2f5e9" fill-opacity="0.5" stroke="#606060" stroke-width=".5" x="0" y="0" width="60" height="60"/>
                <use id="zoomplus" xlink:href="#zoomPlus" x="17" y="9" onmousedown="handleZoom(evt,'in')"/>
                <use id="zoomminus" xlink:href="#zoomMin" x="42" y="9" onmousedown="handleZoom(evt,'out')"/>
                <use id="reset" xlink:href="#resetDef" x="30" y="36" onmousedown="handleReset()"/>
                <g id="arrowUp" xlink:href="#dirArrow" transform="translate(30 24)" onmousedown="handlePan(0,-1)">
                  <use xlink:href="#rim" fill="#404040">
                        <set attributeName="fill" to="#808080" begin="arrowUp.mouseover" end="arrowUp.mouseout"/>
                  </use>
                  <path fill="none" stroke="white" stroke-width="1.5" d="M0,-3.0v7 M-2.5,-0.5L0,-3.0L2.5,-0.5"/>
                </g>
                <g id="arrowRight" xlink:href="#dirArrow" transform="rotate(90) translate(36 -43)" onmousedown="handlePan(1,0)">
                  <use xlink:href="#rim" fill="#404040">
                        <set attributeName="fill" to="#808080" begin="arrowRight.mouseover" end="arrowRight.mouseout"/>
                  </use>
                  <path fill="none" stroke="white" stroke-width="1.5" d="M0,-3.0v7 M-2.5,-0.5L0,-3.0L2.5,-0.5"/>
                </g>
                <g id="arrowDown" xlink:href="#dirArrow" transform="rotate(180) translate(-30 -48)" onmousedown="handlePan(0,1)">
                  <use xlink:href="#rim" fill="#404040">
                        <set attributeName="fill" to="#808080" begin="arrowDown.mouseover" end="arrowDown.mouseout"/>
                  </use>
                  <path fill="none" stroke="white" stroke-width="1.5" d="M0,-3.0v7 M-2.5,-0.5L0,-3.0L2.5,-0.5"/>
                </g>
                <g id="arrowLeft" xlink:href="#dirArrow" transform="rotate(270) translate(-36 17)" onmousedown="handlePan(-1,0)">
                  <use xlink:href="#rim" fill="#404040">
                        <set attributeName="fill" to="#808080" begin="arrowLeft.mouseover" end="arrowLeft.mouseout"/>
                  </use>
                  <path fill="none" stroke="white" stroke-width="1.5" d="M0,-3.0v7 M-2.5,-0.5L0,-3.0L2.5,-0.5"/>
                </g>
        </g>
        <svg viewBox="0 0 15 15" width="100%" height="30px" preserveAspectRatio="xMaxYMin meet">
         <g id="arrow_out" transform="scale(0.3 0.3)">
          <a xlink:href="d__a__obj__kgate_8cpp__incl_org.svg" target="_base">
           <rect id="button" ry="5" rx="5" y="6" x="6" height="38" width="38"
                fill="#f2f5e9" fill-opacity="0.5" stroke="#606060" stroke-width="1.0"/>
           <path id="arrow"
             d="M 11.500037,31.436501 C 11.940474,20.09759 22.043105,11.32322 32.158766,21.979434 L 37.068811,17.246167 C 37.068811,17.246167 37.088388,32 37.088388,32 L 22.160133,31.978069 C 22.160133,31.978069 26.997745,27.140456 26.997745,27.140456 C 18.528582,18.264221 13.291696,25.230495 11.500037,31.436501 z"
             style="fill:#404040;"/>
          </a>
         </g>
        </svg>
</svg>
