<?xml version="1.0" encoding="UTF-8" standalone="no"?>
<!DOCTYPE svg PUBLIC "-//W3C//DTD SVG 1.1//EN"
 "http://www.w3.org/Graphics/SVG/1.1/DTD/svg11.dtd">
<!-- Generated by graphviz version 7.0.5 (20221223.1930)
 -->
<!-- Title: rel/d/a/e/d_a_e_ms/d_a_e_ms.cpp Pages: 1 -->
<svg width="6147pt" height="247pt"
 viewBox="0.00 0.00 6146.50 247.00" xmlns="http://www.w3.org/2000/svg" xmlns:xlink="http://www.w3.org/1999/xlink">
<g id="graph0" class="graph" transform="scale(1 1) rotate(0) translate(4 243)">
<title>rel/d/a/e/d_a_e_ms/d_a_e_ms.cpp</title>
<!-- Node1 -->
<g id="node1" class="node">
<title>Node1</title>
<g id="a_node1"><a xlink:title=" ">
<polygon fill="#999999" stroke="#666666" points="2880,-239 2780,-239 2780,-209 2880,-209 2880,-239"/>
<text text-anchor="start" x="2788" y="-227" font-family="Helvetica,sans-Serif" font-size="10.00">rel/d/a/e/d_a_e_ms</text>
<text text-anchor="middle" x="2830" y="-216" font-family="Helvetica,sans-Serif" font-size="10.00">/d_a_e_ms.cpp</text>
</a>
</g>
</g>
<!-- Node2 -->
<g id="node2" class="node">
<title>Node2</title>
<g id="a_node2"><a xlink:href="d__a__e__ms_8h.html" target="_top" xlink:title=" ">
<polygon fill="white" stroke="#666666" points="100,-162 0,-162 0,-132 100,-132 100,-162"/>
<text text-anchor="start" x="8" y="-150" font-family="Helvetica,sans-Serif" font-size="10.00">rel/d/a/e/d_a_e_ms</text>
<text text-anchor="middle" x="50" y="-139" font-family="Helvetica,sans-Serif" font-size="10.00">/d_a_e_ms.h</text>
</a>
</g>
</g>
<!-- Node1&#45;&gt;Node2 -->
<g id="edge1" class="edge">
<title>Node1&#45;&gt;Node2</title>
<path fill="none" stroke="#63b8ff" d="M2779.55,-223.14C2430.85,-223.98 384.71,-226.58 114,-173 106.45,-171.51 98.65,-169.18 91.19,-166.53"/>
<polygon fill="#63b8ff" stroke="#63b8ff" points="92.59,-163.32 82,-163.02 90.09,-169.86 92.59,-163.32"/>
</g>
<!-- Node3 -->
<g id="node3" class="node">
<title>Node3</title>
<g id="a_node3"><a xlink:href="types_8h.html" target="_top" xlink:title=" ">
<polygon fill="white" stroke="#666666" points="129.5,-85 48.5,-85 48.5,-66 129.5,-66 129.5,-85"/>
<text text-anchor="middle" x="89" y="-73" font-family="Helvetica,sans-Serif" font-size="10.00">dolphin/types.h</text>
</a>
</g>
</g>
<!-- Node1&#45;&gt;Node3 -->
<g id="edge5" class="edge">
<title>Node1&#45;&gt;Node3</title>
<path fill="none" stroke="#63b8ff" d="M2779.73,-222.73C2416.59,-220.71 207.33,-207 148,-173 132.86,-164.32 110.29,-121.16 97.92,-95.59"/>
<polygon fill="#63b8ff" stroke="#63b8ff" points="101.12,-94.17 93.66,-86.64 94.79,-97.17 101.12,-94.17"/>
</g>
<!-- Node5 -->
<g id="node5" class="node">
<title>Node5</title>
<g id="a_node5"><a xlink:href="dol2asm_8h.html" target="_top" xlink:title=" ">
<polygon fill="white" stroke="#666666" points="217.5,-156.5 156.5,-156.5 156.5,-137.5 217.5,-137.5 217.5,-156.5"/>
<text text-anchor="middle" x="187" y="-144.5" font-family="Helvetica,sans-Serif" font-size="10.00">dol2asm.h</text>
</a>
</g>
</g>
<!-- Node1&#45;&gt;Node5 -->
<g id="edge4" class="edge">
<title>Node1&#45;&gt;Node5</title>
<path fill="none" stroke="#63b8ff" d="M2779.57,-222.8C2428.04,-221.27 353.86,-210.71 227,-173 220.06,-170.94 213.14,-167.32 207.06,-163.46"/>
<polygon fill="#63b8ff" stroke="#63b8ff" points="209.21,-160.69 199,-157.85 205.21,-166.44 209.21,-160.69"/>
</g>
<!-- Node6 -->
<g id="node6" class="node">
<title>Node6</title>
<g id="a_node6"><a xlink:title=" ">
<polygon fill="#e0e0e0" stroke="#999999" points="378.5,-167.5 235.5,-167.5 235.5,-126.5 378.5,-126.5 378.5,-167.5"/>
<text text-anchor="start" x="243.5" y="-155.5" font-family="Helvetica,sans-Serif" font-size="10.00">asm/rel/d/a/e/d_a_e</text>
<text text-anchor="start" x="243.5" y="-144.5" font-family="Helvetica,sans-Serif" font-size="10.00">_ms/d_a_e_ms/__ct__12daE</text>
<text text-anchor="middle" x="307" y="-133.5" font-family="Helvetica,sans-Serif" font-size="10.00">_MS_HIO_cFv.s</text>
</a>
</g>
</g>
<!-- Node1&#45;&gt;Node6 -->
<g id="edge6" class="edge">
<title>Node1&#45;&gt;Node6</title>
<path fill="none" stroke="#63b8ff" d="M2779.52,-222.81C2451.8,-221.47 631.66,-212.3 388,-173 383.91,-172.34 379.74,-171.52 375.55,-170.59"/>
<polygon fill="#63b8ff" stroke="#63b8ff" points="376.51,-167.22 365.97,-168.25 374.85,-174.02 376.51,-167.22"/>
</g>
<!-- Node7 -->
<g id="node7" class="node">
<title>Node7</title>
<g id="a_node7"><a xlink:title=" ">
<polygon fill="#e0e0e0" stroke="#999999" points="527.5,-167.5 396.5,-167.5 396.5,-126.5 527.5,-126.5 527.5,-167.5"/>
<text text-anchor="start" x="404.5" y="-155.5" font-family="Helvetica,sans-Serif" font-size="10.00">asm/rel/d/a/e/d_a_e</text>
<text text-anchor="start" x="404.5" y="-144.5" font-family="Helvetica,sans-Serif" font-size="10.00">_ms/d_a_e_ms/anm_init</text>
<text text-anchor="middle" x="462" y="-133.5" font-family="Helvetica,sans-Serif" font-size="10.00">__FP10e_ms_classifUcf.s</text>
</a>
</g>
</g>
<!-- Node1&#45;&gt;Node7 -->
<g id="edge7" class="edge">
<title>Node1&#45;&gt;Node7</title>
<path fill="none" stroke="#63b8ff" d="M2779.57,-222.81C2463.8,-221.47 764.61,-212.49 537,-173 533.42,-172.38 529.77,-171.62 526.12,-170.75"/>
<polygon fill="#63b8ff" stroke="#63b8ff" points="527.19,-167.42 516.63,-168.27 525.42,-174.19 527.19,-167.42"/>
</g>
<!-- Node8 -->
<g id="node8" class="node">
<title>Node8</title>
<g id="a_node8"><a xlink:title=" ">
<polygon fill="#e0e0e0" stroke="#999999" points="670.5,-167.5 545.5,-167.5 545.5,-126.5 670.5,-126.5 670.5,-167.5"/>
<text text-anchor="start" x="553.5" y="-155.5" font-family="Helvetica,sans-Serif" font-size="10.00">asm/rel/d/a/e/d_a_e</text>
<text text-anchor="start" x="553.5" y="-144.5" font-family="Helvetica,sans-Serif" font-size="10.00">_ms/d_a_e_ms/pl_check</text>
<text text-anchor="middle" x="608" y="-133.5" font-family="Helvetica,sans-Serif" font-size="10.00">__FP10e_ms_classf.s</text>
</a>
</g>
</g>
<!-- Node1&#45;&gt;Node8 -->
<g id="edge8" class="edge">
<title>Node1&#45;&gt;Node8</title>
<path fill="none" stroke="#63b8ff" d="M2779.55,-222.76C2475.45,-221.22 892.41,-211.37 680,-173 676.83,-172.43 673.6,-171.74 670.37,-170.96"/>
<polygon fill="#63b8ff" stroke="#63b8ff" points="671.42,-167.61 660.86,-168.39 669.6,-174.37 671.42,-167.61"/>
</g>
<!-- Node9 -->
<g id="node9" class="node">
<title>Node9</title>
<g id="a_node9"><a xlink:title=" ">
<polygon fill="#e0e0e0" stroke="#999999" points="827,-167.5 689,-167.5 689,-126.5 827,-126.5 827,-167.5"/>
<text text-anchor="start" x="697" y="-155.5" font-family="Helvetica,sans-Serif" font-size="10.00">asm/rel/d/a/e/d_a_e</text>
<text text-anchor="start" x="697" y="-144.5" font-family="Helvetica,sans-Serif" font-size="10.00">_ms/d_a_e_ms/daE_MS</text>
<text text-anchor="middle" x="758" y="-133.5" font-family="Helvetica,sans-Serif" font-size="10.00">_Draw__FP10e_ms_class.s</text>
</a>
</g>
</g>
<!-- Node1&#45;&gt;Node9 -->
<g id="edge9" class="edge">
<title>Node1&#45;&gt;Node9</title>
<path fill="none" stroke="#63b8ff" d="M2779.53,-222.58C2488.76,-220.06 1033.5,-205.88 837,-173 833.2,-172.36 829.32,-171.59 825.43,-170.7"/>
<polygon fill="#63b8ff" stroke="#63b8ff" points="826.51,-167.37 815.96,-168.34 824.81,-174.16 826.51,-167.37"/>
</g>
<!-- Node10 -->
<g id="node10" class="node">
<title>Node10</title>
<g id="a_node10"><a xlink:title=" ">
<polygon fill="#e0e0e0" stroke="#999999" points="974.5,-167.5 845.5,-167.5 845.5,-126.5 974.5,-126.5 974.5,-167.5"/>
<text text-anchor="start" x="853.5" y="-155.5" font-family="Helvetica,sans-Serif" font-size="10.00">asm/rel/d/a/e/d_a_e</text>
<text text-anchor="start" x="853.5" y="-144.5" font-family="Helvetica,sans-Serif" font-size="10.00">_ms/d_a_e_ms/sibuki</text>
<text text-anchor="middle" x="910" y="-133.5" font-family="Helvetica,sans-Serif" font-size="10.00">_set__FP10e_ms_class.s</text>
</a>
</g>
</g>
<!-- Node1&#45;&gt;Node10 -->
<g id="edge10" class="edge">
<title>Node1&#45;&gt;Node10</title>
<path fill="none" stroke="#63b8ff" d="M2779.67,-222.53C2502.17,-219.84 1164.89,-205.25 984,-173 980.64,-172.4 977.22,-171.68 973.79,-170.86"/>
<polygon fill="#63b8ff" stroke="#63b8ff" points="974.88,-167.53 964.32,-168.35 973.09,-174.29 974.88,-167.53"/>
</g>
<!-- Node11 -->
<g id="node11" class="node">
<title>Node11</title>
<g id="a_node11"><a xlink:title=" ">
<polygon fill="#e0e0e0" stroke="#999999" points="1139.5,-167.5 992.5,-167.5 992.5,-126.5 1139.5,-126.5 1139.5,-167.5"/>
<text text-anchor="start" x="1000.5" y="-155.5" font-family="Helvetica,sans-Serif" font-size="10.00">asm/rel/d/a/e/d_a_e</text>
<text text-anchor="start" x="1000.5" y="-144.5" font-family="Helvetica,sans-Serif" font-size="10.00">_ms/d_a_e_ms/ms_disappear</text>
<text text-anchor="middle" x="1066" y="-133.5" font-family="Helvetica,sans-Serif" font-size="10.00">__FP10e_ms_class.s</text>
</a>
</g>
</g>
<!-- Node1&#45;&gt;Node11 -->
<g id="edge11" class="edge">
<title>Node1&#45;&gt;Node11</title>
<path fill="none" stroke="#63b8ff" d="M2779.57,-223.28C2535.43,-224.38 1474.65,-225.94 1149,-173 1144.9,-172.33 1140.71,-171.52 1136.51,-170.6"/>
<polygon fill="#63b8ff" stroke="#63b8ff" points="1137.42,-167.21 1126.87,-168.29 1135.78,-174.02 1137.42,-167.21"/>
</g>
<!-- Node12 -->
<g id="node12" class="node">
<title>Node12</title>
<g id="a_node12"><a xlink:title=" ">
<polygon fill="#e0e0e0" stroke="#999999" points="1280.5,-167.5 1157.5,-167.5 1157.5,-126.5 1280.5,-126.5 1280.5,-167.5"/>
<text text-anchor="start" x="1165.5" y="-155.5" font-family="Helvetica,sans-Serif" font-size="10.00">asm/rel/d/a/e/d_a_e</text>
<text text-anchor="start" x="1165.5" y="-144.5" font-family="Helvetica,sans-Serif" font-size="10.00">_ms/d_a_e_ms/s_d_sub</text>
<text text-anchor="middle" x="1219" y="-133.5" font-family="Helvetica,sans-Serif" font-size="10.00">__FPvPv.s</text>
</a>
</g>
</g>
<!-- Node1&#45;&gt;Node12 -->
<g id="edge12" class="edge">
<title>Node1&#45;&gt;Node12</title>
<path fill="none" stroke="#63b8ff" d="M2779.71,-222.28C2531.04,-218.6 1438.96,-200.95 1290,-173 1286.87,-172.41 1283.69,-171.71 1280.5,-170.92"/>
<polygon fill="#63b8ff" stroke="#63b8ff" points="1281.71,-167.62 1271.14,-168.34 1279.85,-174.37 1281.71,-167.62"/>
</g>
<!-- Node13 -->
<g id="node13" class="node">
<title>Node13</title>
<g id="a_node13"><a xlink:title=" ">
<polygon fill="#e0e0e0" stroke="#999999" points="1443.5,-167.5 1298.5,-167.5 1298.5,-126.5 1443.5,-126.5 1443.5,-167.5"/>
<text text-anchor="start" x="1306.5" y="-155.5" font-family="Helvetica,sans-Serif" font-size="10.00">asm/rel/d/a/e/d_a_e</text>
<text text-anchor="start" x="1306.5" y="-144.5" font-family="Helvetica,sans-Serif" font-size="10.00">_ms/d_a_e_ms/search</text>
<text text-anchor="middle" x="1371" y="-133.5" font-family="Helvetica,sans-Serif" font-size="10.00">_dokuro__FP10e_ms_class.s</text>
</a>
</g>
</g>
<!-- Node1&#45;&gt;Node13 -->
<g id="edge13" class="edge">
<title>Node1&#45;&gt;Node13</title>
<path fill="none" stroke="#63b8ff" d="M2779.64,-222.92C2563.79,-222.3 1715.76,-217.05 1453,-173 1448.95,-172.32 1444.81,-171.5 1440.66,-170.57"/>
<polygon fill="#63b8ff" stroke="#63b8ff" points="1441.7,-167.22 1431.15,-168.25 1440.04,-174.02 1441.7,-167.22"/>
</g>
<!-- Node14 -->
<g id="node14" class="node">
<title>Node14</title>
<g id="a_node14"><a xlink:title=" ">
<polygon fill="#e0e0e0" stroke="#999999" points="1584,-167.5 1462,-167.5 1462,-126.5 1584,-126.5 1584,-167.5"/>
<text text-anchor="start" x="1470" y="-155.5" font-family="Helvetica,sans-Serif" font-size="10.00">asm/rel/d/a/e/d_a_e</text>
<text text-anchor="start" x="1470" y="-144.5" font-family="Helvetica,sans-Serif" font-size="10.00">_ms/d_a_e_ms/way_set</text>
<text text-anchor="middle" x="1523" y="-133.5" font-family="Helvetica,sans-Serif" font-size="10.00">__FP10e_ms_class.s</text>
</a>
</g>
</g>
<!-- Node1&#45;&gt;Node14 -->
<g id="edge14" class="edge">
<title>Node1&#45;&gt;Node14</title>
<path fill="none" stroke="#63b8ff" d="M2779.73,-222.96C2578.01,-222.48 1826.93,-217.67 1594,-173 1590.87,-172.4 1587.7,-171.69 1584.51,-170.89"/>
<polygon fill="#63b8ff" stroke="#63b8ff" points="1585.72,-167.59 1575.15,-168.29 1583.85,-174.34 1585.72,-167.59"/>
</g>
<!-- Node15 -->
<g id="node15" class="node">
<title>Node15</title>
<g id="a_node15"><a xlink:title=" ">
<polygon fill="#e0e0e0" stroke="#999999" points="1747.5,-167.5 1602.5,-167.5 1602.5,-126.5 1747.5,-126.5 1747.5,-167.5"/>
<text text-anchor="start" x="1610.5" y="-155.5" font-family="Helvetica,sans-Serif" font-size="10.00">asm/rel/d/a/e/d_a_e</text>
<text text-anchor="start" x="1610.5" y="-144.5" font-family="Helvetica,sans-Serif" font-size="10.00">_ms/d_a_e_ms/e_ms_normal</text>
<text text-anchor="middle" x="1675" y="-133.5" font-family="Helvetica,sans-Serif" font-size="10.00">__FP10e_ms_class.s</text>
</a>
</g>
</g>
<!-- Node1&#45;&gt;Node15 -->
<g id="edge15" class="edge">
<title>Node1&#45;&gt;Node15</title>
<path fill="none" stroke="#63b8ff" d="M2779.65,-222.32C2595.29,-219.56 1957.41,-207.66 1757,-173 1753.14,-172.33 1749.21,-171.54 1745.27,-170.65"/>
<polygon fill="#63b8ff" stroke="#63b8ff" points="1746.16,-167.27 1735.62,-168.29 1744.5,-174.07 1746.16,-167.27"/>
</g>
<!-- Node16 -->
<g id="node16" class="node">
<title>Node16</title>
<g id="a_node16"><a xlink:title=" ">
<polygon fill="#e0e0e0" stroke="#999999" points="1908.5,-167.5 1765.5,-167.5 1765.5,-126.5 1908.5,-126.5 1908.5,-167.5"/>
<text text-anchor="start" x="1773.5" y="-155.5" font-family="Helvetica,sans-Serif" font-size="10.00">asm/rel/d/a/e/d_a_e</text>
<text text-anchor="start" x="1773.5" y="-144.5" font-family="Helvetica,sans-Serif" font-size="10.00">_ms/d_a_e_ms/e_ms_attack</text>
<text text-anchor="middle" x="1837" y="-133.5" font-family="Helvetica,sans-Serif" font-size="10.00">__FP10e_ms_class.s</text>
</a>
</g>
</g>
<!-- Node1&#45;&gt;Node16 -->
<g id="edge16" class="edge">
<title>Node1&#45;&gt;Node16</title>
<path fill="none" stroke="#63b8ff" d="M2779.65,-221.86C2613.79,-217.85 2085.6,-202.99 1918,-173 1914.38,-172.35 1910.69,-171.59 1906.99,-170.75"/>
<polygon fill="#63b8ff" stroke="#63b8ff" points="1907.88,-167.36 1897.34,-168.36 1906.2,-174.16 1907.88,-167.36"/>
</g>
<!-- Node17 -->
<g id="node17" class="node">
<title>Node17</title>
<g id="a_node17"><a xlink:title=" ">
<polygon fill="#e0e0e0" stroke="#999999" points="2081.5,-167.5 1926.5,-167.5 1926.5,-126.5 2081.5,-126.5 2081.5,-167.5"/>
<text text-anchor="start" x="1934.5" y="-155.5" font-family="Helvetica,sans-Serif" font-size="10.00">asm/rel/d/a/e/d_a_e</text>
<text text-anchor="start" x="1934.5" y="-144.5" font-family="Helvetica,sans-Serif" font-size="10.00">_ms/d_a_e_ms/search</text>
<text text-anchor="middle" x="2004" y="-133.5" font-family="Helvetica,sans-Serif" font-size="10.00">_ground_1__FP10e_ms_class.s</text>
</a>
</g>
</g>
<!-- Node1&#45;&gt;Node17 -->
<g id="edge17" class="edge">
<title>Node1&#45;&gt;Node17</title>
<path fill="none" stroke="#63b8ff" d="M2779.82,-223.26C2659.82,-223.08 2347.16,-217.95 2091,-173 2086.97,-172.29 2082.86,-171.47 2078.73,-170.57"/>
<polygon fill="#63b8ff" stroke="#63b8ff" points="2079.79,-167.22 2069.25,-168.34 2078.19,-174.03 2079.79,-167.22"/>
</g>
<!-- Node18 -->
<g id="node18" class="node">
<title>Node18</title>
<g id="a_node18"><a xlink:title=" ">
<polygon fill="#e0e0e0" stroke="#999999" points="2238.5,-167.5 2099.5,-167.5 2099.5,-126.5 2238.5,-126.5 2238.5,-167.5"/>
<text text-anchor="start" x="2107.5" y="-155.5" font-family="Helvetica,sans-Serif" font-size="10.00">asm/rel/d/a/e/d_a_e</text>
<text text-anchor="start" x="2107.5" y="-144.5" font-family="Helvetica,sans-Serif" font-size="10.00">_ms/d_a_e_ms/e_ms_swim</text>
<text text-anchor="middle" x="2169" y="-133.5" font-family="Helvetica,sans-Serif" font-size="10.00">__FP10e_ms_class.s</text>
</a>
</g>
</g>
<!-- Node1&#45;&gt;Node18 -->
<g id="edge18" class="edge">
<title>Node1&#45;&gt;Node18</title>
<path fill="none" stroke="#63b8ff" d="M2779.65,-222.4C2678.12,-220.37 2441.97,-211.53 2248,-173 2244.65,-172.33 2241.24,-171.58 2237.82,-170.75"/>
<polygon fill="#63b8ff" stroke="#63b8ff" points="2238.89,-167.41 2228.33,-168.29 2237.13,-174.19 2238.89,-167.41"/>
</g>
<!-- Node19 -->
<g id="node19" class="node">
<title>Node19</title>
<g id="a_node19"><a xlink:title=" ">
<polygon fill="#e0e0e0" stroke="#999999" points="2401.5,-167.5 2256.5,-167.5 2256.5,-126.5 2401.5,-126.5 2401.5,-167.5"/>
<text text-anchor="start" x="2264.5" y="-155.5" font-family="Helvetica,sans-Serif" font-size="10.00">asm/rel/d/a/e/d_a_e</text>
<text text-anchor="start" x="2264.5" y="-144.5" font-family="Helvetica,sans-Serif" font-size="10.00">_ms/d_a_e_ms/e_ms_dokuro</text>
<text text-anchor="middle" x="2329" y="-133.5" font-family="Helvetica,sans-Serif" font-size="10.00">__FP10e_ms_class.s</text>
</a>
</g>
</g>
<!-- Node1&#45;&gt;Node19 -->
<g id="edge19" class="edge">
<title>Node1&#45;&gt;Node19</title>
<path fill="none" stroke="#63b8ff" d="M2779.55,-219.88C2700.36,-214.33 2542.37,-200.64 2411,-173 2407.68,-172.3 2404.31,-171.53 2400.91,-170.71"/>
<polygon fill="#63b8ff" stroke="#63b8ff" points="2402.06,-167.39 2391.5,-168.28 2400.31,-174.16 2402.06,-167.39"/>
</g>
<!-- Node20 -->
<g id="node20" class="node">
<title>Node20</title>
<g id="a_node20"><a xlink:title=" ">
<polygon fill="#e0e0e0" stroke="#999999" points="2570,-167.5 2420,-167.5 2420,-126.5 2570,-126.5 2570,-167.5"/>
<text text-anchor="start" x="2428" y="-155.5" font-family="Helvetica,sans-Serif" font-size="10.00">asm/rel/d/a/e/d_a_e</text>
<text text-anchor="start" x="2428" y="-144.5" font-family="Helvetica,sans-Serif" font-size="10.00">_ms/d_a_e_ms/e_ms_damage</text>
<text text-anchor="middle" x="2495" y="-133.5" font-family="Helvetica,sans-Serif" font-size="10.00">__FP10e_ms_class.s</text>
</a>
</g>
</g>
<!-- Node1&#45;&gt;Node20 -->
<g id="edge20" class="edge">
<title>Node1&#45;&gt;Node20</title>
<path fill="none" stroke="#63b8ff" d="M2779.91,-214.33C2729.23,-205.25 2648.76,-189.95 2580,-173 2577.26,-172.32 2574.47,-171.62 2571.66,-170.88"/>
<polygon fill="#63b8ff" stroke="#63b8ff" points="2572.76,-167.56 2562.2,-168.35 2570.95,-174.32 2572.76,-167.56"/>
</g>
<!-- Node21 -->
<g id="node21" class="node">
<title>Node21</title>
<g id="a_node21"><a xlink:title=" ">
<polygon fill="#e0e0e0" stroke="#999999" points="2737.5,-167.5 2588.5,-167.5 2588.5,-126.5 2737.5,-126.5 2737.5,-167.5"/>
<text text-anchor="start" x="2596.5" y="-155.5" font-family="Helvetica,sans-Serif" font-size="10.00">asm/rel/d/a/e/d_a_e</text>
<text text-anchor="start" x="2596.5" y="-144.5" font-family="Helvetica,sans-Serif" font-size="10.00">_ms/d_a_e_ms/e_ms_wolfbite</text>
<text text-anchor="middle" x="2663" y="-133.5" font-family="Helvetica,sans-Serif" font-size="10.00">__FP10e_ms_class.s</text>
</a>
</g>
</g>
<!-- Node1&#45;&gt;Node21 -->
<g id="edge21" class="edge">
<title>Node1&#45;&gt;Node21</title>
<path fill="none" stroke="#63b8ff" d="M2797.8,-208.54C2775.12,-198.36 2744.21,-184.47 2717.7,-172.57"/>
<polygon fill="#63b8ff" stroke="#63b8ff" points="2719.35,-169.47 2708.79,-168.56 2716.48,-175.85 2719.35,-169.47"/>
</g>
<!-- Node22 -->
<g id="node22" class="node">
<title>Node22</title>
<g id="a_node22"><a xlink:title=" ">
<polygon fill="#e0e0e0" stroke="#999999" points="2904.5,-167.5 2755.5,-167.5 2755.5,-126.5 2904.5,-126.5 2904.5,-167.5"/>
<text text-anchor="start" x="2763.5" y="-155.5" font-family="Helvetica,sans-Serif" font-size="10.00">asm/rel/d/a/e/d_a_e</text>
<text text-anchor="start" x="2763.5" y="-144.5" font-family="Helvetica,sans-Serif" font-size="10.00">_ms/d_a_e_ms/e_ms_standby</text>
<text text-anchor="middle" x="2830" y="-133.5" font-family="Helvetica,sans-Serif" font-size="10.00">__FP10e_ms_class.s</text>
</a>
</g>
</g>
<!-- Node1&#45;&gt;Node22 -->
<g id="edge22" class="edge">
<title>Node1&#45;&gt;Node22</title>
<path fill="none" stroke="#63b8ff" d="M2830,-208.54C2830,-200.22 2830,-189.42 2830,-179.26"/>
<polygon fill="#63b8ff" stroke="#63b8ff" points="2833.5,-179.32 2830,-169.32 2826.5,-179.32 2833.5,-179.32"/>
</g>
<!-- Node23 -->
<g id="node23" class="node">
<title>Node23</title>
<g id="a_node23"><a xlink:title=" ">
<polygon fill="#e0e0e0" stroke="#999999" points="3065,-167.5 2923,-167.5 2923,-126.5 3065,-126.5 3065,-167.5"/>
<text text-anchor="start" x="2931" y="-155.5" font-family="Helvetica,sans-Serif" font-size="10.00">asm/rel/d/a/e/d_a_e</text>
<text text-anchor="start" x="2931" y="-144.5" font-family="Helvetica,sans-Serif" font-size="10.00">_ms/d_a_e_ms/damage</text>
<text text-anchor="middle" x="2994" y="-133.5" font-family="Helvetica,sans-Serif" font-size="10.00">_check__FP10e_ms_class.s</text>
</a>
</g>
</g>
<!-- Node1&#45;&gt;Node23 -->
<g id="edge23" class="edge">
<title>Node1&#45;&gt;Node23</title>
<path fill="none" stroke="#63b8ff" d="M2861.62,-208.54C2883.79,-198.4 2913.98,-184.59 2939.93,-172.73"/>
<polygon fill="#63b8ff" stroke="#63b8ff" points="2941.37,-175.92 2949.01,-168.57 2938.46,-169.55 2941.37,-175.92"/>
</g>
<!-- Node24 -->
<g id="node24" class="node">
<title>Node24</title>
<g id="a_node24"><a xlink:title=" ">
<polygon fill="#e0e0e0" stroke="#999999" points="3196.5,-167.5 3083.5,-167.5 3083.5,-126.5 3196.5,-126.5 3196.5,-167.5"/>
<text text-anchor="start" x="3091.5" y="-155.5" font-family="Helvetica,sans-Serif" font-size="10.00">asm/rel/d/a/e/d_a_e</text>
<text text-anchor="start" x="3091.5" y="-144.5" font-family="Helvetica,sans-Serif" font-size="10.00">_ms/d_a_e_ms/action</text>
<text text-anchor="middle" x="3140" y="-133.5" font-family="Helvetica,sans-Serif" font-size="10.00">__FP10e_ms_class.s</text>
</a>
</g>
</g>
<!-- Node1&#45;&gt;Node24 -->
<g id="edge24" class="edge">
<title>Node1&#45;&gt;Node24</title>
<path fill="none" stroke="#63b8ff" d="M2880.1,-215.15C2929.83,-206.79 3007.96,-192.14 3074,-173 3075.62,-172.53 3077.25,-172.04 3078.9,-171.53"/>
<polygon fill="#63b8ff" stroke="#63b8ff" points="3079.98,-174.86 3088.39,-168.42 3077.8,-168.21 3079.98,-174.86"/>
</g>
<!-- Node25 -->
<g id="node25" class="node">
<title>Node25</title>
<g id="a_node25"><a xlink:title=" ">
<polygon fill="#e0e0e0" stroke="#999999" points="3343.5,-167.5 3214.5,-167.5 3214.5,-126.5 3343.5,-126.5 3343.5,-167.5"/>
<text text-anchor="start" x="3222.5" y="-155.5" font-family="Helvetica,sans-Serif" font-size="10.00">asm/rel/d/a/e/d_a_e</text>
<text text-anchor="start" x="3222.5" y="-144.5" font-family="Helvetica,sans-Serif" font-size="10.00">_ms/d_a_e_ms/anm_se</text>
<text text-anchor="middle" x="3279" y="-133.5" font-family="Helvetica,sans-Serif" font-size="10.00">_set__FP10e_ms_class.s</text>
</a>
</g>
</g>
<!-- Node1&#45;&gt;Node25 -->
<g id="edge25" class="edge">
<title>Node1&#45;&gt;Node25</title>
<path fill="none" stroke="#63b8ff" d="M2880.44,-219.48C2953.15,-213.69 3091.26,-200 3206,-173 3208.59,-172.39 3211.21,-171.73 3213.85,-171.02"/>
<polygon fill="#63b8ff" stroke="#63b8ff" points="3214.63,-174.44 3223.28,-168.32 3212.7,-167.71 3214.63,-174.44"/>
</g>
<!-- Node26 -->
<g id="node26" class="node">
<title>Node26</title>
<g id="a_node26"><a xlink:title=" ">
<polygon fill="#e0e0e0" stroke="#999999" points="3512,-167.5 3362,-167.5 3362,-126.5 3512,-126.5 3512,-167.5"/>
<text text-anchor="start" x="3370" y="-155.5" font-family="Helvetica,sans-Serif" font-size="10.00">asm/rel/d/a/e/d_a_e</text>
<text text-anchor="start" x="3370" y="-144.5" font-family="Helvetica,sans-Serif" font-size="10.00">_ms/d_a_e_ms/daE_MS</text>
<text text-anchor="middle" x="3437" y="-133.5" font-family="Helvetica,sans-Serif" font-size="10.00">_Execute__FP10e_ms_class.s</text>
</a>
</g>
</g>
<!-- Node1&#45;&gt;Node26 -->
<g id="edge26" class="edge">
<title>Node1&#45;&gt;Node26</title>
<path fill="none" stroke="#63b8ff" d="M2880.22,-221.43C2973.95,-217.8 3181.55,-206.38 3353,-173 3356.58,-172.3 3360.24,-171.52 3363.91,-170.66"/>
<polygon fill="#63b8ff" stroke="#63b8ff" points="3364.61,-174.09 3373.48,-168.29 3362.93,-167.3 3364.61,-174.09"/>
</g>
<!-- Node27 -->
<g id="node27" class="node">
<title>Node27</title>
<g id="a_node27"><a xlink:title=" ">
<polygon fill="#e0e0e0" stroke="#999999" points="3673.5,-167.5 3530.5,-167.5 3530.5,-126.5 3673.5,-126.5 3673.5,-167.5"/>
<text text-anchor="start" x="3538.5" y="-155.5" font-family="Helvetica,sans-Serif" font-size="10.00">asm/rel/d/a/e/d_a_e</text>
<text text-anchor="start" x="3538.5" y="-144.5" font-family="Helvetica,sans-Serif" font-size="10.00">_ms/d_a_e_ms/daE_MS</text>
<text text-anchor="middle" x="3602" y="-133.5" font-family="Helvetica,sans-Serif" font-size="10.00">_Delete__FP10e_ms_class.s</text>
</a>
</g>
</g>
<!-- Node1&#45;&gt;Node27 -->
<g id="edge27" class="edge">
<title>Node1&#45;&gt;Node27</title>
<path fill="none" stroke="#63b8ff" d="M2880.36,-223.25C2995.09,-222.97 3284.29,-217.49 3521,-173 3524.54,-172.33 3528.15,-171.57 3531.78,-170.72"/>
<polygon fill="#63b8ff" stroke="#63b8ff" points="3532.35,-174.19 3541.2,-168.36 3530.65,-167.4 3532.35,-174.19"/>
</g>
<!-- Node28 -->
<g id="node28" class="node">
<title>Node28</title>
<g id="a_node28"><a xlink:title=" ">
<polygon fill="#e0e0e0" stroke="#999999" points="3830.5,-167.5 3691.5,-167.5 3691.5,-126.5 3830.5,-126.5 3830.5,-167.5"/>
<text text-anchor="start" x="3699.5" y="-155.5" font-family="Helvetica,sans-Serif" font-size="10.00">asm/rel/d/a/e/d_a_e</text>
<text text-anchor="start" x="3699.5" y="-144.5" font-family="Helvetica,sans-Serif" font-size="10.00">_ms/d_a_e_ms/useHeapInit</text>
<text text-anchor="middle" x="3761" y="-133.5" font-family="Helvetica,sans-Serif" font-size="10.00">__FP10fopAc_ac_c.s</text>
</a>
</g>
</g>
<!-- Node1&#45;&gt;Node28 -->
<g id="edge28" class="edge">
<title>Node1&#45;&gt;Node28</title>
<path fill="none" stroke="#63b8ff" d="M2880.41,-221.71C3039.17,-217.38 3527.51,-202 3683,-173 3686.39,-172.37 3689.83,-171.63 3693.29,-170.82"/>
<polygon fill="#63b8ff" stroke="#63b8ff" points="3694.06,-174.23 3702.88,-168.36 3692.32,-167.45 3694.06,-174.23"/>
</g>
<!-- Node29 -->
<g id="node29" class="node">
<title>Node29</title>
<g id="a_node29"><a xlink:title=" ">
<polygon fill="#e0e0e0" stroke="#999999" points="3991.5,-167.5 3848.5,-167.5 3848.5,-126.5 3991.5,-126.5 3991.5,-167.5"/>
<text text-anchor="start" x="3856.5" y="-155.5" font-family="Helvetica,sans-Serif" font-size="10.00">asm/rel/d/a/e/d_a_e</text>
<text text-anchor="start" x="3856.5" y="-144.5" font-family="Helvetica,sans-Serif" font-size="10.00">_ms/d_a_e_ms/daE_MS</text>
<text text-anchor="middle" x="3920" y="-133.5" font-family="Helvetica,sans-Serif" font-size="10.00">_Create__FP10fopAc_ac_c.s</text>
</a>
</g>
</g>
<!-- Node1&#45;&gt;Node29 -->
<g id="edge29" class="edge">
<title>Node1&#45;&gt;Node29</title>
<path fill="none" stroke="#63b8ff" d="M2880.43,-222.19C3057.84,-219.08 3652.57,-206.37 3840,-173 3843.77,-172.33 3847.6,-171.53 3851.46,-170.64"/>
<polygon fill="#63b8ff" stroke="#63b8ff" points="3852,-174.12 3860.85,-168.29 3850.3,-167.33 3852,-174.12"/>
</g>
<!-- Node30 -->
<g id="node30" class="node">
<title>Node30</title>
<g id="a_node30"><a xlink:title=" ">
<polygon fill="#e0e0e0" stroke="#999999" points="4198,-162 4010,-162 4010,-132 4198,-132 4198,-162"/>
<text text-anchor="start" x="4018" y="-150" font-family="Helvetica,sans-Serif" font-size="10.00">asm/rel/d/a/e/d_a_e</text>
<text text-anchor="middle" x="4104" y="-139" font-family="Helvetica,sans-Serif" font-size="10.00">_ms/d_a_e_ms/__dt__8cM3dGSphFv.s</text>
</a>
</g>
</g>
<!-- Node1&#45;&gt;Node30 -->
<g id="edge30" class="edge">
<title>Node1&#45;&gt;Node30</title>
<path fill="none" stroke="#63b8ff" d="M2880.47,-222.16C3075.46,-218.7 3779.62,-204.29 4001,-173 4014.38,-171.11 4028.56,-168.25 4041.98,-165.12"/>
<polygon fill="#63b8ff" stroke="#63b8ff" points="4042.67,-168.56 4051.57,-162.81 4041.03,-161.75 4042.67,-168.56"/>
</g>
<!-- Node31 -->
<g id="node31" class="node">
<title>Node31</title>
<g id="a_node31"><a xlink:title=" ">
<polygon fill="#e0e0e0" stroke="#999999" points="4404,-162 4216,-162 4216,-132 4404,-132 4404,-162"/>
<text text-anchor="start" x="4224" y="-150" font-family="Helvetica,sans-Serif" font-size="10.00">asm/rel/d/a/e/d_a_e</text>
<text text-anchor="middle" x="4310" y="-139" font-family="Helvetica,sans-Serif" font-size="10.00">_ms/d_a_e_ms/__dt__8cM3dGAabFv.s</text>
</a>
</g>
</g>
<!-- Node1&#45;&gt;Node31 -->
<g id="edge31" class="edge">
<title>Node1&#45;&gt;Node31</title>
<path fill="none" stroke="#63b8ff" d="M2880.3,-222.53C3095.91,-220.32 3943.07,-209.44 4207,-173 4220.46,-171.14 4234.72,-168.28 4248.2,-165.14"/>
<polygon fill="#63b8ff" stroke="#63b8ff" points="4248.94,-168.56 4257.84,-162.81 4247.3,-161.76 4248.94,-168.56"/>
</g>
<!-- Node32 -->
<g id="node32" class="node">
<title>Node32</title>
<g id="a_node32"><a xlink:title=" ">
<polygon fill="#e0e0e0" stroke="#999999" points="4572,-167.5 4422,-167.5 4422,-126.5 4572,-126.5 4572,-167.5"/>
<text text-anchor="start" x="4430" y="-155.5" font-family="Helvetica,sans-Serif" font-size="10.00">asm/rel/d/a/e/d_a_e</text>
<text text-anchor="start" x="4430" y="-144.5" font-family="Helvetica,sans-Serif" font-size="10.00">_ms/d_a_e_ms/__dt__10dCcD</text>
<text text-anchor="middle" x="4497" y="-133.5" font-family="Helvetica,sans-Serif" font-size="10.00">_GSttsFv.s</text>
</a>
</g>
</g>
<!-- Node1&#45;&gt;Node32 -->
<g id="edge32" class="edge">
<title>Node1&#45;&gt;Node32</title>
<path fill="none" stroke="#63b8ff" d="M2880.19,-223.15C3115.11,-223.59 4107.47,-222.44 4413,-173 4417.27,-172.31 4421.63,-171.46 4426,-170.5"/>
<polygon fill="#63b8ff" stroke="#63b8ff" points="4426.48,-173.99 4435.4,-168.27 4424.86,-167.18 4426.48,-173.99"/>
</g>
<!-- Node33 -->
<g id="node33" class="node">
<title>Node33</title>
<g id="a_node33"><a xlink:title=" ">
<polygon fill="#e0e0e0" stroke="#999999" points="4740,-167.5 4590,-167.5 4590,-126.5 4740,-126.5 4740,-167.5"/>
<text text-anchor="start" x="4598" y="-155.5" font-family="Helvetica,sans-Serif" font-size="10.00">asm/rel/d/a/e/d_a_e</text>
<text text-anchor="start" x="4598" y="-144.5" font-family="Helvetica,sans-Serif" font-size="10.00">_ms/d_a_e_ms/__dt__12dBgS</text>
<text text-anchor="middle" x="4665" y="-133.5" font-family="Helvetica,sans-Serif" font-size="10.00">_ObjAcchFv.s</text>
</a>
</g>
</g>
<!-- Node1&#45;&gt;Node33 -->
<g id="edge33" class="edge">
<title>Node1&#45;&gt;Node33</title>
<path fill="none" stroke="#63b8ff" d="M2880.43,-223.33C3130.7,-224.7 4240.74,-227.53 4581,-173 4585.27,-172.32 4589.63,-171.47 4594.01,-170.52"/>
<polygon fill="#63b8ff" stroke="#63b8ff" points="4594.48,-174.01 4603.4,-168.29 4592.86,-167.19 4594.48,-174.01"/>
</g>
<!-- Node34 -->
<g id="node34" class="node">
<title>Node34</title>
<g id="a_node34"><a xlink:title=" ">
<polygon fill="#e0e0e0" stroke="#999999" points="4908,-167.5 4758,-167.5 4758,-126.5 4908,-126.5 4908,-167.5"/>
<text text-anchor="start" x="4766" y="-155.5" font-family="Helvetica,sans-Serif" font-size="10.00">asm/rel/d/a/e/d_a_e</text>
<text text-anchor="start" x="4766" y="-144.5" font-family="Helvetica,sans-Serif" font-size="10.00">_ms/d_a_e_ms/__dt__12dBgS</text>
<text text-anchor="middle" x="4833" y="-133.5" font-family="Helvetica,sans-Serif" font-size="10.00">_AcchCirFv.s</text>
</a>
</g>
</g>
<!-- Node1&#45;&gt;Node34 -->
<g id="edge34" class="edge">
<title>Node1&#45;&gt;Node34</title>
<path fill="none" stroke="#63b8ff" d="M2880.43,-222.48C3164.6,-219.44 4559.95,-203.05 4749,-173 4753.27,-172.32 4757.63,-171.48 4762.01,-170.53"/>
<polygon fill="#63b8ff" stroke="#63b8ff" points="4762.48,-174.02 4771.4,-168.31 4760.86,-167.21 4762.48,-174.02"/>
</g>
<!-- Node35 -->
<g id="node35" class="node">
<title>Node35</title>
<g id="a_node35"><a xlink:title=" ">
<polygon fill="#e0e0e0" stroke="#999999" points="5076,-167.5 4926,-167.5 4926,-126.5 5076,-126.5 5076,-167.5"/>
<text text-anchor="start" x="4934" y="-155.5" font-family="Helvetica,sans-Serif" font-size="10.00">asm/rel/d/a/e/d_a_e</text>
<text text-anchor="start" x="4934" y="-144.5" font-family="Helvetica,sans-Serif" font-size="10.00">_ms/d_a_e_ms/__dt__10cCcD</text>
<text text-anchor="middle" x="5001" y="-133.5" font-family="Helvetica,sans-Serif" font-size="10.00">_GSttsFv.s</text>
</a>
</g>
</g>
<!-- Node1&#45;&gt;Node35 -->
<g id="edge35" class="edge">
<title>Node1&#45;&gt;Node35</title>
<path fill="none" stroke="#63b8ff" d="M2880.39,-222.59C3178.99,-220.07 4710.37,-205.63 4917,-173 4921.27,-172.33 4925.63,-171.49 4930.01,-170.54"/>
<polygon fill="#63b8ff" stroke="#63b8ff" points="4930.48,-174.03 4939.4,-168.32 4928.87,-167.22 4930.48,-174.03"/>
</g>
<!-- Node36 -->
<g id="node36" class="node">
<title>Node36</title>
<g id="a_node36"><a xlink:title=" ">
<polygon fill="#e0e0e0" stroke="#999999" points="5237.5,-167.5 5094.5,-167.5 5094.5,-126.5 5237.5,-126.5 5237.5,-167.5"/>
<text text-anchor="start" x="5102.5" y="-155.5" font-family="Helvetica,sans-Serif" font-size="10.00">asm/rel/d/a/e/d_a_e</text>
<text text-anchor="start" x="5102.5" y="-144.5" font-family="Helvetica,sans-Serif" font-size="10.00">_ms/d_a_e_ms/__dt__12daE</text>
<text text-anchor="middle" x="5166" y="-133.5" font-family="Helvetica,sans-Serif" font-size="10.00">_MS_HIO_cFv.s</text>
</a>
</g>
</g>
<!-- Node1&#45;&gt;Node36 -->
<g id="edge36" class="edge">
<title>Node1&#45;&gt;Node36</title>
<path fill="none" stroke="#63b8ff" d="M2880.33,-222.72C3192.76,-220.87 4860.93,-209.34 5085,-173 5089.01,-172.35 5093.1,-171.55 5097.21,-170.64"/>
<polygon fill="#63b8ff" stroke="#63b8ff" points="5097.7,-174.12 5106.59,-168.35 5096.04,-167.32 5097.7,-174.12"/>
</g>
<!-- Node37 -->
<g id="node37" class="node">
<title>Node37</title>
<g id="a_node37"><a xlink:title=" ">
<polygon fill="#e0e0e0" stroke="#999999" points="5370.5,-167.5 5255.5,-167.5 5255.5,-126.5 5370.5,-126.5 5370.5,-167.5"/>
<text text-anchor="start" x="5263.5" y="-155.5" font-family="Helvetica,sans-Serif" font-size="10.00">asm/rel/d/a/e/d_a_e</text>
<text text-anchor="start" x="5263.5" y="-144.5" font-family="Helvetica,sans-Serif" font-size="10.00">_ms/d_a_e_ms/__sinit</text>
<text text-anchor="middle" x="5313" y="-133.5" font-family="Helvetica,sans-Serif" font-size="10.00">_d_a_e_ms_cpp.s</text>
</a>
</g>
</g>
<!-- Node1&#45;&gt;Node37 -->
<g id="edge37" class="edge">
<title>Node1&#45;&gt;Node37</title>
<path fill="none" stroke="#63b8ff" d="M2880.25,-222.99C3205.54,-222.77 5007.24,-219.45 5247,-173 5249.79,-172.46 5252.61,-171.81 5255.45,-171.08"/>
<polygon fill="#63b8ff" stroke="#63b8ff" points="5256.27,-174.49 5264.89,-168.32 5254.31,-167.77 5256.27,-174.49"/>
</g>
<!-- Node38 -->
<g id="node38" class="node">
<title>Node38</title>
<g id="a_node38"><a xlink:title=" ">
<polygon fill="#e0e0e0" stroke="#999999" points="5549,-162 5389,-162 5389,-132 5549,-132 5549,-162"/>
<text text-anchor="start" x="5397" y="-150" font-family="Helvetica,sans-Serif" font-size="10.00">asm/rel/d/a/e/d_a_e</text>
<text text-anchor="middle" x="5469" y="-139" font-family="Helvetica,sans-Serif" font-size="10.00">_ms/d_a_e_ms/func_80729090.s</text>
</a>
</g>
</g>
<!-- Node1&#45;&gt;Node38 -->
<g id="edge38" class="edge">
<title>Node1&#45;&gt;Node38</title>
<path fill="none" stroke="#63b8ff" d="M2880.24,-222.78C3215.64,-221.23 5124.43,-210.77 5380,-173 5391.55,-171.29 5403.72,-168.54 5415.23,-165.47"/>
<polygon fill="#63b8ff" stroke="#63b8ff" points="5415.88,-168.92 5424.56,-162.86 5413.99,-162.18 5415.88,-168.92"/>
</g>
<!-- Node39 -->
<g id="node39" class="node">
<title>Node39</title>
<g id="a_node39"><a xlink:title=" ">
<polygon fill="#e0e0e0" stroke="#999999" points="5727,-162 5567,-162 5567,-132 5727,-132 5727,-162"/>
<text text-anchor="start" x="5575" y="-150" font-family="Helvetica,sans-Serif" font-size="10.00">asm/rel/d/a/e/d_a_e</text>
<text text-anchor="middle" x="5647" y="-139" font-family="Helvetica,sans-Serif" font-size="10.00">_ms/d_a_e_ms/func_80729098.s</text>
</a>
</g>
</g>
<!-- Node1&#45;&gt;Node39 -->
<g id="edge39" class="edge">
<title>Node1&#45;&gt;Node39</title>
<path fill="none" stroke="#63b8ff" d="M2880.34,-222.85C3229.41,-221.72 5283.7,-213.36 5558,-173 5569.55,-171.3 5581.73,-168.55 5593.23,-165.48"/>
<polygon fill="#63b8ff" stroke="#63b8ff" points="5593.88,-168.93 5602.57,-162.87 5591.99,-162.19 5593.88,-168.93"/>
</g>
<!-- Node40 -->
<g id="node40" class="node">
<title>Node40</title>
<g id="a_node40"><a xlink:title=" ">
<polygon fill="#e0e0e0" stroke="#999999" points="5959,-173 5745,-173 5745,-121 5959,-121 5959,-173"/>
<text text-anchor="start" x="5753" y="-161" font-family="Helvetica,sans-Serif" font-size="10.00">asm/rel/d/a/e/d_a_e</text>
<text text-anchor="start" x="5753" y="-150" font-family="Helvetica,sans-Serif" font-size="10.00">_ms/d_a_e_ms/setMidnaBindEffect</text>
<text text-anchor="start" x="5753" y="-139" font-family="Helvetica,sans-Serif" font-size="10.00">__FP13fopEn_enemy_cP15Z2CreatureEnemy</text>
<text text-anchor="middle" x="5852" y="-128" font-family="Helvetica,sans-Serif" font-size="10.00">P4cXyzP4cXyz.s</text>
</a>
</g>
</g>
<!-- Node1&#45;&gt;Node40 -->
<g id="edge40" class="edge">
<title>Node1&#45;&gt;Node40</title>
<path fill="none" stroke="#63b8ff" d="M2880.37,-222.73C3238.17,-220.7 5390.44,-207.23 5733.26,-173.12"/>
<polygon fill="#63b8ff" stroke="#63b8ff" points="5733.61,-176.6 5743.18,-172.06 5732.86,-169.64 5733.61,-176.6"/>
</g>
<!-- Node41 -->
<g id="node41" class="node">
<title>Node41</title>
<g id="a_node41"><a xlink:title=" ">
<polygon fill="#e0e0e0" stroke="#999999" points="6138.5,-162 5977.5,-162 5977.5,-132 6138.5,-132 6138.5,-162"/>
<text text-anchor="start" x="5985.5" y="-150" font-family="Helvetica,sans-Serif" font-size="10.00">asm/rel/d/a/e/d_a_e</text>
<text text-anchor="middle" x="6058" y="-139" font-family="Helvetica,sans-Serif" font-size="10.00">_ms/d_a_e_ms/__dt__4cXyzFv.s</text>
</a>
</g>
</g>
<!-- Node1&#45;&gt;Node41 -->
<g id="edge41" class="edge">
<title>Node1&#45;&gt;Node41</title>
<path fill="none" stroke="#63b8ff" d="M2880.43,-222.97C3259.06,-222.66 5650.34,-218.88 5968,-173 5979.68,-171.31 5991.98,-168.57 6003.62,-165.5"/>
<polygon fill="#63b8ff" stroke="#63b8ff" points="6004.37,-168.92 6013.07,-162.89 6002.5,-162.18 6004.37,-168.92"/>
</g>
<!-- Node2&#45;&gt;Node3 -->
<g id="edge2" class="edge">
<title>Node2&#45;&gt;Node3</title>
<path fill="none" stroke="#63b8ff" d="M58.08,-131.6C64.03,-120.99 72.18,-106.48 78.61,-95.02"/>
<polygon fill="#63b8ff" stroke="#63b8ff" points="81.55,-96.93 83.39,-86.5 75.44,-93.51 81.55,-96.93"/>
</g>
<!-- Node4 -->
<g id="node4" class="node">
<title>Node4</title>
<g id="a_node4"><a xlink:href="stddef_8h.html" target="_top" xlink:title=" ">
<polygon fill="white" stroke="#666666" points="157,-30 21,-30 21,0 157,0 157,-30"/>
<text text-anchor="start" x="29" y="-18" font-family="Helvetica,sans-Serif" font-size="10.00">MSL_C/MSL_Common/Src</text>
<text text-anchor="middle" x="89" y="-7" font-family="Helvetica,sans-Serif" font-size="10.00">/stddef.h</text>
</a>
</g>
</g>
<!-- Node3&#45;&gt;Node4 -->
<g id="edge3" class="edge">
<title>Node3&#45;&gt;Node4</title>
<path fill="none" stroke="#63b8ff" d="M89,-65.87C89,-59.4 89,-50.2 89,-41.45"/>
<polygon fill="#63b8ff" stroke="#63b8ff" points="92.5,-41.63 89,-31.63 85.5,-41.63 92.5,-41.63"/>
</g>
</g>
</svg>
