<?xml version="1.0" encoding="UTF-8" standalone="no"?>
<!DOCTYPE svg PUBLIC "-//W3C//DTD SVG 1.1//EN"
 "http://www.w3.org/Graphics/SVG/1.1/DTD/svg11.dtd">
<!-- Generated by graphviz version 7.0.5 (20221223.1930)
 -->
<!-- Title: rel/d/a/tag/d_a_tag_evtmsg/d_a_tag_evtmsg.cpp Pages: 1 -->
<svg width="2992pt" height="247pt"
 viewBox="0.00 0.00 2992.00 247.00" xmlns="http://www.w3.org/2000/svg" xmlns:xlink="http://www.w3.org/1999/xlink">
<g id="graph0" class="graph" transform="scale(1 1) rotate(0) translate(4 243)">
<title>rel/d/a/tag/d_a_tag_evtmsg/d_a_tag_evtmsg.cpp</title>
<!-- Node1 -->
<g id="node1" class="node">
<title>Node1</title>
<g id="a_node1"><a xlink:title=" ">
<polygon fill="#999999" stroke="#666666" points="1488,-239 1341,-239 1341,-209 1488,-209 1488,-239"/>
<text text-anchor="start" x="1349" y="-227" font-family="Helvetica,sans-Serif" font-size="10.00">rel/d/a/tag/d_a_tag</text>
<text text-anchor="middle" x="1414.5" y="-216" font-family="Helvetica,sans-Serif" font-size="10.00">_evtmsg/d_a_tag_evtmsg.cpp</text>
</a>
</g>
</g>
<!-- Node2 -->
<g id="node2" class="node">
<title>Node2</title>
<g id="a_node2"><a xlink:href="d__a__tag__evtmsg_8h.html" target="_top" xlink:title=" ">
<polygon fill="white" stroke="#666666" points="137,-162 0,-162 0,-132 137,-132 137,-162"/>
<text text-anchor="start" x="8" y="-150" font-family="Helvetica,sans-Serif" font-size="10.00">rel/d/a/tag/d_a_tag</text>
<text text-anchor="middle" x="68.5" y="-139" font-family="Helvetica,sans-Serif" font-size="10.00">_evtmsg/d_a_tag_evtmsg.h</text>
</a>
</g>
</g>
<!-- Node1&#45;&gt;Node2 -->
<g id="edge1" class="edge">
<title>Node1&#45;&gt;Node2</title>
<path fill="none" stroke="#63b8ff" d="M1340.73,-222.53C1106.66,-220.63 382.53,-211.72 151.5,-173 141.15,-171.26 130.27,-168.62 119.93,-165.69"/>
<polygon fill="#63b8ff" stroke="#63b8ff" points="121,-162.35 110.41,-162.85 119,-169.06 121,-162.35"/>
</g>
<!-- Node3 -->
<g id="node3" class="node">
<title>Node3</title>
<g id="a_node3"><a xlink:href="types_8h.html" target="_top" xlink:title=" ">
<polygon fill="white" stroke="#666666" points="157,-85 76,-85 76,-66 157,-66 157,-85"/>
<text text-anchor="middle" x="116.5" y="-73" font-family="Helvetica,sans-Serif" font-size="10.00">dolphin/types.h</text>
</a>
</g>
</g>
<!-- Node1&#45;&gt;Node3 -->
<g id="edge5" class="edge">
<title>Node1&#45;&gt;Node3</title>
<path fill="none" stroke="#63b8ff" d="M1340.72,-221.78C1083.11,-217.3 236.43,-200.52 185.5,-173 181.34,-170.75 147.68,-122.12 128.95,-94.77"/>
<polygon fill="#63b8ff" stroke="#63b8ff" points="131.99,-93.01 123.45,-86.72 126.21,-96.96 131.99,-93.01"/>
</g>
<!-- Node5 -->
<g id="node5" class="node">
<title>Node5</title>
<g id="a_node5"><a xlink:href="dol2asm_8h.html" target="_top" xlink:title=" ">
<polygon fill="white" stroke="#666666" points="255,-156.5 194,-156.5 194,-137.5 255,-137.5 255,-156.5"/>
<text text-anchor="middle" x="224.5" y="-144.5" font-family="Helvetica,sans-Serif" font-size="10.00">dol2asm.h</text>
</a>
</g>
</g>
<!-- Node1&#45;&gt;Node5 -->
<g id="edge4" class="edge">
<title>Node1&#45;&gt;Node5</title>
<path fill="none" stroke="#63b8ff" d="M1340.87,-221.98C1103.33,-218.37 366.73,-204.74 264.5,-173 257.59,-170.85 250.68,-167.21 244.59,-163.35"/>
<polygon fill="#63b8ff" stroke="#63b8ff" points="246.74,-160.58 236.53,-157.76 242.75,-166.34 246.74,-160.58"/>
</g>
<!-- Node6 -->
<g id="node6" class="node">
<title>Node6</title>
<g id="a_node6"><a xlink:title=" ">
<polygon fill="#e0e0e0" stroke="#999999" points="405.5,-173 273.5,-173 273.5,-121 405.5,-121 405.5,-173"/>
<text text-anchor="start" x="281.5" y="-161" font-family="Helvetica,sans-Serif" font-size="10.00">asm/rel/d/a/tag/d_a</text>
<text text-anchor="start" x="281.5" y="-150" font-family="Helvetica,sans-Serif" font-size="10.00">_tag_evtmsg/d_a_tag</text>
<text text-anchor="start" x="281.5" y="-139" font-family="Helvetica,sans-Serif" font-size="10.00">_evtmsg/create__14daTag</text>
<text text-anchor="middle" x="339.5" y="-128" font-family="Helvetica,sans-Serif" font-size="10.00">_EvtMsg_cFv.s</text>
</a>
</g>
</g>
<!-- Node1&#45;&gt;Node6 -->
<g id="edge6" class="edge">
<title>Node1&#45;&gt;Node6</title>
<path fill="none" stroke="#63b8ff" d="M1340.59,-221.9C1144.53,-218.59 613.36,-206.86 417.22,-173.21"/>
<polygon fill="#63b8ff" stroke="#63b8ff" points="417.86,-169.77 407.4,-171.44 416.62,-176.66 417.86,-169.77"/>
</g>
<!-- Node7 -->
<g id="node7" class="node">
<title>Node7</title>
<g id="a_node7"><a xlink:title=" ">
<polygon fill="#e0e0e0" stroke="#999999" points="563.5,-173 423.5,-173 423.5,-121 563.5,-121 563.5,-173"/>
<text text-anchor="start" x="431.5" y="-161" font-family="Helvetica,sans-Serif" font-size="10.00">asm/rel/d/a/tag/d_a</text>
<text text-anchor="start" x="431.5" y="-150" font-family="Helvetica,sans-Serif" font-size="10.00">_tag_evtmsg/d_a_tag</text>
<text text-anchor="start" x="431.5" y="-139" font-family="Helvetica,sans-Serif" font-size="10.00">_evtmsg/Execute__14daTag</text>
<text text-anchor="middle" x="493.5" y="-128" font-family="Helvetica,sans-Serif" font-size="10.00">_EvtMsg_cFv.s</text>
</a>
</g>
</g>
<!-- Node1&#45;&gt;Node7 -->
<g id="edge7" class="edge">
<title>Node1&#45;&gt;Node7</title>
<path fill="none" stroke="#63b8ff" d="M1340.72,-220.92C1167.85,-215.67 739.53,-200.48 574.86,-172.95"/>
<polygon fill="#63b8ff" stroke="#63b8ff" points="575.88,-169.57 565.43,-171.29 574.67,-176.47 575.88,-169.57"/>
</g>
<!-- Node8 -->
<g id="node8" class="node">
<title>Node8</title>
<g id="a_node8"><a xlink:title=" ">
<polygon fill="#e0e0e0" stroke="#999999" points="709,-173 582,-173 582,-121 709,-121 709,-173"/>
<text text-anchor="start" x="590" y="-161" font-family="Helvetica,sans-Serif" font-size="10.00">asm/rel/d/a/tag/d_a</text>
<text text-anchor="start" x="590" y="-150" font-family="Helvetica,sans-Serif" font-size="10.00">_tag_evtmsg/d_a_tag</text>
<text text-anchor="start" x="590" y="-139" font-family="Helvetica,sans-Serif" font-size="10.00">_evtmsg/getOnEvtBit_</text>
<text text-anchor="middle" x="645.5" y="-128" font-family="Helvetica,sans-Serif" font-size="10.00">_14daTag_EvtMsg_cFv.s</text>
</a>
</g>
</g>
<!-- Node1&#45;&gt;Node8 -->
<g id="edge8" class="edge">
<title>Node1&#45;&gt;Node8</title>
<path fill="none" stroke="#63b8ff" d="M1340.51,-223.91C1214.48,-224.1 950.36,-218.61 720.6,-173.17"/>
<polygon fill="#63b8ff" stroke="#63b8ff" points="721.31,-169.74 710.82,-171.2 719.93,-176.61 721.31,-169.74"/>
</g>
<!-- Node9 -->
<g id="node9" class="node">
<title>Node9</title>
<g id="a_node9"><a xlink:title=" ">
<polygon fill="#e0e0e0" stroke="#999999" points="859.5,-173 727.5,-173 727.5,-121 859.5,-121 859.5,-173"/>
<text text-anchor="start" x="735.5" y="-161" font-family="Helvetica,sans-Serif" font-size="10.00">asm/rel/d/a/tag/d_a</text>
<text text-anchor="start" x="735.5" y="-150" font-family="Helvetica,sans-Serif" font-size="10.00">_tag_evtmsg/d_a_tag</text>
<text text-anchor="start" x="735.5" y="-139" font-family="Helvetica,sans-Serif" font-size="10.00">_evtmsg/getOffEvtBit</text>
<text text-anchor="middle" x="793.5" y="-128" font-family="Helvetica,sans-Serif" font-size="10.00">__14daTag_EvtMsg_cFv.s</text>
</a>
</g>
</g>
<!-- Node1&#45;&gt;Node9 -->
<g id="edge9" class="edge">
<title>Node1&#45;&gt;Node9</title>
<path fill="none" stroke="#63b8ff" d="M1340.85,-221.62C1237.42,-218.5 1043.4,-208.33 871,-173.32"/>
<polygon fill="#63b8ff" stroke="#63b8ff" points="871.92,-169.93 861.42,-171.34 870.5,-176.79 871.92,-169.93"/>
</g>
<!-- Node10 -->
<g id="node10" class="node">
<title>Node10</title>
<g id="a_node10"><a xlink:title=" ">
<polygon fill="#e0e0e0" stroke="#999999" points="1035.5,-173 877.5,-173 877.5,-121 1035.5,-121 1035.5,-173"/>
<text text-anchor="start" x="885.5" y="-161" font-family="Helvetica,sans-Serif" font-size="10.00">asm/rel/d/a/tag/d_a</text>
<text text-anchor="start" x="885.5" y="-150" font-family="Helvetica,sans-Serif" font-size="10.00">_tag_evtmsg/d_a_tag</text>
<text text-anchor="start" x="885.5" y="-139" font-family="Helvetica,sans-Serif" font-size="10.00">_evtmsg/getOnSwBit__14daTag</text>
<text text-anchor="middle" x="956.5" y="-128" font-family="Helvetica,sans-Serif" font-size="10.00">_EvtMsg_cFv.s</text>
</a>
</g>
</g>
<!-- Node1&#45;&gt;Node10 -->
<g id="edge10" class="edge">
<title>Node1&#45;&gt;Node10</title>
<path fill="none" stroke="#63b8ff" d="M1340.83,-216.07C1268.46,-208.57 1154.8,-194.96 1047.02,-173.18"/>
<polygon fill="#63b8ff" stroke="#63b8ff" points="1047.92,-169.79 1037.42,-171.21 1046.52,-176.65 1047.92,-169.79"/>
</g>
<!-- Node11 -->
<g id="node11" class="node">
<title>Node11</title>
<g id="a_node11"><a xlink:title=" ">
<polygon fill="#e0e0e0" stroke="#999999" points="1181,-173 1054,-173 1054,-121 1181,-121 1181,-173"/>
<text text-anchor="start" x="1062" y="-161" font-family="Helvetica,sans-Serif" font-size="10.00">asm/rel/d/a/tag/d_a</text>
<text text-anchor="start" x="1062" y="-150" font-family="Helvetica,sans-Serif" font-size="10.00">_tag_evtmsg/d_a_tag</text>
<text text-anchor="start" x="1062" y="-139" font-family="Helvetica,sans-Serif" font-size="10.00">_evtmsg/getOffSwBit_</text>
<text text-anchor="middle" x="1117.5" y="-128" font-family="Helvetica,sans-Serif" font-size="10.00">_14daTag_EvtMsg_cFv.s</text>
</a>
</g>
</g>
<!-- Node1&#45;&gt;Node11 -->
<g id="edge11" class="edge">
<title>Node1&#45;&gt;Node11</title>
<path fill="none" stroke="#63b8ff" d="M1340.59,-208.64C1299.43,-200.15 1247.1,-188.54 1192.43,-173.42"/>
<polygon fill="#63b8ff" stroke="#63b8ff" points="1193.5,-170.09 1182.93,-170.76 1191.61,-176.83 1193.5,-170.09"/>
</g>
<!-- Node12 -->
<g id="node12" class="node">
<title>Node12</title>
<g id="a_node12"><a xlink:title=" ">
<polygon fill="#e0e0e0" stroke="#999999" points="1326,-173 1199,-173 1199,-121 1326,-121 1326,-173"/>
<text text-anchor="start" x="1207" y="-161" font-family="Helvetica,sans-Serif" font-size="10.00">asm/rel/d/a/tag/d_a</text>
<text text-anchor="start" x="1207" y="-150" font-family="Helvetica,sans-Serif" font-size="10.00">_tag_evtmsg/d_a_tag</text>
<text text-anchor="start" x="1207" y="-139" font-family="Helvetica,sans-Serif" font-size="10.00">_evtmsg/getProcType_</text>
<text text-anchor="middle" x="1262.5" y="-128" font-family="Helvetica,sans-Serif" font-size="10.00">_14daTag_EvtMsg_cFv.s</text>
</a>
</g>
</g>
<!-- Node1&#45;&gt;Node12 -->
<g id="edge12" class="edge">
<title>Node1&#45;&gt;Node12</title>
<path fill="none" stroke="#63b8ff" d="M1385.19,-208.54C1367.84,-199.98 1345.2,-188.8 1324.09,-178.39"/>
<polygon fill="#63b8ff" stroke="#63b8ff" points="1325.75,-175.31 1315.24,-174.02 1322.66,-181.59 1325.75,-175.31"/>
</g>
<!-- Node13 -->
<g id="node13" class="node">
<title>Node13</title>
<g id="a_node13"><a xlink:title=" ">
<polygon fill="#e0e0e0" stroke="#999999" points="1484.5,-173 1344.5,-173 1344.5,-121 1484.5,-121 1484.5,-173"/>
<text text-anchor="start" x="1352.5" y="-161" font-family="Helvetica,sans-Serif" font-size="10.00">asm/rel/d/a/tag/d_a</text>
<text text-anchor="start" x="1352.5" y="-150" font-family="Helvetica,sans-Serif" font-size="10.00">_tag_evtmsg/d_a_tag</text>
<text text-anchor="start" x="1352.5" y="-139" font-family="Helvetica,sans-Serif" font-size="10.00">_evtmsg/isDelete__14daTag</text>
<text text-anchor="middle" x="1414.5" y="-128" font-family="Helvetica,sans-Serif" font-size="10.00">_EvtMsg_cFv.s</text>
</a>
</g>
</g>
<!-- Node1&#45;&gt;Node13 -->
<g id="edge13" class="edge">
<title>Node1&#45;&gt;Node13</title>
<path fill="none" stroke="#63b8ff" d="M1414.5,-208.54C1414.5,-201.69 1414.5,-193.17 1414.5,-184.7"/>
<polygon fill="#63b8ff" stroke="#63b8ff" points="1418,-184.87 1414.5,-174.87 1411,-184.87 1418,-184.87"/>
</g>
<!-- Node14 -->
<g id="node14" class="node">
<title>Node14</title>
<g id="a_node14"><a xlink:title=" ">
<polygon fill="#e0e0e0" stroke="#999999" points="1656,-173 1503,-173 1503,-121 1656,-121 1656,-173"/>
<text text-anchor="start" x="1511" y="-161" font-family="Helvetica,sans-Serif" font-size="10.00">asm/rel/d/a/tag/d_a</text>
<text text-anchor="start" x="1511" y="-150" font-family="Helvetica,sans-Serif" font-size="10.00">_tag_evtmsg/d_a_tag</text>
<text text-anchor="start" x="1511" y="-139" font-family="Helvetica,sans-Serif" font-size="10.00">_evtmsg/chkPointInArea</text>
<text text-anchor="middle" x="1579.5" y="-128" font-family="Helvetica,sans-Serif" font-size="10.00">__14daTag_EvtMsg_cF4cXyz.s</text>
</a>
</g>
</g>
<!-- Node1&#45;&gt;Node14 -->
<g id="edge14" class="edge">
<title>Node1&#45;&gt;Node14</title>
<path fill="none" stroke="#63b8ff" d="M1446.31,-208.54C1465.32,-199.9 1490.18,-188.6 1513.27,-178.11"/>
<polygon fill="#63b8ff" stroke="#63b8ff" points="1514.69,-181.3 1522.35,-173.98 1511.79,-174.93 1514.69,-181.3"/>
</g>
<!-- Node15 -->
<g id="node15" class="node">
<title>Node15</title>
<g id="a_node15"><a xlink:title=" ">
<polygon fill="#e0e0e0" stroke="#999999" points="1821,-173 1674,-173 1674,-121 1821,-121 1821,-173"/>
<text text-anchor="start" x="1682" y="-161" font-family="Helvetica,sans-Serif" font-size="10.00">asm/rel/d/a/tag/d_a</text>
<text text-anchor="start" x="1682" y="-150" font-family="Helvetica,sans-Serif" font-size="10.00">_tag_evtmsg/d_a_tag</text>
<text text-anchor="start" x="1682" y="-139" font-family="Helvetica,sans-Serif" font-size="10.00">_evtmsg/ECut_talk__14daTag</text>
<text text-anchor="middle" x="1747.5" y="-128" font-family="Helvetica,sans-Serif" font-size="10.00">_EvtMsg_cFi.s</text>
</a>
</g>
</g>
<!-- Node1&#45;&gt;Node15 -->
<g id="edge15" class="edge">
<title>Node1&#45;&gt;Node15</title>
<path fill="none" stroke="#63b8ff" d="M1488.24,-210.3C1535.74,-201.66 1598.99,-189.31 1662.77,-173.6"/>
<polygon fill="#63b8ff" stroke="#63b8ff" points="1663.51,-177.02 1672.37,-171.2 1661.82,-170.22 1663.51,-177.02"/>
</g>
<!-- Node16 -->
<g id="node16" class="node">
<title>Node16</title>
<g id="a_node16"><a xlink:title=" ">
<polygon fill="#e0e0e0" stroke="#999999" points="1988,-173 1839,-173 1839,-121 1988,-121 1988,-173"/>
<text text-anchor="start" x="1847" y="-161" font-family="Helvetica,sans-Serif" font-size="10.00">asm/rel/d/a/tag/d_a</text>
<text text-anchor="start" x="1847" y="-150" font-family="Helvetica,sans-Serif" font-size="10.00">_tag_evtmsg/d_a_tag</text>
<text text-anchor="start" x="1847" y="-139" font-family="Helvetica,sans-Serif" font-size="10.00">_evtmsg/ECut_wait__14daTag</text>
<text text-anchor="middle" x="1913.5" y="-128" font-family="Helvetica,sans-Serif" font-size="10.00">_EvtMsg_cFi.s</text>
</a>
</g>
</g>
<!-- Node1&#45;&gt;Node16 -->
<g id="edge16" class="edge">
<title>Node1&#45;&gt;Node16</title>
<path fill="none" stroke="#63b8ff" d="M1488.39,-218C1569.6,-211.63 1703.97,-198.54 1827.4,-173.51"/>
<polygon fill="#63b8ff" stroke="#63b8ff" points="1827.98,-176.96 1837.07,-171.52 1826.57,-170.11 1827.98,-176.96"/>
</g>
<!-- Node17 -->
<g id="node17" class="node">
<title>Node17</title>
<g id="a_node17"><a xlink:title=" ">
<polygon fill="#e0e0e0" stroke="#999999" points="2128.5,-173 2006.5,-173 2006.5,-121 2128.5,-121 2128.5,-173"/>
<text text-anchor="start" x="2014.5" y="-161" font-family="Helvetica,sans-Serif" font-size="10.00">asm/rel/d/a/tag/d_a</text>
<text text-anchor="start" x="2014.5" y="-150" font-family="Helvetica,sans-Serif" font-size="10.00">_tag_evtmsg/d_a_tag</text>
<text text-anchor="start" x="2014.5" y="-139" font-family="Helvetica,sans-Serif" font-size="10.00">_evtmsg/daTag_EvtMsg</text>
<text text-anchor="middle" x="2067.5" y="-128" font-family="Helvetica,sans-Serif" font-size="10.00">_Create__FPv.s</text>
</a>
</g>
</g>
<!-- Node1&#45;&gt;Node17 -->
<g id="edge17" class="edge">
<title>Node1&#45;&gt;Node17</title>
<path fill="none" stroke="#63b8ff" d="M1488.11,-222.72C1597.41,-220.99 1808.87,-212.55 1995.2,-173.25"/>
<polygon fill="#63b8ff" stroke="#63b8ff" points="1995.78,-176.7 2004.82,-171.18 1994.31,-169.86 1995.78,-176.7"/>
</g>
<!-- Node18 -->
<g id="node18" class="node">
<title>Node18</title>
<g id="a_node18"><a xlink:title=" ">
<polygon fill="#e0e0e0" stroke="#999999" points="2268.5,-173 2146.5,-173 2146.5,-121 2268.5,-121 2268.5,-173"/>
<text text-anchor="start" x="2154.5" y="-161" font-family="Helvetica,sans-Serif" font-size="10.00">asm/rel/d/a/tag/d_a</text>
<text text-anchor="start" x="2154.5" y="-150" font-family="Helvetica,sans-Serif" font-size="10.00">_tag_evtmsg/d_a_tag</text>
<text text-anchor="start" x="2154.5" y="-139" font-family="Helvetica,sans-Serif" font-size="10.00">_evtmsg/daTag_EvtMsg</text>
<text text-anchor="middle" x="2207.5" y="-128" font-family="Helvetica,sans-Serif" font-size="10.00">_Delete__FPv.s</text>
</a>
</g>
</g>
<!-- Node1&#45;&gt;Node18 -->
<g id="edge18" class="edge">
<title>Node1&#45;&gt;Node18</title>
<path fill="none" stroke="#63b8ff" d="M1488.44,-220.45C1642.64,-214.74 1995.13,-199.45 2135.03,-173.16"/>
<polygon fill="#63b8ff" stroke="#63b8ff" points="2135.7,-176.6 2144.83,-171.22 2134.34,-169.73 2135.7,-176.6"/>
</g>
<!-- Node19 -->
<g id="node19" class="node">
<title>Node19</title>
<g id="a_node19"><a xlink:title=" ">
<polygon fill="#e0e0e0" stroke="#999999" points="2408.5,-173 2286.5,-173 2286.5,-121 2408.5,-121 2408.5,-173"/>
<text text-anchor="start" x="2294.5" y="-161" font-family="Helvetica,sans-Serif" font-size="10.00">asm/rel/d/a/tag/d_a</text>
<text text-anchor="start" x="2294.5" y="-150" font-family="Helvetica,sans-Serif" font-size="10.00">_tag_evtmsg/d_a_tag</text>
<text text-anchor="start" x="2294.5" y="-139" font-family="Helvetica,sans-Serif" font-size="10.00">_evtmsg/daTag_EvtMsg</text>
<text text-anchor="middle" x="2347.5" y="-128" font-family="Helvetica,sans-Serif" font-size="10.00">_Execute__FPv.s</text>
</a>
</g>
</g>
<!-- Node1&#45;&gt;Node19 -->
<g id="edge19" class="edge">
<title>Node1&#45;&gt;Node19</title>
<path fill="none" stroke="#63b8ff" d="M1488.29,-221.42C1664.49,-217.23 2107.01,-204.09 2275.17,-173.12"/>
<polygon fill="#63b8ff" stroke="#63b8ff" points="2275.69,-176.59 2284.84,-171.25 2274.35,-169.72 2275.69,-176.59"/>
</g>
<!-- Node20 -->
<g id="node20" class="node">
<title>Node20</title>
<g id="a_node20"><a xlink:title=" ">
<polygon fill="#e0e0e0" stroke="#999999" points="2548.5,-173 2426.5,-173 2426.5,-121 2548.5,-121 2548.5,-173"/>
<text text-anchor="start" x="2434.5" y="-161" font-family="Helvetica,sans-Serif" font-size="10.00">asm/rel/d/a/tag/d_a</text>
<text text-anchor="start" x="2434.5" y="-150" font-family="Helvetica,sans-Serif" font-size="10.00">_tag_evtmsg/d_a_tag</text>
<text text-anchor="start" x="2434.5" y="-139" font-family="Helvetica,sans-Serif" font-size="10.00">_evtmsg/daTag_EvtMsg</text>
<text text-anchor="middle" x="2487.5" y="-128" font-family="Helvetica,sans-Serif" font-size="10.00">_Draw__FPv.s</text>
</a>
</g>
</g>
<!-- Node1&#45;&gt;Node20 -->
<g id="edge20" class="edge">
<title>Node1&#45;&gt;Node20</title>
<path fill="none" stroke="#63b8ff" d="M1488.31,-222.12C1684.86,-219.33 2218.81,-208.8 2415.27,-173.1"/>
<polygon fill="#63b8ff" stroke="#63b8ff" points="2415.67,-176.59 2424.84,-171.27 2414.36,-169.71 2415.67,-176.59"/>
</g>
<!-- Node21 -->
<g id="node21" class="node">
<title>Node21</title>
<g id="a_node21"><a xlink:title=" ">
<polygon fill="#e0e0e0" stroke="#999999" points="2690.5,-173 2566.5,-173 2566.5,-121 2690.5,-121 2690.5,-173"/>
<text text-anchor="start" x="2574.5" y="-161" font-family="Helvetica,sans-Serif" font-size="10.00">asm/rel/d/a/tag/d_a</text>
<text text-anchor="start" x="2574.5" y="-150" font-family="Helvetica,sans-Serif" font-size="10.00">_tag_evtmsg/d_a_tag</text>
<text text-anchor="start" x="2574.5" y="-139" font-family="Helvetica,sans-Serif" font-size="10.00">_evtmsg/__dt__14daTag</text>
<text text-anchor="middle" x="2628.5" y="-128" font-family="Helvetica,sans-Serif" font-size="10.00">_EvtMsg_cFv.s</text>
</a>
</g>
</g>
<!-- Node1&#45;&gt;Node21 -->
<g id="edge21" class="edge">
<title>Node1&#45;&gt;Node21</title>
<path fill="none" stroke="#63b8ff" d="M1488.19,-222.6C1703.53,-221.01 2330.24,-213.12 2555.02,-173.16"/>
<polygon fill="#63b8ff" stroke="#63b8ff" points="2555.38,-176.65 2564.57,-171.39 2554.1,-169.77 2555.38,-176.65"/>
</g>
<!-- Node22 -->
<g id="node22" class="node">
<title>Node22</title>
<g id="a_node22"><a xlink:title=" ">
<polygon fill="#e0e0e0" stroke="#999999" points="2840.5,-167.5 2708.5,-167.5 2708.5,-126.5 2840.5,-126.5 2840.5,-167.5"/>
<text text-anchor="start" x="2716.5" y="-155.5" font-family="Helvetica,sans-Serif" font-size="10.00">asm/rel/d/a/tag/d_a</text>
<text text-anchor="start" x="2716.5" y="-144.5" font-family="Helvetica,sans-Serif" font-size="10.00">_tag_evtmsg/d_a_tag</text>
<text text-anchor="middle" x="2774.5" y="-133.5" font-family="Helvetica,sans-Serif" font-size="10.00">_evtmsg/func_8048D760.s</text>
</a>
</g>
</g>
<!-- Node1&#45;&gt;Node22 -->
<g id="edge22" class="edge">
<title>Node1&#45;&gt;Node22</title>
<path fill="none" stroke="#63b8ff" d="M1488.35,-222.86C1725.3,-221.99 2464.62,-215.82 2699.5,-173 2702.9,-172.38 2706.36,-171.64 2709.83,-170.81"/>
<polygon fill="#63b8ff" stroke="#63b8ff" points="2710.66,-174.21 2719.44,-168.27 2708.88,-167.44 2710.66,-174.21"/>
</g>
<!-- Node23 -->
<g id="node23" class="node">
<title>Node23</title>
<g id="a_node23"><a xlink:title=" ">
<polygon fill="#e0e0e0" stroke="#999999" points="2984,-173 2859,-173 2859,-121 2984,-121 2984,-173"/>
<text text-anchor="start" x="2867" y="-161" font-family="Helvetica,sans-Serif" font-size="10.00">asm/rel/d/a/tag/d_a</text>
<text text-anchor="start" x="2867" y="-150" font-family="Helvetica,sans-Serif" font-size="10.00">_tag_evtmsg/d_a_tag</text>
<text text-anchor="start" x="2867" y="-139" font-family="Helvetica,sans-Serif" font-size="10.00">_evtmsg/__sinit_d_a_tag</text>
<text text-anchor="middle" x="2921.5" y="-128" font-family="Helvetica,sans-Serif" font-size="10.00">_evtmsg_cpp.s</text>
</a>
</g>
</g>
<!-- Node1&#45;&gt;Node23 -->
<g id="edge23" class="edge">
<title>Node1&#45;&gt;Node23</title>
<path fill="none" stroke="#63b8ff" d="M1488.38,-223.33C1739.89,-224.03 2562.46,-222.49 2847.44,-173.05"/>
<polygon fill="#63b8ff" stroke="#63b8ff" points="2847.86,-176.53 2857.08,-171.31 2846.62,-169.64 2847.86,-176.53"/>
</g>
<!-- Node2&#45;&gt;Node3 -->
<g id="edge2" class="edge">
<title>Node2&#45;&gt;Node3</title>
<path fill="none" stroke="#63b8ff" d="M78.45,-131.6C85.92,-120.77 96.21,-105.88 104.2,-94.31"/>
<polygon fill="#63b8ff" stroke="#63b8ff" points="106.84,-96.64 109.65,-86.42 101.08,-92.66 106.84,-96.64"/>
</g>
<!-- Node4 -->
<g id="node4" class="node">
<title>Node4</title>
<g id="a_node4"><a xlink:href="stddef_8h.html" target="_top" xlink:title=" ">
<polygon fill="white" stroke="#666666" points="184.5,-30 48.5,-30 48.5,0 184.5,0 184.5,-30"/>
<text text-anchor="start" x="56.5" y="-18" font-family="Helvetica,sans-Serif" font-size="10.00">MSL_C/MSL_Common/Src</text>
<text text-anchor="middle" x="116.5" y="-7" font-family="Helvetica,sans-Serif" font-size="10.00">/stddef.h</text>
</a>
</g>
</g>
<!-- Node3&#45;&gt;Node4 -->
<g id="edge3" class="edge">
<title>Node3&#45;&gt;Node4</title>
<path fill="none" stroke="#63b8ff" d="M116.5,-65.87C116.5,-59.4 116.5,-50.2 116.5,-41.45"/>
<polygon fill="#63b8ff" stroke="#63b8ff" points="120,-41.63 116.5,-31.63 113,-41.63 120,-41.63"/>
</g>
</g>
</svg>
