<?xml version="1.0" encoding="UTF-8" standalone="no"?>
<!DOCTYPE svg PUBLIC "-//W3C//DTD SVG 1.1//EN"
 "http://www.w3.org/Graphics/SVG/1.1/DTD/svg11.dtd">
<!-- Generated by graphviz version 7.0.5 (20221223.1930)
 -->
<!-- Title: rel/d/a/obj/d_a_obj_magLift/d_a_obj_magLift.cpp Pages: 1 -->
<svg width="4698pt" height="247pt"
 viewBox="0.00 0.00 4697.50 247.00" xmlns="http://www.w3.org/2000/svg" xmlns:xlink="http://www.w3.org/1999/xlink">
<g id="graph0" class="graph" transform="scale(1 1) rotate(0) translate(4 243)">
<title>rel/d/a/obj/d_a_obj_magLift/d_a_obj_magLift.cpp</title>
<!-- Node1 -->
<g id="node1" class="node">
<title>Node1</title>
<g id="a_node1"><a xlink:title=" ">
<polygon fill="#999999" stroke="#666666" points="2398.5,-239 2250.5,-239 2250.5,-209 2398.5,-209 2398.5,-239"/>
<text text-anchor="start" x="2258.5" y="-227" font-family="Helvetica,sans-Serif" font-size="10.00">rel/d/a/obj/d_a_obj</text>
<text text-anchor="middle" x="2324.5" y="-216" font-family="Helvetica,sans-Serif" font-size="10.00">_magLift/d_a_obj_magLift.cpp</text>
</a>
</g>
</g>
<!-- Node2 -->
<g id="node2" class="node">
<title>Node2</title>
<g id="a_node2"><a xlink:href="d__a__obj__magLift_8h.html" target="_top" xlink:title=" ">
<polygon fill="white" stroke="#666666" points="137,-162 0,-162 0,-132 137,-132 137,-162"/>
<text text-anchor="start" x="8" y="-150" font-family="Helvetica,sans-Serif" font-size="10.00">rel/d/a/obj/d_a_obj</text>
<text text-anchor="middle" x="68.5" y="-139" font-family="Helvetica,sans-Serif" font-size="10.00">_magLift/d_a_obj_magLift.h</text>
</a>
</g>
</g>
<!-- Node1&#45;&gt;Node2 -->
<g id="edge1" class="edge">
<title>Node1&#45;&gt;Node2</title>
<path fill="none" stroke="#63b8ff" d="M2250.05,-222.48C1892.7,-219.8 361.94,-206.48 151.5,-173 140.91,-171.32 129.79,-168.63 119.25,-165.64"/>
<polygon fill="#63b8ff" stroke="#63b8ff" points="120.55,-162.37 109.97,-162.86 118.55,-169.08 120.55,-162.37"/>
</g>
<!-- Node3 -->
<g id="node3" class="node">
<title>Node3</title>
<g id="a_node3"><a xlink:href="types_8h.html" target="_top" xlink:title=" ">
<polygon fill="white" stroke="#666666" points="157,-85 76,-85 76,-66 157,-66 157,-85"/>
<text text-anchor="middle" x="116.5" y="-73" font-family="Helvetica,sans-Serif" font-size="10.00">dolphin/types.h</text>
</a>
</g>
</g>
<!-- Node1&#45;&gt;Node3 -->
<g id="edge5" class="edge">
<title>Node1&#45;&gt;Node3</title>
<path fill="none" stroke="#63b8ff" d="M2250.15,-223.12C1883.12,-223.48 278.51,-222.22 185.5,-173 181.32,-170.79 147.66,-122.14 128.95,-94.78"/>
<polygon fill="#63b8ff" stroke="#63b8ff" points="131.98,-93.02 123.45,-86.73 126.2,-96.96 131.98,-93.02"/>
</g>
<!-- Node5 -->
<g id="node5" class="node">
<title>Node5</title>
<g id="a_node5"><a xlink:href="dol2asm_8h.html" target="_top" xlink:title=" ">
<polygon fill="white" stroke="#666666" points="255,-156.5 194,-156.5 194,-137.5 255,-137.5 255,-156.5"/>
<text text-anchor="middle" x="224.5" y="-144.5" font-family="Helvetica,sans-Serif" font-size="10.00">dol2asm.h</text>
</a>
</g>
</g>
<!-- Node1&#45;&gt;Node5 -->
<g id="edge4" class="edge">
<title>Node1&#45;&gt;Node5</title>
<path fill="none" stroke="#63b8ff" d="M2250.25,-222.3C1892.67,-218.77 361.3,-202.04 264.5,-173 257.57,-170.92 250.65,-167.29 244.57,-163.44"/>
<polygon fill="#63b8ff" stroke="#63b8ff" points="246.71,-160.67 236.5,-157.83 242.72,-166.42 246.71,-160.67"/>
</g>
<!-- Node6 -->
<g id="node6" class="node">
<title>Node6</title>
<g id="a_node6"><a xlink:title=" ">
<polygon fill="#e0e0e0" stroke="#999999" points="414,-173 273,-173 273,-121 414,-121 414,-173"/>
<text text-anchor="start" x="281" y="-161" font-family="Helvetica,sans-Serif" font-size="10.00">asm/rel/d/a/obj/d_a</text>
<text text-anchor="start" x="281" y="-150" font-family="Helvetica,sans-Serif" font-size="10.00">_obj_magLift/d_a_obj</text>
<text text-anchor="start" x="281" y="-139" font-family="Helvetica,sans-Serif" font-size="10.00">_magLift/__ct__15daMagLift</text>
<text text-anchor="middle" x="343.5" y="-128" font-family="Helvetica,sans-Serif" font-size="10.00">_HIO_cFv.s</text>
</a>
</g>
</g>
<!-- Node1&#45;&gt;Node6 -->
<g id="edge6" class="edge">
<title>Node1&#45;&gt;Node6</title>
<path fill="none" stroke="#63b8ff" d="M2250.27,-222.26C1927.38,-218.88 651.64,-203.8 425.47,-172.93"/>
<polygon fill="#63b8ff" stroke="#63b8ff" points="426.26,-169.51 415.85,-171.48 425.22,-176.43 426.26,-169.51"/>
</g>
<!-- Node7 -->
<g id="node7" class="node">
<title>Node7</title>
<g id="a_node7"><a xlink:title=" ">
<polygon fill="#e0e0e0" stroke="#999999" points="568.5,-173 432.5,-173 432.5,-121 568.5,-121 568.5,-173"/>
<text text-anchor="start" x="440.5" y="-161" font-family="Helvetica,sans-Serif" font-size="10.00">asm/rel/d/a/obj/d_a</text>
<text text-anchor="start" x="440.5" y="-150" font-family="Helvetica,sans-Serif" font-size="10.00">_obj_magLift/d_a_obj</text>
<text text-anchor="start" x="440.5" y="-139" font-family="Helvetica,sans-Serif" font-size="10.00">_magLift/__dt__14mDoHIO</text>
<text text-anchor="middle" x="500.5" y="-128" font-family="Helvetica,sans-Serif" font-size="10.00">_entry_cFv.s</text>
</a>
</g>
</g>
<!-- Node1&#45;&gt;Node7 -->
<g id="edge7" class="edge">
<title>Node1&#45;&gt;Node7</title>
<path fill="none" stroke="#63b8ff" d="M2250.12,-222.1C1944.21,-218.25 789.72,-202.04 579.85,-172.78"/>
<polygon fill="#63b8ff" stroke="#63b8ff" points="580.63,-169.36 570.21,-171.29 579.56,-176.28 580.63,-169.36"/>
</g>
<!-- Node8 -->
<g id="node8" class="node">
<title>Node8</title>
<g id="a_node8"><a xlink:title=" ">
<polygon fill="#e0e0e0" stroke="#999999" points="702,-173 587,-173 587,-121 702,-121 702,-173"/>
<text text-anchor="start" x="595" y="-161" font-family="Helvetica,sans-Serif" font-size="10.00">asm/rel/d/a/obj/d_a</text>
<text text-anchor="start" x="595" y="-150" font-family="Helvetica,sans-Serif" font-size="10.00">_obj_magLift/d_a_obj</text>
<text text-anchor="start" x="595" y="-139" font-family="Helvetica,sans-Serif" font-size="10.00">_magLift/setBaseMtx_</text>
<text text-anchor="middle" x="644.5" y="-128" font-family="Helvetica,sans-Serif" font-size="10.00">_11daMagLift_cFv.s</text>
</a>
</g>
</g>
<!-- Node1&#45;&gt;Node8 -->
<g id="edge8" class="edge">
<title>Node1&#45;&gt;Node8</title>
<path fill="none" stroke="#63b8ff" d="M2250.06,-222.12C1959.36,-218.47 907.63,-203.46 713.33,-172.81"/>
<polygon fill="#63b8ff" stroke="#63b8ff" points="714.21,-169.42 703.76,-171.13 713,-176.31 714.21,-169.42"/>
</g>
<!-- Node9 -->
<g id="node9" class="node">
<title>Node9</title>
<g id="a_node9"><a xlink:title=" ">
<polygon fill="#e0e0e0" stroke="#999999" points="835,-173 720,-173 720,-121 835,-121 835,-173"/>
<text text-anchor="start" x="728" y="-161" font-family="Helvetica,sans-Serif" font-size="10.00">asm/rel/d/a/obj/d_a</text>
<text text-anchor="start" x="728" y="-150" font-family="Helvetica,sans-Serif" font-size="10.00">_obj_magLift/d_a_obj</text>
<text text-anchor="start" x="728" y="-139" font-family="Helvetica,sans-Serif" font-size="10.00">_magLift/CreateHeap_</text>
<text text-anchor="middle" x="777.5" y="-128" font-family="Helvetica,sans-Serif" font-size="10.00">_11daMagLift_cFv.s</text>
</a>
</g>
</g>
<!-- Node1&#45;&gt;Node9 -->
<g id="edge9" class="edge">
<title>Node1&#45;&gt;Node9</title>
<path fill="none" stroke="#63b8ff" d="M2250.3,-221.9C1976.07,-217.63 1026.72,-201.13 846.46,-172.83"/>
<polygon fill="#63b8ff" stroke="#63b8ff" points="847.22,-169.41 836.76,-171.12 846,-176.3 847.22,-169.41"/>
</g>
<!-- Node10 -->
<g id="node10" class="node">
<title>Node10</title>
<g id="a_node10"><a xlink:title=" ">
<polygon fill="#e0e0e0" stroke="#999999" points="1032,-167.5 853,-167.5 853,-126.5 1032,-126.5 1032,-167.5"/>
<text text-anchor="start" x="861" y="-155.5" font-family="Helvetica,sans-Serif" font-size="10.00">asm/rel/d/a/obj/d_a</text>
<text text-anchor="start" x="861" y="-144.5" font-family="Helvetica,sans-Serif" font-size="10.00">_obj_magLift/d_a_obj</text>
<text text-anchor="middle" x="942.5" y="-133.5" font-family="Helvetica,sans-Serif" font-size="10.00">_magLift/create__11daMagLift_cFv.s</text>
</a>
</g>
</g>
<!-- Node1&#45;&gt;Node10 -->
<g id="edge10" class="edge">
<title>Node1&#45;&gt;Node10</title>
<path fill="none" stroke="#63b8ff" d="M2250.05,-222.14C2012.93,-219.06 1277.16,-206.97 1041.5,-173 1036.24,-172.24 1030.85,-171.32 1025.44,-170.28"/>
<polygon fill="#63b8ff" stroke="#63b8ff" points="1026.32,-166.88 1015.82,-168.3 1024.91,-173.74 1026.32,-166.88"/>
</g>
<!-- Node11 -->
<g id="node11" class="node">
<title>Node11</title>
<g id="a_node11"><a xlink:title=" ">
<polygon fill="#e0e0e0" stroke="#999999" points="1207,-173 1050,-173 1050,-121 1207,-121 1207,-173"/>
<text text-anchor="start" x="1058" y="-161" font-family="Helvetica,sans-Serif" font-size="10.00">asm/rel/d/a/obj/d_a</text>
<text text-anchor="start" x="1058" y="-150" font-family="Helvetica,sans-Serif" font-size="10.00">_obj_magLift/d_a_obj</text>
<text text-anchor="start" x="1058" y="-139" font-family="Helvetica,sans-Serif" font-size="10.00">_magLift/Execute__11daMagLift</text>
<text text-anchor="middle" x="1128.5" y="-128" font-family="Helvetica,sans-Serif" font-size="10.00">_cFPPA3_A4_f.s</text>
</a>
</g>
</g>
<!-- Node1&#45;&gt;Node11 -->
<g id="edge11" class="edge">
<title>Node1&#45;&gt;Node11</title>
<path fill="none" stroke="#63b8ff" d="M2250.13,-221.89C2038.95,-218.38 1437.35,-205.88 1218.52,-173.09"/>
<polygon fill="#63b8ff" stroke="#63b8ff" points="1219.37,-169.68 1208.95,-171.6 1218.29,-176.6 1219.37,-169.68"/>
</g>
<!-- Node12 -->
<g id="node12" class="node">
<title>Node12</title>
<g id="a_node12"><a xlink:title=" ">
<polygon fill="#e0e0e0" stroke="#999999" points="1415.5,-167.5 1225.5,-167.5 1225.5,-126.5 1415.5,-126.5 1415.5,-167.5"/>
<text text-anchor="start" x="1233.5" y="-155.5" font-family="Helvetica,sans-Serif" font-size="10.00">asm/rel/d/a/obj/d_a</text>
<text text-anchor="start" x="1233.5" y="-144.5" font-family="Helvetica,sans-Serif" font-size="10.00">_obj_magLift/d_a_obj</text>
<text text-anchor="middle" x="1320.5" y="-133.5" font-family="Helvetica,sans-Serif" font-size="10.00">_magLift/moveLift__11daMagLift_cFv.s</text>
</a>
</g>
</g>
<!-- Node1&#45;&gt;Node12 -->
<g id="edge12" class="edge">
<title>Node1&#45;&gt;Node12</title>
<path fill="none" stroke="#63b8ff" d="M2250.05,-223.33C2095.53,-223.03 1729.07,-217.22 1425.5,-173 1419.91,-172.19 1414.17,-171.22 1408.41,-170.14"/>
<polygon fill="#63b8ff" stroke="#63b8ff" points="1409.3,-166.75 1398.81,-168.24 1407.94,-173.61 1409.3,-166.75"/>
</g>
<!-- Node13 -->
<g id="node13" class="node">
<title>Node13</title>
<g id="a_node13"><a xlink:title=" ">
<polygon fill="#e0e0e0" stroke="#999999" points="1627,-167.5 1434,-167.5 1434,-126.5 1627,-126.5 1627,-167.5"/>
<text text-anchor="start" x="1442" y="-155.5" font-family="Helvetica,sans-Serif" font-size="10.00">asm/rel/d/a/obj/d_a</text>
<text text-anchor="start" x="1442" y="-144.5" font-family="Helvetica,sans-Serif" font-size="10.00">_obj_magLift/d_a_obj</text>
<text text-anchor="middle" x="1530.5" y="-133.5" font-family="Helvetica,sans-Serif" font-size="10.00">_magLift/modeAcc__11daMagLift_cFv.s</text>
</a>
</g>
</g>
<!-- Node1&#45;&gt;Node13 -->
<g id="edge13" class="edge">
<title>Node1&#45;&gt;Node13</title>
<path fill="none" stroke="#63b8ff" d="M2250.25,-221.47C2123.64,-218 1858.16,-206.97 1636.5,-173 1631.17,-172.18 1625.72,-171.24 1620.23,-170.21"/>
<polygon fill="#63b8ff" stroke="#63b8ff" points="1620.93,-166.77 1610.44,-168.26 1619.56,-173.64 1620.93,-166.77"/>
</g>
<!-- Node14 -->
<g id="node14" class="node">
<title>Node14</title>
<g id="a_node14"><a xlink:title=" ">
<polygon fill="#e0e0e0" stroke="#999999" points="1769.5,-173 1645.5,-173 1645.5,-121 1769.5,-121 1769.5,-173"/>
<text text-anchor="start" x="1653.5" y="-161" font-family="Helvetica,sans-Serif" font-size="10.00">asm/rel/d/a/obj/d_a</text>
<text text-anchor="start" x="1653.5" y="-150" font-family="Helvetica,sans-Serif" font-size="10.00">_obj_magLift/d_a_obj</text>
<text text-anchor="start" x="1653.5" y="-139" font-family="Helvetica,sans-Serif" font-size="10.00">_magLift/init_modeMove</text>
<text text-anchor="middle" x="1707.5" y="-128" font-family="Helvetica,sans-Serif" font-size="10.00">__11daMagLift_cFv.s</text>
</a>
</g>
</g>
<!-- Node1&#45;&gt;Node14 -->
<g id="edge14" class="edge">
<title>Node1&#45;&gt;Node14</title>
<path fill="none" stroke="#63b8ff" d="M2250.32,-221.99C2146.69,-219.31 1952.86,-209.66 1781,-173.32"/>
<polygon fill="#63b8ff" stroke="#63b8ff" points="1781.97,-169.94 1771.46,-171.26 1780.49,-176.79 1781.97,-169.94"/>
</g>
<!-- Node15 -->
<g id="node15" class="node">
<title>Node15</title>
<g id="a_node15"><a xlink:title=" ">
<polygon fill="#e0e0e0" stroke="#999999" points="1987.5,-167.5 1787.5,-167.5 1787.5,-126.5 1987.5,-126.5 1987.5,-167.5"/>
<text text-anchor="start" x="1795.5" y="-155.5" font-family="Helvetica,sans-Serif" font-size="10.00">asm/rel/d/a/obj/d_a</text>
<text text-anchor="start" x="1795.5" y="-144.5" font-family="Helvetica,sans-Serif" font-size="10.00">_obj_magLift/d_a_obj</text>
<text text-anchor="middle" x="1887.5" y="-133.5" font-family="Helvetica,sans-Serif" font-size="10.00">_magLift/modeMove__11daMagLift_cFv.s</text>
</a>
</g>
</g>
<!-- Node1&#45;&gt;Node15 -->
<g id="edge15" class="edge">
<title>Node1&#45;&gt;Node15</title>
<path fill="none" stroke="#63b8ff" d="M2250.22,-213.19C2183.77,-204.05 2083.83,-189.39 1997.5,-173 1992.95,-172.14 1988.31,-171.22 1983.63,-170.27"/>
<polygon fill="#63b8ff" stroke="#63b8ff" points="1984.63,-166.9 1974.13,-168.29 1983.21,-173.76 1984.63,-166.9"/>
</g>
<!-- Node16 -->
<g id="node16" class="node">
<title>Node16</title>
<g id="a_node16"><a xlink:title=" ">
<polygon fill="#e0e0e0" stroke="#999999" points="2121,-173 2006,-173 2006,-121 2121,-121 2121,-173"/>
<text text-anchor="start" x="2014" y="-161" font-family="Helvetica,sans-Serif" font-size="10.00">asm/rel/d/a/obj/d_a</text>
<text text-anchor="start" x="2014" y="-150" font-family="Helvetica,sans-Serif" font-size="10.00">_obj_magLift/d_a_obj</text>
<text text-anchor="start" x="2014" y="-139" font-family="Helvetica,sans-Serif" font-size="10.00">_magLift/init_modeBrk</text>
<text text-anchor="middle" x="2063.5" y="-128" font-family="Helvetica,sans-Serif" font-size="10.00">__11daMagLift_cFv.s</text>
</a>
</g>
</g>
<!-- Node1&#45;&gt;Node16 -->
<g id="edge16" class="edge">
<title>Node1&#45;&gt;Node16</title>
<path fill="none" stroke="#63b8ff" d="M2261.56,-208.55C2225.98,-199.97 2180.52,-188.34 2132.16,-173.4"/>
<polygon fill="#63b8ff" stroke="#63b8ff" points="2133.51,-170.15 2122.92,-170.51 2131.42,-176.83 2133.51,-170.15"/>
</g>
<!-- Node17 -->
<g id="node17" class="node">
<title>Node17</title>
<g id="a_node17"><a xlink:title=" ">
<polygon fill="#e0e0e0" stroke="#999999" points="2330,-167.5 2139,-167.5 2139,-126.5 2330,-126.5 2330,-167.5"/>
<text text-anchor="start" x="2147" y="-155.5" font-family="Helvetica,sans-Serif" font-size="10.00">asm/rel/d/a/obj/d_a</text>
<text text-anchor="start" x="2147" y="-144.5" font-family="Helvetica,sans-Serif" font-size="10.00">_obj_magLift/d_a_obj</text>
<text text-anchor="middle" x="2234.5" y="-133.5" font-family="Helvetica,sans-Serif" font-size="10.00">_magLift/modeBrk__11daMagLift_cFv.s</text>
</a>
</g>
</g>
<!-- Node1&#45;&gt;Node17 -->
<g id="edge17" class="edge">
<title>Node1&#45;&gt;Node17</title>
<path fill="none" stroke="#63b8ff" d="M2307.15,-208.54C2295.75,-199.04 2280.49,-186.32 2266.9,-175"/>
<polygon fill="#63b8ff" stroke="#63b8ff" points="2269.35,-172.49 2259.43,-168.77 2264.87,-177.86 2269.35,-172.49"/>
</g>
<!-- Node18 -->
<g id="node18" class="node">
<title>Node18</title>
<g id="a_node18"><a xlink:title=" ">
<polygon fill="#e0e0e0" stroke="#999999" points="2481,-173 2348,-173 2348,-121 2481,-121 2481,-173"/>
<text text-anchor="start" x="2356" y="-161" font-family="Helvetica,sans-Serif" font-size="10.00">asm/rel/d/a/obj/d_a</text>
<text text-anchor="start" x="2356" y="-150" font-family="Helvetica,sans-Serif" font-size="10.00">_obj_magLift/d_a_obj</text>
<text text-anchor="start" x="2356" y="-139" font-family="Helvetica,sans-Serif" font-size="10.00">_magLift/init_modeWaitInit</text>
<text text-anchor="middle" x="2414.5" y="-128" font-family="Helvetica,sans-Serif" font-size="10.00">__11daMagLift_cFv.s</text>
</a>
</g>
</g>
<!-- Node1&#45;&gt;Node18 -->
<g id="edge18" class="edge">
<title>Node1&#45;&gt;Node18</title>
<path fill="none" stroke="#63b8ff" d="M2341.85,-208.54C2351.38,-200.6 2363.6,-190.42 2375.29,-180.67"/>
<polygon fill="#63b8ff" stroke="#63b8ff" points="2377.47,-183.41 2382.91,-174.32 2372.99,-178.03 2377.47,-183.41"/>
</g>
<!-- Node19 -->
<g id="node19" class="node">
<title>Node19</title>
<g id="a_node19"><a xlink:title=" ">
<polygon fill="#e0e0e0" stroke="#999999" points="2614,-173 2499,-173 2499,-121 2614,-121 2614,-173"/>
<text text-anchor="start" x="2507" y="-161" font-family="Helvetica,sans-Serif" font-size="10.00">asm/rel/d/a/obj/d_a</text>
<text text-anchor="start" x="2507" y="-150" font-family="Helvetica,sans-Serif" font-size="10.00">_obj_magLift/d_a_obj</text>
<text text-anchor="start" x="2507" y="-139" font-family="Helvetica,sans-Serif" font-size="10.00">_magLift/modeWaitInit</text>
<text text-anchor="middle" x="2556.5" y="-128" font-family="Helvetica,sans-Serif" font-size="10.00">__11daMagLift_cFv.s</text>
</a>
</g>
</g>
<!-- Node1&#45;&gt;Node19 -->
<g id="edge19" class="edge">
<title>Node1&#45;&gt;Node19</title>
<path fill="none" stroke="#63b8ff" d="M2375.65,-208.59C2406.04,-199.8 2445.55,-187.99 2487.83,-173.83"/>
<polygon fill="#63b8ff" stroke="#63b8ff" points="2488.85,-177.18 2497.2,-170.66 2486.61,-170.55 2488.85,-177.18"/>
</g>
<!-- Node20 -->
<g id="node20" class="node">
<title>Node20</title>
<g id="a_node20"><a xlink:title=" ">
<polygon fill="#e0e0e0" stroke="#999999" points="2751,-173 2632,-173 2632,-121 2751,-121 2751,-173"/>
<text text-anchor="start" x="2640" y="-161" font-family="Helvetica,sans-Serif" font-size="10.00">asm/rel/d/a/obj/d_a</text>
<text text-anchor="start" x="2640" y="-150" font-family="Helvetica,sans-Serif" font-size="10.00">_obj_magLift/d_a_obj</text>
<text text-anchor="start" x="2640" y="-139" font-family="Helvetica,sans-Serif" font-size="10.00">_magLift/init_modeWait</text>
<text text-anchor="middle" x="2691.5" y="-128" font-family="Helvetica,sans-Serif" font-size="10.00">__11daMagLift_cFv.s</text>
</a>
</g>
</g>
<!-- Node1&#45;&gt;Node20 -->
<g id="edge20" class="edge">
<title>Node1&#45;&gt;Node20</title>
<path fill="none" stroke="#63b8ff" d="M2398.73,-214.5C2457.12,-206.93 2540.54,-194.14 2620.83,-173.53"/>
<polygon fill="#63b8ff" stroke="#63b8ff" points="2621.37,-177 2630.16,-171.08 2619.6,-170.23 2621.37,-177"/>
</g>
<!-- Node21 -->
<g id="node21" class="node">
<title>Node21</title>
<g id="a_node21"><a xlink:title=" ">
<polygon fill="#e0e0e0" stroke="#999999" points="2964,-167.5 2769,-167.5 2769,-126.5 2964,-126.5 2964,-167.5"/>
<text text-anchor="start" x="2777" y="-155.5" font-family="Helvetica,sans-Serif" font-size="10.00">asm/rel/d/a/obj/d_a</text>
<text text-anchor="start" x="2777" y="-144.5" font-family="Helvetica,sans-Serif" font-size="10.00">_obj_magLift/d_a_obj</text>
<text text-anchor="middle" x="2866.5" y="-133.5" font-family="Helvetica,sans-Serif" font-size="10.00">_magLift/modeWait__11daMagLift_cFv.s</text>
</a>
</g>
</g>
<!-- Node1&#45;&gt;Node21 -->
<g id="edge21" class="edge">
<title>Node1&#45;&gt;Node21</title>
<path fill="none" stroke="#63b8ff" d="M2398.94,-217.14C2486.04,-209.67 2634.41,-195.02 2760.5,-173 2765.35,-172.15 2770.3,-171.22 2775.29,-170.23"/>
<polygon fill="#63b8ff" stroke="#63b8ff" points="2775.69,-173.72 2784.77,-168.28 2774.27,-166.87 2775.69,-173.72"/>
</g>
<!-- Node22 -->
<g id="node22" class="node">
<title>Node22</title>
<g id="a_node22"><a xlink:title=" ">
<polygon fill="#e0e0e0" stroke="#999999" points="3125,-173 2982,-173 2982,-121 3125,-121 3125,-173"/>
<text text-anchor="start" x="2990" y="-161" font-family="Helvetica,sans-Serif" font-size="10.00">asm/rel/d/a/obj/d_a</text>
<text text-anchor="start" x="2990" y="-150" font-family="Helvetica,sans-Serif" font-size="10.00">_obj_magLift/d_a_obj</text>
<text text-anchor="start" x="2990" y="-139" font-family="Helvetica,sans-Serif" font-size="10.00">_magLift/init_modeMoveWait</text>
<text text-anchor="middle" x="3053.5" y="-128" font-family="Helvetica,sans-Serif" font-size="10.00">__11daMagLift_cFv.s</text>
</a>
</g>
</g>
<!-- Node1&#45;&gt;Node22 -->
<g id="edge22" class="edge">
<title>Node1&#45;&gt;Node22</title>
<path fill="none" stroke="#63b8ff" d="M2398.7,-222.71C2517.89,-221.05 2759.24,-212.81 2970.43,-173.41"/>
<polygon fill="#63b8ff" stroke="#63b8ff" points="2971.08,-176.85 2980.25,-171.55 2969.77,-169.97 2971.08,-176.85"/>
</g>
<!-- Node23 -->
<g id="node23" class="node">
<title>Node23</title>
<g id="a_node23"><a xlink:title=" ">
<polygon fill="#e0e0e0" stroke="#999999" points="3268,-173 3143,-173 3143,-121 3268,-121 3268,-173"/>
<text text-anchor="start" x="3151" y="-161" font-family="Helvetica,sans-Serif" font-size="10.00">asm/rel/d/a/obj/d_a</text>
<text text-anchor="start" x="3151" y="-150" font-family="Helvetica,sans-Serif" font-size="10.00">_obj_magLift/d_a_obj</text>
<text text-anchor="start" x="3151" y="-139" font-family="Helvetica,sans-Serif" font-size="10.00">_magLift/modeMoveWait</text>
<text text-anchor="middle" x="3205.5" y="-128" font-family="Helvetica,sans-Serif" font-size="10.00">__11daMagLift_cFv.s</text>
</a>
</g>
</g>
<!-- Node1&#45;&gt;Node23 -->
<g id="edge23" class="edge">
<title>Node1&#45;&gt;Node23</title>
<path fill="none" stroke="#63b8ff" d="M2398.8,-221.04C2567.13,-216.19 2974.5,-202 3131.36,-173.32"/>
<polygon fill="#63b8ff" stroke="#63b8ff" points="3132.01,-176.76 3141.17,-171.43 3130.69,-169.89 3132.01,-176.76"/>
</g>
<!-- Node24 -->
<g id="node24" class="node">
<title>Node24</title>
<g id="a_node24"><a xlink:title=" ">
<polygon fill="#e0e0e0" stroke="#999999" points="3400.5,-173 3286.5,-173 3286.5,-121 3400.5,-121 3400.5,-173"/>
<text text-anchor="start" x="3294.5" y="-161" font-family="Helvetica,sans-Serif" font-size="10.00">asm/rel/d/a/obj/d_a</text>
<text text-anchor="start" x="3294.5" y="-150" font-family="Helvetica,sans-Serif" font-size="10.00">_obj_magLift/d_a_obj</text>
<text text-anchor="start" x="3294.5" y="-139" font-family="Helvetica,sans-Serif" font-size="10.00">_magLift/setNextPoint</text>
<text text-anchor="middle" x="3343.5" y="-128" font-family="Helvetica,sans-Serif" font-size="10.00">__11daMagLift_cFv.s</text>
</a>
</g>
</g>
<!-- Node1&#45;&gt;Node24 -->
<g id="edge24" class="edge">
<title>Node1&#45;&gt;Node24</title>
<path fill="none" stroke="#63b8ff" d="M2398.84,-222.06C2588.7,-219.21 3089.01,-208.65 3274.96,-173.15"/>
<polygon fill="#63b8ff" stroke="#63b8ff" points="3275.62,-176.59 3284.74,-171.19 3274.24,-169.73 3275.62,-176.59"/>
</g>
<!-- Node25 -->
<g id="node25" class="node">
<title>Node25</title>
<g id="a_node25"><a xlink:title=" ">
<polygon fill="#e0e0e0" stroke="#999999" points="3592.5,-167.5 3418.5,-167.5 3418.5,-126.5 3592.5,-126.5 3592.5,-167.5"/>
<text text-anchor="start" x="3426.5" y="-155.5" font-family="Helvetica,sans-Serif" font-size="10.00">asm/rel/d/a/obj/d_a</text>
<text text-anchor="start" x="3426.5" y="-144.5" font-family="Helvetica,sans-Serif" font-size="10.00">_obj_magLift/d_a_obj</text>
<text text-anchor="middle" x="3505.5" y="-133.5" font-family="Helvetica,sans-Serif" font-size="10.00">_magLift/Draw__11daMagLift_cFv.s</text>
</a>
</g>
</g>
<!-- Node1&#45;&gt;Node25 -->
<g id="edge25" class="edge">
<title>Node1&#45;&gt;Node25</title>
<path fill="none" stroke="#63b8ff" d="M2398.8,-221.6C2610.48,-217.27 3213.97,-202.63 3409.5,-173 3414.47,-172.25 3419.56,-171.34 3424.67,-170.32"/>
<polygon fill="#63b8ff" stroke="#63b8ff" points="3425.32,-173.76 3434.38,-168.26 3423.87,-166.92 3425.32,-173.76"/>
</g>
<!-- Node26 -->
<g id="node26" class="node">
<title>Node26</title>
<g id="a_node26"><a xlink:title=" ">
<polygon fill="#e0e0e0" stroke="#999999" points="3790,-167.5 3611,-167.5 3611,-126.5 3790,-126.5 3790,-167.5"/>
<text text-anchor="start" x="3619" y="-155.5" font-family="Helvetica,sans-Serif" font-size="10.00">asm/rel/d/a/obj/d_a</text>
<text text-anchor="start" x="3619" y="-144.5" font-family="Helvetica,sans-Serif" font-size="10.00">_obj_magLift/d_a_obj</text>
<text text-anchor="middle" x="3700.5" y="-133.5" font-family="Helvetica,sans-Serif" font-size="10.00">_magLift/Delete__11daMagLift_cFv.s</text>
</a>
</g>
</g>
<!-- Node1&#45;&gt;Node26 -->
<g id="edge26" class="edge">
<title>Node1&#45;&gt;Node26</title>
<path fill="none" stroke="#63b8ff" d="M2398.6,-222.12C2634.62,-219.02 3366.94,-206.83 3601.5,-173 3606.76,-172.24 3612.15,-171.32 3617.56,-170.28"/>
<polygon fill="#63b8ff" stroke="#63b8ff" points="3618.09,-173.74 3627.18,-168.3 3616.68,-166.88 3618.09,-173.74"/>
</g>
<!-- Node27 -->
<g id="node27" class="node">
<title>Node27</title>
<g id="a_node27"><a xlink:title=" ">
<polygon fill="#e0e0e0" stroke="#999999" points="3937,-173 3808,-173 3808,-121 3937,-121 3937,-173"/>
<text text-anchor="start" x="3816" y="-161" font-family="Helvetica,sans-Serif" font-size="10.00">asm/rel/d/a/obj/d_a</text>
<text text-anchor="start" x="3816" y="-150" font-family="Helvetica,sans-Serif" font-size="10.00">_obj_magLift/d_a_obj</text>
<text text-anchor="start" x="3816" y="-139" font-family="Helvetica,sans-Serif" font-size="10.00">_magLift/daMagLift_Draw</text>
<text text-anchor="middle" x="3872.5" y="-128" font-family="Helvetica,sans-Serif" font-size="10.00">__FP11daMagLift_c.s</text>
</a>
</g>
</g>
<!-- Node1&#45;&gt;Node27 -->
<g id="edge27" class="edge">
<title>Node1&#45;&gt;Node27</title>
<path fill="none" stroke="#63b8ff" d="M2398.63,-223.38C2655.08,-224.24 3504.46,-223.26 3796.89,-173.19"/>
<polygon fill="#63b8ff" stroke="#63b8ff" points="3797.16,-176.7 3806.4,-171.5 3795.94,-169.81 3797.16,-176.7"/>
</g>
<!-- Node28 -->
<g id="node28" class="node">
<title>Node28</title>
<g id="a_node28"><a xlink:title=" ">
<polygon fill="#e0e0e0" stroke="#999999" points="4096,-173 3955,-173 3955,-121 4096,-121 4096,-173"/>
<text text-anchor="start" x="3963" y="-161" font-family="Helvetica,sans-Serif" font-size="10.00">asm/rel/d/a/obj/d_a</text>
<text text-anchor="start" x="3963" y="-150" font-family="Helvetica,sans-Serif" font-size="10.00">_obj_magLift/d_a_obj</text>
<text text-anchor="start" x="3963" y="-139" font-family="Helvetica,sans-Serif" font-size="10.00">_magLift/daMagLift_Execute</text>
<text text-anchor="middle" x="4025.5" y="-128" font-family="Helvetica,sans-Serif" font-size="10.00">__FP11daMagLift_c.s</text>
</a>
</g>
</g>
<!-- Node1&#45;&gt;Node28 -->
<g id="edge28" class="edge">
<title>Node1&#45;&gt;Node28</title>
<path fill="none" stroke="#63b8ff" d="M2398.71,-223.42C2671.65,-224.55 3620.31,-224.69 3943.44,-173.28"/>
<polygon fill="#63b8ff" stroke="#63b8ff" points="3943.88,-176.75 3953.18,-171.67 3942.74,-169.85 3943.88,-176.75"/>
</g>
<!-- Node29 -->
<g id="node29" class="node">
<title>Node29</title>
<g id="a_node29"><a xlink:title=" ">
<polygon fill="#e0e0e0" stroke="#999999" points="4248.5,-173 4114.5,-173 4114.5,-121 4248.5,-121 4248.5,-173"/>
<text text-anchor="start" x="4122.5" y="-161" font-family="Helvetica,sans-Serif" font-size="10.00">asm/rel/d/a/obj/d_a</text>
<text text-anchor="start" x="4122.5" y="-150" font-family="Helvetica,sans-Serif" font-size="10.00">_obj_magLift/d_a_obj</text>
<text text-anchor="start" x="4122.5" y="-139" font-family="Helvetica,sans-Serif" font-size="10.00">_magLift/daMagLift_Delete</text>
<text text-anchor="middle" x="4181.5" y="-128" font-family="Helvetica,sans-Serif" font-size="10.00">__FP11daMagLift_c.s</text>
</a>
</g>
</g>
<!-- Node1&#45;&gt;Node29 -->
<g id="edge29" class="edge">
<title>Node1&#45;&gt;Node29</title>
<path fill="none" stroke="#63b8ff" d="M2398.77,-222.18C2708.38,-218.61 3889.72,-203.23 4102.91,-173.03"/>
<polygon fill="#63b8ff" stroke="#63b8ff" points="4103.38,-176.5 4112.72,-171.49 4102.3,-169.58 4103.38,-176.5"/>
</g>
<!-- Node30 -->
<g id="node30" class="node">
<title>Node30</title>
<g id="a_node30"><a xlink:title=" ">
<polygon fill="#e0e0e0" stroke="#999999" points="4402,-173 4267,-173 4267,-121 4402,-121 4402,-173"/>
<text text-anchor="start" x="4275" y="-161" font-family="Helvetica,sans-Serif" font-size="10.00">asm/rel/d/a/obj/d_a</text>
<text text-anchor="start" x="4275" y="-150" font-family="Helvetica,sans-Serif" font-size="10.00">_obj_magLift/d_a_obj</text>
<text text-anchor="start" x="4275" y="-139" font-family="Helvetica,sans-Serif" font-size="10.00">_magLift/daMagLift_Create</text>
<text text-anchor="middle" x="4334.5" y="-128" font-family="Helvetica,sans-Serif" font-size="10.00">__FP10fopAc_ac_c.s</text>
</a>
</g>
</g>
<!-- Node1&#45;&gt;Node30 -->
<g id="edge30" class="edge">
<title>Node1&#45;&gt;Node30</title>
<path fill="none" stroke="#63b8ff" d="M2398.87,-222.34C2725.38,-219.28 4025.38,-205.29 4255.44,-172.92"/>
<polygon fill="#63b8ff" stroke="#63b8ff" points="4255.91,-176.39 4265.25,-171.4 4254.83,-169.47 4255.91,-176.39"/>
</g>
<!-- Node31 -->
<g id="node31" class="node">
<title>Node31</title>
<g id="a_node31"><a xlink:title=" ">
<polygon fill="#e0e0e0" stroke="#999999" points="4561,-173 4420,-173 4420,-121 4561,-121 4561,-173"/>
<text text-anchor="start" x="4428" y="-161" font-family="Helvetica,sans-Serif" font-size="10.00">asm/rel/d/a/obj/d_a</text>
<text text-anchor="start" x="4428" y="-150" font-family="Helvetica,sans-Serif" font-size="10.00">_obj_magLift/d_a_obj</text>
<text text-anchor="start" x="4428" y="-139" font-family="Helvetica,sans-Serif" font-size="10.00">_magLift/__dt__15daMagLift</text>
<text text-anchor="middle" x="4490.5" y="-128" font-family="Helvetica,sans-Serif" font-size="10.00">_HIO_cFv.s</text>
</a>
</g>
</g>
<!-- Node1&#45;&gt;Node31 -->
<g id="edge31" class="edge">
<title>Node1&#45;&gt;Node31</title>
<path fill="none" stroke="#63b8ff" d="M2398.89,-222.46C2741.78,-219.82 4163.33,-206.99 4408.58,-173.13"/>
<polygon fill="#63b8ff" stroke="#63b8ff" points="4408.81,-176.64 4418.18,-171.68 4407.77,-169.72 4408.81,-176.64"/>
</g>
<!-- Node32 -->
<g id="node32" class="node">
<title>Node32</title>
<g id="a_node32"><a xlink:title=" ">
<polygon fill="#e0e0e0" stroke="#999999" points="4689.5,-173 4579.5,-173 4579.5,-121 4689.5,-121 4689.5,-173"/>
<text text-anchor="start" x="4587.5" y="-161" font-family="Helvetica,sans-Serif" font-size="10.00">asm/rel/d/a/obj/d_a</text>
<text text-anchor="start" x="4587.5" y="-150" font-family="Helvetica,sans-Serif" font-size="10.00">_obj_magLift/d_a_obj</text>
<text text-anchor="start" x="4587.5" y="-139" font-family="Helvetica,sans-Serif" font-size="10.00">_magLift/__sinit_d_a</text>
<text text-anchor="middle" x="4634.5" y="-128" font-family="Helvetica,sans-Serif" font-size="10.00">_obj_magLift_cpp.s</text>
</a>
</g>
</g>
<!-- Node1&#45;&gt;Node32 -->
<g id="edge32" class="edge">
<title>Node1&#45;&gt;Node32</title>
<path fill="none" stroke="#63b8ff" d="M2398.77,-222.89C2757.76,-222.13 4306.12,-216.46 4568.19,-172.94"/>
<polygon fill="#63b8ff" stroke="#63b8ff" points="4568.66,-176.41 4577.87,-171.17 4567.4,-169.52 4568.66,-176.41"/>
</g>
<!-- Node2&#45;&gt;Node3 -->
<g id="edge2" class="edge">
<title>Node2&#45;&gt;Node3</title>
<path fill="none" stroke="#63b8ff" d="M78.45,-131.6C85.92,-120.77 96.21,-105.88 104.2,-94.31"/>
<polygon fill="#63b8ff" stroke="#63b8ff" points="106.84,-96.64 109.65,-86.42 101.08,-92.66 106.84,-96.64"/>
</g>
<!-- Node4 -->
<g id="node4" class="node">
<title>Node4</title>
<g id="a_node4"><a xlink:href="stddef_8h.html" target="_top" xlink:title=" ">
<polygon fill="white" stroke="#666666" points="184.5,-30 48.5,-30 48.5,0 184.5,0 184.5,-30"/>
<text text-anchor="start" x="56.5" y="-18" font-family="Helvetica,sans-Serif" font-size="10.00">MSL_C/MSL_Common/Src</text>
<text text-anchor="middle" x="116.5" y="-7" font-family="Helvetica,sans-Serif" font-size="10.00">/stddef.h</text>
</a>
</g>
</g>
<!-- Node3&#45;&gt;Node4 -->
<g id="edge3" class="edge">
<title>Node3&#45;&gt;Node4</title>
<path fill="none" stroke="#63b8ff" d="M116.5,-65.87C116.5,-59.4 116.5,-50.2 116.5,-41.45"/>
<polygon fill="#63b8ff" stroke="#63b8ff" points="120,-41.63 116.5,-31.63 113,-41.63 120,-41.63"/>
</g>
</g>
</svg>
