<?xml version="1.0" encoding="UTF-8" standalone="no"?>
<!DOCTYPE svg PUBLIC "-//W3C//DTD SVG 1.1//EN"
 "http://www.w3.org/Graphics/SVG/1.1/DTD/svg11.dtd">
<!-- Generated by graphviz version 7.0.5 (20221223.1930)
 -->
<!-- Title: rel/d/a/obj/d_a_obj_Y_taihou/d_a_obj_Y_taihou.cpp Pages: 1 -->
<!--zoomable 258 -->
<svg id="main" version="1.1" xmlns="http://www.w3.org/2000/svg" xmlns:xlink="http://www.w3.org/1999/xlink" xml:space="preserve" onload="init(evt)">
<style type="text/css"><![CDATA[
.edge:hover path { stroke: red; }
.edge:hover polygon { stroke: red; fill: red; }
]]></style>
<script type="text/javascript"><![CDATA[
var edges = document.getElementsByTagName('g');
if (edges && edges.length) {
  for (var i=0;i<edges.length;i++) {
    if (edges[i].id.substr(0,4)=='edge') {
      edges[i].setAttribute('class','edge');
    }
  }
}
]]></script>
        <defs>
                <circle id="rim" cx="0" cy="0" r="7"/>
                <circle id="rim2" cx="0" cy="0" r="3.5"/>
                <g id="zoomPlus">
                        <use xlink:href="#rim" fill="#404040">
                                <set attributeName="fill" to="#808080" begin="zoomplus.mouseover" end="zoomplus.mouseout"/>
                        </use>
                        <path d="M-4,0h8M0,-4v8" fill="none" stroke="white" stroke-width="1.5" pointer-events="none"/>
                </g>
                <g id="zoomMin">
                        <use xlink:href="#rim" fill="#404040">
                                <set attributeName="fill" to="#808080" begin="zoomminus.mouseover" end="zoomminus.mouseout"/>
                        </use>
                        <path d="M-4,0h8" fill="none" stroke="white" stroke-width="1.5" pointer-events="none"/>
                </g>
                <g id="dirArrow">
                        <path fill="none" stroke="white" stroke-width="1.5" d="M0,-3.0v7 M-2.5,-0.5L0,-3.0L2.5,-0.5"/>
                </g>
               <g id="resetDef">
                       <use xlink:href="#rim2" fill="#404040">
                               <set attributeName="fill" to="#808080" begin="reset.mouseover" end="reset.mouseout"/>
                       </use>
               </g>
        </defs>

<script type="text/javascript">
var viewWidth = 5947;
var viewHeight = 258;
var sectionId = 'dynsection-0';
</script>
<script xlink:href="svgpan.js"/>
<svg id="graph" class="graph">
<g id="viewport">
<title>rel/d/a/obj/d_a_obj_Y_taihou/d_a_obj_Y_taihou.cpp</title>
<!-- Node1 -->
<g id="node1" class="node">
<title>Node1</title>
<g id="a_node1"><a xlink:title=" ">
<polygon fill="#999999" stroke="#666666" points="2759,-250 2650,-250 2650,-209 2759,-209 2759,-250"/>
<text text-anchor="start" x="2658" y="-238" font-family="Helvetica,sans-Serif" font-size="10.00">rel/d/a/obj/d_a_obj</text>
<text text-anchor="start" x="2658" y="-227" font-family="Helvetica,sans-Serif" font-size="10.00">_Y_taihou/d_a_obj_Y</text>
<text text-anchor="middle" x="2704.5" y="-216" font-family="Helvetica,sans-Serif" font-size="10.00">_taihou.cpp</text>
</a>
</g>
</g>
<!-- Node2 -->
<g id="node2" class="node">
<title>Node2</title>
<g id="a_node2"><a xlink:href="d__a__obj__Y__taihou_8h.html" target="_top" xlink:title=" ">
<polygon fill="white" stroke="#666666" points="109,-167.5 0,-167.5 0,-126.5 109,-126.5 109,-167.5"/>
<text text-anchor="start" x="8" y="-155.5" font-family="Helvetica,sans-Serif" font-size="10.00">rel/d/a/obj/d_a_obj</text>
<text text-anchor="start" x="8" y="-144.5" font-family="Helvetica,sans-Serif" font-size="10.00">_Y_taihou/d_a_obj_Y</text>
<text text-anchor="middle" x="54.5" y="-133.5" font-family="Helvetica,sans-Serif" font-size="10.00">_taihou.h</text>
</a>
</g>
</g>
<!-- Node1&#45;&gt;Node2 -->
<g id="edge1" class="edge">
<title>Node1&#45;&gt;Node2</title>
<path fill="none" stroke="#63b8ff" d="M2649.72,-228.39C2299.41,-227.56 379.59,-220.81 123.5,-173 120.49,-172.44 117.44,-171.76 114.38,-171"/>
<polygon fill="#63b8ff" stroke="#63b8ff" points="115.36,-167.64 104.79,-168.3 113.47,-174.38 115.36,-167.64"/>
</g>
<!-- Node3 -->
<g id="node3" class="node">
<title>Node3</title>
<g id="a_node3"><a xlink:href="types_8h.html" target="_top" xlink:title=" ">
<polygon fill="white" stroke="#666666" points="136,-85 55,-85 55,-66 136,-66 136,-85"/>
<text text-anchor="middle" x="95.5" y="-73" font-family="Helvetica,sans-Serif" font-size="10.00">dolphin/types.h</text>
</a>
</g>
</g>
<!-- Node1&#45;&gt;Node3 -->
<g id="edge5" class="edge">
<title>Node1&#45;&gt;Node3</title>
<path fill="none" stroke="#63b8ff" d="M2649.65,-228.02C2284.14,-224.7 213.78,-204.54 157.5,-173 141.99,-164.31 117.95,-120.79 104.83,-95.26"/>
<polygon fill="#63b8ff" stroke="#63b8ff" points="108.1,-93.97 100.46,-86.63 101.85,-97.13 108.1,-93.97"/>
</g>
<!-- Node5 -->
<g id="node5" class="node">
<title>Node5</title>
<g id="a_node5"><a xlink:href="dol2asm_8h.html" target="_top" xlink:title=" ">
<polygon fill="white" stroke="#666666" points="227,-156.5 166,-156.5 166,-137.5 227,-137.5 227,-156.5"/>
<text text-anchor="middle" x="196.5" y="-144.5" font-family="Helvetica,sans-Serif" font-size="10.00">dol2asm.h</text>
</a>
</g>
</g>
<!-- Node1&#45;&gt;Node5 -->
<g id="edge4" class="edge">
<title>Node1&#45;&gt;Node5</title>
<path fill="none" stroke="#63b8ff" d="M2649.51,-228.09C2296.18,-225.35 355.9,-208.7 236.5,-173 229.56,-170.93 222.65,-167.3 216.57,-163.45"/>
<polygon fill="#63b8ff" stroke="#63b8ff" points="218.71,-160.68 208.5,-157.84 214.71,-166.42 218.71,-160.68"/>
</g>
<!-- Node6 -->
<g id="node6" class="node">
<title>Node6</title>
<g id="a_node6"><a xlink:title=" ">
<polygon fill="#e0e0e0" stroke="#999999" points="388,-167.5 245,-167.5 245,-126.5 388,-126.5 388,-167.5"/>
<text text-anchor="start" x="253" y="-155.5" font-family="Helvetica,sans-Serif" font-size="10.00">asm/rel/d/a/obj/d_a</text>
<text text-anchor="start" x="253" y="-144.5" font-family="Helvetica,sans-Serif" font-size="10.00">_obj_Y_taihou/d_a_obj</text>
<text text-anchor="middle" x="316.5" y="-133.5" font-family="Helvetica,sans-Serif" font-size="10.00">_Y_taihou/func_80B9FAEC.s</text>
</a>
</g>
</g>
<!-- Node1&#45;&gt;Node6 -->
<g id="edge6" class="edge">
<title>Node1&#45;&gt;Node6</title>
<path fill="none" stroke="#63b8ff" d="M2649.59,-228.08C2321.43,-225.47 625.91,-210.26 397.5,-173 393.49,-172.35 389.4,-171.54 385.29,-170.63"/>
<polygon fill="#63b8ff" stroke="#63b8ff" points="386.46,-167.31 375.91,-168.34 384.8,-174.11 386.46,-167.31"/>
</g>
<!-- Node7 -->
<g id="node7" class="node">
<title>Node7</title>
<g id="a_node7"><a xlink:title=" ">
<polygon fill="#e0e0e0" stroke="#999999" points="546.5,-167.5 406.5,-167.5 406.5,-126.5 546.5,-126.5 546.5,-167.5"/>
<text text-anchor="start" x="414.5" y="-155.5" font-family="Helvetica,sans-Serif" font-size="10.00">asm/rel/d/a/obj/d_a</text>
<text text-anchor="start" x="414.5" y="-144.5" font-family="Helvetica,sans-Serif" font-size="10.00">_obj_Y_taihou/d_a_obj</text>
<text text-anchor="middle" x="476.5" y="-133.5" font-family="Helvetica,sans-Serif" font-size="10.00">_Y_taihou/func_80B9FC40.s</text>
</a>
</g>
</g>
<!-- Node1&#45;&gt;Node7 -->
<g id="edge7" class="edge">
<title>Node1&#45;&gt;Node7</title>
<path fill="none" stroke="#63b8ff" d="M2649.59,-227.99C2335.03,-224.95 768.22,-208.12 556.5,-173 552.65,-172.36 548.73,-171.58 544.8,-170.7"/>
<polygon fill="#63b8ff" stroke="#63b8ff" points="545.73,-167.33 535.19,-168.33 544.06,-174.12 545.73,-167.33"/>
</g>
<!-- Node8 -->
<g id="node8" class="node">
<title>Node8</title>
<g id="a_node8"><a xlink:title=" ">
<polygon fill="#e0e0e0" stroke="#999999" points="702,-167.5 565,-167.5 565,-126.5 702,-126.5 702,-167.5"/>
<text text-anchor="start" x="573" y="-155.5" font-family="Helvetica,sans-Serif" font-size="10.00">asm/rel/d/a/obj/d_a</text>
<text text-anchor="start" x="573" y="-144.5" font-family="Helvetica,sans-Serif" font-size="10.00">_obj_Y_taihou/d_a_obj</text>
<text text-anchor="middle" x="633.5" y="-133.5" font-family="Helvetica,sans-Serif" font-size="10.00">_Y_taihou/__dt__4cXyzFv.s</text>
</a>
</g>
</g>
<!-- Node1&#45;&gt;Node8 -->
<g id="edge8" class="edge">
<title>Node1&#45;&gt;Node8</title>
<path fill="none" stroke="#63b8ff" d="M2649.68,-227.9C2349.05,-224.46 906.95,-206.35 711.5,-173 707.86,-172.38 704.15,-171.62 700.42,-170.77"/>
<polygon fill="#63b8ff" stroke="#63b8ff" points="701.29,-167.38 690.73,-168.33 699.57,-174.17 701.29,-167.38"/>
</g>
<!-- Node9 -->
<g id="node9" class="node">
<title>Node9</title>
<g id="a_node9"><a xlink:title=" ">
<polygon fill="#e0e0e0" stroke="#999999" points="883,-173 720,-173 720,-121 883,-121 883,-173"/>
<text text-anchor="start" x="728" y="-161" font-family="Helvetica,sans-Serif" font-size="10.00">asm/rel/d/a/obj/d_a</text>
<text text-anchor="start" x="728" y="-150" font-family="Helvetica,sans-Serif" font-size="10.00">_obj_Y_taihou/d_a_obj</text>
<text text-anchor="start" x="728" y="-139" font-family="Helvetica,sans-Serif" font-size="10.00">_Y_taihou/searchIronBallCallback</text>
<text text-anchor="middle" x="801.5" y="-128" font-family="Helvetica,sans-Serif" font-size="10.00">__FPvPv.s</text>
</a>
</g>
</g>
<!-- Node1&#45;&gt;Node9 -->
<g id="edge9" class="edge">
<title>Node1&#45;&gt;Node9</title>
<path fill="none" stroke="#63b8ff" d="M2649.73,-228.57C2388.56,-228.65 1267.32,-225.95 894.5,-173.08"/>
<polygon fill="#63b8ff" stroke="#63b8ff" points="895.05,-169.62 884.65,-171.64 894.04,-176.55 895.05,-169.62"/>
</g>
<!-- Node10 -->
<g id="node10" class="node">
<title>Node10</title>
<g id="a_node10"><a xlink:title=" ">
<polygon fill="#e0e0e0" stroke="#999999" points="1051.5,-173 901.5,-173 901.5,-121 1051.5,-121 1051.5,-173"/>
<text text-anchor="start" x="909.5" y="-161" font-family="Helvetica,sans-Serif" font-size="10.00">asm/rel/d/a/obj/d_a</text>
<text text-anchor="start" x="909.5" y="-150" font-family="Helvetica,sans-Serif" font-size="10.00">_obj_Y_taihou/d_a_obj</text>
<text text-anchor="start" x="909.5" y="-139" font-family="Helvetica,sans-Serif" font-size="10.00">_Y_taihou/create1st__14daObj</text>
<text text-anchor="middle" x="976.5" y="-128" font-family="Helvetica,sans-Serif" font-size="10.00">Ytaihou_cFv.s</text>
</a>
</g>
</g>
<!-- Node1&#45;&gt;Node10 -->
<g id="edge10" class="edge">
<title>Node1&#45;&gt;Node10</title>
<path fill="none" stroke="#63b8ff" d="M2649.91,-228.53C2404.32,-228.37 1399.64,-224.61 1063.05,-173.18"/>
<polygon fill="#63b8ff" stroke="#63b8ff" points="1063.76,-169.75 1053.34,-171.65 1062.67,-176.67 1063.76,-169.75"/>
</g>
<!-- Node11 -->
<g id="node11" class="node">
<title>Node11</title>
<g id="a_node11"><a xlink:title=" ">
<polygon fill="#e0e0e0" stroke="#999999" points="1265.5,-173 1069.5,-173 1069.5,-121 1265.5,-121 1265.5,-173"/>
<text text-anchor="start" x="1077.5" y="-161" font-family="Helvetica,sans-Serif" font-size="10.00">asm/rel/d/a/obj/d_a</text>
<text text-anchor="start" x="1077.5" y="-150" font-family="Helvetica,sans-Serif" font-size="10.00">_obj_Y_taihou/d_a_obj</text>
<text text-anchor="start" x="1077.5" y="-139" font-family="Helvetica,sans-Serif" font-size="10.00">_Y_taihou/setIronBall</text>
<text text-anchor="middle" x="1167.5" y="-128" font-family="Helvetica,sans-Serif" font-size="10.00">__14daObjYtaihou_cFP12daObjCarry_c.s</text>
</a>
</g>
</g>
<!-- Node1&#45;&gt;Node11 -->
<g id="edge11" class="edge">
<title>Node1&#45;&gt;Node11</title>
<path fill="none" stroke="#63b8ff" d="M2649.65,-227.75C2424.59,-224.48 1570.56,-209.94 1276.99,-173.03"/>
<polygon fill="#63b8ff" stroke="#63b8ff" points="1277.82,-169.61 1267.45,-171.79 1276.91,-176.55 1277.82,-169.61"/>
</g>
<!-- Node12 -->
<g id="node12" class="node">
<title>Node12</title>
<g id="a_node12"><a xlink:title=" ">
<polygon fill="#e0e0e0" stroke="#999999" points="1465,-173 1284,-173 1284,-121 1465,-121 1465,-173"/>
<text text-anchor="start" x="1292" y="-161" font-family="Helvetica,sans-Serif" font-size="10.00">asm/rel/d/a/obj/d_a</text>
<text text-anchor="start" x="1292" y="-150" font-family="Helvetica,sans-Serif" font-size="10.00">_obj_Y_taihou/d_a_obj</text>
<text text-anchor="start" x="1292" y="-139" font-family="Helvetica,sans-Serif" font-size="10.00">_Y_taihou/getEvent__14daObjYtaihou</text>
<text text-anchor="middle" x="1374.5" y="-128" font-family="Helvetica,sans-Serif" font-size="10.00">_cFUc.s</text>
</a>
</g>
</g>
<!-- Node1&#45;&gt;Node12 -->
<g id="edge12" class="edge">
<title>Node1&#45;&gt;Node12</title>
<path fill="none" stroke="#63b8ff" d="M2649.72,-227.48C2445.57,-223.48 1728.41,-207.35 1476.64,-173.12"/>
<polygon fill="#63b8ff" stroke="#63b8ff" points="1477.25,-169.68 1466.86,-171.75 1476.28,-176.61 1477.25,-169.68"/>
</g>
<!-- Node13 -->
<g id="node13" class="node">
<title>Node13</title>
<g id="a_node13"><a xlink:title=" ">
<polygon fill="#e0e0e0" stroke="#999999" points="1635.5,-173 1483.5,-173 1483.5,-121 1635.5,-121 1635.5,-173"/>
<text text-anchor="start" x="1491.5" y="-161" font-family="Helvetica,sans-Serif" font-size="10.00">asm/rel/d/a/obj/d_a</text>
<text text-anchor="start" x="1491.5" y="-150" font-family="Helvetica,sans-Serif" font-size="10.00">_obj_Y_taihou/d_a_obj</text>
<text text-anchor="start" x="1491.5" y="-139" font-family="Helvetica,sans-Serif" font-size="10.00">_Y_taihou/loadAngle__14daObj</text>
<text text-anchor="middle" x="1559.5" y="-128" font-family="Helvetica,sans-Serif" font-size="10.00">Ytaihou_cFv.s</text>
</a>
</g>
</g>
<!-- Node1&#45;&gt;Node13 -->
<g id="edge13" class="edge">
<title>Node1&#45;&gt;Node13</title>
<path fill="none" stroke="#63b8ff" d="M2649.7,-227.3C2464.71,-222.98 1863.32,-206.78 1646.96,-172.98"/>
<polygon fill="#63b8ff" stroke="#63b8ff" points="1647.65,-169.54 1637.21,-171.39 1646.52,-176.45 1647.65,-169.54"/>
</g>
<!-- Node14 -->
<g id="node14" class="node">
<title>Node14</title>
<g id="a_node14"><a xlink:title=" ">
<polygon fill="#e0e0e0" stroke="#999999" points="1809,-173 1654,-173 1654,-121 1809,-121 1809,-173"/>
<text text-anchor="start" x="1662" y="-161" font-family="Helvetica,sans-Serif" font-size="10.00">asm/rel/d/a/obj/d_a</text>
<text text-anchor="start" x="1662" y="-150" font-family="Helvetica,sans-Serif" font-size="10.00">_obj_Y_taihou/d_a_obj</text>
<text text-anchor="start" x="1662" y="-139" font-family="Helvetica,sans-Serif" font-size="10.00">_Y_taihou/saveAngle__14daObj</text>
<text text-anchor="middle" x="1731.5" y="-128" font-family="Helvetica,sans-Serif" font-size="10.00">Ytaihou_cFv.s</text>
</a>
</g>
</g>
<!-- Node1&#45;&gt;Node14 -->
<g id="edge14" class="edge">
<title>Node1&#45;&gt;Node14</title>
<path fill="none" stroke="#63b8ff" d="M2649.58,-229.18C2511.4,-230.02 2138.33,-226.83 1820.38,-173.13"/>
<polygon fill="#63b8ff" stroke="#63b8ff" points="1821.03,-169.69 1810.59,-171.46 1819.85,-176.59 1821.03,-169.69"/>
</g>
<!-- Node15 -->
<g id="node15" class="node">
<title>Node15</title>
<g id="a_node15"><a xlink:title=" ">
<polygon fill="#e0e0e0" stroke="#999999" points="1952,-173 1827,-173 1827,-121 1952,-121 1952,-173"/>
<text text-anchor="start" x="1835" y="-161" font-family="Helvetica,sans-Serif" font-size="10.00">asm/rel/d/a/obj/d_a</text>
<text text-anchor="start" x="1835" y="-150" font-family="Helvetica,sans-Serif" font-size="10.00">_obj_Y_taihou/d_a_obj</text>
<text text-anchor="start" x="1835" y="-139" font-family="Helvetica,sans-Serif" font-size="10.00">_Y_taihou/setNextAngle</text>
<text text-anchor="middle" x="1889.5" y="-128" font-family="Helvetica,sans-Serif" font-size="10.00">__14daObjYtaihou_cFv.s</text>
</a>
</g>
</g>
<!-- Node1&#45;&gt;Node15 -->
<g id="edge15" class="edge">
<title>Node1&#45;&gt;Node15</title>
<path fill="none" stroke="#63b8ff" d="M2649.76,-229.23C2527.57,-229.84 2223.59,-225.63 1963.63,-173.19"/>
<polygon fill="#63b8ff" stroke="#63b8ff" points="1964.44,-169.78 1953.94,-171.2 1963.03,-176.64 1964.44,-169.78"/>
</g>
<!-- Node16 -->
<g id="node16" class="node">
<title>Node16</title>
<g id="a_node16"><a xlink:title=" ">
<polygon fill="#e0e0e0" stroke="#999999" points="2171,-167.5 1970,-167.5 1970,-126.5 2171,-126.5 2171,-167.5"/>
<text text-anchor="start" x="1978" y="-155.5" font-family="Helvetica,sans-Serif" font-size="10.00">asm/rel/d/a/obj/d_a</text>
<text text-anchor="start" x="1978" y="-144.5" font-family="Helvetica,sans-Serif" font-size="10.00">_obj_Y_taihou/d_a_obj</text>
<text text-anchor="middle" x="2070.5" y="-133.5" font-family="Helvetica,sans-Serif" font-size="10.00">_Y_taihou/setMtx__14daObjYtaihou_cFv.s</text>
</a>
</g>
</g>
<!-- Node1&#45;&gt;Node16 -->
<g id="edge16" class="edge">
<title>Node1&#45;&gt;Node16</title>
<path fill="none" stroke="#63b8ff" d="M2649.52,-224.82C2553.77,-217.94 2350.39,-201.2 2180.5,-173 2175.28,-172.13 2169.94,-171.17 2164.56,-170.14"/>
<polygon fill="#63b8ff" stroke="#63b8ff" points="2165.45,-166.75 2154.97,-168.25 2164.1,-173.62 2165.45,-166.75"/>
</g>
<!-- Node17 -->
<g id="node17" class="node">
<title>Node17</title>
<g id="a_node17"><a xlink:title=" ">
<polygon fill="#e0e0e0" stroke="#999999" points="2314,-173 2189,-173 2189,-121 2314,-121 2314,-173"/>
<text text-anchor="start" x="2197" y="-161" font-family="Helvetica,sans-Serif" font-size="10.00">asm/rel/d/a/obj/d_a</text>
<text text-anchor="start" x="2197" y="-150" font-family="Helvetica,sans-Serif" font-size="10.00">_obj_Y_taihou/d_a_obj</text>
<text text-anchor="start" x="2197" y="-139" font-family="Helvetica,sans-Serif" font-size="10.00">_Y_taihou/rotateCheck</text>
<text text-anchor="middle" x="2251.5" y="-128" font-family="Helvetica,sans-Serif" font-size="10.00">__14daObjYtaihou_cFv.s</text>
</a>
</g>
</g>
<!-- Node1&#45;&gt;Node17 -->
<g id="edge17" class="edge">
<title>Node1&#45;&gt;Node17</title>
<path fill="none" stroke="#63b8ff" d="M2649.62,-223.8C2577.2,-216.88 2445.78,-201.82 2325.02,-173.16"/>
<polygon fill="#63b8ff" stroke="#63b8ff" points="2326.13,-169.83 2315.59,-170.88 2324.49,-176.63 2326.13,-169.83"/>
</g>
<!-- Node18 -->
<g id="node18" class="node">
<title>Node18</title>
<g id="a_node18"><a xlink:title=" ">
<polygon fill="#e0e0e0" stroke="#999999" points="2488.5,-173 2332.5,-173 2332.5,-121 2488.5,-121 2488.5,-173"/>
<text text-anchor="start" x="2340.5" y="-161" font-family="Helvetica,sans-Serif" font-size="10.00">asm/rel/d/a/obj/d_a</text>
<text text-anchor="start" x="2340.5" y="-150" font-family="Helvetica,sans-Serif" font-size="10.00">_obj_Y_taihou/d_a_obj</text>
<text text-anchor="start" x="2340.5" y="-139" font-family="Helvetica,sans-Serif" font-size="10.00">_Y_taihou/shotCheck__14daObj</text>
<text text-anchor="middle" x="2410.5" y="-128" font-family="Helvetica,sans-Serif" font-size="10.00">Ytaihou_cFv.s</text>
</a>
</g>
</g>
<!-- Node1&#45;&gt;Node18 -->
<g id="edge18" class="edge">
<title>Node1&#45;&gt;Node18</title>
<path fill="none" stroke="#63b8ff" d="M2649.51,-214.04C2610.29,-203.66 2556,-189.17 2499.65,-173.58"/>
<polygon fill="#63b8ff" stroke="#63b8ff" points="2500.77,-170.26 2490.19,-170.96 2498.9,-177 2500.77,-170.26"/>
</g>
<!-- Node19 -->
<g id="node19" class="node">
<title>Node19</title>
<g id="a_node19"><a xlink:title=" ">
<polygon fill="#e0e0e0" stroke="#999999" points="2626.5,-173 2506.5,-173 2506.5,-121 2626.5,-121 2626.5,-173"/>
<text text-anchor="start" x="2514.5" y="-161" font-family="Helvetica,sans-Serif" font-size="10.00">asm/rel/d/a/obj/d_a</text>
<text text-anchor="start" x="2514.5" y="-150" font-family="Helvetica,sans-Serif" font-size="10.00">_obj_Y_taihou/d_a_obj</text>
<text text-anchor="start" x="2514.5" y="-139" font-family="Helvetica,sans-Serif" font-size="10.00">_Y_taihou/eventStart_</text>
<text text-anchor="middle" x="2566.5" y="-128" font-family="Helvetica,sans-Serif" font-size="10.00">_14daObjYtaihou_cFv.s</text>
</a>
</g>
</g>
<!-- Node1&#45;&gt;Node19 -->
<g id="edge19" class="edge">
<title>Node1&#45;&gt;Node19</title>
<path fill="none" stroke="#63b8ff" d="M2670.39,-208.6C2655.18,-199.73 2636.89,-189.06 2619.93,-179.17"/>
<polygon fill="#63b8ff" stroke="#63b8ff" points="2621.84,-176.23 2611.44,-174.22 2618.32,-182.28 2621.84,-176.23"/>
</g>
<!-- Node20 -->
<g id="node20" class="node">
<title>Node20</title>
<g id="a_node20"><a xlink:title=" ">
<polygon fill="#e0e0e0" stroke="#999999" points="2764.5,-173 2644.5,-173 2644.5,-121 2764.5,-121 2764.5,-173"/>
<text text-anchor="start" x="2652.5" y="-161" font-family="Helvetica,sans-Serif" font-size="10.00">asm/rel/d/a/obj/d_a</text>
<text text-anchor="start" x="2652.5" y="-150" font-family="Helvetica,sans-Serif" font-size="10.00">_obj_Y_taihou/d_a_obj</text>
<text text-anchor="start" x="2652.5" y="-139" font-family="Helvetica,sans-Serif" font-size="10.00">_Y_taihou/CreateHeap_</text>
<text text-anchor="middle" x="2704.5" y="-128" font-family="Helvetica,sans-Serif" font-size="10.00">_14daObjYtaihou_cFv.s</text>
</a>
</g>
</g>
<!-- Node1&#45;&gt;Node20 -->
<g id="edge20" class="edge">
<title>Node1&#45;&gt;Node20</title>
<path fill="none" stroke="#63b8ff" d="M2704.5,-208.6C2704.5,-201.39 2704.5,-192.99 2704.5,-184.78"/>
<polygon fill="#63b8ff" stroke="#63b8ff" points="2708,-184.97 2704.5,-174.97 2701,-184.97 2708,-184.97"/>
</g>
<!-- Node21 -->
<g id="node21" class="node">
<title>Node21</title>
<g id="a_node21"><a xlink:title=" ">
<polygon fill="#e0e0e0" stroke="#999999" points="2982.5,-167.5 2782.5,-167.5 2782.5,-126.5 2982.5,-126.5 2982.5,-167.5"/>
<text text-anchor="start" x="2790.5" y="-155.5" font-family="Helvetica,sans-Serif" font-size="10.00">asm/rel/d/a/obj/d_a</text>
<text text-anchor="start" x="2790.5" y="-144.5" font-family="Helvetica,sans-Serif" font-size="10.00">_obj_Y_taihou/d_a_obj</text>
<text text-anchor="middle" x="2882.5" y="-133.5" font-family="Helvetica,sans-Serif" font-size="10.00">_Y_taihou/Create__14daObjYtaihou_cFv.s</text>
</a>
</g>
</g>
<!-- Node1&#45;&gt;Node21 -->
<g id="edge21" class="edge">
<title>Node1&#45;&gt;Node21</title>
<path fill="none" stroke="#63b8ff" d="M2748.5,-208.6C2772.57,-197.72 2802.6,-184.14 2828.12,-172.59"/>
<polygon fill="#63b8ff" stroke="#63b8ff" points="2829.34,-175.88 2837.01,-168.57 2826.46,-169.5 2829.34,-175.88"/>
</g>
<!-- Node22 -->
<g id="node22" class="node">
<title>Node22</title>
<g id="a_node22"><a xlink:title=" ">
<polygon fill="#e0e0e0" stroke="#999999" points="3178,-173 3001,-173 3001,-121 3178,-121 3178,-173"/>
<text text-anchor="start" x="3009" y="-161" font-family="Helvetica,sans-Serif" font-size="10.00">asm/rel/d/a/obj/d_a</text>
<text text-anchor="start" x="3009" y="-150" font-family="Helvetica,sans-Serif" font-size="10.00">_obj_Y_taihou/d_a_obj</text>
<text text-anchor="start" x="3009" y="-139" font-family="Helvetica,sans-Serif" font-size="10.00">_Y_taihou/Execute__14daObjYtaihou</text>
<text text-anchor="middle" x="3089.5" y="-128" font-family="Helvetica,sans-Serif" font-size="10.00">_cFPPA3_A4_f.s</text>
</a>
</g>
</g>
<!-- Node1&#45;&gt;Node22 -->
<g id="edge22" class="edge">
<title>Node1&#45;&gt;Node22</title>
<path fill="none" stroke="#63b8ff" d="M2759.45,-218.86C2814.99,-208.9 2903.52,-192.42 2989.59,-173.37"/>
<polygon fill="#63b8ff" stroke="#63b8ff" points="2990.14,-176.84 2999.14,-171.25 2988.62,-170 2990.14,-176.84"/>
</g>
<!-- Node23 -->
<g id="node23" class="node">
<title>Node23</title>
<g id="a_node23"><a xlink:title=" ">
<polygon fill="#e0e0e0" stroke="#999999" points="3390.5,-167.5 3196.5,-167.5 3196.5,-126.5 3390.5,-126.5 3390.5,-167.5"/>
<text text-anchor="start" x="3204.5" y="-155.5" font-family="Helvetica,sans-Serif" font-size="10.00">asm/rel/d/a/obj/d_a</text>
<text text-anchor="start" x="3204.5" y="-144.5" font-family="Helvetica,sans-Serif" font-size="10.00">_obj_Y_taihou/d_a_obj</text>
<text text-anchor="middle" x="3293.5" y="-133.5" font-family="Helvetica,sans-Serif" font-size="10.00">_Y_taihou/Draw__14daObjYtaihou_cFv.s</text>
</a>
</g>
</g>
<!-- Node1&#45;&gt;Node23 -->
<g id="edge23" class="edge">
<title>Node1&#45;&gt;Node23</title>
<path fill="none" stroke="#63b8ff" d="M2759.49,-224.29C2849.44,-216.94 3033.47,-199.92 3187.5,-173 3192.35,-172.15 3197.3,-171.22 3202.29,-170.23"/>
<polygon fill="#63b8ff" stroke="#63b8ff" points="3202.69,-173.72 3211.77,-168.27 3201.27,-166.86 3202.69,-173.72"/>
</g>
<!-- Node24 -->
<g id="node24" class="node">
<title>Node24</title>
<g id="a_node24"><a xlink:title=" ">
<polygon fill="#e0e0e0" stroke="#999999" points="3608.5,-167.5 3408.5,-167.5 3408.5,-126.5 3608.5,-126.5 3608.5,-167.5"/>
<text text-anchor="start" x="3416.5" y="-155.5" font-family="Helvetica,sans-Serif" font-size="10.00">asm/rel/d/a/obj/d_a</text>
<text text-anchor="start" x="3416.5" y="-144.5" font-family="Helvetica,sans-Serif" font-size="10.00">_obj_Y_taihou/d_a_obj</text>
<text text-anchor="middle" x="3508.5" y="-133.5" font-family="Helvetica,sans-Serif" font-size="10.00">_Y_taihou/Delete__14daObjYtaihou_cFv.s</text>
</a>
</g>
</g>
<!-- Node1&#45;&gt;Node24 -->
<g id="edge24" class="edge">
<title>Node1&#45;&gt;Node24</title>
<path fill="none" stroke="#63b8ff" d="M2759.33,-226.84C2877.13,-222.67 3162.92,-209.38 3399.5,-173 3405.05,-172.15 3410.75,-171.17 3416.47,-170.1"/>
<polygon fill="#63b8ff" stroke="#63b8ff" points="3416.87,-173.59 3426.02,-168.24 3415.53,-166.72 3416.87,-173.59"/>
</g>
<!-- Node25 -->
<g id="node25" class="node">
<title>Node25</title>
<g id="a_node25"><a xlink:title=" ">
<polygon fill="#e0e0e0" stroke="#999999" points="3800,-173 3627,-173 3627,-121 3800,-121 3800,-173"/>
<text text-anchor="start" x="3635" y="-161" font-family="Helvetica,sans-Serif" font-size="10.00">asm/rel/d/a/obj/d_a</text>
<text text-anchor="start" x="3635" y="-150" font-family="Helvetica,sans-Serif" font-size="10.00">_obj_Y_taihou/d_a_obj</text>
<text text-anchor="start" x="3635" y="-139" font-family="Helvetica,sans-Serif" font-size="10.00">_Y_taihou/daObjYtaihou</text>
<text text-anchor="middle" x="3713.5" y="-128" font-family="Helvetica,sans-Serif" font-size="10.00">_create1st__FP14daObjYtaihou_c.s</text>
</a>
</g>
</g>
<!-- Node1&#45;&gt;Node25 -->
<g id="edge25" class="edge">
<title>Node1&#45;&gt;Node25</title>
<path fill="none" stroke="#63b8ff" d="M2759.44,-228.86C2900.43,-228.99 3286.42,-224.37 3615.35,-173.19"/>
<polygon fill="#63b8ff" stroke="#63b8ff" points="3615.71,-176.68 3625.04,-171.67 3614.62,-169.77 3615.71,-176.68"/>
</g>
<!-- Node26 -->
<g id="node26" class="node">
<title>Node26</title>
<g id="a_node26"><a xlink:title=" ">
<polygon fill="#e0e0e0" stroke="#999999" points="3979,-167.5 3818,-167.5 3818,-126.5 3979,-126.5 3979,-167.5"/>
<text text-anchor="start" x="3826" y="-155.5" font-family="Helvetica,sans-Serif" font-size="10.00">asm/rel/d/a/obj/d_a</text>
<text text-anchor="start" x="3826" y="-144.5" font-family="Helvetica,sans-Serif" font-size="10.00">_obj_Y_taihou/d_a_obj</text>
<text text-anchor="middle" x="3898.5" y="-133.5" font-family="Helvetica,sans-Serif" font-size="10.00">_Y_taihou/__dt__8cM3dGCylFv.s</text>
</a>
</g>
</g>
<!-- Node1&#45;&gt;Node26 -->
<g id="edge26" class="edge">
<title>Node1&#45;&gt;Node26</title>
<path fill="none" stroke="#63b8ff" d="M2759.3,-227.37C2952.87,-223.12 3603.82,-206.62 3809.5,-173 3813.83,-172.29 3818.25,-171.45 3822.69,-170.51"/>
<polygon fill="#63b8ff" stroke="#63b8ff" points="3823.29,-173.96 3832.27,-168.33 3821.74,-167.14 3823.29,-173.96"/>
</g>
<!-- Node27 -->
<g id="node27" class="node">
<title>Node27</title>
<g id="a_node27"><a xlink:title=" ">
<polygon fill="#e0e0e0" stroke="#999999" points="4162,-167.5 3997,-167.5 3997,-126.5 4162,-126.5 4162,-167.5"/>
<text text-anchor="start" x="4005" y="-155.5" font-family="Helvetica,sans-Serif" font-size="10.00">asm/rel/d/a/obj/d_a</text>
<text text-anchor="start" x="4005" y="-144.5" font-family="Helvetica,sans-Serif" font-size="10.00">_obj_Y_taihou/d_a_obj</text>
<text text-anchor="middle" x="4079.5" y="-133.5" font-family="Helvetica,sans-Serif" font-size="10.00">_Y_taihou/__dt__8cM3dGAabFv.s</text>
</a>
</g>
</g>
<!-- Node1&#45;&gt;Node27 -->
<g id="edge27" class="edge">
<title>Node1&#45;&gt;Node27</title>
<path fill="none" stroke="#63b8ff" d="M2759.15,-227.77C2972.04,-224.69 3746.03,-211.05 3988.5,-173 3993.14,-172.27 3997.89,-171.39 4002.66,-170.41"/>
<polygon fill="#63b8ff" stroke="#63b8ff" points="4003.3,-173.85 4012.3,-168.26 4001.78,-167.01 4003.3,-173.85"/>
</g>
<!-- Node28 -->
<g id="node28" class="node">
<title>Node28</title>
<g id="a_node28"><a xlink:title=" ">
<polygon fill="#e0e0e0" stroke="#999999" points="4307,-173 4180,-173 4180,-121 4307,-121 4307,-173"/>
<text text-anchor="start" x="4188" y="-161" font-family="Helvetica,sans-Serif" font-size="10.00">asm/rel/d/a/obj/d_a</text>
<text text-anchor="start" x="4188" y="-150" font-family="Helvetica,sans-Serif" font-size="10.00">_obj_Y_taihou/d_a_obj</text>
<text text-anchor="start" x="4188" y="-139" font-family="Helvetica,sans-Serif" font-size="10.00">_Y_taihou/__dt__10dCcD</text>
<text text-anchor="middle" x="4243.5" y="-128" font-family="Helvetica,sans-Serif" font-size="10.00">_GSttsFv.s</text>
</a>
</g>
</g>
<!-- Node1&#45;&gt;Node28 -->
<g id="edge28" class="edge">
<title>Node1&#45;&gt;Node28</title>
<path fill="none" stroke="#63b8ff" d="M2759.36,-228.59C2988.46,-228.64 3870.22,-225.49 4168.56,-173.26"/>
<polygon fill="#63b8ff" stroke="#63b8ff" points="4169.08,-176.73 4178.29,-171.49 4167.82,-169.84 4169.08,-176.73"/>
</g>
<!-- Node29 -->
<g id="node29" class="node">
<title>Node29</title>
<g id="a_node29"><a xlink:title=" ">
<polygon fill="#e0e0e0" stroke="#999999" points="4523.5,-173 4325.5,-173 4325.5,-121 4523.5,-121 4523.5,-173"/>
<text text-anchor="start" x="4333.5" y="-161" font-family="Helvetica,sans-Serif" font-size="10.00">asm/rel/d/a/obj/d_a</text>
<text text-anchor="start" x="4333.5" y="-150" font-family="Helvetica,sans-Serif" font-size="10.00">_obj_Y_taihou/d_a_obj</text>
<text text-anchor="start" x="4333.5" y="-139" font-family="Helvetica,sans-Serif" font-size="10.00">_Y_taihou/daObjYtaihou</text>
<text text-anchor="middle" x="4424.5" y="-128" font-family="Helvetica,sans-Serif" font-size="10.00">_MoveBGDelete__FP14daObjYtaihou_c.s</text>
</a>
</g>
</g>
<!-- Node1&#45;&gt;Node29 -->
<g id="edge29" class="edge">
<title>Node1&#45;&gt;Node29</title>
<path fill="none" stroke="#63b8ff" d="M2759.19,-228.03C3001.82,-225.76 3983.17,-214.21 4314.15,-173.16"/>
<polygon fill="#63b8ff" stroke="#63b8ff" points="4314.2,-176.68 4323.68,-171.94 4313.31,-169.74 4314.2,-176.68"/>
</g>
<!-- Node30 -->
<g id="node30" class="node">
<title>Node30</title>
<g id="a_node30"><a xlink:title=" ">
<polygon fill="#e0e0e0" stroke="#999999" points="4747,-173 4542,-173 4542,-121 4747,-121 4747,-173"/>
<text text-anchor="start" x="4550" y="-161" font-family="Helvetica,sans-Serif" font-size="10.00">asm/rel/d/a/obj/d_a</text>
<text text-anchor="start" x="4550" y="-150" font-family="Helvetica,sans-Serif" font-size="10.00">_obj_Y_taihou/d_a_obj</text>
<text text-anchor="start" x="4550" y="-139" font-family="Helvetica,sans-Serif" font-size="10.00">_Y_taihou/daObjYtaihou</text>
<text text-anchor="middle" x="4644.5" y="-128" font-family="Helvetica,sans-Serif" font-size="10.00">_MoveBGExecute__FP14daObjYtaihou_c.s</text>
</a>
</g>
</g>
<!-- Node1&#45;&gt;Node30 -->
<g id="edge30" class="edge">
<title>Node1&#45;&gt;Node30</title>
<path fill="none" stroke="#63b8ff" d="M2759.26,-228.23C3021.75,-226.75 4153.54,-217.9 4530.59,-173.09"/>
<polygon fill="#63b8ff" stroke="#63b8ff" points="4530.79,-176.59 4540.29,-171.9 4529.94,-169.64 4530.79,-176.59"/>
</g>
<!-- Node31 -->
<g id="node31" class="node">
<title>Node31</title>
<g id="a_node31"><a xlink:title=" ">
<polygon fill="#e0e0e0" stroke="#999999" points="4958,-173 4765,-173 4765,-121 4958,-121 4958,-173"/>
<text text-anchor="start" x="4773" y="-161" font-family="Helvetica,sans-Serif" font-size="10.00">asm/rel/d/a/obj/d_a</text>
<text text-anchor="start" x="4773" y="-150" font-family="Helvetica,sans-Serif" font-size="10.00">_obj_Y_taihou/d_a_obj</text>
<text text-anchor="start" x="4773" y="-139" font-family="Helvetica,sans-Serif" font-size="10.00">_Y_taihou/daObjYtaihou</text>
<text text-anchor="middle" x="4861.5" y="-128" font-family="Helvetica,sans-Serif" font-size="10.00">_MoveBGDraw__FP14daObjYtaihou_c.s</text>
</a>
</g>
</g>
<!-- Node1&#45;&gt;Node31 -->
<g id="edge31" class="edge">
<title>Node1&#45;&gt;Node31</title>
<path fill="none" stroke="#63b8ff" d="M2759.25,-228.55C3041.02,-228.57 4330.52,-225.82 4753.32,-173.27"/>
<polygon fill="#63b8ff" stroke="#63b8ff" points="4753.69,-176.76 4763.16,-172.02 4752.8,-169.81 4753.69,-176.76"/>
</g>
<!-- Node32 -->
<g id="node32" class="node">
<title>Node32</title>
<g id="a_node32"><a xlink:title=" ">
<polygon fill="#e0e0e0" stroke="#999999" points="5103,-173 4976,-173 4976,-121 5103,-121 5103,-173"/>
<text text-anchor="start" x="4984" y="-161" font-family="Helvetica,sans-Serif" font-size="10.00">asm/rel/d/a/obj/d_a</text>
<text text-anchor="start" x="4984" y="-150" font-family="Helvetica,sans-Serif" font-size="10.00">_obj_Y_taihou/d_a_obj</text>
<text text-anchor="start" x="4984" y="-139" font-family="Helvetica,sans-Serif" font-size="10.00">_Y_taihou/__dt__10cCcD</text>
<text text-anchor="middle" x="5039.5" y="-128" font-family="Helvetica,sans-Serif" font-size="10.00">_GSttsFv.s</text>
</a>
</g>
</g>
<!-- Node1&#45;&gt;Node32 -->
<g id="edge32" class="edge">
<title>Node1&#45;&gt;Node32</title>
<path fill="none" stroke="#63b8ff" d="M2759.43,-228.17C3079.24,-226.11 4696.01,-213.82 4964.7,-173.1"/>
<polygon fill="#63b8ff" stroke="#63b8ff" points="4965,-176.6 4974.29,-171.52 4963.86,-169.7 4965,-176.6"/>
</g>
<!-- Node33 -->
<g id="node33" class="node">
<title>Node33</title>
<g id="a_node33"><a xlink:title=" ">
<polygon fill="#e0e0e0" stroke="#999999" points="5254,-173 5121,-173 5121,-121 5254,-121 5254,-173"/>
<text text-anchor="start" x="5129" y="-161" font-family="Helvetica,sans-Serif" font-size="10.00">asm/rel/d/a/obj/d_a</text>
<text text-anchor="start" x="5129" y="-150" font-family="Helvetica,sans-Serif" font-size="10.00">_obj_Y_taihou/d_a_obj</text>
<text text-anchor="start" x="5129" y="-139" font-family="Helvetica,sans-Serif" font-size="10.00">_Y_taihou/__dt__17dEvLib</text>
<text text-anchor="middle" x="5187.5" y="-128" font-family="Helvetica,sans-Serif" font-size="10.00">_callback_cFv.s</text>
</a>
</g>
</g>
<!-- Node1&#45;&gt;Node33 -->
<g id="edge33" class="edge">
<title>Node1&#45;&gt;Node33</title>
<path fill="none" stroke="#63b8ff" d="M2759.35,-228.22C3091.2,-226.37 4825.59,-214.86 5109.72,-173.12"/>
<polygon fill="#63b8ff" stroke="#63b8ff" points="5109.88,-176.64 5119.2,-171.6 5108.78,-169.73 5109.88,-176.64"/>
</g>
<!-- Node34 -->
<g id="node34" class="node">
<title>Node34</title>
<g id="a_node34"><a xlink:title=" ">
<polygon fill="#e0e0e0" stroke="#999999" points="5463,-167.5 5272,-167.5 5272,-126.5 5463,-126.5 5463,-167.5"/>
<text text-anchor="start" x="5280" y="-155.5" font-family="Helvetica,sans-Serif" font-size="10.00">asm/rel/d/a/obj/d_a</text>
<text text-anchor="start" x="5280" y="-144.5" font-family="Helvetica,sans-Serif" font-size="10.00">_obj_Y_taihou/d_a_obj</text>
<text text-anchor="middle" x="5367.5" y="-133.5" font-family="Helvetica,sans-Serif" font-size="10.00">_Y_taihou/__dt__14daObjYtaihou_cFv.s</text>
</a>
</g>
</g>
<!-- Node1&#45;&gt;Node34 -->
<g id="edge34" class="edge">
<title>Node1&#45;&gt;Node34</title>
<path fill="none" stroke="#63b8ff" d="M2759.32,-228.02C3107.77,-224.85 5007.48,-206.16 5263.5,-173 5269.49,-172.22 5275.63,-171.24 5281.79,-170.12"/>
<polygon fill="#63b8ff" stroke="#63b8ff" points="5282.24,-173.6 5291.39,-168.25 5280.9,-166.73 5282.24,-173.6"/>
</g>
<!-- Node35 -->
<g id="node35" class="node">
<title>Node35</title>
<g id="a_node35"><a xlink:title=" ">
<polygon fill="#e0e0e0" stroke="#999999" points="5621.5,-167.5 5481.5,-167.5 5481.5,-126.5 5621.5,-126.5 5621.5,-167.5"/>
<text text-anchor="start" x="5489.5" y="-155.5" font-family="Helvetica,sans-Serif" font-size="10.00">asm/rel/d/a/obj/d_a</text>
<text text-anchor="start" x="5489.5" y="-144.5" font-family="Helvetica,sans-Serif" font-size="10.00">_obj_Y_taihou/d_a_obj</text>
<text text-anchor="middle" x="5551.5" y="-133.5" font-family="Helvetica,sans-Serif" font-size="10.00">_Y_taihou/func_80BA1118.s</text>
</a>
</g>
</g>
<!-- Node1&#45;&gt;Node35 -->
<g id="edge35" class="edge">
<title>Node1&#45;&gt;Node35</title>
<path fill="none" stroke="#63b8ff" d="M2759.35,-228.34C3124.35,-227.18 5195.87,-218.57 5472.5,-173 5476.38,-172.36 5480.33,-171.57 5484.29,-170.68"/>
<polygon fill="#63b8ff" stroke="#63b8ff" points="5485.13,-174.08 5493.98,-168.26 5483.43,-167.29 5485.13,-174.08"/>
</g>
<!-- Node36 -->
<g id="node36" class="node">
<title>Node36</title>
<g id="a_node36"><a xlink:title=" ">
<polygon fill="#e0e0e0" stroke="#999999" points="5779.5,-167.5 5639.5,-167.5 5639.5,-126.5 5779.5,-126.5 5779.5,-167.5"/>
<text text-anchor="start" x="5647.5" y="-155.5" font-family="Helvetica,sans-Serif" font-size="10.00">asm/rel/d/a/obj/d_a</text>
<text text-anchor="start" x="5647.5" y="-144.5" font-family="Helvetica,sans-Serif" font-size="10.00">_obj_Y_taihou/d_a_obj</text>
<text text-anchor="middle" x="5709.5" y="-133.5" font-family="Helvetica,sans-Serif" font-size="10.00">_Y_taihou/func_80BA1134.s</text>
</a>
</g>
</g>
<!-- Node1&#45;&gt;Node36 -->
<g id="edge36" class="edge">
<title>Node1&#45;&gt;Node36</title>
<path fill="none" stroke="#63b8ff" d="M2759.42,-228.41C3136.56,-227.64 5337.28,-221.14 5630.5,-173 5634.38,-172.36 5638.33,-171.58 5642.29,-170.68"/>
<polygon fill="#63b8ff" stroke="#63b8ff" points="5643.12,-174.08 5651.98,-168.27 5641.43,-167.29 5643.12,-174.08"/>
</g>
<!-- Node37 -->
<g id="node37" class="node">
<title>Node37</title>
<g id="a_node37"><a xlink:title=" ">
<polygon fill="#e0e0e0" stroke="#999999" points="5939,-167.5 5798,-167.5 5798,-126.5 5939,-126.5 5939,-167.5"/>
<text text-anchor="start" x="5806" y="-155.5" font-family="Helvetica,sans-Serif" font-size="10.00">asm/rel/d/a/obj/d_a</text>
<text text-anchor="start" x="5806" y="-144.5" font-family="Helvetica,sans-Serif" font-size="10.00">_obj_Y_taihou/d_a_obj</text>
<text text-anchor="middle" x="5868.5" y="-133.5" font-family="Helvetica,sans-Serif" font-size="10.00">_Y_taihou/func_80BA113C.s</text>
</a>
</g>
</g>
<!-- Node1&#45;&gt;Node37 -->
<g id="edge37" class="edge">
<title>Node1&#45;&gt;Node37</title>
<path fill="none" stroke="#63b8ff" d="M2759.24,-228.45C3147.47,-228 5478.51,-223.17 5788.5,-173 5792.54,-172.35 5796.67,-171.53 5800.8,-170.6"/>
<polygon fill="#63b8ff" stroke="#63b8ff" points="5801.39,-174.06 5810.26,-168.27 5799.71,-167.27 5801.39,-174.06"/>
</g>
<!-- Node2&#45;&gt;Node3 -->
<g id="edge2" class="edge">
<title>Node2&#45;&gt;Node3</title>
<path fill="none" stroke="#63b8ff" d="M66.14,-126.27C71.92,-116.47 78.86,-104.7 84.55,-95.07"/>
<polygon fill="#63b8ff" stroke="#63b8ff" points="87.46,-97.01 89.53,-86.62 81.43,-93.46 87.46,-97.01"/>
</g>
<!-- Node4 -->
<g id="node4" class="node">
<title>Node4</title>
<g id="a_node4"><a xlink:href="stddef_8h.html" target="_top" xlink:title=" ">
<polygon fill="white" stroke="#666666" points="163.5,-30 27.5,-30 27.5,0 163.5,0 163.5,-30"/>
<text text-anchor="start" x="35.5" y="-18" font-family="Helvetica,sans-Serif" font-size="10.00">MSL_C/MSL_Common/Src</text>
<text text-anchor="middle" x="95.5" y="-7" font-family="Helvetica,sans-Serif" font-size="10.00">/stddef.h</text>
</a>
</g>
</g>
<!-- Node3&#45;&gt;Node4 -->
<g id="edge3" class="edge">
<title>Node3&#45;&gt;Node4</title>
<path fill="none" stroke="#63b8ff" d="M95.5,-65.87C95.5,-59.4 95.5,-50.2 95.5,-41.45"/>
<polygon fill="#63b8ff" stroke="#63b8ff" points="99,-41.63 95.5,-31.63 92,-41.63 99,-41.63"/>
</g>
</g>
</svg>
        <g id="navigator" transform="translate(0 0)" fill="#404254">
                <rect fill="#f2f5e9" fill-opacity="0.5" stroke="#606060" stroke-width=".5" x="0" y="0" width="60" height="60"/>
                <use id="zoomplus" xlink:href="#zoomPlus" x="17" y="9" onmousedown="handleZoom(evt,'in')"/>
                <use id="zoomminus" xlink:href="#zoomMin" x="42" y="9" onmousedown="handleZoom(evt,'out')"/>
                <use id="reset" xlink:href="#resetDef" x="30" y="36" onmousedown="handleReset()"/>
                <g id="arrowUp" xlink:href="#dirArrow" transform="translate(30 24)" onmousedown="handlePan(0,-1)">
                  <use xlink:href="#rim" fill="#404040">
                        <set attributeName="fill" to="#808080" begin="arrowUp.mouseover" end="arrowUp.mouseout"/>
                  </use>
                  <path fill="none" stroke="white" stroke-width="1.5" d="M0,-3.0v7 M-2.5,-0.5L0,-3.0L2.5,-0.5"/>
                </g>
                <g id="arrowRight" xlink:href="#dirArrow" transform="rotate(90) translate(36 -43)" onmousedown="handlePan(1,0)">
                  <use xlink:href="#rim" fill="#404040">
                        <set attributeName="fill" to="#808080" begin="arrowRight.mouseover" end="arrowRight.mouseout"/>
                  </use>
                  <path fill="none" stroke="white" stroke-width="1.5" d="M0,-3.0v7 M-2.5,-0.5L0,-3.0L2.5,-0.5"/>
                </g>
                <g id="arrowDown" xlink:href="#dirArrow" transform="rotate(180) translate(-30 -48)" onmousedown="handlePan(0,1)">
                  <use xlink:href="#rim" fill="#404040">
                        <set attributeName="fill" to="#808080" begin="arrowDown.mouseover" end="arrowDown.mouseout"/>
                  </use>
                  <path fill="none" stroke="white" stroke-width="1.5" d="M0,-3.0v7 M-2.5,-0.5L0,-3.0L2.5,-0.5"/>
                </g>
                <g id="arrowLeft" xlink:href="#dirArrow" transform="rotate(270) translate(-36 17)" onmousedown="handlePan(-1,0)">
                  <use xlink:href="#rim" fill="#404040">
                        <set attributeName="fill" to="#808080" begin="arrowLeft.mouseover" end="arrowLeft.mouseout"/>
                  </use>
                  <path fill="none" stroke="white" stroke-width="1.5" d="M0,-3.0v7 M-2.5,-0.5L0,-3.0L2.5,-0.5"/>
                </g>
        </g>
        <svg viewBox="0 0 15 15" width="100%" height="30px" preserveAspectRatio="xMaxYMin meet">
         <g id="arrow_out" transform="scale(0.3 0.3)">
          <a xlink:href="d__a__obj__Y__taihou_8cpp__incl_org.svg" target="_base">
           <rect id="button" ry="5" rx="5" y="6" x="6" height="38" width="38"
                fill="#f2f5e9" fill-opacity="0.5" stroke="#606060" stroke-width="1.0"/>
           <path id="arrow"
             d="M 11.500037,31.436501 C 11.940474,20.09759 22.043105,11.32322 32.158766,21.979434 L 37.068811,17.246167 C 37.068811,17.246167 37.088388,32 37.088388,32 L 22.160133,31.978069 C 22.160133,31.978069 26.997745,27.140456 26.997745,27.140456 C 18.528582,18.264221 13.291696,25.230495 11.500037,31.436501 z"
             style="fill:#404040;"/>
          </a>
         </g>
        </svg>
</svg>
