<?xml version="1.0" encoding="UTF-8" standalone="no"?>
<!DOCTYPE svg PUBLIC "-//W3C//DTD SVG 1.1//EN"
 "http://www.w3.org/Graphics/SVG/1.1/DTD/svg11.dtd">
<!-- Generated by graphviz version 7.0.5 (20221223.1930)
 -->
<!-- Title: rel/d/a/tag/d_a_tag_msg/d_a_tag_msg.cpp Pages: 1 -->
<!--zoomable 247 -->
<svg id="main" version="1.1" xmlns="http://www.w3.org/2000/svg" xmlns:xlink="http://www.w3.org/1999/xlink" xml:space="preserve" onload="init(evt)">
<style type="text/css"><![CDATA[
.edge:hover path { stroke: red; }
.edge:hover polygon { stroke: red; fill: red; }
]]></style>
<script type="text/javascript"><![CDATA[
var edges = document.getElementsByTagName('g');
if (edges && edges.length) {
  for (var i=0;i<edges.length;i++) {
    if (edges[i].id.substr(0,4)=='edge') {
      edges[i].setAttribute('class','edge');
    }
  }
}
]]></script>
        <defs>
                <circle id="rim" cx="0" cy="0" r="7"/>
                <circle id="rim2" cx="0" cy="0" r="3.5"/>
                <g id="zoomPlus">
                        <use xlink:href="#rim" fill="#404040">
                                <set attributeName="fill" to="#808080" begin="zoomplus.mouseover" end="zoomplus.mouseout"/>
                        </use>
                        <path d="M-4,0h8M0,-4v8" fill="none" stroke="white" stroke-width="1.5" pointer-events="none"/>
                </g>
                <g id="zoomMin">
                        <use xlink:href="#rim" fill="#404040">
                                <set attributeName="fill" to="#808080" begin="zoomminus.mouseover" end="zoomminus.mouseout"/>
                        </use>
                        <path d="M-4,0h8" fill="none" stroke="white" stroke-width="1.5" pointer-events="none"/>
                </g>
                <g id="dirArrow">
                        <path fill="none" stroke="white" stroke-width="1.5" d="M0,-3.0v7 M-2.5,-0.5L0,-3.0L2.5,-0.5"/>
                </g>
               <g id="resetDef">
                       <use xlink:href="#rim2" fill="#404040">
                               <set attributeName="fill" to="#808080" begin="reset.mouseover" end="reset.mouseout"/>
                       </use>
               </g>
        </defs>

<script type="text/javascript">
var viewWidth = 2764;
var viewHeight = 247;
var sectionId = 'dynsection-0';
</script>
<script xlink:href="svgpan.js"/>
<svg id="graph" class="graph">
<g id="viewport">
<title>rel/d/a/tag/d_a_tag_msg/d_a_tag_msg.cpp</title>
<!-- Node1 -->
<g id="node1" class="node">
<title>Node1</title>
<g id="a_node1"><a xlink:title=" ">
<polygon fill="#999999" stroke="#666666" points="1313,-239 1193,-239 1193,-209 1313,-209 1313,-239"/>
<text text-anchor="start" x="1201" y="-227" font-family="Helvetica,sans-Serif" font-size="10.00">rel/d/a/tag/d_a_tag</text>
<text text-anchor="middle" x="1253" y="-216" font-family="Helvetica,sans-Serif" font-size="10.00">_msg/d_a_tag_msg.cpp</text>
</a>
</g>
</g>
<!-- Node2 -->
<g id="node2" class="node">
<title>Node2</title>
<g id="a_node2"><a xlink:href="d__a__tag__msg_8h.html" target="_top" xlink:title=" ">
<polygon fill="white" stroke="#666666" points="110,-162 0,-162 0,-132 110,-132 110,-162"/>
<text text-anchor="start" x="8" y="-150" font-family="Helvetica,sans-Serif" font-size="10.00">rel/d/a/tag/d_a_tag</text>
<text text-anchor="middle" x="55" y="-139" font-family="Helvetica,sans-Serif" font-size="10.00">_msg/d_a_tag_msg.h</text>
</a>
</g>
</g>
<!-- Node1&#45;&gt;Node2 -->
<g id="edge1" class="edge">
<title>Node1&#45;&gt;Node2</title>
<path fill="none" stroke="#63b8ff" d="M1192.74,-222.73C989.64,-221.45 331.36,-214.16 124,-173 115.84,-171.38 107.35,-168.96 99.23,-166.25"/>
<polygon fill="#63b8ff" stroke="#63b8ff" points="100.48,-162.98 89.89,-162.94 98.14,-169.58 100.48,-162.98"/>
</g>
<!-- Node3 -->
<g id="node3" class="node">
<title>Node3</title>
<g id="a_node3"><a xlink:href="types_8h.html" target="_top" xlink:title=" ">
<polygon fill="white" stroke="#666666" points="136.5,-85 55.5,-85 55.5,-66 136.5,-66 136.5,-85"/>
<text text-anchor="middle" x="96" y="-73" font-family="Helvetica,sans-Serif" font-size="10.00">dolphin/types.h</text>
</a>
</g>
</g>
<!-- Node1&#45;&gt;Node3 -->
<g id="edge5" class="edge">
<title>Node1&#45;&gt;Node3</title>
<path fill="none" stroke="#63b8ff" d="M1192.61,-223.45C976.22,-224.63 247.71,-224.69 158,-173 142.59,-164.12 118.51,-120.68 105.36,-95.21"/>
<polygon fill="#63b8ff" stroke="#63b8ff" points="108.63,-93.93 100.98,-86.6 102.39,-97.1 108.63,-93.93"/>
</g>
<!-- Node5 -->
<g id="node5" class="node">
<title>Node5</title>
<g id="a_node5"><a xlink:href="dol2asm_8h.html" target="_top" xlink:title=" ">
<polygon fill="white" stroke="#666666" points="227.5,-156.5 166.5,-156.5 166.5,-137.5 227.5,-137.5 227.5,-156.5"/>
<text text-anchor="middle" x="197" y="-144.5" font-family="Helvetica,sans-Serif" font-size="10.00">dol2asm.h</text>
</a>
</g>
</g>
<!-- Node1&#45;&gt;Node5 -->
<g id="edge4" class="edge">
<title>Node1&#45;&gt;Node5</title>
<path fill="none" stroke="#63b8ff" d="M1192.65,-221.8C987.98,-217.49 327.94,-201.52 237,-173 230.09,-170.83 223.18,-167.18 217.1,-163.33"/>
<polygon fill="#63b8ff" stroke="#63b8ff" points="219.25,-160.56 209.03,-157.74 215.26,-166.31 219.25,-160.56"/>
</g>
<!-- Node6 -->
<g id="node6" class="node">
<title>Node6</title>
<g id="a_node6"><a xlink:title=" ">
<polygon fill="#e0e0e0" stroke="#999999" points="366.5,-173 245.5,-173 245.5,-121 366.5,-121 366.5,-173"/>
<text text-anchor="start" x="253.5" y="-161" font-family="Helvetica,sans-Serif" font-size="10.00">asm/rel/d/a/tag/d_a</text>
<text text-anchor="start" x="253.5" y="-150" font-family="Helvetica,sans-Serif" font-size="10.00">_tag_msg/d_a_tag_msg</text>
<text text-anchor="start" x="253.5" y="-139" font-family="Helvetica,sans-Serif" font-size="10.00">/createHeapCallBack_</text>
<text text-anchor="middle" x="306" y="-128" font-family="Helvetica,sans-Serif" font-size="10.00">_FP10fopAc_ac_c.s</text>
</a>
</g>
</g>
<!-- Node1&#45;&gt;Node6 -->
<g id="edge6" class="edge">
<title>Node1&#45;&gt;Node6</title>
<path fill="none" stroke="#63b8ff" d="M1192.51,-221.8C1024.49,-218.11 553.49,-205.32 377.92,-173.02"/>
<polygon fill="#63b8ff" stroke="#63b8ff" points="378.76,-169.62 368.28,-171.15 377.43,-176.49 378.76,-169.62"/>
</g>
<!-- Node7 -->
<g id="node7" class="node">
<title>Node7</title>
<g id="a_node7"><a xlink:title=" ">
<polygon fill="#e0e0e0" stroke="#999999" points="525,-167.5 385,-167.5 385,-126.5 525,-126.5 525,-167.5"/>
<text text-anchor="start" x="393" y="-155.5" font-family="Helvetica,sans-Serif" font-size="10.00">asm/rel/d/a/tag/d_a</text>
<text text-anchor="start" x="393" y="-144.5" font-family="Helvetica,sans-Serif" font-size="10.00">_tag_msg/d_a_tag_msg</text>
<text text-anchor="middle" x="455" y="-133.5" font-family="Helvetica,sans-Serif" font-size="10.00">/__dt__11daTag_Msg_cFv.s</text>
</a>
</g>
</g>
<!-- Node1&#45;&gt;Node7 -->
<g id="edge7" class="edge">
<title>Node1&#45;&gt;Node7</title>
<path fill="none" stroke="#63b8ff" d="M1192.73,-223.6C1068.4,-223.79 774.93,-218.83 534,-173 530.47,-172.33 526.87,-171.55 523.26,-170.69"/>
<polygon fill="#63b8ff" stroke="#63b8ff" points="524.43,-167.38 513.88,-168.28 522.69,-174.16 524.43,-167.38"/>
</g>
<!-- Node8 -->
<g id="node8" class="node">
<title>Node8</title>
<g id="a_node8"><a xlink:title=" ">
<polygon fill="#e0e0e0" stroke="#999999" points="691,-167.5 543,-167.5 543,-126.5 691,-126.5 691,-167.5"/>
<text text-anchor="start" x="551" y="-155.5" font-family="Helvetica,sans-Serif" font-size="10.00">asm/rel/d/a/tag/d_a</text>
<text text-anchor="start" x="551" y="-144.5" font-family="Helvetica,sans-Serif" font-size="10.00">_tag_msg/d_a_tag_msg</text>
<text text-anchor="middle" x="617" y="-133.5" font-family="Helvetica,sans-Serif" font-size="10.00">/create__11daTag_Msg_cFv.s</text>
</a>
</g>
</g>
<!-- Node1&#45;&gt;Node8 -->
<g id="edge8" class="edge">
<title>Node1&#45;&gt;Node8</title>
<path fill="none" stroke="#63b8ff" d="M1192.83,-221.46C1090.8,-217.98 877.71,-206.95 701,-173 697.41,-172.31 693.76,-171.53 690.09,-170.68"/>
<polygon fill="#63b8ff" stroke="#63b8ff" points="691.06,-167.32 680.51,-168.33 689.39,-174.12 691.06,-167.32"/>
</g>
<!-- Node9 -->
<g id="node9" class="node">
<title>Node9</title>
<g id="a_node9"><a xlink:title=" ">
<polygon fill="#e0e0e0" stroke="#999999" points="830.5,-173 709.5,-173 709.5,-121 830.5,-121 830.5,-173"/>
<text text-anchor="start" x="717.5" y="-161" font-family="Helvetica,sans-Serif" font-size="10.00">asm/rel/d/a/tag/d_a</text>
<text text-anchor="start" x="717.5" y="-150" font-family="Helvetica,sans-Serif" font-size="10.00">_tag_msg/d_a_tag_msg</text>
<text text-anchor="start" x="717.5" y="-139" font-family="Helvetica,sans-Serif" font-size="10.00">/createHeap__11daTag</text>
<text text-anchor="middle" x="770" y="-128" font-family="Helvetica,sans-Serif" font-size="10.00">_Msg_cFv.s</text>
</a>
</g>
</g>
<!-- Node1&#45;&gt;Node9 -->
<g id="edge9" class="edge">
<title>Node1&#45;&gt;Node9</title>
<path fill="none" stroke="#63b8ff" d="M1192.77,-219.91C1113.9,-214.95 971.43,-202.8 841.75,-173.17"/>
<polygon fill="#63b8ff" stroke="#63b8ff" points="842.85,-169.83 832.32,-170.97 841.26,-176.65 842.85,-169.83"/>
</g>
<!-- Node10 -->
<g id="node10" class="node">
<title>Node10</title>
<g id="a_node10"><a xlink:title=" ">
<polygon fill="#e0e0e0" stroke="#999999" points="1001,-167.5 849,-167.5 849,-126.5 1001,-126.5 1001,-167.5"/>
<text text-anchor="start" x="857" y="-155.5" font-family="Helvetica,sans-Serif" font-size="10.00">asm/rel/d/a/tag/d_a</text>
<text text-anchor="start" x="857" y="-144.5" font-family="Helvetica,sans-Serif" font-size="10.00">_tag_msg/d_a_tag_msg</text>
<text text-anchor="middle" x="925" y="-133.5" font-family="Helvetica,sans-Serif" font-size="10.00">/destroy__11daTag_Msg_cFv.s</text>
</a>
</g>
</g>
<!-- Node1&#45;&gt;Node10 -->
<g id="edge10" class="edge">
<title>Node1&#45;&gt;Node10</title>
<path fill="none" stroke="#63b8ff" d="M1192.53,-211.88C1143.4,-202.52 1072.42,-188.25 1011,-173 1008.23,-172.31 1005.41,-171.59 1002.57,-170.85"/>
<polygon fill="#63b8ff" stroke="#63b8ff" points="1003.55,-167.49 992.99,-168.29 1001.75,-174.26 1003.55,-167.49"/>
</g>
<!-- Node11 -->
<g id="node11" class="node">
<title>Node11</title>
<g id="a_node11"><a xlink:title=" ">
<polygon fill="#e0e0e0" stroke="#999999" points="1174.5,-167.5 1019.5,-167.5 1019.5,-126.5 1174.5,-126.5 1174.5,-167.5"/>
<text text-anchor="start" x="1027.5" y="-155.5" font-family="Helvetica,sans-Serif" font-size="10.00">asm/rel/d/a/tag/d_a</text>
<text text-anchor="start" x="1027.5" y="-144.5" font-family="Helvetica,sans-Serif" font-size="10.00">_tag_msg/d_a_tag_msg</text>
<text text-anchor="middle" x="1097" y="-133.5" font-family="Helvetica,sans-Serif" font-size="10.00">/execute__11daTag_Msg_cFv.s</text>
</a>
</g>
</g>
<!-- Node1&#45;&gt;Node11 -->
<g id="edge11" class="edge">
<title>Node1&#45;&gt;Node11</title>
<path fill="none" stroke="#63b8ff" d="M1222.92,-208.54C1201.93,-198.45 1173.37,-184.72 1148.76,-172.88"/>
<polygon fill="#63b8ff" stroke="#63b8ff" points="1150.38,-169.78 1139.85,-168.6 1147.35,-176.09 1150.38,-169.78"/>
</g>
<!-- Node12 -->
<g id="node12" class="node">
<title>Node12</title>
<g id="a_node12"><a xlink:title=" ">
<polygon fill="#e0e0e0" stroke="#999999" points="1313.5,-173 1192.5,-173 1192.5,-121 1313.5,-121 1313.5,-173"/>
<text text-anchor="start" x="1200.5" y="-161" font-family="Helvetica,sans-Serif" font-size="10.00">asm/rel/d/a/tag/d_a</text>
<text text-anchor="start" x="1200.5" y="-150" font-family="Helvetica,sans-Serif" font-size="10.00">_tag_msg/d_a_tag_msg</text>
<text text-anchor="start" x="1200.5" y="-139" font-family="Helvetica,sans-Serif" font-size="10.00">/rangeCheck__11daTag</text>
<text text-anchor="middle" x="1253" y="-128" font-family="Helvetica,sans-Serif" font-size="10.00">_Msg_cFv.s</text>
</a>
</g>
</g>
<!-- Node1&#45;&gt;Node12 -->
<g id="edge12" class="edge">
<title>Node1&#45;&gt;Node12</title>
<path fill="none" stroke="#63b8ff" d="M1253,-208.54C1253,-201.69 1253,-193.17 1253,-184.7"/>
<polygon fill="#63b8ff" stroke="#63b8ff" points="1256.5,-184.87 1253,-174.87 1249.5,-184.87 1256.5,-184.87"/>
</g>
<!-- Node13 -->
<g id="node13" class="node">
<title>Node13</title>
<g id="a_node13"><a xlink:title=" ">
<polygon fill="#e0e0e0" stroke="#999999" points="1452.5,-173 1331.5,-173 1331.5,-121 1452.5,-121 1452.5,-173"/>
<text text-anchor="start" x="1339.5" y="-161" font-family="Helvetica,sans-Serif" font-size="10.00">asm/rel/d/a/tag/d_a</text>
<text text-anchor="start" x="1339.5" y="-150" font-family="Helvetica,sans-Serif" font-size="10.00">_tag_msg/d_a_tag_msg</text>
<text text-anchor="start" x="1339.5" y="-139" font-family="Helvetica,sans-Serif" font-size="10.00">/otherCheck__11daTag</text>
<text text-anchor="middle" x="1392" y="-128" font-family="Helvetica,sans-Serif" font-size="10.00">_Msg_cFv.s</text>
</a>
</g>
</g>
<!-- Node1&#45;&gt;Node13 -->
<g id="edge13" class="edge">
<title>Node1&#45;&gt;Node13</title>
<path fill="none" stroke="#63b8ff" d="M1279.8,-208.54C1295.45,-200.1 1315.81,-189.11 1334.89,-178.82"/>
<polygon fill="#63b8ff" stroke="#63b8ff" points="1336.54,-181.9 1343.68,-174.07 1333.22,-175.74 1336.54,-181.9"/>
</g>
<!-- Node14 -->
<g id="node14" class="node">
<title>Node14</title>
<g id="a_node14"><a xlink:title=" ">
<polygon fill="#e0e0e0" stroke="#999999" points="1595.5,-173 1470.5,-173 1470.5,-121 1595.5,-121 1595.5,-173"/>
<text text-anchor="start" x="1478.5" y="-161" font-family="Helvetica,sans-Serif" font-size="10.00">asm/rel/d/a/tag/d_a</text>
<text text-anchor="start" x="1478.5" y="-150" font-family="Helvetica,sans-Serif" font-size="10.00">_tag_msg/d_a_tag_msg</text>
<text text-anchor="start" x="1478.5" y="-139" font-family="Helvetica,sans-Serif" font-size="10.00">/getResName__11daTag</text>
<text text-anchor="middle" x="1533" y="-128" font-family="Helvetica,sans-Serif" font-size="10.00">_Msg_cFv.s</text>
</a>
</g>
</g>
<!-- Node1&#45;&gt;Node14 -->
<g id="edge14" class="edge">
<title>Node1&#45;&gt;Node14</title>
<path fill="none" stroke="#63b8ff" d="M1313.35,-210.3C1352.7,-201.63 1405.36,-189.27 1459.22,-173.72"/>
<polygon fill="#63b8ff" stroke="#63b8ff" points="1459.94,-177.15 1468.56,-170.99 1457.98,-170.43 1459.94,-177.15"/>
</g>
<!-- Node15 -->
<g id="node15" class="node">
<title>Node15</title>
<g id="a_node15"><a xlink:title=" ">
<polygon fill="#e0e0e0" stroke="#999999" points="1776.5,-167.5 1613.5,-167.5 1613.5,-126.5 1776.5,-126.5 1776.5,-167.5"/>
<text text-anchor="start" x="1621.5" y="-155.5" font-family="Helvetica,sans-Serif" font-size="10.00">asm/rel/d/a/tag/d_a</text>
<text text-anchor="start" x="1621.5" y="-144.5" font-family="Helvetica,sans-Serif" font-size="10.00">_tag_msg/d_a_tag_msg</text>
<text text-anchor="middle" x="1695" y="-133.5" font-family="Helvetica,sans-Serif" font-size="10.00">/getParam__11daTag_Msg_cFv.s</text>
</a>
</g>
</g>
<!-- Node1&#45;&gt;Node15 -->
<g id="edge15" class="edge">
<title>Node1&#45;&gt;Node15</title>
<path fill="none" stroke="#63b8ff" d="M1313.2,-216.86C1383.62,-209.12 1503.5,-194.21 1605,-173 1608.57,-172.25 1612.21,-171.45 1615.88,-170.59"/>
<polygon fill="#63b8ff" stroke="#63b8ff" points="1616.56,-174.03 1625.45,-168.27 1614.91,-167.23 1616.56,-174.03"/>
</g>
<!-- Node16 -->
<g id="node16" class="node">
<title>Node16</title>
<g id="a_node16"><a xlink:title=" ">
<polygon fill="#e0e0e0" stroke="#999999" points="1931.5,-173 1794.5,-173 1794.5,-121 1931.5,-121 1931.5,-173"/>
<text text-anchor="start" x="1802.5" y="-161" font-family="Helvetica,sans-Serif" font-size="10.00">asm/rel/d/a/tag/d_a</text>
<text text-anchor="start" x="1802.5" y="-150" font-family="Helvetica,sans-Serif" font-size="10.00">_tag_msg/d_a_tag_msg</text>
<text text-anchor="start" x="1802.5" y="-139" font-family="Helvetica,sans-Serif" font-size="10.00">/cut_speak__11daTag_Msg</text>
<text text-anchor="middle" x="1863" y="-128" font-family="Helvetica,sans-Serif" font-size="10.00">_cFii.s</text>
</a>
</g>
</g>
<!-- Node1&#45;&gt;Node16 -->
<g id="edge16" class="edge">
<title>Node1&#45;&gt;Node16</title>
<path fill="none" stroke="#63b8ff" d="M1313.19,-221.66C1410.51,-218.56 1608.4,-208.37 1783.15,-173.4"/>
<polygon fill="#63b8ff" stroke="#63b8ff" points="1783.77,-176.84 1792.87,-171.42 1782.37,-169.99 1783.77,-176.84"/>
</g>
<!-- Node17 -->
<g id="node17" class="node">
<title>Node17</title>
<g id="a_node17"><a xlink:title=" ">
<polygon fill="#e0e0e0" stroke="#999999" points="2090,-167.5 1950,-167.5 1950,-126.5 2090,-126.5 2090,-167.5"/>
<text text-anchor="start" x="1958" y="-155.5" font-family="Helvetica,sans-Serif" font-size="10.00">asm/rel/d/a/tag/d_a</text>
<text text-anchor="start" x="1958" y="-144.5" font-family="Helvetica,sans-Serif" font-size="10.00">_tag_msg/d_a_tag_msg</text>
<text text-anchor="middle" x="2020" y="-133.5" font-family="Helvetica,sans-Serif" font-size="10.00">/daTag_Msg_Create__FPv.s</text>
</a>
</g>
</g>
<!-- Node1&#45;&gt;Node17 -->
<g id="edge17" class="edge">
<title>Node1&#45;&gt;Node17</title>
<path fill="none" stroke="#63b8ff" d="M1313.43,-223.33C1433.94,-222.95 1712.24,-216.88 1941,-173 1944.35,-172.36 1947.76,-171.62 1951.19,-170.81"/>
<polygon fill="#63b8ff" stroke="#63b8ff" points="1951.87,-174.25 1960.69,-168.37 1950.13,-167.47 1951.87,-174.25"/>
</g>
<!-- Node18 -->
<g id="node18" class="node">
<title>Node18</title>
<g id="a_node18"><a xlink:title=" ">
<polygon fill="#e0e0e0" stroke="#999999" points="2248,-167.5 2108,-167.5 2108,-126.5 2248,-126.5 2248,-167.5"/>
<text text-anchor="start" x="2116" y="-155.5" font-family="Helvetica,sans-Serif" font-size="10.00">asm/rel/d/a/tag/d_a</text>
<text text-anchor="start" x="2116" y="-144.5" font-family="Helvetica,sans-Serif" font-size="10.00">_tag_msg/d_a_tag_msg</text>
<text text-anchor="middle" x="2178" y="-133.5" font-family="Helvetica,sans-Serif" font-size="10.00">/daTag_Msg_Delete__FPv.s</text>
</a>
</g>
</g>
<!-- Node1&#45;&gt;Node18 -->
<g id="edge18" class="edge">
<title>Node1&#45;&gt;Node18</title>
<path fill="none" stroke="#63b8ff" d="M1313.39,-221.37C1480.73,-216.55 1947.99,-200.91 2099,-173 2102.54,-172.35 2106.14,-171.58 2109.75,-170.73"/>
<polygon fill="#63b8ff" stroke="#63b8ff" points="2110.31,-174.2 2119.14,-168.35 2108.58,-167.42 2110.31,-174.2"/>
</g>
<!-- Node19 -->
<g id="node19" class="node">
<title>Node19</title>
<g id="a_node19"><a xlink:title=" ">
<polygon fill="#e0e0e0" stroke="#999999" points="2412,-167.5 2266,-167.5 2266,-126.5 2412,-126.5 2412,-167.5"/>
<text text-anchor="start" x="2274" y="-155.5" font-family="Helvetica,sans-Serif" font-size="10.00">asm/rel/d/a/tag/d_a</text>
<text text-anchor="start" x="2274" y="-144.5" font-family="Helvetica,sans-Serif" font-size="10.00">_tag_msg/d_a_tag_msg</text>
<text text-anchor="middle" x="2339" y="-133.5" font-family="Helvetica,sans-Serif" font-size="10.00">/daTag_Msg_Execute__FPv.s</text>
</a>
</g>
</g>
<!-- Node1&#45;&gt;Node19 -->
<g id="edge19" class="edge">
<title>Node1&#45;&gt;Node19</title>
<path fill="none" stroke="#63b8ff" d="M1313.3,-221.94C1501.12,-218.34 2074.01,-204.95 2257,-173 2260.86,-172.33 2264.78,-171.53 2268.73,-170.64"/>
<polygon fill="#63b8ff" stroke="#63b8ff" points="2269.5,-174.05 2278.38,-168.27 2267.83,-167.25 2269.5,-174.05"/>
</g>
<!-- Node20 -->
<g id="node20" class="node">
<title>Node20</title>
<g id="a_node20"><a xlink:title=" ">
<polygon fill="#e0e0e0" stroke="#999999" points="2564,-167.5 2430,-167.5 2430,-126.5 2564,-126.5 2564,-167.5"/>
<text text-anchor="start" x="2438" y="-155.5" font-family="Helvetica,sans-Serif" font-size="10.00">asm/rel/d/a/tag/d_a</text>
<text text-anchor="start" x="2438" y="-144.5" font-family="Helvetica,sans-Serif" font-size="10.00">_tag_msg/d_a_tag_msg</text>
<text text-anchor="middle" x="2497" y="-133.5" font-family="Helvetica,sans-Serif" font-size="10.00">/daTag_Msg_Draw__FPv.s</text>
</a>
</g>
</g>
<!-- Node1&#45;&gt;Node20 -->
<g id="edge20" class="edge">
<title>Node1&#45;&gt;Node20</title>
<path fill="none" stroke="#63b8ff" d="M1313.48,-222.6C1521.3,-220.89 2205.23,-212.33 2421,-173 2424.38,-172.38 2427.81,-171.66 2431.25,-170.84"/>
<polygon fill="#63b8ff" stroke="#63b8ff" points="2431.99,-174.26 2440.79,-168.36 2430.23,-167.49 2431.99,-174.26"/>
</g>
<!-- Node21 -->
<g id="node21" class="node">
<title>Node21</title>
<g id="a_node21"><a xlink:title=" ">
<polygon fill="#e0e0e0" stroke="#999999" points="2755.5,-167.5 2582.5,-167.5 2582.5,-126.5 2755.5,-126.5 2755.5,-167.5"/>
<text text-anchor="start" x="2590.5" y="-155.5" font-family="Helvetica,sans-Serif" font-size="10.00">asm/rel/d/a/tag/d_a</text>
<text text-anchor="start" x="2590.5" y="-144.5" font-family="Helvetica,sans-Serif" font-size="10.00">_tag_msg/d_a_tag_msg</text>
<text text-anchor="middle" x="2669" y="-133.5" font-family="Helvetica,sans-Serif" font-size="10.00">/__dt__17daTag_Msg_Param_cFv.s</text>
</a>
</g>
</g>
<!-- Node1&#45;&gt;Node21 -->
<g id="edge21" class="edge">
<title>Node1&#45;&gt;Node21</title>
<path fill="none" stroke="#63b8ff" d="M1313.33,-222.45C1537.88,-220.14 2324.99,-209.55 2573,-173 2578.16,-172.24 2583.44,-171.31 2588.75,-170.26"/>
<polygon fill="#63b8ff" stroke="#63b8ff" points="2589.09,-173.76 2598.15,-168.27 2587.64,-166.92 2589.09,-173.76"/>
</g>
<!-- Node2&#45;&gt;Node3 -->
<g id="edge2" class="edge">
<title>Node2&#45;&gt;Node3</title>
<path fill="none" stroke="#63b8ff" d="M63.5,-131.6C69.75,-120.99 78.31,-106.48 85.08,-95.02"/>
<polygon fill="#63b8ff" stroke="#63b8ff" points="88.04,-96.87 90.11,-86.48 82.02,-93.32 88.04,-96.87"/>
</g>
<!-- Node4 -->
<g id="node4" class="node">
<title>Node4</title>
<g id="a_node4"><a xlink:href="stddef_8h.html" target="_top" xlink:title=" ">
<polygon fill="white" stroke="#666666" points="164,-30 28,-30 28,0 164,0 164,-30"/>
<text text-anchor="start" x="36" y="-18" font-family="Helvetica,sans-Serif" font-size="10.00">MSL_C/MSL_Common/Src</text>
<text text-anchor="middle" x="96" y="-7" font-family="Helvetica,sans-Serif" font-size="10.00">/stddef.h</text>
</a>
</g>
</g>
<!-- Node3&#45;&gt;Node4 -->
<g id="edge3" class="edge">
<title>Node3&#45;&gt;Node4</title>
<path fill="none" stroke="#63b8ff" d="M96,-65.87C96,-59.4 96,-50.2 96,-41.45"/>
<polygon fill="#63b8ff" stroke="#63b8ff" points="99.5,-41.63 96,-31.63 92.5,-41.63 99.5,-41.63"/>
</g>
</g>
</svg>
        <g id="navigator" transform="translate(0 0)" fill="#404254">
                <rect fill="#f2f5e9" fill-opacity="0.5" stroke="#606060" stroke-width=".5" x="0" y="0" width="60" height="60"/>
                <use id="zoomplus" xlink:href="#zoomPlus" x="17" y="9" onmousedown="handleZoom(evt,'in')"/>
                <use id="zoomminus" xlink:href="#zoomMin" x="42" y="9" onmousedown="handleZoom(evt,'out')"/>
                <use id="reset" xlink:href="#resetDef" x="30" y="36" onmousedown="handleReset()"/>
                <g id="arrowUp" xlink:href="#dirArrow" transform="translate(30 24)" onmousedown="handlePan(0,-1)">
                  <use xlink:href="#rim" fill="#404040">
                        <set attributeName="fill" to="#808080" begin="arrowUp.mouseover" end="arrowUp.mouseout"/>
                  </use>
                  <path fill="none" stroke="white" stroke-width="1.5" d="M0,-3.0v7 M-2.5,-0.5L0,-3.0L2.5,-0.5"/>
                </g>
                <g id="arrowRight" xlink:href="#dirArrow" transform="rotate(90) translate(36 -43)" onmousedown="handlePan(1,0)">
                  <use xlink:href="#rim" fill="#404040">
                        <set attributeName="fill" to="#808080" begin="arrowRight.mouseover" end="arrowRight.mouseout"/>
                  </use>
                  <path fill="none" stroke="white" stroke-width="1.5" d="M0,-3.0v7 M-2.5,-0.5L0,-3.0L2.5,-0.5"/>
                </g>
                <g id="arrowDown" xlink:href="#dirArrow" transform="rotate(180) translate(-30 -48)" onmousedown="handlePan(0,1)">
                  <use xlink:href="#rim" fill="#404040">
                        <set attributeName="fill" to="#808080" begin="arrowDown.mouseover" end="arrowDown.mouseout"/>
                  </use>
                  <path fill="none" stroke="white" stroke-width="1.5" d="M0,-3.0v7 M-2.5,-0.5L0,-3.0L2.5,-0.5"/>
                </g>
                <g id="arrowLeft" xlink:href="#dirArrow" transform="rotate(270) translate(-36 17)" onmousedown="handlePan(-1,0)">
                  <use xlink:href="#rim" fill="#404040">
                        <set attributeName="fill" to="#808080" begin="arrowLeft.mouseover" end="arrowLeft.mouseout"/>
                  </use>
                  <path fill="none" stroke="white" stroke-width="1.5" d="M0,-3.0v7 M-2.5,-0.5L0,-3.0L2.5,-0.5"/>
                </g>
        </g>
        <svg viewBox="0 0 15 15" width="100%" height="30px" preserveAspectRatio="xMaxYMin meet">
         <g id="arrow_out" transform="scale(0.3 0.3)">
          <a xlink:href="d__a__tag__msg_8cpp__incl_org.svg" target="_base">
           <rect id="button" ry="5" rx="5" y="6" x="6" height="38" width="38"
                fill="#f2f5e9" fill-opacity="0.5" stroke="#606060" stroke-width="1.0"/>
           <path id="arrow"
             d="M 11.500037,31.436501 C 11.940474,20.09759 22.043105,11.32322 32.158766,21.979434 L 37.068811,17.246167 C 37.068811,17.246167 37.088388,32 37.088388,32 L 22.160133,31.978069 C 22.160133,31.978069 26.997745,27.140456 26.997745,27.140456 C 18.528582,18.264221 13.291696,25.230495 11.500037,31.436501 z"
             style="fill:#404040;"/>
          </a>
         </g>
        </svg>
</svg>
