<?xml version="1.0" encoding="UTF-8" standalone="no"?>
<!DOCTYPE svg PUBLIC "-//W3C//DTD SVG 1.1//EN"
 "http://www.w3.org/Graphics/SVG/1.1/DTD/svg11.dtd">
<!-- Generated by graphviz version 7.0.5 (20221223.1930)
 -->
<!-- Title: rel/d/a/tag/d_a_tag_Lv7Gate/d_a_tag_Lv7Gate.cpp Pages: 1 -->
<!--zoomable 247 -->
<svg id="main" version="1.1" xmlns="http://www.w3.org/2000/svg" xmlns:xlink="http://www.w3.org/1999/xlink" xml:space="preserve" onload="init(evt)">
<style type="text/css"><![CDATA[
.edge:hover path { stroke: red; }
.edge:hover polygon { stroke: red; fill: red; }
]]></style>
<script type="text/javascript"><![CDATA[
var edges = document.getElementsByTagName('g');
if (edges && edges.length) {
  for (var i=0;i<edges.length;i++) {
    if (edges[i].id.substr(0,4)=='edge') {
      edges[i].setAttribute('class','edge');
    }
  }
}
]]></script>
        <defs>
                <circle id="rim" cx="0" cy="0" r="7"/>
                <circle id="rim2" cx="0" cy="0" r="3.5"/>
                <g id="zoomPlus">
                        <use xlink:href="#rim" fill="#404040">
                                <set attributeName="fill" to="#808080" begin="zoomplus.mouseover" end="zoomplus.mouseout"/>
                        </use>
                        <path d="M-4,0h8M0,-4v8" fill="none" stroke="white" stroke-width="1.5" pointer-events="none"/>
                </g>
                <g id="zoomMin">
                        <use xlink:href="#rim" fill="#404040">
                                <set attributeName="fill" to="#808080" begin="zoomminus.mouseover" end="zoomminus.mouseout"/>
                        </use>
                        <path d="M-4,0h8" fill="none" stroke="white" stroke-width="1.5" pointer-events="none"/>
                </g>
                <g id="dirArrow">
                        <path fill="none" stroke="white" stroke-width="1.5" d="M0,-3.0v7 M-2.5,-0.5L0,-3.0L2.5,-0.5"/>
                </g>
               <g id="resetDef">
                       <use xlink:href="#rim2" fill="#404040">
                               <set attributeName="fill" to="#808080" begin="reset.mouseover" end="reset.mouseout"/>
                       </use>
               </g>
        </defs>

<script type="text/javascript">
var viewWidth = 2019;
var viewHeight = 247;
var sectionId = 'dynsection-0';
</script>
<script xlink:href="svgpan.js"/>
<svg id="graph" class="graph">
<g id="viewport">
<title>rel/d/a/tag/d_a_tag_Lv7Gate/d_a_tag_Lv7Gate.cpp</title>
<!-- Node1 -->
<g id="node1" class="node">
<title>Node1</title>
<g id="a_node1"><a xlink:title=" ">
<polygon fill="#999999" stroke="#666666" points="952.5,-239 794.5,-239 794.5,-209 952.5,-209 952.5,-239"/>
<text text-anchor="start" x="802.5" y="-227" font-family="Helvetica,sans-Serif" font-size="10.00">rel/d/a/tag/d_a_tag</text>
<text text-anchor="middle" x="873.5" y="-216" font-family="Helvetica,sans-Serif" font-size="10.00">_Lv7Gate/d_a_tag_Lv7Gate.cpp</text>
</a>
</g>
</g>
<!-- Node2 -->
<g id="node2" class="node">
<title>Node2</title>
<g id="a_node2"><a xlink:href="d__a__tag__Lv7Gate_8h.html" target="_top" xlink:title=" ">
<polygon fill="white" stroke="#666666" points="147,-162 0,-162 0,-132 147,-132 147,-162"/>
<text text-anchor="start" x="8" y="-150" font-family="Helvetica,sans-Serif" font-size="10.00">rel/d/a/tag/d_a_tag</text>
<text text-anchor="middle" x="73.5" y="-139" font-family="Helvetica,sans-Serif" font-size="10.00">_Lv7Gate/d_a_tag_Lv7Gate.h</text>
</a>
</g>
</g>
<!-- Node1&#45;&gt;Node2 -->
<g id="edge1" class="edge">
<title>Node1&#45;&gt;Node2</title>
<path fill="none" stroke="#63b8ff" d="M794.1,-222.75C661.88,-221.16 388.68,-212.8 161.5,-173 150.7,-171.11 139.33,-168.42 128.48,-165.5"/>
<polygon fill="#63b8ff" stroke="#63b8ff" points="129.43,-162.13 118.86,-162.81 127.55,-168.87 129.43,-162.13"/>
</g>
<!-- Node3 -->
<g id="node3" class="node">
<title>Node3</title>
<g id="a_node3"><a xlink:href="types_8h.html" target="_top" xlink:title=" ">
<polygon fill="white" stroke="#666666" points="165,-85 84,-85 84,-66 165,-66 165,-85"/>
<text text-anchor="middle" x="124.5" y="-73" font-family="Helvetica,sans-Serif" font-size="10.00">dolphin/types.h</text>
</a>
</g>
</g>
<!-- Node1&#45;&gt;Node3 -->
<g id="edge5" class="edge">
<title>Node1&#45;&gt;Node3</title>
<path fill="none" stroke="#63b8ff" d="M794.01,-220.85C626.16,-215.79 246.76,-201.34 195.5,-173 193.39,-171.83 157.16,-121.82 137.29,-94.27"/>
<polygon fill="#63b8ff" stroke="#63b8ff" points="140.37,-92.56 131.69,-86.5 134.69,-96.66 140.37,-92.56"/>
</g>
<!-- Node5 -->
<g id="node5" class="node">
<title>Node5</title>
<g id="a_node5"><a xlink:href="dol2asm_8h.html" target="_top" xlink:title=" ">
<polygon fill="white" stroke="#666666" points="265,-156.5 204,-156.5 204,-137.5 265,-137.5 265,-156.5"/>
<text text-anchor="middle" x="234.5" y="-144.5" font-family="Helvetica,sans-Serif" font-size="10.00">dol2asm.h</text>
</a>
</g>
</g>
<!-- Node1&#45;&gt;Node5 -->
<g id="edge4" class="edge">
<title>Node1&#45;&gt;Node5</title>
<path fill="none" stroke="#63b8ff" d="M794.18,-221C654.09,-216.72 368.76,-204.34 274.5,-173 267.63,-170.72 260.73,-167.03 254.65,-163.18"/>
<polygon fill="#63b8ff" stroke="#63b8ff" points="256.8,-160.41 246.57,-157.62 252.83,-166.17 256.8,-160.41"/>
</g>
<!-- Node6 -->
<g id="node6" class="node">
<title>Node6</title>
<g id="a_node6"><a xlink:title=" ">
<polygon fill="#e0e0e0" stroke="#999999" points="417.5,-173 283.5,-173 283.5,-121 417.5,-121 417.5,-173"/>
<text text-anchor="start" x="291.5" y="-161" font-family="Helvetica,sans-Serif" font-size="10.00">asm/rel/d/a/tag/d_a</text>
<text text-anchor="start" x="291.5" y="-150" font-family="Helvetica,sans-Serif" font-size="10.00">_tag_Lv7Gate/d_a_tag</text>
<text text-anchor="start" x="291.5" y="-139" font-family="Helvetica,sans-Serif" font-size="10.00">_Lv7Gate/createSolidHeap</text>
<text text-anchor="middle" x="350.5" y="-128" font-family="Helvetica,sans-Serif" font-size="10.00">__FP10fopAc_ac_c.s</text>
</a>
</g>
</g>
<!-- Node1&#45;&gt;Node6 -->
<g id="edge6" class="edge">
<title>Node1&#45;&gt;Node6</title>
<path fill="none" stroke="#63b8ff" d="M794.17,-218.96C706.83,-213.42 562.29,-201.06 429.1,-173.13"/>
<polygon fill="#63b8ff" stroke="#63b8ff" points="429.89,-169.72 419.37,-171.05 428.42,-176.56 429.89,-169.72"/>
</g>
<!-- Node7 -->
<g id="node7" class="node">
<title>Node7</title>
<g id="a_node7"><a xlink:title=" ">
<polygon fill="#e0e0e0" stroke="#999999" points="617,-167.5 436,-167.5 436,-126.5 617,-126.5 617,-167.5"/>
<text text-anchor="start" x="444" y="-155.5" font-family="Helvetica,sans-Serif" font-size="10.00">asm/rel/d/a/tag/d_a</text>
<text text-anchor="start" x="444" y="-144.5" font-family="Helvetica,sans-Serif" font-size="10.00">_tag_Lv7Gate/d_a_tag</text>
<text text-anchor="middle" x="526.5" y="-133.5" font-family="Helvetica,sans-Serif" font-size="10.00">_Lv7Gate/__dt__12J3DFrameCtrlFv.s</text>
</a>
</g>
</g>
<!-- Node1&#45;&gt;Node7 -->
<g id="edge7" class="edge">
<title>Node1&#45;&gt;Node7</title>
<path fill="none" stroke="#63b8ff" d="M797.36,-208.51C748.44,-198.97 683.58,-185.9 626.5,-173 623.12,-172.24 619.68,-171.44 616.2,-170.63"/>
<polygon fill="#63b8ff" stroke="#63b8ff" points="617.04,-167.23 606.5,-168.34 615.43,-174.05 617.04,-167.23"/>
</g>
<!-- Node8 -->
<g id="node8" class="node">
<title>Node8</title>
<g id="a_node8"><a xlink:title=" ">
<polygon fill="#e0e0e0" stroke="#999999" points="778,-173 635,-173 635,-121 778,-121 778,-173"/>
<text text-anchor="start" x="643" y="-161" font-family="Helvetica,sans-Serif" font-size="10.00">asm/rel/d/a/tag/d_a</text>
<text text-anchor="start" x="643" y="-150" font-family="Helvetica,sans-Serif" font-size="10.00">_tag_Lv7Gate/d_a_tag</text>
<text text-anchor="start" x="643" y="-139" font-family="Helvetica,sans-Serif" font-size="10.00">_Lv7Gate/daTagLv7Gate</text>
<text text-anchor="middle" x="706.5" y="-128" font-family="Helvetica,sans-Serif" font-size="10.00">_Create__FP10fopAc_ac_c.s</text>
</a>
</g>
</g>
<!-- Node1&#45;&gt;Node8 -->
<g id="edge8" class="edge">
<title>Node1&#45;&gt;Node8</title>
<path fill="none" stroke="#63b8ff" d="M841.3,-208.54C821.98,-199.86 796.68,-188.5 773.22,-177.96"/>
<polygon fill="#63b8ff" stroke="#63b8ff" points="774.89,-174.88 764.33,-173.97 772.02,-181.26 774.89,-174.88"/>
</g>
<!-- Node9 -->
<g id="node9" class="node">
<title>Node9</title>
<g id="a_node9"><a xlink:title=" ">
<polygon fill="#e0e0e0" stroke="#999999" points="950.5,-173 796.5,-173 796.5,-121 950.5,-121 950.5,-173"/>
<text text-anchor="start" x="804.5" y="-161" font-family="Helvetica,sans-Serif" font-size="10.00">asm/rel/d/a/tag/d_a</text>
<text text-anchor="start" x="804.5" y="-150" font-family="Helvetica,sans-Serif" font-size="10.00">_tag_Lv7Gate/d_a_tag</text>
<text text-anchor="start" x="804.5" y="-139" font-family="Helvetica,sans-Serif" font-size="10.00">_Lv7Gate/create__14daTagLv7</text>
<text text-anchor="middle" x="873.5" y="-128" font-family="Helvetica,sans-Serif" font-size="10.00">Gate_cFv.s</text>
</a>
</g>
</g>
<!-- Node1&#45;&gt;Node9 -->
<g id="edge9" class="edge">
<title>Node1&#45;&gt;Node9</title>
<path fill="none" stroke="#63b8ff" d="M873.5,-208.54C873.5,-201.69 873.5,-193.17 873.5,-184.7"/>
<polygon fill="#63b8ff" stroke="#63b8ff" points="877,-184.87 873.5,-174.87 870,-184.87 877,-184.87"/>
</g>
<!-- Node10 -->
<g id="node10" class="node">
<title>Node10</title>
<g id="a_node10"><a xlink:title=" ">
<polygon fill="#e0e0e0" stroke="#999999" points="1100,-173 969,-173 969,-121 1100,-121 1100,-173"/>
<text text-anchor="start" x="977" y="-161" font-family="Helvetica,sans-Serif" font-size="10.00">asm/rel/d/a/tag/d_a</text>
<text text-anchor="start" x="977" y="-150" font-family="Helvetica,sans-Serif" font-size="10.00">_tag_Lv7Gate/d_a_tag</text>
<text text-anchor="start" x="977" y="-139" font-family="Helvetica,sans-Serif" font-size="10.00">_Lv7Gate/create_init</text>
<text text-anchor="middle" x="1034.5" y="-128" font-family="Helvetica,sans-Serif" font-size="10.00">__14daTagLv7Gate_cFv.s</text>
</a>
</g>
</g>
<!-- Node1&#45;&gt;Node10 -->
<g id="edge10" class="edge">
<title>Node1&#45;&gt;Node10</title>
<path fill="none" stroke="#63b8ff" d="M904.54,-208.54C923.08,-199.9 947.34,-188.6 969.87,-178.11"/>
<polygon fill="#63b8ff" stroke="#63b8ff" points="971.12,-181.39 978.7,-173.99 968.16,-175.04 971.12,-181.39"/>
</g>
<!-- Node11 -->
<g id="node11" class="node">
<title>Node11</title>
<g id="a_node11"><a xlink:title=" ">
<polygon fill="#e0e0e0" stroke="#999999" points="1291,-173 1118,-173 1118,-121 1291,-121 1291,-173"/>
<text text-anchor="start" x="1126" y="-161" font-family="Helvetica,sans-Serif" font-size="10.00">asm/rel/d/a/tag/d_a</text>
<text text-anchor="start" x="1126" y="-150" font-family="Helvetica,sans-Serif" font-size="10.00">_tag_Lv7Gate/d_a_tag</text>
<text text-anchor="start" x="1126" y="-139" font-family="Helvetica,sans-Serif" font-size="10.00">_Lv7Gate/daTagLv7Gate</text>
<text text-anchor="middle" x="1204.5" y="-128" font-family="Helvetica,sans-Serif" font-size="10.00">_Execute__FP14daTagLv7Gate_c.s</text>
</a>
</g>
</g>
<!-- Node1&#45;&gt;Node11 -->
<g id="edge11" class="edge">
<title>Node1&#45;&gt;Node11</title>
<path fill="none" stroke="#63b8ff" d="M946.27,-208.53C990.29,-199.56 1047.79,-187.46 1106.58,-173.65"/>
<polygon fill="#63b8ff" stroke="#63b8ff" points="1107.17,-177.11 1116.09,-171.41 1105.56,-170.3 1107.17,-177.11"/>
</g>
<!-- Node12 -->
<g id="node12" class="node">
<title>Node12</title>
<g id="a_node12"><a xlink:title=" ">
<polygon fill="#e0e0e0" stroke="#999999" points="1470,-173 1309,-173 1309,-121 1470,-121 1470,-173"/>
<text text-anchor="start" x="1317" y="-161" font-family="Helvetica,sans-Serif" font-size="10.00">asm/rel/d/a/tag/d_a</text>
<text text-anchor="start" x="1317" y="-150" font-family="Helvetica,sans-Serif" font-size="10.00">_tag_Lv7Gate/d_a_tag</text>
<text text-anchor="start" x="1317" y="-139" font-family="Helvetica,sans-Serif" font-size="10.00">_Lv7Gate/execute__14daTagLv7</text>
<text text-anchor="middle" x="1389.5" y="-128" font-family="Helvetica,sans-Serif" font-size="10.00">Gate_cFv.s</text>
</a>
</g>
</g>
<!-- Node1&#45;&gt;Node12 -->
<g id="edge12" class="edge">
<title>Node1&#45;&gt;Node12</title>
<path fill="none" stroke="#63b8ff" d="M952.78,-217.47C1036.51,-210.78 1172.45,-197.52 1297.7,-173.43"/>
<polygon fill="#63b8ff" stroke="#63b8ff" points="1298,-176.94 1307.14,-171.59 1296.65,-170.07 1298,-176.94"/>
</g>
<!-- Node13 -->
<g id="node13" class="node">
<title>Node13</title>
<g id="a_node13"><a xlink:title=" ">
<polygon fill="#e0e0e0" stroke="#999999" points="1646.5,-173 1488.5,-173 1488.5,-121 1646.5,-121 1646.5,-173"/>
<text text-anchor="start" x="1496.5" y="-161" font-family="Helvetica,sans-Serif" font-size="10.00">asm/rel/d/a/tag/d_a</text>
<text text-anchor="start" x="1496.5" y="-150" font-family="Helvetica,sans-Serif" font-size="10.00">_tag_Lv7Gate/d_a_tag</text>
<text text-anchor="start" x="1496.5" y="-139" font-family="Helvetica,sans-Serif" font-size="10.00">_Lv7Gate/calcFly__14daTagLv7</text>
<text text-anchor="middle" x="1567.5" y="-128" font-family="Helvetica,sans-Serif" font-size="10.00">Gate_cFv.s</text>
</a>
</g>
</g>
<!-- Node1&#45;&gt;Node13 -->
<g id="edge13" class="edge">
<title>Node1&#45;&gt;Node13</title>
<path fill="none" stroke="#63b8ff" d="M952.58,-221.37C1066.68,-217.94 1284.06,-207.35 1476.84,-173.33"/>
<polygon fill="#63b8ff" stroke="#63b8ff" points="1477.32,-176.8 1486.55,-171.59 1476.09,-169.91 1477.32,-176.8"/>
</g>
<!-- Node14 -->
<g id="node14" class="node">
<title>Node14</title>
<g id="a_node14"><a xlink:title=" ">
<polygon fill="#e0e0e0" stroke="#999999" points="1826,-173 1665,-173 1665,-121 1826,-121 1826,-173"/>
<text text-anchor="start" x="1673" y="-161" font-family="Helvetica,sans-Serif" font-size="10.00">asm/rel/d/a/tag/d_a</text>
<text text-anchor="start" x="1673" y="-150" font-family="Helvetica,sans-Serif" font-size="10.00">_tag_Lv7Gate/d_a_tag</text>
<text text-anchor="start" x="1673" y="-139" font-family="Helvetica,sans-Serif" font-size="10.00">_Lv7Gate/daTagLv7Gate</text>
<text text-anchor="middle" x="1745.5" y="-128" font-family="Helvetica,sans-Serif" font-size="10.00">_Draw__FP14daTagLv7Gate_c.s</text>
</a>
</g>
</g>
<!-- Node1&#45;&gt;Node14 -->
<g id="edge14" class="edge">
<title>Node1&#45;&gt;Node14</title>
<path fill="none" stroke="#63b8ff" d="M952.93,-223.33C1092.93,-222.72 1392.66,-216.14 1653.51,-173.16"/>
<polygon fill="#63b8ff" stroke="#63b8ff" points="1653.95,-176.64 1663.23,-171.54 1652.79,-169.73 1653.95,-176.64"/>
</g>
<!-- Node15 -->
<g id="node15" class="node">
<title>Node15</title>
<g id="a_node15"><a xlink:title=" ">
<polygon fill="#e0e0e0" stroke="#999999" points="2010.5,-173 1844.5,-173 1844.5,-121 2010.5,-121 2010.5,-173"/>
<text text-anchor="start" x="1852.5" y="-161" font-family="Helvetica,sans-Serif" font-size="10.00">asm/rel/d/a/tag/d_a</text>
<text text-anchor="start" x="1852.5" y="-150" font-family="Helvetica,sans-Serif" font-size="10.00">_tag_Lv7Gate/d_a_tag</text>
<text text-anchor="start" x="1852.5" y="-139" font-family="Helvetica,sans-Serif" font-size="10.00">_Lv7Gate/daTagLv7Gate</text>
<text text-anchor="middle" x="1927.5" y="-128" font-family="Helvetica,sans-Serif" font-size="10.00">_Delete__FP14daTagLv7Gate_c.s</text>
</a>
</g>
</g>
<!-- Node1&#45;&gt;Node15 -->
<g id="edge15" class="edge">
<title>Node1&#45;&gt;Node15</title>
<path fill="none" stroke="#63b8ff" d="M952.67,-221.06C1147.1,-215.96 1645.24,-200.72 1832.81,-173.22"/>
<polygon fill="#63b8ff" stroke="#63b8ff" points="1833.33,-176.68 1842.68,-171.7 1832.27,-169.76 1833.33,-176.68"/>
</g>
<!-- Node2&#45;&gt;Node3 -->
<g id="edge2" class="edge">
<title>Node2&#45;&gt;Node3</title>
<path fill="none" stroke="#63b8ff" d="M84.07,-131.6C92.01,-120.77 102.94,-105.88 111.43,-94.31"/>
<polygon fill="#63b8ff" stroke="#63b8ff" points="114.14,-96.53 117.24,-86.4 108.5,-92.39 114.14,-96.53"/>
</g>
<!-- Node4 -->
<g id="node4" class="node">
<title>Node4</title>
<g id="a_node4"><a xlink:href="stddef_8h.html" target="_top" xlink:title=" ">
<polygon fill="white" stroke="#666666" points="192.5,-30 56.5,-30 56.5,0 192.5,0 192.5,-30"/>
<text text-anchor="start" x="64.5" y="-18" font-family="Helvetica,sans-Serif" font-size="10.00">MSL_C/MSL_Common/Src</text>
<text text-anchor="middle" x="124.5" y="-7" font-family="Helvetica,sans-Serif" font-size="10.00">/stddef.h</text>
</a>
</g>
</g>
<!-- Node3&#45;&gt;Node4 -->
<g id="edge3" class="edge">
<title>Node3&#45;&gt;Node4</title>
<path fill="none" stroke="#63b8ff" d="M124.5,-65.87C124.5,-59.4 124.5,-50.2 124.5,-41.45"/>
<polygon fill="#63b8ff" stroke="#63b8ff" points="128,-41.63 124.5,-31.63 121,-41.63 128,-41.63"/>
</g>
</g>
</svg>
        <g id="navigator" transform="translate(0 0)" fill="#404254">
                <rect fill="#f2f5e9" fill-opacity="0.5" stroke="#606060" stroke-width=".5" x="0" y="0" width="60" height="60"/>
                <use id="zoomplus" xlink:href="#zoomPlus" x="17" y="9" onmousedown="handleZoom(evt,'in')"/>
                <use id="zoomminus" xlink:href="#zoomMin" x="42" y="9" onmousedown="handleZoom(evt,'out')"/>
                <use id="reset" xlink:href="#resetDef" x="30" y="36" onmousedown="handleReset()"/>
                <g id="arrowUp" xlink:href="#dirArrow" transform="translate(30 24)" onmousedown="handlePan(0,-1)">
                  <use xlink:href="#rim" fill="#404040">
                        <set attributeName="fill" to="#808080" begin="arrowUp.mouseover" end="arrowUp.mouseout"/>
                  </use>
                  <path fill="none" stroke="white" stroke-width="1.5" d="M0,-3.0v7 M-2.5,-0.5L0,-3.0L2.5,-0.5"/>
                </g>
                <g id="arrowRight" xlink:href="#dirArrow" transform="rotate(90) translate(36 -43)" onmousedown="handlePan(1,0)">
                  <use xlink:href="#rim" fill="#404040">
                        <set attributeName="fill" to="#808080" begin="arrowRight.mouseover" end="arrowRight.mouseout"/>
                  </use>
                  <path fill="none" stroke="white" stroke-width="1.5" d="M0,-3.0v7 M-2.5,-0.5L0,-3.0L2.5,-0.5"/>
                </g>
                <g id="arrowDown" xlink:href="#dirArrow" transform="rotate(180) translate(-30 -48)" onmousedown="handlePan(0,1)">
                  <use xlink:href="#rim" fill="#404040">
                        <set attributeName="fill" to="#808080" begin="arrowDown.mouseover" end="arrowDown.mouseout"/>
                  </use>
                  <path fill="none" stroke="white" stroke-width="1.5" d="M0,-3.0v7 M-2.5,-0.5L0,-3.0L2.5,-0.5"/>
                </g>
                <g id="arrowLeft" xlink:href="#dirArrow" transform="rotate(270) translate(-36 17)" onmousedown="handlePan(-1,0)">
                  <use xlink:href="#rim" fill="#404040">
                        <set attributeName="fill" to="#808080" begin="arrowLeft.mouseover" end="arrowLeft.mouseout"/>
                  </use>
                  <path fill="none" stroke="white" stroke-width="1.5" d="M0,-3.0v7 M-2.5,-0.5L0,-3.0L2.5,-0.5"/>
                </g>
        </g>
        <svg viewBox="0 0 15 15" width="100%" height="30px" preserveAspectRatio="xMaxYMin meet">
         <g id="arrow_out" transform="scale(0.3 0.3)">
          <a xlink:href="d__a__tag__Lv7Gate_8cpp__incl_org.svg" target="_base">
           <rect id="button" ry="5" rx="5" y="6" x="6" height="38" width="38"
                fill="#f2f5e9" fill-opacity="0.5" stroke="#606060" stroke-width="1.0"/>
           <path id="arrow"
             d="M 11.500037,31.436501 C 11.940474,20.09759 22.043105,11.32322 32.158766,21.979434 L 37.068811,17.246167 C 37.068811,17.246167 37.088388,32 37.088388,32 L 22.160133,31.978069 C 22.160133,31.978069 26.997745,27.140456 26.997745,27.140456 C 18.528582,18.264221 13.291696,25.230495 11.500037,31.436501 z"
             style="fill:#404040;"/>
          </a>
         </g>
        </svg>
</svg>
