<?xml version="1.0" encoding="UTF-8" standalone="no"?>
<!DOCTYPE svg PUBLIC "-//W3C//DTD SVG 1.1//EN"
 "http://www.w3.org/Graphics/SVG/1.1/DTD/svg11.dtd">
<!-- Generated by graphviz version 7.0.5 (20221223.1930)
 -->
<!-- Title: src/d/a/d_a_npc_cd2.cpp Pages: 1 -->
<svg width="7727pt" height="225pt"
 viewBox="0.00 0.00 7727.00 225.00" xmlns="http://www.w3.org/2000/svg" xmlns:xlink="http://www.w3.org/1999/xlink">
<g id="graph0" class="graph" transform="scale(1 1) rotate(0) translate(4 221)">
<title>src/d/a/d_a_npc_cd2.cpp</title>
<!-- Node1 -->
<g id="node1" class="node">
<title>Node1</title>
<g id="a_node1"><a xlink:title=" ">
<polygon fill="#999999" stroke="#666666" points="3907.5,-217 3782.5,-217 3782.5,-198 3907.5,-198 3907.5,-217"/>
<text text-anchor="middle" x="3845" y="-205" font-family="Helvetica,sans-Serif" font-size="10.00">src/d/a/d_a_npc_cd2.cpp</text>
</a>
</g>
</g>
<!-- Node2 -->
<g id="node2" class="node">
<title>Node2</title>
<g id="a_node2"><a xlink:href="d__a__npc__cd2_8h.html" target="_top" xlink:title=" ">
<polygon fill="white" stroke="#666666" points="117,-151 19,-151 19,-132 117,-132 117,-151"/>
<text text-anchor="middle" x="68" y="-139" font-family="Helvetica,sans-Serif" font-size="10.00">d/a/d_a_npc_cd2.h</text>
</a>
</g>
</g>
<!-- Node1&#45;&gt;Node2 -->
<g id="edge1" class="edge">
<title>Node1&#45;&gt;Node2</title>
<path fill="none" stroke="#63b8ff" d="M3782.03,-206.3C3308.16,-204.69 314.58,-193.35 127,-162 118.2,-160.53 108.92,-157.97 100.4,-155.18"/>
<polygon fill="#63b8ff" stroke="#63b8ff" points="101.75,-151.95 91.16,-151.96 99.44,-158.56 101.75,-151.95"/>
</g>
<!-- Node5 -->
<g id="node5" class="node">
<title>Node5</title>
<g id="a_node5"><a xlink:href="dol2asm_8h.html" target="_top" xlink:title=" ">
<polygon fill="white" stroke="#666666" points="196.5,-151 135.5,-151 135.5,-132 196.5,-132 196.5,-151"/>
<text text-anchor="middle" x="166" y="-139" font-family="Helvetica,sans-Serif" font-size="10.00">dol2asm.h</text>
</a>
</g>
</g>
<!-- Node1&#45;&gt;Node5 -->
<g id="edge4" class="edge">
<title>Node1&#45;&gt;Node5</title>
<path fill="none" stroke="#63b8ff" d="M3782.21,-206.52C3314.51,-206.53 386.97,-204.93 206,-162 200.79,-160.76 195.46,-158.76 190.47,-156.51"/>
<polygon fill="#63b8ff" stroke="#63b8ff" points="192.09,-153.41 181.59,-152.03 188.94,-159.66 192.09,-153.41"/>
</g>
<!-- Node6 -->
<g id="node6" class="node">
<title>Node6</title>
<g id="a_node6"><a xlink:title=" ">
<polygon fill="#e0e0e0" stroke="#999999" points="383.5,-156.5 214.5,-156.5 214.5,-126.5 383.5,-126.5 383.5,-156.5"/>
<text text-anchor="start" x="222.5" y="-144.5" font-family="Helvetica,sans-Serif" font-size="10.00">asm/a/npc/d_a_npc_cd2</text>
<text text-anchor="middle" x="299" y="-133.5" font-family="Helvetica,sans-Serif" font-size="10.00">/jntNodeCallBack__FP8J3DJointi.s</text>
</a>
</g>
</g>
<!-- Node1&#45;&gt;Node6 -->
<g id="edge5" class="edge">
<title>Node1&#45;&gt;Node6</title>
<path fill="none" stroke="#63b8ff" d="M3782.04,-206.42C3342.64,-205.73 741.93,-200.08 393,-162 385.99,-161.23 378.72,-160.19 371.48,-158.98"/>
<polygon fill="#63b8ff" stroke="#63b8ff" points="372.12,-155.53 361.66,-157.22 370.88,-162.43 372.12,-155.53"/>
</g>
<!-- Node7 -->
<g id="node7" class="node">
<title>Node7</title>
<g id="a_node7"><a xlink:title=" ">
<polygon fill="#e0e0e0" stroke="#999999" points="560.5,-156.5 401.5,-156.5 401.5,-126.5 560.5,-126.5 560.5,-156.5"/>
<text text-anchor="start" x="409.5" y="-144.5" font-family="Helvetica,sans-Serif" font-size="10.00">asm/a/npc/d_a_npc_cd2</text>
<text text-anchor="middle" x="481" y="-133.5" font-family="Helvetica,sans-Serif" font-size="10.00">/NpcCreate__10daNpcCd2_cFi.s</text>
</a>
</g>
</g>
<!-- Node1&#45;&gt;Node7 -->
<g id="edge6" class="edge">
<title>Node1&#45;&gt;Node7</title>
<path fill="none" stroke="#63b8ff" d="M3782.22,-206.41C3356.52,-205.71 900.02,-200 570,-162 563.56,-161.26 556.9,-160.25 550.25,-159.09"/>
<polygon fill="#63b8ff" stroke="#63b8ff" points="551.08,-155.69 540.61,-157.28 549.79,-162.57 551.08,-155.69"/>
</g>
<!-- Node8 -->
<g id="node8" class="node">
<title>Node8</title>
<g id="a_node8"><a xlink:title=" ">
<polygon fill="#e0e0e0" stroke="#999999" points="735,-156.5 579,-156.5 579,-126.5 735,-126.5 735,-156.5"/>
<text text-anchor="start" x="587" y="-144.5" font-family="Helvetica,sans-Serif" font-size="10.00">asm/a/npc/d_a_npc_cd2</text>
<text text-anchor="middle" x="657" y="-133.5" font-family="Helvetica,sans-Serif" font-size="10.00">/ObjCreate__10daNpcCd2_cFi.s</text>
</a>
</g>
</g>
<!-- Node1&#45;&gt;Node8 -->
<g id="edge7" class="edge">
<title>Node1&#45;&gt;Node8</title>
<path fill="none" stroke="#63b8ff" d="M3782.28,-206.38C3370.03,-205.47 1055.56,-198.75 744,-162 737.7,-161.26 731.18,-160.25 724.68,-159.09"/>
<polygon fill="#63b8ff" stroke="#63b8ff" points="725.77,-155.73 715.29,-157.28 724.45,-162.61 725.77,-155.73"/>
</g>
<!-- Node9 -->
<g id="node9" class="node">
<title>Node9</title>
<g id="a_node9"><a xlink:title=" ">
<polygon fill="#e0e0e0" stroke="#999999" points="917,-156.5 753,-156.5 753,-126.5 917,-126.5 917,-156.5"/>
<text text-anchor="start" x="761" y="-144.5" font-family="Helvetica,sans-Serif" font-size="10.00">asm/a/npc/d_a_npc_cd2</text>
<text text-anchor="middle" x="835" y="-133.5" font-family="Helvetica,sans-Serif" font-size="10.00">/ChairCreate__10daNpcCd2_cFf.s</text>
</a>
</g>
</g>
<!-- Node1&#45;&gt;Node9 -->
<g id="edge8" class="edge">
<title>Node1&#45;&gt;Node9</title>
<path fill="none" stroke="#63b8ff" d="M3782.19,-206.27C3384.1,-204.74 1219.41,-194.9 927,-162 920.27,-161.24 913.3,-160.22 906.35,-159.03"/>
<polygon fill="#63b8ff" stroke="#63b8ff" points="907.06,-155.6 896.59,-157.25 905.8,-162.49 907.06,-155.6"/>
</g>
<!-- Node10 -->
<g id="node10" class="node">
<title>Node10</title>
<g id="a_node10"><a xlink:title=" ">
<polygon fill="#e0e0e0" stroke="#999999" points="1072.5,-156.5 935.5,-156.5 935.5,-126.5 1072.5,-126.5 1072.5,-156.5"/>
<text text-anchor="start" x="943.5" y="-144.5" font-family="Helvetica,sans-Serif" font-size="10.00">asm/a/npc/d_a_npc_cd2</text>
<text text-anchor="middle" x="1004" y="-133.5" font-family="Helvetica,sans-Serif" font-size="10.00">/isM___10daNpcCd2_cFv.s</text>
</a>
</g>
</g>
<!-- Node1&#45;&gt;Node10 -->
<g id="edge9" class="edge">
<title>Node1&#45;&gt;Node10</title>
<path fill="none" stroke="#63b8ff" d="M3782.11,-206.35C3396.34,-205.32 1357.44,-198.16 1082,-162 1076.74,-161.31 1071.32,-160.39 1065.91,-159.34"/>
<polygon fill="#63b8ff" stroke="#63b8ff" points="1066.86,-155.96 1056.35,-157.31 1065.4,-162.81 1066.86,-155.96"/>
</g>
<!-- Node11 -->
<g id="node11" class="node">
<title>Node11</title>
<g id="a_node11"><a xlink:title=" ">
<polygon fill="#e0e0e0" stroke="#999999" points="1217.5,-162 1090.5,-162 1090.5,-121 1217.5,-121 1217.5,-162"/>
<text text-anchor="start" x="1098.5" y="-150" font-family="Helvetica,sans-Serif" font-size="10.00">asm/a/npc/d_a_npc_cd2</text>
<text text-anchor="start" x="1098.5" y="-139" font-family="Helvetica,sans-Serif" font-size="10.00">/getAnmP__10daNpcCd2</text>
<text text-anchor="middle" x="1154" y="-128" font-family="Helvetica,sans-Serif" font-size="10.00">_cFii.s</text>
</a>
</g>
</g>
<!-- Node1&#45;&gt;Node11 -->
<g id="edge10" class="edge">
<title>Node1&#45;&gt;Node11</title>
<path fill="none" stroke="#63b8ff" d="M3782.11,-206.35C3413.12,-205.35 1535.45,-198.54 1228.95,-161.94"/>
<polygon fill="#63b8ff" stroke="#63b8ff" points="1229.78,-158.52 1219.41,-160.71 1228.88,-165.46 1229.78,-158.52"/>
</g>
<!-- Node12 -->
<g id="node12" class="node">
<title>Node12</title>
<g id="a_node12"><a xlink:title=" ">
<polygon fill="#e0e0e0" stroke="#999999" points="1400.5,-156.5 1235.5,-156.5 1235.5,-126.5 1400.5,-126.5 1400.5,-156.5"/>
<text text-anchor="start" x="1243.5" y="-144.5" font-family="Helvetica,sans-Serif" font-size="10.00">asm/a/npc/d_a_npc_cd2</text>
<text text-anchor="middle" x="1318" y="-133.5" font-family="Helvetica,sans-Serif" font-size="10.00">/setAttention__10daNpcCd2_cFi.s</text>
</a>
</g>
</g>
<!-- Node1&#45;&gt;Node12 -->
<g id="edge11" class="edge">
<title>Node1&#45;&gt;Node12</title>
<path fill="none" stroke="#63b8ff" d="M3782.23,-206.07C3424.57,-203.52 1651.55,-189.55 1410,-162 1403.27,-161.23 1396.3,-160.2 1389.35,-159.01"/>
<polygon fill="#63b8ff" stroke="#63b8ff" points="1390.06,-155.58 1379.59,-157.23 1388.8,-162.47 1390.06,-155.58"/>
</g>
<!-- Node13 -->
<g id="node13" class="node">
<title>Node13</title>
<g id="a_node13"><a xlink:title=" ">
<polygon fill="#e0e0e0" stroke="#999999" points="1549,-162 1419,-162 1419,-121 1549,-121 1549,-162"/>
<text text-anchor="start" x="1427" y="-150" font-family="Helvetica,sans-Serif" font-size="10.00">asm/a/npc/d_a_npc_cd2</text>
<text text-anchor="start" x="1427" y="-139" font-family="Helvetica,sans-Serif" font-size="10.00">/loadResrc__10daNpcCd2</text>
<text text-anchor="middle" x="1484" y="-128" font-family="Helvetica,sans-Serif" font-size="10.00">_cFii.s</text>
</a>
</g>
</g>
<!-- Node1&#45;&gt;Node13 -->
<g id="edge12" class="edge">
<title>Node1&#45;&gt;Node13</title>
<path fill="none" stroke="#63b8ff" d="M3782.13,-206.17C3442.38,-204.27 1831.47,-193.73 1560.39,-162.01"/>
<polygon fill="#63b8ff" stroke="#63b8ff" points="1561.06,-158.57 1550.7,-160.77 1560.18,-165.51 1561.06,-158.57"/>
</g>
<!-- Node14 -->
<g id="node14" class="node">
<title>Node14</title>
<g id="a_node14"><a xlink:title=" ">
<polygon fill="#e0e0e0" stroke="#999999" points="1711,-162 1567,-162 1567,-121 1711,-121 1711,-162"/>
<text text-anchor="start" x="1575" y="-150" font-family="Helvetica,sans-Serif" font-size="10.00">asm/a/npc/d_a_npc_cd2</text>
<text text-anchor="start" x="1575" y="-139" font-family="Helvetica,sans-Serif" font-size="10.00">/removeResrc__10daNpcCd2</text>
<text text-anchor="middle" x="1639" y="-128" font-family="Helvetica,sans-Serif" font-size="10.00">_cFii.s</text>
</a>
</g>
</g>
<!-- Node1&#45;&gt;Node14 -->
<g id="edge13" class="edge">
<title>Node1&#45;&gt;Node14</title>
<path fill="none" stroke="#63b8ff" d="M3782.06,-205.99C3457.2,-203.25 1975.97,-189.42 1722.42,-162.03"/>
<polygon fill="#63b8ff" stroke="#63b8ff" points="1723.12,-158.59 1712.78,-160.89 1722.3,-165.54 1723.12,-158.59"/>
</g>
<!-- Node15 -->
<g id="node15" class="node">
<title>Node15</title>
<g id="a_node15"><a xlink:title=" ">
<polygon fill="#e0e0e0" stroke="#999999" points="1905,-156.5 1729,-156.5 1729,-126.5 1905,-126.5 1905,-156.5"/>
<text text-anchor="start" x="1737" y="-144.5" font-family="Helvetica,sans-Serif" font-size="10.00">asm/a/npc/d_a_npc_cd2</text>
<text text-anchor="middle" x="1817" y="-133.5" font-family="Helvetica,sans-Serif" font-size="10.00">/setEnvTevCol__10daNpcCd2_cFv.s</text>
</a>
</g>
</g>
<!-- Node1&#45;&gt;Node15 -->
<g id="edge14" class="edge">
<title>Node1&#45;&gt;Node15</title>
<path fill="none" stroke="#63b8ff" d="M3782.48,-206.52C3493.97,-206.37 2289.37,-203.25 1915,-162 1907.79,-161.21 1900.31,-160.15 1892.86,-158.94"/>
<polygon fill="#63b8ff" stroke="#63b8ff" points="1893.53,-155.5 1883.08,-157.25 1892.34,-162.4 1893.53,-155.5"/>
</g>
<!-- Node16 -->
<g id="node16" class="node">
<title>Node16</title>
<g id="a_node16"><a xlink:title=" ">
<polygon fill="#e0e0e0" stroke="#999999" points="2090.5,-156.5 1923.5,-156.5 1923.5,-126.5 2090.5,-126.5 2090.5,-156.5"/>
<text text-anchor="start" x="1931.5" y="-144.5" font-family="Helvetica,sans-Serif" font-size="10.00">asm/a/npc/d_a_npc_cd2</text>
<text text-anchor="middle" x="2007" y="-133.5" font-family="Helvetica,sans-Serif" font-size="10.00">/setRoomNo__10daNpcCd2_cFv.s</text>
</a>
</g>
</g>
<!-- Node1&#45;&gt;Node16 -->
<g id="edge15" class="edge">
<title>Node1&#45;&gt;Node16</title>
<path fill="none" stroke="#63b8ff" d="M3782.22,-206.42C3510.64,-205.86 2435.63,-201.14 2100,-162 2093.23,-161.21 2086.21,-160.17 2079.22,-158.97"/>
<polygon fill="#63b8ff" stroke="#63b8ff" points="2080.23,-155.6 2069.76,-157.26 2078.98,-162.49 2080.23,-155.6"/>
</g>
<!-- Node17 -->
<g id="node17" class="node">
<title>Node17</title>
<g id="a_node17"><a xlink:title=" ">
<polygon fill="#e0e0e0" stroke="#999999" points="2263.5,-156.5 2108.5,-156.5 2108.5,-126.5 2263.5,-126.5 2263.5,-156.5"/>
<text text-anchor="start" x="2116.5" y="-144.5" font-family="Helvetica,sans-Serif" font-size="10.00">asm/a/npc/d_a_npc_cd2</text>
<text text-anchor="middle" x="2186" y="-133.5" font-family="Helvetica,sans-Serif" font-size="10.00">/animation__10daNpcCd2_cFi.s</text>
</a>
</g>
</g>
<!-- Node1&#45;&gt;Node17 -->
<g id="edge16" class="edge">
<title>Node1&#45;&gt;Node17</title>
<path fill="none" stroke="#63b8ff" d="M3782.1,-206.33C3527.48,-205.41 2572.53,-199.45 2273,-162 2266.95,-161.24 2260.71,-160.26 2254.47,-159.13"/>
<polygon fill="#63b8ff" stroke="#63b8ff" points="2255.26,-155.72 2244.77,-157.26 2253.93,-162.59 2255.26,-155.72"/>
</g>
<!-- Node18 -->
<g id="node18" class="node">
<title>Node18</title>
<g id="a_node18"><a xlink:title=" ">
<polygon fill="#e0e0e0" stroke="#999999" points="2446,-162 2282,-162 2282,-121 2446,-121 2446,-162"/>
<text text-anchor="start" x="2290" y="-150" font-family="Helvetica,sans-Serif" font-size="10.00">asm/a/npc/d_a_npc_cd2</text>
<text text-anchor="start" x="2290" y="-139" font-family="Helvetica,sans-Serif" font-size="10.00">/setAnm__10daNpcCd2_cFP18J3</text>
<text text-anchor="middle" x="2364" y="-128" font-family="Helvetica,sans-Serif" font-size="10.00">DAnmTransformKeyffiii.s</text>
</a>
</g>
</g>
<!-- Node1&#45;&gt;Node18 -->
<g id="edge17" class="edge">
<title>Node1&#45;&gt;Node18</title>
<path fill="none" stroke="#63b8ff" d="M3782.33,-205.99C3550.37,-203.85 2739.86,-194.3 2457.66,-162.16"/>
<polygon fill="#63b8ff" stroke="#63b8ff" points="2458.07,-158.68 2447.73,-160.99 2457.25,-165.64 2458.07,-158.68"/>
</g>
<!-- Node19 -->
<g id="node19" class="node">
<title>Node19</title>
<g id="a_node19"><a xlink:title=" ">
<polygon fill="#e0e0e0" stroke="#999999" points="2634,-156.5 2464,-156.5 2464,-126.5 2634,-126.5 2634,-156.5"/>
<text text-anchor="start" x="2472" y="-144.5" font-family="Helvetica,sans-Serif" font-size="10.00">asm/a/npc/d_a_npc_cd2</text>
<text text-anchor="middle" x="2549" y="-133.5" font-family="Helvetica,sans-Serif" font-size="10.00">/drawShadow__10daNpcCd2_cFf.s</text>
</a>
</g>
</g>
<!-- Node1&#45;&gt;Node19 -->
<g id="edge18" class="edge">
<title>Node1&#45;&gt;Node19</title>
<path fill="none" stroke="#63b8ff" d="M3782.21,-205.55C3568.11,-202.08 2867.6,-188.9 2644,-162 2637.28,-161.19 2630.33,-160.16 2623.38,-158.98"/>
<polygon fill="#63b8ff" stroke="#63b8ff" points="2624.08,-155.55 2613.62,-157.24 2622.85,-162.44 2624.08,-155.55"/>
</g>
<!-- Node20 -->
<g id="node20" class="node">
<title>Node20</title>
<g id="a_node20"><a xlink:title=" ">
<polygon fill="#e0e0e0" stroke="#999999" points="2775.5,-162 2652.5,-162 2652.5,-121 2775.5,-121 2775.5,-162"/>
<text text-anchor="start" x="2660.5" y="-150" font-family="Helvetica,sans-Serif" font-size="10.00">asm/a/npc/d_a_npc_cd2</text>
<text text-anchor="start" x="2660.5" y="-139" font-family="Helvetica,sans-Serif" font-size="10.00">/drawObj__10daNpcCd2</text>
<text text-anchor="middle" x="2714" y="-128" font-family="Helvetica,sans-Serif" font-size="10.00">_cFiP8J3DModelf.s</text>
</a>
</g>
</g>
<!-- Node1&#45;&gt;Node20 -->
<g id="edge19" class="edge">
<title>Node1&#45;&gt;Node20</title>
<path fill="none" stroke="#63b8ff" d="M3782.08,-205.72C3588.1,-203.04 3000.09,-192.67 2786.86,-162.02"/>
<polygon fill="#63b8ff" stroke="#63b8ff" points="2787.68,-158.6 2777.27,-160.58 2786.64,-165.52 2787.68,-158.6"/>
</g>
<!-- Node21 -->
<g id="node21" class="node">
<title>Node21</title>
<g id="a_node21"><a xlink:title=" ">
<polygon fill="#e0e0e0" stroke="#999999" points="2948.5,-156.5 2793.5,-156.5 2793.5,-126.5 2948.5,-126.5 2948.5,-156.5"/>
<text text-anchor="start" x="2801.5" y="-144.5" font-family="Helvetica,sans-Serif" font-size="10.00">asm/a/npc/d_a_npc_cd2</text>
<text text-anchor="middle" x="2871" y="-133.5" font-family="Helvetica,sans-Serif" font-size="10.00">/drawNpc__10daNpcCd2_cFv.s</text>
</a>
</g>
</g>
<!-- Node1&#45;&gt;Node21 -->
<g id="edge20" class="edge">
<title>Node1&#45;&gt;Node21</title>
<path fill="none" stroke="#63b8ff" d="M3782.02,-207.01C3636.3,-207.39 3264.89,-203.78 2958,-162 2952.3,-161.22 2946.42,-160.26 2940.53,-159.18"/>
<polygon fill="#63b8ff" stroke="#63b8ff" points="2941.22,-155.75 2930.74,-157.28 2939.88,-162.62 2941.22,-155.75"/>
</g>
<!-- Node22 -->
<g id="node22" class="node">
<title>Node22</title>
<g id="a_node22"><a xlink:title=" ">
<polygon fill="#e0e0e0" stroke="#999999" points="3113,-162 2967,-162 2967,-121 3113,-121 3113,-162"/>
<text text-anchor="start" x="2975" y="-150" font-family="Helvetica,sans-Serif" font-size="10.00">asm/a/npc/d_a_npc_cd2</text>
<text text-anchor="start" x="2975" y="-139" font-family="Helvetica,sans-Serif" font-size="10.00">/jntNodeCB__10daNpcCd2</text>
<text text-anchor="middle" x="3040" y="-128" font-family="Helvetica,sans-Serif" font-size="10.00">_cFP8J3DJointP8J3DModel.s</text>
</a>
</g>
</g>
<!-- Node1&#45;&gt;Node22 -->
<g id="edge21" class="edge">
<title>Node1&#45;&gt;Node22</title>
<path fill="none" stroke="#63b8ff" d="M3782.34,-206.19C3658.47,-204.82 3373.48,-197.83 3124.28,-162.02"/>
<polygon fill="#63b8ff" stroke="#63b8ff" points="3125.09,-158.6 3114.69,-160.62 3124.08,-165.53 3125.09,-158.6"/>
</g>
<!-- Node23 -->
<g id="node23" class="node">
<title>Node23</title>
<g id="a_node23"><a xlink:title=" ">
<polygon fill="#e0e0e0" stroke="#999999" points="3254.5,-162 3131.5,-162 3131.5,-121 3254.5,-121 3254.5,-162"/>
<text text-anchor="start" x="3139.5" y="-150" font-family="Helvetica,sans-Serif" font-size="10.00">asm/a/npc/d_a_npc_cd2</text>
<text text-anchor="start" x="3139.5" y="-139" font-family="Helvetica,sans-Serif" font-size="10.00">/setHitodamaParticle</text>
<text text-anchor="middle" x="3193" y="-128" font-family="Helvetica,sans-Serif" font-size="10.00">__10daNpcCd2_cFv.s</text>
</a>
</g>
</g>
<!-- Node1&#45;&gt;Node23 -->
<g id="edge22" class="edge">
<title>Node1&#45;&gt;Node23</title>
<path fill="none" stroke="#63b8ff" d="M3782.18,-205.62C3677.12,-203.29 3459.13,-194.8 3266.02,-162.15"/>
<polygon fill="#63b8ff" stroke="#63b8ff" points="3266.74,-158.72 3256.29,-160.48 3265.55,-165.62 3266.74,-158.72"/>
</g>
<!-- Node24 -->
<g id="node24" class="node">
<title>Node24</title>
<g id="a_node24"><a xlink:title=" ">
<polygon fill="#e0e0e0" stroke="#999999" points="3395.5,-156.5 3272.5,-156.5 3272.5,-126.5 3395.5,-126.5 3395.5,-156.5"/>
<text text-anchor="start" x="3280.5" y="-144.5" font-family="Helvetica,sans-Serif" font-size="10.00">asm/a/npc/d_a_npc_cd2</text>
<text text-anchor="middle" x="3334" y="-133.5" font-family="Helvetica,sans-Serif" font-size="10.00">/s_sub1__FPvPv.s</text>
</a>
</g>
</g>
<!-- Node1&#45;&gt;Node24 -->
<g id="edge23" class="edge">
<title>Node1&#45;&gt;Node24</title>
<path fill="none" stroke="#63b8ff" d="M3782.23,-203.46C3696.44,-198.55 3538.03,-186.81 3405,-162 3401.18,-161.29 3397.26,-160.47 3393.33,-159.58"/>
<polygon fill="#63b8ff" stroke="#63b8ff" points="3394.27,-156.2 3383.72,-157.27 3392.63,-163.01 3394.27,-156.2"/>
</g>
<!-- Node25 -->
<g id="node25" class="node">
<title>Node25</title>
<g id="a_node25"><a xlink:title=" ">
<polygon fill="#e0e0e0" stroke="#999999" points="3592,-156.5 3414,-156.5 3414,-126.5 3592,-126.5 3592,-156.5"/>
<text text-anchor="start" x="3422" y="-144.5" font-family="Helvetica,sans-Serif" font-size="10.00">asm/a/npc/d_a_npc_cd2</text>
<text text-anchor="middle" x="3503" y="-133.5" font-family="Helvetica,sans-Serif" font-size="10.00">/getEscapeTag__10daNpcCd2_cFv.s</text>
</a>
</g>
</g>
<!-- Node1&#45;&gt;Node25 -->
<g id="edge24" class="edge">
<title>Node1&#45;&gt;Node25</title>
<path fill="none" stroke="#63b8ff" d="M3795.17,-197.58C3746.02,-188.73 3668.78,-174.69 3602,-162 3597.12,-161.07 3592.12,-160.11 3587.06,-159.14"/>
<polygon fill="#63b8ff" stroke="#63b8ff" points="3587.94,-155.74 3577.45,-157.27 3586.6,-162.61 3587.94,-155.74"/>
</g>
<!-- Node26 -->
<g id="node26" class="node">
<title>Node26</title>
<g id="a_node26"><a xlink:title=" ">
<polygon fill="#e0e0e0" stroke="#999999" points="3733.5,-162 3610.5,-162 3610.5,-121 3733.5,-121 3733.5,-162"/>
<text text-anchor="start" x="3618.5" y="-150" font-family="Helvetica,sans-Serif" font-size="10.00">asm/a/npc/d_a_npc_cd2</text>
<text text-anchor="start" x="3618.5" y="-139" font-family="Helvetica,sans-Serif" font-size="10.00">/checkFearSituation_</text>
<text text-anchor="middle" x="3672" y="-128" font-family="Helvetica,sans-Serif" font-size="10.00">_10daNpcCd2_cFv.s</text>
</a>
</g>
</g>
<!-- Node1&#45;&gt;Node26 -->
<g id="edge25" class="edge">
<title>Node1&#45;&gt;Node26</title>
<path fill="none" stroke="#63b8ff" d="M3820.95,-197.6C3799.12,-189.53 3765.92,-177.25 3736.41,-166.33"/>
<polygon fill="#63b8ff" stroke="#63b8ff" points="3737.74,-163.09 3727.15,-162.9 3735.31,-169.65 3737.74,-163.09"/>
</g>
<!-- Node27 -->
<g id="node27" class="node">
<title>Node27</title>
<g id="a_node27"><a xlink:title=" ">
<polygon fill="#e0e0e0" stroke="#999999" points="3938.5,-156.5 3751.5,-156.5 3751.5,-126.5 3938.5,-126.5 3938.5,-156.5"/>
<text text-anchor="start" x="3759.5" y="-144.5" font-family="Helvetica,sans-Serif" font-size="10.00">asm/a/npc/d_a_npc_cd2</text>
<text text-anchor="middle" x="3845" y="-133.5" font-family="Helvetica,sans-Serif" font-size="10.00">/getNpcMdlDataP__10daNpcCd2_cFi.s</text>
</a>
</g>
</g>
<!-- Node1&#45;&gt;Node27 -->
<g id="edge26" class="edge">
<title>Node1&#45;&gt;Node27</title>
<path fill="none" stroke="#63b8ff" d="M3845,-197.6C3845,-189.91 3845,-178.42 3845,-167.92"/>
<polygon fill="#63b8ff" stroke="#63b8ff" points="3848.5,-168.25 3845,-158.25 3841.5,-168.25 3848.5,-168.25"/>
</g>
<!-- Node28 -->
<g id="node28" class="node">
<title>Node28</title>
<g id="a_node28"><a xlink:title=" ">
<polygon fill="#e0e0e0" stroke="#999999" points="4141,-156.5 3957,-156.5 3957,-126.5 4141,-126.5 4141,-156.5"/>
<text text-anchor="start" x="3965" y="-144.5" font-family="Helvetica,sans-Serif" font-size="10.00">asm/a/npc/d_a_npc_cd2</text>
<text text-anchor="middle" x="4049" y="-133.5" font-family="Helvetica,sans-Serif" font-size="10.00">/getObjMdlDataP__10daNpcCd2_cFi.s</text>
</a>
</g>
</g>
<!-- Node1&#45;&gt;Node28 -->
<g id="edge27" class="edge">
<title>Node1&#45;&gt;Node28</title>
<path fill="none" stroke="#63b8ff" d="M3873.37,-197.6C3903.99,-187.99 3953.57,-172.44 3992.25,-160.3"/>
<polygon fill="#63b8ff" stroke="#63b8ff" points="3992.91,-163.76 4001.41,-157.43 3990.82,-157.08 3992.91,-163.76"/>
</g>
<!-- Node29 -->
<g id="node29" class="node">
<title>Node29</title>
<g id="a_node29"><a xlink:title=" ">
<polygon fill="#e0e0e0" stroke="#999999" points="4328.5,-156.5 4159.5,-156.5 4159.5,-126.5 4328.5,-126.5 4328.5,-156.5"/>
<text text-anchor="start" x="4167.5" y="-144.5" font-family="Helvetica,sans-Serif" font-size="10.00">asm/a/npc/d_a_npc_cd2</text>
<text text-anchor="middle" x="4244" y="-133.5" font-family="Helvetica,sans-Serif" font-size="10.00">/getTexAnmP__10daNpcCd2_cFi.s</text>
</a>
</g>
</g>
<!-- Node1&#45;&gt;Node29 -->
<g id="edge28" class="edge">
<title>Node1&#45;&gt;Node29</title>
<path fill="none" stroke="#63b8ff" d="M3907.97,-198.43C3969.77,-190.25 4066.61,-176.72 4150,-162 4155.12,-161.1 4160.38,-160.12 4165.68,-159.11"/>
<polygon fill="#63b8ff" stroke="#63b8ff" points="4165.94,-162.63 4175.09,-157.28 4164.6,-155.76 4165.94,-162.63"/>
</g>
<!-- Node30 -->
<g id="node30" class="node">
<title>Node30</title>
<g id="a_node30"><a xlink:title=" ">
<polygon fill="#e0e0e0" stroke="#999999" points="4469.5,-162 4346.5,-162 4346.5,-121 4469.5,-121 4469.5,-162"/>
<text text-anchor="start" x="4354.5" y="-150" font-family="Helvetica,sans-Serif" font-size="10.00">asm/a/npc/d_a_npc_cd2</text>
<text text-anchor="start" x="4354.5" y="-139" font-family="Helvetica,sans-Serif" font-size="10.00">/setPath__11PathTrace</text>
<text text-anchor="middle" x="4408" y="-128" font-family="Helvetica,sans-Serif" font-size="10.00">_cFiiiP4cXyzb.s</text>
</a>
</g>
</g>
<!-- Node1&#45;&gt;Node30 -->
<g id="edge29" class="edge">
<title>Node1&#45;&gt;Node30</title>
<path fill="none" stroke="#63b8ff" d="M3907.75,-204.48C3999.78,-200.72 4176.81,-190.45 4335.4,-162.31"/>
<polygon fill="#63b8ff" stroke="#63b8ff" points="4335.6,-165.83 4344.82,-160.61 4334.35,-158.94 4335.6,-165.83"/>
</g>
<!-- Node31 -->
<g id="node31" class="node">
<title>Node31</title>
<g id="a_node31"><a xlink:title=" ">
<polygon fill="#e0e0e0" stroke="#999999" points="4622,-162 4488,-162 4488,-121 4622,-121 4622,-162"/>
<text text-anchor="start" x="4496" y="-150" font-family="Helvetica,sans-Serif" font-size="10.00">asm/a/npc/d_a_npc_cd2</text>
<text text-anchor="start" x="4496" y="-139" font-family="Helvetica,sans-Serif" font-size="10.00">/checkPoint__11PathTrace</text>
<text text-anchor="middle" x="4555" y="-128" font-family="Helvetica,sans-Serif" font-size="10.00">_cF4cXyzf.s</text>
</a>
</g>
</g>
<!-- Node1&#45;&gt;Node31 -->
<g id="edge30" class="edge">
<title>Node1&#45;&gt;Node31</title>
<path fill="none" stroke="#63b8ff" d="M3907.97,-205.85C4020.45,-203.86 4263.3,-195.85 4476.5,-162.25"/>
<polygon fill="#63b8ff" stroke="#63b8ff" points="4476.77,-165.75 4486.09,-160.71 4475.67,-158.84 4476.77,-165.75"/>
</g>
<!-- Node32 -->
<g id="node32" class="node">
<title>Node32</title>
<g id="a_node32"><a xlink:title=" ">
<polygon fill="#e0e0e0" stroke="#999999" points="4789.5,-162 4640.5,-162 4640.5,-121 4789.5,-121 4789.5,-162"/>
<text text-anchor="start" x="4648.5" y="-150" font-family="Helvetica,sans-Serif" font-size="10.00">asm/a/npc/d_a_npc_cd2</text>
<text text-anchor="start" x="4648.5" y="-139" font-family="Helvetica,sans-Serif" font-size="10.00">/checkPathEnd__11PathTrace</text>
<text text-anchor="middle" x="4715" y="-128" font-family="Helvetica,sans-Serif" font-size="10.00">_cF4cXyzf.s</text>
</a>
</g>
</g>
<!-- Node1&#45;&gt;Node32 -->
<g id="edge31" class="edge">
<title>Node1&#45;&gt;Node32</title>
<path fill="none" stroke="#63b8ff" d="M3907.77,-206.59C4039.64,-205.99 4355.18,-200.42 4628.67,-162.19"/>
<polygon fill="#63b8ff" stroke="#63b8ff" points="4629.11,-165.66 4638.52,-160.79 4628.12,-158.73 4629.11,-165.66"/>
</g>
<!-- Node33 -->
<g id="node33" class="node">
<title>Node33</title>
<g id="a_node33"><a xlink:title=" ">
<polygon fill="#e0e0e0" stroke="#999999" points="4956.5,-162 4807.5,-162 4807.5,-121 4956.5,-121 4956.5,-162"/>
<text text-anchor="start" x="4815.5" y="-150" font-family="Helvetica,sans-Serif" font-size="10.00">asm/a/npc/d_a_npc_cd2</text>
<text text-anchor="start" x="4815.5" y="-139" font-family="Helvetica,sans-Serif" font-size="10.00">/getTargetPoint__11PathTrace</text>
<text text-anchor="middle" x="4882" y="-128" font-family="Helvetica,sans-Serif" font-size="10.00">_cFP3Vec.s</text>
</a>
</g>
</g>
<!-- Node1&#45;&gt;Node33 -->
<g id="edge32" class="edge">
<title>Node1&#45;&gt;Node33</title>
<path fill="none" stroke="#63b8ff" d="M3907.99,-205.08C4088.23,-200.77 4604.82,-186.72 4795.73,-162.28"/>
<polygon fill="#63b8ff" stroke="#63b8ff" points="4796.07,-165.77 4805.52,-160.97 4795.14,-158.83 4796.07,-165.77"/>
</g>
<!-- Node34 -->
<g id="node34" class="node">
<title>Node34</title>
<g id="a_node34"><a xlink:title=" ">
<polygon fill="#e0e0e0" stroke="#999999" points="5151,-156.5 4975,-156.5 4975,-126.5 5151,-126.5 5151,-156.5"/>
<text text-anchor="start" x="4983" y="-144.5" font-family="Helvetica,sans-Serif" font-size="10.00">asm/a/npc/d_a_npc_cd2</text>
<text text-anchor="middle" x="5063" y="-133.5" font-family="Helvetica,sans-Serif" font-size="10.00">/setAvoidPoint__11PathTrace_cFv.s</text>
</a>
</g>
</g>
<!-- Node1&#45;&gt;Node34 -->
<g id="edge33" class="edge">
<title>Node1&#45;&gt;Node34</title>
<path fill="none" stroke="#63b8ff" d="M3907.83,-205.32C4112.5,-201.27 4758.71,-186.79 4966,-162 4972.88,-161.18 4980.01,-160.13 4987.13,-158.95"/>
<polygon fill="#63b8ff" stroke="#63b8ff" points="4987.53,-162.43 4996.78,-157.25 4986.32,-155.53 4987.53,-162.43"/>
</g>
<!-- Node35 -->
<g id="node35" class="node">
<title>Node35</title>
<g id="a_node35"><a xlink:title=" ">
<polygon fill="#e0e0e0" stroke="#999999" points="5311,-162 5169,-162 5169,-121 5311,-121 5311,-162"/>
<text text-anchor="start" x="5177" y="-150" font-family="Helvetica,sans-Serif" font-size="10.00">asm/a/npc/d_a_npc_cd2</text>
<text text-anchor="start" x="5177" y="-139" font-family="Helvetica,sans-Serif" font-size="10.00">/setNextPoint__11PathTrace</text>
<text text-anchor="middle" x="5240" y="-128" font-family="Helvetica,sans-Serif" font-size="10.00">_cFR4cXyz.s</text>
</a>
</g>
</g>
<!-- Node1&#45;&gt;Node35 -->
<g id="edge34" class="edge">
<title>Node1&#45;&gt;Node35</title>
<path fill="none" stroke="#63b8ff" d="M3907.8,-206.08C4131.76,-204.33 4891.67,-196.07 5157.47,-162.15"/>
<polygon fill="#63b8ff" stroke="#63b8ff" points="5157.66,-165.65 5167.11,-160.87 5156.74,-158.71 5157.66,-165.65"/>
</g>
<!-- Node36 -->
<g id="node36" class="node">
<title>Node36</title>
<g id="a_node36"><a xlink:title=" ">
<polygon fill="#e0e0e0" stroke="#999999" points="5500.5,-156.5 5329.5,-156.5 5329.5,-126.5 5500.5,-126.5 5500.5,-156.5"/>
<text text-anchor="start" x="5337.5" y="-144.5" font-family="Helvetica,sans-Serif" font-size="10.00">asm/a/npc/d_a_npc_cd2</text>
<text text-anchor="middle" x="5415" y="-133.5" font-family="Helvetica,sans-Serif" font-size="10.00">/setNextPoint__11PathTrace_cFv.s</text>
</a>
</g>
</g>
<!-- Node1&#45;&gt;Node36 -->
<g id="edge35" class="edge">
<title>Node1&#45;&gt;Node36</title>
<path fill="none" stroke="#63b8ff" d="M3907.7,-206.05C4151.95,-204.06 5040.09,-194.7 5320,-162 5326.86,-161.2 5333.96,-160.15 5341.05,-158.96"/>
<polygon fill="#63b8ff" stroke="#63b8ff" points="5341.42,-162.45 5350.65,-157.25 5340.19,-155.56 5341.42,-162.45"/>
</g>
<!-- Node37 -->
<g id="node37" class="node">
<title>Node37</title>
<g id="a_node37"><a xlink:title=" ">
<polygon fill="#e0e0e0" stroke="#999999" points="5667,-156.5 5519,-156.5 5519,-126.5 5667,-126.5 5667,-156.5"/>
<text text-anchor="start" x="5527" y="-144.5" font-family="Helvetica,sans-Serif" font-size="10.00">asm/a/npc/d_a_npc_cd2</text>
<text text-anchor="middle" x="5593" y="-133.5" font-family="Helvetica,sans-Serif" font-size="10.00">/incIndex__11PathTrace_cFi.s</text>
</a>
</g>
</g>
<!-- Node1&#45;&gt;Node37 -->
<g id="edge36" class="edge">
<title>Node1&#45;&gt;Node37</title>
<path fill="none" stroke="#63b8ff" d="M3907.57,-206.53C4171.05,-206.42 5191.32,-203.25 5510,-162 5515.64,-161.27 5521.45,-160.32 5527.26,-159.23"/>
<polygon fill="#63b8ff" stroke="#63b8ff" points="5527.78,-162.7 5536.89,-157.3 5526.4,-155.84 5527.78,-162.7"/>
</g>
<!-- Node38 -->
<g id="node38" class="node">
<title>Node38</title>
<g id="a_node38"><a xlink:title=" ">
<polygon fill="#e0e0e0" stroke="#999999" points="5836.5,-156.5 5685.5,-156.5 5685.5,-126.5 5836.5,-126.5 5836.5,-156.5"/>
<text text-anchor="start" x="5693.5" y="-144.5" font-family="Helvetica,sans-Serif" font-size="10.00">asm/a/npc/d_a_npc_cd2</text>
<text text-anchor="middle" x="5761" y="-133.5" font-family="Helvetica,sans-Serif" font-size="10.00">/decIndex__11PathTrace_cFi.s</text>
</a>
</g>
</g>
<!-- Node1&#45;&gt;Node38 -->
<g id="edge37" class="edge">
<title>Node1&#45;&gt;Node38</title>
<path fill="none" stroke="#63b8ff" d="M3907.58,-206.67C4187.07,-207.16 5322.84,-206.34 5676,-162 5682.01,-161.25 5688.22,-160.25 5694.41,-159.11"/>
<polygon fill="#63b8ff" stroke="#63b8ff" points="5694.89,-162.58 5704.02,-157.21 5693.53,-155.72 5694.89,-162.58"/>
</g>
<!-- Node39 -->
<g id="node39" class="node">
<title>Node39</title>
<g id="a_node39"><a xlink:title=" ">
<polygon fill="#e0e0e0" stroke="#999999" points="5977.5,-156.5 5854.5,-156.5 5854.5,-126.5 5977.5,-126.5 5977.5,-156.5"/>
<text text-anchor="start" x="5862.5" y="-144.5" font-family="Helvetica,sans-Serif" font-size="10.00">asm/a/npc/d_a_npc_cd2</text>
<text text-anchor="middle" x="5916" y="-133.5" font-family="Helvetica,sans-Serif" font-size="10.00">/s_sub__FPvPv.s</text>
</a>
</g>
</g>
<!-- Node1&#45;&gt;Node39 -->
<g id="edge38" class="edge">
<title>Node1&#45;&gt;Node39</title>
<path fill="none" stroke="#63b8ff" d="M3907.92,-206.03C4226.13,-203.55 5650.77,-190.9 5846,-162 5850.37,-161.35 5854.85,-160.52 5859.33,-159.56"/>
<polygon fill="#63b8ff" stroke="#63b8ff" points="5860.01,-163 5868.94,-157.3 5858.41,-156.18 5860.01,-163"/>
</g>
<!-- Node40 -->
<g id="node40" class="node">
<title>Node40</title>
<g id="a_node40"><a xlink:title=" ">
<polygon fill="#e0e0e0" stroke="#999999" points="6146.5,-162 5995.5,-162 5995.5,-121 6146.5,-121 6146.5,-162"/>
<text text-anchor="start" x="6003.5" y="-150" font-family="Helvetica,sans-Serif" font-size="10.00">asm/a/npc/d_a_npc_cd2</text>
<text text-anchor="start" x="6003.5" y="-139" font-family="Helvetica,sans-Serif" font-size="10.00">/checkObstacle__11PathTrace</text>
<text text-anchor="middle" x="6071" y="-128" font-family="Helvetica,sans-Serif" font-size="10.00">_cFP10fopAc_ac_c.s</text>
</a>
</g>
</g>
<!-- Node1&#45;&gt;Node40 -->
<g id="edge39" class="edge">
<title>Node1&#45;&gt;Node40</title>
<path fill="none" stroke="#63b8ff" d="M3907.9,-205.97C4234.21,-203.12 5728.71,-188.79 5983.91,-162.14"/>
<polygon fill="#63b8ff" stroke="#63b8ff" points="5984.08,-165.64 5993.62,-161.03 5983.28,-158.69 5984.08,-165.64"/>
</g>
<!-- Node41 -->
<g id="node41" class="node">
<title>Node41</title>
<g id="a_node41"><a xlink:title=" ">
<polygon fill="#e0e0e0" stroke="#999999" points="6333,-162 6165,-162 6165,-121 6333,-121 6333,-162"/>
<text text-anchor="start" x="6173" y="-150" font-family="Helvetica,sans-Serif" font-size="10.00">asm/a/npc/d_a_npc_cd2</text>
<text text-anchor="start" x="6173" y="-139" font-family="Helvetica,sans-Serif" font-size="10.00">/checkObstacleSub__11PathTrace</text>
<text text-anchor="middle" x="6249" y="-128" font-family="Helvetica,sans-Serif" font-size="10.00">_cFP10fopAc_ac_c.s</text>
</a>
</g>
</g>
<!-- Node1&#45;&gt;Node41 -->
<g id="edge40" class="edge">
<title>Node1&#45;&gt;Node41</title>
<path fill="none" stroke="#63b8ff" d="M3907.94,-205.99C4249.89,-203.15 5878.76,-188.37 6153.37,-162.07"/>
<polygon fill="#63b8ff" stroke="#63b8ff" points="6153.62,-165.56 6163.21,-161.05 6152.9,-158.6 6153.62,-165.56"/>
</g>
<!-- Node42 -->
<g id="node42" class="node">
<title>Node42</title>
<g id="a_node42"><a xlink:title=" ">
<polygon fill="#e0e0e0" stroke="#999999" points="6509,-156.5 6351,-156.5 6351,-126.5 6509,-126.5 6509,-156.5"/>
<text text-anchor="start" x="6359" y="-144.5" font-family="Helvetica,sans-Serif" font-size="10.00">asm/a/npc/d_a_npc_cd2</text>
<text text-anchor="middle" x="6430" y="-133.5" font-family="Helvetica,sans-Serif" font-size="10.00">/__ct__14daNpcCd2_HIO_cFv.s</text>
</a>
</g>
</g>
<!-- Node1&#45;&gt;Node42 -->
<g id="edge41" class="edge">
<title>Node1&#45;&gt;Node42</title>
<path fill="none" stroke="#63b8ff" d="M3907.89,-206.13C4271.21,-203.91 6094.09,-191.38 6342,-162 6348.37,-161.25 6354.96,-160.23 6361.53,-159.06"/>
<polygon fill="#63b8ff" stroke="#63b8ff" points="6361.88,-162.56 6371.05,-157.25 6360.57,-155.68 6361.88,-162.56"/>
</g>
<!-- Node43 -->
<g id="node43" class="node">
<title>Node43</title>
<g id="a_node43"><a xlink:title=" ">
<polygon fill="#e0e0e0" stroke="#999999" points="6655,-162 6527,-162 6527,-121 6655,-121 6655,-162"/>
<text text-anchor="start" x="6535" y="-150" font-family="Helvetica,sans-Serif" font-size="10.00">asm/a/npc/d_a_npc_cd2</text>
<text text-anchor="start" x="6535" y="-139" font-family="Helvetica,sans-Serif" font-size="10.00">/__dt__21daNpcCd2_HIO</text>
<text text-anchor="middle" x="6591" y="-128" font-family="Helvetica,sans-Serif" font-size="10.00">_WChild_cFv.s</text>
</a>
</g>
</g>
<!-- Node1&#45;&gt;Node43 -->
<g id="edge42" class="edge">
<title>Node1&#45;&gt;Node43</title>
<path fill="none" stroke="#63b8ff" d="M3907.98,-206.37C4281.74,-205.5 6202.67,-199.28 6515.43,-162.04"/>
<polygon fill="#63b8ff" stroke="#63b8ff" points="6515.72,-165.54 6525.19,-160.79 6514.82,-158.59 6515.72,-165.54"/>
</g>
<!-- Node44 -->
<g id="node44" class="node">
<title>Node44</title>
<g id="a_node44"><a xlink:title=" ">
<polygon fill="#e0e0e0" stroke="#999999" points="6801,-162 6673,-162 6673,-121 6801,-121 6801,-162"/>
<text text-anchor="start" x="6681" y="-150" font-family="Helvetica,sans-Serif" font-size="10.00">asm/a/npc/d_a_npc_cd2</text>
<text text-anchor="start" x="6681" y="-139" font-family="Helvetica,sans-Serif" font-size="10.00">/__dt__18daNpcCd2_HIO</text>
<text text-anchor="middle" x="6737" y="-128" font-family="Helvetica,sans-Serif" font-size="10.00">_Jnt_cFv.s</text>
</a>
</g>
</g>
<!-- Node1&#45;&gt;Node44 -->
<g id="edge43" class="edge">
<title>Node1&#45;&gt;Node44</title>
<path fill="none" stroke="#63b8ff" d="M3907.9,-206.43C4293.55,-205.89 6332.33,-201.26 6661.28,-162.06"/>
<polygon fill="#63b8ff" stroke="#63b8ff" points="6661.72,-165.54 6671.19,-160.79 6660.82,-158.59 6661.72,-165.54"/>
</g>
<!-- Node45 -->
<g id="node45" class="node">
<title>Node45</title>
<g id="a_node45"><a xlink:title=" ">
<polygon fill="#e0e0e0" stroke="#999999" points="6947,-162 6819,-162 6819,-121 6947,-121 6947,-162"/>
<text text-anchor="start" x="6827" y="-150" font-family="Helvetica,sans-Serif" font-size="10.00">asm/a/npc/d_a_npc_cd2</text>
<text text-anchor="start" x="6827" y="-139" font-family="Helvetica,sans-Serif" font-size="10.00">/__ct__21daNpcCd2_HIO</text>
<text text-anchor="middle" x="6883" y="-128" font-family="Helvetica,sans-Serif" font-size="10.00">_WChild_cFv.s</text>
</a>
</g>
</g>
<!-- Node1&#45;&gt;Node45 -->
<g id="edge44" class="edge">
<title>Node1&#45;&gt;Node45</title>
<path fill="none" stroke="#63b8ff" d="M3907.88,-206.48C4305.34,-206.27 6463.27,-203.24 6807.44,-162.05"/>
<polygon fill="#63b8ff" stroke="#63b8ff" points="6807.72,-165.54 6817.19,-160.79 6806.82,-158.6 6807.72,-165.54"/>
</g>
<!-- Node46 -->
<g id="node46" class="node">
<title>Node46</title>
<g id="a_node46"><a xlink:title=" ">
<polygon fill="#e0e0e0" stroke="#999999" points="7093,-162 6965,-162 6965,-121 7093,-121 7093,-162"/>
<text text-anchor="start" x="6973" y="-150" font-family="Helvetica,sans-Serif" font-size="10.00">asm/a/npc/d_a_npc_cd2</text>
<text text-anchor="start" x="6973" y="-139" font-family="Helvetica,sans-Serif" font-size="10.00">/__ct__18daNpcCd2_HIO</text>
<text text-anchor="middle" x="7029" y="-128" font-family="Helvetica,sans-Serif" font-size="10.00">_Jnt_cFv.s</text>
</a>
</g>
</g>
<!-- Node1&#45;&gt;Node46 -->
<g id="edge45" class="edge">
<title>Node1&#45;&gt;Node46</title>
<path fill="none" stroke="#63b8ff" d="M3907.94,-206.53C4317.1,-206.62 6593.45,-205.22 6953.41,-162.05"/>
<polygon fill="#63b8ff" stroke="#63b8ff" points="6953.72,-165.54 6963.19,-160.79 6952.82,-158.6 6953.72,-165.54"/>
</g>
<!-- Node47 -->
<g id="node47" class="node">
<title>Node47</title>
<g id="a_node47"><a xlink:title=" ">
<polygon fill="#e0e0e0" stroke="#999999" points="7239,-162 7111,-162 7111,-121 7239,-121 7239,-162"/>
<text text-anchor="start" x="7119" y="-150" font-family="Helvetica,sans-Serif" font-size="10.00">asm/a/npc/d_a_npc_cd2</text>
<text text-anchor="start" x="7119" y="-139" font-family="Helvetica,sans-Serif" font-size="10.00">/__dt__21daNpcCd2_HIO</text>
<text text-anchor="middle" x="7175" y="-128" font-family="Helvetica,sans-Serif" font-size="10.00">_MChild_cFv.s</text>
</a>
</g>
</g>
<!-- Node1&#45;&gt;Node47 -->
<g id="edge46" class="edge">
<title>Node1&#45;&gt;Node47</title>
<path fill="none" stroke="#63b8ff" d="M3907.79,-206.58C4327.81,-206.96 6723.76,-207.22 7099.42,-162.06"/>
<polygon fill="#63b8ff" stroke="#63b8ff" points="7099.72,-165.55 7109.19,-160.8 7098.82,-158.6 7099.72,-165.55"/>
</g>
<!-- Node48 -->
<g id="node48" class="node">
<title>Node48</title>
<g id="a_node48"><a xlink:title=" ">
<polygon fill="#e0e0e0" stroke="#999999" points="7385,-162 7257,-162 7257,-121 7385,-121 7385,-162"/>
<text text-anchor="start" x="7265" y="-150" font-family="Helvetica,sans-Serif" font-size="10.00">asm/a/npc/d_a_npc_cd2</text>
<text text-anchor="start" x="7265" y="-139" font-family="Helvetica,sans-Serif" font-size="10.00">/__ct__21daNpcCd2_HIO</text>
<text text-anchor="middle" x="7321" y="-128" font-family="Helvetica,sans-Serif" font-size="10.00">_MChild_cFv.s</text>
</a>
</g>
</g>
<!-- Node1&#45;&gt;Node48 -->
<g id="edge47" class="edge">
<title>Node1&#45;&gt;Node48</title>
<path fill="none" stroke="#63b8ff" d="M3907.79,-206.62C4338.81,-207.29 6854.33,-209.21 7245.48,-162.05"/>
<polygon fill="#63b8ff" stroke="#63b8ff" points="7245.72,-165.55 7255.19,-160.8 7244.82,-158.61 7245.72,-165.55"/>
</g>
<!-- Node49 -->
<g id="node49" class="node">
<title>Node49</title>
<g id="a_node49"><a xlink:title=" ">
<polygon fill="#e0e0e0" stroke="#999999" points="7561,-156.5 7403,-156.5 7403,-126.5 7561,-126.5 7561,-156.5"/>
<text text-anchor="start" x="7411" y="-144.5" font-family="Helvetica,sans-Serif" font-size="10.00">asm/a/npc/d_a_npc_cd2</text>
<text text-anchor="middle" x="7482" y="-133.5" font-family="Helvetica,sans-Serif" font-size="10.00">/__dt__14daNpcCd2_HIO_cFv.s</text>
</a>
</g>
</g>
<!-- Node1&#45;&gt;Node49 -->
<g id="edge48" class="edge">
<title>Node1&#45;&gt;Node49</title>
<path fill="none" stroke="#63b8ff" d="M3907.94,-206.49C4354.39,-206.32 7035.06,-203.57 7394,-162 7400.47,-161.25 7407.17,-160.23 7413.84,-159.04"/>
<polygon fill="#63b8ff" stroke="#63b8ff" points="7414.36,-162.51 7423.53,-157.2 7413.05,-155.63 7414.36,-162.51"/>
</g>
<!-- Node50 -->
<g id="node50" class="node">
<title>Node50</title>
<g id="a_node50"><a xlink:title=" ">
<polygon fill="#e0e0e0" stroke="#999999" points="7719,-156.5 7579,-156.5 7579,-126.5 7719,-126.5 7719,-156.5"/>
<text text-anchor="start" x="7587" y="-144.5" font-family="Helvetica,sans-Serif" font-size="10.00">asm/a/npc/d_a_npc_cd2</text>
<text text-anchor="middle" x="7649" y="-133.5" font-family="Helvetica,sans-Serif" font-size="10.00">/__sinit_d_a_npc_cd2_cpp.s</text>
</a>
</g>
</g>
<!-- Node1&#45;&gt;Node50 -->
<g id="edge49" class="edge">
<title>Node1&#45;&gt;Node50</title>
<path fill="none" stroke="#63b8ff" d="M3907.74,-206.62C4366.23,-207.39 7192.89,-210.14 7570,-162 7575.55,-161.29 7581.27,-160.34 7586.99,-159.23"/>
<polygon fill="#63b8ff" stroke="#63b8ff" points="7587.36,-162.72 7596.42,-157.24 7585.92,-155.87 7587.36,-162.72"/>
</g>
<!-- Node3 -->
<g id="node3" class="node">
<title>Node3</title>
<g id="a_node3"><a xlink:href="types_8h.html" target="_top" xlink:title=" ">
<polygon fill="white" stroke="#666666" points="108.5,-85 27.5,-85 27.5,-66 108.5,-66 108.5,-85"/>
<text text-anchor="middle" x="68" y="-73" font-family="Helvetica,sans-Serif" font-size="10.00">dolphin/types.h</text>
</a>
</g>
</g>
<!-- Node2&#45;&gt;Node3 -->
<g id="edge2" class="edge">
<title>Node2&#45;&gt;Node3</title>
<path fill="none" stroke="#63b8ff" d="M68,-131.6C68,-122.62 68,-108.45 68,-96.72"/>
<polygon fill="#63b8ff" stroke="#63b8ff" points="71.5,-96.84 68,-86.84 64.5,-96.84 71.5,-96.84"/>
</g>
<!-- Node4 -->
<g id="node4" class="node">
<title>Node4</title>
<g id="a_node4"><a xlink:href="stddef_8h.html" target="_top" xlink:title=" ">
<polygon fill="white" stroke="#666666" points="136,-30 0,-30 0,0 136,0 136,-30"/>
<text text-anchor="start" x="8" y="-18" font-family="Helvetica,sans-Serif" font-size="10.00">MSL_C/MSL_Common/Src</text>
<text text-anchor="middle" x="68" y="-7" font-family="Helvetica,sans-Serif" font-size="10.00">/stddef.h</text>
</a>
</g>
</g>
<!-- Node3&#45;&gt;Node4 -->
<g id="edge3" class="edge">
<title>Node3&#45;&gt;Node4</title>
<path fill="none" stroke="#63b8ff" d="M68,-65.87C68,-59.4 68,-50.2 68,-41.45"/>
<polygon fill="#63b8ff" stroke="#63b8ff" points="71.5,-41.63 68,-31.63 64.5,-41.63 71.5,-41.63"/>
</g>
</g>
</svg>
