<?xml version="1.0" encoding="UTF-8" standalone="no"?>
<!DOCTYPE svg PUBLIC "-//W3C//DTD SVG 1.1//EN"
 "http://www.w3.org/Graphics/SVG/1.1/DTD/svg11.dtd">
<!-- Generated by graphviz version 7.0.5 (20221223.1930)
 -->
<!-- Title: rel/d/a/obj/d_a_obj_stick/d_a_obj_stick.cpp Pages: 1 -->
<!--zoomable 247 -->
<svg id="main" version="1.1" xmlns="http://www.w3.org/2000/svg" xmlns:xlink="http://www.w3.org/1999/xlink" xml:space="preserve" onload="init(evt)">
<style type="text/css"><![CDATA[
.edge:hover path { stroke: red; }
.edge:hover polygon { stroke: red; fill: red; }
]]></style>
<script type="text/javascript"><![CDATA[
var edges = document.getElementsByTagName('g');
if (edges && edges.length) {
  for (var i=0;i<edges.length;i++) {
    if (edges[i].id.substr(0,4)=='edge') {
      edges[i].setAttribute('class','edge');
    }
  }
}
]]></script>
        <defs>
                <circle id="rim" cx="0" cy="0" r="7"/>
                <circle id="rim2" cx="0" cy="0" r="3.5"/>
                <g id="zoomPlus">
                        <use xlink:href="#rim" fill="#404040">
                                <set attributeName="fill" to="#808080" begin="zoomplus.mouseover" end="zoomplus.mouseout"/>
                        </use>
                        <path d="M-4,0h8M0,-4v8" fill="none" stroke="white" stroke-width="1.5" pointer-events="none"/>
                </g>
                <g id="zoomMin">
                        <use xlink:href="#rim" fill="#404040">
                                <set attributeName="fill" to="#808080" begin="zoomminus.mouseover" end="zoomminus.mouseout"/>
                        </use>
                        <path d="M-4,0h8" fill="none" stroke="white" stroke-width="1.5" pointer-events="none"/>
                </g>
                <g id="dirArrow">
                        <path fill="none" stroke="white" stroke-width="1.5" d="M0,-3.0v7 M-2.5,-0.5L0,-3.0L2.5,-0.5"/>
                </g>
               <g id="resetDef">
                       <use xlink:href="#rim2" fill="#404040">
                               <set attributeName="fill" to="#808080" begin="reset.mouseover" end="reset.mouseout"/>
                       </use>
               </g>
        </defs>

<script type="text/javascript">
var viewWidth = 4528;
var viewHeight = 247;
var sectionId = 'dynsection-0';
</script>
<script xlink:href="svgpan.js"/>
<svg id="graph" class="graph">
<g id="viewport">
<title>rel/d/a/obj/d_a_obj_stick/d_a_obj_stick.cpp</title>
<!-- Node1 -->
<g id="node1" class="node">
<title>Node1</title>
<g id="a_node1"><a xlink:title=" ">
<polygon fill="#999999" stroke="#666666" points="2178.5,-239 2054.5,-239 2054.5,-209 2178.5,-209 2178.5,-239"/>
<text text-anchor="start" x="2062.5" y="-227" font-family="Helvetica,sans-Serif" font-size="10.00">rel/d/a/obj/d_a_obj</text>
<text text-anchor="middle" x="2116.5" y="-216" font-family="Helvetica,sans-Serif" font-size="10.00">_stick/d_a_obj_stick.cpp</text>
</a>
</g>
</g>
<!-- Node2 -->
<g id="node2" class="node">
<title>Node2</title>
<g id="a_node2"><a xlink:href="d__a__obj__stick_8h.html" target="_top" xlink:title=" ">
<polygon fill="white" stroke="#666666" points="113,-162 0,-162 0,-132 113,-132 113,-162"/>
<text text-anchor="start" x="8" y="-150" font-family="Helvetica,sans-Serif" font-size="10.00">rel/d/a/obj/d_a_obj</text>
<text text-anchor="middle" x="56.5" y="-139" font-family="Helvetica,sans-Serif" font-size="10.00">_stick/d_a_obj_stick.h</text>
</a>
</g>
</g>
<!-- Node1&#45;&gt;Node2 -->
<g id="edge1" class="edge">
<title>Node1&#45;&gt;Node2</title>
<path fill="none" stroke="#63b8ff" d="M2054.18,-222.59C1738.19,-220.37 320.51,-208.49 127.5,-173 118.82,-171.4 109.79,-168.91 101.18,-166.11"/>
<polygon fill="#63b8ff" stroke="#63b8ff" points="102.6,-162.89 92.01,-162.93 100.31,-169.51 102.6,-162.89"/>
</g>
<!-- Node3 -->
<g id="node3" class="node">
<title>Node3</title>
<g id="a_node3"><a xlink:href="types_8h.html" target="_top" xlink:title=" ">
<polygon fill="white" stroke="#666666" points="139,-85 58,-85 58,-66 139,-66 139,-85"/>
<text text-anchor="middle" x="98.5" y="-73" font-family="Helvetica,sans-Serif" font-size="10.00">dolphin/types.h</text>
</a>
</g>
</g>
<!-- Node1&#45;&gt;Node3 -->
<g id="edge5" class="edge">
<title>Node1&#45;&gt;Node3</title>
<path fill="none" stroke="#63b8ff" d="M2054.22,-223.03C1729.9,-222.97 245.97,-220.14 161.5,-173 153.55,-168.57 125.08,-121.7 109.27,-94.95"/>
<polygon fill="#63b8ff" stroke="#63b8ff" points="112.4,-93.35 104.31,-86.5 106.36,-96.9 112.4,-93.35"/>
</g>
<!-- Node5 -->
<g id="node5" class="node">
<title>Node5</title>
<g id="a_node5"><a xlink:href="dol2asm_8h.html" target="_top" xlink:title=" ">
<polygon fill="white" stroke="#666666" points="231,-156.5 170,-156.5 170,-137.5 231,-137.5 231,-156.5"/>
<text text-anchor="middle" x="200.5" y="-144.5" font-family="Helvetica,sans-Serif" font-size="10.00">dol2asm.h</text>
</a>
</g>
</g>
<!-- Node1&#45;&gt;Node5 -->
<g id="edge4" class="edge">
<title>Node1&#45;&gt;Node5</title>
<path fill="none" stroke="#63b8ff" d="M2054.04,-223.28C1748.29,-224.41 417.05,-226.19 240.5,-173 233.57,-170.91 226.65,-167.28 220.57,-163.43"/>
<polygon fill="#63b8ff" stroke="#63b8ff" points="222.72,-160.66 212.51,-157.82 218.72,-166.41 222.72,-160.66"/>
</g>
<!-- Node6 -->
<g id="node6" class="node">
<title>Node6</title>
<g id="a_node6"><a xlink:title=" ">
<polygon fill="#e0e0e0" stroke="#999999" points="391.5,-167.5 249.5,-167.5 249.5,-126.5 391.5,-126.5 391.5,-167.5"/>
<text text-anchor="start" x="257.5" y="-155.5" font-family="Helvetica,sans-Serif" font-size="10.00">asm/rel/d/a/obj/d_a</text>
<text text-anchor="start" x="257.5" y="-144.5" font-family="Helvetica,sans-Serif" font-size="10.00">_obj_stick/d_a_obj_stick</text>
<text text-anchor="middle" x="320.5" y="-133.5" font-family="Helvetica,sans-Serif" font-size="10.00">/__dt__13daObj_Stick_cFv.s</text>
</a>
</g>
</g>
<!-- Node1&#45;&gt;Node6 -->
<g id="edge6" class="edge">
<title>Node1&#45;&gt;Node6</title>
<path fill="none" stroke="#63b8ff" d="M2054.38,-222.2C1766.11,-218.33 565.84,-200.7 400.5,-173 396.65,-172.36 392.73,-171.57 388.8,-170.68"/>
<polygon fill="#63b8ff" stroke="#63b8ff" points="389.74,-167.31 379.19,-168.31 388.06,-174.11 389.74,-167.31"/>
</g>
<!-- Node7 -->
<g id="node7" class="node">
<title>Node7</title>
<g id="a_node7"><a xlink:title=" ">
<polygon fill="#e0e0e0" stroke="#999999" points="559.5,-167.5 409.5,-167.5 409.5,-126.5 559.5,-126.5 559.5,-167.5"/>
<text text-anchor="start" x="417.5" y="-155.5" font-family="Helvetica,sans-Serif" font-size="10.00">asm/rel/d/a/obj/d_a</text>
<text text-anchor="start" x="417.5" y="-144.5" font-family="Helvetica,sans-Serif" font-size="10.00">_obj_stick/d_a_obj_stick</text>
<text text-anchor="middle" x="484.5" y="-133.5" font-family="Helvetica,sans-Serif" font-size="10.00">/create__13daObj_Stick_cFv.s</text>
</a>
</g>
</g>
<!-- Node1&#45;&gt;Node7 -->
<g id="edge7" class="edge">
<title>Node1&#45;&gt;Node7</title>
<path fill="none" stroke="#63b8ff" d="M2054.05,-223.12C1802.35,-223.27 861.79,-220.57 568.5,-173 564.23,-172.31 559.87,-171.46 555.5,-170.5"/>
<polygon fill="#63b8ff" stroke="#63b8ff" points="556.64,-167.18 546.1,-168.26 555.02,-173.99 556.64,-167.18"/>
</g>
<!-- Node8 -->
<g id="node8" class="node">
<title>Node8</title>
<g id="a_node8"><a xlink:title=" ">
<polygon fill="#e0e0e0" stroke="#999999" points="701.5,-167.5 577.5,-167.5 577.5,-126.5 701.5,-126.5 701.5,-167.5"/>
<text text-anchor="start" x="585.5" y="-155.5" font-family="Helvetica,sans-Serif" font-size="10.00">asm/rel/d/a/obj/d_a</text>
<text text-anchor="start" x="585.5" y="-144.5" font-family="Helvetica,sans-Serif" font-size="10.00">_obj_stick/d_a_obj_stick</text>
<text text-anchor="middle" x="639.5" y="-133.5" font-family="Helvetica,sans-Serif" font-size="10.00">/__dt__8cM3dGSphFv.s</text>
</a>
</g>
</g>
<!-- Node1&#45;&gt;Node8 -->
<g id="edge8" class="edge">
<title>Node1&#45;&gt;Node8</title>
<path fill="none" stroke="#63b8ff" d="M2054.16,-223.28C1817.33,-223.97 973.59,-222.79 710.5,-173 707.37,-172.41 704.19,-171.7 701.01,-170.91"/>
<polygon fill="#63b8ff" stroke="#63b8ff" points="702.21,-167.61 691.64,-168.32 700.35,-174.36 702.21,-167.61"/>
</g>
<!-- Node9 -->
<g id="node9" class="node">
<title>Node9</title>
<g id="a_node9"><a xlink:title=" ">
<polygon fill="#e0e0e0" stroke="#999999" points="843.5,-167.5 719.5,-167.5 719.5,-126.5 843.5,-126.5 843.5,-167.5"/>
<text text-anchor="start" x="727.5" y="-155.5" font-family="Helvetica,sans-Serif" font-size="10.00">asm/rel/d/a/obj/d_a</text>
<text text-anchor="start" x="727.5" y="-144.5" font-family="Helvetica,sans-Serif" font-size="10.00">_obj_stick/d_a_obj_stick</text>
<text text-anchor="middle" x="781.5" y="-133.5" font-family="Helvetica,sans-Serif" font-size="10.00">/__dt__8cM3dGAabFv.s</text>
</a>
</g>
</g>
<!-- Node1&#45;&gt;Node9 -->
<g id="edge9" class="edge">
<title>Node1&#45;&gt;Node9</title>
<path fill="none" stroke="#63b8ff" d="M2054.11,-222.99C1832.88,-222.58 1086.67,-217.8 852.5,-173 849.37,-172.4 846.19,-171.69 843.01,-170.89"/>
<polygon fill="#63b8ff" stroke="#63b8ff" points="844.22,-167.6 833.65,-168.3 842.35,-174.34 844.22,-167.6"/>
</g>
<!-- Node10 -->
<g id="node10" class="node">
<title>Node10</title>
<g id="a_node10"><a xlink:title=" ">
<polygon fill="#e0e0e0" stroke="#999999" points="1003.5,-167.5 861.5,-167.5 861.5,-126.5 1003.5,-126.5 1003.5,-167.5"/>
<text text-anchor="start" x="869.5" y="-155.5" font-family="Helvetica,sans-Serif" font-size="10.00">asm/rel/d/a/obj/d_a</text>
<text text-anchor="start" x="869.5" y="-144.5" font-family="Helvetica,sans-Serif" font-size="10.00">_obj_stick/d_a_obj_stick</text>
<text text-anchor="middle" x="932.5" y="-133.5" font-family="Helvetica,sans-Serif" font-size="10.00">/__dt__12dBgS_AcchCirFv.s</text>
</a>
</g>
</g>
<!-- Node1&#45;&gt;Node10 -->
<g id="edge10" class="edge">
<title>Node1&#45;&gt;Node10</title>
<path fill="none" stroke="#63b8ff" d="M2054.2,-222.25C1852.06,-219.51 1215.81,-208.21 1013.5,-173 1009.69,-172.34 1005.8,-171.55 1001.9,-170.66"/>
<polygon fill="#63b8ff" stroke="#63b8ff" points="1002.93,-167.31 992.38,-168.31 1001.25,-174.1 1002.93,-167.31"/>
</g>
<!-- Node11 -->
<g id="node11" class="node">
<title>Node11</title>
<g id="a_node11"><a xlink:title=" ">
<polygon fill="#e0e0e0" stroke="#999999" points="1155,-167.5 1022,-167.5 1022,-126.5 1155,-126.5 1155,-167.5"/>
<text text-anchor="start" x="1030" y="-155.5" font-family="Helvetica,sans-Serif" font-size="10.00">asm/rel/d/a/obj/d_a</text>
<text text-anchor="start" x="1030" y="-144.5" font-family="Helvetica,sans-Serif" font-size="10.00">_obj_stick/d_a_obj_stick</text>
<text text-anchor="middle" x="1088.5" y="-133.5" font-family="Helvetica,sans-Serif" font-size="10.00">/__dt__10dCcD_GSttsFv.s</text>
</a>
</g>
</g>
<!-- Node1&#45;&gt;Node11 -->
<g id="edge11" class="edge">
<title>Node1&#45;&gt;Node11</title>
<path fill="none" stroke="#63b8ff" d="M2054.18,-221.88C1870.93,-218.25 1336.02,-205.12 1164.5,-173 1161.13,-172.37 1157.7,-171.63 1154.25,-170.8"/>
<polygon fill="#63b8ff" stroke="#63b8ff" points="1155.28,-167.45 1144.72,-168.29 1153.5,-174.22 1155.28,-167.45"/>
</g>
<!-- Node12 -->
<g id="node12" class="node">
<title>Node12</title>
<g id="a_node12"><a xlink:title=" ">
<polygon fill="#e0e0e0" stroke="#999999" points="1318,-167.5 1173,-167.5 1173,-126.5 1318,-126.5 1318,-167.5"/>
<text text-anchor="start" x="1181" y="-155.5" font-family="Helvetica,sans-Serif" font-size="10.00">asm/rel/d/a/obj/d_a</text>
<text text-anchor="start" x="1181" y="-144.5" font-family="Helvetica,sans-Serif" font-size="10.00">_obj_stick/d_a_obj_stick</text>
<text text-anchor="middle" x="1245.5" y="-133.5" font-family="Helvetica,sans-Serif" font-size="10.00">/__dt__12dBgS_ObjAcchFv.s</text>
</a>
</g>
</g>
<!-- Node1&#45;&gt;Node12 -->
<g id="edge12" class="edge">
<title>Node1&#45;&gt;Node12</title>
<path fill="none" stroke="#63b8ff" d="M2054.17,-220.92C1893.25,-215.26 1466.68,-198.27 1327.5,-173 1323.72,-172.31 1319.88,-171.51 1316.01,-170.63"/>
<polygon fill="#63b8ff" stroke="#63b8ff" points="1317.13,-167.3 1306.58,-168.29 1315.45,-174.09 1317.13,-167.3"/>
</g>
<!-- Node13 -->
<g id="node13" class="node">
<title>Node13</title>
<g id="a_node13"><a xlink:title=" ">
<polygon fill="#e0e0e0" stroke="#999999" points="1511,-167.5 1336,-167.5 1336,-126.5 1511,-126.5 1511,-167.5"/>
<text text-anchor="start" x="1344" y="-155.5" font-family="Helvetica,sans-Serif" font-size="10.00">asm/rel/d/a/obj/d_a</text>
<text text-anchor="start" x="1344" y="-144.5" font-family="Helvetica,sans-Serif" font-size="10.00">_obj_stick/d_a_obj_stick</text>
<text text-anchor="middle" x="1423.5" y="-133.5" font-family="Helvetica,sans-Serif" font-size="10.00">/CreateHeap__13daObj_Stick_cFv.s</text>
</a>
</g>
</g>
<!-- Node1&#45;&gt;Node13 -->
<g id="edge13" class="edge">
<title>Node1&#45;&gt;Node13</title>
<path fill="none" stroke="#63b8ff" d="M2054.29,-221.23C1945.4,-217.36 1713.48,-205.72 1520.5,-173 1515.92,-172.22 1511.24,-171.34 1506.53,-170.37"/>
<polygon fill="#63b8ff" stroke="#63b8ff" points="1507.51,-167 1496.99,-168.31 1506.03,-173.84 1507.51,-167"/>
</g>
<!-- Node14 -->
<g id="node14" class="node">
<title>Node14</title>
<g id="a_node14"><a xlink:title=" ">
<polygon fill="#e0e0e0" stroke="#999999" points="1680,-167.5 1529,-167.5 1529,-126.5 1680,-126.5 1680,-167.5"/>
<text text-anchor="start" x="1537" y="-155.5" font-family="Helvetica,sans-Serif" font-size="10.00">asm/rel/d/a/obj/d_a</text>
<text text-anchor="start" x="1537" y="-144.5" font-family="Helvetica,sans-Serif" font-size="10.00">_obj_stick/d_a_obj_stick</text>
<text text-anchor="middle" x="1604.5" y="-133.5" font-family="Helvetica,sans-Serif" font-size="10.00">/Delete__13daObj_Stick_cFv.s</text>
</a>
</g>
</g>
<!-- Node1&#45;&gt;Node14 -->
<g id="edge14" class="edge">
<title>Node1&#45;&gt;Node14</title>
<path fill="none" stroke="#63b8ff" d="M2054.1,-219.02C1970.46,-212.93 1817.66,-199.15 1689.5,-173 1685.96,-172.28 1682.35,-171.48 1678.72,-170.62"/>
<polygon fill="#63b8ff" stroke="#63b8ff" points="1679.81,-167.28 1669.26,-168.26 1678.12,-174.08 1679.81,-167.28"/>
</g>
<!-- Node15 -->
<g id="node15" class="node">
<title>Node15</title>
<g id="a_node15"><a xlink:title=" ">
<polygon fill="#e0e0e0" stroke="#999999" points="1856.5,-167.5 1698.5,-167.5 1698.5,-126.5 1856.5,-126.5 1856.5,-167.5"/>
<text text-anchor="start" x="1706.5" y="-155.5" font-family="Helvetica,sans-Serif" font-size="10.00">asm/rel/d/a/obj/d_a</text>
<text text-anchor="start" x="1706.5" y="-144.5" font-family="Helvetica,sans-Serif" font-size="10.00">_obj_stick/d_a_obj_stick</text>
<text text-anchor="middle" x="1777.5" y="-133.5" font-family="Helvetica,sans-Serif" font-size="10.00">/Execute__13daObj_Stick_cFv.s</text>
</a>
</g>
</g>
<!-- Node1&#45;&gt;Node15 -->
<g id="edge15" class="edge">
<title>Node1&#45;&gt;Node15</title>
<path fill="none" stroke="#63b8ff" d="M2054.05,-212C2003.08,-202.67 1929.32,-188.4 1865.5,-173 1862.56,-172.29 1859.57,-171.55 1856.56,-170.78"/>
<polygon fill="#63b8ff" stroke="#63b8ff" points="1857.6,-167.44 1847.04,-168.3 1855.84,-174.21 1857.6,-167.44"/>
</g>
<!-- Node16 -->
<g id="node16" class="node">
<title>Node16</title>
<g id="a_node16"><a xlink:title=" ">
<polygon fill="#e0e0e0" stroke="#999999" points="2020.5,-167.5 1874.5,-167.5 1874.5,-126.5 2020.5,-126.5 2020.5,-167.5"/>
<text text-anchor="start" x="1882.5" y="-155.5" font-family="Helvetica,sans-Serif" font-size="10.00">asm/rel/d/a/obj/d_a</text>
<text text-anchor="start" x="1882.5" y="-144.5" font-family="Helvetica,sans-Serif" font-size="10.00">_obj_stick/d_a_obj_stick</text>
<text text-anchor="middle" x="1947.5" y="-133.5" font-family="Helvetica,sans-Serif" font-size="10.00">/Draw__13daObj_Stick_cFv.s</text>
</a>
</g>
</g>
<!-- Node1&#45;&gt;Node16 -->
<g id="edge16" class="edge">
<title>Node1&#45;&gt;Node16</title>
<path fill="none" stroke="#63b8ff" d="M2083.92,-208.54C2060.97,-198.36 2029.68,-184.47 2002.86,-172.57"/>
<polygon fill="#63b8ff" stroke="#63b8ff" points="2004.39,-169.42 1993.83,-168.56 2001.55,-175.81 2004.39,-169.42"/>
</g>
<!-- Node17 -->
<g id="node17" class="node">
<title>Node17</title>
<g id="a_node17"><a xlink:title=" ">
<polygon fill="#e0e0e0" stroke="#999999" points="2194,-173 2039,-173 2039,-121 2194,-121 2194,-173"/>
<text text-anchor="start" x="2047" y="-161" font-family="Helvetica,sans-Serif" font-size="10.00">asm/rel/d/a/obj/d_a</text>
<text text-anchor="start" x="2047" y="-150" font-family="Helvetica,sans-Serif" font-size="10.00">_obj_stick/d_a_obj_stick</text>
<text text-anchor="start" x="2047" y="-139" font-family="Helvetica,sans-Serif" font-size="10.00">/createHeapCallBack__13daObj</text>
<text text-anchor="middle" x="2116.5" y="-128" font-family="Helvetica,sans-Serif" font-size="10.00">_Stick_cFP10fopAc_ac_c.s</text>
</a>
</g>
</g>
<!-- Node1&#45;&gt;Node17 -->
<g id="edge17" class="edge">
<title>Node1&#45;&gt;Node17</title>
<path fill="none" stroke="#63b8ff" d="M2116.5,-208.54C2116.5,-201.69 2116.5,-193.17 2116.5,-184.7"/>
<polygon fill="#63b8ff" stroke="#63b8ff" points="2120,-184.87 2116.5,-174.87 2113,-184.87 2120,-184.87"/>
</g>
<!-- Node18 -->
<g id="node18" class="node">
<title>Node18</title>
<g id="a_node18"><a xlink:title=" ">
<polygon fill="#e0e0e0" stroke="#999999" points="2392.5,-167.5 2212.5,-167.5 2212.5,-126.5 2392.5,-126.5 2392.5,-167.5"/>
<text text-anchor="start" x="2220.5" y="-155.5" font-family="Helvetica,sans-Serif" font-size="10.00">asm/rel/d/a/obj/d_a</text>
<text text-anchor="start" x="2220.5" y="-144.5" font-family="Helvetica,sans-Serif" font-size="10.00">_obj_stick/d_a_obj_stick</text>
<text text-anchor="middle" x="2302.5" y="-133.5" font-family="Helvetica,sans-Serif" font-size="10.00">/getResName__13daObj_Stick_cFv.s</text>
</a>
</g>
</g>
<!-- Node1&#45;&gt;Node18 -->
<g id="edge18" class="edge">
<title>Node1&#45;&gt;Node18</title>
<path fill="none" stroke="#63b8ff" d="M2152.36,-208.54C2177.95,-198.22 2212.97,-184.1 2242.75,-172.09"/>
<polygon fill="#63b8ff" stroke="#63b8ff" points="2243.67,-175.5 2251.63,-168.51 2241.05,-169 2243.67,-175.5"/>
</g>
<!-- Node19 -->
<g id="node19" class="node">
<title>Node19</title>
<g id="a_node19"><a xlink:title=" ">
<polygon fill="#e0e0e0" stroke="#999999" points="2568.5,-167.5 2410.5,-167.5 2410.5,-126.5 2568.5,-126.5 2568.5,-167.5"/>
<text text-anchor="start" x="2418.5" y="-155.5" font-family="Helvetica,sans-Serif" font-size="10.00">asm/rel/d/a/obj/d_a</text>
<text text-anchor="start" x="2418.5" y="-144.5" font-family="Helvetica,sans-Serif" font-size="10.00">_obj_stick/d_a_obj_stick</text>
<text text-anchor="middle" x="2489.5" y="-133.5" font-family="Helvetica,sans-Serif" font-size="10.00">/isDelete__13daObj_Stick_cFv.s</text>
</a>
</g>
</g>
<!-- Node1&#45;&gt;Node19 -->
<g id="edge19" class="edge">
<title>Node1&#45;&gt;Node19</title>
<path fill="none" stroke="#63b8ff" d="M2178.86,-213.96C2236.85,-205.1 2325.48,-190.42 2401.5,-173 2404.62,-172.29 2407.8,-171.53 2411,-170.74"/>
<polygon fill="#63b8ff" stroke="#63b8ff" points="2411.65,-174.19 2420.47,-168.33 2409.92,-167.4 2411.65,-174.19"/>
</g>
<!-- Node20 -->
<g id="node20" class="node">
<title>Node20</title>
<g id="a_node20"><a xlink:title=" ">
<polygon fill="#e0e0e0" stroke="#999999" points="2722,-173 2587,-173 2587,-121 2722,-121 2722,-173"/>
<text text-anchor="start" x="2595" y="-161" font-family="Helvetica,sans-Serif" font-size="10.00">asm/rel/d/a/obj/d_a</text>
<text text-anchor="start" x="2595" y="-150" font-family="Helvetica,sans-Serif" font-size="10.00">_obj_stick/d_a_obj_stick</text>
<text text-anchor="start" x="2595" y="-139" font-family="Helvetica,sans-Serif" font-size="10.00">/setEnvTevColor__13daObj</text>
<text text-anchor="middle" x="2654.5" y="-128" font-family="Helvetica,sans-Serif" font-size="10.00">_Stick_cFv.s</text>
</a>
</g>
</g>
<!-- Node1&#45;&gt;Node20 -->
<g id="edge20" class="edge">
<title>Node1&#45;&gt;Node20</title>
<path fill="none" stroke="#63b8ff" d="M2178.66,-220.32C2265.65,-215.68 2428.59,-203.74 2575.68,-173.18"/>
<polygon fill="#63b8ff" stroke="#63b8ff" points="2576.15,-176.66 2585.21,-171.17 2574.7,-169.81 2576.15,-176.66"/>
</g>
<!-- Node21 -->
<g id="node21" class="node">
<title>Node21</title>
<g id="a_node21"><a xlink:title=" ">
<polygon fill="#e0e0e0" stroke="#999999" points="2915,-167.5 2740,-167.5 2740,-126.5 2915,-126.5 2915,-167.5"/>
<text text-anchor="start" x="2748" y="-155.5" font-family="Helvetica,sans-Serif" font-size="10.00">asm/rel/d/a/obj/d_a</text>
<text text-anchor="start" x="2748" y="-144.5" font-family="Helvetica,sans-Serif" font-size="10.00">_obj_stick/d_a_obj_stick</text>
<text text-anchor="middle" x="2827.5" y="-133.5" font-family="Helvetica,sans-Serif" font-size="10.00">/setRoomNo__13daObj_Stick_cFv.s</text>
</a>
</g>
</g>
<!-- Node1&#45;&gt;Node21 -->
<g id="edge21" class="edge">
<title>Node1&#45;&gt;Node21</title>
<path fill="none" stroke="#63b8ff" d="M2178.92,-221.5C2290.53,-218.03 2531.36,-206.93 2731.5,-173 2736.08,-172.22 2740.77,-171.33 2745.48,-170.36"/>
<polygon fill="#63b8ff" stroke="#63b8ff" points="2746,-173.83 2755.02,-168.28 2744.51,-166.99 2746,-173.83"/>
</g>
<!-- Node22 -->
<g id="node22" class="node">
<title>Node22</title>
<g id="a_node22"><a xlink:title=" ">
<polygon fill="#e0e0e0" stroke="#999999" points="3085.5,-167.5 2933.5,-167.5 2933.5,-126.5 3085.5,-126.5 3085.5,-167.5"/>
<text text-anchor="start" x="2941.5" y="-155.5" font-family="Helvetica,sans-Serif" font-size="10.00">asm/rel/d/a/obj/d_a</text>
<text text-anchor="start" x="2941.5" y="-144.5" font-family="Helvetica,sans-Serif" font-size="10.00">_obj_stick/d_a_obj_stick</text>
<text text-anchor="middle" x="3009.5" y="-133.5" font-family="Helvetica,sans-Serif" font-size="10.00">/setMtx__13daObj_Stick_cFv.s</text>
</a>
</g>
</g>
<!-- Node1&#45;&gt;Node22 -->
<g id="edge22" class="edge">
<title>Node1&#45;&gt;Node22</title>
<path fill="none" stroke="#63b8ff" d="M2178.89,-223.87C2315.27,-224.75 2649.73,-221.28 2924.5,-173 2928.52,-172.29 2932.63,-171.46 2936.75,-170.54"/>
<polygon fill="#63b8ff" stroke="#63b8ff" points="2937.3,-174.01 2946.2,-168.28 2935.66,-167.21 2937.3,-174.01"/>
</g>
<!-- Node23 -->
<g id="node23" class="node">
<title>Node23</title>
<g id="a_node23"><a xlink:title=" ">
<polygon fill="#e0e0e0" stroke="#999999" points="3247,-167.5 3104,-167.5 3104,-126.5 3247,-126.5 3247,-167.5"/>
<text text-anchor="start" x="3112" y="-155.5" font-family="Helvetica,sans-Serif" font-size="10.00">asm/rel/d/a/obj/d_a</text>
<text text-anchor="start" x="3112" y="-144.5" font-family="Helvetica,sans-Serif" font-size="10.00">_obj_stick/d_a_obj_stick</text>
<text text-anchor="middle" x="3175.5" y="-133.5" font-family="Helvetica,sans-Serif" font-size="10.00">/daObj_Stick_Create__FPv.s</text>
</a>
</g>
</g>
<!-- Node1&#45;&gt;Node23 -->
<g id="edge23" class="edge">
<title>Node1&#45;&gt;Node23</title>
<path fill="none" stroke="#63b8ff" d="M2178.83,-221.83C2365.41,-218.02 2917.46,-204.34 3094.5,-173 3098.31,-172.33 3102.19,-171.53 3106.09,-170.63"/>
<polygon fill="#63b8ff" stroke="#63b8ff" points="3106.75,-174.08 3115.61,-168.27 3105.06,-167.28 3106.75,-174.08"/>
</g>
<!-- Node24 -->
<g id="node24" class="node">
<title>Node24</title>
<g id="a_node24"><a xlink:title=" ">
<polygon fill="#e0e0e0" stroke="#999999" points="3407.5,-167.5 3265.5,-167.5 3265.5,-126.5 3407.5,-126.5 3407.5,-167.5"/>
<text text-anchor="start" x="3273.5" y="-155.5" font-family="Helvetica,sans-Serif" font-size="10.00">asm/rel/d/a/obj/d_a</text>
<text text-anchor="start" x="3273.5" y="-144.5" font-family="Helvetica,sans-Serif" font-size="10.00">_obj_stick/d_a_obj_stick</text>
<text text-anchor="middle" x="3336.5" y="-133.5" font-family="Helvetica,sans-Serif" font-size="10.00">/daObj_Stick_Delete__FPv.s</text>
</a>
</g>
</g>
<!-- Node1&#45;&gt;Node24 -->
<g id="edge24" class="edge">
<title>Node1&#45;&gt;Node24</title>
<path fill="none" stroke="#63b8ff" d="M2178.71,-222.39C2385.22,-220.03 3046.73,-209.73 3256.5,-173 3260.27,-172.34 3264.11,-171.55 3267.96,-170.67"/>
<polygon fill="#63b8ff" stroke="#63b8ff" points="3268.5,-174.14 3277.35,-168.32 3266.8,-167.35 3268.5,-174.14"/>
</g>
<!-- Node25 -->
<g id="node25" class="node">
<title>Node25</title>
<g id="a_node25"><a xlink:title=" ">
<polygon fill="#e0e0e0" stroke="#999999" points="3575,-167.5 3426,-167.5 3426,-126.5 3575,-126.5 3575,-167.5"/>
<text text-anchor="start" x="3434" y="-155.5" font-family="Helvetica,sans-Serif" font-size="10.00">asm/rel/d/a/obj/d_a</text>
<text text-anchor="start" x="3434" y="-144.5" font-family="Helvetica,sans-Serif" font-size="10.00">_obj_stick/d_a_obj_stick</text>
<text text-anchor="middle" x="3500.5" y="-133.5" font-family="Helvetica,sans-Serif" font-size="10.00">/daObj_Stick_Execute__FPv.s</text>
</a>
</g>
</g>
<!-- Node1&#45;&gt;Node25 -->
<g id="edge25" class="edge">
<title>Node1&#45;&gt;Node25</title>
<path fill="none" stroke="#63b8ff" d="M2178.64,-222.67C2403.46,-221.16 3173.89,-213.11 3416.5,-173 3420.57,-172.33 3424.71,-171.52 3428.88,-170.61"/>
<polygon fill="#63b8ff" stroke="#63b8ff" points="3429.51,-174.05 3438.43,-168.33 3427.89,-167.24 3429.51,-174.05"/>
</g>
<!-- Node26 -->
<g id="node26" class="node">
<title>Node26</title>
<g id="a_node26"><a xlink:title=" ">
<polygon fill="#e0e0e0" stroke="#999999" points="3730,-167.5 3593,-167.5 3593,-126.5 3730,-126.5 3730,-167.5"/>
<text text-anchor="start" x="3601" y="-155.5" font-family="Helvetica,sans-Serif" font-size="10.00">asm/rel/d/a/obj/d_a</text>
<text text-anchor="start" x="3601" y="-144.5" font-family="Helvetica,sans-Serif" font-size="10.00">_obj_stick/d_a_obj_stick</text>
<text text-anchor="middle" x="3661.5" y="-133.5" font-family="Helvetica,sans-Serif" font-size="10.00">/daObj_Stick_Draw__FPv.s</text>
</a>
</g>
</g>
<!-- Node1&#45;&gt;Node26 -->
<g id="edge26" class="edge">
<title>Node1&#45;&gt;Node26</title>
<path fill="none" stroke="#63b8ff" d="M2178.62,-223.19C2421.64,-223.59 3308.07,-221.59 3584.5,-173 3588.1,-172.37 3591.76,-171.61 3595.44,-170.75"/>
<polygon fill="#63b8ff" stroke="#63b8ff" points="3596.17,-174.17 3604.99,-168.29 3594.43,-167.39 3596.17,-174.17"/>
</g>
<!-- Node27 -->
<g id="node27" class="node">
<title>Node27</title>
<g id="a_node27"><a xlink:title=" ">
<polygon fill="#e0e0e0" stroke="#999999" points="3881,-167.5 3748,-167.5 3748,-126.5 3881,-126.5 3881,-167.5"/>
<text text-anchor="start" x="3756" y="-155.5" font-family="Helvetica,sans-Serif" font-size="10.00">asm/rel/d/a/obj/d_a</text>
<text text-anchor="start" x="3756" y="-144.5" font-family="Helvetica,sans-Serif" font-size="10.00">_obj_stick/d_a_obj_stick</text>
<text text-anchor="middle" x="3814.5" y="-133.5" font-family="Helvetica,sans-Serif" font-size="10.00">/__dt__10cCcD_GSttsFv.s</text>
</a>
</g>
</g>
<!-- Node1&#45;&gt;Node27 -->
<g id="edge27" class="edge">
<title>Node1&#45;&gt;Node27</title>
<path fill="none" stroke="#63b8ff" d="M2178.95,-222.15C2458.04,-218.2 3584.08,-200.68 3739.5,-173 3742.9,-172.39 3746.36,-171.66 3749.84,-170.84"/>
<polygon fill="#63b8ff" stroke="#63b8ff" points="3750.66,-174.24 3759.45,-168.32 3748.89,-167.47 3750.66,-174.24"/>
</g>
<!-- Node28 -->
<g id="node28" class="node">
<title>Node28</title>
<g id="a_node28"><a xlink:title=" ">
<polygon fill="#e0e0e0" stroke="#999999" points="4041.5,-167.5 3899.5,-167.5 3899.5,-126.5 4041.5,-126.5 4041.5,-167.5"/>
<text text-anchor="start" x="3907.5" y="-155.5" font-family="Helvetica,sans-Serif" font-size="10.00">asm/rel/d/a/obj/d_a</text>
<text text-anchor="start" x="3907.5" y="-144.5" font-family="Helvetica,sans-Serif" font-size="10.00">_obj_stick/d_a_obj_stick</text>
<text text-anchor="middle" x="3970.5" y="-133.5" font-family="Helvetica,sans-Serif" font-size="10.00">/__sinit_d_a_obj_stick_cpp.s</text>
</a>
</g>
</g>
<!-- Node1&#45;&gt;Node28 -->
<g id="edge28" class="edge">
<title>Node1&#45;&gt;Node28</title>
<path fill="none" stroke="#63b8ff" d="M2178.75,-222.26C2473.21,-218.62 3719.18,-201.62 3890.5,-173 3894.35,-172.36 3898.27,-171.57 3902.2,-170.69"/>
<polygon fill="#63b8ff" stroke="#63b8ff" points="3902.94,-174.11 3911.81,-168.31 3901.26,-167.32 3902.94,-174.11"/>
</g>
<!-- Node29 -->
<g id="node29" class="node">
<title>Node29</title>
<g id="a_node29"><a xlink:title=" ">
<polygon fill="#e0e0e0" stroke="#999999" points="4235.5,-167.5 4059.5,-167.5 4059.5,-126.5 4235.5,-126.5 4235.5,-167.5"/>
<text text-anchor="start" x="4067.5" y="-155.5" font-family="Helvetica,sans-Serif" font-size="10.00">asm/rel/d/a/obj/d_a</text>
<text text-anchor="start" x="4067.5" y="-144.5" font-family="Helvetica,sans-Serif" font-size="10.00">_obj_stick/d_a_obj_stick</text>
<text text-anchor="middle" x="4147.5" y="-133.5" font-family="Helvetica,sans-Serif" font-size="10.00">/__dt__19daObj_Stick_Param_cFv.s</text>
</a>
</g>
</g>
<!-- Node1&#45;&gt;Node29 -->
<g id="edge29" class="edge">
<title>Node1&#45;&gt;Node29</title>
<path fill="none" stroke="#63b8ff" d="M2178.73,-223.28C2467.25,-224.31 3676.49,-225.34 4050.5,-173 4055.77,-172.26 4061.16,-171.35 4066.57,-170.3"/>
<polygon fill="#63b8ff" stroke="#63b8ff" points="4067.12,-173.76 4076.2,-168.3 4065.69,-166.91 4067.12,-173.76"/>
</g>
<!-- Node30 -->
<g id="node30" class="node">
<title>Node30</title>
<g id="a_node30"><a xlink:title=" ">
<polygon fill="#e0e0e0" stroke="#999999" points="4377.5,-167.5 4253.5,-167.5 4253.5,-126.5 4377.5,-126.5 4377.5,-167.5"/>
<text text-anchor="start" x="4261.5" y="-155.5" font-family="Helvetica,sans-Serif" font-size="10.00">asm/rel/d/a/obj/d_a</text>
<text text-anchor="start" x="4261.5" y="-144.5" font-family="Helvetica,sans-Serif" font-size="10.00">_obj_stick/d_a_obj_stick</text>
<text text-anchor="middle" x="4315.5" y="-133.5" font-family="Helvetica,sans-Serif" font-size="10.00">/func_80599E18.s</text>
</a>
</g>
</g>
<!-- Node1&#45;&gt;Node30 -->
<g id="edge30" class="edge">
<title>Node1&#45;&gt;Node30</title>
<path fill="none" stroke="#63b8ff" d="M2178.78,-222.7C2507.87,-220.98 4037.07,-210.96 4244.5,-173 4247.63,-172.43 4250.81,-171.74 4254,-170.95"/>
<polygon fill="#63b8ff" stroke="#63b8ff" points="4254.65,-174.41 4263.37,-168.39 4252.8,-167.65 4254.65,-174.41"/>
</g>
<!-- Node31 -->
<g id="node31" class="node">
<title>Node31</title>
<g id="a_node31"><a xlink:title=" ">
<polygon fill="#e0e0e0" stroke="#999999" points="4519.5,-167.5 4395.5,-167.5 4395.5,-126.5 4519.5,-126.5 4519.5,-167.5"/>
<text text-anchor="start" x="4403.5" y="-155.5" font-family="Helvetica,sans-Serif" font-size="10.00">asm/rel/d/a/obj/d_a</text>
<text text-anchor="start" x="4403.5" y="-144.5" font-family="Helvetica,sans-Serif" font-size="10.00">_obj_stick/d_a_obj_stick</text>
<text text-anchor="middle" x="4457.5" y="-133.5" font-family="Helvetica,sans-Serif" font-size="10.00">/func_80599E20.s</text>
</a>
</g>
</g>
<!-- Node1&#45;&gt;Node31 -->
<g id="edge31" class="edge">
<title>Node1&#45;&gt;Node31</title>
<path fill="none" stroke="#63b8ff" d="M2178.96,-222.8C2521.45,-221.55 4164.36,-213.49 4386.5,-173 4389.69,-172.42 4392.94,-171.71 4396.19,-170.92"/>
<polygon fill="#63b8ff" stroke="#63b8ff" points="4397.05,-174.31 4405.76,-168.29 4395.19,-167.56 4397.05,-174.31"/>
</g>
<!-- Node2&#45;&gt;Node3 -->
<g id="edge2" class="edge">
<title>Node2&#45;&gt;Node3</title>
<path fill="none" stroke="#63b8ff" d="M65.2,-131.6C71.61,-120.99 80.38,-106.48 87.31,-95.02"/>
<polygon fill="#63b8ff" stroke="#63b8ff" points="90.3,-96.84 92.47,-86.47 84.3,-93.22 90.3,-96.84"/>
</g>
<!-- Node4 -->
<g id="node4" class="node">
<title>Node4</title>
<g id="a_node4"><a xlink:href="stddef_8h.html" target="_top" xlink:title=" ">
<polygon fill="white" stroke="#666666" points="166.5,-30 30.5,-30 30.5,0 166.5,0 166.5,-30"/>
<text text-anchor="start" x="38.5" y="-18" font-family="Helvetica,sans-Serif" font-size="10.00">MSL_C/MSL_Common/Src</text>
<text text-anchor="middle" x="98.5" y="-7" font-family="Helvetica,sans-Serif" font-size="10.00">/stddef.h</text>
</a>
</g>
</g>
<!-- Node3&#45;&gt;Node4 -->
<g id="edge3" class="edge">
<title>Node3&#45;&gt;Node4</title>
<path fill="none" stroke="#63b8ff" d="M98.5,-65.87C98.5,-59.4 98.5,-50.2 98.5,-41.45"/>
<polygon fill="#63b8ff" stroke="#63b8ff" points="102,-41.63 98.5,-31.63 95,-41.63 102,-41.63"/>
</g>
</g>
</svg>
        <g id="navigator" transform="translate(0 0)" fill="#404254">
                <rect fill="#f2f5e9" fill-opacity="0.5" stroke="#606060" stroke-width=".5" x="0" y="0" width="60" height="60"/>
                <use id="zoomplus" xlink:href="#zoomPlus" x="17" y="9" onmousedown="handleZoom(evt,'in')"/>
                <use id="zoomminus" xlink:href="#zoomMin" x="42" y="9" onmousedown="handleZoom(evt,'out')"/>
                <use id="reset" xlink:href="#resetDef" x="30" y="36" onmousedown="handleReset()"/>
                <g id="arrowUp" xlink:href="#dirArrow" transform="translate(30 24)" onmousedown="handlePan(0,-1)">
                  <use xlink:href="#rim" fill="#404040">
                        <set attributeName="fill" to="#808080" begin="arrowUp.mouseover" end="arrowUp.mouseout"/>
                  </use>
                  <path fill="none" stroke="white" stroke-width="1.5" d="M0,-3.0v7 M-2.5,-0.5L0,-3.0L2.5,-0.5"/>
                </g>
                <g id="arrowRight" xlink:href="#dirArrow" transform="rotate(90) translate(36 -43)" onmousedown="handlePan(1,0)">
                  <use xlink:href="#rim" fill="#404040">
                        <set attributeName="fill" to="#808080" begin="arrowRight.mouseover" end="arrowRight.mouseout"/>
                  </use>
                  <path fill="none" stroke="white" stroke-width="1.5" d="M0,-3.0v7 M-2.5,-0.5L0,-3.0L2.5,-0.5"/>
                </g>
                <g id="arrowDown" xlink:href="#dirArrow" transform="rotate(180) translate(-30 -48)" onmousedown="handlePan(0,1)">
                  <use xlink:href="#rim" fill="#404040">
                        <set attributeName="fill" to="#808080" begin="arrowDown.mouseover" end="arrowDown.mouseout"/>
                  </use>
                  <path fill="none" stroke="white" stroke-width="1.5" d="M0,-3.0v7 M-2.5,-0.5L0,-3.0L2.5,-0.5"/>
                </g>
                <g id="arrowLeft" xlink:href="#dirArrow" transform="rotate(270) translate(-36 17)" onmousedown="handlePan(-1,0)">
                  <use xlink:href="#rim" fill="#404040">
                        <set attributeName="fill" to="#808080" begin="arrowLeft.mouseover" end="arrowLeft.mouseout"/>
                  </use>
                  <path fill="none" stroke="white" stroke-width="1.5" d="M0,-3.0v7 M-2.5,-0.5L0,-3.0L2.5,-0.5"/>
                </g>
        </g>
        <svg viewBox="0 0 15 15" width="100%" height="30px" preserveAspectRatio="xMaxYMin meet">
         <g id="arrow_out" transform="scale(0.3 0.3)">
          <a xlink:href="d__a__obj__stick_8cpp__incl_org.svg" target="_base">
           <rect id="button" ry="5" rx="5" y="6" x="6" height="38" width="38"
                fill="#f2f5e9" fill-opacity="0.5" stroke="#606060" stroke-width="1.0"/>
           <path id="arrow"
             d="M 11.500037,31.436501 C 11.940474,20.09759 22.043105,11.32322 32.158766,21.979434 L 37.068811,17.246167 C 37.068811,17.246167 37.088388,32 37.088388,32 L 22.160133,31.978069 C 22.160133,31.978069 26.997745,27.140456 26.997745,27.140456 C 18.528582,18.264221 13.291696,25.230495 11.500037,31.436501 z"
             style="fill:#404040;"/>
          </a>
         </g>
        </svg>
</svg>
