<?xml version="1.0" encoding="UTF-8" standalone="no"?>
<!DOCTYPE svg PUBLIC "-//W3C//DTD SVG 1.1//EN"
 "http://www.w3.org/Graphics/SVG/1.1/DTD/svg11.dtd">
<!-- Generated by graphviz version 7.0.5 (20221223.1930)
 -->
<!-- Title: rel/d/a/obj/d_a_obj_tobyhouse/d_a_obj_tobyhouse.cpp Pages: 1 -->
<!--zoomable 247 -->
<svg id="main" version="1.1" xmlns="http://www.w3.org/2000/svg" xmlns:xlink="http://www.w3.org/1999/xlink" xml:space="preserve" onload="init(evt)">
<style type="text/css"><![CDATA[
.edge:hover path { stroke: red; }
.edge:hover polygon { stroke: red; fill: red; }
]]></style>
<script type="text/javascript"><![CDATA[
var edges = document.getElementsByTagName('g');
if (edges && edges.length) {
  for (var i=0;i<edges.length;i++) {
    if (edges[i].id.substr(0,4)=='edge') {
      edges[i].setAttribute('class','edge');
    }
  }
}
]]></script>
        <defs>
                <circle id="rim" cx="0" cy="0" r="7"/>
                <circle id="rim2" cx="0" cy="0" r="3.5"/>
                <g id="zoomPlus">
                        <use xlink:href="#rim" fill="#404040">
                                <set attributeName="fill" to="#808080" begin="zoomplus.mouseover" end="zoomplus.mouseout"/>
                        </use>
                        <path d="M-4,0h8M0,-4v8" fill="none" stroke="white" stroke-width="1.5" pointer-events="none"/>
                </g>
                <g id="zoomMin">
                        <use xlink:href="#rim" fill="#404040">
                                <set attributeName="fill" to="#808080" begin="zoomminus.mouseover" end="zoomminus.mouseout"/>
                        </use>
                        <path d="M-4,0h8" fill="none" stroke="white" stroke-width="1.5" pointer-events="none"/>
                </g>
                <g id="dirArrow">
                        <path fill="none" stroke="white" stroke-width="1.5" d="M0,-3.0v7 M-2.5,-0.5L0,-3.0L2.5,-0.5"/>
                </g>
               <g id="resetDef">
                       <use xlink:href="#rim2" fill="#404040">
                               <set attributeName="fill" to="#808080" begin="reset.mouseover" end="reset.mouseout"/>
                       </use>
               </g>
        </defs>

<script type="text/javascript">
var viewWidth = 4723;
var viewHeight = 247;
var sectionId = 'dynsection-0';
</script>
<script xlink:href="svgpan.js"/>
<svg id="graph" class="graph">
<g id="viewport">
<title>rel/d/a/obj/d_a_obj_tobyhouse/d_a_obj_tobyhouse.cpp</title>
<!-- Node1 -->
<g id="node1" class="node">
<title>Node1</title>
<g id="a_node1"><a xlink:title=" ">
<polygon fill="#999999" stroke="#666666" points="2232,-239 2062,-239 2062,-209 2232,-209 2232,-239"/>
<text text-anchor="start" x="2070" y="-227" font-family="Helvetica,sans-Serif" font-size="10.00">rel/d/a/obj/d_a_obj</text>
<text text-anchor="middle" x="2147" y="-216" font-family="Helvetica,sans-Serif" font-size="10.00">_tobyhouse/d_a_obj_tobyhouse.cpp</text>
</a>
</g>
</g>
<!-- Node2 -->
<g id="node2" class="node">
<title>Node2</title>
<g id="a_node2"><a xlink:href="d__a__obj__tobyhouse_8h.html" target="_top" xlink:title=" ">
<polygon fill="white" stroke="#666666" points="160,-162 0,-162 0,-132 160,-132 160,-162"/>
<text text-anchor="start" x="8" y="-150" font-family="Helvetica,sans-Serif" font-size="10.00">rel/d/a/obj/d_a_obj</text>
<text text-anchor="middle" x="80" y="-139" font-family="Helvetica,sans-Serif" font-size="10.00">_tobyhouse/d_a_obj_tobyhouse.h</text>
</a>
</g>
</g>
<!-- Node1&#45;&gt;Node2 -->
<g id="edge1" class="edge">
<title>Node1&#45;&gt;Node2</title>
<path fill="none" stroke="#63b8ff" d="M2061.66,-223.5C1732.66,-225 546.55,-226.5 174,-173 161.71,-171.24 148.73,-168.42 136.47,-165.31"/>
<polygon fill="#63b8ff" stroke="#63b8ff" points="137.48,-161.96 126.92,-162.78 135.69,-168.72 137.48,-161.96"/>
</g>
<!-- Node3 -->
<g id="node3" class="node">
<title>Node3</title>
<g id="a_node3"><a xlink:href="types_8h.html" target="_top" xlink:title=" ">
<polygon fill="white" stroke="#666666" points="174.5,-85 93.5,-85 93.5,-66 174.5,-66 174.5,-85"/>
<text text-anchor="middle" x="134" y="-73" font-family="Helvetica,sans-Serif" font-size="10.00">dolphin/types.h</text>
</a>
</g>
</g>
<!-- Node1&#45;&gt;Node3 -->
<g id="edge5" class="edge">
<title>Node1&#45;&gt;Node3</title>
<path fill="none" stroke="#63b8ff" d="M2061.58,-222.87C1697.67,-222.03 291.32,-216.01 208,-173 182.33,-159.75 186.6,-143.91 169,-121 162.19,-112.13 154.52,-102.36 148.1,-94.24"/>
<polygon fill="#63b8ff" stroke="#63b8ff" points="150.93,-92.17 141.97,-86.5 145.44,-96.52 150.93,-92.17"/>
</g>
<!-- Node5 -->
<g id="node5" class="node">
<title>Node5</title>
<g id="a_node5"><a xlink:href="dol2asm_8h.html" target="_top" xlink:title=" ">
<polygon fill="white" stroke="#666666" points="277.5,-156.5 216.5,-156.5 216.5,-137.5 277.5,-137.5 277.5,-156.5"/>
<text text-anchor="middle" x="247" y="-144.5" font-family="Helvetica,sans-Serif" font-size="10.00">dol2asm.h</text>
</a>
</g>
</g>
<!-- Node1&#45;&gt;Node5 -->
<g id="edge4" class="edge">
<title>Node1&#45;&gt;Node5</title>
<path fill="none" stroke="#63b8ff" d="M2061.79,-223.34C1719.9,-224.35 457.88,-224.5 287,-173 280.07,-170.91 273.15,-167.28 267.07,-163.43"/>
<polygon fill="#63b8ff" stroke="#63b8ff" points="269.22,-160.66 259.01,-157.82 265.22,-166.4 269.22,-160.66"/>
</g>
<!-- Node6 -->
<g id="node6" class="node">
<title>Node6</title>
<g id="a_node6"><a xlink:title=" ">
<polygon fill="#e0e0e0" stroke="#999999" points="450,-167.5 296,-167.5 296,-126.5 450,-126.5 450,-167.5"/>
<text text-anchor="start" x="304" y="-155.5" font-family="Helvetica,sans-Serif" font-size="10.00">asm/rel/d/a/obj/d_a</text>
<text text-anchor="start" x="304" y="-144.5" font-family="Helvetica,sans-Serif" font-size="10.00">_obj_tobyhouse/d_a_obj</text>
<text text-anchor="middle" x="373" y="-133.5" font-family="Helvetica,sans-Serif" font-size="10.00">_tobyhouse/s_b_sub__FPvPv.s</text>
</a>
</g>
</g>
<!-- Node1&#45;&gt;Node6 -->
<g id="edge6" class="edge">
<title>Node1&#45;&gt;Node6</title>
<path fill="none" stroke="#63b8ff" d="M2061.55,-223.29C1763.85,-223.85 773.49,-221.89 460,-173 455.46,-172.29 450.82,-171.42 446.16,-170.43"/>
<polygon fill="#63b8ff" stroke="#63b8ff" points="447.31,-167.1 436.78,-168.27 445.74,-173.92 447.31,-167.1"/>
</g>
<!-- Node7 -->
<g id="node7" class="node">
<title>Node7</title>
<g id="a_node7"><a xlink:title=" ">
<polygon fill="#e0e0e0" stroke="#999999" points="597.5,-173 468.5,-173 468.5,-121 597.5,-121 597.5,-173"/>
<text text-anchor="start" x="476.5" y="-161" font-family="Helvetica,sans-Serif" font-size="10.00">asm/rel/d/a/obj/d_a</text>
<text text-anchor="start" x="476.5" y="-150" font-family="Helvetica,sans-Serif" font-size="10.00">_obj_tobyhouse/d_a_obj</text>
<text text-anchor="start" x="476.5" y="-139" font-family="Helvetica,sans-Serif" font-size="10.00">_tobyhouse/nodeCallBack</text>
<text text-anchor="middle" x="533" y="-128" font-family="Helvetica,sans-Serif" font-size="10.00">__FP8J3DJointi.s</text>
</a>
</g>
</g>
<!-- Node1&#45;&gt;Node7 -->
<g id="edge7" class="edge">
<title>Node1&#45;&gt;Node7</title>
<path fill="none" stroke="#63b8ff" d="M2061.95,-223.51C1785.2,-224.66 911.32,-224.19 608.65,-172.97"/>
<polygon fill="#63b8ff" stroke="#63b8ff" points="609.63,-169.59 599.18,-171.31 608.42,-176.49 609.63,-169.59"/>
</g>
<!-- Node8 -->
<g id="node8" class="node">
<title>Node8</title>
<g id="a_node8"><a xlink:title=" ">
<polygon fill="#e0e0e0" stroke="#999999" points="748,-173 616,-173 616,-121 748,-121 748,-173"/>
<text text-anchor="start" x="624" y="-161" font-family="Helvetica,sans-Serif" font-size="10.00">asm/rel/d/a/obj/d_a</text>
<text text-anchor="start" x="624" y="-150" font-family="Helvetica,sans-Serif" font-size="10.00">_obj_tobyhouse/d_a_obj</text>
<text text-anchor="start" x="624" y="-139" font-family="Helvetica,sans-Serif" font-size="10.00">_tobyhouse/eventCallBack</text>
<text text-anchor="middle" x="682" y="-128" font-family="Helvetica,sans-Serif" font-size="10.00">__FPvi.s</text>
</a>
</g>
</g>
<!-- Node1&#45;&gt;Node8 -->
<g id="edge8" class="edge">
<title>Node1&#45;&gt;Node8</title>
<path fill="none" stroke="#63b8ff" d="M2061.64,-223.11C1803.21,-222.96 1030.84,-218.73 759.39,-173.15"/>
<polygon fill="#63b8ff" stroke="#63b8ff" points="760.34,-169.76 749.89,-171.49 759.14,-176.65 760.34,-169.76"/>
</g>
<!-- Node9 -->
<g id="node9" class="node">
<title>Node9</title>
<g id="a_node9"><a xlink:title=" ">
<polygon fill="#e0e0e0" stroke="#999999" points="908,-173 766,-173 766,-121 908,-121 908,-173"/>
<text text-anchor="start" x="774" y="-161" font-family="Helvetica,sans-Serif" font-size="10.00">asm/rel/d/a/obj/d_a</text>
<text text-anchor="start" x="774" y="-150" font-family="Helvetica,sans-Serif" font-size="10.00">_obj_tobyhouse/d_a_obj</text>
<text text-anchor="start" x="774" y="-139" font-family="Helvetica,sans-Serif" font-size="10.00">_tobyhouse/initBaseMtx</text>
<text text-anchor="middle" x="837" y="-128" font-family="Helvetica,sans-Serif" font-size="10.00">__16daObjTobyHouse_cFv.s</text>
</a>
</g>
</g>
<!-- Node1&#45;&gt;Node9 -->
<g id="edge9" class="edge">
<title>Node1&#45;&gt;Node9</title>
<path fill="none" stroke="#63b8ff" d="M2061.83,-222.44C1824.64,-220.42 1158.82,-211.55 919.38,-173.15"/>
<polygon fill="#63b8ff" stroke="#63b8ff" points="920.23,-169.74 909.79,-171.55 919.08,-176.65 920.23,-169.74"/>
</g>
<!-- Node10 -->
<g id="node10" class="node">
<title>Node10</title>
<g id="a_node10"><a xlink:title=" ">
<polygon fill="#e0e0e0" stroke="#999999" points="1068,-173 926,-173 926,-121 1068,-121 1068,-173"/>
<text text-anchor="start" x="934" y="-161" font-family="Helvetica,sans-Serif" font-size="10.00">asm/rel/d/a/obj/d_a</text>
<text text-anchor="start" x="934" y="-150" font-family="Helvetica,sans-Serif" font-size="10.00">_obj_tobyhouse/d_a_obj</text>
<text text-anchor="start" x="934" y="-139" font-family="Helvetica,sans-Serif" font-size="10.00">_tobyhouse/setBaseMtx</text>
<text text-anchor="middle" x="997" y="-128" font-family="Helvetica,sans-Serif" font-size="10.00">__16daObjTobyHouse_cFv.s</text>
</a>
</g>
</g>
<!-- Node1&#45;&gt;Node10 -->
<g id="edge10" class="edge">
<title>Node1&#45;&gt;Node10</title>
<path fill="none" stroke="#63b8ff" d="M2061.77,-221.79C1847.09,-218.3 1287.12,-206.37 1079.42,-172.95"/>
<polygon fill="#63b8ff" stroke="#63b8ff" points="1080.25,-169.54 1069.81,-171.33 1079.09,-176.44 1080.25,-169.54"/>
</g>
<!-- Node11 -->
<g id="node11" class="node">
<title>Node11</title>
<g id="a_node11"><a xlink:title=" ">
<polygon fill="#e0e0e0" stroke="#999999" points="1251.5,-173 1086.5,-173 1086.5,-121 1251.5,-121 1251.5,-173"/>
<text text-anchor="start" x="1094.5" y="-161" font-family="Helvetica,sans-Serif" font-size="10.00">asm/rel/d/a/obj/d_a</text>
<text text-anchor="start" x="1094.5" y="-150" font-family="Helvetica,sans-Serif" font-size="10.00">_obj_tobyhouse/d_a_obj</text>
<text text-anchor="start" x="1094.5" y="-139" font-family="Helvetica,sans-Serif" font-size="10.00">_tobyhouse/Create__16daObjToby</text>
<text text-anchor="middle" x="1169" y="-128" font-family="Helvetica,sans-Serif" font-size="10.00">House_cFv.s</text>
</a>
</g>
</g>
<!-- Node1&#45;&gt;Node11 -->
<g id="edge11" class="edge">
<title>Node1&#45;&gt;Node11</title>
<path fill="none" stroke="#63b8ff" d="M2061.62,-220.46C1874.87,-214.53 1433.86,-198.48 1263.16,-173.12"/>
<polygon fill="#63b8ff" stroke="#63b8ff" points="1263.74,-169.67 1253.32,-171.59 1262.66,-176.59 1263.74,-169.67"/>
</g>
<!-- Node12 -->
<g id="node12" class="node">
<title>Node12</title>
<g id="a_node12"><a xlink:title=" ">
<polygon fill="#e0e0e0" stroke="#999999" points="1412,-173 1270,-173 1270,-121 1412,-121 1412,-173"/>
<text text-anchor="start" x="1278" y="-161" font-family="Helvetica,sans-Serif" font-size="10.00">asm/rel/d/a/obj/d_a</text>
<text text-anchor="start" x="1278" y="-150" font-family="Helvetica,sans-Serif" font-size="10.00">_obj_tobyhouse/d_a_obj</text>
<text text-anchor="start" x="1278" y="-139" font-family="Helvetica,sans-Serif" font-size="10.00">_tobyhouse/CreateHeap</text>
<text text-anchor="middle" x="1341" y="-128" font-family="Helvetica,sans-Serif" font-size="10.00">__16daObjTobyHouse_cFv.s</text>
</a>
</g>
</g>
<!-- Node1&#45;&gt;Node12 -->
<g id="edge12" class="edge">
<title>Node1&#45;&gt;Node12</title>
<path fill="none" stroke="#63b8ff" d="M2061.51,-223.55C1927.07,-223.01 1658.19,-216.2 1423.47,-173.27"/>
<polygon fill="#63b8ff" stroke="#63b8ff" points="1424.28,-169.86 1413.81,-171.47 1423,-176.74 1424.28,-169.86"/>
</g>
<!-- Node13 -->
<g id="node13" class="node">
<title>Node13</title>
<g id="a_node13"><a xlink:title=" ">
<polygon fill="#e0e0e0" stroke="#999999" points="1618,-167.5 1430,-167.5 1430,-126.5 1618,-126.5 1618,-167.5"/>
<text text-anchor="start" x="1438" y="-155.5" font-family="Helvetica,sans-Serif" font-size="10.00">asm/rel/d/a/obj/d_a</text>
<text text-anchor="start" x="1438" y="-144.5" font-family="Helvetica,sans-Serif" font-size="10.00">_obj_tobyhouse/d_a_obj</text>
<text text-anchor="middle" x="1524" y="-133.5" font-family="Helvetica,sans-Serif" font-size="10.00">_tobyhouse/__dt__12J3DFrameCtrlFv.s</text>
</a>
</g>
</g>
<!-- Node1&#45;&gt;Node13 -->
<g id="edge13" class="edge">
<title>Node1&#45;&gt;Node13</title>
<path fill="none" stroke="#63b8ff" d="M2061.57,-218.44C1958.31,-212.09 1779.55,-198.39 1628,-173 1623.08,-172.18 1618.04,-171.25 1612.97,-170.25"/>
<polygon fill="#63b8ff" stroke="#63b8ff" points="1613.82,-166.85 1603.32,-168.26 1612.41,-173.71 1613.82,-166.85"/>
</g>
<!-- Node14 -->
<g id="node14" class="node">
<title>Node14</title>
<g id="a_node14"><a xlink:title=" ">
<polygon fill="#e0e0e0" stroke="#999999" points="1773.5,-173 1636.5,-173 1636.5,-121 1773.5,-121 1773.5,-173"/>
<text text-anchor="start" x="1644.5" y="-161" font-family="Helvetica,sans-Serif" font-size="10.00">asm/rel/d/a/obj/d_a</text>
<text text-anchor="start" x="1644.5" y="-150" font-family="Helvetica,sans-Serif" font-size="10.00">_obj_tobyhouse/d_a_obj</text>
<text text-anchor="start" x="1644.5" y="-139" font-family="Helvetica,sans-Serif" font-size="10.00">_tobyhouse/create1st_</text>
<text text-anchor="middle" x="1705" y="-128" font-family="Helvetica,sans-Serif" font-size="10.00">_16daObjTobyHouse_cFv.s</text>
</a>
</g>
</g>
<!-- Node1&#45;&gt;Node14 -->
<g id="edge14" class="edge">
<title>Node1&#45;&gt;Node14</title>
<path fill="none" stroke="#63b8ff" d="M2061.67,-215.51C1990.03,-208.25 1884.94,-195.35 1784.66,-173.2"/>
<polygon fill="#63b8ff" stroke="#63b8ff" points="1785.72,-169.85 1775.2,-171.07 1784.19,-176.68 1785.72,-169.85"/>
</g>
<!-- Node15 -->
<g id="node15" class="node">
<title>Node15</title>
<g id="a_node15"><a xlink:title=" ">
<polygon fill="#e0e0e0" stroke="#999999" points="1962.5,-173 1791.5,-173 1791.5,-121 1962.5,-121 1962.5,-173"/>
<text text-anchor="start" x="1799.5" y="-161" font-family="Helvetica,sans-Serif" font-size="10.00">asm/rel/d/a/obj/d_a</text>
<text text-anchor="start" x="1799.5" y="-150" font-family="Helvetica,sans-Serif" font-size="10.00">_obj_tobyhouse/d_a_obj</text>
<text text-anchor="start" x="1799.5" y="-139" font-family="Helvetica,sans-Serif" font-size="10.00">_tobyhouse/Execute__16daObjToby</text>
<text text-anchor="middle" x="1877" y="-128" font-family="Helvetica,sans-Serif" font-size="10.00">House_cFPPA3_A4_f.s</text>
</a>
</g>
</g>
<!-- Node1&#45;&gt;Node15 -->
<g id="edge15" class="edge">
<title>Node1&#45;&gt;Node15</title>
<path fill="none" stroke="#63b8ff" d="M2094.94,-208.54C2060.69,-199.03 2014.81,-186.28 1973.98,-174.94"/>
<polygon fill="#63b8ff" stroke="#63b8ff" points="1974.92,-171.57 1964.35,-172.26 1973.05,-178.31 1974.92,-171.57"/>
</g>
<!-- Node16 -->
<g id="node16" class="node">
<title>Node16</title>
<g id="a_node16"><a xlink:title=" ">
<polygon fill="#e0e0e0" stroke="#999999" points="2143.5,-173 1980.5,-173 1980.5,-121 2143.5,-121 2143.5,-173"/>
<text text-anchor="start" x="1988.5" y="-161" font-family="Helvetica,sans-Serif" font-size="10.00">asm/rel/d/a/obj/d_a</text>
<text text-anchor="start" x="1988.5" y="-150" font-family="Helvetica,sans-Serif" font-size="10.00">_obj_tobyhouse/d_a_obj</text>
<text text-anchor="start" x="1988.5" y="-139" font-family="Helvetica,sans-Serif" font-size="10.00">_tobyhouse/action__16daObjToby</text>
<text text-anchor="middle" x="2062" y="-128" font-family="Helvetica,sans-Serif" font-size="10.00">House_cFv.s</text>
</a>
</g>
</g>
<!-- Node1&#45;&gt;Node16 -->
<g id="edge16" class="edge">
<title>Node1&#45;&gt;Node16</title>
<path fill="none" stroke="#63b8ff" d="M2130.61,-208.54C2121.7,-200.68 2110.3,-190.62 2099.35,-180.96"/>
<polygon fill="#63b8ff" stroke="#63b8ff" points="2101.68,-178.35 2091.87,-174.35 2097.05,-183.59 2101.68,-178.35"/>
</g>
<!-- Node17 -->
<g id="node17" class="node">
<title>Node17</title>
<g id="a_node17"><a xlink:title=" ">
<polygon fill="#e0e0e0" stroke="#999999" points="2304,-173 2162,-173 2162,-121 2304,-121 2304,-173"/>
<text text-anchor="start" x="2170" y="-161" font-family="Helvetica,sans-Serif" font-size="10.00">asm/rel/d/a/obj/d_a</text>
<text text-anchor="start" x="2170" y="-150" font-family="Helvetica,sans-Serif" font-size="10.00">_obj_tobyhouse/d_a_obj</text>
<text text-anchor="start" x="2170" y="-139" font-family="Helvetica,sans-Serif" font-size="10.00">_tobyhouse/actionWait</text>
<text text-anchor="middle" x="2233" y="-128" font-family="Helvetica,sans-Serif" font-size="10.00">__16daObjTobyHouse_cFv.s</text>
</a>
</g>
</g>
<!-- Node1&#45;&gt;Node17 -->
<g id="edge17" class="edge">
<title>Node1&#45;&gt;Node17</title>
<path fill="none" stroke="#63b8ff" d="M2163.58,-208.54C2172.68,-200.6 2184.36,-190.42 2195.54,-180.67"/>
<polygon fill="#63b8ff" stroke="#63b8ff" points="2197.55,-183.56 2202.79,-174.35 2192.95,-178.28 2197.55,-183.56"/>
</g>
<!-- Node18 -->
<g id="node18" class="node">
<title>Node18</title>
<g id="a_node18"><a xlink:title=" ">
<polygon fill="#e0e0e0" stroke="#999999" points="2466,-173 2322,-173 2322,-121 2466,-121 2466,-173"/>
<text text-anchor="start" x="2330" y="-161" font-family="Helvetica,sans-Serif" font-size="10.00">asm/rel/d/a/obj/d_a</text>
<text text-anchor="start" x="2330" y="-150" font-family="Helvetica,sans-Serif" font-size="10.00">_obj_tobyhouse/d_a_obj</text>
<text text-anchor="start" x="2330" y="-139" font-family="Helvetica,sans-Serif" font-size="10.00">_tobyhouse/actionOrderEvent</text>
<text text-anchor="middle" x="2394" y="-128" font-family="Helvetica,sans-Serif" font-size="10.00">__16daObjTobyHouse_cFv.s</text>
</a>
</g>
</g>
<!-- Node1&#45;&gt;Node18 -->
<g id="edge18" class="edge">
<title>Node1&#45;&gt;Node18</title>
<path fill="none" stroke="#63b8ff" d="M2195.33,-208.54C2225.94,-199.36 2266.63,-187.11 2310.64,-173.71"/>
<polygon fill="#63b8ff" stroke="#63b8ff" points="2311.59,-177.08 2320.14,-170.82 2309.55,-170.39 2311.59,-177.08"/>
</g>
<!-- Node19 -->
<g id="node19" class="node">
<title>Node19</title>
<g id="a_node19"><a xlink:title=" ">
<polygon fill="#e0e0e0" stroke="#999999" points="2626,-173 2484,-173 2484,-121 2626,-121 2626,-173"/>
<text text-anchor="start" x="2492" y="-161" font-family="Helvetica,sans-Serif" font-size="10.00">asm/rel/d/a/obj/d_a</text>
<text text-anchor="start" x="2492" y="-150" font-family="Helvetica,sans-Serif" font-size="10.00">_obj_tobyhouse/d_a_obj</text>
<text text-anchor="start" x="2492" y="-139" font-family="Helvetica,sans-Serif" font-size="10.00">_tobyhouse/actionEvent</text>
<text text-anchor="middle" x="2555" y="-128" font-family="Helvetica,sans-Serif" font-size="10.00">__16daObjTobyHouse_cFv.s</text>
</a>
</g>
</g>
<!-- Node1&#45;&gt;Node19 -->
<g id="edge19" class="edge">
<title>Node1&#45;&gt;Node19</title>
<path fill="none" stroke="#63b8ff" d="M2232.28,-213.6C2296.14,-205.73 2385.77,-192.94 2472.51,-173.44"/>
<polygon fill="#63b8ff" stroke="#63b8ff" points="2473.17,-176.87 2482.14,-171.23 2471.61,-170.05 2473.17,-176.87"/>
</g>
<!-- Node20 -->
<g id="node20" class="node">
<title>Node20</title>
<g id="a_node20"><a xlink:title=" ">
<polygon fill="#e0e0e0" stroke="#999999" points="2804,-173 2644,-173 2644,-121 2804,-121 2804,-173"/>
<text text-anchor="start" x="2652" y="-161" font-family="Helvetica,sans-Serif" font-size="10.00">asm/rel/d/a/obj/d_a</text>
<text text-anchor="start" x="2652" y="-150" font-family="Helvetica,sans-Serif" font-size="10.00">_obj_tobyhouse/d_a_obj</text>
<text text-anchor="start" x="2652" y="-139" font-family="Helvetica,sans-Serif" font-size="10.00">_tobyhouse/demoProc__16daObj</text>
<text text-anchor="middle" x="2724" y="-128" font-family="Helvetica,sans-Serif" font-size="10.00">TobyHouse_cFv.s</text>
</a>
</g>
</g>
<!-- Node1&#45;&gt;Node20 -->
<g id="edge20" class="edge">
<title>Node1&#45;&gt;Node20</title>
<path fill="none" stroke="#63b8ff" d="M2232.27,-218.71C2327.79,-212.9 2487.26,-200.22 2632.72,-173.29"/>
<polygon fill="#63b8ff" stroke="#63b8ff" points="2632.95,-176.81 2642.13,-171.53 2631.65,-169.93 2632.95,-176.81"/>
</g>
<!-- Node21 -->
<g id="node21" class="node">
<title>Node21</title>
<g id="a_node21"><a xlink:title=" ">
<polygon fill="#e0e0e0" stroke="#999999" points="2964,-173 2822,-173 2822,-121 2964,-121 2964,-173"/>
<text text-anchor="start" x="2830" y="-161" font-family="Helvetica,sans-Serif" font-size="10.00">asm/rel/d/a/obj/d_a</text>
<text text-anchor="start" x="2830" y="-150" font-family="Helvetica,sans-Serif" font-size="10.00">_obj_tobyhouse/d_a_obj</text>
<text text-anchor="start" x="2830" y="-139" font-family="Helvetica,sans-Serif" font-size="10.00">_tobyhouse/sceneChange</text>
<text text-anchor="middle" x="2893" y="-128" font-family="Helvetica,sans-Serif" font-size="10.00">__16daObjTobyHouse_cFv.s</text>
</a>
</g>
</g>
<!-- Node1&#45;&gt;Node21 -->
<g id="edge21" class="edge">
<title>Node1&#45;&gt;Node21</title>
<path fill="none" stroke="#63b8ff" d="M2232.45,-222.78C2357.79,-221.09 2598.73,-212.65 2810.65,-173.26"/>
<polygon fill="#63b8ff" stroke="#63b8ff" points="2811.01,-176.75 2820.19,-171.45 2809.71,-169.87 2811.01,-176.75"/>
</g>
<!-- Node22 -->
<g id="node22" class="node">
<title>Node22</title>
<g id="a_node22"><a xlink:title=" ">
<polygon fill="#e0e0e0" stroke="#999999" points="3141.5,-173 2982.5,-173 2982.5,-121 3141.5,-121 3141.5,-173"/>
<text text-anchor="start" x="2990.5" y="-161" font-family="Helvetica,sans-Serif" font-size="10.00">asm/rel/d/a/obj/d_a</text>
<text text-anchor="start" x="2990.5" y="-150" font-family="Helvetica,sans-Serif" font-size="10.00">_obj_tobyhouse/d_a_obj</text>
<text text-anchor="start" x="2990.5" y="-139" font-family="Helvetica,sans-Serif" font-size="10.00">_tobyhouse/Draw__16daObjToby</text>
<text text-anchor="middle" x="3062" y="-128" font-family="Helvetica,sans-Serif" font-size="10.00">House_cFv.s</text>
</a>
</g>
</g>
<!-- Node1&#45;&gt;Node22 -->
<g id="edge22" class="edge">
<title>Node1&#45;&gt;Node22</title>
<path fill="none" stroke="#63b8ff" d="M2232.4,-223.8C2381.07,-223.89 2696.96,-218.3 2971.16,-173.13"/>
<polygon fill="#63b8ff" stroke="#63b8ff" points="2971.35,-176.65 2980.64,-171.55 2970.2,-169.75 2971.35,-176.65"/>
</g>
<!-- Node23 -->
<g id="node23" class="node">
<title>Node23</title>
<g id="a_node23"><a xlink:title=" ">
<polygon fill="#e0e0e0" stroke="#999999" points="3302,-173 3160,-173 3160,-121 3302,-121 3302,-173"/>
<text text-anchor="start" x="3168" y="-161" font-family="Helvetica,sans-Serif" font-size="10.00">asm/rel/d/a/obj/d_a</text>
<text text-anchor="start" x="3168" y="-150" font-family="Helvetica,sans-Serif" font-size="10.00">_obj_tobyhouse/d_a_obj</text>
<text text-anchor="start" x="3168" y="-139" font-family="Helvetica,sans-Serif" font-size="10.00">_tobyhouse/checkLODModel</text>
<text text-anchor="middle" x="3231" y="-128" font-family="Helvetica,sans-Serif" font-size="10.00">__16daObjTobyHouse_cFv.s</text>
</a>
</g>
</g>
<!-- Node1&#45;&gt;Node23 -->
<g id="edge23" class="edge">
<title>Node1&#45;&gt;Node23</title>
<path fill="none" stroke="#63b8ff" d="M2232.37,-221.52C2437.51,-217.53 2954.9,-204.76 3148.51,-173.17"/>
<polygon fill="#63b8ff" stroke="#63b8ff" points="3148.93,-176.65 3158.2,-171.52 3147.75,-169.75 3148.93,-176.65"/>
</g>
<!-- Node24 -->
<g id="node24" class="node">
<title>Node24</title>
<g id="a_node24"><a xlink:title=" ">
<polygon fill="#e0e0e0" stroke="#999999" points="3484,-173 3320,-173 3320,-121 3484,-121 3484,-173"/>
<text text-anchor="start" x="3328" y="-161" font-family="Helvetica,sans-Serif" font-size="10.00">asm/rel/d/a/obj/d_a</text>
<text text-anchor="start" x="3328" y="-150" font-family="Helvetica,sans-Serif" font-size="10.00">_obj_tobyhouse/d_a_obj</text>
<text text-anchor="start" x="3328" y="-139" font-family="Helvetica,sans-Serif" font-size="10.00">_tobyhouse/Delete__16daObjToby</text>
<text text-anchor="middle" x="3402" y="-128" font-family="Helvetica,sans-Serif" font-size="10.00">House_cFv.s</text>
</a>
</g>
</g>
<!-- Node1&#45;&gt;Node24 -->
<g id="edge24" class="edge">
<title>Node1&#45;&gt;Node24</title>
<path fill="none" stroke="#63b8ff" d="M2232.08,-221.83C2460.03,-218.3 3081.94,-206.02 3308.7,-173.14"/>
<polygon fill="#63b8ff" stroke="#63b8ff" points="3308.98,-176.64 3318.34,-171.69 3307.93,-169.72 3308.98,-176.64"/>
</g>
<!-- Node25 -->
<g id="node25" class="node">
<title>Node25</title>
<g id="a_node25"><a xlink:title=" ">
<polygon fill="#e0e0e0" stroke="#999999" points="3691.5,-173 3502.5,-173 3502.5,-121 3691.5,-121 3691.5,-173"/>
<text text-anchor="start" x="3510.5" y="-161" font-family="Helvetica,sans-Serif" font-size="10.00">asm/rel/d/a/obj/d_a</text>
<text text-anchor="start" x="3510.5" y="-150" font-family="Helvetica,sans-Serif" font-size="10.00">_obj_tobyhouse/d_a_obj</text>
<text text-anchor="start" x="3510.5" y="-139" font-family="Helvetica,sans-Serif" font-size="10.00">_tobyhouse/daObjTobyHouse</text>
<text text-anchor="middle" x="3597" y="-128" font-family="Helvetica,sans-Serif" font-size="10.00">_create1st__FP16daObjTobyHouse_c.s</text>
</a>
</g>
</g>
<!-- Node1&#45;&gt;Node25 -->
<g id="edge25" class="edge">
<title>Node1&#45;&gt;Node25</title>
<path fill="none" stroke="#63b8ff" d="M2232.21,-222.05C2484.58,-218.89 3226.46,-207.02 3491.11,-173.08"/>
<polygon fill="#63b8ff" stroke="#63b8ff" points="3491.26,-176.59 3500.71,-171.81 3490.34,-169.65 3491.26,-176.59"/>
</g>
<!-- Node26 -->
<g id="node26" class="node">
<title>Node26</title>
<g id="a_node26"><a xlink:title=" ">
<polygon fill="#e0e0e0" stroke="#999999" points="3924.5,-173 3709.5,-173 3709.5,-121 3924.5,-121 3924.5,-173"/>
<text text-anchor="start" x="3717.5" y="-161" font-family="Helvetica,sans-Serif" font-size="10.00">asm/rel/d/a/obj/d_a</text>
<text text-anchor="start" x="3717.5" y="-150" font-family="Helvetica,sans-Serif" font-size="10.00">_obj_tobyhouse/d_a_obj</text>
<text text-anchor="start" x="3717.5" y="-139" font-family="Helvetica,sans-Serif" font-size="10.00">_tobyhouse/daObjTobyHouse</text>
<text text-anchor="middle" x="3817" y="-128" font-family="Helvetica,sans-Serif" font-size="10.00">_MoveBGDelete__FP16daObjTobyHouse_c.s</text>
</a>
</g>
</g>
<!-- Node1&#45;&gt;Node26 -->
<g id="edge26" class="edge">
<title>Node1&#45;&gt;Node26</title>
<path fill="none" stroke="#63b8ff" d="M2232.14,-222.28C2510.26,-219.62 3391.29,-208.63 3697.95,-173.25"/>
<polygon fill="#63b8ff" stroke="#63b8ff" points="3698.03,-176.77 3707.55,-172.11 3697.21,-169.82 3698.03,-176.77"/>
</g>
<!-- Node27 -->
<g id="node27" class="node">
<title>Node27</title>
<g id="a_node27"><a xlink:title=" ">
<polygon fill="#e0e0e0" stroke="#999999" points="4163.5,-173 3942.5,-173 3942.5,-121 4163.5,-121 4163.5,-173"/>
<text text-anchor="start" x="3950.5" y="-161" font-family="Helvetica,sans-Serif" font-size="10.00">asm/rel/d/a/obj/d_a</text>
<text text-anchor="start" x="3950.5" y="-150" font-family="Helvetica,sans-Serif" font-size="10.00">_obj_tobyhouse/d_a_obj</text>
<text text-anchor="start" x="3950.5" y="-139" font-family="Helvetica,sans-Serif" font-size="10.00">_tobyhouse/daObjTobyHouse</text>
<text text-anchor="middle" x="4053" y="-128" font-family="Helvetica,sans-Serif" font-size="10.00">_MoveBGExecute__FP16daObjTobyHouse_c.s</text>
</a>
</g>
</g>
<!-- Node1&#45;&gt;Node27 -->
<g id="edge27" class="edge">
<title>Node1&#45;&gt;Node27</title>
<path fill="none" stroke="#63b8ff" d="M2232.29,-222.64C2537.52,-221.03 3575.79,-212.8 3930.93,-173.24"/>
<polygon fill="#63b8ff" stroke="#63b8ff" points="3931.22,-176.73 3940.75,-172.12 3930.42,-169.78 3931.22,-176.73"/>
</g>
<!-- Node28 -->
<g id="node28" class="node">
<title>Node28</title>
<g id="a_node28"><a xlink:title=" ">
<polygon fill="#e0e0e0" stroke="#999999" points="4390.5,-173 4181.5,-173 4181.5,-121 4390.5,-121 4390.5,-173"/>
<text text-anchor="start" x="4189.5" y="-161" font-family="Helvetica,sans-Serif" font-size="10.00">asm/rel/d/a/obj/d_a</text>
<text text-anchor="start" x="4189.5" y="-150" font-family="Helvetica,sans-Serif" font-size="10.00">_obj_tobyhouse/d_a_obj</text>
<text text-anchor="start" x="4189.5" y="-139" font-family="Helvetica,sans-Serif" font-size="10.00">_tobyhouse/daObjTobyHouse</text>
<text text-anchor="middle" x="4286" y="-128" font-family="Helvetica,sans-Serif" font-size="10.00">_MoveBGDraw__FP16daObjTobyHouse_c.s</text>
</a>
</g>
</g>
<!-- Node1&#45;&gt;Node28 -->
<g id="edge28" class="edge">
<title>Node1&#45;&gt;Node28</title>
<path fill="none" stroke="#63b8ff" d="M2232.28,-223.09C2563.51,-223.09 3765.89,-219.89 4170.02,-173.24"/>
<polygon fill="#63b8ff" stroke="#63b8ff" points="4170.14,-176.75 4179.65,-172.09 4169.31,-169.8 4170.14,-176.75"/>
</g>
<!-- Node29 -->
<g id="node29" class="node">
<title>Node29</title>
<g id="a_node29"><a xlink:title=" ">
<polygon fill="#e0e0e0" stroke="#999999" points="4553.5,-167.5 4408.5,-167.5 4408.5,-126.5 4553.5,-126.5 4553.5,-167.5"/>
<text text-anchor="start" x="4416.5" y="-155.5" font-family="Helvetica,sans-Serif" font-size="10.00">asm/rel/d/a/obj/d_a</text>
<text text-anchor="start" x="4416.5" y="-144.5" font-family="Helvetica,sans-Serif" font-size="10.00">_obj_tobyhouse/d_a_obj</text>
<text text-anchor="middle" x="4481" y="-133.5" font-family="Helvetica,sans-Serif" font-size="10.00">_tobyhouse/func_80D176E4.s</text>
</a>
</g>
</g>
<!-- Node1&#45;&gt;Node29 -->
<g id="edge29" class="edge">
<title>Node1&#45;&gt;Node29</title>
<path fill="none" stroke="#63b8ff" d="M2232.38,-222.5C2617.49,-220.08 4183.49,-208.11 4400,-173 4404.01,-172.35 4408.1,-171.55 4412.21,-170.64"/>
<polygon fill="#63b8ff" stroke="#63b8ff" points="4412.7,-174.12 4421.59,-168.35 4411.04,-167.32 4412.7,-174.12"/>
</g>
<!-- Node30 -->
<g id="node30" class="node">
<title>Node30</title>
<g id="a_node30"><a xlink:title=" ">
<polygon fill="#e0e0e0" stroke="#999999" points="4714.5,-167.5 4571.5,-167.5 4571.5,-126.5 4714.5,-126.5 4714.5,-167.5"/>
<text text-anchor="start" x="4579.5" y="-155.5" font-family="Helvetica,sans-Serif" font-size="10.00">asm/rel/d/a/obj/d_a</text>
<text text-anchor="start" x="4579.5" y="-144.5" font-family="Helvetica,sans-Serif" font-size="10.00">_obj_tobyhouse/d_a_obj</text>
<text text-anchor="middle" x="4643" y="-133.5" font-family="Helvetica,sans-Serif" font-size="10.00">_tobyhouse/__dt__4cXyzFv.s</text>
</a>
</g>
</g>
<!-- Node1&#45;&gt;Node30 -->
<g id="edge30" class="edge">
<title>Node1&#45;&gt;Node30</title>
<path fill="none" stroke="#63b8ff" d="M2232.44,-222.66C2634.65,-220.86 4329.71,-211.08 4563,-173 4567.04,-172.34 4571.17,-171.52 4575.3,-170.59"/>
<polygon fill="#63b8ff" stroke="#63b8ff" points="4575.89,-174.05 4584.76,-168.25 4574.21,-167.26 4575.89,-174.05"/>
</g>
<!-- Node2&#45;&gt;Node3 -->
<g id="edge2" class="edge">
<title>Node2&#45;&gt;Node3</title>
<path fill="none" stroke="#63b8ff" d="M91.19,-131.6C99.68,-120.67 111.4,-105.58 120.43,-93.96"/>
<polygon fill="#63b8ff" stroke="#63b8ff" points="122.96,-96.42 126.33,-86.37 117.43,-92.12 122.96,-96.42"/>
</g>
<!-- Node4 -->
<g id="node4" class="node">
<title>Node4</title>
<g id="a_node4"><a xlink:href="stddef_8h.html" target="_top" xlink:title=" ">
<polygon fill="white" stroke="#666666" points="202,-30 66,-30 66,0 202,0 202,-30"/>
<text text-anchor="start" x="74" y="-18" font-family="Helvetica,sans-Serif" font-size="10.00">MSL_C/MSL_Common/Src</text>
<text text-anchor="middle" x="134" y="-7" font-family="Helvetica,sans-Serif" font-size="10.00">/stddef.h</text>
</a>
</g>
</g>
<!-- Node3&#45;&gt;Node4 -->
<g id="edge3" class="edge">
<title>Node3&#45;&gt;Node4</title>
<path fill="none" stroke="#63b8ff" d="M134,-65.87C134,-59.4 134,-50.2 134,-41.45"/>
<polygon fill="#63b8ff" stroke="#63b8ff" points="137.5,-41.63 134,-31.63 130.5,-41.63 137.5,-41.63"/>
</g>
</g>
</svg>
        <g id="navigator" transform="translate(0 0)" fill="#404254">
                <rect fill="#f2f5e9" fill-opacity="0.5" stroke="#606060" stroke-width=".5" x="0" y="0" width="60" height="60"/>
                <use id="zoomplus" xlink:href="#zoomPlus" x="17" y="9" onmousedown="handleZoom(evt,'in')"/>
                <use id="zoomminus" xlink:href="#zoomMin" x="42" y="9" onmousedown="handleZoom(evt,'out')"/>
                <use id="reset" xlink:href="#resetDef" x="30" y="36" onmousedown="handleReset()"/>
                <g id="arrowUp" xlink:href="#dirArrow" transform="translate(30 24)" onmousedown="handlePan(0,-1)">
                  <use xlink:href="#rim" fill="#404040">
                        <set attributeName="fill" to="#808080" begin="arrowUp.mouseover" end="arrowUp.mouseout"/>
                  </use>
                  <path fill="none" stroke="white" stroke-width="1.5" d="M0,-3.0v7 M-2.5,-0.5L0,-3.0L2.5,-0.5"/>
                </g>
                <g id="arrowRight" xlink:href="#dirArrow" transform="rotate(90) translate(36 -43)" onmousedown="handlePan(1,0)">
                  <use xlink:href="#rim" fill="#404040">
                        <set attributeName="fill" to="#808080" begin="arrowRight.mouseover" end="arrowRight.mouseout"/>
                  </use>
                  <path fill="none" stroke="white" stroke-width="1.5" d="M0,-3.0v7 M-2.5,-0.5L0,-3.0L2.5,-0.5"/>
                </g>
                <g id="arrowDown" xlink:href="#dirArrow" transform="rotate(180) translate(-30 -48)" onmousedown="handlePan(0,1)">
                  <use xlink:href="#rim" fill="#404040">
                        <set attributeName="fill" to="#808080" begin="arrowDown.mouseover" end="arrowDown.mouseout"/>
                  </use>
                  <path fill="none" stroke="white" stroke-width="1.5" d="M0,-3.0v7 M-2.5,-0.5L0,-3.0L2.5,-0.5"/>
                </g>
                <g id="arrowLeft" xlink:href="#dirArrow" transform="rotate(270) translate(-36 17)" onmousedown="handlePan(-1,0)">
                  <use xlink:href="#rim" fill="#404040">
                        <set attributeName="fill" to="#808080" begin="arrowLeft.mouseover" end="arrowLeft.mouseout"/>
                  </use>
                  <path fill="none" stroke="white" stroke-width="1.5" d="M0,-3.0v7 M-2.5,-0.5L0,-3.0L2.5,-0.5"/>
                </g>
        </g>
        <svg viewBox="0 0 15 15" width="100%" height="30px" preserveAspectRatio="xMaxYMin meet">
         <g id="arrow_out" transform="scale(0.3 0.3)">
          <a xlink:href="d__a__obj__tobyhouse_8cpp__incl_org.svg" target="_base">
           <rect id="button" ry="5" rx="5" y="6" x="6" height="38" width="38"
                fill="#f2f5e9" fill-opacity="0.5" stroke="#606060" stroke-width="1.0"/>
           <path id="arrow"
             d="M 11.500037,31.436501 C 11.940474,20.09759 22.043105,11.32322 32.158766,21.979434 L 37.068811,17.246167 C 37.068811,17.246167 37.088388,32 37.088388,32 L 22.160133,31.978069 C 22.160133,31.978069 26.997745,27.140456 26.997745,27.140456 C 18.528582,18.264221 13.291696,25.230495 11.500037,31.436501 z"
             style="fill:#404040;"/>
          </a>
         </g>
        </svg>
</svg>
