<?xml version="1.0" encoding="UTF-8" standalone="no"?>
<!DOCTYPE svg PUBLIC "-//W3C//DTD SVG 1.1//EN"
 "http://www.w3.org/Graphics/SVG/1.1/DTD/svg11.dtd">
<!-- Generated by graphviz version 7.0.5 (20221223.1930)
 -->
<!-- Title: rel/d/a/obj/d_a_obj_zra_freeze/d_a_obj_zra_freeze.cpp Pages: 1 -->
<!--zoomable 258 -->
<svg id="main" version="1.1" xmlns="http://www.w3.org/2000/svg" xmlns:xlink="http://www.w3.org/1999/xlink" xml:space="preserve" onload="init(evt)">
<style type="text/css"><![CDATA[
.edge:hover path { stroke: red; }
.edge:hover polygon { stroke: red; fill: red; }
]]></style>
<script type="text/javascript"><![CDATA[
var edges = document.getElementsByTagName('g');
if (edges && edges.length) {
  for (var i=0;i<edges.length;i++) {
    if (edges[i].id.substr(0,4)=='edge') {
      edges[i].setAttribute('class','edge');
    }
  }
}
]]></script>
        <defs>
                <circle id="rim" cx="0" cy="0" r="7"/>
                <circle id="rim2" cx="0" cy="0" r="3.5"/>
                <g id="zoomPlus">
                        <use xlink:href="#rim" fill="#404040">
                                <set attributeName="fill" to="#808080" begin="zoomplus.mouseover" end="zoomplus.mouseout"/>
                        </use>
                        <path d="M-4,0h8M0,-4v8" fill="none" stroke="white" stroke-width="1.5" pointer-events="none"/>
                </g>
                <g id="zoomMin">
                        <use xlink:href="#rim" fill="#404040">
                                <set attributeName="fill" to="#808080" begin="zoomminus.mouseover" end="zoomminus.mouseout"/>
                        </use>
                        <path d="M-4,0h8" fill="none" stroke="white" stroke-width="1.5" pointer-events="none"/>
                </g>
                <g id="dirArrow">
                        <path fill="none" stroke="white" stroke-width="1.5" d="M0,-3.0v7 M-2.5,-0.5L0,-3.0L2.5,-0.5"/>
                </g>
               <g id="resetDef">
                       <use xlink:href="#rim2" fill="#404040">
                               <set attributeName="fill" to="#808080" begin="reset.mouseover" end="reset.mouseout"/>
                       </use>
               </g>
        </defs>

<script type="text/javascript">
var viewWidth = 2283;
var viewHeight = 258;
var sectionId = 'dynsection-0';
</script>
<script xlink:href="svgpan.js"/>
<svg id="graph" class="graph">
<g id="viewport">
<title>rel/d/a/obj/d_a_obj_zra_freeze/d_a_obj_zra_freeze.cpp</title>
<!-- Node1 -->
<g id="node1" class="node">
<title>Node1</title>
<g id="a_node1"><a xlink:title=" ">
<polygon fill="#999999" stroke="#666666" points="1073,-250 970,-250 970,-209 1073,-209 1073,-250"/>
<text text-anchor="start" x="978" y="-238" font-family="Helvetica,sans-Serif" font-size="10.00">rel/d/a/obj/d_a_obj</text>
<text text-anchor="start" x="978" y="-227" font-family="Helvetica,sans-Serif" font-size="10.00">_zra_freeze/d_a_obj</text>
<text text-anchor="middle" x="1021.5" y="-216" font-family="Helvetica,sans-Serif" font-size="10.00">_zra_freeze.cpp</text>
</a>
</g>
</g>
<!-- Node2 -->
<g id="node2" class="node">
<title>Node2</title>
<g id="a_node2"><a xlink:href="d__a__obj__zra__freeze_8h.html" target="_top" xlink:title=" ">
<polygon fill="white" stroke="#666666" points="103,-167.5 0,-167.5 0,-126.5 103,-126.5 103,-167.5"/>
<text text-anchor="start" x="8" y="-155.5" font-family="Helvetica,sans-Serif" font-size="10.00">rel/d/a/obj/d_a_obj</text>
<text text-anchor="start" x="8" y="-144.5" font-family="Helvetica,sans-Serif" font-size="10.00">_zra_freeze/d_a_obj</text>
<text text-anchor="middle" x="51.5" y="-133.5" font-family="Helvetica,sans-Serif" font-size="10.00">_zra_freeze.h</text>
</a>
</g>
</g>
<!-- Node1&#45;&gt;Node2 -->
<g id="edge1" class="edge">
<title>Node1&#45;&gt;Node2</title>
<path fill="none" stroke="#63b8ff" d="M969.77,-227.36C803.18,-223.38 281.99,-208.35 117.5,-173 114.92,-172.45 112.31,-171.81 109.69,-171.11"/>
<polygon fill="#63b8ff" stroke="#63b8ff" points="110.97,-167.83 100.38,-168.33 108.96,-174.54 110.97,-167.83"/>
</g>
<!-- Node3 -->
<g id="node3" class="node">
<title>Node3</title>
<g id="a_node3"><a xlink:href="types_8h.html" target="_top" xlink:title=" ">
<polygon fill="white" stroke="#666666" points="132,-85 51,-85 51,-66 132,-66 132,-85"/>
<text text-anchor="middle" x="91.5" y="-73" font-family="Helvetica,sans-Serif" font-size="10.00">dolphin/types.h</text>
</a>
</g>
</g>
<!-- Node1&#45;&gt;Node3 -->
<g id="edge5" class="edge">
<title>Node1&#45;&gt;Node3</title>
<path fill="none" stroke="#63b8ff" d="M969.55,-227.93C792.78,-225.62 221.64,-214.96 151.5,-173 136.45,-164 113.37,-120.96 100.67,-95.5"/>
<polygon fill="#63b8ff" stroke="#63b8ff" points="103.84,-94.02 96.3,-86.59 97.56,-97.11 103.84,-94.02"/>
</g>
<!-- Node5 -->
<g id="node5" class="node">
<title>Node5</title>
<g id="a_node5"><a xlink:href="dol2asm_8h.html" target="_top" xlink:title=" ">
<polygon fill="white" stroke="#666666" points="221,-156.5 160,-156.5 160,-137.5 221,-137.5 221,-156.5"/>
<text text-anchor="middle" x="190.5" y="-144.5" font-family="Helvetica,sans-Serif" font-size="10.00">dol2asm.h</text>
</a>
</g>
</g>
<!-- Node1&#45;&gt;Node5 -->
<g id="edge4" class="edge">
<title>Node1&#45;&gt;Node5</title>
<path fill="none" stroke="#63b8ff" d="M969.57,-228.12C816.41,-226.49 368.62,-217.9 230.5,-173 223.61,-170.76 216.71,-167.09 210.63,-163.24"/>
<polygon fill="#63b8ff" stroke="#63b8ff" points="212.78,-160.46 202.56,-157.67 208.8,-166.23 212.78,-160.46"/>
</g>
<!-- Node6 -->
<g id="node6" class="node">
<title>Node6</title>
<g id="a_node6"><a xlink:title=" ">
<polygon fill="#e0e0e0" stroke="#999999" points="378,-173 239,-173 239,-121 378,-121 378,-173"/>
<text text-anchor="start" x="247" y="-161" font-family="Helvetica,sans-Serif" font-size="10.00">asm/rel/d/a/obj/d_a</text>
<text text-anchor="start" x="247" y="-150" font-family="Helvetica,sans-Serif" font-size="10.00">_obj_zra_freeze/d_a</text>
<text text-anchor="start" x="247" y="-139" font-family="Helvetica,sans-Serif" font-size="10.00">_obj_zra_freeze/setBaseMtx</text>
<text text-anchor="middle" x="308.5" y="-128" font-family="Helvetica,sans-Serif" font-size="10.00">__13daZraFreeze_cFv.s</text>
</a>
</g>
</g>
<!-- Node1&#45;&gt;Node6 -->
<g id="edge6" class="edge">
<title>Node1&#45;&gt;Node6</title>
<path fill="none" stroke="#63b8ff" d="M969.6,-227.79C862.48,-225.51 609.28,-215.86 389.19,-173.12"/>
<polygon fill="#63b8ff" stroke="#63b8ff" points="390.04,-169.72 379.56,-171.22 388.69,-176.59 390.04,-169.72"/>
</g>
<!-- Node7 -->
<g id="node7" class="node">
<title>Node7</title>
<g id="a_node7"><a xlink:title=" ">
<polygon fill="#e0e0e0" stroke="#999999" points="561,-173 396,-173 396,-121 561,-121 561,-173"/>
<text text-anchor="start" x="404" y="-161" font-family="Helvetica,sans-Serif" font-size="10.00">asm/rel/d/a/obj/d_a</text>
<text text-anchor="start" x="404" y="-150" font-family="Helvetica,sans-Serif" font-size="10.00">_obj_zra_freeze/d_a</text>
<text text-anchor="start" x="404" y="-139" font-family="Helvetica,sans-Serif" font-size="10.00">_obj_zra_freeze/chkActorInScreen</text>
<text text-anchor="middle" x="478.5" y="-128" font-family="Helvetica,sans-Serif" font-size="10.00">__13daZraFreeze_cFv.s</text>
</a>
</g>
</g>
<!-- Node1&#45;&gt;Node7 -->
<g id="edge7" class="edge">
<title>Node1&#45;&gt;Node7</title>
<path fill="none" stroke="#63b8ff" d="M969.72,-224.55C887.52,-217.75 722.04,-201.92 572.33,-173.23"/>
<polygon fill="#63b8ff" stroke="#63b8ff" points="573.09,-169.81 562.61,-171.34 571.75,-176.68 573.09,-169.81"/>
</g>
<!-- Node8 -->
<g id="node8" class="node">
<title>Node8</title>
<g id="a_node8"><a xlink:title=" ">
<polygon fill="#e0e0e0" stroke="#999999" points="715.5,-173 579.5,-173 579.5,-121 715.5,-121 715.5,-173"/>
<text text-anchor="start" x="587.5" y="-161" font-family="Helvetica,sans-Serif" font-size="10.00">asm/rel/d/a/obj/d_a</text>
<text text-anchor="start" x="587.5" y="-150" font-family="Helvetica,sans-Serif" font-size="10.00">_obj_zra_freeze/d_a</text>
<text text-anchor="start" x="587.5" y="-139" font-family="Helvetica,sans-Serif" font-size="10.00">_obj_zra_freeze/createSolid</text>
<text text-anchor="middle" x="647.5" y="-128" font-family="Helvetica,sans-Serif" font-size="10.00">Heap__FP10fopAc_ac_c.s</text>
</a>
</g>
</g>
<!-- Node1&#45;&gt;Node8 -->
<g id="edge8" class="edge">
<title>Node1&#45;&gt;Node8</title>
<path fill="none" stroke="#63b8ff" d="M969.74,-220.8C912.64,-211.87 817.91,-195.74 726.92,-173.22"/>
<polygon fill="#63b8ff" stroke="#63b8ff" points="727.86,-169.84 717.31,-170.81 726.16,-176.63 727.86,-169.84"/>
</g>
<!-- Node9 -->
<g id="node9" class="node">
<title>Node9</title>
<g id="a_node9"><a xlink:title=" ">
<polygon fill="#e0e0e0" stroke="#999999" points="855,-173 734,-173 734,-121 855,-121 855,-173"/>
<text text-anchor="start" x="742" y="-161" font-family="Helvetica,sans-Serif" font-size="10.00">asm/rel/d/a/obj/d_a</text>
<text text-anchor="start" x="742" y="-150" font-family="Helvetica,sans-Serif" font-size="10.00">_obj_zra_freeze/d_a</text>
<text text-anchor="start" x="742" y="-139" font-family="Helvetica,sans-Serif" font-size="10.00">_obj_zra_freeze/Create</text>
<text text-anchor="middle" x="794.5" y="-128" font-family="Helvetica,sans-Serif" font-size="10.00">__13daZraFreeze_cFv.s</text>
</a>
</g>
</g>
<!-- Node1&#45;&gt;Node9 -->
<g id="edge9" class="edge">
<title>Node1&#45;&gt;Node9</title>
<path fill="none" stroke="#63b8ff" d="M969.51,-210.17C941.43,-200.26 905.91,-187.7 866,-173.53"/>
<polygon fill="#63b8ff" stroke="#63b8ff" points="867.22,-170.25 856.63,-170.2 864.88,-176.85 867.22,-170.25"/>
</g>
<!-- Node10 -->
<g id="node10" class="node">
<title>Node10</title>
<g id="a_node10"><a xlink:title=" ">
<polygon fill="#e0e0e0" stroke="#999999" points="1012,-173 873,-173 873,-121 1012,-121 1012,-173"/>
<text text-anchor="start" x="881" y="-161" font-family="Helvetica,sans-Serif" font-size="10.00">asm/rel/d/a/obj/d_a</text>
<text text-anchor="start" x="881" y="-150" font-family="Helvetica,sans-Serif" font-size="10.00">_obj_zra_freeze/d_a</text>
<text text-anchor="start" x="881" y="-139" font-family="Helvetica,sans-Serif" font-size="10.00">_obj_zra_freeze/CreateHeap</text>
<text text-anchor="middle" x="942.5" y="-128" font-family="Helvetica,sans-Serif" font-size="10.00">__13daZraFreeze_cFv.s</text>
</a>
</g>
</g>
<!-- Node1&#45;&gt;Node10 -->
<g id="edge10" class="edge">
<title>Node1&#45;&gt;Node10</title>
<path fill="none" stroke="#63b8ff" d="M1001.97,-208.6C993.91,-200.39 984.35,-190.65 975.28,-181.4"/>
<polygon fill="#63b8ff" stroke="#63b8ff" points="978.04,-179.22 968.54,-174.53 973.05,-184.12 978.04,-179.22"/>
</g>
<!-- Node11 -->
<g id="node11" class="node">
<title>Node11</title>
<g id="a_node11"><a xlink:title=" ">
<polygon fill="#e0e0e0" stroke="#999999" points="1173,-173 1030,-173 1030,-121 1173,-121 1173,-173"/>
<text text-anchor="start" x="1038" y="-161" font-family="Helvetica,sans-Serif" font-size="10.00">asm/rel/d/a/obj/d_a</text>
<text text-anchor="start" x="1038" y="-150" font-family="Helvetica,sans-Serif" font-size="10.00">_obj_zra_freeze/d_a</text>
<text text-anchor="start" x="1038" y="-139" font-family="Helvetica,sans-Serif" font-size="10.00">_obj_zra_freeze/setHitodama</text>
<text text-anchor="middle" x="1101.5" y="-128" font-family="Helvetica,sans-Serif" font-size="10.00">Prtcl__13daZraFreeze_cFv.s</text>
</a>
</g>
</g>
<!-- Node1&#45;&gt;Node11 -->
<g id="edge11" class="edge">
<title>Node1&#45;&gt;Node11</title>
<path fill="none" stroke="#63b8ff" d="M1041.28,-208.6C1049.43,-200.39 1059.12,-190.65 1068.31,-181.4"/>
<polygon fill="#63b8ff" stroke="#63b8ff" points="1070.57,-184.09 1075.14,-174.53 1065.61,-179.15 1070.57,-184.09"/>
</g>
<!-- Node12 -->
<g id="node12" class="node">
<title>Node12</title>
<g id="a_node12"><a xlink:title=" ">
<polygon fill="#e0e0e0" stroke="#999999" points="1313.5,-173 1191.5,-173 1191.5,-121 1313.5,-121 1313.5,-173"/>
<text text-anchor="start" x="1199.5" y="-161" font-family="Helvetica,sans-Serif" font-size="10.00">asm/rel/d/a/obj/d_a</text>
<text text-anchor="start" x="1199.5" y="-150" font-family="Helvetica,sans-Serif" font-size="10.00">_obj_zra_freeze/d_a</text>
<text text-anchor="start" x="1199.5" y="-139" font-family="Helvetica,sans-Serif" font-size="10.00">_obj_zra_freeze/Execute</text>
<text text-anchor="middle" x="1252.5" y="-128" font-family="Helvetica,sans-Serif" font-size="10.00">__13daZraFreeze_cFv.s</text>
</a>
</g>
</g>
<!-- Node1&#45;&gt;Node12 -->
<g id="edge12" class="edge">
<title>Node1&#45;&gt;Node12</title>
<path fill="none" stroke="#63b8ff" d="M1073.39,-210.77C1102.44,-200.82 1139.57,-188.02 1180.33,-173.75"/>
<polygon fill="#63b8ff" stroke="#63b8ff" points="1181.35,-177.1 1189.63,-170.49 1179.03,-170.5 1181.35,-177.1"/>
</g>
<!-- Node13 -->
<g id="node13" class="node">
<title>Node13</title>
<g id="a_node13"><a xlink:title=" ">
<polygon fill="#e0e0e0" stroke="#999999" points="1453,-173 1332,-173 1332,-121 1453,-121 1453,-173"/>
<text text-anchor="start" x="1340" y="-161" font-family="Helvetica,sans-Serif" font-size="10.00">asm/rel/d/a/obj/d_a</text>
<text text-anchor="start" x="1340" y="-150" font-family="Helvetica,sans-Serif" font-size="10.00">_obj_zra_freeze/d_a</text>
<text text-anchor="start" x="1340" y="-139" font-family="Helvetica,sans-Serif" font-size="10.00">_obj_zra_freeze/Draw</text>
<text text-anchor="middle" x="1392.5" y="-128" font-family="Helvetica,sans-Serif" font-size="10.00">__13daZraFreeze_cFv.s</text>
</a>
</g>
</g>
<!-- Node1&#45;&gt;Node13 -->
<g id="edge13" class="edge">
<title>Node1&#45;&gt;Node13</title>
<path fill="none" stroke="#63b8ff" d="M1073.46,-221.51C1131.6,-213.12 1228.67,-197.4 1320.7,-173.3"/>
<polygon fill="#63b8ff" stroke="#63b8ff" points="1321.37,-176.74 1330.14,-170.79 1319.57,-169.98 1321.37,-176.74"/>
</g>
<!-- Node14 -->
<g id="node14" class="node">
<title>Node14</title>
<g id="a_node14"><a xlink:title=" ">
<polygon fill="#e0e0e0" stroke="#999999" points="1592,-173 1471,-173 1471,-121 1592,-121 1592,-173"/>
<text text-anchor="start" x="1479" y="-161" font-family="Helvetica,sans-Serif" font-size="10.00">asm/rel/d/a/obj/d_a</text>
<text text-anchor="start" x="1479" y="-150" font-family="Helvetica,sans-Serif" font-size="10.00">_obj_zra_freeze/d_a</text>
<text text-anchor="start" x="1479" y="-139" font-family="Helvetica,sans-Serif" font-size="10.00">_obj_zra_freeze/Delete</text>
<text text-anchor="middle" x="1531.5" y="-128" font-family="Helvetica,sans-Serif" font-size="10.00">__13daZraFreeze_cFv.s</text>
</a>
</g>
</g>
<!-- Node1&#45;&gt;Node14 -->
<g id="edge14" class="edge">
<title>Node1&#45;&gt;Node14</title>
<path fill="none" stroke="#63b8ff" d="M1073.43,-225.71C1154.47,-220.55 1315.81,-207.01 1459.57,-173.49"/>
<polygon fill="#63b8ff" stroke="#63b8ff" points="1460.38,-176.9 1469.3,-171.18 1458.76,-170.09 1460.38,-176.9"/>
</g>
<!-- Node15 -->
<g id="node15" class="node">
<title>Node15</title>
<g id="a_node15"><a xlink:title=" ">
<polygon fill="#e0e0e0" stroke="#999999" points="1760.5,-173 1610.5,-173 1610.5,-121 1760.5,-121 1760.5,-173"/>
<text text-anchor="start" x="1618.5" y="-161" font-family="Helvetica,sans-Serif" font-size="10.00">asm/rel/d/a/obj/d_a</text>
<text text-anchor="start" x="1618.5" y="-150" font-family="Helvetica,sans-Serif" font-size="10.00">_obj_zra_freeze/d_a</text>
<text text-anchor="start" x="1618.5" y="-139" font-family="Helvetica,sans-Serif" font-size="10.00">_obj_zra_freeze/daZraFreeze</text>
<text text-anchor="middle" x="1685.5" y="-128" font-family="Helvetica,sans-Serif" font-size="10.00">_Draw__FP13daZraFreeze_c.s</text>
</a>
</g>
</g>
<!-- Node1&#45;&gt;Node15 -->
<g id="edge15" class="edge">
<title>Node1&#45;&gt;Node15</title>
<path fill="none" stroke="#63b8ff" d="M1073.19,-226.91C1173.23,-223.11 1400.25,-210.97 1598.88,-173.35"/>
<polygon fill="#63b8ff" stroke="#63b8ff" points="1599.47,-176.8 1608.63,-171.47 1598.15,-169.92 1599.47,-176.8"/>
</g>
<!-- Node16 -->
<g id="node16" class="node">
<title>Node16</title>
<g id="a_node16"><a xlink:title=" ">
<polygon fill="#e0e0e0" stroke="#999999" points="1940.5,-173 1778.5,-173 1778.5,-121 1940.5,-121 1940.5,-173"/>
<text text-anchor="start" x="1786.5" y="-161" font-family="Helvetica,sans-Serif" font-size="10.00">asm/rel/d/a/obj/d_a</text>
<text text-anchor="start" x="1786.5" y="-150" font-family="Helvetica,sans-Serif" font-size="10.00">_obj_zra_freeze/d_a</text>
<text text-anchor="start" x="1786.5" y="-139" font-family="Helvetica,sans-Serif" font-size="10.00">_obj_zra_freeze/daZraFreeze</text>
<text text-anchor="middle" x="1859.5" y="-128" font-family="Helvetica,sans-Serif" font-size="10.00">_Execute__FP13daZraFreeze_c.s</text>
</a>
</g>
</g>
<!-- Node1&#45;&gt;Node16 -->
<g id="edge16" class="edge">
<title>Node1&#45;&gt;Node16</title>
<path fill="none" stroke="#63b8ff" d="M1073.17,-228.15C1193.57,-226.6 1502.09,-218.33 1767.23,-173.24"/>
<polygon fill="#63b8ff" stroke="#63b8ff" points="1767.48,-176.75 1776.74,-171.6 1766.29,-169.85 1767.48,-176.75"/>
</g>
<!-- Node17 -->
<g id="node17" class="node">
<title>Node17</title>
<g id="a_node17"><a xlink:title=" ">
<polygon fill="#e0e0e0" stroke="#999999" points="2114,-173 1959,-173 1959,-121 2114,-121 2114,-173"/>
<text text-anchor="start" x="1967" y="-161" font-family="Helvetica,sans-Serif" font-size="10.00">asm/rel/d/a/obj/d_a</text>
<text text-anchor="start" x="1967" y="-150" font-family="Helvetica,sans-Serif" font-size="10.00">_obj_zra_freeze/d_a</text>
<text text-anchor="start" x="1967" y="-139" font-family="Helvetica,sans-Serif" font-size="10.00">_obj_zra_freeze/daZraFreeze</text>
<text text-anchor="middle" x="2036.5" y="-128" font-family="Helvetica,sans-Serif" font-size="10.00">_Delete__FP13daZraFreeze_c.s</text>
</a>
</g>
</g>
<!-- Node1&#45;&gt;Node17 -->
<g id="edge17" class="edge">
<title>Node1&#45;&gt;Node17</title>
<path fill="none" stroke="#63b8ff" d="M1073.3,-226.9C1239.28,-221.56 1757.57,-203.01 1947.67,-173.06"/>
<polygon fill="#63b8ff" stroke="#63b8ff" points="1948.12,-176.54 1957.41,-171.46 1946.98,-169.63 1948.12,-176.54"/>
</g>
<!-- Node18 -->
<g id="node18" class="node">
<title>Node18</title>
<g id="a_node18"><a xlink:title=" ">
<polygon fill="#e0e0e0" stroke="#999999" points="2274.5,-173 2132.5,-173 2132.5,-121 2274.5,-121 2274.5,-173"/>
<text text-anchor="start" x="2140.5" y="-161" font-family="Helvetica,sans-Serif" font-size="10.00">asm/rel/d/a/obj/d_a</text>
<text text-anchor="start" x="2140.5" y="-150" font-family="Helvetica,sans-Serif" font-size="10.00">_obj_zra_freeze/d_a</text>
<text text-anchor="start" x="2140.5" y="-139" font-family="Helvetica,sans-Serif" font-size="10.00">_obj_zra_freeze/daZraFreeze</text>
<text text-anchor="middle" x="2203.5" y="-128" font-family="Helvetica,sans-Serif" font-size="10.00">_create__FP10fopAc_ac_c.s</text>
</a>
</g>
</g>
<!-- Node1&#45;&gt;Node18 -->
<g id="edge18" class="edge">
<title>Node1&#45;&gt;Node18</title>
<path fill="none" stroke="#63b8ff" d="M1073.22,-227.63C1259.46,-224.21 1896.2,-210.18 2121.16,-173.16"/>
<polygon fill="#63b8ff" stroke="#63b8ff" points="2121.44,-176.66 2130.7,-171.52 2120.25,-169.76 2121.44,-176.66"/>
</g>
<!-- Node2&#45;&gt;Node3 -->
<g id="edge2" class="edge">
<title>Node2&#45;&gt;Node3</title>
<path fill="none" stroke="#63b8ff" d="M62.86,-126.27C68.49,-116.47 75.27,-104.7 80.81,-95.07"/>
<polygon fill="#63b8ff" stroke="#63b8ff" points="83.71,-97.04 85.67,-86.63 77.65,-93.55 83.71,-97.04"/>
</g>
<!-- Node4 -->
<g id="node4" class="node">
<title>Node4</title>
<g id="a_node4"><a xlink:href="stddef_8h.html" target="_top" xlink:title=" ">
<polygon fill="white" stroke="#666666" points="159.5,-30 23.5,-30 23.5,0 159.5,0 159.5,-30"/>
<text text-anchor="start" x="31.5" y="-18" font-family="Helvetica,sans-Serif" font-size="10.00">MSL_C/MSL_Common/Src</text>
<text text-anchor="middle" x="91.5" y="-7" font-family="Helvetica,sans-Serif" font-size="10.00">/stddef.h</text>
</a>
</g>
</g>
<!-- Node3&#45;&gt;Node4 -->
<g id="edge3" class="edge">
<title>Node3&#45;&gt;Node4</title>
<path fill="none" stroke="#63b8ff" d="M91.5,-65.87C91.5,-59.4 91.5,-50.2 91.5,-41.45"/>
<polygon fill="#63b8ff" stroke="#63b8ff" points="95,-41.63 91.5,-31.63 88,-41.63 95,-41.63"/>
</g>
</g>
</svg>
        <g id="navigator" transform="translate(0 0)" fill="#404254">
                <rect fill="#f2f5e9" fill-opacity="0.5" stroke="#606060" stroke-width=".5" x="0" y="0" width="60" height="60"/>
                <use id="zoomplus" xlink:href="#zoomPlus" x="17" y="9" onmousedown="handleZoom(evt,'in')"/>
                <use id="zoomminus" xlink:href="#zoomMin" x="42" y="9" onmousedown="handleZoom(evt,'out')"/>
                <use id="reset" xlink:href="#resetDef" x="30" y="36" onmousedown="handleReset()"/>
                <g id="arrowUp" xlink:href="#dirArrow" transform="translate(30 24)" onmousedown="handlePan(0,-1)">
                  <use xlink:href="#rim" fill="#404040">
                        <set attributeName="fill" to="#808080" begin="arrowUp.mouseover" end="arrowUp.mouseout"/>
                  </use>
                  <path fill="none" stroke="white" stroke-width="1.5" d="M0,-3.0v7 M-2.5,-0.5L0,-3.0L2.5,-0.5"/>
                </g>
                <g id="arrowRight" xlink:href="#dirArrow" transform="rotate(90) translate(36 -43)" onmousedown="handlePan(1,0)">
                  <use xlink:href="#rim" fill="#404040">
                        <set attributeName="fill" to="#808080" begin="arrowRight.mouseover" end="arrowRight.mouseout"/>
                  </use>
                  <path fill="none" stroke="white" stroke-width="1.5" d="M0,-3.0v7 M-2.5,-0.5L0,-3.0L2.5,-0.5"/>
                </g>
                <g id="arrowDown" xlink:href="#dirArrow" transform="rotate(180) translate(-30 -48)" onmousedown="handlePan(0,1)">
                  <use xlink:href="#rim" fill="#404040">
                        <set attributeName="fill" to="#808080" begin="arrowDown.mouseover" end="arrowDown.mouseout"/>
                  </use>
                  <path fill="none" stroke="white" stroke-width="1.5" d="M0,-3.0v7 M-2.5,-0.5L0,-3.0L2.5,-0.5"/>
                </g>
                <g id="arrowLeft" xlink:href="#dirArrow" transform="rotate(270) translate(-36 17)" onmousedown="handlePan(-1,0)">
                  <use xlink:href="#rim" fill="#404040">
                        <set attributeName="fill" to="#808080" begin="arrowLeft.mouseover" end="arrowLeft.mouseout"/>
                  </use>
                  <path fill="none" stroke="white" stroke-width="1.5" d="M0,-3.0v7 M-2.5,-0.5L0,-3.0L2.5,-0.5"/>
                </g>
        </g>
        <svg viewBox="0 0 15 15" width="100%" height="30px" preserveAspectRatio="xMaxYMin meet">
         <g id="arrow_out" transform="scale(0.3 0.3)">
          <a xlink:href="d__a__obj__zra__freeze_8cpp__incl_org.svg" target="_base">
           <rect id="button" ry="5" rx="5" y="6" x="6" height="38" width="38"
                fill="#f2f5e9" fill-opacity="0.5" stroke="#606060" stroke-width="1.0"/>
           <path id="arrow"
             d="M 11.500037,31.436501 C 11.940474,20.09759 22.043105,11.32322 32.158766,21.979434 L 37.068811,17.246167 C 37.068811,17.246167 37.088388,32 37.088388,32 L 22.160133,31.978069 C 22.160133,31.978069 26.997745,27.140456 26.997745,27.140456 C 18.528582,18.264221 13.291696,25.230495 11.500037,31.436501 z"
             style="fill:#404040;"/>
          </a>
         </g>
        </svg>
</svg>
