<?xml version="1.0" encoding="UTF-8" standalone="no"?>
<!DOCTYPE svg PUBLIC "-//W3C//DTD SVG 1.1//EN"
 "http://www.w3.org/Graphics/SVG/1.1/DTD/svg11.dtd">
<!-- Generated by graphviz version 7.0.5 (20221223.1930)
 -->
<!-- Title: rel/d/a/obj/d_a_obj_kkanban/d_a_obj_kkanban.cpp Pages: 1 -->
<!--zoomable 247 -->
<svg id="main" version="1.1" xmlns="http://www.w3.org/2000/svg" xmlns:xlink="http://www.w3.org/1999/xlink" xml:space="preserve" onload="init(evt)">
<style type="text/css"><![CDATA[
.edge:hover path { stroke: red; }
.edge:hover polygon { stroke: red; fill: red; }
]]></style>
<script type="text/javascript"><![CDATA[
var edges = document.getElementsByTagName('g');
if (edges && edges.length) {
  for (var i=0;i<edges.length;i++) {
    if (edges[i].id.substr(0,4)=='edge') {
      edges[i].setAttribute('class','edge');
    }
  }
}
]]></script>
        <defs>
                <circle id="rim" cx="0" cy="0" r="7"/>
                <circle id="rim2" cx="0" cy="0" r="3.5"/>
                <g id="zoomPlus">
                        <use xlink:href="#rim" fill="#404040">
                                <set attributeName="fill" to="#808080" begin="zoomplus.mouseover" end="zoomplus.mouseout"/>
                        </use>
                        <path d="M-4,0h8M0,-4v8" fill="none" stroke="white" stroke-width="1.5" pointer-events="none"/>
                </g>
                <g id="zoomMin">
                        <use xlink:href="#rim" fill="#404040">
                                <set attributeName="fill" to="#808080" begin="zoomminus.mouseover" end="zoomminus.mouseout"/>
                        </use>
                        <path d="M-4,0h8" fill="none" stroke="white" stroke-width="1.5" pointer-events="none"/>
                </g>
                <g id="dirArrow">
                        <path fill="none" stroke="white" stroke-width="1.5" d="M0,-3.0v7 M-2.5,-0.5L0,-3.0L2.5,-0.5"/>
                </g>
               <g id="resetDef">
                       <use xlink:href="#rim2" fill="#404040">
                               <set attributeName="fill" to="#808080" begin="reset.mouseover" end="reset.mouseout"/>
                       </use>
               </g>
        </defs>

<script type="text/javascript">
var viewWidth = 3516;
var viewHeight = 247;
var sectionId = 'dynsection-0';
</script>
<script xlink:href="svgpan.js"/>
<svg id="graph" class="graph">
<g id="viewport">
<title>rel/d/a/obj/d_a_obj_kkanban/d_a_obj_kkanban.cpp</title>
<!-- Node1 -->
<g id="node1" class="node">
<title>Node1</title>
<g id="a_node1"><a xlink:title=" ">
<polygon fill="#999999" stroke="#666666" points="1553,-239 1398,-239 1398,-209 1553,-209 1553,-239"/>
<text text-anchor="start" x="1406" y="-227" font-family="Helvetica,sans-Serif" font-size="10.00">rel/d/a/obj/d_a_obj</text>
<text text-anchor="middle" x="1475.5" y="-216" font-family="Helvetica,sans-Serif" font-size="10.00">_kkanban/d_a_obj_kkanban.cpp</text>
</a>
</g>
</g>
<!-- Node2 -->
<g id="node2" class="node">
<title>Node2</title>
<g id="a_node2"><a xlink:href="d__a__obj__kkanban_8h.html" target="_top" xlink:title=" ">
<polygon fill="white" stroke="#666666" points="145,-162 0,-162 0,-132 145,-132 145,-162"/>
<text text-anchor="start" x="8" y="-150" font-family="Helvetica,sans-Serif" font-size="10.00">rel/d/a/obj/d_a_obj</text>
<text text-anchor="middle" x="72.5" y="-139" font-family="Helvetica,sans-Serif" font-size="10.00">_kkanban/d_a_obj_kkanban.h</text>
</a>
</g>
</g>
<!-- Node1&#45;&gt;Node2 -->
<g id="edge1" class="edge">
<title>Node1&#45;&gt;Node2</title>
<path fill="none" stroke="#63b8ff" d="M1397.8,-222.51C1153.07,-220.58 400.21,-211.57 159.5,-173 148.44,-171.23 136.8,-168.51 125.76,-165.5"/>
<polygon fill="#63b8ff" stroke="#63b8ff" points="126.99,-162.21 116.41,-162.84 125.07,-168.94 126.99,-162.21"/>
</g>
<!-- Node3 -->
<g id="node3" class="node">
<title>Node3</title>
<g id="a_node3"><a xlink:href="types_8h.html" target="_top" xlink:title=" ">
<polygon fill="white" stroke="#666666" points="163,-85 82,-85 82,-66 163,-66 163,-85"/>
<text text-anchor="middle" x="122.5" y="-73" font-family="Helvetica,sans-Serif" font-size="10.00">dolphin/types.h</text>
</a>
</g>
</g>
<!-- Node1&#45;&gt;Node3 -->
<g id="edge5" class="edge">
<title>Node1&#45;&gt;Node3</title>
<path fill="none" stroke="#63b8ff" d="M1397.63,-221.82C1127.85,-217.5 246.78,-201.26 193.5,-173 191.37,-171.87 155.15,-121.84 135.28,-94.28"/>
<polygon fill="#63b8ff" stroke="#63b8ff" points="138.37,-92.57 129.68,-86.5 132.69,-96.66 138.37,-92.57"/>
</g>
<!-- Node5 -->
<g id="node5" class="node">
<title>Node5</title>
<g id="a_node5"><a xlink:href="dol2asm_8h.html" target="_top" xlink:title=" ">
<polygon fill="white" stroke="#666666" points="263,-156.5 202,-156.5 202,-137.5 263,-137.5 263,-156.5"/>
<text text-anchor="middle" x="232.5" y="-144.5" font-family="Helvetica,sans-Serif" font-size="10.00">dol2asm.h</text>
</a>
</g>
</g>
<!-- Node1&#45;&gt;Node5 -->
<g id="edge4" class="edge">
<title>Node1&#45;&gt;Node5</title>
<path fill="none" stroke="#63b8ff" d="M1397.61,-222.07C1148.2,-218.79 379.34,-206.06 272.5,-173 265.58,-170.86 258.67,-167.22 252.59,-163.36"/>
<polygon fill="#63b8ff" stroke="#63b8ff" points="254.74,-160.59 244.52,-157.77 250.75,-166.34 254.74,-160.59"/>
</g>
<!-- Node6 -->
<g id="node6" class="node">
<title>Node6</title>
<g id="a_node6"><a xlink:title=" ">
<polygon fill="#e0e0e0" stroke="#999999" points="403.5,-173 281.5,-173 281.5,-121 403.5,-121 403.5,-173"/>
<text text-anchor="start" x="289.5" y="-161" font-family="Helvetica,sans-Serif" font-size="10.00">asm/rel/d/a/obj/d_a</text>
<text text-anchor="start" x="289.5" y="-150" font-family="Helvetica,sans-Serif" font-size="10.00">_obj_kkanban/d_a_obj</text>
<text text-anchor="start" x="289.5" y="-139" font-family="Helvetica,sans-Serif" font-size="10.00">_kkanban/nodeCallBack</text>
<text text-anchor="middle" x="342.5" y="-128" font-family="Helvetica,sans-Serif" font-size="10.00">__FP8J3DJointi.s</text>
</a>
</g>
</g>
<!-- Node1&#45;&gt;Node6 -->
<g id="edge6" class="edge">
<title>Node1&#45;&gt;Node6</title>
<path fill="none" stroke="#63b8ff" d="M1397.66,-222.32C1189.47,-220.02 622.11,-210.6 414.75,-173.1"/>
<polygon fill="#63b8ff" stroke="#63b8ff" points="415.63,-169.71 405.16,-171.28 414.33,-176.58 415.63,-169.71"/>
</g>
<!-- Node7 -->
<g id="node7" class="node">
<title>Node7</title>
<g id="a_node7"><a xlink:title=" ">
<polygon fill="#e0e0e0" stroke="#999999" points="553.5,-173 421.5,-173 421.5,-121 553.5,-121 553.5,-173"/>
<text text-anchor="start" x="429.5" y="-161" font-family="Helvetica,sans-Serif" font-size="10.00">asm/rel/d/a/obj/d_a</text>
<text text-anchor="start" x="429.5" y="-150" font-family="Helvetica,sans-Serif" font-size="10.00">_obj_kkanban/d_a_obj</text>
<text text-anchor="start" x="429.5" y="-139" font-family="Helvetica,sans-Serif" font-size="10.00">_kkanban/initBaseMtx</text>
<text text-anchor="middle" x="487.5" y="-128" font-family="Helvetica,sans-Serif" font-size="10.00">__14daObjKKanban_cFv.s</text>
</a>
</g>
</g>
<!-- Node1&#45;&gt;Node7 -->
<g id="edge7" class="edge">
<title>Node1&#45;&gt;Node7</title>
<path fill="none" stroke="#63b8ff" d="M1397.57,-221.36C1211.29,-217.02 743.14,-203.55 565.26,-173"/>
<polygon fill="#63b8ff" stroke="#63b8ff" points="565.92,-169.56 555.46,-171.23 564.68,-176.45 565.92,-169.56"/>
</g>
<!-- Node8 -->
<g id="node8" class="node">
<title>Node8</title>
<g id="a_node8"><a xlink:title=" ">
<polygon fill="#e0e0e0" stroke="#999999" points="699,-173 572,-173 572,-121 699,-121 699,-173"/>
<text text-anchor="start" x="580" y="-161" font-family="Helvetica,sans-Serif" font-size="10.00">asm/rel/d/a/obj/d_a</text>
<text text-anchor="start" x="580" y="-150" font-family="Helvetica,sans-Serif" font-size="10.00">_obj_kkanban/d_a_obj</text>
<text text-anchor="start" x="580" y="-139" font-family="Helvetica,sans-Serif" font-size="10.00">_kkanban/setBaseMtx_</text>
<text text-anchor="middle" x="635.5" y="-128" font-family="Helvetica,sans-Serif" font-size="10.00">_14daObjKKanban_cFv.s</text>
</a>
</g>
</g>
<!-- Node1&#45;&gt;Node8 -->
<g id="edge8" class="edge">
<title>Node1&#45;&gt;Node8</title>
<path fill="none" stroke="#63b8ff" d="M1397.72,-220.54C1234.21,-214.96 858.42,-199.85 710.42,-173.05"/>
<polygon fill="#63b8ff" stroke="#63b8ff" points="711.3,-169.65 700.82,-171.21 709.98,-176.53 711.3,-169.65"/>
</g>
<!-- Node9 -->
<g id="node9" class="node">
<title>Node9</title>
<g id="a_node9"><a xlink:title=" ">
<polygon fill="#e0e0e0" stroke="#999999" points="923.5,-167.5 717.5,-167.5 717.5,-126.5 923.5,-126.5 923.5,-167.5"/>
<text text-anchor="start" x="725.5" y="-155.5" font-family="Helvetica,sans-Serif" font-size="10.00">asm/rel/d/a/obj/d_a</text>
<text text-anchor="start" x="725.5" y="-144.5" font-family="Helvetica,sans-Serif" font-size="10.00">_obj_kkanban/d_a_obj</text>
<text text-anchor="middle" x="820.5" y="-133.5" font-family="Helvetica,sans-Serif" font-size="10.00">_kkanban/Create__14daObjKKanban_cFv.s</text>
</a>
</g>
</g>
<!-- Node1&#45;&gt;Node9 -->
<g id="edge9" class="edge">
<title>Node1&#45;&gt;Node9</title>
<path fill="none" stroke="#63b8ff" d="M1397.78,-218.97C1292.03,-212.78 1097.1,-198.84 932.5,-173 926.98,-172.13 921.33,-171.16 915.64,-170.11"/>
<polygon fill="#63b8ff" stroke="#63b8ff" points="916.64,-166.73 906.16,-168.28 915.32,-173.61 916.64,-166.73"/>
</g>
<!-- Node10 -->
<g id="node10" class="node">
<title>Node10</title>
<g id="a_node10"><a xlink:title=" ">
<polygon fill="#e0e0e0" stroke="#999999" points="1145.5,-167.5 941.5,-167.5 941.5,-126.5 1145.5,-126.5 1145.5,-167.5"/>
<text text-anchor="start" x="949.5" y="-155.5" font-family="Helvetica,sans-Serif" font-size="10.00">asm/rel/d/a/obj/d_a</text>
<text text-anchor="start" x="949.5" y="-144.5" font-family="Helvetica,sans-Serif" font-size="10.00">_obj_kkanban/d_a_obj</text>
<text text-anchor="middle" x="1043.5" y="-133.5" font-family="Helvetica,sans-Serif" font-size="10.00">_kkanban/setTG__14daObjKKanban_cFv.s</text>
</a>
</g>
</g>
<!-- Node1&#45;&gt;Node10 -->
<g id="edge10" class="edge">
<title>Node1&#45;&gt;Node10</title>
<path fill="none" stroke="#63b8ff" d="M1397.66,-212.27C1332.71,-202.98 1237.82,-188.6 1155.5,-173 1150.93,-172.13 1146.26,-171.22 1141.55,-170.27"/>
<polygon fill="#63b8ff" stroke="#63b8ff" points="1142.5,-166.89 1132,-168.3 1141.09,-173.75 1142.5,-166.89"/>
</g>
<!-- Node11 -->
<g id="node11" class="node">
<title>Node11</title>
<g id="a_node11"><a xlink:title=" ">
<polygon fill="#e0e0e0" stroke="#999999" points="1291,-173 1164,-173 1164,-121 1291,-121 1291,-173"/>
<text text-anchor="start" x="1172" y="-161" font-family="Helvetica,sans-Serif" font-size="10.00">asm/rel/d/a/obj/d_a</text>
<text text-anchor="start" x="1172" y="-150" font-family="Helvetica,sans-Serif" font-size="10.00">_obj_kkanban/d_a_obj</text>
<text text-anchor="start" x="1172" y="-139" font-family="Helvetica,sans-Serif" font-size="10.00">_kkanban/CreateHeap_</text>
<text text-anchor="middle" x="1227.5" y="-128" font-family="Helvetica,sans-Serif" font-size="10.00">_14daObjKKanban_cFv.s</text>
</a>
</g>
</g>
<!-- Node1&#45;&gt;Node11 -->
<g id="edge11" class="edge">
<title>Node1&#45;&gt;Node11</title>
<path fill="none" stroke="#63b8ff" d="M1422.06,-208.5C1389.81,-199.58 1347.67,-187.61 1301.9,-173.38"/>
<polygon fill="#63b8ff" stroke="#63b8ff" points="1303.17,-170.11 1292.58,-170.46 1301.08,-176.79 1303.17,-170.11"/>
</g>
<!-- Node12 -->
<g id="node12" class="node">
<title>Node12</title>
<g id="a_node12"><a xlink:title=" ">
<polygon fill="#e0e0e0" stroke="#999999" points="1458,-173 1309,-173 1309,-121 1458,-121 1458,-173"/>
<text text-anchor="start" x="1317" y="-161" font-family="Helvetica,sans-Serif" font-size="10.00">asm/rel/d/a/obj/d_a</text>
<text text-anchor="start" x="1317" y="-150" font-family="Helvetica,sans-Serif" font-size="10.00">_obj_kkanban/d_a_obj</text>
<text text-anchor="start" x="1317" y="-139" font-family="Helvetica,sans-Serif" font-size="10.00">_kkanban/create1st__14daObj</text>
<text text-anchor="middle" x="1383.5" y="-128" font-family="Helvetica,sans-Serif" font-size="10.00">KKanban_cFv.s</text>
</a>
</g>
</g>
<!-- Node1&#45;&gt;Node12 -->
<g id="edge12" class="edge">
<title>Node1&#45;&gt;Node12</title>
<path fill="none" stroke="#63b8ff" d="M1457.76,-208.54C1447.93,-200.52 1435.29,-190.22 1423.23,-180.39"/>
<polygon fill="#63b8ff" stroke="#63b8ff" points="1425.73,-177.91 1415.77,-174.31 1421.31,-183.34 1425.73,-177.91"/>
</g>
<!-- Node13 -->
<g id="node13" class="node">
<title>Node13</title>
<g id="a_node13"><a xlink:title=" ">
<polygon fill="#e0e0e0" stroke="#999999" points="1658.5,-173 1476.5,-173 1476.5,-121 1658.5,-121 1658.5,-173"/>
<text text-anchor="start" x="1484.5" y="-161" font-family="Helvetica,sans-Serif" font-size="10.00">asm/rel/d/a/obj/d_a</text>
<text text-anchor="start" x="1484.5" y="-150" font-family="Helvetica,sans-Serif" font-size="10.00">_obj_kkanban/d_a_obj</text>
<text text-anchor="start" x="1484.5" y="-139" font-family="Helvetica,sans-Serif" font-size="10.00">_kkanban/Execute__14daObjKKanban</text>
<text text-anchor="middle" x="1567.5" y="-128" font-family="Helvetica,sans-Serif" font-size="10.00">_cFPPA3_A4_f.s</text>
</a>
</g>
</g>
<!-- Node1&#45;&gt;Node13 -->
<g id="edge13" class="edge">
<title>Node1&#45;&gt;Node13</title>
<path fill="none" stroke="#63b8ff" d="M1493.24,-208.54C1503.07,-200.52 1515.71,-190.22 1527.77,-180.39"/>
<polygon fill="#63b8ff" stroke="#63b8ff" points="1529.69,-183.34 1535.23,-174.31 1525.27,-177.91 1529.69,-183.34"/>
</g>
<!-- Node14 -->
<g id="node14" class="node">
<title>Node14</title>
<g id="a_node14"><a xlink:title=" ">
<polygon fill="#e0e0e0" stroke="#999999" points="1876.5,-167.5 1676.5,-167.5 1676.5,-126.5 1876.5,-126.5 1876.5,-167.5"/>
<text text-anchor="start" x="1684.5" y="-155.5" font-family="Helvetica,sans-Serif" font-size="10.00">asm/rel/d/a/obj/d_a</text>
<text text-anchor="start" x="1684.5" y="-144.5" font-family="Helvetica,sans-Serif" font-size="10.00">_obj_kkanban/d_a_obj</text>
<text text-anchor="middle" x="1776.5" y="-133.5" font-family="Helvetica,sans-Serif" font-size="10.00">_kkanban/Draw__14daObjKKanban_cFv.s</text>
</a>
</g>
</g>
<!-- Node1&#45;&gt;Node14 -->
<g id="edge14" class="edge">
<title>Node1&#45;&gt;Node14</title>
<path fill="none" stroke="#63b8ff" d="M1533.54,-208.54C1576.58,-197.81 1636.09,-182.99 1685.44,-170.69"/>
<polygon fill="#63b8ff" stroke="#63b8ff" points="1686.13,-174.12 1694.99,-168.31 1684.44,-167.33 1686.13,-174.12"/>
</g>
<!-- Node15 -->
<g id="node15" class="node">
<title>Node15</title>
<g id="a_node15"><a xlink:title=" ">
<polygon fill="#e0e0e0" stroke="#999999" points="2100,-167.5 1895,-167.5 1895,-126.5 2100,-126.5 2100,-167.5"/>
<text text-anchor="start" x="1903" y="-155.5" font-family="Helvetica,sans-Serif" font-size="10.00">asm/rel/d/a/obj/d_a</text>
<text text-anchor="start" x="1903" y="-144.5" font-family="Helvetica,sans-Serif" font-size="10.00">_obj_kkanban/d_a_obj</text>
<text text-anchor="middle" x="1997.5" y="-133.5" font-family="Helvetica,sans-Serif" font-size="10.00">_kkanban/Delete__14daObjKKanban_cFv.s</text>
</a>
</g>
</g>
<!-- Node1&#45;&gt;Node15 -->
<g id="edge15" class="edge">
<title>Node1&#45;&gt;Node15</title>
<path fill="none" stroke="#63b8ff" d="M1553.29,-215.81C1636,-207.63 1770.49,-192.8 1885.5,-173 1890.63,-172.12 1895.88,-171.15 1901.17,-170.14"/>
<polygon fill="#63b8ff" stroke="#63b8ff" points="1901.45,-173.65 1910.58,-168.27 1900.09,-166.78 1901.45,-173.65"/>
</g>
<!-- Node16 -->
<g id="node16" class="node">
<title>Node16</title>
<g id="a_node16"><a xlink:title=" ">
<polygon fill="#e0e0e0" stroke="#999999" points="2297,-173 2118,-173 2118,-121 2297,-121 2297,-173"/>
<text text-anchor="start" x="2126" y="-161" font-family="Helvetica,sans-Serif" font-size="10.00">asm/rel/d/a/obj/d_a</text>
<text text-anchor="start" x="2126" y="-150" font-family="Helvetica,sans-Serif" font-size="10.00">_obj_kkanban/d_a_obj</text>
<text text-anchor="start" x="2126" y="-139" font-family="Helvetica,sans-Serif" font-size="10.00">_kkanban/daObjKKanban</text>
<text text-anchor="middle" x="2207.5" y="-128" font-family="Helvetica,sans-Serif" font-size="10.00">_create1st__FP14daObjKKanban_c.s</text>
</a>
</g>
</g>
<!-- Node1&#45;&gt;Node16 -->
<g id="edge16" class="edge">
<title>Node1&#45;&gt;Node16</title>
<path fill="none" stroke="#63b8ff" d="M1553.12,-221.15C1670.98,-217.4 1902.17,-206.35 2106.4,-173.4"/>
<polygon fill="#63b8ff" stroke="#63b8ff" points="2106.85,-176.87 2116.15,-171.8 2105.72,-169.96 2106.85,-176.87"/>
</g>
<!-- Node17 -->
<g id="node17" class="node">
<title>Node17</title>
<g id="a_node17"><a xlink:title=" ">
<polygon fill="#e0e0e0" stroke="#999999" points="2473.5,-167.5 2315.5,-167.5 2315.5,-126.5 2473.5,-126.5 2473.5,-167.5"/>
<text text-anchor="start" x="2323.5" y="-155.5" font-family="Helvetica,sans-Serif" font-size="10.00">asm/rel/d/a/obj/d_a</text>
<text text-anchor="start" x="2323.5" y="-144.5" font-family="Helvetica,sans-Serif" font-size="10.00">_obj_kkanban/d_a_obj</text>
<text text-anchor="middle" x="2394.5" y="-133.5" font-family="Helvetica,sans-Serif" font-size="10.00">_kkanban/__dt__8cM3dGTriFv.s</text>
</a>
</g>
</g>
<!-- Node1&#45;&gt;Node17 -->
<g id="edge17" class="edge">
<title>Node1&#45;&gt;Node17</title>
<path fill="none" stroke="#63b8ff" d="M1553.47,-223.91C1701.41,-224.4 2032.57,-219.58 2306.5,-173 2310.78,-172.27 2315.15,-171.41 2319.54,-170.46"/>
<polygon fill="#63b8ff" stroke="#63b8ff" points="2320.04,-173.94 2328.99,-168.27 2318.46,-167.12 2320.04,-173.94"/>
</g>
<!-- Node18 -->
<g id="node18" class="node">
<title>Node18</title>
<g id="a_node18"><a xlink:title=" ">
<polygon fill="#e0e0e0" stroke="#999999" points="2653,-167.5 2492,-167.5 2492,-126.5 2653,-126.5 2653,-167.5"/>
<text text-anchor="start" x="2500" y="-155.5" font-family="Helvetica,sans-Serif" font-size="10.00">asm/rel/d/a/obj/d_a</text>
<text text-anchor="start" x="2500" y="-144.5" font-family="Helvetica,sans-Serif" font-size="10.00">_obj_kkanban/d_a_obj</text>
<text text-anchor="middle" x="2572.5" y="-133.5" font-family="Helvetica,sans-Serif" font-size="10.00">_kkanban/__dt__8cM3dGPlaFv.s</text>
</a>
</g>
</g>
<!-- Node1&#45;&gt;Node18 -->
<g id="edge18" class="edge">
<title>Node1&#45;&gt;Node18</title>
<path fill="none" stroke="#63b8ff" d="M1553.14,-221.37C1756.96,-216.72 2303.87,-201.88 2482.5,-173 2486.88,-172.29 2491.35,-171.45 2495.84,-170.51"/>
<polygon fill="#63b8ff" stroke="#63b8ff" points="2496.54,-173.94 2505.53,-168.33 2495.01,-167.11 2496.54,-173.94"/>
</g>
<!-- Node19 -->
<g id="node19" class="node">
<title>Node19</title>
<g id="a_node19"><a xlink:title=" ">
<polygon fill="#e0e0e0" stroke="#999999" points="2835.5,-167.5 2671.5,-167.5 2671.5,-126.5 2835.5,-126.5 2835.5,-167.5"/>
<text text-anchor="start" x="2679.5" y="-155.5" font-family="Helvetica,sans-Serif" font-size="10.00">asm/rel/d/a/obj/d_a</text>
<text text-anchor="start" x="2679.5" y="-144.5" font-family="Helvetica,sans-Serif" font-size="10.00">_obj_kkanban/d_a_obj</text>
<text text-anchor="middle" x="2753.5" y="-133.5" font-family="Helvetica,sans-Serif" font-size="10.00">_kkanban/__dt__8cM3dGAabFv.s</text>
</a>
</g>
</g>
<!-- Node1&#45;&gt;Node19 -->
<g id="edge19" class="edge">
<title>Node1&#45;&gt;Node19</title>
<path fill="none" stroke="#63b8ff" d="M1553.11,-222.02C1781.33,-218.77 2447.64,-206.6 2662.5,-173 2667.14,-172.27 2671.89,-171.4 2676.66,-170.41"/>
<polygon fill="#63b8ff" stroke="#63b8ff" points="2677.3,-173.85 2686.3,-168.26 2675.78,-167.02 2677.3,-173.85"/>
</g>
<!-- Node20 -->
<g id="node20" class="node">
<title>Node20</title>
<g id="a_node20"><a xlink:title=" ">
<polygon fill="#e0e0e0" stroke="#999999" points="3059,-173 2854,-173 2854,-121 3059,-121 3059,-173"/>
<text text-anchor="start" x="2862" y="-161" font-family="Helvetica,sans-Serif" font-size="10.00">asm/rel/d/a/obj/d_a</text>
<text text-anchor="start" x="2862" y="-150" font-family="Helvetica,sans-Serif" font-size="10.00">_obj_kkanban/d_a_obj</text>
<text text-anchor="start" x="2862" y="-139" font-family="Helvetica,sans-Serif" font-size="10.00">_kkanban/daObjKKanban</text>
<text text-anchor="middle" x="2956.5" y="-128" font-family="Helvetica,sans-Serif" font-size="10.00">_MoveBGDelete__FP14daObjKKanban_c.s</text>
</a>
</g>
</g>
<!-- Node1&#45;&gt;Node20 -->
<g id="edge20" class="edge">
<title>Node1&#45;&gt;Node20</title>
<path fill="none" stroke="#63b8ff" d="M1553.13,-222.03C1800.69,-218.67 2570.51,-205.88 2842.76,-173.07"/>
<polygon fill="#63b8ff" stroke="#63b8ff" points="2842.8,-176.59 2852.29,-171.88 2841.93,-169.64 2842.8,-176.59"/>
</g>
<!-- Node21 -->
<g id="node21" class="node">
<title>Node21</title>
<g id="a_node21"><a xlink:title=" ">
<polygon fill="#e0e0e0" stroke="#999999" points="3289.5,-173 3077.5,-173 3077.5,-121 3289.5,-121 3289.5,-173"/>
<text text-anchor="start" x="3085.5" y="-161" font-family="Helvetica,sans-Serif" font-size="10.00">asm/rel/d/a/obj/d_a</text>
<text text-anchor="start" x="3085.5" y="-150" font-family="Helvetica,sans-Serif" font-size="10.00">_obj_kkanban/d_a_obj</text>
<text text-anchor="start" x="3085.5" y="-139" font-family="Helvetica,sans-Serif" font-size="10.00">_kkanban/daObjKKanban</text>
<text text-anchor="middle" x="3183.5" y="-128" font-family="Helvetica,sans-Serif" font-size="10.00">_MoveBGExecute__FP14daObjKKanban_c.s</text>
</a>
</g>
</g>
<!-- Node1&#45;&gt;Node21 -->
<g id="edge21" class="edge">
<title>Node1&#45;&gt;Node21</title>
<path fill="none" stroke="#63b8ff" d="M1553.44,-222.44C1827.7,-220.17 2748.27,-210.03 3066.06,-173.17"/>
<polygon fill="#63b8ff" stroke="#63b8ff" points="3066.09,-176.69 3075.6,-172.03 3065.26,-169.74 3066.09,-176.69"/>
</g>
<!-- Node22 -->
<g id="node22" class="node">
<title>Node22</title>
<g id="a_node22"><a xlink:title=" ">
<polygon fill="#e0e0e0" stroke="#999999" points="3507.5,-173 3307.5,-173 3307.5,-121 3507.5,-121 3507.5,-173"/>
<text text-anchor="start" x="3315.5" y="-161" font-family="Helvetica,sans-Serif" font-size="10.00">asm/rel/d/a/obj/d_a</text>
<text text-anchor="start" x="3315.5" y="-150" font-family="Helvetica,sans-Serif" font-size="10.00">_obj_kkanban/d_a_obj</text>
<text text-anchor="start" x="3315.5" y="-139" font-family="Helvetica,sans-Serif" font-size="10.00">_kkanban/daObjKKanban</text>
<text text-anchor="middle" x="3407.5" y="-128" font-family="Helvetica,sans-Serif" font-size="10.00">_MoveBGDraw__FP14daObjKKanban_c.s</text>
</a>
</g>
</g>
<!-- Node1&#45;&gt;Node22 -->
<g id="edge22" class="edge">
<title>Node1&#45;&gt;Node22</title>
<path fill="none" stroke="#63b8ff" d="M1553.27,-222.92C1852.45,-222.28 2930.15,-217.02 3295.86,-173.18"/>
<polygon fill="#63b8ff" stroke="#63b8ff" points="3296.26,-176.66 3305.76,-171.96 3295.4,-169.71 3296.26,-176.66"/>
</g>
<!-- Node2&#45;&gt;Node3 -->
<g id="edge2" class="edge">
<title>Node2&#45;&gt;Node3</title>
<path fill="none" stroke="#63b8ff" d="M82.86,-131.6C90.65,-120.77 101.36,-105.88 109.69,-94.31"/>
<polygon fill="#63b8ff" stroke="#63b8ff" points="112.37,-96.57 115.37,-86.41 106.69,-92.48 112.37,-96.57"/>
</g>
<!-- Node4 -->
<g id="node4" class="node">
<title>Node4</title>
<g id="a_node4"><a xlink:href="stddef_8h.html" target="_top" xlink:title=" ">
<polygon fill="white" stroke="#666666" points="190.5,-30 54.5,-30 54.5,0 190.5,0 190.5,-30"/>
<text text-anchor="start" x="62.5" y="-18" font-family="Helvetica,sans-Serif" font-size="10.00">MSL_C/MSL_Common/Src</text>
<text text-anchor="middle" x="122.5" y="-7" font-family="Helvetica,sans-Serif" font-size="10.00">/stddef.h</text>
</a>
</g>
</g>
<!-- Node3&#45;&gt;Node4 -->
<g id="edge3" class="edge">
<title>Node3&#45;&gt;Node4</title>
<path fill="none" stroke="#63b8ff" d="M122.5,-65.87C122.5,-59.4 122.5,-50.2 122.5,-41.45"/>
<polygon fill="#63b8ff" stroke="#63b8ff" points="126,-41.63 122.5,-31.63 119,-41.63 126,-41.63"/>
</g>
</g>
</svg>
        <g id="navigator" transform="translate(0 0)" fill="#404254">
                <rect fill="#f2f5e9" fill-opacity="0.5" stroke="#606060" stroke-width=".5" x="0" y="0" width="60" height="60"/>
                <use id="zoomplus" xlink:href="#zoomPlus" x="17" y="9" onmousedown="handleZoom(evt,'in')"/>
                <use id="zoomminus" xlink:href="#zoomMin" x="42" y="9" onmousedown="handleZoom(evt,'out')"/>
                <use id="reset" xlink:href="#resetDef" x="30" y="36" onmousedown="handleReset()"/>
                <g id="arrowUp" xlink:href="#dirArrow" transform="translate(30 24)" onmousedown="handlePan(0,-1)">
                  <use xlink:href="#rim" fill="#404040">
                        <set attributeName="fill" to="#808080" begin="arrowUp.mouseover" end="arrowUp.mouseout"/>
                  </use>
                  <path fill="none" stroke="white" stroke-width="1.5" d="M0,-3.0v7 M-2.5,-0.5L0,-3.0L2.5,-0.5"/>
                </g>
                <g id="arrowRight" xlink:href="#dirArrow" transform="rotate(90) translate(36 -43)" onmousedown="handlePan(1,0)">
                  <use xlink:href="#rim" fill="#404040">
                        <set attributeName="fill" to="#808080" begin="arrowRight.mouseover" end="arrowRight.mouseout"/>
                  </use>
                  <path fill="none" stroke="white" stroke-width="1.5" d="M0,-3.0v7 M-2.5,-0.5L0,-3.0L2.5,-0.5"/>
                </g>
                <g id="arrowDown" xlink:href="#dirArrow" transform="rotate(180) translate(-30 -48)" onmousedown="handlePan(0,1)">
                  <use xlink:href="#rim" fill="#404040">
                        <set attributeName="fill" to="#808080" begin="arrowDown.mouseover" end="arrowDown.mouseout"/>
                  </use>
                  <path fill="none" stroke="white" stroke-width="1.5" d="M0,-3.0v7 M-2.5,-0.5L0,-3.0L2.5,-0.5"/>
                </g>
                <g id="arrowLeft" xlink:href="#dirArrow" transform="rotate(270) translate(-36 17)" onmousedown="handlePan(-1,0)">
                  <use xlink:href="#rim" fill="#404040">
                        <set attributeName="fill" to="#808080" begin="arrowLeft.mouseover" end="arrowLeft.mouseout"/>
                  </use>
                  <path fill="none" stroke="white" stroke-width="1.5" d="M0,-3.0v7 M-2.5,-0.5L0,-3.0L2.5,-0.5"/>
                </g>
        </g>
        <svg viewBox="0 0 15 15" width="100%" height="30px" preserveAspectRatio="xMaxYMin meet">
         <g id="arrow_out" transform="scale(0.3 0.3)">
          <a xlink:href="d__a__obj__kkanban_8cpp__incl_org.svg" target="_base">
           <rect id="button" ry="5" rx="5" y="6" x="6" height="38" width="38"
                fill="#f2f5e9" fill-opacity="0.5" stroke="#606060" stroke-width="1.0"/>
           <path id="arrow"
             d="M 11.500037,31.436501 C 11.940474,20.09759 22.043105,11.32322 32.158766,21.979434 L 37.068811,17.246167 C 37.068811,17.246167 37.088388,32 37.088388,32 L 22.160133,31.978069 C 22.160133,31.978069 26.997745,27.140456 26.997745,27.140456 C 18.528582,18.264221 13.291696,25.230495 11.500037,31.436501 z"
             style="fill:#404040;"/>
          </a>
         </g>
        </svg>
</svg>
