<?xml version="1.0" encoding="UTF-8" standalone="no"?>
<!DOCTYPE svg PUBLIC "-//W3C//DTD SVG 1.1//EN"
 "http://www.w3.org/Graphics/SVG/1.1/DTD/svg11.dtd">
<!-- Generated by graphviz version 7.0.5 (20221223.1930)
 -->
<!-- Title: rel/d/a/obj/d_a_obj_ystone/d_a_obj_ystone.cpp Pages: 1 -->
<svg width="1637pt" height="258pt"
 viewBox="0.00 0.00 1636.50 258.00" xmlns="http://www.w3.org/2000/svg" xmlns:xlink="http://www.w3.org/1999/xlink">
<g id="graph0" class="graph" transform="scale(1 1) rotate(0) translate(4 254)">
<title>rel/d/a/obj/d_a_obj_ystone/d_a_obj_ystone.cpp</title>
<!-- Node1 -->
<g id="node1" class="node">
<title>Node1</title>
<g id="a_node1"><a xlink:title=" ">
<polygon fill="#999999" stroke="#666666" points="775.5,-250 636.5,-250 636.5,-220 775.5,-220 775.5,-250"/>
<text text-anchor="start" x="644.5" y="-238" font-family="Helvetica,sans-Serif" font-size="10.00">rel/d/a/obj/d_a_obj</text>
<text text-anchor="middle" x="706" y="-227" font-family="Helvetica,sans-Serif" font-size="10.00">_ystone/d_a_obj_ystone.cpp</text>
</a>
</g>
</g>
<!-- Node2 -->
<g id="node2" class="node">
<title>Node2</title>
<g id="a_node2"><a xlink:href="d__a__obj__ystone_8h.html" target="_top" xlink:title=" ">
<polygon fill="white" stroke="#666666" points="128,-167.5 0,-167.5 0,-137.5 128,-137.5 128,-167.5"/>
<text text-anchor="start" x="8" y="-155.5" font-family="Helvetica,sans-Serif" font-size="10.00">rel/d/a/obj/d_a_obj</text>
<text text-anchor="middle" x="64" y="-144.5" font-family="Helvetica,sans-Serif" font-size="10.00">_ystone/d_a_obj_ystone.h</text>
</a>
</g>
</g>
<!-- Node1&#45;&gt;Node2 -->
<g id="edge1" class="edge">
<title>Node1&#45;&gt;Node2</title>
<path fill="none" stroke="#63b8ff" d="M636.41,-234.14C528.92,-232.95 316.65,-225 142,-184 129.75,-181.13 116.88,-176.71 105.19,-172.12"/>
<polygon fill="#63b8ff" stroke="#63b8ff" points="106.83,-169.01 96.25,-168.48 104.19,-175.49 106.83,-169.01"/>
</g>
<!-- Node3 -->
<g id="node3" class="node">
<title>Node3</title>
<g id="a_node3"><a xlink:href="types_8h.html" target="_top" xlink:title=" ">
<polygon fill="white" stroke="#666666" points="150.5,-85 69.5,-85 69.5,-66 150.5,-66 150.5,-85"/>
<text text-anchor="middle" x="110" y="-73" font-family="Helvetica,sans-Serif" font-size="10.00">dolphin/types.h</text>
</a>
</g>
</g>
<!-- Node1&#45;&gt;Node3 -->
<g id="edge5" class="edge">
<title>Node1&#45;&gt;Node3</title>
<path fill="none" stroke="#63b8ff" d="M636.06,-230.87C501,-224.32 214.19,-207.79 176,-184 174.9,-183.32 139.55,-125.2 121.04,-94.72"/>
<polygon fill="#63b8ff" stroke="#63b8ff" points="124.25,-93.26 116.07,-86.52 118.27,-96.89 124.25,-93.26"/>
</g>
<!-- Node5 -->
<g id="node5" class="node">
<title>Node5</title>
<g id="a_node5"><a xlink:href="dol2asm_8h.html" target="_top" xlink:title=" ">
<polygon fill="white" stroke="#666666" points="245.5,-162 184.5,-162 184.5,-143 245.5,-143 245.5,-162"/>
<text text-anchor="middle" x="215" y="-150" font-family="Helvetica,sans-Serif" font-size="10.00">dol2asm.h</text>
</a>
</g>
</g>
<!-- Node1&#45;&gt;Node5 -->
<g id="edge4" class="edge">
<title>Node1&#45;&gt;Node5</title>
<path fill="none" stroke="#63b8ff" d="M636.34,-230.82C527.49,-225.1 322.56,-211.06 255,-184 246.83,-180.73 238.89,-175.31 232.27,-169.93"/>
<polygon fill="#63b8ff" stroke="#63b8ff" points="234.6,-167.32 224.78,-163.35 229.98,-172.58 234.6,-167.32"/>
</g>
<!-- Node6 -->
<g id="node6" class="node">
<title>Node6</title>
<g id="a_node6"><a xlink:title=" ">
<polygon fill="#e0e0e0" stroke="#999999" points="404,-173 264,-173 264,-132 404,-132 404,-173"/>
<text text-anchor="start" x="272" y="-161" font-family="Helvetica,sans-Serif" font-size="10.00">asm/rel/d/a/obj/d_a</text>
<text text-anchor="start" x="272" y="-150" font-family="Helvetica,sans-Serif" font-size="10.00">_obj_ystone/d_a_obj</text>
<text text-anchor="middle" x="334" y="-139" font-family="Helvetica,sans-Serif" font-size="10.00">_ystone/getNowLevel__Fv.s</text>
</a>
</g>
</g>
<!-- Node1&#45;&gt;Node6 -->
<g id="edge6" class="edge">
<title>Node1&#45;&gt;Node6</title>
<path fill="none" stroke="#63b8ff" d="M636.14,-225.93C576.46,-218.11 488.66,-204.42 414,-184 406.95,-182.07 399.67,-179.76 392.49,-177.29"/>
<polygon fill="#63b8ff" stroke="#63b8ff" points="393.74,-174.02 383.15,-173.94 391.38,-180.61 393.74,-174.02"/>
</g>
<!-- Node7 -->
<g id="node7" class="node">
<title>Node7</title>
<g id="a_node7"><a xlink:title=" ">
<polygon fill="#e0e0e0" stroke="#999999" points="547.5,-184 422.5,-184 422.5,-121 547.5,-121 547.5,-184"/>
<text text-anchor="start" x="430.5" y="-172" font-family="Helvetica,sans-Serif" font-size="10.00">asm/rel/d/a/obj/d_a</text>
<text text-anchor="start" x="430.5" y="-161" font-family="Helvetica,sans-Serif" font-size="10.00">_obj_ystone/d_a_obj</text>
<text text-anchor="start" x="430.5" y="-150" font-family="Helvetica,sans-Serif" font-size="10.00">_ystone/daObj_Ystone</text>
<text text-anchor="start" x="430.5" y="-139" font-family="Helvetica,sans-Serif" font-size="10.00">_Draw__FP16obj_ystone</text>
<text text-anchor="middle" x="485" y="-128" font-family="Helvetica,sans-Serif" font-size="10.00">_class.s</text>
</a>
</g>
</g>
<!-- Node1&#45;&gt;Node7 -->
<g id="edge7" class="edge">
<title>Node1&#45;&gt;Node7</title>
<path fill="none" stroke="#63b8ff" d="M660.03,-219.58C632.84,-210.83 597.56,-199.08 558.32,-184.41"/>
<polygon fill="#63b8ff" stroke="#63b8ff" points="559.72,-181.19 549.13,-180.94 557.25,-187.74 559.72,-181.19"/>
</g>
<!-- Node8 -->
<g id="node8" class="node">
<title>Node8</title>
<g id="a_node8"><a xlink:title=" ">
<polygon fill="#e0e0e0" stroke="#999999" points="698.5,-178.5 565.5,-178.5 565.5,-126.5 698.5,-126.5 698.5,-178.5"/>
<text text-anchor="start" x="573.5" y="-166.5" font-family="Helvetica,sans-Serif" font-size="10.00">asm/rel/d/a/obj/d_a</text>
<text text-anchor="start" x="573.5" y="-155.5" font-family="Helvetica,sans-Serif" font-size="10.00">_obj_ystone/d_a_obj</text>
<text text-anchor="start" x="573.5" y="-144.5" font-family="Helvetica,sans-Serif" font-size="10.00">_ystone/setModelBaseMtx</text>
<text text-anchor="middle" x="632" y="-133.5" font-family="Helvetica,sans-Serif" font-size="10.00">__FP16obj_ystone_class.s</text>
</a>
</g>
</g>
<!-- Node1&#45;&gt;Node8 -->
<g id="edge8" class="edge">
<title>Node1&#45;&gt;Node8</title>
<path fill="none" stroke="#63b8ff" d="M692.77,-219.61C684.49,-210.6 673.45,-198.59 663.06,-187.28"/>
<polygon fill="#63b8ff" stroke="#63b8ff" points="665.66,-184.94 656.31,-179.95 660.5,-189.68 665.66,-184.94"/>
</g>
<!-- Node9 -->
<g id="node9" class="node">
<title>Node9</title>
<g id="a_node9"><a xlink:title=" ">
<polygon fill="#e0e0e0" stroke="#999999" points="843,-178.5 717,-178.5 717,-126.5 843,-126.5 843,-178.5"/>
<text text-anchor="start" x="725" y="-166.5" font-family="Helvetica,sans-Serif" font-size="10.00">asm/rel/d/a/obj/d_a</text>
<text text-anchor="start" x="725" y="-155.5" font-family="Helvetica,sans-Serif" font-size="10.00">_obj_ystone/d_a_obj</text>
<text text-anchor="start" x="725" y="-144.5" font-family="Helvetica,sans-Serif" font-size="10.00">_ystone/action__FP16obj</text>
<text text-anchor="middle" x="780" y="-133.5" font-family="Helvetica,sans-Serif" font-size="10.00">_ystone_class.s</text>
</a>
</g>
</g>
<!-- Node1&#45;&gt;Node9 -->
<g id="edge9" class="edge">
<title>Node1&#45;&gt;Node9</title>
<path fill="none" stroke="#63b8ff" d="M719.23,-219.61C727.51,-210.6 738.55,-198.59 748.94,-187.28"/>
<polygon fill="#63b8ff" stroke="#63b8ff" points="751.5,-189.68 755.69,-179.95 746.34,-184.94 751.5,-189.68"/>
</g>
<!-- Node10 -->
<g id="node10" class="node">
<title>Node10</title>
<g id="a_node10"><a xlink:title=" ">
<polygon fill="#e0e0e0" stroke="#999999" points="998.5,-184 861.5,-184 861.5,-121 998.5,-121 998.5,-184"/>
<text text-anchor="start" x="869.5" y="-172" font-family="Helvetica,sans-Serif" font-size="10.00">asm/rel/d/a/obj/d_a</text>
<text text-anchor="start" x="869.5" y="-161" font-family="Helvetica,sans-Serif" font-size="10.00">_obj_ystone/d_a_obj</text>
<text text-anchor="start" x="869.5" y="-150" font-family="Helvetica,sans-Serif" font-size="10.00">_ystone/daObj_Ystone</text>
<text text-anchor="start" x="869.5" y="-139" font-family="Helvetica,sans-Serif" font-size="10.00">_Execute__FP16obj_ystone</text>
<text text-anchor="middle" x="930" y="-128" font-family="Helvetica,sans-Serif" font-size="10.00">_class.s</text>
</a>
</g>
</g>
<!-- Node1&#45;&gt;Node10 -->
<g id="edge10" class="edge">
<title>Node1&#45;&gt;Node10</title>
<path fill="none" stroke="#63b8ff" d="M749.61,-219.61C776.33,-210.67 811.45,-198.7 850.57,-184.47"/>
<polygon fill="#63b8ff" stroke="#63b8ff" points="851.55,-187.84 859.74,-181.12 849.14,-181.27 851.55,-187.84"/>
</g>
<!-- Node11 -->
<g id="node11" class="node">
<title>Node11</title>
<g id="a_node11"><a xlink:title=" ">
<polygon fill="#e0e0e0" stroke="#999999" points="1147,-184 1017,-184 1017,-121 1147,-121 1147,-184"/>
<text text-anchor="start" x="1025" y="-172" font-family="Helvetica,sans-Serif" font-size="10.00">asm/rel/d/a/obj/d_a</text>
<text text-anchor="start" x="1025" y="-161" font-family="Helvetica,sans-Serif" font-size="10.00">_obj_ystone/d_a_obj</text>
<text text-anchor="start" x="1025" y="-150" font-family="Helvetica,sans-Serif" font-size="10.00">_ystone/daObj_Ystone</text>
<text text-anchor="start" x="1025" y="-139" font-family="Helvetica,sans-Serif" font-size="10.00">_Delete__FP16obj_ystone</text>
<text text-anchor="middle" x="1082" y="-128" font-family="Helvetica,sans-Serif" font-size="10.00">_class.s</text>
</a>
</g>
</g>
<!-- Node1&#45;&gt;Node11 -->
<g id="edge11" class="edge">
<title>Node1&#45;&gt;Node11</title>
<path fill="none" stroke="#63b8ff" d="M775.95,-226.98C835.21,-220 922.36,-207.33 1005.59,-184.46"/>
<polygon fill="#63b8ff" stroke="#63b8ff" points="1006.37,-187.88 1015.05,-181.81 1004.48,-181.14 1006.37,-187.88"/>
</g>
<!-- Node12 -->
<g id="node12" class="node">
<title>Node12</title>
<g id="a_node12"><a xlink:title=" ">
<polygon fill="#e0e0e0" stroke="#999999" points="1276.5,-178.5 1165.5,-178.5 1165.5,-126.5 1276.5,-126.5 1276.5,-178.5"/>
<text text-anchor="start" x="1173.5" y="-166.5" font-family="Helvetica,sans-Serif" font-size="10.00">asm/rel/d/a/obj/d_a</text>
<text text-anchor="start" x="1173.5" y="-155.5" font-family="Helvetica,sans-Serif" font-size="10.00">_obj_ystone/d_a_obj</text>
<text text-anchor="start" x="1173.5" y="-144.5" font-family="Helvetica,sans-Serif" font-size="10.00">_ystone/useHeapInit_</text>
<text text-anchor="middle" x="1221" y="-133.5" font-family="Helvetica,sans-Serif" font-size="10.00">_FP10fopAc_ac_c.s</text>
</a>
</g>
</g>
<!-- Node1&#45;&gt;Node12 -->
<g id="edge12" class="edge">
<title>Node1&#45;&gt;Node12</title>
<path fill="none" stroke="#63b8ff" d="M775.96,-233.27C865.62,-230.75 1025.11,-220.89 1156,-184 1157.38,-183.61 1158.77,-183.19 1160.17,-182.75"/>
<polygon fill="#63b8ff" stroke="#63b8ff" points="1161.19,-186.11 1169.45,-179.47 1158.85,-179.51 1161.19,-186.11"/>
</g>
<!-- Node13 -->
<g id="node13" class="node">
<title>Node13</title>
<g id="a_node13"><a xlink:title=" ">
<polygon fill="#e0e0e0" stroke="#999999" points="1467,-173 1295,-173 1295,-132 1467,-132 1467,-173"/>
<text text-anchor="start" x="1303" y="-161" font-family="Helvetica,sans-Serif" font-size="10.00">asm/rel/d/a/obj/d_a</text>
<text text-anchor="start" x="1303" y="-150" font-family="Helvetica,sans-Serif" font-size="10.00">_obj_ystone/d_a_obj</text>
<text text-anchor="middle" x="1381" y="-139" font-family="Helvetica,sans-Serif" font-size="10.00">_ystone/__dt__12J3DFrameCtrlFv.s</text>
</a>
</g>
</g>
<!-- Node1&#45;&gt;Node13 -->
<g id="edge13" class="edge">
<title>Node1&#45;&gt;Node13</title>
<path fill="none" stroke="#63b8ff" d="M775.91,-233.02C885.61,-230.36 1104.42,-220.49 1286,-184 1295.56,-182.08 1305.51,-179.53 1315.22,-176.71"/>
<polygon fill="#63b8ff" stroke="#63b8ff" points="1316.03,-180.13 1324.6,-173.89 1314.01,-173.42 1316.03,-180.13"/>
</g>
<!-- Node14 -->
<g id="node14" class="node">
<title>Node14</title>
<g id="a_node14"><a xlink:title=" ">
<polygon fill="#e0e0e0" stroke="#999999" points="1628.5,-178.5 1485.5,-178.5 1485.5,-126.5 1628.5,-126.5 1628.5,-178.5"/>
<text text-anchor="start" x="1493.5" y="-166.5" font-family="Helvetica,sans-Serif" font-size="10.00">asm/rel/d/a/obj/d_a</text>
<text text-anchor="start" x="1493.5" y="-155.5" font-family="Helvetica,sans-Serif" font-size="10.00">_obj_ystone/d_a_obj</text>
<text text-anchor="start" x="1493.5" y="-144.5" font-family="Helvetica,sans-Serif" font-size="10.00">_ystone/daObj_Ystone</text>
<text text-anchor="middle" x="1557" y="-133.5" font-family="Helvetica,sans-Serif" font-size="10.00">_Create__FP10fopAc_ac_c.s</text>
</a>
</g>
</g>
<!-- Node1&#45;&gt;Node14 -->
<g id="edge14" class="edge">
<title>Node1&#45;&gt;Node14</title>
<path fill="none" stroke="#63b8ff" d="M775.76,-232.1C939.29,-227.22 1343.5,-212.59 1476,-184 1478.76,-183.4 1481.56,-182.73 1484.36,-181.99"/>
<polygon fill="#63b8ff" stroke="#63b8ff" points="1485.11,-185.42 1493.75,-179.3 1483.17,-178.7 1485.11,-185.42"/>
</g>
<!-- Node2&#45;&gt;Node3 -->
<g id="edge2" class="edge">
<title>Node2&#45;&gt;Node3</title>
<path fill="none" stroke="#63b8ff" d="M72.87,-137.04C80.21,-125.07 90.69,-107.98 98.65,-95.01"/>
<polygon fill="#63b8ff" stroke="#63b8ff" points="101.57,-96.93 103.82,-86.58 95.61,-93.27 101.57,-96.93"/>
</g>
<!-- Node4 -->
<g id="node4" class="node">
<title>Node4</title>
<g id="a_node4"><a xlink:href="stddef_8h.html" target="_top" xlink:title=" ">
<polygon fill="white" stroke="#666666" points="178,-30 42,-30 42,0 178,0 178,-30"/>
<text text-anchor="start" x="50" y="-18" font-family="Helvetica,sans-Serif" font-size="10.00">MSL_C/MSL_Common/Src</text>
<text text-anchor="middle" x="110" y="-7" font-family="Helvetica,sans-Serif" font-size="10.00">/stddef.h</text>
</a>
</g>
</g>
<!-- Node3&#45;&gt;Node4 -->
<g id="edge3" class="edge">
<title>Node3&#45;&gt;Node4</title>
<path fill="none" stroke="#63b8ff" d="M110,-65.87C110,-59.4 110,-50.2 110,-41.45"/>
<polygon fill="#63b8ff" stroke="#63b8ff" points="113.5,-41.63 110,-31.63 106.5,-41.63 113.5,-41.63"/>
</g>
</g>
</svg>
