<?xml version="1.0" encoding="UTF-8" standalone="no"?>
<!DOCTYPE svg PUBLIC "-//W3C//DTD SVG 1.1//EN"
 "http://www.w3.org/Graphics/SVG/1.1/DTD/svg11.dtd">
<!-- Generated by graphviz version 7.0.5 (20221223.1930)
 -->
<!-- Title: rel/d/a/tag/d_a_tag_Lv8Gate/d_a_tag_Lv8Gate.cpp Pages: 1 -->
<!--zoomable 247 -->
<svg id="main" version="1.1" xmlns="http://www.w3.org/2000/svg" xmlns:xlink="http://www.w3.org/1999/xlink" xml:space="preserve" onload="init(evt)">
<style type="text/css"><![CDATA[
.edge:hover path { stroke: red; }
.edge:hover polygon { stroke: red; fill: red; }
]]></style>
<script type="text/javascript"><![CDATA[
var edges = document.getElementsByTagName('g');
if (edges && edges.length) {
  for (var i=0;i<edges.length;i++) {
    if (edges[i].id.substr(0,4)=='edge') {
      edges[i].setAttribute('class','edge');
    }
  }
}
]]></script>
        <defs>
                <circle id="rim" cx="0" cy="0" r="7"/>
                <circle id="rim2" cx="0" cy="0" r="3.5"/>
                <g id="zoomPlus">
                        <use xlink:href="#rim" fill="#404040">
                                <set attributeName="fill" to="#808080" begin="zoomplus.mouseover" end="zoomplus.mouseout"/>
                        </use>
                        <path d="M-4,0h8M0,-4v8" fill="none" stroke="white" stroke-width="1.5" pointer-events="none"/>
                </g>
                <g id="zoomMin">
                        <use xlink:href="#rim" fill="#404040">
                                <set attributeName="fill" to="#808080" begin="zoomminus.mouseover" end="zoomminus.mouseout"/>
                        </use>
                        <path d="M-4,0h8" fill="none" stroke="white" stroke-width="1.5" pointer-events="none"/>
                </g>
                <g id="dirArrow">
                        <path fill="none" stroke="white" stroke-width="1.5" d="M0,-3.0v7 M-2.5,-0.5L0,-3.0L2.5,-0.5"/>
                </g>
               <g id="resetDef">
                       <use xlink:href="#rim2" fill="#404040">
                               <set attributeName="fill" to="#808080" begin="reset.mouseover" end="reset.mouseout"/>
                       </use>
               </g>
        </defs>

<script type="text/javascript">
var viewWidth = 1664;
var viewHeight = 247;
var sectionId = 'dynsection-0';
</script>
<script xlink:href="svgpan.js"/>
<svg id="graph" class="graph">
<g id="viewport">
<title>rel/d/a/tag/d_a_tag_Lv8Gate/d_a_tag_Lv8Gate.cpp</title>
<!-- Node1 -->
<g id="node1" class="node">
<title>Node1</title>
<g id="a_node1"><a xlink:title=" ">
<polygon fill="#999999" stroke="#666666" points="749.5,-239 591.5,-239 591.5,-209 749.5,-209 749.5,-239"/>
<text text-anchor="start" x="599.5" y="-227" font-family="Helvetica,sans-Serif" font-size="10.00">rel/d/a/tag/d_a_tag</text>
<text text-anchor="middle" x="670.5" y="-216" font-family="Helvetica,sans-Serif" font-size="10.00">_Lv8Gate/d_a_tag_Lv8Gate.cpp</text>
</a>
</g>
</g>
<!-- Node2 -->
<g id="node2" class="node">
<title>Node2</title>
<g id="a_node2"><a xlink:href="d__a__tag__Lv8Gate_8h.html" target="_top" xlink:title=" ">
<polygon fill="white" stroke="#666666" points="147,-162 0,-162 0,-132 147,-132 147,-162"/>
<text text-anchor="start" x="8" y="-150" font-family="Helvetica,sans-Serif" font-size="10.00">rel/d/a/tag/d_a_tag</text>
<text text-anchor="middle" x="73.5" y="-139" font-family="Helvetica,sans-Serif" font-size="10.00">_Lv8Gate/d_a_tag_Lv8Gate.h</text>
</a>
</g>
</g>
<!-- Node1&#45;&gt;Node2 -->
<g id="edge1" class="edge">
<title>Node1&#45;&gt;Node2</title>
<path fill="none" stroke="#63b8ff" d="M591.4,-219.62C490.78,-214.31 311.99,-201.53 161.5,-173 150.96,-171 139.86,-168.32 129.22,-165.45"/>
<polygon fill="#63b8ff" stroke="#63b8ff" points="130.38,-162.14 119.81,-162.82 128.5,-168.88 130.38,-162.14"/>
</g>
<!-- Node3 -->
<g id="node3" class="node">
<title>Node3</title>
<g id="a_node3"><a xlink:href="types_8h.html" target="_top" xlink:title=" ">
<polygon fill="white" stroke="#666666" points="165,-85 84,-85 84,-66 165,-66 165,-85"/>
<text text-anchor="middle" x="124.5" y="-73" font-family="Helvetica,sans-Serif" font-size="10.00">dolphin/types.h</text>
</a>
</g>
</g>
<!-- Node1&#45;&gt;Node3 -->
<g id="edge5" class="edge">
<title>Node1&#45;&gt;Node3</title>
<path fill="none" stroke="#63b8ff" d="M591.27,-222.3C474.01,-220 261.05,-210.59 195.5,-173 193.41,-171.8 157.17,-121.81 137.29,-94.26"/>
<polygon fill="#63b8ff" stroke="#63b8ff" points="140.38,-92.56 131.69,-86.49 134.7,-96.65 140.38,-92.56"/>
</g>
<!-- Node5 -->
<g id="node5" class="node">
<title>Node5</title>
<g id="a_node5"><a xlink:href="dol2asm_8h.html" target="_top" xlink:title=" ">
<polygon fill="white" stroke="#666666" points="265,-156.5 204,-156.5 204,-137.5 265,-137.5 265,-156.5"/>
<text text-anchor="middle" x="234.5" y="-144.5" font-family="Helvetica,sans-Serif" font-size="10.00">dol2asm.h</text>
</a>
</g>
</g>
<!-- Node1&#45;&gt;Node5 -->
<g id="edge4" class="edge">
<title>Node1&#45;&gt;Node5</title>
<path fill="none" stroke="#63b8ff" d="M591.17,-222.93C509.53,-220.59 379.76,-210.48 274.5,-173 267.78,-170.61 261,-166.95 254.98,-163.16"/>
<polygon fill="#63b8ff" stroke="#63b8ff" points="257.2,-160.44 246.96,-157.72 253.27,-166.23 257.2,-160.44"/>
</g>
<!-- Node6 -->
<g id="node6" class="node">
<title>Node6</title>
<g id="a_node6"><a xlink:title=" ">
<polygon fill="#e0e0e0" stroke="#999999" points="417.5,-173 283.5,-173 283.5,-121 417.5,-121 417.5,-173"/>
<text text-anchor="start" x="291.5" y="-161" font-family="Helvetica,sans-Serif" font-size="10.00">asm/rel/d/a/tag/d_a</text>
<text text-anchor="start" x="291.5" y="-150" font-family="Helvetica,sans-Serif" font-size="10.00">_tag_Lv8Gate/d_a_tag</text>
<text text-anchor="start" x="291.5" y="-139" font-family="Helvetica,sans-Serif" font-size="10.00">_Lv8Gate/createSolidHeap</text>
<text text-anchor="middle" x="350.5" y="-128" font-family="Helvetica,sans-Serif" font-size="10.00">__FP10fopAc_ac_c.s</text>
</a>
</g>
</g>
<!-- Node1&#45;&gt;Node6 -->
<g id="edge6" class="edge">
<title>Node1&#45;&gt;Node6</title>
<path fill="none" stroke="#63b8ff" d="M591.12,-209.14C545.95,-200.69 488.17,-188.95 428.99,-173.55"/>
<polygon fill="#63b8ff" stroke="#63b8ff" points="429.95,-170.18 419.39,-171.01 428.16,-176.95 429.95,-170.18"/>
</g>
<!-- Node7 -->
<g id="node7" class="node">
<title>Node7</title>
<g id="a_node7"><a xlink:title=" ">
<polygon fill="#e0e0e0" stroke="#999999" points="561.5,-173 435.5,-173 435.5,-121 561.5,-121 561.5,-173"/>
<text text-anchor="start" x="443.5" y="-161" font-family="Helvetica,sans-Serif" font-size="10.00">asm/rel/d/a/tag/d_a</text>
<text text-anchor="start" x="443.5" y="-150" font-family="Helvetica,sans-Serif" font-size="10.00">_tag_Lv8Gate/d_a_tag</text>
<text text-anchor="start" x="443.5" y="-139" font-family="Helvetica,sans-Serif" font-size="10.00">_Lv8Gate/createHeap_</text>
<text text-anchor="middle" x="498.5" y="-128" font-family="Helvetica,sans-Serif" font-size="10.00">_14daTagLv8Gate_cFv.s</text>
</a>
</g>
</g>
<!-- Node1&#45;&gt;Node7 -->
<g id="edge7" class="edge">
<title>Node1&#45;&gt;Node7</title>
<path fill="none" stroke="#63b8ff" d="M637.34,-208.54C617.35,-199.82 591.14,-188.4 566.89,-177.82"/>
<polygon fill="#63b8ff" stroke="#63b8ff" points="568.59,-174.75 558.03,-173.96 565.8,-181.16 568.59,-174.75"/>
</g>
<!-- Node8 -->
<g id="node8" class="node">
<title>Node8</title>
<g id="a_node8"><a xlink:title=" ">
<polygon fill="#e0e0e0" stroke="#999999" points="761,-167.5 580,-167.5 580,-126.5 761,-126.5 761,-167.5"/>
<text text-anchor="start" x="588" y="-155.5" font-family="Helvetica,sans-Serif" font-size="10.00">asm/rel/d/a/tag/d_a</text>
<text text-anchor="start" x="588" y="-144.5" font-family="Helvetica,sans-Serif" font-size="10.00">_tag_Lv8Gate/d_a_tag</text>
<text text-anchor="middle" x="670.5" y="-133.5" font-family="Helvetica,sans-Serif" font-size="10.00">_Lv8Gate/__dt__12J3DFrameCtrlFv.s</text>
</a>
</g>
</g>
<!-- Node1&#45;&gt;Node8 -->
<g id="edge8" class="edge">
<title>Node1&#45;&gt;Node8</title>
<path fill="none" stroke="#63b8ff" d="M670.5,-208.54C670.5,-200.22 670.5,-189.42 670.5,-179.26"/>
<polygon fill="#63b8ff" stroke="#63b8ff" points="674,-179.32 670.5,-169.32 667,-179.32 674,-179.32"/>
</g>
<!-- Node9 -->
<g id="node9" class="node">
<title>Node9</title>
<g id="a_node9"><a xlink:title=" ">
<polygon fill="#e0e0e0" stroke="#999999" points="922,-173 779,-173 779,-121 922,-121 922,-173"/>
<text text-anchor="start" x="787" y="-161" font-family="Helvetica,sans-Serif" font-size="10.00">asm/rel/d/a/tag/d_a</text>
<text text-anchor="start" x="787" y="-150" font-family="Helvetica,sans-Serif" font-size="10.00">_tag_Lv8Gate/d_a_tag</text>
<text text-anchor="start" x="787" y="-139" font-family="Helvetica,sans-Serif" font-size="10.00">_Lv8Gate/daTagLv8Gate</text>
<text text-anchor="middle" x="850.5" y="-128" font-family="Helvetica,sans-Serif" font-size="10.00">_Create__FP10fopAc_ac_c.s</text>
</a>
</g>
</g>
<!-- Node1&#45;&gt;Node9 -->
<g id="edge9" class="edge">
<title>Node1&#45;&gt;Node9</title>
<path fill="none" stroke="#63b8ff" d="M705.21,-208.54C726.22,-199.78 753.79,-188.3 779.27,-177.68"/>
<polygon fill="#63b8ff" stroke="#63b8ff" points="780.37,-181.01 788.26,-173.93 777.68,-174.55 780.37,-181.01"/>
</g>
<!-- Node10 -->
<g id="node10" class="node">
<title>Node10</title>
<g id="a_node10"><a xlink:title=" ">
<polygon fill="#e0e0e0" stroke="#999999" points="1113,-173 940,-173 940,-121 1113,-121 1113,-173"/>
<text text-anchor="start" x="948" y="-161" font-family="Helvetica,sans-Serif" font-size="10.00">asm/rel/d/a/tag/d_a</text>
<text text-anchor="start" x="948" y="-150" font-family="Helvetica,sans-Serif" font-size="10.00">_tag_Lv8Gate/d_a_tag</text>
<text text-anchor="start" x="948" y="-139" font-family="Helvetica,sans-Serif" font-size="10.00">_Lv8Gate/daTagLv8Gate</text>
<text text-anchor="middle" x="1026.5" y="-128" font-family="Helvetica,sans-Serif" font-size="10.00">_Execute__FP14daTagLv8Gate_c.s</text>
</a>
</g>
</g>
<!-- Node1&#45;&gt;Node10 -->
<g id="edge10" class="edge">
<title>Node1&#45;&gt;Node10</title>
<path fill="none" stroke="#63b8ff" d="M749.89,-209.24C799.02,-200.39 863.63,-188.14 928.71,-173.58"/>
<polygon fill="#63b8ff" stroke="#63b8ff" points="929.12,-177.07 938.11,-171.46 927.58,-170.25 929.12,-177.07"/>
</g>
<!-- Node11 -->
<g id="node11" class="node">
<title>Node11</title>
<g id="a_node11"><a xlink:title=" ">
<polygon fill="#e0e0e0" stroke="#999999" points="1292,-173 1131,-173 1131,-121 1292,-121 1292,-173"/>
<text text-anchor="start" x="1139" y="-161" font-family="Helvetica,sans-Serif" font-size="10.00">asm/rel/d/a/tag/d_a</text>
<text text-anchor="start" x="1139" y="-150" font-family="Helvetica,sans-Serif" font-size="10.00">_tag_Lv8Gate/d_a_tag</text>
<text text-anchor="start" x="1139" y="-139" font-family="Helvetica,sans-Serif" font-size="10.00">_Lv8Gate/execute__14daTagLv8</text>
<text text-anchor="middle" x="1211.5" y="-128" font-family="Helvetica,sans-Serif" font-size="10.00">Gate_cFv.s</text>
</a>
</g>
</g>
<!-- Node1&#45;&gt;Node11 -->
<g id="edge11" class="edge">
<title>Node1&#45;&gt;Node11</title>
<path fill="none" stroke="#63b8ff" d="M749.89,-218.17C838.14,-211.91 984.97,-198.86 1119.33,-173.49"/>
<polygon fill="#63b8ff" stroke="#63b8ff" points="1119.98,-176.93 1129.14,-171.61 1118.66,-170.06 1119.98,-176.93"/>
</g>
<!-- Node12 -->
<g id="node12" class="node">
<title>Node12</title>
<g id="a_node12"><a xlink:title=" ">
<polygon fill="#e0e0e0" stroke="#999999" points="1471,-173 1310,-173 1310,-121 1471,-121 1471,-173"/>
<text text-anchor="start" x="1318" y="-161" font-family="Helvetica,sans-Serif" font-size="10.00">asm/rel/d/a/tag/d_a</text>
<text text-anchor="start" x="1318" y="-150" font-family="Helvetica,sans-Serif" font-size="10.00">_tag_Lv8Gate/d_a_tag</text>
<text text-anchor="start" x="1318" y="-139" font-family="Helvetica,sans-Serif" font-size="10.00">_Lv8Gate/daTagLv8Gate</text>
<text text-anchor="middle" x="1390.5" y="-128" font-family="Helvetica,sans-Serif" font-size="10.00">_Draw__FP14daTagLv8Gate_c.s</text>
</a>
</g>
</g>
<!-- Node1&#45;&gt;Node12 -->
<g id="edge12" class="edge">
<title>Node1&#45;&gt;Node12</title>
<path fill="none" stroke="#63b8ff" d="M749.83,-221.66C867.86,-218.57 1096.69,-208.39 1298.54,-173.39"/>
<polygon fill="#63b8ff" stroke="#63b8ff" points="1298.92,-176.88 1308.16,-171.69 1297.7,-169.98 1298.92,-176.88"/>
</g>
<!-- Node13 -->
<g id="node13" class="node">
<title>Node13</title>
<g id="a_node13"><a xlink:title=" ">
<polygon fill="#e0e0e0" stroke="#999999" points="1655.5,-173 1489.5,-173 1489.5,-121 1655.5,-121 1655.5,-173"/>
<text text-anchor="start" x="1497.5" y="-161" font-family="Helvetica,sans-Serif" font-size="10.00">asm/rel/d/a/tag/d_a</text>
<text text-anchor="start" x="1497.5" y="-150" font-family="Helvetica,sans-Serif" font-size="10.00">_tag_Lv8Gate/d_a_tag</text>
<text text-anchor="start" x="1497.5" y="-139" font-family="Helvetica,sans-Serif" font-size="10.00">_Lv8Gate/daTagLv8Gate</text>
<text text-anchor="middle" x="1572.5" y="-128" font-family="Helvetica,sans-Serif" font-size="10.00">_Delete__FP14daTagLv8Gate_c.s</text>
</a>
</g>
</g>
<!-- Node1&#45;&gt;Node13 -->
<g id="edge13" class="edge">
<title>Node1&#45;&gt;Node13</title>
<path fill="none" stroke="#63b8ff" d="M749.86,-223.44C893.62,-223.06 1206.62,-216.91 1477.92,-173.27"/>
<polygon fill="#63b8ff" stroke="#63b8ff" points="1478.37,-176.75 1487.68,-171.68 1477.25,-169.84 1478.37,-176.75"/>
</g>
<!-- Node2&#45;&gt;Node3 -->
<g id="edge2" class="edge">
<title>Node2&#45;&gt;Node3</title>
<path fill="none" stroke="#63b8ff" d="M84.07,-131.6C92.01,-120.77 102.94,-105.88 111.43,-94.31"/>
<polygon fill="#63b8ff" stroke="#63b8ff" points="114.14,-96.53 117.24,-86.4 108.5,-92.39 114.14,-96.53"/>
</g>
<!-- Node4 -->
<g id="node4" class="node">
<title>Node4</title>
<g id="a_node4"><a xlink:href="stddef_8h.html" target="_top" xlink:title=" ">
<polygon fill="white" stroke="#666666" points="192.5,-30 56.5,-30 56.5,0 192.5,0 192.5,-30"/>
<text text-anchor="start" x="64.5" y="-18" font-family="Helvetica,sans-Serif" font-size="10.00">MSL_C/MSL_Common/Src</text>
<text text-anchor="middle" x="124.5" y="-7" font-family="Helvetica,sans-Serif" font-size="10.00">/stddef.h</text>
</a>
</g>
</g>
<!-- Node3&#45;&gt;Node4 -->
<g id="edge3" class="edge">
<title>Node3&#45;&gt;Node4</title>
<path fill="none" stroke="#63b8ff" d="M124.5,-65.87C124.5,-59.4 124.5,-50.2 124.5,-41.45"/>
<polygon fill="#63b8ff" stroke="#63b8ff" points="128,-41.63 124.5,-31.63 121,-41.63 128,-41.63"/>
</g>
</g>
</svg>
        <g id="navigator" transform="translate(0 0)" fill="#404254">
                <rect fill="#f2f5e9" fill-opacity="0.5" stroke="#606060" stroke-width=".5" x="0" y="0" width="60" height="60"/>
                <use id="zoomplus" xlink:href="#zoomPlus" x="17" y="9" onmousedown="handleZoom(evt,'in')"/>
                <use id="zoomminus" xlink:href="#zoomMin" x="42" y="9" onmousedown="handleZoom(evt,'out')"/>
                <use id="reset" xlink:href="#resetDef" x="30" y="36" onmousedown="handleReset()"/>
                <g id="arrowUp" xlink:href="#dirArrow" transform="translate(30 24)" onmousedown="handlePan(0,-1)">
                  <use xlink:href="#rim" fill="#404040">
                        <set attributeName="fill" to="#808080" begin="arrowUp.mouseover" end="arrowUp.mouseout"/>
                  </use>
                  <path fill="none" stroke="white" stroke-width="1.5" d="M0,-3.0v7 M-2.5,-0.5L0,-3.0L2.5,-0.5"/>
                </g>
                <g id="arrowRight" xlink:href="#dirArrow" transform="rotate(90) translate(36 -43)" onmousedown="handlePan(1,0)">
                  <use xlink:href="#rim" fill="#404040">
                        <set attributeName="fill" to="#808080" begin="arrowRight.mouseover" end="arrowRight.mouseout"/>
                  </use>
                  <path fill="none" stroke="white" stroke-width="1.5" d="M0,-3.0v7 M-2.5,-0.5L0,-3.0L2.5,-0.5"/>
                </g>
                <g id="arrowDown" xlink:href="#dirArrow" transform="rotate(180) translate(-30 -48)" onmousedown="handlePan(0,1)">
                  <use xlink:href="#rim" fill="#404040">
                        <set attributeName="fill" to="#808080" begin="arrowDown.mouseover" end="arrowDown.mouseout"/>
                  </use>
                  <path fill="none" stroke="white" stroke-width="1.5" d="M0,-3.0v7 M-2.5,-0.5L0,-3.0L2.5,-0.5"/>
                </g>
                <g id="arrowLeft" xlink:href="#dirArrow" transform="rotate(270) translate(-36 17)" onmousedown="handlePan(-1,0)">
                  <use xlink:href="#rim" fill="#404040">
                        <set attributeName="fill" to="#808080" begin="arrowLeft.mouseover" end="arrowLeft.mouseout"/>
                  </use>
                  <path fill="none" stroke="white" stroke-width="1.5" d="M0,-3.0v7 M-2.5,-0.5L0,-3.0L2.5,-0.5"/>
                </g>
        </g>
        <svg viewBox="0 0 15 15" width="100%" height="30px" preserveAspectRatio="xMaxYMin meet">
         <g id="arrow_out" transform="scale(0.3 0.3)">
          <a xlink:href="d__a__tag__Lv8Gate_8cpp__incl_org.svg" target="_base">
           <rect id="button" ry="5" rx="5" y="6" x="6" height="38" width="38"
                fill="#f2f5e9" fill-opacity="0.5" stroke="#606060" stroke-width="1.0"/>
           <path id="arrow"
             d="M 11.500037,31.436501 C 11.940474,20.09759 22.043105,11.32322 32.158766,21.979434 L 37.068811,17.246167 C 37.068811,17.246167 37.088388,32 37.088388,32 L 22.160133,31.978069 C 22.160133,31.978069 26.997745,27.140456 26.997745,27.140456 C 18.528582,18.264221 13.291696,25.230495 11.500037,31.436501 z"
             style="fill:#404040;"/>
          </a>
         </g>
        </svg>
</svg>
