<?xml version="1.0" encoding="UTF-8" standalone="no"?>
<!DOCTYPE svg PUBLIC "-//W3C//DTD SVG 1.1//EN"
 "http://www.w3.org/Graphics/SVG/1.1/DTD/svg11.dtd">
<!-- Generated by graphviz version 7.0.5 (20221223.1930)
 -->
<!-- Title: rel/d/a/obj/d_a_obj_table/d_a_obj_table.cpp Pages: 1 -->
<!--zoomable 247 -->
<svg id="main" version="1.1" xmlns="http://www.w3.org/2000/svg" xmlns:xlink="http://www.w3.org/1999/xlink" xml:space="preserve" onload="init(evt)">
<style type="text/css"><![CDATA[
.edge:hover path { stroke: red; }
.edge:hover polygon { stroke: red; fill: red; }
]]></style>
<script type="text/javascript"><![CDATA[
var edges = document.getElementsByTagName('g');
if (edges && edges.length) {
  for (var i=0;i<edges.length;i++) {
    if (edges[i].id.substr(0,4)=='edge') {
      edges[i].setAttribute('class','edge');
    }
  }
}
]]></script>
        <defs>
                <circle id="rim" cx="0" cy="0" r="7"/>
                <circle id="rim2" cx="0" cy="0" r="3.5"/>
                <g id="zoomPlus">
                        <use xlink:href="#rim" fill="#404040">
                                <set attributeName="fill" to="#808080" begin="zoomplus.mouseover" end="zoomplus.mouseout"/>
                        </use>
                        <path d="M-4,0h8M0,-4v8" fill="none" stroke="white" stroke-width="1.5" pointer-events="none"/>
                </g>
                <g id="zoomMin">
                        <use xlink:href="#rim" fill="#404040">
                                <set attributeName="fill" to="#808080" begin="zoomminus.mouseover" end="zoomminus.mouseout"/>
                        </use>
                        <path d="M-4,0h8" fill="none" stroke="white" stroke-width="1.5" pointer-events="none"/>
                </g>
                <g id="dirArrow">
                        <path fill="none" stroke="white" stroke-width="1.5" d="M0,-3.0v7 M-2.5,-0.5L0,-3.0L2.5,-0.5"/>
                </g>
               <g id="resetDef">
                       <use xlink:href="#rim2" fill="#404040">
                               <set attributeName="fill" to="#808080" begin="reset.mouseover" end="reset.mouseout"/>
                       </use>
               </g>
        </defs>

<script type="text/javascript">
var viewWidth = 1903;
var viewHeight = 247;
var sectionId = 'dynsection-0';
</script>
<script xlink:href="svgpan.js"/>
<svg id="graph" class="graph">
<g id="viewport">
<title>rel/d/a/obj/d_a_obj_table/d_a_obj_table.cpp</title>
<!-- Node1 -->
<g id="node1" class="node">
<title>Node1</title>
<g id="a_node1"><a xlink:title=" ">
<polygon fill="#999999" stroke="#666666" points="924.5,-239 800.5,-239 800.5,-209 924.5,-209 924.5,-239"/>
<text text-anchor="start" x="808.5" y="-227" font-family="Helvetica,sans-Serif" font-size="10.00">rel/d/a/obj/d_a_obj</text>
<text text-anchor="middle" x="862.5" y="-216" font-family="Helvetica,sans-Serif" font-size="10.00">_table/d_a_obj_table.cpp</text>
</a>
</g>
</g>
<!-- Node2 -->
<g id="node2" class="node">
<title>Node2</title>
<g id="a_node2"><a xlink:href="d__a__obj__table_8h.html" target="_top" xlink:title=" ">
<polygon fill="white" stroke="#666666" points="113,-162 0,-162 0,-132 113,-132 113,-162"/>
<text text-anchor="start" x="8" y="-150" font-family="Helvetica,sans-Serif" font-size="10.00">rel/d/a/obj/d_a_obj</text>
<text text-anchor="middle" x="56.5" y="-139" font-family="Helvetica,sans-Serif" font-size="10.00">_table/d_a_obj_table.h</text>
</a>
</g>
</g>
<!-- Node1&#45;&gt;Node2 -->
<g id="edge1" class="edge">
<title>Node1&#45;&gt;Node2</title>
<path fill="none" stroke="#63b8ff" d="M800.22,-220.93C647.1,-215.49 255.43,-199.36 127.5,-173 119.13,-171.28 110.41,-168.8 102.06,-166.08"/>
<polygon fill="#63b8ff" stroke="#63b8ff" points="103.38,-162.83 92.79,-162.88 101.1,-169.45 103.38,-162.83"/>
</g>
<!-- Node3 -->
<g id="node3" class="node">
<title>Node3</title>
<g id="a_node3"><a xlink:href="types_8h.html" target="_top" xlink:title=" ">
<polygon fill="white" stroke="#666666" points="139,-85 58,-85 58,-66 139,-66 139,-85"/>
<text text-anchor="middle" x="98.5" y="-73" font-family="Helvetica,sans-Serif" font-size="10.00">dolphin/types.h</text>
</a>
</g>
</g>
<!-- Node1&#45;&gt;Node3 -->
<g id="edge5" class="edge">
<title>Node1&#45;&gt;Node3</title>
<path fill="none" stroke="#63b8ff" d="M800.1,-221.7C638.61,-217.89 215.79,-204.94 161.5,-173 153.66,-168.39 125.14,-121.59 109.3,-94.9"/>
<polygon fill="#63b8ff" stroke="#63b8ff" points="112.43,-93.31 104.33,-86.48 106.4,-96.87 112.43,-93.31"/>
</g>
<!-- Node5 -->
<g id="node5" class="node">
<title>Node5</title>
<g id="a_node5"><a xlink:href="dol2asm_8h.html" target="_top" xlink:title=" ">
<polygon fill="white" stroke="#666666" points="231,-156.5 170,-156.5 170,-137.5 231,-137.5 231,-156.5"/>
<text text-anchor="middle" x="200.5" y="-144.5" font-family="Helvetica,sans-Serif" font-size="10.00">dol2asm.h</text>
</a>
</g>
</g>
<!-- Node1&#45;&gt;Node5 -->
<g id="edge4" class="edge">
<title>Node1&#45;&gt;Node5</title>
<path fill="none" stroke="#63b8ff" d="M800.23,-221.73C663.93,-218.36 343.16,-206.95 240.5,-173 233.63,-170.73 226.73,-167.04 220.65,-163.19"/>
<polygon fill="#63b8ff" stroke="#63b8ff" points="222.79,-160.42 212.57,-157.63 218.82,-166.19 222.79,-160.42"/>
</g>
<!-- Node6 -->
<g id="node6" class="node">
<title>Node6</title>
<g id="a_node6"><a xlink:title=" ">
<polygon fill="#e0e0e0" stroke="#999999" points="447.5,-167.5 249.5,-167.5 249.5,-126.5 447.5,-126.5 447.5,-167.5"/>
<text text-anchor="start" x="257.5" y="-155.5" font-family="Helvetica,sans-Serif" font-size="10.00">asm/rel/d/a/obj/d_a</text>
<text text-anchor="start" x="257.5" y="-144.5" font-family="Helvetica,sans-Serif" font-size="10.00">_obj_table/d_a_obj_table</text>
<text text-anchor="middle" x="348.5" y="-133.5" font-family="Helvetica,sans-Serif" font-size="10.00">/daObjTable_Draw__FP12daObjTable_c.s</text>
</a>
</g>
</g>
<!-- Node1&#45;&gt;Node6 -->
<g id="edge6" class="edge">
<title>Node1&#45;&gt;Node6</title>
<path fill="none" stroke="#63b8ff" d="M800.29,-217.39C720.36,-209.71 577.49,-194.39 456.5,-173 451.62,-172.14 446.64,-171.2 441.61,-170.2"/>
<polygon fill="#63b8ff" stroke="#63b8ff" points="442.56,-166.82 432.06,-168.25 441.15,-173.68 442.56,-166.82"/>
</g>
<!-- Node7 -->
<g id="node7" class="node">
<title>Node7</title>
<g id="a_node7"><a xlink:title=" ">
<polygon fill="#e0e0e0" stroke="#999999" points="633.5,-173 465.5,-173 465.5,-121 633.5,-121 633.5,-173"/>
<text text-anchor="start" x="473.5" y="-161" font-family="Helvetica,sans-Serif" font-size="10.00">asm/rel/d/a/obj/d_a</text>
<text text-anchor="start" x="473.5" y="-150" font-family="Helvetica,sans-Serif" font-size="10.00">_obj_table/d_a_obj_table</text>
<text text-anchor="start" x="473.5" y="-139" font-family="Helvetica,sans-Serif" font-size="10.00">/daObjTable_Execute__FP12daObj</text>
<text text-anchor="middle" x="549.5" y="-128" font-family="Helvetica,sans-Serif" font-size="10.00">Table_c.s</text>
</a>
</g>
</g>
<!-- Node1&#45;&gt;Node7 -->
<g id="edge7" class="edge">
<title>Node1&#45;&gt;Node7</title>
<path fill="none" stroke="#63b8ff" d="M800.06,-209.36C758.74,-200.2 703.11,-187.58 644.7,-173.26"/>
<polygon fill="#63b8ff" stroke="#63b8ff" points="645.78,-169.92 635.23,-170.93 644.1,-176.72 645.78,-169.92"/>
</g>
<!-- Node8 -->
<g id="node8" class="node">
<title>Node8</title>
<g id="a_node8"><a xlink:title=" ">
<polygon fill="#e0e0e0" stroke="#999999" points="855,-167.5 652,-167.5 652,-126.5 855,-126.5 855,-167.5"/>
<text text-anchor="start" x="660" y="-155.5" font-family="Helvetica,sans-Serif" font-size="10.00">asm/rel/d/a/obj/d_a</text>
<text text-anchor="start" x="660" y="-144.5" font-family="Helvetica,sans-Serif" font-size="10.00">_obj_table/d_a_obj_table</text>
<text text-anchor="middle" x="753.5" y="-133.5" font-family="Helvetica,sans-Serif" font-size="10.00">/daObjTable_Delete__FP12daObjTable_c.s</text>
</a>
</g>
</g>
<!-- Node1&#45;&gt;Node8 -->
<g id="edge8" class="edge">
<title>Node1&#45;&gt;Node8</title>
<path fill="none" stroke="#63b8ff" d="M841.48,-208.54C827.29,-198.77 808.14,-185.6 791.33,-174.03"/>
<polygon fill="#63b8ff" stroke="#63b8ff" points="793.75,-171.45 783.53,-168.66 789.78,-177.21 793.75,-171.45"/>
</g>
<!-- Node9 -->
<g id="node9" class="node">
<title>Node9</title>
<g id="a_node9"><a xlink:title=" ">
<polygon fill="#e0e0e0" stroke="#999999" points="1069.5,-167.5 873.5,-167.5 873.5,-126.5 1069.5,-126.5 1069.5,-167.5"/>
<text text-anchor="start" x="881.5" y="-155.5" font-family="Helvetica,sans-Serif" font-size="10.00">asm/rel/d/a/obj/d_a</text>
<text text-anchor="start" x="881.5" y="-144.5" font-family="Helvetica,sans-Serif" font-size="10.00">_obj_table/d_a_obj_table</text>
<text text-anchor="middle" x="971.5" y="-133.5" font-family="Helvetica,sans-Serif" font-size="10.00">/daObjTable_Create__FP10fopAc_ac_c.s</text>
</a>
</g>
</g>
<!-- Node1&#45;&gt;Node9 -->
<g id="edge9" class="edge">
<title>Node1&#45;&gt;Node9</title>
<path fill="none" stroke="#63b8ff" d="M883.52,-208.54C897.71,-198.77 916.86,-185.6 933.67,-174.03"/>
<polygon fill="#63b8ff" stroke="#63b8ff" points="935.22,-177.21 941.47,-168.66 931.25,-171.45 935.22,-177.21"/>
</g>
<!-- Node10 -->
<g id="node10" class="node">
<title>Node10</title>
<g id="a_node10"><a xlink:title=" ">
<polygon fill="#e0e0e0" stroke="#999999" points="1259,-167.5 1088,-167.5 1088,-126.5 1259,-126.5 1259,-167.5"/>
<text text-anchor="start" x="1096" y="-155.5" font-family="Helvetica,sans-Serif" font-size="10.00">asm/rel/d/a/obj/d_a</text>
<text text-anchor="start" x="1096" y="-144.5" font-family="Helvetica,sans-Serif" font-size="10.00">_obj_table/d_a_obj_table</text>
<text text-anchor="middle" x="1173.5" y="-133.5" font-family="Helvetica,sans-Serif" font-size="10.00">/CreateHeap__12daObjTable_cFv.s</text>
</a>
</g>
</g>
<!-- Node1&#45;&gt;Node10 -->
<g id="edge10" class="edge">
<title>Node1&#45;&gt;Node10</title>
<path fill="none" stroke="#63b8ff" d="M924.53,-209.16C967.77,-199.38 1026.75,-185.8 1078.5,-173 1081.43,-172.28 1084.4,-171.53 1087.4,-170.78"/>
<polygon fill="#63b8ff" stroke="#63b8ff" points="1088.06,-174.22 1096.89,-168.37 1086.34,-167.44 1088.06,-174.22"/>
</g>
<!-- Node11 -->
<g id="node11" class="node">
<title>Node11</title>
<g id="a_node11"><a xlink:title=" ">
<polygon fill="#e0e0e0" stroke="#999999" points="1425.5,-167.5 1277.5,-167.5 1277.5,-126.5 1425.5,-126.5 1425.5,-167.5"/>
<text text-anchor="start" x="1285.5" y="-155.5" font-family="Helvetica,sans-Serif" font-size="10.00">asm/rel/d/a/obj/d_a</text>
<text text-anchor="start" x="1285.5" y="-144.5" font-family="Helvetica,sans-Serif" font-size="10.00">_obj_table/d_a_obj_table</text>
<text text-anchor="middle" x="1351.5" y="-133.5" font-family="Helvetica,sans-Serif" font-size="10.00">/Create__12daObjTable_cFv.s</text>
</a>
</g>
</g>
<!-- Node1&#45;&gt;Node11 -->
<g id="edge11" class="edge">
<title>Node1&#45;&gt;Node11</title>
<path fill="none" stroke="#63b8ff" d="M924.95,-218.62C1005.13,-212.25 1148.27,-198.32 1268.5,-173 1271.68,-172.33 1274.9,-171.6 1278.16,-170.82"/>
<polygon fill="#63b8ff" stroke="#63b8ff" points="1278.96,-174.22 1287.78,-168.36 1277.23,-167.44 1278.96,-174.22"/>
</g>
<!-- Node12 -->
<g id="node12" class="node">
<title>Node12</title>
<g id="a_node12"><a xlink:title=" ">
<polygon fill="#e0e0e0" stroke="#999999" points="1569,-173 1444,-173 1444,-121 1569,-121 1569,-173"/>
<text text-anchor="start" x="1452" y="-161" font-family="Helvetica,sans-Serif" font-size="10.00">asm/rel/d/a/obj/d_a</text>
<text text-anchor="start" x="1452" y="-150" font-family="Helvetica,sans-Serif" font-size="10.00">_obj_table/d_a_obj_table</text>
<text text-anchor="start" x="1452" y="-139" font-family="Helvetica,sans-Serif" font-size="10.00">/Execute__12daObjTable</text>
<text text-anchor="middle" x="1506.5" y="-128" font-family="Helvetica,sans-Serif" font-size="10.00">_cFPPA3_A4_f.s</text>
</a>
</g>
</g>
<!-- Node1&#45;&gt;Node12 -->
<g id="edge12" class="edge">
<title>Node1&#45;&gt;Node12</title>
<path fill="none" stroke="#63b8ff" d="M924.61,-222.56C1028.37,-220.75 1243.36,-212.37 1432.28,-173.23"/>
<polygon fill="#63b8ff" stroke="#63b8ff" points="1432.99,-176.65 1442.05,-171.16 1431.55,-169.8 1432.99,-176.65"/>
</g>
<!-- Node13 -->
<g id="node13" class="node">
<title>Node13</title>
<g id="a_node13"><a xlink:title=" ">
<polygon fill="#e0e0e0" stroke="#999999" points="1729.5,-167.5 1587.5,-167.5 1587.5,-126.5 1729.5,-126.5 1729.5,-167.5"/>
<text text-anchor="start" x="1595.5" y="-155.5" font-family="Helvetica,sans-Serif" font-size="10.00">asm/rel/d/a/obj/d_a</text>
<text text-anchor="start" x="1595.5" y="-144.5" font-family="Helvetica,sans-Serif" font-size="10.00">_obj_table/d_a_obj_table</text>
<text text-anchor="middle" x="1658.5" y="-133.5" font-family="Helvetica,sans-Serif" font-size="10.00">/Draw__12daObjTable_cFv.s</text>
</a>
</g>
</g>
<!-- Node1&#45;&gt;Node13 -->
<g id="edge13" class="edge">
<title>Node1&#45;&gt;Node13</title>
<path fill="none" stroke="#63b8ff" d="M924.89,-223.5C1050.02,-223.45 1340.02,-217.95 1578.5,-173 1582.07,-172.33 1585.71,-171.55 1589.37,-170.69"/>
<polygon fill="#63b8ff" stroke="#63b8ff" points="1590.06,-174.12 1598.89,-168.27 1588.33,-167.34 1590.06,-174.12"/>
</g>
<!-- Node14 -->
<g id="node14" class="node">
<title>Node14</title>
<g id="a_node14"><a xlink:title=" ">
<polygon fill="#e0e0e0" stroke="#999999" points="1895,-167.5 1748,-167.5 1748,-126.5 1895,-126.5 1895,-167.5"/>
<text text-anchor="start" x="1756" y="-155.5" font-family="Helvetica,sans-Serif" font-size="10.00">asm/rel/d/a/obj/d_a</text>
<text text-anchor="start" x="1756" y="-144.5" font-family="Helvetica,sans-Serif" font-size="10.00">_obj_table/d_a_obj_table</text>
<text text-anchor="middle" x="1821.5" y="-133.5" font-family="Helvetica,sans-Serif" font-size="10.00">/Delete__12daObjTable_cFv.s</text>
</a>
</g>
</g>
<!-- Node1&#45;&gt;Node14 -->
<g id="edge14" class="edge">
<title>Node1&#45;&gt;Node14</title>
<path fill="none" stroke="#63b8ff" d="M924.7,-221.35C1097.65,-216.47 1581.83,-200.67 1738.5,-173 1742.32,-172.33 1746.21,-171.53 1750.13,-170.65"/>
<polygon fill="#63b8ff" stroke="#63b8ff" points="1750.8,-174.09 1759.69,-168.33 1749.14,-167.29 1750.8,-174.09"/>
</g>
<!-- Node2&#45;&gt;Node3 -->
<g id="edge2" class="edge">
<title>Node2&#45;&gt;Node3</title>
<path fill="none" stroke="#63b8ff" d="M65.2,-131.6C71.61,-120.99 80.38,-106.48 87.31,-95.02"/>
<polygon fill="#63b8ff" stroke="#63b8ff" points="90.3,-96.84 92.47,-86.47 84.3,-93.22 90.3,-96.84"/>
</g>
<!-- Node4 -->
<g id="node4" class="node">
<title>Node4</title>
<g id="a_node4"><a xlink:href="stddef_8h.html" target="_top" xlink:title=" ">
<polygon fill="white" stroke="#666666" points="166.5,-30 30.5,-30 30.5,0 166.5,0 166.5,-30"/>
<text text-anchor="start" x="38.5" y="-18" font-family="Helvetica,sans-Serif" font-size="10.00">MSL_C/MSL_Common/Src</text>
<text text-anchor="middle" x="98.5" y="-7" font-family="Helvetica,sans-Serif" font-size="10.00">/stddef.h</text>
</a>
</g>
</g>
<!-- Node3&#45;&gt;Node4 -->
<g id="edge3" class="edge">
<title>Node3&#45;&gt;Node4</title>
<path fill="none" stroke="#63b8ff" d="M98.5,-65.87C98.5,-59.4 98.5,-50.2 98.5,-41.45"/>
<polygon fill="#63b8ff" stroke="#63b8ff" points="102,-41.63 98.5,-31.63 95,-41.63 102,-41.63"/>
</g>
</g>
</svg>
        <g id="navigator" transform="translate(0 0)" fill="#404254">
                <rect fill="#f2f5e9" fill-opacity="0.5" stroke="#606060" stroke-width=".5" x="0" y="0" width="60" height="60"/>
                <use id="zoomplus" xlink:href="#zoomPlus" x="17" y="9" onmousedown="handleZoom(evt,'in')"/>
                <use id="zoomminus" xlink:href="#zoomMin" x="42" y="9" onmousedown="handleZoom(evt,'out')"/>
                <use id="reset" xlink:href="#resetDef" x="30" y="36" onmousedown="handleReset()"/>
                <g id="arrowUp" xlink:href="#dirArrow" transform="translate(30 24)" onmousedown="handlePan(0,-1)">
                  <use xlink:href="#rim" fill="#404040">
                        <set attributeName="fill" to="#808080" begin="arrowUp.mouseover" end="arrowUp.mouseout"/>
                  </use>
                  <path fill="none" stroke="white" stroke-width="1.5" d="M0,-3.0v7 M-2.5,-0.5L0,-3.0L2.5,-0.5"/>
                </g>
                <g id="arrowRight" xlink:href="#dirArrow" transform="rotate(90) translate(36 -43)" onmousedown="handlePan(1,0)">
                  <use xlink:href="#rim" fill="#404040">
                        <set attributeName="fill" to="#808080" begin="arrowRight.mouseover" end="arrowRight.mouseout"/>
                  </use>
                  <path fill="none" stroke="white" stroke-width="1.5" d="M0,-3.0v7 M-2.5,-0.5L0,-3.0L2.5,-0.5"/>
                </g>
                <g id="arrowDown" xlink:href="#dirArrow" transform="rotate(180) translate(-30 -48)" onmousedown="handlePan(0,1)">
                  <use xlink:href="#rim" fill="#404040">
                        <set attributeName="fill" to="#808080" begin="arrowDown.mouseover" end="arrowDown.mouseout"/>
                  </use>
                  <path fill="none" stroke="white" stroke-width="1.5" d="M0,-3.0v7 M-2.5,-0.5L0,-3.0L2.5,-0.5"/>
                </g>
                <g id="arrowLeft" xlink:href="#dirArrow" transform="rotate(270) translate(-36 17)" onmousedown="handlePan(-1,0)">
                  <use xlink:href="#rim" fill="#404040">
                        <set attributeName="fill" to="#808080" begin="arrowLeft.mouseover" end="arrowLeft.mouseout"/>
                  </use>
                  <path fill="none" stroke="white" stroke-width="1.5" d="M0,-3.0v7 M-2.5,-0.5L0,-3.0L2.5,-0.5"/>
                </g>
        </g>
        <svg viewBox="0 0 15 15" width="100%" height="30px" preserveAspectRatio="xMaxYMin meet">
         <g id="arrow_out" transform="scale(0.3 0.3)">
          <a xlink:href="d__a__obj__table_8cpp__incl_org.svg" target="_base">
           <rect id="button" ry="5" rx="5" y="6" x="6" height="38" width="38"
                fill="#f2f5e9" fill-opacity="0.5" stroke="#606060" stroke-width="1.0"/>
           <path id="arrow"
             d="M 11.500037,31.436501 C 11.940474,20.09759 22.043105,11.32322 32.158766,21.979434 L 37.068811,17.246167 C 37.068811,17.246167 37.088388,32 37.088388,32 L 22.160133,31.978069 C 22.160133,31.978069 26.997745,27.140456 26.997745,27.140456 C 18.528582,18.264221 13.291696,25.230495 11.500037,31.436501 z"
             style="fill:#404040;"/>
          </a>
         </g>
        </svg>
</svg>
