<?xml version="1.0" encoding="UTF-8" standalone="no"?>
<!DOCTYPE svg PUBLIC "-//W3C//DTD SVG 1.1//EN"
 "http://www.w3.org/Graphics/SVG/1.1/DTD/svg11.dtd">
<!-- Generated by graphviz version 7.0.5 (20221223.1930)
 -->
<!-- Title: rel/d/a/obj/d_a_obj_lv3WaterB/d_a_obj_lv3WaterB.cpp Pages: 1 -->
<svg width="1465pt" height="269pt"
 viewBox="0.00 0.00 1464.50 269.00" xmlns="http://www.w3.org/2000/svg" xmlns:xlink="http://www.w3.org/1999/xlink">
<g id="graph0" class="graph" transform="scale(1 1) rotate(0) translate(4 265)">
<title>rel/d/a/obj/d_a_obj_lv3WaterB/d_a_obj_lv3WaterB.cpp</title>
<!-- Node1 -->
<g id="node1" class="node">
<title>Node1</title>
<g id="a_node1"><a xlink:title=" ">
<polygon fill="#999999" stroke="#666666" points="692,-261 545,-261 545,-220 692,-220 692,-261"/>
<text text-anchor="start" x="553" y="-249" font-family="Helvetica,sans-Serif" font-size="10.00">rel/d/a/obj/d_a_obj</text>
<text text-anchor="start" x="553" y="-238" font-family="Helvetica,sans-Serif" font-size="10.00">_lv3WaterB/d_a_obj_lv3Water</text>
<text text-anchor="middle" x="618.5" y="-227" font-family="Helvetica,sans-Serif" font-size="10.00">B.cpp</text>
</a>
</g>
</g>
<!-- Node2 -->
<g id="node2" class="node">
<title>Node2</title>
<g id="a_node2"><a xlink:href="d__a__obj__lv3WaterB_8h.html" target="_top" xlink:title=" ">
<polygon fill="white" stroke="#666666" points="161,-167.5 0,-167.5 0,-137.5 161,-137.5 161,-167.5"/>
<text text-anchor="start" x="8" y="-155.5" font-family="Helvetica,sans-Serif" font-size="10.00">rel/d/a/obj/d_a_obj</text>
<text text-anchor="middle" x="80.5" y="-144.5" font-family="Helvetica,sans-Serif" font-size="10.00">_lv3WaterB/d_a_obj_lv3WaterB.h</text>
</a>
</g>
</g>
<!-- Node1&#45;&gt;Node2 -->
<g id="edge1" class="edge">
<title>Node1&#45;&gt;Node2</title>
<path fill="none" stroke="#63b8ff" d="M544.88,-234.49C456.4,-227.5 303.78,-212.37 175.5,-184 160.67,-180.72 144.86,-176.11 130.48,-171.47"/>
<polygon fill="#63b8ff" stroke="#63b8ff" points="131.83,-168.23 121.24,-168.41 129.63,-174.87 131.83,-168.23"/>
</g>
<!-- Node3 -->
<g id="node3" class="node">
<title>Node3</title>
<g id="a_node3"><a xlink:href="types_8h.html" target="_top" xlink:title=" ">
<polygon fill="white" stroke="#666666" points="175,-85 94,-85 94,-66 175,-66 175,-85"/>
<text text-anchor="middle" x="134.5" y="-73" font-family="Helvetica,sans-Serif" font-size="10.00">dolphin/types.h</text>
</a>
</g>
</g>
<!-- Node1&#45;&gt;Node3 -->
<g id="edge5" class="edge">
<title>Node1&#45;&gt;Node3</title>
<path fill="none" stroke="#63b8ff" d="M544.78,-236.95C442.32,-232.17 263.37,-218.96 209.5,-184 181.88,-166.07 189.56,-147.85 170.5,-121 164.04,-111.9 156.32,-102.22 149.68,-94.21"/>
<polygon fill="#63b8ff" stroke="#63b8ff" points="152.39,-91.99 143.27,-86.6 147.03,-96.5 152.39,-91.99"/>
</g>
<!-- Node5 -->
<g id="node5" class="node">
<title>Node5</title>
<g id="a_node5"><a xlink:href="dol2asm_8h.html" target="_top" xlink:title=" ">
<polygon fill="white" stroke="#666666" points="279,-162 218,-162 218,-143 279,-143 279,-162"/>
<text text-anchor="middle" x="248.5" y="-150" font-family="Helvetica,sans-Serif" font-size="10.00">dol2asm.h</text>
</a>
</g>
</g>
<!-- Node1&#45;&gt;Node5 -->
<g id="edge4" class="edge">
<title>Node1&#45;&gt;Node5</title>
<path fill="none" stroke="#63b8ff" d="M544.51,-237.19C475.67,-232.73 371.52,-219.99 288.5,-184 280.53,-180.55 272.72,-175.17 266.14,-169.89"/>
<polygon fill="#63b8ff" stroke="#63b8ff" points="268.52,-167.33 258.67,-163.45 263.95,-172.63 268.52,-167.33"/>
</g>
<!-- Node6 -->
<g id="node6" class="node">
<title>Node6</title>
<g id="a_node6"><a xlink:title=" ">
<polygon fill="#e0e0e0" stroke="#999999" points="445.5,-184 297.5,-184 297.5,-121 445.5,-121 445.5,-184"/>
<text text-anchor="start" x="305.5" y="-172" font-family="Helvetica,sans-Serif" font-size="10.00">asm/rel/d/a/obj/d_a</text>
<text text-anchor="start" x="305.5" y="-161" font-family="Helvetica,sans-Serif" font-size="10.00">_obj_lv3WaterB/d_a_obj</text>
<text text-anchor="start" x="305.5" y="-150" font-family="Helvetica,sans-Serif" font-size="10.00">_lv3WaterB/daObj_Lv3waterB</text>
<text text-anchor="start" x="305.5" y="-139" font-family="Helvetica,sans-Serif" font-size="10.00">_Draw__FP19obj_lv3WaterB</text>
<text text-anchor="middle" x="371.5" y="-128" font-family="Helvetica,sans-Serif" font-size="10.00">_class.s</text>
</a>
</g>
</g>
<!-- Node1&#45;&gt;Node6 -->
<g id="edge6" class="edge">
<title>Node1&#45;&gt;Node6</title>
<path fill="none" stroke="#63b8ff" d="M559.17,-219.62C530.76,-210.02 496.02,-198.19 456.41,-184.3"/>
<polygon fill="#63b8ff" stroke="#63b8ff" points="457.7,-181.04 447.1,-181.03 455.38,-187.64 457.7,-181.04"/>
</g>
<!-- Node7 -->
<g id="node7" class="node">
<title>Node7</title>
<g id="a_node7"><a xlink:title=" ">
<polygon fill="#e0e0e0" stroke="#999999" points="607,-178.5 464,-178.5 464,-126.5 607,-126.5 607,-178.5"/>
<text text-anchor="start" x="472" y="-166.5" font-family="Helvetica,sans-Serif" font-size="10.00">asm/rel/d/a/obj/d_a</text>
<text text-anchor="start" x="472" y="-155.5" font-family="Helvetica,sans-Serif" font-size="10.00">_obj_lv3WaterB/d_a_obj</text>
<text text-anchor="start" x="472" y="-144.5" font-family="Helvetica,sans-Serif" font-size="10.00">_lv3WaterB/action__FP19obj</text>
<text text-anchor="middle" x="535.5" y="-133.5" font-family="Helvetica,sans-Serif" font-size="10.00">_lv3WaterB_class.s</text>
</a>
</g>
</g>
<!-- Node1&#45;&gt;Node7 -->
<g id="edge7" class="edge">
<title>Node1&#45;&gt;Node7</title>
<path fill="none" stroke="#63b8ff" d="M599.25,-219.55C589.94,-209.91 578.51,-198.06 567.9,-187.08"/>
<polygon fill="#63b8ff" stroke="#63b8ff" points="570.52,-184.75 561.06,-179.98 565.49,-189.61 570.52,-184.75"/>
</g>
<!-- Node8 -->
<g id="node8" class="node">
<title>Node8</title>
<g id="a_node8"><a xlink:title=" ">
<polygon fill="#e0e0e0" stroke="#999999" points="778,-184 625,-184 625,-121 778,-121 778,-184"/>
<text text-anchor="start" x="633" y="-172" font-family="Helvetica,sans-Serif" font-size="10.00">asm/rel/d/a/obj/d_a</text>
<text text-anchor="start" x="633" y="-161" font-family="Helvetica,sans-Serif" font-size="10.00">_obj_lv3WaterB/d_a_obj</text>
<text text-anchor="start" x="633" y="-150" font-family="Helvetica,sans-Serif" font-size="10.00">_lv3WaterB/daObj_Lv3waterB</text>
<text text-anchor="start" x="633" y="-139" font-family="Helvetica,sans-Serif" font-size="10.00">_Execute__FP19obj_lv3WaterB</text>
<text text-anchor="middle" x="701.5" y="-128" font-family="Helvetica,sans-Serif" font-size="10.00">_class.s</text>
</a>
</g>
</g>
<!-- Node1&#45;&gt;Node8 -->
<g id="edge8" class="edge">
<title>Node1&#45;&gt;Node8</title>
<path fill="none" stroke="#63b8ff" d="M637.75,-219.55C645.53,-211.49 654.79,-201.9 663.8,-192.56"/>
<polygon fill="#63b8ff" stroke="#63b8ff" points="666.15,-195.17 670.57,-185.55 661.11,-190.31 666.15,-195.17"/>
</g>
<!-- Node9 -->
<g id="node9" class="node">
<title>Node9</title>
<g id="a_node9"><a xlink:title=" ">
<polygon fill="#e0e0e0" stroke="#999999" points="944.5,-184 796.5,-184 796.5,-121 944.5,-121 944.5,-184"/>
<text text-anchor="start" x="804.5" y="-172" font-family="Helvetica,sans-Serif" font-size="10.00">asm/rel/d/a/obj/d_a</text>
<text text-anchor="start" x="804.5" y="-161" font-family="Helvetica,sans-Serif" font-size="10.00">_obj_lv3WaterB/d_a_obj</text>
<text text-anchor="start" x="804.5" y="-150" font-family="Helvetica,sans-Serif" font-size="10.00">_lv3WaterB/daObj_Lv3waterB</text>
<text text-anchor="start" x="804.5" y="-139" font-family="Helvetica,sans-Serif" font-size="10.00">_Delete__FP19obj_lv3WaterB</text>
<text text-anchor="middle" x="870.5" y="-128" font-family="Helvetica,sans-Serif" font-size="10.00">_class.s</text>
</a>
</g>
</g>
<!-- Node1&#45;&gt;Node9 -->
<g id="edge9" class="edge">
<title>Node1&#45;&gt;Node9</title>
<path fill="none" stroke="#63b8ff" d="M680.88,-219.59C710.23,-210.09 745.92,-198.34 785.6,-184.62"/>
<polygon fill="#63b8ff" stroke="#63b8ff" points="786.6,-187.98 794.9,-181.4 784.31,-181.37 786.6,-187.98"/>
</g>
<!-- Node10 -->
<g id="node10" class="node">
<title>Node10</title>
<g id="a_node10"><a xlink:title=" ">
<polygon fill="#e0e0e0" stroke="#999999" points="1084.5,-178.5 962.5,-178.5 962.5,-126.5 1084.5,-126.5 1084.5,-178.5"/>
<text text-anchor="start" x="970.5" y="-166.5" font-family="Helvetica,sans-Serif" font-size="10.00">asm/rel/d/a/obj/d_a</text>
<text text-anchor="start" x="970.5" y="-155.5" font-family="Helvetica,sans-Serif" font-size="10.00">_obj_lv3WaterB/d_a_obj</text>
<text text-anchor="start" x="970.5" y="-144.5" font-family="Helvetica,sans-Serif" font-size="10.00">_lv3WaterB/useHeapInit</text>
<text text-anchor="middle" x="1023.5" y="-133.5" font-family="Helvetica,sans-Serif" font-size="10.00">__FP10fopAc_ac_c.s</text>
</a>
</g>
</g>
<!-- Node1&#45;&gt;Node10 -->
<g id="edge10" class="edge">
<title>Node1&#45;&gt;Node10</title>
<path fill="none" stroke="#63b8ff" d="M692.21,-232.58C760.88,-224.89 865.59,-210 953.5,-184 954.89,-183.59 956.3,-183.15 957.71,-182.7"/>
<polygon fill="#63b8ff" stroke="#63b8ff" points="958.84,-186.02 967.14,-179.43 956.54,-179.4 958.84,-186.02"/>
</g>
<!-- Node11 -->
<g id="node11" class="node">
<title>Node11</title>
<g id="a_node11"><a xlink:title=" ">
<polygon fill="#e0e0e0" stroke="#999999" points="1290.5,-173 1102.5,-173 1102.5,-132 1290.5,-132 1290.5,-173"/>
<text text-anchor="start" x="1110.5" y="-161" font-family="Helvetica,sans-Serif" font-size="10.00">asm/rel/d/a/obj/d_a</text>
<text text-anchor="start" x="1110.5" y="-150" font-family="Helvetica,sans-Serif" font-size="10.00">_obj_lv3WaterB/d_a_obj</text>
<text text-anchor="middle" x="1196.5" y="-139" font-family="Helvetica,sans-Serif" font-size="10.00">_lv3WaterB/__dt__12J3DFrameCtrlFv.s</text>
</a>
</g>
</g>
<!-- Node1&#45;&gt;Node11 -->
<g id="edge11" class="edge">
<title>Node1&#45;&gt;Node11</title>
<path fill="none" stroke="#63b8ff" d="M692.36,-234.81C786.3,-227.95 953.19,-212.75 1093.5,-184 1103.56,-181.94 1114.06,-179.35 1124.35,-176.56"/>
<polygon fill="#63b8ff" stroke="#63b8ff" points="1125.25,-179.94 1133.93,-173.88 1123.36,-173.2 1125.25,-179.94"/>
</g>
<!-- Node12 -->
<g id="node12" class="node">
<title>Node12</title>
<g id="a_node12"><a xlink:title=" ">
<polygon fill="#e0e0e0" stroke="#999999" points="1456.5,-178.5 1308.5,-178.5 1308.5,-126.5 1456.5,-126.5 1456.5,-178.5"/>
<text text-anchor="start" x="1316.5" y="-166.5" font-family="Helvetica,sans-Serif" font-size="10.00">asm/rel/d/a/obj/d_a</text>
<text text-anchor="start" x="1316.5" y="-155.5" font-family="Helvetica,sans-Serif" font-size="10.00">_obj_lv3WaterB/d_a_obj</text>
<text text-anchor="start" x="1316.5" y="-144.5" font-family="Helvetica,sans-Serif" font-size="10.00">_lv3WaterB/daObj_Lv3waterB</text>
<text text-anchor="middle" x="1382.5" y="-133.5" font-family="Helvetica,sans-Serif" font-size="10.00">_Create__FP10fopAc_ac_c.s</text>
</a>
</g>
</g>
<!-- Node1&#45;&gt;Node12 -->
<g id="edge12" class="edge">
<title>Node1&#45;&gt;Node12</title>
<path fill="none" stroke="#63b8ff" d="M692.28,-239.98C818.29,-239.36 1082.43,-231.8 1299.5,-184 1302.25,-183.39 1305.04,-182.72 1307.84,-181.98"/>
<polygon fill="#63b8ff" stroke="#63b8ff" points="1308.56,-185.42 1317.21,-179.31 1306.64,-178.69 1308.56,-185.42"/>
</g>
<!-- Node2&#45;&gt;Node3 -->
<g id="edge2" class="edge">
<title>Node2&#45;&gt;Node3</title>
<path fill="none" stroke="#63b8ff" d="M90.91,-137.04C99.62,-124.95 112.08,-107.64 121.45,-94.62"/>
<polygon fill="#63b8ff" stroke="#63b8ff" points="124.29,-96.68 127.29,-86.52 118.61,-92.59 124.29,-96.68"/>
</g>
<!-- Node4 -->
<g id="node4" class="node">
<title>Node4</title>
<g id="a_node4"><a xlink:href="stddef_8h.html" target="_top" xlink:title=" ">
<polygon fill="white" stroke="#666666" points="202.5,-30 66.5,-30 66.5,0 202.5,0 202.5,-30"/>
<text text-anchor="start" x="74.5" y="-18" font-family="Helvetica,sans-Serif" font-size="10.00">MSL_C/MSL_Common/Src</text>
<text text-anchor="middle" x="134.5" y="-7" font-family="Helvetica,sans-Serif" font-size="10.00">/stddef.h</text>
</a>
</g>
</g>
<!-- Node3&#45;&gt;Node4 -->
<g id="edge3" class="edge">
<title>Node3&#45;&gt;Node4</title>
<path fill="none" stroke="#63b8ff" d="M134.5,-65.87C134.5,-59.4 134.5,-50.2 134.5,-41.45"/>
<polygon fill="#63b8ff" stroke="#63b8ff" points="138,-41.63 134.5,-31.63 131,-41.63 138,-41.63"/>
</g>
</g>
</svg>
