<?xml version="1.0" encoding="UTF-8" standalone="no"?>
<!DOCTYPE svg PUBLIC "-//W3C//DTD SVG 1.1//EN"
 "http://www.w3.org/Graphics/SVG/1.1/DTD/svg11.dtd">
<!-- Generated by graphviz version 7.0.5 (20221223.1930)
 -->
<!-- Title: rel/d/a/obj/d_a_obj_smtile/d_a_obj_smtile.cpp Pages: 1 -->
<!--zoomable 247 -->
<svg id="main" version="1.1" xmlns="http://www.w3.org/2000/svg" xmlns:xlink="http://www.w3.org/1999/xlink" xml:space="preserve" onload="init(evt)">
<style type="text/css"><![CDATA[
.edge:hover path { stroke: red; }
.edge:hover polygon { stroke: red; fill: red; }
]]></style>
<script type="text/javascript"><![CDATA[
var edges = document.getElementsByTagName('g');
if (edges && edges.length) {
  for (var i=0;i<edges.length;i++) {
    if (edges[i].id.substr(0,4)=='edge') {
      edges[i].setAttribute('class','edge');
    }
  }
}
]]></script>
        <defs>
                <circle id="rim" cx="0" cy="0" r="7"/>
                <circle id="rim2" cx="0" cy="0" r="3.5"/>
                <g id="zoomPlus">
                        <use xlink:href="#rim" fill="#404040">
                                <set attributeName="fill" to="#808080" begin="zoomplus.mouseover" end="zoomplus.mouseout"/>
                        </use>
                        <path d="M-4,0h8M0,-4v8" fill="none" stroke="white" stroke-width="1.5" pointer-events="none"/>
                </g>
                <g id="zoomMin">
                        <use xlink:href="#rim" fill="#404040">
                                <set attributeName="fill" to="#808080" begin="zoomminus.mouseover" end="zoomminus.mouseout"/>
                        </use>
                        <path d="M-4,0h8" fill="none" stroke="white" stroke-width="1.5" pointer-events="none"/>
                </g>
                <g id="dirArrow">
                        <path fill="none" stroke="white" stroke-width="1.5" d="M0,-3.0v7 M-2.5,-0.5L0,-3.0L2.5,-0.5"/>
                </g>
               <g id="resetDef">
                       <use xlink:href="#rim2" fill="#404040">
                               <set attributeName="fill" to="#808080" begin="reset.mouseover" end="reset.mouseout"/>
                       </use>
               </g>
        </defs>

<script type="text/javascript">
var viewWidth = 3213;
var viewHeight = 247;
var sectionId = 'dynsection-0';
</script>
<script xlink:href="svgpan.js"/>
<svg id="graph" class="graph">
<g id="viewport">
<title>rel/d/a/obj/d_a_obj_smtile/d_a_obj_smtile.cpp</title>
<!-- Node1 -->
<g id="node1" class="node">
<title>Node1</title>
<g id="a_node1"><a xlink:title=" ">
<polygon fill="#999999" stroke="#666666" points="1631,-239 1497,-239 1497,-209 1631,-209 1631,-239"/>
<text text-anchor="start" x="1505" y="-227" font-family="Helvetica,sans-Serif" font-size="10.00">rel/d/a/obj/d_a_obj</text>
<text text-anchor="middle" x="1564" y="-216" font-family="Helvetica,sans-Serif" font-size="10.00">_smtile/d_a_obj_smtile.cpp</text>
</a>
</g>
</g>
<!-- Node2 -->
<g id="node2" class="node">
<title>Node2</title>
<g id="a_node2"><a xlink:href="d__a__obj__smtile_8h.html" target="_top" xlink:title=" ">
<polygon fill="white" stroke="#666666" points="124,-162 0,-162 0,-132 124,-132 124,-162"/>
<text text-anchor="start" x="8" y="-150" font-family="Helvetica,sans-Serif" font-size="10.00">rel/d/a/obj/d_a_obj</text>
<text text-anchor="middle" x="62" y="-139" font-family="Helvetica,sans-Serif" font-size="10.00">_smtile/d_a_obj_smtile.h</text>
</a>
</g>
</g>
<!-- Node1&#45;&gt;Node2 -->
<g id="edge1" class="edge">
<title>Node1&#45;&gt;Node2</title>
<path fill="none" stroke="#63b8ff" d="M1496.64,-223.15C1250.99,-223.33 403.83,-220.39 138,-173 128.76,-171.35 119.11,-168.84 109.91,-166.02"/>
<polygon fill="#63b8ff" stroke="#63b8ff" points="110.99,-162.69 100.4,-162.94 108.83,-169.35 110.99,-162.69"/>
</g>
<!-- Node3 -->
<g id="node3" class="node">
<title>Node3</title>
<g id="a_node3"><a xlink:href="types_8h.html" target="_top" xlink:title=" ">
<polygon fill="white" stroke="#666666" points="147.5,-85 66.5,-85 66.5,-66 147.5,-66 147.5,-85"/>
<text text-anchor="middle" x="107" y="-73" font-family="Helvetica,sans-Serif" font-size="10.00">dolphin/types.h</text>
</a>
</g>
</g>
<!-- Node1&#45;&gt;Node3 -->
<g id="edge5" class="edge">
<title>Node1&#45;&gt;Node3</title>
<path fill="none" stroke="#63b8ff" d="M1496.79,-222.28C1226.49,-219.15 230.43,-205.45 172,-173 163.97,-168.54 134.52,-121.68 118.16,-94.94"/>
<polygon fill="#63b8ff" stroke="#63b8ff" points="121.2,-93.21 113.01,-86.49 115.22,-96.85 121.2,-93.21"/>
</g>
<!-- Node5 -->
<g id="node5" class="node">
<title>Node5</title>
<g id="a_node5"><a xlink:href="dol2asm_8h.html" target="_top" xlink:title=" ">
<polygon fill="white" stroke="#666666" points="241.5,-156.5 180.5,-156.5 180.5,-137.5 241.5,-137.5 241.5,-156.5"/>
<text text-anchor="middle" x="211" y="-144.5" font-family="Helvetica,sans-Serif" font-size="10.00">dol2asm.h</text>
</a>
</g>
</g>
<!-- Node1&#45;&gt;Node5 -->
<g id="edge4" class="edge">
<title>Node1&#45;&gt;Node5</title>
<path fill="none" stroke="#63b8ff" d="M1496.7,-222.47C1245.4,-220.19 370.31,-209.69 251,-173 244.08,-170.87 237.17,-167.23 231.09,-163.38"/>
<polygon fill="#63b8ff" stroke="#63b8ff" points="233.23,-160.61 223.02,-157.78 229.24,-166.36 233.23,-160.61"/>
</g>
<!-- Node6 -->
<g id="node6" class="node">
<title>Node6</title>
<g id="a_node6"><a xlink:title=" ">
<polygon fill="#e0e0e0" stroke="#999999" points="376,-173 260,-173 260,-121 376,-121 376,-173"/>
<text text-anchor="start" x="268" y="-161" font-family="Helvetica,sans-Serif" font-size="10.00">asm/rel/d/a/obj/d_a</text>
<text text-anchor="start" x="268" y="-150" font-family="Helvetica,sans-Serif" font-size="10.00">_obj_smtile/d_a_obj</text>
<text text-anchor="start" x="268" y="-139" font-family="Helvetica,sans-Serif" font-size="10.00">_smtile/__dt__14daObj</text>
<text text-anchor="middle" x="318" y="-128" font-family="Helvetica,sans-Serif" font-size="10.00">_SMTile_cFv.s</text>
</a>
</g>
</g>
<!-- Node1&#45;&gt;Node6 -->
<g id="edge6" class="edge">
<title>Node1&#45;&gt;Node6</title>
<path fill="none" stroke="#63b8ff" d="M1496.62,-222.87C1283.15,-222.05 622.53,-216.14 387.48,-172.88"/>
<polygon fill="#63b8ff" stroke="#63b8ff" points="388.24,-169.46 377.76,-171.01 386.92,-176.34 388.24,-169.46"/>
</g>
<!-- Node7 -->
<g id="node7" class="node">
<title>Node7</title>
<g id="a_node7"><a xlink:title=" ">
<polygon fill="#e0e0e0" stroke="#999999" points="519.5,-167.5 394.5,-167.5 394.5,-126.5 519.5,-126.5 519.5,-167.5"/>
<text text-anchor="start" x="402.5" y="-155.5" font-family="Helvetica,sans-Serif" font-size="10.00">asm/rel/d/a/obj/d_a</text>
<text text-anchor="start" x="402.5" y="-144.5" font-family="Helvetica,sans-Serif" font-size="10.00">_obj_smtile/d_a_obj</text>
<text text-anchor="middle" x="457" y="-133.5" font-family="Helvetica,sans-Serif" font-size="10.00">_smtile/__dt__4cXyzFv.s</text>
</a>
</g>
</g>
<!-- Node1&#45;&gt;Node7 -->
<g id="edge7" class="edge">
<title>Node1&#45;&gt;Node7</title>
<path fill="none" stroke="#63b8ff" d="M1496.57,-222.25C1297.62,-219.65 715.33,-209.07 529,-173 526,-172.42 522.95,-171.74 519.89,-170.98"/>
<polygon fill="#63b8ff" stroke="#63b8ff" points="520.85,-167.62 510.28,-168.35 519,-174.37 520.85,-167.62"/>
</g>
<!-- Node8 -->
<g id="node8" class="node">
<title>Node8</title>
<g id="a_node8"><a xlink:title=" ">
<polygon fill="#e0e0e0" stroke="#999999" points="662.5,-173 537.5,-173 537.5,-121 662.5,-121 662.5,-173"/>
<text text-anchor="start" x="545.5" y="-161" font-family="Helvetica,sans-Serif" font-size="10.00">asm/rel/d/a/obj/d_a</text>
<text text-anchor="start" x="545.5" y="-150" font-family="Helvetica,sans-Serif" font-size="10.00">_obj_smtile/d_a_obj</text>
<text text-anchor="start" x="545.5" y="-139" font-family="Helvetica,sans-Serif" font-size="10.00">_smtile/create__14daObj</text>
<text text-anchor="middle" x="600" y="-128" font-family="Helvetica,sans-Serif" font-size="10.00">_SMTile_cFv.s</text>
</a>
</g>
</g>
<!-- Node1&#45;&gt;Node8 -->
<g id="edge8" class="edge">
<title>Node1&#45;&gt;Node8</title>
<path fill="none" stroke="#63b8ff" d="M1496.76,-221.65C1321.12,-217.74 850.58,-204.75 674.13,-173.08"/>
<polygon fill="#63b8ff" stroke="#63b8ff" points="674.9,-169.66 664.43,-171.25 673.61,-176.54 674.9,-169.66"/>
</g>
<!-- Node9 -->
<g id="node9" class="node">
<title>Node9</title>
<g id="a_node9"><a xlink:title=" ">
<polygon fill="#e0e0e0" stroke="#999999" points="851,-167.5 681,-167.5 681,-126.5 851,-126.5 851,-167.5"/>
<text text-anchor="start" x="689" y="-155.5" font-family="Helvetica,sans-Serif" font-size="10.00">asm/rel/d/a/obj/d_a</text>
<text text-anchor="start" x="689" y="-144.5" font-family="Helvetica,sans-Serif" font-size="10.00">_obj_smtile/d_a_obj</text>
<text text-anchor="middle" x="766" y="-133.5" font-family="Helvetica,sans-Serif" font-size="10.00">_smtile/__dt__12J3DFrameCtrlFv.s</text>
</a>
</g>
</g>
<!-- Node1&#45;&gt;Node9 -->
<g id="edge9" class="edge">
<title>Node1&#45;&gt;Node9</title>
<path fill="none" stroke="#63b8ff" d="M1496.63,-222.37C1370.87,-220.27 1092.16,-211.29 861,-173 856.41,-172.24 851.72,-171.36 847,-170.39"/>
<polygon fill="#63b8ff" stroke="#63b8ff" points="847.97,-167.02 837.46,-168.31 846.48,-173.86 847.97,-167.02"/>
</g>
<!-- Node10 -->
<g id="node10" class="node">
<title>Node10</title>
<g id="a_node10"><a xlink:title=" ">
<polygon fill="#e0e0e0" stroke="#999999" points="1018.5,-173 869.5,-173 869.5,-121 1018.5,-121 1018.5,-173"/>
<text text-anchor="start" x="877.5" y="-161" font-family="Helvetica,sans-Serif" font-size="10.00">asm/rel/d/a/obj/d_a</text>
<text text-anchor="start" x="877.5" y="-150" font-family="Helvetica,sans-Serif" font-size="10.00">_obj_smtile/d_a_obj</text>
<text text-anchor="start" x="877.5" y="-139" font-family="Helvetica,sans-Serif" font-size="10.00">_smtile/CreateHeap__14daObj</text>
<text text-anchor="middle" x="944" y="-128" font-family="Helvetica,sans-Serif" font-size="10.00">_SMTile_cFv.s</text>
</a>
</g>
</g>
<!-- Node1&#45;&gt;Node10 -->
<g id="edge10" class="edge">
<title>Node1&#45;&gt;Node10</title>
<path fill="none" stroke="#63b8ff" d="M1496.55,-220.95C1396.5,-216.97 1202.89,-205.71 1030.02,-173.21"/>
<polygon fill="#63b8ff" stroke="#63b8ff" points="1030.89,-169.82 1020.41,-171.38 1029.58,-176.69 1030.89,-169.82"/>
</g>
<!-- Node11 -->
<g id="node11" class="node">
<title>Node11</title>
<g id="a_node11"><a xlink:title=" ">
<polygon fill="#e0e0e0" stroke="#999999" points="1161.5,-173 1036.5,-173 1036.5,-121 1161.5,-121 1161.5,-173"/>
<text text-anchor="start" x="1044.5" y="-161" font-family="Helvetica,sans-Serif" font-size="10.00">asm/rel/d/a/obj/d_a</text>
<text text-anchor="start" x="1044.5" y="-150" font-family="Helvetica,sans-Serif" font-size="10.00">_obj_smtile/d_a_obj</text>
<text text-anchor="start" x="1044.5" y="-139" font-family="Helvetica,sans-Serif" font-size="10.00">_smtile/Delete__14daObj</text>
<text text-anchor="middle" x="1099" y="-128" font-family="Helvetica,sans-Serif" font-size="10.00">_SMTile_cFv.s</text>
</a>
</g>
</g>
<!-- Node1&#45;&gt;Node11 -->
<g id="edge11" class="edge">
<title>Node1&#45;&gt;Node11</title>
<path fill="none" stroke="#63b8ff" d="M1496.84,-218.72C1420.38,-212.89 1291.75,-200.22 1173.08,-173.27"/>
<polygon fill="#63b8ff" stroke="#63b8ff" points="1174,-169.89 1163.47,-171.05 1172.42,-176.71 1174,-169.89"/>
</g>
<!-- Node12 -->
<g id="node12" class="node">
<title>Node12</title>
<g id="a_node12"><a xlink:title=" ">
<polygon fill="#e0e0e0" stroke="#999999" points="1312,-173 1180,-173 1180,-121 1312,-121 1312,-173"/>
<text text-anchor="start" x="1188" y="-161" font-family="Helvetica,sans-Serif" font-size="10.00">asm/rel/d/a/obj/d_a</text>
<text text-anchor="start" x="1188" y="-150" font-family="Helvetica,sans-Serif" font-size="10.00">_obj_smtile/d_a_obj</text>
<text text-anchor="start" x="1188" y="-139" font-family="Helvetica,sans-Serif" font-size="10.00">_smtile/Execute__14daObj</text>
<text text-anchor="middle" x="1246" y="-128" font-family="Helvetica,sans-Serif" font-size="10.00">_SMTile_cFv.s</text>
</a>
</g>
</g>
<!-- Node1&#45;&gt;Node12 -->
<g id="edge12" class="edge">
<title>Node1&#45;&gt;Node12</title>
<path fill="none" stroke="#63b8ff" d="M1496.71,-211.38C1450.34,-202.86 1387.13,-190.25 1323.22,-173.47"/>
<polygon fill="#63b8ff" stroke="#63b8ff" points="1324.15,-170.1 1313.59,-170.9 1322.35,-176.86 1324.15,-170.1"/>
</g>
<!-- Node13 -->
<g id="node13" class="node">
<title>Node13</title>
<g id="a_node13"><a xlink:title=" ">
<polygon fill="#e0e0e0" stroke="#999999" points="1450,-173 1330,-173 1330,-121 1450,-121 1450,-173"/>
<text text-anchor="start" x="1338" y="-161" font-family="Helvetica,sans-Serif" font-size="10.00">asm/rel/d/a/obj/d_a</text>
<text text-anchor="start" x="1338" y="-150" font-family="Helvetica,sans-Serif" font-size="10.00">_obj_smtile/d_a_obj</text>
<text text-anchor="start" x="1338" y="-139" font-family="Helvetica,sans-Serif" font-size="10.00">_smtile/Draw__14daObj</text>
<text text-anchor="middle" x="1390" y="-128" font-family="Helvetica,sans-Serif" font-size="10.00">_SMTile_cFv.s</text>
</a>
</g>
</g>
<!-- Node1&#45;&gt;Node13 -->
<g id="edge13" class="edge">
<title>Node1&#45;&gt;Node13</title>
<path fill="none" stroke="#63b8ff" d="M1530.45,-208.54C1510.23,-199.82 1483.72,-188.4 1459.19,-177.82"/>
<polygon fill="#63b8ff" stroke="#63b8ff" points="1460.78,-174.7 1450.21,-173.95 1458.01,-181.12 1460.78,-174.7"/>
</g>
<!-- Node14 -->
<g id="node14" class="node">
<title>Node14</title>
<g id="a_node14"><a xlink:title=" ">
<polygon fill="#e0e0e0" stroke="#999999" points="1660,-173 1468,-173 1468,-121 1660,-121 1660,-173"/>
<text text-anchor="start" x="1476" y="-161" font-family="Helvetica,sans-Serif" font-size="10.00">asm/rel/d/a/obj/d_a</text>
<text text-anchor="start" x="1476" y="-150" font-family="Helvetica,sans-Serif" font-size="10.00">_obj_smtile/d_a_obj</text>
<text text-anchor="start" x="1476" y="-139" font-family="Helvetica,sans-Serif" font-size="10.00">_smtile/createHeapCallBack</text>
<text text-anchor="middle" x="1564" y="-128" font-family="Helvetica,sans-Serif" font-size="10.00">__14daObj_SMTile_cFP10fopAc_ac_c.s</text>
</a>
</g>
</g>
<!-- Node1&#45;&gt;Node14 -->
<g id="edge14" class="edge">
<title>Node1&#45;&gt;Node14</title>
<path fill="none" stroke="#63b8ff" d="M1564,-208.54C1564,-201.69 1564,-193.17 1564,-184.7"/>
<polygon fill="#63b8ff" stroke="#63b8ff" points="1567.5,-184.87 1564,-174.87 1560.5,-184.87 1567.5,-184.87"/>
</g>
<!-- Node15 -->
<g id="node15" class="node">
<title>Node15</title>
<g id="a_node15"><a xlink:title=" ">
<polygon fill="#e0e0e0" stroke="#999999" points="1821.5,-173 1678.5,-173 1678.5,-121 1821.5,-121 1821.5,-173"/>
<text text-anchor="start" x="1686.5" y="-161" font-family="Helvetica,sans-Serif" font-size="10.00">asm/rel/d/a/obj/d_a</text>
<text text-anchor="start" x="1686.5" y="-150" font-family="Helvetica,sans-Serif" font-size="10.00">_obj_smtile/d_a_obj</text>
<text text-anchor="start" x="1686.5" y="-139" font-family="Helvetica,sans-Serif" font-size="10.00">_smtile/setDstPos__14daObj</text>
<text text-anchor="middle" x="1750" y="-128" font-family="Helvetica,sans-Serif" font-size="10.00">_SMTile_cFv.s</text>
</a>
</g>
</g>
<!-- Node1&#45;&gt;Node15 -->
<g id="edge15" class="edge">
<title>Node1&#45;&gt;Node15</title>
<path fill="none" stroke="#63b8ff" d="M1599.86,-208.54C1621.67,-199.75 1650.32,-188.19 1676.74,-177.54"/>
<polygon fill="#63b8ff" stroke="#63b8ff" points="1677.76,-180.9 1685.72,-173.92 1675.14,-174.41 1677.76,-180.9"/>
</g>
<!-- Node16 -->
<g id="node16" class="node">
<title>Node16</title>
<g id="a_node16"><a xlink:title=" ">
<polygon fill="#e0e0e0" stroke="#999999" points="1976.5,-173 1839.5,-173 1839.5,-121 1976.5,-121 1976.5,-173"/>
<text text-anchor="start" x="1847.5" y="-161" font-family="Helvetica,sans-Serif" font-size="10.00">asm/rel/d/a/obj/d_a</text>
<text text-anchor="start" x="1847.5" y="-150" font-family="Helvetica,sans-Serif" font-size="10.00">_obj_smtile/d_a_obj</text>
<text text-anchor="start" x="1847.5" y="-139" font-family="Helvetica,sans-Serif" font-size="10.00">_smtile/setPrtcls__14daObj</text>
<text text-anchor="middle" x="1908" y="-128" font-family="Helvetica,sans-Serif" font-size="10.00">_SMTile_cFii.s</text>
</a>
</g>
</g>
<!-- Node1&#45;&gt;Node16 -->
<g id="edge16" class="edge">
<title>Node1&#45;&gt;Node16</title>
<path fill="none" stroke="#63b8ff" d="M1631.46,-212.84C1683.11,-204.49 1756.26,-191.47 1828.21,-173.59"/>
<polygon fill="#63b8ff" stroke="#63b8ff" points="1828.97,-177.01 1837.81,-171.17 1827.26,-170.22 1828.97,-177.01"/>
</g>
<!-- Node17 -->
<g id="node17" class="node">
<title>Node17</title>
<g id="a_node17"><a xlink:title=" ">
<polygon fill="#e0e0e0" stroke="#999999" points="2115.5,-173 1994.5,-173 1994.5,-121 2115.5,-121 2115.5,-173"/>
<text text-anchor="start" x="2002.5" y="-161" font-family="Helvetica,sans-Serif" font-size="10.00">asm/rel/d/a/obj/d_a</text>
<text text-anchor="start" x="2002.5" y="-150" font-family="Helvetica,sans-Serif" font-size="10.00">_obj_smtile/d_a_obj</text>
<text text-anchor="start" x="2002.5" y="-139" font-family="Helvetica,sans-Serif" font-size="10.00">_smtile/touchPrtcls_</text>
<text text-anchor="middle" x="2055" y="-128" font-family="Helvetica,sans-Serif" font-size="10.00">_14daObj_SMTile_cFf.s</text>
</a>
</g>
</g>
<!-- Node1&#45;&gt;Node17 -->
<g id="edge17" class="edge">
<title>Node1&#45;&gt;Node17</title>
<path fill="none" stroke="#63b8ff" d="M1631.34,-219.79C1712.96,-214.85 1854.58,-202.89 1983.08,-173.47"/>
<polygon fill="#63b8ff" stroke="#63b8ff" points="1983.86,-176.88 1992.8,-171.2 1982.27,-170.07 1983.86,-176.88"/>
</g>
<!-- Node18 -->
<g id="node18" class="node">
<title>Node18</title>
<g id="a_node18"><a xlink:title=" ">
<polygon fill="#e0e0e0" stroke="#999999" points="2260.5,-173 2133.5,-173 2133.5,-121 2260.5,-121 2260.5,-173"/>
<text text-anchor="start" x="2141.5" y="-161" font-family="Helvetica,sans-Serif" font-size="10.00">asm/rel/d/a/obj/d_a</text>
<text text-anchor="start" x="2141.5" y="-150" font-family="Helvetica,sans-Serif" font-size="10.00">_obj_smtile/d_a_obj</text>
<text text-anchor="start" x="2141.5" y="-139" font-family="Helvetica,sans-Serif" font-size="10.00">_smtile/setMtx__14daObj</text>
<text text-anchor="middle" x="2197" y="-128" font-family="Helvetica,sans-Serif" font-size="10.00">_SMTile_cFv.s</text>
</a>
</g>
</g>
<!-- Node1&#45;&gt;Node18 -->
<g id="edge18" class="edge">
<title>Node1&#45;&gt;Node18</title>
<path fill="none" stroke="#63b8ff" d="M1631.29,-222.31C1735.27,-220.07 1941.12,-211.05 2122.18,-173.39"/>
<polygon fill="#63b8ff" stroke="#63b8ff" points="2122.7,-176.86 2131.76,-171.36 2121.25,-170.01 2122.7,-176.86"/>
</g>
<!-- Node19 -->
<g id="node19" class="node">
<title>Node19</title>
<g id="a_node19"><a xlink:title=" ">
<polygon fill="#e0e0e0" stroke="#999999" points="2391.5,-173 2278.5,-173 2278.5,-121 2391.5,-121 2391.5,-173"/>
<text text-anchor="start" x="2286.5" y="-161" font-family="Helvetica,sans-Serif" font-size="10.00">asm/rel/d/a/obj/d_a</text>
<text text-anchor="start" x="2286.5" y="-150" font-family="Helvetica,sans-Serif" font-size="10.00">_obj_smtile/d_a_obj</text>
<text text-anchor="start" x="2286.5" y="-139" font-family="Helvetica,sans-Serif" font-size="10.00">_smtile/daObj_SMTile</text>
<text text-anchor="middle" x="2335" y="-128" font-family="Helvetica,sans-Serif" font-size="10.00">_Create__FPv.s</text>
</a>
</g>
</g>
<!-- Node1&#45;&gt;Node19 -->
<g id="edge19" class="edge">
<title>Node1&#45;&gt;Node19</title>
<path fill="none" stroke="#63b8ff" d="M1631.35,-220.77C1779.27,-215.48 2129.67,-200.65 2267.15,-173.27"/>
<polygon fill="#63b8ff" stroke="#63b8ff" points="2267.68,-176.73 2276.74,-171.24 2266.24,-169.88 2267.68,-176.73"/>
</g>
<!-- Node20 -->
<g id="node20" class="node">
<title>Node20</title>
<g id="a_node20"><a xlink:title=" ">
<polygon fill="#e0e0e0" stroke="#999999" points="2522.5,-173 2409.5,-173 2409.5,-121 2522.5,-121 2522.5,-173"/>
<text text-anchor="start" x="2417.5" y="-161" font-family="Helvetica,sans-Serif" font-size="10.00">asm/rel/d/a/obj/d_a</text>
<text text-anchor="start" x="2417.5" y="-150" font-family="Helvetica,sans-Serif" font-size="10.00">_obj_smtile/d_a_obj</text>
<text text-anchor="start" x="2417.5" y="-139" font-family="Helvetica,sans-Serif" font-size="10.00">_smtile/daObj_SMTile</text>
<text text-anchor="middle" x="2466" y="-128" font-family="Helvetica,sans-Serif" font-size="10.00">_Delete__FPv.s</text>
</a>
</g>
</g>
<!-- Node1&#45;&gt;Node20 -->
<g id="edge20" class="edge">
<title>Node1&#45;&gt;Node20</title>
<path fill="none" stroke="#63b8ff" d="M1631.48,-221.64C1799.57,-217.82 2234.6,-205.28 2398.38,-173.21"/>
<polygon fill="#63b8ff" stroke="#63b8ff" points="2398.67,-176.72 2407.75,-171.27 2397.25,-169.87 2398.67,-176.72"/>
</g>
<!-- Node21 -->
<g id="node21" class="node">
<title>Node21</title>
<g id="a_node21"><a xlink:title=" ">
<polygon fill="#e0e0e0" stroke="#999999" points="2653.5,-173 2540.5,-173 2540.5,-121 2653.5,-121 2653.5,-173"/>
<text text-anchor="start" x="2548.5" y="-161" font-family="Helvetica,sans-Serif" font-size="10.00">asm/rel/d/a/obj/d_a</text>
<text text-anchor="start" x="2548.5" y="-150" font-family="Helvetica,sans-Serif" font-size="10.00">_obj_smtile/d_a_obj</text>
<text text-anchor="start" x="2548.5" y="-139" font-family="Helvetica,sans-Serif" font-size="10.00">_smtile/daObj_SMTile</text>
<text text-anchor="middle" x="2597" y="-128" font-family="Helvetica,sans-Serif" font-size="10.00">_Execute__FPv.s</text>
</a>
</g>
</g>
<!-- Node1&#45;&gt;Node21 -->
<g id="edge21" class="edge">
<title>Node1&#45;&gt;Node21</title>
<path fill="none" stroke="#63b8ff" d="M1631.48,-222.27C1817.91,-219.83 2338.28,-210.02 2528.97,-173.28"/>
<polygon fill="#63b8ff" stroke="#63b8ff" points="2529.65,-176.71 2538.76,-171.3 2528.26,-169.85 2529.65,-176.71"/>
</g>
<!-- Node22 -->
<g id="node22" class="node">
<title>Node22</title>
<g id="a_node22"><a xlink:title=" ">
<polygon fill="#e0e0e0" stroke="#999999" points="2784.5,-173 2671.5,-173 2671.5,-121 2784.5,-121 2784.5,-173"/>
<text text-anchor="start" x="2679.5" y="-161" font-family="Helvetica,sans-Serif" font-size="10.00">asm/rel/d/a/obj/d_a</text>
<text text-anchor="start" x="2679.5" y="-150" font-family="Helvetica,sans-Serif" font-size="10.00">_obj_smtile/d_a_obj</text>
<text text-anchor="start" x="2679.5" y="-139" font-family="Helvetica,sans-Serif" font-size="10.00">_smtile/daObj_SMTile</text>
<text text-anchor="middle" x="2728" y="-128" font-family="Helvetica,sans-Serif" font-size="10.00">_Draw__FPv.s</text>
</a>
</g>
</g>
<!-- Node1&#45;&gt;Node22 -->
<g id="edge22" class="edge">
<title>Node1&#45;&gt;Node22</title>
<path fill="none" stroke="#63b8ff" d="M1631.21,-222.76C1834.72,-221.6 2443.09,-214.81 2660.27,-173.22"/>
<polygon fill="#63b8ff" stroke="#63b8ff" points="2660.64,-176.71 2669.76,-171.31 2659.27,-169.85 2660.64,-176.71"/>
</g>
<!-- Node23 -->
<g id="node23" class="node">
<title>Node23</title>
<g id="a_node23"><a xlink:title=" ">
<polygon fill="#e0e0e0" stroke="#999999" points="2933,-167.5 2803,-167.5 2803,-126.5 2933,-126.5 2933,-167.5"/>
<text text-anchor="start" x="2811" y="-155.5" font-family="Helvetica,sans-Serif" font-size="10.00">asm/rel/d/a/obj/d_a</text>
<text text-anchor="start" x="2811" y="-144.5" font-family="Helvetica,sans-Serif" font-size="10.00">_obj_smtile/d_a_obj</text>
<text text-anchor="middle" x="2868" y="-133.5" font-family="Helvetica,sans-Serif" font-size="10.00">_smtile/func_80CDE2A4.s</text>
</a>
</g>
</g>
<!-- Node1&#45;&gt;Node23 -->
<g id="edge23" class="edge">
<title>Node1&#45;&gt;Node23</title>
<path fill="none" stroke="#63b8ff" d="M1631.16,-222.78C1854.08,-221.67 2568.1,-214.86 2794,-173 2797.19,-172.41 2800.43,-171.71 2803.68,-170.93"/>
<polygon fill="#63b8ff" stroke="#63b8ff" points="2804.49,-174.33 2813.26,-168.38 2802.7,-167.57 2804.49,-174.33"/>
</g>
<!-- Node24 -->
<g id="node24" class="node">
<title>Node24</title>
<g id="a_node24"><a xlink:title=" ">
<polygon fill="#e0e0e0" stroke="#999999" points="3070.5,-173 2951.5,-173 2951.5,-121 3070.5,-121 3070.5,-173"/>
<text text-anchor="start" x="2959.5" y="-161" font-family="Helvetica,sans-Serif" font-size="10.00">asm/rel/d/a/obj/d_a</text>
<text text-anchor="start" x="2959.5" y="-150" font-family="Helvetica,sans-Serif" font-size="10.00">_obj_smtile/d_a_obj</text>
<text text-anchor="start" x="2959.5" y="-139" font-family="Helvetica,sans-Serif" font-size="10.00">_smtile/__sinit_d_a_obj</text>
<text text-anchor="middle" x="3011" y="-128" font-family="Helvetica,sans-Serif" font-size="10.00">_smtile_cpp.s</text>
</a>
</g>
</g>
<!-- Node1&#45;&gt;Node24 -->
<g id="edge24" class="edge">
<title>Node1&#45;&gt;Node24</title>
<path fill="none" stroke="#63b8ff" d="M1631.2,-223.32C1868.1,-224.02 2664.4,-222.67 2939.95,-173.04"/>
<polygon fill="#63b8ff" stroke="#63b8ff" points="2940.43,-176.51 2949.61,-171.22 2939.14,-169.63 2940.43,-176.51"/>
</g>
<!-- Node25 -->
<g id="node25" class="node">
<title>Node25</title>
<g id="a_node25"><a xlink:title=" ">
<polygon fill="#e0e0e0" stroke="#999999" points="3205,-173 3089,-173 3089,-121 3205,-121 3205,-173"/>
<text text-anchor="start" x="3097" y="-161" font-family="Helvetica,sans-Serif" font-size="10.00">asm/rel/d/a/obj/d_a</text>
<text text-anchor="start" x="3097" y="-150" font-family="Helvetica,sans-Serif" font-size="10.00">_obj_smtile/d_a_obj</text>
<text text-anchor="start" x="3097" y="-139" font-family="Helvetica,sans-Serif" font-size="10.00">_smtile/__dt__20daObj</text>
<text text-anchor="middle" x="3147" y="-128" font-family="Helvetica,sans-Serif" font-size="10.00">_SMTile_Param_cFv.s</text>
</a>
</g>
</g>
<!-- Node1&#45;&gt;Node25 -->
<g id="edge25" class="edge">
<title>Node1&#45;&gt;Node25</title>
<path fill="none" stroke="#63b8ff" d="M1631.38,-222.06C1900.47,-218.14 2892.02,-201.99 3077.59,-172.94"/>
<polygon fill="#63b8ff" stroke="#63b8ff" points="3078.12,-176.4 3087.37,-171.22 3076.91,-169.5 3078.12,-176.4"/>
</g>
<!-- Node2&#45;&gt;Node3 -->
<g id="edge2" class="edge">
<title>Node2&#45;&gt;Node3</title>
<path fill="none" stroke="#63b8ff" d="M71.32,-131.6C78.26,-120.88 87.78,-106.18 95.24,-94.66"/>
<polygon fill="#63b8ff" stroke="#63b8ff" points="98.06,-96.75 100.56,-86.45 92.18,-92.94 98.06,-96.75"/>
</g>
<!-- Node4 -->
<g id="node4" class="node">
<title>Node4</title>
<g id="a_node4"><a xlink:href="stddef_8h.html" target="_top" xlink:title=" ">
<polygon fill="white" stroke="#666666" points="175,-30 39,-30 39,0 175,0 175,-30"/>
<text text-anchor="start" x="47" y="-18" font-family="Helvetica,sans-Serif" font-size="10.00">MSL_C/MSL_Common/Src</text>
<text text-anchor="middle" x="107" y="-7" font-family="Helvetica,sans-Serif" font-size="10.00">/stddef.h</text>
</a>
</g>
</g>
<!-- Node3&#45;&gt;Node4 -->
<g id="edge3" class="edge">
<title>Node3&#45;&gt;Node4</title>
<path fill="none" stroke="#63b8ff" d="M107,-65.87C107,-59.4 107,-50.2 107,-41.45"/>
<polygon fill="#63b8ff" stroke="#63b8ff" points="110.5,-41.63 107,-31.63 103.5,-41.63 110.5,-41.63"/>
</g>
</g>
</svg>
        <g id="navigator" transform="translate(0 0)" fill="#404254">
                <rect fill="#f2f5e9" fill-opacity="0.5" stroke="#606060" stroke-width=".5" x="0" y="0" width="60" height="60"/>
                <use id="zoomplus" xlink:href="#zoomPlus" x="17" y="9" onmousedown="handleZoom(evt,'in')"/>
                <use id="zoomminus" xlink:href="#zoomMin" x="42" y="9" onmousedown="handleZoom(evt,'out')"/>
                <use id="reset" xlink:href="#resetDef" x="30" y="36" onmousedown="handleReset()"/>
                <g id="arrowUp" xlink:href="#dirArrow" transform="translate(30 24)" onmousedown="handlePan(0,-1)">
                  <use xlink:href="#rim" fill="#404040">
                        <set attributeName="fill" to="#808080" begin="arrowUp.mouseover" end="arrowUp.mouseout"/>
                  </use>
                  <path fill="none" stroke="white" stroke-width="1.5" d="M0,-3.0v7 M-2.5,-0.5L0,-3.0L2.5,-0.5"/>
                </g>
                <g id="arrowRight" xlink:href="#dirArrow" transform="rotate(90) translate(36 -43)" onmousedown="handlePan(1,0)">
                  <use xlink:href="#rim" fill="#404040">
                        <set attributeName="fill" to="#808080" begin="arrowRight.mouseover" end="arrowRight.mouseout"/>
                  </use>
                  <path fill="none" stroke="white" stroke-width="1.5" d="M0,-3.0v7 M-2.5,-0.5L0,-3.0L2.5,-0.5"/>
                </g>
                <g id="arrowDown" xlink:href="#dirArrow" transform="rotate(180) translate(-30 -48)" onmousedown="handlePan(0,1)">
                  <use xlink:href="#rim" fill="#404040">
                        <set attributeName="fill" to="#808080" begin="arrowDown.mouseover" end="arrowDown.mouseout"/>
                  </use>
                  <path fill="none" stroke="white" stroke-width="1.5" d="M0,-3.0v7 M-2.5,-0.5L0,-3.0L2.5,-0.5"/>
                </g>
                <g id="arrowLeft" xlink:href="#dirArrow" transform="rotate(270) translate(-36 17)" onmousedown="handlePan(-1,0)">
                  <use xlink:href="#rim" fill="#404040">
                        <set attributeName="fill" to="#808080" begin="arrowLeft.mouseover" end="arrowLeft.mouseout"/>
                  </use>
                  <path fill="none" stroke="white" stroke-width="1.5" d="M0,-3.0v7 M-2.5,-0.5L0,-3.0L2.5,-0.5"/>
                </g>
        </g>
        <svg viewBox="0 0 15 15" width="100%" height="30px" preserveAspectRatio="xMaxYMin meet">
         <g id="arrow_out" transform="scale(0.3 0.3)">
          <a xlink:href="d__a__obj__smtile_8cpp__incl_org.svg" target="_base">
           <rect id="button" ry="5" rx="5" y="6" x="6" height="38" width="38"
                fill="#f2f5e9" fill-opacity="0.5" stroke="#606060" stroke-width="1.0"/>
           <path id="arrow"
             d="M 11.500037,31.436501 C 11.940474,20.09759 22.043105,11.32322 32.158766,21.979434 L 37.068811,17.246167 C 37.068811,17.246167 37.088388,32 37.088388,32 L 22.160133,31.978069 C 22.160133,31.978069 26.997745,27.140456 26.997745,27.140456 C 18.528582,18.264221 13.291696,25.230495 11.500037,31.436501 z"
             style="fill:#404040;"/>
          </a>
         </g>
        </svg>
</svg>
