<?xml version="1.0" encoding="UTF-8" standalone="no"?>
<!DOCTYPE svg PUBLIC "-//W3C//DTD SVG 1.1//EN"
 "http://www.w3.org/Graphics/SVG/1.1/DTD/svg11.dtd">
<!-- Generated by graphviz version 7.0.5 (20221223.1930)
 -->
<!-- Title: rel/d/a/e/d_a_e_cr_egg/d_a_e_cr_egg.cpp Pages: 1 -->
<svg width="2040pt" height="247pt"
 viewBox="0.00 0.00 2040.00 247.00" xmlns="http://www.w3.org/2000/svg" xmlns:xlink="http://www.w3.org/1999/xlink">
<g id="graph0" class="graph" transform="scale(1 1) rotate(0) translate(4 243)">
<title>rel/d/a/e/d_a_e_cr_egg/d_a_e_cr_egg.cpp</title>
<!-- Node1 -->
<g id="node1" class="node">
<title>Node1</title>
<g id="a_node1"><a xlink:title=" ">
<polygon fill="#999999" stroke="#666666" points="976,-239 857,-239 857,-209 976,-209 976,-239"/>
<text text-anchor="start" x="865" y="-227" font-family="Helvetica,sans-Serif" font-size="10.00">rel/d/a/e/d_a_e_cr</text>
<text text-anchor="middle" x="916.5" y="-216" font-family="Helvetica,sans-Serif" font-size="10.00">_egg/d_a_e_cr_egg.cpp</text>
</a>
</g>
</g>
<!-- Node2 -->
<g id="node2" class="node">
<title>Node2</title>
<g id="a_node2"><a xlink:href="d__a__e__cr__egg_8h.html" target="_top" xlink:title=" ">
<polygon fill="white" stroke="#666666" points="109,-162 0,-162 0,-132 109,-132 109,-162"/>
<text text-anchor="start" x="8" y="-150" font-family="Helvetica,sans-Serif" font-size="10.00">rel/d/a/e/d_a_e_cr</text>
<text text-anchor="middle" x="54.5" y="-139" font-family="Helvetica,sans-Serif" font-size="10.00">_egg/d_a_e_cr_egg.h</text>
</a>
</g>
</g>
<!-- Node1&#45;&gt;Node2 -->
<g id="edge1" class="edge">
<title>Node1&#45;&gt;Node2</title>
<path fill="none" stroke="#63b8ff" d="M856.7,-221.43C697.06,-216.89 263.53,-202.16 123.5,-173 115.44,-171.32 107.05,-168.9 99.01,-166.21"/>
<polygon fill="#63b8ff" stroke="#63b8ff" points="100.36,-162.97 89.76,-162.94 98.02,-169.57 100.36,-162.97"/>
</g>
<!-- Node3 -->
<g id="node3" class="node">
<title>Node3</title>
<g id="a_node3"><a xlink:href="types_8h.html" target="_top" xlink:title=" ">
<polygon fill="white" stroke="#666666" points="136,-85 55,-85 55,-66 136,-66 136,-85"/>
<text text-anchor="middle" x="95.5" y="-73" font-family="Helvetica,sans-Serif" font-size="10.00">dolphin/types.h</text>
</a>
</g>
</g>
<!-- Node1&#45;&gt;Node3 -->
<g id="edge5" class="edge">
<title>Node1&#45;&gt;Node3</title>
<path fill="none" stroke="#63b8ff" d="M856.67,-222.13C688.02,-219.26 217.11,-208.15 157.5,-173 142.18,-163.97 118.07,-120.58 104.88,-95.16"/>
<polygon fill="#63b8ff" stroke="#63b8ff" points="108.16,-93.89 100.5,-86.58 101.93,-97.08 108.16,-93.89"/>
</g>
<!-- Node5 -->
<g id="node5" class="node">
<title>Node5</title>
<g id="a_node5"><a xlink:href="dol2asm_8h.html" target="_top" xlink:title=" ">
<polygon fill="white" stroke="#666666" points="227,-156.5 166,-156.5 166,-137.5 227,-137.5 227,-156.5"/>
<text text-anchor="middle" x="196.5" y="-144.5" font-family="Helvetica,sans-Serif" font-size="10.00">dol2asm.h</text>
</a>
</g>
</g>
<!-- Node1&#45;&gt;Node5 -->
<g id="edge4" class="edge">
<title>Node1&#45;&gt;Node5</title>
<path fill="none" stroke="#63b8ff" d="M856.61,-222.27C712.7,-219.94 350.91,-210.41 236.5,-173 229.62,-170.75 222.72,-167.07 216.64,-163.22"/>
<polygon fill="#63b8ff" stroke="#63b8ff" points="218.78,-160.45 208.56,-157.66 214.81,-166.21 218.78,-160.45"/>
</g>
<!-- Node6 -->
<g id="node6" class="node">
<title>Node6</title>
<g id="a_node6"><a xlink:title=" ">
<polygon fill="#e0e0e0" stroke="#999999" points="393.5,-173 245.5,-173 245.5,-121 393.5,-121 393.5,-173"/>
<text text-anchor="start" x="253.5" y="-161" font-family="Helvetica,sans-Serif" font-size="10.00">asm/rel/d/a/e/d_a_e</text>
<text text-anchor="start" x="253.5" y="-150" font-family="Helvetica,sans-Serif" font-size="10.00">_cr_egg/d_a_e_cr_egg</text>
<text text-anchor="start" x="253.5" y="-139" font-family="Helvetica,sans-Serif" font-size="10.00">/daE_CR_EGG_Draw__FP14e</text>
<text text-anchor="middle" x="319.5" y="-128" font-family="Helvetica,sans-Serif" font-size="10.00">_cr_egg_class.s</text>
</a>
</g>
</g>
<!-- Node1&#45;&gt;Node6 -->
<g id="edge6" class="edge">
<title>Node1&#45;&gt;Node6</title>
<path fill="none" stroke="#63b8ff" d="M856.59,-220.97C762.25,-216.94 573.33,-205.53 405.28,-173.38"/>
<polygon fill="#63b8ff" stroke="#63b8ff" points="405.95,-169.95 395.47,-171.47 404.62,-176.82 405.95,-169.95"/>
</g>
<!-- Node7 -->
<g id="node7" class="node">
<title>Node7</title>
<g id="a_node7"><a xlink:title=" ">
<polygon fill="#e0e0e0" stroke="#999999" points="539.5,-173 411.5,-173 411.5,-121 539.5,-121 539.5,-173"/>
<text text-anchor="start" x="419.5" y="-161" font-family="Helvetica,sans-Serif" font-size="10.00">asm/rel/d/a/e/d_a_e</text>
<text text-anchor="start" x="419.5" y="-150" font-family="Helvetica,sans-Serif" font-size="10.00">_cr_egg/d_a_e_cr_egg</text>
<text text-anchor="start" x="419.5" y="-139" font-family="Helvetica,sans-Serif" font-size="10.00">/e_cr_egg_move__FP14e</text>
<text text-anchor="middle" x="475.5" y="-128" font-family="Helvetica,sans-Serif" font-size="10.00">_cr_egg_class.s</text>
</a>
</g>
</g>
<!-- Node1&#45;&gt;Node7 -->
<g id="edge7" class="edge">
<title>Node1&#45;&gt;Node7</title>
<path fill="none" stroke="#63b8ff" d="M856.75,-218.38C785.88,-212.12 664.14,-198.92 550.8,-173.09"/>
<polygon fill="#63b8ff" stroke="#63b8ff" points="551.87,-169.74 541.34,-170.89 550.29,-176.56 551.87,-169.74"/>
</g>
<!-- Node8 -->
<g id="node8" class="node">
<title>Node8</title>
<g id="a_node8"><a xlink:title=" ">
<polygon fill="#e0e0e0" stroke="#999999" points="677,-173 558,-173 558,-121 677,-121 677,-173"/>
<text text-anchor="start" x="566" y="-161" font-family="Helvetica,sans-Serif" font-size="10.00">asm/rel/d/a/e/d_a_e</text>
<text text-anchor="start" x="566" y="-150" font-family="Helvetica,sans-Serif" font-size="10.00">_cr_egg/d_a_e_cr_egg</text>
<text text-anchor="start" x="566" y="-139" font-family="Helvetica,sans-Serif" font-size="10.00">/action__FP14e_cr_egg</text>
<text text-anchor="middle" x="617.5" y="-128" font-family="Helvetica,sans-Serif" font-size="10.00">_class.s</text>
</a>
</g>
</g>
<!-- Node1&#45;&gt;Node8 -->
<g id="edge8" class="edge">
<title>Node1&#45;&gt;Node8</title>
<path fill="none" stroke="#63b8ff" d="M856.87,-212.31C812.67,-203.87 750.84,-190.98 688.08,-173.29"/>
<polygon fill="#63b8ff" stroke="#63b8ff" points="689.21,-169.98 678.63,-170.59 687.28,-176.71 689.21,-169.98"/>
</g>
<!-- Node9 -->
<g id="node9" class="node">
<title>Node9</title>
<g id="a_node9"><a xlink:title=" ">
<polygon fill="#e0e0e0" stroke="#999999" points="821.5,-173 695.5,-173 695.5,-121 821.5,-121 821.5,-173"/>
<text text-anchor="start" x="703.5" y="-161" font-family="Helvetica,sans-Serif" font-size="10.00">asm/rel/d/a/e/d_a_e</text>
<text text-anchor="start" x="703.5" y="-150" font-family="Helvetica,sans-Serif" font-size="10.00">_cr_egg/d_a_e_cr_egg</text>
<text text-anchor="start" x="703.5" y="-139" font-family="Helvetica,sans-Serif" font-size="10.00">/daE_CR_EGG_Execute_</text>
<text text-anchor="middle" x="758.5" y="-128" font-family="Helvetica,sans-Serif" font-size="10.00">_FP14e_cr_egg_class.s</text>
</a>
</g>
</g>
<!-- Node1&#45;&gt;Node9 -->
<g id="edge9" class="edge">
<title>Node1&#45;&gt;Node9</title>
<path fill="none" stroke="#63b8ff" d="M886.04,-208.54C867.92,-199.94 844.25,-188.7 822.22,-178.25"/>
<polygon fill="#63b8ff" stroke="#63b8ff" points="823.81,-175.13 813.28,-174 820.81,-181.45 823.81,-175.13"/>
</g>
<!-- Node10 -->
<g id="node10" class="node">
<title>Node10</title>
<g id="a_node10"><a xlink:title=" ">
<polygon fill="#e0e0e0" stroke="#999999" points="993,-173 840,-173 840,-121 993,-121 993,-173"/>
<text text-anchor="start" x="848" y="-161" font-family="Helvetica,sans-Serif" font-size="10.00">asm/rel/d/a/e/d_a_e</text>
<text text-anchor="start" x="848" y="-150" font-family="Helvetica,sans-Serif" font-size="10.00">_cr_egg/d_a_e_cr_egg</text>
<text text-anchor="start" x="848" y="-139" font-family="Helvetica,sans-Serif" font-size="10.00">/daE_CR_EGG_Delete__FP14e</text>
<text text-anchor="middle" x="916.5" y="-128" font-family="Helvetica,sans-Serif" font-size="10.00">_cr_egg_class.s</text>
</a>
</g>
</g>
<!-- Node1&#45;&gt;Node10 -->
<g id="edge10" class="edge">
<title>Node1&#45;&gt;Node10</title>
<path fill="none" stroke="#63b8ff" d="M916.5,-208.54C916.5,-201.69 916.5,-193.17 916.5,-184.7"/>
<polygon fill="#63b8ff" stroke="#63b8ff" points="920,-184.87 916.5,-174.87 913,-184.87 920,-184.87"/>
</g>
<!-- Node11 -->
<g id="node11" class="node">
<title>Node11</title>
<g id="a_node11"><a xlink:title=" ">
<polygon fill="#e0e0e0" stroke="#999999" points="1142,-173 1011,-173 1011,-121 1142,-121 1142,-173"/>
<text text-anchor="start" x="1019" y="-161" font-family="Helvetica,sans-Serif" font-size="10.00">asm/rel/d/a/e/d_a_e</text>
<text text-anchor="start" x="1019" y="-150" font-family="Helvetica,sans-Serif" font-size="10.00">_cr_egg/d_a_e_cr_egg</text>
<text text-anchor="start" x="1019" y="-139" font-family="Helvetica,sans-Serif" font-size="10.00">/useHeapInit__FP10fopAc</text>
<text text-anchor="middle" x="1076.5" y="-128" font-family="Helvetica,sans-Serif" font-size="10.00">_ac_c.s</text>
</a>
</g>
</g>
<!-- Node1&#45;&gt;Node11 -->
<g id="edge11" class="edge">
<title>Node1&#45;&gt;Node11</title>
<path fill="none" stroke="#63b8ff" d="M947.35,-208.54C965.78,-199.9 989.88,-188.6 1012.27,-178.11"/>
<polygon fill="#63b8ff" stroke="#63b8ff" points="1013.48,-181.41 1021.04,-173.99 1010.5,-175.07 1013.48,-181.41"/>
</g>
<!-- Node12 -->
<g id="node12" class="node">
<title>Node12</title>
<g id="a_node12"><a xlink:title=" ">
<polygon fill="#e0e0e0" stroke="#999999" points="1322.5,-173 1160.5,-173 1160.5,-121 1322.5,-121 1322.5,-173"/>
<text text-anchor="start" x="1168.5" y="-161" font-family="Helvetica,sans-Serif" font-size="10.00">asm/rel/d/a/e/d_a_e</text>
<text text-anchor="start" x="1168.5" y="-150" font-family="Helvetica,sans-Serif" font-size="10.00">_cr_egg/d_a_e_cr_egg</text>
<text text-anchor="start" x="1168.5" y="-139" font-family="Helvetica,sans-Serif" font-size="10.00">/daE_CR_EGG_Create__FP10fop</text>
<text text-anchor="middle" x="1241.5" y="-128" font-family="Helvetica,sans-Serif" font-size="10.00">Ac_ac_c.s</text>
</a>
</g>
</g>
<!-- Node1&#45;&gt;Node12 -->
<g id="edge12" class="edge">
<title>Node1&#45;&gt;Node12</title>
<path fill="none" stroke="#63b8ff" d="M976.13,-211.36C1021.16,-202.34 1084.73,-189.09 1148.97,-173.56"/>
<polygon fill="#63b8ff" stroke="#63b8ff" points="1149.77,-176.97 1158.65,-171.2 1148.11,-170.17 1149.77,-176.97"/>
</g>
<!-- Node13 -->
<g id="node13" class="node">
<title>Node13</title>
<g id="a_node13"><a xlink:title=" ">
<polygon fill="#e0e0e0" stroke="#999999" points="1462.5,-167.5 1340.5,-167.5 1340.5,-126.5 1462.5,-126.5 1462.5,-167.5"/>
<text text-anchor="start" x="1348.5" y="-155.5" font-family="Helvetica,sans-Serif" font-size="10.00">asm/rel/d/a/e/d_a_e</text>
<text text-anchor="start" x="1348.5" y="-144.5" font-family="Helvetica,sans-Serif" font-size="10.00">_cr_egg/d_a_e_cr_egg</text>
<text text-anchor="middle" x="1401.5" y="-133.5" font-family="Helvetica,sans-Serif" font-size="10.00">/__dt__8cM3dGSphFv.s</text>
</a>
</g>
</g>
<!-- Node1&#45;&gt;Node13 -->
<g id="edge13" class="edge">
<title>Node1&#45;&gt;Node13</title>
<path fill="none" stroke="#63b8ff" d="M976.33,-219.99C1057.65,-214.95 1207.18,-202.3 1331.5,-173 1333.81,-172.46 1336.14,-171.86 1338.49,-171.23"/>
<polygon fill="#63b8ff" stroke="#63b8ff" points="1339.45,-174.59 1348.06,-168.42 1337.48,-167.88 1339.45,-174.59"/>
</g>
<!-- Node14 -->
<g id="node14" class="node">
<title>Node14</title>
<g id="a_node14"><a xlink:title=" ">
<polygon fill="#e0e0e0" stroke="#999999" points="1602.5,-167.5 1480.5,-167.5 1480.5,-126.5 1602.5,-126.5 1602.5,-167.5"/>
<text text-anchor="start" x="1488.5" y="-155.5" font-family="Helvetica,sans-Serif" font-size="10.00">asm/rel/d/a/e/d_a_e</text>
<text text-anchor="start" x="1488.5" y="-144.5" font-family="Helvetica,sans-Serif" font-size="10.00">_cr_egg/d_a_e_cr_egg</text>
<text text-anchor="middle" x="1541.5" y="-133.5" font-family="Helvetica,sans-Serif" font-size="10.00">/__dt__8cM3dGAabFv.s</text>
</a>
</g>
</g>
<!-- Node1&#45;&gt;Node14 -->
<g id="edge14" class="edge">
<title>Node1&#45;&gt;Node14</title>
<path fill="none" stroke="#63b8ff" d="M976.39,-222.54C1078.96,-220.67 1294.34,-211.95 1471.5,-173 1474.11,-172.43 1476.75,-171.78 1479.4,-171.09"/>
<polygon fill="#63b8ff" stroke="#63b8ff" points="1480.23,-174.49 1488.87,-168.36 1478.29,-167.76 1480.23,-174.49"/>
</g>
<!-- Node15 -->
<g id="node15" class="node">
<title>Node15</title>
<g id="a_node15"><a xlink:title=" ">
<polygon fill="#e0e0e0" stroke="#999999" points="1766,-167.5 1621,-167.5 1621,-126.5 1766,-126.5 1766,-167.5"/>
<text text-anchor="start" x="1629" y="-155.5" font-family="Helvetica,sans-Serif" font-size="10.00">asm/rel/d/a/e/d_a_e</text>
<text text-anchor="start" x="1629" y="-144.5" font-family="Helvetica,sans-Serif" font-size="10.00">_cr_egg/d_a_e_cr_egg</text>
<text text-anchor="middle" x="1693.5" y="-133.5" font-family="Helvetica,sans-Serif" font-size="10.00">/__dt__12dBgS_ObjAcchFv.s</text>
</a>
</g>
</g>
<!-- Node1&#45;&gt;Node15 -->
<g id="edge15" class="edge">
<title>Node1&#45;&gt;Node15</title>
<path fill="none" stroke="#63b8ff" d="M976.11,-223.19C1097,-222.58 1379.28,-216.19 1611.5,-173 1615.08,-172.33 1618.73,-171.57 1622.4,-170.72"/>
<polygon fill="#63b8ff" stroke="#63b8ff" points="1623.09,-174.16 1631.96,-168.35 1621.41,-167.36 1623.09,-174.16"/>
</g>
<!-- Node16 -->
<g id="node16" class="node">
<title>Node16</title>
<g id="a_node16"><a xlink:title=" ">
<polygon fill="#e0e0e0" stroke="#999999" points="1899,-167.5 1784,-167.5 1784,-126.5 1899,-126.5 1899,-167.5"/>
<text text-anchor="start" x="1792" y="-155.5" font-family="Helvetica,sans-Serif" font-size="10.00">asm/rel/d/a/e/d_a_e</text>
<text text-anchor="start" x="1792" y="-144.5" font-family="Helvetica,sans-Serif" font-size="10.00">_cr_egg/d_a_e_cr_egg</text>
<text text-anchor="middle" x="1841.5" y="-133.5" font-family="Helvetica,sans-Serif" font-size="10.00">/func_8069A8B4.s</text>
</a>
</g>
</g>
<!-- Node1&#45;&gt;Node16 -->
<g id="edge16" class="edge">
<title>Node1&#45;&gt;Node16</title>
<path fill="none" stroke="#63b8ff" d="M976.38,-221.87C1145.19,-218.33 1622.55,-205.62 1775.5,-173 1778.08,-172.45 1780.69,-171.82 1783.31,-171.12"/>
<polygon fill="#63b8ff" stroke="#63b8ff" points="1784.04,-174.55 1792.62,-168.34 1782.04,-167.84 1784.04,-174.55"/>
</g>
<!-- Node17 -->
<g id="node17" class="node">
<title>Node17</title>
<g id="a_node17"><a xlink:title=" ">
<polygon fill="#e0e0e0" stroke="#999999" points="2032,-167.5 1917,-167.5 1917,-126.5 2032,-126.5 2032,-167.5"/>
<text text-anchor="start" x="1925" y="-155.5" font-family="Helvetica,sans-Serif" font-size="10.00">asm/rel/d/a/e/d_a_e</text>
<text text-anchor="start" x="1925" y="-144.5" font-family="Helvetica,sans-Serif" font-size="10.00">_cr_egg/d_a_e_cr_egg</text>
<text text-anchor="middle" x="1974.5" y="-133.5" font-family="Helvetica,sans-Serif" font-size="10.00">/func_8069A8BC.s</text>
</a>
</g>
</g>
<!-- Node1&#45;&gt;Node17 -->
<g id="edge17" class="edge">
<title>Node1&#45;&gt;Node17</title>
<path fill="none" stroke="#63b8ff" d="M976.17,-222.42C1162.04,-220.24 1728.85,-210.58 1908.5,-173 1911.08,-172.46 1913.69,-171.83 1916.31,-171.14"/>
<polygon fill="#63b8ff" stroke="#63b8ff" points="1917.03,-174.58 1925.63,-168.39 1915.05,-167.87 1917.03,-174.58"/>
</g>
<!-- Node2&#45;&gt;Node3 -->
<g id="edge2" class="edge">
<title>Node2&#45;&gt;Node3</title>
<path fill="none" stroke="#63b8ff" d="M63,-131.6C69.25,-120.99 77.81,-106.48 84.58,-95.02"/>
<polygon fill="#63b8ff" stroke="#63b8ff" points="87.54,-96.87 89.61,-86.48 81.52,-93.32 87.54,-96.87"/>
</g>
<!-- Node4 -->
<g id="node4" class="node">
<title>Node4</title>
<g id="a_node4"><a xlink:href="stddef_8h.html" target="_top" xlink:title=" ">
<polygon fill="white" stroke="#666666" points="163.5,-30 27.5,-30 27.5,0 163.5,0 163.5,-30"/>
<text text-anchor="start" x="35.5" y="-18" font-family="Helvetica,sans-Serif" font-size="10.00">MSL_C/MSL_Common/Src</text>
<text text-anchor="middle" x="95.5" y="-7" font-family="Helvetica,sans-Serif" font-size="10.00">/stddef.h</text>
</a>
</g>
</g>
<!-- Node3&#45;&gt;Node4 -->
<g id="edge3" class="edge">
<title>Node3&#45;&gt;Node4</title>
<path fill="none" stroke="#63b8ff" d="M95.5,-65.87C95.5,-59.4 95.5,-50.2 95.5,-41.45"/>
<polygon fill="#63b8ff" stroke="#63b8ff" points="99,-41.63 95.5,-31.63 92,-41.63 99,-41.63"/>
</g>
</g>
</svg>
