<?xml version="1.0" encoding="UTF-8" standalone="no"?>
<!DOCTYPE svg PUBLIC "-//W3C//DTD SVG 1.1//EN"
 "http://www.w3.org/Graphics/SVG/1.1/DTD/svg11.dtd">
<!-- Generated by graphviz version 7.0.5 (20221223.1930)
 -->
<!-- Title: rel/d/a/obj/d_a_obj_lv4gear/d_a_obj_lv4gear.cpp Pages: 1 -->
<!--zoomable 247 -->
<svg id="main" version="1.1" xmlns="http://www.w3.org/2000/svg" xmlns:xlink="http://www.w3.org/1999/xlink" xml:space="preserve" onload="init(evt)">
<style type="text/css"><![CDATA[
.edge:hover path { stroke: red; }
.edge:hover polygon { stroke: red; fill: red; }
]]></style>
<script type="text/javascript"><![CDATA[
var edges = document.getElementsByTagName('g');
if (edges && edges.length) {
  for (var i=0;i<edges.length;i++) {
    if (edges[i].id.substr(0,4)=='edge') {
      edges[i].setAttribute('class','edge');
    }
  }
}
]]></script>
        <defs>
                <circle id="rim" cx="0" cy="0" r="7"/>
                <circle id="rim2" cx="0" cy="0" r="3.5"/>
                <g id="zoomPlus">
                        <use xlink:href="#rim" fill="#404040">
                                <set attributeName="fill" to="#808080" begin="zoomplus.mouseover" end="zoomplus.mouseout"/>
                        </use>
                        <path d="M-4,0h8M0,-4v8" fill="none" stroke="white" stroke-width="1.5" pointer-events="none"/>
                </g>
                <g id="zoomMin">
                        <use xlink:href="#rim" fill="#404040">
                                <set attributeName="fill" to="#808080" begin="zoomminus.mouseover" end="zoomminus.mouseout"/>
                        </use>
                        <path d="M-4,0h8" fill="none" stroke="white" stroke-width="1.5" pointer-events="none"/>
                </g>
                <g id="dirArrow">
                        <path fill="none" stroke="white" stroke-width="1.5" d="M0,-3.0v7 M-2.5,-0.5L0,-3.0L2.5,-0.5"/>
                </g>
               <g id="resetDef">
                       <use xlink:href="#rim2" fill="#404040">
                               <set attributeName="fill" to="#808080" begin="reset.mouseover" end="reset.mouseout"/>
                       </use>
               </g>
        </defs>

<script type="text/javascript">
var viewWidth = 2602;
var viewHeight = 247;
var sectionId = 'dynsection-0';
</script>
<script xlink:href="svgpan.js"/>
<svg id="graph" class="graph">
<g id="viewport">
<title>rel/d/a/obj/d_a_obj_lv4gear/d_a_obj_lv4gear.cpp</title>
<!-- Node1 -->
<g id="node1" class="node">
<title>Node1</title>
<g id="a_node1"><a xlink:title=" ">
<polygon fill="#999999" stroke="#666666" points="1173.5,-239 1028.5,-239 1028.5,-209 1173.5,-209 1173.5,-239"/>
<text text-anchor="start" x="1036.5" y="-227" font-family="Helvetica,sans-Serif" font-size="10.00">rel/d/a/obj/d_a_obj</text>
<text text-anchor="middle" x="1101" y="-216" font-family="Helvetica,sans-Serif" font-size="10.00">_lv4gear/d_a_obj_lv4gear.cpp</text>
</a>
</g>
</g>
<!-- Node2 -->
<g id="node2" class="node">
<title>Node2</title>
<g id="a_node2"><a xlink:href="d__a__obj__lv4gear_8h.html" target="_top" xlink:title=" ">
<polygon fill="white" stroke="#666666" points="134,-162 0,-162 0,-132 134,-132 134,-162"/>
<text text-anchor="start" x="8" y="-150" font-family="Helvetica,sans-Serif" font-size="10.00">rel/d/a/obj/d_a_obj</text>
<text text-anchor="middle" x="67" y="-139" font-family="Helvetica,sans-Serif" font-size="10.00">_lv4gear/d_a_obj_lv4gear.h</text>
</a>
</g>
</g>
<!-- Node1&#45;&gt;Node2 -->
<g id="edge1" class="edge">
<title>Node1&#45;&gt;Node2</title>
<path fill="none" stroke="#63b8ff" d="M1028.18,-221.5C835.73,-217.18 316.83,-203.01 148,-173 138.1,-171.24 127.72,-168.64 117.82,-165.77"/>
<polygon fill="#63b8ff" stroke="#63b8ff" points="118.93,-162.45 108.34,-162.9 116.89,-169.15 118.93,-162.45"/>
</g>
<!-- Node3 -->
<g id="node3" class="node">
<title>Node3</title>
<g id="a_node3"><a xlink:href="types_8h.html" target="_top" xlink:title=" ">
<polygon fill="white" stroke="#666666" points="154.5,-85 73.5,-85 73.5,-66 154.5,-66 154.5,-85"/>
<text text-anchor="middle" x="114" y="-73" font-family="Helvetica,sans-Serif" font-size="10.00">dolphin/types.h</text>
</a>
</g>
</g>
<!-- Node1&#45;&gt;Node3 -->
<g id="edge5" class="edge">
<title>Node1&#45;&gt;Node3</title>
<path fill="none" stroke="#63b8ff" d="M1028.3,-222.66C824.06,-221.21 255.21,-213.54 182,-173 177.89,-170.72 144.71,-122.1 126.27,-94.76"/>
<polygon fill="#63b8ff" stroke="#63b8ff" points="129.34,-93.07 120.86,-86.73 123.54,-96.98 129.34,-93.07"/>
</g>
<!-- Node5 -->
<g id="node5" class="node">
<title>Node5</title>
<g id="a_node5"><a xlink:href="dol2asm_8h.html" target="_top" xlink:title=" ">
<polygon fill="white" stroke="#666666" points="251.5,-156.5 190.5,-156.5 190.5,-137.5 251.5,-137.5 251.5,-156.5"/>
<text text-anchor="middle" x="221" y="-144.5" font-family="Helvetica,sans-Serif" font-size="10.00">dol2asm.h</text>
</a>
</g>
</g>
<!-- Node1&#45;&gt;Node5 -->
<g id="edge4" class="edge">
<title>Node1&#45;&gt;Node5</title>
<path fill="none" stroke="#63b8ff" d="M1028.03,-223.26C850.98,-223.15 402.78,-218.26 261,-173 254.1,-170.8 247.2,-167.14 241.12,-163.28"/>
<polygon fill="#63b8ff" stroke="#63b8ff" points="243.26,-160.51 233.04,-157.71 239.28,-166.27 243.26,-160.51"/>
</g>
<!-- Node6 -->
<g id="node6" class="node">
<title>Node6</title>
<g id="a_node6"><a xlink:title=" ">
<polygon fill="#e0e0e0" stroke="#999999" points="406,-173 270,-173 270,-121 406,-121 406,-173"/>
<text text-anchor="start" x="278" y="-161" font-family="Helvetica,sans-Serif" font-size="10.00">asm/rel/d/a/obj/d_a</text>
<text text-anchor="start" x="278" y="-150" font-family="Helvetica,sans-Serif" font-size="10.00">_obj_lv4gear/d_a_obj</text>
<text text-anchor="start" x="278" y="-139" font-family="Helvetica,sans-Serif" font-size="10.00">_lv4gear/CheckCreateHeap</text>
<text text-anchor="middle" x="338" y="-128" font-family="Helvetica,sans-Serif" font-size="10.00">__FP10fopAc_ac_c.s</text>
</a>
</g>
</g>
<!-- Node1&#45;&gt;Node6 -->
<g id="edge6" class="edge">
<title>Node1&#45;&gt;Node6</title>
<path fill="none" stroke="#63b8ff" d="M1028.01,-223.32C904.02,-222.64 644.46,-215.87 417.38,-173.02"/>
<polygon fill="#63b8ff" stroke="#63b8ff" points="418.21,-169.61 407.73,-171.17 416.89,-176.49 418.21,-169.61"/>
</g>
<!-- Node7 -->
<g id="node7" class="node">
<title>Node7</title>
<g id="a_node7"><a xlink:title=" ">
<polygon fill="#e0e0e0" stroke="#999999" points="561.5,-173 424.5,-173 424.5,-121 561.5,-121 561.5,-173"/>
<text text-anchor="start" x="432.5" y="-161" font-family="Helvetica,sans-Serif" font-size="10.00">asm/rel/d/a/obj/d_a</text>
<text text-anchor="start" x="432.5" y="-150" font-family="Helvetica,sans-Serif" font-size="10.00">_obj_lv4gear/d_a_obj</text>
<text text-anchor="start" x="432.5" y="-139" font-family="Helvetica,sans-Serif" font-size="10.00">_lv4gear/searchSwSpinSub</text>
<text text-anchor="middle" x="493" y="-128" font-family="Helvetica,sans-Serif" font-size="10.00">__FPvPv.s</text>
</a>
</g>
</g>
<!-- Node1&#45;&gt;Node7 -->
<g id="edge7" class="edge">
<title>Node1&#45;&gt;Node7</title>
<path fill="none" stroke="#63b8ff" d="M1028.26,-221.1C927.7,-217.38 740.61,-206.52 572.96,-173.18"/>
<polygon fill="#63b8ff" stroke="#63b8ff" points="573.67,-169.76 563.17,-171.2 572.28,-176.62 573.67,-169.76"/>
</g>
<!-- Node8 -->
<g id="node8" class="node">
<title>Node8</title>
<g id="a_node8"><a xlink:title=" ">
<polygon fill="#e0e0e0" stroke="#999999" points="710,-173 580,-173 580,-121 710,-121 710,-173"/>
<text text-anchor="start" x="588" y="-161" font-family="Helvetica,sans-Serif" font-size="10.00">asm/rel/d/a/obj/d_a</text>
<text text-anchor="start" x="588" y="-150" font-family="Helvetica,sans-Serif" font-size="10.00">_obj_lv4gear/d_a_obj</text>
<text text-anchor="start" x="588" y="-139" font-family="Helvetica,sans-Serif" font-size="10.00">_lv4gear/initBaseMtx</text>
<text text-anchor="middle" x="645" y="-128" font-family="Helvetica,sans-Serif" font-size="10.00">__14daObjLv4Gear_cFv.s</text>
</a>
</g>
</g>
<!-- Node1&#45;&gt;Node8 -->
<g id="edge8" class="edge">
<title>Node1&#45;&gt;Node8</title>
<path fill="none" stroke="#63b8ff" d="M1028.29,-217.62C953.56,-211.16 833.84,-198.21 721.44,-173.11"/>
<polygon fill="#63b8ff" stroke="#63b8ff" points="722.24,-169.7 711.71,-170.9 720.69,-176.53 722.24,-169.7"/>
</g>
<!-- Node9 -->
<g id="node9" class="node">
<title>Node9</title>
<g id="a_node9"><a xlink:title=" ">
<polygon fill="#e0e0e0" stroke="#999999" points="853.5,-173 728.5,-173 728.5,-121 853.5,-121 853.5,-173"/>
<text text-anchor="start" x="736.5" y="-161" font-family="Helvetica,sans-Serif" font-size="10.00">asm/rel/d/a/obj/d_a</text>
<text text-anchor="start" x="736.5" y="-150" font-family="Helvetica,sans-Serif" font-size="10.00">_obj_lv4gear/d_a_obj</text>
<text text-anchor="start" x="736.5" y="-139" font-family="Helvetica,sans-Serif" font-size="10.00">_lv4gear/setBaseMtx_</text>
<text text-anchor="middle" x="791" y="-128" font-family="Helvetica,sans-Serif" font-size="10.00">_14daObjLv4Gear_cFv.s</text>
</a>
</g>
</g>
<!-- Node1&#45;&gt;Node9 -->
<g id="edge9" class="edge">
<title>Node1&#45;&gt;Node9</title>
<path fill="none" stroke="#63b8ff" d="M1028.03,-210.16C983.32,-201.72 924.8,-189.64 864.55,-173.28"/>
<polygon fill="#63b8ff" stroke="#63b8ff" points="865.71,-169.97 855.14,-170.69 863.85,-176.72 865.71,-169.97"/>
</g>
<!-- Node10 -->
<g id="node10" class="node">
<title>Node10</title>
<g id="a_node10"><a xlink:title=" ">
<polygon fill="#e0e0e0" stroke="#999999" points="1020,-173 872,-173 872,-121 1020,-121 1020,-173"/>
<text text-anchor="start" x="880" y="-161" font-family="Helvetica,sans-Serif" font-size="10.00">asm/rel/d/a/obj/d_a</text>
<text text-anchor="start" x="880" y="-150" font-family="Helvetica,sans-Serif" font-size="10.00">_obj_lv4gear/d_a_obj</text>
<text text-anchor="start" x="880" y="-139" font-family="Helvetica,sans-Serif" font-size="10.00">_lv4gear/Create__14daObjLv4</text>
<text text-anchor="middle" x="946" y="-128" font-family="Helvetica,sans-Serif" font-size="10.00">Gear_cFv.s</text>
</a>
</g>
</g>
<!-- Node1&#45;&gt;Node10 -->
<g id="edge10" class="edge">
<title>Node1&#45;&gt;Node10</title>
<path fill="none" stroke="#63b8ff" d="M1071.11,-208.54C1053.34,-199.94 1030.12,-188.7 1008.51,-178.25"/>
<polygon fill="#63b8ff" stroke="#63b8ff" points="1010.28,-175.22 999.76,-174.01 1007.23,-181.52 1010.28,-175.22"/>
</g>
<!-- Node11 -->
<g id="node11" class="node">
<title>Node11</title>
<g id="a_node11"><a xlink:title=" ">
<polygon fill="#e0e0e0" stroke="#999999" points="1163.5,-173 1038.5,-173 1038.5,-121 1163.5,-121 1163.5,-173"/>
<text text-anchor="start" x="1046.5" y="-161" font-family="Helvetica,sans-Serif" font-size="10.00">asm/rel/d/a/obj/d_a</text>
<text text-anchor="start" x="1046.5" y="-150" font-family="Helvetica,sans-Serif" font-size="10.00">_obj_lv4gear/d_a_obj</text>
<text text-anchor="start" x="1046.5" y="-139" font-family="Helvetica,sans-Serif" font-size="10.00">_lv4gear/CreateHeap_</text>
<text text-anchor="middle" x="1101" y="-128" font-family="Helvetica,sans-Serif" font-size="10.00">_14daObjLv4Gear_cFv.s</text>
</a>
</g>
</g>
<!-- Node1&#45;&gt;Node11 -->
<g id="edge11" class="edge">
<title>Node1&#45;&gt;Node11</title>
<path fill="none" stroke="#63b8ff" d="M1101,-208.54C1101,-201.69 1101,-193.17 1101,-184.7"/>
<polygon fill="#63b8ff" stroke="#63b8ff" points="1104.5,-184.87 1101,-174.87 1097.5,-184.87 1104.5,-184.87"/>
</g>
<!-- Node12 -->
<g id="node12" class="node">
<title>Node12</title>
<g id="a_node12"><a xlink:title=" ">
<polygon fill="#e0e0e0" stroke="#999999" points="1312.5,-167.5 1181.5,-167.5 1181.5,-126.5 1312.5,-126.5 1312.5,-167.5"/>
<text text-anchor="start" x="1189.5" y="-155.5" font-family="Helvetica,sans-Serif" font-size="10.00">asm/rel/d/a/obj/d_a</text>
<text text-anchor="start" x="1189.5" y="-144.5" font-family="Helvetica,sans-Serif" font-size="10.00">_obj_lv4gear/d_a_obj</text>
<text text-anchor="middle" x="1247" y="-133.5" font-family="Helvetica,sans-Serif" font-size="10.00">_lv4gear/func_80C68124.s</text>
</a>
</g>
</g>
<!-- Node1&#45;&gt;Node12 -->
<g id="edge12" class="edge">
<title>Node1&#45;&gt;Node12</title>
<path fill="none" stroke="#63b8ff" d="M1129.15,-208.54C1148.62,-198.54 1175.05,-184.96 1197.94,-173.2"/>
<polygon fill="#63b8ff" stroke="#63b8ff" points="1199.53,-176.32 1206.83,-168.64 1196.33,-170.09 1199.53,-176.32"/>
</g>
<!-- Node13 -->
<g id="node13" class="node">
<title>Node13</title>
<g id="a_node13"><a xlink:title=" ">
<polygon fill="#e0e0e0" stroke="#999999" points="1483.5,-173 1330.5,-173 1330.5,-121 1483.5,-121 1483.5,-173"/>
<text text-anchor="start" x="1338.5" y="-161" font-family="Helvetica,sans-Serif" font-size="10.00">asm/rel/d/a/obj/d_a</text>
<text text-anchor="start" x="1338.5" y="-150" font-family="Helvetica,sans-Serif" font-size="10.00">_obj_lv4gear/d_a_obj</text>
<text text-anchor="start" x="1338.5" y="-139" font-family="Helvetica,sans-Serif" font-size="10.00">_lv4gear/execute__14daObjLv4</text>
<text text-anchor="middle" x="1407" y="-128" font-family="Helvetica,sans-Serif" font-size="10.00">Gear_cFv.s</text>
</a>
</g>
</g>
<!-- Node1&#45;&gt;Node13 -->
<g id="edge13" class="edge">
<title>Node1&#45;&gt;Node13</title>
<path fill="none" stroke="#63b8ff" d="M1169.96,-208.58C1210.96,-199.73 1264.21,-187.77 1319.14,-173.69"/>
<polygon fill="#63b8ff" stroke="#63b8ff" points="1319.88,-177.11 1328.68,-171.22 1318.13,-170.33 1319.88,-177.11"/>
</g>
<!-- Node14 -->
<g id="node14" class="node">
<title>Node14</title>
<g id="a_node14"><a xlink:title=" ">
<polygon fill="#e0e0e0" stroke="#999999" points="1692.5,-167.5 1501.5,-167.5 1501.5,-126.5 1692.5,-126.5 1692.5,-167.5"/>
<text text-anchor="start" x="1509.5" y="-155.5" font-family="Helvetica,sans-Serif" font-size="10.00">asm/rel/d/a/obj/d_a</text>
<text text-anchor="start" x="1509.5" y="-144.5" font-family="Helvetica,sans-Serif" font-size="10.00">_obj_lv4gear/d_a_obj</text>
<text text-anchor="middle" x="1597" y="-133.5" font-family="Helvetica,sans-Serif" font-size="10.00">_lv4gear/draw__14daObjLv4Gear_cFv.s</text>
</a>
</g>
</g>
<!-- Node1&#45;&gt;Node14 -->
<g id="edge14" class="edge">
<title>Node1&#45;&gt;Node14</title>
<path fill="none" stroke="#63b8ff" d="M1173.98,-216.1C1252.97,-208.06 1382.5,-193.27 1493,-173 1497.57,-172.16 1502.24,-171.25 1506.95,-170.28"/>
<polygon fill="#63b8ff" stroke="#63b8ff" points="1507.44,-173.76 1516.5,-168.26 1505.99,-166.91 1507.44,-173.76"/>
</g>
<!-- Node15 -->
<g id="node15" class="node">
<title>Node15</title>
<g id="a_node15"><a xlink:title=" ">
<polygon fill="#e0e0e0" stroke="#999999" points="1861.5,-173 1710.5,-173 1710.5,-121 1861.5,-121 1861.5,-173"/>
<text text-anchor="start" x="1718.5" y="-161" font-family="Helvetica,sans-Serif" font-size="10.00">asm/rel/d/a/obj/d_a</text>
<text text-anchor="start" x="1718.5" y="-150" font-family="Helvetica,sans-Serif" font-size="10.00">_obj_lv4gear/d_a_obj</text>
<text text-anchor="start" x="1718.5" y="-139" font-family="Helvetica,sans-Serif" font-size="10.00">_lv4gear/_delete__14daObjLv4</text>
<text text-anchor="middle" x="1786" y="-128" font-family="Helvetica,sans-Serif" font-size="10.00">Gear_cFv.s</text>
</a>
</g>
</g>
<!-- Node1&#45;&gt;Node15 -->
<g id="edge15" class="edge">
<title>Node1&#45;&gt;Node15</title>
<path fill="none" stroke="#63b8ff" d="M1173.81,-221.77C1285.34,-218.83 1505.13,-208.85 1698.91,-173.42"/>
<polygon fill="#63b8ff" stroke="#63b8ff" points="1699.49,-176.88 1708.68,-171.61 1698.21,-170 1699.49,-176.88"/>
</g>
<!-- Node16 -->
<g id="node16" class="node">
<title>Node16</title>
<g id="a_node16"><a xlink:title=" ">
<polygon fill="#e0e0e0" stroke="#999999" points="2038.5,-173 1879.5,-173 1879.5,-121 2038.5,-121 2038.5,-173"/>
<text text-anchor="start" x="1887.5" y="-161" font-family="Helvetica,sans-Serif" font-size="10.00">asm/rel/d/a/obj/d_a</text>
<text text-anchor="start" x="1887.5" y="-150" font-family="Helvetica,sans-Serif" font-size="10.00">_obj_lv4gear/d_a_obj</text>
<text text-anchor="start" x="1887.5" y="-139" font-family="Helvetica,sans-Serif" font-size="10.00">_lv4gear/daObjLv4Gear</text>
<text text-anchor="middle" x="1959" y="-128" font-family="Helvetica,sans-Serif" font-size="10.00">_Draw__FP14daObjLv4Gear_c.s</text>
</a>
</g>
</g>
<!-- Node1&#45;&gt;Node16 -->
<g id="edge16" class="edge">
<title>Node1&#45;&gt;Node16</title>
<path fill="none" stroke="#63b8ff" d="M1173.79,-223.39C1309.2,-222.99 1608.89,-216.9 1867.93,-173.38"/>
<polygon fill="#63b8ff" stroke="#63b8ff" points="1868.31,-176.87 1877.58,-171.74 1867.13,-169.97 1868.31,-176.87"/>
</g>
<!-- Node17 -->
<g id="node17" class="node">
<title>Node17</title>
<g id="a_node17"><a xlink:title=" ">
<polygon fill="#e0e0e0" stroke="#999999" points="2227.5,-173 2056.5,-173 2056.5,-121 2227.5,-121 2227.5,-173"/>
<text text-anchor="start" x="2064.5" y="-161" font-family="Helvetica,sans-Serif" font-size="10.00">asm/rel/d/a/obj/d_a</text>
<text text-anchor="start" x="2064.5" y="-150" font-family="Helvetica,sans-Serif" font-size="10.00">_obj_lv4gear/d_a_obj</text>
<text text-anchor="start" x="2064.5" y="-139" font-family="Helvetica,sans-Serif" font-size="10.00">_lv4gear/daObjLv4Gear</text>
<text text-anchor="middle" x="2142" y="-128" font-family="Helvetica,sans-Serif" font-size="10.00">_Execute__FP14daObjLv4Gear_c.s</text>
</a>
</g>
</g>
<!-- Node1&#45;&gt;Node17 -->
<g id="edge17" class="edge">
<title>Node1&#45;&gt;Node17</title>
<path fill="none" stroke="#63b8ff" d="M1174,-221.1C1361.71,-215.92 1858.92,-200.17 2044.83,-173.31"/>
<polygon fill="#63b8ff" stroke="#63b8ff" points="2045.23,-176.79 2054.6,-171.84 2044.19,-169.87 2045.23,-176.79"/>
</g>
<!-- Node18 -->
<g id="node18" class="node">
<title>Node18</title>
<g id="a_node18"><a xlink:title=" ">
<polygon fill="#e0e0e0" stroke="#999999" points="2410,-173 2246,-173 2246,-121 2410,-121 2410,-173"/>
<text text-anchor="start" x="2254" y="-161" font-family="Helvetica,sans-Serif" font-size="10.00">asm/rel/d/a/obj/d_a</text>
<text text-anchor="start" x="2254" y="-150" font-family="Helvetica,sans-Serif" font-size="10.00">_obj_lv4gear/d_a_obj</text>
<text text-anchor="start" x="2254" y="-139" font-family="Helvetica,sans-Serif" font-size="10.00">_lv4gear/daObjLv4Gear</text>
<text text-anchor="middle" x="2328" y="-128" font-family="Helvetica,sans-Serif" font-size="10.00">_Delete__FP14daObjLv4Gear_c.s</text>
</a>
</g>
</g>
<!-- Node1&#45;&gt;Node18 -->
<g id="edge18" class="edge">
<title>Node1&#45;&gt;Node18</title>
<path fill="none" stroke="#63b8ff" d="M1173.73,-221.93C1387.07,-218.45 2009.75,-205.85 2234.79,-173.13"/>
<polygon fill="#63b8ff" stroke="#63b8ff" points="2234.98,-176.64 2244.34,-171.68 2233.93,-169.72 2234.98,-176.64"/>
</g>
<!-- Node19 -->
<g id="node19" class="node">
<title>Node19</title>
<g id="a_node19"><a xlink:title=" ">
<polygon fill="#e0e0e0" stroke="#999999" points="2593.5,-173 2428.5,-173 2428.5,-121 2593.5,-121 2593.5,-173"/>
<text text-anchor="start" x="2436.5" y="-161" font-family="Helvetica,sans-Serif" font-size="10.00">asm/rel/d/a/obj/d_a</text>
<text text-anchor="start" x="2436.5" y="-150" font-family="Helvetica,sans-Serif" font-size="10.00">_obj_lv4gear/d_a_obj</text>
<text text-anchor="start" x="2436.5" y="-139" font-family="Helvetica,sans-Serif" font-size="10.00">_lv4gear/daObjLv4Gear</text>
<text text-anchor="middle" x="2511" y="-128" font-family="Helvetica,sans-Serif" font-size="10.00">_Create__FP14daObjLv4Gear_c.s</text>
</a>
</g>
</g>
<!-- Node1&#45;&gt;Node19 -->
<g id="edge19" class="edge">
<title>Node1&#45;&gt;Node19</title>
<path fill="none" stroke="#63b8ff" d="M1173.7,-222.42C1409.81,-220.19 2154.45,-210.42 2417.17,-173.06"/>
<polygon fill="#63b8ff" stroke="#63b8ff" points="2417.31,-176.58 2426.69,-171.65 2416.29,-169.65 2417.31,-176.58"/>
</g>
<!-- Node2&#45;&gt;Node3 -->
<g id="edge2" class="edge">
<title>Node2&#45;&gt;Node3</title>
<path fill="none" stroke="#63b8ff" d="M76.74,-131.6C83.98,-120.88 93.93,-106.18 101.72,-94.66"/>
<polygon fill="#63b8ff" stroke="#63b8ff" points="104.58,-96.68 107.28,-86.43 98.78,-92.76 104.58,-96.68"/>
</g>
<!-- Node4 -->
<g id="node4" class="node">
<title>Node4</title>
<g id="a_node4"><a xlink:href="stddef_8h.html" target="_top" xlink:title=" ">
<polygon fill="white" stroke="#666666" points="182,-30 46,-30 46,0 182,0 182,-30"/>
<text text-anchor="start" x="54" y="-18" font-family="Helvetica,sans-Serif" font-size="10.00">MSL_C/MSL_Common/Src</text>
<text text-anchor="middle" x="114" y="-7" font-family="Helvetica,sans-Serif" font-size="10.00">/stddef.h</text>
</a>
</g>
</g>
<!-- Node3&#45;&gt;Node4 -->
<g id="edge3" class="edge">
<title>Node3&#45;&gt;Node4</title>
<path fill="none" stroke="#63b8ff" d="M114,-65.87C114,-59.4 114,-50.2 114,-41.45"/>
<polygon fill="#63b8ff" stroke="#63b8ff" points="117.5,-41.63 114,-31.63 110.5,-41.63 117.5,-41.63"/>
</g>
</g>
</svg>
        <g id="navigator" transform="translate(0 0)" fill="#404254">
                <rect fill="#f2f5e9" fill-opacity="0.5" stroke="#606060" stroke-width=".5" x="0" y="0" width="60" height="60"/>
                <use id="zoomplus" xlink:href="#zoomPlus" x="17" y="9" onmousedown="handleZoom(evt,'in')"/>
                <use id="zoomminus" xlink:href="#zoomMin" x="42" y="9" onmousedown="handleZoom(evt,'out')"/>
                <use id="reset" xlink:href="#resetDef" x="30" y="36" onmousedown="handleReset()"/>
                <g id="arrowUp" xlink:href="#dirArrow" transform="translate(30 24)" onmousedown="handlePan(0,-1)">
                  <use xlink:href="#rim" fill="#404040">
                        <set attributeName="fill" to="#808080" begin="arrowUp.mouseover" end="arrowUp.mouseout"/>
                  </use>
                  <path fill="none" stroke="white" stroke-width="1.5" d="M0,-3.0v7 M-2.5,-0.5L0,-3.0L2.5,-0.5"/>
                </g>
                <g id="arrowRight" xlink:href="#dirArrow" transform="rotate(90) translate(36 -43)" onmousedown="handlePan(1,0)">
                  <use xlink:href="#rim" fill="#404040">
                        <set attributeName="fill" to="#808080" begin="arrowRight.mouseover" end="arrowRight.mouseout"/>
                  </use>
                  <path fill="none" stroke="white" stroke-width="1.5" d="M0,-3.0v7 M-2.5,-0.5L0,-3.0L2.5,-0.5"/>
                </g>
                <g id="arrowDown" xlink:href="#dirArrow" transform="rotate(180) translate(-30 -48)" onmousedown="handlePan(0,1)">
                  <use xlink:href="#rim" fill="#404040">
                        <set attributeName="fill" to="#808080" begin="arrowDown.mouseover" end="arrowDown.mouseout"/>
                  </use>
                  <path fill="none" stroke="white" stroke-width="1.5" d="M0,-3.0v7 M-2.5,-0.5L0,-3.0L2.5,-0.5"/>
                </g>
                <g id="arrowLeft" xlink:href="#dirArrow" transform="rotate(270) translate(-36 17)" onmousedown="handlePan(-1,0)">
                  <use xlink:href="#rim" fill="#404040">
                        <set attributeName="fill" to="#808080" begin="arrowLeft.mouseover" end="arrowLeft.mouseout"/>
                  </use>
                  <path fill="none" stroke="white" stroke-width="1.5" d="M0,-3.0v7 M-2.5,-0.5L0,-3.0L2.5,-0.5"/>
                </g>
        </g>
        <svg viewBox="0 0 15 15" width="100%" height="30px" preserveAspectRatio="xMaxYMin meet">
         <g id="arrow_out" transform="scale(0.3 0.3)">
          <a xlink:href="d__a__obj__lv4gear_8cpp__incl_org.svg" target="_base">
           <rect id="button" ry="5" rx="5" y="6" x="6" height="38" width="38"
                fill="#f2f5e9" fill-opacity="0.5" stroke="#606060" stroke-width="1.0"/>
           <path id="arrow"
             d="M 11.500037,31.436501 C 11.940474,20.09759 22.043105,11.32322 32.158766,21.979434 L 37.068811,17.246167 C 37.068811,17.246167 37.088388,32 37.088388,32 L 22.160133,31.978069 C 22.160133,31.978069 26.997745,27.140456 26.997745,27.140456 C 18.528582,18.264221 13.291696,25.230495 11.500037,31.436501 z"
             style="fill:#404040;"/>
          </a>
         </g>
        </svg>
</svg>
