<?xml version="1.0" encoding="UTF-8" standalone="no"?>
<!DOCTYPE svg PUBLIC "-//W3C//DTD SVG 1.1//EN"
 "http://www.w3.org/Graphics/SVG/1.1/DTD/svg11.dtd">
<!-- Generated by graphviz version 7.0.5 (20221223.1930)
 -->
<!-- Title: rel/d/a/e/d_a_e_st_line/d_a_e_st_line.cpp Pages: 1 -->
<svg width="867pt" height="247pt"
 viewBox="0.00 0.00 867.00 247.00" xmlns="http://www.w3.org/2000/svg" xmlns:xlink="http://www.w3.org/1999/xlink">
<g id="graph0" class="graph" transform="scale(1 1) rotate(0) translate(4 243)">
<title>rel/d/a/e/d_a_e_st_line/d_a_e_st_line.cpp</title>
<!-- Node1 -->
<g id="node1" class="node">
<title>Node1</title>
<g id="a_node1"><a xlink:title=" ">
<polygon fill="#999999" stroke="#666666" points="358.5,-239 240.5,-239 240.5,-209 358.5,-209 358.5,-239"/>
<text text-anchor="start" x="248.5" y="-227" font-family="Helvetica,sans-Serif" font-size="10.00">rel/d/a/e/d_a_e_st</text>
<text text-anchor="middle" x="299.5" y="-216" font-family="Helvetica,sans-Serif" font-size="10.00">_line/d_a_e_st_line.cpp</text>
</a>
</g>
</g>
<!-- Node2 -->
<g id="node2" class="node">
<title>Node2</title>
<g id="a_node2"><a xlink:href="d__a__e__st__line_8h.html" target="_top" xlink:title=" ">
<polygon fill="white" stroke="#666666" points="107,-162 0,-162 0,-132 107,-132 107,-162"/>
<text text-anchor="start" x="8" y="-150" font-family="Helvetica,sans-Serif" font-size="10.00">rel/d/a/e/d_a_e_st</text>
<text text-anchor="middle" x="53.5" y="-139" font-family="Helvetica,sans-Serif" font-size="10.00">_line/d_a_e_st_line.h</text>
</a>
</g>
</g>
<!-- Node1&#45;&gt;Node2 -->
<g id="edge1" class="edge">
<title>Node1&#45;&gt;Node2</title>
<path fill="none" stroke="#63b8ff" d="M243.84,-208.57C208.57,-199.13 162.12,-186.15 121.5,-173 114.98,-170.89 108.16,-168.55 101.46,-166.16"/>
<polygon fill="#63b8ff" stroke="#63b8ff" points="103.1,-163.04 92.51,-162.93 100.72,-169.62 103.1,-163.04"/>
</g>
<!-- Node3 -->
<g id="node3" class="node">
<title>Node3</title>
<g id="a_node3"><a xlink:href="types_8h.html" target="_top" xlink:title=" ">
<polygon fill="white" stroke="#666666" points="135,-85 54,-85 54,-66 135,-66 135,-85"/>
<text text-anchor="middle" x="94.5" y="-73" font-family="Helvetica,sans-Serif" font-size="10.00">dolphin/types.h</text>
</a>
</g>
</g>
<!-- Node1&#45;&gt;Node3 -->
<g id="edge5" class="edge">
<title>Node1&#45;&gt;Node3</title>
<path fill="none" stroke="#63b8ff" d="M240.05,-211.9C212.2,-204.44 179.86,-192.33 155.5,-173 141.77,-162.1 117.88,-120.19 104.44,-95.32"/>
<polygon fill="#63b8ff" stroke="#63b8ff" points="107.58,-93.78 99.78,-86.61 101.41,-97.08 107.58,-93.78"/>
</g>
<!-- Node5 -->
<g id="node5" class="node">
<title>Node5</title>
<g id="a_node5"><a xlink:href="dol2asm_8h.html" target="_top" xlink:title=" ">
<polygon fill="white" stroke="#666666" points="225,-156.5 164,-156.5 164,-137.5 225,-137.5 225,-156.5"/>
<text text-anchor="middle" x="194.5" y="-144.5" font-family="Helvetica,sans-Serif" font-size="10.00">dol2asm.h</text>
</a>
</g>
</g>
<!-- Node1&#45;&gt;Node5 -->
<g id="edge4" class="edge">
<title>Node1&#45;&gt;Node5</title>
<path fill="none" stroke="#63b8ff" d="M279.25,-208.54C261.07,-195.55 234.45,-176.54 215.92,-163.3"/>
<polygon fill="#63b8ff" stroke="#63b8ff" points="218.21,-160.63 208.03,-157.67 214.14,-166.33 218.21,-160.63"/>
</g>
<!-- Node6 -->
<g id="node6" class="node">
<title>Node6</title>
<g id="a_node6"><a xlink:title=" ">
<polygon fill="#e0e0e0" stroke="#999999" points="356,-167.5 243,-167.5 243,-126.5 356,-126.5 356,-167.5"/>
<text text-anchor="start" x="251" y="-155.5" font-family="Helvetica,sans-Serif" font-size="10.00">asm/rel/d/a/e/d_a_e</text>
<text text-anchor="start" x="251" y="-144.5" font-family="Helvetica,sans-Serif" font-size="10.00">_st_line/d_a_e_st_line</text>
<text text-anchor="middle" x="299.5" y="-133.5" font-family="Helvetica,sans-Serif" font-size="10.00">/__dt__4cXyzFv.s</text>
</a>
</g>
</g>
<!-- Node1&#45;&gt;Node6 -->
<g id="edge6" class="edge">
<title>Node1&#45;&gt;Node6</title>
<path fill="none" stroke="#63b8ff" d="M299.5,-208.54C299.5,-200.22 299.5,-189.42 299.5,-179.26"/>
<polygon fill="#63b8ff" stroke="#63b8ff" points="303,-179.32 299.5,-169.32 296,-179.32 303,-179.32"/>
</g>
<!-- Node7 -->
<g id="node7" class="node">
<title>Node7</title>
<g id="a_node7"><a xlink:title=" ">
<polygon fill="#e0e0e0" stroke="#999999" points="528.5,-173 374.5,-173 374.5,-121 528.5,-121 528.5,-173"/>
<text text-anchor="start" x="382.5" y="-161" font-family="Helvetica,sans-Serif" font-size="10.00">asm/rel/d/a/e/d_a_e</text>
<text text-anchor="start" x="382.5" y="-150" font-family="Helvetica,sans-Serif" font-size="10.00">_st_line/d_a_e_st_line</text>
<text text-anchor="start" x="382.5" y="-139" font-family="Helvetica,sans-Serif" font-size="10.00">/daE_ST_LINE_Delete__FP15e</text>
<text text-anchor="middle" x="451.5" y="-128" font-family="Helvetica,sans-Serif" font-size="10.00">_st_line_class.s</text>
</a>
</g>
</g>
<!-- Node1&#45;&gt;Node7 -->
<g id="edge7" class="edge">
<title>Node1&#45;&gt;Node7</title>
<path fill="none" stroke="#63b8ff" d="M328.81,-208.54C346.16,-199.98 368.8,-188.8 389.91,-178.39"/>
<polygon fill="#63b8ff" stroke="#63b8ff" points="391.34,-181.59 398.76,-174.02 388.25,-175.31 391.34,-181.59"/>
</g>
<!-- Node8 -->
<g id="node8" class="node">
<title>Node8</title>
<g id="a_node8"><a xlink:title=" ">
<polygon fill="#e0e0e0" stroke="#999999" points="678,-173 547,-173 547,-121 678,-121 678,-173"/>
<text text-anchor="start" x="555" y="-161" font-family="Helvetica,sans-Serif" font-size="10.00">asm/rel/d/a/e/d_a_e</text>
<text text-anchor="start" x="555" y="-150" font-family="Helvetica,sans-Serif" font-size="10.00">_st_line/d_a_e_st_line</text>
<text text-anchor="start" x="555" y="-139" font-family="Helvetica,sans-Serif" font-size="10.00">/useHeapInit__FP10fopAc</text>
<text text-anchor="middle" x="612.5" y="-128" font-family="Helvetica,sans-Serif" font-size="10.00">_ac_c.s</text>
</a>
</g>
</g>
<!-- Node1&#45;&gt;Node8 -->
<g id="edge8" class="edge">
<title>Node1&#45;&gt;Node8</title>
<path fill="none" stroke="#63b8ff" d="M358.63,-212.53C404.51,-203.97 469.85,-190.81 535.77,-173.34"/>
<polygon fill="#63b8ff" stroke="#63b8ff" points="536.57,-176.75 545.32,-170.77 534.75,-169.99 536.57,-176.75"/>
</g>
<!-- Node9 -->
<g id="node9" class="node">
<title>Node9</title>
<g id="a_node9"><a xlink:title=" ">
<polygon fill="#e0e0e0" stroke="#999999" points="859,-173 696,-173 696,-121 859,-121 859,-173"/>
<text text-anchor="start" x="704" y="-161" font-family="Helvetica,sans-Serif" font-size="10.00">asm/rel/d/a/e/d_a_e</text>
<text text-anchor="start" x="704" y="-150" font-family="Helvetica,sans-Serif" font-size="10.00">_st_line/d_a_e_st_line</text>
<text text-anchor="start" x="704" y="-139" font-family="Helvetica,sans-Serif" font-size="10.00">/daE_ST_LINE_Create__FP10fop</text>
<text text-anchor="middle" x="777.5" y="-128" font-family="Helvetica,sans-Serif" font-size="10.00">Ac_ac_c.s</text>
</a>
</g>
</g>
<!-- Node1&#45;&gt;Node9 -->
<g id="edge9" class="edge">
<title>Node1&#45;&gt;Node9</title>
<path fill="none" stroke="#63b8ff" d="M358.76,-218.02C432.92,-211.19 563.93,-197.21 684.45,-173.5"/>
<polygon fill="#63b8ff" stroke="#63b8ff" points="685.1,-176.94 694.22,-171.55 683.73,-170.08 685.1,-176.94"/>
</g>
<!-- Node2&#45;&gt;Node3 -->
<g id="edge2" class="edge">
<title>Node2&#45;&gt;Node3</title>
<path fill="none" stroke="#63b8ff" d="M62,-131.6C68.25,-120.99 76.81,-106.48 83.58,-95.02"/>
<polygon fill="#63b8ff" stroke="#63b8ff" points="86.54,-96.87 88.61,-86.48 80.52,-93.32 86.54,-96.87"/>
</g>
<!-- Node4 -->
<g id="node4" class="node">
<title>Node4</title>
<g id="a_node4"><a xlink:href="stddef_8h.html" target="_top" xlink:title=" ">
<polygon fill="white" stroke="#666666" points="162.5,-30 26.5,-30 26.5,0 162.5,0 162.5,-30"/>
<text text-anchor="start" x="34.5" y="-18" font-family="Helvetica,sans-Serif" font-size="10.00">MSL_C/MSL_Common/Src</text>
<text text-anchor="middle" x="94.5" y="-7" font-family="Helvetica,sans-Serif" font-size="10.00">/stddef.h</text>
</a>
</g>
</g>
<!-- Node3&#45;&gt;Node4 -->
<g id="edge3" class="edge">
<title>Node3&#45;&gt;Node4</title>
<path fill="none" stroke="#63b8ff" d="M94.5,-65.87C94.5,-59.4 94.5,-50.2 94.5,-41.45"/>
<polygon fill="#63b8ff" stroke="#63b8ff" points="98,-41.63 94.5,-31.63 91,-41.63 98,-41.63"/>
</g>
</g>
</svg>
