<?xml version="1.0" encoding="UTF-8" standalone="no"?>
<!DOCTYPE svg PUBLIC "-//W3C//DTD SVG 1.1//EN"
 "http://www.w3.org/Graphics/SVG/1.1/DTD/svg11.dtd">
<!-- Generated by graphviz version 7.0.5 (20221223.1930)
 -->
<!-- Title: include/rel/d/a/kytag/d_a_kytag05/d_a_kytag05.h Pages: 1 -->
<svg width="6017pt" height="291pt"
 viewBox="0.00 0.00 6016.87 291.00" xmlns="http://www.w3.org/2000/svg" xmlns:xlink="http://www.w3.org/1999/xlink">
<g id="graph0" class="graph" transform="scale(1 1) rotate(0) translate(4 287)">
<title>include/rel/d/a/kytag/d_a_kytag05/d_a_kytag05.h</title>
<!-- Node1 -->
<g id="node1" class="node">
<title>Node1</title>
<g id="a_node1"><a xlink:title=" ">
<polygon fill="#999999" stroke="#666666" points="1488.37,-283 1348.37,-283 1348.37,-253 1488.37,-253 1488.37,-283"/>
<text text-anchor="start" x="1356.37" y="-271" font-family="Helvetica,sans-Serif" font-size="10.00">include/rel/d/a/kytag</text>
<text text-anchor="middle" x="1418.37" y="-260" font-family="Helvetica,sans-Serif" font-size="10.00">/d_a_kytag05/d_a_kytag05.h</text>
</a>
</g>
</g>
<!-- Node2 -->
<g id="node2" class="node">
<title>Node2</title>
<g id="a_node2"><a xlink:href="d__a__alink_8h.html" target="_top" xlink:title=" ">
<polygon fill="white" stroke="#666666" points="1476.37,-217 1360.37,-217 1360.37,-198 1476.37,-198 1476.37,-217"/>
<text text-anchor="middle" x="1418.37" y="-205" font-family="Helvetica,sans-Serif" font-size="10.00">include/d/a/d_a_alink.h</text>
</a>
</g>
</g>
<!-- Node1&#45;&gt;Node2 -->
<g id="edge1" class="edge">
<title>Node1&#45;&gt;Node2</title>
<path fill="none" stroke="#63b8ff" d="M1418.37,-241.3C1418.37,-232.65 1418.37,-223.58 1418.37,-217.18"/>
<polygon fill="#63b8ff" stroke="#63b8ff" points="1414.87,-241.03 1418.37,-251.03 1421.87,-241.03 1414.87,-241.03"/>
</g>
<!-- Node3 -->
<g id="node3" class="node">
<title>Node3</title>
<g id="a_node3"><a xlink:href="d__com__inf__game_8h.html" target="_top" xlink:title=" ">
<polygon fill="#fff0f0" stroke="red" points="2969.37,-162 2859.37,-162 2859.37,-132 2969.37,-132 2969.37,-162"/>
<text text-anchor="start" x="2867.37" y="-150" font-family="Helvetica,sans-Serif" font-size="10.00">include/d/com/d_com</text>
<text text-anchor="middle" x="2914.37" y="-139" font-family="Helvetica,sans-Serif" font-size="10.00">_inf_game.h</text>
</a>
</g>
</g>
<!-- Node2&#45;&gt;Node3 -->
<g id="edge2" class="edge">
<title>Node2&#45;&gt;Node3</title>
<path fill="none" stroke="#63b8ff" d="M1487.9,-203.78C1743.6,-193.78 2628.96,-159.16 2859.27,-150.15"/>
<polygon fill="#63b8ff" stroke="#63b8ff" points="1487.93,-200.28 1478.07,-204.17 1488.2,-207.27 1487.93,-200.28"/>
</g>
<!-- Node13 -->
<g id="node7" class="node">
<title>Node13</title>
<g id="a_node7"><a xlink:href="d__a__alink_8cpp.html" target="_top" xlink:title=" ">
<polygon fill="white" stroke="#666666" points="1036.87,-19 927.87,-19 927.87,0 1036.87,0 1036.87,-19"/>
<text text-anchor="middle" x="982.37" y="-7" font-family="Helvetica,sans-Serif" font-size="10.00">src/d/a/d_a_alink.cpp</text>
</a>
</g>
</g>
<!-- Node2&#45;&gt;Node13 -->
<g id="edge54" class="edge">
<title>Node2&#45;&gt;Node13</title>
<path fill="none" stroke="#63b8ff" d="M1348.84,-206.44C1077.6,-205.5 101.08,-195.18 9.37,-96 -3,-82.62 -3.21,-68.18 9.37,-55 41.26,-21.62 726.75,-12.81 927.56,-10.94"/>
<polygon fill="#63b8ff" stroke="#63b8ff" points="1348.56,-209.94 1358.57,-206.47 1348.58,-202.94 1348.56,-209.94"/>
</g>
<!-- Node4 -->
<g id="node4" class="node">
<title>Node4</title>
<g id="a_node4"><a xlink:href="d__a__npc_8h.html" target="_top" xlink:title=" ">
<polygon fill="#fff0f0" stroke="red" points="6008.87,-19 5897.87,-19 5897.87,0 6008.87,0 6008.87,-19"/>
<text text-anchor="middle" x="5953.37" y="-7" font-family="Helvetica,sans-Serif" font-size="10.00">include/d/a/d_a_npc.h</text>
</a>
</g>
</g>
<!-- Node3&#45;&gt;Node4 -->
<g id="edge3" class="edge">
<title>Node3&#45;&gt;Node4</title>
<path fill="none" stroke="#63b8ff" d="M2981.01,-146.19C3423.55,-147.33 5922,-151.26 5976.37,-96 5997.29,-74.74 5973.29,-36.6 5960.45,-19.38"/>
<polygon fill="#63b8ff" stroke="#63b8ff" points="2981.25,-142.69 2971.24,-146.17 2981.23,-149.69 2981.25,-142.69"/>
</g>
<!-- Node10 -->
<g id="node5" class="node">
<title>Node10</title>
<g id="a_node5"><a xlink:href="d__cc__uty_8h.html" target="_top" xlink:title=" ">
<polygon fill="#fff0f0" stroke="red" points="137.87,-85 18.87,-85 18.87,-66 137.87,-66 137.87,-85"/>
<text text-anchor="middle" x="78.37" y="-73" font-family="Helvetica,sans-Serif" font-size="10.00">include/d/cc/d_cc_uty.h</text>
</a>
</g>
</g>
<!-- Node3&#45;&gt;Node10 -->
<g id="edge4" class="edge">
<title>Node3&#45;&gt;Node10</title>
<path fill="none" stroke="#63b8ff" d="M2847.59,-145.75C2452.27,-144.13 426.53,-134.04 152.37,-96 136.71,-93.83 119.62,-89.46 105.81,-85.41"/>
<polygon fill="#63b8ff" stroke="#63b8ff" points="2847.55,-149.25 2857.57,-145.79 2847.58,-142.25 2847.55,-149.25"/>
</g>
<!-- Node16 -->
<g id="node6" class="node">
<title>Node16</title>
<g id="a_node6"><a xlink:href="d__item_8h.html" target="_top" xlink:title=" ">
<polygon fill="#fff0f0" stroke="red" points="1029.87,-85 934.87,-85 934.87,-66 1029.87,-66 1029.87,-85"/>
<text text-anchor="middle" x="982.37" y="-73" font-family="Helvetica,sans-Serif" font-size="10.00">include/d/d_item.h</text>
</a>
</g>
</g>
<!-- Node3&#45;&gt;Node16 -->
<g id="edge5" class="edge">
<title>Node3&#45;&gt;Node16</title>
<path fill="none" stroke="#63b8ff" d="M2847.86,-145.44C2535.17,-142.65 1218.92,-129.02 1038.37,-96 1026.42,-93.81 1013.59,-89.5 1003.23,-85.49"/>
<polygon fill="#63b8ff" stroke="#63b8ff" points="2847.45,-148.94 2857.48,-145.53 2847.51,-141.94 2847.45,-148.94"/>
</g>
<!-- Node3&#45;&gt;Node13 -->
<g id="edge53" class="edge">
<title>Node3&#45;&gt;Node13</title>
<path fill="none" stroke="#63b8ff" d="M2847.63,-146.06C2433.72,-146.26 233.49,-145.01 185.37,-96 172.61,-83 172.85,-68.24 185.37,-55 210.86,-28.05 751.3,-15.05 927.42,-11.52"/>
<polygon fill="#63b8ff" stroke="#63b8ff" points="2847.55,-149.56 2857.55,-146.05 2847.55,-142.56 2847.55,-149.56"/>
</g>
<!-- Node21 -->
<g id="node8" class="node">
<title>Node21</title>
<g id="a_node8"><a xlink:href="d__kantera__icon__meter_8h.html" target="_top" xlink:title=" ">
<polygon fill="#fff0f0" stroke="red" points="295.87,-90.5 194.87,-90.5 194.87,-60.5 295.87,-60.5 295.87,-90.5"/>
<text text-anchor="start" x="202.87" y="-78.5" font-family="Helvetica,sans-Serif" font-size="10.00">include/d/d_kantera</text>
<text text-anchor="middle" x="245.37" y="-67.5" font-family="Helvetica,sans-Serif" font-size="10.00">_icon_meter.h</text>
</a>
</g>
</g>
<!-- Node3&#45;&gt;Node21 -->
<g id="edge7" class="edge">
<title>Node3&#45;&gt;Node21</title>
<path fill="none" stroke="#63b8ff" d="M2847.6,-145.92C2465.23,-145.28 561.38,-139.9 304.37,-96 297.57,-94.84 290.48,-93.04 283.67,-90.99"/>
<polygon fill="#63b8ff" stroke="#63b8ff" points="2847.48,-149.42 2857.48,-145.93 2847.49,-142.42 2847.48,-149.42"/>
</g>
<!-- Node24 -->
<g id="node9" class="node">
<title>Node24</title>
<g id="a_node9"><a xlink:href="d__model_8h.html" target="_top" xlink:title=" ">
<polygon fill="#fff0f0" stroke="red" points="416.87,-85 313.87,-85 313.87,-66 416.87,-66 416.87,-85"/>
<text text-anchor="middle" x="365.37" y="-73" font-family="Helvetica,sans-Serif" font-size="10.00">include/d/d_model.h</text>
</a>
</g>
</g>
<!-- Node3&#45;&gt;Node24 -->
<g id="edge8" class="edge">
<title>Node3&#45;&gt;Node24</title>
<path fill="none" stroke="#63b8ff" d="M2847.76,-145.83C2476.41,-144.73 669.9,-137.26 425.37,-96 412.52,-93.83 398.65,-89.47 387.49,-85.41"/>
<polygon fill="#63b8ff" stroke="#63b8ff" points="2847.56,-149.33 2857.57,-145.86 2847.58,-142.33 2847.56,-149.33"/>
</g>
<!-- Node26 -->
<g id="node10" class="node">
<title>Node26</title>
<g id="a_node10"><a xlink:href="d__name_8h.html" target="_top" xlink:title=" ">
<polygon fill="#fff0f0" stroke="red" points="535.87,-85 434.87,-85 434.87,-66 535.87,-66 535.87,-85"/>
<text text-anchor="middle" x="485.37" y="-73" font-family="Helvetica,sans-Serif" font-size="10.00">include/d/d_name.h</text>
</a>
</g>
</g>
<!-- Node3&#45;&gt;Node26 -->
<g id="edge9" class="edge">
<title>Node3&#45;&gt;Node26</title>
<path fill="none" stroke="#63b8ff" d="M2847.81,-145.76C2487.42,-144.29 777.41,-135.27 545.37,-96 532.52,-93.82 518.65,-89.46 507.49,-85.41"/>
<polygon fill="#63b8ff" stroke="#63b8ff" points="2847.54,-149.26 2857.56,-145.8 2847.57,-142.26 2847.54,-149.26"/>
</g>
<!-- Node28 -->
<g id="node11" class="node">
<title>Node28</title>
<g id="a_node11"><a xlink:href="d__file__sel__info_8h.html" target="_top" xlink:title=" ">
<polygon fill="#fff0f0" stroke="red" points="650.37,-90.5 554.37,-90.5 554.37,-60.5 650.37,-60.5 650.37,-90.5"/>
<text text-anchor="start" x="562.37" y="-78.5" font-family="Helvetica,sans-Serif" font-size="10.00">include/d/file/d_file</text>
<text text-anchor="middle" x="602.37" y="-67.5" font-family="Helvetica,sans-Serif" font-size="10.00">_sel_info.h</text>
</a>
</g>
</g>
<!-- Node3&#45;&gt;Node28 -->
<g id="edge10" class="edge">
<title>Node3&#45;&gt;Node28</title>
<path fill="none" stroke="#63b8ff" d="M2847.68,-145.74C2497.51,-144.21 879.23,-135.08 659.37,-96 652.78,-94.83 645.92,-93.02 639.35,-90.98"/>
<polygon fill="#63b8ff" stroke="#63b8ff" points="2847.59,-149.24 2857.6,-145.78 2847.62,-142.24 2847.59,-149.24"/>
</g>
<!-- Node31 -->
<g id="node12" class="node">
<title>Node31</title>
<g id="a_node12"><a xlink:href="d__file__sel__warning_8h.html" target="_top" xlink:title=" ">
<polygon fill="#fff0f0" stroke="red" points="764.37,-90.5 668.37,-90.5 668.37,-60.5 764.37,-60.5 764.37,-90.5"/>
<text text-anchor="start" x="676.37" y="-78.5" font-family="Helvetica,sans-Serif" font-size="10.00">include/d/file/d_file</text>
<text text-anchor="middle" x="716.37" y="-67.5" font-family="Helvetica,sans-Serif" font-size="10.00">_sel_warning.h</text>
</a>
</g>
</g>
<!-- Node3&#45;&gt;Node31 -->
<g id="edge11" class="edge">
<title>Node3&#45;&gt;Node31</title>
<path fill="none" stroke="#63b8ff" d="M2847.79,-145.66C2508.68,-143.74 981.42,-133.1 773.37,-96 766.78,-94.82 759.93,-93.02 753.35,-90.97"/>
<polygon fill="#63b8ff" stroke="#63b8ff" points="2847.59,-149.15 2857.61,-145.71 2847.62,-142.15 2847.59,-149.15"/>
</g>
<!-- Node33 -->
<g id="node13" class="node">
<title>Node33</title>
<g id="a_node13"><a xlink:href="d__meter2_8h.html" target="_top" xlink:title=" ">
<polygon fill="#fff0f0" stroke="red" points="916.37,-85 782.37,-85 782.37,-66 916.37,-66 916.37,-85"/>
<text text-anchor="middle" x="849.37" y="-73" font-family="Helvetica,sans-Serif" font-size="10.00">include/d/meter/d_meter2.h</text>
</a>
</g>
</g>
<!-- Node3&#45;&gt;Node33 -->
<g id="edge12" class="edge">
<title>Node3&#45;&gt;Node33</title>
<path fill="none" stroke="#63b8ff" d="M2847.85,-146.34C2546.66,-147.6 1308.97,-149.33 925.37,-96 909.45,-93.79 892.06,-89.47 877.94,-85.46"/>
<polygon fill="#63b8ff" stroke="#63b8ff" points="2847.5,-149.85 2857.48,-146.3 2847.47,-142.85 2847.5,-149.85"/>
</g>
<!-- Node40 -->
<g id="node14" class="node">
<title>Node40</title>
<g id="a_node14"><a xlink:href="d__msg__object_8h.html" target="_top" xlink:title=" ">
<polygon fill="#fff0f0" stroke="red" points="5967.37,-90.5 5857.37,-90.5 5857.37,-60.5 5967.37,-60.5 5967.37,-90.5"/>
<text text-anchor="start" x="5865.37" y="-78.5" font-family="Helvetica,sans-Serif" font-size="10.00">include/d/msg/d_msg</text>
<text text-anchor="middle" x="5912.37" y="-67.5" font-family="Helvetica,sans-Serif" font-size="10.00">_object.h</text>
</a>
</g>
</g>
<!-- Node3&#45;&gt;Node40 -->
<g id="edge13" class="edge">
<title>Node3&#45;&gt;Node40</title>
<path fill="none" stroke="#63b8ff" d="M2981.06,-145.98C3390.57,-145.68 5556.94,-141.95 5848.37,-96 5855.72,-94.84 5863.39,-93.04 5870.76,-91"/>
<polygon fill="#63b8ff" stroke="#63b8ff" points="2981.25,-142.48 2971.25,-145.98 2981.25,-149.48 2981.25,-142.48"/>
</g>
<!-- Node56 -->
<g id="node15" class="node">
<title>Node56</title>
<g id="a_node15"><a xlink:href="d__s__logo_8h.html" target="_top" xlink:title=" ">
<polygon fill="#fff0f0" stroke="red" points="1160.87,-85 1047.87,-85 1047.87,-66 1160.87,-66 1160.87,-85"/>
<text text-anchor="middle" x="1104.37" y="-73" font-family="Helvetica,sans-Serif" font-size="10.00">include/d/s/d_s_logo.h</text>
</a>
</g>
</g>
<!-- Node3&#45;&gt;Node56 -->
<g id="edge16" class="edge">
<title>Node3&#45;&gt;Node56</title>
<path fill="none" stroke="#63b8ff" d="M2847.59,-146.39C2569.48,-147.65 1502.31,-148.88 1170.37,-96 1156.45,-93.78 1141.34,-89.47 1129.09,-85.46"/>
<polygon fill="#63b8ff" stroke="#63b8ff" points="2847.58,-149.89 2857.57,-146.34 2847.55,-142.89 2847.58,-149.89"/>
</g>
<!-- Node58 -->
<g id="node16" class="node">
<title>Node58</title>
<g id="a_node16"><a xlink:href="d__s__play_8h.html" target="_top" xlink:title=" ">
<polygon fill="#fff0f0" stroke="red" points="1291.87,-85 1178.87,-85 1178.87,-66 1291.87,-66 1291.87,-85"/>
<text text-anchor="middle" x="1235.37" y="-73" font-family="Helvetica,sans-Serif" font-size="10.00">include/d/s/d_s_play.h</text>
</a>
</g>
</g>
<!-- Node3&#45;&gt;Node58 -->
<g id="edge17" class="edge">
<title>Node3&#45;&gt;Node58</title>
<path fill="none" stroke="#63b8ff" d="M2847.86,-146.21C2583.47,-146.67 1606.49,-144.97 1301.37,-96 1287.45,-93.77 1272.34,-89.45 1260.1,-85.44"/>
<polygon fill="#63b8ff" stroke="#63b8ff" points="2847.67,-149.71 2857.66,-146.19 2847.65,-142.71 2847.67,-149.71"/>
</g>
<!-- Node64 -->
<g id="node17" class="node">
<title>Node64</title>
<g id="a_node17"><a xlink:href="d__msg__scrn__base_8h.html" target="_top" xlink:title=" ">
<polygon fill="#fff0f0" stroke="red" points="1408.87,-90.5 1309.87,-90.5 1309.87,-60.5 1408.87,-60.5 1408.87,-90.5"/>
<text text-anchor="start" x="1317.87" y="-78.5" font-family="Helvetica,sans-Serif" font-size="10.00">include/msg/scrn/d</text>
<text text-anchor="middle" x="1359.37" y="-67.5" font-family="Helvetica,sans-Serif" font-size="10.00">_msg_scrn_base.h</text>
</a>
</g>
</g>
<!-- Node3&#45;&gt;Node64 -->
<g id="edge18" class="edge">
<title>Node3&#45;&gt;Node64</title>
<path fill="none" stroke="#63b8ff" d="M2848.09,-146.29C2596.25,-147.02 1698.84,-145.97 1418.37,-96 1411.58,-94.79 1404.49,-92.96 1397.68,-90.91"/>
<polygon fill="#63b8ff" stroke="#63b8ff" points="2847.74,-149.79 2857.73,-146.26 2847.72,-142.79 2847.74,-149.79"/>
</g>
<!-- Node68 -->
<g id="node18" class="node">
<title>Node68</title>
<g id="a_node18"><a xlink:href="d__a__b__oh2_8h.html" target="_top" xlink:title=" ">
<polygon fill="white" stroke="#666666" points="1543.37,-90.5 1427.37,-90.5 1427.37,-60.5 1543.37,-60.5 1543.37,-90.5"/>
<text text-anchor="start" x="1435.37" y="-78.5" font-family="Helvetica,sans-Serif" font-size="10.00">include/rel/d/a/b/d</text>
<text text-anchor="middle" x="1485.37" y="-67.5" font-family="Helvetica,sans-Serif" font-size="10.00">_a_b_oh2/d_a_b_oh2.h</text>
</a>
</g>
</g>
<!-- Node3&#45;&gt;Node68 -->
<g id="edge19" class="edge">
<title>Node3&#45;&gt;Node68</title>
<path fill="none" stroke="#63b8ff" d="M2847.91,-145.69C2610.81,-144.25 1807.09,-136.42 1553.37,-96 1545.73,-94.78 1537.73,-92.98 1530.02,-90.96"/>
<polygon fill="#63b8ff" stroke="#63b8ff" points="2847.57,-149.19 2857.59,-145.75 2847.61,-142.19 2847.57,-149.19"/>
</g>
<!-- Node69 -->
<g id="node19" class="node">
<title>Node69</title>
<g id="a_node19"><a xlink:href="d__a__b__zant_8h.html" target="_top" xlink:title=" ">
<polygon fill="white" stroke="#666666" points="1682.87,-90.5 1561.87,-90.5 1561.87,-60.5 1682.87,-60.5 1682.87,-90.5"/>
<text text-anchor="start" x="1569.87" y="-78.5" font-family="Helvetica,sans-Serif" font-size="10.00">include/rel/d/a/b/d</text>
<text text-anchor="middle" x="1622.37" y="-67.5" font-family="Helvetica,sans-Serif" font-size="10.00">_a_b_zant/d_a_b_zant.h</text>
</a>
</g>
</g>
<!-- Node3&#45;&gt;Node69 -->
<g id="edge20" class="edge">
<title>Node3&#45;&gt;Node69</title>
<path fill="none" stroke="#63b8ff" d="M2847.82,-145.3C2626.7,-142.65 1917.87,-131.53 1692.37,-96 1684.52,-94.76 1676.3,-92.95 1668.35,-90.93"/>
<polygon fill="#63b8ff" stroke="#63b8ff" points="2847.66,-148.8 2857.7,-145.41 2847.74,-141.8 2847.66,-148.8"/>
</g>
<!-- Node70 -->
<g id="node20" class="node">
<title>Node70</title>
<g id="a_node20"><a xlink:href="d__a__andsw_8h.html" target="_top" xlink:title=" ">
<polygon fill="white" stroke="#666666" points="1811.37,-90.5 1701.37,-90.5 1701.37,-60.5 1811.37,-60.5 1811.37,-90.5"/>
<text text-anchor="start" x="1709.37" y="-78.5" font-family="Helvetica,sans-Serif" font-size="10.00">include/rel/d/a/d_a</text>
<text text-anchor="middle" x="1756.37" y="-67.5" font-family="Helvetica,sans-Serif" font-size="10.00">_andsw/d_a_andsw.h</text>
</a>
</g>
</g>
<!-- Node3&#45;&gt;Node70 -->
<g id="edge21" class="edge">
<title>Node3&#45;&gt;Node70</title>
<path fill="none" stroke="#63b8ff" d="M2847.66,-145.09C2642.1,-141.96 2020.34,-129.86 1821.37,-96 1814.06,-94.75 1806.4,-92.94 1799.02,-90.91"/>
<polygon fill="#63b8ff" stroke="#63b8ff" points="2847.59,-148.59 2857.64,-145.24 2847.69,-141.59 2847.59,-148.59"/>
</g>
<!-- Node71 -->
<g id="node21" class="node">
<title>Node71</title>
<g id="a_node21"><a xlink:href="d__a__cstaF_8h.html" target="_top" xlink:title=" ">
<polygon fill="white" stroke="#666666" points="1932.87,-90.5 1829.87,-90.5 1829.87,-60.5 1932.87,-60.5 1932.87,-90.5"/>
<text text-anchor="start" x="1837.87" y="-78.5" font-family="Helvetica,sans-Serif" font-size="10.00">include/rel/d/a/d_a</text>
<text text-anchor="middle" x="1881.37" y="-67.5" font-family="Helvetica,sans-Serif" font-size="10.00">_cstaF/d_a_cstaF.h</text>
</a>
</g>
</g>
<!-- Node3&#45;&gt;Node71 -->
<g id="edge22" class="edge">
<title>Node3&#45;&gt;Node71</title>
<path fill="none" stroke="#63b8ff" d="M2847.69,-144.81C2657.8,-141.05 2116.69,-127.79 1942.37,-96 1935.59,-94.76 1928.52,-92.98 1921.69,-90.99"/>
<polygon fill="#63b8ff" stroke="#63b8ff" points="2847.57,-148.3 2857.63,-145 2847.7,-141.31 2847.57,-148.3"/>
</g>
<!-- Node72 -->
<g id="node22" class="node">
<title>Node72</title>
<g id="a_node22"><a xlink:href="d__a__dmidna_8h.html" target="_top" xlink:title=" ">
<polygon fill="white" stroke="#666666" points="2067.37,-90.5 1951.37,-90.5 1951.37,-60.5 2067.37,-60.5 2067.37,-90.5"/>
<text text-anchor="start" x="1959.37" y="-78.5" font-family="Helvetica,sans-Serif" font-size="10.00">include/rel/d/a/d_a</text>
<text text-anchor="middle" x="2009.37" y="-67.5" font-family="Helvetica,sans-Serif" font-size="10.00">_dmidna/d_a_dmidna.h</text>
</a>
</g>
</g>
<!-- Node3&#45;&gt;Node72 -->
<g id="edge23" class="edge">
<title>Node3&#45;&gt;Node72</title>
<path fill="none" stroke="#63b8ff" d="M2847.71,-143.91C2676.62,-138.24 2225.09,-121.28 2077.37,-96 2069.87,-94.72 2062.01,-92.91 2054.41,-90.91"/>
<polygon fill="#63b8ff" stroke="#63b8ff" points="2847.43,-147.4 2857.54,-144.23 2847.66,-140.4 2847.43,-147.4"/>
</g>
<!-- Node73 -->
<g id="node23" class="node">
<title>Node73</title>
<g id="a_node23"><a xlink:href="d__a__econt_8h.html" target="_top" xlink:title=" ">
<polygon fill="white" stroke="#666666" points="2186.87,-90.5 2085.87,-90.5 2085.87,-60.5 2186.87,-60.5 2186.87,-90.5"/>
<text text-anchor="start" x="2093.87" y="-78.5" font-family="Helvetica,sans-Serif" font-size="10.00">include/rel/d/a/d_a</text>
<text text-anchor="middle" x="2136.37" y="-67.5" font-family="Helvetica,sans-Serif" font-size="10.00">_econt/d_a_econt.h</text>
</a>
</g>
</g>
<!-- Node3&#45;&gt;Node73 -->
<g id="edge24" class="edge">
<title>Node3&#45;&gt;Node73</title>
<path fill="none" stroke="#63b8ff" d="M2847.81,-146.76C2720.19,-147.04 2432.78,-141.93 2196.37,-96 2189.81,-94.73 2182.97,-92.95 2176.36,-90.99"/>
<polygon fill="#63b8ff" stroke="#63b8ff" points="2847.78,-150.26 2857.77,-146.73 2847.76,-143.26 2847.78,-150.26"/>
</g>
<!-- Node74 -->
<g id="node24" class="node">
<title>Node74</title>
<g id="a_node24"><a xlink:href="d__a__guard__mng_8h.html" target="_top" xlink:title=" ">
<polygon fill="white" stroke="#666666" points="2353.87,-90.5 2204.87,-90.5 2204.87,-60.5 2353.87,-60.5 2353.87,-90.5"/>
<text text-anchor="start" x="2212.87" y="-78.5" font-family="Helvetica,sans-Serif" font-size="10.00">include/rel/d/a/d_a</text>
<text text-anchor="middle" x="2279.37" y="-67.5" font-family="Helvetica,sans-Serif" font-size="10.00">_guard_mng/d_a_guard_mng.h</text>
</a>
</g>
</g>
<!-- Node3&#45;&gt;Node74 -->
<g id="edge25" class="edge">
<title>Node3&#45;&gt;Node74</title>
<path fill="none" stroke="#63b8ff" d="M2847.67,-142.91C2743.67,-137.44 2536.82,-123.87 2363.37,-96 2354.8,-94.62 2345.8,-92.87 2337.01,-90.98"/>
<polygon fill="#63b8ff" stroke="#63b8ff" points="2847.24,-146.4 2857.41,-143.42 2847.61,-139.41 2847.24,-146.4"/>
</g>
<!-- Node75 -->
<g id="node25" class="node">
<title>Node75</title>
<g id="a_node25"><a xlink:href="d__a__hitobj_8h.html" target="_top" xlink:title=" ">
<polygon fill="white" stroke="#666666" points="2472.37,-90.5 2372.37,-90.5 2372.37,-60.5 2472.37,-60.5 2472.37,-90.5"/>
<text text-anchor="start" x="2380.37" y="-78.5" font-family="Helvetica,sans-Serif" font-size="10.00">include/rel/d/a/d_a</text>
<text text-anchor="middle" x="2422.37" y="-67.5" font-family="Helvetica,sans-Serif" font-size="10.00">_hitobj/d_a_hitobj.h</text>
</a>
</g>
</g>
<!-- Node3&#45;&gt;Node75 -->
<g id="edge26" class="edge">
<title>Node3&#45;&gt;Node75</title>
<path fill="none" stroke="#63b8ff" d="M2847.54,-142.4C2762.07,-136.85 2609.85,-123.8 2482.37,-96 2476.06,-94.62 2469.47,-92.84 2463.06,-90.92"/>
<polygon fill="#63b8ff" stroke="#63b8ff" points="2847.19,-145.88 2857.39,-143.02 2847.63,-138.9 2847.19,-145.88"/>
</g>
<!-- Node76 -->
<g id="node26" class="node">
<title>Node76</title>
<g id="a_node26"><a xlink:href="d__a__set__bgobj_8h.html" target="_top" xlink:title=" ">
<polygon fill="white" stroke="#666666" points="2627.87,-90.5 2490.87,-90.5 2490.87,-60.5 2627.87,-60.5 2627.87,-90.5"/>
<text text-anchor="start" x="2498.87" y="-78.5" font-family="Helvetica,sans-Serif" font-size="10.00">include/rel/d/a/d_a</text>
<text text-anchor="middle" x="2559.37" y="-67.5" font-family="Helvetica,sans-Serif" font-size="10.00">_set_bgobj/d_a_set_bgobj.h</text>
</a>
</g>
</g>
<!-- Node3&#45;&gt;Node76 -->
<g id="edge27" class="edge">
<title>Node3&#45;&gt;Node76</title>
<path fill="none" stroke="#63b8ff" d="M2847.74,-135.25C2791.47,-125.87 2708.89,-111.38 2637.37,-96 2630.14,-94.44 2622.56,-92.7 2615.08,-90.91"/>
<polygon fill="#63b8ff" stroke="#63b8ff" points="2847.05,-138.68 2857.48,-136.87 2848.19,-131.78 2847.05,-138.68"/>
</g>
<!-- Node77 -->
<g id="node27" class="node">
<title>Node77</title>
<g id="a_node27"><a xlink:href="d__a__skip__2D_8h.html" target="_top" xlink:title=" ">
<polygon fill="white" stroke="#666666" points="2770.37,-90.5 2646.37,-90.5 2646.37,-60.5 2770.37,-60.5 2770.37,-90.5"/>
<text text-anchor="start" x="2654.37" y="-78.5" font-family="Helvetica,sans-Serif" font-size="10.00">include/rel/d/a/d_a</text>
<text text-anchor="middle" x="2708.37" y="-67.5" font-family="Helvetica,sans-Serif" font-size="10.00">_skip_2D/d_a_skip_2D.h</text>
</a>
</g>
</g>
<!-- Node3&#45;&gt;Node77 -->
<g id="edge28" class="edge">
<title>Node3&#45;&gt;Node77</title>
<path fill="none" stroke="#63b8ff" d="M2860.72,-127.9C2826.62,-116.39 2783.05,-101.69 2751.25,-90.97"/>
<polygon fill="#63b8ff" stroke="#63b8ff" points="2859.41,-131.15 2870.01,-131.03 2861.65,-124.52 2859.41,-131.15"/>
</g>
<!-- Node78 -->
<g id="node28" class="node">
<title>Node78</title>
<g id="a_node28"><a xlink:href="d__a__spinner_8h.html" target="_top" xlink:title=" ">
<polygon fill="#fff0f0" stroke="red" points="2904.37,-90.5 2788.37,-90.5 2788.37,-60.5 2904.37,-60.5 2904.37,-90.5"/>
<text text-anchor="start" x="2796.37" y="-78.5" font-family="Helvetica,sans-Serif" font-size="10.00">include/rel/d/a/d_a</text>
<text text-anchor="middle" x="2846.37" y="-67.5" font-family="Helvetica,sans-Serif" font-size="10.00">_spinner/d_a_spinner.h</text>
</a>
</g>
</g>
<!-- Node3&#45;&gt;Node78 -->
<g id="edge29" class="edge">
<title>Node3&#45;&gt;Node78</title>
<path fill="none" stroke="#63b8ff" d="M2892.34,-123.48C2881.87,-112.78 2869.65,-100.29 2860.44,-90.88"/>
<polygon fill="#63b8ff" stroke="#63b8ff" points="2889.73,-125.82 2899.22,-130.52 2894.73,-120.92 2889.73,-125.82"/>
</g>
<!-- Node81 -->
<g id="node29" class="node">
<title>Node81</title>
<g id="a_node29"><a xlink:href="d__a__swTime_8h.html" target="_top" xlink:title=" ">
<polygon fill="white" stroke="#666666" points="3044.37,-90.5 2922.37,-90.5 2922.37,-60.5 3044.37,-60.5 3044.37,-90.5"/>
<text text-anchor="start" x="2930.37" y="-78.5" font-family="Helvetica,sans-Serif" font-size="10.00">include/rel/d/a/d_a</text>
<text text-anchor="middle" x="2983.37" y="-67.5" font-family="Helvetica,sans-Serif" font-size="10.00">_swTime/d_a_swTime.h</text>
</a>
</g>
</g>
<!-- Node3&#45;&gt;Node81 -->
<g id="edge31" class="edge">
<title>Node3&#45;&gt;Node81</title>
<path fill="none" stroke="#63b8ff" d="M2936.73,-123.48C2947.36,-112.78 2959.75,-100.29 2969.09,-90.88"/>
<polygon fill="#63b8ff" stroke="#63b8ff" points="2934.3,-120.96 2929.74,-130.53 2939.27,-125.89 2934.3,-120.96"/>
</g>
<!-- Node82 -->
<g id="node30" class="node">
<title>Node82</title>
<g id="a_node30"><a xlink:href="d__a__obj__cboard_8h.html" target="_top" xlink:title=" ">
<polygon fill="white" stroke="#666666" points="3169.87,-96 3062.87,-96 3062.87,-55 3169.87,-55 3169.87,-96"/>
<text text-anchor="start" x="3070.87" y="-84" font-family="Helvetica,sans-Serif" font-size="10.00">include/rel/d/a/obj</text>
<text text-anchor="start" x="3070.87" y="-73" font-family="Helvetica,sans-Serif" font-size="10.00">/d_a_obj_cboard/d_a</text>
<text text-anchor="middle" x="3116.37" y="-62" font-family="Helvetica,sans-Serif" font-size="10.00">_obj_cboard.h</text>
</a>
</g>
</g>
<!-- Node3&#45;&gt;Node82 -->
<g id="edge32" class="edge">
<title>Node3&#45;&gt;Node82</title>
<path fill="none" stroke="#63b8ff" d="M2966.73,-127.98C2996.21,-117.84 3032.95,-105.2 3062.65,-94.98"/>
<polygon fill="#63b8ff" stroke="#63b8ff" points="2965.98,-124.54 2957.66,-131.11 2968.25,-131.16 2965.98,-124.54"/>
</g>
<!-- Node83 -->
<g id="node31" class="node">
<title>Node83</title>
<g id="a_node31"><a xlink:href="d__a__obj__enemy__create_8h.html" target="_top" xlink:title=" ">
<polygon fill="white" stroke="#666666" points="3314.87,-96 3187.87,-96 3187.87,-55 3314.87,-55 3314.87,-96"/>
<text text-anchor="start" x="3195.87" y="-84" font-family="Helvetica,sans-Serif" font-size="10.00">include/rel/d/a/obj</text>
<text text-anchor="start" x="3195.87" y="-73" font-family="Helvetica,sans-Serif" font-size="10.00">/d_a_obj_enemy_create</text>
<text text-anchor="middle" x="3251.37" y="-62" font-family="Helvetica,sans-Serif" font-size="10.00">/d_a_obj_enemy_create.h</text>
</a>
</g>
</g>
<!-- Node3&#45;&gt;Node83 -->
<g id="edge33" class="edge">
<title>Node3&#45;&gt;Node83</title>
<path fill="none" stroke="#63b8ff" d="M2980.8,-134.95C3034.58,-125.64 3112.17,-111.42 3179.37,-96 3182.02,-95.39 3184.72,-94.75 3187.45,-94.09"/>
<polygon fill="#63b8ff" stroke="#63b8ff" points="2980.45,-131.45 2971.19,-136.6 2981.64,-138.35 2980.45,-131.45"/>
</g>
<!-- Node84 -->
<g id="node32" class="node">
<title>Node84</title>
<g id="a_node32"><a xlink:href="d__a__obj__onsenFire_8h.html" target="_top" xlink:title=" ">
<polygon fill="white" stroke="#666666" points="3443.37,-96 3333.37,-96 3333.37,-55 3443.37,-55 3443.37,-96"/>
<text text-anchor="start" x="3341.37" y="-84" font-family="Helvetica,sans-Serif" font-size="10.00">include/rel/d/a/obj</text>
<text text-anchor="start" x="3341.37" y="-73" font-family="Helvetica,sans-Serif" font-size="10.00">/d_a_obj_onsenFire/d</text>
<text text-anchor="middle" x="3388.37" y="-62" font-family="Helvetica,sans-Serif" font-size="10.00">_a_obj_onsenFire.h</text>
</a>
</g>
</g>
<!-- Node3&#45;&gt;Node84 -->
<g id="edge34" class="edge">
<title>Node3&#45;&gt;Node84</title>
<path fill="none" stroke="#63b8ff" d="M2980.68,-141.49C3062.24,-135.12 3204.61,-121.35 3324.37,-96 3327.21,-95.4 3330.11,-94.73 3333.02,-94.01"/>
<polygon fill="#63b8ff" stroke="#63b8ff" points="2980.8,-137.97 2971.1,-142.22 2981.33,-144.95 2980.8,-137.97"/>
</g>
<!-- Node85 -->
<g id="node33" class="node">
<title>Node85</title>
<g id="a_node33"><a xlink:href="d__a__obj__smoke_8h.html" target="_top" xlink:title=" ">
<polygon fill="white" stroke="#666666" points="3586.87,-96 3461.87,-96 3461.87,-55 3586.87,-55 3586.87,-96"/>
<text text-anchor="start" x="3469.87" y="-84" font-family="Helvetica,sans-Serif" font-size="10.00">include/rel/d/a/obj</text>
<text text-anchor="start" x="3469.87" y="-73" font-family="Helvetica,sans-Serif" font-size="10.00">/d_a_obj_smoke/d_a_obj</text>
<text text-anchor="middle" x="3524.37" y="-62" font-family="Helvetica,sans-Serif" font-size="10.00">_smoke.h</text>
</a>
</g>
</g>
<!-- Node3&#45;&gt;Node85 -->
<g id="edge35" class="edge">
<title>Node3&#45;&gt;Node85</title>
<path fill="none" stroke="#63b8ff" d="M2981.15,-143.48C3083.35,-138.8 3284.37,-126.32 3452.37,-96 3455.43,-95.45 3458.55,-94.83 3461.69,-94.16"/>
<polygon fill="#63b8ff" stroke="#63b8ff" points="2981.13,-139.98 2971.3,-143.92 2981.44,-146.97 2981.13,-139.98"/>
</g>
<!-- Node86 -->
<g id="node34" class="node">
<title>Node86</title>
<g id="a_node34"><a xlink:href="d__a__obj__web0_8h.html" target="_top" xlink:title=" ">
<polygon fill="white" stroke="#666666" points="3723.87,-96 3604.87,-96 3604.87,-55 3723.87,-55 3723.87,-96"/>
<text text-anchor="start" x="3612.87" y="-84" font-family="Helvetica,sans-Serif" font-size="10.00">include/rel/d/a/obj</text>
<text text-anchor="start" x="3612.87" y="-73" font-family="Helvetica,sans-Serif" font-size="10.00">/d_a_obj_web0/d_a_obj</text>
<text text-anchor="middle" x="3664.37" y="-62" font-family="Helvetica,sans-Serif" font-size="10.00">_web0.h</text>
</a>
</g>
</g>
<!-- Node3&#45;&gt;Node86 -->
<g id="edge36" class="edge">
<title>Node3&#45;&gt;Node86</title>
<path fill="none" stroke="#63b8ff" d="M2981.07,-145.65C3103.81,-144.01 3373.31,-135.72 3596.37,-96 3599.03,-95.53 3601.74,-94.99 3604.46,-94.41"/>
<polygon fill="#63b8ff" stroke="#63b8ff" points="2981.13,-142.15 2971.17,-145.77 2981.21,-149.15 2981.13,-142.15"/>
</g>
<!-- Node87 -->
<g id="node35" class="node">
<title>Node87</title>
<g id="a_node35"><a xlink:href="d__a__obj__web1_8h.html" target="_top" xlink:title=" ">
<polygon fill="white" stroke="#666666" points="3860.87,-96 3741.87,-96 3741.87,-55 3860.87,-55 3860.87,-96"/>
<text text-anchor="start" x="3749.87" y="-84" font-family="Helvetica,sans-Serif" font-size="10.00">include/rel/d/a/obj</text>
<text text-anchor="start" x="3749.87" y="-73" font-family="Helvetica,sans-Serif" font-size="10.00">/d_a_obj_web1/d_a_obj</text>
<text text-anchor="middle" x="3801.37" y="-62" font-family="Helvetica,sans-Serif" font-size="10.00">_web1.h</text>
</a>
</g>
</g>
<!-- Node3&#45;&gt;Node87 -->
<g id="edge37" class="edge">
<title>Node3&#45;&gt;Node87</title>
<path fill="none" stroke="#63b8ff" d="M2980.83,-146.83C3121.02,-147.51 3456.85,-143.5 3733.37,-96 3736.04,-95.54 3738.74,-95.02 3741.47,-94.45"/>
<polygon fill="#63b8ff" stroke="#63b8ff" points="2981.01,-143.33 2970.99,-146.77 2980.97,-150.33 2981.01,-143.33"/>
</g>
<!-- Node88 -->
<g id="node36" class="node">
<title>Node88</title>
<g id="a_node36"><a xlink:href="d__a__obj__yobikusa_8h.html" target="_top" xlink:title=" ">
<polygon fill="white" stroke="#666666" points="3983.87,-96 3878.87,-96 3878.87,-55 3983.87,-55 3983.87,-96"/>
<text text-anchor="start" x="3886.87" y="-84" font-family="Helvetica,sans-Serif" font-size="10.00">include/rel/d/a/obj</text>
<text text-anchor="start" x="3886.87" y="-73" font-family="Helvetica,sans-Serif" font-size="10.00">/d_a_obj_yobikusa/d</text>
<text text-anchor="middle" x="3931.37" y="-62" font-family="Helvetica,sans-Serif" font-size="10.00">_a_obj_yobikusa.h</text>
</a>
</g>
</g>
<!-- Node3&#45;&gt;Node88 -->
<g id="edge38" class="edge">
<title>Node3&#45;&gt;Node88</title>
<path fill="none" stroke="#63b8ff" d="M2980.95,-144.74C3168.59,-140.84 3699.23,-127.29 3870.37,-96 3873.11,-95.5 3875.89,-94.91 3878.68,-94.26"/>
<polygon fill="#63b8ff" stroke="#63b8ff" points="2981.06,-141.24 2971.13,-144.94 2981.2,-148.24 2981.06,-141.24"/>
</g>
<!-- Node89 -->
<g id="node37" class="node">
<title>Node89</title>
<g id="a_node37"><a xlink:href="d__a__tag__ajnot_8h.html" target="_top" xlink:title=" ">
<polygon fill="white" stroke="#666666" points="4120.37,-96 4002.37,-96 4002.37,-55 4120.37,-55 4120.37,-96"/>
<text text-anchor="start" x="4010.37" y="-84" font-family="Helvetica,sans-Serif" font-size="10.00">include/rel/d/a/tag</text>
<text text-anchor="start" x="4010.37" y="-73" font-family="Helvetica,sans-Serif" font-size="10.00">/d_a_tag_ajnot/d_a_tag</text>
<text text-anchor="middle" x="4061.37" y="-62" font-family="Helvetica,sans-Serif" font-size="10.00">_ajnot.h</text>
</a>
</g>
</g>
<!-- Node3&#45;&gt;Node89 -->
<g id="edge39" class="edge">
<title>Node3&#45;&gt;Node89</title>
<path fill="none" stroke="#63b8ff" d="M2981.28,-144.94C3185.22,-141.38 3797.1,-128.24 3993.37,-96 3996.28,-95.52 3999.24,-94.96 4002.22,-94.34"/>
<polygon fill="#63b8ff" stroke="#63b8ff" points="2981.32,-141.44 2971.38,-145.11 2981.44,-148.44 2981.32,-141.44"/>
</g>
<!-- Node90 -->
<g id="node38" class="node">
<title>Node90</title>
<g id="a_node38"><a xlink:href="d__a__tag__assistance_8h.html" target="_top" xlink:title=" ">
<polygon fill="white" stroke="#666666" points="4252.37,-96 4138.37,-96 4138.37,-55 4252.37,-55 4252.37,-96"/>
<text text-anchor="start" x="4146.37" y="-84" font-family="Helvetica,sans-Serif" font-size="10.00">include/rel/d/a/tag</text>
<text text-anchor="start" x="4146.37" y="-73" font-family="Helvetica,sans-Serif" font-size="10.00">/d_a_tag_assistance</text>
<text text-anchor="middle" x="4195.37" y="-62" font-family="Helvetica,sans-Serif" font-size="10.00">/d_a_tag_assistance.h</text>
</a>
</g>
</g>
<!-- Node3&#45;&gt;Node90 -->
<g id="edge40" class="edge">
<title>Node3&#45;&gt;Node90</title>
<path fill="none" stroke="#63b8ff" d="M2980.95,-145.42C3201.29,-143.14 3905.58,-133.08 4129.37,-96 4132.2,-95.53 4135.08,-94.98 4137.97,-94.36"/>
<polygon fill="#63b8ff" stroke="#63b8ff" points="2981.07,-141.91 2971.1,-145.51 2981.14,-148.91 2981.07,-141.91"/>
</g>
<!-- Node91 -->
<g id="node39" class="node">
<title>Node91</title>
<g id="a_node39"><a xlink:href="d__a__tag__attention_8h.html" target="_top" xlink:title=" ">
<polygon fill="white" stroke="#666666" points="4375.87,-96 4270.87,-96 4270.87,-55 4375.87,-55 4375.87,-96"/>
<text text-anchor="start" x="4278.87" y="-84" font-family="Helvetica,sans-Serif" font-size="10.00">include/rel/d/a/tag</text>
<text text-anchor="start" x="4278.87" y="-73" font-family="Helvetica,sans-Serif" font-size="10.00">/d_a_tag_attention/d</text>
<text text-anchor="middle" x="4323.37" y="-62" font-family="Helvetica,sans-Serif" font-size="10.00">_a_tag_attention.h</text>
</a>
</g>
</g>
<!-- Node3&#45;&gt;Node91 -->
<g id="edge41" class="edge">
<title>Node3&#45;&gt;Node91</title>
<path fill="none" stroke="#63b8ff" d="M2981.34,-145.88C3217.57,-145.08 4011.21,-139.18 4261.37,-96 4264.38,-95.48 4267.43,-94.86 4270.5,-94.15"/>
<polygon fill="#63b8ff" stroke="#63b8ff" points="2981.36,-142.38 2971.37,-145.91 2981.38,-149.38 2981.36,-142.38"/>
</g>
<!-- Node92 -->
<g id="node40" class="node">
<title>Node92</title>
<g id="a_node40"><a xlink:href="d__a__tag__gra_8h.html" target="_top" xlink:title=" ">
<polygon fill="white" stroke="#666666" points="4530.87,-90.5 4393.87,-90.5 4393.87,-60.5 4530.87,-60.5 4530.87,-90.5"/>
<text text-anchor="start" x="4401.87" y="-78.5" font-family="Helvetica,sans-Serif" font-size="10.00">include/rel/d/a/tag</text>
<text text-anchor="middle" x="4462.37" y="-67.5" font-family="Helvetica,sans-Serif" font-size="10.00">/d_a_tag_gra/d_a_tag_gra.h</text>
</a>
</g>
</g>
<!-- Node3&#45;&gt;Node92 -->
<g id="edge42" class="edge">
<title>Node3&#45;&gt;Node92</title>
<path fill="none" stroke="#63b8ff" d="M2981.07,-145.63C3230.57,-143.94 4108.63,-135.28 4385.37,-96 4393.97,-94.78 4403.01,-92.98 4411.73,-90.96"/>
<polygon fill="#63b8ff" stroke="#63b8ff" points="2981.16,-142.13 2971.19,-145.69 2981.21,-149.13 2981.16,-142.13"/>
</g>
<!-- Node93 -->
<g id="node41" class="node">
<title>Node93</title>
<g id="a_node41"><a xlink:href="d__a__tag__hinit_8h.html" target="_top" xlink:title=" ">
<polygon fill="white" stroke="#666666" points="4663.87,-96 4548.87,-96 4548.87,-55 4663.87,-55 4663.87,-96"/>
<text text-anchor="start" x="4556.87" y="-84" font-family="Helvetica,sans-Serif" font-size="10.00">include/rel/d/a/tag</text>
<text text-anchor="start" x="4556.87" y="-73" font-family="Helvetica,sans-Serif" font-size="10.00">/d_a_tag_hinit/d_a_tag</text>
<text text-anchor="middle" x="4606.37" y="-62" font-family="Helvetica,sans-Serif" font-size="10.00">_hinit.h</text>
</a>
</g>
</g>
<!-- Node3&#45;&gt;Node93 -->
<g id="edge43" class="edge">
<title>Node3&#45;&gt;Node93</title>
<path fill="none" stroke="#63b8ff" d="M2980.98,-146.22C3246.84,-146.77 4232.62,-145.35 4540.37,-96 4543.09,-95.56 4545.84,-95.05 4548.62,-94.47"/>
<polygon fill="#63b8ff" stroke="#63b8ff" points="2981.12,-142.73 2971.11,-146.2 2981.11,-149.73 2981.12,-142.73"/>
</g>
<!-- Node94 -->
<g id="node42" class="node">
<title>Node94</title>
<g id="a_node42"><a xlink:href="d__a__tag__howl_8h.html" target="_top" xlink:title=" ">
<polygon fill="white" stroke="#666666" points="4798.87,-96 4681.87,-96 4681.87,-55 4798.87,-55 4798.87,-96"/>
<text text-anchor="start" x="4689.87" y="-84" font-family="Helvetica,sans-Serif" font-size="10.00">include/rel/d/a/tag</text>
<text text-anchor="start" x="4689.87" y="-73" font-family="Helvetica,sans-Serif" font-size="10.00">/d_a_tag_howl/d_a_tag</text>
<text text-anchor="middle" x="4740.37" y="-62" font-family="Helvetica,sans-Serif" font-size="10.00">_howl.h</text>
</a>
</g>
</g>
<!-- Node3&#45;&gt;Node94 -->
<g id="edge44" class="edge">
<title>Node3&#45;&gt;Node94</title>
<path fill="none" stroke="#63b8ff" d="M2980.84,-146.37C3259.94,-147.58 4338.11,-148.67 4673.37,-96 4676.13,-95.57 4678.92,-95.06 4681.74,-94.48"/>
<polygon fill="#63b8ff" stroke="#63b8ff" points="2981.23,-142.87 2971.21,-146.33 2981.2,-149.87 2981.23,-142.87"/>
</g>
<!-- Node95 -->
<g id="node43" class="node">
<title>Node95</title>
<g id="a_node43"><a xlink:href="d__a__tag__lv6CstaSw_8h.html" target="_top" xlink:title=" ">
<polygon fill="white" stroke="#666666" points="4931.87,-96 4816.87,-96 4816.87,-55 4931.87,-55 4931.87,-96"/>
<text text-anchor="start" x="4824.87" y="-84" font-family="Helvetica,sans-Serif" font-size="10.00">include/rel/d/a/tag</text>
<text text-anchor="start" x="4824.87" y="-73" font-family="Helvetica,sans-Serif" font-size="10.00">/d_a_tag_lv6CstaSw/d</text>
<text text-anchor="middle" x="4874.37" y="-62" font-family="Helvetica,sans-Serif" font-size="10.00">_a_tag_lv6CstaSw.h</text>
</a>
</g>
</g>
<!-- Node3&#45;&gt;Node95 -->
<g id="edge45" class="edge">
<title>Node3&#45;&gt;Node95</title>
<path fill="none" stroke="#63b8ff" d="M2980.97,-145.27C3295.58,-141.69 4625.24,-124.96 4808.37,-96 4811.09,-95.57 4813.85,-95.06 4816.62,-94.49"/>
<polygon fill="#63b8ff" stroke="#63b8ff" points="2981.25,-141.77 2971.29,-145.38 2981.33,-148.77 2981.25,-141.77"/>
</g>
<!-- Node96 -->
<g id="node44" class="node">
<title>Node96</title>
<g id="a_node44"><a xlink:href="d__a__tag__ret__room_8h.html" target="_top" xlink:title=" ">
<polygon fill="white" stroke="#666666" points="5056.37,-96 4950.37,-96 4950.37,-55 5056.37,-55 5056.37,-96"/>
<text text-anchor="start" x="4958.37" y="-84" font-family="Helvetica,sans-Serif" font-size="10.00">include/rel/d/a/tag</text>
<text text-anchor="start" x="4958.37" y="-73" font-family="Helvetica,sans-Serif" font-size="10.00">/d_a_tag_ret_room/d</text>
<text text-anchor="middle" x="5003.37" y="-62" font-family="Helvetica,sans-Serif" font-size="10.00">_a_tag_ret_room.h</text>
</a>
</g>
</g>
<!-- Node3&#45;&gt;Node96 -->
<g id="edge46" class="edge">
<title>Node3&#45;&gt;Node96</title>
<path fill="none" stroke="#63b8ff" d="M2980.81,-145.47C3308.49,-142.68 4744.69,-128.69 4941.37,-96 4944.27,-95.52 4947.21,-94.93 4950.17,-94.27"/>
<polygon fill="#63b8ff" stroke="#63b8ff" points="2981.11,-141.96 2971.14,-145.55 2981.17,-148.96 2981.11,-141.96"/>
</g>
<!-- Node97 -->
<g id="node45" class="node">
<title>Node97</title>
<g id="a_node45"><a xlink:href="d__a__tag__smk__emt_8h.html" target="_top" xlink:title=" ">
<polygon fill="white" stroke="#666666" points="5193.87,-96 5074.87,-96 5074.87,-55 5193.87,-55 5193.87,-96"/>
<text text-anchor="start" x="5082.87" y="-84" font-family="Helvetica,sans-Serif" font-size="10.00">include/rel/d/a/tag</text>
<text text-anchor="start" x="5082.87" y="-73" font-family="Helvetica,sans-Serif" font-size="10.00">/d_a_tag_smk_emt/d_a</text>
<text text-anchor="middle" x="5134.37" y="-62" font-family="Helvetica,sans-Serif" font-size="10.00">_tag_smk_emt.h</text>
</a>
</g>
</g>
<!-- Node3&#45;&gt;Node97 -->
<g id="edge47" class="edge">
<title>Node3&#45;&gt;Node97</title>
<path fill="none" stroke="#63b8ff" d="M2981.23,-145.45C3321.75,-142.51 4855.42,-127.59 5065.37,-96 5068.45,-95.54 5071.58,-94.98 5074.74,-94.35"/>
<polygon fill="#63b8ff" stroke="#63b8ff" points="2981.34,-141.95 2971.37,-145.53 2981.4,-148.95 2981.34,-141.95"/>
</g>
<!-- Node98 -->
<g id="node46" class="node">
<title>Node98</title>
<g id="a_node46"><a xlink:href="d__a__tag__spring_8h.html" target="_top" xlink:title=" ">
<polygon fill="white" stroke="#666666" points="5316.37,-96 5212.37,-96 5212.37,-55 5316.37,-55 5316.37,-96"/>
<text text-anchor="start" x="5220.37" y="-84" font-family="Helvetica,sans-Serif" font-size="10.00">include/rel/d/a/tag</text>
<text text-anchor="start" x="5220.37" y="-73" font-family="Helvetica,sans-Serif" font-size="10.00">/d_a_tag_spring/d_a</text>
<text text-anchor="middle" x="5264.37" y="-62" font-family="Helvetica,sans-Serif" font-size="10.00">_tag_spring.h</text>
</a>
</g>
</g>
<!-- Node3&#45;&gt;Node98 -->
<g id="edge48" class="edge">
<title>Node3&#45;&gt;Node98</title>
<path fill="none" stroke="#63b8ff" d="M2980.93,-145.69C3333.95,-143.86 4979.57,-133.41 5203.37,-96 5206.22,-95.52 5209.13,-94.94 5212.04,-94.28"/>
<polygon fill="#63b8ff" stroke="#63b8ff" points="2981.15,-142.18 2971.16,-145.73 2981.18,-149.18 2981.15,-142.18"/>
</g>
<!-- Node99 -->
<g id="node47" class="node">
<title>Node99</title>
<g id="a_node47"><a xlink:href="d__a__tag__stream_8h.html" target="_top" xlink:title=" ">
<polygon fill="white" stroke="#666666" points="5442.37,-96 5334.37,-96 5334.37,-55 5442.37,-55 5442.37,-96"/>
<text text-anchor="start" x="5342.37" y="-84" font-family="Helvetica,sans-Serif" font-size="10.00">include/rel/d/a/tag</text>
<text text-anchor="start" x="5342.37" y="-73" font-family="Helvetica,sans-Serif" font-size="10.00">/d_a_tag_stream/d_a</text>
<text text-anchor="middle" x="5388.37" y="-62" font-family="Helvetica,sans-Serif" font-size="10.00">_tag_stream.h</text>
</a>
</g>
</g>
<!-- Node3&#45;&gt;Node99 -->
<g id="edge49" class="edge">
<title>Node3&#45;&gt;Node99</title>
<path fill="none" stroke="#63b8ff" d="M2981.21,-145.73C3346.01,-144.09 5088.75,-134.3 5325.37,-96 5328.2,-95.54 5331.07,-94.99 5333.96,-94.36"/>
<polygon fill="#63b8ff" stroke="#63b8ff" points="2981.32,-142.23 2971.34,-145.77 2981.35,-149.23 2981.32,-142.23"/>
</g>
<!-- Node100 -->
<g id="node48" class="node">
<title>Node100</title>
<g id="a_node48"><a xlink:href="d__a__tag__telop_8h.html" target="_top" xlink:title=" ">
<polygon fill="white" stroke="#666666" points="5578.37,-96 5460.37,-96 5460.37,-55 5578.37,-55 5578.37,-96"/>
<text text-anchor="start" x="5468.37" y="-84" font-family="Helvetica,sans-Serif" font-size="10.00">include/rel/d/a/tag</text>
<text text-anchor="start" x="5468.37" y="-73" font-family="Helvetica,sans-Serif" font-size="10.00">/d_a_tag_telop/d_a_tag</text>
<text text-anchor="middle" x="5519.37" y="-62" font-family="Helvetica,sans-Serif" font-size="10.00">_telop.h</text>
</a>
</g>
</g>
<!-- Node3&#45;&gt;Node100 -->
<g id="edge50" class="edge">
<title>Node3&#45;&gt;Node100</title>
<path fill="none" stroke="#63b8ff" d="M2981.34,-145.72C3357.66,-143.99 5201.23,-133.67 5451.37,-96 5454.29,-95.56 5457.25,-95.03 5460.24,-94.44"/>
<polygon fill="#63b8ff" stroke="#63b8ff" points="2981.36,-142.22 2971.37,-145.76 2981.39,-149.22 2981.36,-142.22"/>
</g>
<!-- Node101 -->
<g id="node49" class="node">
<title>Node101</title>
<g id="a_node49"><a xlink:href="d__a__tag__theB__hint_8h.html" target="_top" xlink:title=" ">
<polygon fill="white" stroke="#666666" points="5705.87,-96 5596.87,-96 5596.87,-55 5705.87,-55 5705.87,-96"/>
<text text-anchor="start" x="5604.87" y="-84" font-family="Helvetica,sans-Serif" font-size="10.00">include/rel/d/a/tag</text>
<text text-anchor="start" x="5604.87" y="-73" font-family="Helvetica,sans-Serif" font-size="10.00">/d_a_tag_theB_hint/d</text>
<text text-anchor="middle" x="5651.37" y="-62" font-family="Helvetica,sans-Serif" font-size="10.00">_a_tag_theB_hint.h</text>
</a>
</g>
</g>
<!-- Node3&#45;&gt;Node101 -->
<g id="edge51" class="edge">
<title>Node3&#45;&gt;Node101</title>
<path fill="none" stroke="#63b8ff" d="M2980.88,-145.86C3368.04,-144.88 5323.23,-137.88 5587.37,-96 5590.36,-95.53 5593.39,-94.95 5596.44,-94.29"/>
<polygon fill="#63b8ff" stroke="#63b8ff" points="2981.13,-142.36 2971.14,-145.88 2981.14,-149.36 2981.13,-142.36"/>
</g>
<!-- Node102 -->
<g id="node50" class="node">
<title>Node102</title>
<g id="a_node50"><a xlink:href="d__a__tag__watchge_8h.html" target="_top" xlink:title=" ">
<polygon fill="white" stroke="#666666" points="5838.87,-96 5723.87,-96 5723.87,-55 5838.87,-55 5838.87,-96"/>
<text text-anchor="start" x="5731.87" y="-84" font-family="Helvetica,sans-Serif" font-size="10.00">include/rel/d/a/tag</text>
<text text-anchor="start" x="5731.87" y="-73" font-family="Helvetica,sans-Serif" font-size="10.00">/d_a_tag_watchge/d_a</text>
<text text-anchor="middle" x="5781.37" y="-62" font-family="Helvetica,sans-Serif" font-size="10.00">_tag_watchge.h</text>
</a>
</g>
</g>
<!-- Node3&#45;&gt;Node102 -->
<g id="edge52" class="edge">
<title>Node3&#45;&gt;Node102</title>
<path fill="none" stroke="#63b8ff" d="M2981.17,-145.88C3379.9,-145.05 5437.72,-138.69 5715.37,-96 5718.09,-95.58 5720.85,-95.08 5723.63,-94.52"/>
<polygon fill="#63b8ff" stroke="#63b8ff" points="2981.37,-142.38 2971.38,-145.9 2981.39,-149.38 2981.37,-142.38"/>
</g>
<!-- Node16&#45;&gt;Node13 -->
<g id="edge6" class="edge">
<title>Node16&#45;&gt;Node13</title>
<path fill="none" stroke="#63b8ff" d="M982.37,-54.18C982.37,-42.44 982.37,-28.27 982.37,-19.32"/>
<polygon fill="#63b8ff" stroke="#63b8ff" points="978.87,-54.09 982.37,-64.09 985.87,-54.09 978.87,-54.09"/>
</g>
<!-- Node40&#45;&gt;Node4 -->
<g id="edge14" class="edge">
<title>Node40&#45;&gt;Node4</title>
<path fill="none" stroke="#63b8ff" d="M5927.57,-50.78C5934.6,-39.81 5942.52,-27.44 5947.71,-19.34"/>
<polygon fill="#63b8ff" stroke="#63b8ff" points="5924.74,-48.71 5922.29,-59.02 5930.63,-52.49 5924.74,-48.71"/>
</g>
<!-- Node40&#45;&gt;Node13 -->
<g id="edge15" class="edge">
<title>Node40&#45;&gt;Node13</title>
<path fill="none" stroke="#63b8ff" d="M5860.1,-57.25C5856.16,-56.36 5852.22,-55.59 5848.37,-55 5598.39,-16.59 1557.19,-11.1 1037.29,-10.55"/>
<polygon fill="#63b8ff" stroke="#63b8ff" points="5859.1,-60.61 5869.65,-59.68 5860.82,-53.83 5859.1,-60.61"/>
</g>
<!-- Node78&#45;&gt;Node13 -->
<g id="edge30" class="edge">
<title>Node78&#45;&gt;Node13</title>
<path fill="none" stroke="#63b8ff" d="M2791.79,-57.37C2787.61,-56.44 2783.44,-55.63 2779.37,-55 2603.88,-27.76 1319.75,-13.78 1037.24,-11.01"/>
<polygon fill="#63b8ff" stroke="#63b8ff" points="2790.76,-60.72 2801.3,-59.69 2792.42,-53.92 2790.76,-60.72"/>
</g>
</g>
</svg>
