<?xml version="1.0" encoding="UTF-8" standalone="no"?>
<!DOCTYPE svg PUBLIC "-//W3C//DTD SVG 1.1//EN"
 "http://www.w3.org/Graphics/SVG/1.1/DTD/svg11.dtd">
<!-- Generated by graphviz version 7.0.5 (20221223.1930)
 -->
<!-- Title: include/d/bg/d_bg_w_base.h Pages: 1 -->
<svg width="4833pt" height="313pt"
 viewBox="0.00 0.00 4833.00 313.00" xmlns="http://www.w3.org/2000/svg" xmlns:xlink="http://www.w3.org/1999/xlink">
<g id="graph0" class="graph" transform="scale(1 1) rotate(0) translate(4 309)">
<title>include/d/bg/d_bg_w_base.h</title>
<!-- Node1 -->
<g id="node1" class="node">
<title>Node1</title>
<g id="a_node1"><a xlink:title=" ">
<polygon fill="#999999" stroke="#666666" points="4421.5,-305 4315.5,-305 4315.5,-275 4421.5,-275 4421.5,-305"/>
<text text-anchor="start" x="4323.5" y="-293" font-family="Helvetica,sans-Serif" font-size="10.00">include/d/bg/d_bg_w</text>
<text text-anchor="middle" x="4368.5" y="-282" font-family="Helvetica,sans-Serif" font-size="10.00">_base.h</text>
</a>
</g>
</g>
<!-- Node2 -->
<g id="node2" class="node">
<title>Node2</title>
<g id="a_node2"><a xlink:href="d__a__alink_8h.html" target="_top" xlink:title=" ">
<polygon fill="white" stroke="#666666" points="400.5,-96 284.5,-96 284.5,-77 400.5,-77 400.5,-96"/>
<text text-anchor="middle" x="342.5" y="-84" font-family="Helvetica,sans-Serif" font-size="10.00">include/d/a/d_a_alink.h</text>
</a>
</g>
</g>
<!-- Node1&#45;&gt;Node2 -->
<g id="edge1" class="edge">
<title>Node1&#45;&gt;Node2</title>
<path fill="none" stroke="#63b8ff" d="M4303.69,-288.12C3854.9,-281.75 1203.81,-238.92 409.5,-107 395.52,-104.68 380.32,-100.41 367.94,-96.45"/>
<polygon fill="#63b8ff" stroke="#63b8ff" points="4303.55,-291.62 4313.59,-288.26 4303.64,-284.62 4303.55,-291.62"/>
</g>
<!-- Node11 -->
<g id="node11" class="node">
<title>Node11</title>
<g id="a_node11"><a xlink:href="d__bg__s_8h.html" target="_top" xlink:title=" ">
<polygon fill="white" stroke="#666666" points="4265,-233.5 4154,-233.5 4154,-214.5 4265,-214.5 4265,-233.5"/>
<text text-anchor="middle" x="4209.5" y="-221.5" font-family="Helvetica,sans-Serif" font-size="10.00">include/d/bg/d_bg_s.h</text>
</a>
</g>
</g>
<!-- Node1&#45;&gt;Node11 -->
<g id="edge10" class="edge">
<title>Node1&#45;&gt;Node11</title>
<path fill="none" stroke="#63b8ff" d="M4322.24,-270.38C4292.49,-258.41 4255.17,-243.38 4231.82,-233.99"/>
<polygon fill="#63b8ff" stroke="#63b8ff" points="4320.83,-273.58 4331.41,-274.07 4323.44,-267.09 4320.83,-273.58"/>
</g>
<!-- Node182 -->
<g id="node45" class="node">
<title>Node182</title>
<g id="a_node45"><a xlink:href="d__bg__w_8h.html" target="_top" xlink:title=" ">
<polygon fill="white" stroke="#666666" points="4463,-167.5 4350,-167.5 4350,-148.5 4463,-148.5 4463,-167.5"/>
<text text-anchor="middle" x="4406.5" y="-155.5" font-family="Helvetica,sans-Serif" font-size="10.00">include/d/bg/d_bg_w.h</text>
</a>
</g>
</g>
<!-- Node1&#45;&gt;Node182 -->
<g id="edge54" class="edge">
<title>Node1&#45;&gt;Node182</title>
<path fill="none" stroke="#63b8ff" d="M4373.64,-263.65C4377.07,-247.81 4381.95,-227.05 4387.5,-209 4392.03,-194.27 4398.67,-177.62 4402.79,-167.73"/>
<polygon fill="#63b8ff" stroke="#63b8ff" points="4370.26,-262.7 4371.62,-273.21 4377.11,-264.14 4370.26,-262.7"/>
</g>
<!-- Node186 -->
<g id="node48" class="node">
<title>Node186</title>
<g id="a_node48"><a xlink:href="d__bg__w__kcol_8h.html" target="_top" xlink:title=" ">
<polygon fill="white" stroke="#666666" points="4502.5,-239 4396.5,-239 4396.5,-209 4502.5,-209 4502.5,-239"/>
<text text-anchor="start" x="4404.5" y="-227" font-family="Helvetica,sans-Serif" font-size="10.00">include/d/bg/d_bg_w</text>
<text text-anchor="middle" x="4449.5" y="-216" font-family="Helvetica,sans-Serif" font-size="10.00">_kcol.h</text>
</a>
</g>
</g>
<!-- Node1&#45;&gt;Node186 -->
<g id="edge60" class="edge">
<title>Node1&#45;&gt;Node186</title>
<path fill="none" stroke="#63b8ff" d="M4395.46,-267.7C4407.23,-258.4 4420.73,-247.73 4431.29,-239.39"/>
<polygon fill="#63b8ff" stroke="#63b8ff" points="4393.34,-264.91 4387.66,-273.86 4397.68,-270.4 4393.34,-264.91"/>
</g>
<!-- Node188 -->
<g id="node50" class="node">
<title>Node188</title>
<g id="a_node50"><a xlink:href="d__bg__w__base_8cpp.html" target="_top" xlink:title=" ">
<polygon fill="white" stroke="#666666" points="4654,-233.5 4521,-233.5 4521,-214.5 4654,-214.5 4654,-233.5"/>
<text text-anchor="middle" x="4587.5" y="-221.5" font-family="Helvetica,sans-Serif" font-size="10.00">src/d/bg/d_bg_w_base.cpp</text>
</a>
</g>
</g>
<!-- Node1&#45;&gt;Node188 -->
<g id="edge62" class="edge">
<title>Node1&#45;&gt;Node188</title>
<path fill="none" stroke="#63b8ff" d="M4428.75,-271.39C4470.28,-259.26 4523.76,-243.63 4556.83,-233.96"/>
<polygon fill="#63b8ff" stroke="#63b8ff" points="4427.99,-267.97 4419.37,-274.13 4429.95,-274.69 4427.99,-267.97"/>
</g>
<!-- Node3 -->
<g id="node3" class="node">
<title>Node3</title>
<g id="a_node3"><a xlink:href="d__a__alink_8cpp.html" target="_top" xlink:title=" ">
<polygon fill="white" stroke="#666666" points="528,-24.5 419,-24.5 419,-5.5 528,-5.5 528,-24.5"/>
<text text-anchor="middle" x="473.5" y="-12.5" font-family="Helvetica,sans-Serif" font-size="10.00">src/d/a/d_a_alink.cpp</text>
</a>
</g>
</g>
<!-- Node2&#45;&gt;Node3 -->
<g id="edge2" class="edge">
<title>Node2&#45;&gt;Node3</title>
<path fill="none" stroke="#63b8ff" d="M369.38,-71.24C395.59,-57.33 434.63,-36.62 456.71,-24.91"/>
<polygon fill="#63b8ff" stroke="#63b8ff" points="367.89,-68.07 360.69,-75.85 371.17,-74.25 367.89,-68.07"/>
</g>
<!-- Node4 -->
<g id="node4" class="node">
<title>Node4</title>
<g id="a_node4"><a xlink:href="d__a__player_8cpp.html" target="_top" xlink:title=" ">
<polygon fill="white" stroke="#666666" points="2176.5,-24.5 2062.5,-24.5 2062.5,-5.5 2176.5,-5.5 2176.5,-24.5"/>
<text text-anchor="middle" x="2119.5" y="-12.5" font-family="Helvetica,sans-Serif" font-size="10.00">src/d/a/d_a_player.cpp</text>
</a>
</g>
</g>
<!-- Node2&#45;&gt;Node4 -->
<g id="edge3" class="edge">
<title>Node2&#45;&gt;Node4</title>
<path fill="none" stroke="#63b8ff" d="M378.37,-73.24C388.34,-70.34 399.24,-67.62 409.5,-66 738.46,-14.19 1803.24,-14.78 2062.3,-15.73"/>
<polygon fill="#63b8ff" stroke="#63b8ff" points="377.59,-69.82 369.05,-76.1 379.64,-76.51 377.59,-69.82"/>
</g>
<!-- Node5 -->
<g id="node5" class="node">
<title>Node5</title>
<g id="a_node5"><a xlink:href="d__com__inf__game_8cpp.html" target="_top" xlink:title=" ">
<polygon fill="white" stroke="#666666" points="3060.5,-30 2952.5,-30 2952.5,0 3060.5,0 3060.5,-30"/>
<text text-anchor="start" x="2960.5" y="-18" font-family="Helvetica,sans-Serif" font-size="10.00">src/d/com/d_com_inf</text>
<text text-anchor="middle" x="3006.5" y="-7" font-family="Helvetica,sans-Serif" font-size="10.00">_game.cpp</text>
</a>
</g>
</g>
<!-- Node2&#45;&gt;Node5 -->
<g id="edge4" class="edge">
<title>Node2&#45;&gt;Node5</title>
<path fill="none" stroke="#63b8ff" d="M378.11,-73.25C388.14,-70.31 399.15,-67.58 409.5,-66 442.07,-61.04 2581.49,-23.43 2952.09,-16.95"/>
<polygon fill="#63b8ff" stroke="#63b8ff" points="377.25,-69.85 368.73,-76.14 379.32,-76.54 377.25,-69.85"/>
</g>
<!-- Node6 -->
<g id="node6" class="node">
<title>Node6</title>
<g id="a_node6"><a xlink:href="d__camera_8cpp.html" target="_top" xlink:title=" ">
<polygon fill="white" stroke="#666666" points="3559.5,-24.5 3457.5,-24.5 3457.5,-5.5 3559.5,-5.5 3559.5,-24.5"/>
<text text-anchor="middle" x="3508.5" y="-12.5" font-family="Helvetica,sans-Serif" font-size="10.00">src/d/d_camera.cpp</text>
</a>
</g>
</g>
<!-- Node2&#45;&gt;Node6 -->
<g id="edge5" class="edge">
<title>Node2&#45;&gt;Node6</title>
<path fill="none" stroke="#63b8ff" d="M378.1,-73.21C388.14,-70.28 399.14,-67.55 409.5,-66 701.83,-22.3 2773.99,-36.71 3069.5,-30 3209.77,-26.81 3375.19,-20.98 3457.14,-17.94"/>
<polygon fill="#63b8ff" stroke="#63b8ff" points="377.24,-69.81 368.72,-76.11 379.31,-76.5 377.24,-69.81"/>
</g>
<!-- Node7 -->
<g id="node7" class="node">
<title>Node7</title>
<g id="a_node7"><a xlink:href="d__event_8cpp.html" target="_top" xlink:title=" ">
<polygon fill="white" stroke="#666666" points="272,-24.5 151,-24.5 151,-5.5 272,-5.5 272,-24.5"/>
<text text-anchor="middle" x="211.5" y="-12.5" font-family="Helvetica,sans-Serif" font-size="10.00">src/d/event/d_event.cpp</text>
</a>
</g>
</g>
<!-- Node2&#45;&gt;Node7 -->
<g id="edge6" class="edge">
<title>Node2&#45;&gt;Node7</title>
<path fill="none" stroke="#63b8ff" d="M315.62,-71.24C289.41,-57.33 250.37,-36.62 228.29,-24.91"/>
<polygon fill="#63b8ff" stroke="#63b8ff" points="313.83,-74.25 324.31,-75.85 317.11,-68.07 313.83,-74.25"/>
</g>
<!-- Node8 -->
<g id="node8" class="node">
<title>Node8</title>
<g id="a_node8"><a xlink:href="d__meter2__draw_8cpp.html" target="_top" xlink:title=" ">
<polygon fill="white" stroke="#666666" points="400.5,-30 290.5,-30 290.5,0 400.5,0 400.5,-30"/>
<text text-anchor="start" x="298.5" y="-18" font-family="Helvetica,sans-Serif" font-size="10.00">src/d/meter/d_meter2</text>
<text text-anchor="middle" x="345.5" y="-7" font-family="Helvetica,sans-Serif" font-size="10.00">_draw.cpp</text>
</a>
</g>
</g>
<!-- Node2&#45;&gt;Node8 -->
<g id="edge7" class="edge">
<title>Node2&#45;&gt;Node8</title>
<path fill="none" stroke="#63b8ff" d="M343.37,-65.39C343.85,-54.15 344.45,-40.41 344.88,-30.27"/>
<polygon fill="#63b8ff" stroke="#63b8ff" points="339.88,-65.04 342.95,-75.19 346.87,-65.35 339.88,-65.04"/>
</g>
<!-- Node9 -->
<g id="node9" class="node">
<title>Node9</title>
<g id="a_node9"><a xlink:href="d__msg__flow_8cpp.html" target="_top" xlink:title=" ">
<polygon fill="white" stroke="#666666" points="133,-24.5 0,-24.5 0,-5.5 133,-5.5 133,-24.5"/>
<text text-anchor="middle" x="66.5" y="-12.5" font-family="Helvetica,sans-Serif" font-size="10.00">src/d/msg/d_msg_flow.cpp</text>
</a>
</g>
</g>
<!-- Node2&#45;&gt;Node9 -->
<g id="edge8" class="edge">
<title>Node2&#45;&gt;Node9</title>
<path fill="none" stroke="#63b8ff" d="M302.14,-73.41C293.38,-70.88 284.15,-68.29 275.5,-66 216.9,-50.47 148.48,-34.51 106.32,-24.92"/>
<polygon fill="#63b8ff" stroke="#63b8ff" points="300.87,-76.69 311.45,-76.13 302.83,-69.97 300.87,-76.69"/>
</g>
<!-- Node10 -->
<g id="node10" class="node">
<title>Node10</title>
<g id="a_node10"><a xlink:href="f__op__actor_8cpp.html" target="_top" xlink:title=" ">
<polygon fill="white" stroke="#666666" points="3887,-24.5 3768,-24.5 3768,-5.5 3887,-5.5 3887,-24.5"/>
<text text-anchor="middle" x="3827.5" y="-12.5" font-family="Helvetica,sans-Serif" font-size="10.00">src/f_op/f_op_actor.cpp</text>
</a>
</g>
</g>
<!-- Node2&#45;&gt;Node10 -->
<g id="edge9" class="edge">
<title>Node2&#45;&gt;Node10</title>
<path fill="none" stroke="#63b8ff" d="M378.1,-73.19C388.13,-70.26 399.14,-67.54 409.5,-66 756.72,-14.48 3217.66,-41.48 3568.5,-30 3636.8,-27.77 3715.13,-23.26 3767.61,-19.96"/>
<polygon fill="#63b8ff" stroke="#63b8ff" points="377.24,-69.8 368.72,-76.09 379.31,-76.48 377.24,-69.8"/>
</g>
<!-- Node12 -->
<g id="node12" class="node">
<title>Node12</title>
<g id="a_node12"><a xlink:href="d__com__inf__game_8h.html" target="_top" xlink:title=" ">
<polygon fill="#fff0f0" stroke="red" points="2683.5,-173 2573.5,-173 2573.5,-143 2683.5,-143 2683.5,-173"/>
<text text-anchor="start" x="2581.5" y="-161" font-family="Helvetica,sans-Serif" font-size="10.00">include/d/com/d_com</text>
<text text-anchor="middle" x="2628.5" y="-150" font-family="Helvetica,sans-Serif" font-size="10.00">_inf_game.h</text>
</a>
</g>
</g>
<!-- Node11&#45;&gt;Node12 -->
<g id="edge11" class="edge">
<title>Node11&#45;&gt;Node12</title>
<path fill="none" stroke="#63b8ff" d="M4142.45,-220.29C3879.89,-209.66 2924.27,-170.97 2683.74,-161.24"/>
<polygon fill="#63b8ff" stroke="#63b8ff" points="4142.05,-223.77 4152.18,-220.68 4142.33,-216.78 4142.05,-223.77"/>
</g>
<!-- Node122 -->
<g id="node41" class="node">
<title>Node122</title>
<g id="a_node41"><a xlink:href="d__bg__s_8cpp.html" target="_top" xlink:title=" ">
<polygon fill="white" stroke="#666666" points="4279.5,-96 4175.5,-96 4175.5,-77 4279.5,-77 4279.5,-96"/>
<text text-anchor="middle" x="4227.5" y="-84" font-family="Helvetica,sans-Serif" font-size="10.00">src/d/bg/d_bg_s.cpp</text>
</a>
</g>
</g>
<!-- Node11&#45;&gt;Node122 -->
<g id="edge52" class="edge">
<title>Node11&#45;&gt;Node122</title>
<path fill="none" stroke="#63b8ff" d="M4199.63,-203.64C4192.63,-187.32 4185.45,-163.43 4191.5,-143 4196.91,-124.72 4210.44,-106.81 4219.29,-96.48"/>
<polygon fill="#63b8ff" stroke="#63b8ff" points="4196.45,-205.09 4203.87,-212.65 4202.79,-202.11 4196.45,-205.09"/>
</g>
<!-- Node181 -->
<g id="node44" class="node">
<title>Node181</title>
<g id="a_node44"><a xlink:href="d__bg__s__acch_8cpp.html" target="_top" xlink:title=" ">
<polygon fill="white" stroke="#666666" points="4332,-167.5 4201,-167.5 4201,-148.5 4332,-148.5 4332,-167.5"/>
<text text-anchor="middle" x="4266.5" y="-155.5" font-family="Helvetica,sans-Serif" font-size="10.00">src/d/bg/d_bg_s_acch.cpp</text>
</a>
</g>
</g>
<!-- Node11&#45;&gt;Node181 -->
<g id="edge53" class="edge">
<title>Node11&#45;&gt;Node181</title>
<path fill="none" stroke="#63b8ff" d="M4224.98,-205.62C4235.87,-193.39 4249.99,-177.54 4258.64,-167.82"/>
<polygon fill="#63b8ff" stroke="#63b8ff" points="4222.47,-203.18 4218.43,-212.97 4227.7,-207.83 4222.47,-203.18"/>
</g>
<!-- Node12&#45;&gt;Node5 -->
<g id="edge49" class="edge">
<title>Node12&#45;&gt;Node5</title>
<path fill="none" stroke="#63b8ff" d="M2695.12,-156.96C2953.81,-156.46 3879.61,-151.58 3922.5,-107 3935.13,-93.87 3935.03,-79.23 3922.5,-66 3907.6,-50.26 3255.32,-25.12 3060.74,-17.96"/>
<polygon fill="#63b8ff" stroke="#63b8ff" points="2695.17,-153.46 2685.18,-156.97 2695.19,-160.46 2695.17,-153.46"/>
</g>
<!-- Node12&#45;&gt;Node6 -->
<g id="edge50" class="edge">
<title>Node12&#45;&gt;Node6</title>
<path fill="none" stroke="#63b8ff" d="M2694.83,-157C2955.55,-156.66 3897.9,-152.29 3941.5,-107 3954.14,-93.87 3953.62,-79.6 3941.5,-66 3916.45,-37.89 3668.7,-23.27 3559.61,-18.15"/>
<polygon fill="#63b8ff" stroke="#63b8ff" points="2695.17,-153.49 2685.17,-157.01 2695.17,-160.49 2695.17,-153.49"/>
</g>
<!-- Node12&#45;&gt;Node10 -->
<g id="edge51" class="edge">
<title>Node12&#45;&gt;Node10</title>
<path fill="none" stroke="#63b8ff" d="M2694.9,-157.03C2958.14,-156.84 3916.21,-152.99 3960.5,-107 3973.14,-93.88 3970.87,-80.98 3960.5,-66 3943.93,-42.07 3914.38,-29.58 3887.33,-23.06"/>
<polygon fill="#63b8ff" stroke="#63b8ff" points="2695.14,-153.53 2685.14,-157.04 2695.14,-160.53 2695.14,-153.53"/>
</g>
<!-- Node13 -->
<g id="node13" class="node">
<title>Node13</title>
<g id="a_node13"><a xlink:href="d__a__npc_8h.html" target="_top" xlink:title=" ">
<polygon fill="#fff0f0" stroke="red" points="4157,-96 4046,-96 4046,-77 4157,-77 4157,-96"/>
<text text-anchor="middle" x="4101.5" y="-84" font-family="Helvetica,sans-Serif" font-size="10.00">include/d/a/d_a_npc.h</text>
</a>
</g>
</g>
<!-- Node12&#45;&gt;Node13 -->
<g id="edge12" class="edge">
<title>Node12&#45;&gt;Node13</title>
<path fill="none" stroke="#63b8ff" d="M2695.35,-156.71C2937.63,-155.32 3769.19,-147.62 4031.5,-107 4046.21,-104.72 4062.23,-100.4 4075.23,-96.4"/>
<polygon fill="#63b8ff" stroke="#63b8ff" points="2695.42,-153.21 2685.44,-156.76 2695.46,-160.21 2695.42,-153.21"/>
</g>
<!-- Node19 -->
<g id="node14" class="node">
<title>Node19</title>
<g id="a_node14"><a xlink:href="d__cc__uty_8h.html" target="_top" xlink:title=" ">
<polygon fill="#fff0f0" stroke="red" points="538,-96 419,-96 419,-77 538,-77 538,-96"/>
<text text-anchor="middle" x="478.5" y="-84" font-family="Helvetica,sans-Serif" font-size="10.00">include/d/cc/d_cc_uty.h</text>
</a>
</g>
</g>
<!-- Node12&#45;&gt;Node19 -->
<g id="edge13" class="edge">
<title>Node12&#45;&gt;Node19</title>
<path fill="none" stroke="#63b8ff" d="M2561.65,-156.41C2227.8,-153.32 749.22,-137.98 546.5,-107 532.17,-104.81 516.61,-100.5 503.99,-96.48"/>
<polygon fill="#63b8ff" stroke="#63b8ff" points="2561.49,-159.91 2571.52,-156.5 2561.55,-152.91 2561.49,-159.91"/>
</g>
<!-- Node29 -->
<g id="node15" class="node">
<title>Node29</title>
<g id="a_node15"><a xlink:href="d__bright__check_8h.html" target="_top" xlink:title=" ">
<polygon fill="#fff0f0" stroke="red" points="649,-101.5 556,-101.5 556,-71.5 649,-71.5 649,-101.5"/>
<text text-anchor="start" x="564" y="-89.5" font-family="Helvetica,sans-Serif" font-size="10.00">include/d/d_bright</text>
<text text-anchor="middle" x="602.5" y="-78.5" font-family="Helvetica,sans-Serif" font-size="10.00">_check.h</text>
</a>
</g>
</g>
<!-- Node12&#45;&gt;Node29 -->
<g id="edge14" class="edge">
<title>Node12&#45;&gt;Node29</title>
<path fill="none" stroke="#63b8ff" d="M2561.86,-156.53C2239.4,-154.1 848.74,-141.66 658.5,-107 652.02,-105.82 645.28,-104.01 638.81,-101.96"/>
<polygon fill="#63b8ff" stroke="#63b8ff" points="2561.78,-160.03 2571.81,-156.61 2561.84,-153.03 2561.78,-160.03"/>
</g>
<!-- Node31 -->
<g id="node16" class="node">
<title>Node31</title>
<g id="a_node16"><a xlink:href="d__error__msg_8h.html" target="_top" xlink:title=" ">
<polygon fill="#fff0f0" stroke="red" points="787.5,-96 667.5,-96 667.5,-77 787.5,-77 787.5,-96"/>
<text text-anchor="middle" x="727.5" y="-84" font-family="Helvetica,sans-Serif" font-size="10.00">include/d/d_error_msg.h</text>
</a>
</g>
</g>
<!-- Node12&#45;&gt;Node31 -->
<g id="edge15" class="edge">
<title>Node12&#45;&gt;Node31</title>
<path fill="none" stroke="#63b8ff" d="M2561.62,-156.16C2252.92,-152.14 973.32,-133.97 796.5,-107 781.98,-104.79 766.18,-100.47 753.38,-96.46"/>
<polygon fill="#63b8ff" stroke="#63b8ff" points="2561.48,-159.66 2571.53,-156.29 2561.57,-152.66 2561.48,-159.66"/>
</g>
<!-- Node34 -->
<g id="node17" class="node">
<title>Node34</title>
<g id="a_node17"><a xlink:href="d__file__select_8h.html" target="_top" xlink:title=" ">
<polygon fill="#fff0f0" stroke="red" points="901.5,-101.5 805.5,-101.5 805.5,-71.5 901.5,-71.5 901.5,-101.5"/>
<text text-anchor="start" x="813.5" y="-89.5" font-family="Helvetica,sans-Serif" font-size="10.00">include/d/file/d_file</text>
<text text-anchor="middle" x="853.5" y="-78.5" font-family="Helvetica,sans-Serif" font-size="10.00">_select.h</text>
</a>
</g>
</g>
<!-- Node12&#45;&gt;Node34 -->
<g id="edge16" class="edge">
<title>Node12&#45;&gt;Node34</title>
<path fill="none" stroke="#63b8ff" d="M2561.93,-156.24C2265.71,-152.72 1074.83,-136.79 910.5,-107 903.91,-105.81 897.06,-103.99 890.48,-101.94"/>
<polygon fill="#63b8ff" stroke="#63b8ff" points="2561.76,-159.74 2571.8,-156.36 2561.84,-152.74 2561.76,-159.74"/>
</g>
<!-- Node36 -->
<g id="node18" class="node">
<title>Node36</title>
<g id="a_node18"><a xlink:href="d__msg__object_8h.html" target="_top" xlink:title=" ">
<polygon fill="#fff0f0" stroke="red" points="266.5,-101.5 156.5,-101.5 156.5,-71.5 266.5,-71.5 266.5,-101.5"/>
<text text-anchor="start" x="164.5" y="-89.5" font-family="Helvetica,sans-Serif" font-size="10.00">include/d/msg/d_msg</text>
<text text-anchor="middle" x="211.5" y="-78.5" font-family="Helvetica,sans-Serif" font-size="10.00">_object.h</text>
</a>
</g>
</g>
<!-- Node12&#45;&gt;Node36 -->
<g id="edge17" class="edge">
<title>Node12&#45;&gt;Node36</title>
<path fill="none" stroke="#63b8ff" d="M2561.55,-156.67C2201.83,-154.76 506.14,-143.86 275.5,-107 268.16,-105.83 260.49,-104.02 253.11,-101.97"/>
<polygon fill="#63b8ff" stroke="#63b8ff" points="2561.51,-160.17 2571.53,-156.72 2561.55,-153.17 2561.51,-160.17"/>
</g>
<!-- Node56 -->
<g id="node19" class="node">
<title>Node56</title>
<g id="a_node19"><a xlink:href="d__a__andsw_8h.html" target="_top" xlink:title=" ">
<polygon fill="white" stroke="#666666" points="1029.5,-101.5 919.5,-101.5 919.5,-71.5 1029.5,-71.5 1029.5,-101.5"/>
<text text-anchor="start" x="927.5" y="-89.5" font-family="Helvetica,sans-Serif" font-size="10.00">include/rel/d/a/d_a</text>
<text text-anchor="middle" x="974.5" y="-78.5" font-family="Helvetica,sans-Serif" font-size="10.00">_andsw/d_a_andsw.h</text>
</a>
</g>
</g>
<!-- Node12&#45;&gt;Node56 -->
<g id="edge22" class="edge">
<title>Node12&#45;&gt;Node56</title>
<path fill="none" stroke="#63b8ff" d="M2562.05,-157.24C2300.1,-157.85 1338.72,-156.56 1038.5,-107 1031.17,-105.79 1023.5,-103.97 1016.12,-101.91"/>
<polygon fill="#63b8ff" stroke="#63b8ff" points="2561.76,-160.75 2571.75,-157.22 2561.74,-153.75 2561.76,-160.75"/>
</g>
<!-- Node57 -->
<g id="node20" class="node">
<title>Node57</title>
<g id="a_node20"><a xlink:href="d__a__cstaF_8h.html" target="_top" xlink:title=" ">
<polygon fill="white" stroke="#666666" points="1151,-101.5 1048,-101.5 1048,-71.5 1151,-71.5 1151,-101.5"/>
<text text-anchor="start" x="1056" y="-89.5" font-family="Helvetica,sans-Serif" font-size="10.00">include/rel/d/a/d_a</text>
<text text-anchor="middle" x="1099.5" y="-78.5" font-family="Helvetica,sans-Serif" font-size="10.00">_cstaF/d_a_cstaF.h</text>
</a>
</g>
</g>
<!-- Node12&#45;&gt;Node57 -->
<g id="edge23" class="edge">
<title>Node12&#45;&gt;Node57</title>
<path fill="none" stroke="#63b8ff" d="M2561.85,-157.16C2312.56,-157.38 1435.35,-154.67 1160.5,-107 1153.6,-105.8 1146.4,-104.01 1139.47,-102"/>
<polygon fill="#63b8ff" stroke="#63b8ff" points="2561.73,-160.66 2571.73,-157.15 2561.72,-153.66 2561.73,-160.66"/>
</g>
<!-- Node58 -->
<g id="node21" class="node">
<title>Node58</title>
<g id="a_node21"><a xlink:href="d__a__dmidna_8h.html" target="_top" xlink:title=" ">
<polygon fill="white" stroke="#666666" points="1285.5,-101.5 1169.5,-101.5 1169.5,-71.5 1285.5,-71.5 1285.5,-101.5"/>
<text text-anchor="start" x="1177.5" y="-89.5" font-family="Helvetica,sans-Serif" font-size="10.00">include/rel/d/a/d_a</text>
<text text-anchor="middle" x="1227.5" y="-78.5" font-family="Helvetica,sans-Serif" font-size="10.00">_dmidna/d_a_dmidna.h</text>
</a>
</g>
</g>
<!-- Node12&#45;&gt;Node58 -->
<g id="edge24" class="edge">
<title>Node12&#45;&gt;Node58</title>
<path fill="none" stroke="#63b8ff" d="M2561.82,-156.66C2327.48,-155.15 1542.55,-147.12 1294.5,-107 1286.97,-105.78 1279.08,-103.98 1271.48,-101.96"/>
<polygon fill="#63b8ff" stroke="#63b8ff" points="2561.67,-160.16 2571.69,-156.73 2561.72,-153.16 2561.67,-160.16"/>
</g>
<!-- Node59 -->
<g id="node22" class="node">
<title>Node59</title>
<g id="a_node22"><a xlink:href="d__a__dshutter_8h.html" target="_top" xlink:title=" ">
<polygon fill="white" stroke="#666666" points="1427.5,-101.5 1303.5,-101.5 1303.5,-71.5 1427.5,-71.5 1427.5,-101.5"/>
<text text-anchor="start" x="1311.5" y="-89.5" font-family="Helvetica,sans-Serif" font-size="10.00">include/rel/d/a/d_a</text>
<text text-anchor="middle" x="1365.5" y="-78.5" font-family="Helvetica,sans-Serif" font-size="10.00">_dshutter/d_a_dshutter.h</text>
</a>
</g>
</g>
<!-- Node12&#45;&gt;Node59 -->
<g id="edge25" class="edge">
<title>Node12&#45;&gt;Node59</title>
<path fill="none" stroke="#63b8ff" d="M2562.09,-156.19C2344.75,-153.22 1656.02,-141.3 1436.5,-107 1428.54,-105.76 1420.2,-103.94 1412.15,-101.92"/>
<polygon fill="#63b8ff" stroke="#63b8ff" points="2561.74,-159.68 2571.79,-156.32 2561.84,-152.69 2561.74,-159.68"/>
</g>
<!-- Node60 -->
<g id="node23" class="node">
<title>Node60</title>
<g id="a_node23"><a xlink:href="d__a__guard__mng_8h.html" target="_top" xlink:title=" ">
<polygon fill="white" stroke="#666666" points="1595,-101.5 1446,-101.5 1446,-71.5 1595,-71.5 1595,-101.5"/>
<text text-anchor="start" x="1454" y="-89.5" font-family="Helvetica,sans-Serif" font-size="10.00">include/rel/d/a/d_a</text>
<text text-anchor="middle" x="1520.5" y="-78.5" font-family="Helvetica,sans-Serif" font-size="10.00">_guard_mng/d_a_guard_mng.h</text>
</a>
</g>
</g>
<!-- Node12&#45;&gt;Node60 -->
<g id="edge26" class="edge">
<title>Node12&#45;&gt;Node60</title>
<path fill="none" stroke="#63b8ff" d="M2561.73,-155.3C2365.11,-150.06 1790.41,-132.9 1604.5,-107 1595.31,-105.72 1585.64,-103.91 1576.27,-101.92"/>
<polygon fill="#63b8ff" stroke="#63b8ff" points="2561.42,-158.8 2571.51,-155.56 2561.6,-151.8 2561.42,-158.8"/>
</g>
<!-- Node61 -->
<g id="node24" class="node">
<title>Node61</title>
<g id="a_node24"><a xlink:href="d__a__hitobj_8h.html" target="_top" xlink:title=" ">
<polygon fill="white" stroke="#666666" points="1713.5,-101.5 1613.5,-101.5 1613.5,-71.5 1713.5,-71.5 1713.5,-101.5"/>
<text text-anchor="start" x="1621.5" y="-89.5" font-family="Helvetica,sans-Serif" font-size="10.00">include/rel/d/a/d_a</text>
<text text-anchor="middle" x="1663.5" y="-78.5" font-family="Helvetica,sans-Serif" font-size="10.00">_hitobj/d_a_hitobj.h</text>
</a>
</g>
</g>
<!-- Node12&#45;&gt;Node61 -->
<g id="edge27" class="edge">
<title>Node12&#45;&gt;Node61</title>
<path fill="none" stroke="#63b8ff" d="M2561.7,-155.6C2380.65,-151.43 1883.42,-137.48 1722.5,-107 1715.93,-105.76 1709.08,-103.97 1702.47,-101.98"/>
<polygon fill="#63b8ff" stroke="#63b8ff" points="2561.57,-159.09 2571.64,-155.82 2561.73,-152.1 2561.57,-159.09"/>
</g>
<!-- Node62 -->
<g id="node25" class="node">
<title>Node62</title>
<g id="a_node25"><a xlink:href="d__a__izumi__gate_8h.html" target="_top" xlink:title=" ">
<polygon fill="white" stroke="#666666" points="1847,-107 1732,-107 1732,-66 1847,-66 1847,-107"/>
<text text-anchor="start" x="1740" y="-95" font-family="Helvetica,sans-Serif" font-size="10.00">include/rel/d/a/d_a</text>
<text text-anchor="start" x="1740" y="-84" font-family="Helvetica,sans-Serif" font-size="10.00">_izumi_gate/d_a_izumi</text>
<text text-anchor="middle" x="1789.5" y="-73" font-family="Helvetica,sans-Serif" font-size="10.00">_gate.h</text>
</a>
</g>
</g>
<!-- Node12&#45;&gt;Node62 -->
<g id="edge28" class="edge">
<title>Node12&#45;&gt;Node62</title>
<path fill="none" stroke="#63b8ff" d="M2561.86,-157.65C2427.26,-157.89 2113.78,-152.92 1855.5,-107 1852.79,-106.52 1850.04,-105.97 1847.27,-105.36"/>
<polygon fill="#63b8ff" stroke="#63b8ff" points="2561.66,-161.16 2571.65,-157.63 2561.64,-154.16 2561.66,-161.16"/>
</g>
<!-- Node63 -->
<g id="node26" class="node">
<title>Node63</title>
<g id="a_node26"><a xlink:href="d__a__set__bgobj_8h.html" target="_top" xlink:title=" ">
<polygon fill="white" stroke="#666666" points="2002,-101.5 1865,-101.5 1865,-71.5 2002,-71.5 2002,-101.5"/>
<text text-anchor="start" x="1873" y="-89.5" font-family="Helvetica,sans-Serif" font-size="10.00">include/rel/d/a/d_a</text>
<text text-anchor="middle" x="1933.5" y="-78.5" font-family="Helvetica,sans-Serif" font-size="10.00">_set_bgobj/d_a_set_bgobj.h</text>
</a>
</g>
</g>
<!-- Node12&#45;&gt;Node63 -->
<g id="edge29" class="edge">
<title>Node12&#45;&gt;Node63</title>
<path fill="none" stroke="#63b8ff" d="M2561.99,-155.19C2448.43,-151.29 2210.14,-139.65 2011.5,-107 2003.37,-105.66 1994.85,-103.91 1986.54,-102"/>
<polygon fill="#63b8ff" stroke="#63b8ff" points="2561.62,-158.67 2571.73,-155.51 2561.85,-151.68 2561.62,-158.67"/>
</g>
<!-- Node64 -->
<g id="node27" class="node">
<title>Node64</title>
<g id="a_node27"><a xlink:href="d__a__skip__2D_8h.html" target="_top" xlink:title=" ">
<polygon fill="white" stroke="#666666" points="2144.5,-101.5 2020.5,-101.5 2020.5,-71.5 2144.5,-71.5 2144.5,-101.5"/>
<text text-anchor="start" x="2028.5" y="-89.5" font-family="Helvetica,sans-Serif" font-size="10.00">include/rel/d/a/d_a</text>
<text text-anchor="middle" x="2082.5" y="-78.5" font-family="Helvetica,sans-Serif" font-size="10.00">_skip_2D/d_a_skip_2D.h</text>
</a>
</g>
</g>
<!-- Node12&#45;&gt;Node64 -->
<g id="edge30" class="edge">
<title>Node12&#45;&gt;Node64</title>
<path fill="none" stroke="#63b8ff" d="M2561.81,-153.42C2469.45,-147.68 2297.67,-134.2 2153.5,-107 2146.21,-105.63 2138.59,-103.87 2131.14,-101.98"/>
<polygon fill="#63b8ff" stroke="#63b8ff" points="2561.52,-156.91 2571.71,-154.02 2561.94,-149.92 2561.52,-156.91"/>
</g>
<!-- Node65 -->
<g id="node28" class="node">
<title>Node65</title>
<g id="a_node28"><a xlink:href="d__a__spinner_8h.html" target="_top" xlink:title=" ">
<polygon fill="#fff0f0" stroke="red" points="3913.5,-101.5 3797.5,-101.5 3797.5,-71.5 3913.5,-71.5 3913.5,-101.5"/>
<text text-anchor="start" x="3805.5" y="-89.5" font-family="Helvetica,sans-Serif" font-size="10.00">include/rel/d/a/d_a</text>
<text text-anchor="middle" x="3855.5" y="-78.5" font-family="Helvetica,sans-Serif" font-size="10.00">_spinner/d_a_spinner.h</text>
</a>
</g>
</g>
<!-- Node12&#45;&gt;Node65 -->
<g id="edge31" class="edge">
<title>Node12&#45;&gt;Node65</title>
<path fill="none" stroke="#63b8ff" d="M2695.29,-156.23C2909.22,-153.42 3575.86,-142 3788.5,-107 3796.03,-105.76 3803.91,-103.95 3811.52,-101.92"/>
<polygon fill="#63b8ff" stroke="#63b8ff" points="2695.41,-152.72 2685.46,-156.35 2695.51,-159.72 2695.41,-152.72"/>
</g>
<!-- Node67 -->
<g id="node29" class="node">
<title>Node67</title>
<g id="a_node29"><a xlink:href="d__a__swTime_8h.html" target="_top" xlink:title=" ">
<polygon fill="white" stroke="#666666" points="2284.5,-101.5 2162.5,-101.5 2162.5,-71.5 2284.5,-71.5 2284.5,-101.5"/>
<text text-anchor="start" x="2170.5" y="-89.5" font-family="Helvetica,sans-Serif" font-size="10.00">include/rel/d/a/d_a</text>
<text text-anchor="middle" x="2223.5" y="-78.5" font-family="Helvetica,sans-Serif" font-size="10.00">_swTime/d_a_swTime.h</text>
</a>
</g>
</g>
<!-- Node12&#45;&gt;Node67 -->
<g id="edge34" class="edge">
<title>Node12&#45;&gt;Node67</title>
<path fill="none" stroke="#63b8ff" d="M2561.92,-149.52C2494,-141.32 2385.79,-126.66 2293.5,-107 2286.59,-105.53 2279.35,-103.77 2272.26,-101.91"/>
<polygon fill="#63b8ff" stroke="#63b8ff" points="2561.44,-152.99 2571.79,-150.7 2562.27,-146.04 2561.44,-152.99"/>
</g>
<!-- Node68 -->
<g id="node30" class="node">
<title>Node68</title>
<g id="a_node30"><a xlink:href="d__a__vrbox_8h.html" target="_top" xlink:title=" ">
<polygon fill="white" stroke="#666666" points="2402.5,-101.5 2302.5,-101.5 2302.5,-71.5 2402.5,-71.5 2402.5,-101.5"/>
<text text-anchor="start" x="2310.5" y="-89.5" font-family="Helvetica,sans-Serif" font-size="10.00">include/rel/d/a/d_a</text>
<text text-anchor="middle" x="2352.5" y="-78.5" font-family="Helvetica,sans-Serif" font-size="10.00">_vrbox/d_a_vrbox.h</text>
</a>
</g>
</g>
<!-- Node12&#45;&gt;Node68 -->
<g id="edge35" class="edge">
<title>Node12&#45;&gt;Node68</title>
<path fill="none" stroke="#63b8ff" d="M2562.08,-143.37C2518.92,-134.1 2461.57,-121.01 2411.5,-107 2405.99,-105.46 2400.24,-103.72 2394.57,-101.93"/>
<polygon fill="#63b8ff" stroke="#63b8ff" points="2561.31,-146.78 2571.82,-145.44 2562.77,-139.93 2561.31,-146.78"/>
</g>
<!-- Node69 -->
<g id="node31" class="node">
<title>Node69</title>
<g id="a_node31"><a xlink:href="d__a__e__db__leaf_8h.html" target="_top" xlink:title=" ">
<polygon fill="white" stroke="#666666" points="2540,-107 2421,-107 2421,-66 2540,-66 2540,-107"/>
<text text-anchor="start" x="2429" y="-95" font-family="Helvetica,sans-Serif" font-size="10.00">include/rel/d/a/e/d</text>
<text text-anchor="start" x="2429" y="-84" font-family="Helvetica,sans-Serif" font-size="10.00">_a_e_db_leaf/d_a_e_db</text>
<text text-anchor="middle" x="2480.5" y="-73" font-family="Helvetica,sans-Serif" font-size="10.00">_leaf.h</text>
</a>
</g>
</g>
<!-- Node12&#45;&gt;Node69 -->
<g id="edge36" class="edge">
<title>Node12&#45;&gt;Node69</title>
<path fill="none" stroke="#63b8ff" d="M2587.44,-137.72C2567.35,-128.28 2543.18,-116.94 2522.91,-107.42"/>
<polygon fill="#63b8ff" stroke="#63b8ff" points="2585.92,-140.87 2596.46,-141.96 2588.9,-134.54 2585.92,-140.87"/>
</g>
<!-- Node70 -->
<g id="node32" class="node">
<title>Node70</title>
<g id="a_node32"><a xlink:href="d__a__kytag02_8h.html" target="_top" xlink:title=" ">
<polygon fill="white" stroke="#666666" points="2698.5,-101.5 2558.5,-101.5 2558.5,-71.5 2698.5,-71.5 2698.5,-101.5"/>
<text text-anchor="start" x="2566.5" y="-89.5" font-family="Helvetica,sans-Serif" font-size="10.00">include/rel/d/a/kytag</text>
<text text-anchor="middle" x="2628.5" y="-78.5" font-family="Helvetica,sans-Serif" font-size="10.00">/d_a_kytag02/d_a_kytag02.h</text>
</a>
</g>
</g>
<!-- Node12&#45;&gt;Node70 -->
<g id="edge37" class="edge">
<title>Node12&#45;&gt;Node70</title>
<path fill="none" stroke="#63b8ff" d="M2628.5,-131.26C2628.5,-121.33 2628.5,-110.36 2628.5,-101.88"/>
<polygon fill="#63b8ff" stroke="#63b8ff" points="2625,-131.09 2628.5,-141.09 2632,-131.09 2625,-131.09"/>
</g>
<!-- Node71 -->
<g id="node33" class="node">
<title>Node71</title>
<g id="a_node33"><a xlink:href="d__a__obj__bombf_8h.html" target="_top" xlink:title=" ">
<polygon fill="white" stroke="#666666" points="2838.5,-107 2716.5,-107 2716.5,-66 2838.5,-66 2838.5,-107"/>
<text text-anchor="start" x="2724.5" y="-95" font-family="Helvetica,sans-Serif" font-size="10.00">include/rel/d/a/obj</text>
<text text-anchor="start" x="2724.5" y="-84" font-family="Helvetica,sans-Serif" font-size="10.00">/d_a_obj_bombf/d_a_obj</text>
<text text-anchor="middle" x="2777.5" y="-73" font-family="Helvetica,sans-Serif" font-size="10.00">_bombf.h</text>
</a>
</g>
</g>
<!-- Node12&#45;&gt;Node71 -->
<g id="edge38" class="edge">
<title>Node12&#45;&gt;Node71</title>
<path fill="none" stroke="#63b8ff" d="M2669.56,-137.85C2689.84,-128.39 2714.3,-116.98 2734.8,-107.42"/>
<polygon fill="#63b8ff" stroke="#63b8ff" points="2668.33,-134.56 2660.74,-141.96 2671.29,-140.9 2668.33,-134.56"/>
</g>
<!-- Node72 -->
<g id="node34" class="node">
<title>Node72</title>
<g id="a_node34"><a xlink:href="d__a__obj__cboard_8h.html" target="_top" xlink:title=" ">
<polygon fill="white" stroke="#666666" points="2964,-107 2857,-107 2857,-66 2964,-66 2964,-107"/>
<text text-anchor="start" x="2865" y="-95" font-family="Helvetica,sans-Serif" font-size="10.00">include/rel/d/a/obj</text>
<text text-anchor="start" x="2865" y="-84" font-family="Helvetica,sans-Serif" font-size="10.00">/d_a_obj_cboard/d_a</text>
<text text-anchor="middle" x="2910.5" y="-73" font-family="Helvetica,sans-Serif" font-size="10.00">_obj_cboard.h</text>
</a>
</g>
</g>
<!-- Node12&#45;&gt;Node72 -->
<g id="edge39" class="edge">
<title>Node12&#45;&gt;Node72</title>
<path fill="none" stroke="#63b8ff" d="M2694.73,-143.25C2738.33,-133.86 2796.57,-120.68 2847.5,-107 2850.49,-106.2 2853.54,-105.35 2856.62,-104.47"/>
<polygon fill="#63b8ff" stroke="#63b8ff" points="2694.21,-139.78 2685.17,-145.29 2695.68,-146.62 2694.21,-139.78"/>
</g>
<!-- Node73 -->
<g id="node35" class="node">
<title>Node73</title>
<g id="a_node35"><a xlink:href="d__a__obj__cowdoor_8h.html" target="_top" xlink:title=" ">
<polygon fill="white" stroke="#666666" points="3096.5,-107 2982.5,-107 2982.5,-66 3096.5,-66 3096.5,-107"/>
<text text-anchor="start" x="2990.5" y="-95" font-family="Helvetica,sans-Serif" font-size="10.00">include/rel/d/a/obj</text>
<text text-anchor="start" x="2990.5" y="-84" font-family="Helvetica,sans-Serif" font-size="10.00">/d_a_obj_cowdoor/d_a</text>
<text text-anchor="middle" x="3039.5" y="-73" font-family="Helvetica,sans-Serif" font-size="10.00">_obj_cowdoor.h</text>
</a>
</g>
</g>
<!-- Node12&#45;&gt;Node73 -->
<g id="edge40" class="edge">
<title>Node12&#45;&gt;Node73</title>
<path fill="none" stroke="#63b8ff" d="M2694.96,-150.11C2764.61,-142.25 2876.97,-127.74 2972.5,-107 2975.7,-106.31 2978.96,-105.54 2982.25,-104.73"/>
<polygon fill="#63b8ff" stroke="#63b8ff" points="2694.79,-146.61 2685.24,-151.2 2695.56,-153.57 2694.79,-146.61"/>
</g>
<!-- Node74 -->
<g id="node36" class="node">
<title>Node74</title>
<g id="a_node36"><a xlink:href="d__a__obj__digholl_8h.html" target="_top" xlink:title=" ">
<polygon fill="white" stroke="#666666" points="3220,-107 3115,-107 3115,-66 3220,-66 3220,-107"/>
<text text-anchor="start" x="3123" y="-95" font-family="Helvetica,sans-Serif" font-size="10.00">include/rel/d/a/obj</text>
<text text-anchor="start" x="3123" y="-84" font-family="Helvetica,sans-Serif" font-size="10.00">/d_a_obj_digholl/d_a</text>
<text text-anchor="middle" x="3167.5" y="-73" font-family="Helvetica,sans-Serif" font-size="10.00">_obj_digholl.h</text>
</a>
</g>
</g>
<!-- Node12&#45;&gt;Node74 -->
<g id="edge41" class="edge">
<title>Node12&#45;&gt;Node74</title>
<path fill="none" stroke="#63b8ff" d="M2695.24,-154.22C2788.07,-149.41 2961.05,-136.97 3105.5,-107 3108.48,-106.38 3111.53,-105.68 3114.58,-104.91"/>
<polygon fill="#63b8ff" stroke="#63b8ff" points="2695.1,-150.72 2685.29,-154.72 2695.45,-157.72 2695.1,-150.72"/>
</g>
<!-- Node75 -->
<g id="node37" class="node">
<title>Node75</title>
<g id="a_node37"><a xlink:href="d__a__obj__enemy__create_8h.html" target="_top" xlink:title=" ">
<polygon fill="white" stroke="#666666" points="3365,-107 3238,-107 3238,-66 3365,-66 3365,-107"/>
<text text-anchor="start" x="3246" y="-95" font-family="Helvetica,sans-Serif" font-size="10.00">include/rel/d/a/obj</text>
<text text-anchor="start" x="3246" y="-84" font-family="Helvetica,sans-Serif" font-size="10.00">/d_a_obj_enemy_create</text>
<text text-anchor="middle" x="3301.5" y="-73" font-family="Helvetica,sans-Serif" font-size="10.00">/d_a_obj_enemy_create.h</text>
</a>
</g>
</g>
<!-- Node12&#45;&gt;Node75 -->
<g id="edge42" class="edge">
<title>Node12&#45;&gt;Node75</title>
<path fill="none" stroke="#63b8ff" d="M2695.29,-155.31C2806.61,-151.62 3036.78,-140.32 3228.5,-107 3231.47,-106.48 3234.5,-105.9 3237.55,-105.27"/>
<polygon fill="#63b8ff" stroke="#63b8ff" points="2695.32,-151.8 2685.44,-155.62 2695.55,-158.8 2695.32,-151.8"/>
</g>
<!-- Node76 -->
<g id="node38" class="node">
<title>Node76</title>
<g id="a_node38"><a xlink:href="d__a__obj__kjgjs_8h.html" target="_top" xlink:title=" ">
<polygon fill="white" stroke="#666666" points="3499.5,-107 3383.5,-107 3383.5,-66 3499.5,-66 3499.5,-107"/>
<text text-anchor="start" x="3391.5" y="-95" font-family="Helvetica,sans-Serif" font-size="10.00">include/rel/d/a/obj</text>
<text text-anchor="start" x="3391.5" y="-84" font-family="Helvetica,sans-Serif" font-size="10.00">/d_a_obj_kjgjs/d_a_obj</text>
<text text-anchor="middle" x="3441.5" y="-73" font-family="Helvetica,sans-Serif" font-size="10.00">_kjgjs.h</text>
</a>
</g>
</g>
<!-- Node12&#45;&gt;Node76 -->
<g id="edge43" class="edge">
<title>Node12&#45;&gt;Node76</title>
<path fill="none" stroke="#63b8ff" d="M2695.04,-157.25C2825.99,-156.69 3125.91,-150.3 3373.5,-107 3376.65,-106.45 3379.85,-105.81 3383.08,-105.11"/>
<polygon fill="#63b8ff" stroke="#63b8ff" points="2695.16,-153.74 2685.17,-157.28 2695.18,-160.74 2695.16,-153.74"/>
</g>
<!-- Node77 -->
<g id="node39" class="node">
<title>Node77</title>
<g id="a_node39"><a xlink:href="d__a__obj__mgate_8h.html" target="_top" xlink:title=" ">
<polygon fill="white" stroke="#666666" points="3639.5,-107 3517.5,-107 3517.5,-66 3639.5,-66 3639.5,-107"/>
<text text-anchor="start" x="3525.5" y="-95" font-family="Helvetica,sans-Serif" font-size="10.00">include/rel/d/a/obj</text>
<text text-anchor="start" x="3525.5" y="-84" font-family="Helvetica,sans-Serif" font-size="10.00">/d_a_obj_mgate/d_a_obj</text>
<text text-anchor="middle" x="3578.5" y="-73" font-family="Helvetica,sans-Serif" font-size="10.00">_mgate.h</text>
</a>
</g>
</g>
<!-- Node12&#45;&gt;Node77 -->
<g id="edge44" class="edge">
<title>Node12&#45;&gt;Node77</title>
<path fill="none" stroke="#63b8ff" d="M2695.45,-155.06C2872.87,-149.62 3352.18,-132.9 3508.5,-107 3511.36,-106.53 3514.28,-105.98 3517.21,-105.38"/>
<polygon fill="#63b8ff" stroke="#63b8ff" points="2695.36,-151.56 2685.47,-155.36 2695.58,-158.56 2695.36,-151.56"/>
</g>
<!-- Node78 -->
<g id="node40" class="node">
<title>Node78</title>
<g id="a_node40"><a xlink:href="d__a__obj__onsen_8h.html" target="_top" xlink:title=" ">
<polygon fill="white" stroke="#666666" points="3779.5,-107 3657.5,-107 3657.5,-66 3779.5,-66 3779.5,-107"/>
<text text-anchor="start" x="3665.5" y="-95" font-family="Helvetica,sans-Serif" font-size="10.00">include/rel/d/a/obj</text>
<text text-anchor="start" x="3665.5" y="-84" font-family="Helvetica,sans-Serif" font-size="10.00">/d_a_obj_onsen/d_a_obj</text>
<text text-anchor="middle" x="3718.5" y="-73" font-family="Helvetica,sans-Serif" font-size="10.00">_onsen.h</text>
</a>
</g>
</g>
<!-- Node12&#45;&gt;Node78 -->
<g id="edge45" class="edge">
<title>Node12&#45;&gt;Node78</title>
<path fill="none" stroke="#63b8ff" d="M2695.07,-155.67C2891.08,-151.45 3463.92,-136.85 3648.5,-107 3651.36,-106.54 3654.28,-106 3657.21,-105.4"/>
<polygon fill="#63b8ff" stroke="#63b8ff" points="2695.25,-152.17 2685.32,-155.88 2695.39,-159.17 2695.25,-152.17"/>
</g>
<!-- Node12&#45;&gt;Node122 -->
<g id="edge46" class="edge">
<title>Node12&#45;&gt;Node122</title>
<path fill="none" stroke="#63b8ff" d="M2695.27,-157.24C2952.12,-157.78 3876.48,-156.2 4165.5,-107 4178.63,-104.77 4192.82,-100.45 4204.32,-96.44"/>
<polygon fill="#63b8ff" stroke="#63b8ff" points="2695.43,-153.74 2685.42,-157.22 2695.41,-160.74 2695.43,-153.74"/>
</g>
<!-- Node123 -->
<g id="node42" class="node">
<title>Node123</title>
<g id="a_node42"><a xlink:href="d__bg__s__movebg__actor_8cpp.html" target="_top" xlink:title=" ">
<polygon fill="white" stroke="#666666" points="4549.5,-101.5 4423.5,-101.5 4423.5,-71.5 4549.5,-71.5 4549.5,-101.5"/>
<text text-anchor="start" x="4431.5" y="-89.5" font-family="Helvetica,sans-Serif" font-size="10.00">src/d/bg/d_bg_s_movebg</text>
<text text-anchor="middle" x="4486.5" y="-78.5" font-family="Helvetica,sans-Serif" font-size="10.00">_actor.cpp</text>
</a>
</g>
</g>
<!-- Node12&#45;&gt;Node123 -->
<g id="edge47" class="edge">
<title>Node12&#45;&gt;Node123</title>
<path fill="none" stroke="#63b8ff" d="M2695.02,-157.24C2976.81,-157.93 4073.22,-157.27 4414.5,-107 4422.7,-105.79 4431.3,-103.97 4439.59,-101.92"/>
<polygon fill="#63b8ff" stroke="#63b8ff" points="2695.3,-153.74 2685.29,-157.21 2695.28,-160.74 2695.3,-153.74"/>
</g>
<!-- Node124 -->
<g id="node43" class="node">
<title>Node124</title>
<g id="a_node43"><a xlink:href="d__bg__w_8cpp.html" target="_top" xlink:title=" ">
<polygon fill="white" stroke="#666666" points="4405,-96 4298,-96 4298,-77 4405,-77 4405,-96"/>
<text text-anchor="middle" x="4351.5" y="-84" font-family="Helvetica,sans-Serif" font-size="10.00">src/d/bg/d_bg_w.cpp</text>
</a>
</g>
</g>
<!-- Node12&#45;&gt;Node124 -->
<g id="edge48" class="edge">
<title>Node12&#45;&gt;Node124</title>
<path fill="none" stroke="#63b8ff" d="M2694.76,-157.39C2963.64,-158.58 3973.95,-159.42 4288.5,-107 4301.83,-104.78 4316.25,-100.46 4327.93,-96.45"/>
<polygon fill="#63b8ff" stroke="#63b8ff" points="2695.16,-153.89 2685.15,-157.34 2695.13,-160.89 2695.16,-153.89"/>
</g>
<!-- Node36&#45;&gt;Node3 -->
<g id="edge18" class="edge">
<title>Node36&#45;&gt;Node3</title>
<path fill="none" stroke="#63b8ff" d="M268.71,-67.92C271,-67.26 273.27,-66.62 275.5,-66 331,-50.55 395.82,-34.57 435.77,-24.95"/>
<polygon fill="#63b8ff" stroke="#63b8ff" points="267.99,-64.48 259.37,-70.65 269.95,-71.2 267.99,-64.48"/>
</g>
<!-- Node36&#45;&gt;Node7 -->
<g id="edge19" class="edge">
<title>Node36&#45;&gt;Node7</title>
<path fill="none" stroke="#63b8ff" d="M211.5,-59.96C211.5,-47.57 211.5,-33.49 211.5,-24.68"/>
<polygon fill="#63b8ff" stroke="#63b8ff" points="208,-59.59 211.5,-69.59 215,-59.59 208,-59.59"/>
</g>
<!-- Node36&#45;&gt;Node8 -->
<g id="edge20" class="edge">
<title>Node36&#45;&gt;Node8</title>
<path fill="none" stroke="#63b8ff" d="M249.48,-65.8C271.22,-54.53 298.02,-40.63 317.77,-30.38"/>
<polygon fill="#63b8ff" stroke="#63b8ff" points="247.87,-62.69 240.61,-70.4 251.1,-68.91 247.87,-62.69"/>
</g>
<!-- Node36&#45;&gt;Node9 -->
<g id="edge21" class="edge">
<title>Node36&#45;&gt;Node9</title>
<path fill="none" stroke="#63b8ff" d="M171.1,-66.13C142.91,-52.62 106.61,-35.22 85.02,-24.88"/>
<polygon fill="#63b8ff" stroke="#63b8ff" points="169.56,-69.28 180.09,-70.45 172.59,-62.97 169.56,-69.28"/>
</g>
<!-- Node65&#45;&gt;Node3 -->
<g id="edge32" class="edge">
<title>Node65&#45;&gt;Node3</title>
<path fill="none" stroke="#63b8ff" d="M3801.12,-68.36C3796.88,-67.43 3792.64,-66.62 3788.5,-66 3620.63,-40.77 946.42,-19.58 528.3,-16.41"/>
<polygon fill="#63b8ff" stroke="#63b8ff" points="3800.25,-71.76 3810.8,-70.73 3801.91,-64.96 3800.25,-71.76"/>
</g>
<!-- Node65&#45;&gt;Node4 -->
<g id="edge33" class="edge">
<title>Node65&#45;&gt;Node4</title>
<path fill="none" stroke="#63b8ff" d="M3800.91,-68.39C3796.74,-67.46 3792.57,-66.64 3788.5,-66 3626.81,-40.47 2451.14,-21.07 2176.68,-16.85"/>
<polygon fill="#63b8ff" stroke="#63b8ff" points="3799.88,-71.74 3810.42,-70.73 3801.55,-64.94 3799.88,-71.74"/>
</g>
<!-- Node182&#45;&gt;Node122 -->
<g id="edge57" class="edge">
<title>Node182&#45;&gt;Node122</title>
<path fill="none" stroke="#63b8ff" d="M4373.06,-144.02C4337.3,-130.13 4281.55,-108.49 4250.45,-96.41"/>
<polygon fill="#63b8ff" stroke="#63b8ff" points="4371.47,-147.15 4382.05,-147.51 4374,-140.63 4371.47,-147.15"/>
</g>
<!-- Node182&#45;&gt;Node123 -->
<g id="edge58" class="edge">
<title>Node182&#45;&gt;Node123</title>
<path fill="none" stroke="#63b8ff" d="M4425.18,-140.77C4438.78,-128.95 4457.03,-113.11 4470.07,-101.77"/>
<polygon fill="#63b8ff" stroke="#63b8ff" points="4423.03,-138 4417.77,-147.21 4427.62,-143.29 4423.03,-138"/>
</g>
<!-- Node182&#45;&gt;Node124 -->
<g id="edge59" class="edge">
<title>Node182&#45;&gt;Node124</title>
<path fill="none" stroke="#63b8ff" d="M4392.44,-139.23C4381.62,-125.56 4367.1,-107.22 4358.58,-96.45"/>
<polygon fill="#63b8ff" stroke="#63b8ff" points="4389.64,-141.34 4398.59,-147.01 4395.13,-137 4389.64,-141.34"/>
</g>
<!-- Node183 -->
<g id="node46" class="node">
<title>Node183</title>
<g id="a_node46"><a xlink:href="d__bg__w__sv_8h.html" target="_top" xlink:title=" ">
<polygon fill="#fff0f0" stroke="red" points="4825,-96 4696,-96 4696,-77 4825,-77 4825,-96"/>
<text text-anchor="middle" x="4760.5" y="-84" font-family="Helvetica,sans-Serif" font-size="10.00">include/d/bg/d_bg_w_sv.h</text>
</a>
</g>
</g>
<!-- Node182&#45;&gt;Node183 -->
<g id="edge55" class="edge">
<title>Node182&#45;&gt;Node183</title>
<path fill="none" stroke="#63b8ff" d="M4458.36,-145.78C4463.14,-144.82 4467.9,-143.87 4472.5,-143 4567.25,-124.99 4592.21,-127.31 4686.5,-107 4700.53,-103.98 4715.89,-100.04 4728.96,-96.49"/>
<polygon fill="#63b8ff" stroke="#63b8ff" points="4457.86,-142.31 4448.77,-147.76 4459.27,-149.17 4457.86,-142.31"/>
</g>
<!-- Node185 -->
<g id="node47" class="node">
<title>Node185</title>
<g id="a_node47"><a xlink:href="d__a__bg__obj_8h.html" target="_top" xlink:title=" ">
<polygon fill="white" stroke="#666666" points="4677.5,-101.5 4567.5,-101.5 4567.5,-71.5 4677.5,-71.5 4677.5,-101.5"/>
<text text-anchor="start" x="4575.5" y="-89.5" font-family="Helvetica,sans-Serif" font-size="10.00">include/rel/d/a/d_a</text>
<text text-anchor="middle" x="4622.5" y="-78.5" font-family="Helvetica,sans-Serif" font-size="10.00">_bg_obj/d_a_bg_obj.h</text>
</a>
</g>
</g>
<!-- Node182&#45;&gt;Node185 -->
<g id="edge56" class="edge">
<title>Node182&#45;&gt;Node185</title>
<path fill="none" stroke="#63b8ff" d="M4445.17,-144.56C4482.32,-132.61 4538.4,-114.56 4577.52,-101.97"/>
<polygon fill="#63b8ff" stroke="#63b8ff" points="4444.18,-141.2 4435.74,-147.59 4446.33,-147.86 4444.18,-141.2"/>
</g>
<!-- Node187 -->
<g id="node49" class="node">
<title>Node187</title>
<g id="a_node49"><a xlink:href="d__bg__w__kcol_8cpp.html" target="_top" xlink:title=" ">
<polygon fill="white" stroke="#666666" points="4611.5,-167.5 4481.5,-167.5 4481.5,-148.5 4611.5,-148.5 4611.5,-167.5"/>
<text text-anchor="middle" x="4546.5" y="-155.5" font-family="Helvetica,sans-Serif" font-size="10.00">src/d/bg/d_bg_w_kcol.cpp</text>
</a>
</g>
</g>
<!-- Node186&#45;&gt;Node187 -->
<g id="edge61" class="edge">
<title>Node186&#45;&gt;Node187</title>
<path fill="none" stroke="#63b8ff" d="M4480.44,-202.58C4498.19,-190.87 4519.56,-176.77 4533.1,-167.84"/>
<polygon fill="#63b8ff" stroke="#63b8ff" points="4478.71,-199.53 4472.29,-207.96 4482.57,-205.38 4478.71,-199.53"/>
</g>
</g>
</svg>
