<?xml version="1.0" encoding="UTF-8" standalone="no"?>
<!DOCTYPE svg PUBLIC "-//W3C//DTD SVG 1.1//EN"
 "http://www.w3.org/Graphics/SVG/1.1/DTD/svg11.dtd">
<!-- Generated by graphviz version 7.0.5 (20221223.1930)
 -->
<!-- Title: include/d/bg/d_bg_s_movebg_actor.h Pages: 1 -->
<!--zoomable 115 -->
<svg id="main" version="1.1" xmlns="http://www.w3.org/2000/svg" xmlns:xlink="http://www.w3.org/1999/xlink" xml:space="preserve" onload="init(evt)">
<style type="text/css"><![CDATA[
.edge:hover path { stroke: red; }
.edge:hover polygon { stroke: red; fill: red; }
]]></style>
<script type="text/javascript"><![CDATA[
var edges = document.getElementsByTagName('g');
if (edges && edges.length) {
  for (var i=0;i<edges.length;i++) {
    if (edges[i].id.substr(0,4)=='edge') {
      edges[i].setAttribute('class','edge');
    }
  }
}
]]></script>
        <defs>
                <circle id="rim" cx="0" cy="0" r="7"/>
                <circle id="rim2" cx="0" cy="0" r="3.5"/>
                <g id="zoomPlus">
                        <use xlink:href="#rim" fill="#404040">
                                <set attributeName="fill" to="#808080" begin="zoomplus.mouseover" end="zoomplus.mouseout"/>
                        </use>
                        <path d="M-4,0h8M0,-4v8" fill="none" stroke="white" stroke-width="1.5" pointer-events="none"/>
                </g>
                <g id="zoomMin">
                        <use xlink:href="#rim" fill="#404040">
                                <set attributeName="fill" to="#808080" begin="zoomminus.mouseover" end="zoomminus.mouseout"/>
                        </use>
                        <path d="M-4,0h8" fill="none" stroke="white" stroke-width="1.5" pointer-events="none"/>
                </g>
                <g id="dirArrow">
                        <path fill="none" stroke="white" stroke-width="1.5" d="M0,-3.0v7 M-2.5,-0.5L0,-3.0L2.5,-0.5"/>
                </g>
               <g id="resetDef">
                       <use xlink:href="#rim2" fill="#404040">
                               <set attributeName="fill" to="#808080" begin="reset.mouseover" end="reset.mouseout"/>
                       </use>
               </g>
        </defs>

<script type="text/javascript">
var viewWidth = 2643;
var viewHeight = 115;
var sectionId = 'dynsection-1';
</script>
<script xlink:href="svgpan.js"/>
<svg id="graph" class="graph">
<g id="viewport">
<title>include/d/bg/d_bg_s_movebg_actor.h</title>
<!-- Node1 -->
<g id="node1" class="node">
<title>Node1</title>
<g id="a_node1"><a xlink:title=" ">
<polygon fill="#999999" stroke="#666666" points="1349,-107 1245,-107 1245,-77 1349,-77 1349,-107"/>
<text text-anchor="start" x="1253" y="-95" font-family="Helvetica,sans-Serif" font-size="10.00">include/d/bg/d_bg_s</text>
<text text-anchor="middle" x="1297" y="-84" font-family="Helvetica,sans-Serif" font-size="10.00">_movebg_actor.h</text>
</a>
</g>
</g>
<!-- Node2 -->
<g id="node2" class="node">
<title>Node2</title>
<g id="a_node2"><a xlink:href="d__a__bg__obj_8h.html" target="_top" xlink:title=" ">
<polygon fill="white" stroke="#666666" points="110,-35.5 0,-35.5 0,-5.5 110,-5.5 110,-35.5"/>
<text text-anchor="start" x="8" y="-23.5" font-family="Helvetica,sans-Serif" font-size="10.00">include/rel/d/a/d_a</text>
<text text-anchor="middle" x="55" y="-12.5" font-family="Helvetica,sans-Serif" font-size="10.00">_bg_obj/d_a_bg_obj.h</text>
</a>
</g>
</g>
<!-- Node1&#45;&gt;Node2 -->
<g id="edge1" class="edge">
<title>Node1&#45;&gt;Node2</title>
<path fill="none" stroke="#63b8ff" d="M1233.58,-90.42C1021.21,-88.16 336.2,-78.08 119,-41 111.79,-39.77 104.25,-37.96 96.98,-35.94"/>
<polygon fill="#63b8ff" stroke="#63b8ff" points="1233.27,-93.92 1243.3,-90.52 1233.34,-86.92 1233.27,-93.92"/>
</g>
<!-- Node3 -->
<g id="node3" class="node">
<title>Node3</title>
<g id="a_node3"><a xlink:href="d__a__cstaF_8h.html" target="_top" xlink:title=" ">
<polygon fill="white" stroke="#666666" points="231.5,-35.5 128.5,-35.5 128.5,-5.5 231.5,-5.5 231.5,-35.5"/>
<text text-anchor="start" x="136.5" y="-23.5" font-family="Helvetica,sans-Serif" font-size="10.00">include/rel/d/a/d_a</text>
<text text-anchor="middle" x="180" y="-12.5" font-family="Helvetica,sans-Serif" font-size="10.00">_cstaF/d_a_cstaF.h</text>
</a>
</g>
</g>
<!-- Node1&#45;&gt;Node3 -->
<g id="edge2" class="edge">
<title>Node1&#45;&gt;Node3</title>
<path fill="none" stroke="#63b8ff" d="M1233.25,-90.17C1035.32,-87.24 433.15,-75.64 241,-41 234.11,-39.76 226.91,-37.95 219.98,-35.92"/>
<polygon fill="#63b8ff" stroke="#63b8ff" points="1233.02,-93.66 1243.07,-90.31 1233.13,-86.67 1233.02,-93.66"/>
</g>
<!-- Node4 -->
<g id="node4" class="node">
<title>Node4</title>
<g id="a_node4"><a xlink:href="d__a__dshutter_8h.html" target="_top" xlink:title=" ">
<polygon fill="white" stroke="#666666" points="374,-35.5 250,-35.5 250,-5.5 374,-5.5 374,-35.5"/>
<text text-anchor="start" x="258" y="-23.5" font-family="Helvetica,sans-Serif" font-size="10.00">include/rel/d/a/d_a</text>
<text text-anchor="middle" x="312" y="-12.5" font-family="Helvetica,sans-Serif" font-size="10.00">_dshutter/d_a_dshutter.h</text>
</a>
</g>
</g>
<!-- Node1&#45;&gt;Node4 -->
<g id="edge3" class="edge">
<title>Node1&#45;&gt;Node4</title>
<path fill="none" stroke="#63b8ff" d="M1233.19,-89.28C1053.74,-84.17 547.13,-67.71 383,-41 375.18,-39.73 366.98,-37.93 359.05,-35.93"/>
<polygon fill="#63b8ff" stroke="#63b8ff" points="1232.92,-92.77 1243.01,-89.56 1233.11,-85.78 1232.92,-92.77"/>
</g>
<!-- Node5 -->
<g id="node5" class="node">
<title>Node5</title>
<g id="a_node5"><a xlink:href="d__a__izumi__gate_8h.html" target="_top" xlink:title=" ">
<polygon fill="white" stroke="#666666" points="507.5,-41 392.5,-41 392.5,0 507.5,0 507.5,-41"/>
<text text-anchor="start" x="400.5" y="-29" font-family="Helvetica,sans-Serif" font-size="10.00">include/rel/d/a/d_a</text>
<text text-anchor="start" x="400.5" y="-18" font-family="Helvetica,sans-Serif" font-size="10.00">_izumi_gate/d_a_izumi</text>
<text text-anchor="middle" x="450" y="-7" font-family="Helvetica,sans-Serif" font-size="10.00">_gate.h</text>
</a>
</g>
</g>
<!-- Node1&#45;&gt;Node5 -->
<g id="edge4" class="edge">
<title>Node1&#45;&gt;Node5</title>
<path fill="none" stroke="#63b8ff" d="M1233.68,-91.71C1099.99,-92.16 779.55,-87.76 516,-41 513.29,-40.52 510.54,-39.97 507.77,-39.36"/>
<polygon fill="#63b8ff" stroke="#63b8ff" points="1233.39,-95.21 1243.38,-91.66 1233.36,-88.21 1233.39,-95.21"/>
</g>
<!-- Node6 -->
<g id="node6" class="node">
<title>Node6</title>
<g id="a_node6"><a xlink:href="d__a__obj__cboard_8h.html" target="_top" xlink:title=" ">
<polygon fill="white" stroke="#666666" points="632.5,-41 525.5,-41 525.5,0 632.5,0 632.5,-41"/>
<text text-anchor="start" x="533.5" y="-29" font-family="Helvetica,sans-Serif" font-size="10.00">include/rel/d/a/obj</text>
<text text-anchor="start" x="533.5" y="-18" font-family="Helvetica,sans-Serif" font-size="10.00">/d_a_obj_cboard/d_a</text>
<text text-anchor="middle" x="579" y="-7" font-family="Helvetica,sans-Serif" font-size="10.00">_obj_cboard.h</text>
</a>
</g>
</g>
<!-- Node1&#45;&gt;Node6 -->
<g id="edge5" class="edge">
<title>Node1&#45;&gt;Node6</title>
<path fill="none" stroke="#63b8ff" d="M1233.4,-90.85C1115.64,-89.54 856.13,-81.78 642,-41 638.96,-40.42 635.87,-39.75 632.76,-39.01"/>
<polygon fill="#63b8ff" stroke="#63b8ff" points="1233.14,-94.35 1243.17,-90.95 1233.21,-87.35 1233.14,-94.35"/>
</g>
<!-- Node7 -->
<g id="node7" class="node">
<title>Node7</title>
<g id="a_node7"><a xlink:href="d__a__obj__cowdoor_8h.html" target="_top" xlink:title=" ">
<polygon fill="white" stroke="#666666" points="765,-41 651,-41 651,0 765,0 765,-41"/>
<text text-anchor="start" x="659" y="-29" font-family="Helvetica,sans-Serif" font-size="10.00">include/rel/d/a/obj</text>
<text text-anchor="start" x="659" y="-18" font-family="Helvetica,sans-Serif" font-size="10.00">/d_a_obj_cowdoor/d_a</text>
<text text-anchor="middle" x="708" y="-7" font-family="Helvetica,sans-Serif" font-size="10.00">_obj_cowdoor.h</text>
</a>
</g>
</g>
<!-- Node1&#45;&gt;Node7 -->
<g id="edge6" class="edge">
<title>Node1&#45;&gt;Node7</title>
<path fill="none" stroke="#63b8ff" d="M1233.26,-88.85C1134.2,-84.62 937.66,-72.7 774,-41 771.18,-40.45 768.32,-39.84 765.43,-39.17"/>
<polygon fill="#63b8ff" stroke="#63b8ff" points="1232.92,-92.34 1243.05,-89.25 1233.2,-85.34 1232.92,-92.34"/>
</g>
<!-- Node8 -->
<g id="node8" class="node">
<title>Node8</title>
<g id="a_node8"><a xlink:href="d__a__obj__hbombkoya_8h.html" target="_top" xlink:title=" ">
<polygon fill="white" stroke="#666666" points="899,-41 783,-41 783,0 899,0 899,-41"/>
<text text-anchor="start" x="791" y="-29" font-family="Helvetica,sans-Serif" font-size="10.00">include/rel/d/a/obj</text>
<text text-anchor="start" x="791" y="-18" font-family="Helvetica,sans-Serif" font-size="10.00">/d_a_obj_hbombkoya/d</text>
<text text-anchor="middle" x="841" y="-7" font-family="Helvetica,sans-Serif" font-size="10.00">_a_obj_hbombkoya.h</text>
</a>
</g>
</g>
<!-- Node1&#45;&gt;Node8 -->
<g id="edge7" class="edge">
<title>Node1&#45;&gt;Node8</title>
<path fill="none" stroke="#63b8ff" d="M1233.67,-85.91C1156.26,-78.98 1021.56,-64.67 908,-41 905.15,-40.41 902.25,-39.75 899.33,-39.06"/>
<polygon fill="#63b8ff" stroke="#63b8ff" points="1232.89,-89.35 1243.15,-86.74 1233.5,-82.38 1232.89,-89.35"/>
</g>
<!-- Node9 -->
<g id="node9" class="node">
<title>Node9</title>
<g id="a_node9"><a xlink:href="d__a__obj__hsTarget_8h.html" target="_top" xlink:title=" ">
<polygon fill="white" stroke="#666666" points="1022.5,-41 917.5,-41 917.5,0 1022.5,0 1022.5,-41"/>
<text text-anchor="start" x="925.5" y="-29" font-family="Helvetica,sans-Serif" font-size="10.00">include/rel/d/a/obj</text>
<text text-anchor="start" x="925.5" y="-18" font-family="Helvetica,sans-Serif" font-size="10.00">/d_a_obj_hsTarget/d</text>
<text text-anchor="middle" x="970" y="-7" font-family="Helvetica,sans-Serif" font-size="10.00">_a_obj_hsTarget.h</text>
</a>
</g>
</g>
<!-- Node1&#45;&gt;Node9 -->
<g id="edge8" class="edge">
<title>Node1&#45;&gt;Node9</title>
<path fill="none" stroke="#63b8ff" d="M1233.44,-81.18C1179.47,-72.32 1100.15,-58.08 1032,-41 1029.04,-40.26 1026.02,-39.46 1022.98,-38.62"/>
<polygon fill="#63b8ff" stroke="#63b8ff" points="1232.64,-84.59 1243.07,-82.74 1233.76,-77.68 1232.64,-84.59"/>
</g>
<!-- Node10 -->
<g id="node10" class="node">
<title>Node10</title>
<g id="a_node10"><a xlink:href="d__a__obj__kjgjs_8h.html" target="_top" xlink:title=" ">
<polygon fill="white" stroke="#666666" points="1157,-41 1041,-41 1041,0 1157,0 1157,-41"/>
<text text-anchor="start" x="1049" y="-29" font-family="Helvetica,sans-Serif" font-size="10.00">include/rel/d/a/obj</text>
<text text-anchor="start" x="1049" y="-18" font-family="Helvetica,sans-Serif" font-size="10.00">/d_a_obj_kjgjs/d_a_obj</text>
<text text-anchor="middle" x="1099" y="-7" font-family="Helvetica,sans-Serif" font-size="10.00">_kjgjs.h</text>
</a>
</g>
</g>
<!-- Node1&#45;&gt;Node10 -->
<g id="edge9" class="edge">
<title>Node1&#45;&gt;Node10</title>
<path fill="none" stroke="#63b8ff" d="M1245.39,-72.88C1217.88,-63.23 1183.98,-51.33 1155.74,-41.42"/>
<polygon fill="#63b8ff" stroke="#63b8ff" points="1243.95,-76.09 1254.55,-76.1 1246.27,-69.48 1243.95,-76.09"/>
</g>
<!-- Node11 -->
<g id="node11" class="node">
<title>Node11</title>
<g id="a_node11"><a xlink:href="d__a__obj__lv4Gate_8h.html" target="_top" xlink:title=" ">
<polygon fill="white" stroke="#666666" points="1286.5,-41 1175.5,-41 1175.5,0 1286.5,0 1286.5,-41"/>
<text text-anchor="start" x="1183.5" y="-29" font-family="Helvetica,sans-Serif" font-size="10.00">include/rel/d/a/obj</text>
<text text-anchor="start" x="1183.5" y="-18" font-family="Helvetica,sans-Serif" font-size="10.00">/d_a_obj_lv4Gate/d_a</text>
<text text-anchor="middle" x="1231" y="-7" font-family="Helvetica,sans-Serif" font-size="10.00">_obj_lv4Gate.h</text>
</a>
</g>
</g>
<!-- Node1&#45;&gt;Node11 -->
<g id="edge10" class="edge">
<title>Node1&#45;&gt;Node11</title>
<path fill="none" stroke="#63b8ff" d="M1275.53,-68.39C1267.27,-59.69 1257.91,-49.84 1249.91,-41.42"/>
<polygon fill="#63b8ff" stroke="#63b8ff" points="1272.86,-70.66 1282.28,-75.5 1277.93,-65.84 1272.86,-70.66"/>
</g>
<!-- Node12 -->
<g id="node12" class="node">
<title>Node12</title>
<g id="a_node12"><a xlink:href="d__a__obj__lv4HsTarget_8h.html" target="_top" xlink:title=" ">
<polygon fill="white" stroke="#666666" points="1423.5,-41 1304.5,-41 1304.5,0 1423.5,0 1423.5,-41"/>
<text text-anchor="start" x="1312.5" y="-29" font-family="Helvetica,sans-Serif" font-size="10.00">include/rel/d/a/obj</text>
<text text-anchor="start" x="1312.5" y="-18" font-family="Helvetica,sans-Serif" font-size="10.00">/d_a_obj_lv4HsTarget</text>
<text text-anchor="middle" x="1364" y="-7" font-family="Helvetica,sans-Serif" font-size="10.00">/d_a_obj_lv4HsTarget.h</text>
</a>
</g>
</g>
<!-- Node1&#45;&gt;Node12 -->
<g id="edge11" class="edge">
<title>Node1&#45;&gt;Node12</title>
<path fill="none" stroke="#63b8ff" d="M1318.8,-68.39C1327.18,-59.69 1336.68,-49.84 1344.8,-41.42"/>
<polygon fill="#63b8ff" stroke="#63b8ff" points="1316.35,-65.88 1311.93,-75.51 1321.39,-70.74 1316.35,-65.88"/>
</g>
<!-- Node13 -->
<g id="node13" class="node">
<title>Node13</title>
<g id="a_node13"><a xlink:href="d__a__obj__lv4PoGate_8h.html" target="_top" xlink:title=" ">
<polygon fill="white" stroke="#666666" points="1554.5,-41 1441.5,-41 1441.5,0 1554.5,0 1554.5,-41"/>
<text text-anchor="start" x="1449.5" y="-29" font-family="Helvetica,sans-Serif" font-size="10.00">include/rel/d/a/obj</text>
<text text-anchor="start" x="1449.5" y="-18" font-family="Helvetica,sans-Serif" font-size="10.00">/d_a_obj_lv4PoGate/d</text>
<text text-anchor="middle" x="1498" y="-7" font-family="Helvetica,sans-Serif" font-size="10.00">_a_obj_lv4PoGate.h</text>
</a>
</g>
</g>
<!-- Node1&#45;&gt;Node13 -->
<g id="edge12" class="edge">
<title>Node1&#45;&gt;Node13</title>
<path fill="none" stroke="#63b8ff" d="M1349.48,-72.85C1377.64,-63.12 1412.37,-51.11 1441.16,-41.15"/>
<polygon fill="#63b8ff" stroke="#63b8ff" points="1348.38,-69.53 1340.08,-76.1 1350.67,-76.14 1348.38,-69.53"/>
</g>
<!-- Node14 -->
<g id="node14" class="node">
<title>Node14</title>
<g id="a_node14"><a xlink:href="d__a__obj__lv4floor_8h.html" target="_top" xlink:title=" ">
<polygon fill="white" stroke="#666666" points="1671,-41 1573,-41 1573,0 1671,0 1671,-41"/>
<text text-anchor="start" x="1581" y="-29" font-family="Helvetica,sans-Serif" font-size="10.00">include/rel/d/a/obj</text>
<text text-anchor="start" x="1581" y="-18" font-family="Helvetica,sans-Serif" font-size="10.00">/d_a_obj_lv4floor/d</text>
<text text-anchor="middle" x="1622" y="-7" font-family="Helvetica,sans-Serif" font-size="10.00">_a_obj_lv4floor.h</text>
</a>
</g>
</g>
<!-- Node1&#45;&gt;Node14 -->
<g id="edge13" class="edge">
<title>Node1&#45;&gt;Node14</title>
<path fill="none" stroke="#63b8ff" d="M1360.62,-81.64C1415.06,-73.03 1495.3,-58.89 1564,-41 1566.88,-40.25 1569.82,-39.43 1572.78,-38.57"/>
<polygon fill="#63b8ff" stroke="#63b8ff" points="1360.24,-78.16 1350.9,-83.16 1361.32,-85.08 1360.24,-78.16"/>
</g>
<!-- Node15 -->
<g id="node15" class="node">
<title>Node15</title>
<g id="a_node15"><a xlink:href="d__a__obj__magLiftRot_8h.html" target="_top" xlink:title=" ">
<polygon fill="white" stroke="#666666" points="1803,-41 1689,-41 1689,0 1803,0 1803,-41"/>
<text text-anchor="start" x="1697" y="-29" font-family="Helvetica,sans-Serif" font-size="10.00">include/rel/d/a/obj</text>
<text text-anchor="start" x="1697" y="-18" font-family="Helvetica,sans-Serif" font-size="10.00">/d_a_obj_magLiftRot</text>
<text text-anchor="middle" x="1746" y="-7" font-family="Helvetica,sans-Serif" font-size="10.00">/d_a_obj_magLiftRot.h</text>
</a>
</g>
</g>
<!-- Node1&#45;&gt;Node15 -->
<g id="edge14" class="edge">
<title>Node1&#45;&gt;Node15</title>
<path fill="none" stroke="#63b8ff" d="M1360.8,-85.77C1437.25,-78.79 1568.93,-64.51 1680,-41 1682.81,-40.41 1685.66,-39.75 1688.54,-39.06"/>
<polygon fill="#63b8ff" stroke="#63b8ff" points="1360.63,-82.27 1350.99,-86.65 1361.26,-89.24 1360.63,-82.27"/>
</g>
<!-- Node16 -->
<g id="node16" class="node">
<title>Node16</title>
<g id="a_node16"><a xlink:href="d__a__obj__mgate_8h.html" target="_top" xlink:title=" ">
<polygon fill="white" stroke="#666666" points="1943,-41 1821,-41 1821,0 1943,0 1943,-41"/>
<text text-anchor="start" x="1829" y="-29" font-family="Helvetica,sans-Serif" font-size="10.00">include/rel/d/a/obj</text>
<text text-anchor="start" x="1829" y="-18" font-family="Helvetica,sans-Serif" font-size="10.00">/d_a_obj_mgate/d_a_obj</text>
<text text-anchor="middle" x="1882" y="-7" font-family="Helvetica,sans-Serif" font-size="10.00">_mgate.h</text>
</a>
</g>
</g>
<!-- Node1&#45;&gt;Node16 -->
<g id="edge15" class="edge">
<title>Node1&#45;&gt;Node16</title>
<path fill="none" stroke="#63b8ff" d="M1360.77,-88.4C1458.58,-83.6 1651.19,-70.97 1812,-41 1814.85,-40.47 1817.76,-39.88 1820.68,-39.24"/>
<polygon fill="#63b8ff" stroke="#63b8ff" points="1360.66,-84.9 1350.83,-88.87 1360.99,-91.89 1360.66,-84.9"/>
</g>
<!-- Node17 -->
<g id="node17" class="node">
<title>Node17</title>
<g id="a_node17"><a xlink:href="d__a__obj__onsen_8h.html" target="_top" xlink:title=" ">
<polygon fill="white" stroke="#666666" points="2083,-41 1961,-41 1961,0 2083,0 2083,-41"/>
<text text-anchor="start" x="1969" y="-29" font-family="Helvetica,sans-Serif" font-size="10.00">include/rel/d/a/obj</text>
<text text-anchor="start" x="1969" y="-18" font-family="Helvetica,sans-Serif" font-size="10.00">/d_a_obj_onsen/d_a_obj</text>
<text text-anchor="middle" x="2022" y="-7" font-family="Helvetica,sans-Serif" font-size="10.00">_onsen.h</text>
</a>
</g>
</g>
<!-- Node1&#45;&gt;Node17 -->
<g id="edge16" class="edge">
<title>Node1&#45;&gt;Node17</title>
<path fill="none" stroke="#63b8ff" d="M1360.49,-90.26C1478.08,-87.99 1737.31,-78.72 1952,-41 1954.86,-40.5 1957.77,-39.93 1960.7,-39.31"/>
<polygon fill="#63b8ff" stroke="#63b8ff" points="1360.67,-86.76 1350.74,-90.44 1360.8,-93.76 1360.67,-86.76"/>
</g>
<!-- Node18 -->
<g id="node18" class="node">
<title>Node18</title>
<g id="a_node18"><a xlink:href="d__a__obj__swhang_8h.html" target="_top" xlink:title=" ">
<polygon fill="white" stroke="#666666" points="2212.5,-41 2101.5,-41 2101.5,0 2212.5,0 2212.5,-41"/>
<text text-anchor="start" x="2109.5" y="-29" font-family="Helvetica,sans-Serif" font-size="10.00">include/rel/d/a/obj</text>
<text text-anchor="start" x="2109.5" y="-18" font-family="Helvetica,sans-Serif" font-size="10.00">/d_a_obj_swhang/d_a</text>
<text text-anchor="middle" x="2157" y="-7" font-family="Helvetica,sans-Serif" font-size="10.00">_obj_swhang.h</text>
</a>
</g>
</g>
<!-- Node1&#45;&gt;Node18 -->
<g id="edge17" class="edge">
<title>Node1&#45;&gt;Node18</title>
<path fill="none" stroke="#63b8ff" d="M1360.54,-88.88C1523.24,-83.15 1951.92,-66.08 2092,-41 2095.02,-40.46 2098.09,-39.83 2101.18,-39.13"/>
<polygon fill="#63b8ff" stroke="#63b8ff" points="1360.67,-85.37 1350.8,-89.22 1360.92,-92.37 1360.67,-85.37"/>
</g>
<!-- Node19 -->
<g id="node19" class="node">
<title>Node19</title>
<g id="a_node19"><a xlink:href="d__a__obj__tgake_8h.html" target="_top" xlink:title=" ">
<polygon fill="white" stroke="#666666" points="2349.5,-41 2230.5,-41 2230.5,0 2349.5,0 2349.5,-41"/>
<text text-anchor="start" x="2238.5" y="-29" font-family="Helvetica,sans-Serif" font-size="10.00">include/rel/d/a/obj</text>
<text text-anchor="start" x="2238.5" y="-18" font-family="Helvetica,sans-Serif" font-size="10.00">/d_a_obj_tgake/d_a_obj</text>
<text text-anchor="middle" x="2290" y="-7" font-family="Helvetica,sans-Serif" font-size="10.00">_tgake.h</text>
</a>
</g>
</g>
<!-- Node1&#45;&gt;Node19 -->
<g id="edge18" class="edge">
<title>Node1&#45;&gt;Node19</title>
<path fill="none" stroke="#63b8ff" d="M1360.65,-89.43C1541.44,-84.66 2055.75,-68.96 2222,-41 2224.66,-40.55 2227.37,-40.04 2230.1,-39.47"/>
<polygon fill="#63b8ff" stroke="#63b8ff" points="1360.64,-85.92 1350.74,-89.68 1360.83,-92.92 1360.64,-85.92"/>
</g>
<!-- Node20 -->
<g id="node20" class="node">
<title>Node20</title>
<g id="a_node20"><a xlink:href="d__a__tag__hjump_8h.html" target="_top" xlink:title=" ">
<polygon fill="white" stroke="#666666" points="2490.5,-41 2367.5,-41 2367.5,0 2490.5,0 2490.5,-41"/>
<text text-anchor="start" x="2375.5" y="-29" font-family="Helvetica,sans-Serif" font-size="10.00">include/rel/d/a/tag</text>
<text text-anchor="start" x="2375.5" y="-18" font-family="Helvetica,sans-Serif" font-size="10.00">/d_a_tag_hjump/d_a_tag</text>
<text text-anchor="middle" x="2429" y="-7" font-family="Helvetica,sans-Serif" font-size="10.00">_hjump.h</text>
</a>
</g>
</g>
<!-- Node1&#45;&gt;Node20 -->
<g id="edge19" class="edge">
<title>Node1&#45;&gt;Node20</title>
<path fill="none" stroke="#63b8ff" d="M1360.72,-89.88C1559.26,-86.08 2165.02,-72.18 2359,-41 2361.74,-40.56 2364.53,-40.05 2367.33,-39.49"/>
<polygon fill="#63b8ff" stroke="#63b8ff" points="1360.79,-86.37 1350.86,-90.06 1360.92,-93.37 1360.79,-86.37"/>
</g>
<!-- Node21 -->
<g id="node21" class="node">
<title>Node21</title>
<g id="a_node21"><a xlink:href="d__bg__s__movebg__actor_8cpp.html" target="_top" xlink:title=" ">
<polygon fill="white" stroke="#666666" points="2635,-35.5 2509,-35.5 2509,-5.5 2635,-5.5 2635,-35.5"/>
<text text-anchor="start" x="2517" y="-23.5" font-family="Helvetica,sans-Serif" font-size="10.00">src/d/bg/d_bg_s_movebg</text>
<text text-anchor="middle" x="2572" y="-12.5" font-family="Helvetica,sans-Serif" font-size="10.00">_actor.cpp</text>
</a>
</g>
</g>
<!-- Node1&#45;&gt;Node21 -->
<g id="edge20" class="edge">
<title>Node1&#45;&gt;Node21</title>
<path fill="none" stroke="#63b8ff" d="M1360.61,-90.23C1576.07,-87.31 2277.23,-75.35 2500,-41 2508.06,-39.76 2516.52,-37.94 2524.68,-35.92"/>
<polygon fill="#63b8ff" stroke="#63b8ff" points="1360.69,-86.72 1350.73,-90.36 1360.78,-93.72 1360.69,-86.72"/>
</g>
</g>
</svg>
        <g id="navigator" transform="translate(0 0)" fill="#404254">
                <rect fill="#f2f5e9" fill-opacity="0.5" stroke="#606060" stroke-width=".5" x="0" y="0" width="60" height="60"/>
                <use id="zoomplus" xlink:href="#zoomPlus" x="17" y="9" onmousedown="handleZoom(evt,'in')"/>
                <use id="zoomminus" xlink:href="#zoomMin" x="42" y="9" onmousedown="handleZoom(evt,'out')"/>
                <use id="reset" xlink:href="#resetDef" x="30" y="36" onmousedown="handleReset()"/>
                <g id="arrowUp" xlink:href="#dirArrow" transform="translate(30 24)" onmousedown="handlePan(0,-1)">
                  <use xlink:href="#rim" fill="#404040">
                        <set attributeName="fill" to="#808080" begin="arrowUp.mouseover" end="arrowUp.mouseout"/>
                  </use>
                  <path fill="none" stroke="white" stroke-width="1.5" d="M0,-3.0v7 M-2.5,-0.5L0,-3.0L2.5,-0.5"/>
                </g>
                <g id="arrowRight" xlink:href="#dirArrow" transform="rotate(90) translate(36 -43)" onmousedown="handlePan(1,0)">
                  <use xlink:href="#rim" fill="#404040">
                        <set attributeName="fill" to="#808080" begin="arrowRight.mouseover" end="arrowRight.mouseout"/>
                  </use>
                  <path fill="none" stroke="white" stroke-width="1.5" d="M0,-3.0v7 M-2.5,-0.5L0,-3.0L2.5,-0.5"/>
                </g>
                <g id="arrowDown" xlink:href="#dirArrow" transform="rotate(180) translate(-30 -48)" onmousedown="handlePan(0,1)">
                  <use xlink:href="#rim" fill="#404040">
                        <set attributeName="fill" to="#808080" begin="arrowDown.mouseover" end="arrowDown.mouseout"/>
                  </use>
                  <path fill="none" stroke="white" stroke-width="1.5" d="M0,-3.0v7 M-2.5,-0.5L0,-3.0L2.5,-0.5"/>
                </g>
                <g id="arrowLeft" xlink:href="#dirArrow" transform="rotate(270) translate(-36 17)" onmousedown="handlePan(-1,0)">
                  <use xlink:href="#rim" fill="#404040">
                        <set attributeName="fill" to="#808080" begin="arrowLeft.mouseover" end="arrowLeft.mouseout"/>
                  </use>
                  <path fill="none" stroke="white" stroke-width="1.5" d="M0,-3.0v7 M-2.5,-0.5L0,-3.0L2.5,-0.5"/>
                </g>
        </g>
        <svg viewBox="0 0 15 15" width="100%" height="30px" preserveAspectRatio="xMaxYMin meet">
         <g id="arrow_out" transform="scale(0.3 0.3)">
          <a xlink:href="d__bg__s__movebg__actor_8h__dep__incl_org.svg" target="_base">
           <rect id="button" ry="5" rx="5" y="6" x="6" height="38" width="38"
                fill="#f2f5e9" fill-opacity="0.5" stroke="#606060" stroke-width="1.0"/>
           <path id="arrow"
             d="M 11.500037,31.436501 C 11.940474,20.09759 22.043105,11.32322 32.158766,21.979434 L 37.068811,17.246167 C 37.068811,17.246167 37.088388,32 37.088388,32 L 22.160133,31.978069 C 22.160133,31.978069 26.997745,27.140456 26.997745,27.140456 C 18.528582,18.264221 13.291696,25.230495 11.500037,31.436501 z"
             style="fill:#404040;"/>
          </a>
         </g>
        </svg>
</svg>
