<?xml version="1.0" encoding="UTF-8" standalone="no"?>
<!DOCTYPE svg PUBLIC "-//W3C//DTD SVG 1.1//EN"
 "http://www.w3.org/Graphics/SVG/1.1/DTD/svg11.dtd">
<!-- Generated by graphviz version 7.0.5 (20221223.1930)
 -->
<!-- Title: include/d/bg/d_bg_s.h Pages: 1 -->
<svg width="5611pt" height="291pt"
 viewBox="0.00 0.00 5610.50 291.00" xmlns="http://www.w3.org/2000/svg" xmlns:xlink="http://www.w3.org/1999/xlink">
<g id="graph0" class="graph" transform="scale(1 1) rotate(0) translate(4 287)">
<title>include/d/bg/d_bg_s.h</title>
<!-- Node1 -->
<g id="node1" class="node">
<title>Node1</title>
<g id="a_node1"><a xlink:title=" ">
<polygon fill="#999999" stroke="#666666" points="2984,-283 2873,-283 2873,-264 2984,-264 2984,-283"/>
<text text-anchor="middle" x="2928.5" y="-271" font-family="Helvetica,sans-Serif" font-size="10.00">include/d/bg/d_bg_s.h</text>
</a>
</g>
</g>
<!-- Node2 -->
<g id="node2" class="node">
<title>Node2</title>
<g id="a_node2"><a xlink:href="d__a__alink_8h.html" target="_top" xlink:title=" ">
<polygon fill="white" stroke="#666666" points="2900.5,-228 2784.5,-228 2784.5,-209 2900.5,-209 2900.5,-228"/>
<text text-anchor="middle" x="2842.5" y="-216" font-family="Helvetica,sans-Serif" font-size="10.00">include/d/a/d_a_alink.h</text>
</a>
</g>
</g>
<!-- Node1&#45;&gt;Node2 -->
<g id="edge1" class="edge">
<title>Node1&#45;&gt;Node2</title>
<path fill="none" stroke="#63b8ff" d="M2904.53,-257.73C2889.21,-248.29 2869.85,-236.36 2856.87,-228.36"/>
<polygon fill="#63b8ff" stroke="#63b8ff" points="2902.27,-260.45 2912.62,-262.72 2905.95,-254.49 2902.27,-260.45"/>
</g>
<!-- Node3 -->
<g id="node3" class="node">
<title>Node3</title>
<g id="a_node3"><a xlink:href="d__com__inf__game_8h.html" target="_top" xlink:title=" ">
<polygon fill="#fff0f0" stroke="red" points="2961.5,-173 2851.5,-173 2851.5,-143 2961.5,-143 2961.5,-173"/>
<text text-anchor="start" x="2859.5" y="-161" font-family="Helvetica,sans-Serif" font-size="10.00">include/d/com/d_com</text>
<text text-anchor="middle" x="2906.5" y="-150" font-family="Helvetica,sans-Serif" font-size="10.00">_inf_game.h</text>
</a>
</g>
</g>
<!-- Node1&#45;&gt;Node3 -->
<g id="edge57" class="edge">
<title>Node1&#45;&gt;Node3</title>
<path fill="none" stroke="#63b8ff" d="M2924.59,-252.31C2920.19,-229.65 2913.17,-193.44 2909.3,-173.44"/>
<polygon fill="#63b8ff" stroke="#63b8ff" points="2921.15,-252.96 2926.49,-262.11 2928.02,-251.62 2921.15,-252.96"/>
</g>
<!-- Node127 -->
<g id="node48" class="node">
<title>Node127</title>
<g id="a_node48"><a xlink:href="d__bg__s_8cpp.html" target="_top" xlink:title=" ">
<polygon fill="white" stroke="#666666" points="5602.5,-96 5498.5,-96 5498.5,-77 5602.5,-77 5602.5,-96"/>
<text text-anchor="middle" x="5550.5" y="-84" font-family="Helvetica,sans-Serif" font-size="10.00">src/d/bg/d_bg_s.cpp</text>
</a>
</g>
</g>
<!-- Node1&#45;&gt;Node127 -->
<g id="edge61" class="edge">
<title>Node1&#45;&gt;Node127</title>
<path fill="none" stroke="#63b8ff" d="M2943.62,-255.75C2958.63,-240.43 2983.15,-218.71 3009.5,-209 3523.71,-19.48 4931.2,-186.02 5473.5,-107 5489.47,-104.67 5506.92,-100.4 5521.17,-96.45"/>
<polygon fill="#63b8ff" stroke="#63b8ff" points="2941.29,-253.12 2936.98,-262.8 2946.38,-257.92 2941.29,-253.12"/>
</g>
<!-- Node167 -->
<g id="node49" class="node">
<title>Node167</title>
<g id="a_node49"><a xlink:href="d__a__horse_8h.html" target="_top" xlink:title=" ">
<polygon fill="#fff0f0" stroke="red" points="101,-173 0,-173 0,-143 101,-143 101,-173"/>
<text text-anchor="start" x="8" y="-161" font-family="Helvetica,sans-Serif" font-size="10.00">include/rel/d/a/d_a</text>
<text text-anchor="middle" x="50.5" y="-150" font-family="Helvetica,sans-Serif" font-size="10.00">_horse/d_a_horse.h</text>
</a>
</g>
</g>
<!-- Node1&#45;&gt;Node167 -->
<g id="edge58" class="edge">
<title>Node1&#45;&gt;Node167</title>
<path fill="none" stroke="#63b8ff" d="M2861.31,-271.74C2488.57,-267.26 671.52,-242.16 115.5,-173 110.92,-172.43 106.18,-171.7 101.45,-170.86"/>
<polygon fill="#63b8ff" stroke="#63b8ff" points="2861.13,-275.23 2871.17,-271.85 2861.21,-268.24 2861.13,-275.23"/>
</g>
<!-- Node168 -->
<g id="node50" class="node">
<title>Node168</title>
<g id="a_node50"><a xlink:href="d__bg__s__acch_8cpp.html" target="_top" xlink:title=" ">
<polygon fill="white" stroke="#666666" points="3149,-228 3018,-228 3018,-209 3149,-209 3149,-228"/>
<text text-anchor="middle" x="3083.5" y="-216" font-family="Helvetica,sans-Serif" font-size="10.00">src/d/bg/d_bg_s_acch.cpp</text>
</a>
</g>
</g>
<!-- Node1&#45;&gt;Node168 -->
<g id="edge62" class="edge">
<title>Node1&#45;&gt;Node168</title>
<path fill="none" stroke="#63b8ff" d="M2965.48,-259.85C2993.8,-250.17 3032.14,-237.06 3057.34,-228.45"/>
<polygon fill="#63b8ff" stroke="#63b8ff" points="2964.56,-256.47 2956.23,-263.02 2966.82,-263.1 2964.56,-256.47"/>
</g>
<!-- Node2&#45;&gt;Node3 -->
<g id="edge2" class="edge">
<title>Node2&#45;&gt;Node3</title>
<path fill="none" stroke="#63b8ff" d="M2860.55,-201C2870.04,-192.32 2881.57,-181.79 2890.7,-173.44"/>
<polygon fill="#63b8ff" stroke="#63b8ff" points="2858.36,-198.26 2853.34,-207.59 2863.08,-203.43 2858.36,-198.26"/>
</g>
<!-- Node15 -->
<g id="node10" class="node">
<title>Node15</title>
<g id="a_node10"><a xlink:href="d__a__alink_8cpp.html" target="_top" xlink:title=" ">
<polygon fill="white" stroke="#666666" points="3046,-24.5 2937,-24.5 2937,-5.5 3046,-5.5 3046,-24.5"/>
<text text-anchor="middle" x="2991.5" y="-12.5" font-family="Helvetica,sans-Serif" font-size="10.00">src/d/a/d_a_alink.cpp</text>
</a>
</g>
</g>
<!-- Node2&#45;&gt;Node15 -->
<g id="edge56" class="edge">
<title>Node2&#45;&gt;Node15</title>
<path fill="none" stroke="#63b8ff" d="M2772.66,-217.34C2357.73,-216.09 231.47,-204.89 137.5,-107 124.88,-93.85 124.73,-79 137.5,-66 188.45,-14.15 2544.56,-15.35 2936.51,-15.9"/>
<polygon fill="#63b8ff" stroke="#63b8ff" points="2772.62,-220.84 2782.64,-217.37 2772.65,-213.84 2772.62,-220.84"/>
</g>
<!-- Node4 -->
<g id="node4" class="node">
<title>Node4</title>
<g id="a_node4"><a xlink:href="d__a__npc_8h.html" target="_top" xlink:title=" ">
<polygon fill="#fff0f0" stroke="red" points="5235,-24.5 5124,-24.5 5124,-5.5 5235,-5.5 5235,-24.5"/>
<text text-anchor="middle" x="5179.5" y="-12.5" font-family="Helvetica,sans-Serif" font-size="10.00">include/d/a/d_a_npc.h</text>
</a>
</g>
</g>
<!-- Node3&#45;&gt;Node4 -->
<g id="edge3" class="edge">
<title>Node3&#45;&gt;Node4</title>
<path fill="none" stroke="#63b8ff" d="M2972.96,-143.29C2973.81,-143.19 2974.66,-143.09 2975.5,-143 3037.97,-136.22 5193.42,-151.79 5237.5,-107 5250.28,-94.01 5245.09,-82.57 5237.5,-66 5229.08,-47.63 5210.21,-33.45 5196.27,-24.96"/>
<polygon fill="#63b8ff" stroke="#63b8ff" points="2972.64,-139.8 2963.22,-144.65 2973.61,-146.73 2972.64,-139.8"/>
</g>
<!-- Node10 -->
<g id="node5" class="node">
<title>Node10</title>
<g id="a_node5"><a xlink:href="d__cc__uty_8h.html" target="_top" xlink:title=" ">
<polygon fill="#fff0f0" stroke="red" points="5442,-96 5323,-96 5323,-77 5442,-77 5442,-96"/>
<text text-anchor="middle" x="5382.5" y="-84" font-family="Helvetica,sans-Serif" font-size="10.00">include/d/cc/d_cc_uty.h</text>
</a>
</g>
</g>
<!-- Node3&#45;&gt;Node10 -->
<g id="edge4" class="edge">
<title>Node3&#45;&gt;Node10</title>
<path fill="none" stroke="#63b8ff" d="M2972.96,-143.29C2973.81,-143.19 2974.66,-143.09 2975.5,-143 3491,-87.21 4794.82,-177.58 5308.5,-107 5324.16,-104.85 5341.25,-100.48 5355.06,-96.43"/>
<polygon fill="#63b8ff" stroke="#63b8ff" points="2972.64,-139.8 2963.22,-144.65 2973.61,-146.73 2972.64,-139.8"/>
</g>
<!-- Node11 -->
<g id="node6" class="node">
<title>Node11</title>
<g id="a_node6"><a xlink:href="d__a__b__ob_8h.html" target="_top" xlink:title=" ">
<polygon fill="#fff0f0" stroke="red" points="5382.5,-30 5276.5,-30 5276.5,0 5382.5,0 5382.5,-30"/>
<text text-anchor="start" x="5284.5" y="-18" font-family="Helvetica,sans-Serif" font-size="10.00">include/rel/d/a/b/d</text>
<text text-anchor="middle" x="5329.5" y="-7" font-family="Helvetica,sans-Serif" font-size="10.00">_a_b_ob/d_a_b_ob.h</text>
</a>
</g>
</g>
<!-- Node3&#45;&gt;Node11 -->
<g id="edge25" class="edge">
<title>Node3&#45;&gt;Node11</title>
<path fill="none" stroke="#63b8ff" d="M2972.96,-143.29C2973.81,-143.19 2974.66,-143.09 2975.5,-143 3101.39,-129.35 5140.4,-161.92 5254.5,-107 5288.07,-90.84 5311.82,-51.66 5322.74,-30.36"/>
<polygon fill="#63b8ff" stroke="#63b8ff" points="2972.64,-139.8 2963.22,-144.65 2973.61,-146.73 2972.64,-139.8"/>
</g>
<!-- Node17 -->
<g id="node7" class="node">
<title>Node17</title>
<g id="a_node7"><a xlink:href="d__a__e__yk_8h.html" target="_top" xlink:title=" ">
<polygon fill="white" stroke="#666666" points="5516.5,-30 5412.5,-30 5412.5,0 5516.5,0 5516.5,-30"/>
<text text-anchor="start" x="5420.5" y="-18" font-family="Helvetica,sans-Serif" font-size="10.00">include/rel/d/a/e/d</text>
<text text-anchor="middle" x="5464.5" y="-7" font-family="Helvetica,sans-Serif" font-size="10.00">_a_e_yk/d_a_e_yk.h</text>
</a>
</g>
</g>
<!-- Node3&#45;&gt;Node17 -->
<g id="edge38" class="edge">
<title>Node3&#45;&gt;Node17</title>
<path fill="none" stroke="#63b8ff" d="M2972.96,-143.29C2973.81,-143.19 2974.66,-143.09 2975.5,-143 3043.89,-135.63 5399.87,-152.44 5451.5,-107 5473.06,-88.02 5470.73,-50.74 5467.44,-30.28"/>
<polygon fill="#63b8ff" stroke="#63b8ff" points="2972.64,-139.8 2963.22,-144.65 2973.61,-146.73 2972.64,-139.8"/>
</g>
<!-- Node19 -->
<g id="node8" class="node">
<title>Node19</title>
<g id="a_node8"><a xlink:href="d__error__msg_8h.html" target="_top" xlink:title=" ">
<polygon fill="#fff0f0" stroke="red" points="672.5,-96 552.5,-96 552.5,-77 672.5,-77 672.5,-96"/>
<text text-anchor="middle" x="612.5" y="-84" font-family="Helvetica,sans-Serif" font-size="10.00">include/d/d_error_msg.h</text>
</a>
</g>
</g>
<!-- Node3&#45;&gt;Node19 -->
<g id="edge7" class="edge">
<title>Node3&#45;&gt;Node19</title>
<path fill="none" stroke="#63b8ff" d="M2839.88,-156.51C2492.8,-153.8 899.21,-139.67 681.5,-107 666.97,-104.82 651.18,-100.51 638.37,-96.49"/>
<polygon fill="#63b8ff" stroke="#63b8ff" points="2839.68,-160 2849.71,-156.58 2839.74,-153 2839.68,-160"/>
</g>
<!-- Node22 -->
<g id="node9" class="node">
<title>Node22</title>
<g id="a_node9"><a xlink:href="d__item_8h.html" target="_top" xlink:title=" ">
<polygon fill="#fff0f0" stroke="red" points="1026,-96 931,-96 931,-77 1026,-77 1026,-96"/>
<text text-anchor="middle" x="978.5" y="-84" font-family="Helvetica,sans-Serif" font-size="10.00">include/d/d_item.h</text>
</a>
</g>
</g>
<!-- Node3&#45;&gt;Node22 -->
<g id="edge8" class="edge">
<title>Node3&#45;&gt;Node22</title>
<path fill="none" stroke="#63b8ff" d="M2840.17,-156.42C2528.33,-153.51 1215.66,-139.44 1035.5,-107 1023.35,-104.81 1010.29,-100.5 999.74,-96.48"/>
<polygon fill="#63b8ff" stroke="#63b8ff" points="2839.72,-159.91 2849.76,-156.5 2839.79,-152.91 2839.72,-159.91"/>
</g>
<!-- Node3&#45;&gt;Node15 -->
<g id="edge54" class="edge">
<title>Node3&#45;&gt;Node15</title>
<path fill="none" stroke="#63b8ff" d="M2972.96,-143.29C2973.81,-143.19 2974.66,-143.09 2975.5,-143 3033.39,-136.68 5030.68,-148.53 5071.5,-107 5084.27,-94 5084.23,-79.04 5071.5,-66 5035.08,-28.69 3371.7,-18.01 3046.36,-16.27"/>
<polygon fill="#63b8ff" stroke="#63b8ff" points="2972.64,-139.8 2963.22,-144.66 2973.61,-146.73 2972.64,-139.8"/>
</g>
<!-- Node27 -->
<g id="node11" class="node">
<title>Node27</title>
<g id="a_node11"><a xlink:href="d__kantera__icon__meter_8h.html" target="_top" xlink:title=" ">
<polygon fill="#fff0f0" stroke="red" points="792,-101.5 691,-101.5 691,-71.5 792,-71.5 792,-101.5"/>
<text text-anchor="start" x="699" y="-89.5" font-family="Helvetica,sans-Serif" font-size="10.00">include/d/d_kantera</text>
<text text-anchor="middle" x="741.5" y="-78.5" font-family="Helvetica,sans-Serif" font-size="10.00">_icon_meter.h</text>
</a>
</g>
</g>
<!-- Node3&#45;&gt;Node27 -->
<g id="edge10" class="edge">
<title>Node3&#45;&gt;Node27</title>
<path fill="none" stroke="#63b8ff" d="M2839.68,-156.59C2503.48,-154.34 1005.06,-142.42 800.5,-107 793.7,-105.82 786.61,-104.01 779.8,-101.97"/>
<polygon fill="#63b8ff" stroke="#63b8ff" points="2839.6,-160.09 2849.63,-156.65 2839.65,-153.09 2839.6,-160.09"/>
</g>
<!-- Node30 -->
<g id="node12" class="node">
<title>Node30</title>
<g id="a_node12"><a xlink:href="d__model_8h.html" target="_top" xlink:title=" ">
<polygon fill="#fff0f0" stroke="red" points="913,-96 810,-96 810,-77 913,-77 913,-96"/>
<text text-anchor="middle" x="861.5" y="-84" font-family="Helvetica,sans-Serif" font-size="10.00">include/d/d_model.h</text>
</a>
</g>
</g>
<!-- Node3&#45;&gt;Node30 -->
<g id="edge11" class="edge">
<title>Node3&#45;&gt;Node30</title>
<path fill="none" stroke="#63b8ff" d="M2839.9,-156.46C2516.05,-153.7 1113.65,-139.93 921.5,-107 908.76,-104.82 895.02,-100.5 883.9,-96.49"/>
<polygon fill="#63b8ff" stroke="#63b8ff" points="2839.86,-159.96 2849.89,-156.55 2839.92,-152.96 2839.86,-159.96"/>
</g>
<!-- Node32 -->
<g id="node13" class="node">
<title>Node32</title>
<g id="a_node13"><a xlink:href="d__name_8h.html" target="_top" xlink:title=" ">
<polygon fill="#fff0f0" stroke="red" points="534,-96 433,-96 433,-77 534,-77 534,-96"/>
<text text-anchor="middle" x="483.5" y="-84" font-family="Helvetica,sans-Serif" font-size="10.00">include/d/d_name.h</text>
</a>
</g>
</g>
<!-- Node3&#45;&gt;Node32 -->
<g id="edge12" class="edge">
<title>Node3&#45;&gt;Node32</title>
<path fill="none" stroke="#63b8ff" d="M2839.82,-156.75C2479.71,-155.26 774.88,-146.17 543.5,-107 530.65,-104.82 516.78,-100.46 505.62,-96.41"/>
<polygon fill="#63b8ff" stroke="#63b8ff" points="2839.54,-160.25 2849.56,-156.79 2839.57,-153.25 2839.54,-160.25"/>
</g>
<!-- Node33 -->
<g id="node14" class="node">
<title>Node33</title>
<g id="a_node14"><a xlink:href="d__file__select_8h.html" target="_top" xlink:title=" ">
<polygon fill="#fff0f0" stroke="red" points="414.5,-30 318.5,-30 318.5,0 414.5,0 414.5,-30"/>
<text text-anchor="start" x="326.5" y="-18" font-family="Helvetica,sans-Serif" font-size="10.00">include/d/file/d_file</text>
<text text-anchor="middle" x="366.5" y="-7" font-family="Helvetica,sans-Serif" font-size="10.00">_select.h</text>
</a>
</g>
</g>
<!-- Node3&#45;&gt;Node33 -->
<g id="edge17" class="edge">
<title>Node3&#45;&gt;Node33</title>
<path fill="none" stroke="#63b8ff" d="M2839.82,-156.99C2438.01,-156.8 355.15,-153.53 309.5,-107 296.74,-93.99 301.98,-82.6 309.5,-66 316.24,-51.13 329.82,-38.94 342.04,-30.31"/>
<polygon fill="#63b8ff" stroke="#63b8ff" points="2839.69,-160.49 2849.7,-157 2839.7,-153.49 2839.69,-160.49"/>
</g>
<!-- Node36 -->
<g id="node15" class="node">
<title>Node36</title>
<g id="a_node15"><a xlink:href="d__file__sel__info_8h.html" target="_top" xlink:title=" ">
<polygon fill="#fff0f0" stroke="red" points="1140.5,-101.5 1044.5,-101.5 1044.5,-71.5 1140.5,-71.5 1140.5,-101.5"/>
<text text-anchor="start" x="1052.5" y="-89.5" font-family="Helvetica,sans-Serif" font-size="10.00">include/d/file/d_file</text>
<text text-anchor="middle" x="1092.5" y="-78.5" font-family="Helvetica,sans-Serif" font-size="10.00">_sel_info.h</text>
</a>
</g>
</g>
<!-- Node3&#45;&gt;Node36 -->
<g id="edge14" class="edge">
<title>Node3&#45;&gt;Node36</title>
<path fill="none" stroke="#63b8ff" d="M2840.36,-156.29C2540.72,-152.94 1317.93,-137.48 1149.5,-107 1142.91,-105.81 1136.06,-103.99 1129.48,-101.94"/>
<polygon fill="#63b8ff" stroke="#63b8ff" points="2839.9,-159.79 2849.94,-156.4 2839.98,-152.79 2839.9,-159.79"/>
</g>
<!-- Node39 -->
<g id="node16" class="node">
<title>Node39</title>
<g id="a_node16"><a xlink:href="d__file__sel__warning_8h.html" target="_top" xlink:title=" ">
<polygon fill="#fff0f0" stroke="red" points="414.5,-101.5 318.5,-101.5 318.5,-71.5 414.5,-71.5 414.5,-101.5"/>
<text text-anchor="start" x="326.5" y="-89.5" font-family="Helvetica,sans-Serif" font-size="10.00">include/d/file/d_file</text>
<text text-anchor="middle" x="366.5" y="-78.5" font-family="Helvetica,sans-Serif" font-size="10.00">_sel_warning.h</text>
</a>
</g>
</g>
<!-- Node3&#45;&gt;Node39 -->
<g id="edge15" class="edge">
<title>Node3&#45;&gt;Node39</title>
<path fill="none" stroke="#63b8ff" d="M2839.73,-156.89C2468.55,-156.09 667.04,-150.03 423.5,-107 416.91,-105.84 410.05,-104.03 403.47,-101.99"/>
<polygon fill="#63b8ff" stroke="#63b8ff" points="2839.54,-160.39 2849.55,-156.91 2839.55,-153.39 2839.54,-160.39"/>
</g>
<!-- Node41 -->
<g id="node17" class="node">
<title>Node41</title>
<g id="a_node17"><a xlink:href="d__meter2_8h.html" target="_top" xlink:title=" ">
<polygon fill="#fff0f0" stroke="red" points="1292.5,-96 1158.5,-96 1158.5,-77 1292.5,-77 1292.5,-96"/>
<text text-anchor="middle" x="1225.5" y="-84" font-family="Helvetica,sans-Serif" font-size="10.00">include/d/meter/d_meter2.h</text>
</a>
</g>
</g>
<!-- Node3&#45;&gt;Node41 -->
<g id="edge18" class="edge">
<title>Node3&#45;&gt;Node41</title>
<path fill="none" stroke="#63b8ff" d="M2839.92,-156.88C2576.38,-156.09 1605.76,-150.23 1301.5,-107 1285.59,-104.74 1268.2,-100.42 1254.07,-96.42"/>
<polygon fill="#63b8ff" stroke="#63b8ff" points="2839.68,-160.38 2849.69,-156.9 2839.7,-153.38 2839.68,-160.38"/>
</g>
<!-- Node51 -->
<g id="node18" class="node">
<title>Node51</title>
<g id="a_node18"><a xlink:href="d__msg__object_8h.html" target="_top" xlink:title=" ">
<polygon fill="#fff0f0" stroke="red" points="5228.5,-101.5 5118.5,-101.5 5118.5,-71.5 5228.5,-71.5 5228.5,-101.5"/>
<text text-anchor="start" x="5126.5" y="-89.5" font-family="Helvetica,sans-Serif" font-size="10.00">include/d/msg/d_msg</text>
<text text-anchor="middle" x="5173.5" y="-78.5" font-family="Helvetica,sans-Serif" font-size="10.00">_object.h</text>
</a>
</g>
</g>
<!-- Node3&#45;&gt;Node51 -->
<g id="edge19" class="edge">
<title>Node3&#45;&gt;Node51</title>
<path fill="none" stroke="#63b8ff" d="M2972.96,-143.29C2973.81,-143.19 2974.66,-143.09 2975.5,-143 3445.89,-91.74 4636.37,-175.92 5104.5,-107 5112.38,-105.84 5120.64,-104.04 5128.58,-102"/>
<polygon fill="#63b8ff" stroke="#63b8ff" points="2972.64,-139.8 2963.22,-144.66 2973.61,-146.73 2972.64,-139.8"/>
</g>
<!-- Node70 -->
<g id="node19" class="node">
<title>Node70</title>
<g id="a_node19"><a xlink:href="d__s__logo_8h.html" target="_top" xlink:title=" ">
<polygon fill="#fff0f0" stroke="red" points="1424,-96 1311,-96 1311,-77 1424,-77 1424,-96"/>
<text text-anchor="middle" x="1367.5" y="-84" font-family="Helvetica,sans-Serif" font-size="10.00">include/d/s/d_s_logo.h</text>
</a>
</g>
</g>
<!-- Node3&#45;&gt;Node70 -->
<g id="edge22" class="edge">
<title>Node3&#45;&gt;Node70</title>
<path fill="none" stroke="#63b8ff" d="M2839.6,-157.01C2589.4,-156.71 1708.89,-152.36 1432.5,-107 1418.78,-104.75 1403.9,-100.43 1391.84,-96.43"/>
<polygon fill="#63b8ff" stroke="#63b8ff" points="2839.52,-160.51 2849.52,-157.02 2839.53,-153.51 2839.52,-160.51"/>
</g>
<!-- Node72 -->
<g id="node20" class="node">
<title>Node72</title>
<g id="a_node20"><a xlink:href="d__s__play_8h.html" target="_top" xlink:title=" ">
<polygon fill="#fff0f0" stroke="red" points="1555,-96 1442,-96 1442,-77 1555,-77 1555,-96"/>
<text text-anchor="middle" x="1498.5" y="-84" font-family="Helvetica,sans-Serif" font-size="10.00">include/d/s/d_s_play.h</text>
</a>
</g>
</g>
<!-- Node3&#45;&gt;Node72 -->
<g id="edge23" class="edge">
<title>Node3&#45;&gt;Node72</title>
<path fill="none" stroke="#63b8ff" d="M2839.76,-156.76C2604.29,-155.54 1813.2,-148.41 1563.5,-107 1549.79,-104.73 1534.9,-100.4 1522.84,-96.41"/>
<polygon fill="#63b8ff" stroke="#63b8ff" points="2839.67,-160.25 2849.69,-156.8 2839.7,-153.25 2839.67,-160.25"/>
</g>
<!-- Node79 -->
<g id="node21" class="node">
<title>Node79</title>
<g id="a_node21"><a xlink:href="d__msg__scrn__base_8h.html" target="_top" xlink:title=" ">
<polygon fill="#fff0f0" stroke="red" points="1672,-101.5 1573,-101.5 1573,-71.5 1672,-71.5 1672,-101.5"/>
<text text-anchor="start" x="1581" y="-89.5" font-family="Helvetica,sans-Serif" font-size="10.00">include/msg/scrn/d</text>
<text text-anchor="middle" x="1622.5" y="-78.5" font-family="Helvetica,sans-Serif" font-size="10.00">_msg_scrn_base.h</text>
</a>
</g>
</g>
<!-- Node3&#45;&gt;Node79 -->
<g id="edge24" class="edge">
<title>Node3&#45;&gt;Node79</title>
<path fill="none" stroke="#63b8ff" d="M2839.65,-156.76C2617.56,-155.58 1905.72,-148.58 1680.5,-107 1673.92,-105.79 1667.06,-103.99 1660.47,-101.97"/>
<polygon fill="#63b8ff" stroke="#63b8ff" points="2839.56,-160.26 2849.58,-156.81 2839.6,-153.26 2839.56,-160.26"/>
</g>
<!-- Node83 -->
<g id="node22" class="node">
<title>Node83</title>
<g id="a_node22"><a xlink:href="d__a__b__zant_8h.html" target="_top" xlink:title=" ">
<polygon fill="white" stroke="#666666" points="1811,-101.5 1690,-101.5 1690,-71.5 1811,-71.5 1811,-101.5"/>
<text text-anchor="start" x="1698" y="-89.5" font-family="Helvetica,sans-Serif" font-size="10.00">include/rel/d/a/b/d</text>
<text text-anchor="middle" x="1750.5" y="-78.5" font-family="Helvetica,sans-Serif" font-size="10.00">_a_b_zant/d_a_b_zant.h</text>
</a>
</g>
</g>
<!-- Node3&#45;&gt;Node83 -->
<g id="edge26" class="edge">
<title>Node3&#45;&gt;Node83</title>
<path fill="none" stroke="#63b8ff" d="M2839.88,-155.9C2635.37,-152.22 2018.4,-138.7 1820.5,-107 1812.78,-105.76 1804.69,-103.98 1796.87,-101.99"/>
<polygon fill="#63b8ff" stroke="#63b8ff" points="2839.75,-159.4 2849.81,-156.08 2839.87,-152.4 2839.75,-159.4"/>
</g>
<!-- Node84 -->
<g id="node23" class="node">
<title>Node84</title>
<g id="a_node23"><a xlink:href="d__a__andsw_8h.html" target="_top" xlink:title=" ">
<polygon fill="white" stroke="#666666" points="1939.5,-101.5 1829.5,-101.5 1829.5,-71.5 1939.5,-71.5 1939.5,-101.5"/>
<text text-anchor="start" x="1837.5" y="-89.5" font-family="Helvetica,sans-Serif" font-size="10.00">include/rel/d/a/d_a</text>
<text text-anchor="middle" x="1884.5" y="-78.5" font-family="Helvetica,sans-Serif" font-size="10.00">_andsw/d_a_andsw.h</text>
</a>
</g>
</g>
<!-- Node3&#45;&gt;Node84 -->
<g id="edge27" class="edge">
<title>Node3&#45;&gt;Node84</title>
<path fill="none" stroke="#63b8ff" d="M2839.81,-155.63C2651.83,-151.44 2120.21,-137.17 1948.5,-107 1941.41,-105.75 1934,-103.97 1926.84,-101.98"/>
<polygon fill="#63b8ff" stroke="#63b8ff" points="2839.57,-159.13 2849.64,-155.85 2839.72,-152.13 2839.57,-159.13"/>
</g>
<!-- Node85 -->
<g id="node24" class="node">
<title>Node85</title>
<g id="a_node24"><a xlink:href="d__a__cstaF_8h.html" target="_top" xlink:title=" ">
<polygon fill="white" stroke="#666666" points="2061,-101.5 1958,-101.5 1958,-71.5 2061,-71.5 2061,-101.5"/>
<text text-anchor="start" x="1966" y="-89.5" font-family="Helvetica,sans-Serif" font-size="10.00">include/rel/d/a/d_a</text>
<text text-anchor="middle" x="2009.5" y="-78.5" font-family="Helvetica,sans-Serif" font-size="10.00">_cstaF/d_a_cstaF.h</text>
</a>
</g>
</g>
<!-- Node3&#45;&gt;Node85 -->
<g id="edge28" class="edge">
<title>Node3&#45;&gt;Node85</title>
<path fill="none" stroke="#63b8ff" d="M2839.87,-155.16C2668.87,-150.1 2217.64,-134.47 2070.5,-107 2063.72,-105.73 2056.65,-103.94 2049.82,-101.94"/>
<polygon fill="#63b8ff" stroke="#63b8ff" points="2839.59,-158.65 2849.69,-155.45 2839.8,-151.66 2839.59,-158.65"/>
</g>
<!-- Node86 -->
<g id="node25" class="node">
<title>Node86</title>
<g id="a_node25"><a xlink:href="d__a__dmidna_8h.html" target="_top" xlink:title=" ">
<polygon fill="white" stroke="#666666" points="2195.5,-101.5 2079.5,-101.5 2079.5,-71.5 2195.5,-71.5 2195.5,-101.5"/>
<text text-anchor="start" x="2087.5" y="-89.5" font-family="Helvetica,sans-Serif" font-size="10.00">include/rel/d/a/d_a</text>
<text text-anchor="middle" x="2137.5" y="-78.5" font-family="Helvetica,sans-Serif" font-size="10.00">_dmidna/d_a_dmidna.h</text>
</a>
</g>
</g>
<!-- Node3&#45;&gt;Node86 -->
<g id="edge29" class="edge">
<title>Node3&#45;&gt;Node86</title>
<path fill="none" stroke="#63b8ff" d="M2840.12,-156.94C2714.85,-155.8 2435.43,-148.35 2204.5,-107 2197.23,-105.7 2189.61,-103.91 2182.24,-101.94"/>
<polygon fill="#63b8ff" stroke="#63b8ff" points="2839.86,-160.44 2849.88,-157.02 2839.91,-153.44 2839.86,-160.44"/>
</g>
<!-- Node87 -->
<g id="node26" class="node">
<title>Node87</title>
<g id="a_node26"><a xlink:href="d__a__econt_8h.html" target="_top" xlink:title=" ">
<polygon fill="white" stroke="#666666" points="2315,-101.5 2214,-101.5 2214,-71.5 2315,-71.5 2315,-101.5"/>
<text text-anchor="start" x="2222" y="-89.5" font-family="Helvetica,sans-Serif" font-size="10.00">include/rel/d/a/d_a</text>
<text text-anchor="middle" x="2264.5" y="-78.5" font-family="Helvetica,sans-Serif" font-size="10.00">_econt/d_a_econt.h</text>
</a>
</g>
</g>
<!-- Node3&#45;&gt;Node87 -->
<g id="edge30" class="edge">
<title>Node3&#45;&gt;Node87</title>
<path fill="none" stroke="#63b8ff" d="M2839.77,-156.32C2730.68,-154.09 2507.85,-144.83 2323.5,-107 2317.05,-105.68 2310.33,-103.88 2303.83,-101.9"/>
<polygon fill="#63b8ff" stroke="#63b8ff" points="2839.65,-159.82 2849.72,-156.51 2839.79,-152.82 2839.65,-159.82"/>
</g>
<!-- Node88 -->
<g id="node27" class="node">
<title>Node88</title>
<g id="a_node27"><a xlink:href="d__a__guard__mng_8h.html" target="_top" xlink:title=" ">
<polygon fill="white" stroke="#666666" points="2482,-101.5 2333,-101.5 2333,-71.5 2482,-71.5 2482,-101.5"/>
<text text-anchor="start" x="2341" y="-89.5" font-family="Helvetica,sans-Serif" font-size="10.00">include/rel/d/a/d_a</text>
<text text-anchor="middle" x="2407.5" y="-78.5" font-family="Helvetica,sans-Serif" font-size="10.00">_guard_mng/d_a_guard_mng.h</text>
</a>
</g>
</g>
<!-- Node3&#45;&gt;Node88 -->
<g id="edge31" class="edge">
<title>Node3&#45;&gt;Node88</title>
<path fill="none" stroke="#63b8ff" d="M2839.74,-151.2C2757.46,-143.54 2613.57,-128.46 2491.5,-107 2483.24,-105.55 2474.58,-103.8 2466.08,-101.95"/>
<polygon fill="#63b8ff" stroke="#63b8ff" points="2839.39,-154.68 2849.67,-152.12 2840.03,-147.71 2839.39,-154.68"/>
</g>
<!-- Node89 -->
<g id="node28" class="node">
<title>Node89</title>
<g id="a_node28"><a xlink:href="d__a__hitobj_8h.html" target="_top" xlink:title=" ">
<polygon fill="white" stroke="#666666" points="2600.5,-101.5 2500.5,-101.5 2500.5,-71.5 2600.5,-71.5 2600.5,-101.5"/>
<text text-anchor="start" x="2508.5" y="-89.5" font-family="Helvetica,sans-Serif" font-size="10.00">include/rel/d/a/d_a</text>
<text text-anchor="middle" x="2550.5" y="-78.5" font-family="Helvetica,sans-Serif" font-size="10.00">_hitobj/d_a_hitobj.h</text>
</a>
</g>
</g>
<!-- Node3&#45;&gt;Node89 -->
<g id="edge32" class="edge">
<title>Node3&#45;&gt;Node89</title>
<path fill="none" stroke="#63b8ff" d="M2839.93,-148.75C2779.34,-140.55 2687.69,-126.38 2609.5,-107 2603.64,-105.55 2597.51,-103.8 2591.53,-101.95"/>
<polygon fill="#63b8ff" stroke="#63b8ff" points="2839.37,-152.21 2849.75,-150.06 2840.3,-145.27 2839.37,-152.21"/>
</g>
<!-- Node90 -->
<g id="node29" class="node">
<title>Node90</title>
<g id="a_node29"><a xlink:href="d__a__set__bgobj_8h.html" target="_top" xlink:title=" ">
<polygon fill="white" stroke="#666666" points="2756,-101.5 2619,-101.5 2619,-71.5 2756,-71.5 2756,-101.5"/>
<text text-anchor="start" x="2627" y="-89.5" font-family="Helvetica,sans-Serif" font-size="10.00">include/rel/d/a/d_a</text>
<text text-anchor="middle" x="2687.5" y="-78.5" font-family="Helvetica,sans-Serif" font-size="10.00">_set_bgobj/d_a_set_bgobj.h</text>
</a>
</g>
</g>
<!-- Node3&#45;&gt;Node90 -->
<g id="edge33" class="edge">
<title>Node3&#45;&gt;Node90</title>
<path fill="none" stroke="#63b8ff" d="M2849.94,-139.05C2813.61,-127.52 2767.04,-112.74 2733.08,-101.97"/>
<polygon fill="#63b8ff" stroke="#63b8ff" points="2848.82,-142.37 2859.41,-142.06 2850.94,-135.7 2848.82,-142.37"/>
</g>
<!-- Node91 -->
<g id="node30" class="node">
<title>Node91</title>
<g id="a_node30"><a xlink:href="d__a__skip__2D_8h.html" target="_top" xlink:title=" ">
<polygon fill="white" stroke="#666666" points="2898.5,-101.5 2774.5,-101.5 2774.5,-71.5 2898.5,-71.5 2898.5,-101.5"/>
<text text-anchor="start" x="2782.5" y="-89.5" font-family="Helvetica,sans-Serif" font-size="10.00">include/rel/d/a/d_a</text>
<text text-anchor="middle" x="2836.5" y="-78.5" font-family="Helvetica,sans-Serif" font-size="10.00">_skip_2D/d_a_skip_2D.h</text>
</a>
</g>
</g>
<!-- Node3&#45;&gt;Node91 -->
<g id="edge34" class="edge">
<title>Node3&#45;&gt;Node91</title>
<path fill="none" stroke="#63b8ff" d="M2884.14,-134.8C2873.29,-124.02 2860.55,-111.38 2850.99,-101.88"/>
<polygon fill="#63b8ff" stroke="#63b8ff" points="2881.36,-136.97 2890.92,-141.53 2886.29,-132 2881.36,-136.97"/>
</g>
<!-- Node92 -->
<g id="node31" class="node">
<title>Node92</title>
<g id="a_node31"><a xlink:href="d__a__spinner_8h.html" target="_top" xlink:title=" ">
<polygon fill="#fff0f0" stroke="red" points="5062.5,-101.5 4946.5,-101.5 4946.5,-71.5 5062.5,-71.5 5062.5,-101.5"/>
<text text-anchor="start" x="4954.5" y="-89.5" font-family="Helvetica,sans-Serif" font-size="10.00">include/rel/d/a/d_a</text>
<text text-anchor="middle" x="5004.5" y="-78.5" font-family="Helvetica,sans-Serif" font-size="10.00">_spinner/d_a_spinner.h</text>
</a>
</g>
</g>
<!-- Node3&#45;&gt;Node92 -->
<g id="edge35" class="edge">
<title>Node3&#45;&gt;Node92</title>
<path fill="none" stroke="#63b8ff" d="M2972.96,-143.29C2973.81,-143.19 2974.66,-143.09 2975.5,-143 3408.97,-95.45 4506.37,-172.5 4937.5,-107 4945.17,-105.84 4953.19,-104.03 4960.9,-101.99"/>
<polygon fill="#63b8ff" stroke="#63b8ff" points="2972.64,-139.8 2963.22,-144.66 2973.61,-146.74 2972.64,-139.8"/>
</g>
<!-- Node95 -->
<g id="node32" class="node">
<title>Node95</title>
<g id="a_node32"><a xlink:href="d__a__swTime_8h.html" target="_top" xlink:title=" ">
<polygon fill="white" stroke="#666666" points="3038.5,-101.5 2916.5,-101.5 2916.5,-71.5 3038.5,-71.5 3038.5,-101.5"/>
<text text-anchor="start" x="2924.5" y="-89.5" font-family="Helvetica,sans-Serif" font-size="10.00">include/rel/d/a/d_a</text>
<text text-anchor="middle" x="2977.5" y="-78.5" font-family="Helvetica,sans-Serif" font-size="10.00">_swTime/d_a_swTime.h</text>
</a>
</g>
</g>
<!-- Node3&#45;&gt;Node95 -->
<g id="edge37" class="edge">
<title>Node3&#45;&gt;Node95</title>
<path fill="none" stroke="#63b8ff" d="M2929.18,-134.8C2940.19,-124.02 2953.1,-111.38 2962.81,-101.88"/>
<polygon fill="#63b8ff" stroke="#63b8ff" points="2926.99,-132.04 2922.29,-141.54 2931.89,-137.05 2926.99,-132.04"/>
</g>
<!-- Node96 -->
<g id="node33" class="node">
<title>Node96</title>
<g id="a_node33"><a xlink:href="d__a__obj__cboard_8h.html" target="_top" xlink:title=" ">
<polygon fill="white" stroke="#666666" points="3164,-107 3057,-107 3057,-66 3164,-66 3164,-107"/>
<text text-anchor="start" x="3065" y="-95" font-family="Helvetica,sans-Serif" font-size="10.00">include/rel/d/a/obj</text>
<text text-anchor="start" x="3065" y="-84" font-family="Helvetica,sans-Serif" font-size="10.00">/d_a_obj_cboard/d_a</text>
<text text-anchor="middle" x="3110.5" y="-73" font-family="Helvetica,sans-Serif" font-size="10.00">_obj_cboard.h</text>
</a>
</g>
</g>
<!-- Node3&#45;&gt;Node96 -->
<g id="edge39" class="edge">
<title>Node3&#45;&gt;Node96</title>
<path fill="none" stroke="#63b8ff" d="M2959.42,-138.97C2989.31,-128.79 3026.58,-116.09 3056.63,-105.85"/>
<polygon fill="#63b8ff" stroke="#63b8ff" points="2958.54,-135.57 2950.2,-142.11 2960.8,-142.2 2958.54,-135.57"/>
</g>
<!-- Node97 -->
<g id="node34" class="node">
<title>Node97</title>
<g id="a_node34"><a xlink:href="d__a__obj__enemy__create_8h.html" target="_top" xlink:title=" ">
<polygon fill="white" stroke="#666666" points="3309,-107 3182,-107 3182,-66 3309,-66 3309,-107"/>
<text text-anchor="start" x="3190" y="-95" font-family="Helvetica,sans-Serif" font-size="10.00">include/rel/d/a/obj</text>
<text text-anchor="start" x="3190" y="-84" font-family="Helvetica,sans-Serif" font-size="10.00">/d_a_obj_enemy_create</text>
<text text-anchor="middle" x="3245.5" y="-73" font-family="Helvetica,sans-Serif" font-size="10.00">/d_a_obj_enemy_create.h</text>
</a>
</g>
</g>
<!-- Node3&#45;&gt;Node97 -->
<g id="edge40" class="edge">
<title>Node3&#45;&gt;Node97</title>
<path fill="none" stroke="#63b8ff" d="M2972.99,-143.49C2973.83,-143.32 2974.67,-143.16 2975.5,-143 3063.33,-126.11 3086.26,-126.71 3173.5,-107 3176.15,-106.4 3178.85,-105.77 3181.58,-105.11"/>
<polygon fill="#63b8ff" stroke="#63b8ff" points="2972.47,-140.02 2963.33,-145.38 2973.81,-146.89 2972.47,-140.02"/>
</g>
<!-- Node98 -->
<g id="node35" class="node">
<title>Node98</title>
<g id="a_node35"><a xlink:href="d__a__obj__onsenFire_8h.html" target="_top" xlink:title=" ">
<polygon fill="white" stroke="#666666" points="3437.5,-107 3327.5,-107 3327.5,-66 3437.5,-66 3437.5,-107"/>
<text text-anchor="start" x="3335.5" y="-95" font-family="Helvetica,sans-Serif" font-size="10.00">include/rel/d/a/obj</text>
<text text-anchor="start" x="3335.5" y="-84" font-family="Helvetica,sans-Serif" font-size="10.00">/d_a_obj_onsenFire/d</text>
<text text-anchor="middle" x="3382.5" y="-73" font-family="Helvetica,sans-Serif" font-size="10.00">_a_obj_onsenFire.h</text>
</a>
</g>
</g>
<!-- Node3&#45;&gt;Node98 -->
<g id="edge41" class="edge">
<title>Node3&#45;&gt;Node98</title>
<path fill="none" stroke="#63b8ff" d="M2972.97,-143.4C2973.82,-143.26 2974.66,-143.13 2975.5,-143 3127.01,-119.73 3168.28,-137.48 3318.5,-107 3321.35,-106.42 3324.25,-105.77 3327.16,-105.07"/>
<polygon fill="#63b8ff" stroke="#63b8ff" points="2972.54,-139.92 2963.27,-145.05 2973.72,-146.82 2972.54,-139.92"/>
</g>
<!-- Node99 -->
<g id="node36" class="node">
<title>Node99</title>
<g id="a_node36"><a xlink:href="d__a__obj__smoke_8h.html" target="_top" xlink:title=" ">
<polygon fill="white" stroke="#666666" points="3581,-107 3456,-107 3456,-66 3581,-66 3581,-107"/>
<text text-anchor="start" x="3464" y="-95" font-family="Helvetica,sans-Serif" font-size="10.00">include/rel/d/a/obj</text>
<text text-anchor="start" x="3464" y="-84" font-family="Helvetica,sans-Serif" font-size="10.00">/d_a_obj_smoke/d_a_obj</text>
<text text-anchor="middle" x="3518.5" y="-73" font-family="Helvetica,sans-Serif" font-size="10.00">_smoke.h</text>
</a>
</g>
</g>
<!-- Node3&#45;&gt;Node99 -->
<g id="edge42" class="edge">
<title>Node3&#45;&gt;Node99</title>
<path fill="none" stroke="#63b8ff" d="M2972.97,-143.36C2973.82,-143.24 2974.66,-143.12 2975.5,-143 3183.44,-114.07 3239.6,-142.6 3446.5,-107 3449.56,-106.47 3452.68,-105.87 3455.83,-105.22"/>
<polygon fill="#63b8ff" stroke="#63b8ff" points="2972.57,-139.88 2963.25,-144.92 2973.68,-146.79 2972.57,-139.88"/>
</g>
<!-- Node100 -->
<g id="node37" class="node">
<title>Node100</title>
<g id="a_node37"><a xlink:href="d__a__obj__stone_8h.html" target="_top" xlink:title=" ">
<polygon fill="white" stroke="#666666" points="3718,-107 3599,-107 3599,-66 3718,-66 3718,-107"/>
<text text-anchor="start" x="3607" y="-95" font-family="Helvetica,sans-Serif" font-size="10.00">include/rel/d/a/obj</text>
<text text-anchor="start" x="3607" y="-84" font-family="Helvetica,sans-Serif" font-size="10.00">/d_a_obj_stone/d_a_obj</text>
<text text-anchor="middle" x="3658.5" y="-73" font-family="Helvetica,sans-Serif" font-size="10.00">_stone.h</text>
</a>
</g>
</g>
<!-- Node3&#45;&gt;Node100 -->
<g id="edge43" class="edge">
<title>Node3&#45;&gt;Node100</title>
<path fill="none" stroke="#63b8ff" d="M2972.96,-143.34C2973.81,-143.22 2974.66,-143.11 2975.5,-143 3247.01,-107.69 3320.59,-153.02 3590.5,-107 3593.16,-106.55 3595.87,-106.03 3598.6,-105.45"/>
<polygon fill="#63b8ff" stroke="#63b8ff" points="2972.59,-139.86 2963.24,-144.84 2973.66,-146.77 2972.59,-139.86"/>
</g>
<!-- Node101 -->
<g id="node38" class="node">
<title>Node101</title>
<g id="a_node38"><a xlink:href="d__a__obj__stoneMark_8h.html" target="_top" xlink:title=" ">
<polygon fill="white" stroke="#666666" points="3849,-107 3736,-107 3736,-66 3849,-66 3849,-107"/>
<text text-anchor="start" x="3744" y="-95" font-family="Helvetica,sans-Serif" font-size="10.00">include/rel/d/a/obj</text>
<text text-anchor="start" x="3744" y="-84" font-family="Helvetica,sans-Serif" font-size="10.00">/d_a_obj_stoneMark/d</text>
<text text-anchor="middle" x="3792.5" y="-73" font-family="Helvetica,sans-Serif" font-size="10.00">_a_obj_stoneMark.h</text>
</a>
</g>
</g>
<!-- Node3&#45;&gt;Node101 -->
<g id="edge44" class="edge">
<title>Node3&#45;&gt;Node101</title>
<path fill="none" stroke="#63b8ff" d="M2972.96,-143.33C2973.81,-143.21 2974.66,-143.1 2975.5,-143 3307.54,-101.61 3397.7,-163.49 3727.5,-107 3730.17,-106.54 3732.89,-106.01 3735.62,-105.42"/>
<polygon fill="#63b8ff" stroke="#63b8ff" points="2972.6,-139.84 2963.24,-144.8 2973.65,-146.76 2972.6,-139.84"/>
</g>
<!-- Node102 -->
<g id="node39" class="node">
<title>Node102</title>
<g id="a_node39"><a xlink:href="d__a__obj__web0_8h.html" target="_top" xlink:title=" ">
<polygon fill="white" stroke="#666666" points="3986,-107 3867,-107 3867,-66 3986,-66 3986,-107"/>
<text text-anchor="start" x="3875" y="-95" font-family="Helvetica,sans-Serif" font-size="10.00">include/rel/d/a/obj</text>
<text text-anchor="start" x="3875" y="-84" font-family="Helvetica,sans-Serif" font-size="10.00">/d_a_obj_web0/d_a_obj</text>
<text text-anchor="middle" x="3926.5" y="-73" font-family="Helvetica,sans-Serif" font-size="10.00">_web0.h</text>
</a>
</g>
</g>
<!-- Node3&#45;&gt;Node102 -->
<g id="edge45" class="edge">
<title>Node3&#45;&gt;Node102</title>
<path fill="none" stroke="#63b8ff" d="M2972.96,-143.32C2973.81,-143.21 2974.66,-143.1 2975.5,-143 3365.42,-95.8 3470.75,-169.58 3858.5,-107 3861.17,-106.57 3863.88,-106.07 3866.61,-105.51"/>
<polygon fill="#63b8ff" stroke="#63b8ff" points="2972.61,-139.83 2963.23,-144.76 2973.64,-146.76 2972.61,-139.83"/>
</g>
<!-- Node103 -->
<g id="node40" class="node">
<title>Node103</title>
<g id="a_node40"><a xlink:href="d__a__obj__web1_8h.html" target="_top" xlink:title=" ">
<polygon fill="white" stroke="#666666" points="4123,-107 4004,-107 4004,-66 4123,-66 4123,-107"/>
<text text-anchor="start" x="4012" y="-95" font-family="Helvetica,sans-Serif" font-size="10.00">include/rel/d/a/obj</text>
<text text-anchor="start" x="4012" y="-84" font-family="Helvetica,sans-Serif" font-size="10.00">/d_a_obj_web1/d_a_obj</text>
<text text-anchor="middle" x="4063.5" y="-73" font-family="Helvetica,sans-Serif" font-size="10.00">_web1.h</text>
</a>
</g>
</g>
<!-- Node3&#45;&gt;Node103 -->
<g id="edge46" class="edge">
<title>Node3&#45;&gt;Node103</title>
<path fill="none" stroke="#63b8ff" d="M2972.96,-143.31C2973.81,-143.2 2974.66,-143.1 2975.5,-143 3425.98,-89.72 3547.48,-178.05 3995.5,-107 3998.17,-106.58 4000.88,-106.08 4003.61,-105.53"/>
<polygon fill="#63b8ff" stroke="#63b8ff" points="2972.62,-139.83 2963.23,-144.74 2973.63,-146.75 2972.62,-139.83"/>
</g>
<!-- Node104 -->
<g id="node41" class="node">
<title>Node104</title>
<g id="a_node41"><a xlink:href="d__a__obj__yobikusa_8h.html" target="_top" xlink:title=" ">
<polygon fill="white" stroke="#666666" points="4246,-107 4141,-107 4141,-66 4246,-66 4246,-107"/>
<text text-anchor="start" x="4149" y="-95" font-family="Helvetica,sans-Serif" font-size="10.00">include/rel/d/a/obj</text>
<text text-anchor="start" x="4149" y="-84" font-family="Helvetica,sans-Serif" font-size="10.00">/d_a_obj_yobikusa/d</text>
<text text-anchor="middle" x="4193.5" y="-73" font-family="Helvetica,sans-Serif" font-size="10.00">_a_obj_yobikusa.h</text>
</a>
</g>
</g>
<!-- Node3&#45;&gt;Node104 -->
<g id="edge47" class="edge">
<title>Node3&#45;&gt;Node104</title>
<path fill="none" stroke="#63b8ff" d="M2972.96,-143.31C2973.81,-143.2 2974.66,-143.1 2975.5,-143 3486.53,-83.64 3625.47,-194.17 4132.5,-107 4135.24,-106.53 4138.03,-105.96 4140.82,-105.33"/>
<polygon fill="#63b8ff" stroke="#63b8ff" points="2972.62,-139.82 2963.23,-144.72 2973.63,-146.75 2972.62,-139.82"/>
</g>
<!-- Node105 -->
<g id="node42" class="node">
<title>Node105</title>
<g id="a_node42"><a xlink:href="d__a__tag__ajnot_8h.html" target="_top" xlink:title=" ">
<polygon fill="white" stroke="#666666" points="4382.5,-107 4264.5,-107 4264.5,-66 4382.5,-66 4382.5,-107"/>
<text text-anchor="start" x="4272.5" y="-95" font-family="Helvetica,sans-Serif" font-size="10.00">include/rel/d/a/tag</text>
<text text-anchor="start" x="4272.5" y="-84" font-family="Helvetica,sans-Serif" font-size="10.00">/d_a_tag_ajnot/d_a_tag</text>
<text text-anchor="middle" x="4323.5" y="-73" font-family="Helvetica,sans-Serif" font-size="10.00">_ajnot.h</text>
</a>
</g>
</g>
<!-- Node3&#45;&gt;Node105 -->
<g id="edge48" class="edge">
<title>Node3&#45;&gt;Node105</title>
<path fill="none" stroke="#63b8ff" d="M2972.96,-143.3C2973.81,-143.2 2974.66,-143.1 2975.5,-143 3540.91,-78.18 3693.09,-194.13 4255.5,-107 4258.41,-106.55 4261.38,-106.01 4264.36,-105.41"/>
<polygon fill="#63b8ff" stroke="#63b8ff" points="2972.62,-139.82 2963.23,-144.71 2973.62,-146.74 2972.62,-139.82"/>
</g>
<!-- Node106 -->
<g id="node43" class="node">
<title>Node106</title>
<g id="a_node43"><a xlink:href="d__a__tag__assistance_8h.html" target="_top" xlink:title=" ">
<polygon fill="white" stroke="#666666" points="4514.5,-107 4400.5,-107 4400.5,-66 4514.5,-66 4514.5,-107"/>
<text text-anchor="start" x="4408.5" y="-95" font-family="Helvetica,sans-Serif" font-size="10.00">include/rel/d/a/tag</text>
<text text-anchor="start" x="4408.5" y="-84" font-family="Helvetica,sans-Serif" font-size="10.00">/d_a_tag_assistance</text>
<text text-anchor="middle" x="4457.5" y="-73" font-family="Helvetica,sans-Serif" font-size="10.00">/d_a_tag_assistance.h</text>
</a>
</g>
</g>
<!-- Node3&#45;&gt;Node106 -->
<g id="edge49" class="edge">
<title>Node3&#45;&gt;Node106</title>
<path fill="none" stroke="#63b8ff" d="M2972.96,-143.3C2973.81,-143.2 2974.66,-143.1 2975.5,-143 3288.27,-107.57 4080.57,-156.01 4391.5,-107 4394.33,-106.55 4397.21,-106.02 4400.11,-105.42"/>
<polygon fill="#63b8ff" stroke="#63b8ff" points="2972.63,-139.81 2963.22,-144.7 2973.62,-146.74 2972.63,-139.81"/>
</g>
<!-- Node107 -->
<g id="node44" class="node">
<title>Node107</title>
<g id="a_node44"><a xlink:href="d__a__tag__attention_8h.html" target="_top" xlink:title=" ">
<polygon fill="white" stroke="#666666" points="4638,-107 4533,-107 4533,-66 4638,-66 4638,-107"/>
<text text-anchor="start" x="4541" y="-95" font-family="Helvetica,sans-Serif" font-size="10.00">include/rel/d/a/tag</text>
<text text-anchor="start" x="4541" y="-84" font-family="Helvetica,sans-Serif" font-size="10.00">/d_a_tag_attention/d</text>
<text text-anchor="middle" x="4585.5" y="-73" font-family="Helvetica,sans-Serif" font-size="10.00">_a_tag_attention.h</text>
</a>
</g>
</g>
<!-- Node3&#45;&gt;Node107 -->
<g id="edge50" class="edge">
<title>Node3&#45;&gt;Node107</title>
<path fill="none" stroke="#63b8ff" d="M2972.96,-143.3C2973.81,-143.19 2974.66,-143.09 2975.5,-143 3317.45,-104.64 4184.02,-163.17 4523.5,-107 4526.51,-106.5 4529.57,-105.89 4532.64,-105.2"/>
<polygon fill="#63b8ff" stroke="#63b8ff" points="2972.63,-139.81 2963.22,-144.69 2973.62,-146.74 2972.63,-139.81"/>
</g>
<!-- Node108 -->
<g id="node45" class="node">
<title>Node108</title>
<g id="a_node45"><a xlink:href="d__a__tag__gra_8h.html" target="_top" xlink:title=" ">
<polygon fill="white" stroke="#666666" points="4793,-101.5 4656,-101.5 4656,-71.5 4793,-71.5 4793,-101.5"/>
<text text-anchor="start" x="4664" y="-89.5" font-family="Helvetica,sans-Serif" font-size="10.00">include/rel/d/a/tag</text>
<text text-anchor="middle" x="4724.5" y="-78.5" font-family="Helvetica,sans-Serif" font-size="10.00">/d_a_tag_gra/d_a_tag_gra.h</text>
</a>
</g>
</g>
<!-- Node3&#45;&gt;Node108 -->
<g id="edge51" class="edge">
<title>Node3&#45;&gt;Node108</title>
<path fill="none" stroke="#63b8ff" d="M2972.96,-143.3C2973.81,-143.19 2974.66,-143.09 2975.5,-143 3344.86,-101.89 4279.23,-156.94 4647.5,-107 4656.25,-105.81 4665.43,-104 4674.29,-101.95"/>
<polygon fill="#63b8ff" stroke="#63b8ff" points="2972.63,-139.81 2963.22,-144.68 2973.62,-146.74 2972.63,-139.81"/>
</g>
<!-- Node109 -->
<g id="node46" class="node">
<title>Node109</title>
<g id="a_node46"><a xlink:href="d__a__tag__hinit_8h.html" target="_top" xlink:title=" ">
<polygon fill="white" stroke="#666666" points="262,-107 147,-107 147,-66 262,-66 262,-107"/>
<text text-anchor="start" x="155" y="-95" font-family="Helvetica,sans-Serif" font-size="10.00">include/rel/d/a/tag</text>
<text text-anchor="start" x="155" y="-84" font-family="Helvetica,sans-Serif" font-size="10.00">/d_a_tag_hinit/d_a_tag</text>
<text text-anchor="middle" x="204.5" y="-73" font-family="Helvetica,sans-Serif" font-size="10.00">_hinit.h</text>
</a>
</g>
</g>
<!-- Node3&#45;&gt;Node109 -->
<g id="edge52" class="edge">
<title>Node3&#45;&gt;Node109</title>
<path fill="none" stroke="#63b8ff" d="M2839.56,-156.71C2455.18,-154.91 536.66,-144.13 276.5,-107 271.88,-106.34 267.14,-105.48 262.4,-104.49"/>
<polygon fill="#63b8ff" stroke="#63b8ff" points="2839.48,-160.21 2849.5,-156.76 2839.52,-153.21 2839.48,-160.21"/>
</g>
<!-- Node110 -->
<g id="node47" class="node">
<title>Node110</title>
<g id="a_node47"><a xlink:href="d__a__tag__howl_8h.html" target="_top" xlink:title=" ">
<polygon fill="white" stroke="#666666" points="4928,-107 4811,-107 4811,-66 4928,-66 4928,-107"/>
<text text-anchor="start" x="4819" y="-95" font-family="Helvetica,sans-Serif" font-size="10.00">include/rel/d/a/tag</text>
<text text-anchor="start" x="4819" y="-84" font-family="Helvetica,sans-Serif" font-size="10.00">/d_a_tag_howl/d_a_tag</text>
<text text-anchor="middle" x="4869.5" y="-73" font-family="Helvetica,sans-Serif" font-size="10.00">_howl.h</text>
</a>
</g>
</g>
<!-- Node3&#45;&gt;Node110 -->
<g id="edge53" class="edge">
<title>Node3&#45;&gt;Node110</title>
<path fill="none" stroke="#63b8ff" d="M2972.96,-143.29C2973.81,-143.19 2974.66,-143.09 2975.5,-143 3379.13,-98.44 4401.07,-168.27 4802.5,-107 4805.13,-106.6 4807.81,-106.12 4810.5,-105.58"/>
<polygon fill="#63b8ff" stroke="#63b8ff" points="2972.63,-139.81 2963.22,-144.67 2973.61,-146.74 2972.63,-139.81"/>
</g>
<!-- Node3&#45;&gt;Node127 -->
<g id="edge55" class="edge">
<title>Node3&#45;&gt;Node127</title>
<path fill="none" stroke="#63b8ff" d="M2972.96,-143.29C2973.81,-143.19 2974.66,-143.09 2975.5,-143 3529.91,-83.3 4933.22,-190.78 5484.5,-107 5498.56,-104.86 5513.81,-100.5 5526.1,-96.44"/>
<polygon fill="#63b8ff" stroke="#63b8ff" points="2972.64,-139.8 2963.22,-144.65 2973.61,-146.73 2972.64,-139.8"/>
</g>
<!-- Node10&#45;&gt;Node11 -->
<g id="edge5" class="edge">
<title>Node10&#45;&gt;Node11</title>
<path fill="none" stroke="#63b8ff" d="M5369.07,-67.89C5360.19,-56.24 5348.69,-41.17 5340.39,-30.27"/>
<polygon fill="#63b8ff" stroke="#63b8ff" points="5366.02,-69.66 5374.87,-75.49 5371.59,-65.42 5366.02,-69.66"/>
</g>
<!-- Node10&#45;&gt;Node17 -->
<g id="edge6" class="edge">
<title>Node10&#45;&gt;Node17</title>
<path fill="none" stroke="#63b8ff" d="M5401.65,-69.27C5415.59,-57.45 5434.29,-41.61 5447.66,-30.27"/>
<polygon fill="#63b8ff" stroke="#63b8ff" points="5399.41,-66.58 5394.04,-75.72 5403.93,-71.92 5399.41,-66.58"/>
</g>
<!-- Node22&#45;&gt;Node15 -->
<g id="edge9" class="edge">
<title>Node22&#45;&gt;Node15</title>
<path fill="none" stroke="#63b8ff" d="M1010.54,-72.64C1018.57,-69.95 1027.24,-67.48 1035.5,-66 1226.81,-31.66 2639.5,-18.76 2936.72,-16.41"/>
<polygon fill="#63b8ff" stroke="#63b8ff" points="1009.4,-69.33 1001.17,-76 1011.76,-75.92 1009.4,-69.33"/>
</g>
<!-- Node32&#45;&gt;Node33 -->
<g id="edge13" class="edge">
<title>Node32&#45;&gt;Node33</title>
<path fill="none" stroke="#63b8ff" d="M458.99,-70.94C438.87,-58.99 410.52,-42.15 390.53,-30.27"/>
<polygon fill="#63b8ff" stroke="#63b8ff" points="457,-73.83 467.38,-75.92 460.57,-67.81 457,-73.83"/>
</g>
<!-- Node39&#45;&gt;Node33 -->
<g id="edge16" class="edge">
<title>Node39&#45;&gt;Node33</title>
<path fill="none" stroke="#63b8ff" d="M366.5,-59.76C366.5,-49.83 366.5,-38.86 366.5,-30.38"/>
<polygon fill="#63b8ff" stroke="#63b8ff" points="363,-59.59 366.5,-69.59 370,-59.59 363,-59.59"/>
</g>
<!-- Node51&#45;&gt;Node4 -->
<g id="edge20" class="edge">
<title>Node51&#45;&gt;Node4</title>
<path fill="none" stroke="#63b8ff" d="M5175.7,-59.96C5176.77,-47.57 5177.99,-33.49 5178.75,-24.68"/>
<polygon fill="#63b8ff" stroke="#63b8ff" points="5172.25,-59.33 5174.87,-69.59 5179.22,-59.93 5172.25,-59.33"/>
</g>
<!-- Node51&#45;&gt;Node15 -->
<g id="edge21" class="edge">
<title>Node51&#45;&gt;Node15</title>
<path fill="none" stroke="#63b8ff" d="M5117.65,-68.45C5113.23,-67.49 5108.81,-66.65 5104.5,-66 4895.92,-34.57 3357.36,-19.26 3046.26,-16.47"/>
<polygon fill="#63b8ff" stroke="#63b8ff" points="5116.56,-71.78 5127.1,-70.7 5118.19,-64.98 5116.56,-71.78"/>
</g>
<!-- Node92&#45;&gt;Node15 -->
<g id="edge36" class="edge">
<title>Node92&#45;&gt;Node15</title>
<path fill="none" stroke="#63b8ff" d="M4949.91,-68.37C4945.74,-67.44 4941.57,-66.63 4937.5,-66 4746.53,-36.27 3343.08,-19.75 3046.46,-16.57"/>
<polygon fill="#63b8ff" stroke="#63b8ff" points="4948.88,-71.72 4959.43,-70.7 4950.55,-64.92 4948.88,-71.72"/>
</g>
<!-- Node167&#45;&gt;Node15 -->
<g id="edge60" class="edge">
<title>Node167&#45;&gt;Node15</title>
<path fill="none" stroke="#63b8ff" d="M57.69,-132.06C65.41,-110.36 79.99,-80.24 104.5,-66 168.11,-29.05 2543.93,-17.82 2936.75,-16.21"/>
<polygon fill="#63b8ff" stroke="#63b8ff" points="54.44,-130.76 54.65,-141.36 61.09,-132.94 54.44,-130.76"/>
</g>
<!-- Node167&#45;&gt;Node109 -->
<g id="edge59" class="edge">
<title>Node167&#45;&gt;Node109</title>
<path fill="none" stroke="#63b8ff" d="M92.65,-137.98C113.67,-128.49 139.08,-117.02 160.37,-107.42"/>
<polygon fill="#63b8ff" stroke="#63b8ff" points="91.46,-134.67 83.79,-141.98 94.34,-141.05 91.46,-134.67"/>
</g>
</g>
</svg>
