<?xml version="1.0" encoding="UTF-8" standalone="no"?>
<!DOCTYPE svg PUBLIC "-//W3C//DTD SVG 1.1//EN"
 "http://www.w3.org/Graphics/SVG/1.1/DTD/svg11.dtd">
<!-- Generated by graphviz version 7.0.5 (20221223.1930)
 -->
<!-- Title: include/d/bg/d_bg_w_base.h Pages: 1 -->
<svg width="4587pt" height="412pt"
 viewBox="0.00 0.00 4587.13 412.00" xmlns="http://www.w3.org/2000/svg" xmlns:xlink="http://www.w3.org/1999/xlink">
<g id="graph0" class="graph" transform="scale(1 1) rotate(0) translate(4 408)">
<title>include/d/bg/d_bg_w_base.h</title>
<!-- Node1 -->
<g id="node1" class="node">
<title>Node1</title>
<g id="a_node1"><a xlink:title=" ">
<polygon fill="#999999" stroke="#666666" points="2478,-404 2372,-404 2372,-374 2478,-374 2478,-404"/>
<text text-anchor="start" x="2380" y="-392" font-family="Helvetica,sans-Serif" font-size="10.00">include/d/bg/d_bg_w</text>
<text text-anchor="middle" x="2425" y="-381" font-family="Helvetica,sans-Serif" font-size="10.00">_base.h</text>
</a>
</g>
</g>
<!-- Node2 -->
<g id="node2" class="node">
<title>Node2</title>
<g id="a_node2"><a xlink:href="d__bg__w_8h.html" target="_top" xlink:title=" ">
<polygon fill="white" stroke="#666666" points="2282.5,-332.5 2169.5,-332.5 2169.5,-313.5 2282.5,-313.5 2282.5,-332.5"/>
<text text-anchor="middle" x="2226" y="-320.5" font-family="Helvetica,sans-Serif" font-size="10.00">include/d/bg/d_bg_w.h</text>
</a>
</g>
</g>
<!-- Node1&#45;&gt;Node2 -->
<g id="edge1" class="edge">
<title>Node1&#45;&gt;Node2</title>
<path fill="none" stroke="#63b8ff" d="M2369.54,-370.16C2331.93,-358.07 2283.8,-342.59 2253.94,-332.99"/>
<polygon fill="#63b8ff" stroke="#63b8ff" points="2368.31,-373.44 2378.9,-373.17 2370.45,-366.78 2368.31,-373.44"/>
</g>
<!-- Node137 -->
<g id="node48" class="node">
<title>Node137</title>
<g id="a_node48"><a xlink:href="d__bg__w__kcol_8h.html" target="_top" xlink:title=" ">
<polygon fill="white" stroke="#666666" points="2478,-338 2372,-338 2372,-308 2478,-308 2478,-338"/>
<text text-anchor="start" x="2380" y="-326" font-family="Helvetica,sans-Serif" font-size="10.00">include/d/bg/d_bg_w</text>
<text text-anchor="middle" x="2425" y="-315" font-family="Helvetica,sans-Serif" font-size="10.00">_kcol.h</text>
</a>
</g>
</g>
<!-- Node1&#45;&gt;Node137 -->
<g id="edge61" class="edge">
<title>Node1&#45;&gt;Node137</title>
<path fill="none" stroke="#63b8ff" d="M2425,-362.39C2425,-354.13 2425,-345.28 2425,-338.16"/>
<polygon fill="#63b8ff" stroke="#63b8ff" points="2421.5,-362.28 2425,-372.28 2428.5,-362.28 2421.5,-362.28"/>
</g>
<!-- Node139 -->
<g id="node50" class="node">
<title>Node139</title>
<g id="a_node50"><a xlink:href="d__bg__w__base_8cpp.html" target="_top" xlink:title=" ">
<polygon fill="white" stroke="#666666" points="2629.5,-332.5 2496.5,-332.5 2496.5,-313.5 2629.5,-313.5 2629.5,-332.5"/>
<text text-anchor="middle" x="2563" y="-320.5" font-family="Helvetica,sans-Serif" font-size="10.00">src/d/bg/d_bg_w_base.cpp</text>
</a>
</g>
</g>
<!-- Node1&#45;&gt;Node139 -->
<g id="edge63" class="edge">
<title>Node1&#45;&gt;Node139</title>
<path fill="none" stroke="#63b8ff" d="M2466.17,-368.91C2491.82,-357.01 2523.63,-342.26 2543.62,-332.99"/>
<polygon fill="#63b8ff" stroke="#63b8ff" points="2464.94,-365.62 2457.34,-373 2467.89,-371.97 2464.94,-365.62"/>
</g>
<!-- Node3 -->
<g id="node3" class="node">
<title>Node3</title>
<g id="a_node3"><a xlink:href="d__bg__s_8h.html" target="_top" xlink:title=" ">
<polygon fill="white" stroke="#666666" points="2413.5,-272 2302.5,-272 2302.5,-253 2413.5,-253 2413.5,-272"/>
<text text-anchor="middle" x="2358" y="-260" font-family="Helvetica,sans-Serif" font-size="10.00">include/d/bg/d_bg_s.h</text>
</a>
</g>
</g>
<!-- Node2&#45;&gt;Node3 -->
<g id="edge2" class="edge">
<title>Node2&#45;&gt;Node3</title>
<path fill="none" stroke="#63b8ff" d="M2256.43,-308.52C2281.4,-297.45 2316.08,-282.08 2337.76,-272.47"/>
<polygon fill="#63b8ff" stroke="#63b8ff" points="2255.16,-305.25 2247.43,-312.5 2257.99,-311.65 2255.16,-305.25"/>
</g>
<!-- Node93 -->
<g id="node42" class="node">
<title>Node93</title>
<g id="a_node42"><a xlink:href="d__bg__w_8cpp.html" target="_top" xlink:title=" ">
<polygon fill="white" stroke="#666666" points="4534.5,-85 4427.5,-85 4427.5,-66 4534.5,-66 4534.5,-85"/>
<text text-anchor="middle" x="4481" y="-73" font-family="Helvetica,sans-Serif" font-size="10.00">src/d/bg/d_bg_w.cpp</text>
</a>
</g>
</g>
<!-- Node2&#45;&gt;Node93 -->
<g id="edge60" class="edge">
<title>Node2&#45;&gt;Node93</title>
<path fill="none" stroke="#63b8ff" d="M2228.79,-301.78C2233.91,-273.2 2247.76,-221.81 2283,-198 2380.48,-132.16 4281.51,-112.35 4398,-96 4415,-93.61 4433.64,-89.39 4448.94,-85.48"/>
<polygon fill="#63b8ff" stroke="#63b8ff" points="2225.33,-301.21 2227.23,-311.63 2232.25,-302.3 2225.33,-301.21"/>
</g>
<!-- Node134 -->
<g id="node45" class="node">
<title>Node134</title>
<g id="a_node45"><a xlink:href="d__bg__s__movebg__actor_8h.html" target="_top" xlink:title=" ">
<polygon fill="white" stroke="#666666" points="307,-162 203,-162 203,-132 307,-132 307,-162"/>
<text text-anchor="start" x="211" y="-150" font-family="Helvetica,sans-Serif" font-size="10.00">include/d/bg/d_bg_s</text>
<text text-anchor="middle" x="255" y="-139" font-family="Helvetica,sans-Serif" font-size="10.00">_movebg_actor.h</text>
</a>
</g>
</g>
<!-- Node2&#45;&gt;Node134 -->
<g id="edge54" class="edge">
<title>Node2&#45;&gt;Node134</title>
<path fill="none" stroke="#63b8ff" d="M2157.68,-315.97C1848.26,-288.65 581.5,-176.82 307.44,-152.63"/>
<polygon fill="#63b8ff" stroke="#63b8ff" points="2157.36,-319.45 2167.63,-316.85 2157.98,-312.48 2157.36,-319.45"/>
</g>
<!-- Node135 -->
<g id="node46" class="node">
<title>Node135</title>
<g id="a_node46"><a xlink:href="d__bg__w__sv_8h.html" target="_top" xlink:title=" ">
<polygon fill="white" stroke="#666666" points="2197.5,-272 2068.5,-272 2068.5,-253 2197.5,-253 2197.5,-272"/>
<text text-anchor="middle" x="2133" y="-260" font-family="Helvetica,sans-Serif" font-size="10.00">include/d/bg/d_bg_w_sv.h</text>
</a>
</g>
</g>
<!-- Node2&#45;&gt;Node135 -->
<g id="edge58" class="edge">
<title>Node2&#45;&gt;Node135</title>
<path fill="none" stroke="#63b8ff" d="M2202.4,-307.16C2185.01,-296.22 2161.92,-281.69 2147.26,-272.47"/>
<polygon fill="#63b8ff" stroke="#63b8ff" points="2200.27,-309.95 2210.59,-312.31 2203.99,-304.02 2200.27,-309.95"/>
</g>
<!-- Node4 -->
<g id="node4" class="node">
<title>Node4</title>
<g id="a_node4"><a xlink:href="d__a__alink_8h.html" target="_top" xlink:title=" ">
<polygon fill="white" stroke="#666666" points="2596,-217 2480,-217 2480,-198 2596,-198 2596,-217"/>
<text text-anchor="middle" x="2538" y="-205" font-family="Helvetica,sans-Serif" font-size="10.00">include/d/a/d_a_alink.h</text>
</a>
</g>
</g>
<!-- Node3&#45;&gt;Node4 -->
<g id="edge3" class="edge">
<title>Node3&#45;&gt;Node4</title>
<path fill="none" stroke="#63b8ff" d="M2399.21,-249.36C2432.25,-239.64 2477.84,-226.21 2507.62,-217.45"/>
<polygon fill="#63b8ff" stroke="#63b8ff" points="2398.59,-245.9 2389.99,-252.08 2400.57,-252.61 2398.59,-245.9"/>
</g>
<!-- Node5 -->
<g id="node5" class="node">
<title>Node5</title>
<g id="a_node5"><a xlink:href="d__com__inf__game_8h.html" target="_top" xlink:title=" ">
<polygon fill="#fff0f0" stroke="red" points="2402,-162 2292,-162 2292,-132 2402,-132 2402,-162"/>
<text text-anchor="start" x="2300" y="-150" font-family="Helvetica,sans-Serif" font-size="10.00">include/d/com/d_com</text>
<text text-anchor="middle" x="2347" y="-139" font-family="Helvetica,sans-Serif" font-size="10.00">_inf_game.h</text>
</a>
</g>
</g>
<!-- Node3&#45;&gt;Node5 -->
<g id="edge48" class="edge">
<title>Node3&#45;&gt;Node5</title>
<path fill="none" stroke="#63b8ff" d="M2394.9,-248.19C2419.55,-237.03 2445.36,-219.48 2433,-198 2423.61,-181.68 2406.63,-170.2 2390.22,-162.38"/>
<polygon fill="#63b8ff" stroke="#63b8ff" points="2393.77,-244.87 2385.92,-251.99 2396.5,-251.32 2393.77,-244.87"/>
</g>
<!-- Node91 -->
<g id="node40" class="node">
<title>Node91</title>
<g id="a_node40"><a xlink:href="d__bg__s_8cpp.html" target="_top" xlink:title=" ">
<polygon fill="white" stroke="#666666" points="492,-85 388,-85 388,-66 492,-66 492,-85"/>
<text text-anchor="middle" x="440" y="-73" font-family="Helvetica,sans-Serif" font-size="10.00">src/d/bg/d_bg_s.cpp</text>
</a>
</g>
</g>
<!-- Node3&#45;&gt;Node91 -->
<g id="edge52" class="edge">
<title>Node3&#45;&gt;Node91</title>
<path fill="none" stroke="#63b8ff" d="M2331.26,-247.37C2301.05,-232.17 2249.96,-208.74 2203,-198 1475.51,-31.65 1265.9,-200.61 527,-96 509.37,-93.5 490.03,-89.32 474.06,-85.46"/>
<polygon fill="#63b8ff" stroke="#63b8ff" points="2329.55,-250.43 2340.05,-251.87 2332.74,-244.2 2329.55,-250.43"/>
</g>
<!-- Node132 -->
<g id="node43" class="node">
<title>Node132</title>
<g id="a_node43"><a xlink:href="d__a__horse_8h.html" target="_top" xlink:title=" ">
<polygon fill="#fff0f0" stroke="red" points="4531.5,-162 4430.5,-162 4430.5,-132 4531.5,-132 4531.5,-162"/>
<text text-anchor="start" x="4438.5" y="-150" font-family="Helvetica,sans-Serif" font-size="10.00">include/rel/d/a/d_a</text>
<text text-anchor="middle" x="4481" y="-139" font-family="Helvetica,sans-Serif" font-size="10.00">_horse/d_a_horse.h</text>
</a>
</g>
</g>
<!-- Node3&#45;&gt;Node132 -->
<g id="edge49" class="edge">
<title>Node3&#45;&gt;Node132</title>
<path fill="none" stroke="#63b8ff" d="M2425.24,-252.87C3230.59,-180.29 4200.34,-154.45 4430.37,-149.11"/>
<polygon fill="#63b8ff" stroke="#63b8ff" points="2425.14,-249.37 2415.5,-253.76 2425.77,-256.34 2425.14,-249.37"/>
</g>
<!-- Node133 -->
<g id="node44" class="node">
<title>Node133</title>
<g id="a_node44"><a xlink:href="d__bg__s__acch_8cpp.html" target="_top" xlink:title=" ">
<polygon fill="white" stroke="#666666" points="2423.5,-217 2292.5,-217 2292.5,-198 2423.5,-198 2423.5,-217"/>
<text text-anchor="middle" x="2358" y="-205" font-family="Helvetica,sans-Serif" font-size="10.00">src/d/bg/d_bg_s_acch.cpp</text>
</a>
</g>
</g>
<!-- Node3&#45;&gt;Node133 -->
<g id="edge53" class="edge">
<title>Node3&#45;&gt;Node133</title>
<path fill="none" stroke="#63b8ff" d="M2358,-241.35C2358,-233.1 2358,-223.97 2358,-217.44"/>
<polygon fill="#63b8ff" stroke="#63b8ff" points="2354.5,-241.23 2358,-251.23 2361.5,-241.23 2354.5,-241.23"/>
</g>
<!-- Node4&#45;&gt;Node5 -->
<g id="edge4" class="edge">
<title>Node4&#45;&gt;Node5</title>
<path fill="none" stroke="#63b8ff" d="M2497.99,-194.25C2467.71,-184.97 2426.04,-172.21 2394.14,-162.44"/>
<polygon fill="#63b8ff" stroke="#63b8ff" points="2496.96,-197.59 2507.54,-197.17 2499.01,-190.9 2496.96,-197.59"/>
</g>
<!-- Node15 -->
<g id="node9" class="node">
<title>Node15</title>
<g id="a_node9"><a xlink:href="d__a__alink_8cpp.html" target="_top" xlink:title=" ">
<polygon fill="white" stroke="#666666" points="4203.5,-19 4094.5,-19 4094.5,0 4203.5,0 4203.5,-19"/>
<text text-anchor="middle" x="4149" y="-7" font-family="Helvetica,sans-Serif" font-size="10.00">src/d/a/d_a_alink.cpp</text>
</a>
</g>
</g>
<!-- Node4&#45;&gt;Node15 -->
<g id="edge47" class="edge">
<title>Node4&#45;&gt;Node15</title>
<path fill="none" stroke="#63b8ff" d="M2607.85,-206.06C2957.41,-203.75 4501.7,-191.84 4541,-162 4579.53,-132.75 4593.32,-91 4561,-55 4549.21,-41.87 4313.37,-22.72 4203.93,-14.49"/>
<polygon fill="#63b8ff" stroke="#63b8ff" points="2607.89,-202.56 2597.92,-206.13 2607.94,-209.56 2607.89,-202.56"/>
</g>
<!-- Node6 -->
<g id="node6" class="node">
<title>Node6</title>
<g id="a_node6"><a xlink:href="d__a__npc_8h.html" target="_top" xlink:title=" ">
<polygon fill="#fff0f0" stroke="red" points="617.5,-19 506.5,-19 506.5,0 617.5,0 617.5,-19"/>
<text text-anchor="middle" x="562" y="-7" font-family="Helvetica,sans-Serif" font-size="10.00">include/d/a/d_a_npc.h</text>
</a>
</g>
</g>
<!-- Node5&#45;&gt;Node6 -->
<g id="edge5" class="edge">
<title>Node5&#45;&gt;Node6</title>
<path fill="none" stroke="#63b8ff" d="M2280.54,-132.3C2279.69,-132.19 2278.84,-132.09 2278,-132 2229.98,-126.67 572.81,-130.52 539,-96 518.13,-74.7 542.1,-36.58 554.93,-19.37"/>
<polygon fill="#63b8ff" stroke="#63b8ff" points="2279.89,-135.74 2290.28,-133.67 2280.87,-128.81 2279.89,-135.74"/>
</g>
<!-- Node12 -->
<g id="node7" class="node">
<title>Node12</title>
<g id="a_node7"><a xlink:href="d__cc__uty_8h.html" target="_top" xlink:title=" ">
<polygon fill="#fff0f0" stroke="red" points="4257.5,-85 4138.5,-85 4138.5,-66 4257.5,-66 4257.5,-85"/>
<text text-anchor="middle" x="4198" y="-73" font-family="Helvetica,sans-Serif" font-size="10.00">include/d/cc/d_cc_uty.h</text>
</a>
</g>
</g>
<!-- Node5&#45;&gt;Node12 -->
<g id="edge6" class="edge">
<title>Node5&#45;&gt;Node12</title>
<path fill="none" stroke="#63b8ff" d="M2413.46,-132.3C2414.31,-132.19 2415.16,-132.09 2416,-132 2793.32,-90.09 3748.04,-148.74 4124,-96 4139.53,-93.82 4156.46,-89.51 4170.21,-85.49"/>
<polygon fill="#63b8ff" stroke="#63b8ff" points="2413.13,-128.81 2403.72,-133.68 2414.11,-135.74 2413.13,-128.81"/>
</g>
<!-- Node18 -->
<g id="node8" class="node">
<title>Node18</title>
<g id="a_node8"><a xlink:href="d__item_8h.html" target="_top" xlink:title=" ">
<polygon fill="#fff0f0" stroke="red" points="4370.5,-85 4275.5,-85 4275.5,-66 4370.5,-66 4370.5,-85"/>
<text text-anchor="middle" x="4323" y="-73" font-family="Helvetica,sans-Serif" font-size="10.00">include/d/d_item.h</text>
</a>
</g>
</g>
<!-- Node5&#45;&gt;Node18 -->
<g id="edge7" class="edge">
<title>Node5&#45;&gt;Node18</title>
<path fill="none" stroke="#63b8ff" d="M2413.46,-132.29C2414.31,-132.19 2415.16,-132.09 2416,-132 2824.93,-86.91 3862.04,-168.55 4267,-96 4279.06,-93.84 4292.01,-89.47 4302.41,-85.42"/>
<polygon fill="#63b8ff" stroke="#63b8ff" points="2413.13,-128.81 2403.72,-133.67 2414.11,-135.74 2413.13,-128.81"/>
</g>
<!-- Node5&#45;&gt;Node15 -->
<g id="edge40" class="edge">
<title>Node5&#45;&gt;Node15</title>
<path fill="none" stroke="#63b8ff" d="M2413.46,-132.3C2414.31,-132.19 2415.16,-132.09 2416,-132 2508.51,-121.7 4009.23,-140.47 4091,-96 4122.04,-79.12 4139.65,-37.59 4146.12,-19.34"/>
<polygon fill="#63b8ff" stroke="#63b8ff" points="2413.13,-128.81 2403.72,-133.68 2414.12,-135.74 2413.13,-128.81"/>
</g>
<!-- Node19 -->
<g id="node10" class="node">
<title>Node19</title>
<g id="a_node10"><a xlink:href="d__a__obj__item_8cpp.html" target="_top" xlink:title=" ">
<polygon fill="white" stroke="#666666" points="4423.5,-19 4298.5,-19 4298.5,0 4423.5,0 4423.5,-19"/>
<text text-anchor="middle" x="4361" y="-7" font-family="Helvetica,sans-Serif" font-size="10.00">src/d/a/d_a_obj_item.cpp</text>
</a>
</g>
</g>
<!-- Node5&#45;&gt;Node19 -->
<g id="edge43" class="edge">
<title>Node5&#45;&gt;Node19</title>
<path fill="none" stroke="#63b8ff" d="M2413.46,-132.29C2414.31,-132.19 2415.16,-132.09 2416,-132 2470.24,-126.05 4341.77,-134.94 4380,-96 4400.67,-74.95 4379.1,-36.7 4367.44,-19.41"/>
<polygon fill="#63b8ff" stroke="#63b8ff" points="2413.14,-128.8 2403.72,-133.66 2414.11,-135.74 2413.14,-128.8"/>
</g>
<!-- Node23 -->
<g id="node11" class="node">
<title>Node23</title>
<g id="a_node11"><a xlink:href="d__kantera__icon__meter_8h.html" target="_top" xlink:title=" ">
<polygon fill="#fff0f0" stroke="red" points="777.5,-90.5 676.5,-90.5 676.5,-60.5 777.5,-60.5 777.5,-90.5"/>
<text text-anchor="start" x="684.5" y="-78.5" font-family="Helvetica,sans-Serif" font-size="10.00">include/d/d_kantera</text>
<text text-anchor="middle" x="727" y="-67.5" font-family="Helvetica,sans-Serif" font-size="10.00">_icon_meter.h</text>
</a>
</g>
</g>
<!-- Node5&#45;&gt;Node23 -->
<g id="edge10" class="edge">
<title>Node5&#45;&gt;Node23</title>
<path fill="none" stroke="#63b8ff" d="M2280.54,-132.3C2279.69,-132.19 2278.84,-132.09 2278,-132 1948.43,-94.88 1112.78,-152.65 786,-96 779.2,-94.82 772.11,-93.01 765.3,-90.96"/>
<polygon fill="#63b8ff" stroke="#63b8ff" points="2279.88,-135.74 2290.28,-133.69 2280.87,-128.81 2279.88,-135.74"/>
</g>
<!-- Node26 -->
<g id="node12" class="node">
<title>Node26</title>
<g id="a_node12"><a xlink:href="d__model_8h.html" target="_top" xlink:title=" ">
<polygon fill="#fff0f0" stroke="red" points="898.5,-85 795.5,-85 795.5,-66 898.5,-66 898.5,-85"/>
<text text-anchor="middle" x="847" y="-73" font-family="Helvetica,sans-Serif" font-size="10.00">include/d/d_model.h</text>
</a>
</g>
</g>
<!-- Node5&#45;&gt;Node26 -->
<g id="edge11" class="edge">
<title>Node5&#45;&gt;Node26</title>
<path fill="none" stroke="#63b8ff" d="M2280.54,-132.3C2279.69,-132.2 2278.84,-132.1 2278,-132 1975.18,-97.57 1207.37,-147.63 907,-96 894.26,-93.81 880.52,-89.5 869.4,-85.48"/>
<polygon fill="#63b8ff" stroke="#63b8ff" points="2279.88,-135.74 2290.27,-133.7 2280.87,-128.81 2279.88,-135.74"/>
</g>
<!-- Node28 -->
<g id="node13" class="node">
<title>Node28</title>
<g id="a_node13"><a xlink:href="d__name_8h.html" target="_top" xlink:title=" ">
<polygon fill="#fff0f0" stroke="red" points="1017.5,-85 916.5,-85 916.5,-66 1017.5,-66 1017.5,-85"/>
<text text-anchor="middle" x="967" y="-73" font-family="Helvetica,sans-Serif" font-size="10.00">include/d/d_name.h</text>
</a>
</g>
</g>
<!-- Node5&#45;&gt;Node28 -->
<g id="edge12" class="edge">
<title>Node5&#45;&gt;Node28</title>
<path fill="none" stroke="#63b8ff" d="M2280.54,-132.31C2279.69,-132.2 2278.84,-132.1 2278,-132 2001.71,-100.23 1301.04,-143.46 1027,-96 1014.27,-93.79 1000.52,-89.48 989.41,-85.47"/>
<polygon fill="#63b8ff" stroke="#63b8ff" points="2279.88,-135.75 2290.27,-133.71 2280.88,-128.82 2279.88,-135.75"/>
</g>
<!-- Node30 -->
<g id="node14" class="node">
<title>Node30</title>
<g id="a_node14"><a xlink:href="d__file__sel__info_8h.html" target="_top" xlink:title=" ">
<polygon fill="#fff0f0" stroke="red" points="1132,-90.5 1036,-90.5 1036,-60.5 1132,-60.5 1132,-90.5"/>
<text text-anchor="start" x="1044" y="-78.5" font-family="Helvetica,sans-Serif" font-size="10.00">include/d/file/d_file</text>
<text text-anchor="middle" x="1084" y="-67.5" font-family="Helvetica,sans-Serif" font-size="10.00">_sel_info.h</text>
</a>
</g>
</g>
<!-- Node5&#45;&gt;Node30 -->
<g id="edge13" class="edge">
<title>Node5&#45;&gt;Node30</title>
<path fill="none" stroke="#63b8ff" d="M2280.54,-132.31C2279.69,-132.2 2278.84,-132.1 2278,-132 2026.9,-102.76 1389.68,-141.42 1141,-96 1134.42,-94.8 1127.56,-92.98 1120.98,-90.92"/>
<polygon fill="#63b8ff" stroke="#63b8ff" points="2279.87,-135.75 2290.27,-133.72 2280.88,-128.82 2279.87,-135.75"/>
</g>
<!-- Node33 -->
<g id="node15" class="node">
<title>Node33</title>
<g id="a_node15"><a xlink:href="d__file__sel__warning_8h.html" target="_top" xlink:title=" ">
<polygon fill="#fff0f0" stroke="red" points="1246,-90.5 1150,-90.5 1150,-60.5 1246,-60.5 1246,-90.5"/>
<text text-anchor="start" x="1158" y="-78.5" font-family="Helvetica,sans-Serif" font-size="10.00">include/d/file/d_file</text>
<text text-anchor="middle" x="1198" y="-67.5" font-family="Helvetica,sans-Serif" font-size="10.00">_sel_warning.h</text>
</a>
</g>
</g>
<!-- Node5&#45;&gt;Node33 -->
<g id="edge14" class="edge">
<title>Node5&#45;&gt;Node33</title>
<path fill="none" stroke="#63b8ff" d="M2280.54,-132.31C2279.69,-132.2 2278.84,-132.1 2278,-132 1826.2,-78.59 1702.4,-178.52 1255,-96 1248.42,-94.79 1241.56,-92.96 1234.99,-90.9"/>
<polygon fill="#63b8ff" stroke="#63b8ff" points="2279.87,-135.75 2290.27,-133.74 2280.88,-128.83 2279.87,-135.75"/>
</g>
<!-- Node35 -->
<g id="node16" class="node">
<title>Node35</title>
<g id="a_node16"><a xlink:href="d__meter2_8h.html" target="_top" xlink:title=" ">
<polygon fill="#fff0f0" stroke="red" points="1398,-85 1264,-85 1264,-66 1398,-66 1398,-85"/>
<text text-anchor="middle" x="1331" y="-73" font-family="Helvetica,sans-Serif" font-size="10.00">include/d/meter/d_meter2.h</text>
</a>
</g>
</g>
<!-- Node5&#45;&gt;Node35 -->
<g id="edge15" class="edge">
<title>Node5&#45;&gt;Node35</title>
<path fill="none" stroke="#63b8ff" d="M2280.54,-132.32C2279.69,-132.21 2278.84,-132.1 2278,-132 1893.38,-85.33 1790.31,-152.46 1407,-96 1391.23,-93.68 1374,-89.4 1359.94,-85.45"/>
<polygon fill="#63b8ff" stroke="#63b8ff" points="2279.86,-135.76 2290.27,-133.77 2280.89,-128.83 2279.86,-135.76"/>
</g>
<!-- Node42 -->
<g id="node17" class="node">
<title>Node42</title>
<g id="a_node17"><a xlink:href="d__msg__object_8h.html" target="_top" xlink:title=" ">
<polygon fill="#fff0f0" stroke="red" points="658,-90.5 548,-90.5 548,-60.5 658,-60.5 658,-90.5"/>
<text text-anchor="start" x="556" y="-78.5" font-family="Helvetica,sans-Serif" font-size="10.00">include/d/msg/d_msg</text>
<text text-anchor="middle" x="603" y="-67.5" font-family="Helvetica,sans-Serif" font-size="10.00">_object.h</text>
</a>
</g>
</g>
<!-- Node5&#45;&gt;Node42 -->
<g id="edge16" class="edge">
<title>Node5&#45;&gt;Node42</title>
<path fill="none" stroke="#63b8ff" d="M2280.54,-132.3C2279.69,-132.19 2278.84,-132.09 2278,-132 1922.12,-92.24 1020.57,-152.71 667,-96 659.66,-94.82 651.99,-93.02 644.61,-90.97"/>
<polygon fill="#63b8ff" stroke="#63b8ff" points="2279.88,-135.74 2290.28,-133.68 2280.87,-128.81 2279.88,-135.74"/>
</g>
<!-- Node58 -->
<g id="node18" class="node">
<title>Node58</title>
<g id="a_node18"><a xlink:href="d__s__logo_8h.html" target="_top" xlink:title=" ">
<polygon fill="#fff0f0" stroke="red" points="1529.5,-85 1416.5,-85 1416.5,-66 1529.5,-66 1529.5,-85"/>
<text text-anchor="middle" x="1473" y="-73" font-family="Helvetica,sans-Serif" font-size="10.00">include/d/s/d_s_logo.h</text>
</a>
</g>
</g>
<!-- Node5&#45;&gt;Node58 -->
<g id="edge19" class="edge">
<title>Node5&#45;&gt;Node58</title>
<path fill="none" stroke="#63b8ff" d="M2280.54,-132.33C2279.69,-132.22 2278.84,-132.11 2278,-132 1951.27,-91.14 1862.53,-151.72 1538,-96 1524.41,-93.67 1509.67,-89.39 1497.66,-85.44"/>
<polygon fill="#63b8ff" stroke="#63b8ff" points="2279.85,-135.77 2290.26,-133.8 2280.9,-128.84 2279.85,-135.77"/>
</g>
<!-- Node60 -->
<g id="node19" class="node">
<title>Node60</title>
<g id="a_node19"><a xlink:href="d__s__play_8h.html" target="_top" xlink:title=" ">
<polygon fill="#fff0f0" stroke="red" points="1660.5,-85 1547.5,-85 1547.5,-66 1660.5,-66 1660.5,-85"/>
<text text-anchor="middle" x="1604" y="-73" font-family="Helvetica,sans-Serif" font-size="10.00">include/d/s/d_s_play.h</text>
</a>
</g>
</g>
<!-- Node5&#45;&gt;Node60 -->
<g id="edge20" class="edge">
<title>Node5&#45;&gt;Node60</title>
<path fill="none" stroke="#63b8ff" d="M2280.54,-132.34C2279.69,-132.22 2278.84,-132.11 2278,-132 2009.14,-96.96 1935.99,-143.27 1669,-96 1655.54,-93.62 1640.94,-89.39 1628.98,-85.48"/>
<polygon fill="#63b8ff" stroke="#63b8ff" points="2279.84,-135.78 2290.26,-133.84 2280.91,-128.86 2279.84,-135.78"/>
</g>
<!-- Node66 -->
<g id="node20" class="node">
<title>Node66</title>
<g id="a_node20"><a xlink:href="d__msg__scrn__base_8h.html" target="_top" xlink:title=" ">
<polygon fill="#fff0f0" stroke="red" points="1777.5,-90.5 1678.5,-90.5 1678.5,-60.5 1777.5,-60.5 1777.5,-90.5"/>
<text text-anchor="start" x="1686.5" y="-78.5" font-family="Helvetica,sans-Serif" font-size="10.00">include/msg/scrn/d</text>
<text text-anchor="middle" x="1728" y="-67.5" font-family="Helvetica,sans-Serif" font-size="10.00">_msg_scrn_base.h</text>
</a>
</g>
</g>
<!-- Node5&#45;&gt;Node66 -->
<g id="edge21" class="edge">
<title>Node5&#45;&gt;Node66</title>
<path fill="none" stroke="#63b8ff" d="M2280.53,-132.36C2279.69,-132.24 2278.84,-132.12 2278,-132 2061.23,-102.19 2001.61,-138.65 1787,-96 1780.55,-94.72 1773.82,-92.94 1767.31,-90.97"/>
<polygon fill="#63b8ff" stroke="#63b8ff" points="2279.82,-135.79 2290.25,-133.91 2280.93,-128.88 2279.82,-135.79"/>
</g>
<!-- Node70 -->
<g id="node21" class="node">
<title>Node70</title>
<g id="a_node21"><a xlink:href="d__a__b__oh2_8h.html" target="_top" xlink:title=" ">
<polygon fill="white" stroke="#666666" points="1912,-90.5 1796,-90.5 1796,-60.5 1912,-60.5 1912,-90.5"/>
<text text-anchor="start" x="1804" y="-78.5" font-family="Helvetica,sans-Serif" font-size="10.00">include/rel/d/a/b/d</text>
<text text-anchor="middle" x="1854" y="-67.5" font-family="Helvetica,sans-Serif" font-size="10.00">_a_b_oh2/d_a_b_oh2.h</text>
</a>
</g>
</g>
<!-- Node5&#45;&gt;Node70 -->
<g id="edge22" class="edge">
<title>Node5&#45;&gt;Node70</title>
<path fill="none" stroke="#63b8ff" d="M2280.53,-132.39C2279.68,-132.26 2278.84,-132.13 2278,-132 2120.33,-108.12 2077.55,-126.41 1921,-96 1913.98,-94.64 1906.64,-92.87 1899.5,-90.95"/>
<polygon fill="#63b8ff" stroke="#63b8ff" points="2279.79,-135.82 2290.23,-134.03 2280.95,-128.91 2279.79,-135.82"/>
</g>
<!-- Node71 -->
<g id="node22" class="node">
<title>Node71</title>
<g id="a_node22"><a xlink:href="d__a__b__zant_8h.html" target="_top" xlink:title=" ">
<polygon fill="white" stroke="#666666" points="2051.5,-90.5 1930.5,-90.5 1930.5,-60.5 2051.5,-60.5 2051.5,-90.5"/>
<text text-anchor="start" x="1938.5" y="-78.5" font-family="Helvetica,sans-Serif" font-size="10.00">include/rel/d/a/b/d</text>
<text text-anchor="middle" x="1991" y="-67.5" font-family="Helvetica,sans-Serif" font-size="10.00">_a_b_zant/d_a_b_zant.h</text>
</a>
</g>
</g>
<!-- Node5&#45;&gt;Node71 -->
<g id="edge23" class="edge">
<title>Node5&#45;&gt;Node71</title>
<path fill="none" stroke="#63b8ff" d="M2280.52,-132.47C2279.67,-132.31 2278.83,-132.15 2278,-132 2181.86,-114.28 2156.45,-117.15 2061,-96 2054.23,-94.5 2047.13,-92.74 2040.17,-90.91"/>
<polygon fill="#63b8ff" stroke="#63b8ff" points="2279.71,-135.88 2290.19,-134.31 2281.02,-129 2279.71,-135.88"/>
</g>
<!-- Node72 -->
<g id="node23" class="node">
<title>Node72</title>
<g id="a_node23"><a xlink:href="d__a__cstaF_8h.html" target="_top" xlink:title=" ">
<polygon fill="white" stroke="#666666" points="244,-90.5 144,-90.5 144,-60.5 244,-60.5 244,-90.5"/>
<text text-anchor="start" x="152" y="-78.5" font-family="Helvetica,sans-Serif" font-size="10.00">include/rel/d/a/d_a</text>
<text text-anchor="middle" x="194" y="-67.5" font-family="Helvetica,sans-Serif" font-size="10.00">_cstaf/d_a_cstaF.h</text>
</a>
</g>
</g>
<!-- Node5&#45;&gt;Node72 -->
<g id="edge24" class="edge">
<title>Node5&#45;&gt;Node72</title>
<path fill="none" stroke="#63b8ff" d="M2280.28,-145.58C1945.46,-143.29 456.34,-131.23 253,-96 246.2,-94.82 239.11,-93.01 232.3,-90.96"/>
<polygon fill="#63b8ff" stroke="#63b8ff" points="2280.17,-149.08 2290.19,-145.64 2280.21,-142.08 2280.17,-149.08"/>
</g>
<!-- Node73 -->
<g id="node24" class="node">
<title>Node73</title>
<g id="a_node24"><a xlink:href="d__a__dmidna_8h.html" target="_top" xlink:title=" ">
<polygon fill="white" stroke="#666666" points="2186,-90.5 2070,-90.5 2070,-60.5 2186,-60.5 2186,-90.5"/>
<text text-anchor="start" x="2078" y="-78.5" font-family="Helvetica,sans-Serif" font-size="10.00">include/rel/d/a/d_a</text>
<text text-anchor="middle" x="2128" y="-67.5" font-family="Helvetica,sans-Serif" font-size="10.00">_dmidna/d_a_dmidna.h</text>
</a>
</g>
</g>
<!-- Node5&#45;&gt;Node73 -->
<g id="edge25" class="edge">
<title>Node5&#45;&gt;Node73</title>
<path fill="none" stroke="#63b8ff" d="M2290.44,-128.05C2254.11,-116.52 2207.54,-101.74 2173.58,-90.97"/>
<polygon fill="#63b8ff" stroke="#63b8ff" points="2289.32,-131.37 2299.91,-131.06 2291.44,-124.7 2289.32,-131.37"/>
</g>
<!-- Node74 -->
<g id="node25" class="node">
<title>Node74</title>
<g id="a_node25"><a xlink:href="d__a__set__bgobj_8h.html" target="_top" xlink:title=" ">
<polygon fill="white" stroke="#666666" points="2341.5,-90.5 2204.5,-90.5 2204.5,-60.5 2341.5,-60.5 2341.5,-90.5"/>
<text text-anchor="start" x="2212.5" y="-78.5" font-family="Helvetica,sans-Serif" font-size="10.00">include/rel/d/a/d_a</text>
<text text-anchor="middle" x="2273" y="-67.5" font-family="Helvetica,sans-Serif" font-size="10.00">_set_bgobj/d_a_set_bgobj.h</text>
</a>
</g>
</g>
<!-- Node5&#45;&gt;Node74 -->
<g id="edge26" class="edge">
<title>Node5&#45;&gt;Node74</title>
<path fill="none" stroke="#63b8ff" d="M2323.37,-123.8C2311.89,-113.02 2298.43,-100.38 2288.31,-90.88"/>
<polygon fill="#63b8ff" stroke="#63b8ff" points="2320.88,-126.27 2330.56,-130.56 2325.67,-121.17 2320.88,-126.27"/>
</g>
<!-- Node75 -->
<g id="node26" class="node">
<title>Node75</title>
<g id="a_node26"><a xlink:href="d__a__skip__2D_8h.html" target="_top" xlink:title=" ">
<polygon fill="white" stroke="#666666" points="2484,-90.5 2360,-90.5 2360,-60.5 2484,-60.5 2484,-90.5"/>
<text text-anchor="start" x="2368" y="-78.5" font-family="Helvetica,sans-Serif" font-size="10.00">include/rel/d/a/d_a</text>
<text text-anchor="middle" x="2422" y="-67.5" font-family="Helvetica,sans-Serif" font-size="10.00">_skip_2D/d_a_skip_2D.h</text>
</a>
</g>
</g>
<!-- Node5&#45;&gt;Node75 -->
<g id="edge27" class="edge">
<title>Node5&#45;&gt;Node75</title>
<path fill="none" stroke="#63b8ff" d="M2370.95,-123.8C2382.59,-113.02 2396.23,-100.38 2406.48,-90.88"/>
<polygon fill="#63b8ff" stroke="#63b8ff" points="2368.61,-121.21 2363.65,-130.57 2373.36,-126.34 2368.61,-121.21"/>
</g>
<!-- Node76 -->
<g id="node27" class="node">
<title>Node76</title>
<g id="a_node27"><a xlink:href="d__a__spinner_8h.html" target="_top" xlink:title=" ">
<polygon fill="#fff0f0" stroke="red" points="4082,-90.5 3966,-90.5 3966,-60.5 4082,-60.5 4082,-90.5"/>
<text text-anchor="start" x="3974" y="-78.5" font-family="Helvetica,sans-Serif" font-size="10.00">include/rel/d/a/d_a</text>
<text text-anchor="middle" x="4024" y="-67.5" font-family="Helvetica,sans-Serif" font-size="10.00">_spinner/d_a_spinner.h</text>
</a>
</g>
</g>
<!-- Node5&#45;&gt;Node76 -->
<g id="edge28" class="edge">
<title>Node5&#45;&gt;Node76</title>
<path fill="none" stroke="#63b8ff" d="M2413.46,-132.3C2414.31,-132.19 2415.16,-132.09 2416,-132 2756.4,-93.79 3618.48,-148.3 3957,-96 3964.66,-94.82 3972.68,-93.01 3980.4,-90.96"/>
<polygon fill="#63b8ff" stroke="#63b8ff" points="2413.13,-128.81 2403.72,-133.69 2414.12,-135.74 2413.13,-128.81"/>
</g>
<!-- Node79 -->
<g id="node28" class="node">
<title>Node79</title>
<g id="a_node28"><a xlink:href="d__a__obj__cboard_8h.html" target="_top" xlink:title=" ">
<polygon fill="white" stroke="#666666" points="369.5,-96 262.5,-96 262.5,-55 369.5,-55 369.5,-96"/>
<text text-anchor="start" x="270.5" y="-84" font-family="Helvetica,sans-Serif" font-size="10.00">include/rel/d/a/obj</text>
<text text-anchor="start" x="270.5" y="-73" font-family="Helvetica,sans-Serif" font-size="10.00">/d_a_obj_cboard/d_a</text>
<text text-anchor="middle" x="316" y="-62" font-family="Helvetica,sans-Serif" font-size="10.00">_obj_cboard.h</text>
</a>
</g>
</g>
<!-- Node5&#45;&gt;Node79 -->
<g id="edge30" class="edge">
<title>Node5&#45;&gt;Node79</title>
<path fill="none" stroke="#63b8ff" d="M2280.45,-145.39C1958.43,-142.31 569.62,-127.31 379,-96 375.95,-95.5 372.84,-94.89 369.72,-94.19"/>
<polygon fill="#63b8ff" stroke="#63b8ff" points="2280.35,-148.89 2290.38,-145.49 2280.42,-141.89 2280.35,-148.89"/>
</g>
<!-- Node80 -->
<g id="node29" class="node">
<title>Node80</title>
<g id="a_node29"><a xlink:href="d__a__obj__enemy__create_8h.html" target="_top" xlink:title=" ">
<polygon fill="white" stroke="#666666" points="2629.5,-96 2502.5,-96 2502.5,-55 2629.5,-55 2629.5,-96"/>
<text text-anchor="start" x="2510.5" y="-84" font-family="Helvetica,sans-Serif" font-size="10.00">include/rel/d/a/obj</text>
<text text-anchor="start" x="2510.5" y="-73" font-family="Helvetica,sans-Serif" font-size="10.00">/d_a_obj_enemy_create</text>
<text text-anchor="middle" x="2566" y="-62" font-family="Helvetica,sans-Serif" font-size="10.00">/d_a_obj_enemy_create.h</text>
</a>
</g>
</g>
<!-- Node5&#45;&gt;Node80 -->
<g id="edge31" class="edge">
<title>Node5&#45;&gt;Node80</title>
<path fill="none" stroke="#63b8ff" d="M2403.55,-128.05C2434.12,-118.35 2471.94,-106.35 2503.39,-96.37"/>
<polygon fill="#63b8ff" stroke="#63b8ff" points="2402.56,-124.7 2394.09,-131.06 2404.68,-131.37 2402.56,-124.7"/>
</g>
<!-- Node81 -->
<g id="node30" class="node">
<title>Node81</title>
<g id="a_node30"><a xlink:href="d__a__obj__web0_8h.html" target="_top" xlink:title=" ">
<polygon fill="white" stroke="#666666" points="2766.5,-96 2647.5,-96 2647.5,-55 2766.5,-55 2766.5,-96"/>
<text text-anchor="start" x="2655.5" y="-84" font-family="Helvetica,sans-Serif" font-size="10.00">include/rel/d/a/obj</text>
<text text-anchor="start" x="2655.5" y="-73" font-family="Helvetica,sans-Serif" font-size="10.00">/d_a_obj_web0/d_a_obj</text>
<text text-anchor="middle" x="2707" y="-62" font-family="Helvetica,sans-Serif" font-size="10.00">_web0.h</text>
</a>
</g>
</g>
<!-- Node5&#45;&gt;Node81 -->
<g id="edge32" class="edge">
<title>Node5&#45;&gt;Node81</title>
<path fill="none" stroke="#63b8ff" d="M2413.48,-132.46C2414.33,-132.31 2415.17,-132.15 2416,-132 2514.77,-114.01 2541.02,-117.88 2639,-96 2641.64,-95.41 2644.32,-94.78 2647.03,-94.12"/>
<polygon fill="#63b8ff" stroke="#63b8ff" points="2412.99,-128.99 2403.81,-134.29 2414.29,-135.87 2412.99,-128.99"/>
</g>
<!-- Node82 -->
<g id="node31" class="node">
<title>Node82</title>
<g id="a_node31"><a xlink:href="d__a__obj__web1_8h.html" target="_top" xlink:title=" ">
<polygon fill="white" stroke="#666666" points="2903.5,-96 2784.5,-96 2784.5,-55 2903.5,-55 2903.5,-96"/>
<text text-anchor="start" x="2792.5" y="-84" font-family="Helvetica,sans-Serif" font-size="10.00">include/rel/d/a/obj</text>
<text text-anchor="start" x="2792.5" y="-73" font-family="Helvetica,sans-Serif" font-size="10.00">/d_a_obj_web1/d_a_obj</text>
<text text-anchor="middle" x="2844" y="-62" font-family="Helvetica,sans-Serif" font-size="10.00">_web1.h</text>
</a>
</g>
</g>
<!-- Node5&#45;&gt;Node82 -->
<g id="edge33" class="edge">
<title>Node5&#45;&gt;Node82</title>
<path fill="none" stroke="#63b8ff" d="M2413.47,-132.39C2414.32,-132.26 2415.16,-132.13 2416,-132 2574.99,-107.98 2618.08,-126.28 2776,-96 2778.65,-95.49 2781.35,-94.93 2784.07,-94.32"/>
<polygon fill="#63b8ff" stroke="#63b8ff" points="2413.05,-128.91 2403.77,-134.02 2414.21,-135.81 2413.05,-128.91"/>
</g>
<!-- Node83 -->
<g id="node32" class="node">
<title>Node83</title>
<g id="a_node32"><a xlink:href="d__a__obj__yobikusa_8h.html" target="_top" xlink:title=" ">
<polygon fill="white" stroke="#666666" points="3026.5,-96 2921.5,-96 2921.5,-55 3026.5,-55 3026.5,-96"/>
<text text-anchor="start" x="2929.5" y="-84" font-family="Helvetica,sans-Serif" font-size="10.00">include/rel/d/a/obj</text>
<text text-anchor="start" x="2929.5" y="-73" font-family="Helvetica,sans-Serif" font-size="10.00">/d_a_obj_yobikusa/d</text>
<text text-anchor="middle" x="2974" y="-62" font-family="Helvetica,sans-Serif" font-size="10.00">_a_obj_yobikusa.h</text>
</a>
</g>
</g>
<!-- Node5&#45;&gt;Node83 -->
<g id="edge34" class="edge">
<title>Node5&#45;&gt;Node83</title>
<path fill="none" stroke="#63b8ff" d="M2413.47,-132.36C2414.31,-132.23 2415.16,-132.12 2416,-132 2635.42,-101.92 2695.55,-138.01 2913,-96 2915.73,-95.47 2918.51,-94.86 2921.3,-94.19"/>
<polygon fill="#63b8ff" stroke="#63b8ff" points="2413.08,-128.88 2403.75,-133.9 2414.18,-135.79 2413.08,-128.88"/>
</g>
<!-- Node84 -->
<g id="node33" class="node">
<title>Node84</title>
<g id="a_node33"><a xlink:href="d__a__tag__ajnot_8h.html" target="_top" xlink:title=" ">
<polygon fill="white" stroke="#666666" points="3163,-96 3045,-96 3045,-55 3163,-55 3163,-96"/>
<text text-anchor="start" x="3053" y="-84" font-family="Helvetica,sans-Serif" font-size="10.00">include/rel/d/a/tag</text>
<text text-anchor="start" x="3053" y="-73" font-family="Helvetica,sans-Serif" font-size="10.00">/d_a_tag_ajnot/d_a_tag</text>
<text text-anchor="middle" x="3104" y="-62" font-family="Helvetica,sans-Serif" font-size="10.00">_ajnot.h</text>
</a>
</g>
</g>
<!-- Node5&#45;&gt;Node84 -->
<g id="edge35" class="edge">
<title>Node5&#45;&gt;Node84</title>
<path fill="none" stroke="#63b8ff" d="M2413.46,-132.34C2414.31,-132.22 2415.16,-132.11 2416,-132 2689.72,-96.47 2763.9,-142.33 3036,-96 3038.91,-95.51 3041.86,-94.93 3044.84,-94.3"/>
<polygon fill="#63b8ff" stroke="#63b8ff" points="2413.09,-128.86 2403.74,-133.84 2414.16,-135.77 2413.09,-128.86"/>
</g>
<!-- Node85 -->
<g id="node34" class="node">
<title>Node85</title>
<g id="a_node34"><a xlink:href="d__a__tag__howl_8h.html" target="_top" xlink:title=" ">
<polygon fill="white" stroke="#666666" points="3298.5,-96 3181.5,-96 3181.5,-55 3298.5,-55 3298.5,-96"/>
<text text-anchor="start" x="3189.5" y="-84" font-family="Helvetica,sans-Serif" font-size="10.00">include/rel/d/a/tag</text>
<text text-anchor="start" x="3189.5" y="-73" font-family="Helvetica,sans-Serif" font-size="10.00">/d_a_tag_howl/d_a_tag</text>
<text text-anchor="middle" x="3240" y="-62" font-family="Helvetica,sans-Serif" font-size="10.00">_howl.h</text>
</a>
</g>
</g>
<!-- Node5&#45;&gt;Node85 -->
<g id="edge36" class="edge">
<title>Node5&#45;&gt;Node85</title>
<path fill="none" stroke="#63b8ff" d="M2413.46,-132.33C2414.31,-132.21 2415.16,-132.1 2416,-132 2749.8,-90.43 2840.1,-150.73 3172,-96 3175.03,-95.5 3178.12,-94.91 3181.22,-94.26"/>
<polygon fill="#63b8ff" stroke="#63b8ff" points="2413.1,-128.84 2403.74,-133.79 2414.15,-135.76 2413.1,-128.84"/>
</g>
<!-- Node86 -->
<g id="node35" class="node">
<title>Node86</title>
<g id="a_node35"><a xlink:href="d__a__tag__lv6CstaSw_8h.html" target="_top" xlink:title=" ">
<polygon fill="white" stroke="#666666" points="3431.5,-96 3316.5,-96 3316.5,-55 3431.5,-55 3431.5,-96"/>
<text text-anchor="start" x="3324.5" y="-84" font-family="Helvetica,sans-Serif" font-size="10.00">include/rel/d/a/tag</text>
<text text-anchor="start" x="3324.5" y="-73" font-family="Helvetica,sans-Serif" font-size="10.00">/d_a_tag_lv6CstaSw/d</text>
<text text-anchor="middle" x="3374" y="-62" font-family="Helvetica,sans-Serif" font-size="10.00">_a_tag_lv6CstaSw.h</text>
</a>
</g>
</g>
<!-- Node5&#45;&gt;Node86 -->
<g id="edge37" class="edge">
<title>Node5&#45;&gt;Node86</title>
<path fill="none" stroke="#63b8ff" d="M2413.46,-132.32C2414.31,-132.21 2415.16,-132.1 2416,-132 2809.9,-84.4 2916.54,-160.7 3308,-96 3310.71,-95.55 3313.47,-95.03 3316.24,-94.44"/>
<polygon fill="#63b8ff" stroke="#63b8ff" points="2413.11,-128.83 2403.73,-133.76 2414.14,-135.76 2413.11,-128.83"/>
</g>
<!-- Node87 -->
<g id="node36" class="node">
<title>Node87</title>
<g id="a_node36"><a xlink:href="d__a__tag__telop_8h.html" target="_top" xlink:title=" ">
<polygon fill="white" stroke="#666666" points="3568,-96 3450,-96 3450,-55 3568,-55 3568,-96"/>
<text text-anchor="start" x="3458" y="-84" font-family="Helvetica,sans-Serif" font-size="10.00">include/rel/d/a/tag</text>
<text text-anchor="start" x="3458" y="-73" font-family="Helvetica,sans-Serif" font-size="10.00">/d_a_tag_telop/d_a_tag</text>
<text text-anchor="middle" x="3509" y="-62" font-family="Helvetica,sans-Serif" font-size="10.00">_telop.h</text>
</a>
</g>
</g>
<!-- Node5&#45;&gt;Node87 -->
<g id="edge38" class="edge">
<title>Node5&#45;&gt;Node87</title>
<path fill="none" stroke="#63b8ff" d="M2413.46,-132.31C2414.31,-132.2 2415.16,-132.1 2416,-132 2868.69,-78.5 2990.78,-167.36 3441,-96 3443.91,-95.54 3446.87,-94.99 3449.85,-94.38"/>
<polygon fill="#63b8ff" stroke="#63b8ff" points="2413.12,-128.83 2403.73,-133.74 2414.13,-135.75 2413.12,-128.83"/>
</g>
<!-- Node88 -->
<g id="node37" class="node">
<title>Node88</title>
<g id="a_node37"><a xlink:href="c__dylink_8cpp.html" target="_top" xlink:title=" ">
<polygon fill="white" stroke="#666666" points="3681.5,-85 3586.5,-85 3586.5,-66 3681.5,-66 3681.5,-85"/>
<text text-anchor="middle" x="3634" y="-73" font-family="Helvetica,sans-Serif" font-size="10.00">src/c/c_dylink.cpp</text>
</a>
</g>
</g>
<!-- Node5&#45;&gt;Node88 -->
<g id="edge39" class="edge">
<title>Node5&#45;&gt;Node88</title>
<path fill="none" stroke="#63b8ff" d="M2413.46,-132.31C2414.31,-132.2 2415.16,-132.1 2416,-132 2672.4,-102.23 3323.06,-142.29 3577,-96 3589.14,-93.79 3602.2,-89.47 3612.75,-85.46"/>
<polygon fill="#63b8ff" stroke="#63b8ff" points="2413.12,-128.82 2403.73,-133.72 2414.13,-135.75 2413.12,-128.82"/>
</g>
<!-- Node89 -->
<g id="node38" class="node">
<title>Node89</title>
<g id="a_node38"><a xlink:href="d__a__itembase_8cpp.html" target="_top" xlink:title=" ">
<polygon fill="white" stroke="#666666" points="3828,-85 3700,-85 3700,-66 3828,-66 3828,-85"/>
<text text-anchor="middle" x="3764" y="-73" font-family="Helvetica,sans-Serif" font-size="10.00">src/d/a/d_a_itembase.cpp</text>
</a>
</g>
</g>
<!-- Node5&#45;&gt;Node89 -->
<g id="edge41" class="edge">
<title>Node5&#45;&gt;Node89</title>
<path fill="none" stroke="#63b8ff" d="M2413.46,-132.3C2414.31,-132.2 2415.16,-132.1 2416,-132 2979.2,-67.4 3130.03,-177.7 3691,-96 3706.32,-93.77 3723.02,-89.45 3736.58,-85.45"/>
<polygon fill="#63b8ff" stroke="#63b8ff" points="2413.12,-128.82 2403.73,-133.71 2414.12,-135.74 2413.12,-128.82"/>
</g>
<!-- Node90 -->
<g id="node39" class="node">
<title>Node90</title>
<g id="a_node39"><a xlink:href="d__a__obj_8cpp.html" target="_top" xlink:title=" ">
<polygon fill="white" stroke="#666666" points="3947.5,-85 3846.5,-85 3846.5,-66 3947.5,-66 3947.5,-85"/>
<text text-anchor="middle" x="3897" y="-73" font-family="Helvetica,sans-Serif" font-size="10.00">src/d/a/d_a_obj.cpp</text>
</a>
</g>
</g>
<!-- Node5&#45;&gt;Node90 -->
<g id="edge42" class="edge">
<title>Node5&#45;&gt;Node90</title>
<path fill="none" stroke="#63b8ff" d="M2413.46,-132.3C2414.31,-132.2 2415.16,-132.1 2416,-132 2729.87,-96.46 3525.66,-149.37 3837,-96 3849.74,-93.82 3863.48,-89.5 3874.6,-85.49"/>
<polygon fill="#63b8ff" stroke="#63b8ff" points="2413.13,-128.81 2403.72,-133.7 2414.12,-135.74 2413.13,-128.81"/>
</g>
<!-- Node5&#45;&gt;Node91 -->
<g id="edge44" class="edge">
<title>Node5&#45;&gt;Node91</title>
<path fill="none" stroke="#63b8ff" d="M2280.54,-132.3C2279.69,-132.19 2278.84,-132.09 2278,-132 1886.53,-88.67 895.21,-156.34 506,-96 491.95,-93.82 476.7,-89.46 464.4,-85.41"/>
<polygon fill="#63b8ff" stroke="#63b8ff" points="2279.89,-135.74 2290.28,-133.67 2280.87,-128.81 2279.89,-135.74"/>
</g>
<!-- Node92 -->
<g id="node41" class="node">
<title>Node92</title>
<g id="a_node41"><a xlink:href="d__bg__s__movebg__actor_8cpp.html" target="_top" xlink:title=" ">
<polygon fill="white" stroke="#666666" points="126,-90.5 0,-90.5 0,-60.5 126,-60.5 126,-90.5"/>
<text text-anchor="start" x="8" y="-78.5" font-family="Helvetica,sans-Serif" font-size="10.00">src/d/bg/d_bg_s_movebg</text>
<text text-anchor="middle" x="63" y="-67.5" font-family="Helvetica,sans-Serif" font-size="10.00">_actor.cpp</text>
</a>
</g>
</g>
<!-- Node5&#45;&gt;Node92 -->
<g id="edge45" class="edge">
<title>Node5&#45;&gt;Node92</title>
<path fill="none" stroke="#63b8ff" d="M2280.22,-145.45C1934.04,-142.48 351.5,-127.29 135,-96 126.8,-94.81 118.2,-93 109.91,-90.95"/>
<polygon fill="#63b8ff" stroke="#63b8ff" points="2279.99,-148.95 2290.02,-145.54 2280.05,-141.95 2279.99,-148.95"/>
</g>
<!-- Node5&#45;&gt;Node93 -->
<g id="edge46" class="edge">
<title>Node5&#45;&gt;Node93</title>
<path fill="none" stroke="#63b8ff" d="M2413.46,-132.29C2414.31,-132.19 2415.16,-132.09 2416,-132 2857.21,-83.67 3974.04,-161.73 4413,-96 4427.45,-93.84 4443.16,-89.47 4455.84,-85.42"/>
<polygon fill="#63b8ff" stroke="#63b8ff" points="2413.14,-128.8 2403.72,-133.66 2414.11,-135.73 2413.14,-128.8"/>
</g>
<!-- Node18&#45;&gt;Node15 -->
<g id="edge8" class="edge">
<title>Node18&#45;&gt;Node15</title>
<path fill="none" stroke="#63b8ff" d="M4288.4,-61.77C4254.34,-49.25 4203.22,-30.44 4173.27,-19.43"/>
<polygon fill="#63b8ff" stroke="#63b8ff" points="4286.79,-64.91 4297.39,-65.08 4289.21,-58.34 4286.79,-64.91"/>
</g>
<!-- Node18&#45;&gt;Node19 -->
<g id="edge9" class="edge">
<title>Node18&#45;&gt;Node19</title>
<path fill="none" stroke="#63b8ff" d="M4333.97,-56.03C4341.13,-43.96 4350.16,-28.75 4355.76,-19.32"/>
<polygon fill="#63b8ff" stroke="#63b8ff" points="4331.15,-53.91 4329.06,-64.3 4337.17,-57.49 4331.15,-53.91"/>
</g>
<!-- Node42&#45;&gt;Node6 -->
<g id="edge17" class="edge">
<title>Node42&#45;&gt;Node6</title>
<path fill="none" stroke="#63b8ff" d="M587.8,-50.78C580.78,-39.81 572.86,-27.44 567.67,-19.34"/>
<polygon fill="#63b8ff" stroke="#63b8ff" points="584.74,-52.49 593.08,-59.02 590.64,-48.71 584.74,-52.49"/>
</g>
<!-- Node42&#45;&gt;Node15 -->
<g id="edge18" class="edge">
<title>Node42&#45;&gt;Node15</title>
<path fill="none" stroke="#63b8ff" d="M655.28,-57.27C659.22,-56.37 663.15,-55.6 667,-55 843.55,-27.55 3664.15,-12.85 4094.2,-10.76"/>
<polygon fill="#63b8ff" stroke="#63b8ff" points="654.56,-53.84 645.73,-59.7 656.28,-60.63 654.56,-53.84"/>
</g>
<!-- Node76&#45;&gt;Node15 -->
<g id="edge29" class="edge">
<title>Node76&#45;&gt;Node15</title>
<path fill="none" stroke="#63b8ff" d="M4062.23,-54.93C4085.29,-43.12 4113.58,-28.64 4131.45,-19.49"/>
<polygon fill="#63b8ff" stroke="#63b8ff" points="4060.71,-51.77 4053.4,-59.45 4063.9,-58.01 4060.71,-51.77"/>
</g>
<!-- Node132&#45;&gt;Node15 -->
<g id="edge50" class="edge">
<title>Node132&#45;&gt;Node15</title>
<path fill="none" stroke="#63b8ff" d="M4518.35,-125.13C4528.57,-117.41 4538.37,-107.65 4544,-96 4551.93,-79.59 4556.14,-68.59 4544,-55 4532.79,-42.46 4309.47,-23.2 4203.68,-14.74"/>
<polygon fill="#63b8ff" stroke="#63b8ff" points="4516.42,-122.21 4510.19,-130.78 4520.41,-127.96 4516.42,-122.21"/>
</g>
<!-- Node132&#45;&gt;Node93 -->
<g id="edge51" class="edge">
<title>Node132&#45;&gt;Node93</title>
<path fill="none" stroke="#63b8ff" d="M4481,-120.46C4481,-108.07 4481,-93.99 4481,-85.18"/>
<polygon fill="#63b8ff" stroke="#63b8ff" points="4477.5,-120.09 4481,-130.09 4484.5,-120.09 4477.5,-120.09"/>
</g>
<!-- Node134&#45;&gt;Node72 -->
<g id="edge55" class="edge">
<title>Node134&#45;&gt;Node72</title>
<path fill="none" stroke="#63b8ff" d="M234.96,-123.17C225.62,-112.53 214.8,-100.2 206.62,-90.88"/>
<polygon fill="#63b8ff" stroke="#63b8ff" points="232.14,-125.26 241.36,-130.46 237.4,-120.64 232.14,-125.26"/>
</g>
<!-- Node134&#45;&gt;Node79 -->
<g id="edge56" class="edge">
<title>Node134&#45;&gt;Node79</title>
<path fill="none" stroke="#63b8ff" d="M275.09,-123.12C282.66,-114.49 291.2,-104.75 298.52,-96.42"/>
<polygon fill="#63b8ff" stroke="#63b8ff" points="272.6,-120.64 268.64,-130.46 277.86,-125.26 272.6,-120.64"/>
</g>
<!-- Node134&#45;&gt;Node92 -->
<g id="edge57" class="edge">
<title>Node134&#45;&gt;Node92</title>
<path fill="none" stroke="#63b8ff" d="M204.78,-127.82C172.94,-116.3 132.32,-101.59 102.73,-90.88"/>
<polygon fill="#63b8ff" stroke="#63b8ff" points="203.2,-130.97 213.79,-131.08 205.58,-124.39 203.2,-130.97"/>
</g>
<!-- Node136 -->
<g id="node47" class="node">
<title>Node136</title>
<g id="a_node47"><a xlink:href="d__bg__w__sv_8cpp.html" target="_top" xlink:title=" ">
<polygon fill="white" stroke="#666666" points="2194,-217 2072,-217 2072,-198 2194,-198 2194,-217"/>
<text text-anchor="middle" x="2133" y="-205" font-family="Helvetica,sans-Serif" font-size="10.00">src/d/bg/d_bg_w_sv.cpp</text>
</a>
</g>
</g>
<!-- Node135&#45;&gt;Node136 -->
<g id="edge59" class="edge">
<title>Node135&#45;&gt;Node136</title>
<path fill="none" stroke="#63b8ff" d="M2133,-241.35C2133,-233.1 2133,-223.97 2133,-217.44"/>
<polygon fill="#63b8ff" stroke="#63b8ff" points="2129.5,-241.23 2133,-251.23 2136.5,-241.23 2129.5,-241.23"/>
</g>
<!-- Node138 -->
<g id="node49" class="node">
<title>Node138</title>
<g id="a_node49"><a xlink:href="d__bg__w__kcol_8cpp.html" target="_top" xlink:title=" ">
<polygon fill="white" stroke="#666666" points="2562,-272 2432,-272 2432,-253 2562,-253 2562,-272"/>
<text text-anchor="middle" x="2497" y="-260" font-family="Helvetica,sans-Serif" font-size="10.00">src/d/bg/d_bg_w_kcol.cpp</text>
</a>
</g>
</g>
<!-- Node137&#45;&gt;Node138 -->
<g id="edge62" class="edge">
<title>Node137&#45;&gt;Node138</title>
<path fill="none" stroke="#63b8ff" d="M2451.61,-300.38C2463.65,-290.6 2477.19,-279.6 2486.32,-272.18"/>
<polygon fill="#63b8ff" stroke="#63b8ff" points="2449.53,-297.56 2443.97,-306.58 2453.94,-303 2449.53,-297.56"/>
</g>
</g>
</svg>
