<?xml version="1.0" encoding="UTF-8" standalone="no"?>
<!DOCTYPE svg PUBLIC "-//W3C//DTD SVG 1.1//EN"
 "http://www.w3.org/Graphics/SVG/1.1/DTD/svg11.dtd">
<!-- Generated by graphviz version 7.0.5 (20221223.1930)
 -->
<!-- Title: include/d/bg/d_bg_w_base.h Pages: 1 -->
<svg width="4794pt" height="313pt"
 viewBox="0.00 0.00 4793.50 313.00" xmlns="http://www.w3.org/2000/svg" xmlns:xlink="http://www.w3.org/1999/xlink">
<g id="graph0" class="graph" transform="scale(1 1) rotate(0) translate(4 309)">
<title>include/d/bg/d_bg_w_base.h</title>
<!-- Node1 -->
<g id="node1" class="node">
<title>Node1</title>
<g id="a_node1"><a xlink:title=" ">
<polygon fill="#999999" stroke="#666666" points="4386.5,-305 4280.5,-305 4280.5,-275 4386.5,-275 4386.5,-305"/>
<text text-anchor="start" x="4288.5" y="-293" font-family="Helvetica,sans-Serif" font-size="10.00">include/d/bg/d_bg_w</text>
<text text-anchor="middle" x="4333.5" y="-282" font-family="Helvetica,sans-Serif" font-size="10.00">_base.h</text>
</a>
</g>
</g>
<!-- Node2 -->
<g id="node2" class="node">
<title>Node2</title>
<g id="a_node2"><a xlink:href="d__a__alink_8h.html" target="_top" xlink:title=" ">
<polygon fill="white" stroke="#666666" points="478.5,-96 362.5,-96 362.5,-77 478.5,-77 478.5,-96"/>
<text text-anchor="middle" x="420.5" y="-84" font-family="Helvetica,sans-Serif" font-size="10.00">include/d/a/d_a_alink.h</text>
</a>
</g>
</g>
<!-- Node1&#45;&gt;Node2 -->
<g id="edge1" class="edge">
<title>Node1&#45;&gt;Node2</title>
<path fill="none" stroke="#63b8ff" d="M4268.8,-288.03C3827.74,-281.07 1258.08,-235.51 487.5,-107 473.52,-104.67 458.32,-100.39 445.94,-96.44"/>
<polygon fill="#63b8ff" stroke="#63b8ff" points="4268.46,-291.52 4278.51,-288.18 4268.57,-284.52 4268.46,-291.52"/>
</g>
<!-- Node11 -->
<g id="node11" class="node">
<title>Node11</title>
<g id="a_node11"><a xlink:href="d__bg__s_8h.html" target="_top" xlink:title=" ">
<polygon fill="white" stroke="#666666" points="4230,-233.5 4119,-233.5 4119,-214.5 4230,-214.5 4230,-233.5"/>
<text text-anchor="middle" x="4174.5" y="-221.5" font-family="Helvetica,sans-Serif" font-size="10.00">include/d/bg/d_bg_s.h</text>
</a>
</g>
</g>
<!-- Node1&#45;&gt;Node11 -->
<g id="edge10" class="edge">
<title>Node1&#45;&gt;Node11</title>
<path fill="none" stroke="#63b8ff" d="M4287.24,-270.38C4257.49,-258.41 4220.17,-243.38 4196.82,-233.99"/>
<polygon fill="#63b8ff" stroke="#63b8ff" points="4285.83,-273.58 4296.41,-274.07 4288.44,-267.09 4285.83,-273.58"/>
</g>
<!-- Node189 -->
<g id="node45" class="node">
<title>Node189</title>
<g id="a_node45"><a xlink:href="d__bg__w_8h.html" target="_top" xlink:title=" ">
<polygon fill="white" stroke="#666666" points="4428,-167.5 4315,-167.5 4315,-148.5 4428,-148.5 4428,-167.5"/>
<text text-anchor="middle" x="4371.5" y="-155.5" font-family="Helvetica,sans-Serif" font-size="10.00">include/d/bg/d_bg_w.h</text>
</a>
</g>
</g>
<!-- Node1&#45;&gt;Node189 -->
<g id="edge56" class="edge">
<title>Node1&#45;&gt;Node189</title>
<path fill="none" stroke="#63b8ff" d="M4338.64,-263.65C4342.07,-247.81 4346.95,-227.05 4352.5,-209 4357.03,-194.27 4363.67,-177.62 4367.79,-167.73"/>
<polygon fill="#63b8ff" stroke="#63b8ff" points="4335.26,-262.7 4336.62,-273.21 4342.11,-264.14 4335.26,-262.7"/>
</g>
<!-- Node193 -->
<g id="node48" class="node">
<title>Node193</title>
<g id="a_node48"><a xlink:href="d__bg__w__kcol_8h.html" target="_top" xlink:title=" ">
<polygon fill="white" stroke="#666666" points="4467.5,-239 4361.5,-239 4361.5,-209 4467.5,-209 4467.5,-239"/>
<text text-anchor="start" x="4369.5" y="-227" font-family="Helvetica,sans-Serif" font-size="10.00">include/d/bg/d_bg_w</text>
<text text-anchor="middle" x="4414.5" y="-216" font-family="Helvetica,sans-Serif" font-size="10.00">_kcol.h</text>
</a>
</g>
</g>
<!-- Node1&#45;&gt;Node193 -->
<g id="edge62" class="edge">
<title>Node1&#45;&gt;Node193</title>
<path fill="none" stroke="#63b8ff" d="M4360.46,-267.7C4372.23,-258.4 4385.73,-247.73 4396.29,-239.39"/>
<polygon fill="#63b8ff" stroke="#63b8ff" points="4358.34,-264.91 4352.66,-273.86 4362.68,-270.4 4358.34,-264.91"/>
</g>
<!-- Node195 -->
<g id="node50" class="node">
<title>Node195</title>
<g id="a_node50"><a xlink:href="d__bg__w__base_8cpp.html" target="_top" xlink:title=" ">
<polygon fill="white" stroke="#666666" points="4619,-233.5 4486,-233.5 4486,-214.5 4619,-214.5 4619,-233.5"/>
<text text-anchor="middle" x="4552.5" y="-221.5" font-family="Helvetica,sans-Serif" font-size="10.00">src/d/bg/d_bg_w_base.cpp</text>
</a>
</g>
</g>
<!-- Node1&#45;&gt;Node195 -->
<g id="edge64" class="edge">
<title>Node1&#45;&gt;Node195</title>
<path fill="none" stroke="#63b8ff" d="M4393.75,-271.39C4435.28,-259.26 4488.76,-243.63 4521.83,-233.96"/>
<polygon fill="#63b8ff" stroke="#63b8ff" points="4392.99,-267.97 4384.37,-274.13 4394.95,-274.69 4392.99,-267.97"/>
</g>
<!-- Node3 -->
<g id="node3" class="node">
<title>Node3</title>
<g id="a_node3"><a xlink:href="d__a__alink_8cpp.html" target="_top" xlink:title=" ">
<polygon fill="white" stroke="#666666" points="528,-24.5 419,-24.5 419,-5.5 528,-5.5 528,-24.5"/>
<text text-anchor="middle" x="473.5" y="-12.5" font-family="Helvetica,sans-Serif" font-size="10.00">src/d/a/d_a_alink.cpp</text>
</a>
</g>
</g>
<!-- Node2&#45;&gt;Node3 -->
<g id="edge2" class="edge">
<title>Node2&#45;&gt;Node3</title>
<path fill="none" stroke="#63b8ff" d="M434.05,-67.73C444.48,-54.06 458.46,-35.72 466.67,-24.95"/>
<polygon fill="#63b8ff" stroke="#63b8ff" points="431.41,-65.42 428.13,-75.49 436.98,-69.66 431.41,-65.42"/>
</g>
<!-- Node4 -->
<g id="node4" class="node">
<title>Node4</title>
<g id="a_node4"><a xlink:href="d__a__player_8cpp.html" target="_top" xlink:title=" ">
<polygon fill="white" stroke="#666666" points="660.5,-24.5 546.5,-24.5 546.5,-5.5 660.5,-5.5 660.5,-24.5"/>
<text text-anchor="middle" x="603.5" y="-12.5" font-family="Helvetica,sans-Serif" font-size="10.00">src/d/a/d_a_player.cpp</text>
</a>
</g>
</g>
<!-- Node2&#45;&gt;Node4 -->
<g id="edge3" class="edge">
<title>Node2&#45;&gt;Node4</title>
<path fill="none" stroke="#63b8ff" d="M454.69,-72.52C491.25,-58.63 548.24,-36.99 580.04,-24.91"/>
<polygon fill="#63b8ff" stroke="#63b8ff" points="453.57,-69.2 445.46,-76.02 456.06,-75.74 453.57,-69.2"/>
</g>
<!-- Node5 -->
<g id="node5" class="node">
<title>Node5</title>
<g id="a_node5"><a xlink:href="d__com__inf__game_8cpp.html" target="_top" xlink:title=" ">
<polygon fill="white" stroke="#666666" points="786.5,-30 678.5,-30 678.5,0 786.5,0 786.5,-30"/>
<text text-anchor="start" x="686.5" y="-18" font-family="Helvetica,sans-Serif" font-size="10.00">src/d/com/d_com_inf</text>
<text text-anchor="middle" x="732.5" y="-7" font-family="Helvetica,sans-Serif" font-size="10.00">_game.cpp</text>
</a>
</g>
</g>
<!-- Node2&#45;&gt;Node5 -->
<g id="edge4" class="edge">
<title>Node2&#45;&gt;Node5</title>
<path fill="none" stroke="#63b8ff" d="M460.05,-73.37C469.03,-70.78 478.56,-68.18 487.5,-66 567.61,-46.46 588.8,-46.94 669.5,-30 672.35,-29.4 675.27,-28.78 678.22,-28.15"/>
<polygon fill="#63b8ff" stroke="#63b8ff" points="459.11,-69.99 450.49,-76.17 461.08,-76.71 459.11,-69.99"/>
</g>
<!-- Node6 -->
<g id="node6" class="node">
<title>Node6</title>
<g id="a_node6"><a xlink:href="d__camera_8cpp.html" target="_top" xlink:title=" ">
<polygon fill="white" stroke="#666666" points="906.5,-24.5 804.5,-24.5 804.5,-5.5 906.5,-5.5 906.5,-24.5"/>
<text text-anchor="middle" x="855.5" y="-12.5" font-family="Helvetica,sans-Serif" font-size="10.00">src/d/d_camera.cpp</text>
</a>
</g>
</g>
<!-- Node2&#45;&gt;Node6 -->
<g id="edge5" class="edge">
<title>Node2&#45;&gt;Node6</title>
<path fill="none" stroke="#63b8ff" d="M458.06,-73.37C467.59,-70.63 477.86,-67.95 487.5,-66 622.58,-38.65 659.73,-53.7 795.5,-30 803.51,-28.6 812.05,-26.8 820.1,-24.96"/>
<polygon fill="#63b8ff" stroke="#63b8ff" points="457.33,-69.94 448.75,-76.15 459.34,-76.65 457.33,-69.94"/>
</g>
<!-- Node7 -->
<g id="node7" class="node">
<title>Node7</title>
<g id="a_node7"><a xlink:href="d__event_8cpp.html" target="_top" xlink:title=" ">
<polygon fill="white" stroke="#666666" points="121,-24.5 0,-24.5 0,-5.5 121,-5.5 121,-24.5"/>
<text text-anchor="middle" x="60.5" y="-12.5" font-family="Helvetica,sans-Serif" font-size="10.00">src/d/event/d_event.cpp</text>
</a>
</g>
</g>
<!-- Node2&#45;&gt;Node7 -->
<g id="edge6" class="edge">
<title>Node2&#45;&gt;Node7</title>
<path fill="none" stroke="#63b8ff" d="M381.81,-73.36C372.59,-70.71 362.74,-68.08 353.5,-66 255.56,-43.93 229.3,-47.85 130.5,-30 121.96,-28.46 112.86,-26.71 104.14,-24.99"/>
<polygon fill="#63b8ff" stroke="#63b8ff" points="380.63,-76.66 391.21,-76.14 382.61,-69.95 380.63,-76.66"/>
</g>
<!-- Node8 -->
<g id="node8" class="node">
<title>Node8</title>
<g id="a_node8"><a xlink:href="d__meter2__draw_8cpp.html" target="_top" xlink:title=" ">
<polygon fill="white" stroke="#666666" points="249.5,-30 139.5,-30 139.5,0 249.5,0 249.5,-30"/>
<text text-anchor="start" x="147.5" y="-18" font-family="Helvetica,sans-Serif" font-size="10.00">src/d/meter/d_meter2</text>
<text text-anchor="middle" x="194.5" y="-7" font-family="Helvetica,sans-Serif" font-size="10.00">_draw.cpp</text>
</a>
</g>
</g>
<!-- Node2&#45;&gt;Node8 -->
<g id="edge7" class="edge">
<title>Node2&#45;&gt;Node8</title>
<path fill="none" stroke="#63b8ff" d="M380.54,-73.21C341.68,-61.26 282.67,-43.11 241.56,-30.47"/>
<polygon fill="#63b8ff" stroke="#63b8ff" points="379.38,-76.52 389.97,-76.11 381.44,-69.83 379.38,-76.52"/>
</g>
<!-- Node9 -->
<g id="node9" class="node">
<title>Node9</title>
<g id="a_node9"><a xlink:href="d__msg__flow_8cpp.html" target="_top" xlink:title=" ">
<polygon fill="white" stroke="#666666" points="401,-24.5 268,-24.5 268,-5.5 401,-5.5 401,-24.5"/>
<text text-anchor="middle" x="334.5" y="-12.5" font-family="Helvetica,sans-Serif" font-size="10.00">src/d/msg/d_msg_flow.cpp</text>
</a>
</g>
</g>
<!-- Node2&#45;&gt;Node9 -->
<g id="edge8" class="edge">
<title>Node2&#45;&gt;Node9</title>
<path fill="none" stroke="#63b8ff" d="M400.94,-69.69C383.81,-55.85 359.55,-36.24 345.58,-24.95"/>
<polygon fill="#63b8ff" stroke="#63b8ff" points="398.45,-72.18 408.43,-75.75 402.85,-66.74 398.45,-72.18"/>
</g>
<!-- Node10 -->
<g id="node10" class="node">
<title>Node10</title>
<g id="a_node10"><a xlink:href="f__op__actor_8cpp.html" target="_top" xlink:title=" ">
<polygon fill="white" stroke="#666666" points="1044,-24.5 925,-24.5 925,-5.5 1044,-5.5 1044,-24.5"/>
<text text-anchor="middle" x="984.5" y="-12.5" font-family="Helvetica,sans-Serif" font-size="10.00">src/f_op/f_op_actor.cpp</text>
</a>
</g>
</g>
<!-- Node2&#45;&gt;Node10 -->
<g id="edge9" class="edge">
<title>Node2&#45;&gt;Node10</title>
<path fill="none" stroke="#63b8ff" d="M457.51,-73.3C467.18,-70.51 477.65,-67.83 487.5,-66 675.19,-31.15 726.53,-57.02 915.5,-30 924.94,-28.65 935.03,-26.82 944.5,-24.94"/>
<polygon fill="#63b8ff" stroke="#63b8ff" points="456.63,-69.91 448.07,-76.15 458.65,-76.61 456.63,-69.91"/>
</g>
<!-- Node12 -->
<g id="node12" class="node">
<title>Node12</title>
<g id="a_node12"><a xlink:href="d__com__inf__game_8h.html" target="_top" xlink:title=" ">
<polygon fill="#fff0f0" stroke="red" points="2318.5,-173 2208.5,-173 2208.5,-143 2318.5,-143 2318.5,-173"/>
<text text-anchor="start" x="2216.5" y="-161" font-family="Helvetica,sans-Serif" font-size="10.00">include/d/com/d_com</text>
<text text-anchor="middle" x="2263.5" y="-150" font-family="Helvetica,sans-Serif" font-size="10.00">_inf_game.h</text>
</a>
</g>
</g>
<!-- Node11&#45;&gt;Node12 -->
<g id="edge11" class="edge">
<title>Node11&#45;&gt;Node12</title>
<path fill="none" stroke="#63b8ff" d="M4107.5,-220.76C3807.82,-210.72 2593.16,-170.04 2318.77,-160.85"/>
<polygon fill="#63b8ff" stroke="#63b8ff" points="4106.98,-224.24 4117.09,-221.08 4107.21,-217.24 4106.98,-224.24"/>
</g>
<!-- Node130 -->
<g id="node41" class="node">
<title>Node130</title>
<g id="a_node41"><a xlink:href="d__bg__s_8cpp.html" target="_top" xlink:title=" ">
<polygon fill="white" stroke="#666666" points="4240.5,-96 4136.5,-96 4136.5,-77 4240.5,-77 4240.5,-96"/>
<text text-anchor="middle" x="4188.5" y="-84" font-family="Helvetica,sans-Serif" font-size="10.00">src/d/bg/d_bg_s.cpp</text>
</a>
</g>
</g>
<!-- Node11&#45;&gt;Node130 -->
<g id="edge54" class="edge">
<title>Node11&#45;&gt;Node130</title>
<path fill="none" stroke="#63b8ff" d="M4164.91,-203.71C4158.08,-187.44 4150.99,-163.58 4156.5,-143 4161.33,-124.95 4173.6,-106.69 4181.47,-96.27"/>
<polygon fill="#63b8ff" stroke="#63b8ff" points="4161.68,-205.06 4169.03,-212.69 4168.04,-202.14 4161.68,-205.06"/>
</g>
<!-- Node188 -->
<g id="node44" class="node">
<title>Node188</title>
<g id="a_node44"><a xlink:href="d__bg__s__acch_8cpp.html" target="_top" xlink:title=" ">
<polygon fill="white" stroke="#666666" points="4297,-167.5 4166,-167.5 4166,-148.5 4297,-148.5 4297,-167.5"/>
<text text-anchor="middle" x="4231.5" y="-155.5" font-family="Helvetica,sans-Serif" font-size="10.00">src/d/bg/d_bg_s_acch.cpp</text>
</a>
</g>
</g>
<!-- Node11&#45;&gt;Node188 -->
<g id="edge55" class="edge">
<title>Node11&#45;&gt;Node188</title>
<path fill="none" stroke="#63b8ff" d="M4189.98,-205.62C4200.87,-193.39 4214.99,-177.54 4223.64,-167.82"/>
<polygon fill="#63b8ff" stroke="#63b8ff" points="4187.47,-203.18 4183.43,-212.97 4192.7,-207.83 4187.47,-203.18"/>
</g>
<!-- Node12&#45;&gt;Node5 -->
<g id="edge51" class="edge">
<title>Node12&#45;&gt;Node5</title>
<path fill="none" stroke="#63b8ff" d="M2197.12,-155.87C1924.77,-151.1 904.43,-131.62 840.5,-107 798.86,-90.96 761.84,-51.73 743.92,-30.39"/>
<polygon fill="#63b8ff" stroke="#63b8ff" points="2196.81,-159.37 2206.87,-156.04 2196.93,-152.37 2196.81,-159.37"/>
</g>
<!-- Node12&#45;&gt;Node6 -->
<g id="edge52" class="edge">
<title>Node12&#45;&gt;Node6</title>
<path fill="none" stroke="#63b8ff" d="M2196.71,-155.86C1920.57,-151 881.29,-131.12 857.5,-107 835.64,-84.84 846.24,-42.9 852.29,-24.74"/>
<polygon fill="#63b8ff" stroke="#63b8ff" points="2196.56,-159.36 2206.62,-156.03 2196.68,-152.36 2196.56,-159.36"/>
</g>
<!-- Node12&#45;&gt;Node10 -->
<g id="edge53" class="edge">
<title>Node12&#45;&gt;Node10</title>
<path fill="none" stroke="#63b8ff" d="M2196.81,-155.86C1922.28,-150.99 892.81,-131.16 869.5,-107 856.85,-93.89 859.51,-81.24 869.5,-66 883.76,-44.24 909.77,-31.9 933.45,-24.93"/>
<polygon fill="#63b8ff" stroke="#63b8ff" points="2196.59,-159.35 2206.65,-156.03 2196.72,-152.35 2196.59,-159.35"/>
</g>
<!-- Node13 -->
<g id="node13" class="node">
<title>Node13</title>
<g id="a_node13"><a xlink:href="d__a__npc_8h.html" target="_top" xlink:title=" ">
<polygon fill="#fff0f0" stroke="red" points="990,-96 879,-96 879,-77 990,-77 990,-96"/>
<text text-anchor="middle" x="934.5" y="-84" font-family="Helvetica,sans-Serif" font-size="10.00">include/d/a/d_a_npc.h</text>
</a>
</g>
</g>
<!-- Node12&#45;&gt;Node13 -->
<g id="edge12" class="edge">
<title>Node12&#45;&gt;Node13</title>
<path fill="none" stroke="#63b8ff" d="M2196.85,-156.61C1970.49,-154.95 1232.27,-146.56 998.5,-107 985.1,-104.73 970.58,-100.46 958.76,-96.5"/>
<polygon fill="#63b8ff" stroke="#63b8ff" points="2196.65,-160.11 2206.68,-156.68 2196.7,-153.11 2196.65,-160.11"/>
</g>
<!-- Node19 -->
<g id="node14" class="node">
<title>Node19</title>
<g id="a_node14"><a xlink:href="d__a__npc__cd_8h.html" target="_top" xlink:title=" ">
<polygon fill="#fff0f0" stroke="red" points="1135,-96 1008,-96 1008,-77 1135,-77 1135,-96"/>
<text text-anchor="middle" x="1071.5" y="-84" font-family="Helvetica,sans-Serif" font-size="10.00">include/d/a/d_a_npc_cd.h</text>
</a>
</g>
</g>
<!-- Node12&#45;&gt;Node19 -->
<g id="edge13" class="edge">
<title>Node12&#45;&gt;Node19</title>
<path fill="none" stroke="#63b8ff" d="M2196.96,-155.76C1989.08,-151.61 1353.49,-136.77 1149.5,-107 1133.34,-104.64 1115.66,-100.37 1101.22,-96.42"/>
<polygon fill="#63b8ff" stroke="#63b8ff" points="2196.71,-159.26 2206.77,-155.95 2196.84,-152.26 2196.71,-159.26"/>
</g>
<!-- Node21 -->
<g id="node15" class="node">
<title>Node21</title>
<g id="a_node15"><a xlink:href="d__a__npc__cd2_8h.html" target="_top" xlink:title=" ">
<polygon fill="#fff0f0" stroke="red" points="1256.5,-30 1152.5,-30 1152.5,0 1256.5,0 1256.5,-30"/>
<text text-anchor="start" x="1160.5" y="-18" font-family="Helvetica,sans-Serif" font-size="10.00">include/d/a/d_a_npc</text>
<text text-anchor="middle" x="1204.5" y="-7" font-family="Helvetica,sans-Serif" font-size="10.00">_cd2.h</text>
</a>
</g>
</g>
<!-- Node12&#45;&gt;Node21 -->
<g id="edge14" class="edge">
<title>Node12&#45;&gt;Node21</title>
<path fill="none" stroke="#63b8ff" d="M2197.04,-156.43C1967.13,-154.12 1217.63,-143.79 1182.5,-107 1162.52,-86.07 1180.96,-50.25 1194.05,-30.37"/>
<polygon fill="#63b8ff" stroke="#63b8ff" points="2196.69,-159.92 2206.72,-156.52 2196.76,-152.92 2196.69,-159.92"/>
</g>
<!-- Node23 -->
<g id="node16" class="node">
<title>Node23</title>
<g id="a_node16"><a xlink:href="d__cc__uty_8h.html" target="_top" xlink:title=" ">
<polygon fill="#fff0f0" stroke="red" points="1436,-96 1317,-96 1317,-77 1436,-77 1436,-96"/>
<text text-anchor="middle" x="1376.5" y="-84" font-family="Helvetica,sans-Serif" font-size="10.00">include/d/cc/d_cc_uty.h</text>
</a>
</g>
</g>
<!-- Node12&#45;&gt;Node23 -->
<g id="edge15" class="edge">
<title>Node12&#45;&gt;Node23</title>
<path fill="none" stroke="#63b8ff" d="M2197.04,-157.83C2056.85,-158.51 1721.03,-154.5 1444.5,-107 1430.46,-104.59 1415.18,-100.36 1402.67,-96.45"/>
<polygon fill="#63b8ff" stroke="#63b8ff" points="2196.9,-161.33 2206.88,-157.77 2196.86,-154.33 2196.9,-161.33"/>
</g>
<!-- Node33 -->
<g id="node17" class="node">
<title>Node33</title>
<g id="a_node17"><a xlink:href="d__bright__check_8h.html" target="_top" xlink:title=" ">
<polygon fill="#fff0f0" stroke="red" points="1547,-101.5 1454,-101.5 1454,-71.5 1547,-71.5 1547,-101.5"/>
<text text-anchor="start" x="1462" y="-89.5" font-family="Helvetica,sans-Serif" font-size="10.00">include/d/d_bright</text>
<text text-anchor="middle" x="1500.5" y="-78.5" font-family="Helvetica,sans-Serif" font-size="10.00">_check.h</text>
</a>
</g>
</g>
<!-- Node12&#45;&gt;Node33 -->
<g id="edge16" class="edge">
<title>Node12&#45;&gt;Node33</title>
<path fill="none" stroke="#63b8ff" d="M2196.7,-154.53C2044.89,-148.55 1677.71,-131.93 1556.5,-107 1550.25,-105.71 1543.74,-103.91 1537.47,-101.91"/>
<polygon fill="#63b8ff" stroke="#63b8ff" points="2196.48,-158.02 2206.61,-154.92 2196.75,-151.03 2196.48,-158.02"/>
</g>
<!-- Node35 -->
<g id="node18" class="node">
<title>Node35</title>
<g id="a_node18"><a xlink:href="d__error__msg_8h.html" target="_top" xlink:title=" ">
<polygon fill="#fff0f0" stroke="red" points="1685.5,-96 1565.5,-96 1565.5,-77 1685.5,-77 1685.5,-96"/>
<text text-anchor="middle" x="1625.5" y="-84" font-family="Helvetica,sans-Serif" font-size="10.00">include/d/d_error_msg.h</text>
</a>
</g>
</g>
<!-- Node12&#45;&gt;Node35 -->
<g id="edge17" class="edge">
<title>Node12&#45;&gt;Node35</title>
<path fill="none" stroke="#63b8ff" d="M2196.88,-155.19C2090.06,-151.4 1874.24,-139.99 1694.5,-107 1680.54,-104.44 1665.33,-100.29 1652.75,-96.48"/>
<polygon fill="#63b8ff" stroke="#63b8ff" points="2196.48,-158.68 2206.6,-155.53 2196.72,-151.69 2196.48,-158.68"/>
</g>
<!-- Node38 -->
<g id="node19" class="node">
<title>Node38</title>
<g id="a_node19"><a xlink:href="d__npc__lib_8h.html" target="_top" xlink:title=" ">
<polygon fill="#fff0f0" stroke="red" points="1299,-96 1192,-96 1192,-77 1299,-77 1299,-96"/>
<text text-anchor="middle" x="1245.5" y="-84" font-family="Helvetica,sans-Serif" font-size="10.00">include/d/d_npc_lib.h</text>
</a>
</g>
</g>
<!-- Node12&#45;&gt;Node38 -->
<g id="edge18" class="edge">
<title>Node12&#45;&gt;Node38</title>
<path fill="none" stroke="#63b8ff" d="M2196.93,-155.7C2009.31,-151.7 1478.72,-137.89 1307.5,-107 1294.51,-104.66 1280.44,-100.38 1269,-96.43"/>
<polygon fill="#63b8ff" stroke="#63b8ff" points="2196.68,-159.2 2206.75,-155.91 2196.82,-152.2 2196.68,-159.2"/>
</g>
<!-- Node40 -->
<g id="node20" class="node">
<title>Node40</title>
<g id="a_node20"><a xlink:href="d__file__select_8h.html" target="_top" xlink:title=" ">
<polygon fill="#fff0f0" stroke="red" points="1799.5,-101.5 1703.5,-101.5 1703.5,-71.5 1799.5,-71.5 1799.5,-101.5"/>
<text text-anchor="start" x="1711.5" y="-89.5" font-family="Helvetica,sans-Serif" font-size="10.00">include/d/file/d_file</text>
<text text-anchor="middle" x="1751.5" y="-78.5" font-family="Helvetica,sans-Serif" font-size="10.00">_select.h</text>
</a>
</g>
</g>
<!-- Node12&#45;&gt;Node40 -->
<g id="edge20" class="edge">
<title>Node12&#45;&gt;Node40</title>
<path fill="none" stroke="#63b8ff" d="M2196.92,-154.27C2107.6,-149.57 1944.48,-137.34 1808.5,-107 1802.48,-105.66 1796.2,-103.9 1790.11,-101.98"/>
<polygon fill="#63b8ff" stroke="#63b8ff" points="2196.55,-157.76 2206.72,-154.77 2196.91,-150.77 2196.55,-157.76"/>
</g>
<!-- Node42 -->
<g id="node21" class="node">
<title>Node42</title>
<g id="a_node21"><a xlink:href="d__msg__object_8h.html" target="_top" xlink:title=" ">
<polygon fill="#fff0f0" stroke="red" points="344.5,-101.5 234.5,-101.5 234.5,-71.5 344.5,-71.5 344.5,-101.5"/>
<text text-anchor="start" x="242.5" y="-89.5" font-family="Helvetica,sans-Serif" font-size="10.00">include/d/msg/d_msg</text>
<text text-anchor="middle" x="289.5" y="-78.5" font-family="Helvetica,sans-Serif" font-size="10.00">_object.h</text>
</a>
</g>
</g>
<!-- Node12&#45;&gt;Node42 -->
<g id="edge21" class="edge">
<title>Node12&#45;&gt;Node42</title>
<path fill="none" stroke="#63b8ff" d="M2196.85,-156.32C1880.52,-152.95 538.16,-136.98 353.5,-107 346.16,-105.81 338.49,-103.99 331.12,-101.94"/>
<polygon fill="#63b8ff" stroke="#63b8ff" points="2196.56,-159.82 2206.59,-156.42 2196.63,-152.82 2196.56,-159.82"/>
</g>
<!-- Node62 -->
<g id="node22" class="node">
<title>Node62</title>
<g id="a_node22"><a xlink:href="d__a__andsw_8h.html" target="_top" xlink:title=" ">
<polygon fill="white" stroke="#666666" points="1927.5,-101.5 1817.5,-101.5 1817.5,-71.5 1927.5,-71.5 1927.5,-101.5"/>
<text text-anchor="start" x="1825.5" y="-89.5" font-family="Helvetica,sans-Serif" font-size="10.00">include/rel/d/a/d_a</text>
<text text-anchor="middle" x="1872.5" y="-78.5" font-family="Helvetica,sans-Serif" font-size="10.00">_andsw/d_a_andsw.h</text>
</a>
</g>
</g>
<!-- Node12&#45;&gt;Node62 -->
<g id="edge26" class="edge">
<title>Node12&#45;&gt;Node62</title>
<path fill="none" stroke="#63b8ff" d="M2196.94,-149.67C2130.49,-141.69 2025.7,-127.3 1936.5,-107 1930.16,-105.56 1923.53,-103.81 1917.04,-101.97"/>
<polygon fill="#63b8ff" stroke="#63b8ff" points="2196.23,-153.11 2206.58,-150.82 2197.06,-146.16 2196.23,-153.11"/>
</g>
<!-- Node63 -->
<g id="node23" class="node">
<title>Node63</title>
<g id="a_node23"><a xlink:href="d__a__cstaF_8h.html" target="_top" xlink:title=" ">
<polygon fill="white" stroke="#666666" points="2049,-101.5 1946,-101.5 1946,-71.5 2049,-71.5 2049,-101.5"/>
<text text-anchor="start" x="1954" y="-89.5" font-family="Helvetica,sans-Serif" font-size="10.00">include/rel/d/a/d_a</text>
<text text-anchor="middle" x="1997.5" y="-78.5" font-family="Helvetica,sans-Serif" font-size="10.00">_cstaF/d_a_cstaF.h</text>
</a>
</g>
</g>
<!-- Node12&#45;&gt;Node63 -->
<g id="edge27" class="edge">
<title>Node12&#45;&gt;Node63</title>
<path fill="none" stroke="#63b8ff" d="M2197.38,-142.11C2157.06,-132.73 2104.59,-119.97 2058.5,-107 2052.93,-105.43 2047.11,-103.7 2041.37,-101.93"/>
<polygon fill="#63b8ff" stroke="#63b8ff" points="2196.4,-145.48 2206.94,-144.33 2197.98,-138.66 2196.4,-145.48"/>
</g>
<!-- Node64 -->
<g id="node24" class="node">
<title>Node64</title>
<g id="a_node24"><a xlink:href="d__a__dmidna_8h.html" target="_top" xlink:title=" ">
<polygon fill="white" stroke="#666666" points="2183.5,-101.5 2067.5,-101.5 2067.5,-71.5 2183.5,-71.5 2183.5,-101.5"/>
<text text-anchor="start" x="2075.5" y="-89.5" font-family="Helvetica,sans-Serif" font-size="10.00">include/rel/d/a/d_a</text>
<text text-anchor="middle" x="2125.5" y="-78.5" font-family="Helvetica,sans-Serif" font-size="10.00">_dmidna/d_a_dmidna.h</text>
</a>
</g>
</g>
<!-- Node12&#45;&gt;Node64 -->
<g id="edge28" class="edge">
<title>Node12&#45;&gt;Node64</title>
<path fill="none" stroke="#63b8ff" d="M2224.69,-137.46C2202.25,-126.15 2174.49,-112.17 2154.06,-101.88"/>
<polygon fill="#63b8ff" stroke="#63b8ff" points="2223.05,-140.55 2233.55,-141.92 2226.2,-134.29 2223.05,-140.55"/>
</g>
<!-- Node65 -->
<g id="node25" class="node">
<title>Node65</title>
<g id="a_node25"><a xlink:href="d__a__dshutter_8h.html" target="_top" xlink:title=" ">
<polygon fill="white" stroke="#666666" points="2325.5,-101.5 2201.5,-101.5 2201.5,-71.5 2325.5,-71.5 2325.5,-101.5"/>
<text text-anchor="start" x="2209.5" y="-89.5" font-family="Helvetica,sans-Serif" font-size="10.00">include/rel/d/a/d_a</text>
<text text-anchor="middle" x="2263.5" y="-78.5" font-family="Helvetica,sans-Serif" font-size="10.00">_dshutter/d_a_dshutter.h</text>
</a>
</g>
</g>
<!-- Node12&#45;&gt;Node65 -->
<g id="edge29" class="edge">
<title>Node12&#45;&gt;Node65</title>
<path fill="none" stroke="#63b8ff" d="M2263.5,-131.26C2263.5,-121.33 2263.5,-110.36 2263.5,-101.88"/>
<polygon fill="#63b8ff" stroke="#63b8ff" points="2260,-131.09 2263.5,-141.09 2267,-131.09 2260,-131.09"/>
</g>
<!-- Node66 -->
<g id="node26" class="node">
<title>Node66</title>
<g id="a_node26"><a xlink:href="d__a__guard__mng_8h.html" target="_top" xlink:title=" ">
<polygon fill="white" stroke="#666666" points="2493,-101.5 2344,-101.5 2344,-71.5 2493,-71.5 2493,-101.5"/>
<text text-anchor="start" x="2352" y="-89.5" font-family="Helvetica,sans-Serif" font-size="10.00">include/rel/d/a/d_a</text>
<text text-anchor="middle" x="2418.5" y="-78.5" font-family="Helvetica,sans-Serif" font-size="10.00">_guard_mng/d_a_guard_mng.h</text>
</a>
</g>
</g>
<!-- Node12&#45;&gt;Node66 -->
<g id="edge30" class="edge">
<title>Node12&#45;&gt;Node66</title>
<path fill="none" stroke="#63b8ff" d="M2306.07,-137.91C2331.45,-126.53 2363.16,-112.31 2386.43,-101.88"/>
<polygon fill="#63b8ff" stroke="#63b8ff" points="2304.69,-134.7 2297,-141.98 2307.55,-141.08 2304.69,-134.7"/>
</g>
<!-- Node67 -->
<g id="node27" class="node">
<title>Node67</title>
<g id="a_node27"><a xlink:href="d__a__hitobj_8h.html" target="_top" xlink:title=" ">
<polygon fill="white" stroke="#666666" points="2611.5,-101.5 2511.5,-101.5 2511.5,-71.5 2611.5,-71.5 2611.5,-101.5"/>
<text text-anchor="start" x="2519.5" y="-89.5" font-family="Helvetica,sans-Serif" font-size="10.00">include/rel/d/a/d_a</text>
<text text-anchor="middle" x="2561.5" y="-78.5" font-family="Helvetica,sans-Serif" font-size="10.00">_hitobj/d_a_hitobj.h</text>
</a>
</g>
</g>
<!-- Node12&#45;&gt;Node67 -->
<g id="edge31" class="edge">
<title>Node12&#45;&gt;Node67</title>
<path fill="none" stroke="#63b8ff" d="M2329.9,-145.03C2377.89,-135.9 2444.09,-122.31 2501.5,-107 2507.21,-105.48 2513.19,-103.73 2519.06,-101.92"/>
<polygon fill="#63b8ff" stroke="#63b8ff" points="2329.39,-141.56 2320.21,-146.86 2330.68,-148.44 2329.39,-141.56"/>
</g>
<!-- Node68 -->
<g id="node28" class="node">
<title>Node68</title>
<g id="a_node28"><a xlink:href="d__a__izumi__gate_8h.html" target="_top" xlink:title=" ">
<polygon fill="white" stroke="#666666" points="2745,-107 2630,-107 2630,-66 2745,-66 2745,-107"/>
<text text-anchor="start" x="2638" y="-95" font-family="Helvetica,sans-Serif" font-size="10.00">include/rel/d/a/d_a</text>
<text text-anchor="start" x="2638" y="-84" font-family="Helvetica,sans-Serif" font-size="10.00">_izumi_gate/d_a_izumi</text>
<text text-anchor="middle" x="2687.5" y="-73" font-family="Helvetica,sans-Serif" font-size="10.00">_gate.h</text>
</a>
</g>
</g>
<!-- Node12&#45;&gt;Node68 -->
<g id="edge32" class="edge">
<title>Node12&#45;&gt;Node68</title>
<path fill="none" stroke="#63b8ff" d="M2330.14,-150.57C2402.23,-142.94 2520.3,-128.48 2620.5,-107 2623.46,-106.37 2626.48,-105.67 2629.53,-104.93"/>
<polygon fill="#63b8ff" stroke="#63b8ff" points="2330.06,-147.06 2320.48,-151.58 2330.79,-154.02 2330.06,-147.06"/>
</g>
<!-- Node69 -->
<g id="node29" class="node">
<title>Node69</title>
<g id="a_node29"><a xlink:href="d__a__set__bgobj_8h.html" target="_top" xlink:title=" ">
<polygon fill="white" stroke="#666666" points="2900,-101.5 2763,-101.5 2763,-71.5 2900,-71.5 2900,-101.5"/>
<text text-anchor="start" x="2771" y="-89.5" font-family="Helvetica,sans-Serif" font-size="10.00">include/rel/d/a/d_a</text>
<text text-anchor="middle" x="2831.5" y="-78.5" font-family="Helvetica,sans-Serif" font-size="10.00">_set_bgobj/d_a_set_bgobj.h</text>
</a>
</g>
</g>
<!-- Node12&#45;&gt;Node69 -->
<g id="edge33" class="edge">
<title>Node12&#45;&gt;Node69</title>
<path fill="none" stroke="#63b8ff" d="M2330.37,-153.22C2425.1,-147.18 2603.51,-133.26 2753.5,-107 2761.47,-105.6 2769.84,-103.84 2778.01,-101.94"/>
<polygon fill="#63b8ff" stroke="#63b8ff" points="2330.24,-149.72 2320.48,-153.84 2330.68,-156.71 2330.24,-149.72"/>
</g>
<!-- Node70 -->
<g id="node30" class="node">
<title>Node70</title>
<g id="a_node30"><a xlink:href="d__a__skip__2D_8h.html" target="_top" xlink:title=" ">
<polygon fill="white" stroke="#666666" points="3042.5,-101.5 2918.5,-101.5 2918.5,-71.5 3042.5,-71.5 3042.5,-101.5"/>
<text text-anchor="start" x="2926.5" y="-89.5" font-family="Helvetica,sans-Serif" font-size="10.00">include/rel/d/a/d_a</text>
<text text-anchor="middle" x="2980.5" y="-78.5" font-family="Helvetica,sans-Serif" font-size="10.00">_skip_2D/d_a_skip_2D.h</text>
</a>
</g>
</g>
<!-- Node12&#45;&gt;Node70 -->
<g id="edge34" class="edge">
<title>Node12&#45;&gt;Node70</title>
<path fill="none" stroke="#63b8ff" d="M2330.01,-155.94C2447.56,-153.15 2699.36,-143.1 2908.5,-107 2916.16,-105.68 2924.18,-103.91 2931.98,-101.96"/>
<polygon fill="#63b8ff" stroke="#63b8ff" points="2330.15,-152.43 2320.23,-156.16 2330.31,-159.43 2330.15,-152.43"/>
</g>
<!-- Node71 -->
<g id="node31" class="node">
<title>Node71</title>
<g id="a_node31"><a xlink:href="d__a__spinner_8h.html" target="_top" xlink:title=" ">
<polygon fill="#fff0f0" stroke="red" points="746.5,-101.5 630.5,-101.5 630.5,-71.5 746.5,-71.5 746.5,-101.5"/>
<text text-anchor="start" x="638.5" y="-89.5" font-family="Helvetica,sans-Serif" font-size="10.00">include/rel/d/a/d_a</text>
<text text-anchor="middle" x="688.5" y="-78.5" font-family="Helvetica,sans-Serif" font-size="10.00">_spinner/d_a_spinner.h</text>
</a>
</g>
</g>
<!-- Node12&#45;&gt;Node71 -->
<g id="edge35" class="edge">
<title>Node12&#45;&gt;Node71</title>
<path fill="none" stroke="#63b8ff" d="M2196.99,-156.83C1944.26,-155.86 1043.55,-149.45 760.5,-107 752.43,-105.79 743.97,-103.99 735.81,-101.97"/>
<polygon fill="#63b8ff" stroke="#63b8ff" points="2196.65,-160.33 2206.66,-156.86 2196.68,-153.33 2196.65,-160.33"/>
</g>
<!-- Node73 -->
<g id="node32" class="node">
<title>Node73</title>
<g id="a_node32"><a xlink:href="d__a__swTime_8h.html" target="_top" xlink:title=" ">
<polygon fill="white" stroke="#666666" points="3182.5,-101.5 3060.5,-101.5 3060.5,-71.5 3182.5,-71.5 3182.5,-101.5"/>
<text text-anchor="start" x="3068.5" y="-89.5" font-family="Helvetica,sans-Serif" font-size="10.00">include/rel/d/a/d_a</text>
<text text-anchor="middle" x="3121.5" y="-78.5" font-family="Helvetica,sans-Serif" font-size="10.00">_swTime/d_a_swTime.h</text>
</a>
</g>
</g>
<!-- Node12&#45;&gt;Node73 -->
<g id="edge38" class="edge">
<title>Node12&#45;&gt;Node73</title>
<path fill="none" stroke="#63b8ff" d="M2330.35,-157.43C2466.88,-157.28 2787.19,-151.7 3051.5,-107 3059.09,-105.72 3067.03,-103.94 3074.74,-101.97"/>
<polygon fill="#63b8ff" stroke="#63b8ff" points="2330.4,-153.93 2320.4,-157.43 2330.4,-160.93 2330.4,-153.93"/>
</g>
<!-- Node74 -->
<g id="node33" class="node">
<title>Node74</title>
<g id="a_node33"><a xlink:href="d__a__vrbox_8h.html" target="_top" xlink:title=" ">
<polygon fill="white" stroke="#666666" points="3300.5,-101.5 3200.5,-101.5 3200.5,-71.5 3300.5,-71.5 3300.5,-101.5"/>
<text text-anchor="start" x="3208.5" y="-89.5" font-family="Helvetica,sans-Serif" font-size="10.00">include/rel/d/a/d_a</text>
<text text-anchor="middle" x="3250.5" y="-78.5" font-family="Helvetica,sans-Serif" font-size="10.00">_vrbox/d_a_vrbox.h</text>
</a>
</g>
</g>
<!-- Node12&#45;&gt;Node74 -->
<g id="edge39" class="edge">
<title>Node12&#45;&gt;Node74</title>
<path fill="none" stroke="#63b8ff" d="M2330.35,-155.7C2514.45,-151.75 3026.19,-138.2 3191.5,-107 3198.07,-105.76 3204.92,-103.98 3211.53,-101.99"/>
<polygon fill="#63b8ff" stroke="#63b8ff" points="2330.4,-152.2 2320.47,-155.91 2330.54,-159.19 2330.4,-152.2"/>
</g>
<!-- Node75 -->
<g id="node34" class="node">
<title>Node75</title>
<g id="a_node34"><a xlink:href="d__a__e__db__leaf_8h.html" target="_top" xlink:title=" ">
<polygon fill="white" stroke="#666666" points="3438,-107 3319,-107 3319,-66 3438,-66 3438,-107"/>
<text text-anchor="start" x="3327" y="-95" font-family="Helvetica,sans-Serif" font-size="10.00">include/rel/d/a/e/d</text>
<text text-anchor="start" x="3327" y="-84" font-family="Helvetica,sans-Serif" font-size="10.00">_a_e_db_leaf/d_a_e_db</text>
<text text-anchor="middle" x="3378.5" y="-73" font-family="Helvetica,sans-Serif" font-size="10.00">_leaf.h</text>
</a>
</g>
</g>
<!-- Node12&#45;&gt;Node75 -->
<g id="edge40" class="edge">
<title>Node12&#45;&gt;Node75</title>
<path fill="none" stroke="#63b8ff" d="M2330.37,-155.79C2530.06,-151.87 3119.82,-137.92 3309.5,-107 3312.57,-106.5 3315.7,-105.91 3318.85,-105.26"/>
<polygon fill="#63b8ff" stroke="#63b8ff" points="2330.36,-152.29 2320.42,-155.99 2330.49,-159.29 2330.36,-152.29"/>
</g>
<!-- Node76 -->
<g id="node35" class="node">
<title>Node76</title>
<g id="a_node35"><a xlink:href="d__a__kytag02_8h.html" target="_top" xlink:title=" ">
<polygon fill="white" stroke="#666666" points="3596.5,-101.5 3456.5,-101.5 3456.5,-71.5 3596.5,-71.5 3596.5,-101.5"/>
<text text-anchor="start" x="3464.5" y="-89.5" font-family="Helvetica,sans-Serif" font-size="10.00">include/rel/d/a/kytag</text>
<text text-anchor="middle" x="3526.5" y="-78.5" font-family="Helvetica,sans-Serif" font-size="10.00">/d_a_kytag02/d_a_kytag02.h</text>
</a>
</g>
</g>
<!-- Node12&#45;&gt;Node76 -->
<g id="edge41" class="edge">
<title>Node12&#45;&gt;Node76</title>
<path fill="none" stroke="#63b8ff" d="M2330.43,-155.9C2547.2,-152.08 3228.53,-137.86 3446.5,-107 3455.28,-105.76 3464.49,-103.97 3473.42,-101.98"/>
<polygon fill="#63b8ff" stroke="#63b8ff" points="2330.4,-152.4 2320.46,-156.08 2330.52,-159.4 2330.4,-152.4"/>
</g>
<!-- Node77 -->
<g id="node36" class="node">
<title>Node77</title>
<g id="a_node36"><a xlink:href="d__a__obj__bombf_8h.html" target="_top" xlink:title=" ">
<polygon fill="white" stroke="#666666" points="3736.5,-107 3614.5,-107 3614.5,-66 3736.5,-66 3736.5,-107"/>
<text text-anchor="start" x="3622.5" y="-95" font-family="Helvetica,sans-Serif" font-size="10.00">include/rel/d/a/obj</text>
<text text-anchor="start" x="3622.5" y="-84" font-family="Helvetica,sans-Serif" font-size="10.00">/d_a_obj_bombf/d_a_obj</text>
<text text-anchor="middle" x="3675.5" y="-73" font-family="Helvetica,sans-Serif" font-size="10.00">_bombf.h</text>
</a>
</g>
</g>
<!-- Node12&#45;&gt;Node77 -->
<g id="edge42" class="edge">
<title>Node12&#45;&gt;Node77</title>
<path fill="none" stroke="#63b8ff" d="M2330.17,-156.58C2565.36,-154.78 3355.59,-145.91 3605.5,-107 3608.37,-106.55 3611.28,-106.03 3614.22,-105.45"/>
<polygon fill="#63b8ff" stroke="#63b8ff" points="2330.22,-153.08 2320.25,-156.65 2330.28,-160.08 2330.22,-153.08"/>
</g>
<!-- Node78 -->
<g id="node37" class="node">
<title>Node78</title>
<g id="a_node37"><a xlink:href="d__a__obj__carry_8h.html" target="_top" xlink:title=" ">
<polygon fill="#fff0f0" stroke="red" points="612.5,-107 496.5,-107 496.5,-66 612.5,-66 612.5,-107"/>
<text text-anchor="start" x="504.5" y="-95" font-family="Helvetica,sans-Serif" font-size="10.00">include/rel/d/a/obj</text>
<text text-anchor="start" x="504.5" y="-84" font-family="Helvetica,sans-Serif" font-size="10.00">/d_a_obj_carry/d_a_obj</text>
<text text-anchor="middle" x="554.5" y="-73" font-family="Helvetica,sans-Serif" font-size="10.00">_carry.h</text>
</a>
</g>
</g>
<!-- Node12&#45;&gt;Node78 -->
<g id="edge43" class="edge">
<title>Node12&#45;&gt;Node78</title>
<path fill="none" stroke="#63b8ff" d="M2196.64,-155.96C1908.28,-151.35 778.57,-131.84 621.5,-107 618.63,-106.55 615.71,-106.01 612.77,-105.4"/>
<polygon fill="#63b8ff" stroke="#63b8ff" points="2196.57,-159.46 2206.63,-156.12 2196.68,-152.46 2196.57,-159.46"/>
</g>
<!-- Node81 -->
<g id="node38" class="node">
<title>Node81</title>
<g id="a_node38"><a xlink:href="d__a__obj__cboard_8h.html" target="_top" xlink:title=" ">
<polygon fill="white" stroke="#666666" points="3862,-107 3755,-107 3755,-66 3862,-66 3862,-107"/>
<text text-anchor="start" x="3763" y="-95" font-family="Helvetica,sans-Serif" font-size="10.00">include/rel/d/a/obj</text>
<text text-anchor="start" x="3763" y="-84" font-family="Helvetica,sans-Serif" font-size="10.00">/d_a_obj_cboard/d_a</text>
<text text-anchor="middle" x="3808.5" y="-73" font-family="Helvetica,sans-Serif" font-size="10.00">_obj_cboard.h</text>
</a>
</g>
</g>
<!-- Node12&#45;&gt;Node81 -->
<g id="edge45" class="edge">
<title>Node12&#45;&gt;Node81</title>
<path fill="none" stroke="#63b8ff" d="M2330.35,-157.1C2581.39,-157.13 3467.65,-153.82 3745.5,-107 3748.55,-106.49 3751.65,-105.86 3754.77,-105.16"/>
<polygon fill="#63b8ff" stroke="#63b8ff" points="2330.39,-153.6 2320.39,-157.1 2330.39,-160.6 2330.39,-153.6"/>
</g>
<!-- Node82 -->
<g id="node39" class="node">
<title>Node82</title>
<g id="a_node39"><a xlink:href="d__a__obj__cowdoor_8h.html" target="_top" xlink:title=" ">
<polygon fill="white" stroke="#666666" points="3994.5,-107 3880.5,-107 3880.5,-66 3994.5,-66 3994.5,-107"/>
<text text-anchor="start" x="3888.5" y="-95" font-family="Helvetica,sans-Serif" font-size="10.00">include/rel/d/a/obj</text>
<text text-anchor="start" x="3888.5" y="-84" font-family="Helvetica,sans-Serif" font-size="10.00">/d_a_obj_cowdoor/d_a</text>
<text text-anchor="middle" x="3937.5" y="-73" font-family="Helvetica,sans-Serif" font-size="10.00">_obj_cowdoor.h</text>
</a>
</g>
</g>
<!-- Node12&#45;&gt;Node82 -->
<g id="edge46" class="edge">
<title>Node12&#45;&gt;Node82</title>
<path fill="none" stroke="#63b8ff" d="M2330.2,-157.16C2594.23,-157.45 3566.59,-155.16 3870.5,-107 3873.73,-106.49 3877.03,-105.87 3880.33,-105.17"/>
<polygon fill="#63b8ff" stroke="#63b8ff" points="2330.42,-153.66 2320.41,-157.15 2330.41,-160.66 2330.42,-153.66"/>
</g>
<!-- Node83 -->
<g id="node40" class="node">
<title>Node83</title>
<g id="a_node40"><a xlink:href="d__a__obj__digholl_8h.html" target="_top" xlink:title=" ">
<polygon fill="white" stroke="#666666" points="4118,-107 4013,-107 4013,-66 4118,-66 4118,-107"/>
<text text-anchor="start" x="4021" y="-95" font-family="Helvetica,sans-Serif" font-size="10.00">include/rel/d/a/obj</text>
<text text-anchor="start" x="4021" y="-84" font-family="Helvetica,sans-Serif" font-size="10.00">/d_a_obj_digholl/d_a</text>
<text text-anchor="middle" x="4065.5" y="-73" font-family="Helvetica,sans-Serif" font-size="10.00">_obj_digholl.h</text>
</a>
</g>
</g>
<!-- Node12&#45;&gt;Node83 -->
<g id="edge47" class="edge">
<title>Node12&#45;&gt;Node83</title>
<path fill="none" stroke="#63b8ff" d="M2330.41,-156.17C2629.51,-152.3 3836.6,-135.09 4003.5,-107 4006.5,-106.49 4009.56,-105.88 4012.64,-105.18"/>
<polygon fill="#63b8ff" stroke="#63b8ff" points="2330.38,-152.67 2320.43,-156.3 2330.47,-159.67 2330.38,-152.67"/>
</g>
<!-- Node12&#45;&gt;Node130 -->
<g id="edge48" class="edge">
<title>Node12&#45;&gt;Node130</title>
<path fill="none" stroke="#63b8ff" d="M2330.04,-156.31C2641.39,-152.93 3946.82,-137.06 4126.5,-107 4139.63,-104.8 4153.83,-100.49 4165.32,-96.47"/>
<polygon fill="#63b8ff" stroke="#63b8ff" points="2330.43,-152.8 2320.47,-156.41 2330.51,-159.8 2330.43,-152.8"/>
</g>
<!-- Node131 -->
<g id="node42" class="node">
<title>Node131</title>
<g id="a_node42"><a xlink:href="d__bg__s__movebg__actor_8cpp.html" target="_top" xlink:title=" ">
<polygon fill="white" stroke="#666666" points="4384.5,-101.5 4258.5,-101.5 4258.5,-71.5 4384.5,-71.5 4384.5,-101.5"/>
<text text-anchor="start" x="4266.5" y="-89.5" font-family="Helvetica,sans-Serif" font-size="10.00">src/d/bg/d_bg_s_movebg</text>
<text text-anchor="middle" x="4321.5" y="-78.5" font-family="Helvetica,sans-Serif" font-size="10.00">_actor.cpp</text>
</a>
</g>
</g>
<!-- Node12&#45;&gt;Node131 -->
<g id="edge49" class="edge">
<title>Node12&#45;&gt;Node131</title>
<path fill="none" stroke="#63b8ff" d="M2330.1,-156.27C2653.96,-152.59 4056.5,-135.15 4249.5,-107 4257.7,-105.8 4266.3,-103.99 4274.59,-101.93"/>
<polygon fill="#63b8ff" stroke="#63b8ff" points="2330.07,-152.77 2320.11,-156.38 2330.15,-159.77 2330.07,-152.77"/>
</g>
<!-- Node132 -->
<g id="node43" class="node">
<title>Node132</title>
<g id="a_node43"><a xlink:href="d__bg__w_8cpp.html" target="_top" xlink:title=" ">
<polygon fill="white" stroke="#666666" points="4510,-96 4403,-96 4403,-77 4510,-77 4510,-96"/>
<text text-anchor="middle" x="4456.5" y="-84" font-family="Helvetica,sans-Serif" font-size="10.00">src/d/bg/d_bg_w.cpp</text>
</a>
</g>
</g>
<!-- Node12&#45;&gt;Node132 -->
<g id="edge50" class="edge">
<title>Node12&#45;&gt;Node132</title>
<path fill="none" stroke="#63b8ff" d="M2330.02,-156.53C2667.89,-154.01 4186.06,-140.86 4393.5,-107 4406.83,-104.82 4421.26,-100.51 4432.94,-96.49"/>
<polygon fill="#63b8ff" stroke="#63b8ff" points="2330.45,-153.03 2320.48,-156.6 2330.5,-160.03 2330.45,-153.03"/>
</g>
<!-- Node38&#45;&gt;Node21 -->
<g id="edge19" class="edge">
<title>Node38&#45;&gt;Node21</title>
<path fill="none" stroke="#63b8ff" d="M1234.49,-66.83C1227.71,-55.34 1219.16,-40.84 1212.92,-30.27"/>
<polygon fill="#63b8ff" stroke="#63b8ff" points="1231.44,-68.56 1239.54,-75.39 1237.47,-65 1231.44,-68.56"/>
</g>
<!-- Node42&#45;&gt;Node3 -->
<g id="edge22" class="edge">
<title>Node42&#45;&gt;Node3</title>
<path fill="none" stroke="#63b8ff" d="M338.39,-67.03C374.36,-53.45 421.69,-35.57 449.73,-24.98"/>
<polygon fill="#63b8ff" stroke="#63b8ff" points="337.16,-63.76 329.04,-70.56 339.63,-70.31 337.16,-63.76"/>
</g>
<!-- Node42&#45;&gt;Node7 -->
<g id="edge23" class="edge">
<title>Node42&#45;&gt;Node7</title>
<path fill="none" stroke="#63b8ff" d="M230.96,-67.73C185.9,-54.06 125.49,-35.73 90.01,-24.96"/>
<polygon fill="#63b8ff" stroke="#63b8ff" points="229.74,-71.02 240.32,-70.58 231.77,-64.32 229.74,-71.02"/>
</g>
<!-- Node42&#45;&gt;Node8 -->
<g id="edge24" class="edge">
<title>Node42&#45;&gt;Node8</title>
<path fill="none" stroke="#63b8ff" d="M260.88,-64.56C245.79,-53.52 227.66,-40.26 214.16,-30.38"/>
<polygon fill="#63b8ff" stroke="#63b8ff" points="258.46,-67.13 268.59,-70.21 262.59,-61.48 258.46,-67.13"/>
</g>
<!-- Node42&#45;&gt;Node9 -->
<g id="edge25" class="edge">
<title>Node42&#45;&gt;Node9</title>
<path fill="none" stroke="#63b8ff" d="M305.05,-61.49C313.3,-48.74 322.94,-33.86 328.88,-24.68"/>
<polygon fill="#63b8ff" stroke="#63b8ff" points="302.14,-59.53 299.65,-69.83 308.02,-63.34 302.14,-59.53"/>
</g>
<!-- Node71&#45;&gt;Node3 -->
<g id="edge36" class="edge">
<title>Node71&#45;&gt;Node3</title>
<path fill="none" stroke="#63b8ff" d="M633,-67.56C590.75,-53.9 534.38,-35.68 501.21,-24.96"/>
<polygon fill="#63b8ff" stroke="#63b8ff" points="631.66,-70.8 642.25,-70.55 633.81,-64.14 631.66,-70.8"/>
</g>
<!-- Node71&#45;&gt;Node4 -->
<g id="edge37" class="edge">
<title>Node71&#45;&gt;Node4</title>
<path fill="none" stroke="#63b8ff" d="M662.33,-64.1C646.1,-50.83 626.12,-34.49 614.11,-24.68"/>
<polygon fill="#63b8ff" stroke="#63b8ff" points="659.76,-66.52 669.72,-70.14 664.19,-61.1 659.76,-66.52"/>
</g>
<!-- Node78&#45;&gt;Node3 -->
<g id="edge44" class="edge">
<title>Node78&#45;&gt;Node3</title>
<path fill="none" stroke="#63b8ff" d="M523.08,-58.54C509.13,-46.57 493.67,-33.3 483.78,-24.82"/>
<polygon fill="#63b8ff" stroke="#63b8ff" points="520.49,-60.93 530.36,-64.78 525.05,-55.62 520.49,-60.93"/>
</g>
<!-- Node189&#45;&gt;Node130 -->
<g id="edge59" class="edge">
<title>Node189&#45;&gt;Node130</title>
<path fill="none" stroke="#63b8ff" d="M4337.31,-144.02C4300.75,-130.13 4243.76,-108.49 4211.96,-96.41"/>
<polygon fill="#63b8ff" stroke="#63b8ff" points="4335.94,-147.24 4346.54,-147.52 4338.43,-140.7 4335.94,-147.24"/>
</g>
<!-- Node189&#45;&gt;Node131 -->
<g id="edge60" class="edge">
<title>Node189&#45;&gt;Node131</title>
<path fill="none" stroke="#63b8ff" d="M4358.58,-139.04C4350.23,-127.44 4339.53,-112.56 4331.77,-101.77"/>
<polygon fill="#63b8ff" stroke="#63b8ff" points="4355.6,-140.9 4364.28,-146.97 4361.28,-136.81 4355.6,-140.9"/>
</g>
<!-- Node189&#45;&gt;Node132 -->
<g id="edge61" class="edge">
<title>Node189&#45;&gt;Node132</title>
<path fill="none" stroke="#63b8ff" d="M4390.83,-141.19C4407.76,-127.35 4431.74,-107.74 4445.55,-96.45"/>
<polygon fill="#63b8ff" stroke="#63b8ff" points="4388.96,-138.2 4383.44,-147.24 4393.39,-143.62 4388.96,-138.2"/>
</g>
<!-- Node190 -->
<g id="node46" class="node">
<title>Node190</title>
<g id="a_node46"><a xlink:href="d__bg__w__sv_8h.html" target="_top" xlink:title=" ">
<polygon fill="#fff0f0" stroke="red" points="4657,-96 4528,-96 4528,-77 4657,-77 4657,-96"/>
<text text-anchor="middle" x="4592.5" y="-84" font-family="Helvetica,sans-Serif" font-size="10.00">include/d/bg/d_bg_w_sv.h</text>
</a>
</g>
</g>
<!-- Node189&#45;&gt;Node190 -->
<g id="edge57" class="edge">
<title>Node189&#45;&gt;Node190</title>
<path fill="none" stroke="#63b8ff" d="M4410.81,-144.64C4454.86,-130.79 4525.19,-108.67 4564.17,-96.41"/>
<polygon fill="#63b8ff" stroke="#63b8ff" points="4409.87,-141.26 4401.38,-147.6 4411.97,-147.94 4409.87,-141.26"/>
</g>
<!-- Node192 -->
<g id="node47" class="node">
<title>Node192</title>
<g id="a_node47"><a xlink:href="d__a__bg__obj_8h.html" target="_top" xlink:title=" ">
<polygon fill="white" stroke="#666666" points="4785.5,-101.5 4675.5,-101.5 4675.5,-71.5 4785.5,-71.5 4785.5,-101.5"/>
<text text-anchor="start" x="4683.5" y="-89.5" font-family="Helvetica,sans-Serif" font-size="10.00">include/rel/d/a/d_a</text>
<text text-anchor="middle" x="4730.5" y="-78.5" font-family="Helvetica,sans-Serif" font-size="10.00">_bg_obj/d_a_bg_obj.h</text>
</a>
</g>
</g>
<!-- Node189&#45;&gt;Node192 -->
<g id="edge58" class="edge">
<title>Node189&#45;&gt;Node192</title>
<path fill="none" stroke="#63b8ff" d="M4423.15,-145.77C4427.99,-144.8 4432.83,-143.86 4437.5,-143 4538.82,-124.3 4566.09,-130.07 4666.5,-107 4672.84,-105.54 4679.47,-103.79 4685.96,-101.94"/>
<polygon fill="#63b8ff" stroke="#63b8ff" points="4422.5,-142.33 4413.4,-147.77 4423.9,-149.19 4422.5,-142.33"/>
</g>
<!-- Node194 -->
<g id="node49" class="node">
<title>Node194</title>
<g id="a_node49"><a xlink:href="d__bg__w__kcol_8cpp.html" target="_top" xlink:title=" ">
<polygon fill="white" stroke="#666666" points="4576.5,-167.5 4446.5,-167.5 4446.5,-148.5 4576.5,-148.5 4576.5,-167.5"/>
<text text-anchor="middle" x="4511.5" y="-155.5" font-family="Helvetica,sans-Serif" font-size="10.00">src/d/bg/d_bg_w_kcol.cpp</text>
</a>
</g>
</g>
<!-- Node193&#45;&gt;Node194 -->
<g id="edge63" class="edge">
<title>Node193&#45;&gt;Node194</title>
<path fill="none" stroke="#63b8ff" d="M4445.44,-202.58C4463.19,-190.87 4484.56,-176.77 4498.1,-167.84"/>
<polygon fill="#63b8ff" stroke="#63b8ff" points="4443.71,-199.53 4437.29,-207.96 4447.57,-205.38 4443.71,-199.53"/>
</g>
</g>
</svg>
