<?xml version="1.0" encoding="UTF-8" standalone="no"?>
<!DOCTYPE svg PUBLIC "-//W3C//DTD SVG 1.1//EN"
 "http://www.w3.org/Graphics/SVG/1.1/DTD/svg11.dtd">
<!-- Generated by graphviz version 7.0.5 (20221223.1930)
 -->
<!-- Title: include/d/bg/d_bg_s_sph_chk.h Pages: 1 -->
<!--zoomable 423 -->
<svg id="main" version="1.1" xmlns="http://www.w3.org/2000/svg" xmlns:xlink="http://www.w3.org/1999/xlink" xml:space="preserve" onload="init(evt)">
<style type="text/css"><![CDATA[
.edge:hover path { stroke: red; }
.edge:hover polygon { stroke: red; fill: red; }
]]></style>
<script type="text/javascript"><![CDATA[
var edges = document.getElementsByTagName('g');
if (edges && edges.length) {
  for (var i=0;i<edges.length;i++) {
    if (edges[i].id.substr(0,4)=='edge') {
      edges[i].setAttribute('class','edge');
    }
  }
}
]]></script>
        <defs>
                <circle id="rim" cx="0" cy="0" r="7"/>
                <circle id="rim2" cx="0" cy="0" r="3.5"/>
                <g id="zoomPlus">
                        <use xlink:href="#rim" fill="#404040">
                                <set attributeName="fill" to="#808080" begin="zoomplus.mouseover" end="zoomplus.mouseout"/>
                        </use>
                        <path d="M-4,0h8M0,-4v8" fill="none" stroke="white" stroke-width="1.5" pointer-events="none"/>
                </g>
                <g id="zoomMin">
                        <use xlink:href="#rim" fill="#404040">
                                <set attributeName="fill" to="#808080" begin="zoomminus.mouseover" end="zoomminus.mouseout"/>
                        </use>
                        <path d="M-4,0h8" fill="none" stroke="white" stroke-width="1.5" pointer-events="none"/>
                </g>
                <g id="dirArrow">
                        <path fill="none" stroke="white" stroke-width="1.5" d="M0,-3.0v7 M-2.5,-0.5L0,-3.0L2.5,-0.5"/>
                </g>
               <g id="resetDef">
                       <use xlink:href="#rim2" fill="#404040">
                               <set attributeName="fill" to="#808080" begin="reset.mouseover" end="reset.mouseout"/>
                       </use>
               </g>
        </defs>

<script type="text/javascript">
var viewWidth = 788;
var viewHeight = 423;
var sectionId = 'dynsection-0';
</script>
<script xlink:href="svgpan.js"/>
<svg id="graph" class="graph">
<g id="viewport">
<title>include/d/bg/d_bg_s_sph_chk.h</title>
<!-- Node1 -->
<g id="node1" class="node">
<title>Node1</title>
<g id="a_node1"><a xlink:title=" ">
<polygon fill="#999999" stroke="#666666" points="619,-415 515,-415 515,-385 619,-385 619,-415"/>
<text text-anchor="start" x="523" y="-403" font-family="Helvetica,sans-Serif" font-size="10.00">include/d/bg/d_bg_s</text>
<text text-anchor="middle" x="567" y="-392" font-family="Helvetica,sans-Serif" font-size="10.00">_sph_chk.h</text>
</a>
</g>
</g>
<!-- Node2 -->
<g id="node2" class="node">
<title>Node2</title>
<g id="a_node2"><a xlink:href="c__bg__s__poly__info_8h.html" target="_top" xlink:title=" ">
<polygon fill="white" stroke="#666666" points="750,-349 634,-349 634,-319 750,-319 750,-349"/>
<text text-anchor="start" x="642" y="-337" font-family="Helvetica,sans-Serif" font-size="10.00">SSystem/SComponent</text>
<text text-anchor="middle" x="692" y="-326" font-family="Helvetica,sans-Serif" font-size="10.00">/c_bg_s_poly_info.h</text>
</a>
</g>
</g>
<!-- Node1&#45;&gt;Node2 -->
<g id="edge1" class="edge">
<title>Node1&#45;&gt;Node2</title>
<path fill="none" stroke="#63b8ff" d="M595.05,-384.64C612.42,-375.74 634.95,-364.21 653.92,-354.49"/>
<polygon fill="#63b8ff" stroke="#63b8ff" points="655.39,-357.68 662.69,-350 652.2,-351.45 655.39,-357.68"/>
</g>
<!-- Node3 -->
<g id="node3" class="node">
<title>Node3</title>
<g id="a_node3"><a xlink:href="types_8h.html" target="_top" xlink:title=" ">
<polygon fill="white" stroke="#666666" points="505.5,-90.5 424.5,-90.5 424.5,-71.5 505.5,-71.5 505.5,-90.5"/>
<text text-anchor="middle" x="465" y="-78.5" font-family="Helvetica,sans-Serif" font-size="10.00">dolphin/types.h</text>
</a>
</g>
</g>
<!-- Node1&#45;&gt;Node3 -->
<g id="edge34" class="edge">
<title>Node1&#45;&gt;Node3</title>
<path fill="none" stroke="#63b8ff" d="M619.15,-391.56C669.11,-383.39 739.67,-368.76 759,-349 784.56,-322.88 778,-305.54 778,-269 778,-269 778,-269 778,-201 778,-145.86 606.16,-107.1 517.13,-90.72"/>
<polygon fill="#63b8ff" stroke="#63b8ff" points="517.87,-87.3 507.41,-88.96 516.63,-94.19 517.87,-87.3"/>
</g>
<!-- Node5 -->
<g id="node5" class="node">
<title>Node5</title>
<g id="a_node5"><a xlink:href="c__m3d__g__pla_8h.html" target="_top" xlink:title=" ">
<polygon fill="white" stroke="#666666" points="116,-283 0,-283 0,-253 116,-253 116,-283"/>
<text text-anchor="start" x="8" y="-271" font-family="Helvetica,sans-Serif" font-size="10.00">SSystem/SComponent</text>
<text text-anchor="middle" x="58" y="-260" font-family="Helvetica,sans-Serif" font-size="10.00">/c_m3d_g_pla.h</text>
</a>
</g>
</g>
<!-- Node1&#45;&gt;Node5 -->
<g id="edge4" class="edge">
<title>Node1&#45;&gt;Node5</title>
<path fill="none" stroke="#63b8ff" d="M514.68,-394.67C450.97,-388.5 340.54,-374.96 249,-349 194.31,-333.49 134.3,-306.62 96.42,-288.34"/>
<polygon fill="#63b8ff" stroke="#63b8ff" points="98.23,-285.32 87.7,-284.09 95.16,-291.62 98.23,-285.32"/>
</g>
<!-- Node13 -->
<g id="node13" class="node">
<title>Node13</title>
<g id="a_node13"><a xlink:href="c__m3d__g__sph_8h.html" target="_top" xlink:title=" ">
<polygon fill="white" stroke="#666666" points="374,-349 258,-349 258,-319 374,-319 374,-349"/>
<text text-anchor="start" x="266" y="-337" font-family="Helvetica,sans-Serif" font-size="10.00">SSystem/SComponent</text>
<text text-anchor="middle" x="316" y="-326" font-family="Helvetica,sans-Serif" font-size="10.00">/c_m3d_g_sph.h</text>
</a>
</g>
</g>
<!-- Node1&#45;&gt;Node13 -->
<g id="edge17" class="edge">
<title>Node1&#45;&gt;Node13</title>
<path fill="none" stroke="#63b8ff" d="M514.69,-385.66C476.65,-375.96 424.83,-362.75 383.65,-352.25"/>
<polygon fill="#63b8ff" stroke="#63b8ff" points="384.63,-348.89 374.08,-349.81 382.9,-355.67 384.63,-348.89"/>
</g>
<!-- Node15 -->
<g id="node15" class="node">
<title>Node15</title>
<g id="a_node15"><a xlink:href="d__bg__s__chk_8h.html" target="_top" xlink:title=" ">
<polygon fill="white" stroke="#666666" points="616,-343.5 518,-343.5 518,-324.5 616,-324.5 616,-343.5"/>
<text text-anchor="middle" x="567" y="-331.5" font-family="Helvetica,sans-Serif" font-size="10.00">d/bg/d_bg_s_chk.h</text>
</a>
</g>
</g>
<!-- Node1&#45;&gt;Node15 -->
<g id="edge25" class="edge">
<title>Node1&#45;&gt;Node15</title>
<path fill="none" stroke="#63b8ff" d="M567,-384.8C567,-376.09 567,-364.81 567,-355.18"/>
<polygon fill="#63b8ff" stroke="#63b8ff" points="570.5,-355.36 567,-345.36 563.5,-355.36 570.5,-355.36"/>
</g>
<!-- Node2&#45;&gt;Node3 -->
<g id="edge2" class="edge">
<title>Node2&#45;&gt;Node3</title>
<path fill="none" stroke="#63b8ff" d="M696.46,-318.74C704.06,-291.94 717.11,-232.64 700,-187 688.61,-156.62 679.54,-149.16 652,-132 610.73,-106.28 556.36,-93.66 516.89,-87.55"/>
<polygon fill="#63b8ff" stroke="#63b8ff" points="517.56,-84.11 507.16,-86.14 516.56,-91.04 517.56,-84.11"/>
</g>
<!-- Node4 -->
<g id="node4" class="node">
<title>Node4</title>
<g id="a_node4"><a xlink:href="stddef_8h.html" target="_top" xlink:title=" ">
<polygon fill="white" stroke="#666666" points="533,-30 397,-30 397,0 533,0 533,-30"/>
<text text-anchor="start" x="405" y="-18" font-family="Helvetica,sans-Serif" font-size="10.00">MSL_C/MSL_Common/Src</text>
<text text-anchor="middle" x="465" y="-7" font-family="Helvetica,sans-Serif" font-size="10.00">/stddef.h</text>
</a>
</g>
</g>
<!-- Node3&#45;&gt;Node4 -->
<g id="edge3" class="edge">
<title>Node3&#45;&gt;Node4</title>
<path fill="none" stroke="#63b8ff" d="M465,-71.1C465,-63.41 465,-51.92 465,-41.42"/>
<polygon fill="#63b8ff" stroke="#63b8ff" points="468.5,-41.75 465,-31.75 461.5,-41.75 468.5,-41.75"/>
</g>
<!-- Node5&#45;&gt;Node3 -->
<g id="edge16" class="edge">
<title>Node5&#45;&gt;Node3</title>
<path fill="none" stroke="#63b8ff" d="M46.9,-252.6C40.28,-243.08 32.49,-229.99 29,-217 18.83,-179.21 20.79,-155.61 52,-132 80.28,-110.61 308.22,-92.61 412.85,-85.39"/>
<polygon fill="#63b8ff" stroke="#63b8ff" points="412.83,-88.9 422.57,-84.73 412.35,-81.92 412.83,-88.9"/>
</g>
<!-- Node6 -->
<g id="node6" class="node">
<title>Node6</title>
<g id="a_node6"><a xlink:href="c__xyz_8h.html" target="_top" xlink:title=" ">
<polygon fill="white" stroke="#666666" points="288,-217 172,-217 172,-187 288,-187 288,-217"/>
<text text-anchor="start" x="180" y="-205" font-family="Helvetica,sans-Serif" font-size="10.00">SSystem/SComponent</text>
<text text-anchor="middle" x="230" y="-194" font-family="Helvetica,sans-Serif" font-size="10.00">/c_xyz.h</text>
</a>
</g>
</g>
<!-- Node5&#45;&gt;Node6 -->
<g id="edge5" class="edge">
<title>Node5&#45;&gt;Node6</title>
<path fill="none" stroke="#63b8ff" d="M96.6,-252.64C121.41,-243.41 153.87,-231.33 180.56,-221.39"/>
<polygon fill="#63b8ff" stroke="#63b8ff" points="181.66,-224.72 189.81,-217.95 179.22,-218.16 181.66,-224.72"/>
</g>
<!-- Node12 -->
<g id="node12" class="node">
<title>Node12</title>
<g id="a_node12"><a xlink:href="c__m3d_8h.html" target="_top" xlink:title=" ">
<polygon fill="white" stroke="#666666" points="154,-217 38,-217 38,-187 154,-187 154,-217"/>
<text text-anchor="start" x="46" y="-205" font-family="Helvetica,sans-Serif" font-size="10.00">SSystem/SComponent</text>
<text text-anchor="middle" x="96" y="-194" font-family="Helvetica,sans-Serif" font-size="10.00">/c_m3d.h</text>
</a>
</g>
</g>
<!-- Node5&#45;&gt;Node12 -->
<g id="edge13" class="edge">
<title>Node5&#45;&gt;Node12</title>
<path fill="none" stroke="#63b8ff" d="M66.43,-252.8C70.96,-245.17 76.66,-235.57 81.84,-226.84"/>
<polygon fill="#63b8ff" stroke="#63b8ff" points="84.72,-228.85 86.82,-218.47 78.7,-225.28 84.72,-228.85"/>
</g>
<!-- Node7 -->
<g id="node7" class="node">
<title>Node7</title>
<g id="a_node7"><a xlink:href="math_8h.html" target="_top" xlink:title=" ">
<polygon fill="white" stroke="#666666" points="143,-151 61,-151 61,-132 143,-132 143,-151"/>
<text text-anchor="middle" x="102" y="-139" font-family="Helvetica,sans-Serif" font-size="10.00">MSL_C/math.h</text>
</a>
</g>
</g>
<!-- Node6&#45;&gt;Node7 -->
<g id="edge6" class="edge">
<title>Node6&#45;&gt;Node7</title>
<path fill="none" stroke="#63b8ff" d="M198.36,-186.54C178,-177.23 151.7,-165.22 131.73,-156.09"/>
<polygon fill="#63b8ff" stroke="#63b8ff" points="133.28,-152.95 122.73,-151.98 130.37,-159.32 133.28,-152.95"/>
</g>
<!-- Node10 -->
<g id="node10" class="node">
<title>Node10</title>
<g id="a_node10"><a xlink:href="vec_8h.html" target="_top" xlink:title=" ">
<polygon fill="white" stroke="#666666" points="474,-151 382,-151 382,-132 474,-132 474,-151"/>
<text text-anchor="middle" x="428" y="-139" font-family="Helvetica,sans-Serif" font-size="10.00">dolphin/mtx/vec.h</text>
</a>
</g>
</g>
<!-- Node6&#45;&gt;Node10 -->
<g id="edge9" class="edge">
<title>Node6&#45;&gt;Node10</title>
<path fill="none" stroke="#63b8ff" d="M278.94,-186.54C312.09,-176.75 355.4,-163.95 386.79,-154.68"/>
<polygon fill="#63b8ff" stroke="#63b8ff" points="387.72,-158.05 396.32,-151.86 385.73,-151.34 387.72,-158.05"/>
</g>
<!-- Node11 -->
<g id="node11" class="node">
<title>Node11</title>
<g id="a_node11"><a xlink:href="global_8h.html" target="_top" xlink:title=" ">
<polygon fill="white" stroke="#666666" points="282,-151 232,-151 232,-132 282,-132 282,-151"/>
<text text-anchor="middle" x="257" y="-139" font-family="Helvetica,sans-Serif" font-size="10.00">global.h</text>
</a>
</g>
</g>
<!-- Node6&#45;&gt;Node11 -->
<g id="edge11" class="edge">
<title>Node6&#45;&gt;Node11</title>
<path fill="none" stroke="#63b8ff" d="M236.67,-186.54C240.16,-179 244.46,-169.67 248.21,-161.55"/>
<polygon fill="#63b8ff" stroke="#63b8ff" points="251.35,-163.1 252.36,-152.55 244.99,-160.16 251.35,-163.1"/>
</g>
<!-- Node8 -->
<g id="node8" class="node">
<title>Node8</title>
<g id="a_node8"><a xlink:href="float_8h.html" target="_top" xlink:title=" ">
<polygon fill="white" stroke="#666666" points="170,-96 34,-96 34,-66 170,-66 170,-96"/>
<text text-anchor="start" x="42" y="-84" font-family="Helvetica,sans-Serif" font-size="10.00">MSL_C/MSL_Common/Src</text>
<text text-anchor="middle" x="102" y="-73" font-family="Helvetica,sans-Serif" font-size="10.00">/float.h</text>
</a>
</g>
</g>
<!-- Node7&#45;&gt;Node8 -->
<g id="edge7" class="edge">
<title>Node7&#45;&gt;Node8</title>
<path fill="none" stroke="#63b8ff" d="M102,-131.87C102,-125.4 102,-116.2 102,-107.45"/>
<polygon fill="#63b8ff" stroke="#63b8ff" points="105.5,-107.63 102,-97.63 98.5,-107.63 105.5,-107.63"/>
</g>
<!-- Node9 -->
<g id="node9" class="node">
<title>Node9</title>
<g id="a_node9"><a xlink:href="fdlibm_8h.html" target="_top" xlink:title=" ">
<polygon fill="white" stroke="#666666" points="127,-24.5 77,-24.5 77,-5.5 127,-5.5 127,-24.5"/>
<text text-anchor="middle" x="102" y="-12.5" font-family="Helvetica,sans-Serif" font-size="10.00">fdlibm.h</text>
</a>
</g>
</g>
<!-- Node8&#45;&gt;Node9 -->
<g id="edge8" class="edge">
<title>Node8&#45;&gt;Node9</title>
<path fill="none" stroke="#63b8ff" d="M102,-65.8C102,-57.09 102,-45.81 102,-36.18"/>
<polygon fill="#63b8ff" stroke="#63b8ff" points="105.5,-36.36 102,-26.36 98.5,-36.36 105.5,-36.36"/>
</g>
<!-- Node10&#45;&gt;Node3 -->
<g id="edge10" class="edge">
<title>Node10&#45;&gt;Node3</title>
<path fill="none" stroke="#63b8ff" d="M433.46,-131.87C438.71,-123.57 446.8,-110.78 453.47,-100.22"/>
<polygon fill="#63b8ff" stroke="#63b8ff" points="456.32,-102.27 458.71,-91.95 450.41,-98.53 456.32,-102.27"/>
</g>
<!-- Node11&#45;&gt;Node3 -->
<g id="edge12" class="edge">
<title>Node11&#45;&gt;Node3</title>
<path fill="none" stroke="#63b8ff" d="M282.09,-133.44C316.73,-123.7 379.71,-105.99 421.95,-94.11"/>
<polygon fill="#63b8ff" stroke="#63b8ff" points="422.87,-97.48 431.55,-91.41 420.98,-90.74 422.87,-97.48"/>
</g>
<!-- Node12&#45;&gt;Node3 -->
<g id="edge15" class="edge">
<title>Node12&#45;&gt;Node3</title>
<path fill="none" stroke="#63b8ff" d="M117.55,-186.72C142.1,-171.07 183.88,-146.31 223,-132 286.36,-108.82 363.19,-95.25 413.04,-88.23"/>
<polygon fill="#63b8ff" stroke="#63b8ff" points="413.24,-91.74 422.67,-86.92 412.29,-84.8 413.24,-91.74"/>
</g>
<!-- Node12&#45;&gt;Node7 -->
<g id="edge14" class="edge">
<title>Node12&#45;&gt;Node7</title>
<path fill="none" stroke="#63b8ff" d="M97.48,-186.54C98.23,-179.26 99.15,-170.31 99.96,-162.39"/>
<polygon fill="#63b8ff" stroke="#63b8ff" points="103.42,-162.99 100.96,-152.68 96.45,-162.27 103.42,-162.99"/>
</g>
<!-- Node13&#45;&gt;Node3 -->
<g id="edge24" class="edge">
<title>Node13&#45;&gt;Node3</title>
<path fill="none" stroke="#63b8ff" d="M316.38,-318.64C318.03,-283.11 326.78,-189.78 373,-132 386.48,-115.15 407.24,-103.17 425.63,-95.18"/>
<polygon fill="#63b8ff" stroke="#63b8ff" points="426.76,-98.5 434.71,-91.49 424.12,-92.01 426.76,-98.5"/>
</g>
<!-- Node13&#45;&gt;Node6 -->
<g id="edge23" class="edge">
<title>Node13&#45;&gt;Node6</title>
<path fill="none" stroke="#63b8ff" d="M315.5,-318.55C314.29,-301.57 310.25,-273.16 297,-253 289.34,-241.34 277.99,-231.39 266.8,-223.51"/>
<polygon fill="#63b8ff" stroke="#63b8ff" points="269.06,-220.81 258.79,-218.22 265.2,-226.65 269.06,-220.81"/>
</g>
<!-- Node13&#45;&gt;Node12 -->
<g id="edge18" class="edge">
<title>Node13&#45;&gt;Node12</title>
<path fill="none" stroke="#63b8ff" d="M257.71,-322.04C227.61,-314.45 191.35,-302.18 163,-283 141.1,-268.18 122.39,-244.25 110.35,-226.42"/>
<polygon fill="#63b8ff" stroke="#63b8ff" points="113.59,-224.98 105.2,-218.51 107.72,-228.8 113.59,-224.98"/>
</g>
<!-- Node14 -->
<g id="node14" class="node">
<title>Node14</title>
<g id="a_node14"><a xlink:href="c__m3d__g__cyl_8h.html" target="_top" xlink:title=" ">
<polygon fill="white" stroke="#666666" points="288,-283 172,-283 172,-253 288,-253 288,-283"/>
<text text-anchor="start" x="180" y="-271" font-family="Helvetica,sans-Serif" font-size="10.00">SSystem/SComponent</text>
<text text-anchor="middle" x="230" y="-260" font-family="Helvetica,sans-Serif" font-size="10.00">/c_m3d_g_cyl.h</text>
</a>
</g>
</g>
<!-- Node13&#45;&gt;Node14 -->
<g id="edge19" class="edge">
<title>Node13&#45;&gt;Node14</title>
<path fill="none" stroke="#63b8ff" d="M296.91,-318.8C285.64,-310.4 271.14,-299.62 258.53,-290.23"/>
<polygon fill="#63b8ff" stroke="#63b8ff" points="260.66,-287.45 250.54,-284.29 256.48,-293.07 260.66,-287.45"/>
</g>
<!-- Node14&#45;&gt;Node3 -->
<g id="edge22" class="edge">
<title>Node14&#45;&gt;Node3</title>
<path fill="none" stroke="#63b8ff" d="M254.53,-252.67C268.3,-243.72 285.05,-231.22 297,-217 324.24,-184.59 308.78,-160.59 340,-132 360.4,-113.31 388.66,-101.22 413.15,-93.61"/>
<polygon fill="#63b8ff" stroke="#63b8ff" points="414.02,-97.01 422.64,-90.85 412.06,-90.29 414.02,-97.01"/>
</g>
<!-- Node14&#45;&gt;Node6 -->
<g id="edge21" class="edge">
<title>Node14&#45;&gt;Node6</title>
<path fill="none" stroke="#63b8ff" d="M230,-252.8C230,-245.67 230,-236.82 230,-228.56"/>
<polygon fill="#63b8ff" stroke="#63b8ff" points="233.5,-228.68 230,-218.68 226.5,-228.68 233.5,-228.68"/>
</g>
<!-- Node14&#45;&gt;Node12 -->
<g id="edge20" class="edge">
<title>Node14&#45;&gt;Node12</title>
<path fill="none" stroke="#63b8ff" d="M199.93,-252.64C181.13,-243.66 156.71,-231.99 136.25,-222.23"/>
<polygon fill="#63b8ff" stroke="#63b8ff" points="137.87,-219.12 127.34,-217.97 134.85,-225.44 137.87,-219.12"/>
</g>
<!-- Node15&#45;&gt;Node3 -->
<g id="edge33" class="edge">
<title>Node15&#45;&gt;Node3</title>
<path fill="none" stroke="#63b8ff" d="M584.23,-324.05C624.15,-302.09 717.02,-243.23 683,-187 647.65,-128.57 569.28,-102.01 516.79,-90.4"/>
<polygon fill="#63b8ff" stroke="#63b8ff" points="517.66,-87.01 507.16,-88.39 516.23,-93.86 517.66,-87.01"/>
</g>
<!-- Node16 -->
<g id="node16" class="node">
<title>Node16</title>
<g id="a_node16"><a xlink:href="d__bg__s__grp__pass__chk_8h.html" target="_top" xlink:title=" ">
<polygon fill="white" stroke="#666666" points="583.5,-283 468.5,-283 468.5,-253 583.5,-253 583.5,-283"/>
<text text-anchor="start" x="476.5" y="-271" font-family="Helvetica,sans-Serif" font-size="10.00">d/bg/d_bg_s_grp_pass</text>
<text text-anchor="middle" x="526" y="-260" font-family="Helvetica,sans-Serif" font-size="10.00">_chk.h</text>
</a>
</g>
</g>
<!-- Node15&#45;&gt;Node16 -->
<g id="edge26" class="edge">
<title>Node15&#45;&gt;Node16</title>
<path fill="none" stroke="#63b8ff" d="M561.3,-324.1C556.11,-316 548.21,-303.67 541.2,-292.73"/>
<polygon fill="#63b8ff" stroke="#63b8ff" points="544.28,-291.04 535.93,-284.51 538.38,-294.82 544.28,-291.04"/>
</g>
<!-- Node18 -->
<g id="node18" class="node">
<title>Node18</title>
<g id="a_node18"><a xlink:href="d__bg__s__poly__pass__chk_8h.html" target="_top" xlink:title=" ">
<polygon fill="white" stroke="#666666" points="673.5,-217 554.5,-217 554.5,-187 673.5,-187 673.5,-217"/>
<text text-anchor="start" x="562.5" y="-205" font-family="Helvetica,sans-Serif" font-size="10.00">d/bg/d_bg_s_poly_pass</text>
<text text-anchor="middle" x="614" y="-194" font-family="Helvetica,sans-Serif" font-size="10.00">_chk.h</text>
</a>
</g>
</g>
<!-- Node15&#45;&gt;Node18 -->
<g id="edge31" class="edge">
<title>Node15&#45;&gt;Node18</title>
<path fill="none" stroke="#63b8ff" d="M572.42,-324.07C578.18,-314.28 587.23,-297.97 593,-283 599.84,-265.28 605.21,-244.51 608.82,-228.58"/>
<polygon fill="#63b8ff" stroke="#63b8ff" points="612.21,-229.46 610.9,-218.94 605.36,-227.98 612.21,-229.46"/>
</g>
<!-- Node16&#45;&gt;Node3 -->
<g id="edge30" class="edge">
<title>Node16&#45;&gt;Node3</title>
<path fill="none" stroke="#63b8ff" d="M524.82,-252.68C522.35,-227.45 515.36,-173.77 498,-132 493.3,-120.7 485.95,-109.22 479.37,-100.11"/>
<polygon fill="#63b8ff" stroke="#63b8ff" points="482.2,-98.05 473.38,-92.19 476.62,-102.27 482.2,-98.05"/>
</g>
<!-- Node17 -->
<g id="node17" class="node">
<title>Node17</title>
<g id="a_node17"><a xlink:href="c__bg__s__chk_8h.html" target="_top" xlink:title=" ">
<polygon fill="white" stroke="#666666" points="498,-217 382,-217 382,-187 498,-187 498,-217"/>
<text text-anchor="start" x="390" y="-205" font-family="Helvetica,sans-Serif" font-size="10.00">SSystem/SComponent</text>
<text text-anchor="middle" x="440" y="-194" font-family="Helvetica,sans-Serif" font-size="10.00">/c_bg_s_chk.h</text>
</a>
</g>
</g>
<!-- Node16&#45;&gt;Node17 -->
<g id="edge27" class="edge">
<title>Node16&#45;&gt;Node17</title>
<path fill="none" stroke="#63b8ff" d="M506.91,-252.8C495.64,-244.4 481.14,-233.62 468.53,-224.23"/>
<polygon fill="#63b8ff" stroke="#63b8ff" points="470.66,-221.45 460.54,-218.29 466.48,-227.07 470.66,-221.45"/>
</g>
<!-- Node17&#45;&gt;Node3 -->
<g id="edge28" class="edge">
<title>Node17&#45;&gt;Node3</title>
<path fill="none" stroke="#63b8ff" d="M457.23,-186.73C466.82,-177.63 477.82,-164.96 483,-151 489.18,-134.33 482.76,-114.65 475.94,-100.58"/>
<polygon fill="#63b8ff" stroke="#63b8ff" points="479.14,-99.15 471.32,-92 472.98,-102.47 479.14,-99.15"/>
</g>
<!-- Node17&#45;&gt;Node10 -->
<g id="edge29" class="edge">
<title>Node17&#45;&gt;Node10</title>
<path fill="none" stroke="#63b8ff" d="M437.03,-186.54C435.54,-179.26 433.71,-170.31 432.08,-162.39"/>
<polygon fill="#63b8ff" stroke="#63b8ff" points="435.52,-161.75 430.08,-152.66 428.66,-163.16 435.52,-161.75"/>
</g>
<!-- Node18&#45;&gt;Node3 -->
<g id="edge32" class="edge">
<title>Node18&#45;&gt;Node3</title>
<path fill="none" stroke="#63b8ff" d="M603.94,-186.77C592.9,-171.85 574.06,-148.34 554,-132 536.16,-117.47 513.53,-104.82 495.56,-95.88"/>
<polygon fill="#63b8ff" stroke="#63b8ff" points="497.21,-92.79 486.68,-91.59 494.16,-99.1 497.21,-92.79"/>
</g>
</g>
</svg>
        <g id="navigator" transform="translate(0 0)" fill="#404254">
                <rect fill="#f2f5e9" fill-opacity="0.5" stroke="#606060" stroke-width=".5" x="0" y="0" width="60" height="60"/>
                <use id="zoomplus" xlink:href="#zoomPlus" x="17" y="9" onmousedown="handleZoom(evt,'in')"/>
                <use id="zoomminus" xlink:href="#zoomMin" x="42" y="9" onmousedown="handleZoom(evt,'out')"/>
                <use id="reset" xlink:href="#resetDef" x="30" y="36" onmousedown="handleReset()"/>
                <g id="arrowUp" xlink:href="#dirArrow" transform="translate(30 24)" onmousedown="handlePan(0,-1)">
                  <use xlink:href="#rim" fill="#404040">
                        <set attributeName="fill" to="#808080" begin="arrowUp.mouseover" end="arrowUp.mouseout"/>
                  </use>
                  <path fill="none" stroke="white" stroke-width="1.5" d="M0,-3.0v7 M-2.5,-0.5L0,-3.0L2.5,-0.5"/>
                </g>
                <g id="arrowRight" xlink:href="#dirArrow" transform="rotate(90) translate(36 -43)" onmousedown="handlePan(1,0)">
                  <use xlink:href="#rim" fill="#404040">
                        <set attributeName="fill" to="#808080" begin="arrowRight.mouseover" end="arrowRight.mouseout"/>
                  </use>
                  <path fill="none" stroke="white" stroke-width="1.5" d="M0,-3.0v7 M-2.5,-0.5L0,-3.0L2.5,-0.5"/>
                </g>
                <g id="arrowDown" xlink:href="#dirArrow" transform="rotate(180) translate(-30 -48)" onmousedown="handlePan(0,1)">
                  <use xlink:href="#rim" fill="#404040">
                        <set attributeName="fill" to="#808080" begin="arrowDown.mouseover" end="arrowDown.mouseout"/>
                  </use>
                  <path fill="none" stroke="white" stroke-width="1.5" d="M0,-3.0v7 M-2.5,-0.5L0,-3.0L2.5,-0.5"/>
                </g>
                <g id="arrowLeft" xlink:href="#dirArrow" transform="rotate(270) translate(-36 17)" onmousedown="handlePan(-1,0)">
                  <use xlink:href="#rim" fill="#404040">
                        <set attributeName="fill" to="#808080" begin="arrowLeft.mouseover" end="arrowLeft.mouseout"/>
                  </use>
                  <path fill="none" stroke="white" stroke-width="1.5" d="M0,-3.0v7 M-2.5,-0.5L0,-3.0L2.5,-0.5"/>
                </g>
        </g>
        <svg viewBox="0 0 15 15" width="100%" height="30px" preserveAspectRatio="xMaxYMin meet">
         <g id="arrow_out" transform="scale(0.3 0.3)">
          <a xlink:href="d__bg__s__sph__chk_8h__incl_org.svg" target="_base">
           <rect id="button" ry="5" rx="5" y="6" x="6" height="38" width="38"
                fill="#f2f5e9" fill-opacity="0.5" stroke="#606060" stroke-width="1.0"/>
           <path id="arrow"
             d="M 11.500037,31.436501 C 11.940474,20.09759 22.043105,11.32322 32.158766,21.979434 L 37.068811,17.246167 C 37.068811,17.246167 37.088388,32 37.088388,32 L 22.160133,31.978069 C 22.160133,31.978069 26.997745,27.140456 26.997745,27.140456 C 18.528582,18.264221 13.291696,25.230495 11.500037,31.436501 z"
             style="fill:#404040;"/>
          </a>
         </g>
        </svg>
</svg>
