<?xml version="1.0" encoding="UTF-8" standalone="no"?>
<!DOCTYPE svg PUBLIC "-//W3C//DTD SVG 1.1//EN"
 "http://www.w3.org/Graphics/SVG/1.1/DTD/svg11.dtd">
<!-- Generated by graphviz version 7.0.5 (20221223.1930)
 -->
<!-- Title: include/d/d_camera.h Pages: 1 -->
<svg width="5491pt" height="302pt"
 viewBox="0.00 0.00 5490.92 302.00" xmlns="http://www.w3.org/2000/svg" xmlns:xlink="http://www.w3.org/1999/xlink">
<g id="graph0" class="graph" transform="scale(1 1) rotate(0) translate(4 298)">
<title>include/d/d_camera.h</title>
<!-- Node1 -->
<g id="node1" class="node">
<title>Node1</title>
<g id="a_node1"><a xlink:title=" ">
<polygon fill="#999999" stroke="#666666" points="5340.03,-294 5231.03,-294 5231.03,-275 5340.03,-275 5340.03,-294"/>
<text text-anchor="middle" x="5285.53" y="-282" font-family="Helvetica,sans-Serif" font-size="10.00">include/d/d_camera.h</text>
</a>
</g>
</g>
<!-- Node2 -->
<g id="node2" class="node">
<title>Node2</title>
<g id="a_node2"><a xlink:href="f__op__camera__mng_8h.html" target="_top" xlink:title=" ">
<polygon fill="white" stroke="#666666" points="2952.53,-239 2824.53,-239 2824.53,-209 2952.53,-209 2952.53,-239"/>
<text text-anchor="start" x="2832.53" y="-227" font-family="Helvetica,sans-Serif" font-size="10.00">include/f_op/f_op_camera</text>
<text text-anchor="middle" x="2888.53" y="-216" font-family="Helvetica,sans-Serif" font-size="10.00">_mng.h</text>
</a>
</g>
</g>
<!-- Node1&#45;&gt;Node2 -->
<g id="edge1" class="edge">
<title>Node1&#45;&gt;Node2</title>
<path fill="none" stroke="#63b8ff" d="M5219.18,-281.88C4874.61,-273.47 3292.19,-234.85 2952.76,-226.57"/>
<polygon fill="#63b8ff" stroke="#63b8ff" points="5219.08,-285.38 5229.16,-282.12 5219.25,-278.38 5219.08,-285.38"/>
</g>
<!-- Node49 -->
<g id="node14" class="node">
<title>Node49</title>
<g id="a_node14"><a xlink:href="d__event_8cpp.html" target="_top" xlink:title=" ">
<polygon fill="white" stroke="#666666" points="3940.03,-24.5 3819.03,-24.5 3819.03,-5.5 3940.03,-5.5 3940.03,-24.5"/>
<text text-anchor="middle" x="3879.53" y="-12.5" font-family="Helvetica,sans-Serif" font-size="10.00">src/d/event/d_event.cpp</text>
</a>
</g>
</g>
<!-- Node1&#45;&gt;Node49 -->
<g id="edge54" class="edge">
<title>Node1&#45;&gt;Node49</title>
<path fill="none" stroke="#63b8ff" d="M5219.34,-283.01C4932.71,-280.75 3770.01,-270.04 2815.53,-239 2503.57,-228.85 224.99,-332.83 9.53,-107 -3.05,-93.82 -3.27,-78.97 9.53,-66 44.47,-30.6 3328.12,-17.9 3818.55,-16.2"/>
<polygon fill="#63b8ff" stroke="#63b8ff" points="5219.21,-286.51 5229.24,-283.09 5219.27,-279.51 5219.21,-286.51"/>
</g>
<!-- Node50 -->
<g id="node15" class="node">
<title>Node50</title>
<g id="a_node15"><a xlink:href="d__event__data_8cpp.html" target="_top" xlink:title=" ">
<polygon fill="white" stroke="#666666" points="5126.03,-30 5023.03,-30 5023.03,0 5126.03,0 5126.03,-30"/>
<text text-anchor="start" x="5031.03" y="-18" font-family="Helvetica,sans-Serif" font-size="10.00">src/d/event/d_event</text>
<text text-anchor="middle" x="5074.53" y="-7" font-family="Helvetica,sans-Serif" font-size="10.00">_data.cpp</text>
</a>
</g>
</g>
<!-- Node1&#45;&gt;Node50 -->
<g id="edge55" class="edge">
<title>Node1&#45;&gt;Node50</title>
<path fill="none" stroke="#63b8ff" d="M5313.43,-269.36C5379.01,-234.36 5532.65,-141.09 5466.53,-66 5444.37,-40.83 5227.45,-24.95 5126.15,-18.84"/>
<polygon fill="#63b8ff" stroke="#63b8ff" points="5311.91,-266.2 5304.68,-273.95 5315.16,-272.4 5311.91,-266.2"/>
</g>
<!-- Node112 -->
<g id="node46" class="node">
<title>Node112</title>
<g id="a_node46"><a xlink:href="d__camera_8cpp.html" target="_top" xlink:title=" ">
<polygon fill="white" stroke="#666666" points="5336.53,-96 5234.53,-96 5234.53,-77 5336.53,-77 5336.53,-96"/>
<text text-anchor="middle" x="5285.53" y="-84" font-family="Helvetica,sans-Serif" font-size="10.00">src/d/d_camera.cpp</text>
</a>
</g>
</g>
<!-- Node1&#45;&gt;Node112 -->
<g id="edge53" class="edge">
<title>Node1&#45;&gt;Node112</title>
<path fill="none" stroke="#63b8ff" d="M5285.53,-263.14C5285.53,-221.08 5285.53,-126.09 5285.53,-96.48"/>
<polygon fill="#63b8ff" stroke="#63b8ff" points="5282.03,-263.06 5285.53,-273.06 5289.03,-263.06 5282.03,-263.06"/>
</g>
<!-- Node126 -->
<g id="node47" class="node">
<title>Node126</title>
<g id="a_node47"><a xlink:href="d__event__manager_8cpp.html" target="_top" xlink:title=" ">
<polygon fill="white" stroke="#666666" points="5458.03,-101.5 5355.03,-101.5 5355.03,-71.5 5458.03,-71.5 5458.03,-101.5"/>
<text text-anchor="start" x="5363.03" y="-89.5" font-family="Helvetica,sans-Serif" font-size="10.00">src/d/event/d_event</text>
<text text-anchor="middle" x="5406.53" y="-78.5" font-family="Helvetica,sans-Serif" font-size="10.00">_manager.cpp</text>
</a>
</g>
</g>
<!-- Node1&#45;&gt;Node126 -->
<g id="edge56" class="edge">
<title>Node1&#45;&gt;Node126</title>
<path fill="none" stroke="#63b8ff" d="M5297.08,-264.79C5321.16,-225.78 5376.26,-136.54 5397.73,-101.75"/>
<polygon fill="#63b8ff" stroke="#63b8ff" points="5294.12,-262.93 5291.84,-273.28 5300.07,-266.61 5294.12,-262.93"/>
</g>
<!-- Node3 -->
<g id="node3" class="node">
<title>Node3</title>
<g id="a_node3"><a xlink:href="d__com__inf__game_8h.html" target="_top" xlink:title=" ">
<polygon fill="#fff0f0" stroke="red" points="3072.53,-173 2962.53,-173 2962.53,-143 3072.53,-143 3072.53,-173"/>
<text text-anchor="start" x="2970.53" y="-161" font-family="Helvetica,sans-Serif" font-size="10.00">include/d/com/d_com</text>
<text text-anchor="middle" x="3017.53" y="-150" font-family="Helvetica,sans-Serif" font-size="10.00">_inf_game.h</text>
</a>
</g>
</g>
<!-- Node2&#45;&gt;Node3 -->
<g id="edge2" class="edge">
<title>Node2&#45;&gt;Node3</title>
<path fill="none" stroke="#63b8ff" d="M2927.66,-203.59C2947.31,-193.84 2970.69,-182.24 2988.68,-173.31"/>
<polygon fill="#63b8ff" stroke="#63b8ff" points="2926.24,-200.38 2918.84,-207.96 2929.35,-206.66 2926.24,-200.38"/>
</g>
<!-- Node146 -->
<g id="node48" class="node">
<title>Node146</title>
<g id="a_node48"><a xlink:href="f__op__camera_8h.html" target="_top" xlink:title=" ">
<polygon fill="#fff0f0" stroke="red" points="2675.53,-167.5 2539.53,-167.5 2539.53,-148.5 2675.53,-148.5 2675.53,-167.5"/>
<text text-anchor="middle" x="2607.53" y="-155.5" font-family="Helvetica,sans-Serif" font-size="10.00">include/f_op/f_op_camera.h</text>
</a>
</g>
</g>
<!-- Node2&#45;&gt;Node146 -->
<g id="edge50" class="edge">
<title>Node2&#45;&gt;Node146</title>
<path fill="none" stroke="#63b8ff" d="M2813.94,-206.01C2760.28,-193.79 2690.04,-177.79 2646.88,-167.96"/>
<polygon fill="#63b8ff" stroke="#63b8ff" points="2813.12,-209.41 2823.64,-208.22 2814.67,-202.59 2813.12,-209.41"/>
</g>
<!-- Node147 -->
<g id="node49" class="node">
<title>Node147</title>
<g id="a_node49"><a xlink:href="f__ap__game_8cpp.html" target="_top" xlink:title=" ">
<polygon fill="white" stroke="#666666" points="2815.03,-167.5 2694.03,-167.5 2694.03,-148.5 2815.03,-148.5 2815.03,-167.5"/>
<text text-anchor="middle" x="2754.53" y="-155.5" font-family="Helvetica,sans-Serif" font-size="10.00">src/f_ap/f_ap_game.cpp</text>
</a>
</g>
</g>
<!-- Node2&#45;&gt;Node147 -->
<g id="edge51" class="edge">
<title>Node2&#45;&gt;Node147</title>
<path fill="none" stroke="#63b8ff" d="M2848.22,-203.75C2823.38,-191.88 2792.68,-177.22 2773.35,-167.99"/>
<polygon fill="#63b8ff" stroke="#63b8ff" points="2846.56,-206.83 2857.09,-207.98 2849.58,-200.52 2846.56,-206.83"/>
</g>
<!-- Node148 -->
<g id="node50" class="node">
<title>Node148</title>
<g id="a_node50"><a xlink:href="f__op__camera__mng_8cpp.html" target="_top" xlink:title=" ">
<polygon fill="white" stroke="#666666" points="2944.03,-173 2833.03,-173 2833.03,-143 2944.03,-143 2944.03,-173"/>
<text text-anchor="start" x="2841.03" y="-161" font-family="Helvetica,sans-Serif" font-size="10.00">src/f_op/f_op_camera</text>
<text text-anchor="middle" x="2888.53" y="-150" font-family="Helvetica,sans-Serif" font-size="10.00">_mng.cpp</text>
</a>
</g>
</g>
<!-- Node2&#45;&gt;Node148 -->
<g id="edge52" class="edge">
<title>Node2&#45;&gt;Node148</title>
<path fill="none" stroke="#63b8ff" d="M2888.53,-197.39C2888.53,-189.13 2888.53,-180.28 2888.53,-173.16"/>
<polygon fill="#63b8ff" stroke="#63b8ff" points="2885.03,-197.28 2888.53,-207.28 2892.03,-197.28 2885.03,-197.28"/>
</g>
<!-- Node4 -->
<g id="node4" class="node">
<title>Node4</title>
<g id="a_node4"><a xlink:href="d__a__npc_8h.html" target="_top" xlink:title=" ">
<polygon fill="#fff0f0" stroke="red" points="4674.03,-24.5 4563.03,-24.5 4563.03,-5.5 4674.03,-5.5 4674.03,-24.5"/>
<text text-anchor="middle" x="4618.53" y="-12.5" font-family="Helvetica,sans-Serif" font-size="10.00">include/d/a/d_a_npc.h</text>
</a>
</g>
</g>
<!-- Node3&#45;&gt;Node4 -->
<g id="edge3" class="edge">
<title>Node3&#45;&gt;Node4</title>
<path fill="none" stroke="#63b8ff" d="M3084.26,-157.25C3327.72,-157.76 4159.62,-155.86 4267.53,-107 4290.44,-96.63 4284.28,-77.72 4306.53,-66 4349.98,-43.13 4485.2,-27.79 4562.62,-20.64"/>
<polygon fill="#63b8ff" stroke="#63b8ff" points="3084.3,-153.75 3074.29,-157.23 3084.28,-160.75 3084.3,-153.75"/>
</g>
<!-- Node10 -->
<g id="node5" class="node">
<title>Node10</title>
<g id="a_node5"><a xlink:href="d__cc__uty_8h.html" target="_top" xlink:title=" ">
<polygon fill="#fff0f0" stroke="red" points="4027.03,-96 3908.03,-96 3908.03,-77 4027.03,-77 4027.03,-96"/>
<text text-anchor="middle" x="3967.53" y="-84" font-family="Helvetica,sans-Serif" font-size="10.00">include/d/cc/d_cc_uty.h</text>
</a>
</g>
</g>
<!-- Node3&#45;&gt;Node10 -->
<g id="edge4" class="edge">
<title>Node3&#45;&gt;Node10</title>
<path fill="none" stroke="#63b8ff" d="M3084.25,-157.73C3231.37,-158.36 3594.34,-154.47 3893.53,-107 3908.75,-104.59 3925.37,-100.36 3939,-96.45"/>
<polygon fill="#63b8ff" stroke="#63b8ff" points="3084.31,-154.23 3074.29,-157.68 3084.27,-161.23 3084.31,-154.23"/>
</g>
<!-- Node16 -->
<g id="node6" class="node">
<title>Node16</title>
<g id="a_node6"><a xlink:href="d__item_8h.html" target="_top" xlink:title=" ">
<polygon fill="#fff0f0" stroke="red" points="4140.03,-96 4045.03,-96 4045.03,-77 4140.03,-77 4140.03,-96"/>
<text text-anchor="middle" x="4092.53" y="-84" font-family="Helvetica,sans-Serif" font-size="10.00">include/d/d_item.h</text>
</a>
</g>
</g>
<!-- Node3&#45;&gt;Node16 -->
<g id="edge5" class="edge">
<title>Node3&#45;&gt;Node16</title>
<path fill="none" stroke="#63b8ff" d="M3084.06,-156.16C3279.93,-153.31 3852.25,-142.12 4035.53,-107 4047.55,-104.7 4060.49,-100.43 4071,-96.47"/>
<polygon fill="#63b8ff" stroke="#63b8ff" points="3084.27,-152.66 3074.32,-156.3 3084.37,-159.66 3084.27,-152.66"/>
</g>
<!-- Node21 -->
<g id="node7" class="node">
<title>Node21</title>
<g id="a_node7"><a xlink:href="d__kantera__icon__meter_8h.html" target="_top" xlink:title=" ">
<polygon fill="#fff0f0" stroke="red" points="4259.03,-101.5 4158.03,-101.5 4158.03,-71.5 4259.03,-71.5 4259.03,-101.5"/>
<text text-anchor="start" x="4166.03" y="-89.5" font-family="Helvetica,sans-Serif" font-size="10.00">include/d/d_kantera</text>
<text text-anchor="middle" x="4208.53" y="-78.5" font-family="Helvetica,sans-Serif" font-size="10.00">_icon_meter.h</text>
</a>
</g>
</g>
<!-- Node3&#45;&gt;Node21 -->
<g id="edge6" class="edge">
<title>Node3&#45;&gt;Node21</title>
<path fill="none" stroke="#63b8ff" d="M3084.46,-156.41C3295.05,-154.17 3942.35,-144.35 4148.53,-107 4155.32,-105.77 4162.4,-103.96 4169.22,-101.94"/>
<polygon fill="#63b8ff" stroke="#63b8ff" points="3084.46,-152.91 3074.5,-156.51 3084.54,-159.91 3084.46,-152.91"/>
</g>
<!-- Node24 -->
<g id="node8" class="node">
<title>Node24</title>
<g id="a_node8"><a xlink:href="d__model_8h.html" target="_top" xlink:title=" ">
<polygon fill="#fff0f0" stroke="red" points="4419.03,-96 4316.03,-96 4316.03,-77 4419.03,-77 4419.03,-96"/>
<text text-anchor="middle" x="4367.53" y="-84" font-family="Helvetica,sans-Serif" font-size="10.00">include/d/d_model.h</text>
</a>
</g>
</g>
<!-- Node3&#45;&gt;Node24 -->
<g id="edge7" class="edge">
<title>Node3&#45;&gt;Node24</title>
<path fill="none" stroke="#63b8ff" d="M3084.38,-156.58C3313.18,-154.82 4063.8,-146.12 4301.53,-107 4315.33,-104.73 4330.3,-100.46 4342.49,-96.5"/>
<polygon fill="#63b8ff" stroke="#63b8ff" points="3084.42,-153.08 3074.44,-156.66 3084.47,-160.08 3084.42,-153.08"/>
</g>
<!-- Node26 -->
<g id="node9" class="node">
<title>Node26</title>
<g id="a_node9"><a xlink:href="d__name_8h.html" target="_top" xlink:title=" ">
<polygon fill="#fff0f0" stroke="red" points="4538.03,-96 4437.03,-96 4437.03,-77 4538.03,-77 4538.03,-96"/>
<text text-anchor="middle" x="4487.53" y="-84" font-family="Helvetica,sans-Serif" font-size="10.00">include/d/d_name.h</text>
</a>
</g>
</g>
<!-- Node3&#45;&gt;Node26 -->
<g id="edge8" class="edge">
<title>Node3&#45;&gt;Node26</title>
<path fill="none" stroke="#63b8ff" d="M3084.36,-157.09C3327.53,-157.04 4164.69,-153.43 4427.53,-107 4440.26,-104.75 4454,-100.43 4465.12,-96.43"/>
<polygon fill="#63b8ff" stroke="#63b8ff" points="3084.41,-153.59 3074.41,-157.09 3084.41,-160.59 3084.41,-153.59"/>
</g>
<!-- Node28 -->
<g id="node10" class="node">
<title>Node28</title>
<g id="a_node10"><a xlink:href="d__file__sel__info_8h.html" target="_top" xlink:title=" ">
<polygon fill="#fff0f0" stroke="red" points="4652.53,-101.5 4556.53,-101.5 4556.53,-71.5 4652.53,-71.5 4652.53,-101.5"/>
<text text-anchor="start" x="4564.53" y="-89.5" font-family="Helvetica,sans-Serif" font-size="10.00">include/d/file/d_file</text>
<text text-anchor="middle" x="4604.53" y="-78.5" font-family="Helvetica,sans-Serif" font-size="10.00">_sel_info.h</text>
</a>
</g>
</g>
<!-- Node3&#45;&gt;Node28 -->
<g id="edge9" class="edge">
<title>Node3&#45;&gt;Node28</title>
<path fill="none" stroke="#63b8ff" d="M3083.99,-157.4C3339.61,-158.52 4259.51,-158.79 4546.53,-107 4553.22,-105.79 4560.19,-103.97 4566.88,-101.92"/>
<polygon fill="#63b8ff" stroke="#63b8ff" points="3084.2,-153.9 3074.19,-157.35 3084.17,-160.9 3084.2,-153.9"/>
</g>
<!-- Node31 -->
<g id="node11" class="node">
<title>Node31</title>
<g id="a_node11"><a xlink:href="d__file__sel__warning_8h.html" target="_top" xlink:title=" ">
<polygon fill="#fff0f0" stroke="red" points="4766.53,-101.5 4670.53,-101.5 4670.53,-71.5 4766.53,-71.5 4766.53,-101.5"/>
<text text-anchor="start" x="4678.53" y="-89.5" font-family="Helvetica,sans-Serif" font-size="10.00">include/d/file/d_file</text>
<text text-anchor="middle" x="4718.53" y="-78.5" font-family="Helvetica,sans-Serif" font-size="10.00">_sel_warning.h</text>
</a>
</g>
</g>
<!-- Node3&#45;&gt;Node31 -->
<g id="edge10" class="edge">
<title>Node3&#45;&gt;Node31</title>
<path fill="none" stroke="#63b8ff" d="M3084.08,-156.15C3372.22,-152.31 4504.81,-135.52 4661.53,-107 4668.12,-105.8 4674.97,-103.98 4681.55,-101.93"/>
<polygon fill="#63b8ff" stroke="#63b8ff" points="3084.45,-152.64 3074.5,-156.28 3084.54,-159.64 3084.45,-152.64"/>
</g>
<!-- Node33 -->
<g id="node12" class="node">
<title>Node33</title>
<g id="a_node12"><a xlink:href="d__meter2_8h.html" target="_top" xlink:title=" ">
<polygon fill="#fff0f0" stroke="red" points="4918.53,-96 4784.53,-96 4784.53,-77 4918.53,-77 4918.53,-96"/>
<text text-anchor="middle" x="4851.53" y="-84" font-family="Helvetica,sans-Serif" font-size="10.00">include/d/meter/d_meter2.h</text>
</a>
</g>
</g>
<!-- Node3&#45;&gt;Node33 -->
<g id="edge11" class="edge">
<title>Node3&#45;&gt;Node33</title>
<path fill="none" stroke="#63b8ff" d="M3083.92,-157.09C3362.69,-157.15 4439.66,-154.26 4775.53,-107 4791.45,-104.76 4808.84,-100.44 4822.96,-96.44"/>
<polygon fill="#63b8ff" stroke="#63b8ff" points="3084.31,-153.59 3074.31,-157.08 3084.3,-160.59 3084.31,-153.59"/>
</g>
<!-- Node41 -->
<g id="node13" class="node">
<title>Node41</title>
<g id="a_node13"><a xlink:href="d__msg__object_8h.html" target="_top" xlink:title=" ">
<polygon fill="#fff0f0" stroke="red" points="5046.53,-101.5 4936.53,-101.5 4936.53,-71.5 5046.53,-71.5 5046.53,-101.5"/>
<text text-anchor="start" x="4944.53" y="-89.5" font-family="Helvetica,sans-Serif" font-size="10.00">include/d/msg/d_msg</text>
<text text-anchor="middle" x="4991.53" y="-78.5" font-family="Helvetica,sans-Serif" font-size="10.00">_object.h</text>
</a>
</g>
</g>
<!-- Node3&#45;&gt;Node41 -->
<g id="edge12" class="edge">
<title>Node3&#45;&gt;Node41</title>
<path fill="none" stroke="#63b8ff" d="M3084.18,-156.32C3400.52,-152.95 4742.88,-136.98 4927.53,-107 4934.87,-105.81 4942.54,-103.99 4949.91,-101.94"/>
<polygon fill="#63b8ff" stroke="#63b8ff" points="3084.4,-152.82 3074.44,-156.42 3084.47,-159.82 3084.4,-152.82"/>
</g>
<!-- Node3&#45;&gt;Node49 -->
<g id="edge47" class="edge">
<title>Node3&#45;&gt;Node49</title>
<path fill="none" stroke="#63b8ff" d="M3084.15,-157.61C3273.05,-158.72 3802.31,-157.26 3860.53,-107 3884.6,-86.22 3882.88,-43.54 3880.8,-24.96"/>
<polygon fill="#63b8ff" stroke="#63b8ff" points="3084.27,-154.11 3074.25,-157.55 3084.23,-161.11 3084.27,-154.11"/>
</g>
<!-- Node3&#45;&gt;Node50 -->
<g id="edge48" class="edge">
<title>Node3&#45;&gt;Node50</title>
<path fill="none" stroke="#63b8ff" d="M3084.35,-156.49C3431.72,-153.71 5016.8,-139.28 5055.53,-107 5077.85,-88.4 5078.18,-50.97 5076.4,-30.38"/>
<polygon fill="#63b8ff" stroke="#63b8ff" points="3084.49,-152.99 3074.51,-156.57 3084.54,-159.99 3084.49,-152.99"/>
</g>
<!-- Node57 -->
<g id="node16" class="node">
<title>Node57</title>
<g id="a_node16"><a xlink:href="d__s__logo_8h.html" target="_top" xlink:title=" ">
<polygon fill="#fff0f0" stroke="red" points="5216.03,-96 5103.03,-96 5103.03,-77 5216.03,-77 5216.03,-96"/>
<text text-anchor="middle" x="5159.53" y="-84" font-family="Helvetica,sans-Serif" font-size="10.00">include/d/s/d_s_logo.h</text>
</a>
</g>
</g>
<!-- Node3&#45;&gt;Node57 -->
<g id="edge16" class="edge">
<title>Node3&#45;&gt;Node57</title>
<path fill="none" stroke="#63b8ff" d="M3084.3,-156.36C3416.87,-153.02 4886.77,-136.69 5088.53,-107 5103.45,-104.8 5119.71,-100.49 5132.89,-96.48"/>
<polygon fill="#63b8ff" stroke="#63b8ff" points="3084.43,-152.85 3074.46,-156.45 3084.5,-159.85 3084.43,-152.85"/>
</g>
<!-- Node59 -->
<g id="node17" class="node">
<title>Node59</title>
<g id="a_node17"><a xlink:href="d__s__play_8h.html" target="_top" xlink:title=" ">
<polygon fill="#fff0f0" stroke="red" points="132.03,-96 19.03,-96 19.03,-77 132.03,-77 132.03,-96"/>
<text text-anchor="middle" x="75.53" y="-84" font-family="Helvetica,sans-Serif" font-size="10.00">include/d/s/d_s_play.h</text>
</a>
</g>
</g>
<!-- Node3&#45;&gt;Node59 -->
<g id="edge17" class="edge">
<title>Node3&#45;&gt;Node59</title>
<path fill="none" stroke="#63b8ff" d="M2951.11,-143.16C2594.08,-108.94 446,-153.83 140.53,-107 126.67,-104.88 111.65,-100.51 99.55,-96.45"/>
<polygon fill="#63b8ff" stroke="#63b8ff" points="2950.52,-146.62 2960.83,-144.17 2951.25,-139.65 2950.52,-146.62"/>
</g>
<!-- Node65 -->
<g id="node18" class="node">
<title>Node65</title>
<g id="a_node18"><a xlink:href="d__msg__scrn__base_8h.html" target="_top" xlink:title=" ">
<polygon fill="#fff0f0" stroke="red" points="249.03,-101.5 150.03,-101.5 150.03,-71.5 249.03,-71.5 249.03,-101.5"/>
<text text-anchor="start" x="158.03" y="-89.5" font-family="Helvetica,sans-Serif" font-size="10.00">include/msg/scrn/d</text>
<text text-anchor="middle" x="199.53" y="-78.5" font-family="Helvetica,sans-Serif" font-size="10.00">_msg_scrn_base.h</text>
</a>
</g>
</g>
<!-- Node3&#45;&gt;Node65 -->
<g id="edge18" class="edge">
<title>Node3&#45;&gt;Node65</title>
<path fill="none" stroke="#63b8ff" d="M2951.06,-143.16C2607.09,-110.39 550.37,-155.98 258.53,-107 251.62,-105.84 244.41,-104.01 237.5,-101.93"/>
<polygon fill="#63b8ff" stroke="#63b8ff" points="2950.52,-146.62 2960.83,-144.17 2951.25,-139.66 2950.52,-146.62"/>
</g>
<!-- Node69 -->
<g id="node19" class="node">
<title>Node69</title>
<g id="a_node19"><a xlink:href="d__a__b__oh2_8h.html" target="_top" xlink:title=" ">
<polygon fill="white" stroke="#666666" points="383.53,-101.5 267.53,-101.5 267.53,-71.5 383.53,-71.5 383.53,-101.5"/>
<text text-anchor="start" x="275.53" y="-89.5" font-family="Helvetica,sans-Serif" font-size="10.00">include/rel/d/a/b/d</text>
<text text-anchor="middle" x="325.53" y="-78.5" font-family="Helvetica,sans-Serif" font-size="10.00">_a_b_oh2/d_a_b_oh2.h</text>
</a>
</g>
</g>
<!-- Node3&#45;&gt;Node69 -->
<g id="edge19" class="edge">
<title>Node3&#45;&gt;Node69</title>
<path fill="none" stroke="#63b8ff" d="M2951.28,-143.11C2369.08,-80.21 951.63,-190.72 392.53,-107 384.74,-105.83 376.59,-104 368.76,-101.92"/>
<polygon fill="#63b8ff" stroke="#63b8ff" points="2950.51,-146.54 2960.83,-144.17 2951.28,-139.59 2950.51,-146.54"/>
</g>
<!-- Node70 -->
<g id="node20" class="node">
<title>Node70</title>
<g id="a_node20"><a xlink:href="d__a__b__zant_8h.html" target="_top" xlink:title=" ">
<polygon fill="white" stroke="#666666" points="523.03,-101.5 402.03,-101.5 402.03,-71.5 523.03,-71.5 523.03,-101.5"/>
<text text-anchor="start" x="410.03" y="-89.5" font-family="Helvetica,sans-Serif" font-size="10.00">include/rel/d/a/b/d</text>
<text text-anchor="middle" x="462.53" y="-78.5" font-family="Helvetica,sans-Serif" font-size="10.00">_a_b_zant/d_a_b_zant.h</text>
</a>
</g>
</g>
<!-- Node3&#45;&gt;Node70 -->
<g id="edge20" class="edge">
<title>Node3&#45;&gt;Node70</title>
<path fill="none" stroke="#63b8ff" d="M2951.06,-143.08C2399.69,-83.46 1061.22,-183.27 532.53,-107 524.42,-105.83 515.91,-104 507.73,-101.91"/>
<polygon fill="#63b8ff" stroke="#63b8ff" points="2950.51,-146.54 2960.83,-144.17 2951.28,-139.59 2950.51,-146.54"/>
</g>
<!-- Node71 -->
<g id="node21" class="node">
<title>Node71</title>
<g id="a_node21"><a xlink:href="d__a__andsw_8h.html" target="_top" xlink:title=" ">
<polygon fill="white" stroke="#666666" points="651.53,-101.5 541.53,-101.5 541.53,-71.5 651.53,-71.5 651.53,-101.5"/>
<text text-anchor="start" x="549.53" y="-89.5" font-family="Helvetica,sans-Serif" font-size="10.00">include/rel/d/a/d_a</text>
<text text-anchor="middle" x="596.53" y="-78.5" font-family="Helvetica,sans-Serif" font-size="10.00">_andsw/d_a_andsw.h</text>
</a>
</g>
</g>
<!-- Node3&#45;&gt;Node71 -->
<g id="edge21" class="edge">
<title>Node3&#45;&gt;Node71</title>
<path fill="none" stroke="#63b8ff" d="M2951.26,-143.11C2428.31,-86.51 1160.2,-185.45 660.53,-107 653.07,-105.83 645.28,-104 637.79,-101.91"/>
<polygon fill="#63b8ff" stroke="#63b8ff" points="2950.51,-146.54 2960.83,-144.17 2951.28,-139.59 2950.51,-146.54"/>
</g>
<!-- Node72 -->
<g id="node22" class="node">
<title>Node72</title>
<g id="a_node22"><a xlink:href="d__a__cstaF_8h.html" target="_top" xlink:title=" ">
<polygon fill="white" stroke="#666666" points="773.03,-101.5 670.03,-101.5 670.03,-71.5 773.03,-71.5 773.03,-101.5"/>
<text text-anchor="start" x="678.03" y="-89.5" font-family="Helvetica,sans-Serif" font-size="10.00">include/rel/d/a/d_a</text>
<text text-anchor="middle" x="721.53" y="-78.5" font-family="Helvetica,sans-Serif" font-size="10.00">_cstaF/d_a_cstaF.h</text>
</a>
</g>
</g>
<!-- Node3&#45;&gt;Node72 -->
<g id="edge22" class="edge">
<title>Node3&#45;&gt;Node72</title>
<path fill="none" stroke="#63b8ff" d="M2951.11,-143.09C2455.05,-89.43 1254.83,-184.67 782.53,-107 775.4,-105.83 767.96,-103.99 760.82,-101.91"/>
<polygon fill="#63b8ff" stroke="#63b8ff" points="2950.5,-146.54 2960.83,-144.18 2951.28,-139.59 2950.5,-146.54"/>
</g>
<!-- Node73 -->
<g id="node23" class="node">
<title>Node73</title>
<g id="a_node23"><a xlink:href="d__a__dmidna_8h.html" target="_top" xlink:title=" ">
<polygon fill="white" stroke="#666666" points="907.53,-101.5 791.53,-101.5 791.53,-71.5 907.53,-71.5 907.53,-101.5"/>
<text text-anchor="start" x="799.53" y="-89.5" font-family="Helvetica,sans-Serif" font-size="10.00">include/rel/d/a/d_a</text>
<text text-anchor="middle" x="849.53" y="-78.5" font-family="Helvetica,sans-Serif" font-size="10.00">_dmidna/d_a_dmidna.h</text>
</a>
</g>
</g>
<!-- Node3&#45;&gt;Node73 -->
<g id="edge23" class="edge">
<title>Node3&#45;&gt;Node73</title>
<path fill="none" stroke="#63b8ff" d="M2951.1,-143.09C2484.69,-92.45 1360.33,-174.28 916.53,-107 908.87,-105.84 900.85,-104.04 893.13,-101.99"/>
<polygon fill="#63b8ff" stroke="#63b8ff" points="2950.5,-146.54 2960.83,-144.18 2951.28,-139.59 2950.5,-146.54"/>
</g>
<!-- Node74 -->
<g id="node24" class="node">
<title>Node74</title>
<g id="a_node24"><a xlink:href="d__a__econt_8h.html" target="_top" xlink:title=" ">
<polygon fill="white" stroke="#666666" points="1027.03,-101.5 926.03,-101.5 926.03,-71.5 1027.03,-71.5 1027.03,-101.5"/>
<text text-anchor="start" x="934.03" y="-89.5" font-family="Helvetica,sans-Serif" font-size="10.00">include/rel/d/a/d_a</text>
<text text-anchor="middle" x="976.53" y="-78.5" font-family="Helvetica,sans-Serif" font-size="10.00">_econt/d_a_econt.h</text>
</a>
</g>
</g>
<!-- Node3&#45;&gt;Node74 -->
<g id="edge24" class="edge">
<title>Node3&#45;&gt;Node74</title>
<path fill="none" stroke="#63b8ff" d="M2951.09,-143.09C2510.99,-95.35 1451.95,-178.05 1035.53,-107 1028.73,-105.84 1021.64,-104.04 1014.83,-101.99"/>
<polygon fill="#63b8ff" stroke="#63b8ff" points="2950.5,-146.54 2960.83,-144.18 2951.28,-139.59 2950.5,-146.54"/>
</g>
<!-- Node75 -->
<g id="node25" class="node">
<title>Node75</title>
<g id="a_node25"><a xlink:href="d__a__set__bgobj_8h.html" target="_top" xlink:title=" ">
<polygon fill="white" stroke="#666666" points="1182.03,-101.5 1045.03,-101.5 1045.03,-71.5 1182.03,-71.5 1182.03,-101.5"/>
<text text-anchor="start" x="1053.03" y="-89.5" font-family="Helvetica,sans-Serif" font-size="10.00">include/rel/d/a/d_a</text>
<text text-anchor="middle" x="1113.53" y="-78.5" font-family="Helvetica,sans-Serif" font-size="10.00">_set_bgobj/d_a_set_bgobj.h</text>
</a>
</g>
</g>
<!-- Node3&#45;&gt;Node75 -->
<g id="edge25" class="edge">
<title>Node3&#45;&gt;Node75</title>
<path fill="none" stroke="#63b8ff" d="M2951.09,-143.08C2545.55,-98.71 1575.91,-158.31 1191.53,-107 1182.68,-105.82 1173.37,-104.01 1164.4,-101.96"/>
<polygon fill="#63b8ff" stroke="#63b8ff" points="2950.5,-146.54 2960.83,-144.19 2951.29,-139.58 2950.5,-146.54"/>
</g>
<!-- Node76 -->
<g id="node26" class="node">
<title>Node76</title>
<g id="a_node26"><a xlink:href="d__a__skip__2D_8h.html" target="_top" xlink:title=" ">
<polygon fill="white" stroke="#666666" points="1324.53,-101.5 1200.53,-101.5 1200.53,-71.5 1324.53,-71.5 1324.53,-101.5"/>
<text text-anchor="start" x="1208.53" y="-89.5" font-family="Helvetica,sans-Serif" font-size="10.00">include/rel/d/a/d_a</text>
<text text-anchor="middle" x="1262.53" y="-78.5" font-family="Helvetica,sans-Serif" font-size="10.00">_skip_2D/d_a_skip_2D.h</text>
</a>
</g>
</g>
<!-- Node3&#45;&gt;Node76 -->
<g id="edge26" class="edge">
<title>Node3&#45;&gt;Node76</title>
<path fill="none" stroke="#63b8ff" d="M2951.15,-143.09C2577.06,-102.08 1686.05,-158.53 1333.53,-107 1325.44,-105.82 1316.95,-104.01 1308.78,-101.96"/>
<polygon fill="#63b8ff" stroke="#63b8ff" points="2950.5,-146.54 2960.83,-144.19 2951.29,-139.58 2950.5,-146.54"/>
</g>
<!-- Node77 -->
<g id="node27" class="node">
<title>Node77</title>
<g id="a_node27"><a xlink:href="d__a__spinner_8h.html" target="_top" xlink:title=" ">
<polygon fill="#fff0f0" stroke="red" points="1458.53,-101.5 1342.53,-101.5 1342.53,-71.5 1458.53,-71.5 1458.53,-101.5"/>
<text text-anchor="start" x="1350.53" y="-89.5" font-family="Helvetica,sans-Serif" font-size="10.00">include/rel/d/a/d_a</text>
<text text-anchor="middle" x="1400.53" y="-78.5" font-family="Helvetica,sans-Serif" font-size="10.00">_spinner/d_a_spinner.h</text>
</a>
</g>
</g>
<!-- Node3&#45;&gt;Node77 -->
<g id="edge27" class="edge">
<title>Node3&#45;&gt;Node77</title>
<path fill="none" stroke="#63b8ff" d="M2951.03,-143.08C2606.54,-105.24 1790.15,-156.99 1467.53,-107 1459.87,-105.81 1451.85,-104 1444.13,-101.95"/>
<polygon fill="#63b8ff" stroke="#63b8ff" points="2950.49,-146.54 2960.83,-144.2 2951.29,-139.59 2950.49,-146.54"/>
</g>
<!-- Node80 -->
<g id="node28" class="node">
<title>Node80</title>
<g id="a_node28"><a xlink:href="d__a__swTime_8h.html" target="_top" xlink:title=" ">
<polygon fill="white" stroke="#666666" points="1598.53,-101.5 1476.53,-101.5 1476.53,-71.5 1598.53,-71.5 1598.53,-101.5"/>
<text text-anchor="start" x="1484.53" y="-89.5" font-family="Helvetica,sans-Serif" font-size="10.00">include/rel/d/a/d_a</text>
<text text-anchor="middle" x="1537.53" y="-78.5" font-family="Helvetica,sans-Serif" font-size="10.00">_swTime/d_a_swTime.h</text>
</a>
</g>
</g>
<!-- Node3&#45;&gt;Node80 -->
<g id="edge28" class="edge">
<title>Node3&#45;&gt;Node80</title>
<path fill="none" stroke="#63b8ff" d="M2951.33,-143.07C2356.83,-73.25 2195.27,-195.36 1607.53,-107 1599.55,-105.8 1591.18,-103.98 1583.12,-101.93"/>
<polygon fill="#63b8ff" stroke="#63b8ff" points="2950.48,-146.5 2960.83,-144.2 2951.31,-139.55 2950.48,-146.5"/>
</g>
<!-- Node81 -->
<g id="node29" class="node">
<title>Node81</title>
<g id="a_node29"><a xlink:href="d__a__obj__cboard_8h.html" target="_top" xlink:title=" ">
<polygon fill="white" stroke="#666666" points="1724.03,-107 1617.03,-107 1617.03,-66 1724.03,-66 1724.03,-107"/>
<text text-anchor="start" x="1625.03" y="-95" font-family="Helvetica,sans-Serif" font-size="10.00">include/rel/d/a/obj</text>
<text text-anchor="start" x="1625.03" y="-84" font-family="Helvetica,sans-Serif" font-size="10.00">/d_a_obj_cboard/d_a</text>
<text text-anchor="middle" x="1670.53" y="-73" font-family="Helvetica,sans-Serif" font-size="10.00">_obj_cboard.h</text>
</a>
</g>
</g>
<!-- Node3&#45;&gt;Node81 -->
<g id="edge29" class="edge">
<title>Node3&#45;&gt;Node81</title>
<path fill="none" stroke="#63b8ff" d="M2951.14,-143.05C2412.01,-79.24 2263.78,-196.61 1732.53,-107 1729.86,-106.55 1727.15,-106.01 1724.42,-105.41"/>
<polygon fill="#63b8ff" stroke="#63b8ff" points="2950.48,-146.5 2960.83,-144.21 2951.32,-139.55 2950.48,-146.5"/>
</g>
<!-- Node82 -->
<g id="node30" class="node">
<title>Node82</title>
<g id="a_node30"><a xlink:href="d__a__obj__enemy__create_8h.html" target="_top" xlink:title=" ">
<polygon fill="white" stroke="#666666" points="1869.03,-107 1742.03,-107 1742.03,-66 1869.03,-66 1869.03,-107"/>
<text text-anchor="start" x="1750.03" y="-95" font-family="Helvetica,sans-Serif" font-size="10.00">include/rel/d/a/obj</text>
<text text-anchor="start" x="1750.03" y="-84" font-family="Helvetica,sans-Serif" font-size="10.00">/d_a_obj_enemy_create</text>
<text text-anchor="middle" x="1805.53" y="-73" font-family="Helvetica,sans-Serif" font-size="10.00">/d_a_obj_enemy_create.h</text>
</a>
</g>
</g>
<!-- Node3&#45;&gt;Node82 -->
<g id="edge30" class="edge">
<title>Node3&#45;&gt;Node82</title>
<path fill="none" stroke="#63b8ff" d="M2951.05,-143.03C2476.51,-85.92 2347.27,-176.53 1878.53,-107 1875.55,-106.56 1872.51,-106.04 1869.45,-105.46"/>
<polygon fill="#63b8ff" stroke="#63b8ff" points="2950.47,-146.49 2960.83,-144.22 2951.32,-139.54 2950.47,-146.49"/>
</g>
<!-- Node83 -->
<g id="node31" class="node">
<title>Node83</title>
<g id="a_node31"><a xlink:href="d__a__obj__onsenFire_8h.html" target="_top" xlink:title=" ">
<polygon fill="white" stroke="#666666" points="1997.53,-107 1887.53,-107 1887.53,-66 1997.53,-66 1997.53,-107"/>
<text text-anchor="start" x="1895.53" y="-95" font-family="Helvetica,sans-Serif" font-size="10.00">include/rel/d/a/obj</text>
<text text-anchor="start" x="1895.53" y="-84" font-family="Helvetica,sans-Serif" font-size="10.00">/d_a_obj_onsenFire/d</text>
<text text-anchor="middle" x="1942.53" y="-73" font-family="Helvetica,sans-Serif" font-size="10.00">_a_obj_onsenFire.h</text>
</a>
</g>
</g>
<!-- Node3&#45;&gt;Node83 -->
<g id="edge31" class="edge">
<title>Node3&#45;&gt;Node83</title>
<path fill="none" stroke="#63b8ff" d="M2951.13,-143.04C2533.05,-92.01 2417.79,-176.28 2006.53,-107 2003.67,-106.52 2000.75,-105.94 1997.83,-105.3"/>
<polygon fill="#63b8ff" stroke="#63b8ff" points="2950.47,-146.48 2960.82,-144.24 2951.33,-139.53 2950.47,-146.48"/>
</g>
<!-- Node84 -->
<g id="node32" class="node">
<title>Node84</title>
<g id="a_node32"><a xlink:href="d__a__obj__web0_8h.html" target="_top" xlink:title=" ">
<polygon fill="white" stroke="#666666" points="2135.03,-107 2016.03,-107 2016.03,-66 2135.03,-66 2135.03,-107"/>
<text text-anchor="start" x="2024.03" y="-95" font-family="Helvetica,sans-Serif" font-size="10.00">include/rel/d/a/obj</text>
<text text-anchor="start" x="2024.03" y="-84" font-family="Helvetica,sans-Serif" font-size="10.00">/d_a_obj_web0/d_a_obj</text>
<text text-anchor="middle" x="2075.53" y="-73" font-family="Helvetica,sans-Serif" font-size="10.00">_web0.h</text>
</a>
</g>
</g>
<!-- Node3&#45;&gt;Node84 -->
<g id="edge32" class="edge">
<title>Node3&#45;&gt;Node84</title>
<path fill="none" stroke="#63b8ff" d="M2951.13,-143.02C2593.57,-98.33 2495.1,-164.41 2143.53,-107 2140.86,-106.56 2138.15,-106.06 2135.43,-105.5"/>
<polygon fill="#63b8ff" stroke="#63b8ff" points="2950.46,-146.47 2960.82,-144.26 2951.34,-139.52 2950.46,-146.47"/>
</g>
<!-- Node85 -->
<g id="node33" class="node">
<title>Node85</title>
<g id="a_node33"><a xlink:href="d__a__obj__web1_8h.html" target="_top" xlink:title=" ">
<polygon fill="white" stroke="#666666" points="2272.03,-107 2153.03,-107 2153.03,-66 2272.03,-66 2272.03,-107"/>
<text text-anchor="start" x="2161.03" y="-95" font-family="Helvetica,sans-Serif" font-size="10.00">include/rel/d/a/obj</text>
<text text-anchor="start" x="2161.03" y="-84" font-family="Helvetica,sans-Serif" font-size="10.00">/d_a_obj_web1/d_a_obj</text>
<text text-anchor="middle" x="2212.53" y="-73" font-family="Helvetica,sans-Serif" font-size="10.00">_web1.h</text>
</a>
</g>
</g>
<!-- Node3&#45;&gt;Node85 -->
<g id="edge33" class="edge">
<title>Node3&#45;&gt;Node85</title>
<path fill="none" stroke="#63b8ff" d="M2951.2,-143.02C2654.07,-104.67 2571.89,-155.93 2280.53,-107 2277.87,-106.55 2275.16,-106.04 2272.43,-105.47"/>
<polygon fill="#63b8ff" stroke="#63b8ff" points="2950.45,-146.45 2960.82,-144.29 2951.36,-139.51 2950.45,-146.45"/>
</g>
<!-- Node86 -->
<g id="node34" class="node">
<title>Node86</title>
<g id="a_node34"><a xlink:href="d__a__obj__yobikusa_8h.html" target="_top" xlink:title=" ">
<polygon fill="white" stroke="#666666" points="2395.03,-107 2290.03,-107 2290.03,-66 2395.03,-66 2395.03,-107"/>
<text text-anchor="start" x="2298.03" y="-95" font-family="Helvetica,sans-Serif" font-size="10.00">include/rel/d/a/obj</text>
<text text-anchor="start" x="2298.03" y="-84" font-family="Helvetica,sans-Serif" font-size="10.00">/d_a_obj_yobikusa/d</text>
<text text-anchor="middle" x="2342.53" y="-73" font-family="Helvetica,sans-Serif" font-size="10.00">_a_obj_yobikusa.h</text>
</a>
</g>
</g>
<!-- Node3&#45;&gt;Node86 -->
<g id="edge34" class="edge">
<title>Node3&#45;&gt;Node86</title>
<path fill="none" stroke="#63b8ff" d="M2951.02,-142.98C2708.75,-110.49 2640.81,-151.26 2404.53,-107 2401.54,-106.44 2398.48,-105.78 2395.42,-105.05"/>
<polygon fill="#63b8ff" stroke="#63b8ff" points="2950.43,-146.43 2960.81,-144.32 2951.38,-139.5 2950.43,-146.43"/>
</g>
<!-- Node87 -->
<g id="node35" class="node">
<title>Node87</title>
<g id="a_node35"><a xlink:href="d__a__tag__ajnot_8h.html" target="_top" xlink:title=" ">
<polygon fill="white" stroke="#666666" points="2531.53,-107 2413.53,-107 2413.53,-66 2531.53,-66 2531.53,-107"/>
<text text-anchor="start" x="2421.53" y="-95" font-family="Helvetica,sans-Serif" font-size="10.00">include/rel/d/a/tag</text>
<text text-anchor="start" x="2421.53" y="-84" font-family="Helvetica,sans-Serif" font-size="10.00">/d_a_tag_ajnot/d_a_tag</text>
<text text-anchor="middle" x="2472.53" y="-73" font-family="Helvetica,sans-Serif" font-size="10.00">_ajnot.h</text>
</a>
</g>
</g>
<!-- Node3&#45;&gt;Node87 -->
<g id="edge35" class="edge">
<title>Node3&#45;&gt;Node87</title>
<path fill="none" stroke="#63b8ff" d="M2950.97,-142.93C2768.74,-116.57 2717.65,-139.82 2540.53,-107 2537.63,-106.46 2534.68,-105.86 2531.71,-105.19"/>
<polygon fill="#63b8ff" stroke="#63b8ff" points="2950.4,-146.39 2960.8,-144.39 2951.42,-139.46 2950.4,-146.39"/>
</g>
<!-- Node88 -->
<g id="node36" class="node">
<title>Node88</title>
<g id="a_node36"><a xlink:href="d__a__tag__assistance_8h.html" target="_top" xlink:title=" ">
<polygon fill="white" stroke="#666666" points="2663.53,-107 2549.53,-107 2549.53,-66 2663.53,-66 2663.53,-107"/>
<text text-anchor="start" x="2557.53" y="-95" font-family="Helvetica,sans-Serif" font-size="10.00">include/rel/d/a/tag</text>
<text text-anchor="start" x="2557.53" y="-84" font-family="Helvetica,sans-Serif" font-size="10.00">/d_a_tag_assistance</text>
<text text-anchor="middle" x="2606.53" y="-73" font-family="Helvetica,sans-Serif" font-size="10.00">/d_a_tag_assistance.h</text>
</a>
</g>
</g>
<!-- Node3&#45;&gt;Node88 -->
<g id="edge36" class="edge">
<title>Node3&#45;&gt;Node88</title>
<path fill="none" stroke="#63b8ff" d="M2951.18,-142.89C2826.9,-122.37 2791.83,-132.13 2672.53,-107 2669.73,-106.41 2666.87,-105.76 2663.99,-105.06"/>
<polygon fill="#63b8ff" stroke="#63b8ff" points="2950.34,-146.3 2960.78,-144.52 2951.5,-139.4 2950.34,-146.3"/>
</g>
<!-- Node89 -->
<g id="node37" class="node">
<title>Node89</title>
<g id="a_node37"><a xlink:href="d__a__tag__attention_8h.html" target="_top" xlink:title=" ">
<polygon fill="white" stroke="#666666" points="2787.03,-107 2682.03,-107 2682.03,-66 2787.03,-66 2787.03,-107"/>
<text text-anchor="start" x="2690.03" y="-95" font-family="Helvetica,sans-Serif" font-size="10.00">include/rel/d/a/tag</text>
<text text-anchor="start" x="2690.03" y="-84" font-family="Helvetica,sans-Serif" font-size="10.00">/d_a_tag_attention/d</text>
<text text-anchor="middle" x="2734.53" y="-73" font-family="Helvetica,sans-Serif" font-size="10.00">_a_tag_attention.h</text>
</a>
</g>
</g>
<!-- Node3&#45;&gt;Node89 -->
<g id="edge37" class="edge">
<title>Node3&#45;&gt;Node89</title>
<path fill="none" stroke="#63b8ff" d="M2951.37,-142.41C2891.54,-129.16 2810.58,-111.09 2795.53,-107 2792.85,-106.27 2790.11,-105.5 2787.35,-104.7"/>
<polygon fill="#63b8ff" stroke="#63b8ff" points="2950.28,-145.75 2960.8,-144.49 2951.79,-138.92 2950.28,-145.75"/>
</g>
<!-- Node90 -->
<g id="node38" class="node">
<title>Node90</title>
<g id="a_node38"><a xlink:href="d__a__tag__gra_8h.html" target="_top" xlink:title=" ">
<polygon fill="white" stroke="#666666" points="2942.03,-101.5 2805.03,-101.5 2805.03,-71.5 2942.03,-71.5 2942.03,-101.5"/>
<text text-anchor="start" x="2813.03" y="-89.5" font-family="Helvetica,sans-Serif" font-size="10.00">include/rel/d/a/tag</text>
<text text-anchor="middle" x="2873.53" y="-78.5" font-family="Helvetica,sans-Serif" font-size="10.00">/d_a_tag_gra/d_a_tag_gra.h</text>
</a>
</g>
</g>
<!-- Node3&#45;&gt;Node90 -->
<g id="edge38" class="edge">
<title>Node3&#45;&gt;Node90</title>
<path fill="none" stroke="#63b8ff" d="M2977.35,-137.61C2953.88,-126.28 2924.75,-112.22 2903.33,-101.88"/>
<polygon fill="#63b8ff" stroke="#63b8ff" points="2975.8,-140.75 2986.33,-141.94 2978.85,-134.44 2975.8,-140.75"/>
</g>
<!-- Node91 -->
<g id="node39" class="node">
<title>Node91</title>
<g id="a_node39"><a xlink:href="d__a__tag__hinit_8h.html" target="_top" xlink:title=" ">
<polygon fill="white" stroke="#666666" points="3075.03,-107 2960.03,-107 2960.03,-66 3075.03,-66 3075.03,-107"/>
<text text-anchor="start" x="2968.03" y="-95" font-family="Helvetica,sans-Serif" font-size="10.00">include/rel/d/a/tag</text>
<text text-anchor="start" x="2968.03" y="-84" font-family="Helvetica,sans-Serif" font-size="10.00">/d_a_tag_hinit/d_a_tag</text>
<text text-anchor="middle" x="3017.53" y="-73" font-family="Helvetica,sans-Serif" font-size="10.00">_hinit.h</text>
</a>
</g>
</g>
<!-- Node3&#45;&gt;Node91 -->
<g id="edge39" class="edge">
<title>Node3&#45;&gt;Node91</title>
<path fill="none" stroke="#63b8ff" d="M3017.53,-131.36C3017.53,-123.45 3017.53,-114.87 3017.53,-107.42"/>
<polygon fill="#63b8ff" stroke="#63b8ff" points="3014.03,-131.09 3017.53,-141.09 3021.03,-131.09 3014.03,-131.09"/>
</g>
<!-- Node92 -->
<g id="node40" class="node">
<title>Node92</title>
<g id="a_node40"><a xlink:href="d__a__tag__howl_8h.html" target="_top" xlink:title=" ">
<polygon fill="white" stroke="#666666" points="3210.03,-107 3093.03,-107 3093.03,-66 3210.03,-66 3210.03,-107"/>
<text text-anchor="start" x="3101.03" y="-95" font-family="Helvetica,sans-Serif" font-size="10.00">include/rel/d/a/tag</text>
<text text-anchor="start" x="3101.03" y="-84" font-family="Helvetica,sans-Serif" font-size="10.00">/d_a_tag_howl/d_a_tag</text>
<text text-anchor="middle" x="3151.53" y="-73" font-family="Helvetica,sans-Serif" font-size="10.00">_howl.h</text>
</a>
</g>
</g>
<!-- Node3&#45;&gt;Node92 -->
<g id="edge40" class="edge">
<title>Node3&#45;&gt;Node92</title>
<path fill="none" stroke="#63b8ff" d="M3055.46,-137.33C3073.5,-127.97 3095.03,-116.8 3113.13,-107.42"/>
<polygon fill="#63b8ff" stroke="#63b8ff" points="3053.91,-134.19 3046.64,-141.9 3057.13,-140.41 3053.91,-134.19"/>
</g>
<!-- Node93 -->
<g id="node41" class="node">
<title>Node93</title>
<g id="a_node41"><a xlink:href="d__a__tag__lv6CstaSw_8h.html" target="_top" xlink:title=" ">
<polygon fill="white" stroke="#666666" points="3343.03,-107 3228.03,-107 3228.03,-66 3343.03,-66 3343.03,-107"/>
<text text-anchor="start" x="3236.03" y="-95" font-family="Helvetica,sans-Serif" font-size="10.00">include/rel/d/a/tag</text>
<text text-anchor="start" x="3236.03" y="-84" font-family="Helvetica,sans-Serif" font-size="10.00">/d_a_tag_lv6CstaSw/d</text>
<text text-anchor="middle" x="3285.53" y="-73" font-family="Helvetica,sans-Serif" font-size="10.00">_a_tag_lv6CstaSw.h</text>
</a>
</g>
</g>
<!-- Node3&#45;&gt;Node93 -->
<g id="edge41" class="edge">
<title>Node3&#45;&gt;Node93</title>
<path fill="none" stroke="#63b8ff" d="M3083.73,-141.23C3123.01,-131.7 3173.72,-119.09 3218.53,-107 3221.57,-106.18 3224.69,-105.32 3227.83,-104.45"/>
<polygon fill="#63b8ff" stroke="#63b8ff" points="3083.08,-137.78 3074.18,-143.54 3084.72,-144.59 3083.08,-137.78"/>
</g>
<!-- Node94 -->
<g id="node42" class="node">
<title>Node94</title>
<g id="a_node42"><a xlink:href="d__a__tag__ret__room_8h.html" target="_top" xlink:title=" ">
<polygon fill="white" stroke="#666666" points="3467.53,-107 3361.53,-107 3361.53,-66 3467.53,-66 3467.53,-107"/>
<text text-anchor="start" x="3369.53" y="-95" font-family="Helvetica,sans-Serif" font-size="10.00">include/rel/d/a/tag</text>
<text text-anchor="start" x="3369.53" y="-84" font-family="Helvetica,sans-Serif" font-size="10.00">/d_a_tag_ret_room/d</text>
<text text-anchor="middle" x="3414.53" y="-73" font-family="Helvetica,sans-Serif" font-size="10.00">_a_tag_ret_room.h</text>
</a>
</g>
</g>
<!-- Node3&#45;&gt;Node94 -->
<g id="edge42" class="edge">
<title>Node3&#45;&gt;Node94</title>
<path fill="none" stroke="#63b8ff" d="M3084.33,-150.02C3152.16,-142.23 3259.94,-127.9 3351.53,-107 3354.66,-106.29 3357.85,-105.5 3361.07,-104.65"/>
<polygon fill="#63b8ff" stroke="#63b8ff" points="3084.02,-146.53 3074.48,-151.14 3084.81,-153.49 3084.02,-146.53"/>
</g>
<!-- Node95 -->
<g id="node43" class="node">
<title>Node95</title>
<g id="a_node43"><a xlink:href="d__a__tag__spring_8h.html" target="_top" xlink:title=" ">
<polygon fill="white" stroke="#666666" points="3589.53,-107 3485.53,-107 3485.53,-66 3589.53,-66 3589.53,-107"/>
<text text-anchor="start" x="3493.53" y="-95" font-family="Helvetica,sans-Serif" font-size="10.00">include/rel/d/a/tag</text>
<text text-anchor="start" x="3493.53" y="-84" font-family="Helvetica,sans-Serif" font-size="10.00">/d_a_tag_spring/d_a</text>
<text text-anchor="middle" x="3537.53" y="-73" font-family="Helvetica,sans-Serif" font-size="10.00">_tag_spring.h</text>
</a>
</g>
</g>
<!-- Node3&#45;&gt;Node95 -->
<g id="edge43" class="edge">
<title>Node3&#45;&gt;Node95</title>
<path fill="none" stroke="#63b8ff" d="M3084.24,-153.94C3174.16,-148.86 3338.87,-136.19 3476.53,-107 3479.36,-106.4 3482.24,-105.72 3485.14,-104.99"/>
<polygon fill="#63b8ff" stroke="#63b8ff" points="3084.16,-150.44 3074.36,-154.48 3084.54,-157.43 3084.16,-150.44"/>
</g>
<!-- Node96 -->
<g id="node44" class="node">
<title>Node96</title>
<g id="a_node44"><a xlink:href="d__a__tag__stream_8h.html" target="_top" xlink:title=" ">
<polygon fill="white" stroke="#666666" points="3715.53,-107 3607.53,-107 3607.53,-66 3715.53,-66 3715.53,-107"/>
<text text-anchor="start" x="3615.53" y="-95" font-family="Helvetica,sans-Serif" font-size="10.00">include/rel/d/a/tag</text>
<text text-anchor="start" x="3615.53" y="-84" font-family="Helvetica,sans-Serif" font-size="10.00">/d_a_tag_stream/d_a</text>
<text text-anchor="middle" x="3661.53" y="-73" font-family="Helvetica,sans-Serif" font-size="10.00">_tag_stream.h</text>
</a>
</g>
</g>
<!-- Node3&#45;&gt;Node96 -->
<g id="edge44" class="edge">
<title>Node3&#45;&gt;Node96</title>
<path fill="none" stroke="#63b8ff" d="M3084.38,-155.89C3193.13,-153.04 3414.7,-142.93 3598.53,-107 3601.34,-106.45 3604.2,-105.82 3607.08,-105.14"/>
<polygon fill="#63b8ff" stroke="#63b8ff" points="3084.37,-152.38 3074.46,-156.13 3084.55,-159.38 3084.37,-152.38"/>
</g>
<!-- Node97 -->
<g id="node45" class="node">
<title>Node97</title>
<g id="a_node45"><a xlink:href="d__a__tag__telop_8h.html" target="_top" xlink:title=" ">
<polygon fill="white" stroke="#666666" points="3851.53,-107 3733.53,-107 3733.53,-66 3851.53,-66 3851.53,-107"/>
<text text-anchor="start" x="3741.53" y="-95" font-family="Helvetica,sans-Serif" font-size="10.00">include/rel/d/a/tag</text>
<text text-anchor="start" x="3741.53" y="-84" font-family="Helvetica,sans-Serif" font-size="10.00">/d_a_tag_telop/d_a_tag</text>
<text text-anchor="middle" x="3792.53" y="-73" font-family="Helvetica,sans-Serif" font-size="10.00">_telop.h</text>
</a>
</g>
</g>
<!-- Node3&#45;&gt;Node97 -->
<g id="edge45" class="edge">
<title>Node3&#45;&gt;Node97</title>
<path fill="none" stroke="#63b8ff" d="M3084.37,-156.9C3210.5,-155.69 3491.87,-148.12 3724.53,-107 3727.43,-106.49 3730.39,-105.9 3733.36,-105.25"/>
<polygon fill="#63b8ff" stroke="#63b8ff" points="3084.5,-153.4 3074.53,-156.98 3084.56,-160.4 3084.5,-153.4"/>
</g>
<!-- Node3&#45;&gt;Node112 -->
<g id="edge46" class="edge">
<title>Node3&#45;&gt;Node112</title>
<path fill="none" stroke="#63b8ff" d="M3084.19,-156.63C3429.72,-154.54 5009.28,-143.07 5224.53,-107 5237.58,-104.81 5251.68,-100.45 5263.03,-96.4"/>
<polygon fill="#63b8ff" stroke="#63b8ff" points="3084.39,-153.12 3074.41,-156.68 3084.43,-160.12 3084.39,-153.12"/>
</g>
<!-- Node3&#45;&gt;Node126 -->
<g id="edge49" class="edge">
<title>Node3&#45;&gt;Node126</title>
<path fill="none" stroke="#63b8ff" d="M3084.35,-156.71C3441.54,-155.01 5117.73,-145.04 5345.53,-107 5352.55,-105.83 5359.87,-104.02 5366.91,-101.98"/>
<polygon fill="#63b8ff" stroke="#63b8ff" points="3084.44,-153.21 3074.46,-156.76 3084.47,-160.21 3084.44,-153.21"/>
</g>
<!-- Node41&#45;&gt;Node4 -->
<g id="edge13" class="edge">
<title>Node41&#45;&gt;Node4</title>
<path fill="none" stroke="#63b8ff" d="M4935.98,-68.08C4933.13,-67.34 4930.3,-66.64 4927.53,-66 4840.05,-45.69 4736.76,-30.77 4674.51,-22.74"/>
<polygon fill="#63b8ff" stroke="#63b8ff" points="4934.95,-71.43 4945.52,-70.69 4936.8,-64.68 4934.95,-71.43"/>
</g>
<!-- Node41&#45;&gt;Node49 -->
<g id="edge14" class="edge">
<title>Node41&#45;&gt;Node49</title>
<path fill="none" stroke="#63b8ff" d="M4938.52,-68.26C4934.82,-67.39 4931.14,-66.63 4927.53,-66 4735.83,-32.76 4134.3,-20.18 3940.41,-16.92"/>
<polygon fill="#63b8ff" stroke="#63b8ff" points="4937.52,-71.61 4948.08,-70.72 4939.27,-64.83 4937.52,-71.61"/>
</g>
<!-- Node41&#45;&gt;Node50 -->
<g id="edge15" class="edge">
<title>Node41&#45;&gt;Node50</title>
<path fill="none" stroke="#63b8ff" d="M5017.29,-63.93C5030.32,-53.02 5045.79,-40.07 5057.36,-30.38"/>
<polygon fill="#63b8ff" stroke="#63b8ff" points="5015.31,-61.02 5009.89,-70.13 5019.8,-66.39 5015.31,-61.02"/>
</g>
</g>
</svg>
