<?xml version="1.0" encoding="UTF-8" standalone="no"?>
<!DOCTYPE svg PUBLIC "-//W3C//DTD SVG 1.1//EN"
 "http://www.w3.org/Graphics/SVG/1.1/DTD/svg11.dtd">
<!-- Generated by graphviz version 7.0.5 (20221223.1930)
 -->
<!-- Title: include/d/d_cam_param.h Pages: 1 -->
<svg width="5378pt" height="357pt"
 viewBox="0.00 0.00 5378.41 357.00" xmlns="http://www.w3.org/2000/svg" xmlns:xlink="http://www.w3.org/1999/xlink">
<g id="graph0" class="graph" transform="scale(1 1) rotate(0) translate(4 353)">
<title>include/d/d_cam_param.h</title>
<!-- Node1 -->
<g id="node1" class="node">
<title>Node1</title>
<g id="a_node1"><a xlink:title=" ">
<polygon fill="#999999" stroke="#666666" points="1551.91,-349 1423.91,-349 1423.91,-330 1551.91,-330 1551.91,-349"/>
<text text-anchor="middle" x="1487.91" y="-337" font-family="Helvetica,sans-Serif" font-size="10.00">include/d/d_cam_param.h</text>
</a>
</g>
</g>
<!-- Node2 -->
<g id="node2" class="node">
<title>Node2</title>
<g id="a_node2"><a xlink:href="d__camera_8h.html" target="_top" xlink:title=" ">
<polygon fill="white" stroke="#666666" points="265.41,-294 156.41,-294 156.41,-275 265.41,-275 265.41,-294"/>
<text text-anchor="middle" x="210.91" y="-282" font-family="Helvetica,sans-Serif" font-size="10.00">include/d/d_camera.h</text>
</a>
</g>
</g>
<!-- Node1&#45;&gt;Node2 -->
<g id="edge1" class="edge">
<title>Node1&#45;&gt;Node2</title>
<path fill="none" stroke="#63b8ff" d="M1412.26,-335.36C1178.08,-325.64 468.69,-296.2 265.71,-287.77"/>
<polygon fill="#63b8ff" stroke="#63b8ff" points="1412.06,-338.85 1422.2,-335.77 1412.35,-331.86 1412.06,-338.85"/>
</g>
<!-- Node117 -->
<g id="node45" class="node">
<title>Node117</title>
<g id="a_node45"><a xlink:href="d__cam__param_8cpp.html" target="_top" xlink:title=" ">
<polygon fill="white" stroke="#666666" points="5370.41,-96 5249.41,-96 5249.41,-77 5370.41,-77 5370.41,-96"/>
<text text-anchor="middle" x="5309.91" y="-84" font-family="Helvetica,sans-Serif" font-size="10.00">src/d/d_cam_param.cpp</text>
</a>
</g>
</g>
<!-- Node1&#45;&gt;Node117 -->
<g id="edge59" class="edge">
<title>Node1&#45;&gt;Node117</title>
<path fill="none" stroke="#63b8ff" d="M1563.62,-337.62C1951.4,-332.34 3753.61,-298.12 5212.91,-107 5232.33,-104.46 5253.68,-100.31 5271.41,-96.5"/>
<polygon fill="#63b8ff" stroke="#63b8ff" points="1563.75,-334.12 1553.8,-337.76 1563.85,-341.12 1563.75,-334.12"/>
</g>
<!-- Node3 -->
<g id="node3" class="node">
<title>Node3</title>
<g id="a_node3"><a xlink:href="f__op__camera__mng_8h.html" target="_top" xlink:title=" ">
<polygon fill="white" stroke="#666666" points="1489.91,-239 1361.91,-239 1361.91,-209 1489.91,-209 1489.91,-239"/>
<text text-anchor="start" x="1369.91" y="-227" font-family="Helvetica,sans-Serif" font-size="10.00">include/f_op/f_op_camera</text>
<text text-anchor="middle" x="1425.91" y="-216" font-family="Helvetica,sans-Serif" font-size="10.00">_mng.h</text>
</a>
</g>
</g>
<!-- Node2&#45;&gt;Node3 -->
<g id="edge2" class="edge">
<title>Node2&#45;&gt;Node3</title>
<path fill="none" stroke="#63b8ff" d="M277.13,-280.31C489.48,-270.09 1151.72,-238.2 1361.5,-228.1"/>
<polygon fill="#63b8ff" stroke="#63b8ff" points="277.21,-276.8 267.39,-280.78 277.54,-283.8 277.21,-276.8"/>
</g>
<!-- Node31 -->
<g id="node12" class="node">
<title>Node31</title>
<g id="a_node12"><a xlink:href="d__event_8cpp.html" target="_top" xlink:title=" ">
<polygon fill="white" stroke="#666666" points="505.41,-24.5 384.41,-24.5 384.41,-5.5 505.41,-5.5 505.41,-24.5"/>
<text text-anchor="middle" x="444.91" y="-12.5" font-family="Helvetica,sans-Serif" font-size="10.00">src/d/event/d_event.cpp</text>
</a>
</g>
</g>
<!-- Node2&#45;&gt;Node31 -->
<g id="edge56" class="edge">
<title>Node2&#45;&gt;Node31</title>
<path fill="none" stroke="#63b8ff" d="M145.05,-275.1C101.62,-268.06 50.37,-256.33 36.91,-239 -10.24,-178.27 -14.05,-123.58 36.91,-66 59.52,-40.45 276.06,-25.17 384.15,-19.07"/>
<polygon fill="#63b8ff" stroke="#63b8ff" points="144.26,-278.52 154.68,-276.6 145.34,-271.61 144.26,-278.52"/>
</g>
<!-- Node32 -->
<g id="node13" class="node">
<title>Node32</title>
<g id="a_node13"><a xlink:href="d__event__data_8cpp.html" target="_top" xlink:title=" ">
<polygon fill="white" stroke="#666666" points="626.41,-30 523.41,-30 523.41,0 626.41,0 626.41,-30"/>
<text text-anchor="start" x="531.41" y="-18" font-family="Helvetica,sans-Serif" font-size="10.00">src/d/event/d_event</text>
<text text-anchor="middle" x="574.91" y="-7" font-family="Helvetica,sans-Serif" font-size="10.00">_data.cpp</text>
</a>
</g>
</g>
<!-- Node2&#45;&gt;Node32 -->
<g id="edge57" class="edge">
<title>Node2&#45;&gt;Node32</title>
<path fill="none" stroke="#63b8ff" d="M187.63,-268.24C133.41,-230.94 7.85,-133.28 69.91,-66 103.54,-29.54 465.9,-37.66 514.91,-30 517.55,-29.59 520.25,-29.12 522.97,-28.62"/>
<polygon fill="#63b8ff" stroke="#63b8ff" points="185.66,-271.13 195.9,-273.83 189.58,-265.33 185.66,-271.13"/>
</g>
<!-- Node118 -->
<g id="node46" class="node">
<title>Node118</title>
<g id="a_node46"><a xlink:href="d__camera_8cpp.html" target="_top" xlink:title=" ">
<polygon fill="white" stroke="#666666" points="180.91,-96 78.91,-96 78.91,-77 180.91,-77 180.91,-96"/>
<text text-anchor="middle" x="129.91" y="-84" font-family="Helvetica,sans-Serif" font-size="10.00">src/d/d_camera.cpp</text>
</a>
</g>
</g>
<!-- Node2&#45;&gt;Node118 -->
<g id="edge55" class="edge">
<title>Node2&#45;&gt;Node118</title>
<path fill="none" stroke="#63b8ff" d="M202.83,-263.95C185.62,-222.31 145.94,-126.28 133.62,-96.48"/>
<polygon fill="#63b8ff" stroke="#63b8ff" points="199.59,-265.27 206.64,-273.17 206.06,-262.59 199.59,-265.27"/>
</g>
<!-- Node138 -->
<g id="node47" class="node">
<title>Node138</title>
<g id="a_node47"><a xlink:href="d__event__manager_8cpp.html" target="_top" xlink:title=" ">
<polygon fill="white" stroke="#666666" points="302.41,-101.5 199.41,-101.5 199.41,-71.5 302.41,-71.5 302.41,-101.5"/>
<text text-anchor="start" x="207.41" y="-89.5" font-family="Helvetica,sans-Serif" font-size="10.00">src/d/event/d_event</text>
<text text-anchor="middle" x="250.91" y="-78.5" font-family="Helvetica,sans-Serif" font-size="10.00">_manager.cpp</text>
</a>
</g>
</g>
<!-- Node2&#45;&gt;Node138 -->
<g id="edge58" class="edge">
<title>Node2&#45;&gt;Node138</title>
<path fill="none" stroke="#63b8ff" d="M214.99,-263.52C223.08,-223.88 240.98,-136.17 248,-101.75"/>
<polygon fill="#63b8ff" stroke="#63b8ff" points="211.61,-262.59 213.04,-273.09 218.46,-263.99 211.61,-262.59"/>
</g>
<!-- Node4 -->
<g id="node4" class="node">
<title>Node4</title>
<g id="a_node4"><a xlink:href="d__com__inf__game_8h.html" target="_top" xlink:title=" ">
<polygon fill="#fff0f0" stroke="red" points="2759.91,-173 2649.91,-173 2649.91,-143 2759.91,-143 2759.91,-173"/>
<text text-anchor="start" x="2657.91" y="-161" font-family="Helvetica,sans-Serif" font-size="10.00">include/d/com/d_com</text>
<text text-anchor="middle" x="2704.91" y="-150" font-family="Helvetica,sans-Serif" font-size="10.00">_inf_game.h</text>
</a>
</g>
</g>
<!-- Node3&#45;&gt;Node4 -->
<g id="edge3" class="edge">
<title>Node3&#45;&gt;Node4</title>
<path fill="none" stroke="#63b8ff" d="M1501.67,-219.21C1736.07,-207.48 2445.9,-171.96 2649.67,-161.76"/>
<polygon fill="#63b8ff" stroke="#63b8ff" points="1501.54,-215.71 1491.72,-219.71 1501.89,-222.7 1501.54,-215.71"/>
</g>
<!-- Node171 -->
<g id="node48" class="node">
<title>Node171</title>
<g id="a_node48"><a xlink:href="d__s__name_8h.html" target="_top" xlink:title=" ">
<polygon fill="#fff0f0" stroke="red" points="1347.41,-167.5 1228.41,-167.5 1228.41,-148.5 1347.41,-148.5 1347.41,-167.5"/>
<text text-anchor="middle" x="1287.91" y="-155.5" font-family="Helvetica,sans-Serif" font-size="10.00">include/d/s/d_s_name.h</text>
</a>
</g>
</g>
<!-- Node3&#45;&gt;Node171 -->
<g id="edge52" class="edge">
<title>Node3&#45;&gt;Node171</title>
<path fill="none" stroke="#63b8ff" d="M1384.74,-203.91C1359.09,-192.01 1327.28,-177.26 1307.29,-167.99"/>
<polygon fill="#63b8ff" stroke="#63b8ff" points="1383.02,-206.97 1393.57,-208 1385.97,-200.62 1383.02,-206.97"/>
</g>
<!-- Node172 -->
<g id="node49" class="node">
<title>Node172</title>
<g id="a_node49"><a xlink:href="f__ap__game_8cpp.html" target="_top" xlink:title=" ">
<polygon fill="white" stroke="#666666" points="1486.41,-167.5 1365.41,-167.5 1365.41,-148.5 1486.41,-148.5 1486.41,-167.5"/>
<text text-anchor="middle" x="1425.91" y="-155.5" font-family="Helvetica,sans-Serif" font-size="10.00">src/f_ap/f_ap_game.cpp</text>
</a>
</g>
</g>
<!-- Node3&#45;&gt;Node172 -->
<g id="edge53" class="edge">
<title>Node3&#45;&gt;Node172</title>
<path fill="none" stroke="#63b8ff" d="M1425.91,-197.59C1425.91,-187.06 1425.91,-175.53 1425.91,-167.84"/>
<polygon fill="#63b8ff" stroke="#63b8ff" points="1422.41,-197.28 1425.91,-207.28 1429.41,-197.28 1422.41,-197.28"/>
</g>
<!-- Node173 -->
<g id="node50" class="node">
<title>Node173</title>
<g id="a_node50"><a xlink:href="f__op__camera__mng_8cpp.html" target="_top" xlink:title=" ">
<polygon fill="white" stroke="#666666" points="1615.41,-173 1504.41,-173 1504.41,-143 1615.41,-143 1615.41,-173"/>
<text text-anchor="start" x="1512.41" y="-161" font-family="Helvetica,sans-Serif" font-size="10.00">src/f_op/f_op_camera</text>
<text text-anchor="middle" x="1559.91" y="-150" font-family="Helvetica,sans-Serif" font-size="10.00">_mng.cpp</text>
</a>
</g>
</g>
<!-- Node3&#45;&gt;Node173 -->
<g id="edge54" class="edge">
<title>Node3&#45;&gt;Node173</title>
<path fill="none" stroke="#63b8ff" d="M1466.27,-203.72C1486.74,-193.95 1511.17,-182.28 1529.94,-173.31"/>
<polygon fill="#63b8ff" stroke="#63b8ff" points="1464.86,-200.52 1457.35,-207.98 1467.88,-206.83 1464.86,-200.52"/>
</g>
<!-- Node5 -->
<g id="node5" class="node">
<title>Node5</title>
<g id="a_node5"><a xlink:href="d__a__npc_8h.html" target="_top" xlink:title=" ">
<polygon fill="#fff0f0" stroke="red" points="4978.41,-96 4867.41,-96 4867.41,-77 4978.41,-77 4978.41,-96"/>
<text text-anchor="middle" x="4922.91" y="-84" font-family="Helvetica,sans-Serif" font-size="10.00">include/d/a/d_a_npc.h</text>
</a>
</g>
</g>
<!-- Node4&#45;&gt;Node5 -->
<g id="edge4" class="edge">
<title>Node4&#45;&gt;Node5</title>
<path fill="none" stroke="#63b8ff" d="M2771.59,-156.53C3112.09,-154 4648.93,-140.77 4858.91,-107 4872.44,-104.82 4887.1,-100.51 4898.96,-96.49"/>
<polygon fill="#63b8ff" stroke="#63b8ff" points="2771.71,-153.03 2761.74,-156.61 2771.76,-160.03 2771.71,-153.03"/>
</g>
<!-- Node12 -->
<g id="node6" class="node">
<title>Node12</title>
<g id="a_node6"><a xlink:href="d__cc__uty_8h.html" target="_top" xlink:title=" ">
<polygon fill="#fff0f0" stroke="red" points="5154.41,-96 5035.41,-96 5035.41,-77 5154.41,-77 5154.41,-96"/>
<text text-anchor="middle" x="5094.91" y="-84" font-family="Helvetica,sans-Serif" font-size="10.00">include/d/cc/d_cc_uty.h</text>
</a>
</g>
</g>
<!-- Node4&#45;&gt;Node12 -->
<g id="edge5" class="edge">
<title>Node4&#45;&gt;Node12</title>
<path fill="none" stroke="#63b8ff" d="M2771.64,-156.5C3127.44,-153.7 4793.44,-138.97 5020.91,-107 5036.43,-104.82 5053.37,-100.5 5067.12,-96.49"/>
<polygon fill="#63b8ff" stroke="#63b8ff" points="2771.76,-153 2761.79,-156.58 2771.82,-160 2771.76,-153"/>
</g>
<!-- Node13 -->
<g id="node7" class="node">
<title>Node13</title>
<g id="a_node7"><a xlink:href="d__a__b__ob_8h.html" target="_top" xlink:title=" ">
<polygon fill="#fff0f0" stroke="red" points="5042.91,-30 4936.91,-30 4936.91,0 5042.91,0 5042.91,-30"/>
<text text-anchor="start" x="4944.91" y="-18" font-family="Helvetica,sans-Serif" font-size="10.00">include/rel/d/a/b/d</text>
<text text-anchor="middle" x="4989.91" y="-7" font-family="Helvetica,sans-Serif" font-size="10.00">_a_b_ob/d_a_b_ob.h</text>
</a>
</g>
</g>
<!-- Node4&#45;&gt;Node13 -->
<g id="edge13" class="edge">
<title>Node4&#45;&gt;Node13</title>
<path fill="none" stroke="#63b8ff" d="M2771.67,-156.16C3145.95,-151.39 4967.79,-127.12 4987.91,-107 5007.91,-87 5000.92,-50.48 4994.9,-30.32"/>
<polygon fill="#63b8ff" stroke="#63b8ff" points="2771.71,-152.66 2761.76,-156.29 2771.8,-159.66 2771.71,-152.66"/>
</g>
<!-- Node18 -->
<g id="node8" class="node">
<title>Node18</title>
<g id="a_node8"><a xlink:href="d__a__e__yk_8h.html" target="_top" xlink:title=" ">
<polygon fill="white" stroke="#666666" points="5164.91,-30 5060.91,-30 5060.91,0 5164.91,0 5164.91,-30"/>
<text text-anchor="start" x="5068.91" y="-18" font-family="Helvetica,sans-Serif" font-size="10.00">include/rel/d/a/e/d</text>
<text text-anchor="middle" x="5112.91" y="-7" font-family="Helvetica,sans-Serif" font-size="10.00">_a_e_yk/d_a_e_yk.h</text>
</a>
</g>
</g>
<!-- Node4&#45;&gt;Node18 -->
<g id="edge27" class="edge">
<title>Node4&#45;&gt;Node18</title>
<path fill="none" stroke="#63b8ff" d="M2771.75,-156.27C3163.22,-151.95 5142.37,-128.98 5163.91,-107 5176.66,-93.98 5170.97,-82.8 5163.91,-66 5157.86,-51.6 5145.41,-39.26 5134.33,-30.44"/>
<polygon fill="#63b8ff" stroke="#63b8ff" points="2771.84,-152.77 2761.88,-156.38 2771.91,-159.77 2771.84,-152.77"/>
</g>
<!-- Node19 -->
<g id="node9" class="node">
<title>Node19</title>
<g id="a_node9"><a xlink:href="d__a__e__ym_8h.html" target="_top" xlink:title=" ">
<polygon fill="#fff0f0" stroke="red" points="5292.91,-30 5182.91,-30 5182.91,0 5292.91,0 5292.91,-30"/>
<text text-anchor="start" x="5190.91" y="-18" font-family="Helvetica,sans-Serif" font-size="10.00">include/rel/d/a/e/d</text>
<text text-anchor="middle" x="5237.91" y="-7" font-family="Helvetica,sans-Serif" font-size="10.00">_a_e_ym/d_a_e_ym.h</text>
</a>
</g>
</g>
<!-- Node4&#45;&gt;Node19 -->
<g id="edge28" class="edge">
<title>Node4&#45;&gt;Node19</title>
<path fill="none" stroke="#63b8ff" d="M2771.58,-156.52C3161.07,-153.64 5127,-137.56 5180.91,-107 5210.43,-90.27 5226.78,-51.33 5233.77,-30.22"/>
<polygon fill="#63b8ff" stroke="#63b8ff" points="2771.74,-153.02 2761.76,-156.6 2771.79,-160.02 2771.74,-153.02"/>
</g>
<!-- Node22 -->
<g id="node10" class="node">
<title>Node22</title>
<g id="a_node10"><a xlink:href="d__error__msg_8h.html" target="_top" xlink:title=" ">
<polygon fill="#fff0f0" stroke="red" points="440.91,-96 320.91,-96 320.91,-77 440.91,-77 440.91,-96"/>
<text text-anchor="middle" x="380.91" y="-84" font-family="Helvetica,sans-Serif" font-size="10.00">include/d/d_error_msg.h</text>
</a>
</g>
</g>
<!-- Node4&#45;&gt;Node22 -->
<g id="edge9" class="edge">
<title>Node4&#45;&gt;Node22</title>
<path fill="none" stroke="#63b8ff" d="M2638.28,-155.96C2277.04,-150.27 565.61,-122.59 454.91,-107 439.39,-104.81 422.45,-100.5 408.7,-96.48"/>
<polygon fill="#63b8ff" stroke="#63b8ff" points="2638,-159.46 2648.05,-156.11 2638.11,-152.46 2638,-159.46"/>
</g>
<!-- Node25 -->
<g id="node11" class="node">
<title>Node25</title>
<g id="a_node11"><a xlink:href="d__msg__object_8h.html" target="_top" xlink:title=" ">
<polygon fill="#fff0f0" stroke="red" points="606.91,-101.5 496.91,-101.5 496.91,-71.5 606.91,-71.5 606.91,-101.5"/>
<text text-anchor="start" x="504.91" y="-89.5" font-family="Helvetica,sans-Serif" font-size="10.00">include/d/msg/d_msg</text>
<text text-anchor="middle" x="551.91" y="-78.5" font-family="Helvetica,sans-Serif" font-size="10.00">_object.h</text>
</a>
</g>
</g>
<!-- Node4&#45;&gt;Node25 -->
<g id="edge10" class="edge">
<title>Node4&#45;&gt;Node25</title>
<path fill="none" stroke="#63b8ff" d="M2638.27,-156.4C2304.65,-153.24 823.94,-137.62 620.91,-107 613.03,-105.81 604.78,-104 596.83,-101.95"/>
<polygon fill="#63b8ff" stroke="#63b8ff" points="2638.1,-159.9 2648.13,-156.49 2638.17,-152.9 2638.1,-159.9"/>
</g>
<!-- Node4&#45;&gt;Node31 -->
<g id="edge49" class="edge">
<title>Node4&#45;&gt;Node31</title>
<path fill="none" stroke="#63b8ff" d="M2638.16,-155.97C2270.79,-150.24 511.04,-122.02 487.91,-107 458.89,-88.16 449.04,-44.02 446.06,-24.99"/>
<polygon fill="#63b8ff" stroke="#63b8ff" points="2638.06,-159.47 2648.11,-156.12 2638.17,-152.47 2638.06,-159.47"/>
</g>
<!-- Node4&#45;&gt;Node32 -->
<g id="edge50" class="edge">
<title>Node4&#45;&gt;Node32</title>
<path fill="none" stroke="#63b8ff" d="M2638.23,-156.11C2290.68,-151.35 700.87,-128.47 654.91,-107 645.86,-102.77 606.17,-54.69 586.31,-30.18"/>
<polygon fill="#63b8ff" stroke="#63b8ff" points="2638.03,-159.6 2648.07,-156.24 2638.12,-152.6 2638.03,-159.6"/>
</g>
<!-- Node48 -->
<g id="node14" class="node">
<title>Node48</title>
<g id="a_node14"><a xlink:href="d__a__b__zant_8h.html" target="_top" xlink:title=" ">
<polygon fill="white" stroke="#666666" points="784.41,-101.5 663.41,-101.5 663.41,-71.5 784.41,-71.5 784.41,-101.5"/>
<text text-anchor="start" x="671.41" y="-89.5" font-family="Helvetica,sans-Serif" font-size="10.00">include/rel/d/a/b/d</text>
<text text-anchor="middle" x="723.91" y="-78.5" font-family="Helvetica,sans-Serif" font-size="10.00">_a_b_zant/d_a_b_zant.h</text>
</a>
</g>
</g>
<!-- Node4&#45;&gt;Node48 -->
<g id="edge14" class="edge">
<title>Node4&#45;&gt;Node48</title>
<path fill="none" stroke="#63b8ff" d="M2638.24,-156.23C2321.81,-152.42 979.01,-134.77 793.91,-107 785.93,-105.8 777.56,-103.98 769.5,-101.93"/>
<polygon fill="#63b8ff" stroke="#63b8ff" points="2637.95,-159.72 2647.99,-156.34 2638.03,-152.72 2637.95,-159.72"/>
</g>
<!-- Node49 -->
<g id="node15" class="node">
<title>Node49</title>
<g id="a_node15"><a xlink:href="d__a__andsw_8h.html" target="_top" xlink:title=" ">
<polygon fill="white" stroke="#666666" points="912.91,-101.5 802.91,-101.5 802.91,-71.5 912.91,-71.5 912.91,-101.5"/>
<text text-anchor="start" x="810.91" y="-89.5" font-family="Helvetica,sans-Serif" font-size="10.00">include/rel/d/a/d_a</text>
<text text-anchor="middle" x="857.91" y="-78.5" font-family="Helvetica,sans-Serif" font-size="10.00">_andsw/d_a_andsw.h</text>
</a>
</g>
</g>
<!-- Node4&#45;&gt;Node49 -->
<g id="edge15" class="edge">
<title>Node4&#45;&gt;Node49</title>
<path fill="none" stroke="#63b8ff" d="M2638.35,-156.17C2335.43,-152.25 1094.39,-134.63 922.91,-107 915.47,-105.8 907.68,-103.98 900.19,-101.93"/>
<polygon fill="#63b8ff" stroke="#63b8ff" points="2638.01,-159.67 2648.05,-156.29 2638.1,-152.67 2638.01,-159.67"/>
</g>
<!-- Node50 -->
<g id="node16" class="node">
<title>Node50</title>
<g id="a_node16"><a xlink:href="d__a__cstaF_8h.html" target="_top" xlink:title=" ">
<polygon fill="white" stroke="#666666" points="1034.41,-101.5 931.41,-101.5 931.41,-71.5 1034.41,-71.5 1034.41,-101.5"/>
<text text-anchor="start" x="939.41" y="-89.5" font-family="Helvetica,sans-Serif" font-size="10.00">include/rel/d/a/d_a</text>
<text text-anchor="middle" x="982.91" y="-78.5" font-family="Helvetica,sans-Serif" font-size="10.00">_cstaF/d_a_cstaF.h</text>
</a>
</g>
</g>
<!-- Node4&#45;&gt;Node50 -->
<g id="edge16" class="edge">
<title>Node4&#45;&gt;Node50</title>
<path fill="none" stroke="#63b8ff" d="M2638.65,-156.1C2349.16,-152.01 1202.71,-134.22 1043.91,-107 1036.9,-105.8 1029.58,-103.98 1022.54,-101.92"/>
<polygon fill="#63b8ff" stroke="#63b8ff" points="2638.23,-159.59 2648.28,-156.23 2638.33,-152.59 2638.23,-159.59"/>
</g>
<!-- Node51 -->
<g id="node17" class="node">
<title>Node51</title>
<g id="a_node17"><a xlink:href="d__a__dmidna_8h.html" target="_top" xlink:title=" ">
<polygon fill="white" stroke="#666666" points="1168.91,-101.5 1052.91,-101.5 1052.91,-71.5 1168.91,-71.5 1168.91,-101.5"/>
<text text-anchor="start" x="1060.91" y="-89.5" font-family="Helvetica,sans-Serif" font-size="10.00">include/rel/d/a/d_a</text>
<text text-anchor="middle" x="1110.91" y="-78.5" font-family="Helvetica,sans-Serif" font-size="10.00">_dmidna/d_a_dmidna.h</text>
</a>
</g>
</g>
<!-- Node4&#45;&gt;Node51 -->
<g id="edge17" class="edge">
<title>Node4&#45;&gt;Node51</title>
<path fill="none" stroke="#63b8ff" d="M2638.22,-157C2382.74,-156.65 1466.3,-152.2 1178.91,-107 1171.27,-105.8 1163.27,-104.01 1155.55,-101.99"/>
<polygon fill="#63b8ff" stroke="#63b8ff" points="2638.01,-160.5 2648.02,-157.01 2638.02,-153.5 2638.01,-160.5"/>
</g>
<!-- Node52 -->
<g id="node18" class="node">
<title>Node52</title>
<g id="a_node18"><a xlink:href="d__a__econt_8h.html" target="_top" xlink:title=" ">
<polygon fill="white" stroke="#666666" points="1288.41,-101.5 1187.41,-101.5 1187.41,-71.5 1288.41,-71.5 1288.41,-101.5"/>
<text text-anchor="start" x="1195.41" y="-89.5" font-family="Helvetica,sans-Serif" font-size="10.00">include/rel/d/a/d_a</text>
<text text-anchor="middle" x="1237.91" y="-78.5" font-family="Helvetica,sans-Serif" font-size="10.00">_econt/d_a_econt.h</text>
</a>
</g>
</g>
<!-- Node4&#45;&gt;Node52 -->
<g id="edge18" class="edge">
<title>Node4&#45;&gt;Node52</title>
<path fill="none" stroke="#63b8ff" d="M2638.22,-157.09C2395.57,-157.02 1560.19,-153.34 1297.91,-107 1291.11,-105.8 1284.03,-104.01 1277.21,-101.99"/>
<polygon fill="#63b8ff" stroke="#63b8ff" points="2638.15,-160.59 2648.15,-157.09 2638.15,-153.59 2638.15,-160.59"/>
</g>
<!-- Node53 -->
<g id="node19" class="node">
<title>Node53</title>
<g id="a_node19"><a xlink:href="d__a__guard__mng_8h.html" target="_top" xlink:title=" ">
<polygon fill="white" stroke="#666666" points="1455.41,-101.5 1306.41,-101.5 1306.41,-71.5 1455.41,-71.5 1455.41,-101.5"/>
<text text-anchor="start" x="1314.41" y="-89.5" font-family="Helvetica,sans-Serif" font-size="10.00">include/rel/d/a/d_a</text>
<text text-anchor="middle" x="1380.91" y="-78.5" font-family="Helvetica,sans-Serif" font-size="10.00">_guard_mng/d_a_guard_mng.h</text>
</a>
</g>
</g>
<!-- Node4&#45;&gt;Node53 -->
<g id="edge19" class="edge">
<title>Node4&#45;&gt;Node53</title>
<path fill="none" stroke="#63b8ff" d="M2638.19,-155.96C2414.88,-152.23 1694.73,-138.03 1464.91,-107 1455.71,-105.76 1446.04,-103.97 1436.67,-101.98"/>
<polygon fill="#63b8ff" stroke="#63b8ff" points="2638.13,-159.46 2648.19,-156.13 2638.24,-152.46 2638.13,-159.46"/>
</g>
<!-- Node54 -->
<g id="node20" class="node">
<title>Node54</title>
<g id="a_node20"><a xlink:href="d__a__hitobj_8h.html" target="_top" xlink:title=" ">
<polygon fill="white" stroke="#666666" points="1573.91,-101.5 1473.91,-101.5 1473.91,-71.5 1573.91,-71.5 1573.91,-101.5"/>
<text text-anchor="start" x="1481.91" y="-89.5" font-family="Helvetica,sans-Serif" font-size="10.00">include/rel/d/a/d_a</text>
<text text-anchor="middle" x="1523.91" y="-78.5" font-family="Helvetica,sans-Serif" font-size="10.00">_hitobj/d_a_hitobj.h</text>
</a>
</g>
</g>
<!-- Node4&#45;&gt;Node54 -->
<g id="edge20" class="edge">
<title>Node4&#45;&gt;Node54</title>
<path fill="none" stroke="#63b8ff" d="M2638.22,-156.38C2429.11,-154.06 1788.15,-144.04 1583.91,-107 1577.12,-105.77 1570.04,-103.96 1563.22,-101.94"/>
<polygon fill="#63b8ff" stroke="#63b8ff" points="2638.06,-159.88 2648.09,-156.49 2638.13,-152.88 2638.06,-159.88"/>
</g>
<!-- Node55 -->
<g id="node21" class="node">
<title>Node55</title>
<g id="a_node21"><a xlink:href="d__a__set__bgobj_8h.html" target="_top" xlink:title=" ">
<polygon fill="white" stroke="#666666" points="1729.41,-101.5 1592.41,-101.5 1592.41,-71.5 1729.41,-71.5 1729.41,-101.5"/>
<text text-anchor="start" x="1600.41" y="-89.5" font-family="Helvetica,sans-Serif" font-size="10.00">include/rel/d/a/d_a</text>
<text text-anchor="middle" x="1660.91" y="-78.5" font-family="Helvetica,sans-Serif" font-size="10.00">_set_bgobj/d_a_set_bgobj.h</text>
</a>
</g>
</g>
<!-- Node4&#45;&gt;Node55 -->
<g id="edge21" class="edge">
<title>Node4&#45;&gt;Node55</title>
<path fill="none" stroke="#63b8ff" d="M2638.06,-155.22C2449,-149.93 1912.88,-133 1738.91,-107 1730.35,-105.72 1721.36,-103.92 1712.65,-101.92"/>
<polygon fill="#63b8ff" stroke="#63b8ff" points="2637.87,-158.72 2647.96,-155.5 2638.06,-151.72 2637.87,-158.72"/>
</g>
<!-- Node56 -->
<g id="node22" class="node">
<title>Node56</title>
<g id="a_node22"><a xlink:href="d__a__skip__2D_8h.html" target="_top" xlink:title=" ">
<polygon fill="white" stroke="#666666" points="1871.91,-101.5 1747.91,-101.5 1747.91,-71.5 1871.91,-71.5 1871.91,-101.5"/>
<text text-anchor="start" x="1755.91" y="-89.5" font-family="Helvetica,sans-Serif" font-size="10.00">include/rel/d/a/d_a</text>
<text text-anchor="middle" x="1809.91" y="-78.5" font-family="Helvetica,sans-Serif" font-size="10.00">_skip_2D/d_a_skip_2D.h</text>
</a>
</g>
</g>
<!-- Node4&#45;&gt;Node56 -->
<g id="edge22" class="edge">
<title>Node4&#45;&gt;Node56</title>
<path fill="none" stroke="#63b8ff" d="M2638.09,-157.62C2497.12,-157.9 2159.39,-153.18 1880.91,-107 1873.22,-105.72 1865.16,-103.95 1857.35,-101.99"/>
<polygon fill="#63b8ff" stroke="#63b8ff" points="2638,-161.12 2647.99,-157.59 2637.98,-154.12 2638,-161.12"/>
</g>
<!-- Node57 -->
<g id="node23" class="node">
<title>Node57</title>
<g id="a_node23"><a xlink:href="d__a__spinner_8h.html" target="_top" xlink:title=" ">
<polygon fill="#fff0f0" stroke="red" points="2005.91,-101.5 1889.91,-101.5 1889.91,-71.5 2005.91,-71.5 2005.91,-101.5"/>
<text text-anchor="start" x="1897.91" y="-89.5" font-family="Helvetica,sans-Serif" font-size="10.00">include/rel/d/a/d_a</text>
<text text-anchor="middle" x="1947.91" y="-78.5" font-family="Helvetica,sans-Serif" font-size="10.00">_spinner/d_a_spinner.h</text>
</a>
</g>
</g>
<!-- Node4&#45;&gt;Node57 -->
<g id="edge23" class="edge">
<title>Node4&#45;&gt;Node57</title>
<path fill="none" stroke="#63b8ff" d="M2638.26,-156.82C2514.46,-155.46 2241.03,-147.63 2014.91,-107 2007.64,-105.69 2000.03,-103.9 1992.65,-101.93"/>
<polygon fill="#63b8ff" stroke="#63b8ff" points="2637.86,-160.31 2647.9,-156.91 2637.93,-153.32 2637.86,-160.31"/>
</g>
<!-- Node60 -->
<g id="node24" class="node">
<title>Node60</title>
<g id="a_node24"><a xlink:href="d__a__swTime_8h.html" target="_top" xlink:title=" ">
<polygon fill="white" stroke="#666666" points="2145.91,-101.5 2023.91,-101.5 2023.91,-71.5 2145.91,-71.5 2145.91,-101.5"/>
<text text-anchor="start" x="2031.91" y="-89.5" font-family="Helvetica,sans-Serif" font-size="10.00">include/rel/d/a/d_a</text>
<text text-anchor="middle" x="2084.91" y="-78.5" font-family="Helvetica,sans-Serif" font-size="10.00">_swTime/d_a_swTime.h</text>
</a>
</g>
</g>
<!-- Node4&#45;&gt;Node60 -->
<g id="edge24" class="edge">
<title>Node4&#45;&gt;Node60</title>
<path fill="none" stroke="#63b8ff" d="M2638.17,-154.83C2534.15,-150.57 2327.4,-138.6 2154.91,-107 2147.59,-105.66 2139.92,-103.9 2132.46,-101.99"/>
<polygon fill="#63b8ff" stroke="#63b8ff" points="2637.78,-158.31 2647.91,-155.21 2638.06,-151.32 2637.78,-158.31"/>
</g>
<!-- Node61 -->
<g id="node25" class="node">
<title>Node61</title>
<g id="a_node25"><a xlink:href="d__a__vrbox_8h.html" target="_top" xlink:title=" ">
<polygon fill="white" stroke="#666666" points="2263.91,-101.5 2163.91,-101.5 2163.91,-71.5 2263.91,-71.5 2263.91,-101.5"/>
<text text-anchor="start" x="2171.91" y="-89.5" font-family="Helvetica,sans-Serif" font-size="10.00">include/rel/d/a/d_a</text>
<text text-anchor="middle" x="2213.91" y="-78.5" font-family="Helvetica,sans-Serif" font-size="10.00">_vrbox/d_a_vrbox.h</text>
</a>
</g>
</g>
<!-- Node4&#45;&gt;Node61 -->
<g id="edge25" class="edge">
<title>Node4&#45;&gt;Node61</title>
<path fill="none" stroke="#63b8ff" d="M2638.24,-153.38C2552.96,-147.82 2401.09,-134.75 2273.91,-107 2267.6,-105.62 2261.01,-103.84 2254.6,-101.92"/>
<polygon fill="#63b8ff" stroke="#63b8ff" points="2637.85,-156.87 2648.05,-154.01 2638.3,-149.88 2637.85,-156.87"/>
</g>
<!-- Node62 -->
<g id="node26" class="node">
<title>Node62</title>
<g id="a_node26"><a xlink:href="d__a__e__db__leaf_8h.html" target="_top" xlink:title=" ">
<polygon fill="white" stroke="#666666" points="2401.41,-107 2282.41,-107 2282.41,-66 2401.41,-66 2401.41,-107"/>
<text text-anchor="start" x="2290.41" y="-95" font-family="Helvetica,sans-Serif" font-size="10.00">include/rel/d/a/e/d</text>
<text text-anchor="start" x="2290.41" y="-84" font-family="Helvetica,sans-Serif" font-size="10.00">_a_e_db_leaf/d_a_e_db</text>
<text text-anchor="middle" x="2341.91" y="-73" font-family="Helvetica,sans-Serif" font-size="10.00">_leaf.h</text>
</a>
</g>
</g>
<!-- Node4&#45;&gt;Node62 -->
<g id="edge26" class="edge">
<title>Node4&#45;&gt;Node62</title>
<path fill="none" stroke="#63b8ff" d="M2638.38,-147.76C2578.53,-138.96 2488.37,-124.48 2410.91,-107 2407.87,-106.31 2404.77,-105.58 2401.65,-104.81"/>
<polygon fill="#63b8ff" stroke="#63b8ff" points="2637.67,-151.19 2648.07,-149.17 2638.68,-144.27 2637.67,-151.19"/>
</g>
<!-- Node63 -->
<g id="node27" class="node">
<title>Node63</title>
<g id="a_node27"><a xlink:href="d__a__kytag02_8h.html" target="_top" xlink:title=" ">
<polygon fill="white" stroke="#666666" points="2559.91,-101.5 2419.91,-101.5 2419.91,-71.5 2559.91,-71.5 2559.91,-101.5"/>
<text text-anchor="start" x="2427.91" y="-89.5" font-family="Helvetica,sans-Serif" font-size="10.00">include/rel/d/a/kytag</text>
<text text-anchor="middle" x="2489.91" y="-78.5" font-family="Helvetica,sans-Serif" font-size="10.00">/d_a_kytag02/d_a_kytag02.h</text>
</a>
</g>
</g>
<!-- Node4&#45;&gt;Node63 -->
<g id="edge29" class="edge">
<title>Node4&#45;&gt;Node63</title>
<path fill="none" stroke="#63b8ff" d="M2649.38,-139.05C2613.71,-127.52 2567.99,-112.74 2534.66,-101.97"/>
<polygon fill="#63b8ff" stroke="#63b8ff" points="2648.07,-142.3 2658.66,-142.05 2650.22,-135.64 2648.07,-142.3"/>
</g>
<!-- Node64 -->
<g id="node28" class="node">
<title>Node64</title>
<g id="a_node28"><a xlink:href="d__a__obj__bombf_8h.html" target="_top" xlink:title=" ">
<polygon fill="white" stroke="#666666" points="2699.91,-107 2577.91,-107 2577.91,-66 2699.91,-66 2699.91,-107"/>
<text text-anchor="start" x="2585.91" y="-95" font-family="Helvetica,sans-Serif" font-size="10.00">include/rel/d/a/obj</text>
<text text-anchor="start" x="2585.91" y="-84" font-family="Helvetica,sans-Serif" font-size="10.00">/d_a_obj_bombf/d_a_obj</text>
<text text-anchor="middle" x="2638.91" y="-73" font-family="Helvetica,sans-Serif" font-size="10.00">_bombf.h</text>
</a>
</g>
</g>
<!-- Node4&#45;&gt;Node64 -->
<g id="edge30" class="edge">
<title>Node4&#45;&gt;Node64</title>
<path fill="none" stroke="#63b8ff" d="M2683.44,-134.39C2675.18,-125.69 2665.82,-115.84 2657.82,-107.42"/>
<polygon fill="#63b8ff" stroke="#63b8ff" points="2680.77,-136.66 2690.19,-141.5 2685.84,-131.84 2680.77,-136.66"/>
</g>
<!-- Node65 -->
<g id="node29" class="node">
<title>Node65</title>
<g id="a_node29"><a xlink:href="d__a__obj__cboard_8h.html" target="_top" xlink:title=" ">
<polygon fill="white" stroke="#666666" points="2825.41,-107 2718.41,-107 2718.41,-66 2825.41,-66 2825.41,-107"/>
<text text-anchor="start" x="2726.41" y="-95" font-family="Helvetica,sans-Serif" font-size="10.00">include/rel/d/a/obj</text>
<text text-anchor="start" x="2726.41" y="-84" font-family="Helvetica,sans-Serif" font-size="10.00">/d_a_obj_cboard/d_a</text>
<text text-anchor="middle" x="2771.91" y="-73" font-family="Helvetica,sans-Serif" font-size="10.00">_obj_cboard.h</text>
</a>
</g>
</g>
<!-- Node4&#45;&gt;Node65 -->
<g id="edge31" class="edge">
<title>Node4&#45;&gt;Node65</title>
<path fill="none" stroke="#63b8ff" d="M2726.71,-134.39C2735.09,-125.69 2744.59,-115.84 2752.71,-107.42"/>
<polygon fill="#63b8ff" stroke="#63b8ff" points="2724.26,-131.88 2719.84,-141.51 2729.3,-136.74 2724.26,-131.88"/>
</g>
<!-- Node66 -->
<g id="node30" class="node">
<title>Node66</title>
<g id="a_node30"><a xlink:href="d__a__obj__cowdoor_8h.html" target="_top" xlink:title=" ">
<polygon fill="white" stroke="#666666" points="2957.91,-107 2843.91,-107 2843.91,-66 2957.91,-66 2957.91,-107"/>
<text text-anchor="start" x="2851.91" y="-95" font-family="Helvetica,sans-Serif" font-size="10.00">include/rel/d/a/obj</text>
<text text-anchor="start" x="2851.91" y="-84" font-family="Helvetica,sans-Serif" font-size="10.00">/d_a_obj_cowdoor/d_a</text>
<text text-anchor="middle" x="2900.91" y="-73" font-family="Helvetica,sans-Serif" font-size="10.00">_obj_cowdoor.h</text>
</a>
</g>
</g>
<!-- Node4&#45;&gt;Node66 -->
<g id="edge32" class="edge">
<title>Node4&#45;&gt;Node66</title>
<path fill="none" stroke="#63b8ff" d="M2756.36,-138.75C2783.53,-129.12 2816.91,-117.29 2844.74,-107.42"/>
<polygon fill="#63b8ff" stroke="#63b8ff" points="2755.2,-135.45 2746.95,-142.09 2757.54,-142.05 2755.2,-135.45"/>
</g>
<!-- Node67 -->
<g id="node31" class="node">
<title>Node67</title>
<g id="a_node31"><a xlink:href="d__a__obj__digholl_8h.html" target="_top" xlink:title=" ">
<polygon fill="white" stroke="#666666" points="3081.41,-107 2976.41,-107 2976.41,-66 3081.41,-66 3081.41,-107"/>
<text text-anchor="start" x="2984.41" y="-95" font-family="Helvetica,sans-Serif" font-size="10.00">include/rel/d/a/obj</text>
<text text-anchor="start" x="2984.41" y="-84" font-family="Helvetica,sans-Serif" font-size="10.00">/d_a_obj_digholl/d_a</text>
<text text-anchor="middle" x="3028.91" y="-73" font-family="Helvetica,sans-Serif" font-size="10.00">_obj_digholl.h</text>
</a>
</g>
</g>
<!-- Node4&#45;&gt;Node67 -->
<g id="edge33" class="edge">
<title>Node4&#45;&gt;Node67</title>
<path fill="none" stroke="#63b8ff" d="M2771.6,-146.47C2824.83,-137.54 2901.12,-123.56 2966.91,-107 2969.86,-106.26 2972.89,-105.45 2975.93,-104.61"/>
<polygon fill="#63b8ff" stroke="#63b8ff" points="2771.05,-143.02 2761.76,-148.11 2772.2,-149.92 2771.05,-143.02"/>
</g>
<!-- Node68 -->
<g id="node32" class="node">
<title>Node68</title>
<g id="a_node32"><a xlink:href="d__a__obj__enemy__create_8h.html" target="_top" xlink:title=" ">
<polygon fill="white" stroke="#666666" points="3226.41,-107 3099.41,-107 3099.41,-66 3226.41,-66 3226.41,-107"/>
<text text-anchor="start" x="3107.41" y="-95" font-family="Helvetica,sans-Serif" font-size="10.00">include/rel/d/a/obj</text>
<text text-anchor="start" x="3107.41" y="-84" font-family="Helvetica,sans-Serif" font-size="10.00">/d_a_obj_enemy_create</text>
<text text-anchor="middle" x="3162.91" y="-73" font-family="Helvetica,sans-Serif" font-size="10.00">/d_a_obj_enemy_create.h</text>
</a>
</g>
</g>
<!-- Node4&#45;&gt;Node68 -->
<g id="edge34" class="edge">
<title>Node4&#45;&gt;Node68</title>
<path fill="none" stroke="#63b8ff" d="M2771.26,-151.17C2848.52,-143.74 2979.74,-129.15 3090.91,-107 3093.58,-106.47 3096.29,-105.89 3099.03,-105.28"/>
<polygon fill="#63b8ff" stroke="#63b8ff" points="2771.4,-147.64 2761.77,-152.07 2772.06,-154.61 2771.4,-147.64"/>
</g>
<!-- Node69 -->
<g id="node33" class="node">
<title>Node69</title>
<g id="a_node33"><a xlink:href="d__a__obj__kjgjs_8h.html" target="_top" xlink:title=" ">
<polygon fill="white" stroke="#666666" points="3360.91,-107 3244.91,-107 3244.91,-66 3360.91,-66 3360.91,-107"/>
<text text-anchor="start" x="3252.91" y="-95" font-family="Helvetica,sans-Serif" font-size="10.00">include/rel/d/a/obj</text>
<text text-anchor="start" x="3252.91" y="-84" font-family="Helvetica,sans-Serif" font-size="10.00">/d_a_obj_kjgjs/d_a_obj</text>
<text text-anchor="middle" x="3302.91" y="-73" font-family="Helvetica,sans-Serif" font-size="10.00">_kjgjs.h</text>
</a>
</g>
</g>
<!-- Node4&#45;&gt;Node69 -->
<g id="edge35" class="edge">
<title>Node4&#45;&gt;Node69</title>
<path fill="none" stroke="#63b8ff" d="M2771.29,-154.78C2872.38,-150.5 3070.6,-138.54 3235.91,-107 3238.77,-106.46 3241.68,-105.84 3244.6,-105.18"/>
<polygon fill="#63b8ff" stroke="#63b8ff" points="2771.41,-151.27 2761.56,-155.18 2771.69,-158.27 2771.41,-151.27"/>
</g>
<!-- Node70 -->
<g id="node34" class="node">
<title>Node70</title>
<g id="a_node34"><a xlink:href="d__a__obj__mgate_8h.html" target="_top" xlink:title=" ">
<polygon fill="white" stroke="#666666" points="3500.91,-107 3378.91,-107 3378.91,-66 3500.91,-66 3500.91,-107"/>
<text text-anchor="start" x="3386.91" y="-95" font-family="Helvetica,sans-Serif" font-size="10.00">include/rel/d/a/obj</text>
<text text-anchor="start" x="3386.91" y="-84" font-family="Helvetica,sans-Serif" font-size="10.00">/d_a_obj_mgate/d_a_obj</text>
<text text-anchor="middle" x="3439.91" y="-73" font-family="Helvetica,sans-Serif" font-size="10.00">_mgate.h</text>
</a>
</g>
</g>
<!-- Node4&#45;&gt;Node70 -->
<g id="edge36" class="edge">
<title>Node4&#45;&gt;Node70</title>
<path fill="none" stroke="#63b8ff" d="M2771.29,-156.31C2891.55,-154.12 3153.1,-144.97 3369.91,-107 3372.77,-106.5 3375.68,-105.93 3378.61,-105.31"/>
<polygon fill="#63b8ff" stroke="#63b8ff" points="2771.55,-152.81 2761.61,-156.48 2771.67,-159.81 2771.55,-152.81"/>
</g>
<!-- Node71 -->
<g id="node35" class="node">
<title>Node71</title>
<g id="a_node35"><a xlink:href="d__a__obj__onsen_8h.html" target="_top" xlink:title=" ">
<polygon fill="white" stroke="#666666" points="3640.91,-107 3518.91,-107 3518.91,-66 3640.91,-66 3640.91,-107"/>
<text text-anchor="start" x="3526.91" y="-95" font-family="Helvetica,sans-Serif" font-size="10.00">include/rel/d/a/obj</text>
<text text-anchor="start" x="3526.91" y="-84" font-family="Helvetica,sans-Serif" font-size="10.00">/d_a_obj_onsen/d_a_obj</text>
<text text-anchor="middle" x="3579.91" y="-73" font-family="Helvetica,sans-Serif" font-size="10.00">_onsen.h</text>
</a>
</g>
</g>
<!-- Node4&#45;&gt;Node71 -->
<g id="edge37" class="edge">
<title>Node4&#45;&gt;Node71</title>
<path fill="none" stroke="#63b8ff" d="M2771.23,-157.56C2909.58,-157.7 3238.61,-152.69 3509.91,-107 3512.77,-106.52 3515.68,-105.97 3518.61,-105.36"/>
<polygon fill="#63b8ff" stroke="#63b8ff" points="2771.54,-154.06 2761.54,-157.54 2771.53,-161.06 2771.54,-154.06"/>
</g>
<!-- Node72 -->
<g id="node36" class="node">
<title>Node72</title>
<g id="a_node36"><a xlink:href="d__a__obj__onsenFire_8h.html" target="_top" xlink:title=" ">
<polygon fill="white" stroke="#666666" points="3768.91,-107 3658.91,-107 3658.91,-66 3768.91,-66 3768.91,-107"/>
<text text-anchor="start" x="3666.91" y="-95" font-family="Helvetica,sans-Serif" font-size="10.00">include/rel/d/a/obj</text>
<text text-anchor="start" x="3666.91" y="-84" font-family="Helvetica,sans-Serif" font-size="10.00">/d_a_obj_onsenFire/d</text>
<text text-anchor="middle" x="3713.91" y="-73" font-family="Helvetica,sans-Serif" font-size="10.00">_a_obj_onsenFire.h</text>
</a>
</g>
</g>
<!-- Node4&#45;&gt;Node72 -->
<g id="edge38" class="edge">
<title>Node4&#45;&gt;Node72</title>
<path fill="none" stroke="#63b8ff" d="M2771.35,-155.58C2957.36,-151.28 3480.73,-136.79 3649.91,-107 3652.77,-106.5 3655.68,-105.91 3658.61,-105.25"/>
<polygon fill="#63b8ff" stroke="#63b8ff" points="2771.55,-152.08 2761.63,-155.8 2771.71,-159.07 2771.55,-152.08"/>
</g>
<!-- Node73 -->
<g id="node37" class="node">
<title>Node73</title>
<g id="a_node37"><a xlink:href="d__a__obj__prop_8h.html" target="_top" xlink:title=" ">
<polygon fill="white" stroke="#666666" points="3900.91,-107 3786.91,-107 3786.91,-66 3900.91,-66 3900.91,-107"/>
<text text-anchor="start" x="3794.91" y="-95" font-family="Helvetica,sans-Serif" font-size="10.00">include/rel/d/a/obj</text>
<text text-anchor="start" x="3794.91" y="-84" font-family="Helvetica,sans-Serif" font-size="10.00">/d_a_obj_prop/d_a_obj</text>
<text text-anchor="middle" x="3843.91" y="-73" font-family="Helvetica,sans-Serif" font-size="10.00">_prop.h</text>
</a>
</g>
</g>
<!-- Node4&#45;&gt;Node73 -->
<g id="edge39" class="edge">
<title>Node4&#45;&gt;Node73</title>
<path fill="none" stroke="#63b8ff" d="M2771.45,-155.99C2974.29,-152.6 3582.86,-139.86 3777.91,-107 3780.74,-106.52 3783.61,-105.97 3786.51,-105.34"/>
<polygon fill="#63b8ff" stroke="#63b8ff" points="2771.56,-152.49 2761.62,-156.16 2771.67,-159.49 2771.56,-152.49"/>
</g>
<!-- Node74 -->
<g id="node38" class="node">
<title>Node74</title>
<g id="a_node38"><a xlink:href="d__a__obj__rcircle_8h.html" target="_top" xlink:title=" ">
<polygon fill="white" stroke="#666666" points="4022.91,-107 3918.91,-107 3918.91,-66 4022.91,-66 4022.91,-107"/>
<text text-anchor="start" x="3926.91" y="-95" font-family="Helvetica,sans-Serif" font-size="10.00">include/rel/d/a/obj</text>
<text text-anchor="start" x="3926.91" y="-84" font-family="Helvetica,sans-Serif" font-size="10.00">/d_a_obj_rcircle/d_a</text>
<text text-anchor="middle" x="3970.91" y="-73" font-family="Helvetica,sans-Serif" font-size="10.00">_obj_rcircle.h</text>
</a>
</g>
</g>
<!-- Node4&#45;&gt;Node74 -->
<g id="edge40" class="edge">
<title>Node4&#45;&gt;Node74</title>
<path fill="none" stroke="#63b8ff" d="M2771.72,-156.58C2991.2,-154.82 3688.63,-146.22 3909.91,-107 3912.76,-106.5 3915.65,-105.89 3918.56,-105.22"/>
<polygon fill="#63b8ff" stroke="#63b8ff" points="2771.89,-153.08 2761.92,-156.65 2771.95,-160.08 2771.89,-153.08"/>
</g>
<!-- Node75 -->
<g id="node39" class="node">
<title>Node75</title>
<g id="a_node39"><a xlink:href="d__a__obj__smoke_8h.html" target="_top" xlink:title=" ">
<polygon fill="white" stroke="#666666" points="4166.41,-107 4041.41,-107 4041.41,-66 4166.41,-66 4166.41,-107"/>
<text text-anchor="start" x="4049.41" y="-95" font-family="Helvetica,sans-Serif" font-size="10.00">include/rel/d/a/obj</text>
<text text-anchor="start" x="4049.41" y="-84" font-family="Helvetica,sans-Serif" font-size="10.00">/d_a_obj_smoke/d_a_obj</text>
<text text-anchor="middle" x="4103.91" y="-73" font-family="Helvetica,sans-Serif" font-size="10.00">_smoke.h</text>
</a>
</g>
</g>
<!-- Node4&#45;&gt;Node75 -->
<g id="edge41" class="edge">
<title>Node4&#45;&gt;Node75</title>
<path fill="none" stroke="#63b8ff" d="M2771.62,-156.49C3005.13,-154.37 3784.94,-144.6 4031.91,-107 4034.98,-106.53 4038.11,-105.98 4041.26,-105.37"/>
<polygon fill="#63b8ff" stroke="#63b8ff" points="2771.74,-152.98 2761.77,-156.57 2771.81,-159.98 2771.74,-152.98"/>
</g>
<!-- Node76 -->
<g id="node40" class="node">
<title>Node76</title>
<g id="a_node40"><a xlink:href="d__a__obj__stone_8h.html" target="_top" xlink:title=" ">
<polygon fill="white" stroke="#666666" points="4303.41,-107 4184.41,-107 4184.41,-66 4303.41,-66 4303.41,-107"/>
<text text-anchor="start" x="4192.41" y="-95" font-family="Helvetica,sans-Serif" font-size="10.00">include/rel/d/a/obj</text>
<text text-anchor="start" x="4192.41" y="-84" font-family="Helvetica,sans-Serif" font-size="10.00">/d_a_obj_stone/d_a_obj</text>
<text text-anchor="middle" x="4243.91" y="-73" font-family="Helvetica,sans-Serif" font-size="10.00">_stone.h</text>
</a>
</g>
</g>
<!-- Node4&#45;&gt;Node76 -->
<g id="edge42" class="edge">
<title>Node4&#45;&gt;Node76</title>
<path fill="none" stroke="#63b8ff" d="M2771.65,-156.9C3021.29,-156.2 3899.81,-150.6 4175.91,-107 4178.58,-106.58 4181.29,-106.09 4184.02,-105.54"/>
<polygon fill="#63b8ff" stroke="#63b8ff" points="2771.75,-153.4 2761.76,-156.93 2771.77,-160.4 2771.75,-153.4"/>
</g>
<!-- Node77 -->
<g id="node41" class="node">
<title>Node77</title>
<g id="a_node41"><a xlink:href="d__a__obj__stoneMark_8h.html" target="_top" xlink:title=" ">
<polygon fill="white" stroke="#666666" points="4434.41,-107 4321.41,-107 4321.41,-66 4434.41,-66 4434.41,-107"/>
<text text-anchor="start" x="4329.41" y="-95" font-family="Helvetica,sans-Serif" font-size="10.00">include/rel/d/a/obj</text>
<text text-anchor="start" x="4329.41" y="-84" font-family="Helvetica,sans-Serif" font-size="10.00">/d_a_obj_stoneMark/d</text>
<text text-anchor="middle" x="4377.91" y="-73" font-family="Helvetica,sans-Serif" font-size="10.00">_a_obj_stoneMark.h</text>
</a>
</g>
</g>
<!-- Node4&#45;&gt;Node77 -->
<g id="edge43" class="edge">
<title>Node4&#45;&gt;Node77</title>
<path fill="none" stroke="#63b8ff" d="M2771.66,-157.23C3035.91,-157.81 4009.01,-156.44 4312.91,-107 4315.58,-106.56 4318.3,-106.05 4321.04,-105.47"/>
<polygon fill="#63b8ff" stroke="#63b8ff" points="2771.88,-153.74 2761.87,-157.21 2771.86,-160.74 2771.88,-153.74"/>
</g>
<!-- Node78 -->
<g id="node42" class="node">
<title>Node78</title>
<g id="a_node42"><a xlink:href="d__a__obj__tmoon_8h.html" target="_top" xlink:title=" ">
<polygon fill="white" stroke="#666666" points="4574.91,-107 4452.91,-107 4452.91,-66 4574.91,-66 4574.91,-107"/>
<text text-anchor="start" x="4460.91" y="-95" font-family="Helvetica,sans-Serif" font-size="10.00">include/rel/d/a/obj</text>
<text text-anchor="start" x="4460.91" y="-84" font-family="Helvetica,sans-Serif" font-size="10.00">/d_a_obj_tmoon/d_a_obj</text>
<text text-anchor="middle" x="4513.91" y="-73" font-family="Helvetica,sans-Serif" font-size="10.00">_tmoon.h</text>
</a>
</g>
</g>
<!-- Node4&#45;&gt;Node78 -->
<g id="edge44" class="edge">
<title>Node4&#45;&gt;Node78</title>
<path fill="none" stroke="#63b8ff" d="M2771.48,-157.24C3048.71,-157.93 4112.52,-157.16 4443.91,-107 4446.78,-106.57 4449.7,-106.05 4452.63,-105.48"/>
<polygon fill="#63b8ff" stroke="#63b8ff" points="2771.55,-153.74 2761.54,-157.22 2771.53,-160.74 2771.55,-153.74"/>
</g>
<!-- Node79 -->
<g id="node43" class="node">
<title>Node79</title>
<g id="a_node43"><a xlink:href="d__a__obj__web0_8h.html" target="_top" xlink:title=" ">
<polygon fill="white" stroke="#666666" points="4712.41,-107 4593.41,-107 4593.41,-66 4712.41,-66 4712.41,-107"/>
<text text-anchor="start" x="4601.41" y="-95" font-family="Helvetica,sans-Serif" font-size="10.00">include/rel/d/a/obj</text>
<text text-anchor="start" x="4601.41" y="-84" font-family="Helvetica,sans-Serif" font-size="10.00">/d_a_obj_web0/d_a_obj</text>
<text text-anchor="middle" x="4652.91" y="-73" font-family="Helvetica,sans-Serif" font-size="10.00">_web0.h</text>
</a>
</g>
</g>
<!-- Node4&#45;&gt;Node79 -->
<g id="edge45" class="edge">
<title>Node4&#45;&gt;Node79</title>
<path fill="none" stroke="#63b8ff" d="M2771.49,-156.21C3084.5,-152.37 4402.16,-134.66 4583.91,-107 4586.99,-106.53 4590.12,-105.97 4593.27,-105.33"/>
<polygon fill="#63b8ff" stroke="#63b8ff" points="2771.82,-152.71 2761.86,-156.33 2771.9,-159.71 2771.82,-152.71"/>
</g>
<!-- Node80 -->
<g id="node44" class="node">
<title>Node80</title>
<g id="a_node44"><a xlink:href="d__a__obj__web1_8h.html" target="_top" xlink:title=" ">
<polygon fill="white" stroke="#666666" points="4849.41,-107 4730.41,-107 4730.41,-66 4849.41,-66 4849.41,-107"/>
<text text-anchor="start" x="4738.41" y="-95" font-family="Helvetica,sans-Serif" font-size="10.00">include/rel/d/a/obj</text>
<text text-anchor="start" x="4738.41" y="-84" font-family="Helvetica,sans-Serif" font-size="10.00">/d_a_obj_web1/d_a_obj</text>
<text text-anchor="middle" x="4789.91" y="-73" font-family="Helvetica,sans-Serif" font-size="10.00">_web1.h</text>
</a>
</g>
</g>
<!-- Node4&#45;&gt;Node80 -->
<g id="edge46" class="edge">
<title>Node4&#45;&gt;Node80</title>
<path fill="none" stroke="#63b8ff" d="M2771.54,-156.36C3098.55,-153.05 4525.9,-137.03 4721.91,-107 4724.58,-106.59 4727.29,-106.11 4730.02,-105.57"/>
<polygon fill="#63b8ff" stroke="#63b8ff" points="2771.85,-152.85 2761.89,-156.45 2771.92,-159.85 2771.85,-152.85"/>
</g>
<!-- Node4&#45;&gt;Node117 -->
<g id="edge47" class="edge">
<title>Node4&#45;&gt;Node117</title>
<path fill="none" stroke="#63b8ff" d="M2771.57,-156.12C3159.15,-150.98 5109.53,-124.29 5234.91,-107 5250.64,-104.83 5267.8,-100.52 5281.73,-96.5"/>
<polygon fill="#63b8ff" stroke="#63b8ff" points="2771.77,-152.62 2761.81,-156.25 2771.86,-159.62 2771.77,-152.62"/>
</g>
<!-- Node4&#45;&gt;Node118 -->
<g id="edge48" class="edge">
<title>Node4&#45;&gt;Node118</title>
<path fill="none" stroke="#63b8ff" d="M2638.31,-156.23C2252.2,-151.69 313.94,-127.92 189.91,-107 177.06,-104.83 163.19,-100.47 152.03,-96.41"/>
<polygon fill="#63b8ff" stroke="#63b8ff" points="2637.99,-159.72 2648.03,-156.34 2638.07,-152.73 2637.99,-159.72"/>
</g>
<!-- Node4&#45;&gt;Node138 -->
<g id="edge51" class="edge">
<title>Node4&#45;&gt;Node138</title>
<path fill="none" stroke="#63b8ff" d="M2638,-156.15C2262.47,-151.28 429.59,-126.61 311.91,-107 304.89,-105.83 297.57,-104.03 290.53,-101.98"/>
<polygon fill="#63b8ff" stroke="#63b8ff" points="2637.9,-159.64 2647.94,-156.27 2637.99,-152.65 2637.9,-159.64"/>
</g>
<!-- Node12&#45;&gt;Node13 -->
<g id="edge6" class="edge">
<title>Node12&#45;&gt;Node13</title>
<path fill="none" stroke="#63b8ff" d="M5072.17,-70.45C5054.16,-58.53 5029.17,-41.99 5011.47,-30.27"/>
<polygon fill="#63b8ff" stroke="#63b8ff" points="5070.08,-73.26 5080.35,-75.86 5073.94,-67.42 5070.08,-73.26"/>
</g>
<!-- Node12&#45;&gt;Node18 -->
<g id="edge7" class="edge">
<title>Node12&#45;&gt;Node18</title>
<path fill="none" stroke="#63b8ff" d="M5100.02,-65.76C5102.95,-54.45 5106.56,-40.52 5109.21,-30.27"/>
<polygon fill="#63b8ff" stroke="#63b8ff" points="5096.69,-64.67 5097.57,-75.23 5103.46,-66.43 5096.69,-64.67"/>
</g>
<!-- Node12&#45;&gt;Node19 -->
<g id="edge8" class="edge">
<title>Node12&#45;&gt;Node19</title>
<path fill="none" stroke="#63b8ff" d="M5123.43,-71.64C5147.97,-59.71 5183.24,-42.57 5208.13,-30.47"/>
<polygon fill="#63b8ff" stroke="#63b8ff" points="5122.14,-68.38 5114.67,-75.89 5125.2,-74.67 5122.14,-68.38"/>
</g>
<!-- Node25&#45;&gt;Node31 -->
<g id="edge11" class="edge">
<title>Node25&#45;&gt;Node31</title>
<path fill="none" stroke="#63b8ff" d="M520.15,-64.87C499.65,-51.56 474.01,-34.9 458.58,-24.88"/>
<polygon fill="#63b8ff" stroke="#63b8ff" points="518.18,-67.76 528.47,-70.28 521.99,-61.89 518.18,-67.76"/>
</g>
<!-- Node25&#45;&gt;Node32 -->
<g id="edge12" class="edge">
<title>Node25&#45;&gt;Node32</title>
<path fill="none" stroke="#63b8ff" d="M560.21,-60.41C563.55,-50.32 567.28,-39.04 570.15,-30.38"/>
<polygon fill="#63b8ff" stroke="#63b8ff" points="556.97,-59.07 557.15,-69.66 563.62,-61.27 556.97,-59.07"/>
</g>
</g>
</svg>
