<?xml version="1.0" encoding="UTF-8" standalone="no"?>
<!DOCTYPE svg PUBLIC "-//W3C//DTD SVG 1.1//EN"
 "http://www.w3.org/Graphics/SVG/1.1/DTD/svg11.dtd">
<!-- Generated by graphviz version 7.0.5 (20221223.1930)
 -->
<!-- Title: include/d/d_eye_hl.h Pages: 1 -->
<svg width="5661pt" height="291pt"
 viewBox="0.00 0.00 5661.15 291.00" xmlns="http://www.w3.org/2000/svg" xmlns:xlink="http://www.w3.org/1999/xlink">
<g id="graph0" class="graph" transform="scale(1 1) rotate(0) translate(4 287)">
<title>include/d/d_eye_hl.h</title>
<!-- Node1 -->
<g id="node1" class="node">
<title>Node1</title>
<g id="a_node1"><a xlink:title=" ">
<polygon fill="#999999" stroke="#666666" points="4285.32,-283 4181.32,-283 4181.32,-264 4285.32,-264 4285.32,-283"/>
<text text-anchor="middle" x="4233.32" y="-271" font-family="Helvetica,sans-Serif" font-size="10.00">include/d/d_eye_hl.h</text>
</a>
</g>
</g>
<!-- Node2 -->
<g id="node2" class="node">
<title>Node2</title>
<g id="a_node2"><a xlink:href="d__a__alink_8h.html" target="_top" xlink:title=" ">
<polygon fill="white" stroke="#666666" points="2860.32,-228 2744.32,-228 2744.32,-209 2860.32,-209 2860.32,-228"/>
<text text-anchor="middle" x="2802.32" y="-216" font-family="Helvetica,sans-Serif" font-size="10.00">include/d/a/d_a_alink.h</text>
</a>
</g>
</g>
<!-- Node1&#45;&gt;Node2 -->
<g id="edge1" class="edge">
<title>Node1&#45;&gt;Node2</title>
<path fill="none" stroke="#63b8ff" d="M4169.89,-270.15C3931.35,-261.32 3090.03,-230.16 2860.53,-221.66"/>
<polygon fill="#63b8ff" stroke="#63b8ff" points="4169.49,-273.64 4179.61,-270.51 4169.74,-266.64 4169.49,-273.64"/>
</g>
<!-- Node75 -->
<g id="node22" class="node">
<title>Node75</title>
<g id="a_node22"><a xlink:href="d__eye__hl_8cpp.html" target="_top" xlink:title=" ">
<polygon fill="white" stroke="#666666" points="5628.32,-24.5 5530.32,-24.5 5530.32,-5.5 5628.32,-5.5 5628.32,-24.5"/>
<text text-anchor="middle" x="5579.32" y="-12.5" font-family="Helvetica,sans-Serif" font-size="10.00">src/d/d_eye_hl.cpp</text>
</a>
</g>
</g>
<!-- Node1&#45;&gt;Node75 -->
<g id="edge60" class="edge">
<title>Node1&#45;&gt;Node75</title>
<path fill="none" stroke="#63b8ff" d="M4296.78,-269.93C4559.74,-258.62 5554.29,-209.32 5645.32,-107 5657.43,-93.39 5653.43,-82.32 5645.32,-66 5635.79,-46.82 5614.99,-33.03 5599.28,-24.85"/>
<polygon fill="#63b8ff" stroke="#63b8ff" points="4296.9,-266.42 4287.06,-270.34 4297.2,-273.41 4296.9,-266.42"/>
</g>
<!-- Node3 -->
<g id="node3" class="node">
<title>Node3</title>
<g id="a_node3"><a xlink:href="d__com__inf__game_8h.html" target="_top" xlink:title=" ">
<polygon fill="#fff0f0" stroke="red" points="2857.32,-173 2747.32,-173 2747.32,-143 2857.32,-143 2857.32,-173"/>
<text text-anchor="start" x="2755.32" y="-161" font-family="Helvetica,sans-Serif" font-size="10.00">include/d/com/d_com</text>
<text text-anchor="middle" x="2802.32" y="-150" font-family="Helvetica,sans-Serif" font-size="10.00">_inf_game.h</text>
</a>
</g>
</g>
<!-- Node2&#45;&gt;Node3 -->
<g id="edge2" class="edge">
<title>Node2&#45;&gt;Node3</title>
<path fill="none" stroke="#63b8ff" d="M2802.32,-197.51C2802.32,-189.49 2802.32,-180.43 2802.32,-173.11"/>
<polygon fill="#63b8ff" stroke="#63b8ff" points="2798.82,-197.35 2802.32,-207.35 2805.82,-197.35 2798.82,-197.35"/>
</g>
<!-- Node15 -->
<g id="node10" class="node">
<title>Node15</title>
<g id="a_node10"><a xlink:href="d__a__alink_8cpp.html" target="_top" xlink:title=" ">
<polygon fill="white" stroke="#666666" points="511.82,-24.5 402.82,-24.5 402.82,-5.5 511.82,-5.5 511.82,-24.5"/>
<text text-anchor="middle" x="457.32" y="-12.5" font-family="Helvetica,sans-Serif" font-size="10.00">src/d/a/d_a_alink.cpp</text>
</a>
</g>
</g>
<!-- Node2&#45;&gt;Node15 -->
<g id="edge59" class="edge">
<title>Node2&#45;&gt;Node15</title>
<path fill="none" stroke="#63b8ff" d="M2732.58,-217.44C2309.94,-216.73 106.59,-208.19 9.32,-107 -3.31,-93.86 -2.83,-79.58 9.32,-66 35.15,-37.13 289.02,-23.01 402.73,-18.09"/>
<polygon fill="#63b8ff" stroke="#63b8ff" points="2732.46,-220.94 2742.46,-217.45 2732.47,-213.94 2732.46,-220.94"/>
</g>
<!-- Node4 -->
<g id="node4" class="node">
<title>Node4</title>
<g id="a_node4"><a xlink:href="d__a__npc_8h.html" target="_top" xlink:title=" ">
<polygon fill="#fff0f0" stroke="red" points="1382.82,-24.5 1271.82,-24.5 1271.82,-5.5 1382.82,-5.5 1382.82,-24.5"/>
<text text-anchor="middle" x="1327.32" y="-12.5" font-family="Helvetica,sans-Serif" font-size="10.00">include/d/a/d_a_npc.h</text>
</a>
</g>
</g>
<!-- Node3&#45;&gt;Node4 -->
<g id="edge3" class="edge">
<title>Node3&#45;&gt;Node4</title>
<path fill="none" stroke="#63b8ff" d="M2735.69,-156.33C2463.52,-153.35 1447.77,-140.08 1388.32,-107 1371.45,-97.61 1342.98,-45.89 1331.91,-24.88"/>
<polygon fill="#63b8ff" stroke="#63b8ff" points="2735.4,-159.82 2745.44,-156.43 2735.48,-152.82 2735.4,-159.82"/>
</g>
<!-- Node10 -->
<g id="node5" class="node">
<title>Node10</title>
<g id="a_node5"><a xlink:href="d__cc__uty_8h.html" target="_top" xlink:title=" ">
<polygon fill="#fff0f0" stroke="red" points="5155.82,-96 5036.82,-96 5036.82,-77 5155.82,-77 5155.82,-96"/>
<text text-anchor="middle" x="5096.32" y="-84" font-family="Helvetica,sans-Serif" font-size="10.00">include/d/cc/d_cc_uty.h</text>
</a>
</g>
</g>
<!-- Node3&#45;&gt;Node10 -->
<g id="edge4" class="edge">
<title>Node3&#45;&gt;Node10</title>
<path fill="none" stroke="#63b8ff" d="M2868.97,-156.52C3216.22,-153.89 4810.57,-140.1 5028.32,-107 5042.65,-104.82 5058.22,-100.51 5070.84,-96.49"/>
<polygon fill="#63b8ff" stroke="#63b8ff" points="2869.11,-153.02 2859.14,-156.6 2869.17,-160.02 2869.11,-153.02"/>
</g>
<!-- Node11 -->
<g id="node6" class="node">
<title>Node11</title>
<g id="a_node6"><a xlink:href="d__a__b__ob_8h.html" target="_top" xlink:title=" ">
<polygon fill="#fff0f0" stroke="red" points="986.32,-30 880.32,-30 880.32,0 986.32,0 986.32,-30"/>
<text text-anchor="start" x="888.32" y="-18" font-family="Helvetica,sans-Serif" font-size="10.00">include/rel/d/a/b/d</text>
<text text-anchor="middle" x="933.32" y="-7" font-family="Helvetica,sans-Serif" font-size="10.00">_a_b_ob/d_a_b_ob.h</text>
</a>
</g>
</g>
<!-- Node3&#45;&gt;Node11 -->
<g id="edge27" class="edge">
<title>Node3&#45;&gt;Node11</title>
<path fill="none" stroke="#63b8ff" d="M2735.7,-156.69C2380.35,-154.9 722.99,-144.55 686.32,-107 625.73,-44.96 790.66,-24.9 880.08,-18.66"/>
<polygon fill="#63b8ff" stroke="#63b8ff" points="2735.52,-160.19 2745.54,-156.74 2735.56,-153.19 2735.52,-160.19"/>
</g>
<!-- Node17 -->
<g id="node7" class="node">
<title>Node17</title>
<g id="a_node7"><a xlink:href="d__a__e__yk_8h.html" target="_top" xlink:title=" ">
<polygon fill="white" stroke="#666666" points="5192.32,-30 5088.32,-30 5088.32,0 5192.32,0 5192.32,-30"/>
<text text-anchor="start" x="5096.32" y="-18" font-family="Helvetica,sans-Serif" font-size="10.00">include/rel/d/a/e/d</text>
<text text-anchor="middle" x="5140.32" y="-7" font-family="Helvetica,sans-Serif" font-size="10.00">_a_e_yk/d_a_e_yk.h</text>
</a>
</g>
</g>
<!-- Node3&#45;&gt;Node17 -->
<g id="edge40" class="edge">
<title>Node3&#45;&gt;Node17</title>
<path fill="none" stroke="#63b8ff" d="M2868.95,-156.86C3248.67,-155.92 5124.05,-149.16 5165.32,-107 5185.72,-86.16 5165.67,-50.31 5151.55,-30.39"/>
<polygon fill="#63b8ff" stroke="#63b8ff" points="2869.14,-153.36 2859.14,-156.89 2869.15,-160.36 2869.14,-153.36"/>
</g>
<!-- Node19 -->
<g id="node8" class="node">
<title>Node19</title>
<g id="a_node8"><a xlink:href="d__error__msg_8h.html" target="_top" xlink:title=" ">
<polygon fill="#fff0f0" stroke="red" points="151.32,-96 31.32,-96 31.32,-77 151.32,-77 151.32,-96"/>
<text text-anchor="middle" x="91.32" y="-84" font-family="Helvetica,sans-Serif" font-size="10.00">include/d/d_error_msg.h</text>
</a>
</g>
</g>
<!-- Node3&#45;&gt;Node19 -->
<g id="edge7" class="edge">
<title>Node3&#45;&gt;Node19</title>
<path fill="none" stroke="#63b8ff" d="M2735.38,-156.76C2349.93,-155.24 421.53,-145.72 160.32,-107 145.67,-104.83 129.73,-100.46 116.86,-96.41"/>
<polygon fill="#63b8ff" stroke="#63b8ff" points="2735.34,-160.26 2745.35,-156.8 2735.36,-153.26 2735.34,-160.26"/>
</g>
<!-- Node22 -->
<g id="node9" class="node">
<title>Node22</title>
<g id="a_node9"><a xlink:href="d__item_8h.html" target="_top" xlink:title=" ">
<polygon fill="#fff0f0" stroke="red" points="504.82,-96 409.82,-96 409.82,-77 504.82,-77 504.82,-96"/>
<text text-anchor="middle" x="457.32" y="-84" font-family="Helvetica,sans-Serif" font-size="10.00">include/d/d_item.h</text>
</a>
</g>
</g>
<!-- Node3&#45;&gt;Node22 -->
<g id="edge8" class="edge">
<title>Node3&#45;&gt;Node22</title>
<path fill="none" stroke="#63b8ff" d="M2735.78,-156.76C2382.85,-155.35 737.64,-146.65 514.32,-107 502.07,-104.82 488.89,-100.46 478.29,-96.41"/>
<polygon fill="#63b8ff" stroke="#63b8ff" points="2735.53,-160.26 2745.54,-156.8 2735.56,-153.26 2735.53,-160.26"/>
</g>
<!-- Node3&#45;&gt;Node15 -->
<g id="edge57" class="edge">
<title>Node3&#45;&gt;Node15</title>
<path fill="none" stroke="#63b8ff" d="M2735.65,-157.08C2317.38,-157.43 71.4,-156.97 22.32,-107 9.55,-94 10.19,-79.6 22.32,-66 47.24,-38.06 291.4,-23.51 402.63,-18.29"/>
<polygon fill="#63b8ff" stroke="#63b8ff" points="2735.4,-160.58 2745.4,-157.07 2735.4,-153.58 2735.4,-160.58"/>
</g>
<!-- Node27 -->
<g id="node11" class="node">
<title>Node27</title>
<g id="a_node11"><a xlink:href="d__kantera__icon__meter_8h.html" target="_top" xlink:title=" ">
<polygon fill="#fff0f0" stroke="red" points="270.82,-101.5 169.82,-101.5 169.82,-71.5 270.82,-71.5 270.82,-101.5"/>
<text text-anchor="start" x="177.82" y="-89.5" font-family="Helvetica,sans-Serif" font-size="10.00">include/d/d_kantera</text>
<text text-anchor="middle" x="220.32" y="-78.5" font-family="Helvetica,sans-Serif" font-size="10.00">_icon_meter.h</text>
</a>
</g>
</g>
<!-- Node3&#45;&gt;Node27 -->
<g id="edge10" class="edge">
<title>Node3&#45;&gt;Node27</title>
<path fill="none" stroke="#63b8ff" d="M2735.4,-156.87C2360.33,-155.97 527.22,-149.43 279.32,-107 272.52,-105.84 265.43,-104.03 258.62,-101.99"/>
<polygon fill="#63b8ff" stroke="#63b8ff" points="2735.32,-160.37 2745.33,-156.89 2735.33,-153.37 2735.32,-160.37"/>
</g>
<!-- Node30 -->
<g id="node12" class="node">
<title>Node30</title>
<g id="a_node12"><a xlink:href="d__model_8h.html" target="_top" xlink:title=" ">
<polygon fill="#fff0f0" stroke="red" points="391.82,-96 288.82,-96 288.82,-77 391.82,-77 391.82,-96"/>
<text text-anchor="middle" x="340.32" y="-84" font-family="Helvetica,sans-Serif" font-size="10.00">include/d/d_model.h</text>
</a>
</g>
</g>
<!-- Node3&#45;&gt;Node30 -->
<g id="edge11" class="edge">
<title>Node3&#45;&gt;Node30</title>
<path fill="none" stroke="#63b8ff" d="M2735.72,-156.78C2372.23,-155.41 635.78,-146.82 400.32,-107 387.47,-104.83 373.6,-100.46 362.44,-96.41"/>
<polygon fill="#63b8ff" stroke="#63b8ff" points="2735.55,-160.28 2745.56,-156.81 2735.57,-153.28 2735.55,-160.28"/>
</g>
<!-- Node32 -->
<g id="node13" class="node">
<title>Node32</title>
<g id="a_node13"><a xlink:href="d__name_8h.html" target="_top" xlink:title=" ">
<polygon fill="#fff0f0" stroke="red" points="5313.82,-96 5212.82,-96 5212.82,-77 5313.82,-77 5313.82,-96"/>
<text text-anchor="middle" x="5263.32" y="-84" font-family="Helvetica,sans-Serif" font-size="10.00">include/d/d_name.h</text>
</a>
</g>
</g>
<!-- Node3&#45;&gt;Node32 -->
<g id="edge12" class="edge">
<title>Node3&#45;&gt;Node32</title>
<path fill="none" stroke="#63b8ff" d="M2869.04,-156.68C3232.18,-154.82 4963.07,-144.04 5198.32,-107 5212.17,-104.82 5227.19,-100.45 5239.3,-96.4"/>
<polygon fill="#63b8ff" stroke="#63b8ff" points="2869.19,-153.18 2859.21,-156.73 2869.22,-160.18 2869.19,-153.18"/>
</g>
<!-- Node33 -->
<g id="node14" class="node">
<title>Node33</title>
<g id="a_node14"><a xlink:href="d__file__select_8h.html" target="_top" xlink:title=" ">
<polygon fill="#fff0f0" stroke="red" points="5428.32,-30 5332.32,-30 5332.32,0 5428.32,0 5428.32,-30"/>
<text text-anchor="start" x="5340.32" y="-18" font-family="Helvetica,sans-Serif" font-size="10.00">include/d/file/d_file</text>
<text text-anchor="middle" x="5380.32" y="-7" font-family="Helvetica,sans-Serif" font-size="10.00">_select.h</text>
</a>
</g>
</g>
<!-- Node3&#45;&gt;Node33 -->
<g id="edge17" class="edge">
<title>Node3&#45;&gt;Node33</title>
<path fill="none" stroke="#63b8ff" d="M2869.33,-157.01C3275.4,-156.93 5390.98,-154.23 5437.32,-107 5450.08,-93.99 5444.84,-82.6 5437.32,-66 5430.59,-51.13 5417,-38.94 5404.78,-30.31"/>
<polygon fill="#63b8ff" stroke="#63b8ff" points="2869.33,-153.51 2859.33,-157.01 2869.33,-160.51 2869.33,-153.51"/>
</g>
<!-- Node36 -->
<g id="node15" class="node">
<title>Node36</title>
<g id="a_node15"><a xlink:href="d__file__sel__info_8h.html" target="_top" xlink:title=" ">
<polygon fill="#fff0f0" stroke="red" points="791.32,-101.5 695.32,-101.5 695.32,-71.5 791.32,-71.5 791.32,-101.5"/>
<text text-anchor="start" x="703.32" y="-89.5" font-family="Helvetica,sans-Serif" font-size="10.00">include/d/file/d_file</text>
<text text-anchor="middle" x="743.32" y="-78.5" font-family="Helvetica,sans-Serif" font-size="10.00">_sel_info.h</text>
</a>
</g>
</g>
<!-- Node3&#45;&gt;Node36 -->
<g id="edge14" class="edge">
<title>Node3&#45;&gt;Node36</title>
<path fill="none" stroke="#63b8ff" d="M2736.16,-156.54C2411.42,-154.14 994.06,-141.71 800.32,-107 793.73,-105.82 786.88,-104.01 780.3,-101.96"/>
<polygon fill="#63b8ff" stroke="#63b8ff" points="2735.7,-160.04 2745.73,-156.61 2735.76,-153.04 2735.7,-160.04"/>
</g>
<!-- Node39 -->
<g id="node16" class="node">
<title>Node39</title>
<g id="a_node16"><a xlink:href="d__file__sel__warning_8h.html" target="_top" xlink:title=" ">
<polygon fill="#fff0f0" stroke="red" points="5428.32,-101.5 5332.32,-101.5 5332.32,-71.5 5428.32,-71.5 5428.32,-101.5"/>
<text text-anchor="start" x="5340.32" y="-89.5" font-family="Helvetica,sans-Serif" font-size="10.00">include/d/file/d_file</text>
<text text-anchor="middle" x="5380.32" y="-78.5" font-family="Helvetica,sans-Serif" font-size="10.00">_sel_warning.h</text>
</a>
</g>
</g>
<!-- Node3&#45;&gt;Node39 -->
<g id="edge15" class="edge">
<title>Node3&#45;&gt;Node39</title>
<path fill="none" stroke="#63b8ff" d="M2869.2,-156.91C3244.01,-156.23 5075.84,-150.69 5323.32,-107 5329.91,-105.84 5336.77,-104.04 5343.35,-101.99"/>
<polygon fill="#63b8ff" stroke="#63b8ff" points="2869.27,-153.41 2859.28,-156.93 2869.28,-160.41 2869.27,-153.41"/>
</g>
<!-- Node41 -->
<g id="node17" class="node">
<title>Node41</title>
<g id="a_node17"><a xlink:href="d__menu__calibration_8h.html" target="_top" xlink:title=" ">
<polygon fill="#fff0f0" stroke="red" points="929.32,-101.5 809.32,-101.5 809.32,-71.5 929.32,-71.5 929.32,-101.5"/>
<text text-anchor="start" x="817.32" y="-89.5" font-family="Helvetica,sans-Serif" font-size="10.00">include/d/menu/d_menu</text>
<text text-anchor="middle" x="869.32" y="-78.5" font-family="Helvetica,sans-Serif" font-size="10.00">_calibration.h</text>
</a>
</g>
</g>
<!-- Node3&#45;&gt;Node41 -->
<g id="edge18" class="edge">
<title>Node3&#45;&gt;Node41</title>
<path fill="none" stroke="#63b8ff" d="M2735.74,-157.43C2446.21,-158.95 1295.39,-161.38 938.32,-107 930.45,-105.8 922.19,-103.98 914.25,-101.93"/>
<polygon fill="#63b8ff" stroke="#63b8ff" points="2735.38,-160.93 2745.36,-157.38 2735.34,-153.93 2735.38,-160.93"/>
</g>
<!-- Node43 -->
<g id="node18" class="node">
<title>Node43</title>
<g id="a_node18"><a xlink:href="d__meter2_8h.html" target="_top" xlink:title=" ">
<polygon fill="#fff0f0" stroke="red" points="1081.32,-96 947.32,-96 947.32,-77 1081.32,-77 1081.32,-96"/>
<text text-anchor="middle" x="1014.32" y="-84" font-family="Helvetica,sans-Serif" font-size="10.00">include/d/meter/d_meter2.h</text>
</a>
</g>
</g>
<!-- Node3&#45;&gt;Node43 -->
<g id="edge19" class="edge">
<title>Node3&#45;&gt;Node43</title>
<path fill="none" stroke="#63b8ff" d="M2735.9,-157.03C2461.66,-156.84 1416.69,-153.05 1090.32,-107 1074.41,-104.75 1057.01,-100.44 1042.89,-96.43"/>
<polygon fill="#63b8ff" stroke="#63b8ff" points="2735.72,-160.53 2745.72,-157.03 2735.72,-153.53 2735.72,-160.53"/>
</g>
<!-- Node53 -->
<g id="node19" class="node">
<title>Node53</title>
<g id="a_node19"><a xlink:href="d__msg__object_8h.html" target="_top" xlink:title=" ">
<polygon fill="#fff0f0" stroke="red" points="1341.32,-101.5 1231.32,-101.5 1231.32,-71.5 1341.32,-71.5 1341.32,-101.5"/>
<text text-anchor="start" x="1239.32" y="-89.5" font-family="Helvetica,sans-Serif" font-size="10.00">include/d/msg/d_msg</text>
<text text-anchor="middle" x="1286.32" y="-78.5" font-family="Helvetica,sans-Serif" font-size="10.00">_object.h</text>
</a>
</g>
</g>
<!-- Node3&#45;&gt;Node53 -->
<g id="edge20" class="edge">
<title>Node3&#45;&gt;Node53</title>
<path fill="none" stroke="#63b8ff" d="M2735.84,-156.82C2489.18,-155.85 1626.69,-149.4 1355.32,-107 1347.57,-105.79 1339.46,-103.99 1331.63,-101.97"/>
<polygon fill="#63b8ff" stroke="#63b8ff" points="2735.59,-160.32 2745.6,-156.86 2735.62,-153.32 2735.59,-160.32"/>
</g>
<!-- Node72 -->
<g id="node20" class="node">
<title>Node72</title>
<g id="a_node20"><a xlink:href="d__s__logo_8h.html" target="_top" xlink:title=" ">
<polygon fill="#fff0f0" stroke="red" points="1212.82,-96 1099.82,-96 1099.82,-77 1212.82,-77 1212.82,-96"/>
<text text-anchor="middle" x="1156.32" y="-84" font-family="Helvetica,sans-Serif" font-size="10.00">include/d/s/d_s_logo.h</text>
</a>
</g>
</g>
<!-- Node3&#45;&gt;Node72 -->
<g id="edge23" class="edge">
<title>Node3&#45;&gt;Node72</title>
<path fill="none" stroke="#63b8ff" d="M2735.86,-157.15C2474.98,-157.41 1520.68,-154.98 1222.32,-107 1208.4,-104.76 1193.29,-100.44 1181.05,-96.44"/>
<polygon fill="#63b8ff" stroke="#63b8ff" points="2735.52,-160.66 2745.52,-157.14 2735.52,-153.66 2735.52,-160.66"/>
</g>
<!-- Node74 -->
<g id="node21" class="node">
<title>Node74</title>
<g id="a_node21"><a xlink:href="d__s__play_8h.html" target="_top" xlink:title=" ">
<polygon fill="#fff0f0" stroke="red" points="5635.82,-96 5522.82,-96 5522.82,-77 5635.82,-77 5635.82,-96"/>
<text text-anchor="middle" x="5579.32" y="-84" font-family="Helvetica,sans-Serif" font-size="10.00">include/d/s/d_s_play.h</text>
</a>
</g>
</g>
<!-- Node3&#45;&gt;Node74 -->
<g id="edge24" class="edge">
<title>Node3&#45;&gt;Node74</title>
<path fill="none" stroke="#63b8ff" d="M2869,-156.76C3259.35,-155.25 5240.21,-145.67 5508.32,-107 5523.38,-104.83 5539.78,-100.46 5553.02,-96.41"/>
<polygon fill="#63b8ff" stroke="#63b8ff" points="2869.15,-153.26 2859.17,-156.8 2869.18,-160.26 2869.15,-153.26"/>
</g>
<!-- Node3&#45;&gt;Node75 -->
<g id="edge58" class="edge">
<title>Node3&#45;&gt;Node75</title>
<path fill="none" stroke="#63b8ff" d="M2869.15,-156.88C3268.67,-155.99 5328.22,-149.36 5454.32,-107 5467.36,-102.62 5539.67,-46.9 5567.97,-24.87"/>
<polygon fill="#63b8ff" stroke="#63b8ff" points="2869.32,-153.37 2859.33,-156.9 2869.34,-160.37 2869.32,-153.37"/>
</g>
<!-- Node81 -->
<g id="node23" class="node">
<title>Node81</title>
<g id="a_node23"><a xlink:href="d__msg__scrn__base_8h.html" target="_top" xlink:title=" ">
<polygon fill="#fff0f0" stroke="red" points="1496.82,-101.5 1397.82,-101.5 1397.82,-71.5 1496.82,-71.5 1496.82,-101.5"/>
<text text-anchor="start" x="1405.82" y="-89.5" font-family="Helvetica,sans-Serif" font-size="10.00">include/msg/scrn/d</text>
<text text-anchor="middle" x="1447.32" y="-78.5" font-family="Helvetica,sans-Serif" font-size="10.00">_msg_scrn_base.h</text>
</a>
</g>
</g>
<!-- Node3&#45;&gt;Node81 -->
<g id="edge26" class="edge">
<title>Node3&#45;&gt;Node81</title>
<path fill="none" stroke="#63b8ff" d="M2735.87,-156.94C2505.92,-156.34 1745.08,-150.98 1505.32,-107 1498.74,-105.79 1491.88,-104 1485.29,-101.98"/>
<polygon fill="#63b8ff" stroke="#63b8ff" points="2735.53,-160.44 2745.54,-156.96 2735.55,-153.44 2735.53,-160.44"/>
</g>
<!-- Node85 -->
<g id="node24" class="node">
<title>Node85</title>
<g id="a_node24"><a xlink:href="d__a__b__zant_8h.html" target="_top" xlink:title=" ">
<polygon fill="white" stroke="#666666" points="1635.82,-101.5 1514.82,-101.5 1514.82,-71.5 1635.82,-71.5 1635.82,-101.5"/>
<text text-anchor="start" x="1522.82" y="-89.5" font-family="Helvetica,sans-Serif" font-size="10.00">include/rel/d/a/b/d</text>
<text text-anchor="middle" x="1575.32" y="-78.5" font-family="Helvetica,sans-Serif" font-size="10.00">_a_b_zant/d_a_b_zant.h</text>
</a>
</g>
</g>
<!-- Node3&#45;&gt;Node85 -->
<g id="edge28" class="edge">
<title>Node3&#45;&gt;Node85</title>
<path fill="none" stroke="#63b8ff" d="M2735.72,-156.12C2522.4,-152.99 1857.61,-140.7 1645.32,-107 1637.47,-105.75 1629.25,-103.94 1621.31,-101.91"/>
<polygon fill="#63b8ff" stroke="#63b8ff" points="2735.47,-159.62 2745.52,-156.26 2735.57,-152.62 2735.47,-159.62"/>
</g>
<!-- Node86 -->
<g id="node25" class="node">
<title>Node86</title>
<g id="a_node25"><a xlink:href="d__a__andsw_8h.html" target="_top" xlink:title=" ">
<polygon fill="white" stroke="#666666" points="1764.32,-101.5 1654.32,-101.5 1654.32,-71.5 1764.32,-71.5 1764.32,-101.5"/>
<text text-anchor="start" x="1662.32" y="-89.5" font-family="Helvetica,sans-Serif" font-size="10.00">include/rel/d/a/d_a</text>
<text text-anchor="middle" x="1709.32" y="-78.5" font-family="Helvetica,sans-Serif" font-size="10.00">_andsw/d_a_andsw.h</text>
</a>
</g>
</g>
<!-- Node3&#45;&gt;Node86 -->
<g id="edge29" class="edge">
<title>Node3&#45;&gt;Node86</title>
<path fill="none" stroke="#63b8ff" d="M2735.82,-155.91C2538.64,-152.35 1959.37,-139.35 1773.32,-107 1766.23,-105.77 1758.81,-103.99 1751.65,-102"/>
<polygon fill="#63b8ff" stroke="#63b8ff" points="2735.57,-159.41 2745.63,-156.09 2735.69,-152.41 2735.57,-159.41"/>
</g>
<!-- Node87 -->
<g id="node26" class="node">
<title>Node87</title>
<g id="a_node26"><a xlink:href="d__a__cstaF_8h.html" target="_top" xlink:title=" ">
<polygon fill="white" stroke="#666666" points="1885.82,-101.5 1782.82,-101.5 1782.82,-71.5 1885.82,-71.5 1885.82,-101.5"/>
<text text-anchor="start" x="1790.82" y="-89.5" font-family="Helvetica,sans-Serif" font-size="10.00">include/rel/d/a/d_a</text>
<text text-anchor="middle" x="1834.32" y="-78.5" font-family="Helvetica,sans-Serif" font-size="10.00">_cstaF/d_a_cstaF.h</text>
</a>
</g>
</g>
<!-- Node3&#45;&gt;Node87 -->
<g id="edge30" class="edge">
<title>Node3&#45;&gt;Node87</title>
<path fill="none" stroke="#63b8ff" d="M2735.46,-155.52C2554.26,-151.15 2056.57,-136.71 1895.32,-107 1888.54,-105.75 1881.47,-103.96 1874.64,-101.97"/>
<polygon fill="#63b8ff" stroke="#63b8ff" points="2735.34,-159.01 2745.42,-155.75 2735.5,-152.02 2735.34,-159.01"/>
</g>
<!-- Node88 -->
<g id="node27" class="node">
<title>Node88</title>
<g id="a_node27"><a xlink:href="d__a__dmidna_8h.html" target="_top" xlink:title=" ">
<polygon fill="white" stroke="#666666" points="2020.32,-101.5 1904.32,-101.5 1904.32,-71.5 2020.32,-71.5 2020.32,-101.5"/>
<text text-anchor="start" x="1912.32" y="-89.5" font-family="Helvetica,sans-Serif" font-size="10.00">include/rel/d/a/d_a</text>
<text text-anchor="middle" x="1962.32" y="-78.5" font-family="Helvetica,sans-Serif" font-size="10.00">_dmidna/d_a_dmidna.h</text>
</a>
</g>
</g>
<!-- Node3&#45;&gt;Node88 -->
<g id="edge31" class="edge">
<title>Node3&#45;&gt;Node88</title>
<path fill="none" stroke="#63b8ff" d="M2735.7,-157.57C2601.12,-157.64 2287.69,-152.39 2029.32,-107 2022.04,-105.72 2014.43,-103.94 2007.05,-101.98"/>
<polygon fill="#63b8ff" stroke="#63b8ff" points="2735.5,-161.07 2745.49,-157.55 2735.48,-154.07 2735.5,-161.07"/>
</g>
<!-- Node89 -->
<g id="node28" class="node">
<title>Node89</title>
<g id="a_node28"><a xlink:href="d__a__econt_8h.html" target="_top" xlink:title=" ">
<polygon fill="white" stroke="#666666" points="2139.82,-101.5 2038.82,-101.5 2038.82,-71.5 2139.82,-71.5 2139.82,-101.5"/>
<text text-anchor="start" x="2046.82" y="-89.5" font-family="Helvetica,sans-Serif" font-size="10.00">include/rel/d/a/d_a</text>
<text text-anchor="middle" x="2089.32" y="-78.5" font-family="Helvetica,sans-Serif" font-size="10.00">_econt/d_a_econt.h</text>
</a>
</g>
</g>
<!-- Node3&#45;&gt;Node89 -->
<g id="edge32" class="edge">
<title>Node3&#45;&gt;Node89</title>
<path fill="none" stroke="#63b8ff" d="M2735.58,-157.21C2616.44,-156.42 2359.84,-149.38 2148.32,-107 2141.87,-105.71 2135.14,-103.92 2128.64,-101.96"/>
<polygon fill="#63b8ff" stroke="#63b8ff" points="2735.48,-160.71 2745.5,-157.26 2735.52,-153.71 2735.48,-160.71"/>
</g>
<!-- Node90 -->
<g id="node29" class="node">
<title>Node90</title>
<g id="a_node29"><a xlink:href="d__a__guard__mng_8h.html" target="_top" xlink:title=" ">
<polygon fill="white" stroke="#666666" points="2306.82,-101.5 2157.82,-101.5 2157.82,-71.5 2306.82,-71.5 2306.82,-101.5"/>
<text text-anchor="start" x="2165.82" y="-89.5" font-family="Helvetica,sans-Serif" font-size="10.00">include/rel/d/a/d_a</text>
<text text-anchor="middle" x="2232.32" y="-78.5" font-family="Helvetica,sans-Serif" font-size="10.00">_guard_mng/d_a_guard_mng.h</text>
</a>
</g>
</g>
<!-- Node3&#45;&gt;Node90 -->
<g id="edge33" class="edge">
<title>Node3&#45;&gt;Node90</title>
<path fill="none" stroke="#63b8ff" d="M2735.67,-152.8C2641.7,-146.29 2465.1,-131.82 2316.32,-107 2307.9,-105.6 2299.07,-103.85 2290.42,-101.98"/>
<polygon fill="#63b8ff" stroke="#63b8ff" points="2735.27,-156.28 2745.48,-153.48 2735.74,-149.3 2735.27,-156.28"/>
</g>
<!-- Node91 -->
<g id="node30" class="node">
<title>Node91</title>
<g id="a_node30"><a xlink:href="d__a__hitobj_8h.html" target="_top" xlink:title=" ">
<polygon fill="white" stroke="#666666" points="2425.32,-101.5 2325.32,-101.5 2325.32,-71.5 2425.32,-71.5 2425.32,-101.5"/>
<text text-anchor="start" x="2333.32" y="-89.5" font-family="Helvetica,sans-Serif" font-size="10.00">include/rel/d/a/d_a</text>
<text text-anchor="middle" x="2375.32" y="-78.5" font-family="Helvetica,sans-Serif" font-size="10.00">_hitobj/d_a_hitobj.h</text>
</a>
</g>
</g>
<!-- Node3&#45;&gt;Node91 -->
<g id="edge34" class="edge">
<title>Node3&#45;&gt;Node91</title>
<path fill="none" stroke="#63b8ff" d="M2735.85,-151.68C2661.64,-144.89 2538.29,-131.03 2434.32,-107 2428.23,-105.59 2421.86,-103.82 2415.67,-101.92"/>
<polygon fill="#63b8ff" stroke="#63b8ff" points="2735.1,-155.13 2745.38,-152.54 2735.73,-148.16 2735.1,-155.13"/>
</g>
<!-- Node92 -->
<g id="node31" class="node">
<title>Node92</title>
<g id="a_node31"><a xlink:href="d__a__set__bgobj_8h.html" target="_top" xlink:title=" ">
<polygon fill="white" stroke="#666666" points="2580.82,-101.5 2443.82,-101.5 2443.82,-71.5 2580.82,-71.5 2580.82,-101.5"/>
<text text-anchor="start" x="2451.82" y="-89.5" font-family="Helvetica,sans-Serif" font-size="10.00">include/rel/d/a/d_a</text>
<text text-anchor="middle" x="2512.32" y="-78.5" font-family="Helvetica,sans-Serif" font-size="10.00">_set_bgobj/d_a_set_bgobj.h</text>
</a>
</g>
</g>
<!-- Node3&#45;&gt;Node92 -->
<g id="edge35" class="edge">
<title>Node3&#45;&gt;Node92</title>
<path fill="none" stroke="#63b8ff" d="M2735.77,-141.55C2693.98,-131.78 2638.96,-118.82 2590.32,-107 2583.68,-105.39 2576.72,-103.67 2569.81,-101.96"/>
<polygon fill="#63b8ff" stroke="#63b8ff" points="2734.92,-144.94 2745.45,-143.8 2736.51,-138.12 2734.92,-144.94"/>
</g>
<!-- Node93 -->
<g id="node32" class="node">
<title>Node93</title>
<g id="a_node32"><a xlink:href="d__a__skip__2D_8h.html" target="_top" xlink:title=" ">
<polygon fill="white" stroke="#666666" points="2723.32,-101.5 2599.32,-101.5 2599.32,-71.5 2723.32,-71.5 2723.32,-101.5"/>
<text text-anchor="start" x="2607.32" y="-89.5" font-family="Helvetica,sans-Serif" font-size="10.00">include/rel/d/a/d_a</text>
<text text-anchor="middle" x="2661.32" y="-78.5" font-family="Helvetica,sans-Serif" font-size="10.00">_skip_2D/d_a_skip_2D.h</text>
</a>
</g>
</g>
<!-- Node3&#45;&gt;Node93 -->
<g id="edge36" class="edge">
<title>Node3&#45;&gt;Node93</title>
<path fill="none" stroke="#63b8ff" d="M2762.98,-137.61C2739.99,-126.28 2711.48,-112.22 2690.5,-101.88"/>
<polygon fill="#63b8ff" stroke="#63b8ff" points="2761.23,-140.65 2771.75,-141.93 2764.33,-134.37 2761.23,-140.65"/>
</g>
<!-- Node94 -->
<g id="node33" class="node">
<title>Node94</title>
<g id="a_node33"><a xlink:href="d__a__spinner_8h.html" target="_top" xlink:title=" ">
<polygon fill="#fff0f0" stroke="red" points="639.32,-101.5 523.32,-101.5 523.32,-71.5 639.32,-71.5 639.32,-101.5"/>
<text text-anchor="start" x="531.32" y="-89.5" font-family="Helvetica,sans-Serif" font-size="10.00">include/rel/d/a/d_a</text>
<text text-anchor="middle" x="581.32" y="-78.5" font-family="Helvetica,sans-Serif" font-size="10.00">_spinner/d_a_spinner.h</text>
</a>
</g>
</g>
<!-- Node3&#45;&gt;Node94 -->
<g id="edge37" class="edge">
<title>Node3&#45;&gt;Node94</title>
<path fill="none" stroke="#63b8ff" d="M2735.54,-156.4C2395.36,-153.24 863.25,-137.41 653.32,-107 645.12,-105.81 636.52,-104 628.23,-101.95"/>
<polygon fill="#63b8ff" stroke="#63b8ff" points="2735.35,-159.9 2745.38,-156.5 2735.41,-152.9 2735.35,-159.9"/>
</g>
<!-- Node97 -->
<g id="node34" class="node">
<title>Node97</title>
<g id="a_node34"><a xlink:href="d__a__swTime_8h.html" target="_top" xlink:title=" ">
<polygon fill="white" stroke="#666666" points="2863.32,-101.5 2741.32,-101.5 2741.32,-71.5 2863.32,-71.5 2863.32,-101.5"/>
<text text-anchor="start" x="2749.32" y="-89.5" font-family="Helvetica,sans-Serif" font-size="10.00">include/rel/d/a/d_a</text>
<text text-anchor="middle" x="2802.32" y="-78.5" font-family="Helvetica,sans-Serif" font-size="10.00">_swTime/d_a_swTime.h</text>
</a>
</g>
</g>
<!-- Node3&#45;&gt;Node97 -->
<g id="edge39" class="edge">
<title>Node3&#45;&gt;Node97</title>
<path fill="none" stroke="#63b8ff" d="M2802.32,-131.26C2802.32,-121.33 2802.32,-110.36 2802.32,-101.88"/>
<polygon fill="#63b8ff" stroke="#63b8ff" points="2798.82,-131.09 2802.32,-141.09 2805.82,-131.09 2798.82,-131.09"/>
</g>
<!-- Node98 -->
<g id="node35" class="node">
<title>Node98</title>
<g id="a_node35"><a xlink:href="d__a__obj__cboard_8h.html" target="_top" xlink:title=" ">
<polygon fill="white" stroke="#666666" points="2988.82,-107 2881.82,-107 2881.82,-66 2988.82,-66 2988.82,-107"/>
<text text-anchor="start" x="2889.82" y="-95" font-family="Helvetica,sans-Serif" font-size="10.00">include/rel/d/a/obj</text>
<text text-anchor="start" x="2889.82" y="-84" font-family="Helvetica,sans-Serif" font-size="10.00">/d_a_obj_cboard/d_a</text>
<text text-anchor="middle" x="2935.32" y="-73" font-family="Helvetica,sans-Serif" font-size="10.00">_obj_cboard.h</text>
</a>
</g>
</g>
<!-- Node3&#45;&gt;Node98 -->
<g id="edge41" class="edge">
<title>Node3&#45;&gt;Node98</title>
<path fill="none" stroke="#63b8ff" d="M2839.97,-137.33C2857.88,-127.97 2879.24,-116.8 2897.21,-107.42"/>
<polygon fill="#63b8ff" stroke="#63b8ff" points="2838.46,-134.17 2831.22,-141.9 2841.7,-140.37 2838.46,-134.17"/>
</g>
<!-- Node99 -->
<g id="node36" class="node">
<title>Node99</title>
<g id="a_node36"><a xlink:href="d__a__obj__enemy__create_8h.html" target="_top" xlink:title=" ">
<polygon fill="white" stroke="#666666" points="3133.82,-107 3006.82,-107 3006.82,-66 3133.82,-66 3133.82,-107"/>
<text text-anchor="start" x="3014.82" y="-95" font-family="Helvetica,sans-Serif" font-size="10.00">include/rel/d/a/obj</text>
<text text-anchor="start" x="3014.82" y="-84" font-family="Helvetica,sans-Serif" font-size="10.00">/d_a_obj_enemy_create</text>
<text text-anchor="middle" x="3070.32" y="-73" font-family="Helvetica,sans-Serif" font-size="10.00">/d_a_obj_enemy_create.h</text>
</a>
</g>
</g>
<!-- Node3&#45;&gt;Node99 -->
<g id="edge42" class="edge">
<title>Node3&#45;&gt;Node99</title>
<path fill="none" stroke="#63b8ff" d="M2868.28,-140.26C2906.08,-130.63 2954.39,-118.24 2997.32,-107 3000.37,-106.2 3003.48,-105.38 3006.63,-104.55"/>
<polygon fill="#63b8ff" stroke="#63b8ff" points="2867.71,-136.8 2858.88,-142.66 2869.44,-143.58 2867.71,-136.8"/>
</g>
<!-- Node100 -->
<g id="node37" class="node">
<title>Node100</title>
<g id="a_node37"><a xlink:href="d__a__obj__onsenFire_8h.html" target="_top" xlink:title=" ">
<polygon fill="white" stroke="#666666" points="3262.32,-107 3152.32,-107 3152.32,-66 3262.32,-66 3262.32,-107"/>
<text text-anchor="start" x="3160.32" y="-95" font-family="Helvetica,sans-Serif" font-size="10.00">include/rel/d/a/obj</text>
<text text-anchor="start" x="3160.32" y="-84" font-family="Helvetica,sans-Serif" font-size="10.00">/d_a_obj_onsenFire/d</text>
<text text-anchor="middle" x="3207.32" y="-73" font-family="Helvetica,sans-Serif" font-size="10.00">_a_obj_onsenFire.h</text>
</a>
</g>
</g>
<!-- Node3&#45;&gt;Node100 -->
<g id="edge43" class="edge">
<title>Node3&#45;&gt;Node100</title>
<path fill="none" stroke="#63b8ff" d="M2868.64,-150.14C2937.55,-142.34 3048.26,-127.91 3142.32,-107 3145.54,-106.28 3148.84,-105.49 3152.15,-104.65"/>
<polygon fill="#63b8ff" stroke="#63b8ff" points="2868.59,-146.62 2859.04,-151.21 2869.37,-153.58 2868.59,-146.62"/>
</g>
<!-- Node101 -->
<g id="node38" class="node">
<title>Node101</title>
<g id="a_node38"><a xlink:href="d__a__obj__smoke_8h.html" target="_top" xlink:title=" ">
<polygon fill="white" stroke="#666666" points="3405.82,-107 3280.82,-107 3280.82,-66 3405.82,-66 3405.82,-107"/>
<text text-anchor="start" x="3288.82" y="-95" font-family="Helvetica,sans-Serif" font-size="10.00">include/rel/d/a/obj</text>
<text text-anchor="start" x="3288.82" y="-84" font-family="Helvetica,sans-Serif" font-size="10.00">/d_a_obj_smoke/d_a_obj</text>
<text text-anchor="middle" x="3343.32" y="-73" font-family="Helvetica,sans-Serif" font-size="10.00">_smoke.h</text>
</a>
</g>
</g>
<!-- Node3&#45;&gt;Node101 -->
<g id="edge44" class="edge">
<title>Node3&#45;&gt;Node101</title>
<path fill="none" stroke="#63b8ff" d="M2868.89,-153.23C2960.25,-147.3 3129.31,-133.63 3271.32,-107 3274.38,-106.43 3277.49,-105.79 3280.63,-105.11"/>
<polygon fill="#63b8ff" stroke="#63b8ff" points="2868.88,-149.72 2859.12,-153.85 2869.32,-156.71 2868.88,-149.72"/>
</g>
<!-- Node102 -->
<g id="node39" class="node">
<title>Node102</title>
<g id="a_node39"><a xlink:href="d__a__obj__stone_8h.html" target="_top" xlink:title=" ">
<polygon fill="white" stroke="#666666" points="3542.82,-107 3423.82,-107 3423.82,-66 3542.82,-66 3542.82,-107"/>
<text text-anchor="start" x="3431.82" y="-95" font-family="Helvetica,sans-Serif" font-size="10.00">include/rel/d/a/obj</text>
<text text-anchor="start" x="3431.82" y="-84" font-family="Helvetica,sans-Serif" font-size="10.00">/d_a_obj_stone/d_a_obj</text>
<text text-anchor="middle" x="3483.32" y="-73" font-family="Helvetica,sans-Serif" font-size="10.00">_stone.h</text>
</a>
</g>
</g>
<!-- Node3&#45;&gt;Node102 -->
<g id="edge45" class="edge">
<title>Node3&#45;&gt;Node102</title>
<path fill="none" stroke="#63b8ff" d="M2868.84,-155.78C2981.82,-152.76 3218.06,-142.4 3414.32,-107 3417.38,-106.45 3420.51,-105.82 3423.65,-105.13"/>
<polygon fill="#63b8ff" stroke="#63b8ff" points="2869.07,-152.27 2859.16,-156.02 2869.24,-159.27 2869.07,-152.27"/>
</g>
<!-- Node103 -->
<g id="node40" class="node">
<title>Node103</title>
<g id="a_node40"><a xlink:href="d__a__obj__stoneMark_8h.html" target="_top" xlink:title=" ">
<polygon fill="white" stroke="#666666" points="3673.82,-107 3560.82,-107 3560.82,-66 3673.82,-66 3673.82,-107"/>
<text text-anchor="start" x="3568.82" y="-95" font-family="Helvetica,sans-Serif" font-size="10.00">include/rel/d/a/obj</text>
<text text-anchor="start" x="3568.82" y="-84" font-family="Helvetica,sans-Serif" font-size="10.00">/d_a_obj_stoneMark/d</text>
<text text-anchor="middle" x="3617.32" y="-73" font-family="Helvetica,sans-Serif" font-size="10.00">_a_obj_stoneMark.h</text>
</a>
</g>
</g>
<!-- Node3&#45;&gt;Node103 -->
<g id="edge46" class="edge">
<title>Node3&#45;&gt;Node103</title>
<path fill="none" stroke="#63b8ff" d="M2869.25,-157.45C3000.95,-157.27 3302.57,-151.49 3551.32,-107 3554.38,-106.45 3557.5,-105.82 3560.63,-105.11"/>
<polygon fill="#63b8ff" stroke="#63b8ff" points="2869.31,-153.95 2859.31,-157.46 2869.31,-160.95 2869.31,-153.95"/>
</g>
<!-- Node104 -->
<g id="node41" class="node">
<title>Node104</title>
<g id="a_node41"><a xlink:href="d__a__obj__web0_8h.html" target="_top" xlink:title=" ">
<polygon fill="white" stroke="#666666" points="3810.82,-107 3691.82,-107 3691.82,-66 3810.82,-66 3810.82,-107"/>
<text text-anchor="start" x="3699.82" y="-95" font-family="Helvetica,sans-Serif" font-size="10.00">include/rel/d/a/obj</text>
<text text-anchor="start" x="3699.82" y="-84" font-family="Helvetica,sans-Serif" font-size="10.00">/d_a_obj_web0/d_a_obj</text>
<text text-anchor="middle" x="3751.32" y="-73" font-family="Helvetica,sans-Serif" font-size="10.00">_web0.h</text>
</a>
</g>
</g>
<!-- Node3&#45;&gt;Node104 -->
<g id="edge47" class="edge">
<title>Node3&#45;&gt;Node104</title>
<path fill="none" stroke="#63b8ff" d="M2869.28,-155.09C3046.71,-149.73 3526.05,-133.2 3682.32,-107 3685.39,-106.49 3688.52,-105.89 3691.66,-105.22"/>
<polygon fill="#63b8ff" stroke="#63b8ff" points="2869.19,-151.59 2859.3,-155.39 2869.4,-158.59 2869.19,-151.59"/>
</g>
<!-- Node105 -->
<g id="node42" class="node">
<title>Node105</title>
<g id="a_node42"><a xlink:href="d__a__obj__web1_8h.html" target="_top" xlink:title=" ">
<polygon fill="white" stroke="#666666" points="3947.82,-107 3828.82,-107 3828.82,-66 3947.82,-66 3947.82,-107"/>
<text text-anchor="start" x="3836.82" y="-95" font-family="Helvetica,sans-Serif" font-size="10.00">include/rel/d/a/obj</text>
<text text-anchor="start" x="3836.82" y="-84" font-family="Helvetica,sans-Serif" font-size="10.00">/d_a_obj_web1/d_a_obj</text>
<text text-anchor="middle" x="3888.32" y="-73" font-family="Helvetica,sans-Serif" font-size="10.00">_web1.h</text>
</a>
</g>
</g>
<!-- Node3&#45;&gt;Node105 -->
<g id="edge48" class="edge">
<title>Node3&#45;&gt;Node105</title>
<path fill="none" stroke="#63b8ff" d="M2869.04,-155.69C3064.81,-151.53 3635.45,-137.1 3819.32,-107 3822.39,-106.5 3825.52,-105.91 3828.67,-105.25"/>
<polygon fill="#63b8ff" stroke="#63b8ff" points="2869.23,-152.18 2859.31,-155.89 2869.38,-159.18 2869.23,-152.18"/>
</g>
<!-- Node106 -->
<g id="node43" class="node">
<title>Node106</title>
<g id="a_node43"><a xlink:href="d__a__obj__yobikusa_8h.html" target="_top" xlink:title=" ">
<polygon fill="white" stroke="#666666" points="4070.82,-107 3965.82,-107 3965.82,-66 4070.82,-66 4070.82,-107"/>
<text text-anchor="start" x="3973.82" y="-95" font-family="Helvetica,sans-Serif" font-size="10.00">include/rel/d/a/obj</text>
<text text-anchor="start" x="3973.82" y="-84" font-family="Helvetica,sans-Serif" font-size="10.00">/d_a_obj_yobikusa/d</text>
<text text-anchor="middle" x="4018.32" y="-73" font-family="Helvetica,sans-Serif" font-size="10.00">_a_obj_yobikusa.h</text>
</a>
</g>
</g>
<!-- Node3&#45;&gt;Node106 -->
<g id="edge49" class="edge">
<title>Node3&#45;&gt;Node106</title>
<path fill="none" stroke="#63b8ff" d="M2868.8,-156.4C3081.71,-154.11 3745.17,-144.12 3956.32,-107 3959.32,-106.47 3962.38,-105.84 3965.45,-105.13"/>
<polygon fill="#63b8ff" stroke="#63b8ff" points="2868.98,-152.9 2859.02,-156.5 2869.06,-159.9 2868.98,-152.9"/>
</g>
<!-- Node107 -->
<g id="node44" class="node">
<title>Node107</title>
<g id="a_node44"><a xlink:href="d__a__tag__ajnot_8h.html" target="_top" xlink:title=" ">
<polygon fill="white" stroke="#666666" points="4207.32,-107 4089.32,-107 4089.32,-66 4207.32,-66 4207.32,-107"/>
<text text-anchor="start" x="4097.32" y="-95" font-family="Helvetica,sans-Serif" font-size="10.00">include/rel/d/a/tag</text>
<text text-anchor="start" x="4097.32" y="-84" font-family="Helvetica,sans-Serif" font-size="10.00">/d_a_tag_ajnot/d_a_tag</text>
<text text-anchor="middle" x="4148.32" y="-73" font-family="Helvetica,sans-Serif" font-size="10.00">_ajnot.h</text>
</a>
</g>
</g>
<!-- Node3&#45;&gt;Node107 -->
<g id="edge50" class="edge">
<title>Node3&#45;&gt;Node107</title>
<path fill="none" stroke="#63b8ff" d="M2869.18,-156.46C3097.14,-154.31 3842.8,-144.51 4079.32,-107 4082.52,-106.49 4085.78,-105.89 4089.05,-105.21"/>
<polygon fill="#63b8ff" stroke="#63b8ff" points="2869.25,-152.96 2859.28,-156.56 2869.31,-159.96 2869.25,-152.96"/>
</g>
<!-- Node108 -->
<g id="node45" class="node">
<title>Node108</title>
<g id="a_node45"><a xlink:href="d__a__tag__assistance_8h.html" target="_top" xlink:title=" ">
<polygon fill="white" stroke="#666666" points="4339.32,-107 4225.32,-107 4225.32,-66 4339.32,-66 4339.32,-107"/>
<text text-anchor="start" x="4233.32" y="-95" font-family="Helvetica,sans-Serif" font-size="10.00">include/rel/d/a/tag</text>
<text text-anchor="start" x="4233.32" y="-84" font-family="Helvetica,sans-Serif" font-size="10.00">/d_a_tag_assistance</text>
<text text-anchor="middle" x="4282.32" y="-73" font-family="Helvetica,sans-Serif" font-size="10.00">/d_a_tag_assistance.h</text>
</a>
</g>
</g>
<!-- Node3&#45;&gt;Node108 -->
<g id="edge51" class="edge">
<title>Node3&#45;&gt;Node108</title>
<path fill="none" stroke="#63b8ff" d="M2869.3,-156.86C3113.02,-156.02 3952.13,-149.99 4216.32,-107 4219.15,-106.54 4222.03,-105.99 4224.93,-105.38"/>
<polygon fill="#63b8ff" stroke="#63b8ff" points="2869.31,-153.36 2859.33,-156.9 2869.34,-160.36 2869.31,-153.36"/>
</g>
<!-- Node109 -->
<g id="node46" class="node">
<title>Node109</title>
<g id="a_node46"><a xlink:href="d__a__tag__attention_8h.html" target="_top" xlink:title=" ">
<polygon fill="white" stroke="#666666" points="4462.82,-107 4357.82,-107 4357.82,-66 4462.82,-66 4462.82,-107"/>
<text text-anchor="start" x="4365.82" y="-95" font-family="Helvetica,sans-Serif" font-size="10.00">include/rel/d/a/tag</text>
<text text-anchor="start" x="4365.82" y="-84" font-family="Helvetica,sans-Serif" font-size="10.00">/d_a_tag_attention/d</text>
<text text-anchor="middle" x="4410.32" y="-73" font-family="Helvetica,sans-Serif" font-size="10.00">_a_tag_attention.h</text>
</a>
</g>
</g>
<!-- Node3&#45;&gt;Node109 -->
<g id="edge52" class="edge">
<title>Node3&#45;&gt;Node109</title>
<path fill="none" stroke="#63b8ff" d="M2869.05,-157.25C3126.8,-157.86 4057.44,-156.49 4348.32,-107 4351.32,-106.49 4354.38,-105.87 4357.45,-105.17"/>
<polygon fill="#63b8ff" stroke="#63b8ff" points="2869.17,-153.75 2859.16,-157.23 2869.15,-160.75 2869.17,-153.75"/>
</g>
<!-- Node110 -->
<g id="node47" class="node">
<title>Node110</title>
<g id="a_node47"><a xlink:href="d__a__tag__gra_8h.html" target="_top" xlink:title=" ">
<polygon fill="white" stroke="#666666" points="4617.82,-101.5 4480.82,-101.5 4480.82,-71.5 4617.82,-71.5 4617.82,-101.5"/>
<text text-anchor="start" x="4488.82" y="-89.5" font-family="Helvetica,sans-Serif" font-size="10.00">include/rel/d/a/tag</text>
<text text-anchor="middle" x="4549.32" y="-78.5" font-family="Helvetica,sans-Serif" font-size="10.00">/d_a_tag_gra/d_a_tag_gra.h</text>
</a>
</g>
</g>
<!-- Node3&#45;&gt;Node110 -->
<g id="edge53" class="edge">
<title>Node3&#45;&gt;Node110</title>
<path fill="none" stroke="#63b8ff" d="M2868.86,-156.91C3138.91,-156.27 4153.73,-150.93 4471.32,-107 4480.03,-105.79 4489.18,-104 4498.02,-101.98"/>
<polygon fill="#63b8ff" stroke="#63b8ff" points="2869.2,-153.41 2859.2,-156.94 2869.21,-160.41 2869.2,-153.41"/>
</g>
<!-- Node111 -->
<g id="node48" class="node">
<title>Node111</title>
<g id="a_node48"><a xlink:href="d__a__tag__hinit_8h.html" target="_top" xlink:title=" ">
<polygon fill="white" stroke="#666666" points="4750.82,-107 4635.82,-107 4635.82,-66 4750.82,-66 4750.82,-107"/>
<text text-anchor="start" x="4643.82" y="-95" font-family="Helvetica,sans-Serif" font-size="10.00">include/rel/d/a/tag</text>
<text text-anchor="start" x="4643.82" y="-84" font-family="Helvetica,sans-Serif" font-size="10.00">/d_a_tag_hinit/d_a_tag</text>
<text text-anchor="middle" x="4693.32" y="-73" font-family="Helvetica,sans-Serif" font-size="10.00">_hinit.h</text>
</a>
</g>
</g>
<!-- Node3&#45;&gt;Node111 -->
<g id="edge54" class="edge">
<title>Node3&#45;&gt;Node111</title>
<path fill="none" stroke="#63b8ff" d="M2868.92,-156.18C3176.29,-152.28 4450.38,-134.55 4626.32,-107 4629.31,-106.53 4632.36,-105.97 4635.42,-105.33"/>
<polygon fill="#63b8ff" stroke="#63b8ff" points="2869.01,-152.68 2859.06,-156.31 2869.1,-159.68 2869.01,-152.68"/>
</g>
<!-- Node112 -->
<g id="node49" class="node">
<title>Node112</title>
<g id="a_node49"><a xlink:href="d__a__tag__howl_8h.html" target="_top" xlink:title=" ">
<polygon fill="white" stroke="#666666" points="4885.82,-107 4768.82,-107 4768.82,-66 4885.82,-66 4885.82,-107"/>
<text text-anchor="start" x="4776.82" y="-95" font-family="Helvetica,sans-Serif" font-size="10.00">include/rel/d/a/tag</text>
<text text-anchor="start" x="4776.82" y="-84" font-family="Helvetica,sans-Serif" font-size="10.00">/d_a_tag_howl/d_a_tag</text>
<text text-anchor="middle" x="4827.32" y="-73" font-family="Helvetica,sans-Serif" font-size="10.00">_howl.h</text>
</a>
</g>
</g>
<!-- Node3&#45;&gt;Node112 -->
<g id="edge55" class="edge">
<title>Node3&#45;&gt;Node112</title>
<path fill="none" stroke="#63b8ff" d="M2869.01,-156.3C3190.15,-152.79 4569.56,-136.15 4759.32,-107 4762.36,-106.53 4765.45,-105.97 4768.55,-105.34"/>
<polygon fill="#63b8ff" stroke="#63b8ff" points="2869.07,-152.8 2859.11,-156.41 2869.14,-159.8 2869.07,-152.8"/>
</g>
<!-- Node113 -->
<g id="node50" class="node">
<title>Node113</title>
<g id="a_node50"><a xlink:href="d__a__tag__lv6CstaSw_8h.html" target="_top" xlink:title=" ">
<polygon fill="white" stroke="#666666" points="5018.82,-107 4903.82,-107 4903.82,-66 5018.82,-66 5018.82,-107"/>
<text text-anchor="start" x="4911.82" y="-95" font-family="Helvetica,sans-Serif" font-size="10.00">include/rel/d/a/tag</text>
<text text-anchor="start" x="4911.82" y="-84" font-family="Helvetica,sans-Serif" font-size="10.00">/d_a_tag_lv6CstaSw/d</text>
<text text-anchor="middle" x="4961.32" y="-73" font-family="Helvetica,sans-Serif" font-size="10.00">_a_tag_lv6CstaSw.h</text>
</a>
</g>
</g>
<!-- Node3&#45;&gt;Node113 -->
<g id="edge56" class="edge">
<title>Node3&#45;&gt;Node113</title>
<path fill="none" stroke="#63b8ff" d="M2869.22,-156.43C3204.15,-153.45 4690.63,-138.53 4894.32,-107 4897.31,-106.54 4900.36,-105.98 4903.42,-105.35"/>
<polygon fill="#63b8ff" stroke="#63b8ff" points="2869.28,-152.93 2859.31,-156.52 2869.34,-159.93 2869.28,-152.93"/>
</g>
<!-- Node10&#45;&gt;Node11 -->
<g id="edge5" class="edge">
<title>Node10&#45;&gt;Node11</title>
<path fill="none" stroke="#63b8ff" d="M5060.18,-73.18C5050,-70.25 5038.83,-67.53 5028.32,-66 4821.27,-35.89 1471.48,-35.45 1262.32,-30 1165.02,-27.47 1051.63,-22.11 986.58,-18.81"/>
<polygon fill="#63b8ff" stroke="#63b8ff" points="5059.13,-76.52 5069.72,-76.09 5061.17,-69.83 5059.13,-76.52"/>
</g>
<!-- Node10&#45;&gt;Node17 -->
<g id="edge6" class="edge">
<title>Node10&#45;&gt;Node17</title>
<path fill="none" stroke="#63b8ff" d="M5107.92,-67.19C5115.23,-55.64 5124.52,-40.95 5131.28,-30.27"/>
<polygon fill="#63b8ff" stroke="#63b8ff" points="5105.1,-65.1 5102.7,-75.42 5111.01,-68.84 5105.1,-65.1"/>
</g>
<!-- Node22&#45;&gt;Node15 -->
<g id="edge9" class="edge">
<title>Node22&#45;&gt;Node15</title>
<path fill="none" stroke="#63b8ff" d="M457.32,-65.3C457.32,-51.94 457.32,-35.09 457.32,-24.95"/>
<polygon fill="#63b8ff" stroke="#63b8ff" points="453.82,-65.18 457.32,-75.18 460.82,-65.18 453.82,-65.18"/>
</g>
<!-- Node32&#45;&gt;Node33 -->
<g id="edge13" class="edge">
<title>Node32&#45;&gt;Node33</title>
<path fill="none" stroke="#63b8ff" d="M5287.83,-70.94C5307.95,-58.99 5336.3,-42.15 5356.29,-30.27"/>
<polygon fill="#63b8ff" stroke="#63b8ff" points="5286.25,-67.81 5279.44,-75.92 5289.83,-73.83 5286.25,-67.81"/>
</g>
<!-- Node39&#45;&gt;Node33 -->
<g id="edge16" class="edge">
<title>Node39&#45;&gt;Node33</title>
<path fill="none" stroke="#63b8ff" d="M5380.32,-59.76C5380.32,-49.83 5380.32,-38.86 5380.32,-30.38"/>
<polygon fill="#63b8ff" stroke="#63b8ff" points="5376.82,-59.59 5380.32,-69.59 5383.82,-59.59 5376.82,-59.59"/>
</g>
<!-- Node53&#45;&gt;Node4 -->
<g id="edge21" class="edge">
<title>Node53&#45;&gt;Node4</title>
<path fill="none" stroke="#63b8ff" d="M1300.49,-61.49C1308.01,-48.74 1316.79,-33.86 1322.2,-24.68"/>
<polygon fill="#63b8ff" stroke="#63b8ff" points="1297.65,-59.4 1295.59,-69.8 1303.68,-62.96 1297.65,-59.4"/>
</g>
<!-- Node53&#45;&gt;Node15 -->
<g id="edge22" class="edge">
<title>Node53&#45;&gt;Node15</title>
<path fill="none" stroke="#63b8ff" d="M1232.1,-68.25C1228.47,-67.4 1224.86,-66.64 1221.32,-66 1084.87,-41.39 663.42,-23.69 512.11,-17.98"/>
<polygon fill="#63b8ff" stroke="#63b8ff" points="1230.92,-71.56 1241.48,-70.64 1232.65,-64.78 1230.92,-71.56"/>
</g>
<!-- Node74&#45;&gt;Node75 -->
<g id="edge25" class="edge">
<title>Node74&#45;&gt;Node75</title>
<path fill="none" stroke="#63b8ff" d="M5579.32,-65.3C5579.32,-51.94 5579.32,-35.09 5579.32,-24.95"/>
<polygon fill="#63b8ff" stroke="#63b8ff" points="5575.82,-65.18 5579.32,-75.18 5582.82,-65.18 5575.82,-65.18"/>
</g>
<!-- Node94&#45;&gt;Node15 -->
<g id="edge38" class="edge">
<title>Node94&#45;&gt;Node15</title>
<path fill="none" stroke="#63b8ff" d="M545.81,-65.6C521.84,-52.16 491.38,-35.09 473.16,-24.88"/>
<polygon fill="#63b8ff" stroke="#63b8ff" points="543.87,-68.52 554.31,-70.36 547.3,-62.42 543.87,-68.52"/>
</g>
</g>
</svg>
