<?xml version="1.0" encoding="UTF-8" standalone="no"?>
<!DOCTYPE svg PUBLIC "-//W3C//DTD SVG 1.1//EN"
 "http://www.w3.org/Graphics/SVG/1.1/DTD/svg11.dtd">
<!-- Generated by graphviz version 7.0.5 (20221223.1930)
 -->
<!-- Title: include/d/d_lib.h Pages: 1 -->
<svg width="2988pt" height="93pt"
 viewBox="0.00 0.00 2988.00 93.00" xmlns="http://www.w3.org/2000/svg" xmlns:xlink="http://www.w3.org/1999/xlink">
<g id="graph0" class="graph" transform="scale(1 1) rotate(0) translate(4 89)">
<title>include/d/d_lib.h</title>
<!-- Node1 -->
<g id="node1" class="node">
<title>Node1</title>
<g id="a_node1"><a xlink:title=" ">
<polygon fill="#999999" stroke="#666666" points="1426,-85 1340,-85 1340,-66 1426,-66 1426,-85"/>
<text text-anchor="middle" x="1383" y="-73" font-family="Helvetica,sans-Serif" font-size="10.00">include/d/d_lib.h</text>
</a>
</g>
</g>
<!-- Node2 -->
<g id="node2" class="node">
<title>Node2</title>
<g id="a_node2"><a xlink:href="d__a__obj__mgate_8cpp.html" target="_top" xlink:title=" ">
<polygon fill="white" stroke="#666666" points="136,-30 0,-30 0,0 136,0 136,-30"/>
<text text-anchor="start" x="8" y="-18" font-family="Helvetica,sans-Serif" font-size="10.00">rel/d/a/obj/d_a_obj</text>
<text text-anchor="middle" x="68" y="-7" font-family="Helvetica,sans-Serif" font-size="10.00">_mgate/d_a_obj_mgate.cpp</text>
</a>
</g>
</g>
<!-- Node1&#45;&gt;Node2 -->
<g id="edge1" class="edge">
<title>Node1&#45;&gt;Node2</title>
<path fill="none" stroke="#63b8ff" d="M1328.26,-73.58C1120.33,-69.93 379.39,-55.39 145,-30 142.16,-29.69 139.27,-29.34 136.36,-28.96"/>
<polygon fill="#63b8ff" stroke="#63b8ff" points="1328.19,-77.08 1338.25,-73.76 1328.31,-70.08 1328.19,-77.08"/>
</g>
<!-- Node3 -->
<g id="node3" class="node">
<title>Node3</title>
<g id="a_node3"><a xlink:href="d__a__obj__stone_8cpp.html" target="_top" xlink:title=" ">
<polygon fill="white" stroke="#666666" points="284,-30 154,-30 154,0 284,0 284,-30"/>
<text text-anchor="start" x="162" y="-18" font-family="Helvetica,sans-Serif" font-size="10.00">rel/d/a/obj/d_a_obj</text>
<text text-anchor="middle" x="219" y="-7" font-family="Helvetica,sans-Serif" font-size="10.00">_stone/d_a_obj_stone.cpp</text>
</a>
</g>
</g>
<!-- Node1&#45;&gt;Node3 -->
<g id="edge2" class="edge">
<title>Node1&#45;&gt;Node3</title>
<path fill="none" stroke="#63b8ff" d="M1328.33,-75.08C1168.46,-76.19 688.14,-75.2 293,-30 290.14,-29.67 287.23,-29.3 284.29,-28.89"/>
<polygon fill="#63b8ff" stroke="#63b8ff" points="1328.24,-78.59 1338.21,-75.01 1328.19,-71.59 1328.24,-78.59"/>
</g>
<!-- Node4 -->
<g id="node4" class="node">
<title>Node4</title>
<g id="a_node4"><a xlink:href="d__lib_8cpp.html" target="_top" xlink:title=" ">
<polygon fill="white" stroke="#666666" points="382,-24.5 302,-24.5 302,-5.5 382,-5.5 382,-24.5"/>
<text text-anchor="middle" x="342" y="-12.5" font-family="Helvetica,sans-Serif" font-size="10.00">src/d/d_lib.cpp</text>
</a>
</g>
</g>
<!-- Node1&#45;&gt;Node4 -->
<g id="edge3" class="edge">
<title>Node1&#45;&gt;Node4</title>
<path fill="none" stroke="#63b8ff" d="M1328.35,-73.73C1148.13,-70.91 573.73,-59.78 391,-30 383.84,-28.83 376.24,-26.98 369.21,-24.99"/>
<polygon fill="#63b8ff" stroke="#63b8ff" points="1328.08,-77.22 1338.13,-73.88 1328.18,-70.22 1328.08,-77.22"/>
</g>
<!-- Node5 -->
<g id="node5" class="node">
<title>Node5</title>
<g id="a_node5"><a xlink:href="d__name_8cpp.html" target="_top" xlink:title=" ">
<polygon fill="white" stroke="#666666" points="494,-24.5 400,-24.5 400,-5.5 494,-5.5 494,-24.5"/>
<text text-anchor="middle" x="447" y="-12.5" font-family="Helvetica,sans-Serif" font-size="10.00">src/d/d_name.cpp</text>
</a>
</g>
</g>
<!-- Node1&#45;&gt;Node5 -->
<g id="edge4" class="edge">
<title>Node1&#45;&gt;Node5</title>
<path fill="none" stroke="#63b8ff" d="M1328.25,-73.13C1161.8,-68.73 663.41,-53.88 503,-30 494.87,-28.79 486.21,-26.92 478.18,-24.93"/>
<polygon fill="#63b8ff" stroke="#63b8ff" points="1328.05,-76.62 1338.14,-73.38 1328.23,-69.62 1328.05,-76.62"/>
</g>
<!-- Node6 -->
<g id="node6" class="node">
<title>Node6</title>
<g id="a_node6"><a xlink:href="d__stage_8cpp.html" target="_top" xlink:title=" ">
<polygon fill="white" stroke="#666666" points="606,-24.5 512,-24.5 512,-5.5 606,-5.5 606,-24.5"/>
<text text-anchor="middle" x="559" y="-12.5" font-family="Helvetica,sans-Serif" font-size="10.00">src/d/d_stage.cpp</text>
</a>
</g>
</g>
<!-- Node1&#45;&gt;Node6 -->
<g id="edge5" class="edge">
<title>Node1&#45;&gt;Node6</title>
<path fill="none" stroke="#63b8ff" d="M1328.59,-74.83C1202.4,-74.83 880.35,-70.49 615,-30 606.98,-28.78 598.42,-26.92 590.48,-24.97"/>
<polygon fill="#63b8ff" stroke="#63b8ff" points="1328.31,-78.33 1338.31,-74.82 1328.31,-71.33 1328.31,-78.33"/>
</g>
<!-- Node7 -->
<g id="node7" class="node">
<title>Node7</title>
<g id="a_node7"><a xlink:href="d__timer_8cpp.html" target="_top" xlink:title=" ">
<polygon fill="white" stroke="#666666" points="716,-24.5 624,-24.5 624,-5.5 716,-5.5 716,-24.5"/>
<text text-anchor="middle" x="670" y="-12.5" font-family="Helvetica,sans-Serif" font-size="10.00">src/d/d_timer.cpp</text>
</a>
</g>
</g>
<!-- Node1&#45;&gt;Node7 -->
<g id="edge6" class="edge">
<title>Node1&#45;&gt;Node7</title>
<path fill="none" stroke="#63b8ff" d="M1328.13,-74.15C1214.75,-72.68 946.67,-65.41 725,-30 717.22,-28.76 708.93,-26.92 701.21,-24.99"/>
<polygon fill="#63b8ff" stroke="#63b8ff" points="1328.03,-77.65 1338.07,-74.26 1328.11,-70.65 1328.03,-77.65"/>
</g>
<!-- Node8 -->
<g id="node8" class="node">
<title>Node8</title>
<g id="a_node8"><a xlink:href="d__file__select_8cpp.html" target="_top" xlink:title=" ">
<polygon fill="white" stroke="#666666" points="862,-24.5 734,-24.5 734,-5.5 862,-5.5 862,-24.5"/>
<text text-anchor="middle" x="798" y="-12.5" font-family="Helvetica,sans-Serif" font-size="10.00">src/d/file/d_file_select.cpp</text>
</a>
</g>
</g>
<!-- Node1&#45;&gt;Node8 -->
<g id="edge7" class="edge">
<title>Node1&#45;&gt;Node8</title>
<path fill="none" stroke="#63b8ff" d="M1328.21,-71.59C1234.3,-66.19 1036.69,-53.03 871,-30 861.16,-28.63 850.63,-26.82 840.72,-24.96"/>
<polygon fill="#63b8ff" stroke="#63b8ff" points="1327.98,-75.08 1338.17,-72.16 1328.38,-68.1 1327.98,-75.08"/>
</g>
<!-- Node9 -->
<g id="node9" class="node">
<title>Node9</title>
<g id="a_node9"><a xlink:href="d__menu__collect_8cpp.html" target="_top" xlink:title=" ">
<polygon fill="white" stroke="#666666" points="1035.5,-24.5 880.5,-24.5 880.5,-5.5 1035.5,-5.5 1035.5,-24.5"/>
<text text-anchor="middle" x="958" y="-12.5" font-family="Helvetica,sans-Serif" font-size="10.00">src/d/menu/d_menu_collect.cpp</text>
</a>
</g>
</g>
<!-- Node1&#45;&gt;Node9 -->
<g id="edge8" class="edge">
<title>Node1&#45;&gt;Node9</title>
<path fill="none" stroke="#63b8ff" d="M1328.64,-67.83C1261.8,-59.52 1144.93,-44.62 1045,-30 1034.4,-28.45 1023.1,-26.7 1012.26,-24.98"/>
<polygon fill="#63b8ff" stroke="#63b8ff" points="1327.87,-71.26 1338.23,-69.02 1328.73,-64.31 1327.87,-71.26"/>
</g>
<!-- Node10 -->
<g id="node10" class="node">
<title>Node10</title>
<g id="a_node10"><a xlink:href="d__menu__dmap_8cpp.html" target="_top" xlink:title=" ">
<polygon fill="white" stroke="#666666" points="1204,-24.5 1054,-24.5 1054,-5.5 1204,-5.5 1204,-24.5"/>
<text text-anchor="middle" x="1129" y="-12.5" font-family="Helvetica,sans-Serif" font-size="10.00">src/d/menu/d_menu_dmap.cpp</text>
</a>
</g>
</g>
<!-- Node1&#45;&gt;Node10 -->
<g id="edge9" class="edge">
<title>Node1&#45;&gt;Node10</title>
<path fill="none" stroke="#63b8ff" d="M1332.99,-62.98C1284.54,-51.82 1212.11,-35.14 1167.85,-24.95"/>
<polygon fill="#63b8ff" stroke="#63b8ff" points="1332.14,-66.38 1342.67,-65.21 1333.71,-59.56 1332.14,-66.38"/>
</g>
<!-- Node11 -->
<g id="node11" class="node">
<title>Node11</title>
<g id="a_node11"><a xlink:href="d__menu__fishing_8cpp.html" target="_top" xlink:title=" ">
<polygon fill="white" stroke="#666666" points="1376,-24.5 1222,-24.5 1222,-5.5 1376,-5.5 1376,-24.5"/>
<text text-anchor="middle" x="1299" y="-12.5" font-family="Helvetica,sans-Serif" font-size="10.00">src/d/menu/d_menu_fishing.cpp</text>
</a>
</g>
</g>
<!-- Node1&#45;&gt;Node11 -->
<g id="edge10" class="edge">
<title>Node1&#45;&gt;Node11</title>
<path fill="none" stroke="#63b8ff" d="M1360.8,-59.04C1345.2,-48.17 1324.87,-34.02 1311.88,-24.97"/>
<polygon fill="#63b8ff" stroke="#63b8ff" points="1358.79,-61.91 1369,-64.75 1362.79,-56.16 1358.79,-61.91"/>
</g>
<!-- Node12 -->
<g id="node12" class="node">
<title>Node12</title>
<g id="a_node12"><a xlink:href="d__menu__fmap_8cpp.html" target="_top" xlink:title=" ">
<polygon fill="white" stroke="#666666" points="1542,-24.5 1394,-24.5 1394,-5.5 1542,-5.5 1542,-24.5"/>
<text text-anchor="middle" x="1468" y="-12.5" font-family="Helvetica,sans-Serif" font-size="10.00">src/d/menu/d_menu_fmap.cpp</text>
</a>
</g>
</g>
<!-- Node1&#45;&gt;Node12 -->
<g id="edge11" class="edge">
<title>Node1&#45;&gt;Node12</title>
<path fill="none" stroke="#63b8ff" d="M1405.02,-59.35C1420.86,-48.44 1441.69,-34.11 1454.97,-24.97"/>
<polygon fill="#63b8ff" stroke="#63b8ff" points="1403.41,-56.2 1397.16,-64.76 1407.38,-61.97 1403.41,-56.2"/>
</g>
<!-- Node13 -->
<g id="node13" class="node">
<title>Node13</title>
<g id="a_node13"><a xlink:href="d__menu__insect_8cpp.html" target="_top" xlink:title=" ">
<polygon fill="white" stroke="#666666" points="1712,-24.5 1560,-24.5 1560,-5.5 1712,-5.5 1712,-24.5"/>
<text text-anchor="middle" x="1636" y="-12.5" font-family="Helvetica,sans-Serif" font-size="10.00">src/d/menu/d_menu_insect.cpp</text>
</a>
</g>
</g>
<!-- Node1&#45;&gt;Node13 -->
<g id="edge12" class="edge">
<title>Node1&#45;&gt;Node13</title>
<path fill="none" stroke="#63b8ff" d="M1432.82,-62.98C1481.07,-51.82 1553.22,-35.14 1597.3,-24.95"/>
<polygon fill="#63b8ff" stroke="#63b8ff" points="1432.13,-59.55 1423.18,-65.21 1433.71,-66.37 1432.13,-59.55"/>
</g>
<!-- Node14 -->
<g id="node14" class="node">
<title>Node14</title>
<g id="a_node14"><a xlink:href="d__menu__save_8cpp.html" target="_top" xlink:title=" ">
<polygon fill="white" stroke="#666666" points="1877.5,-24.5 1730.5,-24.5 1730.5,-5.5 1877.5,-5.5 1877.5,-24.5"/>
<text text-anchor="middle" x="1804" y="-12.5" font-family="Helvetica,sans-Serif" font-size="10.00">src/d/menu/d_menu_save.cpp</text>
</a>
</g>
</g>
<!-- Node1&#45;&gt;Node14 -->
<g id="edge13" class="edge">
<title>Node1&#45;&gt;Node14</title>
<path fill="none" stroke="#63b8ff" d="M1437.38,-67.96C1504.23,-59.77 1621.13,-44.99 1721,-30 1731.26,-28.46 1742.21,-26.7 1752.69,-24.95"/>
<polygon fill="#63b8ff" stroke="#63b8ff" points="1437.29,-64.44 1427.79,-69.13 1438.14,-71.39 1437.29,-64.44"/>
</g>
<!-- Node15 -->
<g id="node15" class="node">
<title>Node15</title>
<g id="a_node15"><a xlink:href="d__menu__skill_8cpp.html" target="_top" xlink:title=" ">
<polygon fill="white" stroke="#666666" points="2038.5,-24.5 1895.5,-24.5 1895.5,-5.5 2038.5,-5.5 2038.5,-24.5"/>
<text text-anchor="middle" x="1967" y="-12.5" font-family="Helvetica,sans-Serif" font-size="10.00">src/d/menu/d_menu_skill.cpp</text>
</a>
</g>
</g>
<!-- Node1&#45;&gt;Node15 -->
<g id="edge14" class="edge">
<title>Node1&#45;&gt;Node15</title>
<path fill="none" stroke="#63b8ff" d="M1437.61,-71.21C1530.28,-65.28 1724.14,-51.4 1887,-30 1897.62,-28.6 1908.99,-26.8 1919.72,-24.96"/>
<polygon fill="#63b8ff" stroke="#63b8ff" points="1437.55,-67.7 1427.79,-71.83 1437.99,-74.69 1437.55,-67.7"/>
</g>
<!-- Node16 -->
<g id="node16" class="node">
<title>Node16</title>
<g id="a_node16"><a xlink:href="d__menu__window_8cpp.html" target="_top" xlink:title=" ">
<polygon fill="white" stroke="#666666" points="2215.5,-24.5 2056.5,-24.5 2056.5,-5.5 2215.5,-5.5 2215.5,-24.5"/>
<text text-anchor="middle" x="2136" y="-12.5" font-family="Helvetica,sans-Serif" font-size="10.00">src/d/menu/d_menu_window.cpp</text>
</a>
</g>
</g>
<!-- Node1&#45;&gt;Node16 -->
<g id="edge15" class="edge">
<title>Node1&#45;&gt;Node16</title>
<path fill="none" stroke="#63b8ff" d="M1437.8,-72.52C1551.72,-68.04 1822.29,-55.45 2048,-30 2059.99,-28.65 2072.84,-26.82 2084.92,-24.93"/>
<polygon fill="#63b8ff" stroke="#63b8ff" points="1437.67,-69.02 1427.81,-72.91 1437.94,-76.02 1437.67,-69.02"/>
</g>
<!-- Node17 -->
<g id="node17" class="node">
<title>Node17</title>
<g id="a_node17"><a xlink:href="d__msg__class_8cpp.html" target="_top" xlink:title=" ">
<polygon fill="white" stroke="#666666" points="2372.5,-24.5 2233.5,-24.5 2233.5,-5.5 2372.5,-5.5 2372.5,-24.5"/>
<text text-anchor="middle" x="2303" y="-12.5" font-family="Helvetica,sans-Serif" font-size="10.00">src/d/msg/d_msg_class.cpp</text>
</a>
</g>
</g>
<!-- Node1&#45;&gt;Node17 -->
<g id="edge16" class="edge">
<title>Node1&#45;&gt;Node17</title>
<path fill="none" stroke="#63b8ff" d="M1437.24,-73.98C1571.33,-72.17 1928.98,-64.25 2225,-30 2235.93,-28.73 2247.65,-26.89 2258.59,-24.96"/>
<polygon fill="#63b8ff" stroke="#63b8ff" points="1437.56,-70.47 1427.61,-74.1 1437.65,-77.47 1437.56,-70.47"/>
</g>
<!-- Node18 -->
<g id="node18" class="node">
<title>Node18</title>
<g id="a_node18"><a xlink:href="d__pane__class_8cpp.html" target="_top" xlink:title=" ">
<polygon fill="white" stroke="#666666" points="2533.5,-24.5 2390.5,-24.5 2390.5,-5.5 2533.5,-5.5 2533.5,-24.5"/>
<text text-anchor="middle" x="2462" y="-12.5" font-family="Helvetica,sans-Serif" font-size="10.00">src/d/pane/d_pane_class.cpp</text>
</a>
</g>
</g>
<!-- Node1&#45;&gt;Node18 -->
<g id="edge17" class="edge">
<title>Node1&#45;&gt;Node18</title>
<path fill="none" stroke="#63b8ff" d="M1437.69,-74.53C1588.58,-74.08 2023.31,-69.21 2382,-30 2393.35,-28.76 2405.53,-26.9 2416.88,-24.94"/>
<polygon fill="#63b8ff" stroke="#63b8ff" points="1437.99,-71.03 1428,-74.55 1438,-78.03 1437.99,-71.03"/>
</g>
<!-- Node19 -->
<g id="node19" class="node">
<title>Node19</title>
<g id="a_node19"><a xlink:href="d__shop__system_8cpp.html" target="_top" xlink:title=" ">
<polygon fill="white" stroke="#666666" points="2704,-24.5 2552,-24.5 2552,-5.5 2704,-5.5 2704,-24.5"/>
<text text-anchor="middle" x="2628" y="-12.5" font-family="Helvetica,sans-Serif" font-size="10.00">src/d/shop/d_shop_system.cpp</text>
</a>
</g>
</g>
<!-- Node1&#45;&gt;Node19 -->
<g id="edge18" class="edge">
<title>Node1&#45;&gt;Node19</title>
<path fill="none" stroke="#63b8ff" d="M1437.7,-74.82C1604.16,-75.28 2119.06,-72.87 2543,-30 2555.05,-28.78 2567.99,-26.93 2580.04,-24.97"/>
<polygon fill="#63b8ff" stroke="#63b8ff" points="1437.85,-71.32 1427.84,-74.79 1437.82,-78.32 1437.85,-71.32"/>
</g>
<!-- Node20 -->
<g id="node20" class="node">
<title>Node20</title>
<g id="a_node20"><a xlink:href="f__pc__manager_8cpp.html" target="_top" xlink:title=" ">
<polygon fill="white" stroke="#666666" points="2856,-24.5 2722,-24.5 2722,-5.5 2856,-5.5 2856,-24.5"/>
<text text-anchor="middle" x="2789" y="-12.5" font-family="Helvetica,sans-Serif" font-size="10.00">src/f_pc/f_pc_manager.cpp</text>
</a>
</g>
</g>
<!-- Node1&#45;&gt;Node20 -->
<g id="edge19" class="edge">
<title>Node1&#45;&gt;Node20</title>
<path fill="none" stroke="#63b8ff" d="M1437.83,-73.75C1655.57,-70.62 2459.69,-57.42 2713,-30 2723.94,-28.82 2735.67,-26.95 2746.56,-24.97"/>
<polygon fill="#63b8ff" stroke="#63b8ff" points="1437.87,-70.25 1427.92,-73.9 1437.97,-77.25 1437.87,-70.25"/>
</g>
<!-- Node21 -->
<g id="node21" class="node">
<title>Node21</title>
<g id="a_node21"><a xlink:href="d__msg__scrn__explain_8cpp.html" target="_top" xlink:title=" ">
<polygon fill="white" stroke="#666666" points="2980,-30 2874,-30 2874,0 2980,0 2980,-30"/>
<text text-anchor="start" x="2882" y="-18" font-family="Helvetica,sans-Serif" font-size="10.00">src/msg/scrn/d_msg</text>
<text text-anchor="middle" x="2927" y="-7" font-family="Helvetica,sans-Serif" font-size="10.00">_scrn_explain.cpp</text>
</a>
</g>
</g>
<!-- Node1&#45;&gt;Node21 -->
<g id="edge20" class="edge">
<title>Node1&#45;&gt;Node21</title>
<path fill="none" stroke="#63b8ff" d="M1437.53,-74.26C1670.18,-73.05 2580.76,-66.02 2865,-30 2867.85,-29.64 2870.75,-29.21 2873.68,-28.72"/>
<polygon fill="#63b8ff" stroke="#63b8ff" points="1437.83,-70.76 1427.85,-74.31 1437.87,-77.76 1437.83,-70.76"/>
</g>
</g>
</svg>
