<?xml version="1.0" encoding="UTF-8" standalone="no"?>
<!DOCTYPE svg PUBLIC "-//W3C//DTD SVG 1.1//EN"
 "http://www.w3.org/Graphics/SVG/1.1/DTD/svg11.dtd">
<!-- Generated by graphviz version 7.0.5 (20221223.1930)
 -->
<!-- Title: include/d/msg/d_msg_string.h Pages: 1 -->
<svg width="1593pt" height="104pt"
 viewBox="0.00 0.00 1592.50 104.00" xmlns="http://www.w3.org/2000/svg" xmlns:xlink="http://www.w3.org/1999/xlink">
<g id="graph0" class="graph" transform="scale(1 1) rotate(0) translate(4 100)">
<title>include/d/msg/d_msg_string.h</title>
<!-- Node1 -->
<g id="node1" class="node">
<title>Node1</title>
<g id="a_node1"><a xlink:title=" ">
<polygon fill="#999999" stroke="#666666" points="868.5,-96 758.5,-96 758.5,-66 868.5,-66 868.5,-96"/>
<text text-anchor="start" x="766.5" y="-84" font-family="Helvetica,sans-Serif" font-size="10.00">include/d/msg/d_msg</text>
<text text-anchor="middle" x="813.5" y="-73" font-family="Helvetica,sans-Serif" font-size="10.00">_string.h</text>
</a>
</g>
</g>
<!-- Node2 -->
<g id="node2" class="node">
<title>Node2</title>
<g id="a_node2"><a xlink:href="d__bright__check_8cpp.html" target="_top" xlink:title=" ">
<polygon fill="white" stroke="#666666" points="125,-24.5 0,-24.5 0,-5.5 125,-5.5 125,-24.5"/>
<text text-anchor="middle" x="62.5" y="-12.5" font-family="Helvetica,sans-Serif" font-size="10.00">src/d/d_bright_check.cpp</text>
</a>
</g>
</g>
<!-- Node1&#45;&gt;Node2 -->
<g id="edge1" class="edge">
<title>Node1&#45;&gt;Node2</title>
<path fill="none" stroke="#63b8ff" d="M746.92,-77.72C624.99,-72.96 357.81,-59.83 134.5,-30 124.65,-28.69 114.12,-26.87 104.24,-24.99"/>
<polygon fill="#63b8ff" stroke="#63b8ff" points="746.62,-81.21 756.75,-78.09 746.89,-74.21 746.62,-81.21"/>
</g>
<!-- Node3 -->
<g id="node3" class="node">
<title>Node3</title>
<g id="a_node3"><a xlink:href="d__file__select_8cpp.html" target="_top" xlink:title=" ">
<polygon fill="white" stroke="#666666" points="271.5,-24.5 143.5,-24.5 143.5,-5.5 271.5,-5.5 271.5,-24.5"/>
<text text-anchor="middle" x="207.5" y="-12.5" font-family="Helvetica,sans-Serif" font-size="10.00">src/d/file/d_file_select.cpp</text>
</a>
</g>
</g>
<!-- Node1&#45;&gt;Node3 -->
<g id="edge2" class="edge">
<title>Node1&#45;&gt;Node3</title>
<path fill="none" stroke="#63b8ff" d="M746.79,-75.81C645.63,-68.98 447.51,-53.79 280.5,-30 270.79,-28.62 260.41,-26.82 250.62,-24.98"/>
<polygon fill="#63b8ff" stroke="#63b8ff" points="746.33,-79.28 756.54,-76.46 746.79,-72.3 746.33,-79.28"/>
</g>
<!-- Node4 -->
<g id="node4" class="node">
<title>Node4</title>
<g id="a_node4"><a xlink:href="d__menu__calibration_8cpp.html" target="_top" xlink:title=" ">
<polygon fill="white" stroke="#666666" points="459.5,-24.5 289.5,-24.5 289.5,-5.5 459.5,-5.5 459.5,-24.5"/>
<text text-anchor="middle" x="374.5" y="-12.5" font-family="Helvetica,sans-Serif" font-size="10.00">src/d/menu/d_menu_calibration.cpp</text>
</a>
</g>
</g>
<!-- Node1&#45;&gt;Node4 -->
<g id="edge3" class="edge">
<title>Node1&#45;&gt;Node4</title>
<path fill="none" stroke="#63b8ff" d="M747.02,-70.44C677.54,-60.44 565.35,-44.23 468.5,-30 457.56,-28.39 445.91,-26.67 434.67,-25"/>
<polygon fill="#63b8ff" stroke="#63b8ff" points="746.32,-73.88 756.72,-71.84 747.32,-66.95 746.32,-73.88"/>
</g>
<!-- Node5 -->
<g id="node5" class="node">
<title>Node5</title>
<g id="a_node5"><a xlink:href="d__menu__collect_8cpp.html" target="_top" xlink:title=" ">
<polygon fill="white" stroke="#666666" points="633,-24.5 478,-24.5 478,-5.5 633,-5.5 633,-24.5"/>
<text text-anchor="middle" x="555.5" y="-12.5" font-family="Helvetica,sans-Serif" font-size="10.00">src/d/menu/d_menu_collect.cpp</text>
</a>
</g>
</g>
<!-- Node1&#45;&gt;Node5 -->
<g id="edge4" class="edge">
<title>Node1&#45;&gt;Node5</title>
<path fill="none" stroke="#63b8ff" d="M747.22,-63.56C697.71,-51.28 631.92,-34.96 591.7,-24.98"/>
<polygon fill="#63b8ff" stroke="#63b8ff" points="746.13,-66.9 756.68,-65.91 747.82,-60.1 746.13,-66.9"/>
</g>
<!-- Node6 -->
<g id="node6" class="node">
<title>Node6</title>
<g id="a_node6"><a xlink:href="d__menu__fishing_8cpp.html" target="_top" xlink:title=" ">
<polygon fill="white" stroke="#666666" points="805.5,-24.5 651.5,-24.5 651.5,-5.5 805.5,-5.5 805.5,-24.5"/>
<text text-anchor="middle" x="728.5" y="-12.5" font-family="Helvetica,sans-Serif" font-size="10.00">src/d/menu/d_menu_fishing.cpp</text>
</a>
</g>
</g>
<!-- Node1&#45;&gt;Node6 -->
<g id="edge5" class="edge">
<title>Node1&#45;&gt;Node6</title>
<path fill="none" stroke="#63b8ff" d="M785.52,-58.93C770.14,-47.35 751.88,-33.61 740.25,-24.84"/>
<polygon fill="#63b8ff" stroke="#63b8ff" points="783.33,-61.67 793.43,-64.89 787.54,-56.07 783.33,-61.67"/>
</g>
<!-- Node7 -->
<g id="node7" class="node">
<title>Node7</title>
<g id="a_node7"><a xlink:href="d__menu__insect_8cpp.html" target="_top" xlink:title=" ">
<polygon fill="white" stroke="#666666" points="975.5,-24.5 823.5,-24.5 823.5,-5.5 975.5,-5.5 975.5,-24.5"/>
<text text-anchor="middle" x="899.5" y="-12.5" font-family="Helvetica,sans-Serif" font-size="10.00">src/d/menu/d_menu_insect.cpp</text>
</a>
</g>
</g>
<!-- Node1&#45;&gt;Node7 -->
<g id="edge6" class="edge">
<title>Node1&#45;&gt;Node7</title>
<path fill="none" stroke="#63b8ff" d="M841.81,-58.93C857.37,-47.35 875.84,-33.61 887.62,-24.84"/>
<polygon fill="#63b8ff" stroke="#63b8ff" points="839.73,-56.11 833.8,-64.89 843.91,-61.73 839.73,-56.11"/>
</g>
<!-- Node8 -->
<g id="node8" class="node">
<title>Node8</title>
<g id="a_node8"><a xlink:href="d__menu__save_8cpp.html" target="_top" xlink:title=" ">
<polygon fill="white" stroke="#666666" points="1141,-24.5 994,-24.5 994,-5.5 1141,-5.5 1141,-24.5"/>
<text text-anchor="middle" x="1067.5" y="-12.5" font-family="Helvetica,sans-Serif" font-size="10.00">src/d/menu/d_menu_save.cpp</text>
</a>
</g>
</g>
<!-- Node1&#45;&gt;Node8 -->
<g id="edge7" class="edge">
<title>Node1&#45;&gt;Node8</title>
<path fill="none" stroke="#63b8ff" d="M880.01,-63.24C928.71,-50.97 992.9,-34.8 1032.13,-24.91"/>
<polygon fill="#63b8ff" stroke="#63b8ff" points="879.24,-59.83 870.4,-65.66 880.95,-66.61 879.24,-59.83"/>
</g>
<!-- Node9 -->
<g id="node9" class="node">
<title>Node9</title>
<g id="a_node9"><a xlink:href="d__menu__skill_8cpp.html" target="_top" xlink:title=" ">
<polygon fill="white" stroke="#666666" points="1302,-24.5 1159,-24.5 1159,-5.5 1302,-5.5 1302,-24.5"/>
<text text-anchor="middle" x="1230.5" y="-12.5" font-family="Helvetica,sans-Serif" font-size="10.00">src/d/menu/d_menu_skill.cpp</text>
</a>
</g>
</g>
<!-- Node1&#45;&gt;Node9 -->
<g id="edge8" class="edge">
<title>Node1&#45;&gt;Node9</title>
<path fill="none" stroke="#63b8ff" d="M880.12,-70.64C948.16,-60.95 1056.8,-45.15 1150.5,-30 1160.24,-28.42 1170.64,-26.66 1180.6,-24.94"/>
<polygon fill="#63b8ff" stroke="#63b8ff" points="879.64,-67.17 870.23,-72.04 880.62,-74.1 879.64,-67.17"/>
</g>
<!-- Node10 -->
<g id="node10" class="node">
<title>Node10</title>
<g id="a_node10"><a xlink:href="d__msg__string_8cpp.html" target="_top" xlink:title=" ">
<polygon fill="white" stroke="#666666" points="1460.5,-24.5 1320.5,-24.5 1320.5,-5.5 1460.5,-5.5 1460.5,-24.5"/>
<text text-anchor="middle" x="1390.5" y="-12.5" font-family="Helvetica,sans-Serif" font-size="10.00">src/d/msg/d_msg_string.cpp</text>
</a>
</g>
</g>
<!-- Node1&#45;&gt;Node10 -->
<g id="edge9" class="edge">
<title>Node1&#45;&gt;Node10</title>
<path fill="none" stroke="#63b8ff" d="M880.17,-74.91C975.88,-67.24 1157.66,-51.32 1311.5,-30 1321.85,-28.57 1332.91,-26.77 1343.39,-24.95"/>
<polygon fill="#63b8ff" stroke="#63b8ff" points="880.13,-71.4 870.44,-75.69 880.69,-78.38 880.13,-71.4"/>
</g>
<!-- Node11 -->
<g id="node11" class="node">
<title>Node11</title>
<g id="a_node11"><a xlink:href="d__msg__scrn__explain_8cpp.html" target="_top" xlink:title=" ">
<polygon fill="white" stroke="#666666" points="1584.5,-30 1478.5,-30 1478.5,0 1584.5,0 1584.5,-30"/>
<text text-anchor="start" x="1486.5" y="-18" font-family="Helvetica,sans-Serif" font-size="10.00">src/msg/scrn/d_msg</text>
<text text-anchor="middle" x="1531.5" y="-7" font-family="Helvetica,sans-Serif" font-size="10.00">_scrn_explain.cpp</text>
</a>
</g>
</g>
<!-- Node1&#45;&gt;Node11 -->
<g id="edge10" class="edge">
<title>Node1&#45;&gt;Node11</title>
<path fill="none" stroke="#63b8ff" d="M880.08,-78.14C999,-74.09 1255.52,-62.14 1469.5,-30 1472.34,-29.57 1475.24,-29.09 1478.16,-28.56"/>
<polygon fill="#63b8ff" stroke="#63b8ff" points="880.05,-74.63 870.18,-78.46 880.29,-81.63 880.05,-74.63"/>
</g>
</g>
</svg>
