<?xml version="1.0" encoding="UTF-8" standalone="no"?>
<!DOCTYPE svg PUBLIC "-//W3C//DTD SVG 1.1//EN"
 "http://www.w3.org/Graphics/SVG/1.1/DTD/svg11.dtd">
<!-- Generated by graphviz version 7.0.5 (20221223.1930)
 -->
<!-- Title: include/d/particle/d_particle_copoly.h Pages: 1 -->
<svg width="1450pt" height="236pt"
 viewBox="0.00 0.00 1450.00 236.00" xmlns="http://www.w3.org/2000/svg" xmlns:xlink="http://www.w3.org/1999/xlink">
<g id="graph0" class="graph" transform="scale(1 1) rotate(0) translate(4 232)">
<title>include/d/particle/d_particle_copoly.h</title>
<!-- Node1 -->
<g id="node1" class="node">
<title>Node1</title>
<g id="a_node1"><a xlink:title=" ">
<polygon fill="#999999" stroke="#666666" points="1032,-228 930,-228 930,-198 1032,-198 1032,-228"/>
<text text-anchor="start" x="938" y="-216" font-family="Helvetica,sans-Serif" font-size="10.00">include/d/particle</text>
<text text-anchor="middle" x="981" y="-205" font-family="Helvetica,sans-Serif" font-size="10.00">/d_particle_copoly.h</text>
</a>
</g>
</g>
<!-- Node2 -->
<g id="node2" class="node">
<title>Node2</title>
<g id="a_node2"><a xlink:href="d__a__alink_8h.html" target="_top" xlink:title=" ">
<polygon fill="white" stroke="#666666" points="753,-156.5 637,-156.5 637,-137.5 753,-137.5 753,-156.5"/>
<text text-anchor="middle" x="695" y="-144.5" font-family="Helvetica,sans-Serif" font-size="10.00">include/d/a/d_a_alink.h</text>
</a>
</g>
</g>
<!-- Node1&#45;&gt;Node2 -->
<g id="edge1" class="edge">
<title>Node1&#45;&gt;Node2</title>
<path fill="none" stroke="#63b8ff" d="M918.37,-197.98C862.56,-185.5 782.56,-167.59 734.99,-156.95"/>
<polygon fill="#63b8ff" stroke="#63b8ff" points="917.54,-201.39 928.06,-200.15 919.07,-194.55 917.54,-201.39"/>
</g>
<!-- Node11 -->
<g id="node11" class="node">
<title>Node11</title>
<g id="a_node11"><a xlink:href="d__a__npc_8h.html" target="_top" xlink:title=" ">
<polygon fill="white" stroke="#666666" points="1036.5,-156.5 925.5,-156.5 925.5,-137.5 1036.5,-137.5 1036.5,-156.5"/>
<text text-anchor="middle" x="981" y="-144.5" font-family="Helvetica,sans-Serif" font-size="10.00">include/d/a/d_a_npc.h</text>
</a>
</g>
</g>
<!-- Node1&#45;&gt;Node11 -->
<g id="edge10" class="edge">
<title>Node1&#45;&gt;Node11</title>
<path fill="none" stroke="#63b8ff" d="M981,-186.59C981,-176.06 981,-164.53 981,-156.84"/>
<polygon fill="#63b8ff" stroke="#63b8ff" points="977.5,-186.28 981,-196.28 984.5,-186.28 977.5,-186.28"/>
</g>
<!-- Node16 -->
<g id="node16" class="node">
<title>Node16</title>
<g id="a_node16"><a xlink:href="d__a__boomerang_8h.html" target="_top" xlink:title=" ">
<polygon fill="white" stroke="#666666" points="158.5,-162 9.5,-162 9.5,-132 158.5,-132 158.5,-162"/>
<text text-anchor="start" x="17.5" y="-150" font-family="Helvetica,sans-Serif" font-size="10.00">include/rel/d/a/d_a</text>
<text text-anchor="middle" x="84" y="-139" font-family="Helvetica,sans-Serif" font-size="10.00">_boomerang/d_a_boomerang.h</text>
</a>
</g>
</g>
<!-- Node1&#45;&gt;Node16 -->
<g id="edge16" class="edge">
<title>Node1&#45;&gt;Node16</title>
<path fill="none" stroke="#63b8ff" d="M918.53,-208.66C788.58,-201.53 479.69,-183.72 221,-162 200.87,-160.31 179.1,-158.21 158.97,-156.16"/>
<polygon fill="#63b8ff" stroke="#63b8ff" points="918.12,-212.14 928.29,-209.19 918.5,-205.15 918.12,-212.14"/>
</g>
<!-- Node17 -->
<g id="node17" class="node">
<title>Node17</title>
<g id="a_node17"><a xlink:href="d__a__cstaF_8h.html" target="_top" xlink:title=" ">
<polygon fill="white" stroke="#666666" points="1157.5,-162 1054.5,-162 1054.5,-132 1157.5,-132 1157.5,-162"/>
<text text-anchor="start" x="1062.5" y="-150" font-family="Helvetica,sans-Serif" font-size="10.00">include/rel/d/a/d_a</text>
<text text-anchor="middle" x="1106" y="-139" font-family="Helvetica,sans-Serif" font-size="10.00">_cstaF/d_a_cstaF.h</text>
</a>
</g>
</g>
<!-- Node1&#45;&gt;Node17 -->
<g id="edge18" class="edge">
<title>Node1&#45;&gt;Node17</title>
<path fill="none" stroke="#63b8ff" d="M1019.18,-192.45C1038.16,-182.73 1060.69,-171.2 1078.04,-162.31"/>
<polygon fill="#63b8ff" stroke="#63b8ff" points="1017.71,-189.27 1010.4,-196.95 1020.9,-195.51 1017.71,-189.27"/>
</g>
<!-- Node18 -->
<g id="node18" class="node">
<title>Node18</title>
<g id="a_node18"><a xlink:href="d__a__cstatue_8h.html" target="_top" xlink:title=" ">
<polygon fill="white" stroke="#666666" points="1294,-162 1176,-162 1176,-132 1294,-132 1294,-162"/>
<text text-anchor="start" x="1184" y="-150" font-family="Helvetica,sans-Serif" font-size="10.00">include/rel/d/a/d_a</text>
<text text-anchor="middle" x="1235" y="-139" font-family="Helvetica,sans-Serif" font-size="10.00">_cstatue/d_a_cstatue.h</text>
</a>
</g>
</g>
<!-- Node1&#45;&gt;Node18 -->
<g id="edge19" class="edge">
<title>Node1&#45;&gt;Node18</title>
<path fill="none" stroke="#63b8ff" d="M1043.34,-196.29C1084.31,-185.97 1137.52,-172.56 1177.47,-162.5"/>
<polygon fill="#63b8ff" stroke="#63b8ff" points="1042.71,-192.84 1033.87,-198.68 1044.42,-199.63 1042.71,-192.84"/>
</g>
<!-- Node19 -->
<g id="node19" class="node">
<title>Node19</title>
<g id="a_node19"><a xlink:href="d__a__spinner_8h.html" target="_top" xlink:title=" ">
<polygon fill="white" stroke="#666666" points="346,-162 230,-162 230,-132 346,-132 346,-162"/>
<text text-anchor="start" x="238" y="-150" font-family="Helvetica,sans-Serif" font-size="10.00">include/rel/d/a/d_a</text>
<text text-anchor="middle" x="288" y="-139" font-family="Helvetica,sans-Serif" font-size="10.00">_spinner/d_a_spinner.h</text>
</a>
</g>
</g>
<!-- Node1&#45;&gt;Node19 -->
<g id="edge20" class="edge">
<title>Node1&#45;&gt;Node19</title>
<path fill="none" stroke="#63b8ff" d="M918.58,-206.24C785.5,-193.95 475.47,-165.31 346.21,-153.38"/>
<polygon fill="#63b8ff" stroke="#63b8ff" points="917.97,-209.69 928.25,-207.13 918.62,-202.72 917.97,-209.69"/>
</g>
<!-- Node21 -->
<g id="node21" class="node">
<title>Node21</title>
<g id="a_node21"><a xlink:href="d__particle__copoly_8cpp.html" target="_top" xlink:title=" ">
<polygon fill="white" stroke="#666666" points="1430,-162 1312,-162 1312,-132 1430,-132 1430,-162"/>
<text text-anchor="start" x="1320" y="-150" font-family="Helvetica,sans-Serif" font-size="10.00">src/d/particle/d_particle</text>
<text text-anchor="middle" x="1371" y="-139" font-family="Helvetica,sans-Serif" font-size="10.00">_copoly.cpp</text>
</a>
</g>
</g>
<!-- Node1&#45;&gt;Node21 -->
<g id="edge24" class="edge">
<title>Node1&#45;&gt;Node21</title>
<path fill="none" stroke="#63b8ff" d="M1043.71,-203.19C1108.71,-193.84 1213.19,-178.21 1303,-162 1305.85,-161.49 1308.76,-160.95 1311.69,-160.39"/>
<polygon fill="#63b8ff" stroke="#63b8ff" points="1043.34,-199.71 1033.93,-204.59 1044.33,-206.64 1043.34,-199.71"/>
</g>
<!-- Node3 -->
<g id="node3" class="node">
<title>Node3</title>
<g id="a_node3"><a xlink:href="d__a__alink_8cpp.html" target="_top" xlink:title=" ">
<polygon fill="white" stroke="#666666" points="369.5,-85 260.5,-85 260.5,-66 369.5,-66 369.5,-85"/>
<text text-anchor="middle" x="315" y="-73" font-family="Helvetica,sans-Serif" font-size="10.00">src/d/a/d_a_alink.cpp</text>
</a>
</g>
</g>
<!-- Node2&#45;&gt;Node3 -->
<g id="edge2" class="edge">
<title>Node2&#45;&gt;Node3</title>
<path fill="none" stroke="#63b8ff" d="M625.36,-137.81C560.98,-129.56 462.87,-115.31 379,-96 366.55,-93.13 352.98,-89.13 341.56,-85.5"/>
<polygon fill="#63b8ff" stroke="#63b8ff" points="624.72,-141.25 635.08,-139.04 625.6,-134.31 624.72,-141.25"/>
</g>
<!-- Node4 -->
<g id="node4" class="node">
<title>Node4</title>
<g id="a_node4"><a xlink:href="d__a__player_8cpp.html" target="_top" xlink:title=" ">
<polygon fill="white" stroke="#666666" points="114,-85 0,-85 0,-66 114,-66 114,-85"/>
<text text-anchor="middle" x="57" y="-73" font-family="Helvetica,sans-Serif" font-size="10.00">src/d/a/d_a_player.cpp</text>
</a>
</g>
</g>
<!-- Node2&#45;&gt;Node4 -->
<g id="edge3" class="edge">
<title>Node2&#45;&gt;Node4</title>
<path fill="none" stroke="#63b8ff" d="M625.43,-144.4C517.13,-140.9 302.08,-129.93 123,-96 109.5,-93.44 94.81,-89.25 82.72,-85.4"/>
<polygon fill="#63b8ff" stroke="#63b8ff" points="625.22,-147.89 635.32,-144.7 625.43,-140.89 625.22,-147.89"/>
</g>
<!-- Node5 -->
<g id="node5" class="node">
<title>Node5</title>
<g id="a_node5"><a xlink:href="d__com__inf__game_8cpp.html" target="_top" xlink:title=" ">
<polygon fill="white" stroke="#666666" points="496,-90.5 388,-90.5 388,-60.5 496,-60.5 496,-90.5"/>
<text text-anchor="start" x="396" y="-78.5" font-family="Helvetica,sans-Serif" font-size="10.00">src/d/com/d_com_inf</text>
<text text-anchor="middle" x="442" y="-67.5" font-family="Helvetica,sans-Serif" font-size="10.00">_game.cpp</text>
</a>
</g>
</g>
<!-- Node2&#45;&gt;Node5 -->
<g id="edge4" class="edge">
<title>Node2&#45;&gt;Node5</title>
<path fill="none" stroke="#63b8ff" d="M648.28,-134.3C609.72,-124.5 553.65,-109.92 505,-96 499.5,-94.42 493.74,-92.72 488.04,-91"/>
<polygon fill="#63b8ff" stroke="#63b8ff" points="647.14,-137.62 657.69,-136.68 648.85,-130.83 647.14,-137.62"/>
</g>
<!-- Node6 -->
<g id="node6" class="node">
<title>Node6</title>
<g id="a_node6"><a xlink:href="d__camera_8cpp.html" target="_top" xlink:title=" ">
<polygon fill="white" stroke="#666666" points="616,-85 514,-85 514,-66 616,-66 616,-85"/>
<text text-anchor="middle" x="565" y="-73" font-family="Helvetica,sans-Serif" font-size="10.00">src/d/d_camera.cpp</text>
</a>
</g>
</g>
<!-- Node2&#45;&gt;Node6 -->
<g id="edge5" class="edge">
<title>Node2&#45;&gt;Node6</title>
<path fill="none" stroke="#63b8ff" d="M668.32,-131.74C642.31,-117.83 603.57,-97.12 581.66,-85.41"/>
<polygon fill="#63b8ff" stroke="#63b8ff" points="666.47,-134.71 676.94,-136.34 669.77,-128.54 666.47,-134.71"/>
</g>
<!-- Node7 -->
<g id="node7" class="node">
<title>Node7</title>
<g id="a_node7"><a xlink:href="d__event_8cpp.html" target="_top" xlink:title=" ">
<polygon fill="white" stroke="#666666" points="755.5,-85 634.5,-85 634.5,-66 755.5,-66 755.5,-85"/>
<text text-anchor="middle" x="695" y="-73" font-family="Helvetica,sans-Serif" font-size="10.00">src/d/event/d_event.cpp</text>
</a>
</g>
</g>
<!-- Node2&#45;&gt;Node7 -->
<g id="edge6" class="edge">
<title>Node2&#45;&gt;Node7</title>
<path fill="none" stroke="#63b8ff" d="M695,-125.8C695,-112.44 695,-95.59 695,-85.45"/>
<polygon fill="#63b8ff" stroke="#63b8ff" points="691.5,-125.68 695,-135.68 698.5,-125.68 691.5,-125.68"/>
</g>
<!-- Node8 -->
<g id="node8" class="node">
<title>Node8</title>
<g id="a_node8"><a xlink:href="d__meter2__draw_8cpp.html" target="_top" xlink:title=" ">
<polygon fill="white" stroke="#666666" points="884,-90.5 774,-90.5 774,-60.5 884,-60.5 884,-90.5"/>
<text text-anchor="start" x="782" y="-78.5" font-family="Helvetica,sans-Serif" font-size="10.00">src/d/meter/d_meter2</text>
<text text-anchor="middle" x="829" y="-67.5" font-family="Helvetica,sans-Serif" font-size="10.00">_draw.cpp</text>
</a>
</g>
</g>
<!-- Node2&#45;&gt;Node8 -->
<g id="edge7" class="edge">
<title>Node2&#45;&gt;Node8</title>
<path fill="none" stroke="#63b8ff" d="M722.35,-131.82C745.31,-119.91 777.98,-102.96 801.1,-90.97"/>
<polygon fill="#63b8ff" stroke="#63b8ff" points="720.85,-128.65 713.59,-136.36 724.08,-134.86 720.85,-128.65"/>
</g>
<!-- Node9 -->
<g id="node9" class="node">
<title>Node9</title>
<g id="a_node9"><a xlink:href="d__msg__flow_8cpp.html" target="_top" xlink:title=" ">
<polygon fill="white" stroke="#666666" points="1009.5,-19 876.5,-19 876.5,0 1009.5,0 1009.5,-19"/>
<text text-anchor="middle" x="943" y="-7" font-family="Helvetica,sans-Serif" font-size="10.00">src/d/msg/d_msg_flow.cpp</text>
</a>
</g>
</g>
<!-- Node2&#45;&gt;Node9 -->
<g id="edge8" class="edge">
<title>Node2&#45;&gt;Node9</title>
<path fill="none" stroke="#63b8ff" d="M764.66,-141.74C805.47,-136.2 856.08,-123.74 893,-96 919.81,-75.85 934.79,-36.79 940.4,-19.32"/>
<polygon fill="#63b8ff" stroke="#63b8ff" points="764.43,-138.24 754.94,-142.94 765.29,-145.19 764.43,-138.24"/>
</g>
<!-- Node10 -->
<g id="node10" class="node">
<title>Node10</title>
<g id="a_node10"><a xlink:href="f__op__actor_8cpp.html" target="_top" xlink:title=" ">
<polygon fill="white" stroke="#666666" points="1059.5,-85 940.5,-85 940.5,-66 1059.5,-66 1059.5,-85"/>
<text text-anchor="middle" x="1000" y="-73" font-family="Helvetica,sans-Serif" font-size="10.00">src/f_op/f_op_actor.cpp</text>
</a>
</g>
</g>
<!-- Node2&#45;&gt;Node10 -->
<g id="edge9" class="edge">
<title>Node2&#45;&gt;Node10</title>
<path fill="none" stroke="#63b8ff" d="M750.12,-134.79C797.02,-125.08 866.1,-110.37 926,-96 939.57,-92.75 954.45,-88.88 967.29,-85.45"/>
<polygon fill="#63b8ff" stroke="#63b8ff" points="749.56,-131.33 740.47,-136.78 750.97,-138.19 749.56,-131.33"/>
</g>
<!-- Node12 -->
<g id="node12" class="node">
<title>Node12</title>
<g id="a_node12"><a xlink:href="d__shop__system_8h.html" target="_top" xlink:title=" ">
<polygon fill="white" stroke="#666666" points="1192,-90.5 1078,-90.5 1078,-60.5 1192,-60.5 1192,-90.5"/>
<text text-anchor="start" x="1086" y="-78.5" font-family="Helvetica,sans-Serif" font-size="10.00">include/d/shop/d_shop</text>
<text text-anchor="middle" x="1135" y="-67.5" font-family="Helvetica,sans-Serif" font-size="10.00">_system.h</text>
</a>
</g>
</g>
<!-- Node11&#45;&gt;Node12 -->
<g id="edge11" class="edge">
<title>Node11&#45;&gt;Node12</title>
<path fill="none" stroke="#63b8ff" d="M1011.01,-132.46C1037.46,-120.52 1075.88,-103.18 1102.93,-90.97"/>
<polygon fill="#63b8ff" stroke="#63b8ff" points="1009.87,-129.13 1002.2,-136.43 1012.75,-135.51 1009.87,-129.13"/>
</g>
<!-- Node14 -->
<g id="node14" class="node">
<title>Node14</title>
<g id="a_node14"><a xlink:href="d__a__npc_8cpp.html" target="_top" xlink:title=" ">
<polygon fill="white" stroke="#666666" points="1314,-85 1210,-85 1210,-66 1314,-66 1314,-85"/>
<text text-anchor="middle" x="1262" y="-73" font-family="Helvetica,sans-Serif" font-size="10.00">src/d/a/d_a_npc.cpp</text>
</a>
</g>
</g>
<!-- Node11&#45;&gt;Node14 -->
<g id="edge14" class="edge">
<title>Node11&#45;&gt;Node14</title>
<path fill="none" stroke="#63b8ff" d="M1033.5,-134.61C1088.13,-122.67 1169.96,-104.47 1201,-96 1212.48,-92.87 1225.02,-88.95 1235.73,-85.44"/>
<polygon fill="#63b8ff" stroke="#63b8ff" points="1032.79,-131.19 1023.76,-136.74 1034.28,-138.03 1032.79,-131.19"/>
</g>
<!-- Node15 -->
<g id="node15" class="node">
<title>Node15</title>
<g id="a_node15"><a xlink:href="d__meter2__info_8cpp.html" target="_top" xlink:title=" ">
<polygon fill="white" stroke="#666666" points="1442,-90.5 1332,-90.5 1332,-60.5 1442,-60.5 1442,-90.5"/>
<text text-anchor="start" x="1340" y="-78.5" font-family="Helvetica,sans-Serif" font-size="10.00">src/d/meter/d_meter2</text>
<text text-anchor="middle" x="1387" y="-67.5" font-family="Helvetica,sans-Serif" font-size="10.00">_info.cpp</text>
</a>
</g>
</g>
<!-- Node11&#45;&gt;Node15 -->
<g id="edge15" class="edge">
<title>Node11&#45;&gt;Node15</title>
<path fill="none" stroke="#63b8ff" d="M1031.03,-134.79C1036.08,-133.79 1041.13,-132.84 1046,-132 1168.34,-110.91 1201.65,-122.18 1323,-96 1329.47,-94.6 1336.23,-92.86 1342.84,-91"/>
<polygon fill="#63b8ff" stroke="#63b8ff" points="1030.66,-131.29 1021.56,-136.73 1032.06,-138.15 1030.66,-131.29"/>
</g>
<!-- Node12&#45;&gt;Node9 -->
<g id="edge12" class="edge">
<title>Node12&#45;&gt;Node9</title>
<path fill="none" stroke="#63b8ff" d="M1081.02,-56.51C1044.8,-44.43 998.65,-29.05 969.96,-19.49"/>
<polygon fill="#63b8ff" stroke="#63b8ff" points="1079.88,-59.82 1090.48,-59.66 1082.1,-53.18 1079.88,-59.82"/>
</g>
<!-- Node13 -->
<g id="node13" class="node">
<title>Node13</title>
<g id="a_node13"><a xlink:href="d__shop__system_8cpp.html" target="_top" xlink:title=" ">
<polygon fill="white" stroke="#666666" points="1211,-19 1059,-19 1059,0 1211,0 1211,-19"/>
<text text-anchor="middle" x="1135" y="-7" font-family="Helvetica,sans-Serif" font-size="10.00">src/d/shop/d_shop_system.cpp</text>
</a>
</g>
</g>
<!-- Node12&#45;&gt;Node13 -->
<g id="edge13" class="edge">
<title>Node12&#45;&gt;Node13</title>
<path fill="none" stroke="#63b8ff" d="M1135,-49.09C1135,-38.56 1135,-27.03 1135,-19.34"/>
<polygon fill="#63b8ff" stroke="#63b8ff" points="1131.5,-48.78 1135,-58.78 1138.5,-48.78 1131.5,-48.78"/>
</g>
<!-- Node16&#45;&gt;Node4 -->
<g id="edge17" class="edge">
<title>Node16&#45;&gt;Node4</title>
<path fill="none" stroke="#63b8ff" d="M74.38,-121.23C69.49,-108.65 63.87,-94.17 60.37,-85.18"/>
<polygon fill="#63b8ff" stroke="#63b8ff" points="70.97,-122.13 77.86,-130.19 77.5,-119.6 70.97,-122.13"/>
</g>
<!-- Node19&#45;&gt;Node3 -->
<g id="edge22" class="edge">
<title>Node19&#45;&gt;Node3</title>
<path fill="none" stroke="#63b8ff" d="M297.62,-121.23C302.51,-108.65 308.13,-94.17 311.63,-85.18"/>
<polygon fill="#63b8ff" stroke="#63b8ff" points="294.5,-119.6 294.14,-130.19 301.03,-122.13 294.5,-119.6"/>
</g>
<!-- Node19&#45;&gt;Node4 -->
<g id="edge23" class="edge">
<title>Node19&#45;&gt;Node4</title>
<path fill="none" stroke="#63b8ff" d="M228.95,-128.23C183.49,-114.56 122.56,-96.23 86.77,-85.46"/>
<polygon fill="#63b8ff" stroke="#63b8ff" points="227.82,-131.55 238.41,-131.08 229.84,-124.85 227.82,-131.55"/>
</g>
<!-- Node20 -->
<g id="node20" class="node">
<title>Node20</title>
<g id="a_node20"><a xlink:href="d__a__tag__spinner_8h.html" target="_top" xlink:title=" ">
<polygon fill="white" stroke="#666666" points="242,-96 132,-96 132,-55 242,-55 242,-96"/>
<text text-anchor="start" x="140" y="-84" font-family="Helvetica,sans-Serif" font-size="10.00">include/rel/d/a/tag</text>
<text text-anchor="start" x="140" y="-73" font-family="Helvetica,sans-Serif" font-size="10.00">/d_a_tag_spinner/d_a</text>
<text text-anchor="middle" x="187" y="-62" font-family="Helvetica,sans-Serif" font-size="10.00">_tag_spinner.h</text>
</a>
</g>
</g>
<!-- Node19&#45;&gt;Node20 -->
<g id="edge21" class="edge">
<title>Node19&#45;&gt;Node20</title>
<path fill="none" stroke="#63b8ff" d="M257.87,-125.27C244.6,-116.14 229.08,-105.45 215.94,-96.42"/>
<polygon fill="#63b8ff" stroke="#63b8ff" points="255.6,-127.96 265.83,-130.74 259.57,-122.19 255.6,-127.96"/>
</g>
</g>
</svg>
