<?xml version="1.0" encoding="UTF-8" standalone="no"?>
<!DOCTYPE svg PUBLIC "-//W3C//DTD SVG 1.1//EN"
 "http://www.w3.org/Graphics/SVG/1.1/DTD/svg11.dtd">
<!-- Generated by graphviz version 7.0.5 (20221223.1930)
 -->
<!-- Title: include/d/pane/d_pane_class.h Pages: 1 -->
<svg width="1938pt" height="291pt"
 viewBox="0.00 0.00 1938.00 291.00" xmlns="http://www.w3.org/2000/svg" xmlns:xlink="http://www.w3.org/1999/xlink">
<g id="graph0" class="graph" transform="scale(1 1) rotate(0) translate(4 287)">
<title>include/d/pane/d_pane_class.h</title>
<!-- Node1 -->
<g id="node1" class="node">
<title>Node1</title>
<g id="a_node1"><a xlink:title=" ">
<polygon fill="#999999" stroke="#666666" points="1070,-283 956,-283 956,-253 1070,-253 1070,-283"/>
<text text-anchor="start" x="964" y="-271" font-family="Helvetica,sans-Serif" font-size="10.00">include/d/pane/d_pane</text>
<text text-anchor="middle" x="1013" y="-260" font-family="Helvetica,sans-Serif" font-size="10.00">_class.h</text>
</a>
</g>
</g>
<!-- Node2 -->
<g id="node2" class="node">
<title>Node2</title>
<g id="a_node2"><a xlink:href="d__scope_8h.html" target="_top" xlink:title=" ">
<polygon fill="white" stroke="#666666" points="388.5,-211.5 285.5,-211.5 285.5,-192.5 388.5,-192.5 388.5,-211.5"/>
<text text-anchor="middle" x="337" y="-199.5" font-family="Helvetica,sans-Serif" font-size="10.00">include/d/d_scope.h</text>
</a>
</g>
</g>
<!-- Node1&#45;&gt;Node2 -->
<g id="edge1" class="edge">
<title>Node1&#45;&gt;Node2</title>
<path fill="none" stroke="#63b8ff" d="M944.3,-264.22C831.02,-259 598.16,-245.58 403,-217 393.96,-215.68 384.3,-213.86 375.24,-211.97"/>
<polygon fill="#63b8ff" stroke="#63b8ff" points="943.88,-267.71 954.02,-264.66 944.19,-260.71 943.88,-267.71"/>
</g>
<!-- Node5 -->
<g id="node5" class="node">
<title>Node5</title>
<g id="a_node5"><a xlink:href="d__select__icon_8h.html" target="_top" xlink:title=" ">
<polygon fill="white" stroke="#666666" points="677.5,-217 582.5,-217 582.5,-187 677.5,-187 677.5,-217"/>
<text text-anchor="start" x="590.5" y="-205" font-family="Helvetica,sans-Serif" font-size="10.00">include/d/d_select</text>
<text text-anchor="middle" x="630" y="-194" font-family="Helvetica,sans-Serif" font-size="10.00">_icon.h</text>
</a>
</g>
</g>
<!-- Node1&#45;&gt;Node5 -->
<g id="edge4" class="edge">
<title>Node1&#45;&gt;Node5</title>
<path fill="none" stroke="#63b8ff" d="M944.34,-257.68C879.19,-248.5 778.63,-233.51 692,-217 687.45,-216.13 682.72,-215.17 678,-214.17"/>
<polygon fill="#63b8ff" stroke="#63b8ff" points="943.8,-261.13 954.18,-259.05 944.77,-254.2 943.8,-261.13"/>
</g>
<!-- Node10 -->
<g id="node10" class="node">
<title>Node10</title>
<g id="a_node10"><a xlink:href="d__name_8cpp.html" target="_top" xlink:title=" ">
<polygon fill="white" stroke="#666666" points="94,-79.5 0,-79.5 0,-60.5 94,-60.5 94,-79.5"/>
<text text-anchor="middle" x="47" y="-67.5" font-family="Helvetica,sans-Serif" font-size="10.00">src/d/d_name.cpp</text>
</a>
</g>
</g>
<!-- Node1&#45;&gt;Node10 -->
<g id="edge19" class="edge">
<title>Node1&#45;&gt;Node10</title>
<path fill="none" stroke="#63b8ff" d="M944.14,-266.26C856.34,-263.73 700.6,-253.84 573,-217 508.07,-198.25 493.75,-186.11 436,-151 417.01,-139.46 416.61,-129.3 396,-121 274.3,-71.98 232,-108.96 103,-85 95.51,-83.61 87.53,-81.81 80.02,-79.97"/>
<polygon fill="#63b8ff" stroke="#63b8ff" points="943.95,-269.76 954.04,-266.52 944.13,-262.76 943.95,-269.76"/>
</g>
<!-- Node12 -->
<g id="node12" class="node">
<title>Node12</title>
<g id="a_node12"><a xlink:href="d__menu__calibration_8cpp.html" target="_top" xlink:title=" ">
<polygon fill="white" stroke="#666666" points="1047,-79.5 877,-79.5 877,-60.5 1047,-60.5 1047,-79.5"/>
<text text-anchor="middle" x="962" y="-67.5" font-family="Helvetica,sans-Serif" font-size="10.00">src/d/menu/d_menu_calibration.cpp</text>
</a>
</g>
</g>
<!-- Node1&#45;&gt;Node12 -->
<g id="edge22" class="edge">
<title>Node1&#45;&gt;Node12</title>
<path fill="none" stroke="#63b8ff" d="M944.42,-264.68C869.59,-260.53 756.84,-249 730,-217 702.58,-184.31 703.2,-154.2 730,-121 740.84,-107.58 836.81,-90.31 901.88,-79.98"/>
<polygon fill="#63b8ff" stroke="#63b8ff" points="943.95,-268.16 954.12,-265.18 944.31,-261.17 943.95,-268.16"/>
</g>
<!-- Node13 -->
<g id="node13" class="node">
<title>Node13</title>
<g id="a_node13"><a xlink:href="d__menu__collect_8cpp.html" target="_top" xlink:title=" ">
<polygon fill="white" stroke="#666666" points="1220.5,-79.5 1065.5,-79.5 1065.5,-60.5 1220.5,-60.5 1220.5,-79.5"/>
<text text-anchor="middle" x="1143" y="-67.5" font-family="Helvetica,sans-Serif" font-size="10.00">src/d/menu/d_menu_collect.cpp</text>
</a>
</g>
</g>
<!-- Node1&#45;&gt;Node13 -->
<g id="edge23" class="edge">
<title>Node1&#45;&gt;Node13</title>
<path fill="none" stroke="#63b8ff" d="M944.36,-267.41C854.75,-265.43 714.68,-252.26 763,-187 801.73,-134.68 989.92,-96.45 1086.13,-79.98"/>
<polygon fill="#63b8ff" stroke="#63b8ff" points="944.26,-270.91 954.32,-267.58 944.38,-263.91 944.26,-270.91"/>
</g>
<!-- Node18 -->
<g id="node18" class="node">
<title>Node18</title>
<g id="a_node18"><a xlink:href="d__a__alink_8cpp.html" target="_top" xlink:title=" ">
<polygon fill="white" stroke="#666666" points="881.5,-211.5 772.5,-211.5 772.5,-192.5 881.5,-192.5 881.5,-211.5"/>
<text text-anchor="middle" x="827" y="-199.5" font-family="Helvetica,sans-Serif" font-size="10.00">src/d/a/d_a_alink.cpp</text>
</a>
</g>
</g>
<!-- Node1&#45;&gt;Node18 -->
<g id="edge17" class="edge">
<title>Node1&#45;&gt;Node18</title>
<path fill="none" stroke="#63b8ff" d="M960.71,-249.01C925.62,-236.93 880.91,-221.55 853.12,-211.99"/>
<polygon fill="#63b8ff" stroke="#63b8ff" points="959.23,-252.2 969.83,-252.14 961.51,-245.58 959.23,-252.2"/>
</g>
<!-- Node19 -->
<g id="node19" class="node">
<title>Node19</title>
<g id="a_node19"><a xlink:href="d__kantera__icon__meter_8cpp.html" target="_top" xlink:title=" ">
<polygon fill="white" stroke="#666666" points="1006.5,-217 899.5,-217 899.5,-187 1006.5,-187 1006.5,-217"/>
<text text-anchor="start" x="907.5" y="-205" font-family="Helvetica,sans-Serif" font-size="10.00">src/d/d_kantera_icon</text>
<text text-anchor="middle" x="953" y="-194" font-family="Helvetica,sans-Serif" font-size="10.00">_meter.cpp</text>
</a>
</g>
</g>
<!-- Node1&#45;&gt;Node19 -->
<g id="edge18" class="edge">
<title>Node1&#45;&gt;Node19</title>
<path fill="none" stroke="#63b8ff" d="M991.93,-244.53C983.4,-235.43 973.81,-225.19 966.28,-217.16"/>
<polygon fill="#63b8ff" stroke="#63b8ff" points="989.26,-246.79 998.65,-251.69 994.36,-242 989.26,-246.79"/>
</g>
<!-- Node20 -->
<g id="node20" class="node">
<title>Node20</title>
<g id="a_node20"><a xlink:href="d__file__sel__info_8cpp.html" target="_top" xlink:title=" ">
<polygon fill="white" stroke="#666666" points="1121.5,-217 1024.5,-217 1024.5,-187 1121.5,-187 1121.5,-217"/>
<text text-anchor="start" x="1032.5" y="-205" font-family="Helvetica,sans-Serif" font-size="10.00">src/d/file/d_file_sel</text>
<text text-anchor="middle" x="1073" y="-194" font-family="Helvetica,sans-Serif" font-size="10.00">_info.cpp</text>
</a>
</g>
</g>
<!-- Node1&#45;&gt;Node20 -->
<g id="edge20" class="edge">
<title>Node1&#45;&gt;Node20</title>
<path fill="none" stroke="#63b8ff" d="M1034.07,-244.53C1042.6,-235.43 1052.19,-225.19 1059.72,-217.16"/>
<polygon fill="#63b8ff" stroke="#63b8ff" points="1031.64,-242 1027.35,-251.69 1036.74,-246.79 1031.64,-242"/>
</g>
<!-- Node21 -->
<g id="node21" class="node">
<title>Node21</title>
<g id="a_node21"><a xlink:href="d__file__select_8cpp.html" target="_top" xlink:title=" ">
<polygon fill="white" stroke="#666666" points="1268,-211.5 1140,-211.5 1140,-192.5 1268,-192.5 1268,-211.5"/>
<text text-anchor="middle" x="1204" y="-199.5" font-family="Helvetica,sans-Serif" font-size="10.00">src/d/file/d_file_select.cpp</text>
</a>
</g>
</g>
<!-- Node1&#45;&gt;Node21 -->
<g id="edge21" class="edge">
<title>Node1&#45;&gt;Node21</title>
<path fill="none" stroke="#63b8ff" d="M1066.7,-249.01C1102.73,-236.93 1148.64,-221.55 1177.18,-211.99"/>
<polygon fill="#63b8ff" stroke="#63b8ff" points="1065.67,-245.66 1057.3,-252.16 1067.89,-252.3 1065.67,-245.66"/>
</g>
<!-- Node22 -->
<g id="node22" class="node">
<title>Node22</title>
<g id="a_node22"><a xlink:href="d__meter2__draw_8cpp.html" target="_top" xlink:title=" ">
<polygon fill="white" stroke="#666666" points="1396,-217 1286,-217 1286,-187 1396,-187 1396,-217"/>
<text text-anchor="start" x="1294" y="-205" font-family="Helvetica,sans-Serif" font-size="10.00">src/d/meter/d_meter2</text>
<text text-anchor="middle" x="1341" y="-194" font-family="Helvetica,sans-Serif" font-size="10.00">_draw.cpp</text>
</a>
</g>
</g>
<!-- Node1&#45;&gt;Node22 -->
<g id="edge24" class="edge">
<title>Node1&#45;&gt;Node22</title>
<path fill="none" stroke="#63b8ff" d="M1081.29,-254.61C1134.65,-244.8 1210.65,-230.54 1277,-217 1279.79,-216.43 1282.64,-215.84 1285.52,-215.24"/>
<polygon fill="#63b8ff" stroke="#63b8ff" points="1080.95,-251.12 1071.74,-256.36 1082.21,-258 1080.95,-251.12"/>
</g>
<!-- Node23 -->
<g id="node23" class="node">
<title>Node23</title>
<g id="a_node23"><a xlink:href="d__pane__class_8cpp.html" target="_top" xlink:title=" ">
<polygon fill="white" stroke="#666666" points="1557.5,-211.5 1414.5,-211.5 1414.5,-192.5 1557.5,-192.5 1557.5,-211.5"/>
<text text-anchor="middle" x="1486" y="-199.5" font-family="Helvetica,sans-Serif" font-size="10.00">src/d/pane/d_pane_class.cpp</text>
</a>
</g>
</g>
<!-- Node1&#45;&gt;Node23 -->
<g id="edge25" class="edge">
<title>Node1&#45;&gt;Node23</title>
<path fill="none" stroke="#63b8ff" d="M1081.4,-259.21C1159.72,-250.07 1291.83,-233.99 1405,-217 1415.16,-215.47 1426.01,-213.7 1436.37,-211.94"/>
<polygon fill="#63b8ff" stroke="#63b8ff" points="1081.27,-255.7 1071.74,-260.33 1082.08,-262.65 1081.27,-255.7"/>
</g>
<!-- Node24 -->
<g id="node24" class="node">
<title>Node24</title>
<g id="a_node24"><a xlink:href="d__msg__scrn__arrow_8cpp.html" target="_top" xlink:title=" ">
<polygon fill="white" stroke="#666666" points="1682,-217 1576,-217 1576,-187 1682,-187 1682,-217"/>
<text text-anchor="start" x="1584" y="-205" font-family="Helvetica,sans-Serif" font-size="10.00">src/msg/scrn/d_msg</text>
<text text-anchor="middle" x="1629" y="-194" font-family="Helvetica,sans-Serif" font-size="10.00">_scrn_arrow.cpp</text>
</a>
</g>
</g>
<!-- Node1&#45;&gt;Node24 -->
<g id="edge26" class="edge">
<title>Node1&#45;&gt;Node24</title>
<path fill="none" stroke="#63b8ff" d="M1081.71,-263.72C1186.77,-258.05 1393.44,-244.3 1567,-217 1569.83,-216.55 1572.73,-216.05 1575.65,-215.52"/>
<polygon fill="#63b8ff" stroke="#63b8ff" points="1081.64,-260.22 1071.84,-264.25 1082.01,-267.21 1081.64,-260.22"/>
</g>
<!-- Node25 -->
<g id="node25" class="node">
<title>Node25</title>
<g id="a_node25"><a xlink:href="d__msg__scrn__base_8cpp.html" target="_top" xlink:title=" ">
<polygon fill="white" stroke="#666666" points="1806,-217 1700,-217 1700,-187 1806,-187 1806,-217"/>
<text text-anchor="start" x="1708" y="-205" font-family="Helvetica,sans-Serif" font-size="10.00">src/msg/scrn/d_msg</text>
<text text-anchor="middle" x="1753" y="-194" font-family="Helvetica,sans-Serif" font-size="10.00">_scrn_base.cpp</text>
</a>
</g>
</g>
<!-- Node1&#45;&gt;Node25 -->
<g id="edge27" class="edge">
<title>Node1&#45;&gt;Node25</title>
<path fill="none" stroke="#63b8ff" d="M1081.91,-265.29C1204.87,-261.5 1469.9,-249.93 1691,-217 1693.84,-216.58 1696.74,-216.1 1699.66,-215.57"/>
<polygon fill="#63b8ff" stroke="#63b8ff" points="1081.87,-261.79 1071.98,-265.59 1082.08,-268.79 1081.87,-261.79"/>
</g>
<!-- Node26 -->
<g id="node26" class="node">
<title>Node26</title>
<g id="a_node26"><a xlink:href="d__msg__scrn__boss_8cpp.html" target="_top" xlink:title=" ">
<polygon fill="white" stroke="#666666" points="1930,-217 1824,-217 1824,-187 1930,-187 1930,-217"/>
<text text-anchor="start" x="1832" y="-205" font-family="Helvetica,sans-Serif" font-size="10.00">src/msg/scrn/d_msg</text>
<text text-anchor="middle" x="1877" y="-194" font-family="Helvetica,sans-Serif" font-size="10.00">_scrn_boss.cpp</text>
</a>
</g>
</g>
<!-- Node1&#45;&gt;Node26 -->
<g id="edge28" class="edge">
<title>Node1&#45;&gt;Node26</title>
<path fill="none" stroke="#63b8ff" d="M1081.48,-266.41C1220.46,-264.4 1545.35,-255.6 1815,-217 1817.84,-216.59 1820.74,-216.13 1823.67,-215.61"/>
<polygon fill="#63b8ff" stroke="#63b8ff" points="1081.67,-262.91 1071.72,-266.54 1081.76,-269.91 1081.67,-262.91"/>
</g>
<!-- Node3 -->
<g id="node3" class="node">
<title>Node3</title>
<g id="a_node3"><a xlink:href="d__scope_8cpp.html" target="_top" xlink:title=" ">
<polygon fill="white" stroke="#666666" points="387,-145.5 291,-145.5 291,-126.5 387,-126.5 387,-145.5"/>
<text text-anchor="middle" x="339" y="-133.5" font-family="Helvetica,sans-Serif" font-size="10.00">src/d/d_scope.cpp</text>
</a>
</g>
</g>
<!-- Node2&#45;&gt;Node3 -->
<g id="edge2" class="edge">
<title>Node2&#45;&gt;Node3</title>
<path fill="none" stroke="#63b8ff" d="M337.64,-180.68C338,-168.94 338.44,-154.77 338.72,-145.82"/>
<polygon fill="#63b8ff" stroke="#63b8ff" points="334.14,-180.48 337.33,-190.59 341.14,-180.7 334.14,-180.48"/>
</g>
<!-- Node4 -->
<g id="node4" class="node">
<title>Node4</title>
<g id="a_node4"><a xlink:href="d__meter2_8cpp.html" target="_top" xlink:title=" ">
<polygon fill="white" stroke="#666666" points="273,-145.5 145,-145.5 145,-126.5 273,-126.5 273,-145.5"/>
<text text-anchor="middle" x="209" y="-133.5" font-family="Helvetica,sans-Serif" font-size="10.00">src/d/meter/d_meter2.cpp</text>
</a>
</g>
</g>
<!-- Node2&#45;&gt;Node4 -->
<g id="edge3" class="edge">
<title>Node2&#45;&gt;Node4</title>
<path fill="none" stroke="#63b8ff" d="M309.2,-187.1C284.12,-174.56 247.97,-156.49 226.65,-145.82"/>
<polygon fill="#63b8ff" stroke="#63b8ff" points="307.34,-190.08 317.85,-191.42 310.47,-183.82 307.34,-190.08"/>
</g>
<!-- Node6 -->
<g id="node6" class="node">
<title>Node6</title>
<g id="a_node6"><a xlink:href="d__select__cursor_8h.html" target="_top" xlink:title=" ">
<polygon fill="white" stroke="#666666" points="677.5,-151 582.5,-151 582.5,-121 677.5,-121 677.5,-151"/>
<text text-anchor="start" x="590.5" y="-139" font-family="Helvetica,sans-Serif" font-size="10.00">include/d/d_select</text>
<text text-anchor="middle" x="630" y="-128" font-family="Helvetica,sans-Serif" font-size="10.00">_cursor.h</text>
</a>
</g>
</g>
<!-- Node5&#45;&gt;Node6 -->
<g id="edge5" class="edge">
<title>Node5&#45;&gt;Node6</title>
<path fill="none" stroke="#63b8ff" d="M630,-175.39C630,-167.13 630,-158.28 630,-151.16"/>
<polygon fill="#63b8ff" stroke="#63b8ff" points="626.5,-175.28 630,-185.28 633.5,-175.28 626.5,-175.28"/>
</g>
<!-- Node17 -->
<g id="node17" class="node">
<title>Node17</title>
<g id="a_node17"><a xlink:href="d__select__icon_8cpp.html" target="_top" xlink:title=" ">
<polygon fill="white" stroke="#666666" points="564.5,-145.5 445.5,-145.5 445.5,-126.5 564.5,-126.5 564.5,-145.5"/>
<text text-anchor="middle" x="505" y="-133.5" font-family="Helvetica,sans-Serif" font-size="10.00">src/d/d_select_icon.cpp</text>
</a>
</g>
</g>
<!-- Node5&#45;&gt;Node17 -->
<g id="edge16" class="edge">
<title>Node5&#45;&gt;Node17</title>
<path fill="none" stroke="#63b8ff" d="M591.77,-181.43C568.71,-169.62 540.42,-155.14 522.55,-145.99"/>
<polygon fill="#63b8ff" stroke="#63b8ff" points="590.1,-184.51 600.6,-185.95 593.29,-178.27 590.1,-184.51"/>
</g>
<!-- Node7 -->
<g id="node7" class="node">
<title>Node7</title>
<g id="a_node7"><a xlink:href="d__menu__dmap_8h.html" target="_top" xlink:title=" ">
<polygon fill="white" stroke="#666666" points="402,-85 282,-85 282,-55 402,-55 402,-85"/>
<text text-anchor="start" x="290" y="-73" font-family="Helvetica,sans-Serif" font-size="10.00">include/d/menu/d_menu</text>
<text text-anchor="middle" x="342" y="-62" font-family="Helvetica,sans-Serif" font-size="10.00">_dmap.h</text>
</a>
</g>
</g>
<!-- Node6&#45;&gt;Node7 -->
<g id="edge6" class="edge">
<title>Node6&#45;&gt;Node7</title>
<path fill="none" stroke="#63b8ff" d="M571.16,-120.61C508.05,-106.11 446.53,-92.91 402.41,-83.6"/>
<polygon fill="#63b8ff" stroke="#63b8ff" points="570.12,-123.96 580.65,-122.8 571.7,-117.14 570.12,-123.96"/>
</g>
<!-- Node6&#45;&gt;Node10 -->
<g id="edge9" class="edge">
<title>Node6&#45;&gt;Node10</title>
<path fill="none" stroke="#63b8ff" d="M570.97,-120.89C364.1,-88.96 306.17,-117.94 103,-85 95.09,-83.72 86.65,-81.87 78.79,-79.93"/>
<polygon fill="#63b8ff" stroke="#63b8ff" points="570.3,-124.33 580.73,-122.43 571.39,-117.41 570.3,-124.33"/>
</g>
<!-- Node11 -->
<g id="node11" class="node">
<title>Node11</title>
<g id="a_node11"><a xlink:href="d__select__cursor_8cpp.html" target="_top" xlink:title=" ">
<polygon fill="white" stroke="#666666" points="548,-79.5 420,-79.5 420,-60.5 548,-60.5 548,-79.5"/>
<text text-anchor="middle" x="484" y="-67.5" font-family="Helvetica,sans-Serif" font-size="10.00">src/d/d_select_cursor.cpp</text>
</a>
</g>
</g>
<!-- Node6&#45;&gt;Node11 -->
<g id="edge10" class="edge">
<title>Node6&#45;&gt;Node11</title>
<path fill="none" stroke="#63b8ff" d="M586.8,-116.06C559.61,-104.14 525.75,-89.3 504.5,-79.99"/>
<polygon fill="#63b8ff" stroke="#63b8ff" points="585.28,-119.22 595.85,-120.03 588.1,-112.81 585.28,-119.22"/>
</g>
<!-- Node6&#45;&gt;Node12 -->
<g id="edge11" class="edge">
<title>Node6&#45;&gt;Node12</title>
<path fill="none" stroke="#63b8ff" d="M688.92,-121.64C689.96,-121.42 690.98,-121.21 692,-121 767.65,-105.46 855.68,-89.57 910.12,-79.99"/>
<polygon fill="#63b8ff" stroke="#63b8ff" points="688.22,-118.21 679.17,-123.72 689.68,-125.05 688.22,-118.21"/>
</g>
<!-- Node6&#45;&gt;Node13 -->
<g id="edge12" class="edge">
<title>Node6&#45;&gt;Node13</title>
<path fill="none" stroke="#63b8ff" d="M688.89,-126.46C702.39,-124.59 716.68,-122.67 730,-121 874.64,-102.89 911.55,-104.59 1056,-85 1067.07,-83.5 1078.9,-81.72 1090.15,-79.93"/>
<polygon fill="#63b8ff" stroke="#63b8ff" points="688.69,-122.96 679.27,-127.81 689.66,-129.89 688.69,-122.96"/>
</g>
<!-- Node14 -->
<g id="node14" class="node">
<title>Node14</title>
<g id="a_node14"><a xlink:href="d__menu__map__common_8cpp.html" target="_top" xlink:title=" ">
<polygon fill="white" stroke="#666666" points="693.5,-85 566.5,-85 566.5,-55 693.5,-55 693.5,-85"/>
<text text-anchor="start" x="574.5" y="-73" font-family="Helvetica,sans-Serif" font-size="10.00">src/d/menu/d_menu_map</text>
<text text-anchor="middle" x="630" y="-62" font-family="Helvetica,sans-Serif" font-size="10.00">_common.cpp</text>
</a>
</g>
</g>
<!-- Node6&#45;&gt;Node14 -->
<g id="edge13" class="edge">
<title>Node6&#45;&gt;Node14</title>
<path fill="none" stroke="#63b8ff" d="M630,-109.39C630,-101.13 630,-92.28 630,-85.16"/>
<polygon fill="#63b8ff" stroke="#63b8ff" points="626.5,-109.28 630,-119.28 633.5,-109.28 626.5,-109.28"/>
</g>
<!-- Node15 -->
<g id="node15" class="node">
<title>Node15</title>
<g id="a_node15"><a xlink:href="d__menu__save_8cpp.html" target="_top" xlink:title=" ">
<polygon fill="white" stroke="#666666" points="858.5,-79.5 711.5,-79.5 711.5,-60.5 858.5,-60.5 858.5,-79.5"/>
<text text-anchor="middle" x="785" y="-67.5" font-family="Helvetica,sans-Serif" font-size="10.00">src/d/menu/d_menu_save.cpp</text>
</a>
</g>
</g>
<!-- Node6&#45;&gt;Node15 -->
<g id="edge14" class="edge">
<title>Node6&#45;&gt;Node15</title>
<path fill="none" stroke="#63b8ff" d="M675.1,-116.38C704.09,-104.41 740.48,-89.38 763.24,-79.99"/>
<polygon fill="#63b8ff" stroke="#63b8ff" points="674.09,-113.01 666.18,-120.06 676.76,-119.48 674.09,-113.01"/>
</g>
<!-- Node16 -->
<g id="node16" class="node">
<title>Node16</title>
<g id="a_node16"><a xlink:href="d__shop__system_8cpp.html" target="_top" xlink:title=" ">
<polygon fill="white" stroke="#666666" points="264,-79.5 112,-79.5 112,-60.5 264,-60.5 264,-79.5"/>
<text text-anchor="middle" x="188" y="-67.5" font-family="Helvetica,sans-Serif" font-size="10.00">src/d/shop/d_shop_system.cpp</text>
</a>
</g>
</g>
<!-- Node6&#45;&gt;Node16 -->
<g id="edge15" class="edge">
<title>Node6&#45;&gt;Node16</title>
<path fill="none" stroke="#63b8ff" d="M571.24,-120.83C438.97,-97.29 402.45,-103.42 273,-85 262.34,-83.48 250.95,-81.71 240.09,-79.95"/>
<polygon fill="#63b8ff" stroke="#63b8ff" points="570.24,-124.21 580.71,-122.54 571.49,-117.32 570.24,-124.21"/>
</g>
<!-- Node8 -->
<g id="node8" class="node">
<title>Node8</title>
<g id="a_node8"><a xlink:href="d__menu__dmap_8cpp.html" target="_top" xlink:title=" ">
<polygon fill="white" stroke="#666666" points="330,-19 180,-19 180,0 330,0 330,-19"/>
<text text-anchor="middle" x="255" y="-7" font-family="Helvetica,sans-Serif" font-size="10.00">src/d/menu/d_menu_dmap.cpp</text>
</a>
</g>
</g>
<!-- Node7&#45;&gt;Node8 -->
<g id="edge7" class="edge">
<title>Node7&#45;&gt;Node8</title>
<path fill="none" stroke="#63b8ff" d="M311.18,-48.28C296.42,-38.35 279.53,-27 268.16,-19.35"/>
<polygon fill="#63b8ff" stroke="#63b8ff" points="308.99,-51.02 319.24,-53.69 312.89,-45.21 308.99,-51.02"/>
</g>
<!-- Node9 -->
<g id="node9" class="node">
<title>Node9</title>
<g id="a_node9"><a xlink:href="d__menu__window_8cpp.html" target="_top" xlink:title=" ">
<polygon fill="white" stroke="#666666" points="507.5,-19 348.5,-19 348.5,0 507.5,0 507.5,-19"/>
<text text-anchor="middle" x="428" y="-7" font-family="Helvetica,sans-Serif" font-size="10.00">src/d/menu/d_menu_window.cpp</text>
</a>
</g>
</g>
<!-- Node7&#45;&gt;Node9 -->
<g id="edge8" class="edge">
<title>Node7&#45;&gt;Node9</title>
<path fill="none" stroke="#63b8ff" d="M372.46,-48.28C387.05,-38.35 403.75,-27 415,-19.35"/>
<polygon fill="#63b8ff" stroke="#63b8ff" points="370.81,-45.17 364.51,-53.69 374.75,-50.96 370.81,-45.17"/>
</g>
</g>
</svg>
