<?xml version="1.0" encoding="UTF-8" standalone="no"?>
<!DOCTYPE svg PUBLIC "-//W3C//DTD SVG 1.1//EN"
 "http://www.w3.org/Graphics/SVG/1.1/DTD/svg11.dtd">
<!-- Generated by graphviz version 7.0.5 (20221223.1930)
 -->
<!-- Title: include/d/d_procname.h Pages: 1 -->
<!--zoomable 104 -->
<svg id="main" version="1.1" xmlns="http://www.w3.org/2000/svg" xmlns:xlink="http://www.w3.org/1999/xlink" xml:space="preserve" onload="init(evt)">
<style type="text/css"><![CDATA[
.edge:hover path { stroke: red; }
.edge:hover polygon { stroke: red; fill: red; }
]]></style>
<script type="text/javascript"><![CDATA[
var edges = document.getElementsByTagName('g');
if (edges && edges.length) {
  for (var i=0;i<edges.length;i++) {
    if (edges[i].id.substr(0,4)=='edge') {
      edges[i].setAttribute('class','edge');
    }
  }
}
]]></script>
        <defs>
                <circle id="rim" cx="0" cy="0" r="7"/>
                <circle id="rim2" cx="0" cy="0" r="3.5"/>
                <g id="zoomPlus">
                        <use xlink:href="#rim" fill="#404040">
                                <set attributeName="fill" to="#808080" begin="zoomplus.mouseover" end="zoomplus.mouseout"/>
                        </use>
                        <path d="M-4,0h8M0,-4v8" fill="none" stroke="white" stroke-width="1.5" pointer-events="none"/>
                </g>
                <g id="zoomMin">
                        <use xlink:href="#rim" fill="#404040">
                                <set attributeName="fill" to="#808080" begin="zoomminus.mouseover" end="zoomminus.mouseout"/>
                        </use>
                        <path d="M-4,0h8" fill="none" stroke="white" stroke-width="1.5" pointer-events="none"/>
                </g>
                <g id="dirArrow">
                        <path fill="none" stroke="white" stroke-width="1.5" d="M0,-3.0v7 M-2.5,-0.5L0,-3.0L2.5,-0.5"/>
                </g>
               <g id="resetDef">
                       <use xlink:href="#rim2" fill="#404040">
                               <set attributeName="fill" to="#808080" begin="reset.mouseover" end="reset.mouseout"/>
                       </use>
               </g>
        </defs>

<script type="text/javascript">
var viewWidth = 3956;
var viewHeight = 104;
var sectionId = 'dynsection-0';
</script>
<script xlink:href="svgpan.js"/>
<svg id="graph" class="graph">
<g id="viewport">
<title>include/d/d_procname.h</title>
<!-- Node1 -->
<g id="node1" class="node">
<title>Node1</title>
<g id="a_node1"><a xlink:title=" ">
<polygon fill="#999999" stroke="#666666" points="2014,-96 1895,-96 1895,-77 2014,-77 2014,-96"/>
<text text-anchor="middle" x="1954.5" y="-84" font-family="Helvetica,sans-Serif" font-size="10.00">include/d/d_procname.h</text>
</a>
</g>
</g>
<!-- Node2 -->
<g id="node2" class="node">
<title>Node2</title>
<g id="a_node2"><a xlink:href="d__a__arrow_8h.html" target="_top" xlink:title=" ">
<polygon fill="white" stroke="#666666" points="101,-35.5 0,-35.5 0,-5.5 101,-5.5 101,-35.5"/>
<text text-anchor="start" x="8" y="-23.5" font-family="Helvetica,sans-Serif" font-size="10.00">include/rel/d/a/d_a</text>
<text text-anchor="middle" x="50.5" y="-12.5" font-family="Helvetica,sans-Serif" font-size="10.00">_arrow/d_a_arrow.h</text>
</a>
</g>
</g>
<!-- Node1&#45;&gt;Node2 -->
<g id="edge1" class="edge">
<title>Node1&#45;&gt;Node2</title>
<path fill="none" stroke="#63b8ff" d="M1883.43,-85.02C1566.07,-82.73 286.28,-71.65 109.5,-41 102.7,-39.82 95.61,-38.01 88.8,-35.96"/>
<polygon fill="#63b8ff" stroke="#63b8ff" points="1883.22,-88.52 1893.24,-85.09 1883.27,-81.52 1883.22,-88.52"/>
</g>
<!-- Node3 -->
<g id="node3" class="node">
<title>Node3</title>
<g id="a_node3"><a xlink:href="d__a__tag__attention_8h.html" target="_top" xlink:title=" ">
<polygon fill="white" stroke="#666666" points="224,-41 119,-41 119,0 224,0 224,-41"/>
<text text-anchor="start" x="127" y="-29" font-family="Helvetica,sans-Serif" font-size="10.00">include/rel/d/a/tag</text>
<text text-anchor="start" x="127" y="-18" font-family="Helvetica,sans-Serif" font-size="10.00">/d_a_tag_attention/d</text>
<text text-anchor="middle" x="171.5" y="-7" font-family="Helvetica,sans-Serif" font-size="10.00">_a_tag_attention.h</text>
</a>
</g>
</g>
<!-- Node1&#45;&gt;Node3 -->
<g id="edge2" class="edge">
<title>Node1&#45;&gt;Node3</title>
<path fill="none" stroke="#63b8ff" d="M1883.25,-84.85C1579,-81.91 396.71,-68.79 232.5,-41 229.76,-40.54 226.97,-39.98 224.17,-39.35"/>
<polygon fill="#63b8ff" stroke="#63b8ff" points="1883,-88.35 1893.04,-84.94 1883.07,-81.35 1883,-88.35"/>
</g>
<!-- Node4 -->
<g id="node4" class="node">
<title>Node4</title>
<g id="a_node4"><a xlink:href="d__a__tag__howl_8h.html" target="_top" xlink:title=" ">
<polygon fill="white" stroke="#666666" points="359,-41 242,-41 242,0 359,0 359,-41"/>
<text text-anchor="start" x="250" y="-29" font-family="Helvetica,sans-Serif" font-size="10.00">include/rel/d/a/tag</text>
<text text-anchor="start" x="250" y="-18" font-family="Helvetica,sans-Serif" font-size="10.00">/d_a_tag_howl/d_a_tag</text>
<text text-anchor="middle" x="300.5" y="-7" font-family="Helvetica,sans-Serif" font-size="10.00">_howl.h</text>
</a>
</g>
</g>
<!-- Node1&#45;&gt;Node4 -->
<g id="edge3" class="edge">
<title>Node1&#45;&gt;Node4</title>
<path fill="none" stroke="#63b8ff" d="M1883.34,-85.87C1615.29,-86.91 666.56,-87.16 368.5,-41 365.47,-40.53 362.38,-39.97 359.27,-39.33"/>
<polygon fill="#63b8ff" stroke="#63b8ff" points="1883.34,-89.37 1893.33,-85.83 1883.32,-82.37 1883.34,-89.37"/>
</g>
<!-- Node5 -->
<g id="node5" class="node">
<title>Node5</title>
<g id="a_node5"><a xlink:href="d__a__tag__ret__room_8h.html" target="_top" xlink:title=" ">
<polygon fill="white" stroke="#666666" points="483.5,-41 377.5,-41 377.5,0 483.5,0 483.5,-41"/>
<text text-anchor="start" x="385.5" y="-29" font-family="Helvetica,sans-Serif" font-size="10.00">include/rel/d/a/tag</text>
<text text-anchor="start" x="385.5" y="-18" font-family="Helvetica,sans-Serif" font-size="10.00">/d_a_tag_ret_room/d</text>
<text text-anchor="middle" x="430.5" y="-7" font-family="Helvetica,sans-Serif" font-size="10.00">_a_tag_ret_room.h</text>
</a>
</g>
</g>
<!-- Node1&#45;&gt;Node5 -->
<g id="edge4" class="edge">
<title>Node1&#45;&gt;Node5</title>
<path fill="none" stroke="#63b8ff" d="M1883.4,-85.91C1629,-86.98 764.67,-87.04 492.5,-41 489.61,-40.51 486.66,-39.92 483.71,-39.25"/>
<polygon fill="#63b8ff" stroke="#63b8ff" points="1883.2,-89.41 1893.18,-85.87 1883.17,-82.41 1883.2,-89.41"/>
</g>
<!-- Node6 -->
<g id="node6" class="node">
<title>Node6</title>
<g id="a_node6"><a xlink:href="d__a__tag__theB__hint_8h.html" target="_top" xlink:title=" ">
<polygon fill="white" stroke="#666666" points="611,-41 502,-41 502,0 611,0 611,-41"/>
<text text-anchor="start" x="510" y="-29" font-family="Helvetica,sans-Serif" font-size="10.00">include/rel/d/a/tag</text>
<text text-anchor="start" x="510" y="-18" font-family="Helvetica,sans-Serif" font-size="10.00">/d_a_tag_theB_hint/d</text>
<text text-anchor="middle" x="556.5" y="-7" font-family="Helvetica,sans-Serif" font-size="10.00">_a_tag_theB_hint.h</text>
</a>
</g>
</g>
<!-- Node1&#45;&gt;Node6 -->
<g id="edge5" class="edge">
<title>Node1&#45;&gt;Node6</title>
<path fill="none" stroke="#63b8ff" d="M1883.24,-85.63C1643.27,-85.65 865.87,-82.47 619.5,-41 616.79,-40.54 614.03,-40 611.27,-39.39"/>
<polygon fill="#63b8ff" stroke="#63b8ff" points="1883.08,-89.13 1893.08,-85.62 1883.08,-82.13 1883.08,-89.13"/>
</g>
<!-- Node7 -->
<g id="node7" class="node">
<title>Node7</title>
<g id="a_node7"><a xlink:href="c__damagereaction_8cpp.html" target="_top" xlink:title=" ">
<polygon fill="white" stroke="#666666" points="768,-30 629,-30 629,-11 768,-11 768,-30"/>
<text text-anchor="middle" x="698.5" y="-18" font-family="Helvetica,sans-Serif" font-size="10.00">src/c/c_damagereaction.cpp</text>
</a>
</g>
</g>
<!-- Node1&#45;&gt;Node7 -->
<g id="edge6" class="edge">
<title>Node1&#45;&gt;Node7</title>
<path fill="none" stroke="#63b8ff" d="M1883.27,-84.74C1662.56,-82.09 991.98,-71.67 776.5,-41 760.33,-38.7 742.65,-34.43 728.21,-30.47"/>
<polygon fill="#63b8ff" stroke="#63b8ff" points="1883.13,-88.24 1893.17,-84.86 1883.21,-81.24 1883.13,-88.24"/>
</g>
<!-- Node8 -->
<g id="node8" class="node">
<title>Node8</title>
<g id="a_node8"><a xlink:href="c__dylink_8cpp.html" target="_top" xlink:title=" ">
<polygon fill="white" stroke="#666666" points="881,-30 786,-30 786,-11 881,-11 881,-30"/>
<text text-anchor="middle" x="833.5" y="-18" font-family="Helvetica,sans-Serif" font-size="10.00">src/c/c_dylink.cpp</text>
</a>
</g>
</g>
<!-- Node1&#45;&gt;Node8 -->
<g id="edge7" class="edge">
<title>Node1&#45;&gt;Node8</title>
<path fill="none" stroke="#63b8ff" d="M1883.36,-85.24C1677,-84.05 1080.73,-77.46 889.5,-41 877.57,-38.72 864.74,-34.4 854.37,-30.41"/>
<polygon fill="#63b8ff" stroke="#63b8ff" points="1883.11,-88.74 1893.13,-85.29 1883.15,-81.74 1883.11,-88.74"/>
</g>
<!-- Node9 -->
<g id="node9" class="node">
<title>Node9</title>
<g id="a_node9"><a xlink:href="d__a__alink_8cpp.html" target="_top" xlink:title=" ">
<polygon fill="white" stroke="#666666" points="1008,-30 899,-30 899,-11 1008,-11 1008,-30"/>
<text text-anchor="middle" x="953.5" y="-18" font-family="Helvetica,sans-Serif" font-size="10.00">src/d/a/d_a_alink.cpp</text>
</a>
</g>
</g>
<!-- Node1&#45;&gt;Node9 -->
<g id="edge8" class="edge">
<title>Node1&#45;&gt;Node9</title>
<path fill="none" stroke="#63b8ff" d="M1883.36,-84.4C1694.51,-81.13 1183.71,-69.81 1017.5,-41 1004.11,-38.68 989.59,-34.41 977.77,-30.45"/>
<polygon fill="#63b8ff" stroke="#63b8ff" points="1883.22,-87.9 1893.27,-84.57 1883.34,-80.9 1883.22,-87.9"/>
</g>
<!-- Node10 -->
<g id="node10" class="node">
<title>Node10</title>
<g id="a_node10"><a xlink:href="d__a__npc_8cpp.html" target="_top" xlink:title=" ">
<polygon fill="white" stroke="#666666" points="1130.5,-30 1026.5,-30 1026.5,-11 1130.5,-11 1130.5,-30"/>
<text text-anchor="middle" x="1078.5" y="-18" font-family="Helvetica,sans-Serif" font-size="10.00">src/d/a/d_a_npc.cpp</text>
</a>
</g>
</g>
<!-- Node1&#45;&gt;Node10 -->
<g id="edge9" class="edge">
<title>Node1&#45;&gt;Node10</title>
<path fill="none" stroke="#63b8ff" d="M1883.19,-83.93C1711.93,-79.8 1281.18,-67.07 1139.5,-41 1126.71,-38.65 1112.87,-34.37 1101.61,-30.42"/>
<polygon fill="#63b8ff" stroke="#63b8ff" points="1882.98,-87.43 1893.06,-84.17 1883.15,-80.43 1882.98,-87.43"/>
</g>
<!-- Node11 -->
<g id="node11" class="node">
<title>Node11</title>
<g id="a_node11"><a xlink:href="d__cc__uty_8cpp.html" target="_top" xlink:title=" ">
<polygon fill="white" stroke="#666666" points="1260.5,-30 1148.5,-30 1148.5,-11 1260.5,-11 1260.5,-30"/>
<text text-anchor="middle" x="1204.5" y="-18" font-family="Helvetica,sans-Serif" font-size="10.00">src/d/cc/d_cc_uty.cpp</text>
</a>
</g>
</g>
<!-- Node1&#45;&gt;Node11 -->
<g id="edge10" class="edge">
<title>Node1&#45;&gt;Node11</title>
<path fill="none" stroke="#63b8ff" d="M1883.56,-86.15C1758.49,-86.14 1491,-80.89 1269.5,-41 1256.05,-38.58 1241.44,-34.35 1229.49,-30.44"/>
<polygon fill="#63b8ff" stroke="#63b8ff" points="1883.34,-89.65 1893.34,-86.14 1883.34,-82.65 1883.34,-89.65"/>
</g>
<!-- Node12 -->
<g id="node12" class="node">
<title>Node12</title>
<g id="a_node12"><a xlink:href="d__com__inf__game_8cpp.html" target="_top" xlink:title=" ">
<polygon fill="white" stroke="#666666" points="1386.5,-35.5 1278.5,-35.5 1278.5,-5.5 1386.5,-5.5 1386.5,-35.5"/>
<text text-anchor="start" x="1286.5" y="-23.5" font-family="Helvetica,sans-Serif" font-size="10.00">src/d/com/d_com_inf</text>
<text text-anchor="middle" x="1332.5" y="-12.5" font-family="Helvetica,sans-Serif" font-size="10.00">_game.cpp</text>
</a>
</g>
</g>
<!-- Node1&#45;&gt;Node12 -->
<g id="edge11" class="edge">
<title>Node1&#45;&gt;Node12</title>
<path fill="none" stroke="#63b8ff" d="M1883.5,-84.85C1776.68,-82.74 1568.69,-74.27 1395.5,-41 1388.64,-39.68 1381.47,-37.89 1374.53,-35.91"/>
<polygon fill="#63b8ff" stroke="#63b8ff" points="1883.19,-88.34 1893.25,-85.02 1883.32,-81.34 1883.19,-88.34"/>
</g>
<!-- Node13 -->
<g id="node13" class="node">
<title>Node13</title>
<g id="a_node13"><a xlink:href="d__attention_8cpp.html" target="_top" xlink:title=" ">
<polygon fill="white" stroke="#666666" points="1512,-30 1405,-30 1405,-11 1512,-11 1512,-30"/>
<text text-anchor="middle" x="1458.5" y="-18" font-family="Helvetica,sans-Serif" font-size="10.00">src/d/d_attention.cpp</text>
</a>
</g>
</g>
<!-- Node1&#45;&gt;Node13 -->
<g id="edge12" class="edge">
<title>Node1&#45;&gt;Node13</title>
<path fill="none" stroke="#63b8ff" d="M1883.26,-82.5C1796.91,-77.87 1647.33,-66.68 1521.5,-41 1508.71,-38.39 1494.82,-34.24 1483.34,-30.43"/>
<polygon fill="#63b8ff" stroke="#63b8ff" points="1883.08,-85.99 1893.24,-83.02 1883.44,-79 1883.08,-85.99"/>
</g>
<!-- Node14 -->
<g id="node14" class="node">
<title>Node14</title>
<g id="a_node14"><a xlink:href="d__bomb_8cpp.html" target="_top" xlink:title=" ">
<polygon fill="white" stroke="#666666" points="1624.5,-30 1530.5,-30 1530.5,-11 1624.5,-11 1624.5,-30"/>
<text text-anchor="middle" x="1577.5" y="-18" font-family="Helvetica,sans-Serif" font-size="10.00">src/d/d_bomb.cpp</text>
</a>
</g>
</g>
<!-- Node1&#45;&gt;Node14 -->
<g id="edge13" class="edge">
<title>Node1&#45;&gt;Node14</title>
<path fill="none" stroke="#63b8ff" d="M1883.25,-79.69C1817.7,-73.39 1718.12,-61.39 1633.5,-41 1622.19,-38.28 1609.95,-34.16 1599.81,-30.41"/>
<polygon fill="#63b8ff" stroke="#63b8ff" points="1882.89,-83.17 1893.17,-80.62 1883.55,-76.2 1882.89,-83.17"/>
</g>
<!-- Node15 -->
<g id="node15" class="node">
<title>Node15</title>
<g id="a_node15"><a xlink:href="d__gameover_8cpp.html" target="_top" xlink:title=" ">
<polygon fill="white" stroke="#666666" points="1756,-30 1643,-30 1643,-11 1756,-11 1756,-30"/>
<text text-anchor="middle" x="1699.5" y="-18" font-family="Helvetica,sans-Serif" font-size="10.00">src/d/d_gameover.cpp</text>
</a>
</g>
</g>
<!-- Node1&#45;&gt;Node15 -->
<g id="edge14" class="edge">
<title>Node1&#45;&gt;Node15</title>
<path fill="none" stroke="#63b8ff" d="M1901.92,-74.1C1863.66,-65.58 1810.68,-53.32 1764.5,-41 1752.43,-37.78 1739.22,-33.88 1727.87,-30.42"/>
<polygon fill="#63b8ff" stroke="#63b8ff" points="1900.81,-77.43 1911.33,-76.18 1902.32,-70.6 1900.81,-77.43"/>
</g>
<!-- Node16 -->
<g id="node16" class="node">
<title>Node16</title>
<g id="a_node16"><a xlink:href="d__ky__thunder_8cpp.html" target="_top" xlink:title=" ">
<polygon fill="white" stroke="#666666" points="1891,-30 1774,-30 1774,-11 1891,-11 1891,-30"/>
<text text-anchor="middle" x="1832.5" y="-18" font-family="Helvetica,sans-Serif" font-size="10.00">src/d/d_ky_thunder.cpp</text>
</a>
</g>
</g>
<!-- Node1&#45;&gt;Node16 -->
<g id="edge15" class="edge">
<title>Node1&#45;&gt;Node16</title>
<path fill="none" stroke="#63b8ff" d="M1927.36,-71.26C1903.48,-58.74 1869.47,-40.89 1849.32,-30.32"/>
<polygon fill="#63b8ff" stroke="#63b8ff" points="1925.71,-74.35 1936.2,-75.9 1928.97,-68.15 1925.71,-74.35"/>
</g>
<!-- Node17 -->
<g id="node17" class="node">
<title>Node17</title>
<g id="a_node17"><a xlink:href="d__kyeff_8cpp.html" target="_top" xlink:title=" ">
<polygon fill="white" stroke="#666666" points="1999.5,-30 1909.5,-30 1909.5,-11 1999.5,-11 1999.5,-30"/>
<text text-anchor="middle" x="1954.5" y="-18" font-family="Helvetica,sans-Serif" font-size="10.00">src/d/d_kyeff.cpp</text>
</a>
</g>
</g>
<!-- Node1&#45;&gt;Node17 -->
<g id="edge16" class="edge">
<title>Node1&#45;&gt;Node17</title>
<path fill="none" stroke="#63b8ff" d="M1954.5,-65.18C1954.5,-53.44 1954.5,-39.27 1954.5,-30.32"/>
<polygon fill="#63b8ff" stroke="#63b8ff" points="1951,-65.09 1954.5,-75.09 1958,-65.09 1951,-65.09"/>
</g>
<!-- Node18 -->
<g id="node18" class="node">
<title>Node18</title>
<g id="a_node18"><a xlink:href="d__kyeff2_8cpp.html" target="_top" xlink:title=" ">
<polygon fill="white" stroke="#666666" points="2113,-30 2018,-30 2018,-11 2113,-11 2113,-30"/>
<text text-anchor="middle" x="2065.5" y="-18" font-family="Helvetica,sans-Serif" font-size="10.00">src/d/d_kyeff2.cpp</text>
</a>
</g>
</g>
<!-- Node1&#45;&gt;Node18 -->
<g id="edge17" class="edge">
<title>Node1&#45;&gt;Node18</title>
<path fill="none" stroke="#63b8ff" d="M1979.78,-70.92C2001.47,-58.42 2032.03,-40.8 2050.2,-30.32"/>
<polygon fill="#63b8ff" stroke="#63b8ff" points="1978.16,-67.82 1971.25,-75.85 1981.66,-73.88 1978.16,-67.82"/>
</g>
<!-- Node19 -->
<g id="node19" class="node">
<title>Node19</title>
<g id="a_node19"><a xlink:href="d__stage_8cpp.html" target="_top" xlink:title=" ">
<polygon fill="white" stroke="#666666" points="2225.5,-30 2131.5,-30 2131.5,-11 2225.5,-11 2225.5,-30"/>
<text text-anchor="middle" x="2178.5" y="-18" font-family="Helvetica,sans-Serif" font-size="10.00">src/d/d_stage.cpp</text>
</a>
</g>
</g>
<!-- Node1&#45;&gt;Node19 -->
<g id="edge18" class="edge">
<title>Node1&#45;&gt;Node19</title>
<path fill="none" stroke="#63b8ff" d="M2002.38,-73.85C2036.14,-65.38 2082.32,-53.3 2122.5,-41 2132.93,-37.81 2144.33,-33.91 2154.1,-30.45"/>
<polygon fill="#63b8ff" stroke="#63b8ff" points="2001.76,-70.4 1992.9,-76.21 2003.45,-77.19 2001.76,-70.4"/>
</g>
<!-- Node20 -->
<g id="node20" class="node">
<title>Node20</title>
<g id="a_node20"><a xlink:href="d__timer_8cpp.html" target="_top" xlink:title=" ">
<polygon fill="white" stroke="#666666" points="2335.5,-30 2243.5,-30 2243.5,-11 2335.5,-11 2335.5,-30"/>
<text text-anchor="middle" x="2289.5" y="-18" font-family="Helvetica,sans-Serif" font-size="10.00">src/d/d_timer.cpp</text>
</a>
</g>
</g>
<!-- Node1&#45;&gt;Node20 -->
<g id="edge19" class="edge">
<title>Node1&#45;&gt;Node20</title>
<path fill="none" stroke="#63b8ff" d="M2025.83,-77.82C2082.86,-70.81 2164.55,-58.8 2234.5,-41 2245.5,-38.2 2257.4,-34.12 2267.31,-30.41"/>
<polygon fill="#63b8ff" stroke="#63b8ff" points="2025.42,-74.35 2015.91,-79.02 2026.26,-81.29 2025.42,-74.35"/>
</g>
<!-- Node21 -->
<g id="node21" class="node">
<title>Node21</title>
<g id="a_node21"><a xlink:href="d__event_8cpp.html" target="_top" xlink:title=" ">
<polygon fill="white" stroke="#666666" points="2475,-30 2354,-30 2354,-11 2475,-11 2475,-30"/>
<text text-anchor="middle" x="2414.5" y="-18" font-family="Helvetica,sans-Serif" font-size="10.00">src/d/event/d_event.cpp</text>
</a>
</g>
</g>
<!-- Node1&#45;&gt;Node21 -->
<g id="edge20" class="edge">
<title>Node1&#45;&gt;Node21</title>
<path fill="none" stroke="#63b8ff" d="M2025.62,-80.78C2104.2,-74.78 2234.21,-62.51 2344.5,-41 2358.49,-38.27 2373.77,-34.15 2386.47,-30.4"/>
<polygon fill="#63b8ff" stroke="#63b8ff" points="2025.63,-77.27 2015.92,-81.5 2026.16,-84.25 2025.63,-77.27"/>
</g>
<!-- Node22 -->
<g id="node22" class="node">
<title>Node22</title>
<g id="a_node22"><a xlink:href="d__meter2_8cpp.html" target="_top" xlink:title=" ">
<polygon fill="white" stroke="#666666" points="2621.5,-30 2493.5,-30 2493.5,-11 2621.5,-11 2621.5,-30"/>
<text text-anchor="middle" x="2557.5" y="-18" font-family="Helvetica,sans-Serif" font-size="10.00">src/d/meter/d_meter2.cpp</text>
</a>
</g>
</g>
<!-- Node1&#45;&gt;Node22 -->
<g id="edge21" class="edge">
<title>Node1&#45;&gt;Node22</title>
<path fill="none" stroke="#63b8ff" d="M2025.55,-83.53C2127.73,-79.8 2321.8,-69.33 2484.5,-41 2499.23,-38.43 2515.32,-34.29 2528.63,-30.48"/>
<polygon fill="#63b8ff" stroke="#63b8ff" points="2025.54,-80.03 2015.67,-83.88 2025.78,-87.02 2025.54,-80.03"/>
</g>
<!-- Node23 -->
<g id="node23" class="node">
<title>Node23</title>
<g id="a_node23"><a xlink:href="d__s__logo_8cpp.html" target="_top" xlink:title=" ">
<polygon fill="white" stroke="#666666" points="2747,-30 2640,-30 2640,-11 2747,-11 2747,-30"/>
<text text-anchor="middle" x="2693.5" y="-18" font-family="Helvetica,sans-Serif" font-size="10.00">src/d/s/d_s_logo.cpp</text>
</a>
</g>
</g>
<!-- Node1&#45;&gt;Node23 -->
<g id="edge22" class="edge">
<title>Node1&#45;&gt;Node23</title>
<path fill="none" stroke="#63b8ff" d="M2025.5,-86.26C2149.39,-86.39 2412.65,-81.31 2630.5,-41 2643.56,-38.58 2657.72,-34.35 2669.3,-30.45"/>
<polygon fill="#63b8ff" stroke="#63b8ff" points="2025.83,-82.76 2015.82,-86.24 2025.81,-89.76 2025.83,-82.76"/>
</g>
<!-- Node24 -->
<g id="node24" class="node">
<title>Node24</title>
<g id="a_node24"><a xlink:href="d__s__menu_8cpp.html" target="_top" xlink:title=" ">
<polygon fill="white" stroke="#666666" points="2878,-30 2765,-30 2765,-11 2878,-11 2878,-30"/>
<text text-anchor="middle" x="2821.5" y="-18" font-family="Helvetica,sans-Serif" font-size="10.00">src/d/s/d_s_menu.cpp</text>
</a>
</g>
</g>
<!-- Node1&#45;&gt;Node24 -->
<g id="edge23" class="edge">
<title>Node1&#45;&gt;Node24</title>
<path fill="none" stroke="#63b8ff" d="M2025.81,-83.7C2195.06,-79.08 2617.18,-65.41 2756.5,-41 2770.08,-38.62 2784.82,-34.34 2796.83,-30.4"/>
<polygon fill="#63b8ff" stroke="#63b8ff" points="2025.73,-80.2 2015.83,-83.97 2025.92,-87.2 2025.73,-80.2"/>
</g>
<!-- Node25 -->
<g id="node25" class="node">
<title>Node25</title>
<g id="a_node25"><a xlink:href="d__s__name_8cpp.html" target="_top" xlink:title=" ">
<polygon fill="white" stroke="#666666" points="3009,-30 2896,-30 2896,-11 3009,-11 3009,-30"/>
<text text-anchor="middle" x="2952.5" y="-18" font-family="Helvetica,sans-Serif" font-size="10.00">src/d/s/d_s_name.cpp</text>
</a>
</g>
</g>
<!-- Node1&#45;&gt;Node25 -->
<g id="edge24" class="edge">
<title>Node1&#45;&gt;Node25</title>
<path fill="none" stroke="#63b8ff" d="M2025.67,-84.35C2213.96,-80.94 2722.04,-69.33 2887.5,-41 2901.09,-38.67 2915.83,-34.4 2927.84,-30.45"/>
<polygon fill="#63b8ff" stroke="#63b8ff" points="2025.72,-80.85 2015.78,-84.52 2025.84,-87.85 2025.72,-80.85"/>
</g>
<!-- Node26 -->
<g id="node26" class="node">
<title>Node26</title>
<g id="a_node26"><a xlink:href="d__s__play_8cpp.html" target="_top" xlink:title=" ">
<polygon fill="white" stroke="#666666" points="3133.5,-30 3027.5,-30 3027.5,-11 3133.5,-11 3133.5,-30"/>
<text text-anchor="middle" x="3080.5" y="-18" font-family="Helvetica,sans-Serif" font-size="10.00">src/d/s/d_s_play.cpp</text>
</a>
</g>
</g>
<!-- Node1&#45;&gt;Node26 -->
<g id="edge25" class="edge">
<title>Node1&#45;&gt;Node26</title>
<path fill="none" stroke="#63b8ff" d="M2025.52,-84.96C2231.55,-83 2826.92,-74.53 3018.5,-41 3031.5,-38.72 3045.57,-34.46 3057.02,-30.49"/>
<polygon fill="#63b8ff" stroke="#63b8ff" points="2025.74,-81.46 2015.77,-85.05 2025.81,-88.46 2025.74,-81.46"/>
</g>
<!-- Node27 -->
<g id="node27" class="node">
<title>Node27</title>
<g id="a_node27"><a xlink:href="d__s__room_8cpp.html" target="_top" xlink:title=" ">
<polygon fill="white" stroke="#666666" points="3261.5,-30 3151.5,-30 3151.5,-11 3261.5,-11 3261.5,-30"/>
<text text-anchor="middle" x="3206.5" y="-18" font-family="Helvetica,sans-Serif" font-size="10.00">src/d/s/d_s_room.cpp</text>
</a>
</g>
</g>
<!-- Node1&#45;&gt;Node27 -->
<g id="edge26" class="edge">
<title>Node1&#45;&gt;Node27</title>
<path fill="none" stroke="#63b8ff" d="M2025.63,-85.24C2247.64,-84.05 2925.79,-77.44 3142.5,-41 3156.02,-38.73 3170.67,-34.41 3182.54,-30.41"/>
<polygon fill="#63b8ff" stroke="#63b8ff" points="2025.66,-81.74 2015.67,-85.29 2025.69,-88.74 2025.66,-81.74"/>
</g>
<!-- Node28 -->
<g id="node28" class="node">
<title>Node28</title>
<g id="a_node28"><a xlink:href="d__s__title_8cpp.html" target="_top" xlink:title=" ">
<polygon fill="white" stroke="#666666" points="3383.5,-30 3279.5,-30 3279.5,-11 3383.5,-11 3383.5,-30"/>
<text text-anchor="middle" x="3331.5" y="-18" font-family="Helvetica,sans-Serif" font-size="10.00">src/d/s/d_s_title.cpp</text>
</a>
</g>
</g>
<!-- Node1&#45;&gt;Node28 -->
<g id="edge27" class="edge">
<title>Node1&#45;&gt;Node28</title>
<path fill="none" stroke="#63b8ff" d="M2025.57,-85.67C2263.12,-85.84 3028.11,-83.01 3270.5,-41 3283.43,-38.76 3297.4,-34.44 3308.7,-30.44"/>
<polygon fill="#63b8ff" stroke="#63b8ff" points="2025.85,-82.17 2015.85,-85.66 2025.84,-89.17 2025.85,-82.17"/>
</g>
<!-- Node29 -->
<g id="node29" class="node">
<title>Node29</title>
<g id="a_node29"><a xlink:href="d__shop__system_8cpp.html" target="_top" xlink:title=" ">
<polygon fill="white" stroke="#666666" points="3553.5,-30 3401.5,-30 3401.5,-11 3553.5,-11 3553.5,-30"/>
<text text-anchor="middle" x="3477.5" y="-18" font-family="Helvetica,sans-Serif" font-size="10.00">src/d/shop/d_shop_system.cpp</text>
</a>
</g>
</g>
<!-- Node1&#45;&gt;Node29 -->
<g id="edge28" class="edge">
<title>Node1&#45;&gt;Node29</title>
<path fill="none" stroke="#63b8ff" d="M2025.6,-85.13C2277.07,-83.54 3123.67,-75.66 3392.5,-41 3410.22,-38.72 3429.66,-34.39 3445.48,-30.4"/>
<polygon fill="#63b8ff" stroke="#63b8ff" points="2025.93,-81.63 2015.95,-85.19 2025.97,-88.63 2025.93,-81.63"/>
</g>
<!-- Node30 -->
<g id="node30" class="node">
<title>Node30</title>
<g id="a_node30"><a xlink:href="f__op__actor__mng_8cpp.html" target="_top" xlink:title=" ">
<polygon fill="white" stroke="#666666" points="3673,-35.5 3572,-35.5 3572,-5.5 3673,-5.5 3673,-35.5"/>
<text text-anchor="start" x="3580" y="-23.5" font-family="Helvetica,sans-Serif" font-size="10.00">src/f_op/f_op_actor</text>
<text text-anchor="middle" x="3622.5" y="-12.5" font-family="Helvetica,sans-Serif" font-size="10.00">_mng.cpp</text>
</a>
</g>
</g>
<!-- Node1&#45;&gt;Node30 -->
<g id="edge29" class="edge">
<title>Node1&#45;&gt;Node30</title>
<path fill="none" stroke="#63b8ff" d="M2025.29,-84.73C2316.01,-81.43 3409.99,-67.33 3562.5,-41 3569.41,-39.81 3576.61,-37.99 3583.53,-35.94"/>
<polygon fill="#63b8ff" stroke="#63b8ff" points="2025.55,-81.23 2015.59,-84.84 2025.63,-88.23 2025.55,-81.23"/>
</g>
<!-- Node31 -->
<g id="node31" class="node">
<title>Node31</title>
<g id="a_node31"><a xlink:href="f__op__kankyo_8cpp.html" target="_top" xlink:title=" ">
<polygon fill="white" stroke="#666666" points="3819.5,-30 3691.5,-30 3691.5,-11 3819.5,-11 3819.5,-30"/>
<text text-anchor="middle" x="3755.5" y="-18" font-family="Helvetica,sans-Serif" font-size="10.00">src/f_op/f_op_kankyo.cpp</text>
</a>
</g>
</g>
<!-- Node1&#45;&gt;Node31 -->
<g id="edge30" class="edge">
<title>Node1&#45;&gt;Node31</title>
<path fill="none" stroke="#63b8ff" d="M2025.82,-85.9C2309.06,-87.13 3354.94,-88.29 3682.5,-41 3697.82,-38.79 3714.53,-34.47 3728.09,-30.46"/>
<polygon fill="#63b8ff" stroke="#63b8ff" points="2026.01,-82.4 2016,-85.85 2025.98,-89.4 2026.01,-82.4"/>
</g>
<!-- Node32 -->
<g id="node32" class="node">
<title>Node32</title>
<g id="a_node32"><a xlink:href="f__op__kankyo__mng_8cpp.html" target="_top" xlink:title=" ">
<polygon fill="white" stroke="#666666" points="3947.5,-35.5 3837.5,-35.5 3837.5,-5.5 3947.5,-5.5 3947.5,-35.5"/>
<text text-anchor="start" x="3845.5" y="-23.5" font-family="Helvetica,sans-Serif" font-size="10.00">src/f_op/f_op_kankyo</text>
<text text-anchor="middle" x="3892.5" y="-12.5" font-family="Helvetica,sans-Serif" font-size="10.00">_mng.cpp</text>
</a>
</g>
</g>
<!-- Node1&#45;&gt;Node32 -->
<g id="edge31" class="edge">
<title>Node1&#45;&gt;Node32</title>
<path fill="none" stroke="#63b8ff" d="M2025.6,-84.95C2346.08,-82.34 3648.39,-70.02 3828.5,-41 3835.84,-39.82 3843.51,-38.01 3850.88,-35.96"/>
<polygon fill="#63b8ff" stroke="#63b8ff" points="2025.66,-81.45 2015.69,-85.03 2025.72,-88.45 2025.66,-81.45"/>
</g>
</g>
</svg>
        <g id="navigator" transform="translate(0 0)" fill="#404254">
                <rect fill="#f2f5e9" fill-opacity="0.5" stroke="#606060" stroke-width=".5" x="0" y="0" width="60" height="60"/>
                <use id="zoomplus" xlink:href="#zoomPlus" x="17" y="9" onmousedown="handleZoom(evt,'in')"/>
                <use id="zoomminus" xlink:href="#zoomMin" x="42" y="9" onmousedown="handleZoom(evt,'out')"/>
                <use id="reset" xlink:href="#resetDef" x="30" y="36" onmousedown="handleReset()"/>
                <g id="arrowUp" xlink:href="#dirArrow" transform="translate(30 24)" onmousedown="handlePan(0,-1)">
                  <use xlink:href="#rim" fill="#404040">
                        <set attributeName="fill" to="#808080" begin="arrowUp.mouseover" end="arrowUp.mouseout"/>
                  </use>
                  <path fill="none" stroke="white" stroke-width="1.5" d="M0,-3.0v7 M-2.5,-0.5L0,-3.0L2.5,-0.5"/>
                </g>
                <g id="arrowRight" xlink:href="#dirArrow" transform="rotate(90) translate(36 -43)" onmousedown="handlePan(1,0)">
                  <use xlink:href="#rim" fill="#404040">
                        <set attributeName="fill" to="#808080" begin="arrowRight.mouseover" end="arrowRight.mouseout"/>
                  </use>
                  <path fill="none" stroke="white" stroke-width="1.5" d="M0,-3.0v7 M-2.5,-0.5L0,-3.0L2.5,-0.5"/>
                </g>
                <g id="arrowDown" xlink:href="#dirArrow" transform="rotate(180) translate(-30 -48)" onmousedown="handlePan(0,1)">
                  <use xlink:href="#rim" fill="#404040">
                        <set attributeName="fill" to="#808080" begin="arrowDown.mouseover" end="arrowDown.mouseout"/>
                  </use>
                  <path fill="none" stroke="white" stroke-width="1.5" d="M0,-3.0v7 M-2.5,-0.5L0,-3.0L2.5,-0.5"/>
                </g>
                <g id="arrowLeft" xlink:href="#dirArrow" transform="rotate(270) translate(-36 17)" onmousedown="handlePan(-1,0)">
                  <use xlink:href="#rim" fill="#404040">
                        <set attributeName="fill" to="#808080" begin="arrowLeft.mouseover" end="arrowLeft.mouseout"/>
                  </use>
                  <path fill="none" stroke="white" stroke-width="1.5" d="M0,-3.0v7 M-2.5,-0.5L0,-3.0L2.5,-0.5"/>
                </g>
        </g>
        <svg viewBox="0 0 15 15" width="100%" height="30px" preserveAspectRatio="xMaxYMin meet">
         <g id="arrow_out" transform="scale(0.3 0.3)">
          <a xlink:href="d__procname_8h__dep__incl_org.svg" target="_base">
           <rect id="button" ry="5" rx="5" y="6" x="6" height="38" width="38"
                fill="#f2f5e9" fill-opacity="0.5" stroke="#606060" stroke-width="1.0"/>
           <path id="arrow"
             d="M 11.500037,31.436501 C 11.940474,20.09759 22.043105,11.32322 32.158766,21.979434 L 37.068811,17.246167 C 37.068811,17.246167 37.088388,32 37.088388,32 L 22.160133,31.978069 C 22.160133,31.978069 26.997745,27.140456 26.997745,27.140456 C 18.528582,18.264221 13.291696,25.230495 11.500037,31.436501 z"
             style="fill:#404040;"/>
          </a>
         </g>
        </svg>
</svg>
