<?xml version="1.0" encoding="UTF-8" standalone="no"?>
<!DOCTYPE svg PUBLIC "-//W3C//DTD SVG 1.1//EN"
 "http://www.w3.org/Graphics/SVG/1.1/DTD/svg11.dtd">
<!-- Generated by graphviz version 7.0.5 (20221223.1930)
 -->
<!-- Title: include/d/save Pages: 1 -->
<svg width="246pt" height="117pt"
 viewBox="0.00 0.00 246.00 117.00" xmlns="http://www.w3.org/2000/svg" xmlns:xlink="http://www.w3.org/1999/xlink">
<g id="graph0" class="graph" transform="scale(1 1) rotate(0) translate(4 113)">
<title>include/d/save</title>
<g id="clust1" class="cluster">
<title>clusterdir_cc3ad1aed4be3f446fdd7af78322f5bf</title>
<g id="a_clust1"><a xlink:href="dir_cc3ad1aed4be3f446fdd7af78322f5bf.html" target="_top" xlink:title="d">
<polygon fill="#edf0f7" stroke="#7f7f7f" stroke-dasharray="5,2" points="90,-47 90,-101 144,-101 144,-47 90,-47"/>
<text text-anchor="middle" x="117" y="-89" font-family="Helvetica,sans-Serif" font-size="10.00">d</text>
</a>
</g>
</g>
<!-- dir_f5c20fa067f9c0ab7f2aa79dd79c023a -->
<g id="node1" class="node">
<title>dir_f5c20fa067f9c0ab7f2aa79dd79c023a</title>
<g id="a_node1"><a xlink:href="dir_f5c20fa067f9c0ab7f2aa79dd79c023a.html" target="_top" xlink:title="save">
<polygon fill="#edf0f7" stroke="#404040" stroke-width="2" points="136,-74 98,-74 98,-55 136,-55 136,-74"/>
<text text-anchor="middle" x="117" y="-62" font-family="Helvetica,sans-Serif" font-size="10.00">save</text>
</a>
</g>
</g>
<!-- dir_54283da8a0cf1311a88c964d76512876 -->
<g id="node2" class="node">
<title>dir_54283da8a0cf1311a88c964d76512876</title>
<g id="a_node2"><a xlink:href="dir_54283da8a0cf1311a88c964d76512876.html" target="_top" xlink:title="SSystem">
<polygon fill="#edf0f7" stroke="red" stroke-dasharray="5,2" points="56,-19 0,-19 0,0 56,0 56,-19"/>
<text text-anchor="middle" x="28" y="-7" font-family="Helvetica,sans-Serif" font-size="10.00">SSystem</text>
</a>
</g>
</g>
<!-- dir_f5c20fa067f9c0ab7f2aa79dd79c023a&#45;&gt;dir_54283da8a0cf1311a88c964d76512876 -->
<g id="edge1" class="edge">
<title>dir_f5c20fa067f9c0ab7f2aa79dd79c023a&#45;&gt;dir_54283da8a0cf1311a88c964d76512876</title>
<path fill="none" stroke="#63b8ff" d="M101.9,-54.51C88.4,-46.47 68.35,-34.53 52.54,-25.11"/>
<polygon fill="#63b8ff" stroke="#63b8ff" points="54.56,-22.24 44.18,-20.13 50.98,-28.26 54.56,-22.24"/>
<g id="a_edge1&#45;headlabel"><a xlink:href="dir_001705_001726.html" target="_top" xlink:title="1">
<text text-anchor="middle" x="57.8" y="-18.37" font-family="Helvetica,sans-Serif" font-size="10.00" fill="#63b8ff">1</text>
</a>
</g>
</g>
<!-- dir_68267d1309a1af8e8297ef4c3efbcdba -->
<g id="node3" class="node">
<title>dir_68267d1309a1af8e8297ef4c3efbcdba</title>
<g id="a_node3"><a xlink:href="dir_68267d1309a1af8e8297ef4c3efbcdba.html" target="_top" xlink:title="src">
<polygon fill="#edf0f7" stroke="red" points="104,-19 74,-19 74,0 104,0 104,-19"/>
<text text-anchor="middle" x="89" y="-7" font-family="Helvetica,sans-Serif" font-size="10.00">src</text>
</a>
</g>
</g>
<!-- dir_f5c20fa067f9c0ab7f2aa79dd79c023a&#45;&gt;dir_68267d1309a1af8e8297ef4c3efbcdba -->
<g id="edge2" class="edge">
<title>dir_f5c20fa067f9c0ab7f2aa79dd79c023a&#45;&gt;dir_68267d1309a1af8e8297ef4c3efbcdba</title>
<path fill="none" stroke="#63b8ff" d="M112.38,-54.75C108.75,-47.88 103.57,-38.08 99.01,-29.45"/>
<polygon fill="#63b8ff" stroke="#63b8ff" points="102.2,-27.99 94.43,-20.78 96.01,-31.26 102.2,-27.99"/>
<g id="a_edge2&#45;headlabel"><a xlink:href="dir_001705_001723.html" target="_top" xlink:title="2">
<text text-anchor="middle" x="105.68" y="-26" font-family="Helvetica,sans-Serif" font-size="10.00" fill="#63b8ff">2</text>
</a>
</g>
</g>
<!-- dir_b778c3f297ab88300258a2935792c8cc -->
<g id="node4" class="node">
<title>dir_b778c3f297ab88300258a2935792c8cc</title>
<g id="a_node4"><a xlink:href="dir_b778c3f297ab88300258a2935792c8cc.html" target="_top" xlink:title="dolphin">
<polygon fill="#edf0f7" stroke="red" stroke-dasharray="5,2" points="169.5,-19 122.5,-19 122.5,0 169.5,0 169.5,-19"/>
<text text-anchor="middle" x="146" y="-7" font-family="Helvetica,sans-Serif" font-size="10.00">dolphin</text>
</a>
</g>
</g>
<!-- dir_f5c20fa067f9c0ab7f2aa79dd79c023a&#45;&gt;dir_b778c3f297ab88300258a2935792c8cc -->
<g id="edge3" class="edge">
<title>dir_f5c20fa067f9c0ab7f2aa79dd79c023a&#45;&gt;dir_b778c3f297ab88300258a2935792c8cc</title>
<path fill="none" stroke="#63b8ff" d="M121.79,-54.75C125.54,-47.88 130.91,-38.08 135.63,-29.45"/>
<polygon fill="#63b8ff" stroke="#63b8ff" points="138.65,-31.22 140.38,-20.77 132.51,-27.86 138.65,-31.22"/>
<g id="a_edge3&#45;headlabel"><a xlink:href="dir_001705_000786.html" target="_top" xlink:title="3">
<text text-anchor="middle" x="140.14" y="-31.91" font-family="Helvetica,sans-Serif" font-size="10.00" fill="#63b8ff">3</text>
</a>
</g>
</g>
<!-- dir_e464f436794397718a79e116ac090ffa -->
<g id="node5" class="node">
<title>dir_e464f436794397718a79e116ac090ffa</title>
<g id="a_node5"><a xlink:href="dir_e464f436794397718a79e116ac090ffa.html" target="_top" xlink:title="MSL_C">
<polygon fill="#edf0f7" stroke="red" stroke-dasharray="5,2" points="238,-19 188,-19 188,0 238,0 238,-19"/>
<text text-anchor="middle" x="213" y="-7" font-family="Helvetica,sans-Serif" font-size="10.00">MSL_C</text>
</a>
</g>
</g>
<!-- dir_f5c20fa067f9c0ab7f2aa79dd79c023a&#45;&gt;dir_e464f436794397718a79e116ac090ffa -->
<g id="edge4" class="edge">
<title>dir_f5c20fa067f9c0ab7f2aa79dd79c023a&#45;&gt;dir_e464f436794397718a79e116ac090ffa</title>
<path fill="none" stroke="#63b8ff" d="M133.29,-54.51C147.99,-46.39 169.89,-34.3 187.02,-24.85"/>
<polygon fill="#63b8ff" stroke="#63b8ff" points="188.57,-27.99 195.63,-20.09 185.18,-21.86 188.57,-27.99"/>
<g id="a_edge4&#45;headlabel"><a xlink:href="dir_001705_001281.html" target="_top" xlink:title="2">
<text text-anchor="middle" x="188.12" y="-28.98" font-family="Helvetica,sans-Serif" font-size="10.00" fill="#63b8ff">2</text>
</a>
</g>
</g>
</g>
</svg>
