<?xml version="1.0" encoding="UTF-8" standalone="no"?>
<!DOCTYPE svg PUBLIC "-//W3C//DTD SVG 1.1//EN"
 "http://www.w3.org/Graphics/SVG/1.1/DTD/svg11.dtd">
<!-- Generated by graphviz version 7.0.5 (20221223.1930)
 -->
<!-- Title: include/f_op/f_op_scene_pause.h Pages: 1 -->
<svg width="5322pt" height="302pt"
 viewBox="0.00 0.00 5322.35 302.00" xmlns="http://www.w3.org/2000/svg" xmlns:xlink="http://www.w3.org/1999/xlink">
<g id="graph0" class="graph" transform="scale(1 1) rotate(0) translate(4 298)">
<title>include/f_op/f_op_scene_pause.h</title>
<!-- Node1 -->
<g id="node1" class="node">
<title>Node1</title>
<g id="a_node1"><a xlink:title=" ">
<polygon fill="#999999" stroke="#666666" points="5129.85,-294 5007.85,-294 5007.85,-264 5129.85,-264 5129.85,-294"/>
<text text-anchor="start" x="5015.85" y="-282" font-family="Helvetica,sans-Serif" font-size="10.00">include/f_op/f_op_scene</text>
<text text-anchor="middle" x="5068.85" y="-271" font-family="Helvetica,sans-Serif" font-size="10.00">_pause.h</text>
</a>
</g>
</g>
<!-- Node2 -->
<g id="node2" class="node">
<title>Node2</title>
<g id="a_node2"><a xlink:href="f__op__scene__mng_8h.html" target="_top" xlink:title=" ">
<polygon fill="white" stroke="#666666" points="3801.85,-228 3679.85,-228 3679.85,-198 3801.85,-198 3801.85,-228"/>
<text text-anchor="start" x="3687.85" y="-216" font-family="Helvetica,sans-Serif" font-size="10.00">include/f_op/f_op_scene</text>
<text text-anchor="middle" x="3740.85" y="-205" font-family="Helvetica,sans-Serif" font-size="10.00">_mng.h</text>
</a>
</g>
</g>
<!-- Node1&#45;&gt;Node2 -->
<g id="edge1" class="edge">
<title>Node1&#45;&gt;Node2</title>
<path fill="none" stroke="#63b8ff" d="M4996.3,-274.5C4760.78,-263.15 4020.24,-227.46 3801.97,-216.95"/>
<polygon fill="#63b8ff" stroke="#63b8ff" points="4995.79,-277.98 5005.95,-274.97 4996.13,-270.99 4995.79,-277.98"/>
</g>
<!-- Node149 -->
<g id="node47" class="node">
<title>Node149</title>
<g id="a_node47"><a xlink:href="f__op__scene__req_8h.html" target="_top" xlink:title=" ">
<polygon fill="white" stroke="#666666" points="5062.85,-228 4940.85,-228 4940.85,-198 5062.85,-198 5062.85,-228"/>
<text text-anchor="start" x="4948.85" y="-216" font-family="Helvetica,sans-Serif" font-size="10.00">include/f_op/f_op_scene</text>
<text text-anchor="middle" x="5001.85" y="-205" font-family="Helvetica,sans-Serif" font-size="10.00">_req.h</text>
</a>
</g>
</g>
<!-- Node1&#45;&gt;Node149 -->
<g id="edge54" class="edge">
<title>Node1&#45;&gt;Node149</title>
<path fill="none" stroke="#63b8ff" d="M5045.91,-256.09C5036.24,-246.85 5025.26,-236.36 5016.68,-228.16"/>
<polygon fill="#63b8ff" stroke="#63b8ff" points="5043.24,-258.37 5052.89,-262.75 5048.07,-253.31 5043.24,-258.37"/>
</g>
<!-- Node151 -->
<g id="node49" class="node">
<title>Node151</title>
<g id="a_node49"><a xlink:href="f__op__overlap__mng_8cpp.html" target="_top" xlink:title=" ">
<polygon fill="white" stroke="#666666" points="5190.85,-228 5080.85,-228 5080.85,-198 5190.85,-198 5190.85,-228"/>
<text text-anchor="start" x="5088.85" y="-216" font-family="Helvetica,sans-Serif" font-size="10.00">src/f_op/f_op_overlap</text>
<text text-anchor="middle" x="5135.85" y="-205" font-family="Helvetica,sans-Serif" font-size="10.00">_mng.cpp</text>
</a>
</g>
</g>
<!-- Node1&#45;&gt;Node151 -->
<g id="edge57" class="edge">
<title>Node1&#45;&gt;Node151</title>
<path fill="none" stroke="#63b8ff" d="M5091.79,-256.09C5101.46,-246.85 5112.44,-236.36 5121.02,-228.16"/>
<polygon fill="#63b8ff" stroke="#63b8ff" points="5089.63,-253.31 5084.81,-262.75 5094.46,-258.37 5089.63,-253.31"/>
</g>
<!-- Node152 -->
<g id="node50" class="node">
<title>Node152</title>
<g id="a_node50"><a xlink:href="f__op__scene__pause_8cpp.html" target="_top" xlink:title=" ">
<polygon fill="white" stroke="#666666" points="5314.35,-228 5209.35,-228 5209.35,-198 5314.35,-198 5314.35,-228"/>
<text text-anchor="start" x="5217.35" y="-216" font-family="Helvetica,sans-Serif" font-size="10.00">src/f_op/f_op_scene</text>
<text text-anchor="middle" x="5261.85" y="-205" font-family="Helvetica,sans-Serif" font-size="10.00">_pause.cpp</text>
</a>
</g>
</g>
<!-- Node1&#45;&gt;Node152 -->
<g id="edge58" class="edge">
<title>Node1&#45;&gt;Node152</title>
<path fill="none" stroke="#63b8ff" d="M5122.93,-260.07C5153.07,-250.07 5190.1,-237.79 5218.35,-228.43"/>
<polygon fill="#63b8ff" stroke="#63b8ff" points="5121.99,-256.69 5113.6,-263.16 5124.19,-263.34 5121.99,-256.69"/>
</g>
<!-- Node3 -->
<g id="node3" class="node">
<title>Node3</title>
<g id="a_node3"><a xlink:href="c__dylink_8h.html" target="_top" xlink:title=" ">
<polygon fill="white" stroke="#666666" points="200.35,-156.5 99.35,-156.5 99.35,-137.5 200.35,-137.5 200.35,-156.5"/>
<text text-anchor="middle" x="149.85" y="-144.5" font-family="Helvetica,sans-Serif" font-size="10.00">include/c/c_dylink.h</text>
</a>
</g>
</g>
<!-- Node2&#45;&gt;Node3 -->
<g id="edge2" class="edge">
<title>Node2&#45;&gt;Node3</title>
<path fill="none" stroke="#63b8ff" d="M3668.31,-210.71C3198.86,-202.34 597.2,-155.97 200.56,-148.9"/>
<polygon fill="#63b8ff" stroke="#63b8ff" points="3668.08,-214.2 3678.14,-210.88 3668.2,-207.2 3668.08,-214.2"/>
</g>
<!-- Node7 -->
<g id="node7" class="node">
<title>Node7</title>
<g id="a_node7"><a xlink:href="d__com__inf__game_8h.html" target="_top" xlink:title=" ">
<polygon fill="#fff0f0" stroke="red" points="2738.85,-162 2628.85,-162 2628.85,-132 2738.85,-132 2738.85,-162"/>
<text text-anchor="start" x="2636.85" y="-150" font-family="Helvetica,sans-Serif" font-size="10.00">include/d/com/d_com</text>
<text text-anchor="middle" x="2683.85" y="-139" font-family="Helvetica,sans-Serif" font-size="10.00">_inf_game.h</text>
</a>
</g>
</g>
<!-- Node2&#45;&gt;Node7 -->
<g id="edge6" class="edge">
<title>Node2&#45;&gt;Node7</title>
<path fill="none" stroke="#63b8ff" d="M3668.25,-207.6C3468.95,-195.54 2916.42,-162.08 2739.27,-151.36"/>
<polygon fill="#63b8ff" stroke="#63b8ff" points="3667.75,-211.08 3677.94,-208.19 3668.17,-204.09 3667.75,-211.08"/>
</g>
<!-- Node24 -->
<g id="node11" class="node">
<title>Node24</title>
<g id="a_node11"><a xlink:href="d__s__play_8cpp.html" target="_top" xlink:title=" ">
<polygon fill="white" stroke="#666666" points="4277.85,-19 4171.85,-19 4171.85,0 4277.85,0 4277.85,-19"/>
<text text-anchor="middle" x="4224.85" y="-7" font-family="Helvetica,sans-Serif" font-size="10.00">src/d/s/d_s_play.cpp</text>
</a>
</g>
</g>
<!-- Node2&#45;&gt;Node24 -->
<g id="edge51" class="edge">
<title>Node2&#45;&gt;Node24</title>
<path fill="none" stroke="#63b8ff" d="M3813.78,-210.27C4056.78,-203.74 4827.73,-176.79 4900.85,-96 4913.08,-82.49 4913.3,-68.3 4900.85,-55 4858.62,-9.9 4430.28,-8.86 4278.12,-9.93"/>
<polygon fill="#63b8ff" stroke="#63b8ff" points="3813.69,-206.77 3803.79,-210.53 3813.87,-213.76 3813.69,-206.77"/>
</g>
<!-- Node147 -->
<g id="node45" class="node">
<title>Node147</title>
<g id="a_node45"><a xlink:href="f__ap__game_8cpp.html" target="_top" xlink:title=" ">
<polygon fill="white" stroke="#666666" points="2610.35,-156.5 2489.35,-156.5 2489.35,-137.5 2610.35,-137.5 2610.35,-156.5"/>
<text text-anchor="middle" x="2549.85" y="-144.5" font-family="Helvetica,sans-Serif" font-size="10.00">src/f_ap/f_ap_game.cpp</text>
</a>
</g>
</g>
<!-- Node2&#45;&gt;Node147 -->
<g id="edge52" class="edge">
<title>Node2&#45;&gt;Node147</title>
<path fill="none" stroke="#63b8ff" d="M3668.16,-212.59C3489.2,-213.22 3013.22,-209.82 2619.85,-162 2609.88,-160.79 2599.22,-158.94 2589.29,-156.98"/>
<polygon fill="#63b8ff" stroke="#63b8ff" points="3668.02,-216.09 3678,-212.55 3667.99,-209.09 3668.02,-216.09"/>
</g>
<!-- Node148 -->
<g id="node46" class="node">
<title>Node148</title>
<g id="a_node46"><a xlink:href="f__op__scene__mng_8cpp.html" target="_top" xlink:title=" ">
<polygon fill="white" stroke="#666666" points="5054.35,-162 4949.35,-162 4949.35,-132 5054.35,-132 5054.35,-162"/>
<text text-anchor="start" x="4957.35" y="-150" font-family="Helvetica,sans-Serif" font-size="10.00">src/f_op/f_op_scene</text>
<text text-anchor="middle" x="5001.85" y="-139" font-family="Helvetica,sans-Serif" font-size="10.00">_mng.cpp</text>
</a>
</g>
</g>
<!-- Node2&#45;&gt;Node148 -->
<g id="edge53" class="edge">
<title>Node2&#45;&gt;Node148</title>
<path fill="none" stroke="#63b8ff" d="M3813.44,-210.52C4037.46,-205.72 4716.04,-189.25 4934.85,-162 4939.45,-161.43 4944.2,-160.7 4948.95,-159.89"/>
<polygon fill="#63b8ff" stroke="#63b8ff" points="3813.61,-207.02 3803.68,-210.73 3813.76,-214.02 3813.61,-207.02"/>
</g>
<!-- Node4 -->
<g id="node4" class="node">
<title>Node4</title>
<g id="a_node4"><a xlink:href="c__dylink_8cpp.html" target="_top" xlink:title=" ">
<polygon fill="white" stroke="#666666" points="262.35,-85 167.35,-85 167.35,-66 262.35,-66 262.35,-85"/>
<text text-anchor="middle" x="214.85" y="-73" font-family="Helvetica,sans-Serif" font-size="10.00">src/c/c_dylink.cpp</text>
</a>
</g>
</g>
<!-- Node3&#45;&gt;Node4 -->
<g id="edge3" class="edge">
<title>Node3&#45;&gt;Node4</title>
<path fill="none" stroke="#63b8ff" d="M165.72,-129.03C178.59,-115.27 196.21,-96.43 206.48,-85.45"/>
<polygon fill="#63b8ff" stroke="#63b8ff" points="163.39,-126.4 159.12,-136.09 168.5,-131.18 163.39,-126.4"/>
</g>
<!-- Node5 -->
<g id="node5" class="node">
<title>Node5</title>
<g id="a_node5"><a xlink:href="d__s__logo_8cpp.html" target="_top" xlink:title=" ">
<polygon fill="white" stroke="#666666" points="1784.35,-19 1677.35,-19 1677.35,0 1784.35,0 1784.35,-19"/>
<text text-anchor="middle" x="1730.85" y="-7" font-family="Helvetica,sans-Serif" font-size="10.00">src/d/s/d_s_logo.cpp</text>
</a>
</g>
</g>
<!-- Node3&#45;&gt;Node5 -->
<g id="edge4" class="edge">
<title>Node3&#45;&gt;Node5</title>
<path fill="none" stroke="#63b8ff" d="M88.08,-140.24C59.02,-134.07 26.85,-121.49 8.85,-96 -1.66,-81.12 -3.87,-68.05 8.85,-55 38.67,-24.4 1388.64,-12.96 1677.01,-10.87"/>
<polygon fill="#63b8ff" stroke="#63b8ff" points="87.07,-143.61 97.55,-142.02 88.37,-136.73 87.07,-143.61"/>
</g>
<!-- Node6 -->
<g id="node6" class="node">
<title>Node6</title>
<g id="a_node6"><a xlink:href="m__Do__main_8cpp.html" target="_top" xlink:title=" ">
<polygon fill="white" stroke="#666666" points="149.35,-85 18.35,-85 18.35,-66 149.35,-66 149.35,-85"/>
<text text-anchor="middle" x="83.85" y="-73" font-family="Helvetica,sans-Serif" font-size="10.00">src/m_Do/m_Do_main.cpp</text>
</a>
</g>
</g>
<!-- Node3&#45;&gt;Node6 -->
<g id="edge5" class="edge">
<title>Node3&#45;&gt;Node6</title>
<path fill="none" stroke="#63b8ff" d="M133.73,-129.03C120.67,-115.27 102.77,-96.43 92.35,-85.45"/>
<polygon fill="#63b8ff" stroke="#63b8ff" points="131.02,-131.26 140.45,-136.1 136.1,-126.44 131.02,-131.26"/>
</g>
<!-- Node7&#45;&gt;Node4 -->
<g id="edge49" class="edge">
<title>Node7&#45;&gt;Node4</title>
<path fill="none" stroke="#63b8ff" d="M2617.21,-132.15C2311.72,-103.4 525.4,-140.17 271.85,-96 259.59,-93.86 246.41,-89.5 235.82,-85.44"/>
<polygon fill="#63b8ff" stroke="#63b8ff" points="2616.84,-135.63 2627.15,-133.18 2617.56,-128.67 2616.84,-135.63"/>
</g>
<!-- Node7&#45;&gt;Node6 -->
<g id="edge50" class="edge">
<title>Node7&#45;&gt;Node6</title>
<path fill="none" stroke="#63b8ff" d="M2617.61,-132.11C2057.31,-71.43 696.16,-169.74 157.85,-96 142.19,-93.85 125.09,-89.49 111.29,-85.43"/>
<polygon fill="#63b8ff" stroke="#63b8ff" points="2616.82,-135.54 2627.15,-133.17 2617.6,-128.58 2616.82,-135.54"/>
</g>
<!-- Node8 -->
<g id="node8" class="node">
<title>Node8</title>
<g id="a_node8"><a xlink:href="d__a__npc_8h.html" target="_top" xlink:title=" ">
<polygon fill="#fff0f0" stroke="red" points="3612.35,-19 3501.35,-19 3501.35,0 3612.35,0 3612.35,-19"/>
<text text-anchor="middle" x="3556.85" y="-7" font-family="Helvetica,sans-Serif" font-size="10.00">include/d/a/d_a_npc.h</text>
</a>
</g>
</g>
<!-- Node7&#45;&gt;Node8 -->
<g id="edge7" class="edge">
<title>Node7&#45;&gt;Node8</title>
<path fill="none" stroke="#63b8ff" d="M2750.62,-145.16C2933.2,-142.42 3431.46,-131.71 3495.85,-96 3511.88,-87.11 3540.34,-39.47 3551.83,-19.41"/>
<polygon fill="#63b8ff" stroke="#63b8ff" points="2750.78,-141.66 2740.83,-145.31 2750.88,-148.66 2750.78,-141.66"/>
</g>
<!-- Node14 -->
<g id="node9" class="node">
<title>Node14</title>
<g id="a_node9"><a xlink:href="d__cc__uty_8h.html" target="_top" xlink:title=" ">
<polygon fill="#fff0f0" stroke="red" points="3912.35,-85 3793.35,-85 3793.35,-66 3912.35,-66 3912.35,-85"/>
<text text-anchor="middle" x="3852.85" y="-73" font-family="Helvetica,sans-Serif" font-size="10.00">include/d/cc/d_cc_uty.h</text>
</a>
</g>
</g>
<!-- Node7&#45;&gt;Node14 -->
<g id="edge8" class="edge">
<title>Node7&#45;&gt;Node14</title>
<path fill="none" stroke="#63b8ff" d="M2750.3,-144.98C2956.43,-141.51 3583.12,-128.48 3783.85,-96 3798.23,-93.67 3813.88,-89.4 3826.63,-85.45"/>
<polygon fill="#63b8ff" stroke="#63b8ff" points="2750.52,-141.48 2740.58,-145.14 2750.64,-148.48 2750.52,-141.48"/>
</g>
<!-- Node20 -->
<g id="node10" class="node">
<title>Node20</title>
<g id="a_node10"><a xlink:href="d__item_8h.html" target="_top" xlink:title=" ">
<polygon fill="#fff0f0" stroke="red" points="4394.35,-85 4299.35,-85 4299.35,-66 4394.35,-66 4394.35,-85"/>
<text text-anchor="middle" x="4346.85" y="-73" font-family="Helvetica,sans-Serif" font-size="10.00">include/d/d_item.h</text>
</a>
</g>
</g>
<!-- Node7&#45;&gt;Node20 -->
<g id="edge9" class="edge">
<title>Node7&#45;&gt;Node20</title>
<path fill="none" stroke="#63b8ff" d="M2750.69,-145.09C3035.1,-141.08 4137.09,-123.86 4289.85,-96 4301.99,-93.79 4315.05,-89.47 4325.6,-85.46"/>
<polygon fill="#63b8ff" stroke="#63b8ff" points="2750.8,-141.59 2740.85,-145.23 2750.9,-148.59 2750.8,-141.59"/>
</g>
<!-- Node25 -->
<g id="node12" class="node">
<title>Node25</title>
<g id="a_node12"><a xlink:href="d__kantera__icon__meter_8h.html" target="_top" xlink:title=" ">
<polygon fill="#fff0f0" stroke="red" points="4031.35,-90.5 3930.35,-90.5 3930.35,-60.5 4031.35,-60.5 4031.35,-90.5"/>
<text text-anchor="start" x="3938.35" y="-78.5" font-family="Helvetica,sans-Serif" font-size="10.00">include/d/d_kantera</text>
<text text-anchor="middle" x="3980.85" y="-67.5" font-family="Helvetica,sans-Serif" font-size="10.00">_icon_meter.h</text>
</a>
</g>
</g>
<!-- Node7&#45;&gt;Node25 -->
<g id="edge11" class="edge">
<title>Node7&#45;&gt;Node25</title>
<path fill="none" stroke="#63b8ff" d="M2750.52,-145.7C2973.67,-144.34 3693.13,-136.81 3920.85,-96 3927.64,-94.78 3934.72,-92.98 3941.54,-90.96"/>
<polygon fill="#63b8ff" stroke="#63b8ff" points="2750.52,-142.2 2740.54,-145.76 2750.56,-149.2 2750.52,-142.2"/>
</g>
<!-- Node28 -->
<g id="node13" class="node">
<title>Node28</title>
<g id="a_node13"><a xlink:href="d__model_8h.html" target="_top" xlink:title=" ">
<polygon fill="#fff0f0" stroke="red" points="3775.35,-85 3672.35,-85 3672.35,-66 3775.35,-66 3775.35,-85"/>
<text text-anchor="middle" x="3723.85" y="-73" font-family="Helvetica,sans-Serif" font-size="10.00">include/d/d_model.h</text>
</a>
</g>
</g>
<!-- Node7&#45;&gt;Node28 -->
<g id="edge12" class="edge">
<title>Node7&#45;&gt;Node28</title>
<path fill="none" stroke="#63b8ff" d="M2750.4,-144.84C2941.09,-141.15 3487.08,-128.02 3662.85,-96 3675.65,-93.67 3689.49,-89.39 3700.75,-85.44"/>
<polygon fill="#63b8ff" stroke="#63b8ff" points="2750.61,-141.33 2740.67,-145.02 2750.74,-148.33 2750.61,-141.33"/>
</g>
<!-- Node30 -->
<g id="node14" class="node">
<title>Node30</title>
<g id="a_node14"><a xlink:href="d__name_8h.html" target="_top" xlink:title=" ">
<polygon fill="#fff0f0" stroke="red" points="4150.35,-85 4049.35,-85 4049.35,-66 4150.35,-66 4150.35,-85"/>
<text text-anchor="middle" x="4099.85" y="-73" font-family="Helvetica,sans-Serif" font-size="10.00">include/d/d_name.h</text>
</a>
</g>
</g>
<!-- Node7&#45;&gt;Node30 -->
<g id="edge14" class="edge">
<title>Node7&#45;&gt;Node30</title>
<path fill="none" stroke="#63b8ff" d="M2750.52,-145.98C2987.43,-145.54 3787.95,-140.68 4039.85,-96 4052.58,-93.74 4066.32,-89.42 4077.43,-85.42"/>
<polygon fill="#63b8ff" stroke="#63b8ff" points="2750.84,-142.48 2740.85,-146 2750.86,-149.48 2750.84,-142.48"/>
</g>
<!-- Node32 -->
<g id="node15" class="node">
<title>Node32</title>
<g id="a_node15"><a xlink:href="d__file__sel__info_8h.html" target="_top" xlink:title=" ">
<polygon fill="#fff0f0" stroke="red" points="4508.85,-90.5 4412.85,-90.5 4412.85,-60.5 4508.85,-60.5 4508.85,-90.5"/>
<text text-anchor="start" x="4420.85" y="-78.5" font-family="Helvetica,sans-Serif" font-size="10.00">include/d/file/d_file</text>
<text text-anchor="middle" x="4460.85" y="-67.5" font-family="Helvetica,sans-Serif" font-size="10.00">_sel_info.h</text>
</a>
</g>
</g>
<!-- Node7&#45;&gt;Node32 -->
<g id="edge15" class="edge">
<title>Node7&#45;&gt;Node32</title>
<path fill="none" stroke="#63b8ff" d="M2750.46,-145.22C3046.83,-141.61 4238.34,-125.38 4402.85,-96 4409.54,-94.8 4416.51,-92.99 4423.21,-90.94"/>
<polygon fill="#63b8ff" stroke="#63b8ff" points="2750.53,-141.72 2740.58,-145.34 2750.62,-148.72 2750.53,-141.72"/>
</g>
<!-- Node35 -->
<g id="node16" class="node">
<title>Node35</title>
<g id="a_node16"><a xlink:href="d__file__sel__warning_8h.html" target="_top" xlink:title=" ">
<polygon fill="#fff0f0" stroke="red" points="4622.85,-90.5 4526.85,-90.5 4526.85,-60.5 4622.85,-60.5 4622.85,-90.5"/>
<text text-anchor="start" x="4534.85" y="-78.5" font-family="Helvetica,sans-Serif" font-size="10.00">include/d/file/d_file</text>
<text text-anchor="middle" x="4574.85" y="-67.5" font-family="Helvetica,sans-Serif" font-size="10.00">_sel_warning.h</text>
</a>
</g>
</g>
<!-- Node7&#45;&gt;Node35 -->
<g id="edge16" class="edge">
<title>Node7&#45;&gt;Node35</title>
<path fill="none" stroke="#63b8ff" d="M2750.33,-145.38C3058.63,-142.32 4341.54,-127.8 4517.85,-96 4524.44,-94.81 4531.29,-93 4537.87,-90.95"/>
<polygon fill="#63b8ff" stroke="#63b8ff" points="2750.41,-141.88 2740.44,-145.47 2750.48,-148.87 2750.41,-141.88"/>
</g>
<!-- Node37 -->
<g id="node17" class="node">
<title>Node37</title>
<g id="a_node17"><a xlink:href="d__meter2_8h.html" target="_top" xlink:title=" ">
<polygon fill="#fff0f0" stroke="red" points="4774.85,-85 4640.85,-85 4640.85,-66 4774.85,-66 4774.85,-85"/>
<text text-anchor="middle" x="4707.85" y="-73" font-family="Helvetica,sans-Serif" font-size="10.00">include/d/meter/d_meter2.h</text>
</a>
</g>
</g>
<!-- Node7&#45;&gt;Node37 -->
<g id="edge17" class="edge">
<title>Node7&#45;&gt;Node37</title>
<path fill="none" stroke="#63b8ff" d="M2750.42,-146.3C3047.85,-147.35 4256.76,-148.25 4631.85,-96 4647.77,-93.78 4665.16,-89.47 4679.28,-85.46"/>
<polygon fill="#63b8ff" stroke="#63b8ff" points="2750.52,-142.8 2740.51,-146.27 2750.5,-149.8 2750.52,-142.8"/>
</g>
<!-- Node45 -->
<g id="node18" class="node">
<title>Node45</title>
<g id="a_node18"><a xlink:href="d__msg__object_8h.html" target="_top" xlink:title=" ">
<polygon fill="#fff0f0" stroke="red" points="3653.85,-90.5 3543.85,-90.5 3543.85,-60.5 3653.85,-60.5 3653.85,-90.5"/>
<text text-anchor="start" x="3551.85" y="-78.5" font-family="Helvetica,sans-Serif" font-size="10.00">include/d/msg/d_msg</text>
<text text-anchor="middle" x="3598.85" y="-67.5" font-family="Helvetica,sans-Serif" font-size="10.00">_object.h</text>
</a>
</g>
</g>
<!-- Node7&#45;&gt;Node45 -->
<g id="edge18" class="edge">
<title>Node7&#45;&gt;Node45</title>
<path fill="none" stroke="#63b8ff" d="M2750.61,-143.92C2923.06,-138.25 3380.32,-121.24 3529.85,-96 3537.46,-94.72 3545.43,-92.91 3553.14,-90.91"/>
<polygon fill="#63b8ff" stroke="#63b8ff" points="2750.58,-140.42 2740.69,-144.24 2750.8,-147.42 2750.58,-140.42"/>
</g>
<!-- Node61 -->
<g id="node19" class="node">
<title>Node61</title>
<g id="a_node19"><a xlink:href="d__s__logo_8h.html" target="_top" xlink:title=" ">
<polygon fill="white" stroke="#666666" points="3487.35,-85 3374.35,-85 3374.35,-66 3487.35,-66 3487.35,-85"/>
<text text-anchor="middle" x="3430.85" y="-73" font-family="Helvetica,sans-Serif" font-size="10.00">include/d/s/d_s_logo.h</text>
</a>
</g>
</g>
<!-- Node7&#45;&gt;Node61 -->
<g id="edge21" class="edge">
<title>Node7&#45;&gt;Node61</title>
<path fill="none" stroke="#63b8ff" d="M2750.48,-145.82C2873.09,-144.44 3142.28,-136.57 3364.85,-96 3378.37,-93.54 3393.06,-89.35 3405.14,-85.49"/>
<polygon fill="#63b8ff" stroke="#63b8ff" points="2750.56,-142.31 2740.59,-145.91 2750.63,-149.31 2750.56,-142.31"/>
</g>
<!-- Node62 -->
<g id="node20" class="node">
<title>Node62</title>
<g id="a_node20"><a xlink:href="d__s__play_8h.html" target="_top" xlink:title=" ">
<polygon fill="#fff0f0" stroke="red" points="4281.35,-85 4168.35,-85 4168.35,-66 4281.35,-66 4281.35,-85"/>
<text text-anchor="middle" x="4224.85" y="-73" font-family="Helvetica,sans-Serif" font-size="10.00">include/d/s/d_s_play.h</text>
</a>
</g>
</g>
<!-- Node7&#45;&gt;Node62 -->
<g id="edge23" class="edge">
<title>Node7&#45;&gt;Node62</title>
<path fill="none" stroke="#63b8ff" d="M2750.78,-145.98C3001.14,-145.55 3882.18,-140.82 4158.85,-96 4172.77,-93.75 4187.88,-89.43 4200.12,-85.43"/>
<polygon fill="#63b8ff" stroke="#63b8ff" points="2750.85,-142.48 2740.86,-145.99 2750.86,-149.48 2750.85,-142.48"/>
</g>
<!-- Node68 -->
<g id="node21" class="node">
<title>Node68</title>
<g id="a_node21"><a xlink:href="d__msg__scrn__base_8h.html" target="_top" xlink:title=" ">
<polygon fill="#fff0f0" stroke="red" points="4892.35,-90.5 4793.35,-90.5 4793.35,-60.5 4892.35,-60.5 4892.35,-90.5"/>
<text text-anchor="start" x="4801.35" y="-78.5" font-family="Helvetica,sans-Serif" font-size="10.00">include/msg/scrn/d</text>
<text text-anchor="middle" x="4842.85" y="-67.5" font-family="Helvetica,sans-Serif" font-size="10.00">_msg_scrn_base.h</text>
</a>
</g>
</g>
<!-- Node7&#45;&gt;Node68 -->
<g id="edge25" class="edge">
<title>Node7&#45;&gt;Node68</title>
<path fill="none" stroke="#63b8ff" d="M2750.76,-145.58C3086.54,-143.32 4579.93,-131.32 4783.85,-96 4790.65,-94.82 4797.74,-93.01 4804.55,-90.96"/>
<polygon fill="#63b8ff" stroke="#63b8ff" points="2750.79,-142.08 2740.82,-145.65 2750.84,-149.08 2750.79,-142.08"/>
</g>
<!-- Node72 -->
<g id="node22" class="node">
<title>Node72</title>
<g id="a_node22"><a xlink:href="d__a__b__oh2_8h.html" target="_top" xlink:title=" ">
<polygon fill="white" stroke="#666666" points="396.85,-90.5 280.85,-90.5 280.85,-60.5 396.85,-60.5 396.85,-90.5"/>
<text text-anchor="start" x="288.85" y="-78.5" font-family="Helvetica,sans-Serif" font-size="10.00">include/rel/d/a/b/d</text>
<text text-anchor="middle" x="338.85" y="-67.5" font-family="Helvetica,sans-Serif" font-size="10.00">_a_b_oh2/d_a_b_oh2.h</text>
</a>
</g>
</g>
<!-- Node7&#45;&gt;Node72 -->
<g id="edge26" class="edge">
<title>Node7&#45;&gt;Node72</title>
<path fill="none" stroke="#63b8ff" d="M2617.58,-132.11C2112.12,-77.31 888.63,-168.84 405.85,-96 398.06,-94.83 389.91,-92.99 382.08,-90.91"/>
<polygon fill="#63b8ff" stroke="#63b8ff" points="2616.82,-135.54 2627.15,-133.17 2617.6,-128.59 2616.82,-135.54"/>
</g>
<!-- Node73 -->
<g id="node23" class="node">
<title>Node73</title>
<g id="a_node23"><a xlink:href="d__a__b__zant_8h.html" target="_top" xlink:title=" ">
<polygon fill="white" stroke="#666666" points="536.35,-90.5 415.35,-90.5 415.35,-60.5 536.35,-60.5 536.35,-90.5"/>
<text text-anchor="start" x="423.35" y="-78.5" font-family="Helvetica,sans-Serif" font-size="10.00">include/rel/d/a/b/d</text>
<text text-anchor="middle" x="475.85" y="-67.5" font-family="Helvetica,sans-Serif" font-size="10.00">_a_b_zant/d_a_b_zant.h</text>
</a>
</g>
</g>
<!-- Node7&#45;&gt;Node73 -->
<g id="edge27" class="edge">
<title>Node7&#45;&gt;Node73</title>
<path fill="none" stroke="#63b8ff" d="M2617.22,-132.07C2142.51,-80.57 998.11,-161.82 545.85,-96 537.86,-94.84 529.49,-93.04 521.43,-90.99"/>
<polygon fill="#63b8ff" stroke="#63b8ff" points="2616.82,-135.54 2627.15,-133.18 2617.6,-128.59 2616.82,-135.54"/>
</g>
<!-- Node74 -->
<g id="node24" class="node">
<title>Node74</title>
<g id="a_node24"><a xlink:href="d__a__andsw_8h.html" target="_top" xlink:title=" ">
<polygon fill="white" stroke="#666666" points="664.85,-90.5 554.85,-90.5 554.85,-60.5 664.85,-60.5 664.85,-90.5"/>
<text text-anchor="start" x="562.85" y="-78.5" font-family="Helvetica,sans-Serif" font-size="10.00">include/rel/d/a/d_a</text>
<text text-anchor="middle" x="609.85" y="-67.5" font-family="Helvetica,sans-Serif" font-size="10.00">_andsw/d_a_andsw.h</text>
</a>
</g>
</g>
<!-- Node7&#45;&gt;Node74 -->
<g id="edge28" class="edge">
<title>Node7&#45;&gt;Node74</title>
<path fill="none" stroke="#63b8ff" d="M2617.25,-132.07C2170.87,-83.64 1097.17,-163.07 673.85,-96 666.51,-94.84 658.84,-93.04 651.46,-90.99"/>
<polygon fill="#63b8ff" stroke="#63b8ff" points="2616.82,-135.54 2627.15,-133.18 2617.6,-128.59 2616.82,-135.54"/>
</g>
<!-- Node75 -->
<g id="node25" class="node">
<title>Node75</title>
<g id="a_node25"><a xlink:href="d__a__cstaF_8h.html" target="_top" xlink:title=" ">
<polygon fill="white" stroke="#666666" points="786.35,-90.5 683.35,-90.5 683.35,-60.5 786.35,-60.5 786.35,-90.5"/>
<text text-anchor="start" x="691.35" y="-78.5" font-family="Helvetica,sans-Serif" font-size="10.00">include/rel/d/a/d_a</text>
<text text-anchor="middle" x="734.85" y="-67.5" font-family="Helvetica,sans-Serif" font-size="10.00">_cstaF/d_a_cstaF.h</text>
</a>
</g>
</g>
<!-- Node7&#45;&gt;Node75 -->
<g id="edge29" class="edge">
<title>Node7&#45;&gt;Node75</title>
<path fill="none" stroke="#63b8ff" d="M2617.33,-132.08C2197.99,-86.51 1191.95,-161.78 795.85,-96 788.83,-94.83 781.51,-93.03 774.47,-90.99"/>
<polygon fill="#63b8ff" stroke="#63b8ff" points="2616.82,-135.54 2627.15,-133.19 2617.6,-128.59 2616.82,-135.54"/>
</g>
<!-- Node76 -->
<g id="node26" class="node">
<title>Node76</title>
<g id="a_node26"><a xlink:href="d__a__dmidna_8h.html" target="_top" xlink:title=" ">
<polygon fill="white" stroke="#666666" points="920.85,-90.5 804.85,-90.5 804.85,-60.5 920.85,-60.5 920.85,-90.5"/>
<text text-anchor="start" x="812.85" y="-78.5" font-family="Helvetica,sans-Serif" font-size="10.00">include/rel/d/a/d_a</text>
<text text-anchor="middle" x="862.85" y="-67.5" font-family="Helvetica,sans-Serif" font-size="10.00">_dmidna/d_a_dmidna.h</text>
</a>
</g>
</g>
<!-- Node7&#45;&gt;Node76 -->
<g id="edge30" class="edge">
<title>Node7&#45;&gt;Node76</title>
<path fill="none" stroke="#63b8ff" d="M2617.28,-132.07C2227.58,-89.53 1297.3,-152.39 929.85,-96 922.19,-94.82 914.17,-93.02 906.45,-90.97"/>
<polygon fill="#63b8ff" stroke="#63b8ff" points="2616.82,-135.54 2627.15,-133.19 2617.61,-128.59 2616.82,-135.54"/>
</g>
<!-- Node77 -->
<g id="node27" class="node">
<title>Node77</title>
<g id="a_node27"><a xlink:href="d__a__econt_8h.html" target="_top" xlink:title=" ">
<polygon fill="white" stroke="#666666" points="1040.35,-90.5 939.35,-90.5 939.35,-60.5 1040.35,-60.5 1040.35,-90.5"/>
<text text-anchor="start" x="947.35" y="-78.5" font-family="Helvetica,sans-Serif" font-size="10.00">include/rel/d/a/d_a</text>
<text text-anchor="middle" x="989.85" y="-67.5" font-family="Helvetica,sans-Serif" font-size="10.00">_econt/d_a_econt.h</text>
</a>
</g>
</g>
<!-- Node7&#45;&gt;Node77 -->
<g id="edge31" class="edge">
<title>Node7&#45;&gt;Node77</title>
<path fill="none" stroke="#63b8ff" d="M2617.26,-132.07C2253.87,-92.41 1389.13,-154.78 1048.85,-96 1042.05,-94.82 1034.96,-93.02 1028.15,-90.97"/>
<polygon fill="#63b8ff" stroke="#63b8ff" points="2616.81,-135.54 2627.15,-133.2 2617.61,-128.59 2616.81,-135.54"/>
</g>
<!-- Node78 -->
<g id="node28" class="node">
<title>Node78</title>
<g id="a_node28"><a xlink:href="d__a__set__bgobj_8h.html" target="_top" xlink:title=" ">
<polygon fill="white" stroke="#666666" points="1195.35,-90.5 1058.35,-90.5 1058.35,-60.5 1195.35,-60.5 1195.35,-90.5"/>
<text text-anchor="start" x="1066.35" y="-78.5" font-family="Helvetica,sans-Serif" font-size="10.00">include/rel/d/a/d_a</text>
<text text-anchor="middle" x="1126.85" y="-67.5" font-family="Helvetica,sans-Serif" font-size="10.00">_set_bgobj/d_a_set_bgobj.h</text>
</a>
</g>
</g>
<!-- Node7&#45;&gt;Node78 -->
<g id="edge32" class="edge">
<title>Node7&#45;&gt;Node78</title>
<path fill="none" stroke="#63b8ff" d="M2617.55,-132.06C1992.66,-58.93 1824.11,-180.25 1204.85,-96 1196,-94.8 1186.7,-92.97 1177.72,-90.92"/>
<polygon fill="#63b8ff" stroke="#63b8ff" points="2616.8,-135.5 2627.15,-133.2 2617.63,-128.55 2616.8,-135.5"/>
</g>
<!-- Node79 -->
<g id="node29" class="node">
<title>Node79</title>
<g id="a_node29"><a xlink:href="d__a__skip__2D_8h.html" target="_top" xlink:title=" ">
<polygon fill="white" stroke="#666666" points="1337.85,-90.5 1213.85,-90.5 1213.85,-60.5 1337.85,-60.5 1337.85,-90.5"/>
<text text-anchor="start" x="1221.85" y="-78.5" font-family="Helvetica,sans-Serif" font-size="10.00">include/rel/d/a/d_a</text>
<text text-anchor="middle" x="1275.85" y="-67.5" font-family="Helvetica,sans-Serif" font-size="10.00">_skip_2D/d_a_skip_2D.h</text>
</a>
</g>
</g>
<!-- Node7&#45;&gt;Node79 -->
<g id="edge33" class="edge">
<title>Node7&#45;&gt;Node79</title>
<path fill="none" stroke="#63b8ff" d="M2617.41,-132.04C2055.36,-65.68 1902.53,-178.94 1346.85,-96 1338.76,-94.79 1330.27,-92.97 1322.1,-90.92"/>
<polygon fill="#63b8ff" stroke="#63b8ff" points="2616.8,-135.5 2627.15,-133.21 2617.63,-128.55 2616.8,-135.5"/>
</g>
<!-- Node80 -->
<g id="node30" class="node">
<title>Node80</title>
<g id="a_node30"><a xlink:href="d__a__spinner_8h.html" target="_top" xlink:title=" ">
<polygon fill="#fff0f0" stroke="red" points="1471.85,-90.5 1355.85,-90.5 1355.85,-60.5 1471.85,-60.5 1471.85,-90.5"/>
<text text-anchor="start" x="1363.85" y="-78.5" font-family="Helvetica,sans-Serif" font-size="10.00">include/rel/d/a/d_a</text>
<text text-anchor="middle" x="1413.85" y="-67.5" font-family="Helvetica,sans-Serif" font-size="10.00">_spinner/d_a_spinner.h</text>
</a>
</g>
</g>
<!-- Node7&#45;&gt;Node80 -->
<g id="edge34" class="edge">
<title>Node7&#45;&gt;Node80</title>
<path fill="none" stroke="#63b8ff" d="M2617.46,-132.05C2114.56,-72 1976.96,-174.75 1480.85,-96 1473.31,-94.8 1465.43,-93.01 1457.82,-91"/>
<polygon fill="#63b8ff" stroke="#63b8ff" points="2616.8,-135.49 2627.14,-133.22 2617.64,-128.54 2616.8,-135.49"/>
</g>
<!-- Node83 -->
<g id="node31" class="node">
<title>Node83</title>
<g id="a_node31"><a xlink:href="d__a__swTime_8h.html" target="_top" xlink:title=" ">
<polygon fill="white" stroke="#666666" points="1611.85,-90.5 1489.85,-90.5 1489.85,-60.5 1611.85,-60.5 1611.85,-90.5"/>
<text text-anchor="start" x="1497.85" y="-78.5" font-family="Helvetica,sans-Serif" font-size="10.00">include/rel/d/a/d_a</text>
<text text-anchor="middle" x="1550.85" y="-67.5" font-family="Helvetica,sans-Serif" font-size="10.00">_swTime/d_a_swTime.h</text>
</a>
</g>
</g>
<!-- Node7&#45;&gt;Node83 -->
<g id="edge35" class="edge">
<title>Node7&#45;&gt;Node83</title>
<path fill="none" stroke="#63b8ff" d="M2617.5,-132.04C2176.42,-78.49 2055.81,-163.46 1620.85,-96 1613,-94.78 1604.77,-92.98 1596.83,-90.96"/>
<polygon fill="#63b8ff" stroke="#63b8ff" points="2616.79,-135.48 2627.14,-133.23 2617.65,-128.54 2616.79,-135.48"/>
</g>
<!-- Node84 -->
<g id="node32" class="node">
<title>Node84</title>
<g id="a_node32"><a xlink:href="d__a__obj__cboard_8h.html" target="_top" xlink:title=" ">
<polygon fill="white" stroke="#666666" points="1737.35,-96 1630.35,-96 1630.35,-55 1737.35,-55 1737.35,-96"/>
<text text-anchor="start" x="1638.35" y="-84" font-family="Helvetica,sans-Serif" font-size="10.00">include/rel/d/a/obj</text>
<text text-anchor="start" x="1638.35" y="-73" font-family="Helvetica,sans-Serif" font-size="10.00">/d_a_obj_cboard/d_a</text>
<text text-anchor="middle" x="1683.85" y="-62" font-family="Helvetica,sans-Serif" font-size="10.00">_obj_cboard.h</text>
</a>
</g>
</g>
<!-- Node7&#45;&gt;Node84 -->
<g id="edge36" class="edge">
<title>Node7&#45;&gt;Node84</title>
<path fill="none" stroke="#63b8ff" d="M2617.44,-132.03C2231.6,-84.45 2124.74,-162.2 1745.85,-96 1743.18,-95.53 1740.47,-94.98 1737.74,-94.37"/>
<polygon fill="#63b8ff" stroke="#63b8ff" points="2616.78,-135.48 2627.14,-133.25 2617.65,-128.53 2616.78,-135.48"/>
</g>
<!-- Node85 -->
<g id="node33" class="node">
<title>Node85</title>
<g id="a_node33"><a xlink:href="d__a__obj__enemy__create_8h.html" target="_top" xlink:title=" ">
<polygon fill="white" stroke="#666666" points="1882.35,-96 1755.35,-96 1755.35,-55 1882.35,-55 1882.35,-96"/>
<text text-anchor="start" x="1763.35" y="-84" font-family="Helvetica,sans-Serif" font-size="10.00">include/rel/d/a/obj</text>
<text text-anchor="start" x="1763.35" y="-73" font-family="Helvetica,sans-Serif" font-size="10.00">/d_a_obj_enemy_create</text>
<text text-anchor="middle" x="1818.85" y="-62" font-family="Helvetica,sans-Serif" font-size="10.00">/d_a_obj_enemy_create.h</text>
</a>
</g>
</g>
<!-- Node7&#45;&gt;Node85 -->
<g id="edge37" class="edge">
<title>Node7&#45;&gt;Node85</title>
<path fill="none" stroke="#63b8ff" d="M2617.59,-132.04C2296.13,-91.05 2207.88,-145.46 1891.85,-96 1888.87,-95.53 1885.83,-94.99 1882.78,-94.4"/>
<polygon fill="#63b8ff" stroke="#63b8ff" points="2616.77,-135.46 2627.14,-133.27 2617.67,-128.52 2616.77,-135.46"/>
</g>
<!-- Node86 -->
<g id="node34" class="node">
<title>Node86</title>
<g id="a_node34"><a xlink:href="d__a__obj__onsenFire_8h.html" target="_top" xlink:title=" ">
<polygon fill="white" stroke="#666666" points="2010.85,-96 1900.85,-96 1900.85,-55 2010.85,-55 2010.85,-96"/>
<text text-anchor="start" x="1908.85" y="-84" font-family="Helvetica,sans-Serif" font-size="10.00">include/rel/d/a/obj</text>
<text text-anchor="start" x="1908.85" y="-73" font-family="Helvetica,sans-Serif" font-size="10.00">/d_a_obj_onsenFire/d</text>
<text text-anchor="middle" x="1955.85" y="-62" font-family="Helvetica,sans-Serif" font-size="10.00">_a_obj_onsenFire.h</text>
</a>
</g>
</g>
<!-- Node7&#45;&gt;Node86 -->
<g id="edge38" class="edge">
<title>Node7&#45;&gt;Node86</title>
<path fill="none" stroke="#63b8ff" d="M2617.51,-132.01C2352.6,-97.1 2278.75,-142.55 2019.85,-96 2016.99,-95.49 2014.08,-94.89 2011.16,-94.22"/>
<polygon fill="#63b8ff" stroke="#63b8ff" points="2616.75,-135.44 2627.13,-133.31 2617.69,-128.5 2616.75,-135.44"/>
</g>
<!-- Node87 -->
<g id="node35" class="node">
<title>Node87</title>
<g id="a_node35"><a xlink:href="d__a__obj__web0_8h.html" target="_top" xlink:title=" ">
<polygon fill="white" stroke="#666666" points="2148.35,-96 2029.35,-96 2029.35,-55 2148.35,-55 2148.35,-96"/>
<text text-anchor="start" x="2037.35" y="-84" font-family="Helvetica,sans-Serif" font-size="10.00">include/rel/d/a/obj</text>
<text text-anchor="start" x="2037.35" y="-73" font-family="Helvetica,sans-Serif" font-size="10.00">/d_a_obj_web0/d_a_obj</text>
<text text-anchor="middle" x="2088.85" y="-62" font-family="Helvetica,sans-Serif" font-size="10.00">_web0.h</text>
</a>
</g>
</g>
<!-- Node7&#45;&gt;Node87 -->
<g id="edge39" class="edge">
<title>Node7&#45;&gt;Node87</title>
<path fill="none" stroke="#63b8ff" d="M2617.51,-131.98C2413.06,-103.3 2355.97,-131.93 2156.85,-96 2154.19,-95.52 2151.49,-94.98 2148.76,-94.39"/>
<polygon fill="#63b8ff" stroke="#63b8ff" points="2616.73,-135.41 2627.12,-133.36 2617.72,-128.48 2616.73,-135.41"/>
</g>
<!-- Node88 -->
<g id="node36" class="node">
<title>Node88</title>
<g id="a_node36"><a xlink:href="d__a__obj__web1_8h.html" target="_top" xlink:title=" ">
<polygon fill="white" stroke="#666666" points="2285.35,-96 2166.35,-96 2166.35,-55 2285.35,-55 2285.35,-96"/>
<text text-anchor="start" x="2174.35" y="-84" font-family="Helvetica,sans-Serif" font-size="10.00">include/rel/d/a/obj</text>
<text text-anchor="start" x="2174.35" y="-73" font-family="Helvetica,sans-Serif" font-size="10.00">/d_a_obj_web1/d_a_obj</text>
<text text-anchor="middle" x="2225.85" y="-62" font-family="Helvetica,sans-Serif" font-size="10.00">_web1.h</text>
</a>
</g>
</g>
<!-- Node7&#45;&gt;Node88 -->
<g id="edge40" class="edge">
<title>Node7&#45;&gt;Node88</title>
<path fill="none" stroke="#63b8ff" d="M2617.58,-131.94C2473.44,-109.4 2432.95,-123.44 2293.85,-96 2291.2,-95.48 2288.5,-94.9 2285.78,-94.28"/>
<polygon fill="#63b8ff" stroke="#63b8ff" points="2616.68,-135.34 2627.11,-133.46 2617.79,-128.43 2616.68,-135.34"/>
</g>
<!-- Node89 -->
<g id="node37" class="node">
<title>Node89</title>
<g id="a_node37"><a xlink:href="d__a__obj__yobikusa_8h.html" target="_top" xlink:title=" ">
<polygon fill="white" stroke="#666666" points="2408.35,-96 2303.35,-96 2303.35,-55 2408.35,-55 2408.35,-96"/>
<text text-anchor="start" x="2311.35" y="-84" font-family="Helvetica,sans-Serif" font-size="10.00">include/rel/d/a/obj</text>
<text text-anchor="start" x="2311.35" y="-73" font-family="Helvetica,sans-Serif" font-size="10.00">/d_a_obj_yobikusa/d</text>
<text text-anchor="middle" x="2355.85" y="-62" font-family="Helvetica,sans-Serif" font-size="10.00">_a_obj_yobikusa.h</text>
</a>
</g>
</g>
<!-- Node7&#45;&gt;Node89 -->
<g id="edge41" class="edge">
<title>Node7&#45;&gt;Node89</title>
<path fill="none" stroke="#63b8ff" d="M2617.32,-131.77C2527.85,-114.66 2502.54,-116.81 2417.85,-96 2414.89,-95.27 2411.87,-94.48 2408.82,-93.65"/>
<polygon fill="#63b8ff" stroke="#63b8ff" points="2616.59,-135.19 2627.07,-133.66 2617.92,-128.32 2616.59,-135.19"/>
</g>
<!-- Node90 -->
<g id="node38" class="node">
<title>Node90</title>
<g id="a_node38"><a xlink:href="d__a__tag__ajnot_8h.html" target="_top" xlink:title=" ">
<polygon fill="white" stroke="#666666" points="2544.85,-96 2426.85,-96 2426.85,-55 2544.85,-55 2544.85,-96"/>
<text text-anchor="start" x="2434.85" y="-84" font-family="Helvetica,sans-Serif" font-size="10.00">include/rel/d/a/tag</text>
<text text-anchor="start" x="2434.85" y="-73" font-family="Helvetica,sans-Serif" font-size="10.00">/d_a_tag_ajnot/d_a_tag</text>
<text text-anchor="middle" x="2485.85" y="-62" font-family="Helvetica,sans-Serif" font-size="10.00">_ajnot.h</text>
</a>
</g>
</g>
<!-- Node7&#45;&gt;Node90 -->
<g id="edge42" class="edge">
<title>Node7&#45;&gt;Node90</title>
<path fill="none" stroke="#63b8ff" d="M2632.24,-127.88C2604.73,-118.23 2570.83,-106.33 2542.59,-96.42"/>
<polygon fill="#63b8ff" stroke="#63b8ff" points="2630.8,-131.09 2641.4,-131.1 2633.12,-124.48 2630.8,-131.09"/>
</g>
<!-- Node91 -->
<g id="node39" class="node">
<title>Node91</title>
<g id="a_node39"><a xlink:href="d__a__tag__assistance_8h.html" target="_top" xlink:title=" ">
<polygon fill="white" stroke="#666666" points="2676.85,-96 2562.85,-96 2562.85,-55 2676.85,-55 2676.85,-96"/>
<text text-anchor="start" x="2570.85" y="-84" font-family="Helvetica,sans-Serif" font-size="10.00">include/rel/d/a/tag</text>
<text text-anchor="start" x="2570.85" y="-73" font-family="Helvetica,sans-Serif" font-size="10.00">/d_a_tag_assistance</text>
<text text-anchor="middle" x="2619.85" y="-62" font-family="Helvetica,sans-Serif" font-size="10.00">/d_a_tag_assistance.h</text>
</a>
</g>
</g>
<!-- Node7&#45;&gt;Node91 -->
<g id="edge43" class="edge">
<title>Node7&#45;&gt;Node91</title>
<path fill="none" stroke="#63b8ff" d="M2663.03,-123.39C2655.02,-114.69 2645.95,-104.84 2638.19,-96.42"/>
<polygon fill="#63b8ff" stroke="#63b8ff" points="2660.21,-125.5 2669.56,-130.49 2665.36,-120.76 2660.21,-125.5"/>
</g>
<!-- Node92 -->
<g id="node40" class="node">
<title>Node92</title>
<g id="a_node40"><a xlink:href="d__a__tag__attention_8h.html" target="_top" xlink:title=" ">
<polygon fill="white" stroke="#666666" points="2800.35,-96 2695.35,-96 2695.35,-55 2800.35,-55 2800.35,-96"/>
<text text-anchor="start" x="2703.35" y="-84" font-family="Helvetica,sans-Serif" font-size="10.00">include/rel/d/a/tag</text>
<text text-anchor="start" x="2703.35" y="-73" font-family="Helvetica,sans-Serif" font-size="10.00">/d_a_tag_attention/d</text>
<text text-anchor="middle" x="2747.85" y="-62" font-family="Helvetica,sans-Serif" font-size="10.00">_a_tag_attention.h</text>
</a>
</g>
</g>
<!-- Node7&#45;&gt;Node92 -->
<g id="edge44" class="edge">
<title>Node7&#45;&gt;Node92</title>
<path fill="none" stroke="#63b8ff" d="M2704.67,-123.39C2712.68,-114.69 2721.75,-104.84 2729.51,-96.42"/>
<polygon fill="#63b8ff" stroke="#63b8ff" points="2702.33,-120.76 2698.14,-130.49 2707.48,-125.5 2702.33,-120.76"/>
</g>
<!-- Node93 -->
<g id="node41" class="node">
<title>Node93</title>
<g id="a_node41"><a xlink:href="d__a__tag__gra_8h.html" target="_top" xlink:title=" ">
<polygon fill="white" stroke="#666666" points="2955.35,-90.5 2818.35,-90.5 2818.35,-60.5 2955.35,-60.5 2955.35,-90.5"/>
<text text-anchor="start" x="2826.35" y="-78.5" font-family="Helvetica,sans-Serif" font-size="10.00">include/rel/d/a/tag</text>
<text text-anchor="middle" x="2886.85" y="-67.5" font-family="Helvetica,sans-Serif" font-size="10.00">/d_a_tag_gra/d_a_tag_gra.h</text>
</a>
</g>
</g>
<!-- Node7&#45;&gt;Node93 -->
<g id="edge45" class="edge">
<title>Node7&#45;&gt;Node93</title>
<path fill="none" stroke="#63b8ff" d="M2736.5,-127.97C2770.24,-116.42 2813.42,-101.64 2844.84,-90.88"/>
<polygon fill="#63b8ff" stroke="#63b8ff" points="2735.67,-124.56 2727.34,-131.11 2737.94,-131.18 2735.67,-124.56"/>
</g>
<!-- Node94 -->
<g id="node42" class="node">
<title>Node94</title>
<g id="a_node42"><a xlink:href="d__a__tag__hinit_8h.html" target="_top" xlink:title=" ">
<polygon fill="white" stroke="#666666" points="3088.35,-96 2973.35,-96 2973.35,-55 3088.35,-55 3088.35,-96"/>
<text text-anchor="start" x="2981.35" y="-84" font-family="Helvetica,sans-Serif" font-size="10.00">include/rel/d/a/tag</text>
<text text-anchor="start" x="2981.35" y="-73" font-family="Helvetica,sans-Serif" font-size="10.00">/d_a_tag_hinit/d_a_tag</text>
<text text-anchor="middle" x="3030.85" y="-62" font-family="Helvetica,sans-Serif" font-size="10.00">_hinit.h</text>
</a>
</g>
</g>
<!-- Node7&#45;&gt;Node94 -->
<g id="edge46" class="edge">
<title>Node7&#45;&gt;Node94</title>
<path fill="none" stroke="#63b8ff" d="M2750.22,-136.19C2807.21,-127.28 2891.39,-112.96 2963.85,-96 2966.92,-95.28 2970.05,-94.51 2973.21,-93.7"/>
<polygon fill="#63b8ff" stroke="#63b8ff" points="2750.03,-132.68 2740.69,-137.67 2751.11,-139.59 2750.03,-132.68"/>
</g>
<!-- Node95 -->
<g id="node43" class="node">
<title>Node95</title>
<g id="a_node43"><a xlink:href="d__a__tag__howl_8h.html" target="_top" xlink:title=" ">
<polygon fill="white" stroke="#666666" points="3223.35,-96 3106.35,-96 3106.35,-55 3223.35,-55 3223.35,-96"/>
<text text-anchor="start" x="3114.35" y="-84" font-family="Helvetica,sans-Serif" font-size="10.00">include/rel/d/a/tag</text>
<text text-anchor="start" x="3114.35" y="-73" font-family="Helvetica,sans-Serif" font-size="10.00">/d_a_tag_howl/d_a_tag</text>
<text text-anchor="middle" x="3164.85" y="-62" font-family="Helvetica,sans-Serif" font-size="10.00">_howl.h</text>
</a>
</g>
</g>
<!-- Node7&#45;&gt;Node95 -->
<g id="edge47" class="edge">
<title>Node7&#45;&gt;Node95</title>
<path fill="none" stroke="#63b8ff" d="M2750.48,-141.21C2832.56,-134.56 2975.96,-120.49 3096.85,-96 3099.86,-95.39 3102.93,-94.71 3106.02,-93.99"/>
<polygon fill="#63b8ff" stroke="#63b8ff" points="2750.27,-137.71 2740.58,-142 2750.83,-144.69 2750.27,-137.71"/>
</g>
<!-- Node96 -->
<g id="node44" class="node">
<title>Node96</title>
<g id="a_node44"><a xlink:href="d__a__tag__lv6CstaSw_8h.html" target="_top" xlink:title=" ">
<polygon fill="white" stroke="#666666" points="3356.35,-96 3241.35,-96 3241.35,-55 3356.35,-55 3356.35,-96"/>
<text text-anchor="start" x="3249.35" y="-84" font-family="Helvetica,sans-Serif" font-size="10.00">include/rel/d/a/tag</text>
<text text-anchor="start" x="3249.35" y="-73" font-family="Helvetica,sans-Serif" font-size="10.00">/d_a_tag_lv6CstaSw/d</text>
<text text-anchor="middle" x="3298.85" y="-62" font-family="Helvetica,sans-Serif" font-size="10.00">_a_tag_lv6CstaSw.h</text>
</a>
</g>
</g>
<!-- Node7&#45;&gt;Node96 -->
<g id="edge48" class="edge">
<title>Node7&#45;&gt;Node96</title>
<path fill="none" stroke="#63b8ff" d="M2750.39,-144.05C2854.09,-140.08 3060.17,-128.5 3231.85,-96 3234.83,-95.44 3237.86,-94.8 3240.91,-94.1"/>
<polygon fill="#63b8ff" stroke="#63b8ff" points="2750.55,-140.54 2740.68,-144.41 2750.81,-147.53 2750.55,-140.54"/>
</g>
<!-- Node20&#45;&gt;Node24 -->
<g id="edge10" class="edge">
<title>Node20&#45;&gt;Node24</title>
<path fill="none" stroke="#63b8ff" d="M4319.71,-60.26C4295.83,-47.74 4261.82,-29.89 4241.67,-19.32"/>
<polygon fill="#63b8ff" stroke="#63b8ff" points="4318.06,-63.35 4328.55,-64.9 4321.32,-57.15 4318.06,-63.35"/>
</g>
<!-- Node28&#45;&gt;Node24 -->
<g id="edge13" class="edge">
<title>Node28&#45;&gt;Node24</title>
<path fill="none" stroke="#63b8ff" d="M3758.29,-61.92C3766.57,-59.28 3775.45,-56.77 3783.85,-55 3921.84,-25.96 4088.25,-15.69 4171.68,-12.2"/>
<polygon fill="#63b8ff" stroke="#63b8ff" points="3757.28,-58.56 3748.91,-65.05 3759.5,-65.2 3757.28,-58.56"/>
</g>
<!-- Node45&#45;&gt;Node8 -->
<g id="edge19" class="edge">
<title>Node45&#45;&gt;Node8</title>
<path fill="none" stroke="#63b8ff" d="M3583.28,-50.78C3576.08,-39.81 3567.97,-27.44 3562.65,-19.34"/>
<polygon fill="#63b8ff" stroke="#63b8ff" points="3580.29,-52.59 3588.7,-59.03 3586.14,-48.75 3580.29,-52.59"/>
</g>
<!-- Node45&#45;&gt;Node24 -->
<g id="edge20" class="edge">
<title>Node45&#45;&gt;Node24</title>
<path fill="none" stroke="#63b8ff" d="M3652.57,-57.22C3656.03,-56.39 3659.48,-55.64 3662.85,-55 3847.48,-19.99 4071.29,-12.47 4171.66,-10.89"/>
<polygon fill="#63b8ff" stroke="#63b8ff" points="3651.82,-53.8 3643.03,-59.71 3653.59,-60.57 3651.82,-53.8"/>
</g>
<!-- Node61&#45;&gt;Node5 -->
<g id="edge22" class="edge">
<title>Node61&#45;&gt;Node5</title>
<path fill="none" stroke="#63b8ff" d="M3395.21,-62.13C3385.48,-59.26 3374.86,-56.59 3364.85,-55 3206.14,-29.83 2049.16,-14.37 1784.62,-11.13"/>
<polygon fill="#63b8ff" stroke="#63b8ff" points="3394.1,-65.45 3404.68,-65.08 3396.18,-58.77 3394.1,-65.45"/>
</g>
<!-- Node62&#45;&gt;Node24 -->
<g id="edge24" class="edge">
<title>Node62&#45;&gt;Node24</title>
<path fill="none" stroke="#63b8ff" d="M4224.85,-54.18C4224.85,-42.44 4224.85,-28.27 4224.85,-19.32"/>
<polygon fill="#63b8ff" stroke="#63b8ff" points="4221.35,-54.09 4224.85,-64.09 4228.35,-54.09 4221.35,-54.09"/>
</g>
<!-- Node149&#45;&gt;Node148 -->
<g id="edge55" class="edge">
<title>Node149&#45;&gt;Node148</title>
<path fill="none" stroke="#63b8ff" d="M5001.85,-186.39C5001.85,-178.13 5001.85,-169.28 5001.85,-162.16"/>
<polygon fill="#63b8ff" stroke="#63b8ff" points="4998.35,-186.28 5001.85,-196.28 5005.35,-186.28 4998.35,-186.28"/>
</g>
<!-- Node150 -->
<g id="node48" class="node">
<title>Node150</title>
<g id="a_node48"><a xlink:href="f__op__scene__req_8cpp.html" target="_top" xlink:title=" ">
<polygon fill="white" stroke="#666666" points="5177.35,-162 5072.35,-162 5072.35,-132 5177.35,-132 5177.35,-162"/>
<text text-anchor="start" x="5080.35" y="-150" font-family="Helvetica,sans-Serif" font-size="10.00">src/f_op/f_op_scene</text>
<text text-anchor="middle" x="5124.85" y="-139" font-family="Helvetica,sans-Serif" font-size="10.00">_req.cpp</text>
</a>
</g>
</g>
<!-- Node149&#45;&gt;Node150 -->
<g id="edge56" class="edge">
<title>Node149&#45;&gt;Node150</title>
<path fill="none" stroke="#63b8ff" d="M5039.42,-192.45C5058.1,-182.73 5080.26,-171.2 5097.34,-162.31"/>
<polygon fill="#63b8ff" stroke="#63b8ff" points="5038.05,-189.22 5030.8,-196.94 5041.28,-195.43 5038.05,-189.22"/>
</g>
</g>
</svg>
