<?xml version="1.0" encoding="UTF-8" standalone="no"?>
<!DOCTYPE svg PUBLIC "-//W3C//DTD SVG 1.1//EN"
 "http://www.w3.org/Graphics/SVG/1.1/DTD/svg11.dtd">
<!-- Generated by graphviz version 7.0.5 (20221223.1930)
 -->
<!-- Title: include/f_op/f_op_scene.h Pages: 1 -->
<svg width="4084pt" height="368pt"
 viewBox="0.00 0.00 4083.74 368.00" xmlns="http://www.w3.org/2000/svg" xmlns:xlink="http://www.w3.org/1999/xlink">
<g id="graph0" class="graph" transform="scale(1 1) rotate(0) translate(4 364)">
<title>include/f_op/f_op_scene.h</title>
<!-- Node1 -->
<g id="node1" class="node">
<title>Node1</title>
<g id="a_node1"><a xlink:title=" ">
<polygon fill="#999999" stroke="#666666" points="1846,-360 1716,-360 1716,-341 1846,-341 1846,-360"/>
<text text-anchor="middle" x="1781" y="-348" font-family="Helvetica,sans-Serif" font-size="10.00">include/f_op/f_op_scene.h</text>
</a>
</g>
</g>
<!-- Node2 -->
<g id="node2" class="node">
<title>Node2</title>
<g id="a_node2"><a xlink:href="d__a__alink_8h.html" target="_top" xlink:title=" ">
<polygon fill="white" stroke="#666666" points="2145,-233.5 2029,-233.5 2029,-214.5 2145,-214.5 2145,-233.5"/>
<text text-anchor="middle" x="2087" y="-221.5" font-family="Helvetica,sans-Serif" font-size="10.00">include/d/a/d_a_alink.h</text>
</a>
</g>
</g>
<!-- Node1&#45;&gt;Node2 -->
<g id="edge1" class="edge">
<title>Node1&#45;&gt;Node2</title>
<path fill="none" stroke="#63b8ff" d="M1780.46,-329.19C1781.18,-312.22 1785.1,-288.66 1800,-275 1836.35,-241.67 1970.5,-247.97 2019,-239 2027.41,-237.44 2036.39,-235.67 2044.97,-233.93"/>
<polygon fill="#63b8ff" stroke="#63b8ff" points="1776.96,-329.09 1780.42,-339.1 1783.96,-329.12 1776.96,-329.09"/>
</g>
<!-- Node74 -->
<g id="node23" class="node">
<title>Node74</title>
<g id="a_node23"><a xlink:href="d__s__play_8h.html" target="_top" xlink:title=" ">
<polygon fill="white" stroke="#666666" points="657.5,-96 544.5,-96 544.5,-77 657.5,-77 657.5,-96"/>
<text text-anchor="middle" x="601" y="-84" font-family="Helvetica,sans-Serif" font-size="10.00">include/d/s/d_s_play.h</text>
</a>
</g>
</g>
<!-- Node1&#45;&gt;Node74 -->
<g id="edge60" class="edge">
<title>Node1&#45;&gt;Node74</title>
<path fill="none" stroke="#63b8ff" d="M1729.49,-338.06C1531.19,-294.03 819.34,-135.98 641.49,-96.49"/>
<polygon fill="#63b8ff" stroke="#63b8ff" points="1728.72,-341.48 1739.25,-340.23 1730.24,-334.64 1728.72,-341.48"/>
</g>
<!-- Node76 -->
<g id="node25" class="node">
<title>Node76</title>
<g id="a_node25"><a xlink:href="d__s__room_8cpp.html" target="_top" xlink:title=" ">
<polygon fill="white" stroke="#666666" points="110,-24.5 0,-24.5 0,-5.5 110,-5.5 110,-24.5"/>
<text text-anchor="middle" x="55" y="-12.5" font-family="Helvetica,sans-Serif" font-size="10.00">src/d/s/d_s_room.cpp</text>
</a>
</g>
</g>
<!-- Node1&#45;&gt;Node76 -->
<g id="edge69" class="edge">
<title>Node1&#45;&gt;Node76</title>
<path fill="none" stroke="#63b8ff" d="M1704.14,-347.96C1372.17,-340.82 78,-307.7 78,-225 78,-225 78,-225 78,-157 78,-106.4 63.39,-46.91 57.46,-24.83"/>
<polygon fill="#63b8ff" stroke="#63b8ff" points="1703.96,-351.46 1714.03,-348.17 1704.11,-344.46 1703.96,-351.46"/>
</g>
<!-- Node169 -->
<g id="node43" class="node">
<title>Node169</title>
<g id="a_node43"><a xlink:href="f__op__scene__pause_8h.html" target="_top" xlink:title=" ">
<polygon fill="white" stroke="#666666" points="1753,-305 1631,-305 1631,-275 1753,-275 1753,-305"/>
<text text-anchor="start" x="1639" y="-293" font-family="Helvetica,sans-Serif" font-size="10.00">include/f_op/f_op_scene</text>
<text text-anchor="middle" x="1692" y="-282" font-family="Helvetica,sans-Serif" font-size="10.00">_pause.h</text>
</a>
</g>
</g>
<!-- Node1&#45;&gt;Node169 -->
<g id="edge61" class="edge">
<title>Node1&#45;&gt;Node169</title>
<path fill="none" stroke="#63b8ff" d="M1757.91,-334.33C1744.36,-325.42 1727.32,-314.22 1713.97,-305.44"/>
<polygon fill="#63b8ff" stroke="#63b8ff" points="1755.94,-337.22 1766.22,-339.78 1759.78,-331.37 1755.94,-337.22"/>
</g>
<!-- Node178 -->
<g id="node48" class="node">
<title>Node178</title>
<g id="a_node48"><a xlink:href="d__s__menu_8cpp.html" target="_top" xlink:title=" ">
<polygon fill="white" stroke="#666666" points="1922.5,-299.5 1809.5,-299.5 1809.5,-280.5 1922.5,-280.5 1922.5,-299.5"/>
<text text-anchor="middle" x="1866" y="-287.5" font-family="Helvetica,sans-Serif" font-size="10.00">src/d/s/d_s_menu.cpp</text>
</a>
</g>
</g>
<!-- Node1&#45;&gt;Node178 -->
<g id="edge68" class="edge">
<title>Node1&#45;&gt;Node178</title>
<path fill="none" stroke="#63b8ff" d="M1803.02,-334.35C1818.86,-323.44 1839.69,-309.11 1852.97,-299.97"/>
<polygon fill="#63b8ff" stroke="#63b8ff" points="1801.41,-331.2 1795.16,-339.76 1805.38,-336.97 1801.41,-331.2"/>
</g>
<!-- Node179 -->
<g id="node49" class="node">
<title>Node179</title>
<g id="a_node49"><a xlink:href="d__s__title_8cpp.html" target="_top" xlink:title=" ">
<polygon fill="white" stroke="#666666" points="2045,-299.5 1941,-299.5 1941,-280.5 2045,-280.5 2045,-299.5"/>
<text text-anchor="middle" x="1993" y="-287.5" font-family="Helvetica,sans-Serif" font-size="10.00">src/d/s/d_s_title.cpp</text>
</a>
</g>
</g>
<!-- Node1&#45;&gt;Node179 -->
<g id="edge70" class="edge">
<title>Node1&#45;&gt;Node179</title>
<path fill="none" stroke="#63b8ff" d="M1824.05,-337.62C1864.44,-326.48 1923.95,-310.05 1960.5,-299.97"/>
<polygon fill="#63b8ff" stroke="#63b8ff" points="1823.37,-334.18 1814.66,-340.21 1825.23,-340.93 1823.37,-334.18"/>
</g>
<!-- Node180 -->
<g id="node50" class="node">
<title>Node180</title>
<g id="a_node50"><a xlink:href="f__op__scene_8cpp.html" target="_top" xlink:title=" ">
<polygon fill="white" stroke="#666666" points="2186.5,-299.5 2063.5,-299.5 2063.5,-280.5 2186.5,-280.5 2186.5,-299.5"/>
<text text-anchor="middle" x="2125" y="-287.5" font-family="Helvetica,sans-Serif" font-size="10.00">src/f_op/f_op_scene.cpp</text>
</a>
</g>
</g>
<!-- Node1&#45;&gt;Node180 -->
<g id="edge71" class="edge">
<title>Node1&#45;&gt;Node180</title>
<path fill="none" stroke="#63b8ff" d="M1850.74,-338.78C1905.97,-330.14 1985.02,-317.42 2054,-305 2062.66,-303.44 2071.89,-301.69 2080.73,-299.96"/>
<polygon fill="#63b8ff" stroke="#63b8ff" points="1850.51,-335.28 1841.17,-340.28 1851.59,-342.19 1850.51,-335.28"/>
</g>
<!-- Node3 -->
<g id="node3" class="node">
<title>Node3</title>
<g id="a_node3"><a xlink:href="d__com__inf__game_8h.html" target="_top" xlink:title=" ">
<polygon fill="#fff0f0" stroke="red" points="2012,-173 1902,-173 1902,-143 2012,-143 2012,-173"/>
<text text-anchor="start" x="1910" y="-161" font-family="Helvetica,sans-Serif" font-size="10.00">include/d/com/d_com</text>
<text text-anchor="middle" x="1957" y="-150" font-family="Helvetica,sans-Serif" font-size="10.00">_inf_game.h</text>
</a>
</g>
</g>
<!-- Node2&#45;&gt;Node3 -->
<g id="edge2" class="edge">
<title>Node2&#45;&gt;Node3</title>
<path fill="none" stroke="#63b8ff" d="M2058.84,-209.13C2037.44,-198.6 2008.1,-184.16 1986.41,-173.48"/>
<polygon fill="#63b8ff" stroke="#63b8ff" points="2057.05,-212.16 2067.57,-213.43 2060.14,-205.88 2057.05,-212.16"/>
</g>
<!-- Node15 -->
<g id="node11" class="node">
<title>Node15</title>
<g id="a_node11"><a xlink:href="d__a__alink_8cpp.html" target="_top" xlink:title=" ">
<polygon fill="white" stroke="#666666" points="3968.5,-24.5 3859.5,-24.5 3859.5,-5.5 3968.5,-5.5 3968.5,-24.5"/>
<text text-anchor="middle" x="3914" y="-12.5" font-family="Helvetica,sans-Serif" font-size="10.00">src/d/a/d_a_alink.cpp</text>
</a>
</g>
</g>
<!-- Node2&#45;&gt;Node15 -->
<g id="edge59" class="edge">
<title>Node2&#45;&gt;Node15</title>
<path fill="none" stroke="#63b8ff" d="M2156.67,-221.6C2500.31,-214.37 4000.94,-178.76 4067,-107 4079.34,-93.59 4077.7,-80.75 4067,-66 4044.69,-35.23 4002.9,-23.05 3968.63,-18.38"/>
<polygon fill="#63b8ff" stroke="#63b8ff" points="2156.85,-218.1 2146.92,-221.81 2157,-225.1 2156.85,-218.1"/>
</g>
<!-- Node4 -->
<g id="node4" class="node">
<title>Node4</title>
<g id="a_node4"><a xlink:href="d__a__npc_8h.html" target="_top" xlink:title=" ">
<polygon fill="#fff0f0" stroke="red" points="3829.5,-24.5 3718.5,-24.5 3718.5,-5.5 3829.5,-5.5 3829.5,-24.5"/>
<text text-anchor="middle" x="3774" y="-12.5" font-family="Helvetica,sans-Serif" font-size="10.00">include/d/a/d_a_npc.h</text>
</a>
</g>
</g>
<!-- Node3&#45;&gt;Node4 -->
<g id="edge3" class="edge">
<title>Node3&#45;&gt;Node4</title>
<path fill="none" stroke="#63b8ff" d="M2023.61,-156.73C2309.55,-155.33 3425.46,-147.32 3577,-107 3614.47,-97.03 3618.96,-82.59 3654,-66 3687.05,-50.36 3726.32,-34.49 3750.71,-24.95"/>
<polygon fill="#63b8ff" stroke="#63b8ff" points="2023.69,-153.23 2013.71,-156.78 2023.73,-160.23 2023.69,-153.23"/>
</g>
<!-- Node10 -->
<g id="node5" class="node">
<title>Node10</title>
<g id="a_node5"><a xlink:href="d__cc__uty_8h.html" target="_top" xlink:title=" ">
<polygon fill="#fff0f0" stroke="red" points="476.5,-96 357.5,-96 357.5,-77 476.5,-77 476.5,-96"/>
<text text-anchor="middle" x="417" y="-84" font-family="Helvetica,sans-Serif" font-size="10.00">include/d/cc/d_cc_uty.h</text>
</a>
</g>
</g>
<!-- Node3&#45;&gt;Node10 -->
<g id="edge4" class="edge">
<title>Node3&#45;&gt;Node10</title>
<path fill="none" stroke="#63b8ff" d="M1890.22,-156.4C1642.42,-153.91 775.84,-142.78 502,-107 484.44,-104.7 465.17,-100.43 449.43,-96.47"/>
<polygon fill="#63b8ff" stroke="#63b8ff" points="1890,-159.9 1900.03,-156.5 1890.07,-152.9 1890,-159.9"/>
</g>
<!-- Node11 -->
<g id="node6" class="node">
<title>Node11</title>
<g id="a_node6"><a xlink:href="d__a__b__ob_8h.html" target="_top" xlink:title=" ">
<polygon fill="#fff0f0" stroke="red" points="234,-30 128,-30 128,0 234,0 234,-30"/>
<text text-anchor="start" x="136" y="-18" font-family="Helvetica,sans-Serif" font-size="10.00">include/rel/d/a/b/d</text>
<text text-anchor="middle" x="181" y="-7" font-family="Helvetica,sans-Serif" font-size="10.00">_a_b_ob/d_a_b_ob.h</text>
</a>
</g>
</g>
<!-- Node3&#45;&gt;Node11 -->
<g id="edge38" class="edge">
<title>Node3&#45;&gt;Node11</title>
<path fill="none" stroke="#63b8ff" d="M1890.71,-157.18C1602.43,-157.66 465.44,-156.39 314,-107 265.59,-91.21 218.79,-51.88 195.78,-30.46"/>
<polygon fill="#63b8ff" stroke="#63b8ff" points="1890.3,-160.68 1900.3,-157.16 1890.29,-153.68 1890.3,-160.68"/>
</g>
<!-- Node17 -->
<g id="node7" class="node">
<title>Node17</title>
<g id="a_node7"><a xlink:href="d__a__e__yk_8h.html" target="_top" xlink:title=" ">
<polygon fill="white" stroke="#666666" points="356,-30 252,-30 252,0 356,0 356,-30"/>
<text text-anchor="start" x="260" y="-18" font-family="Helvetica,sans-Serif" font-size="10.00">include/rel/d/a/e/d</text>
<text text-anchor="middle" x="304" y="-7" font-family="Helvetica,sans-Serif" font-size="10.00">_a_e_yk/d_a_e_yk.h</text>
</a>
</g>
</g>
<!-- Node3&#45;&gt;Node17 -->
<g id="edge51" class="edge">
<title>Node3&#45;&gt;Node17</title>
<path fill="none" stroke="#63b8ff" d="M1890.48,-156.85C1595.08,-155.93 413.6,-149.58 348,-107 321.36,-89.71 310.39,-51.38 306.26,-30.4"/>
<polygon fill="#63b8ff" stroke="#63b8ff" points="1890.32,-160.35 1900.33,-156.88 1890.34,-153.35 1890.32,-160.35"/>
</g>
<!-- Node19 -->
<g id="node9" class="node">
<title>Node19</title>
<g id="a_node9"><a xlink:href="d__error__msg_8h.html" target="_top" xlink:title=" ">
<polygon fill="#fff0f0" stroke="red" points="834,-96 714,-96 714,-77 834,-77 834,-96"/>
<text text-anchor="middle" x="774" y="-84" font-family="Helvetica,sans-Serif" font-size="10.00">include/d/d_error_msg.h</text>
</a>
</g>
</g>
<!-- Node3&#45;&gt;Node19 -->
<g id="edge8" class="edge">
<title>Node3&#45;&gt;Node19</title>
<path fill="none" stroke="#63b8ff" d="M1890.42,-156.02C1682.42,-152.66 1046.52,-139.87 843,-107 828.62,-104.68 812.97,-100.4 800.22,-96.45"/>
<polygon fill="#63b8ff" stroke="#63b8ff" points="1890.18,-159.52 1900.24,-156.18 1890.3,-152.52 1890.18,-159.52"/>
</g>
<!-- Node22 -->
<g id="node10" class="node">
<title>Node22</title>
<g id="a_node10"><a xlink:href="d__item_8h.html" target="_top" xlink:title=" ">
<polygon fill="#fff0f0" stroke="red" points="3757.5,-96 3662.5,-96 3662.5,-77 3757.5,-77 3757.5,-96"/>
<text text-anchor="middle" x="3710" y="-84" font-family="Helvetica,sans-Serif" font-size="10.00">include/d/d_item.h</text>
</a>
</g>
</g>
<!-- Node3&#45;&gt;Node22 -->
<g id="edge9" class="edge">
<title>Node3&#45;&gt;Node22</title>
<path fill="none" stroke="#63b8ff" d="M2023.69,-156.43C2292.2,-153.9 3294.76,-142.27 3610,-107 3630.57,-104.7 3653.22,-100.43 3671.76,-96.47"/>
<polygon fill="#63b8ff" stroke="#63b8ff" points="2023.69,-152.93 2013.72,-156.52 2023.75,-159.93 2023.69,-152.93"/>
</g>
<!-- Node3&#45;&gt;Node15 -->
<g id="edge53" class="edge">
<title>Node3&#45;&gt;Node15</title>
<path fill="none" stroke="#63b8ff" d="M2023.76,-156.41C2360.51,-153.27 3858.31,-137.62 3895,-107 3919.54,-86.53 3917.48,-43.29 3915.29,-24.74"/>
<polygon fill="#63b8ff" stroke="#63b8ff" points="2023.75,-152.91 2013.78,-156.5 2023.82,-159.91 2023.75,-152.91"/>
</g>
<!-- Node27 -->
<g id="node13" class="node">
<title>Node27</title>
<g id="a_node13"><a xlink:href="d__kantera__icon__meter_8h.html" target="_top" xlink:title=" ">
<polygon fill="#fff0f0" stroke="red" points="953.5,-101.5 852.5,-101.5 852.5,-71.5 953.5,-71.5 953.5,-101.5"/>
<text text-anchor="start" x="860.5" y="-89.5" font-family="Helvetica,sans-Serif" font-size="10.00">include/d/d_kantera</text>
<text text-anchor="middle" x="903" y="-78.5" font-family="Helvetica,sans-Serif" font-size="10.00">_icon_meter.h</text>
</a>
</g>
</g>
<!-- Node3&#45;&gt;Node27 -->
<g id="edge12" class="edge">
<title>Node3&#45;&gt;Node27</title>
<path fill="none" stroke="#63b8ff" d="M1890.47,-155.72C1698.52,-151.71 1146.06,-137.75 968,-107 960.8,-105.76 953.28,-103.97 946.01,-101.98"/>
<polygon fill="#63b8ff" stroke="#63b8ff" points="1890.2,-159.22 1900.27,-155.93 1890.34,-152.22 1890.2,-159.22"/>
</g>
<!-- Node30 -->
<g id="node14" class="node">
<title>Node30</title>
<g id="a_node14"><a xlink:href="d__model_8h.html" target="_top" xlink:title=" ">
<polygon fill="#fff0f0" stroke="red" points="3567.5,-96 3464.5,-96 3464.5,-77 3567.5,-77 3567.5,-96"/>
<text text-anchor="middle" x="3516" y="-84" font-family="Helvetica,sans-Serif" font-size="10.00">include/d/d_model.h</text>
</a>
</g>
</g>
<!-- Node3&#45;&gt;Node30 -->
<g id="edge13" class="edge">
<title>Node3&#45;&gt;Node30</title>
<path fill="none" stroke="#63b8ff" d="M2023.41,-157.26C2275.72,-157.85 3174.84,-156.36 3456,-107 3468.73,-104.77 3482.47,-100.45 3493.59,-96.44"/>
<polygon fill="#63b8ff" stroke="#63b8ff" points="2023.76,-153.76 2013.75,-157.23 2023.74,-160.76 2023.76,-153.76"/>
</g>
<!-- Node32 -->
<g id="node15" class="node">
<title>Node32</title>
<g id="a_node15"><a xlink:href="d__name_8h.html" target="_top" xlink:title=" ">
<polygon fill="#fff0f0" stroke="red" points="3446.5,-96 3345.5,-96 3345.5,-77 3446.5,-77 3446.5,-96"/>
<text text-anchor="middle" x="3396" y="-84" font-family="Helvetica,sans-Serif" font-size="10.00">include/d/d_name.h</text>
</a>
</g>
</g>
<!-- Node3&#45;&gt;Node32 -->
<g id="edge15" class="edge">
<title>Node3&#45;&gt;Node32</title>
<path fill="none" stroke="#63b8ff" d="M2023.71,-156.82C2262.62,-155.83 3074.97,-149.35 3331,-107 3344.72,-104.73 3359.6,-100.41 3371.66,-96.41"/>
<polygon fill="#63b8ff" stroke="#63b8ff" points="2023.93,-153.32 2013.95,-156.86 2023.96,-160.32 2023.93,-153.32"/>
</g>
<!-- Node33 -->
<g id="node16" class="node">
<title>Node33</title>
<g id="a_node16"><a xlink:href="d__file__select_8h.html" target="_top" xlink:title=" ">
<polygon fill="#fff0f0" stroke="red" points="3365,-30 3269,-30 3269,0 3365,0 3365,-30"/>
<text text-anchor="start" x="3277" y="-18" font-family="Helvetica,sans-Serif" font-size="10.00">include/d/file/d_file</text>
<text text-anchor="middle" x="3317" y="-7" font-family="Helvetica,sans-Serif" font-size="10.00">_select.h</text>
</a>
</g>
</g>
<!-- Node3&#45;&gt;Node33 -->
<g id="edge20" class="edge">
<title>Node3&#45;&gt;Node33</title>
<path fill="none" stroke="#63b8ff" d="M2023.59,-156.78C2287.62,-155.6 3248.88,-148.46 3298,-107 3320.2,-88.26 3320.57,-50.88 3318.84,-30.34"/>
<polygon fill="#63b8ff" stroke="#63b8ff" points="2023.78,-153.27 2013.8,-156.82 2023.81,-160.27 2023.78,-153.27"/>
</g>
<!-- Node36 -->
<g id="node17" class="node">
<title>Node36</title>
<g id="a_node17"><a xlink:href="d__file__sel__info_8h.html" target="_top" xlink:title=" ">
<polygon fill="#fff0f0" stroke="red" points="1144,-101.5 1048,-101.5 1048,-71.5 1144,-71.5 1144,-101.5"/>
<text text-anchor="start" x="1056" y="-89.5" font-family="Helvetica,sans-Serif" font-size="10.00">include/d/file/d_file</text>
<text text-anchor="middle" x="1096" y="-78.5" font-family="Helvetica,sans-Serif" font-size="10.00">_sel_info.h</text>
</a>
</g>
</g>
<!-- Node3&#45;&gt;Node36 -->
<g id="edge17" class="edge">
<title>Node3&#45;&gt;Node36</title>
<path fill="none" stroke="#63b8ff" d="M1890.52,-155.15C1724.24,-150.17 1293.55,-134.89 1153,-107 1146.64,-105.74 1140.02,-103.94 1133.63,-101.95"/>
<polygon fill="#63b8ff" stroke="#63b8ff" points="1889.95,-158.64 1900.05,-155.44 1890.16,-151.64 1889.95,-158.64"/>
</g>
<!-- Node39 -->
<g id="node18" class="node">
<title>Node39</title>
<g id="a_node18"><a xlink:href="d__file__sel__warning_8h.html" target="_top" xlink:title=" ">
<polygon fill="#fff0f0" stroke="red" points="3289,-101.5 3193,-101.5 3193,-71.5 3289,-71.5 3289,-101.5"/>
<text text-anchor="start" x="3201" y="-89.5" font-family="Helvetica,sans-Serif" font-size="10.00">include/d/file/d_file</text>
<text text-anchor="middle" x="3241" y="-78.5" font-family="Helvetica,sans-Serif" font-size="10.00">_sel_warning.h</text>
</a>
</g>
</g>
<!-- Node3&#45;&gt;Node39 -->
<g id="edge18" class="edge">
<title>Node3&#45;&gt;Node39</title>
<path fill="none" stroke="#63b8ff" d="M2023.85,-156.76C2245.94,-155.58 2957.78,-148.58 3183,-107 3189.58,-105.79 3196.44,-103.99 3203.03,-101.97"/>
<polygon fill="#63b8ff" stroke="#63b8ff" points="2023.9,-153.26 2013.92,-156.81 2023.94,-160.26 2023.9,-153.26"/>
</g>
<!-- Node41 -->
<g id="node19" class="node">
<title>Node41</title>
<g id="a_node19"><a xlink:href="d__menu__calibration_8h.html" target="_top" xlink:title=" ">
<polygon fill="#fff0f0" stroke="red" points="1282,-101.5 1162,-101.5 1162,-71.5 1282,-71.5 1282,-101.5"/>
<text text-anchor="start" x="1170" y="-89.5" font-family="Helvetica,sans-Serif" font-size="10.00">include/d/menu/d_menu</text>
<text text-anchor="middle" x="1222" y="-78.5" font-family="Helvetica,sans-Serif" font-size="10.00">_calibration.h</text>
</a>
</g>
</g>
<!-- Node3&#45;&gt;Node41 -->
<g id="edge21" class="edge">
<title>Node3&#45;&gt;Node41</title>
<path fill="none" stroke="#63b8ff" d="M1890.5,-156.4C1770.04,-154.35 1508.07,-145.42 1291,-107 1283.65,-105.7 1275.95,-103.94 1268.47,-102"/>
<polygon fill="#63b8ff" stroke="#63b8ff" points="1890.15,-159.9 1900.2,-156.56 1890.26,-152.9 1890.15,-159.9"/>
</g>
<!-- Node43 -->
<g id="node20" class="node">
<title>Node43</title>
<g id="a_node20"><a xlink:href="d__meter2_8h.html" target="_top" xlink:title=" ">
<polygon fill="#fff0f0" stroke="red" points="1434,-96 1300,-96 1300,-77 1434,-77 1434,-96"/>
<text text-anchor="middle" x="1367" y="-84" font-family="Helvetica,sans-Serif" font-size="10.00">include/d/meter/d_meter2.h</text>
</a>
</g>
</g>
<!-- Node3&#45;&gt;Node43 -->
<g id="edge22" class="edge">
<title>Node3&#45;&gt;Node43</title>
<path fill="none" stroke="#63b8ff" d="M1890.61,-153.82C1792.24,-148.37 1602.26,-135.01 1443,-107 1427.84,-104.33 1411.26,-100.22 1397.46,-96.46"/>
<polygon fill="#63b8ff" stroke="#63b8ff" points="1890.17,-157.3 1900.34,-154.35 1890.55,-150.31 1890.17,-157.3"/>
</g>
<!-- Node53 -->
<g id="node21" class="node">
<title>Node53</title>
<g id="a_node21"><a xlink:href="d__msg__object_8h.html" target="_top" xlink:title=" ">
<polygon fill="#fff0f0" stroke="red" points="3886,-101.5 3776,-101.5 3776,-71.5 3886,-71.5 3886,-101.5"/>
<text text-anchor="start" x="3784" y="-89.5" font-family="Helvetica,sans-Serif" font-size="10.00">include/d/msg/d_msg</text>
<text text-anchor="middle" x="3831" y="-78.5" font-family="Helvetica,sans-Serif" font-size="10.00">_object.h</text>
</a>
</g>
</g>
<!-- Node3&#45;&gt;Node53 -->
<g id="edge23" class="edge">
<title>Node3&#45;&gt;Node53</title>
<path fill="none" stroke="#63b8ff" d="M2023.6,-156.22C2329.53,-152.48 3592.69,-135.43 3767,-107 3774.34,-105.8 3782.01,-103.99 3789.38,-101.93"/>
<polygon fill="#63b8ff" stroke="#63b8ff" points="2023.74,-152.71 2013.79,-156.34 2023.83,-159.71 2023.74,-152.71"/>
</g>
<!-- Node72 -->
<g id="node22" class="node">
<title>Node72</title>
<g id="a_node22"><a xlink:href="d__s__logo_8h.html" target="_top" xlink:title=" ">
<polygon fill="#fff0f0" stroke="red" points="1565.5,-96 1452.5,-96 1452.5,-77 1565.5,-77 1565.5,-96"/>
<text text-anchor="middle" x="1509" y="-84" font-family="Helvetica,sans-Serif" font-size="10.00">include/d/s/d_s_logo.h</text>
</a>
</g>
</g>
<!-- Node3&#45;&gt;Node72 -->
<g id="edge27" class="edge">
<title>Node3&#45;&gt;Node72</title>
<path fill="none" stroke="#63b8ff" d="M1890.25,-151.58C1813.39,-144.59 1683.62,-130.44 1574,-107 1561.1,-104.24 1547.04,-100.16 1535.31,-96.45"/>
<polygon fill="#63b8ff" stroke="#63b8ff" points="1889.88,-155.06 1900.15,-152.47 1890.51,-148.09 1889.88,-155.06"/>
</g>
<!-- Node3&#45;&gt;Node74 -->
<g id="edge28" class="edge">
<title>Node3&#45;&gt;Node74</title>
<path fill="none" stroke="#63b8ff" d="M1890.12,-156.42C1661.24,-154.11 910.28,-143.86 672,-107 657.22,-104.71 641.12,-100.44 627.99,-96.48"/>
<polygon fill="#63b8ff" stroke="#63b8ff" points="1890.04,-159.92 1900.07,-156.52 1890.1,-152.92 1890.04,-159.92"/>
</g>
<!-- Node75 -->
<g id="node24" class="node">
<title>Node75</title>
<g id="a_node24"><a xlink:href="d__eye__hl_8cpp.html" target="_top" xlink:title=" ">
<polygon fill="white" stroke="#666666" points="1168,-24.5 1070,-24.5 1070,-5.5 1168,-5.5 1168,-24.5"/>
<text text-anchor="middle" x="1119" y="-12.5" font-family="Helvetica,sans-Serif" font-size="10.00">src/d/d_eye_hl.cpp</text>
</a>
</g>
</g>
<!-- Node3&#45;&gt;Node75 -->
<g id="edge54" class="edge">
<title>Node3&#45;&gt;Node75</title>
<path fill="none" stroke="#63b8ff" d="M1890.4,-155.85C1684.17,-151.98 1068.22,-137.85 1039,-107 1026.47,-93.77 1030.17,-81.94 1039,-66 1050.2,-45.8 1073.33,-32.68 1091.85,-24.98"/>
<polygon fill="#63b8ff" stroke="#63b8ff" points="1890.07,-159.35 1900.13,-156.03 1890.2,-152.35 1890.07,-159.35"/>
</g>
<!-- Node3&#45;&gt;Node76 -->
<g id="edge55" class="edge">
<title>Node3&#45;&gt;Node76</title>
<path fill="none" stroke="#63b8ff" d="M1890.28,-156.75C1593.42,-155.42 400.11,-147.58 238,-107 169.5,-89.85 96.92,-44.38 67.99,-24.98"/>
<polygon fill="#63b8ff" stroke="#63b8ff" points="1890.16,-160.25 1900.18,-156.8 1890.19,-153.25 1890.16,-160.25"/>
</g>
<!-- Node77 -->
<g id="node26" class="node">
<title>Node77</title>
<g id="a_node26"><a xlink:href="f__op__actor_8cpp.html" target="_top" xlink:title=" ">
<polygon fill="white" stroke="#666666" points="623.5,-24.5 504.5,-24.5 504.5,-5.5 623.5,-5.5 623.5,-24.5"/>
<text text-anchor="middle" x="564" y="-12.5" font-family="Helvetica,sans-Serif" font-size="10.00">src/f_op/f_op_actor.cpp</text>
</a>
</g>
</g>
<!-- Node3&#45;&gt;Node77 -->
<g id="edge56" class="edge">
<title>Node3&#45;&gt;Node77</title>
<path fill="none" stroke="#63b8ff" d="M1890.24,-157.2C1615.28,-157.7 582.57,-156.28 535,-107 512.43,-83.62 541.42,-42.7 556.25,-24.8"/>
<polygon fill="#63b8ff" stroke="#63b8ff" points="1890.11,-160.7 1900.1,-157.18 1890.1,-153.7 1890.11,-160.7"/>
</g>
<!-- Node78 -->
<g id="node27" class="node">
<title>Node78</title>
<g id="a_node27"><a xlink:href="f__op__camera_8cpp.html" target="_top" xlink:title=" ">
<polygon fill="white" stroke="#666666" points="905.5,-24.5 776.5,-24.5 776.5,-5.5 905.5,-5.5 905.5,-24.5"/>
<text text-anchor="middle" x="841" y="-12.5" font-family="Helvetica,sans-Serif" font-size="10.00">src/f_op/f_op_camera.cpp</text>
</a>
</g>
</g>
<!-- Node3&#45;&gt;Node78 -->
<g id="edge57" class="edge">
<title>Node3&#45;&gt;Node78</title>
<path fill="none" stroke="#63b8ff" d="M1890.43,-156.87C1637.24,-156.03 746.35,-150.04 705,-107 692.37,-93.86 694.57,-80.94 705,-66 716.48,-49.55 766.45,-34.19 802.49,-24.94"/>
<polygon fill="#63b8ff" stroke="#63b8ff" points="1890.12,-160.36 1900.13,-156.9 1890.14,-153.36 1890.12,-160.36"/>
</g>
<!-- Node79 -->
<g id="node28" class="node">
<title>Node79</title>
<g id="a_node28"><a xlink:href="f__op__kankyo_8cpp.html" target="_top" xlink:title=" ">
<polygon fill="white" stroke="#666666" points="1052,-24.5 924,-24.5 924,-5.5 1052,-5.5 1052,-24.5"/>
<text text-anchor="middle" x="988" y="-12.5" font-family="Helvetica,sans-Serif" font-size="10.00">src/f_op/f_op_kankyo.cpp</text>
</a>
</g>
</g>
<!-- Node3&#45;&gt;Node79 -->
<g id="edge58" class="edge">
<title>Node3&#45;&gt;Node79</title>
<path fill="none" stroke="#63b8ff" d="M1890.28,-157.43C1688.99,-158.16 1097.25,-156.08 1027,-107 999.1,-87.51 991.03,-43.73 988.8,-24.9"/>
<polygon fill="#63b8ff" stroke="#63b8ff" points="1890.05,-160.93 1900.04,-157.39 1890.02,-153.93 1890.05,-160.93"/>
</g>
<!-- Node81 -->
<g id="node30" class="node">
<title>Node81</title>
<g id="a_node30"><a xlink:href="d__msg__scrn__base_8h.html" target="_top" xlink:title=" ">
<polygon fill="#fff0f0" stroke="red" points="1682.5,-101.5 1583.5,-101.5 1583.5,-71.5 1682.5,-71.5 1682.5,-101.5"/>
<text text-anchor="start" x="1591.5" y="-89.5" font-family="Helvetica,sans-Serif" font-size="10.00">include/msg/scrn/d</text>
<text text-anchor="middle" x="1633" y="-78.5" font-family="Helvetica,sans-Serif" font-size="10.00">_msg_scrn_base.h</text>
</a>
</g>
</g>
<!-- Node3&#45;&gt;Node81 -->
<g id="edge37" class="edge">
<title>Node3&#45;&gt;Node81</title>
<path fill="none" stroke="#63b8ff" d="M1890.56,-147.14C1836.41,-138.47 1758.18,-124.52 1691,-107 1685.35,-105.53 1679.44,-103.78 1673.66,-101.96"/>
<polygon fill="#63b8ff" stroke="#63b8ff" points="1889.82,-150.56 1900.25,-148.67 1890.92,-143.65 1889.82,-150.56"/>
</g>
<!-- Node85 -->
<g id="node31" class="node">
<title>Node85</title>
<g id="a_node31"><a xlink:href="d__a__b__zant_8h.html" target="_top" xlink:title=" ">
<polygon fill="white" stroke="#666666" points="1821.5,-101.5 1700.5,-101.5 1700.5,-71.5 1821.5,-71.5 1821.5,-101.5"/>
<text text-anchor="start" x="1708.5" y="-89.5" font-family="Helvetica,sans-Serif" font-size="10.00">include/rel/d/a/b/d</text>
<text text-anchor="middle" x="1761" y="-78.5" font-family="Helvetica,sans-Serif" font-size="10.00">_a_b_zant/d_a_b_zant.h</text>
</a>
</g>
</g>
<!-- Node3&#45;&gt;Node85 -->
<g id="edge39" class="edge">
<title>Node3&#45;&gt;Node85</title>
<path fill="none" stroke="#63b8ff" d="M1905.74,-138.82C1873.23,-127.3 1831.77,-112.59 1801.56,-101.88"/>
<polygon fill="#63b8ff" stroke="#63b8ff" points="1904.37,-142.05 1914.96,-142.09 1906.71,-135.45 1904.37,-142.05"/>
</g>
<!-- Node86 -->
<g id="node32" class="node">
<title>Node86</title>
<g id="a_node32"><a xlink:href="d__a__andsw_8h.html" target="_top" xlink:title=" ">
<polygon fill="white" stroke="#666666" points="1950,-101.5 1840,-101.5 1840,-71.5 1950,-71.5 1950,-101.5"/>
<text text-anchor="start" x="1848" y="-89.5" font-family="Helvetica,sans-Serif" font-size="10.00">include/rel/d/a/d_a</text>
<text text-anchor="middle" x="1895" y="-78.5" font-family="Helvetica,sans-Serif" font-size="10.00">_andsw/d_a_andsw.h</text>
</a>
</g>
</g>
<!-- Node3&#45;&gt;Node86 -->
<g id="edge40" class="edge">
<title>Node3&#45;&gt;Node86</title>
<path fill="none" stroke="#63b8ff" d="M1936.63,-134.17C1927.14,-123.53 1916.14,-111.2 1907.83,-101.88"/>
<polygon fill="#63b8ff" stroke="#63b8ff" points="1933.88,-136.34 1943.15,-141.47 1939.1,-131.68 1933.88,-136.34"/>
</g>
<!-- Node87 -->
<g id="node33" class="node">
<title>Node87</title>
<g id="a_node33"><a xlink:href="d__a__cstaF_8h.html" target="_top" xlink:title=" ">
<polygon fill="white" stroke="#666666" points="2071.5,-101.5 1968.5,-101.5 1968.5,-71.5 2071.5,-71.5 2071.5,-101.5"/>
<text text-anchor="start" x="1976.5" y="-89.5" font-family="Helvetica,sans-Serif" font-size="10.00">include/rel/d/a/d_a</text>
<text text-anchor="middle" x="2020" y="-78.5" font-family="Helvetica,sans-Serif" font-size="10.00">_cstaF/d_a_cstaF.h</text>
</a>
</g>
</g>
<!-- Node3&#45;&gt;Node87 -->
<g id="edge41" class="edge">
<title>Node3&#45;&gt;Node87</title>
<path fill="none" stroke="#63b8ff" d="M1977.7,-134.17C1987.34,-123.53 1998.52,-111.2 2006.96,-101.88"/>
<polygon fill="#63b8ff" stroke="#63b8ff" points="1975.19,-131.72 1971.07,-141.48 1980.38,-136.42 1975.19,-131.72"/>
</g>
<!-- Node88 -->
<g id="node34" class="node">
<title>Node88</title>
<g id="a_node34"><a xlink:href="d__a__dmidna_8h.html" target="_top" xlink:title=" ">
<polygon fill="white" stroke="#666666" points="2206,-101.5 2090,-101.5 2090,-71.5 2206,-71.5 2206,-101.5"/>
<text text-anchor="start" x="2098" y="-89.5" font-family="Helvetica,sans-Serif" font-size="10.00">include/rel/d/a/d_a</text>
<text text-anchor="middle" x="2148" y="-78.5" font-family="Helvetica,sans-Serif" font-size="10.00">_dmidna/d_a_dmidna.h</text>
</a>
</g>
</g>
<!-- Node3&#45;&gt;Node88 -->
<g id="edge42" class="edge">
<title>Node3&#45;&gt;Node88</title>
<path fill="none" stroke="#63b8ff" d="M2007.37,-138.67C2038.98,-127.17 2079.16,-112.55 2108.48,-101.88"/>
<polygon fill="#63b8ff" stroke="#63b8ff" points="2006.2,-135.37 1998,-142.08 2008.59,-141.95 2006.2,-135.37"/>
</g>
<!-- Node89 -->
<g id="node35" class="node">
<title>Node89</title>
<g id="a_node35"><a xlink:href="d__a__econt_8h.html" target="_top" xlink:title=" ">
<polygon fill="white" stroke="#666666" points="2325.5,-101.5 2224.5,-101.5 2224.5,-71.5 2325.5,-71.5 2325.5,-101.5"/>
<text text-anchor="start" x="2232.5" y="-89.5" font-family="Helvetica,sans-Serif" font-size="10.00">include/rel/d/a/d_a</text>
<text text-anchor="middle" x="2275" y="-78.5" font-family="Helvetica,sans-Serif" font-size="10.00">_econt/d_a_econt.h</text>
</a>
</g>
</g>
<!-- Node3&#45;&gt;Node89 -->
<g id="edge43" class="edge">
<title>Node3&#45;&gt;Node89</title>
<path fill="none" stroke="#63b8ff" d="M2023.46,-146.43C2075.86,-137.54 2150.59,-123.64 2215,-107 2220.73,-105.52 2226.71,-103.8 2232.58,-102"/>
<polygon fill="#63b8ff" stroke="#63b8ff" points="2023.07,-142.95 2013.79,-148.06 2024.23,-149.85 2023.07,-142.95"/>
</g>
<!-- Node90 -->
<g id="node36" class="node">
<title>Node90</title>
<g id="a_node36"><a xlink:href="d__a__guard__mng_8h.html" target="_top" xlink:title=" ">
<polygon fill="white" stroke="#666666" points="2492.5,-101.5 2343.5,-101.5 2343.5,-71.5 2492.5,-71.5 2492.5,-101.5"/>
<text text-anchor="start" x="2351.5" y="-89.5" font-family="Helvetica,sans-Serif" font-size="10.00">include/rel/d/a/d_a</text>
<text text-anchor="middle" x="2418" y="-78.5" font-family="Helvetica,sans-Serif" font-size="10.00">_guard_mng/d_a_guard_mng.h</text>
</a>
</g>
</g>
<!-- Node3&#45;&gt;Node90 -->
<g id="edge44" class="edge">
<title>Node3&#45;&gt;Node90</title>
<path fill="none" stroke="#63b8ff" d="M2023.42,-150.15C2098.97,-141.9 2225.87,-126.67 2334,-107 2342.1,-105.53 2350.6,-103.79 2358.95,-101.96"/>
<polygon fill="#63b8ff" stroke="#63b8ff" points="2023.27,-146.64 2013.71,-151.2 2024.03,-153.6 2023.27,-146.64"/>
</g>
<!-- Node91 -->
<g id="node37" class="node">
<title>Node91</title>
<g id="a_node37"><a xlink:href="d__a__hitobj_8h.html" target="_top" xlink:title=" ">
<polygon fill="white" stroke="#666666" points="2611,-101.5 2511,-101.5 2511,-71.5 2611,-71.5 2611,-101.5"/>
<text text-anchor="start" x="2519" y="-89.5" font-family="Helvetica,sans-Serif" font-size="10.00">include/rel/d/a/d_a</text>
<text text-anchor="middle" x="2561" y="-78.5" font-family="Helvetica,sans-Serif" font-size="10.00">_hitobj/d_a_hitobj.h</text>
</a>
</g>
</g>
<!-- Node3&#45;&gt;Node91 -->
<g id="edge45" class="edge">
<title>Node3&#45;&gt;Node91</title>
<path fill="none" stroke="#63b8ff" d="M2023.91,-155.63C2127.25,-152.44 2331.49,-141.88 2501,-107 2507.44,-105.68 2514.15,-103.9 2520.66,-101.96"/>
<polygon fill="#63b8ff" stroke="#63b8ff" points="2023.82,-152.13 2013.93,-155.92 2024.03,-159.13 2023.82,-152.13"/>
</g>
<!-- Node92 -->
<g id="node38" class="node">
<title>Node92</title>
<g id="a_node38"><a xlink:href="d__a__set__bgobj_8h.html" target="_top" xlink:title=" ">
<polygon fill="white" stroke="#666666" points="2766.5,-101.5 2629.5,-101.5 2629.5,-71.5 2766.5,-71.5 2766.5,-101.5"/>
<text text-anchor="start" x="2637.5" y="-89.5" font-family="Helvetica,sans-Serif" font-size="10.00">include/rel/d/a/d_a</text>
<text text-anchor="middle" x="2698" y="-78.5" font-family="Helvetica,sans-Serif" font-size="10.00">_set_bgobj/d_a_set_bgobj.h</text>
</a>
</g>
</g>
<!-- Node3&#45;&gt;Node92 -->
<g id="edge46" class="edge">
<title>Node3&#45;&gt;Node92</title>
<path fill="none" stroke="#63b8ff" d="M2023.54,-155.71C2143.49,-152.56 2403.63,-141.95 2620,-107 2628.27,-105.66 2636.94,-103.88 2645.39,-101.94"/>
<polygon fill="#63b8ff" stroke="#63b8ff" points="2023.8,-152.2 2013.89,-155.95 2023.98,-159.2 2023.8,-152.2"/>
</g>
<!-- Node93 -->
<g id="node39" class="node">
<title>Node93</title>
<g id="a_node39"><a xlink:href="d__a__skip__2D_8h.html" target="_top" xlink:title=" ">
<polygon fill="white" stroke="#666666" points="2909,-101.5 2785,-101.5 2785,-71.5 2909,-71.5 2909,-101.5"/>
<text text-anchor="start" x="2793" y="-89.5" font-family="Helvetica,sans-Serif" font-size="10.00">include/rel/d/a/d_a</text>
<text text-anchor="middle" x="2847" y="-78.5" font-family="Helvetica,sans-Serif" font-size="10.00">_skip_2D/d_a_skip_2D.h</text>
</a>
</g>
</g>
<!-- Node3&#45;&gt;Node93 -->
<g id="edge47" class="edge">
<title>Node3&#45;&gt;Node93</title>
<path fill="none" stroke="#63b8ff" d="M2023.84,-157.49C2164.06,-157.53 2498.81,-152.36 2775,-107 2782.8,-105.72 2790.96,-103.94 2798.88,-101.98"/>
<polygon fill="#63b8ff" stroke="#63b8ff" points="2024,-154 2014,-157.48 2023.99,-161 2024,-154"/>
</g>
<!-- Node94 -->
<g id="node40" class="node">
<title>Node94</title>
<g id="a_node40"><a xlink:href="d__a__spinner_8h.html" target="_top" xlink:title=" ">
<polygon fill="#fff0f0" stroke="red" points="4058,-101.5 3942,-101.5 3942,-71.5 4058,-71.5 4058,-101.5"/>
<text text-anchor="start" x="3950" y="-89.5" font-family="Helvetica,sans-Serif" font-size="10.00">include/rel/d/a/d_a</text>
<text text-anchor="middle" x="4000" y="-78.5" font-family="Helvetica,sans-Serif" font-size="10.00">_spinner/d_a_spinner.h</text>
</a>
</g>
</g>
<!-- Node3&#45;&gt;Node94 -->
<g id="edge48" class="edge">
<title>Node3&#45;&gt;Node94</title>
<path fill="none" stroke="#63b8ff" d="M2023.63,-156.26C2346.04,-152.53 3736.56,-134.94 3928,-107 3936.2,-105.8 3944.8,-103.99 3953.09,-101.93"/>
<polygon fill="#63b8ff" stroke="#63b8ff" points="2023.64,-152.76 2013.68,-156.37 2023.72,-159.75 2023.64,-152.76"/>
</g>
<!-- Node97 -->
<g id="node41" class="node">
<title>Node97</title>
<g id="a_node41"><a xlink:href="d__a__swTime_8h.html" target="_top" xlink:title=" ">
<polygon fill="white" stroke="#666666" points="3049,-101.5 2927,-101.5 2927,-71.5 3049,-71.5 3049,-101.5"/>
<text text-anchor="start" x="2935" y="-89.5" font-family="Helvetica,sans-Serif" font-size="10.00">include/rel/d/a/d_a</text>
<text text-anchor="middle" x="2988" y="-78.5" font-family="Helvetica,sans-Serif" font-size="10.00">_swTime/d_a_swTime.h</text>
</a>
</g>
</g>
<!-- Node3&#45;&gt;Node97 -->
<g id="edge50" class="edge">
<title>Node3&#45;&gt;Node97</title>
<path fill="none" stroke="#63b8ff" d="M2023.87,-155.43C2212.34,-150.71 2745.4,-135.18 2918,-107 2925.72,-105.74 2933.81,-103.95 2941.63,-101.95"/>
<polygon fill="#63b8ff" stroke="#63b8ff" points="2023.91,-151.93 2014,-155.68 2024.08,-158.93 2023.91,-151.93"/>
</g>
<!-- Node98 -->
<g id="node42" class="node">
<title>Node98</title>
<g id="a_node42"><a xlink:href="d__a__obj__cboard_8h.html" target="_top" xlink:title=" ">
<polygon fill="white" stroke="#666666" points="3174.5,-107 3067.5,-107 3067.5,-66 3174.5,-66 3174.5,-107"/>
<text text-anchor="start" x="3075.5" y="-95" font-family="Helvetica,sans-Serif" font-size="10.00">include/rel/d/a/obj</text>
<text text-anchor="start" x="3075.5" y="-84" font-family="Helvetica,sans-Serif" font-size="10.00">/d_a_obj_cboard/d_a</text>
<text text-anchor="middle" x="3121" y="-73" font-family="Helvetica,sans-Serif" font-size="10.00">_obj_cboard.h</text>
</a>
</g>
</g>
<!-- Node3&#45;&gt;Node98 -->
<g id="edge52" class="edge">
<title>Node3&#45;&gt;Node98</title>
<path fill="none" stroke="#63b8ff" d="M2023.55,-156.2C2229.97,-153.35 2857.51,-141.99 3058,-107 3061.05,-106.47 3064.15,-105.83 3067.27,-105.12"/>
<polygon fill="#63b8ff" stroke="#63b8ff" points="2023.77,-152.69 2013.82,-156.33 2023.86,-159.69 2023.77,-152.69"/>
</g>
<!-- Node10&#45;&gt;Node11 -->
<g id="edge5" class="edge">
<title>Node10&#45;&gt;Node11</title>
<path fill="none" stroke="#63b8ff" d="M375.79,-73.36C335.22,-61.42 273.25,-43.17 230.14,-30.47"/>
<polygon fill="#63b8ff" stroke="#63b8ff" points="374.6,-76.66 385.18,-76.13 376.57,-69.95 374.6,-76.66"/>
</g>
<!-- Node10&#45;&gt;Node17 -->
<g id="edge6" class="edge">
<title>Node10&#45;&gt;Node17</title>
<path fill="none" stroke="#63b8ff" d="M393.06,-70.78C373.64,-58.83 346.43,-42.1 327.21,-30.27"/>
<polygon fill="#63b8ff" stroke="#63b8ff" points="391.05,-73.65 401.4,-75.9 394.71,-67.68 391.05,-73.65"/>
</g>
<!-- Node18 -->
<g id="node8" class="node">
<title>Node18</title>
<g id="a_node8"><a xlink:href="d__cc__uty_8cpp.html" target="_top" xlink:title=" ">
<polygon fill="white" stroke="#666666" points="486,-24.5 374,-24.5 374,-5.5 486,-5.5 486,-24.5"/>
<text text-anchor="middle" x="430" y="-12.5" font-family="Helvetica,sans-Serif" font-size="10.00">src/d/cc/d_cc_uty.cpp</text>
</a>
</g>
</g>
<!-- Node10&#45;&gt;Node18 -->
<g id="edge7" class="edge">
<title>Node10&#45;&gt;Node18</title>
<path fill="none" stroke="#63b8ff" d="M420.7,-65.71C423.21,-52.29 426.41,-35.2 428.33,-24.95"/>
<polygon fill="#63b8ff" stroke="#63b8ff" points="417.32,-64.74 418.92,-75.21 424.2,-66.02 417.32,-64.74"/>
</g>
<!-- Node22&#45;&gt;Node15 -->
<g id="edge10" class="edge">
<title>Node22&#45;&gt;Node15</title>
<path fill="none" stroke="#63b8ff" d="M3746.99,-72.83C3753.65,-70.56 3760.53,-68.21 3767,-66 3809.22,-51.6 3858.29,-34.92 3887.71,-24.93"/>
<polygon fill="#63b8ff" stroke="#63b8ff" points="3745.86,-69.52 3737.53,-76.07 3748.13,-76.14 3745.86,-69.52"/>
</g>
<!-- Node26 -->
<g id="node12" class="node">
<title>Node26</title>
<g id="a_node12"><a xlink:href="d__s__play_8cpp.html" target="_top" xlink:title=" ">
<polygon fill="white" stroke="#666666" points="3687,-24.5 3581,-24.5 3581,-5.5 3687,-5.5 3687,-24.5"/>
<text text-anchor="middle" x="3634" y="-12.5" font-family="Helvetica,sans-Serif" font-size="10.00">src/d/s/d_s_play.cpp</text>
</a>
</g>
</g>
<!-- Node22&#45;&gt;Node26 -->
<g id="edge11" class="edge">
<title>Node22&#45;&gt;Node26</title>
<path fill="none" stroke="#63b8ff" d="M3692.29,-69.31C3677.18,-55.49 3656.02,-36.14 3643.79,-24.95"/>
<polygon fill="#63b8ff" stroke="#63b8ff" points="3689.52,-71.51 3699.26,-75.68 3694.24,-66.35 3689.52,-71.51"/>
</g>
<!-- Node30&#45;&gt;Node26 -->
<g id="edge14" class="edge">
<title>Node30&#45;&gt;Node26</title>
<path fill="none" stroke="#63b8ff" d="M3540.59,-71.02C3564.16,-57.13 3599.01,-36.61 3618.8,-24.95"/>
<polygon fill="#63b8ff" stroke="#63b8ff" points="3539.09,-67.84 3532.25,-75.93 3542.64,-73.87 3539.09,-67.84"/>
</g>
<!-- Node32&#45;&gt;Node33 -->
<g id="edge16" class="edge">
<title>Node32&#45;&gt;Node33</title>
<path fill="none" stroke="#63b8ff" d="M3377.55,-69.27C3364.12,-57.45 3346.11,-41.61 3333.23,-30.27"/>
<polygon fill="#63b8ff" stroke="#63b8ff" points="3375.04,-71.72 3384.86,-75.7 3379.66,-66.46 3375.04,-71.72"/>
</g>
<!-- Node39&#45;&gt;Node33 -->
<g id="edge19" class="edge">
<title>Node39&#45;&gt;Node33</title>
<path fill="none" stroke="#63b8ff" d="M3264.93,-63.62C3276.79,-52.77 3290.78,-39.98 3301.27,-30.38"/>
<polygon fill="#63b8ff" stroke="#63b8ff" points="3262.88,-60.75 3257.86,-70.08 3267.61,-65.91 3262.88,-60.75"/>
</g>
<!-- Node53&#45;&gt;Node4 -->
<g id="edge24" class="edge">
<title>Node53&#45;&gt;Node4</title>
<path fill="none" stroke="#63b8ff" d="M3811.92,-62.24C3801.34,-49.33 3788.79,-34.04 3781.12,-24.68"/>
<polygon fill="#63b8ff" stroke="#63b8ff" points="3809.18,-64.42 3818.23,-69.93 3814.59,-59.98 3809.18,-64.42"/>
</g>
<!-- Node53&#45;&gt;Node15 -->
<g id="edge25" class="edge">
<title>Node53&#45;&gt;Node15</title>
<path fill="none" stroke="#63b8ff" d="M3857,-63.73C3872.77,-50.53 3892.02,-34.4 3903.63,-24.68"/>
<polygon fill="#63b8ff" stroke="#63b8ff" points="3854.78,-61.02 3849.36,-70.13 3859.27,-66.39 3854.78,-61.02"/>
</g>
<!-- Node53&#45;&gt;Node26 -->
<g id="edge26" class="edge">
<title>Node53&#45;&gt;Node26</title>
<path fill="none" stroke="#63b8ff" d="M3779.65,-67.38C3741.02,-53.76 3689.72,-35.66 3659.45,-24.98"/>
<polygon fill="#63b8ff" stroke="#63b8ff" points="3778.16,-70.57 3788.75,-70.6 3780.49,-63.97 3778.16,-70.57"/>
</g>
<!-- Node74&#45;&gt;Node18 -->
<g id="edge29" class="edge">
<title>Node74&#45;&gt;Node18</title>
<path fill="none" stroke="#63b8ff" d="M568.61,-72.34C534.43,-58.44 481.5,-36.93 451.92,-24.91"/>
<polygon fill="#63b8ff" stroke="#63b8ff" points="567.01,-75.46 577.59,-75.99 569.65,-68.98 567.01,-75.46"/>
</g>
<!-- Node74&#45;&gt;Node26 -->
<g id="edge31" class="edge">
<title>Node74&#45;&gt;Node26</title>
<path fill="none" stroke="#63b8ff" d="M650.68,-74.39C667.8,-71.04 687.16,-67.78 705,-66 1295.24,-7.13 2781.17,-49.95 3374,-30 3445.61,-27.59 3528.21,-22.8 3580.75,-19.5"/>
<polygon fill="#63b8ff" stroke="#63b8ff" points="650.38,-70.88 641.27,-76.29 651.76,-77.74 650.38,-70.88"/>
</g>
<!-- Node74&#45;&gt;Node75 -->
<g id="edge30" class="edge">
<title>Node74&#45;&gt;Node75</title>
<path fill="none" stroke="#63b8ff" d="M655.63,-74.36C671.51,-71.36 688.91,-68.32 705,-66 862.4,-43.33 904.23,-56.72 1061,-30 1068.86,-28.66 1077.24,-26.86 1085.12,-25"/>
<polygon fill="#63b8ff" stroke="#63b8ff" points="655.03,-70.91 645.87,-76.23 656.35,-77.79 655.03,-70.91"/>
</g>
<!-- Node74&#45;&gt;Node76 -->
<g id="edge32" class="edge">
<title>Node74&#45;&gt;Node76</title>
<path fill="none" stroke="#63b8ff" d="M541.06,-74.62C523.08,-71.57 503.27,-68.43 485,-66 322.98,-44.44 280.45,-55.51 119,-30 110.35,-28.63 101.11,-26.82 92.43,-24.96"/>
<polygon fill="#63b8ff" stroke="#63b8ff" points="540.35,-78.05 550.8,-76.29 541.54,-71.15 540.35,-78.05"/>
</g>
<!-- Node74&#45;&gt;Node77 -->
<g id="edge33" class="edge">
<title>Node74&#45;&gt;Node77</title>
<path fill="none" stroke="#63b8ff" d="M591.12,-66.93C583.88,-53.35 574.39,-35.51 568.76,-24.95"/>
<polygon fill="#63b8ff" stroke="#63b8ff" points="587.81,-68.18 595.6,-75.36 593.99,-64.89 587.81,-68.18"/>
</g>
<!-- Node74&#45;&gt;Node78 -->
<g id="edge34" class="edge">
<title>Node74&#45;&gt;Node78</title>
<path fill="none" stroke="#63b8ff" d="M642.78,-73.4C690.55,-59.57 767.64,-37.25 810.23,-24.91"/>
<polygon fill="#63b8ff" stroke="#63b8ff" points="641.97,-69.99 633.34,-76.14 643.92,-76.72 641.97,-69.99"/>
</g>
<!-- Node74&#45;&gt;Node79 -->
<g id="edge35" class="edge">
<title>Node74&#45;&gt;Node79</title>
<path fill="none" stroke="#63b8ff" d="M659.23,-74.42C674.15,-71.63 690.16,-68.67 705,-66 797.77,-49.31 821.25,-46.76 914,-30 922.88,-28.4 932.35,-26.64 941.44,-24.93"/>
<polygon fill="#63b8ff" stroke="#63b8ff" points="658.75,-70.95 649.57,-76.24 660.05,-77.83 658.75,-70.95"/>
</g>
<!-- Node80 -->
<g id="node29" class="node">
<title>Node80</title>
<g id="a_node29"><a xlink:href="f__op__msg_8cpp.html" target="_top" xlink:title=" ">
<polygon fill="white" stroke="#666666" points="758,-24.5 642,-24.5 642,-5.5 758,-5.5 758,-24.5"/>
<text text-anchor="middle" x="700" y="-12.5" font-family="Helvetica,sans-Serif" font-size="10.00">src/f_op/f_op_msg.cpp</text>
</a>
</g>
</g>
<!-- Node74&#45;&gt;Node80 -->
<g id="edge36" class="edge">
<title>Node74&#45;&gt;Node80</title>
<path fill="none" stroke="#63b8ff" d="M622.7,-70.27C642.45,-56.4 670.94,-36.4 687.25,-24.95"/>
<polygon fill="#63b8ff" stroke="#63b8ff" points="620.95,-67.22 614.78,-75.83 624.97,-72.95 620.95,-67.22"/>
</g>
<!-- Node94&#45;&gt;Node15 -->
<g id="edge49" class="edge">
<title>Node94&#45;&gt;Node15</title>
<path fill="none" stroke="#63b8ff" d="M3973.57,-64.14C3957.25,-50.95 3937.17,-34.72 3924.99,-24.88"/>
<polygon fill="#63b8ff" stroke="#63b8ff" points="3971.03,-66.58 3981,-70.15 3975.43,-61.14 3971.03,-66.58"/>
</g>
<!-- Node170 -->
<g id="node44" class="node">
<title>Node170</title>
<g id="a_node44"><a xlink:href="f__op__scene__mng_8h.html" target="_top" xlink:title=" ">
<polygon fill="#fff0f0" stroke="red" points="1887,-239 1765,-239 1765,-209 1887,-209 1887,-239"/>
<text text-anchor="start" x="1773" y="-227" font-family="Helvetica,sans-Serif" font-size="10.00">include/f_op/f_op_scene</text>
<text text-anchor="middle" x="1826" y="-216" font-family="Helvetica,sans-Serif" font-size="10.00">_mng.h</text>
</a>
</g>
</g>
<!-- Node169&#45;&gt;Node170 -->
<g id="edge62" class="edge">
<title>Node169&#45;&gt;Node170</title>
<path fill="none" stroke="#63b8ff" d="M1732.36,-269.72C1752.83,-259.95 1777.26,-248.28 1796.03,-239.31"/>
<polygon fill="#63b8ff" stroke="#63b8ff" points="1730.95,-266.52 1723.44,-273.98 1733.97,-272.83 1730.95,-266.52"/>
</g>
<!-- Node174 -->
<g id="node45" class="node">
<title>Node174</title>
<g id="a_node45"><a xlink:href="f__op__scene__req_8h.html" target="_top" xlink:title=" ">
<polygon fill="#fff0f0" stroke="red" points="1619,-239 1497,-239 1497,-209 1619,-209 1619,-239"/>
<text text-anchor="start" x="1505" y="-227" font-family="Helvetica,sans-Serif" font-size="10.00">include/f_op/f_op_scene</text>
<text text-anchor="middle" x="1558" y="-216" font-family="Helvetica,sans-Serif" font-size="10.00">_req.h</text>
</a>
</g>
</g>
<!-- Node169&#45;&gt;Node174 -->
<g id="edge65" class="edge">
<title>Node169&#45;&gt;Node174</title>
<path fill="none" stroke="#63b8ff" d="M1651.64,-269.72C1631.17,-259.95 1606.74,-248.28 1587.97,-239.31"/>
<polygon fill="#63b8ff" stroke="#63b8ff" points="1650.03,-272.83 1660.56,-273.98 1653.05,-266.52 1650.03,-272.83"/>
</g>
<!-- Node176 -->
<g id="node46" class="node">
<title>Node176</title>
<g id="a_node46"><a xlink:href="f__op__overlap__mng_8cpp.html" target="_top" xlink:title=" ">
<polygon fill="white" stroke="#666666" points="1747,-239 1637,-239 1637,-209 1747,-209 1747,-239"/>
<text text-anchor="start" x="1645" y="-227" font-family="Helvetica,sans-Serif" font-size="10.00">src/f_op/f_op_overlap</text>
<text text-anchor="middle" x="1692" y="-216" font-family="Helvetica,sans-Serif" font-size="10.00">_mng.cpp</text>
</a>
</g>
</g>
<!-- Node169&#45;&gt;Node176 -->
<g id="edge66" class="edge">
<title>Node169&#45;&gt;Node176</title>
<path fill="none" stroke="#63b8ff" d="M1692,-263.39C1692,-255.13 1692,-246.28 1692,-239.16"/>
<polygon fill="#63b8ff" stroke="#63b8ff" points="1688.5,-263.28 1692,-273.28 1695.5,-263.28 1688.5,-263.28"/>
</g>
<!-- Node177 -->
<g id="node47" class="node">
<title>Node177</title>
<g id="a_node47"><a xlink:href="f__op__scene__pause_8cpp.html" target="_top" xlink:title=" ">
<polygon fill="white" stroke="#666666" points="2010.5,-239 1905.5,-239 1905.5,-209 2010.5,-209 2010.5,-239"/>
<text text-anchor="start" x="1913.5" y="-227" font-family="Helvetica,sans-Serif" font-size="10.00">src/f_op/f_op_scene</text>
<text text-anchor="middle" x="1958" y="-216" font-family="Helvetica,sans-Serif" font-size="10.00">_pause.cpp</text>
</a>
</g>
</g>
<!-- Node169&#45;&gt;Node177 -->
<g id="edge67" class="edge">
<title>Node169&#45;&gt;Node177</title>
<path fill="none" stroke="#63b8ff" d="M1763.13,-271.89C1807.89,-261.12 1864.68,-247.45 1905.39,-237.66"/>
<polygon fill="#63b8ff" stroke="#63b8ff" points="1762.4,-268.46 1753.5,-274.2 1764.04,-275.27 1762.4,-268.46"/>
</g>
<!-- Node170&#45;&gt;Node3 -->
<g id="edge63" class="edge">
<title>Node170&#45;&gt;Node3</title>
<path fill="none" stroke="#63b8ff" d="M1865.73,-203.59C1885.69,-193.84 1909.43,-182.24 1927.7,-173.31"/>
<polygon fill="#63b8ff" stroke="#63b8ff" points="1864.21,-200.44 1856.76,-207.97 1867.28,-206.73 1864.21,-200.44"/>
</g>
<!-- Node170&#45;&gt;Node26 -->
<g id="edge64" class="edge">
<title>Node170&#45;&gt;Node26</title>
<path fill="none" stroke="#63b8ff" d="M1898.67,-208.93C2128.12,-185.51 3418.94,-200.87 3577,-107 3608.74,-88.15 3625.48,-44.02 3631.44,-24.99"/>
<polygon fill="#63b8ff" stroke="#63b8ff" points="1898.42,-205.44 1888.89,-210.06 1899.22,-212.39 1898.42,-205.44"/>
</g>
</g>
</svg>
