<?xml version="1.0" encoding="UTF-8" standalone="no"?>
<!DOCTYPE svg PUBLIC "-//W3C//DTD SVG 1.1//EN"
 "http://www.w3.org/Graphics/SVG/1.1/DTD/svg11.dtd">
<!-- Generated by graphviz version 7.0.5 (20221223.1930)
 -->
<!-- Title: include/f_op/f_op_actor_iter.h Pages: 1 -->
<svg width="5730pt" height="313pt"
 viewBox="0.00 0.00 5729.50 313.00" xmlns="http://www.w3.org/2000/svg" xmlns:xlink="http://www.w3.org/1999/xlink">
<g id="graph0" class="graph" transform="scale(1 1) rotate(0) translate(4 309)">
<title>include/f_op/f_op_actor_iter.h</title>
<!-- Node1 -->
<g id="node1" class="node">
<title>Node1</title>
<g id="a_node1"><a xlink:title=" ">
<polygon fill="#999999" stroke="#666666" points="4454,-305 4336,-305 4336,-275 4454,-275 4454,-305"/>
<text text-anchor="start" x="4344" y="-293" font-family="Helvetica,sans-Serif" font-size="10.00">include/f_op/f_op_actor</text>
<text text-anchor="middle" x="4395" y="-282" font-family="Helvetica,sans-Serif" font-size="10.00">_iter.h</text>
</a>
</g>
</g>
<!-- Node2 -->
<g id="node2" class="node">
<title>Node2</title>
<g id="a_node2"><a xlink:href="f__op__actor__mng_8h.html" target="_top" xlink:title=" ">
<polygon fill="#fff0f0" stroke="red" points="3218,-239 3100,-239 3100,-209 3218,-209 3218,-239"/>
<text text-anchor="start" x="3108" y="-227" font-family="Helvetica,sans-Serif" font-size="10.00">include/f_op/f_op_actor</text>
<text text-anchor="middle" x="3159" y="-216" font-family="Helvetica,sans-Serif" font-size="10.00">_mng.h</text>
</a>
</g>
</g>
<!-- Node1&#45;&gt;Node2 -->
<g id="edge1" class="edge">
<title>Node1&#45;&gt;Node2</title>
<path fill="none" stroke="#63b8ff" d="M4324.35,-285.34C4102.73,-273.87 3423.77,-238.71 3218.44,-228.08"/>
<polygon fill="#63b8ff" stroke="#63b8ff" points="4324.12,-288.83 4334.29,-285.86 4324.48,-281.84 4324.12,-288.83"/>
</g>
<!-- Node79 -->
<g id="node12" class="node">
<title>Node79</title>
<g id="a_node12"><a xlink:href="d__a__player_8cpp.html" target="_top" xlink:title=" ">
<polygon fill="white" stroke="#666666" points="114,-85 0,-85 0,-66 114,-66 114,-85"/>
<text text-anchor="middle" x="57" y="-73" font-family="Helvetica,sans-Serif" font-size="10.00">src/d/a/d_a_player.cpp</text>
</a>
</g>
</g>
<!-- Node1&#45;&gt;Node79 -->
<g id="edge56" class="edge">
<title>Node1&#45;&gt;Node79</title>
<path fill="none" stroke="#63b8ff" d="M4324.17,-288.47C3768.54,-284.15 129.76,-252.86 52,-173 28.83,-149.2 44.49,-104.49 52.78,-85.45"/>
<polygon fill="#63b8ff" stroke="#63b8ff" points="4324.04,-291.97 4334.07,-288.55 4324.09,-284.97 4324.04,-291.97"/>
</g>
<!-- Node180 -->
<g id="node48" class="node">
<title>Node180</title>
<g id="a_node48"><a xlink:href="d__cc__d__nonmatching_8cpp.html" target="_top" xlink:title=" ">
<polygon fill="white" stroke="#666666" points="5582.5,-162 5417.5,-162 5417.5,-143 5582.5,-143 5582.5,-162"/>
<text text-anchor="middle" x="5500" y="-150" font-family="Helvetica,sans-Serif" font-size="10.00">src/d/cc/d_cc_d_nonmatching.cpp</text>
</a>
</g>
</g>
<!-- Node1&#45;&gt;Node180 -->
<g id="edge57" class="edge">
<title>Node1&#45;&gt;Node180</title>
<path fill="none" stroke="#63b8ff" d="M4395.31,-263.36C4397.04,-245.11 4402.61,-221.67 4419,-209 4462.28,-175.55 5348.67,-179.41 5403,-173 5422.96,-170.64 5444.94,-166.37 5462.92,-162.42"/>
<polygon fill="#63b8ff" stroke="#63b8ff" points="4391.83,-263 4394.74,-273.19 4398.82,-263.41 4391.83,-263"/>
</g>
<!-- Node49 -->
<g id="node49" class="node">
<title>Node49</title>
<g id="a_node49"><a xlink:href="d__event_8cpp.html" target="_top" xlink:title=" ">
<polygon fill="white" stroke="#666666" points="5721.5,-162 5600.5,-162 5600.5,-143 5721.5,-143 5721.5,-162"/>
<text text-anchor="middle" x="5661" y="-150" font-family="Helvetica,sans-Serif" font-size="10.00">src/d/event/d_event.cpp</text>
</a>
</g>
</g>
<!-- Node1&#45;&gt;Node49 -->
<g id="edge58" class="edge">
<title>Node1&#45;&gt;Node49</title>
<path fill="none" stroke="#63b8ff" d="M4405.45,-264.31C4414.88,-245.48 4430.7,-220.82 4453,-209 4564.87,-149.68 5466.87,-192.36 5592,-173 5606.52,-170.75 5622.31,-166.44 5635.12,-162.43"/>
<polygon fill="#63b8ff" stroke="#63b8ff" points="4402.35,-262.68 4401.28,-273.22 4408.69,-265.65 4402.35,-262.68"/>
</g>
<!-- Node183 -->
<g id="node50" class="node">
<title>Node183</title>
<g id="a_node50"><a xlink:href="f__op__actor__iter_8cpp.html" target="_top" xlink:title=" ">
<polygon fill="white" stroke="#666666" points="4562.5,-239 4461.5,-239 4461.5,-209 4562.5,-209 4562.5,-239"/>
<text text-anchor="start" x="4469.5" y="-227" font-family="Helvetica,sans-Serif" font-size="10.00">src/f_op/f_op_actor</text>
<text text-anchor="middle" x="4512" y="-216" font-family="Helvetica,sans-Serif" font-size="10.00">_iter.cpp</text>
</a>
</g>
</g>
<!-- Node1&#45;&gt;Node183 -->
<g id="edge59" class="edge">
<title>Node1&#45;&gt;Node183</title>
<path fill="none" stroke="#63b8ff" d="M4431.23,-269.18C4448.89,-259.52 4469.74,-248.12 4485.83,-239.31"/>
<polygon fill="#63b8ff" stroke="#63b8ff" points="4429.68,-266.04 4422.58,-273.91 4433.04,-272.18 4429.68,-266.04"/>
</g>
<!-- Node3 -->
<g id="node3" class="node">
<title>Node3</title>
<g id="a_node3"><a xlink:href="d__a__alink_8h.html" target="_top" xlink:title=" ">
<polygon fill="#fff0f0" stroke="red" points="3262,-85 3146,-85 3146,-66 3262,-66 3262,-85"/>
<text text-anchor="middle" x="3204" y="-73" font-family="Helvetica,sans-Serif" font-size="10.00">include/d/a/d_a_alink.h</text>
</a>
</g>
</g>
<!-- Node2&#45;&gt;Node3 -->
<g id="edge2" class="edge">
<title>Node2&#45;&gt;Node3</title>
<path fill="none" stroke="#63b8ff" d="M3142.75,-198.7C3132.33,-179.87 3122.54,-153.46 3133,-132 3143.63,-110.2 3167.41,-94.45 3184.53,-85.42"/>
<polygon fill="#63b8ff" stroke="#63b8ff" points="3139.73,-200.48 3147.87,-207.26 3145.74,-196.89 3139.73,-200.48"/>
</g>
<!-- Node14 -->
<g id="node4" class="node">
<title>Node14</title>
<g id="a_node4"><a xlink:href="d__a__alink_8cpp.html" target="_top" xlink:title=" ">
<polygon fill="white" stroke="#666666" points="4789.5,-19 4680.5,-19 4680.5,0 4789.5,0 4789.5,-19"/>
<text text-anchor="middle" x="4735" y="-7" font-family="Helvetica,sans-Serif" font-size="10.00">src/d/a/d_a_alink.cpp</text>
</a>
</g>
</g>
<!-- Node2&#45;&gt;Node14 -->
<g id="edge51" class="edge">
<title>Node2&#45;&gt;Node14</title>
<path fill="none" stroke="#63b8ff" d="M3229.48,-222.74C3508.68,-221.42 4524.56,-213.82 4579,-173 4623.19,-139.86 4579.82,-94.91 4618,-55 4635.5,-36.71 4661.3,-25.85 4684.23,-19.44"/>
<polygon fill="#63b8ff" stroke="#63b8ff" points="3229.8,-219.24 3219.81,-222.78 3229.83,-226.24 3229.8,-219.24"/>
</g>
<!-- Node146 -->
<g id="node5" class="node">
<title>Node146</title>
<g id="a_node5"><a xlink:href="d__a__obj__item_8h.html" target="_top" xlink:title=" ">
<polygon fill="#fff0f0" stroke="red" points="4765.5,-167.5 4664.5,-167.5 4664.5,-137.5 4765.5,-137.5 4765.5,-167.5"/>
<text text-anchor="start" x="4672.5" y="-155.5" font-family="Helvetica,sans-Serif" font-size="10.00">include/d/a/d_a_obj</text>
<text text-anchor="middle" x="4715" y="-144.5" font-family="Helvetica,sans-Serif" font-size="10.00">_item.h</text>
</a>
</g>
</g>
<!-- Node2&#45;&gt;Node146 -->
<g id="edge4" class="edge">
<title>Node2&#45;&gt;Node146</title>
<path fill="none" stroke="#63b8ff" d="M3229.74,-223.04C3486.89,-222.81 4371.54,-218.65 4650,-173 4657.32,-171.8 4664.98,-170.01 4672.36,-167.99"/>
<polygon fill="#63b8ff" stroke="#63b8ff" points="3229.84,-219.54 3219.84,-223.05 3229.85,-226.54 3229.84,-219.54"/>
</g>
<!-- Node147 -->
<g id="node6" class="node">
<title>Node147</title>
<g id="a_node6"><a xlink:href="d__a__obj__ss__base_8h.html" target="_top" xlink:title=" ">
<polygon fill="#fff0f0" stroke="red" points="4961.5,-167.5 4860.5,-167.5 4860.5,-137.5 4961.5,-137.5 4961.5,-167.5"/>
<text text-anchor="start" x="4868.5" y="-155.5" font-family="Helvetica,sans-Serif" font-size="10.00">include/d/a/d_a_obj</text>
<text text-anchor="middle" x="4911" y="-144.5" font-family="Helvetica,sans-Serif" font-size="10.00">_ss_base.h</text>
</a>
</g>
</g>
<!-- Node2&#45;&gt;Node147 -->
<g id="edge5" class="edge">
<title>Node2&#45;&gt;Node147</title>
<path fill="none" stroke="#63b8ff" d="M3229.6,-223.36C3507.65,-224.42 4527.37,-224.6 4846,-173 4853.44,-171.79 4861.23,-169.97 4868.72,-167.92"/>
<polygon fill="#63b8ff" stroke="#63b8ff" points="3230,-219.87 3219.99,-223.33 3229.97,-226.87 3230,-219.87"/>
</g>
<!-- Node149 -->
<g id="node7" class="node">
<title>Node149</title>
<g id="a_node7"><a xlink:href="d__bomb_8h.html" target="_top" xlink:title=" ">
<polygon fill="#fff0f0" stroke="red" points="4727.5,-85 4626.5,-85 4626.5,-66 4727.5,-66 4727.5,-85"/>
<text text-anchor="middle" x="4677" y="-73" font-family="Helvetica,sans-Serif" font-size="10.00">include/d/d_bomb.h</text>
</a>
</g>
</g>
<!-- Node2&#45;&gt;Node149 -->
<g id="edge6" class="edge">
<title>Node2&#45;&gt;Node149</title>
<path fill="none" stroke="#63b8ff" d="M3229.4,-222.35C3511.9,-219.51 4551,-206.82 4612,-173 4647.51,-153.31 4667.33,-105.05 4674.21,-85.22"/>
<polygon fill="#63b8ff" stroke="#63b8ff" points="3229.57,-218.85 3219.61,-222.45 3229.64,-225.85 3229.57,-218.85"/>
</g>
<!-- Node151 -->
<g id="node8" class="node">
<title>Node151</title>
<g id="a_node8"><a xlink:href="d__door__param2_8h.html" target="_top" xlink:title=" ">
<polygon fill="#fff0f0" stroke="red" points="5112.5,-162 4979.5,-162 4979.5,-143 5112.5,-143 5112.5,-162"/>
<text text-anchor="middle" x="5046" y="-150" font-family="Helvetica,sans-Serif" font-size="10.00">include/d/d_door_param2.h</text>
</a>
</g>
</g>
<!-- Node2&#45;&gt;Node151 -->
<g id="edge8" class="edge">
<title>Node2&#45;&gt;Node151</title>
<path fill="none" stroke="#63b8ff" d="M3229.27,-222C3541.65,-217.45 4796.62,-197.75 4971,-173 4986.72,-170.77 5003.88,-166.45 5017.82,-162.45"/>
<polygon fill="#63b8ff" stroke="#63b8ff" points="3229.59,-218.5 3219.64,-222.14 3229.69,-225.5 3229.59,-218.5"/>
</g>
<!-- Node71 -->
<g id="node9" class="node">
<title>Node71</title>
<g id="a_node9"><a xlink:href="d__a__andsw_8h.html" target="_top" xlink:title=" ">
<polygon fill="white" stroke="#666666" points="5241,-167.5 5131,-167.5 5131,-137.5 5241,-137.5 5241,-167.5"/>
<text text-anchor="start" x="5139" y="-155.5" font-family="Helvetica,sans-Serif" font-size="10.00">include/rel/d/a/d_a</text>
<text text-anchor="middle" x="5186" y="-144.5" font-family="Helvetica,sans-Serif" font-size="10.00">_andsw/d_a_andsw.h</text>
</a>
</g>
</g>
<!-- Node2&#45;&gt;Node71 -->
<g id="edge9" class="edge">
<title>Node2&#45;&gt;Node71</title>
<path fill="none" stroke="#63b8ff" d="M3229.7,-222.33C3558.8,-219.06 4932.64,-203.68 5122,-173 5129.34,-171.81 5137.01,-170 5144.38,-167.95"/>
<polygon fill="#63b8ff" stroke="#63b8ff" points="3229.92,-218.83 3219.95,-222.43 3229.99,-225.83 3229.92,-218.83"/>
</g>
<!-- Node153 -->
<g id="node10" class="node">
<title>Node153</title>
<g id="a_node10"><a xlink:href="d__a__arrow_8h.html" target="_top" xlink:title=" ">
<polygon fill="white" stroke="#666666" points="5360.5,-167.5 5259.5,-167.5 5259.5,-137.5 5360.5,-137.5 5360.5,-167.5"/>
<text text-anchor="start" x="5267.5" y="-155.5" font-family="Helvetica,sans-Serif" font-size="10.00">include/rel/d/a/d_a</text>
<text text-anchor="middle" x="5310" y="-144.5" font-family="Helvetica,sans-Serif" font-size="10.00">_arrow/d_a_arrow.h</text>
</a>
</g>
</g>
<!-- Node2&#45;&gt;Node153 -->
<g id="edge10" class="edge">
<title>Node2&#45;&gt;Node153</title>
<path fill="none" stroke="#63b8ff" d="M3229.8,-222.53C3572.14,-220.07 5047.7,-207.53 5250,-173 5256.91,-171.82 5264.11,-170.01 5271.04,-167.96"/>
<polygon fill="#63b8ff" stroke="#63b8ff" points="3229.82,-219.02 3219.85,-222.6 3229.87,-226.02 3229.82,-219.02"/>
</g>
<!-- Node154 -->
<g id="node11" class="node">
<title>Node154</title>
<g id="a_node11"><a xlink:href="d__a__boomerang_8h.html" target="_top" xlink:title=" ">
<polygon fill="white" stroke="#666666" points="234.5,-167.5 85.5,-167.5 85.5,-137.5 234.5,-137.5 234.5,-167.5"/>
<text text-anchor="start" x="93.5" y="-155.5" font-family="Helvetica,sans-Serif" font-size="10.00">include/rel/d/a/d_a</text>
<text text-anchor="middle" x="160" y="-144.5" font-family="Helvetica,sans-Serif" font-size="10.00">_boomerang/d_a_boomerang.h</text>
</a>
</g>
</g>
<!-- Node2&#45;&gt;Node154 -->
<g id="edge11" class="edge">
<title>Node2&#45;&gt;Node154</title>
<path fill="none" stroke="#63b8ff" d="M3088.46,-222.68C2671.13,-220.68 533.9,-208.73 244,-173 234.49,-171.83 224.49,-170.02 214.83,-167.98"/>
<polygon fill="#63b8ff" stroke="#63b8ff" points="3088.2,-226.18 3098.21,-222.73 3088.23,-219.18 3088.2,-226.18"/>
</g>
<!-- Node2&#45;&gt;Node79 -->
<g id="edge52" class="edge">
<title>Node2&#45;&gt;Node79</title>
<path fill="none" stroke="#63b8ff" d="M3088.41,-223.07C2633.83,-223.4 135.73,-222.93 76,-173 49.93,-151.21 52.91,-104.98 55.53,-85.48"/>
<polygon fill="#63b8ff" stroke="#63b8ff" points="3088.2,-226.57 3098.19,-223.07 3088.19,-219.57 3088.2,-226.57"/>
</g>
<!-- Node155 -->
<g id="node13" class="node">
<title>Node155</title>
<g id="a_node13"><a xlink:href="d__a__canoe_8h.html" target="_top" xlink:title=" ">
<polygon fill="white" stroke="#666666" points="359,-167.5 253,-167.5 253,-137.5 359,-137.5 359,-167.5"/>
<text text-anchor="start" x="261" y="-155.5" font-family="Helvetica,sans-Serif" font-size="10.00">include/rel/d/a/d_a</text>
<text text-anchor="middle" x="306" y="-144.5" font-family="Helvetica,sans-Serif" font-size="10.00">_canoe/d_a_canoe.h</text>
</a>
</g>
</g>
<!-- Node2&#45;&gt;Node155 -->
<g id="edge13" class="edge">
<title>Node2&#45;&gt;Node155</title>
<path fill="none" stroke="#63b8ff" d="M3088.52,-222.94C2681.8,-222.46 643.38,-217.81 368,-173 360.87,-171.84 353.43,-170.04 346.28,-168"/>
<polygon fill="#63b8ff" stroke="#63b8ff" points="3088.27,-226.44 3098.28,-222.96 3088.28,-219.44 3088.27,-226.44"/>
</g>
<!-- Node156 -->
<g id="node14" class="node">
<title>Node156</title>
<g id="a_node14"><a xlink:href="d__a__crod_8h.html" target="_top" xlink:title=" ">
<polygon fill="white" stroke="#666666" points="4842,-90.5 4746,-90.5 4746,-60.5 4842,-60.5 4842,-90.5"/>
<text text-anchor="start" x="4754" y="-78.5" font-family="Helvetica,sans-Serif" font-size="10.00">include/rel/d/a/d_a</text>
<text text-anchor="middle" x="4794" y="-67.5" font-family="Helvetica,sans-Serif" font-size="10.00">_crod/d_a_crod.h</text>
</a>
</g>
</g>
<!-- Node2&#45;&gt;Node156 -->
<g id="edge14" class="edge">
<title>Node2&#45;&gt;Node156</title>
<path fill="none" stroke="#63b8ff" d="M3229.58,-222.01C3537,-217.53 4745.12,-198.35 4775,-173 4798.7,-152.89 4798.3,-112.6 4796.09,-90.99"/>
<polygon fill="#63b8ff" stroke="#63b8ff" points="3229.64,-218.51 3219.69,-222.15 3229.74,-225.5 3229.64,-218.51"/>
</g>
<!-- Node74 -->
<g id="node15" class="node">
<title>Node74</title>
<g id="a_node15"><a xlink:href="d__a__econt_8h.html" target="_top" xlink:title=" ">
<polygon fill="white" stroke="#666666" points="478.5,-167.5 377.5,-167.5 377.5,-137.5 478.5,-137.5 478.5,-167.5"/>
<text text-anchor="start" x="385.5" y="-155.5" font-family="Helvetica,sans-Serif" font-size="10.00">include/rel/d/a/d_a</text>
<text text-anchor="middle" x="428" y="-144.5" font-family="Helvetica,sans-Serif" font-size="10.00">_econt/d_a_econt.h</text>
</a>
</g>
</g>
<!-- Node2&#45;&gt;Node74 -->
<g id="edge16" class="edge">
<title>Node2&#45;&gt;Node74</title>
<path fill="none" stroke="#63b8ff" d="M3088.36,-222.94C2691.69,-222.46 749.61,-217.8 487,-173 480.19,-171.84 473.1,-170.04 466.3,-167.99"/>
<polygon fill="#63b8ff" stroke="#63b8ff" points="3088.13,-226.44 3098.13,-222.96 3088.14,-219.44 3088.13,-226.44"/>
</g>
<!-- Node157 -->
<g id="node16" class="node">
<title>Node157</title>
<g id="a_node16"><a xlink:href="d__a__scene__exit_8h.html" target="_top" xlink:title=" ">
<polygon fill="white" stroke="#666666" points="4979.5,-96 4860.5,-96 4860.5,-55 4979.5,-55 4979.5,-96"/>
<text text-anchor="start" x="4868.5" y="-84" font-family="Helvetica,sans-Serif" font-size="10.00">include/rel/d/a/d_a</text>
<text text-anchor="start" x="4868.5" y="-73" font-family="Helvetica,sans-Serif" font-size="10.00">_scene_exit/d_a_scene</text>
<text text-anchor="middle" x="4920" y="-62" font-family="Helvetica,sans-Serif" font-size="10.00">_exit.h</text>
</a>
</g>
</g>
<!-- Node2&#45;&gt;Node157 -->
<g id="edge17" class="edge">
<title>Node2&#45;&gt;Node157</title>
<path fill="none" stroke="#63b8ff" d="M3229.43,-222.08C3533.71,-217.97 4723.41,-200.22 4798,-173 4803.71,-170.92 4861.7,-124.06 4895.64,-96.41"/>
<polygon fill="#63b8ff" stroke="#63b8ff" points="3229.6,-218.58 3219.65,-222.22 3229.7,-225.58 3229.6,-218.58"/>
</g>
<!-- Node158 -->
<g id="node17" class="node">
<title>Node158</title>
<g id="a_node17"><a xlink:href="d__a__suspend_8h.html" target="_top" xlink:title=" ">
<polygon fill="white" stroke="#666666" points="623.5,-167.5 496.5,-167.5 496.5,-137.5 623.5,-137.5 623.5,-167.5"/>
<text text-anchor="start" x="504.5" y="-155.5" font-family="Helvetica,sans-Serif" font-size="10.00">include/rel/d/a/d_a</text>
<text text-anchor="middle" x="560" y="-144.5" font-family="Helvetica,sans-Serif" font-size="10.00">_suspend/d_a_suspend.h</text>
</a>
</g>
</g>
<!-- Node2&#45;&gt;Node158 -->
<g id="edge19" class="edge">
<title>Node2&#45;&gt;Node158</title>
<path fill="none" stroke="#63b8ff" d="M3088.32,-222.62C2704.79,-220.41 881.51,-208.12 633,-173 624.69,-171.83 615.97,-170.02 607.57,-167.97"/>
<polygon fill="#63b8ff" stroke="#63b8ff" points="3088.24,-226.12 3098.26,-222.67 3088.28,-219.12 3088.24,-226.12"/>
</g>
<!-- Node80 -->
<g id="node18" class="node">
<title>Node80</title>
<g id="a_node18"><a xlink:href="d__a__swTime_8h.html" target="_top" xlink:title=" ">
<polygon fill="white" stroke="#666666" points="764,-167.5 642,-167.5 642,-137.5 764,-137.5 764,-167.5"/>
<text text-anchor="start" x="650" y="-155.5" font-family="Helvetica,sans-Serif" font-size="10.00">include/rel/d/a/d_a</text>
<text text-anchor="middle" x="703" y="-144.5" font-family="Helvetica,sans-Serif" font-size="10.00">_swTime/d_a_swTime.h</text>
</a>
</g>
</g>
<!-- Node2&#45;&gt;Node80 -->
<g id="edge20" class="edge">
<title>Node2&#45;&gt;Node80</title>
<path fill="none" stroke="#63b8ff" d="M3088.39,-222.57C2717.92,-220.2 1006.73,-207.44 773,-173 765.01,-171.82 756.64,-170.02 748.58,-167.97"/>
<polygon fill="#63b8ff" stroke="#63b8ff" points="3088.19,-226.07 3098.21,-222.64 3088.23,-219.07 3088.19,-226.07"/>
</g>
<!-- Node159 -->
<g id="node19" class="node">
<title>Node159</title>
<g id="a_node19"><a xlink:href="d__a__tboxSw_8h.html" target="_top" xlink:title=" ">
<polygon fill="white" stroke="#666666" points="900,-167.5 782,-167.5 782,-137.5 900,-137.5 900,-167.5"/>
<text text-anchor="start" x="790" y="-155.5" font-family="Helvetica,sans-Serif" font-size="10.00">include/rel/d/a/d_a</text>
<text text-anchor="middle" x="841" y="-144.5" font-family="Helvetica,sans-Serif" font-size="10.00">_tboxSw/d_a_tboxSw.h</text>
</a>
</g>
</g>
<!-- Node2&#45;&gt;Node159 -->
<g id="edge21" class="edge">
<title>Node2&#45;&gt;Node159</title>
<path fill="none" stroke="#63b8ff" d="M3088.14,-222.51C2730.09,-219.88 1128.38,-206.32 909,-173 901.23,-171.82 893.09,-170.01 885.26,-167.96"/>
<polygon fill="#63b8ff" stroke="#63b8ff" points="3088.07,-226.01 3098.09,-222.58 3088.12,-219.01 3088.07,-226.01"/>
</g>
<!-- Node160 -->
<g id="node20" class="node">
<title>Node160</title>
<g id="a_node20"><a xlink:href="d__a__e__ge_8h.html" target="_top" xlink:title=" ">
<polygon fill="#fff0f0" stroke="red" points="1024,-167.5 918,-167.5 918,-137.5 1024,-137.5 1024,-167.5"/>
<text text-anchor="start" x="926" y="-155.5" font-family="Helvetica,sans-Serif" font-size="10.00">include/rel/d/a/e/d</text>
<text text-anchor="middle" x="971" y="-144.5" font-family="Helvetica,sans-Serif" font-size="10.00">_a_e_ge/d_a_e_ge.h</text>
</a>
</g>
</g>
<!-- Node2&#45;&gt;Node160 -->
<g id="edge22" class="edge">
<title>Node2&#45;&gt;Node160</title>
<path fill="none" stroke="#63b8ff" d="M3088.42,-222.52C2743.01,-220 1239.13,-207.14 1033,-173 1025.88,-171.82 1018.44,-170.01 1011.29,-167.96"/>
<polygon fill="#63b8ff" stroke="#63b8ff" points="3088.2,-226.02 3098.22,-222.59 3088.25,-219.02 3088.2,-226.02"/>
</g>
<!-- Node161 -->
<g id="node21" class="node">
<title>Node161</title>
<g id="a_node21"><a xlink:href="d__a__e__ym_8h.html" target="_top" xlink:title=" ">
<polygon fill="#fff0f0" stroke="red" points="1152,-167.5 1042,-167.5 1042,-137.5 1152,-137.5 1152,-167.5"/>
<text text-anchor="start" x="1050" y="-155.5" font-family="Helvetica,sans-Serif" font-size="10.00">include/rel/d/a/e/d</text>
<text text-anchor="middle" x="1097" y="-144.5" font-family="Helvetica,sans-Serif" font-size="10.00">_a_e_ym/d_a_e_ym.h</text>
</a>
</g>
</g>
<!-- Node2&#45;&gt;Node161 -->
<g id="edge23" class="edge">
<title>Node2&#45;&gt;Node161</title>
<path fill="none" stroke="#63b8ff" d="M3088.14,-222.36C2755.15,-219.22 1353.95,-204.22 1161,-173 1153.66,-171.81 1145.99,-170 1138.62,-167.95"/>
<polygon fill="#63b8ff" stroke="#63b8ff" points="3087.98,-225.86 3098.02,-222.46 3088.05,-218.86 3087.98,-225.86"/>
</g>
<!-- Node163 -->
<g id="node22" class="node">
<title>Node163</title>
<g id="a_node22"><a xlink:href="d__a__kytag07_8h.html" target="_top" xlink:title=" ">
<polygon fill="white" stroke="#666666" points="1310,-167.5 1170,-167.5 1170,-137.5 1310,-137.5 1310,-167.5"/>
<text text-anchor="start" x="1178" y="-155.5" font-family="Helvetica,sans-Serif" font-size="10.00">include/rel/d/a/kytag</text>
<text text-anchor="middle" x="1240" y="-144.5" font-family="Helvetica,sans-Serif" font-size="10.00">/d_a_kytag07/d_a_kytag07.h</text>
</a>
</g>
</g>
<!-- Node2&#45;&gt;Node163 -->
<g id="edge24" class="edge">
<title>Node2&#45;&gt;Node163</title>
<path fill="none" stroke="#63b8ff" d="M3088.5,-223.11C2795.17,-223.24 1670.36,-220.58 1319,-173 1310.04,-171.79 1300.62,-169.96 1291.54,-167.91"/>
<polygon fill="#63b8ff" stroke="#63b8ff" points="3088.29,-226.61 3098.29,-223.1 3088.29,-219.61 3088.29,-226.61"/>
</g>
<!-- Node164 -->
<g id="node23" class="node">
<title>Node164</title>
<g id="a_node23"><a xlink:href="d__a__kytag17_8h.html" target="_top" xlink:title=" ">
<polygon fill="white" stroke="#666666" points="1468,-167.5 1328,-167.5 1328,-137.5 1468,-137.5 1468,-167.5"/>
<text text-anchor="start" x="1336" y="-155.5" font-family="Helvetica,sans-Serif" font-size="10.00">include/rel/d/a/kytag</text>
<text text-anchor="middle" x="1398" y="-144.5" font-family="Helvetica,sans-Serif" font-size="10.00">/d_a_kytag17/d_a_kytag17.h</text>
</a>
</g>
</g>
<!-- Node2&#45;&gt;Node164 -->
<g id="edge25" class="edge">
<title>Node2&#45;&gt;Node164</title>
<path fill="none" stroke="#63b8ff" d="M3088.26,-222.9C2810.7,-222.18 1795.7,-216.57 1477,-173 1468.18,-171.79 1458.92,-170 1449.97,-167.98"/>
<polygon fill="#63b8ff" stroke="#63b8ff" points="3088.24,-226.4 3098.25,-222.92 3088.26,-219.4 3088.24,-226.4"/>
</g>
<!-- Node165 -->
<g id="node24" class="node">
<title>Node165</title>
<g id="a_node24"><a xlink:href="d__a__npc__theB_8h.html" target="_top" xlink:title=" ">
<polygon fill="white" stroke="#666666" points="1608,-173 1486,-173 1486,-132 1608,-132 1608,-173"/>
<text text-anchor="start" x="1494" y="-161" font-family="Helvetica,sans-Serif" font-size="10.00">include/rel/d/a/npc</text>
<text text-anchor="start" x="1494" y="-150" font-family="Helvetica,sans-Serif" font-size="10.00">/d_a_npc_theB/d_a_npc</text>
<text text-anchor="middle" x="1547" y="-139" font-family="Helvetica,sans-Serif" font-size="10.00">_theB.h</text>
</a>
</g>
</g>
<!-- Node2&#45;&gt;Node165 -->
<g id="edge26" class="edge">
<title>Node2&#45;&gt;Node165</title>
<path fill="none" stroke="#63b8ff" d="M3088.5,-222.95C2826.12,-222.42 1906.41,-217.35 1617,-173 1614.13,-172.56 1611.21,-172.04 1608.28,-171.46"/>
<polygon fill="#63b8ff" stroke="#63b8ff" points="3088.24,-226.45 3098.25,-222.97 3088.26,-219.45 3088.24,-226.45"/>
</g>
<!-- Node83 -->
<g id="node25" class="node">
<title>Node83</title>
<g id="a_node25"><a xlink:href="d__a__obj__onsenFire_8h.html" target="_top" xlink:title=" ">
<polygon fill="white" stroke="#666666" points="1736,-173 1626,-173 1626,-132 1736,-132 1736,-173"/>
<text text-anchor="start" x="1634" y="-161" font-family="Helvetica,sans-Serif" font-size="10.00">include/rel/d/a/obj</text>
<text text-anchor="start" x="1634" y="-150" font-family="Helvetica,sans-Serif" font-size="10.00">/d_a_obj_onsenFire/d</text>
<text text-anchor="middle" x="1681" y="-139" font-family="Helvetica,sans-Serif" font-size="10.00">_a_obj_onsenFire.h</text>
</a>
</g>
</g>
<!-- Node2&#45;&gt;Node83 -->
<g id="edge27" class="edge">
<title>Node2&#45;&gt;Node83</title>
<path fill="none" stroke="#63b8ff" d="M3088.19,-222.93C2839.61,-222.3 2007.64,-216.88 1745,-173 1742.14,-172.52 1739.22,-171.95 1736.29,-171.31"/>
<polygon fill="#63b8ff" stroke="#63b8ff" points="3088.06,-226.43 3098.07,-222.95 3088.08,-219.43 3088.06,-226.43"/>
</g>
<!-- Node87 -->
<g id="node26" class="node">
<title>Node87</title>
<g id="a_node26"><a xlink:href="d__a__tag__ajnot_8h.html" target="_top" xlink:title=" ">
<polygon fill="white" stroke="#666666" points="1872,-173 1754,-173 1754,-132 1872,-132 1872,-173"/>
<text text-anchor="start" x="1762" y="-161" font-family="Helvetica,sans-Serif" font-size="10.00">include/rel/d/a/tag</text>
<text text-anchor="start" x="1762" y="-150" font-family="Helvetica,sans-Serif" font-size="10.00">/d_a_tag_ajnot/d_a_tag</text>
<text text-anchor="middle" x="1813" y="-139" font-family="Helvetica,sans-Serif" font-size="10.00">_ajnot.h</text>
</a>
</g>
</g>
<!-- Node2&#45;&gt;Node87 -->
<g id="edge28" class="edge">
<title>Node2&#45;&gt;Node87</title>
<path fill="none" stroke="#63b8ff" d="M3088.48,-222.47C2856.19,-220.36 2116.41,-210.79 1881,-173 1878.09,-172.53 1875.13,-171.98 1872.15,-171.37"/>
<polygon fill="#63b8ff" stroke="#63b8ff" points="3088.26,-225.97 3098.3,-222.55 3088.33,-218.97 3088.26,-225.97"/>
</g>
<!-- Node166 -->
<g id="node27" class="node">
<title>Node166</title>
<g id="a_node27"><a xlink:href="d__a__tag__arena_8h.html" target="_top" xlink:title=" ">
<polygon fill="white" stroke="#666666" points="2011.5,-173 1890.5,-173 1890.5,-132 2011.5,-132 2011.5,-173"/>
<text text-anchor="start" x="1898.5" y="-161" font-family="Helvetica,sans-Serif" font-size="10.00">include/rel/d/a/tag</text>
<text text-anchor="start" x="1898.5" y="-150" font-family="Helvetica,sans-Serif" font-size="10.00">/d_a_tag_arena/d_a_tag</text>
<text text-anchor="middle" x="1951" y="-139" font-family="Helvetica,sans-Serif" font-size="10.00">_arena.h</text>
</a>
</g>
</g>
<!-- Node2&#45;&gt;Node166 -->
<g id="edge29" class="edge">
<title>Node2&#45;&gt;Node166</title>
<path fill="none" stroke="#63b8ff" d="M3088.35,-222C2873.19,-218.62 2228.12,-205.96 2021,-173 2018.01,-172.52 2014.97,-171.97 2011.9,-171.35"/>
<polygon fill="#63b8ff" stroke="#63b8ff" points="3088.22,-225.5 3098.27,-222.15 3088.32,-218.5 3088.22,-225.5"/>
</g>
<!-- Node88 -->
<g id="node28" class="node">
<title>Node88</title>
<g id="a_node28"><a xlink:href="d__a__tag__assistance_8h.html" target="_top" xlink:title=" ">
<polygon fill="white" stroke="#666666" points="2144,-173 2030,-173 2030,-132 2144,-132 2144,-173"/>
<text text-anchor="start" x="2038" y="-161" font-family="Helvetica,sans-Serif" font-size="10.00">include/rel/d/a/tag</text>
<text text-anchor="start" x="2038" y="-150" font-family="Helvetica,sans-Serif" font-size="10.00">/d_a_tag_assistance</text>
<text text-anchor="middle" x="2087" y="-139" font-family="Helvetica,sans-Serif" font-size="10.00">/d_a_tag_assistance.h</text>
</a>
</g>
</g>
<!-- Node2&#45;&gt;Node88 -->
<g id="edge30" class="edge">
<title>Node2&#45;&gt;Node88</title>
<path fill="none" stroke="#63b8ff" d="M3088.18,-221.67C2890.12,-217.59 2333.22,-203.65 2153,-173 2150.17,-172.52 2147.3,-171.96 2144.4,-171.33"/>
<polygon fill="#63b8ff" stroke="#63b8ff" points="3088,-225.16 3098.07,-221.87 3088.15,-218.16 3088,-225.16"/>
</g>
<!-- Node89 -->
<g id="node29" class="node">
<title>Node89</title>
<g id="a_node29"><a xlink:href="d__a__tag__attention_8h.html" target="_top" xlink:title=" ">
<polygon fill="white" stroke="#666666" points="2267.5,-173 2162.5,-173 2162.5,-132 2267.5,-132 2267.5,-173"/>
<text text-anchor="start" x="2170.5" y="-161" font-family="Helvetica,sans-Serif" font-size="10.00">include/rel/d/a/tag</text>
<text text-anchor="start" x="2170.5" y="-150" font-family="Helvetica,sans-Serif" font-size="10.00">/d_a_tag_attention/d</text>
<text text-anchor="middle" x="2215" y="-139" font-family="Helvetica,sans-Serif" font-size="10.00">_a_tag_attention.h</text>
</a>
</g>
</g>
<!-- Node2&#45;&gt;Node89 -->
<g id="edge31" class="edge">
<title>Node2&#45;&gt;Node89</title>
<path fill="none" stroke="#63b8ff" d="M3088.29,-221.25C2907.58,-216.43 2432.2,-201.35 2277,-173 2274,-172.45 2270.95,-171.8 2267.88,-171.08"/>
<polygon fill="#63b8ff" stroke="#63b8ff" points="3088.16,-224.75 3098.24,-221.52 3088.34,-217.75 3088.16,-224.75"/>
</g>
<!-- Node167 -->
<g id="node30" class="node">
<title>Node167</title>
<g id="a_node30"><a xlink:href="d__a__tag__escape_8h.html" target="_top" xlink:title=" ">
<polygon fill="white" stroke="#666666" points="2396,-173 2286,-173 2286,-132 2396,-132 2396,-173"/>
<text text-anchor="start" x="2294" y="-161" font-family="Helvetica,sans-Serif" font-size="10.00">include/rel/d/a/tag</text>
<text text-anchor="start" x="2294" y="-150" font-family="Helvetica,sans-Serif" font-size="10.00">/d_a_tag_escape/d_a</text>
<text text-anchor="middle" x="2341" y="-139" font-family="Helvetica,sans-Serif" font-size="10.00">_tag_escape.h</text>
</a>
</g>
</g>
<!-- Node2&#45;&gt;Node167 -->
<g id="edge32" class="edge">
<title>Node2&#45;&gt;Node167</title>
<path fill="none" stroke="#63b8ff" d="M3088.47,-223.69C2954.24,-223.82 2653.28,-218.43 2405,-173 2402.14,-172.48 2399.23,-171.87 2396.31,-171.2"/>
<polygon fill="#63b8ff" stroke="#63b8ff" points="3088.27,-227.19 3098.26,-223.67 3088.25,-220.19 3088.27,-227.19"/>
</g>
<!-- Node90 -->
<g id="node31" class="node">
<title>Node90</title>
<g id="a_node31"><a xlink:href="d__a__tag__gra_8h.html" target="_top" xlink:title=" ">
<polygon fill="white" stroke="#666666" points="2551.5,-167.5 2414.5,-167.5 2414.5,-137.5 2551.5,-137.5 2551.5,-167.5"/>
<text text-anchor="start" x="2422.5" y="-155.5" font-family="Helvetica,sans-Serif" font-size="10.00">include/rel/d/a/tag</text>
<text text-anchor="middle" x="2483" y="-144.5" font-family="Helvetica,sans-Serif" font-size="10.00">/d_a_tag_gra/d_a_tag_gra.h</text>
</a>
</g>
</g>
<!-- Node2&#45;&gt;Node90 -->
<g id="edge33" class="edge">
<title>Node2&#45;&gt;Node90</title>
<path fill="none" stroke="#63b8ff" d="M3088.33,-220.87C2975.81,-216.63 2749.32,-204.65 2560,-173 2551.98,-171.66 2543.56,-169.9 2535.36,-167.99"/>
<polygon fill="#63b8ff" stroke="#63b8ff" points="3087.88,-224.35 3098,-221.22 3088.13,-217.36 3087.88,-224.35"/>
</g>
<!-- Node168 -->
<g id="node32" class="node">
<title>Node168</title>
<g id="a_node32"><a xlink:href="d__a__tag__guard_8h.html" target="_top" xlink:title=" ">
<polygon fill="white" stroke="#666666" points="2690.5,-173 2569.5,-173 2569.5,-132 2690.5,-132 2690.5,-173"/>
<text text-anchor="start" x="2577.5" y="-161" font-family="Helvetica,sans-Serif" font-size="10.00">include/rel/d/a/tag</text>
<text text-anchor="start" x="2577.5" y="-150" font-family="Helvetica,sans-Serif" font-size="10.00">/d_a_tag_guard/d_a_tag</text>
<text text-anchor="middle" x="2630" y="-139" font-family="Helvetica,sans-Serif" font-size="10.00">_guard.h</text>
</a>
</g>
</g>
<!-- Node2&#45;&gt;Node168 -->
<g id="edge34" class="edge">
<title>Node2&#45;&gt;Node168</title>
<path fill="none" stroke="#63b8ff" d="M3088.47,-219.01C2997.72,-213.03 2835.5,-199.51 2699,-173 2696.31,-172.48 2693.58,-171.9 2690.82,-171.28"/>
<polygon fill="#63b8ff" stroke="#63b8ff" points="3088,-222.48 3098.2,-219.64 3088.45,-215.5 3088,-222.48"/>
</g>
<!-- Node92 -->
<g id="node33" class="node">
<title>Node92</title>
<g id="a_node33"><a xlink:href="d__a__tag__howl_8h.html" target="_top" xlink:title=" ">
<polygon fill="white" stroke="#666666" points="2825.5,-173 2708.5,-173 2708.5,-132 2825.5,-132 2825.5,-173"/>
<text text-anchor="start" x="2716.5" y="-161" font-family="Helvetica,sans-Serif" font-size="10.00">include/rel/d/a/tag</text>
<text text-anchor="start" x="2716.5" y="-150" font-family="Helvetica,sans-Serif" font-size="10.00">/d_a_tag_howl/d_a_tag</text>
<text text-anchor="middle" x="2767" y="-139" font-family="Helvetica,sans-Serif" font-size="10.00">_howl.h</text>
</a>
</g>
</g>
<!-- Node2&#45;&gt;Node92 -->
<g id="edge35" class="edge">
<title>Node2&#45;&gt;Node92</title>
<path fill="none" stroke="#63b8ff" d="M3088.68,-214.75C3022.73,-206.4 2921.58,-192.01 2835,-173 2832,-172.34 2828.94,-171.63 2825.86,-170.87"/>
<polygon fill="#63b8ff" stroke="#63b8ff" points="3087.9,-218.18 3098.26,-215.95 3088.77,-211.23 3087.9,-218.18"/>
</g>
<!-- Node169 -->
<g id="node34" class="node">
<title>Node169</title>
<g id="a_node34"><a xlink:href="d__a__tag__instruction_8h.html" target="_top" xlink:title=" ">
<polygon fill="white" stroke="#666666" points="2956,-173 2844,-173 2844,-132 2956,-132 2956,-173"/>
<text text-anchor="start" x="2852" y="-161" font-family="Helvetica,sans-Serif" font-size="10.00">include/rel/d/a/tag</text>
<text text-anchor="start" x="2852" y="-150" font-family="Helvetica,sans-Serif" font-size="10.00">/d_a_tag_instruction</text>
<text text-anchor="middle" x="2900" y="-139" font-family="Helvetica,sans-Serif" font-size="10.00">/d_a_tag_instruction.h</text>
</a>
</g>
</g>
<!-- Node2&#45;&gt;Node169 -->
<g id="edge36" class="edge">
<title>Node2&#45;&gt;Node169</title>
<path fill="none" stroke="#63b8ff" d="M3089.98,-205.91C3052.85,-196.54 3006.32,-184.52 2965,-173 2962.16,-172.21 2959.26,-171.39 2956.33,-170.55"/>
<polygon fill="#63b8ff" stroke="#63b8ff" points="3088.67,-209.19 3099.22,-208.24 3090.38,-202.4 3088.67,-209.19"/>
</g>
<!-- Node170 -->
<g id="node35" class="node">
<title>Node170</title>
<g id="a_node35"><a xlink:href="d__a__tag__lv5soup_8h.html" target="_top" xlink:title=" ">
<polygon fill="white" stroke="#666666" points="3086,-173 2974,-173 2974,-132 3086,-132 3086,-173"/>
<text text-anchor="start" x="2982" y="-161" font-family="Helvetica,sans-Serif" font-size="10.00">include/rel/d/a/tag</text>
<text text-anchor="start" x="2982" y="-150" font-family="Helvetica,sans-Serif" font-size="10.00">/d_a_tag_lv5soup/d_a</text>
<text text-anchor="middle" x="3030" y="-139" font-family="Helvetica,sans-Serif" font-size="10.00">_tag_lv5soup.h</text>
</a>
</g>
</g>
<!-- Node2&#45;&gt;Node170 -->
<g id="edge37" class="edge">
<title>Node2&#45;&gt;Node170</title>
<path fill="none" stroke="#63b8ff" d="M3122.48,-203.33C3105.12,-193.97 3084.39,-182.8 3066.97,-173.42"/>
<polygon fill="#63b8ff" stroke="#63b8ff" points="3120.47,-206.22 3130.94,-207.88 3123.8,-200.06 3120.47,-206.22"/>
</g>
<!-- Node171 -->
<g id="node36" class="node">
<title>Node171</title>
<g id="a_node36"><a xlink:href="d__a__tag__magne_8h.html" target="_top" xlink:title=" ">
<polygon fill="#fff0f0" stroke="red" points="5288,-96 5162,-96 5162,-55 5288,-55 5288,-96"/>
<text text-anchor="start" x="5170" y="-84" font-family="Helvetica,sans-Serif" font-size="10.00">include/rel/d/a/tag</text>
<text text-anchor="start" x="5170" y="-73" font-family="Helvetica,sans-Serif" font-size="10.00">/d_a_tag_magne/d_a_tag</text>
<text text-anchor="middle" x="5225" y="-62" font-family="Helvetica,sans-Serif" font-size="10.00">_magne.h</text>
</a>
</g>
</g>
<!-- Node2&#45;&gt;Node171 -->
<g id="edge38" class="edge">
<title>Node2&#45;&gt;Node171</title>
<path fill="none" stroke="#63b8ff" d="M3229.94,-222.06C3606.08,-217.02 5350.84,-192.59 5370,-173 5382.74,-159.97 5380.33,-147.01 5370,-132 5351.59,-105.24 5318.38,-91.38 5288.39,-84.2"/>
<polygon fill="#63b8ff" stroke="#63b8ff" points="3229.9,-218.56 3219.95,-222.2 3230,-225.56 3229.9,-218.56"/>
</g>
<!-- Node172 -->
<g id="node37" class="node">
<title>Node172</title>
<g id="a_node37"><a xlink:href="d__a__tag__mmsg_8h.html" target="_top" xlink:title=" ">
<polygon fill="white" stroke="#666666" points="3266,-173 3142,-173 3142,-132 3266,-132 3266,-173"/>
<text text-anchor="start" x="3150" y="-161" font-family="Helvetica,sans-Serif" font-size="10.00">include/rel/d/a/tag</text>
<text text-anchor="start" x="3150" y="-150" font-family="Helvetica,sans-Serif" font-size="10.00">/d_a_tag_mmsg/d_a_tag</text>
<text text-anchor="middle" x="3204" y="-139" font-family="Helvetica,sans-Serif" font-size="10.00">_mmsg.h</text>
</a>
</g>
</g>
<!-- Node2&#45;&gt;Node172 -->
<g id="edge40" class="edge">
<title>Node2&#45;&gt;Node172</title>
<path fill="none" stroke="#63b8ff" d="M3174.53,-199.02C3179.93,-190.67 3185.94,-181.4 3191.1,-173.42"/>
<polygon fill="#63b8ff" stroke="#63b8ff" points="3171.64,-197.03 3169.15,-207.33 3177.52,-200.84 3171.64,-197.03"/>
</g>
<!-- Node94 -->
<g id="node38" class="node">
<title>Node94</title>
<g id="a_node38"><a xlink:href="d__a__tag__ret__room_8h.html" target="_top" xlink:title=" ">
<polygon fill="white" stroke="#666666" points="3390,-173 3284,-173 3284,-132 3390,-132 3390,-173"/>
<text text-anchor="start" x="3292" y="-161" font-family="Helvetica,sans-Serif" font-size="10.00">include/rel/d/a/tag</text>
<text text-anchor="start" x="3292" y="-150" font-family="Helvetica,sans-Serif" font-size="10.00">/d_a_tag_ret_room/d</text>
<text text-anchor="middle" x="3337" y="-139" font-family="Helvetica,sans-Serif" font-size="10.00">_a_tag_ret_room.h</text>
</a>
</g>
</g>
<!-- Node2&#45;&gt;Node94 -->
<g id="edge42" class="edge">
<title>Node2&#45;&gt;Node94</title>
<path fill="none" stroke="#63b8ff" d="M3206.39,-204.5C3230.94,-194.91 3260.94,-183.2 3285.99,-173.42"/>
<polygon fill="#63b8ff" stroke="#63b8ff" points="3205.33,-201.15 3197.29,-208.05 3207.88,-207.67 3205.33,-201.15"/>
</g>
<!-- Node173 -->
<g id="node39" class="node">
<title>Node173</title>
<g id="a_node39"><a xlink:href="d__a__tag__schedule_8h.html" target="_top" xlink:title=" ">
<polygon fill="white" stroke="#666666" points="3515.5,-173 3408.5,-173 3408.5,-132 3515.5,-132 3515.5,-173"/>
<text text-anchor="start" x="3416.5" y="-161" font-family="Helvetica,sans-Serif" font-size="10.00">include/rel/d/a/tag</text>
<text text-anchor="start" x="3416.5" y="-150" font-family="Helvetica,sans-Serif" font-size="10.00">/d_a_tag_schedule/d</text>
<text text-anchor="middle" x="3462" y="-139" font-family="Helvetica,sans-Serif" font-size="10.00">_a_tag_schedule.h</text>
</a>
</g>
</g>
<!-- Node2&#45;&gt;Node173 -->
<g id="edge43" class="edge">
<title>Node2&#45;&gt;Node173</title>
<path fill="none" stroke="#63b8ff" d="M3229.27,-210.18C3277.33,-200.97 3342.35,-187.63 3399,-173 3401.99,-172.23 3405.06,-171.4 3408.14,-170.54"/>
<polygon fill="#63b8ff" stroke="#63b8ff" points="3228.7,-206.73 3219.53,-212.03 3230.01,-213.6 3228.7,-206.73"/>
</g>
<!-- Node174 -->
<g id="node40" class="node">
<title>Node174</title>
<g id="a_node40"><a xlink:href="d__a__tag__setBall_8h.html" target="_top" xlink:title=" ">
<polygon fill="white" stroke="#666666" points="3642,-173 3534,-173 3534,-132 3642,-132 3642,-173"/>
<text text-anchor="start" x="3542" y="-161" font-family="Helvetica,sans-Serif" font-size="10.00">include/rel/d/a/tag</text>
<text text-anchor="start" x="3542" y="-150" font-family="Helvetica,sans-Serif" font-size="10.00">/d_a_tag_setBall/d_a</text>
<text text-anchor="middle" x="3588" y="-139" font-family="Helvetica,sans-Serif" font-size="10.00">_tag_setBall.h</text>
</a>
</g>
</g>
<!-- Node2&#45;&gt;Node174 -->
<g id="edge44" class="edge">
<title>Node2&#45;&gt;Node174</title>
<path fill="none" stroke="#63b8ff" d="M3229.32,-216.73C3303.25,-209.36 3422.68,-195.23 3524,-173 3527.18,-172.3 3530.42,-171.53 3533.69,-170.69"/>
<polygon fill="#63b8ff" stroke="#63b8ff" points="3229.42,-213.2 3219.81,-217.66 3230.1,-220.17 3229.42,-213.2"/>
</g>
<!-- Node175 -->
<g id="node41" class="node">
<title>Node175</title>
<g id="a_node41"><a xlink:href="d__a__tag__setrestart_8h.html" target="_top" xlink:title=" ">
<polygon fill="white" stroke="#666666" points="3768,-173 3660,-173 3660,-132 3768,-132 3768,-173"/>
<text text-anchor="start" x="3668" y="-161" font-family="Helvetica,sans-Serif" font-size="10.00">include/rel/d/a/tag</text>
<text text-anchor="start" x="3668" y="-150" font-family="Helvetica,sans-Serif" font-size="10.00">/d_a_tag_setrestart</text>
<text text-anchor="middle" x="3714" y="-139" font-family="Helvetica,sans-Serif" font-size="10.00">/d_a_tag_setrestart.h</text>
</a>
</g>
</g>
<!-- Node2&#45;&gt;Node175 -->
<g id="edge45" class="edge">
<title>Node2&#45;&gt;Node175</title>
<path fill="none" stroke="#63b8ff" d="M3229.58,-220.24C3325.72,-215.48 3502.85,-203.14 3651,-173 3653.8,-172.43 3656.66,-171.78 3659.54,-171.08"/>
<polygon fill="#63b8ff" stroke="#63b8ff" points="3229.6,-216.73 3219.78,-220.71 3229.93,-223.72 3229.6,-216.73"/>
</g>
<!-- Node176 -->
<g id="node42" class="node">
<title>Node176</title>
<g id="a_node42"><a xlink:href="d__a__tag__shop__camera_8h.html" target="_top" xlink:title=" ">
<polygon fill="white" stroke="#666666" points="3911.5,-173 3786.5,-173 3786.5,-132 3911.5,-132 3911.5,-173"/>
<text text-anchor="start" x="3794.5" y="-161" font-family="Helvetica,sans-Serif" font-size="10.00">include/rel/d/a/tag</text>
<text text-anchor="start" x="3794.5" y="-150" font-family="Helvetica,sans-Serif" font-size="10.00">/d_a_tag_shop_camera</text>
<text text-anchor="middle" x="3849" y="-139" font-family="Helvetica,sans-Serif" font-size="10.00">/d_a_tag_shop_camera.h</text>
</a>
</g>
</g>
<!-- Node2&#45;&gt;Node176 -->
<g id="edge46" class="edge">
<title>Node2&#45;&gt;Node176</title>
<path fill="none" stroke="#63b8ff" d="M3229.71,-221.5C3345.08,-218.1 3580.67,-207.23 3777,-173 3780.06,-172.47 3783.18,-171.86 3786.32,-171.2"/>
<polygon fill="#63b8ff" stroke="#63b8ff" points="3229.66,-218 3219.76,-221.78 3229.86,-224.99 3229.66,-218"/>
</g>
<!-- Node78 -->
<g id="node43" class="node">
<title>Node78</title>
<g id="a_node43"><a xlink:href="d__a__tag__spinner_8h.html" target="_top" xlink:title=" ">
<polygon fill="white" stroke="#666666" points="4040,-173 3930,-173 3930,-132 4040,-132 4040,-173"/>
<text text-anchor="start" x="3938" y="-161" font-family="Helvetica,sans-Serif" font-size="10.00">include/rel/d/a/tag</text>
<text text-anchor="start" x="3938" y="-150" font-family="Helvetica,sans-Serif" font-size="10.00">/d_a_tag_spinner/d_a</text>
<text text-anchor="middle" x="3985" y="-139" font-family="Helvetica,sans-Serif" font-size="10.00">_tag_spinner.h</text>
</a>
</g>
</g>
<!-- Node2&#45;&gt;Node78 -->
<g id="edge47" class="edge">
<title>Node2&#45;&gt;Node78</title>
<path fill="none" stroke="#63b8ff" d="M3229.66,-223.65C3364.84,-223.73 3669,-218.29 3920,-173 3923.13,-172.44 3926.32,-171.77 3929.53,-171.04"/>
<polygon fill="#63b8ff" stroke="#63b8ff" points="3229.79,-220.15 3219.78,-223.63 3229.78,-227.15 3229.79,-220.15"/>
</g>
<!-- Node95 -->
<g id="node44" class="node">
<title>Node95</title>
<g id="a_node44"><a xlink:href="d__a__tag__spring_8h.html" target="_top" xlink:title=" ">
<polygon fill="white" stroke="#666666" points="4162,-173 4058,-173 4058,-132 4162,-132 4162,-173"/>
<text text-anchor="start" x="4066" y="-161" font-family="Helvetica,sans-Serif" font-size="10.00">include/rel/d/a/tag</text>
<text text-anchor="start" x="4066" y="-150" font-family="Helvetica,sans-Serif" font-size="10.00">/d_a_tag_spring/d_a</text>
<text text-anchor="middle" x="4110" y="-139" font-family="Helvetica,sans-Serif" font-size="10.00">_tag_spring.h</text>
</a>
</g>
</g>
<!-- Node2&#45;&gt;Node95 -->
<g id="edge48" class="edge">
<title>Node2&#45;&gt;Node95</title>
<path fill="none" stroke="#63b8ff" d="M3229.76,-221.34C3411.67,-216.69 3892.29,-201.96 4049,-173 4051.84,-172.47 4054.74,-171.85 4057.64,-171.17"/>
<polygon fill="#63b8ff" stroke="#63b8ff" points="3229.9,-217.83 3219.99,-221.58 3230.08,-224.83 3229.9,-217.83"/>
</g>
<!-- Node96 -->
<g id="node45" class="node">
<title>Node96</title>
<g id="a_node45"><a xlink:href="d__a__tag__stream_8h.html" target="_top" xlink:title=" ">
<polygon fill="white" stroke="#666666" points="4288,-173 4180,-173 4180,-132 4288,-132 4288,-173"/>
<text text-anchor="start" x="4188" y="-161" font-family="Helvetica,sans-Serif" font-size="10.00">include/rel/d/a/tag</text>
<text text-anchor="start" x="4188" y="-150" font-family="Helvetica,sans-Serif" font-size="10.00">/d_a_tag_stream/d_a</text>
<text text-anchor="middle" x="4234" y="-139" font-family="Helvetica,sans-Serif" font-size="10.00">_tag_stream.h</text>
</a>
</g>
</g>
<!-- Node2&#45;&gt;Node96 -->
<g id="edge49" class="edge">
<title>Node2&#45;&gt;Node96</title>
<path fill="none" stroke="#63b8ff" d="M3229.91,-221.81C3428.9,-218.09 3989.8,-205 4171,-173 4173.82,-172.5 4176.69,-171.92 4179.57,-171.26"/>
<polygon fill="#63b8ff" stroke="#63b8ff" points="3229.9,-218.31 3219.97,-221.99 3230.03,-225.3 3229.9,-218.31"/>
</g>
<!-- Node177 -->
<g id="node46" class="node">
<title>Node177</title>
<g id="a_node46"><a xlink:href="d__a__tag__wara__howl_8h.html" target="_top" xlink:title=" ">
<polygon fill="white" stroke="#666666" points="4420,-173 4306,-173 4306,-132 4420,-132 4420,-173"/>
<text text-anchor="start" x="4314" y="-161" font-family="Helvetica,sans-Serif" font-size="10.00">include/rel/d/a/tag</text>
<text text-anchor="start" x="4314" y="-150" font-family="Helvetica,sans-Serif" font-size="10.00">/d_a_tag_wara_howl/d</text>
<text text-anchor="middle" x="4363" y="-139" font-family="Helvetica,sans-Serif" font-size="10.00">_a_tag_wara_howl.h</text>
</a>
</g>
</g>
<!-- Node2&#45;&gt;Node177 -->
<g id="edge50" class="edge">
<title>Node2&#45;&gt;Node177</title>
<path fill="none" stroke="#63b8ff" d="M3229.68,-222.14C3444.9,-219.18 4090.15,-207.57 4297,-173 4299.83,-172.53 4302.71,-171.97 4305.6,-171.35"/>
<polygon fill="#63b8ff" stroke="#63b8ff" points="3229.7,-218.64 3219.75,-222.28 3229.8,-225.64 3229.7,-218.64"/>
</g>
<!-- Node178 -->
<g id="node47" class="node">
<title>Node178</title>
<g id="a_node47"><a xlink:href="d__bg__s__acch_8cpp.html" target="_top" xlink:title=" ">
<polygon fill="white" stroke="#666666" points="4569.5,-162 4438.5,-162 4438.5,-143 4569.5,-143 4569.5,-162"/>
<text text-anchor="middle" x="4504" y="-150" font-family="Helvetica,sans-Serif" font-size="10.00">src/d/bg/d_bg_s_acch.cpp</text>
</a>
</g>
</g>
<!-- Node2&#45;&gt;Node178 -->
<g id="edge53" class="edge">
<title>Node2&#45;&gt;Node178</title>
<path fill="none" stroke="#63b8ff" d="M3229.44,-222.22C3460.61,-219.34 4194.75,-207.65 4429,-173 4444.57,-170.7 4461.58,-166.43 4475.45,-162.47"/>
<polygon fill="#63b8ff" stroke="#63b8ff" points="3229.63,-218.72 3219.68,-222.34 3229.72,-225.72 3229.63,-218.72"/>
</g>
<!-- Node2&#45;&gt;Node180 -->
<g id="edge54" class="edge">
<title>Node2&#45;&gt;Node180</title>
<path fill="none" stroke="#63b8ff" d="M3229.92,-222.16C3587.37,-217.85 5183.1,-197.36 5403,-173 5423.15,-170.77 5445.33,-166.45 5463.39,-162.44"/>
<polygon fill="#63b8ff" stroke="#63b8ff" points="3229.94,-218.66 3219.98,-222.28 3230.02,-225.66 3229.94,-218.66"/>
</g>
<!-- Node2&#45;&gt;Node49 -->
<g id="edge55" class="edge">
<title>Node2&#45;&gt;Node49</title>
<path fill="none" stroke="#63b8ff" d="M3229.56,-222.06C3616.96,-216.81 5472.29,-190.85 5592,-173 5606.65,-170.82 5622.59,-166.45 5635.46,-162.4"/>
<polygon fill="#63b8ff" stroke="#63b8ff" points="3229.73,-218.55 3219.78,-222.19 3229.82,-225.55 3229.73,-218.55"/>
</g>
<!-- Node3&#45;&gt;Node14 -->
<g id="edge3" class="edge">
<title>Node3&#45;&gt;Node14</title>
<path fill="none" stroke="#63b8ff" d="M3273.29,-71.6C3533.05,-60.74 4446.04,-22.58 4680.03,-12.8"/>
<polygon fill="#63b8ff" stroke="#63b8ff" points="3273.5,-68.09 3263.66,-72.01 3273.8,-75.09 3273.5,-68.09"/>
</g>
<!-- Node149&#45;&gt;Node14 -->
<g id="edge7" class="edge">
<title>Node149&#45;&gt;Node14</title>
<path fill="none" stroke="#63b8ff" d="M4692.75,-57.12C4703.83,-44.89 4718.2,-29.04 4727,-19.32"/>
<polygon fill="#63b8ff" stroke="#63b8ff" points="4690.2,-54.72 4686.08,-64.48 4695.39,-59.42 4690.2,-54.72"/>
</g>
<!-- Node154&#45;&gt;Node79 -->
<g id="edge12" class="edge">
<title>Node154&#45;&gt;Node79</title>
<path fill="none" stroke="#63b8ff" d="M130.93,-130.33C110.48,-115.44 84.15,-96.27 69.07,-85.29"/>
<polygon fill="#63b8ff" stroke="#63b8ff" points="128.77,-133.09 138.92,-136.15 132.89,-127.43 128.77,-133.09"/>
</g>
<!-- Node156&#45;&gt;Node14 -->
<g id="edge15" class="edge">
<title>Node156&#45;&gt;Node14</title>
<path fill="none" stroke="#63b8ff" d="M4773.36,-52.11C4762.95,-40.82 4750.93,-27.78 4743.15,-19.34"/>
<polygon fill="#63b8ff" stroke="#63b8ff" points="4770.53,-54.2 4779.88,-59.18 4775.68,-49.46 4770.53,-54.2"/>
</g>
<!-- Node157&#45;&gt;Node14 -->
<g id="edge18" class="edge">
<title>Node157&#45;&gt;Node14</title>
<path fill="none" stroke="#63b8ff" d="M4851.69,-50.87C4820.08,-39.93 4784.43,-27.6 4760.94,-19.47"/>
<polygon fill="#63b8ff" stroke="#63b8ff" points="4850.2,-54.06 4860.8,-54.02 4852.49,-47.44 4850.2,-54.06"/>
</g>
<!-- Node171&#45;&gt;Node14 -->
<g id="edge39" class="edge">
<title>Node171&#45;&gt;Node14</title>
<path fill="none" stroke="#63b8ff" d="M5150.56,-64.78C5051.32,-51.81 4877.97,-29.17 4789.83,-17.66"/>
<polygon fill="#63b8ff" stroke="#63b8ff" points="5149.82,-68.21 5160.19,-66.04 5150.73,-61.27 5149.82,-68.21"/>
</g>
<!-- Node172&#45;&gt;Node3 -->
<g id="edge41" class="edge">
<title>Node172&#45;&gt;Node3</title>
<path fill="none" stroke="#63b8ff" d="M3204,-120.53C3204,-107.74 3204,-93.92 3204,-85.24"/>
<polygon fill="#63b8ff" stroke="#63b8ff" points="3200.5,-120.28 3204,-130.28 3207.5,-120.28 3200.5,-120.28"/>
</g>
</g>
</svg>
