<?xml version="1.0" encoding="UTF-8" standalone="no"?>
<!DOCTYPE svg PUBLIC "-//W3C//DTD SVG 1.1//EN"
 "http://www.w3.org/Graphics/SVG/1.1/DTD/svg11.dtd">
<!-- Generated by graphviz version 7.0.5 (20221223.1930)
 -->
<!-- Title: include/f_op/f_op_scene_tag.h Pages: 1 -->
<svg width="2431pt" height="291pt"
 viewBox="0.00 0.00 2430.50 291.00" xmlns="http://www.w3.org/2000/svg" xmlns:xlink="http://www.w3.org/1999/xlink">
<g id="graph0" class="graph" transform="scale(1 1) rotate(0) translate(4 287)">
<title>include/f_op/f_op_scene_tag.h</title>
<!-- Node1 -->
<g id="node1" class="node">
<title>Node1</title>
<g id="a_node1"><a xlink:title=" ">
<polygon fill="#999999" stroke="#666666" points="2265,-283 2143,-283 2143,-253 2265,-253 2265,-283"/>
<text text-anchor="start" x="2151" y="-271" font-family="Helvetica,sans-Serif" font-size="10.00">include/f_op/f_op_scene</text>
<text text-anchor="middle" x="2204" y="-260" font-family="Helvetica,sans-Serif" font-size="10.00">_tag.h</text>
</a>
</g>
</g>
<!-- Node2 -->
<g id="node2" class="node">
<title>Node2</title>
<g id="a_node2"><a xlink:href="f__op__scene_8h.html" target="_top" xlink:title=" ">
<polygon fill="white" stroke="#666666" points="1939,-211.5 1809,-211.5 1809,-192.5 1939,-192.5 1939,-211.5"/>
<text text-anchor="middle" x="1874" y="-199.5" font-family="Helvetica,sans-Serif" font-size="10.00">include/f_op/f_op_scene.h</text>
</a>
</g>
</g>
<!-- Node1&#45;&gt;Node2 -->
<g id="edge1" class="edge">
<title>Node1&#45;&gt;Node2</title>
<path fill="none" stroke="#63b8ff" d="M2131.43,-252.93C2067.13,-240.46 1975.17,-222.62 1920.34,-211.99"/>
<polygon fill="#63b8ff" stroke="#63b8ff" points="2130.73,-256.36 2141.22,-254.82 2132.07,-249.48 2130.73,-256.36"/>
</g>
<!-- Node29 -->
<g id="node29" class="node">
<title>Node29</title>
<g id="a_node29"><a xlink:href="f__op__scene_8cpp.html" target="_top" xlink:title=" ">
<polygon fill="white" stroke="#666666" points="2422.5,-145.5 2299.5,-145.5 2299.5,-126.5 2422.5,-126.5 2422.5,-145.5"/>
<text text-anchor="middle" x="2361" y="-133.5" font-family="Helvetica,sans-Serif" font-size="10.00">src/f_op/f_op_scene.cpp</text>
</a>
</g>
</g>
<!-- Node1&#45;&gt;Node29 -->
<g id="edge37" class="edge">
<title>Node1&#45;&gt;Node29</title>
<path fill="none" stroke="#63b8ff" d="M2188.1,-242.74C2179.1,-225.66 2171.84,-203.07 2184,-187 2192.31,-176.02 2269.79,-157.13 2319.44,-145.98"/>
<polygon fill="#63b8ff" stroke="#63b8ff" points="2184.98,-244.33 2193.02,-251.24 2191.04,-240.83 2184.98,-244.33"/>
</g>
<!-- Node32 -->
<g id="node32" class="node">
<title>Node32</title>
<g id="a_node32"><a xlink:href="f__op__scene__iter_8cpp.html" target="_top" xlink:title=" ">
<polygon fill="white" stroke="#666666" points="2297.5,-217 2192.5,-217 2192.5,-187 2297.5,-187 2297.5,-217"/>
<text text-anchor="start" x="2200.5" y="-205" font-family="Helvetica,sans-Serif" font-size="10.00">src/f_op/f_op_scene</text>
<text text-anchor="middle" x="2245" y="-194" font-family="Helvetica,sans-Serif" font-size="10.00">_iter.cpp</text>
</a>
</g>
</g>
<!-- Node1&#45;&gt;Node32 -->
<g id="edge38" class="edge">
<title>Node1&#45;&gt;Node32</title>
<path fill="none" stroke="#63b8ff" d="M2219.3,-243.11C2224.9,-234.38 2231.05,-224.78 2235.93,-217.16"/>
<polygon fill="#63b8ff" stroke="#63b8ff" points="2216.36,-241.21 2213.92,-251.52 2222.26,-244.99 2216.36,-241.21"/>
</g>
<!-- Node33 -->
<g id="node33" class="node">
<title>Node33</title>
<g id="a_node33"><a xlink:href="f__op__scene__tag_8cpp.html" target="_top" xlink:title=" ">
<polygon fill="white" stroke="#666666" points="2420.5,-217 2315.5,-217 2315.5,-187 2420.5,-187 2420.5,-217"/>
<text text-anchor="start" x="2323.5" y="-205" font-family="Helvetica,sans-Serif" font-size="10.00">src/f_op/f_op_scene</text>
<text text-anchor="middle" x="2368" y="-194" font-family="Helvetica,sans-Serif" font-size="10.00">_tag.cpp</text>
</a>
</g>
</g>
<!-- Node1&#45;&gt;Node33 -->
<g id="edge39" class="edge">
<title>Node1&#45;&gt;Node33</title>
<path fill="none" stroke="#63b8ff" d="M2251.3,-248.54C2276.66,-238.64 2307.45,-226.63 2331.03,-217.43"/>
<polygon fill="#63b8ff" stroke="#63b8ff" points="2250.26,-245.19 2242.21,-252.09 2252.8,-251.71 2250.26,-245.19"/>
</g>
<!-- Node3 -->
<g id="node3" class="node">
<title>Node3</title>
<g id="a_node3"><a xlink:href="d__s__logo_8h.html" target="_top" xlink:title=" ">
<polygon fill="white" stroke="#666666" points="2281.5,-145.5 2168.5,-145.5 2168.5,-126.5 2281.5,-126.5 2281.5,-145.5"/>
<text text-anchor="middle" x="2225" y="-133.5" font-family="Helvetica,sans-Serif" font-size="10.00">include/d/s/d_s_logo.h</text>
</a>
</g>
</g>
<!-- Node2&#45;&gt;Node3 -->
<g id="edge2" class="edge">
<title>Node2&#45;&gt;Node3</title>
<path fill="none" stroke="#63b8ff" d="M1937.23,-190.04C1994.02,-180.12 2079.65,-164.97 2154,-151 2162.52,-149.4 2171.61,-147.64 2180.33,-145.93"/>
<polygon fill="#63b8ff" stroke="#63b8ff" points="1936.66,-186.59 1927.41,-191.76 1937.86,-193.49 1936.66,-186.59"/>
</g>
<!-- Node5 -->
<g id="node5" class="node">
<title>Node5</title>
<g id="a_node5"><a xlink:href="d__s__name_8h.html" target="_top" xlink:title=" ">
<polygon fill="white" stroke="#666666" points="1611.5,-145.5 1492.5,-145.5 1492.5,-126.5 1611.5,-126.5 1611.5,-145.5"/>
<text text-anchor="middle" x="1552" y="-133.5" font-family="Helvetica,sans-Serif" font-size="10.00">include/d/s/d_s_name.h</text>
</a>
</g>
</g>
<!-- Node2&#45;&gt;Node5 -->
<g id="edge4" class="edge">
<title>Node2&#45;&gt;Node5</title>
<path fill="none" stroke="#63b8ff" d="M1816.87,-189.9C1765.38,-179.86 1687.59,-164.61 1620,-151 1611.97,-149.38 1603.4,-147.64 1595.16,-145.94"/>
<polygon fill="#63b8ff" stroke="#63b8ff" points="1816.12,-193.32 1826.6,-191.8 1817.46,-186.45 1816.12,-193.32"/>
</g>
<!-- Node6 -->
<g id="node6" class="node">
<title>Node6</title>
<g id="a_node6"><a xlink:href="d__s__name_8cpp.html" target="_top" xlink:title=" ">
<polygon fill="white" stroke="#666666" points="2196.5,-79.5 2083.5,-79.5 2083.5,-60.5 2196.5,-60.5 2196.5,-79.5"/>
<text text-anchor="middle" x="2140" y="-67.5" font-family="Helvetica,sans-Serif" font-size="10.00">src/d/s/d_s_name.cpp</text>
</a>
</g>
</g>
<!-- Node2&#45;&gt;Node6 -->
<g id="edge31" class="edge">
<title>Node2&#45;&gt;Node6</title>
<path fill="none" stroke="#63b8ff" d="M1950.52,-194.33C2013.45,-187.29 2096.01,-173.95 2120,-151 2139.86,-132 2141.18,-96.5 2140.6,-79.94"/>
<polygon fill="#63b8ff" stroke="#63b8ff" points="1950.49,-190.82 1940.92,-195.37 1951.24,-197.78 1950.49,-190.82"/>
</g>
<!-- Node7 -->
<g id="node7" class="node">
<title>Node7</title>
<g id="a_node7"><a xlink:href="d__s__play_8h.html" target="_top" xlink:title=" ">
<polygon fill="white" stroke="#666666" points="689.5,-145.5 576.5,-145.5 576.5,-126.5 689.5,-126.5 689.5,-145.5"/>
<text text-anchor="middle" x="633" y="-133.5" font-family="Helvetica,sans-Serif" font-size="10.00">include/d/s/d_s_play.h</text>
</a>
</g>
</g>
<!-- Node2&#45;&gt;Node7 -->
<g id="edge6" class="edge">
<title>Node2&#45;&gt;Node7</title>
<path fill="none" stroke="#63b8ff" d="M1797.36,-197.05C1567.99,-185.22 890.41,-150.27 689.66,-139.92"/>
<polygon fill="#63b8ff" stroke="#63b8ff" points="1796.91,-200.53 1807.08,-197.55 1797.27,-193.54 1796.91,-200.53"/>
</g>
<!-- Node12 -->
<g id="node12" class="node">
<title>Node12</title>
<g id="a_node12"><a xlink:href="d__s__room_8cpp.html" target="_top" xlink:title=" ">
<polygon fill="white" stroke="#666666" points="1167,-79.5 1057,-79.5 1057,-60.5 1167,-60.5 1167,-79.5"/>
<text text-anchor="middle" x="1112" y="-67.5" font-family="Helvetica,sans-Serif" font-size="10.00">src/d/s/d_s_room.cpp</text>
</a>
</g>
</g>
<!-- Node2&#45;&gt;Node12 -->
<g id="edge32" class="edge">
<title>Node2&#45;&gt;Node12</title>
<path fill="none" stroke="#63b8ff" d="M1797.34,-199.52C1693.31,-196.22 1502.18,-185.53 1343,-151 1262.95,-133.63 1172.31,-96.98 1132.54,-79.99"/>
<polygon fill="#63b8ff" stroke="#63b8ff" points="1797.05,-203.01 1807.15,-199.82 1797.26,-196.02 1797.05,-203.01"/>
</g>
<!-- Node17 -->
<g id="node17" class="node">
<title>Node17</title>
<g id="a_node17"><a xlink:href="f__op__scene__mng_8h.html" target="_top" xlink:title=" ">
<polygon fill="white" stroke="#666666" points="1474,-151 1352,-151 1352,-121 1474,-121 1474,-151"/>
<text text-anchor="start" x="1360" y="-139" font-family="Helvetica,sans-Serif" font-size="10.00">include/f_op/f_op_scene</text>
<text text-anchor="middle" x="1413" y="-128" font-family="Helvetica,sans-Serif" font-size="10.00">_mng.h</text>
</a>
</g>
</g>
<!-- Node2&#45;&gt;Node17 -->
<g id="edge16" class="edge">
<title>Node2&#45;&gt;Node17</title>
<path fill="none" stroke="#63b8ff" d="M1797.46,-192.82C1718.47,-184 1591.78,-168.81 1483,-151 1480.19,-150.54 1477.31,-150.05 1474.42,-149.54"/>
<polygon fill="#63b8ff" stroke="#63b8ff" points="1796.94,-196.28 1807.26,-193.91 1797.71,-189.33 1796.94,-196.28"/>
</g>
<!-- Node27 -->
<g id="node27" class="node">
<title>Node27</title>
<g id="a_node27"><a xlink:href="d__s__menu_8cpp.html" target="_top" xlink:title=" ">
<polygon fill="white" stroke="#666666" points="1742.5,-145.5 1629.5,-145.5 1629.5,-126.5 1742.5,-126.5 1742.5,-145.5"/>
<text text-anchor="middle" x="1686" y="-133.5" font-family="Helvetica,sans-Serif" font-size="10.00">src/d/s/d_s_menu.cpp</text>
</a>
</g>
</g>
<!-- Node2&#45;&gt;Node27 -->
<g id="edge30" class="edge">
<title>Node2&#45;&gt;Node27</title>
<path fill="none" stroke="#63b8ff" d="M1837.09,-188.43C1800.3,-175.91 1744.72,-156.99 1712.22,-145.93"/>
<polygon fill="#63b8ff" stroke="#63b8ff" points="1835.83,-191.7 1846.43,-191.61 1838.09,-185.08 1835.83,-191.7"/>
</g>
<!-- Node28 -->
<g id="node28" class="node">
<title>Node28</title>
<g id="a_node28"><a xlink:href="d__s__title_8cpp.html" target="_top" xlink:title=" ">
<polygon fill="white" stroke="#666666" points="1865,-145.5 1761,-145.5 1761,-126.5 1865,-126.5 1865,-145.5"/>
<text text-anchor="middle" x="1813" y="-133.5" font-family="Helvetica,sans-Serif" font-size="10.00">src/d/s/d_s_title.cpp</text>
</a>
</g>
</g>
<!-- Node2&#45;&gt;Node28 -->
<g id="edge33" class="edge">
<title>Node2&#45;&gt;Node28</title>
<path fill="none" stroke="#63b8ff" d="M1857.78,-183.98C1846.08,-171.7 1830.76,-155.63 1821.41,-145.82"/>
<polygon fill="#63b8ff" stroke="#63b8ff" points="1855.04,-186.18 1864.47,-191.01 1860.11,-181.35 1855.04,-186.18"/>
</g>
<!-- Node2&#45;&gt;Node29 -->
<g id="edge34" class="edge">
<title>Node2&#45;&gt;Node29</title>
<path fill="none" stroke="#63b8ff" d="M1950.43,-193.64C2034.25,-185.16 2172.6,-169.91 2291,-151 2300.06,-149.55 2309.73,-147.77 2318.9,-145.97"/>
<polygon fill="#63b8ff" stroke="#63b8ff" points="1950.33,-190.14 1940.73,-194.62 1951.03,-197.1 1950.33,-190.14"/>
</g>
<!-- Node30 -->
<g id="node30" class="node">
<title>Node30</title>
<g id="a_node30"><a xlink:href="f__op__scene__pause_8cpp.html" target="_top" xlink:title=" ">
<polygon fill="white" stroke="#666666" points="1988.5,-151 1883.5,-151 1883.5,-121 1988.5,-121 1988.5,-151"/>
<text text-anchor="start" x="1891.5" y="-139" font-family="Helvetica,sans-Serif" font-size="10.00">src/f_op/f_op_scene</text>
<text text-anchor="middle" x="1936" y="-128" font-family="Helvetica,sans-Serif" font-size="10.00">_pause.cpp</text>
</a>
</g>
</g>
<!-- Node2&#45;&gt;Node30 -->
<g id="edge35" class="edge">
<title>Node2&#45;&gt;Node30</title>
<path fill="none" stroke="#63b8ff" d="M1890.52,-183.95C1900.42,-173.73 1912.85,-160.9 1922.21,-151.23"/>
<polygon fill="#63b8ff" stroke="#63b8ff" points="1888.12,-181.4 1883.67,-191.01 1893.15,-186.27 1888.12,-181.4"/>
</g>
<!-- Node31 -->
<g id="node31" class="node">
<title>Node31</title>
<g id="a_node31"><a xlink:href="f__op__scene__req_8cpp.html" target="_top" xlink:title=" ">
<polygon fill="white" stroke="#666666" points="2111.5,-151 2006.5,-151 2006.5,-121 2111.5,-121 2111.5,-151"/>
<text text-anchor="start" x="2014.5" y="-139" font-family="Helvetica,sans-Serif" font-size="10.00">src/f_op/f_op_scene</text>
<text text-anchor="middle" x="2059" y="-128" font-family="Helvetica,sans-Serif" font-size="10.00">_req.cpp</text>
</a>
</g>
</g>
<!-- Node2&#45;&gt;Node31 -->
<g id="edge36" class="edge">
<title>Node2&#45;&gt;Node31</title>
<path fill="none" stroke="#63b8ff" d="M1910.38,-188.41C1941.07,-177.8 1985.01,-162.6 2017.15,-151.48"/>
<polygon fill="#63b8ff" stroke="#63b8ff" points="1909.46,-185.03 1901.15,-191.61 1911.75,-191.64 1909.46,-185.03"/>
</g>
<!-- Node4 -->
<g id="node4" class="node">
<title>Node4</title>
<g id="a_node4"><a xlink:href="d__s__logo_8cpp.html" target="_top" xlink:title=" ">
<polygon fill="white" stroke="#666666" points="2108.5,-19 2001.5,-19 2001.5,0 2108.5,0 2108.5,-19"/>
<text text-anchor="middle" x="2055" y="-7" font-family="Helvetica,sans-Serif" font-size="10.00">src/d/s/d_s_logo.cpp</text>
</a>
</g>
</g>
<!-- Node3&#45;&gt;Node4 -->
<g id="edge3" class="edge">
<title>Node3&#45;&gt;Node4</title>
<path fill="none" stroke="#63b8ff" d="M2225.56,-114.79C2224.95,-96.83 2221.17,-71.01 2206,-55 2180.99,-28.62 2141.21,-17.64 2108.76,-13.18"/>
<polygon fill="#63b8ff" stroke="#63b8ff" points="2222.06,-114.72 2225.57,-124.72 2229.06,-114.72 2222.06,-114.72"/>
</g>
<!-- Node5&#45;&gt;Node6 -->
<g id="edge5" class="edge">
<title>Node5&#45;&gt;Node6</title>
<path fill="none" stroke="#63b8ff" d="M1602.55,-123.87C1608.42,-122.79 1614.33,-121.81 1620,-121 1820.4,-92.54 1873.69,-114.06 2074,-85 2083.04,-83.69 2092.7,-81.88 2101.76,-79.99"/>
<polygon fill="#63b8ff" stroke="#63b8ff" points="1602.05,-120.4 1592.89,-125.74 1603.38,-127.28 1602.05,-120.4"/>
</g>
<!-- Node8 -->
<g id="node8" class="node">
<title>Node8</title>
<g id="a_node8"><a xlink:href="d__cc__uty_8cpp.html" target="_top" xlink:title=" ">
<polygon fill="white" stroke="#666666" points="246,-79.5 134,-79.5 134,-60.5 246,-60.5 246,-79.5"/>
<text text-anchor="middle" x="190" y="-67.5" font-family="Helvetica,sans-Serif" font-size="10.00">src/d/cc/d_cc_uty.cpp</text>
</a>
</g>
</g>
<!-- Node7&#45;&gt;Node8 -->
<g id="edge7" class="edge">
<title>Node7&#45;&gt;Node8</title>
<path fill="none" stroke="#63b8ff" d="M564.83,-127.66C488.94,-119.1 362.79,-103.71 255,-85 246.58,-83.54 237.6,-81.75 229.08,-79.95"/>
<polygon fill="#63b8ff" stroke="#63b8ff" points="564.28,-131.12 574.6,-128.75 565.06,-124.16 564.28,-131.12"/>
</g>
<!-- Node9 -->
<g id="node9" class="node">
<title>Node9</title>
<g id="a_node9"><a xlink:href="d__drawlist_8cpp.html" target="_top" xlink:title=" ">
<polygon fill="white" stroke="#666666" points="368,-79.5 264,-79.5 264,-60.5 368,-60.5 368,-79.5"/>
<text text-anchor="middle" x="316" y="-67.5" font-family="Helvetica,sans-Serif" font-size="10.00">src/d/d_drawlist.cpp</text>
</a>
</g>
</g>
<!-- Node7&#45;&gt;Node9 -->
<g id="edge8" class="edge">
<title>Node7&#45;&gt;Node9</title>
<path fill="none" stroke="#63b8ff" d="M573.77,-124C521.81,-114.22 444.27,-99.28 377,-85 369.56,-83.42 361.63,-81.66 354.03,-79.93"/>
<polygon fill="#63b8ff" stroke="#63b8ff" points="572.82,-127.38 583.29,-125.79 574.11,-120.5 572.82,-127.38"/>
</g>
<!-- Node10 -->
<g id="node10" class="node">
<title>Node10</title>
<g id="a_node10"><a xlink:href="d__eye__hl_8cpp.html" target="_top" xlink:title=" ">
<polygon fill="white" stroke="#666666" points="484,-79.5 386,-79.5 386,-60.5 484,-60.5 484,-79.5"/>
<text text-anchor="middle" x="435" y="-67.5" font-family="Helvetica,sans-Serif" font-size="10.00">src/d/d_eye_hl.cpp</text>
</a>
</g>
</g>
<!-- Node7&#45;&gt;Node10 -->
<g id="edge9" class="edge">
<title>Node7&#45;&gt;Node10</title>
<path fill="none" stroke="#63b8ff" d="M594.63,-122.6C555.88,-110.07 496.99,-91.04 462.62,-79.93"/>
<polygon fill="#63b8ff" stroke="#63b8ff" points="593.44,-125.89 604.03,-125.64 595.59,-119.23 593.44,-125.89"/>
</g>
<!-- Node11 -->
<g id="node11" class="node">
<title>Node11</title>
<g id="a_node11"><a xlink:href="d__s__play_8cpp.html" target="_top" xlink:title=" ">
<polygon fill="white" stroke="#666666" points="1039,-79.5 933,-79.5 933,-60.5 1039,-60.5 1039,-79.5"/>
<text text-anchor="middle" x="986" y="-67.5" font-family="Helvetica,sans-Serif" font-size="10.00">src/d/s/d_s_play.cpp</text>
</a>
</g>
</g>
<!-- Node7&#45;&gt;Node11 -->
<g id="edge10" class="edge">
<title>Node7&#45;&gt;Node11</title>
<path fill="none" stroke="#63b8ff" d="M700.82,-124.37C759.91,-114.86 847.83,-100.13 924,-85 931.68,-83.47 939.88,-81.72 947.7,-79.97"/>
<polygon fill="#63b8ff" stroke="#63b8ff" points="700.58,-120.86 691.26,-125.9 701.69,-127.78 700.58,-120.86"/>
</g>
<!-- Node7&#45;&gt;Node12 -->
<g id="edge11" class="edge">
<title>Node7&#45;&gt;Node12</title>
<path fill="none" stroke="#63b8ff" d="M701.2,-128.8C783.66,-120.84 926.53,-105.56 1048,-85 1056.41,-83.58 1065.39,-81.79 1073.87,-79.96"/>
<polygon fill="#63b8ff" stroke="#63b8ff" points="701.1,-125.29 691.48,-129.73 701.76,-132.26 701.1,-125.29"/>
</g>
<!-- Node13 -->
<g id="node13" class="node">
<title>Node13</title>
<g id="a_node13"><a xlink:href="f__op__actor_8cpp.html" target="_top" xlink:title=" ">
<polygon fill="white" stroke="#666666" points="621.5,-79.5 502.5,-79.5 502.5,-60.5 621.5,-60.5 621.5,-79.5"/>
<text text-anchor="middle" x="562" y="-67.5" font-family="Helvetica,sans-Serif" font-size="10.00">src/f_op/f_op_actor.cpp</text>
</a>
</g>
</g>
<!-- Node7&#45;&gt;Node13 -->
<g id="edge12" class="edge">
<title>Node7&#45;&gt;Node13</title>
<path fill="none" stroke="#63b8ff" d="M614.9,-118.69C601.19,-106.33 582.88,-89.82 571.79,-79.82"/>
<polygon fill="#63b8ff" stroke="#63b8ff" points="612.23,-120.99 622,-125.09 616.92,-115.79 612.23,-120.99"/>
</g>
<!-- Node14 -->
<g id="node14" class="node">
<title>Node14</title>
<g id="a_node14"><a xlink:href="f__op__camera_8cpp.html" target="_top" xlink:title=" ">
<polygon fill="white" stroke="#666666" points="768.5,-79.5 639.5,-79.5 639.5,-60.5 768.5,-60.5 768.5,-79.5"/>
<text text-anchor="middle" x="704" y="-67.5" font-family="Helvetica,sans-Serif" font-size="10.00">src/f_op/f_op_camera.cpp</text>
</a>
</g>
</g>
<!-- Node7&#45;&gt;Node14 -->
<g id="edge13" class="edge">
<title>Node7&#45;&gt;Node14</title>
<path fill="none" stroke="#63b8ff" d="M651.1,-118.69C664.81,-106.33 683.12,-89.82 694.21,-79.82"/>
<polygon fill="#63b8ff" stroke="#63b8ff" points="649.08,-115.79 644,-125.09 653.77,-120.99 649.08,-115.79"/>
</g>
<!-- Node15 -->
<g id="node15" class="node">
<title>Node15</title>
<g id="a_node15"><a xlink:href="f__op__kankyo_8cpp.html" target="_top" xlink:title=" ">
<polygon fill="white" stroke="#666666" points="915,-79.5 787,-79.5 787,-60.5 915,-60.5 915,-79.5"/>
<text text-anchor="middle" x="851" y="-67.5" font-family="Helvetica,sans-Serif" font-size="10.00">src/f_op/f_op_kankyo.cpp</text>
</a>
</g>
</g>
<!-- Node7&#45;&gt;Node15 -->
<g id="edge14" class="edge">
<title>Node7&#45;&gt;Node15</title>
<path fill="none" stroke="#63b8ff" d="M674.16,-122.92C716.79,-110.4 782.42,-91.13 820.59,-79.93"/>
<polygon fill="#63b8ff" stroke="#63b8ff" points="673.37,-119.5 664.76,-125.67 675.35,-126.22 673.37,-119.5"/>
</g>
<!-- Node16 -->
<g id="node16" class="node">
<title>Node16</title>
<g id="a_node16"><a xlink:href="f__op__msg_8cpp.html" target="_top" xlink:title=" ">
<polygon fill="white" stroke="#666666" points="116,-79.5 0,-79.5 0,-60.5 116,-60.5 116,-79.5"/>
<text text-anchor="middle" x="58" y="-67.5" font-family="Helvetica,sans-Serif" font-size="10.00">src/f_op/f_op_msg.cpp</text>
</a>
</g>
</g>
<!-- Node7&#45;&gt;Node16 -->
<g id="edge15" class="edge">
<title>Node7&#45;&gt;Node16</title>
<path fill="none" stroke="#63b8ff" d="M564.89,-130.64C467.14,-123.85 281.57,-108.99 125,-85 115.96,-83.61 106.29,-81.8 97.2,-79.93"/>
<polygon fill="#63b8ff" stroke="#63b8ff" points="564.65,-134.13 574.86,-131.33 565.12,-127.15 564.65,-134.13"/>
</g>
<!-- Node17&#45;&gt;Node6 -->
<g id="edge23" class="edge">
<title>Node17&#45;&gt;Node6</title>
<path fill="none" stroke="#63b8ff" d="M1485.71,-120.78C1745.96,-88.05 1816.93,-119.9 2074,-85 2083.29,-83.74 2093.21,-81.9 2102.47,-79.97"/>
<polygon fill="#63b8ff" stroke="#63b8ff" points="1485.36,-117.3 1475.88,-122.04 1486.25,-124.24 1485.36,-117.3"/>
</g>
<!-- Node17&#45;&gt;Node11 -->
<g id="edge24" class="edge">
<title>Node17&#45;&gt;Node11</title>
<path fill="none" stroke="#63b8ff" d="M1340.7,-126.95C1266.85,-118.3 1149.02,-103.29 1048,-85 1039.96,-83.55 1031.39,-81.76 1023.27,-79.96"/>
<polygon fill="#63b8ff" stroke="#63b8ff" points="1339.88,-130.38 1350.21,-128.06 1340.68,-123.43 1339.88,-130.38"/>
</g>
<!-- Node17&#45;&gt;Node12 -->
<g id="edge25" class="edge">
<title>Node17&#45;&gt;Node12</title>
<path fill="none" stroke="#63b8ff" d="M1340.61,-119.87C1293.67,-110.03 1231.19,-96.86 1176,-85 1168.44,-83.38 1160.38,-81.63 1152.62,-79.93"/>
<polygon fill="#63b8ff" stroke="#63b8ff" points="1339.6,-123.24 1350.11,-121.86 1341.04,-116.39 1339.6,-123.24"/>
</g>
<!-- Node18 -->
<g id="node18" class="node">
<title>Node18</title>
<g id="a_node18"><a xlink:href="c__dylink_8h.html" target="_top" xlink:title=" ">
<polygon fill="white" stroke="#666666" points="1687.5,-79.5 1586.5,-79.5 1586.5,-60.5 1687.5,-60.5 1687.5,-79.5"/>
<text text-anchor="middle" x="1637" y="-67.5" font-family="Helvetica,sans-Serif" font-size="10.00">include/c/c_dylink.h</text>
</a>
</g>
</g>
<!-- Node17&#45;&gt;Node18 -->
<g id="edge17" class="edge">
<title>Node17&#45;&gt;Node18</title>
<path fill="none" stroke="#63b8ff" d="M1474.35,-117.47C1516.87,-105.32 1571.73,-89.65 1605.63,-79.96"/>
<polygon fill="#63b8ff" stroke="#63b8ff" points="1473.66,-114.03 1465,-120.14 1475.58,-120.76 1473.66,-114.03"/>
</g>
<!-- Node21 -->
<g id="node21" class="node">
<title>Node21</title>
<g id="a_node21"><a xlink:href="d__com__inf__game_8cpp.html" target="_top" xlink:title=" ">
<polygon fill="white" stroke="#666666" points="1814,-85 1706,-85 1706,-55 1814,-55 1814,-85"/>
<text text-anchor="start" x="1714" y="-73" font-family="Helvetica,sans-Serif" font-size="10.00">src/d/com/d_com_inf</text>
<text text-anchor="middle" x="1760" y="-62" font-family="Helvetica,sans-Serif" font-size="10.00">_game.cpp</text>
</a>
</g>
</g>
<!-- Node17&#45;&gt;Node21 -->
<g id="edge21" class="edge">
<title>Node17&#45;&gt;Node21</title>
<path fill="none" stroke="#63b8ff" d="M1485.59,-120.56C1579.32,-103.54 1605.24,-102.59 1696,-85 1699.13,-84.39 1702.33,-83.75 1705.57,-83.09"/>
<polygon fill="#63b8ff" stroke="#63b8ff" points="1485.13,-117.09 1475.93,-122.33 1486.4,-123.97 1485.13,-117.09"/>
</g>
<!-- Node22 -->
<g id="node22" class="node">
<title>Node22</title>
<g id="a_node22"><a xlink:href="d__stage_8cpp.html" target="_top" xlink:title=" ">
<polygon fill="white" stroke="#666666" points="1926,-79.5 1832,-79.5 1832,-60.5 1926,-60.5 1926,-79.5"/>
<text text-anchor="middle" x="1879" y="-67.5" font-family="Helvetica,sans-Serif" font-size="10.00">src/d/d_stage.cpp</text>
</a>
</g>
</g>
<!-- Node17&#45;&gt;Node22 -->
<g id="edge22" class="edge">
<title>Node17&#45;&gt;Node22</title>
<path fill="none" stroke="#63b8ff" d="M1485.38,-120.74C1635.16,-98.68 1676.88,-110.87 1823,-85 1830.6,-83.65 1838.69,-81.85 1846.3,-79.99"/>
<polygon fill="#63b8ff" stroke="#63b8ff" points="1485.27,-117.22 1475.9,-122.16 1486.31,-124.14 1485.27,-117.22"/>
</g>
<!-- Node23 -->
<g id="node23" class="node">
<title>Node23</title>
<g id="a_node23"><a xlink:href="f__ap__game_8cpp.html" target="_top" xlink:title=" ">
<polygon fill="white" stroke="#666666" points="2065.5,-79.5 1944.5,-79.5 1944.5,-60.5 2065.5,-60.5 2065.5,-79.5"/>
<text text-anchor="middle" x="2005" y="-67.5" font-family="Helvetica,sans-Serif" font-size="10.00">src/f_ap/f_ap_game.cpp</text>
</a>
</g>
</g>
<!-- Node17&#45;&gt;Node23 -->
<g id="edge26" class="edge">
<title>Node17&#45;&gt;Node23</title>
<path fill="none" stroke="#63b8ff" d="M1485.52,-120.77C1684.55,-93.88 1739.01,-112.31 1935,-85 1944.57,-83.67 1954.81,-81.85 1964.42,-79.96"/>
<polygon fill="#63b8ff" stroke="#63b8ff" points="1485.32,-117.26 1475.89,-122.09 1486.27,-124.2 1485.32,-117.26"/>
</g>
<!-- Node24 -->
<g id="node24" class="node">
<title>Node24</title>
<g id="a_node24"><a xlink:href="f__op__actor__mng_8cpp.html" target="_top" xlink:title=" ">
<polygon fill="white" stroke="#666666" points="1286.5,-85 1185.5,-85 1185.5,-55 1286.5,-55 1286.5,-85"/>
<text text-anchor="start" x="1193.5" y="-73" font-family="Helvetica,sans-Serif" font-size="10.00">src/f_op/f_op_actor</text>
<text text-anchor="middle" x="1236" y="-62" font-family="Helvetica,sans-Serif" font-size="10.00">_mng.cpp</text>
</a>
</g>
</g>
<!-- Node17&#45;&gt;Node24 -->
<g id="edge27" class="edge">
<title>Node17&#45;&gt;Node24</title>
<path fill="none" stroke="#63b8ff" d="M1362.68,-116.8C1335.17,-106.86 1301.58,-94.71 1275.9,-85.43"/>
<polygon fill="#63b8ff" stroke="#63b8ff" points="1361.26,-120.01 1371.85,-120.12 1363.64,-113.43 1361.26,-120.01"/>
</g>
<!-- Node25 -->
<g id="node25" class="node">
<title>Node25</title>
<g id="a_node25"><a xlink:href="f__op__msg__mng_8cpp.html" target="_top" xlink:title=" ">
<polygon fill="white" stroke="#666666" points="1445,-79.5 1305,-79.5 1305,-60.5 1445,-60.5 1445,-79.5"/>
<text text-anchor="middle" x="1375" y="-67.5" font-family="Helvetica,sans-Serif" font-size="10.00">src/f_op/f_op_msg_mng.cpp</text>
</a>
</g>
</g>
<!-- Node17&#45;&gt;Node25 -->
<g id="edge28" class="edge">
<title>Node17&#45;&gt;Node25</title>
<path fill="none" stroke="#63b8ff" d="M1398.71,-110.94C1392.25,-100.06 1385.01,-87.86 1380.25,-79.84"/>
<polygon fill="#63b8ff" stroke="#63b8ff" points="1395.68,-112.68 1403.79,-119.49 1401.7,-109.11 1395.68,-112.68"/>
</g>
<!-- Node26 -->
<g id="node26" class="node">
<title>Node26</title>
<g id="a_node26"><a xlink:href="f__op__scene__mng_8cpp.html" target="_top" xlink:title=" ">
<polygon fill="white" stroke="#666666" points="1568.5,-85 1463.5,-85 1463.5,-55 1568.5,-55 1568.5,-85"/>
<text text-anchor="start" x="1471.5" y="-73" font-family="Helvetica,sans-Serif" font-size="10.00">src/f_op/f_op_scene</text>
<text text-anchor="middle" x="1516" y="-62" font-family="Helvetica,sans-Serif" font-size="10.00">_mng.cpp</text>
</a>
</g>
</g>
<!-- Node17&#45;&gt;Node26 -->
<g id="edge29" class="edge">
<title>Node17&#45;&gt;Node26</title>
<path fill="none" stroke="#63b8ff" d="M1445.77,-114.64C1461.13,-105.09 1479.06,-93.95 1492.96,-85.31"/>
<polygon fill="#63b8ff" stroke="#63b8ff" points="1444.05,-111.59 1437.4,-119.84 1447.74,-117.53 1444.05,-111.59"/>
</g>
<!-- Node18&#45;&gt;Node4 -->
<g id="edge19" class="edge">
<title>Node18&#45;&gt;Node4</title>
<path fill="none" stroke="#63b8ff" d="M1683.74,-57.59C1688.21,-56.65 1692.68,-55.77 1697,-55 1804.13,-35.9 1930.75,-22.23 2001.06,-15.41"/>
<polygon fill="#63b8ff" stroke="#63b8ff" points="1683.22,-54.12 1674.2,-59.69 1684.72,-60.96 1683.22,-54.12"/>
</g>
<!-- Node19 -->
<g id="node19" class="node">
<title>Node19</title>
<g id="a_node19"><a xlink:href="c__dylink_8cpp.html" target="_top" xlink:title=" ">
<polygon fill="white" stroke="#666666" points="1749.5,-19 1654.5,-19 1654.5,0 1749.5,0 1749.5,-19"/>
<text text-anchor="middle" x="1702" y="-7" font-family="Helvetica,sans-Serif" font-size="10.00">src/c/c_dylink.cpp</text>
</a>
</g>
</g>
<!-- Node18&#45;&gt;Node19 -->
<g id="edge18" class="edge">
<title>Node18&#45;&gt;Node19</title>
<path fill="none" stroke="#63b8ff" d="M1655.22,-52.6C1667.15,-41.87 1682.27,-28.26 1692.03,-19.47"/>
<polygon fill="#63b8ff" stroke="#63b8ff" points="1653.09,-49.81 1648,-59.1 1657.77,-55.01 1653.09,-49.81"/>
</g>
<!-- Node20 -->
<g id="node20" class="node">
<title>Node20</title>
<g id="a_node20"><a xlink:href="m__Do__main_8cpp.html" target="_top" xlink:title=" ">
<polygon fill="white" stroke="#666666" points="1636.5,-19 1505.5,-19 1505.5,0 1636.5,0 1636.5,-19"/>
<text text-anchor="middle" x="1571" y="-7" font-family="Helvetica,sans-Serif" font-size="10.00">src/m_Do/m_Do_main.cpp</text>
</a>
</g>
</g>
<!-- Node18&#45;&gt;Node20 -->
<g id="edge20" class="edge">
<title>Node18&#45;&gt;Node20</title>
<path fill="none" stroke="#63b8ff" d="M1618.5,-52.6C1606.39,-41.87 1591.04,-28.26 1581.12,-19.47"/>
<polygon fill="#63b8ff" stroke="#63b8ff" points="1616.04,-55.1 1625.84,-59.11 1620.68,-49.86 1616.04,-55.1"/>
</g>
</g>
</svg>
