<?xml version="1.0" encoding="UTF-8" standalone="no"?>
<!DOCTYPE svg PUBLIC "-//W3C//DTD SVG 1.1//EN"
 "http://www.w3.org/Graphics/SVG/1.1/DTD/svg11.dtd">
<!-- Generated by graphviz version 7.0.5 (20221223.1930)
 -->
<!-- Title: include/f_op/f_op_draw_tag.h Pages: 1 -->
<svg width="5238pt" height="313pt"
 viewBox="0.00 0.00 5238.00 313.00" xmlns="http://www.w3.org/2000/svg" xmlns:xlink="http://www.w3.org/1999/xlink">
<g id="graph0" class="graph" transform="scale(1 1) rotate(0) translate(4 309)">
<title>include/f_op/f_op_draw_tag.h</title>
<!-- Node1 -->
<g id="node1" class="node">
<title>Node1</title>
<g id="a_node1"><a xlink:title=" ">
<polygon fill="#999999" stroke="#666666" points="5042.5,-305 4925.5,-305 4925.5,-275 5042.5,-275 5042.5,-305"/>
<text text-anchor="start" x="4933.5" y="-293" font-family="Helvetica,sans-Serif" font-size="10.00">include/f_op/f_op_draw</text>
<text text-anchor="middle" x="4984" y="-282" font-family="Helvetica,sans-Serif" font-size="10.00">_tag.h</text>
</a>
</g>
</g>
<!-- Node2 -->
<g id="node2" class="node">
<title>Node2</title>
<g id="a_node2"><a xlink:href="f__op__camera__mng_8h.html" target="_top" xlink:title=" ">
<polygon fill="white" stroke="#666666" points="4812,-239 4684,-239 4684,-209 4812,-209 4812,-239"/>
<text text-anchor="start" x="4692" y="-227" font-family="Helvetica,sans-Serif" font-size="10.00">include/f_op/f_op_camera</text>
<text text-anchor="middle" x="4748" y="-216" font-family="Helvetica,sans-Serif" font-size="10.00">_mng.h</text>
</a>
</g>
</g>
<!-- Node1&#45;&gt;Node2 -->
<g id="edge1" class="edge">
<title>Node1&#45;&gt;Node2</title>
<path fill="none" stroke="#63b8ff" d="M4919.99,-271.64C4882.72,-261.53 4836.29,-248.94 4801.06,-239.39"/>
<polygon fill="#63b8ff" stroke="#63b8ff" points="4918.71,-274.92 4929.28,-274.16 4920.55,-268.17 4918.71,-274.92"/>
</g>
<!-- Node62 -->
<g id="node19" class="node">
<title>Node62</title>
<g id="a_node19"><a xlink:href="f__op__camera_8cpp.html" target="_top" xlink:title=" ">
<polygon fill="white" stroke="#666666" points="4991.5,-24.5 4862.5,-24.5 4862.5,-5.5 4991.5,-5.5 4991.5,-24.5"/>
<text text-anchor="middle" x="4927" y="-12.5" font-family="Helvetica,sans-Serif" font-size="10.00">src/f_op/f_op_camera.cpp</text>
</a>
</g>
</g>
<!-- Node1&#45;&gt;Node62 -->
<g id="edge58" class="edge">
<title>Node1&#45;&gt;Node62</title>
<path fill="none" stroke="#63b8ff" d="M4981.53,-263.58C4978.46,-234.31 4972.54,-184.89 4964,-143 4956.91,-108.24 4953.07,-100.01 4943,-66 4938.7,-51.49 4933.25,-34.78 4929.95,-24.82"/>
<polygon fill="#63b8ff" stroke="#63b8ff" points="4978.03,-263.7 4982.52,-273.3 4984.99,-262.99 4978.03,-263.7"/>
</g>
<!-- Node129 -->
<g id="node47" class="node">
<title>Node129</title>
<g id="a_node47"><a xlink:href="f__ap__game_8cpp.html" target="_top" xlink:title=" ">
<polygon fill="white" stroke="#666666" points="4955.5,-167.5 4834.5,-167.5 4834.5,-148.5 4955.5,-148.5 4955.5,-167.5"/>
<text text-anchor="middle" x="4895" y="-155.5" font-family="Helvetica,sans-Serif" font-size="10.00">src/f_ap/f_ap_game.cpp</text>
</a>
</g>
</g>
<!-- Node1&#45;&gt;Node129 -->
<g id="edge57" class="edge">
<title>Node1&#45;&gt;Node129</title>
<path fill="none" stroke="#63b8ff" d="M4967.88,-265.45C4947.79,-236.11 4914.47,-187.44 4900.96,-167.71"/>
<polygon fill="#63b8ff" stroke="#63b8ff" points="4964.74,-267.07 4973.28,-273.34 4970.52,-263.11 4964.74,-267.07"/>
</g>
<!-- Node131 -->
<g id="node49" class="node">
<title>Node131</title>
<g id="a_node49"><a xlink:href="f__op__draw__iter_8cpp.html" target="_top" xlink:title=" ">
<polygon fill="white" stroke="#666666" points="5112,-239 5012,-239 5012,-209 5112,-209 5112,-239"/>
<text text-anchor="start" x="5020" y="-227" font-family="Helvetica,sans-Serif" font-size="10.00">src/f_op/f_op_draw</text>
<text text-anchor="middle" x="5062" y="-216" font-family="Helvetica,sans-Serif" font-size="10.00">_iter.cpp</text>
</a>
</g>
</g>
<!-- Node1&#45;&gt;Node131 -->
<g id="edge59" class="edge">
<title>Node1&#45;&gt;Node131</title>
<path fill="none" stroke="#63b8ff" d="M5009.96,-267.7C5021.3,-258.4 5034.3,-247.73 5044.47,-239.39"/>
<polygon fill="#63b8ff" stroke="#63b8ff" points="5007.99,-264.79 5002.48,-273.84 5012.43,-270.2 5007.99,-264.79"/>
</g>
<!-- Node132 -->
<g id="node50" class="node">
<title>Node132</title>
<g id="a_node50"><a xlink:href="f__op__draw__tag_8cpp.html" target="_top" xlink:title=" ">
<polygon fill="white" stroke="#666666" points="5230,-239 5130,-239 5130,-209 5230,-209 5230,-239"/>
<text text-anchor="start" x="5138" y="-227" font-family="Helvetica,sans-Serif" font-size="10.00">src/f_op/f_op_draw</text>
<text text-anchor="middle" x="5180" y="-216" font-family="Helvetica,sans-Serif" font-size="10.00">_tag.cpp</text>
</a>
</g>
</g>
<!-- Node1&#45;&gt;Node132 -->
<g id="edge60" class="edge">
<title>Node1&#45;&gt;Node132</title>
<path fill="none" stroke="#63b8ff" d="M5038.92,-271.07C5069.52,-261.07 5107.13,-248.79 5135.82,-239.43"/>
<polygon fill="#63b8ff" stroke="#63b8ff" points="5037.84,-267.74 5029.43,-274.17 5040.02,-274.39 5037.84,-267.74"/>
</g>
<!-- Node3 -->
<g id="node3" class="node">
<title>Node3</title>
<g id="a_node3"><a xlink:href="d__com__inf__game_8h.html" target="_top" xlink:title=" ">
<polygon fill="#fff0f0" stroke="red" points="2348,-173 2238,-173 2238,-143 2348,-143 2348,-173"/>
<text text-anchor="start" x="2246" y="-161" font-family="Helvetica,sans-Serif" font-size="10.00">include/d/com/d_com</text>
<text text-anchor="middle" x="2293" y="-150" font-family="Helvetica,sans-Serif" font-size="10.00">_inf_game.h</text>
</a>
</g>
</g>
<!-- Node2&#45;&gt;Node3 -->
<g id="edge2" class="edge">
<title>Node2&#45;&gt;Node3</title>
<path fill="none" stroke="#63b8ff" d="M4672.17,-221.02C4299.82,-211.32 2669.94,-168.83 2348.26,-160.44"/>
<polygon fill="#63b8ff" stroke="#63b8ff" points="4672,-224.52 4682.08,-221.28 4672.18,-217.52 4672,-224.52"/>
</g>
<!-- Node128 -->
<g id="node46" class="node">
<title>Node128</title>
<g id="a_node46"><a xlink:href="f__op__camera_8h.html" target="_top" xlink:title=" ">
<polygon fill="white" stroke="#666666" points="4816,-167.5 4680,-167.5 4680,-148.5 4816,-148.5 4816,-167.5"/>
<text text-anchor="middle" x="4748" y="-155.5" font-family="Helvetica,sans-Serif" font-size="10.00">include/f_op/f_op_camera.h</text>
</a>
</g>
</g>
<!-- Node2&#45;&gt;Node128 -->
<g id="edge53" class="edge">
<title>Node2&#45;&gt;Node128</title>
<path fill="none" stroke="#63b8ff" d="M4748,-197.59C4748,-187.06 4748,-175.53 4748,-167.84"/>
<polygon fill="#63b8ff" stroke="#63b8ff" points="4744.5,-197.28 4748,-207.28 4751.5,-197.28 4744.5,-197.28"/>
</g>
<!-- Node2&#45;&gt;Node129 -->
<g id="edge55" class="edge">
<title>Node2&#45;&gt;Node129</title>
<path fill="none" stroke="#63b8ff" d="M4791.49,-204.06C4818.87,-192.14 4852.96,-177.3 4874.36,-167.99"/>
<polygon fill="#63b8ff" stroke="#63b8ff" points="4790.15,-200.83 4782.38,-208.03 4792.94,-207.25 4790.15,-200.83"/>
</g>
<!-- Node130 -->
<g id="node48" class="node">
<title>Node130</title>
<g id="a_node48"><a xlink:href="f__op__camera__mng_8cpp.html" target="_top" xlink:title=" ">
<polygon fill="white" stroke="#666666" points="4661.5,-173 4550.5,-173 4550.5,-143 4661.5,-143 4661.5,-173"/>
<text text-anchor="start" x="4558.5" y="-161" font-family="Helvetica,sans-Serif" font-size="10.00">src/f_op/f_op_camera</text>
<text text-anchor="middle" x="4606" y="-150" font-family="Helvetica,sans-Serif" font-size="10.00">_mng.cpp</text>
</a>
</g>
</g>
<!-- Node2&#45;&gt;Node130 -->
<g id="edge56" class="edge">
<title>Node2&#45;&gt;Node130</title>
<path fill="none" stroke="#63b8ff" d="M4705.82,-203.99C4684.02,-194.16 4657.84,-182.36 4637.76,-173.31"/>
<polygon fill="#63b8ff" stroke="#63b8ff" points="4704.2,-207.1 4714.75,-208.02 4707.07,-200.72 4704.2,-207.1"/>
</g>
<!-- Node4 -->
<g id="node4" class="node">
<title>Node4</title>
<g id="a_node4"><a xlink:href="d__a__npc_8h.html" target="_top" xlink:title=" ">
<polygon fill="#fff0f0" stroke="red" points="764.5,-24.5 653.5,-24.5 653.5,-5.5 764.5,-5.5 764.5,-24.5"/>
<text text-anchor="middle" x="709" y="-12.5" font-family="Helvetica,sans-Serif" font-size="10.00">include/d/a/d_a_npc.h</text>
</a>
</g>
</g>
<!-- Node3&#45;&gt;Node4 -->
<g id="edge3" class="edge">
<title>Node3&#45;&gt;Node4</title>
<path fill="none" stroke="#63b8ff" d="M2226.22,-157.15C1990.07,-157.29 1203.11,-154.16 1101,-107 1078.44,-96.58 1085.02,-77.51 1063,-66 1012.33,-39.5 851.22,-25.25 764.89,-19.34"/>
<polygon fill="#63b8ff" stroke="#63b8ff" points="2226.19,-160.65 2236.19,-157.14 2226.18,-153.65 2226.19,-160.65"/>
</g>
<!-- Node10 -->
<g id="node5" class="node">
<title>Node10</title>
<g id="a_node5"><a xlink:href="d__cc__uty_8h.html" target="_top" xlink:title=" ">
<polygon fill="#fff0f0" stroke="red" points="4748.5,-96 4629.5,-96 4629.5,-77 4748.5,-77 4748.5,-96"/>
<text text-anchor="middle" x="4689" y="-84" font-family="Helvetica,sans-Serif" font-size="10.00">include/d/cc/d_cc_uty.h</text>
</a>
</g>
</g>
<!-- Node3&#45;&gt;Node10 -->
<g id="edge4" class="edge">
<title>Node3&#45;&gt;Node10</title>
<path fill="none" stroke="#63b8ff" d="M2359.77,-156.58C2716.69,-154.17 4391.68,-141.15 4620,-107 4634.53,-104.83 4650.32,-100.51 4663.13,-96.5"/>
<polygon fill="#63b8ff" stroke="#63b8ff" points="2359.86,-153.08 2349.88,-156.64 2359.91,-160.07 2359.86,-153.08"/>
</g>
<!-- Node16 -->
<g id="node6" class="node">
<title>Node16</title>
<g id="a_node6"><a xlink:href="d__item_8h.html" target="_top" xlink:title=" ">
<polygon fill="#fff0f0" stroke="red" points="1336.5,-96 1241.5,-96 1241.5,-77 1336.5,-77 1336.5,-96"/>
<text text-anchor="middle" x="1289" y="-84" font-family="Helvetica,sans-Serif" font-size="10.00">include/d/d_item.h</text>
</a>
</g>
</g>
<!-- Node3&#45;&gt;Node16 -->
<g id="edge5" class="edge">
<title>Node3&#45;&gt;Node16</title>
<path fill="none" stroke="#63b8ff" d="M2226.15,-155.64C2040.18,-151.49 1519.33,-137.43 1351,-107 1338.01,-104.65 1323.94,-100.38 1312.5,-96.43"/>
<polygon fill="#63b8ff" stroke="#63b8ff" points="2226.06,-159.13 2236.14,-155.86 2226.22,-152.14 2226.06,-159.13"/>
</g>
<!-- Node13 -->
<g id="node7" class="node">
<title>Node13</title>
<g id="a_node7"><a xlink:href="d__a__alink_8cpp.html" target="_top" xlink:title=" ">
<polygon fill="white" stroke="#666666" points="262.5,-24.5 153.5,-24.5 153.5,-5.5 262.5,-5.5 262.5,-24.5"/>
<text text-anchor="middle" x="208" y="-12.5" font-family="Helvetica,sans-Serif" font-size="10.00">src/d/a/d_a_alink.cpp</text>
</a>
</g>
</g>
<!-- Node3&#45;&gt;Node13 -->
<g id="edge39" class="edge">
<title>Node3&#45;&gt;Node13</title>
<path fill="none" stroke="#63b8ff" d="M2226.37,-156.68C1872.84,-154.82 231.34,-144.21 195,-107 173.15,-84.62 192.38,-43.17 202.59,-24.97"/>
<polygon fill="#63b8ff" stroke="#63b8ff" points="2226.14,-160.18 2236.16,-156.73 2226.17,-153.18 2226.14,-160.18"/>
</g>
<!-- Node17 -->
<g id="node8" class="node">
<title>Node17</title>
<g id="a_node8"><a xlink:href="d__a__obj__item_8cpp.html" target="_top" xlink:title=" ">
<polygon fill="white" stroke="#666666" points="1880.5,-24.5 1755.5,-24.5 1755.5,-5.5 1880.5,-5.5 1880.5,-24.5"/>
<text text-anchor="middle" x="1818" y="-12.5" font-family="Helvetica,sans-Serif" font-size="10.00">src/d/a/d_a_obj_item.cpp</text>
</a>
</g>
</g>
<!-- Node3&#45;&gt;Node17 -->
<g id="edge42" class="edge">
<title>Node3&#45;&gt;Node17</title>
<path fill="none" stroke="#63b8ff" d="M2264.48,-135.85C2253.4,-127.26 2240.8,-117.01 2230,-107 2211.77,-90.12 2214.06,-77.43 2192,-66 2139.15,-38.61 1972.83,-24.91 1880.8,-19.27"/>
<polygon fill="#63b8ff" stroke="#63b8ff" points="2262.08,-138.42 2272.15,-141.71 2266.33,-132.86 2262.08,-138.42"/>
</g>
<!-- Node18 -->
<g id="node9" class="node">
<title>Node18</title>
<g id="a_node9"><a xlink:href="d__com__inf__game_8cpp.html" target="_top" xlink:title=" ">
<polygon fill="white" stroke="#666666" points="1381,-30 1273,-30 1273,0 1381,0 1381,-30"/>
<text text-anchor="start" x="1281" y="-18" font-family="Helvetica,sans-Serif" font-size="10.00">src/d/com/d_com_inf</text>
<text text-anchor="middle" x="1327" y="-7" font-family="Helvetica,sans-Serif" font-size="10.00">_game.cpp</text>
</a>
</g>
</g>
<!-- Node3&#45;&gt;Node18 -->
<g id="edge48" class="edge">
<title>Node3&#45;&gt;Node18</title>
<path fill="none" stroke="#63b8ff" d="M2226.43,-156.84C2029,-155.89 1455.94,-149.45 1384,-107 1354.94,-89.85 1338.48,-51.46 1331.33,-30.44"/>
<polygon fill="#63b8ff" stroke="#63b8ff" points="2226.25,-160.34 2236.26,-156.89 2226.28,-153.34 2226.25,-160.34"/>
</g>
<!-- Node21 -->
<g id="node10" class="node">
<title>Node21</title>
<g id="a_node10"><a xlink:href="d__kantera__icon__meter_8h.html" target="_top" xlink:title=" ">
<polygon fill="#fff0f0" stroke="red" points="433.5,-101.5 332.5,-101.5 332.5,-71.5 433.5,-71.5 433.5,-101.5"/>
<text text-anchor="start" x="340.5" y="-89.5" font-family="Helvetica,sans-Serif" font-size="10.00">include/d/d_kantera</text>
<text text-anchor="middle" x="383" y="-78.5" font-family="Helvetica,sans-Serif" font-size="10.00">_icon_meter.h</text>
</a>
</g>
</g>
<!-- Node3&#45;&gt;Node21 -->
<g id="edge9" class="edge">
<title>Node3&#45;&gt;Node21</title>
<path fill="none" stroke="#63b8ff" d="M2226.42,-156.35C1916.21,-153.18 620.21,-138.16 442,-107 435.2,-105.81 428.11,-104 421.3,-101.95"/>
<polygon fill="#63b8ff" stroke="#63b8ff" points="2226.34,-159.85 2236.38,-156.45 2226.41,-152.85 2226.34,-159.85"/>
</g>
<!-- Node24 -->
<g id="node11" class="node">
<title>Node24</title>
<g id="a_node11"><a xlink:href="d__model_8h.html" target="_top" xlink:title=" ">
<polygon fill="#fff0f0" stroke="red" points="554.5,-96 451.5,-96 451.5,-77 554.5,-77 554.5,-96"/>
<text text-anchor="middle" x="503" y="-84" font-family="Helvetica,sans-Serif" font-size="10.00">include/d/d_model.h</text>
</a>
</g>
</g>
<!-- Node3&#45;&gt;Node24 -->
<g id="edge10" class="edge">
<title>Node3&#45;&gt;Node24</title>
<path fill="none" stroke="#63b8ff" d="M2226.46,-156.2C1929.06,-152.46 728.8,-135.73 563,-107 550.27,-104.79 536.52,-100.48 525.41,-96.47"/>
<polygon fill="#63b8ff" stroke="#63b8ff" points="2226.34,-159.7 2236.38,-156.32 2226.43,-152.7 2226.34,-159.7"/>
</g>
<!-- Node26 -->
<g id="node12" class="node">
<title>Node26</title>
<g id="a_node12"><a xlink:href="d__name_8h.html" target="_top" xlink:title=" ">
<polygon fill="#fff0f0" stroke="red" points="673.5,-96 572.5,-96 572.5,-77 673.5,-77 673.5,-96"/>
<text text-anchor="middle" x="623" y="-84" font-family="Helvetica,sans-Serif" font-size="10.00">include/d/d_name.h</text>
</a>
</g>
</g>
<!-- Node3&#45;&gt;Node26 -->
<g id="edge11" class="edge">
<title>Node3&#45;&gt;Node26</title>
<path fill="none" stroke="#63b8ff" d="M2226.57,-157.44C1962.52,-158.78 986.86,-159.99 683,-107 670.27,-104.78 656.53,-100.46 645.41,-96.45"/>
<polygon fill="#63b8ff" stroke="#63b8ff" points="2226.38,-160.94 2236.36,-157.38 2226.34,-153.94 2226.38,-160.94"/>
</g>
<!-- Node28 -->
<g id="node13" class="node">
<title>Node28</title>
<g id="a_node13"><a xlink:href="d__file__sel__info_8h.html" target="_top" xlink:title=" ">
<polygon fill="#fff0f0" stroke="red" points="788,-101.5 692,-101.5 692,-71.5 788,-71.5 788,-101.5"/>
<text text-anchor="start" x="700" y="-89.5" font-family="Helvetica,sans-Serif" font-size="10.00">include/d/file/d_file</text>
<text text-anchor="middle" x="740" y="-78.5" font-family="Helvetica,sans-Serif" font-size="10.00">_sel_info.h</text>
</a>
</g>
</g>
<!-- Node3&#45;&gt;Node28 -->
<g id="edge12" class="edge">
<title>Node3&#45;&gt;Node28</title>
<path fill="none" stroke="#63b8ff" d="M2226.7,-157.38C1974.8,-158.44 1077.21,-158.43 797,-107 790.42,-105.79 783.56,-103.97 776.98,-101.91"/>
<polygon fill="#63b8ff" stroke="#63b8ff" points="2226.36,-160.89 2236.34,-157.34 2226.33,-153.89 2226.36,-160.89"/>
</g>
<!-- Node31 -->
<g id="node14" class="node">
<title>Node31</title>
<g id="a_node14"><a xlink:href="d__file__sel__warning_8h.html" target="_top" xlink:title=" ">
<polygon fill="#fff0f0" stroke="red" points="902,-101.5 806,-101.5 806,-71.5 902,-71.5 902,-101.5"/>
<text text-anchor="start" x="814" y="-89.5" font-family="Helvetica,sans-Serif" font-size="10.00">include/d/file/d_file</text>
<text text-anchor="middle" x="854" y="-78.5" font-family="Helvetica,sans-Serif" font-size="10.00">_sel_warning.h</text>
</a>
</g>
</g>
<!-- Node3&#45;&gt;Node31 -->
<g id="edge13" class="edge">
<title>Node3&#45;&gt;Node31</title>
<path fill="none" stroke="#63b8ff" d="M2226.26,-157.17C1986.27,-157.38 1167.81,-154.5 911,-107 904.52,-105.8 897.78,-104.01 891.3,-101.99"/>
<polygon fill="#63b8ff" stroke="#63b8ff" points="2226.07,-160.67 2236.06,-157.16 2226.06,-153.67 2226.07,-160.67"/>
</g>
<!-- Node33 -->
<g id="node15" class="node">
<title>Node33</title>
<g id="a_node15"><a xlink:href="d__meter2_8h.html" target="_top" xlink:title=" ">
<polygon fill="#fff0f0" stroke="red" points="1054,-96 920,-96 920,-77 1054,-77 1054,-96"/>
<text text-anchor="middle" x="987" y="-84" font-family="Helvetica,sans-Serif" font-size="10.00">include/d/meter/d_meter2.h</text>
</a>
</g>
</g>
<!-- Node3&#45;&gt;Node33 -->
<g id="edge14" class="edge">
<title>Node3&#45;&gt;Node33</title>
<path fill="none" stroke="#63b8ff" d="M2226.32,-156C2004.81,-152.39 1294.65,-138.6 1068,-107 1051.24,-104.66 1032.88,-100.39 1017.88,-96.44"/>
<polygon fill="#63b8ff" stroke="#63b8ff" points="2226.17,-159.49 2236.23,-156.16 2226.28,-152.49 2226.17,-159.49"/>
</g>
<!-- Node41 -->
<g id="node16" class="node">
<title>Node41</title>
<g id="a_node16"><a xlink:href="d__msg__object_8h.html" target="_top" xlink:title=" ">
<polygon fill="#fff0f0" stroke="red" points="314,-101.5 204,-101.5 204,-71.5 314,-71.5 314,-101.5"/>
<text text-anchor="start" x="212" y="-89.5" font-family="Helvetica,sans-Serif" font-size="10.00">include/d/msg/d_msg</text>
<text text-anchor="middle" x="259" y="-78.5" font-family="Helvetica,sans-Serif" font-size="10.00">_object.h</text>
</a>
</g>
</g>
<!-- Node3&#45;&gt;Node41 -->
<g id="edge15" class="edge">
<title>Node3&#45;&gt;Node41</title>
<path fill="none" stroke="#63b8ff" d="M2226.39,-156.38C1904.05,-153.22 513.88,-137.91 323,-107 315.66,-105.81 307.99,-104 300.62,-101.95"/>
<polygon fill="#63b8ff" stroke="#63b8ff" points="2226.3,-159.88 2236.33,-156.47 2226.37,-152.88 2226.3,-159.88"/>
</g>
<!-- Node57 -->
<g id="node17" class="node">
<title>Node57</title>
<g id="a_node17"><a xlink:href="d__s__logo_8h.html" target="_top" xlink:title=" ">
<polygon fill="#fff0f0" stroke="red" points="1223.5,-96 1110.5,-96 1110.5,-77 1223.5,-77 1223.5,-96"/>
<text text-anchor="middle" x="1167" y="-84" font-family="Helvetica,sans-Serif" font-size="10.00">include/d/s/d_s_logo.h</text>
</a>
</g>
</g>
<!-- Node3&#45;&gt;Node57 -->
<g id="edge18" class="edge">
<title>Node3&#45;&gt;Node57</title>
<path fill="none" stroke="#63b8ff" d="M2226.5,-155.99C2025.21,-152.6 1424.57,-139.91 1232,-107 1218.41,-104.68 1203.67,-100.41 1191.66,-96.45"/>
<polygon fill="#63b8ff" stroke="#63b8ff" points="2226.19,-159.48 2236.25,-156.15 2226.31,-152.49 2226.19,-159.48"/>
</g>
<!-- Node59 -->
<g id="node18" class="node">
<title>Node59</title>
<g id="a_node18"><a xlink:href="d__s__play_8h.html" target="_top" xlink:title=" ">
<polygon fill="#fff0f0" stroke="red" points="4879.5,-96 4766.5,-96 4766.5,-77 4879.5,-77 4879.5,-96"/>
<text text-anchor="middle" x="4823" y="-84" font-family="Helvetica,sans-Serif" font-size="10.00">include/d/s/d_s_play.h</text>
</a>
</g>
</g>
<!-- Node3&#45;&gt;Node59 -->
<g id="edge19" class="edge">
<title>Node3&#45;&gt;Node59</title>
<path fill="none" stroke="#63b8ff" d="M2359.53,-156.71C2728.38,-154.96 4514.54,-144.58 4757,-107 4771.05,-104.82 4786.3,-100.46 4798.6,-96.41"/>
<polygon fill="#63b8ff" stroke="#63b8ff" points="2359.77,-153.21 2349.78,-156.76 2359.8,-160.21 2359.77,-153.21"/>
</g>
<!-- Node3&#45;&gt;Node62 -->
<g id="edge52" class="edge">
<title>Node3&#45;&gt;Node62</title>
<path fill="none" stroke="#63b8ff" d="M2359.72,-156.71C2760.61,-154.83 4833.98,-143.37 4888,-107 4916.23,-87.99 4924.12,-43.95 4926.25,-24.97"/>
<polygon fill="#63b8ff" stroke="#63b8ff" points="2359.85,-153.21 2349.86,-156.75 2359.88,-160.21 2359.85,-153.21"/>
</g>
<!-- Node65 -->
<g id="node20" class="node">
<title>Node65</title>
<g id="a_node20"><a xlink:href="d__msg__scrn__base_8h.html" target="_top" xlink:title=" ">
<polygon fill="#fff0f0" stroke="red" points="1492.5,-101.5 1393.5,-101.5 1393.5,-71.5 1492.5,-71.5 1492.5,-101.5"/>
<text text-anchor="start" x="1401.5" y="-89.5" font-family="Helvetica,sans-Serif" font-size="10.00">include/msg/scrn/d</text>
<text text-anchor="middle" x="1443" y="-78.5" font-family="Helvetica,sans-Serif" font-size="10.00">_msg_scrn_base.h</text>
</a>
</g>
</g>
<!-- Node3&#45;&gt;Node65 -->
<g id="edge21" class="edge">
<title>Node3&#45;&gt;Node65</title>
<path fill="none" stroke="#63b8ff" d="M2226.24,-154.98C2061.7,-149.64 1640.03,-133.71 1502,-107 1495.43,-105.73 1488.59,-103.93 1481.98,-101.93"/>
<polygon fill="#63b8ff" stroke="#63b8ff" points="2226.02,-158.47 2236.13,-155.29 2226.24,-151.48 2226.02,-158.47"/>
</g>
<!-- Node69 -->
<g id="node21" class="node">
<title>Node69</title>
<g id="a_node21"><a xlink:href="d__a__b__oh2_8h.html" target="_top" xlink:title=" ">
<polygon fill="white" stroke="#666666" points="1627,-101.5 1511,-101.5 1511,-71.5 1627,-71.5 1627,-101.5"/>
<text text-anchor="start" x="1519" y="-89.5" font-family="Helvetica,sans-Serif" font-size="10.00">include/rel/d/a/b/d</text>
<text text-anchor="middle" x="1569" y="-78.5" font-family="Helvetica,sans-Serif" font-size="10.00">_a_b_oh2/d_a_b_oh2.h</text>
</a>
</g>
</g>
<!-- Node3&#45;&gt;Node69 -->
<g id="edge22" class="edge">
<title>Node3&#45;&gt;Node69</title>
<path fill="none" stroke="#63b8ff" d="M2226.1,-156.47C2106.65,-154.51 1849.22,-145.71 1636,-107 1628.73,-105.68 1621.12,-103.88 1613.74,-101.91"/>
<polygon fill="#63b8ff" stroke="#63b8ff" points="2226,-159.97 2236.05,-156.62 2226.11,-152.97 2226,-159.97"/>
</g>
<!-- Node70 -->
<g id="node22" class="node">
<title>Node70</title>
<g id="a_node22"><a xlink:href="d__a__b__zant_8h.html" target="_top" xlink:title=" ">
<polygon fill="white" stroke="#666666" points="1766.5,-101.5 1645.5,-101.5 1645.5,-71.5 1766.5,-71.5 1766.5,-101.5"/>
<text text-anchor="start" x="1653.5" y="-89.5" font-family="Helvetica,sans-Serif" font-size="10.00">include/rel/d/a/b/d</text>
<text text-anchor="middle" x="1706" y="-78.5" font-family="Helvetica,sans-Serif" font-size="10.00">_a_b_zant/d_a_b_zant.h</text>
</a>
</g>
</g>
<!-- Node3&#45;&gt;Node70 -->
<g id="edge23" class="edge">
<title>Node3&#45;&gt;Node70</title>
<path fill="none" stroke="#63b8ff" d="M2226.54,-154.3C2127.62,-149.44 1936.11,-136.8 1776,-107 1768.68,-105.64 1761.02,-103.87 1753.56,-101.95"/>
<polygon fill="#63b8ff" stroke="#63b8ff" points="2226.18,-157.79 2236.33,-154.77 2226.51,-150.79 2226.18,-157.79"/>
</g>
<!-- Node71 -->
<g id="node23" class="node">
<title>Node71</title>
<g id="a_node23"><a xlink:href="d__a__cstaF_8h.html" target="_top" xlink:title=" ">
<polygon fill="white" stroke="#666666" points="1885,-101.5 1785,-101.5 1785,-71.5 1885,-71.5 1885,-101.5"/>
<text text-anchor="start" x="1793" y="-89.5" font-family="Helvetica,sans-Serif" font-size="10.00">include/rel/d/a/d_a</text>
<text text-anchor="middle" x="1835" y="-78.5" font-family="Helvetica,sans-Serif" font-size="10.00">_cstaf/d_a_cstaF.h</text>
</a>
</g>
</g>
<!-- Node3&#45;&gt;Node71 -->
<g id="edge24" class="edge">
<title>Node3&#45;&gt;Node71</title>
<path fill="none" stroke="#63b8ff" d="M2226.21,-152.62C2146.4,-146.47 2009.21,-133 1894,-107 1887.9,-105.62 1881.53,-103.87 1875.33,-101.98"/>
<polygon fill="#63b8ff" stroke="#63b8ff" points="2225.81,-156.1 2236.05,-153.36 2226.34,-149.12 2225.81,-156.1"/>
</g>
<!-- Node72 -->
<g id="node24" class="node">
<title>Node72</title>
<g id="a_node24"><a xlink:href="d__a__set__bgobj_8h.html" target="_top" xlink:title=" ">
<polygon fill="white" stroke="#666666" points="2040.5,-101.5 1903.5,-101.5 1903.5,-71.5 2040.5,-71.5 2040.5,-101.5"/>
<text text-anchor="start" x="1911.5" y="-89.5" font-family="Helvetica,sans-Serif" font-size="10.00">include/rel/d/a/d_a</text>
<text text-anchor="middle" x="1972" y="-78.5" font-family="Helvetica,sans-Serif" font-size="10.00">_set_bgobj/d_a_set_bgobj.h</text>
</a>
</g>
</g>
<!-- Node3&#45;&gt;Node72 -->
<g id="edge25" class="edge">
<title>Node3&#45;&gt;Node72</title>
<path fill="none" stroke="#63b8ff" d="M2226.77,-144.15C2177.82,-134.47 2109.61,-120.58 2050,-107 2043.06,-105.42 2035.79,-103.69 2028.59,-101.95"/>
<polygon fill="#63b8ff" stroke="#63b8ff" points="2225.87,-147.54 2236.36,-146.05 2227.23,-140.68 2225.87,-147.54"/>
</g>
<!-- Node73 -->
<g id="node25" class="node">
<title>Node73</title>
<g id="a_node25"><a xlink:href="d__a__skip__2D_8h.html" target="_top" xlink:title=" ">
<polygon fill="white" stroke="#666666" points="2183,-101.5 2059,-101.5 2059,-71.5 2183,-71.5 2183,-101.5"/>
<text text-anchor="start" x="2067" y="-89.5" font-family="Helvetica,sans-Serif" font-size="10.00">include/rel/d/a/d_a</text>
<text text-anchor="middle" x="2121" y="-78.5" font-family="Helvetica,sans-Serif" font-size="10.00">_skip_2D/d_a_skip_2D.h</text>
</a>
</g>
</g>
<!-- Node3&#45;&gt;Node73 -->
<g id="edge26" class="edge">
<title>Node3&#45;&gt;Node73</title>
<path fill="none" stroke="#63b8ff" d="M2246.89,-138.37C2218.54,-126.91 2182.76,-112.45 2156.59,-101.88"/>
<polygon fill="#63b8ff" stroke="#63b8ff" points="2245.38,-141.53 2255.96,-142.03 2248,-135.04 2245.38,-141.53"/>
</g>
<!-- Node74 -->
<g id="node26" class="node">
<title>Node74</title>
<g id="a_node26"><a xlink:href="d__a__spinner_8h.html" target="_top" xlink:title=" ">
<polygon fill="#fff0f0" stroke="red" points="148,-101.5 32,-101.5 32,-71.5 148,-71.5 148,-101.5"/>
<text text-anchor="start" x="40" y="-89.5" font-family="Helvetica,sans-Serif" font-size="10.00">include/rel/d/a/d_a</text>
<text text-anchor="middle" x="90" y="-78.5" font-family="Helvetica,sans-Serif" font-size="10.00">_spinner/d_a_spinner.h</text>
</a>
</g>
</g>
<!-- Node3&#45;&gt;Node74 -->
<g id="edge27" class="edge">
<title>Node3&#45;&gt;Node74</title>
<path fill="none" stroke="#63b8ff" d="M2226.47,-156.39C1888.55,-153.18 370.11,-137.17 162,-107 153.8,-105.81 145.2,-104 136.91,-101.95"/>
<polygon fill="#63b8ff" stroke="#63b8ff" points="2225.98,-159.89 2236.01,-156.48 2226.05,-152.89 2225.98,-159.89"/>
</g>
<!-- Node76 -->
<g id="node27" class="node">
<title>Node76</title>
<g id="a_node27"><a xlink:href="d__a__player_8cpp.html" target="_top" xlink:title=" ">
<polygon fill="white" stroke="#666666" points="114,-24.5 0,-24.5 0,-5.5 114,-5.5 114,-24.5"/>
<text text-anchor="middle" x="57" y="-12.5" font-family="Helvetica,sans-Serif" font-size="10.00">src/d/a/d_a_player.cpp</text>
</a>
</g>
</g>
<!-- Node3&#45;&gt;Node76 -->
<g id="edge43" class="edge">
<title>Node3&#45;&gt;Node76</title>
<path fill="none" stroke="#63b8ff" d="M2226.35,-156.8C1855.59,-155.55 62.54,-147.42 23,-107 -0.12,-83.37 32.09,-42.58 48.46,-24.76"/>
<polygon fill="#63b8ff" stroke="#63b8ff" points="2226.14,-160.3 2236.15,-156.84 2226.16,-153.3 2226.14,-160.3"/>
</g>
<!-- Node77 -->
<g id="node28" class="node">
<title>Node77</title>
<g id="a_node28"><a xlink:href="d__a__obj__cboard_8h.html" target="_top" xlink:title=" ">
<polygon fill="white" stroke="#666666" points="2346.5,-107 2239.5,-107 2239.5,-66 2346.5,-66 2346.5,-107"/>
<text text-anchor="start" x="2247.5" y="-95" font-family="Helvetica,sans-Serif" font-size="10.00">include/rel/d/a/obj</text>
<text text-anchor="start" x="2247.5" y="-84" font-family="Helvetica,sans-Serif" font-size="10.00">/d_a_obj_cboard/d_a</text>
<text text-anchor="middle" x="2293" y="-73" font-family="Helvetica,sans-Serif" font-size="10.00">_obj_cboard.h</text>
</a>
</g>
</g>
<!-- Node3&#45;&gt;Node77 -->
<g id="edge30" class="edge">
<title>Node3&#45;&gt;Node77</title>
<path fill="none" stroke="#63b8ff" d="M2293,-131.36C2293,-123.45 2293,-114.87 2293,-107.42"/>
<polygon fill="#63b8ff" stroke="#63b8ff" points="2289.5,-131.09 2293,-141.09 2296.5,-131.09 2289.5,-131.09"/>
</g>
<!-- Node78 -->
<g id="node29" class="node">
<title>Node78</title>
<g id="a_node29"><a xlink:href="d__a__obj__enemy__create_8h.html" target="_top" xlink:title=" ">
<polygon fill="white" stroke="#666666" points="2491.5,-107 2364.5,-107 2364.5,-66 2491.5,-66 2491.5,-107"/>
<text text-anchor="start" x="2372.5" y="-95" font-family="Helvetica,sans-Serif" font-size="10.00">include/rel/d/a/obj</text>
<text text-anchor="start" x="2372.5" y="-84" font-family="Helvetica,sans-Serif" font-size="10.00">/d_a_obj_enemy_create</text>
<text text-anchor="middle" x="2428" y="-73" font-family="Helvetica,sans-Serif" font-size="10.00">/d_a_obj_enemy_create.h</text>
</a>
</g>
</g>
<!-- Node3&#45;&gt;Node78 -->
<g id="edge31" class="edge">
<title>Node3&#45;&gt;Node78</title>
<path fill="none" stroke="#63b8ff" d="M2330.96,-137.46C2349.19,-128.07 2370.99,-116.85 2389.31,-107.42"/>
<polygon fill="#63b8ff" stroke="#63b8ff" points="2329.61,-134.22 2322.32,-141.91 2332.81,-140.44 2329.61,-134.22"/>
</g>
<!-- Node79 -->
<g id="node30" class="node">
<title>Node79</title>
<g id="a_node30"><a xlink:href="d__a__obj__web0_8h.html" target="_top" xlink:title=" ">
<polygon fill="white" stroke="#666666" points="2628.5,-107 2509.5,-107 2509.5,-66 2628.5,-66 2628.5,-107"/>
<text text-anchor="start" x="2517.5" y="-95" font-family="Helvetica,sans-Serif" font-size="10.00">include/rel/d/a/obj</text>
<text text-anchor="start" x="2517.5" y="-84" font-family="Helvetica,sans-Serif" font-size="10.00">/d_a_obj_web0/d_a_obj</text>
<text text-anchor="middle" x="2569" y="-73" font-family="Helvetica,sans-Serif" font-size="10.00">_web0.h</text>
</a>
</g>
</g>
<!-- Node3&#45;&gt;Node79 -->
<g id="edge32" class="edge">
<title>Node3&#45;&gt;Node79</title>
<path fill="none" stroke="#63b8ff" d="M2359.62,-141.59C2400.28,-132.02 2453.25,-119.25 2500,-107 2503.01,-106.21 2506.09,-105.39 2509.2,-104.55"/>
<polygon fill="#63b8ff" stroke="#63b8ff" points="2358.9,-138.17 2349.97,-143.86 2360.5,-144.98 2358.9,-138.17"/>
</g>
<!-- Node80 -->
<g id="node31" class="node">
<title>Node80</title>
<g id="a_node31"><a xlink:href="d__a__obj__web1_8h.html" target="_top" xlink:title=" ">
<polygon fill="white" stroke="#666666" points="2765.5,-107 2646.5,-107 2646.5,-66 2765.5,-66 2765.5,-107"/>
<text text-anchor="start" x="2654.5" y="-95" font-family="Helvetica,sans-Serif" font-size="10.00">include/rel/d/a/obj</text>
<text text-anchor="start" x="2654.5" y="-84" font-family="Helvetica,sans-Serif" font-size="10.00">/d_a_obj_web1/d_a_obj</text>
<text text-anchor="middle" x="2706" y="-73" font-family="Helvetica,sans-Serif" font-size="10.00">_web1.h</text>
</a>
</g>
</g>
<!-- Node3&#45;&gt;Node80 -->
<g id="edge33" class="edge">
<title>Node3&#45;&gt;Node80</title>
<path fill="none" stroke="#63b8ff" d="M2359.43,-149.96C2429.05,-141.98 2541.39,-127.37 2637,-107 2640.04,-106.35 2643.15,-105.64 2646.28,-104.89"/>
<polygon fill="#63b8ff" stroke="#63b8ff" points="2359.25,-146.46 2349.71,-151.06 2360.04,-153.42 2359.25,-146.46"/>
</g>
<!-- Node81 -->
<g id="node32" class="node">
<title>Node81</title>
<g id="a_node32"><a xlink:href="d__a__obj__yobikusa_8h.html" target="_top" xlink:title=" ">
<polygon fill="white" stroke="#666666" points="2888.5,-107 2783.5,-107 2783.5,-66 2888.5,-66 2888.5,-107"/>
<text text-anchor="start" x="2791.5" y="-95" font-family="Helvetica,sans-Serif" font-size="10.00">include/rel/d/a/obj</text>
<text text-anchor="start" x="2791.5" y="-84" font-family="Helvetica,sans-Serif" font-size="10.00">/d_a_obj_yobikusa/d</text>
<text text-anchor="middle" x="2836" y="-73" font-family="Helvetica,sans-Serif" font-size="10.00">_a_obj_yobikusa.h</text>
</a>
</g>
</g>
<!-- Node3&#45;&gt;Node81 -->
<g id="edge34" class="edge">
<title>Node3&#45;&gt;Node81</title>
<path fill="none" stroke="#63b8ff" d="M2359.63,-154.31C2453.08,-149.58 2627.99,-137.23 2774,-107 2776.98,-106.38 2780.03,-105.68 2783.09,-104.91"/>
<polygon fill="#63b8ff" stroke="#63b8ff" points="2359.7,-150.8 2349.89,-154.79 2360.05,-157.79 2359.7,-150.8"/>
</g>
<!-- Node82 -->
<g id="node33" class="node">
<title>Node82</title>
<g id="a_node33"><a xlink:href="d__a__tag__ajnot_8h.html" target="_top" xlink:title=" ">
<polygon fill="white" stroke="#666666" points="3025,-107 2907,-107 2907,-66 3025,-66 3025,-107"/>
<text text-anchor="start" x="2915" y="-95" font-family="Helvetica,sans-Serif" font-size="10.00">include/rel/d/a/tag</text>
<text text-anchor="start" x="2915" y="-84" font-family="Helvetica,sans-Serif" font-size="10.00">/d_a_tag_ajnot/d_a_tag</text>
<text text-anchor="middle" x="2966" y="-73" font-family="Helvetica,sans-Serif" font-size="10.00">_ajnot.h</text>
</a>
</g>
</g>
<!-- Node3&#45;&gt;Node82 -->
<g id="edge35" class="edge">
<title>Node3&#45;&gt;Node82</title>
<path fill="none" stroke="#63b8ff" d="M2359.86,-155.67C2471.83,-152.5 2704,-141.92 2897,-107 2900.18,-106.42 2903.43,-105.76 2906.7,-105.04"/>
<polygon fill="#63b8ff" stroke="#63b8ff" points="2359.84,-152.17 2349.94,-155.93 2360.03,-159.16 2359.84,-152.17"/>
</g>
<!-- Node83 -->
<g id="node34" class="node">
<title>Node83</title>
<g id="a_node34"><a xlink:href="d__a__tag__lv6CstaSw_8h.html" target="_top" xlink:title=" ">
<polygon fill="white" stroke="#666666" points="3158.5,-107 3043.5,-107 3043.5,-66 3158.5,-66 3158.5,-107"/>
<text text-anchor="start" x="3051.5" y="-95" font-family="Helvetica,sans-Serif" font-size="10.00">include/rel/d/a/tag</text>
<text text-anchor="start" x="3051.5" y="-84" font-family="Helvetica,sans-Serif" font-size="10.00">/d_a_tag_lv6CstaSw/d</text>
<text text-anchor="middle" x="3101" y="-73" font-family="Helvetica,sans-Serif" font-size="10.00">_a_tag_lv6CstaSw.h</text>
</a>
</g>
</g>
<!-- Node3&#45;&gt;Node83 -->
<g id="edge36" class="edge">
<title>Node3&#45;&gt;Node83</title>
<path fill="none" stroke="#63b8ff" d="M2359.69,-157.3C2490.21,-156.82 2788.13,-150.55 3034,-107 3036.98,-106.47 3040.02,-105.86 3043.08,-105.19"/>
<polygon fill="#63b8ff" stroke="#63b8ff" points="2359.84,-153.8 2349.85,-157.32 2359.86,-160.8 2359.84,-153.8"/>
</g>
<!-- Node84 -->
<g id="node35" class="node">
<title>Node84</title>
<g id="a_node35"><a xlink:href="d__a__tag__telop_8h.html" target="_top" xlink:title=" ">
<polygon fill="white" stroke="#666666" points="3295,-107 3177,-107 3177,-66 3295,-66 3295,-107"/>
<text text-anchor="start" x="3185" y="-95" font-family="Helvetica,sans-Serif" font-size="10.00">include/rel/d/a/tag</text>
<text text-anchor="start" x="3185" y="-84" font-family="Helvetica,sans-Serif" font-size="10.00">/d_a_tag_telop/d_a_tag</text>
<text text-anchor="middle" x="3236" y="-73" font-family="Helvetica,sans-Serif" font-size="10.00">_telop.h</text>
</a>
</g>
</g>
<!-- Node3&#45;&gt;Node84 -->
<g id="edge37" class="edge">
<title>Node3&#45;&gt;Node84</title>
<path fill="none" stroke="#63b8ff" d="M2359.82,-155.07C2536.29,-149.65 3011.88,-133.03 3167,-107 3170.19,-106.46 3173.45,-105.84 3176.72,-105.14"/>
<polygon fill="#63b8ff" stroke="#63b8ff" points="2359.78,-151.56 2349.89,-155.37 2360,-158.56 2359.78,-151.56"/>
</g>
<!-- Node85 -->
<g id="node36" class="node">
<title>Node85</title>
<g id="a_node36"><a xlink:href="c__dylink_8cpp.html" target="_top" xlink:title=" ">
<polygon fill="white" stroke="#666666" points="3408.5,-96 3313.5,-96 3313.5,-77 3408.5,-77 3408.5,-96"/>
<text text-anchor="middle" x="3361" y="-84" font-family="Helvetica,sans-Serif" font-size="10.00">src/c/c_dylink.cpp</text>
</a>
</g>
</g>
<!-- Node3&#45;&gt;Node85 -->
<g id="edge38" class="edge">
<title>Node3&#45;&gt;Node85</title>
<path fill="none" stroke="#63b8ff" d="M2359.7,-156.13C2554.82,-153.21 3122.18,-141.88 3304,-107 3316.02,-104.69 3328.96,-100.42 3339.46,-96.46"/>
<polygon fill="#63b8ff" stroke="#63b8ff" points="2359.67,-152.63 2349.73,-156.28 2359.78,-159.63 2359.67,-152.63"/>
</g>
<!-- Node86 -->
<g id="node37" class="node">
<title>Node86</title>
<g id="a_node37"><a xlink:href="d__a__itembase_8cpp.html" target="_top" xlink:title=" ">
<polygon fill="white" stroke="#666666" points="3555,-96 3427,-96 3427,-77 3555,-77 3555,-96"/>
<text text-anchor="middle" x="3491" y="-84" font-family="Helvetica,sans-Serif" font-size="10.00">src/d/a/d_a_itembase.cpp</text>
</a>
</g>
</g>
<!-- Node3&#45;&gt;Node86 -->
<g id="edge40" class="edge">
<title>Node3&#45;&gt;Node86</title>
<path fill="none" stroke="#63b8ff" d="M2359.79,-155.9C2569.21,-152.14 3211.25,-138.32 3417,-107 3432.37,-104.66 3449.14,-100.39 3462.83,-96.43"/>
<polygon fill="#63b8ff" stroke="#63b8ff" points="2359.83,-152.4 2349.9,-156.07 2359.96,-159.39 2359.83,-152.4"/>
</g>
<!-- Node87 -->
<g id="node38" class="node">
<title>Node87</title>
<g id="a_node38"><a xlink:href="d__a__obj_8cpp.html" target="_top" xlink:title=" ">
<polygon fill="white" stroke="#666666" points="3674.5,-96 3573.5,-96 3573.5,-77 3674.5,-77 3674.5,-96"/>
<text text-anchor="middle" x="3624" y="-84" font-family="Helvetica,sans-Serif" font-size="10.00">src/d/a/d_a_obj.cpp</text>
</a>
</g>
</g>
<!-- Node3&#45;&gt;Node87 -->
<g id="edge41" class="edge">
<title>Node3&#45;&gt;Node87</title>
<path fill="none" stroke="#63b8ff" d="M2359.6,-156.79C2586.67,-155.69 3329.36,-148.92 3564,-107 3576.72,-104.73 3590.46,-100.41 3601.58,-96.41"/>
<polygon fill="#63b8ff" stroke="#63b8ff" points="2359.73,-153.29 2349.74,-156.83 2359.76,-160.29 2359.73,-153.29"/>
</g>
<!-- Node88 -->
<g id="node39" class="node">
<title>Node88</title>
<g id="a_node39"><a xlink:href="d__bg__s_8cpp.html" target="_top" xlink:title=" ">
<polygon fill="white" stroke="#666666" points="3797,-96 3693,-96 3693,-77 3797,-77 3797,-96"/>
<text text-anchor="middle" x="3745" y="-84" font-family="Helvetica,sans-Serif" font-size="10.00">src/d/bg/d_bg_s.cpp</text>
</a>
</g>
</g>
<!-- Node3&#45;&gt;Node88 -->
<g id="edge44" class="edge">
<title>Node3&#45;&gt;Node88</title>
<path fill="none" stroke="#63b8ff" d="M2359.68,-156.97C2600.41,-156.49 3423.98,-151.55 3683,-107 3696.12,-104.74 3710.32,-100.42 3721.81,-96.42"/>
<polygon fill="#63b8ff" stroke="#63b8ff" points="2359.84,-153.47 2349.84,-156.99 2359.85,-160.47 2359.84,-153.47"/>
</g>
<!-- Node89 -->
<g id="node40" class="node">
<title>Node89</title>
<g id="a_node40"><a xlink:href="d__bg__s__movebg__actor_8cpp.html" target="_top" xlink:title=" ">
<polygon fill="white" stroke="#666666" points="3941,-101.5 3815,-101.5 3815,-71.5 3941,-71.5 3941,-101.5"/>
<text text-anchor="start" x="3823" y="-89.5" font-family="Helvetica,sans-Serif" font-size="10.00">src/d/bg/d_bg_s_movebg</text>
<text text-anchor="middle" x="3878" y="-78.5" font-family="Helvetica,sans-Serif" font-size="10.00">_actor.cpp</text>
</a>
</g>
</g>
<!-- Node3&#45;&gt;Node89 -->
<g id="edge45" class="edge">
<title>Node3&#45;&gt;Node89</title>
<path fill="none" stroke="#63b8ff" d="M2359.53,-156.85C2613.35,-155.94 3520.9,-149.73 3806,-107 3814.07,-105.79 3822.53,-104 3830.69,-101.98"/>
<polygon fill="#63b8ff" stroke="#63b8ff" points="2359.79,-153.35 2349.8,-156.88 2359.82,-160.35 2359.79,-153.35"/>
</g>
<!-- Node90 -->
<g id="node41" class="node">
<title>Node90</title>
<g id="a_node41"><a xlink:href="d__bg__w_8cpp.html" target="_top" xlink:title=" ">
<polygon fill="white" stroke="#666666" points="4066.5,-96 3959.5,-96 3959.5,-77 4066.5,-77 4066.5,-96"/>
<text text-anchor="middle" x="4013" y="-84" font-family="Helvetica,sans-Serif" font-size="10.00">src/d/bg/d_bg_w.cpp</text>
</a>
</g>
</g>
<!-- Node3&#45;&gt;Node90 -->
<g id="edge46" class="edge">
<title>Node3&#45;&gt;Node90</title>
<path fill="none" stroke="#63b8ff" d="M2359.59,-157.38C2628.66,-158.56 3636.2,-159.31 3950,-107 3963.33,-104.78 3977.75,-100.46 3989.43,-96.45"/>
<polygon fill="#63b8ff" stroke="#63b8ff" points="2359.98,-153.88 2349.97,-157.34 2359.95,-160.88 2359.98,-153.88"/>
</g>
<!-- Node91 -->
<g id="node42" class="node">
<title>Node91</title>
<g id="a_node42"><a xlink:href="d__cc__s_8cpp.html" target="_top" xlink:title=" ">
<polygon fill="white" stroke="#666666" points="4189,-96 4085,-96 4085,-77 4189,-77 4189,-96"/>
<text text-anchor="middle" x="4137" y="-84" font-family="Helvetica,sans-Serif" font-size="10.00">src/d/cc/d_cc_s.cpp</text>
</a>
</g>
</g>
<!-- Node3&#45;&gt;Node91 -->
<g id="edge47" class="edge">
<title>Node3&#45;&gt;Node91</title>
<path fill="none" stroke="#63b8ff" d="M2359.57,-156.22C2662.53,-152.53 3903.7,-135.77 4075,-107 4088.13,-104.79 4102.33,-100.48 4113.82,-96.47"/>
<polygon fill="#63b8ff" stroke="#63b8ff" points="2359.82,-152.72 2349.86,-156.34 2359.91,-159.72 2359.82,-152.72"/>
</g>
<!-- Node92 -->
<g id="node43" class="node">
<title>Node92</title>
<g id="a_node43"><a xlink:href="d__com__static_8cpp.html" target="_top" xlink:title=" ">
<polygon fill="white" stroke="#666666" points="4347,-96 4207,-96 4207,-77 4347,-77 4347,-96"/>
<text text-anchor="middle" x="4277" y="-84" font-family="Helvetica,sans-Serif" font-size="10.00">src/d/com/d_com_static.cpp</text>
</a>
</g>
</g>
<!-- Node3&#45;&gt;Node92 -->
<g id="edge49" class="edge">
<title>Node3&#45;&gt;Node92</title>
<path fill="none" stroke="#63b8ff" d="M2359.54,-157.18C2652.81,-157.66 3831.58,-156.44 4198,-107 4214.52,-104.77 4232.6,-100.45 4247.28,-96.45"/>
<polygon fill="#63b8ff" stroke="#63b8ff" points="2359.79,-153.68 2349.78,-157.16 2359.77,-160.68 2359.79,-153.68"/>
</g>
<!-- Node93 -->
<g id="node44" class="node">
<title>Node93</title>
<g id="a_node44"><a xlink:href="d__attention_8cpp.html" target="_top" xlink:title=" ">
<polygon fill="white" stroke="#666666" points="4472.5,-96 4365.5,-96 4365.5,-77 4472.5,-77 4472.5,-96"/>
<text text-anchor="middle" x="4419" y="-84" font-family="Helvetica,sans-Serif" font-size="10.00">src/d/d_attention.cpp</text>
</a>
</g>
</g>
<!-- Node3&#45;&gt;Node93 -->
<g id="edge50" class="edge">
<title>Node3&#45;&gt;Node93</title>
<path fill="none" stroke="#63b8ff" d="M2359.8,-156.48C2691.71,-153.72 4155.58,-139.8 4356,-107 4369.33,-104.82 4383.76,-100.5 4395.44,-96.49"/>
<polygon fill="#63b8ff" stroke="#63b8ff" points="2359.96,-152.97 2349.99,-156.56 2360.01,-159.97 2359.96,-152.97"/>
</g>
<!-- Node94 -->
<g id="node45" class="node">
<title>Node94</title>
<g id="a_node45"><a xlink:href="d__cam__param_8cpp.html" target="_top" xlink:title=" ">
<polygon fill="white" stroke="#666666" points="4611.5,-96 4490.5,-96 4490.5,-77 4611.5,-77 4611.5,-96"/>
<text text-anchor="middle" x="4551" y="-84" font-family="Helvetica,sans-Serif" font-size="10.00">src/d/d_cam_param.cpp</text>
</a>
</g>
</g>
<!-- Node3&#45;&gt;Node94 -->
<g id="edge51" class="edge">
<title>Node3&#45;&gt;Node94</title>
<path fill="none" stroke="#63b8ff" d="M2359.88,-156.46C2703.98,-153.56 4267.14,-138.72 4481,-107 4495.73,-104.82 4511.75,-100.5 4524.74,-96.49"/>
<polygon fill="#63b8ff" stroke="#63b8ff" points="2359.88,-152.96 2349.9,-156.55 2359.93,-159.96 2359.88,-152.96"/>
</g>
<!-- Node16&#45;&gt;Node13 -->
<g id="edge6" class="edge">
<title>Node16&#45;&gt;Node13</title>
<path fill="none" stroke="#63b8ff" d="M1256.73,-72.71C1248.76,-70.04 1240.17,-67.56 1232,-66 1136.73,-47.76 461.15,-24.33 262.69,-17.77"/>
<polygon fill="#63b8ff" stroke="#63b8ff" points="1255.44,-75.96 1266.04,-76.02 1257.79,-69.37 1255.44,-75.96"/>
</g>
<!-- Node16&#45;&gt;Node17 -->
<g id="edge7" class="edge">
<title>Node16&#45;&gt;Node17</title>
<path fill="none" stroke="#63b8ff" d="M1339.73,-74.23C1354,-71.29 1369.57,-68.31 1384,-66 1515.44,-44.98 1670.63,-29.28 1755.24,-21.49"/>
<polygon fill="#63b8ff" stroke="#63b8ff" points="1339.16,-70.77 1330.09,-76.25 1340.6,-77.62 1339.16,-70.77"/>
</g>
<!-- Node16&#45;&gt;Node18 -->
<g id="edge8" class="edge">
<title>Node16&#45;&gt;Node18</title>
<path fill="none" stroke="#63b8ff" d="M1299.21,-66.83C1305.49,-55.34 1313.42,-40.84 1319.2,-30.27"/>
<polygon fill="#63b8ff" stroke="#63b8ff" points="1296.27,-64.92 1294.54,-75.37 1302.41,-68.27 1296.27,-64.92"/>
</g>
<!-- Node41&#45;&gt;Node4 -->
<g id="edge16" class="edge">
<title>Node41&#45;&gt;Node4</title>
<path fill="none" stroke="#63b8ff" d="M313.91,-68.13C316.97,-67.36 320.02,-66.64 323,-66 439.09,-40.98 577.71,-26.75 653.21,-20.28"/>
<polygon fill="#63b8ff" stroke="#63b8ff" points="313.03,-64.74 304.28,-70.71 314.84,-71.5 313.03,-64.74"/>
</g>
<!-- Node41&#45;&gt;Node13 -->
<g id="edge17" class="edge">
<title>Node41&#45;&gt;Node13</title>
<path fill="none" stroke="#63b8ff" d="M241.66,-61.86C232.24,-49.03 221.17,-33.95 214.37,-24.68"/>
<polygon fill="#63b8ff" stroke="#63b8ff" points="238.8,-63.89 247.54,-69.88 244.44,-59.75 238.8,-63.89"/>
</g>
<!-- Node59&#45;&gt;Node62 -->
<g id="edge20" class="edge">
<title>Node59&#45;&gt;Node62</title>
<path fill="none" stroke="#63b8ff" d="M4845.51,-70.46C4866.27,-56.58 4896.4,-36.45 4913.61,-24.95"/>
<polygon fill="#63b8ff" stroke="#63b8ff" points="4843.8,-67.39 4837.43,-75.86 4847.69,-73.21 4843.8,-67.39"/>
</g>
<!-- Node74&#45;&gt;Node13 -->
<g id="edge28" class="edge">
<title>Node74&#45;&gt;Node13</title>
<path fill="none" stroke="#63b8ff" d="M124.1,-65.42C146.86,-52.01 175.67,-35.04 192.93,-24.88"/>
<polygon fill="#63b8ff" stroke="#63b8ff" points="122.59,-62.24 115.75,-70.33 126.15,-68.27 122.59,-62.24"/>
</g>
<!-- Node74&#45;&gt;Node76 -->
<g id="edge29" class="edge">
<title>Node74&#45;&gt;Node76</title>
<path fill="none" stroke="#63b8ff" d="M78.24,-60.73C72.27,-48.15 65.39,-33.67 61.12,-24.68"/>
<polygon fill="#63b8ff" stroke="#63b8ff" points="75.06,-62.2 82.51,-69.73 81.39,-59.2 75.06,-62.2"/>
</g>
<!-- Node128&#45;&gt;Node62 -->
<g id="edge54" class="edge">
<title>Node128&#45;&gt;Node62</title>
<path fill="none" stroke="#63b8ff" d="M4798.88,-145.53C4847.36,-134.11 4914.12,-116.89 4922,-107 4941.23,-82.87 4934.07,-42.7 4929.56,-24.93"/>
<polygon fill="#63b8ff" stroke="#63b8ff" points="4798.33,-142.07 4789.39,-147.75 4799.93,-148.88 4798.33,-142.07"/>
</g>
</g>
</svg>
