<?xml version="1.0" encoding="UTF-8" standalone="no"?>
<!DOCTYPE svg PUBLIC "-//W3C//DTD SVG 1.1//EN"
 "http://www.w3.org/Graphics/SVG/1.1/DTD/svg11.dtd">
<!-- Generated by graphviz version 9.0.0 (20230911.1827)
 -->
<!-- Title: include/f_op/f_op_msg.h Pages: 1 -->
<!--zoomable 448 -->

<svg id="main" version="1.1" xmlns="http://www.w3.org/2000/svg" xmlns:xlink="http://www.w3.org/1999/xlink" xml:space="preserve" onload="init(evt)">
<style type="text/css"><![CDATA[
.node, .edge {opacity: 0.7;}
.node.selected, .edge.selected {opacity: 1;}
.edge:hover path { stroke: red; }
.edge:hover polygon { stroke: red; fill: red; }
]]></style>

<defs>
  <circle id="rim" cx="0" cy="0" r="7"/>
  <circle id="rim2" cx="0" cy="0" r="3.5"/>
  <g id="zoomPlus">
    <use xlink:href="#rim" fill="#404040"><set attributeName="fill" to="#808080" begin="zoomplus.mouseover" end="zoomplus.mouseout"/></use>
    <path d="M-4,0h8M0,-4v8" fill="none" stroke="white" stroke-width="1.5" pointer-events="none"/>
  </g>
  <g id="zoomMin">
    <use xlink:href="#rim" fill="#404040"><set attributeName="fill" to="#808080" begin="zoomminus.mouseover" end="zoomminus.mouseout"/></use>
    <path d="M-4,0h8" fill="none" stroke="white" stroke-width="1.5" pointer-events="none"/>
  </g>
  <g id="arrowUp" transform="translate(30 24)">
    <use xlink:href="#rim"/>
    <path pointer-events="none" fill="none" stroke="white" stroke-width="1.5" d="M0,-3.0v7 M-2.5,-0.5L0,-3.0L2.5,-0.5"/>
  </g>
  <g id="arrowRight" transform="rotate(90) translate(36 -43)">
    <use xlink:href="#rim"/>
    <path pointer-events="none" fill="none" stroke="white" stroke-width="1.5" d="M0,-3.0v7 M-2.5,-0.5L0,-3.0L2.5,-0.5"/>
  </g>
  <g id="arrowDown" transform="rotate(180) translate(-30 -48)">
    <use xlink:href="#rim"/>
    <path pointer-events="none" fill="none" stroke="white" stroke-width="1.5" d="M0,-3.0v7 M-2.5,-0.5L0,-3.0L2.5,-0.5"/>
  </g>
  <g id="arrowLeft" transform="rotate(270) translate(-36 17)">
    <use xlink:href="#rim"/>
    <path pointer-events="none" fill="none" stroke="white" stroke-width="1.5" d="M0,-3.0v7 M-2.5,-0.5L0,-3.0L2.5,-0.5"/>
  </g>
  <g id="resetDef">
    <use xlink:href="#rim2" fill="#404040"><set attributeName="fill" to="#808080" begin="reset.mouseover" end="reset.mouseout"/></use>
  </g>
</defs>
<script type="application/ecmascript">
var viewWidth = 768;
var viewHeight = 448;
var sectionId = 'dynsection-0';
</script>
<script type="application/ecmascript" xlink:href="svg.min.js"/>
<svg id="graph" class="graph">
<g id="viewport">
<title>include/f_op/f_op_msg.h</title>
<!-- Node1 -->
<g id="Node000001" class="node">
<title>Node1</title>
<g id="a_Node000001"><a xlink:title=" ">
<polygon fill="#999999" stroke="#666666" points="202.75,-439.75 81,-439.75 81,-420.5 202.75,-420.5 202.75,-439.75"/>
<text text-anchor="middle" x="141.88" y="-426.25" font-family="Helvetica,sans-Serif" font-size="10.00">include/f_op/f_op_msg.h</text>
</a>
</g>
</g>
<!-- Node2 -->
<g id="Node000002" class="node">
<title>Node2</title>
<g id="a_Node000002"><a xlink:href="c__xyz_8h.html" target="_top" xlink:title=" ">
<polygon fill="white" stroke="#666666" points="135.38,-384.5 20.38,-384.5 20.38,-354 135.38,-354 135.38,-384.5"/>
<text text-anchor="start" x="28.38" y="-371" font-family="Helvetica,sans-Serif" font-size="10.00">SSystem/SComponent</text>
<text text-anchor="middle" x="77.88" y="-359.75" font-family="Helvetica,sans-Serif" font-size="10.00">/c_xyz.h</text>
</a>
</g>
</g>
<!-- Node1&#45;&gt;Node2 -->
<g id="edge1_Node000001_Node000002" class="edge">
<title>Node1&#45;&gt;Node2</title>
<g id="a_edge1_Node000001_Node000002"><a xlink:title=" ">
<path fill="none" stroke="#63b8ff" d="M132.15,-420.18C124.18,-412.84 112.53,-402.13 102.07,-392.51"/>
<polygon fill="#63b8ff" stroke="#63b8ff" points="104.52,-390 94.79,-385.81 99.78,-395.15 104.52,-390"/>
</a>
</g>
</g>
<!-- Node9 -->
<g id="Node000009" class="node">
<title>Node9</title>
<g id="a_Node000009"><a xlink:href="f__pc__leaf_8h.html" target="_top" xlink:title=" ">
<polygon fill="white" stroke="#666666" points="283.38,-378.88 198.38,-378.88 198.38,-359.62 283.38,-359.62 283.38,-378.88"/>
<text text-anchor="middle" x="240.88" y="-365.38" font-family="Helvetica,sans-Serif" font-size="10.00">f_pc/f_pc_leaf.h</text>
</a>
</g>
</g>
<!-- Node1&#45;&gt;Node9 -->
<g id="edge8_Node000001_Node000009" class="edge">
<title>Node1&#45;&gt;Node9</title>
<g id="a_edge8_Node000001_Node000009"><a xlink:title=" ">
<path fill="none" stroke="#63b8ff" d="M156.91,-420.18C172.54,-410.89 197.26,-396.19 215.84,-385.14"/>
<polygon fill="#63b8ff" stroke="#63b8ff" points="217.59,-388.17 224.4,-380.05 214.01,-382.15 217.59,-388.17"/>
</a>
</g>
</g>
<!-- Node3 -->
<g id="Node000003" class="node">
<title>Node3</title>
<g id="a_Node000003"><a xlink:href="vec_8h.html" target="_top" xlink:title=" ">
<polygon fill="white" stroke="#666666" points="157.75,-146.62 66,-146.62 66,-127.38 157.75,-127.38 157.75,-146.62"/>
<text text-anchor="middle" x="111.88" y="-133.12" font-family="Helvetica,sans-Serif" font-size="10.00">dolphin/mtx/vec.h</text>
</a>
</g>
</g>
<!-- Node2&#45;&gt;Node3 -->
<g id="edge2_Node000002_Node000003" class="edge">
<title>Node2&#45;&gt;Node3</title>
<g id="a_edge2_Node000002_Node000003"><a xlink:title=" ">
<path fill="none" stroke="#63b8ff" d="M78.5,-353.65C80.02,-322.82 84.72,-248.95 96.88,-188.25 98.94,-177.95 102.19,-166.72 105.14,-157.5"/>
<polygon fill="#63b8ff" stroke="#63b8ff" points="108.39,-158.8 108.24,-148.21 101.75,-156.58 108.39,-158.8"/>
</a>
</g>
</g>
<!-- Node6 -->
<g id="Node000006" class="node">
<title>Node6</title>
<g id="a_Node000006"><a xlink:href="math_8h.html" target="_top" xlink:title=" ">
<polygon fill="white" stroke="#666666" points="49.5,-318 4.25,-318 4.25,-298.75 49.5,-298.75 49.5,-318"/>
<text text-anchor="middle" x="26.88" y="-304.5" font-family="Helvetica,sans-Serif" font-size="10.00">math.h</text>
</a>
</g>
</g>
<!-- Node2&#45;&gt;Node6 -->
<g id="edge5_Node000002_Node000006" class="edge">
<title>Node2&#45;&gt;Node6</title>
<g id="a_edge5_Node000002_Node000006"><a xlink:title=" ">
<path fill="none" stroke="#63b8ff" d="M65.27,-353.7C58.25,-345.59 49.46,-335.45 42.07,-326.91"/>
<polygon fill="#63b8ff" stroke="#63b8ff" points="44.92,-324.86 35.73,-319.6 39.63,-329.45 44.92,-324.86"/>
</a>
</g>
</g>
<!-- Node4 -->
<g id="Node000004" class="node">
<title>Node4</title>
<g id="a_Node000004"><a xlink:href="types_8h.html" target="_top" xlink:title=" ">
<polygon fill="white" stroke="#666666" points="298.12,-80.12 217.62,-80.12 217.62,-60.88 298.12,-60.88 298.12,-80.12"/>
<text text-anchor="middle" x="257.88" y="-66.62" font-family="Helvetica,sans-Serif" font-size="10.00">dolphin/types.h</text>
</a>
</g>
</g>
<!-- Node3&#45;&gt;Node4 -->
<g id="edge3_Node000003_Node000004" class="edge">
<title>Node3&#45;&gt;Node4</title>
<g id="a_edge3_Node000003_Node000004"><a xlink:title=" ">
<path fill="none" stroke="#63b8ff" d="M132.48,-126.9C157.16,-116 198.71,-97.64 227.17,-85.07"/>
<polygon fill="#63b8ff" stroke="#63b8ff" points="228.25,-88.41 235.99,-81.17 225.43,-82.01 228.25,-88.41"/>
</a>
</g>
</g>
<!-- Node5 -->
<g id="Node000005" class="node">
<title>Node5</title>
<g id="a_Node000005"><a xlink:href="stddef_8h.html" target="_top" xlink:title=" ">
<polygon fill="white" stroke="#666666" points="283.12,-19.25 232.62,-19.25 232.62,0 283.12,0 283.12,-19.25"/>
<text text-anchor="middle" x="257.88" y="-5.75" font-family="Helvetica,sans-Serif" font-size="10.00">stddef.h</text>
</a>
</g>
</g>
<!-- Node4&#45;&gt;Node5 -->
<g id="edge4_Node000004_Node000005" class="edge">
<title>Node4&#45;&gt;Node5</title>
<g id="a_edge4_Node000004_Node000005"><a xlink:title=" ">
<path fill="none" stroke="#63b8ff" d="M257.88,-60.56C257.88,-52.78 257.88,-41.2 257.88,-31.16"/>
<polygon fill="#63b8ff" stroke="#63b8ff" points="261.38,-31.16 257.88,-21.16 254.38,-31.16 261.38,-31.16"/>
</a>
</g>
</g>
<!-- Node7 -->
<g id="Node000007" class="node">
<title>Node7</title>
<g id="a_Node000007"><a xlink:href="float_8h.html" target="_top" xlink:title=" ">
<polygon fill="white" stroke="#666666" points="46.62,-262.75 5.12,-262.75 5.12,-243.5 46.62,-243.5 46.62,-262.75"/>
<text text-anchor="middle" x="25.88" y="-249.25" font-family="Helvetica,sans-Serif" font-size="10.00">float.h</text>
</a>
</g>
</g>
<!-- Node6&#45;&gt;Node7 -->
<g id="edge6_Node000006_Node000007" class="edge">
<title>Node6&#45;&gt;Node7</title>
<g id="a_edge6_Node000006_Node000007"><a xlink:title=" ">
<path fill="none" stroke="#63b8ff" d="M26.71,-298.58C26.59,-292.07 26.42,-282.92 26.26,-274.62"/>
<polygon fill="#63b8ff" stroke="#63b8ff" points="29.76,-274.55 26.07,-264.62 22.76,-274.69 29.76,-274.55"/>
</a>
</g>
</g>
<!-- Node8 -->
<g id="Node000008" class="node">
<title>Node8</title>
<g id="a_Node000008"><a xlink:href="fdlibm_8h.html" target="_top" xlink:title=" ">
<polygon fill="white" stroke="#666666" points="49.75,-207.5 0,-207.5 0,-188.25 49.75,-188.25 49.75,-207.5"/>
<text text-anchor="middle" x="24.88" y="-194" font-family="Helvetica,sans-Serif" font-size="10.00">fdlibm.h</text>
</a>
</g>
</g>
<!-- Node7&#45;&gt;Node8 -->
<g id="edge7_Node000007_Node000008" class="edge">
<title>Node7&#45;&gt;Node8</title>
<g id="a_edge7_Node000007_Node000008"><a xlink:title=" ">
<path fill="none" stroke="#63b8ff" d="M25.71,-243.33C25.59,-236.82 25.42,-227.67 25.26,-219.37"/>
<polygon fill="#63b8ff" stroke="#63b8ff" points="28.76,-219.3 25.07,-209.37 21.76,-219.44 28.76,-219.3"/>
</a>
</g>
</g>
<!-- Node10 -->
<g id="Node000010" class="node">
<title>Node10</title>
<g id="a_Node000010"><a xlink:href="f__pc__base_8h.html" target="_top" xlink:title=" ">
<polygon fill="white" stroke="#666666" points="591,-318 500.75,-318 500.75,-298.75 591,-298.75 591,-318"/>
<text text-anchor="middle" x="545.88" y="-304.5" font-family="Helvetica,sans-Serif" font-size="10.00">f_pc/f_pc_base.h</text>
</a>
</g>
</g>
<!-- Node9&#45;&gt;Node10 -->
<g id="edge9_Node000009_Node000010" class="edge">
<title>Node9&#45;&gt;Node10</title>
<g id="a_edge9_Node000009_Node000010"><a xlink:title=" ">
<path fill="none" stroke="#63b8ff" d="M283.61,-360C337.36,-349.63 429.82,-331.78 489.37,-320.28"/>
<polygon fill="#63b8ff" stroke="#63b8ff" points="489.81,-323.76 498.97,-318.43 488.48,-316.89 489.81,-323.76"/>
</a>
</g>
</g>
<!-- Node18 -->
<g id="Node000018" class="node">
<title>Node18</title>
<g id="a_Node000018"><a xlink:href="f__pc__draw__priority_8h.html" target="_top" xlink:title=" ">
<polygon fill="white" stroke="#666666" points="409.88,-146.62 285.88,-146.62 285.88,-127.38 409.88,-127.38 409.88,-146.62"/>
<text text-anchor="middle" x="347.88" y="-133.12" font-family="Helvetica,sans-Serif" font-size="10.00">f_pc/f_pc_draw_priority.h</text>
</a>
</g>
</g>
<!-- Node9&#45;&gt;Node18 -->
<g id="edge21_Node000009_Node000018" class="edge">
<title>Node9&#45;&gt;Node18</title>
<g id="a_edge21_Node000009_Node000018"><a xlink:title=" ">
<path fill="none" stroke="#63b8ff" d="M270.84,-359.19C290.71,-351.53 315.5,-338.47 328.88,-318 361.47,-268.09 356.19,-193.31 351.27,-157.92"/>
<polygon fill="#63b8ff" stroke="#63b8ff" points="354.77,-157.63 349.78,-148.28 347.85,-158.7 354.77,-157.63"/>
</a>
</g>
</g>
<!-- Node19 -->
<g id="Node000019" class="node">
<title>Node19</title>
<g id="a_Node000019"><a xlink:href="f__pc__method_8h.html" target="_top" xlink:title=" ">
<polygon fill="white" stroke="#666666" points="207.62,-207.5 106.12,-207.5 106.12,-188.25 207.62,-188.25 207.62,-207.5"/>
<text text-anchor="middle" x="156.88" y="-194" font-family="Helvetica,sans-Serif" font-size="10.00">f_pc/f_pc_method.h</text>
</a>
</g>
</g>
<!-- Node9&#45;&gt;Node19 -->
<g id="edge23_Node000009_Node000019" class="edge">
<title>Node9&#45;&gt;Node19</title>
<g id="a_edge23_Node000009_Node000019"><a xlink:title=" ">
<path fill="none" stroke="#63b8ff" d="M236.36,-359.14C223.14,-332.48 184.31,-254.19 166.28,-217.83"/>
<polygon fill="#63b8ff" stroke="#63b8ff" points="169.46,-216.38 161.88,-208.97 163.19,-219.49 169.46,-216.38"/>
</a>
</g>
</g>
<!-- Node20 -->
<g id="Node000020" class="node">
<title>Node20</title>
<g id="a_Node000020"><a xlink:href="f__pc__profile_8h.html" target="_top" xlink:title=" ">
<polygon fill="white" stroke="#666666" points="320.25,-207.5 225.5,-207.5 225.5,-188.25 320.25,-188.25 320.25,-207.5"/>
<text text-anchor="middle" x="272.88" y="-194" font-family="Helvetica,sans-Serif" font-size="10.00">f_pc/f_pc_profile.h</text>
</a>
</g>
</g>
<!-- Node9&#45;&gt;Node20 -->
<g id="edge25_Node000009_Node000020" class="edge">
<title>Node9&#45;&gt;Node20</title>
<g id="a_edge25_Node000009_Node000020"><a xlink:title=" ">
<path fill="none" stroke="#63b8ff" d="M236.41,-359.24C230.41,-345.98 221.03,-320.43 225.88,-298.75 232.62,-268.59 249.51,-236.8 261.1,-217.4"/>
<polygon fill="#63b8ff" stroke="#63b8ff" points="263.98,-219.39 266.24,-209.04 258.02,-215.72 263.98,-219.39"/>
</a>
</g>
</g>
<!-- Node21 -->
<g id="Node000021" class="node">
<title>Node21</title>
<g id="a_Node000021"><a xlink:href="d__procname_8h.html" target="_top" xlink:title=" ">
<polygon fill="white" stroke="#666666" points="319.38,-318 234.38,-318 234.38,-298.75 319.38,-298.75 319.38,-318"/>
<text text-anchor="middle" x="276.88" y="-304.5" font-family="Helvetica,sans-Serif" font-size="10.00">d/d_procname.h</text>
</a>
</g>
</g>
<!-- Node9&#45;&gt;Node21 -->
<g id="edge27_Node000009_Node000021" class="edge">
<title>Node9&#45;&gt;Node21</title>
<g id="a_edge27_Node000009_Node000021"><a xlink:title=" ">
<path fill="none" stroke="#63b8ff" d="M246.34,-359.31C251.42,-351.01 259.13,-338.39 265.53,-327.92"/>
<polygon fill="#63b8ff" stroke="#63b8ff" points="268.34,-330.05 270.57,-319.69 262.36,-326.4 268.34,-330.05"/>
</a>
</g>
</g>
<!-- Node11 -->
<g id="Node000011" class="node">
<title>Node11</title>
<g id="a_Node000011"><a xlink:href="f__pc__delete__tag_8h.html" target="_top" xlink:title=" ">
<polygon fill="white" stroke="#666666" points="680,-207.5 565.75,-207.5 565.75,-188.25 680,-188.25 680,-207.5"/>
<text text-anchor="middle" x="622.88" y="-194" font-family="Helvetica,sans-Serif" font-size="10.00">f_pc/f_pc_delete_tag.h</text>
</a>
</g>
</g>
<!-- Node10&#45;&gt;Node11 -->
<g id="edge10_Node000010_Node000011" class="edge">
<title>Node10&#45;&gt;Node11</title>
<g id="a_edge10_Node000010_Node000011"><a xlink:title=" ">
<path fill="none" stroke="#63b8ff" d="M562.71,-298.37C575.74,-290.57 593.3,-278.14 603.88,-262.75 612.81,-249.74 617.62,-232.46 620.16,-219.15"/>
<polygon fill="#63b8ff" stroke="#63b8ff" points="623.6,-219.8 621.72,-209.38 616.69,-218.7 623.6,-219.8"/>
</a>
</g>
</g>
<!-- Node14 -->
<g id="Node000014" class="node">
<title>Node14</title>
<g id="a_Node000014"><a xlink:href="f__pc__layer__tag_8h.html" target="_top" xlink:title=" ">
<polygon fill="white" stroke="#666666" points="760,-262.75 651.75,-262.75 651.75,-243.5 760,-243.5 760,-262.75"/>
<text text-anchor="middle" x="705.88" y="-249.25" font-family="Helvetica,sans-Serif" font-size="10.00">f_pc/f_pc_layer_tag.h</text>
</a>
</g>
</g>
<!-- Node10&#45;&gt;Node14 -->
<g id="edge14_Node000010_Node000014" class="edge">
<title>Node10&#45;&gt;Node14</title>
<g id="a_edge14_Node000010_Node000014"><a xlink:title=" ">
<path fill="none" stroke="#63b8ff" d="M573.02,-298.34C599.11,-289.66 638.77,-276.46 667.97,-266.74"/>
<polygon fill="#63b8ff" stroke="#63b8ff" points="668.78,-270.16 677.16,-263.68 666.57,-263.52 668.78,-270.16"/>
</a>
</g>
</g>
<!-- Node15 -->
<g id="Node000015" class="node">
<title>Node15</title>
<g id="a_Node000015"><a xlink:href="f__pc__line__tag_8h.html" target="_top" xlink:title=" ">
<polygon fill="white" stroke="#666666" points="479.38,-262.75 376.38,-262.75 376.38,-243.5 479.38,-243.5 479.38,-262.75"/>
<text text-anchor="middle" x="427.88" y="-249.25" font-family="Helvetica,sans-Serif" font-size="10.00">f_pc/f_pc_line_tag.h</text>
</a>
</g>
</g>
<!-- Node10&#45;&gt;Node15 -->
<g id="edge16_Node000010_Node000015" class="edge">
<title>Node10&#45;&gt;Node15</title>
<g id="a_edge16_Node000010_Node000015"><a xlink:title=" ">
<path fill="none" stroke="#63b8ff" d="M525.86,-298.34C507.38,-290 479.67,-277.5 458.43,-267.91"/>
<polygon fill="#63b8ff" stroke="#63b8ff" points="459.92,-264.75 449.37,-263.83 457.05,-271.13 459.92,-264.75"/>
</a>
</g>
</g>
<!-- Node16 -->
<g id="Node000016" class="node">
<title>Node16</title>
<g id="a_Node000016"><a xlink:href="f__pc__priority_8h.html" target="_top" xlink:title=" ">
<polygon fill="white" stroke="#666666" points="594.75,-262.75 497,-262.75 497,-243.5 594.75,-243.5 594.75,-262.75"/>
<text text-anchor="middle" x="545.88" y="-249.25" font-family="Helvetica,sans-Serif" font-size="10.00">f_pc/f_pc_priority.h</text>
</a>
</g>
</g>
<!-- Node10&#45;&gt;Node16 -->
<g id="edge18_Node000010_Node000016" class="edge">
<title>Node10&#45;&gt;Node16</title>
<g id="a_edge18_Node000010_Node000016"><a xlink:title=" ">
<path fill="none" stroke="#63b8ff" d="M545.88,-298.58C545.88,-292.07 545.88,-282.92 545.88,-274.62"/>
<polygon fill="#63b8ff" stroke="#63b8ff" points="549.38,-274.62 545.88,-264.62 542.38,-274.62 549.38,-274.62"/>
</a>
</g>
</g>
<!-- Node12 -->
<g id="Node000012" class="node">
<title>Node12</title>
<g id="a_Node000012"><a xlink:href="c__tag_8h.html" target="_top" xlink:title=" ">
<polygon fill="white" stroke="#666666" points="545.38,-152.25 430.38,-152.25 430.38,-121.75 545.38,-121.75 545.38,-152.25"/>
<text text-anchor="start" x="438.38" y="-138.75" font-family="Helvetica,sans-Serif" font-size="10.00">SSystem/SComponent</text>
<text text-anchor="middle" x="487.88" y="-127.5" font-family="Helvetica,sans-Serif" font-size="10.00">/c_tag.h</text>
</a>
</g>
</g>
<!-- Node11&#45;&gt;Node12 -->
<g id="edge11_Node000011_Node000012" class="edge">
<title>Node11&#45;&gt;Node12</title>
<g id="a_edge11_Node000011_Node000012"><a xlink:title=" ">
<path fill="none" stroke="#63b8ff" d="M602.08,-187.8C583.48,-179.69 555.6,-167.53 532.04,-157.26"/>
<polygon fill="#63b8ff" stroke="#63b8ff" points="533.52,-154.09 522.96,-153.3 530.72,-160.51 533.52,-154.09"/>
</a>
</g>
</g>
<!-- Node12&#45;&gt;Node4 -->
<g id="edge13_Node000012_Node000004" class="edge">
<title>Node12&#45;&gt;Node4</title>
<g id="a_edge13_Node000012_Node000004"><a xlink:title=" ">
<path fill="none" stroke="#63b8ff" d="M435.4,-121.28C394.73,-109.88 339.08,-94.27 300.99,-83.59"/>
<polygon fill="#63b8ff" stroke="#63b8ff" points="302.29,-80.32 291.71,-80.99 300.4,-87.06 302.29,-80.32"/>
</a>
</g>
</g>
<!-- Node13 -->
<g id="Node000013" class="node">
<title>Node13</title>
<g id="a_Node000013"><a xlink:href="c__node_8h.html" target="_top" xlink:title=" ">
<polygon fill="white" stroke="#666666" points="545.38,-85.75 430.38,-85.75 430.38,-55.25 545.38,-55.25 545.38,-85.75"/>
<text text-anchor="start" x="438.38" y="-72.25" font-family="Helvetica,sans-Serif" font-size="10.00">SSystem/SComponent</text>
<text text-anchor="middle" x="487.88" y="-61" font-family="Helvetica,sans-Serif" font-size="10.00">/c_node.h</text>
</a>
</g>
</g>
<!-- Node12&#45;&gt;Node13 -->
<g id="edge12_Node000012_Node000013" class="edge">
<title>Node12&#45;&gt;Node13</title>
<g id="a_edge12_Node000012_Node000013"><a xlink:title=" ">
<path fill="none" stroke="#63b8ff" d="M487.88,-121.36C487.88,-114.27 487.88,-105.54 487.88,-97.38"/>
<polygon fill="#63b8ff" stroke="#63b8ff" points="491.38,-97.59 487.88,-87.59 484.38,-97.59 491.38,-97.59"/>
</a>
</g>
</g>
<!-- Node14&#45;&gt;Node12 -->
<g id="edge15_Node000014_Node000012" class="edge">
<title>Node14&#45;&gt;Node12</title>
<g id="a_edge15_Node000014_Node000012"><a xlink:title=" ">
<path fill="none" stroke="#63b8ff" d="M706.17,-243.33C706.12,-229.58 703.92,-203.07 688.88,-188.25 670.17,-169.83 607.46,-156.08 556.99,-147.66"/>
<polygon fill="#63b8ff" stroke="#63b8ff" points="557.7,-144.23 547.27,-146.08 556.58,-151.14 557.7,-144.23"/>
</a>
</g>
</g>
<!-- Node15&#45;&gt;Node12 -->
<g id="edge17_Node000015_Node000012" class="edge">
<title>Node15&#45;&gt;Node12</title>
<g id="a_edge17_Node000015_Node000012"><a xlink:title=" ">
<path fill="none" stroke="#63b8ff" d="M423.55,-243.33C417.9,-230.5 409.73,-206.22 418.88,-188.25 424.96,-176.3 435.36,-166.52 446.27,-158.87"/>
<polygon fill="#63b8ff" stroke="#63b8ff" points="448.09,-161.85 454.62,-153.51 444.31,-155.96 448.09,-161.85"/>
</a>
</g>
</g>
<!-- Node17 -->
<g id="Node000017" class="node">
<title>Node17</title>
<g id="a_Node000017"><a xlink:href="f__pc__method__tag_8h.html" target="_top" xlink:title=" ">
<polygon fill="white" stroke="#666666" points="548,-207.5 427.75,-207.5 427.75,-188.25 548,-188.25 548,-207.5"/>
<text text-anchor="middle" x="487.88" y="-194" font-family="Helvetica,sans-Serif" font-size="10.00">f_pc/f_pc_method_tag.h</text>
</a>
</g>
</g>
<!-- Node16&#45;&gt;Node17 -->
<g id="edge19_Node000016_Node000017" class="edge">
<title>Node16&#45;&gt;Node17</title>
<g id="a_edge19_Node000016_Node000017"><a xlink:title=" ">
<path fill="none" stroke="#63b8ff" d="M536.04,-243.09C527.82,-235.55 515.89,-224.6 505.96,-215.48"/>
<polygon fill="#63b8ff" stroke="#63b8ff" points="508.42,-212.98 498.68,-208.8 503.68,-218.14 508.42,-212.98"/>
</a>
</g>
</g>
<!-- Node17&#45;&gt;Node12 -->
<g id="edge20_Node000017_Node000012" class="edge">
<title>Node17&#45;&gt;Node12</title>
<g id="a_edge20_Node000017_Node000012"><a xlink:title=" ">
<path fill="none" stroke="#63b8ff" d="M487.88,-187.93C487.88,-181.48 487.88,-172.41 487.88,-163.76"/>
<polygon fill="#63b8ff" stroke="#63b8ff" points="491.38,-164.05 487.88,-154.05 484.38,-164.05 491.38,-164.05"/>
</a>
</g>
</g>
<!-- Node18&#45;&gt;Node4 -->
<g id="edge22_Node000018_Node000004" class="edge">
<title>Node18&#45;&gt;Node4</title>
<g id="a_edge22_Node000018_Node000004"><a xlink:title=" ">
<path fill="none" stroke="#63b8ff" d="M335.36,-127.03C320.93,-116.69 296.97,-99.52 279.5,-87"/>
<polygon fill="#63b8ff" stroke="#63b8ff" points="281.97,-84.46 271.8,-81.48 277.89,-90.15 281.97,-84.46"/>
</a>
</g>
</g>
<!-- Node19&#45;&gt;Node4 -->
<g id="edge24_Node000019_Node000004" class="edge">
<title>Node19&#45;&gt;Node4</title>
<g id="a_edge24_Node000019_Node000004"><a xlink:title=" ">
<path fill="none" stroke="#63b8ff" d="M164.14,-187.86C180.74,-167.26 221.69,-116.42 243.56,-89.27"/>
<polygon fill="#63b8ff" stroke="#63b8ff" points="246.18,-91.6 249.73,-81.61 240.73,-87.21 246.18,-91.6"/>
</a>
</g>
</g>
<!-- Node20&#45;&gt;Node4 -->
<g id="edge26_Node000020_Node000004" class="edge">
<title>Node20&#45;&gt;Node4</title>
<g id="a_edge26_Node000020_Node000004"><a xlink:title=" ">
<path fill="none" stroke="#63b8ff" d="M271.8,-187.86C269.41,-167.89 263.62,-119.51 260.31,-91.83"/>
<polygon fill="#63b8ff" stroke="#63b8ff" points="263.79,-91.45 259.12,-81.94 256.84,-92.28 263.79,-91.45"/>
</a>
</g>
</g>
</g>
</svg>

<g id="navigator" transform="translate(0 0)" fill="#404254">
  <rect fill="#f2f5e9" fill-opacity="0.5" stroke="#606060" stroke-width=".5" x="0" y="0" width="60" height="60"/>
  <use id="zoomplus" xlink:href="#zoomPlus" x="17" y="9" onmousedown="handleZoom(evt,'in')"/>
  <use id="zoomminus" xlink:href="#zoomMin" x="42" y="9" onmousedown="handleZoom(evt,'out')"/>
  <use id="reset" xlink:href="#resetDef" x="30" y="36" onmousedown="handleReset()"/>
   <use id="arrowup" xlink:href="#arrowUp" x="0" y="0" onmousedown="handlePan(0,-1)"/>
  <use id="arrowright" xlink:href="#arrowRight" x="0" y="0" onmousedown="handlePan(1,0)"/>
  <use id="arrowdown" xlink:href="#arrowDown" x="0" y="0" onmousedown="handlePan(0,1)"/>
  <use id="arrowleft" xlink:href="#arrowLeft" x="0" y="0" onmousedown="handlePan(-1,0)"/>
</g>
<svg viewBox="0 0 15 15" width="100%" height="30px" preserveAspectRatio="xMaxYMin meet">
 <g id="arrow_out" transform="scale(0.3 0.3)">
  <a xlink:href="f__op__msg_8h__incl_org.svg" target="_base">
   <rect id="button" ry="5" rx="5" y="6" x="6" height="38" width="38"
        fill="#f2f5e9" fill-opacity="0.5" stroke="#606060" stroke-width="1.0"/>
   <path id="arrow"
     d="M 11.500037,31.436501 C 11.940474,20.09759 22.043105,11.32322 32.158766,21.979434 L 37.068811,17.246167 C 37.068811,17.246167 37.088388,32 37.088388,32 L 22.160133,31.978069 C 22.160133,31.978069 26.997745,27.140456 26.997745,27.140456 C 18.528582,18.264221 13.291696,25.230495 11.500037,31.436501 z"
     style="fill:#404040;"/>
  </a>
 </g>
</svg>

<style type='text/css'>
<![CDATA[
[data-mouse-over-selected='false'] { opacity: 0.7; }
[data-mouse-over-selected='true']  { opacity: 1.0; }
]]>
</style>
<script type="application/ecmascript"><![CDATA[
document.addEventListener('DOMContentLoaded', (event) => {
  highlightEdges();
  highlightAdjacentNodes();
});
]]></script>
</svg>
