<?xml version="1.0" encoding="UTF-8" standalone="no"?>
<!DOCTYPE svg PUBLIC "-//W3C//DTD SVG 1.1//EN"
 "http://www.w3.org/Graphics/SVG/1.1/DTD/svg11.dtd">
<!-- Generated by graphviz version 9.0.0 (20230911.1827)
 -->
<!-- Title: src/f_op/f_op_overlap.cpp Pages: 1 -->
<svg width="1158pt" height="526pt"
 viewBox="0.00 0.00 1157.75 525.50" xmlns="http://www.w3.org/2000/svg" xmlns:xlink="http://www.w3.org/1999/xlink">
<g id="graph0" class="graph" transform="scale(1 1) rotate(0) translate(4 521.5)">
<title>src/f_op/f_op_overlap.cpp</title>
<!-- Node1 -->
<g id="Node000001" class="node">
<title>Node1</title>
<g id="a_Node000001"><a xlink:title=" ">
<polygon fill="#999999" stroke="#666666" points="735.38,-517.5 607.62,-517.5 607.62,-498.25 735.38,-498.25 735.38,-517.5"/>
<text text-anchor="middle" x="671.5" y="-504" font-family="Helvetica,sans-Serif" font-size="10.00">src/f_op/f_op_overlap.cpp</text>
</a>
</g>
</g>
<!-- Node2 -->
<g id="Node000002" class="node">
<title>Node2</title>
<g id="a_Node000002"><a xlink:href="c__request_8h.html" target="_top" xlink:title=" ">
<polygon fill="white" stroke="#666666" points="1059,-462.25 944,-462.25 944,-431.75 1059,-431.75 1059,-462.25"/>
<text text-anchor="start" x="952" y="-448.75" font-family="Helvetica,sans-Serif" font-size="10.00">SSystem/SComponent</text>
<text text-anchor="middle" x="1001.5" y="-437.5" font-family="Helvetica,sans-Serif" font-size="10.00">/c_request.h</text>
</a>
</g>
</g>
<!-- Node1&#45;&gt;Node2 -->
<g id="edge1_Node000001_Node000002" class="edge">
<title>Node1&#45;&gt;Node2</title>
<g id="a_edge1_Node000001_Node000002"><a xlink:title=" ">
<path fill="none" stroke="#63b8ff" d="M722.34,-497.8C778.71,-487.75 869.94,-471.47 932.68,-460.28"/>
<polygon fill="#63b8ff" stroke="#63b8ff" points="932.94,-463.79 942.17,-458.59 931.71,-456.9 932.94,-463.79"/>
</a>
</g>
</g>
<!-- Node5 -->
<g id="Node000005" class="node">
<title>Node5</title>
<g id="a_Node000005"><a xlink:href="f__op__overlap_8h.html" target="_top" xlink:title=" ">
<polygon fill="white" stroke="#666666" points="547.88,-456.62 447.12,-456.62 447.12,-437.38 547.88,-437.38 547.88,-456.62"/>
<text text-anchor="middle" x="497.5" y="-443.12" font-family="Helvetica,sans-Serif" font-size="10.00">f_op/f_op_overlap.h</text>
</a>
</g>
</g>
<!-- Node1&#45;&gt;Node5 -->
<g id="edge4_Node000001_Node000005" class="edge">
<title>Node1&#45;&gt;Node5</title>
<g id="a_edge4_Node000001_Node000005"><a xlink:title=" ">
<path fill="none" stroke="#63b8ff" d="M644.69,-497.8C615.32,-487.86 567.98,-471.85 534.94,-460.67"/>
<polygon fill="#63b8ff" stroke="#63b8ff" points="536.36,-457.46 525.77,-457.57 534.12,-464.09 536.36,-457.46"/>
</a>
</g>
</g>
<!-- Node19 -->
<g id="Node000019" class="node">
<title>Node19</title>
<g id="a_Node000019"><a xlink:href="f__pc__manager_8h.html" target="_top" xlink:title=" ">
<polygon fill="white" stroke="#666666" points="724.88,-456.62 618.12,-456.62 618.12,-437.38 724.88,-437.38 724.88,-456.62"/>
<text text-anchor="middle" x="671.5" y="-443.12" font-family="Helvetica,sans-Serif" font-size="10.00">f_pc/f_pc_manager.h</text>
</a>
</g>
</g>
<!-- Node1&#45;&gt;Node19 -->
<g id="edge25_Node000001_Node000019" class="edge">
<title>Node1&#45;&gt;Node19</title>
<g id="a_edge25_Node000001_Node000019"><a xlink:title=" ">
<path fill="none" stroke="#63b8ff" d="M671.5,-497.93C671.5,-490.15 671.5,-478.58 671.5,-468.53"/>
<polygon fill="#63b8ff" stroke="#63b8ff" points="675,-468.54 671.5,-458.54 668,-468.54 675,-468.54"/>
</a>
</g>
</g>
<!-- Node3 -->
<g id="Node000003" class="node">
<title>Node3</title>
<g id="a_Node000003"><a xlink:href="types_8h.html" target="_top" xlink:title=" ">
<polygon fill="white" stroke="#666666" points="586.75,-80.12 506.25,-80.12 506.25,-60.88 586.75,-60.88 586.75,-80.12"/>
<text text-anchor="middle" x="546.5" y="-66.62" font-family="Helvetica,sans-Serif" font-size="10.00">dolphin/types.h</text>
</a>
</g>
</g>
<!-- Node2&#45;&gt;Node3 -->
<g id="edge2_Node000002_Node000003" class="edge">
<title>Node2&#45;&gt;Node3</title>
<g id="a_edge2_Node000002_Node000003"><a xlink:title=" ">
<path fill="none" stroke="#63b8ff" d="M1042.17,-431.31C1085.37,-412.77 1147.5,-376.42 1147.5,-320.62 1147.5,-320.62 1147.5,-320.62 1147.5,-202.5 1147.5,-165.63 1156.49,-145.75 1128.5,-121.75 1089.41,-88.24 717.74,-90.79 666.5,-85.75 644.13,-83.55 619.46,-80.7 598.34,-78.12"/>
<polygon fill="#63b8ff" stroke="#63b8ff" points="598.86,-74.66 588.51,-76.91 598,-81.61 598.86,-74.66"/>
</a>
</g>
</g>
<!-- Node4 -->
<g id="Node000004" class="node">
<title>Node4</title>
<g id="a_Node000004"><a xlink:href="stddef_8h.html" target="_top" xlink:title=" ">
<polygon fill="white" stroke="#666666" points="571.75,-19.25 521.25,-19.25 521.25,0 571.75,0 571.75,-19.25"/>
<text text-anchor="middle" x="546.5" y="-5.75" font-family="Helvetica,sans-Serif" font-size="10.00">stddef.h</text>
</a>
</g>
</g>
<!-- Node3&#45;&gt;Node4 -->
<g id="edge3_Node000003_Node000004" class="edge">
<title>Node3&#45;&gt;Node4</title>
<g id="a_edge3_Node000003_Node000004"><a xlink:title=" ">
<path fill="none" stroke="#63b8ff" d="M546.5,-60.56C546.5,-52.78 546.5,-41.2 546.5,-31.16"/>
<polygon fill="#63b8ff" stroke="#63b8ff" points="550,-31.16 546.5,-21.16 543,-31.16 550,-31.16"/>
</a>
</g>
</g>
<!-- Node6 -->
<g id="Node000006" class="node">
<title>Node6</title>
<g id="a_Node000006"><a xlink:href="f__pc__leaf_8h.html" target="_top" xlink:title=" ">
<polygon fill="white" stroke="#666666" points="430,-390.12 345,-390.12 345,-370.88 430,-370.88 430,-390.12"/>
<text text-anchor="middle" x="387.5" y="-376.62" font-family="Helvetica,sans-Serif" font-size="10.00">f_pc/f_pc_leaf.h</text>
</a>
</g>
</g>
<!-- Node5&#45;&gt;Node6 -->
<g id="edge5_Node000005_Node000006" class="edge">
<title>Node5&#45;&gt;Node6</title>
<g id="a_edge5_Node000005_Node000006"><a xlink:title=" ">
<path fill="none" stroke="#63b8ff" d="M482.2,-437.03C464.25,-426.5 434.19,-408.88 412.76,-396.31"/>
<polygon fill="#63b8ff" stroke="#63b8ff" points="414.72,-393.4 404.33,-391.37 411.18,-399.44 414.72,-393.4"/>
</a>
</g>
</g>
<!-- Node7 -->
<g id="Node000007" class="node">
<title>Node7</title>
<g id="a_Node000007"><a xlink:href="f__pc__base_8h.html" target="_top" xlink:title=" ">
<polygon fill="white" stroke="#666666" points="658.62,-329.25 568.38,-329.25 568.38,-310 658.62,-310 658.62,-329.25"/>
<text text-anchor="middle" x="613.5" y="-315.75" font-family="Helvetica,sans-Serif" font-size="10.00">f_pc/f_pc_base.h</text>
</a>
</g>
</g>
<!-- Node6&#45;&gt;Node7 -->
<g id="edge6_Node000006_Node000007" class="edge">
<title>Node6&#45;&gt;Node7</title>
<g id="a_edge6_Node000006_Node000007"><a xlink:title=" ">
<path fill="none" stroke="#63b8ff" d="M420.21,-370.45C426.6,-368.7 433.26,-366.91 439.5,-365.25 482.48,-353.85 531.55,-341.31 566.6,-332.43"/>
<polygon fill="#63b8ff" stroke="#63b8ff" points="567.16,-335.9 576,-330.05 565.44,-329.11 567.16,-335.9"/>
</a>
</g>
</g>
<!-- Node15 -->
<g id="Node000015" class="node">
<title>Node15</title>
<g id="a_Node000015"><a xlink:href="f__pc__draw__priority_8h.html" target="_top" xlink:title=" ">
<polygon fill="white" stroke="#666666" points="191.5,-146.62 67.5,-146.62 67.5,-127.38 191.5,-127.38 191.5,-146.62"/>
<text text-anchor="middle" x="129.5" y="-133.12" font-family="Helvetica,sans-Serif" font-size="10.00">f_pc/f_pc_draw_priority.h</text>
</a>
</g>
</g>
<!-- Node6&#45;&gt;Node15 -->
<g id="edge18_Node000006_Node000015" class="edge">
<title>Node6&#45;&gt;Node15</title>
<g id="a_edge18_Node000006_Node000015"><a xlink:title=" ">
<path fill="none" stroke="#63b8ff" d="M351.88,-370.38C292.1,-352.82 174.05,-307.93 132.5,-218.75 123.62,-199.7 124.11,-175.29 126.04,-158.32"/>
<polygon fill="#63b8ff" stroke="#63b8ff" points="129.49,-158.9 127.45,-148.5 122.56,-157.9 129.49,-158.9"/>
</a>
</g>
</g>
<!-- Node16 -->
<g id="Node000016" class="node">
<title>Node16</title>
<g id="a_Node000016"><a xlink:href="f__pc__method_8h.html" target="_top" xlink:title=" ">
<polygon fill="white" stroke="#666666" points="243.25,-213.12 141.75,-213.12 141.75,-193.88 243.25,-193.88 243.25,-213.12"/>
<text text-anchor="middle" x="192.5" y="-199.62" font-family="Helvetica,sans-Serif" font-size="10.00">f_pc/f_pc_method.h</text>
</a>
</g>
</g>
<!-- Node6&#45;&gt;Node16 -->
<g id="edge20_Node000006_Node000016" class="edge">
<title>Node6&#45;&gt;Node16</title>
<g id="a_edge20_Node000006_Node000016"><a xlink:title=" ">
<path fill="none" stroke="#63b8ff" d="M363.59,-370.49C327.33,-355.68 258.45,-322.87 218.5,-274 206.78,-259.66 200.02,-239.51 196.35,-224.6"/>
<polygon fill="#63b8ff" stroke="#63b8ff" points="199.82,-224.05 194.27,-215.02 192.97,-225.54 199.82,-224.05"/>
</a>
</g>
</g>
<!-- Node17 -->
<g id="Node000017" class="node">
<title>Node17</title>
<g id="a_Node000017"><a xlink:href="f__pc__profile_8h.html" target="_top" xlink:title=" ">
<polygon fill="white" stroke="#666666" points="437.88,-329.25 343.12,-329.25 343.12,-310 437.88,-310 437.88,-329.25"/>
<text text-anchor="middle" x="390.5" y="-315.75" font-family="Helvetica,sans-Serif" font-size="10.00">f_pc/f_pc_profile.h</text>
</a>
</g>
</g>
<!-- Node6&#45;&gt;Node17 -->
<g id="edge22_Node000006_Node000017" class="edge">
<title>Node6&#45;&gt;Node17</title>
<g id="a_edge22_Node000006_Node000017"><a xlink:title=" ">
<path fill="none" stroke="#63b8ff" d="M387.96,-370.56C388.36,-362.69 388.95,-350.95 389.47,-340.82"/>
<polygon fill="#63b8ff" stroke="#63b8ff" points="392.95,-341.33 389.96,-331.16 385.96,-340.97 392.95,-341.33"/>
</a>
</g>
</g>
<!-- Node18 -->
<g id="Node000018" class="node">
<title>Node18</title>
<g id="a_Node000018"><a xlink:href="d__procname_8h.html" target="_top" xlink:title=" ">
<polygon fill="white" stroke="#666666" points="85,-329.25 0,-329.25 0,-310 85,-310 85,-329.25"/>
<text text-anchor="middle" x="42.5" y="-315.75" font-family="Helvetica,sans-Serif" font-size="10.00">d/d_procname.h</text>
</a>
</g>
</g>
<!-- Node6&#45;&gt;Node18 -->
<g id="edge24_Node000006_Node000018" class="edge">
<title>Node6&#45;&gt;Node18</title>
<g id="a_edge24_Node000006_Node000018"><a xlink:title=" ">
<path fill="none" stroke="#63b8ff" d="M344.5,-372.16C281.71,-361.45 164.95,-341.52 96.47,-329.83"/>
<polygon fill="#63b8ff" stroke="#63b8ff" points="97.43,-326.45 86.99,-328.22 96.26,-333.35 97.43,-326.45"/>
</a>
</g>
</g>
<!-- Node8 -->
<g id="Node000008" class="node">
<title>Node8</title>
<g id="a_Node000008"><a xlink:href="f__pc__delete__tag_8h.html" target="_top" xlink:title=" ">
<polygon fill="white" stroke="#666666" points="783.62,-274 669.38,-274 669.38,-254.75 783.62,-254.75 783.62,-274"/>
<text text-anchor="middle" x="726.5" y="-260.5" font-family="Helvetica,sans-Serif" font-size="10.00">f_pc/f_pc_delete_tag.h</text>
</a>
</g>
</g>
<!-- Node7&#45;&gt;Node8 -->
<g id="edge7_Node000007_Node000008" class="edge">
<title>Node7&#45;&gt;Node8</title>
<g id="a_edge7_Node000007_Node000008"><a xlink:title=" ">
<path fill="none" stroke="#63b8ff" d="M632.67,-309.59C650.28,-301.29 676.66,-288.86 696.96,-279.29"/>
<polygon fill="#63b8ff" stroke="#63b8ff" points="698.31,-282.53 705.87,-275.1 695.33,-276.19 698.31,-282.53"/>
</a>
</g>
</g>
<!-- Node11 -->
<g id="Node000011" class="node">
<title>Node11</title>
<g id="a_Node000011"><a xlink:href="f__pc__layer__tag_8h.html" target="_top" xlink:title=" ">
<polygon fill="white" stroke="#666666" points="909.62,-274 801.38,-274 801.38,-254.75 909.62,-254.75 909.62,-274"/>
<text text-anchor="middle" x="855.5" y="-260.5" font-family="Helvetica,sans-Serif" font-size="10.00">f_pc/f_pc_layer_tag.h</text>
</a>
</g>
</g>
<!-- Node7&#45;&gt;Node11 -->
<g id="edge11_Node000007_Node000011" class="edge">
<title>Node7&#45;&gt;Node11</title>
<g id="a_edge11_Node000007_Node000011"><a xlink:title=" ">
<path fill="none" stroke="#63b8ff" d="M654.83,-309.53C695.81,-300.51 758.74,-286.67 803.18,-276.89"/>
<polygon fill="#63b8ff" stroke="#63b8ff" points="803.85,-280.32 812.87,-274.76 802.35,-273.49 803.85,-280.32"/>
</a>
</g>
</g>
<!-- Node12 -->
<g id="Node000012" class="node">
<title>Node12</title>
<g id="a_Node000012"><a xlink:href="f__pc__line__tag_8h.html" target="_top" xlink:title=" ">
<polygon fill="white" stroke="#666666" points="651,-274 548,-274 548,-254.75 651,-254.75 651,-274"/>
<text text-anchor="middle" x="599.5" y="-260.5" font-family="Helvetica,sans-Serif" font-size="10.00">f_pc/f_pc_line_tag.h</text>
</a>
</g>
</g>
<!-- Node7&#45;&gt;Node12 -->
<g id="edge13_Node000007_Node000012" class="edge">
<title>Node7&#45;&gt;Node12</title>
<g id="a_edge13_Node000007_Node000012"><a xlink:title=" ">
<path fill="none" stroke="#63b8ff" d="M611.19,-309.83C609.44,-303.17 606.96,-293.74 604.73,-285.28"/>
<polygon fill="#63b8ff" stroke="#63b8ff" points="608.17,-284.6 602.25,-275.82 601.4,-286.38 608.17,-284.6"/>
</a>
</g>
</g>
<!-- Node13 -->
<g id="Node000013" class="node">
<title>Node13</title>
<g id="a_Node000013"><a xlink:href="f__pc__priority_8h.html" target="_top" xlink:title=" ">
<polygon fill="white" stroke="#666666" points="530.38,-274 432.62,-274 432.62,-254.75 530.38,-254.75 530.38,-274"/>
<text text-anchor="middle" x="481.5" y="-260.5" font-family="Helvetica,sans-Serif" font-size="10.00">f_pc/f_pc_priority.h</text>
</a>
</g>
</g>
<!-- Node7&#45;&gt;Node13 -->
<g id="edge15_Node000007_Node000013" class="edge">
<title>Node7&#45;&gt;Node13</title>
<g id="a_edge15_Node000007_Node000013"><a xlink:title=" ">
<path fill="none" stroke="#63b8ff" d="M591.11,-309.59C570.06,-301.1 538.3,-288.29 514.38,-278.64"/>
<polygon fill="#63b8ff" stroke="#63b8ff" points="515.99,-275.51 505.41,-275.02 513.37,-282.01 515.99,-275.51"/>
</a>
</g>
</g>
<!-- Node9 -->
<g id="Node000009" class="node">
<title>Node9</title>
<g id="a_Node000009"><a xlink:href="c__tag_8h.html" target="_top" xlink:title=" ">
<polygon fill="white" stroke="#666666" points="604,-152.25 489,-152.25 489,-121.75 604,-121.75 604,-152.25"/>
<text text-anchor="start" x="497" y="-138.75" font-family="Helvetica,sans-Serif" font-size="10.00">SSystem/SComponent</text>
<text text-anchor="middle" x="546.5" y="-127.5" font-family="Helvetica,sans-Serif" font-size="10.00">/c_tag.h</text>
</a>
</g>
</g>
<!-- Node8&#45;&gt;Node9 -->
<g id="edge8_Node000008_Node000009" class="edge">
<title>Node8&#45;&gt;Node9</title>
<g id="a_edge8_Node000008_Node000009"><a xlink:title=" ">
<path fill="none" stroke="#63b8ff" d="M727.41,-254.7C728.51,-239.29 728.47,-206.98 711.5,-188.25 704.56,-180.59 657.17,-166.59 614.94,-155.31"/>
<polygon fill="#63b8ff" stroke="#63b8ff" points="616.09,-151.99 605.53,-152.82 614.3,-158.76 616.09,-151.99"/>
</a>
</g>
</g>
<!-- Node9&#45;&gt;Node3 -->
<g id="edge10_Node000009_Node000003" class="edge">
<title>Node9&#45;&gt;Node3</title>
<g id="a_edge10_Node000009_Node000003"><a xlink:title=" ">
<path fill="none" stroke="#63b8ff" d="M546.5,-121.36C546.5,-112.58 546.5,-101.27 546.5,-91.65"/>
<polygon fill="#63b8ff" stroke="#63b8ff" points="550,-91.84 546.5,-81.84 543,-91.84 550,-91.84"/>
</a>
</g>
</g>
<!-- Node10 -->
<g id="Node000010" class="node">
<title>Node10</title>
<g id="a_Node000010"><a xlink:href="c__node_8h.html" target="_top" xlink:title=" ">
<polygon fill="white" stroke="#666666" points="790,-85.75 675,-85.75 675,-55.25 790,-55.25 790,-85.75"/>
<text text-anchor="start" x="683" y="-72.25" font-family="Helvetica,sans-Serif" font-size="10.00">SSystem/SComponent</text>
<text text-anchor="middle" x="732.5" y="-61" font-family="Helvetica,sans-Serif" font-size="10.00">/c_node.h</text>
</a>
</g>
</g>
<!-- Node9&#45;&gt;Node10 -->
<g id="edge9_Node000009_Node000010" class="edge">
<title>Node9&#45;&gt;Node10</title>
<g id="a_edge9_Node000009_Node000010"><a xlink:title=" ">
<path fill="none" stroke="#63b8ff" d="M588.71,-121.36C615.6,-112.04 650.68,-99.87 679.45,-89.9"/>
<polygon fill="#63b8ff" stroke="#63b8ff" points="680.41,-93.27 688.71,-86.69 678.11,-86.66 680.41,-93.27"/>
</a>
</g>
</g>
<!-- Node11&#45;&gt;Node9 -->
<g id="edge12_Node000011_Node000009" class="edge">
<title>Node11&#45;&gt;Node9</title>
<g id="a_edge12_Node000011_Node000009"><a xlink:title=" ">
<path fill="none" stroke="#63b8ff" d="M843.45,-254.48C821.97,-239.01 775.22,-206.99 731.5,-188.25 710.54,-179.26 658.99,-165.49 615.61,-154.64"/>
<polygon fill="#63b8ff" stroke="#63b8ff" points="616.51,-151.26 605.97,-152.24 614.83,-158.05 616.51,-151.26"/>
</a>
</g>
</g>
<!-- Node12&#45;&gt;Node9 -->
<g id="edge14_Node000012_Node000009" class="edge">
<title>Node12&#45;&gt;Node9</title>
<g id="a_edge14_Node000012_Node000009"><a xlink:title=" ">
<path fill="none" stroke="#63b8ff" d="M642.95,-254.39C662.53,-247.94 683.84,-237.03 695.5,-218.75 702.79,-207.32 703.41,-199.26 695.5,-188.25 685.51,-174.34 649.55,-162 615.45,-153.03"/>
<polygon fill="#63b8ff" stroke="#63b8ff" points="616.51,-149.69 605.95,-150.61 614.78,-156.47 616.51,-149.69"/>
</a>
</g>
</g>
<!-- Node14 -->
<g id="Node000014" class="node">
<title>Node14</title>
<g id="a_Node000014"><a xlink:href="f__pc__method__tag_8h.html" target="_top" xlink:title=" ">
<polygon fill="white" stroke="#666666" points="686.62,-213.12 566.38,-213.12 566.38,-193.88 686.62,-193.88 686.62,-213.12"/>
<text text-anchor="middle" x="626.5" y="-199.62" font-family="Helvetica,sans-Serif" font-size="10.00">f_pc/f_pc_method_tag.h</text>
</a>
</g>
</g>
<!-- Node13&#45;&gt;Node14 -->
<g id="edge16_Node000013_Node000014" class="edge">
<title>Node13&#45;&gt;Node14</title>
<g id="a_edge16_Node000013_Node000014"><a xlink:title=" ">
<path fill="none" stroke="#63b8ff" d="M503.84,-254.3C527.86,-244.55 566.28,-228.95 593.72,-217.81"/>
<polygon fill="#63b8ff" stroke="#63b8ff" points="595.02,-221.06 602.97,-214.05 592.39,-214.57 595.02,-221.06"/>
</a>
</g>
</g>
<!-- Node14&#45;&gt;Node9 -->
<g id="edge17_Node000014_Node000009" class="edge">
<title>Node14&#45;&gt;Node9</title>
<g id="a_edge17_Node000014_Node000009"><a xlink:title=" ">
<path fill="none" stroke="#63b8ff" d="M615.38,-193.53C604.6,-184.84 587.83,-171.33 573.54,-159.8"/>
<polygon fill="#63b8ff" stroke="#63b8ff" points="575.76,-157.09 565.78,-153.54 571.36,-162.54 575.76,-157.09"/>
</a>
</g>
</g>
<!-- Node15&#45;&gt;Node3 -->
<g id="edge19_Node000015_Node000003" class="edge">
<title>Node15&#45;&gt;Node3</title>
<g id="a_edge19_Node000015_Node000003"><a xlink:title=" ">
<path fill="none" stroke="#63b8ff" d="M188.36,-126.9C270.21,-114.24 417.08,-91.52 494.88,-79.49"/>
<polygon fill="#63b8ff" stroke="#63b8ff" points="494.99,-83.01 504.34,-78.02 493.92,-76.09 494.99,-83.01"/>
</a>
</g>
</g>
<!-- Node16&#45;&gt;Node3 -->
<g id="edge21_Node000016_Node000003" class="edge">
<title>Node16&#45;&gt;Node3</title>
<g id="a_edge21_Node000016_Node000003"><a xlink:title=" ">
<path fill="none" stroke="#63b8ff" d="M207.56,-193.59C235.49,-177.38 297.6,-142.78 353.5,-121.75 400.1,-104.22 455.25,-90.53 494.64,-81.89"/>
<polygon fill="#63b8ff" stroke="#63b8ff" points="495.3,-85.33 504.34,-79.8 493.82,-78.49 495.3,-85.33"/>
</a>
</g>
</g>
<!-- Node17&#45;&gt;Node3 -->
<g id="edge23_Node000017_Node000003" class="edge">
<title>Node17&#45;&gt;Node3</title>
<g id="a_edge23_Node000017_Node000003"><a xlink:title=" ">
<path fill="none" stroke="#63b8ff" d="M391.35,-309.59C393.72,-287.65 401.69,-230.33 423.5,-188.25 446.65,-143.59 493.69,-106.54 522.42,-86.83"/>
<polygon fill="#63b8ff" stroke="#63b8ff" points="524.11,-89.91 530.48,-81.44 520.23,-84.09 524.11,-89.91"/>
</a>
</g>
</g>
<!-- Node19&#45;&gt;Node6 -->
<g id="edge32_Node000019_Node000006" class="edge">
<title>Node19&#45;&gt;Node6</title>
<g id="a_edge32_Node000019_Node000006"><a xlink:title=" ">
<path fill="none" stroke="#63b8ff" d="M625.99,-436.9C579.09,-427.35 503.94,-411.55 439.5,-395.75 436.58,-395.03 433.56,-394.27 430.53,-393.49"/>
<polygon fill="#63b8ff" stroke="#63b8ff" points="431.63,-390.16 421.07,-390.98 429.84,-396.92 431.63,-390.16"/>
</a>
</g>
</g>
<!-- Node20 -->
<g id="Node000020" class="node">
<title>Node20</title>
<g id="a_Node000020"><a xlink:href="f__pc__create__iter_8h.html" target="_top" xlink:title=" ">
<polygon fill="white" stroke="#666666" points="1119,-146.62 1004,-146.62 1004,-127.38 1119,-127.38 1119,-146.62"/>
<text text-anchor="middle" x="1061.5" y="-133.12" font-family="Helvetica,sans-Serif" font-size="10.00">f_pc/f_pc_create_iter.h</text>
</a>
</g>
</g>
<!-- Node19&#45;&gt;Node20 -->
<g id="edge26_Node000019_Node000020" class="edge">
<title>Node19&#45;&gt;Node20</title>
<g id="a_edge26_Node000019_Node000020"><a xlink:title=" ">
<path fill="none" stroke="#63b8ff" d="M725.18,-440.34C833.18,-427.44 1066.5,-391.4 1066.5,-320.62 1066.5,-320.62 1066.5,-320.62 1066.5,-263.38 1066.5,-226.44 1064.31,-183.44 1062.83,-158.61"/>
<polygon fill="#63b8ff" stroke="#63b8ff" points="1066.32,-158.39 1062.21,-148.63 1059.33,-158.83 1066.32,-158.39"/>
</a>
</g>
</g>
<!-- Node21 -->
<g id="Node000021" class="node">
<title>Node21</title>
<g id="a_Node000021"><a xlink:href="f__pc__executor_8h.html" target="_top" xlink:title=" ">
<polygon fill="white" stroke="#666666" points="915.5,-390.12 809.5,-390.12 809.5,-370.88 915.5,-370.88 915.5,-390.12"/>
<text text-anchor="middle" x="862.5" y="-376.62" font-family="Helvetica,sans-Serif" font-size="10.00">f_pc/f_pc_executor.h</text>
</a>
</g>
</g>
<!-- Node19&#45;&gt;Node21 -->
<g id="edge28_Node000019_Node000021" class="edge">
<title>Node19&#45;&gt;Node21</title>
<g id="a_edge28_Node000019_Node000021"><a xlink:title=" ">
<path fill="none" stroke="#63b8ff" d="M698.46,-436.9C731.59,-425.71 787.99,-406.66 825.24,-394.08"/>
<polygon fill="#63b8ff" stroke="#63b8ff" points="825.89,-397.56 834.24,-391.04 823.65,-390.93 825.89,-397.56"/>
</a>
</g>
</g>
<!-- Node24 -->
<g id="Node000024" class="node">
<title>Node24</title>
<g id="a_Node000024"><a xlink:href="f__pc__node_8h.html" target="_top" xlink:title=" ">
<polygon fill="white" stroke="#666666" points="658.62,-390.12 568.38,-390.12 568.38,-370.88 658.62,-370.88 658.62,-390.12"/>
<text text-anchor="middle" x="613.5" y="-376.62" font-family="Helvetica,sans-Serif" font-size="10.00">f_pc/f_pc_node.h</text>
</a>
</g>
</g>
<!-- Node19&#45;&gt;Node24 -->
<g id="edge33_Node000019_Node000024" class="edge">
<title>Node19&#45;&gt;Node24</title>
<g id="a_edge33_Node000019_Node000024"><a xlink:title=" ">
<path fill="none" stroke="#63b8ff" d="M663.44,-437.03C654.61,-427.21 640.23,-411.23 629.17,-398.92"/>
<polygon fill="#63b8ff" stroke="#63b8ff" points="631.8,-396.61 622.51,-391.52 626.59,-401.29 631.8,-396.61"/>
</a>
</g>
</g>
<!-- Node28 -->
<g id="Node000028" class="node">
<title>Node28</title>
<g id="a_Node000028"><a xlink:href="f__pc__stdcreate__req_8h.html" target="_top" xlink:title=" ">
<polygon fill="white" stroke="#666666" points="550.62,-395.75 448.38,-395.75 448.38,-365.25 550.62,-365.25 550.62,-395.75"/>
<text text-anchor="start" x="456.38" y="-382.25" font-family="Helvetica,sans-Serif" font-size="10.00">f_pc/f_pc_stdcreate</text>
<text text-anchor="middle" x="499.5" y="-371" font-family="Helvetica,sans-Serif" font-size="10.00">_req.h</text>
</a>
</g>
</g>
<!-- Node19&#45;&gt;Node28 -->
<g id="edge42_Node000019_Node000028" class="edge">
<title>Node19&#45;&gt;Node28</title>
<g id="a_edge42_Node000019_Node000028"><a xlink:title=" ">
<path fill="none" stroke="#63b8ff" d="M647.22,-436.9C621.85,-427.38 581.32,-412.18 549.13,-400.11"/>
<polygon fill="#63b8ff" stroke="#63b8ff" points="550.57,-396.91 539.98,-396.68 548.12,-403.47 550.57,-396.91"/>
</a>
</g>
</g>
<!-- Node32 -->
<g id="Node000032" class="node">
<title>Node32</title>
<g id="a_Node000032"><a xlink:href="f__pc__searcher_8h.html" target="_top" xlink:title=" ">
<polygon fill="white" stroke="#666666" points="783.88,-390.12 677.12,-390.12 677.12,-370.88 783.88,-370.88 783.88,-390.12"/>
<text text-anchor="middle" x="730.5" y="-376.62" font-family="Helvetica,sans-Serif" font-size="10.00">f_pc/f_pc_searcher.h</text>
</a>
</g>
</g>
<!-- Node19&#45;&gt;Node32 -->
<g id="edge51_Node000019_Node000032" class="edge">
<title>Node19&#45;&gt;Node32</title>
<g id="a_edge51_Node000019_Node000032"><a xlink:title=" ">
<path fill="none" stroke="#63b8ff" d="M679.7,-437.03C688.77,-427.12 703.6,-410.91 714.89,-398.56"/>
<polygon fill="#63b8ff" stroke="#63b8ff" points="717.18,-401.25 721.34,-391.51 712.01,-396.53 717.18,-401.25"/>
</a>
</g>
</g>
<!-- Node20&#45;&gt;Node3 -->
<g id="edge27_Node000020_Node000003" class="edge">
<title>Node20&#45;&gt;Node3</title>
<g id="a_edge27_Node000020_Node000003"><a xlink:title=" ">
<path fill="none" stroke="#63b8ff" d="M1018.58,-126.89C1009.04,-125.04 998.94,-123.21 989.5,-121.75 846.75,-99.71 810,-102.27 666.5,-85.75 644.17,-83.18 619.5,-80.26 598.38,-77.74"/>
<polygon fill="#63b8ff" stroke="#63b8ff" points="598.89,-74.28 588.54,-76.57 598.06,-81.23 598.89,-74.28"/>
</a>
</g>
</g>
<!-- Node22 -->
<g id="Node000022" class="node">
<title>Node22</title>
<g id="a_Node000022"><a xlink:href="f__pc__layer__iter_8h.html" target="_top" xlink:title=" ">
<polygon fill="white" stroke="#666666" points="916.62,-329.25 808.38,-329.25 808.38,-310 916.62,-310 916.62,-329.25"/>
<text text-anchor="middle" x="862.5" y="-315.75" font-family="Helvetica,sans-Serif" font-size="10.00">f_pc/f_pc_layer_iter.h</text>
</a>
</g>
</g>
<!-- Node21&#45;&gt;Node22 -->
<g id="edge29_Node000021_Node000022" class="edge">
<title>Node21&#45;&gt;Node22</title>
<g id="a_edge29_Node000021_Node000022"><a xlink:title=" ">
<path fill="none" stroke="#63b8ff" d="M862.5,-370.56C862.5,-362.78 862.5,-351.2 862.5,-341.16"/>
<polygon fill="#63b8ff" stroke="#63b8ff" points="866,-341.16 862.5,-331.16 859,-341.16 866,-341.16"/>
</a>
</g>
</g>
<!-- Node23 -->
<g id="Node000023" class="node">
<title>Node23</title>
<g id="a_Node000023"><a xlink:href="f__pc__line__iter_8h.html" target="_top" xlink:title=" ">
<polygon fill="white" stroke="#666666" points="1038,-329.25 935,-329.25 935,-310 1038,-310 1038,-329.25"/>
<text text-anchor="middle" x="986.5" y="-315.75" font-family="Helvetica,sans-Serif" font-size="10.00">f_pc/f_pc_line_iter.h</text>
</a>
</g>
</g>
<!-- Node21&#45;&gt;Node23 -->
<g id="edge31_Node000021_Node000023" class="edge">
<title>Node21&#45;&gt;Node23</title>
<g id="a_edge31_Node000021_Node000023"><a xlink:title=" ">
<path fill="none" stroke="#63b8ff" d="M881.6,-370.43C901.78,-360.85 933.84,-345.63 957.21,-334.53"/>
<polygon fill="#63b8ff" stroke="#63b8ff" points="958.68,-337.71 966.21,-330.26 955.68,-331.39 958.68,-337.71"/>
</a>
</g>
</g>
<!-- Node22&#45;&gt;Node3 -->
<g id="edge30_Node000022_Node000003" class="edge">
<title>Node22&#45;&gt;Node3</title>
<g id="a_edge30_Node000022_Node000003"><a xlink:title=" ">
<path fill="none" stroke="#63b8ff" d="M887.01,-309.62C903.05,-302.44 923.09,-290.78 934.5,-274 972.96,-217.47 1001.81,-172.95 956.5,-121.75 955.76,-120.92 708.52,-91.03 598.38,-77.75"/>
<polygon fill="#63b8ff" stroke="#63b8ff" points="599.07,-74.31 588.73,-76.58 598.24,-81.26 599.07,-74.31"/>
</a>
</g>
</g>
<!-- Node24&#45;&gt;Node7 -->
<g id="edge34_Node000024_Node000007" class="edge">
<title>Node24&#45;&gt;Node7</title>
<g id="a_edge34_Node000024_Node000007"><a xlink:title=" ">
<path fill="none" stroke="#63b8ff" d="M613.5,-370.56C613.5,-362.78 613.5,-351.2 613.5,-341.16"/>
<polygon fill="#63b8ff" stroke="#63b8ff" points="617,-341.16 613.5,-331.16 610,-341.16 617,-341.16"/>
</a>
</g>
</g>
<!-- Node24&#45;&gt;Node16 -->
<g id="edge40_Node000024_Node000016" class="edge">
<title>Node24&#45;&gt;Node16</title>
<g id="a_edge40_Node000024_Node000016"><a xlink:title=" ">
<path fill="none" stroke="#63b8ff" d="M595.43,-370.48C565.28,-355.78 502.5,-326.62 446.5,-310 362.01,-284.93 327.77,-318.15 251.5,-274 230.38,-261.77 213.29,-239.05 203.05,-222.92"/>
<polygon fill="#63b8ff" stroke="#63b8ff" points="206.27,-221.5 198.11,-214.75 200.28,-225.12 206.27,-221.5"/>
</a>
</g>
</g>
<!-- Node24&#45;&gt;Node17 -->
<g id="edge41_Node000024_Node000017" class="edge">
<title>Node24&#45;&gt;Node17</title>
<g id="a_edge41_Node000024_Node000017"><a xlink:title=" ">
<path fill="none" stroke="#63b8ff" d="M579.14,-370.43C540.76,-360.3 478.45,-343.84 436.03,-332.64"/>
<polygon fill="#63b8ff" stroke="#63b8ff" points="436.92,-329.26 426.36,-330.09 435.13,-336.03 436.92,-329.26"/>
</a>
</g>
</g>
<!-- Node25 -->
<g id="Node000025" class="node">
<title>Node25</title>
<g id="a_Node000025"><a xlink:href="f__pc__layer_8h.html" target="_top" xlink:title=" ">
<polygon fill="white" stroke="#666666" points="908.25,-213.12 818.75,-213.12 818.75,-193.88 908.25,-193.88 908.25,-213.12"/>
<text text-anchor="middle" x="863.5" y="-199.62" font-family="Helvetica,sans-Serif" font-size="10.00">f_pc/f_pc_layer.h</text>
</a>
</g>
</g>
<!-- Node24&#45;&gt;Node25 -->
<g id="edge35_Node000024_Node000025" class="edge">
<title>Node24&#45;&gt;Node25</title>
<g id="a_edge35_Node000024_Node000025"><a xlink:title=" ">
<path fill="none" stroke="#63b8ff" d="M636.24,-370.47C671.12,-356.73 740.06,-330.07 799.5,-310 851.85,-292.32 885.57,-318.37 918.5,-274 932.61,-254.99 909.9,-233.73 889.53,-219.79"/>
<polygon fill="#63b8ff" stroke="#63b8ff" points="891.46,-216.87 881.16,-214.4 887.67,-222.76 891.46,-216.87"/>
</a>
</g>
</g>
<!-- Node25&#45;&gt;Node3 -->
<g id="edge39_Node000025_Node000003" class="edge">
<title>Node25&#45;&gt;Node3</title>
<g id="a_edge39_Node000025_Node000003"><a xlink:title=" ">
<path fill="none" stroke="#63b8ff" d="M846.96,-193.45C830.02,-183.93 803.17,-168.16 781.5,-152.25 764.87,-140.04 764.79,-131.31 746.5,-121.75 699.66,-97.28 640.33,-84.32 598.5,-77.73"/>
<polygon fill="#63b8ff" stroke="#63b8ff" points="599.09,-74.28 588.69,-76.26 598.06,-81.21 599.09,-74.28"/>
</a>
</g>
</g>
<!-- Node25&#45;&gt;Node10 -->
<g id="edge37_Node000025_Node000010" class="edge">
<title>Node25&#45;&gt;Node10</title>
<g id="a_edge37_Node000025_Node000010"><a xlink:title=" ">
<path fill="none" stroke="#63b8ff" d="M854.5,-193.5C834.19,-173.19 784.31,-123.31 755,-94"/>
<polygon fill="#63b8ff" stroke="#63b8ff" points="757.59,-91.64 748.04,-87.04 752.64,-96.59 757.59,-91.64"/>
</a>
</g>
</g>
<!-- Node26 -->
<g id="Node000026" class="node">
<title>Node26</title>
<g id="a_Node000026"><a xlink:href="c__list_8h.html" target="_top" xlink:title=" ">
<polygon fill="white" stroke="#666666" points="737,-152.25 622,-152.25 622,-121.75 737,-121.75 737,-152.25"/>
<text text-anchor="start" x="630" y="-138.75" font-family="Helvetica,sans-Serif" font-size="10.00">SSystem/SComponent</text>
<text text-anchor="middle" x="679.5" y="-127.5" font-family="Helvetica,sans-Serif" font-size="10.00">/c_list.h</text>
</a>
</g>
</g>
<!-- Node25&#45;&gt;Node26 -->
<g id="edge36_Node000025_Node000026" class="edge">
<title>Node25&#45;&gt;Node26</title>
<g id="a_edge36_Node000025_Node000026"><a xlink:title=" ">
<path fill="none" stroke="#63b8ff" d="M837.53,-193.4C810.26,-183.84 766.65,-168.55 732.14,-156.45"/>
<polygon fill="#63b8ff" stroke="#63b8ff" points="733.31,-153.15 722.72,-153.15 731,-159.76 733.31,-153.15"/>
</a>
</g>
</g>
<!-- Node27 -->
<g id="Node000027" class="node">
<title>Node27</title>
<g id="a_Node000027"><a xlink:href="c__tree_8h.html" target="_top" xlink:title=" ">
<polygon fill="white" stroke="#666666" points="947,-152.25 832,-152.25 832,-121.75 947,-121.75 947,-152.25"/>
<text text-anchor="start" x="840" y="-138.75" font-family="Helvetica,sans-Serif" font-size="10.00">SSystem/SComponent</text>
<text text-anchor="middle" x="889.5" y="-127.5" font-family="Helvetica,sans-Serif" font-size="10.00">/c_tree.h</text>
</a>
</g>
</g>
<!-- Node25&#45;&gt;Node27 -->
<g id="edge38_Node000025_Node000027" class="edge">
<title>Node25&#45;&gt;Node27</title>
<g id="a_edge38_Node000025_Node000027"><a xlink:title=" ">
<path fill="none" stroke="#63b8ff" d="M867.12,-193.53C870.3,-185.62 875.11,-173.7 879.45,-162.93"/>
<polygon fill="#63b8ff" stroke="#63b8ff" points="882.66,-164.33 883.15,-153.75 876.17,-161.71 882.66,-164.33"/>
</a>
</g>
</g>
<!-- Node29 -->
<g id="Node000029" class="node">
<title>Node29</title>
<g id="a_Node000029"><a xlink:href="f__pc__create__req_8h.html" target="_top" xlink:title=" ">
<polygon fill="white" stroke="#666666" points="376,-274 261,-274 261,-254.75 376,-254.75 376,-274"/>
<text text-anchor="middle" x="318.5" y="-260.5" font-family="Helvetica,sans-Serif" font-size="10.00">f_pc/f_pc_create_req.h</text>
</a>
</g>
</g>
<!-- Node28&#45;&gt;Node29 -->
<g id="edge43_Node000028_Node000029" class="edge">
<title>Node28&#45;&gt;Node29</title>
<g id="a_edge43_Node000028_Node000029"><a xlink:title=" ">
<path fill="none" stroke="#63b8ff" d="M448.19,-366.59C402.82,-354.74 342.6,-337.77 334.5,-329.25 323.4,-317.58 319.67,-299.41 318.56,-285.43"/>
<polygon fill="#63b8ff" stroke="#63b8ff" points="322.07,-285.45 318.2,-275.59 315.07,-285.71 322.07,-285.45"/>
</a>
</g>
</g>
<!-- Node29&#45;&gt;Node14 -->
<g id="edge50_Node000029_Node000014" class="edge">
<title>Node29&#45;&gt;Node14</title>
<g id="a_edge50_Node000029_Node000014"><a xlink:title=" ">
<path fill="none" stroke="#63b8ff" d="M368.91,-254.25C417.32,-245.42 492.47,-231.53 557.5,-218.75 562.16,-217.83 566.99,-216.87 571.84,-215.89"/>
<polygon fill="#63b8ff" stroke="#63b8ff" points="572.51,-219.32 581.61,-213.9 571.11,-212.46 572.51,-219.32"/>
</a>
</g>
</g>
<!-- Node29&#45;&gt;Node16 -->
<g id="edge49_Node000029_Node000016" class="edge">
<title>Node29&#45;&gt;Node16</title>
<g id="a_edge49_Node000029_Node000016"><a xlink:title=" ">
<path fill="none" stroke="#63b8ff" d="M299.09,-254.3C278.5,-244.68 245.72,-229.37 221.94,-218.26"/>
<polygon fill="#63b8ff" stroke="#63b8ff" points="223.64,-215.19 213.1,-214.12 220.68,-221.53 223.64,-215.19"/>
</a>
</g>
</g>
<!-- Node30 -->
<g id="Node000030" class="node">
<title>Node30</title>
<g id="a_Node000030"><a xlink:href="c__phase_8h.html" target="_top" xlink:title=" ">
<polygon fill="white" stroke="#666666" points="376,-218.75 261,-218.75 261,-188.25 376,-188.25 376,-218.75"/>
<text text-anchor="start" x="269" y="-205.25" font-family="Helvetica,sans-Serif" font-size="10.00">SSystem/SComponent</text>
<text text-anchor="middle" x="318.5" y="-194" font-family="Helvetica,sans-Serif" font-size="10.00">/c_phase.h</text>
</a>
</g>
</g>
<!-- Node29&#45;&gt;Node30 -->
<g id="edge44_Node000029_Node000030" class="edge">
<title>Node29&#45;&gt;Node30</title>
<g id="a_edge44_Node000029_Node000030"><a xlink:title=" ">
<path fill="none" stroke="#63b8ff" d="M318.5,-254.43C318.5,-247.98 318.5,-238.91 318.5,-230.26"/>
<polygon fill="#63b8ff" stroke="#63b8ff" points="322,-230.55 318.5,-220.55 315,-230.55 322,-230.55"/>
</a>
</g>
</g>
<!-- Node31 -->
<g id="Node000031" class="node">
<title>Node31</title>
<g id="a_Node000031"><a xlink:href="f__pc__create__tag_8h.html" target="_top" xlink:title=" ">
<polygon fill="white" stroke="#666666" points="548,-213.12 433,-213.12 433,-193.88 548,-193.88 548,-213.12"/>
<text text-anchor="middle" x="490.5" y="-199.62" font-family="Helvetica,sans-Serif" font-size="10.00">f_pc/f_pc_create_tag.h</text>
</a>
</g>
</g>
<!-- Node29&#45;&gt;Node31 -->
<g id="edge46_Node000029_Node000031" class="edge">
<title>Node29&#45;&gt;Node31</title>
<g id="a_edge46_Node000029_Node000031"><a xlink:title=" ">
<path fill="none" stroke="#63b8ff" d="M345,-254.3C374.04,-244.36 420.83,-228.35 453.49,-217.17"/>
<polygon fill="#63b8ff" stroke="#63b8ff" points="454.21,-220.62 462.54,-214.07 451.95,-214 454.21,-220.62"/>
</a>
</g>
</g>
<!-- Node30&#45;&gt;Node3 -->
<g id="edge45_Node000030_Node000003" class="edge">
<title>Node30&#45;&gt;Node3</title>
<g id="a_edge45_Node000030_Node000003"><a xlink:title=" ">
<path fill="none" stroke="#63b8ff" d="M327.92,-187.82C340.23,-169.77 363.43,-139.38 390.5,-121.75 422.18,-101.13 462.98,-88.38 494.91,-80.88"/>
<polygon fill="#63b8ff" stroke="#63b8ff" points="495.34,-84.37 504.33,-78.78 493.81,-77.54 495.34,-84.37"/>
</a>
</g>
</g>
<!-- Node31&#45;&gt;Node9 -->
<g id="edge48_Node000031_Node000009" class="edge">
<title>Node31&#45;&gt;Node9</title>
<g id="a_edge48_Node000031_Node000009"><a xlink:title=" ">
<path fill="none" stroke="#63b8ff" d="M498.29,-193.53C505.59,-185.12 516.82,-172.18 526.61,-160.91"/>
<polygon fill="#63b8ff" stroke="#63b8ff" points="529.14,-163.33 533.05,-153.49 523.85,-158.74 529.14,-163.33"/>
</a>
</g>
</g>
<!-- Node31&#45;&gt;Node26 -->
<g id="edge47_Node000031_Node000026" class="edge">
<title>Node31&#45;&gt;Node26</title>
<g id="a_edge47_Node000031_Node000026"><a xlink:title=" ">
<path fill="none" stroke="#63b8ff" d="M517.18,-193.4C545.3,-183.8 590.37,-168.42 625.89,-156.3"/>
<polygon fill="#63b8ff" stroke="#63b8ff" points="626.81,-159.68 635.14,-153.14 624.55,-153.06 626.81,-159.68"/>
</a>
</g>
</g>
<!-- Node32&#45;&gt;Node7 -->
<g id="edge52_Node000032_Node000007" class="edge">
<title>Node32&#45;&gt;Node7</title>
<g id="a_edge52_Node000032_Node000007"><a xlink:title=" ">
<path fill="none" stroke="#63b8ff" d="M712.48,-370.43C693.53,-360.89 663.46,-345.77 641.44,-334.68"/>
<polygon fill="#63b8ff" stroke="#63b8ff" points="643.21,-331.66 632.71,-330.29 640.06,-337.91 643.21,-331.66"/>
</a>
</g>
</g>
<!-- Node32&#45;&gt;Node22 -->
<g id="edge53_Node000032_Node000022" class="edge">
<title>Node32&#45;&gt;Node22</title>
<g id="a_edge53_Node000032_Node000022"><a xlink:title=" ">
<path fill="none" stroke="#63b8ff" d="M750.84,-370.43C772.51,-360.76 807.06,-345.35 831.99,-334.23"/>
<polygon fill="#63b8ff" stroke="#63b8ff" points="833.27,-337.5 840.98,-330.23 830.42,-331.1 833.27,-337.5"/>
</a>
</g>
</g>
</g>
</svg>
