<?xml version="1.0" encoding="UTF-8" standalone="no"?>
<!DOCTYPE svg PUBLIC "-//W3C//DTD SVG 1.1//EN"
 "http://www.w3.org/Graphics/SVG/1.1/DTD/svg11.dtd">
<!-- Generated by graphviz version 7.0.5 (20221223.1930)
 -->
<!-- Title: src/f_op/f_op_actor.cpp Pages: 1 -->
<svg width="3740pt" height="390pt"
 viewBox="0.00 0.00 3740.24 390.00" xmlns="http://www.w3.org/2000/svg" xmlns:xlink="http://www.w3.org/1999/xlink">
<g id="graph0" class="graph" transform="scale(1 1) rotate(0) translate(4 386)">
<title>src/f_op/f_op_actor.cpp</title>
<!-- Node1 -->
<g id="node1" class="node">
<title>Node1</title>
<g id="a_node1"><a xlink:title=" ">
<polygon fill="#999999" stroke="#666666" points="2214.96,-382 2095.96,-382 2095.96,-363 2214.96,-363 2214.96,-382"/>
<text text-anchor="middle" x="2155.46" y="-370" font-family="Helvetica,sans-Serif" font-size="10.00">src/f_op/f_op_actor.cpp</text>
</a>
</g>
</g>
<!-- Node2 -->
<g id="node2" class="node">
<title>Node2</title>
<g id="a_node2"><a xlink:href="f__op__actor_8h.html" target="_top" xlink:title=" ">
<polygon fill="white" stroke="#666666" points="380.46,-134.5 288.46,-134.5 288.46,-115.5 380.46,-115.5 380.46,-134.5"/>
<text text-anchor="middle" x="334.46" y="-122.5" font-family="Helvetica,sans-Serif" font-size="10.00">f_op/f_op_actor.h</text>
</a>
</g>
</g>
<!-- Node1&#45;&gt;Node2 -->
<g id="edge1" class="edge">
<title>Node1&#45;&gt;Node2</title>
<path fill="none" stroke="#63b8ff" d="M2095.64,-371.13C1781.51,-368.57 331.9,-349.04 200.46,-206 171.05,-174.01 231.08,-150.7 280.02,-137.76"/>
<polygon fill="#63b8ff" stroke="#63b8ff" points="280.59,-141.22 289.43,-135.37 278.87,-134.44 280.59,-141.22"/>
</g>
<!-- Node111 -->
<g id="node6" class="node">
<title>Node111</title>
<g id="a_node6"><a xlink:href="d__a__alink_8h.html" target="_top" xlink:title=" ">
<polygon fill="white" stroke="#666666" points="1508.46,-266.5 1426.46,-266.5 1426.46,-247.5 1508.46,-247.5 1508.46,-266.5"/>
<text text-anchor="middle" x="1467.46" y="-254.5" font-family="Helvetica,sans-Serif" font-size="10.00">d/a/d_a_alink.h</text>
</a>
</g>
</g>
<!-- Node1&#45;&gt;Node111 -->
<g id="edge6" class="edge">
<title>Node1&#45;&gt;Node111</title>
<path fill="none" stroke="#63b8ff" d="M2151.06,-362.6C2143.41,-348.23 2126.18,-320.26 2102.46,-308 2051.33,-281.58 1663.55,-265.07 1520.36,-259.82"/>
<polygon fill="#63b8ff" stroke="#63b8ff" points="1520.51,-256.32 1510.39,-259.46 1520.26,-263.32 1520.51,-256.32"/>
</g>
<!-- Node178 -->
<g id="node27" class="node">
<title>Node178</title>
<g id="a_node27"><a xlink:href="f__pc__manager_8h.html" target="_top" xlink:title=" ">
<polygon fill="#fff0f0" stroke="red" points="148.96,-134.5 41.96,-134.5 41.96,-115.5 148.96,-115.5 148.96,-134.5"/>
<text text-anchor="middle" x="95.46" y="-122.5" font-family="Helvetica,sans-Serif" font-size="10.00">f_pc/f_pc_manager.h</text>
</a>
</g>
</g>
<!-- Node1&#45;&gt;Node178 -->
<g id="edge76" class="edge">
<title>Node1&#45;&gt;Node178</title>
<path fill="none" stroke="#63b8ff" d="M2095.59,-371.38C1754.25,-370.56 67.89,-364.6 30.46,-327 -16.9,-279.44 -1.63,-236 28.46,-176 36.2,-160.55 51.24,-148.65 65.11,-140.35"/>
<polygon fill="#63b8ff" stroke="#63b8ff" points="66.51,-143.58 73.56,-135.67 63.12,-137.45 66.51,-143.58"/>
</g>
<!-- Node194 -->
<g id="node30" class="node">
<title>Node194</title>
<g id="a_node30"><a xlink:href="d__com__inf__actor_8h.html" target="_top" xlink:title=" ">
<polygon fill="white" stroke="#666666" points="2093.46,-327 1967.46,-327 1967.46,-308 2093.46,-308 2093.46,-327"/>
<text text-anchor="middle" x="2030.46" y="-315" font-family="Helvetica,sans-Serif" font-size="10.00">d/com/d_com_inf_actor.h</text>
</a>
</g>
</g>
<!-- Node1&#45;&gt;Node194 -->
<g id="edge41" class="edge">
<title>Node1&#45;&gt;Node194</title>
<path fill="none" stroke="#63b8ff" d="M2134.25,-362.51C2114.38,-354.08 2084.42,-341.38 2061.79,-331.79"/>
<polygon fill="#63b8ff" stroke="#63b8ff" points="2063.31,-328.63 2052.74,-327.95 2060.58,-335.07 2063.31,-328.63"/>
</g>
<!-- Node195 -->
<g id="node31" class="node">
<title>Node195</title>
<g id="a_node31"><a xlink:href="d__com__inf__game_8h.html" target="_top" xlink:title=" ">
<polygon fill="white" stroke="#666666" points="2763.46,-266.5 2635.46,-266.5 2635.46,-247.5 2763.46,-247.5 2763.46,-266.5"/>
<text text-anchor="middle" x="2699.46" y="-254.5" font-family="Helvetica,sans-Serif" font-size="10.00">d/com/d_com_inf_game.h</text>
</a>
</g>
</g>
<!-- Node1&#45;&gt;Node195 -->
<g id="edge42" class="edge">
<title>Node1&#45;&gt;Node195</title>
<path fill="none" stroke="#63b8ff" d="M2198.14,-362.59C2296.24,-342.13 2537.58,-291.77 2645.63,-269.23"/>
<polygon fill="#63b8ff" stroke="#63b8ff" points="2646.04,-272.72 2655.11,-267.25 2644.61,-265.87 2646.04,-272.72"/>
</g>
<!-- Node219 -->
<g id="node39" class="node">
<title>Node219</title>
<g id="a_node39"><a xlink:href="d__com__static_8h.html" target="_top" xlink:title=" ">
<polygon fill="white" stroke="#666666" points="152.96,-327 39.96,-327 39.96,-308 152.96,-308 152.96,-327"/>
<text text-anchor="middle" x="96.46" y="-315" font-family="Helvetica,sans-Serif" font-size="10.00">d/com/d_com_static.h</text>
</a>
</g>
</g>
<!-- Node1&#45;&gt;Node219 -->
<g id="edge59" class="edge">
<title>Node1&#45;&gt;Node219</title>
<path fill="none" stroke="#63b8ff" d="M2095.5,-370.94C1806.64,-368.13 556.37,-354.57 167.46,-327 166.45,-326.93 165.44,-326.85 164.43,-326.78"/>
<polygon fill="#63b8ff" stroke="#63b8ff" points="165.15,-323.33 154.88,-325.94 164.54,-330.3 165.15,-323.33"/>
</g>
<!-- Node221 -->
<g id="node41" class="node">
<title>Node221</title>
<g id="a_node41"><a xlink:href="d__demo_8h.html" target="_top" xlink:title=" ">
<polygon fill="white" stroke="#666666" points="3353.96,-200.5 3286.96,-200.5 3286.96,-181.5 3353.96,-181.5 3353.96,-200.5"/>
<text text-anchor="middle" x="3320.46" y="-188.5" font-family="Helvetica,sans-Serif" font-size="10.00">d/d_demo.h</text>
</a>
</g>
</g>
<!-- Node1&#45;&gt;Node221 -->
<g id="edge62" class="edge">
<title>Node1&#45;&gt;Node221</title>
<path fill="none" stroke="#63b8ff" d="M2213.63,-362.54C2417.09,-331.19 3094.26,-226.85 3275.51,-198.93"/>
<polygon fill="#63b8ff" stroke="#63b8ff" points="3275.87,-202.41 3285.22,-197.43 3274.81,-195.49 3275.87,-202.41"/>
</g>
<!-- Node249 -->
<g id="node47" class="node">
<title>Node249</title>
<g id="a_node47"><a xlink:href="d__s__play_8h.html" target="_top" xlink:title=" ">
<polygon fill="white" stroke="#666666" points="2228.96,-327 2149.96,-327 2149.96,-308 2228.96,-308 2228.96,-327"/>
<text text-anchor="middle" x="2189.46" y="-315" font-family="Helvetica,sans-Serif" font-size="10.00">d/s/d_s_play.h</text>
</a>
</g>
</g>
<!-- Node1&#45;&gt;Node249 -->
<g id="edge71" class="edge">
<title>Node1&#45;&gt;Node249</title>
<path fill="none" stroke="#63b8ff" d="M2161.07,-362.75C2165.57,-355.73 2172.04,-345.64 2177.67,-336.87"/>
<polygon fill="#63b8ff" stroke="#63b8ff" points="2180.45,-339.02 2182.9,-328.72 2174.56,-335.24 2180.45,-339.02"/>
</g>
<!-- Node252 -->
<g id="node49" class="node">
<title>Node252</title>
<g id="a_node49"><a xlink:href="f__op__actor__tag_8h.html" target="_top" xlink:title=" ">
<polygon fill="#fff0f0" stroke="red" points="2929.46,-327 2819.46,-327 2819.46,-308 2929.46,-308 2929.46,-327"/>
<text text-anchor="middle" x="2874.46" y="-315" font-family="Helvetica,sans-Serif" font-size="10.00">f_op/f_op_actor_tag.h</text>
</a>
</g>
</g>
<!-- Node1&#45;&gt;Node252 -->
<g id="edge74" class="edge">
<title>Node1&#45;&gt;Node252</title>
<path fill="none" stroke="#63b8ff" d="M2215.14,-368.5C2329.73,-362.5 2588.43,-347.78 2805.46,-327 2806.29,-326.92 2807.13,-326.84 2807.97,-326.75"/>
<polygon fill="#63b8ff" stroke="#63b8ff" points="2808.04,-330.27 2817.62,-325.74 2807.31,-323.31 2808.04,-330.27"/>
</g>
<!-- Node253 -->
<g id="node50" class="node">
<title>Node253</title>
<g id="a_node50"><a xlink:href="f__op__draw__tag_8h.html" target="_top" xlink:title=" ">
<polygon fill="#fff0f0" stroke="red" points="3057.46,-327 2947.46,-327 2947.46,-308 3057.46,-308 3057.46,-327"/>
<text text-anchor="middle" x="3002.46" y="-315" font-family="Helvetica,sans-Serif" font-size="10.00">f_op/f_op_draw_tag.h</text>
</a>
</g>
</g>
<!-- Node1&#45;&gt;Node253 -->
<g id="edge75" class="edge">
<title>Node1&#45;&gt;Node253</title>
<path fill="none" stroke="#63b8ff" d="M2215,-369.65C2344.22,-365.29 2660.25,-352.86 2935.56,-327.2"/>
<polygon fill="#63b8ff" stroke="#63b8ff" points="2935.85,-330.69 2945.47,-326.27 2935.19,-323.72 2935.85,-330.69"/>
</g>
<!-- Node3 -->
<g id="node3" class="node">
<title>Node3</title>
<g id="a_node3"><a xlink:href="d__kankyo_8h.html" target="_top" xlink:title=" ">
<polygon fill="#fff0f0" stroke="red" points="2376.96,-74 2269.96,-74 2269.96,-55 2376.96,-55 2376.96,-74"/>
<text text-anchor="middle" x="2323.46" y="-62" font-family="Helvetica,sans-Serif" font-size="10.00">d/kankyo/d_kankyo.h</text>
</a>
</g>
</g>
<!-- Node2&#45;&gt;Node3 -->
<g id="edge2" class="edge">
<title>Node2&#45;&gt;Node3</title>
<path fill="none" stroke="#63b8ff" d="M380.69,-122.64C643.72,-114.9 1950.51,-76.47 2258.4,-67.41"/>
<polygon fill="#63b8ff" stroke="#63b8ff" points="2258.37,-70.92 2268.26,-67.12 2258.16,-63.92 2258.37,-70.92"/>
</g>
<!-- Node13 -->
<g id="node4" class="node">
<title>Node13</title>
<g id="a_node4"><a xlink:href="global_8h.html" target="_top" xlink:title=" ">
<polygon fill="#fff0f0" stroke="red" points="2947.46,-19 2897.46,-19 2897.46,0 2947.46,0 2947.46,-19"/>
<text text-anchor="middle" x="2922.46" y="-7" font-family="Helvetica,sans-Serif" font-size="10.00">global.h</text>
</a>
</g>
</g>
<!-- Node2&#45;&gt;Node13 -->
<g id="edge5" class="edge">
<title>Node2&#45;&gt;Node13</title>
<path fill="none" stroke="#63b8ff" d="M380.92,-120.92C541.39,-110.35 1087.19,-75.18 1538.46,-55 2073.83,-31.06 2726.25,-15.07 2885.92,-11.34"/>
<polygon fill="#63b8ff" stroke="#63b8ff" points="2885.54,-14.85 2895.46,-11.12 2885.38,-7.85 2885.54,-14.85"/>
</g>
<!-- Node99 -->
<g id="node5" class="node">
<title>Node99</title>
<g id="a_node5"><a xlink:href="f__pc__leaf_8h.html" target="_top" xlink:title=" ">
<polygon fill="#fff0f0" stroke="red" points="289.46,-74 203.46,-74 203.46,-55 289.46,-55 289.46,-74"/>
<text text-anchor="middle" x="246.46" y="-62" font-family="Helvetica,sans-Serif" font-size="10.00">f_pc/f_pc_leaf.h</text>
</a>
</g>
</g>
<!-- Node2&#45;&gt;Node99 -->
<g id="edge4" class="edge">
<title>Node2&#45;&gt;Node99</title>
<path fill="none" stroke="#63b8ff" d="M321.09,-115.12C307.39,-106.01 285.83,-91.68 269.4,-80.75"/>
<polygon fill="#63b8ff" stroke="#63b8ff" points="271.47,-77.93 261.21,-75.31 267.6,-83.76 271.47,-77.93"/>
</g>
<!-- Node3&#45;&gt;Node13 -->
<g id="edge3" class="edge">
<title>Node3&#45;&gt;Node13</title>
<path fill="none" stroke="#63b8ff" d="M2377.4,-58.73C2497.46,-48.1 2784.1,-22.74 2885.85,-13.74"/>
<polygon fill="#63b8ff" stroke="#63b8ff" points="2885.89,-17.25 2895.54,-12.88 2885.27,-10.28 2885.89,-17.25"/>
</g>
<!-- Node112 -->
<g id="node7" class="node">
<title>Node112</title>
<g id="a_node7"><a xlink:href="J3DMaterialAnm_8h.html" target="_top" xlink:title=" ">
<polygon fill="#fff0f0" stroke="red" points="851.46,-206 711.46,-206 711.46,-176 851.46,-176 851.46,-206"/>
<text text-anchor="start" x="719.46" y="-194" font-family="Helvetica,sans-Serif" font-size="10.00">JSystem/J3DGraphAnimator</text>
<text text-anchor="middle" x="781.46" y="-183" font-family="Helvetica,sans-Serif" font-size="10.00">/J3DMaterialAnm.h</text>
</a>
</g>
</g>
<!-- Node111&#45;&gt;Node112 -->
<g id="edge7" class="edge">
<title>Node111&#45;&gt;Node112</title>
<path fill="none" stroke="#63b8ff" d="M1426.1,-253.93C1329.43,-248.79 1080.96,-233.95 862.96,-206.24"/>
<polygon fill="#63b8ff" stroke="#63b8ff" points="863.48,-202.78 853.12,-204.98 862.59,-209.72 863.48,-202.78"/>
</g>
<!-- Node113 -->
<g id="node8" class="node">
<title>Node113</title>
<g id="a_node8"><a xlink:href="J3DMatBlock_8h.html" target="_top" xlink:title=" ">
<polygon fill="#fff0f0" stroke="red" points="993.46,-206 869.46,-206 869.46,-176 993.46,-176 993.46,-206"/>
<text text-anchor="start" x="877.46" y="-194" font-family="Helvetica,sans-Serif" font-size="10.00">JSystem/J3DGraphBase</text>
<text text-anchor="middle" x="931.46" y="-183" font-family="Helvetica,sans-Serif" font-size="10.00">/J3DMatBlock.h</text>
</a>
</g>
</g>
<!-- Node111&#45;&gt;Node113 -->
<g id="edge8" class="edge">
<title>Node111&#45;&gt;Node113</title>
<path fill="none" stroke="#63b8ff" d="M1426.25,-252.79C1346.75,-246.33 1166.52,-230.42 1004.85,-206.28"/>
<polygon fill="#63b8ff" stroke="#63b8ff" points="1005.65,-202.86 995.24,-204.83 1004.6,-209.78 1005.65,-202.86"/>
</g>
<!-- Node119 -->
<g id="node9" class="node">
<title>Node119</title>
<g id="a_node9"><a xlink:href="Z2Creature_8h.html" target="_top" xlink:title=" ">
<polygon fill="#fff0f0" stroke="red" points="1862.96,-200.5 1737.96,-200.5 1737.96,-181.5 1862.96,-181.5 1862.96,-200.5"/>
<text text-anchor="middle" x="1800.46" y="-188.5" font-family="Helvetica,sans-Serif" font-size="10.00">Z2AudioLib/Z2Creature.h</text>
</a>
</g>
</g>
<!-- Node111&#45;&gt;Node119 -->
<g id="edge9" class="edge">
<title>Node111&#45;&gt;Node119</title>
<path fill="none" stroke="#63b8ff" d="M1508.6,-248.15C1560.03,-238.34 1650.76,-220.99 1728.46,-206 1733.3,-205.07 1738.32,-204.09 1743.37,-203.12"/>
<polygon fill="#63b8ff" stroke="#63b8ff" points="1743.73,-206.61 1752.88,-201.27 1742.4,-199.74 1743.73,-206.61"/>
</g>
<!-- Node120 -->
<g id="node11" class="node">
<title>Node120</title>
<g id="a_node11"><a xlink:href="Z2WolfHowlMgr_8h.html" target="_top" xlink:title=" ">
<polygon fill="#fff0f0" stroke="red" points="1157.46,-200.5 1011.46,-200.5 1011.46,-181.5 1157.46,-181.5 1157.46,-200.5"/>
<text text-anchor="middle" x="1084.46" y="-188.5" font-family="Helvetica,sans-Serif" font-size="10.00">Z2AudioLib/Z2WolfHowlMgr.h</text>
</a>
</g>
</g>
<!-- Node111&#45;&gt;Node120 -->
<g id="edge11" class="edge">
<title>Node111&#45;&gt;Node120</title>
<path fill="none" stroke="#63b8ff" d="M1426.06,-249.18C1368.02,-239.61 1259.18,-221.62 1166.46,-206 1160.49,-205 1154.28,-203.95 1148.07,-202.89"/>
<polygon fill="#63b8ff" stroke="#63b8ff" points="1148.88,-199.48 1138.43,-201.25 1147.71,-206.38 1148.88,-199.48"/>
</g>
<!-- Node121 -->
<g id="node12" class="node">
<title>Node121</title>
<g id="a_node12"><a xlink:href="d__a__player_8h.html" target="_top" xlink:title=" ">
<polygon fill="#fff0f0" stroke="red" points="440.96,-200.5 353.96,-200.5 353.96,-181.5 440.96,-181.5 440.96,-200.5"/>
<text text-anchor="middle" x="397.46" y="-188.5" font-family="Helvetica,sans-Serif" font-size="10.00">d/a/d_a_player.h</text>
</a>
</g>
</g>
<!-- Node111&#45;&gt;Node121 -->
<g id="edge12" class="edge">
<title>Node111&#45;&gt;Node121</title>
<path fill="none" stroke="#63b8ff" d="M1426.17,-255.12C1260.46,-251.42 643.38,-235.89 450.46,-206 446.36,-205.37 442.12,-204.54 437.91,-203.61"/>
<polygon fill="#63b8ff" stroke="#63b8ff" points="438.95,-200.26 428.41,-201.31 437.3,-207.07 438.95,-200.26"/>
</g>
<!-- Node129 -->
<g id="node13" class="node">
<title>Node129</title>
<g id="a_node13"><a xlink:href="d__bg__s__acch_8h.html" target="_top" xlink:title=" ">
<polygon fill="#fff0f0" stroke="red" points="1279.46,-200.5 1175.46,-200.5 1175.46,-181.5 1279.46,-181.5 1279.46,-200.5"/>
<text text-anchor="middle" x="1227.46" y="-188.5" font-family="Helvetica,sans-Serif" font-size="10.00">d/bg/d_bg_s_acch.h</text>
</a>
</g>
</g>
<!-- Node111&#45;&gt;Node129 -->
<g id="edge14" class="edge">
<title>Node111&#45;&gt;Node129</title>
<path fill="none" stroke="#63b8ff" d="M1433.83,-247.03C1391.52,-235.75 1318.74,-216.34 1271.88,-203.85"/>
<polygon fill="#63b8ff" stroke="#63b8ff" points="1272.88,-200.49 1262.31,-201.3 1271.07,-207.25 1272.88,-200.49"/>
</g>
<!-- Node143 -->
<g id="node14" class="node">
<title>Node143</title>
<g id="a_node14"><a xlink:href="d__bg__s__lin__chk_8h.html" target="_top" xlink:title=" ">
<polygon fill="#fff0f0" stroke="red" points="1410.96,-200.5 1297.96,-200.5 1297.96,-181.5 1410.96,-181.5 1410.96,-200.5"/>
<text text-anchor="middle" x="1354.46" y="-188.5" font-family="Helvetica,sans-Serif" font-size="10.00">d/bg/d_bg_s_lin_chk.h</text>
</a>
</g>
</g>
<!-- Node111&#45;&gt;Node143 -->
<g id="edge15" class="edge">
<title>Node111&#45;&gt;Node143</title>
<path fill="none" stroke="#63b8ff" d="M1451.74,-247.1C1433.19,-236.59 1402.07,-218.97 1380.03,-206.49"/>
<polygon fill="#63b8ff" stroke="#63b8ff" points="1381.78,-203.45 1371.35,-201.57 1378.33,-209.54 1381.78,-203.45"/>
</g>
<!-- Node145 -->
<g id="node15" class="node">
<title>Node145</title>
<g id="a_node15"><a xlink:href="d__bg__w__base_8h.html" target="_top" xlink:title=" ">
<polygon fill="#fff0f0" stroke="red" points="2627.46,-134.5 2521.46,-134.5 2521.46,-115.5 2627.46,-115.5 2627.46,-134.5"/>
<text text-anchor="middle" x="2574.46" y="-122.5" font-family="Helvetica,sans-Serif" font-size="10.00">d/bg/d_bg_w_base.h</text>
</a>
</g>
</g>
<!-- Node111&#45;&gt;Node145 -->
<g id="edge16" class="edge">
<title>Node111&#45;&gt;Node145</title>
<path fill="none" stroke="#63b8ff" d="M1508.85,-255.22C1677.09,-251.85 2304.64,-237.29 2387.46,-206 2407.58,-198.39 2406.53,-186.24 2425.46,-176 2456.95,-158.96 2495.31,-146.25 2525.22,-137.91"/>
<polygon fill="#63b8ff" stroke="#63b8ff" points="2526.04,-141.31 2534.78,-135.32 2524.21,-134.56 2526.04,-141.31"/>
</g>
<!-- Node147 -->
<g id="node16" class="node">
<title>Node147</title>
<g id="a_node16"><a xlink:href="d__cc__d_8h.html" target="_top" xlink:title=" ">
<polygon fill="#fff0f0" stroke="red" points="1505.96,-200.5 1428.96,-200.5 1428.96,-181.5 1505.96,-181.5 1505.96,-200.5"/>
<text text-anchor="middle" x="1467.46" y="-188.5" font-family="Helvetica,sans-Serif" font-size="10.00">d/cc/d_cc_d.h</text>
</a>
</g>
</g>
<!-- Node111&#45;&gt;Node147 -->
<g id="edge17" class="edge">
<title>Node111&#45;&gt;Node147</title>
<path fill="none" stroke="#63b8ff" d="M1467.46,-247.1C1467.46,-238.12 1467.46,-223.95 1467.46,-212.22"/>
<polygon fill="#63b8ff" stroke="#63b8ff" points="1470.96,-212.34 1467.46,-202.34 1463.96,-212.34 1470.96,-212.34"/>
</g>
<!-- Node153 -->
<g id="node17" class="node">
<title>Node153</title>
<g id="a_node17"><a xlink:href="d__attention_8h.html" target="_top" xlink:title=" ">
<polygon fill="#fff0f0" stroke="red" points="2514.46,-200.5 2434.46,-200.5 2434.46,-181.5 2514.46,-181.5 2514.46,-200.5"/>
<text text-anchor="middle" x="2474.46" y="-188.5" font-family="Helvetica,sans-Serif" font-size="10.00">d/d_attention.h</text>
</a>
</g>
</g>
<!-- Node111&#45;&gt;Node153 -->
<g id="edge18" class="edge">
<title>Node111&#45;&gt;Node153</title>
<path fill="none" stroke="#63b8ff" d="M1508.82,-254.94C1667.94,-250.68 2240.65,-233.74 2420.46,-206 2424.62,-205.36 2428.94,-204.53 2433.23,-203.59"/>
<polygon fill="#63b8ff" stroke="#63b8ff" points="2434.01,-207 2442.93,-201.28 2432.39,-200.19 2434.01,-207"/>
</g>
<!-- Node155 -->
<g id="node18" class="node">
<title>Node155</title>
<g id="a_node18"><a xlink:href="d__eye__hl_8h.html" target="_top" xlink:title=" ">
<polygon fill="#fff0f0" stroke="red" points="1594.96,-200.5 1523.96,-200.5 1523.96,-181.5 1594.96,-181.5 1594.96,-200.5"/>
<text text-anchor="middle" x="1559.46" y="-188.5" font-family="Helvetica,sans-Serif" font-size="10.00">d/d_eye_hl.h</text>
</a>
</g>
</g>
<!-- Node111&#45;&gt;Node155 -->
<g id="edge19" class="edge">
<title>Node111&#45;&gt;Node155</title>
<path fill="none" stroke="#63b8ff" d="M1480.25,-247.1C1495.01,-236.83 1519.54,-219.77 1537.4,-207.34"/>
<polygon fill="#63b8ff" stroke="#63b8ff" points="1539.32,-210.27 1545.53,-201.69 1535.32,-204.53 1539.32,-210.27"/>
</g>
<!-- Node156 -->
<g id="node19" class="node">
<title>Node156</title>
<g id="a_node19"><a xlink:href="d__jnt__col_8h.html" target="_top" xlink:title=" ">
<polygon fill="#fff0f0" stroke="red" points="2250.96,-200.5 2179.96,-200.5 2179.96,-181.5 2250.96,-181.5 2250.96,-200.5"/>
<text text-anchor="middle" x="2215.46" y="-188.5" font-family="Helvetica,sans-Serif" font-size="10.00">d/d_jnt_col.h</text>
</a>
</g>
</g>
<!-- Node111&#45;&gt;Node156 -->
<g id="edge20" class="edge">
<title>Node111&#45;&gt;Node156</title>
<path fill="none" stroke="#63b8ff" d="M1508.83,-254.22C1613.54,-249.41 1897.42,-234.6 2132.46,-206 2144.1,-204.58 2156.6,-202.68 2168.27,-200.73"/>
<polygon fill="#63b8ff" stroke="#63b8ff" points="2168.85,-204.18 2178.12,-199.04 2167.67,-197.28 2168.85,-204.18"/>
</g>
<!-- Node157 -->
<g id="node21" class="node">
<title>Node157</title>
<g id="a_node21"><a xlink:href="d__meter2__info_8h.html" target="_top" xlink:title=" ">
<polygon fill="white" stroke="#666666" points="2003.46,-200.5 1881.46,-200.5 1881.46,-181.5 2003.46,-181.5 2003.46,-200.5"/>
<text text-anchor="middle" x="1942.46" y="-188.5" font-family="Helvetica,sans-Serif" font-size="10.00">d/meter/d_meter2_info.h</text>
</a>
</g>
</g>
<!-- Node111&#45;&gt;Node157 -->
<g id="edge22" class="edge">
<title>Node111&#45;&gt;Node157</title>
<path fill="none" stroke="#63b8ff" d="M1508.89,-251.86C1582.21,-244.32 1739.56,-227.14 1871.46,-206 1877.05,-205.1 1882.88,-204.09 1888.68,-203.02"/>
<polygon fill="#63b8ff" stroke="#63b8ff" points="1889.08,-206.51 1898.26,-201.22 1887.78,-199.63 1889.08,-206.51"/>
</g>
<!-- Node158 -->
<g id="node22" class="node">
<title>Node158</title>
<g id="a_node22"><a xlink:href="d__msg__flow_8h.html" target="_top" xlink:title=" ">
<polygon fill="#fff0f0" stroke="red" points="1719.46,-200.5 1613.46,-200.5 1613.46,-181.5 1719.46,-181.5 1719.46,-200.5"/>
<text text-anchor="middle" x="1666.46" y="-188.5" font-family="Helvetica,sans-Serif" font-size="10.00">d/msg/d_msg_flow.h</text>
</a>
</g>
</g>
<!-- Node111&#45;&gt;Node158 -->
<g id="edge24" class="edge">
<title>Node111&#45;&gt;Node158</title>
<path fill="none" stroke="#63b8ff" d="M1495.13,-247.1C1529.63,-236 1588.82,-216.97 1627.79,-204.43"/>
<polygon fill="#63b8ff" stroke="#63b8ff" points="1628.81,-207.78 1637.26,-201.39 1626.67,-201.12 1628.81,-207.78"/>
</g>
<!-- Node159 -->
<g id="node23" class="node">
<title>Node159</title>
<g id="a_node23"><a xlink:href="d__particle_8h.html" target="_top" xlink:title=" ">
<polygon fill="#fff0f0" stroke="red" points="2377.96,-200.5 2268.96,-200.5 2268.96,-181.5 2377.96,-181.5 2377.96,-200.5"/>
<text text-anchor="middle" x="2323.46" y="-188.5" font-family="Helvetica,sans-Serif" font-size="10.00">d/particle/d_particle.h</text>
</a>
</g>
</g>
<!-- Node111&#45;&gt;Node159 -->
<g id="edge25" class="edge">
<title>Node111&#45;&gt;Node159</title>
<path fill="none" stroke="#63b8ff" d="M1508.54,-255.66C1626.26,-254.2 1974.66,-246.51 2260.46,-206 2265.72,-205.25 2271.21,-204.3 2276.64,-203.25"/>
<polygon fill="#63b8ff" stroke="#63b8ff" points="2277.09,-206.73 2286.17,-201.28 2275.67,-199.87 2277.09,-206.73"/>
</g>
<!-- Node167 -->
<g id="node24" class="node">
<title>Node167</title>
<g id="a_node24"><a xlink:href="d__particle__copoly_8h.html" target="_top" xlink:title=" ">
<polygon fill="white" stroke="#666666" points="2122.96,-206 2021.96,-206 2021.96,-176 2122.96,-176 2122.96,-206"/>
<text text-anchor="start" x="2029.96" y="-194" font-family="Helvetica,sans-Serif" font-size="10.00">d/particle/d_particle</text>
<text text-anchor="middle" x="2072.46" y="-183" font-family="Helvetica,sans-Serif" font-size="10.00">_copoly.h</text>
</a>
</g>
</g>
<!-- Node111&#45;&gt;Node167 -->
<g id="edge27" class="edge">
<title>Node111&#45;&gt;Node167</title>
<path fill="none" stroke="#63b8ff" d="M1508.72,-254.16C1598.27,-249.74 1817.25,-236.7 2010.28,-206.19"/>
<polygon fill="#63b8ff" stroke="#63b8ff" points="2010.67,-209.67 2019.99,-204.64 2009.56,-202.76 2010.67,-209.67"/>
</g>
<!-- Node168 -->
<g id="node25" class="node">
<title>Node168</title>
<g id="a_node25"><a xlink:href="d__save_8h.html" target="_top" xlink:title=" ">
<polygon fill="#fff0f0" stroke="red" points="693.46,-200.5 605.46,-200.5 605.46,-181.5 693.46,-181.5 693.46,-200.5"/>
<text text-anchor="middle" x="649.46" y="-188.5" font-family="Helvetica,sans-Serif" font-size="10.00">d/save/d_save.h</text>
</a>
</g>
</g>
<!-- Node111&#45;&gt;Node168 -->
<g id="edge30" class="edge">
<title>Node111&#45;&gt;Node168</title>
<path fill="none" stroke="#63b8ff" d="M1426.09,-256.09C1310.74,-255.74 976.01,-250.64 702.46,-206 698.41,-205.34 694.23,-204.51 690.07,-203.58"/>
<polygon fill="#63b8ff" stroke="#63b8ff" points="691.24,-200.26 680.7,-201.3 689.59,-207.06 691.24,-200.26"/>
</g>
<!-- Node176 -->
<g id="node26" class="node">
<title>Node176</title>
<g id="a_node26"><a xlink:href="f__op__actor__mng_8h.html" target="_top" xlink:title=" ">
<polygon fill="#fff0f0" stroke="red" points="153.46,-200.5 37.46,-200.5 37.46,-181.5 153.46,-181.5 153.46,-200.5"/>
<text text-anchor="middle" x="95.46" y="-188.5" font-family="Helvetica,sans-Serif" font-size="10.00">f_op/f_op_actor_mng.h</text>
</a>
</g>
</g>
<!-- Node111&#45;&gt;Node176 -->
<g id="edge33" class="edge">
<title>Node111&#45;&gt;Node176</title>
<path fill="none" stroke="#63b8ff" d="M1426.08,-255.77C1267.19,-254.57 681.05,-247.43 200.46,-206 189,-205.01 176.88,-203.67 165.1,-202.21"/>
<polygon fill="#63b8ff" stroke="#63b8ff" points="165.81,-198.77 155.44,-200.97 164.91,-205.72 165.81,-198.77"/>
</g>
<!-- Node192 -->
<g id="node28" class="node">
<title>Node192</title>
<g id="a_node28"><a xlink:href="d__a__kytag05_8h.html" target="_top" xlink:title=" ">
<polygon fill="white" stroke="#666666" points="587.46,-206 459.46,-206 459.46,-176 587.46,-176 587.46,-206"/>
<text text-anchor="start" x="467.46" y="-194" font-family="Helvetica,sans-Serif" font-size="10.00">rel/d/a/kytag/d_a_kytag05</text>
<text text-anchor="middle" x="523.46" y="-183" font-family="Helvetica,sans-Serif" font-size="10.00">/d_a_kytag05.h</text>
</a>
</g>
</g>
<!-- Node111&#45;&gt;Node192 -->
<g id="edge37" class="edge">
<title>Node111&#45;&gt;Node192</title>
<path fill="none" stroke="#63b8ff" d="M1426.02,-255.56C1301.98,-253.84 922.64,-245.58 598.88,-206.19"/>
<polygon fill="#63b8ff" stroke="#63b8ff" points="599.72,-202.76 589.37,-205.02 598.87,-209.71 599.72,-202.76"/>
</g>
<!-- Node193 -->
<g id="node29" class="node">
<title>Node193</title>
<g id="a_node29"><a xlink:href="d__a__tag__mmsg_8h.html" target="_top" xlink:title=" ">
<polygon fill="white" stroke="#666666" points="335.46,-206 209.46,-206 209.46,-176 335.46,-176 335.46,-206"/>
<text text-anchor="start" x="217.46" y="-194" font-family="Helvetica,sans-Serif" font-size="10.00">rel/d/a/tag/d_a_tag</text>
<text text-anchor="middle" x="272.46" y="-183" font-family="Helvetica,sans-Serif" font-size="10.00">_mmsg/d_a_tag_mmsg.h</text>
</a>
</g>
</g>
<!-- Node111&#45;&gt;Node193 -->
<g id="edge39" class="edge">
<title>Node111&#45;&gt;Node193</title>
<path fill="none" stroke="#63b8ff" d="M1425.98,-256.35C1279.6,-257.14 773.51,-255.93 346.92,-206.16"/>
<polygon fill="#63b8ff" stroke="#63b8ff" points="347.43,-202.69 337.09,-205 346.61,-209.65 347.43,-202.69"/>
</g>
<!-- Node5 -->
<g id="node10" class="node">
<title>Node5</title>
<g id="a_node10"><a xlink:href="c__xyz_8h.html" target="_top" xlink:title=" ">
<polygon fill="#fff0f0" stroke="red" points="2135.46,-140 2019.46,-140 2019.46,-110 2135.46,-110 2135.46,-140"/>
<text text-anchor="start" x="2027.46" y="-128" font-family="Helvetica,sans-Serif" font-size="10.00">SSystem/SComponent</text>
<text text-anchor="middle" x="2077.46" y="-117" font-family="Helvetica,sans-Serif" font-size="10.00">/c_xyz.h</text>
</a>
</g>
</g>
<!-- Node119&#45;&gt;Node5 -->
<g id="edge10" class="edge">
<title>Node119&#45;&gt;Node5</title>
<path fill="none" stroke="#63b8ff" d="M1839.26,-181.03C1882.91,-170.95 1954.66,-154.37 2008.02,-142.04"/>
<polygon fill="#63b8ff" stroke="#63b8ff" points="2008.69,-145.48 2017.64,-139.82 2007.11,-138.66 2008.69,-145.48"/>
</g>
<!-- Node121&#45;&gt;Node2 -->
<g id="edge13" class="edge">
<title>Node121&#45;&gt;Node2</title>
<path fill="none" stroke="#63b8ff" d="M388.7,-181.1C379.01,-171.26 363.18,-155.18 351.12,-142.93"/>
<polygon fill="#63b8ff" stroke="#63b8ff" points="353.71,-140.57 344.2,-135.9 348.72,-145.48 353.71,-140.57"/>
</g>
<!-- Node39 -->
<g id="node20" class="node">
<title>Node39</title>
<g id="a_node20"><a xlink:href="c__sxyz_8h.html" target="_top" xlink:title=" ">
<polygon fill="#fff0f0" stroke="red" points="2273.46,-140 2157.46,-140 2157.46,-110 2273.46,-110 2273.46,-140"/>
<text text-anchor="start" x="2165.46" y="-128" font-family="Helvetica,sans-Serif" font-size="10.00">SSystem/SComponent</text>
<text text-anchor="middle" x="2215.46" y="-117" font-family="Helvetica,sans-Serif" font-size="10.00">/c_sxyz.h</text>
</a>
</g>
</g>
<!-- Node156&#45;&gt;Node39 -->
<g id="edge21" class="edge">
<title>Node156&#45;&gt;Node39</title>
<path fill="none" stroke="#63b8ff" d="M2215.46,-181.1C2215.46,-173.41 2215.46,-161.92 2215.46,-151.42"/>
<polygon fill="#63b8ff" stroke="#63b8ff" points="2218.96,-151.75 2215.46,-141.75 2211.96,-151.75 2218.96,-151.75"/>
</g>
<!-- Node157&#45;&gt;Node5 -->
<g id="edge23" class="edge">
<title>Node157&#45;&gt;Node5</title>
<path fill="none" stroke="#63b8ff" d="M1961.23,-181.1C1980.62,-171.9 2011.52,-157.26 2036.58,-145.38"/>
<polygon fill="#63b8ff" stroke="#63b8ff" points="2038.01,-148.57 2045.55,-141.13 2035.01,-142.25 2038.01,-148.57"/>
</g>
<!-- Node159&#45;&gt;Node3 -->
<g id="edge26" class="edge">
<title>Node159&#45;&gt;Node3</title>
<path fill="none" stroke="#63b8ff" d="M2323.46,-181.05C2323.46,-161.22 2323.46,-113.18 2323.46,-85.69"/>
<polygon fill="#63b8ff" stroke="#63b8ff" points="2326.96,-85.89 2323.46,-75.89 2319.96,-85.89 2326.96,-85.89"/>
</g>
<!-- Node167&#45;&gt;Node5 -->
<g id="edge29" class="edge">
<title>Node167&#45;&gt;Node5</title>
<path fill="none" stroke="#63b8ff" d="M2073.56,-175.8C2074.12,-168.67 2074.81,-159.82 2075.46,-151.56"/>
<polygon fill="#63b8ff" stroke="#63b8ff" points="2078.94,-151.92 2076.23,-141.67 2071.96,-151.37 2078.94,-151.92"/>
</g>
<!-- Node167&#45;&gt;Node39 -->
<g id="edge28" class="edge">
<title>Node167&#45;&gt;Node39</title>
<path fill="none" stroke="#63b8ff" d="M2104.55,-175.64C2124.79,-166.58 2151.15,-154.78 2173.1,-144.96"/>
<polygon fill="#63b8ff" stroke="#63b8ff" points="2174.39,-148.21 2182.09,-140.93 2171.53,-141.82 2174.39,-148.21"/>
</g>
<!-- Node168&#45;&gt;Node13 -->
<g id="edge32" class="edge">
<title>Node168&#45;&gt;Node13</title>
<path fill="none" stroke="#63b8ff" d="M679.52,-181.05C686.96,-179.12 694.95,-177.27 702.46,-176 1387.66,-59.89 1568.3,-105.23 2261.46,-55 2499.56,-37.75 2786.09,-19.22 2885.99,-12.82"/>
<polygon fill="#63b8ff" stroke="#63b8ff" points="2885.97,-16.33 2895.72,-12.2 2885.52,-9.35 2885.97,-16.33"/>
</g>
<!-- Node168&#45;&gt;Node5 -->
<g id="edge31" class="edge">
<title>Node168&#45;&gt;Node5</title>
<path fill="none" stroke="#63b8ff" d="M678.65,-181.05C686.32,-179.04 694.64,-177.16 702.46,-176 767.5,-166.35 1738.07,-136.3 2008.17,-128.09"/>
<polygon fill="#63b8ff" stroke="#63b8ff" points="2007.96,-131.6 2017.85,-127.8 2007.75,-124.6 2007.96,-131.6"/>
</g>
<!-- Node176&#45;&gt;Node2 -->
<g id="edge34" class="edge">
<title>Node176&#45;&gt;Node2</title>
<path fill="none" stroke="#63b8ff" d="M128.94,-181.03C171.07,-169.75 243.55,-150.34 290.21,-137.85"/>
<polygon fill="#63b8ff" stroke="#63b8ff" points="290.98,-141.26 299.74,-135.3 289.17,-134.5 290.98,-141.26"/>
</g>
<!-- Node176&#45;&gt;Node178 -->
<g id="edge35" class="edge">
<title>Node176&#45;&gt;Node178</title>
<path fill="none" stroke="#63b8ff" d="M95.46,-181.1C95.46,-172.12 95.46,-157.95 95.46,-146.22"/>
<polygon fill="#63b8ff" stroke="#63b8ff" points="98.96,-146.34 95.46,-136.34 91.96,-146.34 98.96,-146.34"/>
</g>
<!-- Node178&#45;&gt;Node99 -->
<g id="edge36" class="edge">
<title>Node178&#45;&gt;Node99</title>
<path fill="none" stroke="#63b8ff" d="M118.39,-115.12C143.55,-105.37 184.19,-89.62 212.93,-78.49"/>
<polygon fill="#63b8ff" stroke="#63b8ff" points="213.83,-81.89 221.89,-75.02 211.31,-75.36 213.83,-81.89"/>
</g>
<!-- Node192&#45;&gt;Node2 -->
<g id="edge38" class="edge">
<title>Node192&#45;&gt;Node2</title>
<path fill="none" stroke="#63b8ff" d="M481.04,-175.64C448.13,-164.49 402.97,-149.2 371.51,-138.55"/>
<polygon fill="#63b8ff" stroke="#63b8ff" points="373.02,-135.36 362.43,-135.47 370.77,-141.99 373.02,-135.36"/>
</g>
<!-- Node193&#45;&gt;Node2 -->
<g id="edge40" class="edge">
<title>Node193&#45;&gt;Node2</title>
<path fill="none" stroke="#63b8ff" d="M286.21,-175.8C295.6,-166.11 308.07,-153.24 317.98,-143.01"/>
<polygon fill="#63b8ff" stroke="#63b8ff" points="320.39,-145.55 324.83,-135.93 315.36,-140.68 320.39,-145.55"/>
</g>
<!-- Node195&#45;&gt;Node13 -->
<g id="edge58" class="edge">
<title>Node195&#45;&gt;Node13</title>
<path fill="none" stroke="#63b8ff" d="M2757.27,-247.04C2833.49,-234.96 2958.8,-214.02 2965.46,-206 3009.26,-153.19 2959.92,-65.55 2935.05,-28.22"/>
<polygon fill="#63b8ff" stroke="#63b8ff" points="2938.19,-26.61 2929.64,-20.34 2932.42,-30.57 2938.19,-26.61"/>
</g>
<!-- Node195&#45;&gt;Node153 -->
<g id="edge48" class="edge">
<title>Node195&#45;&gt;Node153</title>
<path fill="none" stroke="#63b8ff" d="M2667.98,-247.07C2632.76,-237.08 2574.01,-220.4 2523.46,-206 2521.23,-205.37 2518.94,-204.71 2516.64,-204.06"/>
<polygon fill="#63b8ff" stroke="#63b8ff" points="2517.85,-200.76 2507.28,-201.38 2515.93,-207.49 2517.85,-200.76"/>
</g>
<!-- Node195&#45;&gt;Node159 -->
<g id="edge56" class="edge">
<title>Node195&#45;&gt;Node159</title>
<path fill="none" stroke="#63b8ff" d="M2646.78,-247.03C2578.77,-235.46 2460.5,-215.33 2387.41,-202.89"/>
<polygon fill="#63b8ff" stroke="#63b8ff" points="2388.02,-199.44 2377.57,-201.21 2386.84,-206.34 2388.02,-199.44"/>
</g>
<!-- Node196 -->
<g id="node32" class="node">
<title>Node196</title>
<g id="a_node32"><a xlink:href="d__bg__s_8h.html" target="_top" xlink:title=" ">
<polygon fill="#fff0f0" stroke="red" points="2862.96,-200.5 2785.96,-200.5 2785.96,-181.5 2862.96,-181.5 2862.96,-200.5"/>
<text text-anchor="middle" x="2824.46" y="-188.5" font-family="Helvetica,sans-Serif" font-size="10.00">d/bg/d_bg_s.h</text>
</a>
</g>
</g>
<!-- Node195&#45;&gt;Node196 -->
<g id="edge43" class="edge">
<title>Node195&#45;&gt;Node196</title>
<path fill="none" stroke="#63b8ff" d="M2716.84,-247.1C2737.64,-236.45 2772.72,-218.49 2797.16,-205.98"/>
<polygon fill="#63b8ff" stroke="#63b8ff" points="2798.57,-209.19 2805.87,-201.51 2795.38,-202.96 2798.57,-209.19"/>
</g>
<!-- Node197 -->
<g id="node33" class="node">
<title>Node197</title>
<g id="a_node33"><a xlink:href="d__cc__s_8h.html" target="_top" xlink:title=" ">
<polygon fill="#fff0f0" stroke="red" points="3067.96,-74 2990.96,-74 2990.96,-55 3067.96,-55 3067.96,-74"/>
<text text-anchor="middle" x="3029.46" y="-62" font-family="Helvetica,sans-Serif" font-size="10.00">d/cc/d_cc_s.h</text>
</a>
</g>
</g>
<!-- Node195&#45;&gt;Node197 -->
<g id="edge46" class="edge">
<title>Node195&#45;&gt;Node197</title>
<path fill="none" stroke="#63b8ff" d="M2748.53,-247.07C2758.12,-245.36 2768.1,-243.6 2777.46,-242 2826.5,-233.6 2962.3,-240.19 2998.46,-206 3031.64,-174.61 3033.23,-116.37 3031.44,-85.66"/>
<polygon fill="#63b8ff" stroke="#63b8ff" points="3034.94,-85.54 3030.66,-75.85 3027.96,-86.09 3034.94,-85.54"/>
</g>
<!-- Node200 -->
<g id="node34" class="node">
<title>Node200</title>
<g id="a_node34"><a xlink:href="d__resorce_8h.html" target="_top" xlink:title=" ">
<polygon fill="#fff0f0" stroke="red" points="2955.96,-200.5 2880.96,-200.5 2880.96,-181.5 2955.96,-181.5 2955.96,-200.5"/>
<text text-anchor="middle" x="2918.46" y="-188.5" font-family="Helvetica,sans-Serif" font-size="10.00">d/d_resorce.h</text>
</a>
</g>
</g>
<!-- Node195&#45;&gt;Node200 -->
<g id="edge49" class="edge">
<title>Node195&#45;&gt;Node200</title>
<path fill="none" stroke="#63b8ff" d="M2731.06,-247.01C2765.78,-237.1 2823.15,-220.63 2872.46,-206 2874.41,-205.42 2876.41,-204.82 2878.43,-204.22"/>
<polygon fill="#63b8ff" stroke="#63b8ff" points="2879.26,-207.62 2887.82,-201.39 2877.24,-200.92 2879.26,-207.62"/>
</g>
<!-- Node207 -->
<g id="node35" class="node">
<title>Node207</title>
<g id="a_node35"><a xlink:href="d__vibration_8h.html" target="_top" xlink:title=" ">
<polygon fill="#fff0f0" stroke="red" points="2612.46,-200.5 2532.46,-200.5 2532.46,-181.5 2612.46,-181.5 2612.46,-200.5"/>
<text text-anchor="middle" x="2572.46" y="-188.5" font-family="Helvetica,sans-Serif" font-size="10.00">d/d_vibration.h</text>
</a>
</g>
</g>
<!-- Node195&#45;&gt;Node207 -->
<g id="edge50" class="edge">
<title>Node195&#45;&gt;Node207</title>
<path fill="none" stroke="#63b8ff" d="M2681.8,-247.1C2660.66,-236.45 2625.02,-218.49 2600.19,-205.98"/>
<polygon fill="#63b8ff" stroke="#63b8ff" points="2601.82,-202.88 2591.32,-201.5 2598.67,-209.13 2601.82,-202.88"/>
</g>
<!-- Node209 -->
<g id="node36" class="node">
<title>Node209</title>
<g id="a_node36"><a xlink:href="d__event_8h.html" target="_top" xlink:title=" ">
<polygon fill="#fff0f0" stroke="red" points="3180.46,-74 3086.46,-74 3086.46,-55 3180.46,-55 3180.46,-74"/>
<text text-anchor="middle" x="3133.46" y="-62" font-family="Helvetica,sans-Serif" font-size="10.00">d/event/d_event.h</text>
</a>
</g>
</g>
<!-- Node195&#45;&gt;Node209 -->
<g id="edge52" class="edge">
<title>Node195&#45;&gt;Node209</title>
<path fill="none" stroke="#63b8ff" d="M2745.54,-247.02C2756.01,-245.18 2767.09,-243.38 2777.46,-242 2822.56,-235.97 3154.72,-239.56 3185.46,-206 3194.46,-196.17 3190.19,-188.46 3185.46,-176 3177.85,-155.99 3163.61,-158.84 3153.46,-140 3144.13,-122.7 3138.92,-100.75 3136.18,-85.17"/>
<polygon fill="#63b8ff" stroke="#63b8ff" points="3139.71,-85.08 3134.71,-75.74 3132.79,-86.16 3139.71,-85.08"/>
</g>
<!-- Node211 -->
<g id="node37" class="node">
<title>Node211</title>
<g id="a_node37"><a xlink:href="d__event__manager_8h.html" target="_top" xlink:title=" ">
<polygon fill="#fff0f0" stroke="red" points="2767.96,-200.5 2630.96,-200.5 2630.96,-181.5 2767.96,-181.5 2767.96,-200.5"/>
<text text-anchor="middle" x="2699.46" y="-188.5" font-family="Helvetica,sans-Serif" font-size="10.00">d/event/d_event_manager.h</text>
</a>
</g>
</g>
<!-- Node195&#45;&gt;Node211 -->
<g id="edge54" class="edge">
<title>Node195&#45;&gt;Node211</title>
<path fill="none" stroke="#63b8ff" d="M2699.46,-247.1C2699.46,-238.12 2699.46,-223.95 2699.46,-212.22"/>
<polygon fill="#63b8ff" stroke="#63b8ff" points="2702.96,-212.34 2699.46,-202.34 2695.96,-212.34 2702.96,-212.34"/>
</g>
<!-- Node213 -->
<g id="node38" class="node">
<title>Node213</title>
<g id="a_node38"><a xlink:href="f__op__camera__mng_8h.html" target="_top" xlink:title=" ">
<polygon fill="#fff0f0" stroke="red" points="3176.46,-200.5 3050.46,-200.5 3050.46,-181.5 3176.46,-181.5 3176.46,-200.5"/>
<text text-anchor="middle" x="3113.46" y="-188.5" font-family="Helvetica,sans-Serif" font-size="10.00">f_op/f_op_camera_mng.h</text>
</a>
</g>
</g>
<!-- Node195&#45;&gt;Node213 -->
<g id="edge57" class="edge">
<title>Node195&#45;&gt;Node213</title>
<path fill="none" stroke="#63b8ff" d="M2747.67,-247.04C2757.51,-245.3 2767.81,-243.54 2777.46,-242 2892.23,-223.73 2921.7,-224.4 3036.46,-206 3042.41,-205.05 3048.61,-204 3054.8,-202.93"/>
<polygon fill="#63b8ff" stroke="#63b8ff" points="3055.13,-206.42 3064.37,-201.24 3053.91,-199.53 3055.13,-206.42"/>
</g>
<!-- Node196&#45;&gt;Node13 -->
<g id="edge45" class="edge">
<title>Node196&#45;&gt;Node13</title>
<path fill="none" stroke="#63b8ff" d="M2829.18,-181.34C2844.22,-153.81 2891.17,-67.81 2912.15,-29.38"/>
<polygon fill="#63b8ff" stroke="#63b8ff" points="2915.1,-31.28 2916.82,-20.82 2908.96,-27.92 2915.1,-31.28"/>
</g>
<!-- Node196&#45;&gt;Node145 -->
<g id="edge44" class="edge">
<title>Node196&#45;&gt;Node145</title>
<path fill="none" stroke="#63b8ff" d="M2795.18,-181.04C2789.33,-179.32 2783.21,-177.56 2777.46,-176 2725.43,-161.85 2665.44,-147.29 2624.24,-137.56"/>
<polygon fill="#63b8ff" stroke="#63b8ff" points="2625.15,-134.18 2614.61,-135.29 2623.54,-140.99 2625.15,-134.18"/>
</g>
<!-- Node197&#45;&gt;Node13 -->
<g id="edge47" class="edge">
<title>Node197&#45;&gt;Node13</title>
<path fill="none" stroke="#63b8ff" d="M3011.3,-54.51C2994.68,-46.27 2969.81,-33.96 2950.61,-24.45"/>
<polygon fill="#63b8ff" stroke="#63b8ff" points="2952.21,-21.33 2941.69,-20.03 2949.1,-27.6 2952.21,-21.33"/>
</g>
<!-- Node207&#45;&gt;Node5 -->
<g id="edge51" class="edge">
<title>Node207&#45;&gt;Node5</title>
<path fill="none" stroke="#63b8ff" d="M2544.42,-181.04C2537.62,-179.13 2530.32,-177.3 2523.46,-176 2358.94,-144.87 2314.13,-164.23 2148.46,-140 2147.94,-139.93 2147.43,-139.85 2146.91,-139.77"/>
<polygon fill="#63b8ff" stroke="#63b8ff" points="2147.8,-136.37 2137.38,-138.24 2146.69,-143.28 2147.8,-136.37"/>
</g>
<!-- Node209&#45;&gt;Node13 -->
<g id="edge53" class="edge">
<title>Node209&#45;&gt;Node13</title>
<path fill="none" stroke="#63b8ff" d="M3097.66,-54.51C3058.92,-44.78 2997.49,-29.35 2958.61,-19.58"/>
<polygon fill="#63b8ff" stroke="#63b8ff" points="2959.82,-16.28 2949.27,-17.23 2958.11,-23.07 2959.82,-16.28"/>
</g>
<!-- Node211&#45;&gt;Node5 -->
<g id="edge55" class="edge">
<title>Node211&#45;&gt;Node5</title>
<path fill="none" stroke="#63b8ff" d="M2653.79,-181C2643.21,-179.14 2631.96,-177.34 2621.46,-176 2412.32,-149.34 2357.36,-168.44 2148.46,-140 2147.94,-139.93 2147.43,-139.86 2146.91,-139.79"/>
<polygon fill="#63b8ff" stroke="#63b8ff" points="2147.78,-136.38 2137.36,-138.32 2146.72,-143.3 2147.78,-136.38"/>
</g>
<!-- Node220 -->
<g id="node40" class="node">
<title>Node220</title>
<g id="a_node40"><a xlink:href="d__a__suspend_8h.html" target="_top" xlink:title=" ">
<polygon fill="white" stroke="#666666" points="147.46,-272 43.46,-272 43.46,-242 147.46,-242 147.46,-272"/>
<text text-anchor="start" x="51.46" y="-260" font-family="Helvetica,sans-Serif" font-size="10.00">rel/d/a/d_a_suspend</text>
<text text-anchor="middle" x="95.46" y="-249" font-family="Helvetica,sans-Serif" font-size="10.00">/d_a_suspend.h</text>
</a>
</g>
</g>
<!-- Node219&#45;&gt;Node220 -->
<g id="edge60" class="edge">
<title>Node219&#45;&gt;Node220</title>
<path fill="none" stroke="#63b8ff" d="M96.31,-307.87C96.2,-301.4 96.04,-292.2 95.89,-283.45"/>
<polygon fill="#63b8ff" stroke="#63b8ff" points="99.39,-283.57 95.72,-273.63 92.39,-283.69 99.39,-283.57"/>
</g>
<!-- Node220&#45;&gt;Node176 -->
<g id="edge61" class="edge">
<title>Node220&#45;&gt;Node176</title>
<path fill="none" stroke="#63b8ff" d="M95.46,-241.8C95.46,-233.09 95.46,-221.81 95.46,-212.18"/>
<polygon fill="#63b8ff" stroke="#63b8ff" points="98.96,-212.36 95.46,-202.36 91.96,-212.36 98.96,-212.36"/>
</g>
<!-- Node221&#45;&gt;Node5 -->
<g id="edge67" class="edge">
<title>Node221&#45;&gt;Node5</title>
<path fill="none" stroke="#63b8ff" d="M3286.67,-185.85C3259.39,-182.65 3220.01,-178.39 3185.46,-176 2725.39,-144.2 2606.59,-192.78 2148.46,-140 2147.94,-139.94 2147.42,-139.88 2146.91,-139.82"/>
<polygon fill="#63b8ff" stroke="#63b8ff" points="2147.73,-136.4 2137.34,-138.49 2146.77,-143.33 2147.73,-136.4"/>
</g>
<!-- Node221&#45;&gt;Node39 -->
<g id="edge66" class="edge">
<title>Node221&#45;&gt;Node39</title>
<path fill="none" stroke="#63b8ff" d="M3286.66,-186C3259.38,-182.9 3219.99,-178.68 3185.46,-176 3096.56,-169.1 2492.46,-139.47 2285.13,-129.38"/>
<polygon fill="#63b8ff" stroke="#63b8ff" points="2285.48,-125.89 2275.32,-128.9 2285.13,-132.89 2285.48,-125.89"/>
</g>
<!-- Node222 -->
<g id="node42" class="node">
<title>Node222</title>
<g id="a_node42"><a xlink:href="JStudio_2JStudio__JAudio2_2control_8h.html" target="_top" xlink:title=" ">
<polygon fill="#fff0f0" stroke="red" points="3711.96,-140 3584.96,-140 3584.96,-110 3711.96,-110 3711.96,-140"/>
<text text-anchor="start" x="3592.96" y="-128" font-family="Helvetica,sans-Serif" font-size="10.00">JSystem/JStudio/JStudio</text>
<text text-anchor="middle" x="3648.46" y="-117" font-family="Helvetica,sans-Serif" font-size="10.00">_JAudio2/control.h</text>
</a>
</g>
</g>
<!-- Node221&#45;&gt;Node222 -->
<g id="edge63" class="edge">
<title>Node221&#45;&gt;Node222</title>
<path fill="none" stroke="#63b8ff" d="M3354.32,-183.39C3405.64,-173.38 3504.41,-154.11 3573.27,-140.67"/>
<polygon fill="#63b8ff" stroke="#63b8ff" points="3573.85,-144.12 3582.99,-138.77 3572.51,-137.25 3573.85,-144.12"/>
</g>
<!-- Node240 -->
<g id="node43" class="node">
<title>Node240</title>
<g id="a_node43"><a xlink:href="object-particle_8h.html" target="_top" xlink:title=" ">
<polygon fill="#fff0f0" stroke="red" points="3292.96,-140 3161.96,-140 3161.96,-110 3292.96,-110 3292.96,-140"/>
<text text-anchor="start" x="3169.96" y="-128" font-family="Helvetica,sans-Serif" font-size="10.00">JSystem/JStudio/JStudio</text>
<text text-anchor="middle" x="3227.46" y="-117" font-family="Helvetica,sans-Serif" font-size="10.00">_JParticle/object&#45;particle.h</text>
</a>
</g>
</g>
<!-- Node221&#45;&gt;Node240 -->
<g id="edge64" class="edge">
<title>Node221&#45;&gt;Node240</title>
<path fill="none" stroke="#63b8ff" d="M3307.52,-181.1C3294.76,-172.32 3274.76,-158.55 3257.95,-146.98"/>
<polygon fill="#63b8ff" stroke="#63b8ff" points="3259.96,-144.12 3249.74,-141.34 3255.99,-149.89 3259.96,-144.12"/>
</g>
<!-- Node242 -->
<g id="node44" class="node">
<title>Node242</title>
<g id="a_node44"><a xlink:href="object_8h.html" target="_top" xlink:title=" ">
<polygon fill="#fff0f0" stroke="red" points="3437.96,-140 3310.96,-140 3310.96,-110 3437.96,-110 3437.96,-140"/>
<text text-anchor="start" x="3318.96" y="-128" font-family="Helvetica,sans-Serif" font-size="10.00">JSystem/JStudio/JStudio</text>
<text text-anchor="middle" x="3374.46" y="-117" font-family="Helvetica,sans-Serif" font-size="10.00">_JStage/object.h</text>
</a>
</g>
</g>
<!-- Node221&#45;&gt;Node242 -->
<g id="edge65" class="edge">
<title>Node221&#45;&gt;Node242</title>
<path fill="none" stroke="#63b8ff" d="M3327.96,-181.1C3335.01,-172.75 3345.84,-159.92 3355.28,-148.73"/>
<polygon fill="#63b8ff" stroke="#63b8ff" points="3357.7,-151.29 3361.47,-141.39 3352.35,-146.78 3357.7,-151.29"/>
</g>
<!-- Node19 -->
<g id="node45" class="node">
<title>Node19</title>
<g id="a_node45"><a xlink:href="GXEnum_8h.html" target="_top" xlink:title=" ">
<polygon fill="#fff0f0" stroke="red" points="3566.46,-134.5 3456.46,-134.5 3456.46,-115.5 3566.46,-115.5 3566.46,-134.5"/>
<text text-anchor="middle" x="3511.46" y="-122.5" font-family="Helvetica,sans-Serif" font-size="10.00">dolphin/gx/GXEnum.h</text>
</a>
</g>
</g>
<!-- Node221&#45;&gt;Node19 -->
<g id="edge68" class="edge">
<title>Node221&#45;&gt;Node19</title>
<path fill="none" stroke="#63b8ff" d="M3347.01,-181.1C3380.13,-170 3436.94,-150.97 3474.35,-138.43"/>
<polygon fill="#63b8ff" stroke="#63b8ff" points="3475.01,-141.9 3483.38,-135.41 3472.79,-135.27 3475.01,-141.9"/>
</g>
<!-- Node12 -->
<g id="node46" class="node">
<title>Node12</title>
<g id="a_node46"><a xlink:href="GXStruct_8h.html" target="_top" xlink:title=" ">
<polygon fill="white" stroke="#666666" points="3552.96,-74 3441.96,-74 3441.96,-55 3552.96,-55 3552.96,-74"/>
<text text-anchor="middle" x="3497.46" y="-62" font-family="Helvetica,sans-Serif" font-size="10.00">dolphin/gx/GXStruct.h</text>
</a>
</g>
</g>
<!-- Node221&#45;&gt;Node12 -->
<g id="edge69" class="edge">
<title>Node221&#45;&gt;Node12</title>
<path fill="none" stroke="#63b8ff" d="M3354.25,-188.31C3446.48,-183.34 3697.25,-167.41 3721.46,-140 3769,-86.16 3646.46,-71.12 3564.44,-66.99"/>
<polygon fill="#63b8ff" stroke="#63b8ff" points="3564.81,-63.5 3554.67,-66.55 3564.5,-70.5 3564.81,-63.5"/>
</g>
<!-- Node12&#45;&gt;Node13 -->
<g id="edge70" class="edge">
<title>Node12&#45;&gt;Node13</title>
<path fill="none" stroke="#63b8ff" d="M3441.54,-58.35C3324.64,-47.57 3057.13,-22.91 2959.23,-13.89"/>
<polygon fill="#63b8ff" stroke="#63b8ff" points="2959.67,-10.42 2949.39,-12.98 2959.03,-17.39 2959.67,-10.42"/>
</g>
<!-- Node249&#45;&gt;Node5 -->
<g id="edge72" class="edge">
<title>Node249&#45;&gt;Node5</title>
<path fill="none" stroke="#63b8ff" d="M2185.6,-307.66C2181.71,-298.71 2175.57,-284.43 2170.46,-272 2153,-229.56 2158.55,-213.74 2132.46,-176 2125.23,-165.54 2115.41,-155.73 2106.08,-147.61"/>
<polygon fill="#63b8ff" stroke="#63b8ff" points="2108.47,-145.05 2098.54,-141.35 2104,-150.43 2108.47,-145.05"/>
</g>
<!-- Node250 -->
<g id="node48" class="node">
<title>Node250</title>
<g id="a_node48"><a xlink:href="f__op__scene_8h.html" target="_top" xlink:title=" ">
<polygon fill="#fff0f0" stroke="red" points="2275.46,-266.5 2179.46,-266.5 2179.46,-247.5 2275.46,-247.5 2275.46,-266.5"/>
<text text-anchor="middle" x="2227.46" y="-254.5" font-family="Helvetica,sans-Serif" font-size="10.00">f_op/f_op_scene.h</text>
</a>
</g>
</g>
<!-- Node249&#45;&gt;Node250 -->
<g id="edge73" class="edge">
<title>Node249&#45;&gt;Node250</title>
<path fill="none" stroke="#63b8ff" d="M2195.06,-307.87C2200.45,-299.57 2208.76,-286.78 2215.62,-276.22"/>
<polygon fill="#63b8ff" stroke="#63b8ff" points="2218.49,-278.23 2221,-267.94 2212.62,-274.42 2218.49,-278.23"/>
</g>
</g>
</svg>
