<?xml version="1.0" encoding="UTF-8" standalone="no"?>
<!DOCTYPE svg PUBLIC "-//W3C//DTD SVG 1.1//EN"
 "http://www.w3.org/Graphics/SVG/1.1/DTD/svg11.dtd">
<!-- Generated by graphviz version 7.0.5 (20221223.1930)
 -->
<!-- Title: include/f_op/f_op_msg_mng.h Pages: 1 -->
<svg width="1432pt" height="170pt"
 viewBox="0.00 0.00 1431.50 170.00" xmlns="http://www.w3.org/2000/svg" xmlns:xlink="http://www.w3.org/1999/xlink">
<g id="graph0" class="graph" transform="scale(1 1) rotate(0) translate(4 166)">
<title>include/f_op/f_op_msg_mng.h</title>
<!-- Node1 -->
<g id="node1" class="node">
<title>Node1</title>
<g id="a_node1"><a xlink:title=" ">
<polygon fill="#999999" stroke="#666666" points="682,-162 567,-162 567,-132 682,-132 682,-162"/>
<text text-anchor="start" x="575" y="-150" font-family="Helvetica,sans-Serif" font-size="10.00">include/f_op/f_op_msg</text>
<text text-anchor="middle" x="624.5" y="-139" font-family="Helvetica,sans-Serif" font-size="10.00">_mng.h</text>
</a>
</g>
</g>
<!-- Node2 -->
<g id="node2" class="node">
<title>Node2</title>
<g id="a_node2"><a xlink:href="d__gameover_8h.html" target="_top" xlink:title=" ">
<polygon fill="white" stroke="#666666" points="154,-90.5 35,-90.5 35,-71.5 154,-71.5 154,-90.5"/>
<text text-anchor="middle" x="94.5" y="-78.5" font-family="Helvetica,sans-Serif" font-size="10.00">include/d/d_gameover.h</text>
</a>
</g>
</g>
<!-- Node1&#45;&gt;Node2 -->
<g id="edge1" class="edge">
<title>Node1&#45;&gt;Node2</title>
<path fill="none" stroke="#63b8ff" d="M555.37,-140.11C465.85,-132.09 305.09,-116.38 168.5,-96 158.8,-94.55 148.43,-92.75 138.62,-90.93"/>
<polygon fill="#63b8ff" stroke="#63b8ff" points="554.95,-143.58 565.22,-140.98 555.57,-136.61 554.95,-143.58"/>
</g>
<!-- Node4 -->
<g id="node4" class="node">
<title>Node4</title>
<g id="a_node4"><a xlink:href="d__event__data_8cpp.html" target="_top" xlink:title=" ">
<polygon fill="white" stroke="#666666" points="234,-30 131,-30 131,0 234,0 234,-30"/>
<text text-anchor="start" x="139" y="-18" font-family="Helvetica,sans-Serif" font-size="10.00">src/d/event/d_event</text>
<text text-anchor="middle" x="182.5" y="-7" font-family="Helvetica,sans-Serif" font-size="10.00">_data.cpp</text>
</a>
</g>
</g>
<!-- Node1&#45;&gt;Node4 -->
<g id="edge7" class="edge">
<title>Node1&#45;&gt;Node4</title>
<path fill="none" stroke="#63b8ff" d="M555.52,-142.13C442.4,-135.17 227.39,-119.06 201.5,-96 182.95,-79.48 180.84,-48.46 181.39,-30.28"/>
<polygon fill="#63b8ff" stroke="#63b8ff" points="555.09,-145.62 565.29,-142.73 555.52,-138.63 555.09,-145.62"/>
</g>
<!-- Node5 -->
<g id="node5" class="node">
<title>Node5</title>
<g id="a_node5"><a xlink:href="d__name_8cpp.html" target="_top" xlink:title=" ">
<polygon fill="white" stroke="#666666" points="304.5,-90.5 210.5,-90.5 210.5,-71.5 304.5,-71.5 304.5,-90.5"/>
<text text-anchor="middle" x="257.5" y="-78.5" font-family="Helvetica,sans-Serif" font-size="10.00">src/d/d_name.cpp</text>
</a>
</g>
</g>
<!-- Node1&#45;&gt;Node5 -->
<g id="edge4" class="edge">
<title>Node1&#45;&gt;Node5</title>
<path fill="none" stroke="#63b8ff" d="M555.6,-136.65C492.38,-127.66 396.26,-112.96 313.5,-96 306.33,-94.53 298.7,-92.76 291.45,-90.98"/>
<polygon fill="#63b8ff" stroke="#63b8ff" points="554.74,-140.06 565.13,-138 555.72,-133.13 554.74,-140.06"/>
</g>
<!-- Node6 -->
<g id="node6" class="node">
<title>Node6</title>
<g id="a_node6"><a xlink:href="d__stage_8cpp.html" target="_top" xlink:title=" ">
<polygon fill="white" stroke="#666666" points="416.5,-90.5 322.5,-90.5 322.5,-71.5 416.5,-71.5 416.5,-90.5"/>
<text text-anchor="middle" x="369.5" y="-78.5" font-family="Helvetica,sans-Serif" font-size="10.00">src/d/d_stage.cpp</text>
</a>
</g>
</g>
<!-- Node1&#45;&gt;Node6 -->
<g id="edge5" class="edge">
<title>Node1&#45;&gt;Node6</title>
<path fill="none" stroke="#63b8ff" d="M555.89,-128.78C507.31,-116.59 444.13,-100.73 405.21,-90.96"/>
<polygon fill="#63b8ff" stroke="#63b8ff" points="554.94,-132.15 565.49,-131.19 556.64,-125.36 554.94,-132.15"/>
</g>
<!-- Node7 -->
<g id="node7" class="node">
<title>Node7</title>
<g id="a_node7"><a xlink:href="d__timer_8cpp.html" target="_top" xlink:title=" ">
<polygon fill="white" stroke="#666666" points="526.5,-90.5 434.5,-90.5 434.5,-71.5 526.5,-71.5 526.5,-90.5"/>
<text text-anchor="middle" x="480.5" y="-78.5" font-family="Helvetica,sans-Serif" font-size="10.00">src/d/d_timer.cpp</text>
</a>
</g>
</g>
<!-- Node1&#45;&gt;Node7 -->
<g id="edge6" class="edge">
<title>Node1&#45;&gt;Node7</title>
<path fill="none" stroke="#63b8ff" d="M581.89,-127.06C555.07,-115.14 521.68,-100.3 500.72,-90.99"/>
<polygon fill="#63b8ff" stroke="#63b8ff" points="580.24,-130.16 590.8,-131.02 583.08,-123.76 580.24,-130.16"/>
</g>
<!-- Node8 -->
<g id="node8" class="node">
<title>Node8</title>
<g id="a_node8"><a xlink:href="d__menu__window_8cpp.html" target="_top" xlink:title=" ">
<polygon fill="white" stroke="#666666" points="704,-90.5 545,-90.5 545,-71.5 704,-71.5 704,-90.5"/>
<text text-anchor="middle" x="624.5" y="-78.5" font-family="Helvetica,sans-Serif" font-size="10.00">src/d/menu/d_menu_window.cpp</text>
</a>
</g>
</g>
<!-- Node1&#45;&gt;Node8 -->
<g id="edge8" class="edge">
<title>Node1&#45;&gt;Node8</title>
<path fill="none" stroke="#63b8ff" d="M624.5,-120.59C624.5,-110.06 624.5,-98.53 624.5,-90.84"/>
<polygon fill="#63b8ff" stroke="#63b8ff" points="621,-120.28 624.5,-130.28 628,-120.28 621,-120.28"/>
</g>
<!-- Node9 -->
<g id="node9" class="node">
<title>Node9</title>
<g id="a_node9"><a xlink:href="d__meter2_8cpp.html" target="_top" xlink:title=" ">
<polygon fill="white" stroke="#666666" points="850.5,-90.5 722.5,-90.5 722.5,-71.5 850.5,-71.5 850.5,-90.5"/>
<text text-anchor="middle" x="786.5" y="-78.5" font-family="Helvetica,sans-Serif" font-size="10.00">src/d/meter/d_meter2.cpp</text>
</a>
</g>
</g>
<!-- Node1&#45;&gt;Node9 -->
<g id="edge9" class="edge">
<title>Node1&#45;&gt;Node9</title>
<path fill="none" stroke="#63b8ff" d="M671.23,-127.54C701.61,-115.54 739.86,-100.43 763.75,-90.99"/>
<polygon fill="#63b8ff" stroke="#63b8ff" points="670.28,-124.15 662.26,-131.08 672.85,-130.66 670.28,-124.15"/>
</g>
<!-- Node10 -->
<g id="node10" class="node">
<title>Node10</title>
<g id="a_node10"><a xlink:href="d__msg__flow_8cpp.html" target="_top" xlink:title=" ">
<polygon fill="white" stroke="#666666" points="1002,-90.5 869,-90.5 869,-71.5 1002,-71.5 1002,-90.5"/>
<text text-anchor="middle" x="935.5" y="-78.5" font-family="Helvetica,sans-Serif" font-size="10.00">src/d/msg/d_msg_flow.cpp</text>
</a>
</g>
</g>
<!-- Node1&#45;&gt;Node10 -->
<g id="edge10" class="edge">
<title>Node1&#45;&gt;Node10</title>
<path fill="none" stroke="#63b8ff" d="M693.28,-131.85C753.96,-119.36 840.53,-101.54 892.07,-90.94"/>
<polygon fill="#63b8ff" stroke="#63b8ff" points="692.84,-128.36 683.75,-133.81 694.25,-135.22 692.84,-128.36"/>
</g>
<!-- Node11 -->
<g id="node11" class="node">
<title>Node11</title>
<g id="a_node11"><a xlink:href="d__msg__out__font_8cpp.html" target="_top" xlink:title=" ">
<polygon fill="white" stroke="#666666" points="1131,-96 1020,-96 1020,-66 1131,-66 1131,-96"/>
<text text-anchor="start" x="1028" y="-84" font-family="Helvetica,sans-Serif" font-size="10.00">src/d/msg/d_msg_out</text>
<text text-anchor="middle" x="1075.5" y="-73" font-family="Helvetica,sans-Serif" font-size="10.00">_font.cpp</text>
</a>
</g>
</g>
<!-- Node1&#45;&gt;Node11 -->
<g id="edge11" class="edge">
<title>Node1&#45;&gt;Node11</title>
<path fill="none" stroke="#63b8ff" d="M693.5,-138.92C771.12,-130.52 900.8,-115.22 1011.5,-96 1014.19,-95.53 1016.94,-95.03 1019.71,-94.5"/>
<polygon fill="#63b8ff" stroke="#63b8ff" points="693.51,-135.39 683.94,-139.94 694.26,-142.35 693.51,-135.39"/>
</g>
<!-- Node12 -->
<g id="node12" class="node">
<title>Node12</title>
<g id="a_node12"><a xlink:href="f__op__msg_8cpp.html" target="_top" xlink:title=" ">
<polygon fill="white" stroke="#666666" points="1265.5,-90.5 1149.5,-90.5 1149.5,-71.5 1265.5,-71.5 1265.5,-90.5"/>
<text text-anchor="middle" x="1207.5" y="-78.5" font-family="Helvetica,sans-Serif" font-size="10.00">src/f_op/f_op_msg.cpp</text>
</a>
</g>
</g>
<!-- Node1&#45;&gt;Node12 -->
<g id="edge12" class="edge">
<title>Node1&#45;&gt;Node12</title>
<path fill="none" stroke="#63b8ff" d="M693.78,-141.7C793.1,-135 981.52,-120.24 1140.5,-96 1149.55,-94.62 1159.21,-92.8 1168.31,-90.94"/>
<polygon fill="#63b8ff" stroke="#63b8ff" points="693.66,-138.2 683.92,-142.36 694.13,-145.19 693.66,-138.2"/>
</g>
<!-- Node13 -->
<g id="node13" class="node">
<title>Node13</title>
<g id="a_node13"><a xlink:href="f__op__msg__mng_8cpp.html" target="_top" xlink:title=" ">
<polygon fill="white" stroke="#666666" points="1423.5,-90.5 1283.5,-90.5 1283.5,-71.5 1423.5,-71.5 1423.5,-90.5"/>
<text text-anchor="middle" x="1353.5" y="-78.5" font-family="Helvetica,sans-Serif" font-size="10.00">src/f_op/f_op_msg_mng.cpp</text>
</a>
</g>
</g>
<!-- Node1&#45;&gt;Node13 -->
<g id="edge13" class="edge">
<title>Node1&#45;&gt;Node13</title>
<path fill="none" stroke="#63b8ff" d="M693.52,-142.93C812.48,-137.14 1063.69,-122.72 1274.5,-96 1285.14,-94.65 1296.53,-92.85 1307.25,-90.98"/>
<polygon fill="#63b8ff" stroke="#63b8ff" points="693.41,-139.43 683.59,-143.41 693.75,-146.42 693.41,-139.43"/>
</g>
<!-- Node3 -->
<g id="node3" class="node">
<title>Node3</title>
<g id="a_node3"><a xlink:href="d__gameover_8cpp.html" target="_top" xlink:title=" ">
<polygon fill="white" stroke="#666666" points="113,-24.5 0,-24.5 0,-5.5 113,-5.5 113,-24.5"/>
<text text-anchor="middle" x="56.5" y="-12.5" font-family="Helvetica,sans-Serif" font-size="10.00">src/d/d_gameover.cpp</text>
</a>
</g>
</g>
<!-- Node2&#45;&gt;Node3 -->
<g id="edge2" class="edge">
<title>Node2&#45;&gt;Node3</title>
<path fill="none" stroke="#63b8ff" d="M83.53,-61.53C76.37,-49.46 67.34,-34.25 61.74,-24.82"/>
<polygon fill="#63b8ff" stroke="#63b8ff" points="80.33,-62.99 88.44,-69.8 86.35,-59.41 80.33,-62.99"/>
</g>
<!-- Node2&#45;&gt;Node4 -->
<g id="edge3" class="edge">
<title>Node2&#45;&gt;Node4</title>
<path fill="none" stroke="#63b8ff" d="M115.79,-64.52C130.03,-54.16 148.65,-40.62 162.59,-30.48"/>
<polygon fill="#63b8ff" stroke="#63b8ff" points="113.99,-61.5 107.96,-70.21 118.11,-67.16 113.99,-61.5"/>
</g>
</g>
</svg>
