<?xml version="1.0" encoding="UTF-8" standalone="no"?>
<!DOCTYPE svg PUBLIC "-//W3C//DTD SVG 1.1//EN"
 "http://www.w3.org/Graphics/SVG/1.1/DTD/svg11.dtd">
<!-- Generated by graphviz version 7.0.5 (20221223.1930)
 -->
<!-- Title: include/f_pc/f_pc_executor.h Pages: 1 -->
<svg width="5096pt" height="368pt"
 viewBox="0.00 0.00 5095.50 368.00" xmlns="http://www.w3.org/2000/svg" xmlns:xlink="http://www.w3.org/1999/xlink">
<g id="graph0" class="graph" transform="scale(1 1) rotate(0) translate(4 364)">
<title>include/f_pc/f_pc_executor.h</title>
<!-- Node1 -->
<g id="node1" class="node">
<title>Node1</title>
<g id="a_node1"><a xlink:title=" ">
<polygon fill="#999999" stroke="#666666" points="4440.5,-360 4300.5,-360 4300.5,-341 4440.5,-341 4440.5,-360"/>
<text text-anchor="middle" x="4370.5" y="-348" font-family="Helvetica,sans-Serif" font-size="10.00">include/f_pc/f_pc_executor.h</text>
</a>
</g>
</g>
<!-- Node2 -->
<g id="node2" class="node">
<title>Node2</title>
<g id="a_node2"><a xlink:href="f__op__actor__mng_8h.html" target="_top" xlink:title=" ">
<polygon fill="white" stroke="#666666" points="2287.5,-239 2169.5,-239 2169.5,-209 2287.5,-209 2287.5,-239"/>
<text text-anchor="start" x="2177.5" y="-227" font-family="Helvetica,sans-Serif" font-size="10.00">include/f_op/f_op_actor</text>
<text text-anchor="middle" x="2228.5" y="-216" font-family="Helvetica,sans-Serif" font-size="10.00">_mng.h</text>
</a>
</g>
</g>
<!-- Node1&#45;&gt;Node2 -->
<g id="edge1" class="edge">
<title>Node1&#45;&gt;Node2</title>
<path fill="none" stroke="#63b8ff" d="M4288.68,-344.74C3940.76,-324.52 2588.27,-245.91 2287.84,-228.45"/>
<polygon fill="#63b8ff" stroke="#63b8ff" points="4288.45,-348.24 4298.64,-345.32 4288.86,-341.25 4288.45,-348.24"/>
</g>
<!-- Node153 -->
<g id="node36" class="node">
<title>Node153</title>
<g id="a_node36"><a xlink:href="f__pc__manager_8h.html" target="_top" xlink:title=" ">
<polygon fill="#fff0f0" stroke="red" points="4099,-299.5 3958,-299.5 3958,-280.5 4099,-280.5 4099,-299.5"/>
<text text-anchor="middle" x="4028.5" y="-287.5" font-family="Helvetica,sans-Serif" font-size="10.00">include/f_pc/f_pc_manager.h</text>
</a>
</g>
</g>
<!-- Node1&#45;&gt;Node153 -->
<g id="edge43" class="edge">
<title>Node1&#45;&gt;Node153</title>
<path fill="none" stroke="#63b8ff" d="M4306.85,-338.61C4241.77,-327.48 4141.84,-310.39 4081.09,-300"/>
<polygon fill="#63b8ff" stroke="#63b8ff" points="4306.25,-342.06 4316.69,-340.3 4307.43,-335.16 4306.25,-342.06"/>
</g>
<!-- Node161 -->
<g id="node42" class="node">
<title>Node161</title>
<g id="a_node42"><a xlink:href="f__op__overlap__req_8cpp.html" target="_top" xlink:title=" ">
<polygon fill="white" stroke="#666666" points="4266.5,-239 4156.5,-239 4156.5,-209 4266.5,-209 4266.5,-239"/>
<text text-anchor="start" x="4164.5" y="-227" font-family="Helvetica,sans-Serif" font-size="10.00">src/f_op/f_op_overlap</text>
<text text-anchor="middle" x="4211.5" y="-216" font-family="Helvetica,sans-Serif" font-size="10.00">_req.cpp</text>
</a>
</g>
</g>
<!-- Node1&#45;&gt;Node161 -->
<g id="edge57" class="edge">
<title>Node1&#45;&gt;Node161</title>
<path fill="none" stroke="#63b8ff" d="M4324.97,-336.99C4304.92,-329.91 4282.01,-319.5 4264.5,-305 4242.43,-286.72 4226.09,-256.89 4217.74,-239.28"/>
<polygon fill="#63b8ff" stroke="#63b8ff" points="4323.72,-340.27 4334.32,-340.11 4325.94,-333.63 4323.72,-340.27"/>
</g>
<!-- Node163 -->
<g id="node43" class="node">
<title>Node163</title>
<g id="a_node43"><a xlink:href="f__op__scene__pause_8cpp.html" target="_top" xlink:title=" ">
<polygon fill="white" stroke="#666666" points="4390,-239 4285,-239 4285,-209 4390,-209 4390,-239"/>
<text text-anchor="start" x="4293" y="-227" font-family="Helvetica,sans-Serif" font-size="10.00">src/f_op/f_op_scene</text>
<text text-anchor="middle" x="4337.5" y="-216" font-family="Helvetica,sans-Serif" font-size="10.00">_pause.cpp</text>
</a>
</g>
</g>
<!-- Node1&#45;&gt;Node163 -->
<g id="edge58" class="edge">
<title>Node1&#45;&gt;Node163</title>
<path fill="none" stroke="#63b8ff" d="M4315.43,-336.62C4299.14,-329.97 4283.1,-319.97 4273.5,-305 4266.3,-293.78 4267.65,-286.98 4273.5,-275 4280.92,-259.79 4295.44,-247.86 4308.78,-239.46"/>
<polygon fill="#63b8ff" stroke="#63b8ff" points="4314.1,-339.86 4324.69,-340.01 4316.5,-333.28 4314.1,-339.86"/>
</g>
<!-- Node120 -->
<g id="node44" class="node">
<title>Node120</title>
<g id="a_node44"><a xlink:href="f__pc__manager_8cpp.html" target="_top" xlink:title=" ">
<polygon fill="white" stroke="#666666" points="4542.5,-233.5 4408.5,-233.5 4408.5,-214.5 4542.5,-214.5 4542.5,-233.5"/>
<text text-anchor="middle" x="4475.5" y="-221.5" font-family="Helvetica,sans-Serif" font-size="10.00">src/f_pc/f_pc_manager.cpp</text>
</a>
</g>
</g>
<!-- Node1&#45;&gt;Node120 -->
<g id="edge63" class="edge">
<title>Node1&#45;&gt;Node120</title>
<path fill="none" stroke="#63b8ff" d="M4338.05,-335.18C4325.86,-328.01 4313.31,-318.02 4306.5,-305 4300.32,-293.18 4298.52,-285.68 4306.5,-275 4314.44,-264.37 4389.24,-245.18 4436.63,-233.92"/>
<polygon fill="#63b8ff" stroke="#63b8ff" points="4336.27,-338.2 4346.74,-339.84 4339.58,-332.03 4336.27,-338.2"/>
</g>
<!-- Node165 -->
<g id="node45" class="node">
<title>Node165</title>
<g id="a_node45"><a xlink:href="f__op__overlap__mng_8cpp.html" target="_top" xlink:title=" ">
<polygon fill="white" stroke="#666666" points="4425.5,-305 4315.5,-305 4315.5,-275 4425.5,-275 4425.5,-305"/>
<text text-anchor="start" x="4323.5" y="-293" font-family="Helvetica,sans-Serif" font-size="10.00">src/f_op/f_op_overlap</text>
<text text-anchor="middle" x="4370.5" y="-282" font-family="Helvetica,sans-Serif" font-size="10.00">_mng.cpp</text>
</a>
</g>
</g>
<!-- Node1&#45;&gt;Node165 -->
<g id="edge56" class="edge">
<title>Node1&#45;&gt;Node165</title>
<path fill="none" stroke="#63b8ff" d="M4370.5,-329.51C4370.5,-321.49 4370.5,-312.43 4370.5,-305.11"/>
<polygon fill="#63b8ff" stroke="#63b8ff" points="4367,-329.35 4370.5,-339.35 4374,-329.35 4367,-329.35"/>
</g>
<!-- Node166 -->
<g id="node46" class="node">
<title>Node166</title>
<g id="a_node46"><a xlink:href="f__op__scene__req_8cpp.html" target="_top" xlink:title=" ">
<polygon fill="white" stroke="#666666" points="4549,-305 4444,-305 4444,-275 4549,-275 4549,-305"/>
<text text-anchor="start" x="4452" y="-293" font-family="Helvetica,sans-Serif" font-size="10.00">src/f_op/f_op_scene</text>
<text text-anchor="middle" x="4496.5" y="-282" font-family="Helvetica,sans-Serif" font-size="10.00">_req.cpp</text>
</a>
</g>
</g>
<!-- Node1&#45;&gt;Node166 -->
<g id="edge59" class="edge">
<title>Node1&#45;&gt;Node166</title>
<path fill="none" stroke="#63b8ff" d="M4399.85,-335.87C4419.52,-326.74 4445.38,-314.74 4465.4,-305.44"/>
<polygon fill="#63b8ff" stroke="#63b8ff" points="4398.61,-332.59 4391.01,-339.98 4401.55,-338.94 4398.61,-332.59"/>
</g>
<!-- Node167 -->
<g id="node47" class="node">
<title>Node167</title>
<g id="a_node47"><a xlink:href="f__pc__create__req_8cpp.html" target="_top" xlink:title=" ">
<polygon fill="white" stroke="#666666" points="4673.5,-305 4567.5,-305 4567.5,-275 4673.5,-275 4673.5,-305"/>
<text text-anchor="start" x="4575.5" y="-293" font-family="Helvetica,sans-Serif" font-size="10.00">src/f_pc/f_pc_create</text>
<text text-anchor="middle" x="4620.5" y="-282" font-family="Helvetica,sans-Serif" font-size="10.00">_req.cpp</text>
</a>
</g>
</g>
<!-- Node1&#45;&gt;Node167 -->
<g id="edge60" class="edge">
<title>Node1&#45;&gt;Node167</title>
<path fill="none" stroke="#63b8ff" d="M4419.68,-337.99C4462.27,-328.03 4523.73,-313.64 4567.43,-303.42"/>
<polygon fill="#63b8ff" stroke="#63b8ff" points="4419.15,-334.52 4410.22,-340.21 4420.75,-341.34 4419.15,-334.52"/>
</g>
<!-- Node168 -->
<g id="node48" class="node">
<title>Node168</title>
<g id="a_node48"><a xlink:href="f__pc__deletor_8cpp.html" target="_top" xlink:title=" ">
<polygon fill="white" stroke="#666666" points="4817.5,-299.5 4691.5,-299.5 4691.5,-280.5 4817.5,-280.5 4817.5,-299.5"/>
<text text-anchor="middle" x="4754.5" y="-287.5" font-family="Helvetica,sans-Serif" font-size="10.00">src/f_pc/f_pc_deletor.cpp</text>
</a>
</g>
</g>
<!-- Node1&#45;&gt;Node168 -->
<g id="edge61" class="edge">
<title>Node1&#45;&gt;Node168</title>
<path fill="none" stroke="#63b8ff" d="M4451.73,-339.05C4514.8,-330.67 4604.37,-318.16 4682.5,-305 4691.54,-303.48 4701.19,-301.7 4710.39,-299.94"/>
<polygon fill="#63b8ff" stroke="#63b8ff" points="4451.62,-335.54 4442.17,-340.32 4452.54,-342.48 4451.62,-335.54"/>
</g>
<!-- Node169 -->
<g id="node49" class="node">
<title>Node169</title>
<g id="a_node49"><a xlink:href="f__pc__executor_8cpp.html" target="_top" xlink:title=" ">
<polygon fill="white" stroke="#666666" points="4969.5,-299.5 4835.5,-299.5 4835.5,-280.5 4969.5,-280.5 4969.5,-299.5"/>
<text text-anchor="middle" x="4902.5" y="-287.5" font-family="Helvetica,sans-Serif" font-size="10.00">src/f_pc/f_pc_executor.cpp</text>
</a>
</g>
</g>
<!-- Node1&#45;&gt;Node169 -->
<g id="edge62" class="edge">
<title>Node1&#45;&gt;Node169</title>
<path fill="none" stroke="#63b8ff" d="M4452.02,-343.64C4543.45,-336.59 4696.01,-323.35 4826.5,-305 4836.46,-303.6 4847.11,-301.82 4857.19,-300"/>
<polygon fill="#63b8ff" stroke="#63b8ff" points="4451.85,-340.15 4442.14,-344.4 4452.38,-347.13 4451.85,-340.15"/>
</g>
<!-- Node170 -->
<g id="node50" class="node">
<title>Node170</title>
<g id="a_node50"><a xlink:href="f__pc__node__req_8cpp.html" target="_top" xlink:title=" ">
<polygon fill="white" stroke="#666666" points="5087.5,-305 4987.5,-305 4987.5,-275 5087.5,-275 5087.5,-305"/>
<text text-anchor="start" x="4995.5" y="-293" font-family="Helvetica,sans-Serif" font-size="10.00">src/f_pc/f_pc_node</text>
<text text-anchor="middle" x="5037.5" y="-282" font-family="Helvetica,sans-Serif" font-size="10.00">_req.cpp</text>
</a>
</g>
</g>
<!-- Node1&#45;&gt;Node170 -->
<g id="edge64" class="edge">
<title>Node1&#45;&gt;Node170</title>
<path fill="none" stroke="#63b8ff" d="M4452.01,-347.67C4569.12,-344.1 4791.48,-333.84 4978.5,-305 4981.31,-304.57 4984.18,-304.07 4987.07,-303.53"/>
<polygon fill="#63b8ff" stroke="#63b8ff" points="4452.07,-344.17 4442.18,-347.96 4452.28,-351.16 4452.07,-344.17"/>
</g>
<!-- Node3 -->
<g id="node3" class="node">
<title>Node3</title>
<g id="a_node3"><a xlink:href="d__a__alink_8h.html" target="_top" xlink:title=" ">
<polygon fill="#fff0f0" stroke="red" points="599.5,-85 483.5,-85 483.5,-66 599.5,-66 599.5,-85"/>
<text text-anchor="middle" x="541.5" y="-73" font-family="Helvetica,sans-Serif" font-size="10.00">include/d/a/d_a_alink.h</text>
</a>
</g>
</g>
<!-- Node2&#45;&gt;Node3 -->
<g id="edge2" class="edge">
<title>Node2&#45;&gt;Node3</title>
<path fill="none" stroke="#63b8ff" d="M2157.67,-223.32C1847.56,-224.4 622.24,-225.34 560.5,-173 534.58,-151.03 537.48,-104.9 540.05,-85.45"/>
<polygon fill="#63b8ff" stroke="#63b8ff" points="2157.67,-226.82 2167.66,-223.28 2157.64,-219.82 2157.67,-226.82"/>
</g>
<!-- Node14 -->
<g id="node4" class="node">
<title>Node14</title>
<g id="a_node4"><a xlink:href="d__a__alink_8cpp.html" target="_top" xlink:title=" ">
<polygon fill="white" stroke="#666666" points="3364,-19 3255,-19 3255,0 3364,0 3364,-19"/>
<text text-anchor="middle" x="3309.5" y="-7" font-family="Helvetica,sans-Serif" font-size="10.00">src/d/a/d_a_alink.cpp</text>
</a>
</g>
</g>
<!-- Node2&#45;&gt;Node14 -->
<g id="edge31" class="edge">
<title>Node2&#45;&gt;Node14</title>
<path fill="none" stroke="#63b8ff" d="M2299.22,-222.63C2552.93,-221 3408.55,-212.58 3524.5,-173 3580.29,-153.96 3605.5,-148.41 3632.5,-96 3640.85,-79.8 3644.47,-68.74 3632.5,-55 3598.37,-15.85 3447.21,-9.96 3364.33,-9.77"/>
<polygon fill="#63b8ff" stroke="#63b8ff" points="2299.44,-219.13 2289.46,-222.7 2299.48,-226.13 2299.44,-219.13"/>
</g>
<!-- Node126 -->
<g id="node5" class="node">
<title>Node126</title>
<g id="a_node5"><a xlink:href="d__a__obj__item_8h.html" target="_top" xlink:title=" ">
<polygon fill="#fff0f0" stroke="red" points="3738,-167.5 3637,-167.5 3637,-137.5 3738,-137.5 3738,-167.5"/>
<text text-anchor="start" x="3645" y="-155.5" font-family="Helvetica,sans-Serif" font-size="10.00">include/d/a/d_a_obj</text>
<text text-anchor="middle" x="3687.5" y="-144.5" font-family="Helvetica,sans-Serif" font-size="10.00">_item.h</text>
</a>
</g>
</g>
<!-- Node2&#45;&gt;Node126 -->
<g id="edge4" class="edge">
<title>Node2&#45;&gt;Node126</title>
<path fill="none" stroke="#63b8ff" d="M2299.14,-222.85C2545.2,-221.94 3363.78,-215.72 3622.5,-173 3629.82,-171.79 3637.48,-170 3644.86,-167.98"/>
<polygon fill="#63b8ff" stroke="#63b8ff" points="2299.36,-219.35 2289.37,-222.88 2299.38,-226.35 2299.36,-219.35"/>
</g>
<!-- Node127 -->
<g id="node6" class="node">
<title>Node127</title>
<g id="a_node6"><a xlink:href="d__a__obj__ss__base_8h.html" target="_top" xlink:title=" ">
<polygon fill="#fff0f0" stroke="red" points="101,-167.5 0,-167.5 0,-137.5 101,-137.5 101,-167.5"/>
<text text-anchor="start" x="8" y="-155.5" font-family="Helvetica,sans-Serif" font-size="10.00">include/d/a/d_a_obj</text>
<text text-anchor="middle" x="50.5" y="-144.5" font-family="Helvetica,sans-Serif" font-size="10.00">_ss_base.h</text>
</a>
</g>
</g>
<!-- Node2&#45;&gt;Node127 -->
<g id="edge5" class="edge">
<title>Node2&#45;&gt;Node127</title>
<path fill="none" stroke="#63b8ff" d="M2157.86,-222.57C1813.01,-220.31 314.64,-208.51 109.5,-173 102.7,-171.82 95.61,-170.01 88.8,-167.97"/>
<polygon fill="#63b8ff" stroke="#63b8ff" points="2157.62,-226.07 2167.65,-222.63 2157.67,-219.07 2157.62,-226.07"/>
</g>
<!-- Node129 -->
<g id="node7" class="node">
<title>Node129</title>
<g id="a_node7"><a xlink:href="d__bomb_8h.html" target="_top" xlink:title=" ">
<polygon fill="white" stroke="#666666" points="3256,-162 3155,-162 3155,-143 3256,-143 3256,-162"/>
<text text-anchor="middle" x="3205.5" y="-150" font-family="Helvetica,sans-Serif" font-size="10.00">include/d/d_bomb.h</text>
</a>
</g>
</g>
<!-- Node2&#45;&gt;Node129 -->
<g id="edge6" class="edge">
<title>Node2&#45;&gt;Node129</title>
<path fill="none" stroke="#63b8ff" d="M2299.33,-221.28C2484.39,-216.45 2979.17,-201.21 3140.5,-173 3154.08,-170.63 3168.82,-166.35 3180.83,-162.4"/>
<polygon fill="#63b8ff" stroke="#63b8ff" points="2299.28,-217.78 2289.37,-221.54 2299.46,-224.78 2299.28,-217.78"/>
</g>
<!-- Node130 -->
<g id="node8" class="node">
<title>Node130</title>
<g id="a_node8"><a xlink:href="d__bomb_8cpp.html" target="_top" xlink:title=" ">
<polygon fill="white" stroke="#666666" points="3171.5,-85 3077.5,-85 3077.5,-66 3171.5,-66 3171.5,-85"/>
<text text-anchor="middle" x="3124.5" y="-73" font-family="Helvetica,sans-Serif" font-size="10.00">src/d/d_bomb.cpp</text>
</a>
</g>
</g>
<!-- Node2&#45;&gt;Node130 -->
<g id="edge36" class="edge">
<title>Node2&#45;&gt;Node130</title>
<path fill="none" stroke="#63b8ff" d="M2299.33,-223.19C2493.41,-223.1 3023.48,-218.65 3086.5,-173 3115.66,-151.87 3122.45,-104.86 3124.03,-85.3"/>
<polygon fill="#63b8ff" stroke="#63b8ff" points="2299.38,-219.69 2289.38,-223.19 2299.38,-226.69 2299.38,-219.69"/>
</g>
<!-- Node131 -->
<g id="node9" class="node">
<title>Node131</title>
<g id="a_node9"><a xlink:href="d__door__param2_8h.html" target="_top" xlink:title=" ">
<polygon fill="#fff0f0" stroke="red" points="252,-162 119,-162 119,-143 252,-143 252,-162"/>
<text text-anchor="middle" x="185.5" y="-150" font-family="Helvetica,sans-Serif" font-size="10.00">include/d/d_door_param2.h</text>
</a>
</g>
</g>
<!-- Node2&#45;&gt;Node131 -->
<g id="edge9" class="edge">
<title>Node2&#45;&gt;Node131</title>
<path fill="none" stroke="#63b8ff" d="M2157.67,-223.37C1851.2,-224.64 637.87,-226.14 260.5,-173 244.78,-170.79 227.62,-166.47 213.68,-162.46"/>
<polygon fill="#63b8ff" stroke="#63b8ff" points="2157.54,-226.87 2167.52,-223.33 2157.51,-219.87 2157.54,-226.87"/>
</g>
<!-- Node133 -->
<g id="node10" class="node">
<title>Node133</title>
<g id="a_node10"><a xlink:href="d__a__arrow_8h.html" target="_top" xlink:title=" ">
<polygon fill="white" stroke="#666666" points="371,-167.5 270,-167.5 270,-137.5 371,-137.5 371,-167.5"/>
<text text-anchor="start" x="278" y="-155.5" font-family="Helvetica,sans-Serif" font-size="10.00">include/rel/d/a/d_a</text>
<text text-anchor="middle" x="320.5" y="-144.5" font-family="Helvetica,sans-Serif" font-size="10.00">_arrow/d_a_arrow.h</text>
</a>
</g>
</g>
<!-- Node2&#45;&gt;Node133 -->
<g id="edge10" class="edge">
<title>Node2&#45;&gt;Node133</title>
<path fill="none" stroke="#63b8ff" d="M2157.84,-222.29C1840.86,-218.93 557.71,-203.54 380.5,-173 373.59,-171.81 366.39,-170 359.47,-167.94"/>
<polygon fill="#63b8ff" stroke="#63b8ff" points="2157.6,-225.78 2167.64,-222.39 2157.67,-218.78 2157.6,-225.78"/>
</g>
<!-- Node134 -->
<g id="node11" class="node">
<title>Node134</title>
<g id="a_node11"><a xlink:href="d__a__boomerang_8h.html" target="_top" xlink:title=" ">
<polygon fill="white" stroke="#666666" points="3462,-167.5 3313,-167.5 3313,-137.5 3462,-137.5 3462,-167.5"/>
<text text-anchor="start" x="3321" y="-155.5" font-family="Helvetica,sans-Serif" font-size="10.00">include/rel/d/a/d_a</text>
<text text-anchor="middle" x="3387.5" y="-144.5" font-family="Helvetica,sans-Serif" font-size="10.00">_boomerang/d_a_boomerang.h</text>
</a>
</g>
</g>
<!-- Node2&#45;&gt;Node134 -->
<g id="edge11" class="edge">
<title>Node2&#45;&gt;Node134</title>
<path fill="none" stroke="#63b8ff" d="M2299.38,-223.81C2471.43,-224.88 2924.53,-222.35 3298.5,-173 3308.22,-171.72 3318.46,-169.91 3328.38,-167.91"/>
<polygon fill="#63b8ff" stroke="#63b8ff" points="2299.51,-220.31 2289.48,-223.74 2299.46,-227.31 2299.51,-220.31"/>
</g>
<!-- Node75 -->
<g id="node12" class="node">
<title>Node75</title>
<g id="a_node12"><a xlink:href="d__a__player_8cpp.html" target="_top" xlink:title=" ">
<polygon fill="white" stroke="#666666" points="3341.5,-85 3227.5,-85 3227.5,-66 3341.5,-66 3341.5,-85"/>
<text text-anchor="middle" x="3284.5" y="-73" font-family="Helvetica,sans-Serif" font-size="10.00">src/d/a/d_a_player.cpp</text>
</a>
</g>
</g>
<!-- Node2&#45;&gt;Node75 -->
<g id="edge32" class="edge">
<title>Node2&#45;&gt;Node75</title>
<path fill="none" stroke="#63b8ff" d="M2299.17,-221.95C2526.74,-218.25 3227.84,-204.34 3264.5,-173 3290.38,-150.88 3288.11,-104.84 3285.82,-85.43"/>
<polygon fill="#63b8ff" stroke="#63b8ff" points="2299.19,-218.44 2289.25,-222.11 2299.31,-225.44 2299.19,-218.44"/>
</g>
<!-- Node135 -->
<g id="node13" class="node">
<title>Node135</title>
<g id="a_node13"><a xlink:href="d__a__canoe_8h.html" target="_top" xlink:title=" ">
<polygon fill="white" stroke="#666666" points="675.5,-167.5 569.5,-167.5 569.5,-137.5 675.5,-137.5 675.5,-167.5"/>
<text text-anchor="start" x="577.5" y="-155.5" font-family="Helvetica,sans-Serif" font-size="10.00">include/rel/d/a/d_a</text>
<text text-anchor="middle" x="622.5" y="-144.5" font-family="Helvetica,sans-Serif" font-size="10.00">_canoe/d_a_canoe.h</text>
</a>
</g>
</g>
<!-- Node2&#45;&gt;Node135 -->
<g id="edge13" class="edge">
<title>Node2&#45;&gt;Node135</title>
<path fill="none" stroke="#63b8ff" d="M2157.86,-223.26C1894.96,-223.83 973.52,-222.18 684.5,-173 677.38,-171.79 669.95,-169.96 662.8,-167.91"/>
<polygon fill="#63b8ff" stroke="#63b8ff" points="2157.64,-226.76 2167.63,-223.24 2157.62,-219.76 2157.64,-226.76"/>
</g>
<!-- Node136 -->
<g id="node14" class="node">
<title>Node136</title>
<g id="a_node14"><a xlink:href="d__a__crod_8h.html" target="_top" xlink:title=" ">
<polygon fill="white" stroke="#666666" points="3059.5,-90.5 2963.5,-90.5 2963.5,-60.5 3059.5,-60.5 3059.5,-90.5"/>
<text text-anchor="start" x="2971.5" y="-78.5" font-family="Helvetica,sans-Serif" font-size="10.00">include/rel/d/a/d_a</text>
<text text-anchor="middle" x="3011.5" y="-67.5" font-family="Helvetica,sans-Serif" font-size="10.00">_crod/d_a_crod.h</text>
</a>
</g>
</g>
<!-- Node2&#45;&gt;Node136 -->
<g id="edge14" class="edge">
<title>Node2&#45;&gt;Node136</title>
<path fill="none" stroke="#63b8ff" d="M2299.11,-221.4C2496.66,-216.59 3042.27,-200.84 3068.5,-173 3092.25,-147.79 3055.42,-110.99 3030.77,-90.9"/>
<polygon fill="#63b8ff" stroke="#63b8ff" points="2299.15,-217.9 2289.24,-221.64 2299.32,-224.9 2299.15,-217.9"/>
</g>
<!-- Node137 -->
<g id="node15" class="node">
<title>Node137</title>
<g id="a_node15"><a xlink:href="d__a__scene__exit_8h.html" target="_top" xlink:title=" ">
<polygon fill="white" stroke="#666666" points="3479,-96 3360,-96 3360,-55 3479,-55 3479,-96"/>
<text text-anchor="start" x="3368" y="-84" font-family="Helvetica,sans-Serif" font-size="10.00">include/rel/d/a/d_a</text>
<text text-anchor="start" x="3368" y="-73" font-family="Helvetica,sans-Serif" font-size="10.00">_scene_exit/d_a_scene</text>
<text text-anchor="middle" x="3419.5" y="-62" font-family="Helvetica,sans-Serif" font-size="10.00">_exit.h</text>
</a>
</g>
</g>
<!-- Node2&#45;&gt;Node137 -->
<g id="edge16" class="edge">
<title>Node2&#45;&gt;Node137</title>
<path fill="none" stroke="#63b8ff" d="M2299.26,-222.83C2556.58,-221.86 3429.74,-215.44 3470.5,-173 3492.03,-150.59 3465.04,-117.29 3442.87,-96.25"/>
<polygon fill="#63b8ff" stroke="#63b8ff" points="2299.34,-219.33 2289.35,-222.86 2299.36,-226.33 2299.34,-219.33"/>
</g>
<!-- Node138 -->
<g id="node16" class="node">
<title>Node138</title>
<g id="a_node16"><a xlink:href="d__a__tboxSw_8h.html" target="_top" xlink:title=" ">
<polygon fill="white" stroke="#666666" points="811.5,-167.5 693.5,-167.5 693.5,-137.5 811.5,-137.5 811.5,-167.5"/>
<text text-anchor="start" x="701.5" y="-155.5" font-family="Helvetica,sans-Serif" font-size="10.00">include/rel/d/a/d_a</text>
<text text-anchor="middle" x="752.5" y="-144.5" font-family="Helvetica,sans-Serif" font-size="10.00">_tboxSw/d_a_tboxSw.h</text>
</a>
</g>
</g>
<!-- Node2&#45;&gt;Node138 -->
<g id="edge18" class="edge">
<title>Node2&#45;&gt;Node138</title>
<path fill="none" stroke="#63b8ff" d="M2158.02,-222.77C1910.58,-221.59 1082.38,-214.56 820.5,-173 812.86,-171.79 804.86,-169.99 797.14,-167.97"/>
<polygon fill="#63b8ff" stroke="#63b8ff" points="2157.83,-226.26 2167.84,-222.81 2157.86,-219.26 2157.83,-226.26"/>
</g>
<!-- Node81 -->
<g id="node17" class="node">
<title>Node81</title>
<g id="a_node17"><a xlink:href="d__a__tag__ajnot_8h.html" target="_top" xlink:title=" ">
<polygon fill="white" stroke="#666666" points="947.5,-173 829.5,-173 829.5,-132 947.5,-132 947.5,-173"/>
<text text-anchor="start" x="837.5" y="-161" font-family="Helvetica,sans-Serif" font-size="10.00">include/rel/d/a/tag</text>
<text text-anchor="start" x="837.5" y="-150" font-family="Helvetica,sans-Serif" font-size="10.00">/d_a_tag_ajnot/d_a_tag</text>
<text text-anchor="middle" x="888.5" y="-139" font-family="Helvetica,sans-Serif" font-size="10.00">_ajnot.h</text>
</a>
</g>
</g>
<!-- Node2&#45;&gt;Node81 -->
<g id="edge19" class="edge">
<title>Node2&#45;&gt;Node81</title>
<path fill="none" stroke="#63b8ff" d="M2157.92,-222.45C1926.27,-220.3 1190.66,-210.62 956.5,-173 953.59,-172.53 950.63,-171.98 947.65,-171.37"/>
<polygon fill="#63b8ff" stroke="#63b8ff" points="2157.67,-225.95 2167.7,-222.54 2157.73,-218.95 2157.67,-225.95"/>
</g>
<!-- Node139 -->
<g id="node18" class="node">
<title>Node139</title>
<g id="a_node18"><a xlink:href="d__a__tag__escape_8h.html" target="_top" xlink:title=" ">
<polygon fill="white" stroke="#666666" points="1075.5,-173 965.5,-173 965.5,-132 1075.5,-132 1075.5,-173"/>
<text text-anchor="start" x="973.5" y="-161" font-family="Helvetica,sans-Serif" font-size="10.00">include/rel/d/a/tag</text>
<text text-anchor="start" x="973.5" y="-150" font-family="Helvetica,sans-Serif" font-size="10.00">/d_a_tag_escape/d_a</text>
<text text-anchor="middle" x="1020.5" y="-139" font-family="Helvetica,sans-Serif" font-size="10.00">_tag_escape.h</text>
</a>
</g>
</g>
<!-- Node2&#45;&gt;Node139 -->
<g id="edge20" class="edge">
<title>Node2&#45;&gt;Node139</title>
<path fill="none" stroke="#63b8ff" d="M2157.81,-222.24C1941.79,-219.55 1292.42,-208.63 1084.5,-173 1081.64,-172.51 1078.72,-171.93 1075.8,-171.28"/>
<polygon fill="#63b8ff" stroke="#63b8ff" points="2157.74,-225.74 2167.78,-222.36 2157.82,-218.74 2157.74,-225.74"/>
</g>
<!-- Node140 -->
<g id="node19" class="node">
<title>Node140</title>
<g id="a_node19"><a xlink:href="d__a__tag__guard_8h.html" target="_top" xlink:title=" ">
<polygon fill="white" stroke="#666666" points="1215,-173 1094,-173 1094,-132 1215,-132 1215,-173"/>
<text text-anchor="start" x="1102" y="-161" font-family="Helvetica,sans-Serif" font-size="10.00">include/rel/d/a/tag</text>
<text text-anchor="start" x="1102" y="-150" font-family="Helvetica,sans-Serif" font-size="10.00">/d_a_tag_guard/d_a_tag</text>
<text text-anchor="middle" x="1154.5" y="-139" font-family="Helvetica,sans-Serif" font-size="10.00">_guard.h</text>
</a>
</g>
</g>
<!-- Node2&#45;&gt;Node140 -->
<g id="edge21" class="edge">
<title>Node2&#45;&gt;Node140</title>
<path fill="none" stroke="#63b8ff" d="M2157.85,-221.52C1960.24,-217.05 1404.6,-202.2 1224.5,-173 1221.51,-172.52 1218.47,-171.95 1215.41,-171.32"/>
<polygon fill="#63b8ff" stroke="#63b8ff" points="2157.64,-225.02 2167.71,-221.74 2157.79,-218.02 2157.64,-225.02"/>
</g>
<!-- Node141 -->
<g id="node20" class="node">
<title>Node141</title>
<g id="a_node20"><a xlink:href="d__a__tag__instruction_8h.html" target="_top" xlink:title=" ">
<polygon fill="white" stroke="#666666" points="1345.5,-173 1233.5,-173 1233.5,-132 1345.5,-132 1345.5,-173"/>
<text text-anchor="start" x="1241.5" y="-161" font-family="Helvetica,sans-Serif" font-size="10.00">include/rel/d/a/tag</text>
<text text-anchor="start" x="1241.5" y="-150" font-family="Helvetica,sans-Serif" font-size="10.00">/d_a_tag_instruction</text>
<text text-anchor="middle" x="1289.5" y="-139" font-family="Helvetica,sans-Serif" font-size="10.00">/d_a_tag_instruction.h</text>
</a>
</g>
</g>
<!-- Node2&#45;&gt;Node141 -->
<g id="edge22" class="edge">
<title>Node2&#45;&gt;Node141</title>
<path fill="none" stroke="#63b8ff" d="M2157.81,-221.09C1978.31,-215.9 1508.29,-200.08 1354.5,-173 1351.6,-172.49 1348.65,-171.89 1345.68,-171.23"/>
<polygon fill="#63b8ff" stroke="#63b8ff" points="2157.6,-224.59 2167.69,-221.37 2157.8,-217.59 2157.6,-224.59"/>
</g>
<!-- Node142 -->
<g id="node21" class="node">
<title>Node142</title>
<g id="a_node21"><a xlink:href="d__a__tag__lv5soup_8h.html" target="_top" xlink:title=" ">
<polygon fill="white" stroke="#666666" points="1475.5,-173 1363.5,-173 1363.5,-132 1475.5,-132 1475.5,-173"/>
<text text-anchor="start" x="1371.5" y="-161" font-family="Helvetica,sans-Serif" font-size="10.00">include/rel/d/a/tag</text>
<text text-anchor="start" x="1371.5" y="-150" font-family="Helvetica,sans-Serif" font-size="10.00">/d_a_tag_lv5soup/d_a</text>
<text text-anchor="middle" x="1419.5" y="-139" font-family="Helvetica,sans-Serif" font-size="10.00">_tag_lv5soup.h</text>
</a>
</g>
</g>
<!-- Node2&#45;&gt;Node142 -->
<g id="edge23" class="edge">
<title>Node2&#45;&gt;Node142</title>
<path fill="none" stroke="#63b8ff" d="M2157.91,-223.5C2025,-223.28 1728.96,-217.3 1484.5,-173 1481.6,-172.47 1478.65,-171.87 1475.68,-171.2"/>
<polygon fill="#63b8ff" stroke="#63b8ff" points="2157.6,-227 2167.6,-223.5 2157.6,-220 2157.6,-227"/>
</g>
<!-- Node143 -->
<g id="node22" class="node">
<title>Node143</title>
<g id="a_node22"><a xlink:href="d__a__tag__magne_8h.html" target="_top" xlink:title=" ">
<polygon fill="#fff0f0" stroke="red" points="3623.5,-96 3497.5,-96 3497.5,-55 3623.5,-55 3623.5,-96"/>
<text text-anchor="start" x="3505.5" y="-84" font-family="Helvetica,sans-Serif" font-size="10.00">include/rel/d/a/tag</text>
<text text-anchor="start" x="3505.5" y="-73" font-family="Helvetica,sans-Serif" font-size="10.00">/d_a_tag_magne/d_a_tag</text>
<text text-anchor="middle" x="3560.5" y="-62" font-family="Helvetica,sans-Serif" font-size="10.00">_magne.h</text>
</a>
</g>
</g>
<!-- Node2&#45;&gt;Node143 -->
<g id="edge24" class="edge">
<title>Node2&#45;&gt;Node143</title>
<path fill="none" stroke="#63b8ff" d="M2299.1,-221.88C2556.95,-217.55 3435.65,-200.83 3488.5,-173 3519.94,-156.44 3541.38,-119.32 3552.23,-96.25"/>
<polygon fill="#63b8ff" stroke="#63b8ff" points="2299.1,-218.37 2289.16,-222.04 2299.22,-225.37 2299.1,-218.37"/>
</g>
<!-- Node144 -->
<g id="node23" class="node">
<title>Node144</title>
<g id="a_node23"><a xlink:href="d__a__tag__mmsg_8h.html" target="_top" xlink:title=" ">
<polygon fill="white" stroke="#666666" points="513.5,-173 389.5,-173 389.5,-132 513.5,-132 513.5,-173"/>
<text text-anchor="start" x="397.5" y="-161" font-family="Helvetica,sans-Serif" font-size="10.00">include/rel/d/a/tag</text>
<text text-anchor="start" x="397.5" y="-150" font-family="Helvetica,sans-Serif" font-size="10.00">/d_a_tag_mmsg/d_a_tag</text>
<text text-anchor="middle" x="451.5" y="-139" font-family="Helvetica,sans-Serif" font-size="10.00">_mmsg.h</text>
</a>
</g>
</g>
<!-- Node2&#45;&gt;Node144 -->
<g id="edge26" class="edge">
<title>Node2&#45;&gt;Node144</title>
<path fill="none" stroke="#63b8ff" d="M2157.84,-223.01C1878.38,-222.72 849.94,-218.53 527.5,-173 523.05,-172.37 518.48,-171.58 513.9,-170.68"/>
<polygon fill="#63b8ff" stroke="#63b8ff" points="2157.51,-226.51 2167.51,-223.02 2157.51,-219.51 2157.51,-226.51"/>
</g>
<!-- Node145 -->
<g id="node24" class="node">
<title>Node145</title>
<g id="a_node24"><a xlink:href="d__a__tag__setBall_8h.html" target="_top" xlink:title=" ">
<polygon fill="white" stroke="#666666" points="1601.5,-173 1493.5,-173 1493.5,-132 1601.5,-132 1601.5,-173"/>
<text text-anchor="start" x="1501.5" y="-161" font-family="Helvetica,sans-Serif" font-size="10.00">include/rel/d/a/tag</text>
<text text-anchor="start" x="1501.5" y="-150" font-family="Helvetica,sans-Serif" font-size="10.00">/d_a_tag_setBall/d_a</text>
<text text-anchor="middle" x="1547.5" y="-139" font-family="Helvetica,sans-Serif" font-size="10.00">_tag_setBall.h</text>
</a>
</g>
</g>
<!-- Node2&#45;&gt;Node145 -->
<g id="edge28" class="edge">
<title>Node2&#45;&gt;Node145</title>
<path fill="none" stroke="#63b8ff" d="M2157.65,-222.3C2042.06,-220.04 1806.19,-210.73 1610.5,-173 1607.69,-172.46 1604.83,-171.84 1601.95,-171.15"/>
<polygon fill="#63b8ff" stroke="#63b8ff" points="2157.55,-225.8 2167.61,-222.48 2157.67,-218.8 2157.55,-225.8"/>
</g>
<!-- Node146 -->
<g id="node25" class="node">
<title>Node146</title>
<g id="a_node25"><a xlink:href="d__a__tag__setrestart_8h.html" target="_top" xlink:title=" ">
<polygon fill="white" stroke="#666666" points="1727.5,-173 1619.5,-173 1619.5,-132 1727.5,-132 1727.5,-173"/>
<text text-anchor="start" x="1627.5" y="-161" font-family="Helvetica,sans-Serif" font-size="10.00">include/rel/d/a/tag</text>
<text text-anchor="start" x="1627.5" y="-150" font-family="Helvetica,sans-Serif" font-size="10.00">/d_a_tag_setrestart</text>
<text text-anchor="middle" x="1673.5" y="-139" font-family="Helvetica,sans-Serif" font-size="10.00">/d_a_tag_setrestart.h</text>
</a>
</g>
</g>
<!-- Node2&#45;&gt;Node146 -->
<g id="edge29" class="edge">
<title>Node2&#45;&gt;Node146</title>
<path fill="none" stroke="#63b8ff" d="M2157.92,-220.24C2061.78,-215.48 1884.65,-203.14 1736.5,-173 1733.7,-172.43 1730.84,-171.78 1727.96,-171.08"/>
<polygon fill="#63b8ff" stroke="#63b8ff" points="2157.57,-223.72 2167.72,-220.71 2157.9,-216.73 2157.57,-223.72"/>
</g>
<!-- Node147 -->
<g id="node26" class="node">
<title>Node147</title>
<g id="a_node26"><a xlink:href="d__a__tag__wara__howl_8h.html" target="_top" xlink:title=" ">
<polygon fill="white" stroke="#666666" points="1859.5,-173 1745.5,-173 1745.5,-132 1859.5,-132 1859.5,-173"/>
<text text-anchor="start" x="1753.5" y="-161" font-family="Helvetica,sans-Serif" font-size="10.00">include/rel/d/a/tag</text>
<text text-anchor="start" x="1753.5" y="-150" font-family="Helvetica,sans-Serif" font-size="10.00">/d_a_tag_wara_howl/d</text>
<text text-anchor="middle" x="1802.5" y="-139" font-family="Helvetica,sans-Serif" font-size="10.00">_a_tag_wara_howl.h</text>
</a>
</g>
</g>
<!-- Node2&#45;&gt;Node147 -->
<g id="edge30" class="edge">
<title>Node2&#45;&gt;Node147</title>
<path fill="none" stroke="#63b8ff" d="M2157.77,-216.33C2084.78,-208.71 1967.88,-194.46 1868.5,-173 1865.7,-172.39 1862.84,-171.73 1859.96,-171.03"/>
<polygon fill="#63b8ff" stroke="#63b8ff" points="2157.29,-219.8 2167.59,-217.34 2158,-212.84 2157.29,-219.8"/>
</g>
<!-- Node148 -->
<g id="node27" class="node">
<title>Node148</title>
<g id="a_node27"><a xlink:href="d__bg__s__acch_8cpp.html" target="_top" xlink:title=" ">
<polygon fill="white" stroke="#666666" points="2009,-162 1878,-162 1878,-143 2009,-143 2009,-162"/>
<text text-anchor="middle" x="1943.5" y="-150" font-family="Helvetica,sans-Serif" font-size="10.00">src/d/bg/d_bg_s_acch.cpp</text>
</a>
</g>
</g>
<!-- Node2&#45;&gt;Node148 -->
<g id="edge33" class="edge">
<title>Node2&#45;&gt;Node148</title>
<path fill="none" stroke="#63b8ff" d="M2158.29,-206.83C2117.2,-197.24 2064.33,-184.72 2017.5,-173 2004.1,-169.65 1989.37,-165.8 1976.61,-162.41"/>
<polygon fill="#63b8ff" stroke="#63b8ff" points="2157.28,-210.18 2167.81,-209.04 2158.87,-203.37 2157.28,-210.18"/>
</g>
<!-- Node149 -->
<g id="node28" class="node">
<title>Node149</title>
<g id="a_node28"><a xlink:href="d__bg__s__lin__chk_8cpp.html" target="_top" xlink:title=" ">
<polygon fill="white" stroke="#666666" points="2128,-167.5 2027,-167.5 2027,-137.5 2128,-137.5 2128,-167.5"/>
<text text-anchor="start" x="2035" y="-155.5" font-family="Helvetica,sans-Serif" font-size="10.00">src/d/bg/d_bg_s_lin</text>
<text text-anchor="middle" x="2077.5" y="-144.5" font-family="Helvetica,sans-Serif" font-size="10.00">_chk.cpp</text>
</a>
</g>
</g>
<!-- Node2&#45;&gt;Node149 -->
<g id="edge34" class="edge">
<title>Node2&#45;&gt;Node149</title>
<path fill="none" stroke="#63b8ff" d="M2187.03,-203.91C2162.3,-192.53 2131.41,-178.31 2108.75,-167.88"/>
<polygon fill="#63b8ff" stroke="#63b8ff" points="2185.29,-206.97 2195.84,-207.97 2188.22,-200.61 2185.29,-206.97"/>
</g>
<!-- Node150 -->
<g id="node29" class="node">
<title>Node150</title>
<g id="a_node29"><a xlink:href="d__cc__d__nonmatching_8cpp.html" target="_top" xlink:title=" ">
<polygon fill="white" stroke="#666666" points="2311,-162 2146,-162 2146,-143 2311,-143 2311,-162"/>
<text text-anchor="middle" x="2228.5" y="-150" font-family="Helvetica,sans-Serif" font-size="10.00">src/d/cc/d_cc_d_nonmatching.cpp</text>
</a>
</g>
</g>
<!-- Node2&#45;&gt;Node150 -->
<g id="edge35" class="edge">
<title>Node2&#45;&gt;Node150</title>
<path fill="none" stroke="#63b8ff" d="M2228.5,-197.46C2228.5,-185.07 2228.5,-170.99 2228.5,-162.18"/>
<polygon fill="#63b8ff" stroke="#63b8ff" points="2225,-197.09 2228.5,-207.09 2232,-197.09 2225,-197.09"/>
</g>
<!-- Node97 -->
<g id="node30" class="node">
<title>Node97</title>
<g id="a_node30"><a xlink:href="d__insect_8cpp.html" target="_top" xlink:title=" ">
<polygon fill="white" stroke="#666666" points="2425.5,-162 2329.5,-162 2329.5,-143 2425.5,-143 2425.5,-162"/>
<text text-anchor="middle" x="2377.5" y="-150" font-family="Helvetica,sans-Serif" font-size="10.00">src/d/d_insect.cpp</text>
</a>
</g>
</g>
<!-- Node2&#45;&gt;Node97 -->
<g id="edge37" class="edge">
<title>Node2&#45;&gt;Node97</title>
<path fill="none" stroke="#63b8ff" d="M2269.64,-203.81C2298.66,-190.28 2336.19,-172.77 2358.47,-162.38"/>
<polygon fill="#63b8ff" stroke="#63b8ff" points="2268.33,-200.56 2260.74,-207.96 2271.29,-206.9 2268.33,-200.56"/>
</g>
<!-- Node151 -->
<g id="node31" class="node">
<title>Node151</title>
<g id="a_node31"><a xlink:href="d__jnt__col_8cpp.html" target="_top" xlink:title=" ">
<polygon fill="white" stroke="#666666" points="2541.5,-162 2443.5,-162 2443.5,-143 2541.5,-143 2541.5,-162"/>
<text text-anchor="middle" x="2492.5" y="-150" font-family="Helvetica,sans-Serif" font-size="10.00">src/d/d_jnt_col.cpp</text>
</a>
</g>
</g>
<!-- Node2&#45;&gt;Node151 -->
<g id="edge38" class="edge">
<title>Node2&#45;&gt;Node151</title>
<path fill="none" stroke="#63b8ff" d="M2298.88,-207.5C2338.87,-198.3 2389.74,-185.93 2434.5,-173 2445.42,-169.85 2457.34,-165.92 2467.53,-162.42"/>
<polygon fill="#63b8ff" stroke="#63b8ff" points="2298.35,-204.03 2289.38,-209.67 2299.91,-210.86 2298.35,-204.03"/>
</g>
<!-- Node49 -->
<g id="node32" class="node">
<title>Node49</title>
<g id="a_node32"><a xlink:href="d__event_8cpp.html" target="_top" xlink:title=" ">
<polygon fill="white" stroke="#666666" points="2681,-162 2560,-162 2560,-143 2681,-143 2681,-162"/>
<text text-anchor="middle" x="2620.5" y="-150" font-family="Helvetica,sans-Serif" font-size="10.00">src/d/event/d_event.cpp</text>
</a>
</g>
</g>
<!-- Node2&#45;&gt;Node49 -->
<g id="edge39" class="edge">
<title>Node2&#45;&gt;Node49</title>
<path fill="none" stroke="#63b8ff" d="M2298.95,-214.49C2364.48,-206 2464.64,-191.56 2550.5,-173 2564.06,-170.07 2578.9,-166.06 2591.4,-162.43"/>
<polygon fill="#63b8ff" stroke="#63b8ff" points="2298.91,-210.96 2289.44,-215.71 2299.8,-217.91 2298.91,-210.96"/>
</g>
<!-- Node106 -->
<g id="node33" class="node">
<title>Node106</title>
<g id="a_node33"><a xlink:href="d__event__lib_8cpp.html" target="_top" xlink:title=" ">
<polygon fill="white" stroke="#666666" points="2802,-167.5 2699,-167.5 2699,-137.5 2802,-137.5 2802,-167.5"/>
<text text-anchor="start" x="2707" y="-155.5" font-family="Helvetica,sans-Serif" font-size="10.00">src/d/event/d_event</text>
<text text-anchor="middle" x="2750.5" y="-144.5" font-family="Helvetica,sans-Serif" font-size="10.00">_lib.cpp</text>
</a>
</g>
</g>
<!-- Node2&#45;&gt;Node106 -->
<g id="edge40" class="edge">
<title>Node2&#45;&gt;Node106</title>
<path fill="none" stroke="#63b8ff" d="M2298.96,-219.77C2389.99,-214.6 2552.99,-201.91 2689.5,-173 2695.92,-171.64 2702.62,-169.87 2709.13,-167.96"/>
<polygon fill="#63b8ff" stroke="#63b8ff" points="2298.98,-216.26 2289.19,-220.31 2299.37,-223.25 2298.98,-216.26"/>
</g>
<!-- Node152 -->
<g id="node34" class="node">
<title>Node152</title>
<g id="a_node34"><a xlink:href="d__shop__item__ctrl_8cpp.html" target="_top" xlink:title=" ">
<polygon fill="white" stroke="#666666" points="2941,-167.5 2820,-167.5 2820,-137.5 2941,-137.5 2941,-167.5"/>
<text text-anchor="start" x="2828" y="-155.5" font-family="Helvetica,sans-Serif" font-size="10.00">src/d/shop/d_shop_item</text>
<text text-anchor="middle" x="2880.5" y="-144.5" font-family="Helvetica,sans-Serif" font-size="10.00">_ctrl.cpp</text>
</a>
</g>
</g>
<!-- Node2&#45;&gt;Node152 -->
<g id="edge41" class="edge">
<title>Node2&#45;&gt;Node152</title>
<path fill="none" stroke="#63b8ff" d="M2298.89,-221.17C2408.88,-217.37 2627.84,-205.99 2810.5,-173 2817.95,-171.65 2825.75,-169.87 2833.33,-167.92"/>
<polygon fill="#63b8ff" stroke="#63b8ff" points="2299.02,-217.66 2289.14,-221.5 2299.25,-224.66 2299.02,-217.66"/>
</g>
<!-- Node118 -->
<g id="node35" class="node">
<title>Node118</title>
<g id="a_node35"><a xlink:href="f__op__actor__mng_8cpp.html" target="_top" xlink:title=" ">
<polygon fill="white" stroke="#666666" points="3060,-167.5 2959,-167.5 2959,-137.5 3060,-137.5 3060,-167.5"/>
<text text-anchor="start" x="2967" y="-155.5" font-family="Helvetica,sans-Serif" font-size="10.00">src/f_op/f_op_actor</text>
<text text-anchor="middle" x="3009.5" y="-144.5" font-family="Helvetica,sans-Serif" font-size="10.00">_mng.cpp</text>
</a>
</g>
</g>
<!-- Node2&#45;&gt;Node118 -->
<g id="edge42" class="edge">
<title>Node2&#45;&gt;Node118</title>
<path fill="none" stroke="#63b8ff" d="M2298.87,-223.8C2428.72,-224.02 2714.25,-218.67 2949.5,-173 2956.06,-171.73 2962.9,-169.95 2969.51,-167.99"/>
<polygon fill="#63b8ff" stroke="#63b8ff" points="2299.07,-220.3 2289.06,-223.77 2299.05,-227.3 2299.07,-220.3"/>
</g>
<!-- Node3&#45;&gt;Node14 -->
<g id="edge3" class="edge">
<title>Node3&#45;&gt;Node14</title>
<path fill="none" stroke="#63b8ff" d="M611.32,-72.89C1001.39,-63.87 2906.03,-19.83 3254.65,-11.77"/>
<polygon fill="#63b8ff" stroke="#63b8ff" points="611.38,-69.38 601.47,-73.11 611.54,-76.38 611.38,-69.38"/>
</g>
<!-- Node129&#45;&gt;Node14 -->
<g id="edge7" class="edge">
<title>Node129&#45;&gt;Node14</title>
<path fill="none" stroke="#63b8ff" d="M3203,-131.13C3201.52,-110.08 3202.45,-77.25 3218.5,-55 3231.46,-37.03 3253.71,-25.97 3272.96,-19.37"/>
<polygon fill="#63b8ff" stroke="#63b8ff" points="3199.51,-131.39 3203.97,-141 3206.47,-130.71 3199.51,-131.39"/>
</g>
<!-- Node129&#45;&gt;Node130 -->
<g id="edge8" class="edge">
<title>Node129&#45;&gt;Node130</title>
<path fill="none" stroke="#63b8ff" d="M3187.6,-134.92C3171.1,-119.65 3147.24,-97.56 3134.1,-85.39"/>
<polygon fill="#63b8ff" stroke="#63b8ff" points="3185.06,-137.35 3194.78,-141.57 3189.82,-132.21 3185.06,-137.35"/>
</g>
<!-- Node134&#45;&gt;Node75 -->
<g id="edge12" class="edge">
<title>Node134&#45;&gt;Node75</title>
<path fill="none" stroke="#63b8ff" d="M3358.43,-130.33C3337.98,-115.44 3311.65,-96.27 3296.57,-85.29"/>
<polygon fill="#63b8ff" stroke="#63b8ff" points="3356.27,-133.09 3366.42,-136.15 3360.39,-127.43 3356.27,-133.09"/>
</g>
<!-- Node136&#45;&gt;Node14 -->
<g id="edge15" class="edge">
<title>Node136&#45;&gt;Node14</title>
<path fill="none" stroke="#63b8ff" d="M3062.42,-56.67C3064.47,-56.08 3066.5,-55.52 3068.5,-55 3131.68,-38.46 3205.74,-25.75 3254.92,-18.23"/>
<polygon fill="#63b8ff" stroke="#63b8ff" points="3061.44,-53.31 3052.89,-59.57 3063.48,-60.01 3061.44,-53.31"/>
</g>
<!-- Node137&#45;&gt;Node14 -->
<g id="edge17" class="edge">
<title>Node137&#45;&gt;Node14</title>
<path fill="none" stroke="#63b8ff" d="M3375.51,-48.9C3357.48,-38.42 3337.81,-26.97 3324.68,-19.33"/>
<polygon fill="#63b8ff" stroke="#63b8ff" points="3373.59,-51.84 3383.99,-53.84 3377.11,-45.79 3373.59,-51.84"/>
</g>
<!-- Node143&#45;&gt;Node14 -->
<g id="edge25" class="edge">
<title>Node143&#45;&gt;Node14</title>
<path fill="none" stroke="#63b8ff" d="M3486.25,-54.7C3431.63,-40.63 3379.78,-27.76 3346.02,-19.45"/>
<polygon fill="#63b8ff" stroke="#63b8ff" points="3485.19,-58.04 3495.74,-57.15 3486.94,-51.26 3485.19,-58.04"/>
</g>
<!-- Node144&#45;&gt;Node3 -->
<g id="edge27" class="edge">
<title>Node144&#45;&gt;Node3</title>
<path fill="none" stroke="#63b8ff" d="M483.56,-124.78C500.21,-110.91 519.43,-94.89 531.02,-85.24"/>
<polygon fill="#63b8ff" stroke="#63b8ff" points="481.75,-121.74 476.31,-130.83 486.23,-127.11 481.75,-121.74"/>
</g>
<!-- Node153&#45;&gt;Node2 -->
<g id="edge44" class="edge">
<title>Node153&#45;&gt;Node2</title>
<path fill="none" stroke="#63b8ff" d="M3946.6,-286.09C3638.61,-275.14 2553.87,-236.57 2287.77,-227.11"/>
<polygon fill="#63b8ff" stroke="#63b8ff" points="3946.03,-289.57 3956.15,-286.43 3946.28,-282.57 3946.03,-289.57"/>
</g>
<!-- Node154 -->
<g id="node37" class="node">
<title>Node154</title>
<g id="a_node37"><a xlink:href="f__op__kankyo_8h.html" target="_top" xlink:title=" ">
<polygon fill="#fff0f0" stroke="red" points="4068.5,-162 3934.5,-162 3934.5,-143 4068.5,-143 4068.5,-162"/>
<text text-anchor="middle" x="4001.5" y="-150" font-family="Helvetica,sans-Serif" font-size="10.00">include/f_op/f_op_kankyo.h</text>
</a>
</g>
</g>
<!-- Node153&#45;&gt;Node154 -->
<g id="edge45" class="edge">
<title>Node153&#45;&gt;Node154</title>
<path fill="none" stroke="#63b8ff" d="M4015.89,-270.89C4010.3,-261.77 4004.35,-250.27 4001.5,-239 3994.59,-211.66 3997.94,-177.8 4000.12,-162.17"/>
<polygon fill="#63b8ff" stroke="#63b8ff" points="4012.85,-272.63 4021.25,-279.08 4018.71,-268.8 4012.85,-272.63"/>
</g>
<!-- Node63 -->
<g id="node38" class="node">
<title>Node63</title>
<g id="a_node38"><a xlink:href="f__op__kankyo_8cpp.html" target="_top" xlink:title=" ">
<polygon fill="white" stroke="#666666" points="3947.5,-85 3819.5,-85 3819.5,-66 3947.5,-66 3947.5,-85"/>
<text text-anchor="middle" x="3883.5" y="-73" font-family="Helvetica,sans-Serif" font-size="10.00">src/f_op/f_op_kankyo.cpp</text>
</a>
</g>
</g>
<!-- Node153&#45;&gt;Node63 -->
<g id="edge52" class="edge">
<title>Node153&#45;&gt;Node63</title>
<path fill="none" stroke="#63b8ff" d="M3946.34,-283.04C3884,-276.6 3805.68,-263.75 3785.5,-239 3755.45,-202.14 3761.55,-173.09 3785.5,-132 3799.48,-108.01 3828.11,-93.56 3850.83,-85.45"/>
<polygon fill="#63b8ff" stroke="#63b8ff" points="3945.98,-286.52 3956.27,-284.02 3946.66,-279.55 3945.98,-286.52"/>
</g>
<!-- Node156 -->
<g id="node39" class="node">
<title>Node156</title>
<g id="a_node39"><a xlink:href="f__op__kankyo__mng_8h.html" target="_top" xlink:title=" ">
<polygon fill="#fff0f0" stroke="red" points="4138,-239 4011,-239 4011,-209 4138,-209 4138,-239"/>
<text text-anchor="start" x="4019" y="-227" font-family="Helvetica,sans-Serif" font-size="10.00">include/f_op/f_op_kankyo</text>
<text text-anchor="middle" x="4074.5" y="-216" font-family="Helvetica,sans-Serif" font-size="10.00">_mng.h</text>
</a>
</g>
</g>
<!-- Node153&#45;&gt;Node156 -->
<g id="edge47" class="edge">
<title>Node153&#45;&gt;Node156</title>
<path fill="none" stroke="#63b8ff" d="M4041.43,-271.01C4048.66,-260.96 4057.53,-248.61 4064.27,-239.23"/>
<polygon fill="#63b8ff" stroke="#63b8ff" points="4038.77,-268.71 4035.78,-278.87 4044.46,-272.79 4038.77,-268.71"/>
</g>
<!-- Node157 -->
<g id="node40" class="node">
<title>Node157</title>
<g id="a_node40"><a xlink:href="f__op__scene__mng_8h.html" target="_top" xlink:title=" ">
<polygon fill="#fff0f0" stroke="red" points="3916.5,-239 3794.5,-239 3794.5,-209 3916.5,-209 3916.5,-239"/>
<text text-anchor="start" x="3802.5" y="-227" font-family="Helvetica,sans-Serif" font-size="10.00">include/f_op/f_op_scene</text>
<text text-anchor="middle" x="3855.5" y="-216" font-family="Helvetica,sans-Serif" font-size="10.00">_mng.h</text>
</a>
</g>
</g>
<!-- Node153&#45;&gt;Node157 -->
<g id="edge49" class="edge">
<title>Node153&#45;&gt;Node157</title>
<path fill="none" stroke="#63b8ff" d="M3993.72,-276.13C3965.06,-265.53 3924.43,-250.5 3894.63,-239.48"/>
<polygon fill="#63b8ff" stroke="#63b8ff" points="3992.43,-279.39 4003.03,-279.58 3994.86,-272.82 3992.43,-279.39"/>
</g>
<!-- Node159 -->
<g id="node41" class="node">
<title>Node159</title>
<g id="a_node41"><a xlink:href="f__ap__game_8cpp.html" target="_top" xlink:title=" ">
<polygon fill="white" stroke="#666666" points="3916,-162 3795,-162 3795,-143 3916,-143 3916,-162"/>
<text text-anchor="middle" x="3855.5" y="-150" font-family="Helvetica,sans-Serif" font-size="10.00">src/f_ap/f_ap_game.cpp</text>
</a>
</g>
</g>
<!-- Node153&#45;&gt;Node159 -->
<g id="edge51" class="edge">
<title>Node153&#45;&gt;Node159</title>
<path fill="none" stroke="#63b8ff" d="M4008.34,-273.21C3971.69,-244.51 3895.31,-184.68 3866.67,-162.25"/>
<polygon fill="#63b8ff" stroke="#63b8ff" points="4005.93,-275.77 4015.96,-279.18 4010.24,-270.25 4005.93,-275.77"/>
</g>
<!-- Node153&#45;&gt;Node161 -->
<g id="edge53" class="edge">
<title>Node153&#45;&gt;Node161</title>
<path fill="none" stroke="#63b8ff" d="M4064.49,-276.41C4094.85,-265.8 4138.31,-250.6 4170.1,-239.48"/>
<polygon fill="#63b8ff" stroke="#63b8ff" points="4063.66,-273 4055.37,-279.6 4065.97,-279.6 4063.66,-273"/>
</g>
<!-- Node153&#45;&gt;Node163 -->
<g id="edge54" class="edge">
<title>Node153&#45;&gt;Node163</title>
<path fill="none" stroke="#63b8ff" d="M4085.33,-277.87C4135.44,-267.97 4210.41,-252.94 4275.5,-239 4278.52,-238.35 4281.62,-237.68 4284.75,-236.99"/>
<polygon fill="#63b8ff" stroke="#63b8ff" points="4084.71,-274.43 4075.57,-279.8 4086.06,-281.29 4084.71,-274.43"/>
</g>
<!-- Node153&#45;&gt;Node120 -->
<g id="edge55" class="edge">
<title>Node153&#45;&gt;Node120</title>
<path fill="none" stroke="#63b8ff" d="M4110.7,-279.08C4185.99,-269.71 4300.45,-254.79 4399.5,-239 4409.04,-237.48 4419.22,-235.71 4428.94,-233.94"/>
<polygon fill="#63b8ff" stroke="#63b8ff" points="4110.42,-275.58 4100.93,-280.29 4111.28,-282.53 4110.42,-275.58"/>
</g>
<!-- Node154&#45;&gt;Node63 -->
<g id="edge46" class="edge">
<title>Node154&#45;&gt;Node63</title>
<path fill="none" stroke="#63b8ff" d="M3978.04,-136.59C3953.98,-121.3 3917.34,-98.01 3897.48,-85.39"/>
<polygon fill="#63b8ff" stroke="#63b8ff" points="3975.91,-139.38 3986.22,-141.79 3979.66,-133.47 3975.91,-139.38"/>
</g>
<!-- Node156&#45;&gt;Node154 -->
<g id="edge48" class="edge">
<title>Node156&#45;&gt;Node154</title>
<path fill="none" stroke="#63b8ff" d="M4051.25,-200.86C4037.45,-187.73 4020.73,-171.81 4010.62,-162.18"/>
<polygon fill="#63b8ff" stroke="#63b8ff" points="4048.62,-203.2 4058.28,-207.56 4053.45,-198.13 4048.62,-203.2"/>
</g>
<!-- Node157&#45;&gt;Node159 -->
<g id="edge50" class="edge">
<title>Node157&#45;&gt;Node159</title>
<path fill="none" stroke="#63b8ff" d="M3855.5,-197.46C3855.5,-185.07 3855.5,-170.99 3855.5,-162.18"/>
<polygon fill="#63b8ff" stroke="#63b8ff" points="3852,-197.09 3855.5,-207.09 3859,-197.09 3852,-197.09"/>
</g>
</g>
</svg>
