<?xml version="1.0" encoding="UTF-8" standalone="no"?>
<!DOCTYPE svg PUBLIC "-//W3C//DTD SVG 1.1//EN"
 "http://www.w3.org/Graphics/SVG/1.1/DTD/svg11.dtd">
<!-- Generated by graphviz version 7.0.5 (20221223.1930)
 -->
<!-- Title: include/f_pc/f_pc_node.h Pages: 1 -->
<svg width="3477pt" height="280pt"
 viewBox="0.00 0.00 3477.00 280.00" xmlns="http://www.w3.org/2000/svg" xmlns:xlink="http://www.w3.org/1999/xlink">
<g id="graph0" class="graph" transform="scale(1 1) rotate(0) translate(4 276)">
<title>include/f_pc/f_pc_node.h</title>
<!-- Node1 -->
<g id="node1" class="node">
<title>Node1</title>
<g id="a_node1"><a xlink:title=" ">
<polygon fill="#999999" stroke="#666666" points="2730,-272 2605,-272 2605,-253 2730,-253 2730,-272"/>
<text text-anchor="middle" x="2667.5" y="-260" font-family="Helvetica,sans-Serif" font-size="10.00">include/f_pc/f_pc_node.h</text>
</a>
</g>
</g>
<!-- Node2 -->
<g id="node2" class="node">
<title>Node2</title>
<g id="a_node2"><a xlink:href="f__op__scene_8h.html" target="_top" xlink:title=" ">
<polygon fill="white" stroke="#666666" points="571.5,-211.5 441.5,-211.5 441.5,-192.5 571.5,-192.5 571.5,-211.5"/>
<text text-anchor="middle" x="506.5" y="-199.5" font-family="Helvetica,sans-Serif" font-size="10.00">include/f_op/f_op_scene.h</text>
</a>
</g>
</g>
<!-- Node1&#45;&gt;Node2 -->
<g id="edge1" class="edge">
<title>Node1&#45;&gt;Node2</title>
<path fill="none" stroke="#63b8ff" d="M2593.08,-259.49C2257.56,-250.4 888.23,-213.33 571.92,-204.77"/>
<polygon fill="#63b8ff" stroke="#63b8ff" points="2592.97,-262.98 2603.06,-259.76 2593.16,-255.99 2592.97,-262.98"/>
</g>
<!-- Node24 -->
<g id="node23" class="node">
<title>Node24</title>
<g id="a_node23"><a xlink:href="d__s__menu_8cpp.html" target="_top" xlink:title=" ">
<polygon fill="white" stroke="#666666" points="113,-145.5 0,-145.5 0,-126.5 113,-126.5 113,-145.5"/>
<text text-anchor="middle" x="56.5" y="-133.5" font-family="Helvetica,sans-Serif" font-size="10.00">src/d/s/d_s_menu.cpp</text>
</a>
</g>
</g>
<!-- Node1&#45;&gt;Node24 -->
<g id="edge66" class="edge">
<title>Node1&#45;&gt;Node24</title>
<path fill="none" stroke="#63b8ff" d="M2593.3,-260.86C2230.36,-257.62 650.67,-242.15 432.5,-217 303.22,-202.1 152.73,-163.48 88.35,-145.92"/>
<polygon fill="#63b8ff" stroke="#63b8ff" points="2593.15,-264.36 2603.18,-260.95 2593.21,-257.36 2593.15,-264.36"/>
</g>
<!-- Node30 -->
<g id="node29" class="node">
<title>Node30</title>
<g id="a_node29"><a xlink:href="f__pc__manager_8h.html" target="_top" xlink:title=" ">
<polygon fill="white" stroke="#666666" points="1536,-211.5 1395,-211.5 1395,-192.5 1536,-192.5 1536,-211.5"/>
<text text-anchor="middle" x="1465.5" y="-199.5" font-family="Helvetica,sans-Serif" font-size="10.00">include/f_pc/f_pc_manager.h</text>
</a>
</g>
</g>
<!-- Node1&#45;&gt;Node30 -->
<g id="edge32" class="edge">
<title>Node1&#45;&gt;Node30</title>
<path fill="none" stroke="#63b8ff" d="M2593.36,-257.89C2377.01,-247.36 1748.44,-216.77 1536.35,-206.45"/>
<polygon fill="#63b8ff" stroke="#63b8ff" points="2592.9,-261.37 2603.06,-258.36 2593.24,-254.38 2592.9,-261.37"/>
</g>
<!-- Node134 -->
<g id="node36" class="node">
<title>Node134</title>
<g id="a_node36"><a xlink:href="m__Do__dvd__thread_8h.html" target="_top" xlink:title=" ">
<polygon fill="white" stroke="#666666" points="2374,-217 2249,-217 2249,-187 2374,-187 2374,-217"/>
<text text-anchor="start" x="2257" y="-205" font-family="Helvetica,sans-Serif" font-size="10.00">include/m_Do/m_Do_dvd</text>
<text text-anchor="middle" x="2311.5" y="-194" font-family="Helvetica,sans-Serif" font-size="10.00">_thread.h</text>
</a>
</g>
</g>
<!-- Node1&#45;&gt;Node134 -->
<g id="edge58" class="edge">
<title>Node1&#45;&gt;Node134</title>
<path fill="none" stroke="#63b8ff" d="M2594.75,-250.85C2537.3,-242.26 2455.16,-229.58 2383.5,-217 2380.49,-216.47 2377.41,-215.92 2374.3,-215.35"/>
<polygon fill="#63b8ff" stroke="#63b8ff" points="2593.99,-254.28 2604.4,-252.29 2595.03,-247.35 2593.99,-254.28"/>
</g>
<!-- Node221 -->
<g id="node43" class="node">
<title>Node221</title>
<g id="a_node43"><a xlink:href="f__pc__deletor_8cpp.html" target="_top" xlink:title=" ">
<polygon fill="white" stroke="#666666" points="2518.5,-211.5 2392.5,-211.5 2392.5,-192.5 2518.5,-192.5 2518.5,-211.5"/>
<text text-anchor="middle" x="2455.5" y="-199.5" font-family="Helvetica,sans-Serif" font-size="10.00">src/f_pc/f_pc_deletor.cpp</text>
</a>
</g>
</g>
<!-- Node1&#45;&gt;Node221 -->
<g id="edge67" class="edge">
<title>Node1&#45;&gt;Node221</title>
<path fill="none" stroke="#63b8ff" d="M2624.45,-249.62C2584.06,-238.48 2524.55,-222.05 2488,-211.97"/>
<polygon fill="#63b8ff" stroke="#63b8ff" points="2623.27,-252.93 2633.84,-252.21 2625.13,-246.18 2623.27,-252.93"/>
</g>
<!-- Node222 -->
<g id="node44" class="node">
<title>Node222</title>
<g id="a_node44"><a xlink:href="f__pc__draw_8cpp.html" target="_top" xlink:title=" ">
<polygon fill="white" stroke="#666666" points="2654.5,-211.5 2536.5,-211.5 2536.5,-192.5 2654.5,-192.5 2654.5,-211.5"/>
<text text-anchor="middle" x="2595.5" y="-199.5" font-family="Helvetica,sans-Serif" font-size="10.00">src/f_pc/f_pc_draw.cpp</text>
</a>
</g>
</g>
<!-- Node1&#45;&gt;Node222 -->
<g id="edge68" class="edge">
<title>Node1&#45;&gt;Node222</title>
<path fill="none" stroke="#63b8ff" d="M2647.7,-245.41C2634.44,-234.64 2617.47,-220.85 2606.54,-211.97"/>
<polygon fill="#63b8ff" stroke="#63b8ff" points="2645.42,-248.07 2655.39,-251.66 2649.84,-242.64 2645.42,-248.07"/>
</g>
<!-- Node223 -->
<g id="node45" class="node">
<title>Node223</title>
<g id="a_node45"><a xlink:href="f__pc__executor_8cpp.html" target="_top" xlink:title=" ">
<polygon fill="white" stroke="#666666" points="2806.5,-211.5 2672.5,-211.5 2672.5,-192.5 2806.5,-192.5 2806.5,-211.5"/>
<text text-anchor="middle" x="2739.5" y="-199.5" font-family="Helvetica,sans-Serif" font-size="10.00">src/f_pc/f_pc_executor.cpp</text>
</a>
</g>
</g>
<!-- Node1&#45;&gt;Node223 -->
<g id="edge69" class="edge">
<title>Node1&#45;&gt;Node223</title>
<path fill="none" stroke="#63b8ff" d="M2687.3,-245.41C2700.56,-234.64 2717.53,-220.85 2728.46,-211.97"/>
<polygon fill="#63b8ff" stroke="#63b8ff" points="2685.16,-242.64 2679.61,-251.66 2689.58,-248.07 2685.16,-242.64"/>
</g>
<!-- Node224 -->
<g id="node46" class="node">
<title>Node224</title>
<g id="a_node46"><a xlink:href="f__pc__line_8cpp.html" target="_top" xlink:title=" ">
<polygon fill="white" stroke="#666666" points="2936.5,-211.5 2824.5,-211.5 2824.5,-192.5 2936.5,-192.5 2936.5,-211.5"/>
<text text-anchor="middle" x="2880.5" y="-199.5" font-family="Helvetica,sans-Serif" font-size="10.00">src/f_pc/f_pc_line.cpp</text>
</a>
</g>
</g>
<!-- Node1&#45;&gt;Node224 -->
<g id="edge70" class="edge">
<title>Node1&#45;&gt;Node224</title>
<path fill="none" stroke="#63b8ff" d="M2710.75,-249.62C2751.33,-238.48 2811.12,-222.05 2847.85,-211.97"/>
<polygon fill="#63b8ff" stroke="#63b8ff" points="2710.03,-246.19 2701.31,-252.21 2711.88,-252.94 2710.03,-246.19"/>
</g>
<!-- Node225 -->
<g id="node47" class="node">
<title>Node225</title>
<g id="a_node47"><a xlink:href="f__pc__node_8cpp.html" target="_top" xlink:title=" ">
<polygon fill="white" stroke="#666666" points="3072.5,-211.5 2954.5,-211.5 2954.5,-192.5 3072.5,-192.5 3072.5,-211.5"/>
<text text-anchor="middle" x="3013.5" y="-199.5" font-family="Helvetica,sans-Serif" font-size="10.00">src/f_pc/f_pc_node.cpp</text>
</a>
</g>
</g>
<!-- Node1&#45;&gt;Node225 -->
<g id="edge71" class="edge">
<title>Node1&#45;&gt;Node225</title>
<path fill="none" stroke="#63b8ff" d="M2739.91,-250.81C2796.1,-242.29 2875.89,-229.73 2945.5,-217 2953.92,-215.46 2962.9,-213.7 2971.48,-211.95"/>
<polygon fill="#63b8ff" stroke="#63b8ff" points="2739.51,-247.33 2730.14,-252.28 2740.55,-254.25 2739.51,-247.33"/>
</g>
<!-- Node226 -->
<g id="node48" class="node">
<title>Node226</title>
<g id="a_node48"><a xlink:href="f__pc__node__req_8cpp.html" target="_top" xlink:title=" ">
<polygon fill="white" stroke="#666666" points="3190.5,-217 3090.5,-217 3090.5,-187 3190.5,-187 3190.5,-217"/>
<text text-anchor="start" x="3098.5" y="-205" font-family="Helvetica,sans-Serif" font-size="10.00">src/f_pc/f_pc_node</text>
<text text-anchor="middle" x="3140.5" y="-194" font-family="Helvetica,sans-Serif" font-size="10.00">_req.cpp</text>
</a>
</g>
</g>
<!-- Node1&#45;&gt;Node226 -->
<g id="edge72" class="edge">
<title>Node1&#45;&gt;Node226</title>
<path fill="none" stroke="#63b8ff" d="M2741.62,-256.36C2824.76,-249.94 2963.44,-237.27 3081.5,-217 3084.3,-216.52 3087.17,-215.98 3090.06,-215.41"/>
<polygon fill="#63b8ff" stroke="#63b8ff" points="2741.48,-252.86 2731.77,-257.11 2742.01,-259.84 2741.48,-252.86"/>
</g>
<!-- Node227 -->
<g id="node49" class="node">
<title>Node227</title>
<g id="a_node49"><a xlink:href="f__pc__pause_8cpp.html" target="_top" xlink:title=" ">
<polygon fill="white" stroke="#666666" points="3332,-211.5 3209,-211.5 3209,-192.5 3332,-192.5 3332,-211.5"/>
<text text-anchor="middle" x="3270.5" y="-199.5" font-family="Helvetica,sans-Serif" font-size="10.00">src/f_pc/f_pc_pause.cpp</text>
</a>
</g>
</g>
<!-- Node1&#45;&gt;Node227 -->
<g id="edge73" class="edge">
<title>Node1&#45;&gt;Node227</title>
<path fill="none" stroke="#63b8ff" d="M2741.61,-257.91C2844.67,-252.32 3036.93,-239.76 3199.5,-217 3209.08,-215.66 3219.32,-213.86 3228.96,-212"/>
<polygon fill="#63b8ff" stroke="#63b8ff" points="2741.71,-254.4 2731.91,-258.43 2742.09,-261.39 2741.71,-254.4"/>
</g>
<!-- Node228 -->
<g id="node50" class="node">
<title>Node228</title>
<g id="a_node50"><a xlink:href="f__pc__stdcreate__req_8cpp.html" target="_top" xlink:title=" ">
<polygon fill="white" stroke="#666666" points="3469,-217 3350,-217 3350,-187 3469,-187 3469,-217"/>
<text text-anchor="start" x="3358" y="-205" font-family="Helvetica,sans-Serif" font-size="10.00">src/f_pc/f_pc_stdcreate</text>
<text text-anchor="middle" x="3409.5" y="-194" font-family="Helvetica,sans-Serif" font-size="10.00">_req.cpp</text>
</a>
</g>
</g>
<!-- Node1&#45;&gt;Node228 -->
<g id="edge74" class="edge">
<title>Node1&#45;&gt;Node228</title>
<path fill="none" stroke="#63b8ff" d="M2741.29,-259.93C2865.63,-256.56 3124.57,-246.35 3341.5,-217 3344.13,-216.64 3346.81,-216.25 3349.51,-215.82"/>
<polygon fill="#63b8ff" stroke="#63b8ff" points="2741.46,-256.43 2731.56,-260.19 2741.65,-263.43 2741.46,-256.43"/>
</g>
<!-- Node3 -->
<g id="node3" class="node">
<title>Node3</title>
<g id="a_node3"><a xlink:href="d__s__logo_8h.html" target="_top" xlink:title=" ">
<polygon fill="white" stroke="#666666" points="139,-79.5 26,-79.5 26,-60.5 139,-60.5 139,-79.5"/>
<text text-anchor="middle" x="82.5" y="-67.5" font-family="Helvetica,sans-Serif" font-size="10.00">include/d/s/d_s_logo.h</text>
</a>
</g>
</g>
<!-- Node2&#45;&gt;Node3 -->
<g id="edge2" class="edge">
<title>Node2&#45;&gt;Node3</title>
<path fill="none" stroke="#63b8ff" d="M485.25,-185.48C458.96,-167.09 412.19,-136.92 367.5,-121 274.17,-87.75 244.85,-103.44 147.5,-85 139.45,-83.47 130.86,-81.72 122.66,-79.98"/>
<polygon fill="#63b8ff" stroke="#63b8ff" points="483.18,-188.3 493.35,-191.25 487.24,-182.6 483.18,-188.3"/>
</g>
<!-- Node5 -->
<g id="node5" class="node">
<title>Node5</title>
<g id="a_node5"><a xlink:href="d__s__play_8h.html" target="_top" xlink:title=" ">
<polygon fill="white" stroke="#666666" points="1277,-145.5 1164,-145.5 1164,-126.5 1277,-126.5 1277,-145.5"/>
<text text-anchor="middle" x="1220.5" y="-133.5" font-family="Helvetica,sans-Serif" font-size="10.00">include/d/s/d_s_play.h</text>
</a>
</g>
</g>
<!-- Node2&#45;&gt;Node5 -->
<g id="edge4" class="edge">
<title>Node2&#45;&gt;Node5</title>
<path fill="none" stroke="#63b8ff" d="M583.03,-198.37C704.63,-193.45 949.2,-180.56 1154.5,-151 1163.66,-149.68 1173.45,-147.84 1182.61,-145.93"/>
<polygon fill="#63b8ff" stroke="#63b8ff" points="583.02,-194.86 573.17,-198.76 583.3,-201.86 583.02,-194.86"/>
</g>
<!-- Node9 -->
<g id="node9" class="node">
<title>Node9</title>
<g id="a_node9"><a xlink:href="d__s__room_8cpp.html" target="_top" xlink:title=" ">
<polygon fill="white" stroke="#666666" points="926.5,-79.5 816.5,-79.5 816.5,-60.5 926.5,-60.5 926.5,-79.5"/>
<text text-anchor="middle" x="871.5" y="-67.5" font-family="Helvetica,sans-Serif" font-size="10.00">src/d/s/d_s_room.cpp</text>
</a>
</g>
</g>
<!-- Node2&#45;&gt;Node9 -->
<g id="edge27" class="edge">
<title>Node2&#45;&gt;Node9</title>
<path fill="none" stroke="#63b8ff" d="M481.23,-186.03C456.45,-169.54 425.03,-142.5 444.5,-121 498.92,-60.92 727.44,-97.68 807.5,-85 816.15,-83.63 825.39,-81.82 834.07,-79.95"/>
<polygon fill="#63b8ff" stroke="#63b8ff" points="479.02,-188.77 489.33,-191.19 482.78,-182.87 479.02,-188.77"/>
</g>
<!-- Node14 -->
<g id="node14" class="node">
<title>Node14</title>
<g id="a_node14"><a xlink:href="f__op__scene__mng_8h.html" target="_top" xlink:title=" ">
<polygon fill="white" stroke="#666666" points="1009.5,-151 887.5,-151 887.5,-121 1009.5,-121 1009.5,-151"/>
<text text-anchor="start" x="895.5" y="-139" font-family="Helvetica,sans-Serif" font-size="10.00">include/f_op/f_op_scene</text>
<text text-anchor="middle" x="948.5" y="-128" font-family="Helvetica,sans-Serif" font-size="10.00">_mng.h</text>
</a>
</g>
</g>
<!-- Node2&#45;&gt;Node14 -->
<g id="edge13" class="edge">
<title>Node2&#45;&gt;Node14</title>
<path fill="none" stroke="#63b8ff" d="M579.67,-190.41C665.69,-177.95 806.91,-157.5 887.35,-145.85"/>
<polygon fill="#63b8ff" stroke="#63b8ff" points="579.32,-186.92 569.92,-191.82 580.32,-193.85 579.32,-186.92"/>
</g>
<!-- Node2&#45;&gt;Node24 -->
<g id="edge25" class="edge">
<title>Node2&#45;&gt;Node24</title>
<path fill="none" stroke="#63b8ff" d="M429.91,-192.84C352.22,-184.14 228.61,-169.13 122.5,-151 113.96,-149.54 104.84,-147.75 96.19,-145.95"/>
<polygon fill="#63b8ff" stroke="#63b8ff" points="429.21,-196.29 439.53,-193.91 429.98,-189.33 429.21,-196.29"/>
</g>
<!-- Node25 -->
<g id="node24" class="node">
<title>Node25</title>
<g id="a_node24"><a xlink:href="d__s__name_8cpp.html" target="_top" xlink:title=" ">
<polygon fill="white" stroke="#666666" points="690,-145.5 577,-145.5 577,-126.5 690,-126.5 690,-145.5"/>
<text text-anchor="middle" x="633.5" y="-133.5" font-family="Helvetica,sans-Serif" font-size="10.00">src/d/s/d_s_name.cpp</text>
</a>
</g>
</g>
<!-- Node2&#45;&gt;Node25 -->
<g id="edge26" class="edge">
<title>Node2&#45;&gt;Node25</title>
<path fill="none" stroke="#63b8ff" d="M534.41,-186.93C559.29,-174.4 594.92,-156.44 615.99,-145.82"/>
<polygon fill="#63b8ff" stroke="#63b8ff" points="532.87,-183.79 525.51,-191.42 536.02,-190.05 532.87,-183.79"/>
</g>
<!-- Node26 -->
<g id="node25" class="node">
<title>Node26</title>
<g id="a_node25"><a xlink:href="d__s__title_8cpp.html" target="_top" xlink:title=" ">
<polygon fill="white" stroke="#666666" points="235.5,-145.5 131.5,-145.5 131.5,-126.5 235.5,-126.5 235.5,-145.5"/>
<text text-anchor="middle" x="183.5" y="-133.5" font-family="Helvetica,sans-Serif" font-size="10.00">src/d/s/d_s_title.cpp</text>
</a>
</g>
</g>
<!-- Node2&#45;&gt;Node26 -->
<g id="edge28" class="edge">
<title>Node2&#45;&gt;Node26</title>
<path fill="none" stroke="#63b8ff" d="M445.38,-190C392.2,-180.27 313.11,-165.41 244.5,-151 237.06,-149.44 229.12,-147.68 221.52,-145.96"/>
<polygon fill="#63b8ff" stroke="#63b8ff" points="444.7,-193.43 455.16,-191.78 445.95,-186.54 444.7,-193.43"/>
</g>
<!-- Node27 -->
<g id="node26" class="node">
<title>Node27</title>
<g id="a_node26"><a xlink:href="f__op__scene_8cpp.html" target="_top" xlink:title=" ">
<polygon fill="white" stroke="#666666" points="831,-145.5 708,-145.5 708,-126.5 831,-126.5 831,-145.5"/>
<text text-anchor="middle" x="769.5" y="-133.5" font-family="Helvetica,sans-Serif" font-size="10.00">src/f_op/f_op_scene.cpp</text>
</a>
</g>
</g>
<!-- Node2&#45;&gt;Node27 -->
<g id="edge29" class="edge">
<title>Node2&#45;&gt;Node27</title>
<path fill="none" stroke="#63b8ff" d="M554.49,-189.32C605.9,-176.81 686.37,-157.23 732.9,-145.91"/>
<polygon fill="#63b8ff" stroke="#63b8ff" points="553.71,-185.91 544.82,-191.68 555.36,-192.71 553.71,-185.91"/>
</g>
<!-- Node28 -->
<g id="node27" class="node">
<title>Node28</title>
<g id="a_node27"><a xlink:href="f__op__scene__pause_8cpp.html" target="_top" xlink:title=" ">
<polygon fill="white" stroke="#666666" points="559,-151 454,-151 454,-121 559,-121 559,-151"/>
<text text-anchor="start" x="462" y="-139" font-family="Helvetica,sans-Serif" font-size="10.00">src/f_op/f_op_scene</text>
<text text-anchor="middle" x="506.5" y="-128" font-family="Helvetica,sans-Serif" font-size="10.00">_pause.cpp</text>
</a>
</g>
</g>
<!-- Node2&#45;&gt;Node28 -->
<g id="edge30" class="edge">
<title>Node2&#45;&gt;Node28</title>
<path fill="none" stroke="#63b8ff" d="M506.5,-180.78C506.5,-171.17 506.5,-159.92 506.5,-151.23"/>
<polygon fill="#63b8ff" stroke="#63b8ff" points="503,-180.59 506.5,-190.59 510,-180.59 503,-180.59"/>
</g>
<!-- Node29 -->
<g id="node28" class="node">
<title>Node29</title>
<g id="a_node28"><a xlink:href="f__op__scene__req_8cpp.html" target="_top" xlink:title=" ">
<polygon fill="white" stroke="#666666" points="359,-151 254,-151 254,-121 359,-121 359,-151"/>
<text text-anchor="start" x="262" y="-139" font-family="Helvetica,sans-Serif" font-size="10.00">src/f_op/f_op_scene</text>
<text text-anchor="middle" x="306.5" y="-128" font-family="Helvetica,sans-Serif" font-size="10.00">_req.cpp</text>
</a>
</g>
</g>
<!-- Node2&#45;&gt;Node29 -->
<g id="edge31" class="edge">
<title>Node2&#45;&gt;Node29</title>
<path fill="none" stroke="#63b8ff" d="M468.04,-188.69C434.82,-178.06 386.79,-162.69 351.74,-151.48"/>
<polygon fill="#63b8ff" stroke="#63b8ff" points="466.66,-191.93 477.25,-191.64 468.79,-185.26 466.66,-191.93"/>
</g>
<!-- Node4 -->
<g id="node4" class="node">
<title>Node4</title>
<g id="a_node4"><a xlink:href="d__s__logo_8cpp.html" target="_top" xlink:title=" ">
<polygon fill="white" stroke="#666666" points="330,-19 223,-19 223,0 330,0 330,-19"/>
<text text-anchor="middle" x="276.5" y="-7" font-family="Helvetica,sans-Serif" font-size="10.00">src/d/s/d_s_logo.cpp</text>
</a>
</g>
</g>
<!-- Node3&#45;&gt;Node4 -->
<g id="edge3" class="edge">
<title>Node3&#45;&gt;Node4</title>
<path fill="none" stroke="#63b8ff" d="M122.84,-56.83C159.78,-45.7 213.6,-29.47 246.76,-19.47"/>
<polygon fill="#63b8ff" stroke="#63b8ff" points="121.98,-53.44 113.41,-59.68 124,-60.14 121.98,-53.44"/>
</g>
<!-- Node6 -->
<g id="node6" class="node">
<title>Node6</title>
<g id="a_node6"><a xlink:href="d__cc__uty_8cpp.html" target="_top" xlink:title=" ">
<polygon fill="white" stroke="#666666" points="1456.5,-79.5 1344.5,-79.5 1344.5,-60.5 1456.5,-60.5 1456.5,-79.5"/>
<text text-anchor="middle" x="1400.5" y="-67.5" font-family="Helvetica,sans-Serif" font-size="10.00">src/d/cc/d_cc_uty.cpp</text>
</a>
</g>
</g>
<!-- Node5&#45;&gt;Node6 -->
<g id="edge5" class="edge">
<title>Node5&#45;&gt;Node6</title>
<path fill="none" stroke="#63b8ff" d="M1256.3,-122.27C1291.53,-109.75 1344.41,-90.94 1375.39,-79.93"/>
<polygon fill="#63b8ff" stroke="#63b8ff" points="1255.2,-118.95 1246.95,-125.59 1257.55,-125.54 1255.2,-118.95"/>
</g>
<!-- Node7 -->
<g id="node7" class="node">
<title>Node7</title>
<g id="a_node7"><a xlink:href="d__eye__hl_8cpp.html" target="_top" xlink:title=" ">
<polygon fill="white" stroke="#666666" points="1572.5,-79.5 1474.5,-79.5 1474.5,-60.5 1572.5,-60.5 1572.5,-79.5"/>
<text text-anchor="middle" x="1523.5" y="-67.5" font-family="Helvetica,sans-Serif" font-size="10.00">src/d/d_eye_hl.cpp</text>
</a>
</g>
</g>
<!-- Node5&#45;&gt;Node7 -->
<g id="edge6" class="edge">
<title>Node5&#45;&gt;Node7</title>
<path fill="none" stroke="#63b8ff" d="M1276.32,-123.85C1337.05,-111.67 1430.2,-92.86 1465.5,-85 1472.58,-83.42 1480.12,-81.66 1487.35,-79.94"/>
<polygon fill="#63b8ff" stroke="#63b8ff" points="1275.98,-120.35 1266.86,-125.74 1277.36,-127.21 1275.98,-120.35"/>
</g>
<!-- Node8 -->
<g id="node8" class="node">
<title>Node8</title>
<g id="a_node8"><a xlink:href="d__s__play_8cpp.html" target="_top" xlink:title=" ">
<polygon fill="white" stroke="#666666" points="1176.5,-79.5 1070.5,-79.5 1070.5,-60.5 1176.5,-60.5 1176.5,-79.5"/>
<text text-anchor="middle" x="1123.5" y="-67.5" font-family="Helvetica,sans-Serif" font-size="10.00">src/d/s/d_s_play.cpp</text>
</a>
</g>
</g>
<!-- Node5&#45;&gt;Node8 -->
<g id="edge7" class="edge">
<title>Node5&#45;&gt;Node8</title>
<path fill="none" stroke="#63b8ff" d="M1197.63,-119.91C1178.72,-107.44 1152.53,-90.15 1136.87,-79.82"/>
<polygon fill="#63b8ff" stroke="#63b8ff" points="1195.47,-122.68 1205.75,-125.27 1199.33,-116.84 1195.47,-122.68"/>
</g>
<!-- Node5&#45;&gt;Node9 -->
<g id="edge8" class="edge">
<title>Node5&#45;&gt;Node9</title>
<path fill="none" stroke="#63b8ff" d="M1168.64,-123.76C1163.87,-122.8 1159.1,-121.86 1154.5,-121 1057.56,-102.76 1032.38,-103.55 935.5,-85 927.57,-83.48 919.11,-81.73 911.04,-79.99"/>
<polygon fill="#63b8ff" stroke="#63b8ff" points="1167.74,-127.15 1178.24,-125.74 1169.15,-120.29 1167.74,-127.15"/>
</g>
<!-- Node10 -->
<g id="node10" class="node">
<title>Node10</title>
<g id="a_node10"><a xlink:href="f__op__actor_8cpp.html" target="_top" xlink:title=" ">
<polygon fill="white" stroke="#666666" points="1710,-79.5 1591,-79.5 1591,-60.5 1710,-60.5 1710,-79.5"/>
<text text-anchor="middle" x="1650.5" y="-67.5" font-family="Helvetica,sans-Serif" font-size="10.00">src/f_op/f_op_actor.cpp</text>
</a>
</g>
</g>
<!-- Node5&#45;&gt;Node10 -->
<g id="edge9" class="edge">
<title>Node5&#45;&gt;Node10</title>
<path fill="none" stroke="#63b8ff" d="M1274.28,-123.98C1280.08,-122.91 1285.91,-121.9 1291.5,-121 1419.74,-100.42 1453.32,-105.93 1581.5,-85 1590.43,-83.54 1599.96,-81.76 1609,-79.96"/>
<polygon fill="#63b8ff" stroke="#63b8ff" points="1273.88,-120.49 1264.7,-125.79 1275.18,-127.37 1273.88,-120.49"/>
</g>
<!-- Node11 -->
<g id="node11" class="node">
<title>Node11</title>
<g id="a_node11"><a xlink:href="f__op__camera_8cpp.html" target="_top" xlink:title=" ">
<polygon fill="white" stroke="#666666" points="1857,-79.5 1728,-79.5 1728,-60.5 1857,-60.5 1857,-79.5"/>
<text text-anchor="middle" x="1792.5" y="-67.5" font-family="Helvetica,sans-Serif" font-size="10.00">src/f_op/f_op_camera.cpp</text>
</a>
</g>
</g>
<!-- Node5&#45;&gt;Node11 -->
<g id="edge10" class="edge">
<title>Node5&#45;&gt;Node11</title>
<path fill="none" stroke="#63b8ff" d="M1273.07,-123.96C1279.27,-122.86 1285.51,-121.84 1291.5,-121 1480.54,-94.49 1530.39,-111.01 1719.5,-85 1729.34,-83.65 1739.87,-81.84 1749.78,-79.98"/>
<polygon fill="#63b8ff" stroke="#63b8ff" points="1272.72,-120.46 1263.53,-125.73 1274,-127.35 1272.72,-120.46"/>
</g>
<!-- Node12 -->
<g id="node12" class="node">
<title>Node12</title>
<g id="a_node12"><a xlink:href="f__op__kankyo_8cpp.html" target="_top" xlink:title=" ">
<polygon fill="white" stroke="#666666" points="2137.5,-79.5 2009.5,-79.5 2009.5,-60.5 2137.5,-60.5 2137.5,-79.5"/>
<text text-anchor="middle" x="2073.5" y="-67.5" font-family="Helvetica,sans-Serif" font-size="10.00">src/f_op/f_op_kankyo.cpp</text>
</a>
</g>
</g>
<!-- Node5&#45;&gt;Node12 -->
<g id="edge11" class="edge">
<title>Node5&#45;&gt;Node12</title>
<path fill="none" stroke="#63b8ff" d="M1288.64,-125.03C1300.57,-123.51 1312.88,-122.09 1324.5,-121 1624.06,-92.91 1701.84,-121.42 2000.5,-85 2010.75,-83.75 2021.72,-81.91 2031.96,-79.98"/>
<polygon fill="#63b8ff" stroke="#63b8ff" points="1288.31,-121.54 1278.85,-126.31 1289.22,-128.48 1288.31,-121.54"/>
</g>
<!-- Node13 -->
<g id="node13" class="node">
<title>Node13</title>
<g id="a_node13"><a xlink:href="f__op__msg_8cpp.html" target="_top" xlink:title=" ">
<polygon fill="white" stroke="#666666" points="1991.5,-79.5 1875.5,-79.5 1875.5,-60.5 1991.5,-60.5 1991.5,-79.5"/>
<text text-anchor="middle" x="1933.5" y="-67.5" font-family="Helvetica,sans-Serif" font-size="10.00">src/f_op/f_op_msg.cpp</text>
</a>
</g>
</g>
<!-- Node5&#45;&gt;Node13 -->
<g id="edge12" class="edge">
<title>Node5&#45;&gt;Node13</title>
<path fill="none" stroke="#63b8ff" d="M1288.65,-125.16C1300.58,-123.62 1312.89,-122.17 1324.5,-121 1564.71,-96.88 1627.31,-117.77 1866.5,-85 1875.8,-83.73 1885.74,-81.9 1895.04,-80"/>
<polygon fill="#63b8ff" stroke="#63b8ff" points="1288.32,-121.67 1278.86,-126.44 1289.24,-128.61 1288.32,-121.67"/>
</g>
<!-- Node14&#45;&gt;Node8 -->
<g id="edge19" class="edge">
<title>Node14&#45;&gt;Node8</title>
<path fill="none" stroke="#63b8ff" d="M998.56,-116.69C1031.43,-104.67 1073.01,-89.47 1098.93,-79.99"/>
<polygon fill="#63b8ff" stroke="#63b8ff" points="997.38,-113.4 989.19,-120.12 999.79,-119.97 997.38,-113.4"/>
</g>
<!-- Node14&#45;&gt;Node9 -->
<g id="edge20" class="edge">
<title>Node14&#45;&gt;Node9</title>
<path fill="none" stroke="#63b8ff" d="M922.76,-113.6C908.91,-102.1 892.58,-88.52 882.14,-79.84"/>
<polygon fill="#63b8ff" stroke="#63b8ff" points="920.32,-116.13 930.25,-119.83 924.79,-110.75 920.32,-116.13"/>
</g>
<!-- Node15 -->
<g id="node15" class="node">
<title>Node15</title>
<g id="a_node15"><a xlink:href="c__dylink_8h.html" target="_top" xlink:title=" ">
<polygon fill="#fff0f0" stroke="red" points="520,-79.5 419,-79.5 419,-60.5 520,-60.5 520,-79.5"/>
<text text-anchor="middle" x="469.5" y="-67.5" font-family="Helvetica,sans-Serif" font-size="10.00">include/c/c_dylink.h</text>
</a>
</g>
</g>
<!-- Node14&#45;&gt;Node15 -->
<g id="edge14" class="edge">
<title>Node14&#45;&gt;Node15</title>
<path fill="none" stroke="#63b8ff" d="M876.02,-121.37C875.18,-121.25 874.34,-121.12 873.5,-121 721.38,-98.88 681.09,-110.52 529.5,-85 521.38,-83.63 512.71,-81.82 504.57,-79.96"/>
<polygon fill="#63b8ff" stroke="#63b8ff" points="875.25,-124.79 885.68,-122.9 876.35,-117.88 875.25,-124.79"/>
</g>
<!-- Node18 -->
<g id="node17" class="node">
<title>Node18</title>
<g id="a_node17"><a xlink:href="d__com__inf__game_8cpp.html" target="_top" xlink:title=" ">
<polygon fill="white" stroke="#666666" points="1052.5,-85 944.5,-85 944.5,-55 1052.5,-55 1052.5,-85"/>
<text text-anchor="start" x="952.5" y="-73" font-family="Helvetica,sans-Serif" font-size="10.00">src/d/com/d_com_inf</text>
<text text-anchor="middle" x="998.5" y="-62" font-family="Helvetica,sans-Serif" font-size="10.00">_game.cpp</text>
</a>
</g>
</g>
<!-- Node14&#45;&gt;Node18 -->
<g id="edge17" class="edge">
<title>Node14&#45;&gt;Node18</title>
<path fill="none" stroke="#63b8ff" d="M966.5,-111.96C973.5,-103 981.29,-93.03 987.43,-85.16"/>
<polygon fill="#63b8ff" stroke="#63b8ff" points="963.93,-109.57 960.53,-119.6 969.44,-113.88 963.93,-109.57"/>
</g>
<!-- Node19 -->
<g id="node18" class="node">
<title>Node19</title>
<g id="a_node18"><a xlink:href="d__stage_8cpp.html" target="_top" xlink:title=" ">
<polygon fill="white" stroke="#666666" points="1326.5,-79.5 1232.5,-79.5 1232.5,-60.5 1326.5,-60.5 1326.5,-79.5"/>
<text text-anchor="middle" x="1279.5" y="-67.5" font-family="Helvetica,sans-Serif" font-size="10.00">src/d/d_stage.cpp</text>
</a>
</g>
</g>
<!-- Node14&#45;&gt;Node19 -->
<g id="edge18" class="edge">
<title>Node14&#45;&gt;Node19</title>
<path fill="none" stroke="#63b8ff" d="M1021.19,-120.48C1100.94,-104.9 1182.39,-89.39 1232.33,-79.92"/>
<polygon fill="#63b8ff" stroke="#63b8ff" points="1020.58,-117.03 1011.44,-122.39 1021.93,-123.9 1020.58,-117.03"/>
</g>
<!-- Node20 -->
<g id="node19" class="node">
<title>Node20</title>
<g id="a_node19"><a xlink:href="f__ap__game_8cpp.html" target="_top" xlink:title=" ">
<polygon fill="white" stroke="#666666" points="278,-79.5 157,-79.5 157,-60.5 278,-60.5 278,-79.5"/>
<text text-anchor="middle" x="217.5" y="-67.5" font-family="Helvetica,sans-Serif" font-size="10.00">src/f_ap/f_ap_game.cpp</text>
</a>
</g>
</g>
<!-- Node14&#45;&gt;Node20 -->
<g id="edge21" class="edge">
<title>Node14&#45;&gt;Node20</title>
<path fill="none" stroke="#63b8ff" d="M876.03,-121.32C875.18,-121.21 874.34,-121.1 873.5,-121 614.09,-88.96 545.65,-119.07 286.5,-85 276.8,-83.73 266.43,-81.88 256.75,-79.95"/>
<polygon fill="#63b8ff" stroke="#63b8ff" points="875.31,-124.75 885.7,-122.71 876.3,-117.82 875.31,-124.75"/>
</g>
<!-- Node21 -->
<g id="node20" class="node">
<title>Node21</title>
<g id="a_node20"><a xlink:href="f__op__actor__mng_8cpp.html" target="_top" xlink:title=" ">
<polygon fill="white" stroke="#666666" points="798,-85 697,-85 697,-55 798,-55 798,-85"/>
<text text-anchor="start" x="705" y="-73" font-family="Helvetica,sans-Serif" font-size="10.00">src/f_op/f_op_actor</text>
<text text-anchor="middle" x="747.5" y="-62" font-family="Helvetica,sans-Serif" font-size="10.00">_mng.cpp</text>
</a>
</g>
</g>
<!-- Node14&#45;&gt;Node21 -->
<g id="edge22" class="edge">
<title>Node14&#45;&gt;Node21</title>
<path fill="none" stroke="#63b8ff" d="M892.34,-117.12C860.89,-107.1 822.18,-94.78 792.69,-85.39"/>
<polygon fill="#63b8ff" stroke="#63b8ff" points="891.11,-120.4 901.7,-120.1 893.23,-113.73 891.11,-120.4"/>
</g>
<!-- Node22 -->
<g id="node21" class="node">
<title>Node22</title>
<g id="a_node21"><a xlink:href="f__op__msg__mng_8cpp.html" target="_top" xlink:title=" ">
<polygon fill="white" stroke="#666666" points="678.5,-79.5 538.5,-79.5 538.5,-60.5 678.5,-60.5 678.5,-79.5"/>
<text text-anchor="middle" x="608.5" y="-67.5" font-family="Helvetica,sans-Serif" font-size="10.00">src/f_op/f_op_msg_mng.cpp</text>
</a>
</g>
</g>
<!-- Node14&#45;&gt;Node22 -->
<g id="edge23" class="edge">
<title>Node14&#45;&gt;Node22</title>
<path fill="none" stroke="#63b8ff" d="M876.13,-121.38C809.8,-108.89 713.49,-90.76 656.3,-80"/>
<polygon fill="#63b8ff" stroke="#63b8ff" points="875.36,-124.79 885.83,-123.2 876.65,-117.91 875.36,-124.79"/>
</g>
<!-- Node23 -->
<g id="node22" class="node">
<title>Node23</title>
<g id="a_node22"><a xlink:href="f__op__scene__mng_8cpp.html" target="_top" xlink:title=" ">
<polygon fill="white" stroke="#666666" points="401,-85 296,-85 296,-55 401,-55 401,-85"/>
<text text-anchor="start" x="304" y="-73" font-family="Helvetica,sans-Serif" font-size="10.00">src/f_op/f_op_scene</text>
<text text-anchor="middle" x="348.5" y="-62" font-family="Helvetica,sans-Serif" font-size="10.00">_mng.cpp</text>
</a>
</g>
</g>
<!-- Node14&#45;&gt;Node23 -->
<g id="edge24" class="edge">
<title>Node14&#45;&gt;Node23</title>
<path fill="none" stroke="#63b8ff" d="M876.03,-121.34C875.18,-121.22 874.34,-121.11 873.5,-121 668.43,-93.98 613.97,-116.22 409.5,-85 406.81,-84.59 404.07,-84.13 401.31,-83.62"/>
<polygon fill="#63b8ff" stroke="#63b8ff" points="875.29,-124.77 885.69,-122.78 876.32,-117.85 875.29,-124.77"/>
</g>
<!-- Node15&#45;&gt;Node4 -->
<g id="edge15" class="edge">
<title>Node15&#45;&gt;Node4</title>
<path fill="none" stroke="#63b8ff" d="M429.36,-56.83C392.62,-45.7 339.08,-29.47 306.09,-19.47"/>
<polygon fill="#63b8ff" stroke="#63b8ff" points="428.15,-60.12 438.74,-59.68 430.18,-53.43 428.15,-60.12"/>
</g>
<!-- Node17 -->
<g id="node16" class="node">
<title>Node17</title>
<g id="a_node16"><a xlink:href="m__Do__main_8cpp.html" target="_top" xlink:title=" ">
<polygon fill="white" stroke="#666666" points="1270,-19 1139,-19 1139,0 1270,0 1270,-19"/>
<text text-anchor="middle" x="1204.5" y="-7" font-family="Helvetica,sans-Serif" font-size="10.00">src/m_Do/m_Do_main.cpp</text>
</a>
</g>
</g>
<!-- Node15&#45;&gt;Node17 -->
<g id="edge16" class="edge">
<title>Node15&#45;&gt;Node17</title>
<path fill="none" stroke="#63b8ff" d="M514.48,-57.67C519.52,-56.65 524.61,-55.73 529.5,-55 751.38,-22.03 1017.91,-13.48 1138.96,-11.27"/>
<polygon fill="#63b8ff" stroke="#63b8ff" points="514.09,-54.17 505.06,-59.71 515.58,-61.01 514.09,-54.17"/>
</g>
<!-- Node30&#45;&gt;Node10 -->
<g id="edge48" class="edge">
<title>Node30&#45;&gt;Node10</title>
<path fill="none" stroke="#63b8ff" d="M1547.55,-197.02C1663.68,-190.54 1864.41,-175.86 1886.5,-151 1895.35,-141.03 1894.89,-131.36 1886.5,-121 1884.98,-119.12 1762.41,-93.84 1694.54,-79.97"/>
<polygon fill="#63b8ff" stroke="#63b8ff" points="1547.55,-193.52 1537.75,-197.56 1547.93,-200.51 1547.55,-193.52"/>
</g>
<!-- Node30&#45;&gt;Node11 -->
<g id="edge49" class="edge">
<title>Node30&#45;&gt;Node11</title>
<path fill="none" stroke="#63b8ff" d="M1406.97,-189.44C1355.91,-176.86 1294.36,-154.02 1324.5,-121 1354.21,-88.45 1675.86,-91.16 1719.5,-85 1729.21,-83.63 1739.59,-81.84 1749.38,-80"/>
<polygon fill="#63b8ff" stroke="#63b8ff" points="1405.98,-192.81 1416.52,-191.7 1407.59,-186 1405.98,-192.81"/>
</g>
<!-- Node30&#45;&gt;Node12 -->
<g id="edge50" class="edge">
<title>Node30&#45;&gt;Node12</title>
<path fill="none" stroke="#63b8ff" d="M1547.74,-200.46C1708.44,-198.53 2051.63,-189.87 2087.5,-151 2105.86,-131.11 2088.8,-96.05 2079.13,-79.77"/>
<polygon fill="#63b8ff" stroke="#63b8ff" points="1547.97,-196.95 1538.01,-200.57 1548.05,-203.95 1547.97,-196.95"/>
</g>
<!-- Node30&#45;&gt;Node13 -->
<g id="edge51" class="edge">
<title>Node30&#45;&gt;Node13</title>
<path fill="none" stroke="#63b8ff" d="M1547.74,-200.25C1704.98,-197.96 2035.81,-188.68 2070.5,-151 2102.59,-116.15 2029.71,-92.02 1978.44,-79.93"/>
<polygon fill="#63b8ff" stroke="#63b8ff" points="1547.73,-196.75 1537.78,-200.39 1547.83,-203.75 1547.73,-196.75"/>
</g>
<!-- Node30&#45;&gt;Node14 -->
<g id="edge45" class="edge">
<title>Node30&#45;&gt;Node14</title>
<path fill="none" stroke="#63b8ff" d="M1383.6,-193.97C1293.74,-185.76 1145.4,-170.75 1018.5,-151 1015.68,-150.56 1012.81,-150.09 1009.91,-149.59"/>
<polygon fill="#63b8ff" stroke="#63b8ff" points="1383.02,-197.43 1393.29,-194.85 1383.65,-190.46 1383.02,-197.43"/>
</g>
<!-- Node30&#45;&gt;Node20 -->
<g id="edge47" class="edge">
<title>Node30&#45;&gt;Node20</title>
<path fill="none" stroke="#63b8ff" d="M1383.18,-199.8C1243.89,-196.8 968.12,-186.45 878.5,-151 858.49,-143.09 860.59,-128.71 840.5,-121 725.33,-76.78 408.79,-101.3 286.5,-85 276.93,-83.72 266.69,-81.9 257.12,-79.99"/>
<polygon fill="#63b8ff" stroke="#63b8ff" points="1383.01,-203.29 1393.08,-200 1383.16,-196.3 1383.01,-203.29"/>
</g>
<!-- Node30&#45;&gt;Node25 -->
<g id="edge46" class="edge">
<title>Node30&#45;&gt;Node25</title>
<path fill="none" stroke="#63b8ff" d="M1383.17,-199.5C1242.44,-196.08 946.85,-185.13 699.5,-151 690.22,-149.72 680.29,-147.87 671.03,-145.94"/>
<polygon fill="#63b8ff" stroke="#63b8ff" points="1383.07,-203 1393.15,-199.74 1383.24,-196 1383.07,-203"/>
</g>
<!-- Node30&#45;&gt;Node27 -->
<g id="edge54" class="edge">
<title>Node30&#45;&gt;Node27</title>
<path fill="none" stroke="#63b8ff" d="M1383.42,-197.04C1264.46,-190.71 1037.37,-176.34 845.5,-151 835.26,-149.65 824.3,-147.84 813.99,-145.98"/>
<polygon fill="#63b8ff" stroke="#63b8ff" points="1382.9,-200.52 1393.07,-197.55 1383.27,-193.53 1382.9,-200.52"/>
</g>
<!-- Node30&#45;&gt;Node28 -->
<g id="edge55" class="edge">
<title>Node30&#45;&gt;Node28</title>
<path fill="none" stroke="#63b8ff" d="M1383.71,-200.98C1225.49,-199.94 866.8,-192.7 568.5,-151 565.55,-150.59 562.53,-150.11 559.49,-149.58"/>
<polygon fill="#63b8ff" stroke="#63b8ff" points="1383.22,-204.48 1393.24,-201.04 1383.26,-197.48 1383.22,-204.48"/>
</g>
<!-- Node31 -->
<g id="node30" class="node">
<title>Node31</title>
<g id="a_node30"><a xlink:href="f__op__actor__mng_8h.html" target="_top" xlink:title=" ">
<polygon fill="#fff0f0" stroke="red" points="1145.5,-151 1027.5,-151 1027.5,-121 1145.5,-121 1145.5,-151"/>
<text text-anchor="start" x="1035.5" y="-139" font-family="Helvetica,sans-Serif" font-size="10.00">include/f_op/f_op_actor</text>
<text text-anchor="middle" x="1086.5" y="-128" font-family="Helvetica,sans-Serif" font-size="10.00">_mng.h</text>
</a>
</g>
</g>
<!-- Node30&#45;&gt;Node31 -->
<g id="edge33" class="edge">
<title>Node30&#45;&gt;Node31</title>
<path fill="none" stroke="#63b8ff" d="M1393.99,-190.3C1331.07,-180.69 1237.04,-165.84 1155.5,-151 1152.37,-150.43 1149.17,-149.83 1145.94,-149.22"/>
<polygon fill="#63b8ff" stroke="#63b8ff" points="1393.46,-193.76 1403.87,-191.81 1394.51,-186.84 1393.46,-193.76"/>
</g>
<!-- Node127 -->
<g id="node31" class="node">
<title>Node127</title>
<g id="a_node31"><a xlink:href="f__op__kankyo__mng_8h.html" target="_top" xlink:title=" ">
<polygon fill="#fff0f0" stroke="red" points="2061,-151 1934,-151 1934,-121 2061,-121 2061,-151"/>
<text text-anchor="start" x="1942" y="-139" font-family="Helvetica,sans-Serif" font-size="10.00">include/f_op/f_op_kankyo</text>
<text text-anchor="middle" x="1997.5" y="-128" font-family="Helvetica,sans-Serif" font-size="10.00">_mng.h</text>
</a>
</g>
</g>
<!-- Node30&#45;&gt;Node127 -->
<g id="edge42" class="edge">
<title>Node30&#45;&gt;Node127</title>
<path fill="none" stroke="#63b8ff" d="M1547.82,-193.63C1638.94,-185.08 1790.05,-169.72 1919.5,-151 1924.13,-150.33 1928.91,-149.59 1933.71,-148.81"/>
<polygon fill="#63b8ff" stroke="#63b8ff" points="1547.6,-190.13 1537.97,-194.55 1548.25,-197.1 1547.6,-190.13"/>
</g>
<!-- Node130 -->
<g id="node32" class="node">
<title>Node130</title>
<g id="a_node32"><a xlink:href="f__op__overlap_8cpp.html" target="_top" xlink:title=" ">
<polygon fill="white" stroke="#666666" points="1461.5,-145.5 1333.5,-145.5 1333.5,-126.5 1461.5,-126.5 1461.5,-145.5"/>
<text text-anchor="middle" x="1397.5" y="-133.5" font-family="Helvetica,sans-Serif" font-size="10.00">src/f_op/f_op_overlap.cpp</text>
</a>
</g>
</g>
<!-- Node30&#45;&gt;Node130 -->
<g id="edge52" class="edge">
<title>Node30&#45;&gt;Node130</title>
<path fill="none" stroke="#63b8ff" d="M1447.79,-184.33C1434.7,-172.02 1417.4,-155.73 1406.87,-145.82"/>
<polygon fill="#63b8ff" stroke="#63b8ff" points="1445.26,-186.76 1454.94,-191.06 1450.06,-181.66 1445.26,-186.76"/>
</g>
<!-- Node131 -->
<g id="node33" class="node">
<title>Node131</title>
<g id="a_node33"><a xlink:href="f__op__overlap__req_8cpp.html" target="_top" xlink:title=" ">
<polygon fill="white" stroke="#666666" points="1589.5,-151 1479.5,-151 1479.5,-121 1589.5,-121 1589.5,-151"/>
<text text-anchor="start" x="1487.5" y="-139" font-family="Helvetica,sans-Serif" font-size="10.00">src/f_op/f_op_overlap</text>
<text text-anchor="middle" x="1534.5" y="-128" font-family="Helvetica,sans-Serif" font-size="10.00">_req.cpp</text>
</a>
</g>
</g>
<!-- Node30&#45;&gt;Node131 -->
<g id="edge53" class="edge">
<title>Node30&#45;&gt;Node131</title>
<path fill="none" stroke="#63b8ff" d="M1483.49,-184.31C1494.48,-174.12 1508.38,-161.23 1518.89,-151.48"/>
<polygon fill="#63b8ff" stroke="#63b8ff" points="1481.16,-181.71 1476.2,-191.07 1485.92,-186.84 1481.16,-181.71"/>
</g>
<!-- Node132 -->
<g id="node34" class="node">
<title>Node132</title>
<g id="a_node34"><a xlink:href="f__op__view_8cpp.html" target="_top" xlink:title=" ">
<polygon fill="white" stroke="#666666" points="1725,-145.5 1608,-145.5 1608,-126.5 1725,-126.5 1725,-145.5"/>
<text text-anchor="middle" x="1666.5" y="-133.5" font-family="Helvetica,sans-Serif" font-size="10.00">src/f_op/f_op_view.cpp</text>
</a>
</g>
</g>
<!-- Node30&#45;&gt;Node132 -->
<g id="edge56" class="edge">
<title>Node30&#45;&gt;Node132</title>
<path fill="none" stroke="#63b8ff" d="M1504.2,-188.68C1543.53,-176.15 1603.5,-157.06 1638.47,-145.93"/>
<polygon fill="#63b8ff" stroke="#63b8ff" points="1503.36,-185.27 1494.89,-191.64 1505.48,-191.94 1503.36,-185.27"/>
</g>
<!-- Node133 -->
<g id="node35" class="node">
<title>Node133</title>
<g id="a_node35"><a xlink:href="f__pc__manager_8cpp.html" target="_top" xlink:title=" ">
<polygon fill="white" stroke="#666666" points="1877.5,-145.5 1743.5,-145.5 1743.5,-126.5 1877.5,-126.5 1877.5,-145.5"/>
<text text-anchor="middle" x="1810.5" y="-133.5" font-family="Helvetica,sans-Serif" font-size="10.00">src/f_pc/f_pc_manager.cpp</text>
</a>
</g>
</g>
<!-- Node30&#45;&gt;Node133 -->
<g id="edge57" class="edge">
<title>Node30&#45;&gt;Node133</title>
<path fill="none" stroke="#63b8ff" d="M1525.06,-189.95C1592.21,-177.49 1700.09,-157.48 1762.22,-145.96"/>
<polygon fill="#63b8ff" stroke="#63b8ff" points="1524.52,-186.49 1515.32,-191.76 1525.79,-193.37 1524.52,-186.49"/>
</g>
<!-- Node31&#45;&gt;Node6 -->
<g id="edge34" class="edge">
<title>Node31&#45;&gt;Node6</title>
<path fill="none" stroke="#63b8ff" d="M1157.13,-120.68C1237.32,-104.58 1259.05,-100.88 1335.5,-85 1343.19,-83.4 1351.37,-81.67 1359.26,-79.98"/>
<polygon fill="#63b8ff" stroke="#63b8ff" points="1156.56,-117.22 1147.45,-122.63 1157.94,-124.08 1156.56,-117.22"/>
</g>
<!-- Node31&#45;&gt;Node8 -->
<g id="edge37" class="edge">
<title>Node31&#45;&gt;Node8</title>
<path fill="none" stroke="#63b8ff" d="M1100.41,-110.94C1106.7,-100.06 1113.75,-87.86 1118.39,-79.84"/>
<polygon fill="#63b8ff" stroke="#63b8ff" points="1097.44,-109.08 1095.47,-119.49 1103.5,-112.58 1097.44,-109.08"/>
</g>
<!-- Node31&#45;&gt;Node9 -->
<g id="edge38" class="edge">
<title>Node31&#45;&gt;Node9</title>
<path fill="none" stroke="#63b8ff" d="M1027.09,-117.32C986.35,-105.19 934,-89.61 901.61,-79.96"/>
<polygon fill="#63b8ff" stroke="#63b8ff" points="1025.95,-120.63 1036.53,-120.13 1027.95,-113.92 1025.95,-120.63"/>
</g>
<!-- Node31&#45;&gt;Node10 -->
<g id="edge39" class="edge">
<title>Node31&#45;&gt;Node10</title>
<path fill="none" stroke="#63b8ff" d="M1157.03,-120.92C1345.54,-94.73 1396.99,-111.42 1581.5,-85 1590.94,-83.65 1601.03,-81.82 1610.5,-79.93"/>
<polygon fill="#63b8ff" stroke="#63b8ff" points="1156.8,-117.42 1147.39,-122.28 1157.78,-124.35 1156.8,-117.42"/>
</g>
<!-- Node31&#45;&gt;Node17 -->
<g id="edge41" class="edge">
<title>Node31&#45;&gt;Node17</title>
<path fill="none" stroke="#63b8ff" d="M1144.66,-115.77C1159.83,-108.29 1174.87,-98.24 1185.5,-85 1201.21,-65.43 1204.09,-34.43 1204.52,-19.33"/>
<polygon fill="#63b8ff" stroke="#63b8ff" points="1143.22,-112.59 1135.58,-119.93 1146.13,-118.95 1143.22,-112.59"/>
</g>
<!-- Node31&#45;&gt;Node18 -->
<g id="edge35" class="edge">
<title>Node31&#45;&gt;Node18</title>
<path fill="none" stroke="#63b8ff" d="M1057.97,-114.25C1045,-104.82 1029.98,-93.9 1018.28,-85.39"/>
<polygon fill="#63b8ff" stroke="#63b8ff" points="1055.6,-116.85 1065.75,-119.91 1059.72,-111.19 1055.6,-116.85"/>
</g>
<!-- Node31&#45;&gt;Node19 -->
<g id="edge36" class="edge">
<title>Node31&#45;&gt;Node19</title>
<path fill="none" stroke="#63b8ff" d="M1140.29,-117.16C1176.76,-105.07 1223.44,-89.59 1252.4,-79.99"/>
<polygon fill="#63b8ff" stroke="#63b8ff" points="1139.64,-113.69 1131.25,-120.16 1141.84,-120.34 1139.64,-113.69"/>
</g>
<!-- Node31&#45;&gt;Node21 -->
<g id="edge40" class="edge">
<title>Node31&#45;&gt;Node21</title>
<path fill="none" stroke="#63b8ff" d="M1016.12,-120.6C923.11,-103.41 897.29,-103.12 807.5,-85 804.46,-84.39 801.34,-83.73 798.19,-83.05"/>
<polygon fill="#63b8ff" stroke="#63b8ff" points="1015.23,-123.99 1025.7,-122.39 1016.51,-117.11 1015.23,-123.99"/>
</g>
<!-- Node127&#45;&gt;Node12 -->
<g id="edge44" class="edge">
<title>Node127&#45;&gt;Node12</title>
<path fill="none" stroke="#63b8ff" d="M2022.91,-113.6C2036.57,-102.1 2052.69,-88.52 2063,-79.84"/>
<polygon fill="#63b8ff" stroke="#63b8ff" points="2020.92,-110.7 2015.52,-119.82 2025.43,-116.06 2020.92,-110.7"/>
</g>
<!-- Node127&#45;&gt;Node19 -->
<g id="edge43" class="edge">
<title>Node127&#45;&gt;Node19</title>
<path fill="none" stroke="#63b8ff" d="M1922.26,-124.89C1910.31,-123.46 1898.08,-122.11 1886.5,-121 1642.2,-97.63 1577.96,-122.91 1335.5,-85 1327.58,-83.76 1319.14,-81.93 1311.28,-80"/>
<polygon fill="#63b8ff" stroke="#63b8ff" points="1921.74,-128.35 1932.09,-126.09 1922.59,-121.4 1921.74,-128.35"/>
</g>
<!-- Node134&#45;&gt;Node17 -->
<g id="edge65" class="edge">
<title>Node134&#45;&gt;Node17</title>
<path fill="none" stroke="#63b8ff" d="M2237.95,-183.12C2219.03,-175.69 2199.95,-165.34 2185.5,-151 2152.8,-118.57 2184.09,-81.61 2146.5,-55 2110.82,-29.74 1478.73,-15.65 1270.45,-11.68"/>
<polygon fill="#63b8ff" stroke="#63b8ff" points="2236.7,-186.4 2247.3,-186.54 2239.11,-179.82 2236.7,-186.4"/>
</g>
<!-- Node135 -->
<g id="node37" class="node">
<title>Node135</title>
<g id="a_node37"><a xlink:href="d__resorce_8h.html" target="_top" xlink:title=" ">
<polygon fill="#fff0f0" stroke="red" points="2303,-145.5 2194,-145.5 2194,-126.5 2303,-126.5 2303,-145.5"/>
<text text-anchor="middle" x="2248.5" y="-133.5" font-family="Helvetica,sans-Serif" font-size="10.00">include/d/d_resorce.h</text>
</a>
</g>
</g>
<!-- Node134&#45;&gt;Node135 -->
<g id="edge59" class="edge">
<title>Node134&#45;&gt;Node135</title>
<path fill="none" stroke="#63b8ff" d="M2289.46,-178.61C2278.35,-167.32 2265.51,-154.28 2257.21,-145.84"/>
<polygon fill="#63b8ff" stroke="#63b8ff" points="2286.95,-181.05 2296.46,-185.72 2291.94,-176.14 2286.95,-181.05"/>
</g>
<!-- Node217 -->
<g id="node38" class="node">
<title>Node217</title>
<g id="a_node38"><a xlink:href="DynamicLink_8cpp.html" target="_top" xlink:title=" ">
<polygon fill="white" stroke="#666666" points="2428,-145.5 2321,-145.5 2321,-126.5 2428,-126.5 2428,-145.5"/>
<text text-anchor="middle" x="2374.5" y="-133.5" font-family="Helvetica,sans-Serif" font-size="10.00">src/DynamicLink.cpp</text>
</a>
</g>
</g>
<!-- Node134&#45;&gt;Node217 -->
<g id="edge60" class="edge">
<title>Node134&#45;&gt;Node217</title>
<path fill="none" stroke="#63b8ff" d="M2333.54,-178.61C2344.65,-167.32 2357.49,-154.28 2365.79,-145.84"/>
<polygon fill="#63b8ff" stroke="#63b8ff" points="2331.06,-176.14 2326.54,-185.72 2336.05,-181.05 2331.06,-176.14"/>
</g>
<!-- Node218 -->
<g id="node39" class="node">
<title>Node218</title>
<g id="a_node39"><a xlink:href="m__Do__DVDError_8cpp.html" target="_top" xlink:title=" ">
<polygon fill="white" stroke="#666666" points="2597,-145.5 2446,-145.5 2446,-126.5 2597,-126.5 2597,-145.5"/>
<text text-anchor="middle" x="2521.5" y="-133.5" font-family="Helvetica,sans-Serif" font-size="10.00">src/m_Do/m_Do_DVDError.cpp</text>
</a>
</g>
</g>
<!-- Node134&#45;&gt;Node218 -->
<g id="edge61" class="edge">
<title>Node134&#45;&gt;Node218</title>
<path fill="none" stroke="#63b8ff" d="M2369.78,-183.24C2409.54,-171.12 2460.52,-155.59 2492.09,-145.96"/>
<polygon fill="#63b8ff" stroke="#63b8ff" points="2368.88,-179.85 2360.34,-186.12 2370.92,-186.55 2368.88,-179.85"/>
</g>
<!-- Node211 -->
<g id="node40" class="node">
<title>Node211</title>
<g id="a_node40"><a xlink:href="m__Do__audio_8cpp.html" target="_top" xlink:title=" ">
<polygon fill="white" stroke="#666666" points="2749.5,-145.5 2615.5,-145.5 2615.5,-126.5 2749.5,-126.5 2749.5,-145.5"/>
<text text-anchor="middle" x="2682.5" y="-133.5" font-family="Helvetica,sans-Serif" font-size="10.00">src/m_Do/m_Do_audio.cpp</text>
</a>
</g>
</g>
<!-- Node134&#45;&gt;Node211 -->
<g id="edge62" class="edge">
<title>Node134&#45;&gt;Node211</title>
<path fill="none" stroke="#63b8ff" d="M2385.4,-186.7C2484.21,-169.3 2511.05,-167.49 2606.5,-151 2615.62,-149.42 2625.35,-147.68 2634.69,-145.97"/>
<polygon fill="#63b8ff" stroke="#63b8ff" points="2385.03,-183.21 2375.8,-188.4 2386.25,-190.1 2385.03,-183.21"/>
</g>
<!-- Node219 -->
<g id="node41" class="node">
<title>Node219</title>
<g id="a_node41"><a xlink:href="m__Do__dvd__thread_8cpp.html" target="_top" xlink:title=" ">
<polygon fill="white" stroke="#666666" points="2925.5,-145.5 2767.5,-145.5 2767.5,-126.5 2925.5,-126.5 2925.5,-145.5"/>
<text text-anchor="middle" x="2846.5" y="-133.5" font-family="Helvetica,sans-Serif" font-size="10.00">src/m_Do/m_Do_dvd_thread.cpp</text>
</a>
</g>
</g>
<!-- Node134&#45;&gt;Node219 -->
<g id="edge63" class="edge">
<title>Node134&#45;&gt;Node219</title>
<path fill="none" stroke="#63b8ff" d="M2385.36,-186.83C2551.12,-163.37 2595.98,-171.71 2758.5,-151 2769.86,-149.55 2782,-147.77 2793.53,-145.97"/>
<polygon fill="#63b8ff" stroke="#63b8ff" points="2385.17,-183.33 2375.77,-188.21 2386.16,-190.25 2385.17,-183.33"/>
</g>
<!-- Node220 -->
<g id="node42" class="node">
<title>Node220</title>
<g id="a_node42"><a xlink:href="m__Do__machine_8cpp.html" target="_top" xlink:title=" ">
<polygon fill="white" stroke="#666666" points="3091,-145.5 2944,-145.5 2944,-126.5 3091,-126.5 3091,-145.5"/>
<text text-anchor="middle" x="3017.5" y="-133.5" font-family="Helvetica,sans-Serif" font-size="10.00">src/m_Do/m_Do_machine.cpp</text>
</a>
</g>
</g>
<!-- Node134&#45;&gt;Node220 -->
<g id="edge64" class="edge">
<title>Node134&#45;&gt;Node220</title>
<path fill="none" stroke="#63b8ff" d="M2385.6,-186.86C2628.86,-156.23 2694.43,-179.02 2934.5,-151 2945.82,-149.68 2957.95,-147.86 2969.34,-145.98"/>
<polygon fill="#63b8ff" stroke="#63b8ff" points="2385.23,-183.38 2375.75,-188.12 2386.12,-190.32 2385.23,-183.38"/>
</g>
</g>
</svg>
