<?xml version="1.0" encoding="UTF-8" standalone="no"?>
<!DOCTYPE svg PUBLIC "-//W3C//DTD SVG 1.1//EN"
 "http://www.w3.org/Graphics/SVG/1.1/DTD/svg11.dtd">
<!-- Generated by graphviz version 7.0.5 (20221223.1930)
 -->
<!-- Title: include/f_pc/f_pc_layer_iter.h Pages: 1 -->
<svg width="5244pt" height="368pt"
 viewBox="0.00 0.00 5244.03 368.00" xmlns="http://www.w3.org/2000/svg" xmlns:xlink="http://www.w3.org/1999/xlink">
<g id="graph0" class="graph" transform="scale(1 1) rotate(0) translate(4 364)">
<title>include/f_pc/f_pc_layer_iter.h</title>
<!-- Node1 -->
<g id="node1" class="node">
<title>Node1</title>
<g id="a_node1"><a xlink:title=" ">
<polygon fill="#999999" stroke="#666666" points="4843.53,-360 4727.53,-360 4727.53,-330 4843.53,-330 4843.53,-360"/>
<text text-anchor="start" x="4735.53" y="-348" font-family="Helvetica,sans-Serif" font-size="10.00">include/f_pc/f_pc_layer</text>
<text text-anchor="middle" x="4785.53" y="-337" font-family="Helvetica,sans-Serif" font-size="10.00">_iter.h</text>
</a>
</g>
</g>
<!-- Node2 -->
<g id="node2" class="node">
<title>Node2</title>
<g id="a_node2"><a xlink:href="f__pc__executor_8h.html" target="_top" xlink:title=" ">
<polygon fill="white" stroke="#666666" points="4232.53,-288.5 4092.53,-288.5 4092.53,-269.5 4232.53,-269.5 4232.53,-288.5"/>
<text text-anchor="middle" x="4162.53" y="-276.5" font-family="Helvetica,sans-Serif" font-size="10.00">include/f_pc/f_pc_executor.h</text>
</a>
</g>
</g>
<!-- Node1&#45;&gt;Node2 -->
<g id="edge1" class="edge">
<title>Node1&#45;&gt;Node2</title>
<path fill="none" stroke="#63b8ff" d="M4716.02,-336.86C4596.42,-324.57 4353.01,-299.57 4232.85,-287.22"/>
<polygon fill="#63b8ff" stroke="#63b8ff" points="4715.39,-340.31 4725.69,-337.85 4716.1,-333.35 4715.39,-340.31"/>
</g>
<!-- Node170 -->
<g id="node30" class="node">
<title>Node170</title>
<g id="a_node30"><a xlink:href="f__pc__manager_8h.html" target="_top" xlink:title=" ">
<polygon fill="white" stroke="#666666" points="3912.03,-222.5 3771.03,-222.5 3771.03,-203.5 3912.03,-203.5 3912.03,-222.5"/>
<text text-anchor="middle" x="3841.53" y="-210.5" font-family="Helvetica,sans-Serif" font-size="10.00">include/f_pc/f_pc_manager.h</text>
</a>
</g>
</g>
<!-- Node1&#45;&gt;Node170 -->
<g id="edge55" class="edge">
<title>Node1&#45;&gt;Node170</title>
<path fill="none" stroke="#63b8ff" d="M4715.64,-344.72C4588.55,-344.78 4311.64,-339.1 4083.53,-294 3999.31,-277.35 3903.76,-239.99 3862.42,-222.87"/>
<polygon fill="#63b8ff" stroke="#63b8ff" points="4715.59,-348.22 4725.58,-344.7 4715.58,-341.22 4715.59,-348.22"/>
</g>
<!-- Node132 -->
<g id="node41" class="node">
<title>Node132</title>
<g id="a_node41"><a xlink:href="f__pc__manager_8cpp.html" target="_top" xlink:title=" ">
<polygon fill="white" stroke="#666666" points="4586.53,-156.5 4452.53,-156.5 4452.53,-137.5 4586.53,-137.5 4586.53,-156.5"/>
<text text-anchor="middle" x="4519.53" y="-144.5" font-family="Helvetica,sans-Serif" font-size="10.00">src/f_pc/f_pc_manager.cpp</text>
</a>
</g>
</g>
<!-- Node1&#45;&gt;Node132 -->
<g id="edge59" class="edge">
<title>Node1&#45;&gt;Node132</title>
<path fill="none" stroke="#63b8ff" d="M4803.6,-320.44C4825.36,-289.01 4855.48,-233.24 4825.53,-198 4795.51,-162.67 4667.35,-152.25 4586.71,-149.21"/>
<polygon fill="#63b8ff" stroke="#63b8ff" points="4800.79,-318.34 4797.8,-328.5 4806.48,-322.43 4800.79,-318.34"/>
</g>
<!-- Node187 -->
<g id="node44" class="node">
<title>Node187</title>
<g id="a_node44"><a xlink:href="f__pc__create__req_8cpp.html" target="_top" xlink:title=" ">
<polygon fill="white" stroke="#666666" points="4672.53,-228 4566.53,-228 4566.53,-198 4672.53,-198 4672.53,-228"/>
<text text-anchor="start" x="4574.53" y="-216" font-family="Helvetica,sans-Serif" font-size="10.00">src/f_pc/f_pc_create</text>
<text text-anchor="middle" x="4619.53" y="-205" font-family="Helvetica,sans-Serif" font-size="10.00">_req.cpp</text>
</a>
</g>
</g>
<!-- Node1&#45;&gt;Node187 -->
<g id="edge56" class="edge">
<title>Node1&#45;&gt;Node187</title>
<path fill="none" stroke="#63b8ff" d="M4758.21,-322.6C4724.25,-296.01 4667.23,-251.36 4638.01,-228.47"/>
<polygon fill="#63b8ff" stroke="#63b8ff" points="4755.91,-325.25 4765.94,-328.66 4760.22,-319.74 4755.91,-325.25"/>
</g>
<!-- Node188 -->
<g id="node45" class="node">
<title>Node188</title>
<g id="a_node45"><a xlink:href="f__pc__deletor_8cpp.html" target="_top" xlink:title=" ">
<polygon fill="white" stroke="#666666" points="4816.53,-222.5 4690.53,-222.5 4690.53,-203.5 4816.53,-203.5 4816.53,-222.5"/>
<text text-anchor="middle" x="4753.53" y="-210.5" font-family="Helvetica,sans-Serif" font-size="10.00">src/f_pc/f_pc_deletor.cpp</text>
</a>
</g>
</g>
<!-- Node1&#45;&gt;Node188 -->
<g id="edge57" class="edge">
<title>Node1&#45;&gt;Node188</title>
<path fill="none" stroke="#63b8ff" d="M4779.25,-318.51C4771.99,-289.01 4760.42,-242.01 4755.67,-222.71"/>
<polygon fill="#63b8ff" stroke="#63b8ff" points="4775.83,-319.25 4781.62,-328.12 4782.63,-317.57 4775.83,-319.25"/>
</g>
<!-- Node191 -->
<g id="node48" class="node">
<title>Node191</title>
<g id="a_node48"><a xlink:href="f__pc__layer__iter_8cpp.html" target="_top" xlink:title=" ">
<polygon fill="white" stroke="#666666" points="4958.03,-294 4859.03,-294 4859.03,-264 4958.03,-264 4958.03,-294"/>
<text text-anchor="start" x="4867.03" y="-282" font-family="Helvetica,sans-Serif" font-size="10.00">src/f_pc/f_pc_layer</text>
<text text-anchor="middle" x="4908.53" y="-271" font-family="Helvetica,sans-Serif" font-size="10.00">_iter.cpp</text>
</a>
</g>
</g>
<!-- Node1&#45;&gt;Node191 -->
<g id="edge58" class="edge">
<title>Node1&#45;&gt;Node191</title>
<path fill="none" stroke="#63b8ff" d="M4823.1,-324.45C4841.77,-314.73 4863.94,-303.2 4881.02,-294.31"/>
<polygon fill="#63b8ff" stroke="#63b8ff" points="4821.73,-321.22 4814.47,-328.94 4824.96,-327.43 4821.73,-321.22"/>
</g>
<!-- Node192 -->
<g id="node49" class="node">
<title>Node192</title>
<g id="a_node49"><a xlink:href="f__pc__node_8cpp.html" target="_top" xlink:title=" ">
<polygon fill="white" stroke="#666666" points="5094.53,-288.5 4976.53,-288.5 4976.53,-269.5 5094.53,-269.5 5094.53,-288.5"/>
<text text-anchor="middle" x="5035.53" y="-276.5" font-family="Helvetica,sans-Serif" font-size="10.00">src/f_pc/f_pc_node.cpp</text>
</a>
</g>
</g>
<!-- Node1&#45;&gt;Node192 -->
<g id="edge60" class="edge">
<title>Node1&#45;&gt;Node192</title>
<path fill="none" stroke="#63b8ff" d="M4853.1,-326.7C4900.68,-314.52 4962.45,-298.71 5000.52,-288.96"/>
<polygon fill="#63b8ff" stroke="#63b8ff" points="4852.23,-323.31 4843.41,-329.18 4853.97,-330.09 4852.23,-323.31"/>
</g>
<!-- Node193 -->
<g id="node50" class="node">
<title>Node193</title>
<g id="a_node50"><a xlink:href="f__pc__pause_8cpp.html" target="_top" xlink:title=" ">
<polygon fill="white" stroke="#666666" points="5236.03,-288.5 5113.03,-288.5 5113.03,-269.5 5236.03,-269.5 5236.03,-288.5"/>
<text text-anchor="middle" x="5174.53" y="-276.5" font-family="Helvetica,sans-Serif" font-size="10.00">src/f_pc/f_pc_pause.cpp</text>
</a>
</g>
</g>
<!-- Node1&#45;&gt;Node193 -->
<g id="edge61" class="edge">
<title>Node1&#45;&gt;Node193</title>
<path fill="none" stroke="#63b8ff" d="M4855.2,-333.84C4919.72,-324.24 5018.26,-309.1 5103.53,-294 5112.31,-292.44 5121.68,-290.67 5130.64,-288.93"/>
<polygon fill="#63b8ff" stroke="#63b8ff" points="4854.84,-330.35 4845.46,-335.28 4855.86,-337.28 4854.84,-330.35"/>
</g>
<!-- Node3 -->
<g id="node3" class="node">
<title>Node3</title>
<g id="a_node3"><a xlink:href="f__op__actor__mng_8h.html" target="_top" xlink:title=" ">
<polygon fill="#fff0f0" stroke="red" points="1795.53,-162 1677.53,-162 1677.53,-132 1795.53,-132 1795.53,-162"/>
<text text-anchor="start" x="1685.53" y="-150" font-family="Helvetica,sans-Serif" font-size="10.00">include/f_op/f_op_actor</text>
<text text-anchor="middle" x="1736.53" y="-139" font-family="Helvetica,sans-Serif" font-size="10.00">_mng.h</text>
</a>
</g>
</g>
<!-- Node2&#45;&gt;Node3 -->
<g id="edge2" class="edge">
<title>Node2&#45;&gt;Node3</title>
<path fill="none" stroke="#63b8ff" d="M4080.84,-273.62C3702.19,-253.33 2122.52,-168.68 1795.81,-151.18"/>
<polygon fill="#63b8ff" stroke="#63b8ff" points="4080.53,-277.11 4090.7,-274.15 4080.91,-270.12 4080.53,-277.11"/>
</g>
<!-- Node2&#45;&gt;Node170 -->
<g id="edge30" class="edge">
<title>Node2&#45;&gt;Node170</title>
<path fill="none" stroke="#63b8ff" d="M4106.33,-266.8C4043.8,-254.33 3944.02,-234.43 3886.45,-222.96"/>
<polygon fill="#63b8ff" stroke="#63b8ff" points="4105.58,-270.21 4116.07,-268.74 4106.95,-263.35 4105.58,-270.21"/>
</g>
<!-- Node181 -->
<g id="node37" class="node">
<title>Node181</title>
<g id="a_node37"><a xlink:href="f__op__overlap__req_8cpp.html" target="_top" xlink:title=" ">
<polygon fill="white" stroke="#666666" points="4310.53,-162 4200.53,-162 4200.53,-132 4310.53,-132 4310.53,-162"/>
<text text-anchor="start" x="4208.53" y="-150" font-family="Helvetica,sans-Serif" font-size="10.00">src/f_op/f_op_overlap</text>
<text text-anchor="middle" x="4255.53" y="-139" font-family="Helvetica,sans-Serif" font-size="10.00">_req.cpp</text>
</a>
</g>
</g>
<!-- Node2&#45;&gt;Node181 -->
<g id="edge47" class="edge">
<title>Node2&#45;&gt;Node181</title>
<path fill="none" stroke="#63b8ff" d="M4081.04,-271.4C4010.89,-262.6 3926.49,-242.57 3964.53,-198 3997.54,-159.31 4140.54,-171.36 4190.53,-162 4193.71,-161.41 4196.97,-160.77 4200.25,-160.12"/>
<polygon fill="#63b8ff" stroke="#63b8ff" points="4080.31,-274.84 4090.65,-272.54 4081.13,-267.89 4080.31,-274.84"/>
</g>
<!-- Node183 -->
<g id="node39" class="node">
<title>Node183</title>
<g id="a_node39"><a xlink:href="f__op__scene__pause_8cpp.html" target="_top" xlink:title=" ">
<polygon fill="white" stroke="#666666" points="4434.03,-162 4329.03,-162 4329.03,-132 4434.03,-132 4434.03,-162"/>
<text text-anchor="start" x="4337.03" y="-150" font-family="Helvetica,sans-Serif" font-size="10.00">src/f_op/f_op_scene</text>
<text text-anchor="middle" x="4381.53" y="-139" font-family="Helvetica,sans-Serif" font-size="10.00">_pause.cpp</text>
</a>
</g>
</g>
<!-- Node2&#45;&gt;Node183 -->
<g id="edge48" class="edge">
<title>Node2&#45;&gt;Node183</title>
<path fill="none" stroke="#63b8ff" d="M4090.61,-266.85C4034.45,-255.18 3970.82,-233.51 4002.53,-198 4049.75,-145.12 4249.62,-173.83 4319.53,-162 4322.58,-161.48 4325.7,-160.91 4328.84,-160.31"/>
<polygon fill="#63b8ff" stroke="#63b8ff" points="4089.74,-270.24 4100.23,-268.75 4091.1,-263.38 4089.74,-270.24"/>
</g>
<!-- Node2&#45;&gt;Node132 -->
<g id="edge53" class="edge">
<title>Node2&#45;&gt;Node132</title>
<path fill="none" stroke="#63b8ff" d="M4111.81,-266.05C4065.13,-252.77 4007.1,-229.05 4035.53,-198 4066.18,-164.51 4397.54,-168.07 4442.53,-162 4452.76,-160.62 4463.71,-158.83 4474.04,-156.98"/>
<polygon fill="#63b8ff" stroke="#63b8ff" points="4110.74,-269.38 4121.31,-268.64 4112.59,-262.63 4110.74,-269.38"/>
</g>
<!-- Node185 -->
<g id="node42" class="node">
<title>Node185</title>
<g id="a_node42"><a xlink:href="f__op__overlap__mng_8cpp.html" target="_top" xlink:title=" ">
<polygon fill="white" stroke="#666666" points="4154.53,-228 4044.53,-228 4044.53,-198 4154.53,-198 4154.53,-228"/>
<text text-anchor="start" x="4052.53" y="-216" font-family="Helvetica,sans-Serif" font-size="10.00">src/f_op/f_op_overlap</text>
<text text-anchor="middle" x="4099.53" y="-205" font-family="Helvetica,sans-Serif" font-size="10.00">_mng.cpp</text>
</a>
</g>
</g>
<!-- Node2&#45;&gt;Node185 -->
<g id="edge46" class="edge">
<title>Node2&#45;&gt;Node185</title>
<path fill="none" stroke="#63b8ff" d="M4145.74,-260.95C4135.69,-250.73 4123.05,-237.9 4113.54,-228.23"/>
<polygon fill="#63b8ff" stroke="#63b8ff" points="4143.2,-263.35 4152.71,-268.02 4148.19,-258.44 4143.2,-263.35"/>
</g>
<!-- Node186 -->
<g id="node43" class="node">
<title>Node186</title>
<g id="a_node43"><a xlink:href="f__op__scene__req_8cpp.html" target="_top" xlink:title=" ">
<polygon fill="white" stroke="#666666" points="4278.03,-228 4173.03,-228 4173.03,-198 4278.03,-198 4278.03,-228"/>
<text text-anchor="start" x="4181.03" y="-216" font-family="Helvetica,sans-Serif" font-size="10.00">src/f_op/f_op_scene</text>
<text text-anchor="middle" x="4225.53" y="-205" font-family="Helvetica,sans-Serif" font-size="10.00">_req.cpp</text>
</a>
</g>
</g>
<!-- Node2&#45;&gt;Node186 -->
<g id="edge49" class="edge">
<title>Node2&#45;&gt;Node186</title>
<path fill="none" stroke="#63b8ff" d="M4179.32,-260.95C4189.37,-250.73 4202,-237.9 4211.52,-228.23"/>
<polygon fill="#63b8ff" stroke="#63b8ff" points="4176.87,-258.44 4172.35,-268.02 4181.86,-263.35 4176.87,-258.44"/>
</g>
<!-- Node2&#45;&gt;Node187 -->
<g id="edge50" class="edge">
<title>Node2&#45;&gt;Node187</title>
<path fill="none" stroke="#63b8ff" d="M4243.75,-270.03C4323.85,-261.62 4449.59,-246.97 4557.53,-228 4560.35,-227.5 4563.25,-226.96 4566.16,-226.39"/>
<polygon fill="#63b8ff" stroke="#63b8ff" points="4243.85,-266.5 4234.26,-271.01 4244.57,-273.46 4243.85,-266.5"/>
</g>
<!-- Node2&#45;&gt;Node188 -->
<g id="edge51" class="edge">
<title>Node2&#45;&gt;Node188</title>
<path fill="none" stroke="#63b8ff" d="M4244.07,-272.58C4346.53,-265.2 4527.62,-250.33 4681.53,-228 4691.11,-226.61 4701.34,-224.81 4711,-222.97"/>
<polygon fill="#63b8ff" stroke="#63b8ff" points="4244.12,-269.06 4234.39,-273.27 4244.61,-276.05 4244.12,-269.06"/>
</g>
<!-- Node189 -->
<g id="node46" class="node">
<title>Node189</title>
<g id="a_node46"><a xlink:href="f__pc__executor_8cpp.html" target="_top" xlink:title=" ">
<polygon fill="white" stroke="#666666" points="4430.53,-222.5 4296.53,-222.5 4296.53,-203.5 4430.53,-203.5 4430.53,-222.5"/>
<text text-anchor="middle" x="4363.53" y="-210.5" font-family="Helvetica,sans-Serif" font-size="10.00">src/f_pc/f_pc_executor.cpp</text>
</a>
</g>
</g>
<!-- Node2&#45;&gt;Node189 -->
<g id="edge52" class="edge">
<title>Node2&#45;&gt;Node189</title>
<path fill="none" stroke="#63b8ff" d="M4201.23,-265.68C4240.56,-253.15 4300.53,-234.06 4335.49,-222.93"/>
<polygon fill="#63b8ff" stroke="#63b8ff" points="4200.39,-262.27 4191.92,-268.64 4202.51,-268.94 4200.39,-262.27"/>
</g>
<!-- Node190 -->
<g id="node47" class="node">
<title>Node190</title>
<g id="a_node47"><a xlink:href="f__pc__node__req_8cpp.html" target="_top" xlink:title=" ">
<polygon fill="white" stroke="#666666" points="4548.53,-228 4448.53,-228 4448.53,-198 4548.53,-198 4548.53,-228"/>
<text text-anchor="start" x="4456.53" y="-216" font-family="Helvetica,sans-Serif" font-size="10.00">src/f_pc/f_pc_node</text>
<text text-anchor="middle" x="4498.53" y="-205" font-family="Helvetica,sans-Serif" font-size="10.00">_req.cpp</text>
</a>
</g>
</g>
<!-- Node2&#45;&gt;Node190 -->
<g id="edge54" class="edge">
<title>Node2&#45;&gt;Node190</title>
<path fill="none" stroke="#63b8ff" d="M4228.59,-267.12C4284.84,-257.6 4367.7,-242.99 4439.53,-228 4442.31,-227.42 4445.16,-226.81 4448.04,-226.17"/>
<polygon fill="#63b8ff" stroke="#63b8ff" points="4228.13,-263.64 4218.85,-268.76 4229.29,-270.55 4228.13,-263.64"/>
</g>
<!-- Node4 -->
<g id="node4" class="node">
<title>Node4</title>
<g id="a_node4"><a xlink:href="d__a__alink_8h.html" target="_top" xlink:title=" ">
<polygon fill="#fff0f0" stroke="red" points="1718.53,-19 1602.53,-19 1602.53,0 1718.53,0 1718.53,-19"/>
<text text-anchor="middle" x="1660.53" y="-7" font-family="Helvetica,sans-Serif" font-size="10.00">include/d/a/d_a_alink.h</text>
</a>
</g>
</g>
<!-- Node3&#45;&gt;Node4 -->
<g id="edge3" class="edge">
<title>Node3&#45;&gt;Node4</title>
<path fill="none" stroke="#63b8ff" d="M1665.75,-145.29C1344.61,-141.88 38.85,-126.18 9.53,-96 -3.17,-82.93 -3.18,-68.06 9.53,-55 37.89,-25.87 1312.68,-13.42 1602.38,-10.97"/>
<polygon fill="#63b8ff" stroke="#63b8ff" points="1665.65,-148.78 1675.69,-145.39 1665.72,-141.78 1665.65,-148.78"/>
</g>
<!-- Node139 -->
<g id="node5" class="node">
<title>Node139</title>
<g id="a_node5"><a xlink:href="d__a__obj__item_8h.html" target="_top" xlink:title=" ">
<polygon fill="#fff0f0" stroke="red" points="120.03,-90.5 19.03,-90.5 19.03,-60.5 120.03,-60.5 120.03,-90.5"/>
<text text-anchor="start" x="27.03" y="-78.5" font-family="Helvetica,sans-Serif" font-size="10.00">include/d/a/d_a_obj</text>
<text text-anchor="middle" x="69.53" y="-67.5" font-family="Helvetica,sans-Serif" font-size="10.00">_item.h</text>
</a>
</g>
</g>
<!-- Node3&#45;&gt;Node139 -->
<g id="edge4" class="edge">
<title>Node3&#45;&gt;Node139</title>
<path fill="none" stroke="#63b8ff" d="M1666.09,-146.5C1396.52,-147.99 430.33,-149.41 128.53,-96 121.73,-94.8 114.64,-92.98 107.84,-90.92"/>
<polygon fill="#63b8ff" stroke="#63b8ff" points="1665.78,-150 1675.76,-146.44 1665.74,-143 1665.78,-150"/>
</g>
<!-- Node140 -->
<g id="node6" class="node">
<title>Node140</title>
<g id="a_node6"><a xlink:href="d__a__obj__ss__base_8h.html" target="_top" xlink:title=" ">
<polygon fill="#fff0f0" stroke="red" points="239.03,-90.5 138.03,-90.5 138.03,-60.5 239.03,-60.5 239.03,-90.5"/>
<text text-anchor="start" x="146.03" y="-78.5" font-family="Helvetica,sans-Serif" font-size="10.00">include/d/a/d_a_obj</text>
<text text-anchor="middle" x="188.53" y="-67.5" font-family="Helvetica,sans-Serif" font-size="10.00">_ss_base.h</text>
</a>
</g>
</g>
<!-- Node3&#45;&gt;Node140 -->
<g id="edge5" class="edge">
<title>Node3&#45;&gt;Node140</title>
<path fill="none" stroke="#63b8ff" d="M1665.84,-146.29C1408.89,-146.94 524.96,-145.45 247.53,-96 240.73,-94.79 233.65,-92.96 226.84,-90.91"/>
<polygon fill="#63b8ff" stroke="#63b8ff" points="1665.74,-149.79 1675.73,-146.27 1665.72,-142.79 1665.74,-149.79"/>
</g>
<!-- Node142 -->
<g id="node7" class="node">
<title>Node142</title>
<g id="a_node7"><a xlink:href="d__bomb_8h.html" target="_top" xlink:title=" ">
<polygon fill="#fff0f0" stroke="red" points="358.03,-85 257.03,-85 257.03,-66 358.03,-66 358.03,-85"/>
<text text-anchor="middle" x="307.53" y="-73" font-family="Helvetica,sans-Serif" font-size="10.00">include/d/d_bomb.h</text>
</a>
</g>
</g>
<!-- Node3&#45;&gt;Node142 -->
<g id="edge6" class="edge">
<title>Node3&#45;&gt;Node142</title>
<path fill="none" stroke="#63b8ff" d="M1665.88,-146.05C1422.46,-145.81 619.77,-141.52 366.53,-96 354,-93.75 340.49,-89.43 329.56,-85.43"/>
<polygon fill="#63b8ff" stroke="#63b8ff" points="1665.86,-149.55 1675.87,-146.06 1665.87,-142.55 1665.86,-149.55"/>
</g>
<!-- Node144 -->
<g id="node8" class="node">
<title>Node144</title>
<g id="a_node8"><a xlink:href="d__door__param2_8h.html" target="_top" xlink:title=" ">
<polygon fill="#fff0f0" stroke="red" points="509.03,-85 376.03,-85 376.03,-66 509.03,-66 509.03,-85"/>
<text text-anchor="middle" x="442.53" y="-73" font-family="Helvetica,sans-Serif" font-size="10.00">include/d/d_door_param2.h</text>
</a>
</g>
</g>
<!-- Node3&#45;&gt;Node144 -->
<g id="edge7" class="edge">
<title>Node3&#45;&gt;Node144</title>
<path fill="none" stroke="#63b8ff" d="M1665.95,-145.05C1440.94,-141.72 742.21,-128.91 518.53,-96 502.76,-93.68 485.53,-89.41 471.47,-85.45"/>
<polygon fill="#63b8ff" stroke="#63b8ff" points="1665.69,-148.55 1675.74,-145.19 1665.79,-141.55 1665.69,-148.55"/>
</g>
<!-- Node72 -->
<g id="node9" class="node">
<title>Node72</title>
<g id="a_node9"><a xlink:href="d__a__andsw_8h.html" target="_top" xlink:title=" ">
<polygon fill="white" stroke="#666666" points="637.53,-90.5 527.53,-90.5 527.53,-60.5 637.53,-60.5 637.53,-90.5"/>
<text text-anchor="start" x="535.53" y="-78.5" font-family="Helvetica,sans-Serif" font-size="10.00">include/rel/d/a/d_a</text>
<text text-anchor="middle" x="582.53" y="-67.5" font-family="Helvetica,sans-Serif" font-size="10.00">_andsw/d_a_andsw.h</text>
</a>
</g>
</g>
<!-- Node3&#45;&gt;Node72 -->
<g id="edge8" class="edge">
<title>Node3&#45;&gt;Node72</title>
<path fill="none" stroke="#63b8ff" d="M1665.62,-145.06C1456.31,-141.91 843.48,-129.97 646.53,-96 639.32,-94.76 631.78,-92.94 624.51,-90.92"/>
<polygon fill="#63b8ff" stroke="#63b8ff" points="1665.49,-148.56 1675.54,-145.2 1665.59,-141.56 1665.49,-148.56"/>
</g>
<!-- Node146 -->
<g id="node10" class="node">
<title>Node146</title>
<g id="a_node10"><a xlink:href="d__a__arrow_8h.html" target="_top" xlink:title=" ">
<polygon fill="white" stroke="#666666" points="757.03,-90.5 656.03,-90.5 656.03,-60.5 757.03,-60.5 757.03,-90.5"/>
<text text-anchor="start" x="664.03" y="-78.5" font-family="Helvetica,sans-Serif" font-size="10.00">include/rel/d/a/d_a</text>
<text text-anchor="middle" x="706.53" y="-67.5" font-family="Helvetica,sans-Serif" font-size="10.00">_arrow/d_a_arrow.h</text>
</a>
</g>
</g>
<!-- Node3&#45;&gt;Node146 -->
<g id="edge9" class="edge">
<title>Node3&#45;&gt;Node146</title>
<path fill="none" stroke="#63b8ff" d="M1665.8,-144.81C1472.51,-141.17 938.28,-128.39 765.53,-96 758.95,-94.77 752.1,-92.99 745.5,-91"/>
<polygon fill="#63b8ff" stroke="#63b8ff" points="1665.64,-148.31 1675.7,-144.99 1665.77,-141.31 1665.64,-148.31"/>
</g>
<!-- Node147 -->
<g id="node11" class="node">
<title>Node147</title>
<g id="a_node11"><a xlink:href="d__a__boomerang_8h.html" target="_top" xlink:title=" ">
<polygon fill="#fff0f0" stroke="red" points="924.03,-90.5 775.03,-90.5 775.03,-60.5 924.03,-60.5 924.03,-90.5"/>
<text text-anchor="start" x="783.03" y="-78.5" font-family="Helvetica,sans-Serif" font-size="10.00">include/rel/d/a/d_a</text>
<text text-anchor="middle" x="849.53" y="-67.5" font-family="Helvetica,sans-Serif" font-size="10.00">_boomerang/d_a_boomerang.h</text>
</a>
</g>
</g>
<!-- Node3&#45;&gt;Node147 -->
<g id="edge10" class="edge">
<title>Node3&#45;&gt;Node147</title>
<path fill="none" stroke="#63b8ff" d="M1665.85,-145.53C1525.51,-143.72 1202.06,-135.25 933.53,-96 924.49,-94.68 914.99,-92.88 905.76,-90.91"/>
<polygon fill="#63b8ff" stroke="#63b8ff" points="1665.69,-149.03 1675.73,-145.65 1665.78,-142.03 1665.69,-149.03"/>
</g>
<!-- Node148 -->
<g id="node12" class="node">
<title>Node148</title>
<g id="a_node12"><a xlink:href="d__a__canoe_8h.html" target="_top" xlink:title=" ">
<polygon fill="white" stroke="#666666" points="1048.53,-90.5 942.53,-90.5 942.53,-60.5 1048.53,-60.5 1048.53,-90.5"/>
<text text-anchor="start" x="950.53" y="-78.5" font-family="Helvetica,sans-Serif" font-size="10.00">include/rel/d/a/d_a</text>
<text text-anchor="middle" x="995.53" y="-67.5" font-family="Helvetica,sans-Serif" font-size="10.00">_canoe/d_a_canoe.h</text>
</a>
</g>
</g>
<!-- Node3&#45;&gt;Node148 -->
<g id="edge11" class="edge">
<title>Node3&#45;&gt;Node148</title>
<path fill="none" stroke="#63b8ff" d="M1666.15,-146.15C1542.07,-145.22 1276.78,-137.96 1057.53,-96 1050.77,-94.71 1043.71,-92.92 1036.88,-90.95"/>
<polygon fill="#63b8ff" stroke="#63b8ff" points="1665.81,-149.64 1675.84,-146.21 1665.86,-142.64 1665.81,-149.64"/>
</g>
<!-- Node149 -->
<g id="node13" class="node">
<title>Node149</title>
<g id="a_node13"><a xlink:href="d__a__crod_8h.html" target="_top" xlink:title=" ">
<polygon fill="#fff0f0" stroke="red" points="1162.53,-90.5 1066.53,-90.5 1066.53,-60.5 1162.53,-60.5 1162.53,-90.5"/>
<text text-anchor="start" x="1074.53" y="-78.5" font-family="Helvetica,sans-Serif" font-size="10.00">include/rel/d/a/d_a</text>
<text text-anchor="middle" x="1114.53" y="-67.5" font-family="Helvetica,sans-Serif" font-size="10.00">_crod/d_a_crod.h</text>
</a>
</g>
</g>
<!-- Node3&#45;&gt;Node149 -->
<g id="edge12" class="edge">
<title>Node3&#45;&gt;Node149</title>
<path fill="none" stroke="#63b8ff" d="M1665.92,-145.2C1558.16,-142.75 1346.73,-133.15 1171.53,-96 1165.39,-94.7 1159,-92.94 1152.81,-91"/>
<polygon fill="#63b8ff" stroke="#63b8ff" points="1665.69,-148.69 1675.76,-145.4 1665.84,-141.69 1665.69,-148.69"/>
</g>
<!-- Node150 -->
<g id="node14" class="node">
<title>Node150</title>
<g id="a_node14"><a xlink:href="d__a__scene__exit_8h.html" target="_top" xlink:title=" ">
<polygon fill="#fff0f0" stroke="red" points="1300.03,-96 1181.03,-96 1181.03,-55 1300.03,-55 1300.03,-96"/>
<text text-anchor="start" x="1189.03" y="-84" font-family="Helvetica,sans-Serif" font-size="10.00">include/rel/d/a/d_a</text>
<text text-anchor="start" x="1189.03" y="-73" font-family="Helvetica,sans-Serif" font-size="10.00">_scene_exit/d_a_scene</text>
<text text-anchor="middle" x="1240.53" y="-62" font-family="Helvetica,sans-Serif" font-size="10.00">_exit.h</text>
</a>
</g>
</g>
<!-- Node3&#45;&gt;Node150 -->
<g id="edge13" class="edge">
<title>Node3&#45;&gt;Node150</title>
<path fill="none" stroke="#63b8ff" d="M1665.84,-141.29C1580.53,-134.79 1433.01,-120.95 1308.53,-96 1305.88,-95.47 1303.18,-94.89 1300.47,-94.26"/>
<polygon fill="#63b8ff" stroke="#63b8ff" points="1665.46,-144.77 1675.7,-142.03 1665.98,-137.79 1665.46,-144.77"/>
</g>
<!-- Node151 -->
<g id="node15" class="node">
<title>Node151</title>
<g id="a_node15"><a xlink:href="d__a__suspend_8h.html" target="_top" xlink:title=" ">
<polygon fill="white" stroke="#666666" points="1445.03,-90.5 1318.03,-90.5 1318.03,-60.5 1445.03,-60.5 1445.03,-90.5"/>
<text text-anchor="start" x="1326.03" y="-78.5" font-family="Helvetica,sans-Serif" font-size="10.00">include/rel/d/a/d_a</text>
<text text-anchor="middle" x="1381.53" y="-67.5" font-family="Helvetica,sans-Serif" font-size="10.00">_suspend/d_a_suspend.h</text>
</a>
</g>
</g>
<!-- Node3&#45;&gt;Node151 -->
<g id="edge14" class="edge">
<title>Node3&#45;&gt;Node151</title>
<path fill="none" stroke="#63b8ff" d="M1665.99,-135.21C1608.75,-126.04 1526.09,-111.87 1454.53,-96 1447.74,-94.49 1440.64,-92.78 1433.63,-91"/>
<polygon fill="#63b8ff" stroke="#63b8ff" points="1665.17,-138.62 1675.6,-136.74 1666.27,-131.71 1665.17,-138.62"/>
</g>
<!-- Node80 -->
<g id="node16" class="node">
<title>Node80</title>
<g id="a_node16"><a xlink:href="d__a__swTime_8h.html" target="_top" xlink:title=" ">
<polygon fill="white" stroke="#666666" points="1585.53,-90.5 1463.53,-90.5 1463.53,-60.5 1585.53,-60.5 1585.53,-90.5"/>
<text text-anchor="start" x="1471.53" y="-78.5" font-family="Helvetica,sans-Serif" font-size="10.00">include/rel/d/a/d_a</text>
<text text-anchor="middle" x="1524.53" y="-67.5" font-family="Helvetica,sans-Serif" font-size="10.00">_swTime/d_a_swTime.h</text>
</a>
</g>
</g>
<!-- Node3&#45;&gt;Node80 -->
<g id="edge15" class="edge">
<title>Node3&#45;&gt;Node80</title>
<path fill="none" stroke="#63b8ff" d="M1681.77,-128.05C1646.6,-116.52 1601.52,-101.74 1568.66,-90.97"/>
<polygon fill="#63b8ff" stroke="#63b8ff" points="1680.31,-131.25 1690.91,-131.04 1682.49,-124.6 1680.31,-131.25"/>
</g>
<!-- Node152 -->
<g id="node17" class="node">
<title>Node152</title>
<g id="a_node17"><a xlink:href="d__a__tboxSw_8h.html" target="_top" xlink:title=" ">
<polygon fill="white" stroke="#666666" points="1721.53,-90.5 1603.53,-90.5 1603.53,-60.5 1721.53,-60.5 1721.53,-90.5"/>
<text text-anchor="start" x="1611.53" y="-78.5" font-family="Helvetica,sans-Serif" font-size="10.00">include/rel/d/a/d_a</text>
<text text-anchor="middle" x="1662.53" y="-67.5" font-family="Helvetica,sans-Serif" font-size="10.00">_tboxSw/d_a_tboxSw.h</text>
</a>
</g>
</g>
<!-- Node3&#45;&gt;Node152 -->
<g id="edge16" class="edge">
<title>Node3&#45;&gt;Node152</title>
<path fill="none" stroke="#63b8ff" d="M1712.89,-123.8C1701.42,-113.02 1687.96,-100.38 1677.84,-90.88"/>
<polygon fill="#63b8ff" stroke="#63b8ff" points="1710.41,-126.27 1720.09,-130.56 1715.2,-121.17 1710.41,-126.27"/>
</g>
<!-- Node153 -->
<g id="node18" class="node">
<title>Node153</title>
<g id="a_node18"><a xlink:href="d__a__kytag17_8h.html" target="_top" xlink:title=" ">
<polygon fill="white" stroke="#666666" points="1879.53,-90.5 1739.53,-90.5 1739.53,-60.5 1879.53,-60.5 1879.53,-90.5"/>
<text text-anchor="start" x="1747.53" y="-78.5" font-family="Helvetica,sans-Serif" font-size="10.00">include/rel/d/a/kytag</text>
<text text-anchor="middle" x="1809.53" y="-67.5" font-family="Helvetica,sans-Serif" font-size="10.00">/d_a_kytag17/d_a_kytag17.h</text>
</a>
</g>
</g>
<!-- Node3&#45;&gt;Node153 -->
<g id="edge17" class="edge">
<title>Node3&#45;&gt;Node153</title>
<path fill="none" stroke="#63b8ff" d="M1759.84,-123.8C1771.17,-113.02 1784.44,-100.38 1794.42,-90.88"/>
<polygon fill="#63b8ff" stroke="#63b8ff" points="1757.58,-121.13 1752.75,-130.56 1762.41,-126.2 1757.58,-121.13"/>
</g>
<!-- Node86 -->
<g id="node19" class="node">
<title>Node86</title>
<g id="a_node19"><a xlink:href="d__a__tag__ajnot_8h.html" target="_top" xlink:title=" ">
<polygon fill="white" stroke="#666666" points="2015.53,-96 1897.53,-96 1897.53,-55 2015.53,-55 2015.53,-96"/>
<text text-anchor="start" x="1905.53" y="-84" font-family="Helvetica,sans-Serif" font-size="10.00">include/rel/d/a/tag</text>
<text text-anchor="start" x="1905.53" y="-73" font-family="Helvetica,sans-Serif" font-size="10.00">/d_a_tag_ajnot/d_a_tag</text>
<text text-anchor="middle" x="1956.53" y="-62" font-family="Helvetica,sans-Serif" font-size="10.00">_ajnot.h</text>
</a>
</g>
</g>
<!-- Node3&#45;&gt;Node86 -->
<g id="edge18" class="edge">
<title>Node3&#45;&gt;Node86</title>
<path fill="none" stroke="#63b8ff" d="M1793.32,-128.06C1825.24,-117.98 1865.04,-105.4 1897.34,-95.2"/>
<polygon fill="#63b8ff" stroke="#63b8ff" points="1792.3,-124.71 1783.82,-131.06 1794.41,-131.38 1792.3,-124.71"/>
</g>
<!-- Node154 -->
<g id="node20" class="node">
<title>Node154</title>
<g id="a_node20"><a xlink:href="d__a__tag__arena_8h.html" target="_top" xlink:title=" ">
<polygon fill="white" stroke="#666666" points="2155.03,-96 2034.03,-96 2034.03,-55 2155.03,-55 2155.03,-96"/>
<text text-anchor="start" x="2042.03" y="-84" font-family="Helvetica,sans-Serif" font-size="10.00">include/rel/d/a/tag</text>
<text text-anchor="start" x="2042.03" y="-73" font-family="Helvetica,sans-Serif" font-size="10.00">/d_a_tag_arena/d_a_tag</text>
<text text-anchor="middle" x="2094.53" y="-62" font-family="Helvetica,sans-Serif" font-size="10.00">_arena.h</text>
</a>
</g>
</g>
<!-- Node3&#45;&gt;Node154 -->
<g id="edge19" class="edge">
<title>Node3&#45;&gt;Node154</title>
<path fill="none" stroke="#63b8ff" d="M1807.23,-135.74C1865.77,-126.77 1950.97,-112.59 2024.53,-96 2027.48,-95.33 2030.5,-94.62 2033.54,-93.88"/>
<polygon fill="#63b8ff" stroke="#63b8ff" points="1806.75,-132.27 1797.39,-137.24 1807.8,-139.19 1806.75,-132.27"/>
</g>
<!-- Node87 -->
<g id="node21" class="node">
<title>Node87</title>
<g id="a_node21"><a xlink:href="d__a__tag__assistance_8h.html" target="_top" xlink:title=" ">
<polygon fill="white" stroke="#666666" points="2287.53,-96 2173.53,-96 2173.53,-55 2287.53,-55 2287.53,-96"/>
<text text-anchor="start" x="2181.53" y="-84" font-family="Helvetica,sans-Serif" font-size="10.00">include/rel/d/a/tag</text>
<text text-anchor="start" x="2181.53" y="-73" font-family="Helvetica,sans-Serif" font-size="10.00">/d_a_tag_assistance</text>
<text text-anchor="middle" x="2230.53" y="-62" font-family="Helvetica,sans-Serif" font-size="10.00">/d_a_tag_assistance.h</text>
</a>
</g>
</g>
<!-- Node3&#45;&gt;Node87 -->
<g id="edge20" class="edge">
<title>Node3&#45;&gt;Node87</title>
<path fill="none" stroke="#63b8ff" d="M1807.07,-141.36C1892.2,-134.93 2039.39,-121.15 2163.53,-96 2166.73,-95.35 2170.01,-94.62 2173.3,-93.84"/>
<polygon fill="#63b8ff" stroke="#63b8ff" points="1806.95,-137.86 1797.24,-142.09 1807.47,-144.84 1806.95,-137.86"/>
</g>
<!-- Node155 -->
<g id="node22" class="node">
<title>Node155</title>
<g id="a_node22"><a xlink:href="d__a__tag__escape_8h.html" target="_top" xlink:title=" ">
<polygon fill="white" stroke="#666666" points="2415.53,-96 2305.53,-96 2305.53,-55 2415.53,-55 2415.53,-96"/>
<text text-anchor="start" x="2313.53" y="-84" font-family="Helvetica,sans-Serif" font-size="10.00">include/rel/d/a/tag</text>
<text text-anchor="start" x="2313.53" y="-73" font-family="Helvetica,sans-Serif" font-size="10.00">/d_a_tag_escape/d_a</text>
<text text-anchor="middle" x="2360.53" y="-62" font-family="Helvetica,sans-Serif" font-size="10.00">_tag_escape.h</text>
</a>
</g>
</g>
<!-- Node3&#45;&gt;Node155 -->
<g id="edge21" class="edge">
<title>Node3&#45;&gt;Node155</title>
<path fill="none" stroke="#63b8ff" d="M1807.22,-144.36C1914.08,-140.84 2122.74,-129.86 2296.53,-96 2299.38,-95.44 2302.28,-94.81 2305.2,-94.12"/>
<polygon fill="#63b8ff" stroke="#63b8ff" points="1807.34,-140.86 1797.46,-144.67 1807.57,-147.85 1807.34,-140.86"/>
</g>
<!-- Node88 -->
<g id="node23" class="node">
<title>Node88</title>
<g id="a_node23"><a xlink:href="d__a__tag__gra_8h.html" target="_top" xlink:title=" ">
<polygon fill="white" stroke="#666666" points="2571.03,-90.5 2434.03,-90.5 2434.03,-60.5 2571.03,-60.5 2571.03,-90.5"/>
<text text-anchor="start" x="2442.03" y="-78.5" font-family="Helvetica,sans-Serif" font-size="10.00">include/rel/d/a/tag</text>
<text text-anchor="middle" x="2502.53" y="-67.5" font-family="Helvetica,sans-Serif" font-size="10.00">/d_a_tag_gra/d_a_tag_gra.h</text>
</a>
</g>
</g>
<!-- Node3&#45;&gt;Node88 -->
<g id="edge22" class="edge">
<title>Node3&#45;&gt;Node88</title>
<path fill="none" stroke="#63b8ff" d="M1807.12,-144.88C1932.27,-141.99 2200.92,-131.8 2424.53,-96 2432.8,-94.68 2441.48,-92.9 2449.92,-90.96"/>
<polygon fill="#63b8ff" stroke="#63b8ff" points="1807.26,-141.37 1797.34,-145.09 1807.41,-148.37 1807.26,-141.37"/>
</g>
<!-- Node156 -->
<g id="node24" class="node">
<title>Node156</title>
<g id="a_node24"><a xlink:href="d__a__tag__guard_8h.html" target="_top" xlink:title=" ">
<polygon fill="white" stroke="#666666" points="2710.03,-96 2589.03,-96 2589.03,-55 2710.03,-55 2710.03,-96"/>
<text text-anchor="start" x="2597.03" y="-84" font-family="Helvetica,sans-Serif" font-size="10.00">include/rel/d/a/tag</text>
<text text-anchor="start" x="2597.03" y="-73" font-family="Helvetica,sans-Serif" font-size="10.00">/d_a_tag_guard/d_a_tag</text>
<text text-anchor="middle" x="2649.53" y="-62" font-family="Helvetica,sans-Serif" font-size="10.00">_guard.h</text>
</a>
</g>
</g>
<!-- Node3&#45;&gt;Node156 -->
<g id="edge23" class="edge">
<title>Node3&#45;&gt;Node156</title>
<path fill="none" stroke="#63b8ff" d="M1807.16,-146.85C1952.72,-147.49 2296.18,-143.32 2579.53,-96 2582.52,-95.5 2585.56,-94.92 2588.62,-94.29"/>
<polygon fill="#63b8ff" stroke="#63b8ff" points="1807.31,-143.35 1797.29,-146.79 1807.27,-150.35 1807.31,-143.35"/>
</g>
<!-- Node89 -->
<g id="node25" class="node">
<title>Node89</title>
<g id="a_node25"><a xlink:href="d__a__tag__howl_8h.html" target="_top" xlink:title=" ">
<polygon fill="white" stroke="#666666" points="2845.03,-96 2728.03,-96 2728.03,-55 2845.03,-55 2845.03,-96"/>
<text text-anchor="start" x="2736.03" y="-84" font-family="Helvetica,sans-Serif" font-size="10.00">include/rel/d/a/tag</text>
<text text-anchor="start" x="2736.03" y="-73" font-family="Helvetica,sans-Serif" font-size="10.00">/d_a_tag_howl/d_a_tag</text>
<text text-anchor="middle" x="2786.53" y="-62" font-family="Helvetica,sans-Serif" font-size="10.00">_howl.h</text>
</a>
</g>
</g>
<!-- Node3&#45;&gt;Node89 -->
<g id="edge24" class="edge">
<title>Node3&#45;&gt;Node89</title>
<path fill="none" stroke="#63b8ff" d="M1807.3,-144.49C2002.04,-140.02 2542.99,-125.24 2718.53,-96 2721.56,-95.5 2724.64,-94.9 2727.75,-94.25"/>
<polygon fill="#63b8ff" stroke="#63b8ff" points="1807.24,-140.99 1797.32,-144.72 1807.4,-147.99 1807.24,-140.99"/>
</g>
<!-- Node157 -->
<g id="node26" class="node">
<title>Node157</title>
<g id="a_node26"><a xlink:href="d__a__tag__instruction_8h.html" target="_top" xlink:title=" ">
<polygon fill="white" stroke="#666666" points="2975.53,-96 2863.53,-96 2863.53,-55 2975.53,-55 2975.53,-96"/>
<text text-anchor="start" x="2871.53" y="-84" font-family="Helvetica,sans-Serif" font-size="10.00">include/rel/d/a/tag</text>
<text text-anchor="start" x="2871.53" y="-73" font-family="Helvetica,sans-Serif" font-size="10.00">/d_a_tag_instruction</text>
<text text-anchor="middle" x="2919.53" y="-62" font-family="Helvetica,sans-Serif" font-size="10.00">/d_a_tag_instruction.h</text>
</a>
</g>
</g>
<!-- Node3&#45;&gt;Node157 -->
<g id="edge25" class="edge">
<title>Node3&#45;&gt;Node157</title>
<path fill="none" stroke="#63b8ff" d="M1807,-145.08C2019.36,-141.95 2650.85,-129.96 2853.53,-96 2856.71,-95.47 2859.95,-94.83 2863.21,-94.12"/>
<polygon fill="#63b8ff" stroke="#63b8ff" points="1807.18,-141.58 1797.23,-145.22 1807.28,-148.57 1807.18,-141.58"/>
</g>
<!-- Node158 -->
<g id="node27" class="node">
<title>Node158</title>
<g id="a_node27"><a xlink:href="d__a__tag__lv5soup_8h.html" target="_top" xlink:title=" ">
<polygon fill="white" stroke="#666666" points="3105.53,-96 2993.53,-96 2993.53,-55 3105.53,-55 3105.53,-96"/>
<text text-anchor="start" x="3001.53" y="-84" font-family="Helvetica,sans-Serif" font-size="10.00">include/rel/d/a/tag</text>
<text text-anchor="start" x="3001.53" y="-73" font-family="Helvetica,sans-Serif" font-size="10.00">/d_a_tag_lv5soup/d_a</text>
<text text-anchor="middle" x="3049.53" y="-62" font-family="Helvetica,sans-Serif" font-size="10.00">_tag_lv5soup.h</text>
</a>
</g>
</g>
<!-- Node3&#45;&gt;Node158 -->
<g id="edge26" class="edge">
<title>Node3&#45;&gt;Node158</title>
<path fill="none" stroke="#63b8ff" d="M1807.32,-145.5C2036.33,-143.51 2755.53,-134.31 2984.53,-96 2987.43,-95.51 2990.39,-94.94 2993.36,-94.29"/>
<polygon fill="#63b8ff" stroke="#63b8ff" points="1807.3,-142 1797.33,-145.58 1807.36,-149 1807.3,-142"/>
</g>
<!-- Node159 -->
<g id="node28" class="node">
<title>Node159</title>
<g id="a_node28"><a xlink:href="d__a__tag__magne_8h.html" target="_top" xlink:title=" ">
<polygon fill="#fff0f0" stroke="red" points="3249.53,-96 3123.53,-96 3123.53,-55 3249.53,-55 3249.53,-96"/>
<text text-anchor="start" x="3131.53" y="-84" font-family="Helvetica,sans-Serif" font-size="10.00">include/rel/d/a/tag</text>
<text text-anchor="start" x="3131.53" y="-73" font-family="Helvetica,sans-Serif" font-size="10.00">/d_a_tag_magne/d_a_tag</text>
<text text-anchor="middle" x="3186.53" y="-62" font-family="Helvetica,sans-Serif" font-size="10.00">_magne.h</text>
</a>
</g>
</g>
<!-- Node3&#45;&gt;Node159 -->
<g id="edge27" class="edge">
<title>Node3&#45;&gt;Node159</title>
<path fill="none" stroke="#63b8ff" d="M1807.15,-145.56C2051.27,-143.73 2858.53,-134.79 3114.53,-96 3117.35,-95.57 3120.21,-95.08 3123.09,-94.52"/>
<polygon fill="#63b8ff" stroke="#63b8ff" points="1807.44,-142.06 1797.46,-145.64 1807.49,-149.06 1807.44,-142.06"/>
</g>
<!-- Node160 -->
<g id="node29" class="node">
<title>Node160</title>
<g id="a_node29"><a xlink:href="d__a__tag__mmsg_8h.html" target="_top" xlink:title=" ">
<polygon fill="white" stroke="#666666" points="3391.53,-96 3267.53,-96 3267.53,-55 3391.53,-55 3391.53,-96"/>
<text text-anchor="start" x="3275.53" y="-84" font-family="Helvetica,sans-Serif" font-size="10.00">include/rel/d/a/tag</text>
<text text-anchor="start" x="3275.53" y="-73" font-family="Helvetica,sans-Serif" font-size="10.00">/d_a_tag_mmsg/d_a_tag</text>
<text text-anchor="middle" x="3329.53" y="-62" font-family="Helvetica,sans-Serif" font-size="10.00">_mmsg.h</text>
</a>
</g>
</g>
<!-- Node3&#45;&gt;Node160 -->
<g id="edge28" class="edge">
<title>Node3&#45;&gt;Node160</title>
<path fill="none" stroke="#63b8ff" d="M1806.99,-145.88C2067.11,-145.1 2973.12,-139.26 3258.53,-96 3261.44,-95.56 3264.39,-95.04 3267.37,-94.46"/>
<polygon fill="#63b8ff" stroke="#63b8ff" points="1807.32,-142.38 1797.33,-145.91 1807.34,-149.38 1807.32,-142.38"/>
</g>
<!-- Node160&#45;&gt;Node4 -->
<g id="edge29" class="edge">
<title>Node160&#45;&gt;Node4</title>
<path fill="none" stroke="#63b8ff" d="M3256.04,-54.88C2929.85,-9.44 1966.32,-9.48 1718.93,-10.25"/>
<polygon fill="#63b8ff" stroke="#63b8ff" points="3255.48,-58.34 3265.87,-56.3 3256.48,-51.41 3255.48,-58.34"/>
</g>
<!-- Node170&#45;&gt;Node3 -->
<g id="edge31" class="edge">
<title>Node170&#45;&gt;Node3</title>
<path fill="none" stroke="#63b8ff" d="M3759.23,-209.5C3414.74,-199.02 2092.67,-158.83 1795.89,-149.8"/>
<polygon fill="#63b8ff" stroke="#63b8ff" points="3758.97,-212.99 3769.07,-209.8 3759.19,-205.99 3758.97,-212.99"/>
</g>
<!-- Node171 -->
<g id="node31" class="node">
<title>Node171</title>
<g id="a_node31"><a xlink:href="f__op__kankyo_8h.html" target="_top" xlink:title=" ">
<polygon fill="#fff0f0" stroke="red" points="3543.53,-85 3409.53,-85 3409.53,-66 3543.53,-66 3543.53,-85"/>
<text text-anchor="middle" x="3476.53" y="-73" font-family="Helvetica,sans-Serif" font-size="10.00">include/f_op/f_op_kankyo.h</text>
</a>
</g>
</g>
<!-- Node170&#45;&gt;Node171 -->
<g id="edge32" class="edge">
<title>Node170&#45;&gt;Node171</title>
<path fill="none" stroke="#63b8ff" d="M3759.52,-208.37C3639.99,-202.22 3429.56,-187.83 3406.53,-162 3382.4,-134.94 3432.05,-101.23 3459.7,-85.44"/>
<polygon fill="#63b8ff" stroke="#63b8ff" points="3759.11,-211.85 3769.28,-208.86 3759.47,-204.86 3759.11,-211.85"/>
</g>
<!-- Node64 -->
<g id="node32" class="node">
<title>Node64</title>
<g id="a_node32"><a xlink:href="f__op__kankyo_8cpp.html" target="_top" xlink:title=" ">
<polygon fill="white" stroke="#666666" points="3587.53,-19 3459.53,-19 3459.53,0 3587.53,0 3587.53,-19"/>
<text text-anchor="middle" x="3523.53" y="-7" font-family="Helvetica,sans-Serif" font-size="10.00">src/f_op/f_op_kankyo.cpp</text>
</a>
</g>
</g>
<!-- Node170&#45;&gt;Node64 -->
<g id="edge39" class="edge">
<title>Node170&#45;&gt;Node64</title>
<path fill="none" stroke="#63b8ff" d="M3759.52,-204.42C3696.29,-197.01 3615.53,-183.63 3590.53,-162 3552.36,-128.99 3574.91,-100.23 3552.53,-55 3546.07,-41.94 3536.54,-28.05 3530.18,-19.33"/>
<polygon fill="#63b8ff" stroke="#63b8ff" points="3758.87,-207.87 3769.2,-205.52 3759.66,-200.91 3758.87,-207.87"/>
</g>
<!-- Node175 -->
<g id="node33" class="node">
<title>Node175</title>
<g id="a_node33"><a xlink:href="f__op__kankyo__mng_8h.html" target="_top" xlink:title=" ">
<polygon fill="#fff0f0" stroke="red" points="3543.03,-162 3416.03,-162 3416.03,-132 3543.03,-132 3543.03,-162"/>
<text text-anchor="start" x="3424.03" y="-150" font-family="Helvetica,sans-Serif" font-size="10.00">include/f_op/f_op_kankyo</text>
<text text-anchor="middle" x="3479.53" y="-139" font-family="Helvetica,sans-Serif" font-size="10.00">_mng.h</text>
</a>
</g>
</g>
<!-- Node170&#45;&gt;Node175 -->
<g id="edge34" class="edge">
<title>Node170&#45;&gt;Node175</title>
<path fill="none" stroke="#63b8ff" d="M3779.12,-201.07C3721.57,-190.98 3633.78,-175.55 3557.53,-162 3552.92,-161.18 3548.17,-160.33 3543.38,-159.48"/>
<polygon fill="#63b8ff" stroke="#63b8ff" points="3778.27,-204.48 3788.72,-202.76 3779.48,-197.58 3778.27,-204.48"/>
</g>
<!-- Node176 -->
<g id="node34" class="node">
<title>Node176</title>
<g id="a_node34"><a xlink:href="f__op__scene__mng_8h.html" target="_top" xlink:title=" ">
<polygon fill="#fff0f0" stroke="red" points="3721.53,-162 3599.53,-162 3599.53,-132 3721.53,-132 3721.53,-162"/>
<text text-anchor="start" x="3607.53" y="-150" font-family="Helvetica,sans-Serif" font-size="10.00">include/f_op/f_op_scene</text>
<text text-anchor="middle" x="3660.53" y="-139" font-family="Helvetica,sans-Serif" font-size="10.00">_mng.h</text>
</a>
</g>
</g>
<!-- Node170&#45;&gt;Node176 -->
<g id="edge36" class="edge">
<title>Node170&#45;&gt;Node176</title>
<path fill="none" stroke="#63b8ff" d="M3805.54,-199.27C3775.53,-188.66 3732.78,-173.55 3701.47,-162.48"/>
<polygon fill="#63b8ff" stroke="#63b8ff" points="3804.34,-202.56 3814.93,-202.6 3806.67,-195.96 3804.34,-202.56"/>
</g>
<!-- Node178 -->
<g id="node35" class="node">
<title>Node178</title>
<g id="a_node35"><a xlink:href="f__ap__game_8cpp.html" target="_top" xlink:title=" ">
<polygon fill="white" stroke="#666666" points="3766.03,-85 3645.03,-85 3645.03,-66 3766.03,-66 3766.03,-85"/>
<text text-anchor="middle" x="3705.53" y="-73" font-family="Helvetica,sans-Serif" font-size="10.00">src/f_ap/f_ap_game.cpp</text>
</a>
</g>
</g>
<!-- Node170&#45;&gt;Node178 -->
<g id="edge38" class="edge">
<title>Node170&#45;&gt;Node178</title>
<path fill="none" stroke="#63b8ff" d="M3815.76,-197.33C3801.03,-188.23 3782.71,-175.7 3768.53,-162 3743.07,-137.4 3720.36,-101.61 3710.6,-85.25"/>
<polygon fill="#63b8ff" stroke="#63b8ff" points="3813.62,-200.12 3824,-202.26 3817.22,-194.12 3813.62,-200.12"/>
</g>
<!-- Node180 -->
<g id="node36" class="node">
<title>Node180</title>
<g id="a_node36"><a xlink:href="f__op__overlap_8cpp.html" target="_top" xlink:title=" ">
<polygon fill="white" stroke="#666666" points="3905.53,-156.5 3777.53,-156.5 3777.53,-137.5 3905.53,-137.5 3905.53,-156.5"/>
<text text-anchor="middle" x="3841.53" y="-144.5" font-family="Helvetica,sans-Serif" font-size="10.00">src/f_op/f_op_overlap.cpp</text>
</a>
</g>
</g>
<!-- Node170&#45;&gt;Node180 -->
<g id="edge40" class="edge">
<title>Node170&#45;&gt;Node180</title>
<path fill="none" stroke="#63b8ff" d="M3841.53,-191.68C3841.53,-179.94 3841.53,-165.77 3841.53,-156.82"/>
<polygon fill="#63b8ff" stroke="#63b8ff" points="3838.03,-191.59 3841.53,-201.59 3845.03,-191.59 3838.03,-191.59"/>
</g>
<!-- Node170&#45;&gt;Node181 -->
<g id="edge41" class="edge">
<title>Node170&#45;&gt;Node181</title>
<path fill="none" stroke="#63b8ff" d="M3905.83,-201.22C3912.81,-200.1 3919.82,-199.01 3926.53,-198 4043.63,-180.38 4073.89,-182.48 4190.53,-162 4193.71,-161.44 4196.98,-160.84 4200.27,-160.2"/>
<polygon fill="#63b8ff" stroke="#63b8ff" points="3905.35,-197.75 3896.04,-202.79 3906.47,-204.66 3905.35,-197.75"/>
</g>
<!-- Node182 -->
<g id="node38" class="node">
<title>Node182</title>
<g id="a_node38"><a xlink:href="f__op__scene_8cpp.html" target="_top" xlink:title=" ">
<polygon fill="white" stroke="#666666" points="4047.03,-156.5 3924.03,-156.5 3924.03,-137.5 4047.03,-137.5 4047.03,-156.5"/>
<text text-anchor="middle" x="3985.53" y="-144.5" font-family="Helvetica,sans-Serif" font-size="10.00">src/f_op/f_op_scene.cpp</text>
</a>
</g>
</g>
<!-- Node170&#45;&gt;Node182 -->
<g id="edge42" class="edge">
<title>Node170&#45;&gt;Node182</title>
<path fill="none" stroke="#63b8ff" d="M3872.05,-198.44C3900.29,-185.88 3941.47,-167.58 3965.68,-156.82"/>
<polygon fill="#63b8ff" stroke="#63b8ff" points="3870.65,-195.23 3862.93,-202.49 3873.49,-201.62 3870.65,-195.23"/>
</g>
<!-- Node170&#45;&gt;Node183 -->
<g id="edge43" class="edge">
<title>Node170&#45;&gt;Node183</title>
<path fill="none" stroke="#63b8ff" d="M3923.74,-202.5C3937.36,-200.97 3951.34,-199.42 3964.53,-198 4122.21,-181.03 4163.01,-187.51 4319.53,-162 4322.58,-161.5 4325.7,-160.95 4328.85,-160.35"/>
<polygon fill="#63b8ff" stroke="#63b8ff" points="3923.46,-199.01 3913.91,-203.61 3924.24,-205.97 3923.46,-199.01"/>
</g>
<!-- Node184 -->
<g id="node40" class="node">
<title>Node184</title>
<g id="a_node40"><a xlink:href="f__op__view_8cpp.html" target="_top" xlink:title=" ">
<polygon fill="white" stroke="#666666" points="4182.03,-156.5 4065.03,-156.5 4065.03,-137.5 4182.03,-137.5 4182.03,-156.5"/>
<text text-anchor="middle" x="4123.53" y="-144.5" font-family="Helvetica,sans-Serif" font-size="10.00">src/f_op/f_op_view.cpp</text>
</a>
</g>
</g>
<!-- Node170&#45;&gt;Node184 -->
<g id="edge44" class="edge">
<title>Node170&#45;&gt;Node184</title>
<path fill="none" stroke="#63b8ff" d="M3891.94,-200.56C3947.02,-188.06 4034.08,-168.3 4084.29,-156.91"/>
<polygon fill="#63b8ff" stroke="#63b8ff" points="3891.49,-197.07 3882.51,-202.7 3893.04,-203.9 3891.49,-197.07"/>
</g>
<!-- Node170&#45;&gt;Node132 -->
<g id="edge45" class="edge">
<title>Node170&#45;&gt;Node132</title>
<path fill="none" stroke="#63b8ff" d="M3923.85,-204.76C3949.09,-202.56 3976.95,-200.16 4002.53,-198 4198.04,-181.5 4247.99,-187.58 4442.53,-162 4452.9,-160.64 4464,-158.83 4474.45,-156.96"/>
<polygon fill="#63b8ff" stroke="#63b8ff" points="3923.62,-201.27 3913.96,-205.62 3924.23,-208.24 3923.62,-201.27"/>
</g>
<!-- Node171&#45;&gt;Node64 -->
<g id="edge33" class="edge">
<title>Node171&#45;&gt;Node64</title>
<path fill="none" stroke="#63b8ff" d="M3489.82,-56.4C3498.73,-44.27 3510.06,-28.84 3517.05,-19.32"/>
<polygon fill="#63b8ff" stroke="#63b8ff" points="3487.06,-54.25 3483.96,-64.38 3492.7,-58.39 3487.06,-54.25"/>
</g>
<!-- Node175&#45;&gt;Node171 -->
<g id="edge35" class="edge">
<title>Node175&#45;&gt;Node171</title>
<path fill="none" stroke="#63b8ff" d="M3478.43,-120.46C3477.89,-108.07 3477.28,-93.99 3476.9,-85.18"/>
<polygon fill="#63b8ff" stroke="#63b8ff" points="3474.91,-120.25 3478.84,-130.09 3481.91,-119.95 3474.91,-120.25"/>
</g>
<!-- Node176&#45;&gt;Node178 -->
<g id="edge37" class="edge">
<title>Node176&#45;&gt;Node178</title>
<path fill="none" stroke="#63b8ff" d="M3676.08,-121.99C3684.33,-109.24 3693.97,-94.36 3699.91,-85.18"/>
<polygon fill="#63b8ff" stroke="#63b8ff" points="3673.17,-120.03 3670.68,-130.33 3679.05,-123.84 3673.17,-120.03"/>
</g>
</g>
</svg>
