<?xml version="1.0" encoding="UTF-8" standalone="no"?>
<!DOCTYPE svg PUBLIC "-//W3C//DTD SVG 1.1//EN"
 "http://www.w3.org/Graphics/SVG/1.1/DTD/svg11.dtd">
<!-- Generated by graphviz version 7.0.5 (20221223.1930)
 -->
<!-- Title: src/f_pc/f_pc_stdcreate_req.cpp Pages: 1 -->
<svg width="1173pt" height="654pt"
 viewBox="0.00 0.00 1173.00 654.00" xmlns="http://www.w3.org/2000/svg" xmlns:xlink="http://www.w3.org/1999/xlink">
<g id="graph0" class="graph" transform="scale(1 1) rotate(0) translate(4 650)">
<title>src/f_pc/f_pc_stdcreate_req.cpp</title>
<!-- Node1 -->
<g id="node1" class="node">
<title>Node1</title>
<g id="a_node1"><a xlink:title=" ">
<polygon fill="#999999" stroke="#666666" points="607.5,-646 488.5,-646 488.5,-616 607.5,-616 607.5,-646"/>
<text text-anchor="start" x="496.5" y="-634" font-family="Helvetica,sans-Serif" font-size="10.00">src/f_pc/f_pc_stdcreate</text>
<text text-anchor="middle" x="548" y="-623" font-family="Helvetica,sans-Serif" font-size="10.00">_req.cpp</text>
</a>
</g>
</g>
<!-- Node2 -->
<g id="node2" class="node">
<title>Node2</title>
<g id="a_node2"><a xlink:href="f__pc__stdcreate__req_8h.html" target="_top" xlink:title=" ">
<polygon fill="white" stroke="#666666" points="126.5,-525 23.5,-525 23.5,-495 126.5,-495 126.5,-525"/>
<text text-anchor="start" x="31.5" y="-513" font-family="Helvetica,sans-Serif" font-size="10.00">f_pc/f_pc_stdcreate</text>
<text text-anchor="middle" x="75" y="-502" font-family="Helvetica,sans-Serif" font-size="10.00">_req.h</text>
</a>
</g>
</g>
<!-- Node1&#45;&gt;Node2 -->
<g id="edge1" class="edge">
<title>Node1&#45;&gt;Node2</title>
<path fill="none" stroke="#63b8ff" d="M490.47,-615.53C401.25,-593.08 230.2,-550.05 137.84,-526.81"/>
<polygon fill="#63b8ff" stroke="#63b8ff" points="138.73,-523.42 128.18,-524.38 137.02,-530.21 138.73,-523.42"/>
</g>
<!-- Node15 -->
<g id="node15" class="node">
<title>Node15</title>
<g id="a_node15"><a xlink:href="f__pc__base_8h.html" target="_top" xlink:title=" ">
<polygon fill="white" stroke="#666666" points="723.5,-519.5 632.5,-519.5 632.5,-500.5 723.5,-500.5 723.5,-519.5"/>
<text text-anchor="middle" x="678" y="-507.5" font-family="Helvetica,sans-Serif" font-size="10.00">f_pc/f_pc_base.h</text>
</a>
</g>
</g>
<!-- Node1&#45;&gt;Node15 -->
<g id="edge33" class="edge">
<title>Node1&#45;&gt;Node15</title>
<path fill="none" stroke="#63b8ff" d="M563.68,-615.65C587.86,-593.51 634.12,-551.16 659.76,-527.69"/>
<polygon fill="#63b8ff" stroke="#63b8ff" points="662.07,-530.33 667.08,-521 657.34,-525.17 662.07,-530.33"/>
</g>
<!-- Node21 -->
<g id="node21" class="node">
<title>Node21</title>
<g id="a_node21"><a xlink:href="f__pc__load_8h.html" target="_top" xlink:title=" ">
<polygon fill="white" stroke="#666666" points="1165,-343.5 1077,-343.5 1077,-324.5 1165,-324.5 1165,-343.5"/>
<text text-anchor="middle" x="1121" y="-331.5" font-family="Helvetica,sans-Serif" font-size="10.00">f_pc/f_pc_load.h</text>
</a>
</g>
</g>
<!-- Node1&#45;&gt;Node21 -->
<g id="edge53" class="edge">
<title>Node1&#45;&gt;Node21</title>
<path fill="none" stroke="#63b8ff" d="M607.77,-629.72C751.37,-627.45 1104,-611.63 1104,-511 1104,-511 1104,-511 1104,-448.5 1104,-415.37 1111.17,-377.39 1116.2,-354.84"/>
<polygon fill="#63b8ff" stroke="#63b8ff" points="1119.58,-355.77 1118.43,-345.24 1112.76,-354.18 1119.58,-355.77"/>
</g>
<!-- Node22 -->
<g id="node22" class="node">
<title>Node22</title>
<g id="a_node22"><a xlink:href="f__pc__node_8h.html" target="_top" xlink:title=" ">
<polygon fill="white" stroke="#666666" points="556.5,-580 465.5,-580 465.5,-561 556.5,-561 556.5,-580"/>
<text text-anchor="middle" x="511" y="-568" font-family="Helvetica,sans-Serif" font-size="10.00">f_pc/f_pc_node.h</text>
</a>
</g>
</g>
<!-- Node1&#45;&gt;Node22 -->
<g id="edge55" class="edge">
<title>Node1&#45;&gt;Node22</title>
<path fill="none" stroke="#63b8ff" d="M538.85,-615.54C533.92,-607.74 527.78,-598.03 522.52,-589.71"/>
<polygon fill="#63b8ff" stroke="#63b8ff" points="525.6,-588.03 517.3,-581.45 519.68,-591.78 525.6,-588.03"/>
</g>
<!-- Node3 -->
<g id="node3" class="node">
<title>Node3</title>
<g id="a_node3"><a xlink:href="types_8h.html" target="_top" xlink:title=" ">
<polygon fill="white" stroke="#666666" points="491.5,-85 410.5,-85 410.5,-66 491.5,-66 491.5,-85"/>
<text text-anchor="middle" x="451" y="-73" font-family="Helvetica,sans-Serif" font-size="10.00">dolphin/types.h</text>
</a>
</g>
</g>
<!-- Node2&#45;&gt;Node3 -->
<g id="edge2" class="edge">
<title>Node2&#45;&gt;Node3</title>
<path fill="none" stroke="#63b8ff" d="M57.23,-494.52C35.05,-474.69 0,-436.83 0,-395.5 0,-395.5 0,-395.5 0,-201 0,-148.8 38.67,-143.01 86,-121 140.37,-95.71 311.51,-83.58 398.75,-78.91"/>
<polygon fill="#63b8ff" stroke="#63b8ff" points="398.91,-82.4 408.72,-78.39 398.55,-75.41 398.91,-82.4"/>
</g>
<!-- Node5 -->
<g id="node5" class="node">
<title>Node5</title>
<g id="a_node5"><a xlink:href="f__pc__create__req_8h.html" target="_top" xlink:title=" ">
<polygon fill="white" stroke="#666666" points="413,-459 297,-459 297,-440 413,-440 413,-459"/>
<text text-anchor="middle" x="355" y="-447" font-family="Helvetica,sans-Serif" font-size="10.00">f_pc/f_pc_create_req.h</text>
</a>
</g>
</g>
<!-- Node2&#45;&gt;Node5 -->
<g id="edge4" class="edge">
<title>Node2&#45;&gt;Node5</title>
<path fill="none" stroke="#63b8ff" d="M126.68,-498.2C176.34,-487.83 251.04,-472.22 301.35,-461.71"/>
<polygon fill="#63b8ff" stroke="#63b8ff" points="301.77,-465.2 310.84,-459.73 300.33,-458.35 301.77,-465.2"/>
</g>
<!-- Node12 -->
<g id="node12" class="node">
<title>Node12</title>
<g id="a_node12"><a xlink:href="f__pc__layer_8h.html" target="_top" xlink:title=" ">
<polygon fill="white" stroke="#666666" points="671,-404 581,-404 581,-385 671,-385 671,-404"/>
<text text-anchor="middle" x="626" y="-392" font-family="Helvetica,sans-Serif" font-size="10.00">f_pc/f_pc_layer.h</text>
</a>
</g>
</g>
<!-- Node2&#45;&gt;Node12 -->
<g id="edge32" class="edge">
<title>Node2&#45;&gt;Node12</title>
<path fill="none" stroke="#63b8ff" d="M126.78,-505.96C195.42,-500.93 319.77,-488.35 422,-459 442.08,-453.23 445.32,-447.02 465,-440 501.77,-426.87 544.39,-415.25 576.54,-407.17"/>
<polygon fill="#63b8ff" stroke="#63b8ff" points="577.12,-410.64 585.98,-404.83 575.43,-403.84 577.12,-410.64"/>
</g>
<!-- Node4 -->
<g id="node4" class="node">
<title>Node4</title>
<g id="a_node4"><a xlink:href="stddef_8h.html" target="_top" xlink:title=" ">
<polygon fill="white" stroke="#666666" points="519,-30 383,-30 383,0 519,0 519,-30"/>
<text text-anchor="start" x="391" y="-18" font-family="Helvetica,sans-Serif" font-size="10.00">MSL_C/MSL_Common/Src</text>
<text text-anchor="middle" x="451" y="-7" font-family="Helvetica,sans-Serif" font-size="10.00">/stddef.h</text>
</a>
</g>
</g>
<!-- Node3&#45;&gt;Node4 -->
<g id="edge3" class="edge">
<title>Node3&#45;&gt;Node4</title>
<path fill="none" stroke="#63b8ff" d="M451,-65.87C451,-59.4 451,-50.2 451,-41.45"/>
<polygon fill="#63b8ff" stroke="#63b8ff" points="454.5,-41.63 451,-31.63 447.5,-41.63 454.5,-41.63"/>
</g>
<!-- Node5&#45;&gt;Node3 -->
<g id="edge18" class="edge">
<title>Node5&#45;&gt;Node3</title>
<path fill="none" stroke="#63b8ff" d="M317.44,-439.62C297.53,-433.02 274.29,-421.96 260,-404 220.67,-354.58 194.08,-169.94 234,-121 254.41,-95.98 341.42,-84.64 398.87,-79.79"/>
<polygon fill="#63b8ff" stroke="#63b8ff" points="399.09,-83.29 408.78,-79 398.54,-76.31 399.09,-83.29"/>
</g>
<!-- Node6 -->
<g id="node6" class="node">
<title>Node6</title>
<g id="a_node6"><a xlink:href="c__phase_8h.html" target="_top" xlink:title=" ">
<polygon fill="white" stroke="#666666" points="182,-283 66,-283 66,-253 182,-253 182,-283"/>
<text text-anchor="start" x="74" y="-271" font-family="Helvetica,sans-Serif" font-size="10.00">SSystem/SComponent</text>
<text text-anchor="middle" x="124" y="-260" font-family="Helvetica,sans-Serif" font-size="10.00">/c_phase.h</text>
</a>
</g>
</g>
<!-- Node5&#45;&gt;Node6 -->
<g id="edge5" class="edge">
<title>Node5&#45;&gt;Node6</title>
<path fill="none" stroke="#63b8ff" d="M303.3,-439.52C261.34,-431.36 206.4,-418.42 189,-404 154.7,-375.57 137.2,-324.76 129.38,-294.24"/>
<polygon fill="#63b8ff" stroke="#63b8ff" points="132.83,-293.64 127.11,-284.73 126.02,-295.27 132.83,-293.64"/>
</g>
<!-- Node7 -->
<g id="node7" class="node">
<title>Node7</title>
<g id="a_node7"><a xlink:href="c__tag_8h.html" target="_top" xlink:title=" ">
<polygon fill="white" stroke="#666666" points="747,-349 631,-349 631,-319 747,-319 747,-349"/>
<text text-anchor="start" x="639" y="-337" font-family="Helvetica,sans-Serif" font-size="10.00">SSystem/SComponent</text>
<text text-anchor="middle" x="689" y="-326" font-family="Helvetica,sans-Serif" font-size="10.00">/c_tag.h</text>
</a>
</g>
</g>
<!-- Node5&#45;&gt;Node7 -->
<g id="edge7" class="edge">
<title>Node5&#45;&gt;Node7</title>
<path fill="none" stroke="#63b8ff" d="M362.59,-439.94C375.41,-426.04 402.85,-398.75 432,-385 491.46,-356.94 565.77,-344.63 619.17,-339.23"/>
<polygon fill="#63b8ff" stroke="#63b8ff" points="619.44,-342.72 629.06,-338.29 618.78,-335.75 619.44,-342.72"/>
</g>
<!-- Node11 -->
<g id="node11" class="node">
<title>Node11</title>
<g id="a_node11"><a xlink:href="f__pc__create__tag_8h.html" target="_top" xlink:title=" ">
<polygon fill="white" stroke="#666666" points="385,-404 269,-404 269,-385 385,-385 385,-404"/>
<text text-anchor="middle" x="327" y="-392" font-family="Helvetica,sans-Serif" font-size="10.00">f_pc/f_pc_create_tag.h</text>
</a>
</g>
</g>
<!-- Node5&#45;&gt;Node11 -->
<g id="edge19" class="edge">
<title>Node5&#45;&gt;Node11</title>
<path fill="none" stroke="#63b8ff" d="M350.38,-439.75C346.75,-432.88 341.57,-423.08 337.01,-414.45"/>
<polygon fill="#63b8ff" stroke="#63b8ff" points="340.2,-412.99 332.43,-405.78 334.01,-416.26 340.2,-412.99"/>
</g>
<!-- Node5&#45;&gt;Node12 -->
<g id="edge22" class="edge">
<title>Node5&#45;&gt;Node12</title>
<path fill="none" stroke="#63b8ff" d="M400.97,-439.51C447.48,-430.41 519.47,-416.33 569.45,-406.56"/>
<polygon fill="#63b8ff" stroke="#63b8ff" points="570.08,-410 579.22,-404.65 568.74,-403.13 570.08,-410"/>
</g>
<!-- Node13 -->
<g id="node13" class="node">
<title>Node13</title>
<g id="a_node13"><a xlink:href="f__pc__method_8h.html" target="_top" xlink:title=" ">
<polygon fill="white" stroke="#666666" points="137,-404 35,-404 35,-385 137,-385 137,-404"/>
<text text-anchor="middle" x="86" y="-392" font-family="Helvetica,sans-Serif" font-size="10.00">f_pc/f_pc_method.h</text>
</a>
</g>
</g>
<!-- Node5&#45;&gt;Node13 -->
<g id="edge27" class="edge">
<title>Node5&#45;&gt;Node13</title>
<path fill="none" stroke="#63b8ff" d="M309.37,-439.51C263.34,-430.44 192.17,-416.42 142.58,-406.65"/>
<polygon fill="#63b8ff" stroke="#63b8ff" points="143.38,-403.24 132.89,-404.74 142.03,-410.11 143.38,-403.24"/>
</g>
<!-- Node14 -->
<g id="node14" class="node">
<title>Node14</title>
<g id="a_node14"><a xlink:href="f__pc__method__tag_8h.html" target="_top" xlink:title=" ">
<polygon fill="white" stroke="#666666" points="562.5,-404 441.5,-404 441.5,-385 562.5,-385 562.5,-404"/>
<text text-anchor="middle" x="502" y="-392" font-family="Helvetica,sans-Serif" font-size="10.00">f_pc/f_pc_method_tag.h</text>
</a>
</g>
</g>
<!-- Node5&#45;&gt;Node14 -->
<g id="edge29" class="edge">
<title>Node5&#45;&gt;Node14</title>
<path fill="none" stroke="#63b8ff" d="M379.94,-439.51C403.84,-430.89 440.14,-417.8 466.95,-408.14"/>
<polygon fill="#63b8ff" stroke="#63b8ff" points="467.79,-411.56 476.01,-404.87 465.41,-404.97 467.79,-411.56"/>
</g>
<!-- Node6&#45;&gt;Node3 -->
<g id="edge6" class="edge">
<title>Node6&#45;&gt;Node3</title>
<path fill="none" stroke="#63b8ff" d="M126.61,-252.63C132.82,-222.84 151.43,-154.37 196,-121 227.31,-97.56 333.91,-85.42 398.96,-80.05"/>
<polygon fill="#63b8ff" stroke="#63b8ff" points="399,-83.56 408.69,-79.28 398.45,-76.58 399,-83.56"/>
</g>
<!-- Node7&#45;&gt;Node3 -->
<g id="edge17" class="edge">
<title>Node7&#45;&gt;Node3</title>
<path fill="none" stroke="#63b8ff" d="M697.67,-318.52C712.72,-291.34 740.07,-231.44 718,-187 679.11,-108.69 569.42,-85.79 503.36,-79.15"/>
<polygon fill="#63b8ff" stroke="#63b8ff" points="503.74,-75.67 493.46,-78.26 503.11,-82.64 503.74,-75.67"/>
</g>
<!-- Node8 -->
<g id="node8" class="node">
<title>Node8</title>
<g id="a_node8"><a xlink:href="c__list_8h.html" target="_top" xlink:title=" ">
<polygon fill="white" stroke="#666666" points="709,-217 593,-217 593,-187 709,-187 709,-217"/>
<text text-anchor="start" x="601" y="-205" font-family="Helvetica,sans-Serif" font-size="10.00">SSystem/SComponent</text>
<text text-anchor="middle" x="651" y="-194" font-family="Helvetica,sans-Serif" font-size="10.00">/c_list.h</text>
</a>
</g>
</g>
<!-- Node7&#45;&gt;Node8 -->
<g id="edge8" class="edge">
<title>Node7&#45;&gt;Node8</title>
<path fill="none" stroke="#63b8ff" d="M687.68,-318.55C685.91,-302.31 682.15,-275.29 675,-253 672.25,-244.43 668.31,-235.45 664.41,-227.5"/>
<polygon fill="#63b8ff" stroke="#63b8ff" points="667.62,-226.08 659.93,-218.79 661.39,-229.28 667.62,-226.08"/>
</g>
<!-- Node9 -->
<g id="node9" class="node">
<title>Node9</title>
<g id="a_node9"><a xlink:href="c__node_8h.html" target="_top" xlink:title=" ">
<polygon fill="white" stroke="#666666" points="595,-151 479,-151 479,-121 595,-121 595,-151"/>
<text text-anchor="start" x="487" y="-139" font-family="Helvetica,sans-Serif" font-size="10.00">SSystem/SComponent</text>
<text text-anchor="middle" x="537" y="-128" font-family="Helvetica,sans-Serif" font-size="10.00">/c_node.h</text>
</a>
</g>
</g>
<!-- Node7&#45;&gt;Node9 -->
<g id="edge12" class="edge">
<title>Node7&#45;&gt;Node9</title>
<path fill="none" stroke="#63b8ff" d="M683.13,-318.62C675.58,-301.45 661.13,-272.6 642,-253 620.81,-231.29 605.19,-238.71 584,-217 568.31,-200.92 555.77,-178.62 547.6,-161.65"/>
<polygon fill="#63b8ff" stroke="#63b8ff" points="550.87,-160.38 543.51,-152.76 544.51,-163.31 550.87,-160.38"/>
</g>
<!-- Node10 -->
<g id="node10" class="node">
<title>Node10</title>
<g id="a_node10"><a xlink:href="c__tree_8h.html" target="_top" xlink:title=" ">
<polygon fill="white" stroke="#666666" points="633,-283 517,-283 517,-253 633,-253 633,-283"/>
<text text-anchor="start" x="525" y="-271" font-family="Helvetica,sans-Serif" font-size="10.00">SSystem/SComponent</text>
<text text-anchor="middle" x="575" y="-260" font-family="Helvetica,sans-Serif" font-size="10.00">/c_tree.h</text>
</a>
</g>
</g>
<!-- Node7&#45;&gt;Node10 -->
<g id="edge13" class="edge">
<title>Node7&#45;&gt;Node10</title>
<path fill="none" stroke="#63b8ff" d="M663.42,-318.64C647.72,-309.83 627.41,-298.42 610.21,-288.77"/>
<polygon fill="#63b8ff" stroke="#63b8ff" points="612.25,-285.9 601.82,-284.06 608.82,-292 612.25,-285.9"/>
</g>
<!-- Node8&#45;&gt;Node3 -->
<g id="edge11" class="edge">
<title>Node8&#45;&gt;Node3</title>
<path fill="none" stroke="#63b8ff" d="M646.32,-186.62C639.72,-168.63 625.99,-138.12 604,-121 575.03,-98.45 534.98,-87.32 503.13,-81.83"/>
<polygon fill="#63b8ff" stroke="#63b8ff" points="503.71,-78.38 493.29,-80.29 502.63,-85.3 503.71,-78.38"/>
</g>
<!-- Node8&#45;&gt;Node9 -->
<g id="edge9" class="edge">
<title>Node8&#45;&gt;Node9</title>
<path fill="none" stroke="#63b8ff" d="M625.42,-186.64C609.72,-177.83 589.41,-166.42 572.21,-156.77"/>
<polygon fill="#63b8ff" stroke="#63b8ff" points="574.25,-153.9 563.82,-152.06 570.82,-160 574.25,-153.9"/>
</g>
<!-- Node9&#45;&gt;Node3 -->
<g id="edge10" class="edge">
<title>Node9&#45;&gt;Node3</title>
<path fill="none" stroke="#63b8ff" d="M515.74,-120.54C502.82,-111.75 486.34,-100.54 473.25,-91.63"/>
<polygon fill="#63b8ff" stroke="#63b8ff" points="475.49,-88.93 465.26,-86.2 471.56,-94.72 475.49,-88.93"/>
</g>
<!-- Node10&#45;&gt;Node3 -->
<g id="edge16" class="edge">
<title>Node10&#45;&gt;Node3</title>
<path fill="none" stroke="#63b8ff" d="M557.67,-252.78C534.23,-232.6 492.74,-193.36 470,-151 460.83,-133.91 455.94,-112.22 453.44,-96.65"/>
<polygon fill="#63b8ff" stroke="#63b8ff" points="456.91,-96.18 452.06,-86.76 449.97,-97.14 456.91,-96.18"/>
</g>
<!-- Node10&#45;&gt;Node8 -->
<g id="edge14" class="edge">
<title>Node10&#45;&gt;Node8</title>
<path fill="none" stroke="#63b8ff" d="M591.87,-252.8C601.64,-244.57 614.14,-234.04 625.13,-224.78"/>
<polygon fill="#63b8ff" stroke="#63b8ff" points="627.37,-227.48 632.76,-218.36 622.86,-222.12 627.37,-227.48"/>
</g>
<!-- Node10&#45;&gt;Node9 -->
<g id="edge15" class="edge">
<title>Node10&#45;&gt;Node9</title>
<path fill="none" stroke="#63b8ff" d="M566.76,-252.56C561.52,-242.8 555,-229.47 551,-217 545.3,-199.24 541.76,-178.47 539.66,-162.55"/>
<polygon fill="#63b8ff" stroke="#63b8ff" points="543.17,-162.46 538.5,-152.95 536.22,-163.3 543.17,-162.46"/>
</g>
<!-- Node11&#45;&gt;Node3 -->
<g id="edge21" class="edge">
<title>Node11&#45;&gt;Node3</title>
<path fill="none" stroke="#63b8ff" d="M327.59,-384.75C328.92,-364.43 332,-312.48 332,-269 332,-269 332,-269 332,-201 332,-149.02 386.87,-110.23 422.1,-90.68"/>
<polygon fill="#63b8ff" stroke="#63b8ff" points="423.37,-93.97 430.55,-86.17 420.07,-87.79 423.37,-93.97"/>
</g>
<!-- Node11&#45;&gt;Node7 -->
<g id="edge20" class="edge">
<title>Node11&#45;&gt;Node7</title>
<path fill="none" stroke="#63b8ff" d="M382.37,-384.55C445.98,-374.27 550.41,-357.4 619.45,-346.24"/>
<polygon fill="#63b8ff" stroke="#63b8ff" points="619.82,-349.72 629.14,-344.67 618.71,-342.81 619.82,-349.72"/>
</g>
<!-- Node12&#45;&gt;Node3 -->
<g id="edge26" class="edge">
<title>Node12&#45;&gt;Node3</title>
<path fill="none" stroke="#63b8ff" d="M600.31,-384.54C543.66,-363.99 413,-311.94 413,-269 413,-269 413,-269 413,-201 413,-162.16 430.13,-119.35 441.39,-95.41"/>
<polygon fill="#63b8ff" stroke="#63b8ff" points="444.43,-97.16 445.68,-86.64 438.14,-94.09 444.43,-97.16"/>
</g>
<!-- Node12&#45;&gt;Node7 -->
<g id="edge24" class="edge">
<title>Node12&#45;&gt;Node7</title>
<path fill="none" stroke="#63b8ff" d="M635.57,-384.62C643.42,-377.32 654.88,-366.68 665.18,-357.12"/>
<polygon fill="#63b8ff" stroke="#63b8ff" points="667.39,-359.84 672.34,-350.47 662.63,-354.71 667.39,-359.84"/>
</g>
<!-- Node12&#45;&gt;Node9 -->
<g id="edge23" class="edge">
<title>Node12&#45;&gt;Node9</title>
<path fill="none" stroke="#63b8ff" d="M610.32,-384.76C583.36,-368.7 529.1,-331.67 508,-283 490.42,-242.46 509.27,-190.93 523.72,-161.19"/>
<polygon fill="#63b8ff" stroke="#63b8ff" points="526.66,-163.12 528.08,-152.63 520.42,-159.95 526.66,-163.12"/>
</g>
<!-- Node12&#45;&gt;Node10 -->
<g id="edge25" class="edge">
<title>Node12&#45;&gt;Node10</title>
<path fill="none" stroke="#63b8ff" d="M622.33,-384.55C614.66,-365.83 596.7,-321.97 585.24,-294"/>
<polygon fill="#63b8ff" stroke="#63b8ff" points="588.52,-292.77 581.49,-284.85 582.04,-295.43 588.52,-292.77"/>
</g>
<!-- Node13&#45;&gt;Node3 -->
<g id="edge28" class="edge">
<title>Node13&#45;&gt;Node3</title>
<path fill="none" stroke="#63b8ff" d="M79.92,-384.59C67,-364.76 38,-315.1 38,-269 38,-269 38,-269 38,-201 38,-126.41 288.06,-92.52 399.03,-81.15"/>
<polygon fill="#63b8ff" stroke="#63b8ff" points="399.16,-84.66 408.76,-80.18 398.47,-77.69 399.16,-84.66"/>
</g>
<!-- Node14&#45;&gt;Node3 -->
<g id="edge31" class="edge">
<title>Node14&#45;&gt;Node3</title>
<path fill="none" stroke="#63b8ff" d="M460.64,-384.52C439.53,-377.96 414.99,-366.97 399,-349 374.32,-321.27 375,-306.12 375,-269 375,-269 375,-269 375,-201 375,-163.88 378.74,-152.11 399,-121 406.37,-109.68 417.45,-99.64 427.49,-91.97"/>
<polygon fill="#63b8ff" stroke="#63b8ff" points="429.34,-94.95 435.41,-86.27 425.25,-89.27 429.34,-94.95"/>
</g>
<!-- Node14&#45;&gt;Node7 -->
<g id="edge30" class="edge">
<title>Node14&#45;&gt;Node7</title>
<path fill="none" stroke="#63b8ff" d="M530.4,-384.62C557.32,-376.19 598.54,-363.3 632.2,-352.77"/>
<polygon fill="#63b8ff" stroke="#63b8ff" points="632.9,-356.22 641.4,-349.89 630.81,-349.54 632.9,-356.22"/>
</g>
<!-- Node15&#45;&gt;Node3 -->
<g id="edge35" class="edge">
<title>Node15&#45;&gt;Node3</title>
<path fill="none" stroke="#63b8ff" d="M723.86,-504.71C823.13,-494.16 1049,-462.77 1049,-395.5 1049,-395.5 1049,-395.5 1049,-201 1049,-89.88 648.23,-77.26 502.87,-76.33"/>
<polygon fill="#63b8ff" stroke="#63b8ff" points="503.16,-72.84 493.15,-76.29 503.13,-79.84 503.16,-72.84"/>
</g>
<!-- Node15&#45;&gt;Node7 -->
<g id="edge34" class="edge">
<title>Node15&#45;&gt;Node7</title>
<path fill="none" stroke="#63b8ff" d="M723.76,-503.78C775.74,-496.8 855.74,-482.5 874,-459 912.93,-408.89 825.92,-372.07 758.44,-352.09"/>
<polygon fill="#63b8ff" stroke="#63b8ff" points="759.41,-348.73 748.83,-349.33 757.47,-355.46 759.41,-348.73"/>
</g>
<!-- Node16 -->
<g id="node16" class="node">
<title>Node16</title>
<g id="a_node16"><a xlink:href="f__pc__delete__tag_8h.html" target="_top" xlink:title=" ">
<polygon fill="white" stroke="#666666" points="865.5,-459 750.5,-459 750.5,-440 865.5,-440 865.5,-459"/>
<text text-anchor="middle" x="808" y="-447" font-family="Helvetica,sans-Serif" font-size="10.00">f_pc/f_pc_delete_tag.h</text>
</a>
</g>
</g>
<!-- Node15&#45;&gt;Node16 -->
<g id="edge36" class="edge">
<title>Node15&#45;&gt;Node16</title>
<path fill="none" stroke="#63b8ff" d="M697.74,-500.12C719.03,-490.54 753.17,-475.18 777.82,-464.08"/>
<polygon fill="#63b8ff" stroke="#63b8ff" points="779.01,-467.39 786.69,-460.09 776.13,-461 779.01,-467.39"/>
</g>
<!-- Node17 -->
<g id="node17" class="node">
<title>Node17</title>
<g id="a_node17"><a xlink:href="f__pc__layer__tag_8h.html" target="_top" xlink:title=" ">
<polygon fill="white" stroke="#666666" points="732.5,-459 623.5,-459 623.5,-440 732.5,-440 732.5,-459"/>
<text text-anchor="middle" x="678" y="-447" font-family="Helvetica,sans-Serif" font-size="10.00">f_pc/f_pc_layer_tag.h</text>
</a>
</g>
</g>
<!-- Node15&#45;&gt;Node17 -->
<g id="edge40" class="edge">
<title>Node15&#45;&gt;Node17</title>
<path fill="none" stroke="#63b8ff" d="M678,-500.37C678,-492.5 678,-480.6 678,-470.39"/>
<polygon fill="#63b8ff" stroke="#63b8ff" points="681.5,-470.68 678,-460.68 674.5,-470.68 681.5,-470.68"/>
</g>
<!-- Node18 -->
<g id="node18" class="node">
<title>Node18</title>
<g id="a_node18"><a xlink:href="f__pc__line__tag_8h.html" target="_top" xlink:title=" ">
<polygon fill="white" stroke="#666666" points="1021,-404 917,-404 917,-385 1021,-385 1021,-404"/>
<text text-anchor="middle" x="969" y="-392" font-family="Helvetica,sans-Serif" font-size="10.00">f_pc/f_pc_line_tag.h</text>
</a>
</g>
</g>
<!-- Node15&#45;&gt;Node18 -->
<g id="edge44" class="edge">
<title>Node15&#45;&gt;Node18</title>
<path fill="none" stroke="#63b8ff" d="M723.99,-506.87C772.51,-502.89 849.86,-491.5 908,-459 927.95,-447.85 945.4,-428.07 956.47,-413.54"/>
<polygon fill="#63b8ff" stroke="#63b8ff" points="959.11,-415.85 962.17,-405.71 953.45,-411.73 959.11,-415.85"/>
</g>
<!-- Node19 -->
<g id="node19" class="node">
<title>Node19</title>
<g id="a_node19"><a xlink:href="f__pc__priority_8h.html" target="_top" xlink:title=" ">
<polygon fill="white" stroke="#666666" points="605,-459 507,-459 507,-440 605,-440 605,-459"/>
<text text-anchor="middle" x="556" y="-447" font-family="Helvetica,sans-Serif" font-size="10.00">f_pc/f_pc_priority.h</text>
</a>
</g>
</g>
<!-- Node15&#45;&gt;Node19 -->
<g id="edge47" class="edge">
<title>Node15&#45;&gt;Node19</title>
<path fill="none" stroke="#63b8ff" d="M659.47,-500.12C639.68,-490.62 608.03,-475.45 584.95,-464.38"/>
<polygon fill="#63b8ff" stroke="#63b8ff" points="586.6,-461.29 576.07,-460.12 583.57,-467.6 586.6,-461.29"/>
</g>
<!-- Node20 -->
<g id="node20" class="node">
<title>Node20</title>
<g id="a_node20"><a xlink:href="f__pc__profile_8h.html" target="_top" xlink:title=" ">
<polygon fill="white" stroke="#666666" points="278.5,-459 183.5,-459 183.5,-440 278.5,-440 278.5,-459"/>
<text text-anchor="middle" x="231" y="-447" font-family="Helvetica,sans-Serif" font-size="10.00">f_pc/f_pc_profile.h</text>
</a>
</g>
</g>
<!-- Node15&#45;&gt;Node20 -->
<g id="edge50" class="edge">
<title>Node15&#45;&gt;Node20</title>
<path fill="none" stroke="#63b8ff" d="M632.03,-503.42C561.12,-494.74 420.5,-477.25 290.24,-459.29"/>
<polygon fill="#63b8ff" stroke="#63b8ff" points="290.77,-455.82 280.38,-457.92 289.81,-462.76 290.77,-455.82"/>
</g>
<!-- Node16&#45;&gt;Node3 -->
<g id="edge38" class="edge">
<title>Node16&#45;&gt;Node3</title>
<path fill="none" stroke="#63b8ff" d="M813.98,-439.52C825.79,-420.89 851,-376.3 851,-335 851,-335 851,-335 851,-201 851,-137.27 791.31,-144.31 732,-121 656.09,-91.17 561.2,-81.31 503.39,-78.06"/>
<polygon fill="#63b8ff" stroke="#63b8ff" points="503.67,-74.57 493.5,-77.56 503.31,-81.56 503.67,-74.57"/>
</g>
<!-- Node16&#45;&gt;Node7 -->
<g id="edge37" class="edge">
<title>Node16&#45;&gt;Node7</title>
<path fill="none" stroke="#63b8ff" d="M798.66,-439.59C780.25,-422.03 738.77,-382.47 712.44,-357.35"/>
<polygon fill="#63b8ff" stroke="#63b8ff" points="714.89,-354.85 705.23,-350.48 710.06,-359.92 714.89,-354.85"/>
</g>
<!-- Node16&#45;&gt;Node12 -->
<g id="edge39" class="edge">
<title>Node16&#45;&gt;Node12</title>
<path fill="none" stroke="#63b8ff" d="M777.13,-439.51C746.97,-430.73 700.86,-417.3 667.5,-407.59"/>
<polygon fill="#63b8ff" stroke="#63b8ff" points="668.75,-404.31 658.17,-404.87 666.8,-411.03 668.75,-404.31"/>
</g>
<!-- Node17&#45;&gt;Node3 -->
<g id="edge42" class="edge">
<title>Node17&#45;&gt;Node3</title>
<path fill="none" stroke="#63b8ff" d="M694.02,-439.58C721.57,-422.91 775,-384.25 775,-335 775,-335 775,-335 775,-201 775,-148.14 734.31,-144.56 687,-121 628.44,-91.83 552.99,-81.7 503.37,-78.23"/>
<polygon fill="#63b8ff" stroke="#63b8ff" points="503.67,-74.74 493.47,-77.61 503.23,-81.73 503.67,-74.74"/>
</g>
<!-- Node17&#45;&gt;Node7 -->
<g id="edge41" class="edge">
<title>Node17&#45;&gt;Node7</title>
<path fill="none" stroke="#63b8ff" d="M687.88,-439.75C696.39,-431.5 708.05,-418.3 713,-404 718.17,-389.06 712.61,-372.3 705.55,-359.05"/>
<polygon fill="#63b8ff" stroke="#63b8ff" points="708.63,-357.38 700.51,-350.57 702.61,-360.95 708.63,-357.38"/>
</g>
<!-- Node17&#45;&gt;Node12 -->
<g id="edge43" class="edge">
<title>Node17&#45;&gt;Node12</title>
<path fill="none" stroke="#63b8ff" d="M669.41,-439.75C662.16,-432.35 651.55,-421.54 642.63,-412.45"/>
<polygon fill="#63b8ff" stroke="#63b8ff" points="645.34,-410.21 635.83,-405.52 640.34,-415.11 645.34,-410.21"/>
</g>
<!-- Node18&#45;&gt;Node3 -->
<g id="edge46" class="edge">
<title>Node18&#45;&gt;Node3</title>
<path fill="none" stroke="#63b8ff" d="M964.1,-384.75C953.41,-364.85 929,-314.41 929,-269 929,-269 929,-269 929,-201 929,-155.47 904.93,-142.89 865,-121 803.94,-87.52 600.29,-79.23 503.27,-77.18"/>
<polygon fill="#63b8ff" stroke="#63b8ff" points="503.56,-73.68 493.49,-76.98 503.42,-80.68 503.56,-73.68"/>
</g>
<!-- Node18&#45;&gt;Node7 -->
<g id="edge45" class="edge">
<title>Node18&#45;&gt;Node7</title>
<path fill="none" stroke="#63b8ff" d="M926.17,-384.55C881.64,-375.25 811.23,-360.54 758.68,-349.56"/>
<polygon fill="#63b8ff" stroke="#63b8ff" points="759.4,-346.13 748.9,-347.51 757.97,-352.99 759.4,-346.13"/>
</g>
<!-- Node19&#45;&gt;Node7 -->
<g id="edge48" class="edge">
<title>Node19&#45;&gt;Node7</title>
<path fill="none" stroke="#63b8ff" d="M593.79,-439.55C626.05,-431.12 668.92,-417.76 680,-404 689.71,-391.94 691.95,-374.67 691.77,-360.43"/>
<polygon fill="#63b8ff" stroke="#63b8ff" points="695.29,-360.65 691.25,-350.86 688.3,-361.04 695.29,-360.65"/>
</g>
<!-- Node19&#45;&gt;Node14 -->
<g id="edge49" class="edge">
<title>Node19&#45;&gt;Node14</title>
<path fill="none" stroke="#63b8ff" d="M547.08,-439.75C539.55,-432.35 528.53,-421.54 519.27,-412.45"/>
<polygon fill="#63b8ff" stroke="#63b8ff" points="521.78,-410.01 512.19,-405.5 516.88,-415 521.78,-410.01"/>
</g>
<!-- Node20&#45;&gt;Node3 -->
<g id="edge51" class="edge">
<title>Node20&#45;&gt;Node3</title>
<path fill="none" stroke="#63b8ff" d="M231.45,-439.72C234.06,-397.83 250.83,-216.36 348,-121 362.99,-106.29 383.63,-96.07 402.5,-89.18"/>
<polygon fill="#63b8ff" stroke="#63b8ff" points="403.57,-92.51 411.91,-85.98 401.32,-85.88 403.57,-92.51"/>
</g>
<!-- Node20&#45;&gt;Node13 -->
<g id="edge52" class="edge">
<title>Node20&#45;&gt;Node13</title>
<path fill="none" stroke="#63b8ff" d="M206.4,-439.51C182.93,-430.93 147.33,-417.92 120.93,-408.27"/>
<polygon fill="#63b8ff" stroke="#63b8ff" points="122.25,-405.02 111.66,-404.88 119.85,-411.6 122.25,-405.02"/>
</g>
<!-- Node21&#45;&gt;Node3 -->
<g id="edge54" class="edge">
<title>Node21&#45;&gt;Node3</title>
<path fill="none" stroke="#63b8ff" d="M1121.76,-324.32C1124.1,-291.49 1127.55,-174.07 1063,-121 1020.23,-85.83 643.28,-78.44 503.16,-76.9"/>
<polygon fill="#63b8ff" stroke="#63b8ff" points="503.46,-73.4 493.43,-76.8 503.39,-80.4 503.46,-73.4"/>
</g>
<!-- Node22&#45;&gt;Node12 -->
<g id="edge57" class="edge">
<title>Node22&#45;&gt;Node12</title>
<path fill="none" stroke="#63b8ff" d="M506.46,-560.62C495.64,-538.08 471.16,-477.75 498,-440 507.24,-427.01 542.57,-415.3 573.77,-407.16"/>
<polygon fill="#63b8ff" stroke="#63b8ff" points="574.28,-410.64 583.12,-404.8 572.57,-403.85 574.28,-410.64"/>
</g>
<!-- Node22&#45;&gt;Node13 -->
<g id="edge58" class="edge">
<title>Node22&#45;&gt;Node13</title>
<path fill="none" stroke="#63b8ff" d="M470.51,-560.52C405.59,-545.19 275.23,-510.54 174,-459 148.22,-445.87 121.7,-425.65 104.61,-411.56"/>
<polygon fill="#63b8ff" stroke="#63b8ff" points="107.22,-409.18 97.31,-405.42 102.71,-414.54 107.22,-409.18"/>
</g>
<!-- Node22&#45;&gt;Node15 -->
<g id="edge56" class="edge">
<title>Node22&#45;&gt;Node15</title>
<path fill="none" stroke="#63b8ff" d="M536.36,-560.62C564.44,-550.78 609.93,-534.84 641.76,-523.69"/>
<polygon fill="#63b8ff" stroke="#63b8ff" points="642.69,-527.08 650.97,-520.47 640.37,-520.47 642.69,-527.08"/>
</g>
</g>
</svg>
