<?xml version="1.0" encoding="UTF-8" standalone="no"?>
<!DOCTYPE svg PUBLIC "-//W3C//DTD SVG 1.1//EN"
 "http://www.w3.org/Graphics/SVG/1.1/DTD/svg11.dtd">
<!-- Generated by graphviz version 7.0.5 (20221223.1930)
 -->
<!-- Title: include/f_pc/f_pc_create_tag.h Pages: 1 -->
<svg width="4583pt" height="434pt"
 viewBox="0.00 0.00 4583.00 434.00" xmlns="http://www.w3.org/2000/svg" xmlns:xlink="http://www.w3.org/1999/xlink">
<g id="graph0" class="graph" transform="scale(1 1) rotate(0) translate(4 430)">
<title>include/f_pc/f_pc_create_tag.h</title>
<!-- Node1 -->
<g id="node1" class="node">
<title>Node1</title>
<g id="a_node1"><a xlink:title=" ">
<polygon fill="#999999" stroke="#666666" points="4180.5,-426 4057.5,-426 4057.5,-396 4180.5,-396 4180.5,-426"/>
<text text-anchor="start" x="4065.5" y="-414" font-family="Helvetica,sans-Serif" font-size="10.00">include/f_pc/f_pc_create</text>
<text text-anchor="middle" x="4119" y="-403" font-family="Helvetica,sans-Serif" font-size="10.00">_tag.h</text>
</a>
</g>
</g>
<!-- Node2 -->
<g id="node2" class="node">
<title>Node2</title>
<g id="a_node2"><a xlink:href="f__pc__create__req_8h.html" target="_top" xlink:title=" ">
<polygon fill="white" stroke="#666666" points="4114.5,-360 3991.5,-360 3991.5,-330 4114.5,-330 4114.5,-360"/>
<text text-anchor="start" x="3999.5" y="-348" font-family="Helvetica,sans-Serif" font-size="10.00">include/f_pc/f_pc_create</text>
<text text-anchor="middle" x="4053" y="-337" font-family="Helvetica,sans-Serif" font-size="10.00">_req.h</text>
</a>
</g>
</g>
<!-- Node1&#45;&gt;Node2 -->
<g id="edge1" class="edge">
<title>Node1&#45;&gt;Node2</title>
<path fill="none" stroke="#63b8ff" d="M4096.11,-387.81C4086.66,-378.64 4075.97,-368.28 4067.61,-360.16"/>
<polygon fill="#63b8ff" stroke="#63b8ff" points="4093.65,-390.29 4103.27,-394.74 4098.52,-385.27 4093.65,-390.29"/>
</g>
<!-- Node200 -->
<g id="node50" class="node">
<title>Node200</title>
<g id="a_node50"><a xlink:href="f__pc__create__tag_8cpp.html" target="_top" xlink:title=" ">
<polygon fill="white" stroke="#666666" points="4239,-360 4133,-360 4133,-330 4239,-330 4239,-360"/>
<text text-anchor="start" x="4141" y="-348" font-family="Helvetica,sans-Serif" font-size="10.00">src/f_pc/f_pc_create</text>
<text text-anchor="middle" x="4186" y="-337" font-family="Helvetica,sans-Serif" font-size="10.00">_tag.cpp</text>
</a>
</g>
</g>
<!-- Node1&#45;&gt;Node200 -->
<g id="edge52" class="edge">
<title>Node1&#45;&gt;Node200</title>
<path fill="none" stroke="#63b8ff" d="M4141.94,-388.09C4151.61,-378.85 4162.59,-368.36 4171.17,-360.16"/>
<polygon fill="#63b8ff" stroke="#63b8ff" points="4139.78,-385.31 4134.96,-394.75 4144.61,-390.37 4139.78,-385.31"/>
</g>
<!-- Node3 -->
<g id="node3" class="node">
<title>Node3</title>
<g id="a_node3"><a xlink:href="f__pc__fstcreate__req_8h.html" target="_top" xlink:title=" ">
<polygon fill="white" stroke="#666666" points="2745,-294 2611,-294 2611,-264 2745,-264 2745,-294"/>
<text text-anchor="start" x="2619" y="-282" font-family="Helvetica,sans-Serif" font-size="10.00">include/f_pc/f_pc_fstcreate</text>
<text text-anchor="middle" x="2678" y="-271" font-family="Helvetica,sans-Serif" font-size="10.00">_req.h</text>
</a>
</g>
</g>
<!-- Node2&#45;&gt;Node3 -->
<g id="edge2" class="edge">
<title>Node2&#45;&gt;Node3</title>
<path fill="none" stroke="#63b8ff" d="M3979.87,-340.6C3739.58,-329.41 2976.57,-293.9 2745.17,-283.13"/>
<polygon fill="#63b8ff" stroke="#63b8ff" points="3979.58,-344.09 3989.74,-341.06 3979.91,-337.09 3979.58,-344.09"/>
</g>
<!-- Node6 -->
<g id="node6" class="node">
<title>Node6</title>
<g id="a_node6"><a xlink:href="f__pc__stdcreate__req_8h.html" target="_top" xlink:title=" ">
<polygon fill="white" stroke="#666666" points="3981.5,-294 3844.5,-294 3844.5,-264 3981.5,-264 3981.5,-294"/>
<text text-anchor="start" x="3852.5" y="-282" font-family="Helvetica,sans-Serif" font-size="10.00">include/f_pc/f_pc_stdcreate</text>
<text text-anchor="middle" x="3913" y="-271" font-family="Helvetica,sans-Serif" font-size="10.00">_req.h</text>
</a>
</g>
</g>
<!-- Node2&#45;&gt;Node6 -->
<g id="edge5" class="edge">
<title>Node2&#45;&gt;Node6</title>
<path fill="none" stroke="#63b8ff" d="M4011.12,-324.86C3989.68,-315.05 3964.02,-303.32 3944.31,-294.31"/>
<polygon fill="#63b8ff" stroke="#63b8ff" points="4009.65,-328.03 4020.2,-329.01 4012.57,-321.67 4009.65,-328.03"/>
</g>
<!-- Node197 -->
<g id="node47" class="node">
<title>Node197</title>
<g id="a_node47"><a xlink:href="f__pc__create__iter_8cpp.html" target="_top" xlink:title=" ">
<polygon fill="white" stroke="#666666" points="4106,-294 4000,-294 4000,-264 4106,-264 4106,-294"/>
<text text-anchor="start" x="4008" y="-282" font-family="Helvetica,sans-Serif" font-size="10.00">src/f_pc/f_pc_create</text>
<text text-anchor="middle" x="4053" y="-271" font-family="Helvetica,sans-Serif" font-size="10.00">_iter.cpp</text>
</a>
</g>
</g>
<!-- Node2&#45;&gt;Node197 -->
<g id="edge49" class="edge">
<title>Node2&#45;&gt;Node197</title>
<path fill="none" stroke="#63b8ff" d="M4053,-318.39C4053,-310.13 4053,-301.28 4053,-294.16"/>
<polygon fill="#63b8ff" stroke="#63b8ff" points="4049.5,-318.28 4053,-328.28 4056.5,-318.28 4049.5,-318.28"/>
</g>
<!-- Node198 -->
<g id="node48" class="node">
<title>Node198</title>
<g id="a_node48"><a xlink:href="f__pc__create__req_8cpp.html" target="_top" xlink:title=" ">
<polygon fill="white" stroke="#666666" points="4230,-294 4124,-294 4124,-264 4230,-264 4230,-294"/>
<text text-anchor="start" x="4132" y="-282" font-family="Helvetica,sans-Serif" font-size="10.00">src/f_pc/f_pc_create</text>
<text text-anchor="middle" x="4177" y="-271" font-family="Helvetica,sans-Serif" font-size="10.00">_req.cpp</text>
</a>
</g>
</g>
<!-- Node2&#45;&gt;Node198 -->
<g id="edge50" class="edge">
<title>Node2&#45;&gt;Node198</title>
<path fill="none" stroke="#63b8ff" d="M4090.87,-324.45C4109.7,-314.73 4132.05,-303.2 4149.26,-294.31"/>
<polygon fill="#63b8ff" stroke="#63b8ff" points="4089.45,-321.25 4082.17,-328.94 4092.66,-327.47 4089.45,-321.25"/>
</g>
<!-- Node199 -->
<g id="node49" class="node">
<title>Node199</title>
<g id="a_node49"><a xlink:href="f__pc__creator_8cpp.html" target="_top" xlink:title=" ">
<polygon fill="white" stroke="#666666" points="4375.5,-288.5 4248.5,-288.5 4248.5,-269.5 4375.5,-269.5 4375.5,-288.5"/>
<text text-anchor="middle" x="4312" y="-276.5" font-family="Helvetica,sans-Serif" font-size="10.00">src/f_pc/f_pc_creator.cpp</text>
</a>
</g>
</g>
<!-- Node2&#45;&gt;Node199 -->
<g id="edge51" class="edge">
<title>Node2&#45;&gt;Node199</title>
<path fill="none" stroke="#63b8ff" d="M4122.38,-326.86C4171.75,-314.66 4236.12,-298.75 4275.73,-288.96"/>
<polygon fill="#63b8ff" stroke="#63b8ff" points="4121.79,-323.4 4112.92,-329.19 4123.46,-330.19 4121.79,-323.4"/>
</g>
<!-- Node4 -->
<g id="node4" class="node">
<title>Node4</title>
<g id="a_node4"><a xlink:href="f__pc__fstcreate__req_8cpp.html" target="_top" xlink:title=" ">
<polygon fill="white" stroke="#666666" points="2649.5,-228 2532.5,-228 2532.5,-198 2649.5,-198 2649.5,-228"/>
<text text-anchor="start" x="2540.5" y="-216" font-family="Helvetica,sans-Serif" font-size="10.00">src/f_pc/f_pc_fstcreate</text>
<text text-anchor="middle" x="2591" y="-205" font-family="Helvetica,sans-Serif" font-size="10.00">_req.cpp</text>
</a>
</g>
</g>
<!-- Node3&#45;&gt;Node4 -->
<g id="edge3" class="edge">
<title>Node3&#45;&gt;Node4</title>
<path fill="none" stroke="#63b8ff" d="M2649.42,-256.97C2636.68,-247.61 2622.01,-236.81 2610.55,-228.39"/>
<polygon fill="#63b8ff" stroke="#63b8ff" points="2647.34,-259.79 2657.47,-262.9 2651.49,-254.15 2647.34,-259.79"/>
</g>
<!-- Node5 -->
<g id="node5" class="node">
<title>Node5</title>
<g id="a_node5"><a xlink:href="f__pc__manager_8cpp.html" target="_top" xlink:title=" ">
<polygon fill="white" stroke="#666666" points="1743,-156.5 1609,-156.5 1609,-137.5 1743,-137.5 1743,-156.5"/>
<text text-anchor="middle" x="1676" y="-144.5" font-family="Helvetica,sans-Serif" font-size="10.00">src/f_pc/f_pc_manager.cpp</text>
</a>
</g>
</g>
<!-- Node3&#45;&gt;Node5 -->
<g id="edge4" class="edge">
<title>Node3&#45;&gt;Node5</title>
<path fill="none" stroke="#63b8ff" d="M2679.03,-252.5C2678.25,-234.32 2673.87,-210.91 2658,-198 2618.92,-166.22 1802.06,-167.58 1752,-162 1741.2,-160.8 1729.63,-158.95 1718.85,-157"/>
<polygon fill="#63b8ff" stroke="#63b8ff" points="2675.53,-252.3 2679.09,-262.28 2682.53,-252.25 2675.53,-252.3"/>
</g>
<!-- Node7 -->
<g id="node7" class="node">
<title>Node7</title>
<g id="a_node7"><a xlink:href="f__pc__manager_8h.html" target="_top" xlink:title=" ">
<polygon fill="white" stroke="#666666" points="3842.5,-222.5 3701.5,-222.5 3701.5,-203.5 3842.5,-203.5 3842.5,-222.5"/>
<text text-anchor="middle" x="3772" y="-210.5" font-family="Helvetica,sans-Serif" font-size="10.00">include/f_pc/f_pc_manager.h</text>
</a>
</g>
</g>
<!-- Node6&#45;&gt;Node7 -->
<g id="edge6" class="edge">
<title>Node6&#45;&gt;Node7</title>
<path fill="none" stroke="#63b8ff" d="M3870.93,-258.91C3844.73,-247.01 3812.23,-232.26 3791.8,-222.99"/>
<polygon fill="#63b8ff" stroke="#63b8ff" points="3869.43,-262.07 3879.98,-263.01 3872.32,-255.69 3869.43,-262.07"/>
</g>
<!-- Node190 -->
<g id="node40" class="node">
<title>Node190</title>
<g id="a_node40"><a xlink:href="f__op__overlap__req_8cpp.html" target="_top" xlink:title=" ">
<polygon fill="white" stroke="#666666" points="4575,-162 4465,-162 4465,-132 4575,-132 4575,-162"/>
<text text-anchor="start" x="4473" y="-150" font-family="Helvetica,sans-Serif" font-size="10.00">src/f_op/f_op_overlap</text>
<text text-anchor="middle" x="4520" y="-139" font-family="Helvetica,sans-Serif" font-size="10.00">_req.cpp</text>
</a>
</g>
</g>
<!-- Node6&#45;&gt;Node190 -->
<g id="edge46" class="edge">
<title>Node6&#45;&gt;Node190</title>
<path fill="none" stroke="#63b8ff" d="M3895.42,-254.09C3884.79,-236.52 3875.78,-213.15 3890,-198 3933.12,-152.05 4393.6,-170.76 4456,-162 4458.82,-161.6 4461.69,-161.15 4464.59,-160.66"/>
<polygon fill="#63b8ff" stroke="#63b8ff" points="3892.46,-255.96 3900.87,-262.4 3898.31,-252.12 3892.46,-255.96"/>
</g>
<!-- Node194 -->
<g id="node44" class="node">
<title>Node194</title>
<g id="a_node44"><a xlink:href="f__op__camera__mng_8cpp.html" target="_top" xlink:title=" ">
<polygon fill="white" stroke="#666666" points="4010.5,-228 3899.5,-228 3899.5,-198 4010.5,-198 4010.5,-228"/>
<text text-anchor="start" x="3907.5" y="-216" font-family="Helvetica,sans-Serif" font-size="10.00">src/f_op/f_op_camera</text>
<text text-anchor="middle" x="3955" y="-205" font-family="Helvetica,sans-Serif" font-size="10.00">_mng.cpp</text>
</a>
</g>
</g>
<!-- Node6&#45;&gt;Node194 -->
<g id="edge45" class="edge">
<title>Node6&#45;&gt;Node194</title>
<path fill="none" stroke="#63b8ff" d="M3928.49,-254.39C3934.27,-245.59 3940.65,-235.86 3945.7,-228.16"/>
<polygon fill="#63b8ff" stroke="#63b8ff" points="3925.71,-252.25 3923.15,-262.53 3931.56,-256.09 3925.71,-252.25"/>
</g>
<!-- Node195 -->
<g id="node45" class="node">
<title>Node195</title>
<g id="a_node45"><a xlink:href="f__pc__node__req_8cpp.html" target="_top" xlink:title=" ">
<polygon fill="white" stroke="#666666" points="4129,-228 4029,-228 4029,-198 4129,-198 4129,-228"/>
<text text-anchor="start" x="4037" y="-216" font-family="Helvetica,sans-Serif" font-size="10.00">src/f_pc/f_pc_node</text>
<text text-anchor="middle" x="4079" y="-205" font-family="Helvetica,sans-Serif" font-size="10.00">_req.cpp</text>
</a>
</g>
</g>
<!-- Node6&#45;&gt;Node195 -->
<g id="edge47" class="edge">
<title>Node6&#45;&gt;Node195</title>
<path fill="none" stroke="#63b8ff" d="M3960.88,-259.54C3986.55,-249.64 4017.71,-237.63 4041.58,-228.43"/>
<polygon fill="#63b8ff" stroke="#63b8ff" points="3959.74,-256.23 3951.67,-263.09 3962.26,-262.76 3959.74,-256.23"/>
</g>
<!-- Node196 -->
<g id="node46" class="node">
<title>Node196</title>
<g id="a_node46"><a xlink:href="f__pc__stdcreate__req_8cpp.html" target="_top" xlink:title=" ">
<polygon fill="white" stroke="#666666" points="4266.5,-228 4147.5,-228 4147.5,-198 4266.5,-198 4266.5,-228"/>
<text text-anchor="start" x="4155.5" y="-216" font-family="Helvetica,sans-Serif" font-size="10.00">src/f_pc/f_pc_stdcreate</text>
<text text-anchor="middle" x="4207" y="-205" font-family="Helvetica,sans-Serif" font-size="10.00">_req.cpp</text>
</a>
</g>
</g>
<!-- Node6&#45;&gt;Node196 -->
<g id="edge48" class="edge">
<title>Node6&#45;&gt;Node196</title>
<path fill="none" stroke="#63b8ff" d="M3990.56,-261.12C4039.66,-250.43 4102.18,-236.82 4147.38,-226.98"/>
<polygon fill="#63b8ff" stroke="#63b8ff" points="3989.85,-257.69 3980.82,-263.24 3991.34,-264.53 3989.85,-257.69"/>
</g>
<!-- Node7&#45;&gt;Node5 -->
<g id="edge44" class="edge">
<title>Node7&#45;&gt;Node5</title>
<path fill="none" stroke="#63b8ff" d="M3689.76,-210.73C3335.22,-205.15 1946.55,-182.2 1752,-162 1740.92,-160.85 1729.04,-158.97 1718.04,-156.96"/>
<polygon fill="#63b8ff" stroke="#63b8ff" points="3689.62,-214.23 3699.68,-210.89 3689.73,-207.23 3689.62,-214.23"/>
</g>
<!-- Node8 -->
<g id="node8" class="node">
<title>Node8</title>
<g id="a_node8"><a xlink:href="f__op__actor__mng_8h.html" target="_top" xlink:title=" ">
<polygon fill="#fff0f0" stroke="red" points="1879,-162 1761,-162 1761,-132 1879,-132 1879,-162"/>
<text text-anchor="start" x="1769" y="-150" font-family="Helvetica,sans-Serif" font-size="10.00">include/f_op/f_op_actor</text>
<text text-anchor="middle" x="1820" y="-139" font-family="Helvetica,sans-Serif" font-size="10.00">_mng.h</text>
</a>
</g>
</g>
<!-- Node7&#45;&gt;Node8 -->
<g id="edge7" class="edge">
<title>Node7&#45;&gt;Node8</title>
<path fill="none" stroke="#63b8ff" d="M3689.84,-209.31C3363.17,-198.6 2160.55,-159.17 1879.17,-149.94"/>
<polygon fill="#63b8ff" stroke="#63b8ff" points="3689.46,-212.8 3699.57,-209.63 3689.69,-205.8 3689.46,-212.8"/>
</g>
<!-- Node17 -->
<g id="node10" class="node">
<title>Node17</title>
<g id="a_node10"><a xlink:href="f__op__actor_8cpp.html" target="_top" xlink:title=" ">
<polygon fill="white" stroke="#666666" points="1749.5,-19 1630.5,-19 1630.5,0 1749.5,0 1749.5,-19"/>
<text text-anchor="middle" x="1690" y="-7" font-family="Helvetica,sans-Serif" font-size="10.00">src/f_op/f_op_actor.cpp</text>
</a>
</g>
</g>
<!-- Node7&#45;&gt;Node17 -->
<g id="edge36" class="edge">
<title>Node7&#45;&gt;Node17</title>
<path fill="none" stroke="#63b8ff" d="M3689.76,-212.44C3580.25,-211.37 3394.26,-203.28 3342,-162 3302.28,-130.63 3344.06,-84.59 3303,-55 3238.87,-8.78 2033.52,-9.47 1749.56,-10.28"/>
<polygon fill="#63b8ff" stroke="#63b8ff" points="3689.55,-215.93 3699.58,-212.51 3689.61,-208.93 3689.55,-215.93"/>
</g>
<!-- Node174 -->
<g id="node35" class="node">
<title>Node174</title>
<g id="a_node35"><a xlink:href="f__op__kankyo__mng_8h.html" target="_top" xlink:title=" ">
<polygon fill="#fff0f0" stroke="red" points="3478.5,-162 3351.5,-162 3351.5,-132 3478.5,-132 3478.5,-162"/>
<text text-anchor="start" x="3359.5" y="-150" font-family="Helvetica,sans-Serif" font-size="10.00">include/f_op/f_op_kankyo</text>
<text text-anchor="middle" x="3415" y="-139" font-family="Helvetica,sans-Serif" font-size="10.00">_mng.h</text>
</a>
</g>
</g>
<!-- Node7&#45;&gt;Node174 -->
<g id="edge34" class="edge">
<title>Node7&#45;&gt;Node174</title>
<path fill="none" stroke="#63b8ff" d="M3708.5,-201.11C3650.91,-191.16 3563.7,-175.92 3488,-162 3484.95,-161.44 3481.84,-160.86 3478.69,-160.27"/>
<polygon fill="#63b8ff" stroke="#63b8ff" points="3707.67,-204.51 3718.12,-202.77 3708.86,-197.62 3707.67,-204.51"/>
</g>
<!-- Node178 -->
<g id="node36" class="node">
<title>Node178</title>
<g id="a_node36"><a xlink:href="f__op__scene__mng_8h.html" target="_top" xlink:title=" ">
<polygon fill="#fff0f0" stroke="red" points="3619,-162 3497,-162 3497,-132 3619,-132 3619,-162"/>
<text text-anchor="start" x="3505" y="-150" font-family="Helvetica,sans-Serif" font-size="10.00">include/f_op/f_op_scene</text>
<text text-anchor="middle" x="3558" y="-139" font-family="Helvetica,sans-Serif" font-size="10.00">_mng.h</text>
</a>
</g>
</g>
<!-- Node7&#45;&gt;Node178 -->
<g id="edge35" class="edge">
<title>Node7&#45;&gt;Node178</title>
<path fill="none" stroke="#63b8ff" d="M3731.31,-199.83C3695.75,-189.2 3644.08,-173.74 3606.41,-162.48"/>
<polygon fill="#63b8ff" stroke="#63b8ff" points="3730.21,-203.16 3740.79,-202.67 3732.22,-196.45 3730.21,-203.16"/>
</g>
<!-- Node187 -->
<g id="node37" class="node">
<title>Node187</title>
<g id="a_node37"><a xlink:href="f__op__camera_8cpp.html" target="_top" xlink:title=" ">
<polygon fill="white" stroke="#666666" points="3766.5,-156.5 3637.5,-156.5 3637.5,-137.5 3766.5,-137.5 3766.5,-156.5"/>
<text text-anchor="middle" x="3702" y="-144.5" font-family="Helvetica,sans-Serif" font-size="10.00">src/f_op/f_op_camera.cpp</text>
</a>
</g>
</g>
<!-- Node7&#45;&gt;Node187 -->
<g id="edge37" class="edge">
<title>Node7&#45;&gt;Node187</title>
<path fill="none" stroke="#63b8ff" d="M3753.77,-195.33C3740.3,-183.02 3722.48,-166.73 3711.65,-156.82"/>
<polygon fill="#63b8ff" stroke="#63b8ff" points="3751.41,-197.92 3761.15,-202.08 3756.13,-192.75 3751.41,-197.92"/>
</g>
<!-- Node188 -->
<g id="node38" class="node">
<title>Node188</title>
<g id="a_node38"><a xlink:href="f__op__msg_8cpp.html" target="_top" xlink:title=" ">
<polygon fill="white" stroke="#666666" points="3901,-156.5 3785,-156.5 3785,-137.5 3901,-137.5 3901,-156.5"/>
<text text-anchor="middle" x="3843" y="-144.5" font-family="Helvetica,sans-Serif" font-size="10.00">src/f_op/f_op_msg.cpp</text>
</a>
</g>
</g>
<!-- Node7&#45;&gt;Node188 -->
<g id="edge38" class="edge">
<title>Node7&#45;&gt;Node188</title>
<path fill="none" stroke="#63b8ff" d="M3790.1,-195.69C3803.81,-183.33 3822.12,-166.82 3833.21,-156.82"/>
<polygon fill="#63b8ff" stroke="#63b8ff" points="3788.08,-192.79 3783,-202.09 3792.77,-197.99 3788.08,-192.79"/>
</g>
<!-- Node189 -->
<g id="node39" class="node">
<title>Node189</title>
<g id="a_node39"><a xlink:href="f__op__overlap_8cpp.html" target="_top" xlink:title=" ">
<polygon fill="white" stroke="#666666" points="4047,-156.5 3919,-156.5 3919,-137.5 4047,-137.5 4047,-156.5"/>
<text text-anchor="middle" x="3983" y="-144.5" font-family="Helvetica,sans-Serif" font-size="10.00">src/f_op/f_op_overlap.cpp</text>
</a>
</g>
</g>
<!-- Node7&#45;&gt;Node189 -->
<g id="edge39" class="edge">
<title>Node7&#45;&gt;Node189</title>
<path fill="none" stroke="#63b8ff" d="M3812.1,-199.84C3853.37,-187.32 3916.71,-168.11 3953.57,-156.93"/>
<polygon fill="#63b8ff" stroke="#63b8ff" points="3811.34,-196.41 3802.79,-202.66 3813.37,-203.11 3811.34,-196.41"/>
</g>
<!-- Node7&#45;&gt;Node190 -->
<g id="edge40" class="edge">
<title>Node7&#45;&gt;Node190</title>
<path fill="none" stroke="#63b8ff" d="M3832.11,-201.31C3840.45,-200.06 3848.93,-198.9 3857,-198 4122.04,-168.29 4191.82,-198.61 4456,-162 4458.82,-161.61 4461.69,-161.16 4464.59,-160.67"/>
<polygon fill="#63b8ff" stroke="#63b8ff" points="3831.71,-197.83 3822.37,-202.83 3832.79,-204.75 3831.71,-197.83"/>
</g>
<!-- Node191 -->
<g id="node41" class="node">
<title>Node191</title>
<g id="a_node41"><a xlink:href="f__op__scene_8cpp.html" target="_top" xlink:title=" ">
<polygon fill="white" stroke="#666666" points="4188.5,-156.5 4065.5,-156.5 4065.5,-137.5 4188.5,-137.5 4188.5,-156.5"/>
<text text-anchor="middle" x="4127" y="-144.5" font-family="Helvetica,sans-Serif" font-size="10.00">src/f_op/f_op_scene.cpp</text>
</a>
</g>
</g>
<!-- Node7&#45;&gt;Node191 -->
<g id="edge41" class="edge">
<title>Node7&#45;&gt;Node191</title>
<path fill="none" stroke="#63b8ff" d="M3836.04,-201.11C3893.65,-191.22 3980.56,-176.08 4056,-162 4064.52,-160.41 4073.61,-158.66 4082.33,-156.95"/>
<polygon fill="#63b8ff" stroke="#63b8ff" points="3835.68,-197.62 3826.42,-202.76 3836.86,-204.52 3835.68,-197.62"/>
</g>
<!-- Node192 -->
<g id="node42" class="node">
<title>Node192</title>
<g id="a_node42"><a xlink:href="f__op__scene__pause_8cpp.html" target="_top" xlink:title=" ">
<polygon fill="white" stroke="#666666" points="4311.5,-162 4206.5,-162 4206.5,-132 4311.5,-132 4311.5,-162"/>
<text text-anchor="start" x="4214.5" y="-150" font-family="Helvetica,sans-Serif" font-size="10.00">src/f_op/f_op_scene</text>
<text text-anchor="middle" x="4259" y="-139" font-family="Helvetica,sans-Serif" font-size="10.00">_pause.cpp</text>
</a>
</g>
</g>
<!-- Node7&#45;&gt;Node192 -->
<g id="edge42" class="edge">
<title>Node7&#45;&gt;Node192</title>
<path fill="none" stroke="#63b8ff" d="M3834.85,-201.23C3842.3,-200.07 3849.82,-198.97 3857,-198 4008.03,-177.61 4047.68,-187.09 4198,-162 4200.68,-161.55 4203.42,-161.06 4206.18,-160.53"/>
<polygon fill="#63b8ff" stroke="#63b8ff" points="3834.45,-197.75 3825.12,-202.77 3835.54,-204.66 3834.45,-197.75"/>
</g>
<!-- Node193 -->
<g id="node43" class="node">
<title>Node193</title>
<g id="a_node43"><a xlink:href="f__op__view_8cpp.html" target="_top" xlink:title=" ">
<polygon fill="white" stroke="#666666" points="4446.5,-156.5 4329.5,-156.5 4329.5,-137.5 4446.5,-137.5 4446.5,-156.5"/>
<text text-anchor="middle" x="4388" y="-144.5" font-family="Helvetica,sans-Serif" font-size="10.00">src/f_op/f_op_view.cpp</text>
</a>
</g>
</g>
<!-- Node7&#45;&gt;Node193 -->
<g id="edge43" class="edge">
<title>Node7&#45;&gt;Node193</title>
<path fill="none" stroke="#63b8ff" d="M3833.04,-201.3C3841.08,-200.08 3849.23,-198.94 3857,-198 4062.35,-173.17 4116.23,-191.21 4321,-162 4330.18,-160.69 4339.98,-158.88 4349.18,-156.99"/>
<polygon fill="#63b8ff" stroke="#63b8ff" points="3832.62,-197.82 3823.28,-202.83 3833.7,-204.74 3832.62,-197.82"/>
</g>
<!-- Node9 -->
<g id="node9" class="node">
<title>Node9</title>
<g id="a_node9"><a xlink:href="d__a__alink_8h.html" target="_top" xlink:title=" ">
<polygon fill="#fff0f0" stroke="red" points="116,-85 0,-85 0,-66 116,-66 116,-85"/>
<text text-anchor="middle" x="58" y="-73" font-family="Helvetica,sans-Serif" font-size="10.00">include/d/a/d_a_alink.h</text>
</a>
</g>
</g>
<!-- Node8&#45;&gt;Node9 -->
<g id="edge8" class="edge">
<title>Node8&#45;&gt;Node9</title>
<path fill="none" stroke="#63b8ff" d="M1749.55,-131.92C1374.48,-92.55 478.86,-150.45 125,-96 110.87,-93.83 95.53,-89.51 83.1,-85.5"/>
<polygon fill="#63b8ff" stroke="#63b8ff" points="1748.94,-135.38 1759.26,-132.98 1749.7,-128.42 1748.94,-135.38"/>
</g>
<!-- Node18 -->
<g id="node11" class="node">
<title>Node18</title>
<g id="a_node11"><a xlink:href="d__a__obj__item_8h.html" target="_top" xlink:title=" ">
<polygon fill="#fff0f0" stroke="red" points="235.5,-90.5 134.5,-90.5 134.5,-60.5 235.5,-60.5 235.5,-90.5"/>
<text text-anchor="start" x="142.5" y="-78.5" font-family="Helvetica,sans-Serif" font-size="10.00">include/d/a/d_a_obj</text>
<text text-anchor="middle" x="185" y="-67.5" font-family="Helvetica,sans-Serif" font-size="10.00">_item.h</text>
</a>
</g>
</g>
<!-- Node8&#45;&gt;Node18 -->
<g id="edge10" class="edge">
<title>Node8&#45;&gt;Node18</title>
<path fill="none" stroke="#63b8ff" d="M1749.57,-131.93C1400.86,-95.31 570.74,-152.6 244,-96 237.2,-94.82 230.11,-93.01 223.3,-90.96"/>
<polygon fill="#63b8ff" stroke="#63b8ff" points="1748.94,-135.38 1759.26,-132.99 1749.7,-128.42 1748.94,-135.38"/>
</g>
<!-- Node20 -->
<g id="node12" class="node">
<title>Node20</title>
<g id="a_node12"><a xlink:href="d__bomb_8h.html" target="_top" xlink:title=" ">
<polygon fill="#fff0f0" stroke="red" points="354.5,-85 253.5,-85 253.5,-66 354.5,-66 354.5,-85"/>
<text text-anchor="middle" x="304" y="-73" font-family="Helvetica,sans-Serif" font-size="10.00">include/d/d_bomb.h</text>
</a>
</g>
</g>
<!-- Node8&#45;&gt;Node20 -->
<g id="edge11" class="edge">
<title>Node8&#45;&gt;Node20</title>
<path fill="none" stroke="#63b8ff" d="M1749.49,-131.92C1427.32,-97.94 664.53,-147.61 364,-96 351.26,-93.81 337.52,-89.5 326.4,-85.48"/>
<polygon fill="#63b8ff" stroke="#63b8ff" points="1748.93,-135.38 1759.26,-132.99 1749.7,-128.42 1748.93,-135.38"/>
</g>
<!-- Node23 -->
<g id="node13" class="node">
<title>Node23</title>
<g id="a_node13"><a xlink:href="d__a__b__zant__sima_8h.html" target="_top" xlink:title=" ">
<polygon fill="white" stroke="#666666" points="489,-96 373,-96 373,-55 489,-55 489,-96"/>
<text text-anchor="start" x="381" y="-84" font-family="Helvetica,sans-Serif" font-size="10.00">include/rel/d/a/b/d</text>
<text text-anchor="start" x="381" y="-73" font-family="Helvetica,sans-Serif" font-size="10.00">_a_b_zant_sima/d_a_b</text>
<text text-anchor="middle" x="431" y="-62" font-family="Helvetica,sans-Serif" font-size="10.00">_zant_sima.h</text>
</a>
</g>
</g>
<!-- Node8&#45;&gt;Node23 -->
<g id="edge12" class="edge">
<title>Node8&#45;&gt;Node23</title>
<path fill="none" stroke="#63b8ff" d="M1749.69,-131.9C1196.19,-69.05 1045.16,-182.03 498,-96 495.13,-95.55 492.21,-95.01 489.27,-94.41"/>
<polygon fill="#63b8ff" stroke="#63b8ff" points="1748.92,-135.33 1759.26,-133 1749.72,-128.38 1748.92,-135.33"/>
</g>
<!-- Node24 -->
<g id="node14" class="node">
<title>Node24</title>
<g id="a_node14"><a xlink:href="d__a__andsw_8h.html" target="_top" xlink:title=" ">
<polygon fill="white" stroke="#666666" points="617,-90.5 507,-90.5 507,-60.5 617,-60.5 617,-90.5"/>
<text text-anchor="start" x="515" y="-78.5" font-family="Helvetica,sans-Serif" font-size="10.00">include/rel/d/a/d_a</text>
<text text-anchor="middle" x="562" y="-67.5" font-family="Helvetica,sans-Serif" font-size="10.00">_andsw/d_a_andsw.h</text>
</a>
</g>
</g>
<!-- Node8&#45;&gt;Node24 -->
<g id="edge13" class="edge">
<title>Node8&#45;&gt;Node24</title>
<path fill="none" stroke="#63b8ff" d="M1749.33,-131.85C1252.69,-74.87 1116.25,-177.06 626,-96 618.67,-94.79 611,-92.96 603.62,-90.91"/>
<polygon fill="#63b8ff" stroke="#63b8ff" points="1748.92,-135.33 1759.26,-133.01 1749.73,-128.37 1748.92,-135.33"/>
</g>
<!-- Node25 -->
<g id="node15" class="node">
<title>Node25</title>
<g id="a_node15"><a xlink:href="d__a__arrow_8h.html" target="_top" xlink:title=" ">
<polygon fill="white" stroke="#666666" points="736.5,-90.5 635.5,-90.5 635.5,-60.5 736.5,-60.5 736.5,-90.5"/>
<text text-anchor="start" x="643.5" y="-78.5" font-family="Helvetica,sans-Serif" font-size="10.00">include/rel/d/a/d_a</text>
<text text-anchor="middle" x="686" y="-67.5" font-family="Helvetica,sans-Serif" font-size="10.00">_arrow/d_a_arrow.h</text>
</a>
</g>
</g>
<!-- Node8&#45;&gt;Node25 -->
<g id="edge14" class="edge">
<title>Node8&#45;&gt;Node25</title>
<path fill="none" stroke="#63b8ff" d="M1749.55,-131.87C1305.75,-80.27 1182.91,-173.25 746,-96 739.21,-94.8 732.12,-93.01 725.3,-90.99"/>
<polygon fill="#63b8ff" stroke="#63b8ff" points="1748.91,-135.32 1759.25,-133.02 1749.73,-128.37 1748.91,-135.32"/>
</g>
<!-- Node26 -->
<g id="node16" class="node">
<title>Node26</title>
<g id="a_node16"><a xlink:href="d__a__bg__obj_8h.html" target="_top" xlink:title=" ">
<polygon fill="white" stroke="#666666" points="865,-90.5 755,-90.5 755,-60.5 865,-60.5 865,-90.5"/>
<text text-anchor="start" x="763" y="-78.5" font-family="Helvetica,sans-Serif" font-size="10.00">include/rel/d/a/d_a</text>
<text text-anchor="middle" x="810" y="-67.5" font-family="Helvetica,sans-Serif" font-size="10.00">_bg_obj/d_a_bg_obj.h</text>
</a>
</g>
</g>
<!-- Node8&#45;&gt;Node26 -->
<g id="edge15" class="edge">
<title>Node8&#45;&gt;Node26</title>
<path fill="none" stroke="#63b8ff" d="M1749.51,-131.86C1362.32,-85.92 1255.36,-160.82 874,-96 866.79,-94.77 859.25,-92.97 851.98,-90.95"/>
<polygon fill="#63b8ff" stroke="#63b8ff" points="1748.91,-135.31 1759.25,-133.03 1749.74,-128.36 1748.91,-135.31"/>
</g>
<!-- Node27 -->
<g id="node17" class="node">
<title>Node27</title>
<g id="a_node17"><a xlink:href="d__a__boomerang_8h.html" target="_top" xlink:title=" ">
<polygon fill="#fff0f0" stroke="red" points="1032.5,-90.5 883.5,-90.5 883.5,-60.5 1032.5,-60.5 1032.5,-90.5"/>
<text text-anchor="start" x="891.5" y="-78.5" font-family="Helvetica,sans-Serif" font-size="10.00">include/rel/d/a/d_a</text>
<text text-anchor="middle" x="958" y="-67.5" font-family="Helvetica,sans-Serif" font-size="10.00">_boomerang/d_a_boomerang.h</text>
</a>
</g>
</g>
<!-- Node8&#45;&gt;Node27 -->
<g id="edge16" class="edge">
<title>Node8&#45;&gt;Node27</title>
<path fill="none" stroke="#63b8ff" d="M1749.52,-131.84C1436.59,-93.14 1351.23,-139.38 1042,-96 1032.96,-94.73 1023.45,-92.96 1014.22,-91"/>
<polygon fill="#63b8ff" stroke="#63b8ff" points="1748.89,-135.28 1759.25,-133.06 1749.76,-128.34 1748.89,-135.28"/>
</g>
<!-- Node28 -->
<g id="node18" class="node">
<title>Node28</title>
<g id="a_node18"><a xlink:href="d__a__canoe_8h.html" target="_top" xlink:title=" ">
<polygon fill="white" stroke="#666666" points="1157,-90.5 1051,-90.5 1051,-60.5 1157,-60.5 1157,-90.5"/>
<text text-anchor="start" x="1059" y="-78.5" font-family="Helvetica,sans-Serif" font-size="10.00">include/rel/d/a/d_a</text>
<text text-anchor="middle" x="1104" y="-67.5" font-family="Helvetica,sans-Serif" font-size="10.00">_canoe/d_a_canoe.h</text>
</a>
</g>
</g>
<!-- Node8&#45;&gt;Node28 -->
<g id="edge17" class="edge">
<title>Node8&#45;&gt;Node28</title>
<path fill="none" stroke="#63b8ff" d="M1749.5,-131.82C1491.3,-98.89 1418.94,-142.82 1166,-96 1159.12,-94.73 1151.94,-92.93 1145,-90.93"/>
<polygon fill="#63b8ff" stroke="#63b8ff" points="1748.88,-135.27 1759.25,-133.09 1749.78,-128.32 1748.88,-135.27"/>
</g>
<!-- Node29 -->
<g id="node19" class="node">
<title>Node29</title>
<g id="a_node19"><a xlink:href="d__a__crod_8h.html" target="_top" xlink:title=" ">
<polygon fill="#fff0f0" stroke="red" points="1271,-90.5 1175,-90.5 1175,-60.5 1271,-60.5 1271,-90.5"/>
<text text-anchor="start" x="1183" y="-78.5" font-family="Helvetica,sans-Serif" font-size="10.00">include/rel/d/a/d_a</text>
<text text-anchor="middle" x="1223" y="-67.5" font-family="Helvetica,sans-Serif" font-size="10.00">_crod/d_a_crod.h</text>
</a>
</g>
</g>
<!-- Node8&#45;&gt;Node29 -->
<g id="edge18" class="edge">
<title>Node8&#45;&gt;Node29</title>
<path fill="none" stroke="#63b8ff" d="M1749.44,-131.78C1541.59,-103.96 1482.45,-137.64 1280,-96 1273.75,-94.71 1267.24,-92.93 1260.96,-90.97"/>
<polygon fill="#63b8ff" stroke="#63b8ff" points="1748.86,-135.24 1759.24,-133.13 1749.81,-128.3 1748.86,-135.24"/>
</g>
<!-- Node30 -->
<g id="node20" class="node">
<title>Node30</title>
<g id="a_node20"><a xlink:href="d__a__disappear_8h.html" target="_top" xlink:title=" ">
<polygon fill="white" stroke="#666666" points="1426.5,-90.5 1289.5,-90.5 1289.5,-60.5 1426.5,-60.5 1426.5,-90.5"/>
<text text-anchor="start" x="1297.5" y="-78.5" font-family="Helvetica,sans-Serif" font-size="10.00">include/rel/d/a/d_a</text>
<text text-anchor="middle" x="1358" y="-67.5" font-family="Helvetica,sans-Serif" font-size="10.00">_disappear/d_a_disappear.h</text>
</a>
</g>
</g>
<!-- Node8&#45;&gt;Node30 -->
<g id="edge19" class="edge">
<title>Node8&#45;&gt;Node30</title>
<path fill="none" stroke="#63b8ff" d="M1749.63,-131.73C1610.45,-110.28 1571.56,-120.56 1436,-96 1428.17,-94.58 1419.96,-92.83 1411.93,-90.96"/>
<polygon fill="#63b8ff" stroke="#63b8ff" points="1748.8,-135.14 1759.22,-133.23 1749.89,-128.22 1748.8,-135.14"/>
</g>
<!-- Node31 -->
<g id="node21" class="node">
<title>Node31</title>
<g id="a_node21"><a xlink:href="d__a__dshutter_8h.html" target="_top" xlink:title=" ">
<polygon fill="white" stroke="#666666" points="1569,-90.5 1445,-90.5 1445,-60.5 1569,-60.5 1569,-90.5"/>
<text text-anchor="start" x="1453" y="-78.5" font-family="Helvetica,sans-Serif" font-size="10.00">include/rel/d/a/d_a</text>
<text text-anchor="middle" x="1507" y="-67.5" font-family="Helvetica,sans-Serif" font-size="10.00">_dshutter/d_a_dshutter.h</text>
</a>
</g>
</g>
<!-- Node8&#45;&gt;Node31 -->
<g id="edge20" class="edge">
<title>Node8&#45;&gt;Node31</title>
<path fill="none" stroke="#63b8ff" d="M1749.72,-131.54C1679.8,-117.14 1582.26,-97.02 1578,-96 1571.54,-94.45 1564.77,-92.72 1558.09,-90.95"/>
<polygon fill="#63b8ff" stroke="#63b8ff" points="1748.7,-134.9 1759.2,-133.49 1750.12,-128.04 1748.7,-134.9"/>
</g>
<!-- Node32 -->
<g id="node22" class="node">
<title>Node32</title>
<g id="a_node22"><a xlink:href="d__a__econt_8h.html" target="_top" xlink:title=" ">
<polygon fill="white" stroke="#666666" points="1688.5,-90.5 1587.5,-90.5 1587.5,-60.5 1688.5,-60.5 1688.5,-90.5"/>
<text text-anchor="start" x="1595.5" y="-78.5" font-family="Helvetica,sans-Serif" font-size="10.00">include/rel/d/a/d_a</text>
<text text-anchor="middle" x="1638" y="-67.5" font-family="Helvetica,sans-Serif" font-size="10.00">_econt/d_a_econt.h</text>
</a>
</g>
</g>
<!-- Node8&#45;&gt;Node32 -->
<g id="edge21" class="edge">
<title>Node8&#45;&gt;Node32</title>
<path fill="none" stroke="#63b8ff" d="M1771.61,-127.52C1741.55,-116.04 1703.47,-101.5 1675.66,-90.88"/>
<polygon fill="#63b8ff" stroke="#63b8ff" points="1770.28,-130.76 1780.88,-131.06 1772.78,-124.22 1770.28,-130.76"/>
</g>
<!-- Node33 -->
<g id="node23" class="node">
<title>Node33</title>
<g id="a_node23"><a xlink:href="d__a__hitobj_8h.html" target="_top" xlink:title=" ">
<polygon fill="white" stroke="#666666" points="1807,-90.5 1707,-90.5 1707,-60.5 1807,-60.5 1807,-90.5"/>
<text text-anchor="start" x="1715" y="-78.5" font-family="Helvetica,sans-Serif" font-size="10.00">include/rel/d/a/d_a</text>
<text text-anchor="middle" x="1757" y="-67.5" font-family="Helvetica,sans-Serif" font-size="10.00">_hitobj/d_a_hitobj.h</text>
</a>
</g>
</g>
<!-- Node8&#45;&gt;Node33 -->
<g id="edge22" class="edge">
<title>Node8&#45;&gt;Node33</title>
<path fill="none" stroke="#63b8ff" d="M1799.3,-123.17C1789.66,-112.53 1778.48,-100.2 1770.04,-90.88"/>
<polygon fill="#63b8ff" stroke="#63b8ff" points="1796.62,-125.42 1805.93,-130.48 1801.81,-120.72 1796.62,-125.42"/>
</g>
<!-- Node34 -->
<g id="node24" class="node">
<title>Node34</title>
<g id="a_node24"><a xlink:href="d__a__izumi__gate_8h.html" target="_top" xlink:title=" ">
<polygon fill="white" stroke="#666666" points="1940.5,-96 1825.5,-96 1825.5,-55 1940.5,-55 1940.5,-96"/>
<text text-anchor="start" x="1833.5" y="-84" font-family="Helvetica,sans-Serif" font-size="10.00">include/rel/d/a/d_a</text>
<text text-anchor="start" x="1833.5" y="-73" font-family="Helvetica,sans-Serif" font-size="10.00">_izumi_gate/d_a_izumi</text>
<text text-anchor="middle" x="1883" y="-62" font-family="Helvetica,sans-Serif" font-size="10.00">_gate.h</text>
</a>
</g>
</g>
<!-- Node8&#45;&gt;Node34 -->
<g id="edge23" class="edge">
<title>Node8&#45;&gt;Node34</title>
<path fill="none" stroke="#63b8ff" d="M1840.74,-123.12C1848.57,-114.49 1857.39,-104.75 1864.95,-96.42"/>
<polygon fill="#63b8ff" stroke="#63b8ff" points="1838.19,-120.72 1834.07,-130.48 1843.38,-125.42 1838.19,-120.72"/>
</g>
<!-- Node35 -->
<g id="node25" class="node">
<title>Node35</title>
<g id="a_node25"><a xlink:href="d__a__mirror_8h.html" target="_top" xlink:title=" ">
<polygon fill="#fff0f0" stroke="red" points="2061.5,-90.5 1958.5,-90.5 1958.5,-60.5 2061.5,-60.5 2061.5,-90.5"/>
<text text-anchor="start" x="1966.5" y="-78.5" font-family="Helvetica,sans-Serif" font-size="10.00">include/rel/d/a/d_a</text>
<text text-anchor="middle" x="2010" y="-67.5" font-family="Helvetica,sans-Serif" font-size="10.00">_mirror/d_a_mirror.h</text>
</a>
</g>
</g>
<!-- Node8&#45;&gt;Node35 -->
<g id="edge24" class="edge">
<title>Node8&#45;&gt;Node35</title>
<path fill="none" stroke="#63b8ff" d="M1870.1,-127.67C1901.55,-116.17 1941.53,-101.55 1970.68,-90.88"/>
<polygon fill="#63b8ff" stroke="#63b8ff" points="1868.98,-124.36 1860.79,-131.08 1871.38,-130.93 1868.98,-124.36"/>
</g>
<!-- Node37 -->
<g id="node26" class="node">
<title>Node37</title>
<g id="a_node26"><a xlink:href="d__a__scene__exit_8h.html" target="_top" xlink:title=" ">
<polygon fill="#fff0f0" stroke="red" points="2198.5,-96 2079.5,-96 2079.5,-55 2198.5,-55 2198.5,-96"/>
<text text-anchor="start" x="2087.5" y="-84" font-family="Helvetica,sans-Serif" font-size="10.00">include/rel/d/a/d_a</text>
<text text-anchor="start" x="2087.5" y="-73" font-family="Helvetica,sans-Serif" font-size="10.00">_scene_exit/d_a_scene</text>
<text text-anchor="middle" x="2139" y="-62" font-family="Helvetica,sans-Serif" font-size="10.00">_exit.h</text>
</a>
</g>
</g>
<!-- Node8&#45;&gt;Node37 -->
<g id="edge25" class="edge">
<title>Node8&#45;&gt;Node37</title>
<path fill="none" stroke="#63b8ff" d="M1890.45,-133.43C1940.72,-124.09 2009.79,-110.51 2070,-96 2073.03,-95.27 2076.12,-94.5 2079.24,-93.7"/>
<polygon fill="#63b8ff" stroke="#63b8ff" points="1890.07,-129.94 1880.87,-135.2 1891.34,-136.82 1890.07,-129.94"/>
</g>
<!-- Node38 -->
<g id="node27" class="node">
<title>Node38</title>
<g id="a_node27"><a xlink:href="d__a__scene__exit2_8h.html" target="_top" xlink:title=" ">
<polygon fill="white" stroke="#666666" points="2341,-96 2217,-96 2217,-55 2341,-55 2341,-96"/>
<text text-anchor="start" x="2225" y="-84" font-family="Helvetica,sans-Serif" font-size="10.00">include/rel/d/a/d_a</text>
<text text-anchor="start" x="2225" y="-73" font-family="Helvetica,sans-Serif" font-size="10.00">_scene_exit2/d_a_scene</text>
<text text-anchor="middle" x="2279" y="-62" font-family="Helvetica,sans-Serif" font-size="10.00">_exit2.h</text>
</a>
</g>
</g>
<!-- Node8&#45;&gt;Node38 -->
<g id="edge26" class="edge">
<title>Node8&#45;&gt;Node38</title>
<path fill="none" stroke="#63b8ff" d="M1890.53,-139.8C1968.46,-132.27 2097.44,-117.81 2207,-96 2210.18,-95.37 2213.42,-94.67 2216.68,-93.93"/>
<polygon fill="#63b8ff" stroke="#63b8ff" points="1890.54,-136.28 1880.92,-140.71 1891.21,-143.25 1890.54,-136.28"/>
</g>
<!-- Node39 -->
<g id="node28" class="node">
<title>Node39</title>
<g id="a_node28"><a xlink:href="d__a__spinner_8h.html" target="_top" xlink:title=" ">
<polygon fill="#fff0f0" stroke="red" points="2475,-90.5 2359,-90.5 2359,-60.5 2475,-60.5 2475,-90.5"/>
<text text-anchor="start" x="2367" y="-78.5" font-family="Helvetica,sans-Serif" font-size="10.00">include/rel/d/a/d_a</text>
<text text-anchor="middle" x="2417" y="-67.5" font-family="Helvetica,sans-Serif" font-size="10.00">_spinner/d_a_spinner.h</text>
</a>
</g>
</g>
<!-- Node8&#45;&gt;Node39 -->
<g id="edge27" class="edge">
<title>Node8&#45;&gt;Node39</title>
<path fill="none" stroke="#63b8ff" d="M1890.73,-143.58C1992.91,-139.12 2187.41,-127.04 2350,-96 2357.02,-94.66 2364.36,-92.9 2371.51,-90.99"/>
<polygon fill="#63b8ff" stroke="#63b8ff" points="1890.69,-140.08 1880.85,-144 1890.99,-147.07 1890.69,-140.08"/>
</g>
<!-- Node41 -->
<g id="node29" class="node">
<title>Node41</title>
<g id="a_node29"><a xlink:href="d__a__suspend_8h.html" target="_top" xlink:title=" ">
<polygon fill="#fff0f0" stroke="red" points="2620.5,-90.5 2493.5,-90.5 2493.5,-60.5 2620.5,-60.5 2620.5,-90.5"/>
<text text-anchor="start" x="2501.5" y="-78.5" font-family="Helvetica,sans-Serif" font-size="10.00">include/rel/d/a/d_a</text>
<text text-anchor="middle" x="2557" y="-67.5" font-family="Helvetica,sans-Serif" font-size="10.00">_suspend/d_a_suspend.h</text>
</a>
</g>
</g>
<!-- Node8&#45;&gt;Node41 -->
<g id="edge28" class="edge">
<title>Node8&#45;&gt;Node41</title>
<path fill="none" stroke="#63b8ff" d="M1890.43,-144.98C2012.24,-142.28 2269.8,-132.35 2484,-96 2491.76,-94.68 2499.89,-92.91 2507.8,-90.97"/>
<polygon fill="#63b8ff" stroke="#63b8ff" points="1890.5,-141.48 1880.58,-145.19 1890.65,-148.48 1890.5,-141.48"/>
</g>
<!-- Node44 -->
<g id="node30" class="node">
<title>Node44</title>
<g id="a_node30"><a xlink:href="d__a__swTime_8h.html" target="_top" xlink:title=" ">
<polygon fill="white" stroke="#666666" points="2761,-90.5 2639,-90.5 2639,-60.5 2761,-60.5 2761,-90.5"/>
<text text-anchor="start" x="2647" y="-78.5" font-family="Helvetica,sans-Serif" font-size="10.00">include/rel/d/a/d_a</text>
<text text-anchor="middle" x="2700" y="-67.5" font-family="Helvetica,sans-Serif" font-size="10.00">_swTime/d_a_swTime.h</text>
</a>
</g>
</g>
<!-- Node8&#45;&gt;Node44 -->
<g id="edge29" class="edge">
<title>Node8&#45;&gt;Node44</title>
<path fill="none" stroke="#63b8ff" d="M1890.82,-146.51C2032.18,-146.45 2358.97,-140.93 2629,-96 2636.69,-94.72 2644.75,-92.94 2652.56,-90.98"/>
<polygon fill="#63b8ff" stroke="#63b8ff" points="1890.86,-143.01 1880.86,-146.5 1890.86,-150.01 1890.86,-143.01"/>
</g>
<!-- Node45 -->
<g id="node31" class="node">
<title>Node45</title>
<g id="a_node31"><a xlink:href="d__a__talk_8h.html" target="_top" xlink:title=" ">
<polygon fill="white" stroke="#666666" points="2875,-90.5 2779,-90.5 2779,-60.5 2875,-60.5 2875,-90.5"/>
<text text-anchor="start" x="2787" y="-78.5" font-family="Helvetica,sans-Serif" font-size="10.00">include/rel/d/a/d_a</text>
<text text-anchor="middle" x="2827" y="-67.5" font-family="Helvetica,sans-Serif" font-size="10.00">_talk/d_a_talk.h</text>
</a>
</g>
</g>
<!-- Node8&#45;&gt;Node45 -->
<g id="edge30" class="edge">
<title>Node8&#45;&gt;Node45</title>
<path fill="none" stroke="#63b8ff" d="M1890.55,-144.81C2080.84,-141.21 2601.56,-128.59 2770,-96 2776.47,-94.75 2783.21,-92.93 2789.69,-90.9"/>
<polygon fill="#63b8ff" stroke="#63b8ff" points="1890.76,-141.31 1880.83,-145 1890.89,-148.31 1890.76,-141.31"/>
</g>
<!-- Node46 -->
<g id="node32" class="node">
<title>Node46</title>
<g id="a_node32"><a xlink:href="d__a__tboxSw_8h.html" target="_top" xlink:title=" ">
<polygon fill="white" stroke="#666666" points="3011,-90.5 2893,-90.5 2893,-60.5 3011,-60.5 3011,-90.5"/>
<text text-anchor="start" x="2901" y="-78.5" font-family="Helvetica,sans-Serif" font-size="10.00">include/rel/d/a/d_a</text>
<text text-anchor="middle" x="2952" y="-67.5" font-family="Helvetica,sans-Serif" font-size="10.00">_tboxSw/d_a_tboxSw.h</text>
</a>
</g>
</g>
<!-- Node8&#45;&gt;Node46 -->
<g id="edge31" class="edge">
<title>Node8&#45;&gt;Node46</title>
<path fill="none" stroke="#63b8ff" d="M1890.63,-144.82C2096.23,-141.04 2691.93,-127.61 2884,-96 2891.51,-94.76 2899.38,-92.98 2906.98,-90.99"/>
<polygon fill="#63b8ff" stroke="#63b8ff" points="1890.84,-141.31 1880.9,-145 1890.96,-148.31 1890.84,-141.31"/>
</g>
<!-- Node47 -->
<g id="node33" class="node">
<title>Node47</title>
<g id="a_node33"><a xlink:href="d__a__vrbox2_8h.html" target="_top" xlink:title=" ">
<polygon fill="white" stroke="#666666" points="3139,-90.5 3029,-90.5 3029,-60.5 3139,-60.5 3139,-90.5"/>
<text text-anchor="start" x="3037" y="-78.5" font-family="Helvetica,sans-Serif" font-size="10.00">include/rel/d/a/d_a</text>
<text text-anchor="middle" x="3084" y="-67.5" font-family="Helvetica,sans-Serif" font-size="10.00">_vrbox2/d_a_vrbox2.h</text>
</a>
</g>
</g>
<!-- Node8&#45;&gt;Node47 -->
<g id="edge32" class="edge">
<title>Node8&#45;&gt;Node47</title>
<path fill="none" stroke="#63b8ff" d="M1890.36,-145.41C2113.06,-143.18 2800.66,-133.36 3020,-96 3027.21,-94.77 3034.75,-92.97 3042.02,-90.94"/>
<polygon fill="#63b8ff" stroke="#63b8ff" points="1890.65,-141.91 1880.69,-145.51 1890.72,-148.91 1890.65,-141.91"/>
</g>
<!-- Node48 -->
<g id="node34" class="node">
<title>Node48</title>
<g id="a_node34"><a xlink:href="d__a__warp__bug_8h.html" target="_top" xlink:title=" ">
<polygon fill="white" stroke="#666666" points="3294.5,-90.5 3157.5,-90.5 3157.5,-60.5 3294.5,-60.5 3294.5,-90.5"/>
<text text-anchor="start" x="3165.5" y="-78.5" font-family="Helvetica,sans-Serif" font-size="10.00">include/rel/d/a/d_a</text>
<text text-anchor="middle" x="3226" y="-67.5" font-family="Helvetica,sans-Serif" font-size="10.00">_warp_bug/d_a_warp_bug.h</text>
</a>
</g>
</g>
<!-- Node8&#45;&gt;Node48 -->
<g id="edge33" class="edge">
<title>Node8&#45;&gt;Node48</title>
<path fill="none" stroke="#63b8ff" d="M1890.4,-145.27C2128.4,-142.52 2901.77,-131.03 3148,-96 3156.71,-94.76 3165.85,-92.95 3174.69,-90.93"/>
<polygon fill="#63b8ff" stroke="#63b8ff" points="1890.62,-141.77 1880.66,-145.39 1890.7,-148.77 1890.62,-141.77"/>
</g>
<!-- Node9&#45;&gt;Node17 -->
<g id="edge9" class="edge">
<title>Node9&#45;&gt;Node17</title>
<path fill="none" stroke="#63b8ff" d="M93.87,-62.24C103.84,-59.33 114.74,-56.61 125,-55 423.05,-8.18 1381.07,-9.1 1630.29,-10.17"/>
<polygon fill="#63b8ff" stroke="#63b8ff" points="93.08,-58.82 84.55,-65.1 95.14,-65.51 93.08,-58.82"/>
</g>
</g>
</svg>
