<?xml version="1.0" encoding="UTF-8" standalone="no"?>
<!DOCTYPE svg PUBLIC "-//W3C//DTD SVG 1.1//EN"
 "http://www.w3.org/Graphics/SVG/1.1/DTD/svg11.dtd">
<!-- Generated by graphviz version 7.0.5 (20221223.1930)
 -->
<!-- Title: include/f_pc/f_pc_stdcreate_req.h Pages: 1 -->
<svg width="5644pt" height="302pt"
 viewBox="0.00 0.00 5644.00 302.00" xmlns="http://www.w3.org/2000/svg" xmlns:xlink="http://www.w3.org/1999/xlink">
<g id="graph0" class="graph" transform="scale(1 1) rotate(0) translate(4 298)">
<title>include/f_pc/f_pc_stdcreate_req.h</title>
<!-- Node1 -->
<g id="node1" class="node">
<title>Node1</title>
<g id="a_node1"><a xlink:title=" ">
<polygon fill="#999999" stroke="#666666" points="5332.5,-294 5195.5,-294 5195.5,-264 5332.5,-264 5332.5,-294"/>
<text text-anchor="start" x="5203.5" y="-282" font-family="Helvetica,sans-Serif" font-size="10.00">include/f_pc/f_pc_stdcreate</text>
<text text-anchor="middle" x="5264" y="-271" font-family="Helvetica,sans-Serif" font-size="10.00">_req.h</text>
</a>
</g>
</g>
<!-- Node2 -->
<g id="node2" class="node">
<title>Node2</title>
<g id="a_node2"><a xlink:href="f__pc__manager_8h.html" target="_top" xlink:title=" ">
<polygon fill="white" stroke="#666666" points="4751.5,-222.5 4610.5,-222.5 4610.5,-203.5 4751.5,-203.5 4751.5,-222.5"/>
<text text-anchor="middle" x="4681" y="-210.5" font-family="Helvetica,sans-Serif" font-size="10.00">include/f_pc/f_pc_manager.h</text>
</a>
</g>
</g>
<!-- Node1&#45;&gt;Node2 -->
<g id="edge1" class="edge">
<title>Node1&#45;&gt;Node2</title>
<path fill="none" stroke="#63b8ff" d="M5184.02,-269.22C5069.64,-256.66 4861.16,-233.78 4751.98,-221.79"/>
<polygon fill="#63b8ff" stroke="#63b8ff" points="5183.29,-272.66 5193.62,-270.27 5184.06,-265.7 5183.29,-272.66"/>
</g>
<!-- Node158 -->
<g id="node43" class="node">
<title>Node158</title>
<g id="a_node43"><a xlink:href="f__op__overlap__req_8cpp.html" target="_top" xlink:title=" ">
<polygon fill="white" stroke="#666666" points="5636,-162 5526,-162 5526,-132 5636,-132 5636,-162"/>
<text text-anchor="start" x="5534" y="-150" font-family="Helvetica,sans-Serif" font-size="10.00">src/f_op/f_op_overlap</text>
<text text-anchor="middle" x="5581" y="-139" font-family="Helvetica,sans-Serif" font-size="10.00">_req.cpp</text>
</a>
</g>
</g>
<!-- Node1&#45;&gt;Node158 -->
<g id="edge53" class="edge">
<title>Node1&#45;&gt;Node158</title>
<path fill="none" stroke="#63b8ff" d="M5228.62,-257.14C5205.15,-240.73 5181.61,-217.47 5199,-198 5246.38,-144.96 5446.84,-173.61 5517,-162 5519.81,-161.54 5522.67,-161.03 5525.56,-160.49"/>
<polygon fill="#63b8ff" stroke="#63b8ff" points="5226.68,-260.05 5236.95,-262.67 5230.55,-254.22 5226.68,-260.05"/>
</g>
<!-- Node163 -->
<g id="node48" class="node">
<title>Node163</title>
<g id="a_node48"><a xlink:href="f__op__camera__mng_8cpp.html" target="_top" xlink:title=" ">
<polygon fill="white" stroke="#666666" points="5319.5,-228 5208.5,-228 5208.5,-198 5319.5,-198 5319.5,-228"/>
<text text-anchor="start" x="5216.5" y="-216" font-family="Helvetica,sans-Serif" font-size="10.00">src/f_op/f_op_camera</text>
<text text-anchor="middle" x="5264" y="-205" font-family="Helvetica,sans-Serif" font-size="10.00">_mng.cpp</text>
</a>
</g>
</g>
<!-- Node1&#45;&gt;Node163 -->
<g id="edge52" class="edge">
<title>Node1&#45;&gt;Node163</title>
<path fill="none" stroke="#63b8ff" d="M5264,-252.39C5264,-244.13 5264,-235.28 5264,-228.16"/>
<polygon fill="#63b8ff" stroke="#63b8ff" points="5260.5,-252.28 5264,-262.28 5267.5,-252.28 5260.5,-252.28"/>
</g>
<!-- Node164 -->
<g id="node49" class="node">
<title>Node164</title>
<g id="a_node49"><a xlink:href="f__pc__node__req_8cpp.html" target="_top" xlink:title=" ">
<polygon fill="white" stroke="#666666" points="5438,-228 5338,-228 5338,-198 5438,-198 5438,-228"/>
<text text-anchor="start" x="5346" y="-216" font-family="Helvetica,sans-Serif" font-size="10.00">src/f_pc/f_pc_node</text>
<text text-anchor="middle" x="5388" y="-205" font-family="Helvetica,sans-Serif" font-size="10.00">_req.cpp</text>
</a>
</g>
</g>
<!-- Node1&#45;&gt;Node164 -->
<g id="edge54" class="edge">
<title>Node1&#45;&gt;Node164</title>
<path fill="none" stroke="#63b8ff" d="M5301.87,-258.45C5320.7,-248.73 5343.05,-237.2 5360.26,-228.31"/>
<polygon fill="#63b8ff" stroke="#63b8ff" points="5300.45,-255.25 5293.17,-262.94 5303.66,-261.47 5300.45,-255.25"/>
</g>
<!-- Node165 -->
<g id="node50" class="node">
<title>Node165</title>
<g id="a_node50"><a xlink:href="f__pc__stdcreate__req_8cpp.html" target="_top" xlink:title=" ">
<polygon fill="white" stroke="#666666" points="5575.5,-228 5456.5,-228 5456.5,-198 5575.5,-198 5575.5,-228"/>
<text text-anchor="start" x="5464.5" y="-216" font-family="Helvetica,sans-Serif" font-size="10.00">src/f_pc/f_pc_stdcreate</text>
<text text-anchor="middle" x="5516" y="-205" font-family="Helvetica,sans-Serif" font-size="10.00">_req.cpp</text>
</a>
</g>
</g>
<!-- Node1&#45;&gt;Node165 -->
<g id="edge55" class="edge">
<title>Node1&#45;&gt;Node165</title>
<path fill="none" stroke="#63b8ff" d="M5331.83,-260.77C5371.72,-250.64 5421.57,-237.98 5459.34,-228.39"/>
<polygon fill="#63b8ff" stroke="#63b8ff" points="5331.17,-257.33 5322.33,-263.18 5332.89,-264.12 5331.17,-257.33"/>
</g>
<!-- Node3 -->
<g id="node3" class="node">
<title>Node3</title>
<g id="a_node3"><a xlink:href="f__op__actor__mng_8h.html" target="_top" xlink:title=" ">
<polygon fill="#fff0f0" stroke="red" points="2072,-162 1954,-162 1954,-132 2072,-132 2072,-162"/>
<text text-anchor="start" x="1962" y="-150" font-family="Helvetica,sans-Serif" font-size="10.00">include/f_op/f_op_actor</text>
<text text-anchor="middle" x="2013" y="-139" font-family="Helvetica,sans-Serif" font-size="10.00">_mng.h</text>
</a>
</g>
</g>
<!-- Node2&#45;&gt;Node3 -->
<g id="edge2" class="edge">
<title>Node2&#45;&gt;Node3</title>
<path fill="none" stroke="#63b8ff" d="M4599.06,-210.03C4195.04,-200.34 2420.62,-157.78 2072.42,-149.43"/>
<polygon fill="#63b8ff" stroke="#63b8ff" points="4598.73,-213.53 4608.81,-210.27 4598.9,-206.53 4598.73,-213.53"/>
</g>
<!-- Node12 -->
<g id="node5" class="node">
<title>Node12</title>
<g id="a_node5"><a xlink:href="f__op__actor_8cpp.html" target="_top" xlink:title=" ">
<polygon fill="white" stroke="#666666" points="203.5,-19 84.5,-19 84.5,0 203.5,0 203.5,-19"/>
<text text-anchor="middle" x="144" y="-7" font-family="Helvetica,sans-Serif" font-size="10.00">src/f_op/f_op_actor.cpp</text>
</a>
</g>
</g>
<!-- Node2&#45;&gt;Node12 -->
<g id="edge42" class="edge">
<title>Node2&#45;&gt;Node12</title>
<path fill="none" stroke="#63b8ff" d="M4598.77,-209.27C4455.67,-203.83 4172.61,-189.67 4137,-162 4097.15,-131.03 4140.06,-84.34 4099,-55 4057.58,-25.4 696.06,-12.44 203.87,-10.7"/>
<polygon fill="#63b8ff" stroke="#63b8ff" points="4598.44,-212.76 4608.57,-209.64 4598.7,-205.77 4598.44,-212.76"/>
</g>
<!-- Node143 -->
<g id="node35" class="node">
<title>Node143</title>
<g id="a_node35"><a xlink:href="f__op__kankyo__mng_8h.html" target="_top" xlink:title=" ">
<polygon fill="#fff0f0" stroke="red" points="4273.5,-162 4146.5,-162 4146.5,-132 4273.5,-132 4273.5,-162"/>
<text text-anchor="start" x="4154.5" y="-150" font-family="Helvetica,sans-Serif" font-size="10.00">include/f_op/f_op_kankyo</text>
<text text-anchor="middle" x="4210" y="-139" font-family="Helvetica,sans-Serif" font-size="10.00">_mng.h</text>
</a>
</g>
</g>
<!-- Node2&#45;&gt;Node143 -->
<g id="edge35" class="edge">
<title>Node2&#45;&gt;Node143</title>
<path fill="none" stroke="#63b8ff" d="M4598.79,-202.78C4519.16,-193.55 4395.08,-178.41 4288,-162 4283.38,-161.29 4278.6,-160.52 4273.81,-159.73"/>
<polygon fill="#63b8ff" stroke="#63b8ff" points="4598.37,-206.25 4608.71,-203.92 4599.17,-199.3 4598.37,-206.25"/>
</g>
<!-- Node145 -->
<g id="node36" class="node">
<title>Node145</title>
<g id="a_node36"><a xlink:href="f__op__kankyo_8cpp.html" target="_top" xlink:title=" ">
<polygon fill="white" stroke="#666666" points="4279,-85 4151,-85 4151,-66 4279,-66 4279,-85"/>
<text text-anchor="middle" x="4215" y="-73" font-family="Helvetica,sans-Serif" font-size="10.00">src/f_op/f_op_kankyo.cpp</text>
</a>
</g>
</g>
<!-- Node2&#45;&gt;Node145 -->
<g id="edge44" class="edge">
<title>Node2&#45;&gt;Node145</title>
<path fill="none" stroke="#63b8ff" d="M4598.81,-209.38C4529.66,-204.92 4429.21,-193.1 4347,-162 4296.95,-143.06 4246.16,-103 4225.11,-85.27"/>
<polygon fill="#63b8ff" stroke="#63b8ff" points="4598.35,-212.86 4608.55,-209.97 4598.77,-205.87 4598.35,-212.86"/>
</g>
<!-- Node147 -->
<g id="node37" class="node">
<title>Node147</title>
<g id="a_node37"><a xlink:href="f__op__scene__mng_8h.html" target="_top" xlink:title=" ">
<polygon fill="#fff0f0" stroke="red" points="4490,-162 4368,-162 4368,-132 4490,-132 4490,-162"/>
<text text-anchor="start" x="4376" y="-150" font-family="Helvetica,sans-Serif" font-size="10.00">include/f_op/f_op_scene</text>
<text text-anchor="middle" x="4429" y="-139" font-family="Helvetica,sans-Serif" font-size="10.00">_mng.h</text>
</a>
</g>
</g>
<!-- Node2&#45;&gt;Node147 -->
<g id="edge37" class="edge">
<title>Node2&#45;&gt;Node147</title>
<path fill="none" stroke="#63b8ff" d="M4634.69,-200.24C4592.75,-189.59 4530.82,-173.86 4485.88,-162.45"/>
<polygon fill="#63b8ff" stroke="#63b8ff" points="4633.67,-203.59 4644.23,-202.66 4635.4,-196.81 4633.67,-203.59"/>
</g>
<!-- Node151 -->
<g id="node38" class="node">
<title>Node151</title>
<g id="a_node38"><a xlink:href="d__s__name_8cpp.html" target="_top" xlink:title=" ">
<polygon fill="white" stroke="#666666" points="4427.5,-85 4314.5,-85 4314.5,-66 4427.5,-66 4427.5,-85"/>
<text text-anchor="middle" x="4371" y="-73" font-family="Helvetica,sans-Serif" font-size="10.00">src/d/s/d_s_name.cpp</text>
</a>
</g>
</g>
<!-- Node2&#45;&gt;Node151 -->
<g id="edge40" class="edge">
<title>Node2&#45;&gt;Node151</title>
<path fill="none" stroke="#63b8ff" d="M4598.88,-210.96C4513.87,-207.93 4389.31,-197.38 4359,-162 4340.18,-140.03 4356.56,-102.59 4365.76,-85.49"/>
<polygon fill="#63b8ff" stroke="#63b8ff" points="4598.72,-214.45 4608.83,-211.28 4598.95,-207.46 4598.72,-214.45"/>
</g>
<!-- Node152 -->
<g id="node39" class="node">
<title>Node152</title>
<g id="a_node39"><a xlink:href="f__ap__game_8cpp.html" target="_top" xlink:title=" ">
<polygon fill="white" stroke="#666666" points="4574.5,-85 4453.5,-85 4453.5,-66 4574.5,-66 4574.5,-85"/>
<text text-anchor="middle" x="4514" y="-73" font-family="Helvetica,sans-Serif" font-size="10.00">src/f_ap/f_ap_game.cpp</text>
</a>
</g>
</g>
<!-- Node2&#45;&gt;Node152 -->
<g id="edge41" class="edge">
<title>Node2&#45;&gt;Node152</title>
<path fill="none" stroke="#63b8ff" d="M4604.02,-199.96C4579.69,-192.65 4554.59,-180.9 4537,-162 4516.68,-140.17 4513.95,-102.33 4513.82,-85.28"/>
<polygon fill="#63b8ff" stroke="#63b8ff" points="4603.08,-203.34 4613.65,-202.62 4604.94,-196.59 4603.08,-203.34"/>
</g>
<!-- Node155 -->
<g id="node40" class="node">
<title>Node155</title>
<g id="a_node40"><a xlink:href="f__op__camera_8cpp.html" target="_top" xlink:title=" ">
<polygon fill="white" stroke="#666666" points="4675.5,-156.5 4546.5,-156.5 4546.5,-137.5 4675.5,-137.5 4675.5,-156.5"/>
<text text-anchor="middle" x="4611" y="-144.5" font-family="Helvetica,sans-Serif" font-size="10.00">src/f_op/f_op_camera.cpp</text>
</a>
</g>
</g>
<!-- Node2&#45;&gt;Node155 -->
<g id="edge43" class="edge">
<title>Node2&#45;&gt;Node155</title>
<path fill="none" stroke="#63b8ff" d="M4662.77,-195.33C4649.3,-183.02 4631.48,-166.73 4620.65,-156.82"/>
<polygon fill="#63b8ff" stroke="#63b8ff" points="4660.41,-197.92 4670.15,-202.08 4665.13,-192.75 4660.41,-197.92"/>
</g>
<!-- Node156 -->
<g id="node41" class="node">
<title>Node156</title>
<g id="a_node41"><a xlink:href="f__op__msg_8cpp.html" target="_top" xlink:title=" ">
<polygon fill="white" stroke="#666666" points="4810,-156.5 4694,-156.5 4694,-137.5 4810,-137.5 4810,-156.5"/>
<text text-anchor="middle" x="4752" y="-144.5" font-family="Helvetica,sans-Serif" font-size="10.00">src/f_op/f_op_msg.cpp</text>
</a>
</g>
</g>
<!-- Node2&#45;&gt;Node156 -->
<g id="edge45" class="edge">
<title>Node2&#45;&gt;Node156</title>
<path fill="none" stroke="#63b8ff" d="M4699.1,-195.69C4712.81,-183.33 4731.12,-166.82 4742.21,-156.82"/>
<polygon fill="#63b8ff" stroke="#63b8ff" points="4697.08,-192.79 4692,-202.09 4701.77,-197.99 4697.08,-192.79"/>
</g>
<!-- Node157 -->
<g id="node42" class="node">
<title>Node157</title>
<g id="a_node42"><a xlink:href="f__op__overlap_8cpp.html" target="_top" xlink:title=" ">
<polygon fill="white" stroke="#666666" points="4956,-156.5 4828,-156.5 4828,-137.5 4956,-137.5 4956,-156.5"/>
<text text-anchor="middle" x="4892" y="-144.5" font-family="Helvetica,sans-Serif" font-size="10.00">src/f_op/f_op_overlap.cpp</text>
</a>
</g>
</g>
<!-- Node2&#45;&gt;Node157 -->
<g id="edge46" class="edge">
<title>Node2&#45;&gt;Node157</title>
<path fill="none" stroke="#63b8ff" d="M4721.1,-199.84C4762.37,-187.32 4825.71,-168.11 4862.57,-156.93"/>
<polygon fill="#63b8ff" stroke="#63b8ff" points="4720.34,-196.41 4711.79,-202.66 4722.37,-203.11 4720.34,-196.41"/>
</g>
<!-- Node2&#45;&gt;Node158 -->
<g id="edge47" class="edge">
<title>Node2&#45;&gt;Node158</title>
<path fill="none" stroke="#63b8ff" d="M4763.21,-211.32C4913.55,-209.12 5242.58,-199.99 5517,-162 5519.82,-161.61 5522.69,-161.16 5525.59,-160.67"/>
<polygon fill="#63b8ff" stroke="#63b8ff" points="4763.29,-207.81 4753.34,-211.45 4763.39,-214.81 4763.29,-207.81"/>
</g>
<!-- Node159 -->
<g id="node44" class="node">
<title>Node159</title>
<g id="a_node44"><a xlink:href="f__op__scene_8cpp.html" target="_top" xlink:title=" ">
<polygon fill="white" stroke="#666666" points="5097.5,-156.5 4974.5,-156.5 4974.5,-137.5 5097.5,-137.5 5097.5,-156.5"/>
<text text-anchor="middle" x="5036" y="-144.5" font-family="Helvetica,sans-Serif" font-size="10.00">src/f_op/f_op_scene.cpp</text>
</a>
</g>
</g>
<!-- Node2&#45;&gt;Node159 -->
<g id="edge48" class="edge">
<title>Node2&#45;&gt;Node159</title>
<path fill="none" stroke="#63b8ff" d="M4745.04,-201.11C4802.65,-191.22 4889.56,-176.08 4965,-162 4973.52,-160.41 4982.61,-158.66 4991.33,-156.95"/>
<polygon fill="#63b8ff" stroke="#63b8ff" points="4744.68,-197.62 4735.42,-202.76 4745.86,-204.52 4744.68,-197.62"/>
</g>
<!-- Node160 -->
<g id="node45" class="node">
<title>Node160</title>
<g id="a_node45"><a xlink:href="f__op__scene__pause_8cpp.html" target="_top" xlink:title=" ">
<polygon fill="white" stroke="#666666" points="5220.5,-162 5115.5,-162 5115.5,-132 5220.5,-132 5220.5,-162"/>
<text text-anchor="start" x="5123.5" y="-150" font-family="Helvetica,sans-Serif" font-size="10.00">src/f_op/f_op_scene</text>
<text text-anchor="middle" x="5168" y="-139" font-family="Helvetica,sans-Serif" font-size="10.00">_pause.cpp</text>
</a>
</g>
</g>
<!-- Node2&#45;&gt;Node160 -->
<g id="edge49" class="edge">
<title>Node2&#45;&gt;Node160</title>
<path fill="none" stroke="#63b8ff" d="M4762.88,-204.94C4848.73,-196.94 4987.39,-182.31 5106,-162 5109.05,-161.48 5112.17,-160.9 5115.31,-160.29"/>
<polygon fill="#63b8ff" stroke="#63b8ff" points="4762.78,-201.43 4753.15,-205.84 4763.42,-208.4 4762.78,-201.43"/>
</g>
<!-- Node161 -->
<g id="node46" class="node">
<title>Node161</title>
<g id="a_node46"><a xlink:href="f__op__view_8cpp.html" target="_top" xlink:title=" ">
<polygon fill="white" stroke="#666666" points="5355.5,-156.5 5238.5,-156.5 5238.5,-137.5 5355.5,-137.5 5355.5,-156.5"/>
<text text-anchor="middle" x="5297" y="-144.5" font-family="Helvetica,sans-Serif" font-size="10.00">src/f_op/f_op_view.cpp</text>
</a>
</g>
</g>
<!-- Node2&#45;&gt;Node161 -->
<g id="edge50" class="edge">
<title>Node2&#45;&gt;Node161</title>
<path fill="none" stroke="#63b8ff" d="M4763.2,-207.38C4870.69,-200.68 5064.65,-186.34 5229,-162 5238.18,-160.64 5247.99,-158.83 5257.22,-156.97"/>
<polygon fill="#63b8ff" stroke="#63b8ff" points="4763.08,-203.88 4753.31,-207.99 4763.51,-210.87 4763.08,-203.88"/>
</g>
<!-- Node162 -->
<g id="node47" class="node">
<title>Node162</title>
<g id="a_node47"><a xlink:href="f__pc__manager_8cpp.html" target="_top" xlink:title=" ">
<polygon fill="white" stroke="#666666" points="5508,-156.5 5374,-156.5 5374,-137.5 5508,-137.5 5508,-156.5"/>
<text text-anchor="middle" x="5441" y="-144.5" font-family="Helvetica,sans-Serif" font-size="10.00">src/f_pc/f_pc_manager.cpp</text>
</a>
</g>
</g>
<!-- Node2&#45;&gt;Node162 -->
<g id="edge51" class="edge">
<title>Node2&#45;&gt;Node162</title>
<path fill="none" stroke="#63b8ff" d="M4762.82,-208.84C4891.27,-203.23 5147.9,-189.48 5364,-162 5374.51,-160.66 5385.77,-158.84 5396.34,-156.95"/>
<polygon fill="#63b8ff" stroke="#63b8ff" points="4762.9,-205.33 4753.06,-209.26 4763.2,-212.32 4762.9,-205.33"/>
</g>
<!-- Node4 -->
<g id="node4" class="node">
<title>Node4</title>
<g id="a_node4"><a xlink:href="d__a__alink_8h.html" target="_top" xlink:title=" ">
<polygon fill="#fff0f0" stroke="red" points="116,-85 0,-85 0,-66 116,-66 116,-85"/>
<text text-anchor="middle" x="58" y="-73" font-family="Helvetica,sans-Serif" font-size="10.00">include/d/a/d_a_alink.h</text>
</a>
</g>
</g>
<!-- Node3&#45;&gt;Node4 -->
<g id="edge3" class="edge">
<title>Node3&#45;&gt;Node4</title>
<path fill="none" stroke="#63b8ff" d="M1942.32,-146.37C1644.36,-147.58 489.61,-148.7 130,-96 114.88,-93.78 98.4,-89.47 85.03,-85.46"/>
<polygon fill="#63b8ff" stroke="#63b8ff" points="1942.3,-149.87 1952.28,-146.33 1942.27,-142.87 1942.3,-149.87"/>
</g>
<!-- Node3&#45;&gt;Node12 -->
<g id="edge34" class="edge">
<title>Node3&#45;&gt;Node12</title>
<path fill="none" stroke="#63b8ff" d="M1942.3,-145.27C1607.7,-141.67 197.95,-124.82 163,-96 140.01,-77.04 141.08,-36.99 142.85,-19.26"/>
<polygon fill="#63b8ff" stroke="#63b8ff" points="1942.2,-148.77 1952.23,-145.38 1942.27,-141.77 1942.2,-148.77"/>
</g>
<!-- Node13 -->
<g id="node6" class="node">
<title>Node13</title>
<g id="a_node6"><a xlink:href="d__a__obj__item_8h.html" target="_top" xlink:title=" ">
<polygon fill="#fff0f0" stroke="red" points="273.5,-90.5 172.5,-90.5 172.5,-60.5 273.5,-60.5 273.5,-90.5"/>
<text text-anchor="start" x="180.5" y="-78.5" font-family="Helvetica,sans-Serif" font-size="10.00">include/d/a/d_a_obj</text>
<text text-anchor="middle" x="223" y="-67.5" font-family="Helvetica,sans-Serif" font-size="10.00">_item.h</text>
</a>
</g>
</g>
<!-- Node3&#45;&gt;Node13 -->
<g id="edge5" class="edge">
<title>Node3&#45;&gt;Node13</title>
<path fill="none" stroke="#63b8ff" d="M1942.38,-145.17C1638.13,-141.42 447.08,-125.03 282,-96 275.2,-94.8 268.11,-92.99 261.31,-90.94"/>
<polygon fill="#63b8ff" stroke="#63b8ff" points="1942.12,-148.67 1952.16,-145.29 1942.21,-141.67 1942.12,-148.67"/>
</g>
<!-- Node15 -->
<g id="node7" class="node">
<title>Node15</title>
<g id="a_node7"><a xlink:href="d__bomb_8h.html" target="_top" xlink:title=" ">
<polygon fill="#fff0f0" stroke="red" points="392.5,-85 291.5,-85 291.5,-66 392.5,-66 392.5,-85"/>
<text text-anchor="middle" x="342" y="-73" font-family="Helvetica,sans-Serif" font-size="10.00">include/d/d_bomb.h</text>
</a>
</g>
</g>
<!-- Node3&#45;&gt;Node15 -->
<g id="edge6" class="edge">
<title>Node3&#45;&gt;Node15</title>
<path fill="none" stroke="#63b8ff" d="M1942.44,-146.46C1672.39,-147.8 704.5,-148.75 402,-96 389.27,-93.78 375.53,-89.46 364.41,-85.45"/>
<polygon fill="#63b8ff" stroke="#63b8ff" points="1942.15,-149.96 1952.13,-146.41 1942.11,-142.96 1942.15,-149.96"/>
</g>
<!-- Node18 -->
<g id="node8" class="node">
<title>Node18</title>
<g id="a_node8"><a xlink:href="d__a__b__oh_8h.html" target="_top" xlink:title=" ">
<polygon fill="white" stroke="#666666" points="517,-90.5 411,-90.5 411,-60.5 517,-60.5 517,-90.5"/>
<text text-anchor="start" x="419" y="-78.5" font-family="Helvetica,sans-Serif" font-size="10.00">include/rel/d/a/b/d</text>
<text text-anchor="middle" x="464" y="-67.5" font-family="Helvetica,sans-Serif" font-size="10.00">_a_b_oh/d_a_b_oh.h</text>
</a>
</g>
</g>
<!-- Node3&#45;&gt;Node18 -->
<g id="edge7" class="edge">
<title>Node3&#45;&gt;Node18</title>
<path fill="none" stroke="#63b8ff" d="M1942.43,-146.16C1685.9,-146.33 803.41,-143.38 526,-96 518.99,-94.8 511.68,-93.01 504.64,-91"/>
<polygon fill="#63b8ff" stroke="#63b8ff" points="1942.3,-149.66 1952.3,-146.15 1942.29,-142.66 1942.3,-149.66"/>
</g>
<!-- Node19 -->
<g id="node9" class="node">
<title>Node19</title>
<g id="a_node9"><a xlink:href="d__a__andsw_8h.html" target="_top" xlink:title=" ">
<polygon fill="white" stroke="#666666" points="645,-90.5 535,-90.5 535,-60.5 645,-60.5 645,-90.5"/>
<text text-anchor="start" x="543" y="-78.5" font-family="Helvetica,sans-Serif" font-size="10.00">include/rel/d/a/d_a</text>
<text text-anchor="middle" x="590" y="-67.5" font-family="Helvetica,sans-Serif" font-size="10.00">_andsw/d_a_andsw.h</text>
</a>
</g>
</g>
<!-- Node3&#45;&gt;Node19 -->
<g id="edge8" class="edge">
<title>Node3&#45;&gt;Node19</title>
<path fill="none" stroke="#63b8ff" d="M1942.13,-145.81C1699.8,-144.78 905.43,-138.19 654,-96 646.78,-94.79 639.24,-92.99 631.97,-90.97"/>
<polygon fill="#63b8ff" stroke="#63b8ff" points="1942.06,-149.31 1952.07,-145.85 1942.08,-142.31 1942.06,-149.31"/>
</g>
<!-- Node20 -->
<g id="node10" class="node">
<title>Node20</title>
<g id="a_node10"><a xlink:href="d__a__arrow_8h.html" target="_top" xlink:title=" ">
<polygon fill="white" stroke="#666666" points="764.5,-90.5 663.5,-90.5 663.5,-60.5 764.5,-60.5 764.5,-90.5"/>
<text text-anchor="start" x="671.5" y="-78.5" font-family="Helvetica,sans-Serif" font-size="10.00">include/rel/d/a/d_a</text>
<text text-anchor="middle" x="714" y="-67.5" font-family="Helvetica,sans-Serif" font-size="10.00">_arrow/d_a_arrow.h</text>
</a>
</g>
</g>
<!-- Node3&#45;&gt;Node20 -->
<g id="edge9" class="edge">
<title>Node3&#45;&gt;Node20</title>
<path fill="none" stroke="#63b8ff" d="M1942.23,-145.73C1714.12,-144.47 999.85,-137.22 773,-96 766.31,-94.78 759.34,-92.99 752.64,-90.97"/>
<polygon fill="#63b8ff" stroke="#63b8ff" points="1942.15,-149.23 1952.17,-145.79 1942.19,-142.23 1942.15,-149.23"/>
</g>
<!-- Node21 -->
<g id="node11" class="node">
<title>Node21</title>
<g id="a_node11"><a xlink:href="d__a__boomerang_8h.html" target="_top" xlink:title=" ">
<polygon fill="#fff0f0" stroke="red" points="931.5,-90.5 782.5,-90.5 782.5,-60.5 931.5,-60.5 931.5,-90.5"/>
<text text-anchor="start" x="790.5" y="-78.5" font-family="Helvetica,sans-Serif" font-size="10.00">include/rel/d/a/d_a</text>
<text text-anchor="middle" x="857" y="-67.5" font-family="Helvetica,sans-Serif" font-size="10.00">_boomerang/d_a_boomerang.h</text>
</a>
</g>
</g>
<!-- Node3&#45;&gt;Node21 -->
<g id="edge10" class="edge">
<title>Node3&#45;&gt;Node21</title>
<path fill="none" stroke="#63b8ff" d="M1942.27,-144.38C1735.66,-139.37 1135.38,-122.87 941,-96 931.81,-94.73 922.14,-92.93 912.76,-90.93"/>
<polygon fill="#63b8ff" stroke="#63b8ff" points="1941.97,-147.87 1952.05,-144.61 1942.14,-140.87 1941.97,-147.87"/>
</g>
<!-- Node22 -->
<g id="node12" class="node">
<title>Node22</title>
<g id="a_node12"><a xlink:href="d__a__canoe_8h.html" target="_top" xlink:title=" ">
<polygon fill="white" stroke="#666666" points="1056,-90.5 950,-90.5 950,-60.5 1056,-60.5 1056,-90.5"/>
<text text-anchor="start" x="958" y="-78.5" font-family="Helvetica,sans-Serif" font-size="10.00">include/rel/d/a/d_a</text>
<text text-anchor="middle" x="1003" y="-67.5" font-family="Helvetica,sans-Serif" font-size="10.00">_canoe/d_a_canoe.h</text>
</a>
</g>
</g>
<!-- Node3&#45;&gt;Node22 -->
<g id="edge11" class="edge">
<title>Node3&#45;&gt;Node22</title>
<path fill="none" stroke="#63b8ff" d="M1942.3,-144.58C1752.25,-140.38 1233.38,-126.41 1065,-96 1058.12,-94.76 1050.93,-92.97 1043.99,-90.98"/>
<polygon fill="#63b8ff" stroke="#63b8ff" points="1941.94,-148.07 1952.02,-144.79 1942.1,-141.07 1941.94,-148.07"/>
</g>
<!-- Node23 -->
<g id="node13" class="node">
<title>Node23</title>
<g id="a_node13"><a xlink:href="d__a__crod_8h.html" target="_top" xlink:title=" ">
<polygon fill="#fff0f0" stroke="red" points="1170,-90.5 1074,-90.5 1074,-60.5 1170,-60.5 1170,-90.5"/>
<text text-anchor="start" x="1082" y="-78.5" font-family="Helvetica,sans-Serif" font-size="10.00">include/rel/d/a/d_a</text>
<text text-anchor="middle" x="1122" y="-67.5" font-family="Helvetica,sans-Serif" font-size="10.00">_crod/d_a_crod.h</text>
</a>
</g>
</g>
<!-- Node3&#45;&gt;Node23 -->
<g id="edge12" class="edge">
<title>Node3&#45;&gt;Node23</title>
<path fill="none" stroke="#63b8ff" d="M1942.44,-144.21C1768.81,-139.42 1324.36,-124.67 1179,-96 1172.64,-94.75 1166.01,-92.95 1159.63,-90.96"/>
<polygon fill="#63b8ff" stroke="#63b8ff" points="1942.13,-147.71 1952.22,-144.48 1942.32,-140.71 1942.13,-147.71"/>
</g>
<!-- Node24 -->
<g id="node14" class="node">
<title>Node24</title>
<g id="a_node14"><a xlink:href="d__a__disappear_8h.html" target="_top" xlink:title=" ">
<polygon fill="white" stroke="#666666" points="1325.5,-90.5 1188.5,-90.5 1188.5,-60.5 1325.5,-60.5 1325.5,-90.5"/>
<text text-anchor="start" x="1196.5" y="-78.5" font-family="Helvetica,sans-Serif" font-size="10.00">include/rel/d/a/d_a</text>
<text text-anchor="middle" x="1257" y="-67.5" font-family="Helvetica,sans-Serif" font-size="10.00">_disappear/d_a_disappear.h</text>
</a>
</g>
</g>
<!-- Node3&#45;&gt;Node24 -->
<g id="edge13" class="edge">
<title>Node3&#45;&gt;Node24</title>
<path fill="none" stroke="#63b8ff" d="M1942.48,-144.77C1818.75,-141.73 1554.8,-131.31 1335,-96 1326.73,-94.67 1318.05,-92.89 1309.61,-90.95"/>
<polygon fill="#63b8ff" stroke="#63b8ff" points="1942.06,-148.26 1952.14,-145 1942.23,-141.26 1942.06,-148.26"/>
</g>
<!-- Node25 -->
<g id="node15" class="node">
<title>Node25</title>
<g id="a_node15"><a xlink:href="d__a__dshutter_8h.html" target="_top" xlink:title=" ">
<polygon fill="white" stroke="#666666" points="1468,-90.5 1344,-90.5 1344,-60.5 1468,-60.5 1468,-90.5"/>
<text text-anchor="start" x="1352" y="-78.5" font-family="Helvetica,sans-Serif" font-size="10.00">include/rel/d/a/d_a</text>
<text text-anchor="middle" x="1406" y="-67.5" font-family="Helvetica,sans-Serif" font-size="10.00">_dshutter/d_a_dshutter.h</text>
</a>
</g>
</g>
<!-- Node3&#45;&gt;Node25 -->
<g id="edge14" class="edge">
<title>Node3&#45;&gt;Node25</title>
<path fill="none" stroke="#63b8ff" d="M1942.36,-143.35C1839.33,-138.6 1642.11,-126.13 1477,-96 1469.58,-94.65 1461.81,-92.88 1454.24,-90.96"/>
<polygon fill="#63b8ff" stroke="#63b8ff" points="1942.19,-146.84 1952.34,-143.8 1942.5,-139.85 1942.19,-146.84"/>
</g>
<!-- Node26 -->
<g id="node16" class="node">
<title>Node26</title>
<g id="a_node16"><a xlink:href="d__a__econt_8h.html" target="_top" xlink:title=" ">
<polygon fill="white" stroke="#666666" points="1587.5,-90.5 1486.5,-90.5 1486.5,-60.5 1587.5,-60.5 1587.5,-90.5"/>
<text text-anchor="start" x="1494.5" y="-78.5" font-family="Helvetica,sans-Serif" font-size="10.00">include/rel/d/a/d_a</text>
<text text-anchor="middle" x="1537" y="-67.5" font-family="Helvetica,sans-Serif" font-size="10.00">_econt/d_a_econt.h</text>
</a>
</g>
</g>
<!-- Node3&#45;&gt;Node26 -->
<g id="edge15" class="edge">
<title>Node3&#45;&gt;Node26</title>
<path fill="none" stroke="#63b8ff" d="M1942.29,-141.84C1858.75,-135.94 1715.97,-122.74 1596,-96 1589.79,-94.62 1583.3,-92.83 1577.01,-90.91"/>
<polygon fill="#63b8ff" stroke="#63b8ff" points="1941.95,-145.33 1952.16,-142.52 1942.43,-138.34 1941.95,-145.33"/>
</g>
<!-- Node27 -->
<g id="node17" class="node">
<title>Node27</title>
<g id="a_node17"><a xlink:href="d__a__guard__mng_8h.html" target="_top" xlink:title=" ">
<polygon fill="white" stroke="#666666" points="1754.5,-90.5 1605.5,-90.5 1605.5,-60.5 1754.5,-60.5 1754.5,-90.5"/>
<text text-anchor="start" x="1613.5" y="-78.5" font-family="Helvetica,sans-Serif" font-size="10.00">include/rel/d/a/d_a</text>
<text text-anchor="middle" x="1680" y="-67.5" font-family="Helvetica,sans-Serif" font-size="10.00">_guard_mng/d_a_guard_mng.h</text>
</a>
</g>
</g>
<!-- Node3&#45;&gt;Node27 -->
<g id="edge16" class="edge">
<title>Node3&#45;&gt;Node27</title>
<path fill="none" stroke="#63b8ff" d="M1942.53,-132.43C1892.61,-122.68 1824.1,-109.01 1764,-96 1756.68,-94.42 1749.02,-92.71 1741.43,-90.98"/>
<polygon fill="#63b8ff" stroke="#63b8ff" points="1941.56,-135.81 1952.04,-134.29 1942.9,-128.94 1941.56,-135.81"/>
</g>
<!-- Node28 -->
<g id="node18" class="node">
<title>Node28</title>
<g id="a_node18"><a xlink:href="d__a__hitobj_8h.html" target="_top" xlink:title=" ">
<polygon fill="white" stroke="#666666" points="1873,-90.5 1773,-90.5 1773,-60.5 1873,-60.5 1873,-90.5"/>
<text text-anchor="start" x="1781" y="-78.5" font-family="Helvetica,sans-Serif" font-size="10.00">include/rel/d/a/d_a</text>
<text text-anchor="middle" x="1823" y="-67.5" font-family="Helvetica,sans-Serif" font-size="10.00">_hitobj/d_a_hitobj.h</text>
</a>
</g>
</g>
<!-- Node3&#45;&gt;Node28 -->
<g id="edge17" class="edge">
<title>Node3&#45;&gt;Node28</title>
<path fill="none" stroke="#63b8ff" d="M1962.9,-127.67C1931.45,-116.17 1891.47,-101.55 1862.32,-90.88"/>
<polygon fill="#63b8ff" stroke="#63b8ff" points="1961.62,-130.93 1972.21,-131.08 1964.02,-124.36 1961.62,-130.93"/>
</g>
<!-- Node29 -->
<g id="node19" class="node">
<title>Node29</title>
<g id="a_node19"><a xlink:href="d__a__izumi__gate_8h.html" target="_top" xlink:title=" ">
<polygon fill="white" stroke="#666666" points="2006.5,-96 1891.5,-96 1891.5,-55 2006.5,-55 2006.5,-96"/>
<text text-anchor="start" x="1899.5" y="-84" font-family="Helvetica,sans-Serif" font-size="10.00">include/rel/d/a/d_a</text>
<text text-anchor="start" x="1899.5" y="-73" font-family="Helvetica,sans-Serif" font-size="10.00">_izumi_gate/d_a_izumi</text>
<text text-anchor="middle" x="1949" y="-62" font-family="Helvetica,sans-Serif" font-size="10.00">_gate.h</text>
</a>
</g>
</g>
<!-- Node3&#45;&gt;Node29 -->
<g id="edge18" class="edge">
<title>Node3&#45;&gt;Node29</title>
<path fill="none" stroke="#63b8ff" d="M1992.18,-123.39C1984.17,-114.69 1975.1,-104.84 1967.34,-96.42"/>
<polygon fill="#63b8ff" stroke="#63b8ff" points="1989.37,-125.5 1998.71,-130.49 1994.51,-120.76 1989.37,-125.5"/>
</g>
<!-- Node30 -->
<g id="node20" class="node">
<title>Node30</title>
<g id="a_node20"><a xlink:href="d__a__mirror_8h.html" target="_top" xlink:title=" ">
<polygon fill="#fff0f0" stroke="red" points="2127.5,-90.5 2024.5,-90.5 2024.5,-60.5 2127.5,-60.5 2127.5,-90.5"/>
<text text-anchor="start" x="2032.5" y="-78.5" font-family="Helvetica,sans-Serif" font-size="10.00">include/rel/d/a/d_a</text>
<text text-anchor="middle" x="2076" y="-67.5" font-family="Helvetica,sans-Serif" font-size="10.00">_mirror/d_a_mirror.h</text>
</a>
</g>
</g>
<!-- Node3&#45;&gt;Node30 -->
<g id="edge19" class="edge">
<title>Node3&#45;&gt;Node30</title>
<path fill="none" stroke="#63b8ff" d="M2033.7,-123.17C2043.34,-112.53 2054.52,-100.2 2062.96,-90.88"/>
<polygon fill="#63b8ff" stroke="#63b8ff" points="2031.19,-120.72 2027.07,-130.48 2036.38,-125.42 2031.19,-120.72"/>
</g>
<!-- Node32 -->
<g id="node21" class="node">
<title>Node32</title>
<g id="a_node21"><a xlink:href="d__a__scene__exit_8h.html" target="_top" xlink:title=" ">
<polygon fill="#fff0f0" stroke="red" points="2264.5,-96 2145.5,-96 2145.5,-55 2264.5,-55 2264.5,-96"/>
<text text-anchor="start" x="2153.5" y="-84" font-family="Helvetica,sans-Serif" font-size="10.00">include/rel/d/a/d_a</text>
<text text-anchor="start" x="2153.5" y="-73" font-family="Helvetica,sans-Serif" font-size="10.00">_scene_exit/d_a_scene</text>
<text text-anchor="middle" x="2205" y="-62" font-family="Helvetica,sans-Serif" font-size="10.00">_exit.h</text>
</a>
</g>
</g>
<!-- Node3&#45;&gt;Node32 -->
<g id="edge20" class="edge">
<title>Node3&#45;&gt;Node32</title>
<path fill="none" stroke="#63b8ff" d="M2063.4,-127.75C2090.01,-118.12 2122.71,-106.29 2149.98,-96.42"/>
<polygon fill="#63b8ff" stroke="#63b8ff" points="2062.42,-124.39 2054.21,-131.08 2064.8,-130.97 2062.42,-124.39"/>
</g>
<!-- Node33 -->
<g id="node22" class="node">
<title>Node33</title>
<g id="a_node22"><a xlink:href="d__a__scene__exit2_8h.html" target="_top" xlink:title=" ">
<polygon fill="white" stroke="#666666" points="2407,-96 2283,-96 2283,-55 2407,-55 2407,-96"/>
<text text-anchor="start" x="2291" y="-84" font-family="Helvetica,sans-Serif" font-size="10.00">include/rel/d/a/d_a</text>
<text text-anchor="start" x="2291" y="-73" font-family="Helvetica,sans-Serif" font-size="10.00">_scene_exit2/d_a_scene</text>
<text text-anchor="middle" x="2345" y="-62" font-family="Helvetica,sans-Serif" font-size="10.00">_exit2.h</text>
</a>
</g>
</g>
<!-- Node3&#45;&gt;Node33 -->
<g id="edge21" class="edge">
<title>Node3&#45;&gt;Node33</title>
<path fill="none" stroke="#63b8ff" d="M2083.58,-133.89C2136.05,-124.54 2209.27,-110.74 2273,-96 2276.15,-95.27 2279.38,-94.5 2282.63,-93.7"/>
<polygon fill="#63b8ff" stroke="#63b8ff" points="2083.11,-130.42 2073.87,-135.62 2084.33,-137.32 2083.11,-130.42"/>
</g>
<!-- Node34 -->
<g id="node23" class="node">
<title>Node34</title>
<g id="a_node23"><a xlink:href="d__a__spinner_8h.html" target="_top" xlink:title=" ">
<polygon fill="#fff0f0" stroke="red" points="2541,-90.5 2425,-90.5 2425,-60.5 2541,-60.5 2541,-90.5"/>
<text text-anchor="start" x="2433" y="-78.5" font-family="Helvetica,sans-Serif" font-size="10.00">include/rel/d/a/d_a</text>
<text text-anchor="middle" x="2483" y="-67.5" font-family="Helvetica,sans-Serif" font-size="10.00">_spinner/d_a_spinner.h</text>
</a>
</g>
</g>
<!-- Node3&#45;&gt;Node34 -->
<g id="edge22" class="edge">
<title>Node3&#45;&gt;Node34</title>
<path fill="none" stroke="#63b8ff" d="M2083.24,-140.71C2164.1,-133.83 2300.59,-119.79 2416,-96 2422.88,-94.58 2430.08,-92.8 2437.11,-90.9"/>
<polygon fill="#63b8ff" stroke="#63b8ff" points="2083.4,-137.19 2073.72,-141.51 2083.98,-144.16 2083.4,-137.19"/>
</g>
<!-- Node36 -->
<g id="node24" class="node">
<title>Node36</title>
<g id="a_node24"><a xlink:href="d__a__suspend_8h.html" target="_top" xlink:title=" ">
<polygon fill="#fff0f0" stroke="red" points="2686.5,-90.5 2559.5,-90.5 2559.5,-60.5 2686.5,-60.5 2686.5,-90.5"/>
<text text-anchor="start" x="2567.5" y="-78.5" font-family="Helvetica,sans-Serif" font-size="10.00">include/rel/d/a/d_a</text>
<text text-anchor="middle" x="2623" y="-67.5" font-family="Helvetica,sans-Serif" font-size="10.00">_suspend/d_a_suspend.h</text>
</a>
</g>
</g>
<!-- Node3&#45;&gt;Node36 -->
<g id="edge23" class="edge">
<title>Node3&#45;&gt;Node36</title>
<path fill="none" stroke="#63b8ff" d="M2083.43,-143.22C2186.53,-138.3 2384.31,-125.63 2550,-96 2557.62,-94.64 2565.6,-92.87 2573.38,-90.95"/>
<polygon fill="#63b8ff" stroke="#63b8ff" points="2083.58,-139.71 2073.75,-143.67 2083.9,-146.7 2083.58,-139.71"/>
</g>
<!-- Node39 -->
<g id="node25" class="node">
<title>Node39</title>
<g id="a_node25"><a xlink:href="d__a__swTime_8h.html" target="_top" xlink:title=" ">
<polygon fill="white" stroke="#666666" points="2827,-90.5 2705,-90.5 2705,-60.5 2827,-60.5 2827,-90.5"/>
<text text-anchor="start" x="2713" y="-78.5" font-family="Helvetica,sans-Serif" font-size="10.00">include/rel/d/a/d_a</text>
<text text-anchor="middle" x="2766" y="-67.5" font-family="Helvetica,sans-Serif" font-size="10.00">_swTime/d_a_swTime.h</text>
</a>
</g>
</g>
<!-- Node3&#45;&gt;Node39 -->
<g id="edge24" class="edge">
<title>Node3&#45;&gt;Node39</title>
<path fill="none" stroke="#63b8ff" d="M2083.54,-145.34C2207.94,-143.18 2474.05,-134.07 2695,-96 2702.56,-94.7 2710.47,-92.93 2718.16,-91"/>
<polygon fill="#63b8ff" stroke="#63b8ff" points="2083.77,-141.84 2073.82,-145.5 2083.88,-148.84 2083.77,-141.84"/>
</g>
<!-- Node40 -->
<g id="node26" class="node">
<title>Node40</title>
<g id="a_node26"><a xlink:href="d__a__talk_8h.html" target="_top" xlink:title=" ">
<polygon fill="white" stroke="#666666" points="2941,-90.5 2845,-90.5 2845,-60.5 2941,-60.5 2941,-90.5"/>
<text text-anchor="start" x="2853" y="-78.5" font-family="Helvetica,sans-Serif" font-size="10.00">include/rel/d/a/d_a</text>
<text text-anchor="middle" x="2893" y="-67.5" font-family="Helvetica,sans-Serif" font-size="10.00">_talk/d_a_talk.h</text>
</a>
</g>
</g>
<!-- Node3&#45;&gt;Node40 -->
<g id="edge25" class="edge">
<title>Node3&#45;&gt;Node40</title>
<path fill="none" stroke="#63b8ff" d="M2083.81,-144.14C2255.98,-139.23 2692.89,-124.29 2836,-96 2842.36,-94.74 2848.98,-92.95 2855.37,-90.96"/>
<polygon fill="#63b8ff" stroke="#63b8ff" points="2083.78,-140.64 2073.88,-144.42 2083.97,-147.64 2083.78,-140.64"/>
</g>
<!-- Node41 -->
<g id="node27" class="node">
<title>Node41</title>
<g id="a_node27"><a xlink:href="d__a__tboxSw_8h.html" target="_top" xlink:title=" ">
<polygon fill="white" stroke="#666666" points="3077,-90.5 2959,-90.5 2959,-60.5 3077,-60.5 3077,-90.5"/>
<text text-anchor="start" x="2967" y="-78.5" font-family="Helvetica,sans-Serif" font-size="10.00">include/rel/d/a/d_a</text>
<text text-anchor="middle" x="3018" y="-67.5" font-family="Helvetica,sans-Serif" font-size="10.00">_tboxSw/d_a_tboxSw.h</text>
</a>
</g>
</g>
<!-- Node3&#45;&gt;Node41 -->
<g id="edge26" class="edge">
<title>Node3&#45;&gt;Node41</title>
<path fill="none" stroke="#63b8ff" d="M2083.79,-144.29C2272.31,-139.42 2783.49,-123.95 2950,-96 2957.51,-94.74 2965.37,-92.95 2972.97,-90.95"/>
<polygon fill="#63b8ff" stroke="#63b8ff" points="2083.8,-140.79 2073.89,-144.55 2083.98,-147.79 2083.8,-140.79"/>
</g>
<!-- Node42 -->
<g id="node28" class="node">
<title>Node42</title>
<g id="a_node28"><a xlink:href="d__a__warp__bug_8h.html" target="_top" xlink:title=" ">
<polygon fill="white" stroke="#666666" points="3232.5,-90.5 3095.5,-90.5 3095.5,-60.5 3232.5,-60.5 3232.5,-90.5"/>
<text text-anchor="start" x="3103.5" y="-78.5" font-family="Helvetica,sans-Serif" font-size="10.00">include/rel/d/a/d_a</text>
<text text-anchor="middle" x="3164" y="-67.5" font-family="Helvetica,sans-Serif" font-size="10.00">_warp_bug/d_a_warp_bug.h</text>
</a>
</g>
</g>
<!-- Node3&#45;&gt;Node42 -->
<g id="edge27" class="edge">
<title>Node3&#45;&gt;Node42</title>
<path fill="none" stroke="#63b8ff" d="M2083.45,-144.54C2289.98,-139.98 2891.56,-124.55 3086,-96 3094.56,-94.74 3103.55,-92.95 3112.26,-90.96"/>
<polygon fill="#63b8ff" stroke="#63b8ff" points="2083.6,-141.04 2073.68,-144.76 2083.76,-148.04 2083.6,-141.04"/>
</g>
<!-- Node43 -->
<g id="node29" class="node">
<title>Node43</title>
<g id="a_node29"><a xlink:href="d__a__e__db__leaf_8h.html" target="_top" xlink:title=" ">
<polygon fill="white" stroke="#666666" points="3369.5,-96 3250.5,-96 3250.5,-55 3369.5,-55 3369.5,-96"/>
<text text-anchor="start" x="3258.5" y="-84" font-family="Helvetica,sans-Serif" font-size="10.00">include/rel/d/a/e/d</text>
<text text-anchor="start" x="3258.5" y="-73" font-family="Helvetica,sans-Serif" font-size="10.00">_a_e_db_leaf/d_a_e_db</text>
<text text-anchor="middle" x="3310" y="-62" font-family="Helvetica,sans-Serif" font-size="10.00">_leaf.h</text>
</a>
</g>
</g>
<!-- Node3&#45;&gt;Node43 -->
<g id="edge28" class="edge">
<title>Node3&#45;&gt;Node43</title>
<path fill="none" stroke="#63b8ff" d="M2083.8,-145.3C2310.34,-142.71 3015.77,-131.9 3241,-96 3244.07,-95.51 3247.2,-94.93 3250.35,-94.28"/>
<polygon fill="#63b8ff" stroke="#63b8ff" points="2083.89,-141.8 2073.93,-145.41 2083.97,-148.8 2083.89,-141.8"/>
</g>
<!-- Node44 -->
<g id="node30" class="node">
<title>Node44</title>
<g id="a_node30"><a xlink:href="d__a__e__ge_8h.html" target="_top" xlink:title=" ">
<polygon fill="#fff0f0" stroke="red" points="3494,-90.5 3388,-90.5 3388,-60.5 3494,-60.5 3494,-90.5"/>
<text text-anchor="start" x="3396" y="-78.5" font-family="Helvetica,sans-Serif" font-size="10.00">include/rel/d/a/e/d</text>
<text text-anchor="middle" x="3441" y="-67.5" font-family="Helvetica,sans-Serif" font-size="10.00">_a_e_ge/d_a_e_ge.h</text>
</a>
</g>
</g>
<!-- Node3&#45;&gt;Node44 -->
<g id="edge29" class="edge">
<title>Node3&#45;&gt;Node44</title>
<path fill="none" stroke="#63b8ff" d="M2083.78,-145.86C2326.7,-145.01 3125.41,-138.94 3378,-96 3385.11,-94.79 3392.54,-93 3399.69,-90.98"/>
<polygon fill="#63b8ff" stroke="#63b8ff" points="2083.8,-142.36 2073.81,-145.9 2083.82,-149.36 2083.8,-142.36"/>
</g>
<!-- Node46 -->
<g id="node31" class="node">
<title>Node46</title>
<g id="a_node31"><a xlink:href="d__a__e__yk_8h.html" target="_top" xlink:title=" ">
<polygon fill="white" stroke="#666666" points="3616,-90.5 3512,-90.5 3512,-60.5 3616,-60.5 3616,-90.5"/>
<text text-anchor="start" x="3520" y="-78.5" font-family="Helvetica,sans-Serif" font-size="10.00">include/rel/d/a/e/d</text>
<text text-anchor="middle" x="3564" y="-67.5" font-family="Helvetica,sans-Serif" font-size="10.00">_a_e_yk/d_a_e_yk.h</text>
</a>
</g>
</g>
<!-- Node3&#45;&gt;Node46 -->
<g id="edge30" class="edge">
<title>Node3&#45;&gt;Node46</title>
<path fill="none" stroke="#63b8ff" d="M2083.72,-146.2C2340.79,-146.55 3225.14,-144.12 3503,-96 3510.01,-94.79 3517.33,-92.96 3524.36,-90.9"/>
<polygon fill="#63b8ff" stroke="#63b8ff" points="2083.83,-142.7 2073.83,-146.19 2083.82,-149.7 2083.83,-142.7"/>
</g>
<!-- Node47 -->
<g id="node32" class="node">
<title>Node47</title>
<g id="a_node32"><a xlink:href="d__a__kytag06_8h.html" target="_top" xlink:title=" ">
<polygon fill="white" stroke="#666666" points="3774,-90.5 3634,-90.5 3634,-60.5 3774,-60.5 3774,-90.5"/>
<text text-anchor="start" x="3642" y="-78.5" font-family="Helvetica,sans-Serif" font-size="10.00">include/rel/d/a/kytag</text>
<text text-anchor="middle" x="3704" y="-67.5" font-family="Helvetica,sans-Serif" font-size="10.00">/d_a_kytag06/d_a_kytag06.h</text>
</a>
</g>
</g>
<!-- Node3&#45;&gt;Node47 -->
<g id="edge31" class="edge">
<title>Node3&#45;&gt;Node47</title>
<path fill="none" stroke="#63b8ff" d="M2083.5,-145.79C2353.33,-144.68 3320.6,-137.81 3625,-96 3633.82,-94.79 3643.08,-92.99 3652.03,-90.97"/>
<polygon fill="#63b8ff" stroke="#63b8ff" points="2083.81,-142.29 2073.82,-145.83 2083.83,-149.29 2083.81,-142.29"/>
</g>
<!-- Node48 -->
<g id="node33" class="node">
<title>Node48</title>
<g id="a_node33"><a xlink:href="d__a__kytag07_8h.html" target="_top" xlink:title=" ">
<polygon fill="white" stroke="#666666" points="3932,-90.5 3792,-90.5 3792,-60.5 3932,-60.5 3932,-90.5"/>
<text text-anchor="start" x="3800" y="-78.5" font-family="Helvetica,sans-Serif" font-size="10.00">include/rel/d/a/kytag</text>
<text text-anchor="middle" x="3862" y="-67.5" font-family="Helvetica,sans-Serif" font-size="10.00">/d_a_kytag07/d_a_kytag07.h</text>
</a>
</g>
</g>
<!-- Node3&#45;&gt;Node48 -->
<g id="edge32" class="edge">
<title>Node3&#45;&gt;Node48</title>
<path fill="none" stroke="#63b8ff" d="M2083.62,-146.02C2370.07,-145.78 3446.12,-141.8 3783,-96 3791.82,-94.8 3801.08,-93.01 3810.04,-90.99"/>
<polygon fill="#63b8ff" stroke="#63b8ff" points="2083.67,-142.52 2073.68,-146.03 2083.68,-149.52 2083.67,-142.52"/>
</g>
<!-- Node49 -->
<g id="node34" class="node">
<title>Node49</title>
<g id="a_node34"><a xlink:href="d__a__kytag08_8h.html" target="_top" xlink:title=" ">
<polygon fill="#fff0f0" stroke="red" points="4090,-90.5 3950,-90.5 3950,-60.5 4090,-60.5 4090,-90.5"/>
<text text-anchor="start" x="3958" y="-78.5" font-family="Helvetica,sans-Serif" font-size="10.00">include/rel/d/a/kytag</text>
<text text-anchor="middle" x="4020" y="-67.5" font-family="Helvetica,sans-Serif" font-size="10.00">/d_a_kytag08/d_a_kytag08.h</text>
</a>
</g>
</g>
<!-- Node3&#45;&gt;Node49 -->
<g id="edge33" class="edge">
<title>Node3&#45;&gt;Node49</title>
<path fill="none" stroke="#63b8ff" d="M2083.38,-146.21C2385.19,-146.79 3571.4,-145.81 3941,-96 3949.96,-94.79 3959.38,-92.97 3968.46,-90.92"/>
<polygon fill="#63b8ff" stroke="#63b8ff" points="2083.7,-142.71 2073.69,-146.19 2083.68,-149.71 2083.7,-142.71"/>
</g>
<!-- Node4&#45;&gt;Node12 -->
<g id="edge4" class="edge">
<title>Node4&#45;&gt;Node12</title>
<path fill="none" stroke="#63b8ff" d="M78.98,-58.89C95.68,-46.46 118.45,-29.51 132.14,-19.32"/>
<polygon fill="#63b8ff" stroke="#63b8ff" points="77.1,-55.92 71.17,-64.7 81.28,-61.54 77.1,-55.92"/>
</g>
<!-- Node143&#45;&gt;Node145 -->
<g id="edge36" class="edge">
<title>Node143&#45;&gt;Node145</title>
<path fill="none" stroke="#63b8ff" d="M4211.84,-120.46C4212.73,-108.07 4213.74,-93.99 4214.38,-85.18"/>
<polygon fill="#63b8ff" stroke="#63b8ff" points="4208.37,-119.86 4211.14,-130.09 4215.35,-120.37 4208.37,-119.86"/>
</g>
<!-- Node147&#45;&gt;Node151 -->
<g id="edge38" class="edge">
<title>Node147&#45;&gt;Node151</title>
<path fill="none" stroke="#63b8ff" d="M4409.9,-123.12C4399.06,-110.13 4386.13,-94.63 4378.24,-85.18"/>
<polygon fill="#63b8ff" stroke="#63b8ff" points="4406.92,-125 4416.01,-130.44 4412.29,-120.52 4406.92,-125"/>
</g>
<!-- Node147&#45;&gt;Node152 -->
<g id="edge39" class="edge">
<title>Node147&#45;&gt;Node152</title>
<path fill="none" stroke="#63b8ff" d="M4455.17,-124.6C4471.4,-111.33 4491.38,-94.99 4503.39,-85.18"/>
<polygon fill="#63b8ff" stroke="#63b8ff" points="4453.31,-121.6 4447.78,-130.64 4457.74,-127.02 4453.31,-121.6"/>
</g>
</g>
</svg>
