<?xml version="1.0" encoding="UTF-8" standalone="no"?>
<!DOCTYPE svg PUBLIC "-//W3C//DTD SVG 1.1//EN"
 "http://www.w3.org/Graphics/SVG/1.1/DTD/svg11.dtd">
<!-- Generated by graphviz version 7.0.5 (20221223.1930)
 -->
<!-- Title: include/f_pc/f_pc_layer_iter.h Pages: 1 -->
<svg width="3811pt" height="368pt"
 viewBox="0.00 0.00 3811.00 368.00" xmlns="http://www.w3.org/2000/svg" xmlns:xlink="http://www.w3.org/1999/xlink">
<g id="graph0" class="graph" transform="scale(1 1) rotate(0) translate(4 364)">
<title>include/f_pc/f_pc_layer_iter.h</title>
<!-- Node1 -->
<g id="node1" class="node">
<title>Node1</title>
<g id="a_node1"><a xlink:title=" ">
<polygon fill="#999999" stroke="#666666" points="3396.5,-360 3280.5,-360 3280.5,-330 3396.5,-330 3396.5,-360"/>
<text text-anchor="start" x="3288.5" y="-348" font-family="Helvetica,sans-Serif" font-size="10.00">include/f_pc/f_pc_layer</text>
<text text-anchor="middle" x="3338.5" y="-337" font-family="Helvetica,sans-Serif" font-size="10.00">_iter.h</text>
</a>
</g>
</g>
<!-- Node2 -->
<g id="node2" class="node">
<title>Node2</title>
<g id="a_node2"><a xlink:href="f__pc__executor_8h.html" target="_top" xlink:title=" ">
<polygon fill="white" stroke="#666666" points="3271.5,-288.5 3131.5,-288.5 3131.5,-269.5 3271.5,-269.5 3271.5,-288.5"/>
<text text-anchor="middle" x="3201.5" y="-276.5" font-family="Helvetica,sans-Serif" font-size="10.00">include/f_pc/f_pc_executor.h</text>
</a>
</g>
</g>
<!-- Node1&#45;&gt;Node2 -->
<g id="edge1" class="edge">
<title>Node1&#45;&gt;Node2</title>
<path fill="none" stroke="#63b8ff" d="M3297.63,-324.91C3272.17,-313.01 3240.59,-298.26 3220.74,-288.99"/>
<polygon fill="#63b8ff" stroke="#63b8ff" points="3295.84,-327.94 3306.38,-329 3298.8,-321.59 3295.84,-327.94"/>
</g>
<!-- Node179 -->
<g id="node42" class="node">
<title>Node179</title>
<g id="a_node42"><a xlink:href="f__pc__create__req_8cpp.html" target="_top" xlink:title=" ">
<polygon fill="white" stroke="#666666" points="3640.5,-228 3534.5,-228 3534.5,-198 3640.5,-198 3640.5,-228"/>
<text text-anchor="start" x="3542.5" y="-216" font-family="Helvetica,sans-Serif" font-size="10.00">src/f_pc/f_pc_create</text>
<text text-anchor="middle" x="3587.5" y="-205" font-family="Helvetica,sans-Serif" font-size="10.00">_req.cpp</text>
</a>
</g>
</g>
<!-- Node1&#45;&gt;Node179 -->
<g id="edge52" class="edge">
<title>Node1&#45;&gt;Node179</title>
<path fill="none" stroke="#63b8ff" d="M3322.72,-319.63C3313.69,-302.31 3306.49,-279.48 3319.5,-264 3349.4,-228.42 3479.93,-237.12 3525.5,-228 3528.31,-227.44 3531.19,-226.84 3534.1,-226.23"/>
<polygon fill="#63b8ff" stroke="#63b8ff" points="3319.66,-321.32 3327.66,-328.26 3325.73,-317.85 3319.66,-321.32"/>
</g>
<!-- Node183 -->
<g id="node46" class="node">
<title>Node183</title>
<g id="a_node46"><a xlink:href="f__pc__searcher_8h.html" target="_top" xlink:title=" ">
<polygon fill="white" stroke="#666666" points="1770,-222.5 1629,-222.5 1629,-203.5 1770,-203.5 1770,-222.5"/>
<text text-anchor="middle" x="1699.5" y="-210.5" font-family="Helvetica,sans-Serif" font-size="10.00">include/f_pc/f_pc_searcher.h</text>
</a>
</g>
</g>
<!-- Node1&#45;&gt;Node183 -->
<g id="edge46" class="edge">
<title>Node1&#45;&gt;Node183</title>
<path fill="none" stroke="#63b8ff" d="M3269.08,-338.49C3001.62,-317.28 2039.49,-240.97 1770.06,-219.6"/>
<polygon fill="#63b8ff" stroke="#63b8ff" points="3268.41,-341.95 3278.66,-339.25 3268.97,-334.97 3268.41,-341.95"/>
</g>
<!-- Node185 -->
<g id="node48" class="node">
<title>Node185</title>
<g id="a_node48"><a xlink:href="f__pc__layer__iter_8cpp.html" target="_top" xlink:title=" ">
<polygon fill="white" stroke="#666666" points="3427,-294 3328,-294 3328,-264 3427,-264 3427,-294"/>
<text text-anchor="start" x="3336" y="-282" font-family="Helvetica,sans-Serif" font-size="10.00">src/f_pc/f_pc_layer</text>
<text text-anchor="middle" x="3377.5" y="-271" font-family="Helvetica,sans-Serif" font-size="10.00">_iter.cpp</text>
</a>
</g>
</g>
<!-- Node1&#45;&gt;Node185 -->
<g id="edge53" class="edge">
<title>Node1&#45;&gt;Node185</title>
<path fill="none" stroke="#63b8ff" d="M3353.06,-320.11C3358.38,-311.38 3364.23,-301.78 3368.87,-294.16"/>
<polygon fill="#63b8ff" stroke="#63b8ff" points="3350.16,-318.14 3347.94,-328.5 3356.14,-321.79 3350.16,-318.14"/>
</g>
<!-- Node186 -->
<g id="node49" class="node">
<title>Node186</title>
<g id="a_node49"><a xlink:href="f__pc__node_8cpp.html" target="_top" xlink:title=" ">
<polygon fill="white" stroke="#666666" points="3563.5,-288.5 3445.5,-288.5 3445.5,-269.5 3563.5,-269.5 3563.5,-288.5"/>
<text text-anchor="middle" x="3504.5" y="-276.5" font-family="Helvetica,sans-Serif" font-size="10.00">src/f_pc/f_pc_node.cpp</text>
</a>
</g>
</g>
<!-- Node1&#45;&gt;Node186 -->
<g id="edge54" class="edge">
<title>Node1&#45;&gt;Node186</title>
<path fill="none" stroke="#63b8ff" d="M3386.39,-325.54C3417.51,-313.54 3456.71,-298.43 3481.19,-288.99"/>
<polygon fill="#63b8ff" stroke="#63b8ff" points="3385.24,-322.23 3377.17,-329.09 3387.76,-328.76 3385.24,-322.23"/>
</g>
<!-- Node187 -->
<g id="node50" class="node">
<title>Node187</title>
<g id="a_node50"><a xlink:href="f__pc__pause_8cpp.html" target="_top" xlink:title=" ">
<polygon fill="white" stroke="#666666" points="3705,-288.5 3582,-288.5 3582,-269.5 3705,-269.5 3705,-288.5"/>
<text text-anchor="middle" x="3643.5" y="-276.5" font-family="Helvetica,sans-Serif" font-size="10.00">src/f_pc/f_pc_pause.cpp</text>
</a>
</g>
</g>
<!-- Node1&#45;&gt;Node187 -->
<g id="edge55" class="edge">
<title>Node1&#45;&gt;Node187</title>
<path fill="none" stroke="#63b8ff" d="M3408.12,-329.39C3467.53,-316.93 3551.04,-299.4 3600.97,-288.93"/>
<polygon fill="#63b8ff" stroke="#63b8ff" points="3407.5,-325.95 3398.43,-331.43 3408.93,-332.8 3407.5,-325.95"/>
</g>
<!-- Node3 -->
<g id="node3" class="node">
<title>Node3</title>
<g id="a_node3"><a xlink:href="f__pc__manager_8h.html" target="_top" xlink:title=" ">
<polygon fill="white" stroke="#666666" points="3002,-222.5 2861,-222.5 2861,-203.5 3002,-203.5 3002,-222.5"/>
<text text-anchor="middle" x="2931.5" y="-210.5" font-family="Helvetica,sans-Serif" font-size="10.00">include/f_pc/f_pc_manager.h</text>
</a>
</g>
</g>
<!-- Node2&#45;&gt;Node3 -->
<g id="edge2" class="edge">
<title>Node2&#45;&gt;Node3</title>
<path fill="none" stroke="#63b8ff" d="M3152.57,-266.4C3099.8,-253.89 3016.95,-234.25 2969.07,-222.91"/>
<polygon fill="#63b8ff" stroke="#63b8ff" points="3151.66,-269.78 3162.2,-268.68 3153.28,-262.97 3151.66,-269.78"/>
</g>
<!-- Node177 -->
<g id="node40" class="node">
<title>Node177</title>
<g id="a_node40"><a xlink:href="f__op__overlap__mng_8cpp.html" target="_top" xlink:title=" ">
<polygon fill="white" stroke="#666666" points="3130.5,-228 3020.5,-228 3020.5,-198 3130.5,-198 3130.5,-228"/>
<text text-anchor="start" x="3028.5" y="-216" font-family="Helvetica,sans-Serif" font-size="10.00">src/f_op/f_op_overlap</text>
<text text-anchor="middle" x="3075.5" y="-205" font-family="Helvetica,sans-Serif" font-size="10.00">_mng.cpp</text>
</a>
</g>
</g>
<!-- Node2&#45;&gt;Node177 -->
<g id="edge40" class="edge">
<title>Node2&#45;&gt;Node177</title>
<path fill="none" stroke="#63b8ff" d="M3173.92,-263.99C3153.21,-253.47 3124.93,-239.11 3104,-228.48"/>
<polygon fill="#63b8ff" stroke="#63b8ff" points="3172.13,-267.01 3182.63,-268.42 3175.3,-260.77 3172.13,-267.01"/>
</g>
<!-- Node178 -->
<g id="node41" class="node">
<title>Node178</title>
<g id="a_node41"><a xlink:href="f__op__scene__req_8cpp.html" target="_top" xlink:title=" ">
<polygon fill="white" stroke="#666666" points="3254,-228 3149,-228 3149,-198 3254,-198 3254,-228"/>
<text text-anchor="start" x="3157" y="-216" font-family="Helvetica,sans-Serif" font-size="10.00">src/f_op/f_op_scene</text>
<text text-anchor="middle" x="3201.5" y="-205" font-family="Helvetica,sans-Serif" font-size="10.00">_req.cpp</text>
</a>
</g>
</g>
<!-- Node2&#45;&gt;Node178 -->
<g id="edge41" class="edge">
<title>Node2&#45;&gt;Node178</title>
<path fill="none" stroke="#63b8ff" d="M3201.5,-257.78C3201.5,-248.17 3201.5,-236.92 3201.5,-228.23"/>
<polygon fill="#63b8ff" stroke="#63b8ff" points="3198,-257.59 3201.5,-267.59 3205,-257.59 3198,-257.59"/>
</g>
<!-- Node2&#45;&gt;Node179 -->
<g id="edge42" class="edge">
<title>Node2&#45;&gt;Node179</title>
<path fill="none" stroke="#63b8ff" d="M3265.6,-267.21C3272.32,-266.11 3279.05,-265.02 3285.5,-264 3392.03,-247.13 3419.49,-247.89 3525.5,-228 3528.32,-227.47 3531.21,-226.9 3534.12,-226.31"/>
<polygon fill="#63b8ff" stroke="#63b8ff" points="3265.15,-263.73 3255.85,-268.81 3266.28,-270.64 3265.15,-263.73"/>
</g>
<!-- Node180 -->
<g id="node43" class="node">
<title>Node180</title>
<g id="a_node43"><a xlink:href="f__pc__deletor_8cpp.html" target="_top" xlink:title=" ">
<polygon fill="white" stroke="#666666" points="3398.5,-222.5 3272.5,-222.5 3272.5,-203.5 3398.5,-203.5 3398.5,-222.5"/>
<text text-anchor="middle" x="3335.5" y="-210.5" font-family="Helvetica,sans-Serif" font-size="10.00">src/f_pc/f_pc_deletor.cpp</text>
</a>
</g>
</g>
<!-- Node2&#45;&gt;Node180 -->
<g id="edge43" class="edge">
<title>Node2&#45;&gt;Node180</title>
<path fill="none" stroke="#63b8ff" d="M3230.25,-264.27C3256.52,-251.72 3294.6,-233.54 3317.03,-222.82"/>
<polygon fill="#63b8ff" stroke="#63b8ff" points="3229.01,-260.98 3221.5,-268.45 3232.03,-267.3 3229.01,-260.98"/>
</g>
<!-- Node181 -->
<g id="node44" class="node">
<title>Node181</title>
<g id="a_node44"><a xlink:href="f__pc__executor_8cpp.html" target="_top" xlink:title=" ">
<polygon fill="white" stroke="#666666" points="1694.5,-156.5 1560.5,-156.5 1560.5,-137.5 1694.5,-137.5 1694.5,-156.5"/>
<text text-anchor="middle" x="1627.5" y="-144.5" font-family="Helvetica,sans-Serif" font-size="10.00">src/f_pc/f_pc_executor.cpp</text>
</a>
</g>
</g>
<!-- Node2&#45;&gt;Node181 -->
<g id="edge44" class="edge">
<title>Node2&#45;&gt;Node181</title>
<path fill="none" stroke="#63b8ff" d="M3119.63,-274.68C2893.45,-264.86 2241.21,-232.15 1703.5,-162 1693.12,-160.65 1682.01,-158.82 1671.58,-156.93"/>
<polygon fill="#63b8ff" stroke="#63b8ff" points="3119.38,-278.17 3129.52,-275.11 3119.68,-271.18 3119.38,-278.17"/>
</g>
<!-- Node182 -->
<g id="node45" class="node">
<title>Node182</title>
<g id="a_node45"><a xlink:href="f__pc__node__req_8cpp.html" target="_top" xlink:title=" ">
<polygon fill="white" stroke="#666666" points="3516.5,-228 3416.5,-228 3416.5,-198 3516.5,-198 3516.5,-228"/>
<text text-anchor="start" x="3424.5" y="-216" font-family="Helvetica,sans-Serif" font-size="10.00">src/f_pc/f_pc_node</text>
<text text-anchor="middle" x="3466.5" y="-205" font-family="Helvetica,sans-Serif" font-size="10.00">_req.cpp</text>
</a>
</g>
</g>
<!-- Node2&#45;&gt;Node182 -->
<g id="edge45" class="edge">
<title>Node2&#45;&gt;Node182</title>
<path fill="none" stroke="#63b8ff" d="M3249.75,-266.35C3296.85,-254.97 3368.2,-237.74 3416.04,-226.19"/>
<polygon fill="#63b8ff" stroke="#63b8ff" points="3249,-262.93 3240.1,-268.68 3250.64,-269.73 3249,-262.93"/>
</g>
<!-- Node4 -->
<g id="node4" class="node">
<title>Node4</title>
<g id="a_node4"><a xlink:href="f__op__actor__mng_8h.html" target="_top" xlink:title=" ">
<polygon fill="#fff0f0" stroke="red" points="1830.5,-162 1712.5,-162 1712.5,-132 1830.5,-132 1830.5,-162"/>
<text text-anchor="start" x="1720.5" y="-150" font-family="Helvetica,sans-Serif" font-size="10.00">include/f_op/f_op_actor</text>
<text text-anchor="middle" x="1771.5" y="-139" font-family="Helvetica,sans-Serif" font-size="10.00">_mng.h</text>
</a>
</g>
</g>
<!-- Node3&#45;&gt;Node4 -->
<g id="edge3" class="edge">
<title>Node3&#45;&gt;Node4</title>
<path fill="none" stroke="#63b8ff" d="M2849.49,-207.48C2628.23,-195.27 2022.8,-161.86 1830.77,-151.27"/>
<polygon fill="#63b8ff" stroke="#63b8ff" points="2848.99,-210.95 2859.17,-208.01 2849.38,-203.96 2848.99,-210.95"/>
</g>
<!-- Node13 -->
<g id="node6" class="node">
<title>Node13</title>
<g id="a_node6"><a xlink:href="f__op__actor_8cpp.html" target="_top" xlink:title=" ">
<polygon fill="white" stroke="#666666" points="3167,-19 3048,-19 3048,0 3167,0 3167,-19"/>
<text text-anchor="middle" x="3107.5" y="-7" font-family="Helvetica,sans-Serif" font-size="10.00">src/f_op/f_op_actor.cpp</text>
</a>
</g>
</g>
<!-- Node3&#45;&gt;Node13 -->
<g id="edge31" class="edge">
<title>Node3&#45;&gt;Node13</title>
<path fill="none" stroke="#63b8ff" d="M2994.01,-201.08C3070.48,-187.57 3190.29,-165.88 3193.5,-162 3223.81,-125.36 3218.22,-95.63 3193.5,-55 3182.58,-37.05 3161.82,-26.02 3143.43,-19.43"/>
<polygon fill="#63b8ff" stroke="#63b8ff" points="2993.79,-197.56 2984.55,-202.75 2995,-204.46 2993.79,-197.56"/>
</g>
<!-- Node156 -->
<g id="node29" class="node">
<title>Node156</title>
<g id="a_node29"><a xlink:href="f__op__kankyo__mng_8h.html" target="_top" xlink:title=" ">
<polygon fill="#fff0f0" stroke="red" points="3656,-162 3529,-162 3529,-132 3656,-132 3656,-162"/>
<text text-anchor="start" x="3537" y="-150" font-family="Helvetica,sans-Serif" font-size="10.00">include/f_op/f_op_kankyo</text>
<text text-anchor="middle" x="3592.5" y="-139" font-family="Helvetica,sans-Serif" font-size="10.00">_mng.h</text>
</a>
</g>
</g>
<!-- Node3&#45;&gt;Node156 -->
<g id="edge28" class="edge">
<title>Node3&#45;&gt;Node156</title>
<path fill="none" stroke="#63b8ff" d="M2989.16,-201.18C2996.66,-199.99 3004.25,-198.89 3011.5,-198 3236.16,-170.46 3295.07,-191.37 3519.5,-162 3522.57,-161.6 3525.71,-161.15 3528.87,-160.66"/>
<polygon fill="#63b8ff" stroke="#63b8ff" points="2988.7,-197.71 2979.41,-202.8 2989.84,-204.62 2988.7,-197.71"/>
</g>
<!-- Node160 -->
<g id="node30" class="node">
<title>Node160</title>
<g id="a_node30"><a xlink:href="f__op__scene__mng_8h.html" target="_top" xlink:title=" ">
<polygon fill="#fff0f0" stroke="red" points="2511.5,-162 2389.5,-162 2389.5,-132 2511.5,-132 2511.5,-162"/>
<text text-anchor="start" x="2397.5" y="-150" font-family="Helvetica,sans-Serif" font-size="10.00">include/f_op/f_op_scene</text>
<text text-anchor="middle" x="2450.5" y="-139" font-family="Helvetica,sans-Serif" font-size="10.00">_mng.h</text>
</a>
</g>
</g>
<!-- Node3&#45;&gt;Node160 -->
<g id="edge29" class="edge">
<title>Node3&#45;&gt;Node160</title>
<path fill="none" stroke="#63b8ff" d="M2849.32,-203.87C2766.17,-195.2 2634.04,-180.23 2520.5,-162 2517.69,-161.55 2514.81,-161.06 2511.91,-160.56"/>
<polygon fill="#63b8ff" stroke="#63b8ff" points="2848.91,-207.34 2859.22,-204.89 2849.63,-200.38 2848.91,-207.34"/>
</g>
<!-- Node169 -->
<g id="node32" class="node">
<title>Node169</title>
<g id="a_node32"><a xlink:href="f__op__camera_8cpp.html" target="_top" xlink:title=" ">
<polygon fill="white" stroke="#666666" points="3803,-156.5 3674,-156.5 3674,-137.5 3803,-137.5 3803,-156.5"/>
<text text-anchor="middle" x="3738.5" y="-144.5" font-family="Helvetica,sans-Serif" font-size="10.00">src/f_op/f_op_camera.cpp</text>
</a>
</g>
</g>
<!-- Node3&#45;&gt;Node169 -->
<g id="edge32" class="edge">
<title>Node3&#45;&gt;Node169</title>
<path fill="none" stroke="#63b8ff" d="M2988.3,-201.21C2996.08,-199.98 3003.97,-198.86 3011.5,-198 3300.71,-164.85 3376.57,-197.49 3665.5,-162 3675.75,-160.74 3686.72,-158.9 3696.96,-156.97"/>
<polygon fill="#63b8ff" stroke="#63b8ff" points="2987.84,-197.74 2978.55,-202.82 2988.99,-204.64 2987.84,-197.74"/>
</g>
<!-- Node170 -->
<g id="node33" class="node">
<title>Node170</title>
<g id="a_node33"><a xlink:href="f__op__msg_8cpp.html" target="_top" xlink:title=" ">
<polygon fill="white" stroke="#666666" points="2645.5,-156.5 2529.5,-156.5 2529.5,-137.5 2645.5,-137.5 2645.5,-156.5"/>
<text text-anchor="middle" x="2587.5" y="-144.5" font-family="Helvetica,sans-Serif" font-size="10.00">src/f_op/f_op_msg.cpp</text>
</a>
</g>
</g>
<!-- Node3&#45;&gt;Node170 -->
<g id="edge33" class="edge">
<title>Node3&#45;&gt;Node170</title>
<path fill="none" stroke="#63b8ff" d="M2868.14,-201.07C2811.94,-191.26 2727.65,-176.24 2654.5,-162 2646.45,-160.43 2637.87,-158.69 2629.64,-156.99"/>
<polygon fill="#63b8ff" stroke="#63b8ff" points="2867.4,-204.5 2877.86,-202.77 2868.6,-197.6 2867.4,-204.5"/>
</g>
<!-- Node171 -->
<g id="node34" class="node">
<title>Node171</title>
<g id="a_node34"><a xlink:href="f__op__overlap_8cpp.html" target="_top" xlink:title=" ">
<polygon fill="white" stroke="#666666" points="2791.5,-156.5 2663.5,-156.5 2663.5,-137.5 2791.5,-137.5 2791.5,-156.5"/>
<text text-anchor="middle" x="2727.5" y="-144.5" font-family="Helvetica,sans-Serif" font-size="10.00">src/f_op/f_op_overlap.cpp</text>
</a>
</g>
</g>
<!-- Node3&#45;&gt;Node171 -->
<g id="edge34" class="edge">
<title>Node3&#45;&gt;Node171</title>
<path fill="none" stroke="#63b8ff" d="M2892.22,-199.68C2852.3,-187.15 2791.44,-168.06 2755.95,-156.93"/>
<polygon fill="#63b8ff" stroke="#63b8ff" points="2891.1,-202.99 2901.69,-202.65 2893.2,-196.32 2891.1,-202.99"/>
</g>
<!-- Node172 -->
<g id="node35" class="node">
<title>Node172</title>
<g id="a_node35"><a xlink:href="f__op__overlap__req_8cpp.html" target="_top" xlink:title=" ">
<polygon fill="white" stroke="#666666" points="2919.5,-162 2809.5,-162 2809.5,-132 2919.5,-132 2919.5,-162"/>
<text text-anchor="start" x="2817.5" y="-150" font-family="Helvetica,sans-Serif" font-size="10.00">src/f_op/f_op_overlap</text>
<text text-anchor="middle" x="2864.5" y="-139" font-family="Helvetica,sans-Serif" font-size="10.00">_req.cpp</text>
</a>
</g>
</g>
<!-- Node3&#45;&gt;Node172 -->
<g id="edge35" class="edge">
<title>Node3&#45;&gt;Node172</title>
<path fill="none" stroke="#63b8ff" d="M2914.03,-195.31C2903.36,-185.12 2889.87,-172.23 2879.66,-162.48"/>
<polygon fill="#63b8ff" stroke="#63b8ff" points="2911.44,-197.68 2921.09,-202.06 2916.28,-192.62 2911.44,-197.68"/>
</g>
<!-- Node173 -->
<g id="node36" class="node">
<title>Node173</title>
<g id="a_node36"><a xlink:href="f__op__scene_8cpp.html" target="_top" xlink:title=" ">
<polygon fill="white" stroke="#666666" points="3061,-156.5 2938,-156.5 2938,-137.5 3061,-137.5 3061,-156.5"/>
<text text-anchor="middle" x="2999.5" y="-144.5" font-family="Helvetica,sans-Serif" font-size="10.00">src/f_op/f_op_scene.cpp</text>
</a>
</g>
</g>
<!-- Node3&#45;&gt;Node173 -->
<g id="edge36" class="edge">
<title>Node3&#45;&gt;Node173</title>
<path fill="none" stroke="#63b8ff" d="M2949.21,-195.33C2962.3,-183.02 2979.6,-166.73 2990.13,-156.82"/>
<polygon fill="#63b8ff" stroke="#63b8ff" points="2946.94,-192.66 2942.06,-202.06 2951.74,-197.76 2946.94,-192.66"/>
</g>
<!-- Node174 -->
<g id="node37" class="node">
<title>Node174</title>
<g id="a_node37"><a xlink:href="f__op__scene__pause_8cpp.html" target="_top" xlink:title=" ">
<polygon fill="white" stroke="#666666" points="3184,-162 3079,-162 3079,-132 3184,-132 3184,-162"/>
<text text-anchor="start" x="3087" y="-150" font-family="Helvetica,sans-Serif" font-size="10.00">src/f_op/f_op_scene</text>
<text text-anchor="middle" x="3131.5" y="-139" font-family="Helvetica,sans-Serif" font-size="10.00">_pause.cpp</text>
</a>
</g>
</g>
<!-- Node3&#45;&gt;Node174 -->
<g id="edge37" class="edge">
<title>Node3&#45;&gt;Node174</title>
<path fill="none" stroke="#63b8ff" d="M2969.96,-199.69C3003.18,-189.06 3051.21,-173.69 3086.26,-162.48"/>
<polygon fill="#63b8ff" stroke="#63b8ff" points="2969.21,-196.26 2960.75,-202.64 2971.34,-202.93 2969.21,-196.26"/>
</g>
<!-- Node175 -->
<g id="node38" class="node">
<title>Node175</title>
<g id="a_node38"><a xlink:href="f__op__view_8cpp.html" target="_top" xlink:title=" ">
<polygon fill="white" stroke="#666666" points="3358,-156.5 3241,-156.5 3241,-137.5 3358,-137.5 3358,-156.5"/>
<text text-anchor="middle" x="3299.5" y="-144.5" font-family="Helvetica,sans-Serif" font-size="10.00">src/f_op/f_op_view.cpp</text>
</a>
</g>
</g>
<!-- Node3&#45;&gt;Node175 -->
<g id="edge38" class="edge">
<title>Node3&#45;&gt;Node175</title>
<path fill="none" stroke="#63b8ff" d="M2993.29,-201.14C2999.44,-200.07 3005.59,-199.01 3011.5,-198 3107,-181.65 3131.14,-179.13 3226.5,-162 3235.26,-160.43 3244.61,-158.68 3253.58,-156.98"/>
<polygon fill="#63b8ff" stroke="#63b8ff" points="2993.02,-197.63 2983.77,-202.8 2994.22,-204.53 2993.02,-197.63"/>
</g>
<!-- Node176 -->
<g id="node39" class="node">
<title>Node176</title>
<g id="a_node39"><a xlink:href="f__pc__manager_8cpp.html" target="_top" xlink:title=" ">
<polygon fill="white" stroke="#666666" points="3510.5,-156.5 3376.5,-156.5 3376.5,-137.5 3510.5,-137.5 3510.5,-156.5"/>
<text text-anchor="middle" x="3443.5" y="-144.5" font-family="Helvetica,sans-Serif" font-size="10.00">src/f_pc/f_pc_manager.cpp</text>
</a>
</g>
</g>
<!-- Node3&#45;&gt;Node176 -->
<g id="edge39" class="edge">
<title>Node3&#45;&gt;Node176</title>
<path fill="none" stroke="#63b8ff" d="M2990.56,-201.17C2997.61,-200.02 3004.71,-198.94 3011.5,-198 3169.04,-176.28 3210.06,-184.42 3367.5,-162 3377.46,-160.58 3388.11,-158.79 3398.19,-156.97"/>
<polygon fill="#63b8ff" stroke="#63b8ff" points="2989.99,-197.71 2980.71,-202.82 2991.15,-204.62 2989.99,-197.71"/>
</g>
<!-- Node5 -->
<g id="node5" class="node">
<title>Node5</title>
<g id="a_node5"><a xlink:href="d__a__alink_8h.html" target="_top" xlink:title=" ">
<polygon fill="#fff0f0" stroke="red" points="3060.5,-85 2944.5,-85 2944.5,-66 3060.5,-66 3060.5,-85"/>
<text text-anchor="middle" x="3002.5" y="-73" font-family="Helvetica,sans-Serif" font-size="10.00">include/d/a/d_a_alink.h</text>
</a>
</g>
</g>
<!-- Node4&#45;&gt;Node5 -->
<g id="edge4" class="edge">
<title>Node4&#45;&gt;Node5</title>
<path fill="none" stroke="#63b8ff" d="M1842.47,-142.48C1901.8,-139.57 1988.66,-135.38 2064.5,-132 2451.56,-114.75 2553.15,-158.59 2935.5,-96 2949.49,-93.71 2964.68,-89.44 2977.06,-85.48"/>
<polygon fill="#63b8ff" stroke="#63b8ff" points="1842.31,-138.98 1832.49,-142.97 1842.65,-145.98 1842.31,-138.98"/>
</g>
<!-- Node14 -->
<g id="node7" class="node">
<title>Node14</title>
<g id="a_node7"><a xlink:href="d__a__obj__item_8h.html" target="_top" xlink:title=" ">
<polygon fill="#fff0f0" stroke="red" points="2139,-90.5 2038,-90.5 2038,-60.5 2139,-60.5 2139,-90.5"/>
<text text-anchor="start" x="2046" y="-78.5" font-family="Helvetica,sans-Serif" font-size="10.00">include/d/a/d_a_obj</text>
<text text-anchor="middle" x="2088.5" y="-67.5" font-family="Helvetica,sans-Serif" font-size="10.00">_item.h</text>
</a>
</g>
</g>
<!-- Node4&#45;&gt;Node14 -->
<g id="edge6" class="edge">
<title>Node4&#45;&gt;Node14</title>
<path fill="none" stroke="#63b8ff" d="M1842,-134.67C1893.93,-125.75 1966.08,-112.15 2028.5,-96 2034.23,-94.52 2040.21,-92.79 2046.08,-91"/>
<polygon fill="#63b8ff" stroke="#63b8ff" points="1841.67,-131.18 1832.4,-136.31 1842.84,-138.08 1841.67,-131.18"/>
</g>
<!-- Node16 -->
<g id="node8" class="node">
<title>Node16</title>
<g id="a_node8"><a xlink:href="d__bomb_8h.html" target="_top" xlink:title=" ">
<polygon fill="#fff0f0" stroke="red" points="2258,-85 2157,-85 2157,-66 2258,-66 2258,-85"/>
<text text-anchor="middle" x="2207.5" y="-73" font-family="Helvetica,sans-Serif" font-size="10.00">include/d/d_bomb.h</text>
</a>
</g>
</g>
<!-- Node4&#45;&gt;Node16 -->
<g id="edge7" class="edge">
<title>Node4&#45;&gt;Node16</title>
<path fill="none" stroke="#63b8ff" d="M1842.03,-140.48C1918.1,-133.64 2042.44,-119.85 2147.5,-96 2159.46,-93.28 2172.44,-89.21 2183.26,-85.49"/>
<polygon fill="#63b8ff" stroke="#63b8ff" points="1841.86,-136.98 1832.21,-141.35 1842.48,-143.96 1841.86,-136.98"/>
</g>
<!-- Node19 -->
<g id="node9" class="node">
<title>Node19</title>
<g id="a_node9"><a xlink:href="d__a__andsw_8h.html" target="_top" xlink:title=" ">
<polygon fill="white" stroke="#666666" points="2386.5,-90.5 2276.5,-90.5 2276.5,-60.5 2386.5,-60.5 2386.5,-90.5"/>
<text text-anchor="start" x="2284.5" y="-78.5" font-family="Helvetica,sans-Serif" font-size="10.00">include/rel/d/a/d_a</text>
<text text-anchor="middle" x="2331.5" y="-67.5" font-family="Helvetica,sans-Serif" font-size="10.00">_andsw/d_a_andsw.h</text>
</a>
</g>
</g>
<!-- Node4&#45;&gt;Node19 -->
<g id="edge8" class="edge">
<title>Node4&#45;&gt;Node19</title>
<path fill="none" stroke="#63b8ff" d="M1842.08,-143.11C1938.67,-138.19 2117.11,-125.67 2266.5,-96 2273.32,-94.65 2280.45,-92.88 2287.38,-90.96"/>
<polygon fill="#63b8ff" stroke="#63b8ff" points="1842.04,-139.61 1832.22,-143.6 1842.38,-146.6 1842.04,-139.61"/>
</g>
<!-- Node20 -->
<g id="node10" class="node">
<title>Node20</title>
<g id="a_node10"><a xlink:href="d__a__arrow_8h.html" target="_top" xlink:title=" ">
<polygon fill="white" stroke="#666666" points="2506,-90.5 2405,-90.5 2405,-60.5 2506,-60.5 2506,-90.5"/>
<text text-anchor="start" x="2413" y="-78.5" font-family="Helvetica,sans-Serif" font-size="10.00">include/rel/d/a/d_a</text>
<text text-anchor="middle" x="2455.5" y="-67.5" font-family="Helvetica,sans-Serif" font-size="10.00">_arrow/d_a_arrow.h</text>
</a>
</g>
</g>
<!-- Node4&#45;&gt;Node20 -->
<g id="edge9" class="edge">
<title>Node4&#45;&gt;Node20</title>
<path fill="none" stroke="#63b8ff" d="M1842.38,-142.41C1982.72,-134.97 2291.38,-116.79 2395.5,-96 2402.05,-94.69 2408.89,-92.9 2415.5,-90.93"/>
<polygon fill="#63b8ff" stroke="#63b8ff" points="1842.26,-138.92 1832.46,-142.94 1842.63,-145.91 1842.26,-138.92"/>
</g>
<!-- Node21 -->
<g id="node11" class="node">
<title>Node21</title>
<g id="a_node11"><a xlink:href="d__a__bg__obj_8h.html" target="_top" xlink:title=" ">
<polygon fill="white" stroke="#666666" points="2634.5,-90.5 2524.5,-90.5 2524.5,-60.5 2634.5,-60.5 2634.5,-90.5"/>
<text text-anchor="start" x="2532.5" y="-78.5" font-family="Helvetica,sans-Serif" font-size="10.00">include/rel/d/a/d_a</text>
<text text-anchor="middle" x="2579.5" y="-67.5" font-family="Helvetica,sans-Serif" font-size="10.00">_bg_obj/d_a_bg_obj.h</text>
</a>
</g>
</g>
<!-- Node4&#45;&gt;Node21 -->
<g id="edge10" class="edge">
<title>Node4&#45;&gt;Node21</title>
<path fill="none" stroke="#63b8ff" d="M1842.21,-142.15C2015.03,-132.6 2449.52,-107.78 2514.5,-96 2521.57,-94.72 2528.96,-92.94 2536.12,-90.97"/>
<polygon fill="#63b8ff" stroke="#63b8ff" points="1842.02,-138.65 1832.23,-142.7 1842.4,-145.64 1842.02,-138.65"/>
</g>
<!-- Node22 -->
<g id="node12" class="node">
<title>Node22</title>
<g id="a_node12"><a xlink:href="d__a__boomerang_8h.html" target="_top" xlink:title=" ">
<polygon fill="#fff0f0" stroke="red" points="2802,-90.5 2653,-90.5 2653,-60.5 2802,-60.5 2802,-90.5"/>
<text text-anchor="start" x="2661" y="-78.5" font-family="Helvetica,sans-Serif" font-size="10.00">include/rel/d/a/d_a</text>
<text text-anchor="middle" x="2727.5" y="-67.5" font-family="Helvetica,sans-Serif" font-size="10.00">_boomerang/d_a_boomerang.h</text>
</a>
</g>
</g>
<!-- Node4&#45;&gt;Node22 -->
<g id="edge11" class="edge">
<title>Node4&#45;&gt;Node22</title>
<path fill="none" stroke="#63b8ff" d="M1842.37,-142.63C2036.09,-133.34 2565.27,-107.24 2643.5,-96 2652.54,-94.7 2662.04,-92.91 2671.27,-90.95"/>
<polygon fill="#63b8ff" stroke="#63b8ff" points="1842.25,-139.14 1832.43,-143.11 1842.59,-146.13 1842.25,-139.14"/>
</g>
<!-- Node23 -->
<g id="node13" class="node">
<title>Node23</title>
<g id="a_node13"><a xlink:href="d__a__canoe_8h.html" target="_top" xlink:title=" ">
<polygon fill="white" stroke="#666666" points="2926.5,-90.5 2820.5,-90.5 2820.5,-60.5 2926.5,-60.5 2926.5,-90.5"/>
<text text-anchor="start" x="2828.5" y="-78.5" font-family="Helvetica,sans-Serif" font-size="10.00">include/rel/d/a/d_a</text>
<text text-anchor="middle" x="2873.5" y="-67.5" font-family="Helvetica,sans-Serif" font-size="10.00">_canoe/d_a_canoe.h</text>
</a>
</g>
</g>
<!-- Node4&#45;&gt;Node23 -->
<g id="edge12" class="edge">
<title>Node4&#45;&gt;Node23</title>
<path fill="none" stroke="#63b8ff" d="M1842.41,-142.6C2076.37,-131.39 2809.01,-96.26 2810.5,-96 2817.6,-94.75 2825.03,-92.93 2832.18,-90.91"/>
<polygon fill="#63b8ff" stroke="#63b8ff" points="1842.33,-139.1 1832.51,-143.08 1842.66,-146.09 1842.33,-139.1"/>
</g>
<!-- Node24 -->
<g id="node14" class="node">
<title>Node24</title>
<g id="a_node14"><a xlink:href="d__a__crod_8h.html" target="_top" xlink:title=" ">
<polygon fill="#fff0f0" stroke="red" points="279.5,-90.5 183.5,-90.5 183.5,-60.5 279.5,-60.5 279.5,-90.5"/>
<text text-anchor="start" x="191.5" y="-78.5" font-family="Helvetica,sans-Serif" font-size="10.00">include/rel/d/a/d_a</text>
<text text-anchor="middle" x="231.5" y="-67.5" font-family="Helvetica,sans-Serif" font-size="10.00">_crod/d_a_crod.h</text>
</a>
</g>
</g>
<!-- Node4&#45;&gt;Node24 -->
<g id="edge13" class="edge">
<title>Node4&#45;&gt;Node24</title>
<path fill="none" stroke="#63b8ff" d="M1701.26,-131.95C1373.26,-97.37 594.63,-150.92 288.5,-96 281.91,-94.82 275.05,-93.01 268.48,-90.96"/>
<polygon fill="#63b8ff" stroke="#63b8ff" points="1700.43,-135.38 1710.76,-132.99 1701.2,-128.42 1700.43,-135.38"/>
</g>
<!-- Node25 -->
<g id="node15" class="node">
<title>Node25</title>
<g id="a_node15"><a xlink:href="d__a__disappear_8h.html" target="_top" xlink:title=" ">
<polygon fill="white" stroke="#666666" points="435,-90.5 298,-90.5 298,-60.5 435,-60.5 435,-90.5"/>
<text text-anchor="start" x="306" y="-78.5" font-family="Helvetica,sans-Serif" font-size="10.00">include/rel/d/a/d_a</text>
<text text-anchor="middle" x="366.5" y="-67.5" font-family="Helvetica,sans-Serif" font-size="10.00">_disappear/d_a_disappear.h</text>
</a>
</g>
</g>
<!-- Node4&#45;&gt;Node25 -->
<g id="edge14" class="edge">
<title>Node4&#45;&gt;Node25</title>
<path fill="none" stroke="#63b8ff" d="M1701.15,-131.89C1145.49,-68.69 995.4,-171.83 444.5,-96 435.79,-94.8 426.64,-93.01 417.8,-90.99"/>
<polygon fill="#63b8ff" stroke="#63b8ff" points="1700.42,-135.33 1710.76,-133 1701.22,-128.38 1700.42,-135.33"/>
</g>
<!-- Node26 -->
<g id="node16" class="node">
<title>Node26</title>
<g id="a_node16"><a xlink:href="d__a__dshutter_8h.html" target="_top" xlink:title=" ">
<polygon fill="white" stroke="#666666" points="577.5,-90.5 453.5,-90.5 453.5,-60.5 577.5,-60.5 577.5,-90.5"/>
<text text-anchor="start" x="461.5" y="-78.5" font-family="Helvetica,sans-Serif" font-size="10.00">include/rel/d/a/d_a</text>
<text text-anchor="middle" x="515.5" y="-67.5" font-family="Helvetica,sans-Serif" font-size="10.00">_dshutter/d_a_dshutter.h</text>
</a>
</g>
</g>
<!-- Node4&#45;&gt;Node26 -->
<g id="edge15" class="edge">
<title>Node4&#45;&gt;Node26</title>
<path fill="none" stroke="#63b8ff" d="M1700.92,-131.86C1208.2,-75.16 1073.9,-169.73 586.5,-96 578.54,-94.8 570.19,-93 562.14,-90.98"/>
<polygon fill="#63b8ff" stroke="#63b8ff" points="1700.42,-135.32 1710.76,-133.01 1701.23,-128.37 1700.42,-135.32"/>
</g>
<!-- Node27 -->
<g id="node17" class="node">
<title>Node27</title>
<g id="a_node17"><a xlink:href="d__a__econt_8h.html" target="_top" xlink:title=" ">
<polygon fill="white" stroke="#666666" points="697,-90.5 596,-90.5 596,-60.5 697,-60.5 697,-90.5"/>
<text text-anchor="start" x="604" y="-78.5" font-family="Helvetica,sans-Serif" font-size="10.00">include/rel/d/a/d_a</text>
<text text-anchor="middle" x="646.5" y="-67.5" font-family="Helvetica,sans-Serif" font-size="10.00">_econt/d_a_econt.h</text>
</a>
</g>
</g>
<!-- Node4&#45;&gt;Node27 -->
<g id="edge16" class="edge">
<title>Node4&#45;&gt;Node27</title>
<path fill="none" stroke="#63b8ff" d="M1701.14,-131.88C1261.25,-80.66 1139.49,-172.63 706.5,-96 699.71,-94.8 692.62,-93.01 685.8,-90.99"/>
<polygon fill="#63b8ff" stroke="#63b8ff" points="1700.41,-135.32 1710.75,-133.02 1701.24,-128.37 1700.41,-135.32"/>
</g>
<!-- Node28 -->
<g id="node18" class="node">
<title>Node28</title>
<g id="a_node18"><a xlink:href="d__a__hitobj_8h.html" target="_top" xlink:title=" ">
<polygon fill="white" stroke="#666666" points="815.5,-90.5 715.5,-90.5 715.5,-60.5 815.5,-60.5 815.5,-90.5"/>
<text text-anchor="start" x="723.5" y="-78.5" font-family="Helvetica,sans-Serif" font-size="10.00">include/rel/d/a/d_a</text>
<text text-anchor="middle" x="765.5" y="-67.5" font-family="Helvetica,sans-Serif" font-size="10.00">_hitobj/d_a_hitobj.h</text>
</a>
</g>
</g>
<!-- Node4&#45;&gt;Node28 -->
<g id="edge17" class="edge">
<title>Node4&#45;&gt;Node28</title>
<path fill="none" stroke="#63b8ff" d="M1701,-131.85C1313.36,-85.96 1205.51,-165.36 824.5,-96 817.81,-94.78 810.84,-92.98 804.14,-90.96"/>
<polygon fill="#63b8ff" stroke="#63b8ff" points="1700.41,-135.31 1710.75,-133.03 1701.24,-128.36 1700.41,-135.31"/>
</g>
<!-- Node29 -->
<g id="node19" class="node">
<title>Node29</title>
<g id="a_node19"><a xlink:href="d__a__izumi__gate_8h.html" target="_top" xlink:title=" ">
<polygon fill="white" stroke="#666666" points="949,-96 834,-96 834,-55 949,-55 949,-96"/>
<text text-anchor="start" x="842" y="-84" font-family="Helvetica,sans-Serif" font-size="10.00">include/rel/d/a/d_a</text>
<text text-anchor="start" x="842" y="-73" font-family="Helvetica,sans-Serif" font-size="10.00">_izumi_gate/d_a_izumi</text>
<text text-anchor="middle" x="891.5" y="-62" font-family="Helvetica,sans-Serif" font-size="10.00">_gate.h</text>
</a>
</g>
</g>
<!-- Node4&#45;&gt;Node29 -->
<g id="edge18" class="edge">
<title>Node4&#45;&gt;Node29</title>
<path fill="none" stroke="#63b8ff" d="M1700.96,-131.84C1372.14,-91.76 1281.11,-150.8 957.5,-96 954.79,-95.54 952.04,-95.01 949.26,-94.42"/>
<polygon fill="#63b8ff" stroke="#63b8ff" points="1700.39,-135.29 1710.75,-133.05 1701.26,-128.35 1700.39,-135.29"/>
</g>
<!-- Node30 -->
<g id="node20" class="node">
<title>Node30</title>
<g id="a_node20"><a xlink:href="d__a__mirror_8h.html" target="_top" xlink:title=" ">
<polygon fill="#fff0f0" stroke="red" points="1070,-90.5 967,-90.5 967,-60.5 1070,-60.5 1070,-90.5"/>
<text text-anchor="start" x="975" y="-78.5" font-family="Helvetica,sans-Serif" font-size="10.00">include/rel/d/a/d_a</text>
<text text-anchor="middle" x="1018.5" y="-67.5" font-family="Helvetica,sans-Serif" font-size="10.00">_mirror/d_a_mirror.h</text>
</a>
</g>
</g>
<!-- Node4&#45;&gt;Node30 -->
<g id="edge19" class="edge">
<title>Node4&#45;&gt;Node30</title>
<path fill="none" stroke="#63b8ff" d="M1701.1,-131.84C1425.59,-97.19 1348.34,-146.74 1078.5,-96 1071.83,-94.74 1064.87,-92.95 1058.15,-90.96"/>
<polygon fill="#63b8ff" stroke="#63b8ff" points="1700.38,-135.27 1710.75,-133.08 1701.27,-128.33 1700.38,-135.27"/>
</g>
<!-- Node32 -->
<g id="node21" class="node">
<title>Node32</title>
<g id="a_node21"><a xlink:href="d__a__scene__exit_8h.html" target="_top" xlink:title=" ">
<polygon fill="#fff0f0" stroke="red" points="1207,-96 1088,-96 1088,-55 1207,-55 1207,-96"/>
<text text-anchor="start" x="1096" y="-84" font-family="Helvetica,sans-Serif" font-size="10.00">include/rel/d/a/d_a</text>
<text text-anchor="start" x="1096" y="-73" font-family="Helvetica,sans-Serif" font-size="10.00">_scene_exit/d_a_scene</text>
<text text-anchor="middle" x="1147.5" y="-62" font-family="Helvetica,sans-Serif" font-size="10.00">_exit.h</text>
</a>
</g>
</g>
<!-- Node4&#45;&gt;Node32 -->
<g id="edge20" class="edge">
<title>Node4&#45;&gt;Node32</title>
<path fill="none" stroke="#63b8ff" d="M1700.91,-131.78C1486.5,-103.12 1426.58,-133.06 1216.5,-96 1213.44,-95.46 1210.31,-94.84 1207.17,-94.16"/>
<polygon fill="#63b8ff" stroke="#63b8ff" points="1700.36,-135.24 1710.74,-133.12 1701.31,-128.3 1700.36,-135.24"/>
</g>
<!-- Node33 -->
<g id="node22" class="node">
<title>Node33</title>
<g id="a_node22"><a xlink:href="d__a__scene__exit2_8h.html" target="_top" xlink:title=" ">
<polygon fill="white" stroke="#666666" points="1349.5,-96 1225.5,-96 1225.5,-55 1349.5,-55 1349.5,-96"/>
<text text-anchor="start" x="1233.5" y="-84" font-family="Helvetica,sans-Serif" font-size="10.00">include/rel/d/a/d_a</text>
<text text-anchor="start" x="1233.5" y="-73" font-family="Helvetica,sans-Serif" font-size="10.00">_scene_exit2/d_a_scene</text>
<text text-anchor="middle" x="1287.5" y="-62" font-family="Helvetica,sans-Serif" font-size="10.00">_exit2.h</text>
</a>
</g>
</g>
<!-- Node4&#45;&gt;Node33 -->
<g id="edge21" class="edge">
<title>Node4&#45;&gt;Node33</title>
<path fill="none" stroke="#63b8ff" d="M1701.09,-131.74C1549.16,-109.16 1506.46,-123.84 1358.5,-96 1355.61,-95.46 1352.67,-94.85 1349.7,-94.2"/>
<polygon fill="#63b8ff" stroke="#63b8ff" points="1700.32,-135.17 1710.73,-133.21 1701.37,-128.25 1700.32,-135.17"/>
</g>
<!-- Node34 -->
<g id="node23" class="node">
<title>Node34</title>
<g id="a_node23"><a xlink:href="d__a__spinner_8h.html" target="_top" xlink:title=" ">
<polygon fill="#fff0f0" stroke="red" points="1483.5,-90.5 1367.5,-90.5 1367.5,-60.5 1483.5,-60.5 1483.5,-90.5"/>
<text text-anchor="start" x="1375.5" y="-78.5" font-family="Helvetica,sans-Serif" font-size="10.00">include/rel/d/a/d_a</text>
<text text-anchor="middle" x="1425.5" y="-67.5" font-family="Helvetica,sans-Serif" font-size="10.00">_spinner/d_a_spinner.h</text>
</a>
</g>
</g>
<!-- Node4&#45;&gt;Node34 -->
<g id="edge22" class="edge">
<title>Node4&#45;&gt;Node34</title>
<path fill="none" stroke="#63b8ff" d="M1701.12,-131.61C1608.07,-114.59 1581.77,-116.54 1492.5,-96 1486.01,-94.51 1479.21,-92.75 1472.54,-90.92"/>
<polygon fill="#63b8ff" stroke="#63b8ff" points="1700.23,-135 1710.7,-133.39 1701.5,-128.12 1700.23,-135"/>
</g>
<!-- Node36 -->
<g id="node24" class="node">
<title>Node36</title>
<g id="a_node24"><a xlink:href="d__a__suspend_8h.html" target="_top" xlink:title=" ">
<polygon fill="#fff0f0" stroke="red" points="1629,-90.5 1502,-90.5 1502,-60.5 1629,-60.5 1629,-90.5"/>
<text text-anchor="start" x="1510" y="-78.5" font-family="Helvetica,sans-Serif" font-size="10.00">include/rel/d/a/d_a</text>
<text text-anchor="middle" x="1565.5" y="-67.5" font-family="Helvetica,sans-Serif" font-size="10.00">_suspend/d_a_suspend.h</text>
</a>
</g>
</g>
<!-- Node4&#45;&gt;Node36 -->
<g id="edge23" class="edge">
<title>Node4&#45;&gt;Node36</title>
<path fill="none" stroke="#63b8ff" d="M1717.85,-127.9C1683.74,-116.39 1640.18,-101.69 1608.38,-90.97"/>
<polygon fill="#63b8ff" stroke="#63b8ff" points="1716.54,-131.15 1727.13,-131.03 1718.78,-124.52 1716.54,-131.15"/>
</g>
<!-- Node39 -->
<g id="node25" class="node">
<title>Node39</title>
<g id="a_node25"><a xlink:href="d__a__swTime_8h.html" target="_top" xlink:title=" ">
<polygon fill="white" stroke="#666666" points="1769.5,-90.5 1647.5,-90.5 1647.5,-60.5 1769.5,-60.5 1769.5,-90.5"/>
<text text-anchor="start" x="1655.5" y="-78.5" font-family="Helvetica,sans-Serif" font-size="10.00">include/rel/d/a/d_a</text>
<text text-anchor="middle" x="1708.5" y="-67.5" font-family="Helvetica,sans-Serif" font-size="10.00">_swTime/d_a_swTime.h</text>
</a>
</g>
</g>
<!-- Node4&#45;&gt;Node39 -->
<g id="edge24" class="edge">
<title>Node4&#45;&gt;Node39</title>
<path fill="none" stroke="#63b8ff" d="M1750.8,-123.17C1741.16,-112.53 1729.98,-100.2 1721.54,-90.88"/>
<polygon fill="#63b8ff" stroke="#63b8ff" points="1748.12,-125.42 1757.43,-130.48 1753.31,-120.72 1748.12,-125.42"/>
</g>
<!-- Node40 -->
<g id="node26" class="node">
<title>Node40</title>
<g id="a_node26"><a xlink:href="d__a__talk_8h.html" target="_top" xlink:title=" ">
<polygon fill="white" stroke="#666666" points="1883.5,-90.5 1787.5,-90.5 1787.5,-60.5 1883.5,-60.5 1883.5,-90.5"/>
<text text-anchor="start" x="1795.5" y="-78.5" font-family="Helvetica,sans-Serif" font-size="10.00">include/rel/d/a/d_a</text>
<text text-anchor="middle" x="1835.5" y="-67.5" font-family="Helvetica,sans-Serif" font-size="10.00">_talk/d_a_talk.h</text>
</a>
</g>
</g>
<!-- Node4&#45;&gt;Node40 -->
<g id="edge25" class="edge">
<title>Node4&#45;&gt;Node40</title>
<path fill="none" stroke="#63b8ff" d="M1792.53,-123.17C1802.32,-112.53 1813.68,-100.2 1822.26,-90.88"/>
<polygon fill="#63b8ff" stroke="#63b8ff" points="1789.99,-120.76 1785.79,-130.49 1795.13,-125.5 1789.99,-120.76"/>
</g>
<!-- Node41 -->
<g id="node27" class="node">
<title>Node41</title>
<g id="a_node27"><a xlink:href="d__a__tboxSw_8h.html" target="_top" xlink:title=" ">
<polygon fill="white" stroke="#666666" points="2019.5,-90.5 1901.5,-90.5 1901.5,-60.5 2019.5,-60.5 2019.5,-90.5"/>
<text text-anchor="start" x="1909.5" y="-78.5" font-family="Helvetica,sans-Serif" font-size="10.00">include/rel/d/a/d_a</text>
<text text-anchor="middle" x="1960.5" y="-67.5" font-family="Helvetica,sans-Serif" font-size="10.00">_tboxSw/d_a_tboxSw.h</text>
</a>
</g>
</g>
<!-- Node4&#45;&gt;Node41 -->
<g id="edge26" class="edge">
<title>Node4&#45;&gt;Node41</title>
<path fill="none" stroke="#63b8ff" d="M1821.34,-127.67C1852.62,-116.17 1892.39,-101.55 1921.39,-90.88"/>
<polygon fill="#63b8ff" stroke="#63b8ff" points="1820.26,-124.34 1812.08,-131.08 1822.67,-130.91 1820.26,-124.34"/>
</g>
<!-- Node139 -->
<g id="node28" class="node">
<title>Node139</title>
<g id="a_node28"><a xlink:href="d__cc__d__nonmatching_8cpp.html" target="_top" xlink:title=" ">
<polygon fill="white" stroke="#666666" points="165,-85 0,-85 0,-66 165,-66 165,-85"/>
<text text-anchor="middle" x="82.5" y="-73" font-family="Helvetica,sans-Serif" font-size="10.00">src/d/cc/d_cc_d_nonmatching.cpp</text>
</a>
</g>
</g>
<!-- Node4&#45;&gt;Node139 -->
<g id="edge27" class="edge">
<title>Node4&#45;&gt;Node139</title>
<path fill="none" stroke="#63b8ff" d="M1701.28,-131.91C1026.18,-56.43 846.03,-174.39 174.5,-96 155.36,-93.77 134.32,-89.45 117.2,-85.44"/>
<polygon fill="#63b8ff" stroke="#63b8ff" points="1700.43,-135.34 1710.76,-132.98 1701.21,-128.38 1700.43,-135.34"/>
</g>
<!-- Node5&#45;&gt;Node13 -->
<g id="edge5" class="edge">
<title>Node5&#45;&gt;Node13</title>
<path fill="none" stroke="#63b8ff" d="M3026.69,-59.75C3047.2,-47.26 3075.92,-29.75 3093.02,-19.32"/>
<polygon fill="#63b8ff" stroke="#63b8ff" points="3025.11,-56.62 3018.39,-64.81 3028.75,-62.6 3025.11,-56.62"/>
</g>
<!-- Node168 -->
<g id="node31" class="node">
<title>Node168</title>
<g id="a_node31"><a xlink:href="f__op__scene__mng_8cpp.html" target="_top" xlink:title=" ">
<polygon fill="white" stroke="#666666" points="3184,-90.5 3079,-90.5 3079,-60.5 3184,-60.5 3184,-90.5"/>
<text text-anchor="start" x="3087" y="-78.5" font-family="Helvetica,sans-Serif" font-size="10.00">src/f_op/f_op_scene</text>
<text text-anchor="middle" x="3131.5" y="-67.5" font-family="Helvetica,sans-Serif" font-size="10.00">_mng.cpp</text>
</a>
</g>
</g>
<!-- Node160&#45;&gt;Node168 -->
<g id="edge30" class="edge">
<title>Node160&#45;&gt;Node168</title>
<path fill="none" stroke="#63b8ff" d="M2523.16,-131.79C2764.96,-101.18 2832.79,-140.32 3069.5,-96 3076.38,-94.71 3083.56,-92.9 3090.5,-90.9"/>
<polygon fill="#63b8ff" stroke="#63b8ff" points="2522.85,-128.3 2513.38,-133.05 2523.75,-135.24 2522.85,-128.3"/>
</g>
<!-- Node183&#45;&gt;Node4 -->
<g id="edge47" class="edge">
<title>Node183&#45;&gt;Node4</title>
<path fill="none" stroke="#63b8ff" d="M1717.93,-195.62C1729.44,-185.38 1744.13,-172.33 1755.21,-162.48"/>
<polygon fill="#63b8ff" stroke="#63b8ff" points="1715.79,-192.84 1710.64,-202.1 1720.44,-198.07 1715.79,-192.84"/>
</g>
<!-- Node183&#45;&gt;Node139 -->
<g id="edge48" class="edge">
<title>Node183&#45;&gt;Node139</title>
<path fill="none" stroke="#63b8ff" d="M1617.61,-209.6C1388.54,-202.06 722.14,-174.51 174.5,-96 156.08,-93.36 135.82,-89.2 119.01,-85.41"/>
<polygon fill="#63b8ff" stroke="#63b8ff" points="1617.21,-213.09 1627.32,-209.92 1617.44,-206.09 1617.21,-213.09"/>
</g>
<!-- Node183&#45;&gt;Node168 -->
<g id="edge49" class="edge">
<title>Node183&#45;&gt;Node168</title>
<path fill="none" stroke="#63b8ff" d="M1775.03,-201.51C1900.5,-184.44 2159.94,-150.7 2380.5,-132 2686.04,-106.1 2767.73,-150.43 3069.5,-96 3076.38,-94.76 3083.57,-92.97 3090.51,-90.98"/>
<polygon fill="#63b8ff" stroke="#63b8ff" points="1774.61,-198.03 1765.17,-202.85 1775.56,-204.97 1774.61,-198.03"/>
</g>
<!-- Node183&#45;&gt;Node181 -->
<g id="edge50" class="edge">
<title>Node183&#45;&gt;Node181</title>
<path fill="none" stroke="#63b8ff" d="M1681.15,-195.69C1667.25,-183.33 1648.67,-166.82 1637.43,-156.82"/>
<polygon fill="#63b8ff" stroke="#63b8ff" points="1678.56,-198.07 1688.36,-202.1 1683.21,-192.84 1678.56,-198.07"/>
</g>
<!-- Node184 -->
<g id="node47" class="node">
<title>Node184</title>
<g id="a_node47"><a xlink:href="f__pc__searcher_8cpp.html" target="_top" xlink:title=" ">
<polygon fill="white" stroke="#666666" points="1542.5,-156.5 1408.5,-156.5 1408.5,-137.5 1542.5,-137.5 1542.5,-156.5"/>
<text text-anchor="middle" x="1475.5" y="-144.5" font-family="Helvetica,sans-Serif" font-size="10.00">src/f_pc/f_pc_searcher.cpp</text>
</a>
</g>
</g>
<!-- Node183&#45;&gt;Node184 -->
<g id="edge51" class="edge">
<title>Node183&#45;&gt;Node184</title>
<path fill="none" stroke="#63b8ff" d="M1657.49,-200C1613.69,-187.48 1546.05,-168.16 1506.74,-156.93"/>
<polygon fill="#63b8ff" stroke="#63b8ff" points="1656.32,-203.3 1666.9,-202.69 1658.24,-196.57 1656.32,-203.3"/>
</g>
</g>
</svg>
