<?xml version="1.0" encoding="UTF-8" standalone="no"?>
<!DOCTYPE svg PUBLIC "-//W3C//DTD SVG 1.1//EN"
 "http://www.w3.org/Graphics/SVG/1.1/DTD/svg11.dtd">
<!-- Generated by graphviz version 7.0.5 (20221223.1930)
 -->
<!-- Title: src/f_pc/f_pc_priority.cpp Pages: 1 -->
<!--zoomable 577 -->
<svg id="main" version="1.1" xmlns="http://www.w3.org/2000/svg" xmlns:xlink="http://www.w3.org/1999/xlink" xml:space="preserve" onload="init(evt)">
<style type="text/css"><![CDATA[
.edge:hover path { stroke: red; }
.edge:hover polygon { stroke: red; fill: red; }
]]></style>
<script type="text/javascript"><![CDATA[
var edges = document.getElementsByTagName('g');
if (edges && edges.length) {
  for (var i=0;i<edges.length;i++) {
    if (edges[i].id.substr(0,4)=='edge') {
      edges[i].setAttribute('class','edge');
    }
  }
}
]]></script>
        <defs>
                <circle id="rim" cx="0" cy="0" r="7"/>
                <circle id="rim2" cx="0" cy="0" r="3.5"/>
                <g id="zoomPlus">
                        <use xlink:href="#rim" fill="#404040">
                                <set attributeName="fill" to="#808080" begin="zoomplus.mouseover" end="zoomplus.mouseout"/>
                        </use>
                        <path d="M-4,0h8M0,-4v8" fill="none" stroke="white" stroke-width="1.5" pointer-events="none"/>
                </g>
                <g id="zoomMin">
                        <use xlink:href="#rim" fill="#404040">
                                <set attributeName="fill" to="#808080" begin="zoomminus.mouseover" end="zoomminus.mouseout"/>
                        </use>
                        <path d="M-4,0h8" fill="none" stroke="white" stroke-width="1.5" pointer-events="none"/>
                </g>
                <g id="dirArrow">
                        <path fill="none" stroke="white" stroke-width="1.5" d="M0,-3.0v7 M-2.5,-0.5L0,-3.0L2.5,-0.5"/>
                </g>
               <g id="resetDef">
                       <use xlink:href="#rim2" fill="#404040">
                               <set attributeName="fill" to="#808080" begin="reset.mouseover" end="reset.mouseout"/>
                       </use>
               </g>
        </defs>

<script type="text/javascript">
var viewWidth = 682;
var viewHeight = 577;
var sectionId = 'dynsection-0';
</script>
<script xlink:href="svgpan.js"/>
<svg id="graph" class="graph">
<g id="viewport">
<title>src/f_pc/f_pc_priority.cpp</title>
<!-- Node1 -->
<g id="node1" class="node">
<title>Node1</title>
<g id="a_node1"><a xlink:title=" ">
<polygon fill="#999999" stroke="#666666" points="547.5,-569 422.5,-569 422.5,-550 547.5,-550 547.5,-569"/>
<text text-anchor="middle" x="485" y="-557" font-family="Helvetica,sans-Serif" font-size="10.00">src/f_pc/f_pc_priority.cpp</text>
</a>
</g>
</g>
<!-- Node2 -->
<g id="node2" class="node">
<title>Node2</title>
<g id="a_node2"><a xlink:href="f__pc__priority_8h.html" target="_top" xlink:title=" ">
<polygon fill="white" stroke="#666666" points="458,-459 360,-459 360,-440 458,-440 458,-459"/>
<text text-anchor="middle" x="409" y="-447" font-family="Helvetica,sans-Serif" font-size="10.00">f_pc/f_pc_priority.h</text>
</a>
</g>
</g>
<!-- Node1&#45;&gt;Node2 -->
<g id="edge1" class="edge">
<title>Node1&#45;&gt;Node2</title>
<path fill="none" stroke="#63b8ff" d="M478.78,-549.66C466.37,-532.02 438.29,-492.12 421.79,-468.67"/>
<polygon fill="#63b8ff" stroke="#63b8ff" points="424.79,-466.86 416.18,-460.7 419.07,-470.89 424.79,-466.86"/>
</g>
<!-- Node10 -->
<g id="node10" class="node">
<title>Node10</title>
<g id="a_node10"><a xlink:href="f__pc__base_8h.html" target="_top" xlink:title=" ">
<polygon fill="white" stroke="#666666" points="286.5,-514 195.5,-514 195.5,-495 286.5,-495 286.5,-514"/>
<text text-anchor="middle" x="241" y="-502" font-family="Helvetica,sans-Serif" font-size="10.00">f_pc/f_pc_base.h</text>
</a>
</g>
</g>
<!-- Node1&#45;&gt;Node10 -->
<g id="edge17" class="edge">
<title>Node1&#45;&gt;Node10</title>
<path fill="none" stroke="#63b8ff" d="M443.61,-549.51C402.12,-540.5 338.12,-526.6 293.18,-516.83"/>
<polygon fill="#63b8ff" stroke="#63b8ff" points="294.18,-513.47 283.67,-514.77 292.69,-520.31 294.18,-513.47"/>
</g>
<!-- Node12 -->
<g id="node12" class="node">
<title>Node12</title>
<g id="a_node12"><a xlink:href="f__pc__layer_8h.html" target="_top" xlink:title=" ">
<polygon fill="white" stroke="#666666" points="608,-404 518,-404 518,-385 608,-385 608,-404"/>
<text text-anchor="middle" x="563" y="-392" font-family="Helvetica,sans-Serif" font-size="10.00">f_pc/f_pc_layer.h</text>
</a>
</g>
</g>
<!-- Node1&#45;&gt;Node12 -->
<g id="edge40" class="edge">
<title>Node1&#45;&gt;Node12</title>
<path fill="none" stroke="#63b8ff" d="M501.65,-549.59C527.36,-534.76 575.78,-502.31 595,-459 602.09,-443.02 591.54,-425.29 580.7,-412.63"/>
<polygon fill="#63b8ff" stroke="#63b8ff" points="583.43,-410.42 574.04,-405.51 578.32,-415.21 583.43,-410.42"/>
</g>
<!-- Node13 -->
<g id="node13" class="node">
<title>Node13</title>
<g id="a_node13"><a xlink:href="f__pc__layer__tag_8h.html" target="_top" xlink:title=" ">
<polygon fill="white" stroke="#666666" points="585.5,-459 476.5,-459 476.5,-440 585.5,-440 585.5,-459"/>
<text text-anchor="middle" x="531" y="-447" font-family="Helvetica,sans-Serif" font-size="10.00">f_pc/f_pc_layer_tag.h</text>
</a>
</g>
</g>
<!-- Node1&#45;&gt;Node13 -->
<g id="edge41" class="edge">
<title>Node1&#45;&gt;Node13</title>
<path fill="none" stroke="#63b8ff" d="M488.76,-549.66C496.14,-532.34 512.66,-493.55 522.72,-469.95"/>
<polygon fill="#63b8ff" stroke="#63b8ff" points="525.89,-471.42 526.59,-460.85 519.45,-468.68 525.89,-471.42"/>
</g>
<!-- Node3 -->
<g id="node3" class="node">
<title>Node3</title>
<g id="a_node3"><a xlink:href="c__tag_8h.html" target="_top" xlink:title=" ">
<polygon fill="white" stroke="#666666" points="472,-349 356,-349 356,-319 472,-319 472,-349"/>
<text text-anchor="start" x="364" y="-337" font-family="Helvetica,sans-Serif" font-size="10.00">SSystem/SComponent</text>
<text text-anchor="middle" x="414" y="-326" font-family="Helvetica,sans-Serif" font-size="10.00">/c_tag.h</text>
</a>
</g>
</g>
<!-- Node2&#45;&gt;Node3 -->
<g id="edge2" class="edge">
<title>Node2&#45;&gt;Node3</title>
<path fill="none" stroke="#63b8ff" d="M414.05,-439.65C418.73,-430.91 425.34,-417 428,-404 430.99,-389.37 427.94,-372.98 423.93,-359.85"/>
<polygon fill="#63b8ff" stroke="#63b8ff" points="427.34,-359.02 420.78,-350.71 420.73,-361.3 427.34,-359.02"/>
</g>
<!-- Node9 -->
<g id="node9" class="node">
<title>Node9</title>
<g id="a_node9"><a xlink:href="f__pc__method__tag_8h.html" target="_top" xlink:title=" ">
<polygon fill="white" stroke="#666666" points="385.5,-404 264.5,-404 264.5,-385 385.5,-385 385.5,-404"/>
<text text-anchor="middle" x="325" y="-392" font-family="Helvetica,sans-Serif" font-size="10.00">f_pc/f_pc_method_tag.h</text>
</a>
</g>
</g>
<!-- Node2&#45;&gt;Node9 -->
<g id="edge14" class="edge">
<title>Node2&#45;&gt;Node9</title>
<path fill="none" stroke="#63b8ff" d="M394.75,-439.51C382.12,-431.54 363.44,-419.75 348.59,-410.38"/>
<polygon fill="#63b8ff" stroke="#63b8ff" points="350.64,-407.54 340.32,-405.17 346.91,-413.46 350.64,-407.54"/>
</g>
<!-- Node4 -->
<g id="node4" class="node">
<title>Node4</title>
<g id="a_node4"><a xlink:href="c__list_8h.html" target="_top" xlink:title=" ">
<polygon fill="white" stroke="#666666" points="456,-217 340,-217 340,-187 456,-187 456,-217"/>
<text text-anchor="start" x="348" y="-205" font-family="Helvetica,sans-Serif" font-size="10.00">SSystem/SComponent</text>
<text text-anchor="middle" x="398" y="-194" font-family="Helvetica,sans-Serif" font-size="10.00">/c_list.h</text>
</a>
</g>
</g>
<!-- Node3&#45;&gt;Node4 -->
<g id="edge3" class="edge">
<title>Node3&#45;&gt;Node4</title>
<path fill="none" stroke="#63b8ff" d="M412.23,-318.59C409.56,-296.92 404.48,-255.62 401.16,-228.7"/>
<polygon fill="#63b8ff" stroke="#63b8ff" points="404.66,-228.47 399.97,-218.98 397.71,-229.33 404.66,-228.47"/>
</g>
<!-- Node5 -->
<g id="node5" class="node">
<title>Node5</title>
<g id="a_node5"><a xlink:href="c__node_8h.html" target="_top" xlink:title=" ">
<polygon fill="white" stroke="#666666" points="542,-151 426,-151 426,-121 542,-121 542,-151"/>
<text text-anchor="start" x="434" y="-139" font-family="Helvetica,sans-Serif" font-size="10.00">SSystem/SComponent</text>
<text text-anchor="middle" x="484" y="-128" font-family="Helvetica,sans-Serif" font-size="10.00">/c_node.h</text>
</a>
</g>
</g>
<!-- Node3&#45;&gt;Node5 -->
<g id="edge8" class="edge">
<title>Node3&#45;&gt;Node5</title>
<path fill="none" stroke="#63b8ff" d="M418.91,-318.59C424.59,-302.38 434.5,-275.39 445,-253 452.77,-236.43 458.38,-234.06 465,-217 471.87,-199.29 476.73,-178.37 479.82,-162.37"/>
<polygon fill="#63b8ff" stroke="#63b8ff" points="483.23,-163.18 481.56,-152.72 476.34,-161.93 483.23,-163.18"/>
</g>
<!-- Node6 -->
<g id="node6" class="node">
<title>Node6</title>
<g id="a_node6"><a xlink:href="types_8h.html" target="_top" xlink:title=" ">
<polygon fill="white" stroke="#666666" points="333.5,-85 252.5,-85 252.5,-66 333.5,-66 333.5,-85"/>
<text text-anchor="middle" x="293" y="-73" font-family="Helvetica,sans-Serif" font-size="10.00">dolphin/types.h</text>
</a>
</g>
</g>
<!-- Node3&#45;&gt;Node6 -->
<g id="edge13" class="edge">
<title>Node3&#45;&gt;Node6</title>
<path fill="none" stroke="#63b8ff" d="M401.14,-318.7C383,-297.81 349.98,-257.05 331,-217 311.76,-176.41 300.92,-124.44 296.09,-96.47"/>
<polygon fill="#63b8ff" stroke="#63b8ff" points="299.59,-96.23 294.53,-86.93 292.69,-97.36 299.59,-96.23"/>
</g>
<!-- Node8 -->
<g id="node8" class="node">
<title>Node8</title>
<g id="a_node8"><a xlink:href="c__tree_8h.html" target="_top" xlink:title=" ">
<polygon fill="white" stroke="#666666" points="570,-283 454,-283 454,-253 570,-253 570,-283"/>
<text text-anchor="start" x="462" y="-271" font-family="Helvetica,sans-Serif" font-size="10.00">SSystem/SComponent</text>
<text text-anchor="middle" x="512" y="-260" font-family="Helvetica,sans-Serif" font-size="10.00">/c_tree.h</text>
</a>
</g>
</g>
<!-- Node3&#45;&gt;Node8 -->
<g id="edge9" class="edge">
<title>Node3&#45;&gt;Node8</title>
<path fill="none" stroke="#63b8ff" d="M435.75,-318.8C448.85,-310.24 465.77,-299.19 480.34,-289.68"/>
<polygon fill="#63b8ff" stroke="#63b8ff" points="482.25,-292.61 488.71,-284.21 478.42,-286.75 482.25,-292.61"/>
</g>
<!-- Node4&#45;&gt;Node5 -->
<g id="edge4" class="edge">
<title>Node4&#45;&gt;Node5</title>
<path fill="none" stroke="#63b8ff" d="M417.09,-186.8C428.36,-178.4 442.86,-167.62 455.47,-158.23"/>
<polygon fill="#63b8ff" stroke="#63b8ff" points="457.52,-161.07 463.46,-152.29 453.34,-155.45 457.52,-161.07"/>
</g>
<!-- Node4&#45;&gt;Node6 -->
<g id="edge7" class="edge">
<title>Node4&#45;&gt;Node6</title>
<path fill="none" stroke="#63b8ff" d="M385.96,-186.72C366.65,-163.83 328.82,-118.97 307.86,-94.12"/>
<polygon fill="#63b8ff" stroke="#63b8ff" points="310.59,-91.93 301.47,-86.54 305.24,-96.44 310.59,-91.93"/>
</g>
<!-- Node5&#45;&gt;Node6 -->
<g id="edge5" class="edge">
<title>Node5&#45;&gt;Node6</title>
<path fill="none" stroke="#63b8ff" d="M436.79,-120.54C404.95,-110.79 363.4,-98.06 333.16,-88.8"/>
<polygon fill="#63b8ff" stroke="#63b8ff" points="334.2,-85.46 323.61,-85.88 332.15,-92.15 334.2,-85.46"/>
</g>
<!-- Node7 -->
<g id="node7" class="node">
<title>Node7</title>
<g id="a_node7"><a xlink:href="stddef_8h.html" target="_top" xlink:title=" ">
<polygon fill="white" stroke="#666666" points="361,-30 225,-30 225,0 361,0 361,-30"/>
<text text-anchor="start" x="233" y="-18" font-family="Helvetica,sans-Serif" font-size="10.00">MSL_C/MSL_Common/Src</text>
<text text-anchor="middle" x="293" y="-7" font-family="Helvetica,sans-Serif" font-size="10.00">/stddef.h</text>
</a>
</g>
</g>
<!-- Node6&#45;&gt;Node7 -->
<g id="edge6" class="edge">
<title>Node6&#45;&gt;Node7</title>
<path fill="none" stroke="#63b8ff" d="M293,-65.87C293,-59.4 293,-50.2 293,-41.45"/>
<polygon fill="#63b8ff" stroke="#63b8ff" points="296.5,-41.63 293,-31.63 289.5,-41.63 296.5,-41.63"/>
</g>
<!-- Node8&#45;&gt;Node4 -->
<g id="edge10" class="edge">
<title>Node8&#45;&gt;Node4</title>
<path fill="none" stroke="#63b8ff" d="M486.42,-252.64C470.72,-243.83 450.41,-232.42 433.21,-222.77"/>
<polygon fill="#63b8ff" stroke="#63b8ff" points="435.25,-219.9 424.82,-218.06 431.82,-226 435.25,-219.9"/>
</g>
<!-- Node8&#45;&gt;Node5 -->
<g id="edge11" class="edge">
<title>Node8&#45;&gt;Node5</title>
<path fill="none" stroke="#63b8ff" d="M509.95,-252.75C507.53,-236.69 503.18,-209.83 498,-187 496.15,-178.85 493.8,-170.04 491.56,-162.13"/>
<polygon fill="#63b8ff" stroke="#63b8ff" points="495,-161.42 488.85,-152.8 488.28,-163.38 495,-161.42"/>
</g>
<!-- Node8&#45;&gt;Node6 -->
<g id="edge12" class="edge">
<title>Node8&#45;&gt;Node6</title>
<path fill="none" stroke="#63b8ff" d="M523.2,-252.75C544.08,-224.36 583.96,-160.13 551,-121 525.22,-90.4 412.87,-80.84 345.22,-77.86"/>
<polygon fill="#63b8ff" stroke="#63b8ff" points="345.59,-74.37 335.46,-77.46 345.31,-81.36 345.59,-74.37"/>
</g>
<!-- Node9&#45;&gt;Node3 -->
<g id="edge15" class="edge">
<title>Node9&#45;&gt;Node3</title>
<path fill="none" stroke="#63b8ff" d="M338.52,-384.62C350.17,-376.96 367.44,-365.61 382.52,-355.69"/>
<polygon fill="#63b8ff" stroke="#63b8ff" points="384.33,-358.69 390.77,-350.27 380.49,-352.84 384.33,-358.69"/>
</g>
<!-- Node9&#45;&gt;Node6 -->
<g id="edge16" class="edge">
<title>Node9&#45;&gt;Node6</title>
<path fill="none" stroke="#63b8ff" d="M318.54,-384.65C304.82,-364.93 274,-315.48 274,-269 274,-269 274,-269 274,-201 274,-163.76 282.41,-120.97 288.04,-96.49"/>
<polygon fill="#63b8ff" stroke="#63b8ff" points="291.4,-97.5 290.32,-86.96 284.59,-95.87 291.4,-97.5"/>
</g>
<!-- Node10&#45;&gt;Node2 -->
<g id="edge35" class="edge">
<title>Node10&#45;&gt;Node2</title>
<path fill="none" stroke="#63b8ff" d="M269.5,-494.51C297.1,-485.8 339.16,-472.53 369.88,-462.84"/>
<polygon fill="#63b8ff" stroke="#63b8ff" points="370.72,-466.25 379.2,-459.9 368.61,-459.57 370.72,-466.25"/>
</g>
<!-- Node10&#45;&gt;Node3 -->
<g id="edge18" class="edge">
<title>Node10&#45;&gt;Node3</title>
<path fill="none" stroke="#63b8ff" d="M233.62,-494.57C224.48,-482.39 210.82,-459.8 217,-440 225.85,-411.64 231.09,-402.63 255,-385 281.12,-365.73 314.88,-353.75 344.57,-346.37"/>
<polygon fill="#63b8ff" stroke="#63b8ff" points="345.31,-349.79 354.24,-344.11 343.71,-342.98 345.31,-349.79"/>
</g>
<!-- Node10&#45;&gt;Node6 -->
<g id="edge19" class="edge">
<title>Node10&#45;&gt;Node6</title>
<path fill="none" stroke="#63b8ff" d="M195.1,-502.73C125.18,-498.85 0,-480.09 0,-395.5 0,-395.5 0,-395.5 0,-201 0,-161.44 7.4,-144.79 39,-121 70.08,-97.6 176.05,-85.46 240.88,-80.08"/>
<polygon fill="#63b8ff" stroke="#63b8ff" points="240.89,-83.59 250.58,-79.3 240.34,-76.61 240.89,-83.59"/>
</g>
<!-- Node11 -->
<g id="node11" class="node">
<title>Node11</title>
<g id="a_node11"><a xlink:href="f__pc__delete__tag_8h.html" target="_top" xlink:title=" ">
<polygon fill="white" stroke="#666666" points="341.5,-459 226.5,-459 226.5,-440 341.5,-440 341.5,-459"/>
<text text-anchor="middle" x="284" y="-447" font-family="Helvetica,sans-Serif" font-size="10.00">f_pc/f_pc_delete_tag.h</text>
</a>
</g>
</g>
<!-- Node10&#45;&gt;Node11 -->
<g id="edge20" class="edge">
<title>Node10&#45;&gt;Node11</title>
<path fill="none" stroke="#63b8ff" d="M248.1,-494.75C253.92,-487.58 262.33,-477.2 269.56,-468.3"/>
<polygon fill="#63b8ff" stroke="#63b8ff" points="272.21,-470.59 275.79,-460.62 266.77,-466.18 272.21,-470.59"/>
</g>
<!-- Node10&#45;&gt;Node13 -->
<g id="edge28" class="edge">
<title>Node10&#45;&gt;Node13</title>
<path fill="none" stroke="#63b8ff" d="M286.95,-495.1C336.6,-486.03 415.94,-471.53 470.6,-461.54"/>
<polygon fill="#63b8ff" stroke="#63b8ff" points="471.17,-464.99 480.38,-459.75 469.92,-458.11 471.17,-464.99"/>
</g>
<!-- Node14 -->
<g id="node14" class="node">
<title>Node14</title>
<g id="a_node14"><a xlink:href="f__pc__line__tag_8h.html" target="_top" xlink:title=" ">
<polygon fill="white" stroke="#666666" points="170,-404 66,-404 66,-385 170,-385 170,-404"/>
<text text-anchor="middle" x="118" y="-392" font-family="Helvetica,sans-Serif" font-size="10.00">f_pc/f_pc_line_tag.h</text>
</a>
</g>
</g>
<!-- Node10&#45;&gt;Node14 -->
<g id="edge32" class="edge">
<title>Node10&#45;&gt;Node14</title>
<path fill="none" stroke="#63b8ff" d="M228.92,-494.64C217.19,-485.9 198.98,-472 184,-459 166.63,-443.93 147.82,-425.62 134.74,-412.54"/>
<polygon fill="#63b8ff" stroke="#63b8ff" points="137.29,-410.14 127.76,-405.5 132.32,-415.07 137.29,-410.14"/>
</g>
<!-- Node15 -->
<g id="node15" class="node">
<title>Node15</title>
<g id="a_node15"><a xlink:href="f__pc__profile_8h.html" target="_top" xlink:title=" ">
<polygon fill="white" stroke="#666666" points="166.5,-211.5 71.5,-211.5 71.5,-192.5 166.5,-192.5 166.5,-211.5"/>
<text text-anchor="middle" x="119" y="-199.5" font-family="Helvetica,sans-Serif" font-size="10.00">f_pc/f_pc_profile.h</text>
</a>
</g>
</g>
<!-- Node10&#45;&gt;Node15 -->
<g id="edge36" class="edge">
<title>Node10&#45;&gt;Node15</title>
<path fill="none" stroke="#63b8ff" d="M200.61,-494.56C156.48,-482.41 87.96,-455.94 57,-404 20.25,-342.35 76.46,-256.9 104.56,-220.52"/>
<polygon fill="#63b8ff" stroke="#63b8ff" points="107.22,-222.81 110.7,-212.81 101.74,-218.46 107.22,-222.81"/>
</g>
<!-- Node11&#45;&gt;Node3 -->
<g id="edge21" class="edge">
<title>Node11&#45;&gt;Node3</title>
<path fill="none" stroke="#63b8ff" d="M330.68,-439.54C352.65,-433.09 377.57,-422.2 394,-404 404.71,-392.14 409.71,-374.87 412.03,-360.57"/>
<polygon fill="#63b8ff" stroke="#63b8ff" points="415.46,-361.3 413.23,-350.95 408.52,-360.44 415.46,-361.3"/>
</g>
<!-- Node11&#45;&gt;Node6 -->
<g id="edge22" class="edge">
<title>Node11&#45;&gt;Node6</title>
<path fill="none" stroke="#63b8ff" d="M277.13,-439.77C270.63,-431.12 260.98,-417.28 255,-404 241.94,-375 236,-366.81 236,-335 236,-335 236,-335 236,-201 236,-159.79 262.14,-117.31 279.01,-94.17"/>
<polygon fill="#63b8ff" stroke="#63b8ff" points="281.62,-96.52 284.87,-86.44 276.04,-92.3 281.62,-96.52"/>
</g>
<!-- Node11&#45;&gt;Node12 -->
<g id="edge23" class="edge">
<title>Node11&#45;&gt;Node12</title>
<path fill="none" stroke="#63b8ff" d="M331.33,-439.51C379.75,-430.31 454.98,-416.02 506.5,-406.23"/>
<polygon fill="#63b8ff" stroke="#63b8ff" points="507.1,-409.68 516.27,-404.38 505.79,-402.81 507.1,-409.68"/>
</g>
<!-- Node12&#45;&gt;Node3 -->
<g id="edge25" class="edge">
<title>Node12&#45;&gt;Node3</title>
<path fill="none" stroke="#63b8ff" d="M540.37,-384.62C519.48,-376.41 487.78,-363.97 461.36,-353.59"/>
<polygon fill="#63b8ff" stroke="#63b8ff" points="462.77,-350.39 452.19,-349.99 460.22,-356.91 462.77,-350.39"/>
</g>
<!-- Node12&#45;&gt;Node5 -->
<g id="edge24" class="edge">
<title>Node12&#45;&gt;Node5</title>
<path fill="none" stroke="#63b8ff" d="M566.67,-384.64C575.49,-361.98 595.93,-300.39 579,-253 565.33,-214.74 533.02,-180.02 509.88,-158.74"/>
<polygon fill="#63b8ff" stroke="#63b8ff" points="512.43,-156.33 502.65,-152.27 507.77,-161.55 512.43,-156.33"/>
</g>
<!-- Node12&#45;&gt;Node6 -->
<g id="edge27" class="edge">
<title>Node12&#45;&gt;Node6</title>
<path fill="none" stroke="#63b8ff" d="M572.85,-384.57C592.77,-365.48 636,-318.36 636,-269 636,-269 636,-269 636,-201 636,-155.47 611.35,-143.91 572,-121 534.4,-99.12 414.97,-86.2 345.15,-80.32"/>
<polygon fill="#63b8ff" stroke="#63b8ff" points="345.73,-76.86 335.48,-79.53 345.16,-83.83 345.73,-76.86"/>
</g>
<!-- Node12&#45;&gt;Node8 -->
<g id="edge26" class="edge">
<title>Node12&#45;&gt;Node8</title>
<path fill="none" stroke="#63b8ff" d="M559.33,-384.55C551.66,-365.83 533.7,-321.97 522.24,-294"/>
<polygon fill="#63b8ff" stroke="#63b8ff" points="525.52,-292.77 518.49,-284.85 519.04,-295.43 525.52,-292.77"/>
</g>
<!-- Node13&#45;&gt;Node3 -->
<g id="edge29" class="edge">
<title>Node13&#45;&gt;Node3</title>
<path fill="none" stroke="#63b8ff" d="M521.82,-439.59C503.72,-422.03 462.94,-382.47 437.04,-357.35"/>
<polygon fill="#63b8ff" stroke="#63b8ff" points="439.59,-354.94 429.97,-350.49 434.71,-359.97 439.59,-354.94"/>
</g>
<!-- Node13&#45;&gt;Node6 -->
<g id="edge30" class="edge">
<title>Node13&#45;&gt;Node6</title>
<path fill="none" stroke="#63b8ff" d="M561.33,-439.51C603.3,-424.99 674,-392.05 674,-335 674,-335 674,-335 674,-201 674,-154.91 648.21,-143.53 608,-121 564.06,-96.38 422.84,-84.26 345.26,-79.32"/>
<polygon fill="#63b8ff" stroke="#63b8ff" points="345.54,-75.83 335.35,-78.7 345.11,-82.81 345.54,-75.83"/>
</g>
<!-- Node13&#45;&gt;Node12 -->
<g id="edge31" class="edge">
<title>Node13&#45;&gt;Node12</title>
<path fill="none" stroke="#63b8ff" d="M536.28,-439.75C540.47,-432.81 546.48,-422.86 551.73,-414.16"/>
<polygon fill="#63b8ff" stroke="#63b8ff" points="554.65,-416.11 556.82,-405.74 548.65,-412.49 554.65,-416.11"/>
</g>
<!-- Node14&#45;&gt;Node3 -->
<g id="edge33" class="edge">
<title>Node14&#45;&gt;Node3</title>
<path fill="none" stroke="#63b8ff" d="M163.28,-384.55C211.53,-375.01 288.54,-359.8 344.49,-348.74"/>
<polygon fill="#63b8ff" stroke="#63b8ff" points="345.12,-352.18 354.25,-346.81 343.76,-345.31 345.12,-352.18"/>
</g>
<!-- Node14&#45;&gt;Node6 -->
<g id="edge34" class="edge">
<title>Node14&#45;&gt;Node6</title>
<path fill="none" stroke="#63b8ff" d="M111.53,-384.74C85.17,-347.91 -9.52,-203.78 59,-121 81.6,-93.69 178.89,-83 240.68,-78.92"/>
<polygon fill="#63b8ff" stroke="#63b8ff" points="240.88,-82.41 250.65,-78.3 240.45,-75.43 240.88,-82.41"/>
</g>
<!-- Node15&#45;&gt;Node6 -->
<g id="edge37" class="edge">
<title>Node15&#45;&gt;Node6</title>
<path fill="none" stroke="#63b8ff" d="M129.56,-192.23C147.92,-177.1 187.11,-145.39 222,-121 236.92,-110.57 254.21,-99.71 268,-91.33"/>
<polygon fill="#63b8ff" stroke="#63b8ff" points="269.7,-94.39 276.46,-86.23 266.09,-88.39 269.7,-94.39"/>
</g>
<!-- Node16 -->
<g id="node16" class="node">
<title>Node16</title>
<g id="a_node16"><a xlink:href="f__pc__method_8h.html" target="_top" xlink:title=" ">
<polygon fill="white" stroke="#666666" points="170,-145.5 68,-145.5 68,-126.5 170,-126.5 170,-145.5"/>
<text text-anchor="middle" x="119" y="-133.5" font-family="Helvetica,sans-Serif" font-size="10.00">f_pc/f_pc_method.h</text>
</a>
</g>
</g>
<!-- Node15&#45;&gt;Node16 -->
<g id="edge38" class="edge">
<title>Node15&#45;&gt;Node16</title>
<path fill="none" stroke="#63b8ff" d="M119,-192.1C119,-183.12 119,-168.95 119,-157.22"/>
<polygon fill="#63b8ff" stroke="#63b8ff" points="122.5,-157.34 119,-147.34 115.5,-157.34 122.5,-157.34"/>
</g>
<!-- Node16&#45;&gt;Node6 -->
<g id="edge39" class="edge">
<title>Node16&#45;&gt;Node6</title>
<path fill="none" stroke="#63b8ff" d="M145.43,-126.12C174.81,-116.24 222.49,-100.21 255.67,-89.05"/>
<polygon fill="#63b8ff" stroke="#63b8ff" points="256.53,-92.46 264.89,-85.95 254.3,-85.82 256.53,-92.46"/>
</g>
</g>
</svg>
        <g id="navigator" transform="translate(0 0)" fill="#404254">
                <rect fill="#f2f5e9" fill-opacity="0.5" stroke="#606060" stroke-width=".5" x="0" y="0" width="60" height="60"/>
                <use id="zoomplus" xlink:href="#zoomPlus" x="17" y="9" onmousedown="handleZoom(evt,'in')"/>
                <use id="zoomminus" xlink:href="#zoomMin" x="42" y="9" onmousedown="handleZoom(evt,'out')"/>
                <use id="reset" xlink:href="#resetDef" x="30" y="36" onmousedown="handleReset()"/>
                <g id="arrowUp" xlink:href="#dirArrow" transform="translate(30 24)" onmousedown="handlePan(0,-1)">
                  <use xlink:href="#rim" fill="#404040">
                        <set attributeName="fill" to="#808080" begin="arrowUp.mouseover" end="arrowUp.mouseout"/>
                  </use>
                  <path fill="none" stroke="white" stroke-width="1.5" d="M0,-3.0v7 M-2.5,-0.5L0,-3.0L2.5,-0.5"/>
                </g>
                <g id="arrowRight" xlink:href="#dirArrow" transform="rotate(90) translate(36 -43)" onmousedown="handlePan(1,0)">
                  <use xlink:href="#rim" fill="#404040">
                        <set attributeName="fill" to="#808080" begin="arrowRight.mouseover" end="arrowRight.mouseout"/>
                  </use>
                  <path fill="none" stroke="white" stroke-width="1.5" d="M0,-3.0v7 M-2.5,-0.5L0,-3.0L2.5,-0.5"/>
                </g>
                <g id="arrowDown" xlink:href="#dirArrow" transform="rotate(180) translate(-30 -48)" onmousedown="handlePan(0,1)">
                  <use xlink:href="#rim" fill="#404040">
                        <set attributeName="fill" to="#808080" begin="arrowDown.mouseover" end="arrowDown.mouseout"/>
                  </use>
                  <path fill="none" stroke="white" stroke-width="1.5" d="M0,-3.0v7 M-2.5,-0.5L0,-3.0L2.5,-0.5"/>
                </g>
                <g id="arrowLeft" xlink:href="#dirArrow" transform="rotate(270) translate(-36 17)" onmousedown="handlePan(-1,0)">
                  <use xlink:href="#rim" fill="#404040">
                        <set attributeName="fill" to="#808080" begin="arrowLeft.mouseover" end="arrowLeft.mouseout"/>
                  </use>
                  <path fill="none" stroke="white" stroke-width="1.5" d="M0,-3.0v7 M-2.5,-0.5L0,-3.0L2.5,-0.5"/>
                </g>
        </g>
        <svg viewBox="0 0 15 15" width="100%" height="30px" preserveAspectRatio="xMaxYMin meet">
         <g id="arrow_out" transform="scale(0.3 0.3)">
          <a xlink:href="f__pc__priority_8cpp__incl_org.svg" target="_base">
           <rect id="button" ry="5" rx="5" y="6" x="6" height="38" width="38"
                fill="#f2f5e9" fill-opacity="0.5" stroke="#606060" stroke-width="1.0"/>
           <path id="arrow"
             d="M 11.500037,31.436501 C 11.940474,20.09759 22.043105,11.32322 32.158766,21.979434 L 37.068811,17.246167 C 37.068811,17.246167 37.088388,32 37.088388,32 L 22.160133,31.978069 C 22.160133,31.978069 26.997745,27.140456 26.997745,27.140456 C 18.528582,18.264221 13.291696,25.230495 11.500037,31.436501 z"
             style="fill:#404040;"/>
          </a>
         </g>
        </svg>
</svg>
