<?xml version="1.0" encoding="UTF-8" standalone="no"?>
<!DOCTYPE svg PUBLIC "-//W3C//DTD SVG 1.1//EN"
 "http://www.w3.org/Graphics/SVG/1.1/DTD/svg11.dtd">
<!-- Generated by graphviz version 7.0.5 (20221223.1930)
 -->
<!-- Title: include/fdlibm.h Pages: 1 -->
<!--zoomable 291 -->
<svg id="main" version="1.1" xmlns="http://www.w3.org/2000/svg" xmlns:xlink="http://www.w3.org/1999/xlink" xml:space="preserve" onload="init(evt)">
<style type="text/css"><![CDATA[
.edge:hover path { stroke: red; }
.edge:hover polygon { stroke: red; fill: red; }
]]></style>
<script type="text/javascript"><![CDATA[
var edges = document.getElementsByTagName('g');
if (edges && edges.length) {
  for (var i=0;i<edges.length;i++) {
    if (edges[i].id.substr(0,4)=='edge') {
      edges[i].setAttribute('class','edge');
    }
  }
}
]]></script>
        <defs>
                <circle id="rim" cx="0" cy="0" r="7"/>
                <circle id="rim2" cx="0" cy="0" r="3.5"/>
                <g id="zoomPlus">
                        <use xlink:href="#rim" fill="#404040">
                                <set attributeName="fill" to="#808080" begin="zoomplus.mouseover" end="zoomplus.mouseout"/>
                        </use>
                        <path d="M-4,0h8M0,-4v8" fill="none" stroke="white" stroke-width="1.5" pointer-events="none"/>
                </g>
                <g id="zoomMin">
                        <use xlink:href="#rim" fill="#404040">
                                <set attributeName="fill" to="#808080" begin="zoomminus.mouseover" end="zoomminus.mouseout"/>
                        </use>
                        <path d="M-4,0h8" fill="none" stroke="white" stroke-width="1.5" pointer-events="none"/>
                </g>
                <g id="dirArrow">
                        <path fill="none" stroke="white" stroke-width="1.5" d="M0,-3.0v7 M-2.5,-0.5L0,-3.0L2.5,-0.5"/>
                </g>
               <g id="resetDef">
                       <use xlink:href="#rim2" fill="#404040">
                               <set attributeName="fill" to="#808080" begin="reset.mouseover" end="reset.mouseout"/>
                       </use>
               </g>
        </defs>

<script type="text/javascript">
var viewWidth = 5933;
var viewHeight = 291;
var sectionId = 'dynsection-0';
</script>
<script xlink:href="svgpan.js"/>
<svg id="graph" class="graph">
<g id="viewport">
<title>include/fdlibm.h</title>
<!-- Node1 -->
<g id="node1" class="node">
<title>Node1</title>
<g id="a_node1"><a xlink:title=" ">
<polygon fill="#999999" stroke="#666666" points="4265.5,-283 4181.5,-283 4181.5,-264 4265.5,-264 4265.5,-283"/>
<text text-anchor="middle" x="4223.5" y="-271" font-family="Helvetica,sans-Serif" font-size="10.00">include/fdlibm.h</text>
</a>
</g>
</g>
<!-- Node2 -->
<g id="node2" class="node">
<title>Node2</title>
<g id="a_node2"><a xlink:href="MSL__Common_2Src_2float_8h.html" target="_top" xlink:title=" ">
<polygon fill="white" stroke="#666666" points="2641.5,-228 2489.5,-228 2489.5,-198 2641.5,-198 2641.5,-228"/>
<text text-anchor="start" x="2497.5" y="-216" font-family="Helvetica,sans-Serif" font-size="10.00">include/MSL_C/MSL_Common</text>
<text text-anchor="middle" x="2565.5" y="-205" font-family="Helvetica,sans-Serif" font-size="10.00">/Src/float.h</text>
</a>
</g>
</g>
<!-- Node1&#45;&gt;Node2 -->
<g id="edge1" class="edge">
<title>Node1&#45;&gt;Node2</title>
<path fill="none" stroke="#63b8ff" d="M4170.09,-271.94C3930.79,-269.3 2955.86,-256.95 2651.5,-228 2648.34,-227.7 2645.12,-227.35 2641.86,-226.97"/>
<polygon fill="#63b8ff" stroke="#63b8ff" points="4169.69,-275.44 4179.73,-272.05 4169.77,-268.44 4169.69,-275.44"/>
</g>
<!-- Node621 -->
<g id="node28" class="node">
<title>Node621</title>
<g id="a_node28"><a xlink:href="e__atan2_8c.html" target="_top" xlink:title=" ">
<polygon fill="white" stroke="#666666" points="2785,-228 2660,-228 2660,-198 2785,-198 2785,-228"/>
<text text-anchor="start" x="2668" y="-216" font-family="Helvetica,sans-Serif" font-size="10.00">libs/MSL_C/Math/Double</text>
<text text-anchor="middle" x="2722.5" y="-205" font-family="Helvetica,sans-Serif" font-size="10.00">_precision/e_atan2.c</text>
</a>
</g>
</g>
<!-- Node1&#45;&gt;Node621 -->
<g id="edge30" class="edge">
<title>Node1&#45;&gt;Node621</title>
<path fill="none" stroke="#63b8ff" d="M4169.86,-271.99C3943.91,-269.64 3068.62,-258.72 2794.5,-228 2791.46,-227.66 2788.36,-227.26 2785.24,-226.82"/>
<polygon fill="#63b8ff" stroke="#63b8ff" points="4169.5,-275.48 4179.54,-272.08 4169.58,-268.48 4169.5,-275.48"/>
</g>
<!-- Node622 -->
<g id="node29" class="node">
<title>Node622</title>
<g id="a_node29"><a xlink:href="e__exp_8c.html" target="_top" xlink:title=" ">
<polygon fill="white" stroke="#666666" points="2928,-228 2803,-228 2803,-198 2928,-198 2928,-228"/>
<text text-anchor="start" x="2811" y="-216" font-family="Helvetica,sans-Serif" font-size="10.00">libs/MSL_C/Math/Double</text>
<text text-anchor="middle" x="2865.5" y="-205" font-family="Helvetica,sans-Serif" font-size="10.00">_precision/e_exp.c</text>
</a>
</g>
</g>
<!-- Node1&#45;&gt;Node622 -->
<g id="edge31" class="edge">
<title>Node1&#45;&gt;Node622</title>
<path fill="none" stroke="#63b8ff" d="M4169.81,-271.77C3958.27,-268.72 3182.03,-255.83 2937.5,-228 2934.46,-227.65 2931.36,-227.25 2928.24,-226.8"/>
<polygon fill="#63b8ff" stroke="#63b8ff" points="4169.63,-275.27 4179.68,-271.91 4169.73,-268.27 4169.63,-275.27"/>
</g>
<!-- Node623 -->
<g id="node30" class="node">
<title>Node623</title>
<g id="a_node30"><a xlink:href="e__fmod_8c.html" target="_top" xlink:title=" ">
<polygon fill="white" stroke="#666666" points="3071,-228 2946,-228 2946,-198 3071,-198 3071,-228"/>
<text text-anchor="start" x="2954" y="-216" font-family="Helvetica,sans-Serif" font-size="10.00">libs/MSL_C/Math/Double</text>
<text text-anchor="middle" x="3008.5" y="-205" font-family="Helvetica,sans-Serif" font-size="10.00">_precision/e_fmod.c</text>
</a>
</g>
</g>
<!-- Node1&#45;&gt;Node623 -->
<g id="edge32" class="edge">
<title>Node1&#45;&gt;Node623</title>
<path fill="none" stroke="#63b8ff" d="M4169.76,-271.5C3973.47,-267.68 3295.56,-252.95 3080.5,-228 3077.46,-227.65 3074.36,-227.24 3071.24,-226.79"/>
<polygon fill="#63b8ff" stroke="#63b8ff" points="4169.6,-275 4179.66,-271.69 4169.73,-268 4169.6,-275"/>
</g>
<!-- Node624 -->
<g id="node31" class="node">
<title>Node624</title>
<g id="a_node31"><a xlink:href="k__cos_8c.html" target="_top" xlink:title=" ">
<polygon fill="white" stroke="#666666" points="3214,-228 3089,-228 3089,-198 3214,-198 3214,-228"/>
<text text-anchor="start" x="3097" y="-216" font-family="Helvetica,sans-Serif" font-size="10.00">libs/MSL_C/Math/Double</text>
<text text-anchor="middle" x="3151.5" y="-205" font-family="Helvetica,sans-Serif" font-size="10.00">_precision/k_cos.c</text>
</a>
</g>
</g>
<!-- Node1&#45;&gt;Node624 -->
<g id="edge33" class="edge">
<title>Node1&#45;&gt;Node624</title>
<path fill="none" stroke="#63b8ff" d="M4170.3,-272.89C4020.63,-273.38 3583.42,-270.76 3223.5,-228 3220.47,-227.64 3217.37,-227.22 3214.24,-226.77"/>
<polygon fill="#63b8ff" stroke="#63b8ff" points="4169.9,-276.39 4179.89,-272.85 4169.88,-269.39 4169.9,-276.39"/>
</g>
<!-- Node625 -->
<g id="node32" class="node">
<title>Node625</title>
<g id="a_node32"><a xlink:href="k__rem__pio2_8c.html" target="_top" xlink:title=" ">
<polygon fill="white" stroke="#666666" points="3357,-228 3232,-228 3232,-198 3357,-198 3357,-228"/>
<text text-anchor="start" x="3240" y="-216" font-family="Helvetica,sans-Serif" font-size="10.00">libs/MSL_C/Math/Double</text>
<text text-anchor="middle" x="3294.5" y="-205" font-family="Helvetica,sans-Serif" font-size="10.00">_precision/k_rem_pio2.c</text>
</a>
</g>
</g>
<!-- Node1&#45;&gt;Node625 -->
<g id="edge34" class="edge">
<title>Node1&#45;&gt;Node625</title>
<path fill="none" stroke="#63b8ff" d="M4170.2,-272.32C4035.19,-271.31 3668.97,-265.07 3366.5,-228 3363.47,-227.63 3360.37,-227.2 3357.25,-226.74"/>
<polygon fill="#63b8ff" stroke="#63b8ff" points="4169.87,-275.82 4179.89,-272.39 4169.92,-268.82 4169.87,-275.82"/>
</g>
<!-- Node626 -->
<g id="node33" class="node">
<title>Node626</title>
<g id="a_node33"><a xlink:href="k__sin_8c.html" target="_top" xlink:title=" ">
<polygon fill="white" stroke="#666666" points="3500,-228 3375,-228 3375,-198 3500,-198 3500,-228"/>
<text text-anchor="start" x="3383" y="-216" font-family="Helvetica,sans-Serif" font-size="10.00">libs/MSL_C/Math/Double</text>
<text text-anchor="middle" x="3437.5" y="-205" font-family="Helvetica,sans-Serif" font-size="10.00">_precision/k_sin.c</text>
</a>
</g>
</g>
<!-- Node1&#45;&gt;Node626 -->
<g id="edge35" class="edge">
<title>Node1&#45;&gt;Node626</title>
<path fill="none" stroke="#63b8ff" d="M4169.75,-271.53C4050.47,-268.86 3754.81,-259.36 3509.5,-228 3506.47,-227.61 3503.37,-227.17 3500.25,-226.7"/>
<polygon fill="#63b8ff" stroke="#63b8ff" points="4169.48,-275.02 4179.56,-271.74 4169.63,-268.03 4169.48,-275.02"/>
</g>
<!-- Node627 -->
<g id="node34" class="node">
<title>Node627</title>
<g id="a_node34"><a xlink:href="s__atan_8c.html" target="_top" xlink:title=" ">
<polygon fill="white" stroke="#666666" points="3643,-228 3518,-228 3518,-198 3643,-198 3643,-228"/>
<text text-anchor="start" x="3526" y="-216" font-family="Helvetica,sans-Serif" font-size="10.00">libs/MSL_C/Math/Double</text>
<text text-anchor="middle" x="3580.5" y="-205" font-family="Helvetica,sans-Serif" font-size="10.00">_precision/s_atan.c</text>
</a>
</g>
</g>
<!-- Node1&#45;&gt;Node627 -->
<g id="edge36" class="edge">
<title>Node1&#45;&gt;Node627</title>
<path fill="none" stroke="#63b8ff" d="M4169.6,-270.35C4068.04,-265.86 3841.58,-253.66 3652.5,-228 3649.47,-227.59 3646.38,-227.13 3643.26,-226.64"/>
<polygon fill="#63b8ff" stroke="#63b8ff" points="4169.41,-273.85 4179.55,-270.79 4169.71,-266.86 4169.41,-273.85"/>
</g>
<!-- Node628 -->
<g id="node35" class="node">
<title>Node628</title>
<g id="a_node35"><a xlink:href="s__ceil_8c.html" target="_top" xlink:title=" ">
<polygon fill="white" stroke="#666666" points="3786,-228 3661,-228 3661,-198 3786,-198 3786,-228"/>
<text text-anchor="start" x="3669" y="-216" font-family="Helvetica,sans-Serif" font-size="10.00">libs/MSL_C/Math/Double</text>
<text text-anchor="middle" x="3723.5" y="-205" font-family="Helvetica,sans-Serif" font-size="10.00">_precision/s_ceil.c</text>
</a>
</g>
</g>
<!-- Node1&#45;&gt;Node628 -->
<g id="edge37" class="edge">
<title>Node1&#45;&gt;Node628</title>
<path fill="none" stroke="#63b8ff" d="M4169.7,-268.44C4088.4,-261.97 3929.49,-247.95 3795.5,-228 3792.48,-227.55 3789.39,-227.06 3786.27,-226.54"/>
<polygon fill="#63b8ff" stroke="#63b8ff" points="4169.37,-271.93 4179.61,-269.23 4169.92,-264.95 4169.37,-271.93"/>
</g>
<!-- Node629 -->
<g id="node36" class="node">
<title>Node629</title>
<g id="a_node36"><a xlink:href="s__copysign_8c.html" target="_top" xlink:title=" ">
<polygon fill="white" stroke="#666666" points="3929,-228 3804,-228 3804,-198 3929,-198 3929,-228"/>
<text text-anchor="start" x="3812" y="-216" font-family="Helvetica,sans-Serif" font-size="10.00">libs/MSL_C/Math/Double</text>
<text text-anchor="middle" x="3866.5" y="-205" font-family="Helvetica,sans-Serif" font-size="10.00">_precision/s_copysign.c</text>
</a>
</g>
</g>
<!-- Node1&#45;&gt;Node629 -->
<g id="edge38" class="edge">
<title>Node1&#45;&gt;Node629</title>
<path fill="none" stroke="#63b8ff" d="M4170.09,-264.77C4112.75,-256.32 4019.03,-242.11 3938.5,-228 3935.49,-227.47 3932.41,-226.92 3929.3,-226.35"/>
<polygon fill="#63b8ff" stroke="#63b8ff" points="4169.51,-268.22 4179.91,-266.21 4170.52,-261.29 4169.51,-268.22"/>
</g>
<!-- Node630 -->
<g id="node37" class="node">
<title>Node630</title>
<g id="a_node37"><a xlink:href="s__cos_8c.html" target="_top" xlink:title=" ">
<polygon fill="white" stroke="#666666" points="4072,-228 3947,-228 3947,-198 4072,-198 4072,-228"/>
<text text-anchor="start" x="3955" y="-216" font-family="Helvetica,sans-Serif" font-size="10.00">libs/MSL_C/Math/Double</text>
<text text-anchor="middle" x="4009.5" y="-205" font-family="Helvetica,sans-Serif" font-size="10.00">_precision/s_cos.c</text>
</a>
</g>
</g>
<!-- Node1&#45;&gt;Node630 -->
<g id="edge39" class="edge">
<title>Node1&#45;&gt;Node630</title>
<path fill="none" stroke="#63b8ff" d="M4180.01,-260.61C4145.98,-251.31 4098.53,-238.34 4062.32,-228.44"/>
<polygon fill="#63b8ff" stroke="#63b8ff" points="4178.97,-263.96 4189.54,-263.22 4180.81,-257.2 4178.97,-263.96"/>
</g>
<!-- Node631 -->
<g id="node38" class="node">
<title>Node631</title>
<g id="a_node38"><a xlink:href="s__floor_8c.html" target="_top" xlink:title=" ">
<polygon fill="white" stroke="#666666" points="4215,-228 4090,-228 4090,-198 4215,-198 4215,-228"/>
<text text-anchor="start" x="4098" y="-216" font-family="Helvetica,sans-Serif" font-size="10.00">libs/MSL_C/Math/Double</text>
<text text-anchor="middle" x="4152.5" y="-205" font-family="Helvetica,sans-Serif" font-size="10.00">_precision/s_floor.c</text>
</a>
</g>
</g>
<!-- Node1&#45;&gt;Node631 -->
<g id="edge40" class="edge">
<title>Node1&#45;&gt;Node631</title>
<path fill="none" stroke="#63b8ff" d="M4204.12,-256.53C4193.47,-247.76 4180.37,-236.96 4170.02,-228.44"/>
<polygon fill="#63b8ff" stroke="#63b8ff" points="4201.61,-258.99 4211.55,-262.65 4206.06,-253.59 4201.61,-258.99"/>
</g>
<!-- Node632 -->
<g id="node39" class="node">
<title>Node632</title>
<g id="a_node39"><a xlink:href="s__frexp_8c.html" target="_top" xlink:title=" ">
<polygon fill="white" stroke="#666666" points="4358,-228 4233,-228 4233,-198 4358,-198 4358,-228"/>
<text text-anchor="start" x="4241" y="-216" font-family="Helvetica,sans-Serif" font-size="10.00">libs/MSL_C/Math/Double</text>
<text text-anchor="middle" x="4295.5" y="-205" font-family="Helvetica,sans-Serif" font-size="10.00">_precision/s_frexp.c</text>
</a>
</g>
</g>
<!-- Node1&#45;&gt;Node632 -->
<g id="edge41" class="edge">
<title>Node1&#45;&gt;Node632</title>
<path fill="none" stroke="#63b8ff" d="M4243.15,-256.53C4253.95,-247.76 4267.24,-236.96 4277.73,-228.44"/>
<polygon fill="#63b8ff" stroke="#63b8ff" points="4241.16,-253.64 4235.61,-262.66 4245.58,-259.07 4241.16,-253.64"/>
</g>
<!-- Node633 -->
<g id="node40" class="node">
<title>Node633</title>
<g id="a_node40"><a xlink:href="s__modf_8c.html" target="_top" xlink:title=" ">
<polygon fill="white" stroke="#666666" points="4501,-228 4376,-228 4376,-198 4501,-198 4501,-228"/>
<text text-anchor="start" x="4384" y="-216" font-family="Helvetica,sans-Serif" font-size="10.00">libs/MSL_C/Math/Double</text>
<text text-anchor="middle" x="4438.5" y="-205" font-family="Helvetica,sans-Serif" font-size="10.00">_precision/s_modf.c</text>
</a>
</g>
</g>
<!-- Node1&#45;&gt;Node633 -->
<g id="edge42" class="edge">
<title>Node1&#45;&gt;Node633</title>
<path fill="none" stroke="#63b8ff" d="M4267.19,-260.61C4301.38,-251.31 4349.05,-238.34 4385.43,-228.44"/>
<polygon fill="#63b8ff" stroke="#63b8ff" points="4266.34,-257.21 4257.61,-263.22 4268.18,-263.97 4266.34,-257.21"/>
</g>
<!-- Node634 -->
<g id="node41" class="node">
<title>Node634</title>
<g id="a_node41"><a xlink:href="s__sin_8c.html" target="_top" xlink:title=" ">
<polygon fill="white" stroke="#666666" points="4644,-228 4519,-228 4519,-198 4644,-198 4644,-228"/>
<text text-anchor="start" x="4527" y="-216" font-family="Helvetica,sans-Serif" font-size="10.00">libs/MSL_C/Math/Double</text>
<text text-anchor="middle" x="4581.5" y="-205" font-family="Helvetica,sans-Serif" font-size="10.00">_precision/s_sin.c</text>
</a>
</g>
</g>
<!-- Node1&#45;&gt;Node634 -->
<g id="edge43" class="edge">
<title>Node1&#45;&gt;Node634</title>
<path fill="none" stroke="#63b8ff" d="M4276.93,-264.88C4334.65,-256.5 4429.26,-242.3 4510.5,-228 4513.22,-227.52 4516,-227.02 4518.81,-226.51"/>
<polygon fill="#63b8ff" stroke="#63b8ff" points="4276.79,-261.37 4267.39,-266.26 4277.79,-268.29 4276.79,-261.37"/>
</g>
<!-- Node635 -->
<g id="node42" class="node">
<title>Node635</title>
<g id="a_node42"><a xlink:href="s__tan_8c.html" target="_top" xlink:title=" ">
<polygon fill="white" stroke="#666666" points="4787,-228 4662,-228 4662,-198 4787,-198 4787,-228"/>
<text text-anchor="start" x="4670" y="-216" font-family="Helvetica,sans-Serif" font-size="10.00">libs/MSL_C/Math/Double</text>
<text text-anchor="middle" x="4724.5" y="-205" font-family="Helvetica,sans-Serif" font-size="10.00">_precision/s_tan.c</text>
</a>
</g>
</g>
<!-- Node1&#45;&gt;Node635 -->
<g id="edge44" class="edge">
<title>Node1&#45;&gt;Node635</title>
<path fill="none" stroke="#63b8ff" d="M4277.23,-268.53C4358.83,-262.14 4518.74,-248.22 4653.5,-228 4656.23,-227.59 4659.02,-227.15 4661.83,-226.68"/>
<polygon fill="#63b8ff" stroke="#63b8ff" points="4276.98,-265.04 4267.28,-269.3 4277.53,-272.02 4276.98,-265.04"/>
</g>
<!-- Node636 -->
<g id="node43" class="node">
<title>Node636</title>
<g id="a_node43"><a xlink:href="w__acos_8c.html" target="_top" xlink:title=" ">
<polygon fill="white" stroke="#666666" points="4930,-228 4805,-228 4805,-198 4930,-198 4930,-228"/>
<text text-anchor="start" x="4813" y="-216" font-family="Helvetica,sans-Serif" font-size="10.00">libs/MSL_C/Math/Double</text>
<text text-anchor="middle" x="4867.5" y="-205" font-family="Helvetica,sans-Serif" font-size="10.00">_precision/w_acos.c</text>
</a>
</g>
</g>
<!-- Node1&#45;&gt;Node636 -->
<g id="edge45" class="edge">
<title>Node1&#45;&gt;Node636</title>
<path fill="none" stroke="#63b8ff" d="M4277.22,-270.43C4378.95,-266.05 4606.56,-254.01 4796.5,-228 4799.24,-227.62 4802.03,-227.21 4804.85,-226.77"/>
<polygon fill="#63b8ff" stroke="#63b8ff" points="4277.09,-266.93 4267.25,-270.85 4277.39,-273.93 4277.09,-266.93"/>
</g>
<!-- Node637 -->
<g id="node44" class="node">
<title>Node637</title>
<g id="a_node44"><a xlink:href="w__asin_8c.html" target="_top" xlink:title=" ">
<polygon fill="white" stroke="#666666" points="5073,-228 4948,-228 4948,-198 5073,-198 5073,-228"/>
<text text-anchor="start" x="4956" y="-216" font-family="Helvetica,sans-Serif" font-size="10.00">libs/MSL_C/Math/Double</text>
<text text-anchor="middle" x="5010.5" y="-205" font-family="Helvetica,sans-Serif" font-size="10.00">_precision/w_asin.c</text>
</a>
</g>
</g>
<!-- Node1&#45;&gt;Node637 -->
<g id="edge46" class="edge">
<title>Node1&#45;&gt;Node637</title>
<path fill="none" stroke="#63b8ff" d="M4276.97,-271.6C4396.31,-269.05 4693.25,-259.79 4939.5,-228 4942.24,-227.65 4945.04,-227.25 4947.85,-226.82"/>
<polygon fill="#63b8ff" stroke="#63b8ff" points="4277.09,-268.09 4267.16,-271.8 4277.23,-275.09 4277.09,-268.09"/>
</g>
<!-- Node638 -->
<g id="node45" class="node">
<title>Node638</title>
<g id="a_node45"><a xlink:href="w__atan2_8c.html" target="_top" xlink:title=" ">
<polygon fill="white" stroke="#666666" points="5216,-228 5091,-228 5091,-198 5216,-198 5216,-228"/>
<text text-anchor="start" x="5099" y="-216" font-family="Helvetica,sans-Serif" font-size="10.00">libs/MSL_C/Math/Double</text>
<text text-anchor="middle" x="5153.5" y="-205" font-family="Helvetica,sans-Serif" font-size="10.00">_precision/w_atan2.c</text>
</a>
</g>
</g>
<!-- Node1&#45;&gt;Node638 -->
<g id="edge47" class="edge">
<title>Node1&#45;&gt;Node638</title>
<path fill="none" stroke="#63b8ff" d="M4276.93,-272.38C4412.27,-271.5 4779.37,-265.54 5082.5,-228 5085.24,-227.66 5088.04,-227.28 5090.86,-226.86"/>
<polygon fill="#63b8ff" stroke="#63b8ff" points="4277.19,-268.88 4267.21,-272.44 4277.23,-275.88 4277.19,-268.88"/>
</g>
<!-- Node639 -->
<g id="node46" class="node">
<title>Node639</title>
<g id="a_node46"><a xlink:href="w__exp_8c.html" target="_top" xlink:title=" ">
<polygon fill="white" stroke="#666666" points="5359,-228 5234,-228 5234,-198 5359,-198 5359,-228"/>
<text text-anchor="start" x="5242" y="-216" font-family="Helvetica,sans-Serif" font-size="10.00">libs/MSL_C/Math/Double</text>
<text text-anchor="middle" x="5296.5" y="-205" font-family="Helvetica,sans-Serif" font-size="10.00">_precision/w_exp.c</text>
</a>
</g>
</g>
<!-- Node1&#45;&gt;Node639 -->
<g id="edge48" class="edge">
<title>Node1&#45;&gt;Node639</title>
<path fill="none" stroke="#63b8ff" d="M4276.81,-272.94C4426.79,-273.59 4864.92,-271.31 5225.5,-228 5228.24,-227.67 5231.04,-227.29 5233.86,-226.88"/>
<polygon fill="#63b8ff" stroke="#63b8ff" points="4277.22,-269.45 4267.2,-272.9 4277.18,-276.45 4277.22,-269.45"/>
</g>
<!-- Node640 -->
<g id="node47" class="node">
<title>Node640</title>
<g id="a_node47"><a xlink:href="w__fmod_8c.html" target="_top" xlink:title=" ">
<polygon fill="white" stroke="#666666" points="5502,-228 5377,-228 5377,-198 5502,-198 5502,-228"/>
<text text-anchor="start" x="5385" y="-216" font-family="Helvetica,sans-Serif" font-size="10.00">libs/MSL_C/Math/Double</text>
<text text-anchor="middle" x="5439.5" y="-205" font-family="Helvetica,sans-Serif" font-size="10.00">_precision/w_fmod.c</text>
</a>
</g>
</g>
<!-- Node1&#45;&gt;Node640 -->
<g id="edge49" class="edge">
<title>Node1&#45;&gt;Node640</title>
<path fill="none" stroke="#63b8ff" d="M4277.34,-271.52C4473.97,-267.78 5153.09,-253.27 5368.5,-228 5371.25,-227.68 5374.04,-227.31 5376.86,-226.9"/>
<polygon fill="#63b8ff" stroke="#63b8ff" points="4277.34,-268.02 4267.41,-271.71 4277.48,-275.02 4277.34,-268.02"/>
</g>
<!-- Node641 -->
<g id="node48" class="node">
<title>Node641</title>
<g id="a_node48"><a xlink:href="w__pow_8c.html" target="_top" xlink:title=" ">
<polygon fill="white" stroke="#666666" points="5645,-228 5520,-228 5520,-198 5645,-198 5645,-228"/>
<text text-anchor="start" x="5528" y="-216" font-family="Helvetica,sans-Serif" font-size="10.00">libs/MSL_C/Math/Double</text>
<text text-anchor="middle" x="5582.5" y="-205" font-family="Helvetica,sans-Serif" font-size="10.00">_precision/w_pow.c</text>
</a>
</g>
</g>
<!-- Node1&#45;&gt;Node641 -->
<g id="edge50" class="edge">
<title>Node1&#45;&gt;Node641</title>
<path fill="none" stroke="#63b8ff" d="M4277.27,-271.79C4489.15,-268.82 5266.62,-256.19 5511.5,-228 5514.25,-227.68 5517.04,-227.32 5519.87,-226.92"/>
<polygon fill="#63b8ff" stroke="#63b8ff" points="4277.33,-268.29 4267.38,-271.93 4277.43,-275.29 4277.33,-268.29"/>
</g>
<!-- Node642 -->
<g id="node49" class="node">
<title>Node642</title>
<g id="a_node49"><a xlink:href="w__sqrt_8c.html" target="_top" xlink:title=" ">
<polygon fill="white" stroke="#666666" points="5788,-228 5663,-228 5663,-198 5788,-198 5788,-228"/>
<text text-anchor="start" x="5671" y="-216" font-family="Helvetica,sans-Serif" font-size="10.00">libs/MSL_C/Math/Double</text>
<text text-anchor="middle" x="5725.5" y="-205" font-family="Helvetica,sans-Serif" font-size="10.00">_precision/w_sqrt.c</text>
</a>
</g>
</g>
<!-- Node1&#45;&gt;Node642 -->
<g id="edge51" class="edge">
<title>Node1&#45;&gt;Node642</title>
<path fill="none" stroke="#63b8ff" d="M4277.18,-272.01C4503.4,-269.75 5380.02,-259.12 5654.5,-228 5657.25,-227.69 5660.05,-227.33 5662.87,-226.93"/>
<polygon fill="#63b8ff" stroke="#63b8ff" points="4277.14,-268.51 4267.18,-272.11 4277.21,-275.51 4277.14,-268.51"/>
</g>
<!-- Node643 -->
<g id="node50" class="node">
<title>Node643</title>
<g id="a_node50"><a xlink:href="math__ppc_8c.html" target="_top" xlink:title=" ">
<polygon fill="white" stroke="#666666" points="5925,-228 5806,-228 5806,-198 5925,-198 5925,-228"/>
<text text-anchor="start" x="5814" y="-216" font-family="Helvetica,sans-Serif" font-size="10.00">libs/MSL_C/PPC_EABI</text>
<text text-anchor="middle" x="5865.5" y="-205" font-family="Helvetica,sans-Serif" font-size="10.00">/Src/math_ppc.c</text>
</a>
</g>
</g>
<!-- Node1&#45;&gt;Node643 -->
<g id="edge52" class="edge">
<title>Node1&#45;&gt;Node643</title>
<path fill="none" stroke="#63b8ff" d="M4277.01,-272.24C4516.75,-270.9 5493.43,-263.33 5797.5,-228 5800.13,-227.69 5802.82,-227.34 5805.52,-226.94"/>
<polygon fill="#63b8ff" stroke="#63b8ff" points="4277.33,-268.74 4267.35,-272.3 4277.37,-275.74 4277.33,-268.74"/>
</g>
<!-- Node3 -->
<g id="node3" class="node">
<title>Node3</title>
<g id="a_node3"><a xlink:href="float_8h.html" target="_top" xlink:title=" ">
<polygon fill="white" stroke="#666666" points="2621.5,-156.5 2509.5,-156.5 2509.5,-137.5 2621.5,-137.5 2621.5,-156.5"/>
<text text-anchor="middle" x="2565.5" y="-144.5" font-family="Helvetica,sans-Serif" font-size="10.00">include/MSL_C/float.h</text>
</a>
</g>
</g>
<!-- Node2&#45;&gt;Node3 -->
<g id="edge2" class="edge">
<title>Node2&#45;&gt;Node3</title>
<path fill="none" stroke="#63b8ff" d="M2565.5,-186.59C2565.5,-176.06 2565.5,-164.53 2565.5,-156.84"/>
<polygon fill="#63b8ff" stroke="#63b8ff" points="2562,-186.28 2565.5,-196.28 2569,-186.28 2562,-186.28"/>
</g>
<!-- Node505 -->
<g id="node10" class="node">
<title>Node505</title>
<g id="a_node10"><a xlink:href="math_8h.html" target="_top" xlink:title=" ">
<polygon fill="#fff0f0" stroke="red" points="1346.5,-156.5 1230.5,-156.5 1230.5,-137.5 1346.5,-137.5 1346.5,-156.5"/>
<text text-anchor="middle" x="1288.5" y="-144.5" font-family="Helvetica,sans-Serif" font-size="10.00">include/MSL_C/math.h</text>
</a>
</g>
</g>
<!-- Node2&#45;&gt;Node505 -->
<g id="edge9" class="edge">
<title>Node2&#45;&gt;Node505</title>
<path fill="none" stroke="#63b8ff" d="M2478.17,-207.62C2234.32,-195.4 1550.68,-161.14 1346.68,-150.92"/>
<polygon fill="#63b8ff" stroke="#63b8ff" points="2477.77,-211.11 2487.93,-208.11 2478.12,-204.12 2477.77,-211.11"/>
</g>
<!-- Node620 -->
<g id="node27" class="node">
<title>Node620</title>
<g id="a_node27"><a xlink:href="float_8c.html" target="_top" xlink:title=" ">
<polygon fill="white" stroke="#666666" points="2775.5,-162 2639.5,-162 2639.5,-132 2775.5,-132 2775.5,-162"/>
<text text-anchor="start" x="2647.5" y="-150" font-family="Helvetica,sans-Serif" font-size="10.00">libs/MSL_C/MSL_Common</text>
<text text-anchor="middle" x="2707.5" y="-139" font-family="Helvetica,sans-Serif" font-size="10.00">/Src/float.c</text>
</a>
</g>
</g>
<!-- Node2&#45;&gt;Node620 -->
<g id="edge29" class="edge">
<title>Node2&#45;&gt;Node620</title>
<path fill="none" stroke="#63b8ff" d="M2607.68,-192.99C2629.48,-183.16 2655.66,-171.36 2675.74,-162.31"/>
<polygon fill="#63b8ff" stroke="#63b8ff" points="2606.43,-189.72 2598.75,-197.02 2609.3,-196.1 2606.43,-189.72"/>
</g>
<!-- Node4 -->
<g id="node4" class="node">
<title>Node4</title>
<g id="a_node4"><a xlink:href="JGeometry_8h.html" target="_top" xlink:title=" ">
<polygon fill="#fff0f0" stroke="red" points="2456.5,-90.5 2310.5,-90.5 2310.5,-71.5 2456.5,-71.5 2456.5,-90.5"/>
<text text-anchor="middle" x="2383.5" y="-78.5" font-family="Helvetica,sans-Serif" font-size="10.00">include/JSystem/JGeometry.h</text>
</a>
</g>
</g>
<!-- Node3&#45;&gt;Node4 -->
<g id="edge3" class="edge">
<title>Node3&#45;&gt;Node4</title>
<path fill="none" stroke="#63b8ff" d="M2529.77,-133.43C2494.15,-120.91 2440.34,-101.99 2408.88,-90.93"/>
<polygon fill="#63b8ff" stroke="#63b8ff" points="2528.17,-136.58 2538.77,-136.6 2530.49,-129.98 2528.17,-136.58"/>
</g>
<!-- Node500 -->
<g id="node5" class="node">
<title>Node500</title>
<g id="a_node5"><a xlink:href="JSGCamera_8cpp.html" target="_top" xlink:title=" ">
<polygon fill="white" stroke="#666666" points="2744,-96 2637,-96 2637,-66 2744,-66 2744,-96"/>
<text text-anchor="start" x="2645" y="-84" font-family="Helvetica,sans-Serif" font-size="10.00">libs/JSystem/JStage</text>
<text text-anchor="middle" x="2690.5" y="-73" font-family="Helvetica,sans-Serif" font-size="10.00">/JSGCamera.cpp</text>
</a>
</g>
</g>
<!-- Node3&#45;&gt;Node500 -->
<g id="edge4" class="edge">
<title>Node3&#45;&gt;Node500</title>
<path fill="none" stroke="#63b8ff" d="M2592.86,-131.99C2613.41,-121.47 2641.46,-107.11 2662.22,-96.48"/>
<polygon fill="#63b8ff" stroke="#63b8ff" points="2591.53,-128.74 2584.23,-136.41 2594.72,-134.97 2591.53,-128.74"/>
</g>
<!-- Node501 -->
<g id="node6" class="node">
<title>Node501</title>
<g id="a_node6"><a xlink:href="JSGFog_8cpp.html" target="_top" xlink:title=" ">
<polygon fill="white" stroke="#666666" points="2908,-96 2801,-96 2801,-66 2908,-66 2908,-96"/>
<text text-anchor="start" x="2809" y="-84" font-family="Helvetica,sans-Serif" font-size="10.00">libs/JSystem/JStage</text>
<text text-anchor="middle" x="2854.5" y="-73" font-family="Helvetica,sans-Serif" font-size="10.00">/JSGFog.cpp</text>
</a>
</g>
</g>
<!-- Node3&#45;&gt;Node501 -->
<g id="edge5" class="edge">
<title>Node3&#45;&gt;Node501</title>
<path fill="none" stroke="#63b8ff" d="M2617.22,-134.55C2668.91,-123.1 2748.03,-105.58 2800.51,-93.96"/>
<polygon fill="#63b8ff" stroke="#63b8ff" points="2616.47,-131.13 2607.47,-136.71 2617.99,-137.96 2616.47,-131.13"/>
</g>
<!-- Node502 -->
<g id="node7" class="node">
<title>Node502</title>
<g id="a_node7"><a xlink:href="JUTException_8cpp.html" target="_top" xlink:title=" ">
<polygon fill="white" stroke="#666666" points="2618.5,-96 2512.5,-96 2512.5,-66 2618.5,-66 2618.5,-96"/>
<text text-anchor="start" x="2520.5" y="-84" font-family="Helvetica,sans-Serif" font-size="10.00">libs/JSystem/JUtility</text>
<text text-anchor="middle" x="2565.5" y="-73" font-family="Helvetica,sans-Serif" font-size="10.00">/JUTException.cpp</text>
</a>
</g>
</g>
<!-- Node3&#45;&gt;Node502 -->
<g id="edge6" class="edge">
<title>Node3&#45;&gt;Node502</title>
<path fill="none" stroke="#63b8ff" d="M2565.5,-125.78C2565.5,-116.17 2565.5,-104.92 2565.5,-96.23"/>
<polygon fill="#63b8ff" stroke="#63b8ff" points="2562,-125.59 2565.5,-135.59 2569,-125.59 2562,-125.59"/>
</g>
<!-- Node503 -->
<g id="node8" class="node">
<title>Node503</title>
<g id="a_node8"><a xlink:href="c__m3d_8cpp.html" target="_top" xlink:title=" ">
<polygon fill="white" stroke="#666666" points="1580.5,-30 1446.5,-30 1446.5,0 1580.5,0 1580.5,-30"/>
<text text-anchor="start" x="1454.5" y="-18" font-family="Helvetica,sans-Serif" font-size="10.00">libs/SSystem/SComponent</text>
<text text-anchor="middle" x="1513.5" y="-7" font-family="Helvetica,sans-Serif" font-size="10.00">/c_m3d.cpp</text>
</a>
</g>
</g>
<!-- Node3&#45;&gt;Node503 -->
<g id="edge7" class="edge">
<title>Node3&#45;&gt;Node503</title>
<path fill="none" stroke="#63b8ff" d="M2545.74,-130.07C2516.94,-106.86 2466.68,-66.45 2465.5,-66 2383.52,-34.8 1784.45,-20.99 1580.94,-17.16"/>
<polygon fill="#63b8ff" stroke="#63b8ff" points="2543.42,-132.7 2553.41,-136.25 2547.82,-127.25 2543.42,-132.7"/>
</g>
<!-- Node504 -->
<g id="node9" class="node">
<title>Node504</title>
<g id="a_node9"><a xlink:href="c__xyz_8cpp.html" target="_top" xlink:title=" ">
<polygon fill="white" stroke="#666666" points="2561.5,-30 2427.5,-30 2427.5,0 2561.5,0 2561.5,-30"/>
<text text-anchor="start" x="2435.5" y="-18" font-family="Helvetica,sans-Serif" font-size="10.00">libs/SSystem/SComponent</text>
<text text-anchor="middle" x="2494.5" y="-7" font-family="Helvetica,sans-Serif" font-size="10.00">/c_xyz.cpp</text>
</a>
</g>
</g>
<!-- Node3&#45;&gt;Node504 -->
<g id="edge8" class="edge">
<title>Node3&#45;&gt;Node504</title>
<path fill="none" stroke="#63b8ff" d="M2614.84,-134.45C2669.08,-121.52 2749.16,-101.64 2753.5,-96 2761.63,-85.43 2761.99,-76.28 2753.5,-66 2729.63,-37.08 2630.33,-24.7 2561.86,-19.53"/>
<polygon fill="#63b8ff" stroke="#63b8ff" points="2614.09,-131.03 2605.17,-136.75 2615.71,-137.84 2614.09,-131.03"/>
</g>
<!-- Node505&#45;&gt;Node4 -->
<g id="edge10" class="edge">
<title>Node505&#45;&gt;Node4</title>
<path fill="none" stroke="#63b8ff" d="M1358.26,-145.38C1522.81,-143.29 1947.84,-134.32 2300.5,-96 2312.12,-94.74 2324.59,-92.9 2336.23,-90.96"/>
<polygon fill="#63b8ff" stroke="#63b8ff" points="1358.34,-141.88 1348.39,-145.5 1358.43,-148.88 1358.34,-141.88"/>
</g>
<!-- Node506 -->
<g id="node11" class="node">
<title>Node506</title>
<g id="a_node11"><a xlink:href="c__m3d_8h.html" target="_top" xlink:title=" ">
<polygon fill="#fff0f0" stroke="red" points="481,-96 332,-96 332,-66 481,-66 481,-96"/>
<text text-anchor="start" x="340" y="-84" font-family="Helvetica,sans-Serif" font-size="10.00">include/SSystem/SComponent</text>
<text text-anchor="middle" x="406.5" y="-73" font-family="Helvetica,sans-Serif" font-size="10.00">/c_m3d.h</text>
</a>
</g>
</g>
<!-- Node505&#45;&gt;Node506 -->
<g id="edge11" class="edge">
<title>Node505&#45;&gt;Node506</title>
<path fill="none" stroke="#63b8ff" d="M1218.88,-144.09C1079.85,-139.74 758.09,-126.97 489.5,-96 486.74,-95.68 483.94,-95.33 481.1,-94.96"/>
<polygon fill="#63b8ff" stroke="#63b8ff" points="1218.55,-147.58 1228.66,-144.39 1218.77,-140.59 1218.55,-147.58"/>
</g>
<!-- Node535 -->
<g id="node12" class="node">
<title>Node535</title>
<g id="a_node12"><a xlink:href="c__xyz_8h.html" target="_top" xlink:title=" ">
<polygon fill="#fff0f0" stroke="red" points="2292,-96 2143,-96 2143,-66 2292,-66 2292,-96"/>
<text text-anchor="start" x="2151" y="-84" font-family="Helvetica,sans-Serif" font-size="10.00">include/SSystem/SComponent</text>
<text text-anchor="middle" x="2217.5" y="-73" font-family="Helvetica,sans-Serif" font-size="10.00">/c_xyz.h</text>
</a>
</g>
</g>
<!-- Node505&#45;&gt;Node535 -->
<g id="edge13" class="edge">
<title>Node505&#45;&gt;Node535</title>
<path fill="none" stroke="#63b8ff" d="M1358.14,-144.38C1502.93,-140.45 1846.82,-128.28 2133.5,-96 2136.59,-95.65 2139.73,-95.27 2142.9,-94.85"/>
<polygon fill="#63b8ff" stroke="#63b8ff" points="1358.24,-140.87 1348.33,-144.64 1358.42,-147.87 1358.24,-140.87"/>
</g>
<!-- Node599 -->
<g id="node13" class="node">
<title>Node599</title>
<g id="a_node13"><a xlink:href="J2DTevs_8cpp.html" target="_top" xlink:title=" ">
<polygon fill="white" stroke="#666666" points="119,-96 0,-96 0,-66 119,-66 119,-96"/>
<text text-anchor="start" x="8" y="-84" font-family="Helvetica,sans-Serif" font-size="10.00">libs/JSystem/J2DGraph</text>
<text text-anchor="middle" x="59.5" y="-73" font-family="Helvetica,sans-Serif" font-size="10.00">/J2DTevs.cpp</text>
</a>
</g>
</g>
<!-- Node505&#45;&gt;Node599 -->
<g id="edge15" class="edge">
<title>Node505&#45;&gt;Node599</title>
<path fill="none" stroke="#63b8ff" d="M1218.84,-144.43C1002.1,-139.34 341.43,-122.03 128.5,-96 125.47,-95.63 122.37,-95.2 119.25,-94.72"/>
<polygon fill="#63b8ff" stroke="#63b8ff" points="1218.76,-147.93 1228.84,-144.67 1218.92,-140.94 1218.76,-147.93"/>
</g>
<!-- Node600 -->
<g id="node14" class="node">
<title>Node600</title>
<g id="a_node14"><a xlink:href="J3DUClipper_8cpp.html" target="_top" xlink:title=" ">
<polygon fill="white" stroke="#666666" points="313.5,-90.5 137.5,-90.5 137.5,-71.5 313.5,-71.5 313.5,-90.5"/>
<text text-anchor="middle" x="225.5" y="-78.5" font-family="Helvetica,sans-Serif" font-size="10.00">libs/JSystem/J3DU/J3DUClipper.cpp</text>
</a>
</g>
</g>
<!-- Node505&#45;&gt;Node600 -->
<g id="edge16" class="edge">
<title>Node505&#45;&gt;Node600</title>
<path fill="none" stroke="#63b8ff" d="M1218.61,-144.58C1059.3,-140.85 657.17,-128.74 322.5,-96 309.21,-94.7 294.95,-92.88 281.56,-90.98"/>
<polygon fill="#63b8ff" stroke="#63b8ff" points="1218.51,-148.08 1228.59,-144.81 1218.68,-141.08 1218.51,-148.08"/>
</g>
<!-- Node601 -->
<g id="node15" class="node">
<title>Node601</title>
<g id="a_node15"><a xlink:href="JASCalc_8cpp.html" target="_top" xlink:title=" ">
<polygon fill="white" stroke="#666666" points="610,-96 499,-96 499,-66 610,-66 610,-96"/>
<text text-anchor="start" x="507" y="-84" font-family="Helvetica,sans-Serif" font-size="10.00">libs/JSystem/JAudio2</text>
<text text-anchor="middle" x="554.5" y="-73" font-family="Helvetica,sans-Serif" font-size="10.00">/JASCalc.cpp</text>
</a>
</g>
</g>
<!-- Node505&#45;&gt;Node601 -->
<g id="edge17" class="edge">
<title>Node505&#45;&gt;Node601</title>
<path fill="none" stroke="#63b8ff" d="M1219.02,-144.04C1096.95,-139.87 836.26,-127.78 618.5,-96 615.8,-95.61 613.04,-95.16 610.26,-94.68"/>
<polygon fill="#63b8ff" stroke="#63b8ff" points="1218.77,-147.53 1228.88,-144.37 1219,-140.54 1218.77,-147.53"/>
</g>
<!-- Node602 -->
<g id="node16" class="node">
<title>Node602</title>
<g id="a_node16"><a xlink:href="JKRAramArchive_8cpp.html" target="_top" xlink:title=" ">
<polygon fill="white" stroke="#666666" points="741,-96 628,-96 628,-66 741,-66 741,-96"/>
<text text-anchor="start" x="636" y="-84" font-family="Helvetica,sans-Serif" font-size="10.00">libs/JSystem/JKernel</text>
<text text-anchor="middle" x="684.5" y="-73" font-family="Helvetica,sans-Serif" font-size="10.00">/JKRAramArchive.cpp</text>
</a>
</g>
</g>
<!-- Node505&#45;&gt;Node602 -->
<g id="edge18" class="edge">
<title>Node505&#45;&gt;Node602</title>
<path fill="none" stroke="#63b8ff" d="M1218.92,-142.21C1115.91,-136.01 916.98,-121.71 749.5,-96 746.88,-95.6 744.2,-95.15 741.5,-94.68"/>
<polygon fill="#63b8ff" stroke="#63b8ff" points="1218.69,-145.71 1228.88,-142.81 1219.11,-138.72 1218.69,-145.71"/>
</g>
<!-- Node603 -->
<g id="node17" class="node">
<title>Node603</title>
<g id="a_node17"><a xlink:href="JKRCompArchive_8cpp.html" target="_top" xlink:title=" ">
<polygon fill="white" stroke="#666666" points="874,-96 759,-96 759,-66 874,-66 874,-96"/>
<text text-anchor="start" x="767" y="-84" font-family="Helvetica,sans-Serif" font-size="10.00">libs/JSystem/JKernel</text>
<text text-anchor="middle" x="816.5" y="-73" font-family="Helvetica,sans-Serif" font-size="10.00">/JKRCompArchive.cpp</text>
</a>
</g>
</g>
<!-- Node505&#45;&gt;Node603 -->
<g id="edge19" class="edge">
<title>Node505&#45;&gt;Node603</title>
<path fill="none" stroke="#63b8ff" d="M1219.06,-139.3C1138.01,-131.04 1000.07,-115.67 882.5,-96 879.84,-95.56 877.13,-95.08 874.39,-94.58"/>
<polygon fill="#63b8ff" stroke="#63b8ff" points="1218.31,-142.74 1228.61,-140.26 1219.01,-135.77 1218.31,-142.74"/>
</g>
<!-- Node604 -->
<g id="node18" class="node">
<title>Node604</title>
<g id="a_node18"><a xlink:href="JKRDvdArchive_8cpp.html" target="_top" xlink:title=" ">
<polygon fill="white" stroke="#666666" points="1001,-96 892,-96 892,-66 1001,-66 1001,-96"/>
<text text-anchor="start" x="900" y="-84" font-family="Helvetica,sans-Serif" font-size="10.00">libs/JSystem/JKernel</text>
<text text-anchor="middle" x="946.5" y="-73" font-family="Helvetica,sans-Serif" font-size="10.00">/JKRDvdArchive.cpp</text>
</a>
</g>
</g>
<!-- Node505&#45;&gt;Node604 -->
<g id="edge20" class="edge">
<title>Node505&#45;&gt;Node604</title>
<path fill="none" stroke="#63b8ff" d="M1223.33,-135.1C1166.69,-125.45 1082.51,-110.65 1009.5,-96 1006.86,-95.47 1004.17,-94.92 1001.45,-94.35"/>
<polygon fill="#63b8ff" stroke="#63b8ff" points="1222.69,-138.55 1233.14,-136.77 1223.86,-131.65 1222.69,-138.55"/>
</g>
<!-- Node605 -->
<g id="node19" class="node">
<title>Node605</title>
<g id="a_node19"><a xlink:href="JMATrigonometric_8cpp.html" target="_top" xlink:title=" ">
<polygon fill="white" stroke="#666666" points="1136,-96 1019,-96 1019,-66 1136,-66 1136,-96"/>
<text text-anchor="start" x="1027" y="-84" font-family="Helvetica,sans-Serif" font-size="10.00">libs/JSystem/JMath</text>
<text text-anchor="middle" x="1077.5" y="-73" font-family="Helvetica,sans-Serif" font-size="10.00">/JMATrigonometric.cpp</text>
</a>
</g>
</g>
<!-- Node505&#45;&gt;Node605 -->
<g id="edge21" class="edge">
<title>Node505&#45;&gt;Node605</title>
<path fill="none" stroke="#63b8ff" d="M1248.38,-133.83C1213.32,-123.2 1162.37,-107.74 1125.23,-96.48"/>
<polygon fill="#63b8ff" stroke="#63b8ff" points="1247.13,-137.11 1257.71,-136.66 1249.16,-130.41 1247.13,-137.11"/>
</g>
<!-- Node606 -->
<g id="node20" class="node">
<title>Node606</title>
<g id="a_node20"><a xlink:href="functionvalue_8cpp.html" target="_top" xlink:title=" ">
<polygon fill="white" stroke="#666666" points="1285,-96 1154,-96 1154,-66 1285,-66 1285,-96"/>
<text text-anchor="start" x="1162" y="-84" font-family="Helvetica,sans-Serif" font-size="10.00">libs/JSystem/JStudio</text>
<text text-anchor="middle" x="1219.5" y="-73" font-family="Helvetica,sans-Serif" font-size="10.00">/JStudio/functionvalue.cpp</text>
</a>
</g>
</g>
<!-- Node505&#45;&gt;Node606 -->
<g id="edge22" class="edge">
<title>Node505&#45;&gt;Node606</title>
<path fill="none" stroke="#63b8ff" d="M1270.51,-129.31C1259.52,-119.12 1245.62,-106.23 1235.11,-96.48"/>
<polygon fill="#63b8ff" stroke="#63b8ff" points="1268.08,-131.84 1277.8,-136.07 1272.84,-126.71 1268.08,-131.84"/>
</g>
<!-- Node607 -->
<g id="node21" class="node">
<title>Node607</title>
<g id="a_node21"><a xlink:href="JUTGamePad_8cpp.html" target="_top" xlink:title=" ">
<polygon fill="white" stroke="#666666" points="1409.5,-96 1303.5,-96 1303.5,-66 1409.5,-66 1409.5,-96"/>
<text text-anchor="start" x="1311.5" y="-84" font-family="Helvetica,sans-Serif" font-size="10.00">libs/JSystem/JUtility</text>
<text text-anchor="middle" x="1356.5" y="-73" font-family="Helvetica,sans-Serif" font-size="10.00">/JUTGamePad.cpp</text>
</a>
</g>
</g>
<!-- Node505&#45;&gt;Node607 -->
<g id="edge23" class="edge">
<title>Node505&#45;&gt;Node607</title>
<path fill="none" stroke="#63b8ff" d="M1306.23,-129.31C1317.06,-119.12 1330.75,-106.23 1341.12,-96.48"/>
<polygon fill="#63b8ff" stroke="#63b8ff" points="1303.94,-126.66 1299.06,-136.06 1308.74,-131.76 1303.94,-126.66"/>
</g>
<!-- Node608 -->
<g id="node22" class="node">
<title>Node608</title>
<g id="a_node22"><a xlink:href="e__acos_8c.html" target="_top" xlink:title=" ">
<polygon fill="white" stroke="#666666" points="1553,-96 1428,-96 1428,-66 1553,-66 1553,-96"/>
<text text-anchor="start" x="1436" y="-84" font-family="Helvetica,sans-Serif" font-size="10.00">libs/MSL_C/Math/Double</text>
<text text-anchor="middle" x="1490.5" y="-73" font-family="Helvetica,sans-Serif" font-size="10.00">_precision/e_acos.c</text>
</a>
</g>
</g>
<!-- Node505&#45;&gt;Node608 -->
<g id="edge24" class="edge">
<title>Node505&#45;&gt;Node608</title>
<path fill="none" stroke="#63b8ff" d="M1327.35,-133.69C1360.89,-123.06 1409.4,-107.69 1444.81,-96.48"/>
<polygon fill="#63b8ff" stroke="#63b8ff" points="1326.51,-130.29 1318.03,-136.64 1328.62,-136.96 1326.51,-130.29"/>
</g>
<!-- Node609 -->
<g id="node23" class="node">
<title>Node609</title>
<g id="a_node23"><a xlink:href="e__asin_8c.html" target="_top" xlink:title=" ">
<polygon fill="white" stroke="#666666" points="1696,-96 1571,-96 1571,-66 1696,-66 1696,-96"/>
<text text-anchor="start" x="1579" y="-84" font-family="Helvetica,sans-Serif" font-size="10.00">libs/MSL_C/Math/Double</text>
<text text-anchor="middle" x="1633.5" y="-73" font-family="Helvetica,sans-Serif" font-size="10.00">_precision/e_asin.c</text>
</a>
</g>
</g>
<!-- Node505&#45;&gt;Node609 -->
<g id="edge25" class="edge">
<title>Node505&#45;&gt;Node609</title>
<path fill="none" stroke="#63b8ff" d="M1349.37,-135.05C1404.71,-125.04 1488.63,-109.76 1561.5,-96 1564.5,-95.43 1567.58,-94.85 1570.68,-94.26"/>
<polygon fill="#63b8ff" stroke="#63b8ff" points="1349.05,-131.55 1339.84,-136.77 1350.3,-138.44 1349.05,-131.55"/>
</g>
<!-- Node610 -->
<g id="node24" class="node">
<title>Node610</title>
<g id="a_node24"><a xlink:href="e__pow_8c.html" target="_top" xlink:title=" ">
<polygon fill="white" stroke="#666666" points="1839,-96 1714,-96 1714,-66 1839,-66 1839,-96"/>
<text text-anchor="start" x="1722" y="-84" font-family="Helvetica,sans-Serif" font-size="10.00">libs/MSL_C/Math/Double</text>
<text text-anchor="middle" x="1776.5" y="-73" font-family="Helvetica,sans-Serif" font-size="10.00">_precision/e_pow.c</text>
</a>
</g>
</g>
<!-- Node505&#45;&gt;Node610 -->
<g id="edge26" class="edge">
<title>Node505&#45;&gt;Node610</title>
<path fill="none" stroke="#63b8ff" d="M1358.18,-139.18C1440.98,-130.72 1583.19,-115.06 1704.5,-96 1707.52,-95.53 1710.61,-95.02 1713.72,-94.49"/>
<polygon fill="#63b8ff" stroke="#63b8ff" points="1358,-135.68 1348.41,-140.18 1358.71,-142.65 1358,-135.68"/>
</g>
<!-- Node611 -->
<g id="node25" class="node">
<title>Node611</title>
<g id="a_node25"><a xlink:href="e__rem__pio2_8c.html" target="_top" xlink:title=" ">
<polygon fill="white" stroke="#666666" points="1982,-96 1857,-96 1857,-66 1982,-66 1982,-96"/>
<text text-anchor="start" x="1865" y="-84" font-family="Helvetica,sans-Serif" font-size="10.00">libs/MSL_C/Math/Double</text>
<text text-anchor="middle" x="1919.5" y="-73" font-family="Helvetica,sans-Serif" font-size="10.00">_precision/e_rem_pio2.c</text>
</a>
</g>
</g>
<!-- Node505&#45;&gt;Node611 -->
<g id="edge27" class="edge">
<title>Node505&#45;&gt;Node611</title>
<path fill="none" stroke="#63b8ff" d="M1358.15,-142.08C1464.17,-135.59 1672.22,-120.81 1847.5,-96 1850.53,-95.57 1853.62,-95.1 1856.74,-94.6"/>
<polygon fill="#63b8ff" stroke="#63b8ff" points="1357.95,-138.59 1348.18,-142.68 1358.37,-145.57 1357.95,-138.59"/>
</g>
<!-- Node612 -->
<g id="node26" class="node">
<title>Node612</title>
<g id="a_node26"><a xlink:href="e__sqrt_8c.html" target="_top" xlink:title=" ">
<polygon fill="white" stroke="#666666" points="2125,-96 2000,-96 2000,-66 2125,-66 2125,-96"/>
<text text-anchor="start" x="2008" y="-84" font-family="Helvetica,sans-Serif" font-size="10.00">libs/MSL_C/Math/Double</text>
<text text-anchor="middle" x="2062.5" y="-73" font-family="Helvetica,sans-Serif" font-size="10.00">_precision/e_sqrt.c</text>
</a>
</g>
</g>
<!-- Node505&#45;&gt;Node612 -->
<g id="edge28" class="edge">
<title>Node505&#45;&gt;Node612</title>
<path fill="none" stroke="#63b8ff" d="M1358.4,-143.82C1484.95,-139.26 1760.28,-126.47 1990.5,-96 1993.53,-95.6 1996.62,-95.15 1999.74,-94.67"/>
<polygon fill="#63b8ff" stroke="#63b8ff" points="1358.37,-140.32 1348.5,-144.17 1358.62,-147.32 1358.37,-140.32"/>
</g>
<!-- Node506&#45;&gt;Node503 -->
<g id="edge12" class="edge">
<title>Node506&#45;&gt;Node503</title>
<path fill="none" stroke="#63b8ff" d="M492.43,-65.77C857.58,-26.9 1283.81,-18.42 1446.19,-16.54"/>
<polygon fill="#63b8ff" stroke="#63b8ff" points="492.17,-62.28 482.6,-66.83 492.92,-69.24 492.17,-62.28"/>
</g>
<!-- Node535&#45;&gt;Node504 -->
<g id="edge14" class="edge">
<title>Node535&#45;&gt;Node504</title>
<path fill="none" stroke="#63b8ff" d="M2291.22,-62.97C2335.2,-52.81 2390.43,-40.04 2432.22,-30.39"/>
<polygon fill="#63b8ff" stroke="#63b8ff" points="2290.44,-59.56 2281.48,-65.22 2292.02,-66.38 2290.44,-59.56"/>
</g>
</g>
</svg>
        <g id="navigator" transform="translate(0 0)" fill="#404254">
                <rect fill="#f2f5e9" fill-opacity="0.5" stroke="#606060" stroke-width=".5" x="0" y="0" width="60" height="60"/>
                <use id="zoomplus" xlink:href="#zoomPlus" x="17" y="9" onmousedown="handleZoom(evt,'in')"/>
                <use id="zoomminus" xlink:href="#zoomMin" x="42" y="9" onmousedown="handleZoom(evt,'out')"/>
                <use id="reset" xlink:href="#resetDef" x="30" y="36" onmousedown="handleReset()"/>
                <g id="arrowUp" xlink:href="#dirArrow" transform="translate(30 24)" onmousedown="handlePan(0,-1)">
                  <use xlink:href="#rim" fill="#404040">
                        <set attributeName="fill" to="#808080" begin="arrowUp.mouseover" end="arrowUp.mouseout"/>
                  </use>
                  <path fill="none" stroke="white" stroke-width="1.5" d="M0,-3.0v7 M-2.5,-0.5L0,-3.0L2.5,-0.5"/>
                </g>
                <g id="arrowRight" xlink:href="#dirArrow" transform="rotate(90) translate(36 -43)" onmousedown="handlePan(1,0)">
                  <use xlink:href="#rim" fill="#404040">
                        <set attributeName="fill" to="#808080" begin="arrowRight.mouseover" end="arrowRight.mouseout"/>
                  </use>
                  <path fill="none" stroke="white" stroke-width="1.5" d="M0,-3.0v7 M-2.5,-0.5L0,-3.0L2.5,-0.5"/>
                </g>
                <g id="arrowDown" xlink:href="#dirArrow" transform="rotate(180) translate(-30 -48)" onmousedown="handlePan(0,1)">
                  <use xlink:href="#rim" fill="#404040">
                        <set attributeName="fill" to="#808080" begin="arrowDown.mouseover" end="arrowDown.mouseout"/>
                  </use>
                  <path fill="none" stroke="white" stroke-width="1.5" d="M0,-3.0v7 M-2.5,-0.5L0,-3.0L2.5,-0.5"/>
                </g>
                <g id="arrowLeft" xlink:href="#dirArrow" transform="rotate(270) translate(-36 17)" onmousedown="handlePan(-1,0)">
                  <use xlink:href="#rim" fill="#404040">
                        <set attributeName="fill" to="#808080" begin="arrowLeft.mouseover" end="arrowLeft.mouseout"/>
                  </use>
                  <path fill="none" stroke="white" stroke-width="1.5" d="M0,-3.0v7 M-2.5,-0.5L0,-3.0L2.5,-0.5"/>
                </g>
        </g>
        <svg viewBox="0 0 15 15" width="100%" height="30px" preserveAspectRatio="xMaxYMin meet">
         <g id="arrow_out" transform="scale(0.3 0.3)">
          <a xlink:href="fdlibm_8h__dep__incl_org.svg" target="_base">
           <rect id="button" ry="5" rx="5" y="6" x="6" height="38" width="38"
                fill="#f2f5e9" fill-opacity="0.5" stroke="#606060" stroke-width="1.0"/>
           <path id="arrow"
             d="M 11.500037,31.436501 C 11.940474,20.09759 22.043105,11.32322 32.158766,21.979434 L 37.068811,17.246167 C 37.068811,17.246167 37.088388,32 37.088388,32 L 22.160133,31.978069 C 22.160133,31.978069 26.997745,27.140456 26.997745,27.140456 C 18.528582,18.264221 13.291696,25.230495 11.500037,31.436501 z"
             style="fill:#404040;"/>
          </a>
         </g>
        </svg>
</svg>
