<?xml version="1.0" encoding="UTF-8" standalone="no"?>
<!DOCTYPE svg PUBLIC "-//W3C//DTD SVG 1.1//EN"
 "http://www.w3.org/Graphics/SVG/1.1/DTD/svg11.dtd">
<!-- Generated by graphviz version 7.0.5 (20221223.1930)
 -->
<!-- Title: include/dolphin/gd/GDBase.h Pages: 1 -->
<svg width="3947pt" height="434pt"
 viewBox="0.00 0.00 3946.71 434.00" xmlns="http://www.w3.org/2000/svg" xmlns:xlink="http://www.w3.org/1999/xlink">
<g id="graph0" class="graph" transform="scale(1 1) rotate(0) translate(4 430)">
<title>include/dolphin/gd/GDBase.h</title>
<!-- Node1 -->
<g id="node1" class="node">
<title>Node1</title>
<g id="a_node1"><a xlink:title=" ">
<polygon fill="#999999" stroke="#666666" points="1832.21,-426 1737.21,-426 1737.21,-396 1832.21,-396 1832.21,-426"/>
<text text-anchor="start" x="1745.21" y="-414" font-family="Helvetica,sans-Serif" font-size="10.00">include/dolphin/gd</text>
<text text-anchor="middle" x="1784.71" y="-403" font-family="Helvetica,sans-Serif" font-size="10.00">/GDBase.h</text>
</a>
</g>
</g>
<!-- Node2 -->
<g id="node2" class="node">
<title>Node2</title>
<g id="a_node2"><a xlink:href="J3DPacket_8h.html" target="_top" xlink:title=" ">
<polygon fill="white" stroke="#666666" points="1623.21,-360 1488.21,-360 1488.21,-330 1623.21,-330 1623.21,-360"/>
<text text-anchor="start" x="1496.21" y="-348" font-family="Helvetica,sans-Serif" font-size="10.00">include/JSystem/J3DGraph</text>
<text text-anchor="middle" x="1555.71" y="-337" font-family="Helvetica,sans-Serif" font-size="10.00">Base/J3DPacket.h</text>
</a>
</g>
</g>
<!-- Node1&#45;&gt;Node2 -->
<g id="edge1" class="edge">
<title>Node1&#45;&gt;Node2</title>
<path fill="none" stroke="#63b8ff" d="M1725.96,-393.58C1689.31,-383.34 1642.59,-370.28 1607.36,-360.43"/>
<polygon fill="#63b8ff" stroke="#63b8ff" points="1724.96,-396.93 1735.53,-396.25 1726.84,-390.19 1724.96,-396.93"/>
</g>
<!-- Node300 -->
<g id="node49" class="node">
<title>Node300</title>
<g id="a_node49"><a xlink:href="J3DShape_8cpp.html" target="_top" xlink:title=" ">
<polygon fill="white" stroke="#666666" points="2077.71,-294 1935.71,-294 1935.71,-264 2077.71,-264 2077.71,-294"/>
<text text-anchor="start" x="1943.71" y="-282" font-family="Helvetica,sans-Serif" font-size="10.00">libs/JSystem/J3DGraphBase</text>
<text text-anchor="middle" x="2006.71" y="-271" font-family="Helvetica,sans-Serif" font-size="10.00">/J3DShape.cpp</text>
</a>
</g>
</g>
<!-- Node1&#45;&gt;Node300 -->
<g id="edge67" class="edge">
<title>Node1&#45;&gt;Node300</title>
<path fill="none" stroke="#63b8ff" d="M1784.22,-384.31C1785.29,-366.75 1789.65,-344.18 1803.71,-330 1813.25,-320.38 1880.67,-304.99 1935.23,-293.82"/>
<polygon fill="#63b8ff" stroke="#63b8ff" points="1780.72,-384.16 1783.96,-394.24 1787.72,-384.33 1780.72,-384.16"/>
</g>
<!-- Node301 -->
<g id="node50" class="node">
<title>Node301</title>
<g id="a_node50"><a xlink:href="GDBase_8c.html" target="_top" xlink:title=" ">
<polygon fill="white" stroke="#666666" points="1938.71,-354.5 1812.71,-354.5 1812.71,-335.5 1938.71,-335.5 1938.71,-354.5"/>
<text text-anchor="middle" x="1875.71" y="-342.5" font-family="Helvetica,sans-Serif" font-size="10.00">libs/dolphin/gd/GDBase.c</text>
</a>
</g>
</g>
<!-- Node1&#45;&gt;Node301 -->
<g id="edge68" class="edge">
<title>Node1&#45;&gt;Node301</title>
<path fill="none" stroke="#63b8ff" d="M1814.21,-389.26C1830.76,-377.61 1850.56,-363.69 1863.14,-354.84"/>
<polygon fill="#63b8ff" stroke="#63b8ff" points="1812.31,-386.31 1806.15,-394.93 1816.34,-392.04 1812.31,-386.31"/>
</g>
<!-- Node3 -->
<g id="node3" class="node">
<title>Node3</title>
<g id="a_node3"><a xlink:href="J3DModel_8h.html" target="_top" xlink:title=" ">
<polygon fill="white" stroke="#666666" points="1879.21,-294 1744.21,-294 1744.21,-264 1879.21,-264 1879.21,-294"/>
<text text-anchor="start" x="1752.21" y="-282" font-family="Helvetica,sans-Serif" font-size="10.00">include/JSystem/J3DGraph</text>
<text text-anchor="middle" x="1811.71" y="-271" font-family="Helvetica,sans-Serif" font-size="10.00">Animator/J3DModel.h</text>
</a>
</g>
</g>
<!-- Node2&#45;&gt;Node3 -->
<g id="edge2" class="edge">
<title>Node2&#45;&gt;Node3</title>
<path fill="none" stroke="#63b8ff" d="M1624.63,-326.77C1665.14,-316.64 1715.78,-303.98 1754.15,-294.39"/>
<polygon fill="#63b8ff" stroke="#63b8ff" points="1623.81,-323.37 1614.95,-329.19 1625.5,-330.16 1623.81,-323.37"/>
</g>
<!-- Node288 -->
<g id="node36" class="node">
<title>Node288</title>
<g id="a_node36"><a xlink:href="J3DPacket_8cpp.html" target="_top" xlink:title=" ">
<polygon fill="white" stroke="#666666" points="1626.71,-228 1484.71,-228 1484.71,-198 1626.71,-198 1626.71,-228"/>
<text text-anchor="start" x="1492.71" y="-216" font-family="Helvetica,sans-Serif" font-size="10.00">libs/JSystem/J3DGraphBase</text>
<text text-anchor="middle" x="1555.71" y="-205" font-family="Helvetica,sans-Serif" font-size="10.00">/J3DPacket.cpp</text>
</a>
</g>
</g>
<!-- Node2&#45;&gt;Node288 -->
<g id="edge64" class="edge">
<title>Node2&#45;&gt;Node288</title>
<path fill="none" stroke="#63b8ff" d="M1555.71,-318.38C1555.71,-291.49 1555.71,-250.18 1555.71,-228.47"/>
<polygon fill="#63b8ff" stroke="#63b8ff" points="1552.21,-318.08 1555.71,-328.08 1559.21,-318.08 1552.21,-318.08"/>
</g>
<!-- Node289 -->
<g id="node37" class="node">
<title>Node289</title>
<g id="a_node37"><a xlink:href="J3DShapeMtx_8cpp.html" target="_top" xlink:title=" ">
<polygon fill="white" stroke="#666666" points="3833.71,-228 3691.71,-228 3691.71,-198 3833.71,-198 3833.71,-228"/>
<text text-anchor="start" x="3699.71" y="-216" font-family="Helvetica,sans-Serif" font-size="10.00">libs/JSystem/J3DGraphBase</text>
<text text-anchor="middle" x="3762.71" y="-205" font-family="Helvetica,sans-Serif" font-size="10.00">/J3DShapeMtx.cpp</text>
</a>
</g>
</g>
<!-- Node2&#45;&gt;Node289 -->
<g id="edge66" class="edge">
<title>Node2&#45;&gt;Node289</title>
<path fill="none" stroke="#63b8ff" d="M1634.84,-343.15C1704.07,-339.87 1806.05,-328.78 1887.71,-294 1907.83,-285.43 1906.08,-271.25 1926.71,-264 2110.82,-199.27 3488.48,-246.88 3682.71,-228 3685.52,-227.73 3688.38,-227.41 3691.26,-227.06"/>
<polygon fill="#63b8ff" stroke="#63b8ff" points="1634.95,-339.65 1625.1,-343.57 1635.24,-346.64 1634.95,-339.65"/>
</g>
<!-- Node290 -->
<g id="node38" class="node">
<title>Node290</title>
<g id="a_node38"><a xlink:href="J3DMaterial_8h.html" target="_top" xlink:title=" ">
<polygon fill="white" stroke="#666666" points="1007.21,-294 872.21,-294 872.21,-264 1007.21,-264 1007.21,-294"/>
<text text-anchor="start" x="880.21" y="-282" font-family="Helvetica,sans-Serif" font-size="10.00">include/JSystem/J3DGraph</text>
<text text-anchor="middle" x="939.71" y="-271" font-family="Helvetica,sans-Serif" font-size="10.00">Base/J3DMaterial.h</text>
</a>
</g>
</g>
<!-- Node2&#45;&gt;Node290 -->
<g id="edge41" class="edge">
<title>Node2&#45;&gt;Node290</title>
<path fill="none" stroke="#63b8ff" d="M1476.63,-335.78C1354.53,-323.1 1122.25,-298.97 1007.43,-287.04"/>
<polygon fill="#63b8ff" stroke="#63b8ff" points="1475.92,-339.23 1486.23,-336.78 1476.64,-332.27 1475.92,-339.23"/>
</g>
<!-- Node295 -->
<g id="node43" class="node">
<title>Node295</title>
<g id="a_node43"><a xlink:href="J3DDrawBuffer_8cpp.html" target="_top" xlink:title=" ">
<polygon fill="white" stroke="#666666" points="1059.71,-228 917.71,-228 917.71,-198 1059.71,-198 1059.71,-228"/>
<text text-anchor="start" x="925.71" y="-216" font-family="Helvetica,sans-Serif" font-size="10.00">libs/JSystem/J3DGraphBase</text>
<text text-anchor="middle" x="988.71" y="-205" font-family="Helvetica,sans-Serif" font-size="10.00">/J3DDrawBuffer.cpp</text>
</a>
</g>
</g>
<!-- Node2&#45;&gt;Node295 -->
<g id="edge63" class="edge">
<title>Node2&#45;&gt;Node295</title>
<path fill="none" stroke="#63b8ff" d="M1481.7,-327.03C1369.25,-301.25 1157.32,-252.66 1051.77,-228.46"/>
<polygon fill="#63b8ff" stroke="#63b8ff" points="1480.59,-330.37 1491.12,-329.19 1482.16,-323.54 1480.59,-330.37"/>
</g>
<!-- Node297 -->
<g id="node45" class="node">
<title>Node297</title>
<g id="a_node45"><a xlink:href="d__model_8h.html" target="_top" xlink:title=" ">
<polygon fill="white" stroke="#666666" points="1465.21,-288.5 1362.21,-288.5 1362.21,-269.5 1465.21,-269.5 1465.21,-288.5"/>
<text text-anchor="middle" x="1413.71" y="-276.5" font-family="Helvetica,sans-Serif" font-size="10.00">include/d/d_model.h</text>
</a>
</g>
</g>
<!-- Node2&#45;&gt;Node297 -->
<g id="edge55" class="edge">
<title>Node2&#45;&gt;Node297</title>
<path fill="none" stroke="#63b8ff" d="M1513.7,-325.06C1487.25,-313.14 1454.32,-298.3 1433.65,-288.99"/>
<polygon fill="#63b8ff" stroke="#63b8ff" points="1511.91,-328.1 1522.47,-329.02 1514.79,-321.72 1511.91,-328.1"/>
</g>
<!-- Node298 -->
<g id="node47" class="node">
<title>Node298</title>
<g id="a_node47"><a xlink:href="d__kankyo__wether_8h.html" target="_top" xlink:title=" ">
<polygon fill="white" stroke="#666666" points="1213.71,-228 1115.71,-228 1115.71,-198 1213.71,-198 1213.71,-228"/>
<text text-anchor="start" x="1123.71" y="-216" font-family="Helvetica,sans-Serif" font-size="10.00">include/d/kankyo/d</text>
<text text-anchor="middle" x="1164.71" y="-205" font-family="Helvetica,sans-Serif" font-size="10.00">_kankyo_wether.h</text>
</a>
</g>
</g>
<!-- Node2&#45;&gt;Node298 -->
<g id="edge58" class="edge">
<title>Node2&#45;&gt;Node298</title>
<path fill="none" stroke="#63b8ff" d="M1538.59,-320.75C1523.62,-302.26 1500.18,-277.34 1473.71,-264 1429.13,-241.53 1289.35,-225.56 1214,-218.33"/>
<polygon fill="#63b8ff" stroke="#63b8ff" points="1535.77,-322.83 1544.68,-328.55 1541.29,-318.52 1535.77,-322.83"/>
</g>
<!-- Node2&#45;&gt;Node300 -->
<g id="edge65" class="edge">
<title>Node2&#45;&gt;Node300</title>
<path fill="none" stroke="#63b8ff" d="M1634.69,-333.85C1708.88,-324.16 1822.94,-308.88 1921.71,-294 1926.15,-293.33 1930.71,-292.63 1935.32,-291.91"/>
<polygon fill="#63b8ff" stroke="#63b8ff" points="1634.55,-330.34 1625.09,-335.1 1635.46,-337.28 1634.55,-330.34"/>
</g>
<!-- Node4 -->
<g id="node4" class="node">
<title>Node4</title>
<g id="a_node4"><a xlink:href="d__jnt__col_8h.html" target="_top" xlink:title=" ">
<polygon fill="white" stroke="#666666" points="3557.21,-222.5 3452.21,-222.5 3452.21,-203.5 3557.21,-203.5 3557.21,-222.5"/>
<text text-anchor="middle" x="3504.71" y="-210.5" font-family="Helvetica,sans-Serif" font-size="10.00">include/d/d_jnt_col.h</text>
</a>
</g>
</g>
<!-- Node3&#45;&gt;Node4 -->
<g id="edge3" class="edge">
<title>Node3&#45;&gt;Node4</title>
<path fill="none" stroke="#63b8ff" d="M1890.68,-264.32C1891.7,-264.21 1892.71,-264.1 1893.71,-264 2206.24,-232.62 3209.56,-217.83 3451.74,-214.66"/>
<polygon fill="#63b8ff" stroke="#63b8ff" points="1890.64,-260.8 1881.13,-265.48 1891.48,-267.75 1890.64,-260.8"/>
</g>
<!-- Node16 -->
<g id="node10" class="node">
<title>Node16</title>
<g id="a_node10"><a xlink:href="d__simple__model_8h.html" target="_top" xlink:title=" ">
<polygon fill="white" stroke="#666666" points="3673.71,-228 3575.71,-228 3575.71,-198 3673.71,-198 3673.71,-228"/>
<text text-anchor="start" x="3583.71" y="-216" font-family="Helvetica,sans-Serif" font-size="10.00">include/d/d_simple</text>
<text text-anchor="middle" x="3624.71" y="-205" font-family="Helvetica,sans-Serif" font-size="10.00">_model.h</text>
</a>
</g>
</g>
<!-- Node3&#45;&gt;Node16 -->
<g id="edge9" class="edge">
<title>Node3&#45;&gt;Node16</title>
<path fill="none" stroke="#63b8ff" d="M1890.68,-264.3C1891.7,-264.2 1892.71,-264.1 1893.71,-264 2263.89,-228.61 3197.95,-275.9 3566.71,-228 3569.59,-227.63 3572.53,-227.17 3575.49,-226.65"/>
<polygon fill="#63b8ff" stroke="#63b8ff" points="1890.65,-260.78 1881.13,-265.43 1891.47,-267.73 1890.65,-260.78"/>
</g>
<!-- Node18 -->
<g id="node12" class="node">
<title>Node18</title>
<g id="a_node12"><a xlink:href="m__Do__ext_8h.html" target="_top" xlink:title=" ">
<polygon fill="#fff0f0" stroke="red" points="2355.71,-222.5 2225.71,-222.5 2225.71,-203.5 2355.71,-203.5 2355.71,-222.5"/>
<text text-anchor="middle" x="2290.71" y="-210.5" font-family="Helvetica,sans-Serif" font-size="10.00">include/m_Do/m_Do_ext.h</text>
</a>
</g>
</g>
<!-- Node3&#45;&gt;Node18 -->
<g id="edge12" class="edge">
<title>Node3&#45;&gt;Node18</title>
<path fill="none" stroke="#63b8ff" d="M1890.7,-264.45C1891.71,-264.3 1892.71,-264.15 1893.71,-264 2010.19,-246.73 2146.47,-230.41 2225.26,-221.35"/>
<polygon fill="#63b8ff" stroke="#63b8ff" points="1890.53,-260.94 1881.19,-265.93 1891.6,-267.85 1890.53,-260.94"/>
</g>
<!-- Node286 -->
<g id="node34" class="node">
<title>Node286</title>
<g id="a_node34"><a xlink:href="J3DJoint_8cpp.html" target="_top" xlink:title=" ">
<polygon fill="white" stroke="#666666" points="1978.71,-228 1820.71,-228 1820.71,-198 1978.71,-198 1978.71,-228"/>
<text text-anchor="start" x="1828.71" y="-216" font-family="Helvetica,sans-Serif" font-size="10.00">libs/JSystem/J3DGraphAnimator</text>
<text text-anchor="middle" x="1899.71" y="-205" font-family="Helvetica,sans-Serif" font-size="10.00">/J3DJoint.cpp</text>
</a>
</g>
</g>
<!-- Node3&#45;&gt;Node286 -->
<g id="edge37" class="edge">
<title>Node3&#45;&gt;Node286</title>
<path fill="none" stroke="#63b8ff" d="M1840.25,-257.25C1853.21,-247.82 1868.23,-236.9 1879.93,-228.39"/>
<polygon fill="#63b8ff" stroke="#63b8ff" points="1838.5,-254.19 1832.47,-262.91 1842.61,-259.85 1838.5,-254.19"/>
</g>
<!-- Node287 -->
<g id="node35" class="node">
<title>Node287</title>
<g id="a_node35"><a xlink:href="J3DModel_8cpp.html" target="_top" xlink:title=" ">
<polygon fill="white" stroke="#666666" points="1802.71,-228 1644.71,-228 1644.71,-198 1802.71,-198 1802.71,-228"/>
<text text-anchor="start" x="1652.71" y="-216" font-family="Helvetica,sans-Serif" font-size="10.00">libs/JSystem/J3DGraphAnimator</text>
<text text-anchor="middle" x="1723.71" y="-205" font-family="Helvetica,sans-Serif" font-size="10.00">/J3DModel.cpp</text>
</a>
</g>
</g>
<!-- Node3&#45;&gt;Node287 -->
<g id="edge38" class="edge">
<title>Node3&#45;&gt;Node287</title>
<path fill="none" stroke="#63b8ff" d="M1783.18,-257.25C1770.22,-247.82 1755.19,-236.9 1743.49,-228.39"/>
<polygon fill="#63b8ff" stroke="#63b8ff" points="1780.81,-259.85 1790.96,-262.91 1784.93,-254.19 1780.81,-259.85"/>
</g>
<!-- Node3&#45;&gt;Node288 -->
<g id="edge39" class="edge">
<title>Node3&#45;&gt;Node288</title>
<path fill="none" stroke="#63b8ff" d="M1742.8,-260.77C1702.28,-250.64 1651.65,-237.98 1613.27,-228.39"/>
<polygon fill="#63b8ff" stroke="#63b8ff" points="1741.92,-264.16 1752.48,-263.19 1743.62,-257.37 1741.92,-264.16"/>
</g>
<!-- Node3&#45;&gt;Node289 -->
<g id="edge40" class="edge">
<title>Node3&#45;&gt;Node289</title>
<path fill="none" stroke="#63b8ff" d="M1890.68,-264.3C1891.69,-264.2 1892.71,-264.1 1893.71,-264 2685.43,-188.87 2891.16,-304.77 3682.71,-228 3685.52,-227.73 3688.38,-227.41 3691.26,-227.06"/>
<polygon fill="#63b8ff" stroke="#63b8ff" points="1890.65,-260.78 1881.13,-265.43 1891.47,-267.73 1890.65,-260.78"/>
</g>
<!-- Node5 -->
<g id="node5" class="node">
<title>Node5</title>
<g id="a_node5"><a xlink:href="d__a__alink_8h.html" target="_top" xlink:title=" ">
<polygon fill="#fff0f0" stroke="red" points="3477.71,-90.5 3361.71,-90.5 3361.71,-71.5 3477.71,-71.5 3477.71,-90.5"/>
<text text-anchor="middle" x="3419.71" y="-78.5" font-family="Helvetica,sans-Serif" font-size="10.00">include/d/a/d_a_alink.h</text>
</a>
</g>
</g>
<!-- Node4&#45;&gt;Node5 -->
<g id="edge4" class="edge">
<title>Node4&#45;&gt;Node5</title>
<path fill="none" stroke="#63b8ff" d="M3503.7,-191.92C3502.01,-174.78 3497.52,-150.1 3485.71,-132 3473.78,-113.7 3452.75,-99.5 3437.63,-90.99"/>
<polygon fill="#63b8ff" stroke="#63b8ff" points="3500.21,-192.09 3504.42,-201.81 3507.19,-191.58 3500.21,-192.09"/>
</g>
<!-- Node14 -->
<g id="node8" class="node">
<title>Node14</title>
<g id="a_node8"><a xlink:href="d__cc__s_8cpp.html" target="_top" xlink:title=" ">
<polygon fill="white" stroke="#666666" points="3636.71,-156.5 3532.71,-156.5 3532.71,-137.5 3636.71,-137.5 3636.71,-156.5"/>
<text text-anchor="middle" x="3584.71" y="-144.5" font-family="Helvetica,sans-Serif" font-size="10.00">src/d/cc/d_cc_s.cpp</text>
</a>
</g>
</g>
<!-- Node4&#45;&gt;Node14 -->
<g id="edge7" class="edge">
<title>Node4&#45;&gt;Node14</title>
<path fill="none" stroke="#63b8ff" d="M3524.66,-196.04C3540.16,-183.64 3561.07,-166.92 3573.68,-156.82"/>
<polygon fill="#63b8ff" stroke="#63b8ff" points="3522.64,-193.18 3517.02,-202.16 3527.01,-198.64 3522.64,-193.18"/>
</g>
<!-- Node15 -->
<g id="node9" class="node">
<title>Node15</title>
<g id="a_node9"><a xlink:href="d__jnt__col_8cpp.html" target="_top" xlink:title=" ">
<polygon fill="white" stroke="#666666" points="3752.71,-156.5 3654.71,-156.5 3654.71,-137.5 3752.71,-137.5 3752.71,-156.5"/>
<text text-anchor="middle" x="3703.71" y="-144.5" font-family="Helvetica,sans-Serif" font-size="10.00">src/d/d_jnt_col.cpp</text>
</a>
</g>
</g>
<!-- Node4&#45;&gt;Node15 -->
<g id="edge8" class="edge">
<title>Node4&#45;&gt;Node15</title>
<path fill="none" stroke="#63b8ff" d="M3543.28,-199.6C3582.22,-187.07 3641.41,-168.04 3675.96,-156.93"/>
<polygon fill="#63b8ff" stroke="#63b8ff" points="3542.27,-196.24 3533.82,-202.64 3544.42,-202.91 3542.27,-196.24"/>
</g>
<!-- Node6 -->
<g id="node6" class="node">
<title>Node6</title>
<g id="a_node6"><a xlink:href="d__a__alink_8cpp.html" target="_top" xlink:title=" ">
<polygon fill="white" stroke="#666666" points="1702.21,-24.5 1593.21,-24.5 1593.21,-5.5 1702.21,-5.5 1702.21,-24.5"/>
<text text-anchor="middle" x="1647.71" y="-12.5" font-family="Helvetica,sans-Serif" font-size="10.00">src/d/a/d_a_alink.cpp</text>
</a>
</g>
</g>
<!-- Node5&#45;&gt;Node6 -->
<g id="edge5" class="edge">
<title>Node5&#45;&gt;Node6</title>
<path fill="none" stroke="#63b8ff" d="M3350.13,-77.49C3061.49,-67.06 1961.43,-27.33 1702.52,-17.98"/>
<polygon fill="#63b8ff" stroke="#63b8ff" points="3349.63,-80.97 3359.75,-77.83 3349.88,-73.98 3349.63,-80.97"/>
</g>
<!-- Node8 -->
<g id="node7" class="node">
<title>Node8</title>
<g id="a_node7"><a xlink:href="d__com__inf__game_8cpp.html" target="_top" xlink:title=" ">
<polygon fill="white" stroke="#666666" points="3473.71,-30 3365.71,-30 3365.71,0 3473.71,0 3473.71,-30"/>
<text text-anchor="start" x="3373.71" y="-18" font-family="Helvetica,sans-Serif" font-size="10.00">src/d/com/d_com_inf</text>
<text text-anchor="middle" x="3419.71" y="-7" font-family="Helvetica,sans-Serif" font-size="10.00">_game.cpp</text>
</a>
</g>
</g>
<!-- Node5&#45;&gt;Node8 -->
<g id="edge6" class="edge">
<title>Node5&#45;&gt;Node8</title>
<path fill="none" stroke="#63b8ff" d="M3419.71,-59.78C3419.71,-50.17 3419.71,-38.92 3419.71,-30.23"/>
<polygon fill="#63b8ff" stroke="#63b8ff" points="3416.21,-59.59 3419.71,-69.59 3423.21,-59.59 3416.21,-59.59"/>
</g>
<!-- Node16&#45;&gt;Node8 -->
<g id="edge10" class="edge">
<title>Node16&#45;&gt;Node8</title>
<path fill="none" stroke="#63b8ff" d="M3684.88,-197.35C3717.19,-188.13 3752.29,-175.47 3761.71,-162 3769.36,-151.07 3769.48,-142.84 3761.71,-132 3695.78,-40.02 3552.81,-20.08 3474.2,-16.32"/>
<polygon fill="#63b8ff" stroke="#63b8ff" points="3684.24,-193.9 3675.53,-199.93 3686.1,-200.64 3684.24,-193.9"/>
</g>
<!-- Node17 -->
<g id="node11" class="node">
<title>Node17</title>
<g id="a_node11"><a xlink:href="d__simple__model_8cpp.html" target="_top" xlink:title=" ">
<polygon fill="white" stroke="#666666" points="3938.71,-156.5 3808.71,-156.5 3808.71,-137.5 3938.71,-137.5 3938.71,-156.5"/>
<text text-anchor="middle" x="3873.71" y="-144.5" font-family="Helvetica,sans-Serif" font-size="10.00">src/d/d_simple_model.cpp</text>
</a>
</g>
</g>
<!-- Node16&#45;&gt;Node17 -->
<g id="edge11" class="edge">
<title>Node16&#45;&gt;Node17</title>
<path fill="none" stroke="#63b8ff" d="M3685.11,-196.48C3733.25,-184.1 3798.96,-167.21 3838.75,-156.99"/>
<polygon fill="#63b8ff" stroke="#63b8ff" points="3684.49,-193.02 3675.67,-198.9 3686.23,-199.8 3684.49,-193.02"/>
</g>
<!-- Node19 -->
<g id="node13" class="node">
<title>Node19</title>
<g id="a_node13"><a xlink:href="d__attention_8h.html" target="_top" xlink:title=" ">
<polygon fill="#fff0f0" stroke="red" points="3476.71,-156.5 3362.71,-156.5 3362.71,-137.5 3476.71,-137.5 3476.71,-156.5"/>
<text text-anchor="middle" x="3419.71" y="-144.5" font-family="Helvetica,sans-Serif" font-size="10.00">include/d/d_attention.h</text>
</a>
</g>
</g>
<!-- Node18&#45;&gt;Node19 -->
<g id="edge13" class="edge">
<title>Node18&#45;&gt;Node19</title>
<path fill="none" stroke="#63b8ff" d="M2367.46,-212.64C2542.92,-213.17 2986.55,-209.26 3353.71,-162 3363.12,-160.79 3373.19,-158.94 3382.55,-156.98"/>
<polygon fill="#63b8ff" stroke="#63b8ff" points="2367.58,-209.14 2357.56,-212.6 2367.55,-216.14 2367.58,-209.14"/>
</g>
<!-- Node169 -->
<g id="node14" class="node">
<title>Node169</title>
<g id="a_node14"><a xlink:href="d__drawlist_8h.html" target="_top" xlink:title=" ">
<polygon fill="#fff0f0" stroke="red" points="2688.71,-156.5 2578.71,-156.5 2578.71,-137.5 2688.71,-137.5 2688.71,-156.5"/>
<text text-anchor="middle" x="2633.71" y="-144.5" font-family="Helvetica,sans-Serif" font-size="10.00">include/d/d_drawlist.h</text>
</a>
</g>
</g>
<!-- Node18&#45;&gt;Node169 -->
<g id="edge15" class="edge">
<title>Node18&#45;&gt;Node169</title>
<path fill="none" stroke="#63b8ff" d="M2355.61,-201.09C2412.24,-191.4 2496.57,-176.55 2569.71,-162 2577.52,-160.45 2585.85,-158.7 2593.82,-156.97"/>
<polygon fill="#63b8ff" stroke="#63b8ff" points="2355.07,-197.63 2345.81,-202.76 2356.25,-204.53 2355.07,-197.63"/>
</g>
<!-- Node212 -->
<g id="node15" class="node">
<title>Node212</title>
<g id="a_node15"><a xlink:href="d__ky__thunder_8h.html" target="_top" xlink:title=" ">
<polygon fill="#fff0f0" stroke="red" points="2830.71,-156.5 2706.71,-156.5 2706.71,-137.5 2830.71,-137.5 2830.71,-156.5"/>
<text text-anchor="middle" x="2768.71" y="-144.5" font-family="Helvetica,sans-Serif" font-size="10.00">include/d/d_ky_thunder.h</text>
</a>
</g>
</g>
<!-- Node18&#45;&gt;Node212 -->
<g id="edge16" class="edge">
<title>Node18&#45;&gt;Node212</title>
<path fill="none" stroke="#63b8ff" d="M2367.34,-204.26C2449.33,-195.59 2583.07,-180.32 2697.71,-162 2706.89,-160.53 2716.7,-158.74 2726,-156.94"/>
<polygon fill="#63b8ff" stroke="#63b8ff" points="2367.21,-200.76 2357.63,-205.28 2367.94,-207.72 2367.21,-200.76"/>
</g>
<!-- Node213 -->
<g id="node16" class="node">
<title>Node213</title>
<g id="a_node16"><a xlink:href="d__resorce_8h.html" target="_top" xlink:title=" ">
<polygon fill="#fff0f0" stroke="red" points="2560.21,-156.5 2451.21,-156.5 2451.21,-137.5 2560.21,-137.5 2560.21,-156.5"/>
<text text-anchor="middle" x="2505.71" y="-144.5" font-family="Helvetica,sans-Serif" font-size="10.00">include/d/d_resorce.h</text>
</a>
</g>
</g>
<!-- Node18&#45;&gt;Node213 -->
<g id="edge17" class="edge">
<title>Node18&#45;&gt;Node213</title>
<path fill="none" stroke="#63b8ff" d="M2331.57,-199.84C2373.63,-187.32 2438.16,-168.11 2475.73,-156.93"/>
<polygon fill="#63b8ff" stroke="#63b8ff" points="2330.65,-196.46 2322.06,-202.67 2332.64,-203.17 2330.65,-196.46"/>
</g>
<!-- Node214 -->
<g id="node18" class="node">
<title>Node214</title>
<g id="a_node18"><a xlink:href="d__kankyo_8h.html" target="_top" xlink:title=" ">
<polygon fill="#fff0f0" stroke="red" points="1228.71,-162 1130.71,-162 1130.71,-132 1228.71,-132 1228.71,-162"/>
<text text-anchor="start" x="1138.71" y="-150" font-family="Helvetica,sans-Serif" font-size="10.00">include/d/kankyo/d</text>
<text text-anchor="middle" x="1179.71" y="-139" font-family="Helvetica,sans-Serif" font-size="10.00">_kankyo.h</text>
</a>
</g>
</g>
<!-- Node18&#45;&gt;Node214 -->
<g id="edge19" class="edge">
<title>Node18&#45;&gt;Node214</title>
<path fill="none" stroke="#63b8ff" d="M2213.79,-208.38C1985.84,-197.62 1326.91,-166.34 1280.71,-162 1263.88,-160.42 1245.55,-158.07 1229.19,-155.75"/>
<polygon fill="#63b8ff" stroke="#63b8ff" points="2213.62,-211.87 2223.77,-208.85 2213.95,-204.88 2213.62,-211.87"/>
</g>
<!-- Node277 -->
<g id="node22" class="node">
<title>Node277</title>
<g id="a_node22"><a xlink:href="m__Do__ext_8cpp.html" target="_top" xlink:title=" ">
<polygon fill="white" stroke="#666666" points="1350.21,-90.5 1227.21,-90.5 1227.21,-71.5 1350.21,-71.5 1350.21,-90.5"/>
<text text-anchor="middle" x="1288.71" y="-78.5" font-family="Helvetica,sans-Serif" font-size="10.00">src/m_Do/m_Do_ext.cpp</text>
</a>
</g>
</g>
<!-- Node18&#45;&gt;Node277 -->
<g id="edge34" class="edge">
<title>Node18&#45;&gt;Node277</title>
<path fill="none" stroke="#63b8ff" d="M2214.23,-208.34C1991.98,-197.66 1361.26,-166.95 1351.71,-162 1321.11,-146.13 1300.58,-108.02 1292.53,-90.76"/>
<polygon fill="#63b8ff" stroke="#63b8ff" points="2213.78,-211.82 2223.94,-208.81 2214.12,-204.83 2213.78,-211.82"/>
</g>
<!-- Node173 -->
<g id="node23" class="node">
<title>Node173</title>
<g id="a_node23"><a xlink:href="d__a__do_8h.html" target="_top" xlink:title=" ">
<polygon fill="white" stroke="#666666" points="2944.71,-162 2848.71,-162 2848.71,-132 2944.71,-132 2944.71,-162"/>
<text text-anchor="start" x="2856.71" y="-150" font-family="Helvetica,sans-Serif" font-size="10.00">include/rel/d/a/d_a</text>
<text text-anchor="middle" x="2896.71" y="-139" font-family="Helvetica,sans-Serif" font-size="10.00">_do/d_a_do.h</text>
</a>
</g>
</g>
<!-- Node18&#45;&gt;Node173 -->
<g id="edge25" class="edge">
<title>Node18&#45;&gt;Node173</title>
<path fill="none" stroke="#63b8ff" d="M2367.47,-208.65C2474.04,-203.17 2672.59,-189.97 2839.71,-162 2842.53,-161.53 2845.41,-160.99 2848.31,-160.41"/>
<polygon fill="#63b8ff" stroke="#63b8ff" points="2367.52,-205.14 2357.7,-209.14 2367.87,-212.13 2367.52,-205.14"/>
</g>
<!-- Node278 -->
<g id="node24" class="node">
<title>Node278</title>
<g id="a_node24"><a xlink:href="DynamicLink_8cpp.html" target="_top" xlink:title=" ">
<polygon fill="white" stroke="#666666" points="3070.21,-156.5 2963.21,-156.5 2963.21,-137.5 3070.21,-137.5 3070.21,-156.5"/>
<text text-anchor="middle" x="3016.71" y="-144.5" font-family="Helvetica,sans-Serif" font-size="10.00">src/DynamicLink.cpp</text>
</a>
</g>
</g>
<!-- Node18&#45;&gt;Node278 -->
<g id="edge26" class="edge">
<title>Node18&#45;&gt;Node278</title>
<path fill="none" stroke="#63b8ff" d="M2367.21,-209.79C2491.03,-205.42 2742.77,-193.23 2953.71,-162 2962.47,-160.7 2971.82,-158.87 2980.57,-156.96"/>
<polygon fill="#63b8ff" stroke="#63b8ff" points="2367.38,-206.28 2357.5,-210.13 2367.62,-213.28 2367.38,-206.28"/>
</g>
<!-- Node108 -->
<g id="node25" class="node">
<title>Node108</title>
<g id="a_node25"><a xlink:href="c__dylink_8cpp.html" target="_top" xlink:title=" ">
<polygon fill="white" stroke="#666666" points="3183.21,-156.5 3088.21,-156.5 3088.21,-137.5 3183.21,-137.5 3183.21,-156.5"/>
<text text-anchor="middle" x="3135.71" y="-144.5" font-family="Helvetica,sans-Serif" font-size="10.00">src/c/c_dylink.cpp</text>
</a>
</g>
</g>
<!-- Node18&#45;&gt;Node108 -->
<g id="edge27" class="edge">
<title>Node18&#45;&gt;Node108</title>
<path fill="none" stroke="#63b8ff" d="M2367.21,-211.75C2508.72,-210.28 2820.56,-202.26 3079.71,-162 3087.74,-160.75 3096.29,-158.89 3104.23,-156.94"/>
<polygon fill="#63b8ff" stroke="#63b8ff" points="2367.57,-208.25 2357.61,-211.84 2367.64,-215.25 2367.57,-208.25"/>
</g>
<!-- Node279 -->
<g id="node26" class="node">
<title>Node279</title>
<g id="a_node26"><a xlink:href="d__pane__class_8cpp.html" target="_top" xlink:title=" ">
<polygon fill="white" stroke="#666666" points="3344.21,-156.5 3201.21,-156.5 3201.21,-137.5 3344.21,-137.5 3344.21,-156.5"/>
<text text-anchor="middle" x="3272.71" y="-144.5" font-family="Helvetica,sans-Serif" font-size="10.00">src/d/pane/d_pane_class.cpp</text>
</a>
</g>
</g>
<!-- Node18&#45;&gt;Node279 -->
<g id="edge28" class="edge">
<title>Node18&#45;&gt;Node279</title>
<path fill="none" stroke="#63b8ff" d="M2367.33,-210.8C2523.21,-207.67 2888.31,-196.95 3192.71,-162 3203.92,-160.71 3215.94,-158.86 3227.16,-156.93"/>
<polygon fill="#63b8ff" stroke="#63b8ff" points="2367.47,-207.29 2357.54,-210.99 2367.6,-214.29 2367.47,-207.29"/>
</g>
<!-- Node280 -->
<g id="node27" class="node">
<title>Node280</title>
<g id="a_node27"><a xlink:href="d__pane__class__alpha_8cpp.html" target="_top" xlink:title=" ">
<polygon fill="white" stroke="#666666" points="1486.21,-162 1361.21,-162 1361.21,-132 1486.21,-132 1486.21,-162"/>
<text text-anchor="start" x="1369.21" y="-150" font-family="Helvetica,sans-Serif" font-size="10.00">src/d/pane/d_pane_class</text>
<text text-anchor="middle" x="1423.71" y="-139" font-family="Helvetica,sans-Serif" font-size="10.00">_alpha.cpp</text>
</a>
</g>
</g>
<!-- Node18&#45;&gt;Node280 -->
<g id="edge29" class="edge">
<title>Node18&#45;&gt;Node280</title>
<path fill="none" stroke="#63b8ff" d="M2213.84,-208.47C2042.25,-200.37 1632.31,-179.81 1494.71,-162 1491.97,-161.65 1489.18,-161.25 1486.36,-160.82"/>
<polygon fill="#63b8ff" stroke="#63b8ff" points="2213.62,-211.96 2223.77,-208.94 2213.95,-204.97 2213.62,-211.96"/>
</g>
<!-- Node101 -->
<g id="node28" class="node">
<title>Node101</title>
<g id="a_node28"><a xlink:href="f__op__actor__mng_8cpp.html" target="_top" xlink:title=" ">
<polygon fill="white" stroke="#666666" points="1605.21,-162 1504.21,-162 1504.21,-132 1605.21,-132 1605.21,-162"/>
<text text-anchor="start" x="1512.21" y="-150" font-family="Helvetica,sans-Serif" font-size="10.00">src/f_op/f_op_actor</text>
<text text-anchor="middle" x="1554.71" y="-139" font-family="Helvetica,sans-Serif" font-size="10.00">_mng.cpp</text>
</a>
</g>
</g>
<!-- Node18&#45;&gt;Node101 -->
<g id="edge30" class="edge">
<title>Node18&#45;&gt;Node101</title>
<path fill="none" stroke="#63b8ff" d="M2214.19,-207.89C2062.29,-199.47 1727.56,-179.6 1613.71,-162 1611.01,-161.58 1608.24,-161.1 1605.46,-160.58"/>
<polygon fill="#63b8ff" stroke="#63b8ff" points="2213.55,-211.36 2223.73,-208.42 2213.94,-204.37 2213.55,-211.36"/>
</g>
<!-- Node281 -->
<g id="node29" class="node">
<title>Node281</title>
<g id="a_node29"><a xlink:href="m__Do__DVDError_8cpp.html" target="_top" xlink:title=" ">
<polygon fill="white" stroke="#666666" points="1774.21,-156.5 1623.21,-156.5 1623.21,-137.5 1774.21,-137.5 1774.21,-156.5"/>
<text text-anchor="middle" x="1698.71" y="-144.5" font-family="Helvetica,sans-Serif" font-size="10.00">src/m_Do/m_Do_DVDError.cpp</text>
</a>
</g>
</g>
<!-- Node18&#45;&gt;Node281 -->
<g id="edge31" class="edge">
<title>Node18&#45;&gt;Node281</title>
<path fill="none" stroke="#63b8ff" d="M2213.89,-205.99C2114.42,-197.84 1935.76,-182 1783.71,-162 1772.74,-160.56 1761.01,-158.78 1749.88,-156.98"/>
<polygon fill="#63b8ff" stroke="#63b8ff" points="2213.57,-209.47 2223.82,-206.8 2214.14,-202.5 2213.57,-209.47"/>
</g>
<!-- Node282 -->
<g id="node30" class="node">
<title>Node282</title>
<g id="a_node30"><a xlink:href="m__Do__MemCard_8cpp.html" target="_top" xlink:title=" ">
<polygon fill="white" stroke="#666666" points="1944.71,-156.5 1792.71,-156.5 1792.71,-137.5 1944.71,-137.5 1944.71,-156.5"/>
<text text-anchor="middle" x="1868.71" y="-144.5" font-family="Helvetica,sans-Serif" font-size="10.00">src/m_Do/m_Do_MemCard.cpp</text>
</a>
</g>
</g>
<!-- Node18&#45;&gt;Node282 -->
<g id="edge32" class="edge">
<title>Node18&#45;&gt;Node282</title>
<path fill="none" stroke="#63b8ff" d="M2217.18,-201.44C2148.88,-191.54 2044.36,-176.19 1953.71,-162 1943.52,-160.4 1932.64,-158.65 1922.2,-156.94"/>
<polygon fill="#63b8ff" stroke="#63b8ff" points="2216.35,-204.85 2226.75,-202.82 2217.35,-197.92 2216.35,-204.85"/>
</g>
<!-- Node283 -->
<g id="node31" class="node">
<title>Node283</title>
<g id="a_node31"><a xlink:href="m__Do__dvd__thread_8cpp.html" target="_top" xlink:title=" ">
<polygon fill="white" stroke="#666666" points="2120.71,-156.5 1962.71,-156.5 1962.71,-137.5 2120.71,-137.5 2120.71,-156.5"/>
<text text-anchor="middle" x="2041.71" y="-144.5" font-family="Helvetica,sans-Serif" font-size="10.00">src/m_Do/m_Do_dvd_thread.cpp</text>
</a>
</g>
</g>
<!-- Node18&#45;&gt;Node283 -->
<g id="edge33" class="edge">
<title>Node18&#45;&gt;Node283</title>
<path fill="none" stroke="#63b8ff" d="M2244.98,-200.24C2196.29,-187.73 2120.33,-168.21 2076.36,-156.91"/>
<polygon fill="#63b8ff" stroke="#63b8ff" points="2243.81,-203.56 2254.36,-202.66 2245.55,-196.78 2243.81,-203.56"/>
</g>
<!-- Node284 -->
<g id="node32" class="node">
<title>Node284</title>
<g id="a_node32"><a xlink:href="m__Do__machine_8cpp.html" target="_top" xlink:title=" ">
<polygon fill="white" stroke="#666666" points="2286.21,-156.5 2139.21,-156.5 2139.21,-137.5 2286.21,-137.5 2286.21,-156.5"/>
<text text-anchor="middle" x="2212.71" y="-144.5" font-family="Helvetica,sans-Serif" font-size="10.00">src/m_Do/m_Do_machine.cpp</text>
</a>
</g>
</g>
<!-- Node18&#45;&gt;Node284 -->
<g id="edge35" class="edge">
<title>Node18&#45;&gt;Node284</title>
<path fill="none" stroke="#63b8ff" d="M2271.26,-196.04C2256.16,-183.64 2235.77,-166.92 2223.47,-156.82"/>
<polygon fill="#63b8ff" stroke="#63b8ff" points="2268.75,-198.5 2278.7,-202.14 2273.19,-193.09 2268.75,-198.5"/>
</g>
<!-- Node164 -->
<g id="node33" class="node">
<title>Node164</title>
<g id="a_node33"><a xlink:href="m__Do__machine__exception_8cpp.html" target="_top" xlink:title=" ">
<polygon fill="white" stroke="#666666" points="2433.21,-162 2304.21,-162 2304.21,-132 2433.21,-132 2433.21,-162"/>
<text text-anchor="start" x="2312.21" y="-150" font-family="Helvetica,sans-Serif" font-size="10.00">src/m_Do/m_Do_machine</text>
<text text-anchor="middle" x="2368.71" y="-139" font-family="Helvetica,sans-Serif" font-size="10.00">_exception.cpp</text>
</a>
</g>
</g>
<!-- Node18&#45;&gt;Node164 -->
<g id="edge36" class="edge">
<title>Node18&#45;&gt;Node164</title>
<path fill="none" stroke="#63b8ff" d="M2310.31,-195.92C2322.84,-185.64 2338.94,-172.43 2351.07,-162.48"/>
<polygon fill="#63b8ff" stroke="#63b8ff" points="2308.24,-193.09 2302.73,-202.14 2312.68,-198.5 2308.24,-193.09"/>
</g>
<!-- Node19&#45;&gt;Node5 -->
<g id="edge14" class="edge">
<title>Node19&#45;&gt;Node5</title>
<path fill="none" stroke="#63b8ff" d="M3419.71,-125.68C3419.71,-113.94 3419.71,-99.77 3419.71,-90.82"/>
<polygon fill="#63b8ff" stroke="#63b8ff" points="3416.21,-125.59 3419.71,-135.59 3423.21,-125.59 3416.21,-125.59"/>
</g>
<!-- Node129 -->
<g id="node17" class="node">
<title>Node129</title>
<g id="a_node17"><a xlink:href="d__resorce_8cpp.html" target="_top" xlink:title=" ">
<polygon fill="white" stroke="#666666" points="2016.71,-90.5 1914.71,-90.5 1914.71,-71.5 2016.71,-71.5 2016.71,-90.5"/>
<text text-anchor="middle" x="1965.71" y="-78.5" font-family="Helvetica,sans-Serif" font-size="10.00">src/d/d_resorce.cpp</text>
</a>
</g>
</g>
<!-- Node213&#45;&gt;Node129 -->
<g id="edge18" class="edge">
<title>Node213&#45;&gt;Node129</title>
<path fill="none" stroke="#63b8ff" d="M2457.65,-134.73C2452.62,-133.72 2447.57,-132.79 2442.71,-132 2288.83,-106.92 2104.86,-91.78 2017.15,-85.46"/>
<polygon fill="#63b8ff" stroke="#63b8ff" points="2456.55,-138.07 2467.06,-136.69 2457.98,-131.22 2456.55,-138.07"/>
</g>
<!-- Node214&#45;&gt;Node8 -->
<g id="edge20" class="edge">
<title>Node214&#45;&gt;Node8</title>
<path fill="none" stroke="#63b8ff" d="M1184.39,-120.78C1189.29,-102.2 1199,-78.13 1217.71,-66 1264.19,-35.88 3031.1,-19.32 3365.43,-16.45"/>
<polygon fill="#63b8ff" stroke="#63b8ff" points="1181.04,-119.75 1182.21,-130.28 1187.86,-121.32 1181.04,-119.75"/>
</g>
<!-- Node125 -->
<g id="node19" class="node">
<title>Node125</title>
<g id="a_node19"><a xlink:href="d__kyeff_8cpp.html" target="_top" xlink:title=" ">
<polygon fill="white" stroke="#666666" points="1036.71,-90.5 946.71,-90.5 946.71,-71.5 1036.71,-71.5 1036.71,-90.5"/>
<text text-anchor="middle" x="991.71" y="-78.5" font-family="Helvetica,sans-Serif" font-size="10.00">src/d/d_kyeff.cpp</text>
</a>
</g>
</g>
<!-- Node214&#45;&gt;Node125 -->
<g id="edge21" class="edge">
<title>Node214&#45;&gt;Node125</title>
<path fill="none" stroke="#63b8ff" d="M1126.86,-128.01C1091.4,-115.93 1046.2,-100.55 1018.11,-90.99"/>
<polygon fill="#63b8ff" stroke="#63b8ff" points="1125.5,-131.24 1136.09,-131.15 1127.75,-124.61 1125.5,-131.24"/>
</g>
<!-- Node126 -->
<g id="node20" class="node">
<title>Node126</title>
<g id="a_node20"><a xlink:href="d__model_8cpp.html" target="_top" xlink:title=" ">
<polygon fill="white" stroke="#666666" points="928.71,-90.5 832.71,-90.5 832.71,-71.5 928.71,-71.5 928.71,-90.5"/>
<text text-anchor="middle" x="880.71" y="-78.5" font-family="Helvetica,sans-Serif" font-size="10.00">src/d/d_model.cpp</text>
</a>
</g>
</g>
<!-- Node214&#45;&gt;Node126 -->
<g id="edge22" class="edge">
<title>Node214&#45;&gt;Node126</title>
<path fill="none" stroke="#63b8ff" d="M1119.66,-131.83C1037.88,-114.35 1015.33,-113.16 937.71,-96 930.75,-94.46 923.33,-92.72 916.23,-90.99"/>
<polygon fill="#63b8ff" stroke="#63b8ff" points="1118.5,-135.16 1129.01,-133.85 1119.97,-128.32 1118.5,-135.16"/>
</g>
<!-- Node141 -->
<g id="node21" class="node">
<title>Node141</title>
<g id="a_node21"><a xlink:href="d__kankyo__wether_8cpp.html" target="_top" xlink:title=" ">
<polygon fill="white" stroke="#666666" points="1170.71,-96 1054.71,-96 1054.71,-66 1170.71,-66 1170.71,-96"/>
<text text-anchor="start" x="1062.71" y="-84" font-family="Helvetica,sans-Serif" font-size="10.00">src/d/kankyo/d_kankyo</text>
<text text-anchor="middle" x="1112.71" y="-73" font-family="Helvetica,sans-Serif" font-size="10.00">_wether.cpp</text>
</a>
</g>
</g>
<!-- Node214&#45;&gt;Node141 -->
<g id="edge23" class="edge">
<title>Node214&#45;&gt;Node141</title>
<path fill="none" stroke="#63b8ff" d="M1156.77,-124.09C1147.1,-114.85 1136.12,-104.36 1127.54,-96.16"/>
<polygon fill="#63b8ff" stroke="#63b8ff" points="1154.1,-126.37 1163.75,-130.75 1158.94,-121.31 1154.1,-126.37"/>
</g>
<!-- Node214&#45;&gt;Node277 -->
<g id="edge24" class="edge">
<title>Node214&#45;&gt;Node277</title>
<path fill="none" stroke="#63b8ff" d="M1213.86,-125.95C1233.82,-114.23 1258.04,-100.01 1273.41,-90.99"/>
<polygon fill="#63b8ff" stroke="#63b8ff" points="1212.33,-122.79 1205.48,-130.87 1215.88,-128.83 1212.33,-122.79"/>
</g>
<!-- Node290&#45;&gt;Node6 -->
<g id="edge51" class="edge">
<title>Node290&#45;&gt;Node6</title>
<path fill="none" stroke="#63b8ff" d="M860.29,-276.68C640.05,-272.64 35.89,-258.78 6.71,-228 -2.46,-218.32 -1.93,-208.15 6.71,-198 112.11,-74.21 1319.54,-26.89 1592.92,-17.72"/>
<polygon fill="#63b8ff" stroke="#63b8ff" points="860.16,-280.18 870.22,-276.86 860.28,-273.18 860.16,-280.18"/>
</g>
<!-- Node290&#45;&gt;Node129 -->
<g id="edge53" class="edge">
<title>Node290&#45;&gt;Node129</title>
<path fill="none" stroke="#63b8ff" d="M1018.95,-278.05C1084.25,-275.17 1177.67,-264.17 1250.71,-228 1306.22,-200.52 1295.18,-157.29 1351.71,-132 1451.78,-87.24 1785.31,-82.1 1914.23,-81.83"/>
<polygon fill="#63b8ff" stroke="#63b8ff" points="1018.88,-274.55 1009.02,-278.43 1019.14,-281.54 1018.88,-274.55"/>
</g>
<!-- Node290&#45;&gt;Node126 -->
<g id="edge52" class="edge">
<title>Node290&#45;&gt;Node126</title>
<path fill="none" stroke="#63b8ff" d="M922.64,-254.43C917.49,-246.38 912.27,-237.1 908.71,-228 889.38,-178.47 883.03,-114.12 881.29,-90.87"/>
<polygon fill="#63b8ff" stroke="#63b8ff" points="919.66,-256.27 928.15,-262.61 925.47,-252.36 919.66,-256.27"/>
</g>
<!-- Node290&#45;&gt;Node277 -->
<g id="edge54" class="edge">
<title>Node290&#45;&gt;Node277</title>
<path fill="none" stroke="#63b8ff" d="M1018.96,-272.24C1091.33,-265.53 1191.63,-252.15 1222.71,-228 1268.84,-192.16 1283.7,-116.87 1287.55,-90.98"/>
<polygon fill="#63b8ff" stroke="#63b8ff" points="1018.75,-268.74 1009.11,-273.12 1019.38,-275.71 1018.75,-268.74"/>
</g>
<!-- Node290&#45;&gt;Node286 -->
<g id="edge42" class="edge">
<title>Node290&#45;&gt;Node286</title>
<path fill="none" stroke="#63b8ff" d="M1018.6,-276.13C1171.84,-271.91 1520.31,-259.45 1811.71,-228 1814.64,-227.68 1817.61,-227.34 1820.61,-226.97"/>
<polygon fill="#63b8ff" stroke="#63b8ff" points="1018.88,-272.62 1008.98,-276.39 1019.07,-279.62 1018.88,-272.62"/>
</g>
<!-- Node290&#45;&gt;Node287 -->
<g id="edge46" class="edge">
<title>Node290&#45;&gt;Node287</title>
<path fill="none" stroke="#63b8ff" d="M1018.91,-274.53C1148.28,-268.37 1412.88,-253.68 1635.71,-228 1638.63,-227.66 1641.61,-227.3 1644.6,-226.91"/>
<polygon fill="#63b8ff" stroke="#63b8ff" points="1018.91,-271.03 1009.08,-275 1019.24,-278.02 1018.91,-271.03"/>
</g>
<!-- Node290&#45;&gt;Node288 -->
<g id="edge50" class="edge">
<title>Node290&#45;&gt;Node288</title>
<path fill="none" stroke="#63b8ff" d="M1019.02,-272.6C1123.84,-265.01 1314.11,-249.64 1475.71,-228 1478.51,-227.63 1481.36,-227.22 1484.23,-226.8"/>
<polygon fill="#63b8ff" stroke="#63b8ff" points="1018.83,-269.11 1009.11,-273.31 1019.34,-276.09 1018.83,-269.11"/>
</g>
<!-- Node291 -->
<g id="node39" class="node">
<title>Node291</title>
<g id="a_node39"><a xlink:href="J3DJointTree_8cpp.html" target="_top" xlink:title=" ">
<polygon fill="white" stroke="#666666" points="173.71,-228 15.71,-228 15.71,-198 173.71,-198 173.71,-228"/>
<text text-anchor="start" x="23.71" y="-216" font-family="Helvetica,sans-Serif" font-size="10.00">libs/JSystem/J3DGraphAnimator</text>
<text text-anchor="middle" x="94.71" y="-205" font-family="Helvetica,sans-Serif" font-size="10.00">/J3DJointTree.cpp</text>
</a>
</g>
</g>
<!-- Node290&#45;&gt;Node291 -->
<g id="edge43" class="edge">
<title>Node290&#45;&gt;Node291</title>
<path fill="none" stroke="#63b8ff" d="M860.67,-275.17C722.72,-269.7 429.21,-255.69 182.71,-228 179.79,-227.67 176.82,-227.32 173.82,-226.94"/>
<polygon fill="#63b8ff" stroke="#63b8ff" points="860.29,-278.66 870.42,-275.55 860.56,-271.66 860.29,-278.66"/>
</g>
<!-- Node292 -->
<g id="node40" class="node">
<title>Node292</title>
<g id="a_node40"><a xlink:href="J3DMaterialAnm_8cpp.html" target="_top" xlink:title=" ">
<polygon fill="white" stroke="#666666" points="349.71,-228 191.71,-228 191.71,-198 349.71,-198 349.71,-228"/>
<text text-anchor="start" x="199.71" y="-216" font-family="Helvetica,sans-Serif" font-size="10.00">libs/JSystem/J3DGraphAnimator</text>
<text text-anchor="middle" x="270.71" y="-205" font-family="Helvetica,sans-Serif" font-size="10.00">/J3DMaterialAnm.cpp</text>
</a>
</g>
</g>
<!-- Node290&#45;&gt;Node292 -->
<g id="edge44" class="edge">
<title>Node290&#45;&gt;Node292</title>
<path fill="none" stroke="#63b8ff" d="M860.84,-273.02C748.92,-265.54 537.72,-249.91 358.71,-228 355.8,-227.64 352.83,-227.26 349.83,-226.86"/>
<polygon fill="#63b8ff" stroke="#63b8ff" points="860.29,-276.49 870.5,-273.66 860.76,-269.51 860.29,-276.49"/>
</g>
<!-- Node293 -->
<g id="node41" class="node">
<title>Node293</title>
<g id="a_node41"><a xlink:href="J3DMaterialAttach_8cpp.html" target="_top" xlink:title=" ">
<polygon fill="white" stroke="#666666" points="525.71,-228 367.71,-228 367.71,-198 525.71,-198 525.71,-228"/>
<text text-anchor="start" x="375.71" y="-216" font-family="Helvetica,sans-Serif" font-size="10.00">libs/JSystem/J3DGraphAnimator</text>
<text text-anchor="middle" x="446.71" y="-205" font-family="Helvetica,sans-Serif" font-size="10.00">/J3DMaterialAttach.cpp</text>
</a>
</g>
</g>
<!-- Node290&#45;&gt;Node293 -->
<g id="edge45" class="edge">
<title>Node290&#45;&gt;Node293</title>
<path fill="none" stroke="#63b8ff" d="M860.71,-269.07C779,-259.65 647.77,-243.97 534.71,-228 531.8,-227.59 528.84,-227.16 525.85,-226.72"/>
<polygon fill="#63b8ff" stroke="#63b8ff" points="860.06,-272.52 870.4,-270.19 860.86,-265.57 860.06,-272.52"/>
</g>
<!-- Node294 -->
<g id="node42" class="node">
<title>Node294</title>
<g id="a_node42"><a xlink:href="J3DModelData_8cpp.html" target="_top" xlink:title=" ">
<polygon fill="white" stroke="#666666" points="701.71,-228 543.71,-228 543.71,-198 701.71,-198 701.71,-228"/>
<text text-anchor="start" x="551.71" y="-216" font-family="Helvetica,sans-Serif" font-size="10.00">libs/JSystem/J3DGraphAnimator</text>
<text text-anchor="middle" x="622.71" y="-205" font-family="Helvetica,sans-Serif" font-size="10.00">/J3DModelData.cpp</text>
</a>
</g>
</g>
<!-- Node290&#45;&gt;Node294 -->
<g id="edge47" class="edge">
<title>Node290&#45;&gt;Node294</title>
<path fill="none" stroke="#63b8ff" d="M861.11,-262.13C810.04,-251.82 743.98,-238.48 694.35,-228.46"/>
<polygon fill="#63b8ff" stroke="#63b8ff" points="860.12,-265.5 870.61,-264.05 861.51,-258.64 860.12,-265.5"/>
</g>
<!-- Node290&#45;&gt;Node295 -->
<g id="edge48" class="edge">
<title>Node290&#45;&gt;Node295</title>
<path fill="none" stroke="#63b8ff" d="M957.57,-254.68C964.37,-245.79 971.91,-235.95 977.87,-228.16"/>
<polygon fill="#63b8ff" stroke="#63b8ff" points="954.81,-252.53 951.51,-262.59 960.37,-256.78 954.81,-252.53"/>
</g>
<!-- Node296 -->
<g id="node44" class="node">
<title>Node296</title>
<g id="a_node44"><a xlink:href="J3DMaterial_8cpp.html" target="_top" xlink:title=" ">
<polygon fill="white" stroke="#666666" points="861.71,-228 719.71,-228 719.71,-198 861.71,-198 861.71,-228"/>
<text text-anchor="start" x="727.71" y="-216" font-family="Helvetica,sans-Serif" font-size="10.00">libs/JSystem/J3DGraphBase</text>
<text text-anchor="middle" x="790.71" y="-205" font-family="Helvetica,sans-Serif" font-size="10.00">/J3DMaterial.cpp</text>
</a>
</g>
</g>
<!-- Node290&#45;&gt;Node296 -->
<g id="edge49" class="edge">
<title>Node290&#45;&gt;Node296</title>
<path fill="none" stroke="#63b8ff" d="M895.81,-259.14C872.95,-249.32 845.44,-237.51 824.3,-228.43"/>
<polygon fill="#63b8ff" stroke="#63b8ff" points="894.32,-262.31 904.88,-263.04 897.08,-255.88 894.32,-262.31"/>
</g>
<!-- Node297&#45;&gt;Node126 -->
<g id="edge56" class="edge">
<title>Node297&#45;&gt;Node126</title>
<path fill="none" stroke="#63b8ff" d="M1350.51,-271.49C1273.77,-262.93 1149.31,-246.76 1106.71,-228 1087.02,-219.33 1087.23,-208.96 1068.71,-198 1033.41,-177.1 1019.1,-182.76 983.71,-162 946.61,-140.23 907.84,-106.71 890.32,-90.87"/>
<polygon fill="#63b8ff" stroke="#63b8ff" points="1350.1,-274.97 1360.43,-272.58 1350.87,-268.01 1350.1,-274.97"/>
</g>
<!-- Node50 -->
<g id="node46" class="node">
<title>Node50</title>
<g id="a_node46"><a xlink:href="d__s__play_8cpp.html" target="_top" xlink:title=" ">
<polygon fill="white" stroke="#666666" points="1466.71,-222.5 1360.71,-222.5 1360.71,-203.5 1466.71,-203.5 1466.71,-222.5"/>
<text text-anchor="middle" x="1413.71" y="-210.5" font-family="Helvetica,sans-Serif" font-size="10.00">src/d/s/d_s_play.cpp</text>
</a>
</g>
</g>
<!-- Node297&#45;&gt;Node50 -->
<g id="edge57" class="edge">
<title>Node297&#45;&gt;Node50</title>
<path fill="none" stroke="#63b8ff" d="M1413.71,-257.68C1413.71,-245.94 1413.71,-231.77 1413.71,-222.82"/>
<polygon fill="#63b8ff" stroke="#63b8ff" points="1410.21,-257.59 1413.71,-267.59 1417.21,-257.59 1410.21,-257.59"/>
</g>
<!-- Node298&#45;&gt;Node214 -->
<g id="edge59" class="edge">
<title>Node298&#45;&gt;Node214</title>
<path fill="none" stroke="#63b8ff" d="M1170.65,-186.68C1172.6,-178.34 1174.71,-169.37 1176.39,-162.16"/>
<polygon fill="#63b8ff" stroke="#63b8ff" points="1167.26,-185.79 1168.39,-196.32 1174.08,-187.39 1167.26,-185.79"/>
</g>
<!-- Node298&#45;&gt;Node125 -->
<g id="edge60" class="edge">
<title>Node298&#45;&gt;Node125</title>
<path fill="none" stroke="#63b8ff" d="M1104.31,-197.31C1059.76,-185.9 1005.72,-170.61 998.71,-162 981.91,-141.34 986.29,-106.98 989.59,-90.86"/>
<polygon fill="#63b8ff" stroke="#63b8ff" points="1103.37,-200.68 1113.93,-199.75 1105.1,-193.9 1103.37,-200.68"/>
</g>
<!-- Node298&#45;&gt;Node141 -->
<g id="edge62" class="edge">
<title>Node298&#45;&gt;Node141</title>
<path fill="none" stroke="#63b8ff" d="M1104.45,-196.47C1062.79,-185.12 1013.8,-170.32 1007.71,-162 986.89,-133.51 1029.11,-110.35 1066.07,-96.41"/>
<polygon fill="#63b8ff" stroke="#63b8ff" points="1103.38,-199.8 1113.95,-199.02 1105.2,-193.04 1103.38,-199.8"/>
</g>
<!-- Node299 -->
<g id="node48" class="node">
<title>Node299</title>
<g id="a_node48"><a xlink:href="d__kyeff2_8cpp.html" target="_top" xlink:title=" ">
<polygon fill="white" stroke="#666666" points="1112.21,-156.5 1017.21,-156.5 1017.21,-137.5 1112.21,-137.5 1112.21,-156.5"/>
<text text-anchor="middle" x="1064.71" y="-144.5" font-family="Helvetica,sans-Serif" font-size="10.00">src/d/d_kyeff2.cpp</text>
</a>
</g>
</g>
<!-- Node298&#45;&gt;Node299 -->
<g id="edge61" class="edge">
<title>Node298&#45;&gt;Node299</title>
<path fill="none" stroke="#63b8ff" d="M1133.07,-191.75C1114.72,-180.01 1092.55,-165.81 1078.53,-156.84"/>
<polygon fill="#63b8ff" stroke="#63b8ff" points="1130.94,-194.54 1141.25,-196.98 1134.71,-188.64 1130.94,-194.54"/>
</g>
</g>
</svg>
