<?xml version="1.0" encoding="UTF-8" standalone="no"?>
<!DOCTYPE svg PUBLIC "-//W3C//DTD SVG 1.1//EN"
 "http://www.w3.org/Graphics/SVG/1.1/DTD/svg11.dtd">
<!-- Generated by graphviz version 9.0.0 (20230911.1827)
 -->
<!-- Title: Actors Pages: 1 -->
<svg width="183pt" height="249pt"
 viewBox="0.00 0.00 182.50 249.25" xmlns="http://www.w3.org/2000/svg" xmlns:xlink="http://www.w3.org/1999/xlink">
<g id="graph0" class="graph" transform="scale(1 1) rotate(0) translate(4 245.25)">
<title>Actors</title>
<!-- Node1 -->
<g id="Node000001" class="node">
<title>Node1</title>
<g id="a_Node000001"><a xlink:title="All actor classes.">
<polygon fill="#999999" stroke="#666666" points="44.5,-130.25 0,-130.25 0,-111 44.5,-111 44.5,-130.25"/>
<text text-anchor="middle" x="22.25" y="-116.75" font-family="Helvetica,sans-Serif" font-size="10.00">Actors</text>
</a>
</g>
</g>
<!-- Node2 -->
<g id="Node000002" class="node">
<title>Node2</title>
<g id="a_Node000002"><a xlink:href="group__actors-bosses.html" target="_top" xlink:title="All boss actor classes.">
<polygon fill="white" stroke="#666666" points="152,-241.25 103,-241.25 103,-222 152,-222 152,-241.25"/>
<text text-anchor="middle" x="127.5" y="-227.75" font-family="Helvetica,sans-Serif" font-size="10.00">Bosses</text>
</a>
</g>
</g>
<!-- Node1&#45;&gt;Node2 -->
<g id="edge1" class="edge">
<title>Node1&#45;&gt;Node2</title>
<path fill="none" stroke="black" d="M31.19,-141.03C40.25,-161.89 56.92,-193.92 80.5,-213.62 86.95,-219.01 95.2,-222.91 102.93,-225.68"/>
<polygon fill="black" stroke="black" points="34.47,-139.8 27.42,-131.89 27.99,-142.47 34.47,-139.8"/>
</g>
<!-- Node3 -->
<g id="Node000003" class="node">
<title>Node3</title>
<g id="a_Node000003"><a xlink:href="group__actors-doors.html" target="_top" xlink:title="All door actor classes.">
<polygon fill="white" stroke="#666666" points="148.25,-204.25 106.75,-204.25 106.75,-185 148.25,-185 148.25,-204.25"/>
<text text-anchor="middle" x="127.5" y="-190.75" font-family="Helvetica,sans-Serif" font-size="10.00">Doors</text>
</a>
</g>
</g>
<!-- Node1&#45;&gt;Node3 -->
<g id="edge2" class="edge">
<title>Node1&#45;&gt;Node3</title>
<path fill="none" stroke="black" d="M38.48,-138.96C49.22,-150.96 64.49,-166.28 80.5,-176.62 88.42,-181.74 98.03,-185.79 106.41,-188.73"/>
<polygon fill="black" stroke="black" points="41.39,-136.98 32.2,-131.71 36.1,-141.56 41.39,-136.98"/>
</g>
<!-- Node4 -->
<g id="Node000004" class="node">
<title>Node4</title>
<g id="a_Node000004"><a xlink:href="group__actors-enemies.html" target="_top" xlink:title="All enemy actor classes.">
<polygon fill="white" stroke="#666666" points="154.25,-167.25 100.75,-167.25 100.75,-148 154.25,-148 154.25,-167.25"/>
<text text-anchor="middle" x="127.5" y="-153.75" font-family="Helvetica,sans-Serif" font-size="10.00">Enemies</text>
</a>
</g>
</g>
<!-- Node1&#45;&gt;Node4 -->
<g id="edge3" class="edge">
<title>Node1&#45;&gt;Node4</title>
<path fill="none" stroke="black" d="M55.17,-132.06C69.68,-137.26 86.63,-143.34 100.37,-148.26"/>
<polygon fill="black" stroke="black" points="56.66,-128.88 46.07,-128.8 54.3,-135.47 56.66,-128.88"/>
</g>
<!-- Node5 -->
<g id="Node000005" class="node">
<title>Node5</title>
<g id="a_Node000005"><a xlink:href="group__actors-kytags.html" target="_top" xlink:title="All environment tag actor classes.">
<polygon fill="white" stroke="#666666" points="174.5,-130.25 80.5,-130.25 80.5,-111 174.5,-111 174.5,-130.25"/>
<text text-anchor="middle" x="127.5" y="-116.75" font-family="Helvetica,sans-Serif" font-size="10.00">Environment Tags</text>
</a>
</g>
</g>
<!-- Node1&#45;&gt;Node5 -->
<g id="edge4" class="edge">
<title>Node1&#45;&gt;Node5</title>
<path fill="none" stroke="black" d="M56,-120.62C63.64,-120.62 71.91,-120.62 80.02,-120.62"/>
<polygon fill="black" stroke="black" points="56.16,-117.13 46.16,-120.63 56.16,-124.13 56.16,-117.13"/>
</g>
<!-- Node7 -->
<g id="Node000007" class="node">
<title>Node7</title>
<g id="a_Node000007"><a xlink:href="group__actors-npcs.html" target="_top" xlink:title="All NPC actor classes.">
<polygon fill="white" stroke="#666666" points="148.62,-93.25 106.38,-93.25 106.38,-74 148.62,-74 148.62,-93.25"/>
<text text-anchor="middle" x="127.5" y="-79.75" font-family="Helvetica,sans-Serif" font-size="10.00">NPCs</text>
</a>
</g>
</g>
<!-- Node1&#45;&gt;Node7 -->
<g id="edge6" class="edge">
<title>Node1&#45;&gt;Node7</title>
<path fill="none" stroke="black" d="M55.04,-109.23C71.7,-103.26 91.62,-96.13 106.19,-90.9"/>
<polygon fill="black" stroke="black" points="54.3,-105.78 46.07,-112.45 56.66,-112.37 54.3,-105.78"/>
</g>
<!-- Node6 -->
<g id="Node000006" class="node">
<title>Node6</title>
<g id="a_Node000006"><a xlink:href="group__actors-objects.html" target="_top" xlink:title="All object actor classes.">
<polygon fill="white" stroke="#666666" points="152.38,-56.25 102.62,-56.25 102.62,-37 152.38,-37 152.38,-56.25"/>
<text text-anchor="middle" x="127.5" y="-42.75" font-family="Helvetica,sans-Serif" font-size="10.00">Objects</text>
</a>
</g>
</g>
<!-- Node1&#45;&gt;Node6 -->
<g id="edge5" class="edge">
<title>Node1&#45;&gt;Node6</title>
<path fill="none" stroke="black" d="M38.48,-102.29C49.22,-90.29 64.49,-74.97 80.5,-64.62 87.13,-60.34 94.93,-56.81 102.21,-54.05"/>
<polygon fill="black" stroke="black" points="36.1,-99.69 32.2,-109.54 41.39,-104.27 36.1,-99.69"/>
</g>
<!-- Node8 -->
<g id="Node000008" class="node">
<title>Node8</title>
<g id="a_Node000008"><a xlink:href="group__actors-tags.html" target="_top" xlink:title="All tag actor classes.">
<polygon fill="white" stroke="#666666" points="146.38,-19.25 108.62,-19.25 108.62,0 146.38,0 146.38,-19.25"/>
<text text-anchor="middle" x="127.5" y="-5.75" font-family="Helvetica,sans-Serif" font-size="10.00">Tags</text>
</a>
</g>
</g>
<!-- Node1&#45;&gt;Node8 -->
<g id="edge7" class="edge">
<title>Node1&#45;&gt;Node8</title>
<path fill="none" stroke="black" d="M31.19,-100.22C40.25,-79.36 56.92,-47.33 80.5,-27.62 88.53,-20.92 99.35,-16.51 108.48,-13.74"/>
<polygon fill="black" stroke="black" points="27.99,-98.78 27.42,-109.36 34.47,-101.45 27.99,-98.78"/>
</g>
</g>
</svg>
