<?xml version="1.0" encoding="UTF-8" standalone="no"?>
<!DOCTYPE svg PUBLIC "-//W3C//DTD SVG 1.1//EN"
 "http://www.w3.org/Graphics/SVG/1.1/DTD/svg11.dtd">
<!-- Generated by graphviz version 7.0.5 (20221223.1930)
 -->
<!-- Title: include/dolphin/gx/GX.h Pages: 1 -->
<svg width="5357pt" height="291pt"
 viewBox="0.00 0.00 5356.50 291.00" xmlns="http://www.w3.org/2000/svg" xmlns:xlink="http://www.w3.org/1999/xlink">
<g id="graph0" class="graph" transform="scale(1 1) rotate(0) translate(4 287)">
<title>include/dolphin/gx/GX.h</title>
<!-- Node1 -->
<g id="node1" class="node">
<title>Node1</title>
<g id="a_node1"><a xlink:title=" ">
<polygon fill="#999999" stroke="#666666" points="2455,-283 2336,-283 2336,-264 2455,-264 2455,-283"/>
<text text-anchor="middle" x="2395.5" y="-271" font-family="Helvetica,sans-Serif" font-size="10.00">include/dolphin/gx/GX.h</text>
</a>
</g>
</g>
<!-- Node2 -->
<g id="node2" class="node">
<title>Node2</title>
<g id="a_node2"><a xlink:href="J2DAnimation_8h.html" target="_top" xlink:title=" ">
<polygon fill="#fff0f0" stroke="red" points="285,-162 150,-162 150,-132 285,-132 285,-162"/>
<text text-anchor="start" x="158" y="-150" font-family="Helvetica,sans-Serif" font-size="10.00">include/JSystem/J2DGraph</text>
<text text-anchor="middle" x="217.5" y="-139" font-family="Helvetica,sans-Serif" font-size="10.00">/J2DAnimation.h</text>
</a>
</g>
</g>
<!-- Node1&#45;&gt;Node2 -->
<g id="edge1" class="edge">
<title>Node1&#45;&gt;Node2</title>
<path fill="none" stroke="#63b8ff" d="M2324.21,-272.28C1969.89,-271 411.58,-263.4 315.5,-228 279.02,-214.56 246.14,-181.46 229.32,-162.31"/>
<polygon fill="#63b8ff" stroke="#63b8ff" points="2324.04,-275.78 2334.05,-272.31 2324.07,-268.78 2324.04,-275.78"/>
</g>
<!-- Node9 -->
<g id="node4" class="node">
<title>Node9</title>
<g id="a_node4"><a xlink:href="J2DMaterial_8h.html" target="_top" xlink:title=" ">
<polygon fill="#fff0f0" stroke="red" points="135,-96 0,-96 0,-66 135,-66 135,-96"/>
<text text-anchor="start" x="8" y="-84" font-family="Helvetica,sans-Serif" font-size="10.00">include/JSystem/J2DGraph</text>
<text text-anchor="middle" x="67.5" y="-73" font-family="Helvetica,sans-Serif" font-size="10.00">/J2DMaterial.h</text>
</a>
</g>
</g>
<!-- Node1&#45;&gt;Node9 -->
<g id="edge6" class="edge">
<title>Node1&#45;&gt;Node9</title>
<path fill="none" stroke="#63b8ff" d="M2324.07,-272.34C1940.31,-271.36 139.15,-264.79 95.5,-228 56.62,-195.23 61,-126.44 65.08,-96.47"/>
<polygon fill="#63b8ff" stroke="#63b8ff" points="2324.01,-275.84 2334.02,-272.37 2324.03,-268.84 2324.01,-275.84"/>
</g>
<!-- Node228 -->
<g id="node7" class="node">
<title>Node228</title>
<g id="a_node7"><a xlink:href="J2DTevs_8h.html" target="_top" xlink:title=" ">
<polygon fill="#fff0f0" stroke="red" points="1140,-228 1005,-228 1005,-198 1140,-198 1140,-228"/>
<text text-anchor="start" x="1013" y="-216" font-family="Helvetica,sans-Serif" font-size="10.00">include/JSystem/J2DGraph</text>
<text text-anchor="middle" x="1072.5" y="-205" font-family="Helvetica,sans-Serif" font-size="10.00">/J2DTevs.h</text>
</a>
</g>
</g>
<!-- Node1&#45;&gt;Node228 -->
<g id="edge7" class="edge">
<title>Node1&#45;&gt;Node228</title>
<path fill="none" stroke="#63b8ff" d="M2324.12,-271.33C2094.87,-267.35 1378.82,-253.19 1148.5,-228 1145.83,-227.71 1143.12,-227.38 1140.38,-227.01"/>
<polygon fill="#63b8ff" stroke="#63b8ff" points="2324.06,-274.83 2334.12,-271.5 2324.18,-267.83 2324.06,-274.83"/>
</g>
<!-- Node240 -->
<g id="node8" class="node">
<title>Node240</title>
<g id="a_node8"><a xlink:href="J2DTevs_8cpp.html" target="_top" xlink:title=" ">
<polygon fill="white" stroke="#666666" points="1121,-162 1002,-162 1002,-132 1121,-132 1121,-162"/>
<text text-anchor="start" x="1010" y="-150" font-family="Helvetica,sans-Serif" font-size="10.00">libs/JSystem/J2DGraph</text>
<text text-anchor="middle" x="1061.5" y="-139" font-family="Helvetica,sans-Serif" font-size="10.00">/J2DTevs.cpp</text>
</a>
</g>
</g>
<!-- Node1&#45;&gt;Node240 -->
<g id="edge57" class="edge">
<title>Node1&#45;&gt;Node240</title>
<path fill="none" stroke="#63b8ff" d="M2324.68,-272.95C2046.57,-274.37 1042.12,-276.13 995.5,-228 974.58,-206.4 1009.04,-178.94 1035.53,-162.45"/>
<polygon fill="#63b8ff" stroke="#63b8ff" points="2324.33,-276.45 2334.31,-272.9 2324.29,-269.45 2324.33,-276.45"/>
</g>
<!-- Node241 -->
<g id="node9" class="node">
<title>Node241</title>
<g id="a_node9"><a xlink:href="J3DAnimation_8h.html" target="_top" xlink:title=" ">
<polygon fill="#fff0f0" stroke="red" points="240,-228 105,-228 105,-198 240,-198 240,-228"/>
<text text-anchor="start" x="113" y="-216" font-family="Helvetica,sans-Serif" font-size="10.00">include/JSystem/J3DGraph</text>
<text text-anchor="middle" x="172.5" y="-205" font-family="Helvetica,sans-Serif" font-size="10.00">Animator/J3DAnimation.h</text>
</a>
</g>
</g>
<!-- Node1&#45;&gt;Node241 -->
<g id="edge9" class="edge">
<title>Node1&#45;&gt;Node241</title>
<path fill="none" stroke="#63b8ff" d="M2324.46,-272.44C2001.52,-271.95 669.67,-267.54 254.5,-228 249.9,-227.56 245.17,-227.01 240.41,-226.39"/>
<polygon fill="#63b8ff" stroke="#63b8ff" points="2324.45,-275.94 2334.46,-272.45 2324.46,-268.94 2324.45,-275.94"/>
</g>
<!-- Node314 -->
<g id="node10" class="node">
<title>Node314</title>
<g id="a_node10"><a xlink:href="J3DGD_8h.html" target="_top" xlink:title=" ">
<polygon fill="#fff0f0" stroke="red" points="1293,-228 1158,-228 1158,-198 1293,-198 1293,-228"/>
<text text-anchor="start" x="1166" y="-216" font-family="Helvetica,sans-Serif" font-size="10.00">include/JSystem/J3DGraph</text>
<text text-anchor="middle" x="1225.5" y="-205" font-family="Helvetica,sans-Serif" font-size="10.00">Base/J3DGD.h</text>
</a>
</g>
</g>
<!-- Node1&#45;&gt;Node314 -->
<g id="edge12" class="edge">
<title>Node1&#45;&gt;Node314</title>
<path fill="none" stroke="#63b8ff" d="M2324.46,-272.74C2150.5,-272.64 1689.5,-268.25 1307.5,-228 1302.9,-227.52 1298.18,-226.93 1293.42,-226.29"/>
<polygon fill="#63b8ff" stroke="#63b8ff" points="2324.23,-276.24 2334.23,-272.74 2324.23,-269.24 2324.23,-276.24"/>
</g>
<!-- Node318 -->
<g id="node11" class="node">
<title>Node318</title>
<g id="a_node11"><a xlink:href="J3DMatBlock_8h.html" target="_top" xlink:title=" ">
<polygon fill="#fff0f0" stroke="red" points="438,-162 303,-162 303,-132 438,-132 438,-162"/>
<text text-anchor="start" x="311" y="-150" font-family="Helvetica,sans-Serif" font-size="10.00">include/JSystem/J3DGraph</text>
<text text-anchor="middle" x="370.5" y="-139" font-family="Helvetica,sans-Serif" font-size="10.00">Base/J3DMatBlock.h</text>
</a>
</g>
</g>
<!-- Node1&#45;&gt;Node318 -->
<g id="edge13" class="edge">
<title>Node1&#45;&gt;Node318</title>
<path fill="none" stroke="#63b8ff" d="M2324.25,-272.32C1964.27,-271.26 361.21,-264.48 325.5,-228 306.55,-208.64 332.61,-179.71 352.26,-162.46"/>
<polygon fill="#63b8ff" stroke="#63b8ff" points="2324.01,-275.82 2334.02,-272.35 2324.03,-268.82 2324.01,-275.82"/>
</g>
<!-- Node338 -->
<g id="node12" class="node">
<title>Node338</title>
<g id="a_node12"><a xlink:href="J3DShape_8h.html" target="_top" xlink:title=" ">
<polygon fill="#fff0f0" stroke="red" points="1485,-228 1350,-228 1350,-198 1485,-198 1485,-228"/>
<text text-anchor="start" x="1358" y="-216" font-family="Helvetica,sans-Serif" font-size="10.00">include/JSystem/J3DGraph</text>
<text text-anchor="middle" x="1417.5" y="-205" font-family="Helvetica,sans-Serif" font-size="10.00">Base/J3DShape.h</text>
</a>
</g>
</g>
<!-- Node1&#45;&gt;Node338 -->
<g id="edge14" class="edge">
<title>Node1&#45;&gt;Node338</title>
<path fill="none" stroke="#63b8ff" d="M2324.14,-272.19C2171.32,-270.84 1801.24,-263.78 1493.5,-228 1490.83,-227.69 1488.12,-227.34 1485.39,-226.97"/>
<polygon fill="#63b8ff" stroke="#63b8ff" points="2324.1,-275.69 2334.13,-272.28 2324.16,-268.69 2324.1,-275.69"/>
</g>
<!-- Node325 -->
<g id="node13" class="node">
<title>Node325</title>
<g id="a_node13"><a xlink:href="J3DPacket_8cpp.html" target="_top" xlink:title=" ">
<polygon fill="white" stroke="#666666" points="1564.5,-162 1422.5,-162 1422.5,-132 1564.5,-132 1564.5,-162"/>
<text text-anchor="start" x="1430.5" y="-150" font-family="Helvetica,sans-Serif" font-size="10.00">libs/JSystem/J3DGraphBase</text>
<text text-anchor="middle" x="1493.5" y="-139" font-family="Helvetica,sans-Serif" font-size="10.00">/J3DPacket.cpp</text>
</a>
</g>
</g>
<!-- Node1&#45;&gt;Node325 -->
<g id="edge58" class="edge">
<title>Node1&#45;&gt;Node325</title>
<path fill="none" stroke="#63b8ff" d="M2324.41,-272.17C2093.05,-270.75 1374.54,-263.5 1340.5,-228 1309.07,-195.22 1368.43,-173.22 1422.12,-160.72"/>
<polygon fill="#63b8ff" stroke="#63b8ff" points="2324.17,-275.67 2334.19,-272.23 2324.21,-268.67 2324.17,-275.67"/>
</g>
<!-- Node343 -->
<g id="node14" class="node">
<title>Node343</title>
<g id="a_node14"><a xlink:href="J3DStruct_8h.html" target="_top" xlink:title=" ">
<polygon fill="#fff0f0" stroke="red" points="470,-228 335,-228 335,-198 470,-198 470,-228"/>
<text text-anchor="start" x="343" y="-216" font-family="Helvetica,sans-Serif" font-size="10.00">include/JSystem/J3DGraph</text>
<text text-anchor="middle" x="402.5" y="-205" font-family="Helvetica,sans-Serif" font-size="10.00">Base/J3DStruct.h</text>
</a>
</g>
</g>
<!-- Node1&#45;&gt;Node343 -->
<g id="edge16" class="edge">
<title>Node1&#45;&gt;Node343</title>
<path fill="none" stroke="#63b8ff" d="M2324.63,-272.34C2023.38,-271.44 847.78,-265.52 479.5,-228 476.53,-227.7 473.49,-227.34 470.44,-226.95"/>
<polygon fill="#63b8ff" stroke="#63b8ff" points="2324.29,-275.84 2334.3,-272.37 2324.31,-268.84 2324.29,-275.84"/>
</g>
<!-- Node252 -->
<g id="node15" class="node">
<title>Node252</title>
<g id="a_node15"><a xlink:href="d__kankyo_8h.html" target="_top" xlink:title=" ">
<polygon fill="#fff0f0" stroke="red" points="554.5,-162 456.5,-162 456.5,-132 554.5,-132 554.5,-162"/>
<text text-anchor="start" x="464.5" y="-150" font-family="Helvetica,sans-Serif" font-size="10.00">include/d/kankyo/d</text>
<text text-anchor="middle" x="505.5" y="-139" font-family="Helvetica,sans-Serif" font-size="10.00">_kankyo.h</text>
</a>
</g>
</g>
<!-- Node1&#45;&gt;Node252 -->
<g id="edge52" class="edge">
<title>Node1&#45;&gt;Node252</title>
<path fill="none" stroke="#63b8ff" d="M2324.37,-271.88C2008.75,-268.95 746.82,-255.58 667.5,-228 646.51,-220.7 646.83,-208.97 627.5,-198 602.32,-183.71 572.23,-171.33 548.24,-162.47"/>
<polygon fill="#63b8ff" stroke="#63b8ff" points="2324.09,-275.37 2334.12,-271.97 2324.16,-268.37 2324.09,-275.37"/>
</g>
<!-- Node17 -->
<g id="node16" class="node">
<title>Node17</title>
<g id="a_node16"><a xlink:href="d__drawlist_8h.html" target="_top" xlink:title=" ">
<polygon fill="#fff0f0" stroke="red" points="717.5,-90.5 607.5,-90.5 607.5,-71.5 717.5,-71.5 717.5,-90.5"/>
<text text-anchor="middle" x="662.5" y="-78.5" font-family="Helvetica,sans-Serif" font-size="10.00">include/d/d_drawlist.h</text>
</a>
</g>
</g>
<!-- Node1&#45;&gt;Node17 -->
<g id="edge51" class="edge">
<title>Node1&#45;&gt;Node17</title>
<path fill="none" stroke="#63b8ff" d="M2324.46,-272.76C2016.23,-273.6 807.19,-273.95 741.5,-228 703.9,-201.7 726.77,-171.55 703.5,-132 694.28,-116.33 680.31,-100.47 671.29,-90.93"/>
<polygon fill="#63b8ff" stroke="#63b8ff" points="2324.4,-276.26 2334.39,-272.73 2324.38,-269.26 2324.4,-276.26"/>
</g>
<!-- Node345 -->
<g id="node17" class="node">
<title>Node345</title>
<g id="a_node17"><a xlink:href="J3DSys_8h.html" target="_top" xlink:title=" ">
<polygon fill="#fff0f0" stroke="red" points="1638,-228 1503,-228 1503,-198 1638,-198 1638,-228"/>
<text text-anchor="start" x="1511" y="-216" font-family="Helvetica,sans-Serif" font-size="10.00">include/JSystem/J3DGraph</text>
<text text-anchor="middle" x="1570.5" y="-205" font-family="Helvetica,sans-Serif" font-size="10.00">Base/J3DSys.h</text>
</a>
</g>
</g>
<!-- Node1&#45;&gt;Node345 -->
<g id="edge21" class="edge">
<title>Node1&#45;&gt;Node345</title>
<path fill="none" stroke="#63b8ff" d="M2324.32,-271.18C2190.91,-268.06 1894.35,-258.08 1646.5,-228 1643.84,-227.68 1641.12,-227.32 1638.39,-226.93"/>
<polygon fill="#63b8ff" stroke="#63b8ff" points="2323.98,-274.67 2334.05,-271.4 2324.13,-267.67 2323.98,-274.67"/>
</g>
<!-- Node351 -->
<g id="node18" class="node">
<title>Node351</title>
<g id="a_node18"><a xlink:href="J3DVertex_8h.html" target="_top" xlink:title=" ">
<polygon fill="#fff0f0" stroke="red" points="1791,-228 1656,-228 1656,-198 1791,-198 1791,-228"/>
<text text-anchor="start" x="1664" y="-216" font-family="Helvetica,sans-Serif" font-size="10.00">include/JSystem/J3DGraph</text>
<text text-anchor="middle" x="1723.5" y="-205" font-family="Helvetica,sans-Serif" font-size="10.00">Base/J3DVertex.h</text>
</a>
</g>
</g>
<!-- Node1&#45;&gt;Node351 -->
<g id="edge23" class="edge">
<title>Node1&#45;&gt;Node351</title>
<path fill="none" stroke="#63b8ff" d="M2324.17,-269.66C2212.1,-264.64 1988.09,-252.34 1799.5,-228 1796.84,-227.66 1794.13,-227.28 1791.4,-226.88"/>
<polygon fill="#63b8ff" stroke="#63b8ff" points="2323.99,-273.15 2334.13,-270.1 2324.3,-266.16 2323.99,-273.15"/>
</g>
<!-- Node352 -->
<g id="node19" class="node">
<title>Node352</title>
<g id="a_node19"><a xlink:href="J3DShapeFactory_8h.html" target="_top" xlink:title=" ">
<polygon fill="#fff0f0" stroke="red" points="1944,-228 1809,-228 1809,-198 1944,-198 1944,-228"/>
<text text-anchor="start" x="1817" y="-216" font-family="Helvetica,sans-Serif" font-size="10.00">include/JSystem/J3DGraph</text>
<text text-anchor="middle" x="1876.5" y="-205" font-family="Helvetica,sans-Serif" font-size="10.00">Loader/J3DShapeFactory.h</text>
</a>
</g>
</g>
<!-- Node1&#45;&gt;Node352 -->
<g id="edge25" class="edge">
<title>Node1&#45;&gt;Node352</title>
<path fill="none" stroke="#63b8ff" d="M2324.24,-267.08C2236.7,-260.02 2083.78,-246.37 1953.5,-228 1950.54,-227.58 1947.52,-227.13 1944.47,-226.66"/>
<polygon fill="#63b8ff" stroke="#63b8ff" points="2323.87,-270.56 2334.11,-267.87 2324.43,-263.58 2323.87,-270.56"/>
</g>
<!-- Node353 -->
<g id="node20" class="node">
<title>Node353</title>
<g id="a_node20"><a xlink:href="JFWDisplay_8h.html" target="_top" xlink:title=" ">
<polygon fill="#fff0f0" stroke="red" points="934.5,-162 788.5,-162 788.5,-132 934.5,-132 934.5,-162"/>
<text text-anchor="start" x="796.5" y="-150" font-family="Helvetica,sans-Serif" font-size="10.00">include/JSystem/JFramework</text>
<text text-anchor="middle" x="861.5" y="-139" font-family="Helvetica,sans-Serif" font-size="10.00">/JFWDisplay.h</text>
</a>
</g>
</g>
<!-- Node1&#45;&gt;Node353 -->
<g id="edge26" class="edge">
<title>Node1&#45;&gt;Node353</title>
<path fill="none" stroke="#63b8ff" d="M2324.3,-272.02C2038.58,-269.86 987.54,-259.78 924.5,-228 896.72,-213.99 877.36,-181.43 867.97,-162.45"/>
<polygon fill="#63b8ff" stroke="#63b8ff" points="2324.2,-275.51 2334.22,-272.09 2324.25,-268.52 2324.2,-275.51"/>
</g>
<!-- Node354 -->
<g id="node21" class="node">
<title>Node354</title>
<g id="a_node21"><a xlink:href="m__Do__graphic_8h.html" target="_top" xlink:title=" ">
<polygon fill="#fff0f0" stroke="red" points="988,-90.5 839,-90.5 839,-71.5 988,-71.5 988,-90.5"/>
<text text-anchor="middle" x="913.5" y="-78.5" font-family="Helvetica,sans-Serif" font-size="10.00">include/m_Do/m_Do_graphic.h</text>
</a>
</g>
</g>
<!-- Node1&#45;&gt;Node354 -->
<g id="edge56" class="edge">
<title>Node1&#45;&gt;Node354</title>
<path fill="none" stroke="#63b8ff" d="M2324.69,-272.35C2046.56,-271.5 1041.39,-265.83 985.5,-228 946.93,-201.9 964.86,-173.39 943.5,-132 935.79,-117.07 925.47,-100.48 919.16,-90.66"/>
<polygon fill="#63b8ff" stroke="#63b8ff" points="2324.31,-275.85 2334.32,-272.38 2324.33,-268.85 2324.31,-275.85"/>
</g>
<!-- Node355 -->
<g id="node22" class="node">
<title>Node355</title>
<g id="a_node22"><a xlink:href="JPABaseShape_8h.html" target="_top" xlink:title=" ">
<polygon fill="#fff0f0" stroke="red" points="2092.5,-228 1962.5,-228 1962.5,-198 2092.5,-198 2092.5,-228"/>
<text text-anchor="start" x="1970.5" y="-216" font-family="Helvetica,sans-Serif" font-size="10.00">include/JSystem/JParticle</text>
<text text-anchor="middle" x="2027.5" y="-205" font-family="Helvetica,sans-Serif" font-size="10.00">/JPABaseShape.h</text>
</a>
</g>
</g>
<!-- Node1&#45;&gt;Node355 -->
<g id="edge28" class="edge">
<title>Node1&#45;&gt;Node355</title>
<path fill="none" stroke="#63b8ff" d="M2324.54,-262.51C2264.92,-253.93 2177.52,-240.94 2101.5,-228 2098.66,-227.52 2095.77,-227.01 2092.85,-226.5"/>
<polygon fill="#63b8ff" stroke="#63b8ff" points="2323.82,-265.94 2334.21,-263.89 2324.81,-259.01 2323.82,-265.94"/>
</g>
<!-- Node358 -->
<g id="node23" class="node">
<title>Node358</title>
<g id="a_node23"><a xlink:href="JPAChildShape_8h.html" target="_top" xlink:title=" ">
<polygon fill="#fff0f0" stroke="red" points="2240.5,-228 2110.5,-228 2110.5,-198 2240.5,-198 2240.5,-228"/>
<text text-anchor="start" x="2118.5" y="-216" font-family="Helvetica,sans-Serif" font-size="10.00">include/JSystem/JParticle</text>
<text text-anchor="middle" x="2175.5" y="-205" font-family="Helvetica,sans-Serif" font-size="10.00">/JPAChildShape.h</text>
</a>
</g>
</g>
<!-- Node1&#45;&gt;Node358 -->
<g id="edge29" class="edge">
<title>Node1&#45;&gt;Node358</title>
<path fill="none" stroke="#63b8ff" d="M2351.25,-260.73C2316.23,-251.42 2267.19,-238.38 2229.8,-228.44"/>
<polygon fill="#63b8ff" stroke="#63b8ff" points="2350.06,-264.04 2360.62,-263.23 2351.86,-257.27 2350.06,-264.04"/>
</g>
<!-- Node360 -->
<g id="node24" class="node">
<title>Node360</title>
<g id="a_node24"><a xlink:href="JPAParticle_8h.html" target="_top" xlink:title=" ">
<polygon fill="#fff0f0" stroke="red" points="618.5,-228 488.5,-228 488.5,-198 618.5,-198 618.5,-228"/>
<text text-anchor="start" x="496.5" y="-216" font-family="Helvetica,sans-Serif" font-size="10.00">include/JSystem/JParticle</text>
<text text-anchor="middle" x="553.5" y="-205" font-family="Helvetica,sans-Serif" font-size="10.00">/JPAParticle.h</text>
</a>
</g>
</g>
<!-- Node1&#45;&gt;Node360 -->
<g id="edge30" class="edge">
<title>Node1&#45;&gt;Node360</title>
<path fill="none" stroke="#63b8ff" d="M2324.28,-272.13C2037.82,-270.42 969.03,-261.87 632.5,-228 628.07,-227.55 623.5,-227 618.92,-226.37"/>
<polygon fill="#63b8ff" stroke="#63b8ff" points="2324.21,-275.63 2334.23,-272.19 2324.25,-268.63 2324.21,-275.63"/>
</g>
<!-- Node371 -->
<g id="node25" class="node">
<title>Node371</title>
<g id="a_node25"><a xlink:href="JPAResourceManager_8h.html" target="_top" xlink:title=" ">
<polygon fill="#fff0f0" stroke="red" points="2388.5,-228 2258.5,-228 2258.5,-198 2388.5,-198 2388.5,-228"/>
<text text-anchor="start" x="2266.5" y="-216" font-family="Helvetica,sans-Serif" font-size="10.00">include/JSystem/JParticle</text>
<text text-anchor="middle" x="2323.5" y="-205" font-family="Helvetica,sans-Serif" font-size="10.00">/JPAResourceManager.h</text>
</a>
</g>
</g>
<!-- Node1&#45;&gt;Node371 -->
<g id="edge32" class="edge">
<title>Node1&#45;&gt;Node371</title>
<path fill="none" stroke="#63b8ff" d="M2375.85,-256.53C2365.05,-247.76 2351.76,-236.96 2341.27,-228.44"/>
<polygon fill="#63b8ff" stroke="#63b8ff" points="2373.42,-259.07 2383.39,-262.66 2377.84,-253.64 2373.42,-259.07"/>
</g>
<!-- Node373 -->
<g id="node26" class="node">
<title>Node373</title>
<g id="a_node26"><a xlink:href="JSGAmbientLight_8h.html" target="_top" xlink:title=" ">
<polygon fill="#fff0f0" stroke="red" points="2528.5,-228 2406.5,-228 2406.5,-198 2528.5,-198 2528.5,-228"/>
<text text-anchor="start" x="2414.5" y="-216" font-family="Helvetica,sans-Serif" font-size="10.00">include/JSystem/JStage</text>
<text text-anchor="middle" x="2467.5" y="-205" font-family="Helvetica,sans-Serif" font-size="10.00">/JSGAmbientLight.h</text>
</a>
</g>
</g>
<!-- Node1&#45;&gt;Node373 -->
<g id="edge33" class="edge">
<title>Node1&#45;&gt;Node373</title>
<path fill="none" stroke="#63b8ff" d="M2415.15,-256.53C2425.95,-247.76 2439.24,-236.96 2449.73,-228.44"/>
<polygon fill="#63b8ff" stroke="#63b8ff" points="2413.16,-253.64 2407.61,-262.66 2417.58,-259.07 2413.16,-253.64"/>
</g>
<!-- Node389 -->
<g id="node27" class="node">
<title>Node389</title>
<g id="a_node27"><a xlink:href="JSGFog_8h.html" target="_top" xlink:title=" ">
<polygon fill="#fff0f0" stroke="red" points="2668.5,-228 2546.5,-228 2546.5,-198 2668.5,-198 2668.5,-228"/>
<text text-anchor="start" x="2554.5" y="-216" font-family="Helvetica,sans-Serif" font-size="10.00">include/JSystem/JStage</text>
<text text-anchor="middle" x="2607.5" y="-205" font-family="Helvetica,sans-Serif" font-size="10.00">/JSGFog.h</text>
</a>
</g>
</g>
<!-- Node1&#45;&gt;Node389 -->
<g id="edge34" class="edge">
<title>Node1&#45;&gt;Node389</title>
<path fill="none" stroke="#63b8ff" d="M2438.58,-260.61C2472.29,-251.31 2519.3,-238.34 2555.17,-228.44"/>
<polygon fill="#63b8ff" stroke="#63b8ff" points="2437.87,-257.18 2429.16,-263.21 2439.73,-263.93 2437.87,-257.18"/>
</g>
<!-- Node391 -->
<g id="node28" class="node">
<title>Node391</title>
<g id="a_node28"><a xlink:href="JSGLight_8h.html" target="_top" xlink:title=" ">
<polygon fill="#fff0f0" stroke="red" points="2808.5,-228 2686.5,-228 2686.5,-198 2808.5,-198 2808.5,-228"/>
<text text-anchor="start" x="2694.5" y="-216" font-family="Helvetica,sans-Serif" font-size="10.00">include/JSystem/JStage</text>
<text text-anchor="middle" x="2747.5" y="-205" font-family="Helvetica,sans-Serif" font-size="10.00">/JSGLight.h</text>
</a>
</g>
</g>
<!-- Node1&#45;&gt;Node391 -->
<g id="edge35" class="edge">
<title>Node1&#45;&gt;Node391</title>
<path fill="none" stroke="#63b8ff" d="M2466.38,-262.13C2523.49,-253.59 2605.8,-240.82 2677.5,-228 2680.31,-227.5 2683.17,-226.97 2686.07,-226.43"/>
<polygon fill="#63b8ff" stroke="#63b8ff" points="2466.18,-258.63 2456.8,-263.56 2467.21,-265.55 2466.18,-258.63"/>
</g>
<!-- Node393 -->
<g id="node29" class="node">
<title>Node393</title>
<g id="a_node29"><a xlink:href="jstudio-control_8h.html" target="_top" xlink:title=" ">
<polygon fill="#fff0f0" stroke="red" points="2990,-228 2865,-228 2865,-198 2990,-198 2990,-228"/>
<text text-anchor="start" x="2873" y="-216" font-family="Helvetica,sans-Serif" font-size="10.00">include/JSystem/JStudio</text>
<text text-anchor="middle" x="2927.5" y="-205" font-family="Helvetica,sans-Serif" font-size="10.00">/JStudio/jstudio&#45;control.h</text>
</a>
</g>
</g>
<!-- Node1&#45;&gt;Node393 -->
<g id="edge36" class="edge">
<title>Node1&#45;&gt;Node393</title>
<path fill="none" stroke="#63b8ff" d="M2466.7,-267.36C2556.45,-260.47 2715.32,-246.87 2850.5,-228 2855.08,-227.36 2859.79,-226.65 2864.54,-225.88"/>
<polygon fill="#63b8ff" stroke="#63b8ff" points="2466.52,-263.86 2456.82,-268.11 2467.05,-270.84 2466.52,-263.86"/>
</g>
<!-- Node394 -->
<g id="node30" class="node">
<title>Node394</title>
<g id="a_node30"><a xlink:href="jstudio-object_8h.html" target="_top" xlink:title=" ">
<polygon fill="#fff0f0" stroke="red" points="2944,-162 2819,-162 2819,-132 2944,-132 2944,-162"/>
<text text-anchor="start" x="2827" y="-150" font-family="Helvetica,sans-Serif" font-size="10.00">include/JSystem/JStudio</text>
<text text-anchor="middle" x="2881.5" y="-139" font-family="Helvetica,sans-Serif" font-size="10.00">/JStudio/jstudio&#45;object.h</text>
</a>
</g>
</g>
<!-- Node1&#45;&gt;Node394 -->
<g id="edge38" class="edge">
<title>Node1&#45;&gt;Node394</title>
<path fill="none" stroke="#63b8ff" d="M2466.69,-271.55C2570.85,-269.06 2758.79,-260.12 2817.5,-228 2844.81,-213.06 2864.69,-181.16 2874.53,-162.47"/>
<polygon fill="#63b8ff" stroke="#63b8ff" points="2466.77,-268.04 2456.85,-271.77 2466.93,-275.04 2466.77,-268.04"/>
</g>
<!-- Node400 -->
<g id="node31" class="node">
<title>Node400</title>
<g id="a_node31"><a xlink:href="JUTException_8h.html" target="_top" xlink:title=" ">
<polygon fill="#fff0f0" stroke="red" points="3130.5,-228 3008.5,-228 3008.5,-198 3130.5,-198 3130.5,-228"/>
<text text-anchor="start" x="3016.5" y="-216" font-family="Helvetica,sans-Serif" font-size="10.00">include/JSystem/JUtility</text>
<text text-anchor="middle" x="3069.5" y="-205" font-family="Helvetica,sans-Serif" font-size="10.00">/JUTException.h</text>
</a>
</g>
</g>
<!-- Node1&#45;&gt;Node400 -->
<g id="edge39" class="edge">
<title>Node1&#45;&gt;Node400</title>
<path fill="none" stroke="#63b8ff" d="M2466.46,-270.05C2579.49,-265.51 2807.16,-253.83 2998.5,-228 3001.61,-227.58 3004.79,-227.11 3008,-226.6"/>
<polygon fill="#63b8ff" stroke="#63b8ff" points="2466.6,-266.54 2456.74,-270.43 2466.87,-273.53 2466.6,-266.54"/>
</g>
<!-- Node415 -->
<g id="node32" class="node">
<title>Node415</title>
<g id="a_node32"><a xlink:href="JUTFont_8h.html" target="_top" xlink:title=" ">
<polygon fill="#fff0f0" stroke="red" points="694.5,-162 572.5,-162 572.5,-132 694.5,-132 694.5,-162"/>
<text text-anchor="start" x="580.5" y="-150" font-family="Helvetica,sans-Serif" font-size="10.00">include/JSystem/JUtility</text>
<text text-anchor="middle" x="633.5" y="-139" font-family="Helvetica,sans-Serif" font-size="10.00">/JUTFont.h</text>
</a>
</g>
</g>
<!-- Node1&#45;&gt;Node415 -->
<g id="edge40" class="edge">
<title>Node1&#45;&gt;Node415</title>
<path fill="none" stroke="#63b8ff" d="M2324.4,-272.15C2013.18,-270.43 783.17,-261.52 708.5,-228 677.76,-214.2 653.67,-181.24 641.74,-162.21"/>
<polygon fill="#63b8ff" stroke="#63b8ff" points="2323.98,-275.65 2334,-272.2 2324.01,-268.65 2323.98,-275.65"/>
</g>
<!-- Node430 -->
<g id="node33" class="node">
<title>Node430</title>
<g id="a_node33"><a xlink:href="JUTGraphFifo_8h.html" target="_top" xlink:title=" ">
<polygon fill="#fff0f0" stroke="red" points="3270.5,-228 3148.5,-228 3148.5,-198 3270.5,-198 3270.5,-228"/>
<text text-anchor="start" x="3156.5" y="-216" font-family="Helvetica,sans-Serif" font-size="10.00">include/JSystem/JUtility</text>
<text text-anchor="middle" x="3209.5" y="-205" font-family="Helvetica,sans-Serif" font-size="10.00">/JUTGraphFifo.h</text>
</a>
</g>
</g>
<!-- Node1&#45;&gt;Node430 -->
<g id="edge42" class="edge">
<title>Node1&#45;&gt;Node430</title>
<path fill="none" stroke="#63b8ff" d="M2466.25,-271.51C2598.84,-268.93 2893.54,-259.8 3139.5,-228 3142.33,-227.63 3145.21,-227.22 3148.12,-226.77"/>
<polygon fill="#63b8ff" stroke="#63b8ff" points="2466.52,-268 2456.59,-271.69 2466.65,-275 2466.52,-268"/>
</g>
<!-- Node432 -->
<g id="node34" class="node">
<title>Node432</title>
<g id="a_node34"><a xlink:href="JUTPalette_8h.html" target="_top" xlink:title=" ">
<polygon fill="#fff0f0" stroke="red" points="3410.5,-228 3288.5,-228 3288.5,-198 3410.5,-198 3410.5,-228"/>
<text text-anchor="start" x="3296.5" y="-216" font-family="Helvetica,sans-Serif" font-size="10.00">include/JSystem/JUtility</text>
<text text-anchor="middle" x="3349.5" y="-205" font-family="Helvetica,sans-Serif" font-size="10.00">/JUTPalette.h</text>
</a>
</g>
</g>
<!-- Node1&#45;&gt;Node432 -->
<g id="edge43" class="edge">
<title>Node1&#45;&gt;Node432</title>
<path fill="none" stroke="#63b8ff" d="M2466.59,-272.46C2617.13,-271.6 2978.92,-265.42 3279.5,-228 3282.33,-227.65 3285.21,-227.25 3288.12,-226.81"/>
<polygon fill="#63b8ff" stroke="#63b8ff" points="2466.75,-268.96 2456.77,-272.51 2466.79,-275.96 2466.75,-268.96"/>
</g>
<!-- Node442 -->
<g id="node35" class="node">
<title>Node442</title>
<g id="a_node35"><a xlink:href="JUTVideo_8h.html" target="_top" xlink:title=" ">
<polygon fill="#fff0f0" stroke="red" points="3588.5,-162 3466.5,-162 3466.5,-132 3588.5,-132 3588.5,-162"/>
<text text-anchor="start" x="3474.5" y="-150" font-family="Helvetica,sans-Serif" font-size="10.00">include/JSystem/JUtility</text>
<text text-anchor="middle" x="3527.5" y="-139" font-family="Helvetica,sans-Serif" font-size="10.00">/JUTVideo.h</text>
</a>
</g>
</g>
<!-- Node1&#45;&gt;Node442 -->
<g id="edge44" class="edge">
<title>Node1&#45;&gt;Node442</title>
<path fill="none" stroke="#63b8ff" d="M2466.61,-272.53C2717.25,-272.29 3546.56,-268.42 3585.5,-228 3605.61,-207.12 3573.89,-178.94 3550.01,-162.2"/>
<polygon fill="#63b8ff" stroke="#63b8ff" points="2466.63,-269.03 2456.64,-272.54 2466.64,-276.03 2466.63,-269.03"/>
</g>
<!-- Node446 -->
<g id="node36" class="node">
<title>Node446</title>
<g id="a_node36"><a xlink:href="m__Do__Reset_8cpp.html" target="_top" xlink:title=" ">
<polygon fill="white" stroke="#666666" points="3550.5,-90.5 3414.5,-90.5 3414.5,-71.5 3550.5,-71.5 3550.5,-90.5"/>
<text text-anchor="middle" x="3482.5" y="-78.5" font-family="Helvetica,sans-Serif" font-size="10.00">src/m_Do/m_Do_Reset.cpp</text>
</a>
</g>
</g>
<!-- Node1&#45;&gt;Node446 -->
<g id="edge69" class="edge">
<title>Node1&#45;&gt;Node446</title>
<path fill="none" stroke="#63b8ff" d="M2466.7,-271.52C2692.61,-268.13 3380.76,-255.58 3419.5,-228 3456.88,-201.39 3438.78,-173.89 3457.5,-132 3464.07,-117.29 3472.63,-100.63 3477.84,-90.74"/>
<polygon fill="#63b8ff" stroke="#63b8ff" points="2466.8,-268.02 2456.85,-271.66 2466.9,-275.02 2466.8,-268.02"/>
</g>
<!-- Node447 -->
<g id="node37" class="node">
<title>Node447</title>
<g id="a_node37"><a xlink:href="TColor_8h.html" target="_top" xlink:title=" ">
<polygon fill="#fff0f0" stroke="red" points="872.5,-228 750.5,-228 750.5,-198 872.5,-198 872.5,-228"/>
<text text-anchor="start" x="758.5" y="-216" font-family="Helvetica,sans-Serif" font-size="10.00">include/JSystem/JUtility</text>
<text text-anchor="middle" x="811.5" y="-205" font-family="Helvetica,sans-Serif" font-size="10.00">/TColor.h</text>
</a>
</g>
</g>
<!-- Node1&#45;&gt;Node447 -->
<g id="edge46" class="edge">
<title>Node1&#45;&gt;Node447</title>
<path fill="none" stroke="#63b8ff" d="M2324.43,-271.87C2065.17,-269.33 1170.56,-258.51 886.5,-228 882.02,-227.52 877.41,-226.92 872.78,-226.24"/>
<polygon fill="#63b8ff" stroke="#63b8ff" points="2324.02,-275.36 2334.06,-271.96 2324.09,-268.36 2324.02,-275.36"/>
</g>
<!-- Node260 -->
<g id="node38" class="node">
<title>Node260</title>
<g id="a_node38"><a xlink:href="c__cc__d_8h.html" target="_top" xlink:title=" ">
<polygon fill="#fff0f0" stroke="red" points="3782,-228 3633,-228 3633,-198 3782,-198 3782,-228"/>
<text text-anchor="start" x="3641" y="-216" font-family="Helvetica,sans-Serif" font-size="10.00">include/SSystem/SComponent</text>
<text text-anchor="middle" x="3707.5" y="-205" font-family="Helvetica,sans-Serif" font-size="10.00">/c_cc_d.h</text>
</a>
</g>
</g>
<!-- Node1&#45;&gt;Node260 -->
<g id="edge50" class="edge">
<title>Node1&#45;&gt;Node260</title>
<path fill="none" stroke="#63b8ff" d="M2466.88,-272.88C2655.47,-273.24 3182.45,-270.08 3618.5,-228 3623.17,-227.55 3627.97,-227.01 3632.8,-226.41"/>
<polygon fill="#63b8ff" stroke="#63b8ff" points="2467,-269.38 2456.99,-272.86 2466.99,-276.38 2467,-269.38"/>
</g>
<!-- Node454 -->
<g id="node39" class="node">
<title>Node454</title>
<g id="a_node39"><a xlink:href="GDGeometry_8h.html" target="_top" xlink:title=" ">
<polygon fill="#fff0f0" stroke="red" points="3895,-228 3800,-228 3800,-198 3895,-198 3895,-228"/>
<text text-anchor="start" x="3808" y="-216" font-family="Helvetica,sans-Serif" font-size="10.00">include/dolphin/gd</text>
<text text-anchor="middle" x="3847.5" y="-205" font-family="Helvetica,sans-Serif" font-size="10.00">/GDGeometry.h</text>
</a>
</g>
</g>
<!-- Node1&#45;&gt;Node454 -->
<g id="edge53" class="edge">
<title>Node1&#45;&gt;Node454</title>
<path fill="none" stroke="#63b8ff" d="M2466.59,-272.23C2713.29,-271 3531.59,-264.21 3791.5,-228 3794.18,-227.63 3796.92,-227.18 3799.67,-226.67"/>
<polygon fill="#63b8ff" stroke="#63b8ff" points="2466.77,-268.73 2456.79,-272.28 2466.81,-275.73 2466.77,-268.73"/>
</g>
<!-- Node455 -->
<g id="node40" class="node">
<title>Node455</title>
<g id="a_node40"><a xlink:href="vi_8h.html" target="_top" xlink:title=" ">
<polygon fill="#fff0f0" stroke="red" points="3576.5,-222.5 3466.5,-222.5 3466.5,-203.5 3576.5,-203.5 3576.5,-222.5"/>
<text text-anchor="middle" x="3521.5" y="-210.5" font-family="Helvetica,sans-Serif" font-size="10.00">include/dolphin/vi/vi.h</text>
</a>
</g>
</g>
<!-- Node1&#45;&gt;Node455 -->
<g id="edge54" class="edge">
<title>Node1&#45;&gt;Node455</title>
<path fill="none" stroke="#63b8ff" d="M2466.63,-270.97C2671.58,-266.34 3260.92,-251.32 3452.5,-228 3462.45,-226.79 3473.1,-224.92 3482.99,-222.93"/>
<polygon fill="#63b8ff" stroke="#63b8ff" points="2466.86,-267.47 2456.94,-271.19 2467.01,-274.47 2466.86,-267.47"/>
</g>
<!-- Node462 -->
<g id="node41" class="node">
<title>Node462</title>
<g id="a_node41"><a xlink:href="J3DShapeDraw_8cpp.html" target="_top" xlink:title=" ">
<polygon fill="white" stroke="#666666" points="4055.5,-228 3913.5,-228 3913.5,-198 4055.5,-198 4055.5,-228"/>
<text text-anchor="start" x="3921.5" y="-216" font-family="Helvetica,sans-Serif" font-size="10.00">libs/JSystem/J3DGraphBase</text>
<text text-anchor="middle" x="3984.5" y="-205" font-family="Helvetica,sans-Serif" font-size="10.00">/J3DShapeDraw.cpp</text>
</a>
</g>
</g>
<!-- Node1&#45;&gt;Node462 -->
<g id="edge59" class="edge">
<title>Node1&#45;&gt;Node462</title>
<path fill="none" stroke="#63b8ff" d="M2466.56,-271.76C2725.79,-268.85 3620.27,-256.91 3904.5,-228 3907.31,-227.71 3910.16,-227.39 3913.04,-227.03"/>
<polygon fill="#63b8ff" stroke="#63b8ff" points="2466.89,-268.26 2456.93,-271.87 2466.97,-275.26 2466.89,-268.26"/>
</g>
<!-- Node445 -->
<g id="node42" class="node">
<title>Node445</title>
<g id="a_node42"><a xlink:href="JUTXfb_8cpp.html" target="_top" xlink:title=" ">
<polygon fill="white" stroke="#666666" points="4179.5,-228 4073.5,-228 4073.5,-198 4179.5,-198 4179.5,-228"/>
<text text-anchor="start" x="4081.5" y="-216" font-family="Helvetica,sans-Serif" font-size="10.00">libs/JSystem/JUtility</text>
<text text-anchor="middle" x="4126.5" y="-205" font-family="Helvetica,sans-Serif" font-size="10.00">/JUTXfb.cpp</text>
</a>
</g>
</g>
<!-- Node1&#45;&gt;Node445 -->
<g id="edge60" class="edge">
<title>Node1&#45;&gt;Node445</title>
<path fill="none" stroke="#63b8ff" d="M2466.59,-272.45C2743.23,-271.99 3748.17,-267.55 4064.5,-228 4067.35,-227.64 4070.26,-227.22 4073.18,-226.73"/>
<polygon fill="#63b8ff" stroke="#63b8ff" points="2466.64,-268.95 2456.64,-272.47 2466.65,-275.95 2466.64,-268.95"/>
</g>
<!-- Node463 -->
<g id="node43" class="node">
<title>Node463</title>
<g id="a_node43"><a xlink:href="GXBump_8c.html" target="_top" xlink:title=" ">
<polygon fill="white" stroke="#666666" points="4325.5,-222.5 4197.5,-222.5 4197.5,-203.5 4325.5,-203.5 4325.5,-222.5"/>
<text text-anchor="middle" x="4261.5" y="-210.5" font-family="Helvetica,sans-Serif" font-size="10.00">libs/dolphin/gx/GXBump.c</text>
</a>
</g>
</g>
<!-- Node1&#45;&gt;Node463 -->
<g id="edge61" class="edge">
<title>Node1&#45;&gt;Node463</title>
<path fill="none" stroke="#63b8ff" d="M2466.54,-272.3C2755.82,-271.24 3845.94,-264.85 4188.5,-228 4199.15,-226.85 4210.57,-224.98 4221.14,-222.97"/>
<polygon fill="#63b8ff" stroke="#63b8ff" points="2466.88,-268.8 2456.89,-272.33 2466.91,-275.8 2466.88,-268.8"/>
</g>
<!-- Node464 -->
<g id="node44" class="node">
<title>Node464</title>
<g id="a_node44"><a xlink:href="GXDisplayList_8c.html" target="_top" xlink:title=" ">
<polygon fill="white" stroke="#666666" points="4471,-228 4344,-228 4344,-198 4471,-198 4471,-228"/>
<text text-anchor="start" x="4352" y="-216" font-family="Helvetica,sans-Serif" font-size="10.00">libs/dolphin/gx/GXDisplay</text>
<text text-anchor="middle" x="4407.5" y="-205" font-family="Helvetica,sans-Serif" font-size="10.00">List.c</text>
</a>
</g>
</g>
<!-- Node1&#45;&gt;Node464 -->
<g id="edge62" class="edge">
<title>Node1&#45;&gt;Node464</title>
<path fill="none" stroke="#63b8ff" d="M2466.72,-272.45C2770.81,-272.01 3961.78,-267.74 4334.5,-228 4337.58,-227.67 4340.72,-227.28 4343.89,-226.84"/>
<polygon fill="#63b8ff" stroke="#63b8ff" points="2466.94,-268.95 2456.95,-272.47 2466.95,-275.95 2466.94,-268.95"/>
</g>
<!-- Node465 -->
<g id="node45" class="node">
<title>Node465</title>
<g id="a_node45"><a xlink:href="GXFifo_8c.html" target="_top" xlink:title=" ">
<polygon fill="white" stroke="#666666" points="4608,-222.5 4489,-222.5 4489,-203.5 4608,-203.5 4608,-222.5"/>
<text text-anchor="middle" x="4548.5" y="-210.5" font-family="Helvetica,sans-Serif" font-size="10.00">libs/dolphin/gx/GXFifo.c</text>
</a>
</g>
</g>
<!-- Node1&#45;&gt;Node465 -->
<g id="edge63" class="edge">
<title>Node1&#45;&gt;Node465</title>
<path fill="none" stroke="#63b8ff" d="M2466.8,-272.72C2785.07,-273.42 4077.79,-273.37 4480.5,-228 4490.56,-226.87 4501.34,-224.97 4511.28,-222.93"/>
<polygon fill="#63b8ff" stroke="#63b8ff" points="2466.98,-269.22 2456.97,-272.69 2466.96,-276.22 2466.98,-269.22"/>
</g>
<!-- Node466 -->
<g id="node46" class="node">
<title>Node466</title>
<g id="a_node46"><a xlink:href="GXFrameBuf_8c.html" target="_top" xlink:title=" ">
<polygon fill="white" stroke="#666666" points="4772.5,-222.5 4626.5,-222.5 4626.5,-203.5 4772.5,-203.5 4772.5,-222.5"/>
<text text-anchor="middle" x="4699.5" y="-210.5" font-family="Helvetica,sans-Serif" font-size="10.00">libs/dolphin/gx/GXFrameBuf.c</text>
</a>
</g>
</g>
<!-- Node1&#45;&gt;Node466 -->
<g id="edge64" class="edge">
<title>Node1&#45;&gt;Node466</title>
<path fill="none" stroke="#63b8ff" d="M2466.81,-272.5C2797.69,-272.3 4185.57,-268.97 4617.5,-228 4629.43,-226.87 4642.25,-225 4654.12,-222.99"/>
<polygon fill="#63b8ff" stroke="#63b8ff" points="2467,-269 2457,-272.51 2467,-276 2467,-269"/>
</g>
<!-- Node467 -->
<g id="node47" class="node">
<title>Node467</title>
<g id="a_node47"><a xlink:href="GXGeometry_8c.html" target="_top" xlink:title=" ">
<polygon fill="white" stroke="#666666" points="4936,-222.5 4791,-222.5 4791,-203.5 4936,-203.5 4936,-222.5"/>
<text text-anchor="middle" x="4863.5" y="-210.5" font-family="Helvetica,sans-Serif" font-size="10.00">libs/dolphin/gx/GXGeometry.c</text>
</a>
</g>
</g>
<!-- Node1&#45;&gt;Node467 -->
<g id="edge65" class="edge">
<title>Node1&#45;&gt;Node467</title>
<path fill="none" stroke="#63b8ff" d="M2466.65,-272.62C2811.94,-272.97 4315.27,-271.9 4781.5,-228 4793.43,-226.88 4806.25,-225.01 4818.12,-223"/>
<polygon fill="#63b8ff" stroke="#63b8ff" points="2466.86,-269.12 2456.85,-272.61 2466.85,-276.12 2466.86,-269.12"/>
</g>
<!-- Node468 -->
<g id="node48" class="node">
<title>Node468</title>
<g id="a_node48"><a xlink:href="GXInit_8c.html" target="_top" xlink:title=" ">
<polygon fill="white" stroke="#666666" points="5070.5,-222.5 4954.5,-222.5 4954.5,-203.5 5070.5,-203.5 5070.5,-222.5"/>
<text text-anchor="middle" x="5012.5" y="-210.5" font-family="Helvetica,sans-Serif" font-size="10.00">libs/dolphin/gx/GXInit.c</text>
</a>
</g>
</g>
<!-- Node1&#45;&gt;Node468 -->
<g id="edge66" class="edge">
<title>Node1&#45;&gt;Node468</title>
<path fill="none" stroke="#63b8ff" d="M2466.53,-272.06C2852.93,-269.56 4693.66,-256.25 4945.5,-228 4955.42,-226.89 4966.04,-225 4975.84,-222.96"/>
<polygon fill="#63b8ff" stroke="#63b8ff" points="2466.75,-268.56 2456.78,-272.12 2466.8,-275.56 2466.75,-268.56"/>
</g>
<!-- Node469 -->
<g id="node49" class="node">
<title>Node469</title>
<g id="a_node49"><a xlink:href="GXLight_8c.html" target="_top" xlink:title=" ">
<polygon fill="white" stroke="#666666" points="5214,-222.5 5089,-222.5 5089,-203.5 5214,-203.5 5214,-222.5"/>
<text text-anchor="middle" x="5151.5" y="-210.5" font-family="Helvetica,sans-Serif" font-size="10.00">libs/dolphin/gx/GXLight.c</text>
</a>
</g>
</g>
<!-- Node1&#45;&gt;Node469 -->
<g id="edge67" class="edge">
<title>Node1&#45;&gt;Node469</title>
<path fill="none" stroke="#63b8ff" d="M2466.7,-272.07C2865.48,-269.54 4813.44,-255.85 5079.5,-228 5090.14,-226.89 5101.55,-225 5112.08,-222.96"/>
<polygon fill="#63b8ff" stroke="#63b8ff" points="2466.85,-268.57 2456.87,-272.13 2466.89,-275.57 2466.85,-268.57"/>
</g>
<!-- Node258 -->
<g id="node50" class="node">
<title>Node258</title>
<g id="a_node50"><a xlink:href="d__kankyo__data_8cpp.html" target="_top" xlink:title=" ">
<polygon fill="white" stroke="#666666" points="5348.5,-228 5232.5,-228 5232.5,-198 5348.5,-198 5348.5,-228"/>
<text text-anchor="start" x="5240.5" y="-216" font-family="Helvetica,sans-Serif" font-size="10.00">src/d/kankyo/d_kankyo</text>
<text text-anchor="middle" x="5290.5" y="-205" font-family="Helvetica,sans-Serif" font-size="10.00">_data.cpp</text>
</a>
</g>
</g>
<!-- Node1&#45;&gt;Node258 -->
<g id="edge68" class="edge">
<title>Node1&#45;&gt;Node258</title>
<path fill="none" stroke="#63b8ff" d="M2466.86,-272.19C2878.64,-270.29 4942.54,-259.28 5223.5,-228 5226.33,-227.68 5229.23,-227.31 5232.14,-226.88"/>
<polygon fill="#63b8ff" stroke="#63b8ff" points="2466.94,-268.69 2456.96,-272.24 2466.98,-275.69 2466.94,-268.69"/>
</g>
<!-- Node3 -->
<g id="node3" class="node">
<title>Node3</title>
<g id="a_node3"><a xlink:href="J2DAnmLoader_8h.html" target="_top" xlink:title=" ">
<polygon fill="#fff0f0" stroke="red" points="288,-96 153,-96 153,-66 288,-66 288,-96"/>
<text text-anchor="start" x="161" y="-84" font-family="Helvetica,sans-Serif" font-size="10.00">include/JSystem/J2DGraph</text>
<text text-anchor="middle" x="220.5" y="-73" font-family="Helvetica,sans-Serif" font-size="10.00">/J2DAnmLoader.h</text>
</a>
</g>
</g>
<!-- Node2&#45;&gt;Node3 -->
<g id="edge2" class="edge">
<title>Node2&#45;&gt;Node3</title>
<path fill="none" stroke="#63b8ff" d="M218.7,-120.39C219.09,-112.13 219.5,-103.28 219.84,-96.16"/>
<polygon fill="#63b8ff" stroke="#63b8ff" points="215.21,-120.13 218.24,-130.28 222.2,-120.46 215.21,-120.13"/>
</g>
<!-- Node2&#45;&gt;Node9 -->
<g id="edge3" class="edge">
<title>Node2&#45;&gt;Node9</title>
<path fill="none" stroke="#63b8ff" d="M173.3,-127.14C150.29,-117.32 122.59,-105.51 101.31,-96.43"/>
<polygon fill="#63b8ff" stroke="#63b8ff" points="171.87,-130.34 182.44,-131.04 174.62,-123.9 171.87,-130.34"/>
</g>
<!-- Node227 -->
<g id="node5" class="node">
<title>Node227</title>
<g id="a_node5"><a xlink:href="J2DPane_8h.html" target="_top" xlink:title=" ">
<polygon fill="#fff0f0" stroke="red" points="558,-96 423,-96 423,-66 558,-66 558,-96"/>
<text text-anchor="start" x="431" y="-84" font-family="Helvetica,sans-Serif" font-size="10.00">include/JSystem/J2DGraph</text>
<text text-anchor="middle" x="490.5" y="-73" font-family="Helvetica,sans-Serif" font-size="10.00">/J2DPane.h</text>
</a>
</g>
</g>
<!-- Node2&#45;&gt;Node227 -->
<g id="edge4" class="edge">
<title>Node2&#45;&gt;Node227</title>
<path fill="none" stroke="#63b8ff" d="M290.16,-128.97C333.5,-118.81 387.93,-106.04 429.12,-96.39"/>
<polygon fill="#63b8ff" stroke="#63b8ff" points="289.52,-125.52 280.58,-131.21 291.12,-132.34 289.52,-125.52"/>
</g>
<!-- Node205 -->
<g id="node6" class="node">
<title>Node205</title>
<g id="a_node6"><a xlink:href="d__meter2__draw_8h.html" target="_top" xlink:title=" ">
<polygon fill="#fff0f0" stroke="red" points="726,-30 599,-30 599,0 726,0 726,-30"/>
<text text-anchor="start" x="607" y="-18" font-family="Helvetica,sans-Serif" font-size="10.00">include/d/meter/d_meter2</text>
<text text-anchor="middle" x="662.5" y="-7" font-family="Helvetica,sans-Serif" font-size="10.00">_draw.h</text>
</a>
</g>
</g>
<!-- Node2&#45;&gt;Node205 -->
<g id="edge5" class="edge">
<title>Node2&#45;&gt;Node205</title>
<path fill="none" stroke="#63b8ff" d="M258.16,-126.75C297.24,-108.89 358.34,-82.63 413.5,-66 475.34,-47.35 547.95,-33.67 598.75,-25.38"/>
<polygon fill="#63b8ff" stroke="#63b8ff" points="256.73,-123.56 249.12,-130.92 259.66,-129.91 256.73,-123.56"/>
</g>
<!-- Node228&#45;&gt;Node240 -->
<g id="edge8" class="edge">
<title>Node228&#45;&gt;Node240</title>
<path fill="none" stroke="#63b8ff" d="M1068.15,-186.68C1066.71,-178.34 1065.17,-169.37 1063.93,-162.16"/>
<polygon fill="#63b8ff" stroke="#63b8ff" points="1064.66,-187.04 1069.8,-196.3 1071.56,-185.86 1064.66,-187.04"/>
</g>
<!-- Node241&#45;&gt;Node2 -->
<g id="edge10" class="edge">
<title>Node241&#45;&gt;Node2</title>
<path fill="none" stroke="#63b8ff" d="M189.1,-188.39C195.29,-179.59 202.13,-169.86 207.54,-162.16"/>
<polygon fill="#63b8ff" stroke="#63b8ff" points="186.25,-186.36 183.36,-196.56 191.97,-190.39 186.25,-186.36"/>
</g>
<!-- Node241&#45;&gt;Node3 -->
<g id="edge11" class="edge">
<title>Node241&#45;&gt;Node3</title>
<path fill="none" stroke="#63b8ff" d="M152.39,-188.75C140.81,-172.4 130.38,-150.26 140.5,-132 149.39,-115.96 165.82,-104.38 181.48,-96.43"/>
<polygon fill="#63b8ff" stroke="#63b8ff" points="149.42,-190.62 158.28,-196.44 154.97,-186.37 149.42,-190.62"/>
</g>
<!-- Node338&#45;&gt;Node325 -->
<g id="edge15" class="edge">
<title>Node338&#45;&gt;Node325</title>
<path fill="none" stroke="#63b8ff" d="M1443.12,-190.42C1454.09,-181.18 1466.61,-170.65 1476.42,-162.39"/>
<polygon fill="#63b8ff" stroke="#63b8ff" points="1440.92,-187.7 1435.52,-196.82 1445.43,-193.06 1440.92,-187.7"/>
</g>
<!-- Node343&#45;&gt;Node318 -->
<g id="edge17" class="edge">
<title>Node343&#45;&gt;Node318</title>
<path fill="none" stroke="#63b8ff" d="M390.27,-187.54C385.98,-178.96 381.31,-169.61 377.58,-162.16"/>
<polygon fill="#63b8ff" stroke="#63b8ff" points="387.12,-189.06 394.72,-196.44 393.38,-185.93 387.12,-189.06"/>
</g>
<!-- Node343&#45;&gt;Node252 -->
<g id="edge18" class="edge">
<title>Node343&#45;&gt;Node252</title>
<path fill="none" stroke="#63b8ff" d="M435.27,-191.64C450.63,-182.09 468.56,-170.95 482.46,-162.31"/>
<polygon fill="#63b8ff" stroke="#63b8ff" points="433.55,-188.59 426.9,-196.84 437.24,-194.53 433.55,-188.59"/>
</g>
<!-- Node252&#45;&gt;Node17 -->
<g id="edge19" class="edge">
<title>Node252&#45;&gt;Node17</title>
<path fill="none" stroke="#63b8ff" d="M551.18,-127.38C580.55,-115.41 617.4,-100.38 640.46,-90.99"/>
<polygon fill="#63b8ff" stroke="#63b8ff" points="550.07,-124.05 542.14,-131.07 552.72,-130.53 550.07,-124.05"/>
</g>
<!-- Node17&#45;&gt;Node205 -->
<g id="edge20" class="edge">
<title>Node17&#45;&gt;Node205</title>
<path fill="none" stroke="#63b8ff" d="M662.5,-59.78C662.5,-50.17 662.5,-38.92 662.5,-30.23"/>
<polygon fill="#63b8ff" stroke="#63b8ff" points="659,-59.59 662.5,-69.59 666,-59.59 659,-59.59"/>
</g>
<!-- Node345&#45;&gt;Node325 -->
<g id="edge22" class="edge">
<title>Node345&#45;&gt;Node325</title>
<path fill="none" stroke="#63b8ff" d="M1544.87,-190.7C1533.68,-181.4 1520.85,-170.73 1510.81,-162.39"/>
<polygon fill="#63b8ff" stroke="#63b8ff" points="1542.32,-193.13 1552.25,-196.83 1546.79,-187.75 1542.32,-193.13"/>
</g>
<!-- Node351&#45;&gt;Node325 -->
<g id="edge24" class="edge">
<title>Node351&#45;&gt;Node325</title>
<path fill="none" stroke="#63b8ff" d="M1660.65,-194.51C1624.41,-184.43 1579.39,-171.9 1545.21,-162.39"/>
<polygon fill="#63b8ff" stroke="#63b8ff" points="1659.57,-197.84 1670.14,-197.15 1661.44,-191.1 1659.57,-197.84"/>
</g>
<!-- Node353&#45;&gt;Node354 -->
<g id="edge27" class="edge">
<title>Node353&#45;&gt;Node354</title>
<path fill="none" stroke="#63b8ff" d="M880.23,-122.95C889.28,-111.81 899.6,-99.11 906.31,-90.84"/>
<polygon fill="#63b8ff" stroke="#63b8ff" points="877.58,-120.65 873.99,-130.62 883.02,-125.07 877.58,-120.65"/>
</g>
<!-- Node360&#45;&gt;Node252 -->
<g id="edge31" class="edge">
<title>Node360&#45;&gt;Node252</title>
<path fill="none" stroke="#63b8ff" d="M536.01,-188.68C529.35,-179.79 521.96,-169.95 516.12,-162.16"/>
<polygon fill="#63b8ff" stroke="#63b8ff" points="533.14,-190.69 541.94,-196.59 538.74,-186.49 533.14,-190.69"/>
</g>
<!-- Node393&#45;&gt;Node394 -->
<g id="edge37" class="edge">
<title>Node393&#45;&gt;Node394</title>
<path fill="none" stroke="#63b8ff" d="M2910.74,-188.68C2904.35,-179.79 2897.27,-169.95 2891.68,-162.16"/>
<polygon fill="#63b8ff" stroke="#63b8ff" points="2907.73,-190.49 2916.41,-196.57 2913.41,-186.4 2907.73,-190.49"/>
</g>
<!-- Node415&#45;&gt;Node227 -->
<g id="edge41" class="edge">
<title>Node415&#45;&gt;Node227</title>
<path fill="none" stroke="#63b8ff" d="M591.03,-126.99C569.06,-117.16 542.7,-105.36 522.48,-96.31"/>
<polygon fill="#63b8ff" stroke="#63b8ff" points="589.47,-130.13 600.03,-131.02 592.33,-123.74 589.47,-130.13"/>
</g>
<!-- Node442&#45;&gt;Node446 -->
<g id="edge45" class="edge">
<title>Node442&#45;&gt;Node446</title>
<path fill="none" stroke="#63b8ff" d="M3511.06,-122.61C3503.28,-111.56 3494.47,-99.03 3488.72,-90.84"/>
<polygon fill="#63b8ff" stroke="#63b8ff" points="3508.03,-124.39 3516.64,-130.56 3513.75,-120.36 3508.03,-124.39"/>
</g>
<!-- Node447&#45;&gt;Node205 -->
<g id="edge49" class="edge">
<title>Node447&#45;&gt;Node205</title>
<path fill="none" stroke="#63b8ff" d="M795.9,-188.32C790.58,-180.06 784.67,-170.69 779.5,-162 754.57,-120.12 758.12,-103.09 726.5,-66 714.7,-52.16 698.54,-39.57 685.41,-30.49"/>
<polygon fill="#63b8ff" stroke="#63b8ff" points="792.8,-189.97 801.18,-196.44 798.67,-186.15 792.8,-189.97"/>
</g>
<!-- Node447&#45;&gt;Node353 -->
<g id="edge47" class="edge">
<title>Node447&#45;&gt;Node353</title>
<path fill="none" stroke="#63b8ff" d="M829.5,-188.96C836.5,-180 844.29,-170.03 850.43,-162.16"/>
<polygon fill="#63b8ff" stroke="#63b8ff" points="826.93,-186.57 823.53,-196.6 832.44,-190.88 826.93,-186.57"/>
</g>
<!-- Node447&#45;&gt;Node415 -->
<g id="edge48" class="edge">
<title>Node447&#45;&gt;Node415</title>
<path fill="none" stroke="#63b8ff" d="M760.89,-193.8C733.23,-183.86 699.45,-171.71 673.62,-162.43"/>
<polygon fill="#63b8ff" stroke="#63b8ff" points="759.53,-197.04 770.13,-197.13 761.9,-190.45 759.53,-197.04"/>
</g>
<!-- Node455&#45;&gt;Node442 -->
<g id="edge55" class="edge">
<title>Node455&#45;&gt;Node442</title>
<path fill="none" stroke="#63b8ff" d="M3523.4,-191.78C3524.3,-182.17 3525.35,-170.92 3526.17,-162.23"/>
<polygon fill="#63b8ff" stroke="#63b8ff" points="3519.92,-191.31 3522.48,-201.59 3526.89,-191.96 3519.92,-191.31"/>
</g>
</g>
</svg>
