<?xml version="1.0" encoding="UTF-8" standalone="no"?>
<!DOCTYPE svg PUBLIC "-//W3C//DTD SVG 1.1//EN"
 "http://www.w3.org/Graphics/SVG/1.1/DTD/svg11.dtd">
<!-- Generated by graphviz version 7.0.5 (20221223.1930)
 -->
<!-- Title: include/init.h Pages: 1 -->
<svg width="3673pt" height="357pt"
 viewBox="0.00 0.00 3672.50 357.00" xmlns="http://www.w3.org/2000/svg" xmlns:xlink="http://www.w3.org/1999/xlink">
<g id="graph0" class="graph" transform="scale(1 1) rotate(0) translate(4 353)">
<title>include/init.h</title>
<!-- Node1 -->
<g id="node1" class="node">
<title>Node1</title>
<g id="a_node1"><a xlink:title=" ">
<polygon fill="#999999" stroke="#666666" points="2271,-349 2200,-349 2200,-330 2271,-330 2271,-349"/>
<text text-anchor="middle" x="2235.5" y="-337" font-family="Helvetica,sans-Serif" font-size="10.00">include/init.h</text>
</a>
</g>
</g>
<!-- Node2 -->
<g id="node2" class="node">
<title>Node2</title>
<g id="a_node2"><a xlink:href="processor_8h.html" target="_top" xlink:title=" ">
<polygon fill="white" stroke="#666666" points="2084,-294 1947,-294 1947,-264 2084,-264 2084,-294"/>
<text text-anchor="start" x="1955" y="-282" font-family="Helvetica,sans-Serif" font-size="10.00">include/JSystem/JMessage</text>
<text text-anchor="middle" x="2015.5" y="-271" font-family="Helvetica,sans-Serif" font-size="10.00">/processor.h</text>
</a>
</g>
</g>
<!-- Node1&#45;&gt;Node2 -->
<g id="edge1" class="edge">
<title>Node1&#45;&gt;Node2</title>
<path fill="none" stroke="#63b8ff" d="M2191.25,-326.73C2156.23,-317.42 2107.19,-304.38 2069.8,-294.44"/>
<polygon fill="#63b8ff" stroke="#63b8ff" points="2190.06,-330.04 2200.62,-329.23 2191.86,-323.27 2190.06,-330.04"/>
</g>
<!-- Node39 -->
<g id="node39" class="node">
<title>Node39</title>
<g id="a_node39"><a xlink:href="J3DVertex_8cpp.html" target="_top" xlink:title=" ">
<polygon fill="white" stroke="#666666" points="2244.5,-294 2102.5,-294 2102.5,-264 2244.5,-264 2244.5,-294"/>
<text text-anchor="start" x="2110.5" y="-282" font-family="Helvetica,sans-Serif" font-size="10.00">libs/JSystem/J3DGraphBase</text>
<text text-anchor="middle" x="2173.5" y="-271" font-family="Helvetica,sans-Serif" font-size="10.00">/J3DVertex.cpp</text>
</a>
</g>
</g>
<!-- Node1&#45;&gt;Node39 -->
<g id="edge43" class="edge">
<title>Node1&#45;&gt;Node39</title>
<path fill="none" stroke="#63b8ff" d="M2217.73,-321.73C2208.59,-313.11 2197.56,-302.7 2188.8,-294.44"/>
<polygon fill="#63b8ff" stroke="#63b8ff" points="2215.31,-324.26 2224.98,-328.58 2220.11,-319.17 2215.31,-324.26"/>
</g>
<!-- Node40 -->
<g id="node40" class="node">
<title>Node40</title>
<g id="a_node40"><a xlink:href="____start_8c.html" target="_top" xlink:title=" ">
<polygon fill="white" stroke="#666666" points="2334,-288.5 2263,-288.5 2263,-269.5 2334,-269.5 2334,-288.5"/>
<text text-anchor="middle" x="2298.5" y="-276.5" font-family="Helvetica,sans-Serif" font-size="10.00">src/__start.c</text>
</a>
</g>
</g>
<!-- Node1&#45;&gt;Node40 -->
<g id="edge44" class="edge">
<title>Node1&#45;&gt;Node40</title>
<path fill="none" stroke="#63b8ff" d="M2253.5,-321.78C2265,-311.1 2279.47,-297.67 2288.84,-288.97"/>
<polygon fill="#63b8ff" stroke="#63b8ff" points="2251.12,-319.22 2246.18,-328.59 2255.89,-324.35 2251.12,-319.22"/>
</g>
<!-- Node41 -->
<g id="node41" class="node">
<title>Node41</title>
<g id="a_node41"><a xlink:href="init_8c.html" target="_top" xlink:title=" ">
<polygon fill="white" stroke="#666666" points="2405,-288.5 2352,-288.5 2352,-269.5 2405,-269.5 2405,-288.5"/>
<text text-anchor="middle" x="2378.5" y="-276.5" font-family="Helvetica,sans-Serif" font-size="10.00">src/init.c</text>
</a>
</g>
</g>
<!-- Node1&#45;&gt;Node41 -->
<g id="edge45" class="edge">
<title>Node1&#45;&gt;Node41</title>
<path fill="none" stroke="#63b8ff" d="M2267.74,-325.31C2294.85,-314.22 2332.87,-298.67 2356.58,-288.97"/>
<polygon fill="#63b8ff" stroke="#63b8ff" points="2266.55,-322.02 2258.62,-329.04 2269.2,-328.5 2266.55,-322.02"/>
</g>
<!-- Node3 -->
<g id="node3" class="node">
<title>Node3</title>
<g id="a_node3"><a xlink:href="JMessage_2control_8h.html" target="_top" xlink:title=" ">
<polygon fill="white" stroke="#666666" points="2036,-228 1899,-228 1899,-198 2036,-198 2036,-228"/>
<text text-anchor="start" x="1907" y="-216" font-family="Helvetica,sans-Serif" font-size="10.00">include/JSystem/JMessage</text>
<text text-anchor="middle" x="1967.5" y="-205" font-family="Helvetica,sans-Serif" font-size="10.00">/control.h</text>
</a>
</g>
</g>
<!-- Node2&#45;&gt;Node3 -->
<g id="edge2" class="edge">
<title>Node2&#45;&gt;Node3</title>
<path fill="none" stroke="#63b8ff" d="M1998.01,-254.68C1991.35,-245.79 1983.96,-235.95 1978.12,-228.16"/>
<polygon fill="#63b8ff" stroke="#63b8ff" points="1995.14,-256.69 2003.94,-262.59 2000.74,-252.49 1995.14,-256.69"/>
</g>
<!-- Node4 -->
<g id="node4" class="node">
<title>Node4</title>
<g id="a_node4"><a xlink:href="d__msg__class_8h.html" target="_top" xlink:title=" ">
<polygon fill="white" stroke="#666666" points="537.5,-162 427.5,-162 427.5,-132 537.5,-132 537.5,-162"/>
<text text-anchor="start" x="435.5" y="-150" font-family="Helvetica,sans-Serif" font-size="10.00">include/d/msg/d_msg</text>
<text text-anchor="middle" x="482.5" y="-139" font-family="Helvetica,sans-Serif" font-size="10.00">_class.h</text>
</a>
</g>
</g>
<!-- Node2&#45;&gt;Node4 -->
<g id="edge40" class="edge">
<title>Node2&#45;&gt;Node4</title>
<path fill="none" stroke="#63b8ff" d="M1935.25,-271.19C1661.63,-247.99 769.44,-172.33 537.84,-152.69"/>
<polygon fill="#63b8ff" stroke="#63b8ff" points="1934.88,-274.68 1945.14,-272.03 1935.48,-267.7 1934.88,-274.68"/>
</g>
<!-- Node37 -->
<g id="node37" class="node">
<title>Node37</title>
<g id="a_node37"><a xlink:href="JMessage_2control_8cpp.html" target="_top" xlink:title=" ">
<polygon fill="white" stroke="#666666" points="2125,-162 2004,-162 2004,-132 2125,-132 2125,-162"/>
<text text-anchor="start" x="2012" y="-150" font-family="Helvetica,sans-Serif" font-size="10.00">libs/JSystem/JMessage</text>
<text text-anchor="middle" x="2064.5" y="-139" font-family="Helvetica,sans-Serif" font-size="10.00">/control.cpp</text>
</a>
</g>
</g>
<!-- Node2&#45;&gt;Node37 -->
<g id="edge41" class="edge">
<title>Node2&#45;&gt;Node37</title>
<path fill="none" stroke="#63b8ff" d="M2031.3,-253.92C2036.05,-245.91 2040.93,-236.79 2044.5,-228 2053.49,-205.84 2059.26,-178.55 2062.19,-162.25"/>
<polygon fill="#63b8ff" stroke="#63b8ff" points="2028.34,-252.04 2026.06,-262.39 2034.29,-255.73 2028.34,-252.04"/>
</g>
<!-- Node38 -->
<g id="node38" class="node">
<title>Node38</title>
<g id="a_node38"><a xlink:href="processor_8cpp.html" target="_top" xlink:title=" ">
<polygon fill="white" stroke="#666666" points="2264,-162 2143,-162 2143,-132 2264,-132 2264,-162"/>
<text text-anchor="start" x="2151" y="-150" font-family="Helvetica,sans-Serif" font-size="10.00">libs/JSystem/JMessage</text>
<text text-anchor="middle" x="2203.5" y="-139" font-family="Helvetica,sans-Serif" font-size="10.00">/processor.cpp</text>
</a>
</g>
</g>
<!-- Node2&#45;&gt;Node38 -->
<g id="edge42" class="edge">
<title>Node2&#45;&gt;Node38</title>
<path fill="none" stroke="#63b8ff" d="M2045.46,-257.28C2083.79,-230.78 2149.2,-185.55 2182.57,-162.47"/>
<polygon fill="#63b8ff" stroke="#63b8ff" points="2043.82,-254.16 2037.58,-262.73 2047.8,-259.92 2043.82,-254.16"/>
</g>
<!-- Node3&#45;&gt;Node4 -->
<g id="edge3" class="edge">
<title>Node3&#45;&gt;Node4</title>
<path fill="none" stroke="#63b8ff" d="M1887.73,-208.56C1620.99,-197.07 764.2,-160.14 537.8,-150.38"/>
<polygon fill="#63b8ff" stroke="#63b8ff" points="1887.2,-212.04 1897.34,-208.98 1887.5,-205.05 1887.2,-212.04"/>
</g>
<!-- Node9 -->
<g id="node9" class="node">
<title>Node9</title>
<g id="a_node9"><a xlink:href="d__msg__object_8h.html" target="_top" xlink:title=" ">
<polygon fill="white" stroke="#666666" points="1985.5,-162 1875.5,-162 1875.5,-132 1985.5,-132 1985.5,-162"/>
<text text-anchor="start" x="1883.5" y="-150" font-family="Helvetica,sans-Serif" font-size="10.00">include/d/msg/d_msg</text>
<text text-anchor="middle" x="1930.5" y="-139" font-family="Helvetica,sans-Serif" font-size="10.00">_object.h</text>
</a>
</g>
</g>
<!-- Node3&#45;&gt;Node9 -->
<g id="edge8" class="edge">
<title>Node3&#45;&gt;Node9</title>
<path fill="none" stroke="#63b8ff" d="M1953.69,-188.11C1948.64,-179.38 1943.09,-169.78 1938.69,-162.16"/>
<polygon fill="#63b8ff" stroke="#63b8ff" points="1950.5,-189.58 1958.53,-196.49 1956.56,-186.08 1950.5,-189.58"/>
</g>
<!-- Node3&#45;&gt;Node37 -->
<g id="edge38" class="edge">
<title>Node3&#45;&gt;Node37</title>
<path fill="none" stroke="#63b8ff" d="M1998.53,-191.52C2012.92,-182.03 2029.67,-170.98 2042.7,-162.39"/>
<polygon fill="#63b8ff" stroke="#63b8ff" points="1996.71,-188.53 1990.29,-196.96 2000.57,-194.38 1996.71,-188.53"/>
</g>
<!-- Node3&#45;&gt;Node38 -->
<g id="edge39" class="edge">
<title>Node3&#45;&gt;Node38</title>
<path fill="none" stroke="#63b8ff" d="M2031.51,-194.64C2068.78,-184.53 2115.21,-171.94 2150.44,-162.39"/>
<polygon fill="#63b8ff" stroke="#63b8ff" points="2030.95,-191.17 2022.22,-197.16 2032.79,-197.92 2030.95,-191.17"/>
</g>
<!-- Node5 -->
<g id="node5" class="node">
<title>Node5</title>
<g id="a_node5"><a xlink:href="d__menu__insect_8cpp.html" target="_top" xlink:title=" ">
<polygon fill="white" stroke="#666666" points="313.5,-90.5 161.5,-90.5 161.5,-71.5 313.5,-71.5 313.5,-90.5"/>
<text text-anchor="middle" x="237.5" y="-78.5" font-family="Helvetica,sans-Serif" font-size="10.00">src/d/menu/d_menu_insect.cpp</text>
</a>
</g>
</g>
<!-- Node4&#45;&gt;Node5 -->
<g id="edge4" class="edge">
<title>Node4&#45;&gt;Node5</title>
<path fill="none" stroke="#63b8ff" d="M416.28,-128.7C369.65,-116.52 309.12,-100.71 271.81,-90.96"/>
<polygon fill="#63b8ff" stroke="#63b8ff" points="415.19,-132.03 425.75,-131.17 416.96,-125.26 415.19,-132.03"/>
</g>
<!-- Node6 -->
<g id="node6" class="node">
<title>Node6</title>
<g id="a_node6"><a xlink:href="d__menu__skill_8cpp.html" target="_top" xlink:title=" ">
<polygon fill="white" stroke="#666666" points="143,-90.5 0,-90.5 0,-71.5 143,-71.5 143,-90.5"/>
<text text-anchor="middle" x="71.5" y="-78.5" font-family="Helvetica,sans-Serif" font-size="10.00">src/d/menu/d_menu_skill.cpp</text>
</a>
</g>
</g>
<!-- Node4&#45;&gt;Node6 -->
<g id="edge5" class="edge">
<title>Node4&#45;&gt;Node6</title>
<path fill="none" stroke="#63b8ff" d="M416.1,-136.35C349.41,-126.57 243.74,-110.8 152.5,-96 142.78,-94.42 132.42,-92.68 122.46,-90.97"/>
<polygon fill="#63b8ff" stroke="#63b8ff" points="415.37,-139.78 425.77,-137.77 416.38,-132.86 415.37,-139.78"/>
</g>
<!-- Node7 -->
<g id="node7" class="node">
<title>Node7</title>
<g id="a_node7"><a xlink:href="d__msg__class_8cpp.html" target="_top" xlink:title=" ">
<polygon fill="white" stroke="#666666" points="631,-90.5 492,-90.5 492,-71.5 631,-71.5 631,-90.5"/>
<text text-anchor="middle" x="561.5" y="-78.5" font-family="Helvetica,sans-Serif" font-size="10.00">src/d/msg/d_msg_class.cpp</text>
</a>
</g>
</g>
<!-- Node4&#45;&gt;Node7 -->
<g id="edge6" class="edge">
<title>Node4&#45;&gt;Node7</title>
<path fill="none" stroke="#63b8ff" d="M508.91,-124.6C523.12,-113.1 539.87,-99.52 550.58,-90.84"/>
<polygon fill="#63b8ff" stroke="#63b8ff" points="506.78,-121.83 501.21,-130.84 511.18,-127.27 506.78,-121.83"/>
</g>
<!-- Node8 -->
<g id="node8" class="node">
<title>Node8</title>
<g id="a_node8"><a xlink:href="d__msg__object_8cpp.html" target="_top" xlink:title=" ">
<polygon fill="white" stroke="#666666" points="473.5,-90.5 331.5,-90.5 331.5,-71.5 473.5,-71.5 473.5,-90.5"/>
<text text-anchor="middle" x="402.5" y="-78.5" font-family="Helvetica,sans-Serif" font-size="10.00">src/d/msg/d_msg_object.cpp</text>
</a>
</g>
</g>
<!-- Node4&#45;&gt;Node8 -->
<g id="edge7" class="edge">
<title>Node4&#45;&gt;Node8</title>
<path fill="none" stroke="#63b8ff" d="M456.16,-124.93C441.69,-113.35 424.51,-99.61 413.56,-90.84"/>
<polygon fill="#63b8ff" stroke="#63b8ff" points="453.57,-127.34 463.56,-130.85 457.94,-121.87 453.57,-127.34"/>
</g>
<!-- Node9&#45;&gt;Node7 -->
<g id="edge25" class="edge">
<title>Node9&#45;&gt;Node7</title>
<path fill="none" stroke="#63b8ff" d="M1864.02,-146.67C1672.99,-147.91 1106.32,-146.69 639.5,-96 628.42,-94.8 616.54,-92.95 605.48,-91"/>
<polygon fill="#63b8ff" stroke="#63b8ff" points="1863.76,-150.18 1873.74,-146.61 1863.71,-143.18 1863.76,-150.18"/>
</g>
<!-- Node9&#45;&gt;Node8 -->
<g id="edge27" class="edge">
<title>Node9&#45;&gt;Node8</title>
<path fill="none" stroke="#63b8ff" d="M1864.09,-144.93C1617.67,-140.78 755.86,-124.5 482.5,-96 471,-94.8 458.66,-92.93 447.2,-90.95"/>
<polygon fill="#63b8ff" stroke="#63b8ff" points="1863.78,-148.43 1873.84,-145.1 1863.9,-141.43 1863.78,-148.43"/>
</g>
<!-- Node10 -->
<g id="node10" class="node">
<title>Node10</title>
<g id="a_node10"><a xlink:href="d__timer_8h.html" target="_top" xlink:title=" ">
<polygon fill="white" stroke="#666666" points="2223.5,-90.5 2125.5,-90.5 2125.5,-71.5 2223.5,-71.5 2223.5,-90.5"/>
<text text-anchor="middle" x="2174.5" y="-78.5" font-family="Helvetica,sans-Serif" font-size="10.00">include/d/d_timer.h</text>
</a>
</g>
</g>
<!-- Node9&#45;&gt;Node10 -->
<g id="edge9" class="edge">
<title>Node9&#45;&gt;Node10</title>
<path fill="none" stroke="#63b8ff" d="M1996.45,-128.7C2042.89,-116.52 2103.17,-100.71 2140.33,-90.96"/>
<polygon fill="#63b8ff" stroke="#63b8ff" points="1995.81,-125.25 1987.03,-131.17 1997.59,-132.02 1995.81,-125.25"/>
</g>
<!-- Node15 -->
<g id="node15" class="node">
<title>Node15</title>
<g id="a_node15"><a xlink:href="d__a__talk_8cpp.html" target="_top" xlink:title=" ">
<polygon fill="white" stroke="#666666" points="2333.5,-96 2241.5,-96 2241.5,-66 2333.5,-66 2333.5,-96"/>
<text text-anchor="start" x="2249.5" y="-84" font-family="Helvetica,sans-Serif" font-size="10.00">rel/d/a/d_a_talk/d</text>
<text text-anchor="middle" x="2287.5" y="-73" font-family="Helvetica,sans-Serif" font-size="10.00">_a_talk.cpp</text>
</a>
</g>
</g>
<!-- Node9&#45;&gt;Node15 -->
<g id="edge14" class="edge">
<title>Node9&#45;&gt;Node15</title>
<path fill="none" stroke="#63b8ff" d="M1997.01,-131.62C2101.64,-112.84 2131.13,-116.52 2232.5,-96 2235.3,-95.43 2238.17,-94.82 2241.06,-94.16"/>
<polygon fill="#63b8ff" stroke="#63b8ff" points="1996.66,-128.13 1987.45,-133.37 1997.91,-135.01 1996.66,-128.13"/>
</g>
<!-- Node16 -->
<g id="node16" class="node">
<title>Node16</title>
<g id="a_node16"><a xlink:href="d__a__alink_8cpp.html" target="_top" xlink:title=" ">
<polygon fill="white" stroke="#666666" points="2461,-90.5 2352,-90.5 2352,-71.5 2461,-71.5 2461,-90.5"/>
<text text-anchor="middle" x="2406.5" y="-78.5" font-family="Helvetica,sans-Serif" font-size="10.00">src/d/a/d_a_alink.cpp</text>
</a>
</g>
</g>
<!-- Node9&#45;&gt;Node16 -->
<g id="edge15" class="edge">
<title>Node9&#45;&gt;Node16</title>
<path fill="none" stroke="#63b8ff" d="M1997.13,-131.7C2150.01,-107.95 2192.57,-120.08 2342.5,-96 2351.03,-94.63 2360.14,-92.84 2368.73,-91"/>
<polygon fill="#63b8ff" stroke="#63b8ff" points="1996.75,-128.22 1987.43,-133.24 1997.85,-135.13 1996.75,-128.22"/>
</g>
<!-- Node17 -->
<g id="node17" class="node">
<title>Node17</title>
<g id="a_node17"><a xlink:href="d__a__npc_8cpp.html" target="_top" xlink:title=" ">
<polygon fill="white" stroke="#666666" points="2583.5,-90.5 2479.5,-90.5 2479.5,-71.5 2583.5,-71.5 2583.5,-90.5"/>
<text text-anchor="middle" x="2531.5" y="-78.5" font-family="Helvetica,sans-Serif" font-size="10.00">src/d/a/d_a_npc.cpp</text>
</a>
</g>
</g>
<!-- Node9&#45;&gt;Node17 -->
<g id="edge16" class="edge">
<title>Node9&#45;&gt;Node17</title>
<path fill="none" stroke="#63b8ff" d="M1997.29,-131.74C2206.45,-102.17 2264.43,-127.26 2470.5,-96 2478.99,-94.71 2488.04,-92.89 2496.51,-90.98"/>
<polygon fill="#63b8ff" stroke="#63b8ff" points="1996.81,-128.27 1987.41,-133.16 1997.81,-135.2 1996.81,-128.27"/>
</g>
<!-- Node18 -->
<g id="node18" class="node">
<title>Node18</title>
<g id="a_node18"><a xlink:href="d__demo_8cpp.html" target="_top" xlink:title=" ">
<polygon fill="white" stroke="#666666" points="2695.5,-90.5 2601.5,-90.5 2601.5,-71.5 2695.5,-71.5 2695.5,-90.5"/>
<text text-anchor="middle" x="2648.5" y="-78.5" font-family="Helvetica,sans-Serif" font-size="10.00">src/d/d_demo.cpp</text>
</a>
</g>
</g>
<!-- Node9&#45;&gt;Node18 -->
<g id="edge17" class="edge">
<title>Node9&#45;&gt;Node18</title>
<path fill="none" stroke="#63b8ff" d="M1996.97,-131.82C2260.22,-96.55 2332.93,-135.91 2592.5,-96 2600.52,-94.77 2609.08,-92.91 2617.02,-90.95"/>
<polygon fill="#63b8ff" stroke="#63b8ff" points="1996.84,-128.3 1987.41,-133.12 1997.79,-135.24 1996.84,-128.3"/>
</g>
<!-- Node19 -->
<g id="node19" class="node">
<title>Node19</title>
<g id="a_node19"><a xlink:href="d__event_8cpp.html" target="_top" xlink:title=" ">
<polygon fill="white" stroke="#666666" points="2835,-90.5 2714,-90.5 2714,-71.5 2835,-71.5 2835,-90.5"/>
<text text-anchor="middle" x="2774.5" y="-78.5" font-family="Helvetica,sans-Serif" font-size="10.00">src/d/event/d_event.cpp</text>
</a>
</g>
</g>
<!-- Node9&#45;&gt;Node19 -->
<g id="edge18" class="edge">
<title>Node9&#45;&gt;Node19</title>
<path fill="none" stroke="#63b8ff" d="M1997.12,-131.81C2309.65,-91.14 2394.64,-134.63 2704.5,-96 2714.46,-94.76 2725.13,-92.9 2735.05,-90.94"/>
<polygon fill="#63b8ff" stroke="#63b8ff" points="1996.86,-128.32 1987.4,-133.1 1997.78,-135.26 1996.86,-128.32"/>
</g>
<!-- Node20 -->
<g id="node20" class="node">
<title>Node20</title>
<g id="a_node20"><a xlink:href="d__event__data_8cpp.html" target="_top" xlink:title=" ">
<polygon fill="white" stroke="#666666" points="2956,-96 2853,-96 2853,-66 2956,-66 2956,-96"/>
<text text-anchor="start" x="2861" y="-84" font-family="Helvetica,sans-Serif" font-size="10.00">src/d/event/d_event</text>
<text text-anchor="middle" x="2904.5" y="-73" font-family="Helvetica,sans-Serif" font-size="10.00">_data.cpp</text>
</a>
</g>
</g>
<!-- Node9&#45;&gt;Node20 -->
<g id="edge19" class="edge">
<title>Node9&#45;&gt;Node20</title>
<path fill="none" stroke="#63b8ff" d="M1997.06,-131.84C2371.47,-84.65 2473.52,-146.68 2844.5,-96 2847.15,-95.64 2849.85,-95.21 2852.58,-94.74"/>
<polygon fill="#63b8ff" stroke="#63b8ff" points="1996.88,-128.33 1987.4,-133.07 1997.76,-135.28 1996.88,-128.33"/>
</g>
<!-- Node21 -->
<g id="node21" class="node">
<title>Node21</title>
<g id="a_node21"><a xlink:href="d__kankyo_8cpp.html" target="_top" xlink:title=" ">
<polygon fill="white" stroke="#666666" points="3108.5,-90.5 2974.5,-90.5 2974.5,-71.5 3108.5,-71.5 3108.5,-90.5"/>
<text text-anchor="middle" x="3041.5" y="-78.5" font-family="Helvetica,sans-Serif" font-size="10.00">src/d/kankyo/d_kankyo.cpp</text>
</a>
</g>
</g>
<!-- Node9&#45;&gt;Node21 -->
<g id="edge20" class="edge">
<title>Node9&#45;&gt;Node21</title>
<path fill="none" stroke="#63b8ff" d="M1997.03,-131.85C2424.88,-78.75 2539.91,-142.84 2965.5,-96 2976.44,-94.8 2988.16,-92.93 2999.05,-90.94"/>
<polygon fill="#63b8ff" stroke="#63b8ff" points="1996.88,-128.34 1987.4,-133.06 1997.76,-135.29 1996.88,-128.34"/>
</g>
<!-- Node22 -->
<g id="node22" class="node">
<title>Node22</title>
<g id="a_node22"><a xlink:href="d__menu__window_8cpp.html" target="_top" xlink:title=" ">
<polygon fill="white" stroke="#666666" points="3286,-90.5 3127,-90.5 3127,-71.5 3286,-71.5 3286,-90.5"/>
<text text-anchor="middle" x="3206.5" y="-78.5" font-family="Helvetica,sans-Serif" font-size="10.00">src/d/menu/d_menu_window.cpp</text>
</a>
</g>
</g>
<!-- Node9&#45;&gt;Node22 -->
<g id="edge21" class="edge">
<title>Node9&#45;&gt;Node22</title>
<path fill="none" stroke="#63b8ff" d="M1997.28,-131.83C2492.04,-71.48 2624.1,-142.53 3117.5,-96 3130.27,-94.8 3143.99,-92.93 3156.74,-90.94"/>
<polygon fill="#63b8ff" stroke="#63b8ff" points="1996.89,-128.35 1987.4,-133.05 1997.75,-135.3 1996.89,-128.35"/>
</g>
<!-- Node23 -->
<g id="node23" class="node">
<title>Node23</title>
<g id="a_node23"><a xlink:href="d__meter2__draw_8cpp.html" target="_top" xlink:title=" ">
<polygon fill="white" stroke="#666666" points="3414.5,-96 3304.5,-96 3304.5,-66 3414.5,-66 3414.5,-96"/>
<text text-anchor="start" x="3312.5" y="-84" font-family="Helvetica,sans-Serif" font-size="10.00">src/d/meter/d_meter2</text>
<text text-anchor="middle" x="3359.5" y="-73" font-family="Helvetica,sans-Serif" font-size="10.00">_draw.cpp</text>
</a>
</g>
</g>
<!-- Node9&#45;&gt;Node23 -->
<g id="edge22" class="edge">
<title>Node9&#45;&gt;Node23</title>
<path fill="none" stroke="#63b8ff" d="M1996.94,-131.88C2570.63,-63.2 2724.97,-165.67 3295.5,-96 3298.32,-95.66 3301.2,-95.24 3304.11,-94.78"/>
<polygon fill="#63b8ff" stroke="#63b8ff" points="1996.9,-128.36 1987.4,-133.03 1997.74,-135.31 1996.9,-128.36"/>
</g>
<!-- Node24 -->
<g id="node24" class="node">
<title>Node24</title>
<g id="a_node24"><a xlink:href="d__meter2__info_8cpp.html" target="_top" xlink:title=" ">
<polygon fill="white" stroke="#666666" points="3542.5,-96 3432.5,-96 3432.5,-66 3542.5,-66 3542.5,-96"/>
<text text-anchor="start" x="3440.5" y="-84" font-family="Helvetica,sans-Serif" font-size="10.00">src/d/meter/d_meter2</text>
<text text-anchor="middle" x="3487.5" y="-73" font-family="Helvetica,sans-Serif" font-size="10.00">_info.cpp</text>
</a>
</g>
</g>
<!-- Node9&#45;&gt;Node24 -->
<g id="edge23" class="edge">
<title>Node9&#45;&gt;Node24</title>
<path fill="none" stroke="#63b8ff" d="M1997.08,-131.87C2627.2,-57.13 2796.47,-171.78 3423.5,-96 3426.32,-95.66 3429.2,-95.25 3432.11,-94.79"/>
<polygon fill="#63b8ff" stroke="#63b8ff" points="1996.91,-128.36 1987.4,-133.03 1997.74,-135.31 1996.91,-128.36"/>
</g>
<!-- Node25 -->
<g id="node25" class="node">
<title>Node25</title>
<g id="a_node25"><a xlink:href="d__meter__map_8cpp.html" target="_top" xlink:title=" ">
<polygon fill="white" stroke="#666666" points="3664.5,-96 3560.5,-96 3560.5,-66 3664.5,-66 3664.5,-96"/>
<text text-anchor="start" x="3568.5" y="-84" font-family="Helvetica,sans-Serif" font-size="10.00">src/d/meter/d_meter</text>
<text text-anchor="middle" x="3612.5" y="-73" font-family="Helvetica,sans-Serif" font-size="10.00">_map.cpp</text>
</a>
</g>
</g>
<!-- Node9&#45;&gt;Node25 -->
<g id="edge24" class="edge">
<title>Node9&#45;&gt;Node25</title>
<path fill="none" stroke="#63b8ff" d="M1997.31,-131.84C2683.79,-51.11 2868.43,-181.39 3551.5,-96 3554.3,-95.65 3557.17,-95.23 3560.05,-94.75"/>
<polygon fill="#63b8ff" stroke="#63b8ff" points="1996.91,-128.37 1987.39,-133.02 1997.74,-135.32 1996.91,-128.37"/>
</g>
<!-- Node26 -->
<g id="node26" class="node">
<title>Node26</title>
<g id="a_node26"><a xlink:href="d__msg__flow_8cpp.html" target="_top" xlink:title=" ">
<polygon fill="white" stroke="#666666" points="782,-90.5 649,-90.5 649,-71.5 782,-71.5 782,-90.5"/>
<text text-anchor="middle" x="715.5" y="-78.5" font-family="Helvetica,sans-Serif" font-size="10.00">src/d/msg/d_msg_flow.cpp</text>
</a>
</g>
</g>
<!-- Node9&#45;&gt;Node26 -->
<g id="edge26" class="edge">
<title>Node9&#45;&gt;Node26</title>
<path fill="none" stroke="#63b8ff" d="M1863.73,-146.34C1687.62,-146.54 1196.18,-142.53 790.5,-96 779.84,-94.78 768.42,-92.93 757.78,-90.97"/>
<polygon fill="#63b8ff" stroke="#63b8ff" points="1863.61,-149.84 1873.6,-146.33 1863.6,-142.84 1863.61,-149.84"/>
</g>
<!-- Node27 -->
<g id="node27" class="node">
<title>Node27</title>
<g id="a_node27"><a xlink:href="d__msg__out__font_8cpp.html" target="_top" xlink:title=" ">
<polygon fill="white" stroke="#666666" points="911,-96 800,-96 800,-66 911,-66 911,-96"/>
<text text-anchor="start" x="808" y="-84" font-family="Helvetica,sans-Serif" font-size="10.00">src/d/msg/d_msg_out</text>
<text text-anchor="middle" x="855.5" y="-73" font-family="Helvetica,sans-Serif" font-size="10.00">_font.cpp</text>
</a>
</g>
</g>
<!-- Node9&#45;&gt;Node27 -->
<g id="edge28" class="edge">
<title>Node9&#45;&gt;Node27</title>
<path fill="none" stroke="#63b8ff" d="M1864,-146.44C1701.91,-146.69 1273.85,-142.49 920.5,-96 917.52,-95.61 914.48,-95.15 911.42,-94.65"/>
<polygon fill="#63b8ff" stroke="#63b8ff" points="1863.7,-149.94 1873.69,-146.41 1863.68,-142.94 1863.7,-149.94"/>
</g>
<!-- Node28 -->
<g id="node28" class="node">
<title>Node28</title>
<g id="a_node28"><a xlink:href="d__s__play_8cpp.html" target="_top" xlink:title=" ">
<polygon fill="white" stroke="#666666" points="1035.5,-90.5 929.5,-90.5 929.5,-71.5 1035.5,-71.5 1035.5,-90.5"/>
<text text-anchor="middle" x="982.5" y="-78.5" font-family="Helvetica,sans-Serif" font-size="10.00">src/d/s/d_s_play.cpp</text>
</a>
</g>
</g>
<!-- Node9&#45;&gt;Node28 -->
<g id="edge29" class="edge">
<title>Node9&#45;&gt;Node28</title>
<path fill="none" stroke="#63b8ff" d="M1864.13,-146C1716.22,-145.18 1348.59,-138.61 1044.5,-96 1035.65,-94.76 1026.19,-92.9 1017.4,-90.94"/>
<polygon fill="#63b8ff" stroke="#63b8ff" points="1863.71,-149.5 1873.73,-146.04 1863.74,-142.5 1863.71,-149.5"/>
</g>
<!-- Node29 -->
<g id="node29" class="node">
<title>Node29</title>
<g id="a_node29"><a xlink:href="d__shop__system_8cpp.html" target="_top" xlink:title=" ">
<polygon fill="white" stroke="#666666" points="1205.5,-90.5 1053.5,-90.5 1053.5,-71.5 1205.5,-71.5 1205.5,-90.5"/>
<text text-anchor="middle" x="1129.5" y="-78.5" font-family="Helvetica,sans-Serif" font-size="10.00">src/d/shop/d_shop_system.cpp</text>
</a>
</g>
</g>
<!-- Node9&#45;&gt;Node29 -->
<g id="edge30" class="edge">
<title>Node9&#45;&gt;Node29</title>
<path fill="none" stroke="#63b8ff" d="M1863.67,-143.42C1736.8,-138.06 1452.43,-123.84 1214.5,-96 1203.06,-94.66 1190.81,-92.86 1179.28,-91"/>
<polygon fill="#63b8ff" stroke="#63b8ff" points="1863.44,-146.91 1873.58,-143.83 1863.73,-139.92 1863.44,-146.91"/>
</g>
<!-- Node30 -->
<g id="node30" class="node">
<title>Node30</title>
<g id="a_node30"><a xlink:href="f__op__msg__mng_8cpp.html" target="_top" xlink:title=" ">
<polygon fill="white" stroke="#666666" points="1363.5,-90.5 1223.5,-90.5 1223.5,-71.5 1363.5,-71.5 1363.5,-90.5"/>
<text text-anchor="middle" x="1293.5" y="-78.5" font-family="Helvetica,sans-Serif" font-size="10.00">src/f_op/f_op_msg_mng.cpp</text>
</a>
</g>
</g>
<!-- Node9&#45;&gt;Node30 -->
<g id="edge31" class="edge">
<title>Node9&#45;&gt;Node30</title>
<path fill="none" stroke="#63b8ff" d="M1863.94,-141.9C1759.12,-135.01 1549.3,-119.54 1372.5,-96 1362.01,-94.6 1350.78,-92.8 1340.18,-90.96"/>
<polygon fill="#63b8ff" stroke="#63b8ff" points="1863.56,-145.38 1873.77,-142.53 1864.02,-138.39 1863.56,-145.38"/>
</g>
<!-- Node31 -->
<g id="node31" class="node">
<title>Node31</title>
<g id="a_node31"><a xlink:href="d__msg__scrn__base_8cpp.html" target="_top" xlink:title=" ">
<polygon fill="white" stroke="#666666" points="1487.5,-96 1381.5,-96 1381.5,-66 1487.5,-66 1487.5,-96"/>
<text text-anchor="start" x="1389.5" y="-84" font-family="Helvetica,sans-Serif" font-size="10.00">src/msg/scrn/d_msg</text>
<text text-anchor="middle" x="1434.5" y="-73" font-family="Helvetica,sans-Serif" font-size="10.00">_scrn_base.cpp</text>
</a>
</g>
</g>
<!-- Node9&#45;&gt;Node31 -->
<g id="edge32" class="edge">
<title>Node9&#45;&gt;Node31</title>
<path fill="none" stroke="#63b8ff" d="M1863.73,-140.55C1778.24,-133.06 1625.71,-117.97 1496.5,-96 1493.67,-95.52 1490.78,-94.99 1487.86,-94.43"/>
<polygon fill="#63b8ff" stroke="#63b8ff" points="1863.31,-144.03 1873.57,-141.4 1863.91,-137.05 1863.31,-144.03"/>
</g>
<!-- Node32 -->
<g id="node32" class="node">
<title>Node32</title>
<g id="a_node32"><a xlink:href="d__msg__scrn__boss_8cpp.html" target="_top" xlink:title=" ">
<polygon fill="white" stroke="#666666" points="1611.5,-96 1505.5,-96 1505.5,-66 1611.5,-66 1611.5,-96"/>
<text text-anchor="start" x="1513.5" y="-84" font-family="Helvetica,sans-Serif" font-size="10.00">src/msg/scrn/d_msg</text>
<text text-anchor="middle" x="1558.5" y="-73" font-family="Helvetica,sans-Serif" font-size="10.00">_scrn_boss.cpp</text>
</a>
</g>
</g>
<!-- Node9&#45;&gt;Node32 -->
<g id="edge33" class="edge">
<title>Node9&#45;&gt;Node32</title>
<path fill="none" stroke="#63b8ff" d="M1863.82,-136.47C1800.89,-127.19 1704.02,-112.15 1620.5,-96 1617.68,-95.46 1614.8,-94.88 1611.89,-94.28"/>
<polygon fill="#63b8ff" stroke="#63b8ff" points="1863.26,-139.93 1873.66,-137.91 1864.28,-133 1863.26,-139.93"/>
</g>
<!-- Node33 -->
<g id="node33" class="node">
<title>Node33</title>
<g id="a_node33"><a xlink:href="d__msg__scrn__explain_8cpp.html" target="_top" xlink:title=" ">
<polygon fill="white" stroke="#666666" points="1735.5,-96 1629.5,-96 1629.5,-66 1735.5,-66 1735.5,-96"/>
<text text-anchor="start" x="1637.5" y="-84" font-family="Helvetica,sans-Serif" font-size="10.00">src/msg/scrn/d_msg</text>
<text text-anchor="middle" x="1682.5" y="-73" font-family="Helvetica,sans-Serif" font-size="10.00">_scrn_explain.cpp</text>
</a>
</g>
</g>
<!-- Node9&#45;&gt;Node33 -->
<g id="edge34" class="edge">
<title>Node9&#45;&gt;Node33</title>
<path fill="none" stroke="#63b8ff" d="M1864.13,-128.87C1824,-118.52 1773.53,-105.49 1735.98,-95.8"/>
<polygon fill="#63b8ff" stroke="#63b8ff" points="1863.13,-132.23 1873.69,-131.34 1864.88,-125.45 1863.13,-132.23"/>
</g>
<!-- Node34 -->
<g id="node34" class="node">
<title>Node34</title>
<g id="a_node34"><a xlink:href="d__msg__scrn__place_8cpp.html" target="_top" xlink:title=" ">
<polygon fill="white" stroke="#666666" points="1859.5,-96 1753.5,-96 1753.5,-66 1859.5,-66 1859.5,-96"/>
<text text-anchor="start" x="1761.5" y="-84" font-family="Helvetica,sans-Serif" font-size="10.00">src/msg/scrn/d_msg</text>
<text text-anchor="middle" x="1806.5" y="-73" font-family="Helvetica,sans-Serif" font-size="10.00">_scrn_place.cpp</text>
</a>
</g>
</g>
<!-- Node9&#45;&gt;Node34 -->
<g id="edge35" class="edge">
<title>Node9&#45;&gt;Node34</title>
<path fill="none" stroke="#63b8ff" d="M1892.63,-126.45C1873.8,-116.73 1851.45,-105.2 1834.24,-96.31"/>
<polygon fill="#63b8ff" stroke="#63b8ff" points="1890.84,-129.47 1901.33,-130.94 1894.05,-123.25 1890.84,-129.47"/>
</g>
<!-- Node35 -->
<g id="node35" class="node">
<title>Node35</title>
<g id="a_node35"><a xlink:href="d__msg__scrn__staff_8cpp.html" target="_top" xlink:title=" ">
<polygon fill="white" stroke="#666666" points="1983.5,-96 1877.5,-96 1877.5,-66 1983.5,-66 1983.5,-96"/>
<text text-anchor="start" x="1885.5" y="-84" font-family="Helvetica,sans-Serif" font-size="10.00">src/msg/scrn/d_msg</text>
<text text-anchor="middle" x="1930.5" y="-73" font-family="Helvetica,sans-Serif" font-size="10.00">_scrn_staff.cpp</text>
</a>
</g>
</g>
<!-- Node9&#45;&gt;Node35 -->
<g id="edge36" class="edge">
<title>Node9&#45;&gt;Node35</title>
<path fill="none" stroke="#63b8ff" d="M1930.5,-120.39C1930.5,-112.13 1930.5,-103.28 1930.5,-96.16"/>
<polygon fill="#63b8ff" stroke="#63b8ff" points="1927,-120.28 1930.5,-130.28 1934,-120.28 1927,-120.28"/>
</g>
<!-- Node36 -->
<g id="node36" class="node">
<title>Node36</title>
<g id="a_node36"><a xlink:href="d__msg__scrn__tree_8cpp.html" target="_top" xlink:title=" ">
<polygon fill="white" stroke="#666666" points="2107.5,-96 2001.5,-96 2001.5,-66 2107.5,-66 2107.5,-96"/>
<text text-anchor="start" x="2009.5" y="-84" font-family="Helvetica,sans-Serif" font-size="10.00">src/msg/scrn/d_msg</text>
<text text-anchor="middle" x="2054.5" y="-73" font-family="Helvetica,sans-Serif" font-size="10.00">_scrn_tree.cpp</text>
</a>
</g>
</g>
<!-- Node9&#45;&gt;Node36 -->
<g id="edge37" class="edge">
<title>Node9&#45;&gt;Node36</title>
<path fill="none" stroke="#63b8ff" d="M1968.37,-126.45C1987.2,-116.73 2009.55,-105.2 2026.76,-96.31"/>
<polygon fill="#63b8ff" stroke="#63b8ff" points="1966.95,-123.25 1959.67,-130.94 1970.16,-129.47 1966.95,-123.25"/>
</g>
<!-- Node11 -->
<g id="node11" class="node">
<title>Node11</title>
<g id="a_node11"><a xlink:href="d__a__econt_8cpp.html" target="_top" xlink:title=" ">
<polygon fill="white" stroke="#666666" points="2043.5,-30 1943.5,-30 1943.5,0 2043.5,0 2043.5,-30"/>
<text text-anchor="start" x="1951.5" y="-18" font-family="Helvetica,sans-Serif" font-size="10.00">rel/d/a/d_a_econt/d</text>
<text text-anchor="middle" x="1993.5" y="-7" font-family="Helvetica,sans-Serif" font-size="10.00">_a_econt.cpp</text>
</a>
</g>
</g>
<!-- Node10&#45;&gt;Node11 -->
<g id="edge10" class="edge">
<title>Node10&#45;&gt;Node11</title>
<path fill="none" stroke="#63b8ff" d="M2138.51,-67.27C2108.5,-56.66 2065.75,-41.55 2034.44,-30.48"/>
<polygon fill="#63b8ff" stroke="#63b8ff" points="2137.31,-70.56 2147.91,-70.6 2139.64,-63.96 2137.31,-70.56"/>
</g>
<!-- Node12 -->
<g id="node12" class="node">
<title>Node12</title>
<g id="a_node12"><a xlink:href="d__com__inf__game_8cpp.html" target="_top" xlink:title=" ">
<polygon fill="white" stroke="#666666" points="2169.5,-30 2061.5,-30 2061.5,0 2169.5,0 2169.5,-30"/>
<text text-anchor="start" x="2069.5" y="-18" font-family="Helvetica,sans-Serif" font-size="10.00">src/d/com/d_com_inf</text>
<text text-anchor="middle" x="2115.5" y="-7" font-family="Helvetica,sans-Serif" font-size="10.00">_game.cpp</text>
</a>
</g>
</g>
<!-- Node10&#45;&gt;Node12 -->
<g id="edge11" class="edge">
<title>Node10&#45;&gt;Node12</title>
<path fill="none" stroke="#63b8ff" d="M2158.78,-62.95C2149.36,-52.73 2137.53,-39.9 2128.62,-30.23"/>
<polygon fill="#63b8ff" stroke="#63b8ff" points="2155.92,-65.01 2165.27,-69.99 2161.07,-60.26 2155.92,-65.01"/>
</g>
<!-- Node13 -->
<g id="node13" class="node">
<title>Node13</title>
<g id="a_node13"><a xlink:href="d__timer_8cpp.html" target="_top" xlink:title=" ">
<polygon fill="white" stroke="#666666" points="2279.5,-24.5 2187.5,-24.5 2187.5,-5.5 2279.5,-5.5 2279.5,-24.5"/>
<text text-anchor="middle" x="2233.5" y="-12.5" font-family="Helvetica,sans-Serif" font-size="10.00">src/d/d_timer.cpp</text>
</a>
</g>
</g>
<!-- Node10&#45;&gt;Node13 -->
<g id="edge12" class="edge">
<title>Node10&#45;&gt;Node13</title>
<path fill="none" stroke="#63b8ff" d="M2190.19,-62.98C2201.51,-50.7 2216.33,-34.63 2225.37,-24.82"/>
<polygon fill="#63b8ff" stroke="#63b8ff" points="2187.93,-60.26 2183.73,-69.99 2193.08,-65.01 2187.93,-60.26"/>
</g>
<!-- Node14 -->
<g id="node14" class="node">
<title>Node14</title>
<g id="a_node14"><a xlink:href="d__meter2_8cpp.html" target="_top" xlink:title=" ">
<polygon fill="white" stroke="#666666" points="2425.5,-24.5 2297.5,-24.5 2297.5,-5.5 2425.5,-5.5 2425.5,-24.5"/>
<text text-anchor="middle" x="2361.5" y="-12.5" font-family="Helvetica,sans-Serif" font-size="10.00">src/d/meter/d_meter2.cpp</text>
</a>
</g>
</g>
<!-- Node10&#45;&gt;Node14 -->
<g id="edge13" class="edge">
<title>Node10&#45;&gt;Node14</title>
<path fill="none" stroke="#63b8ff" d="M2211.21,-67.43C2247.81,-54.91 2303.09,-35.99 2335.42,-24.93"/>
<polygon fill="#63b8ff" stroke="#63b8ff" points="2210.26,-64.06 2201.93,-70.61 2212.53,-70.68 2210.26,-64.06"/>
</g>
</g>
</svg>
