<?xml version="1.0" encoding="UTF-8" standalone="no"?>
<!DOCTYPE svg PUBLIC "-//W3C//DTD SVG 1.1//EN"
 "http://www.w3.org/Graphics/SVG/1.1/DTD/svg11.dtd">
<!-- Generated by graphviz version 7.0.5 (20221223.1930)
 -->
<!-- Title: include/JSystem/J2DGraph/J2DManage.h Pages: 1 -->
<!--zoomable 357 -->
<svg id="main" version="1.1" xmlns="http://www.w3.org/2000/svg" xmlns:xlink="http://www.w3.org/1999/xlink" xml:space="preserve" onload="init(evt)">
<style type="text/css"><![CDATA[
.edge:hover path { stroke: red; }
.edge:hover polygon { stroke: red; fill: red; }
]]></style>
<script type="text/javascript"><![CDATA[
var edges = document.getElementsByTagName('g');
if (edges && edges.length) {
  for (var i=0;i<edges.length;i++) {
    if (edges[i].id.substr(0,4)=='edge') {
      edges[i].setAttribute('class','edge');
    }
  }
}
]]></script>
        <defs>
                <circle id="rim" cx="0" cy="0" r="7"/>
                <circle id="rim2" cx="0" cy="0" r="3.5"/>
                <g id="zoomPlus">
                        <use xlink:href="#rim" fill="#404040">
                                <set attributeName="fill" to="#808080" begin="zoomplus.mouseover" end="zoomplus.mouseout"/>
                        </use>
                        <path d="M-4,0h8M0,-4v8" fill="none" stroke="white" stroke-width="1.5" pointer-events="none"/>
                </g>
                <g id="zoomMin">
                        <use xlink:href="#rim" fill="#404040">
                                <set attributeName="fill" to="#808080" begin="zoomminus.mouseover" end="zoomminus.mouseout"/>
                        </use>
                        <path d="M-4,0h8" fill="none" stroke="white" stroke-width="1.5" pointer-events="none"/>
                </g>
                <g id="dirArrow">
                        <path fill="none" stroke="white" stroke-width="1.5" d="M0,-3.0v7 M-2.5,-0.5L0,-3.0L2.5,-0.5"/>
                </g>
               <g id="resetDef">
                       <use xlink:href="#rim2" fill="#404040">
                               <set attributeName="fill" to="#808080" begin="reset.mouseover" end="reset.mouseout"/>
                       </use>
               </g>
        </defs>

<script type="text/javascript">
var viewWidth = 3375;
var viewHeight = 357;
var sectionId = 'dynsection-1';
</script>
<script xlink:href="svgpan.js"/>
<svg id="graph" class="graph">
<g id="viewport">
<title>include/JSystem/J2DGraph/J2DManage.h</title>
<!-- Node1 -->
<g id="node1" class="node">
<title>Node1</title>
<g id="a_node1"><a xlink:title=" ">
<polygon fill="#999999" stroke="#666666" points="1370.5,-349 1235.5,-349 1235.5,-319 1370.5,-319 1370.5,-349"/>
<text text-anchor="start" x="1243.5" y="-337" font-family="Helvetica,sans-Serif" font-size="10.00">include/JSystem/J2DGraph</text>
<text text-anchor="middle" x="1303" y="-326" font-family="Helvetica,sans-Serif" font-size="10.00">/J2DManage.h</text>
</a>
</g>
</g>
<!-- Node2 -->
<g id="node2" class="node">
<title>Node2</title>
<g id="a_node2"><a xlink:href="J2DMaterialFactory_8h.html" target="_top" xlink:title=" ">
<polygon fill="white" stroke="#666666" points="267.5,-283 132.5,-283 132.5,-253 267.5,-253 267.5,-283"/>
<text text-anchor="start" x="140.5" y="-271" font-family="Helvetica,sans-Serif" font-size="10.00">include/JSystem/J2DGraph</text>
<text text-anchor="middle" x="200" y="-260" font-family="Helvetica,sans-Serif" font-size="10.00">/J2DMaterialFactory.h</text>
</a>
</g>
</g>
<!-- Node1&#45;&gt;Node2 -->
<g id="edge1" class="edge">
<title>Node1&#45;&gt;Node2</title>
<path fill="none" stroke="#63b8ff" d="M1223.88,-328.41C1016.8,-316.39 461.49,-284.17 267.78,-272.93"/>
<polygon fill="#63b8ff" stroke="#63b8ff" points="1223.55,-331.9 1233.74,-328.98 1223.96,-324.91 1223.55,-331.9"/>
</g>
<!-- Node5 -->
<g id="node5" class="node">
<title>Node5</title>
<g id="a_node5"><a xlink:href="J2DScreen_8h.html" target="_top" xlink:title=" ">
<polygon fill="white" stroke="#666666" points="1755.5,-283 1620.5,-283 1620.5,-253 1755.5,-253 1755.5,-283"/>
<text text-anchor="start" x="1628.5" y="-271" font-family="Helvetica,sans-Serif" font-size="10.00">include/JSystem/J2DGraph</text>
<text text-anchor="middle" x="1688" y="-260" font-family="Helvetica,sans-Serif" font-size="10.00">/J2DScreen.h</text>
</a>
</g>
</g>
<!-- Node1&#45;&gt;Node5 -->
<g id="edge4" class="edge">
<title>Node1&#45;&gt;Node5</title>
<path fill="none" stroke="#63b8ff" d="M1381.92,-319.88C1452.06,-308.22 1553.5,-291.36 1620.09,-280.29"/>
<polygon fill="#63b8ff" stroke="#63b8ff" points="1381.73,-316.36 1372.44,-321.46 1382.88,-323.27 1381.73,-316.36"/>
</g>
<!-- Node22 -->
<g id="node22" class="node">
<title>Node22</title>
<g id="a_node22"><a xlink:href="J2DPane_8cpp.html" target="_top" xlink:title=" ">
<polygon fill="white" stroke="#666666" points="396.5,-217 277.5,-217 277.5,-187 396.5,-187 396.5,-217"/>
<text text-anchor="start" x="285.5" y="-205" font-family="Helvetica,sans-Serif" font-size="10.00">libs/JSystem/J2DGraph</text>
<text text-anchor="middle" x="337" y="-194" font-family="Helvetica,sans-Serif" font-size="10.00">/J2DPane.cpp</text>
</a>
</g>
</g>
<!-- Node1&#45;&gt;Node22 -->
<g id="edge45" class="edge">
<title>Node1&#45;&gt;Node22</title>
<path fill="none" stroke="#63b8ff" d="M1223.77,-324.77C1066.92,-308.05 706,-267.35 405,-217 402.27,-216.54 399.47,-216.05 396.66,-215.54"/>
<polygon fill="#63b8ff" stroke="#63b8ff" points="1223.34,-328.25 1233.65,-325.83 1224.08,-321.29 1223.34,-328.25"/>
</g>
<!-- Node42 -->
<g id="node42" class="node">
<title>Node42</title>
<g id="a_node42"><a xlink:href="J2DManage_8cpp.html" target="_top" xlink:title=" ">
<polygon fill="white" stroke="#666666" points="1892.5,-283 1773.5,-283 1773.5,-253 1892.5,-253 1892.5,-283"/>
<text text-anchor="start" x="1781.5" y="-271" font-family="Helvetica,sans-Serif" font-size="10.00">libs/JSystem/J2DGraph</text>
<text text-anchor="middle" x="1833" y="-260" font-family="Helvetica,sans-Serif" font-size="10.00">/J2DManage.cpp</text>
</a>
</g>
</g>
<!-- Node1&#45;&gt;Node42 -->
<g id="edge44" class="edge">
<title>Node1&#45;&gt;Node42</title>
<path fill="none" stroke="#63b8ff" d="M1382.28,-326.64C1474.36,-318.73 1630.69,-303.71 1764,-283 1767.02,-282.53 1770.11,-282.02 1773.22,-281.48"/>
<polygon fill="#63b8ff" stroke="#63b8ff" points="1382,-323.15 1372.33,-327.48 1382.59,-330.12 1382,-323.15"/>
</g>
<!-- Node3 -->
<g id="node3" class="node">
<title>Node3</title>
<g id="a_node3"><a xlink:href="J2DMaterialFactory_8cpp.html" target="_top" xlink:title=" ">
<polygon fill="white" stroke="#666666" points="122,-217 0,-217 0,-187 122,-187 122,-217"/>
<text text-anchor="start" x="8" y="-205" font-family="Helvetica,sans-Serif" font-size="10.00">libs/JSystem/J2DGraph</text>
<text text-anchor="middle" x="61" y="-194" font-family="Helvetica,sans-Serif" font-size="10.00">/J2DMaterialFactory.cpp</text>
</a>
</g>
</g>
<!-- Node2&#45;&gt;Node3 -->
<g id="edge2" class="edge">
<title>Node2&#45;&gt;Node3</title>
<path fill="none" stroke="#63b8ff" d="M158.42,-247.86C137.13,-238.05 111.65,-226.32 92.09,-217.31"/>
<polygon fill="#63b8ff" stroke="#63b8ff" points="156.88,-251 167.43,-252 159.81,-244.64 156.88,-251"/>
</g>
<!-- Node4 -->
<g id="node4" class="node">
<title>Node4</title>
<g id="a_node4"><a xlink:href="J2DScreen_8cpp.html" target="_top" xlink:title=" ">
<polygon fill="white" stroke="#666666" points="259.5,-217 140.5,-217 140.5,-187 259.5,-187 259.5,-217"/>
<text text-anchor="start" x="148.5" y="-205" font-family="Helvetica,sans-Serif" font-size="10.00">libs/JSystem/J2DGraph</text>
<text text-anchor="middle" x="200" y="-194" font-family="Helvetica,sans-Serif" font-size="10.00">/J2DScreen.cpp</text>
</a>
</g>
</g>
<!-- Node2&#45;&gt;Node4 -->
<g id="edge3" class="edge">
<title>Node2&#45;&gt;Node4</title>
<path fill="none" stroke="#63b8ff" d="M200,-241.39C200,-233.13 200,-224.28 200,-217.16"/>
<polygon fill="#63b8ff" stroke="#63b8ff" points="196.5,-241.28 200,-251.28 203.5,-241.28 196.5,-241.28"/>
</g>
<!-- Node5&#45;&gt;Node4 -->
<g id="edge24" class="edge">
<title>Node5&#45;&gt;Node4</title>
<path fill="none" stroke="#63b8ff" d="M1609.08,-265.97C1350.56,-262.3 530.76,-248.45 268,-217 265.37,-216.68 262.68,-216.32 259.98,-215.92"/>
<polygon fill="#63b8ff" stroke="#63b8ff" points="1608.67,-269.46 1618.72,-266.1 1608.77,-262.46 1608.67,-269.46"/>
</g>
<!-- Node6 -->
<g id="node6" class="node">
<title>Node6</title>
<g id="a_node6"><a xlink:href="d__select__cursor_8h.html" target="_top" xlink:title=" ">
<polygon fill="white" stroke="#666666" points="2313.5,-151 2218.5,-151 2218.5,-121 2313.5,-121 2313.5,-151"/>
<text text-anchor="start" x="2226.5" y="-139" font-family="Helvetica,sans-Serif" font-size="10.00">include/d/d_select</text>
<text text-anchor="middle" x="2266" y="-128" font-family="Helvetica,sans-Serif" font-size="10.00">_cursor.h</text>
</a>
</g>
</g>
<!-- Node5&#45;&gt;Node6 -->
<g id="edge5" class="edge">
<title>Node5&#45;&gt;Node6</title>
<path fill="none" stroke="#63b8ff" d="M1767.28,-253.07C1863.06,-246.79 2268.46,-259.24 2308,-217 2326.22,-197.53 2301.72,-168.64 2283.2,-151.43"/>
<polygon fill="#63b8ff" stroke="#63b8ff" points="1767.05,-249.58 1757.4,-253.96 1767.67,-256.55 1767.05,-249.58"/>
</g>
<!-- Node13 -->
<g id="node13" class="node">
<title>Node13</title>
<g id="a_node13"><a xlink:href="d__menu__collect_8cpp.html" target="_top" xlink:title=" ">
<polygon fill="white" stroke="#666666" points="2757.5,-79.5 2602.5,-79.5 2602.5,-60.5 2757.5,-60.5 2757.5,-79.5"/>
<text text-anchor="middle" x="2680" y="-67.5" font-family="Helvetica,sans-Serif" font-size="10.00">src/d/menu/d_menu_collect.cpp</text>
</a>
</g>
</g>
<!-- Node5&#45;&gt;Node13 -->
<g id="edge33" class="edge">
<title>Node5&#45;&gt;Node13</title>
<path fill="none" stroke="#63b8ff" d="M1767.22,-253.01C1881.1,-244.87 2395.27,-255.5 2459,-217 2501.47,-191.34 2476.97,-151.64 2516,-121 2535.14,-105.98 2596.73,-89.75 2638.74,-79.98"/>
<polygon fill="#63b8ff" stroke="#63b8ff" points="1767.04,-249.51 1757.39,-253.9 1767.67,-256.49 1767.04,-249.51"/>
</g>
<!-- Node17 -->
<g id="node17" class="node">
<title>Node17</title>
<g id="a_node17"><a xlink:href="d__select__icon_8h.html" target="_top" xlink:title=" ">
<polygon fill="white" stroke="#666666" points="2450.5,-217 2355.5,-217 2355.5,-187 2450.5,-187 2450.5,-217"/>
<text text-anchor="start" x="2363.5" y="-205" font-family="Helvetica,sans-Serif" font-size="10.00">include/d/d_select</text>
<text text-anchor="middle" x="2403" y="-194" font-family="Helvetica,sans-Serif" font-size="10.00">_icon.h</text>
</a>
</g>
</g>
<!-- Node5&#45;&gt;Node17 -->
<g id="edge16" class="edge">
<title>Node5&#45;&gt;Node17</title>
<path fill="none" stroke="#63b8ff" d="M1766.95,-252.74C2020.98,-222.55 2090.25,-252.9 2341,-217 2345.59,-216.34 2350.34,-215.53 2355.08,-214.62"/>
<polygon fill="#63b8ff" stroke="#63b8ff" points="1766.9,-249.22 1757.39,-253.9 1767.74,-256.17 1766.9,-249.22"/>
</g>
<!-- Node19 -->
<g id="node19" class="node">
<title>Node19</title>
<g id="a_node19"><a xlink:href="d__a__boomerang_8h.html" target="_top" xlink:title=" ">
<polygon fill="white" stroke="#666666" points="2656.5,-217 2507.5,-217 2507.5,-187 2656.5,-187 2656.5,-217"/>
<text text-anchor="start" x="2515.5" y="-205" font-family="Helvetica,sans-Serif" font-size="10.00">include/rel/d/a/d_a</text>
<text text-anchor="middle" x="2582" y="-194" font-family="Helvetica,sans-Serif" font-size="10.00">_boomerang/d_a_boomerang.h</text>
</a>
</g>
</g>
<!-- Node5&#45;&gt;Node19 -->
<g id="edge19" class="edge">
<title>Node5&#45;&gt;Node19</title>
<path fill="none" stroke="#63b8ff" d="M1766.92,-252.76C2088.14,-216.3 2173.94,-249.88 2493,-217 2497.67,-216.52 2502.46,-215.96 2507.29,-215.34"/>
<polygon fill="#63b8ff" stroke="#63b8ff" points="1766.92,-249.24 1757.39,-253.86 1767.72,-256.19 1766.92,-249.24"/>
</g>
<!-- Node21 -->
<g id="node21" class="node">
<title>Node21</title>
<g id="a_node21"><a xlink:href="J2DAnimation_8cpp.html" target="_top" xlink:title=" ">
<polygon fill="white" stroke="#666666" points="2793.5,-217 2674.5,-217 2674.5,-187 2793.5,-187 2793.5,-217"/>
<text text-anchor="start" x="2682.5" y="-205" font-family="Helvetica,sans-Serif" font-size="10.00">libs/JSystem/J2DGraph</text>
<text text-anchor="middle" x="2734" y="-194" font-family="Helvetica,sans-Serif" font-size="10.00">/J2DAnimation.cpp</text>
</a>
</g>
</g>
<!-- Node5&#45;&gt;Node21 -->
<g id="edge21" class="edge">
<title>Node5&#45;&gt;Node21</title>
<path fill="none" stroke="#63b8ff" d="M1767.12,-252.76C2164.27,-209.62 2270.81,-264.55 2665,-217 2668.03,-216.63 2671.13,-216.21 2674.26,-215.73"/>
<polygon fill="#63b8ff" stroke="#63b8ff" points="1766.94,-249.26 1757.39,-253.84 1767.71,-256.22 1766.94,-249.26"/>
</g>
<!-- Node5&#45;&gt;Node22 -->
<g id="edge22" class="edge">
<title>Node5&#45;&gt;Node22</title>
<path fill="none" stroke="#63b8ff" d="M1608.63,-265.61C1366.53,-261.12 639.73,-245.54 405,-217 402.37,-216.68 399.69,-216.31 396.98,-215.91"/>
<polygon fill="#63b8ff" stroke="#63b8ff" points="1608.55,-269.11 1618.62,-265.8 1608.68,-262.11 1608.55,-269.11"/>
</g>
<!-- Node23 -->
<g id="node23" class="node">
<title>Node23</title>
<g id="a_node23"><a xlink:href="J2DPicture_8cpp.html" target="_top" xlink:title=" ">
<polygon fill="white" stroke="#666666" points="2930.5,-217 2811.5,-217 2811.5,-187 2930.5,-187 2930.5,-217"/>
<text text-anchor="start" x="2819.5" y="-205" font-family="Helvetica,sans-Serif" font-size="10.00">libs/JSystem/J2DGraph</text>
<text text-anchor="middle" x="2871" y="-194" font-family="Helvetica,sans-Serif" font-size="10.00">/J2DPicture.cpp</text>
</a>
</g>
</g>
<!-- Node5&#45;&gt;Node23 -->
<g id="edge23" class="edge">
<title>Node5&#45;&gt;Node23</title>
<path fill="none" stroke="#63b8ff" d="M1767.11,-252.77C2225.31,-204.11 2347.9,-271.34 2803,-217 2805.63,-216.69 2808.32,-216.32 2811.02,-215.92"/>
<polygon fill="#63b8ff" stroke="#63b8ff" points="1766.95,-249.27 1757.38,-253.82 1767.7,-256.23 1766.95,-249.27"/>
</g>
<!-- Node24 -->
<g id="node24" class="node">
<title>Node24</title>
<g id="a_node24"><a xlink:href="Z2LinkMgr_8cpp.html" target="_top" xlink:title=" ">
<polygon fill="white" stroke="#666666" points="3101,-211.5 2949,-211.5 2949,-192.5 3101,-192.5 3101,-211.5"/>
<text text-anchor="middle" x="3025" y="-199.5" font-family="Helvetica,sans-Serif" font-size="10.00">libs/Z2AudioLib/Z2LinkMgr.cpp</text>
</a>
</g>
</g>
<!-- Node5&#45;&gt;Node24 -->
<g id="edge25" class="edge">
<title>Node5&#45;&gt;Node24</title>
<path fill="none" stroke="#63b8ff" d="M1767.04,-252.79C2285.89,-198.46 2423.23,-267.24 2940,-217 2952.21,-215.81 2965.31,-213.95 2977.49,-211.97"/>
<polygon fill="#63b8ff" stroke="#63b8ff" points="1766.96,-249.28 1757.38,-253.81 1767.7,-256.24 1766.96,-249.28"/>
</g>
<!-- Node25 -->
<g id="node25" class="node">
<title>Node25</title>
<g id="a_node25"><a xlink:href="d__bright__check_8cpp.html" target="_top" xlink:title=" ">
<polygon fill="white" stroke="#666666" points="3244.5,-211.5 3119.5,-211.5 3119.5,-192.5 3244.5,-192.5 3244.5,-211.5"/>
<text text-anchor="middle" x="3182" y="-199.5" font-family="Helvetica,sans-Serif" font-size="10.00">src/d/d_bright_check.cpp</text>
</a>
</g>
</g>
<!-- Node5&#45;&gt;Node25 -->
<g id="edge26" class="edge">
<title>Node5&#45;&gt;Node25</title>
<path fill="none" stroke="#63b8ff" d="M1767.31,-252.77C2361.17,-191.76 2518.92,-281.92 3110,-217 3120.51,-215.85 3131.77,-213.97 3142.19,-211.96"/>
<polygon fill="#63b8ff" stroke="#63b8ff" points="1766.97,-249.29 1757.38,-253.8 1767.69,-256.25 1766.97,-249.29"/>
</g>
<!-- Node26 -->
<g id="node26" class="node">
<title>Node26</title>
<g id="a_node26"><a xlink:href="d__drawlist_8cpp.html" target="_top" xlink:title=" ">
<polygon fill="white" stroke="#666666" points="3367,-211.5 3263,-211.5 3263,-192.5 3367,-192.5 3367,-211.5"/>
<text text-anchor="middle" x="3315" y="-199.5" font-family="Helvetica,sans-Serif" font-size="10.00">src/d/d_drawlist.cpp</text>
</a>
</g>
</g>
<!-- Node5&#45;&gt;Node26 -->
<g id="edge27" class="edge">
<title>Node5&#45;&gt;Node26</title>
<path fill="none" stroke="#63b8ff" d="M1767.07,-252.8C2424.86,-186.07 2600.43,-299.04 3254,-217 3263.06,-215.86 3272.74,-213.97 3281.66,-211.93"/>
<polygon fill="#63b8ff" stroke="#63b8ff" points="1766.97,-249.29 1757.38,-253.79 1767.69,-256.25 1766.97,-249.29"/>
</g>
<!-- Node27 -->
<g id="node27" class="node">
<title>Node27</title>
<g id="a_node27"><a xlink:href="d__gameover_8cpp.html" target="_top" xlink:title=" ">
<polygon fill="white" stroke="#666666" points="527.5,-211.5 414.5,-211.5 414.5,-192.5 527.5,-192.5 527.5,-211.5"/>
<text text-anchor="middle" x="471" y="-199.5" font-family="Helvetica,sans-Serif" font-size="10.00">src/d/d_gameover.cpp</text>
</a>
</g>
</g>
<!-- Node5&#45;&gt;Node27 -->
<g id="edge28" class="edge">
<title>Node5&#45;&gt;Node27</title>
<path fill="none" stroke="#63b8ff" d="M1608.71,-265.3C1383.71,-260.21 744.09,-243.73 536,-217 526.61,-215.79 516.57,-213.92 507.25,-211.94"/>
<polygon fill="#63b8ff" stroke="#63b8ff" points="1608.48,-268.8 1618.55,-265.52 1608.63,-261.8 1608.48,-268.8"/>
</g>
<!-- Node28 -->
<g id="node28" class="node">
<title>Node28</title>
<g id="a_node28"><a xlink:href="d__kantera__icon__meter_8cpp.html" target="_top" xlink:title=" ">
<polygon fill="white" stroke="#666666" points="652.5,-217 545.5,-217 545.5,-187 652.5,-187 652.5,-217"/>
<text text-anchor="start" x="553.5" y="-205" font-family="Helvetica,sans-Serif" font-size="10.00">src/d/d_kantera_icon</text>
<text text-anchor="middle" x="599" y="-194" font-family="Helvetica,sans-Serif" font-size="10.00">_meter.cpp</text>
</a>
</g>
</g>
<!-- Node5&#45;&gt;Node28 -->
<g id="edge29" class="edge">
<title>Node5&#45;&gt;Node28</title>
<path fill="none" stroke="#63b8ff" d="M1608.85,-267.71C1436.11,-268.25 1012.69,-264.16 662,-217 659,-216.6 655.94,-216.12 652.85,-215.6"/>
<polygon fill="#63b8ff" stroke="#63b8ff" points="1608.61,-271.21 1618.6,-267.67 1608.58,-264.21 1608.61,-271.21"/>
</g>
<!-- Node29 -->
<g id="node29" class="node">
<title>Node29</title>
<g id="a_node29"><a xlink:href="d__scope_8cpp.html" target="_top" xlink:title=" ">
<polygon fill="white" stroke="#666666" points="767,-211.5 671,-211.5 671,-192.5 767,-192.5 767,-211.5"/>
<text text-anchor="middle" x="719" y="-199.5" font-family="Helvetica,sans-Serif" font-size="10.00">src/d/d_scope.cpp</text>
</a>
</g>
</g>
<!-- Node5&#45;&gt;Node29 -->
<g id="edge30" class="edge">
<title>Node5&#45;&gt;Node29</title>
<path fill="none" stroke="#63b8ff" d="M1609,-267.59C1450.24,-267.7 1081.57,-262.5 776,-217 767.84,-215.78 759.13,-213.94 751.05,-211.98"/>
<polygon fill="#63b8ff" stroke="#63b8ff" points="1608.55,-271.09 1618.55,-267.58 1608.54,-264.09 1608.55,-271.09"/>
</g>
<!-- Node30 -->
<g id="node30" class="node">
<title>Node30</title>
<g id="a_node30"><a xlink:href="d__file__sel__info_8cpp.html" target="_top" xlink:title=" ">
<polygon fill="white" stroke="#666666" points="882.5,-217 785.5,-217 785.5,-187 882.5,-187 882.5,-217"/>
<text text-anchor="start" x="793.5" y="-205" font-family="Helvetica,sans-Serif" font-size="10.00">src/d/file/d_file_sel</text>
<text text-anchor="middle" x="834" y="-194" font-family="Helvetica,sans-Serif" font-size="10.00">_info.cpp</text>
</a>
</g>
</g>
<!-- Node5&#45;&gt;Node30 -->
<g id="edge31" class="edge">
<title>Node5&#45;&gt;Node30</title>
<path fill="none" stroke="#63b8ff" d="M1608.82,-266.69C1465.02,-265.09 1151.7,-256.87 891,-217 888.28,-216.58 885.5,-216.1 882.7,-215.57"/>
<polygon fill="#63b8ff" stroke="#63b8ff" points="1608.58,-270.19 1618.61,-266.79 1608.65,-263.19 1608.58,-270.19"/>
</g>
<!-- Node31 -->
<g id="node31" class="node">
<title>Node31</title>
<g id="a_node31"><a xlink:href="d__file__sel__warning_8cpp.html" target="_top" xlink:title=" ">
<polygon fill="white" stroke="#666666" points="997.5,-217 900.5,-217 900.5,-187 997.5,-187 997.5,-217"/>
<text text-anchor="start" x="908.5" y="-205" font-family="Helvetica,sans-Serif" font-size="10.00">src/d/file/d_file_sel</text>
<text text-anchor="middle" x="949" y="-194" font-family="Helvetica,sans-Serif" font-size="10.00">_warning.cpp</text>
</a>
</g>
</g>
<!-- Node5&#45;&gt;Node31 -->
<g id="edge32" class="edge">
<title>Node5&#45;&gt;Node31</title>
<path fill="none" stroke="#63b8ff" d="M1609.24,-265.39C1481.92,-261.86 1223.3,-250.81 1007,-217 1004.03,-216.54 1000.99,-216 997.93,-215.41"/>
<polygon fill="#63b8ff" stroke="#63b8ff" points="1608.8,-268.88 1618.89,-265.65 1608.99,-261.89 1608.8,-268.88"/>
</g>
<!-- Node32 -->
<g id="node32" class="node">
<title>Node32</title>
<g id="a_node32"><a xlink:href="d__meter2__draw_8cpp.html" target="_top" xlink:title=" ">
<polygon fill="white" stroke="#666666" points="1126,-217 1016,-217 1016,-187 1126,-187 1126,-217"/>
<text text-anchor="start" x="1024" y="-205" font-family="Helvetica,sans-Serif" font-size="10.00">src/d/meter/d_meter2</text>
<text text-anchor="middle" x="1071" y="-194" font-family="Helvetica,sans-Serif" font-size="10.00">_draw.cpp</text>
</a>
</g>
</g>
<!-- Node5&#45;&gt;Node32 -->
<g id="edge34" class="edge">
<title>Node5&#45;&gt;Node32</title>
<path fill="none" stroke="#63b8ff" d="M1609.02,-262.98C1501.37,-256.78 1302.77,-242.83 1135,-217 1132.19,-216.57 1129.32,-216.09 1126.42,-215.57"/>
<polygon fill="#63b8ff" stroke="#63b8ff" points="1608.73,-266.46 1618.91,-263.54 1609.12,-259.48 1608.73,-266.46"/>
</g>
<!-- Node33 -->
<g id="node33" class="node">
<title>Node33</title>
<g id="a_node33"><a xlink:href="d__pane__class_8cpp.html" target="_top" xlink:title=" ">
<polygon fill="white" stroke="#666666" points="1287.5,-211.5 1144.5,-211.5 1144.5,-192.5 1287.5,-192.5 1287.5,-211.5"/>
<text text-anchor="middle" x="1216" y="-199.5" font-family="Helvetica,sans-Serif" font-size="10.00">src/d/pane/d_pane_class.cpp</text>
</a>
</g>
</g>
<!-- Node5&#45;&gt;Node33 -->
<g id="edge35" class="edge">
<title>Node5&#45;&gt;Node33</title>
<path fill="none" stroke="#63b8ff" d="M1608.88,-258C1529.6,-248.73 1404.14,-233.35 1296,-217 1285.96,-215.48 1275.24,-213.71 1265.02,-211.95"/>
<polygon fill="#63b8ff" stroke="#63b8ff" points="1608.39,-261.47 1618.73,-259.15 1609.2,-254.51 1608.39,-261.47"/>
</g>
<!-- Node34 -->
<g id="node34" class="node">
<title>Node34</title>
<g id="a_node34"><a xlink:href="d__pane__class__alpha_8cpp.html" target="_top" xlink:title=" ">
<polygon fill="white" stroke="#666666" points="1430.5,-217 1305.5,-217 1305.5,-187 1430.5,-187 1430.5,-217"/>
<text text-anchor="start" x="1313.5" y="-205" font-family="Helvetica,sans-Serif" font-size="10.00">src/d/pane/d_pane_class</text>
<text text-anchor="middle" x="1368" y="-194" font-family="Helvetica,sans-Serif" font-size="10.00">_alpha.cpp</text>
</a>
</g>
</g>
<!-- Node5&#45;&gt;Node34 -->
<g id="edge36" class="edge">
<title>Node5&#45;&gt;Node34</title>
<path fill="none" stroke="#63b8ff" d="M1609.04,-251.21C1554.13,-240.23 1481.9,-225.78 1430.88,-215.58"/>
<polygon fill="#63b8ff" stroke="#63b8ff" points="1608.16,-254.6 1618.65,-253.13 1609.53,-247.74 1608.16,-254.6"/>
</g>
<!-- Node35 -->
<g id="node35" class="node">
<title>Node35</title>
<g id="a_node35"><a xlink:href="d__msg__scrn__arrow_8cpp.html" target="_top" xlink:title=" ">
<polygon fill="white" stroke="#666666" points="1555,-217 1449,-217 1449,-187 1555,-187 1555,-217"/>
<text text-anchor="start" x="1457" y="-205" font-family="Helvetica,sans-Serif" font-size="10.00">src/msg/scrn/d_msg</text>
<text text-anchor="middle" x="1502" y="-194" font-family="Helvetica,sans-Serif" font-size="10.00">_scrn_arrow.cpp</text>
</a>
</g>
</g>
<!-- Node5&#45;&gt;Node35 -->
<g id="edge37" class="edge">
<title>Node5&#45;&gt;Node35</title>
<path fill="none" stroke="#63b8ff" d="M1635.5,-248.94C1606.53,-238.97 1571.03,-226.75 1543.92,-217.43"/>
<polygon fill="#63b8ff" stroke="#63b8ff" points="1634.23,-252.2 1644.83,-252.14 1636.51,-245.58 1634.23,-252.2"/>
</g>
<!-- Node36 -->
<g id="node36" class="node">
<title>Node36</title>
<g id="a_node36"><a xlink:href="d__msg__scrn__base_8cpp.html" target="_top" xlink:title=" ">
<polygon fill="white" stroke="#666666" points="1679,-217 1573,-217 1573,-187 1679,-187 1679,-217"/>
<text text-anchor="start" x="1581" y="-205" font-family="Helvetica,sans-Serif" font-size="10.00">src/msg/scrn/d_msg</text>
<text text-anchor="middle" x="1626" y="-194" font-family="Helvetica,sans-Serif" font-size="10.00">_scrn_base.cpp</text>
</a>
</g>
</g>
<!-- Node5&#45;&gt;Node36 -->
<g id="edge38" class="edge">
<title>Node5&#45;&gt;Node36</title>
<path fill="none" stroke="#63b8ff" d="M1666.5,-244.81C1657.62,-235.64 1647.58,-225.28 1639.72,-217.16"/>
<polygon fill="#63b8ff" stroke="#63b8ff" points="1663.72,-246.96 1673.19,-251.71 1668.74,-242.09 1663.72,-246.96"/>
</g>
<!-- Node37 -->
<g id="node37" class="node">
<title>Node37</title>
<g id="a_node37"><a xlink:href="d__msg__scrn__boss_8cpp.html" target="_top" xlink:title=" ">
<polygon fill="white" stroke="#666666" points="1803,-217 1697,-217 1697,-187 1803,-187 1803,-217"/>
<text text-anchor="start" x="1705" y="-205" font-family="Helvetica,sans-Serif" font-size="10.00">src/msg/scrn/d_msg</text>
<text text-anchor="middle" x="1750" y="-194" font-family="Helvetica,sans-Serif" font-size="10.00">_scrn_boss.cpp</text>
</a>
</g>
</g>
<!-- Node5&#45;&gt;Node37 -->
<g id="edge39" class="edge">
<title>Node5&#45;&gt;Node37</title>
<path fill="none" stroke="#63b8ff" d="M1709.5,-244.81C1718.38,-235.64 1728.42,-225.28 1736.28,-217.16"/>
<polygon fill="#63b8ff" stroke="#63b8ff" points="1707.26,-242.09 1702.81,-251.71 1712.28,-246.96 1707.26,-242.09"/>
</g>
<!-- Node38 -->
<g id="node38" class="node">
<title>Node38</title>
<g id="a_node38"><a xlink:href="d__msg__scrn__explain_8cpp.html" target="_top" xlink:title=" ">
<polygon fill="white" stroke="#666666" points="1927,-217 1821,-217 1821,-187 1927,-187 1927,-217"/>
<text text-anchor="start" x="1829" y="-205" font-family="Helvetica,sans-Serif" font-size="10.00">src/msg/scrn/d_msg</text>
<text text-anchor="middle" x="1874" y="-194" font-family="Helvetica,sans-Serif" font-size="10.00">_scrn_explain.cpp</text>
</a>
</g>
</g>
<!-- Node5&#45;&gt;Node38 -->
<g id="edge40" class="edge">
<title>Node5&#45;&gt;Node38</title>
<path fill="none" stroke="#63b8ff" d="M1740.5,-248.94C1769.47,-238.97 1804.97,-226.75 1832.08,-217.43"/>
<polygon fill="#63b8ff" stroke="#63b8ff" points="1739.49,-245.58 1731.17,-252.14 1741.77,-252.2 1739.49,-245.58"/>
</g>
<!-- Node39 -->
<g id="node39" class="node">
<title>Node39</title>
<g id="a_node39"><a xlink:href="d__msg__scrn__place_8cpp.html" target="_top" xlink:title=" ">
<polygon fill="white" stroke="#666666" points="2051,-217 1945,-217 1945,-187 2051,-187 2051,-217"/>
<text text-anchor="start" x="1953" y="-205" font-family="Helvetica,sans-Serif" font-size="10.00">src/msg/scrn/d_msg</text>
<text text-anchor="middle" x="1998" y="-194" font-family="Helvetica,sans-Serif" font-size="10.00">_scrn_place.cpp</text>
</a>
</g>
</g>
<!-- Node5&#45;&gt;Node39 -->
<g id="edge41" class="edge">
<title>Node5&#45;&gt;Node39</title>
<path fill="none" stroke="#63b8ff" d="M1767.09,-251.54C1815.84,-241.89 1879.61,-229.05 1936,-217 1938.81,-216.4 1941.68,-215.78 1944.58,-215.14"/>
<polygon fill="#63b8ff" stroke="#63b8ff" points="1766.6,-248.07 1757.47,-253.44 1767.95,-254.94 1766.6,-248.07"/>
</g>
<!-- Node40 -->
<g id="node40" class="node">
<title>Node40</title>
<g id="a_node40"><a xlink:href="d__msg__scrn__staff_8cpp.html" target="_top" xlink:title=" ">
<polygon fill="white" stroke="#666666" points="2175,-217 2069,-217 2069,-187 2175,-187 2175,-217"/>
<text text-anchor="start" x="2077" y="-205" font-family="Helvetica,sans-Serif" font-size="10.00">src/msg/scrn/d_msg</text>
<text text-anchor="middle" x="2122" y="-194" font-family="Helvetica,sans-Serif" font-size="10.00">_scrn_staff.cpp</text>
</a>
</g>
</g>
<!-- Node5&#45;&gt;Node40 -->
<g id="edge42" class="edge">
<title>Node5&#45;&gt;Node40</title>
<path fill="none" stroke="#63b8ff" d="M1767.1,-252.59C1896.96,-233.33 1932.99,-239.01 2060,-217 2062.83,-216.51 2065.72,-215.98 2068.63,-215.41"/>
<polygon fill="#63b8ff" stroke="#63b8ff" points="1766.78,-249.1 1757.41,-254.05 1767.82,-256.02 1766.78,-249.1"/>
</g>
<!-- Node41 -->
<g id="node41" class="node">
<title>Node41</title>
<g id="a_node41"><a xlink:href="d__msg__scrn__tree_8cpp.html" target="_top" xlink:title=" ">
<polygon fill="white" stroke="#666666" points="2299,-217 2193,-217 2193,-187 2299,-187 2299,-217"/>
<text text-anchor="start" x="2201" y="-205" font-family="Helvetica,sans-Serif" font-size="10.00">src/msg/scrn/d_msg</text>
<text text-anchor="middle" x="2246" y="-194" font-family="Helvetica,sans-Serif" font-size="10.00">_scrn_tree.cpp</text>
</a>
</g>
</g>
<!-- Node5&#45;&gt;Node41 -->
<g id="edge43" class="edge">
<title>Node5&#45;&gt;Node41</title>
<path fill="none" stroke="#63b8ff" d="M1767.09,-252.67C1951.65,-228.67 2002.48,-245.14 2184,-217 2186.84,-216.56 2189.73,-216.07 2192.65,-215.53"/>
<polygon fill="#63b8ff" stroke="#63b8ff" points="1766.85,-249.17 1757.4,-253.96 1767.77,-256.11 1766.85,-249.17"/>
</g>
<!-- Node7 -->
<g id="node7" class="node">
<title>Node7</title>
<g id="a_node7"><a xlink:href="d__menu__dmap_8h.html" target="_top" xlink:title=" ">
<polygon fill="white" stroke="#666666" points="2326,-85 2206,-85 2206,-55 2326,-55 2326,-85"/>
<text text-anchor="start" x="2214" y="-73" font-family="Helvetica,sans-Serif" font-size="10.00">include/d/menu/d_menu</text>
<text text-anchor="middle" x="2266" y="-62" font-family="Helvetica,sans-Serif" font-size="10.00">_dmap.h</text>
</a>
</g>
</g>
<!-- Node6&#45;&gt;Node7 -->
<g id="edge6" class="edge">
<title>Node6&#45;&gt;Node7</title>
<path fill="none" stroke="#63b8ff" d="M2266,-109.39C2266,-101.13 2266,-92.28 2266,-85.16"/>
<polygon fill="#63b8ff" stroke="#63b8ff" points="2262.5,-109.28 2266,-119.28 2269.5,-109.28 2262.5,-109.28"/>
</g>
<!-- Node10 -->
<g id="node10" class="node">
<title>Node10</title>
<g id="a_node10"><a xlink:href="d__name_8cpp.html" target="_top" xlink:title=" ">
<polygon fill="white" stroke="#666666" points="2438,-79.5 2344,-79.5 2344,-60.5 2438,-60.5 2438,-79.5"/>
<text text-anchor="middle" x="2391" y="-67.5" font-family="Helvetica,sans-Serif" font-size="10.00">src/d/d_name.cpp</text>
</a>
</g>
</g>
<!-- Node6&#45;&gt;Node10 -->
<g id="edge9" class="edge">
<title>Node6&#45;&gt;Node10</title>
<path fill="none" stroke="#63b8ff" d="M2304.23,-115.43C2327.29,-103.62 2355.58,-89.14 2373.45,-79.99"/>
<polygon fill="#63b8ff" stroke="#63b8ff" points="2302.71,-112.27 2295.4,-119.95 2305.9,-118.51 2302.71,-112.27"/>
</g>
<!-- Node11 -->
<g id="node11" class="node">
<title>Node11</title>
<g id="a_node11"><a xlink:href="d__select__cursor_8cpp.html" target="_top" xlink:title=" ">
<polygon fill="white" stroke="#666666" points="2584,-79.5 2456,-79.5 2456,-60.5 2584,-60.5 2584,-79.5"/>
<text text-anchor="middle" x="2520" y="-67.5" font-family="Helvetica,sans-Serif" font-size="10.00">src/d/d_select_cursor.cpp</text>
</a>
</g>
</g>
<!-- Node6&#45;&gt;Node11 -->
<g id="edge10" class="edge">
<title>Node6&#45;&gt;Node11</title>
<path fill="none" stroke="#63b8ff" d="M2324.92,-120.15C2374.23,-107.73 2442.97,-90.41 2484.32,-79.99"/>
<polygon fill="#63b8ff" stroke="#63b8ff" points="2324.08,-116.75 2315.24,-122.59 2325.8,-123.54 2324.08,-116.75"/>
</g>
<!-- Node12 -->
<g id="node12" class="node">
<title>Node12</title>
<g id="a_node12"><a xlink:href="d__menu__calibration_8cpp.html" target="_top" xlink:title=" ">
<polygon fill="white" stroke="#666666" points="1707,-79.5 1537,-79.5 1537,-60.5 1707,-60.5 1707,-79.5"/>
<text text-anchor="middle" x="1622" y="-67.5" font-family="Helvetica,sans-Serif" font-size="10.00">src/d/menu/d_menu_calibration.cpp</text>
</a>
</g>
</g>
<!-- Node6&#45;&gt;Node12 -->
<g id="edge11" class="edge">
<title>Node6&#45;&gt;Node12</title>
<path fill="none" stroke="#63b8ff" d="M2206.62,-130.72C2105.65,-123.19 1894.11,-106.34 1716,-85 1703.88,-83.55 1690.91,-81.76 1678.6,-79.96"/>
<polygon fill="#63b8ff" stroke="#63b8ff" points="2206.34,-134.21 2216.57,-131.46 2206.86,-127.23 2206.34,-134.21"/>
</g>
<!-- Node6&#45;&gt;Node13 -->
<g id="edge12" class="edge">
<title>Node6&#45;&gt;Node13</title>
<path fill="none" stroke="#63b8ff" d="M2324.84,-120.58C2443.27,-98.47 2476.31,-102.14 2593,-85 2603.6,-83.44 2614.9,-81.69 2625.74,-79.97"/>
<polygon fill="#63b8ff" stroke="#63b8ff" points="2324.54,-117.07 2315.37,-122.37 2325.85,-123.95 2324.54,-117.07"/>
</g>
<!-- Node14 -->
<g id="node14" class="node">
<title>Node14</title>
<g id="a_node14"><a xlink:href="d__menu__map__common_8cpp.html" target="_top" xlink:title=" ">
<polygon fill="white" stroke="#666666" points="1852.5,-85 1725.5,-85 1725.5,-55 1852.5,-55 1852.5,-85"/>
<text text-anchor="start" x="1733.5" y="-73" font-family="Helvetica,sans-Serif" font-size="10.00">src/d/menu/d_menu_map</text>
<text text-anchor="middle" x="1789" y="-62" font-family="Helvetica,sans-Serif" font-size="10.00">_common.cpp</text>
</a>
</g>
</g>
<!-- Node6&#45;&gt;Node14 -->
<g id="edge13" class="edge">
<title>Node6&#45;&gt;Node14</title>
<path fill="none" stroke="#63b8ff" d="M2206.98,-129.01C2127.97,-120.69 1983.54,-104.45 1861,-85 1858.36,-84.58 1855.67,-84.14 1852.95,-83.67"/>
<polygon fill="#63b8ff" stroke="#63b8ff" points="2206.34,-132.46 2216.65,-130.02 2207.07,-125.5 2206.34,-132.46"/>
</g>
<!-- Node15 -->
<g id="node15" class="node">
<title>Node15</title>
<g id="a_node15"><a xlink:href="d__menu__save_8cpp.html" target="_top" xlink:title=" ">
<polygon fill="white" stroke="#666666" points="2017.5,-79.5 1870.5,-79.5 1870.5,-60.5 2017.5,-60.5 2017.5,-79.5"/>
<text text-anchor="middle" x="1944" y="-67.5" font-family="Helvetica,sans-Serif" font-size="10.00">src/d/menu/d_menu_save.cpp</text>
</a>
</g>
</g>
<!-- Node6&#45;&gt;Node15 -->
<g id="edge14" class="edge">
<title>Node6&#45;&gt;Node15</title>
<path fill="none" stroke="#63b8ff" d="M2207.23,-123.32C2144.45,-110.84 2046.3,-91.33 1989.26,-80"/>
<polygon fill="#63b8ff" stroke="#63b8ff" points="2206.17,-126.68 2216.66,-125.19 2207.53,-119.81 2206.17,-126.68"/>
</g>
<!-- Node16 -->
<g id="node16" class="node">
<title>Node16</title>
<g id="a_node16"><a xlink:href="d__shop__system_8cpp.html" target="_top" xlink:title=" ">
<polygon fill="white" stroke="#666666" points="2188,-79.5 2036,-79.5 2036,-60.5 2188,-60.5 2188,-79.5"/>
<text text-anchor="middle" x="2112" y="-67.5" font-family="Helvetica,sans-Serif" font-size="10.00">src/d/shop/d_shop_system.cpp</text>
</a>
</g>
</g>
<!-- Node6&#45;&gt;Node16 -->
<g id="edge15" class="edge">
<title>Node6&#45;&gt;Node16</title>
<path fill="none" stroke="#63b8ff" d="M2220.82,-116.22C2192.07,-104.27 2156.14,-89.34 2133.62,-79.99"/>
<polygon fill="#63b8ff" stroke="#63b8ff" points="2219.46,-119.45 2230.04,-120.06 2222.15,-112.99 2219.46,-119.45"/>
</g>
<!-- Node8 -->
<g id="node8" class="node">
<title>Node8</title>
<g id="a_node8"><a xlink:href="d__menu__dmap_8cpp.html" target="_top" xlink:title=" ">
<polygon fill="white" stroke="#666666" points="2254,-19 2104,-19 2104,0 2254,0 2254,-19"/>
<text text-anchor="middle" x="2179" y="-7" font-family="Helvetica,sans-Serif" font-size="10.00">src/d/menu/d_menu_dmap.cpp</text>
</a>
</g>
</g>
<!-- Node7&#45;&gt;Node8 -->
<g id="edge7" class="edge">
<title>Node7&#45;&gt;Node8</title>
<path fill="none" stroke="#63b8ff" d="M2235.18,-48.28C2220.42,-38.35 2203.53,-27 2192.16,-19.35"/>
<polygon fill="#63b8ff" stroke="#63b8ff" points="2232.99,-51.02 2243.24,-53.69 2236.89,-45.21 2232.99,-51.02"/>
</g>
<!-- Node9 -->
<g id="node9" class="node">
<title>Node9</title>
<g id="a_node9"><a xlink:href="d__menu__window_8cpp.html" target="_top" xlink:title=" ">
<polygon fill="white" stroke="#666666" points="2431.5,-19 2272.5,-19 2272.5,0 2431.5,0 2431.5,-19"/>
<text text-anchor="middle" x="2352" y="-7" font-family="Helvetica,sans-Serif" font-size="10.00">src/d/menu/d_menu_window.cpp</text>
</a>
</g>
</g>
<!-- Node7&#45;&gt;Node9 -->
<g id="edge8" class="edge">
<title>Node7&#45;&gt;Node9</title>
<path fill="none" stroke="#63b8ff" d="M2296.46,-48.28C2311.05,-38.35 2327.75,-27 2339,-19.35"/>
<polygon fill="#63b8ff" stroke="#63b8ff" points="2294.81,-45.17 2288.51,-53.69 2298.75,-50.96 2294.81,-45.17"/>
</g>
<!-- Node17&#45;&gt;Node6 -->
<g id="edge17" class="edge">
<title>Node17&#45;&gt;Node6</title>
<path fill="none" stroke="#63b8ff" d="M2362.02,-181.86C2341.04,-172.05 2315.92,-160.32 2296.64,-151.31"/>
<polygon fill="#63b8ff" stroke="#63b8ff" points="2360.34,-184.94 2370.88,-186 2363.3,-178.59 2360.34,-184.94"/>
</g>
<!-- Node18 -->
<g id="node18" class="node">
<title>Node18</title>
<g id="a_node18"><a xlink:href="d__select__icon_8cpp.html" target="_top" xlink:title=" ">
<polygon fill="white" stroke="#666666" points="2450.5,-145.5 2331.5,-145.5 2331.5,-126.5 2450.5,-126.5 2450.5,-145.5"/>
<text text-anchor="middle" x="2391" y="-133.5" font-family="Helvetica,sans-Serif" font-size="10.00">src/d/d_select_icon.cpp</text>
</a>
</g>
</g>
<!-- Node17&#45;&gt;Node18 -->
<g id="edge18" class="edge">
<title>Node17&#45;&gt;Node18</title>
<path fill="none" stroke="#63b8ff" d="M2398.24,-175.59C2396.26,-165.06 2394.1,-153.53 2392.66,-145.84"/>
<polygon fill="#63b8ff" stroke="#63b8ff" points="2394.77,-176.13 2400.06,-185.31 2401.65,-174.83 2394.77,-176.13"/>
</g>
<!-- Node20 -->
<g id="node20" class="node">
<title>Node20</title>
<g id="a_node20"><a xlink:href="d__a__player_8cpp.html" target="_top" xlink:title=" ">
<polygon fill="white" stroke="#666666" points="2639,-145.5 2525,-145.5 2525,-126.5 2639,-126.5 2639,-145.5"/>
<text text-anchor="middle" x="2582" y="-133.5" font-family="Helvetica,sans-Serif" font-size="10.00">src/d/a/d_a_player.cpp</text>
</a>
</g>
</g>
<!-- Node19&#45;&gt;Node20 -->
<g id="edge20" class="edge">
<title>Node19&#45;&gt;Node20</title>
<path fill="none" stroke="#63b8ff" d="M2582,-175.59C2582,-165.06 2582,-153.53 2582,-145.84"/>
<polygon fill="#63b8ff" stroke="#63b8ff" points="2578.5,-175.28 2582,-185.28 2585.5,-175.28 2578.5,-175.28"/>
</g>
</g>
</svg>
        <g id="navigator" transform="translate(0 0)" fill="#404254">
                <rect fill="#f2f5e9" fill-opacity="0.5" stroke="#606060" stroke-width=".5" x="0" y="0" width="60" height="60"/>
                <use id="zoomplus" xlink:href="#zoomPlus" x="17" y="9" onmousedown="handleZoom(evt,'in')"/>
                <use id="zoomminus" xlink:href="#zoomMin" x="42" y="9" onmousedown="handleZoom(evt,'out')"/>
                <use id="reset" xlink:href="#resetDef" x="30" y="36" onmousedown="handleReset()"/>
                <g id="arrowUp" xlink:href="#dirArrow" transform="translate(30 24)" onmousedown="handlePan(0,-1)">
                  <use xlink:href="#rim" fill="#404040">
                        <set attributeName="fill" to="#808080" begin="arrowUp.mouseover" end="arrowUp.mouseout"/>
                  </use>
                  <path fill="none" stroke="white" stroke-width="1.5" d="M0,-3.0v7 M-2.5,-0.5L0,-3.0L2.5,-0.5"/>
                </g>
                <g id="arrowRight" xlink:href="#dirArrow" transform="rotate(90) translate(36 -43)" onmousedown="handlePan(1,0)">
                  <use xlink:href="#rim" fill="#404040">
                        <set attributeName="fill" to="#808080" begin="arrowRight.mouseover" end="arrowRight.mouseout"/>
                  </use>
                  <path fill="none" stroke="white" stroke-width="1.5" d="M0,-3.0v7 M-2.5,-0.5L0,-3.0L2.5,-0.5"/>
                </g>
                <g id="arrowDown" xlink:href="#dirArrow" transform="rotate(180) translate(-30 -48)" onmousedown="handlePan(0,1)">
                  <use xlink:href="#rim" fill="#404040">
                        <set attributeName="fill" to="#808080" begin="arrowDown.mouseover" end="arrowDown.mouseout"/>
                  </use>
                  <path fill="none" stroke="white" stroke-width="1.5" d="M0,-3.0v7 M-2.5,-0.5L0,-3.0L2.5,-0.5"/>
                </g>
                <g id="arrowLeft" xlink:href="#dirArrow" transform="rotate(270) translate(-36 17)" onmousedown="handlePan(-1,0)">
                  <use xlink:href="#rim" fill="#404040">
                        <set attributeName="fill" to="#808080" begin="arrowLeft.mouseover" end="arrowLeft.mouseout"/>
                  </use>
                  <path fill="none" stroke="white" stroke-width="1.5" d="M0,-3.0v7 M-2.5,-0.5L0,-3.0L2.5,-0.5"/>
                </g>
        </g>
        <svg viewBox="0 0 15 15" width="100%" height="30px" preserveAspectRatio="xMaxYMin meet">
         <g id="arrow_out" transform="scale(0.3 0.3)">
          <a xlink:href="J2DManage_8h__dep__incl_org.svg" target="_base">
           <rect id="button" ry="5" rx="5" y="6" x="6" height="38" width="38"
                fill="#f2f5e9" fill-opacity="0.5" stroke="#606060" stroke-width="1.0"/>
           <path id="arrow"
             d="M 11.500037,31.436501 C 11.940474,20.09759 22.043105,11.32322 32.158766,21.979434 L 37.068811,17.246167 C 37.068811,17.246167 37.088388,32 37.088388,32 L 22.160133,31.978069 C 22.160133,31.978069 26.997745,27.140456 26.997745,27.140456 C 18.528582,18.264221 13.291696,25.230495 11.500037,31.436501 z"
             style="fill:#404040;"/>
          </a>
         </g>
        </svg>
</svg>
