<?xml version="1.0" encoding="UTF-8" standalone="no"?>
<!DOCTYPE svg PUBLIC "-//W3C//DTD SVG 1.1//EN"
 "http://www.w3.org/Graphics/SVG/1.1/DTD/svg11.dtd">
<!-- Generated by graphviz version 7.0.5 (20221223.1930)
 -->
<!-- Title: include/JSystem/J2DGraph/J2DScreen.h Pages: 1 -->
<svg width="4125pt" height="357pt"
 viewBox="0.00 0.00 4125.00 357.00" xmlns="http://www.w3.org/2000/svg" xmlns:xlink="http://www.w3.org/1999/xlink">
<g id="graph0" class="graph" transform="scale(1 1) rotate(0) translate(4 353)">
<title>include/JSystem/J2DGraph/J2DScreen.h</title>
<!-- Node1 -->
<g id="node1" class="node">
<title>Node1</title>
<g id="a_node1"><a xlink:title=" ">
<polygon fill="#999999" stroke="#666666" points="2719.5,-349 2584.5,-349 2584.5,-319 2719.5,-319 2719.5,-349"/>
<text text-anchor="start" x="2592.5" y="-337" font-family="Helvetica,sans-Serif" font-size="10.00">include/JSystem/J2DGraph</text>
<text text-anchor="middle" x="2652" y="-326" font-family="Helvetica,sans-Serif" font-size="10.00">/J2DScreen.h</text>
</a>
</g>
</g>
<!-- Node2 -->
<g id="node2" class="node">
<title>Node2</title>
<g id="a_node2"><a xlink:href="d__select__icon_8h.html" target="_top" xlink:title=" ">
<polygon fill="white" stroke="#666666" points="1233.5,-283 1138.5,-283 1138.5,-253 1233.5,-253 1233.5,-283"/>
<text text-anchor="start" x="1146.5" y="-271" font-family="Helvetica,sans-Serif" font-size="10.00">include/d/d_select</text>
<text text-anchor="middle" x="1186" y="-260" font-family="Helvetica,sans-Serif" font-size="10.00">_icon.h</text>
</a>
</g>
</g>
<!-- Node1&#45;&gt;Node2 -->
<g id="edge1" class="edge">
<title>Node1&#45;&gt;Node2</title>
<path fill="none" stroke="#63b8ff" d="M2572.75,-332.37C2314.96,-329.99 1501.92,-319.68 1242,-283 1239.32,-282.62 1236.58,-282.17 1233.83,-281.66"/>
<polygon fill="#63b8ff" stroke="#63b8ff" points="2572.69,-335.87 2582.73,-332.46 2572.76,-328.87 2572.69,-335.87"/>
</g>
<!-- Node22 -->
<g id="node22" class="node">
<title>Node22</title>
<g id="a_node22"><a xlink:href="d__a__boomerang_8h.html" target="_top" xlink:title=" ">
<polygon fill="white" stroke="#666666" points="1400.5,-283 1251.5,-283 1251.5,-253 1400.5,-253 1400.5,-283"/>
<text text-anchor="start" x="1259.5" y="-271" font-family="Helvetica,sans-Serif" font-size="10.00">include/rel/d/a/d_a</text>
<text text-anchor="middle" x="1326" y="-260" font-family="Helvetica,sans-Serif" font-size="10.00">_boomerang/d_a_boomerang.h</text>
</a>
</g>
</g>
<!-- Node1&#45;&gt;Node22 -->
<g id="edge21" class="edge">
<title>Node1&#45;&gt;Node22</title>
<path fill="none" stroke="#63b8ff" d="M2572.75,-333.23C2375.62,-333.08 1847.51,-328.09 1410,-283 1406.91,-282.68 1403.76,-282.32 1400.59,-281.93"/>
<polygon fill="#63b8ff" stroke="#63b8ff" points="2572.62,-336.73 2582.62,-333.24 2572.62,-329.73 2572.62,-336.73"/>
</g>
<!-- Node24 -->
<g id="node24" class="node">
<title>Node24</title>
<g id="a_node24"><a xlink:href="J2DAnimation_8cpp.html" target="_top" xlink:title=" ">
<polygon fill="white" stroke="#666666" points="1537.5,-283 1418.5,-283 1418.5,-253 1537.5,-253 1537.5,-283"/>
<text text-anchor="start" x="1426.5" y="-271" font-family="Helvetica,sans-Serif" font-size="10.00">libs/JSystem/J2DGraph</text>
<text text-anchor="middle" x="1478" y="-260" font-family="Helvetica,sans-Serif" font-size="10.00">/J2DAnimation.cpp</text>
</a>
</g>
</g>
<!-- Node1&#45;&gt;Node24 -->
<g id="edge23" class="edge">
<title>Node1&#45;&gt;Node24</title>
<path fill="none" stroke="#63b8ff" d="M2572.79,-333.61C2390.85,-334.11 1929.28,-330.14 1547,-283 1543.97,-282.63 1540.87,-282.19 1537.75,-281.71"/>
<polygon fill="#63b8ff" stroke="#63b8ff" points="2572.61,-337.11 2582.6,-333.58 2572.59,-330.11 2572.61,-337.11"/>
</g>
<!-- Node25 -->
<g id="node25" class="node">
<title>Node25</title>
<g id="a_node25"><a xlink:href="J2DPane_8cpp.html" target="_top" xlink:title=" ">
<polygon fill="white" stroke="#666666" points="1674.5,-283 1555.5,-283 1555.5,-253 1674.5,-253 1674.5,-283"/>
<text text-anchor="start" x="1563.5" y="-271" font-family="Helvetica,sans-Serif" font-size="10.00">libs/JSystem/J2DGraph</text>
<text text-anchor="middle" x="1615" y="-260" font-family="Helvetica,sans-Serif" font-size="10.00">/J2DPane.cpp</text>
</a>
</g>
</g>
<!-- Node1&#45;&gt;Node25 -->
<g id="edge24" class="edge">
<title>Node1&#45;&gt;Node25</title>
<path fill="none" stroke="#63b8ff" d="M2573.18,-332.89C2407.74,-331.78 2012.44,-324.57 1684,-283 1680.97,-282.62 1677.87,-282.17 1674.75,-281.69"/>
<polygon fill="#63b8ff" stroke="#63b8ff" points="2572.68,-336.38 2582.7,-332.94 2572.72,-329.38 2572.68,-336.38"/>
</g>
<!-- Node26 -->
<g id="node26" class="node">
<title>Node26</title>
<g id="a_node26"><a xlink:href="J2DPicture_8cpp.html" target="_top" xlink:title=" ">
<polygon fill="white" stroke="#666666" points="1811.5,-283 1692.5,-283 1692.5,-253 1811.5,-253 1811.5,-283"/>
<text text-anchor="start" x="1700.5" y="-271" font-family="Helvetica,sans-Serif" font-size="10.00">libs/JSystem/J2DGraph</text>
<text text-anchor="middle" x="1752" y="-260" font-family="Helvetica,sans-Serif" font-size="10.00">/J2DPicture.cpp</text>
</a>
</g>
</g>
<!-- Node1&#45;&gt;Node26 -->
<g id="edge25" class="edge">
<title>Node1&#45;&gt;Node26</title>
<path fill="none" stroke="#63b8ff" d="M2572.9,-331.92C2424.75,-329.09 2095.63,-318.94 1821,-283 1817.97,-282.6 1814.87,-282.15 1811.75,-281.66"/>
<polygon fill="#63b8ff" stroke="#63b8ff" points="2572.53,-335.42 2582.59,-332.1 2572.66,-328.42 2572.53,-335.42"/>
</g>
<!-- Node27 -->
<g id="node27" class="node">
<title>Node27</title>
<g id="a_node27"><a xlink:href="J2DScreen_8cpp.html" target="_top" xlink:title=" ">
<polygon fill="white" stroke="#666666" points="1948.5,-283 1829.5,-283 1829.5,-253 1948.5,-253 1948.5,-283"/>
<text text-anchor="start" x="1837.5" y="-271" font-family="Helvetica,sans-Serif" font-size="10.00">libs/JSystem/J2DGraph</text>
<text text-anchor="middle" x="1889" y="-260" font-family="Helvetica,sans-Serif" font-size="10.00">/J2DScreen.cpp</text>
</a>
</g>
</g>
<!-- Node1&#45;&gt;Node27 -->
<g id="edge26" class="edge">
<title>Node1&#45;&gt;Node27</title>
<path fill="none" stroke="#63b8ff" d="M2572.9,-330.6C2443.7,-325.95 2179.61,-313.34 1958,-283 1954.97,-282.59 1951.88,-282.12 1948.76,-281.61"/>
<polygon fill="#63b8ff" stroke="#63b8ff" points="2572.59,-334.09 2582.71,-330.95 2572.84,-327.1 2572.59,-334.09"/>
</g>
<!-- Node28 -->
<g id="node28" class="node">
<title>Node28</title>
<g id="a_node28"><a xlink:href="d__bright__check_8cpp.html" target="_top" xlink:title=" ">
<polygon fill="white" stroke="#666666" points="2091.5,-277.5 1966.5,-277.5 1966.5,-258.5 2091.5,-258.5 2091.5,-277.5"/>
<text text-anchor="middle" x="2029" y="-265.5" font-family="Helvetica,sans-Serif" font-size="10.00">src/d/d_bright_check.cpp</text>
</a>
</g>
</g>
<!-- Node1&#45;&gt;Node28 -->
<g id="edge27" class="edge">
<title>Node1&#45;&gt;Node28</title>
<path fill="none" stroke="#63b8ff" d="M2572.95,-328.36C2465.69,-321.48 2268.22,-306.78 2101,-283 2091.29,-281.62 2080.91,-279.8 2071.14,-277.94"/>
<polygon fill="#63b8ff" stroke="#63b8ff" points="2572.6,-331.84 2582.8,-328.98 2573.04,-324.86 2572.6,-331.84"/>
</g>
<!-- Node29 -->
<g id="node29" class="node">
<title>Node29</title>
<g id="a_node29"><a xlink:href="d__drawlist_8cpp.html" target="_top" xlink:title=" ">
<polygon fill="white" stroke="#666666" points="2214,-277.5 2110,-277.5 2110,-258.5 2214,-258.5 2214,-277.5"/>
<text text-anchor="middle" x="2162" y="-265.5" font-family="Helvetica,sans-Serif" font-size="10.00">src/d/d_drawlist.cpp</text>
</a>
</g>
</g>
<!-- Node1&#45;&gt;Node29 -->
<g id="edge28" class="edge">
<title>Node1&#45;&gt;Node29</title>
<path fill="none" stroke="#63b8ff" d="M2572.96,-326.29C2486.8,-318.39 2345.03,-303.68 2224,-283 2215.73,-281.59 2206.91,-279.78 2198.59,-277.94"/>
<polygon fill="#63b8ff" stroke="#63b8ff" points="2572.44,-329.76 2582.72,-327.18 2573.08,-322.79 2572.44,-329.76"/>
</g>
<!-- Node30 -->
<g id="node30" class="node">
<title>Node30</title>
<g id="a_node30"><a xlink:href="d__gameover_8cpp.html" target="_top" xlink:title=" ">
<polygon fill="white" stroke="#666666" points="2345.5,-277.5 2232.5,-277.5 2232.5,-258.5 2345.5,-258.5 2345.5,-277.5"/>
<text text-anchor="middle" x="2289" y="-265.5" font-family="Helvetica,sans-Serif" font-size="10.00">src/d/d_gameover.cpp</text>
</a>
</g>
</g>
<!-- Node1&#45;&gt;Node30 -->
<g id="edge29" class="edge">
<title>Node1&#45;&gt;Node30</title>
<path fill="none" stroke="#63b8ff" d="M2572.76,-320.59C2512.83,-310.98 2428.59,-296.99 2355,-283 2346.83,-281.45 2338.12,-279.68 2329.79,-277.93"/>
<polygon fill="#63b8ff" stroke="#63b8ff" points="2572.11,-324.03 2582.53,-322.16 2573.21,-317.12 2572.11,-324.03"/>
</g>
<!-- Node31 -->
<g id="node31" class="node">
<title>Node31</title>
<g id="a_node31"><a xlink:href="d__kantera__icon__meter_8cpp.html" target="_top" xlink:title=" ">
<polygon fill="white" stroke="#666666" points="2470.5,-283 2363.5,-283 2363.5,-253 2470.5,-253 2470.5,-283"/>
<text text-anchor="start" x="2371.5" y="-271" font-family="Helvetica,sans-Serif" font-size="10.00">src/d/d_kantera_icon</text>
<text text-anchor="middle" x="2417" y="-260" font-family="Helvetica,sans-Serif" font-size="10.00">_meter.cpp</text>
</a>
</g>
</g>
<!-- Node1&#45;&gt;Node31 -->
<g id="edge30" class="edge">
<title>Node1&#45;&gt;Node31</title>
<path fill="none" stroke="#63b8ff" d="M2588.26,-315.64C2551.15,-305.53 2504.91,-292.94 2469.84,-283.39"/>
<polygon fill="#63b8ff" stroke="#63b8ff" points="2586.94,-318.91 2597.51,-318.16 2588.78,-312.15 2586.94,-318.91"/>
</g>
<!-- Node32 -->
<g id="node32" class="node">
<title>Node32</title>
<g id="a_node32"><a xlink:href="d__scope_8cpp.html" target="_top" xlink:title=" ">
<polygon fill="white" stroke="#666666" points="2585,-277.5 2489,-277.5 2489,-258.5 2585,-258.5 2585,-277.5"/>
<text text-anchor="middle" x="2537" y="-265.5" font-family="Helvetica,sans-Serif" font-size="10.00">src/d/d_scope.cpp</text>
</a>
</g>
</g>
<!-- Node1&#45;&gt;Node32 -->
<g id="edge31" class="edge">
<title>Node1&#45;&gt;Node32</title>
<path fill="none" stroke="#63b8ff" d="M2616.26,-313.11C2595.14,-301.36 2569.44,-287.05 2553.15,-277.99"/>
<polygon fill="#63b8ff" stroke="#63b8ff" points="2614.43,-316.1 2624.87,-317.9 2617.83,-309.98 2614.43,-316.1"/>
</g>
<!-- Node33 -->
<g id="node33" class="node">
<title>Node33</title>
<g id="a_node33"><a xlink:href="d__file__sel__info_8cpp.html" target="_top" xlink:title=" ">
<polygon fill="white" stroke="#666666" points="2700.5,-283 2603.5,-283 2603.5,-253 2700.5,-253 2700.5,-283"/>
<text text-anchor="start" x="2611.5" y="-271" font-family="Helvetica,sans-Serif" font-size="10.00">src/d/file/d_file_sel</text>
<text text-anchor="middle" x="2652" y="-260" font-family="Helvetica,sans-Serif" font-size="10.00">_info.cpp</text>
</a>
</g>
</g>
<!-- Node1&#45;&gt;Node33 -->
<g id="edge32" class="edge">
<title>Node1&#45;&gt;Node33</title>
<path fill="none" stroke="#63b8ff" d="M2652,-307.39C2652,-299.13 2652,-290.28 2652,-283.16"/>
<polygon fill="#63b8ff" stroke="#63b8ff" points="2648.5,-307.28 2652,-317.28 2655.5,-307.28 2648.5,-307.28"/>
</g>
<!-- Node34 -->
<g id="node34" class="node">
<title>Node34</title>
<g id="a_node34"><a xlink:href="d__file__sel__warning_8cpp.html" target="_top" xlink:title=" ">
<polygon fill="white" stroke="#666666" points="2815.5,-283 2718.5,-283 2718.5,-253 2815.5,-253 2815.5,-283"/>
<text text-anchor="start" x="2726.5" y="-271" font-family="Helvetica,sans-Serif" font-size="10.00">src/d/file/d_file_sel</text>
<text text-anchor="middle" x="2767" y="-260" font-family="Helvetica,sans-Serif" font-size="10.00">_warning.cpp</text>
</a>
</g>
</g>
<!-- Node1&#45;&gt;Node34 -->
<g id="edge33" class="edge">
<title>Node1&#45;&gt;Node34</title>
<path fill="none" stroke="#63b8ff" d="M2687.61,-313.18C2704.97,-303.52 2725.46,-292.12 2741.28,-283.31"/>
<polygon fill="#63b8ff" stroke="#63b8ff" points="2686.17,-309.98 2679.13,-317.9 2689.57,-316.1 2686.17,-309.98"/>
</g>
<!-- Node35 -->
<g id="node35" class="node">
<title>Node35</title>
<g id="a_node35"><a xlink:href="d__meter2__draw_8cpp.html" target="_top" xlink:title=" ">
<polygon fill="white" stroke="#666666" points="2944,-283 2834,-283 2834,-253 2944,-253 2944,-283"/>
<text text-anchor="start" x="2842" y="-271" font-family="Helvetica,sans-Serif" font-size="10.00">src/d/meter/d_meter2</text>
<text text-anchor="middle" x="2889" y="-260" font-family="Helvetica,sans-Serif" font-size="10.00">_draw.cpp</text>
</a>
</g>
</g>
<!-- Node1&#45;&gt;Node35 -->
<g id="edge34" class="edge">
<title>Node1&#45;&gt;Node35</title>
<path fill="none" stroke="#63b8ff" d="M2716.28,-315.64C2753.71,-305.53 2800.34,-292.94 2835.71,-283.39"/>
<polygon fill="#63b8ff" stroke="#63b8ff" points="2715.69,-312.18 2706.94,-318.16 2717.51,-318.93 2715.69,-312.18"/>
</g>
<!-- Node36 -->
<g id="node36" class="node">
<title>Node36</title>
<g id="a_node36"><a xlink:href="d__pane__class_8cpp.html" target="_top" xlink:title=" ">
<polygon fill="white" stroke="#666666" points="3105.5,-277.5 2962.5,-277.5 2962.5,-258.5 3105.5,-258.5 3105.5,-277.5"/>
<text text-anchor="middle" x="3034" y="-265.5" font-family="Helvetica,sans-Serif" font-size="10.00">src/d/pane/d_pane_class.cpp</text>
</a>
</g>
</g>
<!-- Node1&#45;&gt;Node36 -->
<g id="edge35" class="edge">
<title>Node1&#45;&gt;Node36</title>
<path fill="none" stroke="#63b8ff" d="M2730.9,-320.04C2791.63,-310.03 2877.65,-295.77 2953,-283 2962.57,-281.38 2972.77,-279.63 2982.59,-277.94"/>
<polygon fill="#63b8ff" stroke="#63b8ff" points="2730.65,-316.53 2721.36,-321.61 2731.79,-323.44 2730.65,-316.53"/>
</g>
<!-- Node37 -->
<g id="node37" class="node">
<title>Node37</title>
<g id="a_node37"><a xlink:href="d__pane__class__alpha_8cpp.html" target="_top" xlink:title=" ">
<polygon fill="white" stroke="#666666" points="3248.5,-283 3123.5,-283 3123.5,-253 3248.5,-253 3248.5,-283"/>
<text text-anchor="start" x="3131.5" y="-271" font-family="Helvetica,sans-Serif" font-size="10.00">src/d/pane/d_pane_class</text>
<text text-anchor="middle" x="3186" y="-260" font-family="Helvetica,sans-Serif" font-size="10.00">_alpha.cpp</text>
</a>
</g>
</g>
<!-- Node1&#45;&gt;Node37 -->
<g id="edge36" class="edge">
<title>Node1&#45;&gt;Node37</title>
<path fill="none" stroke="#63b8ff" d="M2730.93,-326.59C2823.3,-318.59 2980.73,-303.45 3115,-283 3117.73,-282.58 3120.52,-282.14 3123.33,-281.66"/>
<polygon fill="#63b8ff" stroke="#63b8ff" points="2730.89,-323.08 2721.22,-327.42 2731.49,-330.05 2730.89,-323.08"/>
</g>
<!-- Node38 -->
<g id="node38" class="node">
<title>Node38</title>
<g id="a_node38"><a xlink:href="d__msg__scrn__arrow_8cpp.html" target="_top" xlink:title=" ">
<polygon fill="white" stroke="#666666" points="3373,-283 3267,-283 3267,-253 3373,-253 3373,-283"/>
<text text-anchor="start" x="3275" y="-271" font-family="Helvetica,sans-Serif" font-size="10.00">src/msg/scrn/d_msg</text>
<text text-anchor="middle" x="3320" y="-260" font-family="Helvetica,sans-Serif" font-size="10.00">_scrn_arrow.cpp</text>
</a>
</g>
</g>
<!-- Node1&#45;&gt;Node38 -->
<g id="edge37" class="edge">
<title>Node1&#45;&gt;Node38</title>
<path fill="none" stroke="#63b8ff" d="M2730.84,-330.01C2846.87,-324.83 3070.17,-311.81 3258,-283 3260.84,-282.57 3263.74,-282.07 3266.66,-281.54"/>
<polygon fill="#63b8ff" stroke="#63b8ff" points="2730.97,-326.51 2721.13,-330.44 2731.27,-333.5 2730.97,-326.51"/>
</g>
<!-- Node39 -->
<g id="node39" class="node">
<title>Node39</title>
<g id="a_node39"><a xlink:href="d__msg__scrn__base_8cpp.html" target="_top" xlink:title=" ">
<polygon fill="white" stroke="#666666" points="3497,-283 3391,-283 3391,-253 3497,-253 3497,-283"/>
<text text-anchor="start" x="3399" y="-271" font-family="Helvetica,sans-Serif" font-size="10.00">src/msg/scrn/d_msg</text>
<text text-anchor="middle" x="3444" y="-260" font-family="Helvetica,sans-Serif" font-size="10.00">_scrn_base.cpp</text>
</a>
</g>
</g>
<!-- Node1&#45;&gt;Node39 -->
<g id="edge38" class="edge">
<title>Node1&#45;&gt;Node39</title>
<path fill="none" stroke="#63b8ff" d="M2731.18,-331.56C2865.63,-328.22 3146.89,-317.39 3382,-283 3384.84,-282.58 3387.74,-282.11 3390.66,-281.59"/>
<polygon fill="#63b8ff" stroke="#63b8ff" points="2731.23,-328.05 2721.31,-331.79 2731.39,-335.05 2731.23,-328.05"/>
</g>
<!-- Node40 -->
<g id="node40" class="node">
<title>Node40</title>
<g id="a_node40"><a xlink:href="d__msg__scrn__boss_8cpp.html" target="_top" xlink:title=" ">
<polygon fill="white" stroke="#666666" points="3621,-283 3515,-283 3515,-253 3621,-253 3621,-283"/>
<text text-anchor="start" x="3523" y="-271" font-family="Helvetica,sans-Serif" font-size="10.00">src/msg/scrn/d_msg</text>
<text text-anchor="middle" x="3568" y="-260" font-family="Helvetica,sans-Serif" font-size="10.00">_scrn_boss.cpp</text>
</a>
</g>
</g>
<!-- Node1&#45;&gt;Node40 -->
<g id="edge39" class="edge">
<title>Node1&#45;&gt;Node40</title>
<path fill="none" stroke="#63b8ff" d="M2731.35,-332.68C2882.73,-331.1 3222.93,-322.97 3506,-283 3508.84,-282.6 3511.74,-282.13 3514.67,-281.62"/>
<polygon fill="#63b8ff" stroke="#63b8ff" points="2731.38,-329.17 2721.42,-332.77 2731.45,-336.17 2731.38,-329.17"/>
</g>
<!-- Node41 -->
<g id="node41" class="node">
<title>Node41</title>
<g id="a_node41"><a xlink:href="d__msg__scrn__explain_8cpp.html" target="_top" xlink:title=" ">
<polygon fill="white" stroke="#666666" points="3745,-283 3639,-283 3639,-253 3745,-253 3745,-283"/>
<text text-anchor="start" x="3647" y="-271" font-family="Helvetica,sans-Serif" font-size="10.00">src/msg/scrn/d_msg</text>
<text text-anchor="middle" x="3692" y="-260" font-family="Helvetica,sans-Serif" font-size="10.00">_scrn_explain.cpp</text>
</a>
</g>
</g>
<!-- Node1&#45;&gt;Node41 -->
<g id="edge40" class="edge">
<title>Node1&#45;&gt;Node41</title>
<path fill="none" stroke="#63b8ff" d="M2731.09,-333.52C2898.01,-333.63 3298.24,-328.6 3630,-283 3632.84,-282.61 3635.75,-282.15 3638.67,-281.65"/>
<polygon fill="#63b8ff" stroke="#63b8ff" points="2731.48,-330.02 2721.47,-333.51 2731.47,-337.02 2731.48,-330.02"/>
</g>
<!-- Node42 -->
<g id="node42" class="node">
<title>Node42</title>
<g id="a_node42"><a xlink:href="d__msg__scrn__place_8cpp.html" target="_top" xlink:title=" ">
<polygon fill="white" stroke="#666666" points="3869,-283 3763,-283 3763,-253 3869,-253 3869,-283"/>
<text text-anchor="start" x="3771" y="-271" font-family="Helvetica,sans-Serif" font-size="10.00">src/msg/scrn/d_msg</text>
<text text-anchor="middle" x="3816" y="-260" font-family="Helvetica,sans-Serif" font-size="10.00">_scrn_place.cpp</text>
</a>
</g>
</g>
<!-- Node1&#45;&gt;Node42 -->
<g id="edge41" class="edge">
<title>Node1&#45;&gt;Node42</title>
<path fill="none" stroke="#63b8ff" d="M2731.24,-331.23C2949.47,-326.05 3556.11,-309.62 3754,-283 3756.84,-282.62 3759.75,-282.17 3762.67,-281.67"/>
<polygon fill="#63b8ff" stroke="#63b8ff" points="2731.33,-327.72 2721.42,-331.46 2731.5,-334.72 2731.33,-327.72"/>
</g>
<!-- Node43 -->
<g id="node43" class="node">
<title>Node43</title>
<g id="a_node43"><a xlink:href="d__msg__scrn__staff_8cpp.html" target="_top" xlink:title=" ">
<polygon fill="white" stroke="#666666" points="3993,-283 3887,-283 3887,-253 3993,-253 3993,-283"/>
<text text-anchor="start" x="3895" y="-271" font-family="Helvetica,sans-Serif" font-size="10.00">src/msg/scrn/d_msg</text>
<text text-anchor="middle" x="3940" y="-260" font-family="Helvetica,sans-Serif" font-size="10.00">_scrn_staff.cpp</text>
</a>
</g>
</g>
<!-- Node1&#45;&gt;Node43 -->
<g id="edge42" class="edge">
<title>Node1&#45;&gt;Node43</title>
<path fill="none" stroke="#63b8ff" d="M2731.47,-331.64C2966.4,-327.33 3655.13,-312.46 3878,-283 3880.84,-282.62 3883.75,-282.18 3886.68,-281.69"/>
<polygon fill="#63b8ff" stroke="#63b8ff" points="2731.41,-328.14 2721.48,-331.82 2731.54,-335.14 2731.41,-328.14"/>
</g>
<!-- Node44 -->
<g id="node44" class="node">
<title>Node44</title>
<g id="a_node44"><a xlink:href="d__msg__scrn__tree_8cpp.html" target="_top" xlink:title=" ">
<polygon fill="white" stroke="#666666" points="4117,-283 4011,-283 4011,-253 4117,-253 4117,-283"/>
<text text-anchor="start" x="4019" y="-271" font-family="Helvetica,sans-Serif" font-size="10.00">src/msg/scrn/d_msg</text>
<text text-anchor="middle" x="4064" y="-260" font-family="Helvetica,sans-Serif" font-size="10.00">_scrn_tree.cpp</text>
</a>
</g>
</g>
<!-- Node1&#45;&gt;Node44 -->
<g id="edge43" class="edge">
<title>Node1&#45;&gt;Node44</title>
<path fill="none" stroke="#63b8ff" d="M2730.85,-332C2980.83,-328.51 3753.77,-315.34 4002,-283 4004.85,-282.63 4007.75,-282.19 4010.68,-281.7"/>
<polygon fill="#63b8ff" stroke="#63b8ff" points="2731.16,-328.49 2721.21,-332.13 2731.26,-335.49 2731.16,-328.49"/>
</g>
<!-- Node3 -->
<g id="node3" class="node">
<title>Node3</title>
<g id="a_node3"><a xlink:href="d__select__cursor_8h.html" target="_top" xlink:title=" ">
<polygon fill="white" stroke="#666666" points="1111.5,-217 1016.5,-217 1016.5,-187 1111.5,-187 1111.5,-217"/>
<text text-anchor="start" x="1024.5" y="-205" font-family="Helvetica,sans-Serif" font-size="10.00">include/d/d_select</text>
<text text-anchor="middle" x="1064" y="-194" font-family="Helvetica,sans-Serif" font-size="10.00">_cursor.h</text>
</a>
</g>
</g>
<!-- Node2&#45;&gt;Node3 -->
<g id="edge2" class="edge">
<title>Node2&#45;&gt;Node3</title>
<path fill="none" stroke="#63b8ff" d="M1148.48,-247.32C1130.01,-237.63 1108.14,-226.16 1091.29,-217.31"/>
<polygon fill="#63b8ff" stroke="#63b8ff" points="1146.8,-250.39 1157.28,-251.93 1150.05,-244.19 1146.8,-250.39"/>
</g>
<!-- Node21 -->
<g id="node21" class="node">
<title>Node21</title>
<g id="a_node21"><a xlink:href="d__select__icon_8cpp.html" target="_top" xlink:title=" ">
<polygon fill="white" stroke="#666666" points="1248.5,-211.5 1129.5,-211.5 1129.5,-192.5 1248.5,-192.5 1248.5,-211.5"/>
<text text-anchor="middle" x="1189" y="-199.5" font-family="Helvetica,sans-Serif" font-size="10.00">src/d/d_select_icon.cpp</text>
</a>
</g>
</g>
<!-- Node2&#45;&gt;Node21 -->
<g id="edge20" class="edge">
<title>Node2&#45;&gt;Node21</title>
<path fill="none" stroke="#63b8ff" d="M1187.19,-241.59C1187.68,-231.06 1188.23,-219.53 1188.59,-211.84"/>
<polygon fill="#63b8ff" stroke="#63b8ff" points="1183.71,-241.13 1186.74,-251.28 1190.7,-241.46 1183.71,-241.13"/>
</g>
<!-- Node4 -->
<g id="node4" class="node">
<title>Node4</title>
<g id="a_node4"><a xlink:href="d__name_8h.html" target="_top" xlink:title=" ">
<polygon fill="white" stroke="#666666" points="227.5,-145.5 126.5,-145.5 126.5,-126.5 227.5,-126.5 227.5,-145.5"/>
<text text-anchor="middle" x="177" y="-133.5" font-family="Helvetica,sans-Serif" font-size="10.00">include/d/d_name.h</text>
</a>
</g>
</g>
<!-- Node3&#45;&gt;Node4 -->
<g id="edge3" class="edge">
<title>Node3&#45;&gt;Node4</title>
<path fill="none" stroke="#63b8ff" d="M1004.95,-197.39C880.59,-189.68 582.63,-170.74 333,-151 297.9,-148.22 258.39,-144.67 227.91,-141.84"/>
<polygon fill="#63b8ff" stroke="#63b8ff" points="1004.37,-200.86 1014.57,-197.98 1004.8,-193.87 1004.37,-200.86"/>
</g>
<!-- Node8 -->
<g id="node8" class="node">
<title>Node8</title>
<g id="a_node8"><a xlink:href="d__menu__dmap_8h.html" target="_top" xlink:title=" ">
<polygon fill="white" stroke="#666666" points="462,-151 342,-151 342,-121 462,-121 462,-151"/>
<text text-anchor="start" x="350" y="-139" font-family="Helvetica,sans-Serif" font-size="10.00">include/d/menu/d_menu</text>
<text text-anchor="middle" x="402" y="-128" font-family="Helvetica,sans-Serif" font-size="10.00">_dmap.h</text>
</a>
</g>
</g>
<!-- Node3&#45;&gt;Node8 -->
<g id="edge7" class="edge">
<title>Node3&#45;&gt;Node8</title>
<path fill="none" stroke="#63b8ff" d="M1004.95,-198.3C898.03,-192.89 665.4,-178.82 471,-151 468.1,-150.58 465.13,-150.12 462.14,-149.63"/>
<polygon fill="#63b8ff" stroke="#63b8ff" points="1004.46,-201.77 1014.62,-198.78 1004.81,-194.78 1004.46,-201.77"/>
</g>
<!-- Node12 -->
<g id="node12" class="node">
<title>Node12</title>
<g id="a_node12"><a xlink:href="d__select__cursor_8cpp.html" target="_top" xlink:title=" ">
<polygon fill="white" stroke="#666666" points="608,-145.5 480,-145.5 480,-126.5 608,-126.5 608,-145.5"/>
<text text-anchor="middle" x="544" y="-133.5" font-family="Helvetica,sans-Serif" font-size="10.00">src/d/d_select_cursor.cpp</text>
</a>
</g>
</g>
<!-- Node3&#45;&gt;Node12 -->
<g id="edge11" class="edge">
<title>Node3&#45;&gt;Node12</title>
<path fill="none" stroke="#63b8ff" d="M1004.89,-195.87C919.15,-188.09 755.4,-171.98 617,-151 607.56,-149.57 597.48,-147.8 587.91,-146"/>
<polygon fill="#63b8ff" stroke="#63b8ff" points="1004.43,-199.34 1014.7,-196.75 1005.06,-192.37 1004.43,-199.34"/>
</g>
<!-- Node13 -->
<g id="node13" class="node">
<title>Node13</title>
<g id="a_node13"><a xlink:href="d__menu__calibration_8cpp.html" target="_top" xlink:title=" ">
<polygon fill="white" stroke="#666666" points="796,-145.5 626,-145.5 626,-126.5 796,-126.5 796,-145.5"/>
<text text-anchor="middle" x="711" y="-133.5" font-family="Helvetica,sans-Serif" font-size="10.00">src/d/menu/d_menu_calibration.cpp</text>
</a>
</g>
</g>
<!-- Node3&#45;&gt;Node13 -->
<g id="edge12" class="edge">
<title>Node3&#45;&gt;Node13</title>
<path fill="none" stroke="#63b8ff" d="M1005,-190.3C936.52,-177.89 824.77,-157.63 760.58,-145.99"/>
<polygon fill="#63b8ff" stroke="#63b8ff" points="1004.07,-193.69 1014.54,-192.03 1005.32,-186.8 1004.07,-193.69"/>
</g>
<!-- Node14 -->
<g id="node14" class="node">
<title>Node14</title>
<g id="a_node14"><a xlink:href="d__menu__collect_8cpp.html" target="_top" xlink:title=" ">
<polygon fill="white" stroke="#666666" points="969.5,-145.5 814.5,-145.5 814.5,-126.5 969.5,-126.5 969.5,-145.5"/>
<text text-anchor="middle" x="892" y="-133.5" font-family="Helvetica,sans-Serif" font-size="10.00">src/d/menu/d_menu_collect.cpp</text>
</a>
</g>
</g>
<!-- Node3&#45;&gt;Node14 -->
<g id="edge13" class="edge">
<title>Node3&#45;&gt;Node14</title>
<path fill="none" stroke="#63b8ff" d="M1014.8,-182.69C982.49,-170.67 941.63,-155.47 916.15,-145.99"/>
<polygon fill="#63b8ff" stroke="#63b8ff" points="1013.39,-185.9 1023.98,-186.11 1015.83,-179.34 1013.39,-185.9"/>
</g>
<!-- Node15 -->
<g id="node15" class="node">
<title>Node15</title>
<g id="a_node15"><a xlink:href="d__menu__insect_8cpp.html" target="_top" xlink:title=" ">
<polygon fill="white" stroke="#666666" points="1140,-145.5 988,-145.5 988,-126.5 1140,-126.5 1140,-145.5"/>
<text text-anchor="middle" x="1064" y="-133.5" font-family="Helvetica,sans-Serif" font-size="10.00">src/d/menu/d_menu_insect.cpp</text>
</a>
</g>
</g>
<!-- Node3&#45;&gt;Node15 -->
<g id="edge14" class="edge">
<title>Node3&#45;&gt;Node15</title>
<path fill="none" stroke="#63b8ff" d="M1064,-175.59C1064,-165.06 1064,-153.53 1064,-145.84"/>
<polygon fill="#63b8ff" stroke="#63b8ff" points="1060.5,-175.28 1064,-185.28 1067.5,-175.28 1060.5,-175.28"/>
</g>
<!-- Node16 -->
<g id="node16" class="node">
<title>Node16</title>
<g id="a_node16"><a xlink:href="d__menu__map__common_8cpp.html" target="_top" xlink:title=" ">
<polygon fill="white" stroke="#666666" points="1285.5,-151 1158.5,-151 1158.5,-121 1285.5,-121 1285.5,-151"/>
<text text-anchor="start" x="1166.5" y="-139" font-family="Helvetica,sans-Serif" font-size="10.00">src/d/menu/d_menu_map</text>
<text text-anchor="middle" x="1222" y="-128" font-family="Helvetica,sans-Serif" font-size="10.00">_common.cpp</text>
</a>
</g>
</g>
<!-- Node3&#45;&gt;Node16 -->
<g id="edge15" class="edge">
<title>Node3&#45;&gt;Node16</title>
<path fill="none" stroke="#63b8ff" d="M1109.9,-182.41C1134.27,-172.54 1163.77,-160.59 1186.39,-151.43"/>
<polygon fill="#63b8ff" stroke="#63b8ff" points="1108.82,-179.07 1100.86,-186.07 1111.44,-185.56 1108.82,-179.07"/>
</g>
<!-- Node17 -->
<g id="node17" class="node">
<title>Node17</title>
<g id="a_node17"><a xlink:href="d__menu__option_8cpp.html" target="_top" xlink:title=" ">
<polygon fill="white" stroke="#666666" points="1456,-145.5 1304,-145.5 1304,-126.5 1456,-126.5 1456,-145.5"/>
<text text-anchor="middle" x="1380" y="-133.5" font-family="Helvetica,sans-Serif" font-size="10.00">src/d/menu/d_menu_option.cpp</text>
</a>
</g>
</g>
<!-- Node3&#45;&gt;Node17 -->
<g id="edge16" class="edge">
<title>Node3&#45;&gt;Node17</title>
<path fill="none" stroke="#63b8ff" d="M1122.77,-186.45C1199.76,-169.64 1278.83,-154.95 1329.01,-145.95"/>
<polygon fill="#63b8ff" stroke="#63b8ff" points="1122.41,-182.94 1113.4,-188.51 1123.92,-189.78 1122.41,-182.94"/>
</g>
<!-- Node18 -->
<g id="node18" class="node">
<title>Node18</title>
<g id="a_node18"><a xlink:href="d__menu__save_8cpp.html" target="_top" xlink:title=" ">
<polygon fill="white" stroke="#666666" points="1621.5,-145.5 1474.5,-145.5 1474.5,-126.5 1621.5,-126.5 1621.5,-145.5"/>
<text text-anchor="middle" x="1548" y="-133.5" font-family="Helvetica,sans-Serif" font-size="10.00">src/d/menu/d_menu_save.cpp</text>
</a>
</g>
</g>
<!-- Node3&#45;&gt;Node18 -->
<g id="edge17" class="edge">
<title>Node3&#45;&gt;Node18</title>
<path fill="none" stroke="#63b8ff" d="M1122.92,-186.64C1273.78,-160.76 1315.83,-171.34 1465,-151 1475.71,-149.54 1487.17,-147.75 1498.04,-145.95"/>
<polygon fill="#63b8ff" stroke="#63b8ff" points="1122.61,-183.14 1113.36,-188.3 1123.81,-190.03 1122.61,-183.14"/>
</g>
<!-- Node19 -->
<g id="node19" class="node">
<title>Node19</title>
<g id="a_node19"><a xlink:href="d__menu__skill_8cpp.html" target="_top" xlink:title=" ">
<polygon fill="white" stroke="#666666" points="1782.5,-145.5 1639.5,-145.5 1639.5,-126.5 1782.5,-126.5 1782.5,-145.5"/>
<text text-anchor="middle" x="1711" y="-133.5" font-family="Helvetica,sans-Serif" font-size="10.00">src/d/menu/d_menu_skill.cpp</text>
</a>
</g>
</g>
<!-- Node3&#45;&gt;Node19 -->
<g id="edge18" class="edge">
<title>Node3&#45;&gt;Node19</title>
<path fill="none" stroke="#63b8ff" d="M1122.98,-186.71C1346.83,-152.12 1408.65,-178.21 1631,-151 1641.92,-149.66 1653.61,-147.84 1664.59,-145.96"/>
<polygon fill="#63b8ff" stroke="#63b8ff" points="1122.68,-183.21 1113.34,-188.22 1123.77,-190.12 1122.68,-183.21"/>
</g>
<!-- Node20 -->
<g id="node20" class="node">
<title>Node20</title>
<g id="a_node20"><a xlink:href="d__shop__system_8cpp.html" target="_top" xlink:title=" ">
<polygon fill="white" stroke="#666666" points="1953,-145.5 1801,-145.5 1801,-126.5 1953,-126.5 1953,-145.5"/>
<text text-anchor="middle" x="1877" y="-133.5" font-family="Helvetica,sans-Serif" font-size="10.00">src/d/shop/d_shop_system.cpp</text>
</a>
</g>
</g>
<!-- Node3&#45;&gt;Node20 -->
<g id="edge19" class="edge">
<title>Node3&#45;&gt;Node20</title>
<path fill="none" stroke="#63b8ff" d="M1122.87,-186.76C1417.73,-143.51 1498.29,-182.96 1792,-151 1803.75,-149.72 1816.34,-147.9 1828.13,-145.99"/>
<polygon fill="#63b8ff" stroke="#63b8ff" points="1122.71,-183.24 1113.34,-188.18 1123.74,-190.17 1122.71,-183.24"/>
</g>
<!-- Node5 -->
<g id="node5" class="node">
<title>Node5</title>
<g id="a_node5"><a xlink:href="d__file__select_8h.html" target="_top" xlink:title=" ">
<polygon fill="white" stroke="#666666" points="112,-85 16,-85 16,-55 112,-55 112,-85"/>
<text text-anchor="start" x="24" y="-73" font-family="Helvetica,sans-Serif" font-size="10.00">include/d/file/d_file</text>
<text text-anchor="middle" x="64" y="-62" font-family="Helvetica,sans-Serif" font-size="10.00">_select.h</text>
</a>
</g>
</g>
<!-- Node4&#45;&gt;Node5 -->
<g id="edge4" class="edge">
<title>Node4&#45;&gt;Node5</title>
<path fill="none" stroke="#63b8ff" d="M151.49,-120.55C132.99,-110.08 108.07,-95.96 89.56,-85.48"/>
<polygon fill="#63b8ff" stroke="#63b8ff" points="149.54,-123.47 159.97,-125.36 152.99,-117.38 149.54,-123.47"/>
</g>
<!-- Node7 -->
<g id="node7" class="node">
<title>Node7</title>
<g id="a_node7"><a xlink:href="d__name_8cpp.html" target="_top" xlink:title=" ">
<polygon fill="white" stroke="#666666" points="224,-79.5 130,-79.5 130,-60.5 224,-60.5 224,-79.5"/>
<text text-anchor="middle" x="177" y="-67.5" font-family="Helvetica,sans-Serif" font-size="10.00">src/d/d_name.cpp</text>
</a>
</g>
</g>
<!-- Node4&#45;&gt;Node7 -->
<g id="edge6" class="edge">
<title>Node4&#45;&gt;Node7</title>
<path fill="none" stroke="#63b8ff" d="M177,-114.68C177,-102.94 177,-88.77 177,-79.82"/>
<polygon fill="#63b8ff" stroke="#63b8ff" points="173.5,-114.59 177,-124.59 180.5,-114.59 173.5,-114.59"/>
</g>
<!-- Node6 -->
<g id="node6" class="node">
<title>Node6</title>
<g id="a_node6"><a xlink:href="d__file__select_8cpp.html" target="_top" xlink:title=" ">
<polygon fill="white" stroke="#666666" points="128,-19 0,-19 0,0 128,0 128,-19"/>
<text text-anchor="middle" x="64" y="-7" font-family="Helvetica,sans-Serif" font-size="10.00">src/d/file/d_file_select.cpp</text>
</a>
</g>
</g>
<!-- Node5&#45;&gt;Node6 -->
<g id="edge5" class="edge">
<title>Node5&#45;&gt;Node6</title>
<path fill="none" stroke="#63b8ff" d="M64,-43.3C64,-34.65 64,-25.58 64,-19.18"/>
<polygon fill="#63b8ff" stroke="#63b8ff" points="60.5,-43.03 64,-53.03 67.5,-43.03 60.5,-43.03"/>
</g>
<!-- Node9 -->
<g id="node9" class="node">
<title>Node9</title>
<g id="a_node9"><a xlink:href="d__menu__dmap_8cpp.html" target="_top" xlink:title=" ">
<polygon fill="white" stroke="#666666" points="392,-79.5 242,-79.5 242,-60.5 392,-60.5 392,-79.5"/>
<text text-anchor="middle" x="317" y="-67.5" font-family="Helvetica,sans-Serif" font-size="10.00">src/d/menu/d_menu_dmap.cpp</text>
</a>
</g>
</g>
<!-- Node8&#45;&gt;Node9 -->
<g id="edge8" class="edge">
<title>Node8&#45;&gt;Node9</title>
<path fill="none" stroke="#63b8ff" d="M374.02,-113.93C358.64,-102.35 340.38,-88.61 328.75,-79.84"/>
<polygon fill="#63b8ff" stroke="#63b8ff" points="371.83,-116.67 381.93,-119.89 376.04,-111.07 371.83,-116.67"/>
</g>
<!-- Node10 -->
<g id="node10" class="node">
<title>Node10</title>
<g id="a_node10"><a xlink:href="d__menu__fishing_8cpp.html" target="_top" xlink:title=" ">
<polygon fill="white" stroke="#666666" points="564,-79.5 410,-79.5 410,-60.5 564,-60.5 564,-79.5"/>
<text text-anchor="middle" x="487" y="-67.5" font-family="Helvetica,sans-Serif" font-size="10.00">src/d/menu/d_menu_fishing.cpp</text>
</a>
</g>
</g>
<!-- Node8&#45;&gt;Node10 -->
<g id="edge9" class="edge">
<title>Node8&#45;&gt;Node10</title>
<path fill="none" stroke="#63b8ff" d="M429.98,-113.93C445.36,-102.35 463.62,-88.61 475.25,-79.84"/>
<polygon fill="#63b8ff" stroke="#63b8ff" points="427.96,-111.07 422.07,-119.89 432.17,-116.67 427.96,-111.07"/>
</g>
<!-- Node11 -->
<g id="node11" class="node">
<title>Node11</title>
<g id="a_node11"><a xlink:href="d__menu__window_8cpp.html" target="_top" xlink:title=" ">
<polygon fill="white" stroke="#666666" points="741.5,-79.5 582.5,-79.5 582.5,-60.5 741.5,-60.5 741.5,-79.5"/>
<text text-anchor="middle" x="662" y="-67.5" font-family="Helvetica,sans-Serif" font-size="10.00">src/d/menu/d_menu_window.cpp</text>
</a>
</g>
</g>
<!-- Node8&#45;&gt;Node11 -->
<g id="edge10" class="edge">
<title>Node8&#45;&gt;Node11</title>
<path fill="none" stroke="#63b8ff" d="M471.64,-117.86C521.21,-105.66 585.83,-89.75 625.59,-79.96"/>
<polygon fill="#63b8ff" stroke="#63b8ff" points="471.02,-114.41 462.14,-120.2 472.69,-121.2 471.02,-114.41"/>
</g>
<!-- Node23 -->
<g id="node23" class="node">
<title>Node23</title>
<g id="a_node23"><a xlink:href="d__a__player_8cpp.html" target="_top" xlink:title=" ">
<polygon fill="white" stroke="#666666" points="1383,-211.5 1269,-211.5 1269,-192.5 1383,-192.5 1383,-211.5"/>
<text text-anchor="middle" x="1326" y="-199.5" font-family="Helvetica,sans-Serif" font-size="10.00">src/d/a/d_a_player.cpp</text>
</a>
</g>
</g>
<!-- Node22&#45;&gt;Node23 -->
<g id="edge22" class="edge">
<title>Node22&#45;&gt;Node23</title>
<path fill="none" stroke="#63b8ff" d="M1326,-241.59C1326,-231.06 1326,-219.53 1326,-211.84"/>
<polygon fill="#63b8ff" stroke="#63b8ff" points="1322.5,-241.28 1326,-251.28 1329.5,-241.28 1322.5,-241.28"/>
</g>
</g>
</svg>
