<?xml version="1.0" encoding="UTF-8" standalone="no"?>
<!DOCTYPE svg PUBLIC "-//W3C//DTD SVG 1.1//EN"
 "http://www.w3.org/Graphics/SVG/1.1/DTD/svg11.dtd">
<!-- Generated by graphviz version 7.0.5 (20221223.1930)
 -->
<!-- Title: include/JSystem/J2DGraph/J2DTextBox.h Pages: 1 -->
<!--zoomable 236 -->
<svg id="main" version="1.1" xmlns="http://www.w3.org/2000/svg" xmlns:xlink="http://www.w3.org/1999/xlink" xml:space="preserve" onload="init(evt)">
<style type="text/css"><![CDATA[
.edge:hover path { stroke: red; }
.edge:hover polygon { stroke: red; fill: red; }
]]></style>
<script type="text/javascript"><![CDATA[
var edges = document.getElementsByTagName('g');
if (edges && edges.length) {
  for (var i=0;i<edges.length;i++) {
    if (edges[i].id.substr(0,4)=='edge') {
      edges[i].setAttribute('class','edge');
    }
  }
}
]]></script>
        <defs>
                <circle id="rim" cx="0" cy="0" r="7"/>
                <circle id="rim2" cx="0" cy="0" r="3.5"/>
                <g id="zoomPlus">
                        <use xlink:href="#rim" fill="#404040">
                                <set attributeName="fill" to="#808080" begin="zoomplus.mouseover" end="zoomplus.mouseout"/>
                        </use>
                        <path d="M-4,0h8M0,-4v8" fill="none" stroke="white" stroke-width="1.5" pointer-events="none"/>
                </g>
                <g id="zoomMin">
                        <use xlink:href="#rim" fill="#404040">
                                <set attributeName="fill" to="#808080" begin="zoomminus.mouseover" end="zoomminus.mouseout"/>
                        </use>
                        <path d="M-4,0h8" fill="none" stroke="white" stroke-width="1.5" pointer-events="none"/>
                </g>
                <g id="dirArrow">
                        <path fill="none" stroke="white" stroke-width="1.5" d="M0,-3.0v7 M-2.5,-0.5L0,-3.0L2.5,-0.5"/>
                </g>
               <g id="resetDef">
                       <use xlink:href="#rim2" fill="#404040">
                               <set attributeName="fill" to="#808080" begin="reset.mouseover" end="reset.mouseout"/>
                       </use>
               </g>
        </defs>

<script type="text/javascript">
var viewWidth = 3116;
var viewHeight = 236;
var sectionId = 'dynsection-1';
</script>
<script xlink:href="svgpan.js"/>
<svg id="graph" class="graph">
<g id="viewport">
<title>include/JSystem/J2DGraph/J2DTextBox.h</title>
<!-- Node1 -->
<g id="node1" class="node">
<title>Node1</title>
<g id="a_node1"><a xlink:title=" ">
<polygon fill="#999999" stroke="#666666" points="1631,-228 1496,-228 1496,-198 1631,-198 1631,-228"/>
<text text-anchor="start" x="1504" y="-216" font-family="Helvetica,sans-Serif" font-size="10.00">include/JSystem/J2DGraph</text>
<text text-anchor="middle" x="1563.5" y="-205" font-family="Helvetica,sans-Serif" font-size="10.00">/J2DTextBox.h</text>
</a>
</g>
</g>
<!-- Node2 -->
<g id="node2" class="node">
<title>Node2</title>
<g id="a_node2"><a xlink:href="J2DPrint_8h.html" target="_top" xlink:title=" ">
<polygon fill="white" stroke="#666666" points="425,-162 290,-162 290,-132 425,-132 425,-162"/>
<text text-anchor="start" x="298" y="-150" font-family="Helvetica,sans-Serif" font-size="10.00">include/JSystem/J2DGraph</text>
<text text-anchor="middle" x="357.5" y="-139" font-family="Helvetica,sans-Serif" font-size="10.00">/J2DPrint.h</text>
</a>
</g>
</g>
<!-- Node1&#45;&gt;Node2 -->
<g id="edge1" class="edge">
<title>Node1&#45;&gt;Node2</title>
<path fill="none" stroke="#63b8ff" d="M1484.22,-208.65C1313.94,-201.33 900.63,-182.87 554.5,-162 511.55,-159.41 463.36,-155.99 425.4,-153.19"/>
<polygon fill="#63b8ff" stroke="#63b8ff" points="1483.91,-212.14 1494.05,-209.07 1484.21,-205.15 1483.91,-212.14"/>
</g>
<!-- Node4 -->
<g id="node4" class="node">
<title>Node4</title>
<g id="a_node4"><a xlink:href="J2DTextBox_8cpp.html" target="_top" xlink:title=" ">
<polygon fill="white" stroke="#666666" points="119,-96 0,-96 0,-66 119,-66 119,-96"/>
<text text-anchor="start" x="8" y="-84" font-family="Helvetica,sans-Serif" font-size="10.00">libs/JSystem/J2DGraph</text>
<text text-anchor="middle" x="59.5" y="-73" font-family="Helvetica,sans-Serif" font-size="10.00">/J2DTextBox.cpp</text>
</a>
</g>
</g>
<!-- Node1&#45;&gt;Node4 -->
<g id="edge24" class="edge">
<title>Node1&#45;&gt;Node4</title>
<path fill="none" stroke="#63b8ff" d="M1484.32,-212.1C1241.96,-211.89 512.69,-207.41 280.5,-162 209.82,-148.18 131.55,-115.39 89.75,-96.35"/>
<polygon fill="#63b8ff" stroke="#63b8ff" points="1484.31,-215.6 1494.31,-212.1 1484.32,-208.6 1484.31,-215.6"/>
</g>
<!-- Node7 -->
<g id="node7" class="node">
<title>Node7</title>
<g id="a_node7"><a xlink:href="J2DTextBoxEx_8h.html" target="_top" xlink:title=" ">
<polygon fill="white" stroke="#666666" points="699,-162 564,-162 564,-132 699,-132 699,-162"/>
<text text-anchor="start" x="572" y="-150" font-family="Helvetica,sans-Serif" font-size="10.00">include/JSystem/J2DGraph</text>
<text text-anchor="middle" x="631.5" y="-139" font-family="Helvetica,sans-Serif" font-size="10.00">/J2DTextBoxEx.h</text>
</a>
</g>
</g>
<!-- Node1&#45;&gt;Node7 -->
<g id="edge6" class="edge">
<title>Node1&#45;&gt;Node7</title>
<path fill="none" stroke="#63b8ff" d="M1484.52,-209.08C1337.33,-203.23 1011.2,-188.32 737.5,-162 725.12,-160.81 711.96,-159.28 699.28,-157.68"/>
<polygon fill="#63b8ff" stroke="#63b8ff" points="1484.01,-212.57 1494.14,-209.46 1484.28,-205.57 1484.01,-212.57"/>
</g>
<!-- Node9 -->
<g id="node9" class="node">
<title>Node9</title>
<g id="a_node9"><a xlink:href="d__menu__calibration_8h.html" target="_top" xlink:title=" ">
<polygon fill="white" stroke="#666666" points="866.5,-162 746.5,-162 746.5,-132 866.5,-132 866.5,-162"/>
<text text-anchor="start" x="754.5" y="-150" font-family="Helvetica,sans-Serif" font-size="10.00">include/d/menu/d_menu</text>
<text text-anchor="middle" x="806.5" y="-139" font-family="Helvetica,sans-Serif" font-size="10.00">_calibration.h</text>
</a>
</g>
</g>
<!-- Node1&#45;&gt;Node9 -->
<g id="edge9" class="edge">
<title>Node1&#45;&gt;Node9</title>
<path fill="none" stroke="#63b8ff" d="M1484.42,-208.28C1358.87,-201.89 1106.38,-187.03 893.5,-162 884.84,-160.98 875.72,-159.72 866.78,-158.38"/>
<polygon fill="#63b8ff" stroke="#63b8ff" points="1484.12,-211.77 1494.29,-208.78 1484.47,-204.78 1484.12,-211.77"/>
</g>
<!-- Node11 -->
<g id="node11" class="node">
<title>Node11</title>
<g id="a_node11"><a xlink:href="d__msg__scrn__base_8h.html" target="_top" xlink:title=" ">
<polygon fill="white" stroke="#666666" points="1039,-162 940,-162 940,-132 1039,-132 1039,-162"/>
<text text-anchor="start" x="948" y="-150" font-family="Helvetica,sans-Serif" font-size="10.00">include/msg/scrn/d</text>
<text text-anchor="middle" x="989.5" y="-139" font-family="Helvetica,sans-Serif" font-size="10.00">_msg_scrn_base.h</text>
</a>
</g>
</g>
<!-- Node1&#45;&gt;Node11 -->
<g id="edge11" class="edge">
<title>Node1&#45;&gt;Node11</title>
<path fill="none" stroke="#63b8ff" d="M1484.51,-207.8C1382.88,-201.6 1201.12,-187.85 1047.5,-162 1044.84,-161.55 1042.13,-161.05 1039.4,-160.51"/>
<polygon fill="#63b8ff" stroke="#63b8ff" points="1484.2,-211.28 1494.39,-208.39 1484.61,-204.3 1484.2,-211.28"/>
</g>
<!-- Node16 -->
<g id="node16" class="node">
<title>Node16</title>
<g id="a_node16"><a xlink:href="d__msg__scrn__explain_8cpp.html" target="_top" xlink:title=" ">
<polygon fill="white" stroke="#666666" points="885.5,-30 779.5,-30 779.5,0 885.5,0 885.5,-30"/>
<text text-anchor="start" x="787.5" y="-18" font-family="Helvetica,sans-Serif" font-size="10.00">src/msg/scrn/d_msg</text>
<text text-anchor="middle" x="832.5" y="-7" font-family="Helvetica,sans-Serif" font-size="10.00">_scrn_explain.cpp</text>
</a>
</g>
</g>
<!-- Node1&#45;&gt;Node16 -->
<g id="edge39" class="edge">
<title>Node1&#45;&gt;Node16</title>
<path fill="none" stroke="#63b8ff" d="M1484.34,-210.25C1324.51,-206.08 974.65,-193.43 930.5,-162 892.56,-134.99 915.83,-103.71 888.5,-66 878.56,-52.28 864.27,-39.6 852.62,-30.44"/>
<polygon fill="#63b8ff" stroke="#63b8ff" points="1483.91,-213.74 1494,-210.5 1484.09,-206.74 1483.91,-213.74"/>
</g>
<!-- Node24 -->
<g id="node24" class="node">
<title>Node24</title>
<g id="a_node24"><a xlink:href="d__a__title__nonmatching_8cpp.html" target="_top" xlink:title=" ">
<polygon fill="white" stroke="#666666" points="1184,-162 1057,-162 1057,-132 1184,-132 1184,-162"/>
<text text-anchor="start" x="1065" y="-150" font-family="Helvetica,sans-Serif" font-size="10.00">rel/d/a/d_a_title/d</text>
<text text-anchor="middle" x="1120.5" y="-139" font-family="Helvetica,sans-Serif" font-size="10.00">_a_title_nonmatching.cpp</text>
</a>
</g>
</g>
<!-- Node1&#45;&gt;Node24 -->
<g id="edge25" class="edge">
<title>Node1&#45;&gt;Node24</title>
<path fill="none" stroke="#63b8ff" d="M1484.37,-202.69C1409.12,-193.51 1292.84,-178.5 1192.5,-162 1189.86,-161.57 1187.17,-161.11 1184.46,-160.64"/>
<polygon fill="#63b8ff" stroke="#63b8ff" points="1483.77,-206.14 1494.12,-203.87 1484.62,-199.19 1483.77,-206.14"/>
</g>
<!-- Node25 -->
<g id="node25" class="node">
<title>Node25</title>
<g id="a_node25"><a xlink:href="d__bright__check_8cpp.html" target="_top" xlink:title=" ">
<polygon fill="white" stroke="#666666" points="1327,-156.5 1202,-156.5 1202,-137.5 1327,-137.5 1327,-156.5"/>
<text text-anchor="middle" x="1264.5" y="-144.5" font-family="Helvetica,sans-Serif" font-size="10.00">src/d/d_bright_check.cpp</text>
</a>
</g>
</g>
<!-- Node1&#45;&gt;Node25 -->
<g id="edge26" class="edge">
<title>Node1&#45;&gt;Node25</title>
<path fill="none" stroke="#63b8ff" d="M1484.84,-195.16C1427.66,-182.92 1352.48,-166.83 1306.37,-156.96"/>
<polygon fill="#63b8ff" stroke="#63b8ff" points="1484.03,-198.57 1494.55,-197.24 1485.5,-191.72 1484.03,-198.57"/>
</g>
<!-- Node26 -->
<g id="node26" class="node">
<title>Node26</title>
<g id="a_node26"><a xlink:href="d__name_8cpp.html" target="_top" xlink:title=" ">
<polygon fill="white" stroke="#666666" points="1439.5,-156.5 1345.5,-156.5 1345.5,-137.5 1439.5,-137.5 1439.5,-156.5"/>
<text text-anchor="middle" x="1392.5" y="-144.5" font-family="Helvetica,sans-Serif" font-size="10.00">src/d/d_name.cpp</text>
</a>
</g>
</g>
<!-- Node1&#45;&gt;Node26 -->
<g id="edge27" class="edge">
<title>Node1&#45;&gt;Node26</title>
<path fill="none" stroke="#63b8ff" d="M1514.59,-193.69C1482.46,-181.67 1441.84,-166.47 1416.51,-156.99"/>
<polygon fill="#63b8ff" stroke="#63b8ff" points="1513.11,-196.88 1523.71,-197.11 1515.57,-190.32 1513.11,-196.88"/>
</g>
<!-- Node27 -->
<g id="node27" class="node">
<title>Node27</title>
<g id="a_node27"><a xlink:href="d__file__sel__info_8cpp.html" target="_top" xlink:title=" ">
<polygon fill="white" stroke="#666666" points="1555,-162 1458,-162 1458,-132 1555,-132 1555,-162"/>
<text text-anchor="start" x="1466" y="-150" font-family="Helvetica,sans-Serif" font-size="10.00">src/d/file/d_file_sel</text>
<text text-anchor="middle" x="1506.5" y="-139" font-family="Helvetica,sans-Serif" font-size="10.00">_info.cpp</text>
</a>
</g>
</g>
<!-- Node1&#45;&gt;Node27 -->
<g id="edge28" class="edge">
<title>Node1&#45;&gt;Node27</title>
<path fill="none" stroke="#63b8ff" d="M1543.23,-189.24C1535.19,-180.21 1526.19,-170.11 1519.11,-162.16"/>
<polygon fill="#63b8ff" stroke="#63b8ff" points="1540.58,-191.53 1549.84,-196.67 1545.81,-186.87 1540.58,-191.53"/>
</g>
<!-- Node28 -->
<g id="node28" class="node">
<title>Node28</title>
<g id="a_node28"><a xlink:href="d__file__sel__warning_8cpp.html" target="_top" xlink:title=" ">
<polygon fill="white" stroke="#666666" points="1670,-162 1573,-162 1573,-132 1670,-132 1670,-162"/>
<text text-anchor="start" x="1581" y="-150" font-family="Helvetica,sans-Serif" font-size="10.00">src/d/file/d_file_sel</text>
<text text-anchor="middle" x="1621.5" y="-139" font-family="Helvetica,sans-Serif" font-size="10.00">_warning.cpp</text>
</a>
</g>
</g>
<!-- Node1&#45;&gt;Node28 -->
<g id="edge29" class="edge">
<title>Node1&#45;&gt;Node28</title>
<path fill="none" stroke="#63b8ff" d="M1583.87,-189.53C1592.11,-180.43 1601.39,-170.19 1608.66,-162.16"/>
<polygon fill="#63b8ff" stroke="#63b8ff" points="1581.51,-186.91 1577.39,-196.67 1586.7,-191.62 1581.51,-186.91"/>
</g>
<!-- Node29 -->
<g id="node29" class="node">
<title>Node29</title>
<g id="a_node29"><a xlink:href="d__file__select_8cpp.html" target="_top" xlink:title=" ">
<polygon fill="white" stroke="#666666" points="1816.5,-156.5 1688.5,-156.5 1688.5,-137.5 1816.5,-137.5 1816.5,-156.5"/>
<text text-anchor="middle" x="1752.5" y="-144.5" font-family="Helvetica,sans-Serif" font-size="10.00">src/d/file/d_file_select.cpp</text>
</a>
</g>
</g>
<!-- Node1&#45;&gt;Node29 -->
<g id="edge30" class="edge">
<title>Node1&#45;&gt;Node29</title>
<path fill="none" stroke="#63b8ff" d="M1616.64,-194.01C1652.29,-181.93 1697.72,-166.55 1725.96,-156.99"/>
<polygon fill="#63b8ff" stroke="#63b8ff" points="1615.7,-190.63 1607.35,-197.15 1617.94,-197.26 1615.7,-190.63"/>
</g>
<!-- Node30 -->
<g id="node30" class="node">
<title>Node30</title>
<g id="a_node30"><a xlink:href="d__menu__collect_8cpp.html" target="_top" xlink:title=" ">
<polygon fill="white" stroke="#666666" points="1990,-156.5 1835,-156.5 1835,-137.5 1990,-137.5 1990,-156.5"/>
<text text-anchor="middle" x="1912.5" y="-144.5" font-family="Helvetica,sans-Serif" font-size="10.00">src/d/menu/d_menu_collect.cpp</text>
</a>
</g>
</g>
<!-- Node1&#45;&gt;Node30 -->
<g id="edge31" class="edge">
<title>Node1&#45;&gt;Node30</title>
<path fill="none" stroke="#63b8ff" d="M1642.28,-197.55C1710.19,-185.1 1806.13,-167.51 1863.54,-156.98"/>
<polygon fill="#63b8ff" stroke="#63b8ff" points="1641.9,-194.06 1632.69,-199.31 1643.16,-200.95 1641.9,-194.06"/>
</g>
<!-- Node31 -->
<g id="node31" class="node">
<title>Node31</title>
<g id="a_node31"><a xlink:href="d__menu__fishing_8cpp.html" target="_top" xlink:title=" ">
<polygon fill="white" stroke="#666666" points="2162.5,-156.5 2008.5,-156.5 2008.5,-137.5 2162.5,-137.5 2162.5,-156.5"/>
<text text-anchor="middle" x="2085.5" y="-144.5" font-family="Helvetica,sans-Serif" font-size="10.00">src/d/menu/d_menu_fishing.cpp</text>
</a>
</g>
</g>
<!-- Node1&#45;&gt;Node31 -->
<g id="edge32" class="edge">
<title>Node1&#45;&gt;Node31</title>
<path fill="none" stroke="#63b8ff" d="M1642.65,-204.06C1730.11,-195.02 1875.09,-179.25 1999.5,-162 2010.29,-160.5 2021.81,-158.74 2032.8,-156.98"/>
<polygon fill="#63b8ff" stroke="#63b8ff" points="1642.31,-200.57 1632.73,-205.08 1643.03,-207.54 1642.31,-200.57"/>
</g>
<!-- Node32 -->
<g id="node32" class="node">
<title>Node32</title>
<g id="a_node32"><a xlink:href="d__menu__insect_8cpp.html" target="_top" xlink:title=" ">
<polygon fill="white" stroke="#666666" points="2332.5,-156.5 2180.5,-156.5 2180.5,-137.5 2332.5,-137.5 2332.5,-156.5"/>
<text text-anchor="middle" x="2256.5" y="-144.5" font-family="Helvetica,sans-Serif" font-size="10.00">src/d/menu/d_menu_insect.cpp</text>
</a>
</g>
</g>
<!-- Node1&#45;&gt;Node32 -->
<g id="edge33" class="edge">
<title>Node1&#45;&gt;Node32</title>
<path fill="none" stroke="#63b8ff" d="M1642.4,-207.56C1758.56,-200.57 1982.28,-185.32 2171.5,-162 2182.78,-160.61 2194.86,-158.81 2206.26,-156.97"/>
<polygon fill="#63b8ff" stroke="#63b8ff" points="1642.45,-204.05 1632.67,-208.14 1642.86,-211.04 1642.45,-204.05"/>
</g>
<!-- Node33 -->
<g id="node33" class="node">
<title>Node33</title>
<g id="a_node33"><a xlink:href="d__menu__letter_8cpp.html" target="_top" xlink:title=" ">
<polygon fill="white" stroke="#666666" points="2498.5,-156.5 2350.5,-156.5 2350.5,-137.5 2498.5,-137.5 2498.5,-156.5"/>
<text text-anchor="middle" x="2424.5" y="-144.5" font-family="Helvetica,sans-Serif" font-size="10.00">src/d/menu/d_menu_letter.cpp</text>
</a>
</g>
</g>
<!-- Node1&#45;&gt;Node33 -->
<g id="edge34" class="edge">
<title>Node1&#45;&gt;Node33</title>
<path fill="none" stroke="#63b8ff" d="M1642.86,-209.6C1783.86,-204.73 2087.16,-191.54 2341.5,-162 2352.82,-160.68 2364.95,-158.87 2376.34,-156.99"/>
<polygon fill="#63b8ff" stroke="#63b8ff" points="1642.74,-206.1 1632.87,-209.94 1642.98,-213.1 1642.74,-206.1"/>
</g>
<!-- Node34 -->
<g id="node34" class="node">
<title>Node34</title>
<g id="a_node34"><a xlink:href="d__menu__skill_8cpp.html" target="_top" xlink:title=" ">
<polygon fill="white" stroke="#666666" points="2660,-156.5 2517,-156.5 2517,-137.5 2660,-137.5 2660,-156.5"/>
<text text-anchor="middle" x="2588.5" y="-144.5" font-family="Helvetica,sans-Serif" font-size="10.00">src/d/menu/d_menu_skill.cpp</text>
</a>
</g>
</g>
<!-- Node1&#45;&gt;Node34 -->
<g id="edge35" class="edge">
<title>Node1&#45;&gt;Node34</title>
<path fill="none" stroke="#63b8ff" d="M1642.58,-210.97C1805.09,-208.15 2188.17,-197.93 2507.5,-162 2518.85,-160.72 2531.01,-158.88 2542.37,-156.94"/>
<polygon fill="#63b8ff" stroke="#63b8ff" points="1642.71,-207.46 1632.77,-211.13 1642.83,-214.46 1642.71,-207.46"/>
</g>
<!-- Node35 -->
<g id="node35" class="node">
<title>Node35</title>
<g id="a_node35"><a xlink:href="d__meter2__info_8cpp.html" target="_top" xlink:title=" ">
<polygon fill="white" stroke="#666666" points="2788.5,-162 2678.5,-162 2678.5,-132 2788.5,-132 2788.5,-162"/>
<text text-anchor="start" x="2686.5" y="-150" font-family="Helvetica,sans-Serif" font-size="10.00">src/d/meter/d_meter2</text>
<text text-anchor="middle" x="2733.5" y="-139" font-family="Helvetica,sans-Serif" font-size="10.00">_info.cpp</text>
</a>
</g>
</g>
<!-- Node1&#45;&gt;Node35 -->
<g id="edge36" class="edge">
<title>Node1&#45;&gt;Node35</title>
<path fill="none" stroke="#63b8ff" d="M1642.63,-210.17C1861.29,-204.85 2470.68,-188.05 2669.5,-162 2672.32,-161.63 2675.2,-161.2 2678.1,-160.72"/>
<polygon fill="#63b8ff" stroke="#63b8ff" points="1642.7,-206.67 1632.79,-210.41 1642.87,-213.67 1642.7,-206.67"/>
</g>
<!-- Node36 -->
<g id="node36" class="node">
<title>Node36</title>
<g id="a_node36"><a xlink:href="d__msg__string_8cpp.html" target="_top" xlink:title=" ">
<polygon fill="white" stroke="#666666" points="2946.5,-156.5 2806.5,-156.5 2806.5,-137.5 2946.5,-137.5 2946.5,-156.5"/>
<text text-anchor="middle" x="2876.5" y="-144.5" font-family="Helvetica,sans-Serif" font-size="10.00">src/d/msg/d_msg_string.cpp</text>
</a>
</g>
</g>
<!-- Node1&#45;&gt;Node36 -->
<g id="edge37" class="edge">
<title>Node1&#45;&gt;Node36</title>
<path fill="none" stroke="#63b8ff" d="M1642.62,-212.48C1838.82,-212.88 2363.3,-209.05 2797.5,-162 2808.72,-160.78 2820.74,-158.94 2831.95,-156.98"/>
<polygon fill="#63b8ff" stroke="#63b8ff" points="1642.81,-208.98 1632.8,-212.46 1642.79,-215.98 1642.81,-208.98"/>
</g>
<!-- Node37 -->
<g id="node37" class="node">
<title>Node37</title>
<g id="a_node37"><a xlink:href="d__pane__class_8cpp.html" target="_top" xlink:title=" ">
<polygon fill="white" stroke="#666666" points="3108,-156.5 2965,-156.5 2965,-137.5 3108,-137.5 3108,-156.5"/>
<text text-anchor="middle" x="3036.5" y="-144.5" font-family="Helvetica,sans-Serif" font-size="10.00">src/d/pane/d_pane_class.cpp</text>
</a>
</g>
</g>
<!-- Node1&#45;&gt;Node37 -->
<g id="edge38" class="edge">
<title>Node1&#45;&gt;Node37</title>
<path fill="none" stroke="#63b8ff" d="M1642.52,-210.57C1897.7,-205.73 2698.03,-188.75 2955.5,-162 2967.14,-160.79 2979.63,-158.92 2991.24,-156.93"/>
<polygon fill="#63b8ff" stroke="#63b8ff" points="1642.59,-207.07 1632.66,-210.76 1642.73,-214.07 1642.59,-207.07"/>
</g>
<!-- Node3 -->
<g id="node3" class="node">
<title>Node3</title>
<g id="a_node3"><a xlink:href="J2DPrint_8cpp.html" target="_top" xlink:title=" ">
<polygon fill="white" stroke="#666666" points="417,-96 298,-96 298,-66 417,-66 417,-96"/>
<text text-anchor="start" x="306" y="-84" font-family="Helvetica,sans-Serif" font-size="10.00">libs/JSystem/J2DGraph</text>
<text text-anchor="middle" x="357.5" y="-73" font-family="Helvetica,sans-Serif" font-size="10.00">/J2DPrint.cpp</text>
</a>
</g>
</g>
<!-- Node2&#45;&gt;Node3 -->
<g id="edge2" class="edge">
<title>Node2&#45;&gt;Node3</title>
<path fill="none" stroke="#63b8ff" d="M357.5,-120.39C357.5,-112.13 357.5,-103.28 357.5,-96.16"/>
<polygon fill="#63b8ff" stroke="#63b8ff" points="354,-120.28 357.5,-130.28 361,-120.28 354,-120.28"/>
</g>
<!-- Node2&#45;&gt;Node4 -->
<g id="edge3" class="edge">
<title>Node2&#45;&gt;Node4</title>
<path fill="none" stroke="#63b8ff" d="M279.16,-129.18C229.17,-118.44 165.38,-104.74 119.43,-94.87"/>
<polygon fill="#63b8ff" stroke="#63b8ff" points="278.26,-132.56 288.77,-131.24 279.73,-125.72 278.26,-132.56"/>
</g>
<!-- Node5 -->
<g id="node5" class="node">
<title>Node5</title>
<g id="a_node5"><a xlink:href="J2DTextBoxEx_8cpp.html" target="_top" xlink:title=" ">
<polygon fill="white" stroke="#666666" points="554,-96 435,-96 435,-66 554,-66 554,-96"/>
<text text-anchor="start" x="443" y="-84" font-family="Helvetica,sans-Serif" font-size="10.00">libs/JSystem/J2DGraph</text>
<text text-anchor="middle" x="494.5" y="-73" font-family="Helvetica,sans-Serif" font-size="10.00">/J2DTextBoxEx.cpp</text>
</a>
</g>
</g>
<!-- Node2&#45;&gt;Node5 -->
<g id="edge4" class="edge">
<title>Node2&#45;&gt;Node5</title>
<path fill="none" stroke="#63b8ff" d="M398.48,-126.86C419.46,-117.05 444.58,-105.32 463.86,-96.31"/>
<polygon fill="#63b8ff" stroke="#63b8ff" points="397.2,-123.59 389.62,-131 400.16,-129.94 397.2,-123.59"/>
</g>
<!-- Node6 -->
<g id="node6" class="node">
<title>Node6</title>
<g id="a_node6"><a xlink:href="m__Do__graphic_8cpp.html" target="_top" xlink:title=" ">
<polygon fill="white" stroke="#666666" points="279.5,-90.5 137.5,-90.5 137.5,-71.5 279.5,-71.5 279.5,-90.5"/>
<text text-anchor="middle" x="208.5" y="-78.5" font-family="Helvetica,sans-Serif" font-size="10.00">src/m_Do/m_Do_graphic.cpp</text>
</a>
</g>
</g>
<!-- Node2&#45;&gt;Node6 -->
<g id="edge5" class="edge">
<title>Node2&#45;&gt;Node6</title>
<path fill="none" stroke="#63b8ff" d="M313.78,-127.22C285.97,-115.27 251.2,-100.34 229.42,-90.99"/>
<polygon fill="#63b8ff" stroke="#63b8ff" points="312.1,-130.31 322.67,-131.04 314.86,-123.88 312.1,-130.31"/>
</g>
<!-- Node7&#45;&gt;Node5 -->
<g id="edge8" class="edge">
<title>Node7&#45;&gt;Node5</title>
<path fill="none" stroke="#63b8ff" d="M590.52,-126.86C569.54,-117.05 544.42,-105.32 525.14,-96.31"/>
<polygon fill="#63b8ff" stroke="#63b8ff" points="588.84,-129.94 599.38,-131 591.8,-123.59 588.84,-129.94"/>
</g>
<!-- Node8 -->
<g id="node8" class="node">
<title>Node8</title>
<g id="a_node8"><a xlink:href="J2DScreen_8cpp.html" target="_top" xlink:title=" ">
<polygon fill="white" stroke="#666666" points="691,-96 572,-96 572,-66 691,-66 691,-96"/>
<text text-anchor="start" x="580" y="-84" font-family="Helvetica,sans-Serif" font-size="10.00">libs/JSystem/J2DGraph</text>
<text text-anchor="middle" x="631.5" y="-73" font-family="Helvetica,sans-Serif" font-size="10.00">/J2DScreen.cpp</text>
</a>
</g>
</g>
<!-- Node7&#45;&gt;Node8 -->
<g id="edge7" class="edge">
<title>Node7&#45;&gt;Node8</title>
<path fill="none" stroke="#63b8ff" d="M631.5,-120.39C631.5,-112.13 631.5,-103.28 631.5,-96.16"/>
<polygon fill="#63b8ff" stroke="#63b8ff" points="628,-120.28 631.5,-130.28 635,-120.28 628,-120.28"/>
</g>
<!-- Node10 -->
<g id="node10" class="node">
<title>Node10</title>
<g id="a_node10"><a xlink:href="d__menu__calibration_8cpp.html" target="_top" xlink:title=" ">
<polygon fill="white" stroke="#666666" points="879.5,-90.5 709.5,-90.5 709.5,-71.5 879.5,-71.5 879.5,-90.5"/>
<text text-anchor="middle" x="794.5" y="-78.5" font-family="Helvetica,sans-Serif" font-size="10.00">src/d/menu/d_menu_calibration.cpp</text>
</a>
</g>
</g>
<!-- Node9&#45;&gt;Node10 -->
<g id="edge10" class="edge">
<title>Node9&#45;&gt;Node10</title>
<path fill="none" stroke="#63b8ff" d="M801.74,-120.59C799.76,-110.06 797.6,-98.53 796.16,-90.84"/>
<polygon fill="#63b8ff" stroke="#63b8ff" points="798.27,-121.13 803.56,-130.31 805.15,-119.83 798.27,-121.13"/>
</g>
<!-- Node12 -->
<g id="node12" class="node">
<title>Node12</title>
<g id="a_node12"><a xlink:href="d__msg__scrn__boss_8h.html" target="_top" xlink:title=" ">
<polygon fill="white" stroke="#666666" points="1638,-96 1539,-96 1539,-66 1638,-66 1638,-96"/>
<text text-anchor="start" x="1547" y="-84" font-family="Helvetica,sans-Serif" font-size="10.00">include/msg/scrn/d</text>
<text text-anchor="middle" x="1588.5" y="-73" font-family="Helvetica,sans-Serif" font-size="10.00">_msg_scrn_boss.h</text>
</a>
</g>
</g>
<!-- Node11&#45;&gt;Node12 -->
<g id="edge12" class="edge">
<title>Node11&#45;&gt;Node12</title>
<path fill="none" stroke="#63b8ff" d="M1050.54,-131.69C1261.73,-99.7 1320.84,-128.34 1529.5,-96 1532.52,-95.53 1535.61,-94.99 1538.72,-94.4"/>
<polygon fill="#63b8ff" stroke="#63b8ff" points="1050.23,-128.2 1040.88,-133.18 1051.3,-135.12 1050.23,-128.2"/>
</g>
<!-- Node14 -->
<g id="node14" class="node">
<title>Node14</title>
<g id="a_node14"><a xlink:href="d__msg__scrn__explain_8h.html" target="_top" xlink:title=" ">
<polygon fill="white" stroke="#666666" points="1043,-96 936,-96 936,-66 1043,-66 1043,-96"/>
<text text-anchor="start" x="944" y="-84" font-family="Helvetica,sans-Serif" font-size="10.00">include/msg/scrn/d</text>
<text text-anchor="middle" x="989.5" y="-73" font-family="Helvetica,sans-Serif" font-size="10.00">_msg_scrn_explain.h</text>
</a>
</g>
</g>
<!-- Node11&#45;&gt;Node14 -->
<g id="edge14" class="edge">
<title>Node11&#45;&gt;Node14</title>
<path fill="none" stroke="#63b8ff" d="M989.5,-120.39C989.5,-112.13 989.5,-103.28 989.5,-96.16"/>
<polygon fill="#63b8ff" stroke="#63b8ff" points="986,-120.28 989.5,-130.28 993,-120.28 986,-120.28"/>
</g>
<!-- Node17 -->
<g id="node17" class="node">
<title>Node17</title>
<g id="a_node17"><a xlink:href="d__msg__scrn__place_8h.html" target="_top" xlink:title=" ">
<polygon fill="white" stroke="#666666" points="1162,-96 1061,-96 1061,-66 1162,-66 1162,-96"/>
<text text-anchor="start" x="1069" y="-84" font-family="Helvetica,sans-Serif" font-size="10.00">include/msg/scrn/d</text>
<text text-anchor="middle" x="1111.5" y="-73" font-family="Helvetica,sans-Serif" font-size="10.00">_msg_scrn_place.h</text>
</a>
</g>
</g>
<!-- Node11&#45;&gt;Node17 -->
<g id="edge17" class="edge">
<title>Node11&#45;&gt;Node17</title>
<path fill="none" stroke="#63b8ff" d="M1027.02,-126.32C1045.49,-116.63 1067.36,-105.16 1084.21,-96.31"/>
<polygon fill="#63b8ff" stroke="#63b8ff" points="1025.45,-123.19 1018.22,-130.93 1028.7,-129.39 1025.45,-123.19"/>
</g>
<!-- Node19 -->
<g id="node19" class="node">
<title>Node19</title>
<g id="a_node19"><a xlink:href="d__msg__scrn__staff_8h.html" target="_top" xlink:title=" ">
<polygon fill="white" stroke="#666666" points="1279,-96 1180,-96 1180,-66 1279,-66 1279,-96"/>
<text text-anchor="start" x="1188" y="-84" font-family="Helvetica,sans-Serif" font-size="10.00">include/msg/scrn/d</text>
<text text-anchor="middle" x="1229.5" y="-73" font-family="Helvetica,sans-Serif" font-size="10.00">_msg_scrn_staff.h</text>
</a>
</g>
</g>
<!-- Node11&#45;&gt;Node19 -->
<g id="edge19" class="edge">
<title>Node11&#45;&gt;Node19</title>
<path fill="none" stroke="#63b8ff" d="M1050.2,-129.81C1090.3,-119.12 1142.2,-105.28 1179.84,-95.24"/>
<polygon fill="#63b8ff" stroke="#63b8ff" points="1049.45,-126.39 1040.69,-132.35 1051.25,-133.15 1049.45,-126.39"/>
</g>
<!-- Node21 -->
<g id="node21" class="node">
<title>Node21</title>
<g id="a_node21"><a xlink:href="d__msg__scrn__tree_8h.html" target="_top" xlink:title=" ">
<polygon fill="white" stroke="#666666" points="1396,-96 1297,-96 1297,-66 1396,-66 1396,-96"/>
<text text-anchor="start" x="1305" y="-84" font-family="Helvetica,sans-Serif" font-size="10.00">include/msg/scrn/d</text>
<text text-anchor="middle" x="1346.5" y="-73" font-family="Helvetica,sans-Serif" font-size="10.00">_msg_scrn_tree.h</text>
</a>
</g>
</g>
<!-- Node11&#45;&gt;Node21 -->
<g id="edge21" class="edge">
<title>Node11&#45;&gt;Node21</title>
<path fill="none" stroke="#63b8ff" d="M1050.54,-131.51C1155.77,-111.61 1185.73,-116.04 1288.5,-96 1291.14,-95.48 1293.85,-94.93 1296.57,-94.35"/>
<polygon fill="#63b8ff" stroke="#63b8ff" points="1050.07,-128.04 1040.91,-133.37 1051.39,-134.91 1050.07,-128.04"/>
</g>
<!-- Node23 -->
<g id="node23" class="node">
<title>Node23</title>
<g id="a_node23"><a xlink:href="d__msg__scrn__base_8cpp.html" target="_top" xlink:title=" ">
<polygon fill="white" stroke="#666666" points="1520.5,-96 1414.5,-96 1414.5,-66 1520.5,-66 1520.5,-96"/>
<text text-anchor="start" x="1422.5" y="-84" font-family="Helvetica,sans-Serif" font-size="10.00">src/msg/scrn/d_msg</text>
<text text-anchor="middle" x="1467.5" y="-73" font-family="Helvetica,sans-Serif" font-size="10.00">_scrn_base.cpp</text>
</a>
</g>
</g>
<!-- Node11&#45;&gt;Node23 -->
<g id="edge23" class="edge">
<title>Node11&#45;&gt;Node23</title>
<path fill="none" stroke="#63b8ff" d="M1050.38,-131.66C1207.12,-105.9 1251.2,-121.08 1405.5,-96 1408.33,-95.54 1411.23,-95.03 1414.15,-94.48"/>
<polygon fill="#63b8ff" stroke="#63b8ff" points="1050.17,-128.14 1040.89,-133.25 1051.33,-135.05 1050.17,-128.14"/>
</g>
<!-- Node13 -->
<g id="node13" class="node">
<title>Node13</title>
<g id="a_node13"><a xlink:href="d__msg__scrn__boss_8cpp.html" target="_top" xlink:title=" ">
<polygon fill="white" stroke="#666666" points="1641.5,-30 1535.5,-30 1535.5,0 1641.5,0 1641.5,-30"/>
<text text-anchor="start" x="1543.5" y="-18" font-family="Helvetica,sans-Serif" font-size="10.00">src/msg/scrn/d_msg</text>
<text text-anchor="middle" x="1588.5" y="-7" font-family="Helvetica,sans-Serif" font-size="10.00">_scrn_boss.cpp</text>
</a>
</g>
</g>
<!-- Node12&#45;&gt;Node13 -->
<g id="edge13" class="edge">
<title>Node12&#45;&gt;Node13</title>
<path fill="none" stroke="#63b8ff" d="M1588.5,-54.39C1588.5,-46.13 1588.5,-37.28 1588.5,-30.16"/>
<polygon fill="#63b8ff" stroke="#63b8ff" points="1585,-54.28 1588.5,-64.28 1592,-54.28 1585,-54.28"/>
</g>
<!-- Node15 -->
<g id="node15" class="node">
<title>Node15</title>
<g id="a_node15"><a xlink:href="d__menu__save_8cpp.html" target="_top" xlink:title=" ">
<polygon fill="white" stroke="#666666" points="1051,-24.5 904,-24.5 904,-5.5 1051,-5.5 1051,-24.5"/>
<text text-anchor="middle" x="977.5" y="-12.5" font-family="Helvetica,sans-Serif" font-size="10.00">src/d/menu/d_menu_save.cpp</text>
</a>
</g>
</g>
<!-- Node14&#45;&gt;Node15 -->
<g id="edge15" class="edge">
<title>Node14&#45;&gt;Node15</title>
<path fill="none" stroke="#63b8ff" d="M984.74,-54.59C982.76,-44.06 980.6,-32.53 979.16,-24.84"/>
<polygon fill="#63b8ff" stroke="#63b8ff" points="981.27,-55.13 986.56,-64.31 988.15,-53.83 981.27,-55.13"/>
</g>
<!-- Node14&#45;&gt;Node16 -->
<g id="edge16" class="edge">
<title>Node14&#45;&gt;Node16</title>
<path fill="none" stroke="#63b8ff" d="M943.89,-61.41C919.68,-51.54 890.36,-39.59 867.89,-30.43"/>
<polygon fill="#63b8ff" stroke="#63b8ff" points="942.28,-64.53 952.86,-65.07 944.93,-58.05 942.28,-64.53"/>
</g>
<!-- Node18 -->
<g id="node18" class="node">
<title>Node18</title>
<g id="a_node18"><a xlink:href="d__msg__scrn__place_8cpp.html" target="_top" xlink:title=" ">
<polygon fill="white" stroke="#666666" points="1175.5,-30 1069.5,-30 1069.5,0 1175.5,0 1175.5,-30"/>
<text text-anchor="start" x="1077.5" y="-18" font-family="Helvetica,sans-Serif" font-size="10.00">src/msg/scrn/d_msg</text>
<text text-anchor="middle" x="1122.5" y="-7" font-family="Helvetica,sans-Serif" font-size="10.00">_scrn_place.cpp</text>
</a>
</g>
</g>
<!-- Node17&#45;&gt;Node18 -->
<g id="edge18" class="edge">
<title>Node17&#45;&gt;Node18</title>
<path fill="none" stroke="#63b8ff" d="M1115.85,-54.68C1117.29,-46.34 1118.83,-37.37 1120.07,-30.16"/>
<polygon fill="#63b8ff" stroke="#63b8ff" points="1112.44,-53.86 1114.2,-64.3 1119.34,-55.04 1112.44,-53.86"/>
</g>
<!-- Node20 -->
<g id="node20" class="node">
<title>Node20</title>
<g id="a_node20"><a xlink:href="d__msg__scrn__staff_8cpp.html" target="_top" xlink:title=" ">
<polygon fill="white" stroke="#666666" points="1299.5,-30 1193.5,-30 1193.5,0 1299.5,0 1299.5,-30"/>
<text text-anchor="start" x="1201.5" y="-18" font-family="Helvetica,sans-Serif" font-size="10.00">src/msg/scrn/d_msg</text>
<text text-anchor="middle" x="1246.5" y="-7" font-family="Helvetica,sans-Serif" font-size="10.00">_scrn_staff.cpp</text>
</a>
</g>
</g>
<!-- Node19&#45;&gt;Node20 -->
<g id="edge20" class="edge">
<title>Node19&#45;&gt;Node20</title>
<path fill="none" stroke="#63b8ff" d="M1236.23,-54.68C1238.44,-46.34 1240.82,-37.37 1242.74,-30.16"/>
<polygon fill="#63b8ff" stroke="#63b8ff" points="1232.85,-53.77 1233.66,-64.33 1239.61,-55.57 1232.85,-53.77"/>
</g>
<!-- Node22 -->
<g id="node22" class="node">
<title>Node22</title>
<g id="a_node22"><a xlink:href="d__msg__scrn__tree_8cpp.html" target="_top" xlink:title=" ">
<polygon fill="white" stroke="#666666" points="1423.5,-30 1317.5,-30 1317.5,0 1423.5,0 1423.5,-30"/>
<text text-anchor="start" x="1325.5" y="-18" font-family="Helvetica,sans-Serif" font-size="10.00">src/msg/scrn/d_msg</text>
<text text-anchor="middle" x="1370.5" y="-7" font-family="Helvetica,sans-Serif" font-size="10.00">_scrn_tree.cpp</text>
</a>
</g>
</g>
<!-- Node21&#45;&gt;Node22 -->
<g id="edge22" class="edge">
<title>Node21&#45;&gt;Node22</title>
<path fill="none" stroke="#63b8ff" d="M1355.78,-55.25C1358.97,-46.75 1362.43,-37.53 1365.19,-30.16"/>
<polygon fill="#63b8ff" stroke="#63b8ff" points="1352.59,-53.79 1352.36,-64.38 1359.15,-56.24 1352.59,-53.79"/>
</g>
</g>
</svg>
        <g id="navigator" transform="translate(0 0)" fill="#404254">
                <rect fill="#f2f5e9" fill-opacity="0.5" stroke="#606060" stroke-width=".5" x="0" y="0" width="60" height="60"/>
                <use id="zoomplus" xlink:href="#zoomPlus" x="17" y="9" onmousedown="handleZoom(evt,'in')"/>
                <use id="zoomminus" xlink:href="#zoomMin" x="42" y="9" onmousedown="handleZoom(evt,'out')"/>
                <use id="reset" xlink:href="#resetDef" x="30" y="36" onmousedown="handleReset()"/>
                <g id="arrowUp" xlink:href="#dirArrow" transform="translate(30 24)" onmousedown="handlePan(0,-1)">
                  <use xlink:href="#rim" fill="#404040">
                        <set attributeName="fill" to="#808080" begin="arrowUp.mouseover" end="arrowUp.mouseout"/>
                  </use>
                  <path fill="none" stroke="white" stroke-width="1.5" d="M0,-3.0v7 M-2.5,-0.5L0,-3.0L2.5,-0.5"/>
                </g>
                <g id="arrowRight" xlink:href="#dirArrow" transform="rotate(90) translate(36 -43)" onmousedown="handlePan(1,0)">
                  <use xlink:href="#rim" fill="#404040">
                        <set attributeName="fill" to="#808080" begin="arrowRight.mouseover" end="arrowRight.mouseout"/>
                  </use>
                  <path fill="none" stroke="white" stroke-width="1.5" d="M0,-3.0v7 M-2.5,-0.5L0,-3.0L2.5,-0.5"/>
                </g>
                <g id="arrowDown" xlink:href="#dirArrow" transform="rotate(180) translate(-30 -48)" onmousedown="handlePan(0,1)">
                  <use xlink:href="#rim" fill="#404040">
                        <set attributeName="fill" to="#808080" begin="arrowDown.mouseover" end="arrowDown.mouseout"/>
                  </use>
                  <path fill="none" stroke="white" stroke-width="1.5" d="M0,-3.0v7 M-2.5,-0.5L0,-3.0L2.5,-0.5"/>
                </g>
                <g id="arrowLeft" xlink:href="#dirArrow" transform="rotate(270) translate(-36 17)" onmousedown="handlePan(-1,0)">
                  <use xlink:href="#rim" fill="#404040">
                        <set attributeName="fill" to="#808080" begin="arrowLeft.mouseover" end="arrowLeft.mouseout"/>
                  </use>
                  <path fill="none" stroke="white" stroke-width="1.5" d="M0,-3.0v7 M-2.5,-0.5L0,-3.0L2.5,-0.5"/>
                </g>
        </g>
        <svg viewBox="0 0 15 15" width="100%" height="30px" preserveAspectRatio="xMaxYMin meet">
         <g id="arrow_out" transform="scale(0.3 0.3)">
          <a xlink:href="J2DTextBox_8h__dep__incl_org.svg" target="_base">
           <rect id="button" ry="5" rx="5" y="6" x="6" height="38" width="38"
                fill="#f2f5e9" fill-opacity="0.5" stroke="#606060" stroke-width="1.0"/>
           <path id="arrow"
             d="M 11.500037,31.436501 C 11.940474,20.09759 22.043105,11.32322 32.158766,21.979434 L 37.068811,17.246167 C 37.068811,17.246167 37.088388,32 37.088388,32 L 22.160133,31.978069 C 22.160133,31.978069 26.997745,27.140456 26.997745,27.140456 C 18.528582,18.264221 13.291696,25.230495 11.500037,31.436501 z"
             style="fill:#404040;"/>
          </a>
         </g>
        </svg>
</svg>
