<?xml version="1.0" encoding="UTF-8" standalone="no"?>
<!DOCTYPE svg PUBLIC "-//W3C//DTD SVG 1.1//EN"
 "http://www.w3.org/Graphics/SVG/1.1/DTD/svg11.dtd">
<!-- Generated by graphviz version 7.0.5 (20221223.1930)
 -->
<!-- Title: include/JSystem/J3DGraphAnimator/J3DCluster.h Pages: 1 -->
<svg width="2995pt" height="434pt"
 viewBox="0.00 0.00 2995.39 434.00" xmlns="http://www.w3.org/2000/svg" xmlns:xlink="http://www.w3.org/1999/xlink">
<g id="graph0" class="graph" transform="scale(1 1) rotate(0) translate(4 430)">
<title>include/JSystem/J3DGraphAnimator/J3DCluster.h</title>
<!-- Node1 -->
<g id="node1" class="node">
<title>Node1</title>
<g id="a_node1"><a xlink:title=" ">
<polygon fill="#999999" stroke="#666666" points="2144,-426 2009,-426 2009,-396 2144,-396 2144,-426"/>
<text text-anchor="start" x="2017" y="-414" font-family="Helvetica,sans-Serif" font-size="10.00">include/JSystem/J3DGraph</text>
<text text-anchor="middle" x="2076.5" y="-403" font-family="Helvetica,sans-Serif" font-size="10.00">Animator/J3DCluster.h</text>
</a>
</g>
</g>
<!-- Node2 -->
<g id="node2" class="node">
<title>Node2</title>
<g id="a_node2"><a xlink:href="J3DSkinDeform_8h.html" target="_top" xlink:title=" ">
<polygon fill="white" stroke="#666666" points="2062,-360 1927,-360 1927,-330 2062,-330 2062,-360"/>
<text text-anchor="start" x="1935" y="-348" font-family="Helvetica,sans-Serif" font-size="10.00">include/JSystem/J3DGraph</text>
<text text-anchor="middle" x="1994.5" y="-337" font-family="Helvetica,sans-Serif" font-size="10.00">Animator/J3DSkinDeform.h</text>
</a>
</g>
</g>
<!-- Node1&#45;&gt;Node2 -->
<g id="edge1" class="edge">
<title>Node1&#45;&gt;Node2</title>
<path fill="none" stroke="#63b8ff" d="M2049.56,-388.97C2037.56,-379.61 2023.73,-368.81 2012.93,-360.39"/>
<polygon fill="#63b8ff" stroke="#63b8ff" points="2047.07,-391.47 2057.11,-394.87 2051.38,-385.95 2047.07,-391.47"/>
</g>
<!-- Node471 -->
<g id="node50" class="node">
<title>Node471</title>
<g id="a_node50"><a xlink:href="J3DCluster_8cpp.html" target="_top" xlink:title=" ">
<polygon fill="white" stroke="#666666" points="2238.5,-360 2080.5,-360 2080.5,-330 2238.5,-330 2238.5,-360"/>
<text text-anchor="start" x="2088.5" y="-348" font-family="Helvetica,sans-Serif" font-size="10.00">libs/JSystem/J3DGraphAnimator</text>
<text text-anchor="middle" x="2159.5" y="-337" font-family="Helvetica,sans-Serif" font-size="10.00">/J3DCluster.cpp</text>
</a>
</g>
</g>
<!-- Node1&#45;&gt;Node471 -->
<g id="edge74" class="edge">
<title>Node1&#45;&gt;Node471</title>
<path fill="none" stroke="#63b8ff" d="M2103.77,-388.97C2115.92,-379.61 2129.92,-368.81 2140.84,-360.39"/>
<polygon fill="#63b8ff" stroke="#63b8ff" points="2101.9,-385.99 2096.12,-394.87 2106.18,-391.54 2101.9,-385.99"/>
</g>
<!-- Node3 -->
<g id="node3" class="node">
<title>Node3</title>
<g id="a_node3"><a xlink:href="J3DModel_8h.html" target="_top" xlink:title=" ">
<polygon fill="white" stroke="#666666" points="2014,-294 1879,-294 1879,-264 2014,-264 2014,-294"/>
<text text-anchor="start" x="1887" y="-282" font-family="Helvetica,sans-Serif" font-size="10.00">include/JSystem/J3DGraph</text>
<text text-anchor="middle" x="1946.5" y="-271" font-family="Helvetica,sans-Serif" font-size="10.00">Animator/J3DModel.h</text>
</a>
</g>
</g>
<!-- Node2&#45;&gt;Node3 -->
<g id="edge2" class="edge">
<title>Node2&#45;&gt;Node3</title>
<path fill="none" stroke="#63b8ff" d="M1977.01,-320.68C1970.35,-311.79 1962.96,-301.95 1957.12,-294.16"/>
<polygon fill="#63b8ff" stroke="#63b8ff" points="1974.14,-322.69 1982.94,-328.59 1979.74,-318.49 1974.14,-322.69"/>
</g>
<!-- Node468 -->
<g id="node47" class="node">
<title>Node468</title>
<g id="a_node47"><a xlink:href="J3DSkinDeform_8cpp.html" target="_top" xlink:title=" ">
<polygon fill="white" stroke="#666666" points="2531.5,-228 2373.5,-228 2373.5,-198 2531.5,-198 2531.5,-228"/>
<text text-anchor="start" x="2381.5" y="-216" font-family="Helvetica,sans-Serif" font-size="10.00">libs/JSystem/J3DGraphAnimator</text>
<text text-anchor="middle" x="2452.5" y="-205" font-family="Helvetica,sans-Serif" font-size="10.00">/J3DSkinDeform.cpp</text>
</a>
</g>
</g>
<!-- Node2&#45;&gt;Node468 -->
<g id="edge73" class="edge">
<title>Node2&#45;&gt;Node468</title>
<path fill="none" stroke="#63b8ff" d="M2056.27,-326.47C2147.57,-300.55 2316.84,-252.5 2401.51,-228.47"/>
<polygon fill="#63b8ff" stroke="#63b8ff" points="2055.38,-323.08 2046.72,-329.18 2057.3,-329.81 2055.38,-323.08"/>
</g>
<!-- Node4 -->
<g id="node4" class="node">
<title>Node4</title>
<g id="a_node4"><a xlink:href="d__jnt__col_8h.html" target="_top" xlink:title=" ">
<polygon fill="white" stroke="#666666" points="833,-156.5 728,-156.5 728,-137.5 833,-137.5 833,-156.5"/>
<text text-anchor="middle" x="780.5" y="-144.5" font-family="Helvetica,sans-Serif" font-size="10.00">include/d/d_jnt_col.h</text>
</a>
</g>
</g>
<!-- Node3&#45;&gt;Node4 -->
<g id="edge3" class="edge">
<title>Node3&#45;&gt;Node4</title>
<path fill="none" stroke="#63b8ff" d="M1867.57,-278.05C1630.94,-277.71 938.13,-272.85 847.5,-228 815.84,-212.33 793.54,-174.12 784.71,-156.79"/>
<polygon fill="#63b8ff" stroke="#63b8ff" points="1867.31,-281.55 1877.31,-278.07 1867.32,-274.55 1867.31,-281.55"/>
</g>
<!-- Node21 -->
<g id="node21" class="node">
<title>Node21</title>
<g id="a_node21"><a xlink:href="d__simple__model_8h.html" target="_top" xlink:title=" ">
<polygon fill="white" stroke="#666666" points="2406.5,-96 2308.5,-96 2308.5,-66 2406.5,-66 2406.5,-96"/>
<text text-anchor="start" x="2316.5" y="-84" font-family="Helvetica,sans-Serif" font-size="10.00">include/d/d_simple</text>
<text text-anchor="middle" x="2357.5" y="-73" font-family="Helvetica,sans-Serif" font-size="10.00">_model.h</text>
</a>
</g>
</g>
<!-- Node3&#45;&gt;Node21 -->
<g id="edge20" class="edge">
<title>Node3&#45;&gt;Node21</title>
<path fill="none" stroke="#63b8ff" d="M1959.12,-253.53C1970.33,-234.64 1988.64,-209.79 2012.5,-198 2108.68,-150.45 2903.06,-239.27 2977.5,-162 3064.74,-71.44 2539.83,-114.84 2415.5,-96 2412.63,-95.57 2409.7,-95.06 2406.75,-94.5"/>
<polygon fill="#63b8ff" stroke="#63b8ff" points="1956.07,-251.81 1954.23,-262.24 1962.17,-255.23 1956.07,-251.81"/>
</g>
<!-- Node23 -->
<g id="node23" class="node">
<title>Node23</title>
<g id="a_node23"><a xlink:href="m__Do__ext_8h.html" target="_top" xlink:title=" ">
<polygon fill="white" stroke="#666666" points="1965.5,-222.5 1835.5,-222.5 1835.5,-203.5 1965.5,-203.5 1965.5,-222.5"/>
<text text-anchor="middle" x="1900.5" y="-210.5" font-family="Helvetica,sans-Serif" font-size="10.00">include/m_Do/m_Do_ext.h</text>
</a>
</g>
</g>
<!-- Node3&#45;&gt;Node23 -->
<g id="edge23" class="edge">
<title>Node3&#45;&gt;Node23</title>
<path fill="none" stroke="#63b8ff" d="M1929.69,-254.61C1921.75,-243.56 1912.74,-231.03 1906.86,-222.84"/>
<polygon fill="#63b8ff" stroke="#63b8ff" points="1926.73,-256.49 1935.41,-262.57 1932.41,-252.4 1926.73,-256.49"/>
</g>
<!-- Node210 -->
<g id="node26" class="node">
<title>Node210</title>
<g id="a_node26"><a xlink:href="d__a__obj__catdoor_8cpp.html" target="_top" xlink:title=" ">
<polygon fill="white" stroke="#666666" points="661.5,-30 515.5,-30 515.5,0 661.5,0 661.5,-30"/>
<text text-anchor="start" x="523.5" y="-18" font-family="Helvetica,sans-Serif" font-size="10.00">rel/d/a/obj/d_a_obj</text>
<text text-anchor="middle" x="588.5" y="-7" font-family="Helvetica,sans-Serif" font-size="10.00">_catdoor/d_a_obj_catdoor.cpp</text>
</a>
</g>
</g>
<!-- Node3&#45;&gt;Node210 -->
<g id="edge72" class="edge">
<title>Node3&#45;&gt;Node210</title>
<path fill="none" stroke="#63b8ff" d="M1867.39,-276.14C1651.26,-270.02 1055.32,-245.78 880.5,-162 826.09,-135.92 836.94,-95.86 784.5,-66 763.48,-54.03 708.33,-40.47 661.87,-30.49"/>
<polygon fill="#63b8ff" stroke="#63b8ff" points="1867.02,-279.63 1877.11,-276.41 1867.21,-272.64 1867.02,-279.63"/>
</g>
<!-- Node466 -->
<g id="node45" class="node">
<title>Node466</title>
<g id="a_node45"><a xlink:href="J3DJoint_8cpp.html" target="_top" xlink:title=" ">
<polygon fill="white" stroke="#666666" points="2179.5,-228 2021.5,-228 2021.5,-198 2179.5,-198 2179.5,-228"/>
<text text-anchor="start" x="2029.5" y="-216" font-family="Helvetica,sans-Serif" font-size="10.00">libs/JSystem/J3DGraphAnimator</text>
<text text-anchor="middle" x="2100.5" y="-205" font-family="Helvetica,sans-Serif" font-size="10.00">/J3DJoint.cpp</text>
</a>
</g>
</g>
<!-- Node3&#45;&gt;Node466 -->
<g id="edge67" class="edge">
<title>Node3&#45;&gt;Node466</title>
<path fill="none" stroke="#63b8ff" d="M1991.56,-259.27C2015.25,-249.43 2043.84,-237.55 2065.79,-228.43"/>
<polygon fill="#63b8ff" stroke="#63b8ff" points="1990.35,-255.99 1982.46,-263.06 1993.04,-262.45 1990.35,-255.99"/>
</g>
<!-- Node467 -->
<g id="node46" class="node">
<title>Node467</title>
<g id="a_node46"><a xlink:href="J3DModel_8cpp.html" target="_top" xlink:title=" ">
<polygon fill="white" stroke="#666666" points="2355.5,-228 2197.5,-228 2197.5,-198 2355.5,-198 2355.5,-228"/>
<text text-anchor="start" x="2205.5" y="-216" font-family="Helvetica,sans-Serif" font-size="10.00">libs/JSystem/J3DGraphAnimator</text>
<text text-anchor="middle" x="2276.5" y="-205" font-family="Helvetica,sans-Serif" font-size="10.00">/J3DModel.cpp</text>
</a>
</g>
</g>
<!-- Node3&#45;&gt;Node467 -->
<g id="edge68" class="edge">
<title>Node3&#45;&gt;Node467</title>
<path fill="none" stroke="#63b8ff" d="M2025.64,-262.65C2079.19,-252.27 2149.46,-238.64 2202,-228.45"/>
<polygon fill="#63b8ff" stroke="#63b8ff" points="2025.11,-259.19 2015.96,-264.53 2026.45,-266.06 2025.11,-259.19"/>
</g>
<!-- Node3&#45;&gt;Node468 -->
<g id="edge69" class="edge">
<title>Node3&#45;&gt;Node468</title>
<path fill="none" stroke="#63b8ff" d="M2025.56,-269.47C2109.7,-260.17 2246.68,-244.41 2364.5,-228 2367.41,-227.59 2370.37,-227.17 2373.37,-226.74"/>
<polygon fill="#63b8ff" stroke="#63b8ff" points="2025.36,-265.97 2015.8,-270.54 2026.12,-272.92 2025.36,-265.97"/>
</g>
<!-- Node469 -->
<g id="node48" class="node">
<title>Node469</title>
<g id="a_node48"><a xlink:href="J3DPacket_8cpp.html" target="_top" xlink:title=" ">
<polygon fill="white" stroke="#666666" points="635.5,-228 493.5,-228 493.5,-198 635.5,-198 635.5,-228"/>
<text text-anchor="start" x="501.5" y="-216" font-family="Helvetica,sans-Serif" font-size="10.00">libs/JSystem/J3DGraphBase</text>
<text text-anchor="middle" x="564.5" y="-205" font-family="Helvetica,sans-Serif" font-size="10.00">/J3DPacket.cpp</text>
</a>
</g>
</g>
<!-- Node3&#45;&gt;Node469 -->
<g id="edge70" class="edge">
<title>Node3&#45;&gt;Node469</title>
<path fill="none" stroke="#63b8ff" d="M1867.4,-278.67C1663.92,-279.58 1105.95,-277.01 644.5,-228 641.7,-227.7 638.84,-227.37 635.96,-227"/>
<polygon fill="#63b8ff" stroke="#63b8ff" points="1867.35,-282.17 1877.33,-278.62 1867.31,-275.17 1867.35,-282.17"/>
</g>
<!-- Node470 -->
<g id="node49" class="node">
<title>Node470</title>
<g id="a_node49"><a xlink:href="J3DShapeMtx_8cpp.html" target="_top" xlink:title=" ">
<polygon fill="white" stroke="#666666" points="795.5,-228 653.5,-228 653.5,-198 795.5,-198 795.5,-228"/>
<text text-anchor="start" x="661.5" y="-216" font-family="Helvetica,sans-Serif" font-size="10.00">libs/JSystem/J3DGraphBase</text>
<text text-anchor="middle" x="724.5" y="-205" font-family="Helvetica,sans-Serif" font-size="10.00">/J3DShapeMtx.cpp</text>
</a>
</g>
</g>
<!-- Node3&#45;&gt;Node470 -->
<g id="edge71" class="edge">
<title>Node3&#45;&gt;Node470</title>
<path fill="none" stroke="#63b8ff" d="M1867.44,-277.76C1682.09,-276.5 1205.32,-269.15 809.5,-228 805.04,-227.54 800.45,-226.99 795.84,-226.38"/>
<polygon fill="#63b8ff" stroke="#63b8ff" points="1867.16,-281.26 1877.18,-277.82 1867.2,-274.26 1867.16,-281.26"/>
</g>
<!-- Node5 -->
<g id="node5" class="node">
<title>Node5</title>
<g id="a_node5"><a xlink:href="d__a__alink_8h.html" target="_top" xlink:title=" ">
<polygon fill="white" stroke="#666666" points="1184.5,-90.5 1068.5,-90.5 1068.5,-71.5 1184.5,-71.5 1184.5,-90.5"/>
<text text-anchor="middle" x="1126.5" y="-78.5" font-family="Helvetica,sans-Serif" font-size="10.00">include/d/a/d_a_alink.h</text>
</a>
</g>
</g>
<!-- Node4&#45;&gt;Node5 -->
<g id="edge4" class="edge">
<title>Node4&#45;&gt;Node5</title>
<path fill="none" stroke="#63b8ff" d="M840.23,-134.95C907.58,-122.49 1015.77,-102.48 1078.08,-90.96"/>
<polygon fill="#63b8ff" stroke="#63b8ff" points="839.66,-131.5 830.46,-136.76 840.93,-138.38 839.66,-131.5"/>
</g>
<!-- Node19 -->
<g id="node19" class="node">
<title>Node19</title>
<g id="a_node19"><a xlink:href="d__cc__s_8cpp.html" target="_top" xlink:title=" ">
<polygon fill="white" stroke="#666666" points="217.5,-24.5 113.5,-24.5 113.5,-5.5 217.5,-5.5 217.5,-24.5"/>
<text text-anchor="middle" x="165.5" y="-12.5" font-family="Helvetica,sans-Serif" font-size="10.00">src/d/cc/d_cc_s.cpp</text>
</a>
</g>
</g>
<!-- Node4&#45;&gt;Node19 -->
<g id="edge18" class="edge">
<title>Node4&#45;&gt;Node19</title>
<path fill="none" stroke="#63b8ff" d="M781.85,-125.79C781.87,-107.22 778.59,-80.46 761.5,-66 716.02,-27.51 285.44,-38.69 226.5,-30 217.9,-28.73 208.72,-26.89 200.16,-24.95"/>
<polygon fill="#63b8ff" stroke="#63b8ff" points="778.36,-125.45 781.49,-135.57 785.35,-125.71 778.36,-125.45"/>
</g>
<!-- Node20 -->
<g id="node20" class="node">
<title>Node20</title>
<g id="a_node20"><a xlink:href="d__jnt__col_8cpp.html" target="_top" xlink:title=" ">
<polygon fill="white" stroke="#666666" points="752.5,-90.5 654.5,-90.5 654.5,-71.5 752.5,-71.5 752.5,-90.5"/>
<text text-anchor="middle" x="703.5" y="-78.5" font-family="Helvetica,sans-Serif" font-size="10.00">src/d/d_jnt_col.cpp</text>
</a>
</g>
</g>
<!-- Node4&#45;&gt;Node20 -->
<g id="edge19" class="edge">
<title>Node4&#45;&gt;Node20</title>
<path fill="none" stroke="#63b8ff" d="M761.3,-130.04C746.38,-117.64 726.26,-100.92 714.12,-90.82"/>
<polygon fill="#63b8ff" stroke="#63b8ff" points="758.7,-132.43 768.63,-136.13 763.18,-127.05 758.7,-132.43"/>
</g>
<!-- Node6 -->
<g id="node6" class="node">
<title>Node6</title>
<g id="a_node6"><a xlink:href="d__a__boomerang_8cpp.html" target="_top" xlink:title=" ">
<polygon fill="white" stroke="#666666" points="1604.5,-30 1488.5,-30 1488.5,0 1604.5,0 1604.5,-30"/>
<text text-anchor="start" x="1496.5" y="-18" font-family="Helvetica,sans-Serif" font-size="10.00">rel/d/a/d_a_boomerang</text>
<text text-anchor="middle" x="1546.5" y="-7" font-family="Helvetica,sans-Serif" font-size="10.00">/d_a_boomerang.cpp</text>
</a>
</g>
</g>
<!-- Node5&#45;&gt;Node6 -->
<g id="edge5" class="edge">
<title>Node5&#45;&gt;Node6</title>
<path fill="none" stroke="#63b8ff" d="M1195.95,-71.43C1267.1,-62.34 1380.8,-46.98 1478.5,-30 1481.71,-29.44 1484.99,-28.85 1488.31,-28.23"/>
<polygon fill="#63b8ff" stroke="#63b8ff" points="1195.89,-67.9 1186.41,-72.64 1196.77,-74.85 1195.89,-67.9"/>
</g>
<!-- Node7 -->
<g id="node7" class="node">
<title>Node7</title>
<g id="a_node7"><a xlink:href="d__a__crod_8cpp.html" target="_top" xlink:title=" ">
<polygon fill="white" stroke="#666666" points="95,-30 0,-30 0,0 95,0 95,-30"/>
<text text-anchor="start" x="8" y="-18" font-family="Helvetica,sans-Serif" font-size="10.00">rel/d/a/d_a_crod/d</text>
<text text-anchor="middle" x="47.5" y="-7" font-family="Helvetica,sans-Serif" font-size="10.00">_a_crod.cpp</text>
</a>
</g>
</g>
<!-- Node5&#45;&gt;Node7 -->
<g id="edge6" class="edge">
<title>Node5&#45;&gt;Node7</title>
<path fill="none" stroke="#63b8ff" d="M1056.73,-77.36C841.7,-69.13 197.98,-43.64 104.5,-30 101.48,-29.56 98.38,-29.03 95.26,-28.44"/>
<polygon fill="#63b8ff" stroke="#63b8ff" points="1056.52,-80.86 1066.65,-77.74 1056.79,-73.86 1056.52,-80.86"/>
</g>
<!-- Node8 -->
<g id="node8" class="node">
<title>Node8</title>
<g id="a_node8"><a xlink:href="d__a__spinner_8cpp.html" target="_top" xlink:title=" ">
<polygon fill="white" stroke="#666666" points="335,-30 236,-30 236,0 335,0 335,-30"/>
<text text-anchor="start" x="244" y="-18" font-family="Helvetica,sans-Serif" font-size="10.00">rel/d/a/d_a_spinner</text>
<text text-anchor="middle" x="285.5" y="-7" font-family="Helvetica,sans-Serif" font-size="10.00">/d_a_spinner.cpp</text>
</a>
</g>
</g>
<!-- Node5&#45;&gt;Node8 -->
<g id="edge7" class="edge">
<title>Node5&#45;&gt;Node8</title>
<path fill="none" stroke="#63b8ff" d="M1056.8,-77.06C891.79,-69.85 480.9,-50.39 344.5,-30 341.48,-29.55 338.39,-29.02 335.28,-28.44"/>
<polygon fill="#63b8ff" stroke="#63b8ff" points="1056.59,-80.55 1066.73,-77.49 1056.89,-73.56 1056.59,-80.55"/>
</g>
<!-- Node9 -->
<g id="node9" class="node">
<title>Node9</title>
<g id="a_node9"><a xlink:href="d__a__tag__mwait_8cpp.html" target="_top" xlink:title=" ">
<polygon fill="white" stroke="#666666" points="1758,-30 1623,-30 1623,0 1758,0 1758,-30"/>
<text text-anchor="start" x="1631" y="-18" font-family="Helvetica,sans-Serif" font-size="10.00">rel/d/a/tag/d_a_tag</text>
<text text-anchor="middle" x="1690.5" y="-7" font-family="Helvetica,sans-Serif" font-size="10.00">_mwait/d_a_tag_mwait.cpp</text>
</a>
</g>
</g>
<!-- Node5&#45;&gt;Node9 -->
<g id="edge8" class="edge">
<title>Node5&#45;&gt;Node9</title>
<path fill="none" stroke="#63b8ff" d="M1196.2,-74.55C1290.93,-66.76 1465.47,-51.02 1613.5,-30 1616.46,-29.58 1619.48,-29.13 1622.53,-28.65"/>
<polygon fill="#63b8ff" stroke="#63b8ff" points="1195.97,-71.06 1186.28,-75.36 1196.54,-78.04 1195.97,-71.06"/>
</g>
<!-- Node10 -->
<g id="node10" class="node">
<title>Node10</title>
<g id="a_node10"><a xlink:href="d__a__tag__wljump_8cpp.html" target="_top" xlink:title=" ">
<polygon fill="white" stroke="#666666" points="497.5,-30 353.5,-30 353.5,0 497.5,0 497.5,-30"/>
<text text-anchor="start" x="361.5" y="-18" font-family="Helvetica,sans-Serif" font-size="10.00">rel/d/a/tag/d_a_tag</text>
<text text-anchor="middle" x="425.5" y="-7" font-family="Helvetica,sans-Serif" font-size="10.00">_wljump/d_a_tag_wljump.cpp</text>
</a>
</g>
</g>
<!-- Node5&#45;&gt;Node10 -->
<g id="edge9" class="edge">
<title>Node5&#45;&gt;Node10</title>
<path fill="none" stroke="#63b8ff" d="M1056.78,-76.44C941.81,-70.12 705.37,-55.15 506.5,-30 503.67,-29.64 500.78,-29.25 497.87,-28.84"/>
<polygon fill="#63b8ff" stroke="#63b8ff" points="1056.51,-79.93 1066.68,-76.98 1056.89,-72.94 1056.51,-79.93"/>
</g>
<!-- Node11 -->
<g id="node11" class="node">
<title>Node11</title>
<g id="a_node11"><a xlink:href="d__a__alink_8cpp.html" target="_top" xlink:title=" ">
<polygon fill="white" stroke="#666666" points="1885,-24.5 1776,-24.5 1776,-5.5 1885,-5.5 1885,-24.5"/>
<text text-anchor="middle" x="1830.5" y="-12.5" font-family="Helvetica,sans-Serif" font-size="10.00">src/d/a/d_a_alink.cpp</text>
</a>
</g>
</g>
<!-- Node5&#45;&gt;Node11 -->
<g id="edge10" class="edge">
<title>Node5&#45;&gt;Node11</title>
<path fill="none" stroke="#63b8ff" d="M1195.95,-75.79C1338.11,-66.96 1658.01,-46.03 1766.5,-30 1775.39,-28.69 1784.89,-26.85 1793.77,-24.94"/>
<polygon fill="#63b8ff" stroke="#63b8ff" points="1196.08,-72.27 1186.31,-76.38 1196.51,-79.26 1196.08,-72.27"/>
</g>
<!-- Node12 -->
<g id="node12" class="node">
<title>Node12</title>
<g id="a_node12"><a xlink:href="d__a__player_8cpp.html" target="_top" xlink:title=" ">
<polygon fill="white" stroke="#666666" points="793.5,-24.5 679.5,-24.5 679.5,-5.5 793.5,-5.5 793.5,-24.5"/>
<text text-anchor="middle" x="736.5" y="-12.5" font-family="Helvetica,sans-Serif" font-size="10.00">src/d/a/d_a_player.cpp</text>
</a>
</g>
</g>
<!-- Node5&#45;&gt;Node12 -->
<g id="edge11" class="edge">
<title>Node5&#45;&gt;Node12</title>
<path fill="none" stroke="#63b8ff" d="M1057.06,-70.43C991.32,-61.1 889.96,-46.01 802.5,-30 794.2,-28.48 785.35,-26.71 776.92,-24.95"/>
<polygon fill="#63b8ff" stroke="#63b8ff" points="1056.21,-73.84 1066.6,-71.78 1057.19,-66.91 1056.21,-73.84"/>
</g>
<!-- Node13 -->
<g id="node13" class="node">
<title>Node13</title>
<g id="a_node13"><a xlink:href="d__com__inf__game_8cpp.html" target="_top" xlink:title=" ">
<polygon fill="white" stroke="#666666" points="2390.5,-30 2282.5,-30 2282.5,0 2390.5,0 2390.5,-30"/>
<text text-anchor="start" x="2290.5" y="-18" font-family="Helvetica,sans-Serif" font-size="10.00">src/d/com/d_com_inf</text>
<text text-anchor="middle" x="2336.5" y="-7" font-family="Helvetica,sans-Serif" font-size="10.00">_game.cpp</text>
</a>
</g>
</g>
<!-- Node5&#45;&gt;Node13 -->
<g id="edge12" class="edge">
<title>Node5&#45;&gt;Node13</title>
<path fill="none" stroke="#63b8ff" d="M1196.24,-75.84C1246.82,-72.89 1316.88,-68.95 1378.5,-66 1775.7,-46.97 1878.09,-80.68 2272.5,-30 2275.66,-29.59 2278.89,-29.11 2282.15,-28.57"/>
<polygon fill="#63b8ff" stroke="#63b8ff" points="1196.08,-72.34 1186.3,-76.42 1196.49,-79.33 1196.08,-72.34"/>
</g>
<!-- Node14 -->
<g id="node14" class="node">
<title>Node14</title>
<g id="a_node14"><a xlink:href="d__camera_8cpp.html" target="_top" xlink:title=" ">
<polygon fill="white" stroke="#666666" points="913.5,-24.5 811.5,-24.5 811.5,-5.5 913.5,-5.5 913.5,-24.5"/>
<text text-anchor="middle" x="862.5" y="-12.5" font-family="Helvetica,sans-Serif" font-size="10.00">src/d/d_camera.cpp</text>
</a>
</g>
</g>
<!-- Node5&#45;&gt;Node14 -->
<g id="edge13" class="edge">
<title>Node5&#45;&gt;Node14</title>
<path fill="none" stroke="#63b8ff" d="M1078.33,-68.32C1026.72,-55.81 945.95,-36.23 899.24,-24.91"/>
<polygon fill="#63b8ff" stroke="#63b8ff" points="1077.5,-71.72 1088.04,-70.68 1079.15,-64.92 1077.5,-71.72"/>
</g>
<!-- Node15 -->
<g id="node15" class="node">
<title>Node15</title>
<g id="a_node15"><a xlink:href="d__event_8cpp.html" target="_top" xlink:title=" ">
<polygon fill="white" stroke="#666666" points="1053,-24.5 932,-24.5 932,-5.5 1053,-5.5 1053,-24.5"/>
<text text-anchor="middle" x="992.5" y="-12.5" font-family="Helvetica,sans-Serif" font-size="10.00">src/d/event/d_event.cpp</text>
</a>
</g>
</g>
<!-- Node5&#45;&gt;Node15 -->
<g id="edge14" class="edge">
<title>Node5&#45;&gt;Node15</title>
<path fill="none" stroke="#63b8ff" d="M1097.75,-66.27C1071.48,-53.72 1033.4,-35.54 1010.97,-24.82"/>
<polygon fill="#63b8ff" stroke="#63b8ff" points="1095.97,-69.3 1106.5,-70.45 1098.99,-62.98 1095.97,-69.3"/>
</g>
<!-- Node16 -->
<g id="node16" class="node">
<title>Node16</title>
<g id="a_node16"><a xlink:href="d__meter2__draw_8cpp.html" target="_top" xlink:title=" ">
<polygon fill="white" stroke="#666666" points="1181.5,-30 1071.5,-30 1071.5,0 1181.5,0 1181.5,-30"/>
<text text-anchor="start" x="1079.5" y="-18" font-family="Helvetica,sans-Serif" font-size="10.00">src/d/meter/d_meter2</text>
<text text-anchor="middle" x="1126.5" y="-7" font-family="Helvetica,sans-Serif" font-size="10.00">_draw.cpp</text>
</a>
</g>
</g>
<!-- Node5&#45;&gt;Node16 -->
<g id="edge15" class="edge">
<title>Node5&#45;&gt;Node16</title>
<path fill="none" stroke="#63b8ff" d="M1126.5,-59.78C1126.5,-50.17 1126.5,-38.92 1126.5,-30.23"/>
<polygon fill="#63b8ff" stroke="#63b8ff" points="1123,-59.59 1126.5,-69.59 1130,-59.59 1123,-59.59"/>
</g>
<!-- Node17 -->
<g id="node17" class="node">
<title>Node17</title>
<g id="a_node17"><a xlink:href="d__msg__flow_8cpp.html" target="_top" xlink:title=" ">
<polygon fill="white" stroke="#666666" points="1333,-24.5 1200,-24.5 1200,-5.5 1333,-5.5 1333,-24.5"/>
<text text-anchor="middle" x="1266.5" y="-12.5" font-family="Helvetica,sans-Serif" font-size="10.00">src/d/msg/d_msg_flow.cpp</text>
</a>
</g>
</g>
<!-- Node5&#45;&gt;Node17 -->
<g id="edge16" class="edge">
<title>Node5&#45;&gt;Node17</title>
<path fill="none" stroke="#63b8ff" d="M1156.17,-66.44C1183.63,-53.88 1223.66,-35.58 1247.2,-24.82"/>
<polygon fill="#63b8ff" stroke="#63b8ff" points="1154.98,-63.13 1147.34,-70.47 1157.89,-69.5 1154.98,-63.13"/>
</g>
<!-- Node18 -->
<g id="node18" class="node">
<title>Node18</title>
<g id="a_node18"><a xlink:href="f__op__actor_8cpp.html" target="_top" xlink:title=" ">
<polygon fill="white" stroke="#666666" points="1470,-24.5 1351,-24.5 1351,-5.5 1470,-5.5 1470,-24.5"/>
<text text-anchor="middle" x="1410.5" y="-12.5" font-family="Helvetica,sans-Serif" font-size="10.00">src/f_op/f_op_actor.cpp</text>
</a>
</g>
</g>
<!-- Node5&#45;&gt;Node18 -->
<g id="edge17" class="edge">
<title>Node5&#45;&gt;Node18</title>
<path fill="none" stroke="#63b8ff" d="M1177.27,-68.56C1232.74,-56.06 1320.41,-36.3 1370.98,-24.91"/>
<polygon fill="#63b8ff" stroke="#63b8ff" points="1176.75,-65.09 1167.76,-70.7 1178.29,-71.92 1176.75,-65.09"/>
</g>
<!-- Node21&#45;&gt;Node13 -->
<g id="edge21" class="edge">
<title>Node21&#45;&gt;Node13</title>
<path fill="none" stroke="#63b8ff" d="M2349.29,-54.97C2346.52,-46.55 2343.54,-37.45 2341.15,-30.16"/>
<polygon fill="#63b8ff" stroke="#63b8ff" points="2345.92,-55.95 2352.37,-64.36 2352.58,-53.77 2345.92,-55.95"/>
</g>
<!-- Node22 -->
<g id="node22" class="node">
<title>Node22</title>
<g id="a_node22"><a xlink:href="d__simple__model_8cpp.html" target="_top" xlink:title=" ">
<polygon fill="white" stroke="#666666" points="2538.5,-24.5 2408.5,-24.5 2408.5,-5.5 2538.5,-5.5 2538.5,-24.5"/>
<text text-anchor="middle" x="2473.5" y="-12.5" font-family="Helvetica,sans-Serif" font-size="10.00">src/d/d_simple_model.cpp</text>
</a>
</g>
</g>
<!-- Node21&#45;&gt;Node22 -->
<g id="edge22" class="edge">
<title>Node21&#45;&gt;Node22</title>
<path fill="none" stroke="#63b8ff" d="M2393.55,-60.11C2414.85,-48.36 2440.78,-34.05 2457.21,-24.99"/>
<polygon fill="#63b8ff" stroke="#63b8ff" points="2391.92,-57.01 2384.86,-64.91 2395.3,-63.14 2391.92,-57.01"/>
</g>
<!-- Node24 -->
<g id="node24" class="node">
<title>Node24</title>
<g id="a_node24"><a xlink:href="d__attention_8h.html" target="_top" xlink:title=" ">
<polygon fill="#fff0f0" stroke="red" points="1495.5,-156.5 1381.5,-156.5 1381.5,-137.5 1495.5,-137.5 1495.5,-156.5"/>
<text text-anchor="middle" x="1438.5" y="-144.5" font-family="Helvetica,sans-Serif" font-size="10.00">include/d/d_attention.h</text>
</a>
</g>
</g>
<!-- Node23&#45;&gt;Node24 -->
<g id="edge24" class="edge">
<title>Node23&#45;&gt;Node24</title>
<path fill="none" stroke="#63b8ff" d="M1823.65,-204.22C1743.66,-195.67 1614.89,-180.64 1504.5,-162 1495.95,-160.56 1486.83,-158.78 1478.18,-156.98"/>
<polygon fill="#63b8ff" stroke="#63b8ff" points="1823.27,-207.7 1833.58,-205.27 1824.01,-200.74 1823.27,-207.7"/>
</g>
<!-- Node240 -->
<g id="node27" class="node">
<title>Node240</title>
<g id="a_node27"><a xlink:href="c__dylink_8cpp.html" target="_top" xlink:title=" ">
<polygon fill="white" stroke="#666666" points="2117,-24.5 2022,-24.5 2022,-5.5 2117,-5.5 2117,-24.5"/>
<text text-anchor="middle" x="2069.5" y="-12.5" font-family="Helvetica,sans-Serif" font-size="10.00">src/c/c_dylink.cpp</text>
</a>
</g>
</g>
<!-- Node23&#45;&gt;Node240 -->
<g id="edge56" class="edge">
<title>Node23&#45;&gt;Node240</title>
<path fill="none" stroke="#63b8ff" d="M1873.95,-197.02C1861.65,-188.51 1848.27,-176.61 1841.5,-162 1823.56,-123.29 1814.62,-99.13 1841.5,-66 1890.44,-5.69 1936.78,-47.27 2012.5,-30 2019.36,-28.44 2026.66,-26.7 2033.66,-25"/>
<polygon fill="#63b8ff" stroke="#63b8ff" points="1871.87,-199.84 1882.17,-202.3 1875.65,-193.95 1871.87,-199.84"/>
</g>
<!-- Node178 -->
<g id="node28" class="node">
<title>Node178</title>
<g id="a_node28"><a xlink:href="f__op__actor__mng_8cpp.html" target="_top" xlink:title=" ">
<polygon fill="white" stroke="#666666" points="2004,-30 1903,-30 1903,0 2004,0 2004,-30"/>
<text text-anchor="start" x="1911" y="-18" font-family="Helvetica,sans-Serif" font-size="10.00">src/f_op/f_op_actor</text>
<text text-anchor="middle" x="1953.5" y="-7" font-family="Helvetica,sans-Serif" font-size="10.00">_mng.cpp</text>
</a>
</g>
</g>
<!-- Node23&#45;&gt;Node178 -->
<g id="edge59" class="edge">
<title>Node23&#45;&gt;Node178</title>
<path fill="none" stroke="#63b8ff" d="M1852.17,-199.02C1833.61,-191.42 1814.3,-179.72 1803.5,-162 1781.29,-125.57 1778.55,-100.61 1803.5,-66 1809.62,-57.51 1861.68,-41.39 1902.77,-29.75"/>
<polygon fill="#63b8ff" stroke="#63b8ff" points="1850.93,-202.3 1861.53,-202.51 1853.38,-195.74 1850.93,-202.3"/>
</g>
<!-- Node297 -->
<g id="node29" class="node">
<title>Node297</title>
<g id="a_node29"><a xlink:href="m__Do__ext_8cpp.html" target="_top" xlink:title=" ">
<polygon fill="white" stroke="#666666" points="2680,-24.5 2557,-24.5 2557,-5.5 2680,-5.5 2680,-24.5"/>
<text text-anchor="middle" x="2618.5" y="-12.5" font-family="Helvetica,sans-Serif" font-size="10.00">src/m_Do/m_Do_ext.cpp</text>
</a>
</g>
</g>
<!-- Node23&#45;&gt;Node297 -->
<g id="edge63" class="edge">
<title>Node23&#45;&gt;Node297</title>
<path fill="none" stroke="#63b8ff" d="M1977.11,-201.77C1988.94,-200.38 2001.04,-199.07 2012.5,-198 2077.56,-191.94 2551.75,-206.6 2599.5,-162 2638.73,-125.36 2626.38,-50.59 2620.68,-24.9"/>
<polygon fill="#63b8ff" stroke="#63b8ff" points="1976.88,-198.27 1967.37,-202.94 1977.72,-205.22 1976.88,-198.27"/>
</g>
<!-- Node300 -->
<g id="node30" class="node">
<title>Node300</title>
<g id="a_node30"><a xlink:href="m__Do__machine__exception_8cpp.html" target="_top" xlink:title=" ">
<polygon fill="white" stroke="#666666" points="2264,-30 2135,-30 2135,0 2264,0 2264,-30"/>
<text text-anchor="start" x="2143" y="-18" font-family="Helvetica,sans-Serif" font-size="10.00">src/m_Do/m_Do_machine</text>
<text text-anchor="middle" x="2199.5" y="-7" font-family="Helvetica,sans-Serif" font-size="10.00">_exception.cpp</text>
</a>
</g>
</g>
<!-- Node23&#45;&gt;Node300 -->
<g id="edge65" class="edge">
<title>Node23&#45;&gt;Node300</title>
<path fill="none" stroke="#63b8ff" d="M1886.33,-194.37C1874.36,-177.19 1861.14,-150.96 1874.5,-132 1905.09,-88.6 2049.12,-49.69 2134.84,-29.86"/>
<polygon fill="#63b8ff" stroke="#63b8ff" points="1883.32,-196.19 1892.11,-202.1 1888.93,-192 1883.32,-196.19"/>
</g>
<!-- Node304 -->
<g id="node32" class="node">
<title>Node304</title>
<g id="a_node32"><a xlink:href="d__drawlist_8h.html" target="_top" xlink:title=" ">
<polygon fill="#fff0f0" stroke="red" points="1623.5,-156.5 1513.5,-156.5 1513.5,-137.5 1623.5,-137.5 1623.5,-156.5"/>
<text text-anchor="middle" x="1568.5" y="-144.5" font-family="Helvetica,sans-Serif" font-size="10.00">include/d/d_drawlist.h</text>
</a>
</g>
</g>
<!-- Node23&#45;&gt;Node304 -->
<g id="edge45" class="edge">
<title>Node23&#45;&gt;Node304</title>
<path fill="none" stroke="#63b8ff" d="M1838.85,-201.06C1784.46,-191.27 1703.09,-176.3 1632.5,-162 1624.7,-160.42 1616.38,-158.66 1608.4,-156.93"/>
<polygon fill="#63b8ff" stroke="#63b8ff" points="1838.08,-204.47 1848.54,-202.8 1839.31,-197.58 1838.08,-204.47"/>
</g>
<!-- Node349 -->
<g id="node33" class="node">
<title>Node349</title>
<g id="a_node33"><a xlink:href="d__ky__thunder_8h.html" target="_top" xlink:title=" ">
<polygon fill="#fff0f0" stroke="red" points="2007.5,-156.5 1883.5,-156.5 1883.5,-137.5 2007.5,-137.5 2007.5,-156.5"/>
<text text-anchor="middle" x="1945.5" y="-144.5" font-family="Helvetica,sans-Serif" font-size="10.00">include/d/d_ky_thunder.h</text>
</a>
</g>
</g>
<!-- Node23&#45;&gt;Node349 -->
<g id="edge47" class="edge">
<title>Node23&#45;&gt;Node349</title>
<path fill="none" stroke="#63b8ff" d="M1913.23,-193.9C1921.75,-181.77 1932.6,-166.34 1939.3,-156.82"/>
<polygon fill="#63b8ff" stroke="#63b8ff" points="1910.52,-191.67 1907.63,-201.86 1916.24,-195.7 1910.52,-191.67"/>
</g>
<!-- Node350 -->
<g id="node34" class="node">
<title>Node350</title>
<g id="a_node34"><a xlink:href="d__resorce_8h.html" target="_top" xlink:title=" ">
<polygon fill="#fff0f0" stroke="red" points="1751,-156.5 1642,-156.5 1642,-137.5 1751,-137.5 1751,-156.5"/>
<text text-anchor="middle" x="1696.5" y="-144.5" font-family="Helvetica,sans-Serif" font-size="10.00">include/d/d_resorce.h</text>
</a>
</g>
</g>
<!-- Node23&#45;&gt;Node350 -->
<g id="edge48" class="edge">
<title>Node23&#45;&gt;Node350</title>
<path fill="none" stroke="#63b8ff" d="M1861.22,-199.68C1821.3,-187.15 1760.44,-168.06 1724.95,-156.93"/>
<polygon fill="#63b8ff" stroke="#63b8ff" points="1860.1,-202.99 1870.69,-202.65 1862.2,-196.32 1860.1,-202.99"/>
</g>
<!-- Node351 -->
<g id="node35" class="node">
<title>Node351</title>
<g id="a_node35"><a xlink:href="d__kankyo_8h.html" target="_top" xlink:title=" ">
<polygon fill="#fff0f0" stroke="red" points="2522.5,-96 2424.5,-96 2424.5,-66 2522.5,-66 2522.5,-96"/>
<text text-anchor="start" x="2432.5" y="-84" font-family="Helvetica,sans-Serif" font-size="10.00">include/d/kankyo/d</text>
<text text-anchor="middle" x="2473.5" y="-73" font-family="Helvetica,sans-Serif" font-size="10.00">_kankyo.h</text>
</a>
</g>
</g>
<!-- Node23&#45;&gt;Node351 -->
<g id="edge50" class="edge">
<title>Node23&#45;&gt;Node351</title>
<path fill="none" stroke="#63b8ff" d="M1977.14,-202.05C1988.97,-200.62 2001.06,-199.22 2012.5,-198 2102.12,-188.41 2338.29,-206.81 2416.5,-162 2442.54,-147.08 2459.72,-114.86 2467.91,-96.18"/>
<polygon fill="#63b8ff" stroke="#63b8ff" points="1976.9,-198.56 1967.4,-203.25 1977.75,-205.5 1976.9,-198.56"/>
</g>
<!-- Node308 -->
<g id="node36" class="node">
<title>Node308</title>
<g id="a_node36"><a xlink:href="d__a__do_8h.html" target="_top" xlink:title=" ">
<polygon fill="#fff0f0" stroke="red" points="2121.5,-162 2025.5,-162 2025.5,-132 2121.5,-132 2121.5,-162"/>
<text text-anchor="start" x="2033.5" y="-150" font-family="Helvetica,sans-Serif" font-size="10.00">include/rel/d/a/d_a</text>
<text text-anchor="middle" x="2073.5" y="-139" font-family="Helvetica,sans-Serif" font-size="10.00">_do/d_a_do.h</text>
</a>
</g>
</g>
<!-- Node23&#45;&gt;Node308 -->
<g id="edge54" class="edge">
<title>Node23&#45;&gt;Node308</title>
<path fill="none" stroke="#63b8ff" d="M1935.28,-199.13C1963.94,-188.53 2004.57,-173.5 2034.37,-162.48"/>
<polygon fill="#63b8ff" stroke="#63b8ff" points="1934.14,-195.82 1925.97,-202.58 1936.57,-202.39 1934.14,-195.82"/>
</g>
<!-- Node458 -->
<g id="node37" class="node">
<title>Node458</title>
<g id="a_node37"><a xlink:href="DynamicLink_8cpp.html" target="_top" xlink:title=" ">
<polygon fill="white" stroke="#666666" points="2247,-156.5 2140,-156.5 2140,-137.5 2247,-137.5 2247,-156.5"/>
<text text-anchor="middle" x="2193.5" y="-144.5" font-family="Helvetica,sans-Serif" font-size="10.00">src/DynamicLink.cpp</text>
</a>
</g>
</g>
<!-- Node23&#45;&gt;Node458 -->
<g id="edge55" class="edge">
<title>Node23&#45;&gt;Node458</title>
<path fill="none" stroke="#63b8ff" d="M1953.1,-200.64C1999.73,-190.55 2069.66,-175.37 2130.5,-162 2137.83,-160.39 2145.64,-158.66 2153.18,-156.99"/>
<polygon fill="#63b8ff" stroke="#63b8ff" points="1952.58,-197.17 1943.54,-202.7 1954.06,-204.01 1952.58,-197.17"/>
</g>
<!-- Node459 -->
<g id="node38" class="node">
<title>Node459</title>
<g id="a_node38"><a xlink:href="d__pane__class_8cpp.html" target="_top" xlink:title=" ">
<polygon fill="white" stroke="#666666" points="2408,-156.5 2265,-156.5 2265,-137.5 2408,-137.5 2408,-156.5"/>
<text text-anchor="middle" x="2336.5" y="-144.5" font-family="Helvetica,sans-Serif" font-size="10.00">src/d/pane/d_pane_class.cpp</text>
</a>
</g>
</g>
<!-- Node23&#45;&gt;Node459 -->
<g id="edge57" class="edge">
<title>Node23&#45;&gt;Node459</title>
<path fill="none" stroke="#63b8ff" d="M1959.93,-201.17C1966.52,-200.06 1973.15,-198.98 1979.5,-198 2101.77,-179.2 2133.19,-180.54 2255.5,-162 2265.52,-160.48 2276.21,-158.73 2286.43,-156.99"/>
<polygon fill="#63b8ff" stroke="#63b8ff" points="1959.66,-197.66 1950.4,-202.8 1960.85,-204.56 1959.66,-197.66"/>
</g>
<!-- Node460 -->
<g id="node39" class="node">
<title>Node460</title>
<g id="a_node39"><a xlink:href="d__pane__class__alpha_8cpp.html" target="_top" xlink:title=" ">
<polygon fill="white" stroke="#666666" points="2590,-162 2465,-162 2465,-132 2590,-132 2590,-162"/>
<text text-anchor="start" x="2473" y="-150" font-family="Helvetica,sans-Serif" font-size="10.00">src/d/pane/d_pane_class</text>
<text text-anchor="middle" x="2527.5" y="-139" font-family="Helvetica,sans-Serif" font-size="10.00">_alpha.cpp</text>
</a>
</g>
</g>
<!-- Node23&#45;&gt;Node460 -->
<g id="edge58" class="edge">
<title>Node23&#45;&gt;Node460</title>
<path fill="none" stroke="#63b8ff" d="M1957.99,-201.13C1965.21,-199.96 1972.52,-198.88 1979.5,-198 2187.78,-171.65 2242.28,-188.81 2450.5,-162 2455.08,-161.41 2459.8,-160.73 2464.55,-159.99"/>
<polygon fill="#63b8ff" stroke="#63b8ff" points="1957.53,-197.66 1948.24,-202.76 1958.69,-204.56 1957.53,-197.66"/>
</g>
<!-- Node461 -->
<g id="node40" class="node">
<title>Node461</title>
<g id="a_node40"><a xlink:href="m__Do__DVDError_8cpp.html" target="_top" xlink:title=" ">
<polygon fill="white" stroke="#666666" points="2798,-156.5 2647,-156.5 2647,-137.5 2798,-137.5 2798,-156.5"/>
<text text-anchor="middle" x="2722.5" y="-144.5" font-family="Helvetica,sans-Serif" font-size="10.00">src/m_Do/m_Do_DVDError.cpp</text>
</a>
</g>
</g>
<!-- Node23&#45;&gt;Node461 -->
<g id="edge60" class="edge">
<title>Node23&#45;&gt;Node461</title>
<path fill="none" stroke="#63b8ff" d="M1956.59,-201.2C1964.27,-199.98 1972.06,-198.86 1979.5,-198 2268.24,-164.58 2343.43,-192.38 2632.5,-162 2644.92,-160.69 2658.25,-158.86 2670.74,-156.95"/>
<polygon fill="#63b8ff" stroke="#63b8ff" points="1956.26,-197.71 1946.97,-202.81 1957.41,-204.61 1956.26,-197.71"/>
</g>
<!-- Node462 -->
<g id="node41" class="node">
<title>Node462</title>
<g id="a_node41"><a xlink:href="m__Do__MemCard_8cpp.html" target="_top" xlink:title=" ">
<polygon fill="white" stroke="#666666" points="2968.5,-156.5 2816.5,-156.5 2816.5,-137.5 2968.5,-137.5 2968.5,-156.5"/>
<text text-anchor="middle" x="2892.5" y="-144.5" font-family="Helvetica,sans-Serif" font-size="10.00">src/m_Do/m_Do_MemCard.cpp</text>
</a>
</g>
</g>
<!-- Node23&#45;&gt;Node462 -->
<g id="edge61" class="edge">
<title>Node23&#45;&gt;Node462</title>
<path fill="none" stroke="#63b8ff" d="M1956.29,-201.17C1964.06,-199.94 1971.96,-198.83 1979.5,-198 2345.64,-157.77 2441.12,-200 2807.5,-162 2819.55,-160.75 2832.48,-158.89 2844.54,-156.93"/>
<polygon fill="#63b8ff" stroke="#63b8ff" points="1955.84,-197.7 1946.55,-202.8 1956.99,-204.6 1955.84,-197.7"/>
</g>
<!-- Node463 -->
<g id="node42" class="node">
<title>Node463</title>
<g id="a_node42"><a xlink:href="m__Do__dvd__thread_8cpp.html" target="_top" xlink:title=" ">
<polygon fill="white" stroke="#666666" points="1047.5,-156.5 889.5,-156.5 889.5,-137.5 1047.5,-137.5 1047.5,-156.5"/>
<text text-anchor="middle" x="968.5" y="-144.5" font-family="Helvetica,sans-Serif" font-size="10.00">src/m_Do/m_Do_dvd_thread.cpp</text>
</a>
</g>
</g>
<!-- Node23&#45;&gt;Node463 -->
<g id="edge62" class="edge">
<title>Node23&#45;&gt;Node463</title>
<path fill="none" stroke="#63b8ff" d="M1823.98,-209.99C1675.58,-205.54 1338.45,-192.7 1056.5,-162 1044.5,-160.69 1031.65,-158.88 1019.57,-157"/>
<polygon fill="#63b8ff" stroke="#63b8ff" points="1823.58,-213.48 1833.68,-210.28 1823.79,-206.49 1823.58,-213.48"/>
</g>
<!-- Node464 -->
<g id="node43" class="node">
<title>Node464</title>
<g id="a_node43"><a xlink:href="m__Do__machine_8cpp.html" target="_top" xlink:title=" ">
<polygon fill="white" stroke="#666666" points="1213,-156.5 1066,-156.5 1066,-137.5 1213,-137.5 1213,-156.5"/>
<text text-anchor="middle" x="1139.5" y="-144.5" font-family="Helvetica,sans-Serif" font-size="10.00">src/m_Do/m_Do_machine.cpp</text>
</a>
</g>
</g>
<!-- Node23&#45;&gt;Node464 -->
<g id="edge64" class="edge">
<title>Node23&#45;&gt;Node464</title>
<path fill="none" stroke="#63b8ff" d="M1823.93,-208.69C1698.1,-202.73 1439.81,-188.28 1222.5,-162 1211.33,-160.65 1199.37,-158.84 1188.11,-156.98"/>
<polygon fill="#63b8ff" stroke="#63b8ff" points="1823.66,-212.18 1833.82,-209.15 1823.99,-205.19 1823.66,-212.18"/>
</g>
<!-- Node465 -->
<g id="node44" class="node">
<title>Node465</title>
<g id="a_node44"><a xlink:href="m__Do__printf_8cpp.html" target="_top" xlink:title=" ">
<polygon fill="white" stroke="#666666" points="1363.5,-156.5 1231.5,-156.5 1231.5,-137.5 1363.5,-137.5 1363.5,-156.5"/>
<text text-anchor="middle" x="1297.5" y="-144.5" font-family="Helvetica,sans-Serif" font-size="10.00">src/m_Do/m_Do_printf.cpp</text>
</a>
</g>
</g>
<!-- Node23&#45;&gt;Node465 -->
<g id="edge66" class="edge">
<title>Node23&#45;&gt;Node465</title>
<path fill="none" stroke="#63b8ff" d="M1824.04,-206.93C1721.12,-199.61 1532.46,-184.46 1372.5,-162 1362.53,-160.6 1351.87,-158.8 1341.81,-156.96"/>
<polygon fill="#63b8ff" stroke="#63b8ff" points="1823.52,-210.4 1833.74,-207.62 1824.01,-203.42 1823.52,-210.4"/>
</g>
<!-- Node24&#45;&gt;Node5 -->
<g id="edge25" class="edge">
<title>Node24&#45;&gt;Node5</title>
<path fill="none" stroke="#63b8ff" d="M1385.62,-134.74C1381.18,-133.81 1376.76,-132.89 1372.5,-132 1302.09,-117.38 1220.25,-100.83 1170.96,-90.92"/>
<polygon fill="#63b8ff" stroke="#63b8ff" points="1384.63,-138.11 1395.13,-136.75 1386.07,-131.26 1384.63,-138.11"/>
</g>
<!-- Node25 -->
<g id="node25" class="node">
<title>Node25</title>
<g id="a_node25"><a xlink:href="d__com__inf__game_8h.html" target="_top" xlink:title=" ">
<polygon fill="#fff0f0" stroke="red" points="1620.5,-96 1510.5,-96 1510.5,-66 1620.5,-66 1620.5,-96"/>
<text text-anchor="start" x="1518.5" y="-84" font-family="Helvetica,sans-Serif" font-size="10.00">include/d/com/d_com</text>
<text text-anchor="middle" x="1565.5" y="-73" font-family="Helvetica,sans-Serif" font-size="10.00">_inf_game.h</text>
</a>
</g>
</g>
<!-- Node24&#45;&gt;Node25 -->
<g id="edge26" class="edge">
<title>Node24&#45;&gt;Node25</title>
<path fill="none" stroke="#63b8ff" d="M1466.3,-131.99C1487.18,-121.47 1515.67,-107.11 1536.77,-96.48"/>
<polygon fill="#63b8ff" stroke="#63b8ff" points="1464.87,-128.79 1457.51,-136.42 1468.02,-135.05 1464.87,-128.79"/>
</g>
<!-- Node303 -->
<g id="node31" class="node">
<title>Node303</title>
<g id="a_node31"><a xlink:href="d__att__dist_8cpp.html" target="_top" xlink:title=" ">
<polygon fill="white" stroke="#666666" points="1489.5,-90.5 1387.5,-90.5 1387.5,-71.5 1489.5,-71.5 1489.5,-90.5"/>
<text text-anchor="middle" x="1438.5" y="-78.5" font-family="Helvetica,sans-Serif" font-size="10.00">src/d/d_att_dist.cpp</text>
</a>
</g>
</g>
<!-- Node24&#45;&gt;Node303 -->
<g id="edge44" class="edge">
<title>Node24&#45;&gt;Node303</title>
<path fill="none" stroke="#63b8ff" d="M1438.5,-125.68C1438.5,-113.94 1438.5,-99.77 1438.5,-90.82"/>
<polygon fill="#63b8ff" stroke="#63b8ff" points="1435,-125.59 1438.5,-135.59 1442,-125.59 1435,-125.59"/>
</g>
<!-- Node25&#45;&gt;Node6 -->
<g id="edge27" class="edge">
<title>Node25&#45;&gt;Node6</title>
<path fill="none" stroke="#63b8ff" d="M1558.07,-54.97C1555.57,-46.55 1552.87,-37.45 1550.7,-30.16"/>
<polygon fill="#63b8ff" stroke="#63b8ff" points="1554.65,-55.76 1560.85,-64.35 1561.36,-53.76 1554.65,-55.76"/>
</g>
<!-- Node25&#45;&gt;Node9 -->
<g id="edge29" class="edge">
<title>Node25&#45;&gt;Node9</title>
<path fill="none" stroke="#63b8ff" d="M1603.68,-60.45C1622.66,-50.73 1645.19,-39.2 1662.54,-30.31"/>
<polygon fill="#63b8ff" stroke="#63b8ff" points="1602.21,-57.27 1594.9,-64.95 1605.4,-63.51 1602.21,-57.27"/>
</g>
<!-- Node25&#45;&gt;Node11 -->
<g id="edge31" class="edge">
<title>Node25&#45;&gt;Node11</title>
<path fill="none" stroke="#63b8ff" d="M1631.66,-64.02C1682.68,-51.7 1751.4,-35.1 1793.24,-25"/>
<polygon fill="#63b8ff" stroke="#63b8ff" points="1631.1,-60.56 1622.2,-66.31 1632.74,-67.36 1631.1,-60.56"/>
</g>
<!-- Node25&#45;&gt;Node12 -->
<g id="edge32" class="edge">
<title>Node25&#45;&gt;Node12</title>
<path fill="none" stroke="#63b8ff" d="M1498.85,-66.05C1498.74,-66.03 1498.62,-66.02 1498.5,-66 1191.32,-26.2 1109.62,-70.26 802.5,-30 793.09,-28.77 783.03,-26.91 773.67,-24.95"/>
<polygon fill="#63b8ff" stroke="#63b8ff" points="1498.14,-69.48 1508.54,-67.5 1499.17,-62.55 1498.14,-69.48"/>
</g>
<!-- Node25&#45;&gt;Node13 -->
<g id="edge34" class="edge">
<title>Node25&#45;&gt;Node13</title>
<path fill="none" stroke="#63b8ff" d="M1632.11,-78.5C1757.87,-74.96 2038.65,-63.67 2272.5,-30 2275.65,-29.55 2278.88,-29.02 2282.13,-28.45"/>
<polygon fill="#63b8ff" stroke="#63b8ff" points="1632.21,-75 1622.31,-78.77 1632.4,-81.99 1632.21,-75"/>
</g>
<!-- Node25&#45;&gt;Node14 -->
<g id="edge35" class="edge">
<title>Node25&#45;&gt;Node14</title>
<path fill="none" stroke="#63b8ff" d="M1498.85,-66.05C1498.74,-66.03 1498.62,-66.02 1498.5,-66 1244.31,-31.68 1176.28,-67.27 922.5,-30 914.03,-28.76 905,-26.92 896.58,-24.99"/>
<polygon fill="#63b8ff" stroke="#63b8ff" points="1498.12,-69.48 1508.54,-67.54 1499.19,-62.56 1498.12,-69.48"/>
</g>
<!-- Node25&#45;&gt;Node15 -->
<g id="edge37" class="edge">
<title>Node25&#45;&gt;Node15</title>
<path fill="none" stroke="#63b8ff" d="M1498.85,-66.05C1498.74,-66.03 1498.62,-66.02 1498.5,-66 1306.08,-38.06 1255.04,-57.11 1062.5,-30 1052.93,-28.65 1042.69,-26.83 1033.08,-24.94"/>
<polygon fill="#63b8ff" stroke="#63b8ff" points="1498.1,-69.47 1508.53,-67.62 1499.21,-62.56 1498.1,-69.47"/>
</g>
<!-- Node25&#45;&gt;Node16 -->
<g id="edge38" class="edge">
<title>Node25&#45;&gt;Node16</title>
<path fill="none" stroke="#63b8ff" d="M1499.23,-66.12C1498.98,-66.08 1498.74,-66.04 1498.5,-66 1362.47,-43.88 1326.43,-52.75 1190.5,-30 1187.7,-29.53 1184.83,-29.02 1181.94,-28.48"/>
<polygon fill="#63b8ff" stroke="#63b8ff" points="1498.42,-69.53 1508.87,-67.81 1499.63,-62.64 1498.42,-69.53"/>
</g>
<!-- Node25&#45;&gt;Node17 -->
<g id="edge39" class="edge">
<title>Node25&#45;&gt;Node17</title>
<path fill="none" stroke="#63b8ff" d="M1499.36,-65.84C1441.07,-53.37 1357.91,-35.57 1308.36,-24.96"/>
<polygon fill="#63b8ff" stroke="#63b8ff" points="1498.32,-69.2 1508.83,-67.87 1499.78,-62.35 1498.32,-69.2"/>
</g>
<!-- Node25&#45;&gt;Node18 -->
<g id="edge40" class="edge">
<title>Node25&#45;&gt;Node18</title>
<path fill="none" stroke="#63b8ff" d="M1520.4,-61.38C1491.41,-49.41 1455.02,-34.38 1432.26,-24.99"/>
<polygon fill="#63b8ff" stroke="#63b8ff" points="1518.74,-64.48 1529.32,-65.06 1521.41,-58.01 1518.74,-64.48"/>
</g>
<!-- Node25&#45;&gt;Node19 -->
<g id="edge33" class="edge">
<title>Node25&#45;&gt;Node19</title>
<path fill="none" stroke="#63b8ff" d="M1498.85,-66.04C1498.74,-66.03 1498.62,-66.01 1498.5,-66 936.82,0.1 787.51,-101.6 226.5,-30 217.55,-28.86 208,-26.99 199.17,-24.98"/>
<polygon fill="#63b8ff" stroke="#63b8ff" points="1498.16,-69.48 1508.55,-67.41 1499.14,-62.55 1498.16,-69.48"/>
</g>
<!-- Node25&#45;&gt;Node22 -->
<g id="edge36" class="edge">
<title>Node25&#45;&gt;Node22</title>
<path fill="none" stroke="#63b8ff" d="M1632.34,-78.87C1774.2,-75.85 2115.63,-65.22 2399.5,-30 2409.75,-28.73 2420.72,-26.91 2430.99,-25"/>
<polygon fill="#63b8ff" stroke="#63b8ff" points="1632.3,-75.37 1622.37,-79.08 1632.44,-82.37 1632.3,-75.37"/>
</g>
<!-- Node25&#45;&gt;Node210 -->
<g id="edge28" class="edge">
<title>Node25&#45;&gt;Node210</title>
<path fill="none" stroke="#63b8ff" d="M1498.85,-66.04C1498.74,-66.03 1498.62,-66.01 1498.5,-66 1133.01,-20.18 1036.77,-69.07 670.5,-30 667.63,-29.69 664.7,-29.35 661.75,-28.98"/>
<polygon fill="#63b8ff" stroke="#63b8ff" points="1498.15,-69.48 1508.55,-67.47 1499.16,-62.55 1498.15,-69.48"/>
</g>
<!-- Node25&#45;&gt;Node240 -->
<g id="edge30" class="edge">
<title>Node25&#45;&gt;Node240</title>
<path fill="none" stroke="#63b8ff" d="M1632.26,-75.25C1719.97,-68.38 1878.59,-53.83 2012.5,-30 2020.22,-28.63 2028.46,-26.81 2036.2,-24.95"/>
<polygon fill="#63b8ff" stroke="#63b8ff" points="1632.09,-71.75 1622.39,-76.01 1632.63,-78.73 1632.09,-71.75"/>
</g>
<!-- Node25&#45;&gt;Node178 -->
<g id="edge41" class="edge">
<title>Node25&#45;&gt;Node178</title>
<path fill="none" stroke="#63b8ff" d="M1631.99,-71.41C1698.44,-62.47 1803.4,-47.35 1893.5,-30 1896.55,-29.41 1899.67,-28.78 1902.82,-28.12"/>
<polygon fill="#63b8ff" stroke="#63b8ff" points="1631.81,-67.91 1622.36,-72.7 1632.73,-74.84 1631.81,-67.91"/>
</g>
<!-- Node25&#45;&gt;Node297 -->
<g id="edge42" class="edge">
<title>Node25&#45;&gt;Node297</title>
<path fill="none" stroke="#63b8ff" d="M1632.3,-79.9C1791.43,-78.95 2205.15,-72.25 2547.5,-30 2557.6,-28.75 2568.42,-26.89 2578.49,-24.93"/>
<polygon fill="#63b8ff" stroke="#63b8ff" points="1632.34,-76.4 1622.35,-79.96 1632.37,-83.4 1632.34,-76.4"/>
</g>
<!-- Node25&#45;&gt;Node300 -->
<g id="edge43" class="edge">
<title>Node25&#45;&gt;Node300</title>
<path fill="none" stroke="#63b8ff" d="M1632.33,-76.16C1737.57,-69.63 1948.21,-54.63 2125.5,-30 2128.48,-29.59 2131.52,-29.13 2134.59,-28.65"/>
<polygon fill="#63b8ff" stroke="#63b8ff" points="1632.22,-72.66 1622.46,-76.76 1632.65,-79.64 1632.22,-72.66"/>
</g>
<!-- Node304&#45;&gt;Node25 -->
<g id="edge46" class="edge">
<title>Node304&#45;&gt;Node25</title>
<path fill="none" stroke="#63b8ff" d="M1567.55,-125.78C1567.1,-116.17 1566.57,-104.92 1566.17,-96.23"/>
<polygon fill="#63b8ff" stroke="#63b8ff" points="1564.05,-125.76 1568.01,-135.59 1571.04,-125.44 1564.05,-125.76"/>
</g>
<!-- Node350&#45;&gt;Node25 -->
<g id="edge49" class="edge">
<title>Node350&#45;&gt;Node25</title>
<path fill="none" stroke="#63b8ff" d="M1668.12,-132.13C1646.56,-121.6 1616.99,-107.16 1595.13,-96.48"/>
<polygon fill="#63b8ff" stroke="#63b8ff" points="1666.4,-135.19 1676.93,-136.44 1669.48,-128.9 1666.4,-135.19"/>
</g>
<!-- Node351&#45;&gt;Node13 -->
<g id="edge51" class="edge">
<title>Node351&#45;&gt;Node13</title>
<path fill="none" stroke="#63b8ff" d="M2432.52,-60.86C2411.54,-51.05 2386.42,-39.32 2367.14,-30.31"/>
<polygon fill="#63b8ff" stroke="#63b8ff" points="2430.84,-63.94 2441.38,-65 2433.8,-57.59 2430.84,-63.94"/>
</g>
<!-- Node351&#45;&gt;Node22 -->
<g id="edge52" class="edge">
<title>Node351&#45;&gt;Node22</title>
<path fill="none" stroke="#63b8ff" d="M2473.5,-54.59C2473.5,-44.06 2473.5,-32.53 2473.5,-24.84"/>
<polygon fill="#63b8ff" stroke="#63b8ff" points="2470,-54.28 2473.5,-64.28 2477,-54.28 2470,-54.28"/>
</g>
<!-- Node351&#45;&gt;Node297 -->
<g id="edge53" class="edge">
<title>Node351&#45;&gt;Node297</title>
<path fill="none" stroke="#63b8ff" d="M2516.4,-61.06C2543.41,-49.14 2577.04,-34.3 2598.14,-24.99"/>
<polygon fill="#63b8ff" stroke="#63b8ff" points="2515.16,-57.79 2507.43,-65.03 2517.99,-64.19 2515.16,-57.79"/>
</g>
</g>
</svg>
