<?xml version="1.0" encoding="UTF-8" standalone="no"?>
<!DOCTYPE svg PUBLIC "-//W3C//DTD SVG 1.1//EN"
 "http://www.w3.org/Graphics/SVG/1.1/DTD/svg11.dtd">
<!-- Generated by graphviz version 7.0.5 (20221223.1930)
 -->
<!-- Title: include/JSystem/J3DGraphBase/J3DDrawBuffer.h Pages: 1 -->
<svg width="3490pt" height="566pt"
 viewBox="0.00 0.00 3490.00 566.00" xmlns="http://www.w3.org/2000/svg" xmlns:xlink="http://www.w3.org/1999/xlink">
<g id="graph0" class="graph" transform="scale(1 1) rotate(0) translate(4 562)">
<title>include/JSystem/J3DGraphBase/J3DDrawBuffer.h</title>
<!-- Node1 -->
<g id="node1" class="node">
<title>Node1</title>
<g id="a_node1"><a xlink:title=" ">
<polygon fill="#999999" stroke="#666666" points="3208.5,-558 3073.5,-558 3073.5,-528 3208.5,-528 3208.5,-558"/>
<text text-anchor="start" x="3081.5" y="-546" font-family="Helvetica,sans-Serif" font-size="10.00">include/JSystem/J3DGraph</text>
<text text-anchor="middle" x="3141" y="-535" font-family="Helvetica,sans-Serif" font-size="10.00">Base/J3DDrawBuffer.h</text>
</a>
</g>
</g>
<!-- Node2 -->
<g id="node2" class="node">
<title>Node2</title>
<g id="a_node2"><a xlink:href="d__drawlist_8h.html" target="_top" xlink:title=" ">
<polygon fill="white" stroke="#666666" points="2763,-486.5 2653,-486.5 2653,-467.5 2763,-467.5 2763,-486.5"/>
<text text-anchor="middle" x="2708" y="-474.5" font-family="Helvetica,sans-Serif" font-size="10.00">include/d/d_drawlist.h</text>
</a>
</g>
</g>
<!-- Node1&#45;&gt;Node2 -->
<g id="edge1" class="edge">
<title>Node1&#45;&gt;Node2</title>
<path fill="none" stroke="#63b8ff" d="M3062.01,-530.33C2975.59,-517.55 2839.29,-497.41 2763.5,-486.2"/>
<polygon fill="#63b8ff" stroke="#63b8ff" points="3061.44,-533.78 3071.85,-531.78 3062.47,-526.85 3061.44,-533.78"/>
</g>
<!-- Node231 -->
<g id="node48" class="node">
<title>Node231</title>
<g id="a_node48"><a xlink:href="d__eye__hl_8h.html" target="_top" xlink:title=" ">
<polygon fill="white" stroke="#666666" points="3165,-349 3061,-349 3061,-330 3165,-330 3165,-349"/>
<text text-anchor="middle" x="3113" y="-337" font-family="Helvetica,sans-Serif" font-size="10.00">include/d/d_eye_hl.h</text>
</a>
</g>
</g>
<!-- Node1&#45;&gt;Node231 -->
<g id="edge68" class="edge">
<title>Node1&#45;&gt;Node231</title>
<path fill="none" stroke="#63b8ff" d="M3123.25,-518.35C3118.28,-510.39 3113.55,-501.19 3111,-492 3096.47,-439.53 3106.74,-372.86 3111.21,-349.26"/>
<polygon fill="#63b8ff" stroke="#63b8ff" points="3120.19,-520.07 3128.68,-526.41 3126,-516.16 3120.19,-520.07"/>
</g>
<!-- Node232 -->
<g id="node49" class="node">
<title>Node232</title>
<g id="a_node49"><a xlink:href="J3DDrawBuffer_8cpp.html" target="_top" xlink:title=" ">
<polygon fill="white" stroke="#666666" points="3262,-492 3120,-492 3120,-462 3262,-462 3262,-492"/>
<text text-anchor="start" x="3128" y="-480" font-family="Helvetica,sans-Serif" font-size="10.00">libs/JSystem/J3DGraphBase</text>
<text text-anchor="middle" x="3191" y="-469" font-family="Helvetica,sans-Serif" font-size="10.00">/J3DDrawBuffer.cpp</text>
</a>
</g>
</g>
<!-- Node1&#45;&gt;Node232 -->
<g id="edge71" class="edge">
<title>Node1&#45;&gt;Node232</title>
<path fill="none" stroke="#63b8ff" d="M3159,-518.96C3166,-510 3173.79,-500.03 3179.93,-492.16"/>
<polygon fill="#63b8ff" stroke="#63b8ff" points="3156.43,-516.57 3153.03,-526.6 3161.94,-520.88 3156.43,-516.57"/>
</g>
<!-- Node233 -->
<g id="node50" class="node">
<title>Node233</title>
<g id="a_node50"><a xlink:href="J3DPacket_8cpp.html" target="_top" xlink:title=" ">
<polygon fill="white" stroke="#666666" points="3422,-492 3280,-492 3280,-462 3422,-462 3422,-492"/>
<text text-anchor="start" x="3288" y="-480" font-family="Helvetica,sans-Serif" font-size="10.00">libs/JSystem/J3DGraphBase</text>
<text text-anchor="middle" x="3351" y="-469" font-family="Helvetica,sans-Serif" font-size="10.00">/J3DPacket.cpp</text>
</a>
</g>
</g>
<!-- Node1&#45;&gt;Node233 -->
<g id="edge72" class="edge">
<title>Node1&#45;&gt;Node233</title>
<path fill="none" stroke="#63b8ff" d="M3199.24,-524.25C3232.18,-514.21 3272.84,-501.82 3303.78,-492.39"/>
<polygon fill="#63b8ff" stroke="#63b8ff" points="3198.38,-520.85 3189.84,-527.12 3200.42,-527.55 3198.38,-520.85"/>
</g>
<!-- Node3 -->
<g id="node3" class="node">
<title>Node3</title>
<g id="a_node3"><a xlink:href="d__a__alink_8h.html" target="_top" xlink:title=" ">
<polygon fill="white" stroke="#666666" points="2074,-277.5 1958,-277.5 1958,-258.5 2074,-258.5 2074,-277.5"/>
<text text-anchor="middle" x="2016" y="-265.5" font-family="Helvetica,sans-Serif" font-size="10.00">include/d/a/d_a_alink.h</text>
</a>
</g>
</g>
<!-- Node2&#45;&gt;Node3 -->
<g id="edge2" class="edge">
<title>Node2&#45;&gt;Node3</title>
<path fill="none" stroke="#63b8ff" d="M2641.54,-476.95C2543.3,-476.69 2354.4,-469.78 2201,-426 2137.16,-407.78 2115.17,-405.68 2067,-360 2041.37,-335.7 2025.2,-295.62 2018.94,-277.9"/>
<polygon fill="#63b8ff" stroke="#63b8ff" points="2641.27,-480.45 2651.27,-476.95 2641.27,-473.45 2641.27,-480.45"/>
</g>
<!-- Node4 -->
<g id="node4" class="node">
<title>Node4</title>
<g id="a_node4"><a xlink:href="d__com__inf__game_8h.html" target="_top" xlink:title=" ">
<polygon fill="#fff0f0" stroke="red" points="2001,-217 1891,-217 1891,-187 2001,-187 2001,-217"/>
<text text-anchor="start" x="1899" y="-205" font-family="Helvetica,sans-Serif" font-size="10.00">include/d/com/d_com</text>
<text text-anchor="middle" x="1946" y="-194" font-family="Helvetica,sans-Serif" font-size="10.00">_inf_game.h</text>
</a>
</g>
</g>
<!-- Node2&#45;&gt;Node4 -->
<g id="edge58" class="edge">
<title>Node2&#45;&gt;Node4</title>
<path fill="none" stroke="#63b8ff" d="M2766.54,-464.45C2815.49,-452.14 2873.27,-429.74 2846,-396 2738.39,-262.86 2180.52,-217.39 2001.42,-206.1"/>
<polygon fill="#63b8ff" stroke="#63b8ff" points="2766,-460.98 2757.1,-466.72 2767.64,-467.79 2766,-460.98"/>
</g>
<!-- Node28 -->
<g id="node12" class="node">
<title>Node28</title>
<g id="a_node12"><a xlink:href="d__kantera__icon__meter_8h.html" target="_top" xlink:title=" ">
<polygon fill="#fff0f0" stroke="red" points="3293.5,-151 3192.5,-151 3192.5,-121 3293.5,-121 3293.5,-151"/>
<text text-anchor="start" x="3200.5" y="-139" font-family="Helvetica,sans-Serif" font-size="10.00">include/d/d_kantera</text>
<text text-anchor="middle" x="3243" y="-128" font-family="Helvetica,sans-Serif" font-size="10.00">_icon_meter.h</text>
</a>
</g>
</g>
<!-- Node2&#45;&gt;Node28 -->
<g id="edge60" class="edge">
<title>Node2&#45;&gt;Node28</title>
<path fill="none" stroke="#63b8ff" d="M2774.69,-472.97C2859.48,-465.13 2995,-437.43 2995,-340.5 2995,-340.5 2995,-340.5 2995,-267 2995,-229.88 2991.78,-212.24 3019,-187 3073.72,-136.26 3110.22,-167.48 3183,-151 3186.03,-150.32 3189.14,-149.61 3192.27,-148.89"/>
<polygon fill="#63b8ff" stroke="#63b8ff" points="2774.51,-469.47 2764.84,-473.81 2775.1,-476.45 2774.51,-469.47"/>
</g>
<!-- Node130 -->
<g id="node34" class="node">
<title>Node130</title>
<g id="a_node34"><a xlink:href="d__drawlist_8cpp.html" target="_top" xlink:title=" ">
<polygon fill="white" stroke="#666666" points="3416,-145.5 3312,-145.5 3312,-126.5 3416,-126.5 3416,-145.5"/>
<text text-anchor="middle" x="3364" y="-133.5" font-family="Helvetica,sans-Serif" font-size="10.00">src/d/d_drawlist.cpp</text>
</a>
</g>
</g>
<!-- Node2&#45;&gt;Node130 -->
<g id="edge67" class="edge">
<title>Node2&#45;&gt;Node130</title>
<path fill="none" stroke="#63b8ff" d="M2774.37,-476.45C2869.42,-473.22 3033,-451.52 3033,-340.5 3033,-340.5 3033,-340.5 3033,-267 3033,-235.05 3249.42,-169.77 3332.26,-145.95"/>
<polygon fill="#63b8ff" stroke="#63b8ff" points="2774.55,-472.94 2764.64,-476.71 2774.74,-479.94 2774.55,-472.94"/>
</g>
<!-- Node163 -->
<g id="node35" class="node">
<title>Node163</title>
<g id="a_node35"><a xlink:href="d__a__player_8h.html" target="_top" xlink:title=" ">
<polygon fill="white" stroke="#666666" points="1909.5,-420.5 1788.5,-420.5 1788.5,-401.5 1909.5,-401.5 1909.5,-420.5"/>
<text text-anchor="middle" x="1849" y="-408.5" font-family="Helvetica,sans-Serif" font-size="10.00">include/d/a/d_a_player.h</text>
</a>
</g>
</g>
<!-- Node2&#45;&gt;Node163 -->
<g id="edge42" class="edge">
<title>Node2&#45;&gt;Node163</title>
<path fill="none" stroke="#63b8ff" d="M2641.26,-471.08C2520.22,-462.16 2256.45,-442.67 2034,-426 1992.57,-422.9 1945.91,-419.36 1909.82,-416.63"/>
<polygon fill="#63b8ff" stroke="#63b8ff" points="2640.78,-474.56 2651.01,-471.8 2641.29,-467.57 2640.78,-474.56"/>
</g>
<!-- Node203 -->
<g id="node42" class="node">
<title>Node203</title>
<g id="a_node42"><a xlink:href="d__camera_8h.html" target="_top" xlink:title=" ">
<polygon fill="#fff0f0" stroke="red" points="2319.5,-420.5 2210.5,-420.5 2210.5,-401.5 2319.5,-401.5 2319.5,-420.5"/>
<text text-anchor="middle" x="2265" y="-408.5" font-family="Helvetica,sans-Serif" font-size="10.00">include/d/d_camera.h</text>
</a>
</g>
</g>
<!-- Node2&#45;&gt;Node203 -->
<g id="edge59" class="edge">
<title>Node2&#45;&gt;Node203</title>
<path fill="none" stroke="#63b8ff" d="M2641.41,-469.03C2565.33,-460.65 2437.23,-445.28 2328,-426 2319.84,-424.56 2311.13,-422.78 2302.87,-420.98"/>
<polygon fill="#63b8ff" stroke="#63b8ff" points="2640.88,-472.49 2651.2,-470.1 2641.64,-465.54 2640.88,-472.49"/>
</g>
<!-- Node208 -->
<g id="node43" class="node">
<title>Node208</title>
<g id="a_node43"><a xlink:href="d__select__cursor_8h.html" target="_top" xlink:title=" ">
<polygon fill="#fff0f0" stroke="red" points="2432.5,-426 2337.5,-426 2337.5,-396 2432.5,-396 2432.5,-426"/>
<text text-anchor="start" x="2345.5" y="-414" font-family="Helvetica,sans-Serif" font-size="10.00">include/d/d_select</text>
<text text-anchor="middle" x="2385" y="-403" font-family="Helvetica,sans-Serif" font-size="10.00">_cursor.h</text>
</a>
</g>
</g>
<!-- Node2&#45;&gt;Node208 -->
<g id="edge61" class="edge">
<title>Node2&#45;&gt;Node208</title>
<path fill="none" stroke="#63b8ff" d="M2644.46,-465.07C2590.45,-455.54 2510.92,-440.93 2442,-426 2439.01,-425.35 2435.94,-424.67 2432.85,-423.96"/>
<polygon fill="#63b8ff" stroke="#63b8ff" points="2643.64,-468.48 2654.1,-466.76 2644.86,-461.59 2643.64,-468.48"/>
</g>
<!-- Node225 -->
<g id="node44" class="node">
<title>Node225</title>
<g id="a_node44"><a xlink:href="d__map__path_8h.html" target="_top" xlink:title=" ">
<polygon fill="#fff0f0" stroke="red" points="2561,-426 2451,-426 2451,-396 2561,-396 2561,-426"/>
<text text-anchor="start" x="2459" y="-414" font-family="Helvetica,sans-Serif" font-size="10.00">include/d/map/d_map</text>
<text text-anchor="middle" x="2506" y="-403" font-family="Helvetica,sans-Serif" font-size="10.00">_path.h</text>
</a>
</g>
</g>
<!-- Node2&#45;&gt;Node225 -->
<g id="edge62" class="edge">
<title>Node2&#45;&gt;Node225</title>
<path fill="none" stroke="#63b8ff" d="M2669.15,-463.69C2635.61,-453.06 2587.1,-437.69 2551.69,-426.48"/>
<polygon fill="#63b8ff" stroke="#63b8ff" points="2667.88,-466.96 2678.47,-466.64 2669.99,-460.29 2667.88,-466.96"/>
</g>
<!-- Node228 -->
<g id="node45" class="node">
<title>Node228</title>
<g id="a_node45"><a xlink:href="d__menu__fmap_8h.html" target="_top" xlink:title=" ">
<polygon fill="#fff0f0" stroke="red" points="2699,-426 2579,-426 2579,-396 2699,-396 2699,-426"/>
<text text-anchor="start" x="2587" y="-414" font-family="Helvetica,sans-Serif" font-size="10.00">include/d/menu/d_menu</text>
<text text-anchor="middle" x="2639" y="-403" font-family="Helvetica,sans-Serif" font-size="10.00">_fmap.h</text>
</a>
</g>
</g>
<!-- Node2&#45;&gt;Node228 -->
<g id="edge63" class="edge">
<title>Node2&#45;&gt;Node228</title>
<path fill="none" stroke="#63b8ff" d="M2690.01,-459.31C2679.02,-449.12 2665.12,-436.23 2654.61,-426.48"/>
<polygon fill="#63b8ff" stroke="#63b8ff" points="2687.58,-461.84 2697.3,-466.07 2692.34,-456.71 2687.58,-461.84"/>
</g>
<!-- Node42 -->
<g id="node46" class="node">
<title>Node42</title>
<g id="a_node46"><a xlink:href="d__menu__window_8h.html" target="_top" xlink:title=" ">
<polygon fill="#fff0f0" stroke="red" points="2837,-426 2717,-426 2717,-396 2837,-396 2837,-426"/>
<text text-anchor="start" x="2725" y="-414" font-family="Helvetica,sans-Serif" font-size="10.00">include/d/menu/d_menu</text>
<text text-anchor="middle" x="2777" y="-403" font-family="Helvetica,sans-Serif" font-size="10.00">_window.h</text>
</a>
</g>
</g>
<!-- Node2&#45;&gt;Node42 -->
<g id="edge64" class="edge">
<title>Node2&#45;&gt;Node42</title>
<path fill="none" stroke="#63b8ff" d="M2725.99,-459.31C2736.98,-449.12 2750.88,-436.23 2761.39,-426.48"/>
<polygon fill="#63b8ff" stroke="#63b8ff" points="2723.66,-456.71 2718.7,-466.07 2728.42,-461.84 2723.66,-456.71"/>
</g>
<!-- Node230 -->
<g id="node47" class="node">
<title>Node230</title>
<g id="a_node47"><a xlink:href="d__meter2__draw_8h.html" target="_top" xlink:title=" ">
<polygon fill="#fff0f0" stroke="red" points="2966.5,-217 2839.5,-217 2839.5,-187 2966.5,-187 2966.5,-217"/>
<text text-anchor="start" x="2847.5" y="-205" font-family="Helvetica,sans-Serif" font-size="10.00">include/d/meter/d_meter2</text>
<text text-anchor="middle" x="2903" y="-194" font-family="Helvetica,sans-Serif" font-size="10.00">_draw.h</text>
</a>
</g>
</g>
<!-- Node2&#45;&gt;Node230 -->
<g id="edge65" class="edge">
<title>Node2&#45;&gt;Node230</title>
<path fill="none" stroke="#63b8ff" d="M2774.24,-473.8C2810.69,-468.91 2853.55,-456.42 2879,-426 2930.85,-364.03 2914.41,-256.01 2906.33,-217.31"/>
<polygon fill="#63b8ff" stroke="#63b8ff" points="2774.2,-470.28 2764.67,-474.91 2775.01,-477.23 2774.2,-470.28"/>
</g>
<!-- Node3&#45;&gt;Node4 -->
<g id="edge3" class="edge">
<title>Node3&#45;&gt;Node4</title>
<path fill="none" stroke="#63b8ff" d="M1998.08,-250.62C1986.89,-240.38 1972.61,-227.33 1961.83,-217.48"/>
<polygon fill="#63b8ff" stroke="#63b8ff" points="1995.41,-252.92 2005.15,-257.08 2000.13,-247.75 1995.41,-252.92"/>
</g>
<!-- Node16 -->
<g id="node11" class="node">
<title>Node16</title>
<g id="a_node11"><a xlink:href="d__a__alink_8cpp.html" target="_top" xlink:title=" ">
<polygon fill="white" stroke="#666666" points="840.5,-79.5 731.5,-79.5 731.5,-60.5 840.5,-60.5 840.5,-79.5"/>
<text text-anchor="middle" x="786" y="-67.5" font-family="Helvetica,sans-Serif" font-size="10.00">src/d/a/d_a_alink.cpp</text>
</a>
</g>
</g>
<!-- Node3&#45;&gt;Node16 -->
<g id="edge41" class="edge">
<title>Node3&#45;&gt;Node16</title>
<path fill="none" stroke="#63b8ff" d="M1966.65,-255.85C1960.73,-254.76 1954.74,-253.77 1949,-253 1765.53,-228.34 412.83,-285.85 286,-151 276.87,-141.29 277.05,-130.89 286,-121 315.45,-88.46 607.6,-76.18 731.21,-72.42"/>
<polygon fill="#63b8ff" stroke="#63b8ff" points="1965.93,-259.27 1976.41,-257.75 1967.27,-252.4 1965.93,-259.27"/>
</g>
<!-- Node5 -->
<g id="node5" class="node">
<title>Node5</title>
<g id="a_node5"><a xlink:href="d__a__npc_8h.html" target="_top" xlink:title=" ">
<polygon fill="#fff0f0" stroke="red" points="2218.5,-79.5 2107.5,-79.5 2107.5,-60.5 2218.5,-60.5 2218.5,-79.5"/>
<text text-anchor="middle" x="2163" y="-67.5" font-family="Helvetica,sans-Serif" font-size="10.00">include/d/a/d_a_npc.h</text>
</a>
</g>
</g>
<!-- Node4&#45;&gt;Node5 -->
<g id="edge4" class="edge">
<title>Node4&#45;&gt;Node5</title>
<path fill="none" stroke="#63b8ff" d="M2012.33,-191.76C2062.43,-183.44 2125.6,-169.66 2144,-151 2163.24,-131.48 2164.31,-96.24 2163.64,-79.84"/>
<polygon fill="#63b8ff" stroke="#63b8ff" points="2012.02,-188.26 2002.71,-193.31 2013.14,-195.17 2012.02,-188.26"/>
</g>
<!-- Node11 -->
<g id="node7" class="node">
<title>Node11</title>
<g id="a_node7"><a xlink:href="d__cc__uty_8h.html" target="_top" xlink:title=" ">
<polygon fill="#fff0f0" stroke="red" points="2310.5,-145.5 2191.5,-145.5 2191.5,-126.5 2310.5,-126.5 2310.5,-145.5"/>
<text text-anchor="middle" x="2251" y="-133.5" font-family="Helvetica,sans-Serif" font-size="10.00">include/d/cc/d_cc_uty.h</text>
</a>
</g>
</g>
<!-- Node4&#45;&gt;Node11 -->
<g id="edge6" class="edge">
<title>Node4&#45;&gt;Node11</title>
<path fill="none" stroke="#63b8ff" d="M2012.41,-187.06C2071.98,-174.56 2157.63,-156.59 2208.46,-145.93"/>
<polygon fill="#63b8ff" stroke="#63b8ff" points="2011.78,-183.62 2002.71,-189.1 2013.22,-190.47 2011.78,-183.62"/>
</g>
<!-- Node12 -->
<g id="node8" class="node">
<title>Node12</title>
<g id="a_node8"><a xlink:href="d__a__b__ob_8h.html" target="_top" xlink:title=" ">
<polygon fill="#fff0f0" stroke="red" points="2368,-85 2262,-85 2262,-55 2368,-55 2368,-85"/>
<text text-anchor="start" x="2270" y="-73" font-family="Helvetica,sans-Serif" font-size="10.00">include/rel/d/a/b/d</text>
<text text-anchor="middle" x="2315" y="-62" font-family="Helvetica,sans-Serif" font-size="10.00">_a_b_ob/d_a_b_ob.h</text>
</a>
</g>
</g>
<!-- Node4&#45;&gt;Node12 -->
<g id="edge24" class="edge">
<title>Node4&#45;&gt;Node12</title>
<path fill="none" stroke="#63b8ff" d="M2012.57,-196.77C2114.39,-189.62 2299.17,-173.67 2319,-151 2334.75,-133 2327.53,-103.07 2321.1,-85.37"/>
<polygon fill="#63b8ff" stroke="#63b8ff" points="2012.43,-193.27 2002.69,-197.46 2012.91,-200.26 2012.43,-193.27"/>
</g>
<!-- Node20 -->
<g id="node9" class="node">
<title>Node20</title>
<g id="a_node9"><a xlink:href="d__error__msg_8h.html" target="_top" xlink:title=" ">
<polygon fill="#fff0f0" stroke="red" points="999,-145.5 879,-145.5 879,-126.5 999,-126.5 999,-145.5"/>
<text text-anchor="middle" x="939" y="-133.5" font-family="Helvetica,sans-Serif" font-size="10.00">include/d/d_error_msg.h</text>
</a>
</g>
</g>
<!-- Node4&#45;&gt;Node20 -->
<g id="edge8" class="edge">
<title>Node4&#45;&gt;Node20</title>
<path fill="none" stroke="#63b8ff" d="M1879.39,-200.8C1725.38,-199.61 1332.91,-192.39 1008,-151 998.18,-149.75 987.66,-147.89 977.88,-145.93"/>
<polygon fill="#63b8ff" stroke="#63b8ff" points="1878.97,-204.3 1888.99,-200.87 1879.02,-197.3 1878.97,-204.3"/>
</g>
<!-- Node23 -->
<g id="node10" class="node">
<title>Node23</title>
<g id="a_node10"><a xlink:href="d__item_8h.html" target="_top" xlink:title=" ">
<polygon fill="#fff0f0" stroke="red" points="1352.5,-145.5 1257.5,-145.5 1257.5,-126.5 1352.5,-126.5 1352.5,-145.5"/>
<text text-anchor="middle" x="1305" y="-133.5" font-family="Helvetica,sans-Serif" font-size="10.00">include/d/d_item.h</text>
</a>
</g>
</g>
<!-- Node4&#45;&gt;Node23 -->
<g id="edge9" class="edge">
<title>Node4&#45;&gt;Node23</title>
<path fill="none" stroke="#63b8ff" d="M1879.46,-198.67C1770.62,-194.1 1548.01,-181.61 1362,-151 1354.06,-149.69 1345.59,-147.86 1337.67,-145.95"/>
<polygon fill="#63b8ff" stroke="#63b8ff" points="1879.25,-202.16 1889.38,-199.08 1879.54,-195.17 1879.25,-202.16"/>
</g>
<!-- Node4&#45;&gt;Node16 -->
<g id="edge37" class="edge">
<title>Node4&#45;&gt;Node16</title>
<path fill="none" stroke="#63b8ff" d="M1879.65,-200.28C1813.35,-197.36 1709.81,-186.76 1628,-151 1608.28,-142.38 1610.1,-128.68 1590,-121 1520.48,-94.42 1010.64,-77.47 840.84,-72.52"/>
<polygon fill="#63b8ff" stroke="#63b8ff" points="1879.13,-203.76 1889.25,-200.65 1879.4,-196.76 1879.13,-203.76"/>
</g>
<!-- Node4&#45;&gt;Node28 -->
<g id="edge11" class="edge">
<title>Node4&#45;&gt;Node28</title>
<path fill="none" stroke="#63b8ff" d="M2012.94,-199.96C2236.16,-196.23 2953.88,-182.08 3183,-151 3185.97,-150.6 3189,-150.12 3192.06,-149.58"/>
<polygon fill="#63b8ff" stroke="#63b8ff" points="2012.89,-196.46 2002.95,-200.13 2013.01,-203.46 2012.89,-196.46"/>
</g>
<!-- Node31 -->
<g id="node13" class="node">
<title>Node31</title>
<g id="a_node13"><a xlink:href="d__model_8h.html" target="_top" xlink:title=" ">
<polygon fill="#fff0f0" stroke="red" points="1120.5,-145.5 1017.5,-145.5 1017.5,-126.5 1120.5,-126.5 1120.5,-145.5"/>
<text text-anchor="middle" x="1069" y="-133.5" font-family="Helvetica,sans-Serif" font-size="10.00">include/d/d_model.h</text>
</a>
</g>
</g>
<!-- Node4&#45;&gt;Node31 -->
<g id="edge12" class="edge">
<title>Node4&#45;&gt;Node31</title>
<path fill="none" stroke="#63b8ff" d="M1879.36,-200.7C1739.54,-199.25 1405.61,-191.44 1129,-151 1120.53,-149.76 1111.5,-147.93 1103.08,-146"/>
<polygon fill="#63b8ff" stroke="#63b8ff" points="1879.14,-204.2 1889.17,-200.8 1879.21,-197.2 1879.14,-204.2"/>
</g>
<!-- Node33 -->
<g id="node14" class="node">
<title>Node33</title>
<g id="a_node14"><a xlink:href="d__name_8h.html" target="_top" xlink:title=" ">
<polygon fill="#fff0f0" stroke="red" points="1239.5,-145.5 1138.5,-145.5 1138.5,-126.5 1239.5,-126.5 1239.5,-145.5"/>
<text text-anchor="middle" x="1189" y="-133.5" font-family="Helvetica,sans-Serif" font-size="10.00">include/d/d_name.h</text>
</a>
</g>
</g>
<!-- Node4&#45;&gt;Node33 -->
<g id="edge13" class="edge">
<title>Node4&#45;&gt;Node33</title>
<path fill="none" stroke="#63b8ff" d="M1879.71,-199.81C1755.22,-196.79 1478.28,-186.33 1248,-151 1239.68,-149.72 1230.79,-147.88 1222.51,-145.94"/>
<polygon fill="#63b8ff" stroke="#63b8ff" points="1879.32,-203.3 1889.4,-200.04 1879.49,-196.3 1879.32,-203.3"/>
</g>
<!-- Node35 -->
<g id="node15" class="node">
<title>Node35</title>
<g id="a_node15"><a xlink:href="d__file__sel__info_8h.html" target="_top" xlink:title=" ">
<polygon fill="#fff0f0" stroke="red" points="1467,-151 1371,-151 1371,-121 1467,-121 1467,-151"/>
<text text-anchor="start" x="1379" y="-139" font-family="Helvetica,sans-Serif" font-size="10.00">include/d/file/d_file</text>
<text text-anchor="middle" x="1419" y="-128" font-family="Helvetica,sans-Serif" font-size="10.00">_sel_info.h</text>
</a>
</g>
</g>
<!-- Node4&#45;&gt;Node35 -->
<g id="edge14" class="edge">
<title>Node4&#45;&gt;Node35</title>
<path fill="none" stroke="#63b8ff" d="M1879.37,-196.75C1787.93,-190.28 1618.62,-175.98 1476,-151 1473.19,-150.51 1470.31,-149.96 1467.42,-149.36"/>
<polygon fill="#63b8ff" stroke="#63b8ff" points="1878.94,-200.23 1889.16,-197.44 1879.43,-193.25 1878.94,-200.23"/>
</g>
<!-- Node38 -->
<g id="node16" class="node">
<title>Node38</title>
<g id="a_node16"><a xlink:href="d__file__sel__warning_8h.html" target="_top" xlink:title=" ">
<polygon fill="#fff0f0" stroke="red" points="1581,-151 1485,-151 1485,-121 1581,-121 1581,-151"/>
<text text-anchor="start" x="1493" y="-139" font-family="Helvetica,sans-Serif" font-size="10.00">include/d/file/d_file</text>
<text text-anchor="middle" x="1533" y="-128" font-family="Helvetica,sans-Serif" font-size="10.00">_sel_warning.h</text>
</a>
</g>
</g>
<!-- Node4&#45;&gt;Node38 -->
<g id="edge15" class="edge">
<title>Node4&#45;&gt;Node38</title>
<path fill="none" stroke="#63b8ff" d="M1879.36,-193.13C1808.56,-184.39 1693.49,-169.1 1595,-151 1590.55,-150.18 1585.94,-149.27 1581.32,-148.31"/>
<polygon fill="#63b8ff" stroke="#63b8ff" points="1878.9,-196.6 1889.26,-194.34 1879.76,-189.65 1878.9,-196.6"/>
</g>
<!-- Node40 -->
<g id="node17" class="node">
<title>Node40</title>
<g id="a_node17"><a xlink:href="d__meter2_8h.html" target="_top" xlink:title=" ">
<polygon fill="#fff0f0" stroke="red" points="3174,-145.5 3040,-145.5 3040,-126.5 3174,-126.5 3174,-145.5"/>
<text text-anchor="middle" x="3107" y="-133.5" font-family="Helvetica,sans-Serif" font-size="10.00">include/d/meter/d_meter2.h</text>
</a>
</g>
</g>
<!-- Node4&#45;&gt;Node40 -->
<g id="edge16" class="edge">
<title>Node4&#45;&gt;Node40</title>
<path fill="none" stroke="#63b8ff" d="M2012.73,-200.8C2182.43,-199.67 2644.06,-192.68 3026,-151 3037.35,-149.76 3049.52,-147.93 3060.88,-146"/>
<polygon fill="#63b8ff" stroke="#63b8ff" points="2012.75,-197.3 2002.77,-200.86 2012.8,-204.3 2012.75,-197.3"/>
</g>
<!-- Node48 -->
<g id="node18" class="node">
<title>Node48</title>
<g id="a_node18"><a xlink:href="d__msg__object_8h.html" target="_top" xlink:title=" ">
<polygon fill="#fff0f0" stroke="red" points="2135,-151 2025,-151 2025,-121 2135,-121 2135,-151"/>
<text text-anchor="start" x="2033" y="-139" font-family="Helvetica,sans-Serif" font-size="10.00">include/d/msg/d_msg</text>
<text text-anchor="middle" x="2080" y="-128" font-family="Helvetica,sans-Serif" font-size="10.00">_object.h</text>
</a>
</g>
</g>
<!-- Node4&#45;&gt;Node48 -->
<g id="edge17" class="edge">
<title>Node4&#45;&gt;Node48</title>
<path fill="none" stroke="#63b8ff" d="M1986.36,-181.72C2006.83,-171.95 2031.26,-160.28 2050.03,-151.31"/>
<polygon fill="#63b8ff" stroke="#63b8ff" points="1984.95,-178.52 1977.44,-185.98 1987.97,-184.83 1984.95,-178.52"/>
</g>
<!-- Node67 -->
<g id="node19" class="node">
<title>Node67</title>
<g id="a_node19"><a xlink:href="d__s__logo_8h.html" target="_top" xlink:title=" ">
<polygon fill="#fff0f0" stroke="red" points="1750.5,-145.5 1637.5,-145.5 1637.5,-126.5 1750.5,-126.5 1750.5,-145.5"/>
<text text-anchor="middle" x="1694" y="-133.5" font-family="Helvetica,sans-Serif" font-size="10.00">include/d/s/d_s_logo.h</text>
</a>
</g>
</g>
<!-- Node4&#45;&gt;Node67 -->
<g id="edge20" class="edge">
<title>Node4&#45;&gt;Node67</title>
<path fill="none" stroke="#63b8ff" d="M1879.74,-184.17C1831.57,-171.94 1768.25,-155.86 1729.37,-145.98"/>
<polygon fill="#63b8ff" stroke="#63b8ff" points="1878.68,-187.51 1889.23,-186.58 1880.4,-180.73 1878.68,-187.51"/>
</g>
<!-- Node69 -->
<g id="node20" class="node">
<title>Node69</title>
<g id="a_node20"><a xlink:href="d__s__play_8h.html" target="_top" xlink:title=" ">
<polygon fill="#fff0f0" stroke="red" points="2983.5,-145.5 2870.5,-145.5 2870.5,-126.5 2983.5,-126.5 2983.5,-145.5"/>
<text text-anchor="middle" x="2927" y="-133.5" font-family="Helvetica,sans-Serif" font-size="10.00">include/d/s/d_s_play.h</text>
</a>
</g>
</g>
<!-- Node4&#45;&gt;Node69 -->
<g id="edge21" class="edge">
<title>Node4&#45;&gt;Node69</title>
<path fill="none" stroke="#63b8ff" d="M2012.63,-200.95C2164.19,-200.05 2546.05,-193.38 2862,-151 2871.27,-149.76 2881.18,-147.9 2890.4,-145.94"/>
<polygon fill="#63b8ff" stroke="#63b8ff" points="2012.76,-197.45 2002.78,-201 2012.8,-204.45 2012.76,-197.45"/>
</g>
<!-- Node70 -->
<g id="node21" class="node">
<title>Node70</title>
<g id="a_node21"><a xlink:href="d__eye__hl_8cpp.html" target="_top" xlink:title=" ">
<polygon fill="white" stroke="#666666" points="3061,-79.5 2963,-79.5 2963,-60.5 3061,-60.5 3061,-79.5"/>
<text text-anchor="middle" x="3012" y="-67.5" font-family="Helvetica,sans-Serif" font-size="10.00">src/d/d_eye_hl.cpp</text>
</a>
</g>
</g>
<!-- Node4&#45;&gt;Node70 -->
<g id="edge40" class="edge">
<title>Node4&#45;&gt;Node70</title>
<path fill="none" stroke="#63b8ff" d="M2012.71,-200C2237.48,-196.37 2955.23,-182.34 2993,-151 3014.2,-133.41 3014.23,-96.87 3012.97,-79.95"/>
<polygon fill="#63b8ff" stroke="#63b8ff" points="2012.9,-196.5 2002.95,-200.16 2013.01,-203.5 2012.9,-196.5"/>
</g>
<!-- Node76 -->
<g id="node22" class="node">
<title>Node76</title>
<g id="a_node22"><a xlink:href="d__msg__scrn__base_8h.html" target="_top" xlink:title=" ">
<polygon fill="#fff0f0" stroke="red" points="1867.5,-151 1768.5,-151 1768.5,-121 1867.5,-121 1867.5,-151"/>
<text text-anchor="start" x="1776.5" y="-139" font-family="Helvetica,sans-Serif" font-size="10.00">include/msg/scrn/d</text>
<text text-anchor="middle" x="1818" y="-128" font-family="Helvetica,sans-Serif" font-size="10.00">_msg_scrn_base.h</text>
</a>
</g>
</g>
<!-- Node4&#45;&gt;Node76 -->
<g id="edge23" class="edge">
<title>Node4&#45;&gt;Node76</title>
<path fill="none" stroke="#63b8ff" d="M1907.18,-181.59C1887.68,-171.84 1864.48,-160.24 1846.63,-151.31"/>
<polygon fill="#63b8ff" stroke="#63b8ff" points="1905.41,-184.62 1915.92,-185.96 1908.54,-178.36 1905.41,-184.62"/>
</g>
<!-- Node80 -->
<g id="node23" class="node">
<title>Node80</title>
<g id="a_node23"><a xlink:href="d__a__b__zant_8h.html" target="_top" xlink:title=" ">
<polygon fill="white" stroke="#666666" points="2006.5,-151 1885.5,-151 1885.5,-121 2006.5,-121 2006.5,-151"/>
<text text-anchor="start" x="1893.5" y="-139" font-family="Helvetica,sans-Serif" font-size="10.00">include/rel/d/a/b/d</text>
<text text-anchor="middle" x="1946" y="-128" font-family="Helvetica,sans-Serif" font-size="10.00">_a_b_zant/d_a_b_zant.h</text>
</a>
</g>
</g>
<!-- Node4&#45;&gt;Node80 -->
<g id="edge25" class="edge">
<title>Node4&#45;&gt;Node80</title>
<path fill="none" stroke="#63b8ff" d="M1946,-175.39C1946,-167.13 1946,-158.28 1946,-151.16"/>
<polygon fill="#63b8ff" stroke="#63b8ff" points="1942.5,-175.28 1946,-185.28 1949.5,-175.28 1942.5,-175.28"/>
</g>
<!-- Node81 -->
<g id="node24" class="node">
<title>Node81</title>
<g id="a_node24"><a xlink:href="d__a__andsw_8h.html" target="_top" xlink:title=" ">
<polygon fill="white" stroke="#666666" points="2477,-151 2367,-151 2367,-121 2477,-121 2477,-151"/>
<text text-anchor="start" x="2375" y="-139" font-family="Helvetica,sans-Serif" font-size="10.00">include/rel/d/a/d_a</text>
<text text-anchor="middle" x="2422" y="-128" font-family="Helvetica,sans-Serif" font-size="10.00">_andsw/d_a_andsw.h</text>
</a>
</g>
</g>
<!-- Node4&#45;&gt;Node81 -->
<g id="edge26" class="edge">
<title>Node4&#45;&gt;Node81</title>
<path fill="none" stroke="#63b8ff" d="M2012.49,-194.44C2093.26,-186.1 2233.54,-170.43 2353,-151 2357.46,-150.27 2362.08,-149.47 2366.71,-148.61"/>
<polygon fill="#63b8ff" stroke="#63b8ff" points="2012.59,-190.91 2003,-195.41 2013.3,-197.88 2012.59,-190.91"/>
</g>
<!-- Node82 -->
<g id="node25" class="node">
<title>Node82</title>
<g id="a_node25"><a xlink:href="d__a__cstaF_8h.html" target="_top" xlink:title=" ">
<polygon fill="white" stroke="#666666" points="2598.5,-151 2495.5,-151 2495.5,-121 2598.5,-121 2598.5,-151"/>
<text text-anchor="start" x="2503.5" y="-139" font-family="Helvetica,sans-Serif" font-size="10.00">include/rel/d/a/d_a</text>
<text text-anchor="middle" x="2547" y="-128" font-family="Helvetica,sans-Serif" font-size="10.00">_cstaF/d_a_cstaF.h</text>
</a>
</g>
</g>
<!-- Node4&#45;&gt;Node82 -->
<g id="edge27" class="edge">
<title>Node4&#45;&gt;Node82</title>
<path fill="none" stroke="#63b8ff" d="M2012.89,-197.68C2115.28,-191.95 2316.82,-178.12 2486,-151 2489,-150.52 2492.08,-149.97 2495.18,-149.39"/>
<polygon fill="#63b8ff" stroke="#63b8ff" points="2012.8,-194.18 2003.01,-198.22 2013.19,-201.17 2012.8,-194.18"/>
</g>
<!-- Node83 -->
<g id="node26" class="node">
<title>Node83</title>
<g id="a_node26"><a xlink:href="d__a__dmidna_8h.html" target="_top" xlink:title=" ">
<polygon fill="white" stroke="#666666" points="2733,-151 2617,-151 2617,-121 2733,-121 2733,-151"/>
<text text-anchor="start" x="2625" y="-139" font-family="Helvetica,sans-Serif" font-size="10.00">include/rel/d/a/d_a</text>
<text text-anchor="middle" x="2675" y="-128" font-family="Helvetica,sans-Serif" font-size="10.00">_dmidna/d_a_dmidna.h</text>
</a>
</g>
</g>
<!-- Node4&#45;&gt;Node83 -->
<g id="edge28" class="edge">
<title>Node4&#45;&gt;Node83</title>
<path fill="none" stroke="#63b8ff" d="M2012.57,-198.77C2132.1,-194.15 2390.82,-181.3 2607,-151 2610.22,-150.55 2613.52,-150.04 2616.85,-149.48"/>
<polygon fill="#63b8ff" stroke="#63b8ff" points="2012.47,-195.27 2002.61,-199.15 2012.73,-202.27 2012.47,-195.27"/>
</g>
<!-- Node84 -->
<g id="node27" class="node">
<title>Node84</title>
<g id="a_node27"><a xlink:href="d__a__econt_8h.html" target="_top" xlink:title=" ">
<polygon fill="white" stroke="#666666" points="2852.5,-151 2751.5,-151 2751.5,-121 2852.5,-121 2852.5,-151"/>
<text text-anchor="start" x="2759.5" y="-139" font-family="Helvetica,sans-Serif" font-size="10.00">include/rel/d/a/d_a</text>
<text text-anchor="middle" x="2802" y="-128" font-family="Helvetica,sans-Serif" font-size="10.00">_econt/d_a_econt.h</text>
</a>
</g>
</g>
<!-- Node4&#45;&gt;Node84 -->
<g id="edge29" class="edge">
<title>Node4&#45;&gt;Node84</title>
<path fill="none" stroke="#63b8ff" d="M2012.45,-200.55C2149.57,-198.81 2473.51,-190.48 2742,-151 2744.96,-150.56 2748,-150.06 2751.05,-149.5"/>
<polygon fill="#63b8ff" stroke="#63b8ff" points="2012.81,-197.05 2002.85,-200.67 2012.89,-204.05 2012.81,-197.05"/>
</g>
<!-- Node85 -->
<g id="node28" class="node">
<title>Node85</title>
<g id="a_node28"><a xlink:href="d__a__guard__mng_8h.html" target="_top" xlink:title=" ">
<polygon fill="white" stroke="#666666" points="444.5,-151 295.5,-151 295.5,-121 444.5,-121 444.5,-151"/>
<text text-anchor="start" x="303.5" y="-139" font-family="Helvetica,sans-Serif" font-size="10.00">include/rel/d/a/d_a</text>
<text text-anchor="middle" x="370" y="-128" font-family="Helvetica,sans-Serif" font-size="10.00">_guard_mng/d_a_guard_mng.h</text>
</a>
</g>
</g>
<!-- Node4&#45;&gt;Node85 -->
<g id="edge30" class="edge">
<title>Node4&#45;&gt;Node85</title>
<path fill="none" stroke="#63b8ff" d="M1879.29,-199.93C1627.71,-195.73 736.43,-179.14 454,-151 450.91,-150.69 447.76,-150.34 444.59,-149.95"/>
<polygon fill="#63b8ff" stroke="#63b8ff" points="1879.21,-203.43 1889.26,-200.1 1879.32,-196.43 1879.21,-203.43"/>
</g>
<!-- Node86 -->
<g id="node29" class="node">
<title>Node86</title>
<g id="a_node29"><a xlink:href="d__a__hitobj_8h.html" target="_top" xlink:title=" ">
<polygon fill="white" stroke="#666666" points="563,-151 463,-151 463,-121 563,-121 563,-151"/>
<text text-anchor="start" x="471" y="-139" font-family="Helvetica,sans-Serif" font-size="10.00">include/rel/d/a/d_a</text>
<text text-anchor="middle" x="513" y="-128" font-family="Helvetica,sans-Serif" font-size="10.00">_hitobj/d_a_hitobj.h</text>
</a>
</g>
</g>
<!-- Node4&#45;&gt;Node86 -->
<g id="edge31" class="edge">
<title>Node4&#45;&gt;Node86</title>
<path fill="none" stroke="#63b8ff" d="M1879.37,-200.31C1640.72,-197.57 829.16,-185.84 572,-151 569.18,-150.62 566.3,-150.16 563.41,-149.65"/>
<polygon fill="#63b8ff" stroke="#63b8ff" points="1879.08,-203.81 1889.12,-200.42 1879.16,-196.81 1879.08,-203.81"/>
</g>
<!-- Node87 -->
<g id="node30" class="node">
<title>Node87</title>
<g id="a_node30"><a xlink:href="d__a__set__bgobj_8h.html" target="_top" xlink:title=" ">
<polygon fill="white" stroke="#666666" points="718.5,-151 581.5,-151 581.5,-121 718.5,-121 718.5,-151"/>
<text text-anchor="start" x="589.5" y="-139" font-family="Helvetica,sans-Serif" font-size="10.00">include/rel/d/a/d_a</text>
<text text-anchor="middle" x="650" y="-128" font-family="Helvetica,sans-Serif" font-size="10.00">_set_bgobj/d_a_set_bgobj.h</text>
</a>
</g>
</g>
<!-- Node4&#45;&gt;Node87 -->
<g id="edge32" class="edge">
<title>Node4&#45;&gt;Node87</title>
<path fill="none" stroke="#63b8ff" d="M1879.2,-201.45C1695.11,-202.01 1165.14,-198.98 728,-151 724.99,-150.67 721.92,-150.29 718.83,-149.88"/>
<polygon fill="#63b8ff" stroke="#63b8ff" points="1879.06,-204.95 1889.05,-201.42 1879.04,-197.95 1879.06,-204.95"/>
</g>
<!-- Node88 -->
<g id="node31" class="node">
<title>Node88</title>
<g id="a_node31"><a xlink:href="d__a__skip__2D_8h.html" target="_top" xlink:title=" ">
<polygon fill="white" stroke="#666666" points="861,-151 737,-151 737,-121 861,-121 861,-151"/>
<text text-anchor="start" x="745" y="-139" font-family="Helvetica,sans-Serif" font-size="10.00">include/rel/d/a/d_a</text>
<text text-anchor="middle" x="799" y="-128" font-family="Helvetica,sans-Serif" font-size="10.00">_skip_2D/d_a_skip_2D.h</text>
</a>
</g>
</g>
<!-- Node4&#45;&gt;Node88 -->
<g id="edge33" class="edge">
<title>Node4&#45;&gt;Node88</title>
<path fill="none" stroke="#63b8ff" d="M1879.15,-201.33C1709.69,-201.41 1249.78,-197.01 870,-151 867.13,-150.65 864.2,-150.25 861.25,-149.82"/>
<polygon fill="#63b8ff" stroke="#63b8ff" points="1879.1,-204.83 1889.09,-201.32 1879.09,-197.83 1879.1,-204.83"/>
</g>
<!-- Node89 -->
<g id="node32" class="node">
<title>Node89</title>
<g id="a_node32"><a xlink:href="d__a__spinner_8h.html" target="_top" xlink:title=" ">
<polygon fill="#fff0f0" stroke="red" points="239,-151 123,-151 123,-121 239,-121 239,-151"/>
<text text-anchor="start" x="131" y="-139" font-family="Helvetica,sans-Serif" font-size="10.00">include/rel/d/a/d_a</text>
<text text-anchor="middle" x="181" y="-128" font-family="Helvetica,sans-Serif" font-size="10.00">_spinner/d_a_spinner.h</text>
</a>
</g>
</g>
<!-- Node4&#45;&gt;Node89 -->
<g id="edge34" class="edge">
<title>Node4&#45;&gt;Node89</title>
<path fill="none" stroke="#63b8ff" d="M1879.48,-201.44C1654.85,-202.4 903.88,-201.36 286,-151 270.88,-149.77 254.6,-147.88 239.48,-145.88"/>
<polygon fill="#63b8ff" stroke="#63b8ff" points="1879.22,-204.94 1889.2,-201.39 1879.19,-197.94 1879.22,-204.94"/>
</g>
<!-- Node91 -->
<g id="node33" class="node">
<title>Node91</title>
<g id="a_node33"><a xlink:href="d__a__player_8cpp.html" target="_top" xlink:title=" ">
<polygon fill="white" stroke="#666666" points="114,-79.5 0,-79.5 0,-60.5 114,-60.5 114,-79.5"/>
<text text-anchor="middle" x="57" y="-67.5" font-family="Helvetica,sans-Serif" font-size="10.00">src/d/a/d_a_player.cpp</text>
</a>
</g>
</g>
<!-- Node4&#45;&gt;Node91 -->
<g id="edge38" class="edge">
<title>Node4&#45;&gt;Node91</title>
<path fill="none" stroke="#63b8ff" d="M1879.51,-200.84C1559.86,-199.87 193.31,-193.25 114,-151 84.65,-135.36 66.94,-97.13 60.17,-79.8"/>
<polygon fill="#63b8ff" stroke="#63b8ff" points="1879.35,-204.34 1889.36,-200.87 1879.37,-197.34 1879.35,-204.34"/>
</g>
<!-- Node4&#45;&gt;Node130 -->
<g id="edge39" class="edge">
<title>Node4&#45;&gt;Node130</title>
<path fill="none" stroke="#63b8ff" d="M2012.6,-200.21C2249.28,-197.15 3049.18,-184.5 3303,-151 3311.83,-149.83 3321.27,-147.98 3330.01,-146"/>
<polygon fill="#63b8ff" stroke="#63b8ff" points="2012.9,-196.71 2002.94,-200.33 2012.98,-203.71 2012.9,-196.71"/>
</g>
<!-- Node9 -->
<g id="node6" class="node">
<title>Node9</title>
<g id="a_node6"><a xlink:href="d__a__npc_8cpp.html" target="_top" xlink:title=" ">
<polygon fill="white" stroke="#666666" points="2874,-19 2770,-19 2770,0 2874,0 2874,-19"/>
<text text-anchor="middle" x="2822" y="-7" font-family="Helvetica,sans-Serif" font-size="10.00">src/d/a/d_a_npc.cpp</text>
</a>
</g>
</g>
<!-- Node5&#45;&gt;Node9 -->
<g id="edge5" class="edge">
<title>Node5&#45;&gt;Node9</title>
<path fill="none" stroke="#63b8ff" d="M2227.4,-58.37C2235.99,-57.13 2244.7,-55.97 2253,-55 2442.7,-32.86 2669.31,-18.83 2769.7,-13.25"/>
<polygon fill="#63b8ff" stroke="#63b8ff" points="2227.08,-54.88 2217.71,-59.81 2228.11,-61.81 2227.08,-54.88"/>
</g>
<!-- Node11&#45;&gt;Node12 -->
<g id="edge7" class="edge">
<title>Node11&#45;&gt;Node12</title>
<path fill="none" stroke="#63b8ff" d="M2267.75,-118.25C2278.01,-107.99 2291,-95 2300.77,-85.23"/>
<polygon fill="#63b8ff" stroke="#63b8ff" points="2265.57,-115.48 2260.97,-125.03 2270.52,-120.43 2265.57,-115.48"/>
</g>
<!-- Node23&#45;&gt;Node16 -->
<g id="edge10" class="edge">
<title>Node23&#45;&gt;Node16</title>
<path fill="none" stroke="#63b8ff" d="M1260.6,-123.49C1256.35,-122.57 1252.11,-121.72 1248,-121 1102,-95.29 927.57,-80.73 840.74,-74.56"/>
<polygon fill="#63b8ff" stroke="#63b8ff" points="1259.7,-126.87 1270.23,-125.7 1261.26,-120.05 1259.7,-126.87"/>
</g>
<!-- Node48&#45;&gt;Node5 -->
<g id="edge18" class="edge">
<title>Node48&#45;&gt;Node5</title>
<path fill="none" stroke="#63b8ff" d="M2107.32,-113.93C2122.34,-102.35 2140.17,-88.61 2151.53,-79.84"/>
<polygon fill="#63b8ff" stroke="#63b8ff" points="2105.4,-110.99 2099.62,-119.87 2109.68,-116.54 2105.4,-110.99"/>
</g>
<!-- Node48&#45;&gt;Node16 -->
<g id="edge19" class="edge">
<title>Node48&#45;&gt;Node16</title>
<path fill="none" stroke="#63b8ff" d="M2013.47,-121.04C1760.77,-91.03 1044.56,-75.81 840.71,-71.98"/>
<polygon fill="#63b8ff" stroke="#63b8ff" points="2012.94,-124.5 2023.29,-122.25 2013.79,-117.55 2012.94,-124.5"/>
</g>
<!-- Node69&#45;&gt;Node70 -->
<g id="edge22" class="edge">
<title>Node69&#45;&gt;Node70</title>
<path fill="none" stroke="#63b8ff" d="M2947.73,-119.39C2964.24,-106.96 2986.75,-90.01 3000.28,-79.82"/>
<polygon fill="#63b8ff" stroke="#63b8ff" points="2945.91,-116.38 2940.03,-125.19 2950.12,-121.97 2945.91,-116.38"/>
</g>
<!-- Node89&#45;&gt;Node16 -->
<g id="edge35" class="edge">
<title>Node89&#45;&gt;Node16</title>
<path fill="none" stroke="#63b8ff" d="M250.5,-121.37C251.34,-121.24 252.17,-121.12 253,-121 426.87,-96 634.53,-80.66 731.31,-74.35"/>
<polygon fill="#63b8ff" stroke="#63b8ff" points="250.28,-117.86 240.96,-122.89 251.39,-124.77 250.28,-117.86"/>
</g>
<!-- Node89&#45;&gt;Node91 -->
<g id="edge36" class="edge">
<title>Node89&#45;&gt;Node91</title>
<path fill="none" stroke="#63b8ff" d="M143.08,-115.43C120.2,-103.62 92.14,-89.14 74.41,-79.99"/>
<polygon fill="#63b8ff" stroke="#63b8ff" points="141.34,-118.47 151.83,-119.94 144.55,-112.25 141.34,-118.47"/>
</g>
<!-- Node163&#45;&gt;Node3 -->
<g id="edge43" class="edge">
<title>Node163&#45;&gt;Node3</title>
<path fill="none" stroke="#63b8ff" d="M1852.55,-390.15C1857.16,-369.78 1867.1,-338.39 1887,-319 1908.93,-297.63 1941.02,-285.14 1967.7,-277.99"/>
<polygon fill="#63b8ff" stroke="#63b8ff" points="1849.16,-389.23 1850.62,-399.72 1856.02,-390.61 1849.16,-389.23"/>
</g>
<!-- Node163&#45;&gt;Node9 -->
<g id="edge56" class="edge">
<title>Node163&#45;&gt;Node9</title>
<path fill="none" stroke="#63b8ff" d="M1921.23,-407.07C1992.38,-404.2 2104.18,-399.72 2201,-396 2343.93,-390.51 3482,-412.03 3482,-269 3482,-269 3482,-269 3482,-135 3482,-73.27 3030.44,-28.48 2874.34,-14.84"/>
<polygon fill="#63b8ff" stroke="#63b8ff" points="1921.09,-403.57 1911.24,-407.47 1921.38,-410.57 1921.09,-403.57"/>
</g>
<!-- Node163&#45;&gt;Node91 -->
<g id="edge57" class="edge">
<title>Node163&#45;&gt;Node91</title>
<path fill="none" stroke="#63b8ff" d="M1776.74,-408.28C1437.46,-399.76 19,-358.77 19,-269 19,-269 19,-269 19,-201 19,-153.74 42.43,-100.55 52.49,-79.88"/>
<polygon fill="#63b8ff" stroke="#63b8ff" points="1776.52,-411.78 1786.6,-408.53 1776.69,-404.78 1776.52,-411.78"/>
</g>
<!-- Node164 -->
<g id="node36" class="node">
<title>Node164</title>
<g id="a_node36"><a xlink:href="d__bg__s__acch_8h.html" target="_top" xlink:title=" ">
<polygon fill="#fff0f0" stroke="red" points="1764,-354.5 1660,-354.5 1660,-324.5 1764,-324.5 1764,-354.5"/>
<text text-anchor="start" x="1668" y="-342.5" font-family="Helvetica,sans-Serif" font-size="10.00">include/d/bg/d_bg_s</text>
<text text-anchor="middle" x="1712" y="-331.5" font-family="Helvetica,sans-Serif" font-size="10.00">_acch.h</text>
</a>
</g>
</g>
<!-- Node163&#45;&gt;Node164 -->
<g id="edge44" class="edge">
<title>Node163&#45;&gt;Node164</title>
<path fill="none" stroke="#63b8ff" d="M1821.36,-395.98C1797.87,-384.06 1764.27,-367.02 1740.53,-354.97"/>
<polygon fill="#63b8ff" stroke="#63b8ff" points="1819.52,-398.97 1830.02,-400.37 1822.69,-392.73 1819.52,-398.97"/>
</g>
<!-- Node168 -->
<g id="node37" class="node">
<title>Node168</title>
<g id="a_node37"><a xlink:href="d__a__do_8h.html" target="_top" xlink:title=" ">
<polygon fill="white" stroke="#666666" points="1680,-283 1584,-283 1584,-253 1680,-253 1680,-283"/>
<text text-anchor="start" x="1592" y="-271" font-family="Helvetica,sans-Serif" font-size="10.00">include/rel/d/a/d_a</text>
<text text-anchor="middle" x="1632" y="-260" font-family="Helvetica,sans-Serif" font-size="10.00">_do/d_a_do.h</text>
</a>
</g>
</g>
<!-- Node163&#45;&gt;Node168 -->
<g id="edge53" class="edge">
<title>Node163&#45;&gt;Node168</title>
<path fill="none" stroke="#63b8ff" d="M1776.97,-399.96C1727.78,-391.64 1668.48,-378.22 1651,-360 1631.11,-339.27 1629.7,-303.37 1630.68,-283.42"/>
<polygon fill="#63b8ff" stroke="#63b8ff" points="1776.32,-403.4 1786.76,-401.57 1777.46,-396.5 1776.32,-403.4"/>
</g>
<!-- Node199 -->
<g id="node38" class="node">
<title>Node199</title>
<g id="a_node38"><a xlink:href="d__attention_8h.html" target="_top" xlink:title=" ">
<polygon fill="#fff0f0" stroke="red" points="2190,-349 2076,-349 2076,-330 2190,-330 2190,-349"/>
<text text-anchor="middle" x="2133" y="-337" font-family="Helvetica,sans-Serif" font-size="10.00">include/d/d_attention.h</text>
</a>
</g>
</g>
<!-- Node163&#45;&gt;Node199 -->
<g id="edge46" class="edge">
<title>Node163&#45;&gt;Node199</title>
<path fill="none" stroke="#63b8ff" d="M1896.66,-398.34C1953.04,-384.54 2045.65,-361.88 2096.59,-349.41"/>
<polygon fill="#63b8ff" stroke="#63b8ff" points="1895.9,-394.92 1887.02,-400.7 1897.56,-401.72 1895.9,-394.92"/>
</g>
<!-- Node176 -->
<g id="node39" class="node">
<title>Node176</title>
<g id="a_node39"><a xlink:href="d__event_8h.html" target="_top" xlink:title=" ">
<polygon fill="#fff0f0" stroke="red" points="1940,-277.5 1812,-277.5 1812,-258.5 1940,-258.5 1940,-277.5"/>
<text text-anchor="middle" x="1876" y="-265.5" font-family="Helvetica,sans-Serif" font-size="10.00">include/d/event/d_event.h</text>
</a>
</g>
</g>
<!-- Node163&#45;&gt;Node176 -->
<g id="edge49" class="edge">
<title>Node163&#45;&gt;Node176</title>
<path fill="none" stroke="#63b8ff" d="M1848.05,-389.62C1847.67,-370.98 1848.32,-342.77 1854,-319 1857.62,-303.87 1865.63,-287.61 1870.92,-277.87"/>
<polygon fill="#63b8ff" stroke="#63b8ff" points="1844.55,-389.68 1848.39,-399.55 1851.55,-389.44 1844.55,-389.68"/>
</g>
<!-- Node201 -->
<g id="node40" class="node">
<title>Node201</title>
<g id="a_node40"><a xlink:href="d__a__crod_8h.html" target="_top" xlink:title=" ">
<polygon fill="white" stroke="#666666" points="1794,-283 1698,-283 1698,-253 1794,-253 1794,-283"/>
<text text-anchor="start" x="1706" y="-271" font-family="Helvetica,sans-Serif" font-size="10.00">include/rel/d/a/d_a</text>
<text text-anchor="middle" x="1746" y="-260" font-family="Helvetica,sans-Serif" font-size="10.00">_crod/d_a_crod.h</text>
</a>
</g>
</g>
<!-- Node163&#45;&gt;Node201 -->
<g id="edge51" class="edge">
<title>Node163&#45;&gt;Node201</title>
<path fill="none" stroke="#63b8ff" d="M1835.88,-392.04C1815.23,-363.77 1775.54,-309.43 1756.58,-283.48"/>
<polygon fill="#63b8ff" stroke="#63b8ff" points="1832.94,-393.95 1841.66,-399.96 1838.59,-389.82 1832.94,-393.95"/>
</g>
<!-- Node202 -->
<g id="node41" class="node">
<title>Node202</title>
<g id="a_node41"><a xlink:href="d__a__tag__mmsg_8h.html" target="_top" xlink:title=" ">
<polygon fill="white" stroke="#666666" points="2020,-360 1896,-360 1896,-319 2020,-319 2020,-360"/>
<text text-anchor="start" x="1904" y="-348" font-family="Helvetica,sans-Serif" font-size="10.00">include/rel/d/a/tag</text>
<text text-anchor="start" x="1904" y="-337" font-family="Helvetica,sans-Serif" font-size="10.00">/d_a_tag_mmsg/d_a_tag</text>
<text text-anchor="middle" x="1958" y="-326" font-family="Helvetica,sans-Serif" font-size="10.00">_mmsg.h</text>
</a>
</g>
</g>
<!-- Node163&#45;&gt;Node202 -->
<g id="edge54" class="edge">
<title>Node163&#45;&gt;Node202</title>
<path fill="none" stroke="#63b8ff" d="M1872.41,-395.07C1888.35,-384.91 1909.61,-371.35 1926.96,-360.29"/>
<polygon fill="#63b8ff" stroke="#63b8ff" points="1870.63,-392.06 1864.08,-400.38 1874.39,-397.96 1870.63,-392.06"/>
</g>
<!-- Node164&#45;&gt;Node168 -->
<g id="edge45" class="edge">
<title>Node164&#45;&gt;Node168</title>
<path fill="none" stroke="#63b8ff" d="M1686.81,-316.62C1674.33,-305.77 1659.6,-292.98 1648.55,-283.38"/>
<polygon fill="#63b8ff" stroke="#63b8ff" points="1684.44,-319.19 1694.28,-323.11 1689.03,-313.91 1684.44,-319.19"/>
</g>
<!-- Node199&#45;&gt;Node3 -->
<g id="edge47" class="edge">
<title>Node199&#45;&gt;Node3</title>
<path fill="none" stroke="#63b8ff" d="M2108.31,-323.83C2084.94,-309.95 2050.6,-289.56 2031.07,-277.95"/>
<polygon fill="#63b8ff" stroke="#63b8ff" points="2106.5,-326.83 2116.88,-328.92 2110.07,-320.81 2106.5,-326.83"/>
</g>
<!-- Node199&#45;&gt;Node4 -->
<g id="edge48" class="edge">
<title>Node199&#45;&gt;Node4</title>
<path fill="none" stroke="#63b8ff" d="M2126.18,-319.12C2118.49,-299.86 2104.2,-270.71 2083,-253 2059.68,-233.52 2028.12,-221.32 2001.17,-213.85"/>
<polygon fill="#63b8ff" stroke="#63b8ff" points="2122.81,-320.09 2129.6,-328.23 2129.36,-317.64 2122.81,-320.09"/>
</g>
<!-- Node176&#45;&gt;Node4 -->
<g id="edge50" class="edge">
<title>Node176&#45;&gt;Node4</title>
<path fill="none" stroke="#63b8ff" d="M1893.92,-250.62C1905.11,-240.38 1919.39,-227.33 1930.17,-217.48"/>
<polygon fill="#63b8ff" stroke="#63b8ff" points="1891.87,-247.75 1886.85,-257.08 1896.59,-252.92 1891.87,-247.75"/>
</g>
<!-- Node201&#45;&gt;Node16 -->
<g id="edge52" class="edge">
<title>Node201&#45;&gt;Node16</title>
<path fill="none" stroke="#63b8ff" d="M1686.49,-252.94C1354.5,-212.47 560.01,-290.24 253,-217 186.48,-201.13 150.54,-208.81 114,-151 106.88,-139.73 104.93,-130.77 114,-121 155.64,-76.15 578.18,-71.21 731.12,-70.91"/>
<polygon fill="#63b8ff" stroke="#63b8ff" points="1685.76,-256.38 1696.12,-254.17 1686.65,-249.43 1685.76,-256.38"/>
</g>
<!-- Node202&#45;&gt;Node3 -->
<g id="edge55" class="edge">
<title>Node202&#45;&gt;Node3</title>
<path fill="none" stroke="#63b8ff" d="M1981.63,-310.18C1991.32,-298.58 2001.83,-285.98 2008.64,-277.82"/>
<polygon fill="#63b8ff" stroke="#63b8ff" points="1979.16,-307.69 1975.44,-317.61 1984.53,-312.17 1979.16,-307.69"/>
</g>
<!-- Node230&#45;&gt;Node40 -->
<g id="edge66" class="edge">
<title>Node230&#45;&gt;Node40</title>
<path fill="none" stroke="#63b8ff" d="M2959.61,-183.24C2998.23,-171.12 3047.76,-155.59 3078.43,-145.96"/>
<polygon fill="#63b8ff" stroke="#63b8ff" points="2958.97,-179.77 2950.48,-186.1 2961.07,-186.45 2958.97,-179.77"/>
</g>
<!-- Node231&#45;&gt;Node3 -->
<g id="edge69" class="edge">
<title>Node231&#45;&gt;Node3</title>
<path fill="none" stroke="#63b8ff" d="M3049.63,-334.49C2854.23,-322.11 2262.89,-284.64 2074.4,-272.7"/>
<polygon fill="#63b8ff" stroke="#63b8ff" points="3049.12,-337.96 3059.32,-335.1 3049.56,-330.97 3049.12,-337.96"/>
</g>
<!-- Node231&#45;&gt;Node70 -->
<g id="edge70" class="edge">
<title>Node231&#45;&gt;Node70</title>
<path fill="none" stroke="#63b8ff" d="M3161.21,-326.71C3269,-298.24 3513.3,-220.63 3425,-121 3401.2,-94.14 3165.42,-78.85 3061.16,-73.35"/>
<polygon fill="#63b8ff" stroke="#63b8ff" points="3160.57,-323.26 3151.77,-329.17 3162.33,-330.04 3160.57,-323.26"/>
</g>
</g>
</svg>
