<?xml version="1.0" encoding="UTF-8" standalone="no"?>
<!DOCTYPE svg PUBLIC "-//W3C//DTD SVG 1.1//EN"
 "http://www.w3.org/Graphics/SVG/1.1/DTD/svg11.dtd">
<!-- Generated by graphviz version 7.0.5 (20221223.1930)
 -->
<!-- Title: include/JSystem/J3DGraphBase/J3DMatBlock.h Pages: 1 -->
<svg width="5019pt" height="313pt"
 viewBox="0.00 0.00 5018.83 313.00" xmlns="http://www.w3.org/2000/svg" xmlns:xlink="http://www.w3.org/1999/xlink">
<g id="graph0" class="graph" transform="scale(1 1) rotate(0) translate(4 309)">
<title>include/JSystem/J3DGraphBase/J3DMatBlock.h</title>
<!-- Node1 -->
<g id="node1" class="node">
<title>Node1</title>
<g id="a_node1"><a xlink:title=" ">
<polygon fill="#999999" stroke="#666666" points="2628,-305 2493,-305 2493,-275 2628,-275 2628,-305"/>
<text text-anchor="start" x="2501" y="-293" font-family="Helvetica,sans-Serif" font-size="10.00">include/JSystem/J3DGraph</text>
<text text-anchor="middle" x="2560.5" y="-282" font-family="Helvetica,sans-Serif" font-size="10.00">Base/J3DMatBlock.h</text>
</a>
</g>
</g>
<!-- Node2 -->
<g id="node2" class="node">
<title>Node2</title>
<g id="a_node2"><a xlink:href="J3DMaterial_8h.html" target="_top" xlink:title=" ">
<polygon fill="white" stroke="#666666" points="520,-239 385,-239 385,-209 520,-209 520,-239"/>
<text text-anchor="start" x="393" y="-227" font-family="Helvetica,sans-Serif" font-size="10.00">include/JSystem/J3DGraph</text>
<text text-anchor="middle" x="452.5" y="-216" font-family="Helvetica,sans-Serif" font-size="10.00">Base/J3DMaterial.h</text>
</a>
</g>
</g>
<!-- Node1&#45;&gt;Node2 -->
<g id="edge1" class="edge">
<title>Node1&#45;&gt;Node2</title>
<path fill="none" stroke="#63b8ff" d="M2481.67,-286.61C2145.45,-276.4 834.11,-236.59 520.26,-227.06"/>
<polygon fill="#63b8ff" stroke="#63b8ff" points="2481.14,-290.09 2491.24,-286.9 2481.35,-283.1 2481.14,-290.09"/>
</g>
<!-- Node23 -->
<g id="node11" class="node">
<title>Node23</title>
<g id="a_node11"><a xlink:href="d__a__alink_8h.html" target="_top" xlink:title=" ">
<polygon fill="white" stroke="#666666" points="2618.5,-233.5 2502.5,-233.5 2502.5,-214.5 2618.5,-214.5 2618.5,-233.5"/>
<text text-anchor="middle" x="2560.5" y="-221.5" font-family="Helvetica,sans-Serif" font-size="10.00">include/d/a/d_a_alink.h</text>
</a>
</g>
</g>
<!-- Node1&#45;&gt;Node23 -->
<g id="edge10" class="edge">
<title>Node1&#45;&gt;Node23</title>
<path fill="none" stroke="#63b8ff" d="M2560.5,-263.59C2560.5,-253.06 2560.5,-241.53 2560.5,-233.84"/>
<polygon fill="#63b8ff" stroke="#63b8ff" points="2557,-263.28 2560.5,-273.28 2564,-263.28 2557,-263.28"/>
</g>
<!-- Node374 -->
<g id="node50" class="node">
<title>Node374</title>
<g id="a_node50"><a xlink:href="J3DMatBlock_8cpp.html" target="_top" xlink:title=" ">
<polygon fill="white" stroke="#666666" points="2778.5,-239 2636.5,-239 2636.5,-209 2778.5,-209 2778.5,-239"/>
<text text-anchor="start" x="2644.5" y="-227" font-family="Helvetica,sans-Serif" font-size="10.00">libs/JSystem/J3DGraphBase</text>
<text text-anchor="middle" x="2707.5" y="-216" font-family="Helvetica,sans-Serif" font-size="10.00">/J3DMatBlock.cpp</text>
</a>
</g>
</g>
<!-- Node1&#45;&gt;Node374 -->
<g id="edge59" class="edge">
<title>Node1&#45;&gt;Node374</title>
<path fill="none" stroke="#63b8ff" d="M2603.82,-270.14C2626.37,-260.32 2653.51,-248.51 2674.37,-239.43"/>
<polygon fill="#63b8ff" stroke="#63b8ff" points="2602.65,-266.83 2594.88,-274.03 2605.44,-273.25 2602.65,-266.83"/>
</g>
<!-- Node3 -->
<g id="node3" class="node">
<title>Node3</title>
<g id="a_node3"><a xlink:href="J3DJoint_8h.html" target="_top" xlink:title=" ">
<polygon fill="white" stroke="#666666" points="472,-173 337,-173 337,-143 472,-143 472,-173"/>
<text text-anchor="start" x="345" y="-161" font-family="Helvetica,sans-Serif" font-size="10.00">include/JSystem/J3DGraph</text>
<text text-anchor="middle" x="404.5" y="-150" font-family="Helvetica,sans-Serif" font-size="10.00">Animator/J3DJoint.h</text>
</a>
</g>
</g>
<!-- Node2&#45;&gt;Node3 -->
<g id="edge2" class="edge">
<title>Node2&#45;&gt;Node3</title>
<path fill="none" stroke="#63b8ff" d="M435.01,-199.68C428.35,-190.79 420.96,-180.95 415.12,-173.16"/>
<polygon fill="#63b8ff" stroke="#63b8ff" points="432.14,-201.69 440.94,-207.59 437.74,-197.49 432.14,-201.69"/>
</g>
<!-- Node372 -->
<g id="node7" class="node">
<title>Node372</title>
<g id="a_node7"><a xlink:href="J3DDrawBuffer_8cpp.html" target="_top" xlink:title=" ">
<polygon fill="white" stroke="#666666" points="670.5,-173 528.5,-173 528.5,-143 670.5,-143 670.5,-173"/>
<text text-anchor="start" x="536.5" y="-161" font-family="Helvetica,sans-Serif" font-size="10.00">libs/JSystem/J3DGraphBase</text>
<text text-anchor="middle" x="599.5" y="-150" font-family="Helvetica,sans-Serif" font-size="10.00">/J3DDrawBuffer.cpp</text>
</a>
</g>
</g>
<!-- Node2&#45;&gt;Node372 -->
<g id="edge6" class="edge">
<title>Node2&#45;&gt;Node372</title>
<path fill="none" stroke="#63b8ff" d="M495.82,-204.14C518.37,-194.32 545.51,-182.51 566.37,-173.43"/>
<polygon fill="#63b8ff" stroke="#63b8ff" points="494.65,-200.83 486.88,-208.03 497.44,-207.25 494.65,-200.83"/>
</g>
<!-- Node373 -->
<g id="node8" class="node">
<title>Node373</title>
<g id="a_node8"><a xlink:href="J3DMaterial_8cpp.html" target="_top" xlink:title=" ">
<polygon fill="white" stroke="#666666" points="158.5,-173 16.5,-173 16.5,-143 158.5,-143 158.5,-173"/>
<text text-anchor="start" x="24.5" y="-161" font-family="Helvetica,sans-Serif" font-size="10.00">libs/JSystem/J3DGraphBase</text>
<text text-anchor="middle" x="87.5" y="-150" font-family="Helvetica,sans-Serif" font-size="10.00">/J3DMaterial.cpp</text>
</a>
</g>
</g>
<!-- Node2&#45;&gt;Node373 -->
<g id="edge7" class="edge">
<title>Node2&#45;&gt;Node373</title>
<path fill="none" stroke="#63b8ff" d="M373.49,-209.15C309.7,-197.96 220.69,-182.35 158.99,-171.54"/>
<polygon fill="#63b8ff" stroke="#63b8ff" points="372.76,-212.57 383.21,-210.85 373.97,-205.68 372.76,-212.57"/>
</g>
<!-- Node361 -->
<g id="node9" class="node">
<title>Node361</title>
<g id="a_node9"><a xlink:href="J3DPacket_8cpp.html" target="_top" xlink:title=" ">
<polygon fill="white" stroke="#666666" points="318.5,-173 176.5,-173 176.5,-143 318.5,-143 318.5,-173"/>
<text text-anchor="start" x="184.5" y="-161" font-family="Helvetica,sans-Serif" font-size="10.00">libs/JSystem/J3DGraphBase</text>
<text text-anchor="middle" x="247.5" y="-150" font-family="Helvetica,sans-Serif" font-size="10.00">/J3DPacket.cpp</text>
</a>
</g>
</g>
<!-- Node2&#45;&gt;Node361 -->
<g id="edge8" class="edge">
<title>Node2&#45;&gt;Node361</title>
<path fill="none" stroke="#63b8ff" d="M395.65,-205.25C363.49,-195.21 323.8,-182.82 293.59,-173.39"/>
<polygon fill="#63b8ff" stroke="#63b8ff" points="394.2,-208.47 404.79,-208.11 396.29,-201.79 394.2,-208.47"/>
</g>
<!-- Node160 -->
<g id="node10" class="node">
<title>Node160</title>
<g id="a_node10"><a xlink:href="d__resorce_8cpp.html" target="_top" xlink:title=" ">
<polygon fill="white" stroke="#666666" points="599.5,-96 497.5,-96 497.5,-77 599.5,-77 599.5,-96"/>
<text text-anchor="middle" x="548.5" y="-84" font-family="Helvetica,sans-Serif" font-size="10.00">src/d/d_resorce.cpp</text>
</a>
</g>
</g>
<!-- Node2&#45;&gt;Node160 -->
<g id="edge9" class="edge">
<title>Node2&#45;&gt;Node160</title>
<path fill="none" stroke="#63b8ff" d="M469.03,-199.66C490.67,-169.13 527.55,-117.06 542.22,-96.37"/>
<polygon fill="#63b8ff" stroke="#63b8ff" points="466.39,-197.34 463.47,-207.52 472.1,-201.38 466.39,-197.34"/>
</g>
<!-- Node4 -->
<g id="node4" class="node">
<title>Node4</title>
<g id="a_node4"><a xlink:href="J3DJointTree_8h.html" target="_top" xlink:title=" ">
<polygon fill="#fff0f0" stroke="red" points="135,-101.5 0,-101.5 0,-71.5 135,-71.5 135,-101.5"/>
<text text-anchor="start" x="8" y="-89.5" font-family="Helvetica,sans-Serif" font-size="10.00">include/JSystem/J3DGraph</text>
<text text-anchor="middle" x="67.5" y="-78.5" font-family="Helvetica,sans-Serif" font-size="10.00">Animator/J3DJointTree.h</text>
</a>
</g>
</g>
<!-- Node3&#45;&gt;Node4 -->
<g id="edge3" class="edge">
<title>Node3&#45;&gt;Node4</title>
<path fill="none" stroke="#63b8ff" d="M325.58,-142.34C262.15,-130.47 178.26,-114.51 144.5,-107 137.5,-105.44 130.17,-103.71 122.93,-101.95"/>
<polygon fill="#63b8ff" stroke="#63b8ff" points="324.81,-145.76 335.29,-144.16 326.1,-138.88 324.81,-145.76"/>
</g>
<!-- Node366 -->
<g id="node5" class="node">
<title>Node366</title>
<g id="a_node5"><a xlink:href="J3DJoint_8cpp.html" target="_top" xlink:title=" ">
<polygon fill="white" stroke="#666666" points="311.5,-101.5 153.5,-101.5 153.5,-71.5 311.5,-71.5 311.5,-101.5"/>
<text text-anchor="start" x="161.5" y="-89.5" font-family="Helvetica,sans-Serif" font-size="10.00">libs/JSystem/J3DGraphAnimator</text>
<text text-anchor="middle" x="232.5" y="-78.5" font-family="Helvetica,sans-Serif" font-size="10.00">/J3DJoint.cpp</text>
</a>
</g>
</g>
<!-- Node3&#45;&gt;Node366 -->
<g id="edge4" class="edge">
<title>Node3&#45;&gt;Node366</title>
<path fill="none" stroke="#63b8ff" d="M358.39,-138.37C330.04,-126.91 294.26,-112.45 268.09,-101.88"/>
<polygon fill="#63b8ff" stroke="#63b8ff" points="356.88,-141.53 367.46,-142.03 359.5,-135.04 356.88,-141.53"/>
</g>
<!-- Node371 -->
<g id="node6" class="node">
<title>Node371</title>
<g id="a_node6"><a xlink:href="J3DJointFactory_8cpp.html" target="_top" xlink:title=" ">
<polygon fill="white" stroke="#666666" points="479,-101.5 330,-101.5 330,-71.5 479,-71.5 479,-101.5"/>
<text text-anchor="start" x="338" y="-89.5" font-family="Helvetica,sans-Serif" font-size="10.00">libs/JSystem/J3DGraphLoader</text>
<text text-anchor="middle" x="404.5" y="-78.5" font-family="Helvetica,sans-Serif" font-size="10.00">/J3DJointFactory.cpp</text>
</a>
</g>
</g>
<!-- Node3&#45;&gt;Node371 -->
<g id="edge5" class="edge">
<title>Node3&#45;&gt;Node371</title>
<path fill="none" stroke="#63b8ff" d="M404.5,-131.26C404.5,-121.33 404.5,-110.36 404.5,-101.88"/>
<polygon fill="#63b8ff" stroke="#63b8ff" points="401,-131.09 404.5,-141.09 408,-131.09 401,-131.09"/>
</g>
<!-- Node24 -->
<g id="node12" class="node">
<title>Node24</title>
<g id="a_node12"><a xlink:href="d__com__inf__game_8h.html" target="_top" xlink:title=" ">
<polygon fill="#fff0f0" stroke="red" points="2615.5,-173 2505.5,-173 2505.5,-143 2615.5,-143 2615.5,-173"/>
<text text-anchor="start" x="2513.5" y="-161" font-family="Helvetica,sans-Serif" font-size="10.00">include/d/com/d_com</text>
<text text-anchor="middle" x="2560.5" y="-150" font-family="Helvetica,sans-Serif" font-size="10.00">_inf_game.h</text>
</a>
</g>
</g>
<!-- Node23&#45;&gt;Node24 -->
<g id="edge11" class="edge">
<title>Node23&#45;&gt;Node24</title>
<path fill="none" stroke="#63b8ff" d="M2560.5,-202.78C2560.5,-193.17 2560.5,-181.92 2560.5,-173.23"/>
<polygon fill="#63b8ff" stroke="#63b8ff" points="2557,-202.59 2560.5,-212.59 2564,-202.59 2557,-202.59"/>
</g>
<!-- Node10 -->
<g id="node19" class="node">
<title>Node10</title>
<g id="a_node19"><a xlink:href="d__a__alink_8cpp.html" target="_top" xlink:title=" ">
<polygon fill="white" stroke="#666666" points="4973,-24.5 4864,-24.5 4864,-5.5 4973,-5.5 4973,-24.5"/>
<text text-anchor="middle" x="4918.5" y="-12.5" font-family="Helvetica,sans-Serif" font-size="10.00">src/d/a/d_a_alink.cpp</text>
</a>
</g>
</g>
<!-- Node23&#45;&gt;Node10 -->
<g id="edge58" class="edge">
<title>Node23&#45;&gt;Node10</title>
<path fill="none" stroke="#63b8ff" d="M2608.92,-211.91C2615.15,-210.77 2621.46,-209.76 2627.5,-209 2758.54,-192.61 4911.14,-202.37 5002.5,-107 5015.11,-93.84 5011.51,-81.84 5002.5,-66 4990.84,-45.49 4967.08,-32.51 4947.79,-24.93"/>
<polygon fill="#63b8ff" stroke="#63b8ff" points="2608.51,-208.42 2599.37,-213.78 2609.85,-215.29 2608.51,-208.42"/>
</g>
<!-- Node24&#45;&gt;Node160 -->
<g id="edge57" class="edge">
<title>Node24&#45;&gt;Node160</title>
<path fill="none" stroke="#63b8ff" d="M2493.62,-156.34C2173.11,-153.01 802.01,-137.14 613.5,-107 599.77,-104.8 584.89,-100.49 572.83,-96.48"/>
<polygon fill="#63b8ff" stroke="#63b8ff" points="2493.47,-159.84 2503.5,-156.44 2493.54,-152.84 2493.47,-159.84"/>
</g>
<!-- Node25 -->
<g id="node13" class="node">
<title>Node25</title>
<g id="a_node13"><a xlink:href="d__a__npc_8h.html" target="_top" xlink:title=" ">
<polygon fill="#fff0f0" stroke="red" points="3138,-24.5 3027,-24.5 3027,-5.5 3138,-5.5 3138,-24.5"/>
<text text-anchor="middle" x="3082.5" y="-12.5" font-family="Helvetica,sans-Serif" font-size="10.00">include/d/a/d_a_npc.h</text>
</a>
</g>
</g>
<!-- Node24&#45;&gt;Node25 -->
<g id="edge12" class="edge">
<title>Node24&#45;&gt;Node25</title>
<path fill="none" stroke="#63b8ff" d="M2493.76,-156.32C2268.05,-153.72 1545.45,-142.61 1511.5,-107 1498.93,-93.81 1498.82,-79.09 1511.5,-66 1538.41,-38.22 2750.16,-20.43 3026.71,-16.72"/>
<polygon fill="#63b8ff" stroke="#63b8ff" points="2493.52,-159.82 2503.56,-156.44 2493.6,-152.82 2493.52,-159.82"/>
</g>
<!-- Node31 -->
<g id="node14" class="node">
<title>Node31</title>
<g id="a_node14"><a xlink:href="d__cc__uty_8h.html" target="_top" xlink:title=" ">
<polygon fill="#fff0f0" stroke="red" points="775,-96 656,-96 656,-77 775,-77 775,-96"/>
<text text-anchor="middle" x="715.5" y="-84" font-family="Helvetica,sans-Serif" font-size="10.00">include/d/cc/d_cc_uty.h</text>
</a>
</g>
</g>
<!-- Node24&#45;&gt;Node31 -->
<g id="edge13" class="edge">
<title>Node24&#45;&gt;Node31</title>
<path fill="none" stroke="#63b8ff" d="M2494.08,-157.16C2213.95,-157.52 1127.89,-155.7 789.5,-107 773.98,-104.77 757.05,-100.45 743.3,-96.44"/>
<polygon fill="#63b8ff" stroke="#63b8ff" points="2493.75,-160.66 2503.75,-157.15 2493.74,-153.66 2493.75,-160.66"/>
</g>
<!-- Node32 -->
<g id="node15" class="node">
<title>Node32</title>
<g id="a_node15"><a xlink:href="d__a__b__ob_8h.html" target="_top" xlink:title=" ">
<polygon fill="#fff0f0" stroke="red" points="694.5,-30 588.5,-30 588.5,0 694.5,0 694.5,-30"/>
<text text-anchor="start" x="596.5" y="-18" font-family="Helvetica,sans-Serif" font-size="10.00">include/rel/d/a/b/d</text>
<text text-anchor="middle" x="641.5" y="-7" font-family="Helvetica,sans-Serif" font-size="10.00">_a_b_ob/d_a_b_ob.h</text>
</a>
</g>
</g>
<!-- Node24&#45;&gt;Node32 -->
<g id="edge35" class="edge">
<title>Node24&#45;&gt;Node32</title>
<path fill="none" stroke="#63b8ff" d="M2493.66,-156.49C2159.03,-153.76 680.32,-139.86 646.5,-107 626.19,-87.26 631.84,-50.64 637.07,-30.39"/>
<polygon fill="#63b8ff" stroke="#63b8ff" points="2493.54,-159.98 2503.57,-156.57 2493.6,-152.98 2493.54,-159.98"/>
</g>
<!-- Node37 -->
<g id="node16" class="node">
<title>Node37</title>
<g id="a_node16"><a xlink:href="d__a__e__yk_8h.html" target="_top" xlink:title=" ">
<polygon fill="white" stroke="#666666" points="842.5,-30 738.5,-30 738.5,0 842.5,0 842.5,-30"/>
<text text-anchor="start" x="746.5" y="-18" font-family="Helvetica,sans-Serif" font-size="10.00">include/rel/d/a/e/d</text>
<text text-anchor="middle" x="790.5" y="-7" font-family="Helvetica,sans-Serif" font-size="10.00">_a_e_yk/d_a_e_yk.h</text>
</a>
</g>
</g>
<!-- Node24&#45;&gt;Node37 -->
<g id="edge48" class="edge">
<title>Node24&#45;&gt;Node37</title>
<path fill="none" stroke="#63b8ff" d="M2493.67,-157.18C2182.88,-157.75 891.1,-157.09 822.5,-107 798.02,-89.12 792.16,-51.04 790.83,-30.25"/>
<polygon fill="#63b8ff" stroke="#63b8ff" points="2493.66,-160.68 2503.65,-157.16 2493.65,-153.68 2493.66,-160.68"/>
</g>
<!-- Node39 -->
<g id="node17" class="node">
<title>Node39</title>
<g id="a_node17"><a xlink:href="d__error__msg_8h.html" target="_top" xlink:title=" ">
<polygon fill="#fff0f0" stroke="red" points="1065.5,-96 945.5,-96 945.5,-77 1065.5,-77 1065.5,-96"/>
<text text-anchor="middle" x="1005.5" y="-84" font-family="Helvetica,sans-Serif" font-size="10.00">include/d/d_error_msg.h</text>
</a>
</g>
</g>
<!-- Node24&#45;&gt;Node39 -->
<g id="edge16" class="edge">
<title>Node24&#45;&gt;Node39</title>
<path fill="none" stroke="#63b8ff" d="M2493.56,-156.86C2242.16,-156 1354.55,-149.94 1075.5,-107 1060.79,-104.74 1044.76,-100.42 1031.77,-96.42"/>
<polygon fill="#63b8ff" stroke="#63b8ff" points="2493.52,-160.36 2503.53,-156.89 2493.54,-153.36 2493.52,-160.36"/>
</g>
<!-- Node42 -->
<g id="node18" class="node">
<title>Node42</title>
<g id="a_node18"><a xlink:href="d__item_8h.html" target="_top" xlink:title=" ">
<polygon fill="#fff0f0" stroke="red" points="4842,-96 4747,-96 4747,-77 4842,-77 4842,-96"/>
<text text-anchor="middle" x="4794.5" y="-84" font-family="Helvetica,sans-Serif" font-size="10.00">include/d/d_item.h</text>
</a>
</g>
</g>
<!-- Node24&#45;&gt;Node42 -->
<g id="edge17" class="edge">
<title>Node24&#45;&gt;Node42</title>
<path fill="none" stroke="#63b8ff" d="M2627.36,-156.68C2970.48,-154.89 4525.77,-144.72 4737.5,-107 4749.75,-104.82 4762.93,-100.45 4773.53,-96.4"/>
<polygon fill="#63b8ff" stroke="#63b8ff" points="2627.4,-153.18 2617.42,-156.73 2627.43,-160.18 2627.4,-153.18"/>
</g>
<!-- Node24&#45;&gt;Node10 -->
<g id="edge56" class="edge">
<title>Node24&#45;&gt;Node10</title>
<path fill="none" stroke="#63b8ff" d="M2627.31,-156.9C3013.38,-156.16 4943.07,-150.31 4985.5,-107 4998.25,-93.98 4993.67,-82.29 4985.5,-66 4975.87,-46.8 4954.98,-33.09 4939.07,-24.94"/>
<polygon fill="#63b8ff" stroke="#63b8ff" points="2627.32,-153.4 2617.33,-156.92 2627.33,-160.4 2627.32,-153.4"/>
</g>
<!-- Node47 -->
<g id="node20" class="node">
<title>Node47</title>
<g id="a_node20"><a xlink:href="d__kantera__icon__meter_8h.html" target="_top" xlink:title=" ">
<polygon fill="#fff0f0" stroke="red" points="1185,-101.5 1084,-101.5 1084,-71.5 1185,-71.5 1185,-101.5"/>
<text text-anchor="start" x="1092" y="-89.5" font-family="Helvetica,sans-Serif" font-size="10.00">include/d/d_kantera</text>
<text text-anchor="middle" x="1134.5" y="-78.5" font-family="Helvetica,sans-Serif" font-size="10.00">_icon_meter.h</text>
</a>
</g>
</g>
<!-- Node24&#45;&gt;Node47 -->
<g id="edge19" class="edge">
<title>Node24&#45;&gt;Node47</title>
<path fill="none" stroke="#63b8ff" d="M2494.15,-157C2256.51,-156.64 1448.54,-152.02 1194.5,-107 1187.71,-105.8 1180.62,-104 1173.8,-101.99"/>
<polygon fill="#63b8ff" stroke="#63b8ff" points="2493.84,-160.5 2503.85,-157.02 2493.85,-153.5 2493.84,-160.5"/>
</g>
<!-- Node49 -->
<g id="node21" class="node">
<title>Node49</title>
<g id="a_node21"><a xlink:href="d__model_8h.html" target="_top" xlink:title=" ">
<polygon fill="#fff0f0" stroke="red" points="1306,-96 1203,-96 1203,-77 1306,-77 1306,-96"/>
<text text-anchor="middle" x="1254.5" y="-84" font-family="Helvetica,sans-Serif" font-size="10.00">include/d/d_model.h</text>
</a>
</g>
</g>
<!-- Node24&#45;&gt;Node49 -->
<g id="edge20" class="edge">
<title>Node24&#45;&gt;Node49</title>
<path fill="none" stroke="#63b8ff" d="M2494.04,-156.48C2270.86,-154.4 1549.42,-144.83 1320.5,-107 1306.71,-104.72 1291.74,-100.45 1279.55,-96.49"/>
<polygon fill="#63b8ff" stroke="#63b8ff" points="2493.68,-159.98 2503.71,-156.57 2493.74,-152.98 2493.68,-159.98"/>
</g>
<!-- Node51 -->
<g id="node22" class="node">
<title>Node51</title>
<g id="a_node22"><a xlink:href="d__name_8h.html" target="_top" xlink:title=" ">
<polygon fill="#fff0f0" stroke="red" points="1464,-96 1363,-96 1363,-77 1464,-77 1464,-96"/>
<text text-anchor="middle" x="1413.5" y="-84" font-family="Helvetica,sans-Serif" font-size="10.00">include/d/d_name.h</text>
</a>
</g>
</g>
<!-- Node24&#45;&gt;Node51 -->
<g id="edge21" class="edge">
<title>Node24&#45;&gt;Node51</title>
<path fill="none" stroke="#63b8ff" d="M2493.75,-156.06C2289.54,-152.83 1675.23,-140.53 1478.5,-107 1464.91,-104.68 1450.17,-100.41 1438.16,-96.46"/>
<polygon fill="#63b8ff" stroke="#63b8ff" points="2493.6,-159.55 2503.66,-156.21 2493.71,-152.56 2493.6,-159.55"/>
</g>
<!-- Node52 -->
<g id="node23" class="node">
<title>Node52</title>
<g id="a_node23"><a xlink:href="d__file__select_8h.html" target="_top" xlink:title=" ">
<polygon fill="#fff0f0" stroke="red" points="1382.5,-30 1286.5,-30 1286.5,0 1382.5,0 1382.5,-30"/>
<text text-anchor="start" x="1294.5" y="-18" font-family="Helvetica,sans-Serif" font-size="10.00">include/d/file/d_file</text>
<text text-anchor="middle" x="1334.5" y="-7" font-family="Helvetica,sans-Serif" font-size="10.00">_select.h</text>
</a>
</g>
</g>
<!-- Node24&#45;&gt;Node52 -->
<g id="edge26" class="edge">
<title>Node24&#45;&gt;Node52</title>
<path fill="none" stroke="#63b8ff" d="M2493.79,-156.47C2247.1,-154.22 1398.38,-143.81 1354.5,-107 1332.19,-88.29 1331.37,-50.9 1332.84,-30.35"/>
<polygon fill="#63b8ff" stroke="#63b8ff" points="2493.54,-159.97 2503.57,-156.56 2493.6,-152.97 2493.54,-159.97"/>
</g>
<!-- Node54 -->
<g id="node24" class="node">
<title>Node54</title>
<g id="a_node24"><a xlink:href="d__file__sel__info_8h.html" target="_top" xlink:title=" ">
<polygon fill="#fff0f0" stroke="red" points="1616.5,-101.5 1520.5,-101.5 1520.5,-71.5 1616.5,-71.5 1616.5,-101.5"/>
<text text-anchor="start" x="1528.5" y="-89.5" font-family="Helvetica,sans-Serif" font-size="10.00">include/d/file/d_file</text>
<text text-anchor="middle" x="1568.5" y="-78.5" font-family="Helvetica,sans-Serif" font-size="10.00">_sel_info.h</text>
</a>
</g>
</g>
<!-- Node24&#45;&gt;Node54 -->
<g id="edge23" class="edge">
<title>Node24&#45;&gt;Node54</title>
<path fill="none" stroke="#63b8ff" d="M2493.79,-155.82C2308.8,-152.17 1792.09,-139.3 1625.5,-107 1619.13,-105.77 1612.51,-103.99 1606.12,-102"/>
<polygon fill="#63b8ff" stroke="#63b8ff" points="2493.64,-159.32 2503.71,-156.01 2493.78,-152.32 2493.64,-159.32"/>
</g>
<!-- Node56 -->
<g id="node25" class="node">
<title>Node56</title>
<g id="a_node25"><a xlink:href="d__file__sel__warning_8h.html" target="_top" xlink:title=" ">
<polygon fill="#fff0f0" stroke="red" points="927.5,-101.5 831.5,-101.5 831.5,-71.5 927.5,-71.5 927.5,-101.5"/>
<text text-anchor="start" x="839.5" y="-89.5" font-family="Helvetica,sans-Serif" font-size="10.00">include/d/file/d_file</text>
<text text-anchor="middle" x="879.5" y="-78.5" font-family="Helvetica,sans-Serif" font-size="10.00">_sel_warning.h</text>
</a>
</g>
</g>
<!-- Node24&#45;&gt;Node56 -->
<g id="edge24" class="edge">
<title>Node24&#45;&gt;Node56</title>
<path fill="none" stroke="#63b8ff" d="M2493.87,-156.12C2207.78,-152.19 1091.15,-135.17 936.5,-107 929.91,-105.8 923.06,-103.98 916.48,-101.93"/>
<polygon fill="#63b8ff" stroke="#63b8ff" points="2493.72,-159.62 2503.77,-156.26 2493.82,-152.62 2493.72,-159.62"/>
</g>
<!-- Node58 -->
<g id="node26" class="node">
<title>Node58</title>
<g id="a_node26"><a xlink:href="d__menu__calibration_8h.html" target="_top" xlink:title=" ">
<polygon fill="#fff0f0" stroke="red" points="1754.5,-101.5 1634.5,-101.5 1634.5,-71.5 1754.5,-71.5 1754.5,-101.5"/>
<text text-anchor="start" x="1642.5" y="-89.5" font-family="Helvetica,sans-Serif" font-size="10.00">include/d/menu/d_menu</text>
<text text-anchor="middle" x="1694.5" y="-78.5" font-family="Helvetica,sans-Serif" font-size="10.00">_calibration.h</text>
</a>
</g>
</g>
<!-- Node24&#45;&gt;Node58 -->
<g id="edge27" class="edge">
<title>Node24&#45;&gt;Node58</title>
<path fill="none" stroke="#63b8ff" d="M2494.31,-157.58C2357.02,-157.75 2031.68,-152.77 1763.5,-107 1756.01,-105.72 1748.18,-103.95 1740.58,-101.98"/>
<polygon fill="#63b8ff" stroke="#63b8ff" points="2493.94,-161.08 2503.93,-157.56 2493.92,-154.08 2493.94,-161.08"/>
</g>
<!-- Node60 -->
<g id="node27" class="node">
<title>Node60</title>
<g id="a_node27"><a xlink:href="d__meter2_8h.html" target="_top" xlink:title=" ">
<polygon fill="#fff0f0" stroke="red" points="1906.5,-96 1772.5,-96 1772.5,-77 1906.5,-77 1906.5,-96"/>
<text text-anchor="middle" x="1839.5" y="-84" font-family="Helvetica,sans-Serif" font-size="10.00">include/d/meter/d_meter2.h</text>
</a>
</g>
</g>
<!-- Node24&#45;&gt;Node60 -->
<g id="edge28" class="edge">
<title>Node24&#45;&gt;Node60</title>
<path fill="none" stroke="#63b8ff" d="M2494.15,-155.57C2376.88,-152.23 2125.6,-141.34 1916.5,-107 1900.99,-104.45 1884.02,-100.31 1869.97,-96.49"/>
<polygon fill="#63b8ff" stroke="#63b8ff" points="2493.81,-159.07 2503.9,-155.84 2494,-152.07 2493.81,-159.07"/>
</g>
<!-- Node70 -->
<g id="node28" class="node">
<title>Node70</title>
<g id="a_node28"><a xlink:href="d__msg__object_8h.html" target="_top" xlink:title=" ">
<polygon fill="#fff0f0" stroke="red" points="4728.5,-101.5 4618.5,-101.5 4618.5,-71.5 4728.5,-71.5 4728.5,-101.5"/>
<text text-anchor="start" x="4626.5" y="-89.5" font-family="Helvetica,sans-Serif" font-size="10.00">include/d/msg/d_msg</text>
<text text-anchor="middle" x="4673.5" y="-78.5" font-family="Helvetica,sans-Serif" font-size="10.00">_object.h</text>
</a>
</g>
</g>
<!-- Node24&#45;&gt;Node70 -->
<g id="edge29" class="edge">
<title>Node24&#45;&gt;Node70</title>
<path fill="none" stroke="#63b8ff" d="M2627.11,-156.45C2957.28,-153.57 4410.42,-139.14 4609.5,-107 4616.84,-105.82 4624.51,-104 4631.88,-101.95"/>
<polygon fill="#63b8ff" stroke="#63b8ff" points="2627.33,-152.95 2617.36,-156.53 2627.39,-159.95 2627.33,-152.95"/>
</g>
<!-- Node89 -->
<g id="node29" class="node">
<title>Node89</title>
<g id="a_node29"><a xlink:href="d__s__logo_8h.html" target="_top" xlink:title=" ">
<polygon fill="#fff0f0" stroke="red" points="2038,-96 1925,-96 1925,-77 2038,-77 2038,-96"/>
<text text-anchor="middle" x="1981.5" y="-84" font-family="Helvetica,sans-Serif" font-size="10.00">include/d/s/d_s_logo.h</text>
</a>
</g>
</g>
<!-- Node24&#45;&gt;Node89 -->
<g id="edge32" class="edge">
<title>Node24&#45;&gt;Node89</title>
<path fill="none" stroke="#63b8ff" d="M2494.1,-154.56C2395.75,-150.04 2205.92,-137.83 2047.5,-107 2034.13,-104.4 2019.58,-100.25 2007.55,-96.44"/>
<polygon fill="#63b8ff" stroke="#63b8ff" points="2493.68,-158.04 2503.83,-154.99 2494,-151.05 2493.68,-158.04"/>
</g>
<!-- Node91 -->
<g id="node30" class="node">
<title>Node91</title>
<g id="a_node30"><a xlink:href="d__s__play_8h.html" target="_top" xlink:title=" ">
<polygon fill="#fff0f0" stroke="red" points="2169,-96 2056,-96 2056,-77 2169,-77 2169,-96"/>
<text text-anchor="middle" x="2112.5" y="-84" font-family="Helvetica,sans-Serif" font-size="10.00">include/d/s/d_s_play.h</text>
</a>
</g>
</g>
<!-- Node24&#45;&gt;Node91 -->
<g id="edge33" class="edge">
<title>Node24&#45;&gt;Node91</title>
<path fill="none" stroke="#63b8ff" d="M2493.62,-151.46C2416.93,-144.36 2287.73,-130.13 2178.5,-107 2165.41,-104.23 2151.14,-100.15 2139.23,-96.44"/>
<polygon fill="#63b8ff" stroke="#63b8ff" points="2493.22,-154.93 2503.5,-152.35 2493.85,-147.96 2493.22,-154.93"/>
</g>
<!-- Node98 -->
<g id="node31" class="node">
<title>Node98</title>
<g id="a_node31"><a xlink:href="d__msg__scrn__base_8h.html" target="_top" xlink:title=" ">
<polygon fill="#fff0f0" stroke="red" points="2286,-101.5 2187,-101.5 2187,-71.5 2286,-71.5 2286,-101.5"/>
<text text-anchor="start" x="2195" y="-89.5" font-family="Helvetica,sans-Serif" font-size="10.00">include/msg/scrn/d</text>
<text text-anchor="middle" x="2236.5" y="-78.5" font-family="Helvetica,sans-Serif" font-size="10.00">_msg_scrn_base.h</text>
</a>
</g>
</g>
<!-- Node24&#45;&gt;Node98 -->
<g id="edge34" class="edge">
<title>Node24&#45;&gt;Node98</title>
<path fill="none" stroke="#63b8ff" d="M2494.08,-146.98C2440.16,-138.24 2362.37,-124.28 2295.5,-107 2289.76,-105.52 2283.76,-103.77 2277.88,-101.94"/>
<polygon fill="#63b8ff" stroke="#63b8ff" points="2493.29,-150.4 2503.72,-148.52 2494.4,-143.49 2493.29,-150.4"/>
</g>
<!-- Node102 -->
<g id="node32" class="node">
<title>Node102</title>
<g id="a_node32"><a xlink:href="d__a__b__zant_8h.html" target="_top" xlink:title=" ">
<polygon fill="white" stroke="#666666" points="2425,-101.5 2304,-101.5 2304,-71.5 2425,-71.5 2425,-101.5"/>
<text text-anchor="start" x="2312" y="-89.5" font-family="Helvetica,sans-Serif" font-size="10.00">include/rel/d/a/b/d</text>
<text text-anchor="middle" x="2364.5" y="-78.5" font-family="Helvetica,sans-Serif" font-size="10.00">_a_b_zant/d_a_b_zant.h</text>
</a>
</g>
</g>
<!-- Node24&#45;&gt;Node102 -->
<g id="edge36" class="edge">
<title>Node24&#45;&gt;Node102</title>
<path fill="none" stroke="#63b8ff" d="M2509.24,-138.82C2476.73,-127.3 2435.27,-112.59 2405.06,-101.88"/>
<polygon fill="#63b8ff" stroke="#63b8ff" points="2507.87,-142.05 2518.46,-142.09 2510.21,-135.45 2507.87,-142.05"/>
</g>
<!-- Node103 -->
<g id="node33" class="node">
<title>Node103</title>
<g id="a_node33"><a xlink:href="d__a__andsw_8h.html" target="_top" xlink:title=" ">
<polygon fill="white" stroke="#666666" points="2553.5,-101.5 2443.5,-101.5 2443.5,-71.5 2553.5,-71.5 2553.5,-101.5"/>
<text text-anchor="start" x="2451.5" y="-89.5" font-family="Helvetica,sans-Serif" font-size="10.00">include/rel/d/a/d_a</text>
<text text-anchor="middle" x="2498.5" y="-78.5" font-family="Helvetica,sans-Serif" font-size="10.00">_andsw/d_a_andsw.h</text>
</a>
</g>
</g>
<!-- Node24&#45;&gt;Node103 -->
<g id="edge37" class="edge">
<title>Node24&#45;&gt;Node103</title>
<path fill="none" stroke="#63b8ff" d="M2540.13,-134.17C2530.64,-123.53 2519.64,-111.2 2511.33,-101.88"/>
<polygon fill="#63b8ff" stroke="#63b8ff" points="2537.38,-136.34 2546.65,-141.47 2542.6,-131.68 2537.38,-136.34"/>
</g>
<!-- Node104 -->
<g id="node34" class="node">
<title>Node104</title>
<g id="a_node34"><a xlink:href="d__a__cstaF_8h.html" target="_top" xlink:title=" ">
<polygon fill="white" stroke="#666666" points="2675,-101.5 2572,-101.5 2572,-71.5 2675,-71.5 2675,-101.5"/>
<text text-anchor="start" x="2580" y="-89.5" font-family="Helvetica,sans-Serif" font-size="10.00">include/rel/d/a/d_a</text>
<text text-anchor="middle" x="2623.5" y="-78.5" font-family="Helvetica,sans-Serif" font-size="10.00">_cstaF/d_a_cstaF.h</text>
</a>
</g>
</g>
<!-- Node24&#45;&gt;Node104 -->
<g id="edge38" class="edge">
<title>Node24&#45;&gt;Node104</title>
<path fill="none" stroke="#63b8ff" d="M2581.2,-134.17C2590.84,-123.53 2602.02,-111.2 2610.46,-101.88"/>
<polygon fill="#63b8ff" stroke="#63b8ff" points="2578.69,-131.72 2574.57,-141.48 2583.88,-136.42 2578.69,-131.72"/>
</g>
<!-- Node105 -->
<g id="node35" class="node">
<title>Node105</title>
<g id="a_node35"><a xlink:href="d__a__dmidna_8h.html" target="_top" xlink:title=" ">
<polygon fill="white" stroke="#666666" points="2809.5,-101.5 2693.5,-101.5 2693.5,-71.5 2809.5,-71.5 2809.5,-101.5"/>
<text text-anchor="start" x="2701.5" y="-89.5" font-family="Helvetica,sans-Serif" font-size="10.00">include/rel/d/a/d_a</text>
<text text-anchor="middle" x="2751.5" y="-78.5" font-family="Helvetica,sans-Serif" font-size="10.00">_dmidna/d_a_dmidna.h</text>
</a>
</g>
</g>
<!-- Node24&#45;&gt;Node105 -->
<g id="edge39" class="edge">
<title>Node24&#45;&gt;Node105</title>
<path fill="none" stroke="#63b8ff" d="M2610.87,-138.67C2642.48,-127.17 2682.66,-112.55 2711.98,-101.88"/>
<polygon fill="#63b8ff" stroke="#63b8ff" points="2609.7,-135.37 2601.5,-142.08 2612.09,-141.95 2609.7,-135.37"/>
</g>
<!-- Node106 -->
<g id="node36" class="node">
<title>Node106</title>
<g id="a_node36"><a xlink:href="d__a__econt_8h.html" target="_top" xlink:title=" ">
<polygon fill="white" stroke="#666666" points="2929,-101.5 2828,-101.5 2828,-71.5 2929,-71.5 2929,-101.5"/>
<text text-anchor="start" x="2836" y="-89.5" font-family="Helvetica,sans-Serif" font-size="10.00">include/rel/d/a/d_a</text>
<text text-anchor="middle" x="2878.5" y="-78.5" font-family="Helvetica,sans-Serif" font-size="10.00">_econt/d_a_econt.h</text>
</a>
</g>
</g>
<!-- Node24&#45;&gt;Node106 -->
<g id="edge40" class="edge">
<title>Node24&#45;&gt;Node106</title>
<path fill="none" stroke="#63b8ff" d="M2626.96,-146.43C2679.36,-137.54 2754.09,-123.64 2818.5,-107 2824.23,-105.52 2830.21,-103.8 2836.08,-102"/>
<polygon fill="#63b8ff" stroke="#63b8ff" points="2626.57,-142.95 2617.29,-148.06 2627.73,-149.85 2626.57,-142.95"/>
</g>
<!-- Node107 -->
<g id="node37" class="node">
<title>Node107</title>
<g id="a_node37"><a xlink:href="d__a__guard__mng_8h.html" target="_top" xlink:title=" ">
<polygon fill="white" stroke="#666666" points="3096,-101.5 2947,-101.5 2947,-71.5 3096,-71.5 3096,-101.5"/>
<text text-anchor="start" x="2955" y="-89.5" font-family="Helvetica,sans-Serif" font-size="10.00">include/rel/d/a/d_a</text>
<text text-anchor="middle" x="3021.5" y="-78.5" font-family="Helvetica,sans-Serif" font-size="10.00">_guard_mng/d_a_guard_mng.h</text>
</a>
</g>
</g>
<!-- Node24&#45;&gt;Node107 -->
<g id="edge41" class="edge">
<title>Node24&#45;&gt;Node107</title>
<path fill="none" stroke="#63b8ff" d="M2627.11,-150.21C2702.87,-142.03 2830.12,-126.85 2938.5,-107 2946.51,-105.53 2954.91,-103.8 2963.16,-101.97"/>
<polygon fill="#63b8ff" stroke="#63b8ff" points="2626.93,-146.71 2617.36,-151.26 2627.68,-153.67 2626.93,-146.71"/>
</g>
<!-- Node108 -->
<g id="node38" class="node">
<title>Node108</title>
<g id="a_node38"><a xlink:href="d__a__hitobj_8h.html" target="_top" xlink:title=" ">
<polygon fill="white" stroke="#666666" points="3214.5,-101.5 3114.5,-101.5 3114.5,-71.5 3214.5,-71.5 3214.5,-101.5"/>
<text text-anchor="start" x="3122.5" y="-89.5" font-family="Helvetica,sans-Serif" font-size="10.00">include/rel/d/a/d_a</text>
<text text-anchor="middle" x="3164.5" y="-78.5" font-family="Helvetica,sans-Serif" font-size="10.00">_hitobj/d_a_hitobj.h</text>
</a>
</g>
</g>
<!-- Node24&#45;&gt;Node108 -->
<g id="edge42" class="edge">
<title>Node24&#45;&gt;Node108</title>
<path fill="none" stroke="#63b8ff" d="M2627.14,-155.76C2730.58,-152.74 2935.55,-142.4 3105.5,-107 3111.84,-105.68 3118.44,-103.91 3124.85,-101.97"/>
<polygon fill="#63b8ff" stroke="#63b8ff" points="2627.06,-152.26 2617.16,-156.03 2627.25,-159.25 2627.06,-152.26"/>
</g>
<!-- Node109 -->
<g id="node39" class="node">
<title>Node109</title>
<g id="a_node39"><a xlink:href="d__a__set__bgobj_8h.html" target="_top" xlink:title=" ">
<polygon fill="white" stroke="#666666" points="3370,-101.5 3233,-101.5 3233,-71.5 3370,-71.5 3370,-101.5"/>
<text text-anchor="start" x="3241" y="-89.5" font-family="Helvetica,sans-Serif" font-size="10.00">include/rel/d/a/d_a</text>
<text text-anchor="middle" x="3301.5" y="-78.5" font-family="Helvetica,sans-Serif" font-size="10.00">_set_bgobj/d_a_set_bgobj.h</text>
</a>
</g>
</g>
<!-- Node24&#45;&gt;Node109 -->
<g id="edge43" class="edge">
<title>Node24&#45;&gt;Node109</title>
<path fill="none" stroke="#63b8ff" d="M2627.04,-155.71C2746.99,-152.56 3007.13,-141.95 3223.5,-107 3231.77,-105.66 3240.44,-103.88 3248.89,-101.94"/>
<polygon fill="#63b8ff" stroke="#63b8ff" points="2627.3,-152.2 2617.39,-155.95 2627.48,-159.2 2627.3,-152.2"/>
</g>
<!-- Node110 -->
<g id="node40" class="node">
<title>Node110</title>
<g id="a_node40"><a xlink:href="d__a__skip__2D_8h.html" target="_top" xlink:title=" ">
<polygon fill="white" stroke="#666666" points="3512.5,-101.5 3388.5,-101.5 3388.5,-71.5 3512.5,-71.5 3512.5,-101.5"/>
<text text-anchor="start" x="3396.5" y="-89.5" font-family="Helvetica,sans-Serif" font-size="10.00">include/rel/d/a/d_a</text>
<text text-anchor="middle" x="3450.5" y="-78.5" font-family="Helvetica,sans-Serif" font-size="10.00">_skip_2D/d_a_skip_2D.h</text>
</a>
</g>
</g>
<!-- Node24&#45;&gt;Node110 -->
<g id="edge44" class="edge">
<title>Node24&#45;&gt;Node110</title>
<path fill="none" stroke="#63b8ff" d="M2626.92,-157.58C2767.03,-157.79 3102.71,-152.95 3379.5,-107 3387.19,-105.72 3395.25,-103.95 3403.06,-101.98"/>
<polygon fill="#63b8ff" stroke="#63b8ff" points="2627.09,-154.08 2617.09,-157.56 2627.08,-161.08 2627.09,-154.08"/>
</g>
<!-- Node111 -->
<g id="node41" class="node">
<title>Node111</title>
<g id="a_node41"><a xlink:href="d__a__spinner_8h.html" target="_top" xlink:title=" ">
<polygon fill="#fff0f0" stroke="red" points="4976.5,-101.5 4860.5,-101.5 4860.5,-71.5 4976.5,-71.5 4976.5,-101.5"/>
<text text-anchor="start" x="4868.5" y="-89.5" font-family="Helvetica,sans-Serif" font-size="10.00">include/rel/d/a/d_a</text>
<text text-anchor="middle" x="4918.5" y="-78.5" font-family="Helvetica,sans-Serif" font-size="10.00">_spinner/d_a_spinner.h</text>
</a>
</g>
</g>
<!-- Node24&#45;&gt;Node111 -->
<g id="edge45" class="edge">
<title>Node24&#45;&gt;Node111</title>
<path fill="none" stroke="#63b8ff" d="M2627.1,-156.58C2980.34,-154.24 4627.03,-141.5 4851.5,-107 4859.16,-105.82 4867.18,-104.01 4874.9,-101.97"/>
<polygon fill="#63b8ff" stroke="#63b8ff" points="2627.3,-153.08 2617.33,-156.65 2627.35,-160.08 2627.3,-153.08"/>
</g>
<!-- Node114 -->
<g id="node42" class="node">
<title>Node114</title>
<g id="a_node42"><a xlink:href="d__a__swTime_8h.html" target="_top" xlink:title=" ">
<polygon fill="white" stroke="#666666" points="3652.5,-101.5 3530.5,-101.5 3530.5,-71.5 3652.5,-71.5 3652.5,-101.5"/>
<text text-anchor="start" x="3538.5" y="-89.5" font-family="Helvetica,sans-Serif" font-size="10.00">include/rel/d/a/d_a</text>
<text text-anchor="middle" x="3591.5" y="-78.5" font-family="Helvetica,sans-Serif" font-size="10.00">_swTime/d_a_swTime.h</text>
</a>
</g>
</g>
<!-- Node24&#45;&gt;Node114 -->
<g id="edge47" class="edge">
<title>Node24&#45;&gt;Node114</title>
<path fill="none" stroke="#63b8ff" d="M2627.37,-155.43C2815.84,-150.71 3348.9,-135.18 3521.5,-107 3529.22,-105.74 3537.31,-103.95 3545.13,-101.95"/>
<polygon fill="#63b8ff" stroke="#63b8ff" points="2627.41,-151.93 2617.5,-155.68 2627.58,-158.93 2627.41,-151.93"/>
</g>
<!-- Node115 -->
<g id="node43" class="node">
<title>Node115</title>
<g id="a_node43"><a xlink:href="d__a__obj__cboard_8h.html" target="_top" xlink:title=" ">
<polygon fill="white" stroke="#666666" points="3778,-107 3671,-107 3671,-66 3778,-66 3778,-107"/>
<text text-anchor="start" x="3679" y="-95" font-family="Helvetica,sans-Serif" font-size="10.00">include/rel/d/a/obj</text>
<text text-anchor="start" x="3679" y="-84" font-family="Helvetica,sans-Serif" font-size="10.00">/d_a_obj_cboard/d_a</text>
<text text-anchor="middle" x="3724.5" y="-73" font-family="Helvetica,sans-Serif" font-size="10.00">_obj_cboard.h</text>
</a>
</g>
</g>
<!-- Node24&#45;&gt;Node115 -->
<g id="edge49" class="edge">
<title>Node24&#45;&gt;Node115</title>
<path fill="none" stroke="#63b8ff" d="M2627.05,-156.2C2833.47,-153.35 3461.01,-141.99 3661.5,-107 3664.55,-106.47 3667.65,-105.83 3670.77,-105.12"/>
<polygon fill="#63b8ff" stroke="#63b8ff" points="2627.27,-152.69 2617.32,-156.33 2627.36,-159.69 2627.27,-152.69"/>
</g>
<!-- Node116 -->
<g id="node44" class="node">
<title>Node116</title>
<g id="a_node44"><a xlink:href="d__a__obj__enemy__create_8h.html" target="_top" xlink:title=" ">
<polygon fill="white" stroke="#666666" points="3923,-107 3796,-107 3796,-66 3923,-66 3923,-107"/>
<text text-anchor="start" x="3804" y="-95" font-family="Helvetica,sans-Serif" font-size="10.00">include/rel/d/a/obj</text>
<text text-anchor="start" x="3804" y="-84" font-family="Helvetica,sans-Serif" font-size="10.00">/d_a_obj_enemy_create</text>
<text text-anchor="middle" x="3859.5" y="-73" font-family="Helvetica,sans-Serif" font-size="10.00">/d_a_obj_enemy_create.h</text>
</a>
</g>
</g>
<!-- Node24&#45;&gt;Node116 -->
<g id="edge50" class="edge">
<title>Node24&#45;&gt;Node116</title>
<path fill="none" stroke="#63b8ff" d="M2627.32,-156.25C2849.31,-153.43 3560.95,-141.84 3787.5,-107 3790.19,-106.59 3792.92,-106.11 3795.67,-105.58"/>
<polygon fill="#63b8ff" stroke="#63b8ff" points="2627.35,-152.74 2617.39,-156.37 2627.44,-159.74 2627.35,-152.74"/>
</g>
<!-- Node117 -->
<g id="node45" class="node">
<title>Node117</title>
<g id="a_node45"><a xlink:href="d__a__obj__onsenFire_8h.html" target="_top" xlink:title=" ">
<polygon fill="white" stroke="#666666" points="4051.5,-107 3941.5,-107 3941.5,-66 4051.5,-66 4051.5,-107"/>
<text text-anchor="start" x="3949.5" y="-95" font-family="Helvetica,sans-Serif" font-size="10.00">include/rel/d/a/obj</text>
<text text-anchor="start" x="3949.5" y="-84" font-family="Helvetica,sans-Serif" font-size="10.00">/d_a_obj_onsenFire/d</text>
<text text-anchor="middle" x="3996.5" y="-73" font-family="Helvetica,sans-Serif" font-size="10.00">_a_obj_onsenFire.h</text>
</a>
</g>
</g>
<!-- Node24&#45;&gt;Node117 -->
<g id="edge51" class="edge">
<title>Node24&#45;&gt;Node117</title>
<path fill="none" stroke="#63b8ff" d="M2627.11,-156.85C2865.7,-155.98 3676.93,-149.84 3932.5,-107 3935.36,-106.52 3938.28,-105.95 3941.21,-105.31"/>
<polygon fill="#63b8ff" stroke="#63b8ff" points="2627.36,-153.35 2617.37,-156.89 2627.38,-160.35 2627.36,-153.35"/>
</g>
<!-- Node118 -->
<g id="node46" class="node">
<title>Node118</title>
<g id="a_node46"><a xlink:href="d__a__obj__smoke_8h.html" target="_top" xlink:title=" ">
<polygon fill="white" stroke="#666666" points="4195,-107 4070,-107 4070,-66 4195,-66 4195,-107"/>
<text text-anchor="start" x="4078" y="-95" font-family="Helvetica,sans-Serif" font-size="10.00">include/rel/d/a/obj</text>
<text text-anchor="start" x="4078" y="-84" font-family="Helvetica,sans-Serif" font-size="10.00">/d_a_obj_smoke/d_a_obj</text>
<text text-anchor="middle" x="4132.5" y="-73" font-family="Helvetica,sans-Serif" font-size="10.00">_smoke.h</text>
</a>
</g>
</g>
<!-- Node24&#45;&gt;Node118 -->
<g id="edge52" class="edge">
<title>Node24&#45;&gt;Node118</title>
<path fill="none" stroke="#63b8ff" d="M2626.88,-156.82C2879.11,-155.84 3778.01,-149.38 4060.5,-107 4063.57,-106.54 4066.7,-105.99 4069.85,-105.38"/>
<polygon fill="#63b8ff" stroke="#63b8ff" points="2627.21,-153.32 2617.23,-156.86 2627.24,-160.32 2627.21,-153.32"/>
</g>
<!-- Node119 -->
<g id="node47" class="node">
<title>Node119</title>
<g id="a_node47"><a xlink:href="d__a__obj__stone_8h.html" target="_top" xlink:title=" ">
<polygon fill="white" stroke="#666666" points="4332,-107 4213,-107 4213,-66 4332,-66 4332,-107"/>
<text text-anchor="start" x="4221" y="-95" font-family="Helvetica,sans-Serif" font-size="10.00">include/rel/d/a/obj</text>
<text text-anchor="start" x="4221" y="-84" font-family="Helvetica,sans-Serif" font-size="10.00">/d_a_obj_stone/d_a_obj</text>
<text text-anchor="middle" x="4272.5" y="-73" font-family="Helvetica,sans-Serif" font-size="10.00">_stone.h</text>
</a>
</g>
</g>
<!-- Node24&#45;&gt;Node119 -->
<g id="edge53" class="edge">
<title>Node24&#45;&gt;Node119</title>
<path fill="none" stroke="#63b8ff" d="M2627.38,-157.18C2895.48,-157.57 3892.97,-155.63 4204.5,-107 4207.17,-106.58 4209.88,-106.09 4212.61,-105.55"/>
<polygon fill="#63b8ff" stroke="#63b8ff" points="2627.43,-153.68 2617.42,-157.17 2627.42,-160.68 2627.43,-153.68"/>
</g>
<!-- Node120 -->
<g id="node48" class="node">
<title>Node120</title>
<g id="a_node48"><a xlink:href="d__a__obj__stoneMark_8h.html" target="_top" xlink:title=" ">
<polygon fill="white" stroke="#666666" points="4463,-107 4350,-107 4350,-66 4463,-66 4463,-107"/>
<text text-anchor="start" x="4358" y="-95" font-family="Helvetica,sans-Serif" font-size="10.00">include/rel/d/a/obj</text>
<text text-anchor="start" x="4358" y="-84" font-family="Helvetica,sans-Serif" font-size="10.00">/d_a_obj_stoneMark/d</text>
<text text-anchor="middle" x="4406.5" y="-73" font-family="Helvetica,sans-Serif" font-size="10.00">_a_obj_stoneMark.h</text>
</a>
</g>
</g>
<!-- Node24&#45;&gt;Node120 -->
<g id="edge54" class="edge">
<title>Node24&#45;&gt;Node120</title>
<path fill="none" stroke="#63b8ff" d="M2627.02,-156.17C2929.78,-152.25 4170.11,-134.62 4341.5,-107 4344.18,-106.57 4346.89,-106.06 4349.63,-105.48"/>
<polygon fill="#63b8ff" stroke="#63b8ff" points="2627.28,-152.67 2617.33,-156.29 2627.37,-159.66 2627.28,-152.67"/>
</g>
<!-- Node121 -->
<g id="node49" class="node">
<title>Node121</title>
<g id="a_node49"><a xlink:href="d__a__obj__web0_8h.html" target="_top" xlink:title=" ">
<polygon fill="white" stroke="#666666" points="4600,-107 4481,-107 4481,-66 4600,-66 4600,-107"/>
<text text-anchor="start" x="4489" y="-95" font-family="Helvetica,sans-Serif" font-size="10.00">include/rel/d/a/obj</text>
<text text-anchor="start" x="4489" y="-84" font-family="Helvetica,sans-Serif" font-size="10.00">/d_a_obj_web0/d_a_obj</text>
<text text-anchor="middle" x="4540.5" y="-73" font-family="Helvetica,sans-Serif" font-size="10.00">_web0.h</text>
</a>
</g>
</g>
<!-- Node24&#45;&gt;Node121 -->
<g id="edge55" class="edge">
<title>Node24&#45;&gt;Node121</title>
<path fill="none" stroke="#63b8ff" d="M2627.21,-156.26C2943.83,-152.59 4287.41,-135.49 4472.5,-107 4475.17,-106.59 4477.88,-106.1 4480.61,-105.56"/>
<polygon fill="#63b8ff" stroke="#63b8ff" points="2627.41,-152.75 2617.46,-156.37 2627.5,-159.75 2627.41,-152.75"/>
</g>
<!-- Node31&#45;&gt;Node32 -->
<g id="edge14" class="edge">
<title>Node31&#45;&gt;Node32</title>
<path fill="none" stroke="#63b8ff" d="M697.85,-68.93C685.31,-57.15 668.65,-41.5 656.7,-30.27"/>
<polygon fill="#63b8ff" stroke="#63b8ff" points="695.34,-71.37 705.02,-75.66 700.13,-66.26 695.34,-71.37"/>
</g>
<!-- Node31&#45;&gt;Node37 -->
<g id="edge15" class="edge">
<title>Node31&#45;&gt;Node37</title>
<path fill="none" stroke="#63b8ff" d="M733.39,-68.93C746.09,-57.15 762.98,-41.5 775.1,-30.27"/>
<polygon fill="#63b8ff" stroke="#63b8ff" points="731.06,-66.3 726.11,-75.67 735.82,-71.44 731.06,-66.3"/>
</g>
<!-- Node42&#45;&gt;Node10 -->
<g id="edge18" class="edge">
<title>Node42&#45;&gt;Node10</title>
<path fill="none" stroke="#63b8ff" d="M4820.28,-71.05C4845.08,-57.15 4881.8,-36.57 4902.6,-24.91"/>
<polygon fill="#63b8ff" stroke="#63b8ff" points="4818.79,-67.87 4811.78,-75.82 4822.21,-73.98 4818.79,-67.87"/>
</g>
<!-- Node51&#45;&gt;Node52 -->
<g id="edge22" class="edge">
<title>Node51&#45;&gt;Node52</title>
<path fill="none" stroke="#63b8ff" d="M1395.05,-69.27C1381.62,-57.45 1363.61,-41.61 1350.73,-30.27"/>
<polygon fill="#63b8ff" stroke="#63b8ff" points="1392.54,-71.72 1402.36,-75.7 1397.16,-66.46 1392.54,-71.72"/>
</g>
<!-- Node56&#45;&gt;Node52 -->
<g id="edge25" class="edge">
<title>Node56&#45;&gt;Node52</title>
<path fill="none" stroke="#63b8ff" d="M929.49,-67.76C931.84,-67.13 934.19,-66.53 936.5,-66 1060.66,-37.28 1210.69,-24.07 1286.16,-18.87"/>
<polygon fill="#63b8ff" stroke="#63b8ff" points="928.5,-64.4 919.89,-70.58 930.48,-71.12 928.5,-64.4"/>
</g>
<!-- Node70&#45;&gt;Node25 -->
<g id="edge30" class="edge">
<title>Node70&#45;&gt;Node25</title>
<path fill="none" stroke="#63b8ff" d="M4620.5,-68.19C4616.8,-67.34 4613.11,-66.6 4609.5,-66 4318.06,-17.7 3377.7,-15.6 3138.34,-15.87"/>
<polygon fill="#63b8ff" stroke="#63b8ff" points="4619.51,-71.55 4630.06,-70.63 4621.24,-64.77 4619.51,-71.55"/>
</g>
<!-- Node70&#45;&gt;Node10 -->
<g id="edge31" class="edge">
<title>Node70&#45;&gt;Node10</title>
<path fill="none" stroke="#63b8ff" d="M4732.17,-67.84C4734.3,-67.22 4736.42,-66.6 4738.5,-66 4789.76,-51.19 4849.46,-34.77 4885.6,-24.92"/>
<polygon fill="#63b8ff" stroke="#63b8ff" points="4731.45,-64.4 4722.84,-70.58 4733.42,-71.12 4731.45,-64.4"/>
</g>
<!-- Node111&#45;&gt;Node10 -->
<g id="edge46" class="edge">
<title>Node111&#45;&gt;Node10</title>
<path fill="none" stroke="#63b8ff" d="M4918.5,-59.96C4918.5,-47.57 4918.5,-33.49 4918.5,-24.68"/>
<polygon fill="#63b8ff" stroke="#63b8ff" points="4915,-59.59 4918.5,-69.59 4922,-59.59 4915,-59.59"/>
</g>
</g>
</svg>
