<?xml version="1.0" encoding="UTF-8" standalone="no"?>
<!DOCTYPE svg PUBLIC "-//W3C//DTD SVG 1.1//EN"
 "http://www.w3.org/Graphics/SVG/1.1/DTD/svg11.dtd">
<!-- Generated by graphviz version 7.0.5 (20221223.1930)
 -->
<!-- Title: include/JSystem/J3DGraphBase/J3DMatBlock.h Pages: 1 -->
<svg width="2964pt" height="170pt"
 viewBox="0.00 0.00 2963.50 170.00" xmlns="http://www.w3.org/2000/svg" xmlns:xlink="http://www.w3.org/1999/xlink">
<g id="graph0" class="graph" transform="scale(1 1) rotate(0) translate(4 166)">
<title>include/JSystem/J3DGraphBase/J3DMatBlock.h</title>
<!-- Node1 -->
<g id="node1" class="node">
<title>Node1</title>
<g id="a_node1"><a xlink:title=" ">
<polygon fill="#999999" stroke="#666666" points="2562.5,-162 2427.5,-162 2427.5,-132 2562.5,-132 2562.5,-162"/>
<text text-anchor="start" x="2435.5" y="-150" font-family="Helvetica,sans-Serif" font-size="10.00">include/JSystem/J3DGraph</text>
<text text-anchor="middle" x="2495" y="-139" font-family="Helvetica,sans-Serif" font-size="10.00">Base/J3DMatBlock.h</text>
</a>
</g>
</g>
<!-- Node2 -->
<g id="node2" class="node">
<title>Node2</title>
<g id="a_node2"><a xlink:href="J3DMaterial_8h.html" target="_top" xlink:title=" ">
<polygon fill="white" stroke="#666666" points="1274.5,-96 1139.5,-96 1139.5,-66 1274.5,-66 1274.5,-96"/>
<text text-anchor="start" x="1147.5" y="-84" font-family="Helvetica,sans-Serif" font-size="10.00">include/JSystem/J3DGraph</text>
<text text-anchor="middle" x="1207" y="-73" font-family="Helvetica,sans-Serif" font-size="10.00">Base/J3DMaterial.h</text>
</a>
</g>
</g>
<!-- Node1&#45;&gt;Node2 -->
<g id="edge1" class="edge">
<title>Node1&#45;&gt;Node2</title>
<path fill="none" stroke="#63b8ff" d="M2415.63,-142.06C2181.06,-130.4 1493.83,-96.25 1274.86,-85.37"/>
<polygon fill="#63b8ff" stroke="#63b8ff" points="2415.44,-145.55 2425.6,-142.55 2415.79,-138.56 2415.44,-145.55"/>
</g>
<!-- Node16 -->
<g id="node16" class="node">
<title>Node16</title>
<g id="a_node16"><a xlink:href="d__a__alink_8h.html" target="_top" xlink:title=" ">
<polygon fill="white" stroke="#666666" points="2406,-90.5 2290,-90.5 2290,-71.5 2406,-71.5 2406,-90.5"/>
<text text-anchor="middle" x="2348" y="-78.5" font-family="Helvetica,sans-Serif" font-size="10.00">include/d/a/d_a_alink.h</text>
</a>
</g>
</g>
<!-- Node1&#45;&gt;Node16 -->
<g id="edge15" class="edge">
<title>Node1&#45;&gt;Node16</title>
<path fill="none" stroke="#63b8ff" d="M2451.51,-127.06C2424.13,-115.14 2390.04,-100.3 2368.64,-90.99"/>
<polygon fill="#63b8ff" stroke="#63b8ff" points="2450.06,-130.25 2460.62,-131.03 2452.85,-123.83 2450.06,-130.25"/>
</g>
<!-- Node24 -->
<g id="node24" class="node">
<title>Node24</title>
<g id="a_node24"><a xlink:href="J3DMatBlock_8cpp.html" target="_top" xlink:title=" ">
<polygon fill="white" stroke="#666666" points="2566,-96 2424,-96 2424,-66 2566,-66 2566,-96"/>
<text text-anchor="start" x="2432" y="-84" font-family="Helvetica,sans-Serif" font-size="10.00">libs/JSystem/J3DGraphBase</text>
<text text-anchor="middle" x="2495" y="-73" font-family="Helvetica,sans-Serif" font-size="10.00">/J3DMatBlock.cpp</text>
</a>
</g>
</g>
<!-- Node1&#45;&gt;Node24 -->
<g id="edge24" class="edge">
<title>Node1&#45;&gt;Node24</title>
<path fill="none" stroke="#63b8ff" d="M2495,-120.39C2495,-112.13 2495,-103.28 2495,-96.16"/>
<polygon fill="#63b8ff" stroke="#63b8ff" points="2491.5,-120.28 2495,-130.28 2498.5,-120.28 2491.5,-120.28"/>
</g>
<!-- Node25 -->
<g id="node25" class="node">
<title>Node25</title>
<g id="a_node25"><a xlink:href="d__attention_8cpp.html" target="_top" xlink:title=" ">
<polygon fill="white" stroke="#666666" points="2691.5,-90.5 2584.5,-90.5 2584.5,-71.5 2691.5,-71.5 2691.5,-90.5"/>
<text text-anchor="middle" x="2638" y="-78.5" font-family="Helvetica,sans-Serif" font-size="10.00">src/d/d_attention.cpp</text>
</a>
</g>
</g>
<!-- Node1&#45;&gt;Node25 -->
<g id="edge25" class="edge">
<title>Node1&#45;&gt;Node25</title>
<path fill="none" stroke="#63b8ff" d="M2537.31,-127.06C2563.95,-115.14 2597.11,-100.3 2617.92,-90.99"/>
<polygon fill="#63b8ff" stroke="#63b8ff" points="2536.17,-123.74 2528.47,-131.02 2539.03,-130.13 2536.17,-123.74"/>
</g>
<!-- Node26 -->
<g id="node26" class="node">
<title>Node26</title>
<g id="a_node26"><a xlink:href="d__kankyo_8cpp.html" target="_top" xlink:title=" ">
<polygon fill="white" stroke="#666666" points="2844,-90.5 2710,-90.5 2710,-71.5 2844,-71.5 2844,-90.5"/>
<text text-anchor="middle" x="2777" y="-78.5" font-family="Helvetica,sans-Serif" font-size="10.00">src/d/kankyo/d_kankyo.cpp</text>
</a>
</g>
</g>
<!-- Node1&#45;&gt;Node26 -->
<g id="edge26" class="edge">
<title>Node1&#45;&gt;Node26</title>
<path fill="none" stroke="#63b8ff" d="M2569.86,-129.01C2623.71,-116.79 2694.2,-100.79 2737.51,-90.96"/>
<polygon fill="#63b8ff" stroke="#63b8ff" points="2569.09,-125.6 2560.11,-131.22 2570.64,-132.42 2569.09,-125.6"/>
</g>
<!-- Node3 -->
<g id="node3" class="node">
<title>Node3</title>
<g id="a_node3"><a xlink:href="J3DJoint_8cpp.html" target="_top" xlink:title=" ">
<polygon fill="white" stroke="#666666" points="158,-30 0,-30 0,0 158,0 158,-30"/>
<text text-anchor="start" x="8" y="-18" font-family="Helvetica,sans-Serif" font-size="10.00">libs/JSystem/J3DGraphAnimator</text>
<text text-anchor="middle" x="79" y="-7" font-family="Helvetica,sans-Serif" font-size="10.00">/J3DJoint.cpp</text>
</a>
</g>
</g>
<!-- Node2&#45;&gt;Node3 -->
<g id="edge2" class="edge">
<title>Node2&#45;&gt;Node3</title>
<path fill="none" stroke="#63b8ff" d="M1127.93,-79.16C953.84,-76.65 524.43,-66.91 167,-30 164.08,-29.7 161.1,-29.36 158.1,-29"/>
<polygon fill="#63b8ff" stroke="#63b8ff" points="1127.72,-82.65 1137.76,-79.29 1127.81,-75.65 1127.72,-82.65"/>
</g>
<!-- Node4 -->
<g id="node4" class="node">
<title>Node4</title>
<g id="a_node4"><a xlink:href="J3DJointTree_8cpp.html" target="_top" xlink:title=" ">
<polygon fill="white" stroke="#666666" points="334,-30 176,-30 176,0 334,0 334,-30"/>
<text text-anchor="start" x="184" y="-18" font-family="Helvetica,sans-Serif" font-size="10.00">libs/JSystem/J3DGraphAnimator</text>
<text text-anchor="middle" x="255" y="-7" font-family="Helvetica,sans-Serif" font-size="10.00">/J3DJointTree.cpp</text>
</a>
</g>
</g>
<!-- Node2&#45;&gt;Node4 -->
<g id="edge3" class="edge">
<title>Node2&#45;&gt;Node4</title>
<path fill="none" stroke="#63b8ff" d="M1127.97,-78.07C975.7,-73.76 631.19,-61.18 343,-30 340.08,-29.68 337.1,-29.34 334.1,-28.97"/>
<polygon fill="#63b8ff" stroke="#63b8ff" points="1127.43,-81.56 1137.53,-78.33 1127.63,-74.56 1127.43,-81.56"/>
</g>
<!-- Node5 -->
<g id="node5" class="node">
<title>Node5</title>
<g id="a_node5"><a xlink:href="J3DMaterialAnm_8cpp.html" target="_top" xlink:title=" ">
<polygon fill="white" stroke="#666666" points="510,-30 352,-30 352,0 510,0 510,-30"/>
<text text-anchor="start" x="360" y="-18" font-family="Helvetica,sans-Serif" font-size="10.00">libs/JSystem/J3DGraphAnimator</text>
<text text-anchor="middle" x="431" y="-7" font-family="Helvetica,sans-Serif" font-size="10.00">/J3DMaterialAnm.cpp</text>
</a>
</g>
</g>
<!-- Node2&#45;&gt;Node5 -->
<g id="edge4" class="edge">
<title>Node2&#45;&gt;Node5</title>
<path fill="none" stroke="#63b8ff" d="M1128.21,-76.46C1000.15,-70.22 738.99,-55.45 519,-30 516.08,-29.66 513.11,-29.3 510.11,-28.91"/>
<polygon fill="#63b8ff" stroke="#63b8ff" points="1127.77,-79.94 1137.93,-76.93 1128.11,-72.95 1127.77,-79.94"/>
</g>
<!-- Node6 -->
<g id="node6" class="node">
<title>Node6</title>
<g id="a_node6"><a xlink:href="J3DMaterialAttach_8cpp.html" target="_top" xlink:title=" ">
<polygon fill="white" stroke="#666666" points="686,-30 528,-30 528,0 686,0 686,-30"/>
<text text-anchor="start" x="536" y="-18" font-family="Helvetica,sans-Serif" font-size="10.00">libs/JSystem/J3DGraphAnimator</text>
<text text-anchor="middle" x="607" y="-7" font-family="Helvetica,sans-Serif" font-size="10.00">/J3DMaterialAttach.cpp</text>
</a>
</g>
</g>
<!-- Node2&#45;&gt;Node6 -->
<g id="edge5" class="edge">
<title>Node2&#45;&gt;Node6</title>
<path fill="none" stroke="#63b8ff" d="M1128.07,-73.78C1027.36,-65.51 847.9,-49.61 695,-30 692.08,-29.63 689.12,-29.23 686.12,-28.82"/>
<polygon fill="#63b8ff" stroke="#63b8ff" points="1127.59,-77.25 1137.84,-74.58 1128.16,-70.28 1127.59,-77.25"/>
</g>
<!-- Node7 -->
<g id="node7" class="node">
<title>Node7</title>
<g id="a_node7"><a xlink:href="J3DModel_8cpp.html" target="_top" xlink:title=" ">
<polygon fill="white" stroke="#666666" points="862,-30 704,-30 704,0 862,0 862,-30"/>
<text text-anchor="start" x="712" y="-18" font-family="Helvetica,sans-Serif" font-size="10.00">libs/JSystem/J3DGraphAnimator</text>
<text text-anchor="middle" x="783" y="-7" font-family="Helvetica,sans-Serif" font-size="10.00">/J3DModel.cpp</text>
</a>
</g>
</g>
<!-- Node2&#45;&gt;Node7 -->
<g id="edge6" class="edge">
<title>Node2&#45;&gt;Node7</title>
<path fill="none" stroke="#63b8ff" d="M1128.01,-68.47C1059.9,-58.48 958.93,-43.54 871,-30 868.09,-29.55 865.14,-29.09 862.15,-28.63"/>
<polygon fill="#63b8ff" stroke="#63b8ff" points="1127.18,-71.89 1137.58,-69.88 1128.19,-64.96 1127.18,-71.89"/>
</g>
<!-- Node8 -->
<g id="node8" class="node">
<title>Node8</title>
<g id="a_node8"><a xlink:href="J3DModelData_8cpp.html" target="_top" xlink:title=" ">
<polygon fill="white" stroke="#666666" points="1038,-30 880,-30 880,0 1038,0 1038,-30"/>
<text text-anchor="start" x="888" y="-18" font-family="Helvetica,sans-Serif" font-size="10.00">libs/JSystem/J3DGraphAnimator</text>
<text text-anchor="middle" x="959" y="-7" font-family="Helvetica,sans-Serif" font-size="10.00">/J3DModelData.cpp</text>
</a>
</g>
</g>
<!-- Node2&#45;&gt;Node8 -->
<g id="edge7" class="edge">
<title>Node2&#45;&gt;Node8</title>
<path fill="none" stroke="#63b8ff" d="M1139.99,-62.71C1100.78,-52.59 1051.86,-39.96 1014.76,-30.39"/>
<polygon fill="#63b8ff" stroke="#63b8ff" points="1139.01,-66.07 1149.57,-65.18 1140.76,-59.29 1139.01,-66.07"/>
</g>
<!-- Node9 -->
<g id="node9" class="node">
<title>Node9</title>
<g id="a_node9"><a xlink:href="J3DDrawBuffer_8cpp.html" target="_top" xlink:title=" ">
<polygon fill="white" stroke="#666666" points="1198,-30 1056,-30 1056,0 1198,0 1198,-30"/>
<text text-anchor="start" x="1064" y="-18" font-family="Helvetica,sans-Serif" font-size="10.00">libs/JSystem/J3DGraphBase</text>
<text text-anchor="middle" x="1127" y="-7" font-family="Helvetica,sans-Serif" font-size="10.00">/J3DDrawBuffer.cpp</text>
</a>
</g>
</g>
<!-- Node2&#45;&gt;Node9 -->
<g id="edge8" class="edge">
<title>Node2&#45;&gt;Node9</title>
<path fill="none" stroke="#63b8ff" d="M1180.37,-58.7C1168.74,-49.4 1155.41,-38.73 1144.98,-30.39"/>
<polygon fill="#63b8ff" stroke="#63b8ff" points="1178.07,-61.34 1188.06,-64.85 1182.44,-55.87 1178.07,-61.34"/>
</g>
<!-- Node10 -->
<g id="node10" class="node">
<title>Node10</title>
<g id="a_node10"><a xlink:href="J3DMaterial_8cpp.html" target="_top" xlink:title=" ">
<polygon fill="white" stroke="#666666" points="1358,-30 1216,-30 1216,0 1358,0 1358,-30"/>
<text text-anchor="start" x="1224" y="-18" font-family="Helvetica,sans-Serif" font-size="10.00">libs/JSystem/J3DGraphBase</text>
<text text-anchor="middle" x="1287" y="-7" font-family="Helvetica,sans-Serif" font-size="10.00">/J3DMaterial.cpp</text>
</a>
</g>
</g>
<!-- Node2&#45;&gt;Node10 -->
<g id="edge9" class="edge">
<title>Node2&#45;&gt;Node10</title>
<path fill="none" stroke="#63b8ff" d="M1233.63,-58.7C1245.26,-49.4 1258.59,-38.73 1269.02,-30.39"/>
<polygon fill="#63b8ff" stroke="#63b8ff" points="1231.56,-55.87 1225.94,-64.85 1235.93,-61.34 1231.56,-55.87"/>
</g>
<!-- Node11 -->
<g id="node11" class="node">
<title>Node11</title>
<g id="a_node11"><a xlink:href="J3DPacket_8cpp.html" target="_top" xlink:title=" ">
<polygon fill="white" stroke="#666666" points="1518,-30 1376,-30 1376,0 1518,0 1518,-30"/>
<text text-anchor="start" x="1384" y="-18" font-family="Helvetica,sans-Serif" font-size="10.00">libs/JSystem/J3DGraphBase</text>
<text text-anchor="middle" x="1447" y="-7" font-family="Helvetica,sans-Serif" font-size="10.00">/J3DPacket.cpp</text>
</a>
</g>
</g>
<!-- Node2&#45;&gt;Node11 -->
<g id="edge10" class="edge">
<title>Node2&#45;&gt;Node11</title>
<path fill="none" stroke="#63b8ff" d="M1272.09,-62.64C1310,-52.53 1357.22,-39.94 1393.04,-30.39"/>
<polygon fill="#63b8ff" stroke="#63b8ff" points="1271.38,-59.21 1262.62,-65.17 1273.19,-65.97 1271.38,-59.21"/>
</g>
<!-- Node12 -->
<g id="node12" class="node">
<title>Node12</title>
<g id="a_node12"><a xlink:href="d__a__alink_8cpp.html" target="_top" xlink:title=" ">
<polygon fill="white" stroke="#666666" points="2020.5,-24.5 1911.5,-24.5 1911.5,-5.5 2020.5,-5.5 2020.5,-24.5"/>
<text text-anchor="middle" x="1966" y="-12.5" font-family="Helvetica,sans-Serif" font-size="10.00">src/d/a/d_a_alink.cpp</text>
</a>
</g>
</g>
<!-- Node2&#45;&gt;Node12 -->
<g id="edge11" class="edge">
<title>Node2&#45;&gt;Node12</title>
<path fill="none" stroke="#63b8ff" d="M1286.27,-78C1415.73,-73.9 1680.31,-62.05 1902,-30 1910.89,-28.71 1920.39,-26.89 1929.28,-24.98"/>
<polygon fill="#63b8ff" stroke="#63b8ff" points="1286.33,-74.49 1276.44,-78.3 1286.54,-81.49 1286.33,-74.49"/>
</g>
<!-- Node13 -->
<g id="node13" class="node">
<title>Node13</title>
<g id="a_node13"><a xlink:href="d__model_8cpp.html" target="_top" xlink:title=" ">
<polygon fill="white" stroke="#666666" points="1632,-24.5 1536,-24.5 1536,-5.5 1632,-5.5 1632,-24.5"/>
<text text-anchor="middle" x="1584" y="-12.5" font-family="Helvetica,sans-Serif" font-size="10.00">src/d/d_model.cpp</text>
</a>
</g>
</g>
<!-- Node2&#45;&gt;Node13 -->
<g id="edge12" class="edge">
<title>Node2&#45;&gt;Node13</title>
<path fill="none" stroke="#63b8ff" d="M1286.1,-69.57C1351.06,-60.54 1445.35,-46.38 1527,-30 1534.29,-28.54 1542.06,-26.77 1549.44,-24.99"/>
<polygon fill="#63b8ff" stroke="#63b8ff" points="1285.65,-66.1 1276.22,-70.93 1286.61,-73.03 1285.65,-66.1"/>
</g>
<!-- Node14 -->
<g id="node14" class="node">
<title>Node14</title>
<g id="a_node14"><a xlink:href="d__resorce_8cpp.html" target="_top" xlink:title=" ">
<polygon fill="white" stroke="#666666" points="1752,-24.5 1650,-24.5 1650,-5.5 1752,-5.5 1752,-24.5"/>
<text text-anchor="middle" x="1701" y="-12.5" font-family="Helvetica,sans-Serif" font-size="10.00">src/d/d_resorce.cpp</text>
</a>
</g>
</g>
<!-- Node2&#45;&gt;Node14 -->
<g id="edge13" class="edge">
<title>Node2&#45;&gt;Node14</title>
<path fill="none" stroke="#63b8ff" d="M1286.03,-73.63C1373.31,-65.97 1517.81,-51.4 1641,-30 1649.01,-28.61 1657.55,-26.81 1665.6,-24.97"/>
<polygon fill="#63b8ff" stroke="#63b8ff" points="1285.8,-70.14 1276.14,-74.49 1286.4,-77.12 1285.8,-70.14"/>
</g>
<!-- Node15 -->
<g id="node15" class="node">
<title>Node15</title>
<g id="a_node15"><a xlink:href="m__Do__ext_8cpp.html" target="_top" xlink:title=" ">
<polygon fill="white" stroke="#666666" points="1893.5,-24.5 1770.5,-24.5 1770.5,-5.5 1893.5,-5.5 1893.5,-24.5"/>
<text text-anchor="middle" x="1832" y="-12.5" font-family="Helvetica,sans-Serif" font-size="10.00">src/m_Do/m_Do_ext.cpp</text>
</a>
</g>
</g>
<!-- Node2&#45;&gt;Node15 -->
<g id="edge14" class="edge">
<title>Node2&#45;&gt;Node15</title>
<path fill="none" stroke="#63b8ff" d="M1286.05,-75.48C1393.8,-68.72 1592.67,-54.12 1761,-30 1770.58,-28.63 1780.82,-26.81 1790.45,-24.95"/>
<polygon fill="#63b8ff" stroke="#63b8ff" points="1285.91,-71.98 1276.15,-76.09 1286.34,-78.97 1285.91,-71.98"/>
</g>
<!-- Node16&#45;&gt;Node12 -->
<g id="edge16" class="edge">
<title>Node16&#45;&gt;Node12</title>
<path fill="none" stroke="#63b8ff" d="M2278.25,-70.25C2213.69,-60.94 2115.11,-45.98 2030,-30 2021.95,-28.49 2013.37,-26.72 2005.19,-24.96"/>
<polygon fill="#63b8ff" stroke="#63b8ff" points="2277.61,-73.69 2288,-71.65 2278.6,-66.76 2277.61,-73.69"/>
</g>
<!-- Node17 -->
<g id="node17" class="node">
<title>Node17</title>
<g id="a_node17"><a xlink:href="d__a__player_8cpp.html" target="_top" xlink:title=" ">
<polygon fill="white" stroke="#666666" points="2153,-24.5 2039,-24.5 2039,-5.5 2153,-5.5 2153,-24.5"/>
<text text-anchor="middle" x="2096" y="-12.5" font-family="Helvetica,sans-Serif" font-size="10.00">src/d/a/d_a_player.cpp</text>
</a>
</g>
</g>
<!-- Node16&#45;&gt;Node17 -->
<g id="edge17" class="edge">
<title>Node16&#45;&gt;Node17</title>
<path fill="none" stroke="#63b8ff" d="M2301.71,-68.24C2252.44,-55.73 2175.56,-36.21 2131.07,-24.91"/>
<polygon fill="#63b8ff" stroke="#63b8ff" points="2300.67,-71.59 2311.23,-70.66 2302.4,-64.81 2300.67,-71.59"/>
</g>
<!-- Node18 -->
<g id="node18" class="node">
<title>Node18</title>
<g id="a_node18"><a xlink:href="d__com__inf__game_8cpp.html" target="_top" xlink:title=" ">
<polygon fill="white" stroke="#666666" points="2279,-30 2171,-30 2171,0 2279,0 2279,-30"/>
<text text-anchor="start" x="2179" y="-18" font-family="Helvetica,sans-Serif" font-size="10.00">src/d/com/d_com_inf</text>
<text text-anchor="middle" x="2225" y="-7" font-family="Helvetica,sans-Serif" font-size="10.00">_game.cpp</text>
</a>
</g>
</g>
<!-- Node16&#45;&gt;Node18 -->
<g id="edge18" class="edge">
<title>Node16&#45;&gt;Node18</title>
<path fill="none" stroke="#63b8ff" d="M2320.8,-65.85C2300.6,-55.34 2273.16,-41.06 2252.82,-30.48"/>
<polygon fill="#63b8ff" stroke="#63b8ff" points="2319.07,-68.89 2329.55,-70.4 2322.3,-62.68 2319.07,-68.89"/>
</g>
<!-- Node19 -->
<g id="node19" class="node">
<title>Node19</title>
<g id="a_node19"><a xlink:href="d__camera_8cpp.html" target="_top" xlink:title=" ">
<polygon fill="white" stroke="#666666" points="2399,-24.5 2297,-24.5 2297,-5.5 2399,-5.5 2399,-24.5"/>
<text text-anchor="middle" x="2348" y="-12.5" font-family="Helvetica,sans-Serif" font-size="10.00">src/d/d_camera.cpp</text>
</a>
</g>
</g>
<!-- Node16&#45;&gt;Node19 -->
<g id="edge19" class="edge">
<title>Node16&#45;&gt;Node19</title>
<path fill="none" stroke="#63b8ff" d="M2348,-59.68C2348,-47.94 2348,-33.77 2348,-24.82"/>
<polygon fill="#63b8ff" stroke="#63b8ff" points="2344.5,-59.59 2348,-69.59 2351.5,-59.59 2344.5,-59.59"/>
</g>
<!-- Node20 -->
<g id="node20" class="node">
<title>Node20</title>
<g id="a_node20"><a xlink:href="d__event_8cpp.html" target="_top" xlink:title=" ">
<polygon fill="white" stroke="#666666" points="2538.5,-24.5 2417.5,-24.5 2417.5,-5.5 2538.5,-5.5 2538.5,-24.5"/>
<text text-anchor="middle" x="2478" y="-12.5" font-family="Helvetica,sans-Serif" font-size="10.00">src/d/event/d_event.cpp</text>
</a>
</g>
</g>
<!-- Node16&#45;&gt;Node20 -->
<g id="edge20" class="edge">
<title>Node16&#45;&gt;Node20</title>
<path fill="none" stroke="#63b8ff" d="M2376.23,-66.1C2401.71,-53.56 2438.42,-35.49 2460.08,-24.82"/>
<polygon fill="#63b8ff" stroke="#63b8ff" points="2374.86,-62.88 2367.43,-70.43 2377.95,-69.16 2374.86,-62.88"/>
</g>
<!-- Node21 -->
<g id="node21" class="node">
<title>Node21</title>
<g id="a_node21"><a xlink:href="d__meter2__draw_8cpp.html" target="_top" xlink:title=" ">
<polygon fill="white" stroke="#666666" points="2667,-30 2557,-30 2557,0 2667,0 2667,-30"/>
<text text-anchor="start" x="2565" y="-18" font-family="Helvetica,sans-Serif" font-size="10.00">src/d/meter/d_meter2</text>
<text text-anchor="middle" x="2612" y="-7" font-family="Helvetica,sans-Serif" font-size="10.00">_draw.cpp</text>
</a>
</g>
</g>
<!-- Node16&#45;&gt;Node21 -->
<g id="edge21" class="edge">
<title>Node16&#45;&gt;Node21</title>
<path fill="none" stroke="#63b8ff" d="M2396,-68.36C2441.36,-57.37 2509.34,-40.89 2556.89,-29.36"/>
<polygon fill="#63b8ff" stroke="#63b8ff" points="2395.35,-64.92 2386.46,-70.68 2397,-71.72 2395.35,-64.92"/>
</g>
<!-- Node22 -->
<g id="node22" class="node">
<title>Node22</title>
<g id="a_node22"><a xlink:href="d__msg__flow_8cpp.html" target="_top" xlink:title=" ">
<polygon fill="white" stroke="#666666" points="2818.5,-24.5 2685.5,-24.5 2685.5,-5.5 2818.5,-5.5 2818.5,-24.5"/>
<text text-anchor="middle" x="2752" y="-12.5" font-family="Helvetica,sans-Serif" font-size="10.00">src/d/msg/d_msg_flow.cpp</text>
</a>
</g>
</g>
<!-- Node16&#45;&gt;Node22 -->
<g id="edge22" class="edge">
<title>Node16&#45;&gt;Node22</title>
<path fill="none" stroke="#63b8ff" d="M2399.8,-68.81C2404.93,-67.81 2410.06,-66.86 2415,-66 2530.38,-46.01 2560.39,-48.61 2676,-30 2685.4,-28.49 2695.44,-26.73 2705.03,-24.99"/>
<polygon fill="#63b8ff" stroke="#63b8ff" points="2399.26,-65.34 2390.14,-70.74 2400.64,-72.21 2399.26,-65.34"/>
</g>
<!-- Node23 -->
<g id="node23" class="node">
<title>Node23</title>
<g id="a_node23"><a xlink:href="f__op__actor_8cpp.html" target="_top" xlink:title=" ">
<polygon fill="white" stroke="#666666" points="2955.5,-24.5 2836.5,-24.5 2836.5,-5.5 2955.5,-5.5 2955.5,-24.5"/>
<text text-anchor="middle" x="2896" y="-12.5" font-family="Helvetica,sans-Serif" font-size="10.00">src/f_op/f_op_actor.cpp</text>
</a>
</g>
</g>
<!-- Node16&#45;&gt;Node23 -->
<g id="edge23" class="edge">
<title>Node16&#45;&gt;Node23</title>
<path fill="none" stroke="#63b8ff" d="M2397.81,-68.91C2403.59,-67.83 2409.41,-66.82 2415,-66 2597.28,-39.11 2645.68,-56.62 2828,-30 2837.18,-28.66 2846.99,-26.86 2856.22,-25"/>
<polygon fill="#63b8ff" stroke="#63b8ff" points="2397.45,-65.41 2388.32,-70.78 2398.8,-72.28 2397.45,-65.41"/>
</g>
</g>
</svg>
