<?xml version="1.0" encoding="UTF-8" standalone="no"?>
<!DOCTYPE svg PUBLIC "-//W3C//DTD SVG 1.1//EN"
 "http://www.w3.org/Graphics/SVG/1.1/DTD/svg11.dtd">
<!-- Generated by graphviz version 7.0.5 (20221223.1930)
 -->
<!-- Title: include/JSystem/J3DGraphAnimator/J3DMaterialAttach.h Pages: 1 -->
<svg width="3562pt" height="566pt"
 viewBox="0.00 0.00 3562.00 566.00" xmlns="http://www.w3.org/2000/svg" xmlns:xlink="http://www.w3.org/1999/xlink">
<g id="graph0" class="graph" transform="scale(1 1) rotate(0) translate(4 562)">
<title>include/JSystem/J3DGraphAnimator/J3DMaterialAttach.h</title>
<!-- Node1 -->
<g id="node1" class="node">
<title>Node1</title>
<g id="a_node1"><a xlink:title=" ">
<polygon fill="#999999" stroke="#666666" points="3261,-558 3115,-558 3115,-528 3261,-528 3261,-558"/>
<text text-anchor="start" x="3123" y="-546" font-family="Helvetica,sans-Serif" font-size="10.00">include/JSystem/J3DGraph</text>
<text text-anchor="middle" x="3188" y="-535" font-family="Helvetica,sans-Serif" font-size="10.00">Animator/J3DMaterialAttach.h</text>
</a>
</g>
</g>
<!-- Node2 -->
<g id="node2" class="node">
<title>Node2</title>
<g id="a_node2"><a xlink:href="J3DModelData_8h.html" target="_top" xlink:title=" ">
<polygon fill="white" stroke="#666666" points="3057.5,-492 2922.5,-492 2922.5,-462 3057.5,-462 3057.5,-492"/>
<text text-anchor="start" x="2930.5" y="-480" font-family="Helvetica,sans-Serif" font-size="10.00">include/JSystem/J3DGraph</text>
<text text-anchor="middle" x="2990" y="-469" font-family="Helvetica,sans-Serif" font-size="10.00">Animator/J3DModelData.h</text>
</a>
</g>
</g>
<!-- Node1&#45;&gt;Node2 -->
<g id="edge1" class="edge">
<title>Node1&#45;&gt;Node2</title>
<path fill="none" stroke="#63b8ff" d="M3132.93,-524.2C3101.94,-514.18 3063.74,-501.83 3034.63,-492.43"/>
<polygon fill="#63b8ff" stroke="#63b8ff" points="3131.53,-527.43 3142.12,-527.17 3133.69,-520.77 3131.53,-527.43"/>
</g>
<!-- Node74 -->
<g id="node21" class="node">
<title>Node74</title>
<g id="a_node21"><a xlink:href="J3DMaterialAttach_8cpp.html" target="_top" xlink:title=" ">
<polygon fill="white" stroke="#666666" points="3360,-228 3202,-228 3202,-198 3360,-198 3360,-228"/>
<text text-anchor="start" x="3210" y="-216" font-family="Helvetica,sans-Serif" font-size="10.00">libs/JSystem/J3DGraphAnimator</text>
<text text-anchor="middle" x="3281" y="-205" font-family="Helvetica,sans-Serif" font-size="10.00">/J3DMaterialAttach.cpp</text>
</a>
</g>
</g>
<!-- Node1&#45;&gt;Node74 -->
<g id="edge59" class="edge">
<title>Node1&#45;&gt;Node74</title>
<path fill="none" stroke="#63b8ff" d="M3188,-516.38C3188,-490.16 3188,-448.24 3188,-412 3188,-412 3188,-412 3188,-344 3188,-294.05 3233.98,-250.07 3261.28,-228.36"/>
<polygon fill="#63b8ff" stroke="#63b8ff" points="3184.5,-516.06 3188,-526.06 3191.5,-516.06 3184.5,-516.06"/>
</g>
<!-- Node381 -->
<g id="node50" class="node">
<title>Node381</title>
<g id="a_node50"><a xlink:href="J3DJointTree_8cpp.html" target="_top" xlink:title=" ">
<polygon fill="white" stroke="#666666" points="3374,-492 3216,-492 3216,-462 3374,-462 3374,-492"/>
<text text-anchor="start" x="3224" y="-480" font-family="Helvetica,sans-Serif" font-size="10.00">libs/JSystem/J3DGraphAnimator</text>
<text text-anchor="middle" x="3295" y="-469" font-family="Helvetica,sans-Serif" font-size="10.00">/J3DJointTree.cpp</text>
</a>
</g>
</g>
<!-- Node1&#45;&gt;Node381 -->
<g id="edge58" class="edge">
<title>Node1&#45;&gt;Node381</title>
<path fill="none" stroke="#63b8ff" d="M3221.59,-521.91C3237.64,-512.31 3256.49,-501.03 3271.07,-492.31"/>
<polygon fill="#63b8ff" stroke="#63b8ff" points="3220.1,-518.72 3213.31,-526.86 3223.69,-524.73 3220.1,-518.72"/>
</g>
<!-- Node3 -->
<g id="node3" class="node">
<title>Node3</title>
<g id="a_node3"><a xlink:href="J3DAnimation_8h.html" target="_top" xlink:title=" ">
<polygon fill="white" stroke="#666666" points="2924.5,-360 2789.5,-360 2789.5,-330 2924.5,-330 2924.5,-360"/>
<text text-anchor="start" x="2797.5" y="-348" font-family="Helvetica,sans-Serif" font-size="10.00">include/JSystem/J3DGraph</text>
<text text-anchor="middle" x="2857" y="-337" font-family="Helvetica,sans-Serif" font-size="10.00">Animator/J3DAnimation.h</text>
</a>
</g>
</g>
<!-- Node2&#45;&gt;Node3 -->
<g id="edge2" class="edge">
<title>Node2&#45;&gt;Node3</title>
<path fill="none" stroke="#63b8ff" d="M2967.05,-453.57C2939.74,-426.87 2894.92,-383.06 2871.81,-360.47"/>
<polygon fill="#63b8ff" stroke="#63b8ff" points="2964.58,-456.05 2974.18,-460.53 2969.47,-451.04 2964.58,-456.05"/>
</g>
<!-- Node76 -->
<g id="node23" class="node">
<title>Node76</title>
<g id="a_node23"><a xlink:href="J3DModelData_8cpp.html" target="_top" xlink:title=" ">
<polygon fill="white" stroke="#666666" points="3184,-228 3026,-228 3026,-198 3184,-198 3184,-228"/>
<text text-anchor="start" x="3034" y="-216" font-family="Helvetica,sans-Serif" font-size="10.00">libs/JSystem/J3DGraphAnimator</text>
<text text-anchor="middle" x="3105" y="-205" font-family="Helvetica,sans-Serif" font-size="10.00">/J3DModelData.cpp</text>
</a>
</g>
</g>
<!-- Node2&#45;&gt;Node76 -->
<g id="edge57" class="edge">
<title>Node2&#45;&gt;Node76</title>
<path fill="none" stroke="#63b8ff" d="M3000.88,-451.2C3024.52,-397.35 3079.93,-271.12 3098.67,-228.41"/>
<polygon fill="#63b8ff" stroke="#63b8ff" points="2997.77,-449.59 2996.96,-460.15 3004.18,-452.4 2997.77,-449.59"/>
</g>
<!-- Node372 -->
<g id="node45" class="node">
<title>Node372</title>
<g id="a_node45"><a xlink:href="J3DMtxBuffer_8h.html" target="_top" xlink:title=" ">
<polygon fill="white" stroke="#666666" points="2421.5,-426 2286.5,-426 2286.5,-396 2421.5,-396 2421.5,-426"/>
<text text-anchor="start" x="2294.5" y="-414" font-family="Helvetica,sans-Serif" font-size="10.00">include/JSystem/J3DGraph</text>
<text text-anchor="middle" x="2354" y="-403" font-family="Helvetica,sans-Serif" font-size="10.00">Animator/J3DMtxBuffer.h</text>
</a>
</g>
</g>
<!-- Node2&#45;&gt;Node372 -->
<g id="edge48" class="edge">
<title>Node2&#45;&gt;Node372</title>
<path fill="none" stroke="#63b8ff" d="M2911.15,-468.07C2785.08,-455.38 2540.26,-430.74 2421.65,-418.81"/>
<polygon fill="#63b8ff" stroke="#63b8ff" points="2910.43,-471.51 2920.73,-469.03 2911.13,-464.55 2910.43,-471.51"/>
</g>
<!-- Node4 -->
<g id="node4" class="node">
<title>Node4</title>
<g id="a_node4"><a xlink:href="J2DAnimation_8h.html" target="_top" xlink:title=" ">
<polygon fill="white" stroke="#666666" points="3065.5,-162 2930.5,-162 2930.5,-132 3065.5,-132 3065.5,-162"/>
<text text-anchor="start" x="2938.5" y="-150" font-family="Helvetica,sans-Serif" font-size="10.00">include/JSystem/J2DGraph</text>
<text text-anchor="middle" x="2998" y="-139" font-family="Helvetica,sans-Serif" font-size="10.00">/J2DAnimation.h</text>
</a>
</g>
</g>
<!-- Node3&#45;&gt;Node4 -->
<g id="edge3" class="edge">
<title>Node3&#45;&gt;Node4</title>
<path fill="none" stroke="#63b8ff" d="M2902.87,-324.53C2917.64,-316.65 2933.21,-306.43 2945,-294 2981.18,-255.85 2992.99,-191.11 2996.57,-162.42"/>
<polygon fill="#63b8ff" stroke="#63b8ff" points="2901.52,-321.29 2894.19,-328.93 2904.69,-327.53 2901.52,-321.29"/>
</g>
<!-- Node59 -->
<g id="node16" class="node">
<title>Node59</title>
<g id="a_node16"><a xlink:href="J3DMaterialAnm_8h.html" target="_top" xlink:title=" ">
<polygon fill="white" stroke="#666666" points="2709,-294 2571,-294 2571,-264 2709,-264 2709,-294"/>
<text text-anchor="start" x="2579" y="-282" font-family="Helvetica,sans-Serif" font-size="10.00">include/JSystem/J3DGraph</text>
<text text-anchor="middle" x="2640" y="-271" font-family="Helvetica,sans-Serif" font-size="10.00">Animator/J3DMaterialAnm.h</text>
</a>
</g>
</g>
<!-- Node3&#45;&gt;Node59 -->
<g id="edge15" class="edge">
<title>Node3&#45;&gt;Node59</title>
<path fill="none" stroke="#63b8ff" d="M2797.26,-326.38C2763.14,-316.32 2720.9,-303.86 2688.79,-294.39"/>
<polygon fill="#63b8ff" stroke="#63b8ff" points="2796,-329.66 2806.58,-329.13 2797.98,-322.94 2796,-329.66"/>
</g>
<!-- Node79 -->
<g id="node26" class="node">
<title>Node79</title>
<g id="a_node26"><a xlink:href="m__Do__ext_8h.html" target="_top" xlink:title=" ">
<polygon fill="white" stroke="#666666" points="1515,-222.5 1385,-222.5 1385,-203.5 1515,-203.5 1515,-222.5"/>
<text text-anchor="middle" x="1450" y="-210.5" font-family="Helvetica,sans-Serif" font-size="10.00">include/m_Do/m_Do_ext.h</text>
</a>
</g>
</g>
<!-- Node3&#45;&gt;Node79 -->
<g id="edge27" class="edge">
<title>Node3&#45;&gt;Node79</title>
<path fill="none" stroke="#63b8ff" d="M2778.24,-341.41C2520.38,-332.82 1714.7,-305.25 1660,-294 1585.67,-278.71 1503.07,-240.47 1467.67,-222.99"/>
<polygon fill="#63b8ff" stroke="#63b8ff" points="2777.75,-344.89 2787.86,-341.73 2777.99,-337.9 2777.75,-344.89"/>
</g>
<!-- Node371 -->
<g id="node44" class="node">
<title>Node371</title>
<g id="a_node44"><a xlink:href="J3DAnimation_8cpp.html" target="_top" xlink:title=" ">
<polygon fill="white" stroke="#666666" points="2936,-294 2778,-294 2778,-264 2936,-264 2936,-294"/>
<text text-anchor="start" x="2786" y="-282" font-family="Helvetica,sans-Serif" font-size="10.00">libs/JSystem/J3DGraphAnimator</text>
<text text-anchor="middle" x="2857" y="-271" font-family="Helvetica,sans-Serif" font-size="10.00">/J3DAnimation.cpp</text>
</a>
</g>
</g>
<!-- Node3&#45;&gt;Node371 -->
<g id="edge47" class="edge">
<title>Node3&#45;&gt;Node371</title>
<path fill="none" stroke="#63b8ff" d="M2857,-318.39C2857,-310.13 2857,-301.28 2857,-294.16"/>
<polygon fill="#63b8ff" stroke="#63b8ff" points="2853.5,-318.28 2857,-328.28 2860.5,-318.28 2853.5,-318.28"/>
</g>
<!-- Node5 -->
<g id="node5" class="node">
<title>Node5</title>
<g id="a_node5"><a xlink:href="J2DAnmLoader_8h.html" target="_top" xlink:title=" ">
<polygon fill="#fff0f0" stroke="red" points="3491.5,-96 3356.5,-96 3356.5,-66 3491.5,-66 3491.5,-96"/>
<text text-anchor="start" x="3364.5" y="-84" font-family="Helvetica,sans-Serif" font-size="10.00">include/JSystem/J2DGraph</text>
<text text-anchor="middle" x="3424" y="-73" font-family="Helvetica,sans-Serif" font-size="10.00">/J2DAnmLoader.h</text>
</a>
</g>
</g>
<!-- Node4&#45;&gt;Node5 -->
<g id="edge4" class="edge">
<title>Node4&#45;&gt;Node5</title>
<path fill="none" stroke="#63b8ff" d="M3076.96,-135.64C3147.98,-126.11 3255.14,-111.18 3348,-96 3350.65,-95.57 3353.35,-95.12 3356.07,-94.65"/>
<polygon fill="#63b8ff" stroke="#63b8ff" points="3076.82,-132.13 3067.37,-136.93 3077.75,-139.07 3076.82,-132.13"/>
</g>
<!-- Node11 -->
<g id="node10" class="node">
<title>Node11</title>
<g id="a_node10"><a xlink:href="J2DMaterial_8h.html" target="_top" xlink:title=" ">
<polygon fill="#fff0f0" stroke="red" points="2648.5,-96 2513.5,-96 2513.5,-66 2648.5,-66 2648.5,-96"/>
<text text-anchor="start" x="2521.5" y="-84" font-family="Helvetica,sans-Serif" font-size="10.00">include/JSystem/J2DGraph</text>
<text text-anchor="middle" x="2581" y="-73" font-family="Helvetica,sans-Serif" font-size="10.00">/J2DMaterial.h</text>
</a>
</g>
</g>
<!-- Node4&#45;&gt;Node11 -->
<g id="edge9" class="edge">
<title>Node4&#45;&gt;Node11</title>
<path fill="none" stroke="#63b8ff" d="M2919.04,-135.26C2849.85,-125.64 2746.61,-110.82 2657,-96 2654.35,-95.56 2651.66,-95.11 2648.93,-94.64"/>
<polygon fill="#63b8ff" stroke="#63b8ff" points="2918.39,-138.7 2928.78,-136.61 2919.35,-131.77 2918.39,-138.7"/>
</g>
<!-- Node54 -->
<g id="node11" class="node">
<title>Node54</title>
<g id="a_node11"><a xlink:href="J2DAnimation_8cpp.html" target="_top" xlink:title=" ">
<polygon fill="white" stroke="#666666" points="2785.5,-96 2666.5,-96 2666.5,-66 2785.5,-66 2785.5,-96"/>
<text text-anchor="start" x="2674.5" y="-84" font-family="Helvetica,sans-Serif" font-size="10.00">libs/JSystem/J2DGraph</text>
<text text-anchor="middle" x="2726" y="-73" font-family="Helvetica,sans-Serif" font-size="10.00">/J2DAnimation.cpp</text>
</a>
</g>
</g>
<!-- Node4&#45;&gt;Node54 -->
<g id="edge10" class="edge">
<title>Node4&#45;&gt;Node54</title>
<path fill="none" stroke="#63b8ff" d="M2925.49,-128.94C2881.83,-118.67 2826.91,-105.74 2785.75,-96.06"/>
<polygon fill="#63b8ff" stroke="#63b8ff" points="2924.61,-132.33 2935.15,-131.21 2926.21,-125.51 2924.61,-132.33"/>
</g>
<!-- Node55 -->
<g id="node12" class="node">
<title>Node55</title>
<g id="a_node12"><a xlink:href="J2DPane_8cpp.html" target="_top" xlink:title=" ">
<polygon fill="white" stroke="#666666" points="2922.5,-96 2803.5,-96 2803.5,-66 2922.5,-66 2922.5,-96"/>
<text text-anchor="start" x="2811.5" y="-84" font-family="Helvetica,sans-Serif" font-size="10.00">libs/JSystem/J2DGraph</text>
<text text-anchor="middle" x="2863" y="-73" font-family="Helvetica,sans-Serif" font-size="10.00">/J2DPane.cpp</text>
</a>
</g>
</g>
<!-- Node4&#45;&gt;Node55 -->
<g id="edge11" class="edge">
<title>Node4&#45;&gt;Node55</title>
<path fill="none" stroke="#63b8ff" d="M2957.34,-126.72C2936.72,-116.95 2912.11,-105.28 2893.2,-96.31"/>
<polygon fill="#63b8ff" stroke="#63b8ff" points="2955.8,-129.87 2966.34,-130.99 2958.8,-123.54 2955.8,-129.87"/>
</g>
<!-- Node56 -->
<g id="node13" class="node">
<title>Node56</title>
<g id="a_node13"><a xlink:href="JPAMath_8cpp.html" target="_top" xlink:title=" ">
<polygon fill="white" stroke="#666666" points="3055,-96 2941,-96 2941,-66 3055,-66 3055,-96"/>
<text text-anchor="start" x="2949" y="-84" font-family="Helvetica,sans-Serif" font-size="10.00">libs/JSystem/JParticle</text>
<text text-anchor="middle" x="2998" y="-73" font-family="Helvetica,sans-Serif" font-size="10.00">/JPAMath.cpp</text>
</a>
</g>
</g>
<!-- Node4&#45;&gt;Node56 -->
<g id="edge12" class="edge">
<title>Node4&#45;&gt;Node56</title>
<path fill="none" stroke="#63b8ff" d="M2998,-120.39C2998,-112.13 2998,-103.28 2998,-96.16"/>
<polygon fill="#63b8ff" stroke="#63b8ff" points="2994.5,-120.28 2998,-130.28 3001.5,-120.28 2994.5,-120.28"/>
</g>
<!-- Node57 -->
<g id="node14" class="node">
<title>Node57</title>
<g id="a_node14"><a xlink:href="d__select__cursor_8cpp.html" target="_top" xlink:title=" ">
<polygon fill="white" stroke="#666666" points="3201,-90.5 3073,-90.5 3073,-71.5 3201,-71.5 3201,-90.5"/>
<text text-anchor="middle" x="3137" y="-78.5" font-family="Helvetica,sans-Serif" font-size="10.00">src/d/d_select_cursor.cpp</text>
</a>
</g>
</g>
<!-- Node4&#45;&gt;Node57 -->
<g id="edge13" class="edge">
<title>Node4&#45;&gt;Node57</title>
<path fill="none" stroke="#63b8ff" d="M3039.47,-126.91C3065.3,-115.01 3097.34,-100.26 3117.48,-90.99"/>
<polygon fill="#63b8ff" stroke="#63b8ff" points="3038.19,-123.64 3030.57,-131 3041.12,-130 3038.19,-123.64"/>
</g>
<!-- Node58 -->
<g id="node15" class="node">
<title>Node58</title>
<g id="a_node15"><a xlink:href="d__select__icon_8cpp.html" target="_top" xlink:title=" ">
<polygon fill="white" stroke="#666666" points="3338.5,-90.5 3219.5,-90.5 3219.5,-71.5 3338.5,-71.5 3338.5,-90.5"/>
<text text-anchor="middle" x="3279" y="-78.5" font-family="Helvetica,sans-Serif" font-size="10.00">src/d/d_select_icon.cpp</text>
</a>
</g>
</g>
<!-- Node4&#45;&gt;Node58 -->
<g id="edge14" class="edge">
<title>Node4&#45;&gt;Node58</title>
<path fill="none" stroke="#63b8ff" d="M3072.6,-129.01C3126.25,-116.79 3196.5,-100.79 3239.65,-90.96"/>
<polygon fill="#63b8ff" stroke="#63b8ff" points="3071.86,-125.59 3062.89,-131.22 3073.42,-132.41 3071.86,-125.59"/>
</g>
<!-- Node6 -->
<g id="node6" class="node">
<title>Node6</title>
<g id="a_node6"><a xlink:href="J2DAnmLoader__nonmatching_8cpp.html" target="_top" xlink:title=" ">
<polygon fill="white" stroke="#666666" points="3430,-30 3264,-30 3264,0 3430,0 3430,-30"/>
<text text-anchor="start" x="3272" y="-18" font-family="Helvetica,sans-Serif" font-size="10.00">libs/JSystem/J2DGraph</text>
<text text-anchor="middle" x="3347" y="-7" font-family="Helvetica,sans-Serif" font-size="10.00">/J2DAnmLoader_nonmatching.cpp</text>
</a>
</g>
</g>
<!-- Node5&#45;&gt;Node6 -->
<g id="edge5" class="edge">
<title>Node5&#45;&gt;Node6</title>
<path fill="none" stroke="#63b8ff" d="M3398.37,-58.7C3387.18,-49.4 3374.35,-38.73 3364.31,-30.39"/>
<polygon fill="#63b8ff" stroke="#63b8ff" points="3395.82,-61.13 3405.75,-64.83 3400.29,-55.75 3395.82,-61.13"/>
</g>
<!-- Node7 -->
<g id="node7" class="node">
<title>Node7</title>
<g id="a_node7"><a xlink:href="d__a__alink_8cpp.html" target="_top" xlink:title=" ">
<polygon fill="white" stroke="#666666" points="3108.5,-24.5 2999.5,-24.5 2999.5,-5.5 3108.5,-5.5 3108.5,-24.5"/>
<text text-anchor="middle" x="3054" y="-12.5" font-family="Helvetica,sans-Serif" font-size="10.00">src/d/a/d_a_alink.cpp</text>
</a>
</g>
</g>
<!-- Node5&#45;&gt;Node7 -->
<g id="edge6" class="edge">
<title>Node5&#45;&gt;Node7</title>
<path fill="none" stroke="#63b8ff" d="M3344.75,-65.44C3256.49,-49.86 3164.83,-34.43 3108.23,-24.99"/>
<polygon fill="#63b8ff" stroke="#63b8ff" points="3344.11,-68.88 3354.57,-67.17 3345.33,-61.98 3344.11,-68.88"/>
</g>
<!-- Node8 -->
<g id="node8" class="node">
<title>Node8</title>
<g id="a_node8"><a xlink:href="d__meter2__draw_8cpp.html" target="_top" xlink:title=" ">
<polygon fill="white" stroke="#666666" points="2707,-30 2597,-30 2597,0 2707,0 2707,-30"/>
<text text-anchor="start" x="2605" y="-18" font-family="Helvetica,sans-Serif" font-size="10.00">src/d/meter/d_meter2</text>
<text text-anchor="middle" x="2652" y="-7" font-family="Helvetica,sans-Serif" font-size="10.00">_draw.cpp</text>
</a>
</g>
</g>
<!-- Node5&#45;&gt;Node8 -->
<g id="edge7" class="edge">
<title>Node5&#45;&gt;Node8</title>
<path fill="none" stroke="#63b8ff" d="M3344.93,-65.7C3102.06,-35.31 2823.49,-22.33 2707.24,-17.89"/>
<polygon fill="#63b8ff" stroke="#63b8ff" points="3344.24,-69.14 3354.6,-66.92 3345.12,-62.19 3344.24,-69.14"/>
</g>
<!-- Node9 -->
<g id="node9" class="node">
<title>Node9</title>
<g id="a_node9"><a xlink:href="d__msg__scrn__arrow_8cpp.html" target="_top" xlink:title=" ">
<polygon fill="white" stroke="#666666" points="3554,-30 3448,-30 3448,0 3554,0 3554,-30"/>
<text text-anchor="start" x="3456" y="-18" font-family="Helvetica,sans-Serif" font-size="10.00">src/msg/scrn/d_msg</text>
<text text-anchor="middle" x="3501" y="-7" font-family="Helvetica,sans-Serif" font-size="10.00">_scrn_arrow.cpp</text>
</a>
</g>
</g>
<!-- Node5&#45;&gt;Node9 -->
<g id="edge8" class="edge">
<title>Node5&#45;&gt;Node9</title>
<path fill="none" stroke="#63b8ff" d="M3449.63,-58.7C3460.82,-49.4 3473.65,-38.73 3483.69,-30.39"/>
<polygon fill="#63b8ff" stroke="#63b8ff" points="3447.71,-55.75 3442.25,-64.83 3452.18,-61.13 3447.71,-55.75"/>
</g>
<!-- Node60 -->
<g id="node17" class="node">
<title>Node60</title>
<g id="a_node17"><a xlink:href="d__a__alink_8h.html" target="_top" xlink:title=" ">
<polygon fill="#fff0f0" stroke="red" points="2495,-90.5 2379,-90.5 2379,-71.5 2495,-71.5 2495,-90.5"/>
<text text-anchor="middle" x="2437" y="-78.5" font-family="Helvetica,sans-Serif" font-size="10.00">include/d/a/d_a_alink.h</text>
</a>
</g>
</g>
<!-- Node59&#45;&gt;Node60 -->
<g id="edge16" class="edge">
<title>Node59&#45;&gt;Node60</title>
<path fill="none" stroke="#63b8ff" d="M2560.31,-260.54C2544.04,-253.2 2528.89,-242.79 2519,-228 2495.06,-192.21 2554.25,-168.86 2532,-132 2519.19,-110.78 2494.05,-98.11 2472.85,-90.84"/>
<polygon fill="#63b8ff" stroke="#63b8ff" points="2558.57,-263.61 2569.15,-264.15 2561.21,-257.13 2558.57,-263.61"/>
</g>
<!-- Node67 -->
<g id="node18" class="node">
<title>Node67</title>
<g id="a_node18"><a xlink:href="d__a__npc_8h.html" target="_top" xlink:title=" ">
<polygon fill="#fff0f0" stroke="red" points="2969.5,-222.5 2858.5,-222.5 2858.5,-203.5 2969.5,-203.5 2969.5,-222.5"/>
<text text-anchor="middle" x="2914" y="-210.5" font-family="Helvetica,sans-Serif" font-size="10.00">include/d/a/d_a_npc.h</text>
</a>
</g>
</g>
<!-- Node59&#45;&gt;Node67 -->
<g id="edge19" class="edge">
<title>Node59&#45;&gt;Node67</title>
<path fill="none" stroke="#63b8ff" d="M2712.74,-261.01C2765.06,-248.79 2833.55,-232.79 2875.63,-222.96"/>
<polygon fill="#63b8ff" stroke="#63b8ff" points="2712.25,-257.53 2703.31,-263.21 2713.84,-264.35 2712.25,-257.53"/>
</g>
<!-- Node72 -->
<g id="node19" class="node">
<title>Node72</title>
<g id="a_node19"><a xlink:href="J3DJoint_8cpp.html" target="_top" xlink:title=" ">
<polygon fill="white" stroke="#666666" points="1897,-228 1739,-228 1739,-198 1897,-198 1897,-228"/>
<text text-anchor="start" x="1747" y="-216" font-family="Helvetica,sans-Serif" font-size="10.00">libs/JSystem/J3DGraphAnimator</text>
<text text-anchor="middle" x="1818" y="-205" font-family="Helvetica,sans-Serif" font-size="10.00">/J3DJoint.cpp</text>
</a>
</g>
</g>
<!-- Node59&#45;&gt;Node72 -->
<g id="edge20" class="edge">
<title>Node59&#45;&gt;Node72</title>
<path fill="none" stroke="#63b8ff" d="M2559.61,-271.74C2401.99,-259.47 2054.11,-232.38 1897.34,-220.18"/>
<polygon fill="#63b8ff" stroke="#63b8ff" points="2558.87,-275.19 2569.12,-272.48 2559.42,-268.22 2558.87,-275.19"/>
</g>
<!-- Node73 -->
<g id="node20" class="node">
<title>Node73</title>
<g id="a_node20"><a xlink:href="J3DMaterialAnm_8cpp.html" target="_top" xlink:title=" ">
<polygon fill="white" stroke="#666666" points="2686,-228 2528,-228 2528,-198 2686,-198 2686,-228"/>
<text text-anchor="start" x="2536" y="-216" font-family="Helvetica,sans-Serif" font-size="10.00">libs/JSystem/J3DGraphAnimator</text>
<text text-anchor="middle" x="2607" y="-205" font-family="Helvetica,sans-Serif" font-size="10.00">/J3DMaterialAnm.cpp</text>
</a>
</g>
</g>
<!-- Node59&#45;&gt;Node73 -->
<g id="edge21" class="edge">
<title>Node59&#45;&gt;Node73</title>
<path fill="none" stroke="#63b8ff" d="M2627.53,-253.83C2623.07,-245.17 2618.19,-235.7 2614.3,-228.16"/>
<polygon fill="#63b8ff" stroke="#63b8ff" points="2624.29,-255.17 2631.98,-262.45 2630.51,-251.96 2624.29,-255.17"/>
</g>
<!-- Node59&#45;&gt;Node74 -->
<g id="edge22" class="edge">
<title>Node59&#45;&gt;Node74</title>
<path fill="none" stroke="#63b8ff" d="M2720.29,-268.99C2736.41,-267.27 2753.24,-265.52 2769,-264 2957.24,-245.8 3005.27,-250.87 3193,-228 3195.92,-227.64 3198.89,-227.26 3201.88,-226.87"/>
<polygon fill="#63b8ff" stroke="#63b8ff" points="2720.33,-265.47 2710.77,-270.02 2721.08,-272.43 2720.33,-265.47"/>
</g>
<!-- Node75 -->
<g id="node22" class="node">
<title>Node75</title>
<g id="a_node22"><a xlink:href="J3DModel_8cpp.html" target="_top" xlink:title=" ">
<polygon fill="white" stroke="#666666" points="2314,-228 2156,-228 2156,-198 2314,-198 2314,-228"/>
<text text-anchor="start" x="2164" y="-216" font-family="Helvetica,sans-Serif" font-size="10.00">libs/JSystem/J3DGraphAnimator</text>
<text text-anchor="middle" x="2235" y="-205" font-family="Helvetica,sans-Serif" font-size="10.00">/J3DModel.cpp</text>
</a>
</g>
</g>
<!-- Node59&#45;&gt;Node75 -->
<g id="edge23" class="edge">
<title>Node59&#45;&gt;Node75</title>
<path fill="none" stroke="#63b8ff" d="M2559.7,-265.31C2488.52,-254.06 2385.16,-237.73 2314.29,-226.53"/>
<polygon fill="#63b8ff" stroke="#63b8ff" points="2558.92,-268.73 2569.34,-266.83 2560.01,-261.82 2558.92,-268.73"/>
</g>
<!-- Node59&#45;&gt;Node76 -->
<g id="edge24" class="edge">
<title>Node59&#45;&gt;Node76</title>
<path fill="none" stroke="#63b8ff" d="M2720.59,-266.91C2806.23,-255.12 2940.77,-236.6 3025.85,-224.89"/>
<polygon fill="#63b8ff" stroke="#63b8ff" points="2720.29,-263.42 2710.86,-268.25 2721.25,-270.35 2720.29,-263.42"/>
</g>
<!-- Node77 -->
<g id="node24" class="node">
<title>Node77</title>
<g id="a_node24"><a xlink:href="d__particle_8cpp.html" target="_top" xlink:title=" ">
<polygon fill="white" stroke="#666666" points="2840,-222.5 2704,-222.5 2704,-203.5 2840,-203.5 2840,-222.5"/>
<text text-anchor="middle" x="2772" y="-210.5" font-family="Helvetica,sans-Serif" font-size="10.00">src/d/particle/d_particle.cpp</text>
</a>
</g>
</g>
<!-- Node59&#45;&gt;Node77 -->
<g id="edge25" class="edge">
<title>Node59&#45;&gt;Node77</title>
<path fill="none" stroke="#63b8ff" d="M2679.71,-258.75C2704.18,-246.88 2734.42,-232.22 2753.47,-222.99"/>
<polygon fill="#63b8ff" stroke="#63b8ff" points="2678.46,-255.46 2670.99,-262.98 2681.51,-261.76 2678.46,-255.46"/>
</g>
<!-- Node78 -->
<g id="node25" class="node">
<title>Node78</title>
<g id="a_node25"><a xlink:href="m__Do__ext_8cpp.html" target="_top" xlink:title=" ">
<polygon fill="white" stroke="#666666" points="2523.5,-156.5 2400.5,-156.5 2400.5,-137.5 2523.5,-137.5 2523.5,-156.5"/>
<text text-anchor="middle" x="2462" y="-144.5" font-family="Helvetica,sans-Serif" font-size="10.00">src/m_Do/m_Do_ext.cpp</text>
</a>
</g>
</g>
<!-- Node59&#45;&gt;Node78 -->
<g id="edge26" class="edge">
<title>Node59&#45;&gt;Node78</title>
<path fill="none" stroke="#63b8ff" d="M2559.84,-267.27C2533.31,-260.07 2505.6,-248.05 2486,-228 2466.54,-208.09 2462.77,-173.05 2462.1,-156.77"/>
<polygon fill="#63b8ff" stroke="#63b8ff" points="2558.69,-270.59 2569.24,-269.61 2560.38,-263.79 2558.69,-270.59"/>
</g>
<!-- Node60&#45;&gt;Node7 -->
<g id="edge17" class="edge">
<title>Node60&#45;&gt;Node7</title>
<path fill="none" stroke="#63b8ff" d="M2487.48,-68.81C2493.04,-67.77 2498.63,-66.8 2504,-66 2684.17,-39.08 2899.86,-24.58 2999.11,-18.89"/>
<polygon fill="#63b8ff" stroke="#63b8ff" points="2486.81,-65.37 2477.67,-70.73 2488.16,-72.24 2486.81,-65.37"/>
</g>
<!-- Node60&#45;&gt;Node8 -->
<g id="edge18" class="edge">
<title>Node60&#45;&gt;Node8</title>
<path fill="none" stroke="#63b8ff" d="M2477.88,-67.83C2513.6,-57.2 2565.52,-41.74 2603.36,-30.48"/>
<polygon fill="#63b8ff" stroke="#63b8ff" points="2476.93,-64.46 2468.35,-70.67 2478.93,-71.17 2476.93,-64.46"/>
</g>
<!-- Node79&#45;&gt;Node78 -->
<g id="edge43" class="edge">
<title>Node79&#45;&gt;Node78</title>
<path fill="none" stroke="#63b8ff" d="M1526.64,-208.07C1747.27,-196.75 2369.64,-164.66 2391,-162 2400.97,-160.76 2411.65,-158.93 2421.61,-156.99"/>
<polygon fill="#63b8ff" stroke="#63b8ff" points="1526.5,-204.57 1516.7,-208.58 1526.86,-211.57 1526.5,-204.57"/>
</g>
<!-- Node80 -->
<g id="node27" class="node">
<title>Node80</title>
<g id="a_node27"><a xlink:href="d__attention_8h.html" target="_top" xlink:title=" ">
<polygon fill="#fff0f0" stroke="red" points="2382,-156.5 2268,-156.5 2268,-137.5 2382,-137.5 2382,-156.5"/>
<text text-anchor="middle" x="2325" y="-144.5" font-family="Helvetica,sans-Serif" font-size="10.00">include/d/d_attention.h</text>
</a>
</g>
</g>
<!-- Node79&#45;&gt;Node80 -->
<g id="edge28" class="edge">
<title>Node79&#45;&gt;Node80</title>
<path fill="none" stroke="#63b8ff" d="M1526.82,-207.9C1714.79,-197.77 2187.77,-171.7 2259,-162 2268.28,-160.74 2278.21,-158.89 2287.47,-156.96"/>
<polygon fill="#63b8ff" stroke="#63b8ff" points="1526.7,-204.4 1516.9,-208.43 1527.08,-211.39 1526.7,-204.4"/>
</g>
<!-- Node224 -->
<g id="node28" class="node">
<title>Node224</title>
<g id="a_node28"><a xlink:href="d__drawlist_8h.html" target="_top" xlink:title=" ">
<polygon fill="#fff0f0" stroke="red" points="110,-156.5 0,-156.5 0,-137.5 110,-137.5 110,-156.5"/>
<text text-anchor="middle" x="55" y="-144.5" font-family="Helvetica,sans-Serif" font-size="10.00">include/d/d_drawlist.h</text>
</a>
</g>
</g>
<!-- Node79&#45;&gt;Node224 -->
<g id="edge30" class="edge">
<title>Node79&#45;&gt;Node224</title>
<path fill="none" stroke="#63b8ff" d="M1397.79,-201.06C1390.5,-199.84 1383.08,-198.77 1376,-198 820.35,-137.86 673.74,-230.01 119,-162 109.63,-160.85 99.61,-158.98 90.34,-156.97"/>
<polygon fill="#63b8ff" stroke="#63b8ff" points="1397.13,-204.49 1407.58,-202.8 1398.35,-197.6 1397.13,-204.49"/>
</g>
<!-- Node261 -->
<g id="node29" class="node">
<title>Node261</title>
<g id="a_node29"><a xlink:href="d__ky__thunder_8h.html" target="_top" xlink:title=" ">
<polygon fill="#fff0f0" stroke="red" points="252,-156.5 128,-156.5 128,-137.5 252,-137.5 252,-156.5"/>
<text text-anchor="middle" x="190" y="-144.5" font-family="Helvetica,sans-Serif" font-size="10.00">include/d/d_ky_thunder.h</text>
</a>
</g>
</g>
<!-- Node79&#45;&gt;Node261 -->
<g id="edge31" class="edge">
<title>Node79&#45;&gt;Node261</title>
<path fill="none" stroke="#63b8ff" d="M1397.52,-201.04C1390.32,-199.83 1382.99,-198.77 1376,-198 883.16,-143.75 753.62,-218.14 261,-162 250.76,-160.83 239.8,-158.98 229.63,-156.99"/>
<polygon fill="#63b8ff" stroke="#63b8ff" points="1396.74,-204.45 1407.19,-202.75 1397.96,-197.56 1396.74,-204.45"/>
</g>
<!-- Node262 -->
<g id="node30" class="node">
<title>Node262</title>
<g id="a_node30"><a xlink:href="d__resorce_8h.html" target="_top" xlink:title=" ">
<polygon fill="#fff0f0" stroke="red" points="379.5,-156.5 270.5,-156.5 270.5,-137.5 379.5,-137.5 379.5,-156.5"/>
<text text-anchor="middle" x="325" y="-144.5" font-family="Helvetica,sans-Serif" font-size="10.00">include/d/d_resorce.h</text>
</a>
</g>
</g>
<!-- Node79&#45;&gt;Node262 -->
<g id="edge32" class="edge">
<title>Node79&#45;&gt;Node262</title>
<path fill="none" stroke="#63b8ff" d="M1397.52,-201.06C1390.31,-199.86 1382.99,-198.78 1376,-198 939.78,-149.06 824.48,-217.12 389,-162 379.75,-160.83 369.86,-158.97 360.68,-156.99"/>
<polygon fill="#63b8ff" stroke="#63b8ff" points="1396.73,-204.48 1407.19,-202.78 1397.96,-197.59 1396.73,-204.48"/>
</g>
<!-- Node263 -->
<g id="node31" class="node">
<title>Node263</title>
<g id="a_node31"><a xlink:href="d__kankyo_8h.html" target="_top" xlink:title=" ">
<polygon fill="#fff0f0" stroke="red" points="496,-162 398,-162 398,-132 496,-132 496,-162"/>
<text text-anchor="start" x="406" y="-150" font-family="Helvetica,sans-Serif" font-size="10.00">include/d/kankyo/d</text>
<text text-anchor="middle" x="447" y="-139" font-family="Helvetica,sans-Serif" font-size="10.00">_kankyo.h</text>
</a>
</g>
</g>
<!-- Node79&#45;&gt;Node263 -->
<g id="edge33" class="edge">
<title>Node79&#45;&gt;Node263</title>
<path fill="none" stroke="#63b8ff" d="M1397,-201.01C1389.96,-199.83 1382.82,-198.78 1376,-198 991.08,-153.87 888.7,-215.71 505,-162 502.13,-161.6 499.19,-161.12 496.23,-160.58"/>
<polygon fill="#63b8ff" stroke="#63b8ff" points="1396.34,-204.45 1406.8,-202.74 1397.56,-197.55 1396.34,-204.45"/>
</g>
<!-- Node228 -->
<g id="node32" class="node">
<title>Node228</title>
<g id="a_node32"><a xlink:href="d__a__do_8h.html" target="_top" xlink:title=" ">
<polygon fill="white" stroke="#666666" points="610,-162 514,-162 514,-132 610,-132 610,-162"/>
<text text-anchor="start" x="522" y="-150" font-family="Helvetica,sans-Serif" font-size="10.00">include/rel/d/a/d_a</text>
<text text-anchor="middle" x="562" y="-139" font-family="Helvetica,sans-Serif" font-size="10.00">_do/d_a_do.h</text>
</a>
</g>
</g>
<!-- Node79&#45;&gt;Node228 -->
<g id="edge34" class="edge">
<title>Node79&#45;&gt;Node228</title>
<path fill="none" stroke="#63b8ff" d="M1396.99,-201.05C1389.96,-199.87 1382.82,-198.8 1376,-198 1041.49,-158.6 952.33,-210.4 619,-162 616.18,-161.59 613.29,-161.1 610.38,-160.56"/>
<polygon fill="#63b8ff" stroke="#63b8ff" points="1396.33,-204.49 1406.79,-202.79 1397.56,-197.59 1396.33,-204.49"/>
</g>
<!-- Node364 -->
<g id="node33" class="node">
<title>Node364</title>
<g id="a_node33"><a xlink:href="DynamicLink_8cpp.html" target="_top" xlink:title=" ">
<polygon fill="white" stroke="#666666" points="735.5,-156.5 628.5,-156.5 628.5,-137.5 735.5,-137.5 735.5,-156.5"/>
<text text-anchor="middle" x="682" y="-144.5" font-family="Helvetica,sans-Serif" font-size="10.00">src/DynamicLink.cpp</text>
</a>
</g>
</g>
<!-- Node79&#45;&gt;Node364 -->
<g id="edge35" class="edge">
<title>Node79&#45;&gt;Node364</title>
<path fill="none" stroke="#63b8ff" d="M1396.73,-201.07C1389.77,-199.89 1382.73,-198.83 1376,-198 1096.74,-163.78 1022.61,-201.12 744,-162 735.15,-160.76 725.69,-158.9 716.9,-156.94"/>
<polygon fill="#63b8ff" stroke="#63b8ff" points="1395.94,-204.48 1406.39,-202.79 1397.16,-197.59 1395.94,-204.48"/>
</g>
<!-- Node175 -->
<g id="node34" class="node">
<title>Node175</title>
<g id="a_node34"><a xlink:href="c__dylink_8cpp.html" target="_top" xlink:title=" ">
<polygon fill="white" stroke="#666666" points="848.5,-156.5 753.5,-156.5 753.5,-137.5 848.5,-137.5 848.5,-156.5"/>
<text text-anchor="middle" x="801" y="-144.5" font-family="Helvetica,sans-Serif" font-size="10.00">src/c/c_dylink.cpp</text>
</a>
</g>
</g>
<!-- Node79&#45;&gt;Node175 -->
<g id="edge36" class="edge">
<title>Node79&#45;&gt;Node175</title>
<path fill="none" stroke="#63b8ff" d="M1396.21,-201.06C1389.42,-199.9 1382.56,-198.85 1376,-198 1146.67,-168.46 1085.37,-198.18 857,-162 849.08,-160.75 840.64,-158.91 832.78,-156.97"/>
<polygon fill="#63b8ff" stroke="#63b8ff" points="1395.53,-204.49 1405.99,-202.8 1396.76,-197.6 1395.53,-204.49"/>
</g>
<!-- Node46 -->
<g id="node35" class="node">
<title>Node46</title>
<g id="a_node35"><a xlink:href="d__pane__class_8cpp.html" target="_top" xlink:title=" ">
<polygon fill="white" stroke="#666666" points="1009.5,-156.5 866.5,-156.5 866.5,-137.5 1009.5,-137.5 1009.5,-156.5"/>
<text text-anchor="middle" x="938" y="-144.5" font-family="Helvetica,sans-Serif" font-size="10.00">src/d/pane/d_pane_class.cpp</text>
</a>
</g>
</g>
<!-- Node79&#45;&gt;Node46 -->
<g id="edge37" class="edge">
<title>Node79&#45;&gt;Node46</title>
<path fill="none" stroke="#63b8ff" d="M1394.68,-200.99C1388.39,-199.9 1382.07,-198.88 1376,-198 1217.73,-175.12 1176.42,-183.8 1018,-162 1007.52,-160.56 996.32,-158.76 985.71,-156.94"/>
<polygon fill="#63b8ff" stroke="#63b8ff" points="1393.94,-204.41 1404.4,-202.74 1395.17,-197.53 1393.94,-204.41"/>
</g>
<!-- Node365 -->
<g id="node36" class="node">
<title>Node365</title>
<g id="a_node36"><a xlink:href="d__pane__class__alpha_8cpp.html" target="_top" xlink:title=" ">
<polygon fill="white" stroke="#666666" points="1152.5,-162 1027.5,-162 1027.5,-132 1152.5,-132 1152.5,-162"/>
<text text-anchor="start" x="1035.5" y="-150" font-family="Helvetica,sans-Serif" font-size="10.00">src/d/pane/d_pane_class</text>
<text text-anchor="middle" x="1090" y="-139" font-family="Helvetica,sans-Serif" font-size="10.00">_alpha.cpp</text>
</a>
</g>
</g>
<!-- Node79&#45;&gt;Node365 -->
<g id="edge38" class="edge">
<title>Node79&#45;&gt;Node365</title>
<path fill="none" stroke="#63b8ff" d="M1392.24,-200.95C1386.75,-199.94 1381.27,-198.94 1376,-198 1280.62,-180.99 1256.32,-179.37 1161,-162 1158.28,-161.5 1155.5,-160.99 1152.7,-160.47"/>
<polygon fill="#63b8ff" stroke="#63b8ff" points="1391.49,-204.37 1401.96,-202.76 1392.77,-197.49 1391.49,-204.37"/>
</g>
<!-- Node167 -->
<g id="node37" class="node">
<title>Node167</title>
<g id="a_node37"><a xlink:href="f__op__actor__mng_8cpp.html" target="_top" xlink:title=" ">
<polygon fill="white" stroke="#666666" points="1271.5,-162 1170.5,-162 1170.5,-132 1271.5,-132 1271.5,-162"/>
<text text-anchor="start" x="1178.5" y="-150" font-family="Helvetica,sans-Serif" font-size="10.00">src/f_op/f_op_actor</text>
<text text-anchor="middle" x="1221" y="-139" font-family="Helvetica,sans-Serif" font-size="10.00">_mng.cpp</text>
</a>
</g>
</g>
<!-- Node79&#45;&gt;Node167 -->
<g id="edge39" class="edge">
<title>Node79&#45;&gt;Node167</title>
<path fill="none" stroke="#63b8ff" d="M1407.36,-200.08C1369.02,-189.37 1312.63,-173.61 1271.93,-162.23"/>
<polygon fill="#63b8ff" stroke="#63b8ff" points="1406.13,-203.37 1416.7,-202.69 1408.01,-196.63 1406.13,-203.37"/>
</g>
<!-- Node366 -->
<g id="node38" class="node">
<title>Node366</title>
<g id="a_node38"><a xlink:href="m__Do__DVDError_8cpp.html" target="_top" xlink:title=" ">
<polygon fill="white" stroke="#666666" points="1440.5,-156.5 1289.5,-156.5 1289.5,-137.5 1440.5,-137.5 1440.5,-156.5"/>
<text text-anchor="middle" x="1365" y="-144.5" font-family="Helvetica,sans-Serif" font-size="10.00">src/m_Do/m_Do_DVDError.cpp</text>
</a>
</g>
</g>
<!-- Node79&#45;&gt;Node366 -->
<g id="edge40" class="edge">
<title>Node79&#45;&gt;Node366</title>
<path fill="none" stroke="#63b8ff" d="M1429.27,-196.39C1412.76,-183.96 1390.25,-167.01 1376.72,-156.82"/>
<polygon fill="#63b8ff" stroke="#63b8ff" points="1426.88,-198.97 1436.97,-202.19 1431.09,-193.38 1426.88,-198.97"/>
</g>
<!-- Node367 -->
<g id="node39" class="node">
<title>Node367</title>
<g id="a_node39"><a xlink:href="m__Do__MemCard_8cpp.html" target="_top" xlink:title=" ">
<polygon fill="white" stroke="#666666" points="1611,-156.5 1459,-156.5 1459,-137.5 1611,-137.5 1611,-156.5"/>
<text text-anchor="middle" x="1535" y="-144.5" font-family="Helvetica,sans-Serif" font-size="10.00">src/m_Do/m_Do_MemCard.cpp</text>
</a>
</g>
</g>
<!-- Node79&#45;&gt;Node367 -->
<g id="edge41" class="edge">
<title>Node79&#45;&gt;Node367</title>
<path fill="none" stroke="#63b8ff" d="M1470.73,-196.39C1487.24,-183.96 1509.75,-167.01 1523.28,-156.82"/>
<polygon fill="#63b8ff" stroke="#63b8ff" points="1468.91,-193.38 1463.03,-202.19 1473.12,-198.97 1468.91,-193.38"/>
</g>
<!-- Node368 -->
<g id="node40" class="node">
<title>Node368</title>
<g id="a_node40"><a xlink:href="m__Do__dvd__thread_8cpp.html" target="_top" xlink:title=" ">
<polygon fill="white" stroke="#666666" points="1787,-156.5 1629,-156.5 1629,-137.5 1787,-137.5 1787,-156.5"/>
<text text-anchor="middle" x="1708" y="-144.5" font-family="Helvetica,sans-Serif" font-size="10.00">src/m_Do/m_Do_dvd_thread.cpp</text>
</a>
</g>
</g>
<!-- Node79&#45;&gt;Node368 -->
<g id="edge42" class="edge">
<title>Node79&#45;&gt;Node368</title>
<path fill="none" stroke="#63b8ff" d="M1497.07,-200.32C1547.51,-187.81 1626.45,-168.23 1672.1,-156.91"/>
<polygon fill="#63b8ff" stroke="#63b8ff" points="1496.48,-196.86 1487.61,-202.67 1498.16,-203.66 1496.48,-196.86"/>
</g>
<!-- Node369 -->
<g id="node41" class="node">
<title>Node369</title>
<g id="a_node41"><a xlink:href="m__Do__machine_8cpp.html" target="_top" xlink:title=" ">
<polygon fill="white" stroke="#666666" points="1952.5,-156.5 1805.5,-156.5 1805.5,-137.5 1952.5,-137.5 1952.5,-156.5"/>
<text text-anchor="middle" x="1879" y="-144.5" font-family="Helvetica,sans-Serif" font-size="10.00">src/m_Do/m_Do_machine.cpp</text>
</a>
</g>
</g>
<!-- Node79&#45;&gt;Node369 -->
<g id="edge44" class="edge">
<title>Node79&#45;&gt;Node369</title>
<path fill="none" stroke="#63b8ff" d="M1526.81,-201.43C1596.97,-191.65 1703.56,-176.47 1796,-162 1806.11,-160.42 1816.89,-158.65 1827.23,-156.93"/>
<polygon fill="#63b8ff" stroke="#63b8ff" points="1526.36,-197.96 1516.93,-202.8 1527.32,-204.89 1526.36,-197.96"/>
</g>
<!-- Node221 -->
<g id="node42" class="node">
<title>Node221</title>
<g id="a_node42"><a xlink:href="m__Do__machine__exception_8cpp.html" target="_top" xlink:title=" ">
<polygon fill="white" stroke="#666666" points="2099.5,-162 1970.5,-162 1970.5,-132 2099.5,-132 2099.5,-162"/>
<text text-anchor="start" x="1978.5" y="-150" font-family="Helvetica,sans-Serif" font-size="10.00">src/m_Do/m_Do_machine</text>
<text text-anchor="middle" x="2035" y="-139" font-family="Helvetica,sans-Serif" font-size="10.00">_exception.cpp</text>
</a>
</g>
</g>
<!-- Node79&#45;&gt;Node221 -->
<g id="edge45" class="edge">
<title>Node79&#45;&gt;Node221</title>
<path fill="none" stroke="#63b8ff" d="M1526.37,-206.67C1626.48,-199.19 1807.43,-184 1961,-162 1963.98,-161.57 1967.02,-161.11 1970.08,-160.62"/>
<polygon fill="#63b8ff" stroke="#63b8ff" points="1526.38,-203.16 1516.67,-207.39 1526.9,-210.14 1526.38,-203.16"/>
</g>
<!-- Node370 -->
<g id="node43" class="node">
<title>Node370</title>
<g id="a_node43"><a xlink:href="m__Do__printf_8cpp.html" target="_top" xlink:title=" ">
<polygon fill="white" stroke="#666666" points="2250,-156.5 2118,-156.5 2118,-137.5 2250,-137.5 2250,-156.5"/>
<text text-anchor="middle" x="2184" y="-144.5" font-family="Helvetica,sans-Serif" font-size="10.00">src/m_Do/m_Do_printf.cpp</text>
</a>
</g>
</g>
<!-- Node79&#45;&gt;Node370 -->
<g id="edge46" class="edge">
<title>Node79&#45;&gt;Node370</title>
<path fill="none" stroke="#63b8ff" d="M1526.28,-208.84C1649.16,-203.16 1898.39,-189.19 2108,-162 2118.38,-160.65 2129.49,-158.83 2139.92,-156.94"/>
<polygon fill="#63b8ff" stroke="#63b8ff" points="1526.49,-205.33 1516.66,-209.28 1526.8,-212.32 1526.49,-205.33"/>
</g>
<!-- Node80&#45;&gt;Node60 -->
<g id="edge29" class="edge">
<title>Node80&#45;&gt;Node60</title>
<path fill="none" stroke="#63b8ff" d="M2350.51,-131.42C2372.4,-118.92 2403.23,-101.3 2421.56,-90.82"/>
<polygon fill="#63b8ff" stroke="#63b8ff" points="2348.83,-128.35 2341.89,-136.35 2352.31,-134.43 2348.83,-128.35"/>
</g>
<!-- Node373 -->
<g id="node46" class="node">
<title>Node373</title>
<g id="a_node46"><a xlink:href="J3DSkinDeform_8h.html" target="_top" xlink:title=" ">
<polygon fill="white" stroke="#666666" points="1804.5,-360 1669.5,-360 1669.5,-330 1804.5,-330 1804.5,-360"/>
<text text-anchor="start" x="1677.5" y="-348" font-family="Helvetica,sans-Serif" font-size="10.00">include/JSystem/J3DGraph</text>
<text text-anchor="middle" x="1737" y="-337" font-family="Helvetica,sans-Serif" font-size="10.00">Animator/J3DSkinDeform.h</text>
</a>
</g>
</g>
<!-- Node372&#45;&gt;Node373 -->
<g id="edge49" class="edge">
<title>Node372&#45;&gt;Node373</title>
<path fill="none" stroke="#63b8ff" d="M2275.09,-401.82C2152.91,-389.14 1920.04,-364.99 1804.91,-353.04"/>
<polygon fill="#63b8ff" stroke="#63b8ff" points="2274.39,-405.26 2284.7,-402.81 2275.11,-398.3 2274.39,-405.26"/>
</g>
<!-- Node380 -->
<g id="node49" class="node">
<title>Node380</title>
<g id="a_node49"><a xlink:href="J3DMtxBuffer_8cpp.html" target="_top" xlink:title=" ">
<polygon fill="white" stroke="#666666" points="2433,-360 2275,-360 2275,-330 2433,-330 2433,-360"/>
<text text-anchor="start" x="2283" y="-348" font-family="Helvetica,sans-Serif" font-size="10.00">libs/JSystem/J3DGraphAnimator</text>
<text text-anchor="middle" x="2354" y="-337" font-family="Helvetica,sans-Serif" font-size="10.00">/J3DMtxBuffer.cpp</text>
</a>
</g>
</g>
<!-- Node372&#45;&gt;Node380 -->
<g id="edge56" class="edge">
<title>Node372&#45;&gt;Node380</title>
<path fill="none" stroke="#63b8ff" d="M2354,-384.39C2354,-376.13 2354,-367.28 2354,-360.16"/>
<polygon fill="#63b8ff" stroke="#63b8ff" points="2350.5,-384.28 2354,-394.28 2357.5,-384.28 2350.5,-384.28"/>
</g>
<!-- Node374 -->
<g id="node47" class="node">
<title>Node374</title>
<g id="a_node47"><a xlink:href="J3DModel_8h.html" target="_top" xlink:title=" ">
<polygon fill="#fff0f0" stroke="red" points="1804.5,-294 1669.5,-294 1669.5,-264 1804.5,-264 1804.5,-294"/>
<text text-anchor="start" x="1677.5" y="-282" font-family="Helvetica,sans-Serif" font-size="10.00">include/JSystem/J3DGraph</text>
<text text-anchor="middle" x="1737" y="-271" font-family="Helvetica,sans-Serif" font-size="10.00">Animator/J3DModel.h</text>
</a>
</g>
</g>
<!-- Node373&#45;&gt;Node374 -->
<g id="edge50" class="edge">
<title>Node373&#45;&gt;Node374</title>
<path fill="none" stroke="#63b8ff" d="M1737,-318.39C1737,-310.13 1737,-301.28 1737,-294.16"/>
<polygon fill="#63b8ff" stroke="#63b8ff" points="1733.5,-318.28 1737,-328.28 1740.5,-318.28 1733.5,-318.28"/>
</g>
<!-- Node377 -->
<g id="node48" class="node">
<title>Node377</title>
<g id="a_node48"><a xlink:href="J3DSkinDeform_8cpp.html" target="_top" xlink:title=" ">
<polygon fill="white" stroke="#666666" points="1367,-228 1209,-228 1209,-198 1367,-198 1367,-228"/>
<text text-anchor="start" x="1217" y="-216" font-family="Helvetica,sans-Serif" font-size="10.00">libs/JSystem/J3DGraphAnimator</text>
<text text-anchor="middle" x="1288" y="-205" font-family="Helvetica,sans-Serif" font-size="10.00">/J3DSkinDeform.cpp</text>
</a>
</g>
</g>
<!-- Node373&#45;&gt;Node377 -->
<g id="edge55" class="edge">
<title>Node373&#45;&gt;Node377</title>
<path fill="none" stroke="#63b8ff" d="M1669.66,-326.74C1633.75,-317.38 1588.87,-305.41 1549,-294 1472.91,-272.23 1385.02,-244.82 1333.11,-228.39"/>
<polygon fill="#63b8ff" stroke="#63b8ff" points="1668.47,-330.05 1679.03,-329.18 1670.24,-323.28 1668.47,-330.05"/>
</g>
<!-- Node374&#45;&gt;Node72 -->
<g id="edge52" class="edge">
<title>Node374&#45;&gt;Node72</title>
<path fill="none" stroke="#63b8ff" d="M1763.96,-256.7C1775.73,-247.4 1789.23,-236.73 1799.79,-228.39"/>
<polygon fill="#63b8ff" stroke="#63b8ff" points="1761.84,-253.91 1756.16,-262.86 1766.18,-259.4 1761.84,-253.91"/>
</g>
<!-- Node374&#45;&gt;Node75 -->
<g id="edge53" class="edge">
<title>Node374&#45;&gt;Node75</title>
<path fill="none" stroke="#63b8ff" d="M1816.25,-267.81C1909.26,-255.86 2062.57,-236.16 2155.63,-224.2"/>
<polygon fill="#63b8ff" stroke="#63b8ff" points="1815.91,-264.33 1806.44,-269.08 1816.81,-271.27 1815.91,-264.33"/>
</g>
<!-- Node374&#45;&gt;Node79 -->
<g id="edge51" class="edge">
<title>Node374&#45;&gt;Node79</title>
<path fill="none" stroke="#63b8ff" d="M1661.16,-261.09C1606.31,-248.86 1534.36,-232.81 1490.19,-222.96"/>
<polygon fill="#63b8ff" stroke="#63b8ff" points="1660.23,-264.47 1670.76,-263.23 1661.76,-257.64 1660.23,-264.47"/>
</g>
<!-- Node374&#45;&gt;Node377 -->
<g id="edge54" class="edge">
<title>Node374&#45;&gt;Node377</title>
<path fill="none" stroke="#63b8ff" d="M1657.67,-267.48C1584.48,-257.66 1472.83,-242.41 1376,-228 1373.09,-227.57 1370.13,-227.12 1367.14,-226.67"/>
<polygon fill="#63b8ff" stroke="#63b8ff" points="1657.2,-270.95 1667.58,-268.81 1658.13,-264.01 1657.2,-270.95"/>
</g>
</g>
</svg>
