<?xml version="1.0" encoding="UTF-8" standalone="no"?>
<!DOCTYPE svg PUBLIC "-//W3C//DTD SVG 1.1//EN"
 "http://www.w3.org/Graphics/SVG/1.1/DTD/svg11.dtd">
<!-- Generated by graphviz version 7.0.5 (20221223.1930)
 -->
<!-- Title: include/JSystem/J3DGraphBase/J3DShapeMtx.h Pages: 1 -->
<svg width="3779pt" height="555pt"
 viewBox="0.00 0.00 3779.00 555.00" xmlns="http://www.w3.org/2000/svg" xmlns:xlink="http://www.w3.org/1999/xlink">
<g id="graph0" class="graph" transform="scale(1 1) rotate(0) translate(4 551)">
<title>include/JSystem/J3DGraphBase/J3DShapeMtx.h</title>
<!-- Node1 -->
<g id="node1" class="node">
<title>Node1</title>
<g id="a_node1"><a xlink:title=" ">
<polygon fill="#999999" stroke="#666666" points="1880.5,-547 1745.5,-547 1745.5,-517 1880.5,-517 1880.5,-547"/>
<text text-anchor="start" x="1753.5" y="-535" font-family="Helvetica,sans-Serif" font-size="10.00">include/JSystem/J3DGraph</text>
<text text-anchor="middle" x="1813" y="-524" font-family="Helvetica,sans-Serif" font-size="10.00">Base/J3DShapeMtx.h</text>
</a>
</g>
</g>
<!-- Node2 -->
<g id="node2" class="node">
<title>Node2</title>
<g id="a_node2"><a xlink:href="J3DShape_8h.html" target="_top" xlink:title=" ">
<polygon fill="white" stroke="#666666" points="1880.5,-481 1745.5,-481 1745.5,-451 1880.5,-451 1880.5,-481"/>
<text text-anchor="start" x="1753.5" y="-469" font-family="Helvetica,sans-Serif" font-size="10.00">include/JSystem/J3DGraph</text>
<text text-anchor="middle" x="1813" y="-458" font-family="Helvetica,sans-Serif" font-size="10.00">Base/J3DShape.h</text>
</a>
</g>
</g>
<!-- Node1&#45;&gt;Node2 -->
<g id="edge1" class="edge">
<title>Node1&#45;&gt;Node2</title>
<path fill="none" stroke="#63b8ff" d="M1813,-505.39C1813,-497.13 1813,-488.28 1813,-481.16"/>
<polygon fill="#63b8ff" stroke="#63b8ff" points="1809.5,-505.28 1813,-515.28 1816.5,-505.28 1809.5,-505.28"/>
</g>
<!-- Node288 -->
<g id="node36" class="node">
<title>Node288</title>
<g id="a_node36"><a xlink:href="J3DPacket_8cpp.html" target="_top" xlink:title=" ">
<polygon fill="white" stroke="#666666" points="2419,-217 2277,-217 2277,-187 2419,-187 2419,-217"/>
<text text-anchor="start" x="2285" y="-205" font-family="Helvetica,sans-Serif" font-size="10.00">libs/JSystem/J3DGraphBase</text>
<text text-anchor="middle" x="2348" y="-194" font-family="Helvetica,sans-Serif" font-size="10.00">/J3DPacket.cpp</text>
</a>
</g>
</g>
<!-- Node1&#45;&gt;Node288 -->
<g id="edge70" class="edge">
<title>Node1&#45;&gt;Node288</title>
<path fill="none" stroke="#63b8ff" d="M1892.09,-526.77C2033.03,-517.04 2313,-486.91 2313,-401 2313,-401 2313,-401 2313,-333 2313,-289.76 2331.28,-241.13 2341.42,-217.47"/>
<polygon fill="#63b8ff" stroke="#63b8ff" points="1892.21,-523.25 1882.46,-527.41 1892.67,-530.23 1892.21,-523.25"/>
</g>
<!-- Node289 -->
<g id="node37" class="node">
<title>Node289</title>
<g id="a_node37"><a xlink:href="J3DShapeMtx_8cpp.html" target="_top" xlink:title=" ">
<polygon fill="white" stroke="#666666" points="910,-217 768,-217 768,-187 910,-187 910,-217"/>
<text text-anchor="start" x="776" y="-205" font-family="Helvetica,sans-Serif" font-size="10.00">libs/JSystem/J3DGraphBase</text>
<text text-anchor="middle" x="839" y="-194" font-family="Helvetica,sans-Serif" font-size="10.00">/J3DShapeMtx.cpp</text>
</a>
</g>
</g>
<!-- Node1&#45;&gt;Node289 -->
<g id="edge71" class="edge">
<title>Node1&#45;&gt;Node289</title>
<path fill="none" stroke="#63b8ff" d="M1733.88,-520.25C1622.52,-502.87 1433,-464.03 1433,-401 1433,-401 1433,-401 1433,-333 1433,-319.76 1068.18,-247.43 910.36,-216.76"/>
<polygon fill="#63b8ff" stroke="#63b8ff" points="1733.15,-523.68 1743.57,-521.74 1734.21,-516.76 1733.15,-523.68"/>
</g>
<!-- Node3 -->
<g id="node3" class="node">
<title>Node3</title>
<g id="a_node3"><a xlink:href="J3DModel_8h.html" target="_top" xlink:title=" ">
<polygon fill="white" stroke="#666666" points="1891.5,-283 1756.5,-283 1756.5,-253 1891.5,-253 1891.5,-283"/>
<text text-anchor="start" x="1764.5" y="-271" font-family="Helvetica,sans-Serif" font-size="10.00">include/JSystem/J3DGraph</text>
<text text-anchor="middle" x="1824" y="-260" font-family="Helvetica,sans-Serif" font-size="10.00">Animator/J3DModel.h</text>
</a>
</g>
</g>
<!-- Node2&#45;&gt;Node3 -->
<g id="edge2" class="edge">
<title>Node2&#45;&gt;Node3</title>
<path fill="none" stroke="#63b8ff" d="M1814.45,-439.22C1816.79,-397.46 1821.34,-316.37 1823.19,-283.43"/>
<polygon fill="#63b8ff" stroke="#63b8ff" points="1810.96,-438.9 1813.89,-449.08 1817.95,-439.29 1810.96,-438.9"/>
</g>
<!-- Node118 -->
<g id="node15" class="node">
<title>Node118</title>
<g id="a_node15"><a xlink:href="d__drawlist_8cpp.html" target="_top" xlink:title=" ">
<polygon fill="white" stroke="#666666" points="1192,-85 1088,-85 1088,-66 1192,-66 1192,-85"/>
<text text-anchor="middle" x="1140" y="-73" font-family="Helvetica,sans-Serif" font-size="10.00">src/d/d_drawlist.cpp</text>
</a>
</g>
</g>
<!-- Node2&#45;&gt;Node118 -->
<g id="edge69" class="edge">
<title>Node2&#45;&gt;Node118</title>
<path fill="none" stroke="#63b8ff" d="M1733.74,-463.53C1384.48,-456.53 0,-423.24 0,-335 0,-335 0,-335 0,-201 0,-157.34 18.61,-141.79 57,-121 102.74,-96.23 877.49,-81.05 1087.73,-77.37"/>
<polygon fill="#63b8ff" stroke="#63b8ff" points="1733.66,-467.03 1743.72,-463.73 1733.8,-460.03 1733.66,-467.03"/>
</g>
<!-- Node2&#45;&gt;Node288 -->
<g id="edge66" class="edge">
<title>Node2&#45;&gt;Node288</title>
<path fill="none" stroke="#63b8ff" d="M1892.03,-459.99C1946.33,-454.22 2018.99,-441.78 2078,-415 2135.53,-388.89 2282.94,-260.64 2331.91,-217.32"/>
<polygon fill="#63b8ff" stroke="#63b8ff" points="1891.84,-456.5 1882.23,-460.98 1892.53,-463.46 1891.84,-456.5"/>
</g>
<!-- Node290 -->
<g id="node38" class="node">
<title>Node290</title>
<g id="a_node38"><a xlink:href="J3DShapeTable_8h.html" target="_top" xlink:title=" ">
<polygon fill="white" stroke="#666666" points="2069.5,-415 1934.5,-415 1934.5,-385 2069.5,-385 2069.5,-415"/>
<text text-anchor="start" x="1942.5" y="-403" font-family="Helvetica,sans-Serif" font-size="10.00">include/JSystem/J3DGraph</text>
<text text-anchor="middle" x="2002" y="-392" font-family="Helvetica,sans-Serif" font-size="10.00">Animator/J3DShapeTable.h</text>
</a>
</g>
</g>
<!-- Node2&#45;&gt;Node290 -->
<g id="edge41" class="edge">
<title>Node2&#45;&gt;Node290</title>
<path fill="none" stroke="#63b8ff" d="M1865.96,-447.07C1895.47,-437.07 1931.74,-424.79 1959.4,-415.43"/>
<polygon fill="#63b8ff" stroke="#63b8ff" points="1865.2,-443.63 1856.85,-450.15 1867.44,-450.26 1865.2,-443.63"/>
</g>
<!-- Node327 -->
<g id="node44" class="node">
<title>Node327</title>
<g id="a_node44"><a xlink:href="J3DMaterial_8h.html" target="_top" xlink:title=" ">
<polygon fill="white" stroke="#666666" points="3061.5,-283 2926.5,-283 2926.5,-253 3061.5,-253 3061.5,-283"/>
<text text-anchor="start" x="2934.5" y="-271" font-family="Helvetica,sans-Serif" font-size="10.00">include/JSystem/J3DGraph</text>
<text text-anchor="middle" x="2994" y="-260" font-family="Helvetica,sans-Serif" font-size="10.00">Base/J3DMaterial.h</text>
</a>
</g>
</g>
<!-- Node2&#45;&gt;Node327 -->
<g id="edge52" class="edge">
<title>Node2&#45;&gt;Node327</title>
<path fill="none" stroke="#63b8ff" d="M1891.97,-457.18C1976,-448.48 2112.72,-433.21 2230,-415 2488.87,-374.79 2794.14,-311.68 2926.82,-283.47"/>
<polygon fill="#63b8ff" stroke="#63b8ff" points="1891.82,-453.68 1882.23,-458.19 1892.54,-460.64 1891.82,-453.68"/>
</g>
<!-- Node330 -->
<g id="node49" class="node">
<title>Node330</title>
<g id="a_node49"><a xlink:href="J3DShape_8cpp.html" target="_top" xlink:title=" ">
<polygon fill="white" stroke="#666666" points="1617,-415 1475,-415 1475,-385 1617,-385 1617,-415"/>
<text text-anchor="start" x="1483" y="-403" font-family="Helvetica,sans-Serif" font-size="10.00">libs/JSystem/J3DGraphBase</text>
<text text-anchor="middle" x="1546" y="-392" font-family="Helvetica,sans-Serif" font-size="10.00">/J3DShape.cpp</text>
</a>
</g>
</g>
<!-- Node2&#45;&gt;Node330 -->
<g id="edge67" class="edge">
<title>Node2&#45;&gt;Node330</title>
<path fill="none" stroke="#63b8ff" d="M1741.67,-447.9C1699.32,-437.75 1646.23,-425.02 1606.03,-415.39"/>
<polygon fill="#63b8ff" stroke="#63b8ff" points="1740.73,-451.28 1751.28,-450.2 1742.37,-444.47 1740.73,-451.28"/>
</g>
<!-- Node331 -->
<g id="node50" class="node">
<title>Node331</title>
<g id="a_node50"><a xlink:href="J3DShapeFactory_8cpp.html" target="_top" xlink:title=" ">
<polygon fill="white" stroke="#666666" points="1784.5,-415 1635.5,-415 1635.5,-385 1784.5,-385 1784.5,-415"/>
<text text-anchor="start" x="1643.5" y="-403" font-family="Helvetica,sans-Serif" font-size="10.00">libs/JSystem/J3DGraphLoader</text>
<text text-anchor="middle" x="1710" y="-392" font-family="Helvetica,sans-Serif" font-size="10.00">/J3DShapeFactory.cpp</text>
</a>
</g>
</g>
<!-- Node2&#45;&gt;Node331 -->
<g id="edge68" class="edge">
<title>Node2&#45;&gt;Node331</title>
<path fill="none" stroke="#63b8ff" d="M1780.23,-444.64C1764.87,-435.09 1746.94,-423.95 1733.04,-415.31"/>
<polygon fill="#63b8ff" stroke="#63b8ff" points="1778.26,-447.53 1788.6,-449.84 1781.95,-441.59 1778.26,-447.53"/>
</g>
<!-- Node4 -->
<g id="node4" class="node">
<title>Node4</title>
<g id="a_node4"><a xlink:href="d__jnt__col_8h.html" target="_top" xlink:title=" ">
<polygon fill="white" stroke="#666666" points="1149.5,-211.5 1044.5,-211.5 1044.5,-192.5 1149.5,-192.5 1149.5,-211.5"/>
<text text-anchor="middle" x="1097" y="-199.5" font-family="Helvetica,sans-Serif" font-size="10.00">include/d/d_jnt_col.h</text>
</a>
</g>
</g>
<!-- Node3&#45;&gt;Node4 -->
<g id="edge3" class="edge">
<title>Node3&#45;&gt;Node4</title>
<path fill="none" stroke="#63b8ff" d="M1744.94,-260.04C1595.65,-246.9 1275.91,-218.75 1149.75,-207.64"/>
<polygon fill="#63b8ff" stroke="#63b8ff" points="1744.48,-263.51 1754.75,-260.9 1745.1,-256.54 1744.48,-263.51"/>
</g>
<!-- Node16 -->
<g id="node10" class="node">
<title>Node16</title>
<g id="a_node10"><a xlink:href="d__simple__model_8h.html" target="_top" xlink:title=" ">
<polygon fill="white" stroke="#666666" points="1026,-217 928,-217 928,-187 1026,-187 1026,-217"/>
<text text-anchor="start" x="936" y="-205" font-family="Helvetica,sans-Serif" font-size="10.00">include/d/d_simple</text>
<text text-anchor="middle" x="977" y="-194" font-family="Helvetica,sans-Serif" font-size="10.00">_model.h</text>
</a>
</g>
</g>
<!-- Node3&#45;&gt;Node16 -->
<g id="edge9" class="edge">
<title>Node3&#45;&gt;Node16</title>
<path fill="none" stroke="#63b8ff" d="M1745.11,-261.49C1707.01,-258.86 1660.63,-255.7 1619,-253 1359.5,-236.14 1292.16,-255.66 1035,-217 1032.13,-216.57 1029.2,-216.06 1026.24,-215.51"/>
<polygon fill="#63b8ff" stroke="#63b8ff" points="1744.41,-264.95 1754.63,-262.15 1744.9,-257.97 1744.41,-264.95"/>
</g>
<!-- Node18 -->
<g id="node12" class="node">
<title>Node18</title>
<g id="a_node12"><a xlink:href="m__Do__ext_8h.html" target="_top" xlink:title=" ">
<polygon fill="white" stroke="#666666" points="1911,-211.5 1781,-211.5 1781,-192.5 1911,-192.5 1911,-211.5"/>
<text text-anchor="middle" x="1846" y="-199.5" font-family="Helvetica,sans-Serif" font-size="10.00">include/m_Do/m_Do_ext.h</text>
</a>
</g>
</g>
<!-- Node3&#45;&gt;Node18 -->
<g id="edge12" class="edge">
<title>Node3&#45;&gt;Node18</title>
<path fill="none" stroke="#63b8ff" d="M1832.62,-241.93C1836.27,-231.31 1840.29,-219.61 1842.96,-211.84"/>
<polygon fill="#63b8ff" stroke="#63b8ff" points="1829.32,-240.77 1829.37,-251.36 1835.94,-243.05 1829.32,-240.77"/>
</g>
<!-- Node286 -->
<g id="node34" class="node">
<title>Node286</title>
<g id="a_node34"><a xlink:href="J3DJoint_8cpp.html" target="_top" xlink:title=" ">
<polygon fill="white" stroke="#666666" points="2595,-217 2437,-217 2437,-187 2595,-187 2595,-217"/>
<text text-anchor="start" x="2445" y="-205" font-family="Helvetica,sans-Serif" font-size="10.00">libs/JSystem/J3DGraphAnimator</text>
<text text-anchor="middle" x="2516" y="-194" font-family="Helvetica,sans-Serif" font-size="10.00">/J3DJoint.cpp</text>
</a>
</g>
</g>
<!-- Node3&#45;&gt;Node286 -->
<g id="edge37" class="edge">
<title>Node3&#45;&gt;Node286</title>
<path fill="none" stroke="#63b8ff" d="M1903.08,-252.71C2135.32,-224.26 2197.94,-243.09 2428,-217 2430.92,-216.67 2433.89,-216.31 2436.89,-215.93"/>
<polygon fill="#63b8ff" stroke="#63b8ff" points="1902.89,-249.2 1893.4,-253.91 1903.75,-256.15 1902.89,-249.2"/>
</g>
<!-- Node287 -->
<g id="node35" class="node">
<title>Node287</title>
<g id="a_node35"><a xlink:href="J3DModel_8cpp.html" target="_top" xlink:title=" ">
<polygon fill="white" stroke="#666666" points="2259,-217 2101,-217 2101,-187 2259,-187 2259,-217"/>
<text text-anchor="start" x="2109" y="-205" font-family="Helvetica,sans-Serif" font-size="10.00">libs/JSystem/J3DGraphAnimator</text>
<text text-anchor="middle" x="2180" y="-194" font-family="Helvetica,sans-Serif" font-size="10.00">/J3DModel.cpp</text>
</a>
</g>
</g>
<!-- Node3&#45;&gt;Node287 -->
<g id="edge38" class="edge">
<title>Node3&#45;&gt;Node287</title>
<path fill="none" stroke="#63b8ff" d="M1903.05,-252.45C1975.12,-239.4 2047.29,-226.53 2100.63,-217.06"/>
<polygon fill="#63b8ff" stroke="#63b8ff" points="1902.65,-248.97 1893.44,-254.19 1903.9,-255.85 1902.65,-248.97"/>
</g>
<!-- Node3&#45;&gt;Node288 -->
<g id="edge39" class="edge">
<title>Node3&#45;&gt;Node288</title>
<path fill="none" stroke="#63b8ff" d="M1903.23,-252.62C2064.7,-230.49 2108.82,-238.68 2268,-217 2270.79,-216.62 2273.64,-216.21 2276.51,-215.79"/>
<polygon fill="#63b8ff" stroke="#63b8ff" points="1902.83,-249.14 1893.41,-253.99 1903.79,-256.08 1902.83,-249.14"/>
</g>
<!-- Node3&#45;&gt;Node289 -->
<g id="edge40" class="edge">
<title>Node3&#45;&gt;Node289</title>
<path fill="none" stroke="#63b8ff" d="M1745.12,-261.3C1707.03,-258.63 1660.65,-255.49 1619,-253 1308.03,-234.39 1228.56,-251.91 919,-217 916.2,-216.68 913.35,-216.33 910.47,-215.95"/>
<polygon fill="#63b8ff" stroke="#63b8ff" points="1744.42,-264.76 1754.64,-261.97 1744.91,-257.78 1744.42,-264.76"/>
</g>
<!-- Node5 -->
<g id="node5" class="node">
<title>Node5</title>
<g id="a_node5"><a xlink:href="d__a__alink_8h.html" target="_top" xlink:title=" ">
<polygon fill="#fff0f0" stroke="red" points="2539,-85 2423,-85 2423,-66 2539,-66 2539,-85"/>
<text text-anchor="middle" x="2481" y="-73" font-family="Helvetica,sans-Serif" font-size="10.00">include/d/a/d_a_alink.h</text>
</a>
</g>
</g>
<!-- Node4&#45;&gt;Node5 -->
<g id="edge4" class="edge">
<title>Node4&#45;&gt;Node5</title>
<path fill="none" stroke="#63b8ff" d="M1050.51,-189.68C1045.3,-188.65 1040.05,-187.73 1035,-187 912.29,-169.27 394.31,-209.64 481,-121 515.84,-85.37 2096.44,-77.86 2422.53,-76.69"/>
<polygon fill="#63b8ff" stroke="#63b8ff" points="1049.78,-193.1 1060.29,-191.73 1051.22,-186.25 1049.78,-193.1"/>
</g>
<!-- Node14 -->
<g id="node8" class="node">
<title>Node14</title>
<g id="a_node8"><a xlink:href="d__cc__s_8cpp.html" target="_top" xlink:title=" ">
<polygon fill="white" stroke="#666666" points="434,-145.5 330,-145.5 330,-126.5 434,-126.5 434,-145.5"/>
<text text-anchor="middle" x="382" y="-133.5" font-family="Helvetica,sans-Serif" font-size="10.00">src/d/cc/d_cc_s.cpp</text>
</a>
</g>
</g>
<!-- Node4&#45;&gt;Node14 -->
<g id="edge7" class="edge">
<title>Node4&#45;&gt;Node14</title>
<path fill="none" stroke="#63b8ff" d="M1050.52,-189.66C1045.3,-188.64 1040.05,-187.72 1035,-187 776.24,-150.09 707,-186.21 448,-151 438.71,-149.74 428.79,-147.9 419.53,-145.96"/>
<polygon fill="#63b8ff" stroke="#63b8ff" points="1049.79,-193.08 1060.29,-191.7 1051.22,-186.23 1049.79,-193.08"/>
</g>
<!-- Node15 -->
<g id="node9" class="node">
<title>Node15</title>
<g id="a_node9"><a xlink:href="d__jnt__col_8cpp.html" target="_top" xlink:title=" ">
<polygon fill="white" stroke="#666666" points="312,-145.5 214,-145.5 214,-126.5 312,-126.5 312,-145.5"/>
<text text-anchor="middle" x="263" y="-133.5" font-family="Helvetica,sans-Serif" font-size="10.00">src/d/d_jnt_col.cpp</text>
</a>
</g>
</g>
<!-- Node4&#45;&gt;Node15 -->
<g id="edge8" class="edge">
<title>Node4&#45;&gt;Node15</title>
<path fill="none" stroke="#63b8ff" d="M1051.15,-189.72C1045.73,-188.66 1040.26,-187.72 1035,-187 720.21,-143.85 635.47,-196.47 321,-151 312.7,-149.8 303.84,-147.96 295.61,-146"/>
<polygon fill="#63b8ff" stroke="#63b8ff" points="1050.12,-193.08 1060.63,-191.71 1051.56,-186.23 1050.12,-193.08"/>
</g>
<!-- Node6 -->
<g id="node6" class="node">
<title>Node6</title>
<g id="a_node6"><a xlink:href="d__a__alink_8cpp.html" target="_top" xlink:title=" ">
<polygon fill="white" stroke="#666666" points="2998.5,-24.5 2889.5,-24.5 2889.5,-5.5 2998.5,-5.5 2998.5,-24.5"/>
<text text-anchor="middle" x="2944" y="-12.5" font-family="Helvetica,sans-Serif" font-size="10.00">src/d/a/d_a_alink.cpp</text>
</a>
</g>
</g>
<!-- Node5&#45;&gt;Node6 -->
<g id="edge5" class="edge">
<title>Node5&#45;&gt;Node6</title>
<path fill="none" stroke="#63b8ff" d="M2550.38,-65.73C2642.92,-54.04 2804.88,-33.58 2889.3,-22.91"/>
<polygon fill="#63b8ff" stroke="#63b8ff" points="2550.15,-62.23 2540.67,-66.96 2551.03,-69.18 2550.15,-62.23"/>
</g>
<!-- Node8 -->
<g id="node7" class="node">
<title>Node8</title>
<g id="a_node7"><a xlink:href="d__com__inf__game_8cpp.html" target="_top" xlink:title=" ">
<polygon fill="white" stroke="#666666" points="2535,-30 2427,-30 2427,0 2535,0 2535,-30"/>
<text text-anchor="start" x="2435" y="-18" font-family="Helvetica,sans-Serif" font-size="10.00">src/d/com/d_com_inf</text>
<text text-anchor="middle" x="2481" y="-7" font-family="Helvetica,sans-Serif" font-size="10.00">_game.cpp</text>
</a>
</g>
</g>
<!-- Node5&#45;&gt;Node8 -->
<g id="edge6" class="edge">
<title>Node5&#45;&gt;Node8</title>
<path fill="none" stroke="#63b8ff" d="M2481,-54.51C2481,-46.49 2481,-37.43 2481,-30.11"/>
<polygon fill="#63b8ff" stroke="#63b8ff" points="2477.5,-54.35 2481,-64.35 2484.5,-54.35 2477.5,-54.35"/>
</g>
<!-- Node16&#45;&gt;Node8 -->
<g id="edge10" class="edge">
<title>Node16&#45;&gt;Node8</title>
<path fill="none" stroke="#63b8ff" d="M916.62,-187.45C805.77,-180.72 88.75,-184.11 57,-151 47.77,-141.38 47.83,-130.68 57,-121 141.3,-32.05 2076.01,-18.05 2426.74,-16.24"/>
<polygon fill="#63b8ff" stroke="#63b8ff" points="915.99,-190.91 926.26,-188.29 916.6,-183.94 915.99,-190.91"/>
</g>
<!-- Node17 -->
<g id="node11" class="node">
<title>Node17</title>
<g id="a_node11"><a xlink:href="d__simple__model_8cpp.html" target="_top" xlink:title=" ">
<polygon fill="white" stroke="#666666" points="196,-145.5 66,-145.5 66,-126.5 196,-126.5 196,-145.5"/>
<text text-anchor="middle" x="131" y="-133.5" font-family="Helvetica,sans-Serif" font-size="10.00">src/d/d_simple_model.cpp</text>
</a>
</g>
</g>
<!-- Node16&#45;&gt;Node17 -->
<g id="edge11" class="edge">
<title>Node16&#45;&gt;Node17</title>
<path fill="none" stroke="#63b8ff" d="M916.5,-186.84C602.53,-142.62 516.8,-188.18 205,-151 194.61,-149.76 183.49,-147.93 173.11,-146"/>
<polygon fill="#63b8ff" stroke="#63b8ff" points="915.87,-190.29 926.26,-188.24 916.86,-183.36 915.87,-190.29"/>
</g>
<!-- Node19 -->
<g id="node13" class="node">
<title>Node19</title>
<g id="a_node13"><a xlink:href="d__attention_8h.html" target="_top" xlink:title=" ">
<polygon fill="#fff0f0" stroke="red" points="2641,-145.5 2527,-145.5 2527,-126.5 2641,-126.5 2641,-145.5"/>
<text text-anchor="middle" x="2584" y="-133.5" font-family="Helvetica,sans-Serif" font-size="10.00">include/d/d_attention.h</text>
</a>
</g>
</g>
<!-- Node18&#45;&gt;Node19 -->
<g id="edge13" class="edge">
<title>Node18&#45;&gt;Node19</title>
<path fill="none" stroke="#63b8ff" d="M1922.83,-193.24C1945.13,-191.09 1969.52,-188.85 1992,-187 2225.54,-167.81 2285.92,-183.39 2518,-151 2527.16,-149.72 2536.96,-147.9 2546.12,-145.99"/>
<polygon fill="#63b8ff" stroke="#63b8ff" points="1922.5,-189.75 1912.88,-194.2 1923.17,-196.72 1922.5,-189.75"/>
</g>
<!-- Node169 -->
<g id="node14" class="node">
<title>Node169</title>
<g id="a_node14"><a xlink:href="d__drawlist_8h.html" target="_top" xlink:title=" ">
<polygon fill="#fff0f0" stroke="red" points="2217,-145.5 2107,-145.5 2107,-126.5 2217,-126.5 2217,-145.5"/>
<text text-anchor="middle" x="2162" y="-133.5" font-family="Helvetica,sans-Serif" font-size="10.00">include/d/d_drawlist.h</text>
</a>
</g>
</g>
<!-- Node18&#45;&gt;Node169 -->
<g id="edge15" class="edge">
<title>Node18&#45;&gt;Node169</title>
<path fill="none" stroke="#63b8ff" d="M1902.94,-189.92C1953.85,-179.95 2030.46,-164.79 2097,-151 2104.69,-149.41 2112.88,-147.67 2120.76,-145.98"/>
<polygon fill="#63b8ff" stroke="#63b8ff" points="1902.47,-186.44 1893.33,-191.8 1903.82,-193.31 1902.47,-186.44"/>
</g>
<!-- Node212 -->
<g id="node16" class="node">
<title>Node212</title>
<g id="a_node16"><a xlink:href="d__ky__thunder_8h.html" target="_top" xlink:title=" ">
<polygon fill="#fff0f0" stroke="red" points="2509,-145.5 2385,-145.5 2385,-126.5 2509,-126.5 2509,-145.5"/>
<text text-anchor="middle" x="2447" y="-133.5" font-family="Helvetica,sans-Serif" font-size="10.00">include/d/d_ky_thunder.h</text>
</a>
</g>
</g>
<!-- Node18&#45;&gt;Node212 -->
<g id="edge17" class="edge">
<title>Node18&#45;&gt;Node212</title>
<path fill="none" stroke="#63b8ff" d="M1922.86,-193.6C1945.16,-191.46 1969.55,-189.13 1992,-187 2162.65,-170.82 2206.36,-175.61 2376,-151 2385.45,-149.63 2395.55,-147.84 2405.07,-146"/>
<polygon fill="#63b8ff" stroke="#63b8ff" points="1922.53,-190.11 1912.91,-194.55 1923.2,-197.08 1922.53,-190.11"/>
</g>
<!-- Node213 -->
<g id="node17" class="node">
<title>Node213</title>
<g id="a_node17"><a xlink:href="d__resorce_8h.html" target="_top" xlink:title=" ">
<polygon fill="#fff0f0" stroke="red" points="599.5,-145.5 490.5,-145.5 490.5,-126.5 599.5,-126.5 599.5,-145.5"/>
<text text-anchor="middle" x="545" y="-133.5" font-family="Helvetica,sans-Serif" font-size="10.00">include/d/d_resorce.h</text>
</a>
</g>
</g>
<!-- Node18&#45;&gt;Node213 -->
<g id="edge18" class="edge">
<title>Node18&#45;&gt;Node213</title>
<path fill="none" stroke="#63b8ff" d="M1769.45,-199.7C1535.84,-195.44 834.28,-180.47 608,-151 598.89,-149.81 589.15,-147.95 580.12,-145.97"/>
<polygon fill="#63b8ff" stroke="#63b8ff" points="1769.3,-203.19 1779.36,-199.88 1769.43,-196.2 1769.3,-203.19"/>
</g>
<!-- Node214 -->
<g id="node19" class="node">
<title>Node214</title>
<g id="a_node19"><a xlink:href="d__kankyo_8h.html" target="_top" xlink:title=" ">
<polygon fill="#fff0f0" stroke="red" points="2795,-151 2697,-151 2697,-121 2795,-121 2795,-151"/>
<text text-anchor="start" x="2705" y="-139" font-family="Helvetica,sans-Serif" font-size="10.00">include/d/kankyo/d</text>
<text text-anchor="middle" x="2746" y="-128" font-family="Helvetica,sans-Serif" font-size="10.00">_kankyo.h</text>
</a>
</g>
</g>
<!-- Node18&#45;&gt;Node214 -->
<g id="edge20" class="edge">
<title>Node18&#45;&gt;Node214</title>
<path fill="none" stroke="#63b8ff" d="M1922.81,-193C1945.11,-190.85 1969.51,-188.66 1992,-187 2298.69,-164.32 2378.29,-192.5 2683,-151 2687.44,-150.4 2692.03,-149.64 2696.62,-148.79"/>
<polygon fill="#63b8ff" stroke="#63b8ff" points="1922.48,-189.52 1912.87,-193.97 1923.16,-196.48 1922.48,-189.52"/>
</g>
<!-- Node277 -->
<g id="node21" class="node">
<title>Node277</title>
<g id="a_node21"><a xlink:href="m__Do__ext_8cpp.html" target="_top" xlink:title=" ">
<polygon fill="white" stroke="#666666" points="2838.5,-85 2715.5,-85 2715.5,-66 2838.5,-66 2838.5,-85"/>
<text text-anchor="middle" x="2777" y="-73" font-family="Helvetica,sans-Serif" font-size="10.00">src/m_Do/m_Do_ext.cpp</text>
</a>
</g>
</g>
<!-- Node18&#45;&gt;Node277 -->
<g id="edge33" class="edge">
<title>Node18&#45;&gt;Node277</title>
<path fill="none" stroke="#63b8ff" d="M1922.65,-194.23C1951.58,-191.78 1984.79,-189.11 2015,-187 2156,-177.16 2517.85,-201.11 2650,-151 2670.12,-143.37 2669.84,-132.54 2688,-121 2710.31,-106.83 2737.74,-93.7 2756.21,-85.43"/>
<polygon fill="#63b8ff" stroke="#63b8ff" points="1922.55,-190.72 1912.89,-195.06 1923.15,-197.7 1922.55,-190.72"/>
</g>
<!-- Node173 -->
<g id="node22" class="node">
<title>Node173</title>
<g id="a_node22"><a xlink:href="d__a__do_8h.html" target="_top" xlink:title=" ">
<polygon fill="white" stroke="#666666" points="2909,-151 2813,-151 2813,-121 2909,-121 2909,-151"/>
<text text-anchor="start" x="2821" y="-139" font-family="Helvetica,sans-Serif" font-size="10.00">include/rel/d/a/d_a</text>
<text text-anchor="middle" x="2861" y="-128" font-family="Helvetica,sans-Serif" font-size="10.00">_do/d_a_do.h</text>
</a>
</g>
</g>
<!-- Node18&#45;&gt;Node173 -->
<g id="edge24" class="edge">
<title>Node18&#45;&gt;Node173</title>
<path fill="none" stroke="#63b8ff" d="M1922.8,-192.89C1945.1,-190.74 1969.5,-188.58 1992,-187 2352.36,-161.75 2446.42,-202.33 2804,-151 2806.82,-150.59 2809.71,-150.11 2812.62,-149.57"/>
<polygon fill="#63b8ff" stroke="#63b8ff" points="1922.47,-189.41 1912.86,-193.86 1923.15,-196.37 1922.47,-189.41"/>
</g>
<!-- Node278 -->
<g id="node23" class="node">
<title>Node278</title>
<g id="a_node23"><a xlink:href="DynamicLink_8cpp.html" target="_top" xlink:title=" ">
<polygon fill="white" stroke="#666666" points="724.5,-145.5 617.5,-145.5 617.5,-126.5 724.5,-126.5 724.5,-145.5"/>
<text text-anchor="middle" x="671" y="-133.5" font-family="Helvetica,sans-Serif" font-size="10.00">src/DynamicLink.cpp</text>
</a>
</g>
</g>
<!-- Node18&#45;&gt;Node278 -->
<g id="edge25" class="edge">
<title>Node18&#45;&gt;Node278</title>
<path fill="none" stroke="#63b8ff" d="M1769.44,-199.33C1552.07,-194.3 933.93,-177.98 733,-151 724.03,-149.8 714.45,-147.93 705.56,-145.94"/>
<polygon fill="#63b8ff" stroke="#63b8ff" points="1769.13,-202.82 1779.2,-199.55 1769.29,-195.82 1769.13,-202.82"/>
</g>
<!-- Node108 -->
<g id="node24" class="node">
<title>Node108</title>
<g id="a_node24"><a xlink:href="c__dylink_8cpp.html" target="_top" xlink:title=" ">
<polygon fill="white" stroke="#666666" points="837.5,-145.5 742.5,-145.5 742.5,-126.5 837.5,-126.5 837.5,-145.5"/>
<text text-anchor="middle" x="790" y="-133.5" font-family="Helvetica,sans-Serif" font-size="10.00">src/c/c_dylink.cpp</text>
</a>
</g>
</g>
<!-- Node18&#45;&gt;Node108 -->
<g id="edge26" class="edge">
<title>Node18&#45;&gt;Node108</title>
<path fill="none" stroke="#63b8ff" d="M1769.26,-199.1C1567.21,-193.79 1023.84,-177.42 846,-151 837.87,-149.79 829.2,-147.92 821.18,-145.94"/>
<polygon fill="#63b8ff" stroke="#63b8ff" points="1769.04,-202.6 1779.13,-199.36 1769.22,-195.6 1769.04,-202.6"/>
</g>
<!-- Node279 -->
<g id="node25" class="node">
<title>Node279</title>
<g id="a_node25"><a xlink:href="d__pane__class_8cpp.html" target="_top" xlink:title=" ">
<polygon fill="white" stroke="#666666" points="998.5,-145.5 855.5,-145.5 855.5,-126.5 998.5,-126.5 998.5,-145.5"/>
<text text-anchor="middle" x="927" y="-133.5" font-family="Helvetica,sans-Serif" font-size="10.00">src/d/pane/d_pane_class.cpp</text>
</a>
</g>
</g>
<!-- Node18&#45;&gt;Node279 -->
<g id="edge27" class="edge">
<title>Node18&#45;&gt;Node279</title>
<path fill="none" stroke="#63b8ff" d="M1769.33,-199.35C1621.44,-195.51 1286.68,-183.7 1007,-151 995.94,-149.71 984.08,-147.88 972.98,-145.97"/>
<polygon fill="#63b8ff" stroke="#63b8ff" points="1768.91,-202.84 1778.99,-199.59 1769.08,-195.84 1768.91,-202.84"/>
</g>
<!-- Node280 -->
<g id="node26" class="node">
<title>Node280</title>
<g id="a_node26"><a xlink:href="d__pane__class__alpha_8cpp.html" target="_top" xlink:title=" ">
<polygon fill="white" stroke="#666666" points="1141.5,-151 1016.5,-151 1016.5,-121 1141.5,-121 1141.5,-151"/>
<text text-anchor="start" x="1024.5" y="-139" font-family="Helvetica,sans-Serif" font-size="10.00">src/d/pane/d_pane_class</text>
<text text-anchor="middle" x="1079" y="-128" font-family="Helvetica,sans-Serif" font-size="10.00">_alpha.cpp</text>
</a>
</g>
</g>
<!-- Node18&#45;&gt;Node280 -->
<g id="edge28" class="edge">
<title>Node18&#45;&gt;Node280</title>
<path fill="none" stroke="#63b8ff" d="M1769.72,-198.59C1641.32,-193.85 1374.07,-181.02 1150,-151 1147.26,-150.63 1144.47,-150.23 1141.65,-149.79"/>
<polygon fill="#63b8ff" stroke="#63b8ff" points="1769.33,-202.08 1779.45,-198.94 1769.58,-195.08 1769.33,-202.08"/>
</g>
<!-- Node101 -->
<g id="node27" class="node">
<title>Node101</title>
<g id="a_node27"><a xlink:href="f__op__actor__mng_8cpp.html" target="_top" xlink:title=" ">
<polygon fill="white" stroke="#666666" points="1260.5,-151 1159.5,-151 1159.5,-121 1260.5,-121 1260.5,-151"/>
<text text-anchor="start" x="1167.5" y="-139" font-family="Helvetica,sans-Serif" font-size="10.00">src/f_op/f_op_actor</text>
<text text-anchor="middle" x="1210" y="-128" font-family="Helvetica,sans-Serif" font-size="10.00">_mng.cpp</text>
</a>
</g>
</g>
<!-- Node18&#45;&gt;Node101 -->
<g id="edge29" class="edge">
<title>Node18&#45;&gt;Node101</title>
<path fill="none" stroke="#63b8ff" d="M1769.32,-197.93C1658.37,-192.69 1446.85,-179.65 1269,-151 1266.3,-150.56 1263.54,-150.07 1260.75,-149.54"/>
<polygon fill="#63b8ff" stroke="#63b8ff" points="1769.06,-201.42 1779.21,-198.39 1769.38,-194.43 1769.06,-201.42"/>
</g>
<!-- Node281 -->
<g id="node28" class="node">
<title>Node281</title>
<g id="a_node28"><a xlink:href="m__Do__DVDError_8cpp.html" target="_top" xlink:title=" ">
<polygon fill="white" stroke="#666666" points="1429.5,-145.5 1278.5,-145.5 1278.5,-126.5 1429.5,-126.5 1429.5,-145.5"/>
<text text-anchor="middle" x="1354" y="-133.5" font-family="Helvetica,sans-Serif" font-size="10.00">src/m_Do/m_Do_DVDError.cpp</text>
</a>
</g>
</g>
<!-- Node18&#45;&gt;Node281 -->
<g id="edge30" class="edge">
<title>Node18&#45;&gt;Node281</title>
<path fill="none" stroke="#63b8ff" d="M1769.48,-192.55C1687.59,-183.28 1553.92,-167.52 1439,-151 1428.34,-149.47 1416.95,-147.69 1406.09,-145.93"/>
<polygon fill="#63b8ff" stroke="#63b8ff" points="1768.85,-196 1779.18,-193.64 1769.64,-189.04 1768.85,-196"/>
</g>
<!-- Node282 -->
<g id="node29" class="node">
<title>Node282</title>
<g id="a_node29"><a xlink:href="m__Do__MemCard_8cpp.html" target="_top" xlink:title=" ">
<polygon fill="white" stroke="#666666" points="1600,-145.5 1448,-145.5 1448,-126.5 1600,-126.5 1600,-145.5"/>
<text text-anchor="middle" x="1524" y="-133.5" font-family="Helvetica,sans-Serif" font-size="10.00">src/m_Do/m_Do_MemCard.cpp</text>
</a>
</g>
</g>
<!-- Node18&#45;&gt;Node282 -->
<g id="edge31" class="edge">
<title>Node18&#45;&gt;Node282</title>
<path fill="none" stroke="#63b8ff" d="M1789.63,-189.8C1726.91,-177.33 1626.81,-157.43 1569.07,-145.96"/>
<polygon fill="#63b8ff" stroke="#63b8ff" points="1788.91,-193.22 1799.4,-191.74 1790.28,-186.36 1788.91,-193.22"/>
</g>
<!-- Node283 -->
<g id="node30" class="node">
<title>Node283</title>
<g id="a_node30"><a xlink:href="m__Do__dvd__thread_8cpp.html" target="_top" xlink:title=" ">
<polygon fill="white" stroke="#666666" points="1776,-145.5 1618,-145.5 1618,-126.5 1776,-126.5 1776,-145.5"/>
<text text-anchor="middle" x="1697" y="-133.5" font-family="Helvetica,sans-Serif" font-size="10.00">src/m_Do/m_Do_dvd_thread.cpp</text>
</a>
</g>
</g>
<!-- Node18&#45;&gt;Node283 -->
<g id="edge32" class="edge">
<title>Node18&#45;&gt;Node283</title>
<path fill="none" stroke="#63b8ff" d="M1814.81,-187.6C1785.57,-175.04 1742.7,-156.63 1717.54,-145.82"/>
<polygon fill="#63b8ff" stroke="#63b8ff" points="1813.32,-190.77 1823.89,-191.5 1816.08,-184.34 1813.32,-190.77"/>
</g>
<!-- Node284 -->
<g id="node31" class="node">
<title>Node284</title>
<g id="a_node31"><a xlink:href="m__Do__machine_8cpp.html" target="_top" xlink:title=" ">
<polygon fill="white" stroke="#666666" points="1941.5,-145.5 1794.5,-145.5 1794.5,-126.5 1941.5,-126.5 1941.5,-145.5"/>
<text text-anchor="middle" x="1868" y="-133.5" font-family="Helvetica,sans-Serif" font-size="10.00">src/m_Do/m_Do_machine.cpp</text>
</a>
</g>
</g>
<!-- Node18&#45;&gt;Node284 -->
<g id="edge34" class="edge">
<title>Node18&#45;&gt;Node284</title>
<path fill="none" stroke="#63b8ff" d="M1852.73,-181.43C1856.81,-169.55 1861.82,-154.96 1864.97,-145.82"/>
<polygon fill="#63b8ff" stroke="#63b8ff" points="1849.49,-180.08 1849.55,-190.67 1856.11,-182.35 1849.49,-180.08"/>
</g>
<!-- Node164 -->
<g id="node32" class="node">
<title>Node164</title>
<g id="a_node32"><a xlink:href="m__Do__machine__exception_8cpp.html" target="_top" xlink:title=" ">
<polygon fill="white" stroke="#666666" points="2088.5,-151 1959.5,-151 1959.5,-121 2088.5,-121 2088.5,-151"/>
<text text-anchor="start" x="1967.5" y="-139" font-family="Helvetica,sans-Serif" font-size="10.00">src/m_Do/m_Do_machine</text>
<text text-anchor="middle" x="2024" y="-128" font-family="Helvetica,sans-Serif" font-size="10.00">_exception.cpp</text>
</a>
</g>
</g>
<!-- Node18&#45;&gt;Node164 -->
<g id="edge35" class="edge">
<title>Node18&#45;&gt;Node164</title>
<path fill="none" stroke="#63b8ff" d="M1881.4,-188.27C1910.91,-177.66 1952.95,-162.55 1983.73,-151.48"/>
<polygon fill="#63b8ff" stroke="#63b8ff" points="1880.4,-184.91 1872.17,-191.59 1882.77,-191.5 1880.4,-184.91"/>
</g>
<!-- Node285 -->
<g id="node33" class="node">
<title>Node285</title>
<g id="a_node33"><a xlink:href="m__Do__printf_8cpp.html" target="_top" xlink:title=" ">
<polygon fill="white" stroke="#666666" points="2367,-145.5 2235,-145.5 2235,-126.5 2367,-126.5 2367,-145.5"/>
<text text-anchor="middle" x="2301" y="-133.5" font-family="Helvetica,sans-Serif" font-size="10.00">src/m_Do/m_Do_printf.cpp</text>
</a>
</g>
</g>
<!-- Node18&#45;&gt;Node285 -->
<g id="edge36" class="edge">
<title>Node18&#45;&gt;Node285</title>
<path fill="none" stroke="#63b8ff" d="M1922.38,-192.17C1999.24,-183 2121.09,-167.68 2226,-151 2235.42,-149.5 2245.47,-147.74 2255.06,-145.98"/>
<polygon fill="#63b8ff" stroke="#63b8ff" points="1922.4,-188.65 1912.88,-193.3 1923.22,-195.6 1922.4,-188.65"/>
</g>
<!-- Node19&#45;&gt;Node5 -->
<g id="edge14" class="edge">
<title>Node19&#45;&gt;Node5</title>
<path fill="none" stroke="#63b8ff" d="M2558.4,-120.46C2539.08,-109.49 2513.18,-94.78 2496.79,-85.47"/>
<polygon fill="#63b8ff" stroke="#63b8ff" points="2556.62,-123.47 2567.04,-125.37 2560.07,-117.39 2556.62,-123.47"/>
</g>
<!-- Node169&#45;&gt;Node118 -->
<g id="edge16" class="edge">
<title>Node169&#45;&gt;Node118</title>
<path fill="none" stroke="#63b8ff" d="M2114.36,-123.8C2108.54,-122.71 2102.65,-121.73 2097,-121 1754.14,-76.42 1337.08,-74.9 1192.39,-75.9"/>
<polygon fill="#63b8ff" stroke="#63b8ff" points="2113.43,-127.18 2123.92,-125.71 2114.8,-120.32 2113.43,-127.18"/>
</g>
<!-- Node129 -->
<g id="node18" class="node">
<title>Node129</title>
<g id="a_node18"><a xlink:href="d__resorce_8cpp.html" target="_top" xlink:title=" ">
<polygon fill="white" stroke="#666666" points="2697,-85 2595,-85 2595,-66 2697,-66 2697,-85"/>
<text text-anchor="middle" x="2646" y="-73" font-family="Helvetica,sans-Serif" font-size="10.00">src/d/d_resorce.cpp</text>
</a>
</g>
</g>
<!-- Node213&#45;&gt;Node129 -->
<g id="edge19" class="edge">
<title>Node213&#45;&gt;Node129</title>
<path fill="none" stroke="#63b8ff" d="M590.52,-123.76C596.37,-122.65 602.31,-121.68 608,-121 1036.16,-69.98 2117.41,-107.64 2548,-85 2563.18,-84.2 2579.65,-82.93 2594.68,-81.61"/>
<polygon fill="#63b8ff" stroke="#63b8ff" points="590.02,-120.29 580.93,-125.74 591.43,-127.14 590.02,-120.29"/>
</g>
<!-- Node214&#45;&gt;Node8 -->
<g id="edge21" class="edge">
<title>Node214&#45;&gt;Node8</title>
<path fill="none" stroke="#63b8ff" d="M2685.75,-120.45C2655.11,-112 2617.74,-100.03 2586,-85 2553.67,-69.69 2519.67,-45.68 2499.41,-30.4"/>
<polygon fill="#63b8ff" stroke="#63b8ff" points="2684.69,-123.79 2695.25,-123.02 2686.51,-117.03 2684.69,-123.79"/>
</g>
<!-- Node126 -->
<g id="node20" class="node">
<title>Node126</title>
<g id="a_node20"><a xlink:href="d__model_8cpp.html" target="_top" xlink:title=" ">
<polygon fill="white" stroke="#666666" points="2985,-85 2889,-85 2889,-66 2985,-66 2985,-85"/>
<text text-anchor="middle" x="2937" y="-73" font-family="Helvetica,sans-Serif" font-size="10.00">src/d/d_model.cpp</text>
</a>
</g>
</g>
<!-- Node214&#45;&gt;Node126 -->
<g id="edge22" class="edge">
<title>Node214&#45;&gt;Node126</title>
<path fill="none" stroke="#63b8ff" d="M2804.06,-117.22C2838.37,-106.71 2880.35,-93.85 2907.84,-85.43"/>
<polygon fill="#63b8ff" stroke="#63b8ff" points="2803.2,-113.82 2794.66,-120.1 2805.25,-120.51 2803.2,-113.82"/>
</g>
<!-- Node214&#45;&gt;Node277 -->
<g id="edge23" class="edge">
<title>Node214&#45;&gt;Node277</title>
<path fill="none" stroke="#63b8ff" d="M2759,-110.47C2763.76,-101.48 2768.86,-91.87 2772.4,-85.18"/>
<polygon fill="#63b8ff" stroke="#63b8ff" points="2755.96,-108.73 2754.37,-119.2 2762.15,-112 2755.96,-108.73"/>
</g>
<!-- Node291 -->
<g id="node39" class="node">
<title>Node291</title>
<g id="a_node39"><a xlink:href="J3DModelData_8h.html" target="_top" xlink:title=" ">
<polygon fill="#fff0f0" stroke="red" points="2152.5,-349 2017.5,-349 2017.5,-319 2152.5,-319 2152.5,-349"/>
<text text-anchor="start" x="2025.5" y="-337" font-family="Helvetica,sans-Serif" font-size="10.00">include/JSystem/J3DGraph</text>
<text text-anchor="middle" x="2085" y="-326" font-family="Helvetica,sans-Serif" font-size="10.00">Animator/J3DModelData.h</text>
</a>
</g>
</g>
<!-- Node290&#45;&gt;Node291 -->
<g id="edge42" class="edge">
<title>Node290&#45;&gt;Node291</title>
<path fill="none" stroke="#63b8ff" d="M2029.27,-377.97C2041.42,-368.61 2055.42,-357.81 2066.34,-349.39"/>
<polygon fill="#63b8ff" stroke="#63b8ff" points="2027.4,-374.99 2021.62,-383.87 2031.68,-380.54 2027.4,-374.99"/>
</g>
<!-- Node325 -->
<g id="node42" class="node">
<title>Node325</title>
<g id="a_node42"><a xlink:href="J3DJointTree_8cpp.html" target="_top" xlink:title=" ">
<polygon fill="white" stroke="#666666" points="2947,-217 2789,-217 2789,-187 2947,-187 2947,-217"/>
<text text-anchor="start" x="2797" y="-205" font-family="Helvetica,sans-Serif" font-size="10.00">libs/JSystem/J3DGraphAnimator</text>
<text text-anchor="middle" x="2868" y="-194" font-family="Helvetica,sans-Serif" font-size="10.00">/J3DJointTree.cpp</text>
</a>
</g>
</g>
<!-- Node290&#45;&gt;Node325 -->
<g id="edge50" class="edge">
<title>Node290&#45;&gt;Node325</title>
<path fill="none" stroke="#63b8ff" d="M2077.22,-381.98C2244.98,-344.01 2647.31,-252.95 2804,-217.48"/>
<polygon fill="#63b8ff" stroke="#63b8ff" points="2076.49,-378.55 2067.51,-384.17 2078.03,-385.38 2076.49,-378.55"/>
</g>
<!-- Node326 -->
<g id="node43" class="node">
<title>Node326</title>
<g id="a_node43"><a xlink:href="J3DShapeTable_8cpp.html" target="_top" xlink:title=" ">
<polygon fill="white" stroke="#666666" points="1999,-349 1841,-349 1841,-319 1999,-319 1999,-349"/>
<text text-anchor="start" x="1849" y="-337" font-family="Helvetica,sans-Serif" font-size="10.00">libs/JSystem/J3DGraphAnimator</text>
<text text-anchor="middle" x="1920" y="-326" font-family="Helvetica,sans-Serif" font-size="10.00">/J3DShapeTable.cpp</text>
</a>
</g>
</g>
<!-- Node290&#45;&gt;Node326 -->
<g id="edge51" class="edge">
<title>Node290&#45;&gt;Node326</title>
<path fill="none" stroke="#63b8ff" d="M1975.06,-377.97C1963.06,-368.61 1949.23,-357.81 1938.43,-349.39"/>
<polygon fill="#63b8ff" stroke="#63b8ff" points="1972.57,-380.47 1982.61,-383.87 1976.88,-374.95 1972.57,-380.47"/>
</g>
<!-- Node291&#45;&gt;Node3 -->
<g id="edge46" class="edge">
<title>Node291&#45;&gt;Node3</title>
<path fill="none" stroke="#63b8ff" d="M2015.01,-315.84C1973.65,-305.7 1921.89,-293 1882.68,-283.39"/>
<polygon fill="#63b8ff" stroke="#63b8ff" points="2014.09,-319.21 2024.63,-318.2 2015.75,-312.42 2014.09,-319.21"/>
</g>
<!-- Node291&#45;&gt;Node126 -->
<g id="edge49" class="edge">
<title>Node291&#45;&gt;Node126</title>
<path fill="none" stroke="#63b8ff" d="M2077.27,-308.06C2068.86,-275.35 2060.45,-218.41 2092,-187 2157.1,-122.18 2846.7,-208.93 2918,-151 2937.79,-134.92 2938.62,-101.37 2937.77,-85.36"/>
<polygon fill="#63b8ff" stroke="#63b8ff" points="2073.84,-308.78 2079.89,-317.47 2080.58,-306.9 2073.84,-308.78"/>
</g>
<!-- Node291&#45;&gt;Node289 -->
<g id="edge48" class="edge">
<title>Node291&#45;&gt;Node289</title>
<path fill="none" stroke="#63b8ff" d="M2005.7,-318.73C1866.94,-298.49 1568.57,-264.29 1447,-253 1212.8,-231.25 1152.5,-245.31 919,-217 916.2,-216.66 913.35,-216.29 910.47,-215.89"/>
<polygon fill="#63b8ff" stroke="#63b8ff" points="2005.12,-322.18 2015.52,-320.18 2006.14,-315.25 2005.12,-322.18"/>
</g>
<!-- Node292 -->
<g id="node40" class="node">
<title>Node292</title>
<g id="a_node40"><a xlink:href="J3DAnimation_8h.html" target="_top" xlink:title=" ">
<polygon fill="#fff0f0" stroke="red" points="2044.5,-283 1909.5,-283 1909.5,-253 2044.5,-253 2044.5,-283"/>
<text text-anchor="start" x="1917.5" y="-271" font-family="Helvetica,sans-Serif" font-size="10.00">include/JSystem/J3DGraph</text>
<text text-anchor="middle" x="1977" y="-260" font-family="Helvetica,sans-Serif" font-size="10.00">Animator/J3DAnimation.h</text>
</a>
</g>
</g>
<!-- Node291&#45;&gt;Node292 -->
<g id="edge43" class="edge">
<title>Node291&#45;&gt;Node292</title>
<path fill="none" stroke="#63b8ff" d="M2051.1,-312.91C2034.89,-303.31 2015.87,-292.03 2001.16,-283.31"/>
<polygon fill="#63b8ff" stroke="#63b8ff" points="2049.07,-315.78 2059.46,-317.87 2052.64,-309.76 2049.07,-315.78"/>
</g>
<!-- Node319 -->
<g id="node41" class="node">
<title>Node319</title>
<g id="a_node41"><a xlink:href="J3DModelData_8cpp.html" target="_top" xlink:title=" ">
<polygon fill="white" stroke="#666666" points="2771,-217 2613,-217 2613,-187 2771,-187 2771,-217"/>
<text text-anchor="start" x="2621" y="-205" font-family="Helvetica,sans-Serif" font-size="10.00">libs/JSystem/J3DGraphAnimator</text>
<text text-anchor="middle" x="2692" y="-194" font-family="Helvetica,sans-Serif" font-size="10.00">/J3DModelData.cpp</text>
</a>
</g>
</g>
<!-- Node291&#45;&gt;Node319 -->
<g id="edge47" class="edge">
<title>Node291&#45;&gt;Node319</title>
<path fill="none" stroke="#63b8ff" d="M2163.51,-316.19C2283.7,-290.44 2511.27,-241.71 2624.5,-217.46"/>
<polygon fill="#63b8ff" stroke="#63b8ff" points="2163.1,-312.69 2154.05,-318.21 2164.56,-319.54 2163.1,-312.69"/>
</g>
<!-- Node292&#45;&gt;Node18 -->
<g id="edge44" class="edge">
<title>Node292&#45;&gt;Node18</title>
<path fill="none" stroke="#63b8ff" d="M1937.27,-247.59C1913.03,-235.75 1883.21,-221.18 1864.39,-211.99"/>
<polygon fill="#63b8ff" stroke="#63b8ff" points="1935.72,-250.73 1946.24,-251.97 1938.79,-244.44 1935.72,-250.73"/>
</g>
<!-- Node292&#45;&gt;Node173 -->
<g id="edge45" class="edge">
<title>Node292&#45;&gt;Node173</title>
<path fill="none" stroke="#63b8ff" d="M1993.3,-243.55C2008.02,-224.52 2031.54,-198.95 2059,-187 2210.97,-120.83 2639.98,-174.88 2804,-151 2806.82,-150.59 2809.71,-150.1 2812.62,-149.56"/>
<polygon fill="#63b8ff" stroke="#63b8ff" points="1990.68,-241.21 1987.52,-251.32 1996.29,-245.39 1990.68,-241.21"/>
</g>
<!-- Node327&#45;&gt;Node6 -->
<g id="edge62" class="edge">
<title>Node327&#45;&gt;Node6</title>
<path fill="none" stroke="#63b8ff" d="M3072.95,-266.73C3143.19,-262.69 3231.59,-246.16 3209,-187 3171.99,-90.07 3044.57,-42.94 2980.86,-25"/>
<polygon fill="#63b8ff" stroke="#63b8ff" points="3073.18,-263.21 3063.36,-267.2 3073.52,-270.2 3073.18,-263.21"/>
</g>
<!-- Node327&#45;&gt;Node129 -->
<g id="edge64" class="edge">
<title>Node327&#45;&gt;Node129</title>
<path fill="none" stroke="#63b8ff" d="M2988.54,-241.72C2979.85,-208.12 2959.44,-149.67 2918,-121 2913.47,-117.87 2774.94,-96.25 2697.37,-84.34"/>
<polygon fill="#63b8ff" stroke="#63b8ff" points="2985.13,-242.5 2990.87,-251.4 2991.93,-240.86 2985.13,-242.5"/>
</g>
<!-- Node327&#45;&gt;Node126 -->
<g id="edge63" class="edge">
<title>Node327&#45;&gt;Node126</title>
<path fill="none" stroke="#63b8ff" d="M3073.02,-262.33C3141.24,-254.95 3224.14,-235.95 3192,-187 3146.12,-117.12 3045.55,-91.22 2985.33,-81.77"/>
<polygon fill="#63b8ff" stroke="#63b8ff" points="3072.9,-258.82 3063.29,-263.3 3073.59,-265.79 3072.9,-258.82"/>
</g>
<!-- Node327&#45;&gt;Node277 -->
<g id="edge65" class="edge">
<title>Node327&#45;&gt;Node277</title>
<path fill="none" stroke="#63b8ff" d="M3001.68,-241.45C3009.6,-209.4 3017.22,-154.57 2989,-121 2969.97,-98.37 2894.33,-86.75 2838.8,-81.15"/>
<polygon fill="#63b8ff" stroke="#63b8ff" points="2998.31,-240.5 2999.1,-251.07 3005.07,-242.32 2998.31,-240.5"/>
</g>
<!-- Node327&#45;&gt;Node286 -->
<g id="edge53" class="edge">
<title>Node327&#45;&gt;Node286</title>
<path fill="none" stroke="#63b8ff" d="M2914.98,-257.58C2836.13,-248.01 2711.55,-232.45 2604,-217 2601.09,-216.58 2598.13,-216.15 2595.14,-215.71"/>
<polygon fill="#63b8ff" stroke="#63b8ff" points="2914.43,-261.04 2924.78,-258.77 2915.27,-254.09 2914.43,-261.04"/>
</g>
<!-- Node327&#45;&gt;Node287 -->
<g id="edge57" class="edge">
<title>Node327&#45;&gt;Node287</title>
<path fill="none" stroke="#63b8ff" d="M2914.69,-263.85C2780.98,-258.02 2502.35,-243.66 2268,-217 2265.08,-216.67 2262.11,-216.31 2259.11,-215.93"/>
<polygon fill="#63b8ff" stroke="#63b8ff" points="2914.35,-267.34 2924.49,-264.27 2914.65,-260.35 2914.35,-267.34"/>
</g>
<!-- Node327&#45;&gt;Node288 -->
<g id="edge61" class="edge">
<title>Node327&#45;&gt;Node288</title>
<path fill="none" stroke="#63b8ff" d="M2915,-262.15C2805.39,-254.94 2601.1,-239.75 2428,-217 2425.2,-216.63 2422.36,-216.24 2419.48,-215.82"/>
<polygon fill="#63b8ff" stroke="#63b8ff" points="2914.56,-265.63 2924.76,-262.79 2915.01,-258.65 2914.56,-265.63"/>
</g>
<!-- Node327&#45;&gt;Node319 -->
<g id="edge58" class="edge">
<title>Node327&#45;&gt;Node319</title>
<path fill="none" stroke="#63b8ff" d="M2915.24,-250.31C2867.18,-240.12 2806.35,-227.23 2760.33,-217.48"/>
<polygon fill="#63b8ff" stroke="#63b8ff" points="2914.24,-253.67 2924.74,-252.32 2915.69,-246.83 2914.24,-253.67"/>
</g>
<!-- Node327&#45;&gt;Node325 -->
<g id="edge54" class="edge">
<title>Node327&#45;&gt;Node325</title>
<path fill="none" stroke="#63b8ff" d="M2955.52,-247.45C2936.38,-237.73 2913.67,-226.2 2896.18,-217.31"/>
<polygon fill="#63b8ff" stroke="#63b8ff" points="2953.87,-250.54 2964.37,-251.95 2957.04,-244.3 2953.87,-250.54"/>
</g>
<!-- Node317 -->
<g id="node45" class="node">
<title>Node317</title>
<g id="a_node45"><a xlink:href="J3DMaterialAnm_8cpp.html" target="_top" xlink:title=" ">
<polygon fill="white" stroke="#666666" points="3435,-217 3277,-217 3277,-187 3435,-187 3435,-217"/>
<text text-anchor="start" x="3285" y="-205" font-family="Helvetica,sans-Serif" font-size="10.00">libs/JSystem/J3DGraphAnimator</text>
<text text-anchor="middle" x="3356" y="-194" font-family="Helvetica,sans-Serif" font-size="10.00">/J3DMaterialAnm.cpp</text>
</a>
</g>
</g>
<!-- Node327&#45;&gt;Node317 -->
<g id="edge55" class="edge">
<title>Node327&#45;&gt;Node317</title>
<path fill="none" stroke="#63b8ff" d="M3072.67,-253.09C3133.07,-242.41 3216.12,-227.73 3276.69,-217.02"/>
<polygon fill="#63b8ff" stroke="#63b8ff" points="3072.39,-249.59 3063.16,-254.77 3073.61,-256.48 3072.39,-249.59"/>
</g>
<!-- Node318 -->
<g id="node46" class="node">
<title>Node318</title>
<g id="a_node46"><a xlink:href="J3DMaterialAttach_8cpp.html" target="_top" xlink:title=" ">
<polygon fill="white" stroke="#666666" points="3611,-217 3453,-217 3453,-187 3611,-187 3611,-217"/>
<text text-anchor="start" x="3461" y="-205" font-family="Helvetica,sans-Serif" font-size="10.00">libs/JSystem/J3DGraphAnimator</text>
<text text-anchor="middle" x="3532" y="-194" font-family="Helvetica,sans-Serif" font-size="10.00">/J3DMaterialAttach.cpp</text>
</a>
</g>
</g>
<!-- Node327&#45;&gt;Node318 -->
<g id="edge56" class="edge">
<title>Node327&#45;&gt;Node318</title>
<path fill="none" stroke="#63b8ff" d="M3073.18,-259.34C3163.17,-250.37 3314.39,-234.5 3444,-217 3446.91,-216.61 3449.88,-216.19 3452.87,-215.77"/>
<polygon fill="#63b8ff" stroke="#63b8ff" points="3073.08,-255.83 3063.48,-260.3 3073.78,-262.8 3073.08,-255.83"/>
</g>
<!-- Node328 -->
<g id="node47" class="node">
<title>Node328</title>
<g id="a_node47"><a xlink:href="J3DDrawBuffer_8cpp.html" target="_top" xlink:title=" ">
<polygon fill="white" stroke="#666666" points="3771,-217 3629,-217 3629,-187 3771,-187 3771,-217"/>
<text text-anchor="start" x="3637" y="-205" font-family="Helvetica,sans-Serif" font-size="10.00">libs/JSystem/J3DGraphBase</text>
<text text-anchor="middle" x="3700" y="-194" font-family="Helvetica,sans-Serif" font-size="10.00">/J3DDrawBuffer.cpp</text>
</a>
</g>
</g>
<!-- Node327&#45;&gt;Node328 -->
<g id="edge59" class="edge">
<title>Node327&#45;&gt;Node328</title>
<path fill="none" stroke="#63b8ff" d="M3072.99,-263.07C3191.96,-256.61 3424.07,-241.91 3620,-217 3622.8,-216.64 3625.65,-216.26 3628.52,-215.85"/>
<polygon fill="#63b8ff" stroke="#63b8ff" points="3073.15,-259.55 3063.35,-263.58 3073.52,-266.54 3073.15,-259.55"/>
</g>
<!-- Node329 -->
<g id="node48" class="node">
<title>Node329</title>
<g id="a_node48"><a xlink:href="J3DMaterial_8cpp.html" target="_top" xlink:title=" ">
<polygon fill="white" stroke="#666666" points="3183,-217 3041,-217 3041,-187 3183,-187 3183,-217"/>
<text text-anchor="start" x="3049" y="-205" font-family="Helvetica,sans-Serif" font-size="10.00">libs/JSystem/J3DGraphBase</text>
<text text-anchor="middle" x="3112" y="-194" font-family="Helvetica,sans-Serif" font-size="10.00">/J3DMaterial.cpp</text>
</a>
</g>
</g>
<!-- Node327&#45;&gt;Node329 -->
<g id="edge60" class="edge">
<title>Node327&#45;&gt;Node329</title>
<path fill="none" stroke="#63b8ff" d="M3030.54,-247.18C3048.35,-237.52 3069.38,-226.12 3085.61,-217.31"/>
<polygon fill="#63b8ff" stroke="#63b8ff" points="3028.93,-244.07 3021.81,-251.92 3032.27,-250.22 3028.93,-244.07"/>
</g>
</g>
</svg>
