<?xml version="1.0" encoding="UTF-8" standalone="no"?>
<!DOCTYPE svg PUBLIC "-//W3C//DTD SVG 1.1//EN"
 "http://www.w3.org/Graphics/SVG/1.1/DTD/svg11.dtd">
<!-- Generated by graphviz version 7.0.5 (20221223.1930)
 -->
<!-- Title: include/JSystem/JAudio2/JAIStreamMgr.h Pages: 1 -->
<!--zoomable 357 -->
<svg id="main" version="1.1" xmlns="http://www.w3.org/2000/svg" xmlns:xlink="http://www.w3.org/1999/xlink" xml:space="preserve" onload="init(evt)">
<style type="text/css"><![CDATA[
.edge:hover path { stroke: red; }
.edge:hover polygon { stroke: red; fill: red; }
]]></style>
<script type="text/javascript"><![CDATA[
var edges = document.getElementsByTagName('g');
if (edges && edges.length) {
  for (var i=0;i<edges.length;i++) {
    if (edges[i].id.substr(0,4)=='edge') {
      edges[i].setAttribute('class','edge');
    }
  }
}
]]></script>
        <defs>
                <circle id="rim" cx="0" cy="0" r="7"/>
                <circle id="rim2" cx="0" cy="0" r="3.5"/>
                <g id="zoomPlus">
                        <use xlink:href="#rim" fill="#404040">
                                <set attributeName="fill" to="#808080" begin="zoomplus.mouseover" end="zoomplus.mouseout"/>
                        </use>
                        <path d="M-4,0h8M0,-4v8" fill="none" stroke="white" stroke-width="1.5" pointer-events="none"/>
                </g>
                <g id="zoomMin">
                        <use xlink:href="#rim" fill="#404040">
                                <set attributeName="fill" to="#808080" begin="zoomminus.mouseover" end="zoomminus.mouseout"/>
                        </use>
                        <path d="M-4,0h8" fill="none" stroke="white" stroke-width="1.5" pointer-events="none"/>
                </g>
                <g id="dirArrow">
                        <path fill="none" stroke="white" stroke-width="1.5" d="M0,-3.0v7 M-2.5,-0.5L0,-3.0L2.5,-0.5"/>
                </g>
               <g id="resetDef">
                       <use xlink:href="#rim2" fill="#404040">
                               <set attributeName="fill" to="#808080" begin="reset.mouseover" end="reset.mouseout"/>
                       </use>
               </g>
        </defs>

<script type="text/javascript">
var viewWidth = 823;
var viewHeight = 357;
var sectionId = 'dynsection-0';
</script>
<script xlink:href="svgpan.js"/>
<svg id="graph" class="graph">
<g id="viewport">
<title>include/JSystem/JAudio2/JAIStreamMgr.h</title>
<!-- Node1 -->
<g id="node1" class="node">
<title>Node1</title>
<g id="a_node1"><a xlink:title=" ">
<polygon fill="#999999" stroke="#666666" points="639.5,-349 512.5,-349 512.5,-319 639.5,-319 639.5,-349"/>
<text text-anchor="start" x="520.5" y="-337" font-family="Helvetica,sans-Serif" font-size="10.00">include/JSystem/JAudio2</text>
<text text-anchor="middle" x="576" y="-326" font-family="Helvetica,sans-Serif" font-size="10.00">/JAIStreamMgr.h</text>
</a>
</g>
</g>
<!-- Node2 -->
<g id="node2" class="node">
<title>Node2</title>
<g id="a_node2"><a xlink:href="JAISound_8h.html" target="_top" xlink:title=" ">
<polygon fill="white" stroke="#666666" points="481,-283 335,-283 335,-264 481,-264 481,-283"/>
<text text-anchor="middle" x="408" y="-271" font-family="Helvetica,sans-Serif" font-size="10.00">JSystem/JAudio2/JAISound.h</text>
</a>
</g>
</g>
<!-- Node1&#45;&gt;Node2 -->
<g id="edge1" class="edge">
<title>Node1&#45;&gt;Node2</title>
<path fill="none" stroke="#63b8ff" d="M534.47,-318.54C506.75,-308.89 470.67,-296.32 444.14,-287.08"/>
<polygon fill="#63b8ff" stroke="#63b8ff" points="445.43,-283.83 434.83,-283.84 443.13,-290.44 445.43,-283.83"/>
</g>
<!-- Node14 -->
<g id="node14" class="node">
<title>Node14</title>
<g id="a_node14"><a xlink:href="JASGadget_8h.html" target="_top" xlink:title=" ">
<polygon fill="white" stroke="#666666" points="653,-283 499,-283 499,-264 653,-264 653,-283"/>
<text text-anchor="middle" x="576" y="-271" font-family="Helvetica,sans-Serif" font-size="10.00">JSystem/JAudio2/JASGadget.h</text>
</a>
</g>
</g>
<!-- Node1&#45;&gt;Node14 -->
<g id="edge19" class="edge">
<title>Node1&#45;&gt;Node14</title>
<path fill="none" stroke="#63b8ff" d="M576,-318.54C576,-311.34 576,-302.53 576,-294.68"/>
<polygon fill="#63b8ff" stroke="#63b8ff" points="579.5,-294.69 576,-284.69 572.5,-294.69 579.5,-294.69"/>
</g>
<!-- Node15 -->
<g id="node15" class="node">
<title>Node15</title>
<g id="a_node15"><a xlink:href="JSUList_8h.html" target="_top" xlink:title=" ">
<polygon fill="white" stroke="#666666" points="814.5,-283 671.5,-283 671.5,-264 814.5,-264 814.5,-283"/>
<text text-anchor="middle" x="743" y="-271" font-family="Helvetica,sans-Serif" font-size="10.00">JSystem/JSupport/JSUList.h</text>
</a>
</g>
</g>
<!-- Node1&#45;&gt;Node15 -->
<g id="edge21" class="edge">
<title>Node1&#45;&gt;Node15</title>
<path fill="none" stroke="#63b8ff" d="M617.28,-318.54C644.83,-308.89 680.71,-296.32 707.08,-287.08"/>
<polygon fill="#63b8ff" stroke="#63b8ff" points="708.04,-290.46 716.32,-283.85 705.72,-283.85 708.04,-290.46"/>
</g>
<!-- Node3 -->
<g id="node3" class="node">
<title>Node3</title>
<g id="a_node3"><a xlink:href="JAISoundParams_8h.html" target="_top" xlink:title=" ">
<polygon fill="white" stroke="#666666" points="536.5,-228 397.5,-228 397.5,-198 536.5,-198 536.5,-228"/>
<text text-anchor="start" x="405.5" y="-216" font-family="Helvetica,sans-Serif" font-size="10.00">JSystem/JAudio2/JAISound</text>
<text text-anchor="middle" x="467" y="-205" font-family="Helvetica,sans-Serif" font-size="10.00">Params.h</text>
</a>
</g>
</g>
<!-- Node2&#45;&gt;Node3 -->
<g id="edge2" class="edge">
<title>Node2&#45;&gt;Node3</title>
<path fill="none" stroke="#63b8ff" d="M416.96,-263.62C424.24,-256.4 434.83,-245.89 444.4,-236.41"/>
<polygon fill="#63b8ff" stroke="#63b8ff" points="446.73,-239.03 451.36,-229.51 441.8,-234.06 446.73,-239.03"/>
</g>
<!-- Node5 -->
<g id="node5" class="node">
<title>Node5</title>
<g id="a_node5"><a xlink:href="types_8h.html" target="_top" xlink:title=" ">
<polygon fill="white" stroke="#666666" points="544.5,-90.5 463.5,-90.5 463.5,-71.5 544.5,-71.5 544.5,-90.5"/>
<text text-anchor="middle" x="504" y="-78.5" font-family="Helvetica,sans-Serif" font-size="10.00">dolphin/types.h</text>
</a>
</g>
</g>
<!-- Node2&#45;&gt;Node5 -->
<g id="edge16" class="edge">
<title>Node2&#45;&gt;Node5</title>
<path fill="none" stroke="#63b8ff" d="M481.4,-264.97C505.26,-258.75 529.55,-247.66 545,-228 571.4,-194.41 565.52,-171.8 550,-132 544.82,-118.71 534.26,-106.81 524.57,-97.96"/>
<polygon fill="#63b8ff" stroke="#63b8ff" points="527.12,-95.54 517.24,-91.72 522.58,-100.87 527.12,-95.54"/>
</g>
<!-- Node7 -->
<g id="node7" class="node">
<title>Node7</title>
<g id="a_node7"><a xlink:href="JGeometry_8h.html" target="_top" xlink:title=" ">
<polygon fill="white" stroke="#666666" points="262.5,-222.5 149.5,-222.5 149.5,-203.5 262.5,-203.5 262.5,-222.5"/>
<text text-anchor="middle" x="206" y="-210.5" font-family="Helvetica,sans-Serif" font-size="10.00">JSystem/JGeometry.h</text>
</a>
</g>
</g>
<!-- Node2&#45;&gt;Node7 -->
<g id="edge7" class="edge">
<title>Node2&#45;&gt;Node7</title>
<path fill="none" stroke="#63b8ff" d="M377.32,-263.62C342.76,-253.61 286.41,-237.29 247.83,-226.12"/>
<polygon fill="#63b8ff" stroke="#63b8ff" points="249,-222.81 238.42,-223.39 247.05,-229.53 249,-222.81"/>
</g>
<!-- Node13 -->
<g id="node13" class="node">
<title>Node13</title>
<g id="a_node13"><a xlink:href="global_8h.html" target="_top" xlink:title=" ">
<polygon fill="white" stroke="#666666" points="379,-222.5 329,-222.5 329,-203.5 379,-203.5 379,-222.5"/>
<text text-anchor="middle" x="354" y="-210.5" font-family="Helvetica,sans-Serif" font-size="10.00">global.h</text>
</a>
</g>
</g>
<!-- Node2&#45;&gt;Node13 -->
<g id="edge17" class="edge">
<title>Node2&#45;&gt;Node13</title>
<path fill="none" stroke="#63b8ff" d="M400.03,-263.87C392.06,-255.23 379.57,-241.7 369.61,-230.92"/>
<polygon fill="#63b8ff" stroke="#63b8ff" points="372.38,-228.75 363.03,-223.78 367.24,-233.5 372.38,-228.75"/>
</g>
<!-- Node4 -->
<g id="node4" class="node">
<title>Node4</title>
<g id="a_node4"><a xlink:href="JASSoundParams_8h.html" target="_top" xlink:title=" ">
<polygon fill="white" stroke="#666666" points="525.5,-162 382.5,-162 382.5,-132 525.5,-132 525.5,-162"/>
<text text-anchor="start" x="390.5" y="-150" font-family="Helvetica,sans-Serif" font-size="10.00">JSystem/JAudio2/JASSound</text>
<text text-anchor="middle" x="454" y="-139" font-family="Helvetica,sans-Serif" font-size="10.00">Params.h</text>
</a>
</g>
</g>
<!-- Node3&#45;&gt;Node4 -->
<g id="edge3" class="edge">
<title>Node3&#45;&gt;Node4</title>
<path fill="none" stroke="#63b8ff" d="M464.11,-197.8C462.65,-190.59 460.83,-181.61 459.13,-173.27"/>
<polygon fill="#63b8ff" stroke="#63b8ff" points="462.6,-172.75 457.18,-163.65 455.74,-174.14 462.6,-172.75"/>
</g>
<!-- Node3&#45;&gt;Node5 -->
<g id="edge6" class="edge">
<title>Node3&#45;&gt;Node5</title>
<path fill="none" stroke="#63b8ff" d="M497.38,-197.63C511.24,-189.33 526.26,-177.44 534,-162 544.35,-141.36 531.02,-116.23 518.98,-99.72"/>
<polygon fill="#63b8ff" stroke="#63b8ff" points="521.73,-97.56 512.81,-91.85 516.23,-101.88 521.73,-97.56"/>
</g>
<!-- Node4&#45;&gt;Node5 -->
<g id="edge4" class="edge">
<title>Node4&#45;&gt;Node5</title>
<path fill="none" stroke="#63b8ff" d="M465.1,-131.8C472.51,-122.31 482.31,-109.76 490.23,-99.63"/>
<polygon fill="#63b8ff" stroke="#63b8ff" points="492.76,-102.07 496.16,-92.04 487.24,-97.76 492.76,-102.07"/>
</g>
<!-- Node6 -->
<g id="node6" class="node">
<title>Node6</title>
<g id="a_node6"><a xlink:href="stddef_8h.html" target="_top" xlink:title=" ">
<polygon fill="white" stroke="#666666" points="572,-30 436,-30 436,0 572,0 572,-30"/>
<text text-anchor="start" x="444" y="-18" font-family="Helvetica,sans-Serif" font-size="10.00">MSL_C/MSL_Common/Src</text>
<text text-anchor="middle" x="504" y="-7" font-family="Helvetica,sans-Serif" font-size="10.00">/stddef.h</text>
</a>
</g>
</g>
<!-- Node5&#45;&gt;Node6 -->
<g id="edge5" class="edge">
<title>Node5&#45;&gt;Node6</title>
<path fill="none" stroke="#63b8ff" d="M504,-71.1C504,-63.41 504,-51.92 504,-41.42"/>
<polygon fill="#63b8ff" stroke="#63b8ff" points="507.5,-41.75 504,-31.75 500.5,-41.75 507.5,-41.75"/>
</g>
<!-- Node7&#45;&gt;Node5 -->
<g id="edge10" class="edge">
<title>Node7&#45;&gt;Node5</title>
<path fill="none" stroke="#63b8ff" d="M205.23,-203.03C204.36,-186.42 205.09,-150.83 225,-132 256.92,-101.81 380.05,-89.41 451.62,-84.67"/>
<polygon fill="#63b8ff" stroke="#63b8ff" points="451.8,-88.17 461.56,-84.04 451.36,-81.18 451.8,-88.17"/>
</g>
<!-- Node8 -->
<g id="node8" class="node">
<title>Node8</title>
<g id="a_node8"><a xlink:href="vec_8h.html" target="_top" xlink:title=" ">
<polygon fill="white" stroke="#666666" points="326,-156.5 234,-156.5 234,-137.5 326,-137.5 326,-156.5"/>
<text text-anchor="middle" x="280" y="-144.5" font-family="Helvetica,sans-Serif" font-size="10.00">dolphin/mtx/vec.h</text>
</a>
</g>
</g>
<!-- Node7&#45;&gt;Node8 -->
<g id="edge8" class="edge">
<title>Node7&#45;&gt;Node8</title>
<path fill="none" stroke="#63b8ff" d="M216.29,-203.1C227.89,-193.07 246.98,-176.56 261.25,-164.22"/>
<polygon fill="#63b8ff" stroke="#63b8ff" points="263.38,-167 268.65,-157.81 258.8,-161.71 263.38,-167"/>
</g>
<!-- Node9 -->
<g id="node9" class="node">
<title>Node9</title>
<g id="a_node9"><a xlink:href="float_8h.html" target="_top" xlink:title=" ">
<polygon fill="white" stroke="#666666" points="178,-156.5 100,-156.5 100,-137.5 178,-137.5 178,-156.5"/>
<text text-anchor="middle" x="139" y="-144.5" font-family="Helvetica,sans-Serif" font-size="10.00">MSL_C/float.h</text>
</a>
</g>
</g>
<!-- Node7&#45;&gt;Node9 -->
<g id="edge11" class="edge">
<title>Node7&#45;&gt;Node9</title>
<path fill="none" stroke="#63b8ff" d="M196.68,-203.1C186.28,-193.17 169.22,-176.87 156.35,-164.57"/>
<polygon fill="#63b8ff" stroke="#63b8ff" points="158.98,-162.25 149.33,-157.87 154.14,-167.31 158.98,-162.25"/>
</g>
<!-- Node12 -->
<g id="node12" class="node">
<title>Node12</title>
<g id="a_node12"><a xlink:href="math_8h.html" target="_top" xlink:title=" ">
<polygon fill="white" stroke="#666666" points="82,-156.5 0,-156.5 0,-137.5 82,-137.5 82,-156.5"/>
<text text-anchor="middle" x="41" y="-144.5" font-family="Helvetica,sans-Serif" font-size="10.00">MSL_C/math.h</text>
</a>
</g>
</g>
<!-- Node7&#45;&gt;Node12 -->
<g id="edge14" class="edge">
<title>Node7&#45;&gt;Node12</title>
<path fill="none" stroke="#63b8ff" d="M183.06,-203.1C154.94,-192.19 107.05,-173.62 74.74,-161.09"/>
<polygon fill="#63b8ff" stroke="#63b8ff" points="76.01,-157.83 65.42,-157.47 73.48,-164.35 76.01,-157.83"/>
</g>
<!-- Node8&#45;&gt;Node5 -->
<g id="edge9" class="edge">
<title>Node8&#45;&gt;Node5</title>
<path fill="none" stroke="#63b8ff" d="M311.15,-137.1C350.4,-125.88 418.04,-106.56 461.88,-94.03"/>
<polygon fill="#63b8ff" stroke="#63b8ff" points="462.65,-97.45 471.3,-91.34 460.73,-90.72 462.65,-97.45"/>
</g>
<!-- Node10 -->
<g id="node10" class="node">
<title>Node10</title>
<g id="a_node10"><a xlink:href="MSL__Common_2Src_2float_8h.html" target="_top" xlink:title=" ">
<polygon fill="white" stroke="#666666" points="158,-96 22,-96 22,-66 158,-66 158,-96"/>
<text text-anchor="start" x="30" y="-84" font-family="Helvetica,sans-Serif" font-size="10.00">MSL_C/MSL_Common/Src</text>
<text text-anchor="middle" x="90" y="-73" font-family="Helvetica,sans-Serif" font-size="10.00">/float.h</text>
</a>
</g>
</g>
<!-- Node9&#45;&gt;Node10 -->
<g id="edge12" class="edge">
<title>Node9&#45;&gt;Node10</title>
<path fill="none" stroke="#63b8ff" d="M132.19,-137.1C125.86,-128.84 116.16,-116.17 107.66,-105.06"/>
<polygon fill="#63b8ff" stroke="#63b8ff" points="110.68,-103.25 101.82,-97.44 105.12,-107.5 110.68,-103.25"/>
</g>
<!-- Node11 -->
<g id="node11" class="node">
<title>Node11</title>
<g id="a_node11"><a xlink:href="fdlibm_8h.html" target="_top" xlink:title=" ">
<polygon fill="white" stroke="#666666" points="115,-24.5 65,-24.5 65,-5.5 115,-5.5 115,-24.5"/>
<text text-anchor="middle" x="90" y="-12.5" font-family="Helvetica,sans-Serif" font-size="10.00">fdlibm.h</text>
</a>
</g>
</g>
<!-- Node10&#45;&gt;Node11 -->
<g id="edge13" class="edge">
<title>Node10&#45;&gt;Node11</title>
<path fill="none" stroke="#63b8ff" d="M90,-65.8C90,-57.09 90,-45.81 90,-36.18"/>
<polygon fill="#63b8ff" stroke="#63b8ff" points="93.5,-36.36 90,-26.36 86.5,-36.36 93.5,-36.36"/>
</g>
<!-- Node12&#45;&gt;Node10 -->
<g id="edge15" class="edge">
<title>Node12&#45;&gt;Node10</title>
<path fill="none" stroke="#63b8ff" d="M47.81,-137.1C54.14,-128.84 63.84,-116.17 72.34,-105.06"/>
<polygon fill="#63b8ff" stroke="#63b8ff" points="74.88,-107.5 78.18,-97.44 69.32,-103.25 74.88,-107.5"/>
</g>
<!-- Node13&#45;&gt;Node5 -->
<g id="edge18" class="edge">
<title>Node13&#45;&gt;Node5</title>
<path fill="none" stroke="#63b8ff" d="M353.58,-203.11C353.3,-186.94 355.03,-152.5 373,-132 393.1,-109.07 424.88,-96.61 452.11,-89.86"/>
<polygon fill="#63b8ff" stroke="#63b8ff" points="452.61,-93.34 461.59,-87.72 451.06,-86.51 452.61,-93.34"/>
</g>
<!-- Node14&#45;&gt;Node5 -->
<g id="edge20" class="edge">
<title>Node14&#45;&gt;Node5</title>
<path fill="none" stroke="#63b8ff" d="M584.21,-263.8C591.54,-255.38 601.75,-241.9 606,-228 618.47,-187.2 628.57,-168.21 606,-132 594.78,-114.01 575,-102.31 555.82,-94.79"/>
<polygon fill="#63b8ff" stroke="#63b8ff" points="557,-91.5 546.41,-91.44 554.66,-98.09 557,-91.5"/>
</g>
<!-- Node15&#45;&gt;Node5 -->
<g id="edge22" class="edge">
<title>Node15&#45;&gt;Node5</title>
<path fill="none" stroke="#63b8ff" d="M737.89,-263.64C723.47,-239.35 680.03,-170.94 627,-132 603.72,-114.9 573.76,-102.56 549.24,-94.42"/>
<polygon fill="#63b8ff" stroke="#63b8ff" points="550.43,-91.13 539.84,-91.43 548.31,-97.8 550.43,-91.13"/>
</g>
</g>
</svg>
        <g id="navigator" transform="translate(0 0)" fill="#404254">
                <rect fill="#f2f5e9" fill-opacity="0.5" stroke="#606060" stroke-width=".5" x="0" y="0" width="60" height="60"/>
                <use id="zoomplus" xlink:href="#zoomPlus" x="17" y="9" onmousedown="handleZoom(evt,'in')"/>
                <use id="zoomminus" xlink:href="#zoomMin" x="42" y="9" onmousedown="handleZoom(evt,'out')"/>
                <use id="reset" xlink:href="#resetDef" x="30" y="36" onmousedown="handleReset()"/>
                <g id="arrowUp" xlink:href="#dirArrow" transform="translate(30 24)" onmousedown="handlePan(0,-1)">
                  <use xlink:href="#rim" fill="#404040">
                        <set attributeName="fill" to="#808080" begin="arrowUp.mouseover" end="arrowUp.mouseout"/>
                  </use>
                  <path fill="none" stroke="white" stroke-width="1.5" d="M0,-3.0v7 M-2.5,-0.5L0,-3.0L2.5,-0.5"/>
                </g>
                <g id="arrowRight" xlink:href="#dirArrow" transform="rotate(90) translate(36 -43)" onmousedown="handlePan(1,0)">
                  <use xlink:href="#rim" fill="#404040">
                        <set attributeName="fill" to="#808080" begin="arrowRight.mouseover" end="arrowRight.mouseout"/>
                  </use>
                  <path fill="none" stroke="white" stroke-width="1.5" d="M0,-3.0v7 M-2.5,-0.5L0,-3.0L2.5,-0.5"/>
                </g>
                <g id="arrowDown" xlink:href="#dirArrow" transform="rotate(180) translate(-30 -48)" onmousedown="handlePan(0,1)">
                  <use xlink:href="#rim" fill="#404040">
                        <set attributeName="fill" to="#808080" begin="arrowDown.mouseover" end="arrowDown.mouseout"/>
                  </use>
                  <path fill="none" stroke="white" stroke-width="1.5" d="M0,-3.0v7 M-2.5,-0.5L0,-3.0L2.5,-0.5"/>
                </g>
                <g id="arrowLeft" xlink:href="#dirArrow" transform="rotate(270) translate(-36 17)" onmousedown="handlePan(-1,0)">
                  <use xlink:href="#rim" fill="#404040">
                        <set attributeName="fill" to="#808080" begin="arrowLeft.mouseover" end="arrowLeft.mouseout"/>
                  </use>
                  <path fill="none" stroke="white" stroke-width="1.5" d="M0,-3.0v7 M-2.5,-0.5L0,-3.0L2.5,-0.5"/>
                </g>
        </g>
        <svg viewBox="0 0 15 15" width="100%" height="30px" preserveAspectRatio="xMaxYMin meet">
         <g id="arrow_out" transform="scale(0.3 0.3)">
          <a xlink:href="JAIStreamMgr_8h__incl_org.svg" target="_base">
           <rect id="button" ry="5" rx="5" y="6" x="6" height="38" width="38"
                fill="#f2f5e9" fill-opacity="0.5" stroke="#606060" stroke-width="1.0"/>
           <path id="arrow"
             d="M 11.500037,31.436501 C 11.940474,20.09759 22.043105,11.32322 32.158766,21.979434 L 37.068811,17.246167 C 37.068811,17.246167 37.088388,32 37.088388,32 L 22.160133,31.978069 C 22.160133,31.978069 26.997745,27.140456 26.997745,27.140456 C 18.528582,18.264221 13.291696,25.230495 11.500037,31.436501 z"
             style="fill:#404040;"/>
          </a>
         </g>
        </svg>
</svg>
