<?xml version="1.0" encoding="UTF-8" standalone="no"?>
<!DOCTYPE svg PUBLIC "-//W3C//DTD SVG 1.1//EN"
 "http://www.w3.org/Graphics/SVG/1.1/DTD/svg11.dtd">
<!-- Generated by graphviz version 7.0.5 (20221223.1930)
 -->
<!-- Title: include/JSystem/JAudio2/JAISoundInfo.h Pages: 1 -->
<svg width="707pt" height="357pt"
 viewBox="0.00 0.00 707.17 357.00" xmlns="http://www.w3.org/2000/svg" xmlns:xlink="http://www.w3.org/1999/xlink">
<g id="graph0" class="graph" transform="scale(1 1) rotate(0) translate(4 353)">
<title>include/JSystem/JAudio2/JAISoundInfo.h</title>
<!-- Node1 -->
<g id="node1" class="node">
<title>Node1</title>
<g id="a_node1"><a xlink:title=" ">
<polygon fill="#999999" stroke="#666666" points="626.5,-349 499.5,-349 499.5,-319 626.5,-319 626.5,-349"/>
<text text-anchor="start" x="507.5" y="-337" font-family="Helvetica,sans-Serif" font-size="10.00">include/JSystem/JAudio2</text>
<text text-anchor="middle" x="563" y="-326" font-family="Helvetica,sans-Serif" font-size="10.00">/JAISoundInfo.h</text>
</a>
</g>
</g>
<!-- Node2 -->
<g id="node2" class="node">
<title>Node2</title>
<g id="a_node2"><a xlink:href="types_8h.html" target="_top" xlink:title=" ">
<polygon fill="white" stroke="#666666" points="451.5,-90.5 370.5,-90.5 370.5,-71.5 451.5,-71.5 451.5,-90.5"/>
<text text-anchor="middle" x="411" y="-78.5" font-family="Helvetica,sans-Serif" font-size="10.00">dolphin/types.h</text>
</a>
</g>
</g>
<!-- Node1&#45;&gt;Node2 -->
<g id="edge1" class="edge">
<title>Node1&#45;&gt;Node2</title>
<path fill="none" stroke="#63b8ff" d="M606.22,-318.62C622.63,-310.8 639.61,-299.32 649,-283 671.12,-244.56 758.71,-271.65 630,-132 607.81,-107.92 520.49,-93.92 463.04,-87.13"/>
<polygon fill="#63b8ff" stroke="#63b8ff" points="463.46,-83.66 453.13,-86 462.67,-90.61 463.46,-83.66"/>
</g>
<!-- Node4 -->
<g id="node4" class="node">
<title>Node4</title>
<g id="a_node4"><a xlink:href="JAISound_8h.html" target="_top" xlink:title=" ">
<polygon fill="white" stroke="#666666" points="465,-283 319,-283 319,-264 465,-264 465,-283"/>
<text text-anchor="middle" x="392" y="-271" font-family="Helvetica,sans-Serif" font-size="10.00">JSystem/JAudio2/JAISound.h</text>
</a>
</g>
</g>
<!-- Node1&#45;&gt;Node4 -->
<g id="edge3" class="edge">
<title>Node1&#45;&gt;Node4</title>
<path fill="none" stroke="#63b8ff" d="M520.73,-318.54C492.48,-308.87 455.68,-296.29 428.67,-287.04"/>
<polygon fill="#63b8ff" stroke="#63b8ff" points="430.14,-283.85 419.54,-283.92 427.87,-290.47 430.14,-283.85"/>
</g>
<!-- Node14 -->
<g id="node14" class="node">
<title>Node14</title>
<g id="a_node14"><a xlink:href="JASGadget_8h.html" target="_top" xlink:title=" ">
<polygon fill="white" stroke="#666666" points="640,-283 486,-283 486,-264 640,-264 640,-283"/>
<text text-anchor="middle" x="563" y="-271" font-family="Helvetica,sans-Serif" font-size="10.00">JSystem/JAudio2/JASGadget.h</text>
</a>
</g>
</g>
<!-- Node1&#45;&gt;Node14 -->
<g id="edge20" class="edge">
<title>Node1&#45;&gt;Node14</title>
<path fill="none" stroke="#63b8ff" d="M563,-318.54C563,-311.34 563,-302.53 563,-294.68"/>
<polygon fill="#63b8ff" stroke="#63b8ff" points="566.5,-294.69 563,-284.69 559.5,-294.69 566.5,-294.69"/>
</g>
<!-- Node3 -->
<g id="node3" class="node">
<title>Node3</title>
<g id="a_node3"><a xlink:href="stddef_8h.html" target="_top" xlink:title=" ">
<polygon fill="white" stroke="#666666" points="479,-30 343,-30 343,0 479,0 479,-30"/>
<text text-anchor="start" x="351" y="-18" font-family="Helvetica,sans-Serif" font-size="10.00">MSL_C/MSL_Common/Src</text>
<text text-anchor="middle" x="411" y="-7" font-family="Helvetica,sans-Serif" font-size="10.00">/stddef.h</text>
</a>
</g>
</g>
<!-- Node2&#45;&gt;Node3 -->
<g id="edge2" class="edge">
<title>Node2&#45;&gt;Node3</title>
<path fill="none" stroke="#63b8ff" d="M411,-71.1C411,-63.41 411,-51.92 411,-41.42"/>
<polygon fill="#63b8ff" stroke="#63b8ff" points="414.5,-41.75 411,-31.75 407.5,-41.75 414.5,-41.75"/>
</g>
<!-- Node4&#45;&gt;Node2 -->
<g id="edge17" class="edge">
<title>Node4&#45;&gt;Node2</title>
<path fill="none" stroke="#63b8ff" d="M392.89,-263.57C395.78,-234.63 404.92,-142.96 409,-102.05"/>
<polygon fill="#63b8ff" stroke="#63b8ff" points="412.47,-102.5 409.98,-92.2 405.51,-101.8 412.47,-102.5"/>
</g>
<!-- Node5 -->
<g id="node5" class="node">
<title>Node5</title>
<g id="a_node5"><a xlink:href="JAISoundParams_8h.html" target="_top" xlink:title=" ">
<polygon fill="white" stroke="#666666" points="559.5,-228 420.5,-228 420.5,-198 559.5,-198 559.5,-228"/>
<text text-anchor="start" x="428.5" y="-216" font-family="Helvetica,sans-Serif" font-size="10.00">JSystem/JAudio2/JAISound</text>
<text text-anchor="middle" x="490" y="-205" font-family="Helvetica,sans-Serif" font-size="10.00">Params.h</text>
</a>
</g>
</g>
<!-- Node4&#45;&gt;Node5 -->
<g id="edge4" class="edge">
<title>Node4&#45;&gt;Node5</title>
<path fill="none" stroke="#63b8ff" d="M406.88,-263.62C419.95,-255.81 439.45,-244.17 456.28,-234.13"/>
<polygon fill="#63b8ff" stroke="#63b8ff" points="457.72,-237.35 464.51,-229.22 454.13,-231.34 457.72,-237.35"/>
</g>
<!-- Node7 -->
<g id="node7" class="node">
<title>Node7</title>
<g id="a_node7"><a xlink:href="JGeometry_8h.html" target="_top" xlink:title=" ">
<polygon fill="white" stroke="#666666" points="295.5,-222.5 182.5,-222.5 182.5,-203.5 295.5,-203.5 295.5,-222.5"/>
<text text-anchor="middle" x="239" y="-210.5" font-family="Helvetica,sans-Serif" font-size="10.00">JSystem/JGeometry.h</text>
</a>
</g>
</g>
<!-- Node4&#45;&gt;Node7 -->
<g id="edge8" class="edge">
<title>Node4&#45;&gt;Node7</title>
<path fill="none" stroke="#63b8ff" d="M368.76,-263.62C343.26,-253.87 302.09,-238.12 272.97,-226.99"/>
<polygon fill="#63b8ff" stroke="#63b8ff" points="274.46,-223.81 263.87,-223.51 271.96,-230.35 274.46,-223.81"/>
</g>
<!-- Node13 -->
<g id="node13" class="node">
<title>Node13</title>
<g id="a_node13"><a xlink:href="global_8h.html" target="_top" xlink:title=" ">
<polygon fill="white" stroke="#666666" points="364,-222.5 314,-222.5 314,-203.5 364,-203.5 364,-222.5"/>
<text text-anchor="middle" x="339" y="-210.5" font-family="Helvetica,sans-Serif" font-size="10.00">global.h</text>
</a>
</g>
</g>
<!-- Node4&#45;&gt;Node13 -->
<g id="edge18" class="edge">
<title>Node4&#45;&gt;Node13</title>
<path fill="none" stroke="#63b8ff" d="M384.18,-263.87C376.35,-255.23 364.1,-241.7 354.33,-230.92"/>
<polygon fill="#63b8ff" stroke="#63b8ff" points="357.18,-228.85 347.87,-223.79 351.99,-233.55 357.18,-228.85"/>
</g>
<!-- Node5&#45;&gt;Node2 -->
<g id="edge7" class="edge">
<title>Node5&#45;&gt;Node2</title>
<path fill="none" stroke="#63b8ff" d="M476.81,-197.84C468.24,-188.2 457.18,-174.89 449,-162 436.54,-142.36 425.54,-117.99 418.62,-101.35"/>
<polygon fill="#63b8ff" stroke="#63b8ff" points="421.9,-100.13 414.91,-92.17 415.41,-102.75 421.9,-100.13"/>
</g>
<!-- Node6 -->
<g id="node6" class="node">
<title>Node6</title>
<g id="a_node6"><a xlink:href="JASSoundParams_8h.html" target="_top" xlink:title=" ">
<polygon fill="white" stroke="#666666" points="601.5,-162 458.5,-162 458.5,-132 601.5,-132 601.5,-162"/>
<text text-anchor="start" x="466.5" y="-150" font-family="Helvetica,sans-Serif" font-size="10.00">JSystem/JAudio2/JASSound</text>
<text text-anchor="middle" x="530" y="-139" font-family="Helvetica,sans-Serif" font-size="10.00">Params.h</text>
</a>
</g>
</g>
<!-- Node5&#45;&gt;Node6 -->
<g id="edge5" class="edge">
<title>Node5&#45;&gt;Node6</title>
<path fill="none" stroke="#63b8ff" d="M498.88,-197.8C503.64,-190.17 509.64,-180.57 515.1,-171.84"/>
<polygon fill="#63b8ff" stroke="#63b8ff" points="518.01,-173.78 520.35,-163.45 512.08,-170.07 518.01,-173.78"/>
</g>
<!-- Node6&#45;&gt;Node2 -->
<g id="edge6" class="edge">
<title>Node6&#45;&gt;Node2</title>
<path fill="none" stroke="#63b8ff" d="M503.29,-131.64C483.75,-121.13 457.34,-106.92 437.78,-96.4"/>
<polygon fill="#63b8ff" stroke="#63b8ff" points="439.51,-93.36 429.04,-91.7 436.19,-99.52 439.51,-93.36"/>
</g>
<!-- Node7&#45;&gt;Node2 -->
<g id="edge11" class="edge">
<title>Node7&#45;&gt;Node2</title>
<path fill="none" stroke="#63b8ff" d="M250.82,-203.06C279.67,-181.26 353.94,-125.13 390.31,-97.64"/>
<polygon fill="#63b8ff" stroke="#63b8ff" points="392.02,-100.73 397.89,-91.91 387.8,-95.15 392.02,-100.73"/>
</g>
<!-- Node8 -->
<g id="node8" class="node">
<title>Node8</title>
<g id="a_node8"><a xlink:href="vec_8h.html" target="_top" xlink:title=" ">
<polygon fill="white" stroke="#666666" points="288,-156.5 196,-156.5 196,-137.5 288,-137.5 288,-156.5"/>
<text text-anchor="middle" x="242" y="-144.5" font-family="Helvetica,sans-Serif" font-size="10.00">dolphin/mtx/vec.h</text>
</a>
</g>
</g>
<!-- Node7&#45;&gt;Node8 -->
<g id="edge9" class="edge">
<title>Node7&#45;&gt;Node8</title>
<path fill="none" stroke="#63b8ff" d="M239.42,-203.1C239.84,-194.12 240.5,-179.95 241.05,-168.22"/>
<polygon fill="#63b8ff" stroke="#63b8ff" points="244.54,-168.49 241.52,-158.34 237.55,-168.16 244.54,-168.49"/>
</g>
<!-- Node9 -->
<g id="node9" class="node">
<title>Node9</title>
<g id="a_node9"><a xlink:href="float_8h.html" target="_top" xlink:title=" ">
<polygon fill="white" stroke="#666666" points="78,-156.5 0,-156.5 0,-137.5 78,-137.5 78,-156.5"/>
<text text-anchor="middle" x="39" y="-144.5" font-family="Helvetica,sans-Serif" font-size="10.00">MSL_C/float.h</text>
</a>
</g>
</g>
<!-- Node7&#45;&gt;Node9 -->
<g id="edge12" class="edge">
<title>Node7&#45;&gt;Node9</title>
<path fill="none" stroke="#63b8ff" d="M211.19,-203.1C176.51,-192 117.03,-172.97 77.86,-160.43"/>
<polygon fill="#63b8ff" stroke="#63b8ff" points="78.93,-157.1 68.34,-157.39 76.79,-163.77 78.93,-157.1"/>
</g>
<!-- Node12 -->
<g id="node12" class="node">
<title>Node12</title>
<g id="a_node12"><a xlink:href="math_8h.html" target="_top" xlink:title=" ">
<polygon fill="white" stroke="#666666" points="178,-156.5 96,-156.5 96,-137.5 178,-137.5 178,-156.5"/>
<text text-anchor="middle" x="137" y="-144.5" font-family="Helvetica,sans-Serif" font-size="10.00">MSL_C/math.h</text>
</a>
</g>
</g>
<!-- Node7&#45;&gt;Node12 -->
<g id="edge15" class="edge">
<title>Node7&#45;&gt;Node12</title>
<path fill="none" stroke="#63b8ff" d="M224.82,-203.1C208.22,-192.69 180.49,-175.29 160.63,-162.83"/>
<polygon fill="#63b8ff" stroke="#63b8ff" points="162.68,-159.98 152.34,-157.63 158.95,-165.91 162.68,-159.98"/>
</g>
<!-- Node8&#45;&gt;Node2 -->
<g id="edge10" class="edge">
<title>Node8&#45;&gt;Node2</title>
<path fill="none" stroke="#63b8ff" d="M265.5,-137.1C294.43,-126.15 343.78,-107.46 376.88,-94.92"/>
<polygon fill="#63b8ff" stroke="#63b8ff" points="377.9,-98.28 386.01,-91.46 375.42,-91.73 377.9,-98.28"/>
</g>
<!-- Node10 -->
<g id="node10" class="node">
<title>Node10</title>
<g id="a_node10"><a xlink:href="MSL__Common_2Src_2float_8h.html" target="_top" xlink:title=" ">
<polygon fill="white" stroke="#666666" points="156,-96 20,-96 20,-66 156,-66 156,-96"/>
<text text-anchor="start" x="28" y="-84" font-family="Helvetica,sans-Serif" font-size="10.00">MSL_C/MSL_Common/Src</text>
<text text-anchor="middle" x="88" y="-73" font-family="Helvetica,sans-Serif" font-size="10.00">/float.h</text>
</a>
</g>
</g>
<!-- Node9&#45;&gt;Node10 -->
<g id="edge13" class="edge">
<title>Node9&#45;&gt;Node10</title>
<path fill="none" stroke="#63b8ff" d="M45.81,-137.1C52.14,-128.84 61.84,-116.17 70.34,-105.06"/>
<polygon fill="#63b8ff" stroke="#63b8ff" points="72.88,-107.5 76.18,-97.44 67.32,-103.25 72.88,-107.5"/>
</g>
<!-- Node11 -->
<g id="node11" class="node">
<title>Node11</title>
<g id="a_node11"><a xlink:href="fdlibm_8h.html" target="_top" xlink:title=" ">
<polygon fill="white" stroke="#666666" points="113,-24.5 63,-24.5 63,-5.5 113,-5.5 113,-24.5"/>
<text text-anchor="middle" x="88" y="-12.5" font-family="Helvetica,sans-Serif" font-size="10.00">fdlibm.h</text>
</a>
</g>
</g>
<!-- Node10&#45;&gt;Node11 -->
<g id="edge14" class="edge">
<title>Node10&#45;&gt;Node11</title>
<path fill="none" stroke="#63b8ff" d="M88,-65.8C88,-57.09 88,-45.81 88,-36.18"/>
<polygon fill="#63b8ff" stroke="#63b8ff" points="91.5,-36.36 88,-26.36 84.5,-36.36 91.5,-36.36"/>
</g>
<!-- Node12&#45;&gt;Node10 -->
<g id="edge16" class="edge">
<title>Node12&#45;&gt;Node10</title>
<path fill="none" stroke="#63b8ff" d="M130.19,-137.1C123.86,-128.84 114.16,-116.17 105.66,-105.06"/>
<polygon fill="#63b8ff" stroke="#63b8ff" points="108.68,-103.25 99.82,-97.44 103.12,-107.5 108.68,-103.25"/>
</g>
<!-- Node13&#45;&gt;Node2 -->
<g id="edge19" class="edge">
<title>Node13&#45;&gt;Node2</title>
<path fill="none" stroke="#63b8ff" d="M342.75,-203.41C349.32,-188.55 363.6,-157.23 378,-132 384.14,-121.24 391.72,-109.66 398.06,-100.36"/>
<polygon fill="#63b8ff" stroke="#63b8ff" points="400.87,-102.45 403.69,-92.23 395.12,-98.46 400.87,-102.45"/>
</g>
<!-- Node14&#45;&gt;Node2 -->
<g id="edge21" class="edge">
<title>Node14&#45;&gt;Node2</title>
<path fill="none" stroke="#63b8ff" d="M571.11,-263.64C591.8,-239.93 642.74,-173.99 610,-132 592.09,-109.04 515.88,-95.01 463.15,-87.87"/>
<polygon fill="#63b8ff" stroke="#63b8ff" points="463.82,-84.43 453.46,-86.61 462.92,-91.37 463.82,-84.43"/>
</g>
</g>
</svg>
