<?xml version="1.0" encoding="UTF-8" standalone="no"?>
<!DOCTYPE svg PUBLIC "-//W3C//DTD SVG 1.1//EN"
 "http://www.w3.org/Graphics/SVG/1.1/DTD/svg11.dtd">
<!-- Generated by graphviz version 7.0.5 (20221223.1930)
 -->
<!-- Title: libs/JSystem/JAudio2/JAISeq.cpp Pages: 1 -->
<!--zoomable 555 -->
<svg id="main" version="1.1" xmlns="http://www.w3.org/2000/svg" xmlns:xlink="http://www.w3.org/1999/xlink" xml:space="preserve" onload="init(evt)">
<style type="text/css"><![CDATA[
.edge:hover path { stroke: red; }
.edge:hover polygon { stroke: red; fill: red; }
]]></style>
<script type="text/javascript"><![CDATA[
var edges = document.getElementsByTagName('g');
if (edges && edges.length) {
  for (var i=0;i<edges.length;i++) {
    if (edges[i].id.substr(0,4)=='edge') {
      edges[i].setAttribute('class','edge');
    }
  }
}
]]></script>
        <defs>
                <circle id="rim" cx="0" cy="0" r="7"/>
                <circle id="rim2" cx="0" cy="0" r="3.5"/>
                <g id="zoomPlus">
                        <use xlink:href="#rim" fill="#404040">
                                <set attributeName="fill" to="#808080" begin="zoomplus.mouseover" end="zoomplus.mouseout"/>
                        </use>
                        <path d="M-4,0h8M0,-4v8" fill="none" stroke="white" stroke-width="1.5" pointer-events="none"/>
                </g>
                <g id="zoomMin">
                        <use xlink:href="#rim" fill="#404040">
                                <set attributeName="fill" to="#808080" begin="zoomminus.mouseover" end="zoomminus.mouseout"/>
                        </use>
                        <path d="M-4,0h8" fill="none" stroke="white" stroke-width="1.5" pointer-events="none"/>
                </g>
                <g id="dirArrow">
                        <path fill="none" stroke="white" stroke-width="1.5" d="M0,-3.0v7 M-2.5,-0.5L0,-3.0L2.5,-0.5"/>
                </g>
               <g id="resetDef">
                       <use xlink:href="#rim2" fill="#404040">
                               <set attributeName="fill" to="#808080" begin="reset.mouseover" end="reset.mouseout"/>
                       </use>
               </g>
        </defs>

<script type="text/javascript">
var viewWidth = 2557;
var viewHeight = 555;
var sectionId = 'dynsection-0';
</script>
<script xlink:href="svgpan.js"/>
<svg id="graph" class="graph">
<g id="viewport">
<title>libs/JSystem/JAudio2/JAISeq.cpp</title>
<!-- Node1 -->
<g id="node1" class="node">
<title>Node1</title>
<g id="a_node1"><a xlink:title=" ">
<polygon fill="#999999" stroke="#666666" points="1498.5,-547 1387.5,-547 1387.5,-517 1498.5,-517 1498.5,-547"/>
<text text-anchor="start" x="1395.5" y="-535" font-family="Helvetica,sans-Serif" font-size="10.00">libs/JSystem/JAudio2</text>
<text text-anchor="middle" x="1443" y="-524" font-family="Helvetica,sans-Serif" font-size="10.00">/JAISeq.cpp</text>
</a>
</g>
</g>
<!-- Node2 -->
<g id="node2" class="node">
<title>Node2</title>
<g id="a_node2"><a xlink:href="JAISeq_8h.html" target="_top" xlink:title=" ">
<polygon fill="white" stroke="#666666" points="741,-470 605,-470 605,-451 741,-451 741,-470"/>
<text text-anchor="middle" x="673" y="-458" font-family="Helvetica,sans-Serif" font-size="10.00">JSystem/JAudio2/JAISeq.h</text>
</a>
</g>
</g>
<!-- Node1&#45;&gt;Node2 -->
<g id="edge1" class="edge">
<title>Node1&#45;&gt;Node2</title>
<path fill="none" stroke="#63b8ff" d="M1387.37,-530.3C1269.23,-528.09 984.89,-518.91 750,-481 738.26,-479.1 725.69,-476.27 714.18,-473.35"/>
<polygon fill="#63b8ff" stroke="#63b8ff" points="715.12,-469.98 704.56,-470.82 713.34,-476.75 715.12,-469.98"/>
</g>
<!-- Node25 -->
<g id="node25" class="node">
<title>Node25</title>
<g id="a_node25"><a xlink:href="JAISeqMgr_8h.html" target="_top" xlink:title=" ">
<polygon fill="white" stroke="#666666" points="585,-470 433,-470 433,-451 585,-451 585,-470"/>
<text text-anchor="middle" x="509" y="-458" font-family="Helvetica,sans-Serif" font-size="10.00">JSystem/JAudio2/JAISeqMgr.h</text>
</a>
</g>
</g>
<!-- Node1&#45;&gt;Node25 -->
<g id="edge32" class="edge">
<title>Node1&#45;&gt;Node25</title>
<path fill="none" stroke="#63b8ff" d="M1387.2,-530.81C1251.2,-529.68 892.11,-522.65 596,-481 582.23,-479.06 567.41,-476.08 553.97,-473.03"/>
<polygon fill="#63b8ff" stroke="#63b8ff" points="555.07,-469.7 544.54,-470.82 553.47,-476.51 555.07,-469.7"/>
</g>
<!-- Node26 -->
<g id="node26" class="node">
<title>Node26</title>
<g id="a_node26"><a xlink:href="JASAudioReseter_8h.html" target="_top" xlink:title=" ">
<polygon fill="white" stroke="#666666" points="899,-475.5 759,-475.5 759,-445.5 899,-445.5 899,-475.5"/>
<text text-anchor="start" x="767" y="-463.5" font-family="Helvetica,sans-Serif" font-size="10.00">JSystem/JAudio2/JASAudio</text>
<text text-anchor="middle" x="829" y="-452.5" font-family="Helvetica,sans-Serif" font-size="10.00">Reseter.h</text>
</a>
</g>
</g>
<!-- Node1&#45;&gt;Node26 -->
<g id="edge36" class="edge">
<title>Node1&#45;&gt;Node26</title>
<path fill="none" stroke="#63b8ff" d="M1387.19,-528.52C1289.5,-523.58 1081.38,-510.33 908,-481 903.46,-480.23 898.79,-479.34 894.1,-478.37"/>
<polygon fill="#63b8ff" stroke="#63b8ff" points="895.17,-475.03 884.65,-476.32 893.68,-481.87 895.17,-475.03"/>
</g>
<!-- Node28 -->
<g id="node28" class="node">
<title>Node28</title>
<g id="a_node28"><a xlink:href="dol2asm_8h.html" target="_top" xlink:title=" ">
<polygon fill="white" stroke="#666666" points="978.5,-470 917.5,-470 917.5,-451 978.5,-451 978.5,-470"/>
<text text-anchor="middle" x="948" y="-458" font-family="Helvetica,sans-Serif" font-size="10.00">dol2asm.h</text>
</a>
</g>
</g>
<!-- Node1&#45;&gt;Node28 -->
<g id="edge39" class="edge">
<title>Node1&#45;&gt;Node28</title>
<path fill="none" stroke="#63b8ff" d="M1387.19,-530.98C1300.18,-529.59 1127.7,-521.4 988,-481 983.02,-479.56 977.91,-477.54 973.07,-475.33"/>
<polygon fill="#63b8ff" stroke="#63b8ff" points="974.95,-472.36 964.44,-471.06 971.84,-478.63 974.95,-472.36"/>
</g>
<!-- Node29 -->
<g id="node29" class="node">
<title>Node29</title>
<g id="a_node29"><a xlink:title=" ">
<polygon fill="#e0e0e0" stroke="#999999" points="1129.5,-475.5 996.5,-475.5 996.5,-445.5 1129.5,-445.5 1129.5,-475.5"/>
<text text-anchor="start" x="1004.5" y="-463.5" font-family="Helvetica,sans-Serif" font-size="10.00">asm/JSystem/JAudio2</text>
<text text-anchor="middle" x="1063" y="-452.5" font-family="Helvetica,sans-Serif" font-size="10.00">/JAISeq/func_802A0A6C.s</text>
</a>
</g>
</g>
<!-- Node1&#45;&gt;Node29 -->
<g id="edge40" class="edge">
<title>Node1&#45;&gt;Node29</title>
<path fill="none" stroke="#63b8ff" d="M1387.25,-523.34C1326.08,-514.58 1225.11,-499.09 1139,-481 1135.4,-480.24 1131.72,-479.43 1128,-478.58"/>
<polygon fill="#63b8ff" stroke="#63b8ff" points="1128.85,-475.18 1118.31,-476.29 1127.23,-481.99 1128.85,-475.18"/>
</g>
<!-- Node30 -->
<g id="node30" class="node">
<title>Node30</title>
<g id="a_node30"><a xlink:title=" ">
<polygon fill="#e0e0e0" stroke="#999999" points="1280.5,-475.5 1147.5,-475.5 1147.5,-445.5 1280.5,-445.5 1280.5,-475.5"/>
<text text-anchor="start" x="1155.5" y="-463.5" font-family="Helvetica,sans-Serif" font-size="10.00">asm/JSystem/JAudio2</text>
<text text-anchor="middle" x="1214" y="-452.5" font-family="Helvetica,sans-Serif" font-size="10.00">/JAISeq/func_802A0A8C.s</text>
</a>
</g>
</g>
<!-- Node1&#45;&gt;Node30 -->
<g id="edge41" class="edge">
<title>Node1&#45;&gt;Node30</title>
<path fill="none" stroke="#63b8ff" d="M1395.27,-516.52C1359.6,-505.69 1310.64,-490.83 1272.59,-479.28"/>
<polygon fill="#63b8ff" stroke="#63b8ff" points="1273.7,-475.96 1263.11,-476.41 1271.67,-482.66 1273.7,-475.96"/>
</g>
<!-- Node31 -->
<g id="node31" class="node">
<title>Node31</title>
<g id="a_node31"><a xlink:title=" ">
<polygon fill="#e0e0e0" stroke="#999999" points="1437.5,-481 1298.5,-481 1298.5,-440 1437.5,-440 1437.5,-481"/>
<text text-anchor="start" x="1306.5" y="-469" font-family="Helvetica,sans-Serif" font-size="10.00">asm/JSystem/JAudio2</text>
<text text-anchor="start" x="1306.5" y="-458" font-family="Helvetica,sans-Serif" font-size="10.00">/JAISeq/reserveChildTracks</text>
<text text-anchor="middle" x="1368" y="-447" font-family="Helvetica,sans-Serif" font-size="10.00">___6JAISeqFi.s</text>
</a>
</g>
</g>
<!-- Node1&#45;&gt;Node31 -->
<g id="edge42" class="edge">
<title>Node1&#45;&gt;Node31</title>
<path fill="none" stroke="#63b8ff" d="M1427.46,-516.6C1418.88,-508.65 1407.93,-498.5 1397.77,-489.09"/>
<polygon fill="#63b8ff" stroke="#63b8ff" points="1400.32,-486.67 1390.6,-482.44 1395.56,-491.81 1400.32,-486.67"/>
</g>
<!-- Node32 -->
<g id="node32" class="node">
<title>Node32</title>
<g id="a_node32"><a xlink:title=" ">
<polygon fill="#e0e0e0" stroke="#999999" points="1582.5,-481 1455.5,-481 1455.5,-440 1582.5,-440 1582.5,-481"/>
<text text-anchor="start" x="1463.5" y="-469" font-family="Helvetica,sans-Serif" font-size="10.00">asm/JSystem/JAudio2</text>
<text text-anchor="start" x="1463.5" y="-458" font-family="Helvetica,sans-Serif" font-size="10.00">/JAISeq/JAISeqMgr_calc</text>
<text text-anchor="middle" x="1519" y="-447" font-family="Helvetica,sans-Serif" font-size="10.00">___6JAISeqFv.s</text>
</a>
</g>
</g>
<!-- Node1&#45;&gt;Node32 -->
<g id="edge43" class="edge">
<title>Node1&#45;&gt;Node32</title>
<path fill="none" stroke="#63b8ff" d="M1458.75,-516.6C1467.44,-508.65 1478.54,-498.5 1488.83,-489.09"/>
<polygon fill="#63b8ff" stroke="#63b8ff" points="1491.09,-491.77 1496.1,-482.44 1486.36,-486.6 1491.09,-491.77"/>
</g>
<!-- Node33 -->
<g id="node33" class="node">
<title>Node33</title>
<g id="a_node33"><a xlink:title=" ">
<polygon fill="#e0e0e0" stroke="#999999" points="1741,-475.5 1601,-475.5 1601,-445.5 1741,-445.5 1741,-475.5"/>
<text text-anchor="start" x="1609" y="-463.5" font-family="Helvetica,sans-Serif" font-size="10.00">asm/JSystem/JAudio2</text>
<text text-anchor="middle" x="1671" y="-452.5" font-family="Helvetica,sans-Serif" font-size="10.00">/JAISeq/die___6JAISeqFv.s</text>
</a>
</g>
</g>
<!-- Node1&#45;&gt;Node33 -->
<g id="edge44" class="edge">
<title>Node1&#45;&gt;Node33</title>
<path fill="none" stroke="#63b8ff" d="M1490.52,-516.52C1526.03,-505.69 1574.78,-490.83 1612.67,-479.28"/>
<polygon fill="#63b8ff" stroke="#63b8ff" points="1613.55,-482.67 1622.09,-476.41 1611.51,-475.98 1613.55,-482.67"/>
</g>
<!-- Node34 -->
<g id="node34" class="node">
<title>Node34</title>
<g id="a_node34"><a xlink:title=" ">
<polygon fill="#e0e0e0" stroke="#999999" points="1889,-475.5 1759,-475.5 1759,-445.5 1889,-445.5 1889,-475.5"/>
<text text-anchor="start" x="1767" y="-463.5" font-family="Helvetica,sans-Serif" font-size="10.00">asm/JSystem/JAudio2</text>
<text text-anchor="middle" x="1824" y="-452.5" font-family="Helvetica,sans-Serif" font-size="10.00">/JAISeq/func_802A1268.s</text>
</a>
</g>
</g>
<!-- Node1&#45;&gt;Node34 -->
<g id="edge45" class="edge">
<title>Node1&#45;&gt;Node34</title>
<path fill="none" stroke="#63b8ff" d="M1498.76,-523.56C1560.51,-514.95 1662.85,-499.54 1750,-481 1753.51,-480.25 1757.1,-479.45 1760.72,-478.6"/>
<polygon fill="#63b8ff" stroke="#63b8ff" points="1761.23,-482.08 1770.13,-476.33 1759.58,-475.28 1761.23,-482.08"/>
</g>
<!-- Node35 -->
<g id="node35" class="node">
<title>Node35</title>
<g id="a_node35"><a xlink:title=" ">
<polygon fill="#e0e0e0" stroke="#999999" points="2035,-481 1907,-481 1907,-440 2035,-440 2035,-481"/>
<text text-anchor="start" x="1915" y="-469" font-family="Helvetica,sans-Serif" font-size="10.00">asm/JSystem/JAudio2</text>
<text text-anchor="start" x="1915" y="-458" font-family="Helvetica,sans-Serif" font-size="10.00">/JAISeq/JAISound_tryDie</text>
<text text-anchor="middle" x="1971" y="-447" font-family="Helvetica,sans-Serif" font-size="10.00">___6JAISeqFv.s</text>
</a>
</g>
</g>
<!-- Node1&#45;&gt;Node35 -->
<g id="edge46" class="edge">
<title>Node1&#45;&gt;Node35</title>
<path fill="none" stroke="#63b8ff" d="M1498.73,-527.61C1582.8,-521.89 1747.17,-508.39 1895.53,-481.32"/>
<polygon fill="#63b8ff" stroke="#63b8ff" points="1895.95,-484.8 1905.15,-479.54 1894.68,-477.92 1895.95,-484.8"/>
</g>
<!-- Node36 -->
<g id="node36" class="node">
<title>Node36</title>
<g id="a_node36"><a xlink:title=" ">
<polygon fill="#e0e0e0" stroke="#999999" points="2243,-481 2053,-481 2053,-440 2243,-440 2243,-481"/>
<text text-anchor="start" x="2061" y="-469" font-family="Helvetica,sans-Serif" font-size="10.00">asm/JSystem/JAudio2</text>
<text text-anchor="start" x="2061" y="-458" font-family="Helvetica,sans-Serif" font-size="10.00">/JAISeq/mixOut___6JAISeqFRC14</text>
<text text-anchor="middle" x="2148" y="-447" font-family="Helvetica,sans-Serif" font-size="10.00">JASSoundParams16JAISoundActivity.s</text>
</a>
</g>
</g>
<!-- Node1&#45;&gt;Node36 -->
<g id="edge47" class="edge">
<title>Node1&#45;&gt;Node36</title>
<path fill="none" stroke="#63b8ff" d="M1498.72,-528.27C1603.16,-522.75 1835.66,-508.49 2041.25,-481.3"/>
<polygon fill="#63b8ff" stroke="#63b8ff" points="2041.62,-484.78 2051.07,-479.99 2040.69,-477.84 2041.62,-484.78"/>
</g>
<!-- Node37 -->
<g id="node37" class="node">
<title>Node37</title>
<g id="a_node37"><a xlink:title=" ">
<polygon fill="#e0e0e0" stroke="#999999" points="2415,-475.5 2261,-475.5 2261,-445.5 2415,-445.5 2415,-475.5"/>
<text text-anchor="start" x="2269" y="-463.5" font-family="Helvetica,sans-Serif" font-size="10.00">asm/JSystem/JAudio2</text>
<text text-anchor="middle" x="2338" y="-452.5" font-family="Helvetica,sans-Serif" font-size="10.00">/JAISeq/getChild__6JAISeqFi.s</text>
</a>
</g>
</g>
<!-- Node1&#45;&gt;Node37 -->
<g id="edge48" class="edge">
<title>Node1&#45;&gt;Node37</title>
<path fill="none" stroke="#63b8ff" d="M1498.73,-530.64C1630.44,-529.12 1970.97,-521.28 2252,-481 2257.54,-480.21 2263.25,-479.24 2268.98,-478.17"/>
<polygon fill="#63b8ff" stroke="#63b8ff" points="2269.33,-481.67 2278.46,-476.29 2267.97,-474.8 2269.33,-481.67"/>
</g>
<!-- Node38 -->
<g id="node38" class="node">
<title>Node38</title>
<g id="a_node38"><a xlink:title=" ">
<polygon fill="#e0e0e0" stroke="#999999" points="2548.5,-481 2433.5,-481 2433.5,-440 2548.5,-440 2548.5,-481"/>
<text text-anchor="start" x="2441.5" y="-469" font-family="Helvetica,sans-Serif" font-size="10.00">asm/JSystem/JAudio2</text>
<text text-anchor="start" x="2441.5" y="-458" font-family="Helvetica,sans-Serif" font-size="10.00">/JAISeq/releaseChild</text>
<text text-anchor="middle" x="2491" y="-447" font-family="Helvetica,sans-Serif" font-size="10.00">__6JAISeqFi.s</text>
</a>
</g>
</g>
<!-- Node1&#45;&gt;Node38 -->
<g id="edge49" class="edge">
<title>Node1&#45;&gt;Node38</title>
<path fill="none" stroke="#63b8ff" d="M1498.71,-529.86C1675.36,-525.99 2222.58,-511.91 2421.88,-481.06"/>
<polygon fill="#63b8ff" stroke="#63b8ff" points="2422.28,-484.54 2431.59,-479.49 2421.16,-477.63 2422.28,-484.54"/>
</g>
<!-- Node3 -->
<g id="node3" class="node">
<title>Node3</title>
<g id="a_node3"><a xlink:href="JAISeqDataMgr_8h.html" target="_top" xlink:title=" ">
<polygon fill="white" stroke="#666666" points="511.5,-404 362.5,-404 362.5,-374 511.5,-374 511.5,-404"/>
<text text-anchor="start" x="370.5" y="-392" font-family="Helvetica,sans-Serif" font-size="10.00">JSystem/JAudio2/JAISeqData</text>
<text text-anchor="middle" x="437" y="-381" font-family="Helvetica,sans-Serif" font-size="10.00">Mgr.h</text>
</a>
</g>
</g>
<!-- Node2&#45;&gt;Node3 -->
<g id="edge2" class="edge">
<title>Node2&#45;&gt;Node3</title>
<path fill="none" stroke="#63b8ff" d="M642.63,-450.56C605.98,-439.76 543.49,-421.36 497,-407.67"/>
<polygon fill="#63b8ff" stroke="#63b8ff" points="498.18,-404.37 487.6,-404.9 496.2,-411.08 498.18,-404.37"/>
</g>
<!-- Node17 -->
<g id="node17" class="node">
<title>Node17</title>
<g id="a_node17"><a xlink:href="JASHeapCtrl_8h.html" target="_top" xlink:title=" ">
<polygon fill="white" stroke="#666666" points="932.5,-398.5 771.5,-398.5 771.5,-379.5 932.5,-379.5 932.5,-398.5"/>
<text text-anchor="middle" x="852" y="-386.5" font-family="Helvetica,sans-Serif" font-size="10.00">JSystem/JAudio2/JASHeapCtrl.h</text>
</a>
</g>
</g>
<!-- Node2&#45;&gt;Node17 -->
<g id="edge19" class="edge">
<title>Node2&#45;&gt;Node17</title>
<path fill="none" stroke="#63b8ff" d="M696.03,-450.56C727.18,-438.46 782.94,-416.82 818.66,-402.94"/>
<polygon fill="#63b8ff" stroke="#63b8ff" points="819.59,-406.34 827.64,-399.46 817.05,-399.81 819.59,-406.34"/>
</g>
<!-- Node18 -->
<g id="node18" class="node">
<title>Node18</title>
<g id="a_node18"><a xlink:href="JSUList_8h.html" target="_top" xlink:title=" ">
<polygon fill="white" stroke="#666666" points="798.5,-338 655.5,-338 655.5,-319 798.5,-319 798.5,-338"/>
<text text-anchor="middle" x="727" y="-326" font-family="Helvetica,sans-Serif" font-size="10.00">JSystem/JSupport/JSUList.h</text>
</a>
</g>
</g>
<!-- Node2&#45;&gt;Node18 -->
<g id="edge31" class="edge">
<title>Node2&#45;&gt;Node18</title>
<path fill="none" stroke="#63b8ff" d="M683.06,-450.84C693.98,-440.79 710.92,-423.14 719,-404 726.35,-386.59 727.94,-364.94 727.93,-349.47"/>
<polygon fill="#63b8ff" stroke="#63b8ff" points="731.43,-349.59 727.68,-339.68 724.44,-349.76 731.43,-349.59"/>
</g>
<!-- Node22 -->
<g id="node22" class="node">
<title>Node22</title>
<g id="a_node22"><a xlink:href="JASTrack_8h.html" target="_top" xlink:title=" ">
<polygon fill="white" stroke="#666666" points="676.5,-398.5 529.5,-398.5 529.5,-379.5 676.5,-379.5 676.5,-398.5"/>
<text text-anchor="middle" x="603" y="-386.5" font-family="Helvetica,sans-Serif" font-size="10.00">JSystem/JAudio2/JASTrack.h</text>
</a>
</g>
</g>
<!-- Node2&#45;&gt;Node22 -->
<g id="edge26" class="edge">
<title>Node2&#45;&gt;Node22</title>
<path fill="none" stroke="#63b8ff" d="M664.13,-450.7C653.04,-439.69 633.82,-420.6 619.89,-406.77"/>
<polygon fill="#63b8ff" stroke="#63b8ff" points="622.65,-404.58 613.09,-400.02 617.72,-409.55 622.65,-404.58"/>
</g>
<!-- Node4 -->
<g id="node4" class="node">
<title>Node4</title>
<g id="a_node4"><a xlink:href="JAISound_8h.html" target="_top" xlink:title=" ">
<polygon fill="white" stroke="#666666" points="400,-338 254,-338 254,-319 400,-319 400,-338"/>
<text text-anchor="middle" x="327" y="-326" font-family="Helvetica,sans-Serif" font-size="10.00">JSystem/JAudio2/JAISound.h</text>
</a>
</g>
</g>
<!-- Node3&#45;&gt;Node4 -->
<g id="edge3" class="edge">
<title>Node3&#45;&gt;Node4</title>
<path fill="none" stroke="#63b8ff" d="M409.81,-373.54C392.63,-364.4 370.55,-352.66 353.5,-343.6"/>
<polygon fill="#63b8ff" stroke="#63b8ff" points="355.44,-340.66 344.97,-339.06 352.16,-346.84 355.44,-340.66"/>
</g>
<!-- Node5 -->
<g id="node5" class="node">
<title>Node5</title>
<g id="a_node5"><a xlink:href="JAISoundParams_8h.html" target="_top" xlink:title=" ">
<polygon fill="white" stroke="#666666" points="486.5,-283 347.5,-283 347.5,-253 486.5,-253 486.5,-283"/>
<text text-anchor="start" x="355.5" y="-271" font-family="Helvetica,sans-Serif" font-size="10.00">JSystem/JAudio2/JAISound</text>
<text text-anchor="middle" x="417" y="-260" font-family="Helvetica,sans-Serif" font-size="10.00">Params.h</text>
</a>
</g>
</g>
<!-- Node4&#45;&gt;Node5 -->
<g id="edge4" class="edge">
<title>Node4&#45;&gt;Node5</title>
<path fill="none" stroke="#63b8ff" d="M340.67,-318.62C352.45,-310.96 369.91,-299.61 385.16,-289.69"/>
<polygon fill="#63b8ff" stroke="#63b8ff" points="387.04,-292.65 393.52,-284.26 383.22,-286.78 387.04,-292.65"/>
</g>
<!-- Node9 -->
<g id="node9" class="node">
<title>Node9</title>
<g id="a_node9"><a xlink:href="JAIAudible_8h.html" target="_top" xlink:title=" ">
<polygon fill="white" stroke="#666666" points="237.5,-277.5 86.5,-277.5 86.5,-258.5 237.5,-258.5 237.5,-277.5"/>
<text text-anchor="middle" x="162" y="-265.5" font-family="Helvetica,sans-Serif" font-size="10.00">JSystem/JAudio2/JAIAudible.h</text>
</a>
</g>
</g>
<!-- Node4&#45;&gt;Node9 -->
<g id="edge8" class="edge">
<title>Node4&#45;&gt;Node9</title>
<path fill="none" stroke="#63b8ff" d="M301.94,-318.62C274.2,-308.78 229.25,-292.84 197.81,-281.69"/>
<polygon fill="#63b8ff" stroke="#63b8ff" points="199.32,-278.52 188.72,-278.47 196.98,-285.11 199.32,-278.52"/>
</g>
<!-- Node16 -->
<g id="node16" class="node">
<title>Node16</title>
<g id="a_node16"><a xlink:href="global_8h.html" target="_top" xlink:title=" ">
<polygon fill="white" stroke="#666666" points="329,-277.5 279,-277.5 279,-258.5 329,-258.5 329,-277.5"/>
<text text-anchor="middle" x="304" y="-265.5" font-family="Helvetica,sans-Serif" font-size="10.00">global.h</text>
</a>
</g>
</g>
<!-- Node4&#45;&gt;Node16 -->
<g id="edge17" class="edge">
<title>Node4&#45;&gt;Node16</title>
<path fill="none" stroke="#63b8ff" d="M323.61,-318.87C320.45,-310.83 315.63,-298.57 311.56,-288.22"/>
<polygon fill="#63b8ff" stroke="#63b8ff" points="314.88,-287.1 307.96,-279.08 308.36,-289.66 314.88,-287.1"/>
</g>
<!-- Node6 -->
<g id="node6" class="node">
<title>Node6</title>
<g id="a_node6"><a xlink:href="JASSoundParams_8h.html" target="_top" xlink:title=" ">
<polygon fill="white" stroke="#666666" points="487.5,-217 344.5,-217 344.5,-187 487.5,-187 487.5,-217"/>
<text text-anchor="start" x="352.5" y="-205" font-family="Helvetica,sans-Serif" font-size="10.00">JSystem/JAudio2/JASSound</text>
<text text-anchor="middle" x="416" y="-194" font-family="Helvetica,sans-Serif" font-size="10.00">Params.h</text>
</a>
</g>
</g>
<!-- Node5&#45;&gt;Node6 -->
<g id="edge5" class="edge">
<title>Node5&#45;&gt;Node6</title>
<path fill="none" stroke="#63b8ff" d="M416.78,-252.8C416.67,-245.67 416.53,-236.82 416.4,-228.56"/>
<polygon fill="#63b8ff" stroke="#63b8ff" points="419.9,-228.62 416.24,-218.68 412.9,-228.73 419.9,-228.62"/>
</g>
<!-- Node7 -->
<g id="node7" class="node">
<title>Node7</title>
<g id="a_node7"><a xlink:href="types_8h.html" target="_top" xlink:title=" ">
<polygon fill="white" stroke="#666666" points="609.5,-90.5 528.5,-90.5 528.5,-71.5 609.5,-71.5 609.5,-90.5"/>
<text text-anchor="middle" x="569" y="-78.5" font-family="Helvetica,sans-Serif" font-size="10.00">dolphin/types.h</text>
</a>
</g>
</g>
<!-- Node6&#45;&gt;Node7 -->
<g id="edge6" class="edge">
<title>Node6&#45;&gt;Node7</title>
<path fill="none" stroke="#63b8ff" d="M432.81,-186.69C449.6,-172.51 476.25,-150.34 500,-132 515.45,-120.07 533.31,-107.15 546.99,-97.44"/>
<polygon fill="#63b8ff" stroke="#63b8ff" points="548.73,-100.49 554.88,-91.86 544.69,-94.77 548.73,-100.49"/>
</g>
<!-- Node8 -->
<g id="node8" class="node">
<title>Node8</title>
<g id="a_node8"><a xlink:href="stddef_8h.html" target="_top" xlink:title=" ">
<polygon fill="white" stroke="#666666" points="637,-30 501,-30 501,0 637,0 637,-30"/>
<text text-anchor="start" x="509" y="-18" font-family="Helvetica,sans-Serif" font-size="10.00">MSL_C/MSL_Common/Src</text>
<text text-anchor="middle" x="569" y="-7" font-family="Helvetica,sans-Serif" font-size="10.00">/stddef.h</text>
</a>
</g>
</g>
<!-- Node7&#45;&gt;Node8 -->
<g id="edge7" class="edge">
<title>Node7&#45;&gt;Node8</title>
<path fill="none" stroke="#63b8ff" d="M569,-71.1C569,-63.41 569,-51.92 569,-41.42"/>
<polygon fill="#63b8ff" stroke="#63b8ff" points="572.5,-41.75 569,-31.75 565.5,-41.75 572.5,-41.75"/>
</g>
<!-- Node10 -->
<g id="node10" class="node">
<title>Node10</title>
<g id="a_node10"><a xlink:href="JGeometry_8h.html" target="_top" xlink:title=" ">
<polygon fill="white" stroke="#666666" points="206.5,-211.5 93.5,-211.5 93.5,-192.5 206.5,-192.5 206.5,-211.5"/>
<text text-anchor="middle" x="150" y="-199.5" font-family="Helvetica,sans-Serif" font-size="10.00">JSystem/JGeometry.h</text>
</a>
</g>
</g>
<!-- Node9&#45;&gt;Node10 -->
<g id="edge9" class="edge">
<title>Node9&#45;&gt;Node10</title>
<path fill="none" stroke="#63b8ff" d="M160.33,-258.1C158.63,-249.03 155.93,-234.64 153.72,-222.85"/>
<polygon fill="#63b8ff" stroke="#63b8ff" points="157.22,-222.49 151.93,-213.31 150.34,-223.78 157.22,-222.49"/>
</g>
<!-- Node11 -->
<g id="node11" class="node">
<title>Node11</title>
<g id="a_node11"><a xlink:href="vec_8h.html" target="_top" xlink:title=" ">
<polygon fill="white" stroke="#666666" points="288,-151 196,-151 196,-132 288,-132 288,-151"/>
<text text-anchor="middle" x="242" y="-139" font-family="Helvetica,sans-Serif" font-size="10.00">dolphin/mtx/vec.h</text>
</a>
</g>
</g>
<!-- Node10&#45;&gt;Node11 -->
<g id="edge10" class="edge">
<title>Node10&#45;&gt;Node11</title>
<path fill="none" stroke="#63b8ff" d="M163.97,-192.12C178.43,-182.92 201.26,-168.41 218.5,-157.44"/>
<polygon fill="#63b8ff" stroke="#63b8ff" points="220.06,-160.6 226.62,-152.28 216.3,-154.69 220.06,-160.6"/>
</g>
<!-- Node12 -->
<g id="node12" class="node">
<title>Node12</title>
<g id="a_node12"><a xlink:href="float_8h.html" target="_top" xlink:title=" ">
<polygon fill="white" stroke="#666666" points="178,-151 100,-151 100,-132 178,-132 178,-151"/>
<text text-anchor="middle" x="139" y="-139" font-family="Helvetica,sans-Serif" font-size="10.00">MSL_C/float.h</text>
</a>
</g>
</g>
<!-- Node10&#45;&gt;Node12 -->
<g id="edge12" class="edge">
<title>Node10&#45;&gt;Node12</title>
<path fill="none" stroke="#63b8ff" d="M148.38,-192.37C146.9,-184.5 144.66,-172.6 142.74,-162.39"/>
<polygon fill="#63b8ff" stroke="#63b8ff" points="146.2,-161.84 140.91,-152.65 139.32,-163.13 146.2,-161.84"/>
</g>
<!-- Node15 -->
<g id="node15" class="node">
<title>Node15</title>
<g id="a_node15"><a xlink:href="math_8h.html" target="_top" xlink:title=" ">
<polygon fill="white" stroke="#666666" points="82,-151 0,-151 0,-132 82,-132 82,-151"/>
<text text-anchor="middle" x="41" y="-139" font-family="Helvetica,sans-Serif" font-size="10.00">MSL_C/math.h</text>
</a>
</g>
</g>
<!-- Node10&#45;&gt;Node15 -->
<g id="edge15" class="edge">
<title>Node10&#45;&gt;Node15</title>
<path fill="none" stroke="#63b8ff" d="M133.45,-192.12C116,-182.75 88.25,-167.86 67.71,-156.83"/>
<polygon fill="#63b8ff" stroke="#63b8ff" points="69.51,-153.83 59.04,-152.18 66.2,-160 69.51,-153.83"/>
</g>
<!-- Node11&#45;&gt;Node7 -->
<g id="edge11" class="edge">
<title>Node11&#45;&gt;Node7</title>
<path fill="none" stroke="#63b8ff" d="M288.16,-132.24C348.49,-121.45 453.86,-102.6 516.96,-91.31"/>
<polygon fill="#63b8ff" stroke="#63b8ff" points="517.51,-94.77 526.74,-89.56 516.28,-87.88 517.51,-94.77"/>
</g>
<!-- Node13 -->
<g id="node13" class="node">
<title>Node13</title>
<g id="a_node13"><a xlink:href="MSL__Common_2Src_2float_8h.html" target="_top" xlink:title=" ">
<polygon fill="white" stroke="#666666" points="158,-96 22,-96 22,-66 158,-66 158,-96"/>
<text text-anchor="start" x="30" y="-84" font-family="Helvetica,sans-Serif" font-size="10.00">MSL_C/MSL_Common/Src</text>
<text text-anchor="middle" x="90" y="-73" font-family="Helvetica,sans-Serif" font-size="10.00">/float.h</text>
</a>
</g>
</g>
<!-- Node12&#45;&gt;Node13 -->
<g id="edge13" class="edge">
<title>Node12&#45;&gt;Node13</title>
<path fill="none" stroke="#63b8ff" d="M131.77,-131.87C125.8,-124.74 117.04,-114.28 109.09,-104.79"/>
<polygon fill="#63b8ff" stroke="#63b8ff" points="111.9,-102.69 102.79,-97.27 106.53,-107.19 111.9,-102.69"/>
</g>
<!-- Node14 -->
<g id="node14" class="node">
<title>Node14</title>
<g id="a_node14"><a xlink:href="fdlibm_8h.html" target="_top" xlink:title=" ">
<polygon fill="white" stroke="#666666" points="115,-24.5 65,-24.5 65,-5.5 115,-5.5 115,-24.5"/>
<text text-anchor="middle" x="90" y="-12.5" font-family="Helvetica,sans-Serif" font-size="10.00">fdlibm.h</text>
</a>
</g>
</g>
<!-- Node13&#45;&gt;Node14 -->
<g id="edge14" class="edge">
<title>Node13&#45;&gt;Node14</title>
<path fill="none" stroke="#63b8ff" d="M90,-65.8C90,-57.09 90,-45.81 90,-36.18"/>
<polygon fill="#63b8ff" stroke="#63b8ff" points="93.5,-36.36 90,-26.36 86.5,-36.36 93.5,-36.36"/>
</g>
<!-- Node15&#45;&gt;Node13 -->
<g id="edge16" class="edge">
<title>Node15&#45;&gt;Node13</title>
<path fill="none" stroke="#63b8ff" d="M48.23,-131.87C54.2,-124.74 62.96,-114.28 70.91,-104.79"/>
<polygon fill="#63b8ff" stroke="#63b8ff" points="73.47,-107.19 77.21,-97.27 68.1,-102.69 73.47,-107.19"/>
</g>
<!-- Node16&#45;&gt;Node7 -->
<g id="edge18" class="edge">
<title>Node16&#45;&gt;Node7</title>
<path fill="none" stroke="#63b8ff" d="M305.19,-258.14C307.8,-242.01 315.41,-207.63 335,-187 384.55,-134.8 464.82,-106.66 517.26,-93"/>
<polygon fill="#63b8ff" stroke="#63b8ff" points="518.01,-96.42 526.86,-90.6 516.31,-89.63 518.01,-96.42"/>
</g>
<!-- Node17&#45;&gt;Node18 -->
<g id="edge20" class="edge">
<title>Node17&#45;&gt;Node18</title>
<path fill="none" stroke="#63b8ff" d="M833.02,-379.12C812.64,-369.58 780.02,-354.31 756.34,-343.23"/>
<polygon fill="#63b8ff" stroke="#63b8ff" points="758.08,-340.18 747.53,-339.11 755.11,-346.52 758.08,-340.18"/>
</g>
<!-- Node19 -->
<g id="node19" class="node">
<title>Node19</title>
<g id="a_node19"><a xlink:href="OSMutex_8h.html" target="_top" xlink:title=" ">
<polygon fill="white" stroke="#666666" points="929,-338 817,-338 817,-319 929,-319 929,-338"/>
<text text-anchor="middle" x="873" y="-326" font-family="Helvetica,sans-Serif" font-size="10.00">dolphin/os/OSMutex.h</text>
</a>
</g>
</g>
<!-- Node17&#45;&gt;Node19 -->
<g id="edge22" class="edge">
<title>Node17&#45;&gt;Node19</title>
<path fill="none" stroke="#63b8ff" d="M855.1,-379.37C857.98,-371.33 862.38,-359.07 866.1,-348.72"/>
<polygon fill="#63b8ff" stroke="#63b8ff" points="869.29,-350.19 869.38,-339.59 862.7,-347.82 869.29,-350.19"/>
</g>
<!-- Node18&#45;&gt;Node7 -->
<g id="edge21" class="edge">
<title>Node18&#45;&gt;Node7</title>
<path fill="none" stroke="#63b8ff" d="M729.58,-318.54C737.66,-288.52 759.31,-190.15 715,-132 692.99,-103.12 653.37,-90.8 620.95,-85.61"/>
<polygon fill="#63b8ff" stroke="#63b8ff" points="621.71,-82.18 611.32,-84.26 620.74,-89.11 621.71,-82.18"/>
</g>
<!-- Node20 -->
<g id="node20" class="node">
<title>Node20</title>
<g id="a_node20"><a xlink:href="OSThread_8h.html" target="_top" xlink:title=" ">
<polygon fill="white" stroke="#666666" points="903,-277.5 787,-277.5 787,-258.5 903,-258.5 903,-277.5"/>
<text text-anchor="middle" x="845" y="-265.5" font-family="Helvetica,sans-Serif" font-size="10.00">dolphin/os/OSThread.h</text>
</a>
</g>
</g>
<!-- Node19&#45;&gt;Node20 -->
<g id="edge23" class="edge">
<title>Node19&#45;&gt;Node20</title>
<path fill="none" stroke="#63b8ff" d="M868.87,-318.87C864.98,-310.75 859.03,-298.31 854.04,-287.89"/>
<polygon fill="#63b8ff" stroke="#63b8ff" points="857.28,-286.54 849.8,-279.03 850.96,-289.56 857.28,-286.54"/>
</g>
<!-- Node21 -->
<g id="node21" class="node">
<title>Node21</title>
<g id="a_node21"><a xlink:href="OSContext_8h.html" target="_top" xlink:title=" ">
<polygon fill="white" stroke="#666666" points="881.5,-211.5 762.5,-211.5 762.5,-192.5 881.5,-192.5 881.5,-211.5"/>
<text text-anchor="middle" x="822" y="-199.5" font-family="Helvetica,sans-Serif" font-size="10.00">dolphin/os/OSContext.h</text>
</a>
</g>
</g>
<!-- Node20&#45;&gt;Node21 -->
<g id="edge24" class="edge">
<title>Node20&#45;&gt;Node21</title>
<path fill="none" stroke="#63b8ff" d="M841.8,-258.1C838.51,-248.93 833.26,-234.34 829,-222.48"/>
<polygon fill="#63b8ff" stroke="#63b8ff" points="832.36,-221.47 825.68,-213.25 825.77,-223.84 832.36,-221.47"/>
</g>
<!-- Node21&#45;&gt;Node7 -->
<g id="edge25" class="edge">
<title>Node21&#45;&gt;Node7</title>
<path fill="none" stroke="#63b8ff" d="M815.21,-192.4C803.21,-177.8 776.8,-148.16 748,-132 708.35,-109.75 658.11,-96.84 620.96,-89.74"/>
<polygon fill="#63b8ff" stroke="#63b8ff" points="621.83,-86.34 611.36,-87.99 620.57,-93.22 621.83,-86.34"/>
</g>
<!-- Node23 -->
<g id="node23" class="node">
<title>Node23</title>
<g id="a_node23"><a xlink:href="JASGadget_8h.html" target="_top" xlink:title=" ">
<polygon fill="white" stroke="#666666" points="593,-338 439,-338 439,-319 593,-319 593,-338"/>
<text text-anchor="middle" x="516" y="-326" font-family="Helvetica,sans-Serif" font-size="10.00">JSystem/JAudio2/JASGadget.h</text>
</a>
</g>
</g>
<!-- Node22&#45;&gt;Node23 -->
<g id="edge27" class="edge">
<title>Node22&#45;&gt;Node23</title>
<path fill="none" stroke="#63b8ff" d="M589.79,-379.12C576.25,-370.01 554.93,-355.68 538.68,-344.75"/>
<polygon fill="#63b8ff" stroke="#63b8ff" points="540.85,-341.99 530.59,-339.31 536.94,-347.8 540.85,-341.99"/>
</g>
<!-- Node24 -->
<g id="node24" class="node">
<title>Node24</title>
<g id="a_node24"><a xlink:href="JASOscillator_8h.html" target="_top" xlink:title=" ">
<polygon fill="white" stroke="#666666" points="706,-151 542,-151 542,-132 706,-132 706,-151"/>
<text text-anchor="middle" x="624" y="-139" font-family="Helvetica,sans-Serif" font-size="10.00">JSystem/JAudio2/JASOscillator.h</text>
</a>
</g>
</g>
<!-- Node22&#45;&gt;Node24 -->
<g id="edge29" class="edge">
<title>Node22&#45;&gt;Node24</title>
<path fill="none" stroke="#63b8ff" d="M603.75,-379.26C606.75,-344.22 617.94,-213.3 622.27,-162.67"/>
<polygon fill="#63b8ff" stroke="#63b8ff" points="625.75,-163.16 623.11,-152.9 618.77,-162.56 625.75,-163.16"/>
</g>
<!-- Node23&#45;&gt;Node7 -->
<g id="edge28" class="edge">
<title>Node23&#45;&gt;Node7</title>
<path fill="none" stroke="#63b8ff" d="M515.14,-318.56C512.75,-290.19 507.75,-200.03 533,-132 537.43,-120.07 545.51,-108.43 552.9,-99.39"/>
<polygon fill="#63b8ff" stroke="#63b8ff" points="555.54,-101.69 559.45,-91.85 550.25,-97.1 555.54,-101.69"/>
</g>
<!-- Node24&#45;&gt;Node7 -->
<g id="edge30" class="edge">
<title>Node24&#45;&gt;Node7</title>
<path fill="none" stroke="#63b8ff" d="M615.88,-131.87C607.76,-123.23 595.04,-109.7 584.9,-98.92"/>
<polygon fill="#63b8ff" stroke="#63b8ff" points="587.59,-96.66 578.19,-91.77 582.49,-101.45 587.59,-96.66"/>
</g>
<!-- Node25&#45;&gt;Node3 -->
<g id="edge33" class="edge">
<title>Node25&#45;&gt;Node3</title>
<path fill="none" stroke="#63b8ff" d="M499.88,-450.7C489.85,-441.02 473.36,-425.1 459.78,-411.99"/>
<polygon fill="#63b8ff" stroke="#63b8ff" points="462.5,-409.75 452.88,-405.33 457.64,-414.79 462.5,-409.75"/>
</g>
<!-- Node25&#45;&gt;Node18 -->
<g id="edge35" class="edge">
<title>Node25&#45;&gt;Node18</title>
<path fill="none" stroke="#63b8ff" d="M548.88,-450.54C594.01,-439.78 663.97,-421.05 685,-404 702.63,-389.7 714.18,-365.91 720.63,-349.06"/>
<polygon fill="#63b8ff" stroke="#63b8ff" points="723.91,-350.28 723.93,-339.69 717.31,-347.96 723.91,-350.28"/>
</g>
<!-- Node25&#45;&gt;Node23 -->
<g id="edge34" class="edge">
<title>Node25&#45;&gt;Node23</title>
<path fill="none" stroke="#63b8ff" d="M454.2,-450.55C397.62,-438.89 321.7,-414.99 353,-374 364.38,-359.09 405.07,-347.98 442.94,-340.58"/>
<polygon fill="#63b8ff" stroke="#63b8ff" points="443.37,-344.06 452.55,-338.78 442.08,-337.18 443.37,-344.06"/>
</g>
<!-- Node27 -->
<g id="node27" class="node">
<title>Node27</title>
<g id="a_node27"><a xlink:href="OSInterrupt_8h.html" target="_top" xlink:title=" ">
<polygon fill="white" stroke="#666666" points="1022,-211.5 900,-211.5 900,-192.5 1022,-192.5 1022,-211.5"/>
<text text-anchor="middle" x="961" y="-199.5" font-family="Helvetica,sans-Serif" font-size="10.00">dolphin/os/OSInterrupt.h</text>
</a>
</g>
</g>
<!-- Node26&#45;&gt;Node27 -->
<g id="edge37" class="edge">
<title>Node26&#45;&gt;Node27</title>
<path fill="none" stroke="#63b8ff" d="M883.49,-445.09C904.84,-436.64 927.42,-423.63 941,-404 979.7,-348.02 971.22,-261.41 964.85,-222.77"/>
<polygon fill="#63b8ff" stroke="#63b8ff" points="968.33,-222.34 963.11,-213.11 961.44,-223.58 968.33,-222.34"/>
</g>
<!-- Node27&#45;&gt;Node7 -->
<g id="edge38" class="edge">
<title>Node27&#45;&gt;Node7</title>
<path fill="none" stroke="#63b8ff" d="M939.52,-192.09C905.18,-178.07 835.6,-150.53 775,-132 723.1,-116.13 662.63,-101.95 620.69,-92.78"/>
<polygon fill="#63b8ff" stroke="#63b8ff" points="621.63,-89.41 611.12,-90.71 620.15,-96.25 621.63,-89.41"/>
</g>
</g>
</svg>
        <g id="navigator" transform="translate(0 0)" fill="#404254">
                <rect fill="#f2f5e9" fill-opacity="0.5" stroke="#606060" stroke-width=".5" x="0" y="0" width="60" height="60"/>
                <use id="zoomplus" xlink:href="#zoomPlus" x="17" y="9" onmousedown="handleZoom(evt,'in')"/>
                <use id="zoomminus" xlink:href="#zoomMin" x="42" y="9" onmousedown="handleZoom(evt,'out')"/>
                <use id="reset" xlink:href="#resetDef" x="30" y="36" onmousedown="handleReset()"/>
                <g id="arrowUp" xlink:href="#dirArrow" transform="translate(30 24)" onmousedown="handlePan(0,-1)">
                  <use xlink:href="#rim" fill="#404040">
                        <set attributeName="fill" to="#808080" begin="arrowUp.mouseover" end="arrowUp.mouseout"/>
                  </use>
                  <path fill="none" stroke="white" stroke-width="1.5" d="M0,-3.0v7 M-2.5,-0.5L0,-3.0L2.5,-0.5"/>
                </g>
                <g id="arrowRight" xlink:href="#dirArrow" transform="rotate(90) translate(36 -43)" onmousedown="handlePan(1,0)">
                  <use xlink:href="#rim" fill="#404040">
                        <set attributeName="fill" to="#808080" begin="arrowRight.mouseover" end="arrowRight.mouseout"/>
                  </use>
                  <path fill="none" stroke="white" stroke-width="1.5" d="M0,-3.0v7 M-2.5,-0.5L0,-3.0L2.5,-0.5"/>
                </g>
                <g id="arrowDown" xlink:href="#dirArrow" transform="rotate(180) translate(-30 -48)" onmousedown="handlePan(0,1)">
                  <use xlink:href="#rim" fill="#404040">
                        <set attributeName="fill" to="#808080" begin="arrowDown.mouseover" end="arrowDown.mouseout"/>
                  </use>
                  <path fill="none" stroke="white" stroke-width="1.5" d="M0,-3.0v7 M-2.5,-0.5L0,-3.0L2.5,-0.5"/>
                </g>
                <g id="arrowLeft" xlink:href="#dirArrow" transform="rotate(270) translate(-36 17)" onmousedown="handlePan(-1,0)">
                  <use xlink:href="#rim" fill="#404040">
                        <set attributeName="fill" to="#808080" begin="arrowLeft.mouseover" end="arrowLeft.mouseout"/>
                  </use>
                  <path fill="none" stroke="white" stroke-width="1.5" d="M0,-3.0v7 M-2.5,-0.5L0,-3.0L2.5,-0.5"/>
                </g>
        </g>
        <svg viewBox="0 0 15 15" width="100%" height="30px" preserveAspectRatio="xMaxYMin meet">
         <g id="arrow_out" transform="scale(0.3 0.3)">
          <a xlink:href="JAISeq_8cpp__incl_org.svg" target="_base">
           <rect id="button" ry="5" rx="5" y="6" x="6" height="38" width="38"
                fill="#f2f5e9" fill-opacity="0.5" stroke="#606060" stroke-width="1.0"/>
           <path id="arrow"
             d="M 11.500037,31.436501 C 11.940474,20.09759 22.043105,11.32322 32.158766,21.979434 L 37.068811,17.246167 C 37.068811,17.246167 37.088388,32 37.088388,32 L 22.160133,31.978069 C 22.160133,31.978069 26.997745,27.140456 26.997745,27.140456 C 18.528582,18.264221 13.291696,25.230495 11.500037,31.436501 z"
             style="fill:#404040;"/>
          </a>
         </g>
        </svg>
</svg>
