<?xml version="1.0" encoding="UTF-8" standalone="no"?>
<!DOCTYPE svg PUBLIC "-//W3C//DTD SVG 1.1//EN"
 "http://www.w3.org/Graphics/SVG/1.1/DTD/svg11.dtd">
<!-- Generated by graphviz version 7.0.5 (20221223.1930)
 -->
<!-- Title: libs/JSystem/JAudio2/JASAiCtrl.cpp Pages: 1 -->
<svg width="2720pt" height="236pt"
 viewBox="0.00 0.00 2720.00 236.00" xmlns="http://www.w3.org/2000/svg" xmlns:xlink="http://www.w3.org/1999/xlink">
<g id="graph0" class="graph" transform="scale(1 1) rotate(0) translate(4 232)">
<title>libs/JSystem/JAudio2/JASAiCtrl.cpp</title>
<!-- Node1 -->
<g id="node1" class="node">
<title>Node1</title>
<g id="a_node1"><a xlink:title=" ">
<polygon fill="#999999" stroke="#666666" points="1323.5,-228 1212.5,-228 1212.5,-198 1323.5,-198 1323.5,-228"/>
<text text-anchor="start" x="1220.5" y="-216" font-family="Helvetica,sans-Serif" font-size="10.00">libs/JSystem/JAudio2</text>
<text text-anchor="middle" x="1268" y="-205" font-family="Helvetica,sans-Serif" font-size="10.00">/JASAiCtrl.cpp</text>
</a>
</g>
</g>
<!-- Node2 -->
<g id="node2" class="node">
<title>Node2</title>
<g id="a_node2"><a xlink:href="JASAiCtrl_8h.html" target="_top" xlink:title=" ">
<polygon fill="white" stroke="#666666" points="146,-151 0,-151 0,-132 146,-132 146,-151"/>
<text text-anchor="middle" x="73" y="-139" font-family="Helvetica,sans-Serif" font-size="10.00">JSystem/JAudio2/JASAiCtrl.h</text>
</a>
</g>
</g>
<!-- Node1&#45;&gt;Node2 -->
<g id="edge1" class="edge">
<title>Node1&#45;&gt;Node2</title>
<path fill="none" stroke="#63b8ff" d="M1212.23,-210.86C1016.77,-206.67 363.45,-190.78 156,-162 142.73,-160.16 128.47,-157.18 115.58,-154.1"/>
<polygon fill="#63b8ff" stroke="#63b8ff" points="116.68,-150.77 106.13,-151.76 115,-157.57 116.68,-150.77"/>
</g>
<!-- Node5 -->
<g id="node5" class="node">
<title>Node5</title>
<g id="a_node5"><a xlink:href="dol2asm_8h.html" target="_top" xlink:title=" ">
<polygon fill="white" stroke="#666666" points="225.5,-151 164.5,-151 164.5,-132 225.5,-132 225.5,-151"/>
<text text-anchor="middle" x="195" y="-139" font-family="Helvetica,sans-Serif" font-size="10.00">dol2asm.h</text>
</a>
</g>
</g>
<!-- Node1&#45;&gt;Node5 -->
<g id="edge4" class="edge">
<title>Node1&#45;&gt;Node5</title>
<path fill="none" stroke="#63b8ff" d="M1212.04,-212.25C1024.9,-212.63 422.19,-209.99 235,-162 229.89,-160.69 224.67,-158.7 219.75,-156.47"/>
<polygon fill="#63b8ff" stroke="#63b8ff" points="221.5,-153.43 210.99,-152.09 218.37,-159.7 221.5,-153.43"/>
</g>
<!-- Node6 -->
<g id="node6" class="node">
<title>Node6</title>
<g id="a_node6"><a xlink:title=" ">
<polygon fill="#e0e0e0" stroke="#999999" points="392,-162 244,-162 244,-121 392,-121 392,-162"/>
<text text-anchor="start" x="252" y="-150" font-family="Helvetica,sans-Serif" font-size="10.00">asm/JSystem/JAudio2</text>
<text text-anchor="start" x="252" y="-139" font-family="Helvetica,sans-Serif" font-size="10.00">/JASAiCtrl/initAI__9JASDriver</text>
<text text-anchor="middle" x="318" y="-128" font-family="Helvetica,sans-Serif" font-size="10.00">FPFv_v.s</text>
</a>
</g>
</g>
<!-- Node1&#45;&gt;Node6 -->
<g id="edge5" class="edge">
<title>Node1&#45;&gt;Node6</title>
<path fill="none" stroke="#63b8ff" d="M1212.2,-212.06C1075.71,-211.51 714.14,-205.8 403.12,-161.99"/>
<polygon fill="#63b8ff" stroke="#63b8ff" points="403.97,-158.58 393.57,-160.63 402.98,-165.51 403.97,-158.58"/>
</g>
<!-- Node7 -->
<g id="node7" class="node">
<title>Node7</title>
<g id="a_node7"><a xlink:title=" ">
<polygon fill="#e0e0e0" stroke="#999999" points="525.5,-162 410.5,-162 410.5,-121 525.5,-121 525.5,-162"/>
<text text-anchor="start" x="418.5" y="-150" font-family="Helvetica,sans-Serif" font-size="10.00">asm/JSystem/JAudio2</text>
<text text-anchor="start" x="418.5" y="-139" font-family="Helvetica,sans-Serif" font-size="10.00">/JASAiCtrl/startDMA</text>
<text text-anchor="middle" x="468" y="-128" font-family="Helvetica,sans-Serif" font-size="10.00">__9JASDriverFv.s</text>
</a>
</g>
</g>
<!-- Node1&#45;&gt;Node7 -->
<g id="edge6" class="edge">
<title>Node1&#45;&gt;Node7</title>
<path fill="none" stroke="#63b8ff" d="M1212.34,-212.26C1090.96,-211.97 793.5,-206.52 536.95,-162.12"/>
<polygon fill="#63b8ff" stroke="#63b8ff" points="537.87,-158.73 527.41,-160.45 536.66,-165.62 537.87,-158.73"/>
</g>
<!-- Node8 -->
<g id="node8" class="node">
<title>Node8</title>
<g id="a_node8"><a xlink:title=" ">
<polygon fill="#e0e0e0" stroke="#999999" points="658.5,-162 543.5,-162 543.5,-121 658.5,-121 658.5,-162"/>
<text text-anchor="start" x="551.5" y="-150" font-family="Helvetica,sans-Serif" font-size="10.00">asm/JSystem/JAudio2</text>
<text text-anchor="start" x="551.5" y="-139" font-family="Helvetica,sans-Serif" font-size="10.00">/JASAiCtrl/stopDMA_</text>
<text text-anchor="middle" x="601" y="-128" font-family="Helvetica,sans-Serif" font-size="10.00">_9JASDriverFv.s</text>
</a>
</g>
</g>
<!-- Node1&#45;&gt;Node8 -->
<g id="edge7" class="edge">
<title>Node1&#45;&gt;Node8</title>
<path fill="none" stroke="#63b8ff" d="M1212.08,-211.06C1107.34,-208.5 874.46,-199 670.18,-162.19"/>
<polygon fill="#63b8ff" stroke="#63b8ff" points="670.89,-158.76 660.42,-160.4 669.63,-165.65 670.89,-158.76"/>
</g>
<!-- Node9 -->
<g id="node9" class="node">
<title>Node9</title>
<g id="a_node9"><a xlink:title=" ">
<polygon fill="#e0e0e0" stroke="#999999" points="845.5,-162 676.5,-162 676.5,-121 845.5,-121 845.5,-162"/>
<text text-anchor="start" x="684.5" y="-150" font-family="Helvetica,sans-Serif" font-size="10.00">asm/JSystem/JAudio2</text>
<text text-anchor="start" x="684.5" y="-139" font-family="Helvetica,sans-Serif" font-size="10.00">/JASAiCtrl/setOutputRate</text>
<text text-anchor="middle" x="761" y="-128" font-family="Helvetica,sans-Serif" font-size="10.00">__9JASDriverF13JASOutputRate.s</text>
</a>
</g>
</g>
<!-- Node1&#45;&gt;Node9 -->
<g id="edge8" class="edge">
<title>Node1&#45;&gt;Node9</title>
<path fill="none" stroke="#63b8ff" d="M1212.01,-206.73C1134.58,-199.11 990.21,-183.7 857.19,-162.29"/>
<polygon fill="#63b8ff" stroke="#63b8ff" points="857.92,-158.86 847.49,-160.71 856.8,-165.77 857.92,-158.86"/>
</g>
<!-- Node10 -->
<g id="node10" class="node">
<title>Node10</title>
<g id="a_node10"><a xlink:title=" ">
<polygon fill="#e0e0e0" stroke="#999999" points="978.5,-162 863.5,-162 863.5,-121 978.5,-121 978.5,-162"/>
<text text-anchor="start" x="871.5" y="-150" font-family="Helvetica,sans-Serif" font-size="10.00">asm/JSystem/JAudio2</text>
<text text-anchor="start" x="871.5" y="-139" font-family="Helvetica,sans-Serif" font-size="10.00">/JASAiCtrl/updateDac</text>
<text text-anchor="middle" x="921" y="-128" font-family="Helvetica,sans-Serif" font-size="10.00">__9JASDriverFv.s</text>
</a>
</g>
</g>
<!-- Node1&#45;&gt;Node10 -->
<g id="edge9" class="edge">
<title>Node1&#45;&gt;Node10</title>
<path fill="none" stroke="#63b8ff" d="M1212.13,-203.82C1157.79,-195.46 1072.75,-181.32 989.8,-162.29"/>
<polygon fill="#63b8ff" stroke="#63b8ff" points="990.65,-158.9 980.11,-160.04 989.06,-165.71 990.65,-158.9"/>
</g>
<!-- Node11 -->
<g id="node11" class="node">
<title>Node11</title>
<g id="a_node11"><a xlink:title=" ">
<polygon fill="#e0e0e0" stroke="#999999" points="1111.5,-162 996.5,-162 996.5,-121 1111.5,-121 1111.5,-162"/>
<text text-anchor="start" x="1004.5" y="-150" font-family="Helvetica,sans-Serif" font-size="10.00">asm/JSystem/JAudio2</text>
<text text-anchor="start" x="1004.5" y="-139" font-family="Helvetica,sans-Serif" font-size="10.00">/JASAiCtrl/updateDSP</text>
<text text-anchor="middle" x="1054" y="-128" font-family="Helvetica,sans-Serif" font-size="10.00">__9JASDriverFv.s</text>
</a>
</g>
</g>
<!-- Node1&#45;&gt;Node11 -->
<g id="edge10" class="edge">
<title>Node1&#45;&gt;Node11</title>
<path fill="none" stroke="#63b8ff" d="M1223.4,-197.52C1194.34,-188.08 1155.86,-175.58 1122.91,-164.88"/>
<polygon fill="#63b8ff" stroke="#63b8ff" points="1124,-161.55 1113.41,-161.79 1121.84,-168.21 1124,-161.55"/>
</g>
<!-- Node12 -->
<g id="node12" class="node">
<title>Node12</title>
<g id="a_node12"><a xlink:title=" ">
<polygon fill="#e0e0e0" stroke="#999999" points="1256.5,-162 1129.5,-162 1129.5,-121 1256.5,-121 1256.5,-162"/>
<text text-anchor="start" x="1137.5" y="-150" font-family="Helvetica,sans-Serif" font-size="10.00">asm/JSystem/JAudio2</text>
<text text-anchor="start" x="1137.5" y="-139" font-family="Helvetica,sans-Serif" font-size="10.00">/JASAiCtrl/readDspBuffer</text>
<text text-anchor="middle" x="1193" y="-128" font-family="Helvetica,sans-Serif" font-size="10.00">__9JASDriverFPsUl.s</text>
</a>
</g>
</g>
<!-- Node1&#45;&gt;Node12 -->
<g id="edge11" class="edge">
<title>Node1&#45;&gt;Node12</title>
<path fill="none" stroke="#63b8ff" d="M1252.46,-197.6C1243.88,-189.65 1232.93,-179.5 1222.77,-170.09"/>
<polygon fill="#63b8ff" stroke="#63b8ff" points="1225.32,-167.67 1215.6,-163.44 1220.56,-172.81 1225.32,-167.67"/>
</g>
<!-- Node13 -->
<g id="node13" class="node">
<title>Node13</title>
<g id="a_node13"><a xlink:title=" ">
<polygon fill="#e0e0e0" stroke="#999999" points="1411,-162 1275,-162 1275,-121 1411,-121 1411,-162"/>
<text text-anchor="start" x="1283" y="-150" font-family="Helvetica,sans-Serif" font-size="10.00">asm/JSystem/JAudio2</text>
<text text-anchor="start" x="1283" y="-139" font-family="Helvetica,sans-Serif" font-size="10.00">/JASAiCtrl/finishDSPFrame</text>
<text text-anchor="middle" x="1343" y="-128" font-family="Helvetica,sans-Serif" font-size="10.00">__9JASDriverFv.s</text>
</a>
</g>
</g>
<!-- Node1&#45;&gt;Node13 -->
<g id="edge12" class="edge">
<title>Node1&#45;&gt;Node13</title>
<path fill="none" stroke="#63b8ff" d="M1283.54,-197.6C1292.12,-189.65 1303.07,-179.5 1313.23,-170.09"/>
<polygon fill="#63b8ff" stroke="#63b8ff" points="1315.44,-172.81 1320.4,-163.44 1310.68,-167.67 1315.44,-172.81"/>
</g>
<!-- Node14 -->
<g id="node14" class="node">
<title>Node14</title>
<g id="a_node14"><a xlink:title=" ">
<polygon fill="#e0e0e0" stroke="#999999" points="1620.5,-162 1429.5,-162 1429.5,-121 1620.5,-121 1620.5,-162"/>
<text text-anchor="start" x="1437.5" y="-150" font-family="Helvetica,sans-Serif" font-size="10.00">asm/JSystem/JAudio2</text>
<text text-anchor="start" x="1437.5" y="-139" font-family="Helvetica,sans-Serif" font-size="10.00">/JASAiCtrl/registerMixCallback</text>
<text text-anchor="middle" x="1525" y="-128" font-family="Helvetica,sans-Serif" font-size="10.00">__9JASDriverFPFl_Ps10JASMixMode.s</text>
</a>
</g>
</g>
<!-- Node1&#45;&gt;Node14 -->
<g id="edge13" class="edge">
<title>Node1&#45;&gt;Node14</title>
<path fill="none" stroke="#63b8ff" d="M1321.56,-197.52C1355.99,-188.21 1401.44,-175.91 1440.65,-165.31"/>
<polygon fill="#63b8ff" stroke="#63b8ff" points="1441.33,-168.75 1450.07,-162.76 1439.5,-162 1441.33,-168.75"/>
</g>
<!-- Node15 -->
<g id="node15" class="node">
<title>Node15</title>
<g id="a_node15"><a xlink:title=" ">
<polygon fill="#e0e0e0" stroke="#999999" points="1755,-162 1639,-162 1639,-121 1755,-121 1755,-162"/>
<text text-anchor="start" x="1647" y="-150" font-family="Helvetica,sans-Serif" font-size="10.00">asm/JSystem/JAudio2</text>
<text text-anchor="start" x="1647" y="-139" font-family="Helvetica,sans-Serif" font-size="10.00">/JASAiCtrl/getDacRate</text>
<text text-anchor="middle" x="1697" y="-128" font-family="Helvetica,sans-Serif" font-size="10.00">__9JASDriverFv.s</text>
</a>
</g>
</g>
<!-- Node1&#45;&gt;Node15 -->
<g id="edge14" class="edge">
<title>Node1&#45;&gt;Node15</title>
<path fill="none" stroke="#63b8ff" d="M1323.94,-206.83C1393.14,-199.88 1514.66,-185.82 1627.43,-162.39"/>
<polygon fill="#63b8ff" stroke="#63b8ff" points="1628.12,-165.83 1637.18,-160.34 1626.67,-158.98 1628.12,-165.83"/>
</g>
<!-- Node16 -->
<g id="node16" class="node">
<title>Node16</title>
<g id="a_node16"><a xlink:title=" ">
<polygon fill="#e0e0e0" stroke="#999999" points="1888.5,-162 1773.5,-162 1773.5,-121 1888.5,-121 1888.5,-162"/>
<text text-anchor="start" x="1781.5" y="-150" font-family="Helvetica,sans-Serif" font-size="10.00">asm/JSystem/JAudio2</text>
<text text-anchor="start" x="1781.5" y="-139" font-family="Helvetica,sans-Serif" font-size="10.00">/JASAiCtrl/getDacSize</text>
<text text-anchor="middle" x="1831" y="-128" font-family="Helvetica,sans-Serif" font-size="10.00">__9JASDriverFv.s</text>
</a>
</g>
</g>
<!-- Node1&#45;&gt;Node16 -->
<g id="edge15" class="edge">
<title>Node1&#45;&gt;Node16</title>
<path fill="none" stroke="#63b8ff" d="M1323.9,-209.7C1414.18,-205.25 1597.7,-193.21 1761.78,-162.23"/>
<polygon fill="#63b8ff" stroke="#63b8ff" points="1762.41,-165.68 1771.57,-160.35 1761.09,-158.8 1762.41,-165.68"/>
</g>
<!-- Node17 -->
<g id="node17" class="node">
<title>Node17</title>
<g id="a_node17"><a xlink:title=" ">
<polygon fill="#e0e0e0" stroke="#999999" points="2051.5,-162 1906.5,-162 1906.5,-121 2051.5,-121 2051.5,-162"/>
<text text-anchor="start" x="1914.5" y="-150" font-family="Helvetica,sans-Serif" font-size="10.00">asm/JSystem/JAudio2</text>
<text text-anchor="start" x="1914.5" y="-139" font-family="Helvetica,sans-Serif" font-size="10.00">/JASAiCtrl/getFrameSamples</text>
<text text-anchor="middle" x="1979" y="-128" font-family="Helvetica,sans-Serif" font-size="10.00">__9JASDriverFv.s</text>
</a>
</g>
</g>
<!-- Node1&#45;&gt;Node17 -->
<g id="edge16" class="edge">
<title>Node1&#45;&gt;Node17</title>
<path fill="none" stroke="#63b8ff" d="M1323.97,-210.51C1432.5,-206.97 1679.17,-195.82 1895.02,-162.35"/>
<polygon fill="#63b8ff" stroke="#63b8ff" points="1895.42,-165.83 1904.76,-160.82 1894.33,-158.92 1895.42,-165.83"/>
</g>
<!-- Node18 -->
<g id="node18" class="node">
<title>Node18</title>
<g id="a_node18"><a xlink:title=" ">
<polygon fill="#e0e0e0" stroke="#999999" points="2214,-162 2070,-162 2070,-121 2214,-121 2214,-162"/>
<text text-anchor="start" x="2078" y="-150" font-family="Helvetica,sans-Serif" font-size="10.00">asm/JSystem/JAudio2</text>
<text text-anchor="start" x="2078" y="-139" font-family="Helvetica,sans-Serif" font-size="10.00">/JASAiCtrl/mixMonoTrack</text>
<text text-anchor="middle" x="2142" y="-128" font-family="Helvetica,sans-Serif" font-size="10.00">__9JASDriverFPsUlPFl_Ps.s</text>
</a>
</g>
</g>
<!-- Node1&#45;&gt;Node18 -->
<g id="edge17" class="edge">
<title>Node1&#45;&gt;Node18</title>
<path fill="none" stroke="#63b8ff" d="M1323.63,-211.8C1451.79,-210.62 1777.74,-203.57 2058.47,-162.24"/>
<polygon fill="#63b8ff" stroke="#63b8ff" points="2058.83,-165.72 2068.2,-160.79 2057.8,-158.8 2058.83,-165.72"/>
</g>
<!-- Node19 -->
<g id="node19" class="node">
<title>Node19</title>
<g id="a_node19"><a xlink:title=" ">
<polygon fill="#e0e0e0" stroke="#999999" points="2383.5,-162 2232.5,-162 2232.5,-121 2383.5,-121 2383.5,-162"/>
<text text-anchor="start" x="2240.5" y="-150" font-family="Helvetica,sans-Serif" font-size="10.00">asm/JSystem/JAudio2</text>
<text text-anchor="start" x="2240.5" y="-139" font-family="Helvetica,sans-Serif" font-size="10.00">/JASAiCtrl/mixMonoTrackWide</text>
<text text-anchor="middle" x="2308" y="-128" font-family="Helvetica,sans-Serif" font-size="10.00">__9JASDriverFPsUlPFl_Ps.s</text>
</a>
</g>
</g>
<!-- Node1&#45;&gt;Node19 -->
<g id="edge18" class="edge">
<title>Node1&#45;&gt;Node19</title>
<path fill="none" stroke="#63b8ff" d="M1323.76,-212.44C1469.72,-212.88 1875.04,-209.49 2220.88,-162.15"/>
<polygon fill="#63b8ff" stroke="#63b8ff" points="2221.2,-165.64 2230.62,-160.8 2220.24,-158.71 2221.2,-165.64"/>
</g>
<!-- Node20 -->
<g id="node20" class="node">
<title>Node20</title>
<g id="a_node20"><a xlink:title=" ">
<polygon fill="#e0e0e0" stroke="#999999" points="2546,-162 2402,-162 2402,-121 2546,-121 2546,-162"/>
<text text-anchor="start" x="2410" y="-150" font-family="Helvetica,sans-Serif" font-size="10.00">asm/JSystem/JAudio2</text>
<text text-anchor="start" x="2410" y="-139" font-family="Helvetica,sans-Serif" font-size="10.00">/JASAiCtrl/mixExtraTrack</text>
<text text-anchor="middle" x="2474" y="-128" font-family="Helvetica,sans-Serif" font-size="10.00">__9JASDriverFPsUlPFl_Ps.s</text>
</a>
</g>
</g>
<!-- Node1&#45;&gt;Node20 -->
<g id="edge19" class="edge">
<title>Node1&#45;&gt;Node20</title>
<path fill="none" stroke="#63b8ff" d="M1323.75,-210.94C1517.4,-207.03 2161.1,-192.17 2390.45,-162.16"/>
<polygon fill="#63b8ff" stroke="#63b8ff" points="2390.77,-165.65 2400.21,-160.83 2389.83,-158.72 2390.77,-165.65"/>
</g>
<!-- Node21 -->
<g id="node21" class="node">
<title>Node21</title>
<g id="a_node21"><a xlink:title=" ">
<polygon fill="#e0e0e0" stroke="#999999" points="2712,-162 2564,-162 2564,-121 2712,-121 2712,-162"/>
<text text-anchor="start" x="2572" y="-150" font-family="Helvetica,sans-Serif" font-size="10.00">asm/JSystem/JAudio2</text>
<text text-anchor="start" x="2572" y="-139" font-family="Helvetica,sans-Serif" font-size="10.00">/JASAiCtrl/mixInterleaveTrack</text>
<text text-anchor="middle" x="2638" y="-128" font-family="Helvetica,sans-Serif" font-size="10.00">__9JASDriverFPsUlPFl_Ps.s</text>
</a>
</g>
</g>
<!-- Node1&#45;&gt;Node21 -->
<g id="edge20" class="edge">
<title>Node1&#45;&gt;Node21</title>
<path fill="none" stroke="#63b8ff" d="M1323.83,-211.26C1535.57,-208.22 2289.9,-195.37 2552.89,-162.09"/>
<polygon fill="#63b8ff" stroke="#63b8ff" points="2552.96,-165.62 2562.42,-160.84 2552.05,-158.67 2552.96,-165.62"/>
</g>
<!-- Node3 -->
<g id="node3" class="node">
<title>Node3</title>
<g id="a_node3"><a xlink:href="types_8h.html" target="_top" xlink:title=" ">
<polygon fill="white" stroke="#666666" points="113.5,-85 32.5,-85 32.5,-66 113.5,-66 113.5,-85"/>
<text text-anchor="middle" x="73" y="-73" font-family="Helvetica,sans-Serif" font-size="10.00">dolphin/types.h</text>
</a>
</g>
</g>
<!-- Node2&#45;&gt;Node3 -->
<g id="edge2" class="edge">
<title>Node2&#45;&gt;Node3</title>
<path fill="none" stroke="#63b8ff" d="M73,-131.6C73,-122.62 73,-108.45 73,-96.72"/>
<polygon fill="#63b8ff" stroke="#63b8ff" points="76.5,-96.84 73,-86.84 69.5,-96.84 76.5,-96.84"/>
</g>
<!-- Node4 -->
<g id="node4" class="node">
<title>Node4</title>
<g id="a_node4"><a xlink:href="stddef_8h.html" target="_top" xlink:title=" ">
<polygon fill="white" stroke="#666666" points="141,-30 5,-30 5,0 141,0 141,-30"/>
<text text-anchor="start" x="13" y="-18" font-family="Helvetica,sans-Serif" font-size="10.00">MSL_C/MSL_Common/Src</text>
<text text-anchor="middle" x="73" y="-7" font-family="Helvetica,sans-Serif" font-size="10.00">/stddef.h</text>
</a>
</g>
</g>
<!-- Node3&#45;&gt;Node4 -->
<g id="edge3" class="edge">
<title>Node3&#45;&gt;Node4</title>
<path fill="none" stroke="#63b8ff" d="M73,-65.87C73,-59.4 73,-50.2 73,-41.45"/>
<polygon fill="#63b8ff" stroke="#63b8ff" points="76.5,-41.63 73,-31.63 69.5,-41.63 76.5,-41.63"/>
</g>
</g>
</svg>
