<?xml version="1.0" encoding="UTF-8" standalone="no"?>
<!DOCTYPE svg PUBLIC "-//W3C//DTD SVG 1.1//EN"
 "http://www.w3.org/Graphics/SVG/1.1/DTD/svg11.dtd">
<!-- Generated by graphviz version 7.0.5 (20221223.1930)
 -->
<!-- Title: libs/JSystem/JAudio2/JASDSPInterface.cpp Pages: 1 -->
<!--zoomable 247 -->
<svg id="main" version="1.1" xmlns="http://www.w3.org/2000/svg" xmlns:xlink="http://www.w3.org/1999/xlink" xml:space="preserve" onload="init(evt)">
<style type="text/css"><![CDATA[
.edge:hover path { stroke: red; }
.edge:hover polygon { stroke: red; fill: red; }
]]></style>
<script type="text/javascript"><![CDATA[
var edges = document.getElementsByTagName('g');
if (edges && edges.length) {
  for (var i=0;i<edges.length;i++) {
    if (edges[i].id.substr(0,4)=='edge') {
      edges[i].setAttribute('class','edge');
    }
  }
}
]]></script>
        <defs>
                <circle id="rim" cx="0" cy="0" r="7"/>
                <circle id="rim2" cx="0" cy="0" r="3.5"/>
                <g id="zoomPlus">
                        <use xlink:href="#rim" fill="#404040">
                                <set attributeName="fill" to="#808080" begin="zoomplus.mouseover" end="zoomplus.mouseout"/>
                        </use>
                        <path d="M-4,0h8M0,-4v8" fill="none" stroke="white" stroke-width="1.5" pointer-events="none"/>
                </g>
                <g id="zoomMin">
                        <use xlink:href="#rim" fill="#404040">
                                <set attributeName="fill" to="#808080" begin="zoomminus.mouseover" end="zoomminus.mouseout"/>
                        </use>
                        <path d="M-4,0h8" fill="none" stroke="white" stroke-width="1.5" pointer-events="none"/>
                </g>
                <g id="dirArrow">
                        <path fill="none" stroke="white" stroke-width="1.5" d="M0,-3.0v7 M-2.5,-0.5L0,-3.0L2.5,-0.5"/>
                </g>
               <g id="resetDef">
                       <use xlink:href="#rim2" fill="#404040">
                               <set attributeName="fill" to="#808080" begin="reset.mouseover" end="reset.mouseout"/>
                       </use>
               </g>
        </defs>

<script type="text/javascript">
var viewWidth = 6282;
var viewHeight = 247;
var sectionId = 'dynsection-0';
</script>
<script xlink:href="svgpan.js"/>
<svg id="graph" class="graph">
<g id="viewport">
<title>libs/JSystem/JAudio2/JASDSPInterface.cpp</title>
<!-- Node1 -->
<g id="node1" class="node">
<title>Node1</title>
<g id="a_node1"><a xlink:title=" ">
<polygon fill="#999999" stroke="#666666" points="3042,-239 2927,-239 2927,-209 3042,-209 3042,-239"/>
<text text-anchor="start" x="2935" y="-227" font-family="Helvetica,sans-Serif" font-size="10.00">libs/JSystem/JAudio2</text>
<text text-anchor="middle" x="2984.5" y="-216" font-family="Helvetica,sans-Serif" font-size="10.00">/JASDSPInterface.cpp</text>
</a>
</g>
</g>
<!-- Node2 -->
<g id="node2" class="node">
<title>Node2</title>
<g id="a_node2"><a xlink:href="JASDSPInterface_8h.html" target="_top" xlink:title=" ">
<polygon fill="white" stroke="#666666" points="181,-156.5 0,-156.5 0,-137.5 181,-137.5 181,-156.5"/>
<text text-anchor="middle" x="90.5" y="-144.5" font-family="Helvetica,sans-Serif" font-size="10.00">JSystem/JAudio2/JASDSPInterface.h</text>
</a>
</g>
</g>
<!-- Node1&#45;&gt;Node2 -->
<g id="edge1" class="edge">
<title>Node1&#45;&gt;Node2</title>
<path fill="none" stroke="#63b8ff" d="M2926.78,-222.75C2551.99,-221.06 470.44,-210.01 190.5,-173 170.32,-170.33 148.33,-165.1 130.13,-160.11"/>
<polygon fill="#63b8ff" stroke="#63b8ff" points="131.08,-156.74 120.5,-157.39 129.17,-163.48 131.08,-156.74"/>
</g>
<!-- Node5 -->
<g id="node5" class="node">
<title>Node5</title>
<g id="a_node5"><a xlink:href="dol2asm_8h.html" target="_top" xlink:title=" ">
<polygon fill="white" stroke="#666666" points="260,-156.5 199,-156.5 199,-137.5 260,-137.5 260,-156.5"/>
<text text-anchor="middle" x="229.5" y="-144.5" font-family="Helvetica,sans-Serif" font-size="10.00">dol2asm.h</text>
</a>
</g>
</g>
<!-- Node1&#45;&gt;Node5 -->
<g id="edge4" class="edge">
<title>Node1&#45;&gt;Node5</title>
<path fill="none" stroke="#63b8ff" d="M2926.8,-222.81C2545.66,-221.45 401.24,-212.1 269.5,-173 262.56,-170.94 255.64,-167.32 249.56,-163.47"/>
<polygon fill="#63b8ff" stroke="#63b8ff" points="251.7,-160.69 241.5,-157.85 247.7,-166.44 251.7,-160.69"/>
</g>
<!-- Node6 -->
<g id="node6" class="node">
<title>Node6</title>
<g id="a_node6"><a xlink:title=" ">
<polygon fill="#e0e0e0" stroke="#999999" points="397,-167.5 278,-167.5 278,-126.5 397,-126.5 397,-167.5"/>
<text text-anchor="start" x="286" y="-155.5" font-family="Helvetica,sans-Serif" font-size="10.00">asm/JSystem/JAudio2</text>
<text text-anchor="start" x="286" y="-144.5" font-family="Helvetica,sans-Serif" font-size="10.00">/JASDSPInterface/boot</text>
<text text-anchor="middle" x="337.5" y="-133.5" font-family="Helvetica,sans-Serif" font-size="10.00">__6JASDspFPFPv_v.s</text>
</a>
</g>
</g>
<!-- Node1&#45;&gt;Node6 -->
<g id="edge5" class="edge">
<title>Node1&#45;&gt;Node6</title>
<path fill="none" stroke="#63b8ff" d="M2926.64,-223.01C2568.56,-222.94 661.57,-220.34 406.5,-173 403.49,-172.44 400.44,-171.77 397.38,-171.01"/>
<polygon fill="#63b8ff" stroke="#63b8ff" points="398.36,-167.65 387.78,-168.31 396.47,-174.38 398.36,-167.65"/>
</g>
<!-- Node7 -->
<g id="node7" class="node">
<title>Node7</title>
<g id="a_node7"><a xlink:title=" ">
<polygon fill="#e0e0e0" stroke="#999999" points="564,-167.5 415,-167.5 415,-126.5 564,-126.5 564,-167.5"/>
<text text-anchor="start" x="423" y="-155.5" font-family="Helvetica,sans-Serif" font-size="10.00">asm/JSystem/JAudio2</text>
<text text-anchor="start" x="423" y="-144.5" font-family="Helvetica,sans-Serif" font-size="10.00">/JASDSPInterface/releaseHalt</text>
<text text-anchor="middle" x="489.5" y="-133.5" font-family="Helvetica,sans-Serif" font-size="10.00">__6JASDspFUl.s</text>
</a>
</g>
</g>
<!-- Node1&#45;&gt;Node7 -->
<g id="edge6" class="edge">
<title>Node1&#45;&gt;Node7</title>
<path fill="none" stroke="#63b8ff" d="M2926.57,-222.73C2582.29,-221 812.32,-210.32 573.5,-173 569.22,-172.33 564.86,-171.5 560.49,-170.56"/>
<polygon fill="#63b8ff" stroke="#63b8ff" points="561.63,-167.23 551.09,-168.34 560.02,-174.05 561.63,-167.23"/>
</g>
<!-- Node8 -->
<g id="node8" class="node">
<title>Node8</title>
<g id="a_node8"><a xlink:title=" ">
<polygon fill="#e0e0e0" stroke="#999999" points="727,-167.5 582,-167.5 582,-126.5 727,-126.5 727,-167.5"/>
<text text-anchor="start" x="590" y="-155.5" font-family="Helvetica,sans-Serif" font-size="10.00">asm/JSystem/JAudio2</text>
<text text-anchor="start" x="590" y="-144.5" font-family="Helvetica,sans-Serif" font-size="10.00">/JASDSPInterface/finishWork</text>
<text text-anchor="middle" x="654.5" y="-133.5" font-family="Helvetica,sans-Serif" font-size="10.00">__6JASDspFUs.s</text>
</a>
</g>
</g>
<!-- Node1&#45;&gt;Node8 -->
<g id="edge7" class="edge">
<title>Node1&#45;&gt;Node8</title>
<path fill="none" stroke="#63b8ff" d="M2926.5,-222.66C2596.08,-220.58 958.13,-208.56 736.5,-173 732.44,-172.35 728.3,-171.55 724.15,-170.63"/>
<polygon fill="#63b8ff" stroke="#63b8ff" points="725.18,-167.28 714.64,-168.34 723.54,-174.09 725.18,-167.28"/>
</g>
<!-- Node9 -->
<g id="node9" class="node">
<title>Node9</title>
<g id="a_node9"><a xlink:title=" ">
<polygon fill="#e0e0e0" stroke="#999999" points="893.5,-167.5 745.5,-167.5 745.5,-126.5 893.5,-126.5 893.5,-167.5"/>
<text text-anchor="start" x="753.5" y="-155.5" font-family="Helvetica,sans-Serif" font-size="10.00">asm/JSystem/JAudio2</text>
<text text-anchor="start" x="753.5" y="-144.5" font-family="Helvetica,sans-Serif" font-size="10.00">/JASDSPInterface/syncFrame</text>
<text text-anchor="middle" x="819.5" y="-133.5" font-family="Helvetica,sans-Serif" font-size="10.00">__6JASDspFUlUlUl.s</text>
</a>
</g>
</g>
<!-- Node1&#45;&gt;Node9 -->
<g id="edge8" class="edge">
<title>Node1&#45;&gt;Node9</title>
<path fill="none" stroke="#63b8ff" d="M2926.76,-222.53C2611.79,-219.82 1107.86,-205.28 903.5,-173 899.23,-172.32 894.87,-171.49 890.49,-170.54"/>
<polygon fill="#63b8ff" stroke="#63b8ff" points="891.63,-167.22 881.1,-168.32 890.02,-174.03 891.63,-167.22"/>
</g>
<!-- Node10 -->
<g id="node10" class="node">
<title>Node10</title>
<g id="a_node10"><a xlink:title=" ">
<polygon fill="#e0e0e0" stroke="#999999" points="1069,-167.5 912,-167.5 912,-126.5 1069,-126.5 1069,-167.5"/>
<text text-anchor="start" x="920" y="-155.5" font-family="Helvetica,sans-Serif" font-size="10.00">asm/JSystem/JAudio2</text>
<text text-anchor="start" x="920" y="-144.5" font-family="Helvetica,sans-Serif" font-size="10.00">/JASDSPInterface/setDSPMixer</text>
<text text-anchor="middle" x="990.5" y="-133.5" font-family="Helvetica,sans-Serif" font-size="10.00">Level__6JASDspFf.s</text>
</a>
</g>
</g>
<!-- Node1&#45;&gt;Node10 -->
<g id="edge9" class="edge">
<title>Node1&#45;&gt;Node10</title>
<path fill="none" stroke="#63b8ff" d="M2926.8,-222.35C2628.17,-218.85 1264.81,-201.45 1078.5,-173 1073.91,-172.3 1069.22,-171.43 1064.51,-170.45"/>
<polygon fill="#63b8ff" stroke="#63b8ff" points="1065.53,-167.09 1055.01,-168.29 1063.98,-173.91 1065.53,-167.09"/>
</g>
<!-- Node11 -->
<g id="node11" class="node">
<title>Node11</title>
<g id="a_node11"><a xlink:title=" ">
<polygon fill="#e0e0e0" stroke="#999999" points="1244,-167.5 1087,-167.5 1087,-126.5 1244,-126.5 1244,-167.5"/>
<text text-anchor="start" x="1095" y="-155.5" font-family="Helvetica,sans-Serif" font-size="10.00">asm/JSystem/JAudio2</text>
<text text-anchor="start" x="1095" y="-144.5" font-family="Helvetica,sans-Serif" font-size="10.00">/JASDSPInterface/getDSPMixer</text>
<text text-anchor="middle" x="1165.5" y="-133.5" font-family="Helvetica,sans-Serif" font-size="10.00">Level__6JASDspFv.s</text>
</a>
</g>
</g>
<!-- Node1&#45;&gt;Node11 -->
<g id="edge10" class="edge">
<title>Node1&#45;&gt;Node11</title>
<path fill="none" stroke="#63b8ff" d="M2926.6,-223.25C2664.4,-224.1 1586.67,-224.32 1253.5,-173 1248.91,-172.29 1244.22,-171.42 1239.51,-170.43"/>
<polygon fill="#63b8ff" stroke="#63b8ff" points="1240.54,-167.08 1230.01,-168.27 1238.98,-173.9 1240.54,-167.08"/>
</g>
<!-- Node12 -->
<g id="node12" class="node">
<title>Node12</title>
<g id="a_node12"><a xlink:title=" ">
<polygon fill="#e0e0e0" stroke="#999999" points="1426.5,-167.5 1262.5,-167.5 1262.5,-126.5 1426.5,-126.5 1426.5,-167.5"/>
<text text-anchor="start" x="1270.5" y="-155.5" font-family="Helvetica,sans-Serif" font-size="10.00">asm/JSystem/JAudio2</text>
<text text-anchor="start" x="1270.5" y="-144.5" font-family="Helvetica,sans-Serif" font-size="10.00">/JASDSPInterface/getDSPHandle</text>
<text text-anchor="middle" x="1344.5" y="-133.5" font-family="Helvetica,sans-Serif" font-size="10.00">__6JASDspFi.s</text>
</a>
</g>
</g>
<!-- Node1&#45;&gt;Node12 -->
<g id="edge11" class="edge">
<title>Node1&#45;&gt;Node12</title>
<path fill="none" stroke="#63b8ff" d="M2926.66,-222.96C2682.01,-222.49 1731.3,-217.76 1435.5,-173 1430.63,-172.26 1425.65,-171.35 1420.65,-170.32"/>
<polygon fill="#63b8ff" stroke="#63b8ff" points="1421.71,-166.98 1411.19,-168.22 1420.19,-173.81 1421.71,-166.98"/>
</g>
<!-- Node13 -->
<g id="node13" class="node">
<title>Node13</title>
<g id="a_node13"><a xlink:title=" ">
<polygon fill="#e0e0e0" stroke="#999999" points="1584.5,-167.5 1444.5,-167.5 1444.5,-126.5 1584.5,-126.5 1584.5,-167.5"/>
<text text-anchor="start" x="1452.5" y="-155.5" font-family="Helvetica,sans-Serif" font-size="10.00">asm/JSystem/JAudio2</text>
<text text-anchor="start" x="1452.5" y="-144.5" font-family="Helvetica,sans-Serif" font-size="10.00">/JASDSPInterface/setFilter</text>
<text text-anchor="middle" x="1514.5" y="-133.5" font-family="Helvetica,sans-Serif" font-size="10.00">Table__6JASDspFPsPsUl.s</text>
</a>
</g>
</g>
<!-- Node1&#45;&gt;Node13 -->
<g id="edge12" class="edge">
<title>Node1&#45;&gt;Node13</title>
<path fill="none" stroke="#63b8ff" d="M2926.82,-223C2698.27,-222.68 1856.02,-218.39 1593.5,-173 1589.7,-172.34 1585.83,-171.55 1581.94,-170.65"/>
<polygon fill="#63b8ff" stroke="#63b8ff" points="1583.02,-167.32 1572.47,-168.27 1581.31,-174.11 1583.02,-167.32"/>
</g>
<!-- Node14 -->
<g id="node14" class="node">
<title>Node14</title>
<g id="a_node14"><a xlink:title=" ">
<polygon fill="#e0e0e0" stroke="#999999" points="1748.5,-167.5 1602.5,-167.5 1602.5,-126.5 1748.5,-126.5 1748.5,-167.5"/>
<text text-anchor="start" x="1610.5" y="-155.5" font-family="Helvetica,sans-Serif" font-size="10.00">asm/JSystem/JAudio2</text>
<text text-anchor="start" x="1610.5" y="-144.5" font-family="Helvetica,sans-Serif" font-size="10.00">/JASDSPInterface/flushBuffer</text>
<text text-anchor="middle" x="1675.5" y="-133.5" font-family="Helvetica,sans-Serif" font-size="10.00">__6JASDspFv.s</text>
</a>
</g>
</g>
<!-- Node1&#45;&gt;Node14 -->
<g id="edge13" class="edge">
<title>Node1&#45;&gt;Node14</title>
<path fill="none" stroke="#63b8ff" d="M2926.62,-222.57C2715.52,-220.69 1987.48,-211.52 1758.5,-173 1754.48,-172.32 1750.38,-171.51 1746.26,-170.6"/>
<polygon fill="#63b8ff" stroke="#63b8ff" points="1747.38,-167.27 1736.84,-168.32 1745.74,-174.07 1747.38,-167.27"/>
</g>
<!-- Node15 -->
<g id="node15" class="node">
<title>Node15</title>
<g id="a_node15"><a xlink:title=" ">
<polygon fill="#e0e0e0" stroke="#999999" points="1922,-167.5 1767,-167.5 1767,-126.5 1922,-126.5 1922,-167.5"/>
<text text-anchor="start" x="1775" y="-155.5" font-family="Helvetica,sans-Serif" font-size="10.00">asm/JSystem/JAudio2</text>
<text text-anchor="start" x="1775" y="-144.5" font-family="Helvetica,sans-Serif" font-size="10.00">/JASDSPInterface/invalChannel</text>
<text text-anchor="middle" x="1844.5" y="-133.5" font-family="Helvetica,sans-Serif" font-size="10.00">All__6JASDspFv.s</text>
</a>
</g>
</g>
<!-- Node1&#45;&gt;Node15 -->
<g id="edge14" class="edge">
<title>Node1&#45;&gt;Node15</title>
<path fill="none" stroke="#63b8ff" d="M2926.73,-222.02C2735.69,-218.52 2125.5,-205.03 1931.5,-173 1927.18,-172.29 1922.76,-171.43 1918.33,-170.47"/>
<polygon fill="#63b8ff" stroke="#63b8ff" points="1919.31,-167.11 1908.78,-168.25 1917.72,-173.93 1919.31,-167.11"/>
</g>
<!-- Node16 -->
<g id="node16" class="node">
<title>Node16</title>
<g id="a_node16"><a xlink:title=" ">
<polygon fill="#e0e0e0" stroke="#999999" points="2078.5,-167.5 1940.5,-167.5 1940.5,-126.5 2078.5,-126.5 2078.5,-167.5"/>
<text text-anchor="start" x="1948.5" y="-155.5" font-family="Helvetica,sans-Serif" font-size="10.00">asm/JSystem/JAudio2</text>
<text text-anchor="start" x="1948.5" y="-144.5" font-family="Helvetica,sans-Serif" font-size="10.00">/JASDSPInterface/initBuffer</text>
<text text-anchor="middle" x="2009.5" y="-133.5" font-family="Helvetica,sans-Serif" font-size="10.00">__6JASDspFv.s</text>
</a>
</g>
</g>
<!-- Node1&#45;&gt;Node16 -->
<g id="edge15" class="edge">
<title>Node1&#45;&gt;Node16</title>
<path fill="none" stroke="#63b8ff" d="M2926.7,-221.7C2754.94,-217.52 2249.5,-202.97 2087.5,-173 2084.11,-172.37 2080.67,-171.64 2077.21,-170.83"/>
<polygon fill="#63b8ff" stroke="#63b8ff" points="2078.18,-167.47 2067.62,-168.37 2076.44,-174.25 2078.18,-167.47"/>
</g>
<!-- Node17 -->
<g id="node17" class="node">
<title>Node17</title>
<g id="a_node17"><a xlink:title=" ">
<polygon fill="#e0e0e0" stroke="#999999" points="2292.5,-173 2096.5,-173 2096.5,-121 2292.5,-121 2292.5,-173"/>
<text text-anchor="start" x="2104.5" y="-161" font-family="Helvetica,sans-Serif" font-size="10.00">asm/JSystem/JAudio2</text>
<text text-anchor="start" x="2104.5" y="-150" font-family="Helvetica,sans-Serif" font-size="10.00">/JASDSPInterface/setFXLine</text>
<text text-anchor="start" x="2104.5" y="-139" font-family="Helvetica,sans-Serif" font-size="10.00">__6JASDspFUcPsPQ26JASDsp13Fxline</text>
<text text-anchor="middle" x="2194.5" y="-128" font-family="Helvetica,sans-Serif" font-size="10.00">Config_.s</text>
</a>
</g>
</g>
<!-- Node1&#45;&gt;Node17 -->
<g id="edge16" class="edge">
<title>Node1&#45;&gt;Node17</title>
<path fill="none" stroke="#63b8ff" d="M2926.59,-221.81C2810.28,-218.77 2539.9,-208.37 2304.12,-173.29"/>
<polygon fill="#63b8ff" stroke="#63b8ff" points="2304.83,-169.86 2294.42,-171.83 2303.78,-176.78 2304.83,-169.86"/>
</g>
<!-- Node18 -->
<g id="node18" class="node">
<title>Node18</title>
<g id="a_node18"><a xlink:title=" ">
<polygon fill="#e0e0e0" stroke="#999999" points="2456.5,-167.5 2310.5,-167.5 2310.5,-126.5 2456.5,-126.5 2456.5,-167.5"/>
<text text-anchor="start" x="2318.5" y="-155.5" font-family="Helvetica,sans-Serif" font-size="10.00">asm/JSystem/JAudio2</text>
<text text-anchor="start" x="2318.5" y="-144.5" font-family="Helvetica,sans-Serif" font-size="10.00">/JASDSPInterface/init</text>
<text text-anchor="middle" x="2383.5" y="-133.5" font-family="Helvetica,sans-Serif" font-size="10.00">__Q26JASDsp8TChannelFv.s</text>
</a>
</g>
</g>
<!-- Node1&#45;&gt;Node18 -->
<g id="edge17" class="edge">
<title>Node1&#45;&gt;Node18</title>
<path fill="none" stroke="#63b8ff" d="M2926.74,-221.2C2830.33,-217.36 2630.87,-205.83 2465.5,-173 2462.11,-172.33 2458.65,-171.57 2455.18,-170.75"/>
<polygon fill="#63b8ff" stroke="#63b8ff" points="2456.08,-167.36 2445.52,-168.31 2454.36,-174.15 2456.08,-167.36"/>
</g>
<!-- Node19 -->
<g id="node19" class="node">
<title>Node19</title>
<g id="a_node19"><a xlink:title=" ">
<polygon fill="#e0e0e0" stroke="#999999" points="2620.5,-167.5 2474.5,-167.5 2474.5,-126.5 2620.5,-126.5 2620.5,-167.5"/>
<text text-anchor="start" x="2482.5" y="-155.5" font-family="Helvetica,sans-Serif" font-size="10.00">asm/JSystem/JAudio2</text>
<text text-anchor="start" x="2482.5" y="-144.5" font-family="Helvetica,sans-Serif" font-size="10.00">/JASDSPInterface/playStart</text>
<text text-anchor="middle" x="2547.5" y="-133.5" font-family="Helvetica,sans-Serif" font-size="10.00">__Q26JASDsp8TChannelFv.s</text>
</a>
</g>
</g>
<!-- Node1&#45;&gt;Node19 -->
<g id="edge18" class="edge">
<title>Node1&#45;&gt;Node19</title>
<path fill="none" stroke="#63b8ff" d="M2926.52,-217.64C2855.82,-210.46 2732.96,-195.91 2629.5,-173 2626.37,-172.31 2623.18,-171.55 2619.97,-170.75"/>
<polygon fill="#63b8ff" stroke="#63b8ff" points="2621.04,-167.41 2610.48,-168.26 2619.26,-174.19 2621.04,-167.41"/>
</g>
<!-- Node20 -->
<g id="node20" class="node">
<title>Node20</title>
<g id="a_node20"><a xlink:title=" ">
<polygon fill="#e0e0e0" stroke="#999999" points="2784.5,-167.5 2638.5,-167.5 2638.5,-126.5 2784.5,-126.5 2784.5,-167.5"/>
<text text-anchor="start" x="2646.5" y="-155.5" font-family="Helvetica,sans-Serif" font-size="10.00">asm/JSystem/JAudio2</text>
<text text-anchor="start" x="2646.5" y="-144.5" font-family="Helvetica,sans-Serif" font-size="10.00">/JASDSPInterface/playStop</text>
<text text-anchor="middle" x="2711.5" y="-133.5" font-family="Helvetica,sans-Serif" font-size="10.00">__Q26JASDsp8TChannelFv.s</text>
</a>
</g>
</g>
<!-- Node1&#45;&gt;Node20 -->
<g id="edge19" class="edge">
<title>Node1&#45;&gt;Node20</title>
<path fill="none" stroke="#63b8ff" d="M2927.09,-208.61C2889.08,-198.92 2838.19,-185.66 2793.5,-173 2791.26,-172.37 2788.99,-171.72 2786.7,-171.06"/>
<polygon fill="#63b8ff" stroke="#63b8ff" points="2787.92,-167.77 2777.34,-168.32 2785.96,-174.48 2787.92,-167.77"/>
</g>
<!-- Node21 -->
<g id="node21" class="node">
<title>Node21</title>
<g id="a_node21"><a xlink:title=" ">
<polygon fill="#e0e0e0" stroke="#999999" points="2984.5,-167.5 2802.5,-167.5 2802.5,-126.5 2984.5,-126.5 2984.5,-167.5"/>
<text text-anchor="start" x="2810.5" y="-155.5" font-family="Helvetica,sans-Serif" font-size="10.00">asm/JSystem/JAudio2</text>
<text text-anchor="start" x="2810.5" y="-144.5" font-family="Helvetica,sans-Serif" font-size="10.00">/JASDSPInterface/replyFinish</text>
<text text-anchor="middle" x="2893.5" y="-133.5" font-family="Helvetica,sans-Serif" font-size="10.00">Request__Q26JASDsp8TChannelFv.s</text>
</a>
</g>
</g>
<!-- Node1&#45;&gt;Node21 -->
<g id="edge20" class="edge">
<title>Node1&#45;&gt;Node21</title>
<path fill="none" stroke="#63b8ff" d="M2966.95,-208.54C2955.43,-199.04 2940,-186.32 2926.26,-175"/>
<polygon fill="#63b8ff" stroke="#63b8ff" points="2928.64,-172.43 2918.7,-168.77 2924.19,-177.83 2928.64,-172.43"/>
</g>
<!-- Node22 -->
<g id="node22" class="node">
<title>Node22</title>
<g id="a_node22"><a xlink:title=" ">
<polygon fill="#e0e0e0" stroke="#999999" points="3148.5,-167.5 3002.5,-167.5 3002.5,-126.5 3148.5,-126.5 3148.5,-167.5"/>
<text text-anchor="start" x="3010.5" y="-155.5" font-family="Helvetica,sans-Serif" font-size="10.00">asm/JSystem/JAudio2</text>
<text text-anchor="start" x="3010.5" y="-144.5" font-family="Helvetica,sans-Serif" font-size="10.00">/JASDSPInterface/forceStop</text>
<text text-anchor="middle" x="3075.5" y="-133.5" font-family="Helvetica,sans-Serif" font-size="10.00">__Q26JASDsp8TChannelFv.s</text>
</a>
</g>
</g>
<!-- Node1&#45;&gt;Node22 -->
<g id="edge21" class="edge">
<title>Node1&#45;&gt;Node22</title>
<path fill="none" stroke="#63b8ff" d="M3002.05,-208.54C3013.57,-199.04 3029,-186.32 3042.74,-175"/>
<polygon fill="#63b8ff" stroke="#63b8ff" points="3044.81,-177.83 3050.3,-168.77 3040.36,-172.43 3044.81,-177.83"/>
</g>
<!-- Node23 -->
<g id="node23" class="node">
<title>Node23</title>
<g id="a_node23"><a xlink:title=" ">
<polygon fill="#e0e0e0" stroke="#999999" points="3320,-167.5 3167,-167.5 3167,-126.5 3320,-126.5 3320,-167.5"/>
<text text-anchor="start" x="3175" y="-155.5" font-family="Helvetica,sans-Serif" font-size="10.00">asm/JSystem/JAudio2</text>
<text text-anchor="start" x="3175" y="-144.5" font-family="Helvetica,sans-Serif" font-size="10.00">/JASDSPInterface/isActive</text>
<text text-anchor="middle" x="3243.5" y="-133.5" font-family="Helvetica,sans-Serif" font-size="10.00">__Q26JASDsp8TChannelCFv.s</text>
</a>
</g>
</g>
<!-- Node1&#45;&gt;Node23 -->
<g id="edge22" class="edge">
<title>Node1&#45;&gt;Node23</title>
<path fill="none" stroke="#63b8ff" d="M3034.47,-208.58C3069.03,-198.6 3116.06,-185.01 3157.5,-173 3159.63,-172.38 3161.79,-171.76 3163.96,-171.13"/>
<polygon fill="#63b8ff" stroke="#63b8ff" points="3164.89,-174.5 3173.51,-168.35 3162.93,-167.78 3164.89,-174.5"/>
</g>
<!-- Node24 -->
<g id="node24" class="node">
<title>Node24</title>
<g id="a_node24"><a xlink:title=" ">
<polygon fill="#e0e0e0" stroke="#999999" points="3491,-167.5 3338,-167.5 3338,-126.5 3491,-126.5 3491,-167.5"/>
<text text-anchor="start" x="3346" y="-155.5" font-family="Helvetica,sans-Serif" font-size="10.00">asm/JSystem/JAudio2</text>
<text text-anchor="start" x="3346" y="-144.5" font-family="Helvetica,sans-Serif" font-size="10.00">/JASDSPInterface/isFinish</text>
<text text-anchor="middle" x="3414.5" y="-133.5" font-family="Helvetica,sans-Serif" font-size="10.00">__Q26JASDsp8TChannelCFv.s</text>
</a>
</g>
</g>
<!-- Node1&#45;&gt;Node24 -->
<g id="edge23" class="edge">
<title>Node1&#45;&gt;Node24</title>
<path fill="none" stroke="#63b8ff" d="M3042.33,-217.16C3111.23,-209.62 3229.57,-194.82 3329.5,-173 3332.67,-172.31 3335.89,-171.56 3339.14,-170.77"/>
<polygon fill="#63b8ff" stroke="#63b8ff" points="3339.94,-174.18 3348.77,-168.32 3338.22,-167.39 3339.94,-174.18"/>
</g>
<!-- Node25 -->
<g id="node25" class="node">
<title>Node25</title>
<g id="a_node25"><a xlink:title=" ">
<polygon fill="#e0e0e0" stroke="#999999" points="3710,-173 3509,-173 3509,-121 3710,-121 3710,-173"/>
<text text-anchor="start" x="3517" y="-161" font-family="Helvetica,sans-Serif" font-size="10.00">asm/JSystem/JAudio2</text>
<text text-anchor="start" x="3517" y="-150" font-family="Helvetica,sans-Serif" font-size="10.00">/JASDSPInterface/setWaveInfo</text>
<text text-anchor="start" x="3517" y="-139" font-family="Helvetica,sans-Serif" font-size="10.00">__Q26JASDsp8TChannelFRC11JASWave</text>
<text text-anchor="middle" x="3609.5" y="-128" font-family="Helvetica,sans-Serif" font-size="10.00">InfoUlUl.s</text>
</a>
</g>
</g>
<!-- Node1&#45;&gt;Node25 -->
<g id="edge24" class="edge">
<title>Node1&#45;&gt;Node25</title>
<path fill="none" stroke="#63b8ff" d="M3042.46,-219.83C3136.21,-214.16 3327.06,-200.41 3497.44,-173.41"/>
<polygon fill="#63b8ff" stroke="#63b8ff" points="3497.82,-176.9 3507.14,-171.86 3496.71,-169.99 3497.82,-176.9"/>
</g>
<!-- Node26 -->
<g id="node26" class="node">
<title>Node26</title>
<g id="a_node26"><a xlink:title=" ">
<polygon fill="#e0e0e0" stroke="#999999" points="3879,-167.5 3728,-167.5 3728,-126.5 3879,-126.5 3879,-167.5"/>
<text text-anchor="start" x="3736" y="-155.5" font-family="Helvetica,sans-Serif" font-size="10.00">asm/JSystem/JAudio2</text>
<text text-anchor="start" x="3736" y="-144.5" font-family="Helvetica,sans-Serif" font-size="10.00">/JASDSPInterface/setOscInfo</text>
<text text-anchor="middle" x="3803.5" y="-133.5" font-family="Helvetica,sans-Serif" font-size="10.00">__Q26JASDsp8TChannelFUl.s</text>
</a>
</g>
</g>
<!-- Node1&#45;&gt;Node26 -->
<g id="edge25" class="edge">
<title>Node1&#45;&gt;Node26</title>
<path fill="none" stroke="#63b8ff" d="M3042.21,-223.39C3166.89,-223.3 3470.29,-217.99 3719.5,-173 3723.36,-172.3 3727.3,-171.49 3731.25,-170.6"/>
<polygon fill="#63b8ff" stroke="#63b8ff" points="3732.04,-174.01 3740.93,-168.24 3730.39,-167.21 3732.04,-174.01"/>
</g>
<!-- Node27 -->
<g id="node27" class="node">
<title>Node27</title>
<g id="a_node27"><a xlink:title=" ">
<polygon fill="#e0e0e0" stroke="#999999" points="4053.5,-167.5 3897.5,-167.5 3897.5,-126.5 4053.5,-126.5 4053.5,-167.5"/>
<text text-anchor="start" x="3905.5" y="-155.5" font-family="Helvetica,sans-Serif" font-size="10.00">asm/JSystem/JAudio2</text>
<text text-anchor="start" x="3905.5" y="-144.5" font-family="Helvetica,sans-Serif" font-size="10.00">/JASDSPInterface/initAutoMixer</text>
<text text-anchor="middle" x="3975.5" y="-133.5" font-family="Helvetica,sans-Serif" font-size="10.00">__Q26JASDsp8TChannelFv.s</text>
</a>
</g>
</g>
<!-- Node1&#45;&gt;Node27 -->
<g id="edge26" class="edge">
<title>Node1&#45;&gt;Node27</title>
<path fill="none" stroke="#63b8ff" d="M3042.4,-221.5C3215.09,-216.75 3724.7,-200.7 3888.5,-173 3892.62,-172.3 3896.81,-171.48 3901.03,-170.57"/>
<polygon fill="#63b8ff" stroke="#63b8ff" points="3901.79,-173.99 3910.74,-168.31 3900.2,-167.17 3901.79,-173.99"/>
</g>
<!-- Node28 -->
<g id="node28" class="node">
<title>Node28</title>
<g id="a_node28"><a xlink:title=" ">
<polygon fill="#e0e0e0" stroke="#999999" points="4277,-167.5 4072,-167.5 4072,-126.5 4277,-126.5 4277,-167.5"/>
<text text-anchor="start" x="4080" y="-155.5" font-family="Helvetica,sans-Serif" font-size="10.00">asm/JSystem/JAudio2</text>
<text text-anchor="start" x="4080" y="-144.5" font-family="Helvetica,sans-Serif" font-size="10.00">/JASDSPInterface/setAutoMixer</text>
<text text-anchor="middle" x="4174.5" y="-133.5" font-family="Helvetica,sans-Serif" font-size="10.00">__Q26JASDsp8TChannelFUsUcUcUcUc.s</text>
</a>
</g>
</g>
<!-- Node1&#45;&gt;Node28 -->
<g id="edge27" class="edge">
<title>Node1&#45;&gt;Node28</title>
<path fill="none" stroke="#63b8ff" d="M3042.22,-221.64C3236.02,-216.88 3862.52,-199.75 4062.5,-173 4068.83,-172.15 4075.32,-171.13 4081.85,-169.98"/>
<polygon fill="#63b8ff" stroke="#63b8ff" points="4082.15,-173.49 4091.34,-168.22 4080.87,-166.6 4082.15,-173.49"/>
</g>
<!-- Node29 -->
<g id="node29" class="node">
<title>Node29</title>
<g id="a_node29"><a xlink:title=" ">
<polygon fill="#e0e0e0" stroke="#999999" points="4449.5,-167.5 4295.5,-167.5 4295.5,-126.5 4449.5,-126.5 4449.5,-167.5"/>
<text text-anchor="start" x="4303.5" y="-155.5" font-family="Helvetica,sans-Serif" font-size="10.00">asm/JSystem/JAudio2</text>
<text text-anchor="start" x="4303.5" y="-144.5" font-family="Helvetica,sans-Serif" font-size="10.00">/JASDSPInterface/setPitch</text>
<text text-anchor="middle" x="4372.5" y="-133.5" font-family="Helvetica,sans-Serif" font-size="10.00">__Q26JASDsp8TChannelFUs.s</text>
</a>
</g>
</g>
<!-- Node1&#45;&gt;Node29 -->
<g id="edge28" class="edge">
<title>Node1&#45;&gt;Node29</title>
<path fill="none" stroke="#63b8ff" d="M3042.16,-222.66C3261.2,-221.06 4041.71,-212.67 4286.5,-173 4290.78,-172.31 4295.15,-171.47 4299.54,-170.52"/>
<polygon fill="#63b8ff" stroke="#63b8ff" points="4300.02,-174 4308.96,-168.32 4298.43,-167.19 4300.02,-174"/>
</g>
<!-- Node30 -->
<g id="node30" class="node">
<title>Node30</title>
<g id="a_node30"><a xlink:title=" ">
<polygon fill="#e0e0e0" stroke="#999999" points="4659.5,-167.5 4467.5,-167.5 4467.5,-126.5 4659.5,-126.5 4659.5,-167.5"/>
<text text-anchor="start" x="4475.5" y="-155.5" font-family="Helvetica,sans-Serif" font-size="10.00">asm/JSystem/JAudio2</text>
<text text-anchor="start" x="4475.5" y="-144.5" font-family="Helvetica,sans-Serif" font-size="10.00">/JASDSPInterface/setMixerInit</text>
<text text-anchor="middle" x="4563.5" y="-133.5" font-family="Helvetica,sans-Serif" font-size="10.00">Volume__Q26JASDsp8TChannelFUcs.s</text>
</a>
</g>
</g>
<!-- Node1&#45;&gt;Node30 -->
<g id="edge29" class="edge">
<title>Node1&#45;&gt;Node30</title>
<path fill="none" stroke="#63b8ff" d="M3042.28,-222.58C3279.27,-220.63 4177.46,-210.84 4458.5,-173 4464.42,-172.2 4470.49,-171.22 4476.59,-170.1"/>
<polygon fill="#63b8ff" stroke="#63b8ff" points="4476.93,-173.6 4486.08,-168.25 4475.59,-166.73 4476.93,-173.6"/>
</g>
<!-- Node31 -->
<g id="node31" class="node">
<title>Node31</title>
<g id="a_node31"><a xlink:title=" ">
<polygon fill="#e0e0e0" stroke="#999999" points="4847.5,-167.5 4677.5,-167.5 4677.5,-126.5 4847.5,-126.5 4847.5,-167.5"/>
<text text-anchor="start" x="4685.5" y="-155.5" font-family="Helvetica,sans-Serif" font-size="10.00">asm/JSystem/JAudio2</text>
<text text-anchor="start" x="4685.5" y="-144.5" font-family="Helvetica,sans-Serif" font-size="10.00">/JASDSPInterface/setMixerVolume</text>
<text text-anchor="middle" x="4762.5" y="-133.5" font-family="Helvetica,sans-Serif" font-size="10.00">__Q26JASDsp8TChannelFUcs.s</text>
</a>
</g>
</g>
<!-- Node1&#45;&gt;Node31 -->
<g id="edge30" class="edge">
<title>Node1&#45;&gt;Node31</title>
<path fill="none" stroke="#63b8ff" d="M3042.09,-223.07C3299.31,-223.1 4344.52,-220.25 4668.5,-173 4673.48,-172.27 4678.56,-171.38 4683.67,-170.36"/>
<polygon fill="#63b8ff" stroke="#63b8ff" points="4684.33,-173.8 4693.38,-168.29 4682.87,-166.96 4684.33,-173.8"/>
</g>
<!-- Node32 -->
<g id="node32" class="node">
<title>Node32</title>
<g id="a_node32"><a xlink:title=" ">
<polygon fill="#e0e0e0" stroke="#999999" points="5025.5,-167.5 4865.5,-167.5 4865.5,-126.5 5025.5,-126.5 5025.5,-167.5"/>
<text text-anchor="start" x="4873.5" y="-155.5" font-family="Helvetica,sans-Serif" font-size="10.00">asm/JSystem/JAudio2</text>
<text text-anchor="start" x="4873.5" y="-144.5" font-family="Helvetica,sans-Serif" font-size="10.00">/JASDSPInterface/setPauseFlag</text>
<text text-anchor="middle" x="4945.5" y="-133.5" font-family="Helvetica,sans-Serif" font-size="10.00">__Q26JASDsp8TChannelFUc.s</text>
</a>
</g>
</g>
<!-- Node1&#45;&gt;Node32 -->
<g id="edge31" class="edge">
<title>Node1&#45;&gt;Node32</title>
<path fill="none" stroke="#63b8ff" d="M3042.45,-223.38C3317.63,-224.87 4494.06,-227.88 4856.5,-173 4861.14,-172.3 4865.88,-171.43 4870.64,-170.44"/>
<polygon fill="#63b8ff" stroke="#63b8ff" points="4871.28,-173.89 4880.27,-168.28 4869.74,-167.06 4871.28,-173.89"/>
</g>
<!-- Node33 -->
<g id="node33" class="node">
<title>Node33</title>
<g id="a_node33"><a xlink:title=" ">
<polygon fill="#e0e0e0" stroke="#999999" points="5189.5,-167.5 5043.5,-167.5 5043.5,-126.5 5189.5,-126.5 5189.5,-167.5"/>
<text text-anchor="start" x="5051.5" y="-155.5" font-family="Helvetica,sans-Serif" font-size="10.00">asm/JSystem/JAudio2</text>
<text text-anchor="start" x="5051.5" y="-144.5" font-family="Helvetica,sans-Serif" font-size="10.00">/JASDSPInterface/flush</text>
<text text-anchor="middle" x="5116.5" y="-133.5" font-family="Helvetica,sans-Serif" font-size="10.00">__Q26JASDsp8TChannelFv.s</text>
</a>
</g>
</g>
<!-- Node1&#45;&gt;Node33 -->
<g id="edge32" class="edge">
<title>Node1&#45;&gt;Node33</title>
<path fill="none" stroke="#63b8ff" d="M3042.41,-222.52C3354.91,-219.83 4833.51,-205.47 5034.5,-173 5038.56,-172.34 5042.7,-171.54 5046.85,-170.62"/>
<polygon fill="#63b8ff" stroke="#63b8ff" points="5047.46,-174.08 5056.36,-168.33 5045.82,-167.27 5047.46,-174.08"/>
</g>
<!-- Node34 -->
<g id="node34" class="node">
<title>Node34</title>
<g id="a_node34"><a xlink:title=" ">
<polygon fill="#e0e0e0" stroke="#999999" points="5353.5,-167.5 5207.5,-167.5 5207.5,-126.5 5353.5,-126.5 5353.5,-167.5"/>
<text text-anchor="start" x="5215.5" y="-155.5" font-family="Helvetica,sans-Serif" font-size="10.00">asm/JSystem/JAudio2</text>
<text text-anchor="start" x="5215.5" y="-144.5" font-family="Helvetica,sans-Serif" font-size="10.00">/JASDSPInterface/initFilter</text>
<text text-anchor="middle" x="5280.5" y="-133.5" font-family="Helvetica,sans-Serif" font-size="10.00">__Q26JASDsp8TChannelFv.s</text>
</a>
</g>
</g>
<!-- Node1&#45;&gt;Node34 -->
<g id="edge33" class="edge">
<title>Node1&#45;&gt;Node34</title>
<path fill="none" stroke="#63b8ff" d="M3042.42,-222.64C3369.67,-220.46 4980.4,-208.03 5198.5,-173 5202.56,-172.35 5206.7,-171.55 5210.85,-170.63"/>
<polygon fill="#63b8ff" stroke="#63b8ff" points="5211.46,-174.09 5220.36,-168.34 5209.82,-167.28 5211.46,-174.09"/>
</g>
<!-- Node35 -->
<g id="node35" class="node">
<title>Node35</title>
<g id="a_node35"><a xlink:title=" ">
<polygon fill="#e0e0e0" stroke="#999999" points="5549.5,-167.5 5371.5,-167.5 5371.5,-126.5 5549.5,-126.5 5549.5,-167.5"/>
<text text-anchor="start" x="5379.5" y="-155.5" font-family="Helvetica,sans-Serif" font-size="10.00">asm/JSystem/JAudio2</text>
<text text-anchor="start" x="5379.5" y="-144.5" font-family="Helvetica,sans-Serif" font-size="10.00">/JASDSPInterface/setFilter</text>
<text text-anchor="middle" x="5460.5" y="-133.5" font-family="Helvetica,sans-Serif" font-size="10.00">Mode__Q26JASDsp8TChannelFUs.s</text>
</a>
</g>
</g>
<!-- Node1&#45;&gt;Node35 -->
<g id="edge34" class="edge">
<title>Node1&#45;&gt;Node35</title>
<path fill="none" stroke="#63b8ff" d="M3042.45,-222.58C3383.9,-219.97 5126.47,-205.16 5362.5,-173 5368.01,-172.25 5373.66,-171.3 5379.33,-170.22"/>
<polygon fill="#63b8ff" stroke="#63b8ff" points="5379.65,-173.72 5388.74,-168.28 5378.24,-166.87 5379.65,-173.72"/>
</g>
<!-- Node36 -->
<g id="node36" class="node">
<title>Node36</title>
<g id="a_node36"><a xlink:title=" ">
<polygon fill="#e0e0e0" stroke="#999999" points="5749.5,-167.5 5567.5,-167.5 5567.5,-126.5 5749.5,-126.5 5749.5,-167.5"/>
<text text-anchor="start" x="5575.5" y="-155.5" font-family="Helvetica,sans-Serif" font-size="10.00">asm/JSystem/JAudio2</text>
<text text-anchor="start" x="5575.5" y="-144.5" font-family="Helvetica,sans-Serif" font-size="10.00">/JASDSPInterface/setIIRFilter</text>
<text text-anchor="middle" x="5658.5" y="-133.5" font-family="Helvetica,sans-Serif" font-size="10.00">Param__Q26JASDsp8TChannelFPs.s</text>
</a>
</g>
</g>
<!-- Node1&#45;&gt;Node36 -->
<g id="edge35" class="edge">
<title>Node1&#45;&gt;Node36</title>
<path fill="none" stroke="#63b8ff" d="M3042.22,-222.66C3399.4,-220.45 5301.73,-207.14 5558.5,-173 5564.12,-172.25 5569.88,-171.31 5575.66,-170.22"/>
<polygon fill="#63b8ff" stroke="#63b8ff" points="5576.18,-173.69 5585.29,-168.29 5574.8,-166.83 5576.18,-173.69"/>
</g>
<!-- Node37 -->
<g id="node37" class="node">
<title>Node37</title>
<g id="a_node37"><a xlink:title=" ">
<polygon fill="#e0e0e0" stroke="#999999" points="5949.5,-167.5 5767.5,-167.5 5767.5,-126.5 5949.5,-126.5 5949.5,-167.5"/>
<text text-anchor="start" x="5775.5" y="-155.5" font-family="Helvetica,sans-Serif" font-size="10.00">asm/JSystem/JAudio2</text>
<text text-anchor="start" x="5775.5" y="-144.5" font-family="Helvetica,sans-Serif" font-size="10.00">/JASDSPInterface/setFIR8Filter</text>
<text text-anchor="middle" x="5858.5" y="-133.5" font-family="Helvetica,sans-Serif" font-size="10.00">Param__Q26JASDsp8TChannelFPs.s</text>
</a>
</g>
</g>
<!-- Node1&#45;&gt;Node37 -->
<g id="edge36" class="edge">
<title>Node1&#45;&gt;Node37</title>
<path fill="none" stroke="#63b8ff" d="M3042.41,-222.75C3416.13,-221 5480.72,-209.74 5758.5,-173 5764.18,-172.25 5769.99,-171.3 5775.83,-170.2"/>
<polygon fill="#63b8ff" stroke="#63b8ff" points="5776.45,-173.65 5785.56,-168.24 5775.07,-166.79 5776.45,-173.65"/>
</g>
<!-- Node38 -->
<g id="node38" class="node">
<title>Node38</title>
<g id="a_node38"><a xlink:title=" ">
<polygon fill="#e0e0e0" stroke="#999999" points="6135,-167.5 5968,-167.5 5968,-126.5 6135,-126.5 6135,-167.5"/>
<text text-anchor="start" x="5976" y="-155.5" font-family="Helvetica,sans-Serif" font-size="10.00">asm/JSystem/JAudio2</text>
<text text-anchor="start" x="5976" y="-144.5" font-family="Helvetica,sans-Serif" font-size="10.00">/JASDSPInterface/setBusConnect</text>
<text text-anchor="middle" x="6051.5" y="-133.5" font-family="Helvetica,sans-Serif" font-size="10.00">__Q26JASDsp8TChannelFUcUc.s</text>
</a>
</g>
</g>
<!-- Node1&#45;&gt;Node38 -->
<g id="edge37" class="edge">
<title>Node1&#45;&gt;Node38</title>
<path fill="none" stroke="#63b8ff" d="M3042.46,-222.88C3431.83,-221.98 5659.99,-214.98 5958.5,-173 5963.66,-172.27 5968.94,-171.35 5974.24,-170.3"/>
<polygon fill="#63b8ff" stroke="#63b8ff" points="5974.59,-173.8 5983.63,-168.28 5973.11,-166.96 5974.59,-173.8"/>
</g>
<!-- Node39 -->
<g id="node39" class="node">
<title>Node39</title>
<g id="a_node39"><a xlink:title=" ">
<polygon fill="#e0e0e0" stroke="#999999" points="6273.5,-167.5 6153.5,-167.5 6153.5,-126.5 6273.5,-126.5 6273.5,-167.5"/>
<text text-anchor="start" x="6161.5" y="-155.5" font-family="Helvetica,sans-Serif" font-size="10.00">asm/JSystem/JAudio2</text>
<text text-anchor="start" x="6161.5" y="-144.5" font-family="Helvetica,sans-Serif" font-size="10.00">/JASDSPInterface/DSP</text>
<text text-anchor="middle" x="6213.5" y="-133.5" font-family="Helvetica,sans-Serif" font-size="10.00">_CreateMap2__FUl.s</text>
</a>
</g>
</g>
<!-- Node1&#45;&gt;Node39 -->
<g id="edge38" class="edge">
<title>Node1&#45;&gt;Node39</title>
<path fill="none" stroke="#63b8ff" d="M3042.27,-222.63C3458.36,-219.89 5986.06,-202.11 6144.5,-173 6147.51,-172.45 6150.56,-171.78 6153.62,-171.02"/>
<polygon fill="#63b8ff" stroke="#63b8ff" points="6154.53,-174.4 6163.22,-168.33 6152.65,-167.66 6154.53,-174.4"/>
</g>
<!-- Node3 -->
<g id="node3" class="node">
<title>Node3</title>
<g id="a_node3"><a xlink:href="types_8h.html" target="_top" xlink:title=" ">
<polygon fill="white" stroke="#666666" points="131,-85 50,-85 50,-66 131,-66 131,-85"/>
<text text-anchor="middle" x="90.5" y="-73" font-family="Helvetica,sans-Serif" font-size="10.00">dolphin/types.h</text>
</a>
</g>
</g>
<!-- Node2&#45;&gt;Node3 -->
<g id="edge2" class="edge">
<title>Node2&#45;&gt;Node3</title>
<path fill="none" stroke="#63b8ff" d="M90.5,-137.2C90.5,-127.12 90.5,-110.29 90.5,-96.9"/>
<polygon fill="#63b8ff" stroke="#63b8ff" points="94,-96.96 90.5,-86.96 87,-96.96 94,-96.96"/>
</g>
<!-- Node4 -->
<g id="node4" class="node">
<title>Node4</title>
<g id="a_node4"><a xlink:href="stddef_8h.html" target="_top" xlink:title=" ">
<polygon fill="white" stroke="#666666" points="158.5,-30 22.5,-30 22.5,0 158.5,0 158.5,-30"/>
<text text-anchor="start" x="30.5" y="-18" font-family="Helvetica,sans-Serif" font-size="10.00">MSL_C/MSL_Common/Src</text>
<text text-anchor="middle" x="90.5" y="-7" font-family="Helvetica,sans-Serif" font-size="10.00">/stddef.h</text>
</a>
</g>
</g>
<!-- Node3&#45;&gt;Node4 -->
<g id="edge3" class="edge">
<title>Node3&#45;&gt;Node4</title>
<path fill="none" stroke="#63b8ff" d="M90.5,-65.87C90.5,-59.4 90.5,-50.2 90.5,-41.45"/>
<polygon fill="#63b8ff" stroke="#63b8ff" points="94,-41.63 90.5,-31.63 87,-41.63 94,-41.63"/>
</g>
</g>
</svg>
        <g id="navigator" transform="translate(0 0)" fill="#404254">
                <rect fill="#f2f5e9" fill-opacity="0.5" stroke="#606060" stroke-width=".5" x="0" y="0" width="60" height="60"/>
                <use id="zoomplus" xlink:href="#zoomPlus" x="17" y="9" onmousedown="handleZoom(evt,'in')"/>
                <use id="zoomminus" xlink:href="#zoomMin" x="42" y="9" onmousedown="handleZoom(evt,'out')"/>
                <use id="reset" xlink:href="#resetDef" x="30" y="36" onmousedown="handleReset()"/>
                <g id="arrowUp" xlink:href="#dirArrow" transform="translate(30 24)" onmousedown="handlePan(0,-1)">
                  <use xlink:href="#rim" fill="#404040">
                        <set attributeName="fill" to="#808080" begin="arrowUp.mouseover" end="arrowUp.mouseout"/>
                  </use>
                  <path fill="none" stroke="white" stroke-width="1.5" d="M0,-3.0v7 M-2.5,-0.5L0,-3.0L2.5,-0.5"/>
                </g>
                <g id="arrowRight" xlink:href="#dirArrow" transform="rotate(90) translate(36 -43)" onmousedown="handlePan(1,0)">
                  <use xlink:href="#rim" fill="#404040">
                        <set attributeName="fill" to="#808080" begin="arrowRight.mouseover" end="arrowRight.mouseout"/>
                  </use>
                  <path fill="none" stroke="white" stroke-width="1.5" d="M0,-3.0v7 M-2.5,-0.5L0,-3.0L2.5,-0.5"/>
                </g>
                <g id="arrowDown" xlink:href="#dirArrow" transform="rotate(180) translate(-30 -48)" onmousedown="handlePan(0,1)">
                  <use xlink:href="#rim" fill="#404040">
                        <set attributeName="fill" to="#808080" begin="arrowDown.mouseover" end="arrowDown.mouseout"/>
                  </use>
                  <path fill="none" stroke="white" stroke-width="1.5" d="M0,-3.0v7 M-2.5,-0.5L0,-3.0L2.5,-0.5"/>
                </g>
                <g id="arrowLeft" xlink:href="#dirArrow" transform="rotate(270) translate(-36 17)" onmousedown="handlePan(-1,0)">
                  <use xlink:href="#rim" fill="#404040">
                        <set attributeName="fill" to="#808080" begin="arrowLeft.mouseover" end="arrowLeft.mouseout"/>
                  </use>
                  <path fill="none" stroke="white" stroke-width="1.5" d="M0,-3.0v7 M-2.5,-0.5L0,-3.0L2.5,-0.5"/>
                </g>
        </g>
        <svg viewBox="0 0 15 15" width="100%" height="30px" preserveAspectRatio="xMaxYMin meet">
         <g id="arrow_out" transform="scale(0.3 0.3)">
          <a xlink:href="JASDSPInterface_8cpp__incl_org.svg" target="_base">
           <rect id="button" ry="5" rx="5" y="6" x="6" height="38" width="38"
                fill="#f2f5e9" fill-opacity="0.5" stroke="#606060" stroke-width="1.0"/>
           <path id="arrow"
             d="M 11.500037,31.436501 C 11.940474,20.09759 22.043105,11.32322 32.158766,21.979434 L 37.068811,17.246167 C 37.068811,17.246167 37.088388,32 37.088388,32 L 22.160133,31.978069 C 22.160133,31.978069 26.997745,27.140456 26.997745,27.140456 C 18.528582,18.264221 13.291696,25.230495 11.500037,31.436501 z"
             style="fill:#404040;"/>
          </a>
         </g>
        </svg>
</svg>
