<?xml version="1.0" encoding="UTF-8" standalone="no"?>
<!DOCTYPE svg PUBLIC "-//W3C//DTD SVG 1.1//EN"
 "http://www.w3.org/Graphics/SVG/1.1/DTD/svg11.dtd">
<!-- Generated by graphviz version 7.0.5 (20221223.1930)
 -->
<!-- Title: include/JSystem/JAudio2/JASHeapCtrl.h Pages: 1 -->
<svg width="286pt" height="324pt"
 viewBox="0.00 0.00 285.50 324.00" xmlns="http://www.w3.org/2000/svg" xmlns:xlink="http://www.w3.org/1999/xlink">
<g id="graph0" class="graph" transform="scale(1 1) rotate(0) translate(4 320)">
<title>include/JSystem/JAudio2/JASHeapCtrl.h</title>
<!-- Node1 -->
<g id="node1" class="node">
<title>Node1</title>
<g id="a_node1"><a xlink:title=" ">
<polygon fill="#999999" stroke="#666666" points="209,-316 82,-316 82,-286 209,-286 209,-316"/>
<text text-anchor="start" x="90" y="-304" font-family="Helvetica,sans-Serif" font-size="10.00">include/JSystem/JAudio2</text>
<text text-anchor="middle" x="145.5" y="-293" font-family="Helvetica,sans-Serif" font-size="10.00">/JASHeapCtrl.h</text>
</a>
</g>
</g>
<!-- Node2 -->
<g id="node2" class="node">
<title>Node2</title>
<g id="a_node2"><a xlink:href="JSUList_8h.html" target="_top" xlink:title=" ">
<polygon fill="white" stroke="#666666" points="143,-195 0,-195 0,-176 143,-176 143,-195"/>
<text text-anchor="middle" x="71.5" y="-183" font-family="Helvetica,sans-Serif" font-size="10.00">JSystem/JSupport/JSUList.h</text>
</a>
</g>
</g>
<!-- Node1&#45;&gt;Node2 -->
<g id="edge1" class="edge">
<title>Node1&#45;&gt;Node2</title>
<path fill="none" stroke="#63b8ff" d="M136.13,-285.63C122.7,-265.03 97.99,-227.12 83.32,-204.63"/>
<polygon fill="#63b8ff" stroke="#63b8ff" points="86.41,-202.96 78.02,-196.5 80.55,-206.79 86.41,-202.96"/>
</g>
<!-- Node5 -->
<g id="node5" class="node">
<title>Node5</title>
<g id="a_node5"><a xlink:href="OSMutex_8h.html" target="_top" xlink:title=" ">
<polygon fill="white" stroke="#666666" points="259.5,-250 147.5,-250 147.5,-231 259.5,-231 259.5,-250"/>
<text text-anchor="middle" x="203.5" y="-238" font-family="Helvetica,sans-Serif" font-size="10.00">dolphin/os/OSMutex.h</text>
</a>
</g>
</g>
<!-- Node1&#45;&gt;Node5 -->
<g id="edge4" class="edge">
<title>Node1&#45;&gt;Node5</title>
<path fill="none" stroke="#63b8ff" d="M159.84,-285.54C168,-277.3 178.27,-266.94 186.8,-258.34"/>
<polygon fill="#63b8ff" stroke="#63b8ff" points="189.28,-260.82 193.83,-251.25 184.31,-255.89 189.28,-260.82"/>
</g>
<!-- Node3 -->
<g id="node3" class="node">
<title>Node3</title>
<g id="a_node3"><a xlink:href="types_8h.html" target="_top" xlink:title=" ">
<polygon fill="white" stroke="#666666" points="186,-85 105,-85 105,-66 186,-66 186,-85"/>
<text text-anchor="middle" x="145.5" y="-73" font-family="Helvetica,sans-Serif" font-size="10.00">dolphin/types.h</text>
</a>
</g>
</g>
<!-- Node2&#45;&gt;Node3 -->
<g id="edge2" class="edge">
<title>Node2&#45;&gt;Node3</title>
<path fill="none" stroke="#63b8ff" d="M77.56,-175.66C89.64,-158.02 116.98,-118.12 133.05,-94.67"/>
<polygon fill="#63b8ff" stroke="#63b8ff" points="135.74,-96.94 138.51,-86.71 129.97,-92.98 135.74,-96.94"/>
</g>
<!-- Node4 -->
<g id="node4" class="node">
<title>Node4</title>
<g id="a_node4"><a xlink:href="stddef_8h.html" target="_top" xlink:title=" ">
<polygon fill="white" stroke="#666666" points="213.5,-30 77.5,-30 77.5,0 213.5,0 213.5,-30"/>
<text text-anchor="start" x="85.5" y="-18" font-family="Helvetica,sans-Serif" font-size="10.00">MSL_C/MSL_Common/Src</text>
<text text-anchor="middle" x="145.5" y="-7" font-family="Helvetica,sans-Serif" font-size="10.00">/stddef.h</text>
</a>
</g>
</g>
<!-- Node3&#45;&gt;Node4 -->
<g id="edge3" class="edge">
<title>Node3&#45;&gt;Node4</title>
<path fill="none" stroke="#63b8ff" d="M145.5,-65.87C145.5,-59.4 145.5,-50.2 145.5,-41.45"/>
<polygon fill="#63b8ff" stroke="#63b8ff" points="149,-41.63 145.5,-31.63 142,-41.63 149,-41.63"/>
</g>
<!-- Node6 -->
<g id="node6" class="node">
<title>Node6</title>
<g id="a_node6"><a xlink:href="OSThread_8h.html" target="_top" xlink:title=" ">
<polygon fill="white" stroke="#666666" points="277.5,-195 161.5,-195 161.5,-176 277.5,-176 277.5,-195"/>
<text text-anchor="middle" x="219.5" y="-183" font-family="Helvetica,sans-Serif" font-size="10.00">dolphin/os/OSThread.h</text>
</a>
</g>
</g>
<!-- Node5&#45;&gt;Node6 -->
<g id="edge5" class="edge">
<title>Node5&#45;&gt;Node6</title>
<path fill="none" stroke="#63b8ff" d="M206.14,-230.75C208.14,-224.11 210.98,-214.73 213.52,-206.31"/>
<polygon fill="#63b8ff" stroke="#63b8ff" points="216.82,-207.48 216.36,-196.89 210.12,-205.45 216.82,-207.48"/>
</g>
<!-- Node7 -->
<g id="node7" class="node">
<title>Node7</title>
<g id="a_node7"><a xlink:href="OSContext_8h.html" target="_top" xlink:title=" ">
<polygon fill="white" stroke="#666666" points="264,-140 145,-140 145,-121 264,-121 264,-140"/>
<text text-anchor="middle" x="204.5" y="-128" font-family="Helvetica,sans-Serif" font-size="10.00">dolphin/os/OSContext.h</text>
</a>
</g>
</g>
<!-- Node6&#45;&gt;Node7 -->
<g id="edge6" class="edge">
<title>Node6&#45;&gt;Node7</title>
<path fill="none" stroke="#63b8ff" d="M217.02,-175.75C215.15,-169.11 212.49,-159.73 210.11,-151.31"/>
<polygon fill="#63b8ff" stroke="#63b8ff" points="213.53,-150.57 207.44,-141.9 206.8,-152.47 213.53,-150.57"/>
</g>
<!-- Node7&#45;&gt;Node3 -->
<g id="edge7" class="edge">
<title>Node7&#45;&gt;Node3</title>
<path fill="none" stroke="#63b8ff" d="M194.49,-120.51C186.13,-113 174,-102.1 163.9,-93.03"/>
<polygon fill="#63b8ff" stroke="#63b8ff" points="166.26,-90.45 156.49,-86.37 161.59,-95.66 166.26,-90.45"/>
</g>
</g>
</svg>
