<?xml version="1.0" encoding="UTF-8" standalone="no"?>
<!DOCTYPE svg PUBLIC "-//W3C//DTD SVG 1.1//EN"
 "http://www.w3.org/Graphics/SVG/1.1/DTD/svg11.dtd">
<!-- Generated by graphviz version 7.0.5 (20221223.1930)
 -->
<!-- Title: libs/JSystem/JAudio2/JASSeqReader.cpp Pages: 1 -->
<svg width="438pt" height="236pt"
 viewBox="0.00 0.00 438.00 236.00" xmlns="http://www.w3.org/2000/svg" xmlns:xlink="http://www.w3.org/1999/xlink">
<g id="graph0" class="graph" transform="scale(1 1) rotate(0) translate(4 232)">
<title>libs/JSystem/JAudio2/JASSeqReader.cpp</title>
<!-- Node1 -->
<g id="node1" class="node">
<title>Node1</title>
<g id="a_node1"><a xlink:title=" ">
<polygon fill="#999999" stroke="#666666" points="282.5,-228 171.5,-228 171.5,-198 282.5,-198 282.5,-228"/>
<text text-anchor="start" x="179.5" y="-216" font-family="Helvetica,sans-Serif" font-size="10.00">libs/JSystem/JAudio2</text>
<text text-anchor="middle" x="227" y="-205" font-family="Helvetica,sans-Serif" font-size="10.00">/JASSeqReader.cpp</text>
</a>
</g>
</g>
<!-- Node2 -->
<g id="node2" class="node">
<title>Node2</title>
<g id="a_node2"><a xlink:href="JASSeqReader_8h.html" target="_top" xlink:title=" ">
<polygon fill="white" stroke="#666666" points="170,-151 0,-151 0,-132 170,-132 170,-151"/>
<text text-anchor="middle" x="85" y="-139" font-family="Helvetica,sans-Serif" font-size="10.00">JSystem/JAudio2/JASSeqReader.h</text>
</a>
</g>
</g>
<!-- Node1&#45;&gt;Node2 -->
<g id="edge1" class="edge">
<title>Node1&#45;&gt;Node2</title>
<path fill="none" stroke="#63b8ff" d="M197.58,-197.6C172.81,-185.48 137.62,-168.25 113.2,-156.3"/>
<polygon fill="#63b8ff" stroke="#63b8ff" points="115.02,-153.3 104.5,-152.04 111.94,-159.58 115.02,-153.3"/>
</g>
<!-- Node3 -->
<g id="node3" class="node">
<title>Node3</title>
<g id="a_node3"><a xlink:href="types_8h.html" target="_top" xlink:title=" ">
<polygon fill="white" stroke="#666666" points="181.5,-85 100.5,-85 100.5,-66 181.5,-66 181.5,-85"/>
<text text-anchor="middle" x="141" y="-73" font-family="Helvetica,sans-Serif" font-size="10.00">dolphin/types.h</text>
</a>
</g>
</g>
<!-- Node1&#45;&gt;Node3 -->
<g id="edge5" class="edge">
<title>Node1&#45;&gt;Node3</title>
<path fill="none" stroke="#63b8ff" d="M220.61,-197.57C212.17,-179.14 196.35,-146.57 179,-121 172.52,-111.45 164.31,-101.62 157.19,-93.63"/>
<polygon fill="#63b8ff" stroke="#63b8ff" points="159.84,-91.35 150.5,-86.35 154.68,-96.08 159.84,-91.35"/>
</g>
<!-- Node5 -->
<g id="node5" class="node">
<title>Node5</title>
<g id="a_node5"><a xlink:href="dol2asm_8h.html" target="_top" xlink:title=" ">
<polygon fill="white" stroke="#666666" points="287.5,-151 226.5,-151 226.5,-132 287.5,-132 287.5,-151"/>
<text text-anchor="middle" x="257" y="-139" font-family="Helvetica,sans-Serif" font-size="10.00">dol2asm.h</text>
</a>
</g>
</g>
<!-- Node1&#45;&gt;Node5 -->
<g id="edge4" class="edge">
<title>Node1&#45;&gt;Node5</title>
<path fill="none" stroke="#63b8ff" d="M233.22,-197.6C237.7,-187.21 243.8,-173.08 248.7,-161.73"/>
<polygon fill="#63b8ff" stroke="#63b8ff" points="251.9,-163.14 252.65,-152.57 245.48,-160.36 251.9,-163.14"/>
</g>
<!-- Node6 -->
<g id="node6" class="node">
<title>Node6</title>
<g id="a_node6"><a xlink:title=" ">
<polygon fill="#e0e0e0" stroke="#999999" points="430,-162 306,-162 306,-121 430,-121 430,-162"/>
<text text-anchor="start" x="314" y="-150" font-family="Helvetica,sans-Serif" font-size="10.00">asm/JSystem/JAudio2</text>
<text text-anchor="start" x="314" y="-139" font-family="Helvetica,sans-Serif" font-size="10.00">/JASSeqReader/loopEnd</text>
<text text-anchor="middle" x="368" y="-128" font-family="Helvetica,sans-Serif" font-size="10.00">__12JASSeqReaderFv.s</text>
</a>
</g>
</g>
<!-- Node1&#45;&gt;Node6 -->
<g id="edge6" class="edge">
<title>Node1&#45;&gt;Node6</title>
<path fill="none" stroke="#63b8ff" d="M256.22,-197.6C273.88,-188.89 296.89,-177.55 317.43,-167.43"/>
<polygon fill="#63b8ff" stroke="#63b8ff" points="318.82,-170.65 326.24,-163.09 315.72,-164.37 318.82,-170.65"/>
</g>
<!-- Node2&#45;&gt;Node3 -->
<g id="edge2" class="edge">
<title>Node2&#45;&gt;Node3</title>
<path fill="none" stroke="#63b8ff" d="M92.79,-131.6C101.31,-121.86 115.19,-106 125.87,-93.79"/>
<polygon fill="#63b8ff" stroke="#63b8ff" points="128.33,-96.29 132.28,-86.46 123.06,-91.68 128.33,-96.29"/>
</g>
<!-- Node4 -->
<g id="node4" class="node">
<title>Node4</title>
<g id="a_node4"><a xlink:href="stddef_8h.html" target="_top" xlink:title=" ">
<polygon fill="white" stroke="#666666" points="209,-30 73,-30 73,0 209,0 209,-30"/>
<text text-anchor="start" x="81" y="-18" font-family="Helvetica,sans-Serif" font-size="10.00">MSL_C/MSL_Common/Src</text>
<text text-anchor="middle" x="141" y="-7" font-family="Helvetica,sans-Serif" font-size="10.00">/stddef.h</text>
</a>
</g>
</g>
<!-- Node3&#45;&gt;Node4 -->
<g id="edge3" class="edge">
<title>Node3&#45;&gt;Node4</title>
<path fill="none" stroke="#63b8ff" d="M141,-65.87C141,-59.4 141,-50.2 141,-41.45"/>
<polygon fill="#63b8ff" stroke="#63b8ff" points="144.5,-41.63 141,-31.63 137.5,-41.63 144.5,-41.63"/>
</g>
</g>
</svg>
