<?xml version="1.0" encoding="UTF-8" standalone="no"?>
<!DOCTYPE svg PUBLIC "-//W3C//DTD SVG 1.1//EN"
 "http://www.w3.org/Graphics/SVG/1.1/DTD/svg11.dtd">
<!-- Generated by graphviz version 7.0.5 (20221223.1930)
 -->
<!-- Title: libs/JSystem/JAudio2/JAUBankTable.cpp Pages: 1 -->
<svg width="218pt" height="269pt"
 viewBox="0.00 0.00 218.00 269.00" xmlns="http://www.w3.org/2000/svg" xmlns:xlink="http://www.w3.org/1999/xlink">
<g id="graph0" class="graph" transform="scale(1 1) rotate(0) translate(4 265)">
<title>libs/JSystem/JAudio2/JAUBankTable.cpp</title>
<!-- Node1 -->
<g id="node1" class="node">
<title>Node1</title>
<g id="a_node1"><a xlink:title=" ">
<polygon fill="#999999" stroke="#666666" points="196.5,-261 85.5,-261 85.5,-231 196.5,-231 196.5,-261"/>
<text text-anchor="start" x="93.5" y="-249" font-family="Helvetica,sans-Serif" font-size="10.00">libs/JSystem/JAudio2</text>
<text text-anchor="middle" x="141" y="-238" font-family="Helvetica,sans-Serif" font-size="10.00">/JAUBankTable.cpp</text>
</a>
</g>
</g>
<!-- Node2 -->
<g id="node2" class="node">
<title>Node2</title>
<g id="a_node2"><a xlink:href="JAUBankTable_8h.html" target="_top" xlink:title=" ">
<polygon fill="white" stroke="#666666" points="170,-195 0,-195 0,-176 170,-176 170,-195"/>
<text text-anchor="middle" x="85" y="-183" font-family="Helvetica,sans-Serif" font-size="10.00">JSystem/JAudio2/JAUBankTable.h</text>
</a>
</g>
</g>
<!-- Node1&#45;&gt;Node2 -->
<g id="edge1" class="edge">
<title>Node1&#45;&gt;Node2</title>
<path fill="none" stroke="#63b8ff" d="M127.16,-230.54C119.27,-222.3 109.36,-211.94 101.12,-203.34"/>
<polygon fill="#63b8ff" stroke="#63b8ff" points="103.79,-201.07 94.35,-196.27 98.74,-205.91 103.79,-201.07"/>
</g>
<!-- Node4 -->
<g id="node4" class="node">
<title>Node4</title>
<g id="a_node4"><a xlink:href="types_8h.html" target="_top" xlink:title=" ">
<polygon fill="white" stroke="#666666" points="182.5,-85 101.5,-85 101.5,-66 182.5,-66 182.5,-85"/>
<text text-anchor="middle" x="142" y="-73" font-family="Helvetica,sans-Serif" font-size="10.00">dolphin/types.h</text>
</a>
</g>
</g>
<!-- Node1&#45;&gt;Node4 -->
<g id="edge5" class="edge">
<title>Node1&#45;&gt;Node4</title>
<path fill="none" stroke="#63b8ff" d="M155.88,-230.77C164.45,-221.51 174.41,-208.64 179,-195 184.33,-179.19 179.6,-138.6 173,-121 169.38,-111.33 163.17,-101.78 157.25,-94.02"/>
<polygon fill="#63b8ff" stroke="#63b8ff" points="160.12,-91.99 151.09,-86.44 154.69,-96.41 160.12,-91.99"/>
</g>
<!-- Node3 -->
<g id="node3" class="node">
<title>Node3</title>
<g id="a_node3"><a xlink:href="JSUList_8h.html" target="_top" xlink:title=" ">
<polygon fill="white" stroke="#666666" points="163.5,-140 20.5,-140 20.5,-121 163.5,-121 163.5,-140"/>
<text text-anchor="middle" x="92" y="-128" font-family="Helvetica,sans-Serif" font-size="10.00">JSystem/JSupport/JSUList.h</text>
</a>
</g>
</g>
<!-- Node2&#45;&gt;Node3 -->
<g id="edge2" class="edge">
<title>Node2&#45;&gt;Node3</title>
<path fill="none" stroke="#63b8ff" d="M86.16,-175.75C87.02,-169.19 88.24,-159.95 89.34,-151.6"/>
<polygon fill="#63b8ff" stroke="#63b8ff" points="92.78,-152.31 90.62,-141.94 85.84,-151.4 92.78,-152.31"/>
</g>
<!-- Node3&#45;&gt;Node4 -->
<g id="edge3" class="edge">
<title>Node3&#45;&gt;Node4</title>
<path fill="none" stroke="#63b8ff" d="M100.26,-120.75C107.16,-113.43 117.22,-102.76 125.74,-93.74"/>
<polygon fill="#63b8ff" stroke="#63b8ff" points="128.21,-96.22 132.53,-86.54 123.12,-91.42 128.21,-96.22"/>
</g>
<!-- Node5 -->
<g id="node5" class="node">
<title>Node5</title>
<g id="a_node5"><a xlink:href="stddef_8h.html" target="_top" xlink:title=" ">
<polygon fill="white" stroke="#666666" points="210,-30 74,-30 74,0 210,0 210,-30"/>
<text text-anchor="start" x="82" y="-18" font-family="Helvetica,sans-Serif" font-size="10.00">MSL_C/MSL_Common/Src</text>
<text text-anchor="middle" x="142" y="-7" font-family="Helvetica,sans-Serif" font-size="10.00">/stddef.h</text>
</a>
</g>
</g>
<!-- Node4&#45;&gt;Node5 -->
<g id="edge4" class="edge">
<title>Node4&#45;&gt;Node5</title>
<path fill="none" stroke="#63b8ff" d="M142,-65.87C142,-59.4 142,-50.2 142,-41.45"/>
<polygon fill="#63b8ff" stroke="#63b8ff" points="145.5,-41.63 142,-31.63 138.5,-41.63 145.5,-41.63"/>
</g>
</g>
</svg>
