<?xml version="1.0" encoding="UTF-8" standalone="no"?>
<!DOCTYPE svg PUBLIC "-//W3C//DTD SVG 1.1//EN"
 "http://www.w3.org/Graphics/SVG/1.1/DTD/svg11.dtd">
<!-- Generated by graphviz version 7.0.5 (20221223.1930)
 -->
<!-- Title: include/JSystem/JKernel/JKRMemArchive.h Pages: 1 -->
<svg width="1490pt" height="104pt"
 viewBox="0.00 0.00 1489.50 104.00" xmlns="http://www.w3.org/2000/svg" xmlns:xlink="http://www.w3.org/1999/xlink">
<g id="graph0" class="graph" transform="scale(1 1) rotate(0) translate(4 100)">
<title>include/JSystem/JKernel/JKRMemArchive.h</title>
<!-- Node1 -->
<g id="node1" class="node">
<title>Node1</title>
<g id="a_node1"><a xlink:title=" ">
<polygon fill="#999999" stroke="#666666" points="721,-96 596,-96 596,-66 721,-66 721,-96"/>
<text text-anchor="start" x="604" y="-84" font-family="Helvetica,sans-Serif" font-size="10.00">include/JSystem/JKernel</text>
<text text-anchor="middle" x="658.5" y="-73" font-family="Helvetica,sans-Serif" font-size="10.00">/JKRMemArchive.h</text>
</a>
</g>
</g>
<!-- Node2 -->
<g id="node2" class="node">
<title>Node2</title>
<g id="a_node2"><a xlink:href="JKRArchivePub_8cpp.html" target="_top" xlink:title=" ">
<polygon fill="white" stroke="#666666" points="109,-30 0,-30 0,0 109,0 109,-30"/>
<text text-anchor="start" x="8" y="-18" font-family="Helvetica,sans-Serif" font-size="10.00">libs/JSystem/JKernel</text>
<text text-anchor="middle" x="54.5" y="-7" font-family="Helvetica,sans-Serif" font-size="10.00">/JKRArchivePub.cpp</text>
</a>
</g>
</g>
<!-- Node1&#45;&gt;Node2 -->
<g id="edge1" class="edge">
<title>Node1&#45;&gt;Node2</title>
<path fill="none" stroke="#63b8ff" d="M584.34,-76.12C479.76,-69.98 283.22,-55.96 117.5,-30 114.84,-29.58 112.13,-29.12 109.4,-28.63"/>
<polygon fill="#63b8ff" stroke="#63b8ff" points="584.01,-79.61 594.19,-76.69 584.41,-72.62 584.01,-79.61"/>
</g>
<!-- Node3 -->
<g id="node3" class="node">
<title>Node3</title>
<g id="a_node3"><a xlink:href="JKRCompArchive_8cpp.html" target="_top" xlink:title=" ">
<polygon fill="white" stroke="#666666" points="242,-30 127,-30 127,0 242,0 242,-30"/>
<text text-anchor="start" x="135" y="-18" font-family="Helvetica,sans-Serif" font-size="10.00">libs/JSystem/JKernel</text>
<text text-anchor="middle" x="184.5" y="-7" font-family="Helvetica,sans-Serif" font-size="10.00">/JKRCompArchive.cpp</text>
</a>
</g>
</g>
<!-- Node1&#45;&gt;Node3 -->
<g id="edge2" class="edge">
<title>Node1&#45;&gt;Node3</title>
<path fill="none" stroke="#63b8ff" d="M584.25,-72.86C502.27,-64.53 366.51,-49.38 250.5,-30 247.84,-29.56 245.13,-29.08 242.39,-28.58"/>
<polygon fill="#63b8ff" stroke="#63b8ff" points="583.89,-76.35 594.19,-73.87 584.59,-69.38 583.89,-76.35"/>
</g>
<!-- Node4 -->
<g id="node4" class="node">
<title>Node4</title>
<g id="a_node4"><a xlink:href="JKRMemArchive_8cpp.html" target="_top" xlink:title=" ">
<polygon fill="white" stroke="#666666" points="371,-30 260,-30 260,0 371,0 371,-30"/>
<text text-anchor="start" x="268" y="-18" font-family="Helvetica,sans-Serif" font-size="10.00">libs/JSystem/JKernel</text>
<text text-anchor="middle" x="315.5" y="-7" font-family="Helvetica,sans-Serif" font-size="10.00">/JKRMemArchive.cpp</text>
</a>
</g>
</g>
<!-- Node1&#45;&gt;Node4 -->
<g id="edge3" class="edge">
<title>Node1&#45;&gt;Node4</title>
<path fill="none" stroke="#63b8ff" d="M584.47,-67.52C528.15,-57.84 448.81,-43.79 379.5,-30 376.82,-29.47 374.08,-28.91 371.32,-28.34"/>
<polygon fill="#63b8ff" stroke="#63b8ff" points="583.83,-70.96 594.27,-69.2 585.01,-64.06 583.83,-70.96"/>
</g>
<!-- Node5 -->
<g id="node5" class="node">
<title>Node5</title>
<g id="a_node5"><a xlink:href="d__a__title__nonmatching_8cpp.html" target="_top" xlink:title=" ">
<polygon fill="white" stroke="#666666" points="516,-30 389,-30 389,0 516,0 516,-30"/>
<text text-anchor="start" x="397" y="-18" font-family="Helvetica,sans-Serif" font-size="10.00">rel/d/a/d_a_title/d</text>
<text text-anchor="middle" x="452.5" y="-7" font-family="Helvetica,sans-Serif" font-size="10.00">_a_title_nonmatching.cpp</text>
</a>
</g>
</g>
<!-- Node1&#45;&gt;Node5 -->
<g id="edge4" class="edge">
<title>Node1&#45;&gt;Node5</title>
<path fill="none" stroke="#63b8ff" d="M601.37,-62.25C569.05,-52.21 529.17,-39.82 498.82,-30.39"/>
<polygon fill="#63b8ff" stroke="#63b8ff" points="599.98,-65.48 610.57,-65.11 602.06,-58.8 599.98,-65.48"/>
</g>
<!-- Node6 -->
<g id="node6" class="node">
<title>Node6</title>
<g id="a_node6"><a xlink:href="d__resorce_8cpp.html" target="_top" xlink:title=" ">
<polygon fill="white" stroke="#666666" points="636.5,-24.5 534.5,-24.5 534.5,-5.5 636.5,-5.5 636.5,-24.5"/>
<text text-anchor="middle" x="585.5" y="-12.5" font-family="Helvetica,sans-Serif" font-size="10.00">src/d/d_resorce.cpp</text>
</a>
</g>
</g>
<!-- Node1&#45;&gt;Node6 -->
<g id="edge5" class="edge">
<title>Node1&#45;&gt;Node6</title>
<path fill="none" stroke="#63b8ff" d="M633.72,-58.27C620.67,-46.84 605.39,-33.44 595.59,-24.84"/>
<polygon fill="#63b8ff" stroke="#63b8ff" points="631.33,-60.84 641.16,-64.8 635.95,-55.57 631.33,-60.84"/>
</g>
<!-- Node7 -->
<g id="node7" class="node">
<title>Node7</title>
<g id="a_node7"><a xlink:href="d__menu__fishing_8cpp.html" target="_top" xlink:title=" ">
<polygon fill="white" stroke="#666666" points="808.5,-24.5 654.5,-24.5 654.5,-5.5 808.5,-5.5 808.5,-24.5"/>
<text text-anchor="middle" x="731.5" y="-12.5" font-family="Helvetica,sans-Serif" font-size="10.00">src/d/menu/d_menu_fishing.cpp</text>
</a>
</g>
</g>
<!-- Node1&#45;&gt;Node7 -->
<g id="edge6" class="edge">
<title>Node1&#45;&gt;Node7</title>
<path fill="none" stroke="#63b8ff" d="M683.28,-58.27C696.33,-46.84 711.61,-33.44 721.41,-24.84"/>
<polygon fill="#63b8ff" stroke="#63b8ff" points="681.05,-55.57 675.84,-64.8 685.67,-60.84 681.05,-55.57"/>
</g>
<!-- Node8 -->
<g id="node8" class="node">
<title>Node8</title>
<g id="a_node8"><a xlink:href="d__menu__insect_8cpp.html" target="_top" xlink:title=" ">
<polygon fill="white" stroke="#666666" points="978.5,-24.5 826.5,-24.5 826.5,-5.5 978.5,-5.5 978.5,-24.5"/>
<text text-anchor="middle" x="902.5" y="-12.5" font-family="Helvetica,sans-Serif" font-size="10.00">src/d/menu/d_menu_insect.cpp</text>
</a>
</g>
</g>
<!-- Node1&#45;&gt;Node8 -->
<g id="edge7" class="edge">
<title>Node1&#45;&gt;Node8</title>
<path fill="none" stroke="#63b8ff" d="M724.45,-62.7C770.89,-50.52 831.17,-34.71 868.33,-24.96"/>
<polygon fill="#63b8ff" stroke="#63b8ff" points="723.81,-59.25 715.03,-65.17 725.59,-66.02 723.81,-59.25"/>
</g>
<!-- Node9 -->
<g id="node9" class="node">
<title>Node9</title>
<g id="a_node9"><a xlink:href="d__menu__save_8cpp.html" target="_top" xlink:title=" ">
<polygon fill="white" stroke="#666666" points="1144,-24.5 997,-24.5 997,-5.5 1144,-5.5 1144,-24.5"/>
<text text-anchor="middle" x="1070.5" y="-12.5" font-family="Helvetica,sans-Serif" font-size="10.00">src/d/menu/d_menu_save.cpp</text>
</a>
</g>
</g>
<!-- Node1&#45;&gt;Node9 -->
<g id="edge8" class="edge">
<title>Node1&#45;&gt;Node9</title>
<path fill="none" stroke="#63b8ff" d="M732.54,-69.1C799.26,-59.19 900.01,-44.03 987.5,-30 997.46,-28.4 1008.07,-26.65 1018.28,-24.94"/>
<polygon fill="#63b8ff" stroke="#63b8ff" points="732.19,-65.61 722.81,-70.54 733.21,-72.54 732.19,-65.61"/>
</g>
<!-- Node10 -->
<g id="node10" class="node">
<title>Node10</title>
<g id="a_node10"><a xlink:href="d__menu__skill_8cpp.html" target="_top" xlink:title=" ">
<polygon fill="white" stroke="#666666" points="1305,-24.5 1162,-24.5 1162,-5.5 1305,-5.5 1305,-24.5"/>
<text text-anchor="middle" x="1233.5" y="-12.5" font-family="Helvetica,sans-Serif" font-size="10.00">src/d/menu/d_menu_skill.cpp</text>
</a>
</g>
</g>
<!-- Node1&#45;&gt;Node10 -->
<g id="edge9" class="edge">
<title>Node1&#45;&gt;Node10</title>
<path fill="none" stroke="#63b8ff" d="M732.62,-74.2C829.58,-66.23 1004.68,-50.51 1153.5,-30 1163.98,-28.56 1175.18,-26.76 1185.79,-24.93"/>
<polygon fill="#63b8ff" stroke="#63b8ff" points="732.38,-70.71 722.69,-75.01 732.95,-77.69 732.38,-70.71"/>
</g>
<!-- Node11 -->
<g id="node11" class="node">
<title>Node11</title>
<g id="a_node11"><a xlink:href="m__Do__dvd__thread_8cpp.html" target="_top" xlink:title=" ">
<polygon fill="white" stroke="#666666" points="1481.5,-24.5 1323.5,-24.5 1323.5,-5.5 1481.5,-5.5 1481.5,-24.5"/>
<text text-anchor="middle" x="1402.5" y="-12.5" font-family="Helvetica,sans-Serif" font-size="10.00">src/m_Do/m_Do_dvd_thread.cpp</text>
</a>
</g>
</g>
<!-- Node1&#45;&gt;Node11 -->
<g id="edge10" class="edge">
<title>Node1&#45;&gt;Node11</title>
<path fill="none" stroke="#63b8ff" d="M732.44,-76.34C854.12,-69.87 1104.05,-54.72 1314.5,-30 1326.18,-28.63 1338.68,-26.84 1350.48,-25"/>
<polygon fill="#63b8ff" stroke="#63b8ff" points="732.39,-72.84 722.59,-76.86 732.76,-79.83 732.39,-72.84"/>
</g>
</g>
</svg>
