<?xml version="1.0" encoding="UTF-8" standalone="no"?>
<!DOCTYPE svg PUBLIC "-//W3C//DTD SVG 1.1//EN"
 "http://www.w3.org/Graphics/SVG/1.1/DTD/svg11.dtd">
<!-- Generated by graphviz version 7.0.5 (20221223.1930)
 -->
<!-- Title: include/JSystem/JKernel/JKRThread.h Pages: 1 -->
<svg width="4171pt" height="170pt"
 viewBox="0.00 0.00 4171.00 170.00" xmlns="http://www.w3.org/2000/svg" xmlns:xlink="http://www.w3.org/1999/xlink">
<g id="graph0" class="graph" transform="scale(1 1) rotate(0) translate(4 166)">
<title>include/JSystem/JKernel/JKRThread.h</title>
<!-- Node1 -->
<g id="node1" class="node">
<title>Node1</title>
<g id="a_node1"><a xlink:title=" ">
<polygon fill="#999999" stroke="#666666" points="2296,-162 2171,-162 2171,-132 2296,-132 2296,-162"/>
<text text-anchor="start" x="2179" y="-150" font-family="Helvetica,sans-Serif" font-size="10.00">include/JSystem/JKernel</text>
<text text-anchor="middle" x="2233.5" y="-139" font-family="Helvetica,sans-Serif" font-size="10.00">/JKRThread.h</text>
</a>
</g>
</g>
<!-- Node2 -->
<g id="node2" class="node">
<title>Node2</title>
<g id="a_node2"><a xlink:href="JASAudioThread_8h.html" target="_top" xlink:title=" ">
<polygon fill="white" stroke="#666666" points="381,-96 254,-96 254,-66 381,-66 381,-96"/>
<text text-anchor="start" x="262" y="-84" font-family="Helvetica,sans-Serif" font-size="10.00">include/JSystem/JAudio2</text>
<text text-anchor="middle" x="317.5" y="-73" font-family="Helvetica,sans-Serif" font-size="10.00">/JASAudioThread.h</text>
</a>
</g>
</g>
<!-- Node1&#45;&gt;Node2 -->
<g id="edge1" class="edge">
<title>Node1&#45;&gt;Node2</title>
<path fill="none" stroke="#63b8ff" d="M2159.08,-143.51C1849.82,-133.18 669.04,-93.74 381.1,-84.12"/>
<polygon fill="#63b8ff" stroke="#63b8ff" points="2158.95,-147.01 2169.06,-143.85 2159.18,-140.02 2158.95,-147.01"/>
</g>
<!-- Node7 -->
<g id="node7" class="node">
<title>Node7</title>
<g id="a_node7"><a xlink:href="JASTaskThread_8h.html" target="_top" xlink:title=" ">
<polygon fill="white" stroke="#666666" points="3512,-96 3385,-96 3385,-66 3512,-66 3512,-96"/>
<text text-anchor="start" x="3393" y="-84" font-family="Helvetica,sans-Serif" font-size="10.00">include/JSystem/JAudio2</text>
<text text-anchor="middle" x="3448.5" y="-73" font-family="Helvetica,sans-Serif" font-size="10.00">/JASTaskThread.h</text>
</a>
</g>
</g>
<!-- Node1&#45;&gt;Node7 -->
<g id="edge6" class="edge">
<title>Node1&#45;&gt;Node7</title>
<path fill="none" stroke="#63b8ff" d="M2307.69,-142.09C2528.36,-130.47 3178.05,-96.25 3384.65,-85.36"/>
<polygon fill="#63b8ff" stroke="#63b8ff" points="2307.58,-138.59 2297.78,-142.61 2307.95,-145.58 2307.58,-138.59"/>
</g>
<!-- Node14 -->
<g id="node14" class="node">
<title>Node14</title>
<g id="a_node14"><a xlink:href="JKRAram_8h.html" target="_top" xlink:title=" ">
<polygon fill="white" stroke="#666666" points="1326,-96 1201,-96 1201,-66 1326,-66 1326,-96"/>
<text text-anchor="start" x="1209" y="-84" font-family="Helvetica,sans-Serif" font-size="10.00">include/JSystem/JKernel</text>
<text text-anchor="middle" x="1263.5" y="-73" font-family="Helvetica,sans-Serif" font-size="10.00">/JKRAram.h</text>
</a>
</g>
</g>
<!-- Node1&#45;&gt;Node14 -->
<g id="edge13" class="edge">
<title>Node1&#45;&gt;Node14</title>
<path fill="none" stroke="#63b8ff" d="M2159.13,-141.09C1974.53,-128.91 1497.89,-97.46 1326.25,-86.14"/>
<polygon fill="#63b8ff" stroke="#63b8ff" points="2158.88,-144.58 2169.09,-141.75 2159.34,-137.6 2158.88,-144.58"/>
</g>
<!-- Node22 -->
<g id="node22" class="node">
<title>Node22</title>
<g id="a_node22"><a xlink:href="JKRAramStream_8h.html" target="_top" xlink:title=" ">
<polygon fill="white" stroke="#666666" points="1066,-96 941,-96 941,-66 1066,-66 1066,-96"/>
<text text-anchor="start" x="949" y="-84" font-family="Helvetica,sans-Serif" font-size="10.00">include/JSystem/JKernel</text>
<text text-anchor="middle" x="1003.5" y="-73" font-family="Helvetica,sans-Serif" font-size="10.00">/JKRAramStream.h</text>
</a>
</g>
</g>
<!-- Node1&#45;&gt;Node22 -->
<g id="edge22" class="edge">
<title>Node1&#45;&gt;Node22</title>
<path fill="none" stroke="#63b8ff" d="M2159.27,-143.11C1988.43,-136.32 1554.2,-118.2 1191.5,-96 1149.68,-93.44 1102.68,-89.94 1066.14,-87.08"/>
<polygon fill="#63b8ff" stroke="#63b8ff" points="2158.99,-146.6 2169.12,-143.5 2159.26,-139.61 2158.99,-146.6"/>
</g>
<!-- Node25 -->
<g id="node25" class="node">
<title>Node25</title>
<g id="a_node25"><a xlink:href="JKRDecomp_8h.html" target="_top" xlink:title=" ">
<polygon fill="white" stroke="#666666" points="1713,-96 1588,-96 1588,-66 1713,-66 1713,-96"/>
<text text-anchor="start" x="1596" y="-84" font-family="Helvetica,sans-Serif" font-size="10.00">include/JSystem/JKernel</text>
<text text-anchor="middle" x="1650.5" y="-73" font-family="Helvetica,sans-Serif" font-size="10.00">/JKRDecomp.h</text>
</a>
</g>
</g>
<!-- Node1&#45;&gt;Node25 -->
<g id="edge26" class="edge">
<title>Node1&#45;&gt;Node25</title>
<path fill="none" stroke="#63b8ff" d="M2159.34,-137.86C2043.47,-125.14 1821.56,-100.78 1713.18,-88.88"/>
<polygon fill="#63b8ff" stroke="#63b8ff" points="2158.73,-141.31 2169.05,-138.92 2159.49,-134.35 2158.73,-141.31"/>
</g>
<!-- Node29 -->
<g id="node29" class="node">
<title>Node29</title>
<g id="a_node29"><a xlink:href="JUTException_8h.html" target="_top" xlink:title=" ">
<polygon fill="white" stroke="#666666" points="2294.5,-96 2172.5,-96 2172.5,-66 2294.5,-66 2294.5,-96"/>
<text text-anchor="start" x="2180.5" y="-84" font-family="Helvetica,sans-Serif" font-size="10.00">include/JSystem/JUtility</text>
<text text-anchor="middle" x="2233.5" y="-73" font-family="Helvetica,sans-Serif" font-size="10.00">/JUTException.h</text>
</a>
</g>
</g>
<!-- Node1&#45;&gt;Node29 -->
<g id="edge33" class="edge">
<title>Node1&#45;&gt;Node29</title>
<path fill="none" stroke="#63b8ff" d="M2233.5,-120.39C2233.5,-112.13 2233.5,-103.28 2233.5,-96.16"/>
<polygon fill="#63b8ff" stroke="#63b8ff" points="2230,-120.28 2233.5,-130.28 2237,-120.28 2230,-120.28"/>
</g>
<!-- Node39 -->
<g id="node39" class="node">
<title>Node39</title>
<g id="a_node39"><a xlink:href="JKRThread_8cpp.html" target="_top" xlink:title=" ">
<polygon fill="white" stroke="#666666" points="3639,-96 3530,-96 3530,-66 3639,-66 3639,-96"/>
<text text-anchor="start" x="3538" y="-84" font-family="Helvetica,sans-Serif" font-size="10.00">libs/JSystem/JKernel</text>
<text text-anchor="middle" x="3584.5" y="-73" font-family="Helvetica,sans-Serif" font-size="10.00">/JKRThread.cpp</text>
</a>
</g>
</g>
<!-- Node1&#45;&gt;Node39 -->
<g id="edge50" class="edge">
<title>Node1&#45;&gt;Node39</title>
<path fill="none" stroke="#63b8ff" d="M2307.38,-144.88C2544.42,-141.01 3284.18,-126.72 3521.5,-96 3524.17,-95.65 3526.89,-95.25 3529.63,-94.8"/>
<polygon fill="#63b8ff" stroke="#63b8ff" points="2307.6,-141.38 2297.65,-145.04 2307.71,-148.37 2307.6,-141.38"/>
</g>
<!-- Node40 -->
<g id="node40" class="node">
<title>Node40</title>
<g id="a_node40"><a xlink:href="m__Do__DVDError_8cpp.html" target="_top" xlink:title=" ">
<polygon fill="white" stroke="#666666" points="3808,-90.5 3657,-90.5 3657,-71.5 3808,-71.5 3808,-90.5"/>
<text text-anchor="middle" x="3732.5" y="-78.5" font-family="Helvetica,sans-Serif" font-size="10.00">src/m_Do/m_Do_DVDError.cpp</text>
</a>
</g>
</g>
<!-- Node1&#45;&gt;Node40 -->
<g id="edge51" class="edge">
<title>Node1&#45;&gt;Node40</title>
<path fill="none" stroke="#63b8ff" d="M2307.67,-144.65C2560.06,-139.87 3384.59,-122.54 3648.5,-96 3660.56,-94.79 3673.52,-92.91 3685.55,-90.93"/>
<polygon fill="#63b8ff" stroke="#63b8ff" points="2307.88,-141.15 2297.95,-144.84 2308.02,-148.15 2307.88,-141.15"/>
</g>
<!-- Node41 -->
<g id="node41" class="node">
<title>Node41</title>
<g id="a_node41"><a xlink:href="m__Do__MemCard_8cpp.html" target="_top" xlink:title=" ">
<polygon fill="white" stroke="#666666" points="3978.5,-90.5 3826.5,-90.5 3826.5,-71.5 3978.5,-71.5 3978.5,-90.5"/>
<text text-anchor="middle" x="3902.5" y="-78.5" font-family="Helvetica,sans-Serif" font-size="10.00">src/m_Do/m_Do_MemCard.cpp</text>
</a>
</g>
</g>
<!-- Node1&#45;&gt;Node41 -->
<g id="edge52" class="edge">
<title>Node1&#45;&gt;Node41</title>
<path fill="none" stroke="#63b8ff" d="M2307.68,-144.96C2579.23,-140.93 3518.86,-125.18 3817.5,-96 3829.71,-94.81 3842.81,-92.94 3854.99,-90.96"/>
<polygon fill="#63b8ff" stroke="#63b8ff" points="2307.85,-141.45 2297.9,-145.1 2307.96,-148.45 2307.85,-141.45"/>
</g>
<!-- Node3 -->
<g id="node3" class="node">
<title>Node3</title>
<g id="a_node3"><a xlink:href="JASAiCtrl_8cpp.html" target="_top" xlink:title=" ">
<polygon fill="white" stroke="#666666" points="111,-30 0,-30 0,0 111,0 111,-30"/>
<text text-anchor="start" x="8" y="-18" font-family="Helvetica,sans-Serif" font-size="10.00">libs/JSystem/JAudio2</text>
<text text-anchor="middle" x="55.5" y="-7" font-family="Helvetica,sans-Serif" font-size="10.00">/JASAiCtrl.cpp</text>
</a>
</g>
</g>
<!-- Node2&#45;&gt;Node3 -->
<g id="edge2" class="edge">
<title>Node2&#45;&gt;Node3</title>
<path fill="none" stroke="#63b8ff" d="M247.23,-62.83C204.61,-52.42 150.97,-39.32 111.27,-29.62"/>
<polygon fill="#63b8ff" stroke="#63b8ff" points="246.36,-66.23 256.91,-65.2 248.02,-59.43 246.36,-66.23"/>
</g>
<!-- Node4 -->
<g id="node4" class="node">
<title>Node4</title>
<g id="a_node4"><a xlink:href="JASAudioReseter_8cpp.html" target="_top" xlink:title=" ">
<polygon fill="white" stroke="#666666" points="244,-30 129,-30 129,0 244,0 244,-30"/>
<text text-anchor="start" x="137" y="-18" font-family="Helvetica,sans-Serif" font-size="10.00">libs/JSystem/JAudio2</text>
<text text-anchor="middle" x="186.5" y="-7" font-family="Helvetica,sans-Serif" font-size="10.00">/JASAudioReseter.cpp</text>
</a>
</g>
</g>
<!-- Node2&#45;&gt;Node4 -->
<g id="edge3" class="edge">
<title>Node2&#45;&gt;Node4</title>
<path fill="none" stroke="#63b8ff" d="M277.77,-60.59C257.81,-50.84 234.07,-39.24 215.8,-30.31"/>
<polygon fill="#63b8ff" stroke="#63b8ff" points="276.22,-63.73 286.74,-64.97 279.29,-57.44 276.22,-63.73"/>
</g>
<!-- Node5 -->
<g id="node5" class="node">
<title>Node5</title>
<g id="a_node5"><a xlink:href="JASAudioThread_8cpp.html" target="_top" xlink:title=" ">
<polygon fill="white" stroke="#666666" points="373,-30 262,-30 262,0 373,0 373,-30"/>
<text text-anchor="start" x="270" y="-18" font-family="Helvetica,sans-Serif" font-size="10.00">libs/JSystem/JAudio2</text>
<text text-anchor="middle" x="317.5" y="-7" font-family="Helvetica,sans-Serif" font-size="10.00">/JASAudioThread.cpp</text>
</a>
</g>
</g>
<!-- Node2&#45;&gt;Node5 -->
<g id="edge4" class="edge">
<title>Node2&#45;&gt;Node5</title>
<path fill="none" stroke="#63b8ff" d="M317.5,-54.39C317.5,-46.13 317.5,-37.28 317.5,-30.16"/>
<polygon fill="#63b8ff" stroke="#63b8ff" points="314,-54.28 317.5,-64.28 321,-54.28 314,-54.28"/>
</g>
<!-- Node6 -->
<g id="node6" class="node">
<title>Node6</title>
<g id="a_node6"><a xlink:href="m__Do__main_8cpp.html" target="_top" xlink:title=" ">
<polygon fill="white" stroke="#666666" points="665,-24.5 534,-24.5 534,-5.5 665,-5.5 665,-24.5"/>
<text text-anchor="middle" x="599.5" y="-12.5" font-family="Helvetica,sans-Serif" font-size="10.00">src/m_Do/m_Do_main.cpp</text>
</a>
</g>
</g>
<!-- Node2&#45;&gt;Node6 -->
<g id="edge5" class="edge">
<title>Node2&#45;&gt;Node6</title>
<path fill="none" stroke="#63b8ff" d="M392.36,-63.01C446.21,-50.79 516.7,-34.79 560.01,-24.96"/>
<polygon fill="#63b8ff" stroke="#63b8ff" points="391.59,-59.6 382.61,-65.22 393.14,-66.42 391.59,-59.6"/>
</g>
<!-- Node8 -->
<g id="node8" class="node">
<title>Node8</title>
<g id="a_node8"><a xlink:href="JASDvdThread_8cpp.html" target="_top" xlink:title=" ">
<polygon fill="white" stroke="#666666" points="3897,-30 3786,-30 3786,0 3897,0 3897,-30"/>
<text text-anchor="start" x="3794" y="-18" font-family="Helvetica,sans-Serif" font-size="10.00">libs/JSystem/JAudio2</text>
<text text-anchor="middle" x="3841.5" y="-7" font-family="Helvetica,sans-Serif" font-size="10.00">/JASDvdThread.cpp</text>
</a>
</g>
</g>
<!-- Node7&#45;&gt;Node8 -->
<g id="edge7" class="edge">
<title>Node7&#45;&gt;Node8</title>
<path fill="none" stroke="#63b8ff" d="M3523.36,-65.75C3636.32,-47.37 3667.34,-49.44 3776.5,-30 3779.45,-29.47 3782.48,-28.91 3785.53,-28.32"/>
<polygon fill="#63b8ff" stroke="#63b8ff" points="3522.96,-62.27 3513.66,-67.35 3524.1,-69.18 3522.96,-62.27"/>
</g>
<!-- Node9 -->
<g id="node9" class="node">
<title>Node9</title>
<g id="a_node9"><a xlink:href="JASResArcLoader_8cpp.html" target="_top" xlink:title=" ">
<polygon fill="white" stroke="#666666" points="4034,-30 3915,-30 3915,0 4034,0 4034,-30"/>
<text text-anchor="start" x="3923" y="-18" font-family="Helvetica,sans-Serif" font-size="10.00">libs/JSystem/JAudio2</text>
<text text-anchor="middle" x="3974.5" y="-7" font-family="Helvetica,sans-Serif" font-size="10.00">/JASResArcLoader.cpp</text>
</a>
</g>
</g>
<!-- Node7&#45;&gt;Node9 -->
<g id="edge8" class="edge">
<title>Node7&#45;&gt;Node9</title>
<path fill="none" stroke="#63b8ff" d="M3523.53,-65.82C3693.63,-42.35 3740.18,-54.82 3906.5,-30 3909.24,-29.59 3912.04,-29.14 3914.86,-28.66"/>
<polygon fill="#63b8ff" stroke="#63b8ff" points="3523.06,-62.35 3513.64,-67.21 3524.03,-69.29 3523.06,-62.35"/>
</g>
<!-- Node10 -->
<g id="node10" class="node">
<title>Node10</title>
<g id="a_node10"><a xlink:href="JASTaskThread_8cpp.html" target="_top" xlink:title=" ">
<polygon fill="white" stroke="#666666" points="4163,-30 4052,-30 4052,0 4163,0 4163,-30"/>
<text text-anchor="start" x="4060" y="-18" font-family="Helvetica,sans-Serif" font-size="10.00">libs/JSystem/JAudio2</text>
<text text-anchor="middle" x="4107.5" y="-7" font-family="Helvetica,sans-Serif" font-size="10.00">/JASTaskThread.cpp</text>
</a>
</g>
</g>
<!-- Node7&#45;&gt;Node10 -->
<g id="edge9" class="edge">
<title>Node7&#45;&gt;Node10</title>
<path fill="none" stroke="#63b8ff" d="M3523.25,-65.9C3754.07,-36.87 3816.89,-62.42 4043.5,-30 4046.2,-29.61 4048.96,-29.18 4051.74,-28.7"/>
<polygon fill="#63b8ff" stroke="#63b8ff" points="3523.1,-62.39 3513.63,-67.14 3523.99,-69.34 3523.1,-62.39"/>
</g>
<!-- Node11 -->
<g id="node11" class="node">
<title>Node11</title>
<g id="a_node11"><a xlink:href="JASWaveArcLoader_8cpp.html" target="_top" xlink:title=" ">
<polygon fill="white" stroke="#666666" points="3437.5,-30 3311.5,-30 3311.5,0 3437.5,0 3437.5,-30"/>
<text text-anchor="start" x="3319.5" y="-18" font-family="Helvetica,sans-Serif" font-size="10.00">libs/JSystem/JAudio2</text>
<text text-anchor="middle" x="3374.5" y="-7" font-family="Helvetica,sans-Serif" font-size="10.00">/JASWaveArcLoader.cpp</text>
</a>
</g>
</g>
<!-- Node7&#45;&gt;Node11 -->
<g id="edge10" class="edge">
<title>Node7&#45;&gt;Node11</title>
<path fill="none" stroke="#63b8ff" d="M3423.55,-58.42C3412.87,-49.18 3400.69,-38.65 3391.13,-30.39"/>
<polygon fill="#63b8ff" stroke="#63b8ff" points="3421.08,-60.91 3430.93,-64.81 3425.66,-55.62 3421.08,-60.91"/>
</g>
<!-- Node12 -->
<g id="node12" class="node">
<title>Node12</title>
<g id="a_node12"><a xlink:href="m__Do__Reset_8cpp.html" target="_top" xlink:title=" ">
<polygon fill="white" stroke="#666666" points="3591.5,-24.5 3455.5,-24.5 3455.5,-5.5 3591.5,-5.5 3591.5,-24.5"/>
<text text-anchor="middle" x="3523.5" y="-12.5" font-family="Helvetica,sans-Serif" font-size="10.00">src/m_Do/m_Do_Reset.cpp</text>
</a>
</g>
</g>
<!-- Node7&#45;&gt;Node12 -->
<g id="edge11" class="edge">
<title>Node7&#45;&gt;Node12</title>
<path fill="none" stroke="#63b8ff" d="M3473.57,-58.6C3487.06,-47.1 3502.96,-33.52 3513.14,-24.84"/>
<polygon fill="#63b8ff" stroke="#63b8ff" points="3471.63,-55.66 3466.3,-64.81 3476.18,-60.99 3471.63,-55.66"/>
</g>
<!-- Node13 -->
<g id="node13" class="node">
<title>Node13</title>
<g id="a_node13"><a xlink:href="m__Do__dvd__thread_8cpp.html" target="_top" xlink:title=" ">
<polygon fill="white" stroke="#666666" points="3767.5,-24.5 3609.5,-24.5 3609.5,-5.5 3767.5,-5.5 3767.5,-24.5"/>
<text text-anchor="middle" x="3688.5" y="-12.5" font-family="Helvetica,sans-Serif" font-size="10.00">src/m_Do/m_Do_dvd_thread.cpp</text>
</a>
</g>
</g>
<!-- Node7&#45;&gt;Node13 -->
<g id="edge12" class="edge">
<title>Node7&#45;&gt;Node13</title>
<path fill="none" stroke="#63b8ff" d="M3513.65,-62.63C3559.29,-50.46 3618.42,-34.69 3654.89,-24.96"/>
<polygon fill="#63b8ff" stroke="#63b8ff" points="3512.88,-59.21 3504.12,-65.17 3514.69,-65.97 3512.88,-59.21"/>
</g>
<!-- Node14&#45;&gt;Node6 -->
<g id="edge21" class="edge">
<title>Node14&#45;&gt;Node6</title>
<path fill="none" stroke="#63b8ff" d="M1189.45,-74.15C1042.4,-62.48 723.38,-36.81 673.5,-30 663.52,-28.64 652.86,-26.83 642.81,-24.96"/>
<polygon fill="#63b8ff" stroke="#63b8ff" points="1188.84,-77.61 1199.08,-74.92 1189.39,-70.64 1188.84,-77.61"/>
</g>
<!-- Node15 -->
<g id="node15" class="node">
<title>Node15</title>
<g id="a_node15"><a xlink:href="JKRAram_8cpp.html" target="_top" xlink:title=" ">
<polygon fill="white" stroke="#666666" points="1318,-30 1209,-30 1209,0 1318,0 1318,-30"/>
<text text-anchor="start" x="1217" y="-18" font-family="Helvetica,sans-Serif" font-size="10.00">libs/JSystem/JKernel</text>
<text text-anchor="middle" x="1263.5" y="-7" font-family="Helvetica,sans-Serif" font-size="10.00">/JKRAram.cpp</text>
</a>
</g>
</g>
<!-- Node14&#45;&gt;Node15 -->
<g id="edge14" class="edge">
<title>Node14&#45;&gt;Node15</title>
<path fill="none" stroke="#63b8ff" d="M1263.5,-54.39C1263.5,-46.13 1263.5,-37.28 1263.5,-30.16"/>
<polygon fill="#63b8ff" stroke="#63b8ff" points="1260,-54.28 1263.5,-64.28 1267,-54.28 1260,-54.28"/>
</g>
<!-- Node16 -->
<g id="node16" class="node">
<title>Node16</title>
<g id="a_node16"><a xlink:href="JKRAramArchive_8cpp.html" target="_top" xlink:title=" ">
<polygon fill="white" stroke="#666666" points="1836,-30 1723,-30 1723,0 1836,0 1836,-30"/>
<text text-anchor="start" x="1731" y="-18" font-family="Helvetica,sans-Serif" font-size="10.00">libs/JSystem/JKernel</text>
<text text-anchor="middle" x="1779.5" y="-7" font-family="Helvetica,sans-Serif" font-size="10.00">/JKRAramArchive.cpp</text>
</a>
</g>
</g>
<!-- Node14&#45;&gt;Node16 -->
<g id="edge15" class="edge">
<title>Node14&#45;&gt;Node16</title>
<path fill="none" stroke="#63b8ff" d="M1337.75,-74C1427.21,-66.26 1581.91,-51.21 1713.5,-30 1716.51,-29.52 1719.58,-28.98 1722.68,-28.42"/>
<polygon fill="#63b8ff" stroke="#63b8ff" points="1337.54,-70.51 1327.88,-74.85 1338.14,-77.48 1337.54,-70.51"/>
</g>
<!-- Node17 -->
<g id="node17" class="node">
<title>Node17</title>
<g id="a_node17"><a xlink:href="JKRAramPiece_8cpp.html" target="_top" xlink:title=" ">
<polygon fill="white" stroke="#666666" points="1445,-30 1336,-30 1336,0 1445,0 1445,-30"/>
<text text-anchor="start" x="1344" y="-18" font-family="Helvetica,sans-Serif" font-size="10.00">libs/JSystem/JKernel</text>
<text text-anchor="middle" x="1390.5" y="-7" font-family="Helvetica,sans-Serif" font-size="10.00">/JKRAramPiece.cpp</text>
</a>
</g>
</g>
<!-- Node14&#45;&gt;Node17 -->
<g id="edge16" class="edge">
<title>Node14&#45;&gt;Node17</title>
<path fill="none" stroke="#63b8ff" d="M1302.02,-60.59C1321.36,-50.84 1344.38,-39.24 1362.09,-30.31"/>
<polygon fill="#63b8ff" stroke="#63b8ff" points="1300.71,-57.33 1293.35,-64.96 1303.86,-63.58 1300.71,-57.33"/>
</g>
<!-- Node18 -->
<g id="node18" class="node">
<title>Node18</title>
<g id="a_node18"><a xlink:href="JKRCompArchive_8cpp.html" target="_top" xlink:title=" ">
<polygon fill="white" stroke="#666666" points="1578,-30 1463,-30 1463,0 1578,0 1578,-30"/>
<text text-anchor="start" x="1471" y="-18" font-family="Helvetica,sans-Serif" font-size="10.00">libs/JSystem/JKernel</text>
<text text-anchor="middle" x="1520.5" y="-7" font-family="Helvetica,sans-Serif" font-size="10.00">/JKRCompArchive.cpp</text>
</a>
</g>
</g>
<!-- Node14&#45;&gt;Node18 -->
<g id="edge17" class="edge">
<title>Node14&#45;&gt;Node18</title>
<path fill="none" stroke="#63b8ff" d="M1332.42,-62.84C1373.14,-52.7 1424.11,-40 1462.71,-30.39"/>
<polygon fill="#63b8ff" stroke="#63b8ff" points="1331.82,-59.38 1322.96,-65.19 1333.51,-66.17 1331.82,-59.38"/>
</g>
<!-- Node19 -->
<g id="node19" class="node">
<title>Node19</title>
<g id="a_node19"><a xlink:href="JUTCacheFont_8cpp.html" target="_top" xlink:title=" ">
<polygon fill="white" stroke="#666666" points="1065.5,-30 959.5,-30 959.5,0 1065.5,0 1065.5,-30"/>
<text text-anchor="start" x="967.5" y="-18" font-family="Helvetica,sans-Serif" font-size="10.00">libs/JSystem/JUtility</text>
<text text-anchor="middle" x="1012.5" y="-7" font-family="Helvetica,sans-Serif" font-size="10.00">/JUTCacheFont.cpp</text>
</a>
</g>
</g>
<!-- Node14&#45;&gt;Node19 -->
<g id="edge18" class="edge">
<title>Node14&#45;&gt;Node19</title>
<path fill="none" stroke="#63b8ff" d="M1195.92,-62.77C1155.13,-52.37 1103.88,-39.3 1065.93,-29.62"/>
<polygon fill="#63b8ff" stroke="#63b8ff" points="1194.84,-66.1 1205.39,-65.18 1196.57,-59.32 1194.84,-66.1"/>
</g>
<!-- Node20 -->
<g id="node20" class="node">
<title>Node20</title>
<g id="a_node20"><a xlink:href="d__s__logo_8cpp.html" target="_top" xlink:title=" ">
<polygon fill="white" stroke="#666666" points="1191,-24.5 1084,-24.5 1084,-5.5 1191,-5.5 1191,-24.5"/>
<text text-anchor="middle" x="1137.5" y="-12.5" font-family="Helvetica,sans-Serif" font-size="10.00">src/d/s/d_s_logo.cpp</text>
</a>
</g>
</g>
<!-- Node14&#45;&gt;Node20 -->
<g id="edge19" class="edge">
<title>Node14&#45;&gt;Node20</title>
<path fill="none" stroke="#63b8ff" d="M1224.97,-60.43C1201.72,-48.62 1173.21,-34.14 1155.19,-24.99"/>
<polygon fill="#63b8ff" stroke="#63b8ff" points="1223.37,-63.54 1233.87,-64.95 1226.54,-57.3 1223.37,-63.54"/>
</g>
<!-- Node21 -->
<g id="node21" class="node">
<title>Node21</title>
<g id="a_node21"><a xlink:href="m__Do__machine__exception_8cpp.html" target="_top" xlink:title=" ">
<polygon fill="white" stroke="#666666" points="812,-30 683,-30 683,0 812,0 812,-30"/>
<text text-anchor="start" x="691" y="-18" font-family="Helvetica,sans-Serif" font-size="10.00">src/m_Do/m_Do_machine</text>
<text text-anchor="middle" x="747.5" y="-7" font-family="Helvetica,sans-Serif" font-size="10.00">_exception.cpp</text>
</a>
</g>
</g>
<!-- Node14&#45;&gt;Node21 -->
<g id="edge20" class="edge">
<title>Node14&#45;&gt;Node21</title>
<path fill="none" stroke="#63b8ff" d="M1189.35,-73.39C1101.19,-65.13 949.7,-49.65 820.5,-30 817.82,-29.59 815.09,-29.16 812.33,-28.7"/>
<polygon fill="#63b8ff" stroke="#63b8ff" points="1188.79,-76.86 1199.07,-74.3 1189.44,-69.89 1188.79,-76.86"/>
</g>
<!-- Node22&#45;&gt;Node15 -->
<g id="edge23" class="edge">
<title>Node22&#45;&gt;Node15</title>
<path fill="none" stroke="#63b8ff" d="M1073.27,-62.83C1115.72,-52.38 1169.17,-39.22 1208.59,-29.52"/>
<polygon fill="#63b8ff" stroke="#63b8ff" points="1072.52,-59.41 1063.64,-65.2 1074.19,-66.2 1072.52,-59.41"/>
</g>
<!-- Node23 -->
<g id="node23" class="node">
<title>Node23</title>
<g id="a_node23"><a xlink:href="JKRAramStream_8cpp.html" target="_top" xlink:title=" ">
<polygon fill="white" stroke="#666666" points="941,-30 830,-30 830,0 941,0 941,-30"/>
<text text-anchor="start" x="838" y="-18" font-family="Helvetica,sans-Serif" font-size="10.00">libs/JSystem/JKernel</text>
<text text-anchor="middle" x="885.5" y="-7" font-family="Helvetica,sans-Serif" font-size="10.00">/JKRAramStream.cpp</text>
</a>
</g>
</g>
<!-- Node22&#45;&gt;Node23 -->
<g id="edge24" class="edge">
<title>Node22&#45;&gt;Node23</title>
<path fill="none" stroke="#63b8ff" d="M966.96,-60.18C949.15,-50.52 928.12,-39.12 911.89,-30.31"/>
<polygon fill="#63b8ff" stroke="#63b8ff" points="965.23,-63.22 975.69,-64.92 968.57,-57.07 965.23,-63.22"/>
</g>
<!-- Node24 -->
<g id="node24" class="node">
<title>Node24</title>
<g id="a_node24"><a xlink:href="JKRDvdAramRipper_8cpp.html" target="_top" xlink:title=" ">
<polygon fill="white" stroke="#666666" points="516,-30 391,-30 391,0 516,0 516,-30"/>
<text text-anchor="start" x="399" y="-18" font-family="Helvetica,sans-Serif" font-size="10.00">libs/JSystem/JKernel</text>
<text text-anchor="middle" x="453.5" y="-7" font-family="Helvetica,sans-Serif" font-size="10.00">/JKRDvdAramRipper.cpp</text>
</a>
</g>
</g>
<!-- Node22&#45;&gt;Node24 -->
<g id="edge25" class="edge">
<title>Node22&#45;&gt;Node24</title>
<path fill="none" stroke="#63b8ff" d="M929.08,-74.34C834.66,-66.67 666.97,-51.44 524.5,-30 521.77,-29.59 518.98,-29.14 516.17,-28.68"/>
<polygon fill="#63b8ff" stroke="#63b8ff" points="928.74,-77.82 938.99,-75.13 929.31,-70.84 928.74,-77.82"/>
</g>
<!-- Node25&#45;&gt;Node15 -->
<g id="edge27" class="edge">
<title>Node25&#45;&gt;Node15</title>
<path fill="none" stroke="#63b8ff" d="M1576.49,-69.99C1510.67,-60.75 1411.9,-46.06 1326.5,-30 1323.86,-29.5 1321.16,-28.98 1318.43,-28.43"/>
<polygon fill="#63b8ff" stroke="#63b8ff" points="1575.69,-73.41 1586.08,-71.33 1576.66,-66.48 1575.69,-73.41"/>
</g>
<!-- Node25&#45;&gt;Node17 -->
<g id="edge28" class="edge">
<title>Node25&#45;&gt;Node17</title>
<path fill="none" stroke="#63b8ff" d="M1580.73,-62.83C1538.28,-52.38 1484.83,-39.22 1445.41,-29.52"/>
<polygon fill="#63b8ff" stroke="#63b8ff" points="1579.81,-66.2 1590.36,-65.2 1581.48,-59.41 1579.81,-66.2"/>
</g>
<!-- Node25&#45;&gt;Node18 -->
<g id="edge29" class="edge">
<title>Node25&#45;&gt;Node18</title>
<path fill="none" stroke="#63b8ff" d="M1611.07,-60.59C1591.27,-50.84 1567.71,-39.24 1549.58,-30.31"/>
<polygon fill="#63b8ff" stroke="#63b8ff" points="1609.45,-63.69 1619.97,-64.97 1612.54,-57.41 1609.45,-63.69"/>
</g>
<!-- Node26 -->
<g id="node26" class="node">
<title>Node26</title>
<g id="a_node26"><a xlink:href="JKRDecomp_8cpp.html" target="_top" xlink:title=" ">
<polygon fill="white" stroke="#666666" points="1705,-30 1596,-30 1596,0 1705,0 1705,-30"/>
<text text-anchor="start" x="1604" y="-18" font-family="Helvetica,sans-Serif" font-size="10.00">libs/JSystem/JKernel</text>
<text text-anchor="middle" x="1650.5" y="-7" font-family="Helvetica,sans-Serif" font-size="10.00">/JKRDecomp.cpp</text>
</a>
</g>
</g>
<!-- Node25&#45;&gt;Node26 -->
<g id="edge30" class="edge">
<title>Node25&#45;&gt;Node26</title>
<path fill="none" stroke="#63b8ff" d="M1650.5,-54.39C1650.5,-46.13 1650.5,-37.28 1650.5,-30.16"/>
<polygon fill="#63b8ff" stroke="#63b8ff" points="1647,-54.28 1650.5,-64.28 1654,-54.28 1647,-54.28"/>
</g>
<!-- Node27 -->
<g id="node27" class="node">
<title>Node27</title>
<g id="a_node27"><a xlink:href="JKRDvdRipper_8cpp.html" target="_top" xlink:title=" ">
<polygon fill="white" stroke="#666666" points="2092,-30 1983,-30 1983,0 2092,0 2092,-30"/>
<text text-anchor="start" x="1991" y="-18" font-family="Helvetica,sans-Serif" font-size="10.00">libs/JSystem/JKernel</text>
<text text-anchor="middle" x="2037.5" y="-7" font-family="Helvetica,sans-Serif" font-size="10.00">/JKRDvdRipper.cpp</text>
</a>
</g>
</g>
<!-- Node25&#45;&gt;Node27 -->
<g id="edge31" class="edge">
<title>Node25&#45;&gt;Node27</title>
<path fill="none" stroke="#63b8ff" d="M1724.27,-69.9C1789.88,-60.61 1888.34,-45.89 1973.5,-30 1976.52,-29.44 1979.61,-28.84 1982.73,-28.21"/>
<polygon fill="#63b8ff" stroke="#63b8ff" points="1724.13,-66.39 1714.72,-71.25 1725.11,-73.32 1724.13,-66.39"/>
</g>
<!-- Node28 -->
<g id="node28" class="node">
<title>Node28</title>
<g id="a_node28"><a xlink:href="JKRMemArchive_8cpp.html" target="_top" xlink:title=" ">
<polygon fill="white" stroke="#666666" points="1965,-30 1854,-30 1854,0 1965,0 1965,-30"/>
<text text-anchor="start" x="1862" y="-18" font-family="Helvetica,sans-Serif" font-size="10.00">libs/JSystem/JKernel</text>
<text text-anchor="middle" x="1909.5" y="-7" font-family="Helvetica,sans-Serif" font-size="10.00">/JKRMemArchive.cpp</text>
</a>
</g>
</g>
<!-- Node25&#45;&gt;Node28 -->
<g id="edge32" class="edge">
<title>Node25&#45;&gt;Node28</title>
<path fill="none" stroke="#63b8ff" d="M1719.93,-62.84C1761.91,-52.47 1814.72,-39.42 1853.93,-29.73"/>
<polygon fill="#63b8ff" stroke="#63b8ff" points="1719.29,-59.4 1710.42,-65.19 1720.96,-66.19 1719.29,-59.4"/>
</g>
<!-- Node29&#45;&gt;Node15 -->
<g id="edge34" class="edge">
<title>Node29&#45;&gt;Node15</title>
<path fill="none" stroke="#63b8ff" d="M2160.8,-77.53C1975.2,-70.98 1487.18,-52.13 1326.5,-30 1323.84,-29.63 1321.12,-29.21 1318.38,-28.75"/>
<polygon fill="#63b8ff" stroke="#63b8ff" points="2160.43,-81.02 2170.55,-77.87 2160.68,-74.02 2160.43,-81.02"/>
</g>
<!-- Node29&#45;&gt;Node16 -->
<g id="edge35" class="edge">
<title>Node29&#45;&gt;Node16</title>
<path fill="none" stroke="#63b8ff" d="M2161.1,-72.54C2082.78,-64.04 1954.36,-48.86 1844.5,-30 1841.77,-29.53 1838.98,-29.03 1836.17,-28.5"/>
<polygon fill="#63b8ff" stroke="#63b8ff" points="2160.46,-75.99 2170.78,-73.58 2161.21,-69.03 2160.46,-75.99"/>
</g>
<!-- Node29&#45;&gt;Node17 -->
<g id="edge36" class="edge">
<title>Node29&#45;&gt;Node17</title>
<path fill="none" stroke="#63b8ff" d="M2160.99,-79.09C2022.72,-76.52 1712.06,-66.79 1453.5,-30 1450.84,-29.62 1448.12,-29.19 1445.38,-28.72"/>
<polygon fill="#63b8ff" stroke="#63b8ff" points="2160.67,-82.58 2170.73,-79.26 2160.79,-75.58 2160.67,-82.58"/>
</g>
<!-- Node29&#45;&gt;Node18 -->
<g id="edge38" class="edge">
<title>Node29&#45;&gt;Node18</title>
<path fill="none" stroke="#63b8ff" d="M2160.88,-77.51C2040.83,-72.7 1793.64,-59.84 1586.5,-30 1583.83,-29.62 1581.11,-29.19 1578.37,-28.73"/>
<polygon fill="#63b8ff" stroke="#63b8ff" points="2160.46,-81 2170.59,-77.89 2160.73,-74 2160.46,-81"/>
</g>
<!-- Node29&#45;&gt;Node23 -->
<g id="edge37" class="edge">
<title>Node29&#45;&gt;Node23</title>
<path fill="none" stroke="#63b8ff" d="M2160.87,-77.91C1907.32,-70.49 1070.36,-45.13 950.5,-30 947.52,-29.62 944.48,-29.18 941.41,-28.69"/>
<polygon fill="#63b8ff" stroke="#63b8ff" points="2160.53,-81.4 2170.63,-78.19 2160.74,-74.4 2160.53,-81.4"/>
</g>
<!-- Node29&#45;&gt;Node27 -->
<g id="edge41" class="edge">
<title>Node29&#45;&gt;Node27</title>
<path fill="none" stroke="#63b8ff" d="M2178.58,-62.07C2147.98,-52.07 2110.37,-39.79 2081.68,-30.43"/>
<polygon fill="#63b8ff" stroke="#63b8ff" points="2177.48,-65.39 2188.07,-65.17 2179.66,-58.74 2177.48,-65.39"/>
</g>
<!-- Node29&#45;&gt;Node28 -->
<g id="edge44" class="edge">
<title>Node29&#45;&gt;Node28</title>
<path fill="none" stroke="#63b8ff" d="M2161.05,-66.58C2108.84,-56.78 2036.74,-42.99 1973.5,-30 1970.83,-29.45 1968.09,-28.88 1965.33,-28.3"/>
<polygon fill="#63b8ff" stroke="#63b8ff" points="2160.25,-69.99 2170.72,-68.39 2161.54,-63.11 2160.25,-69.99"/>
</g>
<!-- Node30 -->
<g id="node30" class="node">
<title>Node30</title>
<g id="a_node30"><a xlink:href="JKRDvdArchive_8cpp.html" target="_top" xlink:title=" ">
<polygon fill="white" stroke="#666666" points="3039,-30 2930,-30 2930,0 3039,0 3039,-30"/>
<text text-anchor="start" x="2938" y="-18" font-family="Helvetica,sans-Serif" font-size="10.00">libs/JSystem/JKernel</text>
<text text-anchor="middle" x="2984.5" y="-7" font-family="Helvetica,sans-Serif" font-size="10.00">/JKRDvdArchive.cpp</text>
</a>
</g>
</g>
<!-- Node29&#45;&gt;Node30 -->
<g id="edge39" class="edge">
<title>Node29&#45;&gt;Node30</title>
<path fill="none" stroke="#63b8ff" d="M2306.3,-78.11C2432.12,-74.09 2698.14,-62.24 2920.5,-30 2923.54,-29.56 2926.65,-29.06 2929.78,-28.51"/>
<polygon fill="#63b8ff" stroke="#63b8ff" points="2306.33,-74.61 2296.45,-78.42 2306.55,-81.61 2306.33,-74.61"/>
</g>
<!-- Node31 -->
<g id="node31" class="node">
<title>Node31</title>
<g id="a_node31"><a xlink:href="JKRDvdFile_8cpp.html" target="_top" xlink:title=" ">
<polygon fill="white" stroke="#666666" points="3166,-30 3057,-30 3057,0 3166,0 3166,-30"/>
<text text-anchor="start" x="3065" y="-18" font-family="Helvetica,sans-Serif" font-size="10.00">libs/JSystem/JKernel</text>
<text text-anchor="middle" x="3111.5" y="-7" font-family="Helvetica,sans-Serif" font-size="10.00">/JKRDvdFile.cpp</text>
</a>
</g>
</g>
<!-- Node29&#45;&gt;Node31 -->
<g id="edge40" class="edge">
<title>Node29&#45;&gt;Node31</title>
<path fill="none" stroke="#63b8ff" d="M2306.01,-79.28C2448.68,-77.05 2775.62,-67.86 3047.5,-30 3050.54,-29.58 3053.65,-29.09 3056.79,-28.55"/>
<polygon fill="#63b8ff" stroke="#63b8ff" points="2306.29,-75.78 2296.35,-79.43 2306.4,-82.78 2306.29,-75.78"/>
</g>
<!-- Node32 -->
<g id="node32" class="node">
<title>Node32</title>
<g id="a_node32"><a xlink:href="JKRExpHeap_8cpp.html" target="_top" xlink:title=" ">
<polygon fill="white" stroke="#666666" points="3293,-30 3184,-30 3184,0 3293,0 3293,-30"/>
<text text-anchor="start" x="3192" y="-18" font-family="Helvetica,sans-Serif" font-size="10.00">libs/JSystem/JKernel</text>
<text text-anchor="middle" x="3238.5" y="-7" font-family="Helvetica,sans-Serif" font-size="10.00">/JKRExpHeap.cpp</text>
</a>
</g>
</g>
<!-- Node29&#45;&gt;Node32 -->
<g id="edge42" class="edge">
<title>Node29&#45;&gt;Node32</title>
<path fill="none" stroke="#63b8ff" d="M2306.39,-80.14C2465,-79.57 2853.02,-73.41 3174.5,-30 3177.54,-29.59 3180.66,-29.11 3183.79,-28.58"/>
<polygon fill="#63b8ff" stroke="#63b8ff" points="2306.43,-76.64 2296.44,-80.17 2306.45,-83.64 2306.43,-76.64"/>
</g>
<!-- Node33 -->
<g id="node33" class="node">
<title>Node33</title>
<g id="a_node33"><a xlink:href="JKRHeap_8cpp.html" target="_top" xlink:title=" ">
<polygon fill="white" stroke="#666666" points="2219,-30 2110,-30 2110,0 2219,0 2219,-30"/>
<text text-anchor="start" x="2118" y="-18" font-family="Helvetica,sans-Serif" font-size="10.00">libs/JSystem/JKernel</text>
<text text-anchor="middle" x="2164.5" y="-7" font-family="Helvetica,sans-Serif" font-size="10.00">/JKRHeap.cpp</text>
</a>
</g>
</g>
<!-- Node29&#45;&gt;Node33 -->
<g id="edge43" class="edge">
<title>Node29&#45;&gt;Node33</title>
<path fill="none" stroke="#63b8ff" d="M2209.88,-58.09C2199.91,-48.85 2188.61,-38.36 2179.77,-30.16"/>
<polygon fill="#63b8ff" stroke="#63b8ff" points="2207.37,-60.53 2217.08,-64.77 2212.13,-55.4 2207.37,-60.53"/>
</g>
<!-- Node34 -->
<g id="node34" class="node">
<title>Node34</title>
<g id="a_node34"><a xlink:href="functionvalue_8cpp.html" target="_top" xlink:title=" ">
<polygon fill="white" stroke="#666666" points="2368,-30 2237,-30 2237,0 2368,0 2368,-30"/>
<text text-anchor="start" x="2245" y="-18" font-family="Helvetica,sans-Serif" font-size="10.00">libs/JSystem/JStudio</text>
<text text-anchor="middle" x="2302.5" y="-7" font-family="Helvetica,sans-Serif" font-size="10.00">/JStudio/functionvalue.cpp</text>
</a>
</g>
</g>
<!-- Node29&#45;&gt;Node34 -->
<g id="edge45" class="edge">
<title>Node29&#45;&gt;Node34</title>
<path fill="none" stroke="#63b8ff" d="M2257.12,-58.09C2267.09,-48.85 2278.39,-38.36 2287.23,-30.16"/>
<polygon fill="#63b8ff" stroke="#63b8ff" points="2254.87,-55.4 2249.92,-64.77 2259.63,-60.53 2254.87,-55.4"/>
</g>
<!-- Node35 -->
<g id="node35" class="node">
<title>Node35</title>
<g id="a_node35"><a xlink:href="fvb_8cpp.html" target="_top" xlink:title=" ">
<polygon fill="white" stroke="#666666" points="2495,-30 2386,-30 2386,0 2495,0 2495,-30"/>
<text text-anchor="start" x="2394" y="-18" font-family="Helvetica,sans-Serif" font-size="10.00">libs/JSystem/JStudio</text>
<text text-anchor="middle" x="2440.5" y="-7" font-family="Helvetica,sans-Serif" font-size="10.00">/JStudio/fvb.cpp</text>
</a>
</g>
</g>
<!-- Node29&#45;&gt;Node35 -->
<g id="edge46" class="edge">
<title>Node29&#45;&gt;Node35</title>
<path fill="none" stroke="#63b8ff" d="M2290.91,-62.25C2323.38,-52.21 2363.46,-39.82 2393.96,-30.39"/>
<polygon fill="#63b8ff" stroke="#63b8ff" points="2290.18,-58.81 2281.66,-65.11 2292.25,-65.5 2290.18,-58.81"/>
</g>
<!-- Node36 -->
<g id="node36" class="node">
<title>Node36</title>
<g id="a_node36"><a xlink:href="stb_8cpp.html" target="_top" xlink:title=" ">
<polygon fill="white" stroke="#666666" points="2622,-30 2513,-30 2513,0 2622,0 2622,-30"/>
<text text-anchor="start" x="2521" y="-18" font-family="Helvetica,sans-Serif" font-size="10.00">libs/JSystem/JStudio</text>
<text text-anchor="middle" x="2567.5" y="-7" font-family="Helvetica,sans-Serif" font-size="10.00">/JStudio/stb.cpp</text>
</a>
</g>
</g>
<!-- Node29&#45;&gt;Node36 -->
<g id="edge47" class="edge">
<title>Node29&#45;&gt;Node36</title>
<path fill="none" stroke="#63b8ff" d="M2306.27,-67.18C2360.68,-57.44 2436.86,-43.46 2503.5,-30 2506.51,-29.39 2509.6,-28.76 2512.71,-28.11"/>
<polygon fill="#63b8ff" stroke="#63b8ff" points="2305.72,-63.72 2296.49,-68.93 2306.95,-70.61 2305.72,-63.72"/>
</g>
<!-- Node37 -->
<g id="node37" class="node">
<title>Node37</title>
<g id="a_node37"><a xlink:href="JUTException_8cpp.html" target="_top" xlink:title=" ">
<polygon fill="white" stroke="#666666" points="2746.5,-30 2640.5,-30 2640.5,0 2746.5,0 2746.5,-30"/>
<text text-anchor="start" x="2648.5" y="-18" font-family="Helvetica,sans-Serif" font-size="10.00">libs/JSystem/JUtility</text>
<text text-anchor="middle" x="2693.5" y="-7" font-family="Helvetica,sans-Serif" font-size="10.00">/JUTException.cpp</text>
</a>
</g>
</g>
<!-- Node29&#45;&gt;Node37 -->
<g id="edge48" class="edge">
<title>Node29&#45;&gt;Node37</title>
<path fill="none" stroke="#63b8ff" d="M2306.37,-72.89C2386.23,-64.61 2517.97,-49.55 2630.5,-30 2633.7,-29.44 2636.99,-28.83 2640.29,-28.19"/>
<polygon fill="#63b8ff" stroke="#63b8ff" points="2306.07,-69.4 2296.48,-73.9 2306.78,-76.36 2306.07,-69.4"/>
</g>
<!-- Node38 -->
<g id="node38" class="node">
<title>Node38</title>
<g id="a_node38"><a xlink:href="m__Do__machine_8cpp.html" target="_top" xlink:title=" ">
<polygon fill="white" stroke="#666666" points="2912,-24.5 2765,-24.5 2765,-5.5 2912,-5.5 2912,-24.5"/>
<text text-anchor="middle" x="2838.5" y="-12.5" font-family="Helvetica,sans-Serif" font-size="10.00">src/m_Do/m_Do_machine.cpp</text>
</a>
</g>
</g>
<!-- Node29&#45;&gt;Node38 -->
<g id="edge49" class="edge">
<title>Node29&#45;&gt;Node38</title>
<path fill="none" stroke="#63b8ff" d="M2306.02,-74.7C2407,-66.95 2595.59,-51.12 2755.5,-30 2766.37,-28.57 2777.99,-26.77 2788.99,-24.95"/>
<polygon fill="#63b8ff" stroke="#63b8ff" points="2305.95,-71.2 2296.25,-75.45 2306.48,-78.18 2305.95,-71.2"/>
</g>
</g>
</svg>
