<?xml version="1.0" encoding="UTF-8" standalone="no"?>
<!DOCTYPE svg PUBLIC "-//W3C//DTD SVG 1.1//EN"
 "http://www.w3.org/Graphics/SVG/1.1/DTD/svg11.dtd">
<!-- Generated by graphviz version 7.0.5 (20221223.1930)
 -->
<!-- Title: libs/JSystem/JParticle/JPAEmitter.cpp Pages: 1 -->
<svg width="1967pt" height="478pt"
 viewBox="0.00 0.00 1966.50 478.00" xmlns="http://www.w3.org/2000/svg" xmlns:xlink="http://www.w3.org/1999/xlink">
<g id="graph0" class="graph" transform="scale(1 1) rotate(0) translate(4 474)">
<title>libs/JSystem/JParticle/JPAEmitter.cpp</title>
<!-- Node1 -->
<g id="node1" class="node">
<title>Node1</title>
<g id="a_node1"><a xlink:title=" ">
<polygon fill="#999999" stroke="#666666" points="1181.5,-470 1067.5,-470 1067.5,-440 1181.5,-440 1181.5,-470"/>
<text text-anchor="start" x="1075.5" y="-458" font-family="Helvetica,sans-Serif" font-size="10.00">libs/JSystem/JParticle</text>
<text text-anchor="middle" x="1124.5" y="-447" font-family="Helvetica,sans-Serif" font-size="10.00">/JPAEmitter.cpp</text>
</a>
</g>
</g>
<!-- Node2 -->
<g id="node2" class="node">
<title>Node2</title>
<g id="a_node2"><a xlink:href="JPAEmitter_8h.html" target="_top" xlink:title=" ">
<polygon fill="white" stroke="#666666" points="1399.5,-261 1243.5,-261 1243.5,-242 1399.5,-242 1399.5,-261"/>
<text text-anchor="middle" x="1321.5" y="-249" font-family="Helvetica,sans-Serif" font-size="10.00">JSystem/JParticle/JPAEmitter.h</text>
</a>
</g>
</g>
<!-- Node1&#45;&gt;Node2 -->
<g id="edge1" class="edge">
<title>Node1&#45;&gt;Node2</title>
<path fill="none" stroke="#63b8ff" d="M1168.77,-439.58C1188.93,-431.44 1212.12,-419.7 1229.5,-404 1272.02,-365.59 1301.36,-302.9 1314.2,-271.57"/>
<polygon fill="#63b8ff" stroke="#63b8ff" points="1317.31,-273.21 1317.74,-262.63 1310.8,-270.63 1317.31,-273.21"/>
</g>
<!-- Node3 -->
<g id="node3" class="node">
<title>Node3</title>
<g id="a_node3"><a xlink:href="types_8h.html" target="_top" xlink:title=" ">
<polygon fill="white" stroke="#666666" points="817,-85 736,-85 736,-66 817,-66 817,-85"/>
<text text-anchor="middle" x="776.5" y="-73" font-family="Helvetica,sans-Serif" font-size="10.00">dolphin/types.h</text>
</a>
</g>
</g>
<!-- Node1&#45;&gt;Node3 -->
<g id="edge53" class="edge">
<title>Node1&#45;&gt;Node3</title>
<path fill="none" stroke="#63b8ff" d="M1142.05,-439.54C1168.49,-416 1215.5,-366.61 1215.5,-313 1215.5,-313 1215.5,-313 1215.5,-195.5 1215.5,-116.2 945.27,-88.08 828.84,-79.65"/>
<polygon fill="#63b8ff" stroke="#63b8ff" points="829.14,-76.16 818.92,-78.95 828.65,-83.14 829.14,-76.16"/>
</g>
<!-- Node5 -->
<g id="node5" class="node">
<title>Node5</title>
<g id="a_node5"><a xlink:href="JPADynamicsBlock_8h.html" target="_top" xlink:title=" ">
<polygon fill="white" stroke="#666666" points="161,-327 0,-327 0,-297 161,-297 161,-327"/>
<text text-anchor="start" x="8" y="-315" font-family="Helvetica,sans-Serif" font-size="10.00">JSystem/JParticle/JPADynamics</text>
<text text-anchor="middle" x="80.5" y="-304" font-family="Helvetica,sans-Serif" font-size="10.00">Block.h</text>
</a>
</g>
</g>
<!-- Node1&#45;&gt;Node5 -->
<g id="edge4" class="edge">
<title>Node1&#45;&gt;Node5</title>
<path fill="none" stroke="#63b8ff" d="M1067.22,-453.3C874.51,-450.61 257.13,-439.31 175.5,-404 142.27,-389.62 113.76,-358.15 96.87,-336.27"/>
<polygon fill="#63b8ff" stroke="#63b8ff" points="99.85,-334.41 91.07,-328.49 94.24,-338.6 99.85,-334.41"/>
</g>
<!-- Node12 -->
<g id="node12" class="node">
<title>Node12</title>
<g id="a_node12"><a xlink:href="JPAParticle_8h.html" target="_top" xlink:title=" ">
<polygon fill="white" stroke="#666666" points="674.5,-393 516.5,-393 516.5,-374 674.5,-374 674.5,-393"/>
<text text-anchor="middle" x="595.5" y="-381" font-family="Helvetica,sans-Serif" font-size="10.00">JSystem/JParticle/JPAParticle.h</text>
</a>
</g>
</g>
<!-- Node1&#45;&gt;Node12 -->
<g id="edge15" class="edge">
<title>Node1&#45;&gt;Node12</title>
<path fill="none" stroke="#63b8ff" d="M1067.13,-446.46C972.33,-434.01 782.75,-409.1 675.05,-394.95"/>
<polygon fill="#63b8ff" stroke="#63b8ff" points="675.81,-391.52 665.44,-393.69 674.9,-398.46 675.81,-391.52"/>
</g>
<!-- Node17 -->
<g id="node17" class="node">
<title>Node17</title>
<g id="a_node17"><a xlink:href="JPAResource_8h.html" target="_top" xlink:title=" ">
<polygon fill="white" stroke="#666666" points="791,-321.5 624,-321.5 624,-302.5 791,-302.5 791,-321.5"/>
<text text-anchor="middle" x="707.5" y="-309.5" font-family="Helvetica,sans-Serif" font-size="10.00">JSystem/JParticle/JPAResource.h</text>
</a>
</g>
</g>
<!-- Node1&#45;&gt;Node17 -->
<g id="edge38" class="edge">
<title>Node1&#45;&gt;Node17</title>
<path fill="none" stroke="#63b8ff" d="M1081.83,-439.57C999.92,-411.88 821.93,-351.69 744.6,-325.55"/>
<polygon fill="#63b8ff" stroke="#63b8ff" points="745.98,-322.32 735.38,-322.43 743.73,-328.95 745.98,-322.32"/>
</g>
<!-- Node19 -->
<g id="node19" class="node">
<title>Node19</title>
<g id="a_node19"><a xlink:href="mtx_8h.html" target="_top" xlink:title=" ">
<polygon fill="white" stroke="#666666" points="451.5,-261 359.5,-261 359.5,-242 451.5,-242 451.5,-261"/>
<text text-anchor="middle" x="405.5" y="-249" font-family="Helvetica,sans-Serif" font-size="10.00">dolphin/mtx/mtx.h</text>
</a>
</g>
</g>
<!-- Node1&#45;&gt;Node19 -->
<g id="edge50" class="edge">
<title>Node1&#45;&gt;Node19</title>
<path fill="none" stroke="#63b8ff" d="M1067.02,-452.8C915.64,-449.21 508.72,-436.71 378.5,-404 298.05,-383.79 253.45,-396.71 208.5,-327 201.27,-315.79 200.18,-307.42 208.5,-297 225.7,-275.48 295.99,-263.62 347.73,-257.66"/>
<polygon fill="#63b8ff" stroke="#63b8ff" points="348.05,-261.14 357.61,-256.57 347.29,-254.19 348.05,-261.14"/>
</g>
<!-- Node22 -->
<g id="node22" class="node">
<title>Node22</title>
<g id="a_node22"><a xlink:href="JPAResourceManager_8h.html" target="_top" xlink:title=" ">
<polygon fill="white" stroke="#666666" points="1150,-398.5 991,-398.5 991,-368.5 1150,-368.5 1150,-398.5"/>
<text text-anchor="start" x="999" y="-386.5" font-family="Helvetica,sans-Serif" font-size="10.00">JSystem/JParticle/JPAResource</text>
<text text-anchor="middle" x="1070.5" y="-375.5" font-family="Helvetica,sans-Serif" font-size="10.00">Manager.h</text>
</a>
</g>
</g>
<!-- Node1&#45;&gt;Node22 -->
<g id="edge39" class="edge">
<title>Node1&#45;&gt;Node22</title>
<path fill="none" stroke="#63b8ff" d="M1113.31,-439.6C1106.22,-430.47 1096.87,-418.44 1088.72,-407.95"/>
<polygon fill="#63b8ff" stroke="#63b8ff" points="1091.5,-405.83 1082.6,-400.08 1085.97,-410.12 1091.5,-405.83"/>
</g>
<!-- Node25 -->
<g id="node25" class="node">
<title>Node25</title>
<g id="a_node25"><a xlink:href="dol2asm_8h.html" target="_top" xlink:title=" ">
<polygon fill="white" stroke="#666666" points="1343,-393 1282,-393 1282,-374 1343,-374 1343,-393"/>
<text text-anchor="middle" x="1312.5" y="-381" font-family="Helvetica,sans-Serif" font-size="10.00">dol2asm.h</text>
</a>
</g>
</g>
<!-- Node1&#45;&gt;Node25 -->
<g id="edge49" class="edge">
<title>Node1&#45;&gt;Node25</title>
<path fill="none" stroke="#63b8ff" d="M1168.29,-439.61C1196.75,-430.03 1234.55,-416.88 1267.5,-404 1272.36,-402.1 1277.47,-399.99 1282.44,-397.89"/>
<polygon fill="#63b8ff" stroke="#63b8ff" points="1283.74,-401.14 1291.52,-393.96 1280.96,-394.71 1283.74,-401.14"/>
</g>
<!-- Node26 -->
<g id="node26" class="node">
<title>Node26</title>
<g id="a_node26"><a xlink:href="mtxvec_8h.html" target="_top" xlink:title=" ">
<polygon fill="white" stroke="#666666" points="325.5,-321.5 217.5,-321.5 217.5,-302.5 325.5,-302.5 325.5,-321.5"/>
<text text-anchor="middle" x="271.5" y="-309.5" font-family="Helvetica,sans-Serif" font-size="10.00">dolphin/mtx/mtxvec.h</text>
</a>
</g>
</g>
<!-- Node1&#45;&gt;Node26 -->
<g id="edge51" class="edge">
<title>Node1&#45;&gt;Node26</title>
<path fill="none" stroke="#63b8ff" d="M1067.1,-454.79C957.07,-455.13 709.45,-450.1 507.5,-404 429.52,-386.2 343.04,-347.66 299.62,-326.91"/>
<polygon fill="#63b8ff" stroke="#63b8ff" points="301.19,-323.78 290.66,-322.58 298.14,-330.08 301.19,-323.78"/>
</g>
<!-- Node27 -->
<g id="node27" class="node">
<title>Node27</title>
<g id="a_node27"><a xlink:title=" ">
<polygon fill="#e0e0e0" stroke="#999999" points="1522,-404 1361,-404 1361,-363 1522,-363 1522,-404"/>
<text text-anchor="start" x="1369" y="-392" font-family="Helvetica,sans-Serif" font-size="10.00">asm/JSystem/JParticle</text>
<text text-anchor="start" x="1369" y="-381" font-family="Helvetica,sans-Serif" font-size="10.00">/JPAEmitter/__dt__18JPAEmitter</text>
<text text-anchor="middle" x="1441.5" y="-370" font-family="Helvetica,sans-Serif" font-size="10.00">CallBackFv.s</text>
</a>
</g>
</g>
<!-- Node1&#45;&gt;Node27 -->
<g id="edge54" class="edge">
<title>Node1&#45;&gt;Node27</title>
<path fill="none" stroke="#63b8ff" d="M1181.91,-441.41C1228.64,-431.17 1295.51,-416.51 1349.67,-404.63"/>
<polygon fill="#63b8ff" stroke="#63b8ff" points="1350.18,-408.11 1359.2,-402.54 1348.68,-401.27 1350.18,-408.11"/>
</g>
<!-- Node28 -->
<g id="node28" class="node">
<title>Node28</title>
<g id="a_node28"><a xlink:title=" ">
<polygon fill="#e0e0e0" stroke="#999999" points="1782.5,-404 1540.5,-404 1540.5,-363 1782.5,-363 1782.5,-404"/>
<text text-anchor="start" x="1548.5" y="-392" font-family="Helvetica,sans-Serif" font-size="10.00">asm/JSystem/JParticle</text>
<text text-anchor="start" x="1548.5" y="-381" font-family="Helvetica,sans-Serif" font-size="10.00">/JPAEmitter/init__14JPABase</text>
<text text-anchor="middle" x="1661.5" y="-370" font-family="Helvetica,sans-Serif" font-size="10.00">EmitterFP17JPAEmitterManagerP11JPAResource.s</text>
</a>
</g>
</g>
<!-- Node1&#45;&gt;Node28 -->
<g id="edge55" class="edge">
<title>Node1&#45;&gt;Node28</title>
<path fill="none" stroke="#63b8ff" d="M1181.85,-447.44C1258.48,-438.57 1398.77,-421.96 1528.74,-404.36"/>
<polygon fill="#63b8ff" stroke="#63b8ff" points="1529.13,-407.84 1538.57,-403.02 1528.19,-400.9 1529.13,-407.84"/>
</g>
<!-- Node29 -->
<g id="node29" class="node">
<title>Node29</title>
<g id="a_node29"><a xlink:title=" ">
<polygon fill="#e0e0e0" stroke="#999999" points="1958.5,-404 1800.5,-404 1800.5,-363 1958.5,-363 1958.5,-404"/>
<text text-anchor="start" x="1808.5" y="-392" font-family="Helvetica,sans-Serif" font-size="10.00">asm/JSystem/JParticle</text>
<text text-anchor="start" x="1808.5" y="-381" font-family="Helvetica,sans-Serif" font-size="10.00">/JPAEmitter/processTermination</text>
<text text-anchor="middle" x="1879.5" y="-370" font-family="Helvetica,sans-Serif" font-size="10.00">__14JPABaseEmitterFv.s</text>
</a>
</g>
</g>
<!-- Node1&#45;&gt;Node29 -->
<g id="edge56" class="edge">
<title>Node1&#45;&gt;Node29</title>
<path fill="none" stroke="#63b8ff" d="M1181.91,-452.46C1295.87,-448.82 1558.83,-437.42 1789.16,-404.23"/>
<polygon fill="#63b8ff" stroke="#63b8ff" points="1789.56,-407.71 1798.95,-402.8 1788.55,-400.78 1789.56,-407.71"/>
</g>
<!-- Node2&#45;&gt;Node3 -->
<g id="edge2" class="edge">
<title>Node2&#45;&gt;Node3</title>
<path fill="none" stroke="#63b8ff" d="M1318.24,-241.58C1308.84,-217.28 1279.12,-149.78 1229.5,-121 1162.61,-82.21 933.24,-76.72 828.91,-76.29"/>
<polygon fill="#63b8ff" stroke="#63b8ff" points="828.95,-72.79 818.94,-76.26 828.93,-79.79 828.95,-72.79"/>
</g>
<!-- Node4 -->
<g id="node4" class="node">
<title>Node4</title>
<g id="a_node4"><a xlink:href="stddef_8h.html" target="_top" xlink:title=" ">
<polygon fill="white" stroke="#666666" points="844.5,-30 708.5,-30 708.5,0 844.5,0 844.5,-30"/>
<text text-anchor="start" x="716.5" y="-18" font-family="Helvetica,sans-Serif" font-size="10.00">MSL_C/MSL_Common/Src</text>
<text text-anchor="middle" x="776.5" y="-7" font-family="Helvetica,sans-Serif" font-size="10.00">/stddef.h</text>
</a>
</g>
</g>
<!-- Node3&#45;&gt;Node4 -->
<g id="edge3" class="edge">
<title>Node3&#45;&gt;Node4</title>
<path fill="none" stroke="#63b8ff" d="M776.5,-65.87C776.5,-59.4 776.5,-50.2 776.5,-41.45"/>
<polygon fill="#63b8ff" stroke="#63b8ff" points="780,-41.63 776.5,-31.63 773,-41.63 780,-41.63"/>
</g>
<!-- Node5&#45;&gt;Node3 -->
<g id="edge14" class="edge">
<title>Node5&#45;&gt;Node3</title>
<path fill="none" stroke="#63b8ff" d="M71.88,-296.64C51.08,-260 3.65,-162.99 57.5,-121 109.76,-80.25 568.32,-76.47 724.59,-76.38"/>
<polygon fill="#63b8ff" stroke="#63b8ff" points="724.23,-79.88 734.23,-76.38 724.23,-72.88 724.23,-79.88"/>
</g>
<!-- Node6 -->
<g id="node6" class="node">
<title>Node6</title>
<g id="a_node6"><a xlink:href="JGeometry_8h.html" target="_top" xlink:title=" ">
<polygon fill="white" stroke="#666666" points="308,-261 195,-261 195,-242 308,-242 308,-261"/>
<text text-anchor="middle" x="251.5" y="-249" font-family="Helvetica,sans-Serif" font-size="10.00">JSystem/JGeometry.h</text>
</a>
</g>
</g>
<!-- Node5&#45;&gt;Node6 -->
<g id="edge5" class="edge">
<title>Node5&#45;&gt;Node6</title>
<path fill="none" stroke="#63b8ff" d="M122.77,-296.54C151.02,-286.87 187.82,-274.29 214.83,-265.04"/>
<polygon fill="#63b8ff" stroke="#63b8ff" points="215.63,-268.47 223.96,-261.92 213.36,-261.85 215.63,-268.47"/>
</g>
<!-- Node6&#45;&gt;Node3 -->
<g id="edge8" class="edge">
<title>Node6&#45;&gt;Node3</title>
<path fill="none" stroke="#63b8ff" d="M249.48,-241.64C244.69,-218.06 235.45,-153.37 269.5,-121 301.99,-90.11 601.62,-80.23 724.4,-77.46"/>
<polygon fill="#63b8ff" stroke="#63b8ff" points="724.28,-80.96 734.2,-77.25 724.13,-73.97 724.28,-80.96"/>
</g>
<!-- Node7 -->
<g id="node7" class="node">
<title>Node7</title>
<g id="a_node7"><a xlink:href="vec_8h.html" target="_top" xlink:title=" ">
<polygon fill="white" stroke="#666666" points="491.5,-145.5 399.5,-145.5 399.5,-126.5 491.5,-126.5 491.5,-145.5"/>
<text text-anchor="middle" x="445.5" y="-133.5" font-family="Helvetica,sans-Serif" font-size="10.00">dolphin/mtx/vec.h</text>
</a>
</g>
</g>
<!-- Node6&#45;&gt;Node7 -->
<g id="edge6" class="edge">
<title>Node6&#45;&gt;Node7</title>
<path fill="none" stroke="#63b8ff" d="M264.25,-241.68C282.72,-229.04 318.14,-205.27 349.5,-187 371.73,-174.05 397.63,-160.65 416.93,-150.99"/>
<polygon fill="#63b8ff" stroke="#63b8ff" points="418.42,-154.15 425.82,-146.57 415.31,-147.89 418.42,-154.15"/>
</g>
<!-- Node8 -->
<g id="node8" class="node">
<title>Node8</title>
<g id="a_node8"><a xlink:href="float_8h.html" target="_top" xlink:title=" ">
<polygon fill="white" stroke="#666666" points="223.5,-206 145.5,-206 145.5,-187 223.5,-187 223.5,-206"/>
<text text-anchor="middle" x="184.5" y="-194" font-family="Helvetica,sans-Serif" font-size="10.00">MSL_C/float.h</text>
</a>
</g>
</g>
<!-- Node6&#45;&gt;Node8 -->
<g id="edge9" class="edge">
<title>Node6&#45;&gt;Node8</title>
<path fill="none" stroke="#63b8ff" d="M240.13,-241.51C230.45,-233.85 216.3,-222.66 204.69,-213.47"/>
<polygon fill="#63b8ff" stroke="#63b8ff" points="206.9,-210.76 196.88,-207.3 202.56,-216.25 206.9,-210.76"/>
</g>
<!-- Node11 -->
<g id="node11" class="node">
<title>Node11</title>
<g id="a_node11"><a xlink:href="math_8h.html" target="_top" xlink:title=" ">
<polygon fill="white" stroke="#666666" points="127.5,-206 45.5,-206 45.5,-187 127.5,-187 127.5,-206"/>
<text text-anchor="middle" x="86.5" y="-194" font-family="Helvetica,sans-Serif" font-size="10.00">MSL_C/math.h</text>
</a>
</g>
</g>
<!-- Node6&#45;&gt;Node11 -->
<g id="edge12" class="edge">
<title>Node6&#45;&gt;Node11</title>
<path fill="none" stroke="#63b8ff" d="M223.51,-241.51C196.41,-232.8 155.09,-219.53 124.92,-209.84"/>
<polygon fill="#63b8ff" stroke="#63b8ff" points="126.38,-206.64 115.79,-206.91 124.24,-213.3 126.38,-206.64"/>
</g>
<!-- Node7&#45;&gt;Node3 -->
<g id="edge7" class="edge">
<title>Node7&#45;&gt;Node3</title>
<path fill="none" stroke="#63b8ff" d="M482.22,-126.02C489.9,-124.26 497.95,-122.5 505.5,-121 581.47,-105.92 670.15,-92.06 724.81,-83.94"/>
<polygon fill="#63b8ff" stroke="#63b8ff" points="725.07,-87.44 734.45,-82.52 724.04,-80.52 725.07,-87.44"/>
</g>
<!-- Node9 -->
<g id="node9" class="node">
<title>Node9</title>
<g id="a_node9"><a xlink:href="MSL__Common_2Src_2float_8h.html" target="_top" xlink:title=" ">
<polygon fill="white" stroke="#666666" points="202.5,-151 66.5,-151 66.5,-121 202.5,-121 202.5,-151"/>
<text text-anchor="start" x="74.5" y="-139" font-family="Helvetica,sans-Serif" font-size="10.00">MSL_C/MSL_Common/Src</text>
<text text-anchor="middle" x="134.5" y="-128" font-family="Helvetica,sans-Serif" font-size="10.00">/float.h</text>
</a>
</g>
</g>
<!-- Node8&#45;&gt;Node9 -->
<g id="edge10" class="edge">
<title>Node8&#45;&gt;Node9</title>
<path fill="none" stroke="#63b8ff" d="M177.12,-186.87C171.03,-179.74 162.09,-169.28 153.98,-159.79"/>
<polygon fill="#63b8ff" stroke="#63b8ff" points="156.7,-157.59 147.55,-152.27 151.38,-162.14 156.7,-157.59"/>
</g>
<!-- Node10 -->
<g id="node10" class="node">
<title>Node10</title>
<g id="a_node10"><a xlink:href="fdlibm_8h.html" target="_top" xlink:title=" ">
<polygon fill="white" stroke="#666666" points="159.5,-85 109.5,-85 109.5,-66 159.5,-66 159.5,-85"/>
<text text-anchor="middle" x="134.5" y="-73" font-family="Helvetica,sans-Serif" font-size="10.00">fdlibm.h</text>
</a>
</g>
</g>
<!-- Node9&#45;&gt;Node10 -->
<g id="edge11" class="edge">
<title>Node9&#45;&gt;Node10</title>
<path fill="none" stroke="#63b8ff" d="M134.5,-120.54C134.5,-113.34 134.5,-104.53 134.5,-96.68"/>
<polygon fill="#63b8ff" stroke="#63b8ff" points="138,-96.69 134.5,-86.69 131,-96.69 138,-96.69"/>
</g>
<!-- Node11&#45;&gt;Node9 -->
<g id="edge13" class="edge">
<title>Node11&#45;&gt;Node9</title>
<path fill="none" stroke="#63b8ff" d="M93.58,-186.87C99.43,-179.74 108.01,-169.28 115.8,-159.79"/>
<polygon fill="#63b8ff" stroke="#63b8ff" points="118.32,-162.24 121.96,-152.28 112.91,-157.8 118.32,-162.24"/>
</g>
<!-- Node12&#45;&gt;Node3 -->
<g id="edge22" class="edge">
<title>Node12&#45;&gt;Node3</title>
<path fill="none" stroke="#63b8ff" d="M590.99,-373.62C580.93,-352.95 557.5,-299.76 557.5,-252.5 557.5,-252.5 557.5,-252.5 557.5,-195.5 557.5,-161.22 552.75,-144.72 577.5,-121 598.23,-101.13 672.6,-88.57 724.31,-82.04"/>
<polygon fill="#63b8ff" stroke="#63b8ff" points="724.61,-85.53 734.11,-80.84 723.76,-78.58 724.61,-85.53"/>
</g>
<!-- Node12&#45;&gt;Node5 -->
<g id="edge26" class="edge">
<title>Node12&#45;&gt;Node5</title>
<path fill="none" stroke="#63b8ff" d="M528.96,-373.52C438.15,-361.27 274.99,-339.25 172.51,-325.42"/>
<polygon fill="#63b8ff" stroke="#63b8ff" points="173.13,-321.97 162.75,-324.1 172.19,-328.91 173.13,-321.97"/>
</g>
<!-- Node12&#45;&gt;Node6 -->
<g id="edge23" class="edge">
<title>Node12&#45;&gt;Node6</title>
<path fill="none" stroke="#63b8ff" d="M530.91,-373.55C485.27,-365.54 423.57,-351.21 373.5,-327 353.81,-317.48 352.86,-308.87 334.5,-297 317.04,-285.71 296.45,-274.66 280.15,-266.39"/>
<polygon fill="#63b8ff" stroke="#63b8ff" points="281.99,-263.4 271.48,-262.07 278.86,-269.67 281.99,-263.4"/>
</g>
<!-- Node13 -->
<g id="node13" class="node">
<title>Node13</title>
<g id="a_node13"><a xlink:href="GXEnum_8h.html" target="_top" xlink:title=" ">
<polygon fill="white" stroke="#666666" points="1156.5,-206 1046.5,-206 1046.5,-187 1156.5,-187 1156.5,-206"/>
<text text-anchor="middle" x="1101.5" y="-194" font-family="Helvetica,sans-Serif" font-size="10.00">dolphin/gx/GXEnum.h</text>
</a>
</g>
</g>
<!-- Node12&#45;&gt;Node13 -->
<g id="edge16" class="edge">
<title>Node12&#45;&gt;Node13</title>
<path fill="none" stroke="#63b8ff" d="M674.85,-379.55C810.56,-373.67 1075.44,-358.29 1103.5,-327 1130.44,-296.96 1118.63,-245.4 1109.16,-217.26"/>
<polygon fill="#63b8ff" stroke="#63b8ff" points="1112.45,-216.08 1105.75,-207.87 1105.87,-218.46 1112.45,-216.08"/>
</g>
<!-- Node14 -->
<g id="node14" class="node">
<title>Node14</title>
<g id="a_node14"><a xlink:href="GXStruct_8h.html" target="_top" xlink:title=" ">
<polygon fill="white" stroke="#666666" points="873,-206 762,-206 762,-187 873,-187 873,-206"/>
<text text-anchor="middle" x="817.5" y="-194" font-family="Helvetica,sans-Serif" font-size="10.00">dolphin/gx/GXStruct.h</text>
</a>
</g>
</g>
<!-- Node12&#45;&gt;Node14 -->
<g id="edge18" class="edge">
<title>Node12&#45;&gt;Node14</title>
<path fill="none" stroke="#63b8ff" d="M656.75,-373.53C710.05,-364.42 781.63,-348.58 800.5,-327 827.16,-296.51 824.89,-245.51 821.09,-217.48"/>
<polygon fill="#63b8ff" stroke="#63b8ff" points="824.58,-217.19 819.56,-207.86 817.67,-218.29 824.58,-217.19"/>
</g>
<!-- Node16 -->
<g id="node16" class="node">
<title>Node16</title>
<g id="a_node16"><a xlink:href="JSUList_8h.html" target="_top" xlink:title=" ">
<polygon fill="white" stroke="#666666" points="729,-145.5 586,-145.5 586,-126.5 729,-126.5 729,-145.5"/>
<text text-anchor="middle" x="657.5" y="-133.5" font-family="Helvetica,sans-Serif" font-size="10.00">JSystem/JSupport/JSUList.h</text>
</a>
</g>
</g>
<!-- Node12&#45;&gt;Node16 -->
<g id="edge24" class="edge">
<title>Node12&#45;&gt;Node16</title>
<path fill="none" stroke="#63b8ff" d="M597.41,-373.99C600.89,-358.59 608.52,-325.11 615.5,-297 628.03,-246.51 643.85,-187.37 652.04,-157.1"/>
<polygon fill="#63b8ff" stroke="#63b8ff" points="655.41,-158.03 654.65,-147.46 648.66,-156.2 655.41,-158.03"/>
</g>
<!-- Node12&#45;&gt;Node17 -->
<g id="edge27" class="edge">
<title>Node12&#45;&gt;Node17</title>
<path fill="none" stroke="#63b8ff" d="M609.68,-373.7C628.27,-362.17 661.11,-341.78 683.58,-327.85"/>
<polygon fill="#63b8ff" stroke="#63b8ff" points="685.14,-331 691.79,-322.75 681.45,-325.05 685.14,-331"/>
</g>
<!-- Node18 -->
<g id="node18" class="node">
<title>Node18</title>
<g id="a_node18"><a xlink:href="JPAMath_8h.html" target="_top" xlink:title=" ">
<polygon fill="white" stroke="#666666" points="529,-321.5 382,-321.5 382,-302.5 529,-302.5 529,-321.5"/>
<text text-anchor="middle" x="455.5" y="-309.5" font-family="Helvetica,sans-Serif" font-size="10.00">JSystem/JParticle/JPAMath.h</text>
</a>
</g>
</g>
<!-- Node12&#45;&gt;Node18 -->
<g id="edge29" class="edge">
<title>Node12&#45;&gt;Node18</title>
<path fill="none" stroke="#63b8ff" d="M577.48,-373.56C553.65,-361.72 511.39,-340.74 483.4,-326.85"/>
<polygon fill="#63b8ff" stroke="#63b8ff" points="485.32,-323.89 474.8,-322.58 482.2,-330.16 485.32,-323.89"/>
</g>
<!-- Node13&#45;&gt;Node3 -->
<g id="edge17" class="edge">
<title>Node13&#45;&gt;Node3</title>
<path fill="none" stroke="#63b8ff" d="M1092.59,-186.52C1076.28,-170.63 1039.82,-137.66 1002.5,-121 946.16,-95.86 875.65,-84.86 828.5,-80.08"/>
<polygon fill="#63b8ff" stroke="#63b8ff" points="829.13,-76.63 818.85,-79.17 828.47,-83.6 829.13,-76.63"/>
</g>
<!-- Node14&#45;&gt;Node3 -->
<g id="edge19" class="edge">
<title>Node14&#45;&gt;Node3</title>
<path fill="none" stroke="#63b8ff" d="M814.42,-186.56C807.83,-167.42 792.23,-122.15 783.22,-96.02"/>
<polygon fill="#63b8ff" stroke="#63b8ff" points="786.57,-94.97 780,-86.66 779.95,-97.25 786.57,-94.97"/>
</g>
<!-- Node15 -->
<g id="node15" class="node">
<title>Node15</title>
<g id="a_node15"><a xlink:href="global_8h.html" target="_top" xlink:title=" ">
<polygon fill="white" stroke="#666666" points="873.5,-145.5 823.5,-145.5 823.5,-126.5 873.5,-126.5 873.5,-145.5"/>
<text text-anchor="middle" x="848.5" y="-133.5" font-family="Helvetica,sans-Serif" font-size="10.00">global.h</text>
</a>
</g>
</g>
<!-- Node14&#45;&gt;Node15 -->
<g id="edge20" class="edge">
<title>Node14&#45;&gt;Node15</title>
<path fill="none" stroke="#63b8ff" d="M822.07,-186.87C826.42,-178.66 833.11,-166.04 838.67,-155.55"/>
<polygon fill="#63b8ff" stroke="#63b8ff" points="841.61,-157.48 843.2,-147 835.42,-154.2 841.61,-157.48"/>
</g>
<!-- Node15&#45;&gt;Node3 -->
<g id="edge21" class="edge">
<title>Node15&#45;&gt;Node3</title>
<path fill="none" stroke="#63b8ff" d="M837.56,-126.12C826.68,-117.27 809.71,-103.48 796.42,-92.69"/>
<polygon fill="#63b8ff" stroke="#63b8ff" points="798.68,-90.01 788.71,-86.42 794.27,-95.45 798.68,-90.01"/>
</g>
<!-- Node16&#45;&gt;Node3 -->
<g id="edge25" class="edge">
<title>Node16&#45;&gt;Node3</title>
<path fill="none" stroke="#63b8ff" d="M675.57,-126.12C694.79,-116.67 725.47,-101.59 747.96,-90.53"/>
<polygon fill="#63b8ff" stroke="#63b8ff" points="749.47,-93.69 756.9,-86.14 746.38,-87.41 749.47,-93.69"/>
</g>
<!-- Node17&#45;&gt;Node3 -->
<g id="edge28" class="edge">
<title>Node17&#45;&gt;Node3</title>
<path fill="none" stroke="#63b8ff" d="M710.12,-302.09C720.18,-267.92 756.43,-144.7 770.69,-96.26"/>
<polygon fill="#63b8ff" stroke="#63b8ff" points="773.98,-97.45 773.45,-86.87 767.27,-95.47 773.98,-97.45"/>
</g>
<!-- Node18&#45;&gt;Node6 -->
<g id="edge37" class="edge">
<title>Node18&#45;&gt;Node6</title>
<path fill="none" stroke="#63b8ff" d="M424.52,-302.12C389.62,-292.11 332.7,-275.79 293.75,-264.62"/>
<polygon fill="#63b8ff" stroke="#63b8ff" points="294.81,-261.28 284.23,-261.89 292.88,-268.01 294.81,-261.28"/>
</g>
<!-- Node18&#45;&gt;Node19 -->
<g id="edge30" class="edge">
<title>Node18&#45;&gt;Node19</title>
<path fill="none" stroke="#63b8ff" d="M448.12,-302.37C440.81,-293.81 429.41,-280.47 420.24,-269.74"/>
<polygon fill="#63b8ff" stroke="#63b8ff" points="423.05,-267.65 413.89,-262.32 417.73,-272.19 423.05,-267.65"/>
</g>
<!-- Node19&#45;&gt;Node3 -->
<g id="edge36" class="edge">
<title>Node19&#45;&gt;Node3</title>
<path fill="none" stroke="#63b8ff" d="M423.88,-241.51C439.2,-233.48 461.11,-220.73 477.5,-206 513.07,-174.03 502.72,-145.98 543.5,-121 598.93,-87.04 674.59,-78.04 724.45,-76.13"/>
<polygon fill="#63b8ff" stroke="#63b8ff" points="724.52,-79.63 734.41,-75.85 724.32,-72.64 724.52,-79.63"/>
</g>
<!-- Node19&#45;&gt;Node7 -->
<g id="edge35" class="edge">
<title>Node19&#45;&gt;Node7</title>
<path fill="none" stroke="#63b8ff" d="M424.41,-241.57C437.76,-234.13 454.63,-222.13 462.5,-206 470.35,-189.92 463.85,-169.91 456.74,-155.59"/>
<polygon fill="#63b8ff" stroke="#63b8ff" points="460.02,-154.31 452.14,-147.23 453.89,-157.68 460.02,-154.31"/>
</g>
<!-- Node20 -->
<g id="node20" class="node">
<title>Node20</title>
<g id="a_node20"><a xlink:href="mtx44_8h.html" target="_top" xlink:title=" ">
<polygon fill="white" stroke="#666666" points="381,-145.5 278,-145.5 278,-126.5 381,-126.5 381,-145.5"/>
<text text-anchor="middle" x="329.5" y="-133.5" font-family="Helvetica,sans-Serif" font-size="10.00">dolphin/mtx/mtx44.h</text>
</a>
</g>
</g>
<!-- Node19&#45;&gt;Node20 -->
<g id="edge31" class="edge">
<title>Node19&#45;&gt;Node20</title>
<path fill="none" stroke="#63b8ff" d="M389.47,-241.57C376.85,-233.75 359.74,-221.26 349.5,-206 339.61,-191.26 334.54,-171.58 331.98,-157.02"/>
<polygon fill="#63b8ff" stroke="#63b8ff" points="335.47,-156.66 330.54,-147.28 328.54,-157.68 335.47,-156.66"/>
</g>
<!-- Node21 -->
<g id="node21" class="node">
<title>Node21</title>
<g id="a_node21"><a xlink:href="quat_8h.html" target="_top" xlink:title=" ">
<polygon fill="white" stroke="#666666" points="453,-206 358,-206 358,-187 453,-187 453,-206"/>
<text text-anchor="middle" x="405.5" y="-194" font-family="Helvetica,sans-Serif" font-size="10.00">dolphin/mtx/quat.h</text>
</a>
</g>
</g>
<!-- Node19&#45;&gt;Node21 -->
<g id="edge33" class="edge">
<title>Node19&#45;&gt;Node21</title>
<path fill="none" stroke="#63b8ff" d="M405.5,-241.75C405.5,-235.27 405.5,-226.16 405.5,-217.9"/>
<polygon fill="#63b8ff" stroke="#63b8ff" points="409,-217.96 405.5,-207.96 402,-217.96 409,-217.96"/>
</g>
<!-- Node20&#45;&gt;Node3 -->
<g id="edge32" class="edge">
<title>Node20&#45;&gt;Node3</title>
<path fill="none" stroke="#63b8ff" d="M365.49,-126.04C373.68,-124.2 382.36,-122.4 390.5,-121 509.14,-100.61 649.94,-87.02 724.36,-80.66"/>
<polygon fill="#63b8ff" stroke="#63b8ff" points="724.54,-84.16 734.21,-79.83 723.95,-77.19 724.54,-84.16"/>
</g>
<!-- Node21&#45;&gt;Node7 -->
<g id="edge34" class="edge">
<title>Node21&#45;&gt;Node7</title>
<path fill="none" stroke="#63b8ff" d="M411.4,-186.87C417.13,-178.49 426.01,-165.51 433.26,-154.89"/>
<polygon fill="#63b8ff" stroke="#63b8ff" points="435.96,-157.15 438.72,-146.92 430.19,-153.2 435.96,-157.15"/>
</g>
<!-- Node22&#45;&gt;Node3 -->
<g id="edge48" class="edge">
<title>Node22&#45;&gt;Node3</title>
<path fill="none" stroke="#63b8ff" d="M995.46,-368.11C970.7,-359.89 945.04,-347.03 927.5,-327 865.76,-256.5 942.07,-193.35 882.5,-121 868.8,-104.36 847.79,-93.84 828.08,-87.24"/>
<polygon fill="#63b8ff" stroke="#63b8ff" points="829.36,-83.97 818.77,-84.4 827.32,-90.66 829.36,-83.97"/>
</g>
<!-- Node22&#45;&gt;Node13 -->
<g id="edge47" class="edge">
<title>Node22&#45;&gt;Node13</title>
<path fill="none" stroke="#63b8ff" d="M1106.72,-368.13C1124.22,-359.13 1143.53,-345.65 1153.5,-327 1171.3,-293.68 1169.3,-276.32 1153.5,-242 1148,-230.06 1137.54,-220.13 1127.44,-212.7"/>
<polygon fill="#63b8ff" stroke="#63b8ff" points="1129.54,-209.89 1119.29,-207.21 1125.62,-215.7 1129.54,-209.89"/>
</g>
<!-- Node23 -->
<g id="node23" class="node">
<title>Node23</title>
<g id="a_node23"><a xlink:href="JPATexture_8h.html" target="_top" xlink:title=" ">
<polygon fill="white" stroke="#666666" points="1094.5,-321.5 936.5,-321.5 936.5,-302.5 1094.5,-302.5 1094.5,-321.5"/>
<text text-anchor="middle" x="1015.5" y="-309.5" font-family="Helvetica,sans-Serif" font-size="10.00">JSystem/JParticle/JPATexture.h</text>
</a>
</g>
</g>
<!-- Node22&#45;&gt;Node23 -->
<g id="edge40" class="edge">
<title>Node22&#45;&gt;Node23</title>
<path fill="none" stroke="#63b8ff" d="M1059.1,-368.1C1050.45,-357.17 1038.51,-342.08 1029.32,-330.46"/>
<polygon fill="#63b8ff" stroke="#63b8ff" points="1032.26,-328.54 1023.31,-322.87 1026.77,-332.88 1032.26,-328.54"/>
</g>
<!-- Node23&#45;&gt;Node3 -->
<g id="edge46" class="edge">
<title>Node23&#45;&gt;Node3</title>
<path fill="none" stroke="#63b8ff" d="M975.81,-302.02C953.95,-294.83 928.66,-282.3 915.5,-261 915.5,-261 915.5,-121 915.5,-121 895.76,-93.96 859.38,-82.98 828.78,-78.68"/>
<polygon fill="#63b8ff" stroke="#63b8ff" points="829.23,-75.21 818.89,-77.52 828.41,-82.16 829.23,-75.21"/>
</g>
<!-- Node23&#45;&gt;Node13 -->
<g id="edge45" class="edge">
<title>Node23&#45;&gt;Node13</title>
<path fill="none" stroke="#63b8ff" d="M1033.13,-302.07C1048.33,-293.5 1069.77,-279.2 1082.5,-261 1091.49,-248.14 1096.3,-230.95 1098.82,-217.7"/>
<polygon fill="#63b8ff" stroke="#63b8ff" points="1102.26,-218.4 1100.37,-207.97 1095.34,-217.3 1102.26,-218.4"/>
</g>
<!-- Node24 -->
<g id="node24" class="node">
<title>Node24</title>
<g id="a_node24"><a xlink:href="JUTTexture_8h.html" target="_top" xlink:title=" ">
<polygon fill="white" stroke="#666666" points="1073,-261 924,-261 924,-242 1073,-242 1073,-261"/>
<text text-anchor="middle" x="998.5" y="-249" font-family="Helvetica,sans-Serif" font-size="10.00">JSystem/JUtility/JUTTexture.h</text>
</a>
</g>
</g>
<!-- Node23&#45;&gt;Node24 -->
<g id="edge41" class="edge">
<title>Node23&#45;&gt;Node24</title>
<path fill="none" stroke="#63b8ff" d="M1012.99,-302.37C1010.68,-294.42 1007.17,-282.33 1004.18,-272.05"/>
<polygon fill="#63b8ff" stroke="#63b8ff" points="1007.59,-271.25 1001.44,-262.62 1000.87,-273.2 1007.59,-271.25"/>
</g>
<!-- Node24&#45;&gt;Node3 -->
<g id="edge44" class="edge">
<title>Node24&#45;&gt;Node3</title>
<path fill="none" stroke="#63b8ff" d="M998.18,-241.74C996.83,-218.41 989.84,-154.27 953.5,-121 919.75,-90.1 867.76,-79.9 828.84,-76.88"/>
<polygon fill="#63b8ff" stroke="#63b8ff" points="829.18,-73.4 818.98,-76.27 828.75,-80.38 829.18,-73.4"/>
</g>
<!-- Node24&#45;&gt;Node13 -->
<g id="edge42" class="edge">
<title>Node24&#45;&gt;Node13</title>
<path fill="none" stroke="#63b8ff" d="M1015.97,-241.51C1031.9,-233.31 1055.69,-221.07 1074.14,-211.58"/>
<polygon fill="#63b8ff" stroke="#63b8ff" points="1075.65,-214.74 1082.94,-207.05 1072.45,-208.51 1075.65,-214.74"/>
</g>
<!-- Node24&#45;&gt;Node14 -->
<g id="edge43" class="edge">
<title>Node24&#45;&gt;Node14</title>
<path fill="none" stroke="#63b8ff" d="M967.8,-241.51C937.8,-232.73 891.95,-219.3 858.77,-209.59"/>
<polygon fill="#63b8ff" stroke="#63b8ff" points="860.09,-206.32 849.5,-206.87 858.12,-213.04 860.09,-206.32"/>
</g>
<!-- Node26&#45;&gt;Node19 -->
<g id="edge52" class="edge">
<title>Node26&#45;&gt;Node19</title>
<path fill="none" stroke="#63b8ff" d="M291.85,-302.12C313.89,-292.49 349.29,-277.04 374.73,-265.93"/>
<polygon fill="#63b8ff" stroke="#63b8ff" points="375.81,-269.28 383.57,-262.07 373,-262.87 375.81,-269.28"/>
</g>
</g>
</svg>
