<?xml version="1.0" encoding="UTF-8" standalone="no"?>
<!DOCTYPE svg PUBLIC "-//W3C//DTD SVG 1.1//EN"
 "http://www.w3.org/Graphics/SVG/1.1/DTD/svg11.dtd">
<!-- Generated by graphviz version 7.0.5 (20221223.1930)
 -->
<!-- Title: libs/JSystem/JParticle/JPAMath.cpp Pages: 1 -->
<svg width="1622pt" height="412pt"
 viewBox="0.00 0.00 1621.50 412.00" xmlns="http://www.w3.org/2000/svg" xmlns:xlink="http://www.w3.org/1999/xlink">
<g id="graph0" class="graph" transform="scale(1 1) rotate(0) translate(4 408)">
<title>libs/JSystem/JParticle/JPAMath.cpp</title>
<!-- Node1 -->
<g id="node1" class="node">
<title>Node1</title>
<g id="a_node1"><a xlink:title=" ">
<polygon fill="#999999" stroke="#666666" points="923,-404 809,-404 809,-374 923,-374 923,-404"/>
<text text-anchor="start" x="817" y="-392" font-family="Helvetica,sans-Serif" font-size="10.00">libs/JSystem/JParticle</text>
<text text-anchor="middle" x="866" y="-381" font-family="Helvetica,sans-Serif" font-size="10.00">/JPAMath.cpp</text>
</a>
</g>
</g>
<!-- Node2 -->
<g id="node2" class="node">
<title>Node2</title>
<g id="a_node2"><a xlink:href="JPAMath_8h.html" target="_top" xlink:title=" ">
<polygon fill="white" stroke="#666666" points="441.5,-327 294.5,-327 294.5,-308 441.5,-308 441.5,-327"/>
<text text-anchor="middle" x="368" y="-315" font-family="Helvetica,sans-Serif" font-size="10.00">JSystem/JParticle/JPAMath.h</text>
</a>
</g>
</g>
<!-- Node1&#45;&gt;Node2 -->
<g id="edge1" class="edge">
<title>Node1&#45;&gt;Node2</title>
<path fill="none" stroke="#63b8ff" d="M808.87,-380.03C718.84,-367.46 543.87,-343.04 443.55,-329.04"/>
<polygon fill="#63b8ff" stroke="#63b8ff" points="444.18,-325.6 433.79,-327.68 443.21,-332.53 444.18,-325.6"/>
</g>
<!-- Node5 -->
<g id="node5" class="node">
<title>Node5</title>
<g id="a_node5"><a xlink:href="types_8h.html" target="_top" xlink:title=" ">
<polygon fill="white" stroke="#666666" points="448.5,-90.5 367.5,-90.5 367.5,-71.5 448.5,-71.5 448.5,-90.5"/>
<text text-anchor="middle" x="408" y="-78.5" font-family="Helvetica,sans-Serif" font-size="10.00">dolphin/types.h</text>
</a>
</g>
</g>
<!-- Node1&#45;&gt;Node5 -->
<g id="edge20" class="edge">
<title>Node1&#45;&gt;Node5</title>
<path fill="none" stroke="#63b8ff" d="M808.62,-386.53C727.03,-383.22 583.2,-372.52 546,-338 517.39,-311.46 526,-291.53 526,-252.5 526,-252.5 526,-252.5 526,-195.5 526,-147.59 474.84,-113.56 439.89,-95.91"/>
<polygon fill="#63b8ff" stroke="#63b8ff" points="441.53,-92.81 431.01,-91.62 438.49,-99.12 441.53,-92.81"/>
</g>
<!-- Node14 -->
<g id="node14" class="node">
<title>Node14</title>
<g id="a_node14"><a xlink:href="dol2asm_8h.html" target="_top" xlink:title=" ">
<polygon fill="white" stroke="#666666" points="615.5,-327 554.5,-327 554.5,-308 615.5,-308 615.5,-327"/>
<text text-anchor="middle" x="585" y="-315" font-family="Helvetica,sans-Serif" font-size="10.00">dol2asm.h</text>
</a>
</g>
</g>
<!-- Node1&#45;&gt;Node14 -->
<g id="edge19" class="edge">
<title>Node1&#45;&gt;Node14</title>
<path fill="none" stroke="#63b8ff" d="M808.94,-380.27C759.42,-372.59 686.26,-358.92 625,-338 620.39,-336.43 615.63,-334.45 611.07,-332.36"/>
<polygon fill="#63b8ff" stroke="#63b8ff" points="612.84,-329.32 602.32,-328.08 609.77,-335.61 612.84,-329.32"/>
</g>
<!-- Node15 -->
<g id="node15" class="node">
<title>Node15</title>
<g id="a_node15"><a xlink:title=" ">
<polygon fill="#e0e0e0" stroke="#999999" points="770.5,-332.5 633.5,-332.5 633.5,-302.5 770.5,-302.5 770.5,-332.5"/>
<text text-anchor="start" x="641.5" y="-320.5" font-family="Helvetica,sans-Serif" font-size="10.00">asm/JSystem/JParticle</text>
<text text-anchor="middle" x="702" y="-309.5" font-family="Helvetica,sans-Serif" font-size="10.00">/JPAMath/func_80280588.s</text>
</a>
</g>
</g>
<!-- Node1&#45;&gt;Node15 -->
<g id="edge21" class="edge">
<title>Node1&#45;&gt;Node15</title>
<path fill="none" stroke="#63b8ff" d="M832.02,-373.6C807.17,-363.07 773.24,-348.69 746.27,-337.26"/>
<polygon fill="#63b8ff" stroke="#63b8ff" points="747.9,-334.15 737.33,-333.47 745.17,-340.6 747.9,-334.15"/>
</g>
<!-- Node16 -->
<g id="node16" class="node">
<title>Node16</title>
<g id="a_node16"><a xlink:title=" ">
<polygon fill="#e0e0e0" stroke="#999999" points="943.5,-338 788.5,-338 788.5,-297 943.5,-297 943.5,-338"/>
<text text-anchor="start" x="796.5" y="-326" font-family="Helvetica,sans-Serif" font-size="10.00">asm/JSystem/JParticle</text>
<text text-anchor="start" x="796.5" y="-315" font-family="Helvetica,sans-Serif" font-size="10.00">/JPAMath/JPAGetYZRotateMtx</text>
<text text-anchor="middle" x="866" y="-304" font-family="Helvetica,sans-Serif" font-size="10.00">__FssPA4_f.s</text>
</a>
</g>
</g>
<!-- Node1&#45;&gt;Node16 -->
<g id="edge22" class="edge">
<title>Node1&#45;&gt;Node16</title>
<path fill="none" stroke="#63b8ff" d="M866,-373.6C866,-366.68 866,-358.1 866,-349.79"/>
<polygon fill="#63b8ff" stroke="#63b8ff" points="869.5,-349.93 866,-339.93 862.5,-349.93 869.5,-349.93"/>
</g>
<!-- Node17 -->
<g id="node17" class="node">
<title>Node17</title>
<g id="a_node17"><a xlink:title=" ">
<polygon fill="#e0e0e0" stroke="#999999" points="1122.5,-338 961.5,-338 961.5,-297 1122.5,-297 1122.5,-338"/>
<text text-anchor="start" x="969.5" y="-326" font-family="Helvetica,sans-Serif" font-size="10.00">asm/JSystem/JParticle</text>
<text text-anchor="start" x="969.5" y="-315" font-family="Helvetica,sans-Serif" font-size="10.00">/JPAMath/JPAGetXYZRotateMtx</text>
<text text-anchor="middle" x="1042" y="-304" font-family="Helvetica,sans-Serif" font-size="10.00">__FsssPA4_f.s</text>
</a>
</g>
</g>
<!-- Node1&#45;&gt;Node17 -->
<g id="edge23" class="edge">
<title>Node1&#45;&gt;Node17</title>
<path fill="none" stroke="#63b8ff" d="M902.47,-373.6C925.12,-364.65 954.81,-352.93 980.98,-342.6"/>
<polygon fill="#63b8ff" stroke="#63b8ff" points="982.14,-345.9 990.16,-338.97 979.57,-339.39 982.14,-345.9"/>
</g>
<!-- Node18 -->
<g id="node18" class="node">
<title>Node18</title>
<g id="a_node18"><a xlink:title=" ">
<polygon fill="#e0e0e0" stroke="#999999" points="1277.5,-332.5 1140.5,-332.5 1140.5,-302.5 1277.5,-302.5 1277.5,-332.5"/>
<text text-anchor="start" x="1148.5" y="-320.5" font-family="Helvetica,sans-Serif" font-size="10.00">asm/JSystem/JParticle</text>
<text text-anchor="middle" x="1209" y="-309.5" font-family="Helvetica,sans-Serif" font-size="10.00">/JPAMath/func_802807E0.s</text>
</a>
</g>
</g>
<!-- Node1&#45;&gt;Node18 -->
<g id="edge24" class="edge">
<title>Node1&#45;&gt;Node18</title>
<path fill="none" stroke="#63b8ff" d="M923.29,-378.29C977.3,-368.89 1060.41,-353.78 1132,-338 1135.5,-337.23 1139.09,-336.41 1142.7,-335.57"/>
<polygon fill="#63b8ff" stroke="#63b8ff" points="1143.19,-339.05 1152.11,-333.32 1141.57,-332.24 1143.19,-339.05"/>
</g>
<!-- Node19 -->
<g id="node19" class="node">
<title>Node19</title>
<g id="a_node19"><a xlink:title=" ">
<polygon fill="#e0e0e0" stroke="#999999" points="1432.5,-332.5 1295.5,-332.5 1295.5,-302.5 1432.5,-302.5 1432.5,-332.5"/>
<text text-anchor="start" x="1303.5" y="-320.5" font-family="Helvetica,sans-Serif" font-size="10.00">asm/JSystem/JParticle</text>
<text text-anchor="middle" x="1364" y="-309.5" font-family="Helvetica,sans-Serif" font-size="10.00">/JPAMath/func_80280808.s</text>
</a>
</g>
</g>
<!-- Node1&#45;&gt;Node19 -->
<g id="edge25" class="edge">
<title>Node1&#45;&gt;Node19</title>
<path fill="none" stroke="#63b8ff" d="M923.21,-383.58C1004.53,-376.75 1157.99,-361.89 1287,-338 1291.11,-337.24 1295.32,-336.39 1299.55,-335.47"/>
<polygon fill="#63b8ff" stroke="#63b8ff" points="1300.31,-338.89 1309.29,-333.27 1298.76,-332.06 1300.31,-338.89"/>
</g>
<!-- Node20 -->
<g id="node20" class="node">
<title>Node20</title>
<g id="a_node20"><a xlink:title=" ">
<polygon fill="#e0e0e0" stroke="#999999" points="1613.5,-338 1450.5,-338 1450.5,-297 1613.5,-297 1613.5,-338"/>
<text text-anchor="start" x="1458.5" y="-326" font-family="Helvetica,sans-Serif" font-size="10.00">asm/JSystem/JParticle</text>
<text text-anchor="start" x="1458.5" y="-315" font-family="Helvetica,sans-Serif" font-size="10.00">/JPAMath/JPACalcKeyAnmValue</text>
<text text-anchor="middle" x="1532" y="-304" font-family="Helvetica,sans-Serif" font-size="10.00">__FfUsPCf.s</text>
</a>
</g>
</g>
<!-- Node1&#45;&gt;Node20 -->
<g id="edge26" class="edge">
<title>Node1&#45;&gt;Node20</title>
<path fill="none" stroke="#63b8ff" d="M923.1,-385.45C1024.91,-380.37 1244.6,-367.05 1438.88,-338.38"/>
<polygon fill="#63b8ff" stroke="#63b8ff" points="1439.3,-341.86 1448.67,-336.92 1438.26,-334.93 1439.3,-341.86"/>
</g>
<!-- Node3 -->
<g id="node3" class="node">
<title>Node3</title>
<g id="a_node3"><a xlink:href="mtx_8h.html" target="_top" xlink:title=" ">
<polygon fill="white" stroke="#666666" points="414,-261 322,-261 322,-242 414,-242 414,-261"/>
<text text-anchor="middle" x="368" y="-249" font-family="Helvetica,sans-Serif" font-size="10.00">dolphin/mtx/mtx.h</text>
</a>
</g>
</g>
<!-- Node2&#45;&gt;Node3 -->
<g id="edge2" class="edge">
<title>Node2&#45;&gt;Node3</title>
<path fill="none" stroke="#63b8ff" d="M368,-307.6C368,-298.62 368,-284.45 368,-272.72"/>
<polygon fill="#63b8ff" stroke="#63b8ff" points="371.5,-272.84 368,-262.84 364.5,-272.84 371.5,-272.84"/>
</g>
<!-- Node9 -->
<g id="node9" class="node">
<title>Node9</title>
<g id="a_node9"><a xlink:href="JGeometry_8h.html" target="_top" xlink:title=" ">
<polygon fill="white" stroke="#666666" points="186.5,-206 73.5,-206 73.5,-187 186.5,-187 186.5,-206"/>
<text text-anchor="middle" x="130" y="-194" font-family="Helvetica,sans-Serif" font-size="10.00">JSystem/JGeometry.h</text>
</a>
</g>
</g>
<!-- Node2&#45;&gt;Node9 -->
<g id="edge11" class="edge">
<title>Node2&#45;&gt;Node9</title>
<path fill="none" stroke="#63b8ff" d="M350.11,-307.56C309.01,-287 207.55,-236.28 158.06,-211.53"/>
<polygon fill="#63b8ff" stroke="#63b8ff" points="159.63,-208.4 149.13,-207.06 156.5,-214.67 159.63,-208.4"/>
</g>
<!-- Node4 -->
<g id="node4" class="node">
<title>Node4</title>
<g id="a_node4"><a xlink:href="mtx44_8h.html" target="_top" xlink:title=" ">
<polygon fill="white" stroke="#666666" points="459.5,-206 356.5,-206 356.5,-187 459.5,-187 459.5,-206"/>
<text text-anchor="middle" x="408" y="-194" font-family="Helvetica,sans-Serif" font-size="10.00">dolphin/mtx/mtx44.h</text>
</a>
</g>
</g>
<!-- Node3&#45;&gt;Node4 -->
<g id="edge3" class="edge">
<title>Node3&#45;&gt;Node4</title>
<path fill="none" stroke="#63b8ff" d="M374.61,-241.75C379.96,-234.66 387.68,-224.42 394.35,-215.59"/>
<polygon fill="#63b8ff" stroke="#63b8ff" points="397.11,-217.74 400.34,-207.65 391.52,-213.52 397.11,-217.74"/>
</g>
<!-- Node3&#45;&gt;Node5 -->
<g id="edge10" class="edge">
<title>Node3&#45;&gt;Node5</title>
<path fill="none" stroke="#63b8ff" d="M414.42,-241.92C434.79,-235.59 456.81,-224.7 469,-206 492.68,-169.69 452.54,-122.86 426.88,-98.45"/>
<polygon fill="#63b8ff" stroke="#63b8ff" points="429.39,-96 419.65,-91.83 424.66,-101.16 429.39,-96"/>
</g>
<!-- Node7 -->
<g id="node7" class="node">
<title>Node7</title>
<g id="a_node7"><a xlink:href="quat_8h.html" target="_top" xlink:title=" ">
<polygon fill="white" stroke="#666666" points="299.5,-206 204.5,-206 204.5,-187 299.5,-187 299.5,-206"/>
<text text-anchor="middle" x="252" y="-194" font-family="Helvetica,sans-Serif" font-size="10.00">dolphin/mtx/quat.h</text>
</a>
</g>
</g>
<!-- Node3&#45;&gt;Node7 -->
<g id="edge6" class="edge">
<title>Node3&#45;&gt;Node7</title>
<path fill="none" stroke="#63b8ff" d="M348.32,-241.51C330.05,-233.16 302.59,-220.61 281.65,-211.05"/>
<polygon fill="#63b8ff" stroke="#63b8ff" points="283.31,-207.96 272.76,-206.99 280.4,-214.33 283.31,-207.96"/>
</g>
<!-- Node8 -->
<g id="node8" class="node">
<title>Node8</title>
<g id="a_node8"><a xlink:href="vec_8h.html" target="_top" xlink:title=" ">
<polygon fill="white" stroke="#666666" points="367,-151 275,-151 275,-132 367,-132 367,-151"/>
<text text-anchor="middle" x="321" y="-139" font-family="Helvetica,sans-Serif" font-size="10.00">dolphin/mtx/vec.h</text>
</a>
</g>
</g>
<!-- Node3&#45;&gt;Node8 -->
<g id="edge9" class="edge">
<title>Node3&#45;&gt;Node8</title>
<path fill="none" stroke="#63b8ff" d="M363.96,-241.66C359.88,-232.7 353.43,-218.42 348,-206 341.53,-191.19 334.38,-174.36 329.06,-161.75"/>
<polygon fill="#63b8ff" stroke="#63b8ff" points="332.3,-160.41 325.2,-152.55 325.85,-163.12 332.3,-160.41"/>
</g>
<!-- Node4&#45;&gt;Node5 -->
<g id="edge4" class="edge">
<title>Node4&#45;&gt;Node5</title>
<path fill="none" stroke="#63b8ff" d="M408,-186.59C408,-168.53 408,-127.17 408,-102.21"/>
<polygon fill="#63b8ff" stroke="#63b8ff" points="411.5,-102.38 408,-92.38 404.5,-102.38 411.5,-102.38"/>
</g>
<!-- Node6 -->
<g id="node6" class="node">
<title>Node6</title>
<g id="a_node6"><a xlink:href="stddef_8h.html" target="_top" xlink:title=" ">
<polygon fill="white" stroke="#666666" points="476,-30 340,-30 340,0 476,0 476,-30"/>
<text text-anchor="start" x="348" y="-18" font-family="Helvetica,sans-Serif" font-size="10.00">MSL_C/MSL_Common/Src</text>
<text text-anchor="middle" x="408" y="-7" font-family="Helvetica,sans-Serif" font-size="10.00">/stddef.h</text>
</a>
</g>
</g>
<!-- Node5&#45;&gt;Node6 -->
<g id="edge5" class="edge">
<title>Node5&#45;&gt;Node6</title>
<path fill="none" stroke="#63b8ff" d="M408,-71.1C408,-63.41 408,-51.92 408,-41.42"/>
<polygon fill="#63b8ff" stroke="#63b8ff" points="411.5,-41.75 408,-31.75 404.5,-41.75 411.5,-41.75"/>
</g>
<!-- Node7&#45;&gt;Node8 -->
<g id="edge7" class="edge">
<title>Node7&#45;&gt;Node8</title>
<path fill="none" stroke="#63b8ff" d="M263.7,-186.51C273.78,-178.77 288.54,-167.43 300.56,-158.2"/>
<polygon fill="#63b8ff" stroke="#63b8ff" points="302.47,-161.15 308.27,-152.28 298.21,-155.6 302.47,-161.15"/>
</g>
<!-- Node8&#45;&gt;Node5 -->
<g id="edge8" class="edge">
<title>Node8&#45;&gt;Node5</title>
<path fill="none" stroke="#63b8ff" d="M334.21,-131.62C347.75,-122.51 369.07,-108.18 385.32,-97.25"/>
<polygon fill="#63b8ff" stroke="#63b8ff" points="387.06,-100.3 393.41,-91.81 383.15,-94.49 387.06,-100.3"/>
</g>
<!-- Node9&#45;&gt;Node5 -->
<g id="edge13" class="edge">
<title>Node9&#45;&gt;Node5</title>
<path fill="none" stroke="#63b8ff" d="M147.79,-186.51C173.53,-173.65 222.82,-149.63 266,-132 300.39,-117.96 340.37,-104.09 369.12,-94.54"/>
<polygon fill="#63b8ff" stroke="#63b8ff" points="370.1,-97.9 378.51,-91.45 367.91,-91.25 370.1,-97.9"/>
</g>
<!-- Node9&#45;&gt;Node8 -->
<g id="edge12" class="edge">
<title>Node9&#45;&gt;Node8</title>
<path fill="none" stroke="#63b8ff" d="M162.4,-186.51C194.19,-177.69 242.86,-164.18 277.9,-154.46"/>
<polygon fill="#63b8ff" stroke="#63b8ff" points="278.6,-157.9 287.3,-151.85 276.73,-151.15 278.6,-157.9"/>
</g>
<!-- Node10 -->
<g id="node10" class="node">
<title>Node10</title>
<g id="a_node10"><a xlink:href="float_8h.html" target="_top" xlink:title=" ">
<polygon fill="white" stroke="#666666" points="78,-151 0,-151 0,-132 78,-132 78,-151"/>
<text text-anchor="middle" x="39" y="-139" font-family="Helvetica,sans-Serif" font-size="10.00">MSL_C/float.h</text>
</a>
</g>
</g>
<!-- Node9&#45;&gt;Node10 -->
<g id="edge14" class="edge">
<title>Node9&#45;&gt;Node10</title>
<path fill="none" stroke="#63b8ff" d="M114.56,-186.51C100.75,-178.47 80.25,-166.53 64.09,-157.11"/>
<polygon fill="#63b8ff" stroke="#63b8ff" points="65.92,-154.13 55.52,-152.12 62.4,-160.18 65.92,-154.13"/>
</g>
<!-- Node13 -->
<g id="node13" class="node">
<title>Node13</title>
<g id="a_node13"><a xlink:href="math_8h.html" target="_top" xlink:title=" ">
<polygon fill="white" stroke="#666666" points="178,-151 96,-151 96,-132 178,-132 178,-151"/>
<text text-anchor="middle" x="137" y="-139" font-family="Helvetica,sans-Serif" font-size="10.00">MSL_C/math.h</text>
</a>
</g>
</g>
<!-- Node9&#45;&gt;Node13 -->
<g id="edge17" class="edge">
<title>Node9&#45;&gt;Node13</title>
<path fill="none" stroke="#63b8ff" d="M131.16,-186.75C132.02,-180.19 133.24,-170.95 134.34,-162.6"/>
<polygon fill="#63b8ff" stroke="#63b8ff" points="137.78,-163.31 135.62,-152.94 130.84,-162.4 137.78,-163.31"/>
</g>
<!-- Node11 -->
<g id="node11" class="node">
<title>Node11</title>
<g id="a_node11"><a xlink:href="MSL__Common_2Src_2float_8h.html" target="_top" xlink:title=" ">
<polygon fill="white" stroke="#666666" points="156,-96 20,-96 20,-66 156,-66 156,-96"/>
<text text-anchor="start" x="28" y="-84" font-family="Helvetica,sans-Serif" font-size="10.00">MSL_C/MSL_Common/Src</text>
<text text-anchor="middle" x="88" y="-73" font-family="Helvetica,sans-Serif" font-size="10.00">/float.h</text>
</a>
</g>
</g>
<!-- Node10&#45;&gt;Node11 -->
<g id="edge15" class="edge">
<title>Node10&#45;&gt;Node11</title>
<path fill="none" stroke="#63b8ff" d="M46.23,-131.87C52.2,-124.74 60.96,-114.28 68.91,-104.79"/>
<polygon fill="#63b8ff" stroke="#63b8ff" points="71.47,-107.19 75.21,-97.27 66.1,-102.69 71.47,-107.19"/>
</g>
<!-- Node12 -->
<g id="node12" class="node">
<title>Node12</title>
<g id="a_node12"><a xlink:href="fdlibm_8h.html" target="_top" xlink:title=" ">
<polygon fill="white" stroke="#666666" points="113,-24.5 63,-24.5 63,-5.5 113,-5.5 113,-24.5"/>
<text text-anchor="middle" x="88" y="-12.5" font-family="Helvetica,sans-Serif" font-size="10.00">fdlibm.h</text>
</a>
</g>
</g>
<!-- Node11&#45;&gt;Node12 -->
<g id="edge16" class="edge">
<title>Node11&#45;&gt;Node12</title>
<path fill="none" stroke="#63b8ff" d="M88,-65.8C88,-57.09 88,-45.81 88,-36.18"/>
<polygon fill="#63b8ff" stroke="#63b8ff" points="91.5,-36.36 88,-26.36 84.5,-36.36 91.5,-36.36"/>
</g>
<!-- Node13&#45;&gt;Node11 -->
<g id="edge18" class="edge">
<title>Node13&#45;&gt;Node11</title>
<path fill="none" stroke="#63b8ff" d="M129.77,-131.87C123.8,-124.74 115.04,-114.28 107.09,-104.79"/>
<polygon fill="#63b8ff" stroke="#63b8ff" points="109.9,-102.69 100.79,-97.27 104.53,-107.19 109.9,-102.69"/>
</g>
</g>
</svg>
