<?xml version="1.0" encoding="UTF-8" standalone="no"?>
<!DOCTYPE svg PUBLIC "-//W3C//DTD SVG 1.1//EN"
 "http://www.w3.org/Graphics/SVG/1.1/DTD/svg11.dtd">
<!-- Generated by graphviz version 7.0.5 (20221223.1930)
 -->
<!-- Title: include/JSystem/JUtility/JUTAssert.h Pages: 1 -->
<svg width="2789pt" height="379pt"
 viewBox="0.00 0.00 2789.00 379.00" xmlns="http://www.w3.org/2000/svg" xmlns:xlink="http://www.w3.org/1999/xlink">
<g id="graph0" class="graph" transform="scale(1 1) rotate(0) translate(4 375)">
<title>include/JSystem/JUtility/JUTAssert.h</title>
<!-- Node1 -->
<g id="node1" class="node">
<title>Node1</title>
<g id="a_node1"><a xlink:title=" ">
<polygon fill="#999999" stroke="#666666" points="2409,-371 2287,-371 2287,-341 2409,-341 2409,-371"/>
<text text-anchor="start" x="2295" y="-359" font-family="Helvetica,sans-Serif" font-size="10.00">include/JSystem/JUtility</text>
<text text-anchor="middle" x="2348" y="-348" font-family="Helvetica,sans-Serif" font-size="10.00">/JUTAssert.h</text>
</a>
</g>
</g>
<!-- Node2 -->
<g id="node2" class="node">
<title>Node2</title>
<g id="a_node2"><a xlink:href="JAISoundHandles_8h.html" target="_top" xlink:title=" ">
<polygon fill="white" stroke="#666666" points="1999.5,-305 1872.5,-305 1872.5,-275 1999.5,-275 1999.5,-305"/>
<text text-anchor="start" x="1880.5" y="-293" font-family="Helvetica,sans-Serif" font-size="10.00">include/JSystem/JAudio2</text>
<text text-anchor="middle" x="1936" y="-282" font-family="Helvetica,sans-Serif" font-size="10.00">/JAISoundHandles.h</text>
</a>
</g>
</g>
<!-- Node1&#45;&gt;Node2 -->
<g id="edge1" class="edge">
<title>Node1&#45;&gt;Node2</title>
<path fill="none" stroke="#63b8ff" d="M2275.51,-345.23C2206.77,-335.75 2100.68,-320.54 2009,-305 2005.95,-304.48 2002.82,-303.94 1999.67,-303.38"/>
<polygon fill="#63b8ff" stroke="#63b8ff" points="2274.75,-348.66 2285.13,-346.55 2275.7,-341.72 2274.75,-348.66"/>
</g>
<!-- Node370 -->
<g id="node45" class="node">
<title>Node370</title>
<g id="a_node45"><a xlink:href="JFWDisplay_8cpp.html" target="_top" xlink:title=" ">
<polygon fill="white" stroke="#666666" points="2148,-305 2018,-305 2018,-275 2148,-275 2148,-305"/>
<text text-anchor="start" x="2026" y="-293" font-family="Helvetica,sans-Serif" font-size="10.00">libs/JSystem/JFramework</text>
<text text-anchor="middle" x="2083" y="-282" font-family="Helvetica,sans-Serif" font-size="10.00">/JFWDisplay.cpp</text>
</a>
</g>
</g>
<!-- Node1&#45;&gt;Node370 -->
<g id="edge56" class="edge">
<title>Node1&#45;&gt;Node370</title>
<path fill="none" stroke="#63b8ff" d="M2277.2,-337.9C2235.17,-327.75 2182.48,-315.02 2142.58,-305.39"/>
<polygon fill="#63b8ff" stroke="#63b8ff" points="2276.18,-341.26 2286.73,-340.2 2277.83,-334.45 2276.18,-341.26"/>
</g>
<!-- Node371 -->
<g id="node46" class="node">
<title>Node371</title>
<g id="a_node46"><a xlink:href="JKRDvdFile_8cpp.html" target="_top" xlink:title=" ">
<polygon fill="white" stroke="#666666" points="2275.5,-305 2166.5,-305 2166.5,-275 2275.5,-275 2275.5,-305"/>
<text text-anchor="start" x="2174.5" y="-293" font-family="Helvetica,sans-Serif" font-size="10.00">libs/JSystem/JKernel</text>
<text text-anchor="middle" x="2221" y="-282" font-family="Helvetica,sans-Serif" font-size="10.00">/JKRDvdFile.cpp</text>
</a>
</g>
</g>
<!-- Node1&#45;&gt;Node371 -->
<g id="edge57" class="edge">
<title>Node1&#45;&gt;Node371</title>
<path fill="none" stroke="#63b8ff" d="M2309.48,-335.59C2290.14,-325.84 2267.12,-314.24 2249.41,-305.31"/>
<polygon fill="#63b8ff" stroke="#63b8ff" points="2307.64,-338.58 2318.15,-339.96 2310.79,-332.33 2307.64,-338.58"/>
</g>
<!-- Node372 -->
<g id="node47" class="node">
<title>Node372</title>
<g id="a_node47"><a xlink:href="JKRHeap_8cpp.html" target="_top" xlink:title=" ">
<polygon fill="white" stroke="#666666" points="2402.5,-305 2293.5,-305 2293.5,-275 2402.5,-275 2402.5,-305"/>
<text text-anchor="start" x="2301.5" y="-293" font-family="Helvetica,sans-Serif" font-size="10.00">libs/JSystem/JKernel</text>
<text text-anchor="middle" x="2348" y="-282" font-family="Helvetica,sans-Serif" font-size="10.00">/JKRHeap.cpp</text>
</a>
</g>
</g>
<!-- Node1&#45;&gt;Node372 -->
<g id="edge58" class="edge">
<title>Node1&#45;&gt;Node372</title>
<path fill="none" stroke="#63b8ff" d="M2348,-329.39C2348,-321.13 2348,-312.28 2348,-305.16"/>
<polygon fill="#63b8ff" stroke="#63b8ff" points="2344.5,-329.28 2348,-339.28 2351.5,-329.28 2344.5,-329.28"/>
</g>
<!-- Node373 -->
<g id="node48" class="node">
<title>Node373</title>
<g id="a_node48"><a xlink:href="JKRSolidHeap_8cpp.html" target="_top" xlink:title=" ">
<polygon fill="white" stroke="#666666" points="2529.5,-305 2420.5,-305 2420.5,-275 2529.5,-275 2529.5,-305"/>
<text text-anchor="start" x="2428.5" y="-293" font-family="Helvetica,sans-Serif" font-size="10.00">libs/JSystem/JKernel</text>
<text text-anchor="middle" x="2475" y="-282" font-family="Helvetica,sans-Serif" font-size="10.00">/JKRSolidHeap.cpp</text>
</a>
</g>
</g>
<!-- Node1&#45;&gt;Node373 -->
<g id="edge59" class="edge">
<title>Node1&#45;&gt;Node373</title>
<path fill="none" stroke="#63b8ff" d="M2386.52,-335.59C2405.86,-325.84 2428.88,-314.24 2446.59,-305.31"/>
<polygon fill="#63b8ff" stroke="#63b8ff" points="2385.21,-332.33 2377.85,-339.96 2388.36,-338.58 2385.21,-332.33"/>
</g>
<!-- Node374 -->
<g id="node49" class="node">
<title>Node374</title>
<g id="a_node49"><a xlink:href="JKRThread_8cpp.html" target="_top" xlink:title=" ">
<polygon fill="white" stroke="#666666" points="2656.5,-305 2547.5,-305 2547.5,-275 2656.5,-275 2656.5,-305"/>
<text text-anchor="start" x="2555.5" y="-293" font-family="Helvetica,sans-Serif" font-size="10.00">libs/JSystem/JKernel</text>
<text text-anchor="middle" x="2602" y="-282" font-family="Helvetica,sans-Serif" font-size="10.00">/JKRThread.cpp</text>
</a>
</g>
</g>
<!-- Node1&#45;&gt;Node374 -->
<g id="edge60" class="edge">
<title>Node1&#45;&gt;Node374</title>
<path fill="none" stroke="#63b8ff" d="M2416.31,-337.79C2457.29,-327.46 2508.73,-314.5 2547.07,-304.84"/>
<polygon fill="#63b8ff" stroke="#63b8ff" points="2415.63,-334.35 2406.79,-340.19 2417.34,-341.14 2415.63,-334.35"/>
</g>
<!-- Node375 -->
<g id="node50" class="node">
<title>Node375</title>
<g id="a_node50"><a xlink:href="JUTAssert_8cpp.html" target="_top" xlink:title=" ">
<polygon fill="white" stroke="#666666" points="2781,-305 2675,-305 2675,-275 2781,-275 2781,-305"/>
<text text-anchor="start" x="2683" y="-293" font-family="Helvetica,sans-Serif" font-size="10.00">libs/JSystem/JUtility</text>
<text text-anchor="middle" x="2728" y="-282" font-family="Helvetica,sans-Serif" font-size="10.00">/JUTAssert.cpp</text>
</a>
</g>
</g>
<!-- Node1&#45;&gt;Node375 -->
<g id="edge61" class="edge">
<title>Node1&#45;&gt;Node375</title>
<path fill="none" stroke="#63b8ff" d="M2420.75,-344.96C2485.35,-335.71 2582.24,-321.02 2666,-305 2668.82,-304.46 2671.7,-303.89 2674.61,-303.29"/>
<polygon fill="#63b8ff" stroke="#63b8ff" points="2420.37,-341.48 2410.97,-346.35 2421.36,-348.41 2420.37,-341.48"/>
</g>
<!-- Node3 -->
<g id="node3" class="node">
<title>Node3</title>
<g id="a_node3"><a xlink:href="JStudio_2JStudio__JAudio2_2control_8h.html" target="_top" xlink:title=" ">
<polygon fill="white" stroke="#666666" points="419.5,-239 286.5,-239 286.5,-209 419.5,-209 419.5,-239"/>
<text text-anchor="start" x="294.5" y="-227" font-family="Helvetica,sans-Serif" font-size="10.00">include/JSystem/JStudio</text>
<text text-anchor="middle" x="353" y="-216" font-family="Helvetica,sans-Serif" font-size="10.00">/JStudio_JAudio2/control.h</text>
</a>
</g>
</g>
<!-- Node2&#45;&gt;Node3 -->
<g id="edge2" class="edge">
<title>Node2&#45;&gt;Node3</title>
<path fill="none" stroke="#63b8ff" d="M1861.29,-285.98C1592.24,-275.1 675.26,-238.03 419.64,-227.69"/>
<polygon fill="#63b8ff" stroke="#63b8ff" points="1860.83,-289.46 1870.96,-286.37 1861.11,-282.47 1860.83,-289.46"/>
</g>
<!-- Node14 -->
<g id="node14" class="node">
<title>Node14</title>
<g id="a_node14"><a xlink:href="Z2SeMgr_8h.html" target="_top" xlink:title=" ">
<polygon fill="white" stroke="#666666" points="1156,-239 1056,-239 1056,-209 1156,-209 1156,-239"/>
<text text-anchor="start" x="1064" y="-227" font-family="Helvetica,sans-Serif" font-size="10.00">include/Z2AudioLib</text>
<text text-anchor="middle" x="1106" y="-216" font-family="Helvetica,sans-Serif" font-size="10.00">/Z2SeMgr.h</text>
</a>
</g>
</g>
<!-- Node2&#45;&gt;Node14 -->
<g id="edge13" class="edge">
<title>Node2&#45;&gt;Node14</title>
<path fill="none" stroke="#63b8ff" d="M1861.14,-283.23C1694.6,-270.39 1297.09,-239.73 1156.4,-228.89"/>
<polygon fill="#63b8ff" stroke="#63b8ff" points="1860.5,-286.69 1870.74,-283.97 1861.04,-279.71 1860.5,-286.69"/>
</g>
<!-- Node356 -->
<g id="node32" class="node">
<title>Node356</title>
<g id="a_node32"><a xlink:href="Z2SeqMgr_8h.html" target="_top" xlink:title=" ">
<polygon fill="white" stroke="#666666" points="1652,-239 1552,-239 1552,-209 1652,-209 1652,-239"/>
<text text-anchor="start" x="1560" y="-227" font-family="Helvetica,sans-Serif" font-size="10.00">include/Z2AudioLib</text>
<text text-anchor="middle" x="1602" y="-216" font-family="Helvetica,sans-Serif" font-size="10.00">/Z2SeqMgr.h</text>
</a>
</g>
</g>
<!-- Node2&#45;&gt;Node356 -->
<g id="edge37" class="edge">
<title>Node2&#45;&gt;Node356</title>
<path fill="none" stroke="#63b8ff" d="M1861.21,-274.67C1797.51,-262.46 1707.74,-245.26 1652.29,-234.64"/>
<polygon fill="#63b8ff" stroke="#63b8ff" points="1860.42,-278.08 1870.9,-276.53 1861.74,-271.21 1860.42,-278.08"/>
</g>
<!-- Node359 -->
<g id="node35" class="node">
<title>Node359</title>
<g id="a_node35"><a xlink:href="Z2SoundHandles_8h.html" target="_top" xlink:title=" ">
<polygon fill="white" stroke="#666666" points="1987,-239 1885,-239 1885,-209 1987,-209 1987,-239"/>
<text text-anchor="start" x="1893" y="-227" font-family="Helvetica,sans-Serif" font-size="10.00">include/Z2AudioLib</text>
<text text-anchor="middle" x="1936" y="-216" font-family="Helvetica,sans-Serif" font-size="10.00">/Z2SoundHandles.h</text>
</a>
</g>
</g>
<!-- Node2&#45;&gt;Node359 -->
<g id="edge43" class="edge">
<title>Node2&#45;&gt;Node359</title>
<path fill="none" stroke="#63b8ff" d="M1936,-263.39C1936,-255.13 1936,-246.28 1936,-239.16"/>
<polygon fill="#63b8ff" stroke="#63b8ff" points="1932.5,-263.28 1936,-273.28 1939.5,-263.28 1932.5,-263.28"/>
</g>
<!-- Node364 -->
<g id="node38" class="node">
<title>Node364</title>
<g id="a_node38"><a xlink:href="Z2SpeechMgr2_8h.html" target="_top" xlink:title=" ">
<polygon fill="white" stroke="#666666" points="1867,-239 1767,-239 1767,-209 1867,-209 1867,-239"/>
<text text-anchor="start" x="1775" y="-227" font-family="Helvetica,sans-Serif" font-size="10.00">include/Z2AudioLib</text>
<text text-anchor="middle" x="1817" y="-216" font-family="Helvetica,sans-Serif" font-size="10.00">/Z2SpeechMgr2.h</text>
</a>
</g>
</g>
<!-- Node2&#45;&gt;Node364 -->
<g id="edge46" class="edge">
<title>Node2&#45;&gt;Node364</title>
<path fill="none" stroke="#63b8ff" d="M1899.4,-269.32C1881.38,-259.63 1860.06,-248.16 1843.62,-239.31"/>
<polygon fill="#63b8ff" stroke="#63b8ff" points="1897.5,-272.27 1907.96,-273.92 1900.81,-266.1 1897.5,-272.27"/>
</g>
<!-- Node366 -->
<g id="node40" class="node">
<title>Node366</title>
<g id="a_node40"><a xlink:href="Z2WolfHowlMgr_8h.html" target="_top" xlink:title=" ">
<polygon fill="white" stroke="#666666" points="2403,-167.5 2303,-167.5 2303,-137.5 2403,-137.5 2403,-167.5"/>
<text text-anchor="start" x="2311" y="-155.5" font-family="Helvetica,sans-Serif" font-size="10.00">include/Z2AudioLib</text>
<text text-anchor="middle" x="2353" y="-144.5" font-family="Helvetica,sans-Serif" font-size="10.00">/Z2WolfHowlMgr.h</text>
</a>
</g>
</g>
<!-- Node2&#45;&gt;Node366 -->
<g id="edge49" class="edge">
<title>Node2&#45;&gt;Node366</title>
<path fill="none" stroke="#63b8ff" d="M1961.62,-267.73C1989.52,-244.66 2030.75,-210.84 2035,-209 2141.64,-162.79 2180.81,-199.34 2294,-173 2300.09,-171.58 2306.46,-169.81 2312.65,-167.91"/>
<polygon fill="#63b8ff" stroke="#63b8ff" points="1959.74,-264.75 1954.27,-273.82 1964.2,-270.14 1959.74,-264.75"/>
</g>
<!-- Node367 -->
<g id="node42" class="node">
<title>Node367</title>
<g id="a_node42"><a xlink:href="JAISeMgr_8cpp.html" target="_top" xlink:title=" ">
<polygon fill="white" stroke="#666666" points="2154.5,-239 2043.5,-239 2043.5,-209 2154.5,-209 2154.5,-239"/>
<text text-anchor="start" x="2051.5" y="-227" font-family="Helvetica,sans-Serif" font-size="10.00">libs/JSystem/JAudio2</text>
<text text-anchor="middle" x="2099" y="-216" font-family="Helvetica,sans-Serif" font-size="10.00">/JAISeMgr.cpp</text>
</a>
</g>
</g>
<!-- Node2&#45;&gt;Node367 -->
<g id="edge53" class="edge">
<title>Node2&#45;&gt;Node367</title>
<path fill="none" stroke="#63b8ff" d="M1983.02,-270.54C2008.22,-260.64 2038.82,-248.63 2062.26,-239.43"/>
<polygon fill="#63b8ff" stroke="#63b8ff" points="1982.02,-267.17 1973.99,-274.08 1984.58,-273.69 1982.02,-267.17"/>
</g>
<!-- Node368 -->
<g id="node43" class="node">
<title>Node368</title>
<g id="a_node43"><a xlink:href="JAISound_8cpp.html" target="_top" xlink:title=" ">
<polygon fill="white" stroke="#666666" points="2283.5,-239 2172.5,-239 2172.5,-209 2283.5,-209 2283.5,-239"/>
<text text-anchor="start" x="2180.5" y="-227" font-family="Helvetica,sans-Serif" font-size="10.00">libs/JSystem/JAudio2</text>
<text text-anchor="middle" x="2228" y="-216" font-family="Helvetica,sans-Serif" font-size="10.00">/JAISound.cpp</text>
</a>
</g>
</g>
<!-- Node2&#45;&gt;Node368 -->
<g id="edge54" class="edge">
<title>Node2&#45;&gt;Node368</title>
<path fill="none" stroke="#63b8ff" d="M2010.87,-272.59C2061.22,-261.55 2126.51,-247.24 2172.29,-237.21"/>
<polygon fill="#63b8ff" stroke="#63b8ff" points="2010.22,-269.15 2001.2,-274.71 2011.72,-275.99 2010.22,-269.15"/>
</g>
<!-- Node369 -->
<g id="node44" class="node">
<title>Node369</title>
<g id="a_node44"><a xlink:href="JAISoundHandles_8cpp.html" target="_top" xlink:title=" ">
<polygon fill="white" stroke="#666666" points="2418,-239 2302,-239 2302,-209 2418,-209 2418,-239"/>
<text text-anchor="start" x="2310" y="-227" font-family="Helvetica,sans-Serif" font-size="10.00">libs/JSystem/JAudio2</text>
<text text-anchor="middle" x="2360" y="-216" font-family="Helvetica,sans-Serif" font-size="10.00">/JAISoundHandles.cpp</text>
</a>
</g>
</g>
<!-- Node2&#45;&gt;Node369 -->
<g id="edge55" class="edge">
<title>Node2&#45;&gt;Node369</title>
<path fill="none" stroke="#63b8ff" d="M2010.89,-274.78C2136.59,-255.27 2171.07,-259.43 2293,-239 2295.81,-238.53 2298.69,-238.02 2301.59,-237.49"/>
<polygon fill="#63b8ff" stroke="#63b8ff" points="2010.49,-271.3 2001.15,-276.31 2011.58,-278.21 2010.49,-271.3"/>
</g>
<!-- Node4 -->
<g id="node4" class="node">
<title>Node4</title>
<g id="a_node4"><a xlink:href="d__demo_8h.html" target="_top" xlink:title=" ">
<polygon fill="white" stroke="#666666" points="468.5,-162 367.5,-162 367.5,-143 468.5,-143 468.5,-162"/>
<text text-anchor="middle" x="418" y="-150" font-family="Helvetica,sans-Serif" font-size="10.00">include/d/d_demo.h</text>
</a>
</g>
</g>
<!-- Node3&#45;&gt;Node4 -->
<g id="edge3" class="edge">
<title>Node3&#45;&gt;Node4</title>
<path fill="none" stroke="#63b8ff" d="M374.05,-200.49C386.27,-187.43 400.96,-171.72 409.88,-162.18"/>
<polygon fill="#63b8ff" stroke="#63b8ff" points="371.78,-197.8 367.5,-207.49 376.89,-202.58 371.78,-197.8"/>
</g>
<!-- Node12 -->
<g id="node12" class="node">
<title>Node12</title>
<g id="a_node12"><a xlink:href="JStudio_2JStudio__JAudio2_2control_8cpp.html" target="_top" xlink:title=" ">
<polygon fill="white" stroke="#666666" points="208.5,-167.5 65.5,-167.5 65.5,-137.5 208.5,-137.5 208.5,-167.5"/>
<text text-anchor="start" x="73.5" y="-155.5" font-family="Helvetica,sans-Serif" font-size="10.00">libs/JSystem/JStudio</text>
<text text-anchor="middle" x="137" y="-144.5" font-family="Helvetica,sans-Serif" font-size="10.00">/JStudio_JAudio2/control.cpp</text>
</a>
</g>
</g>
<!-- Node3&#45;&gt;Node12 -->
<g id="edge11" class="edge">
<title>Node3&#45;&gt;Node12</title>
<path fill="none" stroke="#63b8ff" d="M297.21,-205.05C261.38,-193.52 215.45,-178.74 181.96,-167.97"/>
<polygon fill="#63b8ff" stroke="#63b8ff" points="295.95,-208.32 306.54,-208.05 298.09,-201.66 295.95,-208.32"/>
</g>
<!-- Node13 -->
<g id="node13" class="node">
<title>Node13</title>
<g id="a_node13"><a xlink:href="object-sound_8cpp.html" target="_top" xlink:title=" ">
<polygon fill="white" stroke="#666666" points="349,-173 227,-173 227,-132 349,-132 349,-173"/>
<text text-anchor="start" x="235" y="-161" font-family="Helvetica,sans-Serif" font-size="10.00">libs/JSystem/JStudio</text>
<text text-anchor="start" x="235" y="-150" font-family="Helvetica,sans-Serif" font-size="10.00">/JStudio_JAudio2/object</text>
<text text-anchor="middle" x="288" y="-139" font-family="Helvetica,sans-Serif" font-size="10.00">&#45;sound.cpp</text>
</a>
</g>
</g>
<!-- Node3&#45;&gt;Node13 -->
<g id="edge12" class="edge">
<title>Node3&#45;&gt;Node13</title>
<path fill="none" stroke="#63b8ff" d="M331.85,-200.39C323.72,-191.69 314.5,-181.84 306.63,-173.42"/>
<polygon fill="#63b8ff" stroke="#63b8ff" points="329.11,-202.58 338.5,-207.49 334.22,-197.8 329.11,-202.58"/>
</g>
<!-- Node5 -->
<g id="node5" class="node">
<title>Node5</title>
<g id="a_node5"><a xlink:href="Z2WolfHowlMgr_8cpp.html" target="_top" xlink:title=" ">
<polygon fill="white" stroke="#666666" points="1859,-96 1719,-96 1719,-66 1859,-66 1859,-96"/>
<text text-anchor="start" x="1727" y="-84" font-family="Helvetica,sans-Serif" font-size="10.00">libs/Z2AudioLib/Z2WolfHowl</text>
<text text-anchor="middle" x="1789" y="-73" font-family="Helvetica,sans-Serif" font-size="10.00">Mgr.cpp</text>
</a>
</g>
</g>
<!-- Node4&#45;&gt;Node5 -->
<g id="edge4" class="edge">
<title>Node4&#45;&gt;Node5</title>
<path fill="none" stroke="#63b8ff" d="M478.14,-140.65C498.93,-137.31 522.43,-133.99 544,-132 1060.27,-84.26 1194.29,-149.37 1710,-96 1712.91,-95.7 1715.87,-95.35 1718.86,-94.97"/>
<polygon fill="#63b8ff" stroke="#63b8ff" points="477.69,-137.18 468.39,-142.26 478.82,-144.09 477.69,-137.18"/>
</g>
<!-- Node6 -->
<g id="node6" class="node">
<title>Node6</title>
<g id="a_node6"><a xlink:href="d__com__static_8cpp.html" target="_top" xlink:title=" ">
<polygon fill="white" stroke="#666666" points="140,-90.5 0,-90.5 0,-71.5 140,-71.5 140,-90.5"/>
<text text-anchor="middle" x="70" y="-78.5" font-family="Helvetica,sans-Serif" font-size="10.00">src/d/com/d_com_static.cpp</text>
</a>
</g>
</g>
<!-- Node4&#45;&gt;Node6 -->
<g id="edge5" class="edge">
<title>Node4&#45;&gt;Node6</title>
<path fill="none" stroke="#63b8ff" d="M382.31,-138.98C374.37,-136.45 365.95,-133.97 358,-132 346.67,-129.19 202.85,-104.59 122.84,-90.97"/>
<polygon fill="#63b8ff" stroke="#63b8ff" points="381.09,-142.26 391.69,-142.06 383.28,-135.61 381.09,-142.26"/>
</g>
<!-- Node7 -->
<g id="node7" class="node">
<title>Node7</title>
<g id="a_node7"><a xlink:href="d__demo_8cpp.html" target="_top" xlink:title=" ">
<polygon fill="white" stroke="#666666" points="290,-90.5 196,-90.5 196,-71.5 290,-71.5 290,-90.5"/>
<text text-anchor="middle" x="243" y="-78.5" font-family="Helvetica,sans-Serif" font-size="10.00">src/d/d_demo.cpp</text>
</a>
</g>
</g>
<!-- Node4&#45;&gt;Node7 -->
<g id="edge6" class="edge">
<title>Node4&#45;&gt;Node7</title>
<path fill="none" stroke="#63b8ff" d="M384.85,-138.34C349.87,-124.44 295.71,-102.93 265.43,-90.91"/>
<polygon fill="#63b8ff" stroke="#63b8ff" points="383.49,-141.56 394.07,-142 386.07,-135.05 383.49,-141.56"/>
</g>
<!-- Node8 -->
<g id="node8" class="node">
<title>Node8</title>
<g id="a_node8"><a xlink:href="d__event_8cpp.html" target="_top" xlink:title=" ">
<polygon fill="white" stroke="#666666" points="1392.5,-24.5 1271.5,-24.5 1271.5,-5.5 1392.5,-5.5 1392.5,-24.5"/>
<text text-anchor="middle" x="1332" y="-12.5" font-family="Helvetica,sans-Serif" font-size="10.00">src/d/event/d_event.cpp</text>
</a>
</g>
</g>
<!-- Node4&#45;&gt;Node8 -->
<g id="edge7" class="edge">
<title>Node4&#45;&gt;Node8</title>
<path fill="none" stroke="#63b8ff" d="M480.15,-141.26C544.46,-130.09 640.15,-111.71 674,-96 693.84,-86.79 692.6,-73.87 713,-66 813.72,-27.15 1135.62,-18.49 1271.05,-16.55"/>
<polygon fill="#63b8ff" stroke="#63b8ff" points="479.68,-137.79 470.42,-142.94 480.86,-144.69 479.68,-137.79"/>
</g>
<!-- Node9 -->
<g id="node9" class="node">
<title>Node9</title>
<g id="a_node9"><a xlink:href="d__meter2_8cpp.html" target="_top" xlink:title=" ">
<polygon fill="white" stroke="#666666" points="436,-90.5 308,-90.5 308,-71.5 436,-71.5 436,-90.5"/>
<text text-anchor="middle" x="372" y="-78.5" font-family="Helvetica,sans-Serif" font-size="10.00">src/d/meter/d_meter2.cpp</text>
</a>
</g>
</g>
<!-- Node4&#45;&gt;Node9 -->
<g id="edge8" class="edge">
<title>Node4&#45;&gt;Node9</title>
<path fill="none" stroke="#63b8ff" d="M405.98,-133.34C396.95,-119.7 384.98,-101.61 377.92,-90.95"/>
<polygon fill="#63b8ff" stroke="#63b8ff" points="402.9,-135.03 411.34,-141.44 408.74,-131.16 402.9,-135.03"/>
</g>
<!-- Node10 -->
<g id="node10" class="node">
<title>Node10</title>
<g id="a_node10"><a xlink:href="d__s__play_8cpp.html" target="_top" xlink:title=" ">
<polygon fill="white" stroke="#666666" points="519,-24.5 413,-24.5 413,-5.5 519,-5.5 519,-24.5"/>
<text text-anchor="middle" x="466" y="-12.5" font-family="Helvetica,sans-Serif" font-size="10.00">src/d/s/d_s_play.cpp</text>
</a>
</g>
</g>
<!-- Node4&#45;&gt;Node10 -->
<g id="edge9" class="edge">
<title>Node4&#45;&gt;Node10</title>
<path fill="none" stroke="#63b8ff" d="M428.34,-132.6C433.82,-122.05 440.35,-108.54 445,-96 454.38,-70.69 461.31,-39.41 464.33,-24.58"/>
<polygon fill="#63b8ff" stroke="#63b8ff" points="425.28,-130.9 423.66,-141.37 431.46,-134.19 425.28,-130.9"/>
</g>
<!-- Node11 -->
<g id="node11" class="node">
<title>Node11</title>
<g id="a_node11"><a xlink:href="f__op__actor_8cpp.html" target="_top" xlink:title=" ">
<polygon fill="white" stroke="#666666" points="312.5,-24.5 193.5,-24.5 193.5,-5.5 312.5,-5.5 312.5,-24.5"/>
<text text-anchor="middle" x="253" y="-12.5" font-family="Helvetica,sans-Serif" font-size="10.00">src/f_op/f_op_actor.cpp</text>
</a>
</g>
</g>
<!-- Node4&#45;&gt;Node11 -->
<g id="edge10" class="edge">
<title>Node4&#45;&gt;Node11</title>
<path fill="none" stroke="#63b8ff" d="M381.56,-138.97C373.83,-136.5 365.68,-134.05 358,-132 282.96,-111.97 235.94,-156.31 187,-96 165.9,-69.99 210.3,-39.55 236.16,-24.84"/>
<polygon fill="#63b8ff" stroke="#63b8ff" points="380.45,-142.29 391.05,-142.07 382.63,-135.64 380.45,-142.29"/>
</g>
<!-- Node14&#45;&gt;Node5 -->
<g id="edge36" class="edge">
<title>Node14&#45;&gt;Node5</title>
<path fill="none" stroke="#63b8ff" d="M1114.56,-197.93C1123.35,-176.42 1139.27,-146.64 1164,-132 1268.63,-70.05 1589.29,-110.63 1710,-96 1712.9,-95.65 1715.86,-95.26 1718.85,-94.84"/>
<polygon fill="#63b8ff" stroke="#63b8ff" points="1111.33,-196.59 1111.04,-207.18 1117.87,-199.08 1111.33,-196.59"/>
</g>
<!-- Node15 -->
<g id="node15" class="node">
<title>Node15</title>
<g id="a_node15"><a xlink:href="Z2AudioMgr_8h.html" target="_top" xlink:title=" ">
<polygon fill="white" stroke="#666666" points="1781,-167.5 1681,-167.5 1681,-137.5 1781,-137.5 1781,-167.5"/>
<text text-anchor="start" x="1689" y="-155.5" font-family="Helvetica,sans-Serif" font-size="10.00">include/Z2AudioLib</text>
<text text-anchor="middle" x="1731" y="-144.5" font-family="Helvetica,sans-Serif" font-size="10.00">/Z2AudioMgr.h</text>
</a>
</g>
</g>
<!-- Node14&#45;&gt;Node15 -->
<g id="edge14" class="edge">
<title>Node14&#45;&gt;Node15</title>
<path fill="none" stroke="#63b8ff" d="M1167.7,-222.08C1272.28,-219.52 1490.58,-209.81 1671,-173 1677.44,-171.69 1684.16,-169.92 1690.67,-167.98"/>
<polygon fill="#63b8ff" stroke="#63b8ff" points="1167.86,-218.58 1157.94,-222.31 1168.02,-225.58 1167.86,-218.58"/>
</g>
<!-- Node350 -->
<g id="node18" class="node">
<title>Node350</title>
<g id="a_node18"><a xlink:href="Z2EnvSeMgr_8h.html" target="_top" xlink:title=" ">
<polygon fill="white" stroke="#666666" points="1117,-167.5 1017,-167.5 1017,-137.5 1117,-137.5 1117,-167.5"/>
<text text-anchor="start" x="1025" y="-155.5" font-family="Helvetica,sans-Serif" font-size="10.00">include/Z2AudioLib</text>
<text text-anchor="middle" x="1067" y="-144.5" font-family="Helvetica,sans-Serif" font-size="10.00">/Z2EnvSeMgr.h</text>
</a>
</g>
</g>
<!-- Node14&#45;&gt;Node350 -->
<g id="edge18" class="edge">
<title>Node14&#45;&gt;Node350</title>
<path fill="none" stroke="#63b8ff" d="M1092.47,-198.88C1086.67,-188.55 1080.09,-176.82 1075.07,-167.88"/>
<polygon fill="#63b8ff" stroke="#63b8ff" points="1089.23,-200.27 1097.18,-207.28 1095.34,-196.85 1089.23,-200.27"/>
</g>
<!-- Node352 -->
<g id="node20" class="node">
<title>Node352</title>
<g id="a_node20"><a xlink:href="d__cc__d_8h.html" target="_top" xlink:title=" ">
<polygon fill="#fff0f0" stroke="red" points="998.5,-162 887.5,-162 887.5,-143 998.5,-143 998.5,-162"/>
<text text-anchor="middle" x="943" y="-150" font-family="Helvetica,sans-Serif" font-size="10.00">include/d/cc/d_cc_d.h</text>
</a>
</g>
</g>
<!-- Node14&#45;&gt;Node352 -->
<g id="edge21" class="edge">
<title>Node14&#45;&gt;Node352</title>
<path fill="none" stroke="#63b8ff" d="M1061.83,-204.17C1029.97,-190.58 988.41,-172.86 963.82,-162.38"/>
<polygon fill="#63b8ff" stroke="#63b8ff" points="1060.26,-207.3 1070.83,-208.01 1063.01,-200.86 1060.26,-207.3"/>
</g>
<!-- Node353 -->
<g id="node29" class="node">
<title>Node353</title>
<g id="a_node29"><a xlink:href="Z2Creature_8cpp.html" target="_top" xlink:title=" ">
<polygon fill="white" stroke="#666666" points="706.5,-162 553.5,-162 553.5,-143 706.5,-143 706.5,-162"/>
<text text-anchor="middle" x="630" y="-150" font-family="Helvetica,sans-Serif" font-size="10.00">libs/Z2AudioLib/Z2Creature.cpp</text>
</a>
</g>
</g>
<!-- Node14&#45;&gt;Node353 -->
<g id="edge33" class="edge">
<title>Node14&#45;&gt;Node353</title>
<path fill="none" stroke="#63b8ff" d="M1044.34,-217.01C967.05,-209.07 830.67,-193.61 715,-173 698.6,-170.08 680.6,-166.07 665.41,-162.44"/>
<polygon fill="#63b8ff" stroke="#63b8ff" points="1043.96,-220.49 1054.26,-218.02 1044.67,-213.52 1043.96,-220.49"/>
</g>
<!-- Node354 -->
<g id="node30" class="node">
<title>Node354</title>
<g id="a_node30"><a xlink:href="Z2SceneMgr_8cpp.html" target="_top" xlink:title=" ">
<polygon fill="white" stroke="#666666" points="1334.5,-162 1173.5,-162 1173.5,-143 1334.5,-143 1334.5,-162"/>
<text text-anchor="middle" x="1254" y="-150" font-family="Helvetica,sans-Serif" font-size="10.00">libs/Z2AudioLib/Z2SceneMgr.cpp</text>
</a>
</g>
</g>
<!-- Node14&#45;&gt;Node354 -->
<g id="edge34" class="edge">
<title>Node14&#45;&gt;Node354</title>
<path fill="none" stroke="#63b8ff" d="M1146.86,-203.81C1175.68,-190.28 1212.97,-172.77 1235.09,-162.38"/>
<polygon fill="#63b8ff" stroke="#63b8ff" points="1145.6,-200.54 1138.04,-207.96 1148.58,-206.87 1145.6,-200.54"/>
</g>
<!-- Node355 -->
<g id="node31" class="node">
<title>Node355</title>
<g id="a_node31"><a xlink:href="Z2SeMgr_8cpp.html" target="_top" xlink:title=" ">
<polygon fill="white" stroke="#666666" points="869.5,-162 724.5,-162 724.5,-143 869.5,-143 869.5,-162"/>
<text text-anchor="middle" x="797" y="-150" font-family="Helvetica,sans-Serif" font-size="10.00">libs/Z2AudioLib/Z2SeMgr.cpp</text>
</a>
</g>
</g>
<!-- Node14&#45;&gt;Node355 -->
<g id="edge35" class="edge">
<title>Node14&#45;&gt;Node355</title>
<path fill="none" stroke="#63b8ff" d="M1044.7,-209.91C998.76,-200.02 934.37,-185.96 878,-173 863.48,-169.66 847.53,-165.85 833.66,-162.49"/>
<polygon fill="#63b8ff" stroke="#63b8ff" points="1043.68,-213.27 1054.19,-211.95 1045.15,-206.43 1043.68,-213.27"/>
</g>
<!-- Node16 -->
<g id="node16" class="node">
<title>Node16</title>
<g id="a_node16"><a xlink:href="m__Do__audio_8h.html" target="_top" xlink:title=" ">
<polygon fill="#fff0f0" stroke="red" points="1701,-90.5 1561,-90.5 1561,-71.5 1701,-71.5 1701,-90.5"/>
<text text-anchor="middle" x="1631" y="-78.5" font-family="Helvetica,sans-Serif" font-size="10.00">include/m_Do/m_Do_audio.h</text>
</a>
</g>
</g>
<!-- Node15&#45;&gt;Node16 -->
<g id="edge15" class="edge">
<title>Node15&#45;&gt;Node16</title>
<path fill="none" stroke="#63b8ff" d="M1701.06,-130.69C1681.94,-117.41 1658.14,-100.86 1643.77,-90.88"/>
<polygon fill="#63b8ff" stroke="#63b8ff" points="1698.83,-133.4 1709.04,-136.24 1702.82,-127.65 1698.83,-133.4"/>
</g>
<!-- Node349 -->
<g id="node17" class="node">
<title>Node349</title>
<g id="a_node17"><a xlink:href="Z2AudioMgr_8cpp.html" target="_top" xlink:title=" ">
<polygon fill="white" stroke="#666666" points="2169,-90.5 2011,-90.5 2011,-71.5 2169,-71.5 2169,-90.5"/>
<text text-anchor="middle" x="2090" y="-78.5" font-family="Helvetica,sans-Serif" font-size="10.00">libs/Z2AudioLib/Z2AudioMgr.cpp</text>
</a>
</g>
</g>
<!-- Node15&#45;&gt;Node349 -->
<g id="edge17" class="edge">
<title>Node15&#45;&gt;Node349</title>
<path fill="none" stroke="#63b8ff" d="M1792.45,-139.05C1804.25,-136.69 1816.5,-134.25 1828,-132 1902.75,-117.35 1989.62,-100.88 2042.16,-90.98"/>
<polygon fill="#63b8ff" stroke="#63b8ff" points="1791.93,-135.59 1782.81,-140.99 1793.3,-142.45 1791.93,-135.59"/>
</g>
<!-- Node16&#45;&gt;Node10 -->
<g id="edge16" class="edge">
<title>Node16&#45;&gt;Node10</title>
<path fill="none" stroke="#63b8ff" d="M1575.07,-69.2C1567.02,-67.94 1558.82,-66.82 1551,-66 1100.29,-18.83 981.79,-85.23 532,-30 522.47,-28.83 512.27,-26.97 502.81,-24.99"/>
<polygon fill="#63b8ff" stroke="#63b8ff" points="1574.37,-72.64 1584.81,-70.81 1575.51,-65.73 1574.37,-72.64"/>
</g>
<!-- Node350&#45;&gt;Node16 -->
<g id="edge19" class="edge">
<title>Node350&#45;&gt;Node16</title>
<path fill="none" stroke="#63b8ff" d="M1120.9,-134.2C1124.3,-133.39 1127.69,-132.64 1131,-132 1314.96,-96.5 1365.21,-120.17 1551,-96 1561.63,-94.62 1572.99,-92.82 1583.73,-90.98"/>
<polygon fill="#63b8ff" stroke="#63b8ff" points="1120.32,-130.74 1111.53,-136.65 1122.09,-137.51 1120.32,-130.74"/>
</g>
<!-- Node351 -->
<g id="node19" class="node">
<title>Node351</title>
<g id="a_node19"><a xlink:href="Z2EnvSeMgr_8cpp.html" target="_top" xlink:title=" ">
<polygon fill="white" stroke="#666666" points="1542.5,-90.5 1381.5,-90.5 1381.5,-71.5 1542.5,-71.5 1542.5,-90.5"/>
<text text-anchor="middle" x="1462" y="-78.5" font-family="Helvetica,sans-Serif" font-size="10.00">libs/Z2AudioLib/Z2EnvSeMgr.cpp</text>
</a>
</g>
</g>
<!-- Node350&#45;&gt;Node351 -->
<g id="edge20" class="edge">
<title>Node350&#45;&gt;Node351</title>
<path fill="none" stroke="#63b8ff" d="M1122.54,-134.04C1125.39,-133.31 1128.22,-132.63 1131,-132 1236.64,-108.15 1264.94,-112.32 1372,-96 1382.63,-94.38 1393.96,-92.63 1404.88,-90.94"/>
<polygon fill="#63b8ff" stroke="#63b8ff" points="1121.74,-130.63 1113,-136.62 1123.56,-137.39 1121.74,-130.63"/>
</g>
<!-- Node19 -->
<g id="node21" class="node">
<title>Node19</title>
<g id="a_node21"><a xlink:href="d__a__alink_8h.html" target="_top" xlink:title=" ">
<polygon fill="#fff0f0" stroke="red" points="1993,-90.5 1877,-90.5 1877,-71.5 1993,-71.5 1993,-90.5"/>
<text text-anchor="middle" x="1935" y="-78.5" font-family="Helvetica,sans-Serif" font-size="10.00">include/d/a/d_a_alink.h</text>
</a>
</g>
</g>
<!-- Node352&#45;&gt;Node19 -->
<g id="edge22" class="edge">
<title>Node352&#45;&gt;Node19</title>
<path fill="none" stroke="#63b8ff" d="M978.35,-139.15C987.86,-136.31 998.23,-133.64 1008,-132 1385.26,-68.54 1488.38,-143.28 1868,-96 1877.67,-94.8 1888.02,-92.93 1897.62,-90.94"/>
<polygon fill="#63b8ff" stroke="#63b8ff" points="977.59,-135.72 969.1,-142.06 979.69,-142.4 977.59,-135.72"/>
</g>
<!-- Node243 -->
<g id="node22" class="node">
<title>Node243</title>
<g id="a_node22"><a xlink:href="d__a__item__static_8h.html" target="_top" xlink:title=" ">
<polygon fill="#fff0f0" stroke="red" points="648.5,-30 541.5,-30 541.5,0 648.5,0 648.5,-30"/>
<text text-anchor="start" x="549.5" y="-18" font-family="Helvetica,sans-Serif" font-size="10.00">include/d/a/d_a_item</text>
<text text-anchor="middle" x="595" y="-7" font-family="Helvetica,sans-Serif" font-size="10.00">_static.h</text>
</a>
</g>
</g>
<!-- Node352&#45;&gt;Node243 -->
<g id="edge25" class="edge">
<title>Node352&#45;&gt;Node243</title>
<path fill="none" stroke="#63b8ff" d="M906.54,-139.23C897.32,-136.5 887.37,-133.86 878,-132 799.79,-116.47 574.48,-155.14 521,-96 500.06,-72.85 536.86,-46.3 565.66,-30.36"/>
<polygon fill="#63b8ff" stroke="#63b8ff" points="905.32,-142.52 915.9,-142.12 907.38,-135.83 905.32,-142.52"/>
</g>
<!-- Node248 -->
<g id="node23" class="node">
<title>Node248</title>
<g id="a_node23"><a xlink:href="d__a__itembase_8h.html" target="_top" xlink:title=" ">
<polygon fill="#fff0f0" stroke="red" points="665.5,-90.5 530.5,-90.5 530.5,-71.5 665.5,-71.5 665.5,-90.5"/>
<text text-anchor="middle" x="598" y="-78.5" font-family="Helvetica,sans-Serif" font-size="10.00">include/d/a/d_a_itembase.h</text>
</a>
</g>
</g>
<!-- Node352&#45;&gt;Node248 -->
<g id="edge26" class="edge">
<title>Node352&#45;&gt;Node248</title>
<path fill="none" stroke="#63b8ff" d="M904.92,-139.28C896.13,-136.68 886.78,-134.09 878,-132 803.67,-114.28 716.89,-99.71 659.87,-90.96"/>
<polygon fill="#63b8ff" stroke="#63b8ff" points="903.64,-142.55 914.23,-142.1 905.67,-135.85 903.64,-142.55"/>
</g>
<!-- Node267 -->
<g id="node24" class="node">
<title>Node267</title>
<g id="a_node24"><a xlink:href="d__bomb_8h.html" target="_top" xlink:title=" ">
<polygon fill="#fff0f0" stroke="red" points="1115.5,-90.5 1014.5,-90.5 1014.5,-71.5 1115.5,-71.5 1115.5,-90.5"/>
<text text-anchor="middle" x="1065" y="-78.5" font-family="Helvetica,sans-Serif" font-size="10.00">include/d/d_bomb.h</text>
</a>
</g>
</g>
<!-- Node352&#45;&gt;Node267 -->
<g id="edge28" class="edge">
<title>Node352&#45;&gt;Node267</title>
<path fill="none" stroke="#63b8ff" d="M968.42,-137.02C992.8,-123.13 1028.83,-102.61 1049.29,-90.95"/>
<polygon fill="#63b8ff" stroke="#63b8ff" points="966.72,-133.96 959.77,-141.95 970.19,-140.04 966.72,-133.96"/>
</g>
<!-- Node195 -->
<g id="node25" class="node">
<title>Node195</title>
<g id="a_node25"><a xlink:href="d__a__arrow_8h.html" target="_top" xlink:title=" ">
<polygon fill="white" stroke="#666666" points="1234.5,-96 1133.5,-96 1133.5,-66 1234.5,-66 1234.5,-96"/>
<text text-anchor="start" x="1141.5" y="-84" font-family="Helvetica,sans-Serif" font-size="10.00">include/rel/d/a/d_a</text>
<text text-anchor="middle" x="1184" y="-73" font-family="Helvetica,sans-Serif" font-size="10.00">_arrow/d_a_arrow.h</text>
</a>
</g>
</g>
<!-- Node352&#45;&gt;Node195 -->
<g id="edge29" class="edge">
<title>Node352&#45;&gt;Node195</title>
<path fill="none" stroke="#63b8ff" d="M983.26,-139.32C991.44,-136.88 999.99,-134.34 1008,-132 1050.08,-119.71 1097.93,-106.14 1133.11,-96.24"/>
<polygon fill="#63b8ff" stroke="#63b8ff" points="982.44,-135.91 973.87,-142.14 984.45,-142.62 982.44,-135.91"/>
</g>
<!-- Node257 -->
<g id="node26" class="node">
<title>Node257</title>
<g id="a_node26"><a xlink:href="d__a__bg__obj_8h.html" target="_top" xlink:title=" ">
<polygon fill="white" stroke="#666666" points="1363,-96 1253,-96 1253,-66 1363,-66 1363,-96"/>
<text text-anchor="start" x="1261" y="-84" font-family="Helvetica,sans-Serif" font-size="10.00">include/rel/d/a/d_a</text>
<text text-anchor="middle" x="1308" y="-73" font-family="Helvetica,sans-Serif" font-size="10.00">_bg_obj/d_a_bg_obj.h</text>
</a>
</g>
</g>
<!-- Node352&#45;&gt;Node257 -->
<g id="edge30" class="edge">
<title>Node352&#45;&gt;Node257</title>
<path fill="none" stroke="#63b8ff" d="M980.56,-139.26C989.49,-136.62 999.03,-134.02 1008,-132 1111.08,-108.76 1139.08,-115.13 1243,-96 1246.18,-95.41 1249.44,-94.79 1252.73,-94.14"/>
<polygon fill="#63b8ff" stroke="#63b8ff" points="979.65,-135.88 971.11,-142.15 981.69,-142.58 979.65,-135.88"/>
</g>
<!-- Node269 -->
<g id="node27" class="node">
<title>Node269</title>
<g id="a_node27"><a xlink:href="d__a__boomerang_8h.html" target="_top" xlink:title=" ">
<polygon fill="#fff0f0" stroke="red" points="871.5,-96 722.5,-96 722.5,-66 871.5,-66 871.5,-96"/>
<text text-anchor="start" x="730.5" y="-84" font-family="Helvetica,sans-Serif" font-size="10.00">include/rel/d/a/d_a</text>
<text text-anchor="middle" x="797" y="-73" font-family="Helvetica,sans-Serif" font-size="10.00">_boomerang/d_a_boomerang.h</text>
</a>
</g>
</g>
<!-- Node352&#45;&gt;Node269 -->
<g id="edge31" class="edge">
<title>Node352&#45;&gt;Node269</title>
<path fill="none" stroke="#63b8ff" d="M913.88,-137.64C888.83,-125.71 852.82,-108.57 827.4,-96.47"/>
<polygon fill="#63b8ff" stroke="#63b8ff" points="912.31,-140.77 922.85,-141.91 915.32,-134.45 912.31,-140.77"/>
</g>
<!-- Node270 -->
<g id="node28" class="node">
<title>Node270</title>
<g id="a_node28"><a xlink:href="d__a__canoe_8h.html" target="_top" xlink:title=" ">
<polygon fill="white" stroke="#666666" points="996,-96 890,-96 890,-66 996,-66 996,-96"/>
<text text-anchor="start" x="898" y="-84" font-family="Helvetica,sans-Serif" font-size="10.00">include/rel/d/a/d_a</text>
<text text-anchor="middle" x="943" y="-73" font-family="Helvetica,sans-Serif" font-size="10.00">_canoe/d_a_canoe.h</text>
</a>
</g>
</g>
<!-- Node352&#45;&gt;Node270 -->
<g id="edge32" class="edge">
<title>Node352&#45;&gt;Node270</title>
<path fill="none" stroke="#63b8ff" d="M943,-131.39C943,-120.15 943,-106.41 943,-96.27"/>
<polygon fill="#63b8ff" stroke="#63b8ff" points="939.5,-131.18 943,-141.18 946.5,-131.18 939.5,-131.18"/>
</g>
<!-- Node19&#45;&gt;Node8 -->
<g id="edge23" class="edge">
<title>Node19&#45;&gt;Node8</title>
<path fill="none" stroke="#63b8ff" d="M1884.52,-68.82C1878.96,-67.78 1873.37,-66.81 1868,-66 1696.8,-40.21 1492.7,-25.56 1392.96,-19.44"/>
<polygon fill="#63b8ff" stroke="#63b8ff" points="1883.84,-72.25 1894.32,-70.74 1885.19,-65.38 1883.84,-72.25"/>
</g>
<!-- Node19&#45;&gt;Node11 -->
<g id="edge24" class="edge">
<title>Node19&#45;&gt;Node11</title>
<path fill="none" stroke="#63b8ff" d="M1886.82,-68.84C1880.52,-67.71 1874.12,-66.71 1868,-66 1221.46,8.87 1053.75,-68.07 404,-30 373.91,-28.24 340.53,-25.25 312.82,-22.49"/>
<polygon fill="#63b8ff" stroke="#63b8ff" points="1886.01,-72.25 1896.5,-70.73 1887.35,-65.38 1886.01,-72.25"/>
</g>
<!-- Node248&#45;&gt;Node243 -->
<g id="edge27" class="edge">
<title>Node248&#45;&gt;Node243</title>
<path fill="none" stroke="#63b8ff" d="M597.05,-59.78C596.6,-50.17 596.07,-38.92 595.67,-30.23"/>
<polygon fill="#63b8ff" stroke="#63b8ff" points="593.55,-59.76 597.51,-69.59 600.54,-59.44 593.55,-59.76"/>
</g>
<!-- Node356&#45;&gt;Node5 -->
<g id="edge42" class="edge">
<title>Node356&#45;&gt;Node5</title>
<path fill="none" stroke="#63b8ff" d="M1663.33,-214.83C1712.04,-206.93 1774.48,-193.18 1790,-173 1807.04,-150.83 1800.04,-115.81 1794.1,-96.32"/>
<polygon fill="#63b8ff" stroke="#63b8ff" points="1663.06,-211.33 1653.72,-216.33 1664.14,-218.25 1663.06,-211.33"/>
</g>
<!-- Node356&#45;&gt;Node15 -->
<g id="edge38" class="edge">
<title>Node356&#45;&gt;Node15</title>
<path fill="none" stroke="#63b8ff" d="M1638.85,-203.15C1659.73,-191.9 1685.37,-178.08 1704.31,-167.88"/>
<polygon fill="#63b8ff" stroke="#63b8ff" points="1637.2,-200.06 1630.06,-207.88 1640.53,-206.22 1637.2,-200.06"/>
</g>
<!-- Node356&#45;&gt;Node354 -->
<g id="edge39" class="edge">
<title>Node356&#45;&gt;Node354</title>
<path fill="none" stroke="#63b8ff" d="M1540.41,-211.46C1488.09,-201.56 1411.04,-186.76 1344,-173 1327.71,-169.66 1309.8,-165.81 1294.28,-162.43"/>
<polygon fill="#63b8ff" stroke="#63b8ff" points="1539.55,-214.86 1550.02,-213.27 1540.85,-207.98 1539.55,-214.86"/>
</g>
<!-- Node357 -->
<g id="node33" class="node">
<title>Node357</title>
<g id="a_node33"><a xlink:href="Z2SeqMgr_8cpp.html" target="_top" xlink:title=" ">
<polygon fill="white" stroke="#666666" points="1503,-162 1353,-162 1353,-143 1503,-143 1503,-162"/>
<text text-anchor="middle" x="1428" y="-150" font-family="Helvetica,sans-Serif" font-size="10.00">libs/Z2AudioLib/Z2SeqMgr.cpp</text>
</a>
</g>
</g>
<!-- Node356&#45;&gt;Node357 -->
<g id="edge40" class="edge">
<title>Node356&#45;&gt;Node357</title>
<path fill="none" stroke="#63b8ff" d="M1555.33,-204.36C1521.37,-190.79 1476.88,-173.02 1450.48,-162.48"/>
<polygon fill="#63b8ff" stroke="#63b8ff" points="1553.96,-207.58 1564.54,-208.04 1556.55,-201.08 1553.96,-207.58"/>
</g>
<!-- Node358 -->
<g id="node34" class="node">
<title>Node358</title>
<g id="a_node34"><a xlink:href="Z2SoundObjMgr_8cpp.html" target="_top" xlink:title=" ">
<polygon fill="white" stroke="#666666" points="1662.5,-167.5 1521.5,-167.5 1521.5,-137.5 1662.5,-137.5 1662.5,-167.5"/>
<text text-anchor="start" x="1529.5" y="-155.5" font-family="Helvetica,sans-Serif" font-size="10.00">libs/Z2AudioLib/Z2SoundObj</text>
<text text-anchor="middle" x="1592" y="-144.5" font-family="Helvetica,sans-Serif" font-size="10.00">Mgr.cpp</text>
</a>
</g>
</g>
<!-- Node356&#45;&gt;Node358 -->
<g id="edge41" class="edge">
<title>Node356&#45;&gt;Node358</title>
<path fill="none" stroke="#63b8ff" d="M1598.3,-197.26C1596.87,-187.33 1595.29,-176.36 1594.07,-167.88"/>
<polygon fill="#63b8ff" stroke="#63b8ff" points="1594.82,-197.7 1599.71,-207.1 1601.75,-196.7 1594.82,-197.7"/>
</g>
<!-- Node360 -->
<g id="node36" class="node">
<title>Node360</title>
<g id="a_node36"><a xlink:href="Z2SoundObject_8h.html" target="_top" xlink:title=" ">
<polygon fill="#fff0f0" stroke="red" points="2087,-167.5 1987,-167.5 1987,-137.5 2087,-137.5 2087,-167.5"/>
<text text-anchor="start" x="1995" y="-155.5" font-family="Helvetica,sans-Serif" font-size="10.00">include/Z2AudioLib</text>
<text text-anchor="middle" x="2037" y="-144.5" font-family="Helvetica,sans-Serif" font-size="10.00">/Z2SoundObject.h</text>
</a>
</g>
</g>
<!-- Node359&#45;&gt;Node360 -->
<g id="edge44" class="edge">
<title>Node359&#45;&gt;Node360</title>
<path fill="none" stroke="#63b8ff" d="M1965.98,-202.37C1982.11,-191.27 2001.62,-177.85 2016.1,-167.88"/>
<polygon fill="#63b8ff" stroke="#63b8ff" points="1964.43,-199.19 1958.17,-207.74 1968.4,-204.96 1964.43,-199.19"/>
</g>
<!-- Node363 -->
<g id="node37" class="node">
<title>Node363</title>
<g id="a_node37"><a xlink:href="Z2SoundHandles_8cpp.html" target="_top" xlink:title=" ">
<polygon fill="white" stroke="#666666" points="2285,-162 2105,-162 2105,-143 2285,-143 2285,-162"/>
<text text-anchor="middle" x="2195" y="-150" font-family="Helvetica,sans-Serif" font-size="10.00">libs/Z2AudioLib/Z2SoundHandles.cpp</text>
</a>
</g>
</g>
<!-- Node359&#45;&gt;Node363 -->
<g id="edge45" class="edge">
<title>Node359&#45;&gt;Node363</title>
<path fill="none" stroke="#63b8ff" d="M1998.45,-206.24C2049.81,-192.46 2120.59,-173.47 2161.71,-162.43"/>
<polygon fill="#63b8ff" stroke="#63b8ff" points="1997.69,-202.82 1988.94,-208.79 1999.51,-209.58 1997.69,-202.82"/>
</g>
<!-- Node364&#45;&gt;Node15 -->
<g id="edge47" class="edge">
<title>Node364&#45;&gt;Node15</title>
<path fill="none" stroke="#63b8ff" d="M1790.31,-201.43C1776.81,-190.52 1760.78,-177.57 1748.8,-167.88"/>
<polygon fill="#63b8ff" stroke="#63b8ff" points="1788.03,-204.08 1798,-207.65 1792.43,-198.64 1788.03,-204.08"/>
</g>
<!-- Node365 -->
<g id="node39" class="node">
<title>Node365</title>
<g id="a_node39"><a xlink:href="Z2SpeechMgr2_8cpp.html" target="_top" xlink:title=" ">
<polygon fill="white" stroke="#666666" points="1968.5,-167.5 1837.5,-167.5 1837.5,-137.5 1968.5,-137.5 1968.5,-167.5"/>
<text text-anchor="start" x="1845.5" y="-155.5" font-family="Helvetica,sans-Serif" font-size="10.00">libs/Z2AudioLib/Z2Speech</text>
<text text-anchor="middle" x="1903" y="-144.5" font-family="Helvetica,sans-Serif" font-size="10.00">Mgr2.cpp</text>
</a>
</g>
</g>
<!-- Node364&#45;&gt;Node365 -->
<g id="edge48" class="edge">
<title>Node364&#45;&gt;Node365</title>
<path fill="none" stroke="#63b8ff" d="M1843.69,-201.43C1857.19,-190.52 1873.22,-177.57 1885.2,-167.88"/>
<polygon fill="#63b8ff" stroke="#63b8ff" points="1841.57,-198.64 1836,-207.65 1845.97,-204.08 1841.57,-198.64"/>
</g>
<!-- Node366&#45;&gt;Node5 -->
<g id="edge51" class="edge">
<title>Node366&#45;&gt;Node5</title>
<path fill="none" stroke="#63b8ff" d="M2302.89,-134.06C2299.9,-133.29 2296.92,-132.6 2294,-132 2107.85,-93.92 2056.41,-120.6 1868,-96 1865.1,-95.62 1862.14,-95.21 1859.16,-94.78"/>
<polygon fill="#63b8ff" stroke="#63b8ff" points="2301.64,-137.35 2312.22,-136.68 2303.54,-130.61 2301.64,-137.35"/>
</g>
<!-- Node366&#45;&gt;Node19 -->
<g id="edge50" class="edge">
<title>Node366&#45;&gt;Node19</title>
<path fill="none" stroke="#63b8ff" d="M2301.83,-133.92C2299.2,-133.22 2296.58,-132.58 2294,-132 2166.42,-103.34 2131,-117.39 2002,-96 1993.32,-94.56 1984.07,-92.78 1975.29,-90.99"/>
<polygon fill="#63b8ff" stroke="#63b8ff" points="2300.64,-137.22 2311.21,-136.59 2302.56,-130.49 2300.64,-137.22"/>
</g>
<!-- Node190 -->
<g id="node41" class="node">
<title>Node190</title>
<g id="a_node41"><a xlink:href="m__Do__main_8cpp.html" target="_top" xlink:title=" ">
<polygon fill="white" stroke="#666666" points="2418.5,-90.5 2287.5,-90.5 2287.5,-71.5 2418.5,-71.5 2418.5,-90.5"/>
<text text-anchor="middle" x="2353" y="-78.5" font-family="Helvetica,sans-Serif" font-size="10.00">src/m_Do/m_Do_main.cpp</text>
</a>
</g>
</g>
<!-- Node366&#45;&gt;Node190 -->
<g id="edge52" class="edge">
<title>Node366&#45;&gt;Node190</title>
<path fill="none" stroke="#63b8ff" d="M2353,-125.96C2353,-113.57 2353,-99.49 2353,-90.68"/>
<polygon fill="#63b8ff" stroke="#63b8ff" points="2349.5,-125.59 2353,-135.59 2356.5,-125.59 2349.5,-125.59"/>
</g>
</g>
</svg>
