<?xml version="1.0" encoding="UTF-8" standalone="no"?>
<!DOCTYPE svg PUBLIC "-//W3C//DTD SVG 1.1//EN"
 "http://www.w3.org/Graphics/SVG/1.1/DTD/svg11.dtd">
<!-- Generated by graphviz version 7.0.5 (20221223.1930)
 -->
<!-- Title: include/m_Do/m_Do_graphic.h Pages: 1 -->
<svg width="3286pt" height="148pt"
 viewBox="0.00 0.00 3286.00 148.00" xmlns="http://www.w3.org/2000/svg" xmlns:xlink="http://www.w3.org/1999/xlink">
<g id="graph0" class="graph" transform="scale(1 1) rotate(0) translate(4 144)">
<title>include/m_Do/m_Do_graphic.h</title>
<!-- Node1 -->
<g id="node1" class="node">
<title>Node1</title>
<g id="a_node1"><a xlink:title=" ">
<polygon fill="#999999" stroke="#666666" points="1622,-140 1473,-140 1473,-121 1622,-121 1622,-140"/>
<text text-anchor="middle" x="1547.5" y="-128" font-family="Helvetica,sans-Serif" font-size="10.00">include/m_Do/m_Do_graphic.h</text>
</a>
</g>
</g>
<!-- Node2 -->
<g id="node2" class="node">
<title>Node2</title>
<g id="a_node2"><a xlink:href="d__menu__window_8h.html" target="_top" xlink:title=" ">
<polygon fill="white" stroke="#666666" points="139.5,-85 19.5,-85 19.5,-55 139.5,-55 139.5,-85"/>
<text text-anchor="start" x="27.5" y="-73" font-family="Helvetica,sans-Serif" font-size="10.00">include/d/menu/d_menu</text>
<text text-anchor="middle" x="79.5" y="-62" font-family="Helvetica,sans-Serif" font-size="10.00">_window.h</text>
</a>
</g>
</g>
<!-- Node1&#45;&gt;Node2 -->
<g id="edge1" class="edge">
<title>Node1&#45;&gt;Node2</title>
<path fill="none" stroke="#63b8ff" d="M1461.22,-128.66C1197.52,-125.79 404.62,-114.84 148.5,-85 145.71,-84.67 142.86,-84.29 139.99,-83.87"/>
<polygon fill="#63b8ff" stroke="#63b8ff" points="1461.08,-132.16 1471.11,-128.77 1461.15,-125.16 1461.08,-132.16"/>
</g>
<!-- Node4 -->
<g id="node4" class="node">
<title>Node4</title>
<g id="a_node4"><a xlink:href="d__com__inf__game_8cpp.html" target="_top" xlink:title=" ">
<polygon fill="white" stroke="#666666" points="265.5,-85 157.5,-85 157.5,-55 265.5,-55 265.5,-85"/>
<text text-anchor="start" x="165.5" y="-73" font-family="Helvetica,sans-Serif" font-size="10.00">src/d/com/d_com_inf</text>
<text text-anchor="middle" x="211.5" y="-62" font-family="Helvetica,sans-Serif" font-size="10.00">_game.cpp</text>
</a>
</g>
</g>
<!-- Node1&#45;&gt;Node4 -->
<g id="edge3" class="edge">
<title>Node1&#45;&gt;Node4</title>
<path fill="none" stroke="#63b8ff" d="M1461.42,-128.55C1214.17,-125.5 504.88,-114.37 274.5,-85 271.61,-84.63 268.66,-84.19 265.68,-83.7"/>
<polygon fill="#63b8ff" stroke="#63b8ff" points="1461.29,-132.05 1471.33,-128.67 1461.37,-125.05 1461.29,-132.05"/>
</g>
<!-- Node5 -->
<g id="node5" class="node">
<title>Node5</title>
<g id="a_node5"><a xlink:href="d__camera_8cpp.html" target="_top" xlink:title=" ">
<polygon fill="white" stroke="#666666" points="385.5,-79.5 283.5,-79.5 283.5,-60.5 385.5,-60.5 385.5,-79.5"/>
<text text-anchor="middle" x="334.5" y="-67.5" font-family="Helvetica,sans-Serif" font-size="10.00">src/d/d_camera.cpp</text>
</a>
</g>
</g>
<!-- Node1&#45;&gt;Node5 -->
<g id="edge4" class="edge">
<title>Node1&#45;&gt;Node5</title>
<path fill="none" stroke="#63b8ff" d="M1461.2,-128.3C1230.03,-124.75 600.47,-112.75 394.5,-85 385.81,-83.83 376.53,-81.97 367.93,-79.99"/>
<polygon fill="#63b8ff" stroke="#63b8ff" points="1461,-131.8 1471.05,-128.45 1461.1,-124.8 1461,-131.8"/>
</g>
<!-- Node6 -->
<g id="node6" class="node">
<title>Node6</title>
<g id="a_node6"><a xlink:href="d__demo_8cpp.html" target="_top" xlink:title=" ">
<polygon fill="white" stroke="#666666" points="497.5,-79.5 403.5,-79.5 403.5,-60.5 497.5,-60.5 497.5,-79.5"/>
<text text-anchor="middle" x="450.5" y="-67.5" font-family="Helvetica,sans-Serif" font-size="10.00">src/d/d_demo.cpp</text>
</a>
</g>
</g>
<!-- Node1&#45;&gt;Node6 -->
<g id="edge5" class="edge">
<title>Node1&#45;&gt;Node6</title>
<path fill="none" stroke="#63b8ff" d="M1461.34,-128.06C1246.26,-124.11 689.85,-111.56 506.5,-85 498.37,-83.82 489.7,-81.96 481.67,-79.98"/>
<polygon fill="#63b8ff" stroke="#63b8ff" points="1460.98,-131.55 1471.05,-128.24 1461.11,-124.56 1460.98,-131.55"/>
</g>
<!-- Node7 -->
<g id="node7" class="node">
<title>Node7</title>
<g id="a_node7"><a xlink:href="d__drawlist_8cpp.html" target="_top" xlink:title=" ">
<polygon fill="white" stroke="#666666" points="619.5,-79.5 515.5,-79.5 515.5,-60.5 619.5,-60.5 619.5,-79.5"/>
<text text-anchor="middle" x="567.5" y="-67.5" font-family="Helvetica,sans-Serif" font-size="10.00">src/d/d_drawlist.cpp</text>
</a>
</g>
</g>
<!-- Node1&#45;&gt;Node7 -->
<g id="edge6" class="edge">
<title>Node1&#45;&gt;Node7</title>
<path fill="none" stroke="#63b8ff" d="M1461.33,-130.29C1298.18,-130.69 933.28,-126.34 629.5,-85 620.64,-83.79 611.18,-81.95 602.39,-79.99"/>
<polygon fill="#63b8ff" stroke="#63b8ff" points="1461.23,-133.79 1471.21,-130.26 1461.2,-126.79 1461.23,-133.79"/>
</g>
<!-- Node8 -->
<g id="node8" class="node">
<title>Node8</title>
<g id="a_node8"><a xlink:href="d__gameover_8cpp.html" target="_top" xlink:title=" ">
<polygon fill="white" stroke="#666666" points="751,-79.5 638,-79.5 638,-60.5 751,-60.5 751,-79.5"/>
<text text-anchor="middle" x="694.5" y="-67.5" font-family="Helvetica,sans-Serif" font-size="10.00">src/d/d_gameover.cpp</text>
</a>
</g>
</g>
<!-- Node1&#45;&gt;Node8 -->
<g id="edge7" class="edge">
<title>Node1&#45;&gt;Node8</title>
<path fill="none" stroke="#63b8ff" d="M1461.09,-128.91C1315.78,-126.97 1013.58,-118.8 760.5,-85 751.21,-83.76 741.28,-81.93 732.02,-79.99"/>
<polygon fill="#63b8ff" stroke="#63b8ff" points="1460.98,-132.41 1471.03,-129.04 1461.07,-125.41 1460.98,-132.41"/>
</g>
<!-- Node9 -->
<g id="node9" class="node">
<title>Node9</title>
<g id="a_node9"><a xlink:href="d__resorce_8cpp.html" target="_top" xlink:title=" ">
<polygon fill="white" stroke="#666666" points="871.5,-79.5 769.5,-79.5 769.5,-60.5 871.5,-60.5 871.5,-79.5"/>
<text text-anchor="middle" x="820.5" y="-67.5" font-family="Helvetica,sans-Serif" font-size="10.00">src/d/d_resorce.cpp</text>
</a>
</g>
</g>
<!-- Node1&#45;&gt;Node9 -->
<g id="edge8" class="edge">
<title>Node1&#45;&gt;Node9</title>
<path fill="none" stroke="#63b8ff" d="M1461.48,-128.11C1334.13,-125.07 1088.22,-115.43 881.5,-85 872.9,-83.73 863.72,-81.89 855.16,-79.96"/>
<polygon fill="#63b8ff" stroke="#63b8ff" points="1461.09,-131.6 1471.17,-128.33 1461.25,-124.6 1461.09,-131.6"/>
</g>
<!-- Node10 -->
<g id="node10" class="node">
<title>Node10</title>
<g id="a_node10"><a xlink:href="d__event_8cpp.html" target="_top" xlink:title=" ">
<polygon fill="white" stroke="#666666" points="1011,-79.5 890,-79.5 890,-60.5 1011,-60.5 1011,-79.5"/>
<text text-anchor="middle" x="950.5" y="-67.5" font-family="Helvetica,sans-Serif" font-size="10.00">src/d/event/d_event.cpp</text>
</a>
</g>
</g>
<!-- Node1&#45;&gt;Node10 -->
<g id="edge9" class="edge">
<title>Node1&#45;&gt;Node10</title>
<path fill="none" stroke="#63b8ff" d="M1461.14,-125.21C1356.48,-119.33 1174.94,-106.89 1020.5,-85 1011.05,-83.66 1000.95,-81.86 991.45,-80"/>
<polygon fill="#63b8ff" stroke="#63b8ff" points="1460.89,-128.7 1471.07,-125.76 1461.28,-121.72 1460.89,-128.7"/>
</g>
<!-- Node11 -->
<g id="node11" class="node">
<title>Node11</title>
<g id="a_node11"><a xlink:href="d__event__data_8cpp.html" target="_top" xlink:title=" ">
<polygon fill="white" stroke="#666666" points="1132,-85 1029,-85 1029,-55 1132,-55 1132,-85"/>
<text text-anchor="start" x="1037" y="-73" font-family="Helvetica,sans-Serif" font-size="10.00">src/d/event/d_event</text>
<text text-anchor="middle" x="1080.5" y="-62" font-family="Helvetica,sans-Serif" font-size="10.00">_data.cpp</text>
</a>
</g>
</g>
<!-- Node1&#45;&gt;Node11 -->
<g id="edge10" class="edge">
<title>Node1&#45;&gt;Node11</title>
<path fill="none" stroke="#63b8ff" d="M1461.35,-122.99C1378.89,-116.06 1251.18,-103.53 1141.5,-85 1138.5,-84.49 1135.43,-83.93 1132.33,-83.33"/>
<polygon fill="#63b8ff" stroke="#63b8ff" points="1460.92,-126.46 1471.17,-123.8 1461.5,-119.49 1460.92,-126.46"/>
</g>
<!-- Node12 -->
<g id="node12" class="node">
<title>Node12</title>
<g id="a_node12"><a xlink:href="d__file__select_8cpp.html" target="_top" xlink:title=" ">
<polygon fill="white" stroke="#666666" points="1278.5,-79.5 1150.5,-79.5 1150.5,-60.5 1278.5,-60.5 1278.5,-79.5"/>
<text text-anchor="middle" x="1214.5" y="-67.5" font-family="Helvetica,sans-Serif" font-size="10.00">src/d/file/d_file_select.cpp</text>
</a>
</g>
</g>
<!-- Node1&#45;&gt;Node12 -->
<g id="edge11" class="edge">
<title>Node1&#45;&gt;Node12</title>
<path fill="none" stroke="#63b8ff" d="M1482.48,-118.64C1430.07,-109.81 1354.49,-96.91 1288.5,-85 1279.62,-83.4 1270.15,-81.64 1261.06,-79.93"/>
<polygon fill="#63b8ff" stroke="#63b8ff" points="1481.7,-122.06 1492.14,-120.27 1482.86,-115.15 1481.7,-122.06"/>
</g>
<!-- Node13 -->
<g id="node13" class="node">
<title>Node13</title>
<g id="a_node13"><a xlink:href="d__menu__collect_8cpp.html" target="_top" xlink:title=" ">
<polygon fill="white" stroke="#666666" points="1452,-79.5 1297,-79.5 1297,-60.5 1452,-60.5 1452,-79.5"/>
<text text-anchor="middle" x="1374.5" y="-67.5" font-family="Helvetica,sans-Serif" font-size="10.00">src/d/menu/d_menu_collect.cpp</text>
</a>
</g>
</g>
<!-- Node1&#45;&gt;Node13 -->
<g id="edge12" class="edge">
<title>Node1&#45;&gt;Node13</title>
<path fill="none" stroke="#63b8ff" d="M1510.67,-117.05C1477.76,-105.92 1430.34,-89.88 1401.02,-79.97"/>
<polygon fill="#63b8ff" stroke="#63b8ff" points="1509.2,-120.24 1519.79,-120.13 1511.44,-113.61 1509.2,-120.24"/>
</g>
<!-- Node14 -->
<g id="node14" class="node">
<title>Node14</title>
<g id="a_node14"><a xlink:href="d__menu__fishing_8cpp.html" target="_top" xlink:title=" ">
<polygon fill="white" stroke="#666666" points="1624.5,-79.5 1470.5,-79.5 1470.5,-60.5 1624.5,-60.5 1624.5,-79.5"/>
<text text-anchor="middle" x="1547.5" y="-67.5" font-family="Helvetica,sans-Serif" font-size="10.00">src/d/menu/d_menu_fishing.cpp</text>
</a>
</g>
</g>
<!-- Node1&#45;&gt;Node14 -->
<g id="edge13" class="edge">
<title>Node1&#45;&gt;Node14</title>
<path fill="none" stroke="#63b8ff" d="M1547.5,-109.66C1547.5,-99.45 1547.5,-87.54 1547.5,-79.67"/>
<polygon fill="#63b8ff" stroke="#63b8ff" points="1544,-109.35 1547.5,-119.35 1551,-109.35 1544,-109.35"/>
</g>
<!-- Node15 -->
<g id="node15" class="node">
<title>Node15</title>
<g id="a_node15"><a xlink:href="d__menu__insect_8cpp.html" target="_top" xlink:title=" ">
<polygon fill="white" stroke="#666666" points="1794.5,-79.5 1642.5,-79.5 1642.5,-60.5 1794.5,-60.5 1794.5,-79.5"/>
<text text-anchor="middle" x="1718.5" y="-67.5" font-family="Helvetica,sans-Serif" font-size="10.00">src/d/menu/d_menu_insect.cpp</text>
</a>
</g>
</g>
<!-- Node1&#45;&gt;Node15 -->
<g id="edge14" class="edge">
<title>Node1&#45;&gt;Node15</title>
<path fill="none" stroke="#63b8ff" d="M1584.33,-116.9C1616.84,-105.78 1663.43,-89.84 1692.28,-79.97"/>
<polygon fill="#63b8ff" stroke="#63b8ff" points="1583.23,-113.58 1574.9,-120.13 1585.5,-120.2 1583.23,-113.58"/>
</g>
<!-- Node16 -->
<g id="node16" class="node">
<title>Node16</title>
<g id="a_node16"><a xlink:href="d__menu__save_8cpp.html" target="_top" xlink:title=" ">
<polygon fill="white" stroke="#666666" points="1960,-79.5 1813,-79.5 1813,-60.5 1960,-60.5 1960,-79.5"/>
<text text-anchor="middle" x="1886.5" y="-67.5" font-family="Helvetica,sans-Serif" font-size="10.00">src/d/menu/d_menu_save.cpp</text>
</a>
</g>
</g>
<!-- Node1&#45;&gt;Node16 -->
<g id="edge15" class="edge">
<title>Node1&#45;&gt;Node16</title>
<path fill="none" stroke="#63b8ff" d="M1610.59,-118.61C1675.1,-107.48 1774.15,-90.39 1834.37,-80"/>
<polygon fill="#63b8ff" stroke="#63b8ff" points="1610.11,-115.14 1600.85,-120.29 1611.3,-122.04 1610.11,-115.14"/>
</g>
<!-- Node17 -->
<g id="node17" class="node">
<title>Node17</title>
<g id="a_node17"><a xlink:href="d__menu__skill_8cpp.html" target="_top" xlink:title=" ">
<polygon fill="white" stroke="#666666" points="2121,-79.5 1978,-79.5 1978,-60.5 2121,-60.5 2121,-79.5"/>
<text text-anchor="middle" x="2049.5" y="-67.5" font-family="Helvetica,sans-Serif" font-size="10.00">src/d/menu/d_menu_skill.cpp</text>
</a>
</g>
</g>
<!-- Node1&#45;&gt;Node17 -->
<g id="edge16" class="edge">
<title>Node1&#45;&gt;Node17</title>
<path fill="none" stroke="#63b8ff" d="M1633.86,-122.13C1719.3,-114.43 1853.71,-101.22 1969.5,-85 1979.83,-83.55 1990.88,-81.77 2001.36,-79.97"/>
<polygon fill="#63b8ff" stroke="#63b8ff" points="1633.55,-118.64 1623.9,-123.02 1634.17,-125.62 1633.55,-118.64"/>
</g>
<!-- Node18 -->
<g id="node18" class="node">
<title>Node18</title>
<g id="a_node18"><a xlink:href="d__msg__flow_8cpp.html" target="_top" xlink:title=" ">
<polygon fill="white" stroke="#666666" points="2272,-79.5 2139,-79.5 2139,-60.5 2272,-60.5 2272,-79.5"/>
<text text-anchor="middle" x="2205.5" y="-67.5" font-family="Helvetica,sans-Serif" font-size="10.00">src/d/msg/d_msg_flow.cpp</text>
</a>
</g>
</g>
<!-- Node1&#45;&gt;Node18 -->
<g id="edge17" class="edge">
<title>Node1&#45;&gt;Node18</title>
<path fill="none" stroke="#63b8ff" d="M1633.73,-125.84C1747.77,-120.34 1954.86,-108.03 2130.5,-85 2140.74,-83.66 2151.71,-81.83 2162,-79.95"/>
<polygon fill="#63b8ff" stroke="#63b8ff" points="1633.65,-122.34 1623.82,-126.31 1633.98,-129.34 1633.65,-122.34"/>
</g>
<!-- Node19 -->
<g id="node19" class="node">
<title>Node19</title>
<g id="a_node19"><a xlink:href="d__pane__class_8cpp.html" target="_top" xlink:title=" ">
<polygon fill="white" stroke="#666666" points="2433,-79.5 2290,-79.5 2290,-60.5 2433,-60.5 2433,-79.5"/>
<text text-anchor="middle" x="2361.5" y="-67.5" font-family="Helvetica,sans-Serif" font-size="10.00">src/d/pane/d_pane_class.cpp</text>
</a>
</g>
</g>
<!-- Node1&#45;&gt;Node19 -->
<g id="edge18" class="edge">
<title>Node1&#45;&gt;Node19</title>
<path fill="none" stroke="#63b8ff" d="M1633.49,-127.43C1770.86,-123.41 2048.11,-112.41 2281.5,-85 2292.56,-83.7 2304.42,-81.87 2315.52,-79.96"/>
<polygon fill="#63b8ff" stroke="#63b8ff" points="1633.65,-123.92 1623.75,-127.71 1633.85,-130.92 1633.65,-123.92"/>
</g>
<!-- Node20 -->
<g id="node20" class="node">
<title>Node20</title>
<g id="a_node20"><a xlink:href="d__particle_8cpp.html" target="_top" xlink:title=" ">
<polygon fill="white" stroke="#666666" points="2587.5,-79.5 2451.5,-79.5 2451.5,-60.5 2587.5,-60.5 2587.5,-79.5"/>
<text text-anchor="middle" x="2519.5" y="-67.5" font-family="Helvetica,sans-Serif" font-size="10.00">src/d/particle/d_particle.cpp</text>
</a>
</g>
</g>
<!-- Node1&#45;&gt;Node20 -->
<g id="edge19" class="edge">
<title>Node1&#45;&gt;Node20</title>
<path fill="none" stroke="#63b8ff" d="M1633.49,-128.94C1793.34,-127.07 2146.87,-119.08 2442.5,-85 2453.3,-83.76 2464.87,-81.92 2475.67,-79.99"/>
<polygon fill="#63b8ff" stroke="#63b8ff" points="1633.79,-125.44 1623.83,-129.05 1633.87,-132.44 1633.79,-125.44"/>
</g>
<!-- Node21 -->
<g id="node21" class="node">
<title>Node21</title>
<g id="a_node21"><a xlink:href="d__s__logo_8cpp.html" target="_top" xlink:title=" ">
<polygon fill="white" stroke="#666666" points="2713,-79.5 2606,-79.5 2606,-60.5 2713,-60.5 2713,-79.5"/>
<text text-anchor="middle" x="2659.5" y="-67.5" font-family="Helvetica,sans-Serif" font-size="10.00">src/d/s/d_s_logo.cpp</text>
</a>
</g>
</g>
<!-- Node1&#45;&gt;Node21 -->
<g id="edge20" class="edge">
<title>Node1&#45;&gt;Node21</title>
<path fill="none" stroke="#63b8ff" d="M1633.5,-127.81C1849.58,-123.24 2411.18,-109.33 2596.5,-85 2605.61,-83.8 2615.35,-81.94 2624.38,-79.95"/>
<polygon fill="#63b8ff" stroke="#63b8ff" points="1633.67,-124.3 1623.75,-128.01 1633.82,-131.3 1633.67,-124.3"/>
</g>
<!-- Node22 -->
<g id="node22" class="node">
<title>Node22</title>
<g id="a_node22"><a xlink:href="d__s__name_8cpp.html" target="_top" xlink:title=" ">
<polygon fill="white" stroke="#666666" points="2844,-79.5 2731,-79.5 2731,-60.5 2844,-60.5 2844,-79.5"/>
<text text-anchor="middle" x="2787.5" y="-67.5" font-family="Helvetica,sans-Serif" font-size="10.00">src/d/s/d_s_name.cpp</text>
</a>
</g>
</g>
<!-- Node1&#45;&gt;Node22 -->
<g id="edge21" class="edge">
<title>Node1&#45;&gt;Node22</title>
<path fill="none" stroke="#63b8ff" d="M1633.76,-128.18C1867.89,-124.3 2511.86,-111.47 2722.5,-85 2731.89,-83.82 2741.94,-81.96 2751.25,-79.98"/>
<polygon fill="#63b8ff" stroke="#63b8ff" points="1633.71,-124.68 1623.77,-128.35 1633.82,-131.68 1633.71,-124.68"/>
</g>
<!-- Node23 -->
<g id="node23" class="node">
<title>Node23</title>
<g id="a_node23"><a xlink:href="d__s__play_8cpp.html" target="_top" xlink:title=" ">
<polygon fill="white" stroke="#666666" points="2968.5,-79.5 2862.5,-79.5 2862.5,-60.5 2968.5,-60.5 2968.5,-79.5"/>
<text text-anchor="middle" x="2915.5" y="-67.5" font-family="Helvetica,sans-Serif" font-size="10.00">src/d/s/d_s_play.cpp</text>
</a>
</g>
</g>
<!-- Node1&#45;&gt;Node23 -->
<g id="edge22" class="edge">
<title>Node1&#45;&gt;Node23</title>
<path fill="none" stroke="#63b8ff" d="M1633.67,-128.68C1885.35,-125.94 2616.52,-115.52 2853.5,-85 2862.58,-83.83 2872.29,-81.95 2881.27,-79.94"/>
<polygon fill="#63b8ff" stroke="#63b8ff" points="1633.88,-125.18 1623.92,-128.78 1633.95,-132.18 1633.88,-125.18"/>
</g>
<!-- Node24 -->
<g id="node24" class="node">
<title>Node24</title>
<g id="a_node24"><a xlink:href="m__Do__graphic_8cpp.html" target="_top" xlink:title=" ">
<polygon fill="white" stroke="#666666" points="3128.5,-79.5 2986.5,-79.5 2986.5,-60.5 3128.5,-60.5 3128.5,-79.5"/>
<text text-anchor="middle" x="3057.5" y="-67.5" font-family="Helvetica,sans-Serif" font-size="10.00">src/m_Do/m_Do_graphic.cpp</text>
</a>
</g>
</g>
<!-- Node1&#45;&gt;Node24 -->
<g id="edge23" class="edge">
<title>Node1&#45;&gt;Node24</title>
<path fill="none" stroke="#63b8ff" d="M1633.39,-128.43C1900.53,-124.85 2714.58,-111.96 2977.5,-85 2989,-83.82 3001.34,-81.96 3012.81,-79.98"/>
<polygon fill="#63b8ff" stroke="#63b8ff" points="1633.69,-124.93 1623.74,-128.56 1633.78,-131.92 1633.69,-124.93"/>
</g>
<!-- Node25 -->
<g id="node25" class="node">
<title>Node25</title>
<g id="a_node25"><a xlink:href="m__Do__main_8cpp.html" target="_top" xlink:title=" ">
<polygon fill="white" stroke="#666666" points="3278,-79.5 3147,-79.5 3147,-60.5 3278,-60.5 3278,-79.5"/>
<text text-anchor="middle" x="3212.5" y="-67.5" font-family="Helvetica,sans-Serif" font-size="10.00">src/m_Do/m_Do_main.cpp</text>
</a>
</g>
</g>
<!-- Node1&#45;&gt;Node25 -->
<g id="edge24" class="edge">
<title>Node1&#45;&gt;Node25</title>
<path fill="none" stroke="#63b8ff" d="M1633.57,-128.87C1920.38,-126.48 2842.14,-116.5 3137.5,-85 3148.43,-83.83 3160.16,-81.95 3171.02,-79.94"/>
<polygon fill="#63b8ff" stroke="#63b8ff" points="1633.9,-125.37 1623.93,-128.95 1633.96,-132.37 1633.9,-125.37"/>
</g>
<!-- Node3 -->
<g id="node3" class="node">
<title>Node3</title>
<g id="a_node3"><a xlink:href="d__menu__window_8cpp.html" target="_top" xlink:title=" ">
<polygon fill="white" stroke="#666666" points="159,-19 0,-19 0,0 159,0 159,-19"/>
<text text-anchor="middle" x="79.5" y="-7" font-family="Helvetica,sans-Serif" font-size="10.00">src/d/menu/d_menu_window.cpp</text>
</a>
</g>
</g>
<!-- Node2&#45;&gt;Node3 -->
<g id="edge2" class="edge">
<title>Node2&#45;&gt;Node3</title>
<path fill="none" stroke="#63b8ff" d="M79.5,-43.3C79.5,-34.65 79.5,-25.58 79.5,-19.18"/>
<polygon fill="#63b8ff" stroke="#63b8ff" points="76,-43.03 79.5,-53.03 83,-43.03 76,-43.03"/>
</g>
</g>
</svg>
