<?xml version="1.0" encoding="UTF-8" standalone="no"?>
<!DOCTYPE svg PUBLIC "-//W3C//DTD SVG 1.1//EN"
 "http://www.w3.org/Graphics/SVG/1.1/DTD/svg11.dtd">
<!-- Generated by graphviz version 7.0.5 (20221223.1930)
 -->
<!-- Title: include/m_Do/m_Do_Reset.h Pages: 1 -->
<svg width="4273pt" height="544pt"
 viewBox="0.00 0.00 4272.50 544.00" xmlns="http://www.w3.org/2000/svg" xmlns:xlink="http://www.w3.org/1999/xlink">
<g id="graph0" class="graph" transform="scale(1 1) rotate(0) translate(4 540)">
<title>include/m_Do/m_Do_Reset.h</title>
<!-- Node1 -->
<g id="node1" class="node">
<title>Node1</title>
<g id="a_node1"><a xlink:title=" ">
<polygon fill="#999999" stroke="#666666" points="3708,-536 3565,-536 3565,-517 3708,-517 3708,-536"/>
<text text-anchor="middle" x="3636.5" y="-524" font-family="Helvetica,sans-Serif" font-size="10.00">include/m_Do/m_Do_Reset.h</text>
</a>
</g>
</g>
<!-- Node2 -->
<g id="node2" class="node">
<title>Node2</title>
<g id="a_node2"><a xlink:href="m__Do__controller__pad_8h.html" target="_top" xlink:title=" ">
<polygon fill="white" stroke="#666666" points="846,-481 697,-481 697,-451 846,-451 846,-481"/>
<text text-anchor="start" x="705" y="-469" font-family="Helvetica,sans-Serif" font-size="10.00">include/m_Do/m_Do_controller</text>
<text text-anchor="middle" x="771.5" y="-458" font-family="Helvetica,sans-Serif" font-size="10.00">_pad.h</text>
</a>
</g>
</g>
<!-- Node1&#45;&gt;Node2 -->
<g id="edge1" class="edge">
<title>Node1&#45;&gt;Node2</title>
<path fill="none" stroke="#63b8ff" d="M3553.18,-523.8C3132.49,-515.21 1246.29,-476.69 846.22,-468.53"/>
<polygon fill="#63b8ff" stroke="#63b8ff" points="3553.02,-527.3 3563.09,-524 3553.17,-520.3 3553.02,-527.3"/>
</g>
<!-- Node157 -->
<g id="node36" class="node">
<title>Node157</title>
<g id="a_node36"><a xlink:href="m__Do__audio_8cpp.html" target="_top" xlink:title=" ">
<polygon fill="white" stroke="#666666" points="3651.5,-156.5 3517.5,-156.5 3517.5,-137.5 3651.5,-137.5 3651.5,-156.5"/>
<text text-anchor="middle" x="3584.5" y="-144.5" font-family="Helvetica,sans-Serif" font-size="10.00">src/m_Do/m_Do_audio.cpp</text>
</a>
</g>
</g>
<!-- Node1&#45;&gt;Node157 -->
<g id="edge73" class="edge">
<title>Node1&#45;&gt;Node157</title>
<path fill="none" stroke="#63b8ff" d="M3620.85,-507.88C3614.65,-500.1 3607.95,-490.56 3603.5,-481 3588.08,-447.87 3584.5,-437.54 3584.5,-401 3584.5,-401 3584.5,-401 3584.5,-272.5 3584.5,-229.05 3584.5,-177.08 3584.5,-156.75"/>
<polygon fill="#63b8ff" stroke="#63b8ff" points="3618.14,-510.1 3627.25,-515.5 3623.5,-505.6 3618.14,-510.1"/>
</g>
<!-- Node161 -->
<g id="node38" class="node">
<title>Node161</title>
<g id="a_node38"><a xlink:href="m__Do__main_8cpp.html" target="_top" xlink:title=" ">
<polygon fill="white" stroke="#666666" points="335,-156.5 204,-156.5 204,-137.5 335,-137.5 335,-156.5"/>
<text text-anchor="middle" x="269.5" y="-144.5" font-family="Helvetica,sans-Serif" font-size="10.00">src/m_Do/m_Do_main.cpp</text>
</a>
</g>
</g>
<!-- Node1&#45;&gt;Node161 -->
<g id="edge75" class="edge">
<title>Node1&#45;&gt;Node161</title>
<path fill="none" stroke="#63b8ff" d="M3553.45,-525.03C3104.69,-522.4 979.06,-508.55 687.5,-481 501.8,-463.45 275.5,-587.53 275.5,-401 275.5,-401 275.5,-401 275.5,-272.5 275.5,-229 271.8,-177.06 270.21,-156.75"/>
<polygon fill="#63b8ff" stroke="#63b8ff" points="3553.14,-528.53 3563.16,-525.09 3553.18,-521.53 3553.14,-528.53"/>
</g>
<!-- Node167 -->
<g id="node45" class="node">
<title>Node167</title>
<g id="a_node45"><a xlink:href="m__Do__machine_8h.html" target="_top" xlink:title=" ">
<polygon fill="white" stroke="#666666" points="247.5,-222.5 93.5,-222.5 93.5,-203.5 247.5,-203.5 247.5,-222.5"/>
<text text-anchor="middle" x="170.5" y="-210.5" font-family="Helvetica,sans-Serif" font-size="10.00">include/m_Do/m_Do_machine.h</text>
</a>
</g>
</g>
<!-- Node1&#45;&gt;Node167 -->
<g id="edge64" class="edge">
<title>Node1&#45;&gt;Node167</title>
<path fill="none" stroke="#63b8ff" d="M3553.29,-525.44C3041.22,-524.93 336.68,-520.38 261.5,-481 222.83,-460.74 204.5,-444.66 204.5,-401 204.5,-401 204.5,-401 204.5,-333 204.5,-290.24 183.96,-242.05 174.81,-222.71"/>
<polygon fill="#63b8ff" stroke="#63b8ff" points="3553.11,-528.94 3563.11,-525.45 3553.12,-521.94 3553.11,-528.94"/>
</g>
<!-- Node169 -->
<g id="node47" class="node">
<title>Node169</title>
<g id="a_node47"><a xlink:href="m__Do__DVDError_8cpp.html" target="_top" xlink:title=" ">
<polygon fill="white" stroke="#666666" points="3764,-475.5 3613,-475.5 3613,-456.5 3764,-456.5 3764,-475.5"/>
<text text-anchor="middle" x="3688.5" y="-463.5" font-family="Helvetica,sans-Serif" font-size="10.00">src/m_Do/m_Do_DVDError.cpp</text>
</a>
</g>
</g>
<!-- Node1&#45;&gt;Node169 -->
<g id="edge70" class="edge">
<title>Node1&#45;&gt;Node169</title>
<path fill="none" stroke="#63b8ff" d="M3651.79,-508.3C3661.32,-497.58 3673.18,-484.23 3680.8,-475.67"/>
<polygon fill="#63b8ff" stroke="#63b8ff" points="3649.21,-505.94 3645.18,-515.74 3654.44,-510.59 3649.21,-505.94"/>
</g>
<!-- Node170 -->
<g id="node48" class="node">
<title>Node170</title>
<g id="a_node48"><a xlink:href="m__Do__MemCard_8cpp.html" target="_top" xlink:title=" ">
<polygon fill="white" stroke="#666666" points="3934.5,-475.5 3782.5,-475.5 3782.5,-456.5 3934.5,-456.5 3934.5,-475.5"/>
<text text-anchor="middle" x="3858.5" y="-463.5" font-family="Helvetica,sans-Serif" font-size="10.00">src/m_Do/m_Do_MemCard.cpp</text>
</a>
</g>
</g>
<!-- Node1&#45;&gt;Node170 -->
<g id="edge71" class="edge">
<title>Node1&#45;&gt;Node170</title>
<path fill="none" stroke="#63b8ff" d="M3681.31,-513.69C3723.61,-502.55 3786.11,-486.08 3824.47,-475.97"/>
<polygon fill="#63b8ff" stroke="#63b8ff" points="3680.46,-510.3 3671.68,-516.23 3682.24,-517.07 3680.46,-510.3"/>
</g>
<!-- Node171 -->
<g id="node49" class="node">
<title>Node171</title>
<g id="a_node49"><a xlink:href="m__Do__Reset_8cpp.html" target="_top" xlink:title=" ">
<polygon fill="white" stroke="#666666" points="4088.5,-475.5 3952.5,-475.5 3952.5,-456.5 4088.5,-456.5 4088.5,-475.5"/>
<text text-anchor="middle" x="4020.5" y="-463.5" font-family="Helvetica,sans-Serif" font-size="10.00">src/m_Do/m_Do_Reset.cpp</text>
</a>
</g>
</g>
<!-- Node1&#45;&gt;Node171 -->
<g id="edge72" class="edge">
<title>Node1&#45;&gt;Node171</title>
<path fill="none" stroke="#63b8ff" d="M3714.66,-514.96C3776.77,-506.39 3865.82,-493.69 3943.5,-481 3953.02,-479.44 3963.18,-477.68 3972.9,-475.93"/>
<polygon fill="#63b8ff" stroke="#63b8ff" points="3714.31,-511.47 3704.88,-516.3 3715.26,-518.41 3714.31,-511.47"/>
</g>
<!-- Node172 -->
<g id="node50" class="node">
<title>Node172</title>
<g id="a_node50"><a xlink:href="m__Do__dvd__thread_8cpp.html" target="_top" xlink:title=" ">
<polygon fill="white" stroke="#666666" points="4264.5,-475.5 4106.5,-475.5 4106.5,-456.5 4264.5,-456.5 4264.5,-475.5"/>
<text text-anchor="middle" x="4185.5" y="-463.5" font-family="Helvetica,sans-Serif" font-size="10.00">src/m_Do/m_Do_dvd_thread.cpp</text>
</a>
</g>
</g>
<!-- Node1&#45;&gt;Node172 -->
<g id="edge74" class="edge">
<title>Node1&#45;&gt;Node172</title>
<path fill="none" stroke="#63b8ff" d="M3719.36,-519.05C3811.77,-511.49 3965.62,-497.84 4097.5,-481 4108.86,-479.55 4121,-477.77 4132.53,-475.97"/>
<polygon fill="#63b8ff" stroke="#63b8ff" points="3719.32,-515.54 3709.63,-519.84 3719.88,-522.52 3719.32,-515.54"/>
</g>
<!-- Node3 -->
<g id="node3" class="node">
<title>Node3</title>
<g id="a_node3"><a xlink:href="d__menu__window_8h.html" target="_top" xlink:title=" ">
<polygon fill="white" stroke="#666666" points="919.5,-415 799.5,-415 799.5,-385 919.5,-385 919.5,-415"/>
<text text-anchor="start" x="807.5" y="-403" font-family="Helvetica,sans-Serif" font-size="10.00">include/d/menu/d_menu</text>
<text text-anchor="middle" x="859.5" y="-392" font-family="Helvetica,sans-Serif" font-size="10.00">_window.h</text>
</a>
</g>
</g>
<!-- Node2&#45;&gt;Node3 -->
<g id="edge2" class="edge">
<title>Node2&#45;&gt;Node3</title>
<path fill="none" stroke="#63b8ff" d="M800.03,-444.25C813,-434.82 828.02,-423.9 839.72,-415.39"/>
<polygon fill="#63b8ff" stroke="#63b8ff" points="798.28,-441.19 792.25,-449.91 802.4,-446.85 798.28,-441.19"/>
</g>
<!-- Node158 -->
<g id="node37" class="node">
<title>Node158</title>
<g id="a_node37"><a xlink:href="m__Do__graphic_8cpp.html" target="_top" xlink:title=" ">
<polygon fill="white" stroke="#666666" points="626.5,-156.5 484.5,-156.5 484.5,-137.5 626.5,-137.5 626.5,-156.5"/>
<text text-anchor="middle" x="555.5" y="-144.5" font-family="Helvetica,sans-Serif" font-size="10.00">src/m_Do/m_Do_graphic.cpp</text>
</a>
</g>
</g>
<!-- Node2&#45;&gt;Node158 -->
<g id="edge62" class="edge">
<title>Node2&#45;&gt;Node158</title>
<path fill="none" stroke="#63b8ff" d="M769.79,-439.52C767.68,-422.9 762.98,-401.34 752.5,-385 738.49,-363.14 724.68,-367.54 706.5,-349 640.8,-281.99 578.95,-185.76 560.82,-156.66"/>
<polygon fill="#63b8ff" stroke="#63b8ff" points="766.27,-439.5 770.77,-449.09 773.24,-438.79 766.27,-439.5"/>
</g>
<!-- Node2&#45;&gt;Node161 -->
<g id="edge63" class="edge">
<title>Node2&#45;&gt;Node161</title>
<path fill="none" stroke="#63b8ff" d="M685.6,-460.47C565.3,-453.35 358.35,-437.93 332.5,-415 305.16,-390.75 313.5,-371.54 313.5,-335 313.5,-335 313.5,-335 313.5,-272.5 313.5,-226.88 286.91,-176.95 275.07,-156.98"/>
<polygon fill="#63b8ff" stroke="#63b8ff" points="685.27,-463.96 695.46,-461.05 685.68,-456.97 685.27,-463.96"/>
</g>
<!-- Node163 -->
<g id="node40" class="node">
<title>Node163</title>
<g id="a_node40"><a xlink:href="d__a__do_8h.html" target="_top" xlink:title=" ">
<polygon fill="white" stroke="#666666" points="1033.5,-415 937.5,-415 937.5,-385 1033.5,-385 1033.5,-415"/>
<text text-anchor="start" x="945.5" y="-403" font-family="Helvetica,sans-Serif" font-size="10.00">include/rel/d/a/d_a</text>
<text text-anchor="middle" x="985.5" y="-392" font-family="Helvetica,sans-Serif" font-size="10.00">_do/d_a_do.h</text>
</a>
</g>
</g>
<!-- Node2&#45;&gt;Node163 -->
<g id="edge57" class="edge">
<title>Node2&#45;&gt;Node163</title>
<path fill="none" stroke="#63b8ff" d="M830.41,-447.38C864.06,-437.32 905.72,-424.86 937.38,-415.39"/>
<polygon fill="#63b8ff" stroke="#63b8ff" points="829.82,-443.91 821.24,-450.12 831.83,-450.61 829.82,-443.91"/>
</g>
<!-- Node164 -->
<g id="node41" class="node">
<title>Node164</title>
<g id="a_node41"><a xlink:href="c__API__controller__pad_8cpp.html" target="_top" xlink:title=" ">
<polygon fill="white" stroke="#666666" points="1185.5,-415 1051.5,-415 1051.5,-385 1185.5,-385 1185.5,-415"/>
<text text-anchor="start" x="1059.5" y="-403" font-family="Helvetica,sans-Serif" font-size="10.00">libs/SSystem/SComponent</text>
<text text-anchor="middle" x="1118.5" y="-392" font-family="Helvetica,sans-Serif" font-size="10.00">/c_API_controller_pad.cpp</text>
</a>
</g>
</g>
<!-- Node2&#45;&gt;Node164 -->
<g id="edge58" class="edge">
<title>Node2&#45;&gt;Node164</title>
<path fill="none" stroke="#63b8ff" d="M857.68,-449.11C917.44,-438.08 995.91,-423.61 1051.11,-413.43"/>
<polygon fill="#63b8ff" stroke="#63b8ff" points="857.05,-445.66 847.86,-450.92 858.32,-452.55 857.05,-445.66"/>
</g>
<!-- Node165 -->
<g id="node42" class="node">
<title>Node165</title>
<g id="a_node42"><a xlink:href="d__lib_8cpp.html" target="_top" xlink:title=" ">
<polygon fill="white" stroke="#666666" points="421.5,-409.5 341.5,-409.5 341.5,-390.5 421.5,-390.5 421.5,-409.5"/>
<text text-anchor="middle" x="381.5" y="-397.5" font-family="Helvetica,sans-Serif" font-size="10.00">src/d/d_lib.cpp</text>
</a>
</g>
</g>
<!-- Node2&#45;&gt;Node165 -->
<g id="edge59" class="edge">
<title>Node2&#45;&gt;Node165</title>
<path fill="none" stroke="#63b8ff" d="M685.54,-455.6C616.25,-447.25 516.53,-433.51 430.5,-415 423.93,-413.59 416.94,-411.78 410.36,-409.93"/>
<polygon fill="#63b8ff" stroke="#63b8ff" points="684.97,-459.06 695.32,-456.76 685.8,-452.11 684.97,-459.06"/>
</g>
<!-- Node50 -->
<g id="node43" class="node">
<title>Node50</title>
<g id="a_node43"><a xlink:href="d__menu__fishing_8cpp.html" target="_top" xlink:title=" ">
<polygon fill="white" stroke="#666666" points="593.5,-409.5 439.5,-409.5 439.5,-390.5 593.5,-390.5 593.5,-409.5"/>
<text text-anchor="middle" x="516.5" y="-397.5" font-family="Helvetica,sans-Serif" font-size="10.00">src/d/menu/d_menu_fishing.cpp</text>
</a>
</g>
</g>
<!-- Node2&#45;&gt;Node50 -->
<g id="edge60" class="edge">
<title>Node2&#45;&gt;Node50</title>
<path fill="none" stroke="#63b8ff" d="M702.89,-447.78C654.31,-435.59 591.13,-419.73 552.21,-409.96"/>
<polygon fill="#63b8ff" stroke="#63b8ff" points="701.94,-451.15 712.49,-450.19 703.64,-444.36 701.94,-451.15"/>
</g>
<!-- Node166 -->
<g id="node44" class="node">
<title>Node166</title>
<g id="a_node44"><a xlink:href="m__Do__controller__pad_8cpp.html" target="_top" xlink:title=" ">
<polygon fill="white" stroke="#666666" points="743.5,-415 611.5,-415 611.5,-385 743.5,-385 743.5,-415"/>
<text text-anchor="start" x="619.5" y="-403" font-family="Helvetica,sans-Serif" font-size="10.00">src/m_Do/m_Do_controller</text>
<text text-anchor="middle" x="677.5" y="-392" font-family="Helvetica,sans-Serif" font-size="10.00">_pad.cpp</text>
</a>
</g>
</g>
<!-- Node2&#45;&gt;Node166 -->
<g id="edge61" class="edge">
<title>Node2&#45;&gt;Node166</title>
<path fill="none" stroke="#63b8ff" d="M741.43,-444.52C727.48,-435.03 711.25,-423.98 698.63,-415.39"/>
<polygon fill="#63b8ff" stroke="#63b8ff" points="739.15,-447.21 749.39,-449.94 743.09,-441.42 739.15,-447.21"/>
</g>
<!-- Node4 -->
<g id="node4" class="node">
<title>Node4</title>
<g id="a_node4"><a xlink:href="d__meter2__info_8h.html" target="_top" xlink:title=" ">
<polygon fill="white" stroke="#666666" points="3220,-349 3093,-349 3093,-319 3220,-319 3220,-349"/>
<text text-anchor="start" x="3101" y="-337" font-family="Helvetica,sans-Serif" font-size="10.00">include/d/meter/d_meter2</text>
<text text-anchor="middle" x="3156.5" y="-326" font-family="Helvetica,sans-Serif" font-size="10.00">_info.h</text>
</a>
</g>
</g>
<!-- Node3&#45;&gt;Node4 -->
<g id="edge3" class="edge">
<title>Node3&#45;&gt;Node4</title>
<path fill="none" stroke="#63b8ff" d="M931.29,-383.72C1381.45,-336.13 2776.98,-334.63 3092.63,-334.9"/>
<polygon fill="#63b8ff" stroke="#63b8ff" points="930.93,-380.24 921.37,-384.8 931.68,-387.2 930.93,-380.24"/>
</g>
<!-- Node51 -->
<g id="node23" class="node">
<title>Node51</title>
<g id="a_node23"><a xlink:href="d__menu__window_8cpp.html" target="_top" xlink:title=" ">
<polygon fill="white" stroke="#666666" points="1593,-90.5 1434,-90.5 1434,-71.5 1593,-71.5 1593,-90.5"/>
<text text-anchor="middle" x="1513.5" y="-78.5" font-family="Helvetica,sans-Serif" font-size="10.00">src/d/menu/d_menu_window.cpp</text>
</a>
</g>
</g>
<!-- Node3&#45;&gt;Node51 -->
<g id="edge55" class="edge">
<title>Node3&#45;&gt;Node51</title>
<path fill="none" stroke="#63b8ff" d="M826.18,-378.46C754.02,-331.6 595.8,-214.47 673.5,-132 699.33,-104.59 1228.78,-88.89 1433.59,-83.83"/>
<polygon fill="#63b8ff" stroke="#63b8ff" points="824.18,-381.34 834.49,-383.78 827.95,-375.44 824.18,-381.34"/>
</g>
<!-- Node58 -->
<g id="node24" class="node">
<title>Node58</title>
<g id="a_node24"><a xlink:href="d__meter__map_8cpp.html" target="_top" xlink:title=" ">
<polygon fill="white" stroke="#666666" points="1715.5,-96 1611.5,-96 1611.5,-66 1715.5,-66 1715.5,-96"/>
<text text-anchor="start" x="1619.5" y="-84" font-family="Helvetica,sans-Serif" font-size="10.00">src/d/meter/d_meter</text>
<text text-anchor="middle" x="1663.5" y="-73" font-family="Helvetica,sans-Serif" font-size="10.00">_map.cpp</text>
</a>
</g>
</g>
<!-- Node3&#45;&gt;Node58 -->
<g id="edge56" class="edge">
<title>Node3&#45;&gt;Node58</title>
<path fill="none" stroke="#63b8ff" d="M848.2,-374.23C837.97,-349.5 824.5,-310.16 824.5,-274.5 824.5,-274.5 824.5,-274.5 824.5,-212 824.5,-168.34 843.2,-152.96 881.5,-132 951.76,-93.54 1522.14,-106.86 1601.5,-96 1604.67,-95.57 1607.92,-95.05 1611.19,-94.48"/>
<polygon fill="#63b8ff" stroke="#63b8ff" points="844.99,-375.61 852.15,-383.41 851.42,-372.84 844.99,-375.61"/>
</g>
<!-- Node4&#45;&gt;Node3 -->
<g id="edge49" class="edge">
<title>Node4&#45;&gt;Node3</title>
<path fill="none" stroke="#63b8ff" d="M3081.51,-334.89C2744.34,-334.7 1367.12,-336.98 937.5,-385 931.79,-385.64 925.85,-386.51 919.9,-387.52"/>
<polygon fill="#63b8ff" stroke="#63b8ff" points="3081.07,-338.39 3091.08,-334.9 3081.08,-331.39 3081.07,-338.39"/>
</g>
<!-- Node5 -->
<g id="node5" class="node">
<title>Node5</title>
<g id="a_node5"><a xlink:href="d__a__alink_8h.html" target="_top" xlink:title=" ">
<polygon fill="white" stroke="#666666" points="3071.5,-283 2955.5,-283 2955.5,-264 3071.5,-264 3071.5,-283"/>
<text text-anchor="middle" x="3013.5" y="-271" font-family="Helvetica,sans-Serif" font-size="10.00">include/d/a/d_a_alink.h</text>
</a>
</g>
</g>
<!-- Node4&#45;&gt;Node5 -->
<g id="edge4" class="edge">
<title>Node4&#45;&gt;Node5</title>
<path fill="none" stroke="#63b8ff" d="M3110.65,-314.24C3085.33,-303.89 3055.07,-291.51 3035.12,-283.35"/>
<polygon fill="#63b8ff" stroke="#63b8ff" points="3109.17,-317.42 3119.75,-317.97 3111.82,-310.94 3109.17,-317.42"/>
</g>
<!-- Node12 -->
<g id="node8" class="node">
<title>Node12</title>
<g id="a_node8"><a xlink:href="d__meter2__info_8cpp.html" target="_top" xlink:title=" ">
<polygon fill="white" stroke="#666666" points="1629.5,-30 1519.5,-30 1519.5,0 1629.5,0 1629.5,-30"/>
<text text-anchor="start" x="1527.5" y="-18" font-family="Helvetica,sans-Serif" font-size="10.00">src/d/meter/d_meter2</text>
<text text-anchor="middle" x="1574.5" y="-7" font-family="Helvetica,sans-Serif" font-size="10.00">_info.cpp</text>
</a>
</g>
</g>
<!-- Node4&#45;&gt;Node12 -->
<g id="edge52" class="edge">
<title>Node4&#45;&gt;Node12</title>
<path fill="none" stroke="#63b8ff" d="M3081.47,-333.12C2686.11,-333.27 862.5,-327.78 862.5,-214 862.5,-214 862.5,-214 862.5,-146 862.5,-79.32 1351.94,-33.85 1519.22,-20.25"/>
<polygon fill="#63b8ff" stroke="#63b8ff" points="3081.24,-336.62 3091.24,-333.11 3081.24,-329.62 3081.24,-336.62"/>
</g>
<!-- Node27 -->
<g id="node14" class="node">
<title>Node27</title>
<g id="a_node14"><a xlink:href="d__com__inf__game_8cpp.html" target="_top" xlink:title=" ">
<polygon fill="white" stroke="#666666" points="3219.5,-96 3111.5,-96 3111.5,-66 3219.5,-66 3219.5,-96"/>
<text text-anchor="start" x="3119.5" y="-84" font-family="Helvetica,sans-Serif" font-size="10.00">src/d/com/d_com_inf</text>
<text text-anchor="middle" x="3165.5" y="-73" font-family="Helvetica,sans-Serif" font-size="10.00">_game.cpp</text>
</a>
</g>
</g>
<!-- Node4&#45;&gt;Node27 -->
<g id="edge50" class="edge">
<title>Node4&#45;&gt;Node27</title>
<path fill="none" stroke="#63b8ff" d="M3231.12,-316.83C3346.84,-288.45 3548.54,-223.88 3470.5,-132 3438.98,-94.89 3298.84,-85.27 3219.95,-82.81"/>
<polygon fill="#63b8ff" stroke="#63b8ff" points="3230.58,-313.36 3221.68,-319.1 3232.22,-320.16 3230.58,-313.36"/>
</g>
<!-- Node28 -->
<g id="node15" class="node">
<title>Node28</title>
<g id="a_node15"><a xlink:href="d__item_8cpp.html" target="_top" xlink:title=" ">
<polygon fill="white" stroke="#666666" points="3525,-90.5 3436,-90.5 3436,-71.5 3525,-71.5 3525,-90.5"/>
<text text-anchor="middle" x="3480.5" y="-78.5" font-family="Helvetica,sans-Serif" font-size="10.00">src/d/d_item.cpp</text>
</a>
</g>
</g>
<!-- Node4&#45;&gt;Node28 -->
<g id="edge51" class="edge">
<title>Node4&#45;&gt;Node28</title>
<path fill="none" stroke="#63b8ff" d="M3231.59,-319.12C3360,-293.63 3612.61,-235.17 3660.5,-162 3694.58,-109.92 3589.23,-91.46 3525.47,-85.13"/>
<polygon fill="#63b8ff" stroke="#63b8ff" points="3230.93,-315.68 3221.79,-321.05 3232.28,-322.55 3230.93,-315.68"/>
</g>
<!-- Node152 -->
<g id="node35" class="node">
<title>Node152</title>
<g id="a_node35"><a xlink:href="d__save_8cpp.html" target="_top" xlink:title=" ">
<polygon fill="white" stroke="#666666" points="3309,-156.5 3194,-156.5 3194,-137.5 3309,-137.5 3309,-156.5"/>
<text text-anchor="middle" x="3251.5" y="-144.5" font-family="Helvetica,sans-Serif" font-size="10.00">src/d/save/d_save.cpp</text>
</a>
</g>
</g>
<!-- Node4&#45;&gt;Node152 -->
<g id="edge54" class="edge">
<title>Node4&#45;&gt;Node152</title>
<path fill="none" stroke="#63b8ff" d="M3198.86,-312.84C3210.87,-305.13 3222.76,-295.19 3230.5,-283 3256.68,-241.74 3254.32,-179.47 3252.41,-156.72"/>
<polygon fill="#63b8ff" stroke="#63b8ff" points="3197.38,-309.64 3190.58,-317.77 3200.96,-315.66 3197.38,-309.64"/>
</g>
<!-- Node162 -->
<g id="node39" class="node">
<title>Node162</title>
<g id="a_node39"><a xlink:href="d__msg__unit_8cpp.html" target="_top" xlink:title=" ">
<polygon fill="white" stroke="#666666" points="3222,-283 3091,-283 3091,-264 3222,-264 3222,-283"/>
<text text-anchor="middle" x="3156.5" y="-271" font-family="Helvetica,sans-Serif" font-size="10.00">src/d/msg/d_msg_unit.cpp</text>
</a>
</g>
</g>
<!-- Node4&#45;&gt;Node162 -->
<g id="edge53" class="edge">
<title>Node4&#45;&gt;Node162</title>
<path fill="none" stroke="#63b8ff" d="M3156.5,-307.3C3156.5,-298.65 3156.5,-289.58 3156.5,-283.18"/>
<polygon fill="#63b8ff" stroke="#63b8ff" points="3153,-307.03 3156.5,-317.03 3160,-307.03 3153,-307.03"/>
</g>
<!-- Node6 -->
<g id="node6" class="node">
<title>Node6</title>
<g id="a_node6"><a xlink:href="d__com__inf__game_8h.html" target="_top" xlink:title=" ">
<polygon fill="#fff0f0" stroke="red" points="2067.5,-228 1957.5,-228 1957.5,-198 2067.5,-198 2067.5,-228"/>
<text text-anchor="start" x="1965.5" y="-216" font-family="Helvetica,sans-Serif" font-size="10.00">include/d/com/d_com</text>
<text text-anchor="middle" x="2012.5" y="-205" font-family="Helvetica,sans-Serif" font-size="10.00">_inf_game.h</text>
</a>
</g>
</g>
<!-- Node5&#45;&gt;Node6 -->
<g id="edge5" class="edge">
<title>Node5&#45;&gt;Node6</title>
<path fill="none" stroke="#63b8ff" d="M2943.96,-268.44C2755.57,-257.43 2238.1,-227.18 2067.71,-217.23"/>
<polygon fill="#63b8ff" stroke="#63b8ff" points="2943.66,-271.92 2953.84,-269.01 2944.07,-264.94 2943.66,-271.92"/>
</g>
<!-- Node18 -->
<g id="node13" class="node">
<title>Node18</title>
<g id="a_node13"><a xlink:href="d__a__alink_8cpp.html" target="_top" xlink:title=" ">
<polygon fill="white" stroke="#666666" points="2674,-90.5 2565,-90.5 2565,-71.5 2674,-71.5 2674,-90.5"/>
<text text-anchor="middle" x="2619.5" y="-78.5" font-family="Helvetica,sans-Serif" font-size="10.00">src/d/a/d_a_alink.cpp</text>
</a>
</g>
</g>
<!-- Node5&#45;&gt;Node18 -->
<g id="edge48" class="edge">
<title>Node5&#45;&gt;Node18</title>
<path fill="none" stroke="#63b8ff" d="M3017.37,-252.42C3021.98,-221.82 3025.5,-163.72 2993.5,-132 2949.6,-88.47 2767.12,-81.95 2674.28,-81.53"/>
<polygon fill="#63b8ff" stroke="#63b8ff" points="3013.93,-251.76 3015.68,-262.21 3020.83,-252.95 3013.93,-251.76"/>
</g>
<!-- Node7 -->
<g id="node7" class="node">
<title>Node7</title>
<g id="a_node7"><a xlink:href="d__a__npc_8h.html" target="_top" xlink:title=" ">
<polygon fill="#fff0f0" stroke="red" points="1883,-90.5 1772,-90.5 1772,-71.5 1883,-71.5 1883,-90.5"/>
<text text-anchor="middle" x="1827.5" y="-78.5" font-family="Helvetica,sans-Serif" font-size="10.00">include/d/a/d_a_npc.h</text>
</a>
</g>
</g>
<!-- Node6&#45;&gt;Node7 -->
<g id="edge6" class="edge">
<title>Node6&#45;&gt;Node7</title>
<path fill="none" stroke="#63b8ff" d="M1945.82,-204.8C1892.12,-197.47 1822.82,-184 1805.5,-162 1788.57,-140.5 1808.89,-106.84 1820.49,-90.92"/>
<polygon fill="#63b8ff" stroke="#63b8ff" points="1945.14,-208.25 1955.51,-206.08 1946.06,-201.31 1945.14,-208.25"/>
</g>
<!-- Node6&#45;&gt;Node12 -->
<g id="edge41" class="edge">
<title>Node6&#45;&gt;Node12</title>
<path fill="none" stroke="#63b8ff" d="M1945.75,-208.04C1840.18,-201.16 1639.75,-185.48 1572.5,-162 1548.75,-153.71 1547.13,-142.99 1524.5,-132 1482.01,-111.37 1451.66,-134.65 1424.5,-96 1396.75,-56.52 1465.63,-34.84 1519.03,-24.32"/>
<polygon fill="#63b8ff" stroke="#63b8ff" points="1945.5,-211.53 1955.7,-208.68 1945.95,-204.54 1945.5,-211.53"/>
</g>
<!-- Node13 -->
<g id="node9" class="node">
<title>Node13</title>
<g id="a_node9"><a xlink:href="d__cc__uty_8h.html" target="_top" xlink:title=" ">
<polygon fill="#fff0f0" stroke="red" points="2072,-156.5 1953,-156.5 1953,-137.5 2072,-137.5 2072,-156.5"/>
<text text-anchor="middle" x="2012.5" y="-144.5" font-family="Helvetica,sans-Serif" font-size="10.00">include/d/cc/d_cc_uty.h</text>
</a>
</g>
</g>
<!-- Node6&#45;&gt;Node13 -->
<g id="edge8" class="edge">
<title>Node6&#45;&gt;Node13</title>
<path fill="none" stroke="#63b8ff" d="M2012.5,-186.59C2012.5,-176.06 2012.5,-164.53 2012.5,-156.84"/>
<polygon fill="#63b8ff" stroke="#63b8ff" points="2009,-186.28 2012.5,-196.28 2016,-186.28 2009,-186.28"/>
</g>
<!-- Node14 -->
<g id="node10" class="node">
<title>Node14</title>
<g id="a_node10"><a xlink:href="d__a__b__ob_8h.html" target="_top" xlink:title=" ">
<polygon fill="#fff0f0" stroke="red" points="2109.5,-96 2003.5,-96 2003.5,-66 2109.5,-66 2109.5,-96"/>
<text text-anchor="start" x="2011.5" y="-84" font-family="Helvetica,sans-Serif" font-size="10.00">include/rel/d/a/b/d</text>
<text text-anchor="middle" x="2056.5" y="-73" font-family="Helvetica,sans-Serif" font-size="10.00">_a_b_ob/d_a_b_ob.h</text>
</a>
</g>
</g>
<!-- Node6&#45;&gt;Node14 -->
<g id="edge32" class="edge">
<title>Node6&#45;&gt;Node14</title>
<path fill="none" stroke="#63b8ff" d="M2053.23,-191.36C2064.09,-183.71 2074.46,-173.93 2080.5,-162 2091.43,-140.39 2077.89,-112.93 2067.15,-96.45"/>
<polygon fill="#63b8ff" stroke="#63b8ff" points="2051.45,-188.34 2044.94,-196.71 2055.24,-194.23 2051.45,-188.34"/>
</g>
<!-- Node22 -->
<g id="node11" class="node">
<title>Node22</title>
<g id="a_node11"><a xlink:href="d__error__msg_8h.html" target="_top" xlink:title=" ">
<polygon fill="#fff0f0" stroke="red" points="1934.5,-156.5 1814.5,-156.5 1814.5,-137.5 1934.5,-137.5 1934.5,-156.5"/>
<text text-anchor="middle" x="1874.5" y="-144.5" font-family="Helvetica,sans-Serif" font-size="10.00">include/d/d_error_msg.h</text>
</a>
</g>
</g>
<!-- Node6&#45;&gt;Node22 -->
<g id="edge10" class="edge">
<title>Node6&#45;&gt;Node22</title>
<path fill="none" stroke="#63b8ff" d="M1971.33,-192.91C1945.68,-181.01 1913.87,-166.26 1893.88,-156.99"/>
<polygon fill="#63b8ff" stroke="#63b8ff" points="1969.61,-195.97 1980.16,-197 1972.56,-189.62 1969.61,-195.97"/>
</g>
<!-- Node25 -->
<g id="node12" class="node">
<title>Node25</title>
<g id="a_node12"><a xlink:href="d__item_8h.html" target="_top" xlink:title=" ">
<polygon fill="#fff0f0" stroke="red" points="3137,-156.5 3042,-156.5 3042,-137.5 3137,-137.5 3137,-156.5"/>
<text text-anchor="middle" x="3089.5" y="-144.5" font-family="Helvetica,sans-Serif" font-size="10.00">include/d/d_item.h</text>
</a>
</g>
</g>
<!-- Node6&#45;&gt;Node25 -->
<g id="edge11" class="edge">
<title>Node6&#45;&gt;Node25</title>
<path fill="none" stroke="#63b8ff" d="M2079.4,-210.75C2238.3,-207.32 2650.76,-195.65 2993.5,-162 3009.26,-160.45 3026.39,-158.15 3041.75,-155.86"/>
<polygon fill="#63b8ff" stroke="#63b8ff" points="2079.39,-207.25 2069.46,-210.96 2079.53,-214.25 2079.39,-207.25"/>
</g>
<!-- Node6&#45;&gt;Node18 -->
<g id="edge38" class="edge">
<title>Node6&#45;&gt;Node18</title>
<path fill="none" stroke="#63b8ff" d="M2047.41,-191.79C2086.5,-169.31 2145.92,-135.66 2157.5,-132 2299.43,-87.16 2476.75,-80.98 2564.73,-81.03"/>
<polygon fill="#63b8ff" stroke="#63b8ff" points="2045.69,-188.74 2038.78,-196.77 2049.19,-194.81 2045.69,-188.74"/>
</g>
<!-- Node6&#45;&gt;Node27 -->
<g id="edge39" class="edge">
<title>Node6&#45;&gt;Node27</title>
<path fill="none" stroke="#63b8ff" d="M2079.05,-211.24C2315.63,-208.27 3104.06,-195.86 3145.5,-162 3164.9,-146.15 3167.12,-114.59 3166.59,-96.2"/>
<polygon fill="#63b8ff" stroke="#63b8ff" points="2079.35,-207.74 2069.39,-211.36 2079.44,-214.74 2079.35,-207.74"/>
</g>
<!-- Node30 -->
<g id="node16" class="node">
<title>Node30</title>
<g id="a_node16"><a xlink:href="d__kantera__icon__meter_8h.html" target="_top" xlink:title=" ">
<polygon fill="#fff0f0" stroke="red" points="2268,-162 2167,-162 2167,-132 2268,-132 2268,-162"/>
<text text-anchor="start" x="2175" y="-150" font-family="Helvetica,sans-Serif" font-size="10.00">include/d/d_kantera</text>
<text text-anchor="middle" x="2217.5" y="-139" font-family="Helvetica,sans-Serif" font-size="10.00">_icon_meter.h</text>
</a>
</g>
</g>
<!-- Node6&#45;&gt;Node30 -->
<g id="edge15" class="edge">
<title>Node6&#45;&gt;Node30</title>
<path fill="none" stroke="#63b8ff" d="M2069.35,-194.25C2101.51,-184.21 2141.2,-171.82 2171.41,-162.39"/>
<polygon fill="#63b8ff" stroke="#63b8ff" points="2068.71,-190.79 2060.21,-197.11 2070.8,-197.47 2068.71,-190.79"/>
</g>
<!-- Node33 -->
<g id="node17" class="node">
<title>Node33</title>
<g id="a_node17"><a xlink:href="d__model_8h.html" target="_top" xlink:title=" ">
<polygon fill="#fff0f0" stroke="red" points="2389,-156.5 2286,-156.5 2286,-137.5 2389,-137.5 2389,-156.5"/>
<text text-anchor="middle" x="2337.5" y="-144.5" font-family="Helvetica,sans-Serif" font-size="10.00">include/d/d_model.h</text>
</a>
</g>
</g>
<!-- Node6&#45;&gt;Node33 -->
<g id="edge16" class="edge">
<title>Node6&#45;&gt;Node33</title>
<path fill="none" stroke="#63b8ff" d="M2079.03,-200.13C2132.5,-190.42 2209.47,-176.03 2276.5,-162 2283.94,-160.44 2291.88,-158.69 2299.48,-156.96"/>
<polygon fill="#63b8ff" stroke="#63b8ff" points="2078.7,-196.63 2069.48,-201.86 2079.94,-203.52 2078.7,-196.63"/>
</g>
<!-- Node35 -->
<g id="node18" class="node">
<title>Node35</title>
<g id="a_node18"><a xlink:href="d__name_8h.html" target="_top" xlink:title=" ">
<polygon fill="#fff0f0" stroke="red" points="2508,-156.5 2407,-156.5 2407,-137.5 2508,-137.5 2508,-156.5"/>
<text text-anchor="middle" x="2457.5" y="-144.5" font-family="Helvetica,sans-Serif" font-size="10.00">include/d/d_name.h</text>
</a>
</g>
</g>
<!-- Node6&#45;&gt;Node35 -->
<g id="edge17" class="edge">
<title>Node6&#45;&gt;Node35</title>
<path fill="none" stroke="#63b8ff" d="M2079.35,-205.37C2156.39,-197.26 2286.63,-182.08 2397.5,-162 2405.39,-160.57 2413.81,-158.78 2421.77,-156.95"/>
<polygon fill="#63b8ff" stroke="#63b8ff" points="2079,-201.89 2069.42,-206.41 2079.73,-208.85 2079,-201.89"/>
</g>
<!-- Node37 -->
<g id="node19" class="node">
<title>Node37</title>
<g id="a_node19"><a xlink:href="d__file__sel__info_8h.html" target="_top" xlink:title=" ">
<polygon fill="#fff0f0" stroke="red" points="2622.5,-162 2526.5,-162 2526.5,-132 2622.5,-132 2622.5,-162"/>
<text text-anchor="start" x="2534.5" y="-150" font-family="Helvetica,sans-Serif" font-size="10.00">include/d/file/d_file</text>
<text text-anchor="middle" x="2574.5" y="-139" font-family="Helvetica,sans-Serif" font-size="10.00">_sel_info.h</text>
</a>
</g>
</g>
<!-- Node6&#45;&gt;Node37 -->
<g id="edge18" class="edge">
<title>Node6&#45;&gt;Node37</title>
<path fill="none" stroke="#63b8ff" d="M2079,-208.33C2175.8,-202.34 2360.92,-188.36 2516.5,-162 2519.67,-161.46 2522.92,-160.85 2526.18,-160.19"/>
<polygon fill="#63b8ff" stroke="#63b8ff" points="2078.93,-204.83 2069.16,-208.93 2079.35,-211.82 2078.93,-204.83"/>
</g>
<!-- Node40 -->
<g id="node20" class="node">
<title>Node40</title>
<g id="a_node20"><a xlink:href="d__file__sel__warning_8h.html" target="_top" xlink:title=" ">
<polygon fill="#fff0f0" stroke="red" points="2736.5,-162 2640.5,-162 2640.5,-132 2736.5,-132 2736.5,-162"/>
<text text-anchor="start" x="2648.5" y="-150" font-family="Helvetica,sans-Serif" font-size="10.00">include/d/file/d_file</text>
<text text-anchor="middle" x="2688.5" y="-139" font-family="Helvetica,sans-Serif" font-size="10.00">_sel_warning.h</text>
</a>
</g>
</g>
<!-- Node6&#45;&gt;Node40 -->
<g id="edge19" class="edge">
<title>Node6&#45;&gt;Node40</title>
<path fill="none" stroke="#63b8ff" d="M2079.21,-210.11C2193.12,-206.11 2432.15,-194.32 2631.5,-162 2634.32,-161.54 2637.2,-161.02 2640.1,-160.45"/>
<polygon fill="#63b8ff" stroke="#63b8ff" points="2079.31,-206.61 2069.44,-210.45 2079.55,-213.6 2079.31,-206.61"/>
</g>
<!-- Node42 -->
<g id="node21" class="node">
<title>Node42</title>
<g id="a_node21"><a xlink:href="d__meter2_8h.html" target="_top" xlink:title=" ">
<polygon fill="#fff0f0" stroke="red" points="3461.5,-156.5 3327.5,-156.5 3327.5,-137.5 3461.5,-137.5 3461.5,-156.5"/>
<text text-anchor="middle" x="3394.5" y="-144.5" font-family="Helvetica,sans-Serif" font-size="10.00">include/d/meter/d_meter2.h</text>
</a>
</g>
</g>
<!-- Node6&#45;&gt;Node42 -->
<g id="edge20" class="edge">
<title>Node6&#45;&gt;Node42</title>
<path fill="none" stroke="#63b8ff" d="M2079.18,-210.69C2309.93,-205.98 3073.7,-188.7 3317.5,-162 3328.58,-160.79 3340.46,-158.91 3351.49,-156.93"/>
<polygon fill="#63b8ff" stroke="#63b8ff" points="2079.39,-207.19 2069.47,-210.89 2079.54,-214.19 2079.39,-207.19"/>
</g>
<!-- Node44 -->
<g id="node22" class="node">
<title>Node44</title>
<g id="a_node22"><a xlink:href="d__msg__object_8h.html" target="_top" xlink:title=" ">
<polygon fill="#fff0f0" stroke="red" points="1758.5,-162 1648.5,-162 1648.5,-132 1758.5,-132 1758.5,-162"/>
<text text-anchor="start" x="1656.5" y="-150" font-family="Helvetica,sans-Serif" font-size="10.00">include/d/msg/d_msg</text>
<text text-anchor="middle" x="1703.5" y="-139" font-family="Helvetica,sans-Serif" font-size="10.00">_object.h</text>
</a>
</g>
</g>
<!-- Node6&#45;&gt;Node44 -->
<g id="edge22" class="edge">
<title>Node6&#45;&gt;Node44</title>
<path fill="none" stroke="#63b8ff" d="M1946.05,-198.24C1890.19,-186.67 1811.26,-170.32 1758.78,-159.45"/>
<polygon fill="#63b8ff" stroke="#63b8ff" points="1945.27,-201.65 1955.77,-200.25 1946.69,-194.8 1945.27,-201.65"/>
</g>
<!-- Node6&#45;&gt;Node51 -->
<g id="edge40" class="edge">
<title>Node6&#45;&gt;Node51</title>
<path fill="none" stroke="#63b8ff" d="M1946.1,-212.68C1867.85,-211.38 1735.1,-202.57 1629.5,-162 1585.2,-144.98 1541.42,-107.81 1522.82,-90.81"/>
<polygon fill="#63b8ff" stroke="#63b8ff" points="1945.69,-216.17 1955.73,-212.8 1945.78,-209.17 1945.69,-216.17"/>
</g>
<!-- Node6&#45;&gt;Node58 -->
<g id="edge42" class="edge">
<title>Node6&#45;&gt;Node58</title>
<path fill="none" stroke="#63b8ff" d="M1945.93,-207.77C1844.11,-200.62 1659.33,-184.67 1639.5,-162 1623.17,-143.34 1639.37,-113.91 1651.92,-96.43"/>
<polygon fill="#63b8ff" stroke="#63b8ff" points="1945.59,-211.26 1955.81,-208.46 1946.07,-204.27 1945.59,-211.26"/>
</g>
<!-- Node65 -->
<g id="node25" class="node">
<title>Node65</title>
<g id="a_node25"><a xlink:href="d__s__logo_8h.html" target="_top" xlink:title=" ">
<polygon fill="white" stroke="#666666" points="796,-156.5 683,-156.5 683,-137.5 796,-137.5 796,-156.5"/>
<text text-anchor="middle" x="739.5" y="-144.5" font-family="Helvetica,sans-Serif" font-size="10.00">include/d/s/d_s_logo.h</text>
</a>
</g>
</g>
<!-- Node6&#45;&gt;Node65 -->
<g id="edge28" class="edge">
<title>Node6&#45;&gt;Node65</title>
<path fill="none" stroke="#63b8ff" d="M1945.82,-210.31C1771.01,-205.61 1285.11,-190.8 881.5,-162 853.45,-160 822.37,-157.02 796.44,-154.32"/>
<polygon fill="#63b8ff" stroke="#63b8ff" points="1945.52,-213.81 1955.61,-210.57 1945.71,-206.81 1945.52,-213.81"/>
</g>
<!-- Node67 -->
<g id="node27" class="node">
<title>Node67</title>
<g id="a_node27"><a xlink:href="d__s__play_8h.html" target="_top" xlink:title=" ">
<polygon fill="#fff0f0" stroke="red" points="2868,-156.5 2755,-156.5 2755,-137.5 2868,-137.5 2868,-156.5"/>
<text text-anchor="middle" x="2811.5" y="-144.5" font-family="Helvetica,sans-Serif" font-size="10.00">include/d/s/d_s_play.h</text>
</a>
</g>
</g>
<!-- Node6&#45;&gt;Node67 -->
<g id="edge30" class="edge">
<title>Node6&#45;&gt;Node67</title>
<path fill="none" stroke="#63b8ff" d="M2079.19,-210.59C2208.36,-207.17 2501.47,-196.03 2745.5,-162 2754.66,-160.72 2764.46,-158.9 2773.62,-156.99"/>
<polygon fill="#63b8ff" stroke="#63b8ff" points="2079.37,-207.09 2069.46,-210.84 2079.55,-214.08 2079.37,-207.09"/>
</g>
<!-- Node74 -->
<g id="node28" class="node">
<title>Node74</title>
<g id="a_node28"><a xlink:href="d__msg__scrn__base_8h.html" target="_top" xlink:title=" ">
<polygon fill="#fff0f0" stroke="red" points="2985,-162 2886,-162 2886,-132 2985,-132 2985,-162"/>
<text text-anchor="start" x="2894" y="-150" font-family="Helvetica,sans-Serif" font-size="10.00">include/msg/scrn/d</text>
<text text-anchor="middle" x="2935.5" y="-139" font-family="Helvetica,sans-Serif" font-size="10.00">_msg_scrn_base.h</text>
</a>
</g>
</g>
<!-- Node6&#45;&gt;Node74 -->
<g id="edge31" class="edge">
<title>Node6&#45;&gt;Node74</title>
<path fill="none" stroke="#63b8ff" d="M2079.29,-212.1C2224.91,-211.46 2581.58,-205.18 2876.5,-162 2879.52,-161.56 2882.61,-161.04 2885.73,-160.46"/>
<polygon fill="#63b8ff" stroke="#63b8ff" points="2079.43,-208.6 2069.44,-212.14 2079.46,-215.6 2079.43,-208.6"/>
</g>
<!-- Node78 -->
<g id="node29" class="node">
<title>Node78</title>
<g id="a_node29"><a xlink:href="d__a__b__zant_8h.html" target="_top" xlink:title=" ">
<polygon fill="white" stroke="#666666" points="1012,-162 891,-162 891,-132 1012,-132 1012,-162"/>
<text text-anchor="start" x="899" y="-150" font-family="Helvetica,sans-Serif" font-size="10.00">include/rel/d/a/b/d</text>
<text text-anchor="middle" x="951.5" y="-139" font-family="Helvetica,sans-Serif" font-size="10.00">_a_b_zant/d_a_b_zant.h</text>
</a>
</g>
</g>
<!-- Node6&#45;&gt;Node78 -->
<g id="edge33" class="edge">
<title>Node6&#45;&gt;Node78</title>
<path fill="none" stroke="#63b8ff" d="M1946.14,-212.01C1786.32,-211.31 1367.69,-205.12 1021.5,-162 1018.55,-161.63 1015.53,-161.21 1012.5,-160.75"/>
<polygon fill="#63b8ff" stroke="#63b8ff" points="1945.66,-215.51 1955.68,-212.05 1945.69,-208.51 1945.66,-215.51"/>
</g>
<!-- Node79 -->
<g id="node30" class="node">
<title>Node79</title>
<g id="a_node30"><a xlink:href="d__a__andsw_8h.html" target="_top" xlink:title=" ">
<polygon fill="white" stroke="#666666" points="1140.5,-162 1030.5,-162 1030.5,-132 1140.5,-132 1140.5,-162"/>
<text text-anchor="start" x="1038.5" y="-150" font-family="Helvetica,sans-Serif" font-size="10.00">include/rel/d/a/d_a</text>
<text text-anchor="middle" x="1085.5" y="-139" font-family="Helvetica,sans-Serif" font-size="10.00">_andsw/d_a_andsw.h</text>
</a>
</g>
</g>
<!-- Node6&#45;&gt;Node79 -->
<g id="edge34" class="edge">
<title>Node6&#45;&gt;Node79</title>
<path fill="none" stroke="#63b8ff" d="M1945.84,-211.7C1800.5,-210.28 1444.45,-202.55 1149.5,-162 1146.68,-161.61 1143.81,-161.17 1140.91,-160.68"/>
<polygon fill="#63b8ff" stroke="#63b8ff" points="1945.64,-215.2 1955.67,-211.79 1945.7,-208.2 1945.64,-215.2"/>
</g>
<!-- Node80 -->
<g id="node31" class="node">
<title>Node80</title>
<g id="a_node31"><a xlink:href="d__a__cstaF_8h.html" target="_top" xlink:title=" ">
<polygon fill="white" stroke="#666666" points="1262,-162 1159,-162 1159,-132 1262,-132 1262,-162"/>
<text text-anchor="start" x="1167" y="-150" font-family="Helvetica,sans-Serif" font-size="10.00">include/rel/d/a/d_a</text>
<text text-anchor="middle" x="1210.5" y="-139" font-family="Helvetica,sans-Serif" font-size="10.00">_cstaF/d_a_cstaF.h</text>
</a>
</g>
</g>
<!-- Node6&#45;&gt;Node80 -->
<g id="edge35" class="edge">
<title>Node6&#45;&gt;Node80</title>
<path fill="none" stroke="#63b8ff" d="M1946.01,-211.03C1815.85,-208.36 1518.52,-198.45 1271.5,-162 1268.49,-161.56 1265.41,-161.04 1262.31,-160.48"/>
<polygon fill="#63b8ff" stroke="#63b8ff" points="1945.76,-214.53 1955.82,-211.23 1945.89,-207.53 1945.76,-214.53"/>
</g>
<!-- Node81 -->
<g id="node32" class="node">
<title>Node81</title>
<g id="a_node32"><a xlink:href="d__a__dmidna_8h.html" target="_top" xlink:title=" ">
<polygon fill="white" stroke="#666666" points="1396.5,-162 1280.5,-162 1280.5,-132 1396.5,-132 1396.5,-162"/>
<text text-anchor="start" x="1288.5" y="-150" font-family="Helvetica,sans-Serif" font-size="10.00">include/rel/d/a/d_a</text>
<text text-anchor="middle" x="1338.5" y="-139" font-family="Helvetica,sans-Serif" font-size="10.00">_dmidna/d_a_dmidna.h</text>
</a>
</g>
</g>
<!-- Node6&#45;&gt;Node81 -->
<g id="edge36" class="edge">
<title>Node6&#45;&gt;Node81</title>
<path fill="none" stroke="#63b8ff" d="M1945.55,-209.2C1833.38,-203.9 1600.56,-190.3 1405.5,-162 1402.68,-161.59 1399.8,-161.13 1396.89,-160.64"/>
<polygon fill="#63b8ff" stroke="#63b8ff" points="1945.34,-212.69 1955.49,-209.66 1945.66,-205.7 1945.34,-212.69"/>
</g>
<!-- Node82 -->
<g id="node33" class="node">
<title>Node82</title>
<g id="a_node33"><a xlink:href="d__a__econt_8h.html" target="_top" xlink:title=" ">
<polygon fill="white" stroke="#666666" points="1516,-162 1415,-162 1415,-132 1516,-132 1516,-162"/>
<text text-anchor="start" x="1423" y="-150" font-family="Helvetica,sans-Serif" font-size="10.00">include/rel/d/a/d_a</text>
<text text-anchor="middle" x="1465.5" y="-139" font-family="Helvetica,sans-Serif" font-size="10.00">_econt/d_a_econt.h</text>
</a>
</g>
</g>
<!-- Node6&#45;&gt;Node82 -->
<g id="edge37" class="edge">
<title>Node6&#45;&gt;Node82</title>
<path fill="none" stroke="#63b8ff" d="M1946.08,-207.41C1852.85,-200.44 1678.05,-185.47 1530.5,-162 1525.94,-161.27 1521.22,-160.43 1516.5,-159.53"/>
<polygon fill="#63b8ff" stroke="#63b8ff" points="1945.57,-210.88 1955.8,-208.13 1946.08,-203.9 1945.57,-210.88"/>
</g>
<!-- Node151 -->
<g id="node34" class="node">
<title>Node151</title>
<g id="a_node34"><a xlink:href="d__s__name_8cpp.html" target="_top" xlink:title=" ">
<polygon fill="white" stroke="#666666" points="466,-156.5 353,-156.5 353,-137.5 466,-137.5 466,-156.5"/>
<text text-anchor="middle" x="409.5" y="-144.5" font-family="Helvetica,sans-Serif" font-size="10.00">src/d/s/d_s_name.cpp</text>
</a>
</g>
</g>
<!-- Node6&#45;&gt;Node151 -->
<g id="edge43" class="edge">
<title>Node6&#45;&gt;Node151</title>
<path fill="none" stroke="#63b8ff" d="M1945.85,-211.4C1689.45,-208.84 766.54,-197.32 475.5,-162 465.85,-160.83 455.52,-158.95 445.96,-156.93"/>
<polygon fill="#63b8ff" stroke="#63b8ff" points="1945.65,-214.9 1955.68,-211.49 1945.72,-207.9 1945.65,-214.9"/>
</g>
<!-- Node6&#45;&gt;Node152 -->
<g id="edge44" class="edge">
<title>Node6&#45;&gt;Node152</title>
<path fill="none" stroke="#63b8ff" d="M2079.01,-212.61C2257.71,-213.52 2762.95,-211.14 3179.5,-162 3189.74,-160.79 3200.71,-158.95 3210.92,-156.99"/>
<polygon fill="#63b8ff" stroke="#63b8ff" points="2079.25,-209.11 2069.23,-212.56 2079.21,-216.11 2079.25,-209.11"/>
</g>
<!-- Node6&#45;&gt;Node157 -->
<g id="edge45" class="edge">
<title>Node6&#45;&gt;Node157</title>
<path fill="none" stroke="#63b8ff" d="M2079.13,-211.8C2285.91,-210.72 2934.91,-203.99 3470.5,-162 3486.4,-160.75 3503.5,-158.92 3519.49,-156.99"/>
<polygon fill="#63b8ff" stroke="#63b8ff" points="2079.38,-208.3 2069.39,-211.85 2079.41,-215.3 2079.38,-208.3"/>
</g>
<!-- Node6&#45;&gt;Node158 -->
<g id="edge46" class="edge">
<title>Node6&#45;&gt;Node158</title>
<path fill="none" stroke="#63b8ff" d="M1945.75,-211.41C1750.03,-209.28 1160.74,-199.94 673.5,-162 657.15,-160.73 639.57,-158.89 623.11,-156.97"/>
<polygon fill="#63b8ff" stroke="#63b8ff" points="1945.69,-214.91 1955.73,-211.52 1945.77,-207.91 1945.69,-214.91"/>
</g>
<!-- Node6&#45;&gt;Node161 -->
<g id="edge47" class="edge">
<title>Node6&#45;&gt;Node161</title>
<path fill="none" stroke="#63b8ff" d="M1946.02,-211.4C1676.22,-208.77 662.23,-196.71 343.5,-162 332.71,-160.83 321.14,-158.94 310.43,-156.93"/>
<polygon fill="#63b8ff" stroke="#63b8ff" points="1945.64,-214.9 1955.67,-211.5 1945.7,-207.9 1945.64,-214.9"/>
</g>
<!-- Node7&#45;&gt;Node12 -->
<g id="edge7" class="edge">
<title>Node7&#45;&gt;Node12</title>
<path fill="none" stroke="#63b8ff" d="M1781.13,-68.27C1738.42,-57.46 1674.99,-41.42 1629.68,-29.96"/>
<polygon fill="#63b8ff" stroke="#63b8ff" points="1780.03,-71.6 1790.59,-70.66 1781.75,-64.82 1780.03,-71.6"/>
</g>
<!-- Node13&#45;&gt;Node14 -->
<g id="edge9" class="edge">
<title>Node13&#45;&gt;Node14</title>
<path fill="none" stroke="#63b8ff" d="M2025.08,-127.7C2031.96,-117.7 2040.34,-105.51 2046.71,-96.23"/>
<polygon fill="#63b8ff" stroke="#63b8ff" points="2022.26,-125.63 2019.48,-135.85 2028.02,-129.6 2022.26,-125.63"/>
</g>
<!-- Node25&#45;&gt;Node18 -->
<g id="edge12" class="edge">
<title>Node25&#45;&gt;Node18</title>
<path fill="none" stroke="#63b8ff" d="M3041.59,-134.68C3036.85,-133.71 3032.09,-132.8 3027.5,-132 2901.82,-110.17 2752.73,-94.45 2674.2,-86.95"/>
<polygon fill="#63b8ff" stroke="#63b8ff" points="3040.58,-138.05 3051.09,-136.71 3042.04,-131.2 3040.58,-138.05"/>
</g>
<!-- Node25&#45;&gt;Node27 -->
<g id="edge13" class="edge">
<title>Node25&#45;&gt;Node27</title>
<path fill="none" stroke="#63b8ff" d="M3108.6,-129.92C3120.8,-119.64 3136.49,-106.43 3148.31,-96.48"/>
<polygon fill="#63b8ff" stroke="#63b8ff" points="3106.62,-127.01 3101.23,-136.13 3111.13,-132.36 3106.62,-127.01"/>
</g>
<!-- Node25&#45;&gt;Node28 -->
<g id="edge14" class="edge">
<title>Node25&#45;&gt;Node28</title>
<path fill="none" stroke="#63b8ff" d="M3148.63,-136.32C3227.41,-123.43 3365.08,-100.89 3435.79,-89.32"/>
<polygon fill="#63b8ff" stroke="#63b8ff" points="3148.24,-132.84 3138.94,-137.91 3149.37,-139.75 3148.24,-132.84"/>
</g>
<!-- Node42&#45;&gt;Node4 -->
<g id="edge21" class="edge">
<title>Node42&#45;&gt;Node4</title>
<path fill="none" stroke="#63b8ff" d="M3378.87,-165.16C3353.51,-192.37 3301.03,-246.1 3249.5,-283 3230.13,-296.88 3206.45,-309.55 3187.83,-318.67"/>
<polygon fill="#63b8ff" stroke="#63b8ff" points="3381.42,-167.55 3385.63,-157.83 3376.28,-162.81 3381.42,-167.55"/>
</g>
<!-- Node44&#45;&gt;Node7 -->
<g id="edge23" class="edge">
<title>Node44&#45;&gt;Node7</title>
<path fill="none" stroke="#63b8ff" d="M1741.42,-126.43C1764.3,-114.62 1792.36,-100.14 1810.09,-90.99"/>
<polygon fill="#63b8ff" stroke="#63b8ff" points="1739.95,-123.25 1732.67,-130.94 1743.16,-129.47 1739.95,-123.25"/>
</g>
<!-- Node44&#45;&gt;Node12 -->
<g id="edge26" class="edge">
<title>Node44&#45;&gt;Node12</title>
<path fill="none" stroke="#63b8ff" d="M1719.62,-121.94C1728.79,-104.96 1736.32,-82.4 1724.5,-66 1703.07,-36.27 1663.2,-23.95 1629.95,-18.97"/>
<polygon fill="#63b8ff" stroke="#63b8ff" points="1716.7,-119.99 1714.62,-130.38 1722.72,-123.56 1716.7,-119.99"/>
</g>
<!-- Node44&#45;&gt;Node18 -->
<g id="edge24" class="edge">
<title>Node44&#45;&gt;Node18</title>
<path fill="none" stroke="#63b8ff" d="M1770.13,-136.12C1781.89,-134.59 1794.04,-133.14 1805.5,-132 2090.46,-103.73 2433.23,-88.92 2564.6,-83.95"/>
<polygon fill="#63b8ff" stroke="#63b8ff" points="1769.94,-132.62 1760.5,-137.41 1770.87,-139.55 1769.94,-132.62"/>
</g>
<!-- Node44&#45;&gt;Node51 -->
<g id="edge25" class="edge">
<title>Node44&#45;&gt;Node51</title>
<path fill="none" stroke="#63b8ff" d="M1650.08,-128.01C1614.24,-115.93 1568.57,-100.55 1540.18,-90.99"/>
<polygon fill="#63b8ff" stroke="#63b8ff" points="1648.83,-131.28 1659.43,-131.15 1651.07,-124.64 1648.83,-131.28"/>
</g>
<!-- Node44&#45;&gt;Node58 -->
<g id="edge27" class="edge">
<title>Node44&#45;&gt;Node58</title>
<path fill="none" stroke="#63b8ff" d="M1688.57,-122.11C1683.11,-113.38 1677.11,-103.78 1672.35,-96.16"/>
<polygon fill="#63b8ff" stroke="#63b8ff" points="1685.55,-123.89 1693.82,-130.51 1691.49,-120.18 1685.55,-123.89"/>
</g>
<!-- Node66 -->
<g id="node26" class="node">
<title>Node66</title>
<g id="a_node26"><a xlink:href="d__s__logo_8cpp.html" target="_top" xlink:title=" ">
<polygon fill="white" stroke="#666666" points="511,-90.5 404,-90.5 404,-71.5 511,-71.5 511,-90.5"/>
<text text-anchor="middle" x="457.5" y="-78.5" font-family="Helvetica,sans-Serif" font-size="10.00">src/d/s/d_s_logo.cpp</text>
</a>
</g>
</g>
<!-- Node65&#45;&gt;Node66 -->
<g id="edge29" class="edge">
<title>Node65&#45;&gt;Node66</title>
<path fill="none" stroke="#63b8ff" d="M689.09,-134.56C634.01,-122.06 546.95,-102.3 496.74,-90.91"/>
<polygon fill="#63b8ff" stroke="#63b8ff" points="687.99,-137.9 698.52,-136.7 689.54,-131.07 687.99,-137.9"/>
</g>
<!-- Node167&#45;&gt;Node66 -->
<g id="edge65" class="edge">
<title>Node167&#45;&gt;Node66</title>
<path fill="none" stroke="#63b8ff" d="M170.93,-191.87C172.46,-173.56 177.69,-147.15 194.5,-132 224.62,-104.85 335.88,-91.48 403.66,-85.72"/>
<polygon fill="#63b8ff" stroke="#63b8ff" points="167.44,-191.58 170.44,-201.74 174.43,-191.93 167.44,-191.58"/>
</g>
<!-- Node167&#45;&gt;Node151 -->
<g id="edge66" class="edge">
<title>Node167&#45;&gt;Node151</title>
<path fill="none" stroke="#63b8ff" d="M214.99,-200.09C261.75,-187.57 334.22,-168.16 376.24,-156.91"/>
<polygon fill="#63b8ff" stroke="#63b8ff" points="214.2,-196.67 205.45,-202.64 216.01,-203.44 214.2,-196.67"/>
</g>
<!-- Node167&#45;&gt;Node158 -->
<g id="edge67" class="edge">
<title>Node167&#45;&gt;Node158</title>
<path fill="none" stroke="#63b8ff" d="M237.11,-201.2C298.72,-191.18 392.82,-175.78 474.5,-162 484.07,-160.39 494.27,-158.64 504.09,-156.95"/>
<polygon fill="#63b8ff" stroke="#63b8ff" points="236.8,-197.71 227.49,-202.77 237.92,-204.62 236.8,-197.71"/>
</g>
<!-- Node167&#45;&gt;Node161 -->
<g id="edge69" class="edge">
<title>Node167&#45;&gt;Node161</title>
<path fill="none" stroke="#63b8ff" d="M193.84,-196.91C213.14,-184.44 239.87,-167.15 255.85,-156.82"/>
<polygon fill="#63b8ff" stroke="#63b8ff" points="192.03,-193.91 185.54,-202.28 195.83,-199.79 192.03,-193.91"/>
</g>
<!-- Node168 -->
<g id="node46" class="node">
<title>Node168</title>
<g id="a_node46"><a xlink:href="m__Do__machine_8cpp.html" target="_top" xlink:title=" ">
<polygon fill="white" stroke="#666666" points="147,-156.5 0,-156.5 0,-137.5 147,-137.5 147,-156.5"/>
<text text-anchor="middle" x="73.5" y="-144.5" font-family="Helvetica,sans-Serif" font-size="10.00">src/m_Do/m_Do_machine.cpp</text>
</a>
</g>
</g>
<!-- Node167&#45;&gt;Node168 -->
<g id="edge68" class="edge">
<title>Node167&#45;&gt;Node168</title>
<path fill="none" stroke="#63b8ff" d="M147.63,-196.91C128.72,-184.44 102.53,-167.15 86.87,-156.82"/>
<polygon fill="#63b8ff" stroke="#63b8ff" points="145.47,-199.68 155.75,-202.27 149.33,-193.84 145.47,-199.68"/>
</g>
</g>
</svg>
