<?xml version="1.0" encoding="UTF-8" standalone="no"?>
<!DOCTYPE svg PUBLIC "-//W3C//DTD SVG 1.1//EN"
 "http://www.w3.org/Graphics/SVG/1.1/DTD/svg11.dtd">
<!-- Generated by graphviz version 7.0.5 (20221223.1930)
 -->
<!-- Title: include/m_Do/m_Do_dvd_thread.h Pages: 1 -->
<svg width="3848pt" height="555pt"
 viewBox="0.00 0.00 3848.00 555.00" xmlns="http://www.w3.org/2000/svg" xmlns:xlink="http://www.w3.org/1999/xlink">
<g id="graph0" class="graph" transform="scale(1 1) rotate(0) translate(4 551)">
<title>include/m_Do/m_Do_dvd_thread.h</title>
<!-- Node1 -->
<g id="node1" class="node">
<title>Node1</title>
<g id="a_node1"><a xlink:title=" ">
<polygon fill="#999999" stroke="#666666" points="3139,-547 3014,-547 3014,-517 3139,-517 3139,-547"/>
<text text-anchor="start" x="3022" y="-535" font-family="Helvetica,sans-Serif" font-size="10.00">include/m_Do/m_Do_dvd</text>
<text text-anchor="middle" x="3076.5" y="-524" font-family="Helvetica,sans-Serif" font-size="10.00">_thread.h</text>
</a>
</g>
</g>
<!-- Node2 -->
<g id="node2" class="node">
<title>Node2</title>
<g id="a_node2"><a xlink:href="DynamicLink_8h.html" target="_top" xlink:title=" ">
<polygon fill="white" stroke="#666666" points="329.5,-222.5 215.5,-222.5 215.5,-203.5 329.5,-203.5 329.5,-222.5"/>
<text text-anchor="middle" x="272.5" y="-210.5" font-family="Helvetica,sans-Serif" font-size="10.00">include/DynamicLink.h</text>
</a>
</g>
</g>
<!-- Node1&#45;&gt;Node2 -->
<g id="edge1" class="edge">
<title>Node1&#45;&gt;Node2</title>
<path fill="none" stroke="#63b8ff" d="M3002.2,-529.96C2560.13,-523.54 295.5,-487.27 295.5,-417.5 295.5,-417.5 295.5,-417.5 295.5,-349.5 295.5,-301.06 281.04,-244.24 275.05,-222.79"/>
<polygon fill="#63b8ff" stroke="#63b8ff" points="3001.96,-533.46 3012.01,-530.1 3002.06,-526.46 3001.96,-533.46"/>
</g>
<!-- Node5 -->
<g id="node5" class="node">
<title>Node5</title>
<g id="a_node5"><a xlink:href="m__Do__main_8cpp.html" target="_top" xlink:title=" ">
<polygon fill="white" stroke="#666666" points="131,-151 0,-151 0,-132 131,-132 131,-151"/>
<text text-anchor="middle" x="65.5" y="-139" font-family="Helvetica,sans-Serif" font-size="10.00">src/m_Do/m_Do_main.cpp</text>
</a>
</g>
</g>
<!-- Node1&#45;&gt;Node5 -->
<g id="edge76" class="edge">
<title>Node1&#45;&gt;Node5</title>
<path fill="none" stroke="#63b8ff" d="M3002.29,-530.47C2646.57,-527.77 1113.57,-514.39 636.5,-481 518.17,-472.72 106.5,-536.12 106.5,-417.5 106.5,-417.5 106.5,-417.5 106.5,-278 106.5,-228.35 80.97,-172.69 70.2,-151.42"/>
<polygon fill="#63b8ff" stroke="#63b8ff" points="3002.17,-533.97 3012.19,-530.54 3002.22,-526.97 3002.17,-533.97"/>
</g>
<!-- Node6 -->
<g id="node6" class="node">
<title>Node6</title>
<g id="a_node6"><a xlink:href="d__resorce_8h.html" target="_top" xlink:title=" ">
<polygon fill="white" stroke="#666666" points="1932,-481 1823,-481 1823,-462 1932,-462 1932,-481"/>
<text text-anchor="middle" x="1877.5" y="-469" font-family="Helvetica,sans-Serif" font-size="10.00">include/d/d_resorce.h</text>
</a>
</g>
</g>
<!-- Node1&#45;&gt;Node6 -->
<g id="edge5" class="edge">
<title>Node1&#45;&gt;Node6</title>
<path fill="none" stroke="#63b8ff" d="M3002.24,-527.38C2780.45,-516.56 2126.27,-484.64 1932.3,-475.17"/>
<polygon fill="#63b8ff" stroke="#63b8ff" points="3002.05,-530.87 3012.21,-527.86 3002.4,-523.88 3002.05,-530.87"/>
</g>
<!-- Node125 -->
<g id="node37" class="node">
<title>Node125</title>
<g id="a_node37"><a xlink:href="m__Do__audio_8cpp.html" target="_top" xlink:title=" ">
<polygon fill="white" stroke="#666666" points="3105.5,-151 2971.5,-151 2971.5,-132 3105.5,-132 3105.5,-151"/>
<text text-anchor="middle" x="3038.5" y="-139" font-family="Helvetica,sans-Serif" font-size="10.00">src/m_Do/m_Do_audio.cpp</text>
</a>
</g>
</g>
<!-- Node1&#45;&gt;Node125 -->
<g id="edge73" class="edge">
<title>Node1&#45;&gt;Node125</title>
<path fill="none" stroke="#63b8ff" d="M3063.36,-506.84C3052.37,-484.38 3038.5,-449.64 3038.5,-417.5 3038.5,-417.5 3038.5,-417.5 3038.5,-278 3038.5,-230.25 3038.5,-173.02 3038.5,-151.38"/>
<polygon fill="#63b8ff" stroke="#63b8ff" points="3060.09,-508.15 3067.75,-515.47 3066.33,-504.97 3060.09,-508.15"/>
</g>
<!-- Node165 -->
<g id="node43" class="node">
<title>Node165</title>
<g id="a_node43"><a xlink:href="d__menu__save_8h.html" target="_top" xlink:title=" ">
<polygon fill="white" stroke="#666666" points="3307.5,-294 3187.5,-294 3187.5,-264 3307.5,-264 3307.5,-294"/>
<text text-anchor="start" x="3195.5" y="-282" font-family="Helvetica,sans-Serif" font-size="10.00">include/d/menu/d_menu</text>
<text text-anchor="middle" x="3247.5" y="-271" font-family="Helvetica,sans-Serif" font-size="10.00">_save.h</text>
</a>
</g>
</g>
<!-- Node1&#45;&gt;Node165 -->
<g id="edge60" class="edge">
<title>Node1&#45;&gt;Node165</title>
<path fill="none" stroke="#63b8ff" d="M3086.47,-506.13C3092.24,-492.7 3100.02,-476.04 3108.5,-462 3148.78,-395.29 3208.86,-324.05 3234.81,-294.31"/>
<polygon fill="#63b8ff" stroke="#63b8ff" points="3083.33,-504.56 3082.71,-515.13 3089.79,-507.25 3083.33,-504.56"/>
</g>
<!-- Node167 -->
<g id="node45" class="node">
<title>Node167</title>
<g id="a_node45"><a xlink:href="f__op__scene_8h.html" target="_top" xlink:title=" ">
<polygon fill="white" stroke="#666666" points="3571.5,-360 3441.5,-360 3441.5,-341 3571.5,-341 3571.5,-360"/>
<text text-anchor="middle" x="3506.5" y="-348" font-family="Helvetica,sans-Serif" font-size="10.00">include/f_op/f_op_scene.h</text>
</a>
</g>
</g>
<!-- Node1&#45;&gt;Node167 -->
<g id="edge66" class="edge">
<title>Node1&#45;&gt;Node167</title>
<path fill="none" stroke="#63b8ff" d="M3090.97,-507.04C3101.14,-492.09 3116.02,-473.56 3133.5,-462 3229.42,-398.58 3362.73,-370.64 3441.27,-359.04"/>
<polygon fill="#63b8ff" stroke="#63b8ff" points="3088.04,-505.12 3085.53,-515.42 3093.91,-508.93 3088.04,-505.12"/>
</g>
<!-- Node178 -->
<g id="node48" class="node">
<title>Node178</title>
<g id="a_node48"><a xlink:href="m__Do__DVDError_8cpp.html" target="_top" xlink:title=" ">
<polygon fill="white" stroke="#666666" points="3294,-481 3143,-481 3143,-462 3294,-462 3294,-481"/>
<text text-anchor="middle" x="3218.5" y="-469" font-family="Helvetica,sans-Serif" font-size="10.00">src/m_Do/m_Do_DVDError.cpp</text>
</a>
</g>
</g>
<!-- Node1&#45;&gt;Node178 -->
<g id="edge72" class="edge">
<title>Node1&#45;&gt;Node178</title>
<path fill="none" stroke="#63b8ff" d="M3122.03,-512.24C3147.17,-501.89 3177.22,-489.51 3197.03,-481.35"/>
<polygon fill="#63b8ff" stroke="#63b8ff" points="3120.91,-508.92 3113,-515.96 3123.58,-515.39 3120.91,-508.92"/>
</g>
<!-- Node179 -->
<g id="node49" class="node">
<title>Node179</title>
<g id="a_node49"><a xlink:href="m__Do__dvd__thread_8cpp.html" target="_top" xlink:title=" ">
<polygon fill="white" stroke="#666666" points="3470.5,-481 3312.5,-481 3312.5,-462 3470.5,-462 3470.5,-481"/>
<text text-anchor="middle" x="3391.5" y="-469" font-family="Helvetica,sans-Serif" font-size="10.00">src/m_Do/m_Do_dvd_thread.cpp</text>
</a>
</g>
</g>
<!-- Node1&#45;&gt;Node179 -->
<g id="edge74" class="edge">
<title>Node1&#45;&gt;Node179</title>
<path fill="none" stroke="#63b8ff" d="M3150.69,-517.22C3210.1,-506.19 3291.73,-491.03 3343.04,-481.5"/>
<polygon fill="#63b8ff" stroke="#63b8ff" points="3150.17,-513.76 3140.98,-519.03 3151.45,-520.64 3150.17,-513.76"/>
</g>
<!-- Node180 -->
<g id="node50" class="node">
<title>Node180</title>
<g id="a_node50"><a xlink:href="m__Do__machine_8cpp.html" target="_top" xlink:title=" ">
<polygon fill="white" stroke="#666666" points="3636,-481 3489,-481 3489,-462 3636,-462 3636,-481"/>
<text text-anchor="middle" x="3562.5" y="-469" font-family="Helvetica,sans-Serif" font-size="10.00">src/m_Do/m_Do_machine.cpp</text>
</a>
</g>
</g>
<!-- Node1&#45;&gt;Node180 -->
<g id="edge75" class="edge">
<title>Node1&#45;&gt;Node180</title>
<path fill="none" stroke="#63b8ff" d="M3150.43,-522.1C3242.03,-511.08 3397.15,-492.4 3488.69,-481.39"/>
<polygon fill="#63b8ff" stroke="#63b8ff" points="3150.05,-518.62 3140.54,-523.29 3150.89,-525.57 3150.05,-518.62"/>
</g>
<!-- Node3 -->
<g id="node3" class="node">
<title>Node3</title>
<g id="a_node3"><a xlink:href="DynamicLink_8cpp.html" target="_top" xlink:title=" ">
<polygon fill="white" stroke="#666666" points="256,-151 149,-151 149,-132 256,-132 256,-151"/>
<text text-anchor="middle" x="202.5" y="-139" font-family="Helvetica,sans-Serif" font-size="10.00">src/DynamicLink.cpp</text>
</a>
</g>
</g>
<!-- Node2&#45;&gt;Node3 -->
<g id="edge2" class="edge">
<title>Node2&#45;&gt;Node3</title>
<path fill="none" stroke="#63b8ff" d="M255.8,-195.42C241.91,-181.63 222.68,-162.53 211.51,-151.45"/>
<polygon fill="#63b8ff" stroke="#63b8ff" points="253,-197.57 262.56,-202.13 257.93,-192.6 253,-197.57"/>
</g>
<!-- Node4 -->
<g id="node4" class="node">
<title>Node4</title>
<g id="a_node4"><a xlink:href="c__dylink_8cpp.html" target="_top" xlink:title=" ">
<polygon fill="white" stroke="#666666" points="369,-151 274,-151 274,-132 369,-132 369,-151"/>
<text text-anchor="middle" x="321.5" y="-139" font-family="Helvetica,sans-Serif" font-size="10.00">src/c/c_dylink.cpp</text>
</a>
</g>
</g>
<!-- Node2&#45;&gt;Node4 -->
<g id="edge3" class="edge">
<title>Node2&#45;&gt;Node4</title>
<path fill="none" stroke="#63b8ff" d="M285.31,-193.84C294.92,-180.2 307.67,-162.11 315.19,-151.45"/>
<polygon fill="#63b8ff" stroke="#63b8ff" points="282.48,-191.77 279.58,-201.96 288.2,-195.8 282.48,-191.77"/>
</g>
<!-- Node2&#45;&gt;Node5 -->
<g id="edge4" class="edge">
<title>Node2&#45;&gt;Node5</title>
<path fill="none" stroke="#63b8ff" d="M235.16,-199.46C193.86,-185.6 128.39,-163.62 92.04,-151.41"/>
<polygon fill="#63b8ff" stroke="#63b8ff" points="233.83,-202.71 244.43,-202.57 236.06,-196.07 233.83,-202.71"/>
</g>
<!-- Node7 -->
<g id="node7" class="node">
<title>Node7</title>
<g id="a_node7"><a xlink:href="d__a__player_8h.html" target="_top" xlink:title=" ">
<polygon fill="white" stroke="#666666" points="1938,-426 1817,-426 1817,-407 1938,-407 1938,-426"/>
<text text-anchor="middle" x="1877.5" y="-414" font-family="Helvetica,sans-Serif" font-size="10.00">include/d/a/d_a_player.h</text>
</a>
</g>
</g>
<!-- Node6&#45;&gt;Node7 -->
<g id="edge6" class="edge">
<title>Node6&#45;&gt;Node7</title>
<path fill="none" stroke="#63b8ff" d="M1877.5,-450.35C1877.5,-442.1 1877.5,-432.97 1877.5,-426.44"/>
<polygon fill="#63b8ff" stroke="#63b8ff" points="1874,-450.23 1877.5,-460.23 1881,-450.23 1874,-450.23"/>
</g>
<!-- Node9 -->
<g id="node9" class="node">
<title>Node9</title>
<g id="a_node9"><a xlink:href="d__com__inf__game_8h.html" target="_top" xlink:title=" ">
<polygon fill="#fff0f0" stroke="red" points="1975.5,-228 1865.5,-228 1865.5,-198 1975.5,-198 1975.5,-228"/>
<text text-anchor="start" x="1873.5" y="-216" font-family="Helvetica,sans-Serif" font-size="10.00">include/d/com/d_com</text>
<text text-anchor="middle" x="1920.5" y="-205" font-family="Helvetica,sans-Serif" font-size="10.00">_inf_game.h</text>
</a>
</g>
</g>
<!-- Node6&#45;&gt;Node9 -->
<g id="edge57" class="edge">
<title>Node6&#45;&gt;Node9</title>
<path fill="none" stroke="#63b8ff" d="M1943.29,-461.44C1999.93,-450.12 2079.58,-425.15 2125.5,-371 2148.17,-344.27 2138.7,-328.84 2142.5,-294 2143.95,-280.75 2150.83,-274.41 2142.5,-264 2122.02,-238.39 2034.75,-224.97 1975.93,-218.7"/>
<polygon fill="#63b8ff" stroke="#63b8ff" points="1942.94,-457.94 1933.77,-463.25 1944.25,-464.82 1942.94,-457.94"/>
</g>
<!-- Node40 -->
<g id="node21" class="node">
<title>Node40</title>
<g id="a_node21"><a xlink:href="d__meter2__info_8h.html" target="_top" xlink:title=" ">
<polygon fill="#fff0f0" stroke="red" points="619,-85 492,-85 492,-55 619,-55 619,-85"/>
<text text-anchor="start" x="500" y="-73" font-family="Helvetica,sans-Serif" font-size="10.00">include/d/meter/d_meter2</text>
<text text-anchor="middle" x="555.5" y="-62" font-family="Helvetica,sans-Serif" font-size="10.00">_info.h</text>
</a>
</g>
</g>
<!-- Node6&#45;&gt;Node40 -->
<g id="edge58" class="edge">
<title>Node6&#45;&gt;Node40</title>
<path fill="none" stroke="#63b8ff" d="M1811.37,-469.3C1603.27,-465.3 963.42,-451.22 757.5,-426 595.32,-406.13 397.5,-514.89 397.5,-351.5 397.5,-351.5 397.5,-351.5 397.5,-212 397.5,-170.68 389.39,-152.18 416.5,-121 435.51,-99.13 464.83,-86.83 491.64,-79.9"/>
<polygon fill="#63b8ff" stroke="#63b8ff" points="1811.13,-472.8 1821.19,-469.49 1811.26,-465.8 1811.13,-472.8"/>
</g>
<!-- Node103 -->
<g id="node36" class="node">
<title>Node103</title>
<g id="a_node36"><a xlink:href="d__resorce_8cpp.html" target="_top" xlink:title=" ">
<polygon fill="white" stroke="#666666" points="527.5,-151 425.5,-151 425.5,-132 527.5,-132 527.5,-151"/>
<text text-anchor="middle" x="476.5" y="-139" font-family="Helvetica,sans-Serif" font-size="10.00">src/d/d_resorce.cpp</text>
</a>
</g>
</g>
<!-- Node6&#45;&gt;Node103 -->
<g id="edge59" class="edge">
<title>Node6&#45;&gt;Node103</title>
<path fill="none" stroke="#63b8ff" d="M1811.12,-468.3C1535.6,-458.75 496.5,-418.3 496.5,-351.5 496.5,-351.5 496.5,-351.5 496.5,-278 496.5,-229.73 483.92,-172.81 478.72,-151.31"/>
<polygon fill="#63b8ff" stroke="#63b8ff" points="1810.88,-471.8 1821,-468.64 1811.12,-464.8 1810.88,-471.8"/>
</g>
<!-- Node8 -->
<g id="node8" class="node">
<title>Node8</title>
<g id="a_node8"><a xlink:href="d__a__alink_8h.html" target="_top" xlink:title=" ">
<polygon fill="#fff0f0" stroke="red" points="1892.5,-288.5 1776.5,-288.5 1776.5,-269.5 1892.5,-269.5 1892.5,-288.5"/>
<text text-anchor="middle" x="1834.5" y="-276.5" font-family="Helvetica,sans-Serif" font-size="10.00">include/d/a/d_a_alink.h</text>
</a>
</g>
</g>
<!-- Node7&#45;&gt;Node8 -->
<g id="edge7" class="edge">
<title>Node7&#45;&gt;Node8</title>
<path fill="none" stroke="#63b8ff" d="M1865.9,-396.87C1861.48,-389.11 1856.73,-379.85 1853.5,-371 1842.87,-341.89 1837.5,-305.26 1835.48,-288.76"/>
<polygon fill="#63b8ff" stroke="#63b8ff" points="1862.83,-398.56 1870.96,-405.36 1868.84,-394.98 1862.83,-398.56"/>
</g>
<!-- Node14 -->
<g id="node11" class="node">
<title>Node14</title>
<g id="a_node11"><a xlink:href="d__a__npc_8cpp.html" target="_top" xlink:title=" ">
<polygon fill="white" stroke="#666666" points="2456.5,-19 2352.5,-19 2352.5,0 2456.5,0 2456.5,-19"/>
<text text-anchor="middle" x="2404.5" y="-7" font-family="Helvetica,sans-Serif" font-size="10.00">src/d/a/d_a_npc.cpp</text>
</a>
</g>
</g>
<!-- Node7&#45;&gt;Node14 -->
<g id="edge55" class="edge">
<title>Node7&#45;&gt;Node14</title>
<path fill="none" stroke="#63b8ff" d="M1949.93,-412.22C2191.96,-399.61 2965.85,-345.35 3114.5,-162 3184.18,-76.05 3045.25,-71.46 2987.5,-55 2888.54,-26.79 2580.64,-15.35 2456.84,-11.81"/>
<polygon fill="#63b8ff" stroke="#63b8ff" points="1949.79,-408.73 1939.98,-412.73 1950.14,-415.72 1949.79,-408.73"/>
</g>
<!-- Node79 -->
<g id="node33" class="node">
<title>Node79</title>
<g id="a_node33"><a xlink:href="d__a__player_8cpp.html" target="_top" xlink:title=" ">
<polygon fill="white" stroke="#666666" points="1525.5,-79.5 1411.5,-79.5 1411.5,-60.5 1525.5,-60.5 1525.5,-79.5"/>
<text text-anchor="middle" x="1468.5" y="-67.5" font-family="Helvetica,sans-Serif" font-size="10.00">src/d/a/d_a_player.cpp</text>
</a>
</g>
</g>
<!-- Node7&#45;&gt;Node79 -->
<g id="edge56" class="edge">
<title>Node7&#45;&gt;Node79</title>
<path fill="none" stroke="#63b8ff" d="M1805.18,-414.47C1555.59,-409.98 745.5,-387.16 745.5,-280 745.5,-280 745.5,-280 745.5,-212 745.5,-170.68 733.38,-148.18 764.5,-121 812.75,-78.86 1251.96,-72.2 1411.19,-71.18"/>
<polygon fill="#63b8ff" stroke="#63b8ff" points="1805.07,-417.97 1815.13,-414.65 1805.19,-410.97 1805.07,-417.97"/>
</g>
<!-- Node128 -->
<g id="node38" class="node">
<title>Node128</title>
<g id="a_node38"><a xlink:href="d__bg__s__acch_8h.html" target="_top" xlink:title=" ">
<polygon fill="#fff0f0" stroke="red" points="2098.5,-365.5 1994.5,-365.5 1994.5,-335.5 2098.5,-335.5 2098.5,-365.5"/>
<text text-anchor="start" x="2002.5" y="-353.5" font-family="Helvetica,sans-Serif" font-size="10.00">include/d/bg/d_bg_s</text>
<text text-anchor="middle" x="2046.5" y="-342.5" font-family="Helvetica,sans-Serif" font-size="10.00">_acch.h</text>
</a>
</g>
</g>
<!-- Node7&#45;&gt;Node128 -->
<g id="edge46" class="edge">
<title>Node7&#45;&gt;Node128</title>
<path fill="none" stroke="#63b8ff" d="M1911.48,-402.63C1939.48,-392.03 1979.17,-377 2008.27,-365.98"/>
<polygon fill="#63b8ff" stroke="#63b8ff" points="1910.53,-399.25 1902.41,-406.07 1913.01,-405.8 1910.53,-399.25"/>
</g>
<!-- Node161 -->
<g id="node39" class="node">
<title>Node161</title>
<g id="a_node39"><a xlink:href="d__attention_8h.html" target="_top" xlink:title=" ">
<polygon fill="#fff0f0" stroke="red" points="1976.5,-360 1862.5,-360 1862.5,-341 1976.5,-341 1976.5,-360"/>
<text text-anchor="middle" x="1919.5" y="-348" font-family="Helvetica,sans-Serif" font-size="10.00">include/d/d_attention.h</text>
</a>
</g>
</g>
<!-- Node7&#45;&gt;Node161 -->
<g id="edge47" class="edge">
<title>Node7&#45;&gt;Node161</title>
<path fill="none" stroke="#63b8ff" d="M1889.62,-397.03C1897.54,-384.96 1907.52,-369.75 1913.71,-360.32"/>
<polygon fill="#63b8ff" stroke="#63b8ff" points="1886.73,-395.05 1884.17,-405.34 1892.58,-398.9 1886.73,-395.05"/>
</g>
<!-- Node139 -->
<g id="node40" class="node">
<title>Node139</title>
<g id="a_node40"><a xlink:href="d__event_8h.html" target="_top" xlink:title=" ">
<polygon fill="#fff0f0" stroke="red" points="2133.5,-288.5 2005.5,-288.5 2005.5,-269.5 2133.5,-269.5 2133.5,-288.5"/>
<text text-anchor="middle" x="2069.5" y="-276.5" font-family="Helvetica,sans-Serif" font-size="10.00">include/d/event/d_event.h</text>
</a>
</g>
</g>
<!-- Node7&#45;&gt;Node139 -->
<g id="edge50" class="edge">
<title>Node7&#45;&gt;Node139</title>
<path fill="none" stroke="#63b8ff" d="M1949.74,-411.33C2009.52,-406.19 2087.71,-394.98 2107.5,-371 2128.64,-345.38 2095.92,-306.33 2078.83,-288.92"/>
<polygon fill="#63b8ff" stroke="#63b8ff" points="1949.63,-407.83 1939.94,-412.13 1950.19,-414.8 1949.63,-407.83"/>
</g>
<!-- Node163 -->
<g id="node41" class="node">
<title>Node163</title>
<g id="a_node41"><a xlink:href="d__a__crod_8h.html" target="_top" xlink:title=" ">
<polygon fill="#fff0f0" stroke="red" points="1806.5,-365.5 1710.5,-365.5 1710.5,-335.5 1806.5,-335.5 1806.5,-365.5"/>
<text text-anchor="start" x="1718.5" y="-353.5" font-family="Helvetica,sans-Serif" font-size="10.00">include/rel/d/a/d_a</text>
<text text-anchor="middle" x="1758.5" y="-342.5" font-family="Helvetica,sans-Serif" font-size="10.00">_crod/d_a_crod.h</text>
</a>
</g>
</g>
<!-- Node7&#45;&gt;Node163 -->
<g id="edge52" class="edge">
<title>Node7&#45;&gt;Node163</title>
<path fill="none" stroke="#63b8ff" d="M1850.91,-401.2C1831.4,-390.71 1805.01,-376.51 1785.42,-365.98"/>
<polygon fill="#63b8ff" stroke="#63b8ff" points="1849.16,-404.23 1859.62,-405.88 1852.47,-398.07 1849.16,-404.23"/>
</g>
<!-- Node164 -->
<g id="node42" class="node">
<title>Node164</title>
<g id="a_node42"><a xlink:href="d__a__tag__mmsg_8h.html" target="_top" xlink:title=" ">
<polygon fill="white" stroke="#666666" points="1692.5,-371 1568.5,-371 1568.5,-330 1692.5,-330 1692.5,-371"/>
<text text-anchor="start" x="1576.5" y="-359" font-family="Helvetica,sans-Serif" font-size="10.00">include/rel/d/a/tag</text>
<text text-anchor="start" x="1576.5" y="-348" font-family="Helvetica,sans-Serif" font-size="10.00">/d_a_tag_mmsg/d_a_tag</text>
<text text-anchor="middle" x="1630.5" y="-337" font-family="Helvetica,sans-Serif" font-size="10.00">_mmsg.h</text>
</a>
</g>
</g>
<!-- Node7&#45;&gt;Node164 -->
<g id="edge53" class="edge">
<title>Node7&#45;&gt;Node164</title>
<path fill="none" stroke="#63b8ff" d="M1830.05,-403.78C1794.59,-394.96 1744.95,-382.46 1701.5,-371 1698.66,-370.25 1695.75,-369.48 1692.82,-368.69"/>
<polygon fill="#63b8ff" stroke="#63b8ff" points="1829.02,-407.13 1839.57,-406.15 1830.71,-400.34 1829.02,-407.13"/>
</g>
<!-- Node8&#45;&gt;Node9 -->
<g id="edge8" class="edge">
<title>Node8&#45;&gt;Node9</title>
<path fill="none" stroke="#63b8ff" d="M1855.3,-262.52C1869.22,-252.16 1887.42,-238.62 1901.05,-228.48"/>
<polygon fill="#63b8ff" stroke="#63b8ff" points="1853.6,-259.42 1847.67,-268.2 1857.78,-265.04 1853.6,-259.42"/>
</g>
<!-- Node9&#45;&gt;Node4 -->
<g id="edge37" class="edge">
<title>Node9&#45;&gt;Node4</title>
<path fill="none" stroke="#63b8ff" d="M1854.02,-211.29C1601.38,-208.34 700.92,-195.67 416.5,-162 396.94,-159.68 375.41,-155.41 357.81,-151.46"/>
<polygon fill="#63b8ff" stroke="#63b8ff" points="1853.65,-214.78 1863.69,-211.4 1853.73,-207.78 1853.65,-214.78"/>
</g>
<!-- Node9&#45;&gt;Node5 -->
<g id="edge45" class="edge">
<title>Node9&#45;&gt;Node5</title>
<path fill="none" stroke="#63b8ff" d="M1854.17,-212.17C1573.21,-212.59 479.99,-210.98 139.5,-162 123.98,-159.77 107.05,-155.45 93.3,-151.44"/>
<polygon fill="#63b8ff" stroke="#63b8ff" points="1853.88,-215.67 1863.87,-212.16 1853.86,-208.67 1853.88,-215.67"/>
</g>
<!-- Node10 -->
<g id="node10" class="node">
<title>Node10</title>
<g id="a_node10"><a xlink:href="d__a__npc_8h.html" target="_top" xlink:title=" ">
<polygon fill="#fff0f0" stroke="red" points="1731,-79.5 1620,-79.5 1620,-60.5 1731,-60.5 1731,-79.5"/>
<text text-anchor="middle" x="1675.5" y="-67.5" font-family="Helvetica,sans-Serif" font-size="10.00">include/d/a/d_a_npc.h</text>
</a>
</g>
</g>
<!-- Node9&#45;&gt;Node10 -->
<g id="edge9" class="edge">
<title>Node9&#45;&gt;Node10</title>
<path fill="none" stroke="#63b8ff" d="M1853.88,-210.93C1772.53,-208.06 1641.99,-197.82 1611.5,-162 1599.69,-148.12 1603.51,-137.38 1611.5,-121 1620.77,-101.99 1641.15,-88.09 1656.44,-79.84"/>
<polygon fill="#63b8ff" stroke="#63b8ff" points="1853.39,-214.42 1863.5,-211.24 1853.62,-207.42 1853.39,-214.42"/>
</g>
<!-- Node16 -->
<g id="node12" class="node">
<title>Node16</title>
<g id="a_node12"><a xlink:href="d__cc__uty_8h.html" target="_top" xlink:title=" ">
<polygon fill="#fff0f0" stroke="red" points="1160,-151 1041,-151 1041,-132 1160,-132 1160,-151"/>
<text text-anchor="middle" x="1100.5" y="-139" font-family="Helvetica,sans-Serif" font-size="10.00">include/d/cc/d_cc_uty.h</text>
</a>
</g>
</g>
<!-- Node9&#45;&gt;Node16 -->
<g id="edge11" class="edge">
<title>Node9&#45;&gt;Node16</title>
<path fill="none" stroke="#63b8ff" d="M1853.83,-212.3C1721.92,-211.87 1418.74,-205.68 1168.5,-162 1154.47,-159.55 1139.19,-155.32 1126.68,-151.42"/>
<polygon fill="#63b8ff" stroke="#63b8ff" points="1853.78,-215.8 1863.78,-212.33 1853.79,-208.8 1853.78,-215.8"/>
</g>
<!-- Node22 -->
<g id="node13" class="node">
<title>Node22</title>
<g id="a_node13"><a xlink:href="d__item_8h.html" target="_top" xlink:title=" ">
<polygon fill="#fff0f0" stroke="red" points="1273,-151 1178,-151 1178,-132 1273,-132 1273,-151"/>
<text text-anchor="middle" x="1225.5" y="-139" font-family="Helvetica,sans-Serif" font-size="10.00">include/d/d_item.h</text>
</a>
</g>
</g>
<!-- Node9&#45;&gt;Node22 -->
<g id="edge12" class="edge">
<title>Node9&#45;&gt;Node22</title>
<path fill="none" stroke="#63b8ff" d="M1853.87,-212.38C1736.79,-211.81 1487.03,-205.07 1281.5,-162 1269.81,-159.55 1257.22,-155.32 1246.94,-151.42"/>
<polygon fill="#63b8ff" stroke="#63b8ff" points="1853.6,-215.88 1863.61,-212.41 1853.62,-208.88 1853.6,-215.88"/>
</g>
<!-- Node27 -->
<g id="node14" class="node">
<title>Node27</title>
<g id="a_node14"><a xlink:href="d__kantera__icon__meter_8h.html" target="_top" xlink:title=" ">
<polygon fill="#fff0f0" stroke="red" points="1392,-156.5 1291,-156.5 1291,-126.5 1392,-126.5 1392,-156.5"/>
<text text-anchor="start" x="1299" y="-144.5" font-family="Helvetica,sans-Serif" font-size="10.00">include/d/d_kantera</text>
<text text-anchor="middle" x="1341.5" y="-133.5" font-family="Helvetica,sans-Serif" font-size="10.00">_icon_meter.h</text>
</a>
</g>
</g>
<!-- Node9&#45;&gt;Node27 -->
<g id="edge13" class="edge">
<title>Node9&#45;&gt;Node27</title>
<path fill="none" stroke="#63b8ff" d="M1854,-210.22C1754.59,-206.53 1561.77,-195.35 1401.5,-162 1395.07,-160.66 1388.35,-158.88 1381.84,-156.93"/>
<polygon fill="#63b8ff" stroke="#63b8ff" points="1853.73,-213.72 1863.85,-210.57 1853.98,-206.72 1853.73,-213.72"/>
</g>
<!-- Node30 -->
<g id="node15" class="node">
<title>Node30</title>
<g id="a_node15"><a xlink:href="d__model_8h.html" target="_top" xlink:title=" ">
<polygon fill="#fff0f0" stroke="red" points="1852,-151 1749,-151 1749,-132 1852,-132 1852,-151"/>
<text text-anchor="middle" x="1800.5" y="-139" font-family="Helvetica,sans-Serif" font-size="10.00">include/d/d_model.h</text>
</a>
</g>
</g>
<!-- Node9&#45;&gt;Node30 -->
<g id="edge14" class="edge">
<title>Node9&#45;&gt;Node30</title>
<path fill="none" stroke="#63b8ff" d="M1885.82,-191.92C1862.68,-178.51 1833.38,-161.54 1815.83,-151.38"/>
<polygon fill="#63b8ff" stroke="#63b8ff" points="1883.92,-194.86 1894.33,-196.84 1887.43,-188.8 1883.92,-194.86"/>
</g>
<!-- Node32 -->
<g id="node16" class="node">
<title>Node32</title>
<g id="a_node16"><a xlink:href="d__name_8h.html" target="_top" xlink:title=" ">
<polygon fill="#fff0f0" stroke="red" points="1971,-151 1870,-151 1870,-132 1971,-132 1971,-151"/>
<text text-anchor="middle" x="1920.5" y="-139" font-family="Helvetica,sans-Serif" font-size="10.00">include/d/d_name.h</text>
</a>
</g>
</g>
<!-- Node9&#45;&gt;Node32 -->
<g id="edge15" class="edge">
<title>Node9&#45;&gt;Node32</title>
<path fill="none" stroke="#63b8ff" d="M1920.5,-186.46C1920.5,-174.07 1920.5,-159.99 1920.5,-151.18"/>
<polygon fill="#63b8ff" stroke="#63b8ff" points="1917,-186.09 1920.5,-196.09 1924,-186.09 1917,-186.09"/>
</g>
<!-- Node34 -->
<g id="node17" class="node">
<title>Node34</title>
<g id="a_node17"><a xlink:href="d__file__sel__info_8h.html" target="_top" xlink:title=" ">
<polygon fill="#fff0f0" stroke="red" points="2915.5,-156.5 2819.5,-156.5 2819.5,-126.5 2915.5,-126.5 2915.5,-156.5"/>
<text text-anchor="start" x="2827.5" y="-144.5" font-family="Helvetica,sans-Serif" font-size="10.00">include/d/file/d_file</text>
<text text-anchor="middle" x="2867.5" y="-133.5" font-family="Helvetica,sans-Serif" font-size="10.00">_sel_info.h</text>
</a>
</g>
</g>
<!-- Node9&#45;&gt;Node34 -->
<g id="edge16" class="edge">
<title>Node9&#45;&gt;Node34</title>
<path fill="none" stroke="#63b8ff" d="M1987.09,-210.61C2165.76,-206.52 2652.86,-192.79 2810.5,-162 2816.86,-160.76 2823.49,-158.97 2829.88,-156.98"/>
<polygon fill="#63b8ff" stroke="#63b8ff" points="1987.2,-207.11 1977.28,-210.84 1987.36,-214.11 1987.2,-207.11"/>
</g>
<!-- Node36 -->
<g id="node18" class="node">
<title>Node36</title>
<g id="a_node18"><a xlink:href="d__menu__save_8cpp.html" target="_top" xlink:title=" ">
<polygon fill="white" stroke="#666666" points="2979,-79.5 2832,-79.5 2832,-60.5 2979,-60.5 2979,-79.5"/>
<text text-anchor="middle" x="2905.5" y="-67.5" font-family="Helvetica,sans-Serif" font-size="10.00">src/d/menu/d_menu_save.cpp</text>
</a>
</g>
</g>
<!-- Node9&#45;&gt;Node36 -->
<g id="edge41" class="edge">
<title>Node9&#45;&gt;Node36</title>
<path fill="none" stroke="#63b8ff" d="M1987.31,-211.17C2206.59,-208.14 2892.18,-195.96 2924.5,-162 2946.3,-139.08 2923.58,-97.91 2911.74,-79.88"/>
<polygon fill="#63b8ff" stroke="#63b8ff" points="1987.46,-207.67 1977.51,-211.31 1987.56,-214.67 1987.46,-207.67"/>
</g>
<!-- Node37 -->
<g id="node19" class="node">
<title>Node37</title>
<g id="a_node19"><a xlink:href="d__file__sel__warning_8h.html" target="_top" xlink:title=" ">
<polygon fill="#fff0f0" stroke="red" points="2801.5,-156.5 2705.5,-156.5 2705.5,-126.5 2801.5,-126.5 2801.5,-156.5"/>
<text text-anchor="start" x="2713.5" y="-144.5" font-family="Helvetica,sans-Serif" font-size="10.00">include/d/file/d_file</text>
<text text-anchor="middle" x="2753.5" y="-133.5" font-family="Helvetica,sans-Serif" font-size="10.00">_sel_warning.h</text>
</a>
</g>
</g>
<!-- Node9&#45;&gt;Node37 -->
<g id="edge18" class="edge">
<title>Node9&#45;&gt;Node37</title>
<path fill="none" stroke="#63b8ff" d="M1987.08,-209.93C2149.13,-204.52 2560.66,-188.55 2695.5,-162 2701.96,-160.73 2708.7,-158.93 2715.19,-156.93"/>
<polygon fill="#63b8ff" stroke="#63b8ff" points="1987.24,-206.42 1977.36,-210.25 1987.47,-213.41 1987.24,-206.42"/>
</g>
<!-- Node39 -->
<g id="node20" class="node">
<title>Node39</title>
<g id="a_node20"><a xlink:href="d__meter2_8h.html" target="_top" xlink:title=" ">
<polygon fill="#fff0f0" stroke="red" points="717.5,-151 583.5,-151 583.5,-132 717.5,-132 717.5,-151"/>
<text text-anchor="middle" x="650.5" y="-139" font-family="Helvetica,sans-Serif" font-size="10.00">include/d/meter/d_meter2.h</text>
</a>
</g>
</g>
<!-- Node9&#45;&gt;Node39 -->
<g id="edge20" class="edge">
<title>Node9&#45;&gt;Node39</title>
<path fill="none" stroke="#63b8ff" d="M1853.78,-212.05C1676.12,-211.56 1176.95,-206.02 764.5,-162 741.44,-159.54 715.98,-155.33 694.98,-151.45"/>
<polygon fill="#63b8ff" stroke="#63b8ff" points="1853.74,-215.55 1863.75,-212.07 1853.76,-208.55 1853.74,-215.55"/>
</g>
<!-- Node46 -->
<g id="node22" class="node">
<title>Node46</title>
<g id="a_node22"><a xlink:href="d__msg__object_8h.html" target="_top" xlink:title=" ">
<polygon fill="#fff0f0" stroke="red" points="1730.5,-156.5 1620.5,-156.5 1620.5,-126.5 1730.5,-126.5 1730.5,-156.5"/>
<text text-anchor="start" x="1628.5" y="-144.5" font-family="Helvetica,sans-Serif" font-size="10.00">include/d/msg/d_msg</text>
<text text-anchor="middle" x="1675.5" y="-133.5" font-family="Helvetica,sans-Serif" font-size="10.00">_object.h</text>
</a>
</g>
</g>
<!-- Node9&#45;&gt;Node46 -->
<g id="edge23" class="edge">
<title>Node9&#45;&gt;Node46</title>
<path fill="none" stroke="#63b8ff" d="M1856.02,-194.63C1821.42,-185.2 1778.06,-173.2 1739.5,-162 1733.92,-160.38 1728.08,-158.65 1722.3,-156.91"/>
<polygon fill="#63b8ff" stroke="#63b8ff" points="1854.91,-197.95 1865.48,-197.2 1856.75,-191.2 1854.91,-197.95"/>
</g>
<!-- Node42 -->
<g id="node23" class="node">
<title>Node42</title>
<g id="a_node23"><a xlink:href="d__menu__window_8cpp.html" target="_top" xlink:title=" ">
<polygon fill="white" stroke="#666666" points="2210,-79.5 2051,-79.5 2051,-60.5 2210,-60.5 2210,-79.5"/>
<text text-anchor="middle" x="2130.5" y="-67.5" font-family="Helvetica,sans-Serif" font-size="10.00">src/d/menu/d_menu_window.cpp</text>
</a>
</g>
</g>
<!-- Node9&#45;&gt;Node42 -->
<g id="edge42" class="edge">
<title>Node9&#45;&gt;Node42</title>
<path fill="none" stroke="#63b8ff" d="M1987.14,-201.99C2034.79,-193.49 2093.39,-179.83 2110.5,-162 2132.45,-139.13 2132.51,-97.94 2131.34,-79.88"/>
<polygon fill="#63b8ff" stroke="#63b8ff" points="1986.67,-198.52 1977.41,-203.68 1987.86,-205.42 1986.67,-198.52"/>
</g>
<!-- Node62 -->
<g id="node24" class="node">
<title>Node62</title>
<g id="a_node24"><a xlink:href="d__s__logo_8h.html" target="_top" xlink:title=" ">
<polygon fill="#fff0f0" stroke="red" points="2102,-151 1989,-151 1989,-132 2102,-132 2102,-151"/>
<text text-anchor="middle" x="2045.5" y="-139" font-family="Helvetica,sans-Serif" font-size="10.00">include/d/s/d_s_logo.h</text>
</a>
</g>
</g>
<!-- Node9&#45;&gt;Node62 -->
<g id="edge26" class="edge">
<title>Node9&#45;&gt;Node62</title>
<path fill="none" stroke="#63b8ff" d="M1956.3,-192.1C1980.46,-178.66 2011.17,-161.59 2029.53,-151.38"/>
<polygon fill="#63b8ff" stroke="#63b8ff" points="1954.76,-188.95 1947.72,-196.86 1958.16,-195.06 1954.76,-188.95"/>
</g>
<!-- Node64 -->
<g id="node25" class="node">
<title>Node64</title>
<g id="a_node25"><a xlink:href="d__s__play_8h.html" target="_top" xlink:title=" ">
<polygon fill="#fff0f0" stroke="red" points="3520,-151 3407,-151 3407,-132 3520,-132 3520,-151"/>
<text text-anchor="middle" x="3463.5" y="-139" font-family="Helvetica,sans-Serif" font-size="10.00">include/d/s/d_s_play.h</text>
</a>
</g>
</g>
<!-- Node9&#45;&gt;Node64 -->
<g id="edge27" class="edge">
<title>Node9&#45;&gt;Node64</title>
<path fill="none" stroke="#63b8ff" d="M1987.15,-212.02C2237.47,-211.75 3121.2,-207.5 3398.5,-162 3412.22,-159.75 3427.1,-155.43 3439.16,-151.43"/>
<polygon fill="#63b8ff" stroke="#63b8ff" points="1987.23,-208.52 1977.23,-212.03 1987.23,-215.52 1987.23,-208.52"/>
</g>
<!-- Node65 -->
<g id="node26" class="node">
<title>Node65</title>
<g id="a_node26"><a xlink:href="d__s__room_8cpp.html" target="_top" xlink:title=" ">
<polygon fill="white" stroke="#666666" points="3518.5,-79.5 3408.5,-79.5 3408.5,-60.5 3518.5,-60.5 3518.5,-79.5"/>
<text text-anchor="middle" x="3463.5" y="-67.5" font-family="Helvetica,sans-Serif" font-size="10.00">src/d/s/d_s_room.cpp</text>
</a>
</g>
</g>
<!-- Node9&#45;&gt;Node65 -->
<g id="edge43" class="edge">
<title>Node9&#45;&gt;Node65</title>
<path fill="none" stroke="#63b8ff" d="M1987.01,-211.14C2204.69,-208.02 2894.51,-195.66 3114.5,-162 3184.09,-151.35 3199.39,-138.81 3267.5,-121 3323.39,-106.38 3388.38,-89.91 3427.7,-79.99"/>
<polygon fill="#63b8ff" stroke="#63b8ff" points="1987.25,-207.64 1977.3,-211.28 1987.34,-214.63 1987.25,-207.64"/>
</g>
<!-- Node70 -->
<g id="node27" class="node">
<title>Node70</title>
<g id="a_node27"><a xlink:href="d__msg__scrn__base_8h.html" target="_top" xlink:title=" ">
<polygon fill="#fff0f0" stroke="red" points="2258,-156.5 2159,-156.5 2159,-126.5 2258,-126.5 2258,-156.5"/>
<text text-anchor="start" x="2167" y="-144.5" font-family="Helvetica,sans-Serif" font-size="10.00">include/msg/scrn/d</text>
<text text-anchor="middle" x="2208.5" y="-133.5" font-family="Helvetica,sans-Serif" font-size="10.00">_msg_scrn_base.h</text>
</a>
</g>
</g>
<!-- Node9&#45;&gt;Node70 -->
<g id="edge29" class="edge">
<title>Node9&#45;&gt;Node70</title>
<path fill="none" stroke="#63b8ff" d="M1986.59,-198.63C2031.36,-189.23 2091.75,-175.9 2144.5,-162 2150.34,-160.46 2156.45,-158.74 2162.48,-156.98"/>
<polygon fill="#63b8ff" stroke="#63b8ff" points="1986.11,-195.15 1977.04,-200.62 1987.54,-202.01 1986.11,-195.15"/>
</g>
<!-- Node74 -->
<g id="node28" class="node">
<title>Node74</title>
<g id="a_node28"><a xlink:href="d__a__b__oh2_8h.html" target="_top" xlink:title=" ">
<polygon fill="white" stroke="#666666" points="2392.5,-156.5 2276.5,-156.5 2276.5,-126.5 2392.5,-126.5 2392.5,-156.5"/>
<text text-anchor="start" x="2284.5" y="-144.5" font-family="Helvetica,sans-Serif" font-size="10.00">include/rel/d/a/b/d</text>
<text text-anchor="middle" x="2334.5" y="-133.5" font-family="Helvetica,sans-Serif" font-size="10.00">_a_b_oh2/d_a_b_oh2.h</text>
</a>
</g>
</g>
<!-- Node9&#45;&gt;Node74 -->
<g id="edge30" class="edge">
<title>Node9&#45;&gt;Node74</title>
<path fill="none" stroke="#63b8ff" d="M1987.02,-205.1C2057.04,-197.21 2170.24,-182.66 2266.5,-162 2273.22,-160.56 2280.26,-158.81 2287.15,-156.97"/>
<polygon fill="#63b8ff" stroke="#63b8ff" points="1986.8,-201.61 1977.25,-206.19 1987.57,-208.56 1986.8,-201.61"/>
</g>
<!-- Node75 -->
<g id="node29" class="node">
<title>Node75</title>
<g id="a_node29"><a xlink:href="d__a__b__zant_8h.html" target="_top" xlink:title=" ">
<polygon fill="white" stroke="#666666" points="2532,-156.5 2411,-156.5 2411,-126.5 2532,-126.5 2532,-156.5"/>
<text text-anchor="start" x="2419" y="-144.5" font-family="Helvetica,sans-Serif" font-size="10.00">include/rel/d/a/b/d</text>
<text text-anchor="middle" x="2471.5" y="-133.5" font-family="Helvetica,sans-Serif" font-size="10.00">_a_b_zant/d_a_b_zant.h</text>
</a>
</g>
</g>
<!-- Node9&#45;&gt;Node75 -->
<g id="edge31" class="edge">
<title>Node9&#45;&gt;Node75</title>
<path fill="none" stroke="#63b8ff" d="M1987,-208.63C2080.29,-203.1 2255.02,-189.81 2401.5,-162 2408.81,-160.61 2416.47,-158.83 2423.93,-156.9"/>
<polygon fill="#63b8ff" stroke="#63b8ff" points="1987.05,-205.12 1977.27,-209.19 1987.46,-212.11 1987.05,-205.12"/>
</g>
<!-- Node76 -->
<g id="node30" class="node">
<title>Node76</title>
<g id="a_node30"><a xlink:href="d__a__set__bgobj_8h.html" target="_top" xlink:title=" ">
<polygon fill="white" stroke="#666666" points="2687,-156.5 2550,-156.5 2550,-126.5 2687,-126.5 2687,-156.5"/>
<text text-anchor="start" x="2558" y="-144.5" font-family="Helvetica,sans-Serif" font-size="10.00">include/rel/d/a/d_a</text>
<text text-anchor="middle" x="2618.5" y="-133.5" font-family="Helvetica,sans-Serif" font-size="10.00">_set_bgobj/d_a_set_bgobj.h</text>
</a>
</g>
</g>
<!-- Node9&#45;&gt;Node76 -->
<g id="edge32" class="edge">
<title>Node9&#45;&gt;Node76</title>
<path fill="none" stroke="#63b8ff" d="M1986.89,-210.23C2100.83,-206.38 2340.63,-194.81 2540.5,-162 2548.63,-160.67 2557.15,-158.91 2565.46,-157"/>
<polygon fill="#63b8ff" stroke="#63b8ff" points="1987,-206.72 1977.12,-210.55 1987.23,-213.72 1987,-206.72"/>
</g>
<!-- Node77 -->
<g id="node31" class="node">
<title>Node77</title>
<g id="a_node31"><a xlink:href="d__a__skip__2D_8h.html" target="_top" xlink:title=" ">
<polygon fill="white" stroke="#666666" points="897.5,-156.5 773.5,-156.5 773.5,-126.5 897.5,-126.5 897.5,-156.5"/>
<text text-anchor="start" x="781.5" y="-144.5" font-family="Helvetica,sans-Serif" font-size="10.00">include/rel/d/a/d_a</text>
<text text-anchor="middle" x="835.5" y="-133.5" font-family="Helvetica,sans-Serif" font-size="10.00">_skip_2D/d_a_skip_2D.h</text>
</a>
</g>
</g>
<!-- Node9&#45;&gt;Node77 -->
<g id="edge33" class="edge">
<title>Node9&#45;&gt;Node77</title>
<path fill="none" stroke="#63b8ff" d="M1853.7,-210.61C1658.26,-206.25 1089.85,-191.34 906.5,-162 898.67,-160.75 890.47,-158.96 882.54,-156.97"/>
<polygon fill="#63b8ff" stroke="#63b8ff" points="1853.61,-214.11 1863.69,-210.83 1853.77,-207.11 1853.61,-214.11"/>
</g>
<!-- Node78 -->
<g id="node32" class="node">
<title>Node78</title>
<g id="a_node32"><a xlink:href="d__a__spinner_8h.html" target="_top" xlink:title=" ">
<polygon fill="#fff0f0" stroke="red" points="1526.5,-156.5 1410.5,-156.5 1410.5,-126.5 1526.5,-126.5 1526.5,-156.5"/>
<text text-anchor="start" x="1418.5" y="-144.5" font-family="Helvetica,sans-Serif" font-size="10.00">include/rel/d/a/d_a</text>
<text text-anchor="middle" x="1468.5" y="-133.5" font-family="Helvetica,sans-Serif" font-size="10.00">_spinner/d_a_spinner.h</text>
</a>
</g>
</g>
<!-- Node9&#45;&gt;Node78 -->
<g id="edge34" class="edge">
<title>Node9&#45;&gt;Node78</title>
<path fill="none" stroke="#63b8ff" d="M1853.74,-205.94C1777.5,-198.4 1649.26,-183.78 1540.5,-162 1533.26,-160.55 1525.68,-158.78 1518.26,-156.9"/>
<polygon fill="#63b8ff" stroke="#63b8ff" points="1853.26,-209.41 1863.55,-206.9 1853.94,-202.45 1853.26,-209.41"/>
</g>
<!-- Node9&#45;&gt;Node79 -->
<g id="edge38" class="edge">
<title>Node9&#45;&gt;Node79</title>
<path fill="none" stroke="#63b8ff" d="M1853.91,-210.2C1787.56,-206.45 1683.82,-195.21 1600.5,-162 1587.25,-156.72 1510.58,-101.54 1480.55,-79.77"/>
<polygon fill="#63b8ff" stroke="#63b8ff" points="1853.36,-213.68 1863.53,-210.7 1853.72,-206.68 1853.36,-213.68"/>
</g>
<!-- Node80 -->
<g id="node34" class="node">
<title>Node80</title>
<g id="a_node34"><a xlink:href="d__a__obj__cboard_8h.html" target="_top" xlink:title=" ">
<polygon fill="white" stroke="#666666" points="1023,-162 916,-162 916,-121 1023,-121 1023,-162"/>
<text text-anchor="start" x="924" y="-150" font-family="Helvetica,sans-Serif" font-size="10.00">include/rel/d/a/obj</text>
<text text-anchor="start" x="924" y="-139" font-family="Helvetica,sans-Serif" font-size="10.00">/d_a_obj_cboard/d_a</text>
<text text-anchor="middle" x="969.5" y="-128" font-family="Helvetica,sans-Serif" font-size="10.00">_obj_cboard.h</text>
</a>
</g>
</g>
<!-- Node9&#45;&gt;Node80 -->
<g id="edge36" class="edge">
<title>Node9&#45;&gt;Node80</title>
<path fill="none" stroke="#63b8ff" d="M1853.71,-210.39C1675.09,-205.75 1189.24,-190.78 1031.5,-162 1028.84,-161.51 1026.13,-160.95 1023.4,-160.32"/>
<polygon fill="#63b8ff" stroke="#63b8ff" points="1853.43,-213.89 1863.51,-210.64 1853.61,-206.89 1853.43,-213.89"/>
</g>
<!-- Node99 -->
<g id="node35" class="node">
<title>Node99</title>
<g id="a_node35"><a xlink:href="d__gameover_8cpp.html" target="_top" xlink:title=" ">
<polygon fill="white" stroke="#666666" points="3389,-151 3276,-151 3276,-132 3389,-132 3389,-151"/>
<text text-anchor="middle" x="3332.5" y="-139" font-family="Helvetica,sans-Serif" font-size="10.00">src/d/d_gameover.cpp</text>
</a>
</g>
</g>
<!-- Node9&#45;&gt;Node99 -->
<g id="edge39" class="edge">
<title>Node9&#45;&gt;Node99</title>
<path fill="none" stroke="#63b8ff" d="M1987.14,-211.53C2175.6,-209.74 2728.36,-201.27 3185.5,-162 3215.38,-159.43 3248.51,-155.16 3275.74,-151.27"/>
<polygon fill="#63b8ff" stroke="#63b8ff" points="1987.27,-208.03 1977.3,-211.62 1987.34,-215.03 1987.27,-208.03"/>
</g>
<!-- Node9&#45;&gt;Node103 -->
<g id="edge40" class="edge">
<title>Node9&#45;&gt;Node103</title>
<path fill="none" stroke="#63b8ff" d="M1853.72,-210.93C1618.13,-206.93 826.45,-191.55 574.5,-162 554.34,-159.64 532.14,-155.36 513.97,-151.41"/>
<polygon fill="#63b8ff" stroke="#63b8ff" points="1853.6,-214.43 1863.66,-211.1 1853.72,-207.43 1853.6,-214.43"/>
</g>
<!-- Node9&#45;&gt;Node125 -->
<g id="edge44" class="edge">
<title>Node9&#45;&gt;Node125</title>
<path fill="none" stroke="#63b8ff" d="M1987.09,-210.43C2185.24,-205.49 2769,-188.99 2957.5,-162 2974.11,-159.62 2992.3,-155.4 3007.22,-151.48"/>
<polygon fill="#63b8ff" stroke="#63b8ff" points="1987.14,-206.92 1977.23,-210.67 1987.31,-213.92 1987.14,-206.92"/>
</g>
<!-- Node10&#45;&gt;Node14 -->
<g id="edge10" class="edge">
<title>Node10&#45;&gt;Node14</title>
<path fill="none" stroke="#63b8ff" d="M1742.77,-63.6C1886.87,-52.04 2222.74,-25.09 2352.26,-14.69"/>
<polygon fill="#63b8ff" stroke="#63b8ff" points="1742.69,-60.1 1733,-64.39 1743.25,-67.07 1742.69,-60.1"/>
</g>
<!-- Node34&#45;&gt;Node36 -->
<g id="edge17" class="edge">
<title>Node34&#45;&gt;Node36</title>
<path fill="none" stroke="#63b8ff" d="M2880.84,-116.11C2887.76,-103.44 2895.79,-88.77 2900.75,-79.68"/>
<polygon fill="#63b8ff" stroke="#63b8ff" points="2877.83,-114.32 2876.1,-124.77 2883.97,-117.68 2877.83,-114.32"/>
</g>
<!-- Node37&#45;&gt;Node36 -->
<g id="edge19" class="edge">
<title>Node37&#45;&gt;Node36</title>
<path fill="none" stroke="#63b8ff" d="M2795.46,-121.31C2825.07,-107.78 2863.36,-90.27 2886.08,-79.88"/>
<polygon fill="#63b8ff" stroke="#63b8ff" points="2794.01,-118.13 2786.37,-125.47 2796.92,-124.49 2794.01,-118.13"/>
</g>
<!-- Node39&#45;&gt;Node40 -->
<g id="edge21" class="edge">
<title>Node39&#45;&gt;Node40</title>
<path fill="none" stroke="#63b8ff" d="M629.24,-124.95C613,-113.07 590.8,-96.82 575.01,-85.27"/>
<polygon fill="#63b8ff" stroke="#63b8ff" points="627.11,-127.72 637.25,-130.8 631.24,-122.07 627.11,-127.72"/>
</g>
<!-- Node40&#45;&gt;Node8 -->
<g id="edge22" class="edge">
<title>Node40&#45;&gt;Node8</title>
<path fill="none" stroke="#63b8ff" d="M553.29,-96.4C552.99,-117.23 556.38,-145.83 574.5,-162 665.18,-242.88 1540.26,-270.6 1776.17,-276.64"/>
<polygon fill="#63b8ff" stroke="#63b8ff" points="556.77,-96.85 553.73,-86.7 549.78,-96.53 556.77,-96.85"/>
</g>
<!-- Node46&#45;&gt;Node10 -->
<g id="edge24" class="edge">
<title>Node46&#45;&gt;Node10</title>
<path fill="none" stroke="#63b8ff" d="M1675.5,-114.96C1675.5,-102.57 1675.5,-88.49 1675.5,-79.68"/>
<polygon fill="#63b8ff" stroke="#63b8ff" points="1672,-114.59 1675.5,-124.59 1679,-114.59 1672,-114.59"/>
</g>
<!-- Node46&#45;&gt;Node42 -->
<g id="edge25" class="edge">
<title>Node46&#45;&gt;Node42</title>
<path fill="none" stroke="#63b8ff" d="M1730.41,-123.12C1733.47,-122.36 1736.52,-121.64 1739.5,-121 1846.05,-98.12 1971.35,-84.36 2050.83,-77.22"/>
<polygon fill="#63b8ff" stroke="#63b8ff" points="1729.53,-119.73 1720.77,-125.7 1731.34,-126.5 1729.53,-119.73"/>
</g>
<!-- Node64&#45;&gt;Node65 -->
<g id="edge28" class="edge">
<title>Node64&#45;&gt;Node65</title>
<path fill="none" stroke="#63b8ff" d="M3463.5,-120.3C3463.5,-106.94 3463.5,-90.09 3463.5,-79.95"/>
<polygon fill="#63b8ff" stroke="#63b8ff" points="3460,-120.18 3463.5,-130.18 3467,-120.18 3460,-120.18"/>
</g>
<!-- Node78&#45;&gt;Node79 -->
<g id="edge35" class="edge">
<title>Node78&#45;&gt;Node79</title>
<path fill="none" stroke="#63b8ff" d="M1468.5,-114.96C1468.5,-102.57 1468.5,-88.49 1468.5,-79.68"/>
<polygon fill="#63b8ff" stroke="#63b8ff" points="1465,-114.59 1468.5,-124.59 1472,-114.59 1465,-114.59"/>
</g>
<!-- Node161&#45;&gt;Node8 -->
<g id="edge48" class="edge">
<title>Node161&#45;&gt;Node8</title>
<path fill="none" stroke="#63b8ff" d="M1900.17,-333.69C1883.24,-319.85 1859.26,-300.24 1845.45,-288.95"/>
<polygon fill="#63b8ff" stroke="#63b8ff" points="1897.61,-336.12 1907.56,-339.74 1902.04,-330.7 1897.61,-336.12"/>
</g>
<!-- Node161&#45;&gt;Node9 -->
<g id="edge49" class="edge">
<title>Node161&#45;&gt;Node9</title>
<path fill="none" stroke="#63b8ff" d="M1919.65,-329.22C1919.85,-301.47 1920.22,-252.38 1920.39,-228.23"/>
<polygon fill="#63b8ff" stroke="#63b8ff" points="1916.15,-329.07 1919.58,-339.1 1923.15,-329.12 1916.15,-329.07"/>
</g>
<!-- Node139&#45;&gt;Node9 -->
<g id="edge51" class="edge">
<title>Node139&#45;&gt;Node9</title>
<path fill="none" stroke="#63b8ff" d="M2038.22,-264.57C2013.62,-254 1979.41,-239.3 1954.21,-228.48"/>
<polygon fill="#63b8ff" stroke="#63b8ff" points="2036.82,-267.77 2047.39,-268.5 2039.58,-261.34 2036.82,-267.77"/>
</g>
<!-- Node164&#45;&gt;Node8 -->
<g id="edge54" class="edge">
<title>Node164&#45;&gt;Node8</title>
<path fill="none" stroke="#63b8ff" d="M1699.79,-325.89C1737.1,-313.18 1780.93,-298.25 1808.22,-288.95"/>
<polygon fill="#63b8ff" stroke="#63b8ff" points="1698.73,-322.56 1690.39,-329.1 1700.99,-329.18 1698.73,-322.56"/>
</g>
<!-- Node165&#45;&gt;Node36 -->
<g id="edge64" class="edge">
<title>Node165&#45;&gt;Node36</title>
<path fill="none" stroke="#63b8ff" d="M3251.82,-252.85C3256.21,-218.11 3258.13,-155.78 3223.5,-121 3190.18,-87.54 3062.27,-76.46 2979.17,-72.8"/>
<polygon fill="#63b8ff" stroke="#63b8ff" points="3248.4,-252 3250.44,-262.4 3255.33,-253.01 3248.4,-252"/>
</g>
<!-- Node165&#45;&gt;Node42 -->
<g id="edge65" class="edge">
<title>Node165&#45;&gt;Node42</title>
<path fill="none" stroke="#63b8ff" d="M3235.5,-254.02C3215.85,-217.71 3173.08,-149.98 3114.5,-121 3034.44,-81.4 2429.95,-73.13 2210.12,-71.43"/>
<polygon fill="#63b8ff" stroke="#63b8ff" points="3232.18,-255.22 3239.93,-262.44 3238.37,-251.96 3232.18,-255.22"/>
</g>
<!-- Node165&#45;&gt;Node99 -->
<g id="edge63" class="edge">
<title>Node165&#45;&gt;Node99</title>
<path fill="none" stroke="#63b8ff" d="M3262.39,-254.27C3281.58,-223.67 3314.01,-171.97 3326.94,-151.37"/>
<polygon fill="#63b8ff" stroke="#63b8ff" points="3259.59,-252.14 3257.24,-262.47 3265.52,-255.86 3259.59,-252.14"/>
</g>
<!-- Node166 -->
<g id="node44" class="node">
<title>Node166</title>
<g id="a_node44"><a xlink:href="d__gameover_8h.html" target="_top" xlink:title=" ">
<polygon fill="#fff0f0" stroke="red" points="3433,-222.5 3314,-222.5 3314,-203.5 3433,-203.5 3433,-222.5"/>
<text text-anchor="middle" x="3373.5" y="-210.5" font-family="Helvetica,sans-Serif" font-size="10.00">include/d/d_gameover.h</text>
</a>
</g>
</g>
<!-- Node165&#45;&gt;Node166 -->
<g id="edge61" class="edge">
<title>Node165&#45;&gt;Node166</title>
<path fill="none" stroke="#63b8ff" d="M3286.03,-258.43C3309.28,-246.62 3337.79,-232.14 3355.81,-222.99"/>
<polygon fill="#63b8ff" stroke="#63b8ff" points="3284.46,-255.3 3277.13,-262.95 3287.63,-261.54 3284.46,-255.3"/>
</g>
<!-- Node166&#45;&gt;Node99 -->
<g id="edge62" class="edge">
<title>Node166&#45;&gt;Node99</title>
<path fill="none" stroke="#63b8ff" d="M3362.55,-193.43C3354.53,-179.85 3344.01,-162.01 3337.78,-151.45"/>
<polygon fill="#63b8ff" stroke="#63b8ff" points="3359.44,-195.06 3367.54,-201.89 3365.47,-191.5 3359.44,-195.06"/>
</g>
<!-- Node167&#45;&gt;Node8 -->
<g id="edge67" class="edge">
<title>Node167&#45;&gt;Node8</title>
<path fill="none" stroke="#63b8ff" d="M3429.83,-348.02C3207.83,-343.45 2545.37,-327.78 1996.5,-294 1962.12,-291.88 1923.72,-288.61 1892.94,-285.75"/>
<polygon fill="#63b8ff" stroke="#63b8ff" points="3429.74,-351.52 3439.81,-348.23 3429.88,-344.52 3429.74,-351.52"/>
</g>
<!-- Node167&#45;&gt;Node64 -->
<g id="edge68" class="edge">
<title>Node167&#45;&gt;Node64</title>
<path fill="none" stroke="#63b8ff" d="M3502.33,-329.43C3493.18,-285.38 3471.64,-181.71 3465.29,-151.13"/>
<polygon fill="#63b8ff" stroke="#63b8ff" points="3498.88,-330.04 3504.34,-339.12 3505.74,-328.62 3498.88,-330.04"/>
</g>
<!-- Node167&#45;&gt;Node65 -->
<g id="edge70" class="edge">
<title>Node167&#45;&gt;Node65</title>
<path fill="none" stroke="#63b8ff" d="M3515.04,-330.21C3531.83,-289.23 3564.55,-191.52 3529.5,-121 3519.97,-101.82 3499.17,-88.03 3483.46,-79.85"/>
<polygon fill="#63b8ff" stroke="#63b8ff" points="3511.91,-328.64 3511.21,-339.21 3518.35,-331.38 3511.91,-328.64"/>
</g>
<!-- Node168 -->
<g id="node46" class="node">
<title>Node168</title>
<g id="a_node46"><a xlink:href="f__op__scene__pause_8h.html" target="_top" xlink:title=" ">
<polygon fill="#fff0f0" stroke="red" points="3698.5,-294 3576.5,-294 3576.5,-264 3698.5,-264 3698.5,-294"/>
<text text-anchor="start" x="3584.5" y="-282" font-family="Helvetica,sans-Serif" font-size="10.00">include/f_op/f_op_scene</text>
<text text-anchor="middle" x="3637.5" y="-271" font-family="Helvetica,sans-Serif" font-size="10.00">_pause.h</text>
</a>
</g>
</g>
<!-- Node167&#45;&gt;Node168 -->
<g id="edge69" class="edge">
<title>Node167&#45;&gt;Node168</title>
<path fill="none" stroke="#63b8ff" d="M3533.23,-335.32C3555.68,-323.41 3587.62,-306.46 3610.22,-294.47"/>
<polygon fill="#63b8ff" stroke="#63b8ff" points="3531.89,-332.07 3524.69,-339.85 3535.17,-338.25 3531.89,-332.07"/>
</g>
<!-- Node177 -->
<g id="node47" class="node">
<title>Node177</title>
<g id="a_node47"><a xlink:href="f__op__scene_8cpp.html" target="_top" xlink:title=" ">
<polygon fill="white" stroke="#666666" points="3840,-288.5 3717,-288.5 3717,-269.5 3840,-269.5 3840,-288.5"/>
<text text-anchor="middle" x="3778.5" y="-276.5" font-family="Helvetica,sans-Serif" font-size="10.00">src/f_op/f_op_scene.cpp</text>
</a>
</g>
</g>
<!-- Node167&#45;&gt;Node177 -->
<g id="edge71" class="edge">
<title>Node167&#45;&gt;Node177</title>
<path fill="none" stroke="#63b8ff" d="M3552.48,-337.75C3606.51,-323.95 3694.95,-301.35 3743.63,-288.91"/>
<polygon fill="#63b8ff" stroke="#63b8ff" points="3551.79,-334.31 3542.97,-340.18 3553.52,-341.1 3551.79,-334.31"/>
</g>
</g>
</svg>
