<?xml version="1.0" encoding="UTF-8" standalone="no"?>
<!DOCTYPE svg PUBLIC "-//W3C//DTD SVG 1.1//EN"
 "http://www.w3.org/Graphics/SVG/1.1/DTD/svg11.dtd">
<!-- Generated by graphviz version 7.0.5 (20221223.1930)
 -->
<!-- Title: include/m_Do/m_Do_controller_pad.h Pages: 1 -->
<!--zoomable 104 -->
<svg id="main" version="1.1" xmlns="http://www.w3.org/2000/svg" xmlns:xlink="http://www.w3.org/1999/xlink" xml:space="preserve" onload="init(evt)">
<style type="text/css"><![CDATA[
.edge:hover path { stroke: red; }
.edge:hover polygon { stroke: red; fill: red; }
]]></style>
<script type="text/javascript"><![CDATA[
var edges = document.getElementsByTagName('g');
if (edges && edges.length) {
  for (var i=0;i<edges.length;i++) {
    if (edges[i].id.substr(0,4)=='edge') {
      edges[i].setAttribute('class','edge');
    }
  }
}
]]></script>
        <defs>
                <circle id="rim" cx="0" cy="0" r="7"/>
                <circle id="rim2" cx="0" cy="0" r="3.5"/>
                <g id="zoomPlus">
                        <use xlink:href="#rim" fill="#404040">
                                <set attributeName="fill" to="#808080" begin="zoomplus.mouseover" end="zoomplus.mouseout"/>
                        </use>
                        <path d="M-4,0h8M0,-4v8" fill="none" stroke="white" stroke-width="1.5" pointer-events="none"/>
                </g>
                <g id="zoomMin">
                        <use xlink:href="#rim" fill="#404040">
                                <set attributeName="fill" to="#808080" begin="zoomminus.mouseover" end="zoomminus.mouseout"/>
                        </use>
                        <path d="M-4,0h8" fill="none" stroke="white" stroke-width="1.5" pointer-events="none"/>
                </g>
                <g id="dirArrow">
                        <path fill="none" stroke="white" stroke-width="1.5" d="M0,-3.0v7 M-2.5,-0.5L0,-3.0L2.5,-0.5"/>
                </g>
               <g id="resetDef">
                       <use xlink:href="#rim2" fill="#404040">
                               <set attributeName="fill" to="#808080" begin="reset.mouseover" end="reset.mouseout"/>
                       </use>
               </g>
        </defs>

<script type="text/javascript">
var viewWidth = 3538;
var viewHeight = 104;
var sectionId = 'dynsection-1';
</script>
<script xlink:href="svgpan.js"/>
<svg id="graph" class="graph">
<g id="viewport">
<title>include/m_Do/m_Do_controller_pad.h</title>
<!-- Node1 -->
<g id="node1" class="node">
<title>Node1</title>
<g id="a_node1"><a xlink:title=" ">
<polygon fill="#999999" stroke="#666666" points="1689.5,-96 1540.5,-96 1540.5,-66 1689.5,-66 1689.5,-96"/>
<text text-anchor="start" x="1548.5" y="-84" font-family="Helvetica,sans-Serif" font-size="10.00">include/m_Do/m_Do_controller</text>
<text text-anchor="middle" x="1615" y="-73" font-family="Helvetica,sans-Serif" font-size="10.00">_pad.h</text>
</a>
</g>
</g>
<!-- Node2 -->
<g id="node2" class="node">
<title>Node2</title>
<g id="a_node2"><a xlink:href="d__a__do_8h.html" target="_top" xlink:title=" ">
<polygon fill="white" stroke="#666666" points="96,-30 0,-30 0,0 96,0 96,-30"/>
<text text-anchor="start" x="8" y="-18" font-family="Helvetica,sans-Serif" font-size="10.00">include/rel/d/a/d_a</text>
<text text-anchor="middle" x="48" y="-7" font-family="Helvetica,sans-Serif" font-size="10.00">_do/d_a_do.h</text>
</a>
</g>
</g>
<!-- Node1&#45;&gt;Node2 -->
<g id="edge1" class="edge">
<title>Node1&#45;&gt;Node2</title>
<path fill="none" stroke="#63b8ff" d="M1528.98,-79.5C1251.67,-77.52 383.07,-68.33 105,-30 102.17,-29.61 99.28,-29.14 96.38,-28.61"/>
<polygon fill="#63b8ff" stroke="#63b8ff" points="1528.63,-83 1538.66,-79.57 1528.68,-76 1528.63,-83"/>
</g>
<!-- Node3 -->
<g id="node3" class="node">
<title>Node3</title>
<g id="a_node3"><a xlink:href="c__API__controller__pad_8cpp.html" target="_top" xlink:title=" ">
<polygon fill="white" stroke="#666666" points="248,-30 114,-30 114,0 248,0 248,-30"/>
<text text-anchor="start" x="122" y="-18" font-family="Helvetica,sans-Serif" font-size="10.00">libs/SSystem/SComponent</text>
<text text-anchor="middle" x="181" y="-7" font-family="Helvetica,sans-Serif" font-size="10.00">/c_API_controller_pad.cpp</text>
</a>
</g>
</g>
<!-- Node1&#45;&gt;Node3 -->
<g id="edge2" class="edge">
<title>Node1&#45;&gt;Node3</title>
<path fill="none" stroke="#63b8ff" d="M1529.03,-78.47C1270.89,-73.62 505.12,-57.27 257,-30 254.2,-29.69 251.35,-29.34 248.47,-28.95"/>
<polygon fill="#63b8ff" stroke="#63b8ff" points="1528.62,-81.96 1538.69,-78.65 1528.75,-74.97 1528.62,-81.96"/>
</g>
<!-- Node4 -->
<g id="node4" class="node">
<title>Node4</title>
<g id="a_node4"><a xlink:href="d__a__alink_8cpp.html" target="_top" xlink:title=" ">
<polygon fill="white" stroke="#666666" points="375.5,-24.5 266.5,-24.5 266.5,-5.5 375.5,-5.5 375.5,-24.5"/>
<text text-anchor="middle" x="321" y="-12.5" font-family="Helvetica,sans-Serif" font-size="10.00">src/d/a/d_a_alink.cpp</text>
</a>
</g>
</g>
<!-- Node1&#45;&gt;Node4 -->
<g id="edge3" class="edge">
<title>Node1&#45;&gt;Node4</title>
<path fill="none" stroke="#63b8ff" d="M1528.87,-78.46C1287.32,-73.82 606.7,-58.53 385,-30 375.75,-28.81 365.86,-26.95 356.69,-24.96"/>
<polygon fill="#63b8ff" stroke="#63b8ff" points="1528.46,-81.95 1538.52,-78.64 1528.59,-74.95 1528.46,-81.95"/>
</g>
<!-- Node5 -->
<g id="node5" class="node">
<title>Node5</title>
<g id="a_node5"><a xlink:href="d__com__inf__game_8cpp.html" target="_top" xlink:title=" ">
<polygon fill="white" stroke="#666666" points="502,-30 394,-30 394,0 502,0 502,-30"/>
<text text-anchor="start" x="402" y="-18" font-family="Helvetica,sans-Serif" font-size="10.00">src/d/com/d_com_inf</text>
<text text-anchor="middle" x="448" y="-7" font-family="Helvetica,sans-Serif" font-size="10.00">_game.cpp</text>
</a>
</g>
</g>
<!-- Node1&#45;&gt;Node5 -->
<g id="edge4" class="edge">
<title>Node1&#45;&gt;Node5</title>
<path fill="none" stroke="#63b8ff" d="M1528.87,-78.03C1304.77,-72.6 707.29,-56.05 511,-30 508.11,-29.62 505.16,-29.17 502.19,-28.67"/>
<polygon fill="#63b8ff" stroke="#63b8ff" points="1528.62,-81.53 1538.7,-78.27 1528.79,-74.53 1528.62,-81.53"/>
</g>
<!-- Node6 -->
<g id="node6" class="node">
<title>Node6</title>
<g id="a_node6"><a xlink:href="d__attention_8cpp.html" target="_top" xlink:title=" ">
<polygon fill="white" stroke="#666666" points="627.5,-24.5 520.5,-24.5 520.5,-5.5 627.5,-5.5 627.5,-24.5"/>
<text text-anchor="middle" x="574" y="-12.5" font-family="Helvetica,sans-Serif" font-size="10.00">src/d/d_attention.cpp</text>
</a>
</g>
</g>
<!-- Node1&#45;&gt;Node6 -->
<g id="edge5" class="edge">
<title>Node1&#45;&gt;Node6</title>
<path fill="none" stroke="#63b8ff" d="M1528.86,-80.53C1357.81,-80.5 963.57,-75.01 636,-30 627.14,-28.78 617.69,-26.93 608.89,-24.98"/>
<polygon fill="#63b8ff" stroke="#63b8ff" points="1528.78,-84.03 1538.78,-80.53 1528.78,-77.03 1528.78,-84.03"/>
</g>
<!-- Node7 -->
<g id="node7" class="node">
<title>Node7</title>
<g id="a_node7"><a xlink:href="d__bright__check_8cpp.html" target="_top" xlink:title=" ">
<polygon fill="white" stroke="#666666" points="770.5,-24.5 645.5,-24.5 645.5,-5.5 770.5,-5.5 770.5,-24.5"/>
<text text-anchor="middle" x="708" y="-12.5" font-family="Helvetica,sans-Serif" font-size="10.00">src/d/d_bright_check.cpp</text>
</a>
</g>
</g>
<!-- Node1&#45;&gt;Node7 -->
<g id="edge6" class="edge">
<title>Node1&#45;&gt;Node7</title>
<path fill="none" stroke="#63b8ff" d="M1529.06,-78.6C1377.31,-75.29 1052.15,-64.45 780,-30 769.89,-28.72 759.07,-26.87 748.97,-24.94"/>
<polygon fill="#63b8ff" stroke="#63b8ff" points="1528.54,-82.09 1538.61,-78.8 1528.69,-75.09 1528.54,-82.09"/>
</g>
<!-- Node8 -->
<g id="node8" class="node">
<title>Node8</title>
<g id="a_node8"><a xlink:href="d__camera_8cpp.html" target="_top" xlink:title=" ">
<polygon fill="white" stroke="#666666" points="891,-24.5 789,-24.5 789,-5.5 891,-5.5 891,-24.5"/>
<text text-anchor="middle" x="840" y="-12.5" font-family="Helvetica,sans-Serif" font-size="10.00">src/d/d_camera.cpp</text>
</a>
</g>
</g>
<!-- Node1&#45;&gt;Node8 -->
<g id="edge7" class="edge">
<title>Node1&#45;&gt;Node8</title>
<path fill="none" stroke="#63b8ff" d="M1528.76,-78.4C1393.9,-74.9 1125.22,-63.93 900,-30 891.54,-28.73 882.51,-26.88 874.09,-24.95"/>
<polygon fill="#63b8ff" stroke="#63b8ff" points="1528.61,-81.9 1538.69,-78.65 1528.78,-74.9 1528.61,-81.9"/>
</g>
<!-- Node9 -->
<g id="node9" class="node">
<title>Node9</title>
<g id="a_node9"><a xlink:href="d__lib_8cpp.html" target="_top" xlink:title=" ">
<polygon fill="white" stroke="#666666" points="989,-24.5 909,-24.5 909,-5.5 989,-5.5 989,-24.5"/>
<text text-anchor="middle" x="949" y="-12.5" font-family="Helvetica,sans-Serif" font-size="10.00">src/d/d_lib.cpp</text>
</a>
</g>
</g>
<!-- Node1&#45;&gt;Node9 -->
<g id="edge8" class="edge">
<title>Node1&#45;&gt;Node9</title>
<path fill="none" stroke="#63b8ff" d="M1529.03,-78.38C1409.18,-74.91 1185.46,-64.03 998,-30 991.04,-28.74 983.64,-26.89 976.76,-24.96"/>
<polygon fill="#63b8ff" stroke="#63b8ff" points="1528.7,-81.87 1538.79,-78.65 1528.89,-74.87 1528.7,-81.87"/>
</g>
<!-- Node10 -->
<g id="node10" class="node">
<title>Node10</title>
<g id="a_node10"><a xlink:href="d__name_8cpp.html" target="_top" xlink:title=" ">
<polygon fill="white" stroke="#666666" points="1101,-24.5 1007,-24.5 1007,-5.5 1101,-5.5 1101,-24.5"/>
<text text-anchor="middle" x="1054" y="-12.5" font-family="Helvetica,sans-Serif" font-size="10.00">src/d/d_name.cpp</text>
</a>
</g>
</g>
<!-- Node1&#45;&gt;Node10 -->
<g id="edge9" class="edge">
<title>Node1&#45;&gt;Node10</title>
<path fill="none" stroke="#63b8ff" d="M1528.75,-75.31C1427.79,-68.94 1255.85,-55.31 1110,-30 1102.3,-28.66 1094.09,-26.84 1086.4,-24.95"/>
<polygon fill="#63b8ff" stroke="#63b8ff" points="1528.39,-78.8 1538.59,-75.92 1528.82,-71.81 1528.39,-78.8"/>
</g>
<!-- Node11 -->
<g id="node11" class="node">
<title>Node11</title>
<g id="a_node11"><a xlink:href="d__vibration_8cpp.html" target="_top" xlink:title=" ">
<polygon fill="white" stroke="#666666" points="1226.5,-24.5 1119.5,-24.5 1119.5,-5.5 1226.5,-5.5 1226.5,-24.5"/>
<text text-anchor="middle" x="1173" y="-12.5" font-family="Helvetica,sans-Serif" font-size="10.00">src/d/d_vibration.cpp</text>
</a>
</g>
</g>
<!-- Node1&#45;&gt;Node11 -->
<g id="edge10" class="edge">
<title>Node1&#45;&gt;Node11</title>
<path fill="none" stroke="#63b8ff" d="M1528.96,-70.95C1451.71,-62.28 1335.37,-47.9 1235,-30 1226.96,-28.57 1218.39,-26.79 1210.26,-24.99"/>
<polygon fill="#63b8ff" stroke="#63b8ff" points="1528.23,-74.39 1538.56,-72.02 1529.01,-67.43 1528.23,-74.39"/>
</g>
<!-- Node12 -->
<g id="node12" class="node">
<title>Node12</title>
<g id="a_node12"><a xlink:href="d__event_8cpp.html" target="_top" xlink:title=" ">
<polygon fill="white" stroke="#666666" points="1365.5,-24.5 1244.5,-24.5 1244.5,-5.5 1365.5,-5.5 1365.5,-24.5"/>
<text text-anchor="middle" x="1305" y="-12.5" font-family="Helvetica,sans-Serif" font-size="10.00">src/d/event/d_event.cpp</text>
</a>
</g>
</g>
<!-- Node1&#45;&gt;Node12 -->
<g id="edge11" class="edge">
<title>Node1&#45;&gt;Node12</title>
<path fill="none" stroke="#63b8ff" d="M1533.82,-63.24C1474.48,-50.99 1396.32,-34.85 1348.41,-24.96"/>
<polygon fill="#63b8ff" stroke="#63b8ff" points="1533.06,-66.66 1543.56,-65.25 1534.48,-59.8 1533.06,-66.66"/>
</g>
<!-- Node13 -->
<g id="node13" class="node">
<title>Node13</title>
<g id="a_node13"><a xlink:href="d__file__select_8cpp.html" target="_top" xlink:title=" ">
<polygon fill="white" stroke="#666666" points="1512,-24.5 1384,-24.5 1384,-5.5 1512,-5.5 1512,-24.5"/>
<text text-anchor="middle" x="1448" y="-12.5" font-family="Helvetica,sans-Serif" font-size="10.00">src/d/file/d_file_select.cpp</text>
</a>
</g>
</g>
<!-- Node1&#45;&gt;Node13 -->
<g id="edge12" class="edge">
<title>Node1&#45;&gt;Node13</title>
<path fill="none" stroke="#63b8ff" d="M1566.82,-61.54C1535.51,-49.54 1496.08,-34.43 1471.45,-24.99"/>
<polygon fill="#63b8ff" stroke="#63b8ff" points="1565.52,-64.79 1576.11,-65.1 1568.02,-58.25 1565.52,-64.79"/>
</g>
<!-- Node14 -->
<g id="node14" class="node">
<title>Node14</title>
<g id="a_node14"><a xlink:href="d__menu__calibration_8cpp.html" target="_top" xlink:title=" ">
<polygon fill="white" stroke="#666666" points="1700,-24.5 1530,-24.5 1530,-5.5 1700,-5.5 1700,-24.5"/>
<text text-anchor="middle" x="1615" y="-12.5" font-family="Helvetica,sans-Serif" font-size="10.00">src/d/menu/d_menu_calibration.cpp</text>
</a>
</g>
</g>
<!-- Node1&#45;&gt;Node14 -->
<g id="edge13" class="edge">
<title>Node1&#45;&gt;Node14</title>
<path fill="none" stroke="#63b8ff" d="M1615,-54.59C1615,-44.06 1615,-32.53 1615,-24.84"/>
<polygon fill="#63b8ff" stroke="#63b8ff" points="1611.5,-54.28 1615,-64.28 1618.5,-54.28 1611.5,-54.28"/>
</g>
<!-- Node15 -->
<g id="node15" class="node">
<title>Node15</title>
<g id="a_node15"><a xlink:href="d__menu__fishing_8cpp.html" target="_top" xlink:title=" ">
<polygon fill="white" stroke="#666666" points="1872,-24.5 1718,-24.5 1718,-5.5 1872,-5.5 1872,-24.5"/>
<text text-anchor="middle" x="1795" y="-12.5" font-family="Helvetica,sans-Serif" font-size="10.00">src/d/menu/d_menu_fishing.cpp</text>
</a>
</g>
</g>
<!-- Node1&#45;&gt;Node15 -->
<g id="edge14" class="edge">
<title>Node1&#45;&gt;Node15</title>
<path fill="none" stroke="#63b8ff" d="M1666.04,-61.85C1699.93,-49.8 1742.95,-34.51 1769.73,-24.99"/>
<polygon fill="#63b8ff" stroke="#63b8ff" points="1665.07,-58.48 1656.82,-65.13 1667.42,-65.08 1665.07,-58.48"/>
</g>
<!-- Node16 -->
<g id="node16" class="node">
<title>Node16</title>
<g id="a_node16"><a xlink:href="d__menu__save_8cpp.html" target="_top" xlink:title=" ">
<polygon fill="white" stroke="#666666" points="2037.5,-24.5 1890.5,-24.5 1890.5,-5.5 2037.5,-5.5 2037.5,-24.5"/>
<text text-anchor="middle" x="1964" y="-12.5" font-family="Helvetica,sans-Serif" font-size="10.00">src/d/menu/d_menu_save.cpp</text>
</a>
</g>
</g>
<!-- Node1&#45;&gt;Node16 -->
<g id="edge15" class="edge">
<title>Node1&#45;&gt;Node16</title>
<path fill="none" stroke="#63b8ff" d="M1700.89,-64.25C1768.25,-51.9 1859.59,-35.15 1915.03,-24.98"/>
<polygon fill="#63b8ff" stroke="#63b8ff" points="1700.56,-60.75 1691.36,-66 1701.83,-67.64 1700.56,-60.75"/>
</g>
<!-- Node17 -->
<g id="node17" class="node">
<title>Node17</title>
<g id="a_node17"><a xlink:href="d__menu__skill_8cpp.html" target="_top" xlink:title=" ">
<polygon fill="white" stroke="#666666" points="2198.5,-24.5 2055.5,-24.5 2055.5,-5.5 2198.5,-5.5 2198.5,-24.5"/>
<text text-anchor="middle" x="2127" y="-12.5" font-family="Helvetica,sans-Serif" font-size="10.00">src/d/menu/d_menu_skill.cpp</text>
</a>
</g>
</g>
<!-- Node1&#45;&gt;Node17 -->
<g id="edge16" class="edge">
<title>Node1&#45;&gt;Node17</title>
<path fill="none" stroke="#63b8ff" d="M1701.15,-71.52C1788.48,-62.57 1927.41,-47.37 2047,-30 2057.19,-28.52 2068.07,-26.75 2078.42,-24.97"/>
<polygon fill="#63b8ff" stroke="#63b8ff" points="1700.8,-68.03 1691.21,-72.53 1701.51,-75 1700.8,-68.03"/>
</g>
<!-- Node18 -->
<g id="node18" class="node">
<title>Node18</title>
<g id="a_node18"><a xlink:href="d__menu__window_8cpp.html" target="_top" xlink:title=" ">
<polygon fill="white" stroke="#666666" points="2375.5,-24.5 2216.5,-24.5 2216.5,-5.5 2375.5,-5.5 2375.5,-24.5"/>
<text text-anchor="middle" x="2296" y="-12.5" font-family="Helvetica,sans-Serif" font-size="10.00">src/d/menu/d_menu_window.cpp</text>
</a>
</g>
</g>
<!-- Node1&#45;&gt;Node18 -->
<g id="edge17" class="edge">
<title>Node1&#45;&gt;Node18</title>
<path fill="none" stroke="#63b8ff" d="M1700.82,-74.75C1816.32,-67.24 2028.1,-51.86 2208,-30 2219.52,-28.6 2231.84,-26.82 2243.51,-25"/>
<polygon fill="#63b8ff" stroke="#63b8ff" points="1700.87,-71.24 1691.11,-75.38 1701.32,-78.23 1700.87,-71.24"/>
</g>
<!-- Node19 -->
<g id="node19" class="node">
<title>Node19</title>
<g id="a_node19"><a xlink:href="d__meter__map_8cpp.html" target="_top" xlink:title=" ">
<polygon fill="white" stroke="#666666" points="2498,-30 2394,-30 2394,0 2498,0 2498,-30"/>
<text text-anchor="start" x="2402" y="-18" font-family="Helvetica,sans-Serif" font-size="10.00">src/d/meter/d_meter</text>
<text text-anchor="middle" x="2446" y="-7" font-family="Helvetica,sans-Serif" font-size="10.00">_map.cpp</text>
</a>
</g>
</g>
<!-- Node1&#45;&gt;Node19 -->
<g id="edge18" class="edge">
<title>Node1&#45;&gt;Node19</title>
<path fill="none" stroke="#63b8ff" d="M1701.01,-78.92C1843.81,-76.11 2138.5,-66.05 2385,-30 2387.8,-29.59 2390.65,-29.12 2393.53,-28.61"/>
<polygon fill="#63b8ff" stroke="#63b8ff" points="1701.19,-75.41 1691.26,-79.1 1701.33,-82.41 1701.19,-75.41"/>
</g>
<!-- Node20 -->
<g id="node20" class="node">
<title>Node20</title>
<g id="a_node20"><a xlink:href="d__s__logo_8cpp.html" target="_top" xlink:title=" ">
<polygon fill="white" stroke="#666666" points="2623.5,-24.5 2516.5,-24.5 2516.5,-5.5 2623.5,-5.5 2623.5,-24.5"/>
<text text-anchor="middle" x="2570" y="-12.5" font-family="Helvetica,sans-Serif" font-size="10.00">src/d/s/d_s_logo.cpp</text>
</a>
</g>
</g>
<!-- Node1&#45;&gt;Node20 -->
<g id="edge19" class="edge">
<title>Node1&#45;&gt;Node20</title>
<path fill="none" stroke="#63b8ff" d="M1701.15,-79.81C1860.84,-78.44 2213.29,-70.59 2507,-30 2515.99,-28.76 2525.6,-26.9 2534.53,-24.94"/>
<polygon fill="#63b8ff" stroke="#63b8ff" points="1701.48,-76.31 1691.5,-79.89 1701.53,-83.31 1701.48,-76.31"/>
</g>
<!-- Node21 -->
<g id="node21" class="node">
<title>Node21</title>
<g id="a_node21"><a xlink:href="d__shop__system_8cpp.html" target="_top" xlink:title=" ">
<polygon fill="white" stroke="#666666" points="2794,-24.5 2642,-24.5 2642,-5.5 2794,-5.5 2794,-24.5"/>
<text text-anchor="middle" x="2718" y="-12.5" font-family="Helvetica,sans-Serif" font-size="10.00">src/d/shop/d_shop_system.cpp</text>
</a>
</g>
</g>
<!-- Node1&#45;&gt;Node21 -->
<g id="edge20" class="edge">
<title>Node1&#45;&gt;Node21</title>
<path fill="none" stroke="#63b8ff" d="M1701.43,-79.08C1877.31,-76.47 2289.26,-66.63 2633,-30 2644.9,-28.73 2657.66,-26.89 2669.58,-24.96"/>
<polygon fill="#63b8ff" stroke="#63b8ff" points="1701.4,-75.58 1691.46,-79.22 1701.5,-82.58 1701.4,-75.58"/>
</g>
<!-- Node22 -->
<g id="node22" class="node">
<title>Node22</title>
<g id="a_node22"><a xlink:href="f__pc__manager_8cpp.html" target="_top" xlink:title=" ">
<polygon fill="white" stroke="#666666" points="2946,-24.5 2812,-24.5 2812,-5.5 2946,-5.5 2946,-24.5"/>
<text text-anchor="middle" x="2879" y="-12.5" font-family="Helvetica,sans-Serif" font-size="10.00">src/f_pc/f_pc_manager.cpp</text>
</a>
</g>
</g>
<!-- Node1&#45;&gt;Node22 -->
<g id="edge21" class="edge">
<title>Node1&#45;&gt;Node22</title>
<path fill="none" stroke="#63b8ff" d="M1701.37,-80.5C1897.72,-80.73 2392.44,-76.22 2803,-30 2813.8,-28.78 2825.37,-26.94 2836.15,-24.98"/>
<polygon fill="#63b8ff" stroke="#63b8ff" points="1701.51,-77 1691.51,-80.48 1701.5,-84 1701.51,-77"/>
</g>
<!-- Node23 -->
<g id="node23" class="node">
<title>Node23</title>
<g id="a_node23"><a xlink:href="m__Do__controller__pad_8cpp.html" target="_top" xlink:title=" ">
<polygon fill="white" stroke="#666666" points="3096,-30 2964,-30 2964,0 3096,0 3096,-30"/>
<text text-anchor="start" x="2972" y="-18" font-family="Helvetica,sans-Serif" font-size="10.00">src/m_Do/m_Do_controller</text>
<text text-anchor="middle" x="3030" y="-7" font-family="Helvetica,sans-Serif" font-size="10.00">_pad.cpp</text>
</a>
</g>
</g>
<!-- Node1&#45;&gt;Node23 -->
<g id="edge22" class="edge">
<title>Node1&#45;&gt;Node23</title>
<path fill="none" stroke="#63b8ff" d="M1701.11,-78.45C1957.07,-73.56 2710.61,-57.22 2955,-30 2957.9,-29.68 2960.85,-29.31 2963.83,-28.9"/>
<polygon fill="#63b8ff" stroke="#63b8ff" points="1701.11,-74.95 1691.18,-78.63 1701.24,-81.94 1701.11,-74.95"/>
</g>
<!-- Node24 -->
<g id="node24" class="node">
<title>Node24</title>
<g id="a_node24"><a xlink:href="m__Do__graphic_8cpp.html" target="_top" xlink:title=" ">
<polygon fill="white" stroke="#666666" points="3256,-24.5 3114,-24.5 3114,-5.5 3256,-5.5 3256,-24.5"/>
<text text-anchor="middle" x="3185" y="-12.5" font-family="Helvetica,sans-Serif" font-size="10.00">src/m_Do/m_Do_graphic.cpp</text>
</a>
</g>
</g>
<!-- Node1&#45;&gt;Node24 -->
<g id="edge23" class="edge">
<title>Node1&#45;&gt;Node24</title>
<path fill="none" stroke="#63b8ff" d="M1701.14,-78.69C1975.97,-74.27 2829.95,-58.54 3105,-30 3116.5,-28.81 3128.84,-26.94 3140.3,-24.96"/>
<polygon fill="#63b8ff" stroke="#63b8ff" points="1701.12,-75.19 1691.17,-78.85 1701.23,-82.19 1701.12,-75.19"/>
</g>
<!-- Node25 -->
<g id="node25" class="node">
<title>Node25</title>
<g id="a_node25"><a xlink:href="m__Do__main_8cpp.html" target="_top" xlink:title=" ">
<polygon fill="white" stroke="#666666" points="3405.5,-24.5 3274.5,-24.5 3274.5,-5.5 3405.5,-5.5 3405.5,-24.5"/>
<text text-anchor="middle" x="3340" y="-12.5" font-family="Helvetica,sans-Serif" font-size="10.00">src/m_Do/m_Do_main.cpp</text>
</a>
</g>
</g>
<!-- Node1&#45;&gt;Node25 -->
<g id="edge24" class="edge">
<title>Node1&#45;&gt;Node25</title>
<path fill="none" stroke="#63b8ff" d="M1701.27,-79.14C1995.37,-75.95 2957.46,-63.16 3265,-30 3275.8,-28.84 3287.37,-26.98 3298.12,-25"/>
<polygon fill="#63b8ff" stroke="#63b8ff" points="1701.32,-75.64 1691.36,-79.25 1701.39,-82.64 1701.32,-75.64"/>
</g>
<!-- Node26 -->
<g id="node26" class="node">
<title>Node26</title>
<g id="a_node26"><a xlink:href="d__msg__scrn__explain_8cpp.html" target="_top" xlink:title=" ">
<polygon fill="white" stroke="#666666" points="3530,-30 3424,-30 3424,0 3530,0 3530,-30"/>
<text text-anchor="start" x="3432" y="-18" font-family="Helvetica,sans-Serif" font-size="10.00">src/msg/scrn/d_msg</text>
<text text-anchor="middle" x="3477" y="-7" font-family="Helvetica,sans-Serif" font-size="10.00">_scrn_explain.cpp</text>
</a>
</g>
</g>
<!-- Node1&#45;&gt;Node26 -->
<g id="edge25" class="edge">
<title>Node1&#45;&gt;Node26</title>
<path fill="none" stroke="#63b8ff" d="M1700.94,-79.83C2011.82,-78.85 3077.29,-72.41 3415,-30 3417.85,-29.64 3420.75,-29.21 3423.68,-28.73"/>
<polygon fill="#63b8ff" stroke="#63b8ff" points="1701.27,-76.32 1691.28,-79.85 1701.29,-83.32 1701.27,-76.32"/>
</g>
</g>
</svg>
        <g id="navigator" transform="translate(0 0)" fill="#404254">
                <rect fill="#f2f5e9" fill-opacity="0.5" stroke="#606060" stroke-width=".5" x="0" y="0" width="60" height="60"/>
                <use id="zoomplus" xlink:href="#zoomPlus" x="17" y="9" onmousedown="handleZoom(evt,'in')"/>
                <use id="zoomminus" xlink:href="#zoomMin" x="42" y="9" onmousedown="handleZoom(evt,'out')"/>
                <use id="reset" xlink:href="#resetDef" x="30" y="36" onmousedown="handleReset()"/>
                <g id="arrowUp" xlink:href="#dirArrow" transform="translate(30 24)" onmousedown="handlePan(0,-1)">
                  <use xlink:href="#rim" fill="#404040">
                        <set attributeName="fill" to="#808080" begin="arrowUp.mouseover" end="arrowUp.mouseout"/>
                  </use>
                  <path fill="none" stroke="white" stroke-width="1.5" d="M0,-3.0v7 M-2.5,-0.5L0,-3.0L2.5,-0.5"/>
                </g>
                <g id="arrowRight" xlink:href="#dirArrow" transform="rotate(90) translate(36 -43)" onmousedown="handlePan(1,0)">
                  <use xlink:href="#rim" fill="#404040">
                        <set attributeName="fill" to="#808080" begin="arrowRight.mouseover" end="arrowRight.mouseout"/>
                  </use>
                  <path fill="none" stroke="white" stroke-width="1.5" d="M0,-3.0v7 M-2.5,-0.5L0,-3.0L2.5,-0.5"/>
                </g>
                <g id="arrowDown" xlink:href="#dirArrow" transform="rotate(180) translate(-30 -48)" onmousedown="handlePan(0,1)">
                  <use xlink:href="#rim" fill="#404040">
                        <set attributeName="fill" to="#808080" begin="arrowDown.mouseover" end="arrowDown.mouseout"/>
                  </use>
                  <path fill="none" stroke="white" stroke-width="1.5" d="M0,-3.0v7 M-2.5,-0.5L0,-3.0L2.5,-0.5"/>
                </g>
                <g id="arrowLeft" xlink:href="#dirArrow" transform="rotate(270) translate(-36 17)" onmousedown="handlePan(-1,0)">
                  <use xlink:href="#rim" fill="#404040">
                        <set attributeName="fill" to="#808080" begin="arrowLeft.mouseover" end="arrowLeft.mouseout"/>
                  </use>
                  <path fill="none" stroke="white" stroke-width="1.5" d="M0,-3.0v7 M-2.5,-0.5L0,-3.0L2.5,-0.5"/>
                </g>
        </g>
        <svg viewBox="0 0 15 15" width="100%" height="30px" preserveAspectRatio="xMaxYMin meet">
         <g id="arrow_out" transform="scale(0.3 0.3)">
          <a xlink:href="m__Do__controller__pad_8h__dep__incl_org.svg" target="_base">
           <rect id="button" ry="5" rx="5" y="6" x="6" height="38" width="38"
                fill="#f2f5e9" fill-opacity="0.5" stroke="#606060" stroke-width="1.0"/>
           <path id="arrow"
             d="M 11.500037,31.436501 C 11.940474,20.09759 22.043105,11.32322 32.158766,21.979434 L 37.068811,17.246167 C 37.068811,17.246167 37.088388,32 37.088388,32 L 22.160133,31.978069 C 22.160133,31.978069 26.997745,27.140456 26.997745,27.140456 C 18.528582,18.264221 13.291696,25.230495 11.500037,31.436501 z"
             style="fill:#404040;"/>
          </a>
         </g>
        </svg>
</svg>
