<?xml version="1.0" encoding="UTF-8" standalone="no"?>
<!DOCTYPE svg PUBLIC "-//W3C//DTD SVG 1.1//EN"
 "http://www.w3.org/Graphics/SVG/1.1/DTD/svg11.dtd">
<!-- Generated by graphviz version 7.0.5 (20221223.1930)
 -->
<!-- Title: include/m_Do/m_Do_controller_pad.h Pages: 1 -->
<svg width="3253pt" height="104pt"
 viewBox="0.00 0.00 3252.50 104.00" xmlns="http://www.w3.org/2000/svg" xmlns:xlink="http://www.w3.org/1999/xlink">
<g id="graph0" class="graph" transform="scale(1 1) rotate(0) translate(4 100)">
<title>include/m_Do/m_Do_controller_pad.h</title>
<!-- Node1 -->
<g id="node1" class="node">
<title>Node1</title>
<g id="a_node1"><a xlink:title=" ">
<polygon fill="#999999" stroke="#666666" points="1522.5,-96 1373.5,-96 1373.5,-66 1522.5,-66 1522.5,-96"/>
<text text-anchor="start" x="1381.5" y="-84" font-family="Helvetica,sans-Serif" font-size="10.00">include/m_Do/m_Do_controller</text>
<text text-anchor="middle" x="1448" y="-73" font-family="Helvetica,sans-Serif" font-size="10.00">_pad.h</text>
</a>
</g>
</g>
<!-- Node2 -->
<g id="node2" class="node">
<title>Node2</title>
<g id="a_node2"><a xlink:href="d__a__do_8h.html" target="_top" xlink:title=" ">
<polygon fill="white" stroke="#666666" points="96,-30 0,-30 0,0 96,0 96,-30"/>
<text text-anchor="start" x="8" y="-18" font-family="Helvetica,sans-Serif" font-size="10.00">include/rel/d/a/d_a</text>
<text text-anchor="middle" x="48" y="-7" font-family="Helvetica,sans-Serif" font-size="10.00">_do/d_a_do.h</text>
</a>
</g>
</g>
<!-- Node1&#45;&gt;Node2 -->
<g id="edge1" class="edge">
<title>Node1&#45;&gt;Node2</title>
<path fill="none" stroke="#63b8ff" d="M1361.62,-79.08C1104.86,-75.99 349.07,-64.15 105,-30 102.17,-29.6 99.28,-29.13 96.38,-28.59"/>
<polygon fill="#63b8ff" stroke="#63b8ff" points="1361.55,-82.58 1371.59,-79.2 1361.63,-75.58 1361.55,-82.58"/>
</g>
<!-- Node3 -->
<g id="node3" class="node">
<title>Node3</title>
<g id="a_node3"><a xlink:href="c__API__controller__pad_8cpp.html" target="_top" xlink:title=" ">
<polygon fill="white" stroke="#666666" points="248,-30 114,-30 114,0 248,0 248,-30"/>
<text text-anchor="start" x="122" y="-18" font-family="Helvetica,sans-Serif" font-size="10.00">libs/SSystem/SComponent</text>
<text text-anchor="middle" x="181" y="-7" font-family="Helvetica,sans-Serif" font-size="10.00">/c_API_controller_pad.cpp</text>
</a>
</g>
</g>
<!-- Node1&#45;&gt;Node3 -->
<g id="edge2" class="edge">
<title>Node1&#45;&gt;Node3</title>
<path fill="none" stroke="#63b8ff" d="M1361.77,-80.51C1165.17,-80.78 668.85,-76.35 257,-30 254.2,-29.68 251.35,-29.33 248.47,-28.94"/>
<polygon fill="#63b8ff" stroke="#63b8ff" points="1361.66,-84.01 1371.65,-80.49 1361.64,-77.01 1361.66,-84.01"/>
</g>
<!-- Node4 -->
<g id="node4" class="node">
<title>Node4</title>
<g id="a_node4"><a xlink:href="d__a__alink_8cpp.html" target="_top" xlink:title=" ">
<polygon fill="white" stroke="#666666" points="375.5,-24.5 266.5,-24.5 266.5,-5.5 375.5,-5.5 375.5,-24.5"/>
<text text-anchor="middle" x="321" y="-12.5" font-family="Helvetica,sans-Serif" font-size="10.00">src/d/a/d_a_alink.cpp</text>
</a>
</g>
</g>
<!-- Node1&#45;&gt;Node4 -->
<g id="edge3" class="edge">
<title>Node1&#45;&gt;Node4</title>
<path fill="none" stroke="#63b8ff" d="M1361.87,-80.84C1180.38,-81.55 745.66,-77.58 385,-30 375.87,-28.79 366.11,-26.95 357.03,-24.99"/>
<polygon fill="#63b8ff" stroke="#63b8ff" points="1361.69,-84.34 1371.68,-80.8 1361.66,-77.35 1361.69,-84.34"/>
</g>
<!-- Node5 -->
<g id="node5" class="node">
<title>Node5</title>
<g id="a_node5"><a xlink:href="d__com__inf__game_8cpp.html" target="_top" xlink:title=" ">
<polygon fill="white" stroke="#666666" points="502,-30 394,-30 394,0 502,0 502,-30"/>
<text text-anchor="start" x="402" y="-18" font-family="Helvetica,sans-Serif" font-size="10.00">src/d/com/d_com_inf</text>
<text text-anchor="middle" x="448" y="-7" font-family="Helvetica,sans-Serif" font-size="10.00">_game.cpp</text>
</a>
</g>
</g>
<!-- Node1&#45;&gt;Node5 -->
<g id="edge4" class="edge">
<title>Node1&#45;&gt;Node5</title>
<path fill="none" stroke="#63b8ff" d="M1362.14,-80.15C1196.66,-79.39 822.41,-72.61 511,-30 508.11,-29.61 505.16,-29.15 502.19,-28.64"/>
<polygon fill="#63b8ff" stroke="#63b8ff" points="1361.68,-83.65 1371.7,-80.19 1361.71,-76.65 1361.68,-83.65"/>
</g>
<!-- Node6 -->
<g id="node6" class="node">
<title>Node6</title>
<g id="a_node6"><a xlink:href="d__attention_8cpp.html" target="_top" xlink:title=" ">
<polygon fill="white" stroke="#666666" points="627.5,-24.5 520.5,-24.5 520.5,-5.5 627.5,-5.5 627.5,-24.5"/>
<text text-anchor="middle" x="574" y="-12.5" font-family="Helvetica,sans-Serif" font-size="10.00">src/d/d_attention.cpp</text>
</a>
</g>
</g>
<!-- Node1&#45;&gt;Node6 -->
<g id="edge5" class="edge">
<title>Node1&#45;&gt;Node6</title>
<path fill="none" stroke="#63b8ff" d="M1361.86,-79.23C1213.08,-76.89 898.66,-67.49 636,-30 627.26,-28.75 617.93,-26.92 609.23,-24.98"/>
<polygon fill="#63b8ff" stroke="#63b8ff" points="1361.58,-82.72 1371.63,-79.37 1361.69,-75.72 1361.58,-82.72"/>
</g>
<!-- Node7 -->
<g id="node7" class="node">
<title>Node7</title>
<g id="a_node7"><a xlink:href="d__bright__check_8cpp.html" target="_top" xlink:title=" ">
<polygon fill="white" stroke="#666666" points="770.5,-24.5 645.5,-24.5 645.5,-5.5 770.5,-5.5 770.5,-24.5"/>
<text text-anchor="middle" x="708" y="-12.5" font-family="Helvetica,sans-Serif" font-size="10.00">src/d/d_bright_check.cpp</text>
</a>
</g>
</g>
<!-- Node1&#45;&gt;Node7 -->
<g id="edge6" class="edge">
<title>Node1&#45;&gt;Node7</title>
<path fill="none" stroke="#63b8ff" d="M1361.85,-76.79C1234.28,-71.29 987.83,-57.89 780,-30 770.16,-28.68 759.63,-26.86 749.74,-24.98"/>
<polygon fill="#63b8ff" stroke="#63b8ff" points="1361.42,-80.27 1371.56,-77.2 1361.71,-73.28 1361.42,-80.27"/>
</g>
<!-- Node8 -->
<g id="node8" class="node">
<title>Node8</title>
<g id="a_node8"><a xlink:href="d__camera_8cpp.html" target="_top" xlink:title=" ">
<polygon fill="white" stroke="#666666" points="891,-24.5 789,-24.5 789,-5.5 891,-5.5 891,-24.5"/>
<text text-anchor="middle" x="840" y="-12.5" font-family="Helvetica,sans-Serif" font-size="10.00">src/d/d_camera.cpp</text>
</a>
</g>
</g>
<!-- Node1&#45;&gt;Node8 -->
<g id="edge7" class="edge">
<title>Node1&#45;&gt;Node8</title>
<path fill="none" stroke="#63b8ff" d="M1361.95,-75.84C1253.64,-69.75 1062.14,-56.18 900,-30 891.76,-28.67 882.98,-26.85 874.74,-24.96"/>
<polygon fill="#63b8ff" stroke="#63b8ff" points="1361.45,-79.31 1371.62,-76.37 1361.83,-72.32 1361.45,-79.31"/>
</g>
<!-- Node9 -->
<g id="node9" class="node">
<title>Node9</title>
<g id="a_node9"><a xlink:href="d__lib_8cpp.html" target="_top" xlink:title=" ">
<polygon fill="white" stroke="#666666" points="989,-24.5 909,-24.5 909,-5.5 989,-5.5 989,-24.5"/>
<text text-anchor="middle" x="949" y="-12.5" font-family="Helvetica,sans-Serif" font-size="10.00">src/d/d_lib.cpp</text>
</a>
</g>
</g>
<!-- Node1&#45;&gt;Node9 -->
<g id="edge8" class="edge">
<title>Node1&#45;&gt;Node9</title>
<path fill="none" stroke="#63b8ff" d="M1362,-74.75C1270.95,-68.19 1123.36,-54.69 998,-30 991.23,-28.67 984.04,-26.85 977.31,-24.96"/>
<polygon fill="#63b8ff" stroke="#63b8ff" points="1361.63,-78.23 1371.85,-75.44 1362.13,-71.25 1361.63,-78.23"/>
</g>
<!-- Node10 -->
<g id="node10" class="node">
<title>Node10</title>
<g id="a_node10"><a xlink:href="d__name_8cpp.html" target="_top" xlink:title=" ">
<polygon fill="white" stroke="#666666" points="1101,-24.5 1007,-24.5 1007,-5.5 1101,-5.5 1101,-24.5"/>
<text text-anchor="middle" x="1054" y="-12.5" font-family="Helvetica,sans-Serif" font-size="10.00">src/d/d_name.cpp</text>
</a>
</g>
</g>
<!-- Node1&#45;&gt;Node10 -->
<g id="edge9" class="edge">
<title>Node1&#45;&gt;Node10</title>
<path fill="none" stroke="#63b8ff" d="M1361.96,-69.64C1293.41,-60.82 1195.15,-46.9 1110,-30 1102.73,-28.56 1094.98,-26.78 1087.64,-24.98"/>
<polygon fill="#63b8ff" stroke="#63b8ff" points="1361.26,-73.08 1371.63,-70.87 1362.15,-66.14 1361.26,-73.08"/>
</g>
<!-- Node11 -->
<g id="node11" class="node">
<title>Node11</title>
<g id="a_node11"><a xlink:href="d__vibration_8cpp.html" target="_top" xlink:title=" ">
<polygon fill="white" stroke="#666666" points="1226.5,-24.5 1119.5,-24.5 1119.5,-5.5 1226.5,-5.5 1226.5,-24.5"/>
<text text-anchor="middle" x="1173" y="-12.5" font-family="Helvetica,sans-Serif" font-size="10.00">src/d/d_vibration.cpp</text>
</a>
</g>
</g>
<!-- Node1&#45;&gt;Node11 -->
<g id="edge10" class="edge">
<title>Node1&#45;&gt;Node11</title>
<path fill="none" stroke="#63b8ff" d="M1375,-63.01C1322.48,-50.79 1253.74,-34.79 1211.51,-24.96"/>
<polygon fill="#63b8ff" stroke="#63b8ff" points="1373.93,-66.36 1384.47,-65.21 1375.52,-59.54 1373.93,-66.36"/>
</g>
<!-- Node12 -->
<g id="node12" class="node">
<title>Node12</title>
<g id="a_node12"><a xlink:href="d__event_8cpp.html" target="_top" xlink:title=" ">
<polygon fill="white" stroke="#666666" points="1365.5,-24.5 1244.5,-24.5 1244.5,-5.5 1365.5,-5.5 1365.5,-24.5"/>
<text text-anchor="middle" x="1305" y="-12.5" font-family="Helvetica,sans-Serif" font-size="10.00">src/d/event/d_event.cpp</text>
</a>
</g>
</g>
<!-- Node1&#45;&gt;Node12 -->
<g id="edge11" class="edge">
<title>Node1&#45;&gt;Node12</title>
<path fill="none" stroke="#63b8ff" d="M1405.69,-61.06C1379.05,-49.14 1345.89,-34.3 1325.08,-24.99"/>
<polygon fill="#63b8ff" stroke="#63b8ff" points="1403.97,-64.13 1414.53,-65.02 1406.83,-57.74 1403.97,-64.13"/>
</g>
<!-- Node13 -->
<g id="node13" class="node">
<title>Node13</title>
<g id="a_node13"><a xlink:href="d__file__select_8cpp.html" target="_top" xlink:title=" ">
<polygon fill="white" stroke="#666666" points="1512,-24.5 1384,-24.5 1384,-5.5 1512,-5.5 1512,-24.5"/>
<text text-anchor="middle" x="1448" y="-12.5" font-family="Helvetica,sans-Serif" font-size="10.00">src/d/file/d_file_select.cpp</text>
</a>
</g>
</g>
<!-- Node1&#45;&gt;Node13 -->
<g id="edge12" class="edge">
<title>Node1&#45;&gt;Node13</title>
<path fill="none" stroke="#63b8ff" d="M1448,-54.59C1448,-44.06 1448,-32.53 1448,-24.84"/>
<polygon fill="#63b8ff" stroke="#63b8ff" points="1444.5,-54.28 1448,-64.28 1451.5,-54.28 1444.5,-54.28"/>
</g>
<!-- Node14 -->
<g id="node14" class="node">
<title>Node14</title>
<g id="a_node14"><a xlink:href="d__menu__calibration_8cpp.html" target="_top" xlink:title=" ">
<polygon fill="white" stroke="#666666" points="1700,-24.5 1530,-24.5 1530,-5.5 1700,-5.5 1700,-24.5"/>
<text text-anchor="middle" x="1615" y="-12.5" font-family="Helvetica,sans-Serif" font-size="10.00">src/d/menu/d_menu_calibration.cpp</text>
</a>
</g>
</g>
<!-- Node1&#45;&gt;Node14 -->
<g id="edge13" class="edge">
<title>Node1&#45;&gt;Node14</title>
<path fill="none" stroke="#63b8ff" d="M1496.18,-61.54C1527.49,-49.54 1566.92,-34.43 1591.55,-24.99"/>
<polygon fill="#63b8ff" stroke="#63b8ff" points="1494.98,-58.25 1486.89,-65.1 1497.48,-64.79 1494.98,-58.25"/>
</g>
<!-- Node15 -->
<g id="node15" class="node">
<title>Node15</title>
<g id="a_node15"><a xlink:href="d__menu__fishing_8cpp.html" target="_top" xlink:title=" ">
<polygon fill="white" stroke="#666666" points="1872,-24.5 1718,-24.5 1718,-5.5 1872,-5.5 1872,-24.5"/>
<text text-anchor="middle" x="1795" y="-12.5" font-family="Helvetica,sans-Serif" font-size="10.00">src/d/menu/d_menu_fishing.cpp</text>
</a>
</g>
</g>
<!-- Node1&#45;&gt;Node15 -->
<g id="edge14" class="edge">
<title>Node1&#45;&gt;Node15</title>
<path fill="none" stroke="#63b8ff" d="M1533.82,-64.17C1600.81,-51.82 1691.45,-35.1 1746.43,-24.96"/>
<polygon fill="#63b8ff" stroke="#63b8ff" points="1533.55,-60.66 1524.36,-65.92 1534.82,-67.55 1533.55,-60.66"/>
</g>
<!-- Node16 -->
<g id="node16" class="node">
<title>Node16</title>
<g id="a_node16"><a xlink:href="d__menu__save_8cpp.html" target="_top" xlink:title=" ">
<polygon fill="white" stroke="#666666" points="2037.5,-24.5 1890.5,-24.5 1890.5,-5.5 2037.5,-5.5 2037.5,-24.5"/>
<text text-anchor="middle" x="1964" y="-12.5" font-family="Helvetica,sans-Serif" font-size="10.00">src/d/menu/d_menu_save.cpp</text>
</a>
</g>
</g>
<!-- Node1&#45;&gt;Node16 -->
<g id="edge15" class="edge">
<title>Node1&#45;&gt;Node16</title>
<path fill="none" stroke="#63b8ff" d="M1534.06,-71.4C1621.56,-62.34 1760.96,-47.04 1881,-30 1891.56,-28.5 1902.85,-26.72 1913.59,-24.94"/>
<polygon fill="#63b8ff" stroke="#63b8ff" points="1533.95,-67.89 1524.36,-72.4 1534.67,-74.85 1533.95,-67.89"/>
</g>
<!-- Node17 -->
<g id="node17" class="node">
<title>Node17</title>
<g id="a_node17"><a xlink:href="d__menu__window_8cpp.html" target="_top" xlink:title=" ">
<polygon fill="white" stroke="#666666" points="2214.5,-24.5 2055.5,-24.5 2055.5,-5.5 2214.5,-5.5 2214.5,-24.5"/>
<text text-anchor="middle" x="2135" y="-12.5" font-family="Helvetica,sans-Serif" font-size="10.00">src/d/menu/d_menu_window.cpp</text>
</a>
</g>
</g>
<!-- Node1&#45;&gt;Node17 -->
<g id="edge16" class="edge">
<title>Node1&#45;&gt;Node17</title>
<path fill="none" stroke="#63b8ff" d="M1534.2,-74.83C1650.77,-67.37 1865.03,-52.04 2047,-30 2058.67,-28.59 2071.17,-26.78 2082.97,-24.93"/>
<polygon fill="#63b8ff" stroke="#63b8ff" points="1534.16,-71.32 1524.4,-75.45 1534.6,-78.31 1534.16,-71.32"/>
</g>
<!-- Node18 -->
<g id="node18" class="node">
<title>Node18</title>
<g id="a_node18"><a xlink:href="d__meter__map_8cpp.html" target="_top" xlink:title=" ">
<polygon fill="white" stroke="#666666" points="2337,-30 2233,-30 2233,0 2337,0 2337,-30"/>
<text text-anchor="start" x="2241" y="-18" font-family="Helvetica,sans-Serif" font-size="10.00">src/d/meter/d_meter</text>
<text text-anchor="middle" x="2285" y="-7" font-family="Helvetica,sans-Serif" font-size="10.00">_map.cpp</text>
</a>
</g>
</g>
<!-- Node1&#45;&gt;Node18 -->
<g id="edge17" class="edge">
<title>Node1&#45;&gt;Node18</title>
<path fill="none" stroke="#63b8ff" d="M1534.12,-78.98C1677.81,-76.26 1975.25,-66.32 2224,-30 2226.8,-29.59 2229.65,-29.12 2232.53,-28.61"/>
<polygon fill="#63b8ff" stroke="#63b8ff" points="1534.23,-75.47 1524.3,-79.15 1534.36,-82.47 1534.23,-75.47"/>
</g>
<!-- Node19 -->
<g id="node19" class="node">
<title>Node19</title>
<g id="a_node19"><a xlink:href="d__s__logo_8cpp.html" target="_top" xlink:title=" ">
<polygon fill="white" stroke="#666666" points="2462.5,-24.5 2355.5,-24.5 2355.5,-5.5 2462.5,-5.5 2462.5,-24.5"/>
<text text-anchor="middle" x="2409" y="-12.5" font-family="Helvetica,sans-Serif" font-size="10.00">src/d/s/d_s_logo.cpp</text>
</a>
</g>
</g>
<!-- Node1&#45;&gt;Node19 -->
<g id="edge18" class="edge">
<title>Node1&#45;&gt;Node19</title>
<path fill="none" stroke="#63b8ff" d="M1534.12,-79.86C1694.59,-78.57 2049.94,-70.86 2346,-30 2354.99,-28.76 2364.6,-26.9 2373.53,-24.94"/>
<polygon fill="#63b8ff" stroke="#63b8ff" points="1534.39,-76.36 1524.42,-79.93 1534.44,-83.36 1534.39,-76.36"/>
</g>
<!-- Node20 -->
<g id="node20" class="node">
<title>Node20</title>
<g id="a_node20"><a xlink:href="d__shop__system_8cpp.html" target="_top" xlink:title=" ">
<polygon fill="white" stroke="#666666" points="2633,-24.5 2481,-24.5 2481,-5.5 2633,-5.5 2633,-24.5"/>
<text text-anchor="middle" x="2557" y="-12.5" font-family="Helvetica,sans-Serif" font-size="10.00">src/d/shop/d_shop_system.cpp</text>
</a>
</g>
</g>
<!-- Node1&#45;&gt;Node20 -->
<g id="edge19" class="edge">
<title>Node1&#45;&gt;Node20</title>
<path fill="none" stroke="#63b8ff" d="M1534.02,-79.12C1710.4,-76.58 2125.62,-66.86 2472,-30 2483.9,-28.73 2496.66,-26.89 2508.58,-24.96"/>
<polygon fill="#63b8ff" stroke="#63b8ff" points="1534.21,-75.62 1524.26,-79.26 1534.31,-82.62 1534.21,-75.62"/>
</g>
<!-- Node21 -->
<g id="node21" class="node">
<title>Node21</title>
<g id="a_node21"><a xlink:href="f__pc__manager_8cpp.html" target="_top" xlink:title=" ">
<polygon fill="white" stroke="#666666" points="2785,-24.5 2651,-24.5 2651,-5.5 2785,-5.5 2785,-24.5"/>
<text text-anchor="middle" x="2718" y="-12.5" font-family="Helvetica,sans-Serif" font-size="10.00">src/f_pc/f_pc_manager.cpp</text>
</a>
</g>
</g>
<!-- Node1&#45;&gt;Node21 -->
<g id="edge20" class="edge">
<title>Node1&#45;&gt;Node21</title>
<path fill="none" stroke="#63b8ff" d="M1534.08,-80.53C1730.93,-80.83 2228.86,-76.47 2642,-30 2652.8,-28.79 2664.37,-26.94 2675.15,-24.98"/>
<polygon fill="#63b8ff" stroke="#63b8ff" points="1534.2,-77.03 1524.19,-80.51 1534.18,-84.03 1534.2,-77.03"/>
</g>
<!-- Node22 -->
<g id="node22" class="node">
<title>Node22</title>
<g id="a_node22"><a xlink:href="m__Do__controller__pad_8cpp.html" target="_top" xlink:title=" ">
<polygon fill="white" stroke="#666666" points="2935,-30 2803,-30 2803,0 2935,0 2935,-30"/>
<text text-anchor="start" x="2811" y="-18" font-family="Helvetica,sans-Serif" font-size="10.00">src/m_Do/m_Do_controller</text>
<text text-anchor="middle" x="2869" y="-7" font-family="Helvetica,sans-Serif" font-size="10.00">_pad.cpp</text>
</a>
</g>
</g>
<!-- Node1&#45;&gt;Node22 -->
<g id="edge21" class="edge">
<title>Node1&#45;&gt;Node22</title>
<path fill="none" stroke="#63b8ff" d="M1534.49,-78.46C1791.6,-73.6 2548.52,-57.32 2794,-30 2796.9,-29.68 2799.85,-29.31 2802.83,-28.9"/>
<polygon fill="#63b8ff" stroke="#63b8ff" points="1534.44,-74.96 1524.51,-78.64 1534.57,-81.95 1534.44,-74.96"/>
</g>
<!-- Node23 -->
<g id="node23" class="node">
<title>Node23</title>
<g id="a_node23"><a xlink:href="m__Do__graphic_8cpp.html" target="_top" xlink:title=" ">
<polygon fill="white" stroke="#666666" points="3095,-24.5 2953,-24.5 2953,-5.5 3095,-5.5 3095,-24.5"/>
<text text-anchor="middle" x="3024" y="-12.5" font-family="Helvetica,sans-Serif" font-size="10.00">src/m_Do/m_Do_graphic.cpp</text>
</a>
</g>
</g>
<!-- Node1&#45;&gt;Node23 -->
<g id="edge22" class="edge">
<title>Node1&#45;&gt;Node23</title>
<path fill="none" stroke="#63b8ff" d="M1534.08,-78.71C1809.57,-74.32 2667.7,-58.65 2944,-30 2955.5,-28.81 2967.84,-26.94 2979.3,-24.96"/>
<polygon fill="#63b8ff" stroke="#63b8ff" points="1534.42,-75.2 1524.47,-78.86 1534.53,-82.2 1534.42,-75.2"/>
</g>
<!-- Node24 -->
<g id="node24" class="node">
<title>Node24</title>
<g id="a_node24"><a xlink:href="m__Do__main_8cpp.html" target="_top" xlink:title=" ">
<polygon fill="white" stroke="#666666" points="3244.5,-24.5 3113.5,-24.5 3113.5,-5.5 3244.5,-5.5 3244.5,-24.5"/>
<text text-anchor="middle" x="3179" y="-12.5" font-family="Helvetica,sans-Serif" font-size="10.00">src/m_Do/m_Do_main.cpp</text>
</a>
</g>
</g>
<!-- Node1&#45;&gt;Node24 -->
<g id="edge23" class="edge">
<title>Node1&#45;&gt;Node24</title>
<path fill="none" stroke="#63b8ff" d="M1534.08,-79.16C1828.65,-76 2795.16,-63.29 3104,-30 3114.8,-28.84 3126.37,-26.98 3137.12,-25"/>
<polygon fill="#63b8ff" stroke="#63b8ff" points="1534.11,-75.66 1524.15,-79.26 1534.18,-82.66 1534.11,-75.66"/>
</g>
</g>
</svg>
