<?xml version="1.0" encoding="UTF-8" standalone="no"?>
<!DOCTYPE svg PUBLIC "-//W3C//DTD SVG 1.1//EN"
 "http://www.w3.org/Graphics/SVG/1.1/DTD/svg11.dtd">
<!-- Generated by graphviz version 7.0.5 (20221223.1930)
 -->
<!-- Title: include/m_Do/m_Do_controller_pad.h Pages: 1 -->
<svg width="3580pt" height="104pt"
 viewBox="0.00 0.00 3580.00 104.00" xmlns="http://www.w3.org/2000/svg" xmlns:xlink="http://www.w3.org/1999/xlink">
<g id="graph0" class="graph" transform="scale(1 1) rotate(0) translate(4 100)">
<title>include/m_Do/m_Do_controller_pad.h</title>
<!-- Node1 -->
<g id="node1" class="node">
<title>Node1</title>
<g id="a_node1"><a xlink:title=" ">
<polygon fill="#999999" stroke="#666666" points="1741.5,-96 1592.5,-96 1592.5,-66 1741.5,-66 1741.5,-96"/>
<text text-anchor="start" x="1600.5" y="-84" font-family="Helvetica,sans-Serif" font-size="10.00">include/m_Do/m_Do_controller</text>
<text text-anchor="middle" x="1667" y="-73" font-family="Helvetica,sans-Serif" font-size="10.00">_pad.h</text>
</a>
</g>
</g>
<!-- Node2 -->
<g id="node2" class="node">
<title>Node2</title>
<g id="a_node2"><a xlink:href="d__a__do_8h.html" target="_top" xlink:title=" ">
<polygon fill="white" stroke="#666666" points="96,-30 0,-30 0,0 96,0 96,-30"/>
<text text-anchor="start" x="8" y="-18" font-family="Helvetica,sans-Serif" font-size="10.00">include/rel/d/a/d_a</text>
<text text-anchor="middle" x="48" y="-7" font-family="Helvetica,sans-Serif" font-size="10.00">_do/d_a_do.h</text>
</a>
</g>
</g>
<!-- Node1&#45;&gt;Node2 -->
<g id="edge1" class="edge">
<title>Node1&#45;&gt;Node2</title>
<path fill="none" stroke="#63b8ff" d="M1580.98,-79.61C1297.38,-77.96 393.65,-69.63 105,-30 102.17,-29.61 99.28,-29.14 96.38,-28.61"/>
<polygon fill="#63b8ff" stroke="#63b8ff" points="1580.87,-83.11 1590.89,-79.67 1580.91,-76.11 1580.87,-83.11"/>
</g>
<!-- Node3 -->
<g id="node3" class="node">
<title>Node3</title>
<g id="a_node3"><a xlink:href="c__API__controller__pad_8cpp.html" target="_top" xlink:title=" ">
<polygon fill="white" stroke="#666666" points="248,-30 114,-30 114,0 248,0 248,-30"/>
<text text-anchor="start" x="122" y="-18" font-family="Helvetica,sans-Serif" font-size="10.00">libs/SSystem/SComponent</text>
<text text-anchor="middle" x="181" y="-7" font-family="Helvetica,sans-Serif" font-size="10.00">/c_API_controller_pad.cpp</text>
</a>
</g>
</g>
<!-- Node1&#45;&gt;Node3 -->
<g id="edge2" class="edge">
<title>Node1&#45;&gt;Node3</title>
<path fill="none" stroke="#63b8ff" d="M1580.99,-78.61C1316.2,-74.05 515.67,-58.26 257,-30 254.2,-29.69 251.35,-29.34 248.47,-28.96"/>
<polygon fill="#63b8ff" stroke="#63b8ff" points="1580.86,-82.1 1590.92,-78.78 1580.98,-75.1 1580.86,-82.1"/>
</g>
<!-- Node4 -->
<g id="node4" class="node">
<title>Node4</title>
<g id="a_node4"><a xlink:href="d__com__inf__game_8cpp.html" target="_top" xlink:title=" ">
<polygon fill="white" stroke="#666666" points="374,-30 266,-30 266,0 374,0 374,-30"/>
<text text-anchor="start" x="274" y="-18" font-family="Helvetica,sans-Serif" font-size="10.00">src/d/com/d_com_inf</text>
<text text-anchor="middle" x="320" y="-7" font-family="Helvetica,sans-Serif" font-size="10.00">_game.cpp</text>
</a>
</g>
</g>
<!-- Node1&#45;&gt;Node4 -->
<g id="edge3" class="edge">
<title>Node1&#45;&gt;Node4</title>
<path fill="none" stroke="#63b8ff" d="M1580.61,-78.66C1331.62,-74.48 615.48,-60.11 383,-30 380.11,-29.63 377.16,-29.18 374.19,-28.69"/>
<polygon fill="#63b8ff" stroke="#63b8ff" points="1580.54,-82.16 1590.6,-78.83 1580.66,-75.16 1580.54,-82.16"/>
</g>
<!-- Node5 -->
<g id="node5" class="node">
<title>Node5</title>
<g id="a_node5"><a xlink:href="d__attention_8cpp.html" target="_top" xlink:title=" ">
<polygon fill="white" stroke="#666666" points="499.5,-24.5 392.5,-24.5 392.5,-5.5 499.5,-5.5 499.5,-24.5"/>
<text text-anchor="middle" x="446" y="-12.5" font-family="Helvetica,sans-Serif" font-size="10.00">src/d/d_attention.cpp</text>
</a>
</g>
</g>
<!-- Node1&#45;&gt;Node5 -->
<g id="edge4" class="edge">
<title>Node1&#45;&gt;Node5</title>
<path fill="none" stroke="#63b8ff" d="M1580.67,-78.28C1348.66,-73.34 715.24,-57.64 508,-30 499.03,-28.8 489.45,-26.94 480.56,-24.95"/>
<polygon fill="#63b8ff" stroke="#63b8ff" points="1580.49,-81.78 1590.56,-78.49 1580.64,-74.78 1580.49,-81.78"/>
</g>
<!-- Node6 -->
<g id="node6" class="node">
<title>Node6</title>
<g id="a_node6"><a xlink:href="d__bright__check_8cpp.html" target="_top" xlink:title=" ">
<polygon fill="white" stroke="#666666" points="642.5,-24.5 517.5,-24.5 517.5,-5.5 642.5,-5.5 642.5,-24.5"/>
<text text-anchor="middle" x="580" y="-12.5" font-family="Helvetica,sans-Serif" font-size="10.00">src/d/d_bright_check.cpp</text>
</a>
</g>
</g>
<!-- Node1&#45;&gt;Node6 -->
<g id="edge5" class="edge">
<title>Node1&#45;&gt;Node6</title>
<path fill="none" stroke="#63b8ff" d="M1580.73,-79.89C1405.2,-78.77 994.17,-71.48 652,-30 641.76,-28.76 630.79,-26.9 620.58,-24.94"/>
<polygon fill="#63b8ff" stroke="#63b8ff" points="1580.66,-83.39 1590.68,-79.95 1580.7,-76.39 1580.66,-83.39"/>
</g>
<!-- Node7 -->
<g id="node7" class="node">
<title>Node7</title>
<g id="a_node7"><a xlink:href="d__camera_8cpp.html" target="_top" xlink:title=" ">
<polygon fill="white" stroke="#666666" points="763,-24.5 661,-24.5 661,-5.5 763,-5.5 763,-24.5"/>
<text text-anchor="middle" x="712" y="-12.5" font-family="Helvetica,sans-Serif" font-size="10.00">src/d/d_camera.cpp</text>
</a>
</g>
</g>
<!-- Node1&#45;&gt;Node7 -->
<g id="edge6" class="edge">
<title>Node1&#45;&gt;Node7</title>
<path fill="none" stroke="#63b8ff" d="M1580.82,-80.14C1420.67,-79.29 1066.67,-72.28 772,-30 763.42,-28.77 754.27,-26.92 745.76,-24.96"/>
<polygon fill="#63b8ff" stroke="#63b8ff" points="1580.49,-83.63 1590.5,-80.18 1580.52,-76.63 1580.49,-83.63"/>
</g>
<!-- Node8 -->
<g id="node8" class="node">
<title>Node8</title>
<g id="a_node8"><a xlink:href="d__lib_8cpp.html" target="_top" xlink:title=" ">
<polygon fill="white" stroke="#666666" points="861,-24.5 781,-24.5 781,-5.5 861,-5.5 861,-24.5"/>
<text text-anchor="middle" x="821" y="-12.5" font-family="Helvetica,sans-Serif" font-size="10.00">src/d/d_lib.cpp</text>
</a>
</g>
</g>
<!-- Node1&#45;&gt;Node8 -->
<g id="edge7" class="edge">
<title>Node1&#45;&gt;Node8</title>
<path fill="none" stroke="#63b8ff" d="M1581.06,-80.65C1434.21,-80.41 1126,-74.07 870,-30 862.94,-28.78 855.44,-26.94 848.49,-24.98"/>
<polygon fill="#63b8ff" stroke="#63b8ff" points="1580.69,-84.15 1590.7,-80.65 1580.7,-77.15 1580.69,-84.15"/>
</g>
<!-- Node9 -->
<g id="node9" class="node">
<title>Node9</title>
<g id="a_node9"><a xlink:href="d__name_8cpp.html" target="_top" xlink:title=" ">
<polygon fill="white" stroke="#666666" points="973,-24.5 879,-24.5 879,-5.5 973,-5.5 973,-24.5"/>
<text text-anchor="middle" x="926" y="-12.5" font-family="Helvetica,sans-Serif" font-size="10.00">src/d/d_name.cpp</text>
</a>
</g>
</g>
<!-- Node1&#45;&gt;Node9 -->
<g id="edge8" class="edge">
<title>Node1&#45;&gt;Node9</title>
<path fill="none" stroke="#63b8ff" d="M1580.54,-78.45C1450.08,-75.04 1195.43,-64.21 982,-30 974.08,-28.73 965.65,-26.89 957.79,-24.95"/>
<polygon fill="#63b8ff" stroke="#63b8ff" points="1580.41,-81.95 1590.5,-78.7 1580.59,-74.95 1580.41,-81.95"/>
</g>
<!-- Node10 -->
<g id="node10" class="node">
<title>Node10</title>
<g id="a_node10"><a xlink:href="d__vibration_8cpp.html" target="_top" xlink:title=" ">
<polygon fill="white" stroke="#666666" points="1098.5,-24.5 991.5,-24.5 991.5,-5.5 1098.5,-5.5 1098.5,-24.5"/>
<text text-anchor="middle" x="1045" y="-12.5" font-family="Helvetica,sans-Serif" font-size="10.00">src/d/d_vibration.cpp</text>
</a>
</g>
</g>
<!-- Node1&#45;&gt;Node10 -->
<g id="edge9" class="edge">
<title>Node1&#45;&gt;Node10</title>
<path fill="none" stroke="#63b8ff" d="M1580.96,-75.88C1470.65,-69.78 1273.71,-56.15 1107,-30 1098.5,-28.67 1089.42,-26.85 1080.91,-24.96"/>
<polygon fill="#63b8ff" stroke="#63b8ff" points="1580.65,-79.37 1590.82,-76.42 1581.03,-72.38 1580.65,-79.37"/>
</g>
<!-- Node11 -->
<g id="node11" class="node">
<title>Node11</title>
<g id="a_node11"><a xlink:href="d__event_8cpp.html" target="_top" xlink:title=" ">
<polygon fill="white" stroke="#666666" points="1237.5,-24.5 1116.5,-24.5 1116.5,-5.5 1237.5,-5.5 1237.5,-24.5"/>
<text text-anchor="middle" x="1177" y="-12.5" font-family="Helvetica,sans-Serif" font-size="10.00">src/d/event/d_event.cpp</text>
</a>
</g>
</g>
<!-- Node1&#45;&gt;Node11 -->
<g id="edge10" class="edge">
<title>Node1&#45;&gt;Node11</title>
<path fill="none" stroke="#63b8ff" d="M1580.6,-71.73C1495.5,-63.1 1361.92,-48.3 1247,-30 1237.94,-28.56 1228.27,-26.78 1219.1,-24.98"/>
<polygon fill="#63b8ff" stroke="#63b8ff" points="1580.22,-75.21 1590.52,-72.73 1580.92,-68.24 1580.22,-75.21"/>
</g>
<!-- Node12 -->
<g id="node12" class="node">
<title>Node12</title>
<g id="a_node12"><a xlink:href="d__file__select_8cpp.html" target="_top" xlink:title=" ">
<polygon fill="white" stroke="#666666" points="1384,-24.5 1256,-24.5 1256,-5.5 1384,-5.5 1384,-24.5"/>
<text text-anchor="middle" x="1320" y="-12.5" font-family="Helvetica,sans-Serif" font-size="10.00">src/d/file/d_file_select.cpp</text>
</a>
</g>
</g>
<!-- Node1&#45;&gt;Node12 -->
<g id="edge11" class="edge">
<title>Node1&#45;&gt;Node12</title>
<path fill="none" stroke="#63b8ff" d="M1580.99,-64.51C1526.99,-54.73 1455.9,-41.77 1393,-30 1384.37,-28.39 1375.18,-26.64 1366.33,-24.95"/>
<polygon fill="#63b8ff" stroke="#63b8ff" points="1580.29,-67.94 1590.76,-66.28 1581.54,-61.05 1580.29,-67.94"/>
</g>
<!-- Node13 -->
<g id="node13" class="node">
<title>Node13</title>
<g id="a_node13"><a xlink:href="d__menu__calibration_8cpp.html" target="_top" xlink:title=" ">
<polygon fill="white" stroke="#666666" points="1572,-24.5 1402,-24.5 1402,-5.5 1572,-5.5 1572,-24.5"/>
<text text-anchor="middle" x="1487" y="-12.5" font-family="Helvetica,sans-Serif" font-size="10.00">src/d/menu/d_menu_calibration.cpp</text>
</a>
</g>
</g>
<!-- Node1&#45;&gt;Node13 -->
<g id="edge12" class="edge">
<title>Node1&#45;&gt;Node13</title>
<path fill="none" stroke="#63b8ff" d="M1615.96,-61.85C1582.07,-49.8 1539.05,-34.51 1512.27,-24.99"/>
<polygon fill="#63b8ff" stroke="#63b8ff" points="1614.58,-65.08 1625.18,-65.13 1616.93,-58.48 1614.58,-65.08"/>
</g>
<!-- Node14 -->
<g id="node14" class="node">
<title>Node14</title>
<g id="a_node14"><a xlink:href="d__menu__fishing_8cpp.html" target="_top" xlink:title=" ">
<polygon fill="white" stroke="#666666" points="1744,-24.5 1590,-24.5 1590,-5.5 1744,-5.5 1744,-24.5"/>
<text text-anchor="middle" x="1667" y="-12.5" font-family="Helvetica,sans-Serif" font-size="10.00">src/d/menu/d_menu_fishing.cpp</text>
</a>
</g>
</g>
<!-- Node1&#45;&gt;Node14 -->
<g id="edge13" class="edge">
<title>Node1&#45;&gt;Node14</title>
<path fill="none" stroke="#63b8ff" d="M1667,-54.59C1667,-44.06 1667,-32.53 1667,-24.84"/>
<polygon fill="#63b8ff" stroke="#63b8ff" points="1663.5,-54.28 1667,-64.28 1670.5,-54.28 1663.5,-54.28"/>
</g>
<!-- Node15 -->
<g id="node15" class="node">
<title>Node15</title>
<g id="a_node15"><a xlink:href="d__menu__insect_8cpp.html" target="_top" xlink:title=" ">
<polygon fill="white" stroke="#666666" points="1914,-24.5 1762,-24.5 1762,-5.5 1914,-5.5 1914,-24.5"/>
<text text-anchor="middle" x="1838" y="-12.5" font-family="Helvetica,sans-Serif" font-size="10.00">src/d/menu/d_menu_insect.cpp</text>
</a>
</g>
</g>
<!-- Node1&#45;&gt;Node15 -->
<g id="edge14" class="edge">
<title>Node1&#45;&gt;Node15</title>
<path fill="none" stroke="#63b8ff" d="M1715.91,-61.69C1748.04,-49.67 1788.66,-34.47 1813.99,-24.99"/>
<polygon fill="#63b8ff" stroke="#63b8ff" points="1714.93,-58.32 1706.79,-65.11 1717.39,-64.88 1714.93,-58.32"/>
</g>
<!-- Node16 -->
<g id="node16" class="node">
<title>Node16</title>
<g id="a_node16"><a xlink:href="d__menu__save_8cpp.html" target="_top" xlink:title=" ">
<polygon fill="white" stroke="#666666" points="2079.5,-24.5 1932.5,-24.5 1932.5,-5.5 2079.5,-5.5 2079.5,-24.5"/>
<text text-anchor="middle" x="2006" y="-12.5" font-family="Helvetica,sans-Serif" font-size="10.00">src/d/menu/d_menu_save.cpp</text>
</a>
</g>
</g>
<!-- Node1&#45;&gt;Node16 -->
<g id="edge15" class="edge">
<title>Node1&#45;&gt;Node16</title>
<path fill="none" stroke="#63b8ff" d="M1752.9,-63.78C1818.12,-51.47 1905.37,-35 1958.54,-24.96"/>
<polygon fill="#63b8ff" stroke="#63b8ff" points="1752.48,-60.3 1743.3,-65.59 1753.78,-67.18 1752.48,-60.3"/>
</g>
<!-- Node17 -->
<g id="node17" class="node">
<title>Node17</title>
<g id="a_node17"><a xlink:href="d__menu__skill_8cpp.html" target="_top" xlink:title=" ">
<polygon fill="white" stroke="#666666" points="2240.5,-24.5 2097.5,-24.5 2097.5,-5.5 2240.5,-5.5 2240.5,-24.5"/>
<text text-anchor="middle" x="2169" y="-12.5" font-family="Helvetica,sans-Serif" font-size="10.00">src/d/menu/d_menu_skill.cpp</text>
</a>
</g>
</g>
<!-- Node1&#45;&gt;Node17 -->
<g id="edge16" class="edge">
<title>Node1&#45;&gt;Node17</title>
<path fill="none" stroke="#63b8ff" d="M1753.07,-71.21C1838.48,-62.16 1973.03,-47 2089,-30 2099.18,-28.51 2110.07,-26.73 2120.42,-24.94"/>
<polygon fill="#63b8ff" stroke="#63b8ff" points="1752.95,-67.7 1743.38,-72.23 1753.69,-74.67 1752.95,-67.7"/>
</g>
<!-- Node18 -->
<g id="node18" class="node">
<title>Node18</title>
<g id="a_node18"><a xlink:href="d__menu__window_8cpp.html" target="_top" xlink:title=" ">
<polygon fill="white" stroke="#666666" points="2417.5,-24.5 2258.5,-24.5 2258.5,-5.5 2417.5,-5.5 2417.5,-24.5"/>
<text text-anchor="middle" x="2338" y="-12.5" font-family="Helvetica,sans-Serif" font-size="10.00">src/d/menu/d_menu_window.cpp</text>
</a>
</g>
</g>
<!-- Node1&#45;&gt;Node18 -->
<g id="edge17" class="edge">
<title>Node1&#45;&gt;Node18</title>
<path fill="none" stroke="#63b8ff" d="M1753.13,-74.57C1867.07,-66.93 2074.03,-51.51 2250,-30 2261.52,-28.59 2273.84,-26.81 2285.5,-24.99"/>
<polygon fill="#63b8ff" stroke="#63b8ff" points="1752.98,-71.07 1743.23,-75.22 1753.44,-78.05 1752.98,-71.07"/>
</g>
<!-- Node19 -->
<g id="node19" class="node">
<title>Node19</title>
<g id="a_node19"><a xlink:href="d__meter__map_8cpp.html" target="_top" xlink:title=" ">
<polygon fill="white" stroke="#666666" points="2540,-30 2436,-30 2436,0 2540,0 2540,-30"/>
<text text-anchor="start" x="2444" y="-18" font-family="Helvetica,sans-Serif" font-size="10.00">src/d/meter/d_meter</text>
<text text-anchor="middle" x="2488" y="-7" font-family="Helvetica,sans-Serif" font-size="10.00">_map.cpp</text>
</a>
</g>
</g>
<!-- Node1&#45;&gt;Node19 -->
<g id="edge18" class="edge">
<title>Node1&#45;&gt;Node19</title>
<path fill="none" stroke="#63b8ff" d="M1753,-78.81C1894.36,-75.86 2184.34,-65.59 2427,-30 2429.8,-29.59 2432.65,-29.12 2435.53,-28.6"/>
<polygon fill="#63b8ff" stroke="#63b8ff" points="1753.29,-75.3 1743.36,-79 1753.43,-82.3 1753.29,-75.3"/>
</g>
<!-- Node20 -->
<g id="node20" class="node">
<title>Node20</title>
<g id="a_node20"><a xlink:href="d__s__logo_8cpp.html" target="_top" xlink:title=" ">
<polygon fill="white" stroke="#666666" points="2665.5,-24.5 2558.5,-24.5 2558.5,-5.5 2665.5,-5.5 2665.5,-24.5"/>
<text text-anchor="middle" x="2612" y="-12.5" font-family="Helvetica,sans-Serif" font-size="10.00">src/d/s/d_s_logo.cpp</text>
</a>
</g>
</g>
<!-- Node1&#45;&gt;Node20 -->
<g id="edge19" class="edge">
<title>Node1&#45;&gt;Node20</title>
<path fill="none" stroke="#63b8ff" d="M1752.79,-79.74C1910.98,-78.24 2258.96,-70.18 2549,-30 2557.99,-28.75 2567.6,-26.9 2576.53,-24.94"/>
<polygon fill="#63b8ff" stroke="#63b8ff" points="1753.22,-76.23 1743.25,-79.82 1753.28,-83.23 1753.22,-76.23"/>
</g>
<!-- Node21 -->
<g id="node21" class="node">
<title>Node21</title>
<g id="a_node21"><a xlink:href="d__shop__system_8cpp.html" target="_top" xlink:title=" ">
<polygon fill="white" stroke="#666666" points="2836,-24.5 2684,-24.5 2684,-5.5 2836,-5.5 2836,-24.5"/>
<text text-anchor="middle" x="2760" y="-12.5" font-family="Helvetica,sans-Serif" font-size="10.00">src/d/shop/d_shop_system.cpp</text>
</a>
</g>
</g>
<!-- Node1&#45;&gt;Node21 -->
<g id="edge20" class="edge">
<title>Node1&#45;&gt;Node21</title>
<path fill="none" stroke="#63b8ff" d="M1753.24,-79.02C1927.75,-76.32 2335.06,-66.31 2675,-30 2686.9,-28.73 2699.66,-26.89 2711.58,-24.95"/>
<polygon fill="#63b8ff" stroke="#63b8ff" points="1753.29,-75.52 1743.35,-79.17 1753.4,-82.52 1753.29,-75.52"/>
</g>
<!-- Node22 -->
<g id="node22" class="node">
<title>Node22</title>
<g id="a_node22"><a xlink:href="f__pc__manager_8cpp.html" target="_top" xlink:title=" ">
<polygon fill="white" stroke="#666666" points="2988,-24.5 2854,-24.5 2854,-5.5 2988,-5.5 2988,-24.5"/>
<text text-anchor="middle" x="2921" y="-12.5" font-family="Helvetica,sans-Serif" font-size="10.00">src/f_pc/f_pc_manager.cpp</text>
</a>
</g>
</g>
<!-- Node1&#45;&gt;Node22 -->
<g id="edge21" class="edge">
<title>Node1&#45;&gt;Node22</title>
<path fill="none" stroke="#63b8ff" d="M1753,-80.45C1947.95,-80.59 2438.15,-75.88 2845,-30 2855.8,-28.78 2867.37,-26.93 2878.15,-24.98"/>
<polygon fill="#63b8ff" stroke="#63b8ff" points="1753.22,-76.96 1743.22,-80.44 1753.21,-83.96 1753.22,-76.96"/>
</g>
<!-- Node23 -->
<g id="node23" class="node">
<title>Node23</title>
<g id="a_node23"><a xlink:href="m__Do__controller__pad_8cpp.html" target="_top" xlink:title=" ">
<polygon fill="white" stroke="#666666" points="3138,-30 3006,-30 3006,0 3138,0 3138,-30"/>
<text text-anchor="start" x="3014" y="-18" font-family="Helvetica,sans-Serif" font-size="10.00">src/m_Do/m_Do_controller</text>
<text text-anchor="middle" x="3072" y="-7" font-family="Helvetica,sans-Serif" font-size="10.00">_pad.cpp</text>
</a>
</g>
</g>
<!-- Node1&#45;&gt;Node23 -->
<g id="edge22" class="edge">
<title>Node1&#45;&gt;Node23</title>
<path fill="none" stroke="#63b8ff" d="M1753.36,-78.41C2008.26,-73.47 2754.72,-57.02 2997,-30 2999.9,-29.68 3002.85,-29.31 3005.83,-28.9"/>
<polygon fill="#63b8ff" stroke="#63b8ff" points="1753.4,-74.91 1743.47,-78.6 1753.53,-81.91 1753.4,-74.91"/>
</g>
<!-- Node24 -->
<g id="node24" class="node">
<title>Node24</title>
<g id="a_node24"><a xlink:href="m__Do__graphic_8cpp.html" target="_top" xlink:title=" ">
<polygon fill="white" stroke="#666666" points="3298,-24.5 3156,-24.5 3156,-5.5 3298,-5.5 3298,-24.5"/>
<text text-anchor="middle" x="3227" y="-12.5" font-family="Helvetica,sans-Serif" font-size="10.00">src/m_Do/m_Do_graphic.cpp</text>
</a>
</g>
</g>
<!-- Node1&#45;&gt;Node24 -->
<g id="edge23" class="edge">
<title>Node1&#45;&gt;Node24</title>
<path fill="none" stroke="#63b8ff" d="M1753.04,-78.67C2026.52,-74.2 2873.95,-58.36 3147,-30 3158.5,-28.81 3170.84,-26.94 3182.3,-24.96"/>
<polygon fill="#63b8ff" stroke="#63b8ff" points="1753.07,-75.17 1743.12,-78.83 1753.18,-82.17 1753.07,-75.17"/>
</g>
<!-- Node25 -->
<g id="node25" class="node">
<title>Node25</title>
<g id="a_node25"><a xlink:href="m__Do__main_8cpp.html" target="_top" xlink:title=" ">
<polygon fill="white" stroke="#666666" points="3447.5,-24.5 3316.5,-24.5 3316.5,-5.5 3447.5,-5.5 3447.5,-24.5"/>
<text text-anchor="middle" x="3382" y="-12.5" font-family="Helvetica,sans-Serif" font-size="10.00">src/m_Do/m_Do_main.cpp</text>
</a>
</g>
</g>
<!-- Node1&#45;&gt;Node25 -->
<g id="edge24" class="edge">
<title>Node1&#45;&gt;Node25</title>
<path fill="none" stroke="#63b8ff" d="M1753.25,-79.13C2046.16,-75.88 3001.5,-62.97 3307,-30 3317.8,-28.83 3329.37,-26.98 3340.12,-25"/>
<polygon fill="#63b8ff" stroke="#63b8ff" points="1753.34,-75.62 1743.38,-79.23 1753.42,-82.62 1753.34,-75.62"/>
</g>
<!-- Node26 -->
<g id="node26" class="node">
<title>Node26</title>
<g id="a_node26"><a xlink:href="d__msg__scrn__explain_8cpp.html" target="_top" xlink:title=" ">
<polygon fill="white" stroke="#666666" points="3572,-30 3466,-30 3466,0 3572,0 3572,-30"/>
<text text-anchor="start" x="3474" y="-18" font-family="Helvetica,sans-Serif" font-size="10.00">src/msg/scrn/d_msg</text>
<text text-anchor="middle" x="3519" y="-7" font-family="Helvetica,sans-Serif" font-size="10.00">_scrn_explain.cpp</text>
</a>
</g>
</g>
<!-- Node1&#45;&gt;Node26 -->
<g id="edge25" class="edge">
<title>Node1&#45;&gt;Node26</title>
<path fill="none" stroke="#63b8ff" d="M1752.99,-79.81C2062.82,-78.78 3121.36,-72.18 3457,-30 3459.85,-29.64 3462.75,-29.21 3465.68,-28.73"/>
<polygon fill="#63b8ff" stroke="#63b8ff" points="1753.35,-76.31 1743.36,-79.84 1753.37,-83.31 1753.35,-76.31"/>
</g>
</g>
</svg>
