<?xml version="1.0" encoding="UTF-8" standalone="no"?>
<!DOCTYPE svg PUBLIC "-//W3C//DTD SVG 1.1//EN"
 "http://www.w3.org/Graphics/SVG/1.1/DTD/svg11.dtd">
<!-- Generated by graphviz version 7.0.5 (20221223.1930)
 -->
<!-- Title: include/MSL_C/MSL_Common/Src/mem.h Pages: 1 -->
<!--zoomable 104 -->
<svg id="main" version="1.1" xmlns="http://www.w3.org/2000/svg" xmlns:xlink="http://www.w3.org/1999/xlink" xml:space="preserve" onload="init(evt)">
<style type="text/css"><![CDATA[
.edge:hover path { stroke: red; }
.edge:hover polygon { stroke: red; fill: red; }
]]></style>
<script type="text/javascript"><![CDATA[
var edges = document.getElementsByTagName('g');
if (edges && edges.length) {
  for (var i=0;i<edges.length;i++) {
    if (edges[i].id.substr(0,4)=='edge') {
      edges[i].setAttribute('class','edge');
    }
  }
}
]]></script>
        <defs>
                <circle id="rim" cx="0" cy="0" r="7"/>
                <circle id="rim2" cx="0" cy="0" r="3.5"/>
                <g id="zoomPlus">
                        <use xlink:href="#rim" fill="#404040">
                                <set attributeName="fill" to="#808080" begin="zoomplus.mouseover" end="zoomplus.mouseout"/>
                        </use>
                        <path d="M-4,0h8M0,-4v8" fill="none" stroke="white" stroke-width="1.5" pointer-events="none"/>
                </g>
                <g id="zoomMin">
                        <use xlink:href="#rim" fill="#404040">
                                <set attributeName="fill" to="#808080" begin="zoomminus.mouseover" end="zoomminus.mouseout"/>
                        </use>
                        <path d="M-4,0h8" fill="none" stroke="white" stroke-width="1.5" pointer-events="none"/>
                </g>
                <g id="dirArrow">
                        <path fill="none" stroke="white" stroke-width="1.5" d="M0,-3.0v7 M-2.5,-0.5L0,-3.0L2.5,-0.5"/>
                </g>
               <g id="resetDef">
                       <use xlink:href="#rim2" fill="#404040">
                               <set attributeName="fill" to="#808080" begin="reset.mouseover" end="reset.mouseout"/>
                       </use>
               </g>
        </defs>

<script type="text/javascript">
var viewWidth = 1210;
var viewHeight = 104;
var sectionId = 'dynsection-1';
</script>
<script xlink:href="svgpan.js"/>
<svg id="graph" class="graph">
<g id="viewport">
<title>include/MSL_C/MSL_Common/Src/mem.h</title>
<!-- Node1 -->
<g id="node1" class="node">
<title>Node1</title>
<g id="a_node1"><a xlink:title=" ">
<polygon fill="#999999" stroke="#666666" points="672.5,-96 520.5,-96 520.5,-66 672.5,-66 672.5,-96"/>
<text text-anchor="start" x="528.5" y="-84" font-family="Helvetica,sans-Serif" font-size="10.00">include/MSL_C/MSL_Common</text>
<text text-anchor="middle" x="596.5" y="-73" font-family="Helvetica,sans-Serif" font-size="10.00">/Src/mem.h</text>
</a>
</g>
</g>
<!-- Node2 -->
<g id="node2" class="node">
<title>Node2</title>
<g id="a_node2"><a xlink:href="resource_8cpp.html" target="_top" xlink:title=" ">
<polygon fill="white" stroke="#666666" points="121,-30 0,-30 0,0 121,0 121,-30"/>
<text text-anchor="start" x="8" y="-18" font-family="Helvetica,sans-Serif" font-size="10.00">libs/JSystem/JMessage</text>
<text text-anchor="middle" x="60.5" y="-7" font-family="Helvetica,sans-Serif" font-size="10.00">/resource.cpp</text>
</a>
</g>
</g>
<!-- Node1&#45;&gt;Node2 -->
<g id="edge1" class="edge">
<title>Node1&#45;&gt;Node2</title>
<path fill="none" stroke="#63b8ff" d="M508.92,-72.99C415.03,-64.91 261.75,-50.12 130.5,-30 127.44,-29.53 124.31,-29.02 121.15,-28.48"/>
<polygon fill="#63b8ff" stroke="#63b8ff" points="508.58,-76.47 518.85,-73.83 509.18,-69.49 508.58,-76.47"/>
</g>
<!-- Node3 -->
<g id="node3" class="node">
<title>Node3</title>
<g id="a_node3"><a xlink:href="direct__io_8c.html" target="_top" xlink:title=" ">
<polygon fill="white" stroke="#666666" points="275.5,-30 139.5,-30 139.5,0 275.5,0 275.5,-30"/>
<text text-anchor="start" x="147.5" y="-18" font-family="Helvetica,sans-Serif" font-size="10.00">libs/MSL_C/MSL_Common</text>
<text text-anchor="middle" x="207.5" y="-7" font-family="Helvetica,sans-Serif" font-size="10.00">/Src/direct_io.c</text>
</a>
</g>
</g>
<!-- Node1&#45;&gt;Node3 -->
<g id="edge2" class="edge">
<title>Node1&#45;&gt;Node3</title>
<path fill="none" stroke="#63b8ff" d="M509.12,-66.5C446.52,-56.7 360.25,-42.95 284.5,-30 281.69,-29.52 278.82,-29.02 275.92,-28.52"/>
<polygon fill="#63b8ff" stroke="#63b8ff" points="508.22,-69.9 518.64,-67.99 509.3,-62.98 508.22,-69.9"/>
</g>
<!-- Node4 -->
<g id="node4" class="node">
<title>Node4</title>
<g id="a_node4"><a xlink:href="mem_8c.html" target="_top" xlink:title=" ">
<polygon fill="white" stroke="#666666" points="429.5,-30 293.5,-30 293.5,0 429.5,0 429.5,-30"/>
<text text-anchor="start" x="301.5" y="-18" font-family="Helvetica,sans-Serif" font-size="10.00">libs/MSL_C/MSL_Common</text>
<text text-anchor="middle" x="361.5" y="-7" font-family="Helvetica,sans-Serif" font-size="10.00">/Src/mem.c</text>
</a>
</g>
</g>
<!-- Node1&#45;&gt;Node4 -->
<g id="edge3" class="edge">
<title>Node1&#45;&gt;Node4</title>
<path fill="none" stroke="#63b8ff" d="M532.76,-62.64C495.65,-52.53 449.41,-39.94 414.34,-30.39"/>
<polygon fill="#63b8ff" stroke="#63b8ff" points="531.44,-65.91 542.01,-65.16 533.28,-59.15 531.44,-65.91"/>
</g>
<!-- Node5 -->
<g id="node5" class="node">
<title>Node5</title>
<g id="a_node5"><a xlink:href="printf_8c.html" target="_top" xlink:title=" ">
<polygon fill="white" stroke="#666666" points="583.5,-30 447.5,-30 447.5,0 583.5,0 583.5,-30"/>
<text text-anchor="start" x="455.5" y="-18" font-family="Helvetica,sans-Serif" font-size="10.00">libs/MSL_C/MSL_Common</text>
<text text-anchor="middle" x="515.5" y="-7" font-family="Helvetica,sans-Serif" font-size="10.00">/Src/printf.c</text>
</a>
</g>
</g>
<!-- Node1&#45;&gt;Node5 -->
<g id="edge4" class="edge">
<title>Node1&#45;&gt;Node5</title>
<path fill="none" stroke="#63b8ff" d="M569.54,-58.7C557.77,-49.4 544.27,-38.73 533.71,-30.39"/>
<polygon fill="#63b8ff" stroke="#63b8ff" points="567.32,-61.4 577.34,-64.86 571.66,-55.91 567.32,-61.4"/>
</g>
<!-- Node6 -->
<g id="node6" class="node">
<title>Node6</title>
<g id="a_node6"><a xlink:href="CARDCreate_8c.html" target="_top" xlink:title=" ">
<polygon fill="white" stroke="#666666" points="755,-24.5 602,-24.5 602,-5.5 755,-5.5 755,-24.5"/>
<text text-anchor="middle" x="678.5" y="-12.5" font-family="Helvetica,sans-Serif" font-size="10.00">libs/dolphin/card/CARDCreate.c</text>
</a>
</g>
</g>
<!-- Node1&#45;&gt;Node6 -->
<g id="edge5" class="edge">
<title>Node1&#45;&gt;Node6</title>
<path fill="none" stroke="#63b8ff" d="M623.49,-58.93C638.33,-47.35 655.94,-33.61 667.17,-24.84"/>
<polygon fill="#63b8ff" stroke="#63b8ff" points="621.62,-55.95 615.89,-64.87 625.93,-61.47 621.62,-55.95"/>
</g>
<!-- Node7 -->
<g id="node7" class="node">
<title>Node7</title>
<g id="a_node7"><a xlink:href="CARDOpen_8c.html" target="_top" xlink:title=" ">
<polygon fill="white" stroke="#666666" points="921.5,-24.5 773.5,-24.5 773.5,-5.5 921.5,-5.5 921.5,-24.5"/>
<text text-anchor="middle" x="847.5" y="-12.5" font-family="Helvetica,sans-Serif" font-size="10.00">libs/dolphin/card/CARDOpen.c</text>
</a>
</g>
</g>
<!-- Node1&#45;&gt;Node7 -->
<g id="edge6" class="edge">
<title>Node1&#45;&gt;Node7</title>
<path fill="none" stroke="#63b8ff" d="M664.04,-62.78C711.85,-50.59 774.05,-34.73 812.35,-24.96"/>
<polygon fill="#63b8ff" stroke="#63b8ff" points="663.43,-59.32 654.61,-65.18 665.16,-66.1 663.43,-59.32"/>
</g>
<!-- Node8 -->
<g id="node8" class="node">
<title>Node8</title>
<g id="a_node8"><a xlink:href="dvd_8c.html" target="_top" xlink:title=" ">
<polygon fill="white" stroke="#666666" points="1049.5,-24.5 939.5,-24.5 939.5,-5.5 1049.5,-5.5 1049.5,-24.5"/>
<text text-anchor="middle" x="994.5" y="-12.5" font-family="Helvetica,sans-Serif" font-size="10.00">libs/dolphin/dvd/dvd.c</text>
</a>
</g>
</g>
<!-- Node1&#45;&gt;Node8 -->
<g id="edge7" class="edge">
<title>Node1&#45;&gt;Node8</title>
<path fill="none" stroke="#63b8ff" d="M683.69,-68.57C751.24,-59.32 847.06,-45.35 930.5,-30 938.67,-28.5 947.38,-26.71 955.66,-24.93"/>
<polygon fill="#63b8ff" stroke="#63b8ff" points="683.62,-65.05 674.18,-69.87 684.56,-71.98 683.62,-65.05"/>
</g>
<!-- Node9 -->
<g id="node9" class="node">
<title>Node9</title>
<g id="a_node9"><a xlink:href="d__kankyo_8cpp.html" target="_top" xlink:title=" ">
<polygon fill="white" stroke="#666666" points="1201.5,-24.5 1067.5,-24.5 1067.5,-5.5 1201.5,-5.5 1201.5,-24.5"/>
<text text-anchor="middle" x="1134.5" y="-12.5" font-family="Helvetica,sans-Serif" font-size="10.00">src/d/kankyo/d_kankyo.cpp</text>
</a>
</g>
</g>
<!-- Node1&#45;&gt;Node9 -->
<g id="edge8" class="edge">
<title>Node1&#45;&gt;Node9</title>
<path fill="none" stroke="#63b8ff" d="M684.09,-72.48C777.19,-64.02 928.61,-48.97 1058.5,-30 1068.32,-28.57 1078.82,-26.79 1088.78,-24.99"/>
<polygon fill="#63b8ff" stroke="#63b8ff" points="683.9,-68.98 674.26,-73.36 684.53,-75.95 683.9,-68.98"/>
</g>
</g>
</svg>
        <g id="navigator" transform="translate(0 0)" fill="#404254">
                <rect fill="#f2f5e9" fill-opacity="0.5" stroke="#606060" stroke-width=".5" x="0" y="0" width="60" height="60"/>
                <use id="zoomplus" xlink:href="#zoomPlus" x="17" y="9" onmousedown="handleZoom(evt,'in')"/>
                <use id="zoomminus" xlink:href="#zoomMin" x="42" y="9" onmousedown="handleZoom(evt,'out')"/>
                <use id="reset" xlink:href="#resetDef" x="30" y="36" onmousedown="handleReset()"/>
                <g id="arrowUp" xlink:href="#dirArrow" transform="translate(30 24)" onmousedown="handlePan(0,-1)">
                  <use xlink:href="#rim" fill="#404040">
                        <set attributeName="fill" to="#808080" begin="arrowUp.mouseover" end="arrowUp.mouseout"/>
                  </use>
                  <path fill="none" stroke="white" stroke-width="1.5" d="M0,-3.0v7 M-2.5,-0.5L0,-3.0L2.5,-0.5"/>
                </g>
                <g id="arrowRight" xlink:href="#dirArrow" transform="rotate(90) translate(36 -43)" onmousedown="handlePan(1,0)">
                  <use xlink:href="#rim" fill="#404040">
                        <set attributeName="fill" to="#808080" begin="arrowRight.mouseover" end="arrowRight.mouseout"/>
                  </use>
                  <path fill="none" stroke="white" stroke-width="1.5" d="M0,-3.0v7 M-2.5,-0.5L0,-3.0L2.5,-0.5"/>
                </g>
                <g id="arrowDown" xlink:href="#dirArrow" transform="rotate(180) translate(-30 -48)" onmousedown="handlePan(0,1)">
                  <use xlink:href="#rim" fill="#404040">
                        <set attributeName="fill" to="#808080" begin="arrowDown.mouseover" end="arrowDown.mouseout"/>
                  </use>
                  <path fill="none" stroke="white" stroke-width="1.5" d="M0,-3.0v7 M-2.5,-0.5L0,-3.0L2.5,-0.5"/>
                </g>
                <g id="arrowLeft" xlink:href="#dirArrow" transform="rotate(270) translate(-36 17)" onmousedown="handlePan(-1,0)">
                  <use xlink:href="#rim" fill="#404040">
                        <set attributeName="fill" to="#808080" begin="arrowLeft.mouseover" end="arrowLeft.mouseout"/>
                  </use>
                  <path fill="none" stroke="white" stroke-width="1.5" d="M0,-3.0v7 M-2.5,-0.5L0,-3.0L2.5,-0.5"/>
                </g>
        </g>
        <svg viewBox="0 0 15 15" width="100%" height="30px" preserveAspectRatio="xMaxYMin meet">
         <g id="arrow_out" transform="scale(0.3 0.3)">
          <a xlink:href="mem_8h__dep__incl_org.svg" target="_base">
           <rect id="button" ry="5" rx="5" y="6" x="6" height="38" width="38"
                fill="#f2f5e9" fill-opacity="0.5" stroke="#606060" stroke-width="1.0"/>
           <path id="arrow"
             d="M 11.500037,31.436501 C 11.940474,20.09759 22.043105,11.32322 32.158766,21.979434 L 37.068811,17.246167 C 37.068811,17.246167 37.088388,32 37.088388,32 L 22.160133,31.978069 C 22.160133,31.978069 26.997745,27.140456 26.997745,27.140456 C 18.528582,18.264221 13.291696,25.230495 11.500037,31.436501 z"
             style="fill:#404040;"/>
          </a>
         </g>
        </svg>
</svg>
