<?xml version="1.0" encoding="UTF-8" standalone="no"?>
<!DOCTYPE svg PUBLIC "-//W3C//DTD SVG 1.1//EN"
 "http://www.w3.org/Graphics/SVG/1.1/DTD/svg11.dtd">
<!-- Generated by graphviz version 7.0.5 (20221223.1930)
 -->
<!-- Title: include/MSL_C/MSL_Common/Src/string.h Pages: 1 -->
<!--zoomable 236 -->
<svg id="main" version="1.1" xmlns="http://www.w3.org/2000/svg" xmlns:xlink="http://www.w3.org/1999/xlink" xml:space="preserve" onload="init(evt)">
<style type="text/css"><![CDATA[
.edge:hover path { stroke: red; }
.edge:hover polygon { stroke: red; fill: red; }
]]></style>
<script type="text/javascript"><![CDATA[
var edges = document.getElementsByTagName('g');
if (edges && edges.length) {
  for (var i=0;i<edges.length;i++) {
    if (edges[i].id.substr(0,4)=='edge') {
      edges[i].setAttribute('class','edge');
    }
  }
}
]]></script>
        <defs>
                <circle id="rim" cx="0" cy="0" r="7"/>
                <circle id="rim2" cx="0" cy="0" r="3.5"/>
                <g id="zoomPlus">
                        <use xlink:href="#rim" fill="#404040">
                                <set attributeName="fill" to="#808080" begin="zoomplus.mouseover" end="zoomplus.mouseout"/>
                        </use>
                        <path d="M-4,0h8M0,-4v8" fill="none" stroke="white" stroke-width="1.5" pointer-events="none"/>
                </g>
                <g id="zoomMin">
                        <use xlink:href="#rim" fill="#404040">
                                <set attributeName="fill" to="#808080" begin="zoomminus.mouseover" end="zoomminus.mouseout"/>
                        </use>
                        <path d="M-4,0h8" fill="none" stroke="white" stroke-width="1.5" pointer-events="none"/>
                </g>
                <g id="dirArrow">
                        <path fill="none" stroke="white" stroke-width="1.5" d="M0,-3.0v7 M-2.5,-0.5L0,-3.0L2.5,-0.5"/>
                </g>
               <g id="resetDef">
                       <use xlink:href="#rim2" fill="#404040">
                               <set attributeName="fill" to="#808080" begin="reset.mouseover" end="reset.mouseout"/>
                       </use>
               </g>
        </defs>

<script type="text/javascript">
var viewWidth = 5766;
var viewHeight = 236;
var sectionId = 'dynsection-1';
</script>
<script xlink:href="svgpan.js"/>
<svg id="graph" class="graph">
<g id="viewport">
<title>include/MSL_C/MSL_Common/Src/string.h</title>
<!-- Node1 -->
<g id="node1" class="node">
<title>Node1</title>
<g id="a_node1"><a xlink:title=" ">
<polygon fill="#999999" stroke="#666666" points="3344,-228 3192,-228 3192,-198 3344,-198 3344,-228"/>
<text text-anchor="start" x="3200" y="-216" font-family="Helvetica,sans-Serif" font-size="10.00">include/MSL_C/MSL_Common</text>
<text text-anchor="middle" x="3268" y="-205" font-family="Helvetica,sans-Serif" font-size="10.00">/Src/string.h</text>
</a>
</g>
</g>
<!-- Node2 -->
<g id="node2" class="node">
<title>Node2</title>
<g id="a_node2"><a xlink:href="string_8h.html" target="_top" xlink:title=" ">
<polygon fill="#fff0f0" stroke="red" points="2852,-156.5 2734,-156.5 2734,-137.5 2852,-137.5 2852,-156.5"/>
<text text-anchor="middle" x="2793" y="-144.5" font-family="Helvetica,sans-Serif" font-size="10.00">include/MSL_C/string.h</text>
</a>
</g>
</g>
<!-- Node1&#45;&gt;Node2 -->
<g id="edge1" class="edge">
<title>Node1&#45;&gt;Node2</title>
<path fill="none" stroke="#63b8ff" d="M3180.24,-203.29C3097.62,-194.6 2970.53,-179.97 2861,-162 2852.2,-160.56 2842.8,-158.78 2833.89,-156.98"/>
<polygon fill="#63b8ff" stroke="#63b8ff" points="3179.79,-206.76 3190.09,-204.32 3180.51,-199.8 3179.79,-206.76"/>
</g>
<!-- Node251 -->
<g id="node45" class="node">
<title>Node251</title>
<g id="a_node45"><a xlink:href="J3DSkinDeform_8cpp.html" target="_top" xlink:title=" ">
<polygon fill="white" stroke="#666666" points="3028,-162 2870,-162 2870,-132 3028,-132 3028,-162"/>
<text text-anchor="start" x="2878" y="-150" font-family="Helvetica,sans-Serif" font-size="10.00">libs/JSystem/J3DGraphAnimator</text>
<text text-anchor="middle" x="2949" y="-139" font-family="Helvetica,sans-Serif" font-size="10.00">/J3DSkinDeform.cpp</text>
</a>
</g>
</g>
<!-- Node1&#45;&gt;Node251 -->
<g id="edge45" class="edge">
<title>Node1&#45;&gt;Node251</title>
<path fill="none" stroke="#63b8ff" d="M3184.73,-195.29C3133.92,-185.1 3069.61,-172.2 3021,-162.45"/>
<polygon fill="#63b8ff" stroke="#63b8ff" points="3184.04,-198.72 3194.53,-197.26 3185.41,-191.86 3184.04,-198.72"/>
</g>
<!-- Node252 -->
<g id="node46" class="node">
<title>Node252</title>
<g id="a_node46"><a xlink:href="alloc_8c.html" target="_top" xlink:title=" ">
<polygon fill="white" stroke="#666666" points="3182,-162 3046,-162 3046,-132 3182,-132 3182,-162"/>
<text text-anchor="start" x="3054" y="-150" font-family="Helvetica,sans-Serif" font-size="10.00">libs/MSL_C/MSL_Common</text>
<text text-anchor="middle" x="3114" y="-139" font-family="Helvetica,sans-Serif" font-size="10.00">/Src/alloc.c</text>
</a>
</g>
</g>
<!-- Node1&#45;&gt;Node252 -->
<g id="edge46" class="edge">
<title>Node1&#45;&gt;Node252</title>
<path fill="none" stroke="#63b8ff" d="M3222.94,-193.27C3199.25,-183.43 3170.66,-171.55 3148.71,-162.43"/>
<polygon fill="#63b8ff" stroke="#63b8ff" points="3221.46,-196.45 3232.04,-197.06 3224.15,-189.99 3221.46,-196.45"/>
</g>
<!-- Node253 -->
<g id="node47" class="node">
<title>Node253</title>
<g id="a_node47"><a xlink:href="direct__io_8c.html" target="_top" xlink:title=" ">
<polygon fill="white" stroke="#666666" points="3336,-162 3200,-162 3200,-132 3336,-132 3336,-162"/>
<text text-anchor="start" x="3208" y="-150" font-family="Helvetica,sans-Serif" font-size="10.00">libs/MSL_C/MSL_Common</text>
<text text-anchor="middle" x="3268" y="-139" font-family="Helvetica,sans-Serif" font-size="10.00">/Src/direct_io.c</text>
</a>
</g>
</g>
<!-- Node1&#45;&gt;Node253 -->
<g id="edge47" class="edge">
<title>Node1&#45;&gt;Node253</title>
<path fill="none" stroke="#63b8ff" d="M3268,-186.39C3268,-178.13 3268,-169.28 3268,-162.16"/>
<polygon fill="#63b8ff" stroke="#63b8ff" points="3264.5,-186.28 3268,-196.28 3271.5,-186.28 3264.5,-186.28"/>
</g>
<!-- Node254 -->
<g id="node48" class="node">
<title>Node254</title>
<g id="a_node48"><a xlink:href="mbstring_8c.html" target="_top" xlink:title=" ">
<polygon fill="white" stroke="#666666" points="3490,-162 3354,-162 3354,-132 3490,-132 3490,-162"/>
<text text-anchor="start" x="3362" y="-150" font-family="Helvetica,sans-Serif" font-size="10.00">libs/MSL_C/MSL_Common</text>
<text text-anchor="middle" x="3422" y="-139" font-family="Helvetica,sans-Serif" font-size="10.00">/Src/mbstring.c</text>
</a>
</g>
</g>
<!-- Node1&#45;&gt;Node254 -->
<g id="edge48" class="edge">
<title>Node1&#45;&gt;Node254</title>
<path fill="none" stroke="#63b8ff" d="M3313.06,-193.27C3336.75,-183.43 3365.34,-171.55 3387.29,-162.43"/>
<polygon fill="#63b8ff" stroke="#63b8ff" points="3311.85,-189.99 3303.96,-197.06 3314.54,-196.45 3311.85,-189.99"/>
</g>
<!-- Node255 -->
<g id="node49" class="node">
<title>Node255</title>
<g id="a_node49"><a xlink:href="printf_8c.html" target="_top" xlink:title=" ">
<polygon fill="white" stroke="#666666" points="3644,-162 3508,-162 3508,-132 3644,-132 3644,-162"/>
<text text-anchor="start" x="3516" y="-150" font-family="Helvetica,sans-Serif" font-size="10.00">libs/MSL_C/MSL_Common</text>
<text text-anchor="middle" x="3576" y="-139" font-family="Helvetica,sans-Serif" font-size="10.00">/Src/printf.c</text>
</a>
</g>
</g>
<!-- Node1&#45;&gt;Node255 -->
<g id="edge49" class="edge">
<title>Node1&#45;&gt;Node255</title>
<path fill="none" stroke="#63b8ff" d="M3348.48,-195.28C3397.9,-185.01 3460.52,-172 3507.54,-162.22"/>
<polygon fill="#63b8ff" stroke="#63b8ff" points="3348.07,-191.79 3338.99,-197.25 3349.49,-198.64 3348.07,-191.79"/>
</g>
<!-- Node256 -->
<g id="node50" class="node">
<title>Node256</title>
<g id="a_node50"><a xlink:href="string_8c.html" target="_top" xlink:title=" ">
<polygon fill="white" stroke="#666666" points="3798,-162 3662,-162 3662,-132 3798,-132 3798,-162"/>
<text text-anchor="start" x="3670" y="-150" font-family="Helvetica,sans-Serif" font-size="10.00">libs/MSL_C/MSL_Common</text>
<text text-anchor="middle" x="3730" y="-139" font-family="Helvetica,sans-Serif" font-size="10.00">/Src/string.c</text>
</a>
</g>
</g>
<!-- Node1&#45;&gt;Node256 -->
<g id="edge50" class="edge">
<title>Node1&#45;&gt;Node256</title>
<path fill="none" stroke="#63b8ff" d="M3355.74,-201.89C3433.89,-192.58 3551.28,-177.84 3653,-162 3655.82,-161.56 3658.69,-161.1 3661.6,-160.62"/>
<polygon fill="#63b8ff" stroke="#63b8ff" points="3355.52,-198.39 3346,-203.05 3356.34,-205.34 3355.52,-198.39"/>
</g>
<!-- Node3 -->
<g id="node3" class="node">
<title>Node3</title>
<g id="a_node3"><a xlink:href="JUTFont_8h.html" target="_top" xlink:title=" ">
<polygon fill="#fff0f0" stroke="red" points="122,-96 0,-96 0,-66 122,-66 122,-96"/>
<text text-anchor="start" x="8" y="-84" font-family="Helvetica,sans-Serif" font-size="10.00">include/JSystem/JUtility</text>
<text text-anchor="middle" x="61" y="-73" font-family="Helvetica,sans-Serif" font-size="10.00">/JUTFont.h</text>
</a>
</g>
</g>
<!-- Node2&#45;&gt;Node3 -->
<g id="edge2" class="edge">
<title>Node2&#45;&gt;Node3</title>
<path fill="none" stroke="#63b8ff" d="M2722.27,-146.26C2354.61,-147.34 658.72,-149.33 136,-96 131.52,-95.54 126.91,-94.96 122.27,-94.29"/>
<polygon fill="#63b8ff" stroke="#63b8ff" points="2722.02,-149.76 2732.01,-146.23 2722,-142.76 2722.02,-149.76"/>
</g>
<!-- Node27 -->
<g id="node4" class="node">
<title>Node27</title>
<g id="a_node4"><a xlink:href="J2DPrint_8cpp.html" target="_top" xlink:title=" ">
<polygon fill="white" stroke="#666666" points="164.5,-30 45.5,-30 45.5,0 164.5,0 164.5,-30"/>
<text text-anchor="start" x="53.5" y="-18" font-family="Helvetica,sans-Serif" font-size="10.00">libs/JSystem/J2DGraph</text>
<text text-anchor="middle" x="105" y="-7" font-family="Helvetica,sans-Serif" font-size="10.00">/J2DPrint.cpp</text>
</a>
</g>
</g>
<!-- Node2&#45;&gt;Node27 -->
<g id="edge7" class="edge">
<title>Node2&#45;&gt;Node27</title>
<path fill="none" stroke="#63b8ff" d="M2722.35,-145.48C2309.75,-142.33 227.91,-125.01 169,-96 140.76,-82.09 120.97,-49.17 111.45,-30.18"/>
<polygon fill="#63b8ff" stroke="#63b8ff" points="2722.24,-148.98 2732.27,-145.55 2722.29,-141.98 2722.24,-148.98"/>
</g>
<!-- Node29 -->
<g id="node5" class="node">
<title>Node29</title>
<g id="a_node5"><a xlink:href="d__save_8h.html" target="_top" xlink:title=" ">
<polygon fill="#fff0f0" stroke="red" points="300,-90.5 178,-90.5 178,-71.5 300,-71.5 300,-90.5"/>
<text text-anchor="middle" x="239" y="-78.5" font-family="Helvetica,sans-Serif" font-size="10.00">include/d/save/d_save.h</text>
</a>
</g>
</g>
<!-- Node2&#45;&gt;Node29 -->
<g id="edge4" class="edge">
<title>Node2&#45;&gt;Node29</title>
<path fill="none" stroke="#63b8ff" d="M2722.4,-146.24C2369.67,-147.2 796.11,-148.41 310,-96 299.51,-94.87 288.26,-92.97 277.87,-90.94"/>
<polygon fill="#63b8ff" stroke="#63b8ff" points="2722.19,-149.74 2732.18,-146.22 2722.17,-142.74 2722.19,-149.74"/>
</g>
<!-- Node210 -->
<g id="node6" class="node">
<title>Node210</title>
<g id="a_node6"><a xlink:href="J2DManage_8cpp.html" target="_top" xlink:title=" ">
<polygon fill="white" stroke="#666666" points="437.5,-96 318.5,-96 318.5,-66 437.5,-66 437.5,-96"/>
<text text-anchor="start" x="326.5" y="-84" font-family="Helvetica,sans-Serif" font-size="10.00">libs/JSystem/J2DGraph</text>
<text text-anchor="middle" x="378" y="-73" font-family="Helvetica,sans-Serif" font-size="10.00">/J2DManage.cpp</text>
</a>
</g>
</g>
<!-- Node2&#45;&gt;Node210 -->
<g id="edge5" class="edge">
<title>Node2&#45;&gt;Node210</title>
<path fill="none" stroke="#63b8ff" d="M2722.2,-146.2C2381.01,-146.89 904.28,-146.85 447,-96 443.96,-95.66 440.86,-95.26 437.74,-94.8"/>
<polygon fill="#63b8ff" stroke="#63b8ff" points="2722.11,-149.7 2732.1,-146.18 2722.09,-142.7 2722.11,-149.7"/>
</g>
<!-- Node211 -->
<g id="node7" class="node">
<title>Node211</title>
<g id="a_node7"><a xlink:href="J2DMaterialFactory_8cpp.html" target="_top" xlink:title=" ">
<polygon fill="white" stroke="#666666" points="578,-96 456,-96 456,-66 578,-66 578,-96"/>
<text text-anchor="start" x="464" y="-84" font-family="Helvetica,sans-Serif" font-size="10.00">libs/JSystem/J2DGraph</text>
<text text-anchor="middle" x="517" y="-73" font-family="Helvetica,sans-Serif" font-size="10.00">/J2DMaterialFactory.cpp</text>
</a>
</g>
</g>
<!-- Node2&#45;&gt;Node211 -->
<g id="edge6" class="edge">
<title>Node2&#45;&gt;Node211</title>
<path fill="none" stroke="#63b8ff" d="M2722.48,-146.03C2394.5,-145.94 1016.15,-142.72 588,-96 584.88,-95.66 581.69,-95.25 578.47,-94.79"/>
<polygon fill="#63b8ff" stroke="#63b8ff" points="2722.19,-149.53 2732.19,-146.04 2722.19,-142.53 2722.19,-149.53"/>
</g>
<!-- Node25 -->
<g id="node8" class="node">
<title>Node25</title>
<g id="a_node8"><a xlink:href="J2DTextBox_8cpp.html" target="_top" xlink:title=" ">
<polygon fill="white" stroke="#666666" points="715.5,-96 596.5,-96 596.5,-66 715.5,-66 715.5,-96"/>
<text text-anchor="start" x="604.5" y="-84" font-family="Helvetica,sans-Serif" font-size="10.00">libs/JSystem/J2DGraph</text>
<text text-anchor="middle" x="656" y="-73" font-family="Helvetica,sans-Serif" font-size="10.00">/J2DTextBox.cpp</text>
</a>
</g>
</g>
<!-- Node2&#45;&gt;Node25 -->
<g id="edge8" class="edge">
<title>Node2&#45;&gt;Node25</title>
<path fill="none" stroke="#63b8ff" d="M2722.28,-145.96C2406.62,-145.53 1124.45,-141 725,-96 721.96,-95.66 718.86,-95.25 715.74,-94.79"/>
<polygon fill="#63b8ff" stroke="#63b8ff" points="2722.02,-149.46 2732.02,-145.97 2722.03,-142.46 2722.02,-149.46"/>
</g>
<!-- Node212 -->
<g id="node9" class="node">
<title>Node212</title>
<g id="a_node9"><a xlink:href="J3DPacket_8cpp.html" target="_top" xlink:title=" ">
<polygon fill="white" stroke="#666666" points="876,-96 734,-96 734,-66 876,-66 876,-96"/>
<text text-anchor="start" x="742" y="-84" font-family="Helvetica,sans-Serif" font-size="10.00">libs/JSystem/J3DGraphBase</text>
<text text-anchor="middle" x="805" y="-73" font-family="Helvetica,sans-Serif" font-size="10.00">/J3DPacket.cpp</text>
</a>
</g>
</g>
<!-- Node2&#45;&gt;Node212 -->
<g id="edge9" class="edge">
<title>Node2&#45;&gt;Node212</title>
<path fill="none" stroke="#63b8ff" d="M2722.43,-145.54C2422.46,-143.38 1251.83,-132.7 885,-96 882.19,-95.72 879.34,-95.4 876.46,-95.04"/>
<polygon fill="#63b8ff" stroke="#63b8ff" points="2722.03,-149.04 2732.05,-145.61 2722.08,-142.04 2722.03,-149.04"/>
</g>
<!-- Node213 -->
<g id="node10" class="node">
<title>Node213</title>
<g id="a_node10"><a xlink:href="J3DShapeDraw_8cpp.html" target="_top" xlink:title=" ">
<polygon fill="white" stroke="#666666" points="1036,-96 894,-96 894,-66 1036,-66 1036,-96"/>
<text text-anchor="start" x="902" y="-84" font-family="Helvetica,sans-Serif" font-size="10.00">libs/JSystem/J3DGraphBase</text>
<text text-anchor="middle" x="965" y="-73" font-family="Helvetica,sans-Serif" font-size="10.00">/J3DShapeDraw.cpp</text>
</a>
</g>
</g>
<!-- Node2&#45;&gt;Node213 -->
<g id="edge10" class="edge">
<title>Node2&#45;&gt;Node213</title>
<path fill="none" stroke="#63b8ff" d="M2722.39,-145.34C2438.37,-142.5 1378.67,-129.79 1045,-96 1042.19,-95.72 1039.34,-95.39 1036.46,-95.03"/>
<polygon fill="#63b8ff" stroke="#63b8ff" points="2722.2,-148.84 2732.23,-145.44 2722.27,-141.84 2722.2,-148.84"/>
</g>
<!-- Node214 -->
<g id="node11" class="node">
<title>Node214</title>
<g id="a_node11"><a xlink:href="J3DVertex_8cpp.html" target="_top" xlink:title=" ">
<polygon fill="white" stroke="#666666" points="1196,-96 1054,-96 1054,-66 1196,-66 1196,-96"/>
<text text-anchor="start" x="1062" y="-84" font-family="Helvetica,sans-Serif" font-size="10.00">libs/JSystem/J3DGraphBase</text>
<text text-anchor="middle" x="1125" y="-73" font-family="Helvetica,sans-Serif" font-size="10.00">/J3DVertex.cpp</text>
</a>
</g>
</g>
<!-- Node2&#45;&gt;Node214 -->
<g id="edge11" class="edge">
<title>Node2&#45;&gt;Node214</title>
<path fill="none" stroke="#63b8ff" d="M2722.33,-145.11C2455.01,-141.53 1505.62,-126.88 1205,-96 1202.19,-95.71 1199.34,-95.38 1196.46,-95.02"/>
<polygon fill="#63b8ff" stroke="#63b8ff" points="2722.24,-148.61 2732.28,-145.24 2722.33,-141.61 2722.24,-148.61"/>
</g>
<!-- Node215 -->
<g id="node12" class="node">
<title>Node215</title>
<g id="a_node12"><a xlink:href="JASWaveArcLoader_8cpp.html" target="_top" xlink:title=" ">
<polygon fill="white" stroke="#666666" points="1340,-96 1214,-96 1214,-66 1340,-66 1340,-96"/>
<text text-anchor="start" x="1222" y="-84" font-family="Helvetica,sans-Serif" font-size="10.00">libs/JSystem/JAudio2</text>
<text text-anchor="middle" x="1277" y="-73" font-family="Helvetica,sans-Serif" font-size="10.00">/JASWaveArcLoader.cpp</text>
</a>
</g>
</g>
<!-- Node2&#45;&gt;Node215 -->
<g id="edge12" class="edge">
<title>Node2&#45;&gt;Node215</title>
<path fill="none" stroke="#63b8ff" d="M2722.54,-145C2471.41,-141.23 1620.63,-126.45 1350,-96 1346.79,-95.64 1343.52,-95.22 1340.22,-94.74"/>
<polygon fill="#63b8ff" stroke="#63b8ff" points="2722.13,-148.5 2732.18,-145.15 2722.23,-141.5 2722.13,-148.5"/>
</g>
<!-- Node216 -->
<g id="node13" class="node">
<title>Node216</title>
<g id="a_node13"><a xlink:href="JKRAram_8cpp.html" target="_top" xlink:title=" ">
<polygon fill="white" stroke="#666666" points="1467.5,-96 1358.5,-96 1358.5,-66 1467.5,-66 1467.5,-96"/>
<text text-anchor="start" x="1366.5" y="-84" font-family="Helvetica,sans-Serif" font-size="10.00">libs/JSystem/JKernel</text>
<text text-anchor="middle" x="1413" y="-73" font-family="Helvetica,sans-Serif" font-size="10.00">/JKRAram.cpp</text>
</a>
</g>
</g>
<!-- Node2&#45;&gt;Node216 -->
<g id="edge13" class="edge">
<title>Node2&#45;&gt;Node216</title>
<path fill="none" stroke="#63b8ff" d="M2722.46,-144.97C2485.79,-141.26 1721.21,-127.1 1477,-96 1473.95,-95.61 1470.84,-95.15 1467.7,-94.63"/>
<polygon fill="#63b8ff" stroke="#63b8ff" points="2722.09,-148.47 2732.14,-145.12 2722.2,-141.47 2722.09,-148.47"/>
</g>
<!-- Node217 -->
<g id="node14" class="node">
<title>Node217</title>
<g id="a_node14"><a xlink:href="JKRAramArchive_8cpp.html" target="_top" xlink:title=" ">
<polygon fill="white" stroke="#666666" points="1598.5,-96 1485.5,-96 1485.5,-66 1598.5,-66 1598.5,-96"/>
<text text-anchor="start" x="1493.5" y="-84" font-family="Helvetica,sans-Serif" font-size="10.00">libs/JSystem/JKernel</text>
<text text-anchor="middle" x="1542" y="-73" font-family="Helvetica,sans-Serif" font-size="10.00">/JKRAramArchive.cpp</text>
</a>
</g>
</g>
<!-- Node2&#45;&gt;Node217 -->
<g id="edge14" class="edge">
<title>Node2&#45;&gt;Node217</title>
<path fill="none" stroke="#63b8ff" d="M2722.16,-144.56C2501.06,-139.83 1825.51,-123.46 1608,-96 1604.98,-95.62 1601.89,-95.17 1598.78,-94.67"/>
<polygon fill="#63b8ff" stroke="#63b8ff" points="2722,-148.06 2732.07,-144.77 2722.15,-141.06 2722,-148.06"/>
</g>
<!-- Node218 -->
<g id="node15" class="node">
<title>Node218</title>
<g id="a_node15"><a xlink:href="JKRArchivePri_8cpp.html" target="_top" xlink:title=" ">
<polygon fill="white" stroke="#666666" points="1725.5,-96 1616.5,-96 1616.5,-66 1725.5,-66 1725.5,-96"/>
<text text-anchor="start" x="1624.5" y="-84" font-family="Helvetica,sans-Serif" font-size="10.00">libs/JSystem/JKernel</text>
<text text-anchor="middle" x="1671" y="-73" font-family="Helvetica,sans-Serif" font-size="10.00">/JKRArchivePri.cpp</text>
</a>
</g>
</g>
<!-- Node2&#45;&gt;Node218 -->
<g id="edge15" class="edge">
<title>Node2&#45;&gt;Node218</title>
<path fill="none" stroke="#63b8ff" d="M2722.3,-146.75C2551.71,-147.66 2104.34,-144.77 1735,-96 1731.96,-95.6 1728.84,-95.13 1725.71,-94.6"/>
<polygon fill="#63b8ff" stroke="#63b8ff" points="2722.12,-150.25 2732.1,-146.69 2722.08,-143.25 2722.12,-150.25"/>
</g>
<!-- Node219 -->
<g id="node16" class="node">
<title>Node219</title>
<g id="a_node16"><a xlink:href="JKRCompArchive_8cpp.html" target="_top" xlink:title=" ">
<polygon fill="white" stroke="#666666" points="1858.5,-96 1743.5,-96 1743.5,-66 1858.5,-66 1858.5,-96"/>
<text text-anchor="start" x="1751.5" y="-84" font-family="Helvetica,sans-Serif" font-size="10.00">libs/JSystem/JKernel</text>
<text text-anchor="middle" x="1801" y="-73" font-family="Helvetica,sans-Serif" font-size="10.00">/JKRCompArchive.cpp</text>
</a>
</g>
</g>
<!-- Node2&#45;&gt;Node219 -->
<g id="edge16" class="edge">
<title>Node2&#45;&gt;Node219</title>
<path fill="none" stroke="#63b8ff" d="M2722.52,-145.83C2567.4,-144.67 2184.98,-137.44 1868,-96 1864.94,-95.6 1861.8,-95.14 1858.65,-94.63"/>
<polygon fill="#63b8ff" stroke="#63b8ff" points="2722.2,-149.33 2732.22,-145.9 2722.25,-142.33 2722.2,-149.33"/>
</g>
<!-- Node220 -->
<g id="node17" class="node">
<title>Node220</title>
<g id="a_node17"><a xlink:href="JKRDvdArchive_8cpp.html" target="_top" xlink:title=" ">
<polygon fill="white" stroke="#666666" points="1985.5,-96 1876.5,-96 1876.5,-66 1985.5,-66 1985.5,-96"/>
<text text-anchor="start" x="1884.5" y="-84" font-family="Helvetica,sans-Serif" font-size="10.00">libs/JSystem/JKernel</text>
<text text-anchor="middle" x="1931" y="-73" font-family="Helvetica,sans-Serif" font-size="10.00">/JKRDvdArchive.cpp</text>
</a>
</g>
</g>
<!-- Node2&#45;&gt;Node220 -->
<g id="edge17" class="edge">
<title>Node2&#45;&gt;Node220</title>
<path fill="none" stroke="#63b8ff" d="M2722.28,-145.19C2582.61,-142.79 2261.76,-133.31 1995,-96 1991.96,-95.57 1988.85,-95.08 1985.71,-94.54"/>
<polygon fill="#63b8ff" stroke="#63b8ff" points="2722.05,-148.68 2732.11,-145.35 2722.17,-141.69 2722.05,-148.68"/>
</g>
<!-- Node221 -->
<g id="node18" class="node">
<title>Node221</title>
<g id="a_node18"><a xlink:href="JKRDvdRipper_8cpp.html" target="_top" xlink:title=" ">
<polygon fill="white" stroke="#666666" points="2112.5,-96 2003.5,-96 2003.5,-66 2112.5,-66 2112.5,-96"/>
<text text-anchor="start" x="2011.5" y="-84" font-family="Helvetica,sans-Serif" font-size="10.00">libs/JSystem/JKernel</text>
<text text-anchor="middle" x="2058" y="-73" font-family="Helvetica,sans-Serif" font-size="10.00">/JKRDvdRipper.cpp</text>
</a>
</g>
</g>
<!-- Node2&#45;&gt;Node221 -->
<g id="edge18" class="edge">
<title>Node2&#45;&gt;Node221</title>
<path fill="none" stroke="#63b8ff" d="M2722.47,-144.01C2599.82,-139.83 2339.52,-127.73 2122,-96 2118.96,-95.56 2115.85,-95.05 2112.72,-94.5"/>
<polygon fill="#63b8ff" stroke="#63b8ff" points="2722.28,-147.51 2732.39,-144.34 2722.51,-140.51 2722.28,-147.51"/>
</g>
<!-- Node222 -->
<g id="node19" class="node">
<title>Node222</title>
<g id="a_node19"><a xlink:href="JKRFileCache_8cpp.html" target="_top" xlink:title=" ">
<polygon fill="white" stroke="#666666" points="2239.5,-96 2130.5,-96 2130.5,-66 2239.5,-66 2239.5,-96"/>
<text text-anchor="start" x="2138.5" y="-84" font-family="Helvetica,sans-Serif" font-size="10.00">libs/JSystem/JKernel</text>
<text text-anchor="middle" x="2185" y="-73" font-family="Helvetica,sans-Serif" font-size="10.00">/JKRFileCache.cpp</text>
</a>
</g>
</g>
<!-- Node2&#45;&gt;Node222 -->
<g id="edge19" class="edge">
<title>Node2&#45;&gt;Node222</title>
<path fill="none" stroke="#63b8ff" d="M2722.24,-142.3C2618.12,-136.22 2417.71,-122.1 2249,-96 2245.97,-95.53 2242.86,-95 2239.73,-94.44"/>
<polygon fill="#63b8ff" stroke="#63b8ff" points="2721.84,-145.78 2732.03,-142.86 2722.25,-138.79 2721.84,-145.78"/>
</g>
<!-- Node223 -->
<g id="node20" class="node">
<title>Node223</title>
<g id="a_node20"><a xlink:href="JKRFileLoader_8cpp.html" target="_top" xlink:title=" ">
<polygon fill="white" stroke="#666666" points="2366.5,-96 2257.5,-96 2257.5,-66 2366.5,-66 2366.5,-96"/>
<text text-anchor="start" x="2265.5" y="-84" font-family="Helvetica,sans-Serif" font-size="10.00">libs/JSystem/JKernel</text>
<text text-anchor="middle" x="2312" y="-73" font-family="Helvetica,sans-Serif" font-size="10.00">/JKRFileLoader.cpp</text>
</a>
</g>
</g>
<!-- Node2&#45;&gt;Node223 -->
<g id="edge20" class="edge">
<title>Node2&#45;&gt;Node223</title>
<path fill="none" stroke="#63b8ff" d="M2722.36,-139.62C2639.19,-131.62 2497.02,-116.44 2376,-96 2372.97,-95.49 2369.87,-94.93 2366.75,-94.34"/>
<polygon fill="#63b8ff" stroke="#63b8ff" points="2721.91,-143.09 2732.19,-140.55 2722.57,-136.12 2721.91,-143.09"/>
</g>
<!-- Node224 -->
<g id="node21" class="node">
<title>Node224</title>
<g id="a_node21"><a xlink:href="JKRMemArchive_8cpp.html" target="_top" xlink:title=" ">
<polygon fill="white" stroke="#666666" points="2495.5,-96 2384.5,-96 2384.5,-66 2495.5,-66 2495.5,-96"/>
<text text-anchor="start" x="2392.5" y="-84" font-family="Helvetica,sans-Serif" font-size="10.00">libs/JSystem/JKernel</text>
<text text-anchor="middle" x="2440" y="-73" font-family="Helvetica,sans-Serif" font-size="10.00">/JKRMemArchive.cpp</text>
</a>
</g>
</g>
<!-- Node2&#45;&gt;Node224 -->
<g id="edge21" class="edge">
<title>Node2&#45;&gt;Node224</title>
<path fill="none" stroke="#63b8ff" d="M2726.1,-135.17C2667.64,-125.52 2580.54,-110.69 2505,-96 2502.05,-95.43 2499.04,-94.83 2495.99,-94.21"/>
<polygon fill="#63b8ff" stroke="#63b8ff" points="2725.47,-138.61 2735.9,-136.78 2726.61,-131.71 2725.47,-138.61"/>
</g>
<!-- Node225 -->
<g id="node22" class="node">
<title>Node225</title>
<g id="a_node22"><a xlink:href="resource_8cpp.html" target="_top" xlink:title=" ">
<polygon fill="white" stroke="#666666" points="2634.5,-96 2513.5,-96 2513.5,-66 2634.5,-66 2634.5,-96"/>
<text text-anchor="start" x="2521.5" y="-84" font-family="Helvetica,sans-Serif" font-size="10.00">libs/JSystem/JMessage</text>
<text text-anchor="middle" x="2574" y="-73" font-family="Helvetica,sans-Serif" font-size="10.00">/resource.cpp</text>
</a>
</g>
</g>
<!-- Node2&#45;&gt;Node225 -->
<g id="edge22" class="edge">
<title>Node2&#45;&gt;Node225</title>
<path fill="none" stroke="#63b8ff" d="M2751.83,-133.97C2715.43,-123.33 2662.26,-107.79 2623.54,-96.48"/>
<polygon fill="#63b8ff" stroke="#63b8ff" points="2750.52,-137.23 2761.1,-136.68 2752.48,-130.51 2750.52,-137.23"/>
</g>
<!-- Node226 -->
<g id="node23" class="node">
<title>Node226</title>
<g id="a_node23"><a xlink:href="JPAResourceManager_8cpp.html" target="_top" xlink:title=" ">
<polygon fill="white" stroke="#666666" points="2787.5,-96 2652.5,-96 2652.5,-66 2787.5,-66 2787.5,-96"/>
<text text-anchor="start" x="2660.5" y="-84" font-family="Helvetica,sans-Serif" font-size="10.00">libs/JSystem/JParticle</text>
<text text-anchor="middle" x="2720" y="-73" font-family="Helvetica,sans-Serif" font-size="10.00">/JPAResourceManager.cpp</text>
</a>
</g>
</g>
<!-- Node2&#45;&gt;Node226 -->
<g id="edge23" class="edge">
<title>Node2&#45;&gt;Node226</title>
<path fill="none" stroke="#63b8ff" d="M2774.31,-129.62C2762.64,-119.38 2747.75,-106.33 2736.51,-96.48"/>
<polygon fill="#63b8ff" stroke="#63b8ff" points="2771.88,-132.14 2781.71,-136.1 2776.5,-126.88 2771.88,-132.14"/>
</g>
<!-- Node227 -->
<g id="node24" class="node">
<title>Node227</title>
<g id="a_node24"><a xlink:href="JSUMemoryStream_8cpp.html" target="_top" xlink:title=" ">
<polygon fill="white" stroke="#666666" points="2928.5,-96 2805.5,-96 2805.5,-66 2928.5,-66 2928.5,-96"/>
<text text-anchor="start" x="2813.5" y="-84" font-family="Helvetica,sans-Serif" font-size="10.00">libs/JSystem/JSupport</text>
<text text-anchor="middle" x="2867" y="-73" font-family="Helvetica,sans-Serif" font-size="10.00">/JSUMemoryStream.cpp</text>
</a>
</g>
</g>
<!-- Node2&#45;&gt;Node227 -->
<g id="edge24" class="edge">
<title>Node2&#45;&gt;Node227</title>
<path fill="none" stroke="#63b8ff" d="M2811.95,-129.62C2823.78,-119.38 2838.87,-106.33 2850.26,-96.48"/>
<polygon fill="#63b8ff" stroke="#63b8ff" points="2809.71,-126.92 2804.43,-136.11 2814.29,-132.22 2809.71,-126.92"/>
</g>
<!-- Node228 -->
<g id="node25" class="node">
<title>Node228</title>
<g id="a_node25"><a xlink:href="JUTNameTab_8cpp.html" target="_top" xlink:title=" ">
<polygon fill="white" stroke="#666666" points="3053,-96 2947,-96 2947,-66 3053,-66 3053,-96"/>
<text text-anchor="start" x="2955" y="-84" font-family="Helvetica,sans-Serif" font-size="10.00">libs/JSystem/JUtility</text>
<text text-anchor="middle" x="3000" y="-73" font-family="Helvetica,sans-Serif" font-size="10.00">/JUTNameTab.cpp</text>
</a>
</g>
</g>
<!-- Node2&#45;&gt;Node228 -->
<g id="edge25" class="edge">
<title>Node2&#45;&gt;Node228</title>
<path fill="none" stroke="#63b8ff" d="M2832.36,-133.83C2866.75,-123.2 2916.74,-107.74 2953.17,-96.48"/>
<polygon fill="#63b8ff" stroke="#63b8ff" points="2831.75,-130.36 2823.23,-136.65 2833.82,-137.04 2831.75,-130.36"/>
</g>
<!-- Node229 -->
<g id="node26" class="node">
<title>Node229</title>
<g id="a_node26"><a xlink:href="c__lib_8cpp.html" target="_top" xlink:title=" ">
<polygon fill="white" stroke="#666666" points="3205,-96 3071,-96 3071,-66 3205,-66 3205,-96"/>
<text text-anchor="start" x="3079" y="-84" font-family="Helvetica,sans-Serif" font-size="10.00">libs/SSystem/SComponent</text>
<text text-anchor="middle" x="3138" y="-73" font-family="Helvetica,sans-Serif" font-size="10.00">/c_lib.cpp</text>
</a>
</g>
</g>
<!-- Node2&#45;&gt;Node229 -->
<g id="edge26" class="edge">
<title>Node2&#45;&gt;Node229</title>
<path fill="none" stroke="#63b8ff" d="M2846.87,-134.78C2851.64,-133.82 2856.41,-132.88 2861,-132 2950.12,-114.85 2972.71,-112.22 3062,-96 3064.9,-95.47 3067.87,-94.93 3070.87,-94.39"/>
<polygon fill="#63b8ff" stroke="#63b8ff" points="2846.36,-131.31 2837.25,-136.72 2847.75,-138.17 2846.36,-131.31"/>
</g>
<!-- Node230 -->
<g id="node27" class="node">
<title>Node230</title>
<g id="a_node27"><a xlink:href="ar_8c.html" target="_top" xlink:title=" ">
<polygon fill="white" stroke="#666666" points="3318.5,-90.5 3223.5,-90.5 3223.5,-71.5 3318.5,-71.5 3318.5,-90.5"/>
<text text-anchor="middle" x="3271" y="-78.5" font-family="Helvetica,sans-Serif" font-size="10.00">libs/dolphin/ar/ar.c</text>
</a>
</g>
</g>
<!-- Node2&#45;&gt;Node230 -->
<g id="edge27" class="edge">
<title>Node2&#45;&gt;Node230</title>
<path fill="none" stroke="#63b8ff" d="M2844.02,-134.91C2849.74,-133.85 2855.48,-132.85 2861,-132 3016.88,-108.07 3058.6,-122.87 3214,-96 3221.83,-94.65 3230.18,-92.82 3238.01,-90.93"/>
<polygon fill="#63b8ff" stroke="#63b8ff" points="2843.78,-131.39 2834.64,-136.74 2845.12,-138.27 2843.78,-131.39"/>
</g>
<!-- Node231 -->
<g id="node28" class="node">
<title>Node231</title>
<g id="a_node28"><a xlink:href="CARDBlock_8c.html" target="_top" xlink:title=" ">
<polygon fill="white" stroke="#666666" points="3485.5,-90.5 3336.5,-90.5 3336.5,-71.5 3485.5,-71.5 3485.5,-90.5"/>
<text text-anchor="middle" x="3411" y="-78.5" font-family="Helvetica,sans-Serif" font-size="10.00">libs/dolphin/card/CARDBlock.c</text>
</a>
</g>
</g>
<!-- Node2&#45;&gt;Node231 -->
<g id="edge28" class="edge">
<title>Node2&#45;&gt;Node231</title>
<path fill="none" stroke="#63b8ff" d="M2843.55,-134.86C2849.42,-133.78 2855.33,-132.8 2861,-132 3067.13,-102.95 3121.38,-121.34 3328,-96 3339.17,-94.63 3351.13,-92.82 3362.39,-90.95"/>
<polygon fill="#63b8ff" stroke="#63b8ff" points="2843.05,-131.39 2833.89,-136.72 2844.37,-138.26 2843.05,-131.39"/>
</g>
<!-- Node232 -->
<g id="node29" class="node">
<title>Node232</title>
<g id="a_node29"><a xlink:href="CARDCheck_8c.html" target="_top" xlink:title=" ">
<polygon fill="white" stroke="#666666" points="3656,-90.5 3504,-90.5 3504,-71.5 3656,-71.5 3656,-90.5"/>
<text text-anchor="middle" x="3580" y="-78.5" font-family="Helvetica,sans-Serif" font-size="10.00">libs/dolphin/card/CARDCheck.c</text>
</a>
</g>
</g>
<!-- Node2&#45;&gt;Node232 -->
<g id="edge29" class="edge">
<title>Node2&#45;&gt;Node232</title>
<path fill="none" stroke="#63b8ff" d="M2842.62,-134.91C2848.79,-133.79 2855.02,-132.78 2861,-132 3140.85,-95.45 3214.47,-126.98 3495,-96 3506.74,-94.7 3519.33,-92.87 3531.13,-90.96"/>
<polygon fill="#63b8ff" stroke="#63b8ff" points="2842.32,-131.4 2833.16,-136.73 2843.64,-138.28 2842.32,-131.4"/>
</g>
<!-- Node233 -->
<g id="node30" class="node">
<title>Node233</title>
<g id="a_node30"><a xlink:href="CARDCreate_8c.html" target="_top" xlink:title=" ">
<polygon fill="white" stroke="#666666" points="3827.5,-90.5 3674.5,-90.5 3674.5,-71.5 3827.5,-71.5 3827.5,-90.5"/>
<text text-anchor="middle" x="3751" y="-78.5" font-family="Helvetica,sans-Serif" font-size="10.00">libs/dolphin/card/CARDCreate.c</text>
</a>
</g>
</g>
<!-- Node2&#45;&gt;Node233 -->
<g id="edge30" class="edge">
<title>Node2&#45;&gt;Node233</title>
<path fill="none" stroke="#63b8ff" d="M2842.38,-134.88C2848.63,-133.76 2854.94,-132.75 2861,-132 3215.95,-87.8 3309.21,-132.8 3665,-96 3677.04,-94.75 3689.95,-92.92 3702.02,-90.99"/>
<polygon fill="#63b8ff" stroke="#63b8ff" points="2841.95,-131.4 2832.79,-136.72 2843.27,-138.28 2841.95,-131.4"/>
</g>
<!-- Node234 -->
<g id="node31" class="node">
<title>Node234</title>
<g id="a_node31"><a xlink:href="CARDDir_8c.html" target="_top" xlink:title=" ">
<polygon fill="white" stroke="#666666" points="3982.5,-90.5 3845.5,-90.5 3845.5,-71.5 3982.5,-71.5 3982.5,-90.5"/>
<text text-anchor="middle" x="3914" y="-78.5" font-family="Helvetica,sans-Serif" font-size="10.00">libs/dolphin/card/CARDDir.c</text>
</a>
</g>
</g>
<!-- Node2&#45;&gt;Node234 -->
<g id="edge31" class="edge">
<title>Node2&#45;&gt;Node234</title>
<path fill="none" stroke="#63b8ff" d="M2842.15,-134.88C2848.46,-133.74 2854.87,-132.74 2861,-132 3291.95,-80.05 3405.47,-142.94 3837,-96 3848.08,-94.8 3859.96,-92.93 3870.99,-90.94"/>
<polygon fill="#63b8ff" stroke="#63b8ff" points="2841.59,-131.42 2832.43,-136.74 2842.91,-138.3 2841.59,-131.42"/>
</g>
<!-- Node235 -->
<g id="node32" class="node">
<title>Node235</title>
<g id="a_node32"><a xlink:href="CARDFormat_8c.html" target="_top" xlink:title=" ">
<polygon fill="white" stroke="#666666" points="4155.5,-90.5 4000.5,-90.5 4000.5,-71.5 4155.5,-71.5 4155.5,-90.5"/>
<text text-anchor="middle" x="4078" y="-78.5" font-family="Helvetica,sans-Serif" font-size="10.00">libs/dolphin/card/CARDFormat.c</text>
</a>
</g>
</g>
<!-- Node2&#45;&gt;Node235 -->
<g id="edge32" class="edge">
<title>Node2&#45;&gt;Node235</title>
<path fill="none" stroke="#63b8ff" d="M2841.43,-134.98C2847.98,-133.79 2854.64,-132.75 2861,-132 3360.46,-73.08 3491.42,-144.51 3992,-96 4004.35,-94.8 4017.61,-92.94 4029.93,-90.95"/>
<polygon fill="#63b8ff" stroke="#63b8ff" points="2841.22,-131.45 2832.07,-136.78 2842.55,-138.32 2841.22,-131.45"/>
</g>
<!-- Node236 -->
<g id="node33" class="node">
<title>Node236</title>
<g id="a_node33"><a xlink:href="CARDOpen_8c.html" target="_top" xlink:title=" ">
<polygon fill="white" stroke="#666666" points="4322,-90.5 4174,-90.5 4174,-71.5 4322,-71.5 4322,-90.5"/>
<text text-anchor="middle" x="4248" y="-78.5" font-family="Helvetica,sans-Serif" font-size="10.00">libs/dolphin/card/CARDOpen.c</text>
</a>
</g>
</g>
<!-- Node2&#45;&gt;Node236 -->
<g id="edge33" class="edge">
<title>Node2&#45;&gt;Node236</title>
<path fill="none" stroke="#63b8ff" d="M2841.43,-134.95C2847.98,-133.77 2854.63,-132.74 2861,-132 3436.93,-65.29 3587.97,-152.35 4165,-96 4176.93,-94.84 4189.73,-92.98 4201.62,-91"/>
<polygon fill="#63b8ff" stroke="#63b8ff" points="2841.22,-131.43 2832.06,-136.75 2842.54,-138.3 2841.22,-131.43"/>
</g>
<!-- Node237 -->
<g id="node34" class="node">
<title>Node237</title>
<g id="a_node34"><a xlink:href="dvd_8c.html" target="_top" xlink:title=" ">
<polygon fill="white" stroke="#666666" points="4450,-90.5 4340,-90.5 4340,-71.5 4450,-71.5 4450,-90.5"/>
<text text-anchor="middle" x="4395" y="-78.5" font-family="Helvetica,sans-Serif" font-size="10.00">libs/dolphin/dvd/dvd.c</text>
</a>
</g>
</g>
<!-- Node2&#45;&gt;Node237 -->
<g id="edge34" class="edge">
<title>Node2&#45;&gt;Node237</title>
<path fill="none" stroke="#63b8ff" d="M2841.43,-134.93C2847.98,-133.76 2854.63,-132.73 2861,-132 3510.3,-57.81 3682.16,-174.18 4331,-96 4340.37,-94.87 4350.4,-93 4359.66,-90.99"/>
<polygon fill="#63b8ff" stroke="#63b8ff" points="2841.22,-131.41 2832.06,-136.73 2842.54,-138.28 2841.22,-131.41"/>
</g>
<!-- Node238 -->
<g id="node35" class="node">
<title>Node238</title>
<g id="a_node35"><a xlink:href="dvdidutils_8c.html" target="_top" xlink:title=" ">
<polygon fill="white" stroke="#666666" points="4604,-90.5 4468,-90.5 4468,-71.5 4604,-71.5 4604,-90.5"/>
<text text-anchor="middle" x="4536" y="-78.5" font-family="Helvetica,sans-Serif" font-size="10.00">libs/dolphin/dvd/dvdidutils.c</text>
</a>
</g>
</g>
<!-- Node2&#45;&gt;Node238 -->
<g id="edge35" class="edge">
<title>Node2&#45;&gt;Node238</title>
<path fill="none" stroke="#63b8ff" d="M2841.43,-134.92C2847.98,-133.75 2854.63,-132.72 2861,-132 3566.89,-52.05 3752.23,-167.76 4459,-96 4470.22,-94.86 4482.26,-92.99 4493.41,-90.98"/>
<polygon fill="#63b8ff" stroke="#63b8ff" points="2841.22,-131.39 2832.06,-136.72 2842.54,-138.27 2841.22,-131.39"/>
</g>
<!-- Node239 -->
<g id="node36" class="node">
<title>Node239</title>
<g id="a_node36"><a xlink:href="fstload_8c.html" target="_top" xlink:title=" ">
<polygon fill="white" stroke="#666666" points="4746,-90.5 4622,-90.5 4622,-71.5 4746,-71.5 4746,-90.5"/>
<text text-anchor="middle" x="4684" y="-78.5" font-family="Helvetica,sans-Serif" font-size="10.00">libs/dolphin/dvd/fstload.c</text>
</a>
</g>
</g>
<!-- Node2&#45;&gt;Node239 -->
<g id="edge36" class="edge">
<title>Node2&#45;&gt;Node239</title>
<path fill="none" stroke="#63b8ff" d="M2841.19,-134.95C2847.81,-133.76 2854.55,-132.72 2861,-132 3634.97,-45.11 3838.67,-179.65 4613,-96 4623.49,-94.87 4634.74,-92.97 4645.13,-90.93"/>
<polygon fill="#63b8ff" stroke="#63b8ff" points="2840.86,-131.45 2831.7,-136.78 2842.18,-138.32 2840.86,-131.45"/>
</g>
<!-- Node240 -->
<g id="node37" class="node">
<title>Node240</title>
<g id="a_node37"><a xlink:href="Pad_8c.html" target="_top" xlink:title=" ">
<polygon fill="white" stroke="#666666" points="4876,-90.5 4764,-90.5 4764,-71.5 4876,-71.5 4876,-90.5"/>
<text text-anchor="middle" x="4820" y="-78.5" font-family="Helvetica,sans-Serif" font-size="10.00">libs/dolphin/pad/Pad.c</text>
</a>
</g>
</g>
<!-- Node2&#45;&gt;Node240 -->
<g id="edge37" class="edge">
<title>Node2&#45;&gt;Node240</title>
<path fill="none" stroke="#63b8ff" d="M2841.19,-134.94C2847.81,-133.75 2854.55,-132.72 2861,-132 3697.75,-38.72 3918.69,-193.09 4755,-96 4764.63,-94.88 4774.94,-92.99 4784.45,-90.95"/>
<polygon fill="#63b8ff" stroke="#63b8ff" points="2840.86,-131.44 2831.7,-136.77 2842.18,-138.31 2840.86,-131.44"/>
</g>
<!-- Node139 -->
<g id="node38" class="node">
<title>Node139</title>
<g id="a_node38"><a xlink:href="c__dylink_8cpp.html" target="_top" xlink:title=" ">
<polygon fill="white" stroke="#666666" points="4989.5,-90.5 4894.5,-90.5 4894.5,-71.5 4989.5,-71.5 4989.5,-90.5"/>
<text text-anchor="middle" x="4942" y="-78.5" font-family="Helvetica,sans-Serif" font-size="10.00">src/c/c_dylink.cpp</text>
</a>
</g>
</g>
<!-- Node2&#45;&gt;Node139 -->
<g id="edge38" class="edge">
<title>Node2&#45;&gt;Node139</title>
<path fill="none" stroke="#63b8ff" d="M2841.19,-134.93C2847.81,-133.75 2854.55,-132.71 2861,-132 3308.11,-82.43 4438.91,-154.01 4885,-96 4893.49,-94.9 4902.54,-93.01 4910.88,-90.97"/>
<polygon fill="#63b8ff" stroke="#63b8ff" points="2840.86,-131.43 2831.7,-136.76 2842.18,-138.31 2840.86,-131.43"/>
</g>
<!-- Node151 -->
<g id="node39" class="node">
<title>Node151</title>
<g id="a_node39"><a xlink:href="d__eye__hl_8cpp.html" target="_top" xlink:title=" ">
<polygon fill="white" stroke="#666666" points="5106,-90.5 5008,-90.5 5008,-71.5 5106,-71.5 5106,-90.5"/>
<text text-anchor="middle" x="5057" y="-78.5" font-family="Helvetica,sans-Serif" font-size="10.00">src/d/d_eye_hl.cpp</text>
</a>
</g>
</g>
<!-- Node2&#45;&gt;Node151 -->
<g id="edge39" class="edge">
<title>Node2&#45;&gt;Node151</title>
<path fill="none" stroke="#63b8ff" d="M2841.18,-134.93C2847.81,-133.74 2854.55,-132.71 2861,-132 3333.31,-79.86 4527.64,-156.11 4999,-96 5007.63,-94.9 5016.84,-93.01 5025.32,-90.98"/>
<polygon fill="#63b8ff" stroke="#63b8ff" points="2840.86,-131.43 2831.7,-136.75 2842.18,-138.3 2840.86,-131.43"/>
</g>
<!-- Node159 -->
<g id="node40" class="node">
<title>Node159</title>
<g id="a_node40"><a xlink:href="d__name_8cpp.html" target="_top" xlink:title=" ">
<polygon fill="white" stroke="#666666" points="5218,-90.5 5124,-90.5 5124,-71.5 5218,-71.5 5218,-90.5"/>
<text text-anchor="middle" x="5171" y="-78.5" font-family="Helvetica,sans-Serif" font-size="10.00">src/d/d_name.cpp</text>
</a>
</g>
</g>
<!-- Node2&#45;&gt;Node159 -->
<g id="edge40" class="edge">
<title>Node2&#45;&gt;Node159</title>
<path fill="none" stroke="#63b8ff" d="M2841.18,-134.92C2847.81,-133.74 2854.55,-132.71 2861,-132 3358.95,-77.25 4618.31,-161.18 5115,-96 5123.35,-94.9 5132.24,-93.02 5140.43,-90.98"/>
<polygon fill="#63b8ff" stroke="#63b8ff" points="2840.86,-131.42 2831.7,-136.75 2842.18,-138.3 2840.86,-131.42"/>
</g>
<!-- Node161 -->
<g id="node41" class="node">
<title>Node161</title>
<g id="a_node41"><a xlink:href="d__resorce_8cpp.html" target="_top" xlink:title=" ">
<polygon fill="white" stroke="#666666" points="5338,-90.5 5236,-90.5 5236,-71.5 5338,-71.5 5338,-90.5"/>
<text text-anchor="middle" x="5287" y="-78.5" font-family="Helvetica,sans-Serif" font-size="10.00">src/d/d_resorce.cpp</text>
</a>
</g>
</g>
<!-- Node2&#45;&gt;Node161 -->
<g id="edge41" class="edge">
<title>Node2&#45;&gt;Node161</title>
<path fill="none" stroke="#63b8ff" d="M2841.18,-134.92C2847.81,-133.73 2854.55,-132.71 2861,-132 3383.71,-74.73 4705.08,-160.11 5227,-96 5235.92,-94.9 5245.44,-93.02 5254.22,-90.98"/>
<polygon fill="#63b8ff" stroke="#63b8ff" points="2840.86,-131.42 2831.7,-136.74 2842.18,-138.29 2840.86,-131.42"/>
</g>
<!-- Node65 -->
<g id="node42" class="node">
<title>Node65</title>
<g id="a_node42"><a xlink:href="d__kankyo_8cpp.html" target="_top" xlink:title=" ">
<polygon fill="white" stroke="#666666" points="5490,-90.5 5356,-90.5 5356,-71.5 5490,-71.5 5490,-90.5"/>
<text text-anchor="middle" x="5423" y="-78.5" font-family="Helvetica,sans-Serif" font-size="10.00">src/d/kankyo/d_kankyo.cpp</text>
</a>
</g>
</g>
<!-- Node2&#45;&gt;Node65 -->
<g id="edge42" class="edge">
<title>Node2&#45;&gt;Node65</title>
<path fill="none" stroke="#63b8ff" d="M2841.18,-134.91C2847.81,-133.73 2854.55,-132.7 2861,-132 3410.24,-72.03 4797.17,-150.24 5347,-96 5358.22,-94.89 5370.25,-93.01 5381.37,-90.97"/>
<polygon fill="#63b8ff" stroke="#63b8ff" points="2840.86,-131.41 2831.7,-136.74 2842.18,-138.29 2840.86,-131.41"/>
</g>
<!-- Node173 -->
<g id="node43" class="node">
<title>Node173</title>
<g id="a_node43"><a xlink:href="d__kankyo__rain_8cpp.html" target="_top" xlink:title=" ">
<polygon fill="white" stroke="#666666" points="5624,-96 5508,-96 5508,-66 5624,-66 5624,-96"/>
<text text-anchor="start" x="5516" y="-84" font-family="Helvetica,sans-Serif" font-size="10.00">src/d/kankyo/d_kankyo</text>
<text text-anchor="middle" x="5566" y="-73" font-family="Helvetica,sans-Serif" font-size="10.00">_rain.cpp</text>
</a>
</g>
</g>
<!-- Node2&#45;&gt;Node173 -->
<g id="edge43" class="edge">
<title>Node2&#45;&gt;Node173</title>
<path fill="none" stroke="#63b8ff" d="M2841.18,-134.91C2847.81,-133.73 2854.55,-132.7 2861,-132 3443.84,-68.6 4916.25,-160.25 5499,-96 5501.83,-95.69 5504.73,-95.31 5507.64,-94.88"/>
<polygon fill="#63b8ff" stroke="#63b8ff" points="2840.86,-131.41 2831.7,-136.73 2842.18,-138.28 2840.86,-131.41"/>
</g>
<!-- Node174 -->
<g id="node44" class="node">
<title>Node174</title>
<g id="a_node44"><a xlink:href="d__kankyo__wether_8cpp.html" target="_top" xlink:title=" ">
<polygon fill="white" stroke="#666666" points="5758,-96 5642,-96 5642,-66 5758,-66 5758,-96"/>
<text text-anchor="start" x="5650" y="-84" font-family="Helvetica,sans-Serif" font-size="10.00">src/d/kankyo/d_kankyo</text>
<text text-anchor="middle" x="5700" y="-73" font-family="Helvetica,sans-Serif" font-size="10.00">_wether.cpp</text>
</a>
</g>
</g>
<!-- Node2&#45;&gt;Node174 -->
<g id="edge44" class="edge">
<title>Node2&#45;&gt;Node174</title>
<path fill="none" stroke="#63b8ff" d="M2841.18,-134.9C2847.81,-133.72 2854.55,-132.7 2861,-132 3473.46,-65.59 5020.64,-163.32 5633,-96 5635.83,-95.69 5638.73,-95.31 5641.64,-94.89"/>
<polygon fill="#63b8ff" stroke="#63b8ff" points="2840.86,-131.4 2831.7,-136.73 2842.18,-138.28 2840.86,-131.4"/>
</g>
<!-- Node3&#45;&gt;Node27 -->
<g id="edge3" class="edge">
<title>Node3&#45;&gt;Node27</title>
<path fill="none" stroke="#63b8ff" d="M77.23,-56.39C83.28,-47.59 89.97,-37.86 95.26,-30.16"/>
<polygon fill="#63b8ff" stroke="#63b8ff" points="74.4,-54.33 71.62,-64.55 80.17,-58.29 74.4,-54.33"/>
</g>
</g>
</svg>
        <g id="navigator" transform="translate(0 0)" fill="#404254">
                <rect fill="#f2f5e9" fill-opacity="0.5" stroke="#606060" stroke-width=".5" x="0" y="0" width="60" height="60"/>
                <use id="zoomplus" xlink:href="#zoomPlus" x="17" y="9" onmousedown="handleZoom(evt,'in')"/>
                <use id="zoomminus" xlink:href="#zoomMin" x="42" y="9" onmousedown="handleZoom(evt,'out')"/>
                <use id="reset" xlink:href="#resetDef" x="30" y="36" onmousedown="handleReset()"/>
                <g id="arrowUp" xlink:href="#dirArrow" transform="translate(30 24)" onmousedown="handlePan(0,-1)">
                  <use xlink:href="#rim" fill="#404040">
                        <set attributeName="fill" to="#808080" begin="arrowUp.mouseover" end="arrowUp.mouseout"/>
                  </use>
                  <path fill="none" stroke="white" stroke-width="1.5" d="M0,-3.0v7 M-2.5,-0.5L0,-3.0L2.5,-0.5"/>
                </g>
                <g id="arrowRight" xlink:href="#dirArrow" transform="rotate(90) translate(36 -43)" onmousedown="handlePan(1,0)">
                  <use xlink:href="#rim" fill="#404040">
                        <set attributeName="fill" to="#808080" begin="arrowRight.mouseover" end="arrowRight.mouseout"/>
                  </use>
                  <path fill="none" stroke="white" stroke-width="1.5" d="M0,-3.0v7 M-2.5,-0.5L0,-3.0L2.5,-0.5"/>
                </g>
                <g id="arrowDown" xlink:href="#dirArrow" transform="rotate(180) translate(-30 -48)" onmousedown="handlePan(0,1)">
                  <use xlink:href="#rim" fill="#404040">
                        <set attributeName="fill" to="#808080" begin="arrowDown.mouseover" end="arrowDown.mouseout"/>
                  </use>
                  <path fill="none" stroke="white" stroke-width="1.5" d="M0,-3.0v7 M-2.5,-0.5L0,-3.0L2.5,-0.5"/>
                </g>
                <g id="arrowLeft" xlink:href="#dirArrow" transform="rotate(270) translate(-36 17)" onmousedown="handlePan(-1,0)">
                  <use xlink:href="#rim" fill="#404040">
                        <set attributeName="fill" to="#808080" begin="arrowLeft.mouseover" end="arrowLeft.mouseout"/>
                  </use>
                  <path fill="none" stroke="white" stroke-width="1.5" d="M0,-3.0v7 M-2.5,-0.5L0,-3.0L2.5,-0.5"/>
                </g>
        </g>
        <svg viewBox="0 0 15 15" width="100%" height="30px" preserveAspectRatio="xMaxYMin meet">
         <g id="arrow_out" transform="scale(0.3 0.3)">
          <a xlink:href="MSL__Common_2Src_2string_8h__dep__incl_org.svg" target="_base">
           <rect id="button" ry="5" rx="5" y="6" x="6" height="38" width="38"
                fill="#f2f5e9" fill-opacity="0.5" stroke="#606060" stroke-width="1.0"/>
           <path id="arrow"
             d="M 11.500037,31.436501 C 11.940474,20.09759 22.043105,11.32322 32.158766,21.979434 L 37.068811,17.246167 C 37.068811,17.246167 37.088388,32 37.088388,32 L 22.160133,31.978069 C 22.160133,31.978069 26.997745,27.140456 26.997745,27.140456 C 18.528582,18.264221 13.291696,25.230495 11.500037,31.436501 z"
             style="fill:#404040;"/>
          </a>
         </g>
        </svg>
</svg>
