<?xml version="1.0" encoding="UTF-8" standalone="no"?>
<!DOCTYPE svg PUBLIC "-//W3C//DTD SVG 1.1//EN"
 "http://www.w3.org/Graphics/SVG/1.1/DTD/svg11.dtd">
<!-- Generated by graphviz version 7.0.5 (20221223.1930)
 -->
<!-- Title: rel/d/a/obj/d_a_obj_lv6bemos2/unknown_translation_unit_bss.cpp Pages: 1 -->
<svg width="287pt" height="247pt"
 viewBox="0.00 0.00 287.00 247.00" xmlns="http://www.w3.org/2000/svg" xmlns:xlink="http://www.w3.org/1999/xlink">
<g id="graph0" class="graph" transform="scale(1 1) rotate(0) translate(4 243)">
<title>rel/d/a/obj/d_a_obj_lv6bemos2/unknown_translation_unit_bss.cpp</title>
<!-- Node1 -->
<g id="node1" class="node">
<title>Node1</title>
<g id="a_node1"><a xlink:title=" ">
<polygon fill="#999999" stroke="#666666" points="270,-239 109,-239 109,-198 270,-198 270,-239"/>
<text text-anchor="start" x="117" y="-227" font-family="Helvetica,sans-Serif" font-size="10.00">rel/d/a/obj/d_a_obj</text>
<text text-anchor="start" x="117" y="-216" font-family="Helvetica,sans-Serif" font-size="10.00">_lv6bemos2/unknown_translation</text>
<text text-anchor="middle" x="189.5" y="-205" font-family="Helvetica,sans-Serif" font-size="10.00">_unit_bss.cpp</text>
</a>
</g>
</g>
<!-- Node2 -->
<g id="node2" class="node">
<title>Node2</title>
<g id="a_node2"><a xlink:href="obj_2d__a__obj__lv6bemos2_2unknown__translation__unit__bss_8h.html" target="_top" xlink:title=" ">
<polygon fill="white" stroke="#666666" points="161,-162 0,-162 0,-121 161,-121 161,-162"/>
<text text-anchor="start" x="8" y="-150" font-family="Helvetica,sans-Serif" font-size="10.00">rel/d/a/obj/d_a_obj</text>
<text text-anchor="start" x="8" y="-139" font-family="Helvetica,sans-Serif" font-size="10.00">_lv6bemos2/unknown_translation</text>
<text text-anchor="middle" x="80.5" y="-128" font-family="Helvetica,sans-Serif" font-size="10.00">_unit_bss.h</text>
</a>
</g>
</g>
<!-- Node1&#45;&gt;Node2 -->
<g id="edge1" class="edge">
<title>Node1&#45;&gt;Node2</title>
<path fill="none" stroke="#63b8ff" d="M160.58,-197.6C147.77,-188.78 132.52,-178.29 118.78,-168.84"/>
<polygon fill="#63b8ff" stroke="#63b8ff" points="121.03,-166.14 110.81,-163.35 117.06,-171.9 121.03,-166.14"/>
</g>
<!-- Node3 -->
<g id="node3" class="node">
<title>Node3</title>
<g id="a_node3"><a xlink:href="types_8h.html" target="_top" xlink:title=" ">
<polygon fill="white" stroke="#666666" points="175,-85 94,-85 94,-66 175,-66 175,-85"/>
<text text-anchor="middle" x="134.5" y="-73" font-family="Helvetica,sans-Serif" font-size="10.00">dolphin/types.h</text>
</a>
</g>
</g>
<!-- Node1&#45;&gt;Node3 -->
<g id="edge5" class="edge">
<title>Node1&#45;&gt;Node3</title>
<path fill="none" stroke="#63b8ff" d="M188.4,-197.78C186.66,-177.65 182.14,-145.9 170.5,-121 165.89,-111.14 158.64,-101.58 151.85,-93.86"/>
<polygon fill="#63b8ff" stroke="#63b8ff" points="154.42,-91.48 145.04,-86.57 149.31,-96.26 154.42,-91.48"/>
</g>
<!-- Node5 -->
<g id="node5" class="node">
<title>Node5</title>
<g id="a_node5"><a xlink:href="dol2asm_8h.html" target="_top" xlink:title=" ">
<polygon fill="white" stroke="#666666" points="279,-151 218,-151 218,-132 279,-132 279,-151"/>
<text text-anchor="middle" x="248.5" y="-139" font-family="Helvetica,sans-Serif" font-size="10.00">dol2asm.h</text>
</a>
</g>
</g>
<!-- Node1&#45;&gt;Node5 -->
<g id="edge4" class="edge">
<title>Node1&#45;&gt;Node5</title>
<path fill="none" stroke="#63b8ff" d="M205,-197.79C214.19,-186.11 225.74,-171.43 234.63,-160.13"/>
<polygon fill="#63b8ff" stroke="#63b8ff" points="237.26,-162.45 240.69,-152.43 231.76,-158.12 237.26,-162.45"/>
</g>
<!-- Node2&#45;&gt;Node3 -->
<g id="edge2" class="edge">
<title>Node2&#45;&gt;Node3</title>
<path fill="none" stroke="#63b8ff" d="M97.29,-120.6C104.5,-112.06 112.85,-102.16 119.81,-93.91"/>
<polygon fill="#63b8ff" stroke="#63b8ff" points="122.44,-96.22 126.21,-86.32 117.09,-91.71 122.44,-96.22"/>
</g>
<!-- Node4 -->
<g id="node4" class="node">
<title>Node4</title>
<g id="a_node4"><a xlink:href="stddef_8h.html" target="_top" xlink:title=" ">
<polygon fill="white" stroke="#666666" points="202.5,-30 66.5,-30 66.5,0 202.5,0 202.5,-30"/>
<text text-anchor="start" x="74.5" y="-18" font-family="Helvetica,sans-Serif" font-size="10.00">MSL_C/MSL_Common/Src</text>
<text text-anchor="middle" x="134.5" y="-7" font-family="Helvetica,sans-Serif" font-size="10.00">/stddef.h</text>
</a>
</g>
</g>
<!-- Node3&#45;&gt;Node4 -->
<g id="edge3" class="edge">
<title>Node3&#45;&gt;Node4</title>
<path fill="none" stroke="#63b8ff" d="M134.5,-65.87C134.5,-59.4 134.5,-50.2 134.5,-41.45"/>
<polygon fill="#63b8ff" stroke="#63b8ff" points="138,-41.63 134.5,-31.63 131,-41.63 138,-41.63"/>
</g>
</g>
</svg>
