<?xml version="1.0" encoding="UTF-8" standalone="no"?>
<!DOCTYPE svg PUBLIC "-//W3C//DTD SVG 1.1//EN"
 "http://www.w3.org/Graphics/SVG/1.1/DTD/svg11.dtd">
<!-- Generated by graphviz version 7.0.5 (20221223.1930)
 -->
<!-- Title: include/dolphin/os/OSResetSW.h Pages: 1 -->
<svg width="5320pt" height="357pt"
 viewBox="0.00 0.00 5320.00 357.00" xmlns="http://www.w3.org/2000/svg" xmlns:xlink="http://www.w3.org/1999/xlink">
<g id="graph0" class="graph" transform="scale(1 1) rotate(0) translate(4 353)">
<title>include/dolphin/os/OSResetSW.h</title>
<!-- Node1 -->
<g id="node1" class="node">
<title>Node1</title>
<g id="a_node1"><a xlink:title=" ">
<polygon fill="#999999" stroke="#666666" points="2173,-349 2078,-349 2078,-319 2173,-319 2173,-349"/>
<text text-anchor="start" x="2086" y="-337" font-family="Helvetica,sans-Serif" font-size="10.00">include/dolphin/os</text>
<text text-anchor="middle" x="2125.5" y="-326" font-family="Helvetica,sans-Serif" font-size="10.00">/OSResetSW.h</text>
</a>
</g>
</g>
<!-- Node2 -->
<g id="node2" class="node">
<title>Node2</title>
<g id="a_node2"><a xlink:href="OS_8h.html" target="_top" xlink:title=" ">
<polygon fill="#fff0f0" stroke="red" points="2141,-283 2022,-283 2022,-264 2141,-264 2141,-283"/>
<text text-anchor="middle" x="2081.5" y="-271" font-family="Helvetica,sans-Serif" font-size="10.00">include/dolphin/os/OS.h</text>
</a>
</g>
</g>
<!-- Node1&#45;&gt;Node2 -->
<g id="edge1" class="edge">
<title>Node1&#45;&gt;Node2</title>
<path fill="none" stroke="#63b8ff" d="M2107.71,-309.35C2100.76,-300.11 2093.22,-290.09 2088.02,-283.18"/>
<polygon fill="#63b8ff" stroke="#63b8ff" points="2104.91,-311.44 2113.71,-317.33 2110.5,-307.23 2104.91,-311.44"/>
</g>
<!-- Node643 -->
<g id="node50" class="node">
<title>Node643</title>
<g id="a_node50"><a xlink:href="OSResetSW_8c.html" target="_top" xlink:title=" ">
<polygon fill="white" stroke="#666666" points="5312,-222.5 5167,-222.5 5167,-203.5 5312,-203.5 5312,-222.5"/>
<text text-anchor="middle" x="5239.5" y="-210.5" font-family="Helvetica,sans-Serif" font-size="10.00">libs/dolphin/os/OSResetSW.c</text>
</a>
</g>
</g>
<!-- Node1&#45;&gt;Node643 -->
<g id="edge66" class="edge">
<title>Node1&#45;&gt;Node643</title>
<path fill="none" stroke="#63b8ff" d="M2184.7,-331.96C2554.02,-325.3 4545.61,-287.12 5152.5,-228 5164.83,-226.8 5178.07,-224.96 5190.41,-223"/>
<polygon fill="#63b8ff" stroke="#63b8ff" points="2184.7,-328.46 2174.76,-332.14 2184.82,-335.46 2184.7,-328.46"/>
</g>
<!-- Node3 -->
<g id="node3" class="node">
<title>Node3</title>
<g id="a_node3"><a xlink:href="J2DAnimation_8h.html" target="_top" xlink:title=" ">
<polygon fill="#fff0f0" stroke="red" points="5072,-228 4937,-228 4937,-198 5072,-198 5072,-228"/>
<text text-anchor="start" x="4945" y="-216" font-family="Helvetica,sans-Serif" font-size="10.00">include/JSystem/J2DGraph</text>
<text text-anchor="middle" x="5004.5" y="-205" font-family="Helvetica,sans-Serif" font-size="10.00">/J2DAnimation.h</text>
</a>
</g>
</g>
<!-- Node2&#45;&gt;Node3 -->
<g id="edge2" class="edge">
<title>Node2&#45;&gt;Node3</title>
<path fill="none" stroke="#63b8ff" d="M2152.64,-272.09C2565.4,-269.6 4644.21,-255.78 4927.5,-228 4930.47,-227.71 4933.51,-227.36 4936.56,-226.98"/>
<polygon fill="#63b8ff" stroke="#63b8ff" points="2152.69,-268.59 2142.71,-272.15 2152.73,-275.59 2152.69,-268.59"/>
</g>
<!-- Node261 -->
<g id="node4" class="node">
<title>Node261</title>
<g id="a_node4"><a xlink:href="JASAudioReseter_8h.html" target="_top" xlink:title=" ">
<polygon fill="#fff0f0" stroke="red" points="1761,-228 1634,-228 1634,-198 1761,-198 1761,-228"/>
<text text-anchor="start" x="1642" y="-216" font-family="Helvetica,sans-Serif" font-size="10.00">include/JSystem/JAudio2</text>
<text text-anchor="middle" x="1697.5" y="-205" font-family="Helvetica,sans-Serif" font-size="10.00">/JASAudioReseter.h</text>
</a>
</g>
</g>
<!-- Node2&#45;&gt;Node261 -->
<g id="edge3" class="edge">
<title>Node2&#45;&gt;Node261</title>
<path fill="none" stroke="#63b8ff" d="M2010.34,-263.29C1947.21,-254.89 1852.54,-241.73 1770.5,-228 1767.45,-227.49 1764.32,-226.95 1761.17,-226.39"/>
<polygon fill="#63b8ff" stroke="#63b8ff" points="2009.88,-266.76 2020.25,-264.61 2010.8,-259.82 2009.88,-266.76"/>
</g>
<!-- Node342 -->
<g id="node5" class="node">
<title>Node342</title>
<g id="a_node5"><a xlink:href="JASAudioReseter_8cpp.html" target="_top" xlink:title=" ">
<polygon fill="white" stroke="#666666" points="3533,-162 3418,-162 3418,-132 3533,-132 3533,-162"/>
<text text-anchor="start" x="3426" y="-150" font-family="Helvetica,sans-Serif" font-size="10.00">libs/JSystem/JAudio2</text>
<text text-anchor="middle" x="3475.5" y="-139" font-family="Helvetica,sans-Serif" font-size="10.00">/JASAudioReseter.cpp</text>
</a>
</g>
</g>
<!-- Node2&#45;&gt;Node342 -->
<g id="edge40" class="edge">
<title>Node2&#45;&gt;Node342</title>
<path fill="none" stroke="#63b8ff" d="M2152.39,-272.12C2603.34,-269.64 5053.95,-254.94 5080.5,-228 5089.86,-218.5 5089.78,-207.57 5080.5,-198 5053.03,-169.66 3817.76,-152.33 3533.43,-148.71"/>
<polygon fill="#63b8ff" stroke="#63b8ff" points="2152.67,-268.62 2142.69,-272.18 2152.71,-275.62 2152.67,-268.62"/>
</g>
<!-- Node343 -->
<g id="node6" class="node">
<title>Node343</title>
<g id="a_node6"><a xlink:href="JKRAramHeap_8h.html" target="_top" xlink:title=" ">
<polygon fill="#fff0f0" stroke="red" points="125,-228 0,-228 0,-198 125,-198 125,-228"/>
<text text-anchor="start" x="8" y="-216" font-family="Helvetica,sans-Serif" font-size="10.00">include/JSystem/JKernel</text>
<text text-anchor="middle" x="62.5" y="-205" font-family="Helvetica,sans-Serif" font-size="10.00">/JKRAramHeap.h</text>
</a>
</g>
</g>
<!-- Node2&#45;&gt;Node343 -->
<g id="edge5" class="edge">
<title>Node2&#45;&gt;Node343</title>
<path fill="none" stroke="#63b8ff" d="M2010.45,-272.51C1705.74,-272.32 508.05,-268.9 133.5,-228 130.75,-227.7 127.95,-227.35 125.13,-226.96"/>
<polygon fill="#63b8ff" stroke="#63b8ff" points="2010.24,-276.01 2020.24,-272.52 2010.25,-269.01 2010.24,-276.01"/>
</g>
<!-- Node355 -->
<g id="node7" class="node">
<title>Node355</title>
<g id="a_node7"><a xlink:href="JKRAramPiece_8h.html" target="_top" xlink:title=" ">
<polygon fill="#fff0f0" stroke="red" points="268,-228 143,-228 143,-198 268,-198 268,-228"/>
<text text-anchor="start" x="151" y="-216" font-family="Helvetica,sans-Serif" font-size="10.00">include/JSystem/JKernel</text>
<text text-anchor="middle" x="205.5" y="-205" font-family="Helvetica,sans-Serif" font-size="10.00">/JKRAramPiece.h</text>
</a>
</g>
</g>
<!-- Node2&#45;&gt;Node355 -->
<g id="edge6" class="edge">
<title>Node2&#45;&gt;Node355</title>
<path fill="none" stroke="#63b8ff" d="M2010.72,-272.22C1721.24,-270.83 626.57,-263.32 282.5,-228 277.9,-227.53 273.17,-226.93 268.42,-226.26"/>
<polygon fill="#63b8ff" stroke="#63b8ff" points="2010.35,-275.72 2020.37,-272.26 2010.39,-268.72 2010.35,-275.72"/>
</g>
<!-- Node359 -->
<g id="node8" class="node">
<title>Node359</title>
<g id="a_node8"><a xlink:href="JKRDvdFile_8h.html" target="_top" xlink:title=" ">
<polygon fill="#fff0f0" stroke="red" points="359,-96 234,-96 234,-66 359,-66 359,-96"/>
<text text-anchor="start" x="242" y="-84" font-family="Helvetica,sans-Serif" font-size="10.00">include/JSystem/JKernel</text>
<text text-anchor="middle" x="296.5" y="-73" font-family="Helvetica,sans-Serif" font-size="10.00">/JKRDvdFile.h</text>
</a>
</g>
</g>
<!-- Node2&#45;&gt;Node359 -->
<g id="edge7" class="edge">
<title>Node2&#45;&gt;Node359</title>
<path fill="none" stroke="#63b8ff" d="M2010.4,-272.85C1693.49,-274.14 422.26,-276.28 353.5,-228 309.41,-197.04 299.42,-126.63 297.16,-96.32"/>
<polygon fill="#63b8ff" stroke="#63b8ff" points="2010.21,-276.35 2020.19,-272.81 2010.18,-269.35 2010.21,-276.35"/>
</g>
<!-- Node365 -->
<g id="node9" class="node">
<title>Node365</title>
<g id="a_node9"><a xlink:href="JKRDvdArchive_8cpp.html" target="_top" xlink:title=" ">
<polygon fill="white" stroke="#666666" points="493,-30 384,-30 384,0 493,0 493,-30"/>
<text text-anchor="start" x="392" y="-18" font-family="Helvetica,sans-Serif" font-size="10.00">libs/JSystem/JKernel</text>
<text text-anchor="middle" x="438.5" y="-7" font-family="Helvetica,sans-Serif" font-size="10.00">/JKRDvdArchive.cpp</text>
</a>
</g>
</g>
<!-- Node2&#45;&gt;Node365 -->
<g id="edge41" class="edge">
<title>Node2&#45;&gt;Node365</title>
<path fill="none" stroke="#63b8ff" d="M2152.45,-272.13C2605.15,-269.68 5071.79,-255.11 5098.5,-228 5107.86,-218.5 5107.73,-207.63 5098.5,-198 4930.91,-23.15 1004.38,-16.16 493.19,-15.99"/>
<polygon fill="#63b8ff" stroke="#63b8ff" points="2152.69,-268.63 2142.71,-272.18 2152.73,-275.63 2152.69,-268.63"/>
</g>
<!-- Node389 -->
<g id="node10" class="node">
<title>Node389</title>
<g id="a_node10"><a xlink:href="JKRHeap_8h.html" target="_top" xlink:title=" ">
<polygon fill="#fff0f0" stroke="red" points="539,-228 414,-228 414,-198 539,-198 539,-228"/>
<text text-anchor="start" x="422" y="-216" font-family="Helvetica,sans-Serif" font-size="10.00">include/JSystem/JKernel</text>
<text text-anchor="middle" x="476.5" y="-205" font-family="Helvetica,sans-Serif" font-size="10.00">/JKRHeap.h</text>
</a>
</g>
</g>
<!-- Node2&#45;&gt;Node389 -->
<g id="edge9" class="edge">
<title>Node2&#45;&gt;Node389</title>
<path fill="none" stroke="#63b8ff" d="M2010.43,-271.85C1749.08,-269.25 841.53,-258.21 553.5,-228 548.91,-227.52 544.17,-226.92 539.42,-226.24"/>
<polygon fill="#63b8ff" stroke="#63b8ff" points="2010.11,-275.35 2020.14,-271.95 2010.17,-268.35 2010.11,-275.35"/>
</g>
<!-- Node408 -->
<g id="node11" class="node">
<title>Node408</title>
<g id="a_node11"><a xlink:href="JKRThread_8h.html" target="_top" xlink:title=" ">
<polygon fill="#fff0f0" stroke="red" points="488,-162 363,-162 363,-132 488,-132 488,-162"/>
<text text-anchor="start" x="371" y="-150" font-family="Helvetica,sans-Serif" font-size="10.00">include/JSystem/JKernel</text>
<text text-anchor="middle" x="425.5" y="-139" font-family="Helvetica,sans-Serif" font-size="10.00">/JKRThread.h</text>
</a>
</g>
</g>
<!-- Node2&#45;&gt;Node408 -->
<g id="edge14" class="edge">
<title>Node2&#45;&gt;Node408</title>
<path fill="none" stroke="#63b8ff" d="M2010.7,-271.96C1695.36,-269.37 432.94,-257.21 404.5,-228 387.27,-210.31 402.67,-180.27 414.64,-162.47"/>
<polygon fill="#63b8ff" stroke="#63b8ff" points="2010.41,-275.45 2020.44,-272.04 2010.47,-268.45 2010.41,-275.45"/>
</g>
<!-- Node417 -->
<g id="node12" class="node">
<title>Node417</title>
<g id="a_node12"><a xlink:href="JUTException_8h.html" target="_top" xlink:title=" ">
<polygon fill="#fff0f0" stroke="red" points="499.5,-96 377.5,-96 377.5,-66 499.5,-66 499.5,-96"/>
<text text-anchor="start" x="385.5" y="-84" font-family="Helvetica,sans-Serif" font-size="10.00">include/JSystem/JUtility</text>
<text text-anchor="middle" x="438.5" y="-73" font-family="Helvetica,sans-Serif" font-size="10.00">/JUTException.h</text>
</a>
</g>
</g>
<!-- Node2&#45;&gt;Node417 -->
<g id="edge15" class="edge">
<title>Node2&#45;&gt;Node417</title>
<path fill="none" stroke="#63b8ff" d="M2010.68,-272.52C1699.33,-272.36 464.36,-269.15 393.5,-228 353.53,-204.79 330.55,-172.12 353.5,-132 362.85,-115.65 379.86,-104.12 396.22,-96.29"/>
<polygon fill="#63b8ff" stroke="#63b8ff" points="2010.28,-276.02 2020.28,-272.52 2010.29,-269.02 2010.28,-276.02"/>
</g>
<!-- Node452 -->
<g id="node13" class="node">
<title>Node452</title>
<g id="a_node13"><a xlink:href="J3DShapeFactory_8cpp.html" target="_top" xlink:title=" ">
<polygon fill="white" stroke="#666666" points="655,-162 506,-162 506,-132 655,-132 655,-162"/>
<text text-anchor="start" x="514" y="-150" font-family="Helvetica,sans-Serif" font-size="10.00">libs/JSystem/J3DGraphLoader</text>
<text text-anchor="middle" x="580.5" y="-139" font-family="Helvetica,sans-Serif" font-size="10.00">/J3DShapeFactory.cpp</text>
</a>
</g>
</g>
<!-- Node2&#45;&gt;Node452 -->
<g id="edge39" class="edge">
<title>Node2&#45;&gt;Node452</title>
<path fill="none" stroke="#63b8ff" d="M2010.17,-272.48C1723.95,-272.12 671.45,-268.07 613.5,-228 591.87,-213.05 584.39,-181.15 581.83,-162.47"/>
<polygon fill="#63b8ff" stroke="#63b8ff" points="2010.11,-275.98 2020.11,-272.49 2010.11,-268.98 2010.11,-275.98"/>
</g>
<!-- Node456 -->
<g id="node14" class="node">
<title>Node456</title>
<g id="a_node14"><a xlink:href="JUTGamePad_8h.html" target="_top" xlink:title=" ">
<polygon fill="#fff0f0" stroke="red" points="795.5,-162 673.5,-162 673.5,-132 795.5,-132 795.5,-162"/>
<text text-anchor="start" x="681.5" y="-150" font-family="Helvetica,sans-Serif" font-size="10.00">include/JSystem/JUtility</text>
<text text-anchor="middle" x="734.5" y="-139" font-family="Helvetica,sans-Serif" font-size="10.00">/JUTGamePad.h</text>
</a>
</g>
</g>
<!-- Node2&#45;&gt;Node456 -->
<g id="edge16" class="edge">
<title>Node2&#45;&gt;Node456</title>
<path fill="none" stroke="#63b8ff" d="M2010.73,-271.67C1722.22,-268.1 648.9,-253.15 624.5,-228 598.52,-201.22 646.51,-177.02 687.06,-162.42"/>
<polygon fill="#63b8ff" stroke="#63b8ff" points="2010.32,-275.16 2020.36,-271.78 2010.4,-268.16 2010.32,-275.16"/>
</g>
<!-- Node460 -->
<g id="node15" class="node">
<title>Node460</title>
<g id="a_node15"><a xlink:href="JUTVideo_8h.html" target="_top" xlink:title=" ">
<polygon fill="#fff0f0" stroke="red" points="911.5,-228 789.5,-228 789.5,-198 911.5,-198 911.5,-228"/>
<text text-anchor="start" x="797.5" y="-216" font-family="Helvetica,sans-Serif" font-size="10.00">include/JSystem/JUtility</text>
<text text-anchor="middle" x="850.5" y="-205" font-family="Helvetica,sans-Serif" font-size="10.00">/JUTVideo.h</text>
</a>
</g>
</g>
<!-- Node2&#45;&gt;Node460 -->
<g id="edge18" class="edge">
<title>Node2&#45;&gt;Node460</title>
<path fill="none" stroke="#63b8ff" d="M2010.22,-271.25C1791.71,-267.2 1133.16,-253.18 920.5,-228 917.67,-227.66 914.78,-227.28 911.87,-226.85"/>
<polygon fill="#63b8ff" stroke="#63b8ff" points="2009.95,-274.75 2020.01,-271.43 2010.08,-267.75 2009.95,-274.75"/>
</g>
<!-- Node461 -->
<g id="node16" class="node">
<title>Node461</title>
<g id="a_node16"><a xlink:href="d__lib_8h.html" target="_top" xlink:title=" ">
<polygon fill="#fff0f0" stroke="red" points="1015.5,-222.5 929.5,-222.5 929.5,-203.5 1015.5,-203.5 1015.5,-222.5"/>
<text text-anchor="middle" x="972.5" y="-210.5" font-family="Helvetica,sans-Serif" font-size="10.00">include/d/d_lib.h</text>
</a>
</g>
</g>
<!-- Node2&#45;&gt;Node461 -->
<g id="edge19" class="edge">
<title>Node2&#45;&gt;Node461</title>
<path fill="none" stroke="#63b8ff" d="M2010.29,-271.55C1805.12,-268.49 1215.25,-257.32 1024.5,-228 1016.92,-226.84 1008.86,-224.98 1001.41,-223"/>
<polygon fill="#63b8ff" stroke="#63b8ff" points="2009.94,-275.05 2020,-271.69 2010.05,-268.05 2009.94,-275.05"/>
</g>
<!-- Node462 -->
<g id="node17" class="node">
<title>Node462</title>
<g id="a_node17"><a xlink:href="d__save_8h.html" target="_top" xlink:title=" ">
<polygon fill="#fff0f0" stroke="red" points="1155.5,-222.5 1033.5,-222.5 1033.5,-203.5 1155.5,-203.5 1155.5,-222.5"/>
<text text-anchor="middle" x="1094.5" y="-210.5" font-family="Helvetica,sans-Serif" font-size="10.00">include/d/save/d_save.h</text>
</a>
</g>
</g>
<!-- Node2&#45;&gt;Node462 -->
<g id="edge20" class="edge">
<title>Node2&#45;&gt;Node462</title>
<path fill="none" stroke="#63b8ff" d="M2010.38,-272.31C1856.49,-271.18 1481.31,-264.54 1169.5,-228 1158.84,-226.75 1147.42,-224.89 1136.79,-222.93"/>
<polygon fill="#63b8ff" stroke="#63b8ff" points="2009.98,-275.81 2020,-272.37 2010.02,-268.81 2009.98,-275.81"/>
</g>
<!-- Node464 -->
<g id="node18" class="node">
<title>Node464</title>
<g id="a_node18"><a xlink:href="dsp_8h.html" target="_top" xlink:title=" ">
<polygon fill="#fff0f0" stroke="red" points="1349.5,-228 1249.5,-228 1249.5,-198 1349.5,-198 1349.5,-228"/>
<text text-anchor="start" x="1257.5" y="-216" font-family="Helvetica,sans-Serif" font-size="10.00">include/dolphin/dsp</text>
<text text-anchor="middle" x="1299.5" y="-205" font-family="Helvetica,sans-Serif" font-size="10.00">/dsp.h</text>
</a>
</g>
</g>
<!-- Node2&#45;&gt;Node464 -->
<g id="edge21" class="edge">
<title>Node2&#45;&gt;Node464</title>
<path fill="none" stroke="#63b8ff" d="M2010.33,-271.7C1880.95,-269.44 1598.84,-260.83 1363.5,-228 1358.99,-227.37 1354.33,-226.6 1349.68,-225.74"/>
<polygon fill="#63b8ff" stroke="#63b8ff" points="2010.05,-275.2 2020.1,-271.86 2010.16,-268.2 2010.05,-275.2"/>
</g>
<!-- Node470 -->
<g id="node19" class="node">
<title>Node470</title>
<g id="a_node19"><a xlink:href="ai_8c.html" target="_top" xlink:title=" ">
<polygon fill="white" stroke="#666666" points="907.5,-156.5 813.5,-156.5 813.5,-137.5 907.5,-137.5 907.5,-156.5"/>
<text text-anchor="middle" x="860.5" y="-144.5" font-family="Helvetica,sans-Serif" font-size="10.00">libs/dolphin/ai/ai.c</text>
</a>
</g>
</g>
<!-- Node2&#45;&gt;Node470 -->
<g id="edge49" class="edge">
<title>Node2&#45;&gt;Node470</title>
<path fill="none" stroke="#63b8ff" d="M2010.5,-272.77C1744.99,-273.43 823.49,-272.49 780.5,-228 755.18,-201.8 808.56,-171.56 839.88,-156.9"/>
<polygon fill="#63b8ff" stroke="#63b8ff" points="2010.4,-276.27 2020.39,-272.74 2010.38,-269.27 2010.4,-276.27"/>
</g>
<!-- Node471 -->
<g id="node20" class="node">
<title>Node471</title>
<g id="a_node20"><a xlink:href="ar_8c.html" target="_top" xlink:title=" ">
<polygon fill="white" stroke="#666666" points="1021,-156.5 926,-156.5 926,-137.5 1021,-137.5 1021,-156.5"/>
<text text-anchor="middle" x="973.5" y="-144.5" font-family="Helvetica,sans-Serif" font-size="10.00">libs/dolphin/ar/ar.c</text>
</a>
</g>
</g>
<!-- Node2&#45;&gt;Node471 -->
<g id="edge50" class="edge">
<title>Node2&#45;&gt;Node471</title>
<path fill="none" stroke="#63b8ff" d="M2010.44,-271.67C1813.73,-268.98 1271.62,-258.82 1197.5,-228 1179.2,-220.39 1181.92,-207.45 1164.5,-198 1161.02,-196.11 1062.82,-170.84 1008.62,-156.97"/>
<polygon fill="#63b8ff" stroke="#63b8ff" points="2010.22,-275.16 2020.27,-271.8 2010.31,-268.16 2010.22,-275.16"/>
</g>
<!-- Node485 -->
<g id="node21" class="node">
<title>Node485</title>
<g id="a_node21"><a xlink:href="CARDWrite_8c.html" target="_top" xlink:title=" ">
<polygon fill="white" stroke="#666666" points="1186,-156.5 1039,-156.5 1039,-137.5 1186,-137.5 1186,-156.5"/>
<text text-anchor="middle" x="1112.5" y="-144.5" font-family="Helvetica,sans-Serif" font-size="10.00">libs/dolphin/card/CARDWrite.c</text>
</a>
</g>
</g>
<!-- Node2&#45;&gt;Node485 -->
<g id="edge51" class="edge">
<title>Node2&#45;&gt;Node485</title>
<path fill="none" stroke="#63b8ff" d="M2010.19,-270.97C1820.35,-266.58 1312.24,-252.65 1240.5,-228 1218.46,-220.43 1217.11,-210.58 1197.5,-198 1173.87,-182.84 1145.63,-166.58 1128.39,-156.86"/>
<polygon fill="#63b8ff" stroke="#63b8ff" points="2010.09,-274.47 2020.17,-271.2 2010.25,-267.47 2010.09,-274.47"/>
</g>
<!-- Node486 -->
<g id="node22" class="node">
<title>Node486</title>
<g id="a_node22"><a xlink:href="OSAudioSystem_8c.html" target="_top" xlink:title=" ">
<polygon fill="white" stroke="#666666" points="1365,-156.5 1204,-156.5 1204,-137.5 1365,-137.5 1365,-156.5"/>
<text text-anchor="middle" x="1284.5" y="-144.5" font-family="Helvetica,sans-Serif" font-size="10.00">libs/dolphin/os/OSAudioSystem.c</text>
</a>
</g>
</g>
<!-- Node2&#45;&gt;Node486 -->
<g id="edge60" class="edge">
<title>Node2&#45;&gt;Node486</title>
<path fill="none" stroke="#63b8ff" d="M2010.37,-271.1C1866.93,-267.69 1547.66,-257 1442.5,-228 1384.7,-212.06 1323.28,-173.99 1297.29,-156.75"/>
<polygon fill="#63b8ff" stroke="#63b8ff" points="2010.04,-274.59 2020.12,-271.32 2010.2,-267.59 2010.04,-274.59"/>
</g>
<!-- Node487 -->
<g id="node23" class="node">
<title>Node487</title>
<g id="a_node23"><a xlink:href="OSError_8c.html" target="_top" xlink:title=" ">
<polygon fill="white" stroke="#666666" points="1507.5,-156.5 1383.5,-156.5 1383.5,-137.5 1507.5,-137.5 1507.5,-156.5"/>
<text text-anchor="middle" x="1445.5" y="-144.5" font-family="Helvetica,sans-Serif" font-size="10.00">libs/dolphin/os/OSError.c</text>
</a>
</g>
</g>
<!-- Node2&#45;&gt;Node487 -->
<g id="edge63" class="edge">
<title>Node2&#45;&gt;Node487</title>
<path fill="none" stroke="#63b8ff" d="M2010.43,-272.16C1856.31,-270.74 1501.9,-263.62 1461.5,-228 1440.99,-209.92 1442.31,-173.63 1444.2,-156.87"/>
<polygon fill="#63b8ff" stroke="#63b8ff" points="2010.07,-275.65 2020.1,-272.24 2010.13,-268.66 2010.07,-275.65"/>
</g>
<!-- Node488 -->
<g id="node24" class="node">
<title>Node488</title>
<g id="a_node24"><a xlink:href="OSInterrupt_8c.html" target="_top" xlink:title=" ">
<polygon fill="white" stroke="#666666" points="1665.5,-156.5 1525.5,-156.5 1525.5,-137.5 1665.5,-137.5 1665.5,-156.5"/>
<text text-anchor="middle" x="1595.5" y="-144.5" font-family="Helvetica,sans-Serif" font-size="10.00">libs/dolphin/os/OSInterrupt.c</text>
</a>
</g>
</g>
<!-- Node2&#45;&gt;Node488 -->
<g id="edge64" class="edge">
<title>Node2&#45;&gt;Node488</title>
<path fill="none" stroke="#63b8ff" d="M2010.6,-272.61C1857.84,-272.11 1508.48,-266.7 1472.5,-228 1441.97,-195.16 1511.56,-169.66 1558.03,-156.93"/>
<polygon fill="#63b8ff" stroke="#63b8ff" points="2010.17,-276.11 2020.18,-272.64 2010.19,-269.11 2010.17,-276.11"/>
</g>
<!-- Node489 -->
<g id="node25" class="node">
<title>Node489</title>
<g id="a_node25"><a xlink:href="EXIBios_8h.html" target="_top" xlink:title=" ">
<polygon fill="#fff0f0" stroke="red" points="1577.5,-228 1481.5,-228 1481.5,-198 1577.5,-198 1577.5,-228"/>
<text text-anchor="start" x="1489.5" y="-216" font-family="Helvetica,sans-Serif" font-size="10.00">include/dolphin/exi</text>
<text text-anchor="middle" x="1529.5" y="-205" font-family="Helvetica,sans-Serif" font-size="10.00">/EXIBios.h</text>
</a>
</g>
</g>
<!-- Node2&#45;&gt;Node489 -->
<g id="edge28" class="edge">
<title>Node2&#45;&gt;Node489</title>
<path fill="none" stroke="#63b8ff" d="M2010.33,-268.98C1914.66,-263.57 1739.47,-251.32 1591.5,-228 1587.03,-227.3 1582.4,-226.46 1577.78,-225.55"/>
<polygon fill="#63b8ff" stroke="#63b8ff" points="2009.91,-272.46 2020.09,-269.52 2010.3,-265.47 2009.91,-272.46"/>
</g>
<!-- Node490 -->
<g id="node26" class="node">
<title>Node490</title>
<g id="a_node26"><a xlink:href="EXIBios_8c.html" target="_top" xlink:title=" ">
<polygon fill="white" stroke="#666666" points="1809.5,-156.5 1683.5,-156.5 1683.5,-137.5 1809.5,-137.5 1809.5,-156.5"/>
<text text-anchor="middle" x="1746.5" y="-144.5" font-family="Helvetica,sans-Serif" font-size="10.00">libs/dolphin/exi/EXIBios.c</text>
</a>
</g>
</g>
<!-- Node2&#45;&gt;Node490 -->
<g id="edge56" class="edge">
<title>Node2&#45;&gt;Node490</title>
<path fill="none" stroke="#63b8ff" d="M2010.4,-270.72C1888.43,-266.93 1649.89,-255.99 1624.5,-228 1594.63,-195.08 1663.05,-169.7 1709.04,-156.99"/>
<polygon fill="#63b8ff" stroke="#63b8ff" points="2010.22,-274.22 2020.32,-271.02 2010.43,-267.22 2010.22,-274.22"/>
</g>
<!-- Node493 -->
<g id="node27" class="node">
<title>Node493</title>
<g id="a_node27"><a xlink:href="GXFifo_8h.html" target="_top" xlink:title=" ">
<polygon fill="#fff0f0" stroke="red" points="1873.5,-228 1779.5,-228 1779.5,-198 1873.5,-198 1873.5,-228"/>
<text text-anchor="start" x="1787.5" y="-216" font-family="Helvetica,sans-Serif" font-size="10.00">include/dolphin/gx</text>
<text text-anchor="middle" x="1826.5" y="-205" font-family="Helvetica,sans-Serif" font-size="10.00">/GXFifo.h</text>
</a>
</g>
</g>
<!-- Node2&#45;&gt;Node493 -->
<g id="edge31" class="edge">
<title>Node2&#45;&gt;Node493</title>
<path fill="none" stroke="#63b8ff" d="M2028.76,-261.08C1988.6,-252.3 1931.99,-239.72 1882.5,-228 1879.67,-227.33 1876.77,-226.63 1873.84,-225.92"/>
<polygon fill="#63b8ff" stroke="#63b8ff" points="2027.89,-264.48 2038.41,-263.19 2029.38,-257.64 2027.89,-264.48"/>
</g>
<!-- Node621 -->
<g id="node28" class="node">
<title>Node621</title>
<g id="a_node28"><a xlink:href="Pad_8h.html" target="_top" xlink:title=" ">
<polygon fill="#fff0f0" stroke="red" points="733.5,-228 633.5,-228 633.5,-198 733.5,-198 733.5,-228"/>
<text text-anchor="start" x="641.5" y="-216" font-family="Helvetica,sans-Serif" font-size="10.00">include/dolphin/pad</text>
<text text-anchor="middle" x="683.5" y="-205" font-family="Helvetica,sans-Serif" font-size="10.00">/Pad.h</text>
</a>
</g>
</g>
<!-- Node2&#45;&gt;Node621 -->
<g id="edge32" class="edge">
<title>Node2&#45;&gt;Node621</title>
<path fill="none" stroke="#63b8ff" d="M2010.41,-271.84C1770.99,-269.33 995.22,-258.96 747.5,-228 742.99,-227.44 738.32,-226.71 733.66,-225.88"/>
<polygon fill="#63b8ff" stroke="#63b8ff" points="2010.19,-275.33 2020.22,-271.94 2010.26,-268.33 2010.19,-275.33"/>
</g>
<!-- Node624 -->
<g id="node29" class="node">
<title>Node624</title>
<g id="a_node29"><a xlink:href="SIBios_8h.html" target="_top" xlink:title=" ">
<polygon fill="#fff0f0" stroke="red" points="1983.5,-228 1891.5,-228 1891.5,-198 1983.5,-198 1983.5,-228"/>
<text text-anchor="start" x="1899.5" y="-216" font-family="Helvetica,sans-Serif" font-size="10.00">include/dolphin/si</text>
<text text-anchor="middle" x="1937.5" y="-205" font-family="Helvetica,sans-Serif" font-size="10.00">/SIBios.h</text>
</a>
</g>
</g>
<!-- Node2&#45;&gt;Node624 -->
<g id="edge34" class="edge">
<title>Node2&#45;&gt;Node624</title>
<path fill="none" stroke="#63b8ff" d="M2049.2,-259.38C2026.58,-250.19 1996.35,-237.91 1973.04,-228.44"/>
<polygon fill="#63b8ff" stroke="#63b8ff" points="2047.65,-262.52 2058.23,-263.05 2050.28,-256.04 2047.65,-262.52"/>
</g>
<!-- Node625 -->
<g id="node30" class="node">
<title>Node625</title>
<g id="a_node30"><a xlink:href="m__Do__MemCard_8h.html" target="_top" xlink:title=" ">
<polygon fill="#fff0f0" stroke="red" points="2161,-222.5 2002,-222.5 2002,-203.5 2161,-203.5 2161,-222.5"/>
<text text-anchor="middle" x="2081.5" y="-210.5" font-family="Helvetica,sans-Serif" font-size="10.00">include/m_Do/m_Do_MemCard.h</text>
</a>
</g>
</g>
<!-- Node2&#45;&gt;Node625 -->
<g id="edge35" class="edge">
<title>Node2&#45;&gt;Node625</title>
<path fill="none" stroke="#63b8ff" d="M2081.5,-252.66C2081.5,-242.45 2081.5,-230.54 2081.5,-222.67"/>
<polygon fill="#63b8ff" stroke="#63b8ff" points="2078,-252.35 2081.5,-262.35 2085,-252.35 2078,-252.35"/>
</g>
<!-- Node502 -->
<g id="node31" class="node">
<title>Node502</title>
<g id="a_node31"><a xlink:href="J3DModelData_8cpp.html" target="_top" xlink:title=" ">
<polygon fill="white" stroke="#666666" points="2337.5,-228 2179.5,-228 2179.5,-198 2337.5,-198 2337.5,-228"/>
<text text-anchor="start" x="2187.5" y="-216" font-family="Helvetica,sans-Serif" font-size="10.00">libs/JSystem/J3DGraphAnimator</text>
<text text-anchor="middle" x="2258.5" y="-205" font-family="Helvetica,sans-Serif" font-size="10.00">/J3DModelData.cpp</text>
</a>
</g>
</g>
<!-- Node2&#45;&gt;Node502 -->
<g id="edge36" class="edge">
<title>Node2&#45;&gt;Node502</title>
<path fill="none" stroke="#63b8ff" d="M2118.95,-260.12C2146.98,-250.86 2185.38,-238.17 2214.81,-228.44"/>
<polygon fill="#63b8ff" stroke="#63b8ff" points="2118.22,-256.68 2109.82,-263.14 2120.41,-263.33 2118.22,-256.68"/>
</g>
<!-- Node526 -->
<g id="node32" class="node">
<title>Node526</title>
<g id="a_node32"><a xlink:href="J3DShape_8cpp.html" target="_top" xlink:title=" ">
<polygon fill="white" stroke="#666666" points="2497.5,-228 2355.5,-228 2355.5,-198 2497.5,-198 2497.5,-228"/>
<text text-anchor="start" x="2363.5" y="-216" font-family="Helvetica,sans-Serif" font-size="10.00">libs/JSystem/J3DGraphBase</text>
<text text-anchor="middle" x="2426.5" y="-205" font-family="Helvetica,sans-Serif" font-size="10.00">/J3DShape.cpp</text>
</a>
</g>
</g>
<!-- Node2&#45;&gt;Node526 -->
<g id="edge37" class="edge">
<title>Node2&#45;&gt;Node526</title>
<path fill="none" stroke="#63b8ff" d="M2146.64,-261.69C2200.29,-252.75 2278.35,-239.68 2346.5,-228 2349.42,-227.5 2352.4,-226.99 2355.4,-226.47"/>
<polygon fill="#63b8ff" stroke="#63b8ff" points="2146.35,-258.19 2137.06,-263.28 2147.5,-265.09 2146.35,-258.19"/>
</g>
<!-- Node507 -->
<g id="node33" class="node">
<title>Node507</title>
<g id="a_node33"><a xlink:href="J3DSys_8cpp.html" target="_top" xlink:title=" ">
<polygon fill="white" stroke="#666666" points="2657.5,-228 2515.5,-228 2515.5,-198 2657.5,-198 2657.5,-228"/>
<text text-anchor="start" x="2523.5" y="-216" font-family="Helvetica,sans-Serif" font-size="10.00">libs/JSystem/J3DGraphBase</text>
<text text-anchor="middle" x="2586.5" y="-205" font-family="Helvetica,sans-Serif" font-size="10.00">/J3DSys.cpp</text>
</a>
</g>
</g>
<!-- Node2&#45;&gt;Node507 -->
<g id="edge38" class="edge">
<title>Node2&#45;&gt;Node507</title>
<path fill="none" stroke="#63b8ff" d="M2152.75,-266.55C2237.33,-259.14 2382.52,-245.32 2506.5,-228 2509.29,-227.61 2512.14,-227.2 2515.01,-226.76"/>
<polygon fill="#63b8ff" stroke="#63b8ff" points="2152.65,-263.05 2142.99,-267.4 2153.26,-270.02 2152.65,-263.05"/>
</g>
<!-- Node541 -->
<g id="node34" class="node">
<title>Node541</title>
<g id="a_node34"><a xlink:href="JPAChildShape_8cpp.html" target="_top" xlink:title=" ">
<polygon fill="white" stroke="#666666" points="2789.5,-228 2675.5,-228 2675.5,-198 2789.5,-198 2789.5,-228"/>
<text text-anchor="start" x="2683.5" y="-216" font-family="Helvetica,sans-Serif" font-size="10.00">libs/JSystem/JParticle</text>
<text text-anchor="middle" x="2732.5" y="-205" font-family="Helvetica,sans-Serif" font-size="10.00">/JPAChildShape.cpp</text>
</a>
</g>
</g>
<!-- Node2&#45;&gt;Node541 -->
<g id="edge42" class="edge">
<title>Node2&#45;&gt;Node541</title>
<path fill="none" stroke="#63b8ff" d="M2152.46,-270.15C2262.86,-265.81 2482.21,-254.44 2666.5,-228 2669.4,-227.58 2672.36,-227.12 2675.35,-226.61"/>
<polygon fill="#63b8ff" stroke="#63b8ff" points="2152.53,-266.64 2142.67,-270.53 2152.8,-273.64 2152.53,-266.64"/>
</g>
<!-- Node550 -->
<g id="node35" class="node">
<title>Node550</title>
<g id="a_node35"><a xlink:href="JPAExtraShape_8cpp.html" target="_top" xlink:title=" ">
<polygon fill="white" stroke="#666666" points="2921.5,-228 2807.5,-228 2807.5,-198 2921.5,-198 2921.5,-228"/>
<text text-anchor="start" x="2815.5" y="-216" font-family="Helvetica,sans-Serif" font-size="10.00">libs/JSystem/JParticle</text>
<text text-anchor="middle" x="2864.5" y="-205" font-family="Helvetica,sans-Serif" font-size="10.00">/JPAExtraShape.cpp</text>
</a>
</g>
</g>
<!-- Node2&#45;&gt;Node550 -->
<g id="edge43" class="edge">
<title>Node2&#45;&gt;Node550</title>
<path fill="none" stroke="#63b8ff" d="M2152.55,-271.55C2281.72,-269.04 2563.39,-260.05 2798.5,-228 2801.4,-227.6 2804.37,-227.15 2807.35,-226.66"/>
<polygon fill="#63b8ff" stroke="#63b8ff" points="2152.73,-268.04 2142.79,-271.73 2152.86,-275.04 2152.73,-268.04"/>
</g>
<!-- Node597 -->
<g id="node36" class="node">
<title>Node597</title>
<g id="a_node36"><a xlink:href="JUTPalette_8cpp.html" target="_top" xlink:title=" ">
<polygon fill="white" stroke="#666666" points="3045.5,-228 2939.5,-228 2939.5,-198 3045.5,-198 3045.5,-228"/>
<text text-anchor="start" x="2947.5" y="-216" font-family="Helvetica,sans-Serif" font-size="10.00">libs/JSystem/JUtility</text>
<text text-anchor="middle" x="2992.5" y="-205" font-family="Helvetica,sans-Serif" font-size="10.00">/JUTPalette.cpp</text>
</a>
</g>
</g>
<!-- Node2&#45;&gt;Node597 -->
<g id="edge44" class="edge">
<title>Node2&#45;&gt;Node597</title>
<path fill="none" stroke="#63b8ff" d="M2152.72,-272.83C2299.13,-272.63 2644.19,-267.54 2930.5,-228 2933.34,-227.61 2936.25,-227.15 2939.17,-226.65"/>
<polygon fill="#63b8ff" stroke="#63b8ff" points="2152.78,-269.33 2142.78,-272.84 2152.79,-276.33 2152.78,-269.33"/>
</g>
<!-- Node626 -->
<g id="node37" class="node">
<title>Node626</title>
<g id="a_node37"><a xlink:href="uart__console__io__gcn_8c.html" target="_top" xlink:title=" ">
<polygon fill="white" stroke="#666666" points="3197.5,-228 3063.5,-228 3063.5,-198 3197.5,-198 3197.5,-228"/>
<text text-anchor="start" x="3071.5" y="-216" font-family="Helvetica,sans-Serif" font-size="10.00">libs/MSL_C/PPC_EABI</text>
<text text-anchor="middle" x="3130.5" y="-205" font-family="Helvetica,sans-Serif" font-size="10.00">/Src/uart_console_io_gcn.c</text>
</a>
</g>
</g>
<!-- Node2&#45;&gt;Node626 -->
<g id="edge45" class="edge">
<title>Node2&#45;&gt;Node626</title>
<path fill="none" stroke="#63b8ff" d="M2152.4,-272.56C2313.33,-271.99 2718.37,-266.46 3054.5,-228 3057.3,-227.68 3060.15,-227.32 3063.03,-226.92"/>
<polygon fill="#63b8ff" stroke="#63b8ff" points="2152.74,-269.06 2142.75,-272.59 2152.76,-276.06 2152.74,-269.06"/>
</g>
<!-- Node627 -->
<g id="node38" class="node">
<title>Node627</title>
<g id="a_node38"><a xlink:href="GCN__Mem__Alloc_8c.html" target="_top" xlink:title=" ">
<polygon fill="white" stroke="#666666" points="3341,-228 3216,-228 3216,-198 3341,-198 3341,-228"/>
<text text-anchor="start" x="3224" y="-216" font-family="Helvetica,sans-Serif" font-size="10.00">libs/Runtime.PPCEABI.H</text>
<text text-anchor="middle" x="3278.5" y="-205" font-family="Helvetica,sans-Serif" font-size="10.00">/GCN_Mem_Alloc.c</text>
</a>
</g>
</g>
<!-- Node2&#45;&gt;Node627 -->
<g id="edge46" class="edge">
<title>Node2&#45;&gt;Node627</title>
<path fill="none" stroke="#63b8ff" d="M2152.73,-271.11C2366.6,-266.69 3001.08,-251.89 3206.5,-228 3209.54,-227.65 3212.64,-227.24 3215.76,-226.78"/>
<polygon fill="#63b8ff" stroke="#63b8ff" points="2152.79,-267.6 2142.87,-271.31 2152.94,-274.6 2152.79,-267.6"/>
</g>
<!-- Node628 -->
<g id="node39" class="node">
<title>Node628</title>
<g id="a_node39"><a xlink:href="MWCriticalSection__gc_8c.html" target="_top" xlink:title=" ">
<polygon fill="white" stroke="#666666" points="3517.5,-228 3359.5,-228 3359.5,-198 3517.5,-198 3517.5,-228"/>
<text text-anchor="start" x="3367.5" y="-216" font-family="Helvetica,sans-Serif" font-size="10.00">libs/TRK_MINNOW_DOLPHIN</text>
<text text-anchor="middle" x="3438.5" y="-205" font-family="Helvetica,sans-Serif" font-size="10.00">/utils/gc/MWCriticalSection_gc.c</text>
</a>
</g>
</g>
<!-- Node2&#45;&gt;Node628 -->
<g id="edge47" class="edge">
<title>Node2&#45;&gt;Node628</title>
<path fill="none" stroke="#63b8ff" d="M2152.79,-273.01C2345.94,-273.75 2895.3,-271.53 3349.5,-228 3352.77,-227.69 3356.1,-227.33 3359.46,-226.94"/>
<polygon fill="#63b8ff" stroke="#63b8ff" points="2152.93,-269.51 2142.92,-272.97 2152.9,-276.51 2152.93,-269.51"/>
</g>
<!-- Node629 -->
<g id="node40" class="node">
<title>Node629</title>
<g id="a_node40"><a xlink:href="Z2WolfHowlMgr_8cpp.html" target="_top" xlink:title=" ">
<polygon fill="white" stroke="#666666" points="3675.5,-228 3535.5,-228 3535.5,-198 3675.5,-198 3675.5,-228"/>
<text text-anchor="start" x="3543.5" y="-216" font-family="Helvetica,sans-Serif" font-size="10.00">libs/Z2AudioLib/Z2WolfHowl</text>
<text text-anchor="middle" x="3605.5" y="-205" font-family="Helvetica,sans-Serif" font-size="10.00">Mgr.cpp</text>
</a>
</g>
</g>
<!-- Node2&#45;&gt;Node629 -->
<g id="edge48" class="edge">
<title>Node2&#45;&gt;Node629</title>
<path fill="none" stroke="#63b8ff" d="M2152.47,-271.67C2404.43,-268.53 3255.42,-256.04 3526.5,-228 3529.41,-227.7 3532.37,-227.35 3535.36,-226.97"/>
<polygon fill="#63b8ff" stroke="#63b8ff" points="2152.75,-268.17 2142.79,-271.79 2152.83,-275.17 2152.75,-268.17"/>
</g>
<!-- Node630 -->
<g id="node41" class="node">
<title>Node630</title>
<g id="a_node41"><a xlink:href="db_8c.html" target="_top" xlink:title=" ">
<polygon fill="white" stroke="#666666" points="3793.5,-222.5 3693.5,-222.5 3693.5,-203.5 3793.5,-203.5 3793.5,-222.5"/>
<text text-anchor="middle" x="3743.5" y="-210.5" font-family="Helvetica,sans-Serif" font-size="10.00">libs/dolphin/db/db.c</text>
</a>
</g>
</g>
<!-- Node2&#45;&gt;Node630 -->
<g id="edge52" class="edge">
<title>Node2&#45;&gt;Node630</title>
<path fill="none" stroke="#63b8ff" d="M2152.5,-272.46C2422.03,-272.03 3381.92,-267.67 3684.5,-228 3693.16,-226.86 3702.41,-224.99 3710.95,-222.98"/>
<polygon fill="#63b8ff" stroke="#63b8ff" points="2152.82,-268.96 2142.83,-272.48 2152.83,-275.96 2152.82,-268.96"/>
</g>
<!-- Node631 -->
<g id="node42" class="node">
<title>Node631</title>
<g id="a_node42"><a xlink:href="dvd_8c.html" target="_top" xlink:title=" ">
<polygon fill="white" stroke="#666666" points="3921.5,-222.5 3811.5,-222.5 3811.5,-203.5 3921.5,-203.5 3921.5,-222.5"/>
<text text-anchor="middle" x="3866.5" y="-210.5" font-family="Helvetica,sans-Serif" font-size="10.00">libs/dolphin/dvd/dvd.c</text>
</a>
</g>
</g>
<!-- Node2&#45;&gt;Node631 -->
<g id="edge53" class="edge">
<title>Node2&#45;&gt;Node631</title>
<path fill="none" stroke="#63b8ff" d="M2152.47,-272.46C2434.35,-272.01 3475.27,-267.66 3802.5,-228 3811.87,-226.86 3821.89,-224.99 3831.16,-222.98"/>
<polygon fill="#63b8ff" stroke="#63b8ff" points="2152.7,-268.96 2142.71,-272.47 2152.71,-275.96 2152.7,-268.96"/>
</g>
<!-- Node632 -->
<g id="node43" class="node">
<title>Node632</title>
<g id="a_node43"><a xlink:href="dvdfs_8c.html" target="_top" xlink:title=" ">
<polygon fill="white" stroke="#666666" points="4059,-222.5 3940,-222.5 3940,-203.5 4059,-203.5 4059,-222.5"/>
<text text-anchor="middle" x="3999.5" y="-210.5" font-family="Helvetica,sans-Serif" font-size="10.00">libs/dolphin/dvd/dvdfs.c</text>
</a>
</g>
</g>
<!-- Node2&#45;&gt;Node632 -->
<g id="edge54" class="edge">
<title>Node2&#45;&gt;Node632</title>
<path fill="none" stroke="#63b8ff" d="M2152.79,-272.46C2448.11,-272.05 3576.66,-267.84 3930.5,-228 3940.58,-226.86 3951.38,-224.99 3961.37,-222.98"/>
<polygon fill="#63b8ff" stroke="#63b8ff" points="2152.91,-268.96 2142.91,-272.48 2152.92,-275.96 2152.91,-268.96"/>
</g>
<!-- Node633 -->
<g id="node44" class="node">
<title>Node633</title>
<g id="a_node44"><a xlink:href="fstload_8c.html" target="_top" xlink:title=" ">
<polygon fill="white" stroke="#666666" points="4201.5,-222.5 4077.5,-222.5 4077.5,-203.5 4201.5,-203.5 4201.5,-222.5"/>
<text text-anchor="middle" x="4139.5" y="-210.5" font-family="Helvetica,sans-Serif" font-size="10.00">libs/dolphin/dvd/fstload.c</text>
</a>
</g>
</g>
<!-- Node2&#45;&gt;Node633 -->
<g id="edge55" class="edge">
<title>Node2&#45;&gt;Node633</title>
<path fill="none" stroke="#63b8ff" d="M2152.9,-272.52C2461.86,-272.38 3685.16,-269.15 4067.5,-228 4078.01,-226.87 4089.27,-225 4099.69,-222.99"/>
<polygon fill="#63b8ff" stroke="#63b8ff" points="2152.96,-269.02 2142.96,-272.53 2152.96,-276.02 2152.96,-269.02"/>
</g>
<!-- Node634 -->
<g id="node45" class="node">
<title>Node634</title>
<g id="a_node45"><a xlink:href="GDBase_8c.html" target="_top" xlink:title=" ">
<polygon fill="white" stroke="#666666" points="4345.5,-222.5 4219.5,-222.5 4219.5,-203.5 4345.5,-203.5 4345.5,-222.5"/>
<text text-anchor="middle" x="4282.5" y="-210.5" font-family="Helvetica,sans-Serif" font-size="10.00">libs/dolphin/gd/GDBase.c</text>
</a>
</g>
</g>
<!-- Node2&#45;&gt;Node634 -->
<g id="edge57" class="edge">
<title>Node2&#45;&gt;Node634</title>
<path fill="none" stroke="#63b8ff" d="M2152.69,-272.65C2474.85,-273.07 3798.36,-272.05 4210.5,-228 4221.14,-226.86 4232.54,-224.97 4243.07,-222.93"/>
<polygon fill="#63b8ff" stroke="#63b8ff" points="2152.73,-269.15 2142.72,-272.64 2152.72,-276.15 2152.73,-269.15"/>
</g>
<!-- Node635 -->
<g id="node46" class="node">
<title>Node635</title>
<g id="a_node46"><a xlink:href="OS_8c.html" target="_top" xlink:title=" ">
<polygon fill="white" stroke="#666666" points="4467.5,-222.5 4363.5,-222.5 4363.5,-203.5 4467.5,-203.5 4467.5,-222.5"/>
<text text-anchor="middle" x="4415.5" y="-210.5" font-family="Helvetica,sans-Serif" font-size="10.00">libs/dolphin/os/OS.c</text>
</a>
</g>
</g>
<!-- Node2&#45;&gt;Node635 -->
<g id="edge58" class="edge">
<title>Node2&#45;&gt;Node635</title>
<path fill="none" stroke="#63b8ff" d="M2152.79,-271.98C2513.81,-269.22 4131.98,-255.42 4354.5,-228 4363.56,-226.88 4373.24,-224.99 4382.16,-222.96"/>
<polygon fill="#63b8ff" stroke="#63b8ff" points="2152.96,-268.48 2142.99,-272.05 2153.01,-275.48 2152.96,-268.48"/>
</g>
<!-- Node636 -->
<g id="node47" class="node">
<title>Node636</title>
<g id="a_node47"><a xlink:href="OSAlarm_8c.html" target="_top" xlink:title=" ">
<polygon fill="white" stroke="#666666" points="4615,-222.5 4486,-222.5 4486,-203.5 4615,-203.5 4615,-222.5"/>
<text text-anchor="middle" x="4550.5" y="-210.5" font-family="Helvetica,sans-Serif" font-size="10.00">libs/dolphin/os/OSAlarm.c</text>
</a>
</g>
</g>
<!-- Node2&#45;&gt;Node636 -->
<g id="edge59" class="edge">
<title>Node2&#45;&gt;Node636</title>
<path fill="none" stroke="#63b8ff" d="M2152.66,-272.79C2498.79,-273.98 4008.8,-276.24 4476.5,-228 4487.43,-226.87 4499.15,-224.98 4509.97,-222.94"/>
<polygon fill="#63b8ff" stroke="#63b8ff" points="2152.84,-269.3 2142.83,-272.76 2152.82,-276.3 2152.84,-269.3"/>
</g>
<!-- Node637 -->
<g id="node48" class="node">
<title>Node637</title>
<g id="a_node48"><a xlink:href="OSCache_8c.html" target="_top" xlink:title=" ">
<polygon fill="white" stroke="#666666" points="4764,-222.5 4633,-222.5 4633,-203.5 4764,-203.5 4764,-222.5"/>
<text text-anchor="middle" x="4698.5" y="-210.5" font-family="Helvetica,sans-Serif" font-size="10.00">libs/dolphin/os/OSCache.c</text>
</a>
</g>
</g>
<!-- Node2&#45;&gt;Node637 -->
<g id="edge61" class="edge">
<title>Node2&#45;&gt;Node637</title>
<path fill="none" stroke="#63b8ff" d="M2152.61,-271.96C2538.43,-268.97 4372.23,-253.47 4623.5,-228 4634.57,-226.88 4646.45,-224.98 4657.42,-222.95"/>
<polygon fill="#63b8ff" stroke="#63b8ff" points="2152.84,-268.46 2142.87,-272.04 2152.9,-275.46 2152.84,-268.46"/>
</g>
<!-- Node638 -->
<g id="node49" class="node">
<title>Node638</title>
<g id="a_node49"><a xlink:href="OSContext_8c.html" target="_top" xlink:title=" ">
<polygon fill="white" stroke="#666666" points="4919,-222.5 4782,-222.5 4782,-203.5 4919,-203.5 4919,-222.5"/>
<text text-anchor="middle" x="4850.5" y="-210.5" font-family="Helvetica,sans-Serif" font-size="10.00">libs/dolphin/os/OSContext.c</text>
</a>
</g>
</g>
<!-- Node2&#45;&gt;Node638 -->
<g id="edge62" class="edge">
<title>Node2&#45;&gt;Node638</title>
<path fill="none" stroke="#63b8ff" d="M2152.56,-272.01C2551.61,-269.17 4505.48,-254 4772.5,-228 4784,-226.88 4796.35,-224.99 4807.76,-222.95"/>
<polygon fill="#63b8ff" stroke="#63b8ff" points="2152.7,-268.51 2142.72,-272.08 2152.75,-275.51 2152.7,-268.51"/>
</g>
<!-- Node2&#45;&gt;Node643 -->
<g id="edge65" class="edge">
<title>Node2&#45;&gt;Node643</title>
<path fill="none" stroke="#63b8ff" d="M2152.66,-272.09C2584.47,-269.51 4845.21,-254.81 5152.5,-228 5165.3,-226.88 5179.07,-224.99 5191.79,-222.95"/>
<polygon fill="#63b8ff" stroke="#63b8ff" points="2152.8,-268.59 2142.83,-272.15 2152.85,-275.59 2152.8,-268.59"/>
</g>
<!-- Node261&#45;&gt;Node342 -->
<g id="edge4" class="edge">
<title>Node261&#45;&gt;Node342</title>
<path fill="none" stroke="#63b8ff" d="M1772.54,-197.96C2123.34,-161.54 3161.16,-150.64 3417.69,-148.45"/>
<polygon fill="#63b8ff" stroke="#63b8ff" points="1772.19,-194.47 1762.62,-199.02 1772.93,-201.43 1772.19,-194.47"/>
</g>
<!-- Node359&#45;&gt;Node365 -->
<g id="edge8" class="edge">
<title>Node359&#45;&gt;Node365</title>
<path fill="none" stroke="#63b8ff" d="M338.68,-60.99C360.48,-51.16 386.66,-39.36 406.74,-30.31"/>
<polygon fill="#63b8ff" stroke="#63b8ff" points="337.43,-57.72 329.75,-65.02 340.3,-64.1 337.43,-57.72"/>
</g>
<!-- Node389&#45;&gt;Node408 -->
<g id="edge10" class="edge">
<title>Node389&#45;&gt;Node408</title>
<path fill="none" stroke="#63b8ff" d="M458.14,-188.96C451,-180 443.05,-170.03 436.79,-162.16"/>
<polygon fill="#63b8ff" stroke="#63b8ff" points="455.27,-190.97 464.24,-196.61 460.74,-186.61 455.27,-190.97"/>
</g>
<!-- Node389&#45;&gt;Node452 -->
<g id="edge13" class="edge">
<title>Node389&#45;&gt;Node452</title>
<path fill="none" stroke="#63b8ff" d="M509.59,-191.64C525.1,-182.09 543.2,-170.95 557.24,-162.31"/>
<polygon fill="#63b8ff" stroke="#63b8ff" points="507.81,-188.62 501.13,-196.84 511.48,-194.58 507.81,-188.62"/>
</g>
<!-- Node408&#45;&gt;Node417 -->
<g id="edge11" class="edge">
<title>Node408&#45;&gt;Node417</title>
<path fill="none" stroke="#63b8ff" d="M430.64,-120.68C432.34,-112.34 434.16,-103.37 435.62,-96.16"/>
<polygon fill="#63b8ff" stroke="#63b8ff" points="427.25,-119.82 428.69,-130.31 434.11,-121.21 427.25,-119.82"/>
</g>
<!-- Node417&#45;&gt;Node365 -->
<g id="edge12" class="edge">
<title>Node417&#45;&gt;Node365</title>
<path fill="none" stroke="#63b8ff" d="M438.5,-54.39C438.5,-46.13 438.5,-37.28 438.5,-30.16"/>
<polygon fill="#63b8ff" stroke="#63b8ff" points="435,-54.28 438.5,-64.28 442,-54.28 435,-54.28"/>
</g>
<!-- Node456&#45;&gt;Node417 -->
<g id="edge17" class="edge">
<title>Node456&#45;&gt;Node417</title>
<path fill="none" stroke="#63b8ff" d="M662.16,-130.36C612.37,-119.59 546.96,-105.45 499.75,-95.24"/>
<polygon fill="#63b8ff" stroke="#63b8ff" points="661.18,-133.73 671.69,-132.42 662.65,-126.88 661.18,-133.73"/>
</g>
<!-- Node464&#45;&gt;Node470 -->
<g id="edge22" class="edge">
<title>Node464&#45;&gt;Node470</title>
<path fill="none" stroke="#63b8ff" d="M1237.7,-204.81C1145.57,-193.94 976.6,-173.4 916.5,-162 909.12,-160.6 901.25,-158.82 893.82,-157"/>
<polygon fill="#63b8ff" stroke="#63b8ff" points="1237.24,-208.28 1247.58,-205.97 1238.06,-201.33 1237.24,-208.28"/>
</g>
<!-- Node464&#45;&gt;Node471 -->
<g id="edge23" class="edge">
<title>Node464&#45;&gt;Node471</title>
<path fill="none" stroke="#63b8ff" d="M1237.78,-201.69C1182.91,-192.26 1100.61,-177.46 1029.5,-162 1022.55,-160.49 1015.14,-158.74 1008.07,-157"/>
<polygon fill="#63b8ff" stroke="#63b8ff" points="1237.12,-205.13 1247.56,-203.36 1238.3,-198.23 1237.12,-205.13"/>
</g>
<!-- Node464&#45;&gt;Node485 -->
<g id="edge24" class="edge">
<title>Node464&#45;&gt;Node485</title>
<path fill="none" stroke="#63b8ff" d="M1246.93,-194.01C1211.65,-181.93 1166.7,-166.55 1138.76,-156.99"/>
<polygon fill="#63b8ff" stroke="#63b8ff" points="1245.51,-197.22 1256.1,-197.15 1247.77,-190.6 1245.51,-197.22"/>
</g>
<!-- Node464&#45;&gt;Node486 -->
<g id="edge25" class="edge">
<title>Node464&#45;&gt;Node486</title>
<path fill="none" stroke="#63b8ff" d="M1293.54,-186.59C1291.08,-176.06 1288.37,-164.53 1286.57,-156.84"/>
<polygon fill="#63b8ff" stroke="#63b8ff" points="1290.14,-187.39 1295.83,-196.32 1296.95,-185.79 1290.14,-187.39"/>
</g>
<!-- Node464&#45;&gt;Node487 -->
<g id="edge26" class="edge">
<title>Node464&#45;&gt;Node487</title>
<path fill="none" stroke="#63b8ff" d="M1342.7,-193.06C1369.89,-181.14 1403.75,-166.3 1425,-156.99"/>
<polygon fill="#63b8ff" stroke="#63b8ff" points="1341.4,-189.81 1333.65,-197.03 1344.22,-196.22 1341.4,-189.81"/>
</g>
<!-- Node464&#45;&gt;Node488 -->
<g id="edge27" class="edge">
<title>Node464&#45;&gt;Node488</title>
<path fill="none" stroke="#63b8ff" d="M1360.91,-198.72C1418.78,-186.21 1503.91,-167.8 1554.13,-156.94"/>
<polygon fill="#63b8ff" stroke="#63b8ff" points="1360.23,-195.29 1351.19,-200.82 1361.71,-202.13 1360.23,-195.29"/>
</g>
<!-- Node489&#45;&gt;Node488 -->
<g id="edge30" class="edge">
<title>Node489&#45;&gt;Node488</title>
<path fill="none" stroke="#63b8ff" d="M1552.25,-189.94C1563.96,-178.58 1577.6,-165.36 1586.38,-156.84"/>
<polygon fill="#63b8ff" stroke="#63b8ff" points="1549.98,-187.27 1545.23,-196.74 1554.85,-192.29 1549.98,-187.27"/>
</g>
<!-- Node489&#45;&gt;Node490 -->
<g id="edge29" class="edge">
<title>Node489&#45;&gt;Node490</title>
<path fill="none" stroke="#63b8ff" d="M1588.95,-194.47C1630.21,-182.3 1683.45,-166.59 1716.27,-156.92"/>
<polygon fill="#63b8ff" stroke="#63b8ff" points="1587.98,-191.1 1579.38,-197.29 1589.96,-197.82 1587.98,-191.1"/>
</g>
<!-- Node621&#45;&gt;Node456 -->
<g id="edge33" class="edge">
<title>Node621&#45;&gt;Node456</title>
<path fill="none" stroke="#63b8ff" d="M701.86,-188.96C709,-180 716.95,-170.03 723.21,-162.16"/>
<polygon fill="#63b8ff" stroke="#63b8ff" points="699.26,-186.61 695.76,-196.61 704.73,-190.97 699.26,-186.61"/>
</g>
</g>
</svg>
