<?xml version="1.0" encoding="UTF-8" standalone="no"?>
<!DOCTYPE svg PUBLIC "-//W3C//DTD SVG 1.1//EN"
 "http://www.w3.org/Graphics/SVG/1.1/DTD/svg11.dtd">
<!-- Generated by graphviz version 9.0.0 (20230911.1827)
 -->
<!-- Title: include/dolphin/base/PPCArch.h Pages: 1 -->
<!--zoomable 116 -->

<svg id="main" version="1.1" xmlns="http://www.w3.org/2000/svg" xmlns:xlink="http://www.w3.org/1999/xlink" xml:space="preserve" onload="init(evt)">
<style type="text/css"><![CDATA[
.node, .edge {opacity: 0.7;}
.node.selected, .edge.selected {opacity: 1;}
.edge:hover path { stroke: red; }
.edge:hover polygon { stroke: red; fill: red; }
]]></style>

<defs>
  <circle id="rim" cx="0" cy="0" r="7"/>
  <circle id="rim2" cx="0" cy="0" r="3.5"/>
  <g id="zoomPlus">
    <use xlink:href="#rim" fill="#404040"><set attributeName="fill" to="#808080" begin="zoomplus.mouseover" end="zoomplus.mouseout"/></use>
    <path d="M-4,0h8M0,-4v8" fill="none" stroke="white" stroke-width="1.5" pointer-events="none"/>
  </g>
  <g id="zoomMin">
    <use xlink:href="#rim" fill="#404040"><set attributeName="fill" to="#808080" begin="zoomminus.mouseover" end="zoomminus.mouseout"/></use>
    <path d="M-4,0h8" fill="none" stroke="white" stroke-width="1.5" pointer-events="none"/>
  </g>
  <g id="arrowUp" transform="translate(30 24)">
    <use xlink:href="#rim"/>
    <path pointer-events="none" fill="none" stroke="white" stroke-width="1.5" d="M0,-3.0v7 M-2.5,-0.5L0,-3.0L2.5,-0.5"/>
  </g>
  <g id="arrowRight" transform="rotate(90) translate(36 -43)">
    <use xlink:href="#rim"/>
    <path pointer-events="none" fill="none" stroke="white" stroke-width="1.5" d="M0,-3.0v7 M-2.5,-0.5L0,-3.0L2.5,-0.5"/>
  </g>
  <g id="arrowDown" transform="rotate(180) translate(-30 -48)">
    <use xlink:href="#rim"/>
    <path pointer-events="none" fill="none" stroke="white" stroke-width="1.5" d="M0,-3.0v7 M-2.5,-0.5L0,-3.0L2.5,-0.5"/>
  </g>
  <g id="arrowLeft" transform="rotate(270) translate(-36 17)">
    <use xlink:href="#rim"/>
    <path pointer-events="none" fill="none" stroke="white" stroke-width="1.5" d="M0,-3.0v7 M-2.5,-0.5L0,-3.0L2.5,-0.5"/>
  </g>
  <g id="resetDef">
    <use xlink:href="#rim2" fill="#404040"><set attributeName="fill" to="#808080" begin="reset.mouseover" end="reset.mouseout"/></use>
  </g>
</defs>
<script type="application/ecmascript">
var viewWidth = 1690;
var viewHeight = 116;
var sectionId = 'dynsection-1';
</script>
<script type="application/ecmascript" xlink:href="svg.min.js"/>
<svg id="graph" class="graph">
<g id="viewport">
<title>include/dolphin/base/PPCArch.h</title>
<!-- Node1 -->
<g id="Node000001" class="node">
<title>Node1</title>
<g id="a_Node000001"><a xlink:title=" ">
<polygon fill="#999999" stroke="#666666" points="895.88,-108.25 791.38,-108.25 791.38,-77.75 895.88,-77.75 895.88,-108.25"/>
<text text-anchor="start" x="799.38" y="-94.75" font-family="Helvetica,sans-Serif" font-size="10.00">include/dolphin/base</text>
<text text-anchor="middle" x="843.62" y="-83.5" font-family="Helvetica,sans-Serif" font-size="10.00">/PPCArch.h</text>
</a>
</g>
</g>
<!-- Node2 -->
<g id="Node000002" class="node">
<title>Node2</title>
<g id="a_Node000002"><a xlink:href="J3DTransform_8cpp.html" target="_top" xlink:title=" ">
<polygon fill="white" stroke="#666666" points="141.25,-36.12 0,-36.12 0,-5.62 141.25,-5.62 141.25,-36.12"/>
<text text-anchor="start" x="8" y="-22.62" font-family="Helvetica,sans-Serif" font-size="10.00">libs/JSystem/J3DGraphBase</text>
<text text-anchor="middle" x="70.62" y="-11.38" font-family="Helvetica,sans-Serif" font-size="10.00">/J3DTransform.cpp</text>
</a>
</g>
</g>
<!-- Node1&#45;&gt;Node2 -->
<g id="edge1_Node000001_Node000002" class="edge">
<title>Node1&#45;&gt;Node2</title>
<g id="a_edge1_Node000001_Node000002"><a xlink:title=" ">
<path fill="none" stroke="#63b8ff" d="M779.63,-91.08C656.75,-88.5 379.56,-78.71 149.62,-41.75 141.25,-40.4 132.46,-38.6 123.91,-36.62"/>
<polygon fill="#63b8ff" stroke="#63b8ff" points="779.45,-94.58 789.52,-91.28 779.59,-87.58 779.45,-94.58"/>
</a>
</g>
</g>
<!-- Node3 -->
<g id="Node000003" class="node">
<title>Node3</title>
<g id="a_Node000003"><a xlink:href="JUTException_8cpp.html" target="_top" xlink:title=" ">
<polygon fill="white" stroke="#666666" points="264.25,-36.12 159,-36.12 159,-5.62 264.25,-5.62 264.25,-36.12"/>
<text text-anchor="start" x="167" y="-22.62" font-family="Helvetica,sans-Serif" font-size="10.00">libs/JSystem/JUtility</text>
<text text-anchor="middle" x="211.62" y="-11.38" font-family="Helvetica,sans-Serif" font-size="10.00">/JUTException.cpp</text>
</a>
</g>
</g>
<!-- Node1&#45;&gt;Node3 -->
<g id="edge2_Node000001_Node000003" class="edge">
<title>Node1&#45;&gt;Node3</title>
<g id="a_edge2_Node000001_Node000003"><a xlink:title=" ">
<path fill="none" stroke="#63b8ff" d="M779.75,-90.98C673.64,-88.26 454.78,-78.3 273.62,-41.75 266.87,-40.39 259.81,-38.54 252.98,-36.53"/>
<polygon fill="#63b8ff" stroke="#63b8ff" points="779.61,-94.48 789.69,-91.22 779.78,-87.48 779.61,-94.48"/>
</a>
</g>
</g>
<!-- Node4 -->
<g id="Node000004" class="node">
<title>Node4</title>
<g id="a_Node000004"><a xlink:href="dolphin__trk__glue_8c.html" target="_top" xlink:title=" ">
<polygon fill="white" stroke="#666666" points="434.5,-41.75 282.75,-41.75 282.75,0 434.5,0 434.5,-41.75"/>
<text text-anchor="start" x="290.75" y="-28.25" font-family="Helvetica,sans-Serif" font-size="10.00">libs/TRK_MINNOW_DOLPHIN</text>
<text text-anchor="start" x="290.75" y="-17" font-family="Helvetica,sans-Serif" font-size="10.00">/Os/dolphin/dolphin_trk</text>
<text text-anchor="middle" x="358.62" y="-5.75" font-family="Helvetica,sans-Serif" font-size="10.00">_glue.c</text>
</a>
</g>
</g>
<!-- Node1&#45;&gt;Node4 -->
<g id="edge3_Node000001_Node000004" class="edge">
<title>Node1&#45;&gt;Node4</title>
<g id="a_edge3_Node000001_Node000004"><a xlink:title=" ">
<path fill="none" stroke="#63b8ff" d="M779.7,-86.05C700.47,-78.21 561.49,-62.87 443.62,-41.75 440.64,-41.22 437.61,-40.64 434.54,-40.04"/>
<polygon fill="#63b8ff" stroke="#63b8ff" points="779.14,-89.52 789.44,-87.01 779.83,-82.55 779.14,-89.52"/>
</a>
</g>
</g>
<!-- Node5 -->
<g id="Node000005" class="node">
<title>Node5</title>
<g id="a_Node000005"><a xlink:href="ar_8c.html" target="_top" xlink:title=" ">
<polygon fill="white" stroke="#666666" points="547,-30.5 452.25,-30.5 452.25,-11.25 547,-11.25 547,-30.5"/>
<text text-anchor="middle" x="499.62" y="-17" font-family="Helvetica,sans-Serif" font-size="10.00">libs/dolphin/ar/ar.c</text>
</a>
</g>
</g>
<!-- Node1&#45;&gt;Node5 -->
<g id="edge4_Node000001_Node000005" class="edge">
<title>Node1&#45;&gt;Node5</title>
<g id="a_edge4_Node000001_Node000005"><a xlink:title=" ">
<path fill="none" stroke="#63b8ff" d="M779.69,-83.99C720.88,-75.89 631.56,-61.7 555.62,-41.75 544.55,-38.84 532.55,-34.72 522.51,-30.98"/>
<polygon fill="#63b8ff" stroke="#63b8ff" points="779.15,-87.45 789.53,-85.33 780.09,-80.51 779.15,-87.45"/>
</a>
</g>
</g>
<!-- Node6 -->
<g id="Node000006" class="node">
<title>Node6</title>
<g id="a_Node000006"><a xlink:href="PPCArch_8c.html" target="_top" xlink:title=" ">
<polygon fill="white" stroke="#666666" points="704.5,-30.5 564.75,-30.5 564.75,-11.25 704.5,-11.25 704.5,-30.5"/>
<text text-anchor="middle" x="634.62" y="-17" font-family="Helvetica,sans-Serif" font-size="10.00">libs/dolphin/base/PPCArch.c</text>
</a>
</g>
</g>
<!-- Node1&#45;&gt;Node6 -->
<g id="edge5_Node000001_Node000006" class="edge">
<title>Node1&#45;&gt;Node6</title>
<g id="a_edge5_Node000001_Node000006"><a xlink:title=" ">
<path fill="none" stroke="#63b8ff" d="M788.93,-73.65C748.04,-59.93 693.87,-41.75 661.79,-30.99"/>
<polygon fill="#63b8ff" stroke="#63b8ff" points="787.78,-76.96 798.38,-76.82 790.01,-70.32 787.78,-76.96"/>
</a>
</g>
</g>
<!-- Node7 -->
<g id="Node000007" class="node">
<title>Node7</title>
<g id="a_Node000007"><a xlink:href="GXInit_8c.html" target="_top" xlink:title=" ">
<polygon fill="white" stroke="#666666" points="838.5,-30.5 722.75,-30.5 722.75,-11.25 838.5,-11.25 838.5,-30.5"/>
<text text-anchor="middle" x="780.62" y="-17" font-family="Helvetica,sans-Serif" font-size="10.00">libs/dolphin/gx/GXInit.c</text>
</a>
</g>
</g>
<!-- Node1&#45;&gt;Node7 -->
<g id="edge6_Node000001_Node000007" class="edge">
<title>Node1&#45;&gt;Node7</title>
<g id="a_edge6_Node000001_Node000007"><a xlink:title=" ">
<path fill="none" stroke="#63b8ff" d="M822.88,-68.91C811.11,-55.81 797.06,-40.17 788.49,-30.63"/>
<polygon fill="#63b8ff" stroke="#63b8ff" points="820.27,-71.24 829.56,-76.34 825.48,-66.57 820.27,-71.24"/>
</a>
</g>
</g>
<!-- Node8 -->
<g id="Node000008" class="node">
<title>Node8</title>
<g id="a_Node000008"><a xlink:href="OS_8c.html" target="_top" xlink:title=" ">
<polygon fill="white" stroke="#666666" points="959.12,-30.5 856.12,-30.5 856.12,-11.25 959.12,-11.25 959.12,-30.5"/>
<text text-anchor="middle" x="907.62" y="-17" font-family="Helvetica,sans-Serif" font-size="10.00">libs/dolphin/os/OS.c</text>
</a>
</g>
</g>
<!-- Node1&#45;&gt;Node8 -->
<g id="edge7_Node000001_Node000008" class="edge">
<title>Node1&#45;&gt;Node8</title>
<g id="a_edge7_Node000001_Node000008"><a xlink:title=" ">
<path fill="none" stroke="#63b8ff" d="M864.35,-69.29C876.38,-56.11 890.85,-40.26 899.63,-30.63"/>
<polygon fill="#63b8ff" stroke="#63b8ff" points="862.06,-66.61 857.91,-76.35 867.23,-71.33 862.06,-66.61"/>
</a>
</g>
</g>
<!-- Node9 -->
<g id="Node000009" class="node">
<title>Node9</title>
<g id="a_Node000009"><a xlink:href="OSCache_8c.html" target="_top" xlink:title=" ">
<polygon fill="white" stroke="#666666" points="1108,-30.5 977.25,-30.5 977.25,-11.25 1108,-11.25 1108,-30.5"/>
<text text-anchor="middle" x="1042.62" y="-17" font-family="Helvetica,sans-Serif" font-size="10.00">libs/dolphin/os/OSCache.c</text>
</a>
</g>
</g>
<!-- Node1&#45;&gt;Node9 -->
<g id="edge8_Node000001_Node000009" class="edge">
<title>Node1&#45;&gt;Node9</title>
<g id="a_edge8_Node000001_Node000009"><a xlink:title=" ">
<path fill="none" stroke="#63b8ff" d="M895.95,-73.56C934.86,-59.85 986.28,-41.73 1016.76,-30.99"/>
<polygon fill="#63b8ff" stroke="#63b8ff" points="895.04,-70.17 886.77,-76.8 897.36,-76.77 895.04,-70.17"/>
</a>
</g>
</g>
<!-- Node10 -->
<g id="Node000010" class="node">
<title>Node10</title>
<g id="a_Node000010"><a xlink:href="OSError_8c.html" target="_top" xlink:title=" ">
<polygon fill="white" stroke="#666666" points="1249.25,-30.5 1126,-30.5 1126,-11.25 1249.25,-11.25 1249.25,-30.5"/>
<text text-anchor="middle" x="1187.62" y="-17" font-family="Helvetica,sans-Serif" font-size="10.00">libs/dolphin/os/OSError.c</text>
</a>
</g>
</g>
<!-- Node1&#45;&gt;Node10 -->
<g id="edge9_Node000001_Node000010" class="edge">
<title>Node1&#45;&gt;Node10</title>
<g id="a_edge9_Node000001_Node000010"><a xlink:title=" ">
<path fill="none" stroke="#63b8ff" d="M907.34,-81.96C962.88,-72.8 1045.47,-58.22 1116.62,-41.75 1130.09,-38.63 1144.83,-34.61 1157.38,-31"/>
<polygon fill="#63b8ff" stroke="#63b8ff" points="907.05,-78.46 897.75,-83.53 908.18,-85.37 907.05,-78.46"/>
</a>
</g>
</g>
<!-- Node11 -->
<g id="Node000011" class="node">
<title>Node11</title>
<g id="a_Node000011"><a xlink:href="____ppc__eabi__init_8cpp.html" target="_top" xlink:title=" ">
<polygon fill="white" stroke="#666666" points="1374.38,-36.12 1266.88,-36.12 1266.88,-5.62 1374.38,-5.62 1374.38,-36.12"/>
<text text-anchor="start" x="1274.88" y="-22.62" font-family="Helvetica,sans-Serif" font-size="10.00">libs/dolphin/os/__ppc</text>
<text text-anchor="middle" x="1320.62" y="-11.38" font-family="Helvetica,sans-Serif" font-size="10.00">_eabi_init.cpp</text>
</a>
</g>
</g>
<!-- Node1&#45;&gt;Node11 -->
<g id="edge10_Node000001_Node000011" class="edge">
<title>Node1&#45;&gt;Node11</title>
<g id="a_edge10_Node000001_Node000011"><a xlink:title=" ">
<path fill="none" stroke="#63b8ff" d="M907.63,-88.03C989.69,-82.09 1136.02,-68.57 1258.62,-41.75 1265.14,-40.32 1271.95,-38.5 1278.56,-36.54"/>
<polygon fill="#63b8ff" stroke="#63b8ff" points="907.48,-84.53 897.75,-88.73 907.97,-91.52 907.48,-84.53"/>
</a>
</g>
</g>
<!-- Node12 -->
<g id="Node000012" class="node">
<title>Node12</title>
<g id="a_Node000012"><a xlink:href="m__Do__graphic_8cpp.html" target="_top" xlink:title=" ">
<polygon fill="white" stroke="#666666" points="1533.25,-30.5 1392,-30.5 1392,-11.25 1533.25,-11.25 1533.25,-30.5"/>
<text text-anchor="middle" x="1462.62" y="-17" font-family="Helvetica,sans-Serif" font-size="10.00">src/m_Do/m_Do_graphic.cpp</text>
</a>
</g>
</g>
<!-- Node1&#45;&gt;Node12 -->
<g id="edge11_Node000001_Node000012" class="edge">
<title>Node1&#45;&gt;Node12</title>
<g id="a_edge11_Node000001_Node000012"><a xlink:title=" ">
<path fill="none" stroke="#63b8ff" d="M907.37,-89.24C1008.8,-84.15 1212.95,-70.98 1383.62,-41.75 1399.52,-39.03 1416.92,-34.79 1431.34,-30.92"/>
<polygon fill="#63b8ff" stroke="#63b8ff" points="907.43,-85.74 897.62,-89.72 907.77,-92.73 907.43,-85.74"/>
</a>
</g>
</g>
<!-- Node13 -->
<g id="Node000013" class="node">
<title>Node13</title>
<g id="a_Node000013"><a xlink:href="m__Do__printf_8cpp.html" target="_top" xlink:title=" ">
<polygon fill="white" stroke="#666666" points="1682.38,-30.5 1550.88,-30.5 1550.88,-11.25 1682.38,-11.25 1682.38,-30.5"/>
<text text-anchor="middle" x="1616.62" y="-17" font-family="Helvetica,sans-Serif" font-size="10.00">src/m_Do/m_Do_printf.cpp</text>
</a>
</g>
</g>
<!-- Node1&#45;&gt;Node13 -->
<g id="edge12_Node000001_Node000013" class="edge">
<title>Node1&#45;&gt;Node13</title>
<g id="a_edge12_Node000001_Node000013"><a xlink:title=" ">
<path fill="none" stroke="#63b8ff" d="M907.67,-91.46C1031.3,-89.53 1311.05,-80.81 1542.62,-41.75 1557.84,-39.18 1574.46,-34.86 1588.09,-30.9"/>
<polygon fill="#63b8ff" stroke="#63b8ff" points="907.67,-87.96 897.72,-91.61 907.77,-94.96 907.67,-87.96"/>
</a>
</g>
</g>
</g>
</svg>

<g id="navigator" transform="translate(0 0)" fill="#404254">
  <rect fill="#f2f5e9" fill-opacity="0.5" stroke="#606060" stroke-width=".5" x="0" y="0" width="60" height="60"/>
  <use id="zoomplus" xlink:href="#zoomPlus" x="17" y="9" onmousedown="handleZoom(evt,'in')"/>
  <use id="zoomminus" xlink:href="#zoomMin" x="42" y="9" onmousedown="handleZoom(evt,'out')"/>
  <use id="reset" xlink:href="#resetDef" x="30" y="36" onmousedown="handleReset()"/>
   <use id="arrowup" xlink:href="#arrowUp" x="0" y="0" onmousedown="handlePan(0,-1)"/>
  <use id="arrowright" xlink:href="#arrowRight" x="0" y="0" onmousedown="handlePan(1,0)"/>
  <use id="arrowdown" xlink:href="#arrowDown" x="0" y="0" onmousedown="handlePan(0,1)"/>
  <use id="arrowleft" xlink:href="#arrowLeft" x="0" y="0" onmousedown="handlePan(-1,0)"/>
</g>
<svg viewBox="0 0 15 15" width="100%" height="30px" preserveAspectRatio="xMaxYMin meet">
 <g id="arrow_out" transform="scale(0.3 0.3)">
  <a xlink:href="PPCArch_8h__dep__incl_org.svg" target="_base">
   <rect id="button" ry="5" rx="5" y="6" x="6" height="38" width="38"
        fill="#f2f5e9" fill-opacity="0.5" stroke="#606060" stroke-width="1.0"/>
   <path id="arrow"
     d="M 11.500037,31.436501 C 11.940474,20.09759 22.043105,11.32322 32.158766,21.979434 L 37.068811,17.246167 C 37.068811,17.246167 37.088388,32 37.088388,32 L 22.160133,31.978069 C 22.160133,31.978069 26.997745,27.140456 26.997745,27.140456 C 18.528582,18.264221 13.291696,25.230495 11.500037,31.436501 z"
     style="fill:#404040;"/>
  </a>
 </g>
</svg>

<style type='text/css'>
<![CDATA[
[data-mouse-over-selected='false'] { opacity: 0.7; }
[data-mouse-over-selected='true']  { opacity: 1.0; }
]]>
</style>
<script type="application/ecmascript"><![CDATA[
document.addEventListener('DOMContentLoaded', (event) => {
  highlightEdges();
  highlightAdjacentNodes();
});
]]></script>
</svg>
