<?xml version="1.0" encoding="UTF-8" standalone="no"?>
<!DOCTYPE svg PUBLIC "-//W3C//DTD SVG 1.1//EN"
 "http://www.w3.org/Graphics/SVG/1.1/DTD/svg11.dtd">
<!-- Generated by graphviz version 7.0.5 (20221223.1930)
 -->
<!-- Title: include/MSL_C/MSL_Common/Src/printf.h Pages: 1 -->
<svg width="2588pt" height="643pt"
 viewBox="0.00 0.00 2588.00 643.00" xmlns="http://www.w3.org/2000/svg" xmlns:xlink="http://www.w3.org/1999/xlink">
<g id="graph0" class="graph" transform="scale(1 1) rotate(0) translate(4 639)">
<title>include/MSL_C/MSL_Common/Src/printf.h</title>
<!-- Node1 -->
<g id="node1" class="node">
<title>Node1</title>
<g id="a_node1"><a xlink:title=" ">
<polygon fill="#999999" stroke="#666666" points="1951.5,-635 1799.5,-635 1799.5,-605 1951.5,-605 1951.5,-635"/>
<text text-anchor="start" x="1807.5" y="-623" font-family="Helvetica,sans-Serif" font-size="10.00">include/MSL_C/MSL_Common</text>
<text text-anchor="middle" x="1875.5" y="-612" font-family="Helvetica,sans-Serif" font-size="10.00">/Src/printf.h</text>
</a>
</g>
</g>
<!-- Node2 -->
<g id="node2" class="node">
<title>Node2</title>
<g id="a_node2"><a xlink:href="J2DPrint_8h.html" target="_top" xlink:title=" ">
<polygon fill="white" stroke="#666666" points="337,-569 202,-569 202,-539 337,-539 337,-569"/>
<text text-anchor="start" x="210" y="-557" font-family="Helvetica,sans-Serif" font-size="10.00">include/JSystem/J2DGraph</text>
<text text-anchor="middle" x="269.5" y="-546" font-family="Helvetica,sans-Serif" font-size="10.00">/J2DPrint.h</text>
</a>
</g>
</g>
<!-- Node1&#45;&gt;Node2 -->
<g id="edge1" class="edge">
<title>Node1&#45;&gt;Node2</title>
<path fill="none" stroke="#63b8ff" d="M1787.96,-615.51C1501.09,-604.08 593.13,-567.9 337.23,-557.7"/>
<polygon fill="#63b8ff" stroke="#63b8ff" points="1787.48,-618.99 1797.61,-615.9 1787.75,-612 1787.48,-618.99"/>
</g>
<!-- Node8 -->
<g id="node8" class="node">
<title>Node8</title>
<g id="a_node8"><a xlink:href="d__save_8h.html" target="_top" xlink:title=" ">
<polygon fill="white" stroke="#666666" points="1153.5,-563.5 1031.5,-563.5 1031.5,-544.5 1153.5,-544.5 1153.5,-563.5"/>
<text text-anchor="middle" x="1092.5" y="-551.5" font-family="Helvetica,sans-Serif" font-size="10.00">include/d/save/d_save.h</text>
</a>
</g>
</g>
<!-- Node1&#45;&gt;Node8 -->
<g id="edge7" class="edge">
<title>Node1&#45;&gt;Node8</title>
<path fill="none" stroke="#63b8ff" d="M1788.15,-611.86C1628.23,-598.79 1292.17,-571.32 1153.91,-560.02"/>
<polygon fill="#63b8ff" stroke="#63b8ff" points="1787.59,-615.33 1797.85,-612.65 1788.16,-608.35 1787.59,-615.33"/>
</g>
<!-- Node171 -->
<g id="node30" class="node">
<title>Node171</title>
<g id="a_node30"><a xlink:href="m__Do__MemCardRWmng_8cpp.html" target="_top" xlink:title=" ">
<polygon fill="white" stroke="#666666" points="2554,-156.5 2367,-156.5 2367,-137.5 2554,-137.5 2554,-156.5"/>
<text text-anchor="middle" x="2460.5" y="-144.5" font-family="Helvetica,sans-Serif" font-size="10.00">src/m_Do/m_Do_MemCardRWmng.cpp</text>
</a>
</g>
</g>
<!-- Node1&#45;&gt;Node171 -->
<g id="edge72" class="edge">
<title>Node1&#45;&gt;Node171</title>
<path fill="none" stroke="#63b8ff" d="M1787.91,-617.33C1697.76,-613.75 1565.4,-602.71 1528.5,-569 1501.52,-544.35 1509.5,-525.54 1509.5,-489 1509.5,-489 1509.5,-489 1509.5,-278 1509.5,-277.3 2178.72,-186.29 2394.38,-156.98"/>
<polygon fill="#63b8ff" stroke="#63b8ff" points="1787.6,-620.82 1797.73,-617.69 1787.86,-613.82 1787.6,-620.82"/>
</g>
<!-- Node236 -->
<g id="node42" class="node">
<title>Node236</title>
<g id="a_node42"><a xlink:href="m__Do__printf_8h.html" target="_top" xlink:title=" ">
<polygon fill="white" stroke="#666666" points="1677,-563.5 1538,-563.5 1538,-544.5 1677,-544.5 1677,-563.5"/>
<text text-anchor="middle" x="1607.5" y="-551.5" font-family="Helvetica,sans-Serif" font-size="10.00">include/m_Do/m_Do_printf.h</text>
</a>
</g>
</g>
<!-- Node1&#45;&gt;Node236 -->
<g id="edge63" class="edge">
<title>Node1&#45;&gt;Node236</title>
<path fill="none" stroke="#63b8ff" d="M1804.03,-601.93C1752.9,-589.72 1686.1,-573.77 1645.03,-563.96"/>
<polygon fill="#63b8ff" stroke="#63b8ff" points="1803.01,-605.29 1813.55,-604.21 1804.64,-598.48 1803.01,-605.29"/>
</g>
<!-- Node238 -->
<g id="node44" class="node">
<title>Node238</title>
<g id="a_node44"><a xlink:href="JKRThread_8cpp.html" target="_top" xlink:title=" ">
<polygon fill="white" stroke="#666666" points="1804,-569 1695,-569 1695,-539 1804,-539 1804,-569"/>
<text text-anchor="start" x="1703" y="-557" font-family="Helvetica,sans-Serif" font-size="10.00">libs/JSystem/JKernel</text>
<text text-anchor="middle" x="1749.5" y="-546" font-family="Helvetica,sans-Serif" font-size="10.00">/JKRThread.cpp</text>
</a>
</g>
</g>
<!-- Node1&#45;&gt;Node238 -->
<g id="edge65" class="edge">
<title>Node1&#45;&gt;Node238</title>
<path fill="none" stroke="#63b8ff" d="M1837.02,-599.45C1817.88,-589.73 1795.17,-578.2 1777.68,-569.31"/>
<polygon fill="#63b8ff" stroke="#63b8ff" points="1835.37,-602.54 1845.87,-603.95 1838.54,-596.3 1835.37,-602.54"/>
</g>
<!-- Node239 -->
<g id="node45" class="node">
<title>Node239</title>
<g id="a_node45"><a xlink:href="JUTConsole_8cpp.html" target="_top" xlink:title=" ">
<polygon fill="white" stroke="#666666" points="1928.5,-569 1822.5,-569 1822.5,-539 1928.5,-539 1928.5,-569"/>
<text text-anchor="start" x="1830.5" y="-557" font-family="Helvetica,sans-Serif" font-size="10.00">libs/JSystem/JUtility</text>
<text text-anchor="middle" x="1875.5" y="-546" font-family="Helvetica,sans-Serif" font-size="10.00">/JUTConsole.cpp</text>
</a>
</g>
</g>
<!-- Node1&#45;&gt;Node239 -->
<g id="edge66" class="edge">
<title>Node1&#45;&gt;Node239</title>
<path fill="none" stroke="#63b8ff" d="M1875.5,-593.39C1875.5,-585.13 1875.5,-576.28 1875.5,-569.16"/>
<polygon fill="#63b8ff" stroke="#63b8ff" points="1872,-593.28 1875.5,-603.28 1879,-593.28 1872,-593.28"/>
</g>
<!-- Node240 -->
<g id="node46" class="node">
<title>Node240</title>
<g id="a_node46"><a xlink:href="JUTDbPrint_8cpp.html" target="_top" xlink:title=" ">
<polygon fill="white" stroke="#666666" points="2052.5,-569 1946.5,-569 1946.5,-539 2052.5,-539 2052.5,-569"/>
<text text-anchor="start" x="1954.5" y="-557" font-family="Helvetica,sans-Serif" font-size="10.00">libs/JSystem/JUtility</text>
<text text-anchor="middle" x="1999.5" y="-546" font-family="Helvetica,sans-Serif" font-size="10.00">/JUTDbPrint.cpp</text>
</a>
</g>
</g>
<!-- Node1&#45;&gt;Node240 -->
<g id="edge67" class="edge">
<title>Node1&#45;&gt;Node240</title>
<path fill="none" stroke="#63b8ff" d="M1913.37,-599.45C1932.2,-589.73 1954.55,-578.2 1971.76,-569.31"/>
<polygon fill="#63b8ff" stroke="#63b8ff" points="1911.95,-596.25 1904.67,-603.94 1915.16,-602.47 1911.95,-596.25"/>
</g>
<!-- Node241 -->
<g id="node47" class="node">
<title>Node241</title>
<g id="a_node47"><a xlink:href="JUTDirectPrint_8cpp.html" target="_top" xlink:title=" ">
<polygon fill="white" stroke="#666666" points="2176.5,-569 2070.5,-569 2070.5,-539 2176.5,-539 2176.5,-569"/>
<text text-anchor="start" x="2078.5" y="-557" font-family="Helvetica,sans-Serif" font-size="10.00">libs/JSystem/JUtility</text>
<text text-anchor="middle" x="2123.5" y="-546" font-family="Helvetica,sans-Serif" font-size="10.00">/JUTDirectPrint.cpp</text>
</a>
</g>
</g>
<!-- Node1&#45;&gt;Node241 -->
<g id="edge68" class="edge">
<title>Node1&#45;&gt;Node241</title>
<path fill="none" stroke="#63b8ff" d="M1942.49,-601.71C1982.61,-591.36 2032.9,-578.38 2070.29,-568.73"/>
<polygon fill="#63b8ff" stroke="#63b8ff" points="1941.74,-598.29 1932.93,-604.18 1943.49,-605.07 1941.74,-598.29"/>
</g>
<!-- Node242 -->
<g id="node48" class="node">
<title>Node242</title>
<g id="a_node48"><a xlink:href="JUTException_8cpp.html" target="_top" xlink:title=" ">
<polygon fill="white" stroke="#666666" points="2300.5,-569 2194.5,-569 2194.5,-539 2300.5,-539 2300.5,-569"/>
<text text-anchor="start" x="2202.5" y="-557" font-family="Helvetica,sans-Serif" font-size="10.00">libs/JSystem/JUtility</text>
<text text-anchor="middle" x="2247.5" y="-546" font-family="Helvetica,sans-Serif" font-size="10.00">/JUTException.cpp</text>
</a>
</g>
</g>
<!-- Node1&#45;&gt;Node242 -->
<g id="edge69" class="edge">
<title>Node1&#45;&gt;Node242</title>
<path fill="none" stroke="#63b8ff" d="M1963.19,-606.34C2025.41,-597 2110.8,-583.44 2185.5,-569 2188.32,-568.46 2191.2,-567.88 2194.11,-567.28"/>
<polygon fill="#63b8ff" stroke="#63b8ff" points="1962.72,-602.87 1953.35,-607.81 1963.76,-609.8 1962.72,-602.87"/>
</g>
<!-- Node243 -->
<g id="node49" class="node">
<title>Node243</title>
<g id="a_node49"><a xlink:href="printf_8c.html" target="_top" xlink:title=" ">
<polygon fill="white" stroke="#666666" points="2454.5,-569 2318.5,-569 2318.5,-539 2454.5,-539 2454.5,-569"/>
<text text-anchor="start" x="2326.5" y="-557" font-family="Helvetica,sans-Serif" font-size="10.00">libs/MSL_C/MSL_Common</text>
<text text-anchor="middle" x="2386.5" y="-546" font-family="Helvetica,sans-Serif" font-size="10.00">/Src/printf.c</text>
</a>
</g>
</g>
<!-- Node1&#45;&gt;Node243 -->
<g id="edge70" class="edge">
<title>Node1&#45;&gt;Node243</title>
<path fill="none" stroke="#63b8ff" d="M1962.99,-610.61C2050.8,-601.79 2189.83,-586.75 2309.5,-569 2312.32,-568.58 2315.2,-568.14 2318.1,-567.67"/>
<polygon fill="#63b8ff" stroke="#63b8ff" points="1962.85,-607.11 1953.25,-611.58 1963.55,-614.07 1962.85,-607.11"/>
</g>
<!-- Node244 -->
<g id="node50" class="node">
<title>Node244</title>
<g id="a_node50"><a xlink:href="DynamicLink_8cpp.html" target="_top" xlink:title=" ">
<polygon fill="white" stroke="#666666" points="2580,-563.5 2473,-563.5 2473,-544.5 2580,-544.5 2580,-563.5"/>
<text text-anchor="middle" x="2526.5" y="-551.5" font-family="Helvetica,sans-Serif" font-size="10.00">src/DynamicLink.cpp</text>
</a>
</g>
</g>
<!-- Node1&#45;&gt;Node244 -->
<g id="edge71" class="edge">
<title>Node1&#45;&gt;Node244</title>
<path fill="none" stroke="#63b8ff" d="M1962.72,-615.24C2077.91,-609.43 2286.84,-596.02 2463.5,-569 2472.14,-567.68 2481.36,-565.86 2490.01,-563.98"/>
<polygon fill="#63b8ff" stroke="#63b8ff" points="1962.86,-611.72 1953.04,-615.72 1963.2,-618.72 1962.86,-611.72"/>
</g>
<!-- Node3 -->
<g id="node3" class="node">
<title>Node3</title>
<g id="a_node3"><a xlink:href="J2DTextBoxEx_8h.html" target="_top" xlink:title=" ">
<polygon fill="white" stroke="#666666" points="409,-503 274,-503 274,-473 409,-473 409,-503"/>
<text text-anchor="start" x="282" y="-491" font-family="Helvetica,sans-Serif" font-size="10.00">include/JSystem/J2DGraph</text>
<text text-anchor="middle" x="341.5" y="-480" font-family="Helvetica,sans-Serif" font-size="10.00">/J2DTextBoxEx.h</text>
</a>
</g>
</g>
<!-- Node2&#45;&gt;Node3 -->
<g id="edge2" class="edge">
<title>Node2&#45;&gt;Node3</title>
<path fill="none" stroke="#63b8ff" d="M293.78,-531.42C304.17,-522.18 316.02,-511.65 325.32,-503.39"/>
<polygon fill="#63b8ff" stroke="#63b8ff" points="291.76,-528.53 286.61,-537.79 296.41,-533.76 291.76,-528.53"/>
</g>
<!-- Node6 -->
<g id="node6" class="node">
<title>Node6</title>
<g id="a_node6"><a xlink:href="J2DPrint_8cpp.html" target="_top" xlink:title=" ">
<polygon fill="white" stroke="#666666" points="119,-503 0,-503 0,-473 119,-473 119,-503"/>
<text text-anchor="start" x="8" y="-491" font-family="Helvetica,sans-Serif" font-size="10.00">libs/JSystem/J2DGraph</text>
<text text-anchor="middle" x="59.5" y="-480" font-family="Helvetica,sans-Serif" font-size="10.00">/J2DPrint.cpp</text>
</a>
</g>
</g>
<!-- Node2&#45;&gt;Node6 -->
<g id="edge5" class="edge">
<title>Node2&#45;&gt;Node6</title>
<path fill="none" stroke="#63b8ff" d="M211.26,-535.25C178.32,-525.21 137.66,-512.82 106.72,-503.39"/>
<polygon fill="#63b8ff" stroke="#63b8ff" points="210.08,-538.55 220.66,-538.12 212.12,-531.85 210.08,-538.55"/>
</g>
<!-- Node7 -->
<g id="node7" class="node">
<title>Node7</title>
<g id="a_node7"><a xlink:href="J2DTextBox_8cpp.html" target="_top" xlink:title=" ">
<polygon fill="white" stroke="#666666" points="256,-503 137,-503 137,-473 256,-473 256,-503"/>
<text text-anchor="start" x="145" y="-491" font-family="Helvetica,sans-Serif" font-size="10.00">libs/JSystem/J2DGraph</text>
<text text-anchor="middle" x="196.5" y="-480" font-family="Helvetica,sans-Serif" font-size="10.00">/J2DTextBox.cpp</text>
</a>
</g>
</g>
<!-- Node2&#45;&gt;Node7 -->
<g id="edge6" class="edge">
<title>Node2&#45;&gt;Node7</title>
<path fill="none" stroke="#63b8ff" d="M244.89,-531.42C234.35,-522.18 222.33,-511.65 212.91,-503.39"/>
<polygon fill="#63b8ff" stroke="#63b8ff" points="242.33,-533.84 252.16,-537.8 246.95,-528.57 242.33,-533.84"/>
</g>
<!-- Node4 -->
<g id="node4" class="node">
<title>Node4</title>
<g id="a_node4"><a xlink:href="J2DScreen_8cpp.html" target="_top" xlink:title=" ">
<polygon fill="white" stroke="#666666" points="264,-437 145,-437 145,-407 264,-407 264,-437"/>
<text text-anchor="start" x="153" y="-425" font-family="Helvetica,sans-Serif" font-size="10.00">libs/JSystem/J2DGraph</text>
<text text-anchor="middle" x="204.5" y="-414" font-family="Helvetica,sans-Serif" font-size="10.00">/J2DScreen.cpp</text>
</a>
</g>
</g>
<!-- Node3&#45;&gt;Node4 -->
<g id="edge3" class="edge">
<title>Node3&#45;&gt;Node4</title>
<path fill="none" stroke="#63b8ff" d="M300.52,-467.86C279.54,-458.05 254.42,-446.32 235.14,-437.31"/>
<polygon fill="#63b8ff" stroke="#63b8ff" points="298.84,-470.94 309.38,-472 301.8,-464.59 298.84,-470.94"/>
</g>
<!-- Node5 -->
<g id="node5" class="node">
<title>Node5</title>
<g id="a_node5"><a xlink:href="J2DTextBoxEx_8cpp.html" target="_top" xlink:title=" ">
<polygon fill="white" stroke="#666666" points="401,-437 282,-437 282,-407 401,-407 401,-437"/>
<text text-anchor="start" x="290" y="-425" font-family="Helvetica,sans-Serif" font-size="10.00">libs/JSystem/J2DGraph</text>
<text text-anchor="middle" x="341.5" y="-414" font-family="Helvetica,sans-Serif" font-size="10.00">/J2DTextBoxEx.cpp</text>
</a>
</g>
</g>
<!-- Node3&#45;&gt;Node5 -->
<g id="edge4" class="edge">
<title>Node3&#45;&gt;Node5</title>
<path fill="none" stroke="#63b8ff" d="M341.5,-461.39C341.5,-453.13 341.5,-444.28 341.5,-437.16"/>
<polygon fill="#63b8ff" stroke="#63b8ff" points="338,-461.28 341.5,-471.28 345,-461.28 338,-461.28"/>
</g>
<!-- Node9 -->
<g id="node9" class="node">
<title>Node9</title>
<g id="a_node9"><a xlink:href="d__a__player_8h.html" target="_top" xlink:title=" ">
<polygon fill="white" stroke="#666666" points="968,-431.5 847,-431.5 847,-412.5 968,-412.5 968,-431.5"/>
<text text-anchor="middle" x="907.5" y="-419.5" font-family="Helvetica,sans-Serif" font-size="10.00">include/d/a/d_a_player.h</text>
</a>
</g>
</g>
<!-- Node8&#45;&gt;Node9 -->
<g id="edge8" class="edge">
<title>Node8&#45;&gt;Node9</title>
<path fill="none" stroke="#63b8ff" d="M1070.61,-537.62C1031.66,-510.25 951.49,-453.91 920.3,-432"/>
<polygon fill="#63b8ff" stroke="#63b8ff" points="1068.35,-540.31 1078.55,-543.19 1072.38,-534.58 1068.35,-540.31"/>
</g>
<!-- Node11 -->
<g id="node11" class="node">
<title>Node11</title>
<g id="a_node11"><a xlink:href="d__com__inf__game_8h.html" target="_top" xlink:title=" ">
<polygon fill="#fff0f0" stroke="red" points="1428.5,-228 1318.5,-228 1318.5,-198 1428.5,-198 1428.5,-228"/>
<text text-anchor="start" x="1326.5" y="-216" font-family="Helvetica,sans-Serif" font-size="10.00">include/d/com/d_com</text>
<text text-anchor="middle" x="1373.5" y="-205" font-family="Helvetica,sans-Serif" font-size="10.00">_inf_game.h</text>
</a>
</g>
</g>
<!-- Node8&#45;&gt;Node11 -->
<g id="edge48" class="edge">
<title>Node8&#45;&gt;Node11</title>
<path fill="none" stroke="#63b8ff" d="M1165.16,-543.19C1275.22,-526.25 1471.5,-487.08 1471.5,-423 1471.5,-423 1471.5,-423 1471.5,-349.5 1471.5,-310.47 1474.02,-295.87 1451.5,-264 1440.54,-248.5 1423.12,-236.67 1407.51,-228.41"/>
<polygon fill="#63b8ff" stroke="#63b8ff" points="1164.68,-539.72 1155.31,-544.67 1165.72,-546.64 1164.68,-539.72"/>
</g>
<!-- Node17 -->
<g id="node14" class="node">
<title>Node17</title>
<g id="a_node14"><a xlink:href="d__meter2__info_8cpp.html" target="_top" xlink:title=" ">
<polygon fill="white" stroke="#666666" points="1023.5,-30 913.5,-30 913.5,0 1023.5,0 1023.5,-30"/>
<text text-anchor="start" x="921.5" y="-18" font-family="Helvetica,sans-Serif" font-size="10.00">src/d/meter/d_meter2</text>
<text text-anchor="middle" x="968.5" y="-7" font-family="Helvetica,sans-Serif" font-size="10.00">_info.cpp</text>
</a>
</g>
</g>
<!-- Node8&#45;&gt;Node17 -->
<g id="edge60" class="edge">
<title>Node8&#45;&gt;Node17</title>
<path fill="none" stroke="#63b8ff" d="M1045.64,-541.31C894.47,-503.3 429.5,-383.74 429.5,-351.5 429.5,-351.5 429.5,-351.5 429.5,-146 429.5,-96.64 775.56,-42.92 913.1,-23.51"/>
<polygon fill="#63b8ff" stroke="#63b8ff" points="1044.36,-544.6 1054.92,-543.64 1046.07,-537.81 1044.36,-544.6"/>
</g>
<!-- Node60 -->
<g id="node29" class="node">
<title>Node60</title>
<g id="a_node29"><a xlink:href="d__save_8cpp.html" target="_top" xlink:title=" ">
<polygon fill="white" stroke="#666666" points="573,-156.5 458,-156.5 458,-137.5 573,-137.5 573,-156.5"/>
<text text-anchor="middle" x="515.5" y="-144.5" font-family="Helvetica,sans-Serif" font-size="10.00">src/d/save/d_save.cpp</text>
</a>
</g>
</g>
<!-- Node8&#45;&gt;Node60 -->
<g id="edge62" class="edge">
<title>Node8&#45;&gt;Node60</title>
<path fill="none" stroke="#63b8ff" d="M1019.58,-551.71C867.28,-548.35 526.15,-537.08 486.5,-503 458.79,-479.18 467.5,-459.54 467.5,-423 467.5,-423 467.5,-423 467.5,-278 467.5,-229.64 497.09,-177.08 509.81,-156.73"/>
<polygon fill="#63b8ff" stroke="#63b8ff" points="1019.51,-555.21 1029.58,-551.93 1019.66,-548.21 1019.51,-555.21"/>
</g>
<!-- Node212 -->
<g id="node33" class="node">
<title>Node212</title>
<g id="a_node33"><a xlink:href="d__attention_8h.html" target="_top" xlink:title=" ">
<polygon fill="#fff0f0" stroke="red" points="1285.5,-360 1171.5,-360 1171.5,-341 1285.5,-341 1285.5,-360"/>
<text text-anchor="middle" x="1228.5" y="-348" font-family="Helvetica,sans-Serif" font-size="10.00">include/d/d_attention.h</text>
</a>
</g>
</g>
<!-- Node8&#45;&gt;Node212 -->
<g id="edge49" class="edge">
<title>Node8&#45;&gt;Node212</title>
<path fill="none" stroke="#63b8ff" d="M1143.03,-540.94C1192.19,-526.03 1263.2,-495.17 1289.5,-437 1294.99,-424.85 1294.89,-419.19 1289.5,-407 1280.29,-386.18 1258.99,-369.81 1244.17,-360.4"/>
<polygon fill="#63b8ff" stroke="#63b8ff" points="1142.36,-537.49 1133.73,-543.64 1144.31,-544.22 1142.36,-537.49"/>
</g>
<!-- Node189 -->
<g id="node34" class="node">
<title>Node189</title>
<g id="a_node34"><a xlink:href="d__event_8h.html" target="_top" xlink:title=" ">
<polygon fill="#fff0f0" stroke="red" points="1153.5,-360 1025.5,-360 1025.5,-341 1153.5,-341 1153.5,-360"/>
<text text-anchor="middle" x="1089.5" y="-348" font-family="Helvetica,sans-Serif" font-size="10.00">include/d/event/d_event.h</text>
</a>
</g>
</g>
<!-- Node8&#45;&gt;Node189 -->
<g id="edge57" class="edge">
<title>Node8&#45;&gt;Node189</title>
<path fill="none" stroke="#63b8ff" d="M1082.87,-533.89C1078.8,-524.78 1074.54,-513.59 1072.5,-503 1062.19,-449.46 1079.48,-383.99 1086.63,-360.45"/>
<polygon fill="#63b8ff" stroke="#63b8ff" points="1079.62,-535.21 1087.08,-542.74 1085.94,-532.2 1079.62,-535.21"/>
</g>
<!-- Node216 -->
<g id="node37" class="node">
<title>Node216</title>
<g id="a_node37"><a xlink:href="d__stage_8h.html" target="_top" xlink:title=" ">
<polygon fill="#fff0f0" stroke="red" points="1183,-497.5 1082,-497.5 1082,-478.5 1183,-478.5 1183,-497.5"/>
<text text-anchor="middle" x="1132.5" y="-485.5" font-family="Helvetica,sans-Serif" font-size="10.00">include/d/d_stage.h</text>
</a>
</g>
</g>
<!-- Node8&#45;&gt;Node216 -->
<g id="edge50" class="edge">
<title>Node8&#45;&gt;Node216</title>
<path fill="none" stroke="#63b8ff" d="M1104.04,-534.53C1111.59,-522.46 1121.09,-507.25 1126.99,-497.82"/>
<polygon fill="#63b8ff" stroke="#63b8ff" points="1101.2,-532.48 1098.86,-542.82 1107.13,-536.19 1101.2,-532.48"/>
</g>
<!-- Node227 -->
<g id="node38" class="node">
<title>Node227</title>
<g id="a_node38"><a xlink:href="d__event__data_8h.html" target="_top" xlink:title=" ">
<polygon fill="#fff0f0" stroke="red" points="1280.5,-437 1160.5,-437 1160.5,-407 1280.5,-407 1280.5,-437"/>
<text text-anchor="start" x="1168.5" y="-425" font-family="Helvetica,sans-Serif" font-size="10.00">include/d/event/d_event</text>
<text text-anchor="middle" x="1220.5" y="-414" font-family="Helvetica,sans-Serif" font-size="10.00">_data.h</text>
</a>
</g>
</g>
<!-- Node8&#45;&gt;Node227 -->
<g id="edge58" class="edge">
<title>Node8&#45;&gt;Node227</title>
<path fill="none" stroke="#63b8ff" d="M1134.17,-540.09C1153.85,-532.15 1176.3,-520.14 1191.5,-503 1208.26,-484.1 1215.57,-454.75 1218.58,-437.35"/>
<polygon fill="#63b8ff" stroke="#63b8ff" points="1133.11,-536.75 1125,-543.56 1135.59,-543.3 1133.11,-536.75"/>
</g>
<!-- Node232 -->
<g id="node39" class="node">
<title>Node232</title>
<g id="a_node39"><a xlink:href="d__vibration_8h.html" target="_top" xlink:title=" ">
<polygon fill="#fff0f0" stroke="red" points="1443,-288.5 1330,-288.5 1330,-269.5 1443,-269.5 1443,-288.5"/>
<text text-anchor="middle" x="1386.5" y="-276.5" font-family="Helvetica,sans-Serif" font-size="10.00">include/d/d_vibration.h</text>
</a>
</g>
</g>
<!-- Node8&#45;&gt;Node232 -->
<g id="edge55" class="edge">
<title>Node8&#45;&gt;Node232</title>
<path fill="none" stroke="#63b8ff" d="M1164.82,-542.21C1196.08,-534.92 1231.77,-522.86 1259.5,-503 1339.19,-445.93 1375.71,-322.26 1384.4,-288.6"/>
<polygon fill="#63b8ff" stroke="#63b8ff" points="1164.47,-538.7 1155.45,-544.27 1165.97,-545.54 1164.47,-538.7"/>
</g>
<!-- Node233 -->
<g id="node40" class="node">
<title>Node233</title>
<g id="a_node40"><a xlink:href="d__menu__save_8h.html" target="_top" xlink:title=" ">
<polygon fill="#fff0f0" stroke="red" points="615.5,-503 495.5,-503 495.5,-473 615.5,-473 615.5,-503"/>
<text text-anchor="start" x="503.5" y="-491" font-family="Helvetica,sans-Serif" font-size="10.00">include/d/menu/d_menu</text>
<text text-anchor="middle" x="555.5" y="-480" font-family="Helvetica,sans-Serif" font-size="10.00">_save.h</text>
</a>
</g>
</g>
<!-- Node8&#45;&gt;Node233 -->
<g id="edge59" class="edge">
<title>Node8&#45;&gt;Node233</title>
<path fill="none" stroke="#63b8ff" d="M1019.87,-547.37C927.63,-539.72 763.7,-524.51 624.5,-503 621.6,-502.55 618.64,-502.06 615.65,-501.55"/>
<polygon fill="#63b8ff" stroke="#63b8ff" points="1019.55,-550.85 1029.8,-548.18 1020.12,-543.87 1019.55,-550.85"/>
</g>
<!-- Node235 -->
<g id="node41" class="node">
<title>Node235</title>
<g id="a_node41"><a xlink:href="d__meter__HIO_8cpp.html" target="_top" xlink:title=" ">
<polygon fill="white" stroke="#666666" points="737.5,-503 633.5,-503 633.5,-473 737.5,-473 737.5,-503"/>
<text text-anchor="start" x="641.5" y="-491" font-family="Helvetica,sans-Serif" font-size="10.00">src/d/meter/d_meter</text>
<text text-anchor="middle" x="685.5" y="-480" font-family="Helvetica,sans-Serif" font-size="10.00">_HIO.cpp</text>
</a>
</g>
</g>
<!-- Node8&#45;&gt;Node235 -->
<g id="edge61" class="edge">
<title>Node8&#45;&gt;Node235</title>
<path fill="none" stroke="#63b8ff" d="M1019.82,-543.7C950.64,-534.53 843.69,-519.52 751.5,-503 747,-502.19 742.35,-501.31 737.68,-500.39"/>
<polygon fill="#63b8ff" stroke="#63b8ff" points="1019.15,-547.14 1029.52,-544.98 1020.06,-540.2 1019.15,-547.14"/>
</g>
<!-- Node10 -->
<g id="node10" class="node">
<title>Node10</title>
<g id="a_node10"><a xlink:href="d__a__alink_8h.html" target="_top" xlink:title=" ">
<polygon fill="#fff0f0" stroke="red" points="1093.5,-288.5 977.5,-288.5 977.5,-269.5 1093.5,-269.5 1093.5,-288.5"/>
<text text-anchor="middle" x="1035.5" y="-276.5" font-family="Helvetica,sans-Serif" font-size="10.00">include/d/a/d_a_alink.h</text>
</a>
</g>
</g>
<!-- Node9&#45;&gt;Node10 -->
<g id="edge9" class="edge">
<title>Node9&#45;&gt;Node10</title>
<path fill="none" stroke="#63b8ff" d="M933.61,-406.15C947.94,-397.18 965.4,-384.83 978.5,-371 1003.37,-344.75 1023.28,-306.02 1031.47,-288.81"/>
<polygon fill="#63b8ff" stroke="#63b8ff" points="931.88,-403.11 925.13,-411.28 935.5,-409.1 931.88,-403.11"/>
</g>
<!-- Node16 -->
<g id="node13" class="node">
<title>Node16</title>
<g id="a_node13"><a xlink:href="d__a__npc_8cpp.html" target="_top" xlink:title=" ">
<polygon fill="white" stroke="#666666" points="787.5,-24.5 683.5,-24.5 683.5,-5.5 787.5,-5.5 787.5,-24.5"/>
<text text-anchor="middle" x="735.5" y="-12.5" font-family="Helvetica,sans-Serif" font-size="10.00">src/d/a/d_a_npc.cpp</text>
</a>
</g>
</g>
<!-- Node9&#45;&gt;Node16 -->
<g id="edge46" class="edge">
<title>Node9&#45;&gt;Node16</title>
<path fill="none" stroke="#63b8ff" d="M835.07,-415.25C749.72,-407.63 613.68,-392.59 567.5,-371 472.54,-326.62 391.5,-318.82 391.5,-214 391.5,-214 391.5,-214 391.5,-146 391.5,-108.88 387.52,-90.4 415.5,-66 454.49,-32 602.74,-21.04 683.05,-17.57"/>
<polygon fill="#63b8ff" stroke="#63b8ff" points="834.73,-418.74 844.99,-416.12 835.34,-411.76 834.73,-418.74"/>
</g>
<!-- Node104 -->
<g id="node28" class="node">
<title>Node104</title>
<g id="a_node28"><a xlink:href="d__a__player_8cpp.html" target="_top" xlink:title=" ">
<polygon fill="white" stroke="#666666" points="705.5,-156.5 591.5,-156.5 591.5,-137.5 705.5,-137.5 705.5,-156.5"/>
<text text-anchor="middle" x="648.5" y="-144.5" font-family="Helvetica,sans-Serif" font-size="10.00">src/d/a/d_a_player.cpp</text>
</a>
</g>
</g>
<!-- Node9&#45;&gt;Node104 -->
<g id="edge47" class="edge">
<title>Node9&#45;&gt;Node104</title>
<path fill="none" stroke="#63b8ff" d="M835.18,-419.57C752.04,-416.28 622.87,-405.57 590.5,-371 530.62,-307.05 615.64,-189.32 641.46,-156.62"/>
<polygon fill="#63b8ff" stroke="#63b8ff" points="834.95,-423.06 845.07,-419.93 835.21,-416.07 834.95,-423.06"/>
</g>
<!-- Node177 -->
<g id="node31" class="node">
<title>Node177</title>
<g id="a_node31"><a xlink:href="d__bg__s__acch_8h.html" target="_top" xlink:title=" ">
<polygon fill="#fff0f0" stroke="red" points="713.5,-365.5 609.5,-365.5 609.5,-335.5 713.5,-335.5 713.5,-365.5"/>
<text text-anchor="start" x="617.5" y="-353.5" font-family="Helvetica,sans-Serif" font-size="10.00">include/d/bg/d_bg_s</text>
<text text-anchor="middle" x="661.5" y="-342.5" font-family="Helvetica,sans-Serif" font-size="10.00">_acch.h</text>
</a>
</g>
</g>
<!-- Node9&#45;&gt;Node177 -->
<g id="edge35" class="edge">
<title>Node9&#45;&gt;Node177</title>
<path fill="none" stroke="#63b8ff" d="M861.51,-409.19C823.98,-399.4 769.64,-384.9 722.5,-371 717.06,-369.4 711.37,-367.66 705.74,-365.9"/>
<polygon fill="#63b8ff" stroke="#63b8ff" points="860.56,-412.56 871.12,-411.69 862.33,-405.79 860.56,-412.56"/>
</g>
<!-- Node181 -->
<g id="node32" class="node">
<title>Node181</title>
<g id="a_node32"><a xlink:href="d__a__do_8h.html" target="_top" xlink:title=" ">
<polygon fill="white" stroke="#666666" points="688.5,-294 592.5,-294 592.5,-264 688.5,-264 688.5,-294"/>
<text text-anchor="start" x="600.5" y="-282" font-family="Helvetica,sans-Serif" font-size="10.00">include/rel/d/a/d_a</text>
<text text-anchor="middle" x="640.5" y="-271" font-family="Helvetica,sans-Serif" font-size="10.00">_do/d_a_do.h</text>
</a>
</g>
</g>
<!-- Node9&#45;&gt;Node181 -->
<g id="edge43" class="edge">
<title>Node9&#45;&gt;Node181</title>
<path fill="none" stroke="#63b8ff" d="M835.54,-419.65C754.46,-416.42 630.07,-405.77 600.5,-371 580.82,-347.86 607.11,-313.53 625.46,-294.33"/>
<polygon fill="#63b8ff" stroke="#63b8ff" points="835.05,-423.13 845.17,-420 835.3,-416.14 835.05,-423.13"/>
</g>
<!-- Node9&#45;&gt;Node212 -->
<g id="edge37" class="edge">
<title>Node9&#45;&gt;Node212</title>
<path fill="none" stroke="#63b8ff" d="M972.07,-410.06C1023.84,-400.88 1098.21,-386.76 1162.5,-371 1175.03,-367.93 1188.74,-363.98 1200.39,-360.44"/>
<polygon fill="#63b8ff" stroke="#63b8ff" points="971.79,-406.56 962.54,-411.74 973,-413.46 971.79,-406.56"/>
</g>
<!-- Node9&#45;&gt;Node189 -->
<g id="edge40" class="edge">
<title>Node9&#45;&gt;Node189</title>
<path fill="none" stroke="#63b8ff" d="M941.5,-408.02C977.86,-394.13 1034.55,-372.49 1066.17,-360.41"/>
<polygon fill="#63b8ff" stroke="#63b8ff" points="940.43,-404.68 932.33,-411.52 942.93,-411.22 940.43,-404.68"/>
</g>
<!-- Node214 -->
<g id="node35" class="node">
<title>Node214</title>
<g id="a_node35"><a xlink:href="d__a__crod_8h.html" target="_top" xlink:title=" ">
<polygon fill="#fff0f0" stroke="red" points="827.5,-365.5 731.5,-365.5 731.5,-335.5 827.5,-335.5 827.5,-365.5"/>
<text text-anchor="start" x="739.5" y="-353.5" font-family="Helvetica,sans-Serif" font-size="10.00">include/rel/d/a/d_a</text>
<text text-anchor="middle" x="779.5" y="-342.5" font-family="Helvetica,sans-Serif" font-size="10.00">_crod/d_a_crod.h</text>
</a>
</g>
</g>
<!-- Node9&#45;&gt;Node214 -->
<g id="edge42" class="edge">
<title>Node9&#45;&gt;Node214</title>
<path fill="none" stroke="#63b8ff" d="M881.08,-406.65C859.16,-394.75 828.14,-377.91 806.15,-365.97"/>
<polygon fill="#63b8ff" stroke="#63b8ff" points="879.24,-409.64 889.7,-411.33 882.58,-403.49 879.24,-409.64"/>
</g>
<!-- Node215 -->
<g id="node36" class="node">
<title>Node215</title>
<g id="a_node36"><a xlink:href="d__a__tag__mmsg_8h.html" target="_top" xlink:title=" ">
<polygon fill="white" stroke="#666666" points="969.5,-371 845.5,-371 845.5,-330 969.5,-330 969.5,-371"/>
<text text-anchor="start" x="853.5" y="-359" font-family="Helvetica,sans-Serif" font-size="10.00">include/rel/d/a/tag</text>
<text text-anchor="start" x="853.5" y="-348" font-family="Helvetica,sans-Serif" font-size="10.00">/d_a_tag_mmsg/d_a_tag</text>
<text text-anchor="middle" x="907.5" y="-337" font-family="Helvetica,sans-Serif" font-size="10.00">_mmsg.h</text>
</a>
</g>
</g>
<!-- Node9&#45;&gt;Node215 -->
<g id="edge44" class="edge">
<title>Node9&#45;&gt;Node215</title>
<path fill="none" stroke="#63b8ff" d="M907.5,-400.89C907.5,-391.59 907.5,-380.56 907.5,-371.29"/>
<polygon fill="#63b8ff" stroke="#63b8ff" points="904,-400.68 907.5,-410.68 911,-400.68 904,-400.68"/>
</g>
<!-- Node10&#45;&gt;Node11 -->
<g id="edge10" class="edge">
<title>Node10&#45;&gt;Node11</title>
<path fill="none" stroke="#63b8ff" d="M1093.78,-266.97C1156.71,-255.05 1256.24,-236.2 1318.05,-224.5"/>
<polygon fill="#63b8ff" stroke="#63b8ff" points="1093.51,-263.45 1084.34,-268.75 1094.82,-270.33 1093.51,-263.45"/>
</g>
<!-- Node12 -->
<g id="node12" class="node">
<title>Node12</title>
<g id="a_node12"><a xlink:href="d__a__npc_8h.html" target="_top" xlink:title=" ">
<polygon fill="#fff0f0" stroke="red" points="908,-90.5 797,-90.5 797,-71.5 908,-71.5 908,-90.5"/>
<text text-anchor="middle" x="852.5" y="-78.5" font-family="Helvetica,sans-Serif" font-size="10.00">include/d/a/d_a_npc.h</text>
</a>
</g>
</g>
<!-- Node11&#45;&gt;Node12 -->
<g id="edge11" class="edge">
<title>Node11&#45;&gt;Node12</title>
<path fill="none" stroke="#63b8ff" d="M1306.63,-211.62C1153.85,-210.05 789.49,-202.09 752.5,-162 725.21,-132.42 786.5,-104.68 824.75,-90.96"/>
<polygon fill="#63b8ff" stroke="#63b8ff" points="1306.58,-215.12 1316.61,-211.71 1306.65,-208.12 1306.58,-215.12"/>
</g>
<!-- Node11&#45;&gt;Node17 -->
<g id="edge32" class="edge">
<title>Node11&#45;&gt;Node17</title>
<path fill="none" stroke="#63b8ff" d="M1440.08,-198.14C1486.56,-185.38 1536.07,-163.62 1510.5,-132 1449.62,-56.71 1149.5,-28.11 1023.91,-19.32"/>
<polygon fill="#63b8ff" stroke="#63b8ff" points="1439.25,-194.73 1430.46,-200.65 1441.02,-201.51 1439.25,-194.73"/>
</g>
<!-- Node18 -->
<g id="node15" class="node">
<title>Node18</title>
<g id="a_node15"><a xlink:href="d__cc__uty_8h.html" target="_top" xlink:title=" ">
<polygon fill="#fff0f0" stroke="red" points="881,-156.5 762,-156.5 762,-137.5 881,-137.5 881,-156.5"/>
<text text-anchor="middle" x="821.5" y="-144.5" font-family="Helvetica,sans-Serif" font-size="10.00">include/d/cc/d_cc_uty.h</text>
</a>
</g>
</g>
<!-- Node11&#45;&gt;Node18 -->
<g id="edge14" class="edge">
<title>Node11&#45;&gt;Node18</title>
<path fill="none" stroke="#63b8ff" d="M1306.98,-207.17C1213.6,-199.92 1038.5,-184.62 890.5,-162 881.32,-160.6 871.51,-158.79 862.25,-156.95"/>
<polygon fill="#63b8ff" stroke="#63b8ff" points="1306.48,-210.64 1316.72,-207.92 1307.02,-203.66 1306.48,-210.64"/>
</g>
<!-- Node27 -->
<g id="node16" class="node">
<title>Node27</title>
<g id="a_node16"><a xlink:href="d__error__msg_8h.html" target="_top" xlink:title=" ">
<polygon fill="#fff0f0" stroke="red" points="1019.5,-156.5 899.5,-156.5 899.5,-137.5 1019.5,-137.5 1019.5,-156.5"/>
<text text-anchor="middle" x="959.5" y="-144.5" font-family="Helvetica,sans-Serif" font-size="10.00">include/d/d_error_msg.h</text>
</a>
</g>
</g>
<!-- Node11&#45;&gt;Node27 -->
<g id="edge15" class="edge">
<title>Node11&#45;&gt;Node27</title>
<path fill="none" stroke="#63b8ff" d="M1306.86,-203.47C1237.24,-194.3 1124.95,-178.76 1028.5,-162 1019.83,-160.49 1010.58,-158.73 1001.76,-156.97"/>
<polygon fill="#63b8ff" stroke="#63b8ff" points="1306.21,-206.92 1316.58,-204.75 1307.12,-199.98 1306.21,-206.92"/>
</g>
<!-- Node30 -->
<g id="node17" class="node">
<title>Node30</title>
<g id="a_node17"><a xlink:href="d__item_8h.html" target="_top" xlink:title=" ">
<polygon fill="#fff0f0" stroke="red" points="1133,-156.5 1038,-156.5 1038,-137.5 1133,-137.5 1133,-156.5"/>
<text text-anchor="middle" x="1085.5" y="-144.5" font-family="Helvetica,sans-Serif" font-size="10.00">include/d/d_item.h</text>
</a>
</g>
</g>
<!-- Node11&#45;&gt;Node30 -->
<g id="edge16" class="edge">
<title>Node11&#45;&gt;Node30</title>
<path fill="none" stroke="#63b8ff" d="M1306.94,-198.26C1260.5,-188.52 1197.11,-174.94 1141.5,-162 1134.77,-160.43 1127.59,-158.69 1120.71,-156.99"/>
<polygon fill="#63b8ff" stroke="#63b8ff" points="1306.09,-201.66 1316.59,-200.28 1307.52,-194.8 1306.09,-201.66"/>
</g>
<!-- Node35 -->
<g id="node18" class="node">
<title>Node35</title>
<g id="a_node18"><a xlink:href="d__kantera__icon__meter_8h.html" target="_top" xlink:title=" ">
<polygon fill="#fff0f0" stroke="red" points="1252,-162 1151,-162 1151,-132 1252,-132 1252,-162"/>
<text text-anchor="start" x="1159" y="-150" font-family="Helvetica,sans-Serif" font-size="10.00">include/d/d_kantera</text>
<text text-anchor="middle" x="1201.5" y="-139" font-family="Helvetica,sans-Serif" font-size="10.00">_icon_meter.h</text>
</a>
</g>
</g>
<!-- Node11&#45;&gt;Node35 -->
<g id="edge17" class="edge">
<title>Node11&#45;&gt;Node35</title>
<path fill="none" stroke="#63b8ff" d="M1324.24,-193.67C1297.58,-183.75 1265.11,-171.67 1240.27,-162.43"/>
<polygon fill="#63b8ff" stroke="#63b8ff" points="1322.89,-196.9 1333.48,-197.11 1325.33,-190.34 1322.89,-196.9"/>
</g>
<!-- Node38 -->
<g id="node19" class="node">
<title>Node38</title>
<g id="a_node19"><a xlink:href="d__model_8h.html" target="_top" xlink:title=" ">
<polygon fill="#fff0f0" stroke="red" points="1502,-156.5 1399,-156.5 1399,-137.5 1502,-137.5 1502,-156.5"/>
<text text-anchor="middle" x="1450.5" y="-144.5" font-family="Helvetica,sans-Serif" font-size="10.00">include/d/d_model.h</text>
</a>
</g>
</g>
<!-- Node11&#45;&gt;Node38 -->
<g id="edge18" class="edge">
<title>Node11&#45;&gt;Node38</title>
<path fill="none" stroke="#63b8ff" d="M1399.24,-190.6C1413.09,-179.1 1429.42,-165.52 1439.86,-156.84"/>
<polygon fill="#63b8ff" stroke="#63b8ff" points="1397.21,-187.75 1391.75,-196.83 1401.68,-193.13 1397.21,-187.75"/>
</g>
<!-- Node40 -->
<g id="node20" class="node">
<title>Node40</title>
<g id="a_node20"><a xlink:href="d__name_8h.html" target="_top" xlink:title=" ">
<polygon fill="#fff0f0" stroke="red" points="1698,-156.5 1597,-156.5 1597,-137.5 1698,-137.5 1698,-156.5"/>
<text text-anchor="middle" x="1647.5" y="-144.5" font-family="Helvetica,sans-Serif" font-size="10.00">include/d/d_name.h</text>
</a>
</g>
</g>
<!-- Node11&#45;&gt;Node40 -->
<g id="edge19" class="edge">
<title>Node11&#45;&gt;Node40</title>
<path fill="none" stroke="#63b8ff" d="M1439.96,-196.48C1493.04,-184.08 1565.55,-167.14 1609.32,-156.92"/>
<polygon fill="#63b8ff" stroke="#63b8ff" points="1439.36,-193.02 1430.42,-198.7 1440.96,-199.84 1439.36,-193.02"/>
</g>
<!-- Node41 -->
<g id="node21" class="node">
<title>Node41</title>
<g id="a_node21"><a xlink:href="d__file__select_8h.html" target="_top" xlink:title=" ">
<polygon fill="#fff0f0" stroke="red" points="1695.5,-96 1599.5,-96 1599.5,-66 1695.5,-66 1695.5,-96"/>
<text text-anchor="start" x="1607.5" y="-84" font-family="Helvetica,sans-Serif" font-size="10.00">include/d/file/d_file</text>
<text text-anchor="middle" x="1647.5" y="-73" font-family="Helvetica,sans-Serif" font-size="10.00">_select.h</text>
</a>
</g>
</g>
<!-- Node11&#45;&gt;Node41 -->
<g id="edge24" class="edge">
<title>Node11&#45;&gt;Node41</title>
<path fill="none" stroke="#63b8ff" d="M1439.44,-198.86C1472.15,-190.83 1511.59,-178.82 1544.5,-162 1562.75,-152.68 1606.68,-116.55 1630.86,-96.18"/>
<polygon fill="#63b8ff" stroke="#63b8ff" points="1439.02,-195.36 1430.1,-201.08 1440.63,-202.17 1439.02,-195.36"/>
</g>
<!-- Node44 -->
<g id="node22" class="node">
<title>Node44</title>
<g id="a_node22"><a xlink:href="d__file__sel__info_8h.html" target="_top" xlink:title=" ">
<polygon fill="#fff0f0" stroke="red" points="1812.5,-162 1716.5,-162 1716.5,-132 1812.5,-132 1812.5,-162"/>
<text text-anchor="start" x="1724.5" y="-150" font-family="Helvetica,sans-Serif" font-size="10.00">include/d/file/d_file</text>
<text text-anchor="middle" x="1764.5" y="-139" font-family="Helvetica,sans-Serif" font-size="10.00">_sel_info.h</text>
</a>
</g>
</g>
<!-- Node11&#45;&gt;Node44 -->
<g id="edge21" class="edge">
<title>Node11&#45;&gt;Node44</title>
<path fill="none" stroke="#63b8ff" d="M1440.06,-203.88C1507.69,-195.19 1615.33,-180.18 1707.5,-162 1710.3,-161.45 1713.17,-160.85 1716.06,-160.22"/>
<polygon fill="#63b8ff" stroke="#63b8ff" points="1439.71,-200.39 1430.23,-205.13 1440.6,-207.33 1439.71,-200.39"/>
</g>
<!-- Node47 -->
<g id="node23" class="node">
<title>Node47</title>
<g id="a_node23"><a xlink:href="d__file__sel__warning_8h.html" target="_top" xlink:title=" ">
<polygon fill="#fff0f0" stroke="red" points="2348.5,-162 2252.5,-162 2252.5,-132 2348.5,-132 2348.5,-162"/>
<text text-anchor="start" x="2260.5" y="-150" font-family="Helvetica,sans-Serif" font-size="10.00">include/d/file/d_file</text>
<text text-anchor="middle" x="2300.5" y="-139" font-family="Helvetica,sans-Serif" font-size="10.00">_sel_warning.h</text>
</a>
</g>
</g>
<!-- Node11&#45;&gt;Node47 -->
<g id="edge22" class="edge">
<title>Node11&#45;&gt;Node47</title>
<path fill="none" stroke="#63b8ff" d="M1440.23,-203.53C1458.16,-201.48 1477.55,-199.46 1495.5,-198 1827.23,-171.01 1914.14,-209.92 2243.5,-162 2246.32,-161.59 2249.21,-161.1 2252.12,-160.56"/>
<polygon fill="#63b8ff" stroke="#63b8ff" points="1440.02,-200.04 1430.5,-204.67 1440.84,-206.99 1440.02,-200.04"/>
</g>
<!-- Node49 -->
<g id="node24" class="node">
<title>Node49</title>
<g id="a_node24"><a xlink:href="d__menu__calibration_8h.html" target="_top" xlink:title=" ">
<polygon fill="#fff0f0" stroke="red" points="1950.5,-162 1830.5,-162 1830.5,-132 1950.5,-132 1950.5,-162"/>
<text text-anchor="start" x="1838.5" y="-150" font-family="Helvetica,sans-Serif" font-size="10.00">include/d/menu/d_menu</text>
<text text-anchor="middle" x="1890.5" y="-139" font-family="Helvetica,sans-Serif" font-size="10.00">_calibration.h</text>
</a>
</g>
</g>
<!-- Node11&#45;&gt;Node49 -->
<g id="edge25" class="edge">
<title>Node11&#45;&gt;Node49</title>
<path fill="none" stroke="#63b8ff" d="M1440.04,-204.31C1458.04,-202.25 1477.51,-200.03 1495.5,-198 1640.35,-181.69 1677.48,-184.52 1821.5,-162 1824.4,-161.55 1827.36,-161.06 1830.35,-160.54"/>
<polygon fill="#63b8ff" stroke="#63b8ff" points="1439.8,-200.82 1430.26,-205.44 1440.6,-207.77 1439.8,-200.82"/>
</g>
<!-- Node51 -->
<g id="node25" class="node">
<title>Node51</title>
<g id="a_node25"><a xlink:href="d__meter2_8h.html" target="_top" xlink:title=" ">
<polygon fill="#fff0f0" stroke="red" points="2102.5,-156.5 1968.5,-156.5 1968.5,-137.5 2102.5,-137.5 2102.5,-156.5"/>
<text text-anchor="middle" x="2035.5" y="-144.5" font-family="Helvetica,sans-Serif" font-size="10.00">include/d/meter/d_meter2.h</text>
</a>
</g>
</g>
<!-- Node11&#45;&gt;Node51 -->
<g id="edge26" class="edge">
<title>Node11&#45;&gt;Node51</title>
<path fill="none" stroke="#63b8ff" d="M1440,-203.92C1458,-201.85 1477.48,-199.73 1495.5,-198 1701.39,-178.21 1754.4,-188.77 1959.5,-162 1969.88,-160.65 1980.99,-158.82 1991.42,-156.93"/>
<polygon fill="#63b8ff" stroke="#63b8ff" points="1439.75,-200.42 1430.22,-205.05 1440.56,-207.38 1439.75,-200.42"/>
</g>
<!-- Node61 -->
<g id="node26" class="node">
<title>Node61</title>
<g id="a_node26"><a xlink:href="d__msg__object_8h.html" target="_top" xlink:title=" ">
<polygon fill="#fff0f0" stroke="red" points="1380.5,-162 1270.5,-162 1270.5,-132 1380.5,-132 1380.5,-162"/>
<text text-anchor="start" x="1278.5" y="-150" font-family="Helvetica,sans-Serif" font-size="10.00">include/d/msg/d_msg</text>
<text text-anchor="middle" x="1325.5" y="-139" font-family="Helvetica,sans-Serif" font-size="10.00">_object.h</text>
</a>
</g>
</g>
<!-- Node11&#45;&gt;Node61 -->
<g id="edge27" class="edge">
<title>Node11&#45;&gt;Node61</title>
<path fill="none" stroke="#63b8ff" d="M1356.01,-188.68C1349.35,-179.79 1341.96,-169.95 1336.12,-162.16"/>
<polygon fill="#63b8ff" stroke="#63b8ff" points="1353.14,-190.69 1361.94,-196.59 1358.74,-186.49 1353.14,-190.69"/>
</g>
<!-- Node80 -->
<g id="node27" class="node">
<title>Node80</title>
<g id="a_node27"><a xlink:href="d__s__logo_8h.html" target="_top" xlink:title=" ">
<polygon fill="#fff0f0" stroke="red" points="2234,-156.5 2121,-156.5 2121,-137.5 2234,-137.5 2234,-156.5"/>
<text text-anchor="middle" x="2177.5" y="-144.5" font-family="Helvetica,sans-Serif" font-size="10.00">include/d/s/d_s_logo.h</text>
</a>
</g>
</g>
<!-- Node11&#45;&gt;Node80 -->
<g id="edge30" class="edge">
<title>Node11&#45;&gt;Node80</title>
<path fill="none" stroke="#63b8ff" d="M1439.98,-203.69C1457.98,-201.63 1477.47,-199.56 1495.5,-198 1768.72,-174.36 1839.7,-198.56 2111.5,-162 2120.79,-160.75 2130.71,-158.92 2139.98,-156.98"/>
<polygon fill="#63b8ff" stroke="#63b8ff" points="1439.73,-200.19 1430.2,-204.83 1440.54,-207.15 1439.73,-200.19"/>
</g>
<!-- Node11&#45;&gt;Node104 -->
<g id="edge31" class="edge">
<title>Node11&#45;&gt;Node104</title>
<path fill="none" stroke="#63b8ff" d="M1306.75,-209.51C1188.13,-204.5 932.97,-191.1 719.5,-162 709.79,-160.68 699.41,-158.86 689.66,-156.97"/>
<polygon fill="#63b8ff" stroke="#63b8ff" points="1306.5,-213 1316.63,-209.92 1306.79,-206.01 1306.5,-213"/>
</g>
<!-- Node11&#45;&gt;Node60 -->
<g id="edge33" class="edge">
<title>Node11&#45;&gt;Node60</title>
<path fill="none" stroke="#63b8ff" d="M1306.62,-210.99C1169.97,-208.22 849.15,-198.1 582.5,-162 573.08,-160.72 563,-158.88 553.6,-156.94"/>
<polygon fill="#63b8ff" stroke="#63b8ff" points="1306.51,-214.49 1316.58,-211.19 1306.65,-207.49 1306.51,-214.49"/>
</g>
<!-- Node11&#45;&gt;Node171 -->
<g id="edge34" class="edge">
<title>Node11&#45;&gt;Node171</title>
<path fill="none" stroke="#63b8ff" d="M1440.23,-203.46C1458.15,-201.41 1477.54,-199.4 1495.5,-198 1877.78,-168.12 1975.55,-195.86 2357.5,-162 2371.79,-160.73 2387.14,-158.9 2401.51,-156.98"/>
<polygon fill="#63b8ff" stroke="#63b8ff" points="1440.02,-199.96 1430.49,-204.6 1440.83,-206.91 1440.02,-199.96"/>
</g>
<!-- Node12&#45;&gt;Node16 -->
<g id="edge12" class="edge">
<title>Node12&#45;&gt;Node16</title>
<path fill="none" stroke="#63b8ff" d="M826.17,-65.59C803.28,-53.08 770.86,-35.34 751.63,-24.82"/>
<polygon fill="#63b8ff" stroke="#63b8ff" points="824.45,-68.65 834.9,-70.37 827.81,-62.51 824.45,-68.65"/>
</g>
<!-- Node12&#45;&gt;Node17 -->
<g id="edge13" class="edge">
<title>Node12&#45;&gt;Node17</title>
<path fill="none" stroke="#63b8ff" d="M878.68,-65.55C897.67,-55.08 923.26,-40.96 942.26,-30.48"/>
<polygon fill="#63b8ff" stroke="#63b8ff" points="877.02,-62.47 869.95,-70.37 880.4,-68.6 877.02,-62.47"/>
</g>
<!-- Node40&#45;&gt;Node41 -->
<g id="edge20" class="edge">
<title>Node40&#45;&gt;Node41</title>
<path fill="none" stroke="#63b8ff" d="M1647.5,-125.78C1647.5,-116.17 1647.5,-104.92 1647.5,-96.23"/>
<polygon fill="#63b8ff" stroke="#63b8ff" points="1644,-125.59 1647.5,-135.59 1651,-125.59 1644,-125.59"/>
</g>
<!-- Node47&#45;&gt;Node41 -->
<g id="edge23" class="edge">
<title>Node47&#45;&gt;Node41</title>
<path fill="none" stroke="#63b8ff" d="M2240.97,-131.76C2033.09,-98.54 1795.72,-87.09 1695.71,-83.48"/>
<polygon fill="#63b8ff" stroke="#63b8ff" points="2240.17,-135.18 2250.6,-133.32 2241.29,-128.27 2240.17,-135.18"/>
</g>
<!-- Node61&#45;&gt;Node12 -->
<g id="edge28" class="edge">
<title>Node61&#45;&gt;Node12</title>
<path fill="none" stroke="#63b8ff" d="M1259.16,-131.89C1127.37,-110.05 985.18,-94.79 908.5,-87.25"/>
<polygon fill="#63b8ff" stroke="#63b8ff" points="1258.31,-135.29 1268.75,-133.49 1259.47,-128.39 1258.31,-135.29"/>
</g>
<!-- Node61&#45;&gt;Node17 -->
<g id="edge29" class="edge">
<title>Node61&#45;&gt;Node17</title>
<path fill="none" stroke="#63b8ff" d="M1275.38,-127.75C1203.78,-101.67 1073.64,-54.28 1008.25,-30.47"/>
<polygon fill="#63b8ff" stroke="#63b8ff" points="1273.91,-130.94 1284.51,-131.07 1276.31,-124.36 1273.91,-130.94"/>
</g>
<!-- Node177&#45;&gt;Node181 -->
<g id="edge36" class="edge">
<title>Node177&#45;&gt;Node181</title>
<path fill="none" stroke="#63b8ff" d="M653.82,-324.08C650.8,-314.08 647.43,-302.95 644.85,-294.38"/>
<polygon fill="#63b8ff" stroke="#63b8ff" points="650.47,-325.09 656.71,-333.65 657.17,-323.07 650.47,-325.09"/>
</g>
<!-- Node212&#45;&gt;Node10 -->
<g id="edge38" class="edge">
<title>Node212&#45;&gt;Node10</title>
<path fill="none" stroke="#63b8ff" d="M1192.94,-336.69C1154.4,-322.82 1093.92,-301.04 1060.24,-288.91"/>
<polygon fill="#63b8ff" stroke="#63b8ff" points="1191.65,-339.95 1202.24,-340.04 1194.02,-333.36 1191.65,-339.95"/>
</g>
<!-- Node212&#45;&gt;Node11 -->
<g id="edge39" class="edge">
<title>Node212&#45;&gt;Node11</title>
<path fill="none" stroke="#63b8ff" d="M1238.28,-330.63C1248.62,-312.01 1266.35,-283.57 1287.5,-264 1303.34,-249.34 1324.22,-237.07 1341.44,-228.36"/>
<polygon fill="#63b8ff" stroke="#63b8ff" points="1235.32,-328.75 1233.67,-339.22 1241.48,-332.06 1235.32,-328.75"/>
</g>
<!-- Node189&#45;&gt;Node11 -->
<g id="edge41" class="edge">
<title>Node189&#45;&gt;Node11</title>
<path fill="none" stroke="#63b8ff" d="M1116.11,-335.57C1149.4,-318.27 1208.25,-288.11 1259.5,-264 1286.1,-251.49 1316.61,-238.16 1339.37,-228.41"/>
<polygon fill="#63b8ff" stroke="#63b8ff" points="1114.84,-332.29 1107.59,-340.01 1118.07,-338.49 1114.84,-332.29"/>
</g>
<!-- Node215&#45;&gt;Node10 -->
<g id="edge45" class="edge">
<title>Node215&#45;&gt;Node10</title>
<path fill="none" stroke="#63b8ff" d="M954.01,-324.24C976.73,-311.91 1002.62,-297.85 1019.01,-288.95"/>
<polygon fill="#63b8ff" stroke="#63b8ff" points="952.63,-321.01 945.51,-328.86 955.97,-327.17 952.63,-321.01"/>
</g>
<!-- Node216&#45;&gt;Node9 -->
<g id="edge51" class="edge">
<title>Node216&#45;&gt;Node9</title>
<path fill="none" stroke="#63b8ff" d="M1090.3,-475C1046.3,-462.48 978.36,-443.16 938.88,-431.93"/>
<polygon fill="#63b8ff" stroke="#63b8ff" points="1089.18,-478.32 1099.76,-477.69 1091.1,-471.58 1089.18,-478.32"/>
</g>
<!-- Node216&#45;&gt;Node11 -->
<g id="edge52" class="edge">
<title>Node216&#45;&gt;Node11</title>
<path fill="none" stroke="#63b8ff" d="M1131.79,-466.65C1132.3,-448.59 1136.01,-422.7 1151.5,-407 1197.53,-360.35 1248.35,-417.53 1294.5,-371 1328.96,-336.25 1295.91,-306.31 1320.5,-264 1328.7,-249.89 1342.09,-237.31 1353.36,-228.29"/>
<polygon fill="#63b8ff" stroke="#63b8ff" points="1128.29,-466.67 1131.85,-476.64 1135.29,-466.62 1128.29,-466.67"/>
</g>
<!-- Node216&#45;&gt;Node189 -->
<g id="edge53" class="edge">
<title>Node216&#45;&gt;Node189</title>
<path fill="none" stroke="#63b8ff" d="M1126.27,-467.38C1116.79,-437.48 1099.09,-381.73 1092.28,-360.25"/>
<polygon fill="#63b8ff" stroke="#63b8ff" points="1122.86,-468.19 1129.22,-476.67 1129.53,-466.08 1122.86,-468.19"/>
</g>
<!-- Node216&#45;&gt;Node227 -->
<g id="edge54" class="edge">
<title>Node216&#45;&gt;Node227</title>
<path fill="none" stroke="#63b8ff" d="M1153.79,-471.52C1168.03,-461.16 1186.65,-447.62 1200.59,-437.48"/>
<polygon fill="#63b8ff" stroke="#63b8ff" points="1151.99,-468.5 1145.96,-477.21 1156.11,-474.16 1151.99,-468.5"/>
</g>
<!-- Node232&#45;&gt;Node11 -->
<g id="edge56" class="edge">
<title>Node232&#45;&gt;Node11</title>
<path fill="none" stroke="#63b8ff" d="M1382.46,-258.1C1380.49,-248.43 1378.18,-237.02 1376.39,-228.23"/>
<polygon fill="#63b8ff" stroke="#63b8ff" points="1378.97,-258.51 1384.39,-267.62 1385.83,-257.12 1378.97,-258.51"/>
</g>
<!-- Node237 -->
<g id="node43" class="node">
<title>Node237</title>
<g id="a_node43"><a xlink:href="m__Do__printf_8cpp.html" target="_top" xlink:title=" ">
<polygon fill="white" stroke="#666666" points="1673.5,-497.5 1541.5,-497.5 1541.5,-478.5 1673.5,-478.5 1673.5,-497.5"/>
<text text-anchor="middle" x="1607.5" y="-485.5" font-family="Helvetica,sans-Serif" font-size="10.00">src/m_Do/m_Do_printf.cpp</text>
</a>
</g>
</g>
<!-- Node236&#45;&gt;Node237 -->
<g id="edge64" class="edge">
<title>Node236&#45;&gt;Node237</title>
<path fill="none" stroke="#63b8ff" d="M1607.5,-532.68C1607.5,-520.94 1607.5,-506.77 1607.5,-497.82"/>
<polygon fill="#63b8ff" stroke="#63b8ff" points="1604,-532.59 1607.5,-542.59 1611,-532.59 1604,-532.59"/>
</g>
</g>
</svg>
