<?xml version="1.0" encoding="UTF-8" standalone="no"?>
<!DOCTYPE svg PUBLIC "-//W3C//DTD SVG 1.1//EN"
 "http://www.w3.org/Graphics/SVG/1.1/DTD/svg11.dtd">
<!-- Generated by graphviz version 7.0.5 (20221223.1930)
 -->
<!-- Title: include/JSystem/JGadget/search.h Pages: 1 -->
<svg width="3150pt" height="698pt"
 viewBox="0.00 0.00 3150.00 698.00" xmlns="http://www.w3.org/2000/svg" xmlns:xlink="http://www.w3.org/1999/xlink">
<g id="graph0" class="graph" transform="scale(1 1) rotate(0) translate(4 694)">
<title>include/JSystem/JGadget/search.h</title>
<!-- Node1 -->
<g id="node1" class="node">
<title>Node1</title>
<g id="a_node1"><a xlink:title=" ">
<polygon fill="#999999" stroke="#666666" points="2126.5,-690 1998.5,-690 1998.5,-660 2126.5,-660 2126.5,-690"/>
<text text-anchor="start" x="2006.5" y="-678" font-family="Helvetica,sans-Serif" font-size="10.00">include/JSystem/JGadget</text>
<text text-anchor="middle" x="2062.5" y="-667" font-family="Helvetica,sans-Serif" font-size="10.00">/search.h</text>
</a>
</g>
</g>
<!-- Node2 -->
<g id="node2" class="node">
<title>Node2</title>
<g id="a_node2"><a xlink:href="functionvalue_8h.html" target="_top" xlink:title=" ">
<polygon fill="white" stroke="#666666" points="2125,-624 2000,-624 2000,-594 2125,-594 2125,-624"/>
<text text-anchor="start" x="2008" y="-612" font-family="Helvetica,sans-Serif" font-size="10.00">include/JSystem/JStudio</text>
<text text-anchor="middle" x="2062.5" y="-601" font-family="Helvetica,sans-Serif" font-size="10.00">/JStudio/functionvalue.h</text>
</a>
</g>
</g>
<!-- Node1&#45;&gt;Node2 -->
<g id="edge1" class="edge">
<title>Node1&#45;&gt;Node2</title>
<path fill="none" stroke="#63b8ff" d="M2062.5,-648.39C2062.5,-640.13 2062.5,-631.28 2062.5,-624.16"/>
<polygon fill="#63b8ff" stroke="#63b8ff" points="2059,-648.28 2062.5,-658.28 2066,-648.28 2059,-648.28"/>
</g>
<!-- Node3 -->
<g id="node3" class="node">
<title>Node3</title>
<g id="a_node3"><a xlink:href="fvb-data_8h.html" target="_top" xlink:title=" ">
<polygon fill="white" stroke="#666666" points="1988,-552.5 1863,-552.5 1863,-522.5 1988,-522.5 1988,-552.5"/>
<text text-anchor="start" x="1871" y="-540.5" font-family="Helvetica,sans-Serif" font-size="10.00">include/JSystem/JStudio</text>
<text text-anchor="middle" x="1925.5" y="-529.5" font-family="Helvetica,sans-Serif" font-size="10.00">/JStudio/fvb&#45;data.h</text>
</a>
</g>
</g>
<!-- Node2&#45;&gt;Node3 -->
<g id="edge2" class="edge">
<title>Node2&#45;&gt;Node3</title>
<path fill="none" stroke="#63b8ff" d="M2023.97,-588.46C2001.69,-577.15 1974.14,-563.17 1953.85,-552.88"/>
<polygon fill="#63b8ff" stroke="#63b8ff" points="2022.26,-591.51 2032.76,-592.91 2025.43,-585.27 2022.26,-591.51"/>
</g>
<!-- Node209 -->
<g id="node49" class="node">
<title>Node209</title>
<g id="a_node49"><a xlink:href="functionvalue-inline_8cpp.html" target="_top" xlink:title=" ">
<polygon fill="white" stroke="#666666" points="2119,-558 2006,-558 2006,-517 2119,-517 2119,-558"/>
<text text-anchor="start" x="2014" y="-546" font-family="Helvetica,sans-Serif" font-size="10.00">libs/JSystem/JStudio</text>
<text text-anchor="start" x="2014" y="-535" font-family="Helvetica,sans-Serif" font-size="10.00">/JStudio/functionvalue</text>
<text text-anchor="middle" x="2062.5" y="-524" font-family="Helvetica,sans-Serif" font-size="10.00">&#45;inline.cpp</text>
</a>
</g>
</g>
<!-- Node2&#45;&gt;Node209 -->
<g id="edge70" class="edge">
<title>Node2&#45;&gt;Node209</title>
<path fill="none" stroke="#63b8ff" d="M2062.5,-582.36C2062.5,-574.45 2062.5,-565.87 2062.5,-558.42"/>
<polygon fill="#63b8ff" stroke="#63b8ff" points="2059,-582.09 2062.5,-592.09 2066,-582.09 2059,-582.09"/>
</g>
<!-- Node210 -->
<g id="node50" class="node">
<title>Node210</title>
<g id="a_node50"><a xlink:href="functionvalue_8cpp.html" target="_top" xlink:title=" ">
<polygon fill="white" stroke="#666666" points="2268,-552.5 2137,-552.5 2137,-522.5 2268,-522.5 2268,-552.5"/>
<text text-anchor="start" x="2145" y="-540.5" font-family="Helvetica,sans-Serif" font-size="10.00">libs/JSystem/JStudio</text>
<text text-anchor="middle" x="2202.5" y="-529.5" font-family="Helvetica,sans-Serif" font-size="10.00">/JStudio/functionvalue.cpp</text>
</a>
</g>
</g>
<!-- Node2&#45;&gt;Node210 -->
<g id="edge71" class="edge">
<title>Node2&#45;&gt;Node210</title>
<path fill="none" stroke="#63b8ff" d="M2101.56,-588.61C2124.38,-577.28 2152.7,-563.22 2173.53,-552.88"/>
<polygon fill="#63b8ff" stroke="#63b8ff" points="2100.26,-585.35 2092.86,-592.93 2103.38,-591.61 2100.26,-585.35"/>
</g>
<!-- Node4 -->
<g id="node4" class="node">
<title>Node4</title>
<g id="a_node4"><a xlink:href="resource_8h.html" target="_top" xlink:title=" ">
<polygon fill="white" stroke="#666666" points="1549,-481 1412,-481 1412,-451 1549,-451 1549,-481"/>
<text text-anchor="start" x="1420" y="-469" font-family="Helvetica,sans-Serif" font-size="10.00">include/JSystem/JMessage</text>
<text text-anchor="middle" x="1480.5" y="-458" font-family="Helvetica,sans-Serif" font-size="10.00">/resource.h</text>
</a>
</g>
</g>
<!-- Node3&#45;&gt;Node4 -->
<g id="edge3" class="edge">
<title>Node3&#45;&gt;Node4</title>
<path fill="none" stroke="#63b8ff" d="M1851.42,-524.93C1767.27,-511.79 1631.06,-490.51 1549.2,-477.73"/>
<polygon fill="#63b8ff" stroke="#63b8ff" points="1850.77,-528.37 1861.19,-526.46 1851.85,-521.45 1850.77,-528.37"/>
</g>
<!-- Node179 -->
<g id="node42" class="node">
<title>Node179</title>
<g id="a_node42"><a xlink:href="fvb-data-parse_8h.html" target="_top" xlink:title=" ">
<polygon fill="white" stroke="#666666" points="1988,-481 1863,-481 1863,-451 1988,-451 1988,-481"/>
<text text-anchor="start" x="1871" y="-469" font-family="Helvetica,sans-Serif" font-size="10.00">include/JSystem/JStudio</text>
<text text-anchor="middle" x="1925.5" y="-458" font-family="Helvetica,sans-Serif" font-size="10.00">/JStudio/fvb&#45;data&#45;parse.h</text>
</a>
</g>
</g>
<!-- Node3&#45;&gt;Node179 -->
<g id="edge61" class="edge">
<title>Node3&#45;&gt;Node179</title>
<path fill="none" stroke="#63b8ff" d="M1925.5,-510.76C1925.5,-500.83 1925.5,-489.86 1925.5,-481.38"/>
<polygon fill="#63b8ff" stroke="#63b8ff" points="1922,-510.59 1925.5,-520.59 1929,-510.59 1922,-510.59"/>
</g>
<!-- Node208 -->
<g id="node48" class="node">
<title>Node208</title>
<g id="a_node48"><a xlink:href="fvb-data_8cpp.html" target="_top" xlink:title=" ">
<polygon fill="white" stroke="#666666" points="2115,-481 2006,-481 2006,-451 2115,-451 2115,-481"/>
<text text-anchor="start" x="2014" y="-469" font-family="Helvetica,sans-Serif" font-size="10.00">libs/JSystem/JStudio</text>
<text text-anchor="middle" x="2060.5" y="-458" font-family="Helvetica,sans-Serif" font-size="10.00">/JStudio/fvb&#45;data.cpp</text>
</a>
</g>
</g>
<!-- Node3&#45;&gt;Node208 -->
<g id="edge69" class="edge">
<title>Node3&#45;&gt;Node208</title>
<path fill="none" stroke="#63b8ff" d="M1963.46,-516.96C1985.42,-505.65 2012.57,-491.67 2032.56,-481.38"/>
<polygon fill="#63b8ff" stroke="#63b8ff" points="1962.11,-513.72 1954.82,-521.41 1965.31,-519.94 1962.11,-513.72"/>
</g>
<!-- Node5 -->
<g id="node5" class="node">
<title>Node5</title>
<g id="a_node5"><a xlink:href="JMessage_2control_8h.html" target="_top" xlink:title=" ">
<polygon fill="white" stroke="#666666" points="1433,-349 1296,-349 1296,-319 1433,-319 1433,-349"/>
<text text-anchor="start" x="1304" y="-337" font-family="Helvetica,sans-Serif" font-size="10.00">include/JSystem/JMessage</text>
<text text-anchor="middle" x="1364.5" y="-326" font-family="Helvetica,sans-Serif" font-size="10.00">/control.h</text>
</a>
</g>
</g>
<!-- Node4&#45;&gt;Node5 -->
<g id="edge4" class="edge">
<title>Node4&#45;&gt;Node5</title>
<path fill="none" stroke="#63b8ff" d="M1472.3,-439.9C1465.88,-423.01 1455.64,-400.99 1441.5,-385 1428.4,-370.2 1409.93,-358 1394.36,-349.36"/>
<polygon fill="#63b8ff" stroke="#63b8ff" points="1468.97,-440.98 1475.64,-449.22 1475.56,-438.62 1468.97,-440.98"/>
</g>
<!-- Node60 -->
<g id="node20" class="node">
<title>Node60</title>
<g id="a_node20"><a xlink:href="d__msg__object_8h.html" target="_top" xlink:title=" ">
<polygon fill="white" stroke="#666666" points="1326.5,-217 1216.5,-217 1216.5,-187 1326.5,-187 1326.5,-217"/>
<text text-anchor="start" x="1224.5" y="-205" font-family="Helvetica,sans-Serif" font-size="10.00">include/d/msg/d_msg</text>
<text text-anchor="middle" x="1271.5" y="-194" font-family="Helvetica,sans-Serif" font-size="10.00">_object.h</text>
</a>
</g>
</g>
<!-- Node4&#45;&gt;Node60 -->
<g id="edge58" class="edge">
<title>Node4&#45;&gt;Node60</title>
<path fill="none" stroke="#63b8ff" d="M1501.74,-442.3C1538.27,-400.48 1604.64,-310.32 1556.5,-253 1527.75,-218.76 1401.19,-207.96 1326.74,-204.56"/>
<polygon fill="#63b8ff" stroke="#63b8ff" points="1499.3,-439.77 1495.25,-449.56 1504.52,-444.44 1499.3,-439.77"/>
</g>
<!-- Node176 -->
<g id="node39" class="node">
<title>Node176</title>
<g id="a_node39"><a xlink:href="processor_8cpp.html" target="_top" xlink:title=" ">
<polygon fill="white" stroke="#666666" points="1548,-283 1427,-283 1427,-253 1548,-253 1548,-283"/>
<text text-anchor="start" x="1435" y="-271" font-family="Helvetica,sans-Serif" font-size="10.00">libs/JSystem/JMessage</text>
<text text-anchor="middle" x="1487.5" y="-260" font-family="Helvetica,sans-Serif" font-size="10.00">/processor.cpp</text>
</a>
</g>
</g>
<!-- Node4&#45;&gt;Node176 -->
<g id="edge59" class="edge">
<title>Node4&#45;&gt;Node176</title>
<path fill="none" stroke="#63b8ff" d="M1481.42,-439.22C1482.91,-397.46 1485.81,-316.37 1486.98,-283.43"/>
<polygon fill="#63b8ff" stroke="#63b8ff" points="1477.93,-438.96 1481.07,-449.08 1484.92,-439.21 1477.93,-438.96"/>
</g>
<!-- Node177 -->
<g id="node40" class="node">
<title>Node177</title>
<g id="a_node40"><a xlink:href="processor_8h.html" target="_top" xlink:title=" ">
<polygon fill="white" stroke="#666666" points="1433,-415 1296,-415 1296,-385 1433,-385 1433,-415"/>
<text text-anchor="start" x="1304" y="-403" font-family="Helvetica,sans-Serif" font-size="10.00">include/JSystem/JMessage</text>
<text text-anchor="middle" x="1364.5" y="-392" font-family="Helvetica,sans-Serif" font-size="10.00">/processor.h</text>
</a>
</g>
</g>
<!-- Node4&#45;&gt;Node177 -->
<g id="edge52" class="edge">
<title>Node4&#45;&gt;Node177</title>
<path fill="none" stroke="#63b8ff" d="M1444.58,-445.18C1427.07,-435.52 1406.4,-424.12 1390.45,-415.31"/>
<polygon fill="#63b8ff" stroke="#63b8ff" points="1442.7,-448.14 1453.14,-449.91 1446.08,-442.01 1442.7,-448.14"/>
</g>
<!-- Node178 -->
<g id="node41" class="node">
<title>Node178</title>
<g id="a_node41"><a xlink:href="resource_8cpp.html" target="_top" xlink:title=" ">
<polygon fill="white" stroke="#666666" points="1278,-415 1157,-415 1157,-385 1278,-385 1278,-415"/>
<text text-anchor="start" x="1165" y="-403" font-family="Helvetica,sans-Serif" font-size="10.00">libs/JSystem/JMessage</text>
<text text-anchor="middle" x="1217.5" y="-392" font-family="Helvetica,sans-Serif" font-size="10.00">/resource.cpp</text>
</a>
</g>
</g>
<!-- Node4&#45;&gt;Node178 -->
<g id="edge60" class="edge">
<title>Node4&#45;&gt;Node178</title>
<path fill="none" stroke="#63b8ff" d="M1409.97,-447.84C1368.3,-437.7 1316.14,-425 1276.63,-415.39"/>
<polygon fill="#63b8ff" stroke="#63b8ff" points="1409.14,-451.24 1419.68,-450.2 1410.79,-444.43 1409.14,-451.24"/>
</g>
<!-- Node6 -->
<g id="node6" class="node">
<title>Node6</title>
<g id="a_node6"><a xlink:href="d__demo_8h.html" target="_top" xlink:title=" ">
<polygon fill="white" stroke="#666666" points="2549,-211.5 2448,-211.5 2448,-192.5 2549,-192.5 2549,-211.5"/>
<text text-anchor="middle" x="2498.5" y="-199.5" font-family="Helvetica,sans-Serif" font-size="10.00">include/d/d_demo.h</text>
</a>
</g>
</g>
<!-- Node5&#45;&gt;Node6 -->
<g id="edge5" class="edge">
<title>Node5&#45;&gt;Node6</title>
<path fill="none" stroke="#63b8ff" d="M1373.65,-308.2C1381.99,-289.48 1396.28,-265.04 1417.5,-253 1507.69,-201.85 2246.13,-201.73 2447.79,-202.67"/>
<polygon fill="#63b8ff" stroke="#63b8ff" points="1370.48,-306.71 1369.9,-317.28 1376.95,-309.38 1370.48,-306.71"/>
</g>
<!-- Node16 -->
<g id="node16" class="node">
<title>Node16</title>
<g id="a_node16"><a xlink:href="d__msg__class_8h.html" target="_top" xlink:title=" ">
<polygon fill="white" stroke="#666666" points="1154.5,-283 1044.5,-283 1044.5,-253 1154.5,-253 1154.5,-283"/>
<text text-anchor="start" x="1052.5" y="-271" font-family="Helvetica,sans-Serif" font-size="10.00">include/d/msg/d_msg</text>
<text text-anchor="middle" x="1099.5" y="-260" font-family="Helvetica,sans-Serif" font-size="10.00">_class.h</text>
</a>
</g>
</g>
<!-- Node5&#45;&gt;Node16 -->
<g id="edge15" class="edge">
<title>Node5&#45;&gt;Node16</title>
<path fill="none" stroke="#63b8ff" d="M1293.59,-315.87C1249.97,-305.34 1194.89,-292.04 1154.57,-282.3"/>
<polygon fill="#63b8ff" stroke="#63b8ff" points="1292.68,-319.26 1303.23,-318.2 1294.33,-312.45 1292.68,-319.26"/>
</g>
<!-- Node5&#45;&gt;Node60 -->
<g id="edge49" class="edge">
<title>Node5&#45;&gt;Node60</title>
<path fill="none" stroke="#63b8ff" d="M1361.21,-307.64C1358.05,-290.9 1351.99,-269.17 1340.5,-253 1329.96,-238.17 1313.62,-226.04 1299.49,-217.45"/>
<polygon fill="#63b8ff" stroke="#63b8ff" points="1357.72,-307.99 1362.78,-317.29 1364.63,-306.86 1357.72,-307.99"/>
</g>
<!-- Node175 -->
<g id="node38" class="node">
<title>Node175</title>
<g id="a_node38"><a xlink:href="JMessage_2control_8cpp.html" target="_top" xlink:title=" ">
<polygon fill="white" stroke="#666666" points="1332,-283 1211,-283 1211,-253 1332,-253 1332,-283"/>
<text text-anchor="start" x="1219" y="-271" font-family="Helvetica,sans-Serif" font-size="10.00">libs/JSystem/JMessage</text>
<text text-anchor="middle" x="1271.5" y="-260" font-family="Helvetica,sans-Serif" font-size="10.00">/control.cpp</text>
</a>
</g>
</g>
<!-- Node5&#45;&gt;Node175 -->
<g id="edge50" class="edge">
<title>Node5&#45;&gt;Node175</title>
<path fill="none" stroke="#63b8ff" d="M1334.75,-312.52C1320.95,-303.03 1304.89,-291.98 1292.4,-283.39"/>
<polygon fill="#63b8ff" stroke="#63b8ff" points="1332.39,-315.15 1342.61,-317.94 1336.36,-309.39 1332.39,-315.15"/>
</g>
<!-- Node5&#45;&gt;Node176 -->
<g id="edge51" class="edge">
<title>Node5&#45;&gt;Node176</title>
<path fill="none" stroke="#63b8ff" d="M1402.07,-313.45C1420.75,-303.73 1442.91,-292.2 1459.99,-283.31"/>
<polygon fill="#63b8ff" stroke="#63b8ff" points="1400.7,-310.22 1393.45,-317.94 1403.93,-316.43 1400.7,-310.22"/>
</g>
<!-- Node7 -->
<g id="node7" class="node">
<title>Node7</title>
<g id="a_node7"><a xlink:href="d__a__alink_8cpp.html" target="_top" xlink:title=" ">
<polygon fill="white" stroke="#666666" points="2177,-145.5 2068,-145.5 2068,-126.5 2177,-126.5 2177,-145.5"/>
<text text-anchor="middle" x="2122.5" y="-133.5" font-family="Helvetica,sans-Serif" font-size="10.00">src/d/a/d_a_alink.cpp</text>
</a>
</g>
</g>
<!-- Node6&#45;&gt;Node7 -->
<g id="edge6" class="edge">
<title>Node6&#45;&gt;Node7</title>
<path fill="none" stroke="#63b8ff" d="M2436.21,-192.08C2373.1,-182.79 2272.76,-167.33 2186.5,-151 2178.45,-149.48 2169.87,-147.7 2161.69,-145.94"/>
<polygon fill="#63b8ff" stroke="#63b8ff" points="2435.65,-195.53 2446.05,-193.52 2436.66,-188.6 2435.65,-195.53"/>
</g>
<!-- Node8 -->
<g id="node8" class="node">
<title>Node8</title>
<g id="a_node8"><a xlink:href="d__com__static_8cpp.html" target="_top" xlink:title=" ">
<polygon fill="white" stroke="#666666" points="2832.5,-145.5 2692.5,-145.5 2692.5,-126.5 2832.5,-126.5 2832.5,-145.5"/>
<text text-anchor="middle" x="2762.5" y="-133.5" font-family="Helvetica,sans-Serif" font-size="10.00">src/d/com/d_com_static.cpp</text>
</a>
</g>
</g>
<!-- Node6&#45;&gt;Node8 -->
<g id="edge7" class="edge">
<title>Node6&#45;&gt;Node8</title>
<path fill="none" stroke="#63b8ff" d="M2546.67,-189.32C2598.28,-176.81 2679.05,-157.23 2725.76,-145.91"/>
<polygon fill="#63b8ff" stroke="#63b8ff" points="2545.85,-185.92 2536.96,-191.68 2547.5,-192.72 2545.85,-185.92"/>
</g>
<!-- Node9 -->
<g id="node9" class="node">
<title>Node9</title>
<g id="a_node9"><a xlink:href="d__demo_8cpp.html" target="_top" xlink:title=" ">
<polygon fill="white" stroke="#666666" points="2289.5,-145.5 2195.5,-145.5 2195.5,-126.5 2289.5,-126.5 2289.5,-145.5"/>
<text text-anchor="middle" x="2242.5" y="-133.5" font-family="Helvetica,sans-Serif" font-size="10.00">src/d/d_demo.cpp</text>
</a>
</g>
</g>
<!-- Node6&#45;&gt;Node9 -->
<g id="edge8" class="edge">
<title>Node6&#45;&gt;Node9</title>
<path fill="none" stroke="#63b8ff" d="M2451.48,-189.24C2401.42,-176.73 2323.33,-157.21 2278.12,-145.91"/>
<polygon fill="#63b8ff" stroke="#63b8ff" points="2450.62,-192.64 2461.17,-191.67 2452.31,-185.85 2450.62,-192.64"/>
</g>
<!-- Node10 -->
<g id="node10" class="node">
<title>Node10</title>
<g id="a_node10"><a xlink:href="d__event_8cpp.html" target="_top" xlink:title=" ">
<polygon fill="white" stroke="#666666" points="2429,-145.5 2308,-145.5 2308,-126.5 2429,-126.5 2429,-145.5"/>
<text text-anchor="middle" x="2368.5" y="-133.5" font-family="Helvetica,sans-Serif" font-size="10.00">src/d/event/d_event.cpp</text>
</a>
</g>
</g>
<!-- Node6&#45;&gt;Node10 -->
<g id="edge9" class="edge">
<title>Node6&#45;&gt;Node10</title>
<path fill="none" stroke="#63b8ff" d="M2470.27,-187.1C2444.79,-174.56 2408.08,-156.49 2386.42,-145.82"/>
<polygon fill="#63b8ff" stroke="#63b8ff" points="2468.55,-190.16 2479.07,-191.43 2471.64,-183.88 2468.55,-190.16"/>
</g>
<!-- Node11 -->
<g id="node11" class="node">
<title>Node11</title>
<g id="a_node11"><a xlink:href="d__event__data_8cpp.html" target="_top" xlink:title=" ">
<polygon fill="white" stroke="#666666" points="2550,-151 2447,-151 2447,-121 2550,-121 2550,-151"/>
<text text-anchor="start" x="2455" y="-139" font-family="Helvetica,sans-Serif" font-size="10.00">src/d/event/d_event</text>
<text text-anchor="middle" x="2498.5" y="-128" font-family="Helvetica,sans-Serif" font-size="10.00">_data.cpp</text>
</a>
</g>
</g>
<!-- Node6&#45;&gt;Node11 -->
<g id="edge10" class="edge">
<title>Node6&#45;&gt;Node11</title>
<path fill="none" stroke="#63b8ff" d="M2498.5,-180.78C2498.5,-171.17 2498.5,-159.92 2498.5,-151.23"/>
<polygon fill="#63b8ff" stroke="#63b8ff" points="2495,-180.59 2498.5,-190.59 2502,-180.59 2495,-180.59"/>
</g>
<!-- Node12 -->
<g id="node12" class="node">
<title>Node12</title>
<g id="a_node12"><a xlink:href="d__kankyo__rain_8cpp.html" target="_top" xlink:title=" ">
<polygon fill="white" stroke="#666666" points="2966.5,-151 2850.5,-151 2850.5,-121 2966.5,-121 2966.5,-151"/>
<text text-anchor="start" x="2858.5" y="-139" font-family="Helvetica,sans-Serif" font-size="10.00">src/d/kankyo/d_kankyo</text>
<text text-anchor="middle" x="2908.5" y="-128" font-family="Helvetica,sans-Serif" font-size="10.00">_rain.cpp</text>
</a>
</g>
</g>
<!-- Node6&#45;&gt;Node12 -->
<g id="edge11" class="edge">
<title>Node6&#45;&gt;Node12</title>
<path fill="none" stroke="#63b8ff" d="M2560.28,-193.15C2629.09,-184.14 2743.55,-168.36 2841.5,-151 2844.31,-150.5 2847.18,-149.98 2850.08,-149.43"/>
<polygon fill="#63b8ff" stroke="#63b8ff" points="2560.18,-189.64 2550.72,-194.4 2561.09,-196.58 2560.18,-189.64"/>
</g>
<!-- Node13 -->
<g id="node13" class="node">
<title>Node13</title>
<g id="a_node13"><a xlink:href="d__meter2_8cpp.html" target="_top" xlink:title=" ">
<polygon fill="white" stroke="#666666" points="1990.5,-79.5 1862.5,-79.5 1862.5,-60.5 1990.5,-60.5 1990.5,-79.5"/>
<text text-anchor="middle" x="1926.5" y="-67.5" font-family="Helvetica,sans-Serif" font-size="10.00">src/d/meter/d_meter2.cpp</text>
</a>
</g>
</g>
<!-- Node6&#45;&gt;Node13 -->
<g id="edge12" class="edge">
<title>Node6&#45;&gt;Node13</title>
<path fill="none" stroke="#63b8ff" d="M2560.91,-199.02C2683.94,-194.48 2948.24,-181.27 2975.5,-151 2984.42,-141.09 2984.7,-130.65 2975.5,-121 2941.43,-85.27 2213.89,-74.21 1990.9,-71.65"/>
<polygon fill="#63b8ff" stroke="#63b8ff" points="2560.84,-195.52 2550.97,-199.38 2561.09,-202.52 2560.84,-195.52"/>
</g>
<!-- Node14 -->
<g id="node14" class="node">
<title>Node14</title>
<g id="a_node14"><a xlink:href="d__s__play_8cpp.html" target="_top" xlink:title=" ">
<polygon fill="white" stroke="#666666" points="2674.5,-145.5 2568.5,-145.5 2568.5,-126.5 2674.5,-126.5 2674.5,-145.5"/>
<text text-anchor="middle" x="2621.5" y="-133.5" font-family="Helvetica,sans-Serif" font-size="10.00">src/d/s/d_s_play.cpp</text>
</a>
</g>
</g>
<!-- Node6&#45;&gt;Node14 -->
<g id="edge13" class="edge">
<title>Node6&#45;&gt;Node14</title>
<path fill="none" stroke="#63b8ff" d="M2525.53,-186.93C2549.63,-174.4 2584.14,-156.44 2604.54,-145.82"/>
<polygon fill="#63b8ff" stroke="#63b8ff" points="2524.2,-183.68 2516.95,-191.4 2527.43,-189.89 2524.2,-183.68"/>
</g>
<!-- Node15 -->
<g id="node15" class="node">
<title>Node15</title>
<g id="a_node15"><a xlink:href="f__op__actor_8cpp.html" target="_top" xlink:title=" ">
<polygon fill="white" stroke="#666666" points="3142,-145.5 3023,-145.5 3023,-126.5 3142,-126.5 3142,-145.5"/>
<text text-anchor="middle" x="3082.5" y="-133.5" font-family="Helvetica,sans-Serif" font-size="10.00">src/f_op/f_op_actor.cpp</text>
</a>
</g>
</g>
<!-- Node6&#45;&gt;Node15 -->
<g id="edge14" class="edge">
<title>Node6&#45;&gt;Node15</title>
<path fill="none" stroke="#63b8ff" d="M2560.61,-196.71C2656.86,-189.65 2847.71,-174.04 3008.5,-151 3018.34,-149.59 3028.85,-147.78 3038.78,-145.94"/>
<polygon fill="#63b8ff" stroke="#63b8ff" points="2560.58,-193.2 2550.86,-197.42 2561.09,-200.18 2560.58,-193.2"/>
</g>
<!-- Node17 -->
<g id="node17" class="node">
<title>Node17</title>
<g id="a_node17"><a xlink:href="d__meter2__info_8h.html" target="_top" xlink:title=" ">
<polygon fill="#fff0f0" stroke="red" points="361,-151 234,-151 234,-121 361,-121 361,-151"/>
<text text-anchor="start" x="242" y="-139" font-family="Helvetica,sans-Serif" font-size="10.00">include/d/meter/d_meter2</text>
<text text-anchor="middle" x="297.5" y="-128" font-family="Helvetica,sans-Serif" font-size="10.00">_info.h</text>
</a>
</g>
</g>
<!-- Node16&#45;&gt;Node17 -->
<g id="edge16" class="edge">
<title>Node16&#45;&gt;Node17</title>
<path fill="none" stroke="#63b8ff" d="M1032.9,-257.12C904.53,-237.93 614.03,-193.72 370.5,-151 367.45,-150.46 364.33,-149.91 361.18,-149.34"/>
<polygon fill="#63b8ff" stroke="#63b8ff" points="1032.17,-260.55 1042.57,-258.57 1033.2,-253.63 1032.17,-260.55"/>
</g>
<!-- Node16&#45;&gt;Node60 -->
<g id="edge19" class="edge">
<title>Node16&#45;&gt;Node60</title>
<path fill="none" stroke="#63b8ff" d="M1148.76,-248.67C1175.42,-238.75 1207.89,-226.67 1232.73,-217.43"/>
<polygon fill="#63b8ff" stroke="#63b8ff" points="1147.67,-245.34 1139.52,-252.11 1150.11,-251.9 1147.67,-245.34"/>
</g>
<!-- Node72 -->
<g id="node32" class="node">
<title>Node72</title>
<g id="a_node32"><a xlink:href="d__msg__class_8cpp.html" target="_top" xlink:title=" ">
<polygon fill="white" stroke="#666666" points="139,-145.5 0,-145.5 0,-126.5 139,-126.5 139,-145.5"/>
<text text-anchor="middle" x="69.5" y="-133.5" font-family="Helvetica,sans-Serif" font-size="10.00">src/d/msg/d_msg_class.cpp</text>
</a>
</g>
</g>
<!-- Node16&#45;&gt;Node72 -->
<g id="edge48" class="edge">
<title>Node16&#45;&gt;Node72</title>
<path fill="none" stroke="#63b8ff" d="M1032.9,-261.64C935.09,-253.51 746.92,-236.89 587.5,-217 393.89,-192.84 346.18,-181.71 153.5,-151 143.43,-149.39 132.68,-147.64 122.36,-145.93"/>
<polygon fill="#63b8ff" stroke="#63b8ff" points="1032.32,-265.11 1042.58,-262.44 1032.9,-258.13 1032.32,-265.11"/>
</g>
<!-- Node39 -->
<g id="node18" class="node">
<title>Node39</title>
<g id="a_node18"><a xlink:href="d__com__inf__game_8cpp.html" target="_top" xlink:title=" ">
<polygon fill="white" stroke="#666666" points="482.5,-85 374.5,-85 374.5,-55 482.5,-55 482.5,-85"/>
<text text-anchor="start" x="382.5" y="-73" font-family="Helvetica,sans-Serif" font-size="10.00">src/d/com/d_com_inf</text>
<text text-anchor="middle" x="428.5" y="-62" font-family="Helvetica,sans-Serif" font-size="10.00">_game.cpp</text>
</a>
</g>
</g>
<!-- Node17&#45;&gt;Node39 -->
<g id="edge17" class="edge">
<title>Node17&#45;&gt;Node39</title>
<path fill="none" stroke="#63b8ff" d="M337.23,-115.59C357.19,-105.84 380.93,-94.24 399.2,-85.31"/>
<polygon fill="#63b8ff" stroke="#63b8ff" points="335.71,-112.44 328.26,-119.97 338.78,-118.73 335.71,-112.44"/>
</g>
<!-- Node25 -->
<g id="node19" class="node">
<title>Node25</title>
<g id="a_node19"><a xlink:href="d__meter2__info_8cpp.html" target="_top" xlink:title=" ">
<polygon fill="white" stroke="#666666" points="352.5,-85 242.5,-85 242.5,-55 352.5,-55 352.5,-85"/>
<text text-anchor="start" x="250.5" y="-73" font-family="Helvetica,sans-Serif" font-size="10.00">src/d/meter/d_meter2</text>
<text text-anchor="middle" x="297.5" y="-62" font-family="Helvetica,sans-Serif" font-size="10.00">_info.cpp</text>
</a>
</g>
</g>
<!-- Node17&#45;&gt;Node25 -->
<g id="edge18" class="edge">
<title>Node17&#45;&gt;Node25</title>
<path fill="none" stroke="#63b8ff" d="M297.5,-109.39C297.5,-101.13 297.5,-92.28 297.5,-85.16"/>
<polygon fill="#63b8ff" stroke="#63b8ff" points="294,-109.28 297.5,-119.28 301,-109.28 294,-109.28"/>
</g>
<!-- Node60&#45;&gt;Node7 -->
<g id="edge30" class="edge">
<title>Node60&#45;&gt;Node7</title>
<path fill="none" stroke="#63b8ff" d="M1338.07,-200.18C1474.08,-197.74 1793.37,-188.2 2058.5,-151 2067.51,-149.74 2077.14,-147.89 2086.12,-145.96"/>
<polygon fill="#63b8ff" stroke="#63b8ff" points="1338.1,-196.67 1328.17,-200.34 1338.22,-203.67 1338.1,-196.67"/>
</g>
<!-- Node60&#45;&gt;Node9 -->
<g id="edge31" class="edge">
<title>Node60&#45;&gt;Node9</title>
<path fill="none" stroke="#63b8ff" d="M1338.17,-201.68C1489.77,-202.3 1871.63,-198.52 2186.5,-151 2194.53,-149.79 2203.08,-147.94 2211.02,-145.98"/>
<polygon fill="#63b8ff" stroke="#63b8ff" points="1338.32,-198.18 1328.31,-201.63 1338.29,-205.18 1338.32,-198.18"/>
</g>
<!-- Node60&#45;&gt;Node10 -->
<g id="edge32" class="edge">
<title>Node60&#45;&gt;Node10</title>
<path fill="none" stroke="#63b8ff" d="M1338.19,-201.18C1502.23,-200.87 1938.21,-195.55 2298.5,-151 2308.46,-149.77 2319.13,-147.91 2329.06,-145.96"/>
<polygon fill="#63b8ff" stroke="#63b8ff" points="1338.36,-197.68 1328.37,-201.19 1338.37,-204.68 1338.36,-197.68"/>
</g>
<!-- Node60&#45;&gt;Node11 -->
<g id="edge33" class="edge">
<title>Node60&#45;&gt;Node11</title>
<path fill="none" stroke="#63b8ff" d="M1338.25,-199.78C1552.85,-195.59 2223.58,-180.42 2438.5,-151 2441.15,-150.64 2443.85,-150.21 2446.58,-149.74"/>
<polygon fill="#63b8ff" stroke="#63b8ff" points="1338.32,-196.27 1328.39,-199.97 1338.46,-203.27 1338.32,-196.27"/>
</g>
<!-- Node60&#45;&gt;Node14 -->
<g id="edge43" class="edge">
<title>Node60&#45;&gt;Node14</title>
<path fill="none" stroke="#63b8ff" d="M1338.48,-200.02C1567.71,-196.42 2319.88,-182.44 2559.5,-151 2568.47,-149.82 2578.06,-147.96 2586.94,-145.98"/>
<polygon fill="#63b8ff" stroke="#63b8ff" points="1338.46,-196.52 1328.51,-200.18 1338.57,-203.52 1338.46,-196.52"/>
</g>
<!-- Node60&#45;&gt;Node25 -->
<g id="edge37" class="edge">
<title>Node60&#45;&gt;Node25</title>
<path fill="none" stroke="#63b8ff" d="M1204.89,-200.32C979.61,-197.7 258.38,-186.54 224.5,-151 203.03,-128.48 239.83,-101.64 268.53,-85.48"/>
<polygon fill="#63b8ff" stroke="#63b8ff" points="1204.63,-203.82 1214.67,-200.43 1204.71,-196.82 1204.63,-203.82"/>
</g>
<!-- Node20 -->
<g id="node21" class="node">
<title>Node20</title>
<g id="a_node21"><a xlink:href="d__a__npc_8h.html" target="_top" xlink:title=" ">
<polygon fill="white" stroke="#666666" points="739,-145.5 628,-145.5 628,-126.5 739,-126.5 739,-145.5"/>
<text text-anchor="middle" x="683.5" y="-133.5" font-family="Helvetica,sans-Serif" font-size="10.00">include/d/a/d_a_npc.h</text>
</a>
</g>
</g>
<!-- Node60&#45;&gt;Node20 -->
<g id="edge20" class="edge">
<title>Node60&#45;&gt;Node20</title>
<path fill="none" stroke="#63b8ff" d="M1204.77,-196.73C1105.87,-189.9 914.7,-174.84 753.5,-151 744.18,-149.62 734.23,-147.83 724.84,-145.99"/>
<polygon fill="#63b8ff" stroke="#63b8ff" points="1204.35,-200.21 1214.57,-197.4 1204.83,-193.22 1204.35,-200.21"/>
</g>
<!-- Node22 -->
<g id="node23" class="node">
<title>Node22</title>
<g id="a_node23"><a xlink:href="d__msg__flow_8cpp.html" target="_top" xlink:title=" ">
<polygon fill="white" stroke="#666666" points="791,-19 658,-19 658,0 791,0 791,-19"/>
<text text-anchor="middle" x="724.5" y="-7" font-family="Helvetica,sans-Serif" font-size="10.00">src/d/msg/d_msg_flow.cpp</text>
</a>
</g>
</g>
<!-- Node60&#45;&gt;Node22 -->
<g id="edge40" class="edge">
<title>Node60&#45;&gt;Node22</title>
<path fill="none" stroke="#63b8ff" d="M1205.12,-197.96C1080.08,-191.67 819.17,-175.75 786.5,-151 749.92,-123.29 767.87,-96.6 748.5,-55 742.57,-42.27 734.68,-28.07 729.59,-19.21"/>
<polygon fill="#63b8ff" stroke="#63b8ff" points="1204.75,-201.44 1214.91,-198.44 1205.1,-194.45 1204.75,-201.44"/>
</g>
<!-- Node23 -->
<g id="node24" class="node">
<title>Node23</title>
<g id="a_node24"><a xlink:href="d__shop__system_8cpp.html" target="_top" xlink:title=" ">
<polygon fill="white" stroke="#666666" points="462.5,-19 310.5,-19 310.5,0 462.5,0 462.5,-19"/>
<text text-anchor="middle" x="386.5" y="-7" font-family="Helvetica,sans-Serif" font-size="10.00">src/d/shop/d_shop_system.cpp</text>
</a>
</g>
</g>
<!-- Node60&#45;&gt;Node23 -->
<g id="edge44" class="edge">
<title>Node60&#45;&gt;Node23</title>
<path fill="none" stroke="#63b8ff" d="M1204.64,-200.35C977.65,-197.81 248.73,-186.89 214.5,-151 195.39,-130.96 218.77,-69.77 233.5,-55 253.82,-34.63 282.88,-23.47 310.22,-17.39"/>
<polygon fill="#63b8ff" stroke="#63b8ff" points="1204.46,-203.85 1214.5,-200.46 1204.54,-196.85 1204.46,-203.85"/>
</g>
<!-- Node61 -->
<g id="node26" class="node">
<title>Node61</title>
<g id="a_node26"><a xlink:href="d__timer_8h.html" target="_top" xlink:title=" ">
<polygon fill="#fff0f0" stroke="red" points="893.5,-145.5 795.5,-145.5 795.5,-126.5 893.5,-126.5 893.5,-145.5"/>
<text text-anchor="middle" x="844.5" y="-133.5" font-family="Helvetica,sans-Serif" font-size="10.00">include/d/d_timer.h</text>
</a>
</g>
</g>
<!-- Node60&#45;&gt;Node61 -->
<g id="edge26" class="edge">
<title>Node60&#45;&gt;Node61</title>
<path fill="none" stroke="#63b8ff" d="M1205.19,-194.08C1131.07,-185.87 1007.65,-170.76 902.5,-151 894.86,-149.57 886.73,-147.77 879.03,-145.95"/>
<polygon fill="#63b8ff" stroke="#63b8ff" points="1204.38,-197.51 1214.7,-195.13 1205.14,-190.56 1204.38,-197.51"/>
</g>
<!-- Node63 -->
<g id="node27" class="node">
<title>Node63</title>
<g id="a_node27"><a xlink:href="d__msg__string__base_8h.html" target="_top" xlink:title=" ">
<polygon fill="#fff0f0" stroke="red" points="1021.5,-151 911.5,-151 911.5,-121 1021.5,-121 1021.5,-151"/>
<text text-anchor="start" x="919.5" y="-139" font-family="Helvetica,sans-Serif" font-size="10.00">include/d/msg/d_msg</text>
<text text-anchor="middle" x="966.5" y="-128" font-family="Helvetica,sans-Serif" font-size="10.00">_string_base.h</text>
</a>
</g>
</g>
<!-- Node60&#45;&gt;Node63 -->
<g id="edge29" class="edge">
<title>Node60&#45;&gt;Node63</title>
<path fill="none" stroke="#63b8ff" d="M1205.16,-187.44C1156.73,-177.49 1089.5,-163.57 1030.5,-151 1027.72,-150.41 1024.87,-149.8 1022,-149.18"/>
<polygon fill="#63b8ff" stroke="#63b8ff" points="1204.45,-190.86 1214.94,-189.45 1205.85,-184.01 1204.45,-190.86"/>
</g>
<!-- Node70 -->
<g id="node28" class="node">
<title>Node70</title>
<g id="a_node28"><a xlink:href="d__kankyo_8cpp.html" target="_top" xlink:title=" ">
<polygon fill="white" stroke="#666666" points="1173.5,-145.5 1039.5,-145.5 1039.5,-126.5 1173.5,-126.5 1173.5,-145.5"/>
<text text-anchor="middle" x="1106.5" y="-133.5" font-family="Helvetica,sans-Serif" font-size="10.00">src/d/kankyo/d_kankyo.cpp</text>
</a>
</g>
</g>
<!-- Node60&#45;&gt;Node70 -->
<g id="edge34" class="edge">
<title>Node60&#45;&gt;Node70</title>
<path fill="none" stroke="#63b8ff" d="M1223.9,-182.54C1192.96,-170.54 1154,-155.43 1129.67,-145.99"/>
<polygon fill="#63b8ff" stroke="#63b8ff" points="1222.47,-185.74 1233.06,-186.09 1225,-179.21 1222.47,-185.74"/>
</g>
<!-- Node67 -->
<g id="node29" class="node">
<title>Node67</title>
<g id="a_node29"><a xlink:href="d__menu__window_8cpp.html" target="_top" xlink:title=" ">
<polygon fill="white" stroke="#666666" points="1351,-145.5 1192,-145.5 1192,-126.5 1351,-126.5 1351,-145.5"/>
<text text-anchor="middle" x="1271.5" y="-133.5" font-family="Helvetica,sans-Serif" font-size="10.00">src/d/menu/d_menu_window.cpp</text>
</a>
</g>
</g>
<!-- Node60&#45;&gt;Node67 -->
<g id="edge35" class="edge">
<title>Node60&#45;&gt;Node67</title>
<path fill="none" stroke="#63b8ff" d="M1271.5,-175.59C1271.5,-165.06 1271.5,-153.53 1271.5,-145.84"/>
<polygon fill="#63b8ff" stroke="#63b8ff" points="1268,-175.28 1271.5,-185.28 1275,-175.28 1268,-175.28"/>
</g>
<!-- Node43 -->
<g id="node30" class="node">
<title>Node43</title>
<g id="a_node30"><a xlink:href="d__meter2__draw_8cpp.html" target="_top" xlink:title=" ">
<polygon fill="white" stroke="#666666" points="1479.5,-151 1369.5,-151 1369.5,-121 1479.5,-121 1479.5,-151"/>
<text text-anchor="start" x="1377.5" y="-139" font-family="Helvetica,sans-Serif" font-size="10.00">src/d/meter/d_meter2</text>
<text text-anchor="middle" x="1424.5" y="-128" font-family="Helvetica,sans-Serif" font-size="10.00">_draw.cpp</text>
</a>
</g>
</g>
<!-- Node60&#45;&gt;Node43 -->
<g id="edge36" class="edge">
<title>Node60&#45;&gt;Node43</title>
<path fill="none" stroke="#63b8ff" d="M1316.27,-182.27C1339.8,-172.43 1368.21,-160.55 1390.01,-151.43"/>
<polygon fill="#63b8ff" stroke="#63b8ff" points="1315.11,-178.97 1307.23,-186.05 1317.81,-185.42 1315.11,-178.97"/>
</g>
<!-- Node71 -->
<g id="node31" class="node">
<title>Node71</title>
<g id="a_node31"><a xlink:href="d__meter__map_8cpp.html" target="_top" xlink:title=" ">
<polygon fill="white" stroke="#666666" points="1601.5,-151 1497.5,-151 1497.5,-121 1601.5,-121 1601.5,-151"/>
<text text-anchor="start" x="1505.5" y="-139" font-family="Helvetica,sans-Serif" font-size="10.00">src/d/meter/d_meter</text>
<text text-anchor="middle" x="1549.5" y="-128" font-family="Helvetica,sans-Serif" font-size="10.00">_map.cpp</text>
</a>
</g>
</g>
<!-- Node60&#45;&gt;Node71 -->
<g id="edge38" class="edge">
<title>Node60&#45;&gt;Node71</title>
<path fill="none" stroke="#63b8ff" d="M1337.84,-185.73C1386.63,-174.49 1452.04,-159.44 1497.17,-149.05"/>
<polygon fill="#63b8ff" stroke="#63b8ff" points="1337.19,-182.29 1328.23,-187.94 1338.76,-189.11 1337.19,-182.29"/>
</g>
<!-- Node60&#45;&gt;Node72 -->
<g id="edge39" class="edge">
<title>Node60&#45;&gt;Node72</title>
<path fill="none" stroke="#63b8ff" d="M1204.57,-200.81C1030.71,-199.72 550.63,-192.82 153.5,-151 141.74,-149.76 129.12,-147.93 117.34,-146"/>
<polygon fill="#63b8ff" stroke="#63b8ff" points="1204.53,-204.31 1214.55,-200.87 1204.57,-197.31 1204.53,-204.31"/>
</g>
<!-- Node73 -->
<g id="node33" class="node">
<title>Node73</title>
<g id="a_node33"><a xlink:href="d__msg__object_8cpp.html" target="_top" xlink:title=" ">
<polygon fill="white" stroke="#666666" points="1761.5,-145.5 1619.5,-145.5 1619.5,-126.5 1761.5,-126.5 1761.5,-145.5"/>
<text text-anchor="middle" x="1690.5" y="-133.5" font-family="Helvetica,sans-Serif" font-size="10.00">src/d/msg/d_msg_object.cpp</text>
</a>
</g>
</g>
<!-- Node60&#45;&gt;Node73 -->
<g id="edge41" class="edge">
<title>Node60&#45;&gt;Node73</title>
<path fill="none" stroke="#63b8ff" d="M1337.79,-191.76C1406.19,-182.1 1515.92,-166.25 1610.5,-151 1620.24,-149.43 1630.64,-147.67 1640.6,-145.94"/>
<polygon fill="#63b8ff" stroke="#63b8ff" points="1337.68,-188.24 1328.26,-193.1 1338.65,-195.17 1337.68,-188.24"/>
</g>
<!-- Node74 -->
<g id="node34" class="node">
<title>Node74</title>
<g id="a_node34"><a xlink:href="d__msg__out__font_8cpp.html" target="_top" xlink:title=" ">
<polygon fill="white" stroke="#666666" points="1891,-151 1780,-151 1780,-121 1891,-121 1891,-151"/>
<text text-anchor="start" x="1788" y="-139" font-family="Helvetica,sans-Serif" font-size="10.00">src/d/msg/d_msg_out</text>
<text text-anchor="middle" x="1835.5" y="-128" font-family="Helvetica,sans-Serif" font-size="10.00">_font.cpp</text>
</a>
</g>
</g>
<!-- Node60&#45;&gt;Node74 -->
<g id="edge42" class="edge">
<title>Node60&#45;&gt;Node74</title>
<path fill="none" stroke="#63b8ff" d="M1338.03,-196.72C1433.97,-190.01 1616.57,-175.21 1770.5,-151 1773.46,-150.53 1776.5,-150.02 1779.55,-149.47"/>
<polygon fill="#63b8ff" stroke="#63b8ff" points="1338.01,-193.21 1328.28,-197.39 1338.5,-200.2 1338.01,-193.21"/>
</g>
<!-- Node75 -->
<g id="node35" class="node">
<title>Node75</title>
<g id="a_node35"><a xlink:href="f__op__msg__mng_8cpp.html" target="_top" xlink:title=" ">
<polygon fill="white" stroke="#666666" points="2049.5,-145.5 1909.5,-145.5 1909.5,-126.5 2049.5,-126.5 2049.5,-145.5"/>
<text text-anchor="middle" x="1979.5" y="-133.5" font-family="Helvetica,sans-Serif" font-size="10.00">src/f_op/f_op_msg_mng.cpp</text>
</a>
</g>
</g>
<!-- Node60&#45;&gt;Node75 -->
<g id="edge45" class="edge">
<title>Node60&#45;&gt;Node75</title>
<path fill="none" stroke="#63b8ff" d="M1338.08,-197.76C1452.97,-191.7 1695.73,-176.88 1899.5,-151 1910.27,-149.63 1921.8,-147.82 1932.66,-145.96"/>
<polygon fill="#63b8ff" stroke="#63b8ff" points="1338.02,-194.25 1328.21,-198.27 1338.38,-201.24 1338.02,-194.25"/>
</g>
<!-- Node76 -->
<g id="node36" class="node">
<title>Node76</title>
<g id="a_node36"><a xlink:href="d__msg__scrn__base_8cpp.html" target="_top" xlink:title=" ">
<polygon fill="white" stroke="#666666" points="485.5,-151 379.5,-151 379.5,-121 485.5,-121 485.5,-151"/>
<text text-anchor="start" x="387.5" y="-139" font-family="Helvetica,sans-Serif" font-size="10.00">src/msg/scrn/d_msg</text>
<text text-anchor="middle" x="432.5" y="-128" font-family="Helvetica,sans-Serif" font-size="10.00">_scrn_base.cpp</text>
</a>
</g>
</g>
<!-- Node60&#45;&gt;Node76 -->
<g id="edge46" class="edge">
<title>Node60&#45;&gt;Node76</title>
<path fill="none" stroke="#63b8ff" d="M1204.75,-200.24C1069.87,-197.94 755.48,-188.62 494.5,-151 491.66,-150.59 488.76,-150.12 485.83,-149.6"/>
<polygon fill="#63b8ff" stroke="#63b8ff" points="1204.51,-203.74 1214.57,-200.4 1204.62,-196.74 1204.51,-203.74"/>
</g>
<!-- Node77 -->
<g id="node37" class="node">
<title>Node77</title>
<g id="a_node37"><a xlink:href="d__msg__scrn__boss_8cpp.html" target="_top" xlink:title=" ">
<polygon fill="white" stroke="#666666" points="609.5,-151 503.5,-151 503.5,-121 609.5,-121 609.5,-151"/>
<text text-anchor="start" x="511.5" y="-139" font-family="Helvetica,sans-Serif" font-size="10.00">src/msg/scrn/d_msg</text>
<text text-anchor="middle" x="556.5" y="-128" font-family="Helvetica,sans-Serif" font-size="10.00">_scrn_boss.cpp</text>
</a>
</g>
</g>
<!-- Node60&#45;&gt;Node77 -->
<g id="edge47" class="edge">
<title>Node60&#45;&gt;Node77</title>
<path fill="none" stroke="#63b8ff" d="M1204.77,-199.1C1086.19,-195 831.23,-182.99 618.5,-151 615.66,-150.57 612.76,-150.09 609.84,-149.56"/>
<polygon fill="#63b8ff" stroke="#63b8ff" points="1204.53,-202.59 1214.64,-199.43 1204.77,-195.6 1204.53,-202.59"/>
</g>
<!-- Node20&#45;&gt;Node25 -->
<g id="edge25" class="edge">
<title>Node20&#45;&gt;Node25</title>
<path fill="none" stroke="#63b8ff" d="M632.85,-123.73C628.01,-122.76 623.17,-121.83 618.5,-121 506.69,-101.03 477.4,-104.46 365.5,-85 361.34,-84.28 357.05,-83.49 352.74,-82.67"/>
<polygon fill="#63b8ff" stroke="#63b8ff" points="632.08,-127.14 642.58,-125.73 633.49,-120.29 632.08,-127.14"/>
</g>
<!-- Node21 -->
<g id="node22" class="node">
<title>Node21</title>
<g id="a_node22"><a xlink:href="d__shop__system_8h.html" target="_top" xlink:title=" ">
<polygon fill="white" stroke="#666666" points="739.5,-85 625.5,-85 625.5,-55 739.5,-55 739.5,-85"/>
<text text-anchor="start" x="633.5" y="-73" font-family="Helvetica,sans-Serif" font-size="10.00">include/d/shop/d_shop</text>
<text text-anchor="middle" x="682.5" y="-62" font-family="Helvetica,sans-Serif" font-size="10.00">_system.h</text>
</a>
</g>
</g>
<!-- Node20&#45;&gt;Node21 -->
<g id="edge21" class="edge">
<title>Node20&#45;&gt;Node21</title>
<path fill="none" stroke="#63b8ff" d="M683.18,-114.78C683.03,-105.17 682.86,-93.92 682.72,-85.23"/>
<polygon fill="#63b8ff" stroke="#63b8ff" points="679.68,-114.64 683.34,-124.59 686.68,-114.53 679.68,-114.64"/>
</g>
<!-- Node24 -->
<g id="node25" class="node">
<title>Node24</title>
<g id="a_node25"><a xlink:href="d__a__npc_8cpp.html" target="_top" xlink:title=" ">
<polygon fill="white" stroke="#666666" points="607.5,-79.5 503.5,-79.5 503.5,-60.5 607.5,-60.5 607.5,-79.5"/>
<text text-anchor="middle" x="555.5" y="-67.5" font-family="Helvetica,sans-Serif" font-size="10.00">src/d/a/d_a_npc.cpp</text>
</a>
</g>
</g>
<!-- Node20&#45;&gt;Node24 -->
<g id="edge24" class="edge">
<title>Node20&#45;&gt;Node24</title>
<path fill="none" stroke="#63b8ff" d="M655.7,-121.1C630.62,-108.56 594.47,-90.49 573.15,-79.82"/>
<polygon fill="#63b8ff" stroke="#63b8ff" points="653.84,-124.08 664.35,-125.42 656.97,-117.82 653.84,-124.08"/>
</g>
<!-- Node21&#45;&gt;Node22 -->
<g id="edge22" class="edge">
<title>Node21&#45;&gt;Node22</title>
<path fill="none" stroke="#63b8ff" d="M699.48,-45.35C706.12,-36.11 713.31,-26.09 718.27,-19.18"/>
<polygon fill="#63b8ff" stroke="#63b8ff" points="696.75,-43.15 693.76,-53.31 702.44,-47.23 696.75,-43.15"/>
</g>
<!-- Node21&#45;&gt;Node23 -->
<g id="edge23" class="edge">
<title>Node21&#45;&gt;Node23</title>
<path fill="none" stroke="#63b8ff" d="M614.34,-54.58C546.19,-40.82 478.31,-27.82 434.12,-19.46"/>
<polygon fill="#63b8ff" stroke="#63b8ff" points="613.3,-57.94 623.79,-56.5 614.69,-51.08 613.3,-57.94"/>
</g>
<!-- Node61&#45;&gt;Node13 -->
<g id="edge28" class="edge">
<title>Node61&#45;&gt;Node13</title>
<path fill="none" stroke="#63b8ff" d="M887.99,-123.57C892.86,-122.57 897.77,-121.68 902.5,-121 1089.03,-94.18 1667.58,-77.52 1862.01,-72.56"/>
<polygon fill="#63b8ff" stroke="#63b8ff" points="887.28,-120.14 878.28,-125.74 888.81,-126.98 887.28,-120.14"/>
</g>
<!-- Node61&#45;&gt;Node39 -->
<g id="edge27" class="edge">
<title>Node61&#45;&gt;Node39</title>
<path fill="none" stroke="#63b8ff" d="M783.82,-126.22C771.78,-124.49 759.24,-122.68 747.5,-121 635.07,-104.89 606.34,-104.8 494.5,-85 490.69,-84.33 486.77,-83.59 482.83,-82.83"/>
<polygon fill="#63b8ff" stroke="#63b8ff" points="783.26,-129.68 793.66,-127.64 784.26,-122.75 783.26,-129.68"/>
</g>
<!-- Node177&#45;&gt;Node5 -->
<g id="edge53" class="edge">
<title>Node177&#45;&gt;Node5</title>
<path fill="none" stroke="#63b8ff" d="M1364.5,-373.39C1364.5,-365.13 1364.5,-356.28 1364.5,-349.16"/>
<polygon fill="#63b8ff" stroke="#63b8ff" points="1361,-373.28 1364.5,-383.28 1368,-373.28 1361,-373.28"/>
</g>
<!-- Node177&#45;&gt;Node16 -->
<g id="edge54" class="edge">
<title>Node177&#45;&gt;Node16</title>
<path fill="none" stroke="#63b8ff" d="M1284.6,-383.68C1239.42,-374.04 1188.15,-361.17 1168.5,-349 1141.37,-332.2 1119.24,-301.28 1107.85,-283.19"/>
<polygon fill="#63b8ff" stroke="#63b8ff" points="1283.64,-387.06 1294.14,-385.69 1285.08,-380.21 1283.64,-387.06"/>
</g>
<!-- Node177&#45;&gt;Node60 -->
<g id="edge55" class="edge">
<title>Node177&#45;&gt;Node60</title>
<path fill="none" stroke="#63b8ff" d="M1313.76,-380.11C1273.98,-362.09 1222.03,-330.57 1201.5,-283 1196.22,-270.76 1195.4,-264.86 1201.5,-253 1209.5,-237.46 1224.8,-225.68 1239.07,-217.47"/>
<polygon fill="#63b8ff" stroke="#63b8ff" points="1312.15,-383.23 1322.71,-384.01 1314.95,-376.81 1312.15,-383.23"/>
</g>
<!-- Node177&#45;&gt;Node175 -->
<g id="edge56" class="edge">
<title>Node177&#45;&gt;Node175</title>
<path fill="none" stroke="#63b8ff" d="M1319.79,-378.92C1307.26,-371.25 1294.8,-361.31 1286.5,-349 1273.07,-329.08 1270.86,-300.34 1270.9,-283.27"/>
<polygon fill="#63b8ff" stroke="#63b8ff" points="1318.05,-381.95 1328.47,-383.84 1321.5,-375.86 1318.05,-381.95"/>
</g>
<!-- Node177&#45;&gt;Node176 -->
<g id="edge57" class="edge">
<title>Node177&#45;&gt;Node176</title>
<path fill="none" stroke="#63b8ff" d="M1403.06,-378.92C1416.28,-370.81 1430.49,-360.62 1441.5,-349 1460.23,-329.23 1474.37,-300.44 1481.76,-283.32"/>
<polygon fill="#63b8ff" stroke="#63b8ff" points="1401.38,-375.85 1394.52,-383.93 1404.92,-381.88 1401.38,-375.85"/>
</g>
<!-- Node180 -->
<g id="node43" class="node">
<title>Node180</title>
<g id="a_node43"><a xlink:href="fvb_8h.html" target="_top" xlink:title=" ">
<polygon fill="white" stroke="#666666" points="1988,-415 1863,-415 1863,-385 1988,-385 1988,-415"/>
<text text-anchor="start" x="1871" y="-403" font-family="Helvetica,sans-Serif" font-size="10.00">include/JSystem/JStudio</text>
<text text-anchor="middle" x="1925.5" y="-392" font-family="Helvetica,sans-Serif" font-size="10.00">/JStudio/fvb.h</text>
</a>
</g>
</g>
<!-- Node179&#45;&gt;Node180 -->
<g id="edge62" class="edge">
<title>Node179&#45;&gt;Node180</title>
<path fill="none" stroke="#63b8ff" d="M1925.5,-439.39C1925.5,-431.13 1925.5,-422.28 1925.5,-415.16"/>
<polygon fill="#63b8ff" stroke="#63b8ff" points="1922,-439.28 1925.5,-449.28 1929,-439.28 1922,-439.28"/>
</g>
<!-- Node207 -->
<g id="node47" class="node">
<title>Node207</title>
<g id="a_node47"><a xlink:href="fvb-data-parse_8cpp.html" target="_top" xlink:title=" ">
<polygon fill="white" stroke="#666666" points="2142.5,-415 2006.5,-415 2006.5,-385 2142.5,-385 2142.5,-415"/>
<text text-anchor="start" x="2014.5" y="-403" font-family="Helvetica,sans-Serif" font-size="10.00">libs/JSystem/JStudio</text>
<text text-anchor="middle" x="2074.5" y="-392" font-family="Helvetica,sans-Serif" font-size="10.00">/JStudio/fvb&#45;data&#45;parse.cpp</text>
</a>
</g>
</g>
<!-- Node179&#45;&gt;Node207 -->
<g id="edge68" class="edge">
<title>Node179&#45;&gt;Node207</title>
<path fill="none" stroke="#63b8ff" d="M1969.41,-446.14C1992.27,-436.32 2019.78,-424.51 2040.92,-415.43"/>
<polygon fill="#63b8ff" stroke="#63b8ff" points="1968.14,-442.88 1960.33,-450.04 1970.9,-449.31 1968.14,-442.88"/>
</g>
<!-- Node181 -->
<g id="node44" class="node">
<title>Node181</title>
<g id="a_node44"><a xlink:href="jstudio-control_8h.html" target="_top" xlink:title=" ">
<polygon fill="#fff0f0" stroke="red" points="2056,-349 1931,-349 1931,-319 2056,-319 2056,-349"/>
<text text-anchor="start" x="1939" y="-337" font-family="Helvetica,sans-Serif" font-size="10.00">include/JSystem/JStudio</text>
<text text-anchor="middle" x="1993.5" y="-326" font-family="Helvetica,sans-Serif" font-size="10.00">/JStudio/jstudio&#45;control.h</text>
</a>
</g>
</g>
<!-- Node180&#45;&gt;Node181 -->
<g id="edge63" class="edge">
<title>Node180&#45;&gt;Node181</title>
<path fill="none" stroke="#63b8ff" d="M1948.78,-377.09C1958.6,-367.85 1969.74,-357.36 1978.45,-349.16"/>
<polygon fill="#63b8ff" stroke="#63b8ff" points="1946.58,-374.36 1941.69,-383.76 1951.37,-379.45 1946.58,-374.36"/>
</g>
<!-- Node182 -->
<g id="node45" class="node">
<title>Node182</title>
<g id="a_node45"><a xlink:href="jstudio-object_8h.html" target="_top" xlink:title=" ">
<polygon fill="#fff0f0" stroke="red" points="2147,-283 2022,-283 2022,-253 2147,-253 2147,-283"/>
<text text-anchor="start" x="2030" y="-271" font-family="Helvetica,sans-Serif" font-size="10.00">include/JSystem/JStudio</text>
<text text-anchor="middle" x="2084.5" y="-260" font-family="Helvetica,sans-Serif" font-size="10.00">/JStudio/jstudio&#45;object.h</text>
</a>
</g>
</g>
<!-- Node180&#45;&gt;Node182 -->
<g id="edge66" class="edge">
<title>Node180&#45;&gt;Node182</title>
<path fill="none" stroke="#63b8ff" d="M1993.41,-381.39C2023.83,-372.22 2055.18,-360.52 2065.5,-349 2081.88,-330.71 2084.83,-300.88 2085,-283.28"/>
<polygon fill="#63b8ff" stroke="#63b8ff" points="1992.78,-377.93 1984.17,-384.11 1994.75,-384.65 1992.78,-377.93"/>
</g>
<!-- Node206 -->
<g id="node46" class="node">
<title>Node206</title>
<g id="a_node46"><a xlink:href="fvb_8cpp.html" target="_top" xlink:title=" ">
<polygon fill="white" stroke="#666666" points="1913,-349 1804,-349 1804,-319 1913,-319 1913,-349"/>
<text text-anchor="start" x="1812" y="-337" font-family="Helvetica,sans-Serif" font-size="10.00">libs/JSystem/JStudio</text>
<text text-anchor="middle" x="1858.5" y="-326" font-family="Helvetica,sans-Serif" font-size="10.00">/JStudio/fvb.cpp</text>
</a>
</g>
</g>
<!-- Node180&#45;&gt;Node206 -->
<g id="edge67" class="edge">
<title>Node180&#45;&gt;Node206</title>
<path fill="none" stroke="#63b8ff" d="M1902.56,-377.09C1892.89,-367.85 1881.91,-357.36 1873.33,-349.16"/>
<polygon fill="#63b8ff" stroke="#63b8ff" points="1899.89,-379.37 1909.54,-383.75 1904.72,-374.31 1899.89,-379.37"/>
</g>
<!-- Node181&#45;&gt;Node182 -->
<g id="edge64" class="edge">
<title>Node181&#45;&gt;Node182</title>
<path fill="none" stroke="#63b8ff" d="M2023,-312.25C2036.41,-302.82 2051.95,-291.9 2064.05,-283.39"/>
<polygon fill="#63b8ff" stroke="#63b8ff" points="2021.1,-309.31 2014.93,-317.93 2025.13,-315.04 2021.1,-309.31"/>
</g>
<!-- Node182&#45;&gt;Node6 -->
<g id="edge65" class="edge">
<title>Node182&#45;&gt;Node6</title>
<path fill="none" stroke="#63b8ff" d="M2158.56,-255.55C2241.99,-242.65 2375.38,-222.03 2447.77,-210.84"/>
<polygon fill="#63b8ff" stroke="#63b8ff" points="2158.22,-252.06 2148.87,-257.05 2159.29,-258.98 2158.22,-252.06"/>
</g>
</g>
</svg>
