<?xml version="1.0" encoding="UTF-8" standalone="no"?>
<!DOCTYPE svg PUBLIC "-//W3C//DTD SVG 1.1//EN"
 "http://www.w3.org/Graphics/SVG/1.1/DTD/svg11.dtd">
<!-- Generated by graphviz version 7.0.5 (20221223.1930)
 -->
<!-- Title: include/JSystem/JGadget/search.h Pages: 1 -->
<!--zoomable 577 -->
<svg id="main" version="1.1" xmlns="http://www.w3.org/2000/svg" xmlns:xlink="http://www.w3.org/1999/xlink" xml:space="preserve" onload="init(evt)">
<style type="text/css"><![CDATA[
.edge:hover path { stroke: red; }
.edge:hover polygon { stroke: red; fill: red; }
]]></style>
<script type="text/javascript"><![CDATA[
var edges = document.getElementsByTagName('g');
if (edges && edges.length) {
  for (var i=0;i<edges.length;i++) {
    if (edges[i].id.substr(0,4)=='edge') {
      edges[i].setAttribute('class','edge');
    }
  }
}
]]></script>
        <defs>
                <circle id="rim" cx="0" cy="0" r="7"/>
                <circle id="rim2" cx="0" cy="0" r="3.5"/>
                <g id="zoomPlus">
                        <use xlink:href="#rim" fill="#404040">
                                <set attributeName="fill" to="#808080" begin="zoomplus.mouseover" end="zoomplus.mouseout"/>
                        </use>
                        <path d="M-4,0h8M0,-4v8" fill="none" stroke="white" stroke-width="1.5" pointer-events="none"/>
                </g>
                <g id="zoomMin">
                        <use xlink:href="#rim" fill="#404040">
                                <set attributeName="fill" to="#808080" begin="zoomminus.mouseover" end="zoomminus.mouseout"/>
                        </use>
                        <path d="M-4,0h8" fill="none" stroke="white" stroke-width="1.5" pointer-events="none"/>
                </g>
                <g id="dirArrow">
                        <path fill="none" stroke="white" stroke-width="1.5" d="M0,-3.0v7 M-2.5,-0.5L0,-3.0L2.5,-0.5"/>
                </g>
               <g id="resetDef">
                       <use xlink:href="#rim2" fill="#404040">
                               <set attributeName="fill" to="#808080" begin="reset.mouseover" end="reset.mouseout"/>
                       </use>
               </g>
        </defs>

<script type="text/javascript">
var viewWidth = 2629;
var viewHeight = 577;
var sectionId = 'dynsection-1';
</script>
<script xlink:href="svgpan.js"/>
<svg id="graph" class="graph">
<g id="viewport">
<title>include/JSystem/JGadget/search.h</title>
<!-- Node1 -->
<g id="node1" class="node">
<title>Node1</title>
<g id="a_node1"><a xlink:title=" ">
<polygon fill="#999999" stroke="#666666" points="2237,-569 2109,-569 2109,-539 2237,-539 2237,-569"/>
<text text-anchor="start" x="2117" y="-557" font-family="Helvetica,sans-Serif" font-size="10.00">include/JSystem/JGadget</text>
<text text-anchor="middle" x="2173" y="-546" font-family="Helvetica,sans-Serif" font-size="10.00">/search.h</text>
</a>
</g>
</g>
<!-- Node2 -->
<g id="node2" class="node">
<title>Node2</title>
<g id="a_node2"><a xlink:href="functionvalue_8h.html" target="_top" xlink:title=" ">
<polygon fill="white" stroke="#666666" points="2235.5,-503 2110.5,-503 2110.5,-473 2235.5,-473 2235.5,-503"/>
<text text-anchor="start" x="2118.5" y="-491" font-family="Helvetica,sans-Serif" font-size="10.00">include/JSystem/JStudio</text>
<text text-anchor="middle" x="2173" y="-480" font-family="Helvetica,sans-Serif" font-size="10.00">/JStudio/functionvalue.h</text>
</a>
</g>
</g>
<!-- Node1&#45;&gt;Node2 -->
<g id="edge1" class="edge">
<title>Node1&#45;&gt;Node2</title>
<path fill="none" stroke="#63b8ff" d="M2173,-527.39C2173,-519.13 2173,-510.28 2173,-503.16"/>
<polygon fill="#63b8ff" stroke="#63b8ff" points="2169.5,-527.28 2173,-537.28 2176.5,-527.28 2169.5,-527.28"/>
</g>
<!-- Node3 -->
<g id="node3" class="node">
<title>Node3</title>
<g id="a_node3"><a xlink:href="fvb-data_8h.html" target="_top" xlink:title=" ">
<polygon fill="white" stroke="#666666" points="2098.5,-431.5 1973.5,-431.5 1973.5,-401.5 2098.5,-401.5 2098.5,-431.5"/>
<text text-anchor="start" x="1981.5" y="-419.5" font-family="Helvetica,sans-Serif" font-size="10.00">include/JSystem/JStudio</text>
<text text-anchor="middle" x="2036" y="-408.5" font-family="Helvetica,sans-Serif" font-size="10.00">/JStudio/fvb&#45;data.h</text>
</a>
</g>
</g>
<!-- Node2&#45;&gt;Node3 -->
<g id="edge2" class="edge">
<title>Node2&#45;&gt;Node3</title>
<path fill="none" stroke="#63b8ff" d="M2134.47,-467.46C2112.19,-456.15 2084.64,-442.17 2064.35,-431.88"/>
<polygon fill="#63b8ff" stroke="#63b8ff" points="2132.76,-470.51 2143.26,-471.91 2135.93,-464.27 2132.76,-470.51"/>
</g>
<!-- Node76 -->
<g id="node49" class="node">
<title>Node76</title>
<g id="a_node49"><a xlink:href="functionvalue-inline_8cpp.html" target="_top" xlink:title=" ">
<polygon fill="white" stroke="#666666" points="2229.5,-437 2116.5,-437 2116.5,-396 2229.5,-396 2229.5,-437"/>
<text text-anchor="start" x="2124.5" y="-425" font-family="Helvetica,sans-Serif" font-size="10.00">libs/JSystem/JStudio</text>
<text text-anchor="start" x="2124.5" y="-414" font-family="Helvetica,sans-Serif" font-size="10.00">/JStudio/functionvalue</text>
<text text-anchor="middle" x="2173" y="-403" font-family="Helvetica,sans-Serif" font-size="10.00">&#45;inline.cpp</text>
</a>
</g>
</g>
<!-- Node2&#45;&gt;Node76 -->
<g id="edge57" class="edge">
<title>Node2&#45;&gt;Node76</title>
<path fill="none" stroke="#63b8ff" d="M2173,-461.36C2173,-453.45 2173,-444.87 2173,-437.42"/>
<polygon fill="#63b8ff" stroke="#63b8ff" points="2169.5,-461.09 2173,-471.09 2176.5,-461.09 2169.5,-461.09"/>
</g>
<!-- Node77 -->
<g id="node50" class="node">
<title>Node77</title>
<g id="a_node50"><a xlink:href="functionvalue_8cpp.html" target="_top" xlink:title=" ">
<polygon fill="white" stroke="#666666" points="2378.5,-431.5 2247.5,-431.5 2247.5,-401.5 2378.5,-401.5 2378.5,-431.5"/>
<text text-anchor="start" x="2255.5" y="-419.5" font-family="Helvetica,sans-Serif" font-size="10.00">libs/JSystem/JStudio</text>
<text text-anchor="middle" x="2313" y="-408.5" font-family="Helvetica,sans-Serif" font-size="10.00">/JStudio/functionvalue.cpp</text>
</a>
</g>
</g>
<!-- Node2&#45;&gt;Node77 -->
<g id="edge58" class="edge">
<title>Node2&#45;&gt;Node77</title>
<path fill="none" stroke="#63b8ff" d="M2212.06,-467.61C2234.88,-456.28 2263.2,-442.22 2284.03,-431.88"/>
<polygon fill="#63b8ff" stroke="#63b8ff" points="2210.76,-464.35 2203.36,-471.93 2213.88,-470.61 2210.76,-464.35"/>
</g>
<!-- Node4 -->
<g id="node4" class="node">
<title>Node4</title>
<g id="a_node4"><a xlink:href="resource_8h.html" target="_top" xlink:title=" ">
<polygon fill="white" stroke="#666666" points="1205.5,-360 1068.5,-360 1068.5,-330 1205.5,-330 1205.5,-360"/>
<text text-anchor="start" x="1076.5" y="-348" font-family="Helvetica,sans-Serif" font-size="10.00">include/JSystem/JMessage</text>
<text text-anchor="middle" x="1137" y="-337" font-family="Helvetica,sans-Serif" font-size="10.00">/resource.h</text>
</a>
</g>
</g>
<!-- Node3&#45;&gt;Node4 -->
<g id="edge3" class="edge">
<title>Node3&#45;&gt;Node4</title>
<path fill="none" stroke="#63b8ff" d="M1961.75,-409.76C1790.76,-396.54 1371.19,-364.11 1205.71,-351.31"/>
<polygon fill="#63b8ff" stroke="#63b8ff" points="1961.39,-413.24 1971.63,-410.52 1961.93,-406.26 1961.39,-413.24"/>
</g>
<!-- Node42 -->
<g id="node42" class="node">
<title>Node42</title>
<g id="a_node42"><a xlink:href="fvb-data-parse_8h.html" target="_top" xlink:title=" ">
<polygon fill="white" stroke="#666666" points="2098.5,-360 1973.5,-360 1973.5,-330 2098.5,-330 2098.5,-360"/>
<text text-anchor="start" x="1981.5" y="-348" font-family="Helvetica,sans-Serif" font-size="10.00">include/JSystem/JStudio</text>
<text text-anchor="middle" x="2036" y="-337" font-family="Helvetica,sans-Serif" font-size="10.00">/JStudio/fvb&#45;data&#45;parse.h</text>
</a>
</g>
</g>
<!-- Node3&#45;&gt;Node42 -->
<g id="edge49" class="edge">
<title>Node3&#45;&gt;Node42</title>
<path fill="none" stroke="#63b8ff" d="M2036,-389.76C2036,-379.83 2036,-368.86 2036,-360.38"/>
<polygon fill="#63b8ff" stroke="#63b8ff" points="2032.5,-389.59 2036,-399.59 2039.5,-389.59 2032.5,-389.59"/>
</g>
<!-- Node75 -->
<g id="node48" class="node">
<title>Node75</title>
<g id="a_node48"><a xlink:href="fvb-data_8cpp.html" target="_top" xlink:title=" ">
<polygon fill="white" stroke="#666666" points="2225.5,-360 2116.5,-360 2116.5,-330 2225.5,-330 2225.5,-360"/>
<text text-anchor="start" x="2124.5" y="-348" font-family="Helvetica,sans-Serif" font-size="10.00">libs/JSystem/JStudio</text>
<text text-anchor="middle" x="2171" y="-337" font-family="Helvetica,sans-Serif" font-size="10.00">/JStudio/fvb&#45;data.cpp</text>
</a>
</g>
</g>
<!-- Node3&#45;&gt;Node75 -->
<g id="edge56" class="edge">
<title>Node3&#45;&gt;Node75</title>
<path fill="none" stroke="#63b8ff" d="M2073.96,-395.96C2095.92,-384.65 2123.07,-370.67 2143.06,-360.38"/>
<polygon fill="#63b8ff" stroke="#63b8ff" points="2072.61,-392.72 2065.32,-400.41 2075.81,-398.94 2072.61,-392.72"/>
</g>
<!-- Node5 -->
<g id="node5" class="node">
<title>Node5</title>
<g id="a_node5"><a xlink:href="JMessage_2control_8h.html" target="_top" xlink:title=" ">
<polygon fill="white" stroke="#666666" points="1116.5,-228 979.5,-228 979.5,-198 1116.5,-198 1116.5,-228"/>
<text text-anchor="start" x="987.5" y="-216" font-family="Helvetica,sans-Serif" font-size="10.00">include/JSystem/JMessage</text>
<text text-anchor="middle" x="1048" y="-205" font-family="Helvetica,sans-Serif" font-size="10.00">/control.h</text>
</a>
</g>
</g>
<!-- Node4&#45;&gt;Node5 -->
<g id="edge4" class="edge">
<title>Node4&#45;&gt;Node5</title>
<path fill="none" stroke="#63b8ff" d="M1098.27,-323.59C1086.67,-315.76 1074.94,-305.81 1067,-294 1053.46,-273.86 1049.52,-245.19 1048.41,-228.2"/>
<polygon fill="#63b8ff" stroke="#63b8ff" points="1096.29,-326.48 1106.62,-328.86 1100.03,-320.57 1096.29,-326.48"/>
</g>
<!-- Node9 -->
<g id="node9" class="node">
<title>Node9</title>
<g id="a_node9"><a xlink:href="d__msg__object_8h.html" target="_top" xlink:title=" ">
<polygon fill="white" stroke="#666666" points="1259,-162 1149,-162 1149,-132 1259,-132 1259,-162"/>
<text text-anchor="start" x="1157" y="-150" font-family="Helvetica,sans-Serif" font-size="10.00">include/d/msg/d_msg</text>
<text text-anchor="middle" x="1204" y="-139" font-family="Helvetica,sans-Serif" font-size="10.00">_object.h</text>
</a>
</g>
</g>
<!-- Node4&#45;&gt;Node9 -->
<g id="edge38" class="edge">
<title>Node4&#45;&gt;Node9</title>
<path fill="none" stroke="#63b8ff" d="M1178.32,-323.47C1189.33,-315.83 1199.86,-306.03 1206,-294 1228.24,-250.42 1215.81,-189.57 1208.34,-162.26"/>
<polygon fill="#63b8ff" stroke="#63b8ff" points="1176.46,-320.51 1169.9,-328.82 1180.21,-326.42 1176.46,-320.51"/>
</g>
<!-- Node31 -->
<g id="node31" class="node">
<title>Node31</title>
<g id="a_node31"><a xlink:href="processor_8cpp.html" target="_top" xlink:title=" ">
<polygon fill="white" stroke="#666666" points="840.5,-162 719.5,-162 719.5,-132 840.5,-132 840.5,-162"/>
<text text-anchor="start" x="727.5" y="-150" font-family="Helvetica,sans-Serif" font-size="10.00">libs/JSystem/JMessage</text>
<text text-anchor="middle" x="780" y="-139" font-family="Helvetica,sans-Serif" font-size="10.00">/processor.cpp</text>
</a>
</g>
</g>
<!-- Node4&#45;&gt;Node31 -->
<g id="edge47" class="edge">
<title>Node4&#45;&gt;Node31</title>
<path fill="none" stroke="#63b8ff" d="M1056.79,-335.86C990.42,-327.86 902.44,-313.94 873,-294 823.98,-260.8 795.33,-192.24 784.73,-162.4"/>
<polygon fill="#63b8ff" stroke="#63b8ff" points="1056.23,-339.32 1066.57,-337.01 1057.05,-332.37 1056.23,-339.32"/>
</g>
<!-- Node32 -->
<g id="node32" class="node">
<title>Node32</title>
<g id="a_node32"><a xlink:href="processor_8h.html" target="_top" xlink:title=" ">
<polygon fill="white" stroke="#666666" points="1019.5,-294 882.5,-294 882.5,-264 1019.5,-264 1019.5,-294"/>
<text text-anchor="start" x="890.5" y="-282" font-family="Helvetica,sans-Serif" font-size="10.00">include/JSystem/JMessage</text>
<text text-anchor="middle" x="951" y="-271" font-family="Helvetica,sans-Serif" font-size="10.00">/processor.h</text>
</a>
</g>
</g>
<!-- Node4&#45;&gt;Node32 -->
<g id="edge33" class="edge">
<title>Node4&#45;&gt;Node32</title>
<path fill="none" stroke="#63b8ff" d="M1084.5,-325.94C1055.53,-315.97 1020.03,-303.75 992.92,-294.43"/>
<polygon fill="#63b8ff" stroke="#63b8ff" points="1083.23,-329.2 1093.83,-329.14 1085.51,-322.58 1083.23,-329.2"/>
</g>
<!-- Node33 -->
<g id="node33" class="node">
<title>Node33</title>
<g id="a_node33"><a xlink:href="d__msg__string__base_8h.html" target="_top" xlink:title=" ">
<polygon fill="white" stroke="#666666" points="1489,-294 1379,-294 1379,-264 1489,-264 1489,-294"/>
<text text-anchor="start" x="1387" y="-282" font-family="Helvetica,sans-Serif" font-size="10.00">include/d/msg/d_msg</text>
<text text-anchor="middle" x="1434" y="-271" font-family="Helvetica,sans-Serif" font-size="10.00">_string_base.h</text>
</a>
</g>
</g>
<!-- Node4&#45;&gt;Node33 -->
<g id="edge39" class="edge">
<title>Node4&#45;&gt;Node33</title>
<path fill="none" stroke="#63b8ff" d="M1215.09,-327.17C1266.52,-316.09 1332.62,-301.85 1378.66,-291.92"/>
<polygon fill="#63b8ff" stroke="#63b8ff" points="1214.54,-323.71 1205.5,-329.24 1216.02,-330.55 1214.54,-323.71"/>
</g>
<!-- Node41 -->
<g id="node41" class="node">
<title>Node41</title>
<g id="a_node41"><a xlink:href="resource_8cpp.html" target="_top" xlink:title=" ">
<polygon fill="white" stroke="#666666" points="1197.5,-294 1076.5,-294 1076.5,-264 1197.5,-264 1197.5,-294"/>
<text text-anchor="start" x="1084.5" y="-282" font-family="Helvetica,sans-Serif" font-size="10.00">libs/JSystem/JMessage</text>
<text text-anchor="middle" x="1137" y="-271" font-family="Helvetica,sans-Serif" font-size="10.00">/resource.cpp</text>
</a>
</g>
</g>
<!-- Node4&#45;&gt;Node41 -->
<g id="edge48" class="edge">
<title>Node4&#45;&gt;Node41</title>
<path fill="none" stroke="#63b8ff" d="M1137,-318.39C1137,-310.13 1137,-301.28 1137,-294.16"/>
<polygon fill="#63b8ff" stroke="#63b8ff" points="1133.5,-318.28 1137,-328.28 1140.5,-318.28 1133.5,-318.28"/>
</g>
<!-- Node6 -->
<g id="node6" class="node">
<title>Node6</title>
<g id="a_node6"><a xlink:href="d__msg__class_8h.html" target="_top" xlink:title=" ">
<polygon fill="white" stroke="#666666" points="969,-162 859,-162 859,-132 969,-132 969,-162"/>
<text text-anchor="start" x="867" y="-150" font-family="Helvetica,sans-Serif" font-size="10.00">include/d/msg/d_msg</text>
<text text-anchor="middle" x="914" y="-139" font-family="Helvetica,sans-Serif" font-size="10.00">_class.h</text>
</a>
</g>
</g>
<!-- Node5&#45;&gt;Node6 -->
<g id="edge5" class="edge">
<title>Node5&#45;&gt;Node6</title>
<path fill="none" stroke="#63b8ff" d="M1007.64,-192.72C987.17,-182.95 962.74,-171.28 943.97,-162.31"/>
<polygon fill="#63b8ff" stroke="#63b8ff" points="1006.03,-195.83 1016.56,-196.98 1009.05,-189.52 1006.03,-195.83"/>
</g>
<!-- Node5&#45;&gt;Node9 -->
<g id="edge8" class="edge">
<title>Node5&#45;&gt;Node9</title>
<path fill="none" stroke="#63b8ff" d="M1093.64,-193.27C1117.64,-183.43 1146.61,-171.55 1168.84,-162.43"/>
<polygon fill="#63b8ff" stroke="#63b8ff" points="1092.33,-190.03 1084.41,-197.06 1094.99,-196.51 1092.33,-190.03"/>
</g>
<!-- Node30 -->
<g id="node30" class="node">
<title>Node30</title>
<g id="a_node30"><a xlink:href="JMessage_2control_8cpp.html" target="_top" xlink:title=" ">
<polygon fill="white" stroke="#666666" points="1108.5,-162 987.5,-162 987.5,-132 1108.5,-132 1108.5,-162"/>
<text text-anchor="start" x="995.5" y="-150" font-family="Helvetica,sans-Serif" font-size="10.00">libs/JSystem/JMessage</text>
<text text-anchor="middle" x="1048" y="-139" font-family="Helvetica,sans-Serif" font-size="10.00">/control.cpp</text>
</a>
</g>
</g>
<!-- Node5&#45;&gt;Node30 -->
<g id="edge31" class="edge">
<title>Node5&#45;&gt;Node30</title>
<path fill="none" stroke="#63b8ff" d="M1048,-186.39C1048,-178.13 1048,-169.28 1048,-162.16"/>
<polygon fill="#63b8ff" stroke="#63b8ff" points="1044.5,-186.28 1048,-196.28 1051.5,-186.28 1044.5,-186.28"/>
</g>
<!-- Node5&#45;&gt;Node31 -->
<g id="edge32" class="edge">
<title>Node5&#45;&gt;Node31</title>
<path fill="none" stroke="#63b8ff" d="M976.4,-194.9C933.89,-184.75 880.6,-172.02 840.26,-162.39"/>
<polygon fill="#63b8ff" stroke="#63b8ff" points="975.51,-198.29 986.05,-197.21 977.14,-191.48 975.51,-198.29"/>
</g>
<!-- Node7 -->
<g id="node7" class="node">
<title>Node7</title>
<g id="a_node7"><a xlink:href="d__msg__class_8cpp.html" target="_top" xlink:title=" ">
<polygon fill="white" stroke="#666666" points="299.5,-90.5 160.5,-90.5 160.5,-71.5 299.5,-71.5 299.5,-90.5"/>
<text text-anchor="middle" x="230" y="-78.5" font-family="Helvetica,sans-Serif" font-size="10.00">src/d/msg/d_msg_class.cpp</text>
</a>
</g>
</g>
<!-- Node6&#45;&gt;Node7 -->
<g id="edge6" class="edge">
<title>Node6&#45;&gt;Node7</title>
<path fill="none" stroke="#63b8ff" d="M847.64,-131.99C608.85,-99.38 544.16,-124.59 309,-96 298.21,-94.69 286.67,-92.88 275.82,-90.99"/>
<polygon fill="#63b8ff" stroke="#63b8ff" points="846.89,-135.42 857.28,-133.33 847.86,-128.48 846.89,-135.42"/>
</g>
<!-- Node8 -->
<g id="node8" class="node">
<title>Node8</title>
<g id="a_node8"><a xlink:href="d__msg__object_8cpp.html" target="_top" xlink:title=" ">
<polygon fill="white" stroke="#666666" points="142,-90.5 0,-90.5 0,-71.5 142,-71.5 142,-90.5"/>
<text text-anchor="middle" x="71" y="-78.5" font-family="Helvetica,sans-Serif" font-size="10.00">src/d/msg/d_msg_object.cpp</text>
</a>
</g>
</g>
<!-- Node6&#45;&gt;Node8 -->
<g id="edge7" class="edge">
<title>Node6&#45;&gt;Node8</title>
<path fill="none" stroke="#63b8ff" d="M847.71,-132.02C539.12,-92.08 456.06,-130.43 151,-96 139.79,-94.73 127.78,-92.89 116.55,-90.96"/>
<polygon fill="#63b8ff" stroke="#63b8ff" points="846.92,-135.45 857.29,-133.28 847.83,-128.51 846.92,-135.45"/>
</g>
<!-- Node9&#45;&gt;Node7 -->
<g id="edge22" class="edge">
<title>Node9&#45;&gt;Node7</title>
<path fill="none" stroke="#63b8ff" d="M1137.65,-134.52C1130.69,-133.55 1123.71,-132.69 1117,-132 759.4,-95.38 666.3,-135.45 309,-96 297.79,-94.76 285.76,-92.91 274.56,-90.95"/>
<polygon fill="#63b8ff" stroke="#63b8ff" points="1137,-137.96 1147.4,-135.94 1138.01,-131.03 1137,-137.96"/>
</g>
<!-- Node9&#45;&gt;Node8 -->
<g id="edge24" class="edge">
<title>Node9&#45;&gt;Node8</title>
<path fill="none" stroke="#63b8ff" d="M1137.65,-134.47C1130.69,-133.51 1123.71,-132.66 1117,-132 689.45,-89.79 578.25,-141.13 151,-96 139.5,-94.79 127.16,-92.91 115.7,-90.93"/>
<polygon fill="#63b8ff" stroke="#63b8ff" points="1137.01,-137.91 1147.41,-135.88 1138.01,-130.98 1137.01,-137.91"/>
</g>
<!-- Node10 -->
<g id="node10" class="node">
<title>Node10</title>
<g id="a_node10"><a xlink:href="d__timer_8h.html" target="_top" xlink:title=" ">
<polygon fill="white" stroke="#666666" points="2478,-90.5 2380,-90.5 2380,-71.5 2478,-71.5 2478,-90.5"/>
<text text-anchor="middle" x="2429" y="-78.5" font-family="Helvetica,sans-Serif" font-size="10.00">include/d/d_timer.h</text>
</a>
</g>
</g>
<!-- Node9&#45;&gt;Node10 -->
<g id="edge9" class="edge">
<title>Node9&#45;&gt;Node10</title>
<path fill="none" stroke="#63b8ff" d="M1270.58,-131.85C1756.71,-72.7 1888.64,-161.39 2371,-96 2379.52,-94.85 2388.61,-92.97 2397.01,-90.96"/>
<polygon fill="#63b8ff" stroke="#63b8ff" points="1270.39,-128.35 1260.9,-133.05 1271.25,-135.3 1270.39,-128.35"/>
</g>
<!-- Node14 -->
<g id="node14" class="node">
<title>Node14</title>
<g id="a_node14"><a xlink:href="d__a__alink_8cpp.html" target="_top" xlink:title=" ">
<polygon fill="white" stroke="#666666" points="2605.5,-90.5 2496.5,-90.5 2496.5,-71.5 2605.5,-71.5 2605.5,-90.5"/>
<text text-anchor="middle" x="2551" y="-78.5" font-family="Helvetica,sans-Serif" font-size="10.00">src/d/a/d_a_alink.cpp</text>
</a>
</g>
</g>
<!-- Node9&#45;&gt;Node14 -->
<g id="edge13" class="edge">
<title>Node9&#45;&gt;Node14</title>
<path fill="none" stroke="#63b8ff" d="M1270.55,-131.86C1807.93,-67.11 1952.72,-161.75 2487,-96 2496.37,-94.85 2506.39,-92.97 2515.66,-90.96"/>
<polygon fill="#63b8ff" stroke="#63b8ff" points="1270.4,-128.35 1260.9,-133.04 1271.25,-135.3 1270.4,-128.35"/>
</g>
<!-- Node15 -->
<g id="node15" class="node">
<title>Node15</title>
<g id="a_node15"><a xlink:href="d__demo_8cpp.html" target="_top" xlink:title=" ">
<polygon fill="white" stroke="#666666" points="412,-90.5 318,-90.5 318,-71.5 412,-71.5 412,-90.5"/>
<text text-anchor="middle" x="365" y="-78.5" font-family="Helvetica,sans-Serif" font-size="10.00">src/d/d_demo.cpp</text>
</a>
</g>
</g>
<!-- Node9&#45;&gt;Node15 -->
<g id="edge14" class="edge">
<title>Node9&#45;&gt;Node15</title>
<path fill="none" stroke="#63b8ff" d="M1137.64,-134.56C1130.69,-133.59 1123.71,-132.71 1117,-132 808.98,-99.35 727.35,-141.78 421,-96 412.87,-94.79 404.21,-92.91 396.18,-90.93"/>
<polygon fill="#63b8ff" stroke="#63b8ff" points="1136.99,-138.01 1147.39,-135.99 1138.01,-131.08 1136.99,-138.01"/>
</g>
<!-- Node16 -->
<g id="node16" class="node">
<title>Node16</title>
<g id="a_node16"><a xlink:href="d__event_8cpp.html" target="_top" xlink:title=" ">
<polygon fill="white" stroke="#666666" points="551.5,-90.5 430.5,-90.5 430.5,-71.5 551.5,-71.5 551.5,-90.5"/>
<text text-anchor="middle" x="491" y="-78.5" font-family="Helvetica,sans-Serif" font-size="10.00">src/d/event/d_event.cpp</text>
</a>
</g>
</g>
<!-- Node9&#45;&gt;Node16 -->
<g id="edge15" class="edge">
<title>Node9&#45;&gt;Node16</title>
<path fill="none" stroke="#63b8ff" d="M1137.63,-134.65C1130.68,-133.66 1123.7,-132.75 1117,-132 870.48,-104.26 805.9,-128.74 560,-96 550.43,-94.73 540.19,-92.9 530.62,-91"/>
<polygon fill="#63b8ff" stroke="#63b8ff" points="1136.98,-138.09 1147.38,-136.1 1138,-131.17 1136.98,-138.09"/>
</g>
<!-- Node17 -->
<g id="node17" class="node">
<title>Node17</title>
<g id="a_node17"><a xlink:href="d__event__data_8cpp.html" target="_top" xlink:title=" ">
<polygon fill="white" stroke="#666666" points="672.5,-96 569.5,-96 569.5,-66 672.5,-66 672.5,-96"/>
<text text-anchor="start" x="577.5" y="-84" font-family="Helvetica,sans-Serif" font-size="10.00">src/d/event/d_event</text>
<text text-anchor="middle" x="621" y="-73" font-family="Helvetica,sans-Serif" font-size="10.00">_data.cpp</text>
</a>
</g>
</g>
<!-- Node9&#45;&gt;Node17 -->
<g id="edge16" class="edge">
<title>Node9&#45;&gt;Node17</title>
<path fill="none" stroke="#63b8ff" d="M1137.62,-134.78C1130.67,-133.76 1123.7,-132.81 1117,-132 924.43,-108.57 873.7,-125.77 682,-96 678.99,-95.53 675.92,-95 672.82,-94.42"/>
<polygon fill="#63b8ff" stroke="#63b8ff" points="1136.96,-138.22 1147.37,-136.25 1138,-131.3 1136.96,-138.22"/>
</g>
<!-- Node18 -->
<g id="node18" class="node">
<title>Node18</title>
<g id="a_node18"><a xlink:href="d__kankyo_8cpp.html" target="_top" xlink:title=" ">
<polygon fill="white" stroke="#666666" points="825,-90.5 691,-90.5 691,-71.5 825,-71.5 825,-90.5"/>
<text text-anchor="middle" x="758" y="-78.5" font-family="Helvetica,sans-Serif" font-size="10.00">src/d/kankyo/d_kankyo.cpp</text>
</a>
</g>
</g>
<!-- Node9&#45;&gt;Node18 -->
<g id="edge17" class="edge">
<title>Node9&#45;&gt;Node18</title>
<path fill="none" stroke="#63b8ff" d="M1137.58,-135.08C1130.63,-134.01 1123.68,-132.96 1117,-132 991.5,-113.93 959.28,-115.49 834,-96 824.45,-94.51 814.27,-92.76 804.55,-91"/>
<polygon fill="#63b8ff" stroke="#63b8ff" points="1136.9,-138.52 1147.32,-136.6 1137.98,-131.6 1136.9,-138.52"/>
</g>
<!-- Node19 -->
<g id="node19" class="node">
<title>Node19</title>
<g id="a_node19"><a xlink:href="d__menu__window_8cpp.html" target="_top" xlink:title=" ">
<polygon fill="white" stroke="#666666" points="1002.5,-90.5 843.5,-90.5 843.5,-71.5 1002.5,-71.5 1002.5,-90.5"/>
<text text-anchor="middle" x="923" y="-78.5" font-family="Helvetica,sans-Serif" font-size="10.00">src/d/menu/d_menu_window.cpp</text>
</a>
</g>
</g>
<!-- Node9&#45;&gt;Node19 -->
<g id="edge18" class="edge">
<title>Node9&#45;&gt;Node19</title>
<path fill="none" stroke="#63b8ff" d="M1137.85,-130.93C1083.28,-118.5 1007.67,-101.28 962.22,-90.93"/>
<polygon fill="#63b8ff" stroke="#63b8ff" points="1136.82,-134.29 1147.34,-133.1 1138.37,-127.46 1136.82,-134.29"/>
</g>
<!-- Node20 -->
<g id="node20" class="node">
<title>Node20</title>
<g id="a_node20"><a xlink:href="d__meter2__draw_8cpp.html" target="_top" xlink:title=" ">
<polygon fill="white" stroke="#666666" points="1131,-96 1021,-96 1021,-66 1131,-66 1131,-96"/>
<text text-anchor="start" x="1029" y="-84" font-family="Helvetica,sans-Serif" font-size="10.00">src/d/meter/d_meter2</text>
<text text-anchor="middle" x="1076" y="-73" font-family="Helvetica,sans-Serif" font-size="10.00">_draw.cpp</text>
</a>
</g>
</g>
<!-- Node9&#45;&gt;Node20 -->
<g id="edge19" class="edge">
<title>Node9&#45;&gt;Node20</title>
<path fill="none" stroke="#63b8ff" d="M1165.18,-126.59C1145.68,-116.84 1122.48,-105.24 1104.63,-96.31"/>
<polygon fill="#63b8ff" stroke="#63b8ff" points="1163.41,-129.62 1173.92,-130.96 1166.54,-123.36 1163.41,-129.62"/>
</g>
<!-- Node21 -->
<g id="node21" class="node">
<title>Node21</title>
<g id="a_node21"><a xlink:href="d__meter2__info_8cpp.html" target="_top" xlink:title=" ">
<polygon fill="white" stroke="#666666" points="1259,-96 1149,-96 1149,-66 1259,-66 1259,-96"/>
<text text-anchor="start" x="1157" y="-84" font-family="Helvetica,sans-Serif" font-size="10.00">src/d/meter/d_meter2</text>
<text text-anchor="middle" x="1204" y="-73" font-family="Helvetica,sans-Serif" font-size="10.00">_info.cpp</text>
</a>
</g>
</g>
<!-- Node9&#45;&gt;Node21 -->
<g id="edge20" class="edge">
<title>Node9&#45;&gt;Node21</title>
<path fill="none" stroke="#63b8ff" d="M1204,-120.39C1204,-112.13 1204,-103.28 1204,-96.16"/>
<polygon fill="#63b8ff" stroke="#63b8ff" points="1200.5,-120.28 1204,-130.28 1207.5,-120.28 1200.5,-120.28"/>
</g>
<!-- Node22 -->
<g id="node22" class="node">
<title>Node22</title>
<g id="a_node22"><a xlink:href="d__meter__map_8cpp.html" target="_top" xlink:title=" ">
<polygon fill="white" stroke="#666666" points="1381,-96 1277,-96 1277,-66 1381,-66 1381,-96"/>
<text text-anchor="start" x="1285" y="-84" font-family="Helvetica,sans-Serif" font-size="10.00">src/d/meter/d_meter</text>
<text text-anchor="middle" x="1329" y="-73" font-family="Helvetica,sans-Serif" font-size="10.00">_map.cpp</text>
</a>
</g>
</g>
<!-- Node9&#45;&gt;Node22 -->
<g id="edge21" class="edge">
<title>Node9&#45;&gt;Node22</title>
<path fill="none" stroke="#63b8ff" d="M1242.18,-126.45C1261.16,-116.73 1283.69,-105.2 1301.04,-96.31"/>
<polygon fill="#63b8ff" stroke="#63b8ff" points="1240.71,-123.27 1233.4,-130.95 1243.9,-129.51 1240.71,-123.27"/>
</g>
<!-- Node23 -->
<g id="node23" class="node">
<title>Node23</title>
<g id="a_node23"><a xlink:href="d__msg__flow_8cpp.html" target="_top" xlink:title=" ">
<polygon fill="white" stroke="#666666" points="1532.5,-90.5 1399.5,-90.5 1399.5,-71.5 1532.5,-71.5 1532.5,-90.5"/>
<text text-anchor="middle" x="1466" y="-78.5" font-family="Helvetica,sans-Serif" font-size="10.00">src/d/msg/d_msg_flow.cpp</text>
</a>
</g>
</g>
<!-- Node9&#45;&gt;Node23 -->
<g id="edge23" class="edge">
<title>Node9&#45;&gt;Node23</title>
<path fill="none" stroke="#63b8ff" d="M1270.37,-129.79C1320.79,-117.47 1388.26,-100.99 1429.35,-90.95"/>
<polygon fill="#63b8ff" stroke="#63b8ff" points="1269.6,-126.37 1260.71,-132.15 1271.26,-133.17 1269.6,-126.37"/>
</g>
<!-- Node24 -->
<g id="node24" class="node">
<title>Node24</title>
<g id="a_node24"><a xlink:href="d__msg__out__font_8cpp.html" target="_top" xlink:title=" ">
<polygon fill="white" stroke="#666666" points="1661.5,-96 1550.5,-96 1550.5,-66 1661.5,-66 1661.5,-96"/>
<text text-anchor="start" x="1558.5" y="-84" font-family="Helvetica,sans-Serif" font-size="10.00">src/d/msg/d_msg_out</text>
<text text-anchor="middle" x="1606" y="-73" font-family="Helvetica,sans-Serif" font-size="10.00">_font.cpp</text>
</a>
</g>
</g>
<!-- Node9&#45;&gt;Node24 -->
<g id="edge25" class="edge">
<title>Node9&#45;&gt;Node24</title>
<path fill="none" stroke="#63b8ff" d="M1270.55,-131.65C1390.5,-111.23 1423.95,-116.29 1541,-96 1543.96,-95.49 1546.98,-94.93 1550.04,-94.35"/>
<polygon fill="#63b8ff" stroke="#63b8ff" points="1270.2,-128.16 1260.94,-133.31 1271.39,-135.06 1270.2,-128.16"/>
</g>
<!-- Node25 -->
<g id="node25" class="node">
<title>Node25</title>
<g id="a_node25"><a xlink:href="d__s__play_8cpp.html" target="_top" xlink:title=" ">
<polygon fill="white" stroke="#666666" points="1786,-90.5 1680,-90.5 1680,-71.5 1786,-71.5 1786,-90.5"/>
<text text-anchor="middle" x="1733" y="-78.5" font-family="Helvetica,sans-Serif" font-size="10.00">src/d/s/d_s_play.cpp</text>
</a>
</g>
</g>
<!-- Node9&#45;&gt;Node25 -->
<g id="edge26" class="edge">
<title>Node9&#45;&gt;Node25</title>
<path fill="none" stroke="#63b8ff" d="M1270.69,-131.72C1447.3,-105.53 1496.38,-122.95 1670,-96 1678.64,-94.66 1687.86,-92.84 1696.51,-90.95"/>
<polygon fill="#63b8ff" stroke="#63b8ff" points="1270.28,-128.25 1260.92,-133.2 1271.33,-135.17 1270.28,-128.25"/>
</g>
<!-- Node26 -->
<g id="node26" class="node">
<title>Node26</title>
<g id="a_node26"><a xlink:href="d__shop__system_8cpp.html" target="_top" xlink:title=" ">
<polygon fill="white" stroke="#666666" points="1956,-90.5 1804,-90.5 1804,-71.5 1956,-71.5 1956,-90.5"/>
<text text-anchor="middle" x="1880" y="-78.5" font-family="Helvetica,sans-Serif" font-size="10.00">src/d/shop/d_shop_system.cpp</text>
</a>
</g>
</g>
<!-- Node9&#45;&gt;Node26 -->
<g id="edge27" class="edge">
<title>Node9&#45;&gt;Node26</title>
<path fill="none" stroke="#63b8ff" d="M1270.58,-131.78C1502.37,-99.57 1565.45,-122.68 1795,-96 1806.59,-94.65 1819,-92.83 1830.67,-90.94"/>
<polygon fill="#63b8ff" stroke="#63b8ff" points="1270.32,-128.28 1260.91,-133.14 1271.3,-135.21 1270.32,-128.28"/>
</g>
<!-- Node27 -->
<g id="node27" class="node">
<title>Node27</title>
<g id="a_node27"><a xlink:href="f__op__msg__mng_8cpp.html" target="_top" xlink:title=" ">
<polygon fill="white" stroke="#666666" points="2114,-90.5 1974,-90.5 1974,-71.5 2114,-71.5 2114,-90.5"/>
<text text-anchor="middle" x="2044" y="-78.5" font-family="Helvetica,sans-Serif" font-size="10.00">src/f_op/f_op_msg_mng.cpp</text>
</a>
</g>
</g>
<!-- Node9&#45;&gt;Node27 -->
<g id="edge28" class="edge">
<title>Node9&#45;&gt;Node27</title>
<path fill="none" stroke="#63b8ff" d="M1270.42,-131.84C1577.37,-91.66 1660.42,-130.72 1965,-96 1976.07,-94.74 1987.94,-92.9 1999.02,-90.96"/>
<polygon fill="#63b8ff" stroke="#63b8ff" points="1270.36,-128.31 1260.9,-133.1 1271.28,-135.25 1270.36,-128.31"/>
</g>
<!-- Node28 -->
<g id="node28" class="node">
<title>Node28</title>
<g id="a_node28"><a xlink:href="d__msg__scrn__base_8cpp.html" target="_top" xlink:title=" ">
<polygon fill="white" stroke="#666666" points="2238,-96 2132,-96 2132,-66 2238,-66 2238,-96"/>
<text text-anchor="start" x="2140" y="-84" font-family="Helvetica,sans-Serif" font-size="10.00">src/msg/scrn/d_msg</text>
<text text-anchor="middle" x="2185" y="-73" font-family="Helvetica,sans-Serif" font-size="10.00">_scrn_base.cpp</text>
</a>
</g>
</g>
<!-- Node9&#45;&gt;Node28 -->
<g id="edge29" class="edge">
<title>Node9&#45;&gt;Node28</title>
<path fill="none" stroke="#63b8ff" d="M1270.62,-131.83C1647.19,-84.4 1749.66,-145.6 2123,-96 2125.84,-95.62 2128.75,-95.18 2131.68,-94.68"/>
<polygon fill="#63b8ff" stroke="#63b8ff" points="1270.38,-128.33 1260.9,-133.07 1271.26,-135.28 1270.38,-128.33"/>
</g>
<!-- Node29 -->
<g id="node29" class="node">
<title>Node29</title>
<g id="a_node29"><a xlink:href="d__msg__scrn__boss_8cpp.html" target="_top" xlink:title=" ">
<polygon fill="white" stroke="#666666" points="2362,-96 2256,-96 2256,-66 2362,-66 2362,-96"/>
<text text-anchor="start" x="2264" y="-84" font-family="Helvetica,sans-Serif" font-size="10.00">src/msg/scrn/d_msg</text>
<text text-anchor="middle" x="2309" y="-73" font-family="Helvetica,sans-Serif" font-size="10.00">_scrn_boss.cpp</text>
</a>
</g>
</g>
<!-- Node9&#45;&gt;Node29 -->
<g id="edge30" class="edge">
<title>Node9&#45;&gt;Node29</title>
<path fill="none" stroke="#63b8ff" d="M1270.62,-131.84C1701.94,-78.53 1818.93,-151.71 2247,-96 2249.85,-95.63 2252.75,-95.19 2255.68,-94.7"/>
<polygon fill="#63b8ff" stroke="#63b8ff" points="1270.39,-128.34 1260.9,-133.06 1271.26,-135.29 1270.39,-128.34"/>
</g>
<!-- Node11 -->
<g id="node11" class="node">
<title>Node11</title>
<g id="a_node11"><a xlink:href="d__com__inf__game_8cpp.html" target="_top" xlink:title=" ">
<polygon fill="white" stroke="#666666" points="2365,-30 2257,-30 2257,0 2365,0 2365,-30"/>
<text text-anchor="start" x="2265" y="-18" font-family="Helvetica,sans-Serif" font-size="10.00">src/d/com/d_com_inf</text>
<text text-anchor="middle" x="2311" y="-7" font-family="Helvetica,sans-Serif" font-size="10.00">_game.cpp</text>
</a>
</g>
</g>
<!-- Node10&#45;&gt;Node11 -->
<g id="edge10" class="edge">
<title>Node10&#45;&gt;Node11</title>
<path fill="none" stroke="#63b8ff" d="M2402.63,-65.7C2383.29,-55.21 2357.11,-41.01 2337.69,-30.48"/>
<polygon fill="#63b8ff" stroke="#63b8ff" points="2400.8,-68.69 2411.26,-70.38 2404.14,-62.54 2400.8,-68.69"/>
</g>
<!-- Node12 -->
<g id="node12" class="node">
<title>Node12</title>
<g id="a_node12"><a xlink:href="d__timer_8cpp.html" target="_top" xlink:title=" ">
<polygon fill="white" stroke="#666666" points="2475,-24.5 2383,-24.5 2383,-5.5 2475,-5.5 2475,-24.5"/>
<text text-anchor="middle" x="2429" y="-12.5" font-family="Helvetica,sans-Serif" font-size="10.00">src/d/d_timer.cpp</text>
</a>
</g>
</g>
<!-- Node10&#45;&gt;Node12 -->
<g id="edge11" class="edge">
<title>Node10&#45;&gt;Node12</title>
<path fill="none" stroke="#63b8ff" d="M2429,-59.68C2429,-47.94 2429,-33.77 2429,-24.82"/>
<polygon fill="#63b8ff" stroke="#63b8ff" points="2425.5,-59.59 2429,-69.59 2432.5,-59.59 2425.5,-59.59"/>
</g>
<!-- Node13 -->
<g id="node13" class="node">
<title>Node13</title>
<g id="a_node13"><a xlink:href="d__meter2_8cpp.html" target="_top" xlink:title=" ">
<polygon fill="white" stroke="#666666" points="2621,-24.5 2493,-24.5 2493,-5.5 2621,-5.5 2621,-24.5"/>
<text text-anchor="middle" x="2557" y="-12.5" font-family="Helvetica,sans-Serif" font-size="10.00">src/d/meter/d_meter2.cpp</text>
</a>
</g>
</g>
<!-- Node10&#45;&gt;Node13 -->
<g id="edge12" class="edge">
<title>Node10&#45;&gt;Node13</title>
<path fill="none" stroke="#63b8ff" d="M2456.8,-66.1C2481.88,-53.56 2518.03,-35.49 2539.35,-24.82"/>
<polygon fill="#63b8ff" stroke="#63b8ff" points="2455.53,-62.82 2448.15,-70.42 2458.66,-69.08 2455.53,-62.82"/>
</g>
<!-- Node32&#45;&gt;Node5 -->
<g id="edge34" class="edge">
<title>Node32&#45;&gt;Node5</title>
<path fill="none" stroke="#63b8ff" d="M982.03,-257.52C996.42,-248.03 1013.17,-236.98 1026.2,-228.39"/>
<polygon fill="#63b8ff" stroke="#63b8ff" points="980.21,-254.53 973.79,-262.96 984.07,-260.38 980.21,-254.53"/>
</g>
<!-- Node32&#45;&gt;Node6 -->
<g id="edge35" class="edge">
<title>Node32&#45;&gt;Node6</title>
<path fill="none" stroke="#63b8ff" d="M943.81,-252.74C936.16,-225.86 924.33,-184.28 918.12,-162.47"/>
<polygon fill="#63b8ff" stroke="#63b8ff" points="940.38,-253.48 946.48,-262.14 947.11,-251.56 940.38,-253.48"/>
</g>
<!-- Node32&#45;&gt;Node30 -->
<g id="edge36" class="edge">
<title>Node32&#45;&gt;Node30</title>
<path fill="none" stroke="#63b8ff" d="M952.17,-252.48C954.05,-235.68 958.7,-213.93 970,-198 980.98,-182.52 998.41,-170.69 1014.01,-162.43"/>
<polygon fill="#63b8ff" stroke="#63b8ff" points="948.71,-251.92 951.36,-262.17 955.68,-252.5 948.71,-251.92"/>
</g>
<!-- Node32&#45;&gt;Node31 -->
<g id="edge37" class="edge">
<title>Node32&#45;&gt;Node31</title>
<path fill="none" stroke="#63b8ff" d="M923.3,-256.94C888.38,-230.39 829.27,-185.45 799.04,-162.47"/>
<polygon fill="#63b8ff" stroke="#63b8ff" points="920.76,-259.41 930.84,-262.68 925,-253.84 920.76,-259.41"/>
</g>
<!-- Node34 -->
<g id="node34" class="node">
<title>Node34</title>
<g id="a_node34"><a xlink:href="d__msg__string_8h.html" target="_top" xlink:title=" ">
<polygon fill="white" stroke="#666666" points="1637,-228 1527,-228 1527,-198 1637,-198 1637,-228"/>
<text text-anchor="start" x="1535" y="-216" font-family="Helvetica,sans-Serif" font-size="10.00">include/d/msg/d_msg</text>
<text text-anchor="middle" x="1582" y="-205" font-family="Helvetica,sans-Serif" font-size="10.00">_string.h</text>
</a>
</g>
</g>
<!-- Node33&#45;&gt;Node34 -->
<g id="edge40" class="edge">
<title>Node33&#45;&gt;Node34</title>
<path fill="none" stroke="#63b8ff" d="M1477.61,-259.14C1500.32,-249.32 1527.64,-237.51 1548.64,-228.43"/>
<polygon fill="#63b8ff" stroke="#63b8ff" points="1476.39,-255.85 1468.6,-263.04 1479.17,-262.28 1476.39,-255.85"/>
</g>
<!-- Node40 -->
<g id="node40" class="node">
<title>Node40</title>
<g id="a_node40"><a xlink:href="d__msg__string__base_8cpp.html" target="_top" xlink:title=" ">
<polygon fill="white" stroke="#666666" points="1495,-228 1373,-228 1373,-198 1495,-198 1495,-228"/>
<text text-anchor="start" x="1381" y="-216" font-family="Helvetica,sans-Serif" font-size="10.00">src/d/msg/d_msg_string</text>
<text text-anchor="middle" x="1434" y="-205" font-family="Helvetica,sans-Serif" font-size="10.00">_base.cpp</text>
</a>
</g>
</g>
<!-- Node33&#45;&gt;Node40 -->
<g id="edge46" class="edge">
<title>Node33&#45;&gt;Node40</title>
<path fill="none" stroke="#63b8ff" d="M1434,-252.39C1434,-244.13 1434,-235.28 1434,-228.16"/>
<polygon fill="#63b8ff" stroke="#63b8ff" points="1430.5,-252.28 1434,-262.28 1437.5,-252.28 1430.5,-252.28"/>
</g>
<!-- Node35 -->
<g id="node35" class="node">
<title>Node35</title>
<g id="a_node35"><a xlink:href="d__file__select_8cpp.html" target="_top" xlink:title=" ">
<polygon fill="white" stroke="#666666" points="1563,-156.5 1435,-156.5 1435,-137.5 1563,-137.5 1563,-156.5"/>
<text text-anchor="middle" x="1499" y="-144.5" font-family="Helvetica,sans-Serif" font-size="10.00">src/d/file/d_file_select.cpp</text>
</a>
</g>
</g>
<!-- Node34&#45;&gt;Node35 -->
<g id="edge41" class="edge">
<title>Node34&#45;&gt;Node35</title>
<path fill="none" stroke="#63b8ff" d="M1554.68,-190.93C1539.66,-179.35 1521.83,-165.61 1510.47,-156.84"/>
<polygon fill="#63b8ff" stroke="#63b8ff" points="1552.32,-193.54 1562.38,-196.87 1556.6,-187.99 1552.32,-193.54"/>
</g>
<!-- Node36 -->
<g id="node36" class="node">
<title>Node36</title>
<g id="a_node36"><a xlink:href="d__menu__calibration_8cpp.html" target="_top" xlink:title=" ">
<polygon fill="white" stroke="#666666" points="1751,-156.5 1581,-156.5 1581,-137.5 1751,-137.5 1751,-156.5"/>
<text text-anchor="middle" x="1666" y="-144.5" font-family="Helvetica,sans-Serif" font-size="10.00">src/d/menu/d_menu_calibration.cpp</text>
</a>
</g>
</g>
<!-- Node34&#45;&gt;Node36 -->
<g id="edge42" class="edge">
<title>Node34&#45;&gt;Node36</title>
<path fill="none" stroke="#63b8ff" d="M1609.65,-190.93C1624.85,-179.35 1642.89,-165.61 1654.39,-156.84"/>
<polygon fill="#63b8ff" stroke="#63b8ff" points="1607.68,-188.03 1601.85,-196.88 1611.92,-193.6 1607.68,-188.03"/>
</g>
<!-- Node37 -->
<g id="node37" class="node">
<title>Node37</title>
<g id="a_node37"><a xlink:href="d__menu__fishing_8cpp.html" target="_top" xlink:title=" ">
<polygon fill="white" stroke="#666666" points="1923,-156.5 1769,-156.5 1769,-137.5 1923,-137.5 1923,-156.5"/>
<text text-anchor="middle" x="1846" y="-144.5" font-family="Helvetica,sans-Serif" font-size="10.00">src/d/menu/d_menu_fishing.cpp</text>
</a>
</g>
</g>
<!-- Node34&#45;&gt;Node37 -->
<g id="edge43" class="edge">
<title>Node34&#45;&gt;Node37</title>
<path fill="none" stroke="#63b8ff" d="M1648.23,-195.94C1699.07,-183.62 1767.39,-167.06 1808.98,-156.98"/>
<polygon fill="#63b8ff" stroke="#63b8ff" points="1647.71,-192.47 1638.81,-198.23 1649.36,-199.27 1647.71,-192.47"/>
</g>
<!-- Node38 -->
<g id="node38" class="node">
<title>Node38</title>
<g id="a_node38"><a xlink:href="d__menu__save_8cpp.html" target="_top" xlink:title=" ">
<polygon fill="white" stroke="#666666" points="2088.5,-156.5 1941.5,-156.5 1941.5,-137.5 2088.5,-137.5 2088.5,-156.5"/>
<text text-anchor="middle" x="2015" y="-144.5" font-family="Helvetica,sans-Serif" font-size="10.00">src/d/menu/d_menu_save.cpp</text>
</a>
</g>
</g>
<!-- Node34&#45;&gt;Node38 -->
<g id="edge44" class="edge">
<title>Node34&#45;&gt;Node38</title>
<path fill="none" stroke="#63b8ff" d="M1648.58,-203C1719.05,-193.35 1833.47,-177.34 1932,-162 1942.11,-160.43 1952.89,-158.67 1963.23,-156.94"/>
<polygon fill="#63b8ff" stroke="#63b8ff" points="1648.16,-199.52 1638.73,-204.34 1649.11,-206.46 1648.16,-199.52"/>
</g>
<!-- Node39 -->
<g id="node39" class="node">
<title>Node39</title>
<g id="a_node39"><a xlink:href="d__msg__string_8cpp.html" target="_top" xlink:title=" ">
<polygon fill="white" stroke="#666666" points="1417,-156.5 1277,-156.5 1277,-137.5 1417,-137.5 1417,-156.5"/>
<text text-anchor="middle" x="1347" y="-144.5" font-family="Helvetica,sans-Serif" font-size="10.00">src/d/msg/d_msg_string.cpp</text>
</a>
</g>
</g>
<!-- Node34&#45;&gt;Node39 -->
<g id="edge45" class="edge">
<title>Node34&#45;&gt;Node39</title>
<path fill="none" stroke="#63b8ff" d="M1517.92,-194.55C1473.27,-182.39 1415.55,-166.67 1379.91,-156.96"/>
<polygon fill="#63b8ff" stroke="#63b8ff" points="1516.94,-197.91 1527.51,-197.16 1518.78,-191.15 1516.94,-197.91"/>
</g>
<!-- Node43 -->
<g id="node43" class="node">
<title>Node43</title>
<g id="a_node43"><a xlink:href="fvb_8h.html" target="_top" xlink:title=" ">
<polygon fill="white" stroke="#666666" points="2098.5,-294 1973.5,-294 1973.5,-264 2098.5,-264 2098.5,-294"/>
<text text-anchor="start" x="1981.5" y="-282" font-family="Helvetica,sans-Serif" font-size="10.00">include/JSystem/JStudio</text>
<text text-anchor="middle" x="2036" y="-271" font-family="Helvetica,sans-Serif" font-size="10.00">/JStudio/fvb.h</text>
</a>
</g>
</g>
<!-- Node42&#45;&gt;Node43 -->
<g id="edge50" class="edge">
<title>Node42&#45;&gt;Node43</title>
<path fill="none" stroke="#63b8ff" d="M2036,-318.39C2036,-310.13 2036,-301.28 2036,-294.16"/>
<polygon fill="#63b8ff" stroke="#63b8ff" points="2032.5,-318.28 2036,-328.28 2039.5,-318.28 2032.5,-318.28"/>
</g>
<!-- Node74 -->
<g id="node47" class="node">
<title>Node74</title>
<g id="a_node47"><a xlink:href="fvb-data-parse_8cpp.html" target="_top" xlink:title=" ">
<polygon fill="white" stroke="#666666" points="2253,-294 2117,-294 2117,-264 2253,-264 2253,-294"/>
<text text-anchor="start" x="2125" y="-282" font-family="Helvetica,sans-Serif" font-size="10.00">libs/JSystem/JStudio</text>
<text text-anchor="middle" x="2185" y="-271" font-family="Helvetica,sans-Serif" font-size="10.00">/JStudio/fvb&#45;data&#45;parse.cpp</text>
</a>
</g>
</g>
<!-- Node42&#45;&gt;Node74 -->
<g id="edge55" class="edge">
<title>Node42&#45;&gt;Node74</title>
<path fill="none" stroke="#63b8ff" d="M2079.91,-325.14C2102.77,-315.32 2130.28,-303.51 2151.42,-294.43"/>
<polygon fill="#63b8ff" stroke="#63b8ff" points="2078.64,-321.88 2070.83,-329.04 2081.4,-328.31 2078.64,-321.88"/>
</g>
<!-- Node44 -->
<g id="node44" class="node">
<title>Node44</title>
<g id="a_node44"><a xlink:href="jstudio-control_8h.html" target="_top" xlink:title=" ">
<polygon fill="#fff0f0" stroke="red" points="2231.5,-228 2106.5,-228 2106.5,-198 2231.5,-198 2231.5,-228"/>
<text text-anchor="start" x="2114.5" y="-216" font-family="Helvetica,sans-Serif" font-size="10.00">include/JSystem/JStudio</text>
<text text-anchor="middle" x="2169" y="-205" font-family="Helvetica,sans-Serif" font-size="10.00">/JStudio/jstudio&#45;control.h</text>
</a>
</g>
</g>
<!-- Node43&#45;&gt;Node44 -->
<g id="edge51" class="edge">
<title>Node43&#45;&gt;Node44</title>
<path fill="none" stroke="#63b8ff" d="M2076.06,-258.72C2096.37,-248.95 2120.62,-237.28 2139.25,-228.31"/>
<polygon fill="#63b8ff" stroke="#63b8ff" points="2074.7,-255.49 2067.21,-262.98 2077.74,-261.8 2074.7,-255.49"/>
</g>
<!-- Node45 -->
<g id="node45" class="node">
<title>Node45</title>
<g id="a_node45"><a xlink:href="jstudio-object_8h.html" target="_top" xlink:title=" ">
<polygon fill="#fff0f0" stroke="red" points="2231.5,-162 2106.5,-162 2106.5,-132 2231.5,-132 2231.5,-162"/>
<text text-anchor="start" x="2114.5" y="-150" font-family="Helvetica,sans-Serif" font-size="10.00">include/JSystem/JStudio</text>
<text text-anchor="middle" x="2169" y="-139" font-family="Helvetica,sans-Serif" font-size="10.00">/JStudio/jstudio&#45;object.h</text>
</a>
</g>
</g>
<!-- Node43&#45;&gt;Node45 -->
<g id="edge53" class="edge">
<title>Node43&#45;&gt;Node45</title>
<path fill="none" stroke="#63b8ff" d="M2051.03,-254.48C2062.44,-237.65 2079.17,-215.06 2097,-198 2111.3,-184.33 2129.64,-171.65 2144.23,-162.48"/>
<polygon fill="#63b8ff" stroke="#63b8ff" points="2048.4,-252.1 2045.79,-262.37 2054.24,-255.97 2048.4,-252.1"/>
</g>
<!-- Node73 -->
<g id="node46" class="node">
<title>Node73</title>
<g id="a_node46"><a xlink:href="fvb_8cpp.html" target="_top" xlink:title=" ">
<polygon fill="white" stroke="#666666" points="2049.5,-228 1940.5,-228 1940.5,-198 2049.5,-198 2049.5,-228"/>
<text text-anchor="start" x="1948.5" y="-216" font-family="Helvetica,sans-Serif" font-size="10.00">libs/JSystem/JStudio</text>
<text text-anchor="middle" x="1995" y="-205" font-family="Helvetica,sans-Serif" font-size="10.00">/JStudio/fvb.cpp</text>
</a>
</g>
</g>
<!-- Node43&#45;&gt;Node73 -->
<g id="edge54" class="edge">
<title>Node43&#45;&gt;Node73</title>
<path fill="none" stroke="#63b8ff" d="M2020.7,-254.11C2015.1,-245.38 2008.95,-235.78 2004.07,-228.16"/>
<polygon fill="#63b8ff" stroke="#63b8ff" points="2017.74,-255.99 2026.08,-262.52 2023.64,-252.21 2017.74,-255.99"/>
</g>
<!-- Node44&#45;&gt;Node45 -->
<g id="edge52" class="edge">
<title>Node44&#45;&gt;Node45</title>
<path fill="none" stroke="#63b8ff" d="M2169,-186.39C2169,-178.13 2169,-169.28 2169,-162.16"/>
<polygon fill="#63b8ff" stroke="#63b8ff" points="2165.5,-186.28 2169,-196.28 2172.5,-186.28 2165.5,-186.28"/>
</g>
</g>
</svg>
        <g id="navigator" transform="translate(0 0)" fill="#404254">
                <rect fill="#f2f5e9" fill-opacity="0.5" stroke="#606060" stroke-width=".5" x="0" y="0" width="60" height="60"/>
                <use id="zoomplus" xlink:href="#zoomPlus" x="17" y="9" onmousedown="handleZoom(evt,'in')"/>
                <use id="zoomminus" xlink:href="#zoomMin" x="42" y="9" onmousedown="handleZoom(evt,'out')"/>
                <use id="reset" xlink:href="#resetDef" x="30" y="36" onmousedown="handleReset()"/>
                <g id="arrowUp" xlink:href="#dirArrow" transform="translate(30 24)" onmousedown="handlePan(0,-1)">
                  <use xlink:href="#rim" fill="#404040">
                        <set attributeName="fill" to="#808080" begin="arrowUp.mouseover" end="arrowUp.mouseout"/>
                  </use>
                  <path fill="none" stroke="white" stroke-width="1.5" d="M0,-3.0v7 M-2.5,-0.5L0,-3.0L2.5,-0.5"/>
                </g>
                <g id="arrowRight" xlink:href="#dirArrow" transform="rotate(90) translate(36 -43)" onmousedown="handlePan(1,0)">
                  <use xlink:href="#rim" fill="#404040">
                        <set attributeName="fill" to="#808080" begin="arrowRight.mouseover" end="arrowRight.mouseout"/>
                  </use>
                  <path fill="none" stroke="white" stroke-width="1.5" d="M0,-3.0v7 M-2.5,-0.5L0,-3.0L2.5,-0.5"/>
                </g>
                <g id="arrowDown" xlink:href="#dirArrow" transform="rotate(180) translate(-30 -48)" onmousedown="handlePan(0,1)">
                  <use xlink:href="#rim" fill="#404040">
                        <set attributeName="fill" to="#808080" begin="arrowDown.mouseover" end="arrowDown.mouseout"/>
                  </use>
                  <path fill="none" stroke="white" stroke-width="1.5" d="M0,-3.0v7 M-2.5,-0.5L0,-3.0L2.5,-0.5"/>
                </g>
                <g id="arrowLeft" xlink:href="#dirArrow" transform="rotate(270) translate(-36 17)" onmousedown="handlePan(-1,0)">
                  <use xlink:href="#rim" fill="#404040">
                        <set attributeName="fill" to="#808080" begin="arrowLeft.mouseover" end="arrowLeft.mouseout"/>
                  </use>
                  <path fill="none" stroke="white" stroke-width="1.5" d="M0,-3.0v7 M-2.5,-0.5L0,-3.0L2.5,-0.5"/>
                </g>
        </g>
        <svg viewBox="0 0 15 15" width="100%" height="30px" preserveAspectRatio="xMaxYMin meet">
         <g id="arrow_out" transform="scale(0.3 0.3)">
          <a xlink:href="search_8h__dep__incl_org.svg" target="_base">
           <rect id="button" ry="5" rx="5" y="6" x="6" height="38" width="38"
                fill="#f2f5e9" fill-opacity="0.5" stroke="#606060" stroke-width="1.0"/>
           <path id="arrow"
             d="M 11.500037,31.436501 C 11.940474,20.09759 22.043105,11.32322 32.158766,21.979434 L 37.068811,17.246167 C 37.068811,17.246167 37.088388,32 37.088388,32 L 22.160133,31.978069 C 22.160133,31.978069 26.997745,27.140456 26.997745,27.140456 C 18.528582,18.264221 13.291696,25.230495 11.500037,31.436501 z"
             style="fill:#404040;"/>
          </a>
         </g>
        </svg>
</svg>
