<?xml version="1.0" encoding="UTF-8" standalone="no"?>
<!DOCTYPE svg PUBLIC "-//W3C//DTD SVG 1.1//EN"
 "http://www.w3.org/Graphics/SVG/1.1/DTD/svg11.dtd">
<!-- Generated by graphviz version 7.0.5 (20221223.1930)
 -->
<!-- Title: JAISe Pages: 1 -->
<svg width="182pt" height="82pt"
 viewBox="0.00 0.00 182.00 82.00" xmlns="http://www.w3.org/2000/svg" xmlns:xlink="http://www.w3.org/1999/xlink">
<g id="graph0" class="graph" transform="scale(1 1) rotate(0) translate(4 78)">
<title>JAISe</title>
<!-- Node1 -->
<g id="node1" class="node">
<title>Node1</title>
<g id="a_node1"><a xlink:title=" ">
<polygon fill="#999999" stroke="#666666" points="118.5,-19 74.5,-19 74.5,0 118.5,0 118.5,-19"/>
<text text-anchor="middle" x="96.5" y="-7" font-family="Helvetica,sans-Serif" font-size="10.00">JAISe</text>
</a>
</g>
</g>
<!-- Node2 -->
<g id="node2" class="node">
<title>Node2</title>
<g id="a_node2"><a xlink:href="structJAISePlaceHolder.html" target="_top" xlink:title=" ">
<polygon fill="white" stroke="#666666" points="97,-74 0,-74 0,-55 97,-55 97,-74"/>
<text text-anchor="middle" x="48.5" y="-62" font-family="Helvetica,sans-Serif" font-size="10.00">JAISePlaceHolder</text>
</a>
</g>
</g>
<!-- Node2&#45;&gt;Node1 -->
<g id="edge1" class="edge">
<title>Node2&#45;&gt;Node1</title>
<path fill="none" stroke="#63b8ff" d="M64.15,-46.22C72.25,-37.28 81.79,-26.74 88.4,-19.44"/>
<polygon fill="#63b8ff" stroke="#63b8ff" points="61.56,-43.86 57.44,-53.63 66.75,-48.56 61.56,-43.86"/>
</g>
<!-- Node3 -->
<g id="node3" class="node">
<title>Node3</title>
<g id="a_node3"><a xlink:href="structJAISound.html" target="_top" xlink:title=" ">
<polygon fill="white" stroke="#666666" points="174,-74 115,-74 115,-55 174,-55 174,-74"/>
<text text-anchor="middle" x="144.5" y="-62" font-family="Helvetica,sans-Serif" font-size="10.00">JAISound</text>
</a>
</g>
</g>
<!-- Node3&#45;&gt;Node1 -->
<g id="edge2" class="edge">
<title>Node3&#45;&gt;Node1</title>
<path fill="none" stroke="#63b8ff" d="M128.85,-46.22C120.75,-37.28 111.21,-26.74 104.6,-19.44"/>
<polygon fill="#63b8ff" stroke="#63b8ff" points="126.25,-48.56 135.56,-53.63 131.44,-43.86 126.25,-48.56"/>
</g>
</g>
</svg>
