<?xml version="1.0" encoding="UTF-8" standalone="no"?>
<!DOCTYPE svg PUBLIC "-//W3C//DTD SVG 1.1//EN"
 "http://www.w3.org/Graphics/SVG/1.1/DTD/svg11.dtd">
<!-- Generated by graphviz version 7.0.5 (20221223.1930)
 -->
<!-- Title: mDoGph_gInf_c Pages: 1 -->
<!--zoomable 251 -->
<svg id="main" version="1.1" xmlns="http://www.w3.org/2000/svg" xmlns:xlink="http://www.w3.org/1999/xlink" xml:space="preserve" onload="init(evt)">
<style type="text/css"><![CDATA[
.edge:hover path { stroke: red; }
.edge:hover polygon { stroke: red; fill: red; }
]]></style>
<script type="text/javascript"><![CDATA[
var edges = document.getElementsByTagName('g');
if (edges && edges.length) {
  for (var i=0;i<edges.length;i++) {
    if (edges[i].id.substr(0,4)=='edge') {
      edges[i].setAttribute('class','edge');
    }
  }
}
]]></script>
        <defs>
                <circle id="rim" cx="0" cy="0" r="7"/>
                <circle id="rim2" cx="0" cy="0" r="3.5"/>
                <g id="zoomPlus">
                        <use xlink:href="#rim" fill="#404040">
                                <set attributeName="fill" to="#808080" begin="zoomplus.mouseover" end="zoomplus.mouseout"/>
                        </use>
                        <path d="M-4,0h8M0,-4v8" fill="none" stroke="white" stroke-width="1.5" pointer-events="none"/>
                </g>
                <g id="zoomMin">
                        <use xlink:href="#rim" fill="#404040">
                                <set attributeName="fill" to="#808080" begin="zoomminus.mouseover" end="zoomminus.mouseout"/>
                        </use>
                        <path d="M-4,0h8" fill="none" stroke="white" stroke-width="1.5" pointer-events="none"/>
                </g>
                <g id="dirArrow">
                        <path fill="none" stroke="white" stroke-width="1.5" d="M0,-3.0v7 M-2.5,-0.5L0,-3.0L2.5,-0.5"/>
                </g>
               <g id="resetDef">
                       <use xlink:href="#rim2" fill="#404040">
                               <set attributeName="fill" to="#808080" begin="reset.mouseover" end="reset.mouseout"/>
                       </use>
               </g>
        </defs>

<script type="text/javascript">
var viewWidth = 517;
var viewHeight = 251;
var sectionId = 'dynsection-0';
</script>
<script xlink:href="svgpan.js"/>
<svg id="graph" class="graph">
<g id="viewport">
<title>mDoGph_gInf_c</title>
<!-- Node1 -->
<g id="node1" class="node">
<title>Node1</title>
<g id="a_node1"><a xlink:title=" ">
<polygon fill="#999999" stroke="#666666" points="290.47,-19 203.47,-19 203.47,0 290.47,0 290.47,-19"/>
<text text-anchor="middle" x="246.97" y="-7" font-family="Helvetica,sans-Serif" font-size="10.00">mDoGph_gInf_c</text>
</a>
</g>
</g>
<!-- Node2 -->
<g id="node2" class="node">
<title>Node2</title>
<g id="a_node2"><a xlink:href="struct__GXColor.html" target="_top" xlink:title=" ">
<polygon fill="white" stroke="#666666" points="114.47,-176 55.47,-176 55.47,-157 114.47,-157 114.47,-176"/>
<text text-anchor="middle" x="84.97" y="-164" font-family="Helvetica,sans-Serif" font-size="10.00">_GXColor</text>
</a>
</g>
</g>
<!-- Node2&#45;&gt;Node1 -->
<g id="edge1" class="edge">
<title>Node2&#45;&gt;Node1</title>
<path fill="none" stroke="#9a32cd" stroke-dasharray="5,2" d="M56.44,-151.35C26.02,-134.36 -15.11,-104.68 5.97,-77 29.76,-45.75 140.38,-25.45 203.16,-16.23"/>
<polygon fill="#9a32cd" stroke="#9a32cd" points="54.44,-154.25 64.91,-155.89 57.75,-148.08 54.44,-154.25"/>
<text text-anchor="middle" x="33.97" y="-91" font-family="Helvetica,sans-Serif" font-size="10.00"> mBackColor</text>
<text text-anchor="middle" x="33.97" y="-80" font-family="Helvetica,sans-Serif" font-size="10.00">mFadeColor</text>
</g>
<!-- Node9 -->
<g id="node9" class="node">
<title>Node9</title>
<g id="a_node9"><a xlink:href="classmDoGph__gInf__c_1_1bloom__c.html" target="_top" xlink:title=" ">
<polygon fill="white" stroke="#666666" points="198.97,-97.5 70.97,-97.5 70.97,-78.5 198.97,-78.5 198.97,-97.5"/>
<text text-anchor="middle" x="134.97" y="-85.5" font-family="Helvetica,sans-Serif" font-size="10.00">mDoGph_gInf_c::bloom_c</text>
</a>
</g>
</g>
<!-- Node2&#45;&gt;Node9 -->
<g id="edge9" class="edge">
<title>Node2&#45;&gt;Node9</title>
<path fill="none" stroke="#9a32cd" stroke-dasharray="5,2" d="M96.73,-147.5C106.99,-131.81 121.42,-109.72 129.3,-97.67"/>
<polygon fill="#9a32cd" stroke="#9a32cd" points="94.07,-145.17 91.53,-155.46 99.93,-149 94.07,-145.17"/>
<text text-anchor="middle" x="144.97" y="-131" font-family="Helvetica,sans-Serif" font-size="10.00"> mBlendColor</text>
<text text-anchor="middle" x="144.97" y="-120" font-family="Helvetica,sans-Serif" font-size="10.00">mMonoColor</text>
</g>
<!-- Node3 -->
<g id="node3" class="node">
<title>Node3</title>
<g id="a_node3"><a xlink:href="structJUTFader.html" target="_top" xlink:title=" ">
<polygon fill="white" stroke="#666666" points="276.97,-97.5 216.97,-97.5 216.97,-78.5 276.97,-78.5 276.97,-97.5"/>
<text text-anchor="middle" x="246.97" y="-85.5" font-family="Helvetica,sans-Serif" font-size="10.00">JUTFader</text>
</a>
</g>
</g>
<!-- Node3&#45;&gt;Node1 -->
<g id="edge2" class="edge">
<title>Node3&#45;&gt;Node1</title>
<path fill="none" stroke="#9a32cd" stroke-dasharray="5,2" d="M246.97,-66.72C246.97,-51.23 246.97,-30.65 246.97,-19.17"/>
<polygon fill="#9a32cd" stroke="#9a32cd" points="243.47,-66.71 246.97,-76.71 250.47,-66.71 243.47,-66.71"/>
<text text-anchor="middle" x="264.97" y="-45.5" font-family="Helvetica,sans-Serif" font-size="10.00"> mFader</text>
</g>
<!-- Node4 -->
<g id="node4" class="node">
<title>Node4</title>
<g id="a_node4"><a xlink:href="structJUtility_1_1TColor.html" target="_top" xlink:title=" ">
<polygon fill="white" stroke="#666666" points="232.97,-176 152.97,-176 152.97,-157 232.97,-157 232.97,-176"/>
<text text-anchor="middle" x="192.97" y="-164" font-family="Helvetica,sans-Serif" font-size="10.00">JUtility::TColor</text>
</a>
</g>
</g>
<!-- Node4&#45;&gt;Node3 -->
<g id="edge3" class="edge">
<title>Node4&#45;&gt;Node3</title>
<path fill="none" stroke="#9a32cd" stroke-dasharray="5,2" d="M204.9,-147.54C211.09,-138.34 218.82,-126.99 225.97,-117 230.63,-110.47 236.07,-103.23 240.24,-97.75"/>
<polygon fill="#9a32cd" stroke="#9a32cd" points="202.18,-145.31 199.53,-155.57 208,-149.2 202.18,-145.31"/>
<text text-anchor="middle" x="242.97" y="-125.5" font-family="Helvetica,sans-Serif" font-size="10.00"> mColor</text>
</g>
<!-- Node5 -->
<g id="node5" class="node">
<title>Node5</title>
<g id="a_node5"><a xlink:href="struct__GXColor.html" target="_top" xlink:title=" ">
<polygon fill="white" stroke="#666666" points="219.47,-237.5 166.47,-237.5 166.47,-218.5 219.47,-218.5 219.47,-237.5"/>
<text text-anchor="middle" x="192.97" y="-225.5" font-family="Helvetica,sans-Serif" font-size="10.00">GXColor</text>
</a>
</g>
</g>
<!-- Node5&#45;&gt;Node4 -->
<g id="edge4" class="edge">
<title>Node5&#45;&gt;Node4</title>
<path fill="none" stroke="#63b8ff" d="M192.97,-206.82C192.97,-196.44 192.97,-184.33 192.97,-176.32"/>
<polygon fill="#63b8ff" stroke="#63b8ff" points="189.47,-206.71 192.97,-216.71 196.47,-206.71 189.47,-206.71"/>
</g>
<!-- Node6 -->
<g id="node6" class="node">
<title>Node6</title>
<g id="a_node6"><a xlink:href="structJGeometry_1_1TBox2.html" target="_top" xlink:title=" ">
<polygon fill="white" stroke="#666666" points="376.97,-176 250.97,-176 250.97,-157 376.97,-157 376.97,-176"/>
<text text-anchor="middle" x="313.97" y="-164" font-family="Helvetica,sans-Serif" font-size="10.00">JGeometry::TBox2&lt; f32 &gt;</text>
</a>
</g>
</g>
<!-- Node6&#45;&gt;Node3 -->
<g id="edge5" class="edge">
<title>Node6&#45;&gt;Node3</title>
<path fill="none" stroke="#9a32cd" stroke-dasharray="5,2" d="M298.98,-148.39C285.2,-132.65 265.32,-109.95 254.56,-97.67"/>
<polygon fill="#9a32cd" stroke="#9a32cd" points="296.06,-150.37 305.28,-155.59 301.33,-145.76 296.06,-150.37"/>
<text text-anchor="middle" x="303.97" y="-125.5" font-family="Helvetica,sans-Serif" font-size="10.00"> mBox</text>
</g>
<!-- Node7 -->
<g id="node7" class="node">
<title>Node7</title>
<g id="a_node7"><a xlink:href="structJGeometry_1_1TBox.html" target="_top" xlink:title=" ">
<polygon fill="white" stroke="#666666" points="377.97,-243 249.97,-243 249.97,-213 377.97,-213 377.97,-243"/>
<text text-anchor="start" x="257.97" y="-231" font-family="Helvetica,sans-Serif" font-size="10.00">JGeometry::TBox&lt; TVec2</text>
<text text-anchor="middle" x="313.97" y="-220" font-family="Helvetica,sans-Serif" font-size="10.00">&lt; T &gt; &gt;</text>
</a>
</g>
</g>
<!-- Node7&#45;&gt;Node6 -->
<g id="edge6" class="edge">
<title>Node7&#45;&gt;Node6</title>
<path fill="none" stroke="#63b8ff" d="M313.97,-201.13C313.97,-192.29 313.97,-182.99 313.97,-176.42"/>
<polygon fill="#63b8ff" stroke="#63b8ff" points="310.47,-201.08 313.97,-211.08 317.47,-201.08 310.47,-201.08"/>
</g>
<!-- Node8 -->
<g id="node8" class="node">
<title>Node8</title>
<g id="a_node8"><a xlink:href="struct__GXTexObj.html" target="_top" xlink:title=" ">
<polygon fill="white" stroke="#666666" points="362.47,-97.5 295.47,-97.5 295.47,-78.5 362.47,-78.5 362.47,-97.5"/>
<text text-anchor="middle" x="328.97" y="-85.5" font-family="Helvetica,sans-Serif" font-size="10.00">_GXTexObj</text>
</a>
</g>
</g>
<!-- Node8&#45;&gt;Node1 -->
<g id="edge7" class="edge">
<title>Node8&#45;&gt;Node1</title>
<path fill="none" stroke="#9a32cd" stroke-dasharray="5,2" d="M315.99,-69.13C308.21,-59.06 297.75,-46.62 286.97,-37 279.51,-30.34 270.25,-24.11 262.52,-19.36"/>
<polygon fill="#9a32cd" stroke="#9a32cd" points="313.09,-71.09 321.89,-77 318.69,-66.9 313.09,-71.09"/>
<text text-anchor="middle" x="354.47" y="-51" font-family="Helvetica,sans-Serif" font-size="10.00"> mFrameBufferTexObj</text>
<text text-anchor="middle" x="354.47" y="-40" font-family="Helvetica,sans-Serif" font-size="10.00">mZbufferTexObj</text>
</g>
<!-- Node9&#45;&gt;Node1 -->
<g id="edge8" class="edge">
<title>Node9&#45;&gt;Node1</title>
<path fill="none" stroke="#9a32cd" stroke-dasharray="5,2" d="M154.38,-70.9C167.02,-60.71 184.07,-47.52 199.97,-37 209.5,-30.69 220.62,-24.38 229.65,-19.5"/>
<polygon fill="#9a32cd" stroke="#9a32cd" points="152.37,-68.03 146.83,-77.06 156.79,-73.45 152.37,-68.03"/>
<text text-anchor="middle" x="221.47" y="-45.5" font-family="Helvetica,sans-Serif" font-size="10.00"> m_bloom</text>
</g>
<!-- Node10 -->
<g id="node10" class="node">
<title>Node10</title>
<g id="a_node10"><a xlink:href="structResTIMG.html" target="_top" xlink:title=" ">
<polygon fill="white" stroke="#666666" points="464.47,-97.5 405.47,-97.5 405.47,-78.5 464.47,-78.5 464.47,-97.5"/>
<text text-anchor="middle" x="434.97" y="-85.5" font-family="Helvetica,sans-Serif" font-size="10.00">ResTIMG</text>
</a>
</g>
</g>
<!-- Node10&#45;&gt;Node1 -->
<g id="edge10" class="edge">
<title>Node10&#45;&gt;Node1</title>
<path fill="none" stroke="#9a32cd" stroke-dasharray="5,2" d="M428.52,-67.79C423.92,-57.05 416.63,-44.38 405.97,-37 387.73,-24.38 331.12,-17.23 290.65,-13.61"/>
<polygon fill="#9a32cd" stroke="#9a32cd" points="425.16,-68.8 431.96,-76.93 431.72,-66.34 425.16,-68.8"/>
<text text-anchor="middle" x="465.97" y="-51" font-family="Helvetica,sans-Serif" font-size="10.00"> mFrameBufferTimg</text>
<text text-anchor="middle" x="465.97" y="-40" font-family="Helvetica,sans-Serif" font-size="10.00">mZbufferTimg</text>
</g>
</g>
</svg>
        <g id="navigator" transform="translate(0 0)" fill="#404254">
                <rect fill="#f2f5e9" fill-opacity="0.5" stroke="#606060" stroke-width=".5" x="0" y="0" width="60" height="60"/>
                <use id="zoomplus" xlink:href="#zoomPlus" x="17" y="9" onmousedown="handleZoom(evt,'in')"/>
                <use id="zoomminus" xlink:href="#zoomMin" x="42" y="9" onmousedown="handleZoom(evt,'out')"/>
                <use id="reset" xlink:href="#resetDef" x="30" y="36" onmousedown="handleReset()"/>
                <g id="arrowUp" xlink:href="#dirArrow" transform="translate(30 24)" onmousedown="handlePan(0,-1)">
                  <use xlink:href="#rim" fill="#404040">
                        <set attributeName="fill" to="#808080" begin="arrowUp.mouseover" end="arrowUp.mouseout"/>
                  </use>
                  <path fill="none" stroke="white" stroke-width="1.5" d="M0,-3.0v7 M-2.5,-0.5L0,-3.0L2.5,-0.5"/>
                </g>
                <g id="arrowRight" xlink:href="#dirArrow" transform="rotate(90) translate(36 -43)" onmousedown="handlePan(1,0)">
                  <use xlink:href="#rim" fill="#404040">
                        <set attributeName="fill" to="#808080" begin="arrowRight.mouseover" end="arrowRight.mouseout"/>
                  </use>
                  <path fill="none" stroke="white" stroke-width="1.5" d="M0,-3.0v7 M-2.5,-0.5L0,-3.0L2.5,-0.5"/>
                </g>
                <g id="arrowDown" xlink:href="#dirArrow" transform="rotate(180) translate(-30 -48)" onmousedown="handlePan(0,1)">
                  <use xlink:href="#rim" fill="#404040">
                        <set attributeName="fill" to="#808080" begin="arrowDown.mouseover" end="arrowDown.mouseout"/>
                  </use>
                  <path fill="none" stroke="white" stroke-width="1.5" d="M0,-3.0v7 M-2.5,-0.5L0,-3.0L2.5,-0.5"/>
                </g>
                <g id="arrowLeft" xlink:href="#dirArrow" transform="rotate(270) translate(-36 17)" onmousedown="handlePan(-1,0)">
                  <use xlink:href="#rim" fill="#404040">
                        <set attributeName="fill" to="#808080" begin="arrowLeft.mouseover" end="arrowLeft.mouseout"/>
                  </use>
                  <path fill="none" stroke="white" stroke-width="1.5" d="M0,-3.0v7 M-2.5,-0.5L0,-3.0L2.5,-0.5"/>
                </g>
        </g>
        <svg viewBox="0 0 15 15" width="100%" height="30px" preserveAspectRatio="xMaxYMin meet">
         <g id="arrow_out" transform="scale(0.3 0.3)">
          <a xlink:href="structmDoGph__gInf__c__coll__graph_org.svg" target="_base">
           <rect id="button" ry="5" rx="5" y="6" x="6" height="38" width="38"
                fill="#f2f5e9" fill-opacity="0.5" stroke="#606060" stroke-width="1.0"/>
           <path id="arrow"
             d="M 11.500037,31.436501 C 11.940474,20.09759 22.043105,11.32322 32.158766,21.979434 L 37.068811,17.246167 C 37.068811,17.246167 37.088388,32 37.088388,32 L 22.160133,31.978069 C 22.160133,31.978069 26.997745,27.140456 26.997745,27.140456 C 18.528582,18.264221 13.291696,25.230495 11.500037,31.436501 z"
             style="fill:#404040;"/>
          </a>
         </g>
        </svg>
</svg>
