<?xml version="1.0" encoding="UTF-8" standalone="no"?>
<!DOCTYPE svg PUBLIC "-//W3C//DTD SVG 1.1//EN"
 "http://www.w3.org/Graphics/SVG/1.1/DTD/svg11.dtd">
<!-- Generated by graphviz version 7.0.5 (20221223.1930)
 -->
<!-- Title: include/MSL_C/utility.h Pages: 1 -->
<svg width="2438pt" height="225pt"
 viewBox="0.00 0.00 2437.50 225.00" xmlns="http://www.w3.org/2000/svg" xmlns:xlink="http://www.w3.org/1999/xlink">
<g id="graph0" class="graph" transform="scale(1 1) rotate(0) translate(4 221)">
<title>include/MSL_C/utility.h</title>
<!-- Node1 -->
<g id="node1" class="node">
<title>Node1</title>
<g id="a_node1"><a xlink:title=" ">
<polygon fill="#999999" stroke="#666666" points="1514.5,-217 1398.5,-217 1398.5,-198 1514.5,-198 1514.5,-217"/>
<text text-anchor="middle" x="1456.5" y="-205" font-family="Helvetica,sans-Serif" font-size="10.00">include/MSL_C/utility.h</text>
</a>
</g>
</g>
<!-- Node2 -->
<g id="node2" class="node">
<title>Node2</title>
<g id="a_node2"><a xlink:href="JMATrigonometric_8h.html" target="_top" xlink:title=" ">
<polygon fill="white" stroke="#666666" points="1516,-162 1397,-162 1397,-132 1516,-132 1516,-162"/>
<text text-anchor="start" x="1405" y="-150" font-family="Helvetica,sans-Serif" font-size="10.00">include/JSystem/JMath</text>
<text text-anchor="middle" x="1456.5" y="-139" font-family="Helvetica,sans-Serif" font-size="10.00">/JMATrigonometric.h</text>
</a>
</g>
</g>
<!-- Node1&#45;&gt;Node2 -->
<g id="edge1" class="edge">
<title>Node1&#45;&gt;Node2</title>
<path fill="none" stroke="#63b8ff" d="M1456.5,-186.51C1456.5,-178.49 1456.5,-169.43 1456.5,-162.11"/>
<polygon fill="#63b8ff" stroke="#63b8ff" points="1453,-186.35 1456.5,-196.35 1460,-186.35 1453,-186.35"/>
</g>
<!-- Node3 -->
<g id="node3" class="node">
<title>Node3</title>
<g id="a_node3"><a xlink:href="c__math_8h.html" target="_top" xlink:title=" ">
<polygon fill="white" stroke="#666666" points="1315,-96 1166,-96 1166,-66 1315,-66 1315,-96"/>
<text text-anchor="start" x="1174" y="-84" font-family="Helvetica,sans-Serif" font-size="10.00">include/SSystem/SComponent</text>
<text text-anchor="middle" x="1240.5" y="-73" font-family="Helvetica,sans-Serif" font-size="10.00">/c_math.h</text>
</a>
</g>
</g>
<!-- Node2&#45;&gt;Node3 -->
<g id="edge2" class="edge">
<title>Node2&#45;&gt;Node3</title>
<path fill="none" stroke="#63b8ff" d="M1397.04,-128.38C1363.08,-118.32 1321.03,-105.86 1289.07,-96.39"/>
<polygon fill="#63b8ff" stroke="#63b8ff" points="1395.72,-131.64 1406.3,-131.13 1397.71,-124.93 1395.72,-131.64"/>
</g>
<!-- Node22 -->
<g id="node22" class="node">
<title>Node22</title>
<g id="a_node22"><a xlink:href="JPABaseShape_8cpp.html" target="_top" xlink:title=" ">
<polygon fill="white" stroke="#666666" points="1447.5,-96 1333.5,-96 1333.5,-66 1447.5,-66 1447.5,-96"/>
<text text-anchor="start" x="1341.5" y="-84" font-family="Helvetica,sans-Serif" font-size="10.00">libs/JSystem/JParticle</text>
<text text-anchor="middle" x="1390.5" y="-73" font-family="Helvetica,sans-Serif" font-size="10.00">/JPABaseShape.cpp</text>
</a>
</g>
</g>
<!-- Node2&#45;&gt;Node22 -->
<g id="edge21" class="edge">
<title>Node2&#45;&gt;Node22</title>
<path fill="none" stroke="#63b8ff" d="M1433.61,-123.81C1424.16,-114.64 1413.47,-104.28 1405.11,-96.16"/>
<polygon fill="#63b8ff" stroke="#63b8ff" points="1431.15,-126.29 1440.77,-130.74 1436.02,-121.27 1431.15,-126.29"/>
</g>
<!-- Node23 -->
<g id="node23" class="node">
<title>Node23</title>
<g id="a_node23"><a xlink:href="JPAExtraShape_8cpp.html" target="_top" xlink:title=" ">
<polygon fill="white" stroke="#666666" points="1579.5,-96 1465.5,-96 1465.5,-66 1579.5,-66 1579.5,-96"/>
<text text-anchor="start" x="1473.5" y="-84" font-family="Helvetica,sans-Serif" font-size="10.00">libs/JSystem/JParticle</text>
<text text-anchor="middle" x="1522.5" y="-73" font-family="Helvetica,sans-Serif" font-size="10.00">/JPAExtraShape.cpp</text>
</a>
</g>
</g>
<!-- Node2&#45;&gt;Node23 -->
<g id="edge22" class="edge">
<title>Node2&#45;&gt;Node23</title>
<path fill="none" stroke="#63b8ff" d="M1479.39,-123.81C1488.84,-114.64 1499.53,-104.28 1507.89,-96.16"/>
<polygon fill="#63b8ff" stroke="#63b8ff" points="1476.98,-121.27 1472.23,-130.74 1481.85,-126.29 1476.98,-121.27"/>
</g>
<!-- Node24 -->
<g id="node24" class="node">
<title>Node24</title>
<g id="a_node24"><a xlink:href="JPAMath_8cpp.html" target="_top" xlink:title=" ">
<polygon fill="white" stroke="#666666" points="1711.5,-96 1597.5,-96 1597.5,-66 1711.5,-66 1711.5,-96"/>
<text text-anchor="start" x="1605.5" y="-84" font-family="Helvetica,sans-Serif" font-size="10.00">libs/JSystem/JParticle</text>
<text text-anchor="middle" x="1654.5" y="-73" font-family="Helvetica,sans-Serif" font-size="10.00">/JPAMath.cpp</text>
</a>
</g>
</g>
<!-- Node2&#45;&gt;Node24 -->
<g id="edge23" class="edge">
<title>Node2&#45;&gt;Node24</title>
<path fill="none" stroke="#63b8ff" d="M1511.57,-128.2C1542.56,-118.18 1580.76,-105.83 1609.87,-96.43"/>
<polygon fill="#63b8ff" stroke="#63b8ff" points="1510.81,-124.77 1502.38,-131.17 1512.97,-131.43 1510.81,-124.77"/>
</g>
<!-- Node4 -->
<g id="node4" class="node">
<title>Node4</title>
<g id="a_node4"><a xlink:href="JASLfo_8cpp.html" target="_top" xlink:title=" ">
<polygon fill="white" stroke="#666666" points="111,-30 0,-30 0,0 111,0 111,-30"/>
<text text-anchor="start" x="8" y="-18" font-family="Helvetica,sans-Serif" font-size="10.00">libs/JSystem/JAudio2</text>
<text text-anchor="middle" x="55.5" y="-7" font-family="Helvetica,sans-Serif" font-size="10.00">/JASLfo.cpp</text>
</a>
</g>
</g>
<!-- Node3&#45;&gt;Node4 -->
<g id="edge3" class="edge">
<title>Node3&#45;&gt;Node4</title>
<path fill="none" stroke="#63b8ff" d="M1154.35,-78.02C927.97,-72.53 320.08,-55.76 120.5,-30 117.52,-29.62 114.48,-29.17 111.42,-28.67"/>
<polygon fill="#63b8ff" stroke="#63b8ff" points="1154.21,-81.52 1164.29,-78.26 1154.38,-74.52 1154.21,-81.52"/>
</g>
<!-- Node5 -->
<g id="node5" class="node">
<title>Node5</title>
<g id="a_node5"><a xlink:href="c__lib_8cpp.html" target="_top" xlink:title=" ">
<polygon fill="white" stroke="#666666" points="263.5,-30 129.5,-30 129.5,0 263.5,0 263.5,-30"/>
<text text-anchor="start" x="137.5" y="-18" font-family="Helvetica,sans-Serif" font-size="10.00">libs/SSystem/SComponent</text>
<text text-anchor="middle" x="196.5" y="-7" font-family="Helvetica,sans-Serif" font-size="10.00">/c_lib.cpp</text>
</a>
</g>
</g>
<!-- Node3&#45;&gt;Node5 -->
<g id="edge4" class="edge">
<title>Node3&#45;&gt;Node5</title>
<path fill="none" stroke="#63b8ff" d="M1154.19,-79.31C984.64,-77.14 596.4,-68.03 272.5,-30 269.7,-29.67 266.85,-29.3 263.98,-28.9"/>
<polygon fill="#63b8ff" stroke="#63b8ff" points="1153.97,-82.81 1164.01,-79.44 1154.06,-75.81 1153.97,-82.81"/>
</g>
<!-- Node6 -->
<g id="node6" class="node">
<title>Node6</title>
<g id="a_node6"><a xlink:href="c__m3d_8cpp.html" target="_top" xlink:title=" ">
<polygon fill="white" stroke="#666666" points="415.5,-30 281.5,-30 281.5,0 415.5,0 415.5,-30"/>
<text text-anchor="start" x="289.5" y="-18" font-family="Helvetica,sans-Serif" font-size="10.00">libs/SSystem/SComponent</text>
<text text-anchor="middle" x="348.5" y="-7" font-family="Helvetica,sans-Serif" font-size="10.00">/c_m3d.cpp</text>
</a>
</g>
</g>
<!-- Node3&#45;&gt;Node6 -->
<g id="edge5" class="edge">
<title>Node3&#45;&gt;Node6</title>
<path fill="none" stroke="#63b8ff" d="M1154.37,-78.15C1005.21,-74.17 689.33,-62.39 424.5,-30 421.7,-29.66 418.85,-29.28 415.98,-28.87"/>
<polygon fill="#63b8ff" stroke="#63b8ff" points="1154.09,-81.64 1164.18,-78.4 1154.27,-74.64 1154.09,-81.64"/>
</g>
<!-- Node7 -->
<g id="node7" class="node">
<title>Node7</title>
<g id="a_node7"><a xlink:href="c__math_8cpp.html" target="_top" xlink:title=" ">
<polygon fill="white" stroke="#666666" points="567.5,-30 433.5,-30 433.5,0 567.5,0 567.5,-30"/>
<text text-anchor="start" x="441.5" y="-18" font-family="Helvetica,sans-Serif" font-size="10.00">libs/SSystem/SComponent</text>
<text text-anchor="middle" x="500.5" y="-7" font-family="Helvetica,sans-Serif" font-size="10.00">/c_math.cpp</text>
</a>
</g>
</g>
<!-- Node3&#45;&gt;Node7 -->
<g id="edge6" class="edge">
<title>Node3&#45;&gt;Node7</title>
<path fill="none" stroke="#63b8ff" d="M1154.39,-76.46C1027.48,-70.58 782.94,-56.71 576.5,-30 573.71,-29.64 570.86,-29.24 567.99,-28.82"/>
<polygon fill="#63b8ff" stroke="#63b8ff" points="1153.89,-79.94 1164.04,-76.9 1154.21,-72.95 1153.89,-79.94"/>
</g>
<!-- Node8 -->
<g id="node8" class="node">
<title>Node8</title>
<g id="a_node8"><a xlink:href="c__xyz_8cpp.html" target="_top" xlink:title=" ">
<polygon fill="white" stroke="#666666" points="719.5,-30 585.5,-30 585.5,0 719.5,0 719.5,-30"/>
<text text-anchor="start" x="593.5" y="-18" font-family="Helvetica,sans-Serif" font-size="10.00">libs/SSystem/SComponent</text>
<text text-anchor="middle" x="652.5" y="-7" font-family="Helvetica,sans-Serif" font-size="10.00">/c_xyz.cpp</text>
</a>
</g>
</g>
<!-- Node3&#45;&gt;Node8 -->
<g id="edge7" class="edge">
<title>Node3&#45;&gt;Node8</title>
<path fill="none" stroke="#63b8ff" d="M1154.18,-73.82C1052.2,-65.99 877.53,-50.96 728.5,-30 725.71,-29.61 722.87,-29.19 720,-28.74"/>
<polygon fill="#63b8ff" stroke="#63b8ff" points="1153.9,-77.31 1164.14,-74.57 1154.43,-70.33 1153.9,-77.31"/>
</g>
<!-- Node9 -->
<g id="node9" class="node">
<title>Node9</title>
<g id="a_node9"><a xlink:href="d__a__alink_8cpp.html" target="_top" xlink:title=" ">
<polygon fill="white" stroke="#666666" points="847,-24.5 738,-24.5 738,-5.5 847,-5.5 847,-24.5"/>
<text text-anchor="middle" x="792.5" y="-12.5" font-family="Helvetica,sans-Serif" font-size="10.00">src/d/a/d_a_alink.cpp</text>
</a>
</g>
</g>
<!-- Node3&#45;&gt;Node9 -->
<g id="edge8" class="edge">
<title>Node3&#45;&gt;Node9</title>
<path fill="none" stroke="#63b8ff" d="M1154.3,-70.92C1076.27,-62.19 958.29,-47.73 856.5,-30 848.21,-28.56 839.36,-26.78 830.98,-24.98"/>
<polygon fill="#63b8ff" stroke="#63b8ff" points="1153.69,-74.37 1164.02,-72 1154.46,-67.42 1153.69,-74.37"/>
</g>
<!-- Node10 -->
<g id="node10" class="node">
<title>Node10</title>
<g id="a_node10"><a xlink:href="d__a__player_8cpp.html" target="_top" xlink:title=" ">
<polygon fill="white" stroke="#666666" points="979.5,-24.5 865.5,-24.5 865.5,-5.5 979.5,-5.5 979.5,-24.5"/>
<text text-anchor="middle" x="922.5" y="-12.5" font-family="Helvetica,sans-Serif" font-size="10.00">src/d/a/d_a_player.cpp</text>
</a>
</g>
</g>
<!-- Node3&#45;&gt;Node10 -->
<g id="edge9" class="edge">
<title>Node3&#45;&gt;Node10</title>
<path fill="none" stroke="#63b8ff" d="M1155.14,-63.35C1106.31,-53.76 1043.93,-41.38 988.5,-30 980.7,-28.4 972.38,-26.66 964.38,-24.97"/>
<polygon fill="#63b8ff" stroke="#63b8ff" points="1154.32,-66.76 1164.81,-65.25 1155.67,-59.89 1154.32,-66.76"/>
</g>
<!-- Node11 -->
<g id="node11" class="node">
<title>Node11</title>
<g id="a_node11"><a xlink:href="d__bg__w_8cpp.html" target="_top" xlink:title=" ">
<polygon fill="white" stroke="#666666" points="1105,-24.5 998,-24.5 998,-5.5 1105,-5.5 1105,-24.5"/>
<text text-anchor="middle" x="1051.5" y="-12.5" font-family="Helvetica,sans-Serif" font-size="10.00">src/d/bg/d_bg_w.cpp</text>
</a>
</g>
</g>
<!-- Node3&#45;&gt;Node11 -->
<g id="edge10" class="edge">
<title>Node3&#45;&gt;Node11</title>
<path fill="none" stroke="#63b8ff" d="M1187.36,-62.01C1151.71,-49.93 1106.28,-34.55 1078.04,-24.99"/>
<polygon fill="#63b8ff" stroke="#63b8ff" points="1186.06,-65.26 1196.65,-65.15 1188.3,-58.63 1186.06,-65.26"/>
</g>
<!-- Node12 -->
<g id="node12" class="node">
<title>Node12</title>
<g id="a_node12"><a xlink:href="d__cc__mass__s_8cpp.html" target="_top" xlink:title=" ">
<polygon fill="white" stroke="#666666" points="1228,-30 1123,-30 1123,0 1228,0 1228,-30"/>
<text text-anchor="start" x="1131" y="-18" font-family="Helvetica,sans-Serif" font-size="10.00">src/d/cc/d_cc_mass</text>
<text text-anchor="middle" x="1175.5" y="-7" font-family="Helvetica,sans-Serif" font-size="10.00">_s.cpp</text>
</a>
</g>
</g>
<!-- Node3&#45;&gt;Node12 -->
<g id="edge11" class="edge">
<title>Node3&#45;&gt;Node12</title>
<path fill="none" stroke="#63b8ff" d="M1217.96,-57.81C1208.65,-48.64 1198.12,-38.28 1189.89,-30.16"/>
<polygon fill="#63b8ff" stroke="#63b8ff" points="1215.41,-60.21 1225,-64.73 1220.33,-55.22 1215.41,-60.21"/>
</g>
<!-- Node13 -->
<g id="node13" class="node">
<title>Node13</title>
<g id="a_node13"><a xlink:href="d__cam__param_8cpp.html" target="_top" xlink:title=" ">
<polygon fill="white" stroke="#666666" points="1367,-24.5 1246,-24.5 1246,-5.5 1367,-5.5 1367,-24.5"/>
<text text-anchor="middle" x="1306.5" y="-12.5" font-family="Helvetica,sans-Serif" font-size="10.00">src/d/d_cam_param.cpp</text>
</a>
</g>
</g>
<!-- Node3&#45;&gt;Node13 -->
<g id="edge12" class="edge">
<title>Node3&#45;&gt;Node13</title>
<path fill="none" stroke="#63b8ff" d="M1263.25,-57.94C1274.96,-46.58 1288.6,-33.36 1297.38,-24.84"/>
<polygon fill="#63b8ff" stroke="#63b8ff" points="1260.98,-55.27 1256.23,-64.74 1265.85,-60.29 1260.98,-55.27"/>
</g>
<!-- Node14 -->
<g id="node14" class="node">
<title>Node14</title>
<g id="a_node14"><a xlink:href="d__ky__thunder_8cpp.html" target="_top" xlink:title=" ">
<polygon fill="white" stroke="#666666" points="1502,-24.5 1385,-24.5 1385,-5.5 1502,-5.5 1502,-24.5"/>
<text text-anchor="middle" x="1443.5" y="-12.5" font-family="Helvetica,sans-Serif" font-size="10.00">src/d/d_ky_thunder.cpp</text>
</a>
</g>
</g>
<!-- Node3&#45;&gt;Node14 -->
<g id="edge13" class="edge">
<title>Node3&#45;&gt;Node14</title>
<path fill="none" stroke="#63b8ff" d="M1296.84,-62.24C1335.27,-50.12 1384.55,-34.59 1415.07,-24.96"/>
<polygon fill="#63b8ff" stroke="#63b8ff" points="1296.24,-58.76 1287.75,-65.1 1298.34,-65.43 1296.24,-58.76"/>
</g>
<!-- Node15 -->
<g id="node15" class="node">
<title>Node15</title>
<g id="a_node15"><a xlink:href="d__tresure_8cpp.html" target="_top" xlink:title=" ">
<polygon fill="white" stroke="#666666" points="1620.5,-24.5 1520.5,-24.5 1520.5,-5.5 1620.5,-5.5 1620.5,-24.5"/>
<text text-anchor="middle" x="1570.5" y="-12.5" font-family="Helvetica,sans-Serif" font-size="10.00">src/d/d_tresure.cpp</text>
</a>
</g>
</g>
<!-- Node3&#45;&gt;Node15 -->
<g id="edge14" class="edge">
<title>Node3&#45;&gt;Node15</title>
<path fill="none" stroke="#63b8ff" d="M1326.6,-65.26C1379.97,-55.84 1449.88,-42.99 1511.5,-30 1518.81,-28.46 1526.61,-26.7 1534.06,-24.95"/>
<polygon fill="#63b8ff" stroke="#63b8ff" points="1326.2,-61.78 1316.96,-66.96 1327.41,-68.67 1326.2,-61.78"/>
</g>
<!-- Node16 -->
<g id="node16" class="node">
<title>Node16</title>
<g id="a_node16"><a xlink:href="d__vibration_8cpp.html" target="_top" xlink:title=" ">
<polygon fill="white" stroke="#666666" points="1746,-24.5 1639,-24.5 1639,-5.5 1746,-5.5 1746,-24.5"/>
<text text-anchor="middle" x="1692.5" y="-12.5" font-family="Helvetica,sans-Serif" font-size="10.00">src/d/d_vibration.cpp</text>
</a>
</g>
</g>
<!-- Node3&#45;&gt;Node16 -->
<g id="edge15" class="edge">
<title>Node3&#45;&gt;Node16</title>
<path fill="none" stroke="#63b8ff" d="M1326.33,-65.8C1461.57,-47.07 1498.48,-52.23 1629.5,-30 1637.78,-28.59 1646.62,-26.81 1654.98,-24.99"/>
<polygon fill="#63b8ff" stroke="#63b8ff" points="1326.04,-62.3 1316.63,-67.16 1327.02,-69.24 1326.04,-62.3"/>
</g>
<!-- Node17 -->
<g id="node17" class="node">
<title>Node17</title>
<g id="a_node17"><a xlink:href="d__event__manager_8cpp.html" target="_top" xlink:title=" ">
<polygon fill="white" stroke="#666666" points="1867,-30 1764,-30 1764,0 1867,0 1867,-30"/>
<text text-anchor="start" x="1772" y="-18" font-family="Helvetica,sans-Serif" font-size="10.00">src/d/event/d_event</text>
<text text-anchor="middle" x="1815.5" y="-7" font-family="Helvetica,sans-Serif" font-size="10.00">_manager.cpp</text>
</a>
</g>
</g>
<!-- Node3&#45;&gt;Node17 -->
<g id="edge16" class="edge">
<title>Node3&#45;&gt;Node17</title>
<path fill="none" stroke="#63b8ff" d="M1326.38,-65.85C1517.21,-42.84 1569.24,-59.35 1755.5,-30 1758.14,-29.58 1760.84,-29.12 1763.56,-28.61"/>
<polygon fill="#63b8ff" stroke="#63b8ff" points="1326.11,-62.36 1316.61,-67.06 1326.96,-69.31 1326.11,-62.36"/>
</g>
<!-- Node18 -->
<g id="node18" class="node">
<title>Node18</title>
<g id="a_node18"><a xlink:href="d__kankyo__rain_8cpp.html" target="_top" xlink:title=" ">
<polygon fill="white" stroke="#666666" points="2001.5,-30 1885.5,-30 1885.5,0 2001.5,0 2001.5,-30"/>
<text text-anchor="start" x="1893.5" y="-18" font-family="Helvetica,sans-Serif" font-size="10.00">src/d/kankyo/d_kankyo</text>
<text text-anchor="middle" x="1943.5" y="-7" font-family="Helvetica,sans-Serif" font-size="10.00">_rain.cpp</text>
</a>
</g>
</g>
<!-- Node3&#45;&gt;Node18 -->
<g id="edge17" class="edge">
<title>Node3&#45;&gt;Node18</title>
<path fill="none" stroke="#63b8ff" d="M1326.49,-65.87C1570.71,-38.51 1636.59,-62.72 1876.5,-30 1879.33,-29.61 1882.21,-29.18 1885.12,-28.7"/>
<polygon fill="#63b8ff" stroke="#63b8ff" points="1326.14,-62.39 1316.6,-67 1326.94,-69.34 1326.14,-62.39"/>
</g>
<!-- Node19 -->
<g id="node19" class="node">
<title>Node19</title>
<g id="a_node19"><a xlink:href="d__shop__system_8cpp.html" target="_top" xlink:title=" ">
<polygon fill="white" stroke="#666666" points="2171.5,-24.5 2019.5,-24.5 2019.5,-5.5 2171.5,-5.5 2171.5,-24.5"/>
<text text-anchor="middle" x="2095.5" y="-12.5" font-family="Helvetica,sans-Serif" font-size="10.00">src/d/shop/d_shop_system.cpp</text>
</a>
</g>
</g>
<!-- Node3&#45;&gt;Node19 -->
<g id="edge18" class="edge">
<title>Node3&#45;&gt;Node19</title>
<path fill="none" stroke="#63b8ff" d="M1326.45,-65.89C1629.96,-33.57 1710.67,-62.46 2010.5,-30 2022.25,-28.73 2034.84,-26.91 2046.63,-25"/>
<polygon fill="#63b8ff" stroke="#63b8ff" points="1326.17,-62.4 1316.6,-66.96 1326.92,-69.36 1326.17,-62.4"/>
</g>
<!-- Node20 -->
<g id="node20" class="node">
<title>Node20</title>
<g id="a_node20"><a xlink:href="f__op__actor__mng_8cpp.html" target="_top" xlink:title=" ">
<polygon fill="white" stroke="#666666" points="2291,-30 2190,-30 2190,0 2291,0 2291,-30"/>
<text text-anchor="start" x="2198" y="-18" font-family="Helvetica,sans-Serif" font-size="10.00">src/f_op/f_op_actor</text>
<text text-anchor="middle" x="2240.5" y="-7" font-family="Helvetica,sans-Serif" font-size="10.00">_mng.cpp</text>
</a>
</g>
</g>
<!-- Node3&#45;&gt;Node20 -->
<g id="edge19" class="edge">
<title>Node3&#45;&gt;Node20</title>
<path fill="none" stroke="#63b8ff" d="M1326.38,-65.92C1705.22,-27.69 1806.9,-80.98 2180.5,-30 2183.47,-29.6 2186.5,-29.11 2189.56,-28.57"/>
<polygon fill="#63b8ff" stroke="#63b8ff" points="1326.19,-62.42 1316.6,-66.92 1326.9,-69.39 1326.19,-62.42"/>
</g>
<!-- Node21 -->
<g id="node21" class="node">
<title>Node21</title>
<g id="a_node21"><a xlink:href="m__Do__lib_8cpp.html" target="_top" xlink:title=" ">
<polygon fill="white" stroke="#666666" points="2429.5,-24.5 2309.5,-24.5 2309.5,-5.5 2429.5,-5.5 2429.5,-24.5"/>
<text text-anchor="middle" x="2369.5" y="-12.5" font-family="Helvetica,sans-Serif" font-size="10.00">src/m_Do/m_Do_lib.cpp</text>
</a>
</g>
</g>
<!-- Node3&#45;&gt;Node21 -->
<g id="edge20" class="edge">
<title>Node3&#45;&gt;Node21</title>
<path fill="none" stroke="#63b8ff" d="M1326.33,-65.93C1758.32,-23.23 1873.16,-80.89 2300.5,-30 2310.45,-28.81 2321.11,-26.95 2331,-24.97"/>
<polygon fill="#63b8ff" stroke="#63b8ff" points="1326.2,-62.43 1316.59,-66.91 1326.89,-69.39 1326.2,-62.43"/>
</g>
</g>
</svg>
