<?xml version="1.0" encoding="UTF-8" standalone="no"?>
<!DOCTYPE svg PUBLIC "-//W3C//DTD SVG 1.1//EN"
 "http://www.w3.org/Graphics/SVG/1.1/DTD/svg11.dtd">
<!-- Generated by graphviz version 7.0.5 (20221223.1930)
 -->
<!-- Title: include/Z2AudioLib/Z2Audience.h Pages: 1 -->
<svg width="1017pt" height="456pt"
 viewBox="0.00 0.00 1016.50 456.00" xmlns="http://www.w3.org/2000/svg" xmlns:xlink="http://www.w3.org/1999/xlink">
<g id="graph0" class="graph" transform="scale(1 1) rotate(0) translate(4 452)">
<title>include/Z2AudioLib/Z2Audience.h</title>
<!-- Node1 -->
<g id="node1" class="node">
<title>Node1</title>
<g id="a_node1"><a xlink:title=" ">
<polygon fill="#999999" stroke="#666666" points="493.5,-448 393.5,-448 393.5,-418 493.5,-418 493.5,-448"/>
<text text-anchor="start" x="401.5" y="-436" font-family="Helvetica,sans-Serif" font-size="10.00">include/Z2AudioLib</text>
<text text-anchor="middle" x="443.5" y="-425" font-family="Helvetica,sans-Serif" font-size="10.00">/Z2Audience.h</text>
</a>
</g>
</g>
<!-- Node2 -->
<g id="node2" class="node">
<title>Node2</title>
<g id="a_node2"><a xlink:href="JAIAudience_8h.html" target="_top" xlink:title=" ">
<polygon fill="white" stroke="#666666" points="328,-382 169,-382 169,-363 328,-363 328,-382"/>
<text text-anchor="middle" x="248.5" y="-370" font-family="Helvetica,sans-Serif" font-size="10.00">JSystem/JAudio2/JAIAudience.h</text>
</a>
</g>
</g>
<!-- Node1&#45;&gt;Node2 -->
<g id="edge1" class="edge">
<title>Node1&#45;&gt;Node2</title>
<path fill="none" stroke="#63b8ff" d="M395.3,-417.54C362.65,-407.75 320,-394.95 289.09,-385.68"/>
<polygon fill="#63b8ff" stroke="#63b8ff" points="290.31,-382.39 279.72,-382.87 288.3,-389.09 290.31,-382.39"/>
</g>
<!-- Node11 -->
<g id="node11" class="node">
<title>Node11</title>
<g id="a_node11"><a xlink:href="JASGadget_8h.html" target="_top" xlink:title=" ">
<polygon fill="white" stroke="#666666" points="674.5,-382 520.5,-382 520.5,-363 674.5,-363 674.5,-382"/>
<text text-anchor="middle" x="597.5" y="-370" font-family="Helvetica,sans-Serif" font-size="10.00">JSystem/JAudio2/JASGadget.h</text>
</a>
</g>
</g>
<!-- Node1&#45;&gt;Node11 -->
<g id="edge11" class="edge">
<title>Node1&#45;&gt;Node11</title>
<path fill="none" stroke="#63b8ff" d="M481.57,-417.54C506.75,-407.97 539.47,-395.55 563.72,-386.33"/>
<polygon fill="#63b8ff" stroke="#63b8ff" points="564.69,-389.71 572.8,-382.88 562.21,-383.16 564.69,-389.71"/>
</g>
<!-- Node12 -->
<g id="node12" class="node">
<title>Node12</title>
<g id="a_node12"><a xlink:href="JAIAudible_8h.html" target="_top" xlink:title=" ">
<polygon fill="white" stroke="#666666" points="151,-382 0,-382 0,-363 151,-363 151,-382"/>
<text text-anchor="middle" x="75.5" y="-370" font-family="Helvetica,sans-Serif" font-size="10.00">JSystem/JAudio2/JAIAudible.h</text>
</a>
</g>
</g>
<!-- Node1&#45;&gt;Node12 -->
<g id="edge13" class="edge">
<title>Node1&#45;&gt;Node12</title>
<path fill="none" stroke="#63b8ff" d="M393.1,-423.99C328.27,-413.68 215.41,-395.74 143.15,-384.25"/>
<polygon fill="#63b8ff" stroke="#63b8ff" points="143.83,-380.82 133.41,-382.71 142.73,-387.73 143.83,-380.82"/>
</g>
<!-- Node13 -->
<g id="node13" class="node">
<title>Node13</title>
<g id="a_node13"><a xlink:href="JASSoundParams_8h.html" target="_top" xlink:title=" ">
<polygon fill="white" stroke="#666666" points="774,-151 631,-151 631,-121 774,-121 774,-151"/>
<text text-anchor="start" x="639" y="-139" font-family="Helvetica,sans-Serif" font-size="10.00">JSystem/JAudio2/JASSound</text>
<text text-anchor="middle" x="702.5" y="-128" font-family="Helvetica,sans-Serif" font-size="10.00">Params.h</text>
</a>
</g>
</g>
<!-- Node1&#45;&gt;Node13 -->
<g id="edge15" class="edge">
<title>Node1&#45;&gt;Node13</title>
<path fill="none" stroke="#63b8ff" d="M493.74,-427.55C555.73,-421.06 656.3,-406.97 683.5,-382 705.2,-362.08 702.5,-347.96 702.5,-318.5 702.5,-318.5 702.5,-318.5 702.5,-261.5 702.5,-227.29 702.5,-187.8 702.5,-162.63"/>
<polygon fill="#63b8ff" stroke="#63b8ff" points="706,-162.7 702.5,-152.7 699,-162.7 706,-162.7"/>
</g>
<!-- Node14 -->
<g id="node14" class="node">
<title>Node14</title>
<g id="a_node14"><a xlink:href="JASHeapCtrl_8h.html" target="_top" xlink:title=" ">
<polygon fill="white" stroke="#666666" points="892,-327 731,-327 731,-308 892,-308 892,-327"/>
<text text-anchor="middle" x="811.5" y="-315" font-family="Helvetica,sans-Serif" font-size="10.00">JSystem/JAudio2/JASHeapCtrl.h</text>
</a>
</g>
</g>
<!-- Node1&#45;&gt;Node14 -->
<g id="edge17" class="edge">
<title>Node1&#45;&gt;Node14</title>
<path fill="none" stroke="#63b8ff" d="M493.77,-428.93C549.87,-424.12 642.49,-412.01 716.5,-382 745.17,-370.37 774.17,-349.34 792.46,-334.68"/>
<polygon fill="#63b8ff" stroke="#63b8ff" points="794.54,-337.5 800.04,-328.45 790.09,-332.09 794.54,-337.5"/>
</g>
<!-- Node19 -->
<g id="node19" class="node">
<title>Node19</title>
<g id="a_node19"><a xlink:href="TPosition3_8hh.html" target="_top" xlink:title=" ">
<polygon fill="white" stroke="#666666" points="502,-382 385,-382 385,-363 502,-363 502,-382"/>
<text text-anchor="middle" x="443.5" y="-370" font-family="Helvetica,sans-Serif" font-size="10.00">JSystem/TPosition3.hh</text>
</a>
</g>
</g>
<!-- Node1&#45;&gt;Node19 -->
<g id="edge24" class="edge">
<title>Node1&#45;&gt;Node19</title>
<path fill="none" stroke="#63b8ff" d="M443.5,-417.54C443.5,-410.34 443.5,-401.53 443.5,-393.68"/>
<polygon fill="#63b8ff" stroke="#63b8ff" points="447,-393.69 443.5,-383.69 440,-393.69 447,-393.69"/>
</g>
<!-- Node24 -->
<g id="node24" class="node">
<title>Node24</title>
<g id="a_node24"><a xlink:href="mtxvec_8h.html" target="_top" xlink:title=" ">
<polygon fill="white" stroke="#666666" points="396.5,-327 288.5,-327 288.5,-308 396.5,-308 396.5,-327"/>
<text text-anchor="middle" x="342.5" y="-315" font-family="Helvetica,sans-Serif" font-size="10.00">dolphin/mtx/mtxvec.h</text>
</a>
</g>
</g>
<!-- Node1&#45;&gt;Node24 -->
<g id="edge33" class="edge">
<title>Node1&#45;&gt;Node24</title>
<path fill="none" stroke="#63b8ff" d="M419.09,-417.56C405.37,-408.58 388.62,-396.08 376.5,-382 365.14,-368.8 356.08,-351.18 350.18,-337.85"/>
<polygon fill="#63b8ff" stroke="#63b8ff" points="353.5,-336.72 346.41,-328.85 347.05,-339.43 353.5,-336.72"/>
</g>
<!-- Node3 -->
<g id="node3" class="node">
<title>Node3</title>
<g id="a_node3"><a xlink:href="JGeometry_8h.html" target="_top" xlink:title=" ">
<polygon fill="white" stroke="#666666" points="270,-327 157,-327 157,-308 270,-308 270,-327"/>
<text text-anchor="middle" x="213.5" y="-315" font-family="Helvetica,sans-Serif" font-size="10.00">JSystem/JGeometry.h</text>
</a>
</g>
</g>
<!-- Node2&#45;&gt;Node3 -->
<g id="edge2" class="edge">
<title>Node2&#45;&gt;Node3</title>
<path fill="none" stroke="#63b8ff" d="M242.72,-362.75C238.09,-355.73 231.43,-345.64 225.63,-336.87"/>
<polygon fill="#63b8ff" stroke="#63b8ff" points="228.67,-335.12 220.24,-328.71 222.83,-338.98 228.67,-335.12"/>
</g>
<!-- Node4 -->
<g id="node4" class="node">
<title>Node4</title>
<g id="a_node4"><a xlink:href="vec_8h.html" target="_top" xlink:title=" ">
<polygon fill="white" stroke="#666666" points="414.5,-145.5 322.5,-145.5 322.5,-126.5 414.5,-126.5 414.5,-145.5"/>
<text text-anchor="middle" x="368.5" y="-133.5" font-family="Helvetica,sans-Serif" font-size="10.00">dolphin/mtx/vec.h</text>
</a>
</g>
</g>
<!-- Node3&#45;&gt;Node4 -->
<g id="edge3" class="edge">
<title>Node3&#45;&gt;Node4</title>
<path fill="none" stroke="#63b8ff" d="M225.28,-307.6C236.24,-299.05 252.77,-285.47 265.5,-272 302.15,-233.23 338.46,-181.81 356.59,-155"/>
<polygon fill="#63b8ff" stroke="#63b8ff" points="359.31,-157.22 361.97,-146.97 353.5,-153.33 359.31,-157.22"/>
</g>
<!-- Node7 -->
<g id="node7" class="node">
<title>Node7</title>
<g id="a_node7"><a xlink:href="float_8h.html" target="_top" xlink:title=" ">
<polygon fill="white" stroke="#666666" points="256.5,-272 178.5,-272 178.5,-253 256.5,-253 256.5,-272"/>
<text text-anchor="middle" x="217.5" y="-260" font-family="Helvetica,sans-Serif" font-size="10.00">MSL_C/float.h</text>
</a>
</g>
</g>
<!-- Node3&#45;&gt;Node7 -->
<g id="edge6" class="edge">
<title>Node3&#45;&gt;Node7</title>
<path fill="none" stroke="#63b8ff" d="M214.16,-307.75C214.65,-301.27 215.34,-292.16 215.96,-283.9"/>
<polygon fill="#63b8ff" stroke="#63b8ff" points="219.45,-284.19 216.71,-273.95 212.47,-283.66 219.45,-284.19"/>
</g>
<!-- Node10 -->
<g id="node10" class="node">
<title>Node10</title>
<g id="a_node10"><a xlink:href="math_8h.html" target="_top" xlink:title=" ">
<polygon fill="white" stroke="#666666" points="160.5,-272 78.5,-272 78.5,-253 160.5,-253 160.5,-272"/>
<text text-anchor="middle" x="119.5" y="-260" font-family="Helvetica,sans-Serif" font-size="10.00">MSL_C/math.h</text>
</a>
</g>
</g>
<!-- Node3&#45;&gt;Node10 -->
<g id="edge9" class="edge">
<title>Node3&#45;&gt;Node10</title>
<path fill="none" stroke="#63b8ff" d="M197.55,-307.51C183.15,-299.39 161.71,-287.3 144.94,-277.85"/>
<polygon fill="#63b8ff" stroke="#63b8ff" points="146.96,-274.96 136.53,-273.1 143.52,-281.06 146.96,-274.96"/>
</g>
<!-- Node5 -->
<g id="node5" class="node">
<title>Node5</title>
<g id="a_node5"><a xlink:href="types_8h.html" target="_top" xlink:title=" ">
<polygon fill="white" stroke="#666666" points="643,-85 562,-85 562,-66 643,-66 643,-85"/>
<text text-anchor="middle" x="602.5" y="-73" font-family="Helvetica,sans-Serif" font-size="10.00">dolphin/types.h</text>
</a>
</g>
</g>
<!-- Node4&#45;&gt;Node5 -->
<g id="edge4" class="edge">
<title>Node4&#45;&gt;Node5</title>
<path fill="none" stroke="#63b8ff" d="M404.29,-126.05C444.81,-115.92 510.96,-99.39 555.58,-88.23"/>
<polygon fill="#63b8ff" stroke="#63b8ff" points="556.39,-91.64 565.24,-85.81 554.69,-84.84 556.39,-91.64"/>
</g>
<!-- Node6 -->
<g id="node6" class="node">
<title>Node6</title>
<g id="a_node6"><a xlink:href="stddef_8h.html" target="_top" xlink:title=" ">
<polygon fill="white" stroke="#666666" points="670.5,-30 534.5,-30 534.5,0 670.5,0 670.5,-30"/>
<text text-anchor="start" x="542.5" y="-18" font-family="Helvetica,sans-Serif" font-size="10.00">MSL_C/MSL_Common/Src</text>
<text text-anchor="middle" x="602.5" y="-7" font-family="Helvetica,sans-Serif" font-size="10.00">/stddef.h</text>
</a>
</g>
</g>
<!-- Node5&#45;&gt;Node6 -->
<g id="edge5" class="edge">
<title>Node5&#45;&gt;Node6</title>
<path fill="none" stroke="#63b8ff" d="M602.5,-65.87C602.5,-59.4 602.5,-50.2 602.5,-41.45"/>
<polygon fill="#63b8ff" stroke="#63b8ff" points="606,-41.63 602.5,-31.63 599,-41.63 606,-41.63"/>
</g>
<!-- Node8 -->
<g id="node8" class="node">
<title>Node8</title>
<g id="a_node8"><a xlink:href="MSL__Common_2Src_2float_8h.html" target="_top" xlink:title=" ">
<polygon fill="white" stroke="#666666" points="228.5,-217 92.5,-217 92.5,-187 228.5,-187 228.5,-217"/>
<text text-anchor="start" x="100.5" y="-205" font-family="Helvetica,sans-Serif" font-size="10.00">MSL_C/MSL_Common/Src</text>
<text text-anchor="middle" x="160.5" y="-194" font-family="Helvetica,sans-Serif" font-size="10.00">/float.h</text>
</a>
</g>
</g>
<!-- Node7&#45;&gt;Node8 -->
<g id="edge7" class="edge">
<title>Node7&#45;&gt;Node8</title>
<path fill="none" stroke="#63b8ff" d="M209.09,-252.87C202,-245.59 191.54,-234.85 182.13,-225.2"/>
<polygon fill="#63b8ff" stroke="#63b8ff" points="184.79,-222.92 175.31,-218.2 179.78,-227.8 184.79,-222.92"/>
</g>
<!-- Node9 -->
<g id="node9" class="node">
<title>Node9</title>
<g id="a_node9"><a xlink:href="fdlibm_8h.html" target="_top" xlink:title=" ">
<polygon fill="white" stroke="#666666" points="185.5,-145.5 135.5,-145.5 135.5,-126.5 185.5,-126.5 185.5,-145.5"/>
<text text-anchor="middle" x="160.5" y="-133.5" font-family="Helvetica,sans-Serif" font-size="10.00">fdlibm.h</text>
</a>
</g>
</g>
<!-- Node8&#45;&gt;Node9 -->
<g id="edge8" class="edge">
<title>Node8&#45;&gt;Node9</title>
<path fill="none" stroke="#63b8ff" d="M160.5,-186.8C160.5,-178.09 160.5,-166.81 160.5,-157.18"/>
<polygon fill="#63b8ff" stroke="#63b8ff" points="164,-157.36 160.5,-147.36 157,-157.36 164,-157.36"/>
</g>
<!-- Node10&#45;&gt;Node8 -->
<g id="edge10" class="edge">
<title>Node10&#45;&gt;Node8</title>
<path fill="none" stroke="#63b8ff" d="M125.55,-252.87C130.44,-245.89 137.57,-235.71 144.12,-226.38"/>
<polygon fill="#63b8ff" stroke="#63b8ff" points="146.87,-228.55 149.74,-218.35 141.13,-224.53 146.87,-228.55"/>
</g>
<!-- Node11&#45;&gt;Node5 -->
<g id="edge12" class="edge">
<title>Node11&#45;&gt;Node5</title>
<path fill="none" stroke="#63b8ff" d="M598.2,-362.55C599.57,-344.05 602.5,-300.29 602.5,-263.5 602.5,-263.5 602.5,-263.5 602.5,-201 602.5,-164.17 602.5,-121.22 602.5,-96.61"/>
<polygon fill="#63b8ff" stroke="#63b8ff" points="606,-96.77 602.5,-86.77 599,-96.77 606,-96.77"/>
</g>
<!-- Node12&#45;&gt;Node3 -->
<g id="edge14" class="edge">
<title>Node12&#45;&gt;Node3</title>
<path fill="none" stroke="#63b8ff" d="M98.91,-362.51C121.15,-353.97 154.83,-341.03 179.92,-331.4"/>
<polygon fill="#63b8ff" stroke="#63b8ff" points="180.94,-334.75 189.02,-327.9 178.43,-328.22 180.94,-334.75"/>
</g>
<!-- Node13&#45;&gt;Node5 -->
<g id="edge16" class="edge">
<title>Node13&#45;&gt;Node5</title>
<path fill="none" stroke="#63b8ff" d="M677.78,-120.54C662.46,-111.58 642.84,-100.1 627.48,-91.11"/>
<polygon fill="#63b8ff" stroke="#63b8ff" points="629.33,-88.14 618.93,-86.11 625.79,-94.18 629.33,-88.14"/>
</g>
<!-- Node15 -->
<g id="node15" class="node">
<title>Node15</title>
<g id="a_node15"><a xlink:href="JSUList_8h.html" target="_top" xlink:title=" ">
<polygon fill="white" stroke="#666666" points="874,-211.5 731,-211.5 731,-192.5 874,-192.5 874,-211.5"/>
<text text-anchor="middle" x="802.5" y="-199.5" font-family="Helvetica,sans-Serif" font-size="10.00">JSystem/JSupport/JSUList.h</text>
</a>
</g>
</g>
<!-- Node14&#45;&gt;Node15 -->
<g id="edge18" class="edge">
<title>Node14&#45;&gt;Node15</title>
<path fill="none" stroke="#63b8ff" d="M810.79,-307.59C809.36,-289.53 806.08,-248.17 804.1,-223.21"/>
<polygon fill="#63b8ff" stroke="#63b8ff" points="807.6,-223.07 803.32,-213.37 800.62,-223.62 807.6,-223.07"/>
</g>
<!-- Node16 -->
<g id="node16" class="node">
<title>Node16</title>
<g id="a_node16"><a xlink:href="OSMutex_8h.html" target="_top" xlink:title=" ">
<polygon fill="white" stroke="#666666" points="978.5,-272 866.5,-272 866.5,-253 978.5,-253 978.5,-272"/>
<text text-anchor="middle" x="922.5" y="-260" font-family="Helvetica,sans-Serif" font-size="10.00">dolphin/os/OSMutex.h</text>
</a>
</g>
</g>
<!-- Node14&#45;&gt;Node16 -->
<g id="edge20" class="edge">
<title>Node14&#45;&gt;Node16</title>
<path fill="none" stroke="#63b8ff" d="M830.33,-307.51C847.66,-299.24 873.61,-286.84 893.57,-277.31"/>
<polygon fill="#63b8ff" stroke="#63b8ff" points="895.07,-280.48 902.58,-273.01 892.05,-274.16 895.07,-280.48"/>
</g>
<!-- Node15&#45;&gt;Node5 -->
<g id="edge19" class="edge">
<title>Node15&#45;&gt;Node5</title>
<path fill="none" stroke="#63b8ff" d="M803.15,-192.15C803.84,-175.73 802.8,-140.46 783.5,-121 765.6,-102.96 701.54,-90.31 654.7,-83.22"/>
<polygon fill="#63b8ff" stroke="#63b8ff" points="655.4,-79.79 644.99,-81.8 654.38,-86.71 655.4,-79.79"/>
</g>
<!-- Node17 -->
<g id="node17" class="node">
<title>Node17</title>
<g id="a_node17"><a xlink:href="OSThread_8h.html" target="_top" xlink:title=" ">
<polygon fill="white" stroke="#666666" points="1008.5,-211.5 892.5,-211.5 892.5,-192.5 1008.5,-192.5 1008.5,-211.5"/>
<text text-anchor="middle" x="950.5" y="-199.5" font-family="Helvetica,sans-Serif" font-size="10.00">dolphin/os/OSThread.h</text>
</a>
</g>
</g>
<!-- Node16&#45;&gt;Node17 -->
<g id="edge21" class="edge">
<title>Node16&#45;&gt;Node17</title>
<path fill="none" stroke="#63b8ff" d="M926.63,-252.87C930.52,-244.75 936.47,-232.31 941.46,-221.89"/>
<polygon fill="#63b8ff" stroke="#63b8ff" points="944.54,-223.56 945.7,-213.03 938.22,-220.54 944.54,-223.56"/>
</g>
<!-- Node18 -->
<g id="node18" class="node">
<title>Node18</title>
<g id="a_node18"><a xlink:href="OSContext_8h.html" target="_top" xlink:title=" ">
<polygon fill="white" stroke="#666666" points="980,-145.5 861,-145.5 861,-126.5 980,-126.5 980,-145.5"/>
<text text-anchor="middle" x="920.5" y="-133.5" font-family="Helvetica,sans-Serif" font-size="10.00">dolphin/os/OSContext.h</text>
</a>
</g>
</g>
<!-- Node17&#45;&gt;Node18 -->
<g id="edge22" class="edge">
<title>Node17&#45;&gt;Node18</title>
<path fill="none" stroke="#63b8ff" d="M946.33,-192.1C941.99,-182.84 935.05,-168.04 929.46,-156.11"/>
<polygon fill="#63b8ff" stroke="#63b8ff" points="932.69,-154.76 925.28,-147.19 926.35,-157.73 932.69,-154.76"/>
</g>
<!-- Node18&#45;&gt;Node5 -->
<g id="edge23" class="edge">
<title>Node18&#45;&gt;Node5</title>
<path fill="none" stroke="#63b8ff" d="M871.86,-126.05C813.01,-115.23 714.38,-97.08 654.2,-86.01"/>
<polygon fill="#63b8ff" stroke="#63b8ff" points="655.02,-82.6 644.55,-84.24 653.75,-89.49 655.02,-82.6"/>
</g>
<!-- Node20 -->
<g id="node20" class="node">
<title>Node20</title>
<g id="a_node20"><a xlink:href="mtx_8h.html" target="_top" xlink:title=" ">
<polygon fill="white" stroke="#666666" points="497.5,-272 405.5,-272 405.5,-253 497.5,-253 497.5,-272"/>
<text text-anchor="middle" x="451.5" y="-260" font-family="Helvetica,sans-Serif" font-size="10.00">dolphin/mtx/mtx.h</text>
</a>
</g>
</g>
<!-- Node19&#45;&gt;Node20 -->
<g id="edge25" class="edge">
<title>Node19&#45;&gt;Node20</title>
<path fill="none" stroke="#63b8ff" d="M443.01,-362.85C442.44,-350.61 441.76,-327.55 443.5,-308 444.22,-299.89 445.67,-291.04 447.14,-283.39"/>
<polygon fill="#63b8ff" stroke="#63b8ff" points="450.53,-284.29 449.13,-273.78 443.68,-282.87 450.53,-284.29"/>
</g>
<!-- Node23 -->
<g id="node23" class="node">
<title>Node23</title>
<g id="a_node23"><a xlink:href="JMath_8h.html" target="_top" xlink:title=" ">
<polygon fill="white" stroke="#666666" points="574.5,-327 452.5,-327 452.5,-308 574.5,-308 574.5,-327"/>
<text text-anchor="middle" x="513.5" y="-315" font-family="Helvetica,sans-Serif" font-size="10.00">JSystem/JMath/JMath.h</text>
</a>
</g>
</g>
<!-- Node19&#45;&gt;Node23 -->
<g id="edge31" class="edge">
<title>Node19&#45;&gt;Node23</title>
<path fill="none" stroke="#63b8ff" d="M455.37,-362.51C465.59,-354.77 480.57,-343.43 492.76,-334.2"/>
<polygon fill="#63b8ff" stroke="#63b8ff" points="494.73,-337.1 500.59,-328.27 490.51,-331.52 494.73,-337.1"/>
</g>
<!-- Node20&#45;&gt;Node5 -->
<g id="edge30" class="edge">
<title>Node20&#45;&gt;Node5</title>
<path fill="none" stroke="#63b8ff" d="M459.21,-252.75C475.47,-234.23 514.34,-189.61 545.5,-151 560.94,-131.87 577.99,-109.4 589.38,-94.18"/>
<polygon fill="#63b8ff" stroke="#63b8ff" points="591.9,-96.65 595.07,-86.54 586.29,-92.47 591.9,-96.65"/>
</g>
<!-- Node21 -->
<g id="node21" class="node">
<title>Node21</title>
<g id="a_node21"><a xlink:href="mtx44_8h.html" target="_top" xlink:title=" ">
<polygon fill="white" stroke="#666666" points="536,-145.5 433,-145.5 433,-126.5 536,-126.5 536,-145.5"/>
<text text-anchor="middle" x="484.5" y="-133.5" font-family="Helvetica,sans-Serif" font-size="10.00">dolphin/mtx/mtx44.h</text>
</a>
</g>
</g>
<!-- Node20&#45;&gt;Node21 -->
<g id="edge26" class="edge">
<title>Node20&#45;&gt;Node21</title>
<path fill="none" stroke="#63b8ff" d="M453.87,-252.55C459.15,-232.63 471.98,-184.24 479.25,-156.82"/>
<polygon fill="#63b8ff" stroke="#63b8ff" points="482.58,-157.9 481.76,-147.34 475.82,-156.11 482.58,-157.9"/>
</g>
<!-- Node22 -->
<g id="node22" class="node">
<title>Node22</title>
<g id="a_node22"><a xlink:href="quat_8h.html" target="_top" xlink:title=" ">
<polygon fill="white" stroke="#666666" points="440,-211.5 345,-211.5 345,-192.5 440,-192.5 440,-211.5"/>
<text text-anchor="middle" x="392.5" y="-199.5" font-family="Helvetica,sans-Serif" font-size="10.00">dolphin/mtx/quat.h</text>
</a>
</g>
</g>
<!-- Node20&#45;&gt;Node22 -->
<g id="edge28" class="edge">
<title>Node20&#45;&gt;Node22</title>
<path fill="none" stroke="#63b8ff" d="M442.54,-252.62C433.79,-243.94 420.25,-230.52 409.46,-219.82"/>
<polygon fill="#63b8ff" stroke="#63b8ff" points="412.19,-217.59 402.62,-213.03 407.26,-222.56 412.19,-217.59"/>
</g>
<!-- Node21&#45;&gt;Node5 -->
<g id="edge27" class="edge">
<title>Node21&#45;&gt;Node5</title>
<path fill="none" stroke="#63b8ff" d="M502.42,-126.12C521.48,-116.67 551.9,-101.59 574.2,-90.53"/>
<polygon fill="#63b8ff" stroke="#63b8ff" points="575.65,-93.72 583.05,-86.14 572.54,-87.45 575.65,-93.72"/>
</g>
<!-- Node22&#45;&gt;Node4 -->
<g id="edge29" class="edge">
<title>Node22&#45;&gt;Node4</title>
<path fill="none" stroke="#63b8ff" d="M389.16,-192.1C385.72,-182.93 380.25,-168.34 375.8,-156.48"/>
<polygon fill="#63b8ff" stroke="#63b8ff" points="379.13,-155.37 372.34,-147.24 372.57,-157.83 379.13,-155.37"/>
</g>
<!-- Node23&#45;&gt;Node20 -->
<g id="edge32" class="edge">
<title>Node23&#45;&gt;Node20</title>
<path fill="none" stroke="#63b8ff" d="M502.98,-307.51C494.11,-299.93 481.19,-288.88 470.51,-279.75"/>
<polygon fill="#63b8ff" stroke="#63b8ff" points="472.89,-277.18 463.01,-273.34 468.34,-282.5 472.89,-277.18"/>
</g>
<!-- Node24&#45;&gt;Node20 -->
<g id="edge34" class="edge">
<title>Node24&#45;&gt;Node20</title>
<path fill="none" stroke="#63b8ff" d="M360.99,-307.51C378,-299.24 403.49,-286.84 423.09,-277.31"/>
<polygon fill="#63b8ff" stroke="#63b8ff" points="424.46,-280.54 431.92,-273.02 421.4,-274.25 424.46,-280.54"/>
</g>
</g>
</svg>
