<?xml version="1.0" encoding="UTF-8" standalone="no"?>
<!DOCTYPE svg PUBLIC "-//W3C//DTD SVG 1.1//EN"
 "http://www.w3.org/Graphics/SVG/1.1/DTD/svg11.dtd">
<!-- Generated by graphviz version 7.0.5 (20221223.1930)
 -->
<!-- Title: libs/Z2AudioLib/Z2SceneMgr.cpp Pages: 1 -->
<svg width="6923pt" height="467pt"
 viewBox="0.00 0.00 6923.00 467.00" xmlns="http://www.w3.org/2000/svg" xmlns:xlink="http://www.w3.org/1999/xlink">
<g id="graph0" class="graph" transform="scale(1 1) rotate(0) translate(4 463)">
<title>libs/Z2AudioLib/Z2SceneMgr.cpp</title>
<!-- Node1 -->
<g id="node1" class="node">
<title>Node1</title>
<g id="a_node1"><a xlink:title=" ">
<polygon fill="#999999" stroke="#666666" points="3553.5,-459 3392.5,-459 3392.5,-440 3553.5,-440 3553.5,-459"/>
<text text-anchor="middle" x="3473" y="-447" font-family="Helvetica,sans-Serif" font-size="10.00">libs/Z2AudioLib/Z2SceneMgr.cpp</text>
</a>
</g>
</g>
<!-- Node2 -->
<g id="node2" class="node">
<title>Node2</title>
<g id="a_node2"><a xlink:href="Z2SceneMgr_8h.html" target="_top" xlink:title=" ">
<polygon fill="white" stroke="#666666" points="406,-266.5 274,-266.5 274,-247.5 406,-247.5 406,-266.5"/>
<text text-anchor="middle" x="340" y="-254.5" font-family="Helvetica,sans-Serif" font-size="10.00">Z2AudioLib/Z2SceneMgr.h</text>
</a>
</g>
</g>
<!-- Node1&#45;&gt;Node2 -->
<g id="edge1" class="edge">
<title>Node1&#45;&gt;Node2</title>
<path fill="none" stroke="#63b8ff" d="M3392.16,-448.27C2982.29,-446.94 1143.28,-439.07 891,-404 692.36,-376.39 462.93,-301 375.93,-270.78"/>
<polygon fill="#63b8ff" stroke="#63b8ff" points="377.12,-267.49 366.52,-267.49 374.81,-274.1 377.12,-267.49"/>
</g>
<!-- Node15 -->
<g id="node6" class="node">
<title>Node15</title>
<g id="a_node6"><a xlink:href="global_8h.html" target="_top" xlink:title=" ">
<polygon fill="white" stroke="#666666" points="1159,-79.5 1109,-79.5 1109,-60.5 1159,-60.5 1159,-79.5"/>
<text text-anchor="middle" x="1134" y="-67.5" font-family="Helvetica,sans-Serif" font-size="10.00">global.h</text>
</a>
</g>
</g>
<!-- Node1&#45;&gt;Node15 -->
<g id="edge39" class="edge">
<title>Node1&#45;&gt;Node15</title>
<path fill="none" stroke="#63b8ff" d="M3392.21,-448.47C2989.72,-448.13 1218.55,-444.33 1179,-404 1166.24,-390.99 1176.39,-381.03 1179,-363 1185.96,-314.84 1210,-306.66 1210,-258 1210,-258 1210,-258 1210,-190 1210,-147.99 1175.94,-108.89 1153.42,-87.64"/>
<polygon fill="#63b8ff" stroke="#63b8ff" points="1155.77,-85.05 1146.01,-80.92 1151.07,-90.23 1155.77,-85.05"/>
</g>
<!-- Node17 -->
<g id="node9" class="node">
<title>Node17</title>
<g id="a_node9"><a xlink:href="Z2SoundMgr_8h.html" target="_top" xlink:title=" ">
<polygon fill="white" stroke="#666666" points="1032,-393 900,-393 900,-374 1032,-374 1032,-393"/>
<text text-anchor="middle" x="966" y="-381" font-family="Helvetica,sans-Serif" font-size="10.00">Z2AudioLib/Z2SoundMgr.h</text>
</a>
</g>
</g>
<!-- Node1&#45;&gt;Node17 -->
<g id="edge9" class="edge">
<title>Node1&#45;&gt;Node17</title>
<path fill="none" stroke="#63b8ff" d="M3392.1,-447.92C3034.89,-445.2 1596.76,-432.67 1146,-404 1112.33,-401.86 1075.26,-398.09 1043.55,-394.43"/>
<polygon fill="#63b8ff" stroke="#63b8ff" points="1043.97,-390.95 1033.63,-393.26 1043.16,-397.9 1043.97,-390.95"/>
</g>
<!-- Node30 -->
<g id="node17" class="node">
<title>Node30</title>
<g id="a_node17"><a xlink:href="Z2SeqMgr_8h.html" target="_top" xlink:title=" ">
<polygon fill="white" stroke="#666666" points="256,-266.5 134,-266.5 134,-247.5 256,-247.5 256,-266.5"/>
<text text-anchor="middle" x="195" y="-254.5" font-family="Helvetica,sans-Serif" font-size="10.00">Z2AudioLib/Z2SeqMgr.h</text>
</a>
</g>
</g>
<!-- Node1&#45;&gt;Node30 -->
<g id="edge29" class="edge">
<title>Node1&#45;&gt;Node30</title>
<path fill="none" stroke="#63b8ff" d="M3392.3,-448.51C2963.64,-448.39 962.73,-445.61 690,-404 511.03,-376.69 306.2,-301.53 227.83,-271.08"/>
<polygon fill="#63b8ff" stroke="#63b8ff" points="229.2,-267.85 218.61,-267.47 226.65,-274.37 229.2,-267.85"/>
</g>
<!-- Node33 -->
<g id="node19" class="node">
<title>Node33</title>
<g id="a_node19"><a xlink:href="Z2SeMgr_8h.html" target="_top" xlink:title=" ">
<polygon fill="white" stroke="#666666" points="116,-266.5 0,-266.5 0,-247.5 116,-247.5 116,-266.5"/>
<text text-anchor="middle" x="58" y="-254.5" font-family="Helvetica,sans-Serif" font-size="10.00">Z2AudioLib/Z2SeMgr.h</text>
</a>
</g>
</g>
<!-- Node1&#45;&gt;Node33 -->
<g id="edge33" class="edge">
<title>Node1&#45;&gt;Node33</title>
<path fill="none" stroke="#63b8ff" d="M3392.21,-448.72C2946.75,-449.75 799.99,-452.17 509,-404 345.61,-376.95 160.42,-302.21 88.66,-271.47"/>
<polygon fill="#63b8ff" stroke="#63b8ff" points="90.09,-268.28 79.52,-267.53 87.32,-274.71 90.09,-268.28"/>
</g>
<!-- Node34 -->
<g id="node21" class="node">
<title>Node34</title>
<g id="a_node21"><a xlink:href="dol2asm_8h.html" target="_top" xlink:title=" ">
<polygon fill="white" stroke="#666666" points="1249.5,-393 1188.5,-393 1188.5,-374 1249.5,-374 1249.5,-393"/>
<text text-anchor="middle" x="1219" y="-381" font-family="Helvetica,sans-Serif" font-size="10.00">dol2asm.h</text>
</a>
</g>
</g>
<!-- Node1&#45;&gt;Node34 -->
<g id="edge38" class="edge">
<title>Node1&#45;&gt;Node34</title>
<path fill="none" stroke="#63b8ff" d="M3392.26,-447.87C3006.27,-444.76 1363.41,-430 1258,-404 1252.9,-402.74 1247.7,-400.73 1242.83,-398.47"/>
<polygon fill="#63b8ff" stroke="#63b8ff" points="1244.69,-395.5 1234.2,-394.02 1241.48,-401.72 1244.69,-395.5"/>
</g>
<!-- Node35 -->
<g id="node22" class="node">
<title>Node35</title>
<g id="a_node22"><a xlink:title=" ">
<polygon fill="#e0e0e0" stroke="#999999" points="1444.5,-398.5 1267.5,-398.5 1267.5,-368.5 1444.5,-368.5 1444.5,-398.5"/>
<text text-anchor="start" x="1275.5" y="-386.5" font-family="Helvetica,sans-Serif" font-size="10.00">asm/Z2AudioLib/Z2SceneMgr</text>
<text text-anchor="middle" x="1356" y="-375.5" font-family="Helvetica,sans-Serif" font-size="10.00">/setSceneExist__10Z2SceneMgrFb.s</text>
</a>
</g>
</g>
<!-- Node1&#45;&gt;Node35 -->
<g id="edge40" class="edge">
<title>Node1&#45;&gt;Node35</title>
<path fill="none" stroke="#63b8ff" d="M3392.25,-448.6C3065.36,-448.71 1839.33,-446.26 1454,-404 1446.64,-403.19 1439.02,-402.11 1431.41,-400.87"/>
<polygon fill="#63b8ff" stroke="#63b8ff" points="1432.27,-397.47 1421.82,-399.22 1431.08,-404.37 1432.27,-397.47"/>
</g>
<!-- Node36 -->
<g id="node23" class="node">
<title>Node36</title>
<g id="a_node23"><a xlink:title=" ">
<polygon fill="#e0e0e0" stroke="#999999" points="1657,-398.5 1463,-398.5 1463,-368.5 1657,-368.5 1657,-398.5"/>
<text text-anchor="start" x="1471" y="-386.5" font-family="Helvetica,sans-Serif" font-size="10.00">asm/Z2AudioLib/Z2SceneMgr</text>
<text text-anchor="middle" x="1560" y="-375.5" font-family="Helvetica,sans-Serif" font-size="10.00">/setFadeOutStart__10Z2SceneMgrFUc.s</text>
</a>
</g>
</g>
<!-- Node1&#45;&gt;Node36 -->
<g id="edge41" class="edge">
<title>Node1&#45;&gt;Node36</title>
<path fill="none" stroke="#63b8ff" d="M3392.14,-448.18C3087.43,-446.72 2008.63,-439.12 1667,-404 1658.77,-403.15 1650.23,-402.03 1641.71,-400.74"/>
<polygon fill="#63b8ff" stroke="#63b8ff" points="1642.49,-397.32 1632.07,-399.2 1641.39,-404.23 1642.49,-397.32"/>
</g>
<!-- Node37 -->
<g id="node24" class="node">
<title>Node37</title>
<g id="a_node24"><a xlink:title=" ">
<polygon fill="#e0e0e0" stroke="#999999" points="1862.5,-398.5 1675.5,-398.5 1675.5,-368.5 1862.5,-368.5 1862.5,-398.5"/>
<text text-anchor="start" x="1683.5" y="-386.5" font-family="Helvetica,sans-Serif" font-size="10.00">asm/Z2AudioLib/Z2SceneMgr</text>
<text text-anchor="middle" x="1769" y="-375.5" font-family="Helvetica,sans-Serif" font-size="10.00">/setFadeInStart__10Z2SceneMgrFUc.s</text>
</a>
</g>
</g>
<!-- Node1&#45;&gt;Node37 -->
<g id="edge42" class="edge">
<title>Node1&#45;&gt;Node37</title>
<path fill="none" stroke="#63b8ff" d="M3392.28,-447.96C3110.49,-445.8 2171.44,-436.3 1872,-404 1864.31,-403.17 1856.34,-402.08 1848.39,-400.84"/>
<polygon fill="#63b8ff" stroke="#63b8ff" points="1849.13,-397.41 1838.69,-399.24 1847.99,-404.32 1849.13,-397.41"/>
</g>
<!-- Node38 -->
<g id="node25" class="node">
<title>Node38</title>
<g id="a_node25"><a xlink:title=" ">
<polygon fill="#e0e0e0" stroke="#999999" points="2075,-398.5 1881,-398.5 1881,-368.5 2075,-368.5 2075,-398.5"/>
<text text-anchor="start" x="1889" y="-386.5" font-family="Helvetica,sans-Serif" font-size="10.00">asm/Z2AudioLib/Z2SceneMgr</text>
<text text-anchor="middle" x="1978" y="-375.5" font-family="Helvetica,sans-Serif" font-size="10.00">/setSceneName__10Z2SceneMgrFPcll.s</text>
</a>
</g>
</g>
<!-- Node1&#45;&gt;Node38 -->
<g id="edge43" class="edge">
<title>Node1&#45;&gt;Node38</title>
<path fill="none" stroke="#63b8ff" d="M3392.04,-447.5C3135.12,-444.08 2340.08,-431.5 2084,-404 2076.07,-403.15 2067.84,-402.04 2059.63,-400.78"/>
<polygon fill="#63b8ff" stroke="#63b8ff" points="2060.41,-397.36 2049.98,-399.23 2059.3,-404.27 2060.41,-397.36"/>
</g>
<!-- Node39 -->
<g id="node26" class="node">
<title>Node39</title>
<g id="a_node26"><a xlink:title=" ">
<polygon fill="#e0e0e0" stroke="#999999" points="2257,-398.5 2093,-398.5 2093,-368.5 2257,-368.5 2257,-398.5"/>
<text text-anchor="start" x="2101" y="-386.5" font-family="Helvetica,sans-Serif" font-size="10.00">asm/Z2AudioLib/Z2SceneMgr</text>
<text text-anchor="middle" x="2175" y="-375.5" font-family="Helvetica,sans-Serif" font-size="10.00">/isActive__12JAIStreamMgrCFv.s</text>
</a>
</g>
</g>
<!-- Node1&#45;&gt;Node39 -->
<g id="edge44" class="edge">
<title>Node1&#45;&gt;Node39</title>
<path fill="none" stroke="#63b8ff" d="M3392.09,-447.36C3158.33,-443.76 2484.75,-431.26 2266,-404 2259.63,-403.21 2253.05,-402.19 2246.47,-401.04"/>
<polygon fill="#63b8ff" stroke="#63b8ff" points="2247.41,-397.65 2236.93,-399.27 2246.13,-404.53 2247.41,-397.65"/>
</g>
<!-- Node40 -->
<g id="node27" class="node">
<title>Node40</title>
<g id="a_node27"><a xlink:title=" ">
<polygon fill="#e0e0e0" stroke="#999999" points="2421,-398.5 2275,-398.5 2275,-368.5 2421,-368.5 2421,-398.5"/>
<text text-anchor="start" x="2283" y="-386.5" font-family="Helvetica,sans-Serif" font-size="10.00">asm/Z2AudioLib/Z2SceneMgr</text>
<text text-anchor="middle" x="2348" y="-375.5" font-family="Helvetica,sans-Serif" font-size="10.00">/getID__8JAISoundCFv.s</text>
</a>
</g>
</g>
<!-- Node1&#45;&gt;Node40 -->
<g id="edge45" class="edge">
<title>Node1&#45;&gt;Node40</title>
<path fill="none" stroke="#63b8ff" d="M3392.27,-447.05C3181.01,-442.93 2615.46,-429.77 2430,-404 2424.66,-403.26 2419.17,-402.33 2413.67,-401.28"/>
<polygon fill="#63b8ff" stroke="#63b8ff" points="2414.4,-397.85 2403.9,-399.28 2413,-404.71 2414.4,-397.85"/>
</g>
<!-- Node41 -->
<g id="node28" class="node">
<title>Node41</title>
<g id="a_node28"><a xlink:title=" ">
<polygon fill="#e0e0e0" stroke="#999999" points="2585,-398.5 2439,-398.5 2439,-368.5 2585,-368.5 2585,-398.5"/>
<text text-anchor="start" x="2447" y="-386.5" font-family="Helvetica,sans-Serif" font-size="10.00">asm/Z2AudioLib/Z2SceneMgr</text>
<text text-anchor="middle" x="2512" y="-375.5" font-family="Helvetica,sans-Serif" font-size="10.00">/func_802B9994.s</text>
</a>
</g>
</g>
<!-- Node1&#45;&gt;Node41 -->
<g id="edge46" class="edge">
<title>Node1&#45;&gt;Node41</title>
<path fill="none" stroke="#63b8ff" d="M3392.04,-449.25C3236.67,-449.61 2886.28,-445.25 2595,-404 2589.46,-403.22 2583.75,-402.24 2578.04,-401.14"/>
<polygon fill="#63b8ff" stroke="#63b8ff" points="2579.08,-397.78 2568.58,-399.21 2577.68,-404.64 2579.08,-397.78"/>
</g>
<!-- Node42 -->
<g id="node29" class="node">
<title>Node42</title>
<g id="a_node29"><a xlink:title=" ">
<polygon fill="#e0e0e0" stroke="#999999" points="2758.5,-398.5 2603.5,-398.5 2603.5,-368.5 2758.5,-368.5 2758.5,-398.5"/>
<text text-anchor="start" x="2611.5" y="-386.5" font-family="Helvetica,sans-Serif" font-size="10.00">asm/Z2AudioLib/Z2SceneMgr</text>
<text text-anchor="middle" x="2681" y="-375.5" font-family="Helvetica,sans-Serif" font-size="10.00">/dComIfGs_getStartPoint__Fv.s</text>
</a>
</g>
</g>
<!-- Node1&#45;&gt;Node42 -->
<g id="edge47" class="edge">
<title>Node1&#45;&gt;Node42</title>
<path fill="none" stroke="#63b8ff" d="M3392.22,-447.53C3260.76,-445.02 2992.61,-436.06 2768,-404 2762.4,-403.2 2756.62,-402.23 2750.83,-401.16"/>
<polygon fill="#63b8ff" stroke="#63b8ff" points="2751.71,-397.76 2741.22,-399.27 2750.36,-404.63 2751.71,-397.76"/>
</g>
<!-- Node43 -->
<g id="node30" class="node">
<title>Node43</title>
<g id="a_node30"><a xlink:title=" ">
<polygon fill="#e0e0e0" stroke="#999999" points="2961,-398.5 2777,-398.5 2777,-368.5 2961,-368.5 2961,-398.5"/>
<text text-anchor="start" x="2785" y="-386.5" font-family="Helvetica,sans-Serif" font-size="10.00">asm/Z2AudioLib/Z2SceneMgr</text>
<text text-anchor="middle" x="2869" y="-375.5" font-family="Helvetica,sans-Serif" font-size="10.00">/unMuteSceneBgm__8Z2SeqMgrFUl.s</text>
</a>
</g>
</g>
<!-- Node1&#45;&gt;Node43 -->
<g id="edge48" class="edge">
<title>Node1&#45;&gt;Node43</title>
<path fill="none" stroke="#63b8ff" d="M3392.13,-443.91C3292.5,-437.66 3118.24,-424.81 2970,-404 2963.54,-403.09 2956.87,-402.05 2950.18,-400.92"/>
<polygon fill="#63b8ff" stroke="#63b8ff" points="2950.88,-397.49 2940.43,-399.22 2949.68,-404.39 2950.88,-397.49"/>
</g>
<!-- Node44 -->
<g id="node31" class="node">
<title>Node44</title>
<g id="a_node31"><a xlink:title=" ">
<polygon fill="#e0e0e0" stroke="#999999" points="3155,-398.5 2979,-398.5 2979,-368.5 3155,-368.5 3155,-398.5"/>
<text text-anchor="start" x="2987" y="-386.5" font-family="Helvetica,sans-Serif" font-size="10.00">asm/Z2AudioLib/Z2SceneMgr</text>
<text text-anchor="middle" x="3067" y="-375.5" font-family="Helvetica,sans-Serif" font-size="10.00">/muteSceneBgm__8Z2SeqMgrFUlf.s</text>
</a>
</g>
</g>
<!-- Node1&#45;&gt;Node44 -->
<g id="edge49" class="edge">
<title>Node1&#45;&gt;Node44</title>
<path fill="none" stroke="#63b8ff" d="M3402.87,-439.53C3340.13,-431.23 3245.72,-418.09 3164,-404 3158.72,-403.09 3153.29,-402.11 3147.83,-401.1"/>
<polygon fill="#63b8ff" stroke="#63b8ff" points="3148.55,-397.67 3138.07,-399.25 3147.25,-404.55 3148.55,-397.67"/>
</g>
<!-- Node45 -->
<g id="node32" class="node">
<title>Node45</title>
<g id="a_node32"><a xlink:title=" ">
<polygon fill="#e0e0e0" stroke="#999999" points="3377,-398.5 3173,-398.5 3173,-368.5 3377,-368.5 3377,-398.5"/>
<text text-anchor="start" x="3181" y="-386.5" font-family="Helvetica,sans-Serif" font-size="10.00">asm/Z2AudioLib/Z2SceneMgr</text>
<text text-anchor="middle" x="3275" y="-375.5" font-family="Helvetica,sans-Serif" font-size="10.00">/__as__10JAISoundIDFRC10JAISoundID.s</text>
</a>
</g>
</g>
<!-- Node1&#45;&gt;Node45 -->
<g id="edge50" class="edge">
<title>Node1&#45;&gt;Node45</title>
<path fill="none" stroke="#63b8ff" d="M3445.47,-439.6C3415.87,-430.04 3368.04,-414.57 3330.56,-402.46"/>
<polygon fill="#63b8ff" stroke="#63b8ff" points="3331.82,-399.19 3321.23,-399.44 3329.67,-405.85 3331.82,-399.19"/>
</g>
<!-- Node46 -->
<g id="node33" class="node">
<title>Node46</title>
<g id="a_node33"><a xlink:title=" ">
<polygon fill="#e0e0e0" stroke="#999999" points="3550.5,-398.5 3395.5,-398.5 3395.5,-368.5 3550.5,-368.5 3550.5,-398.5"/>
<text text-anchor="start" x="3403.5" y="-386.5" font-family="Helvetica,sans-Serif" font-size="10.00">asm/Z2AudioLib/Z2SceneMgr</text>
<text text-anchor="middle" x="3473" y="-375.5" font-family="Helvetica,sans-Serif" font-size="10.00">/dComIfGs_isSaveSwitch__Fi.s</text>
</a>
</g>
</g>
<!-- Node1&#45;&gt;Node46 -->
<g id="edge51" class="edge">
<title>Node1&#45;&gt;Node46</title>
<path fill="none" stroke="#63b8ff" d="M3473,-439.6C3473,-431.91 3473,-420.42 3473,-409.92"/>
<polygon fill="#63b8ff" stroke="#63b8ff" points="3476.5,-410.25 3473,-400.25 3469.5,-410.25 3476.5,-410.25"/>
</g>
<!-- Node47 -->
<g id="node34" class="node">
<title>Node47</title>
<g id="a_node34"><a xlink:title=" ">
<polygon fill="#e0e0e0" stroke="#999999" points="3731,-398.5 3569,-398.5 3569,-368.5 3731,-368.5 3731,-398.5"/>
<text text-anchor="start" x="3577" y="-386.5" font-family="Helvetica,sans-Serif" font-size="10.00">asm/Z2AudioLib/Z2SceneMgr</text>
<text text-anchor="middle" x="3650" y="-375.5" font-family="Helvetica,sans-Serif" font-size="10.00">/resetCrowdSize__7Z2SeMgrFv.s</text>
</a>
</g>
</g>
<!-- Node1&#45;&gt;Node47 -->
<g id="edge52" class="edge">
<title>Node1&#45;&gt;Node47</title>
<path fill="none" stroke="#63b8ff" d="M3497.61,-439.6C3523.84,-430.12 3566.1,-414.84 3599.47,-402.77"/>
<polygon fill="#63b8ff" stroke="#63b8ff" points="3600.32,-406.18 3608.54,-399.49 3597.94,-399.6 3600.32,-406.18"/>
</g>
<!-- Node48 -->
<g id="node35" class="node">
<title>Node48</title>
<g id="a_node35"><a xlink:title=" ">
<polygon fill="#e0e0e0" stroke="#999999" points="3928.5,-398.5 3749.5,-398.5 3749.5,-368.5 3928.5,-368.5 3928.5,-398.5"/>
<text text-anchor="start" x="3757.5" y="-386.5" font-family="Helvetica,sans-Serif" font-size="10.00">asm/Z2AudioLib/Z2SceneMgr</text>
<text text-anchor="middle" x="3839" y="-375.5" font-family="Helvetica,sans-Serif" font-size="10.00">/setTwilightGateVol__8Z2SeqMgrFf.s</text>
</a>
</g>
</g>
<!-- Node1&#45;&gt;Node48 -->
<g id="edge53" class="edge">
<title>Node1&#45;&gt;Node48</title>
<path fill="none" stroke="#63b8ff" d="M3529.86,-439.52C3583.97,-430.86 3667.64,-417.15 3740,-404 3745.17,-403.06 3750.48,-402.07 3755.84,-401.06"/>
<polygon fill="#63b8ff" stroke="#63b8ff" points="3756.21,-404.56 3765.38,-399.25 3754.9,-397.68 3756.21,-404.56"/>
</g>
<!-- Node49 -->
<g id="node36" class="node">
<title>Node49</title>
<g id="a_node36"><a xlink:title=" ">
<polygon fill="#e0e0e0" stroke="#999999" points="4129,-398.5 3947,-398.5 3947,-368.5 4129,-368.5 4129,-398.5"/>
<text text-anchor="start" x="3955" y="-386.5" font-family="Helvetica,sans-Serif" font-size="10.00">asm/Z2AudioLib/Z2SceneMgr</text>
<text text-anchor="middle" x="4038" y="-375.5" font-family="Helvetica,sans-Serif" font-size="10.00">/setWindStoneVol__8Z2SeqMgrFfUl.s</text>
</a>
</g>
</g>
<!-- Node1&#45;&gt;Node49 -->
<g id="edge54" class="edge">
<title>Node1&#45;&gt;Node49</title>
<path fill="none" stroke="#63b8ff" d="M3553.93,-443.15C3646.92,-436.45 3803.97,-423.43 3938,-404 3944.34,-403.08 3950.88,-402.03 3957.44,-400.91"/>
<polygon fill="#63b8ff" stroke="#63b8ff" points="3957.75,-404.41 3966.99,-399.22 3956.54,-397.52 3957.75,-404.41"/>
</g>
<!-- Node50 -->
<g id="node37" class="node">
<title>Node50</title>
<g id="a_node37"><a xlink:title=" ">
<polygon fill="#e0e0e0" stroke="#999999" points="4362.5,-404 4147.5,-404 4147.5,-363 4362.5,-363 4362.5,-404"/>
<text text-anchor="start" x="4155.5" y="-392" font-family="Helvetica,sans-Serif" font-size="10.00">asm/Z2AudioLib/Z2SceneMgr</text>
<text text-anchor="start" x="4155.5" y="-381" font-family="Helvetica,sans-Serif" font-size="10.00">/sceneChange__10Z2SceneMgrF10JAISound</text>
<text text-anchor="middle" x="4255" y="-370" font-family="Helvetica,sans-Serif" font-size="10.00">IDUcUcUcUcUcb.s</text>
</a>
</g>
</g>
<!-- Node1&#45;&gt;Node50 -->
<g id="edge55" class="edge">
<title>Node1&#45;&gt;Node50</title>
<path fill="none" stroke="#63b8ff" d="M3553.85,-445.66C3677.11,-440.75 3919.64,-428.87 4135.75,-404.2"/>
<polygon fill="#63b8ff" stroke="#63b8ff" points="4135.97,-407.69 4145.5,-403.07 4135.16,-400.74 4135.97,-407.69"/>
</g>
<!-- Node51 -->
<g id="node38" class="node">
<title>Node51</title>
<g id="a_node38"><a xlink:title=" ">
<polygon fill="#e0e0e0" stroke="#999999" points="4541.5,-398.5 4380.5,-398.5 4380.5,-368.5 4541.5,-368.5 4541.5,-398.5"/>
<text text-anchor="start" x="4388.5" y="-386.5" font-family="Helvetica,sans-Serif" font-size="10.00">asm/Z2AudioLib/Z2SceneMgr</text>
<text text-anchor="middle" x="4461" y="-375.5" font-family="Helvetica,sans-Serif" font-size="10.00">/framework__10Z2SceneMgrFv.s</text>
</a>
</g>
</g>
<!-- Node1&#45;&gt;Node51 -->
<g id="edge56" class="edge">
<title>Node1&#45;&gt;Node51</title>
<path fill="none" stroke="#63b8ff" d="M3553.99,-448.99C3712.03,-448.94 4072.28,-443.97 4372,-404 4377.98,-403.2 4384.15,-402.21 4390.32,-401.1"/>
<polygon fill="#63b8ff" stroke="#63b8ff" points="4390.75,-404.58 4399.91,-399.27 4389.43,-397.71 4390.75,-404.58"/>
</g>
<!-- Node52 -->
<g id="node39" class="node">
<title>Node52</title>
<g id="a_node39"><a xlink:title=" ">
<polygon fill="#e0e0e0" stroke="#999999" points="4732.5,-404 4559.5,-404 4559.5,-363 4732.5,-363 4732.5,-404"/>
<text text-anchor="start" x="4567.5" y="-392" font-family="Helvetica,sans-Serif" font-size="10.00">asm/Z2AudioLib/Z2SceneMgr</text>
<text text-anchor="start" x="4567.5" y="-381" font-family="Helvetica,sans-Serif" font-size="10.00">/load1stDynamicWave__10Z2Scene</text>
<text text-anchor="middle" x="4646" y="-370" font-family="Helvetica,sans-Serif" font-size="10.00">MgrFv.s</text>
</a>
</g>
</g>
<!-- Node1&#45;&gt;Node52 -->
<g id="edge57" class="edge">
<title>Node1&#45;&gt;Node52</title>
<path fill="none" stroke="#63b8ff" d="M3553.65,-446.86C3765.78,-442.27 4336.96,-428.15 4547.85,-404.25"/>
<polygon fill="#63b8ff" stroke="#63b8ff" points="4548.09,-407.74 4557.61,-403.09 4547.27,-400.79 4548.09,-407.74"/>
</g>
<!-- Node53 -->
<g id="node40" class="node">
<title>Node53</title>
<g id="a_node40"><a xlink:title=" ">
<polygon fill="#e0e0e0" stroke="#999999" points="4923.5,-404 4750.5,-404 4750.5,-363 4923.5,-363 4923.5,-404"/>
<text text-anchor="start" x="4758.5" y="-392" font-family="Helvetica,sans-Serif" font-size="10.00">asm/Z2AudioLib/Z2SceneMgr</text>
<text text-anchor="start" x="4758.5" y="-381" font-family="Helvetica,sans-Serif" font-size="10.00">/_load1stWaveInner_1__10Z2Scene</text>
<text text-anchor="middle" x="4837" y="-370" font-family="Helvetica,sans-Serif" font-size="10.00">MgrFv.s</text>
</a>
</g>
</g>
<!-- Node1&#45;&gt;Node53 -->
<g id="edge58" class="edge">
<title>Node1&#45;&gt;Node53</title>
<path fill="none" stroke="#63b8ff" d="M3553.72,-447.44C3791.7,-444.03 4488.98,-431.99 4738.92,-404.23"/>
<polygon fill="#63b8ff" stroke="#63b8ff" points="4739.08,-407.73 4748.62,-403.11 4738.28,-400.78 4739.08,-407.73"/>
</g>
<!-- Node54 -->
<g id="node41" class="node">
<title>Node54</title>
<g id="a_node41"><a xlink:title=" ">
<polygon fill="#e0e0e0" stroke="#999999" points="5114.5,-404 4941.5,-404 4941.5,-363 5114.5,-363 5114.5,-404"/>
<text text-anchor="start" x="4949.5" y="-392" font-family="Helvetica,sans-Serif" font-size="10.00">asm/Z2AudioLib/Z2SceneMgr</text>
<text text-anchor="start" x="4949.5" y="-381" font-family="Helvetica,sans-Serif" font-size="10.00">/_load1stWaveInner_2__10Z2Scene</text>
<text text-anchor="middle" x="5028" y="-370" font-family="Helvetica,sans-Serif" font-size="10.00">MgrFv.s</text>
</a>
</g>
</g>
<!-- Node1&#45;&gt;Node54 -->
<g id="edge59" class="edge">
<title>Node1&#45;&gt;Node54</title>
<path fill="none" stroke="#63b8ff" d="M3553.9,-447.87C3815.93,-445.53 4640.58,-435.88 4929.82,-404.24"/>
<polygon fill="#63b8ff" stroke="#63b8ff" points="4930.08,-407.73 4939.62,-403.13 4929.29,-400.77 4930.08,-407.73"/>
</g>
<!-- Node55 -->
<g id="node42" class="node">
<title>Node55</title>
<g id="a_node42"><a xlink:title=" ">
<polygon fill="#e0e0e0" stroke="#999999" points="5315,-404 5133,-404 5133,-363 5315,-363 5315,-404"/>
<text text-anchor="start" x="5141" y="-392" font-family="Helvetica,sans-Serif" font-size="10.00">asm/Z2AudioLib/Z2SceneMgr</text>
<text text-anchor="start" x="5141" y="-381" font-family="Helvetica,sans-Serif" font-size="10.00">/check1stDynamicWave__10Z2Scene</text>
<text text-anchor="middle" x="5224" y="-370" font-family="Helvetica,sans-Serif" font-size="10.00">MgrFv.s</text>
</a>
</g>
</g>
<!-- Node1&#45;&gt;Node55 -->
<g id="edge60" class="edge">
<title>Node1&#45;&gt;Node55</title>
<path fill="none" stroke="#63b8ff" d="M3553.75,-448.1C3838.03,-446.4 4792.64,-438.3 5121.58,-404.14"/>
<polygon fill="#63b8ff" stroke="#63b8ff" points="5121.46,-407.67 5131.04,-403.12 5120.72,-400.71 5121.46,-407.67"/>
</g>
<!-- Node56 -->
<g id="node43" class="node">
<title>Node56</title>
<g id="a_node43"><a xlink:title=" ">
<polygon fill="#e0e0e0" stroke="#999999" points="5509,-404 5333,-404 5333,-363 5509,-363 5509,-404"/>
<text text-anchor="start" x="5341" y="-392" font-family="Helvetica,sans-Serif" font-size="10.00">asm/Z2AudioLib/Z2SceneMgr</text>
<text text-anchor="start" x="5341" y="-381" font-family="Helvetica,sans-Serif" font-size="10.00">/load2ndDynamicWave__10Z2Scene</text>
<text text-anchor="middle" x="5421" y="-370" font-family="Helvetica,sans-Serif" font-size="10.00">MgrFv.s</text>
</a>
</g>
</g>
<!-- Node1&#45;&gt;Node56 -->
<g id="edge61" class="edge">
<title>Node1&#45;&gt;Node56</title>
<path fill="none" stroke="#63b8ff" d="M3553.77,-448.43C3860.04,-447.89 4950.71,-443.25 5321.27,-404.17"/>
<polygon fill="#63b8ff" stroke="#63b8ff" points="5321.48,-407.66 5331.05,-403.1 5320.73,-400.71 5321.48,-407.66"/>
</g>
<!-- Node57 -->
<g id="node44" class="node">
<title>Node57</title>
<g id="a_node44"><a xlink:title=" ">
<polygon fill="#e0e0e0" stroke="#999999" points="5709,-398.5 5527,-398.5 5527,-368.5 5709,-368.5 5709,-398.5"/>
<text text-anchor="start" x="5535" y="-386.5" font-family="Helvetica,sans-Serif" font-size="10.00">asm/Z2AudioLib/Z2SceneMgr</text>
<text text-anchor="middle" x="5618" y="-375.5" font-family="Helvetica,sans-Serif" font-size="10.00">/sceneBgmStart__10Z2SceneMgrFv.s</text>
</a>
</g>
</g>
<!-- Node1&#45;&gt;Node57 -->
<g id="edge62" class="edge">
<title>Node1&#45;&gt;Node57</title>
<path fill="none" stroke="#63b8ff" d="M3553.94,-448.59C3883.76,-448.65 5127.29,-446.03 5518,-404 5525.5,-403.19 5533.28,-402.11 5541.04,-400.87"/>
<polygon fill="#63b8ff" stroke="#63b8ff" points="5541.58,-404.33 5550.86,-399.21 5540.41,-397.43 5541.58,-404.33"/>
</g>
<!-- Node58 -->
<g id="node45" class="node">
<title>Node58</title>
<g id="a_node45"><a xlink:title=" ">
<polygon fill="#e0e0e0" stroke="#999999" points="5915,-398.5 5727,-398.5 5727,-368.5 5915,-368.5 5915,-398.5"/>
<text text-anchor="start" x="5735" y="-386.5" font-family="Helvetica,sans-Serif" font-size="10.00">asm/Z2AudioLib/Z2SceneMgr</text>
<text text-anchor="middle" x="5821" y="-375.5" font-family="Helvetica,sans-Serif" font-size="10.00">/loadStaticWaves__10Z2SceneMgrFv.s</text>
</a>
</g>
</g>
<!-- Node1&#45;&gt;Node58 -->
<g id="edge63" class="edge">
<title>Node1&#45;&gt;Node58</title>
<path fill="none" stroke="#63b8ff" d="M3553.74,-448.71C3903.02,-449.34 5285.66,-448.89 5718,-404 5725.9,-403.18 5734.11,-402.07 5742.28,-400.8"/>
<polygon fill="#63b8ff" stroke="#63b8ff" points="5742.58,-404.3 5751.87,-399.22 5741.44,-397.39 5742.58,-404.3"/>
</g>
<!-- Node59 -->
<g id="node46" class="node">
<title>Node59</title>
<g id="a_node46"><a xlink:title=" ">
<polygon fill="#e0e0e0" stroke="#999999" points="6113,-398.5 5933,-398.5 5933,-368.5 6113,-368.5 6113,-398.5"/>
<text text-anchor="start" x="5941" y="-386.5" font-family="Helvetica,sans-Serif" font-size="10.00">asm/Z2AudioLib/Z2SceneMgr</text>
<text text-anchor="middle" x="6023" y="-375.5" font-family="Helvetica,sans-Serif" font-size="10.00">/eraseSeWave__10Z2SceneMgrFUl.s</text>
</a>
</g>
</g>
<!-- Node1&#45;&gt;Node59 -->
<g id="edge64" class="edge">
<title>Node1&#45;&gt;Node59</title>
<path fill="none" stroke="#63b8ff" d="M3553.92,-447.88C3951.06,-444.72 5684.44,-429.57 5924,-404 5931.43,-403.21 5939.14,-402.14 5946.82,-400.9"/>
<polygon fill="#63b8ff" stroke="#63b8ff" points="5947.25,-404.38 5956.52,-399.25 5946.08,-397.48 5947.25,-404.38"/>
</g>
<!-- Node60 -->
<g id="node47" class="node">
<title>Node60</title>
<g id="a_node47"><a xlink:title=" ">
<polygon fill="#e0e0e0" stroke="#999999" points="6319,-398.5 6131,-398.5 6131,-368.5 6319,-368.5 6319,-398.5"/>
<text text-anchor="start" x="6139" y="-386.5" font-family="Helvetica,sans-Serif" font-size="10.00">asm/Z2AudioLib/Z2SceneMgr</text>
<text text-anchor="middle" x="6225" y="-375.5" font-family="Helvetica,sans-Serif" font-size="10.00">/eraseBgmWave__10Z2SceneMgrFUl.s</text>
</a>
</g>
</g>
<!-- Node1&#45;&gt;Node60 -->
<g id="edge65" class="edge">
<title>Node1&#45;&gt;Node60</title>
<path fill="none" stroke="#63b8ff" d="M3553.82,-447.96C3969.96,-445.09 5861.61,-430.64 6122,-404 6129.97,-403.19 6138.24,-402.07 6146.47,-400.79"/>
<polygon fill="#63b8ff" stroke="#63b8ff" points="6146.86,-404.28 6156.15,-399.2 6145.72,-397.37 6146.86,-404.28"/>
</g>
<!-- Node61 -->
<g id="node48" class="node">
<title>Node61</title>
<g id="a_node48"><a xlink:title=" ">
<polygon fill="#e0e0e0" stroke="#999999" points="6522.5,-404 6337.5,-404 6337.5,-363 6522.5,-363 6522.5,-404"/>
<text text-anchor="start" x="6345.5" y="-392" font-family="Helvetica,sans-Serif" font-size="10.00">asm/Z2AudioLib/Z2SceneMgr</text>
<text text-anchor="start" x="6345.5" y="-381" font-family="Helvetica,sans-Serif" font-size="10.00">/getWaveLoadStatus__10Z2SceneMgr</text>
<text text-anchor="middle" x="6430" y="-370" font-family="Helvetica,sans-Serif" font-size="10.00">FUlUl.s</text>
</a>
</g>
</g>
<!-- Node1&#45;&gt;Node61 -->
<g id="edge66" class="edge">
<title>Node1&#45;&gt;Node61</title>
<path fill="none" stroke="#63b8ff" d="M3553.93,-448.08C3984.22,-445.71 5996.1,-433.24 6325.82,-404.03"/>
<polygon fill="#63b8ff" stroke="#63b8ff" points="6326.13,-407.51 6335.76,-403.08 6325.47,-400.54 6326.13,-407.51"/>
</g>
<!-- Node62 -->
<g id="node49" class="node">
<title>Node62</title>
<g id="a_node49"><a xlink:title=" ">
<polygon fill="#e0e0e0" stroke="#999999" points="6715,-398.5 6541,-398.5 6541,-368.5 6715,-368.5 6715,-398.5"/>
<text text-anchor="start" x="6549" y="-386.5" font-family="Helvetica,sans-Serif" font-size="10.00">asm/Z2AudioLib/Z2SceneMgr</text>
<text text-anchor="middle" x="6628" y="-375.5" font-family="Helvetica,sans-Serif" font-size="10.00">/loadSeWave__10Z2SceneMgrFUl.s</text>
</a>
</g>
</g>
<!-- Node1&#45;&gt;Node62 -->
<g id="edge67" class="edge">
<title>Node1&#45;&gt;Node62</title>
<path fill="none" stroke="#63b8ff" d="M3553.7,-448.22C4007.18,-446.55 6228.77,-436.71 6532,-404 6539.19,-403.22 6546.63,-402.17 6554.05,-400.95"/>
<polygon fill="#63b8ff" stroke="#63b8ff" points="6554.53,-404.42 6563.77,-399.24 6553.32,-397.52 6554.53,-404.42"/>
</g>
<!-- Node63 -->
<g id="node50" class="node">
<title>Node63</title>
<g id="a_node50"><a xlink:title=" ">
<polygon fill="#e0e0e0" stroke="#999999" points="6915,-398.5 6733,-398.5 6733,-368.5 6915,-368.5 6915,-398.5"/>
<text text-anchor="start" x="6741" y="-386.5" font-family="Helvetica,sans-Serif" font-size="10.00">asm/Z2AudioLib/Z2SceneMgr</text>
<text text-anchor="middle" x="6824" y="-375.5" font-family="Helvetica,sans-Serif" font-size="10.00">/loadBgmWave__10Z2SceneMgrFUl.s</text>
</a>
</g>
</g>
<!-- Node1&#45;&gt;Node63 -->
<g id="edge68" class="edge">
<title>Node1&#45;&gt;Node63</title>
<path fill="none" stroke="#63b8ff" d="M3553.71,-448.26C4023.95,-446.75 6400.46,-437.49 6724,-404 6731.65,-403.21 6739.59,-402.12 6747.5,-400.86"/>
<polygon fill="#63b8ff" stroke="#63b8ff" points="6747.86,-404.35 6757.13,-399.24 6746.69,-397.45 6747.86,-404.35"/>
</g>
<!-- Node3 -->
<g id="node3" class="node">
<title>Node3</title>
<g id="a_node3"><a xlink:href="JAISound_8h.html" target="_top" xlink:title=" ">
<polygon fill="white" stroke="#666666" points="573,-140 427,-140 427,-121 573,-121 573,-140"/>
<text text-anchor="middle" x="500" y="-128" font-family="Helvetica,sans-Serif" font-size="10.00">JSystem/JAudio2/JAISound.h</text>
</a>
</g>
</g>
<!-- Node2&#45;&gt;Node3 -->
<g id="edge2" class="edge">
<title>Node2&#45;&gt;Node3</title>
<path fill="none" stroke="#63b8ff" d="M366.48,-247.08C388.51,-238.78 419.91,-224.86 443,-206 462.45,-190.11 479.15,-166.33 489.36,-149.93"/>
<polygon fill="#63b8ff" stroke="#63b8ff" points="492.17,-152.05 494.31,-141.68 486.17,-148.45 492.17,-152.05"/>
</g>
<!-- Node16 -->
<g id="node8" class="node">
<title>Node16</title>
<g id="a_node8"><a xlink:href="JASGadget_8h.html" target="_top" xlink:title=" ">
<polygon fill="white" stroke="#666666" points="434,-200.5 280,-200.5 280,-181.5 434,-181.5 434,-200.5"/>
<text text-anchor="middle" x="357" y="-188.5" font-family="Helvetica,sans-Serif" font-size="10.00">JSystem/JAudio2/JASGadget.h</text>
</a>
</g>
</g>
<!-- Node2&#45;&gt;Node16 -->
<g id="edge7" class="edge">
<title>Node2&#45;&gt;Node16</title>
<path fill="none" stroke="#63b8ff" d="M342.36,-247.1C344.77,-238.03 348.59,-223.64 351.73,-211.85"/>
<polygon fill="#63b8ff" stroke="#63b8ff" points="355.08,-212.85 354.27,-202.29 348.32,-211.05 355.08,-212.85"/>
</g>
<!-- Node4 -->
<g id="node4" class="node">
<title>Node4</title>
<g id="a_node4"><a xlink:href="JAISoundParams_8h.html" target="_top" xlink:title=" ">
<polygon fill="#fff0f0" stroke="red" points="547.5,-85 408.5,-85 408.5,-55 547.5,-55 547.5,-85"/>
<text text-anchor="start" x="416.5" y="-73" font-family="Helvetica,sans-Serif" font-size="10.00">JSystem/JAudio2/JAISound</text>
<text text-anchor="middle" x="478" y="-62" font-family="Helvetica,sans-Serif" font-size="10.00">Params.h</text>
</a>
</g>
</g>
<!-- Node3&#45;&gt;Node4 -->
<g id="edge3" class="edge">
<title>Node3&#45;&gt;Node4</title>
<path fill="none" stroke="#63b8ff" d="M496.75,-120.87C494.27,-114.25 490.7,-104.78 487.35,-95.86"/>
<polygon fill="#63b8ff" stroke="#63b8ff" points="490.64,-94.66 483.84,-86.53 484.08,-97.12 490.64,-94.66"/>
</g>
<!-- Node8 -->
<g id="node5" class="node">
<title>Node8</title>
<g id="a_node5"><a xlink:href="JAIAudible_8h.html" target="_top" xlink:title=" ">
<polygon fill="#fff0f0" stroke="red" points="716.5,-79.5 565.5,-79.5 565.5,-60.5 716.5,-60.5 716.5,-79.5"/>
<text text-anchor="middle" x="641" y="-67.5" font-family="Helvetica,sans-Serif" font-size="10.00">JSystem/JAudio2/JAIAudible.h</text>
</a>
</g>
</g>
<!-- Node3&#45;&gt;Node8 -->
<g id="edge4" class="edge">
<title>Node3&#45;&gt;Node8</title>
<path fill="none" stroke="#63b8ff" d="M521.41,-120.62C544.71,-110.95 582.19,-95.4 608.98,-84.28"/>
<polygon fill="#63b8ff" stroke="#63b8ff" points="610.09,-87.61 617.99,-80.55 607.41,-81.15 610.09,-87.61"/>
</g>
<!-- Node3&#45;&gt;Node15 -->
<g id="edge5" class="edge">
<title>Node3&#45;&gt;Node15</title>
<path fill="none" stroke="#63b8ff" d="M573.35,-122.73C709.29,-110.19 995.75,-83.76 1097.33,-74.38"/>
<polygon fill="#63b8ff" stroke="#63b8ff" points="1097.63,-77.87 1107.27,-73.47 1096.99,-70.9 1097.63,-77.87"/>
</g>
<!-- Node6 -->
<g id="node7" class="node">
<title>Node6</title>
<g id="a_node7"><a xlink:href="types_8h.html" target="_top" xlink:title=" ">
<polygon fill="#fff0f0" stroke="red" points="639.5,-19 558.5,-19 558.5,0 639.5,0 639.5,-19"/>
<text text-anchor="middle" x="599" y="-7" font-family="Helvetica,sans-Serif" font-size="10.00">dolphin/types.h</text>
</a>
</g>
</g>
<!-- Node15&#45;&gt;Node6 -->
<g id="edge6" class="edge">
<title>Node15&#45;&gt;Node6</title>
<path fill="none" stroke="#63b8ff" d="M1108.56,-66.22C1025.92,-57.18 763.95,-28.54 651.31,-16.22"/>
<polygon fill="#63b8ff" stroke="#63b8ff" points="651.76,-12.75 641.43,-15.14 650.99,-19.71 651.76,-12.75"/>
</g>
<!-- Node16&#45;&gt;Node6 -->
<g id="edge8" class="edge">
<title>Node16&#45;&gt;Node6</title>
<path fill="none" stroke="#63b8ff" d="M356.91,-181.19C357.19,-157.09 361.44,-89.58 399,-55 420.23,-35.46 494.87,-22.81 546.7,-16.17"/>
<polygon fill="#63b8ff" stroke="#63b8ff" points="547.04,-19.66 556.54,-14.95 546.18,-12.71 547.04,-19.66"/>
</g>
<!-- Node17&#45;&gt;Node15 -->
<g id="edge28" class="edge">
<title>Node17&#45;&gt;Node15</title>
<path fill="none" stroke="#63b8ff" d="M1021.48,-373.55C1082.49,-360.17 1172,-328.52 1172,-258 1172,-258 1172,-258 1172,-190 1172,-158.71 1167.96,-150.66 1158,-121 1154.43,-110.36 1149.13,-99.04 1144.42,-89.86"/>
<polygon fill="#63b8ff" stroke="#63b8ff" points="1147.63,-88.44 1139.84,-81.27 1141.45,-91.74 1147.63,-88.44"/>
</g>
<!-- Node18 -->
<g id="node10" class="node">
<title>Node18</title>
<g id="a_node10"><a xlink:href="JAISeMgr_8h.html" target="_top" xlink:title=" ">
<polygon fill="white" stroke="#666666" points="1039.5,-327 892.5,-327 892.5,-308 1039.5,-308 1039.5,-327"/>
<text text-anchor="middle" x="966" y="-315" font-family="Helvetica,sans-Serif" font-size="10.00">JSystem/JAudio2/JAISeMgr.h</text>
</a>
</g>
</g>
<!-- Node17&#45;&gt;Node18 -->
<g id="edge10" class="edge">
<title>Node17&#45;&gt;Node18</title>
<path fill="none" stroke="#63b8ff" d="M966,-373.6C966,-364.62 966,-350.45 966,-338.72"/>
<polygon fill="#63b8ff" stroke="#63b8ff" points="969.5,-338.84 966,-328.84 962.5,-338.84 969.5,-338.84"/>
</g>
<!-- Node28 -->
<g id="node15" class="node">
<title>Node28</title>
<g id="a_node15"><a xlink:href="JAISeqMgr_8h.html" target="_top" xlink:title=" ">
<polygon fill="white" stroke="#666666" points="738,-266.5 586,-266.5 586,-247.5 738,-247.5 738,-266.5"/>
<text text-anchor="middle" x="662" y="-254.5" font-family="Helvetica,sans-Serif" font-size="10.00">JSystem/JAudio2/JAISeqMgr.h</text>
</a>
</g>
</g>
<!-- Node17&#45;&gt;Node28 -->
<g id="edge20" class="edge">
<title>Node17&#45;&gt;Node28</title>
<path fill="none" stroke="#63b8ff" d="M944.14,-373.55C891.22,-351.88 756.06,-296.52 694.02,-271.11"/>
<polygon fill="#63b8ff" stroke="#63b8ff" points="695.65,-268 685.07,-267.45 692.99,-274.48 695.65,-268"/>
</g>
<!-- Node29 -->
<g id="node16" class="node">
<title>Node29</title>
<g id="a_node16"><a xlink:href="JAIStreamMgr_8h.html" target="_top" xlink:title=" ">
<polygon fill="white" stroke="#666666" points="567.5,-272 424.5,-272 424.5,-242 567.5,-242 567.5,-272"/>
<text text-anchor="start" x="432.5" y="-260" font-family="Helvetica,sans-Serif" font-size="10.00">JSystem/JAudio2/JAIStream</text>
<text text-anchor="middle" x="496" y="-249" font-family="Helvetica,sans-Serif" font-size="10.00">Mgr.h</text>
</a>
</g>
</g>
<!-- Node17&#45;&gt;Node29 -->
<g id="edge24" class="edge">
<title>Node17&#45;&gt;Node29</title>
<path fill="none" stroke="#63b8ff" d="M932.2,-373.55C854.7,-353.02 663.08,-302.26 561.56,-275.37"/>
<polygon fill="#63b8ff" stroke="#63b8ff" points="562.56,-272.01 552,-272.83 560.77,-278.78 562.56,-272.01"/>
</g>
<!-- Node18&#45;&gt;Node15 -->
<g id="edge19" class="edge">
<title>Node18&#45;&gt;Node15</title>
<path fill="none" stroke="#63b8ff" d="M1039.88,-311.26C1067.17,-305.46 1095.83,-294.06 1114,-272 1157.36,-219.35 1146.38,-130.69 1138.6,-91.12"/>
<polygon fill="#63b8ff" stroke="#63b8ff" points="1142.03,-90.44 1136.53,-81.39 1135.19,-91.9 1142.03,-90.44"/>
</g>
<!-- Node19 -->
<g id="node11" class="node">
<title>Node19</title>
<g id="a_node11"><a xlink:href="JAISe_8h.html" target="_top" xlink:title=" ">
<polygon fill="#fff0f0" stroke="red" points="887.5,-266.5 756.5,-266.5 756.5,-247.5 887.5,-247.5 887.5,-266.5"/>
<text text-anchor="middle" x="822" y="-254.5" font-family="Helvetica,sans-Serif" font-size="10.00">JSystem/JAudio2/JAISe.h</text>
</a>
</g>
</g>
<!-- Node18&#45;&gt;Node19 -->
<g id="edge11" class="edge">
<title>Node18&#45;&gt;Node19</title>
<path fill="none" stroke="#63b8ff" d="M944.13,-307.62C920.34,-297.95 882.06,-282.4 854.7,-271.28"/>
<polygon fill="#63b8ff" stroke="#63b8ff" points="856.06,-268.06 845.48,-267.54 853.43,-274.54 856.06,-268.06"/>
</g>
<!-- Node23 -->
<g id="node13" class="node">
<title>Node23</title>
<g id="a_node13"><a xlink:href="JSUList_8h.html" target="_top" xlink:title=" ">
<polygon fill="white" stroke="#666666" points="893.5,-200.5 750.5,-200.5 750.5,-181.5 893.5,-181.5 893.5,-200.5"/>
<text text-anchor="middle" x="822" y="-188.5" font-family="Helvetica,sans-Serif" font-size="10.00">JSystem/JSupport/JSUList.h</text>
</a>
</g>
</g>
<!-- Node18&#45;&gt;Node23 -->
<g id="edge18" class="edge">
<title>Node18&#45;&gt;Node23</title>
<path fill="none" stroke="#63b8ff" d="M958.8,-307.64C946.7,-293.03 921.13,-263.4 896,-242 880.56,-228.85 861.57,-216.08 846.7,-206.74"/>
<polygon fill="#63b8ff" stroke="#63b8ff" points="848.79,-203.92 838.44,-201.65 845.12,-209.88 848.79,-203.92"/>
</g>
<!-- Node24 -->
<g id="node14" class="node">
<title>Node24</title>
<g id="a_node14"><a xlink:href="JASHeapCtrl_8h.html" target="_top" xlink:title=" ">
<polygon fill="#fff0f0" stroke="red" points="1105.5,-266.5 944.5,-266.5 944.5,-247.5 1105.5,-247.5 1105.5,-266.5"/>
<text text-anchor="middle" x="1025" y="-254.5" font-family="Helvetica,sans-Serif" font-size="10.00">JSystem/JAudio2/JASHeapCtrl.h</text>
</a>
</g>
</g>
<!-- Node18&#45;&gt;Node24 -->
<g id="edge16" class="edge">
<title>Node18&#45;&gt;Node24</title>
<path fill="none" stroke="#63b8ff" d="M974.96,-307.62C983.71,-298.94 997.25,-285.52 1008.04,-274.82"/>
<polygon fill="#63b8ff" stroke="#63b8ff" points="1010.24,-277.56 1014.88,-268.03 1005.31,-272.59 1010.24,-277.56"/>
</g>
<!-- Node20 -->
<g id="node12" class="node">
<title>Node20</title>
<g id="a_node12"><a xlink:href="JAISeqDataMgr_8h.html" target="_top" xlink:title=" ">
<polygon fill="white" stroke="#666666" points="732.5,-206 583.5,-206 583.5,-176 732.5,-176 732.5,-206"/>
<text text-anchor="start" x="591.5" y="-194" font-family="Helvetica,sans-Serif" font-size="10.00">JSystem/JAudio2/JAISeqData</text>
<text text-anchor="middle" x="658" y="-183" font-family="Helvetica,sans-Serif" font-size="10.00">Mgr.h</text>
</a>
</g>
</g>
<!-- Node19&#45;&gt;Node20 -->
<g id="edge12" class="edge">
<title>Node19&#45;&gt;Node20</title>
<path fill="none" stroke="#63b8ff" d="M799.2,-247.1C775.1,-237.7 736.42,-222.6 705.62,-210.59"/>
<polygon fill="#63b8ff" stroke="#63b8ff" points="707.1,-207.4 696.51,-207.03 704.55,-213.92 707.1,-207.4"/>
</g>
<!-- Node19&#45;&gt;Node23 -->
<g id="edge14" class="edge">
<title>Node19&#45;&gt;Node23</title>
<path fill="none" stroke="#63b8ff" d="M822,-247.1C822,-238.12 822,-223.95 822,-212.22"/>
<polygon fill="#63b8ff" stroke="#63b8ff" points="825.5,-212.34 822,-202.34 818.5,-212.34 825.5,-212.34"/>
</g>
<!-- Node20&#45;&gt;Node3 -->
<g id="edge13" class="edge">
<title>Node20&#45;&gt;Node3</title>
<path fill="none" stroke="#63b8ff" d="M618.94,-175.54C593.11,-165.97 559.54,-153.55 534.66,-144.33"/>
<polygon fill="#63b8ff" stroke="#63b8ff" points="535.9,-141.06 525.31,-140.87 533.47,-147.63 535.9,-141.06"/>
</g>
<!-- Node23&#45;&gt;Node6 -->
<g id="edge15" class="edge">
<title>Node23&#45;&gt;Node6</title>
<path fill="none" stroke="#63b8ff" d="M818.11,-181.34C807.04,-157.63 773.02,-91.02 725,-55 703.19,-38.64 674.86,-27.92 650.59,-21.12"/>
<polygon fill="#63b8ff" stroke="#63b8ff" points="651.78,-17.81 641.22,-18.64 649.99,-24.58 651.78,-17.81"/>
</g>
<!-- Node24&#45;&gt;Node23 -->
<g id="edge17" class="edge">
<title>Node24&#45;&gt;Node23</title>
<path fill="none" stroke="#63b8ff" d="M996.77,-247.1C961.5,-235.98 900.94,-216.89 861.18,-204.35"/>
<polygon fill="#63b8ff" stroke="#63b8ff" points="862.35,-201.05 851.76,-201.38 860.24,-207.73 862.35,-201.05"/>
</g>
<!-- Node28&#45;&gt;Node16 -->
<g id="edge22" class="edge">
<title>Node28&#45;&gt;Node16</title>
<path fill="none" stroke="#63b8ff" d="M619.27,-247.03C564.59,-235.56 469.87,-215.68 410.47,-203.22"/>
<polygon fill="#63b8ff" stroke="#63b8ff" points="411.43,-199.84 400.92,-201.22 409.99,-206.7 411.43,-199.84"/>
</g>
<!-- Node28&#45;&gt;Node20 -->
<g id="edge21" class="edge">
<title>Node28&#45;&gt;Node20</title>
<path fill="none" stroke="#63b8ff" d="M661.44,-247.1C660.96,-239.41 660.25,-227.92 659.59,-217.42"/>
<polygon fill="#63b8ff" stroke="#63b8ff" points="663.1,-217.51 658.98,-207.74 656.11,-217.94 663.1,-217.51"/>
</g>
<!-- Node28&#45;&gt;Node23 -->
<g id="edge23" class="edge">
<title>Node28&#45;&gt;Node23</title>
<path fill="none" stroke="#63b8ff" d="M684.25,-247.1C711.51,-236.19 757.95,-217.62 789.29,-205.09"/>
<polygon fill="#63b8ff" stroke="#63b8ff" points="790.29,-208.45 798.28,-201.49 787.69,-201.95 790.29,-208.45"/>
</g>
<!-- Node29&#45;&gt;Node3 -->
<g id="edge25" class="edge">
<title>Node29&#45;&gt;Node3</title>
<path fill="none" stroke="#63b8ff" d="M496.46,-241.72C497.17,-219.64 498.53,-177.12 499.35,-151.83"/>
<polygon fill="#63b8ff" stroke="#63b8ff" points="502.84,-152 499.67,-141.89 495.85,-151.78 502.84,-152"/>
</g>
<!-- Node29&#45;&gt;Node16 -->
<g id="edge26" class="edge">
<title>Node29&#45;&gt;Node16</title>
<path fill="none" stroke="#63b8ff" d="M464.81,-241.64C441.45,-230.88 409.7,-216.27 386.71,-205.68"/>
<polygon fill="#63b8ff" stroke="#63b8ff" points="388.44,-202.62 377.89,-201.62 385.51,-208.98 388.44,-202.62"/>
</g>
<!-- Node29&#45;&gt;Node23 -->
<g id="edge27" class="edge">
<title>Node29&#45;&gt;Node23</title>
<path fill="none" stroke="#63b8ff" d="M567.95,-241.88C627.29,-230.23 710.34,-213.92 765.12,-203.17"/>
<polygon fill="#63b8ff" stroke="#63b8ff" points="765.73,-206.61 774.87,-201.25 764.38,-199.74 765.73,-206.61"/>
</g>
<!-- Node30&#45;&gt;Node16 -->
<g id="edge32" class="edge">
<title>Node30&#45;&gt;Node16</title>
<path fill="none" stroke="#63b8ff" d="M217.53,-247.1C245.13,-236.19 292.15,-217.62 323.88,-205.09"/>
<polygon fill="#63b8ff" stroke="#63b8ff" points="324.98,-208.41 333,-201.48 322.41,-201.9 324.98,-208.41"/>
</g>
<!-- Node31 -->
<g id="node18" class="node">
<title>Node31</title>
<g id="a_node18"><a xlink:href="JAISoundHandles_8h.html" target="_top" xlink:title=" ">
<polygon fill="#fff0f0" stroke="red" points="261.5,-206 122.5,-206 122.5,-176 261.5,-176 261.5,-206"/>
<text text-anchor="start" x="130.5" y="-194" font-family="Helvetica,sans-Serif" font-size="10.00">JSystem/JAudio2/JAISound</text>
<text text-anchor="middle" x="192" y="-183" font-family="Helvetica,sans-Serif" font-size="10.00">Handles.h</text>
</a>
</g>
</g>
<!-- Node30&#45;&gt;Node31 -->
<g id="edge30" class="edge">
<title>Node30&#45;&gt;Node31</title>
<path fill="none" stroke="#63b8ff" d="M194.58,-247.1C194.22,-239.41 193.68,-227.92 193.19,-217.42"/>
<polygon fill="#63b8ff" stroke="#63b8ff" points="196.7,-217.57 192.74,-207.75 189.71,-217.9 196.7,-217.57"/>
</g>
<!-- Node31&#45;&gt;Node3 -->
<g id="edge31" class="edge">
<title>Node31&#45;&gt;Node3</title>
<path fill="none" stroke="#63b8ff" d="M261.89,-176.73C316.18,-166.41 390.58,-152.28 441.69,-142.58"/>
<polygon fill="#63b8ff" stroke="#63b8ff" points="442.21,-146.04 451.38,-140.73 440.9,-139.16 442.21,-146.04"/>
</g>
<!-- Node33&#45;&gt;Node16 -->
<g id="edge35" class="edge">
<title>Node33&#45;&gt;Node16</title>
<path fill="none" stroke="#63b8ff" d="M99.89,-247.03C153.38,-235.58 245.97,-215.77 304.22,-203.3"/>
<polygon fill="#63b8ff" stroke="#63b8ff" points="304.87,-206.74 313.91,-201.22 303.4,-199.89 304.87,-206.74"/>
</g>
<!-- Node33&#45;&gt;Node31 -->
<g id="edge34" class="edge">
<title>Node33&#45;&gt;Node31</title>
<path fill="none" stroke="#63b8ff" d="M76.63,-247.1C95.89,-237.9 126.55,-223.26 151.43,-211.38"/>
<polygon fill="#63b8ff" stroke="#63b8ff" points="152.81,-214.6 160.32,-207.13 149.79,-208.28 152.81,-214.6"/>
</g>
<!-- Node10 -->
<g id="node20" class="node">
<title>Node10</title>
<g id="a_node20"><a xlink:href="vec_8h.html" target="_top" xlink:title=" ">
<polygon fill="white" stroke="#666666" points="246,-140 154,-140 154,-121 246,-121 246,-140"/>
<text text-anchor="middle" x="200" y="-128" font-family="Helvetica,sans-Serif" font-size="10.00">dolphin/mtx/vec.h</text>
</a>
</g>
</g>
<!-- Node33&#45;&gt;Node10 -->
<g id="edge36" class="edge">
<title>Node33&#45;&gt;Node10</title>
<path fill="none" stroke="#63b8ff" d="M62.28,-247C70.3,-230.96 88.94,-197.13 113,-176 127.95,-162.87 147.47,-152.43 164.23,-144.97"/>
<polygon fill="#63b8ff" stroke="#63b8ff" points="165.53,-148.22 173.37,-141.09 162.8,-141.77 165.53,-148.22"/>
</g>
<!-- Node10&#45;&gt;Node6 -->
<g id="edge37" class="edge">
<title>Node10&#45;&gt;Node6</title>
<path fill="none" stroke="#63b8ff" d="M214.73,-120.69C241.51,-105.06 300.35,-72.49 354,-55 418.82,-33.87 496.76,-21.88 547.06,-15.8"/>
<polygon fill="#63b8ff" stroke="#63b8ff" points="547.26,-19.3 556.78,-14.66 546.44,-12.34 547.26,-19.3"/>
</g>
</g>
</svg>
