<?xml version="1.0" encoding="UTF-8" standalone="no"?>
<!DOCTYPE svg PUBLIC "-//W3C//DTD SVG 1.1//EN"
 "http://www.w3.org/Graphics/SVG/1.1/DTD/svg11.dtd">
<!-- Generated by graphviz version 7.0.5 (20221223.1930)
 -->
<!-- Title: libs/Z2AudioLib/Z2SoundObject.cpp Pages: 1 -->
<svg width="5965pt" height="599pt"
 viewBox="0.00 0.00 5965.00 599.00" xmlns="http://www.w3.org/2000/svg" xmlns:xlink="http://www.w3.org/1999/xlink">
<g id="graph0" class="graph" transform="scale(1 1) rotate(0) translate(4 595)">
<title>libs/Z2AudioLib/Z2SoundObject.cpp</title>
<!-- Node1 -->
<g id="node1" class="node">
<title>Node1</title>
<g id="a_node1"><a xlink:title=" ">
<polygon fill="#999999" stroke="#666666" points="3209.5,-591 3036.5,-591 3036.5,-572 3209.5,-572 3209.5,-591"/>
<text text-anchor="middle" x="3123" y="-579" font-family="Helvetica,sans-Serif" font-size="10.00">libs/Z2AudioLib/Z2SoundObject.cpp</text>
</a>
</g>
</g>
<!-- Node2 -->
<g id="node2" class="node">
<title>Node2</title>
<g id="a_node2"><a xlink:href="Z2SoundObject_8h.html" target="_top" xlink:title=" ">
<polygon fill="white" stroke="#666666" points="636,-525 492,-525 492,-506 636,-506 636,-525"/>
<text text-anchor="middle" x="564" y="-513" font-family="Helvetica,sans-Serif" font-size="10.00">Z2AudioLib/Z2SoundObject.h</text>
</a>
</g>
</g>
<!-- Node1&#45;&gt;Node2 -->
<g id="edge1" class="edge">
<title>Node1&#45;&gt;Node2</title>
<path fill="none" stroke="#63b8ff" d="M3036.02,-579.97C2625.56,-577.31 892.13,-564.48 652,-536 637.53,-534.28 621.95,-531.24 607.97,-528.05"/>
<polygon fill="#63b8ff" stroke="#63b8ff" points="609.17,-524.74 598.63,-525.84 607.56,-531.55 609.17,-524.74"/>
</g>
<!-- Node20 -->
<g id="node20" class="node">
<title>Node20</title>
<g id="a_node20"><a xlink:href="JASGadget_8h.html" target="_top" xlink:title=" ">
<polygon fill="white" stroke="#666666" points="746,-459 592,-459 592,-440 746,-440 746,-459"/>
<text text-anchor="middle" x="669" y="-447" font-family="Helvetica,sans-Serif" font-size="10.00">JSystem/JAudio2/JASGadget.h</text>
</a>
</g>
</g>
<!-- Node1&#45;&gt;Node20 -->
<g id="edge26" class="edge">
<title>Node1&#45;&gt;Node20</title>
<path fill="none" stroke="#63b8ff" d="M3036.23,-580.41C2607.14,-579.76 730.8,-574.73 685,-536 666.46,-520.32 664.9,-490.61 666.3,-470.68"/>
<polygon fill="#63b8ff" stroke="#63b8ff" points="669.78,-471.05 667.34,-460.74 662.82,-470.32 669.78,-471.05"/>
</g>
<!-- Node21 -->
<g id="node21" class="node">
<title>Node21</title>
<g id="a_node21"><a xlink:href="dol2asm_8h.html" target="_top" xlink:title=" ">
<polygon fill="white" stroke="#666666" points="755.5,-525 694.5,-525 694.5,-506 755.5,-506 755.5,-525"/>
<text text-anchor="middle" x="725" y="-513" font-family="Helvetica,sans-Serif" font-size="10.00">dol2asm.h</text>
</a>
</g>
</g>
<!-- Node1&#45;&gt;Node21 -->
<g id="edge28" class="edge">
<title>Node1&#45;&gt;Node21</title>
<path fill="none" stroke="#63b8ff" d="M3036.33,-579.94C2624,-577.12 876.21,-563.61 764,-536 758.9,-534.75 753.7,-532.74 748.83,-530.48"/>
<polygon fill="#63b8ff" stroke="#63b8ff" points="750.69,-527.5 740.2,-526.02 747.48,-533.72 750.69,-527.5"/>
</g>
<!-- Node22 -->
<g id="node22" class="node">
<title>Node22</title>
<g id="a_node22"><a xlink:title=" ">
<polygon fill="#e0e0e0" stroke="#999999" points="964.5,-530.5 773.5,-530.5 773.5,-500.5 964.5,-500.5 964.5,-530.5"/>
<text text-anchor="start" x="781.5" y="-518.5" font-family="Helvetica,sans-Serif" font-size="10.00">asm/Z2AudioLib/Z2SoundObject</text>
<text text-anchor="middle" x="869" y="-507.5" font-family="Helvetica,sans-Serif" font-size="10.00">/deleteObject__14Z2SoundObjBaseFv.s</text>
</a>
</g>
</g>
<!-- Node1&#45;&gt;Node22 -->
<g id="edge29" class="edge">
<title>Node1&#45;&gt;Node22</title>
<path fill="none" stroke="#63b8ff" d="M3036.18,-580.59C2686.98,-580.66 1384.09,-578.04 974,-536 965.95,-535.17 957.59,-534.06 949.26,-532.79"/>
<polygon fill="#63b8ff" stroke="#63b8ff" points="949.88,-529.34 939.45,-531.2 948.76,-536.25 949.88,-529.34"/>
</g>
<!-- Node23 -->
<g id="node23" class="node">
<title>Node23</title>
<g id="a_node23"><a xlink:title=" ">
<polygon fill="#e0e0e0" stroke="#999999" points="1153,-530.5 983,-530.5 983,-500.5 1153,-500.5 1153,-530.5"/>
<text text-anchor="start" x="991" y="-518.5" font-family="Helvetica,sans-Serif" font-size="10.00">asm/Z2AudioLib/Z2SoundObject</text>
<text text-anchor="middle" x="1068" y="-507.5" font-family="Helvetica,sans-Serif" font-size="10.00">/dispose__14Z2SoundObjBaseFv.s</text>
</a>
</g>
</g>
<!-- Node1&#45;&gt;Node23 -->
<g id="edge30" class="edge">
<title>Node1&#45;&gt;Node23</title>
<path fill="none" stroke="#63b8ff" d="M3036.02,-580.63C2706.21,-580.79 1532.8,-578.31 1162,-536 1155.1,-535.21 1147.95,-534.16 1140.83,-532.96"/>
<polygon fill="#63b8ff" stroke="#63b8ff" points="1141.63,-529.55 1131.17,-531.23 1140.4,-536.44 1141.63,-529.55"/>
</g>
<!-- Node24 -->
<g id="node24" class="node">
<title>Node24</title>
<g id="a_node24"><a xlink:title=" ">
<polygon fill="#e0e0e0" stroke="#999999" points="1383,-536 1171,-536 1171,-495 1383,-495 1383,-536"/>
<text text-anchor="start" x="1179" y="-524" font-family="Helvetica,sans-Serif" font-size="10.00">asm/Z2AudioLib/Z2SoundObject</text>
<text text-anchor="start" x="1179" y="-513" font-family="Helvetica,sans-Serif" font-size="10.00">/stopOK__14Z2SoundObjBaseFR17Z2Sound</text>
<text text-anchor="middle" x="1277" y="-502" font-family="Helvetica,sans-Serif" font-size="10.00">HandlePool.s</text>
</a>
</g>
</g>
<!-- Node1&#45;&gt;Node24 -->
<g id="edge31" class="edge">
<title>Node1&#45;&gt;Node24</title>
<path fill="none" stroke="#63b8ff" d="M3036.06,-579.88C2735.32,-577.5 1739.23,-567.47 1394.67,-536.04"/>
<polygon fill="#63b8ff" stroke="#63b8ff" points="1395.22,-532.58 1384.94,-535.13 1394.57,-539.55 1395.22,-532.58"/>
</g>
<!-- Node25 -->
<g id="node25" class="node">
<title>Node25</title>
<g id="a_node25"><a xlink:title=" ">
<polygon fill="#e0e0e0" stroke="#999999" points="1582.5,-536 1401.5,-536 1401.5,-495 1582.5,-495 1582.5,-536"/>
<text text-anchor="start" x="1409.5" y="-524" font-family="Helvetica,sans-Serif" font-size="10.00">asm/Z2AudioLib/Z2SoundObject</text>
<text text-anchor="start" x="1409.5" y="-513" font-family="Helvetica,sans-Serif" font-size="10.00">/startSound__14Z2SoundObjBaseF10</text>
<text text-anchor="middle" x="1492" y="-502" font-family="Helvetica,sans-Serif" font-size="10.00">JAISoundIDUlSc.s</text>
</a>
</g>
</g>
<!-- Node1&#45;&gt;Node25 -->
<g id="edge32" class="edge">
<title>Node1&#45;&gt;Node25</title>
<path fill="none" stroke="#63b8ff" d="M3036.22,-579.84C2759.23,-577.46 1897.21,-567.74 1594.33,-536.11"/>
<polygon fill="#63b8ff" stroke="#63b8ff" points="1594.74,-532.64 1584.43,-535.05 1593.99,-539.6 1594.74,-532.64"/>
</g>
<!-- Node26 -->
<g id="node26" class="node">
<title>Node26</title>
<g id="a_node26"><a xlink:title=" ">
<polygon fill="#e0e0e0" stroke="#999999" points="1789,-536 1601,-536 1601,-495 1789,-495 1789,-536"/>
<text text-anchor="start" x="1609" y="-524" font-family="Helvetica,sans-Serif" font-size="10.00">asm/Z2AudioLib/Z2SoundObject</text>
<text text-anchor="start" x="1609" y="-513" font-family="Helvetica,sans-Serif" font-size="10.00">/startLevelSound__14Z2SoundObjBase</text>
<text text-anchor="middle" x="1695" y="-502" font-family="Helvetica,sans-Serif" font-size="10.00">F10JAISoundIDUlSc.s</text>
</a>
</g>
</g>
<!-- Node1&#45;&gt;Node26 -->
<g id="edge33" class="edge">
<title>Node1&#45;&gt;Node26</title>
<path fill="none" stroke="#63b8ff" d="M3036.04,-579.32C2784.94,-575.65 2060.7,-563.08 1800.77,-536.18"/>
<polygon fill="#63b8ff" stroke="#63b8ff" points="1801.31,-532.72 1790.99,-535.13 1800.56,-539.68 1801.31,-532.72"/>
</g>
<!-- Node27 -->
<g id="node27" class="node">
<title>Node27</title>
<g id="a_node27"><a xlink:title=" ">
<polygon fill="#e0e0e0" stroke="#999999" points="1993,-536 1807,-536 1807,-495 1993,-495 1993,-536"/>
<text text-anchor="start" x="1815" y="-524" font-family="Helvetica,sans-Serif" font-size="10.00">asm/Z2AudioLib/Z2SoundObject</text>
<text text-anchor="start" x="1815" y="-513" font-family="Helvetica,sans-Serif" font-size="10.00">/startCollisionSE__14Z2SoundObjBase</text>
<text text-anchor="middle" x="1900" y="-502" font-family="Helvetica,sans-Serif" font-size="10.00">FUlUlP14Z2SoundObjBase.s</text>
</a>
</g>
</g>
<!-- Node1&#45;&gt;Node27 -->
<g id="edge34" class="edge">
<title>Node1&#45;&gt;Node27</title>
<path fill="none" stroke="#63b8ff" d="M3036.29,-578.73C2813.39,-573.93 2223.15,-559.47 2004.66,-536.17"/>
<polygon fill="#63b8ff" stroke="#63b8ff" points="2005.13,-532.7 1994.8,-535.08 2004.36,-539.66 2005.13,-532.7"/>
</g>
<!-- Node28 -->
<g id="node28" class="node">
<title>Node28</title>
<g id="a_node28"><a xlink:title=" ">
<polygon fill="#e0e0e0" stroke="#999999" points="2199,-530.5 2011,-530.5 2011,-500.5 2199,-500.5 2199,-530.5"/>
<text text-anchor="start" x="2019" y="-518.5" font-family="Helvetica,sans-Serif" font-size="10.00">asm/Z2AudioLib/Z2SoundObject</text>
<text text-anchor="middle" x="2105" y="-507.5" font-family="Helvetica,sans-Serif" font-size="10.00">/__ct__21Z2DopplerSoundObjBaseFv.s</text>
</a>
</g>
</g>
<!-- Node1&#45;&gt;Node28 -->
<g id="edge35" class="edge">
<title>Node1&#45;&gt;Node28</title>
<path fill="none" stroke="#63b8ff" d="M3036.25,-580.27C2873.36,-578.96 2510.85,-571.86 2208,-536 2200.65,-535.13 2193.04,-534.04 2185.44,-532.83"/>
<polygon fill="#63b8ff" stroke="#63b8ff" points="2186.26,-529.42 2175.82,-531.23 2185.11,-536.33 2186.26,-529.42"/>
</g>
<!-- Node29 -->
<g id="node29" class="node">
<title>Node29</title>
<g id="a_node29"><a xlink:title=" ">
<polygon fill="#e0e0e0" stroke="#999999" points="2405,-530.5 2217,-530.5 2217,-500.5 2405,-500.5 2405,-530.5"/>
<text text-anchor="start" x="2225" y="-518.5" font-family="Helvetica,sans-Serif" font-size="10.00">asm/Z2AudioLib/Z2SoundObject</text>
<text text-anchor="middle" x="2311" y="-507.5" font-family="Helvetica,sans-Serif" font-size="10.00">/__dt__21Z2DopplerSoundObjBaseFv.s</text>
</a>
</g>
</g>
<!-- Node1&#45;&gt;Node29 -->
<g id="edge36" class="edge">
<title>Node1&#45;&gt;Node29</title>
<path fill="none" stroke="#63b8ff" d="M3036.03,-578.46C2902.16,-574.56 2637.73,-563.77 2415,-536 2407.86,-535.11 2400.47,-534.03 2393.07,-532.85"/>
<polygon fill="#63b8ff" stroke="#63b8ff" points="2393.8,-529.43 2383.36,-531.24 2392.65,-536.33 2393.8,-529.43"/>
</g>
<!-- Node30 -->
<g id="node30" class="node">
<title>Node30</title>
<g id="a_node30"><a xlink:title=" ">
<polygon fill="#e0e0e0" stroke="#999999" points="2604.5,-536 2423.5,-536 2423.5,-495 2604.5,-495 2604.5,-536"/>
<text text-anchor="start" x="2431.5" y="-524" font-family="Helvetica,sans-Serif" font-size="10.00">asm/Z2AudioLib/Z2SoundObject</text>
<text text-anchor="start" x="2431.5" y="-513" font-family="Helvetica,sans-Serif" font-size="10.00">/init__21Z2DopplerSoundObjBaseFP3</text>
<text text-anchor="middle" x="2514" y="-502" font-family="Helvetica,sans-Serif" font-size="10.00">VecUc.s</text>
</a>
</g>
</g>
<!-- Node1&#45;&gt;Node30 -->
<g id="edge37" class="edge">
<title>Node1&#45;&gt;Node30</title>
<path fill="none" stroke="#63b8ff" d="M3036.23,-575.71C2937.04,-569.6 2769.64,-557.37 2615.99,-536.2"/>
<polygon fill="#63b8ff" stroke="#63b8ff" points="2616.84,-532.78 2606.45,-534.87 2615.87,-539.71 2616.84,-532.78"/>
</g>
<!-- Node31 -->
<g id="node31" class="node">
<title>Node31</title>
<g id="a_node31"><a xlink:title=" ">
<polygon fill="#e0e0e0" stroke="#999999" points="2819,-536 2623,-536 2623,-495 2819,-495 2819,-536"/>
<text text-anchor="start" x="2631" y="-524" font-family="Helvetica,sans-Serif" font-size="10.00">asm/Z2AudioLib/Z2SoundObject</text>
<text text-anchor="start" x="2631" y="-513" font-family="Helvetica,sans-Serif" font-size="10.00">/framework__21Z2DopplerSoundObjBase</text>
<text text-anchor="middle" x="2721" y="-502" font-family="Helvetica,sans-Serif" font-size="10.00">FUlSc.s</text>
</a>
</g>
</g>
<!-- Node1&#45;&gt;Node31 -->
<g id="edge38" class="edge">
<title>Node1&#45;&gt;Node31</title>
<path fill="none" stroke="#63b8ff" d="M3060.12,-571.51C3003.04,-563.23 2916.24,-550.34 2830.54,-536.23"/>
<polygon fill="#63b8ff" stroke="#63b8ff" points="2831.21,-532.79 2820.77,-534.61 2830.07,-539.7 2831.21,-532.79"/>
</g>
<!-- Node32 -->
<g id="node32" class="node">
<title>Node32</title>
<g id="a_node32"><a xlink:title=" ">
<polygon fill="#e0e0e0" stroke="#999999" points="3012.5,-536 2837.5,-536 2837.5,-495 3012.5,-495 3012.5,-536"/>
<text text-anchor="start" x="2845.5" y="-524" font-family="Helvetica,sans-Serif" font-size="10.00">asm/Z2AudioLib/Z2SoundObject</text>
<text text-anchor="start" x="2845.5" y="-513" font-family="Helvetica,sans-Serif" font-size="10.00">/startSound__21Z2DopplerSoundObj</text>
<text text-anchor="middle" x="2925" y="-502" font-family="Helvetica,sans-Serif" font-size="10.00">BaseF10JAISoundIDUlSc.s</text>
</a>
</g>
</g>
<!-- Node1&#45;&gt;Node32 -->
<g id="edge39" class="edge">
<title>Node1&#45;&gt;Node32</title>
<path fill="none" stroke="#63b8ff" d="M3095.47,-571.6C3070.16,-563.42 3031.5,-550.92 2997.39,-539.9"/>
<polygon fill="#63b8ff" stroke="#63b8ff" points="2998.53,-536.59 2987.94,-536.84 2996.37,-543.25 2998.53,-536.59"/>
</g>
<!-- Node33 -->
<g id="node33" class="node">
<title>Node33</title>
<g id="a_node33"><a xlink:title=" ">
<polygon fill="#e0e0e0" stroke="#999999" points="3215,-536 3031,-536 3031,-495 3215,-495 3215,-536"/>
<text text-anchor="start" x="3039" y="-524" font-family="Helvetica,sans-Serif" font-size="10.00">asm/Z2AudioLib/Z2SoundObject</text>
<text text-anchor="start" x="3039" y="-513" font-family="Helvetica,sans-Serif" font-size="10.00">/startLevelSound__21Z2DopplerSound</text>
<text text-anchor="middle" x="3123" y="-502" font-family="Helvetica,sans-Serif" font-size="10.00">ObjBaseF10JAISoundIDUlSc.s</text>
</a>
</g>
</g>
<!-- Node1&#45;&gt;Node33 -->
<g id="edge40" class="edge">
<title>Node1&#45;&gt;Node33</title>
<path fill="none" stroke="#63b8ff" d="M3123,-571.6C3123,-565.3 3123,-556.43 3123,-547.65"/>
<polygon fill="#63b8ff" stroke="#63b8ff" points="3126.5,-547.89 3123,-537.89 3119.5,-547.89 3126.5,-547.89"/>
</g>
<!-- Node34 -->
<g id="node34" class="node">
<title>Node34</title>
<g id="a_node34"><a xlink:title=" ">
<polygon fill="#e0e0e0" stroke="#999999" points="3395,-530.5 3233,-530.5 3233,-500.5 3395,-500.5 3395,-530.5"/>
<text text-anchor="start" x="3241" y="-518.5" font-family="Helvetica,sans-Serif" font-size="10.00">asm/Z2AudioLib/Z2SoundObject</text>
<text text-anchor="middle" x="3314" y="-507.5" font-family="Helvetica,sans-Serif" font-size="10.00">/__ct__16Z2SoundObjSimpleFv.s</text>
</a>
</g>
</g>
<!-- Node1&#45;&gt;Node34 -->
<g id="edge41" class="edge">
<title>Node1&#45;&gt;Node34</title>
<path fill="none" stroke="#63b8ff" d="M3149.56,-571.6C3177.98,-562.08 3223.86,-546.7 3259.94,-534.61"/>
<polygon fill="#63b8ff" stroke="#63b8ff" points="3260.99,-537.95 3269.36,-531.46 3258.76,-531.32 3260.99,-537.95"/>
</g>
<!-- Node35 -->
<g id="node35" class="node">
<title>Node35</title>
<g id="a_node35"><a xlink:title=" ">
<polygon fill="#e0e0e0" stroke="#999999" points="3601,-536 3413,-536 3413,-495 3601,-495 3601,-536"/>
<text text-anchor="start" x="3421" y="-524" font-family="Helvetica,sans-Serif" font-size="10.00">asm/Z2AudioLib/Z2SoundObject</text>
<text text-anchor="start" x="3421" y="-513" font-family="Helvetica,sans-Serif" font-size="10.00">/startSound__16Z2SoundObjSimpleF10</text>
<text text-anchor="middle" x="3507" y="-502" font-family="Helvetica,sans-Serif" font-size="10.00">JAISoundIDUlSc.s</text>
</a>
</g>
</g>
<!-- Node1&#45;&gt;Node35 -->
<g id="edge42" class="edge">
<title>Node1&#45;&gt;Node35</title>
<path fill="none" stroke="#63b8ff" d="M3183.11,-571.52C3237.62,-563.25 3320.47,-550.38 3401.78,-536.36"/>
<polygon fill="#63b8ff" stroke="#63b8ff" points="3401.97,-539.88 3411.23,-534.72 3400.78,-532.98 3401.97,-539.88"/>
</g>
<!-- Node36 -->
<g id="node36" class="node">
<title>Node36</title>
<g id="a_node36"><a xlink:title=" ">
<polygon fill="#e0e0e0" stroke="#999999" points="3815,-536 3619,-536 3619,-495 3815,-495 3815,-536"/>
<text text-anchor="start" x="3627" y="-524" font-family="Helvetica,sans-Serif" font-size="10.00">asm/Z2AudioLib/Z2SoundObject</text>
<text text-anchor="start" x="3627" y="-513" font-family="Helvetica,sans-Serif" font-size="10.00">/startLevelSound__16Z2SoundObjSimple</text>
<text text-anchor="middle" x="3717" y="-502" font-family="Helvetica,sans-Serif" font-size="10.00">F10JAISoundIDUlSc.s</text>
</a>
</g>
</g>
<!-- Node1&#45;&gt;Node36 -->
<g id="edge43" class="edge">
<title>Node1&#45;&gt;Node36</title>
<path fill="none" stroke="#63b8ff" d="M3209.92,-574.91C3305.06,-568.25 3462.33,-555.69 3607.22,-536.32"/>
<polygon fill="#63b8ff" stroke="#63b8ff" points="3607.58,-539.8 3617.02,-534.99 3606.64,-532.86 3607.58,-539.8"/>
</g>
<!-- Node37 -->
<g id="node37" class="node">
<title>Node37</title>
<g id="a_node37"><a xlink:title=" ">
<polygon fill="#e0e0e0" stroke="#999999" points="3991,-530.5 3833,-530.5 3833,-500.5 3991,-500.5 3991,-530.5"/>
<text text-anchor="start" x="3841" y="-518.5" font-family="Helvetica,sans-Serif" font-size="10.00">asm/Z2AudioLib/Z2SoundObject</text>
<text text-anchor="middle" x="3912" y="-507.5" font-family="Helvetica,sans-Serif" font-size="10.00">/__ct__15Z2SoundObjArrowFv.s</text>
</a>
</g>
</g>
<!-- Node1&#45;&gt;Node37 -->
<g id="edge44" class="edge">
<title>Node1&#45;&gt;Node37</title>
<path fill="none" stroke="#63b8ff" d="M3209.77,-579.3C3342.65,-576.49 3604.25,-567.13 3824,-536 3829.66,-535.2 3835.51,-534.23 3841.36,-533.15"/>
<polygon fill="#63b8ff" stroke="#63b8ff" points="3841.95,-536.6 3851.1,-531.26 3840.61,-529.73 3841.95,-536.6"/>
</g>
<!-- Node38 -->
<g id="node38" class="node">
<title>Node38</title>
<g id="a_node38"><a xlink:title=" ">
<polygon fill="#e0e0e0" stroke="#999999" points="4197,-530.5 4009,-530.5 4009,-500.5 4197,-500.5 4197,-530.5"/>
<text text-anchor="start" x="4017" y="-518.5" font-family="Helvetica,sans-Serif" font-size="10.00">asm/Z2AudioLib/Z2SoundObject</text>
<text text-anchor="middle" x="4103" y="-507.5" font-family="Helvetica,sans-Serif" font-size="10.00">/init__15Z2SoundObjArrowFP3VecUc.s</text>
</a>
</g>
</g>
<!-- Node1&#45;&gt;Node38 -->
<g id="edge45" class="edge">
<title>Node1&#45;&gt;Node38</title>
<path fill="none" stroke="#63b8ff" d="M3209.84,-580.01C3367.7,-578.25 3712.01,-570.41 4000,-536 4007.35,-535.12 4014.96,-534.03 4022.56,-532.82"/>
<polygon fill="#63b8ff" stroke="#63b8ff" points="4022.89,-536.31 4032.17,-531.21 4021.73,-529.41 4022.89,-536.31"/>
</g>
<!-- Node39 -->
<g id="node39" class="node">
<title>Node39</title>
<g id="a_node39"><a xlink:title=" ">
<polygon fill="#e0e0e0" stroke="#999999" points="4375,-530.5 4215,-530.5 4215,-500.5 4375,-500.5 4375,-530.5"/>
<text text-anchor="start" x="4223" y="-518.5" font-family="Helvetica,sans-Serif" font-size="10.00">asm/Z2AudioLib/Z2SoundObject</text>
<text text-anchor="middle" x="4295" y="-507.5" font-family="Helvetica,sans-Serif" font-size="10.00">/__ct__15Z2SoundObjAnimeFv.s</text>
</a>
</g>
</g>
<!-- Node1&#45;&gt;Node39 -->
<g id="edge46" class="edge">
<title>Node1&#45;&gt;Node39</title>
<path fill="none" stroke="#63b8ff" d="M3209.61,-578.89C3431.06,-574.47 4014,-560.78 4206,-536 4212.08,-535.22 4218.36,-534.22 4224.63,-533.1"/>
<polygon fill="#63b8ff" stroke="#63b8ff" points="4225.23,-536.55 4234.4,-531.24 4223.92,-529.67 4225.23,-536.55"/>
</g>
<!-- Node40 -->
<g id="node40" class="node">
<title>Node40</title>
<g id="a_node40"><a xlink:title=" ">
<polygon fill="#e0e0e0" stroke="#999999" points="4584.5,-530.5 4393.5,-530.5 4393.5,-500.5 4584.5,-500.5 4584.5,-530.5"/>
<text text-anchor="start" x="4401.5" y="-518.5" font-family="Helvetica,sans-Serif" font-size="10.00">asm/Z2AudioLib/Z2SoundObject</text>
<text text-anchor="middle" x="4489" y="-507.5" font-family="Helvetica,sans-Serif" font-size="10.00">/init__15Z2SoundObjAnimeFP3VecUc.s</text>
</a>
</g>
</g>
<!-- Node1&#45;&gt;Node40 -->
<g id="edge47" class="edge">
<title>Node1&#45;&gt;Node40</title>
<path fill="none" stroke="#63b8ff" d="M3209.68,-579.12C3455.8,-574.92 4155.77,-561.08 4384,-536 4391.77,-535.15 4399.82,-534.05 4407.86,-532.8"/>
<polygon fill="#63b8ff" stroke="#63b8ff" points="4408.38,-536.26 4417.69,-531.2 4407.25,-529.35 4408.38,-536.26"/>
</g>
<!-- Node41 -->
<g id="node41" class="node">
<title>Node41</title>
<g id="a_node41"><a xlink:title=" ">
<polygon fill="#e0e0e0" stroke="#999999" points="4801.5,-530.5 4602.5,-530.5 4602.5,-500.5 4801.5,-500.5 4801.5,-530.5"/>
<text text-anchor="start" x="4610.5" y="-518.5" font-family="Helvetica,sans-Serif" font-size="10.00">asm/Z2AudioLib/Z2SoundObject</text>
<text text-anchor="middle" x="4702" y="-507.5" font-family="Helvetica,sans-Serif" font-size="10.00">/initAnime__15Z2SoundObjAnimeFPvbff.s</text>
</a>
</g>
</g>
<!-- Node1&#45;&gt;Node41 -->
<g id="edge48" class="edge">
<title>Node1&#45;&gt;Node41</title>
<path fill="none" stroke="#63b8ff" d="M3209.7,-579.57C3482.78,-576.36 4323.06,-564.4 4594,-536 4602.23,-535.14 4610.79,-534 4619.31,-532.72"/>
<polygon fill="#63b8ff" stroke="#63b8ff" points="4619.64,-536.21 4628.97,-531.19 4618.55,-529.3 4619.64,-536.21"/>
</g>
<!-- Node42 -->
<g id="node42" class="node">
<title>Node42</title>
<g id="a_node42"><a xlink:title=" ">
<polygon fill="#e0e0e0" stroke="#999999" points="5014.5,-530.5 4819.5,-530.5 4819.5,-500.5 5014.5,-500.5 5014.5,-530.5"/>
<text text-anchor="start" x="4827.5" y="-518.5" font-family="Helvetica,sans-Serif" font-size="10.00">asm/Z2AudioLib/Z2SoundObject</text>
<text text-anchor="middle" x="4917" y="-507.5" font-family="Helvetica,sans-Serif" font-size="10.00">/ageSounds___15Z2SoundObjAnimeFv.s</text>
</a>
</g>
</g>
<!-- Node1&#45;&gt;Node42 -->
<g id="edge49" class="edge">
<title>Node1&#45;&gt;Node42</title>
<path fill="none" stroke="#63b8ff" d="M3209.91,-580C3509.17,-577.98 4495.83,-568.94 4811,-536 4819,-535.16 4827.3,-534.06 4835.57,-532.8"/>
<polygon fill="#63b8ff" stroke="#63b8ff" points="4835.99,-536.28 4845.31,-531.24 4834.88,-529.37 4835.99,-536.28"/>
</g>
<!-- Node43 -->
<g id="node43" class="node">
<title>Node43</title>
<g id="a_node43"><a xlink:title=" ">
<polygon fill="#e0e0e0" stroke="#999999" points="5231,-530.5 5033,-530.5 5033,-500.5 5231,-500.5 5231,-530.5"/>
<text text-anchor="start" x="5041" y="-518.5" font-family="Helvetica,sans-Serif" font-size="10.00">asm/Z2AudioLib/Z2SoundObject</text>
<text text-anchor="middle" x="5132" y="-507.5" font-family="Helvetica,sans-Serif" font-size="10.00">/updateAnime__15Z2SoundObjAnimeFff.s</text>
</a>
</g>
</g>
<!-- Node1&#45;&gt;Node43 -->
<g id="edge50" class="edge">
<title>Node1&#45;&gt;Node43</title>
<path fill="none" stroke="#63b8ff" d="M3209.77,-580.26C3532.72,-579.08 4664.97,-572.39 5024,-536 5032.3,-535.16 5040.93,-534.03 5049.52,-532.75"/>
<polygon fill="#63b8ff" stroke="#63b8ff" points="5049.94,-536.23 5059.27,-531.21 5048.85,-529.31 5049.94,-536.23"/>
</g>
<!-- Node44 -->
<g id="node44" class="node">
<title>Node44</title>
<g id="a_node44"><a xlink:title=" ">
<polygon fill="#e0e0e0" stroke="#999999" points="5429,-536 5249,-536 5249,-495 5429,-495 5429,-536"/>
<text text-anchor="start" x="5257" y="-524" font-family="Helvetica,sans-Serif" font-size="10.00">asm/Z2AudioLib/Z2SoundObject</text>
<text text-anchor="start" x="5257" y="-513" font-family="Helvetica,sans-Serif" font-size="10.00">/updateSoundLifeTime___15Z2Sound</text>
<text text-anchor="middle" x="5339" y="-502" font-family="Helvetica,sans-Serif" font-size="10.00">ObjAnimeFff.s</text>
</a>
</g>
</g>
<!-- Node1&#45;&gt;Node44 -->
<g id="edge51" class="edge">
<title>Node1&#45;&gt;Node44</title>
<path fill="none" stroke="#63b8ff" d="M3209.71,-580.68C3552.37,-581.1 4813.64,-579.65 5237.35,-536.15"/>
<polygon fill="#63b8ff" stroke="#63b8ff" points="5237.64,-539.64 5247.22,-535.11 5236.91,-532.68 5237.64,-539.64"/>
</g>
<!-- Node45 -->
<g id="node45" class="node">
<title>Node45</title>
<g id="a_node45"><a xlink:title=" ">
<polygon fill="#e0e0e0" stroke="#999999" points="5605,-530.5 5447,-530.5 5447,-500.5 5605,-500.5 5605,-530.5"/>
<text text-anchor="start" x="5455" y="-518.5" font-family="Helvetica,sans-Serif" font-size="10.00">asm/Z2AudioLib/Z2SoundObject</text>
<text text-anchor="middle" x="5526" y="-507.5" font-family="Helvetica,sans-Serif" font-size="10.00">/func_802BF660.s</text>
</a>
</g>
</g>
<!-- Node1&#45;&gt;Node45 -->
<g id="edge52" class="edge">
<title>Node1&#45;&gt;Node45</title>
<path fill="none" stroke="#63b8ff" d="M3209.68,-579.85C3603.42,-576.79 5214.03,-562.7 5438,-536 5444.37,-535.24 5450.96,-534.22 5457.53,-533.05"/>
<polygon fill="#63b8ff" stroke="#63b8ff" points="5457.88,-536.55 5467.04,-531.24 5456.57,-529.67 5457.88,-536.55"/>
</g>
<!-- Node46 -->
<g id="node46" class="node">
<title>Node46</title>
<g id="a_node46"><a xlink:title=" ">
<polygon fill="#e0e0e0" stroke="#999999" points="5781,-530.5 5623,-530.5 5623,-500.5 5781,-500.5 5781,-530.5"/>
<text text-anchor="start" x="5631" y="-518.5" font-family="Helvetica,sans-Serif" font-size="10.00">asm/Z2AudioLib/Z2SoundObject</text>
<text text-anchor="middle" x="5702" y="-507.5" font-family="Helvetica,sans-Serif" font-size="10.00">/func_802BF890.s</text>
</a>
</g>
</g>
<!-- Node1&#45;&gt;Node46 -->
<g id="edge53" class="edge">
<title>Node1&#45;&gt;Node46</title>
<path fill="none" stroke="#63b8ff" d="M3210,-579.98C3622.53,-577.37 5371.79,-564.71 5614,-536 5620.37,-535.24 5626.96,-534.23 5633.53,-533.06"/>
<polygon fill="#63b8ff" stroke="#63b8ff" points="5633.88,-536.56 5643.05,-531.25 5632.57,-529.68 5633.88,-536.56"/>
</g>
<!-- Node47 -->
<g id="node47" class="node">
<title>Node47</title>
<g id="a_node47"><a xlink:title=" ">
<polygon fill="#e0e0e0" stroke="#999999" points="5957,-530.5 5799,-530.5 5799,-500.5 5957,-500.5 5957,-530.5"/>
<text text-anchor="start" x="5807" y="-518.5" font-family="Helvetica,sans-Serif" font-size="10.00">asm/Z2AudioLib/Z2SoundObject</text>
<text text-anchor="middle" x="5878" y="-507.5" font-family="Helvetica,sans-Serif" font-size="10.00">/func_802BF898.s</text>
</a>
</g>
</g>
<!-- Node1&#45;&gt;Node47 -->
<g id="edge54" class="edge">
<title>Node1&#45;&gt;Node47</title>
<path fill="none" stroke="#63b8ff" d="M3210,-580.09C3640.14,-577.92 5529.44,-566.72 5790,-536 5796.37,-535.25 5802.96,-534.24 5809.53,-533.07"/>
<polygon fill="#63b8ff" stroke="#63b8ff" points="5809.88,-536.57 5819.05,-531.26 5808.57,-529.69 5809.88,-536.57"/>
</g>
<!-- Node3 -->
<g id="node3" class="node">
<title>Node3</title>
<g id="a_node3"><a xlink:href="Z2SoundHandles_8h.html" target="_top" xlink:title=" ">
<polygon fill="white" stroke="#666666" points="519,-459 367,-459 367,-440 519,-440 519,-459"/>
<text text-anchor="middle" x="443" y="-447" font-family="Helvetica,sans-Serif" font-size="10.00">Z2AudioLib/Z2SoundHandles.h</text>
</a>
</g>
</g>
<!-- Node2&#45;&gt;Node3 -->
<g id="edge2" class="edge">
<title>Node2&#45;&gt;Node3</title>
<path fill="none" stroke="#63b8ff" d="M547.18,-505.6C527.13,-495 493.38,-477.15 469.74,-464.65"/>
<polygon fill="#63b8ff" stroke="#63b8ff" points="471.5,-461.61 461.02,-460.03 468.22,-467.8 471.5,-461.61"/>
</g>
<!-- Node8 -->
<g id="node8" class="node">
<title>Node8</title>
<g id="a_node8"><a xlink:href="types_8h.html" target="_top" xlink:title=" ">
<polygon fill="white" stroke="#666666" points="509.5,-90.5 428.5,-90.5 428.5,-71.5 509.5,-71.5 509.5,-90.5"/>
<text text-anchor="middle" x="469" y="-78.5" font-family="Helvetica,sans-Serif" font-size="10.00">dolphin/types.h</text>
</a>
</g>
</g>
<!-- Node2&#45;&gt;Node8 -->
<g id="edge25" class="edge">
<title>Node2&#45;&gt;Node8</title>
<path fill="none" stroke="#63b8ff" d="M564,-505.75C564,-485.42 564,-433.45 564,-390 564,-390 564,-390 564,-201 564,-155.36 520.79,-117.16 492.66,-97.12"/>
<polygon fill="#63b8ff" stroke="#63b8ff" points="494.91,-94.42 484.68,-91.66 490.95,-100.19 494.91,-94.42"/>
</g>
<!-- Node4 -->
<g id="node4" class="node">
<title>Node4</title>
<g id="a_node4"><a xlink:href="JAISoundHandles_8h.html" target="_top" xlink:title=" ">
<polygon fill="white" stroke="#666666" points="336.5,-404 197.5,-404 197.5,-374 336.5,-374 336.5,-404"/>
<text text-anchor="start" x="205.5" y="-392" font-family="Helvetica,sans-Serif" font-size="10.00">JSystem/JAudio2/JAISound</text>
<text text-anchor="middle" x="267" y="-381" font-family="Helvetica,sans-Serif" font-size="10.00">Handles.h</text>
</a>
</g>
</g>
<!-- Node3&#45;&gt;Node4 -->
<g id="edge3" class="edge">
<title>Node3&#45;&gt;Node4</title>
<path fill="none" stroke="#63b8ff" d="M416.27,-439.62C391.15,-431.27 352.81,-418.52 321.28,-408.04"/>
<polygon fill="#63b8ff" stroke="#63b8ff" points="322.47,-404.75 311.88,-404.92 320.26,-411.39 322.47,-404.75"/>
</g>
<!-- Node3&#45;&gt;Node8 -->
<g id="edge24" class="edge">
<title>Node3&#45;&gt;Node8</title>
<path fill="none" stroke="#63b8ff" d="M462,-439.64C476.16,-432.09 494.89,-419.93 506,-404 525.61,-375.88 526,-363.78 526,-329.5 526,-329.5 526,-329.5 526,-201 526,-161.87 500.62,-121.97 483.73,-99.75"/>
<polygon fill="#63b8ff" stroke="#63b8ff" points="486.58,-97.71 477.63,-92.04 481.09,-102.06 486.58,-97.71"/>
</g>
<!-- Node19 -->
<g id="node19" class="node">
<title>Node19</title>
<g id="a_node19"><a xlink:href="JSUList_8h.html" target="_top" xlink:title=" ">
<polygon fill="white" stroke="#666666" points="497.5,-398.5 354.5,-398.5 354.5,-379.5 497.5,-379.5 497.5,-398.5"/>
<text text-anchor="middle" x="426" y="-386.5" font-family="Helvetica,sans-Serif" font-size="10.00">JSystem/JSupport/JSUList.h</text>
</a>
</g>
</g>
<!-- Node3&#45;&gt;Node19 -->
<g id="edge22" class="edge">
<title>Node3&#45;&gt;Node19</title>
<path fill="none" stroke="#63b8ff" d="M440.49,-439.87C438.18,-431.92 434.67,-419.83 431.68,-409.55"/>
<polygon fill="#63b8ff" stroke="#63b8ff" points="435.09,-408.75 428.94,-400.12 428.37,-410.7 435.09,-408.75"/>
</g>
<!-- Node5 -->
<g id="node5" class="node">
<title>Node5</title>
<g id="a_node5"><a xlink:href="JAISound_8h.html" target="_top" xlink:title=" ">
<polygon fill="white" stroke="#666666" points="296,-338 150,-338 150,-319 296,-319 296,-338"/>
<text text-anchor="middle" x="223" y="-326" font-family="Helvetica,sans-Serif" font-size="10.00">JSystem/JAudio2/JAISound.h</text>
</a>
</g>
</g>
<!-- Node4&#45;&gt;Node5 -->
<g id="edge4" class="edge">
<title>Node4&#45;&gt;Node5</title>
<path fill="none" stroke="#63b8ff" d="M256.12,-373.54C250.12,-365.56 242.63,-355.59 236.28,-347.16"/>
<polygon fill="#63b8ff" stroke="#63b8ff" points="239.24,-345.27 230.43,-339.38 233.65,-349.48 239.24,-345.27"/>
</g>
<!-- Node18 -->
<g id="node18" class="node">
<title>Node18</title>
<g id="a_node18"><a xlink:href="JUTAssert_8h.html" target="_top" xlink:title=" ">
<polygon fill="white" stroke="#666666" points="460,-338 314,-338 314,-319 460,-319 460,-338"/>
<text text-anchor="middle" x="387" y="-326" font-family="Helvetica,sans-Serif" font-size="10.00">JSystem/JUtility/JUTAssert.h</text>
</a>
</g>
</g>
<!-- Node4&#45;&gt;Node18 -->
<g id="edge20" class="edge">
<title>Node4&#45;&gt;Node18</title>
<path fill="none" stroke="#63b8ff" d="M296.66,-373.54C315.58,-364.32 339.95,-352.44 358.61,-343.34"/>
<polygon fill="#63b8ff" stroke="#63b8ff" points="360.04,-346.54 367.49,-339.01 356.97,-340.25 360.04,-346.54"/>
</g>
<!-- Node6 -->
<g id="node6" class="node">
<title>Node6</title>
<g id="a_node6"><a xlink:href="JAISoundParams_8h.html" target="_top" xlink:title=" ">
<polygon fill="white" stroke="#666666" points="409.5,-283 270.5,-283 270.5,-253 409.5,-253 409.5,-283"/>
<text text-anchor="start" x="278.5" y="-271" font-family="Helvetica,sans-Serif" font-size="10.00">JSystem/JAudio2/JAISound</text>
<text text-anchor="middle" x="340" y="-260" font-family="Helvetica,sans-Serif" font-size="10.00">Params.h</text>
</a>
</g>
</g>
<!-- Node5&#45;&gt;Node6 -->
<g id="edge5" class="edge">
<title>Node5&#45;&gt;Node6</title>
<path fill="none" stroke="#63b8ff" d="M240.77,-318.62C256.67,-310.67 280.53,-298.74 300.87,-288.57"/>
<polygon fill="#63b8ff" stroke="#63b8ff" points="302.39,-291.72 309.77,-284.12 299.26,-285.46 302.39,-291.72"/>
</g>
<!-- Node10 -->
<g id="node10" class="node">
<title>Node10</title>
<g id="a_node10"><a xlink:href="JAIAudible_8h.html" target="_top" xlink:title=" ">
<polygon fill="white" stroke="#666666" points="207.5,-277.5 56.5,-277.5 56.5,-258.5 207.5,-258.5 207.5,-277.5"/>
<text text-anchor="middle" x="132" y="-265.5" font-family="Helvetica,sans-Serif" font-size="10.00">JSystem/JAudio2/JAIAudible.h</text>
</a>
</g>
</g>
<!-- Node5&#45;&gt;Node10 -->
<g id="edge9" class="edge">
<title>Node5&#45;&gt;Node10</title>
<path fill="none" stroke="#63b8ff" d="M209.18,-318.62C194.88,-309.42 172.3,-294.91 155.25,-283.94"/>
<polygon fill="#63b8ff" stroke="#63b8ff" points="157.53,-281.25 147.22,-278.79 153.74,-287.14 157.53,-281.25"/>
</g>
<!-- Node17 -->
<g id="node17" class="node">
<title>Node17</title>
<g id="a_node17"><a xlink:href="global_8h.html" target="_top" xlink:title=" ">
<polygon fill="white" stroke="#666666" points="260,-211.5 210,-211.5 210,-192.5 260,-192.5 260,-211.5"/>
<text text-anchor="middle" x="235" y="-199.5" font-family="Helvetica,sans-Serif" font-size="10.00">global.h</text>
</a>
</g>
</g>
<!-- Node5&#45;&gt;Node17 -->
<g id="edge18" class="edge">
<title>Node5&#45;&gt;Node17</title>
<path fill="none" stroke="#63b8ff" d="M223.86,-318.55C225.77,-298.72 230.4,-250.68 233.05,-223.19"/>
<polygon fill="#63b8ff" stroke="#63b8ff" points="236.52,-223.67 234,-213.38 229.56,-223 236.52,-223.67"/>
</g>
<!-- Node7 -->
<g id="node7" class="node">
<title>Node7</title>
<g id="a_node7"><a xlink:href="JASSoundParams_8h.html" target="_top" xlink:title=" ">
<polygon fill="white" stroke="#666666" points="421.5,-217 278.5,-217 278.5,-187 421.5,-187 421.5,-217"/>
<text text-anchor="start" x="286.5" y="-205" font-family="Helvetica,sans-Serif" font-size="10.00">JSystem/JAudio2/JASSound</text>
<text text-anchor="middle" x="350" y="-194" font-family="Helvetica,sans-Serif" font-size="10.00">Params.h</text>
</a>
</g>
</g>
<!-- Node6&#45;&gt;Node7 -->
<g id="edge6" class="edge">
<title>Node6&#45;&gt;Node7</title>
<path fill="none" stroke="#63b8ff" d="M342.22,-252.8C343.35,-245.59 344.75,-236.61 346.05,-228.27"/>
<polygon fill="#63b8ff" stroke="#63b8ff" points="349.47,-229.08 347.55,-218.66 342.55,-228 349.47,-229.08"/>
</g>
<!-- Node7&#45;&gt;Node8 -->
<g id="edge7" class="edge">
<title>Node7&#45;&gt;Node8</title>
<path fill="none" stroke="#63b8ff" d="M364.12,-186.88C386.17,-164.83 428.71,-122.29 452.27,-98.73"/>
<polygon fill="#63b8ff" stroke="#63b8ff" points="454.62,-101.33 459.22,-91.78 449.67,-96.38 454.62,-101.33"/>
</g>
<!-- Node9 -->
<g id="node9" class="node">
<title>Node9</title>
<g id="a_node9"><a xlink:href="stddef_8h.html" target="_top" xlink:title=" ">
<polygon fill="white" stroke="#666666" points="537,-30 401,-30 401,0 537,0 537,-30"/>
<text text-anchor="start" x="409" y="-18" font-family="Helvetica,sans-Serif" font-size="10.00">MSL_C/MSL_Common/Src</text>
<text text-anchor="middle" x="469" y="-7" font-family="Helvetica,sans-Serif" font-size="10.00">/stddef.h</text>
</a>
</g>
</g>
<!-- Node8&#45;&gt;Node9 -->
<g id="edge8" class="edge">
<title>Node8&#45;&gt;Node9</title>
<path fill="none" stroke="#63b8ff" d="M469,-71.1C469,-63.41 469,-51.92 469,-41.42"/>
<polygon fill="#63b8ff" stroke="#63b8ff" points="472.5,-41.75 469,-31.75 465.5,-41.75 472.5,-41.75"/>
</g>
<!-- Node11 -->
<g id="node11" class="node">
<title>Node11</title>
<g id="a_node11"><a xlink:href="JGeometry_8h.html" target="_top" xlink:title=" ">
<polygon fill="white" stroke="#666666" points="190.5,-211.5 77.5,-211.5 77.5,-192.5 190.5,-192.5 190.5,-211.5"/>
<text text-anchor="middle" x="134" y="-199.5" font-family="Helvetica,sans-Serif" font-size="10.00">JSystem/JGeometry.h</text>
</a>
</g>
</g>
<!-- Node10&#45;&gt;Node11 -->
<g id="edge10" class="edge">
<title>Node10&#45;&gt;Node11</title>
<path fill="none" stroke="#63b8ff" d="M132.28,-258.1C132.56,-249.12 133,-234.95 133.37,-223.22"/>
<polygon fill="#63b8ff" stroke="#63b8ff" points="136.86,-223.44 133.68,-213.34 129.87,-223.22 136.86,-223.44"/>
</g>
<!-- Node12 -->
<g id="node12" class="node">
<title>Node12</title>
<g id="a_node12"><a xlink:href="vec_8h.html" target="_top" xlink:title=" ">
<polygon fill="white" stroke="#666666" points="319,-151 227,-151 227,-132 319,-132 319,-151"/>
<text text-anchor="middle" x="273" y="-139" font-family="Helvetica,sans-Serif" font-size="10.00">dolphin/mtx/vec.h</text>
</a>
</g>
</g>
<!-- Node11&#45;&gt;Node12 -->
<g id="edge11" class="edge">
<title>Node11&#45;&gt;Node12</title>
<path fill="none" stroke="#63b8ff" d="M155.11,-192.12C177.97,-182.49 214.7,-167.04 241.08,-155.93"/>
<polygon fill="#63b8ff" stroke="#63b8ff" points="242.44,-159.16 250.3,-152.06 239.72,-152.71 242.44,-159.16"/>
</g>
<!-- Node13 -->
<g id="node13" class="node">
<title>Node13</title>
<g id="a_node13"><a xlink:href="float_8h.html" target="_top" xlink:title=" ">
<polygon fill="white" stroke="#666666" points="178,-151 100,-151 100,-132 178,-132 178,-151"/>
<text text-anchor="middle" x="139" y="-139" font-family="Helvetica,sans-Serif" font-size="10.00">MSL_C/float.h</text>
</a>
</g>
</g>
<!-- Node11&#45;&gt;Node13 -->
<g id="edge13" class="edge">
<title>Node11&#45;&gt;Node13</title>
<path fill="none" stroke="#63b8ff" d="M134.74,-192.37C135.41,-184.5 136.43,-172.6 137.3,-162.39"/>
<polygon fill="#63b8ff" stroke="#63b8ff" points="140.77,-162.94 138.13,-152.68 133.79,-162.34 140.77,-162.94"/>
</g>
<!-- Node16 -->
<g id="node16" class="node">
<title>Node16</title>
<g id="a_node16"><a xlink:href="math_8h.html" target="_top" xlink:title=" ">
<polygon fill="white" stroke="#666666" points="82,-151 0,-151 0,-132 82,-132 82,-151"/>
<text text-anchor="middle" x="41" y="-139" font-family="Helvetica,sans-Serif" font-size="10.00">MSL_C/math.h</text>
</a>
</g>
</g>
<!-- Node11&#45;&gt;Node16 -->
<g id="edge16" class="edge">
<title>Node11&#45;&gt;Node16</title>
<path fill="none" stroke="#63b8ff" d="M119.88,-192.12C105.26,-182.92 82.18,-168.41 64.76,-157.44"/>
<polygon fill="#63b8ff" stroke="#63b8ff" points="66.87,-154.64 56.54,-152.27 63.14,-160.56 66.87,-154.64"/>
</g>
<!-- Node12&#45;&gt;Node8 -->
<g id="edge12" class="edge">
<title>Node12&#45;&gt;Node8</title>
<path fill="none" stroke="#63b8ff" d="M302.77,-131.62C336.15,-121.65 390.51,-105.43 427.93,-94.26"/>
<polygon fill="#63b8ff" stroke="#63b8ff" points="428.92,-97.62 437.5,-91.4 426.92,-90.91 428.92,-97.62"/>
</g>
<!-- Node14 -->
<g id="node14" class="node">
<title>Node14</title>
<g id="a_node14"><a xlink:href="MSL__Common_2Src_2float_8h.html" target="_top" xlink:title=" ">
<polygon fill="white" stroke="#666666" points="158,-96 22,-96 22,-66 158,-66 158,-96"/>
<text text-anchor="start" x="30" y="-84" font-family="Helvetica,sans-Serif" font-size="10.00">MSL_C/MSL_Common/Src</text>
<text text-anchor="middle" x="90" y="-73" font-family="Helvetica,sans-Serif" font-size="10.00">/float.h</text>
</a>
</g>
</g>
<!-- Node13&#45;&gt;Node14 -->
<g id="edge14" class="edge">
<title>Node13&#45;&gt;Node14</title>
<path fill="none" stroke="#63b8ff" d="M131.77,-131.87C125.8,-124.74 117.04,-114.28 109.09,-104.79"/>
<polygon fill="#63b8ff" stroke="#63b8ff" points="111.9,-102.69 102.79,-97.27 106.53,-107.19 111.9,-102.69"/>
</g>
<!-- Node15 -->
<g id="node15" class="node">
<title>Node15</title>
<g id="a_node15"><a xlink:href="fdlibm_8h.html" target="_top" xlink:title=" ">
<polygon fill="white" stroke="#666666" points="115,-24.5 65,-24.5 65,-5.5 115,-5.5 115,-24.5"/>
<text text-anchor="middle" x="90" y="-12.5" font-family="Helvetica,sans-Serif" font-size="10.00">fdlibm.h</text>
</a>
</g>
</g>
<!-- Node14&#45;&gt;Node15 -->
<g id="edge15" class="edge">
<title>Node14&#45;&gt;Node15</title>
<path fill="none" stroke="#63b8ff" d="M90,-65.8C90,-57.09 90,-45.81 90,-36.18"/>
<polygon fill="#63b8ff" stroke="#63b8ff" points="93.5,-36.36 90,-26.36 86.5,-36.36 93.5,-36.36"/>
</g>
<!-- Node16&#45;&gt;Node14 -->
<g id="edge17" class="edge">
<title>Node16&#45;&gt;Node14</title>
<path fill="none" stroke="#63b8ff" d="M48.23,-131.87C54.2,-124.74 62.96,-114.28 70.91,-104.79"/>
<polygon fill="#63b8ff" stroke="#63b8ff" points="73.47,-107.19 77.21,-97.27 68.1,-102.69 73.47,-107.19"/>
</g>
<!-- Node17&#45;&gt;Node8 -->
<g id="edge19" class="edge">
<title>Node17&#45;&gt;Node8</title>
<path fill="none" stroke="#63b8ff" d="M252.59,-192.06C293,-171.5 392.75,-120.78 441.41,-96.03"/>
<polygon fill="#63b8ff" stroke="#63b8ff" points="442.85,-99.22 450.18,-91.57 439.68,-92.99 442.85,-99.22"/>
</g>
<!-- Node18&#45;&gt;Node8 -->
<g id="edge21" class="edge">
<title>Node18&#45;&gt;Node8</title>
<path fill="none" stroke="#63b8ff" d="M394.7,-318.55C401.72,-309.96 411.9,-296.36 418,-283 446.63,-220.31 460.96,-138.99 466.37,-101.95"/>
<polygon fill="#63b8ff" stroke="#63b8ff" points="469.8,-102.68 467.71,-92.3 462.87,-101.72 469.8,-102.68"/>
</g>
<!-- Node19&#45;&gt;Node8 -->
<g id="edge23" class="edge">
<title>Node19&#45;&gt;Node8</title>
<path fill="none" stroke="#63b8ff" d="M435.97,-379C445.74,-369.66 460.39,-354.17 469,-338 483.96,-309.93 488,-300.81 488,-269 488,-269 488,-269 488,-201 488,-165.71 479.75,-125.26 474.12,-101.77"/>
<polygon fill="#63b8ff" stroke="#63b8ff" points="477.59,-101.2 471.77,-92.35 470.8,-102.9 477.59,-101.2"/>
</g>
<!-- Node20&#45;&gt;Node8 -->
<g id="edge27" class="edge">
<title>Node20&#45;&gt;Node8</title>
<path fill="none" stroke="#63b8ff" d="M664.82,-439.77C655.94,-420.41 636,-372.16 636,-329.5 636,-329.5 636,-329.5 636,-201 636,-142.25 566.61,-109.8 517.29,-94.15"/>
<polygon fill="#63b8ff" stroke="#63b8ff" points="518.51,-90.86 507.93,-91.32 516.49,-97.56 518.51,-90.86"/>
</g>
</g>
</svg>
