<?xml version="1.0" encoding="UTF-8" standalone="no"?>
<!DOCTYPE svg PUBLIC "-//W3C//DTD SVG 1.1//EN"
 "http://www.w3.org/Graphics/SVG/1.1/DTD/svg11.dtd">
<!-- Generated by graphviz version 7.0.5 (20221223.1930)
 -->
<!-- Title: include/Z2AudioLib/Z2SoundMgr.h Pages: 1 -->
<!--zoomable 544 -->
<svg id="main" version="1.1" xmlns="http://www.w3.org/2000/svg" xmlns:xlink="http://www.w3.org/1999/xlink" xml:space="preserve" onload="init(evt)">
<style type="text/css"><![CDATA[
.edge:hover path { stroke: red; }
.edge:hover polygon { stroke: red; fill: red; }
]]></style>
<script type="text/javascript"><![CDATA[
var edges = document.getElementsByTagName('g');
if (edges && edges.length) {
  for (var i=0;i<edges.length;i++) {
    if (edges[i].id.substr(0,4)=='edge') {
      edges[i].setAttribute('class','edge');
    }
  }
}
]]></script>
        <defs>
                <circle id="rim" cx="0" cy="0" r="7"/>
                <circle id="rim2" cx="0" cy="0" r="3.5"/>
                <g id="zoomPlus">
                        <use xlink:href="#rim" fill="#404040">
                                <set attributeName="fill" to="#808080" begin="zoomplus.mouseover" end="zoomplus.mouseout"/>
                        </use>
                        <path d="M-4,0h8M0,-4v8" fill="none" stroke="white" stroke-width="1.5" pointer-events="none"/>
                </g>
                <g id="zoomMin">
                        <use xlink:href="#rim" fill="#404040">
                                <set attributeName="fill" to="#808080" begin="zoomminus.mouseover" end="zoomminus.mouseout"/>
                        </use>
                        <path d="M-4,0h8" fill="none" stroke="white" stroke-width="1.5" pointer-events="none"/>
                </g>
                <g id="dirArrow">
                        <path fill="none" stroke="white" stroke-width="1.5" d="M0,-3.0v7 M-2.5,-0.5L0,-3.0L2.5,-0.5"/>
                </g>
               <g id="resetDef">
                       <use xlink:href="#rim2" fill="#404040">
                               <set attributeName="fill" to="#808080" begin="reset.mouseover" end="reset.mouseout"/>
                       </use>
               </g>
        </defs>

<script type="text/javascript">
var viewWidth = 1185;
var viewHeight = 544;
var sectionId = 'dynsection-0';
</script>
<script xlink:href="svgpan.js"/>
<svg id="graph" class="graph">
<g id="viewport">
<title>include/Z2AudioLib/Z2SoundMgr.h</title>
<!-- Node1 -->
<g id="node1" class="node">
<title>Node1</title>
<g id="a_node1"><a xlink:title=" ">
<polygon fill="#999999" stroke="#666666" points="397,-536 297,-536 297,-506 397,-506 397,-536"/>
<text text-anchor="start" x="305" y="-524" font-family="Helvetica,sans-Serif" font-size="10.00">include/Z2AudioLib</text>
<text text-anchor="middle" x="347" y="-513" font-family="Helvetica,sans-Serif" font-size="10.00">/Z2SoundMgr.h</text>
</a>
</g>
</g>
<!-- Node2 -->
<g id="node2" class="node">
<title>Node2</title>
<g id="a_node2"><a xlink:href="JAISeMgr_8h.html" target="_top" xlink:title=" ">
<polygon fill="white" stroke="#666666" points="471.5,-470 324.5,-470 324.5,-451 471.5,-451 471.5,-470"/>
<text text-anchor="middle" x="398" y="-458" font-family="Helvetica,sans-Serif" font-size="10.00">JSystem/JAudio2/JAISeMgr.h</text>
</a>
</g>
</g>
<!-- Node1&#45;&gt;Node2 -->
<g id="edge1" class="edge">
<title>Node1&#45;&gt;Node2</title>
<path fill="none" stroke="#63b8ff" d="M359.61,-505.54C366.71,-497.39 375.63,-487.16 383.08,-478.61"/>
<polygon fill="#63b8ff" stroke="#63b8ff" points="385.51,-481.15 389.44,-471.32 380.23,-476.55 385.51,-481.15"/>
</g>
<!-- Node5 -->
<g id="node5" class="node">
<title>Node5</title>
<g id="a_node5"><a xlink:href="JAISound_8h.html" target="_top" xlink:title=" ">
<polygon fill="white" stroke="#666666" points="324,-283 178,-283 178,-264 324,-264 324,-283"/>
<text text-anchor="middle" x="251" y="-271" font-family="Helvetica,sans-Serif" font-size="10.00">JSystem/JAudio2/JAISound.h</text>
</a>
</g>
</g>
<!-- Node1&#45;&gt;Node5 -->
<g id="edge49" class="edge">
<title>Node1&#45;&gt;Node5</title>
<path fill="none" stroke="#63b8ff" d="M307.68,-505.57C270.77,-489.67 217.79,-460.18 194,-415 185.37,-398.62 192.65,-335.25 201,-319 206.89,-307.53 217.08,-297.64 226.72,-290.11"/>
<polygon fill="#63b8ff" stroke="#63b8ff" points="228.72,-292.99 234.78,-284.3 224.62,-287.31 228.72,-292.99"/>
</g>
<!-- Node16 -->
<g id="node16" class="node">
<title>Node16</title>
<g id="a_node16"><a xlink:href="global_8h.html" target="_top" xlink:title=" ">
<polygon fill="white" stroke="#666666" points="63,-222.5 13,-222.5 13,-203.5 63,-203.5 63,-222.5"/>
<text text-anchor="middle" x="38" y="-210.5" font-family="Helvetica,sans-Serif" font-size="10.00">global.h</text>
</a>
</g>
</g>
<!-- Node1&#45;&gt;Node16 -->
<g id="edge55" class="edge">
<title>Node1&#45;&gt;Node16</title>
<path fill="none" stroke="#63b8ff" d="M296.54,-513.42C200.3,-499.45 0,-462.94 0,-401 0,-401 0,-401 0,-333 0,-296.27 16.64,-256.05 27.89,-233.03"/>
<polygon fill="#63b8ff" stroke="#63b8ff" points="30.93,-234.79 32.35,-224.29 24.69,-231.62 30.93,-234.79"/>
</g>
<!-- Node18 -->
<g id="node18" class="node">
<title>Node18</title>
<g id="a_node18"><a xlink:href="JASGadget_8h.html" target="_top" xlink:title=" ">
<polygon fill="white" stroke="#666666" points="735,-283 581,-283 581,-264 735,-264 735,-283"/>
<text text-anchor="middle" x="658" y="-271" font-family="Helvetica,sans-Serif" font-size="10.00">JSystem/JAudio2/JASGadget.h</text>
</a>
</g>
</g>
<!-- Node1&#45;&gt;Node18 -->
<g id="edge54" class="edge">
<title>Node1&#45;&gt;Node18</title>
<path fill="none" stroke="#63b8ff" d="M397.25,-520.26C543.93,-519.89 966.8,-510.41 1057,-415 1086.37,-383.93 1091.53,-350.84 1063,-319 1042.29,-295.89 859.69,-283.55 746.86,-278.08"/>
<polygon fill="#63b8ff" stroke="#63b8ff" points="747.16,-274.59 737,-277.61 746.83,-281.58 747.16,-274.59"/>
</g>
<!-- Node25 -->
<g id="node25" class="node">
<title>Node25</title>
<g id="a_node25"><a xlink:href="JAISeqMgr_8h.html" target="_top" xlink:title=" ">
<polygon fill="white" stroke="#666666" points="370,-409.5 218,-409.5 218,-390.5 370,-390.5 370,-409.5"/>
<text text-anchor="middle" x="294" y="-397.5" font-family="Helvetica,sans-Serif" font-size="10.00">JSystem/JAudio2/JAISeqMgr.h</text>
</a>
</g>
</g>
<!-- Node1&#45;&gt;Node25 -->
<g id="edge43" class="edge">
<title>Node1&#45;&gt;Node25</title>
<path fill="none" stroke="#63b8ff" d="M336.78,-505.66C330.2,-495.94 321.81,-482.62 316,-470 308.59,-453.93 302.68,-434.67 298.86,-420.59"/>
<polygon fill="#63b8ff" stroke="#63b8ff" points="302.33,-420.02 296.43,-411.22 295.55,-421.78 302.33,-420.02"/>
</g>
<!-- Node26 -->
<g id="node26" class="node">
<title>Node26</title>
<g id="a_node26"><a xlink:href="JAIStreamMgr_8h.html" target="_top" xlink:title=" ">
<polygon fill="white" stroke="#666666" points="823.5,-415 680.5,-415 680.5,-385 823.5,-385 823.5,-415"/>
<text text-anchor="start" x="688.5" y="-403" font-family="Helvetica,sans-Serif" font-size="10.00">JSystem/JAudio2/JAIStream</text>
<text text-anchor="middle" x="752" y="-392" font-family="Helvetica,sans-Serif" font-size="10.00">Mgr.h</text>
</a>
</g>
</g>
<!-- Node1&#45;&gt;Node26 -->
<g id="edge50" class="edge">
<title>Node1&#45;&gt;Node26</title>
<path fill="none" stroke="#63b8ff" d="M396.26,-505.53C470.65,-483.67 611.5,-442.28 691.85,-418.67"/>
<polygon fill="#63b8ff" stroke="#63b8ff" points="692.71,-422.07 701.32,-415.89 690.74,-415.35 692.71,-422.07"/>
</g>
<!-- Node3 -->
<g id="node3" class="node">
<title>Node3</title>
<g id="a_node3"><a xlink:href="JAISe_8h.html" target="_top" xlink:title=" ">
<polygon fill="white" stroke="#666666" points="557.5,-409.5 426.5,-409.5 426.5,-390.5 557.5,-390.5 557.5,-409.5"/>
<text text-anchor="middle" x="492" y="-397.5" font-family="Helvetica,sans-Serif" font-size="10.00">JSystem/JAudio2/JAISe.h</text>
</a>
</g>
</g>
<!-- Node2&#45;&gt;Node3 -->
<g id="edge2" class="edge">
<title>Node2&#45;&gt;Node3</title>
<path fill="none" stroke="#63b8ff" d="M412.28,-450.62C427.05,-441.42 450.37,-426.91 467.99,-415.94"/>
<polygon fill="#63b8ff" stroke="#63b8ff" points="469.66,-419.02 476.3,-410.77 465.96,-413.08 469.66,-419.02"/>
</g>
<!-- Node4 -->
<g id="node4" class="node">
<title>Node4</title>
<g id="a_node4"><a xlink:href="JAISeqDataMgr_8h.html" target="_top" xlink:title=" ">
<polygon fill="white" stroke="#666666" points="443.5,-349 294.5,-349 294.5,-319 443.5,-319 443.5,-349"/>
<text text-anchor="start" x="302.5" y="-337" font-family="Helvetica,sans-Serif" font-size="10.00">JSystem/JAudio2/JAISeqData</text>
<text text-anchor="middle" x="369" y="-326" font-family="Helvetica,sans-Serif" font-size="10.00">Mgr.h</text>
</a>
</g>
</g>
<!-- Node2&#45;&gt;Node4 -->
<g id="edge29" class="edge">
<title>Node2&#45;&gt;Node4</title>
<path fill="none" stroke="#63b8ff" d="M395.91,-450.55C391.57,-431.91 381.43,-388.36 374.91,-360.37"/>
<polygon fill="#63b8ff" stroke="#63b8ff" points="378.39,-359.86 372.71,-350.92 371.57,-361.45 378.39,-359.86"/>
</g>
<!-- Node2&#45;&gt;Node5 -->
<g id="edge30" class="edge">
<title>Node2&#45;&gt;Node5</title>
<path fill="none" stroke="#63b8ff" d="M324.01,-451.51C277.43,-444.78 223.47,-433.27 209,-415 179.73,-378.04 214.78,-321.04 236.41,-292.33"/>
<polygon fill="#63b8ff" stroke="#63b8ff" points="239.04,-294.65 242.44,-284.62 233.52,-290.34 239.04,-294.65"/>
</g>
<!-- Node6 -->
<g id="node6" class="node">
<title>Node6</title>
<g id="a_node6"><a xlink:href="JAISoundParams_8h.html" target="_top" xlink:title=" ">
<polygon fill="white" stroke="#666666" points="220.5,-228 81.5,-228 81.5,-198 220.5,-198 220.5,-228"/>
<text text-anchor="start" x="89.5" y="-216" font-family="Helvetica,sans-Serif" font-size="10.00">JSystem/JAudio2/JAISound</text>
<text text-anchor="middle" x="151" y="-205" font-family="Helvetica,sans-Serif" font-size="10.00">Params.h</text>
</a>
</g>
</g>
<!-- Node2&#45;&gt;Node6 -->
<g id="edge31" class="edge">
<title>Node2&#45;&gt;Node6</title>
<path fill="none" stroke="#63b8ff" d="M324.07,-451.43C273.66,-444.46 212.76,-432.69 194,-415 145.33,-369.09 144.88,-282.61 148.13,-239.62"/>
<polygon fill="#63b8ff" stroke="#63b8ff" points="151.61,-240.02 149.02,-229.74 144.64,-239.39 151.61,-240.02"/>
</g>
<!-- Node2&#45;&gt;Node16 -->
<g id="edge42" class="edge">
<title>Node2&#45;&gt;Node16</title>
<path fill="none" stroke="#63b8ff" d="M324.21,-451.56C266.91,-444.25 193.11,-431.96 168,-415 99.96,-369.05 59.51,-274.32 44.59,-233.46"/>
<polygon fill="#63b8ff" stroke="#63b8ff" points="47.9,-232.32 41.28,-224.05 41.3,-234.64 47.9,-232.32"/>
</g>
<!-- Node2&#45;&gt;Node18 -->
<g id="edge32" class="edge">
<title>Node2&#45;&gt;Node18</title>
<path fill="none" stroke="#63b8ff" d="M471.97,-456.32C543.97,-448.69 649.05,-424.4 695,-349 706.56,-330.03 690.87,-306.96 676.51,-291.57"/>
<polygon fill="#63b8ff" stroke="#63b8ff" points="679.03,-289.15 669.49,-284.55 674.08,-294.1 679.03,-289.15"/>
</g>
<!-- Node19 -->
<g id="node19" class="node">
<title>Node19</title>
<g id="a_node19"><a xlink:href="JSUList_8h.html" target="_top" xlink:title=" ">
<polygon fill="white" stroke="#666666" points="923.5,-343.5 780.5,-343.5 780.5,-324.5 923.5,-324.5 923.5,-343.5"/>
<text text-anchor="middle" x="852" y="-331.5" font-family="Helvetica,sans-Serif" font-size="10.00">JSystem/JSupport/JSUList.h</text>
</a>
</g>
</g>
<!-- Node2&#45;&gt;Node19 -->
<g id="edge41" class="edge">
<title>Node2&#45;&gt;Node19</title>
<path fill="none" stroke="#63b8ff" d="M471.83,-456.56C588.85,-451.22 806.46,-438.27 833,-415 849.75,-400.31 853.14,-373.8 853.23,-355.34"/>
<polygon fill="#63b8ff" stroke="#63b8ff" points="856.73,-355.25 852.93,-345.36 849.74,-355.47 856.73,-355.25"/>
</g>
<!-- Node20 -->
<g id="node20" class="node">
<title>Node20</title>
<g id="a_node20"><a xlink:href="JASHeapCtrl_8h.html" target="_top" xlink:title=" ">
<polygon fill="white" stroke="#666666" points="1047.5,-409.5 886.5,-409.5 886.5,-390.5 1047.5,-390.5 1047.5,-409.5"/>
<text text-anchor="middle" x="967" y="-397.5" font-family="Helvetica,sans-Serif" font-size="10.00">JSystem/JAudio2/JASHeapCtrl.h</text>
</a>
</g>
</g>
<!-- Node2&#45;&gt;Node20 -->
<g id="edge33" class="edge">
<title>Node2&#45;&gt;Node20</title>
<path fill="none" stroke="#63b8ff" d="M471.87,-453.46C564.18,-445.69 726.97,-431.24 866,-415 875.06,-413.94 884.57,-412.74 893.98,-411.5"/>
<polygon fill="#63b8ff" stroke="#63b8ff" points="894.42,-414.97 903.86,-410.17 893.49,-408.04 894.42,-414.97"/>
</g>
<!-- Node3&#45;&gt;Node4 -->
<g id="edge3" class="edge">
<title>Node3&#45;&gt;Node4</title>
<path fill="none" stroke="#63b8ff" d="M474.9,-390.1C457.38,-380.99 429.58,-366.52 406.85,-354.7"/>
<polygon fill="#63b8ff" stroke="#63b8ff" points="408.65,-351.69 398.17,-350.18 405.42,-357.9 408.65,-351.69"/>
</g>
<!-- Node3&#45;&gt;Node5 -->
<g id="edge23" class="edge">
<title>Node3&#45;&gt;Node5</title>
<path fill="none" stroke="#63b8ff" d="M490.33,-390.2C486.7,-373.55 476.43,-337.45 453,-319 434.26,-304.24 380.57,-292.82 333.25,-285.24"/>
<polygon fill="#63b8ff" stroke="#63b8ff" points="333.93,-281.8 323.51,-283.73 332.85,-288.72 333.93,-281.8"/>
</g>
<!-- Node17 -->
<g id="node17" class="node">
<title>Node17</title>
<g id="a_node17"><a xlink:href="JASTrack_8h.html" target="_top" xlink:title=" ">
<polygon fill="white" stroke="#666666" points="685.5,-343.5 538.5,-343.5 538.5,-324.5 685.5,-324.5 685.5,-343.5"/>
<text text-anchor="middle" x="612" y="-331.5" font-family="Helvetica,sans-Serif" font-size="10.00">JSystem/JAudio2/JASTrack.h</text>
</a>
</g>
</g>
<!-- Node3&#45;&gt;Node17 -->
<g id="edge24" class="edge">
<title>Node3&#45;&gt;Node17</title>
<path fill="none" stroke="#63b8ff" d="M508.69,-390.1C528.57,-379.5 562.03,-361.65 585.48,-349.15"/>
<polygon fill="#63b8ff" stroke="#63b8ff" points="586.94,-352.33 594.12,-344.54 583.65,-346.15 586.94,-352.33"/>
</g>
<!-- Node3&#45;&gt;Node19 -->
<g id="edge27" class="edge">
<title>Node3&#45;&gt;Node19</title>
<path fill="none" stroke="#63b8ff" d="M542.44,-390.03C607.42,-378.48 720.32,-358.41 790.34,-345.96"/>
<polygon fill="#63b8ff" stroke="#63b8ff" points="790.89,-349.42 800.13,-344.22 789.67,-342.53 790.89,-349.42"/>
</g>
<!-- Node4&#45;&gt;Node5 -->
<g id="edge4" class="edge">
<title>Node4&#45;&gt;Node5</title>
<path fill="none" stroke="#63b8ff" d="M339.83,-318.54C321.23,-309.32 297.27,-297.44 278.92,-288.34"/>
<polygon fill="#63b8ff" stroke="#63b8ff" points="280.71,-285.32 270.2,-284.02 277.6,-291.6 280.71,-285.32"/>
</g>
<!-- Node8 -->
<g id="node8" class="node">
<title>Node8</title>
<g id="a_node8"><a xlink:href="types_8h.html" target="_top" xlink:title=" ">
<polygon fill="white" stroke="#666666" points="486.5,-90.5 405.5,-90.5 405.5,-71.5 486.5,-71.5 486.5,-90.5"/>
<text text-anchor="middle" x="446" y="-78.5" font-family="Helvetica,sans-Serif" font-size="10.00">dolphin/types.h</text>
</a>
</g>
</g>
<!-- Node4&#45;&gt;Node8 -->
<g id="edge22" class="edge">
<title>Node4&#45;&gt;Node8</title>
<path fill="none" stroke="#63b8ff" d="M367.25,-318.63C363.75,-284.24 358.74,-195.35 391,-132 398.09,-118.07 410.78,-106.14 422.18,-97.42"/>
<polygon fill="#63b8ff" stroke="#63b8ff" points="423.99,-100.43 430.08,-91.77 419.91,-94.74 423.99,-100.43"/>
</g>
<!-- Node5&#45;&gt;Node6 -->
<g id="edge5" class="edge">
<title>Node5&#45;&gt;Node6</title>
<path fill="none" stroke="#63b8ff" d="M235.81,-263.62C222.48,-255.81 202.58,-244.17 185.41,-234.13"/>
<polygon fill="#63b8ff" stroke="#63b8ff" points="187.39,-231.23 176.99,-229.2 183.85,-237.27 187.39,-231.23"/>
</g>
<!-- Node5&#45;&gt;Node8 -->
<g id="edge19" class="edge">
<title>Node5&#45;&gt;Node8</title>
<path fill="none" stroke="#63b8ff" d="M256.01,-263.62C269.75,-239.85 310.21,-173.77 358,-132 375.06,-117.09 397.27,-104.51 415.1,-95.7"/>
<polygon fill="#63b8ff" stroke="#63b8ff" points="416.41,-98.95 423.93,-91.49 413.39,-92.64 416.41,-98.95"/>
</g>
<!-- Node10 -->
<g id="node10" class="node">
<title>Node10</title>
<g id="a_node10"><a xlink:href="JGeometry_8h.html" target="_top" xlink:title=" ">
<polygon fill="white" stroke="#666666" points="529.5,-222.5 416.5,-222.5 416.5,-203.5 529.5,-203.5 529.5,-222.5"/>
<text text-anchor="middle" x="473" y="-210.5" font-family="Helvetica,sans-Serif" font-size="10.00">JSystem/JGeometry.h</text>
</a>
</g>
</g>
<!-- Node5&#45;&gt;Node10 -->
<g id="edge10" class="edge">
<title>Node5&#45;&gt;Node10</title>
<path fill="none" stroke="#63b8ff" d="M284.72,-263.62C322.94,-253.54 385.43,-237.08 427.84,-225.9"/>
<polygon fill="#63b8ff" stroke="#63b8ff" points="428.72,-229.29 437.5,-223.35 426.94,-222.52 428.72,-229.29"/>
</g>
<!-- Node5&#45;&gt;Node16 -->
<g id="edge20" class="edge">
<title>Node5&#45;&gt;Node16</title>
<path fill="none" stroke="#63b8ff" d="M207.45,-263.55C170.89,-255.6 117.49,-242.93 72,-228 71.02,-227.68 70.02,-227.34 69.02,-226.99"/>
<polygon fill="#63b8ff" stroke="#63b8ff" points="70.32,-223.74 59.73,-223.47 67.84,-230.29 70.32,-223.74"/>
</g>
<!-- Node7 -->
<g id="node7" class="node">
<title>Node7</title>
<g id="a_node7"><a xlink:href="JASSoundParams_8h.html" target="_top" xlink:title=" ">
<polygon fill="white" stroke="#666666" points="305.5,-162 162.5,-162 162.5,-132 305.5,-132 305.5,-162"/>
<text text-anchor="start" x="170.5" y="-150" font-family="Helvetica,sans-Serif" font-size="10.00">JSystem/JAudio2/JASSound</text>
<text text-anchor="middle" x="234" y="-139" font-family="Helvetica,sans-Serif" font-size="10.00">Params.h</text>
</a>
</g>
</g>
<!-- Node6&#45;&gt;Node7 -->
<g id="edge6" class="edge">
<title>Node6&#45;&gt;Node7</title>
<path fill="none" stroke="#63b8ff" d="M169.42,-197.8C180.3,-189.4 194.3,-178.62 206.47,-169.23"/>
<polygon fill="#63b8ff" stroke="#63b8ff" points="208.36,-172.19 214.15,-163.31 204.09,-166.64 208.36,-172.19"/>
</g>
<!-- Node6&#45;&gt;Node8 -->
<g id="edge9" class="edge">
<title>Node6&#45;&gt;Node8</title>
<path fill="none" stroke="#63b8ff" d="M146.45,-197.65C141.83,-179.97 137.36,-150.07 153,-132 183.67,-96.56 318.37,-86.24 394,-83.23"/>
<polygon fill="#63b8ff" stroke="#63b8ff" points="393.78,-86.74 403.65,-82.88 393.53,-79.75 393.78,-86.74"/>
</g>
<!-- Node7&#45;&gt;Node8 -->
<g id="edge7" class="edge">
<title>Node7&#45;&gt;Node8</title>
<path fill="none" stroke="#63b8ff" d="M281.84,-131.56C319.09,-120.31 370.21,-104.88 405.46,-94.24"/>
<polygon fill="#63b8ff" stroke="#63b8ff" points="406.3,-97.64 414.86,-91.4 404.28,-90.94 406.3,-97.64"/>
</g>
<!-- Node9 -->
<g id="node9" class="node">
<title>Node9</title>
<g id="a_node9"><a xlink:href="stddef_8h.html" target="_top" xlink:title=" ">
<polygon fill="white" stroke="#666666" points="514,-30 378,-30 378,0 514,0 514,-30"/>
<text text-anchor="start" x="386" y="-18" font-family="Helvetica,sans-Serif" font-size="10.00">MSL_C/MSL_Common/Src</text>
<text text-anchor="middle" x="446" y="-7" font-family="Helvetica,sans-Serif" font-size="10.00">/stddef.h</text>
</a>
</g>
</g>
<!-- Node8&#45;&gt;Node9 -->
<g id="edge8" class="edge">
<title>Node8&#45;&gt;Node9</title>
<path fill="none" stroke="#63b8ff" d="M446,-71.1C446,-63.41 446,-51.92 446,-41.42"/>
<polygon fill="#63b8ff" stroke="#63b8ff" points="449.5,-41.75 446,-31.75 442.5,-41.75 449.5,-41.75"/>
</g>
<!-- Node10&#45;&gt;Node8 -->
<g id="edge13" class="edge">
<title>Node10&#45;&gt;Node8</title>
<path fill="none" stroke="#63b8ff" d="M480.25,-203.42C491.84,-188.58 512.19,-157.3 501,-132 494.72,-117.8 482.19,-105.91 470.68,-97.28"/>
<polygon fill="#63b8ff" stroke="#63b8ff" points="472.86,-94.53 462.65,-91.7 468.86,-100.28 472.86,-94.53"/>
</g>
<!-- Node11 -->
<g id="node11" class="node">
<title>Node11</title>
<g id="a_node11"><a xlink:href="vec_8h.html" target="_top" xlink:title=" ">
<polygon fill="white" stroke="#666666" points="492,-156.5 400,-156.5 400,-137.5 492,-137.5 492,-156.5"/>
<text text-anchor="middle" x="446" y="-144.5" font-family="Helvetica,sans-Serif" font-size="10.00">dolphin/mtx/vec.h</text>
</a>
</g>
</g>
<!-- Node10&#45;&gt;Node11 -->
<g id="edge11" class="edge">
<title>Node10&#45;&gt;Node11</title>
<path fill="none" stroke="#63b8ff" d="M469.25,-203.1C465.34,-193.84 459.09,-179.04 454.06,-167.11"/>
<polygon fill="#63b8ff" stroke="#63b8ff" points="457.42,-166.07 450.31,-158.22 450.97,-168.79 457.42,-166.07"/>
</g>
<!-- Node12 -->
<g id="node12" class="node">
<title>Node12</title>
<g id="a_node12"><a xlink:href="float_8h.html" target="_top" xlink:title=" ">
<polygon fill="white" stroke="#666666" points="764,-156.5 686,-156.5 686,-137.5 764,-137.5 764,-156.5"/>
<text text-anchor="middle" x="725" y="-144.5" font-family="Helvetica,sans-Serif" font-size="10.00">MSL_C/float.h</text>
</a>
</g>
</g>
<!-- Node10&#45;&gt;Node12 -->
<g id="edge14" class="edge">
<title>Node10&#45;&gt;Node12</title>
<path fill="none" stroke="#63b8ff" d="M511.86,-203.01C553,-193.36 619.77,-177.35 677,-162 679.38,-161.36 681.83,-160.69 684.3,-160"/>
<polygon fill="#63b8ff" stroke="#63b8ff" points="684.98,-163.45 693.64,-157.35 683.07,-156.72 684.98,-163.45"/>
</g>
<!-- Node15 -->
<g id="node15" class="node">
<title>Node15</title>
<g id="a_node15"><a xlink:href="math_8h.html" target="_top" xlink:title=" ">
<polygon fill="white" stroke="#666666" points="668,-156.5 586,-156.5 586,-137.5 668,-137.5 668,-156.5"/>
<text text-anchor="middle" x="627" y="-144.5" font-family="Helvetica,sans-Serif" font-size="10.00">MSL_C/math.h</text>
</a>
</g>
</g>
<!-- Node10&#45;&gt;Node15 -->
<g id="edge17" class="edge">
<title>Node10&#45;&gt;Node15</title>
<path fill="none" stroke="#63b8ff" d="M494.41,-203.1C520.62,-192.21 565.21,-173.68 595.37,-161.14"/>
<polygon fill="#63b8ff" stroke="#63b8ff" points="596.48,-164.47 604.37,-157.4 593.79,-158.01 596.48,-164.47"/>
</g>
<!-- Node11&#45;&gt;Node8 -->
<g id="edge12" class="edge">
<title>Node11&#45;&gt;Node8</title>
<path fill="none" stroke="#63b8ff" d="M446,-137.1C446,-128.12 446,-113.95 446,-102.22"/>
<polygon fill="#63b8ff" stroke="#63b8ff" points="449.5,-102.34 446,-92.34 442.5,-102.34 449.5,-102.34"/>
</g>
<!-- Node13 -->
<g id="node13" class="node">
<title>Node13</title>
<g id="a_node13"><a xlink:href="MSL__Common_2Src_2float_8h.html" target="_top" xlink:title=" ">
<polygon fill="white" stroke="#666666" points="744,-96 608,-96 608,-66 744,-66 744,-96"/>
<text text-anchor="start" x="616" y="-84" font-family="Helvetica,sans-Serif" font-size="10.00">MSL_C/MSL_Common/Src</text>
<text text-anchor="middle" x="676" y="-73" font-family="Helvetica,sans-Serif" font-size="10.00">/float.h</text>
</a>
</g>
</g>
<!-- Node12&#45;&gt;Node13 -->
<g id="edge15" class="edge">
<title>Node12&#45;&gt;Node13</title>
<path fill="none" stroke="#63b8ff" d="M718.19,-137.1C711.86,-128.84 702.16,-116.17 693.66,-105.06"/>
<polygon fill="#63b8ff" stroke="#63b8ff" points="696.68,-103.25 687.82,-97.44 691.12,-107.5 696.68,-103.25"/>
</g>
<!-- Node14 -->
<g id="node14" class="node">
<title>Node14</title>
<g id="a_node14"><a xlink:href="fdlibm_8h.html" target="_top" xlink:title=" ">
<polygon fill="white" stroke="#666666" points="701,-24.5 651,-24.5 651,-5.5 701,-5.5 701,-24.5"/>
<text text-anchor="middle" x="676" y="-12.5" font-family="Helvetica,sans-Serif" font-size="10.00">fdlibm.h</text>
</a>
</g>
</g>
<!-- Node13&#45;&gt;Node14 -->
<g id="edge16" class="edge">
<title>Node13&#45;&gt;Node14</title>
<path fill="none" stroke="#63b8ff" d="M676,-65.8C676,-57.09 676,-45.81 676,-36.18"/>
<polygon fill="#63b8ff" stroke="#63b8ff" points="679.5,-36.36 676,-26.36 672.5,-36.36 679.5,-36.36"/>
</g>
<!-- Node15&#45;&gt;Node13 -->
<g id="edge18" class="edge">
<title>Node15&#45;&gt;Node13</title>
<path fill="none" stroke="#63b8ff" d="M633.81,-137.1C640.14,-128.84 649.84,-116.17 658.34,-105.06"/>
<polygon fill="#63b8ff" stroke="#63b8ff" points="660.88,-107.5 664.18,-97.44 655.32,-103.25 660.88,-107.5"/>
</g>
<!-- Node16&#45;&gt;Node8 -->
<g id="edge21" class="edge">
<title>Node16&#45;&gt;Node8</title>
<path fill="none" stroke="#63b8ff" d="M46.16,-203.02C62.15,-186.05 99.5,-149.43 139,-132 223.06,-94.9 331.01,-85.03 393.95,-82.58"/>
<polygon fill="#63b8ff" stroke="#63b8ff" points="393.77,-86.09 403.65,-82.25 393.54,-79.09 393.77,-86.09"/>
</g>
<!-- Node17&#45;&gt;Node18 -->
<g id="edge25" class="edge">
<title>Node17&#45;&gt;Node18</title>
<path fill="none" stroke="#63b8ff" d="M618.79,-324.37C625.45,-315.9 635.79,-302.74 644.19,-292.07"/>
<polygon fill="#63b8ff" stroke="#63b8ff" points="646.82,-294.38 650.25,-284.36 641.32,-290.05 646.82,-294.38"/>
</g>
<!-- Node18&#45;&gt;Node8 -->
<g id="edge26" class="edge">
<title>Node18&#45;&gt;Node8</title>
<path fill="none" stroke="#63b8ff" d="M650.12,-263.78C629.29,-240.96 570.63,-178.03 516,-132 501.11,-119.46 483.24,-106.72 469.27,-97.24"/>
<polygon fill="#63b8ff" stroke="#63b8ff" points="471.41,-94.46 461.16,-91.81 467.52,-100.28 471.41,-94.46"/>
</g>
<!-- Node19&#45;&gt;Node8 -->
<g id="edge28" class="edge">
<title>Node19&#45;&gt;Node8</title>
<path fill="none" stroke="#63b8ff" d="M849.79,-324.21C840.73,-288.87 805.37,-157.86 773,-132 751.88,-115.13 584.92,-96.02 498.09,-87.1"/>
<polygon fill="#63b8ff" stroke="#63b8ff" points="498.7,-83.65 488.4,-86.12 497.99,-90.61 498.7,-83.65"/>
</g>
<!-- Node20&#45;&gt;Node19 -->
<g id="edge34" class="edge">
<title>Node20&#45;&gt;Node19</title>
<path fill="none" stroke="#63b8ff" d="M951.01,-390.1C932.04,-379.55 900.17,-361.81 877.72,-349.32"/>
<polygon fill="#63b8ff" stroke="#63b8ff" points="879.62,-346.36 869.18,-344.56 876.21,-352.48 879.62,-346.36"/>
</g>
<!-- Node21 -->
<g id="node21" class="node">
<title>Node21</title>
<g id="a_node21"><a xlink:href="OSInterrupt_8h.html" target="_top" xlink:title=" ">
<polygon fill="white" stroke="#666666" points="1177,-283 1055,-283 1055,-264 1177,-264 1177,-283"/>
<text text-anchor="middle" x="1116" y="-271" font-family="Helvetica,sans-Serif" font-size="10.00">dolphin/os/OSInterrupt.h</text>
</a>
</g>
</g>
<!-- Node20&#45;&gt;Node21 -->
<g id="edge35" class="edge">
<title>Node20&#45;&gt;Node21</title>
<path fill="none" stroke="#63b8ff" d="M991.4,-390.07C1012.04,-381.68 1041.6,-367.63 1063,-349 1081.29,-333.08 1096.62,-309.63 1106.01,-293.31"/>
<polygon fill="#63b8ff" stroke="#63b8ff" points="1109.03,-295.1 1110.8,-284.65 1102.9,-291.71 1109.03,-295.1"/>
</g>
<!-- Node22 -->
<g id="node22" class="node">
<title>Node22</title>
<g id="a_node22"><a xlink:href="OSMutex_8h.html" target="_top" xlink:title=" ">
<polygon fill="white" stroke="#666666" points="1054,-343.5 942,-343.5 942,-324.5 1054,-324.5 1054,-343.5"/>
<text text-anchor="middle" x="998" y="-331.5" font-family="Helvetica,sans-Serif" font-size="10.00">dolphin/os/OSMutex.h</text>
</a>
</g>
</g>
<!-- Node20&#45;&gt;Node22 -->
<g id="edge37" class="edge">
<title>Node20&#45;&gt;Node22</title>
<path fill="none" stroke="#63b8ff" d="M971.31,-390.1C975.8,-380.84 982.97,-366.04 988.75,-354.11"/>
<polygon fill="#63b8ff" stroke="#63b8ff" points="991.86,-355.71 993.07,-345.19 985.56,-352.66 991.86,-355.71"/>
</g>
<!-- Node21&#45;&gt;Node8 -->
<g id="edge36" class="edge">
<title>Node21&#45;&gt;Node8</title>
<path fill="none" stroke="#63b8ff" d="M1103.08,-263.53C1065.64,-238.04 953.04,-164.87 848,-132 815.28,-121.76 599.19,-98.11 498.05,-87.42"/>
<polygon fill="#63b8ff" stroke="#63b8ff" points="498.7,-83.97 488.39,-86.4 497.96,-90.93 498.7,-83.97"/>
</g>
<!-- Node23 -->
<g id="node23" class="node">
<title>Node23</title>
<g id="a_node23"><a xlink:href="OSThread_8h.html" target="_top" xlink:title=" ">
<polygon fill="white" stroke="#666666" points="984,-283 868,-283 868,-264 984,-264 984,-283"/>
<text text-anchor="middle" x="926" y="-271" font-family="Helvetica,sans-Serif" font-size="10.00">dolphin/os/OSThread.h</text>
</a>
</g>
</g>
<!-- Node22&#45;&gt;Node23 -->
<g id="edge38" class="edge">
<title>Node22&#45;&gt;Node23</title>
<path fill="none" stroke="#63b8ff" d="M987.06,-324.12C976.18,-315.27 959.21,-301.48 945.92,-290.69"/>
<polygon fill="#63b8ff" stroke="#63b8ff" points="948.18,-288.01 938.21,-284.42 943.77,-293.45 948.18,-288.01"/>
</g>
<!-- Node24 -->
<g id="node24" class="node">
<title>Node24</title>
<g id="a_node24"><a xlink:href="OSContext_8h.html" target="_top" xlink:title=" ">
<polygon fill="white" stroke="#666666" points="959.5,-222.5 840.5,-222.5 840.5,-203.5 959.5,-203.5 959.5,-222.5"/>
<text text-anchor="middle" x="900" y="-210.5" font-family="Helvetica,sans-Serif" font-size="10.00">dolphin/os/OSContext.h</text>
</a>
</g>
</g>
<!-- Node23&#45;&gt;Node24 -->
<g id="edge39" class="edge">
<title>Node23&#45;&gt;Node24</title>
<path fill="none" stroke="#63b8ff" d="M922.16,-263.87C918.55,-255.75 913.03,-243.31 908.39,-232.89"/>
<polygon fill="#63b8ff" stroke="#63b8ff" points="911.73,-231.77 904.47,-224.05 905.33,-234.61 911.73,-231.77"/>
</g>
<!-- Node24&#45;&gt;Node8 -->
<g id="edge40" class="edge">
<title>Node24&#45;&gt;Node8</title>
<path fill="none" stroke="#63b8ff" d="M893.5,-203.18C880.41,-186.15 849.02,-148.94 813,-132 785.07,-118.87 592.61,-97.31 498.12,-87.35"/>
<polygon fill="#63b8ff" stroke="#63b8ff" points="498.64,-83.89 488.33,-86.33 497.91,-90.85 498.64,-83.89"/>
</g>
<!-- Node25&#45;&gt;Node4 -->
<g id="edge44" class="edge">
<title>Node25&#45;&gt;Node4</title>
<path fill="none" stroke="#63b8ff" d="M304.43,-390.1C314.53,-381.48 330.25,-368.07 343.65,-356.63"/>
<polygon fill="#63b8ff" stroke="#63b8ff" points="345.55,-359.61 350.88,-350.46 341,-354.29 345.55,-359.61"/>
</g>
<!-- Node25&#45;&gt;Node5 -->
<g id="edge45" class="edge">
<title>Node25&#45;&gt;Node5</title>
<path fill="none" stroke="#63b8ff" d="M282.99,-390.01C272.78,-380.9 258.24,-365.79 252,-349 245.45,-331.38 246.01,-309.76 247.72,-294.36"/>
<polygon fill="#63b8ff" stroke="#63b8ff" points="251.17,-294.99 249.09,-284.61 244.24,-294.02 251.17,-294.99"/>
</g>
<!-- Node25&#45;&gt;Node6 -->
<g id="edge46" class="edge">
<title>Node25&#45;&gt;Node6</title>
<path fill="none" stroke="#63b8ff" d="M279.94,-390.02C253.9,-372.64 198.17,-331.79 169,-283 161.09,-269.77 156.61,-253.08 154.11,-239.44"/>
<polygon fill="#63b8ff" stroke="#63b8ff" points="157.61,-239.22 152.61,-229.88 150.7,-240.3 157.61,-239.22"/>
</g>
<!-- Node25&#45;&gt;Node18 -->
<g id="edge47" class="edge">
<title>Node25&#45;&gt;Node18</title>
<path fill="none" stroke="#63b8ff" d="M289.29,-390C281.47,-373.66 268.3,-338.94 286,-319 304.52,-298.13 465.3,-285.25 569.34,-279.02"/>
<polygon fill="#63b8ff" stroke="#63b8ff" points="569.5,-282.52 579.28,-278.44 569.09,-275.53 569.5,-282.52"/>
</g>
<!-- Node25&#45;&gt;Node19 -->
<g id="edge48" class="edge">
<title>Node25&#45;&gt;Node19</title>
<path fill="none" stroke="#63b8ff" d="M370.42,-390.24C474.77,-378.27 661.17,-356.89 768.9,-344.53"/>
<polygon fill="#63b8ff" stroke="#63b8ff" points="769,-348.04 778.53,-343.43 768.2,-341.09 769,-348.04"/>
</g>
<!-- Node26&#45;&gt;Node5 -->
<g id="edge51" class="edge">
<title>Node26&#45;&gt;Node5</title>
<path fill="none" stroke="#63b8ff" d="M680.14,-388.48C635.86,-380.63 578.48,-367.94 530,-349 505.15,-339.29 502.99,-328.36 478,-319 432.42,-301.93 379.12,-291.04 335.62,-284.32"/>
<polygon fill="#63b8ff" stroke="#63b8ff" points="336.4,-280.9 326,-282.88 335.37,-287.82 336.4,-280.9"/>
</g>
<!-- Node26&#45;&gt;Node18 -->
<g id="edge52" class="edge">
<title>Node26&#45;&gt;Node18</title>
<path fill="none" stroke="#63b8ff" d="M750.73,-384.64C748.58,-367.48 742.88,-338.65 728,-319 718.16,-306.01 703.35,-295.81 689.87,-288.47"/>
<polygon fill="#63b8ff" stroke="#63b8ff" points="691.79,-285.51 681.29,-284.1 688.61,-291.75 691.79,-285.51"/>
</g>
<!-- Node26&#45;&gt;Node19 -->
<g id="edge53" class="edge">
<title>Node26&#45;&gt;Node19</title>
<path fill="none" stroke="#63b8ff" d="M774.19,-384.8C790.39,-374.43 812.31,-360.4 828.75,-349.88"/>
<polygon fill="#63b8ff" stroke="#63b8ff" points="830.37,-353 836.91,-344.66 826.6,-347.1 830.37,-353"/>
</g>
</g>
</svg>
        <g id="navigator" transform="translate(0 0)" fill="#404254">
                <rect fill="#f2f5e9" fill-opacity="0.5" stroke="#606060" stroke-width=".5" x="0" y="0" width="60" height="60"/>
                <use id="zoomplus" xlink:href="#zoomPlus" x="17" y="9" onmousedown="handleZoom(evt,'in')"/>
                <use id="zoomminus" xlink:href="#zoomMin" x="42" y="9" onmousedown="handleZoom(evt,'out')"/>
                <use id="reset" xlink:href="#resetDef" x="30" y="36" onmousedown="handleReset()"/>
                <g id="arrowUp" xlink:href="#dirArrow" transform="translate(30 24)" onmousedown="handlePan(0,-1)">
                  <use xlink:href="#rim" fill="#404040">
                        <set attributeName="fill" to="#808080" begin="arrowUp.mouseover" end="arrowUp.mouseout"/>
                  </use>
                  <path fill="none" stroke="white" stroke-width="1.5" d="M0,-3.0v7 M-2.5,-0.5L0,-3.0L2.5,-0.5"/>
                </g>
                <g id="arrowRight" xlink:href="#dirArrow" transform="rotate(90) translate(36 -43)" onmousedown="handlePan(1,0)">
                  <use xlink:href="#rim" fill="#404040">
                        <set attributeName="fill" to="#808080" begin="arrowRight.mouseover" end="arrowRight.mouseout"/>
                  </use>
                  <path fill="none" stroke="white" stroke-width="1.5" d="M0,-3.0v7 M-2.5,-0.5L0,-3.0L2.5,-0.5"/>
                </g>
                <g id="arrowDown" xlink:href="#dirArrow" transform="rotate(180) translate(-30 -48)" onmousedown="handlePan(0,1)">
                  <use xlink:href="#rim" fill="#404040">
                        <set attributeName="fill" to="#808080" begin="arrowDown.mouseover" end="arrowDown.mouseout"/>
                  </use>
                  <path fill="none" stroke="white" stroke-width="1.5" d="M0,-3.0v7 M-2.5,-0.5L0,-3.0L2.5,-0.5"/>
                </g>
                <g id="arrowLeft" xlink:href="#dirArrow" transform="rotate(270) translate(-36 17)" onmousedown="handlePan(-1,0)">
                  <use xlink:href="#rim" fill="#404040">
                        <set attributeName="fill" to="#808080" begin="arrowLeft.mouseover" end="arrowLeft.mouseout"/>
                  </use>
                  <path fill="none" stroke="white" stroke-width="1.5" d="M0,-3.0v7 M-2.5,-0.5L0,-3.0L2.5,-0.5"/>
                </g>
        </g>
        <svg viewBox="0 0 15 15" width="100%" height="30px" preserveAspectRatio="xMaxYMin meet">
         <g id="arrow_out" transform="scale(0.3 0.3)">
          <a xlink:href="Z2SoundMgr_8h__incl_org.svg" target="_base">
           <rect id="button" ry="5" rx="5" y="6" x="6" height="38" width="38"
                fill="#f2f5e9" fill-opacity="0.5" stroke="#606060" stroke-width="1.0"/>
           <path id="arrow"
             d="M 11.500037,31.436501 C 11.940474,20.09759 22.043105,11.32322 32.158766,21.979434 L 37.068811,17.246167 C 37.068811,17.246167 37.088388,32 37.088388,32 L 22.160133,31.978069 C 22.160133,31.978069 26.997745,27.140456 26.997745,27.140456 C 18.528582,18.264221 13.291696,25.230495 11.500037,31.436501 z"
             style="fill:#404040;"/>
          </a>
         </g>
        </svg>
</svg>
