<?xml version="1.0" encoding="UTF-8" standalone="no"?>
<!DOCTYPE svg PUBLIC "-//W3C//DTD SVG 1.1//EN"
 "http://www.w3.org/Graphics/SVG/1.1/DTD/svg11.dtd">
<!-- Generated by graphviz version 7.0.5 (20221223.1930)
 -->
<!-- Title: include/Z2AudioLib/Z2SoundHandles.h Pages: 1 -->
<!--zoomable 368 -->
<svg id="main" version="1.1" xmlns="http://www.w3.org/2000/svg" xmlns:xlink="http://www.w3.org/1999/xlink" xml:space="preserve" onload="init(evt)">
<style type="text/css"><![CDATA[
.edge:hover path { stroke: red; }
.edge:hover polygon { stroke: red; fill: red; }
]]></style>
<script type="text/javascript"><![CDATA[
var edges = document.getElementsByTagName('g');
if (edges && edges.length) {
  for (var i=0;i<edges.length;i++) {
    if (edges[i].id.substr(0,4)=='edge') {
      edges[i].setAttribute('class','edge');
    }
  }
}
]]></script>
        <defs>
                <circle id="rim" cx="0" cy="0" r="7"/>
                <circle id="rim2" cx="0" cy="0" r="3.5"/>
                <g id="zoomPlus">
                        <use xlink:href="#rim" fill="#404040">
                                <set attributeName="fill" to="#808080" begin="zoomplus.mouseover" end="zoomplus.mouseout"/>
                        </use>
                        <path d="M-4,0h8M0,-4v8" fill="none" stroke="white" stroke-width="1.5" pointer-events="none"/>
                </g>
                <g id="zoomMin">
                        <use xlink:href="#rim" fill="#404040">
                                <set attributeName="fill" to="#808080" begin="zoomminus.mouseover" end="zoomminus.mouseout"/>
                        </use>
                        <path d="M-4,0h8" fill="none" stroke="white" stroke-width="1.5" pointer-events="none"/>
                </g>
                <g id="dirArrow">
                        <path fill="none" stroke="white" stroke-width="1.5" d="M0,-3.0v7 M-2.5,-0.5L0,-3.0L2.5,-0.5"/>
                </g>
               <g id="resetDef">
                       <use xlink:href="#rim2" fill="#404040">
                               <set attributeName="fill" to="#808080" begin="reset.mouseover" end="reset.mouseout"/>
                       </use>
               </g>
        </defs>

<script type="text/javascript">
var viewWidth = 4101;
var viewHeight = 368;
var sectionId = 'dynsection-1';
</script>
<script xlink:href="svgpan.js"/>
<svg id="graph" class="graph">
<g id="viewport">
<title>include/Z2AudioLib/Z2SoundHandles.h</title>
<!-- Node1 -->
<g id="node1" class="node">
<title>Node1</title>
<g id="a_node1"><a xlink:title=" ">
<polygon fill="#999999" stroke="#666666" points="3406,-360 3304,-360 3304,-330 3406,-330 3406,-360"/>
<text text-anchor="start" x="3312" y="-348" font-family="Helvetica,sans-Serif" font-size="10.00">include/Z2AudioLib</text>
<text text-anchor="middle" x="3355" y="-337" font-family="Helvetica,sans-Serif" font-size="10.00">/Z2SoundHandles.h</text>
</a>
</g>
</g>
<!-- Node2 -->
<g id="node2" class="node">
<title>Node2</title>
<g id="a_node2"><a xlink:href="Z2SoundObject_8h.html" target="_top" xlink:title=" ">
<polygon fill="white" stroke="#666666" points="3326,-294 3226,-294 3226,-264 3326,-264 3326,-294"/>
<text text-anchor="start" x="3234" y="-282" font-family="Helvetica,sans-Serif" font-size="10.00">include/Z2AudioLib</text>
<text text-anchor="middle" x="3276" y="-271" font-family="Helvetica,sans-Serif" font-size="10.00">/Z2SoundObject.h</text>
</a>
</g>
</g>
<!-- Node1&#45;&gt;Node2 -->
<g id="edge1" class="edge">
<title>Node1&#45;&gt;Node2</title>
<path fill="none" stroke="#63b8ff" d="M3328.71,-322.7C3317.22,-313.4 3304.06,-302.73 3293.76,-294.39"/>
<polygon fill="#63b8ff" stroke="#63b8ff" points="3326.32,-325.27 3336.29,-328.84 3330.72,-319.83 3326.32,-325.27"/>
</g>
<!-- Node344 -->
<g id="node50" class="node">
<title>Node344</title>
<g id="a_node50"><a xlink:href="Z2SoundHandles_8cpp.html" target="_top" xlink:title=" ">
<polygon fill="white" stroke="#666666" points="3524,-288.5 3344,-288.5 3344,-269.5 3524,-269.5 3524,-288.5"/>
<text text-anchor="middle" x="3434" y="-276.5" font-family="Helvetica,sans-Serif" font-size="10.00">libs/Z2AudioLib/Z2SoundHandles.cpp</text>
</a>
</g>
</g>
<!-- Node1&#45;&gt;Node344 -->
<g id="edge54" class="edge">
<title>Node1&#45;&gt;Node344</title>
<path fill="none" stroke="#63b8ff" d="M3381.41,-322.6C3395.62,-311.1 3412.37,-297.52 3423.08,-288.84"/>
<polygon fill="#63b8ff" stroke="#63b8ff" points="3379.28,-319.83 3373.71,-328.84 3383.68,-325.27 3379.28,-319.83"/>
</g>
<!-- Node3 -->
<g id="node3" class="node">
<title>Node3</title>
<g id="a_node3"><a xlink:href="Z2Creature_8h.html" target="_top" xlink:title=" ">
<polygon fill="white" stroke="#666666" points="3326,-228 3226,-228 3226,-198 3326,-198 3326,-228"/>
<text text-anchor="start" x="3234" y="-216" font-family="Helvetica,sans-Serif" font-size="10.00">include/Z2AudioLib</text>
<text text-anchor="middle" x="3276" y="-205" font-family="Helvetica,sans-Serif" font-size="10.00">/Z2Creature.h</text>
</a>
</g>
</g>
<!-- Node2&#45;&gt;Node3 -->
<g id="edge2" class="edge">
<title>Node2&#45;&gt;Node3</title>
<path fill="none" stroke="#63b8ff" d="M3276,-252.39C3276,-244.13 3276,-235.28 3276,-228.16"/>
<polygon fill="#63b8ff" stroke="#63b8ff" points="3272.5,-252.28 3276,-262.28 3279.5,-252.28 3272.5,-252.28"/>
</g>
<!-- Node37 -->
<g id="node31" class="node">
<title>Node37</title>
<g id="a_node31"><a xlink:href="m__Do__ext_8h.html" target="_top" xlink:title=" ">
<polygon fill="white" stroke="#666666" points="1375,-222.5 1245,-222.5 1245,-203.5 1375,-203.5 1375,-222.5"/>
<text text-anchor="middle" x="1310" y="-210.5" font-family="Helvetica,sans-Serif" font-size="10.00">include/m_Do/m_Do_ext.h</text>
</a>
</g>
</g>
<!-- Node2&#45;&gt;Node37 -->
<g id="edge33" class="edge">
<title>Node2&#45;&gt;Node37</title>
<path fill="none" stroke="#63b8ff" d="M3214.75,-276.01C2922.99,-266.51 1675.96,-225.91 1375.38,-216.13"/>
<polygon fill="#63b8ff" stroke="#63b8ff" points="3214.3,-279.49 3224.41,-276.32 3214.53,-272.5 3214.3,-279.49"/>
</g>
<!-- Node343 -->
<g id="node49" class="node">
<title>Node343</title>
<g id="a_node49"><a xlink:href="Z2SoundObject_8cpp.html" target="_top" xlink:title=" ">
<polygon fill="white" stroke="#666666" points="3517.5,-222.5 3344.5,-222.5 3344.5,-203.5 3517.5,-203.5 3517.5,-222.5"/>
<text text-anchor="middle" x="3431" y="-210.5" font-family="Helvetica,sans-Serif" font-size="10.00">libs/Z2AudioLib/Z2SoundObject.cpp</text>
</a>
</g>
</g>
<!-- Node2&#45;&gt;Node343 -->
<g id="edge53" class="edge">
<title>Node2&#45;&gt;Node343</title>
<path fill="none" stroke="#63b8ff" d="M3321.1,-259.38C3350.09,-247.41 3386.48,-232.38 3409.24,-222.99"/>
<polygon fill="#63b8ff" stroke="#63b8ff" points="3320.09,-256.01 3312.18,-263.06 3322.76,-262.48 3320.09,-256.01"/>
</g>
<!-- Node4 -->
<g id="node4" class="node">
<title>Node4</title>
<g id="a_node4"><a xlink:href="d__a__alink_8h.html" target="_top" xlink:title=" ">
<polygon fill="white" stroke="#666666" points="3080,-90.5 2964,-90.5 2964,-71.5 3080,-71.5 3080,-90.5"/>
<text text-anchor="middle" x="3022" y="-78.5" font-family="Helvetica,sans-Serif" font-size="10.00">include/d/a/d_a_alink.h</text>
</a>
</g>
</g>
<!-- Node3&#45;&gt;Node4 -->
<g id="edge3" class="edge">
<title>Node3&#45;&gt;Node4</title>
<path fill="none" stroke="#63b8ff" d="M3337.28,-197.21C3369.64,-188.03 3404.57,-175.45 3414,-162 3421.66,-151.08 3422.81,-142.01 3414,-132 3392.32,-107.38 3184.25,-91.64 3080.39,-85.25"/>
<polygon fill="#63b8ff" stroke="#63b8ff" points="3336.62,-193.76 3327.91,-199.79 3338.48,-200.51 3336.62,-193.76"/>
</g>
<!-- Node13 -->
<g id="node13" class="node">
<title>Node13</title>
<g id="a_node13"><a xlink:href="d__a__npc_8h.html" target="_top" xlink:title=" ">
<polygon fill="white" stroke="#666666" points="3691.5,-156.5 3580.5,-156.5 3580.5,-137.5 3691.5,-137.5 3691.5,-156.5"/>
<text text-anchor="middle" x="3636" y="-144.5" font-family="Helvetica,sans-Serif" font-size="10.00">include/d/a/d_a_npc.h</text>
</a>
</g>
</g>
<!-- Node3&#45;&gt;Node13 -->
<g id="edge12" class="edge">
<title>Node3&#45;&gt;Node13</title>
<path fill="none" stroke="#63b8ff" d="M3337.41,-197.84C3442.1,-178.13 3471.14,-180.7 3572,-162 3580.05,-160.51 3588.64,-158.75 3596.82,-156.99"/>
<polygon fill="#63b8ff" stroke="#63b8ff" points="3337.01,-194.35 3327.84,-199.67 3338.32,-201.23 3337.01,-194.35"/>
</g>
<!-- Node19 -->
<g id="node18" class="node">
<title>Node19</title>
<g id="a_node18"><a xlink:href="d__a__b__ob_8h.html" target="_top" xlink:title=" ">
<polygon fill="white" stroke="#666666" points="3816,-162 3710,-162 3710,-132 3816,-132 3816,-162"/>
<text text-anchor="start" x="3718" y="-150" font-family="Helvetica,sans-Serif" font-size="10.00">include/rel/d/a/b/d</text>
<text text-anchor="middle" x="3763" y="-139" font-family="Helvetica,sans-Serif" font-size="10.00">_a_b_ob/d_a_b_ob.h</text>
</a>
</g>
</g>
<!-- Node3&#45;&gt;Node19 -->
<g id="edge18" class="edge">
<title>Node3&#45;&gt;Node19</title>
<path fill="none" stroke="#63b8ff" d="M3337.62,-197.91C3498.83,-172.15 3543.69,-187.42 3701,-162 3703.83,-161.54 3706.73,-161.03 3709.65,-160.49"/>
<polygon fill="#63b8ff" stroke="#63b8ff" points="3337.12,-194.45 3327.81,-199.51 3338.25,-201.36 3337.12,-194.45"/>
</g>
<!-- Node21 -->
<g id="node20" class="node">
<title>Node21</title>
<g id="a_node20"><a xlink:href="d__a__cstaF_8h.html" target="_top" xlink:title=" ">
<polygon fill="white" stroke="#666666" points="3937.5,-162 3834.5,-162 3834.5,-132 3937.5,-132 3937.5,-162"/>
<text text-anchor="start" x="3842.5" y="-150" font-family="Helvetica,sans-Serif" font-size="10.00">include/rel/d/a/d_a</text>
<text text-anchor="middle" x="3886" y="-139" font-family="Helvetica,sans-Serif" font-size="10.00">_cstaF/d_a_cstaF.h</text>
</a>
</g>
</g>
<!-- Node3&#45;&gt;Node21 -->
<g id="edge20" class="edge">
<title>Node3&#45;&gt;Node21</title>
<path fill="none" stroke="#63b8ff" d="M3337.38,-198C3553.4,-166.1 3613.09,-193.93 3825,-162 3828.01,-161.55 3831.09,-161.03 3834.19,-160.46"/>
<polygon fill="#63b8ff" stroke="#63b8ff" points="3337.17,-194.49 3327.8,-199.44 3338.21,-201.41 3337.17,-194.49"/>
</g>
<!-- Node22 -->
<g id="node21" class="node">
<title>Node22</title>
<g id="a_node21"><a xlink:href="d__a__cstatue_8h.html" target="_top" xlink:title=" ">
<polygon fill="white" stroke="#666666" points="4074,-162 3956,-162 3956,-132 4074,-132 4074,-162"/>
<text text-anchor="start" x="3964" y="-150" font-family="Helvetica,sans-Serif" font-size="10.00">include/rel/d/a/d_a</text>
<text text-anchor="middle" x="4015" y="-139" font-family="Helvetica,sans-Serif" font-size="10.00">_cstatue/d_a_cstatue.h</text>
</a>
</g>
</g>
<!-- Node3&#45;&gt;Node22 -->
<g id="edge21" class="edge">
<title>Node3&#45;&gt;Node22</title>
<path fill="none" stroke="#63b8ff" d="M3337.62,-197.99C3607.22,-159.99 3680.99,-197.03 3947,-162 3949.87,-161.62 3952.8,-161.19 3955.75,-160.72"/>
<polygon fill="#63b8ff" stroke="#63b8ff" points="3337.2,-194.51 3327.79,-199.39 3338.19,-201.44 3337.2,-194.51"/>
</g>
<!-- Node23 -->
<g id="node22" class="node">
<title>Node23</title>
<g id="a_node22"><a xlink:href="d__a__horse_8h.html" target="_top" xlink:title=" ">
<polygon fill="#fff0f0" stroke="red" points="3562.5,-162 3461.5,-162 3461.5,-132 3562.5,-132 3562.5,-162"/>
<text text-anchor="start" x="3469.5" y="-150" font-family="Helvetica,sans-Serif" font-size="10.00">include/rel/d/a/d_a</text>
<text text-anchor="middle" x="3512" y="-139" font-family="Helvetica,sans-Serif" font-size="10.00">_horse/d_a_horse.h</text>
</a>
</g>
</g>
<!-- Node3&#45;&gt;Node23 -->
<g id="edge22" class="edge">
<title>Node3&#45;&gt;Node23</title>
<path fill="none" stroke="#63b8ff" d="M3337.42,-195.34C3375.95,-184.89 3425.03,-171.58 3461.33,-161.74"/>
<polygon fill="#63b8ff" stroke="#63b8ff" points="3336.53,-191.96 3327.8,-197.95 3338.37,-198.71 3336.53,-191.96"/>
</g>
<!-- Node29 -->
<g id="node24" class="node">
<title>Node29</title>
<g id="a_node24"><a xlink:href="d__a__e__yk_8h.html" target="_top" xlink:title=" ">
<polygon fill="white" stroke="#666666" points="2645,-162 2541,-162 2541,-132 2645,-132 2645,-162"/>
<text text-anchor="start" x="2549" y="-150" font-family="Helvetica,sans-Serif" font-size="10.00">include/rel/d/a/e/d</text>
<text text-anchor="middle" x="2593" y="-139" font-family="Helvetica,sans-Serif" font-size="10.00">_a_e_yk/d_a_e_yk.h</text>
</a>
</g>
</g>
<!-- Node3&#45;&gt;Node29 -->
<g id="edge26" class="edge">
<title>Node3&#45;&gt;Node29</title>
<path fill="none" stroke="#63b8ff" d="M3214.33,-210.01C3102.2,-205.74 2857.72,-193.4 2654,-162 2651.21,-161.57 2648.35,-161.08 2645.48,-160.55"/>
<polygon fill="#63b8ff" stroke="#63b8ff" points="3214.09,-213.51 3224.21,-210.38 3214.35,-206.51 3214.09,-213.51"/>
</g>
<!-- Node30 -->
<g id="node25" class="node">
<title>Node30</title>
<g id="a_node25"><a xlink:href="d__a__e__ym_8h.html" target="_top" xlink:title=" ">
<polygon fill="#fff0f0" stroke="red" points="2773,-162 2663,-162 2663,-132 2773,-132 2773,-162"/>
<text text-anchor="start" x="2671" y="-150" font-family="Helvetica,sans-Serif" font-size="10.00">include/rel/d/a/e/d</text>
<text text-anchor="middle" x="2718" y="-139" font-family="Helvetica,sans-Serif" font-size="10.00">_a_e_ym/d_a_e_ym.h</text>
</a>
</g>
</g>
<!-- Node3&#45;&gt;Node30 -->
<g id="edge27" class="edge">
<title>Node3&#45;&gt;Node30</title>
<path fill="none" stroke="#63b8ff" d="M3214.5,-207.97C3120.93,-201.34 2937.38,-186.38 2783,-162 2779.81,-161.5 2776.54,-160.93 2773.24,-160.33"/>
<polygon fill="#63b8ff" stroke="#63b8ff" points="3214,-211.44 3224.22,-208.65 3214.49,-204.46 3214,-211.44"/>
</g>
<!-- Node32 -->
<g id="node26" class="node">
<title>Node32</title>
<g id="a_node26"><a xlink:href="Z2Creature_8cpp.html" target="_top" xlink:title=" ">
<polygon fill="white" stroke="#666666" points="2944.5,-156.5 2791.5,-156.5 2791.5,-137.5 2944.5,-137.5 2944.5,-156.5"/>
<text text-anchor="middle" x="2868" y="-144.5" font-family="Helvetica,sans-Serif" font-size="10.00">libs/Z2AudioLib/Z2Creature.cpp</text>
</a>
</g>
</g>
<!-- Node3&#45;&gt;Node32 -->
<g id="edge28" class="edge">
<title>Node3&#45;&gt;Node32</title>
<path fill="none" stroke="#63b8ff" d="M3214.28,-202.55C3149.44,-192.6 3044.52,-176.4 2954,-162 2943.84,-160.38 2933.01,-158.64 2922.58,-156.95"/>
<polygon fill="#63b8ff" stroke="#63b8ff" points="3213.6,-205.99 3224.01,-204.05 3214.66,-199.07 3213.6,-205.99"/>
</g>
<!-- Node33 -->
<g id="node27" class="node">
<title>Node33</title>
<g id="a_node27"><a xlink:href="Z2LinkMgr_8cpp.html" target="_top" xlink:title=" ">
<polygon fill="white" stroke="#666666" points="3115,-156.5 2963,-156.5 2963,-137.5 3115,-137.5 3115,-156.5"/>
<text text-anchor="middle" x="3039" y="-144.5" font-family="Helvetica,sans-Serif" font-size="10.00">libs/Z2AudioLib/Z2LinkMgr.cpp</text>
</a>
</g>
</g>
<!-- Node3&#45;&gt;Node33 -->
<g id="edge29" class="edge">
<title>Node3&#45;&gt;Node33</title>
<path fill="none" stroke="#63b8ff" d="M3214.8,-195.47C3169.29,-183.18 3108.92,-166.88 3072.07,-156.93"/>
<polygon fill="#63b8ff" stroke="#63b8ff" points="3213.71,-198.8 3224.28,-198.03 3215.54,-192.05 3213.71,-198.8"/>
</g>
<!-- Node34 -->
<g id="node28" class="node">
<title>Node34</title>
<g id="a_node28"><a xlink:href="Z2SoundObjMgr_8cpp.html" target="_top" xlink:title=" ">
<polygon fill="white" stroke="#666666" points="3274.5,-162 3133.5,-162 3133.5,-132 3274.5,-132 3274.5,-162"/>
<text text-anchor="start" x="3141.5" y="-150" font-family="Helvetica,sans-Serif" font-size="10.00">libs/Z2AudioLib/Z2SoundObj</text>
<text text-anchor="middle" x="3204" y="-139" font-family="Helvetica,sans-Serif" font-size="10.00">Mgr.cpp</text>
</a>
</g>
</g>
<!-- Node3&#45;&gt;Node34 -->
<g id="edge30" class="edge">
<title>Node3&#45;&gt;Node34</title>
<path fill="none" stroke="#63b8ff" d="M3251.72,-190.42C3241.33,-181.18 3229.48,-170.65 3220.18,-162.39"/>
<polygon fill="#63b8ff" stroke="#63b8ff" points="3249.09,-192.76 3258.89,-196.79 3253.74,-187.53 3249.09,-192.76"/>
</g>
<!-- Node35 -->
<g id="node29" class="node">
<title>Node35</title>
<g id="a_node29"><a xlink:href="d__cc__uty_8cpp.html" target="_top" xlink:title=" ">
<polygon fill="white" stroke="#666666" points="3405,-156.5 3293,-156.5 3293,-137.5 3405,-137.5 3405,-156.5"/>
<text text-anchor="middle" x="3349" y="-144.5" font-family="Helvetica,sans-Serif" font-size="10.00">src/d/cc/d_cc_uty.cpp</text>
</a>
</g>
</g>
<!-- Node3&#45;&gt;Node35 -->
<g id="edge31" class="edge">
<title>Node3&#45;&gt;Node35</title>
<path fill="none" stroke="#63b8ff" d="M3300.78,-190.27C3313.83,-178.84 3329.11,-165.44 3338.91,-156.84"/>
<polygon fill="#63b8ff" stroke="#63b8ff" points="3298.55,-187.57 3293.34,-196.8 3303.17,-192.84 3298.55,-187.57"/>
</g>
<!-- Node36 -->
<g id="node30" class="node">
<title>Node36</title>
<g id="a_node30"><a xlink:href="m__Do__ext_8cpp.html" target="_top" xlink:title=" ">
<polygon fill="white" stroke="#666666" points="2522.5,-156.5 2399.5,-156.5 2399.5,-137.5 2522.5,-137.5 2522.5,-156.5"/>
<text text-anchor="middle" x="2461" y="-144.5" font-family="Helvetica,sans-Serif" font-size="10.00">src/m_Do/m_Do_ext.cpp</text>
</a>
</g>
</g>
<!-- Node3&#45;&gt;Node36 -->
<g id="edge32" class="edge">
<title>Node3&#45;&gt;Node36</title>
<path fill="none" stroke="#63b8ff" d="M3214.26,-210.51C3086.43,-206.85 2783.73,-195.14 2532,-162 2522.16,-160.7 2511.63,-158.88 2501.78,-156.97"/>
<polygon fill="#63b8ff" stroke="#63b8ff" points="3214.1,-214.01 3224.2,-210.79 3214.3,-207.01 3214.1,-214.01"/>
</g>
<!-- Node5 -->
<g id="node5" class="node">
<title>Node5</title>
<g id="a_node5"><a xlink:href="d__a__alink_8cpp.html" target="_top" xlink:title=" ">
<polygon fill="white" stroke="#666666" points="3403.5,-24.5 3294.5,-24.5 3294.5,-5.5 3403.5,-5.5 3403.5,-24.5"/>
<text text-anchor="middle" x="3349" y="-12.5" font-family="Helvetica,sans-Serif" font-size="10.00">src/d/a/d_a_alink.cpp</text>
</a>
</g>
</g>
<!-- Node4&#45;&gt;Node5 -->
<g id="edge4" class="edge">
<title>Node4&#45;&gt;Node5</title>
<path fill="none" stroke="#63b8ff" d="M3082.83,-68.93C3136.19,-59.09 3215.85,-44.13 3285,-30 3292.69,-28.43 3300.88,-26.69 3308.75,-24.98"/>
<polygon fill="#63b8ff" stroke="#63b8ff" points="3082.21,-65.48 3073.01,-70.73 3083.48,-72.36 3082.21,-65.48"/>
</g>
<!-- Node6 -->
<g id="node6" class="node">
<title>Node6</title>
<g id="a_node6"><a xlink:href="d__a__player_8cpp.html" target="_top" xlink:title=" ">
<polygon fill="white" stroke="#666666" points="2762,-24.5 2648,-24.5 2648,-5.5 2762,-5.5 2762,-24.5"/>
<text text-anchor="middle" x="2705" y="-12.5" font-family="Helvetica,sans-Serif" font-size="10.00">src/d/a/d_a_player.cpp</text>
</a>
</g>
</g>
<!-- Node4&#45;&gt;Node6 -->
<g id="edge5" class="edge">
<title>Node4&#45;&gt;Node6</title>
<path fill="none" stroke="#63b8ff" d="M2965.07,-68.87C2914.17,-58.87 2837.56,-43.69 2771,-30 2763.2,-28.4 2754.88,-26.66 2746.88,-24.97"/>
<polygon fill="#63b8ff" stroke="#63b8ff" points="2964.19,-72.26 2974.68,-70.75 2965.54,-65.39 2964.19,-72.26"/>
</g>
<!-- Node7 -->
<g id="node7" class="node">
<title>Node7</title>
<g id="a_node7"><a xlink:href="d__com__inf__game_8cpp.html" target="_top" xlink:title=" ">
<polygon fill="white" stroke="#666666" points="2888,-30 2780,-30 2780,0 2888,0 2888,-30"/>
<text text-anchor="start" x="2788" y="-18" font-family="Helvetica,sans-Serif" font-size="10.00">src/d/com/d_com_inf</text>
<text text-anchor="middle" x="2834" y="-7" font-family="Helvetica,sans-Serif" font-size="10.00">_game.cpp</text>
</a>
</g>
</g>
<!-- Node4&#45;&gt;Node7 -->
<g id="edge6" class="edge">
<title>Node4&#45;&gt;Node7</title>
<path fill="none" stroke="#63b8ff" d="M2985.03,-67.41C2953.84,-56.8 2909.19,-41.6 2876.53,-30.48"/>
<polygon fill="#63b8ff" stroke="#63b8ff" points="2983.83,-70.7 2994.43,-70.61 2986.09,-64.08 2983.83,-70.7"/>
</g>
<!-- Node8 -->
<g id="node8" class="node">
<title>Node8</title>
<g id="a_node8"><a xlink:href="d__camera_8cpp.html" target="_top" xlink:title=" ">
<polygon fill="white" stroke="#666666" points="3008,-24.5 2906,-24.5 2906,-5.5 3008,-5.5 3008,-24.5"/>
<text text-anchor="middle" x="2957" y="-12.5" font-family="Helvetica,sans-Serif" font-size="10.00">src/d/d_camera.cpp</text>
</a>
</g>
</g>
<!-- Node4&#45;&gt;Node8 -->
<g id="edge7" class="edge">
<title>Node4&#45;&gt;Node8</title>
<path fill="none" stroke="#63b8ff" d="M3005.07,-63.33C2992.56,-51.02 2976.02,-34.73 2965.96,-24.82"/>
<polygon fill="#63b8ff" stroke="#63b8ff" points="3002.3,-65.52 3011.88,-70.04 3007.21,-60.53 3002.3,-65.52"/>
</g>
<!-- Node9 -->
<g id="node9" class="node">
<title>Node9</title>
<g id="a_node9"><a xlink:href="d__event_8cpp.html" target="_top" xlink:title=" ">
<polygon fill="white" stroke="#666666" points="3147.5,-24.5 3026.5,-24.5 3026.5,-5.5 3147.5,-5.5 3147.5,-24.5"/>
<text text-anchor="middle" x="3087" y="-12.5" font-family="Helvetica,sans-Serif" font-size="10.00">src/d/event/d_event.cpp</text>
</a>
</g>
</g>
<!-- Node4&#45;&gt;Node9 -->
<g id="edge8" class="edge">
<title>Node4&#45;&gt;Node9</title>
<path fill="none" stroke="#63b8ff" d="M3038.93,-63.33C3051.44,-51.02 3067.98,-34.73 3078.04,-24.82"/>
<polygon fill="#63b8ff" stroke="#63b8ff" points="3036.79,-60.53 3032.12,-70.04 3041.7,-65.52 3036.79,-60.53"/>
</g>
<!-- Node10 -->
<g id="node10" class="node">
<title>Node10</title>
<g id="a_node10"><a xlink:href="d__meter2__draw_8cpp.html" target="_top" xlink:title=" ">
<polygon fill="white" stroke="#666666" points="3276,-30 3166,-30 3166,0 3276,0 3276,-30"/>
<text text-anchor="start" x="3174" y="-18" font-family="Helvetica,sans-Serif" font-size="10.00">src/d/meter/d_meter2</text>
<text text-anchor="middle" x="3221" y="-7" font-family="Helvetica,sans-Serif" font-size="10.00">_draw.cpp</text>
</a>
</g>
</g>
<!-- Node4&#45;&gt;Node10 -->
<g id="edge9" class="edge">
<title>Node4&#45;&gt;Node10</title>
<path fill="none" stroke="#63b8ff" d="M3060.27,-67.69C3093.32,-57.06 3141.11,-41.69 3175.98,-30.48"/>
<polygon fill="#63b8ff" stroke="#63b8ff" points="3059.56,-64.24 3051.11,-70.64 3061.7,-70.91 3059.56,-64.24"/>
</g>
<!-- Node11 -->
<g id="node11" class="node">
<title>Node11</title>
<g id="a_node11"><a xlink:href="d__msg__flow_8cpp.html" target="_top" xlink:title=" ">
<polygon fill="white" stroke="#666666" points="3554.5,-24.5 3421.5,-24.5 3421.5,-5.5 3554.5,-5.5 3554.5,-24.5"/>
<text text-anchor="middle" x="3488" y="-12.5" font-family="Helvetica,sans-Serif" font-size="10.00">src/d/msg/d_msg_flow.cpp</text>
</a>
</g>
</g>
<!-- Node4&#45;&gt;Node11 -->
<g id="edge10" class="edge">
<title>Node4&#45;&gt;Node11</title>
<path fill="none" stroke="#63b8ff" d="M3091.61,-72.32C3169.93,-63.39 3300.88,-47.62 3413,-30 3422.55,-28.5 3432.76,-26.72 3442.46,-24.93"/>
<polygon fill="#63b8ff" stroke="#63b8ff" points="3091.49,-68.81 3081.95,-73.42 3092.28,-75.77 3091.49,-68.81"/>
</g>
<!-- Node12 -->
<g id="node12" class="node">
<title>Node12</title>
<g id="a_node12"><a xlink:href="f__op__actor_8cpp.html" target="_top" xlink:title=" ">
<polygon fill="white" stroke="#666666" points="2629.5,-24.5 2510.5,-24.5 2510.5,-5.5 2629.5,-5.5 2629.5,-24.5"/>
<text text-anchor="middle" x="2570" y="-12.5" font-family="Helvetica,sans-Serif" font-size="10.00">src/f_op/f_op_actor.cpp</text>
</a>
</g>
</g>
<!-- Node4&#45;&gt;Node12 -->
<g id="edge11" class="edge">
<title>Node4&#45;&gt;Node12</title>
<path fill="none" stroke="#63b8ff" d="M2952.3,-72.39C2875.38,-63.65 2748,-48.15 2639,-30 2630.2,-28.53 2620.81,-26.77 2611.87,-24.99"/>
<polygon fill="#63b8ff" stroke="#63b8ff" points="2951.91,-75.87 2962.23,-73.52 2952.69,-68.92 2951.91,-75.87"/>
</g>
<!-- Node14 -->
<g id="node14" class="node">
<title>Node14</title>
<g id="a_node14"><a xlink:href="d__shop__system_8h.html" target="_top" xlink:title=" ">
<polygon fill="#fff0f0" stroke="red" points="3545,-96 3431,-96 3431,-66 3545,-66 3545,-96"/>
<text text-anchor="start" x="3439" y="-84" font-family="Helvetica,sans-Serif" font-size="10.00">include/d/shop/d_shop</text>
<text text-anchor="middle" x="3488" y="-73" font-family="Helvetica,sans-Serif" font-size="10.00">_system.h</text>
</a>
</g>
</g>
<!-- Node13&#45;&gt;Node14 -->
<g id="edge13" class="edge">
<title>Node13&#45;&gt;Node14</title>
<path fill="none" stroke="#63b8ff" d="M3604.93,-132.57C3580.5,-122 3546.52,-107.3 3521.48,-96.48"/>
<polygon fill="#63b8ff" stroke="#63b8ff" points="3603.46,-135.74 3614.03,-136.5 3606.24,-129.32 3603.46,-135.74"/>
</g>
<!-- Node16 -->
<g id="node15" class="node">
<title>Node16</title>
<g id="a_node15"><a xlink:href="d__a__npc__ash_8h.html" target="_top" xlink:title=" ">
<polygon fill="white" stroke="#666666" points="3709,-96 3563,-96 3563,-66 3709,-66 3709,-96"/>
<text text-anchor="start" x="3571" y="-84" font-family="Helvetica,sans-Serif" font-size="10.00">include/rel/d/a/npc</text>
<text text-anchor="middle" x="3636" y="-73" font-family="Helvetica,sans-Serif" font-size="10.00">/d_a_npc_ash/d_a_npc_ash.h</text>
</a>
</g>
</g>
<!-- Node13&#45;&gt;Node16 -->
<g id="edge15" class="edge">
<title>Node13&#45;&gt;Node16</title>
<path fill="none" stroke="#63b8ff" d="M3636,-125.78C3636,-116.17 3636,-104.92 3636,-96.23"/>
<polygon fill="#63b8ff" stroke="#63b8ff" points="3632.5,-125.59 3636,-135.59 3639.5,-125.59 3632.5,-125.59"/>
</g>
<!-- Node17 -->
<g id="node16" class="node">
<title>Node17</title>
<g id="a_node16"><a xlink:href="d__a__npc_8cpp.html" target="_top" xlink:title=" ">
<polygon fill="white" stroke="#666666" points="3831,-90.5 3727,-90.5 3727,-71.5 3831,-71.5 3831,-90.5"/>
<text text-anchor="middle" x="3779" y="-78.5" font-family="Helvetica,sans-Serif" font-size="10.00">src/d/a/d_a_npc.cpp</text>
</a>
</g>
</g>
<!-- Node13&#45;&gt;Node17 -->
<g id="edge16" class="edge">
<title>Node13&#45;&gt;Node17</title>
<path fill="none" stroke="#63b8ff" d="M3666.31,-132.44C3694.36,-119.88 3735.25,-101.58 3759.29,-90.82"/>
<polygon fill="#63b8ff" stroke="#63b8ff" points="3664.96,-129.2 3657.27,-136.48 3667.82,-135.59 3664.96,-129.2"/>
</g>
<!-- Node18 -->
<g id="node17" class="node">
<title>Node18</title>
<g id="a_node17"><a xlink:href="d__meter2__info_8cpp.html" target="_top" xlink:title=" ">
<polygon fill="white" stroke="#666666" points="3959,-96 3849,-96 3849,-66 3959,-66 3959,-96"/>
<text text-anchor="start" x="3857" y="-84" font-family="Helvetica,sans-Serif" font-size="10.00">src/d/meter/d_meter2</text>
<text text-anchor="middle" x="3904" y="-73" font-family="Helvetica,sans-Serif" font-size="10.00">_info.cpp</text>
</a>
</g>
</g>
<!-- Node13&#45;&gt;Node18 -->
<g id="edge17" class="edge">
<title>Node13&#45;&gt;Node18</title>
<path fill="none" stroke="#63b8ff" d="M3684.47,-134.42C3730.67,-123.39 3800.17,-106.79 3848.55,-95.24"/>
<polygon fill="#63b8ff" stroke="#63b8ff" points="3683.93,-130.96 3675.02,-136.68 3685.56,-137.76 3683.93,-130.96"/>
</g>
<!-- Node14&#45;&gt;Node11 -->
<g id="edge14" class="edge">
<title>Node14&#45;&gt;Node11</title>
<path fill="none" stroke="#63b8ff" d="M3488,-54.59C3488,-44.06 3488,-32.53 3488,-24.84"/>
<polygon fill="#63b8ff" stroke="#63b8ff" points="3484.5,-54.28 3488,-64.28 3491.5,-54.28 3484.5,-54.28"/>
</g>
<!-- Node20 -->
<g id="node19" class="node">
<title>Node20</title>
<g id="a_node19"><a xlink:href="d__a__b__oh2_8h.html" target="_top" xlink:title=" ">
<polygon fill="white" stroke="#666666" points="4093,-96 3977,-96 3977,-66 4093,-66 4093,-96"/>
<text text-anchor="start" x="3985" y="-84" font-family="Helvetica,sans-Serif" font-size="10.00">include/rel/d/a/b/d</text>
<text text-anchor="middle" x="4035" y="-73" font-family="Helvetica,sans-Serif" font-size="10.00">_a_b_oh2/d_a_b_oh2.h</text>
</a>
</g>
</g>
<!-- Node19&#45;&gt;Node20 -->
<g id="edge19" class="edge">
<title>Node19&#45;&gt;Node20</title>
<path fill="none" stroke="#63b8ff" d="M3827.57,-130.81C3872.79,-120.17 3932.72,-106.07 3976.53,-95.76"/>
<polygon fill="#63b8ff" stroke="#63b8ff" points="3826.82,-127.39 3817.89,-133.09 3828.42,-134.2 3826.82,-127.39"/>
</g>
<!-- Node23&#45;&gt;Node5 -->
<g id="edge25" class="edge">
<title>Node23&#45;&gt;Node5</title>
<path fill="none" stroke="#63b8ff" d="M3449.79,-132.22C3385.8,-117.96 3295.25,-97.57 3294,-96 3274.36,-71.35 3312.76,-40.02 3334.89,-24.93"/>
<polygon fill="#63b8ff" stroke="#63b8ff" points="3449.01,-135.63 3459.53,-134.38 3450.53,-128.79 3449.01,-135.63"/>
</g>
<!-- Node24 -->
<g id="node23" class="node">
<title>Node24</title>
<g id="a_node23"><a xlink:href="d__a__e__wb_8h.html" target="_top" xlink:title=" ">
<polygon fill="#fff0f0" stroke="red" points="3413,-96 3303,-96 3303,-66 3413,-66 3413,-96"/>
<text text-anchor="start" x="3311" y="-84" font-family="Helvetica,sans-Serif" font-size="10.00">include/rel/d/a/e/d</text>
<text text-anchor="middle" x="3358" y="-73" font-family="Helvetica,sans-Serif" font-size="10.00">_a_e_wb/d_a_e_wb.h</text>
</a>
</g>
</g>
<!-- Node23&#45;&gt;Node24 -->
<g id="edge23" class="edge">
<title>Node23&#45;&gt;Node24</title>
<path fill="none" stroke="#63b8ff" d="M3466.94,-127.27C3443.25,-117.43 3414.66,-105.55 3392.71,-96.43"/>
<polygon fill="#63b8ff" stroke="#63b8ff" points="3465.46,-130.45 3476.04,-131.06 3468.15,-123.99 3465.46,-130.45"/>
</g>
<!-- Node24&#45;&gt;Node5 -->
<g id="edge24" class="edge">
<title>Node24&#45;&gt;Node5</title>
<path fill="none" stroke="#63b8ff" d="M3354.43,-54.59C3352.95,-44.06 3351.32,-32.53 3350.24,-24.84"/>
<polygon fill="#63b8ff" stroke="#63b8ff" points="3350.93,-54.88 3355.79,-64.3 3357.87,-53.91 3350.93,-54.88"/>
</g>
<!-- Node37&#45;&gt;Node36 -->
<g id="edge49" class="edge">
<title>Node37&#45;&gt;Node36</title>
<path fill="none" stroke="#63b8ff" d="M1386.77,-212.42C1564.26,-212.53 2016.47,-207.85 2391,-162 2400.96,-160.78 2411.63,-158.93 2421.56,-156.97"/>
<polygon fill="#63b8ff" stroke="#63b8ff" points="1387,-208.92 1376.99,-212.41 1386.99,-215.92 1387,-208.92"/>
</g>
<!-- Node38 -->
<g id="node32" class="node">
<title>Node38</title>
<g id="a_node32"><a xlink:href="d__attention_8h.html" target="_top" xlink:title=" ">
<polygon fill="#fff0f0" stroke="red" points="1984,-156.5 1870,-156.5 1870,-137.5 1984,-137.5 1984,-156.5"/>
<text text-anchor="middle" x="1927" y="-144.5" font-family="Helvetica,sans-Serif" font-size="10.00">include/d/d_attention.h</text>
</a>
</g>
</g>
<!-- Node37&#45;&gt;Node38 -->
<g id="edge34" class="edge">
<title>Node37&#45;&gt;Node38</title>
<path fill="none" stroke="#63b8ff" d="M1386.48,-207.93C1493.19,-201.6 1692.61,-187.41 1861,-162 1869.92,-160.65 1879.44,-158.85 1888.4,-156.99"/>
<polygon fill="#63b8ff" stroke="#63b8ff" points="1386.48,-204.43 1376.7,-208.5 1386.89,-211.41 1386.48,-204.43"/>
</g>
<!-- Node189 -->
<g id="node33" class="node">
<title>Node189</title>
<g id="a_node33"><a xlink:href="d__drawlist_8h.html" target="_top" xlink:title=" ">
<polygon fill="#fff0f0" stroke="red" points="2112,-156.5 2002,-156.5 2002,-137.5 2112,-137.5 2112,-156.5"/>
<text text-anchor="middle" x="2057" y="-144.5" font-family="Helvetica,sans-Serif" font-size="10.00">include/d/d_drawlist.h</text>
</a>
</g>
</g>
<!-- Node37&#45;&gt;Node189 -->
<g id="edge36" class="edge">
<title>Node37&#45;&gt;Node189</title>
<path fill="none" stroke="#63b8ff" d="M1386.79,-209.94C1513.6,-205.74 1774.5,-193.73 1993,-162 2001.89,-160.71 2011.39,-158.88 2020.27,-156.97"/>
<polygon fill="#63b8ff" stroke="#63b8ff" points="1386.71,-206.44 1376.83,-210.26 1386.93,-213.44 1386.71,-206.44"/>
</g>
<!-- Node232 -->
<g id="node34" class="node">
<title>Node232</title>
<g id="a_node34"><a xlink:href="d__ky__thunder_8h.html" target="_top" xlink:title=" ">
<polygon fill="#fff0f0" stroke="red" points="2254,-156.5 2130,-156.5 2130,-137.5 2254,-137.5 2254,-156.5"/>
<text text-anchor="middle" x="2192" y="-144.5" font-family="Helvetica,sans-Serif" font-size="10.00">include/d/d_ky_thunder.h</text>
</a>
</g>
</g>
<!-- Node37&#45;&gt;Node232 -->
<g id="edge37" class="edge">
<title>Node37&#45;&gt;Node232</title>
<path fill="none" stroke="#63b8ff" d="M1386.79,-210.67C1531.15,-207.41 1852.65,-196.57 2121,-162 2130.97,-160.72 2141.64,-158.87 2151.6,-156.93"/>
<polygon fill="#63b8ff" stroke="#63b8ff" points="1386.89,-207.16 1376.97,-210.88 1387.04,-214.16 1386.89,-207.16"/>
</g>
<!-- Node233 -->
<g id="node35" class="node">
<title>Node233</title>
<g id="a_node35"><a xlink:href="d__resorce_8h.html" target="_top" xlink:title=" ">
<polygon fill="#fff0f0" stroke="red" points="2381.5,-156.5 2272.5,-156.5 2272.5,-137.5 2381.5,-137.5 2381.5,-156.5"/>
<text text-anchor="middle" x="2327" y="-144.5" font-family="Helvetica,sans-Serif" font-size="10.00">include/d/d_resorce.h</text>
</a>
</g>
</g>
<!-- Node37&#45;&gt;Node233 -->
<g id="edge38" class="edge">
<title>Node37&#45;&gt;Node233</title>
<path fill="none" stroke="#63b8ff" d="M1386.63,-212.2C1548.99,-211.7 1939.3,-205.6 2263,-162 2272.13,-160.77 2281.89,-158.92 2290.97,-156.96"/>
<polygon fill="#63b8ff" stroke="#63b8ff" points="1386.84,-208.7 1376.85,-212.22 1386.86,-215.7 1386.84,-208.7"/>
</g>
<!-- Node234 -->
<g id="node36" class="node">
<title>Node234</title>
<g id="a_node36"><a xlink:href="d__kankyo_8h.html" target="_top" xlink:title=" ">
<polygon fill="#fff0f0" stroke="red" points="98,-162 0,-162 0,-132 98,-132 98,-162"/>
<text text-anchor="start" x="8" y="-150" font-family="Helvetica,sans-Serif" font-size="10.00">include/d/kankyo/d</text>
<text text-anchor="middle" x="49" y="-139" font-family="Helvetica,sans-Serif" font-size="10.00">_kankyo.h</text>
</a>
</g>
</g>
<!-- Node37&#45;&gt;Node234 -->
<g id="edge39" class="edge">
<title>Node37&#45;&gt;Node234</title>
<path fill="none" stroke="#63b8ff" d="M1233.61,-210.78C1004.57,-206.8 325.97,-192.68 107,-162 104.13,-161.6 101.19,-161.12 98.24,-160.58"/>
<polygon fill="#63b8ff" stroke="#63b8ff" points="1233.24,-214.27 1243.3,-210.94 1233.36,-207.27 1233.24,-214.27"/>
</g>
<!-- Node193 -->
<g id="node37" class="node">
<title>Node193</title>
<g id="a_node37"><a xlink:href="d__a__do_8h.html" target="_top" xlink:title=" ">
<polygon fill="white" stroke="#666666" points="212,-162 116,-162 116,-132 212,-132 212,-162"/>
<text text-anchor="start" x="124" y="-150" font-family="Helvetica,sans-Serif" font-size="10.00">include/rel/d/a/d_a</text>
<text text-anchor="middle" x="164" y="-139" font-family="Helvetica,sans-Serif" font-size="10.00">_do/d_a_do.h</text>
</a>
</g>
</g>
<!-- Node37&#45;&gt;Node193 -->
<g id="edge40" class="edge">
<title>Node37&#45;&gt;Node193</title>
<path fill="none" stroke="#63b8ff" d="M1233.24,-210.42C1018.88,-205.71 416.78,-190.26 221,-162 218.18,-161.59 215.29,-161.11 212.38,-160.56"/>
<polygon fill="#63b8ff" stroke="#63b8ff" points="1233.09,-213.92 1243.16,-210.64 1233.24,-206.92 1233.09,-213.92"/>
</g>
<!-- Node335 -->
<g id="node38" class="node">
<title>Node335</title>
<g id="a_node38"><a xlink:href="DynamicLink_8cpp.html" target="_top" xlink:title=" ">
<polygon fill="white" stroke="#666666" points="337.5,-156.5 230.5,-156.5 230.5,-137.5 337.5,-137.5 337.5,-156.5"/>
<text text-anchor="middle" x="284" y="-144.5" font-family="Helvetica,sans-Serif" font-size="10.00">src/DynamicLink.cpp</text>
</a>
</g>
</g>
<!-- Node37&#45;&gt;Node335 -->
<g id="edge41" class="edge">
<title>Node37&#45;&gt;Node335</title>
<path fill="none" stroke="#63b8ff" d="M1233.38,-212.44C1069.65,-212.41 673.9,-207.19 346,-162 337.15,-160.78 327.69,-158.93 318.89,-156.97"/>
<polygon fill="#63b8ff" stroke="#63b8ff" points="1233.25,-215.94 1243.25,-212.43 1233.25,-208.94 1233.25,-215.94"/>
</g>
<!-- Node127 -->
<g id="node39" class="node">
<title>Node127</title>
<g id="a_node39"><a xlink:href="c__dylink_8cpp.html" target="_top" xlink:title=" ">
<polygon fill="white" stroke="#666666" points="450.5,-156.5 355.5,-156.5 355.5,-137.5 450.5,-137.5 450.5,-156.5"/>
<text text-anchor="middle" x="403" y="-144.5" font-family="Helvetica,sans-Serif" font-size="10.00">src/c/c_dylink.cpp</text>
</a>
</g>
</g>
<!-- Node37&#45;&gt;Node127 -->
<g id="edge42" class="edge">
<title>Node37&#45;&gt;Node127</title>
<path fill="none" stroke="#63b8ff" d="M1233.41,-212.26C1083.71,-211.72 742.2,-205.33 459,-162 450.98,-160.77 442.42,-158.92 434.48,-156.96"/>
<polygon fill="#63b8ff" stroke="#63b8ff" points="1233.19,-215.76 1243.2,-212.29 1233.21,-208.76 1233.19,-215.76"/>
</g>
<!-- Node336 -->
<g id="node40" class="node">
<title>Node336</title>
<g id="a_node40"><a xlink:href="d__pane__class_8cpp.html" target="_top" xlink:title=" ">
<polygon fill="white" stroke="#666666" points="611.5,-156.5 468.5,-156.5 468.5,-137.5 611.5,-137.5 611.5,-156.5"/>
<text text-anchor="middle" x="540" y="-144.5" font-family="Helvetica,sans-Serif" font-size="10.00">src/d/pane/d_pane_class.cpp</text>
</a>
</g>
</g>
<!-- Node37&#45;&gt;Node336 -->
<g id="edge43" class="edge">
<title>Node37&#45;&gt;Node336</title>
<path fill="none" stroke="#63b8ff" d="M1233.45,-208.98C1105.87,-203.38 841.87,-189.38 620,-162 609.08,-160.65 597.39,-158.83 586.41,-156.94"/>
<polygon fill="#63b8ff" stroke="#63b8ff" points="1232.97,-212.46 1243.11,-209.4 1233.27,-205.47 1232.97,-212.46"/>
</g>
<!-- Node337 -->
<g id="node41" class="node">
<title>Node337</title>
<g id="a_node41"><a xlink:href="d__pane__class__alpha_8cpp.html" target="_top" xlink:title=" ">
<polygon fill="white" stroke="#666666" points="754.5,-162 629.5,-162 629.5,-132 754.5,-132 754.5,-162"/>
<text text-anchor="start" x="637.5" y="-150" font-family="Helvetica,sans-Serif" font-size="10.00">src/d/pane/d_pane_class</text>
<text text-anchor="middle" x="692" y="-139" font-family="Helvetica,sans-Serif" font-size="10.00">_alpha.cpp</text>
</a>
</g>
</g>
<!-- Node37&#45;&gt;Node337 -->
<g id="edge44" class="edge">
<title>Node37&#45;&gt;Node337</title>
<path fill="none" stroke="#63b8ff" d="M1233.69,-207.53C1127.71,-200.75 930.11,-186.05 763,-162 760.26,-161.61 757.47,-161.18 754.66,-160.72"/>
<polygon fill="#63b8ff" stroke="#63b8ff" points="1233.2,-211 1243.4,-208.14 1233.64,-204.02 1233.2,-211"/>
</g>
<!-- Node120 -->
<g id="node42" class="node">
<title>Node120</title>
<g id="a_node42"><a xlink:href="f__op__actor__mng_8cpp.html" target="_top" xlink:title=" ">
<polygon fill="white" stroke="#666666" points="873.5,-162 772.5,-162 772.5,-132 873.5,-132 873.5,-162"/>
<text text-anchor="start" x="780.5" y="-150" font-family="Helvetica,sans-Serif" font-size="10.00">src/f_op/f_op_actor</text>
<text text-anchor="middle" x="823" y="-139" font-family="Helvetica,sans-Serif" font-size="10.00">_mng.cpp</text>
</a>
</g>
</g>
<!-- Node37&#45;&gt;Node120 -->
<g id="edge45" class="edge">
<title>Node37&#45;&gt;Node120</title>
<path fill="none" stroke="#63b8ff" d="M1233.54,-205.78C1147.62,-198.16 1004.15,-183.55 882,-162 879.3,-161.52 876.55,-161 873.77,-160.44"/>
<polygon fill="#63b8ff" stroke="#63b8ff" points="1232.99,-209.24 1243.25,-206.63 1233.6,-202.27 1232.99,-209.24"/>
</g>
<!-- Node338 -->
<g id="node43" class="node">
<title>Node338</title>
<g id="a_node43"><a xlink:href="m__Do__DVDError_8cpp.html" target="_top" xlink:title=" ">
<polygon fill="white" stroke="#666666" points="1042.5,-156.5 891.5,-156.5 891.5,-137.5 1042.5,-137.5 1042.5,-156.5"/>
<text text-anchor="middle" x="967" y="-144.5" font-family="Helvetica,sans-Serif" font-size="10.00">src/m_Do/m_Do_DVDError.cpp</text>
</a>
</g>
</g>
<!-- Node37&#45;&gt;Node338 -->
<g id="edge46" class="edge">
<title>Node37&#45;&gt;Node338</title>
<path fill="none" stroke="#63b8ff" d="M1250.78,-200.95C1184.02,-188.49 1076.77,-168.48 1015,-156.96"/>
<polygon fill="#63b8ff" stroke="#63b8ff" points="1249.99,-204.36 1260.46,-202.76 1251.27,-197.48 1249.99,-204.36"/>
</g>
<!-- Node339 -->
<g id="node44" class="node">
<title>Node339</title>
<g id="a_node44"><a xlink:href="m__Do__MemCard_8cpp.html" target="_top" xlink:title=" ">
<polygon fill="white" stroke="#666666" points="1213,-156.5 1061,-156.5 1061,-137.5 1213,-137.5 1213,-156.5"/>
<text text-anchor="middle" x="1137" y="-144.5" font-family="Helvetica,sans-Serif" font-size="10.00">src/m_Do/m_Do_MemCard.cpp</text>
</a>
</g>
</g>
<!-- Node37&#45;&gt;Node339 -->
<g id="edge47" class="edge">
<title>Node37&#45;&gt;Node339</title>
<path fill="none" stroke="#63b8ff" d="M1275.16,-199.11C1241.3,-186.58 1190.78,-167.89 1161.13,-156.93"/>
<polygon fill="#63b8ff" stroke="#63b8ff" points="1273.93,-202.39 1284.53,-202.58 1276.36,-195.82 1273.93,-202.39"/>
</g>
<!-- Node340 -->
<g id="node45" class="node">
<title>Node340</title>
<g id="a_node45"><a xlink:href="m__Do__dvd__thread_8cpp.html" target="_top" xlink:title=" ">
<polygon fill="white" stroke="#666666" points="1389,-156.5 1231,-156.5 1231,-137.5 1389,-137.5 1389,-156.5"/>
<text text-anchor="middle" x="1310" y="-144.5" font-family="Helvetica,sans-Serif" font-size="10.00">src/m_Do/m_Do_dvd_thread.cpp</text>
</a>
</g>
</g>
<!-- Node37&#45;&gt;Node340 -->
<g id="edge48" class="edge">
<title>Node37&#45;&gt;Node340</title>
<path fill="none" stroke="#63b8ff" d="M1310,-191.68C1310,-179.94 1310,-165.77 1310,-156.82"/>
<polygon fill="#63b8ff" stroke="#63b8ff" points="1306.5,-191.59 1310,-201.59 1313.5,-191.59 1306.5,-191.59"/>
</g>
<!-- Node341 -->
<g id="node46" class="node">
<title>Node341</title>
<g id="a_node46"><a xlink:href="m__Do__machine_8cpp.html" target="_top" xlink:title=" ">
<polygon fill="white" stroke="#666666" points="1554.5,-156.5 1407.5,-156.5 1407.5,-137.5 1554.5,-137.5 1554.5,-156.5"/>
<text text-anchor="middle" x="1481" y="-144.5" font-family="Helvetica,sans-Serif" font-size="10.00">src/m_Do/m_Do_machine.cpp</text>
</a>
</g>
</g>
<!-- Node37&#45;&gt;Node341 -->
<g id="edge50" class="edge">
<title>Node37&#45;&gt;Node341</title>
<path fill="none" stroke="#63b8ff" d="M1344.44,-199.11C1377.91,-186.58 1427.85,-167.89 1457.15,-156.93"/>
<polygon fill="#63b8ff" stroke="#63b8ff" points="1343.33,-195.79 1335.19,-202.57 1345.79,-202.34 1343.33,-195.79"/>
</g>
<!-- Node185 -->
<g id="node47" class="node">
<title>Node185</title>
<g id="a_node47"><a xlink:href="m__Do__machine__exception_8cpp.html" target="_top" xlink:title=" ">
<polygon fill="white" stroke="#666666" points="1701.5,-162 1572.5,-162 1572.5,-132 1701.5,-132 1701.5,-162"/>
<text text-anchor="start" x="1580.5" y="-150" font-family="Helvetica,sans-Serif" font-size="10.00">src/m_Do/m_Do_machine</text>
<text text-anchor="middle" x="1637" y="-139" font-family="Helvetica,sans-Serif" font-size="10.00">_exception.cpp</text>
</a>
</g>
</g>
<!-- Node37&#45;&gt;Node185 -->
<g id="edge51" class="edge">
<title>Node37&#45;&gt;Node185</title>
<path fill="none" stroke="#63b8ff" d="M1366.82,-200.88C1424.02,-189.68 1512.13,-172.44 1572.06,-160.71"/>
<polygon fill="#63b8ff" stroke="#63b8ff" points="1366.44,-197.39 1357.3,-202.74 1367.78,-204.26 1366.44,-197.39"/>
</g>
<!-- Node342 -->
<g id="node48" class="node">
<title>Node342</title>
<g id="a_node48"><a xlink:href="m__Do__printf_8cpp.html" target="_top" xlink:title=" ">
<polygon fill="white" stroke="#666666" points="1852,-156.5 1720,-156.5 1720,-137.5 1852,-137.5 1852,-156.5"/>
<text text-anchor="middle" x="1786" y="-144.5" font-family="Helvetica,sans-Serif" font-size="10.00">src/m_Do/m_Do_printf.cpp</text>
</a>
</g>
</g>
<!-- Node37&#45;&gt;Node342 -->
<g id="edge52" class="edge">
<title>Node37&#45;&gt;Node342</title>
<path fill="none" stroke="#63b8ff" d="M1386.52,-203.85C1467.36,-194.92 1598.44,-179.51 1711,-162 1720.55,-160.51 1730.76,-158.74 1740.46,-156.96"/>
<polygon fill="#63b8ff" stroke="#63b8ff" points="1386.52,-200.33 1376.96,-204.9 1387.29,-207.29 1386.52,-200.33"/>
</g>
<!-- Node38&#45;&gt;Node4 -->
<g id="edge35" class="edge">
<title>Node38&#45;&gt;Node4</title>
<path fill="none" stroke="#63b8ff" d="M1975.38,-134.81C1981.29,-133.72 1987.27,-132.74 1993,-132 2360.17,-84.45 2806.34,-81.11 2963.69,-81.57"/>
<polygon fill="#63b8ff" stroke="#63b8ff" points="1974.79,-131.36 1965.65,-136.73 1976.14,-138.23 1974.79,-131.36"/>
</g>
</g>
</svg>
        <g id="navigator" transform="translate(0 0)" fill="#404254">
                <rect fill="#f2f5e9" fill-opacity="0.5" stroke="#606060" stroke-width=".5" x="0" y="0" width="60" height="60"/>
                <use id="zoomplus" xlink:href="#zoomPlus" x="17" y="9" onmousedown="handleZoom(evt,'in')"/>
                <use id="zoomminus" xlink:href="#zoomMin" x="42" y="9" onmousedown="handleZoom(evt,'out')"/>
                <use id="reset" xlink:href="#resetDef" x="30" y="36" onmousedown="handleReset()"/>
                <g id="arrowUp" xlink:href="#dirArrow" transform="translate(30 24)" onmousedown="handlePan(0,-1)">
                  <use xlink:href="#rim" fill="#404040">
                        <set attributeName="fill" to="#808080" begin="arrowUp.mouseover" end="arrowUp.mouseout"/>
                  </use>
                  <path fill="none" stroke="white" stroke-width="1.5" d="M0,-3.0v7 M-2.5,-0.5L0,-3.0L2.5,-0.5"/>
                </g>
                <g id="arrowRight" xlink:href="#dirArrow" transform="rotate(90) translate(36 -43)" onmousedown="handlePan(1,0)">
                  <use xlink:href="#rim" fill="#404040">
                        <set attributeName="fill" to="#808080" begin="arrowRight.mouseover" end="arrowRight.mouseout"/>
                  </use>
                  <path fill="none" stroke="white" stroke-width="1.5" d="M0,-3.0v7 M-2.5,-0.5L0,-3.0L2.5,-0.5"/>
                </g>
                <g id="arrowDown" xlink:href="#dirArrow" transform="rotate(180) translate(-30 -48)" onmousedown="handlePan(0,1)">
                  <use xlink:href="#rim" fill="#404040">
                        <set attributeName="fill" to="#808080" begin="arrowDown.mouseover" end="arrowDown.mouseout"/>
                  </use>
                  <path fill="none" stroke="white" stroke-width="1.5" d="M0,-3.0v7 M-2.5,-0.5L0,-3.0L2.5,-0.5"/>
                </g>
                <g id="arrowLeft" xlink:href="#dirArrow" transform="rotate(270) translate(-36 17)" onmousedown="handlePan(-1,0)">
                  <use xlink:href="#rim" fill="#404040">
                        <set attributeName="fill" to="#808080" begin="arrowLeft.mouseover" end="arrowLeft.mouseout"/>
                  </use>
                  <path fill="none" stroke="white" stroke-width="1.5" d="M0,-3.0v7 M-2.5,-0.5L0,-3.0L2.5,-0.5"/>
                </g>
        </g>
        <svg viewBox="0 0 15 15" width="100%" height="30px" preserveAspectRatio="xMaxYMin meet">
         <g id="arrow_out" transform="scale(0.3 0.3)">
          <a xlink:href="Z2SoundHandles_8h__dep__incl_org.svg" target="_base">
           <rect id="button" ry="5" rx="5" y="6" x="6" height="38" width="38"
                fill="#f2f5e9" fill-opacity="0.5" stroke="#606060" stroke-width="1.0"/>
           <path id="arrow"
             d="M 11.500037,31.436501 C 11.940474,20.09759 22.043105,11.32322 32.158766,21.979434 L 37.068811,17.246167 C 37.068811,17.246167 37.088388,32 37.088388,32 L 22.160133,31.978069 C 22.160133,31.978069 26.997745,27.140456 26.997745,27.140456 C 18.528582,18.264221 13.291696,25.230495 11.500037,31.436501 z"
             style="fill:#404040;"/>
          </a>
         </g>
        </svg>
</svg>
