<?xml version="1.0" encoding="UTF-8" standalone="no"?>
<!DOCTYPE svg PUBLIC "-//W3C//DTD SVG 1.1//EN"
 "http://www.w3.org/Graphics/SVG/1.1/DTD/svg11.dtd">
<!-- Generated by graphviz version 7.0.5 (20221223.1930)
 -->
<!-- Title: include/Z2AudioLib/Z2SoundStarter.h Pages: 1 -->
<svg width="4467pt" height="357pt"
 viewBox="0.00 0.00 4466.50 357.00" xmlns="http://www.w3.org/2000/svg" xmlns:xlink="http://www.w3.org/1999/xlink">
<g id="graph0" class="graph" transform="scale(1 1) rotate(0) translate(4 353)">
<title>include/Z2AudioLib/Z2SoundStarter.h</title>
<!-- Node1 -->
<g id="node1" class="node">
<title>Node1</title>
<g id="a_node1"><a xlink:title=" ">
<polygon fill="#999999" stroke="#666666" points="3996,-349 3896,-349 3896,-319 3996,-319 3996,-349"/>
<text text-anchor="start" x="3904" y="-337" font-family="Helvetica,sans-Serif" font-size="10.00">include/Z2AudioLib</text>
<text text-anchor="middle" x="3946" y="-326" font-family="Helvetica,sans-Serif" font-size="10.00">/Z2SoundStarter.h</text>
</a>
</g>
</g>
<!-- Node2 -->
<g id="node2" class="node">
<title>Node2</title>
<g id="a_node2"><a xlink:href="Z2AudioMgr_8h.html" target="_top" xlink:title=" ">
<polygon fill="white" stroke="#666666" points="3996,-217 3896,-217 3896,-187 3996,-187 3996,-217"/>
<text text-anchor="start" x="3904" y="-205" font-family="Helvetica,sans-Serif" font-size="10.00">include/Z2AudioLib</text>
<text text-anchor="middle" x="3946" y="-194" font-family="Helvetica,sans-Serif" font-size="10.00">/Z2AudioMgr.h</text>
</a>
</g>
</g>
<!-- Node1&#45;&gt;Node2 -->
<g id="edge1" class="edge">
<title>Node1&#45;&gt;Node2</title>
<path fill="none" stroke="#63b8ff" d="M3933.94,-308.24C3930.7,-300.36 3927.63,-291.49 3926,-283 3923.48,-269.91 3923.48,-266.09 3926,-253 3928.4,-240.51 3933.9,-227.18 3938.52,-217.43"/>
<polygon fill="#63b8ff" stroke="#63b8ff" points="3930.65,-309.46 3937.91,-317.19 3937.05,-306.63 3930.65,-309.46"/>
</g>
<!-- Node466 -->
<g id="node23" class="node">
<title>Node466</title>
<g id="a_node23"><a xlink:href="Z2Creature_8h.html" target="_top" xlink:title=" ">
<polygon fill="white" stroke="#666666" points="1399,-217 1299,-217 1299,-187 1399,-187 1399,-217"/>
<text text-anchor="start" x="1307" y="-205" font-family="Helvetica,sans-Serif" font-size="10.00">include/Z2AudioLib</text>
<text text-anchor="middle" x="1349" y="-194" font-family="Helvetica,sans-Serif" font-size="10.00">/Z2Creature.h</text>
</a>
</g>
</g>
<!-- Node1&#45;&gt;Node466 -->
<g id="edge23" class="edge">
<title>Node1&#45;&gt;Node466</title>
<path fill="none" stroke="#63b8ff" d="M3884.19,-329.91C3526.28,-311.99 1724.26,-221.78 1399.27,-205.52"/>
<polygon fill="#63b8ff" stroke="#63b8ff" points="3883.9,-333.4 3894.07,-330.4 3884.25,-326.4 3883.9,-333.4"/>
</g>
<!-- Node470 -->
<g id="node48" class="node">
<title>Node470</title>
<g id="a_node48"><a xlink:href="Z2SpeechMgr2_8h.html" target="_top" xlink:title=" ">
<polygon fill="white" stroke="#666666" points="4035,-283 3935,-283 3935,-253 4035,-253 4035,-283"/>
<text text-anchor="start" x="3943" y="-271" font-family="Helvetica,sans-Serif" font-size="10.00">include/Z2AudioLib</text>
<text text-anchor="middle" x="3985" y="-260" font-family="Helvetica,sans-Serif" font-size="10.00">/Z2SpeechMgr2.h</text>
</a>
</g>
</g>
<!-- Node1&#45;&gt;Node470 -->
<g id="edge58" class="edge">
<title>Node1&#45;&gt;Node470</title>
<path fill="none" stroke="#63b8ff" d="M3960.56,-309.11C3965.88,-300.38 3971.73,-290.78 3976.37,-283.16"/>
<polygon fill="#63b8ff" stroke="#63b8ff" points="3957.66,-307.14 3955.44,-317.5 3963.64,-310.79 3957.66,-307.14"/>
</g>
<!-- Node472 -->
<g id="node50" class="node">
<title>Node472</title>
<g id="a_node50"><a xlink:href="Z2SoundStarter_8cpp.html" target="_top" xlink:title=" ">
<polygon fill="white" stroke="#666666" points="4226.5,-277.5 4053.5,-277.5 4053.5,-258.5 4226.5,-258.5 4226.5,-277.5"/>
<text text-anchor="middle" x="4140" y="-265.5" font-family="Helvetica,sans-Serif" font-size="10.00">libs/Z2AudioLib/Z2SoundStarter.cpp</text>
</a>
</g>
</g>
<!-- Node1&#45;&gt;Node472 -->
<g id="edge61" class="edge">
<title>Node1&#45;&gt;Node472</title>
<path fill="none" stroke="#63b8ff" d="M4000.07,-315.16C4036.73,-303.07 4083.65,-287.59 4112.76,-277.99"/>
<polygon fill="#63b8ff" stroke="#63b8ff" points="3999.37,-311.71 3990.97,-318.16 4001.57,-318.35 3999.37,-311.71"/>
</g>
<!-- Node3 -->
<g id="node3" class="node">
<title>Node3</title>
<g id="a_node3"><a xlink:href="m__Do__audio_8h.html" target="_top" xlink:title=" ">
<polygon fill="white" stroke="#666666" points="3393,-145.5 3253,-145.5 3253,-126.5 3393,-126.5 3393,-145.5"/>
<text text-anchor="middle" x="3323" y="-133.5" font-family="Helvetica,sans-Serif" font-size="10.00">include/m_Do/m_Do_audio.h</text>
</a>
</g>
</g>
<!-- Node2&#45;&gt;Node3 -->
<g id="edge2" class="edge">
<title>Node2&#45;&gt;Node3</title>
<path fill="none" stroke="#63b8ff" d="M3884.36,-194.67C3767.82,-182.7 3515.86,-156.81 3393.09,-144.2"/>
<polygon fill="#63b8ff" stroke="#63b8ff" points="3883.73,-198.12 3894.04,-195.66 3884.45,-191.16 3883.73,-198.12"/>
</g>
<!-- Node265 -->
<g id="node8" class="node">
<title>Node265</title>
<g id="a_node8"><a xlink:href="d__event__manager_8cpp.html" target="_top" xlink:title=" ">
<polygon fill="white" stroke="#666666" points="2824.5,-85 2721.5,-85 2721.5,-55 2824.5,-55 2824.5,-85"/>
<text text-anchor="start" x="2729.5" y="-73" font-family="Helvetica,sans-Serif" font-size="10.00">src/d/event/d_event</text>
<text text-anchor="middle" x="2773" y="-62" font-family="Helvetica,sans-Serif" font-size="10.00">_manager.cpp</text>
</a>
</g>
</g>
<!-- Node2&#45;&gt;Node265 -->
<g id="edge19" class="edge">
<title>Node2&#45;&gt;Node265</title>
<path fill="none" stroke="#63b8ff" d="M3884.29,-198.44C3761.88,-192.96 3479.75,-178.32 3244,-151 3060.66,-129.76 3015.16,-120.33 2834,-85 2831.01,-84.42 2827.95,-83.8 2824.86,-83.15"/>
<polygon fill="#63b8ff" stroke="#63b8ff" points="3883.98,-201.93 3894.12,-198.88 3884.29,-194.94 3883.98,-201.93"/>
</g>
<!-- Node465 -->
<g id="node19" class="node">
<title>Node465</title>
<g id="a_node19"><a xlink:href="Z2AudioMgr_8cpp.html" target="_top" xlink:title=" ">
<polygon fill="white" stroke="#666666" points="4025,-145.5 3867,-145.5 3867,-126.5 4025,-126.5 4025,-145.5"/>
<text text-anchor="middle" x="3946" y="-133.5" font-family="Helvetica,sans-Serif" font-size="10.00">libs/Z2AudioLib/Z2AudioMgr.cpp</text>
</a>
</g>
</g>
<!-- Node2&#45;&gt;Node465 -->
<g id="edge18" class="edge">
<title>Node2&#45;&gt;Node465</title>
<path fill="none" stroke="#63b8ff" d="M3946,-175.59C3946,-165.06 3946,-153.53 3946,-145.84"/>
<polygon fill="#63b8ff" stroke="#63b8ff" points="3942.5,-175.28 3946,-185.28 3949.5,-175.28 3942.5,-175.28"/>
</g>
<!-- Node59 -->
<g id="node20" class="node">
<title>Node59</title>
<g id="a_node20"><a xlink:href="d__menu__window_8cpp.html" target="_top" xlink:title=" ">
<polygon fill="white" stroke="#666666" points="4202.5,-145.5 4043.5,-145.5 4043.5,-126.5 4202.5,-126.5 4202.5,-145.5"/>
<text text-anchor="middle" x="4123" y="-133.5" font-family="Helvetica,sans-Serif" font-size="10.00">src/d/menu/d_menu_window.cpp</text>
</a>
</g>
</g>
<!-- Node2&#45;&gt;Node59 -->
<g id="edge20" class="edge">
<title>Node2&#45;&gt;Node59</title>
<path fill="none" stroke="#63b8ff" d="M3996.19,-182.85C4029.52,-170.8 4071.81,-155.51 4098.15,-145.99"/>
<polygon fill="#63b8ff" stroke="#63b8ff" points="3995.36,-179.43 3987.15,-186.12 3997.74,-186.01 3995.36,-179.43"/>
</g>
<!-- Node60 -->
<g id="node21" class="node">
<title>Node60</title>
<g id="a_node21"><a xlink:href="d__meter__map_8cpp.html" target="_top" xlink:title=" ">
<polygon fill="white" stroke="#666666" points="4325,-151 4221,-151 4221,-121 4325,-121 4325,-151"/>
<text text-anchor="start" x="4229" y="-139" font-family="Helvetica,sans-Serif" font-size="10.00">src/d/meter/d_meter</text>
<text text-anchor="middle" x="4273" y="-128" font-family="Helvetica,sans-Serif" font-size="10.00">_map.cpp</text>
</a>
</g>
</g>
<!-- Node2&#45;&gt;Node60 -->
<g id="edge21" class="edge">
<title>Node2&#45;&gt;Node60</title>
<path fill="none" stroke="#63b8ff" d="M4007.55,-186.77C4098.98,-168.48 4124.37,-168.7 4212,-151 4214.88,-150.42 4217.82,-149.81 4220.8,-149.17"/>
<polygon fill="#63b8ff" stroke="#63b8ff" points="4006.96,-183.32 3997.85,-188.73 4008.35,-190.18 4006.96,-183.32"/>
</g>
<!-- Node287 -->
<g id="node22" class="node">
<title>Node287</title>
<g id="a_node22"><a xlink:href="d__save_8cpp.html" target="_top" xlink:title=" ">
<polygon fill="white" stroke="#666666" points="4458.5,-145.5 4343.5,-145.5 4343.5,-126.5 4458.5,-126.5 4458.5,-145.5"/>
<text text-anchor="middle" x="4401" y="-133.5" font-family="Helvetica,sans-Serif" font-size="10.00">src/d/save/d_save.cpp</text>
</a>
</g>
</g>
<!-- Node2&#45;&gt;Node287 -->
<g id="edge22" class="edge">
<title>Node2&#45;&gt;Node287</title>
<path fill="none" stroke="#63b8ff" d="M4007.42,-186.92C4152.51,-162.85 4192.7,-173.46 4334,-151 4342.92,-149.58 4352.45,-147.77 4361.44,-145.93"/>
<polygon fill="#63b8ff" stroke="#63b8ff" points="4007.1,-183.43 3997.82,-188.54 4008.26,-190.33 4007.1,-183.43"/>
</g>
<!-- Node4 -->
<g id="node4" class="node">
<title>Node4</title>
<g id="a_node4"><a xlink:href="m__Do__ext_8h.html" target="_top" xlink:title=" ">
<polygon fill="#fff0f0" stroke="red" points="2973,-79.5 2843,-79.5 2843,-60.5 2973,-60.5 2973,-79.5"/>
<text text-anchor="middle" x="2908" y="-67.5" font-family="Helvetica,sans-Serif" font-size="10.00">include/m_Do/m_Do_ext.h</text>
</a>
</g>
</g>
<!-- Node3&#45;&gt;Node4 -->
<g id="edge3" class="edge">
<title>Node3&#45;&gt;Node4</title>
<path fill="none" stroke="#63b8ff" d="M3245,-124.5C3175.79,-114.96 3071.99,-100.1 2982,-85 2972.84,-83.46 2963.08,-81.7 2953.74,-79.96"/>
<polygon fill="#63b8ff" stroke="#63b8ff" points="3244.34,-127.94 3254.72,-125.84 3245.29,-121.01 3244.34,-127.94"/>
</g>
<!-- Node14 -->
<g id="node6" class="node">
<title>Node14</title>
<g id="a_node6"><a xlink:href="d__com__inf__game_8cpp.html" target="_top" xlink:title=" ">
<polygon fill="white" stroke="#666666" points="2557,-85 2449,-85 2449,-55 2557,-55 2557,-85"/>
<text text-anchor="start" x="2457" y="-73" font-family="Helvetica,sans-Serif" font-size="10.00">src/d/com/d_com_inf</text>
<text text-anchor="middle" x="2503" y="-62" font-family="Helvetica,sans-Serif" font-size="10.00">_game.cpp</text>
</a>
</g>
</g>
<!-- Node3&#45;&gt;Node14 -->
<g id="edge5" class="edge">
<title>Node3&#45;&gt;Node14</title>
<path fill="none" stroke="#63b8ff" d="M3241.33,-133.69C3102.09,-130.54 2810.12,-119.98 2566,-85 2563.12,-84.59 2560.17,-84.11 2557.2,-83.6"/>
<polygon fill="#63b8ff" stroke="#63b8ff" points="3241.12,-137.18 3251.19,-133.9 3241.27,-130.18 3241.12,-137.18"/>
</g>
<!-- Node255 -->
<g id="node7" class="node">
<title>Node255</title>
<g id="a_node7"><a xlink:href="d__name_8cpp.html" target="_top" xlink:title=" ">
<polygon fill="white" stroke="#666666" points="3817,-79.5 3723,-79.5 3723,-60.5 3817,-60.5 3817,-79.5"/>
<text text-anchor="middle" x="3770" y="-67.5" font-family="Helvetica,sans-Serif" font-size="10.00">src/d/d_name.cpp</text>
</a>
</g>
</g>
<!-- Node3&#45;&gt;Node255 -->
<g id="edge6" class="edge">
<title>Node3&#45;&gt;Node255</title>
<path fill="none" stroke="#63b8ff" d="M3404.7,-127.38C3484.11,-119.32 3607.91,-104.97 3714,-85 3721.48,-83.59 3729.46,-81.78 3736.98,-79.94"/>
<polygon fill="#63b8ff" stroke="#63b8ff" points="3404.42,-123.89 3394.82,-128.38 3405.12,-130.86 3404.42,-123.89"/>
</g>
<!-- Node3&#45;&gt;Node265 -->
<g id="edge7" class="edge">
<title>Node3&#45;&gt;Node265</title>
<path fill="none" stroke="#63b8ff" d="M3241.36,-129.75C3143.94,-122.78 2976.34,-108.52 2834,-85 2831,-84.5 2827.92,-83.95 2824.83,-83.35"/>
<polygon fill="#63b8ff" stroke="#63b8ff" points="3240.86,-133.23 3251.08,-130.44 3241.35,-126.24 3240.86,-133.23"/>
</g>
<!-- Node58 -->
<g id="node9" class="node">
<title>Node58</title>
<g id="a_node9"><a xlink:href="d__kankyo_8cpp.html" target="_top" xlink:title=" ">
<polygon fill="white" stroke="#666666" points="3969,-79.5 3835,-79.5 3835,-60.5 3969,-60.5 3969,-79.5"/>
<text text-anchor="middle" x="3902" y="-67.5" font-family="Helvetica,sans-Serif" font-size="10.00">src/d/kankyo/d_kankyo.cpp</text>
</a>
</g>
</g>
<!-- Node3&#45;&gt;Node58 -->
<g id="edge8" class="edge">
<title>Node3&#45;&gt;Node58</title>
<path fill="none" stroke="#63b8ff" d="M3404.39,-129C3504.06,-121.17 3677.91,-105.96 3826,-85 3835.96,-83.59 3846.61,-81.8 3856.69,-79.98"/>
<polygon fill="#63b8ff" stroke="#63b8ff" points="3404.41,-125.49 3394.71,-129.76 3404.95,-132.47 3404.41,-125.49"/>
</g>
<!-- Node270 -->
<g id="node10" class="node">
<title>Node270</title>
<g id="a_node10"><a xlink:href="d__kankyo__wether_8cpp.html" target="_top" xlink:title=" ">
<polygon fill="white" stroke="#666666" points="4103,-85 3987,-85 3987,-55 4103,-55 4103,-85"/>
<text text-anchor="start" x="3995" y="-73" font-family="Helvetica,sans-Serif" font-size="10.00">src/d/kankyo/d_kankyo</text>
<text text-anchor="middle" x="4045" y="-62" font-family="Helvetica,sans-Serif" font-size="10.00">_wether.cpp</text>
</a>
</g>
</g>
<!-- Node3&#45;&gt;Node270 -->
<g id="edge9" class="edge">
<title>Node3&#45;&gt;Node270</title>
<path fill="none" stroke="#63b8ff" d="M3404.4,-132.18C3528.61,-127.12 3772.7,-114.16 3978,-85 3980.82,-84.6 3983.71,-84.15 3986.61,-83.67"/>
<polygon fill="#63b8ff" stroke="#63b8ff" points="3404.48,-128.68 3394.63,-132.57 3404.76,-135.67 3404.48,-128.68"/>
</g>
<!-- Node54 -->
<g id="node11" class="node">
<title>Node54</title>
<g id="a_node11"><a xlink:href="d__meter2_8cpp.html" target="_top" xlink:title=" ">
<polygon fill="white" stroke="#666666" points="2703,-79.5 2575,-79.5 2575,-60.5 2703,-60.5 2703,-79.5"/>
<text text-anchor="middle" x="2639" y="-67.5" font-family="Helvetica,sans-Serif" font-size="10.00">src/d/meter/d_meter2.cpp</text>
</a>
</g>
</g>
<!-- Node3&#45;&gt;Node54 -->
<g id="edge10" class="edge">
<title>Node3&#45;&gt;Node54</title>
<path fill="none" stroke="#63b8ff" d="M3241.25,-131.12C3123.77,-124.9 2900.55,-110.72 2712,-85 2702.15,-83.66 2691.63,-81.86 2681.72,-79.99"/>
<polygon fill="#63b8ff" stroke="#63b8ff" points="3240.95,-134.61 3251.12,-131.63 3241.32,-127.62 3240.95,-134.61"/>
</g>
<!-- Node18 -->
<g id="node12" class="node">
<title>Node18</title>
<g id="a_node12"><a xlink:href="d__msg__flow_8cpp.html" target="_top" xlink:title=" ">
<polygon fill="white" stroke="#666666" points="2430.5,-79.5 2297.5,-79.5 2297.5,-60.5 2430.5,-60.5 2430.5,-79.5"/>
<text text-anchor="middle" x="2364" y="-67.5" font-family="Helvetica,sans-Serif" font-size="10.00">src/d/msg/d_msg_flow.cpp</text>
</a>
</g>
</g>
<!-- Node3&#45;&gt;Node18 -->
<g id="edge11" class="edge">
<title>Node3&#45;&gt;Node18</title>
<path fill="none" stroke="#63b8ff" d="M3241.27,-133.8C3085.07,-130.74 2733.56,-120.21 2440,-85 2429.34,-83.72 2417.93,-81.88 2407.26,-79.94"/>
<polygon fill="#63b8ff" stroke="#63b8ff" points="3241.05,-137.29 3251.12,-133.98 3241.18,-130.29 3241.05,-137.29"/>
</g>
<!-- Node284 -->
<g id="node13" class="node">
<title>Node284</title>
<g id="a_node13"><a xlink:href="d__s__logo_8cpp.html" target="_top" xlink:title=" ">
<polygon fill="white" stroke="#666666" points="4228.5,-79.5 4121.5,-79.5 4121.5,-60.5 4228.5,-60.5 4228.5,-79.5"/>
<text text-anchor="middle" x="4175" y="-67.5" font-family="Helvetica,sans-Serif" font-size="10.00">src/d/s/d_s_logo.cpp</text>
</a>
</g>
</g>
<!-- Node3&#45;&gt;Node284 -->
<g id="edge12" class="edge">
<title>Node3&#45;&gt;Node284</title>
<path fill="none" stroke="#63b8ff" d="M3404.61,-134C3548.28,-131.31 3855.49,-121.4 4112,-85 4120.87,-83.74 4130.35,-81.9 4139.2,-79.97"/>
<polygon fill="#63b8ff" stroke="#63b8ff" points="3404.75,-130.5 3394.81,-134.17 3404.87,-137.49 3404.75,-130.5"/>
</g>
<!-- Node285 -->
<g id="node14" class="node">
<title>Node285</title>
<g id="a_node14"><a xlink:href="d__s__name_8cpp.html" target="_top" xlink:title=" ">
<polygon fill="white" stroke="#666666" points="3104.5,-79.5 2991.5,-79.5 2991.5,-60.5 3104.5,-60.5 3104.5,-79.5"/>
<text text-anchor="middle" x="3048" y="-67.5" font-family="Helvetica,sans-Serif" font-size="10.00">src/d/s/d_s_name.cpp</text>
</a>
</g>
</g>
<!-- Node3&#45;&gt;Node285 -->
<g id="edge13" class="edge">
<title>Node3&#45;&gt;Node285</title>
<path fill="none" stroke="#63b8ff" d="M3273.5,-123.48C3219.77,-110.98 3135.13,-91.28 3086.27,-79.91"/>
<polygon fill="#63b8ff" stroke="#63b8ff" points="3272.47,-126.83 3283,-125.69 3274.05,-120.01 3272.47,-126.83"/>
</g>
<!-- Node64 -->
<g id="node15" class="node">
<title>Node64</title>
<g id="a_node15"><a xlink:href="d__s__play_8cpp.html" target="_top" xlink:title=" ">
<polygon fill="white" stroke="#666666" points="3229,-79.5 3123,-79.5 3123,-60.5 3229,-60.5 3229,-79.5"/>
<text text-anchor="middle" x="3176" y="-67.5" font-family="Helvetica,sans-Serif" font-size="10.00">src/d/s/d_s_play.cpp</text>
</a>
</g>
</g>
<!-- Node3&#45;&gt;Node64 -->
<g id="edge14" class="edge">
<title>Node3&#45;&gt;Node64</title>
<path fill="none" stroke="#63b8ff" d="M3292.23,-121.6C3263.38,-109.04 3221.09,-90.63 3196.27,-79.82"/>
<polygon fill="#63b8ff" stroke="#63b8ff" points="3290.61,-124.71 3301.17,-125.5 3293.4,-118.3 3290.61,-124.71"/>
</g>
<!-- Node23 -->
<g id="node16" class="node">
<title>Node23</title>
<g id="a_node16"><a xlink:href="d__shop__system_8cpp.html" target="_top" xlink:title=" ">
<polygon fill="white" stroke="#666666" points="3399,-79.5 3247,-79.5 3247,-60.5 3399,-60.5 3399,-79.5"/>
<text text-anchor="middle" x="3323" y="-67.5" font-family="Helvetica,sans-Serif" font-size="10.00">src/d/shop/d_shop_system.cpp</text>
</a>
</g>
</g>
<!-- Node3&#45;&gt;Node23 -->
<g id="edge15" class="edge">
<title>Node3&#45;&gt;Node23</title>
<path fill="none" stroke="#63b8ff" d="M3323,-114.68C3323,-102.94 3323,-88.77 3323,-79.82"/>
<polygon fill="#63b8ff" stroke="#63b8ff" points="3319.5,-114.59 3323,-124.59 3326.5,-114.59 3319.5,-114.59"/>
</g>
<!-- Node464 -->
<g id="node17" class="node">
<title>Node464</title>
<g id="a_node17"><a xlink:href="m__Do__Reset_8cpp.html" target="_top" xlink:title=" ">
<polygon fill="white" stroke="#666666" points="3553,-79.5 3417,-79.5 3417,-60.5 3553,-60.5 3553,-79.5"/>
<text text-anchor="middle" x="3485" y="-67.5" font-family="Helvetica,sans-Serif" font-size="10.00">src/m_Do/m_Do_Reset.cpp</text>
</a>
</g>
</g>
<!-- Node3&#45;&gt;Node464 -->
<g id="edge16" class="edge">
<title>Node3&#45;&gt;Node464</title>
<path fill="none" stroke="#63b8ff" d="M3356.04,-121.95C3387.75,-109.42 3434.76,-90.85 3462.41,-79.93"/>
<polygon fill="#63b8ff" stroke="#63b8ff" points="3354.95,-118.62 3346.93,-125.54 3357.52,-125.13 3354.95,-118.62"/>
</g>
<!-- Node293 -->
<g id="node18" class="node">
<title>Node293</title>
<g id="a_node18"><a xlink:href="m__Do__audio_8cpp.html" target="_top" xlink:title=" ">
<polygon fill="white" stroke="#666666" points="3705,-79.5 3571,-79.5 3571,-60.5 3705,-60.5 3705,-79.5"/>
<text text-anchor="middle" x="3638" y="-67.5" font-family="Helvetica,sans-Serif" font-size="10.00">src/m_Do/m_Do_audio.cpp</text>
</a>
</g>
</g>
<!-- Node3&#45;&gt;Node293 -->
<g id="edge17" class="edge">
<title>Node3&#45;&gt;Node293</title>
<path fill="none" stroke="#63b8ff" d="M3378.14,-123.8C3439.51,-111.33 3537.43,-91.43 3593.91,-79.96"/>
<polygon fill="#63b8ff" stroke="#63b8ff" points="3377.72,-120.31 3368.61,-125.73 3379.11,-127.17 3377.72,-120.31"/>
</g>
<!-- Node294 -->
<g id="node5" class="node">
<title>Node294</title>
<g id="a_node5"><a xlink:href="m__Do__ext_8cpp.html" target="_top" xlink:title=" ">
<polygon fill="white" stroke="#666666" points="3643.5,-19 3520.5,-19 3520.5,0 3643.5,0 3643.5,-19"/>
<text text-anchor="middle" x="3582" y="-7" font-family="Helvetica,sans-Serif" font-size="10.00">src/m_Do/m_Do_ext.cpp</text>
</a>
</g>
</g>
<!-- Node4&#45;&gt;Node294 -->
<g id="edge4" class="edge">
<title>Node4&#45;&gt;Node294</title>
<path fill="none" stroke="#63b8ff" d="M2962.05,-58.04C2968.75,-56.9 2975.52,-55.85 2982,-55 3177.48,-29.34 3410.87,-17.33 3520.01,-12.79"/>
<polygon fill="#63b8ff" stroke="#63b8ff" points="2961.63,-54.56 2952.4,-59.77 2962.86,-61.46 2961.63,-54.56"/>
</g>
<!-- Node466&#45;&gt;Node294 -->
<g id="edge57" class="edge">
<title>Node466&#45;&gt;Node294</title>
<path fill="none" stroke="#63b8ff" d="M1410.78,-200.72C1660.1,-199.34 2616.46,-191.54 3402,-151 3413.63,-150.4 4230.09,-93.55 4238,-85 4247.05,-75.21 4247.1,-64.74 4238,-55 4197.96,-12.15 3799.49,-9.42 3643.84,-10.01"/>
<polygon fill="#63b8ff" stroke="#63b8ff" points="1410.94,-197.22 1400.96,-200.78 1410.98,-204.22 1410.94,-197.22"/>
</g>
<!-- Node6 -->
<g id="node24" class="node">
<title>Node6</title>
<g id="a_node24"><a xlink:href="d__a__alink_8h.html" target="_top" xlink:title=" ">
<polygon fill="#fff0f0" stroke="red" points="2036,-145.5 1920,-145.5 1920,-126.5 2036,-126.5 2036,-145.5"/>
<text text-anchor="middle" x="1978" y="-133.5" font-family="Helvetica,sans-Serif" font-size="10.00">include/d/a/d_a_alink.h</text>
</a>
</g>
</g>
<!-- Node466&#45;&gt;Node6 -->
<g id="edge24" class="edge">
<title>Node466&#45;&gt;Node6</title>
<path fill="none" stroke="#63b8ff" d="M1410.6,-197.82C1514.15,-191.95 1729.52,-177.53 1910,-151 1919.18,-149.65 1928.99,-147.85 1938.22,-145.98"/>
<polygon fill="#63b8ff" stroke="#63b8ff" points="1410.43,-194.32 1400.64,-198.37 1410.82,-201.31 1410.43,-194.32"/>
</g>
<!-- Node21 -->
<g id="node32" class="node">
<title>Node21</title>
<g id="a_node32"><a xlink:href="d__a__npc_8h.html" target="_top" xlink:title=" ">
<polygon fill="#fff0f0" stroke="red" points="247.5,-145.5 136.5,-145.5 136.5,-126.5 247.5,-126.5 247.5,-145.5"/>
<text text-anchor="middle" x="192" y="-133.5" font-family="Helvetica,sans-Serif" font-size="10.00">include/d/a/d_a_npc.h</text>
</a>
</g>
</g>
<!-- Node466&#45;&gt;Node21 -->
<g id="edge34" class="edge">
<title>Node466&#45;&gt;Node21</title>
<path fill="none" stroke="#63b8ff" d="M1287.38,-199.53C1087.52,-194.55 458.6,-177.14 257,-151 247.73,-149.8 237.82,-147.95 228.6,-146"/>
<polygon fill="#63b8ff" stroke="#63b8ff" points="1287.21,-203.03 1297.29,-199.77 1287.38,-196.03 1287.21,-203.03"/>
</g>
<!-- Node31 -->
<g id="node33" class="node">
<title>Node31</title>
<g id="a_node33"><a xlink:href="d__a__b__ob_8h.html" target="_top" xlink:title=" ">
<polygon fill="#fff0f0" stroke="red" points="372,-151 266,-151 266,-121 372,-121 372,-151"/>
<text text-anchor="start" x="274" y="-139" font-family="Helvetica,sans-Serif" font-size="10.00">include/rel/d/a/b/d</text>
<text text-anchor="middle" x="319" y="-128" font-family="Helvetica,sans-Serif" font-size="10.00">_a_b_ob/d_a_b_ob.h</text>
</a>
</g>
</g>
<!-- Node466&#45;&gt;Node31 -->
<g id="edge35" class="edge">
<title>Node466&#45;&gt;Node31</title>
<path fill="none" stroke="#63b8ff" d="M1287.08,-201.45C1133.1,-201.77 720.77,-197.79 381,-151 378.16,-150.61 375.25,-150.15 372.33,-149.65"/>
<polygon fill="#63b8ff" stroke="#63b8ff" points="1287.08,-204.95 1297.07,-201.42 1287.06,-197.95 1287.08,-204.95"/>
</g>
<!-- Node75 -->
<g id="node34" class="node">
<title>Node75</title>
<g id="a_node34"><a xlink:href="d__a__cstaF_8h.html" target="_top" xlink:title=" ">
<polygon fill="#fff0f0" stroke="red" points="1901.5,-151 1798.5,-151 1798.5,-121 1901.5,-121 1901.5,-151"/>
<text text-anchor="start" x="1806.5" y="-139" font-family="Helvetica,sans-Serif" font-size="10.00">include/rel/d/a/d_a</text>
<text text-anchor="middle" x="1850" y="-128" font-family="Helvetica,sans-Serif" font-size="10.00">_cstaF/d_a_cstaF.h</text>
</a>
</g>
</g>
<!-- Node466&#45;&gt;Node75 -->
<g id="edge36" class="edge">
<title>Node466&#45;&gt;Node75</title>
<path fill="none" stroke="#63b8ff" d="M1410.71,-196.19C1496.11,-189.04 1654.97,-173.92 1789,-151 1792,-150.49 1795.07,-149.92 1798.17,-149.31"/>
<polygon fill="#63b8ff" stroke="#63b8ff" points="1410.6,-192.69 1400.92,-197 1411.17,-199.67 1410.6,-192.69"/>
</g>
<!-- Node440 -->
<g id="node35" class="node">
<title>Node440</title>
<g id="a_node35"><a xlink:href="d__a__cstatue_8h.html" target="_top" xlink:title=" ">
<polygon fill="#fff0f0" stroke="red" points="1780,-151 1662,-151 1662,-121 1780,-121 1780,-151"/>
<text text-anchor="start" x="1670" y="-139" font-family="Helvetica,sans-Serif" font-size="10.00">include/rel/d/a/d_a</text>
<text text-anchor="middle" x="1721" y="-128" font-family="Helvetica,sans-Serif" font-size="10.00">_cstatue/d_a_cstatue.h</text>
</a>
</g>
</g>
<!-- Node466&#45;&gt;Node440 -->
<g id="edge38" class="edge">
<title>Node466&#45;&gt;Node440</title>
<path fill="none" stroke="#63b8ff" d="M1410.46,-191.63C1471.95,-182.08 1569.2,-166.51 1653,-151 1655.84,-150.47 1658.75,-149.92 1661.69,-149.36"/>
<polygon fill="#63b8ff" stroke="#63b8ff" points="1410.24,-188.12 1400.9,-193.11 1411.32,-195.04 1410.24,-188.12"/>
</g>
<!-- Node306 -->
<g id="node36" class="node">
<title>Node306</title>
<g id="a_node36"><a xlink:href="d__a__horse_8h.html" target="_top" xlink:title=" ">
<polygon fill="#fff0f0" stroke="red" points="2317.5,-151 2216.5,-151 2216.5,-121 2317.5,-121 2317.5,-151"/>
<text text-anchor="start" x="2224.5" y="-139" font-family="Helvetica,sans-Serif" font-size="10.00">include/rel/d/a/d_a</text>
<text text-anchor="middle" x="2267" y="-128" font-family="Helvetica,sans-Serif" font-size="10.00">_horse/d_a_horse.h</text>
</a>
</g>
</g>
<!-- Node466&#45;&gt;Node306 -->
<g id="edge40" class="edge">
<title>Node466&#45;&gt;Node306</title>
<path fill="none" stroke="#63b8ff" d="M1410.57,-198.06C1543.64,-191.51 1867.93,-174.39 2139,-151 2164.5,-148.8 2192.8,-145.77 2216.29,-143.09"/>
<polygon fill="#63b8ff" stroke="#63b8ff" points="1410.76,-194.55 1400.94,-198.54 1411.1,-201.54 1410.76,-194.55"/>
</g>
<!-- Node37 -->
<g id="node37" class="node">
<title>Node37</title>
<g id="a_node37"><a xlink:href="d__a__e__wb_8h.html" target="_top" xlink:title=" ">
<polygon fill="#fff0f0" stroke="red" points="2241,-85 2131,-85 2131,-55 2241,-55 2241,-85"/>
<text text-anchor="start" x="2139" y="-73" font-family="Helvetica,sans-Serif" font-size="10.00">include/rel/d/a/e/d</text>
<text text-anchor="middle" x="2186" y="-62" font-family="Helvetica,sans-Serif" font-size="10.00">_a_e_wb/d_a_e_wb.h</text>
</a>
</g>
</g>
<!-- Node466&#45;&gt;Node37 -->
<g id="edge47" class="edge">
<title>Node466&#45;&gt;Node37</title>
<path fill="none" stroke="#63b8ff" d="M1410.47,-200.05C1557.73,-197.21 1927.17,-186.66 2045,-151 2092.41,-136.65 2141.28,-104.22 2167.19,-85.35"/>
<polygon fill="#63b8ff" stroke="#63b8ff" points="1410.46,-196.55 1400.52,-200.23 1410.59,-203.55 1410.46,-196.55"/>
</g>
<!-- Node441 -->
<g id="node38" class="node">
<title>Node441</title>
<g id="a_node38"><a xlink:href="d__a__mg__rod_8h.html" target="_top" xlink:title=" ">
<polygon fill="white" stroke="#666666" points="118,-151 0,-151 0,-121 118,-121 118,-151"/>
<text text-anchor="start" x="8" y="-139" font-family="Helvetica,sans-Serif" font-size="10.00">include/rel/d/a/d_a</text>
<text text-anchor="middle" x="59" y="-128" font-family="Helvetica,sans-Serif" font-size="10.00">_mg_rod/d_a_mg_rod.h</text>
</a>
</g>
</g>
<!-- Node466&#45;&gt;Node441 -->
<g id="edge45" class="edge">
<title>Node466&#45;&gt;Node441</title>
<path fill="none" stroke="#63b8ff" d="M1287.41,-199.8C1072.31,-195.41 355.29,-178.98 127,-151 124.13,-150.65 121.2,-150.24 118.24,-149.79"/>
<polygon fill="#63b8ff" stroke="#63b8ff" points="1287.18,-203.3 1297.25,-200 1287.33,-196.3 1287.18,-203.3"/>
</g>
<!-- Node40 -->
<g id="node39" class="node">
<title>Node40</title>
<g id="a_node39"><a xlink:href="d__a__e__yk_8h.html" target="_top" xlink:title=" ">
<polygon fill="#fff0f0" stroke="red" points="494,-151 390,-151 390,-121 494,-121 494,-151"/>
<text text-anchor="start" x="398" y="-139" font-family="Helvetica,sans-Serif" font-size="10.00">include/rel/d/a/e/d</text>
<text text-anchor="middle" x="442" y="-128" font-family="Helvetica,sans-Serif" font-size="10.00">_a_e_yk/d_a_e_yk.h</text>
</a>
</g>
</g>
<!-- Node466&#45;&gt;Node40 -->
<g id="edge48" class="edge">
<title>Node466&#45;&gt;Node40</title>
<path fill="none" stroke="#63b8ff" d="M1287.34,-200.86C1147.23,-199.79 794.47,-192.76 503,-151 500.2,-150.6 497.35,-150.14 494.47,-149.63"/>
<polygon fill="#63b8ff" stroke="#63b8ff" points="1287.11,-204.36 1297.13,-200.93 1287.16,-197.36 1287.11,-204.36"/>
</g>
<!-- Node42 -->
<g id="node40" class="node">
<title>Node42</title>
<g id="a_node40"><a xlink:href="d__a__e__ym_8h.html" target="_top" xlink:title=" ">
<polygon fill="#fff0f0" stroke="red" points="622,-151 512,-151 512,-121 622,-121 622,-151"/>
<text text-anchor="start" x="520" y="-139" font-family="Helvetica,sans-Serif" font-size="10.00">include/rel/d/a/e/d</text>
<text text-anchor="middle" x="567" y="-128" font-family="Helvetica,sans-Serif" font-size="10.00">_a_e_ym/d_a_e_ym.h</text>
</a>
</g>
</g>
<!-- Node466&#45;&gt;Node42 -->
<g id="edge49" class="edge">
<title>Node466&#45;&gt;Node42</title>
<path fill="none" stroke="#63b8ff" d="M1287.51,-199.74C1163.01,-196.51 872.39,-185.62 631,-151 628.19,-150.6 625.31,-150.14 622.41,-149.64"/>
<polygon fill="#63b8ff" stroke="#63b8ff" points="1287.08,-203.23 1297.17,-199.98 1287.26,-196.23 1287.08,-203.23"/>
</g>
<!-- Node467 -->
<g id="node41" class="node">
<title>Node467</title>
<g id="a_node41"><a xlink:href="Z2Creature_8cpp.html" target="_top" xlink:title=" ">
<polygon fill="white" stroke="#666666" points="793.5,-145.5 640.5,-145.5 640.5,-126.5 793.5,-126.5 793.5,-145.5"/>
<text text-anchor="middle" x="717" y="-133.5" font-family="Helvetica,sans-Serif" font-size="10.00">libs/Z2AudioLib/Z2Creature.cpp</text>
</a>
</g>
</g>
<!-- Node466&#45;&gt;Node467 -->
<g id="edge50" class="edge">
<title>Node466&#45;&gt;Node467</title>
<path fill="none" stroke="#63b8ff" d="M1287.59,-196.79C1186.38,-189.53 978.26,-173.26 803,-151 791.75,-149.57 779.7,-147.78 768.3,-145.96"/>
<polygon fill="#63b8ff" stroke="#63b8ff" points="1287.08,-200.26 1297.3,-197.48 1287.58,-193.28 1287.08,-200.26"/>
</g>
<!-- Node181 -->
<g id="node42" class="node">
<title>Node181</title>
<g id="a_node42"><a xlink:href="Z2LinkMgr_8cpp.html" target="_top" xlink:title=" ">
<polygon fill="white" stroke="#666666" points="964,-145.5 812,-145.5 812,-126.5 964,-126.5 964,-145.5"/>
<text text-anchor="middle" x="888" y="-133.5" font-family="Helvetica,sans-Serif" font-size="10.00">libs/Z2AudioLib/Z2LinkMgr.cpp</text>
</a>
</g>
</g>
<!-- Node466&#45;&gt;Node181 -->
<g id="edge51" class="edge">
<title>Node466&#45;&gt;Node181</title>
<path fill="none" stroke="#63b8ff" d="M1287.73,-193.45C1213.24,-184.12 1083.74,-167.48 973,-151 962.64,-149.46 951.6,-147.71 941.01,-145.99"/>
<polygon fill="#63b8ff" stroke="#63b8ff" points="1286.9,-196.87 1297.25,-194.63 1287.76,-189.92 1286.9,-196.87"/>
</g>
<!-- Node468 -->
<g id="node43" class="node">
<title>Node468</title>
<g id="a_node43"><a xlink:href="Z2SoundObjMgr_8cpp.html" target="_top" xlink:title=" ">
<polygon fill="white" stroke="#666666" points="1123.5,-151 982.5,-151 982.5,-121 1123.5,-121 1123.5,-151"/>
<text text-anchor="start" x="990.5" y="-139" font-family="Helvetica,sans-Serif" font-size="10.00">libs/Z2AudioLib/Z2SoundObj</text>
<text text-anchor="middle" x="1053" y="-128" font-family="Helvetica,sans-Serif" font-size="10.00">Mgr.cpp</text>
</a>
</g>
</g>
<!-- Node466&#45;&gt;Node468 -->
<g id="edge52" class="edge">
<title>Node466&#45;&gt;Node468</title>
<path fill="none" stroke="#63b8ff" d="M1287.72,-187.75C1238.77,-177.17 1170.26,-162.35 1119.89,-151.46"/>
<polygon fill="#63b8ff" stroke="#63b8ff" points="1286.79,-191.13 1297.31,-189.82 1288.27,-184.29 1286.79,-191.13"/>
</g>
<!-- Node469 -->
<g id="node44" class="node">
<title>Node469</title>
<g id="a_node44"><a xlink:href="Z2WolfHowlMgr_8cpp.html" target="_top" xlink:title=" ">
<polygon fill="white" stroke="#666666" points="1282,-151 1142,-151 1142,-121 1282,-121 1282,-151"/>
<text text-anchor="start" x="1150" y="-139" font-family="Helvetica,sans-Serif" font-size="10.00">libs/Z2AudioLib/Z2WolfHowl</text>
<text text-anchor="middle" x="1212" y="-128" font-family="Helvetica,sans-Serif" font-size="10.00">Mgr.cpp</text>
</a>
</g>
</g>
<!-- Node466&#45;&gt;Node469 -->
<g id="edge53" class="edge">
<title>Node466&#45;&gt;Node469</title>
<path fill="none" stroke="#63b8ff" d="M1308.02,-181.86C1287.04,-172.05 1261.92,-160.32 1242.64,-151.31"/>
<polygon fill="#63b8ff" stroke="#63b8ff" points="1306.34,-184.94 1316.88,-186 1309.3,-178.59 1306.34,-184.94"/>
</g>
<!-- Node183 -->
<g id="node45" class="node">
<title>Node183</title>
<g id="a_node45"><a xlink:href="d__a__b__go_8cpp.html" target="_top" xlink:title=" ">
<polygon fill="white" stroke="#666666" points="1397.5,-151 1300.5,-151 1300.5,-121 1397.5,-121 1397.5,-151"/>
<text text-anchor="start" x="1308.5" y="-139" font-family="Helvetica,sans-Serif" font-size="10.00">rel/d/a/b/d_a_b_go</text>
<text text-anchor="middle" x="1349" y="-128" font-family="Helvetica,sans-Serif" font-size="10.00">/d_a_b_go.cpp</text>
</a>
</g>
</g>
<!-- Node466&#45;&gt;Node183 -->
<g id="edge54" class="edge">
<title>Node466&#45;&gt;Node183</title>
<path fill="none" stroke="#63b8ff" d="M1349,-175.39C1349,-167.13 1349,-158.28 1349,-151.16"/>
<polygon fill="#63b8ff" stroke="#63b8ff" points="1345.5,-175.28 1349,-185.28 1352.5,-175.28 1345.5,-175.28"/>
</g>
<!-- Node46 -->
<g id="node46" class="node">
<title>Node46</title>
<g id="a_node46"><a xlink:href="d__cc__uty_8cpp.html" target="_top" xlink:title=" ">
<polygon fill="white" stroke="#666666" points="1528,-145.5 1416,-145.5 1416,-126.5 1528,-126.5 1528,-145.5"/>
<text text-anchor="middle" x="1472" y="-133.5" font-family="Helvetica,sans-Serif" font-size="10.00">src/d/cc/d_cc_uty.cpp</text>
</a>
</g>
</g>
<!-- Node466&#45;&gt;Node46 -->
<g id="edge55" class="edge">
<title>Node466&#45;&gt;Node46</title>
<path fill="none" stroke="#63b8ff" d="M1386.61,-181.43C1409.31,-169.62 1437.14,-155.14 1454.73,-145.99"/>
<polygon fill="#63b8ff" stroke="#63b8ff" points="1385.2,-178.22 1377.95,-185.94 1388.43,-184.43 1385.2,-178.22"/>
</g>
<!-- Node247 -->
<g id="node47" class="node">
<title>Node247</title>
<g id="a_node47"><a xlink:href="d__eye__hl_8cpp.html" target="_top" xlink:title=" ">
<polygon fill="white" stroke="#666666" points="1644,-145.5 1546,-145.5 1546,-126.5 1644,-126.5 1644,-145.5"/>
<text text-anchor="middle" x="1595" y="-133.5" font-family="Helvetica,sans-Serif" font-size="10.00">src/d/d_eye_hl.cpp</text>
</a>
</g>
</g>
<!-- Node466&#45;&gt;Node247 -->
<g id="edge56" class="edge">
<title>Node466&#45;&gt;Node247</title>
<path fill="none" stroke="#63b8ff" d="M1410.44,-185.02C1457.85,-172.68 1521.7,-156.07 1560.52,-145.97"/>
<polygon fill="#63b8ff" stroke="#63b8ff" points="1409.64,-181.61 1400.84,-187.51 1411.4,-188.38 1409.64,-181.61"/>
</g>
<!-- Node6&#45;&gt;Node14 -->
<g id="edge32" class="edge">
<title>Node6&#45;&gt;Node14</title>
<path fill="none" stroke="#63b8ff" d="M2047.7,-129.78C2138.26,-122.47 2301.09,-107.5 2439,-85 2442.14,-84.49 2445.36,-83.92 2448.61,-83.31"/>
<polygon fill="#63b8ff" stroke="#63b8ff" points="2047.69,-126.27 2038,-130.56 2048.24,-133.25 2047.69,-126.27"/>
</g>
<!-- Node6&#45;&gt;Node18 -->
<g id="edge33" class="edge">
<title>Node6&#45;&gt;Node18</title>
<path fill="none" stroke="#63b8ff" d="M2043.25,-124.18C2118.27,-111.74 2240.04,-91.55 2309.98,-79.96"/>
<polygon fill="#63b8ff" stroke="#63b8ff" points="2042.86,-120.7 2033.57,-125.79 2044.01,-127.6 2042.86,-120.7"/>
</g>
<!-- Node7 -->
<g id="node25" class="node">
<title>Node7</title>
<g id="a_node25"><a xlink:href="d__a__boomerang_8cpp.html" target="_top" xlink:title=" ">
<polygon fill="white" stroke="#666666" points="1842,-85 1726,-85 1726,-55 1842,-55 1842,-85"/>
<text text-anchor="start" x="1734" y="-73" font-family="Helvetica,sans-Serif" font-size="10.00">rel/d/a/d_a_boomerang</text>
<text text-anchor="middle" x="1784" y="-62" font-family="Helvetica,sans-Serif" font-size="10.00">/d_a_boomerang.cpp</text>
</a>
</g>
</g>
<!-- Node6&#45;&gt;Node7 -->
<g id="edge25" class="edge">
<title>Node6&#45;&gt;Node7</title>
<path fill="none" stroke="#63b8ff" d="M1940.27,-122.55C1908.07,-111.93 1861.74,-96.65 1827.89,-85.48"/>
<polygon fill="#63b8ff" stroke="#63b8ff" points="1938.99,-125.82 1949.59,-125.63 1941.19,-119.17 1938.99,-125.82"/>
</g>
<!-- Node8 -->
<g id="node26" class="node">
<title>Node8</title>
<g id="a_node26"><a xlink:href="d__a__crod_8cpp.html" target="_top" xlink:title=" ">
<polygon fill="white" stroke="#666666" points="1375.5,-85 1280.5,-85 1280.5,-55 1375.5,-55 1375.5,-85"/>
<text text-anchor="start" x="1288.5" y="-73" font-family="Helvetica,sans-Serif" font-size="10.00">rel/d/a/d_a_crod/d</text>
<text text-anchor="middle" x="1328" y="-62" font-family="Helvetica,sans-Serif" font-size="10.00">_a_crod.cpp</text>
</a>
</g>
</g>
<!-- Node6&#45;&gt;Node8 -->
<g id="edge26" class="edge">
<title>Node6&#45;&gt;Node8</title>
<path fill="none" stroke="#63b8ff" d="M1927.68,-123.86C1921.74,-122.77 1915.75,-121.79 1910,-121 1680.48,-89.57 1619.21,-118.61 1390,-85 1385.41,-84.33 1380.66,-83.5 1375.93,-82.58"/>
<polygon fill="#63b8ff" stroke="#63b8ff" points="1926.99,-127.29 1937.47,-125.74 1928.32,-120.41 1926.99,-127.29"/>
</g>
<!-- Node9 -->
<g id="node27" class="node">
<title>Node9</title>
<g id="a_node27"><a xlink:href="d__a__spinner_8cpp.html" target="_top" xlink:title=" ">
<polygon fill="white" stroke="#666666" points="1959.5,-85 1860.5,-85 1860.5,-55 1959.5,-55 1959.5,-85"/>
<text text-anchor="start" x="1868.5" y="-73" font-family="Helvetica,sans-Serif" font-size="10.00">rel/d/a/d_a_spinner</text>
<text text-anchor="middle" x="1910" y="-62" font-family="Helvetica,sans-Serif" font-size="10.00">/d_a_spinner.cpp</text>
</a>
</g>
</g>
<!-- Node6&#45;&gt;Node9 -->
<g id="edge27" class="edge">
<title>Node6&#45;&gt;Node9</title>
<path fill="none" stroke="#63b8ff" d="M1960.27,-118.31C1949.44,-108.12 1935.75,-95.23 1925.38,-85.48"/>
<polygon fill="#63b8ff" stroke="#63b8ff" points="1957.76,-120.76 1967.44,-125.06 1962.56,-115.66 1957.76,-120.76"/>
</g>
<!-- Node10 -->
<g id="node28" class="node">
<title>Node10</title>
<g id="a_node28"><a xlink:href="d__a__tag__mwait_8cpp.html" target="_top" xlink:title=" ">
<polygon fill="white" stroke="#666666" points="2112.5,-85 1977.5,-85 1977.5,-55 2112.5,-55 2112.5,-85"/>
<text text-anchor="start" x="1985.5" y="-73" font-family="Helvetica,sans-Serif" font-size="10.00">rel/d/a/tag/d_a_tag</text>
<text text-anchor="middle" x="2045" y="-62" font-family="Helvetica,sans-Serif" font-size="10.00">_mwait/d_a_tag_mwait.cpp</text>
</a>
</g>
</g>
<!-- Node6&#45;&gt;Node10 -->
<g id="edge28" class="edge">
<title>Node6&#45;&gt;Node10</title>
<path fill="none" stroke="#63b8ff" d="M1995.47,-118.31C2006.14,-108.12 2019.63,-95.23 2029.84,-85.48"/>
<polygon fill="#63b8ff" stroke="#63b8ff" points="1993.22,-115.62 1988.41,-125.06 1998.06,-120.68 1993.22,-115.62"/>
</g>
<!-- Node11 -->
<g id="node29" class="node">
<title>Node11</title>
<g id="a_node29"><a xlink:href="d__a__tag__wljump_8cpp.html" target="_top" xlink:title=" ">
<polygon fill="white" stroke="#666666" points="1708,-85 1564,-85 1564,-55 1708,-55 1708,-85"/>
<text text-anchor="start" x="1572" y="-73" font-family="Helvetica,sans-Serif" font-size="10.00">rel/d/a/tag/d_a_tag</text>
<text text-anchor="middle" x="1636" y="-62" font-family="Helvetica,sans-Serif" font-size="10.00">_wljump/d_a_tag_wljump.cpp</text>
</a>
</g>
</g>
<!-- Node6&#45;&gt;Node11 -->
<g id="edge29" class="edge">
<title>Node6&#45;&gt;Node11</title>
<path fill="none" stroke="#63b8ff" d="M1924.13,-123.79C1919.36,-122.83 1914.59,-121.89 1910,-121 1841.76,-107.75 1763.77,-93.62 1708.48,-83.77"/>
<polygon fill="#63b8ff" stroke="#63b8ff" points="1923.25,-127.18 1933.74,-125.74 1924.64,-120.32 1923.25,-127.18"/>
</g>
<!-- Node12 -->
<g id="node30" class="node">
<title>Node12</title>
<g id="a_node30"><a xlink:href="d__a__alink_8cpp.html" target="_top" xlink:title=" ">
<polygon fill="white" stroke="#666666" points="1849.5,-19 1740.5,-19 1740.5,0 1849.5,0 1849.5,-19"/>
<text text-anchor="middle" x="1795" y="-7" font-family="Helvetica,sans-Serif" font-size="10.00">src/d/a/d_a_alink.cpp</text>
</a>
</g>
</g>
<!-- Node6&#45;&gt;Node12 -->
<g id="edge30" class="edge">
<title>Node6&#45;&gt;Node12</title>
<path fill="none" stroke="#63b8ff" d="M1927.68,-123.88C1921.74,-122.8 1915.75,-121.8 1910,-121 1856.26,-113.51 1459.93,-124.76 1423,-85 1413.93,-75.23 1414.15,-64.97 1423,-55 1443.7,-31.68 1642.09,-18.33 1740.38,-13.1"/>
<polygon fill="#63b8ff" stroke="#63b8ff" points="1926.99,-127.31 1937.47,-125.77 1928.31,-120.44 1926.99,-127.31"/>
</g>
<!-- Node13 -->
<g id="node31" class="node">
<title>Node13</title>
<g id="a_node31"><a xlink:href="d__a__player_8cpp.html" target="_top" xlink:title=" ">
<polygon fill="white" stroke="#666666" points="1546,-79.5 1432,-79.5 1432,-60.5 1546,-60.5 1546,-79.5"/>
<text text-anchor="middle" x="1489" y="-67.5" font-family="Helvetica,sans-Serif" font-size="10.00">src/d/a/d_a_player.cpp</text>
</a>
</g>
</g>
<!-- Node6&#45;&gt;Node13 -->
<g id="edge31" class="edge">
<title>Node6&#45;&gt;Node13</title>
<path fill="none" stroke="#63b8ff" d="M1926.98,-123.91C1921.26,-122.84 1915.52,-121.85 1910,-121 1753.24,-96.98 1711.68,-109.49 1555,-85 1546.2,-83.63 1536.81,-81.83 1527.96,-79.99"/>
<polygon fill="#63b8ff" stroke="#63b8ff" points="1925.88,-127.26 1936.36,-125.74 1927.22,-120.39 1925.88,-127.26"/>
</g>
<!-- Node75&#45;&gt;Node8 -->
<g id="edge37" class="edge">
<title>Node75&#45;&gt;Node8</title>
<path fill="none" stroke="#63b8ff" d="M1786.97,-120.84C1611.17,-93.81 1562.28,-112.1 1390,-85 1385.42,-84.28 1380.68,-83.42 1375.94,-82.48"/>
<polygon fill="#63b8ff" stroke="#63b8ff" points="1786.26,-124.28 1796.68,-122.37 1787.35,-117.36 1786.26,-124.28"/>
</g>
<!-- Node440&#45;&gt;Node8 -->
<g id="edge39" class="edge">
<title>Node440&#45;&gt;Node8</title>
<path fill="none" stroke="#63b8ff" d="M1650.61,-120.67C1534.78,-101.37 1502.58,-105.38 1390,-85 1385.44,-84.17 1380.71,-83.24 1375.98,-82.26"/>
<polygon fill="#63b8ff" stroke="#63b8ff" points="1649.77,-124.08 1660.21,-122.3 1650.94,-117.18 1649.77,-124.08"/>
</g>
<!-- Node306&#45;&gt;Node54 -->
<g id="edge44" class="edge">
<title>Node306&#45;&gt;Node54</title>
<path fill="none" stroke="#63b8ff" d="M2329.12,-125.05C2389.65,-115.26 2484.24,-99.67 2566,-85 2574.76,-83.43 2584.11,-81.68 2593.08,-79.98"/>
<polygon fill="#63b8ff" stroke="#63b8ff" points="2328.66,-121.58 2319.35,-126.63 2329.78,-128.49 2328.66,-121.58"/>
</g>
<!-- Node306&#45;&gt;Node12 -->
<g id="edge43" class="edge">
<title>Node306&#45;&gt;Node12</title>
<path fill="none" stroke="#63b8ff" d="M2268.83,-109.29C2268.59,-91.38 2264.97,-68.38 2250,-55 2220.71,-28.82 1964.54,-16.52 1849.97,-12.29"/>
<polygon fill="#63b8ff" stroke="#63b8ff" points="2265.33,-109.11 2268.59,-119.19 2272.33,-109.28 2265.33,-109.11"/>
</g>
<!-- Node306&#45;&gt;Node37 -->
<g id="edge41" class="edge">
<title>Node306&#45;&gt;Node37</title>
<path fill="none" stroke="#63b8ff" d="M2240.04,-113.7C2228.27,-104.4 2214.77,-93.73 2204.21,-85.39"/>
<polygon fill="#63b8ff" stroke="#63b8ff" points="2237.82,-116.4 2247.84,-119.86 2242.16,-110.91 2237.82,-116.4"/>
</g>
<!-- Node37&#45;&gt;Node12 -->
<g id="edge42" class="edge">
<title>Node37&#45;&gt;Node12</title>
<path fill="none" stroke="#63b8ff" d="M2119.69,-54.87C2018.44,-37.37 1912.68,-24.07 1850,-16.71"/>
<polygon fill="#63b8ff" stroke="#63b8ff" points="2118.79,-58.26 2129.25,-56.54 2120,-51.37 2118.79,-58.26"/>
</g>
<!-- Node441&#45;&gt;Node12 -->
<g id="edge46" class="edge">
<title>Node441&#45;&gt;Node12</title>
<path fill="none" stroke="#63b8ff" d="M129.49,-120.79C765.87,-35.47 1530.98,-15.46 1740.01,-11.41"/>
<polygon fill="#63b8ff" stroke="#63b8ff" points="129.2,-117.3 119.76,-122.1 130.13,-124.23 129.2,-117.3"/>
</g>
<!-- Node470&#45;&gt;Node2 -->
<g id="edge59" class="edge">
<title>Node470&#45;&gt;Node2</title>
<path fill="none" stroke="#63b8ff" d="M3970.44,-243.11C3965.12,-234.38 3959.27,-224.78 3954.63,-217.16"/>
<polygon fill="#63b8ff" stroke="#63b8ff" points="3967.36,-244.79 3975.56,-251.5 3973.34,-241.14 3967.36,-244.79"/>
</g>
<!-- Node471 -->
<g id="node49" class="node">
<title>Node471</title>
<g id="a_node49"><a xlink:href="Z2SpeechMgr2_8cpp.html" target="_top" xlink:title=" ">
<polygon fill="white" stroke="#666666" points="4145.5,-217 4014.5,-217 4014.5,-187 4145.5,-187 4145.5,-217"/>
<text text-anchor="start" x="4022.5" y="-205" font-family="Helvetica,sans-Serif" font-size="10.00">libs/Z2AudioLib/Z2Speech</text>
<text text-anchor="middle" x="4080" y="-194" font-family="Helvetica,sans-Serif" font-size="10.00">Mgr2.cpp</text>
</a>
</g>
</g>
<!-- Node470&#45;&gt;Node471 -->
<g id="edge60" class="edge">
<title>Node470&#45;&gt;Node471</title>
<path fill="none" stroke="#63b8ff" d="M4015.39,-246.52C4029.48,-237.03 4045.89,-225.98 4058.65,-217.39"/>
<polygon fill="#63b8ff" stroke="#63b8ff" points="4013.68,-243.46 4007.34,-251.95 4017.59,-249.27 4013.68,-243.46"/>
</g>
</g>
</svg>
