<?xml version="1.0" encoding="UTF-8" standalone="no"?>
<!DOCTYPE svg PUBLIC "-//W3C//DTD SVG 1.1//EN"
 "http://www.w3.org/Graphics/SVG/1.1/DTD/svg11.dtd">
<!-- Generated by graphviz version 7.0.5 (20221223.1930)
 -->
<!-- Title: include/Z2AudioLib/Z2WolfHowlMgr.h Pages: 1 -->
<svg width="638pt" height="478pt"
 viewBox="0.00 0.00 638.00 478.00" xmlns="http://www.w3.org/2000/svg" xmlns:xlink="http://www.w3.org/1999/xlink">
<g id="graph0" class="graph" transform="scale(1 1) rotate(0) translate(4 474)">
<title>include/Z2AudioLib/Z2WolfHowlMgr.h</title>
<!-- Node1 -->
<g id="node1" class="node">
<title>Node1</title>
<g id="a_node1"><a xlink:title=" ">
<polygon fill="#999999" stroke="#666666" points="209,-470 109,-470 109,-440 209,-440 209,-470"/>
<text text-anchor="start" x="117" y="-458" font-family="Helvetica,sans-Serif" font-size="10.00">include/Z2AudioLib</text>
<text text-anchor="middle" x="159" y="-447" font-family="Helvetica,sans-Serif" font-size="10.00">/Z2WolfHowlMgr.h</text>
</a>
</g>
</g>
<!-- Node2 -->
<g id="node2" class="node">
<title>Node2</title>
<g id="a_node2"><a xlink:href="JASGadget_8h.html" target="_top" xlink:title=" ">
<polygon fill="white" stroke="#666666" points="154,-398.5 0,-398.5 0,-379.5 154,-379.5 154,-398.5"/>
<text text-anchor="middle" x="77" y="-386.5" font-family="Helvetica,sans-Serif" font-size="10.00">JSystem/JAudio2/JASGadget.h</text>
</a>
</g>
</g>
<!-- Node1&#45;&gt;Node2 -->
<g id="edge1" class="edge">
<title>Node1&#45;&gt;Node2</title>
<path fill="none" stroke="#63b8ff" d="M140.8,-439.8C127.89,-429.72 110.56,-416.19 97.22,-405.78"/>
<polygon fill="#63b8ff" stroke="#63b8ff" points="99.56,-403.17 89.52,-399.78 95.25,-408.69 99.56,-403.17"/>
</g>
<!-- Node5 -->
<g id="node5" class="node">
<title>Node5</title>
<g id="a_node5"><a xlink:href="JAISoundHandles_8h.html" target="_top" xlink:title=" ">
<polygon fill="white" stroke="#666666" points="311.5,-404 172.5,-404 172.5,-374 311.5,-374 311.5,-404"/>
<text text-anchor="start" x="180.5" y="-392" font-family="Helvetica,sans-Serif" font-size="10.00">JSystem/JAudio2/JAISound</text>
<text text-anchor="middle" x="242" y="-381" font-family="Helvetica,sans-Serif" font-size="10.00">Handles.h</text>
</a>
</g>
</g>
<!-- Node1&#45;&gt;Node5 -->
<g id="edge4" class="edge">
<title>Node1&#45;&gt;Node5</title>
<path fill="none" stroke="#63b8ff" d="M177.42,-439.8C188.3,-431.4 202.3,-420.62 214.47,-411.23"/>
<polygon fill="#63b8ff" stroke="#63b8ff" points="216.36,-414.19 222.15,-405.31 212.09,-408.64 216.36,-414.19"/>
</g>
<!-- Node3 -->
<g id="node3" class="node">
<title>Node3</title>
<g id="a_node3"><a xlink:href="types_8h.html" target="_top" xlink:title=" ">
<polygon fill="white" stroke="#666666" points="271.5,-90.5 190.5,-90.5 190.5,-71.5 271.5,-71.5 271.5,-90.5"/>
<text text-anchor="middle" x="231" y="-78.5" font-family="Helvetica,sans-Serif" font-size="10.00">dolphin/types.h</text>
</a>
</g>
</g>
<!-- Node2&#45;&gt;Node3 -->
<g id="edge2" class="edge">
<title>Node2&#45;&gt;Node3</title>
<path fill="none" stroke="#63b8ff" d="M77,-379.04C77,-359.22 77,-310.11 77,-269 77,-269 77,-269 77,-201 77,-144.5 142.7,-111.04 188.28,-94.63"/>
<polygon fill="#63b8ff" stroke="#63b8ff" points="189.34,-97.96 197.66,-91.4 187.07,-91.34 189.34,-97.96"/>
</g>
<!-- Node4 -->
<g id="node4" class="node">
<title>Node4</title>
<g id="a_node4"><a xlink:href="stddef_8h.html" target="_top" xlink:title=" ">
<polygon fill="white" stroke="#666666" points="299,-30 163,-30 163,0 299,0 299,-30"/>
<text text-anchor="start" x="171" y="-18" font-family="Helvetica,sans-Serif" font-size="10.00">MSL_C/MSL_Common/Src</text>
<text text-anchor="middle" x="231" y="-7" font-family="Helvetica,sans-Serif" font-size="10.00">/stddef.h</text>
</a>
</g>
</g>
<!-- Node3&#45;&gt;Node4 -->
<g id="edge3" class="edge">
<title>Node3&#45;&gt;Node4</title>
<path fill="none" stroke="#63b8ff" d="M231,-71.1C231,-63.41 231,-51.92 231,-41.42"/>
<polygon fill="#63b8ff" stroke="#63b8ff" points="234.5,-41.75 231,-31.75 227.5,-41.75 234.5,-41.75"/>
</g>
<!-- Node6 -->
<g id="node6" class="node">
<title>Node6</title>
<g id="a_node6"><a xlink:href="JAISound_8h.html" target="_top" xlink:title=" ">
<polygon fill="white" stroke="#666666" points="415,-338 269,-338 269,-319 415,-319 415,-338"/>
<text text-anchor="middle" x="342" y="-326" font-family="Helvetica,sans-Serif" font-size="10.00">JSystem/JAudio2/JAISound.h</text>
</a>
</g>
</g>
<!-- Node5&#45;&gt;Node6 -->
<g id="edge5" class="edge">
<title>Node5&#45;&gt;Node6</title>
<path fill="none" stroke="#63b8ff" d="M266.72,-373.54C282.04,-364.58 301.66,-353.1 317.02,-344.11"/>
<polygon fill="#63b8ff" stroke="#63b8ff" points="318.71,-347.18 325.57,-339.11 315.17,-341.14 318.71,-347.18"/>
</g>
<!-- Node17 -->
<g id="node17" class="node">
<title>Node17</title>
<g id="a_node17"><a xlink:href="JUTAssert_8h.html" target="_top" xlink:title=" ">
<polygon fill="white" stroke="#666666" points="251,-338 105,-338 105,-319 251,-319 251,-338"/>
<text text-anchor="middle" x="178" y="-326" font-family="Helvetica,sans-Serif" font-size="10.00">JSystem/JUtility/JUTAssert.h</text>
</a>
</g>
</g>
<!-- Node5&#45;&gt;Node17 -->
<g id="edge20" class="edge">
<title>Node5&#45;&gt;Node17</title>
<path fill="none" stroke="#63b8ff" d="M226.18,-373.54C216.98,-365.13 205.36,-354.51 195.83,-345.8"/>
<polygon fill="#63b8ff" stroke="#63b8ff" points="198.35,-343.36 188.61,-339.2 193.63,-348.53 198.35,-343.36"/>
</g>
<!-- Node7 -->
<g id="node7" class="node">
<title>Node7</title>
<g id="a_node7"><a xlink:href="JAISoundParams_8h.html" target="_top" xlink:title=" ">
<polygon fill="white" stroke="#666666" points="407.5,-283 268.5,-283 268.5,-253 407.5,-253 407.5,-283"/>
<text text-anchor="start" x="276.5" y="-271" font-family="Helvetica,sans-Serif" font-size="10.00">JSystem/JAudio2/JAISound</text>
<text text-anchor="middle" x="338" y="-260" font-family="Helvetica,sans-Serif" font-size="10.00">Params.h</text>
</a>
</g>
</g>
<!-- Node6&#45;&gt;Node7 -->
<g id="edge6" class="edge">
<title>Node6&#45;&gt;Node7</title>
<path fill="none" stroke="#63b8ff" d="M341.41,-318.87C340.97,-312.4 340.34,-303.2 339.74,-294.45"/>
<polygon fill="#63b8ff" stroke="#63b8ff" points="343.24,-294.36 339.07,-284.62 336.26,-294.84 343.24,-294.36"/>
</g>
<!-- Node9 -->
<g id="node9" class="node">
<title>Node9</title>
<g id="a_node9"><a xlink:href="JAIAudible_8h.html" target="_top" xlink:title=" ">
<polygon fill="white" stroke="#666666" points="576.5,-277.5 425.5,-277.5 425.5,-258.5 576.5,-258.5 576.5,-277.5"/>
<text text-anchor="middle" x="501" y="-265.5" font-family="Helvetica,sans-Serif" font-size="10.00">JSystem/JAudio2/JAIAudible.h</text>
</a>
</g>
</g>
<!-- Node6&#45;&gt;Node9 -->
<g id="edge9" class="edge">
<title>Node6&#45;&gt;Node9</title>
<path fill="none" stroke="#63b8ff" d="M366.15,-318.62C392.76,-308.82 435.81,-292.98 466.1,-281.84"/>
<polygon fill="#63b8ff" stroke="#63b8ff" points="467.03,-285.23 475.2,-278.49 464.61,-278.66 467.03,-285.23"/>
</g>
<!-- Node16 -->
<g id="node16" class="node">
<title>Node16</title>
<g id="a_node16"><a xlink:href="global_8h.html" target="_top" xlink:title=" ">
<polygon fill="white" stroke="#666666" points="256,-211.5 206,-211.5 206,-192.5 256,-192.5 256,-211.5"/>
<text text-anchor="middle" x="231" y="-199.5" font-family="Helvetica,sans-Serif" font-size="10.00">global.h</text>
</a>
</g>
</g>
<!-- Node6&#45;&gt;Node16 -->
<g id="edge18" class="edge">
<title>Node6&#45;&gt;Node16</title>
<path fill="none" stroke="#63b8ff" d="M315.09,-318.65C297.27,-311.55 274.58,-299.94 260,-283 245.27,-265.88 237.79,-240.68 234.15,-223.15"/>
<polygon fill="#63b8ff" stroke="#63b8ff" points="237.62,-222.68 232.41,-213.46 230.74,-223.92 237.62,-222.68"/>
</g>
<!-- Node8 -->
<g id="node8" class="node">
<title>Node8</title>
<g id="a_node8"><a xlink:href="JASSoundParams_8h.html" target="_top" xlink:title=" ">
<polygon fill="white" stroke="#666666" points="417.5,-217 274.5,-217 274.5,-187 417.5,-187 417.5,-217"/>
<text text-anchor="start" x="282.5" y="-205" font-family="Helvetica,sans-Serif" font-size="10.00">JSystem/JAudio2/JASSound</text>
<text text-anchor="middle" x="346" y="-194" font-family="Helvetica,sans-Serif" font-size="10.00">Params.h</text>
</a>
</g>
</g>
<!-- Node7&#45;&gt;Node8 -->
<g id="edge7" class="edge">
<title>Node7&#45;&gt;Node8</title>
<path fill="none" stroke="#63b8ff" d="M339.78,-252.8C340.67,-245.67 341.77,-236.82 342.8,-228.56"/>
<polygon fill="#63b8ff" stroke="#63b8ff" points="346.27,-229.02 344.04,-218.67 339.33,-228.15 346.27,-229.02"/>
</g>
<!-- Node8&#45;&gt;Node3 -->
<g id="edge8" class="edge">
<title>Node8&#45;&gt;Node3</title>
<path fill="none" stroke="#63b8ff" d="M332.36,-186.88C311.04,-164.83 269.94,-122.29 247.17,-98.73"/>
<polygon fill="#63b8ff" stroke="#63b8ff" points="249.94,-96.56 240.47,-91.8 244.9,-101.42 249.94,-96.56"/>
</g>
<!-- Node10 -->
<g id="node10" class="node">
<title>Node10</title>
<g id="a_node10"><a xlink:href="JGeometry_8h.html" target="_top" xlink:title=" ">
<polygon fill="white" stroke="#666666" points="554.5,-211.5 441.5,-211.5 441.5,-192.5 554.5,-192.5 554.5,-211.5"/>
<text text-anchor="middle" x="498" y="-199.5" font-family="Helvetica,sans-Serif" font-size="10.00">JSystem/JGeometry.h</text>
</a>
</g>
</g>
<!-- Node9&#45;&gt;Node10 -->
<g id="edge10" class="edge">
<title>Node9&#45;&gt;Node10</title>
<path fill="none" stroke="#63b8ff" d="M500.58,-258.1C500.16,-249.12 499.5,-234.95 498.95,-223.22"/>
<polygon fill="#63b8ff" stroke="#63b8ff" points="502.45,-223.16 498.48,-213.34 495.46,-223.49 502.45,-223.16"/>
</g>
<!-- Node11 -->
<g id="node11" class="node">
<title>Node11</title>
<g id="a_node11"><a xlink:href="vec_8h.html" target="_top" xlink:title=" ">
<polygon fill="white" stroke="#666666" points="428,-151 336,-151 336,-132 428,-132 428,-151"/>
<text text-anchor="middle" x="382" y="-139" font-family="Helvetica,sans-Serif" font-size="10.00">dolphin/mtx/vec.h</text>
</a>
</g>
</g>
<!-- Node10&#45;&gt;Node11 -->
<g id="edge11" class="edge">
<title>Node10&#45;&gt;Node11</title>
<path fill="none" stroke="#63b8ff" d="M480.38,-192.12C461.65,-182.67 431.75,-167.59 409.82,-156.53"/>
<polygon fill="#63b8ff" stroke="#63b8ff" points="411.64,-153.53 401.14,-152.15 408.49,-159.78 411.64,-153.53"/>
</g>
<!-- Node12 -->
<g id="node12" class="node">
<title>Node12</title>
<g id="a_node12"><a xlink:href="float_8h.html" target="_top" xlink:title=" ">
<polygon fill="white" stroke="#666666" points="530,-151 452,-151 452,-132 530,-132 530,-151"/>
<text text-anchor="middle" x="491" y="-139" font-family="Helvetica,sans-Serif" font-size="10.00">MSL_C/float.h</text>
</a>
</g>
</g>
<!-- Node10&#45;&gt;Node12 -->
<g id="edge13" class="edge">
<title>Node10&#45;&gt;Node12</title>
<path fill="none" stroke="#63b8ff" d="M496.97,-192.37C496.03,-184.5 494.6,-172.6 493.38,-162.39"/>
<polygon fill="#63b8ff" stroke="#63b8ff" points="496.88,-162.18 492.22,-152.67 489.93,-163.02 496.88,-162.18"/>
</g>
<!-- Node15 -->
<g id="node15" class="node">
<title>Node15</title>
<g id="a_node15"><a xlink:href="math_8h.html" target="_top" xlink:title=" ">
<polygon fill="white" stroke="#666666" points="630,-151 548,-151 548,-132 630,-132 630,-151"/>
<text text-anchor="middle" x="589" y="-139" font-family="Helvetica,sans-Serif" font-size="10.00">MSL_C/math.h</text>
</a>
</g>
</g>
<!-- Node10&#45;&gt;Node15 -->
<g id="edge16" class="edge">
<title>Node10&#45;&gt;Node15</title>
<path fill="none" stroke="#63b8ff" d="M511.82,-192.12C526.12,-182.92 548.7,-168.41 565.75,-157.44"/>
<polygon fill="#63b8ff" stroke="#63b8ff" points="567.26,-160.64 573.78,-152.29 563.47,-154.75 567.26,-160.64"/>
</g>
<!-- Node11&#45;&gt;Node3 -->
<g id="edge12" class="edge">
<title>Node11&#45;&gt;Node3</title>
<path fill="none" stroke="#63b8ff" d="M359.07,-131.62C333.9,-121.87 293.27,-106.12 264.52,-94.99"/>
<polygon fill="#63b8ff" stroke="#63b8ff" points="266.15,-91.86 255.56,-91.52 263.62,-98.39 266.15,-91.86"/>
</g>
<!-- Node13 -->
<g id="node13" class="node">
<title>Node13</title>
<g id="a_node13"><a xlink:href="MSL__Common_2Src_2float_8h.html" target="_top" xlink:title=" ">
<polygon fill="white" stroke="#666666" points="608,-96 472,-96 472,-66 608,-66 608,-96"/>
<text text-anchor="start" x="480" y="-84" font-family="Helvetica,sans-Serif" font-size="10.00">MSL_C/MSL_Common/Src</text>
<text text-anchor="middle" x="540" y="-73" font-family="Helvetica,sans-Serif" font-size="10.00">/float.h</text>
</a>
</g>
</g>
<!-- Node12&#45;&gt;Node13 -->
<g id="edge14" class="edge">
<title>Node12&#45;&gt;Node13</title>
<path fill="none" stroke="#63b8ff" d="M498.23,-131.87C504.2,-124.74 512.96,-114.28 520.91,-104.79"/>
<polygon fill="#63b8ff" stroke="#63b8ff" points="523.47,-107.19 527.21,-97.27 518.1,-102.69 523.47,-107.19"/>
</g>
<!-- Node14 -->
<g id="node14" class="node">
<title>Node14</title>
<g id="a_node14"><a xlink:href="fdlibm_8h.html" target="_top" xlink:title=" ">
<polygon fill="white" stroke="#666666" points="565,-24.5 515,-24.5 515,-5.5 565,-5.5 565,-24.5"/>
<text text-anchor="middle" x="540" y="-12.5" font-family="Helvetica,sans-Serif" font-size="10.00">fdlibm.h</text>
</a>
</g>
</g>
<!-- Node13&#45;&gt;Node14 -->
<g id="edge15" class="edge">
<title>Node13&#45;&gt;Node14</title>
<path fill="none" stroke="#63b8ff" d="M540,-65.8C540,-57.09 540,-45.81 540,-36.18"/>
<polygon fill="#63b8ff" stroke="#63b8ff" points="543.5,-36.36 540,-26.36 536.5,-36.36 543.5,-36.36"/>
</g>
<!-- Node15&#45;&gt;Node13 -->
<g id="edge17" class="edge">
<title>Node15&#45;&gt;Node13</title>
<path fill="none" stroke="#63b8ff" d="M581.77,-131.87C575.8,-124.74 567.04,-114.28 559.09,-104.79"/>
<polygon fill="#63b8ff" stroke="#63b8ff" points="561.9,-102.69 552.79,-97.27 556.53,-107.19 561.9,-102.69"/>
</g>
<!-- Node16&#45;&gt;Node3 -->
<g id="edge19" class="edge">
<title>Node16&#45;&gt;Node3</title>
<path fill="none" stroke="#63b8ff" d="M231,-192.06C231,-173.1 231,-128.47 231,-102.23"/>
<polygon fill="#63b8ff" stroke="#63b8ff" points="234.5,-102.24 231,-92.24 227.5,-102.24 234.5,-102.24"/>
</g>
<!-- Node17&#45;&gt;Node3 -->
<g id="edge21" class="edge">
<title>Node17&#45;&gt;Node3</title>
<path fill="none" stroke="#63b8ff" d="M178.65,-318.52C180.41,-296.11 185.86,-235.96 197,-187 203.93,-156.54 215.82,-122.3 223.54,-101.44"/>
<polygon fill="#63b8ff" stroke="#63b8ff" points="226.76,-102.85 227.01,-92.25 220.21,-100.38 226.76,-102.85"/>
</g>
</g>
</svg>
